<svg width="140" height="32" viewBox="0 0 140 32" fill="none" xmlns="http://www.w3.org/2000/svg">
<g clip-path="url(#clip0_63_196)">
<path fill-rule="evenodd" clip-rule="evenodd" d="M35.5026 16.4692C37.1402 19.3059 36.1684 22.9329 33.3318 24.5707L26.22 28.6766C23.3834 30.3144 19.7563 29.3425 18.1185 26.5059C16.4809 23.6693 17.4527 20.0422 20.2894 18.4044L27.4011 14.2985C30.2378 12.6608 33.8648 13.6326 35.5026 16.4692Z" fill="#84FB7F"/>
<path fill-rule="evenodd" clip-rule="evenodd" d="M27.7319 3.00874C29.3695 5.84533 28.3977 9.47246 25.5611 11.1102L8.96463 20.6921C6.12802 22.3299 2.50088 21.358 0.863175 18.5214C-0.774532 15.6848 0.197356 12.0577 3.03395 10.4199L19.6304 0.837967C22.467 -0.799739 26.0941 0.172149 27.7319 3.00874Z" fill="#84FB7F"/>
<path d="M56.1 25.4784H52.5308V7.23858H45.7856V4.03467H62.9013V7.23858H56.1V25.4784Z" fill="white"/>
<path d="M67.9682 25.7876C66.4318 25.7876 65.064 25.441 63.8649 24.7477C62.6657 24.0545 61.729 23.0896 61.0544 21.853C60.3987 20.5976 60.0708 19.1643 60.0708 17.553C60.0708 15.9979 60.3987 14.6114 61.0544 13.3935C61.729 12.1569 62.6657 11.2013 63.8649 10.5269C65.064 9.83362 66.4318 9.487 67.9682 9.487C69.5046 9.487 70.8723 9.83362 72.0714 10.5269C73.2706 11.2013 74.2073 12.1569 74.8819 13.3935C75.5564 14.6114 75.8937 15.9979 75.8937 17.553C75.8937 19.1456 75.5564 20.5696 74.8819 21.8249C74.2261 23.0615 73.2987 24.0358 72.0995 24.7477C70.9004 25.441 69.5233 25.7876 67.9682 25.7876ZM67.9682 22.8928C68.83 22.8928 69.6076 22.668 70.3008 22.2184C70.9941 21.7499 71.5281 21.1129 71.9028 20.3072C72.2963 19.5015 72.493 18.5835 72.493 17.553C72.493 16.5787 72.2963 15.6981 71.9028 14.9112C71.5281 14.1055 70.9941 13.4778 70.3008 13.0282C69.6076 12.5784 68.83 12.3536 67.9682 12.3536C67.1063 12.3536 66.3287 12.5784 65.6355 13.0282C64.9422 13.4591 64.3989 14.0774 64.0055 14.883C63.6307 15.67 63.4433 16.56 63.4433 17.553C63.4433 18.6022 63.6401 19.5297 64.0335 20.3354C64.427 21.141 64.961 21.7686 65.6355 22.2184C66.3287 22.668 67.1063 22.8928 67.9682 22.8928Z" fill="white"/>
<path d="M86.6426 9.45892C88.0105 9.45892 89.2096 9.80546 90.2398 10.4987C91.289 11.1733 92.1043 12.1288 92.6849 13.3654C93.2654 14.602 93.5562 16.0166 93.5562 17.6092C93.5562 19.2018 93.2654 20.6163 92.6849 21.853C92.1043 23.0896 91.289 24.0545 90.2398 24.7477C89.2096 25.4222 88.0105 25.7595 86.6426 25.7595C85.6494 25.7595 84.7872 25.5815 84.0567 25.2256C83.3263 24.8695 82.6238 24.2419 81.9489 23.3426V31.2118H78.6326V9.76799H81.9489V11.904C82.6238 11.0046 83.3164 10.377 84.0287 10.021C84.7592 9.64628 85.6305 9.45892 86.6426 9.45892ZM85.9682 12.3255C85.1249 12.3255 84.3755 12.5504 83.7191 13C83.0636 13.4497 82.5489 14.0774 82.1737 14.883C81.799 15.6888 81.6117 16.5974 81.6117 17.6092C81.6117 18.6209 81.799 19.5297 82.1737 20.3354C82.5489 21.141 83.0636 21.7686 83.7191 22.2184C84.3755 22.668 85.1249 22.8928 85.9682 22.8928C87.2603 22.8928 88.2913 22.3963 89.0597 21.4033C89.8272 20.4103 90.2118 19.1456 90.2118 17.6092C90.2118 16.0729 89.8272 14.8081 89.0597 13.8151C88.2913 12.8221 87.2603 12.3255 85.9682 12.3255Z" fill="white"/>
<path d="M104.339 9.45892C105.706 9.45892 106.906 9.80546 107.936 10.4987C108.985 11.1733 109.8 12.1288 110.381 13.3654C110.961 14.602 111.252 16.0166 111.252 17.6092C111.252 19.2018 110.961 20.6163 110.381 21.853C109.8 23.0896 108.985 24.0545 107.936 24.7477C106.906 25.4222 105.706 25.7595 104.339 25.7595C103.345 25.7595 102.483 25.5815 101.753 25.2256C101.022 24.8695 100.319 24.2419 99.6445 23.3426V31.2118H96.3281V9.76799H99.6445V11.904C100.319 11.0046 101.012 10.377 101.725 10.021C102.455 9.64628 103.326 9.45892 104.339 9.45892ZM103.664 12.3255C102.821 12.3255 102.071 12.5504 101.415 13C100.76 13.4497 100.244 14.0774 99.8693 14.883C99.4946 15.6888 99.3077 16.5974 99.3077 17.6092C99.3077 18.6209 99.4946 19.5297 99.8693 20.3354C100.244 21.141 100.76 21.7686 101.415 22.2184C102.071 22.668 102.821 22.8928 103.664 22.8928C104.956 22.8928 105.987 22.3963 106.756 21.4033C107.523 20.4103 107.908 19.1456 107.908 17.6092C107.908 16.0729 107.523 14.8081 106.756 13.8151C105.987 12.8221 104.956 12.3255 103.664 12.3255Z" fill="white"/>
<path d="M121.219 25.7876C119.683 25.7876 118.315 25.441 117.116 24.7477C115.936 24.0358 115.017 23.0709 114.362 21.853C113.706 20.6163 113.379 19.2298 113.379 17.6935C113.379 16.2695 113.669 14.9299 114.249 13.6746C114.849 12.4193 115.73 11.4075 116.891 10.6393C118.072 9.87109 119.486 9.487 121.135 9.487C122.521 9.487 123.805 9.78676 124.985 10.3863C126.185 10.9671 127.14 11.8571 127.852 13.0563C128.583 14.2554 128.948 15.7262 128.948 17.4686V18.3118H116.751C116.863 19.0425 117.041 19.6233 117.285 20.0543C117.659 20.9349 118.194 21.6281 118.886 22.134C119.599 22.6399 120.404 22.8928 121.303 22.8928C122.26 22.8928 123.074 22.6493 123.749 22.1621C124.442 21.6562 124.939 21.0286 125.238 20.2791H128.667C128.161 21.9092 127.281 23.2394 126.026 24.2699C124.77 25.2817 123.168 25.7876 121.219 25.7876ZM125.491 15.6981C125.416 15.1172 125.247 14.6207 124.985 14.2085C124.611 13.5528 124.095 13.0563 123.44 12.719C122.784 12.363 122.053 12.185 121.247 12.185C120.423 12.185 119.693 12.363 119.055 12.719C118.419 13.0563 117.903 13.5528 117.509 14.2085C117.266 14.5832 117.079 15.0798 116.948 15.6981H125.491Z" fill="white"/>
<path d="M131.638 25.4785V9.76799H134.954V11.7353C135.573 10.911 136.247 10.3301 136.979 9.99289C137.728 9.65558 138.608 9.487 139.62 9.487H139.985V12.719H139.142C137.887 12.719 136.922 13.0563 136.247 13.7307C135.386 14.5365 134.954 15.9229 134.954 17.8902V25.4785H131.638Z" fill="white"/>
</g>
<defs>
<clipPath id="clip0_63_196">
<rect width="140" height="31.2118" fill="white"/>
</clipPath>
</defs>
</svg>
