<svg width="140" height="45" viewBox="0 0 140 45" fill="none" xmlns="http://www.w3.org/2000/svg">
<path d="M73.3629 39.6381V39.1562C73.0325 39.5417 72.5162 39.7482 71.9311 39.7482C71.2151 39.7482 70.4028 39.2526 70.4028 38.2888C70.4028 37.2631 71.2083 36.8432 71.9311 36.8432C72.5369 36.8432 73.0394 37.0359 73.3629 37.4077V36.7468C73.3629 36.2374 72.9361 35.9276 72.3303 35.9276C71.8347 35.9276 71.401 36.1135 71.0224 36.4921L70.6231 35.8243C71.1325 35.3287 71.7727 35.1084 72.4818 35.1084C73.4662 35.1084 74.3267 35.5214 74.3267 36.6986V39.6312H73.3629V39.6381ZM73.3629 38.633V37.9584C73.1358 37.6555 72.7227 37.504 72.3097 37.504C71.7727 37.504 71.3597 37.8207 71.3597 38.2957C71.3597 38.7776 71.7727 39.0942 72.3097 39.0942C72.7227 39.0874 73.1289 38.9359 73.3629 38.633Z" fill="black"/>
<path d="M100.679 37.4283C100.679 36.0928 101.622 35.1153 102.957 35.1153C103.825 35.1153 104.334 35.4801 104.651 35.9001L104.017 36.4783C103.77 36.1341 103.432 35.9689 103.006 35.9689C102.207 35.9689 101.67 36.5747 101.67 37.4283C101.67 38.2888 102.207 38.9015 103.006 38.9015C103.432 38.9015 103.777 38.7156 104.017 38.3714L104.651 38.9635C104.341 39.3765 103.832 39.7482 102.957 39.7482C101.622 39.7482 100.679 38.7569 100.679 37.4283Z" fill="black"/>
<path d="M105.367 37.4283C105.367 36.1548 106.227 35.1153 107.632 35.1153C109.036 35.1153 109.896 36.1548 109.896 37.4283C109.896 38.6881 109.036 39.7482 107.632 39.7482C106.227 39.7482 105.367 38.6881 105.367 37.4283ZM108.905 37.4283C108.905 36.6504 108.458 35.9689 107.632 35.9689C106.819 35.9689 106.358 36.6573 106.358 37.4283C106.358 38.2131 106.812 38.9015 107.632 38.9015C108.458 38.8946 108.905 38.2131 108.905 37.4283Z" fill="black"/>
<path d="M116.388 39.6381V36.7606C116.388 36.2856 116.175 35.962 115.658 35.962C115.231 35.962 114.825 36.2512 114.633 36.5472V39.6381H113.676V36.7606C113.676 36.2856 113.476 35.962 112.953 35.962C112.526 35.962 112.134 36.2649 111.927 36.5472V39.6381H110.97V35.2254H111.927V35.8175C112.12 35.549 112.698 35.1153 113.373 35.1153C114.034 35.1153 114.433 35.4457 114.577 35.9207C114.825 35.5283 115.41 35.1153 116.078 35.1153C116.884 35.1153 117.352 35.5559 117.352 36.4508V39.6381H116.388Z" fill="black"/>
<path d="M119.644 39.0254V41.3178H118.687V35.2254H119.644V35.8312C119.975 35.3907 120.484 35.1153 121.062 35.1153C122.205 35.1153 123.017 35.9758 123.017 37.4283C123.017 38.8808 122.205 39.7482 121.062 39.7482C120.498 39.7482 120.009 39.4935 119.644 39.0254ZM122.026 37.4283C122.026 36.5678 121.53 35.9689 120.773 35.9689C120.326 35.9689 119.858 36.2236 119.637 36.5541V38.3026C119.851 38.633 120.326 38.9084 120.773 38.9084C121.53 38.8946 122.026 38.2819 122.026 37.4283Z" fill="black"/>
<path d="M126.769 39.6381V39.1562C126.439 39.5417 125.922 39.7482 125.337 39.7482C124.621 39.7482 123.809 39.2526 123.809 38.2888C123.809 37.2631 124.614 36.8432 125.337 36.8432C125.943 36.8432 126.445 37.0359 126.769 37.4077V36.7468C126.769 36.2374 126.342 35.9276 125.736 35.9276C125.241 35.9276 124.807 36.1135 124.428 36.4921L124.029 35.8243C124.539 35.3287 125.179 35.1084 125.888 35.1084C126.872 35.1084 127.733 35.5214 127.733 36.6986V39.6312H126.769V39.6381ZM126.769 38.633V37.9584C126.542 37.6555 126.129 37.504 125.716 37.504C125.179 37.504 124.766 37.8207 124.766 38.2957C124.766 38.7776 125.179 39.0942 125.716 39.0942C126.129 39.0874 126.542 38.9359 126.769 38.633Z" fill="black"/>
<path d="M132.056 39.6381V36.8776C132.056 36.1823 131.698 35.962 131.161 35.962C130.679 35.962 130.259 36.2512 130.025 36.5472V39.6381H129.068V35.2254H130.025V35.8175C130.314 35.4733 130.893 35.1153 131.588 35.1153C132.538 35.1153 133.013 35.6247 133.013 36.5334V39.6381H132.056Z" fill="black"/>
<path d="M134.3 40.5054C134.404 40.5536 134.555 40.5812 134.665 40.5812C134.975 40.5812 135.175 40.4917 135.305 40.1957L135.526 39.6931L133.708 35.2254H134.741L136.028 38.5366L137.315 35.2254H138.341L136.214 40.4366C135.911 41.187 135.395 41.421 134.706 41.4348C134.569 41.4348 134.293 41.4072 134.169 41.3728L134.3 40.5054Z" fill="black"/>
<path d="M80.474 37.091C80.474 36.5541 80.1918 36.3613 79.7512 36.3613C79.3313 36.3613 79.0559 36.5885 78.8907 36.7881V39.645H77.4795V35.2254H78.8907V35.6109L78.7186 35.9345C78.9871 35.6247 79.6755 35.1153 80.419 35.1153C81.424 35.1153 81.8853 35.7004 81.8853 36.5127V39.645H80.474V37.091Z" fill="black"/>
<path d="M85.2996 38.991C85.0242 39.3008 84.3703 39.7551 83.6337 39.7551C82.6286 39.7551 82.1812 39.1907 82.1812 38.3715V35.2255H83.5924V37.7932C83.5924 38.3233 83.8677 38.5091 84.3221 38.5091C84.7213 38.5091 84.9967 38.2888 85.1619 38.0823V35.2255H86.5731V39.645H85.1619V39.3146L85.2996 38.991Z" fill="black"/>
<path d="M93.533 35.1153C94.841 35.1153 95.791 36.0791 95.791 37.5798V37.8827H92.7483L92.6244 37.7175C92.6244 37.7725 92.6312 37.8482 92.6519 37.9171C92.7551 38.3164 93.1269 38.6674 93.7671 38.6674C94.1595 38.6674 94.6001 38.5091 94.8479 38.2957L95.4399 39.1769C94.9993 39.5692 94.2696 39.762 93.595 39.762C92.232 39.762 91.1787 38.874 91.1787 37.4352C91.1787 36.1479 92.1494 35.1153 93.533 35.1153ZM92.6244 36.9602H94.4417C94.4073 36.6504 94.1733 36.203 93.5262 36.203C92.9204 36.203 92.6794 36.6435 92.6244 36.9602Z" fill="black"/>
<path d="M96.0801 35.2255H97.4913V39.645H96.0801V35.2255Z" fill="black"/>
<path d="M90.0497 35.2255L89.0997 37.8552L89.1341 38.2682L88.0465 35.2255H86.8486V35.9414L88.3012 39.645H89.8019L91.5435 35.2255H90.0497Z" fill="black"/>
<path d="M95.9768 36.8914C95.9768 36.4439 96.3348 36.0859 96.7822 36.0859C97.2297 36.0859 97.5877 36.4439 97.5877 36.8914C97.5877 37.3388 97.2297 37.6968 96.7822 37.6968C96.3348 37.6968 95.9768 37.3388 95.9768 36.8914Z" fill="#41AC48"/>
<path d="M26.056 1.03262C25.0923 1.39747 24.5278 2.07898 24.3488 3.09093L24.28 3.53151L18.5662 4.83259L12.8594 6.13366L12.7492 5.96156C12.5221 5.61048 12.0333 5.13548 11.7098 4.96338C10.4225 4.2681 8.77029 4.79817 8.15073 6.11301C7.98552 6.45033 7.96487 6.59489 7.96487 7.24887C7.96487 7.9235 7.98552 8.02676 8.15762 8.36408C8.26776 8.5706 8.47428 8.85973 8.61885 9.01118L8.88732 9.29342L6.34024 14.5666L3.80004 19.8466L3.18048 19.8397C2.64353 19.8397 2.51273 19.8604 2.09281 20.06C1.54209 20.3216 1.12217 20.714 0.853689 21.2303C0.667821 21.5745 0.654053 21.6709 0.654053 22.3868C0.654053 23.0614 0.674705 23.2129 0.819269 23.502C1.08086 24.0252 1.50079 24.452 2.02397 24.7067C2.45078 24.9201 2.55404 24.9408 3.14606 24.9408H3.79316L6.24386 30.0418C7.59313 32.8505 8.72899 35.2255 8.77718 35.3218C8.84602 35.4871 8.82537 35.5352 8.59819 35.7762C8.45363 35.9276 8.26088 36.2099 8.15073 36.4164C7.97175 36.7399 7.95798 36.8501 7.95798 37.5591C7.95798 38.2338 7.97863 38.3783 8.1232 38.6744C9.01123 40.4435 11.4688 40.6501 12.5771 39.0461C12.7561 38.7914 12.88 38.6675 12.9558 38.695C13.0177 38.7157 15.5442 39.287 18.5593 39.9754C21.5814 40.6638 24.101 41.2352 24.1629 41.2559C24.2455 41.2765 24.3006 41.4073 24.3281 41.662C24.4314 42.4812 25.0097 43.2866 25.7531 43.6308C26.1386 43.8167 26.2557 43.8374 26.8959 43.8374C27.5499 43.8374 27.6462 43.8167 28.0455 43.6171C28.5825 43.3486 29.0575 42.8323 29.2709 42.2885C29.4636 41.7928 29.4843 40.9048 29.3122 40.4573L29.2089 40.1613L33.3255 36.8776C35.5904 35.0671 37.6556 33.4287 37.9172 33.2222L38.3922 32.8505L38.874 33.0983C39.5005 33.4081 40.0374 33.4769 40.6708 33.3117C41.8686 33.0088 42.5983 32.0588 42.5983 30.8128C42.5983 30.1864 42.4262 29.677 42.0476 29.1813C41.8204 28.8853 41.3248 28.5411 40.9186 28.4034L40.6019 28.3002V22.3868C40.6019 16.735 40.6088 16.4734 40.7327 16.4734C40.9943 16.4734 41.607 16.0948 41.9443 15.7231C42.5983 15.0071 42.7979 13.9677 42.4468 13.059C42.2472 12.522 41.7103 11.93 41.1871 11.6753C40.8222 11.4963 40.7052 11.4757 40.0719 11.4757C39.411 11.4757 39.3284 11.4894 38.8947 11.7028C38.6331 11.8336 38.4059 11.9369 38.3853 11.9369C38.3577 11.9369 36.2788 10.2916 33.773 8.28836L29.202 4.63983L29.2984 4.40578C29.6701 3.51086 29.3466 2.17536 28.61 1.54892C28.1212 1.14276 27.7151 0.998195 26.9923 0.977543C26.5448 0.950007 26.235 0.970659 26.056 1.03262ZM24.397 4.68802C24.4176 4.71556 23.3093 5.63801 21.9394 6.73946L19.4405 8.72205L17.1344 8.19886C13.2587 7.31771 13.2449 7.31083 13.2449 7.22134C13.2449 7.16626 14.7387 6.78764 17.6988 6.1199C20.1427 5.56229 22.5865 4.9978 23.1372 4.87389C24.2111 4.6123 24.3419 4.59853 24.397 4.68802ZM25.1611 5.76881C25.1473 5.82388 24.7343 6.70504 24.2455 7.72387C23.6191 9.01806 23.3162 9.58943 23.2405 9.58255C22.9513 9.57567 20.8861 9.05248 20.8999 8.99053C20.9274 8.88038 25.0303 5.63113 25.1129 5.65178C25.1542 5.65867 25.1749 5.71374 25.1611 5.76881ZM33.1466 9.16263C37.0016 12.2398 37.7313 12.8525 37.4972 12.8456C37.2976 12.8387 31.3567 11.4343 31.3085 11.3862C31.1846 11.2622 28.5618 5.72062 28.5962 5.66555C28.6169 5.63801 28.6582 5.61736 28.6857 5.63113C28.727 5.6449 30.7303 7.2351 33.1466 9.16263ZM26.352 8.24017C26.352 9.36915 26.3383 10.2985 26.3245 10.2985C26.235 10.2985 24.4865 9.87856 24.4658 9.85103C24.4039 9.78907 26.1662 6.18874 26.2557 6.18874C26.3314 6.18185 26.352 6.60866 26.352 8.24017ZM28.7821 8.64632C29.4361 10.0025 29.9593 11.1039 29.9455 11.1108C29.9386 11.1177 29.3672 11.0007 28.6788 10.8423L27.4191 10.5532V8.37096C27.4191 6.64996 27.4397 6.18874 27.5086 6.18874C27.5567 6.18185 28.1281 7.29018 28.7821 8.64632ZM15.675 8.94922C17.0518 9.259 18.2151 9.53436 18.2702 9.55501C18.3253 9.57567 17.9742 9.9061 17.3478 10.4017L16.3289 11.2141L16.0467 10.98C15.8884 10.8492 15.1311 10.2503 14.367 9.63074C13.596 9.01806 12.9627 8.48799 12.9627 8.44669C12.9627 8.41227 13.0108 8.38473 13.0659 8.38473C13.1279 8.38473 14.2982 8.63944 15.675 8.94922ZM13.9195 10.6565C15.1793 11.6615 15.4271 11.8887 15.3514 11.9644C15.3032 12.0126 14.9521 12.2948 14.5873 12.5909C14.1192 12.9695 13.8989 13.1003 13.8645 13.0383C13.6648 12.6735 12.1779 9.51371 12.1779 9.44487C12.1779 9.28654 12.3844 9.4311 13.9195 10.6565ZM12.109 11.8543L13.0453 13.8024L12.7974 14.0158C12.6598 14.126 12.1916 14.5046 11.7648 14.8488L10.9801 15.4684V12.7148C10.9801 10.5738 11.0007 9.9474 11.0696 9.91987C11.1109 9.9061 11.159 9.89233 11.1659 9.89921C11.1728 9.89921 11.5996 10.7872 12.109 11.8543ZM21.3887 10.2572C22.1872 10.443 22.8412 10.5876 22.8481 10.5945C22.8687 10.622 20.8586 14.7524 20.8242 14.7524C20.7209 14.7524 17.2101 11.8887 17.2583 11.8474C17.6575 11.455 19.7503 9.87168 19.8329 9.89233C19.888 9.91986 20.5901 10.0851 21.3887 10.2572ZM9.98188 13.1072L9.97499 16.2807L7.52429 18.2357C6.17502 19.3028 5.03916 20.1908 4.97721 20.2046C4.92214 20.2183 4.88083 20.1908 4.88083 20.1495C4.88083 20.0807 8.72899 12.0264 9.49311 10.4912C9.98188 9.51371 9.98188 9.51371 9.98188 13.1072ZM25.168 11.1246L26.352 11.3862L26.3383 13.9745L26.3176 16.5698L25.0441 16.8589L23.7705 17.1481L22.7586 16.3358C22.201 15.8883 21.7466 15.489 21.7466 15.4477C21.7466 15.3582 23.8945 10.8699 23.9426 10.863C23.9633 10.863 24.5071 10.9731 25.168 11.1246ZM29.0093 11.9988C29.8629 12.1985 30.5651 12.3637 30.5788 12.3775C30.689 12.522 31.935 15.2412 31.8937 15.2687C31.8661 15.2963 30.9024 15.5303 29.7527 15.785C28.6031 16.0466 27.6049 16.2738 27.543 16.2945C27.4191 16.3289 27.4122 16.1912 27.4122 13.9883C27.4122 12.701 27.4191 11.6409 27.4328 11.6409C27.4466 11.6409 28.1625 11.8061 29.0093 11.9988ZM18.4699 14.2843C19.4887 15.0966 20.3285 15.785 20.3285 15.8195C20.3285 15.847 20.0738 16.3908 19.7709 17.031L19.2064 18.1876L18.0499 18.456C17.4097 18.6006 16.8315 18.7176 16.7489 18.7245C16.6249 18.7245 16.5286 18.5731 16.2257 17.926C16.0123 17.4923 15.5166 16.4597 15.1173 15.6267L14.3876 14.126L15.3583 13.355C16.2876 12.6046 16.3289 12.584 16.4735 12.6941C16.5492 12.763 17.451 13.4789 18.4699 14.2843ZM35.9208 13.5753C36.857 13.7887 37.2288 13.8988 37.2288 13.9745C37.2288 14.0503 36.6643 14.2086 35.136 14.5528C33.9864 14.8144 33.0364 15.0278 33.0295 15.0209C33.0226 15.014 32.7679 14.4771 32.4582 13.83L31.9006 12.6597L33.2567 12.9626C34.0002 13.1347 35.198 13.4101 35.9208 13.5753ZM14.5597 16.9416C15.0898 18.0499 15.496 18.9723 15.4684 19.0136C15.434 19.0412 14.4496 19.2821 13.2793 19.5437C12.109 19.8053 11.1109 20.0394 11.0696 20.0531C11.0007 20.0807 10.9801 19.7365 10.9801 18.4629V16.8383L12.2398 15.8401C12.9282 15.2894 13.5134 14.8626 13.5409 14.8901C13.5684 14.9177 14.0297 15.847 14.5597 16.9416ZM37.5386 15.2137C37.5248 15.2687 36.8157 15.8745 35.9552 16.556L34.3994 17.7952L33.9933 16.9966C33.7661 16.5492 33.5734 16.143 33.5665 16.1017C33.5527 16.0397 34.1379 15.8745 35.4252 15.5716C37.5248 15.076 37.573 15.0691 37.5386 15.2137ZM38.3509 16.2325C38.3164 16.3908 36.031 21.0651 35.9896 21.0651C35.9621 21.0651 35.907 20.9962 35.8657 20.8999C35.8244 20.8172 35.5766 20.3078 35.3219 19.764L34.8607 18.7865L36.5404 17.4441C38.0686 16.2325 38.3922 16.0122 38.3509 16.2325ZM32.9813 17.3546C33.2705 17.9742 33.5114 18.4767 33.5114 18.4905C33.5114 18.4973 32.6578 19.1857 31.6183 20.0118C30.5719 20.8379 29.6701 21.5538 29.6082 21.6158C29.5118 21.6984 29.3672 21.602 28.4585 20.8792L27.4191 20.0531V18.7245V17.3959L27.9698 17.272C28.2658 17.2031 29.381 16.9484 30.4274 16.7075C31.4806 16.4597 32.3618 16.26 32.3893 16.2532C32.4169 16.2463 32.6784 16.7419 32.9813 17.3546ZM22.084 17.1687C22.2905 17.3339 22.3593 17.4234 22.2974 17.4579C22.2492 17.4854 21.8843 17.5818 21.4988 17.6644C21.1064 17.747 20.7347 17.8365 20.6727 17.8502C20.5832 17.8778 20.6314 17.7194 20.8861 17.1756L21.2166 16.4666L21.4988 16.7006C21.6503 16.8314 21.9187 17.0379 22.084 17.1687ZM39.5349 22.373C39.5349 26.9578 39.5143 28.0799 39.4454 28.1074C39.3835 28.1281 38.9222 27.24 38.0135 25.3538C37.2701 23.8187 36.6505 22.5038 36.6436 22.4488C36.6092 22.2835 39.3215 16.68 39.4454 16.68C39.5211 16.6731 39.5349 17.6644 39.5349 22.373ZM9.95434 20.2734C9.89927 20.3285 5.69314 21.2716 5.65872 21.2372C5.58988 21.1614 5.86524 20.9205 7.85472 19.3303L9.94746 17.6713L9.96811 18.9517C9.975 19.6538 9.96811 20.2528 9.95434 20.2734ZM26.352 18.4147C26.352 18.9861 26.3314 19.1444 26.2694 19.11C26.2212 19.0756 25.8702 18.814 25.5053 18.5249L24.8376 17.9948L25.4709 17.8365C26.4347 17.6024 26.352 17.5473 26.352 18.4147ZM24.9271 19.4404L26.352 20.5763V22.4006V24.2248L24.9408 25.34C24.1629 25.9596 23.4814 26.4621 23.4332 26.4621C23.2336 26.4621 19.9361 25.6842 19.9155 25.636C19.9086 25.6085 19.5506 24.865 19.1307 23.9839L18.3666 22.3937L19.1376 20.7897C19.5644 19.9086 19.9293 19.172 19.9568 19.1444C19.9981 19.1031 23.2061 18.3321 23.4126 18.3184C23.4608 18.3046 24.1423 18.814 24.9271 19.4404ZM18.5593 19.4886C18.5593 19.5781 17.8296 21.072 17.7815 21.072C17.7608 21.072 17.5956 20.7759 17.4097 20.4111L17.0862 19.7502L17.7402 19.5988C18.4767 19.4336 18.5593 19.4129 18.5593 19.4886ZM34.7368 21.0031L35.4045 22.3868L34.723 23.8187C34.3444 24.6034 34.0071 25.2437 33.9726 25.2299C33.835 25.2024 30.3998 22.4488 30.4136 22.3937C30.448 22.2835 33.9726 19.5162 34.0208 19.5644C34.0415 19.5919 34.365 20.239 34.7368 21.0031ZM16.5905 21.1614C16.8865 21.7948 17.1344 22.3386 17.1344 22.3799C17.1344 22.5382 16.0398 24.7549 15.9641 24.7549C15.8815 24.7549 11.3243 23.7223 11.0971 23.6466C10.9869 23.6122 10.9663 23.4882 10.9663 22.3799V21.1546L11.6616 20.9962C12.0402 20.9067 13.1485 20.652 14.1192 20.4249C15.0967 20.2046 15.9297 20.0118 15.9641 20.0118C16.0123 20.0118 16.2876 20.5281 16.5905 21.1614ZM9.96811 23.3781C9.94746 23.3919 7.57248 22.8687 6.10618 22.5176C6.01669 22.4969 5.94097 22.4419 5.94097 22.3868C5.94097 22.3248 6.58807 22.1459 7.94421 21.8361L9.94057 21.3817L9.96123 22.3661C9.975 22.91 9.975 23.3643 9.96811 23.3781ZM28.5687 22.3455C28.61 22.3868 28.1763 22.7723 27.5086 23.2886C27.4397 23.3368 27.4191 23.1509 27.4191 22.3868V21.4162L27.9698 21.8567C28.2658 22.0977 28.5412 22.318 28.5687 22.3455ZM31.4737 24.6516C32.5339 25.4984 33.4288 26.2074 33.4563 26.2418C33.5183 26.2969 32.4857 28.5067 32.3962 28.5067C32.3274 28.5067 27.7288 27.4603 27.543 27.3984C27.4328 27.3639 27.4122 27.2331 27.4122 26.0353L27.4191 24.7067L28.4241 23.915C28.9748 23.4745 29.4567 23.1165 29.4843 23.1165C29.5118 23.1165 30.4136 23.8118 31.4737 24.6516ZM7.72393 23.9701C8.74964 24.2042 9.65833 24.4107 9.74782 24.4313C9.90616 24.4658 9.90615 24.4795 9.90615 25.7806V27.0886L7.779 25.3882C6.60872 24.452 5.65184 23.6535 5.65184 23.619C5.65872 23.5089 5.76198 23.5295 7.72393 23.9701ZM18.2083 24.5346L18.6075 25.3676L18.0362 25.2368C17.7195 25.1679 17.4304 25.0991 17.3891 25.0991C17.3546 25.0991 17.2789 25.0716 17.2239 25.0371C17.1481 24.989 17.1894 24.8444 17.4235 24.3281C17.5956 23.977 17.747 23.681 17.7677 23.681C17.7883 23.681 17.988 24.0665 18.2083 24.5346ZM37.1806 26.0766C37.8139 27.3915 38.3302 28.5136 38.3302 28.5549C38.3302 28.6031 38.3027 28.6444 38.2683 28.6444C38.1856 28.6444 34.8951 26.0284 34.8951 25.9596C34.8951 25.8839 35.9552 23.6879 35.9965 23.6879C36.0103 23.6879 36.5404 24.7687 37.1806 26.0766ZM7.48987 26.531L9.90615 28.4654V31.6802C9.90615 34.0001 9.8855 34.8882 9.83043 34.8675C9.73406 34.8331 4.80511 24.6241 4.86018 24.569C4.88083 24.5484 4.94279 24.5484 4.99098 24.5621C5.03916 24.5897 6.16814 25.4777 7.48987 26.531ZM13.4927 25.2918L15.5579 25.7668L14.5597 27.8458C13.9264 29.1607 13.534 29.9179 13.4721 29.8972C13.4239 29.8835 12.8387 29.4291 12.1779 28.8991L10.9732 27.9353V26.3382V24.7342L11.2072 24.7824C11.3243 24.8031 12.3637 25.0371 13.4927 25.2918ZM26.352 26.3726V27.1436L25.6292 26.9715C25.2299 26.8752 24.8995 26.7857 24.8858 26.7719C24.8651 26.7581 26.2832 25.6085 26.3383 25.5947C26.3452 25.6016 26.352 25.9527 26.352 26.3726ZM17.8365 26.2763C18.4492 26.4208 19.0068 26.5447 19.0825 26.5723C19.1651 26.5929 19.4061 27.006 19.7709 27.7701C20.0807 28.4172 20.3285 28.9541 20.3285 28.9679C20.3285 29.0023 16.5423 32.0451 16.3909 32.1414C16.3427 32.169 15.8952 31.8592 15.3514 31.4186L14.3876 30.6545L15.5029 28.3415C16.1155 27.0679 16.6387 26.0216 16.6731 26.0216C16.6938 26.0284 17.217 26.1455 17.8365 26.2763ZM21.8293 27.8114L21.2166 28.3002L20.9688 27.8183C20.838 27.5567 20.6865 27.24 20.6383 27.1161L20.5488 26.8958L21.4988 27.1092L22.4419 27.3295L21.8293 27.8114ZM36.0172 28.2864C36.8915 28.9817 37.5867 29.5806 37.5523 29.6219C37.5248 29.6632 36.7882 29.5324 35.5973 29.2502C34.5509 29.0092 33.6491 28.7958 33.6009 28.782C33.5252 28.7545 34.2962 27.0197 34.3857 27.0197C34.4132 27.0197 35.1498 27.5911 36.0172 28.2864ZM24.9477 27.9078C25.5397 28.0455 26.1042 28.1694 26.1937 28.19L26.352 28.2244V30.8059V33.3874L25.3814 33.6146C24.8444 33.7385 24.2937 33.8693 24.1698 33.8969L23.9289 33.9588L23.4126 32.8849C23.1303 32.2929 22.6278 31.2465 22.2905 30.5512L21.6847 29.3052L22.7104 28.486C23.2749 28.0317 23.7637 27.6668 23.805 27.6668C23.8394 27.6599 24.3557 27.7701 24.9477 27.9078ZM29.7459 29.0023C30.9299 29.2708 31.9143 29.5049 31.9281 29.5186C31.9419 29.5324 31.639 30.2001 31.2535 30.9918L30.5513 32.4374L29.0368 32.7748C28.2038 32.9606 27.5017 33.1052 27.4673 33.1052C27.4328 33.1052 27.4122 32.0726 27.4122 30.7991C27.4122 28.9679 27.4328 28.4929 27.5017 28.4929C27.5567 28.5067 28.5618 28.727 29.7459 29.0023ZM11.9507 30.0762C12.4464 30.4755 12.8938 30.8404 12.9489 30.8817C13.0246 30.9574 12.8869 31.3085 12.0953 32.9331C11.579 34.007 11.1246 34.8813 11.0833 34.8675C11.0076 34.84 10.925 29.3603 11.0076 29.3603C11.0282 29.3603 11.4551 29.6838 11.9507 30.0762ZM35.1842 30.2483C36.2994 30.503 37.2288 30.7096 37.2425 30.7096C37.2563 30.7096 37.2701 30.7577 37.2701 30.8128C37.2701 30.8679 37.2563 30.9161 37.2425 30.9161C37.1944 30.9161 32.2172 32.0519 32.0864 32.0932C32.0176 32.1139 31.9556 32.1001 31.9556 32.0657C31.9556 31.9349 33.0295 29.7802 33.0984 29.7802C33.1259 29.7871 34.069 29.9936 35.1842 30.2483ZM21.8568 32.107C22.3869 33.2153 22.793 34.1378 22.7655 34.1791C22.7311 34.2066 22.0289 34.3856 21.2097 34.5715L19.7227 34.9088L18.4767 33.9244C17.7883 33.3874 17.2307 32.9193 17.2376 32.8918C17.2652 32.7954 20.7967 30.0143 20.8448 30.0556C20.8655 30.0831 21.3267 31.0125 21.8568 32.107ZM15.3858 32.8367C15.4684 32.8987 12.288 35.4526 12.1985 35.3976C12.1572 35.37 12.4877 34.5921 13.0108 33.4907L13.9058 31.6389L14.6148 32.2103C15.0141 32.5269 15.3583 32.8092 15.3858 32.8367ZM37.4697 32.169C37.0773 32.5545 28.6444 39.1975 28.5962 39.1493C28.5549 39.108 31.164 33.5389 31.3016 33.3874C31.3843 33.2979 37.511 31.9349 37.5386 32.0038C37.5592 32.0382 37.5248 32.107 37.4697 32.169ZM17.3615 34.3994C17.9054 34.8331 18.3459 35.1979 18.3322 35.2048C18.3184 35.2186 17.1619 35.4871 15.7576 35.8106C14.3532 36.1342 13.1485 36.4026 13.0797 36.4302C12.7079 36.5265 13.1279 36.1273 14.6217 34.9295C15.5235 34.2135 16.2807 33.6284 16.3083 33.6215C16.3358 33.6146 16.8108 33.9657 17.3615 34.3994ZM29.443 34.7574C27.839 38.103 27.5499 38.6606 27.4879 38.5986C27.4397 38.5504 27.4259 37.7381 27.4328 36.3751L27.4535 34.2273L28.5893 33.9588C29.2158 33.8142 29.7803 33.6972 29.8422 33.6903C29.9317 33.6835 29.8422 33.9244 29.443 34.7574ZM26.2763 38.5986C26.2212 38.6537 26.1868 38.6537 26.1731 38.5986C26.1524 38.5573 25.76 37.7312 25.2919 36.7675C24.8238 35.7968 24.4383 34.9914 24.4383 34.957C24.4383 34.9226 24.8651 34.8055 25.3814 34.6954L26.3176 34.4889L26.3383 36.499C26.352 37.9515 26.3314 38.5504 26.2763 38.5986ZM24.2593 37.091C25.347 39.349 25.2506 39.1425 25.1267 39.1425C25.0028 39.1425 20.7967 35.8106 20.8517 35.7624C20.8793 35.7349 23.1166 35.1979 23.268 35.1842C23.3093 35.1773 23.7568 36.0378 24.2593 37.091ZM21.9532 38.0686C23.3162 39.1562 24.4039 40.0718 24.3763 40.1131C24.3488 40.1613 22.38 39.7414 18.9449 38.9566C15.9847 38.282 13.4858 37.7106 13.4032 37.6899C12.9351 37.5798 13.3344 37.449 16.205 36.7881C17.8296 36.4095 19.234 36.1066 19.3166 36.0997C19.4199 36.0929 20.2804 36.7399 21.9532 38.0686Z" fill="#41AC48"/>
<path d="M108.602 11.2485L108.423 11.4206V19.6814V27.9353L108.588 28.1281C108.815 28.3897 109.311 28.3897 109.545 28.1212L109.704 27.9353V19.6814V11.4206L109.525 11.2485C109.284 11.0007 108.843 11.0007 108.602 11.2485Z" fill="#1D1D1B"/>
<path d="M64.7442 11.4206C63.9801 11.6753 63.3124 12.3568 63.0852 13.1209C62.9131 13.7061 62.9888 14.539 63.2435 15.0622C63.4982 15.5785 64.0765 16.1224 64.5584 16.2945L64.9026 16.4253L64.9094 22.0564C64.9094 26.2212 64.9301 27.7563 64.992 27.9422C65.0884 28.2382 65.4326 28.3897 65.7768 28.2864C66.2381 28.1487 66.2105 28.5824 66.2312 22.2009C66.2449 16.7419 66.2518 16.3908 66.3757 16.3908C66.596 16.3908 67.2087 15.9778 67.546 15.613C68.0279 15.076 68.1862 14.6079 68.1518 13.768C68.1174 12.9833 67.9315 12.5427 67.429 12.0402C66.7681 11.3724 65.6598 11.1177 64.7442 11.4206Z" fill="#41AC48"/>
<path d="M54.6934 16.3908C52.9449 16.6111 51.6644 17.3614 51.1068 18.5042L50.8384 19.0411V19.9636C50.8384 20.7897 50.859 20.9274 51.0036 21.2165C51.4786 22.1734 52.518 22.6552 54.4938 22.8342C54.9412 22.8755 55.6021 22.91 55.9463 22.91C57.3162 22.91 58.6448 23.1922 59.2231 23.6121C59.8908 24.094 59.9321 25.3675 59.3057 26.1592C58.6792 26.9509 57.0064 27.3914 55.1822 27.2262C53.7709 27.1023 52.6833 26.703 51.9054 26.0078C51.5336 25.6842 51.451 25.636 51.1757 25.636C50.7833 25.636 50.5974 25.8357 50.5974 26.2625C50.5974 26.5241 50.6387 26.5929 51.0105 26.9509C51.451 27.3777 52.2565 27.8389 53.0068 28.0798C53.8191 28.3483 54.7209 28.4653 56.0564 28.4585C57.9702 28.4516 58.8031 28.2519 59.6912 27.5842C60.7857 26.765 61.2332 25.6498 61.0198 24.2936C60.8683 23.323 60.3796 22.6759 59.4984 22.2629C58.7756 21.9324 57.922 21.7879 55.8843 21.6777C53.943 21.5745 53.4612 21.485 52.8003 21.1614C52.2565 20.8929 52.0706 20.5281 52.1119 19.8328C52.1532 19.048 52.4354 18.6212 53.1858 18.2013C54.0601 17.7194 54.4662 17.6368 55.8086 17.6368C56.8687 17.6368 57.0753 17.6575 57.5434 17.802C58.2249 18.0223 58.7068 18.2633 59.0992 18.5868C59.5191 18.931 59.6774 19.0205 59.9528 19.0205C60.4553 19.0205 60.7031 18.3527 60.3658 17.9191C59.9597 17.4028 58.6104 16.7281 57.509 16.5009C56.8343 16.3633 55.3611 16.3082 54.6934 16.3908Z" fill="#1D1D1B"/>
<path d="M74.9326 16.3633C74.4438 16.4459 73.8587 16.6249 73.4801 16.8177C73.0326 17.0448 72.358 17.6231 72.0482 18.0499L71.8485 18.3253V17.6919C71.8485 16.9003 71.7177 16.5905 71.3529 16.5079C71.1946 16.4666 71.0362 16.4735 70.9054 16.5217C70.4924 16.68 70.4993 16.5905 70.4993 22.4144C70.4993 28.2864 70.4924 28.1832 70.9192 28.2658C71.1808 28.3208 71.167 28.3208 71.4286 28.2658C71.8417 28.19 71.8485 28.0937 71.8485 24.5002C71.8485 21.01 71.8761 20.6727 72.2478 19.7571C72.4543 19.2477 72.9156 18.6075 73.3011 18.2908C73.4594 18.1669 73.7898 17.9742 74.0377 17.8503C74.4232 17.6713 74.5953 17.63 75.1942 17.6024C76.7018 17.5336 77.6655 18.0361 78.2231 19.172C78.6775 20.1013 78.6775 20.1013 78.7188 24.2317C78.767 28.3621 78.7394 28.1556 79.1869 28.2795C79.4485 28.3553 79.8409 28.2589 79.9235 28.0937C79.9579 28.0317 79.9992 26.4415 80.0199 24.5691C80.0543 20.9136 80.0749 20.7278 80.4604 19.7778C80.6738 19.2477 81.1282 18.6144 81.5206 18.2908C81.6789 18.1669 82.0093 17.9742 82.2572 17.8503C82.6633 17.6575 82.8148 17.63 83.4756 17.6024C84.109 17.5749 84.3224 17.5956 84.7216 17.7126C85.589 17.9742 86.2568 18.6213 86.5803 19.468C86.9039 20.3285 86.9452 20.8586 86.9452 24.5002V27.9216L87.1104 28.1074C87.3789 28.4241 88.1017 28.3415 88.1843 27.9766C88.2118 27.8871 88.2187 26.0629 88.2049 23.922C88.1774 20.1426 88.1774 20.0118 88.0191 19.4542C87.4615 17.4648 86.2636 16.4735 84.2329 16.3289C82.3053 16.1981 80.6394 16.9622 79.8202 18.3459C79.7101 18.5455 79.593 18.7108 79.5724 18.7108C79.5517 18.7108 79.4416 18.5318 79.3315 18.3115C78.6775 17.0724 77.4865 16.384 75.8895 16.3358C75.4833 16.3427 75.0565 16.3496 74.9326 16.3633Z" fill="#1D1D1B"/>
<path d="M97.691 16.3977C96.383 16.5767 94.9167 17.4234 94.1939 18.4285L93.9736 18.7245L93.9461 17.7676C93.9254 16.8865 93.9117 16.8039 93.7602 16.6524C93.5331 16.4253 93.0374 16.4253 92.8102 16.6524L92.645 16.8176V24.6516V32.4925L92.8446 32.6646C93.1062 32.8918 93.4642 32.8918 93.7258 32.6646L93.9254 32.4925L93.9461 29.2915L93.9667 26.0973L94.2352 26.4346C94.6001 26.8889 95.0062 27.2469 95.5914 27.6324C96.5895 28.2795 97.2986 28.4516 98.8888 28.4516C100.114 28.4585 100.699 28.3415 101.56 27.9009C103.116 27.123 103.976 26.0904 104.499 24.3625C104.678 23.7705 104.692 23.6397 104.692 22.4143C104.692 20.948 104.623 20.5144 104.196 19.5919C103.487 18.0499 102.179 16.9484 100.52 16.5216C99.8594 16.3564 98.4345 16.2876 97.691 16.3977ZM100.018 17.7332C101.532 18.1256 102.703 19.2202 103.171 20.7071C103.653 22.2285 103.418 24.0527 102.599 25.285C102.055 26.1042 101.305 26.6687 100.314 26.9922C99.8044 27.1643 99.6254 27.185 98.7442 27.185C97.8906 27.1918 97.6772 27.1712 97.2229 27.0266C95.7497 26.5654 94.6964 25.5534 94.2077 24.1009C93.9254 23.2473 93.8773 21.9875 94.0975 21.1339C94.5312 19.3991 95.7153 18.1738 97.3812 17.7332C98.104 17.5542 99.2881 17.5473 100.018 17.7332Z" fill="#1D1D1B"/>
<path d="M118.075 16.3908C116.257 16.7143 114.646 17.8846 113.917 19.406C113.38 20.5143 113.276 20.9824 113.276 22.4212C113.283 23.8599 113.366 24.3281 113.806 25.223C114.756 27.1574 116.388 28.2313 118.742 28.4447C119.534 28.5204 120.553 28.4516 121.282 28.2588C122.549 27.9353 124.291 26.7306 124.456 26.0491C124.518 25.8219 124.387 25.4088 124.229 25.3262C124.16 25.2918 123.981 25.2574 123.83 25.2574C123.602 25.2574 123.499 25.3194 122.997 25.8081C122.343 26.4414 121.881 26.7237 121.076 26.9991C120.56 27.1849 120.415 27.1987 119.479 27.2056C118.302 27.2056 117.854 27.1161 117.001 26.6962C116.23 26.3175 115.486 25.5672 115.101 24.7617C114.853 24.2386 114.591 23.3505 114.591 23.0339C114.591 22.9375 115.176 22.9237 119.678 22.9031C123.747 22.8893 124.793 22.8618 124.924 22.7929C125.206 22.6277 125.316 22.256 125.255 21.6158C125.034 19.0618 123.444 17.1618 121 16.5422C120.353 16.3633 118.687 16.2807 118.075 16.3908ZM120.642 17.7332C122.129 18.1118 123.279 19.1857 123.754 20.6382C123.85 20.9274 123.947 21.2784 123.974 21.3955L124.015 21.6295H119.307H114.598L114.701 21.1476C115.121 19.2821 116.415 18.043 118.371 17.6299C118.818 17.5542 120.133 17.6024 120.642 17.7332Z" fill="#1D1D1B"/>
<path d="M127.63 16.5561C127.533 16.6042 127.409 16.735 127.361 16.8452C127.148 17.272 127.21 17.3615 129.578 19.9361L131.801 22.3662L130.645 23.6122C127.01 27.536 127.203 27.3089 127.203 27.6462C127.203 27.8183 127.237 28.0179 127.272 28.0868C127.375 28.2795 127.802 28.3828 128.049 28.2795C128.153 28.2313 129.24 27.0817 130.459 25.7256C131.677 24.3694 132.696 23.2748 132.724 23.2817C132.744 23.2955 133.742 24.3901 134.933 25.7118C136.117 27.0404 137.143 28.1625 137.205 28.2176C137.267 28.2657 137.453 28.3071 137.618 28.3071C138.031 28.3002 138.252 28.0799 138.252 27.6806C138.252 27.3089 138.451 27.5498 135.711 24.5759L133.625 22.3249L133.908 22.0288C134.059 21.8705 135.071 20.776 136.145 19.5919C138.059 17.4854 138.1 17.4372 138.1 17.1481C138.093 16.68 137.79 16.4115 137.357 16.4872C137.157 16.5285 136.792 16.9071 134.947 18.9723C133.756 20.3216 132.751 21.4162 132.724 21.4162C132.696 21.4162 131.719 20.3491 130.555 19.0412C129.392 17.7332 128.38 16.618 128.297 16.5629C128.132 16.439 127.864 16.4321 127.63 16.5561Z" fill="#1D1D1B"/>
</svg>
