<svg width="140" height="32" viewBox="0 0 140 32" fill="none" xmlns="http://www.w3.org/2000/svg">
<g clip-path="url(#clip0_60_57)">
<path fill-rule="evenodd" clip-rule="evenodd" d="M35.4544 16.4268C37.0922 19.2633 36.1203 22.8905 33.2837 24.5282L26.1719 28.6342C23.3353 30.2719 19.7081 29.3 18.0705 26.4634C16.4327 23.6268 17.4046 19.9997 20.2412 18.362L27.3531 14.256C30.1896 12.6183 33.8168 13.5902 35.4544 16.4268Z" fill="#49CC68"/>
<path fill-rule="evenodd" clip-rule="evenodd" d="M27.6837 2.96632C29.3215 5.80291 28.3496 9.43007 25.513 11.0677L8.91648 20.6498C6.07993 22.2874 2.45279 21.3156 0.815079 18.4789C-0.822627 15.6424 0.149261 12.0152 2.98585 10.3775L19.5823 0.795548C22.4189 -0.842158 26.0461 0.129729 27.6837 2.96632Z" fill="#49CC68"/>
<path d="M56.0522 25.436H52.4829V7.19617H45.7378V3.99225H62.8535V7.19617H56.0522V25.436Z" fill="black"/>
<path d="M67.92 25.7452C66.3836 25.7452 65.0159 25.3986 63.8168 24.7053C62.6177 24.0121 61.6809 23.0471 61.0063 21.8105C60.3506 20.5552 60.0227 19.1219 60.0227 17.5106C60.0227 15.9555 60.3506 14.569 61.0063 13.3511C61.6809 12.1145 62.6177 11.1589 63.8168 10.4845C65.0159 9.7912 66.3836 9.44458 67.92 9.44458C69.4564 9.44458 70.8242 9.7912 72.0233 10.4845C73.2225 11.1589 74.1592 12.1145 74.8338 13.3511C75.5083 14.569 75.8455 15.9555 75.8455 17.5106C75.8455 19.1032 75.5083 20.5271 74.8338 21.7825C74.178 23.0191 73.2506 23.9934 72.0514 24.7053C70.8523 25.3986 69.4752 25.7452 67.92 25.7452ZM67.92 22.8504C68.7819 22.8504 69.5595 22.6256 70.2528 22.1759C70.946 21.7075 71.48 21.0704 71.8547 20.2648C72.2482 19.4591 72.4449 18.541 72.4449 17.5106C72.4449 16.5362 72.2482 15.6556 71.8547 14.8688C71.48 14.0631 70.946 13.4354 70.2528 12.9858C69.5595 12.536 68.7819 12.3112 67.92 12.3112C67.0582 12.3112 66.2806 12.536 65.5874 12.9858C64.8941 13.4167 64.3508 14.0349 63.9573 14.8406C63.5826 15.6276 63.3952 16.5175 63.3952 17.5106C63.3952 18.5598 63.592 19.4873 63.9854 20.2929C64.3788 21.0986 64.9129 21.7262 65.5874 22.1759C66.2806 22.6256 67.0582 22.8504 67.92 22.8504Z" fill="black"/>
<path d="M86.5942 9.41638C87.9621 9.41638 89.1611 9.76301 90.1922 10.4563C91.2414 11.1308 92.0558 12.0863 92.6373 13.323C93.2178 14.5596 93.5085 15.9741 93.5085 17.5668C93.5085 19.1593 93.2178 20.5739 92.6373 21.8105C92.0558 23.0471 91.2414 24.012 90.1922 24.7053C89.1611 25.3798 87.9621 25.7171 86.5942 25.7171C85.6018 25.7171 84.7396 25.539 84.0091 25.1831C83.2778 24.8271 82.5754 24.1994 81.901 23.3001V31.1693H78.5847V9.72553H81.901V11.8615C82.5754 10.9621 83.2688 10.3345 83.9811 9.97852C84.7116 9.60382 85.5829 9.41638 86.5942 9.41638ZM85.9197 12.2831C85.0764 12.2831 84.327 12.5079 83.6715 12.9576C83.016 13.4073 82.5004 14.0349 82.1259 14.8406C81.7511 15.6463 81.5638 16.555 81.5638 17.5668C81.5638 18.5785 81.7511 19.4872 82.1259 20.2929C82.5004 21.0986 83.016 21.7262 83.6715 22.1759C84.327 22.6255 85.0764 22.8504 85.9197 22.8504C87.2127 22.8504 88.2429 22.3539 89.0113 21.3609C89.7796 20.3678 90.1634 19.1031 90.1634 17.5668C90.1634 16.0304 89.7796 14.7656 89.0113 13.7726C88.2429 12.7796 87.2127 12.2831 85.9197 12.2831Z" fill="black"/>
<path d="M104.29 9.41638C105.658 9.41638 106.857 9.76301 107.888 10.4563C108.937 11.1308 109.752 12.0863 110.333 13.323C110.914 14.5596 111.205 15.9741 111.205 17.5668C111.205 19.1593 110.914 20.5739 110.333 21.8105C109.752 23.0471 108.937 24.012 107.888 24.7053C106.857 25.3798 105.658 25.7171 104.29 25.7171C103.297 25.7171 102.436 25.539 101.705 25.1831C100.974 24.8271 100.271 24.1994 99.5969 23.3001V31.1693H96.2805V9.72553H99.5969V11.8615C100.271 10.9621 100.965 10.3345 101.677 9.97852C102.408 9.60382 103.279 9.41638 104.29 9.41638ZM103.616 12.2831C102.772 12.2831 102.023 12.5079 101.367 12.9576C100.712 13.4073 100.196 14.0349 99.8217 14.8406C99.447 15.6463 99.2601 16.555 99.2601 17.5668C99.2601 18.5785 99.447 19.4872 99.8217 20.2929C100.196 21.0986 100.712 21.7262 101.367 22.1759C102.023 22.6255 102.772 22.8504 103.616 22.8504C104.909 22.8504 105.939 22.3539 106.707 21.3609C107.476 20.3678 107.859 19.1031 107.859 17.5668C107.859 16.0304 107.476 14.7656 106.707 13.7726C105.939 12.7796 104.909 12.2831 103.616 12.2831Z" fill="black"/>
<path d="M121.172 25.7452C119.635 25.7452 118.267 25.3986 117.068 24.7053C115.888 23.9934 114.97 23.0285 114.314 21.8105C113.658 20.5739 113.33 19.1874 113.33 17.6511C113.33 16.2271 113.621 14.8875 114.201 13.6321C114.801 12.3768 115.681 11.3651 116.843 10.5969C118.023 9.82867 119.438 9.44458 121.087 9.44458C122.474 9.44458 123.757 9.74434 124.938 10.3439C126.137 10.9247 127.092 11.8147 127.804 13.0138C128.535 14.213 128.901 15.6838 128.901 17.4262V18.2694H116.702C116.815 19.0001 116.993 19.5809 117.237 20.0119C117.612 20.8925 118.145 21.5857 118.839 22.0916C119.551 22.5975 120.356 22.8504 121.256 22.8504C122.211 22.8504 123.026 22.6069 123.701 22.1197C124.394 21.6138 124.891 20.9862 125.191 20.2367H128.619C128.113 21.8668 127.233 23.197 125.977 24.2275C124.722 25.2393 123.12 25.7452 121.172 25.7452ZM125.443 15.6556C125.368 15.0748 125.2 14.5783 124.938 14.1661C124.563 13.5103 124.047 13.0138 123.392 12.6766C122.736 12.3206 122.005 12.1426 121.2 12.1426C120.375 12.1426 119.644 12.3206 119.007 12.6766C118.37 13.0138 117.855 13.5103 117.462 14.1661C117.218 14.5408 117.031 15.0373 116.899 15.6556H125.443Z" fill="black"/>
<path d="M131.59 25.436V9.72557H134.906V11.6929C135.525 10.8685 136.199 10.2877 136.93 9.95047C137.679 9.61316 138.56 9.44458 139.572 9.44458H139.937V12.6766H139.094C137.839 12.6766 136.874 13.0138 136.199 13.6883C135.337 14.494 134.906 15.8805 134.906 17.8478V25.436H131.59Z" fill="black"/>
</g>
<defs>
<clipPath id="clip0_60_57">
<rect width="140" height="31.2118" fill="white"/>
</clipPath>
</defs>
</svg>
