<svg width="140" height="35" viewBox="0 0 140 35" fill="none" xmlns="http://www.w3.org/2000/svg">
<path d="M130.562 24.8714L125.318 12.8115H128.814L132.31 21.3758L136.504 12.8115H140L131.785 29.4157H128.29L130.562 24.8714ZM117.803 22.4245C118.152 22.4245 118.327 22.2497 118.677 22.0749C119.026 21.9001 119.201 21.7253 119.376 21.5505C119.551 21.3758 119.725 21.0262 119.9 20.8514C120.075 20.5019 120.25 20.3271 120.25 19.9775C120.424 19.628 120.424 19.2784 120.424 18.9288C120.424 18.5793 120.424 18.2297 120.25 17.8801C120.075 17.5306 120.075 17.3558 119.9 17.0062C119.725 16.6567 119.551 16.4819 119.376 16.3071C119.201 16.1323 118.851 15.9575 118.677 15.7828C118.327 15.608 118.152 15.608 117.803 15.4332C117.453 15.4332 117.104 15.2584 116.754 15.2584C116.405 15.2584 116.055 15.2584 115.705 15.4332C115.356 15.4332 115.181 15.608 114.831 15.7828C114.482 15.9575 114.307 16.1323 114.132 16.3071C113.958 16.4819 113.783 16.8314 113.608 17.0062C113.433 17.3558 113.258 17.5306 113.258 17.8801C113.084 18.2297 113.084 18.5793 113.084 18.9288C113.084 19.2784 113.084 19.628 113.258 19.9775C113.258 20.3271 113.433 20.5019 113.608 20.8514C113.783 21.201 113.958 21.3758 114.132 21.5505C114.307 21.7253 114.657 21.9001 114.831 22.0749C115.181 22.2497 115.356 22.2497 115.705 22.4245C116.055 22.4245 116.405 22.5992 116.754 22.5992C117.104 22.4245 117.453 22.4245 117.803 22.4245ZM114.132 25.0462C113.608 24.8714 113.084 24.6966 112.559 24.3471C111.685 23.8227 110.811 22.9488 110.287 22.0749C109.938 21.5505 109.763 21.0262 109.588 20.5019C109.238 19.2784 109.238 18.0549 109.588 17.0062C109.763 16.4819 109.938 15.9575 110.287 15.4332C110.811 14.5593 111.511 13.6854 112.559 13.161C113.084 12.8115 113.608 12.6367 114.132 12.4619C114.657 12.2871 115.356 12.2871 115.88 12.2871C116.23 12.2871 116.579 12.2871 116.754 12.2871C117.104 12.2871 117.278 12.4619 117.628 12.4619C117.978 12.4619 118.152 12.6367 118.327 12.8115C118.502 12.9862 118.851 12.9862 119.026 13.161C119.201 13.3358 119.376 13.5106 119.551 13.6854C119.725 13.8602 119.9 14.0349 120.075 14.2097V12.8115H123.396V24.8714H120.075V23.4731C119.9 23.8227 119.551 23.9975 119.376 24.1723C119.026 24.3471 118.677 24.5218 118.327 24.6966C117.978 24.8714 117.453 25.0462 117.104 25.0462C116.579 25.221 116.23 25.221 115.705 25.221C115.356 25.221 114.831 25.221 114.132 25.0462ZM102.072 15.7828C102.597 15.7828 102.946 15.7828 103.471 15.608C103.82 15.4332 104.17 15.4332 104.519 15.0836C104.694 14.9088 105.044 14.5593 105.044 14.2097C105.218 13.8602 105.218 13.5106 105.218 13.161C105.218 12.8115 105.218 12.4619 105.044 12.1123C104.869 11.7628 104.694 11.588 104.519 11.2384C104.17 11.0636 103.82 10.8889 103.471 10.8889C102.946 10.7141 102.597 10.7141 102.072 10.7141H98.7516V15.9575H102.072V15.7828ZM95.4307 7.7428H102.422C103.471 7.7428 104.519 7.91758 105.218 8.09236C105.918 8.26714 106.617 8.79149 107.316 9.14105C107.84 9.6654 108.19 10.1897 108.539 10.8889C108.889 11.588 108.889 12.2871 108.889 13.161C108.889 13.8602 108.714 14.5593 108.539 15.2584C108.365 15.9575 107.84 16.4819 107.316 17.0062C106.792 17.5306 106.092 17.8801 105.218 18.0549C104.345 18.4045 103.471 18.4045 102.422 18.4045H98.7516V24.8714H95.2559V7.7428H95.4307ZM80.5743 12.8115H83.8951V14.2097C84.0699 13.8602 84.4195 13.6854 84.5942 13.5106C84.9438 13.3358 85.1186 13.161 85.4682 12.9862C85.8177 12.8115 86.1673 12.6367 86.6916 12.6367C87.216 12.6367 87.5655 12.4619 88.0899 12.4619C88.789 12.4619 89.4881 12.6367 90.1873 12.8115C90.7116 12.9862 91.236 13.3358 91.7603 13.8602C92.2846 14.3845 92.4594 14.9088 92.809 15.4332C92.9838 16.1323 93.1586 16.8314 93.1586 17.5306V24.8714H89.8377V18.4045C89.8377 17.8801 89.8377 17.5306 89.6629 17.0062C89.4881 16.6567 89.3134 16.3071 89.1386 15.9575C88.9638 15.608 88.6142 15.4332 88.2647 15.4332C87.9151 15.2584 87.3908 15.2584 87.0412 15.2584C86.6916 15.2584 86.1673 15.2584 85.8177 15.4332C85.4682 15.608 85.1186 15.7828 84.9438 15.9575C84.769 16.3071 84.4195 16.6567 84.4195 17.0062C84.2447 17.5306 84.2447 17.8801 84.2447 18.4045V24.8714H80.9238V12.8115H80.5743ZM72.3595 22.2497C72.7091 22.2497 73.0587 22.0749 73.2334 21.9001C73.583 21.7253 73.7578 21.5505 73.9326 21.3758C74.1074 21.201 74.2821 20.8514 74.4569 20.6766C74.6317 20.3271 74.8065 20.1523 74.8065 19.8027C74.8065 19.4532 74.9813 19.1036 74.9813 18.754C74.9813 18.4045 74.9813 18.0549 74.8065 17.7054C74.6317 17.181 74.2821 16.4819 73.9326 16.1323C73.7578 15.9575 73.4082 15.7828 73.2334 15.608C72.8839 15.4332 72.7091 15.2584 72.3595 15.2584C72.01 15.2584 71.6604 15.0836 71.3108 15.0836C70.9613 15.0836 70.6117 15.0836 70.2622 15.2584C69.9126 15.2584 69.563 15.4332 69.3882 15.608C69.0387 15.7828 68.8639 15.9575 68.6891 16.1323C68.5143 16.3071 68.3396 16.6567 68.1648 16.8314C67.99 17.181 67.8152 17.3558 67.8152 17.7054C67.6404 18.0549 67.6404 18.4045 67.6404 18.754C67.6404 19.1036 67.6404 19.4532 67.8152 19.8027C67.8152 20.1523 67.99 20.3271 68.1648 20.6766C68.3396 21.0262 68.5143 21.201 68.6891 21.3758C68.8639 21.5505 69.2135 21.7253 69.3882 21.9001C69.7378 22.0749 69.9126 22.0749 70.2622 22.2497C70.6117 22.2497 70.9613 22.4245 71.3108 22.4245C71.6604 22.4245 72.01 22.4245 72.3595 22.2497ZM69.3882 25.0462C68.8639 24.8714 68.1648 24.6966 67.6404 24.3471C67.1161 24.1723 66.5917 23.8227 66.2422 23.2984C65.8926 22.9488 65.5431 22.4245 65.1935 22.0749C64.8439 21.5505 64.6691 21.0262 64.4944 20.5019C64.1448 19.2784 64.1448 18.0549 64.4944 17.0062C64.6691 16.4819 64.8439 15.9575 65.1935 15.4332C65.5431 14.9088 65.8926 14.5593 66.2422 14.2097C66.5917 13.8602 67.1161 13.5106 67.6404 13.161C68.1648 12.8115 68.6891 12.6367 69.3882 12.4619C70.6117 12.1123 72.01 12.1123 73.2334 12.4619C73.7578 12.6367 74.4569 12.8115 74.9813 13.161C75.5056 13.3358 76.0299 13.6854 76.3795 14.2097C76.7291 14.5593 77.0786 15.0836 77.4282 15.4332C77.7778 15.9575 77.9525 16.4819 78.1273 17.0062C78.4769 18.2297 78.4769 19.4532 78.1273 20.5019C77.9525 21.0262 77.7778 21.5505 77.4282 22.0749C77.0786 22.5992 76.7291 22.9488 76.3795 23.2984C76.0299 23.6479 75.5056 23.9975 74.9813 24.3471C74.4569 24.6966 73.9326 24.8714 73.2334 25.0462C72.01 25.3957 70.6117 25.3957 69.3882 25.0462ZM56.4544 22.2497C56.804 22.2497 57.1535 22.0749 57.3283 21.9001C57.6779 21.7253 57.8527 21.5505 58.0274 21.3758C58.2022 21.201 58.377 20.8514 58.5518 20.6766C58.7266 20.3271 58.9013 20.1523 58.9013 19.8027C58.9013 19.4532 59.0761 19.1036 59.0761 18.754C59.0761 18.4045 59.0761 18.0549 58.9013 17.7054C58.7266 17.181 58.377 16.4819 58.0274 16.1323C57.8527 15.9575 57.5031 15.7828 57.3283 15.608C56.9788 15.4332 56.804 15.2584 56.4544 15.2584C56.1048 15.2584 55.7553 15.0836 55.4057 15.0836C55.0561 15.0836 54.7066 15.0836 54.357 15.2584C54.0075 15.2584 53.6579 15.4332 53.4831 15.608C53.1336 15.7828 52.9588 15.9575 52.784 16.1323C52.6092 16.3071 52.4344 16.6567 52.2596 16.8314C52.0849 17.181 51.9101 17.3558 51.9101 17.7054C51.7353 18.0549 51.7353 18.4045 51.7353 18.754C51.7353 19.1036 51.7353 19.4532 51.9101 19.8027C51.9101 20.1523 52.0849 20.3271 52.2596 20.6766C52.4344 21.0262 52.6092 21.201 52.784 21.3758C52.9588 21.5505 53.3083 21.7253 53.4831 21.9001C53.8327 22.0749 54.0075 22.0749 54.357 22.2497C54.7066 22.2497 55.0561 22.4245 55.4057 22.4245C55.7553 22.4245 56.1048 22.4245 56.4544 22.2497ZM53.4831 25.0462C52.9588 24.8714 52.2596 24.6966 51.7353 24.3471C51.211 24.1723 50.6866 23.8227 50.337 23.2984C49.9875 22.9488 49.6379 22.4245 49.2884 22.0749C48.9388 21.5505 48.764 21.0262 48.5892 20.5019C48.2397 19.2784 48.2397 18.0549 48.5892 17.0062C48.764 16.4819 48.9388 15.9575 49.2884 15.4332C49.6379 14.9088 49.9875 14.5593 50.337 14.2097C50.6866 13.8602 51.211 13.5106 51.7353 13.161C52.2596 12.8115 52.784 12.6367 53.4831 12.4619C54.7066 12.1123 56.1048 12.1123 57.3283 12.4619C57.8527 12.6367 58.5518 12.8115 59.0761 13.161C59.6005 13.3358 60.1248 13.6854 60.4744 14.2097C60.8239 14.5593 61.1735 15.0836 61.5231 15.4332C61.8726 15.9575 62.0474 16.4819 62.2222 17.0062C62.5718 18.2297 62.5718 19.4532 62.2222 20.5019C62.0474 21.0262 61.8726 21.5505 61.5231 22.0749C61.1735 22.5992 60.8239 22.9488 60.4744 23.2984C60.1248 23.6479 59.6005 23.9975 59.0761 24.3471C58.5518 24.6966 58.0274 24.8714 57.3283 25.0462C56.1048 25.3957 54.7066 25.3957 53.4831 25.0462ZM27.2659 7.7428H30.7615L36.7041 16.8314L42.6467 7.7428H46.1423V24.8714H42.6467V13.161L37.7528 20.6766H35.6554L30.7615 13.161V24.8714H27.2659V7.7428Z" fill="white"/>
<path d="M19.4008 10.8889C20.0999 10.8889 20.799 10.7141 21.3234 10.3645C21.8477 10.015 22.3721 9.49063 22.5468 8.7915C22.8964 8.09238 22.8964 7.39325 22.7216 6.69412C22.5468 5.995 22.1973 5.47065 21.8477 4.94631C21.3234 4.42196 20.799 4.0724 20.0999 4.0724C19.4008 3.89762 18.7016 4.0724 18.0025 4.24718C17.3034 4.59674 16.779 4.94631 16.4295 5.47065C16.0799 5.995 15.9051 6.69412 15.9051 7.39325C15.9051 7.91759 16.0799 8.26716 16.2547 8.7915C16.2547 9.14107 16.6043 9.49063 16.779 9.84019C17.1286 10.1898 17.4782 10.3645 17.8277 10.5393C18.3521 10.7141 18.8764 10.8889 19.4008 10.8889ZM8.5643 26.6192C6.81649 26.6192 5.24345 26.0949 3.8452 25.221C2.44694 24.3471 1.39825 22.9488 0.699127 21.3758C2.60445e-07 19.8027 -0.174782 18.0549 0.174782 16.4819C0.524345 14.9089 1.39825 13.3358 2.44694 12.1124C3.67042 10.8889 5.06867 10.1898 6.81649 9.84019C8.38952 9.49063 10.1373 9.66541 11.7104 10.3645C13.2834 11.0637 14.5069 12.1124 15.5556 13.5106C16.4295 14.9089 16.9538 16.4819 16.9538 18.2297C16.9538 19.2784 16.779 20.5019 16.2547 21.5506C15.9051 22.5993 15.206 23.4732 14.3321 24.3471C13.4582 25.221 12.5843 25.7453 11.5356 26.2697C10.8365 26.4444 9.78777 26.6192 8.5643 26.6192Z" fill="#7D00FF"/>
</svg>
