<svg width="74" height="24" viewBox="0 0 74 24" fill="none" xmlns="http://www.w3.org/2000/svg">
<path d="M13.5645 0.037529C13.0498 0.241776 12.7484 0.623295 12.6528 1.18979L12.616 1.43643L9.56496 2.16479L6.51756 2.89314L6.45874 2.7968C6.33743 2.60026 6.07644 2.33435 5.90366 2.23801C5.21625 1.84878 4.33401 2.14552 4.00317 2.88158C3.91495 3.07041 3.90392 3.15134 3.90392 3.51744C3.90392 3.89511 3.91495 3.95291 4.00684 4.14175C4.06566 4.25736 4.17594 4.41922 4.25314 4.504L4.3965 4.662L3.03638 7.61396L1.67993 10.5698L1.34909 10.5659C1.06237 10.5659 0.992521 10.5775 0.768285 10.6892C0.474205 10.8357 0.249968 11.0553 0.106604 11.3444C0.007352 11.537 0 11.591 0 11.9918C0 12.3695 0.011028 12.4542 0.0882241 12.6161C0.227912 12.909 0.452149 13.1479 0.731525 13.2905C0.959437 13.41 1.01458 13.4215 1.33071 13.4215H1.67626L2.98492 16.2771C3.70541 17.8495 4.31195 19.179 4.33769 19.2329C4.37445 19.3254 4.36342 19.3524 4.24211 19.4873C4.16491 19.5721 4.06199 19.7301 4.00317 19.8457C3.90759 20.0268 3.90024 20.0885 3.90024 20.4854C3.90024 20.8631 3.91127 20.944 3.98847 21.1097C4.46267 22.1001 5.775 22.2157 6.36684 21.3178C6.46242 21.1752 6.52858 21.1059 6.56902 21.1213C6.60211 21.1328 7.9512 21.4527 9.56129 21.8381C11.1751 22.2234 12.5205 22.5433 12.5536 22.5549C12.5977 22.5664 12.6271 22.6396 12.6418 22.7822C12.6969 23.2408 13.0057 23.6917 13.4027 23.8844C13.6086 23.9884 13.6711 24 14.0129 24C14.3622 24 14.4136 23.9884 14.6268 23.8767C14.9136 23.7264 15.1672 23.4374 15.2812 23.1329C15.3841 22.8554 15.3951 22.3583 15.3032 22.1078L15.2481 21.9421L17.4463 20.1039C18.6557 19.0904 19.7585 18.1732 19.8982 18.0576L20.1519 17.8495L20.4092 17.9882C20.7437 18.1616 21.0304 18.2001 21.3686 18.1077C22.0082 17.9381 22.3979 17.4063 22.3979 16.7087C22.3979 16.3581 22.306 16.0729 22.1038 15.7954C21.9825 15.6297 21.7178 15.437 21.5009 15.3599L21.3319 15.3021V11.9918C21.3319 8.82788 21.3355 8.68144 21.4017 8.68144C21.5414 8.68144 21.8686 8.46948 22.0487 8.26138C22.3979 7.86059 22.5045 7.27868 22.317 6.76999C22.2104 6.4694 21.9237 6.13798 21.6443 5.99539C21.4495 5.89519 21.387 5.88363 21.0488 5.88363C20.6959 5.88363 20.6518 5.89134 20.4202 6.01081C20.2805 6.08403 20.1592 6.14183 20.1482 6.14183C20.1335 6.14183 19.0233 5.22079 17.6853 4.09936L15.2444 2.05688L15.2959 1.92585C15.4944 1.42487 15.3216 0.677248 14.9283 0.326558C14.6673 0.0991886 14.4504 0.0182603 14.0644 0.00669914C13.8255 -0.00871577 13.66 0.00284542 13.5645 0.037529ZM12.6785 2.08386C12.6896 2.09927 12.0977 2.61567 11.3662 3.23227L10.0318 4.34214L8.80036 4.04926C6.73076 3.55598 6.72341 3.55213 6.72341 3.50203C6.72341 3.4712 7.52111 3.25924 9.10179 2.88543C10.4068 2.57328 11.7118 2.25728 12.0058 2.18791C12.5793 2.04147 12.6491 2.03376 12.6785 2.08386ZM13.0866 2.68889C13.0792 2.71972 12.8587 3.213 12.5977 3.78335C12.2632 4.50785 12.1014 4.82771 12.061 4.82386C11.9066 4.82 10.8038 4.52712 10.8111 4.49244C10.8258 4.43078 13.0167 2.61182 13.0608 2.62338C13.0829 2.62723 13.0939 2.65806 13.0866 2.68889ZM17.3507 4.58878C19.4093 6.3114 19.799 6.65438 19.674 6.65052C19.5674 6.64667 16.395 5.86051 16.3692 5.83353C16.3031 5.76417 14.9025 2.66192 14.9209 2.63109C14.9319 2.61567 14.954 2.60411 14.9687 2.61182C14.9907 2.61953 16.0605 3.50974 17.3507 4.58878ZM13.7225 4.07238C13.7225 4.70439 13.7152 5.22464 13.7078 5.22464C13.66 5.22464 12.7263 4.98957 12.7153 4.97415C12.6822 4.93947 13.6233 2.92397 13.6711 2.92397C13.7115 2.92012 13.7225 3.15905 13.7225 4.07238ZM15.0202 4.29975C15.3694 5.05893 15.6488 5.67553 15.6414 5.67938C15.6377 5.68324 15.3326 5.61773 14.965 5.52909L14.2923 5.36723V4.1456C14.2923 3.18217 14.3033 2.92397 14.3401 2.92397C14.3658 2.92012 14.6709 3.54057 15.0202 4.29975ZM8.02104 4.46931C8.75624 4.64273 9.37749 4.79688 9.4069 4.80844C9.4363 4.82 9.24883 5.00498 8.91431 5.28245L8.37026 5.73719L8.21955 5.60616C8.135 5.53294 7.73064 5.19767 7.3226 4.85083C6.91089 4.50785 6.5727 4.21111 6.5727 4.18799C6.5727 4.16872 6.59843 4.15331 6.62784 4.15331C6.66092 4.15331 7.28584 4.2959 8.02104 4.46931ZM7.08366 5.42504C7.75637 5.98768 7.88871 6.11486 7.84827 6.15725C7.82254 6.18422 7.63506 6.34223 7.44023 6.50794C7.19027 6.71989 7.07263 6.79311 7.05425 6.75843C6.94765 6.55418 6.15363 4.78532 6.15363 4.74678C6.15363 4.65815 6.26391 4.73908 7.08366 5.42504ZM6.11687 6.09559L6.61681 7.18619L6.48447 7.30566C6.41095 7.36732 6.16098 7.57927 5.93307 7.77196L5.51401 8.11879V6.5773C5.51401 5.37879 5.52504 5.0281 5.5618 5.01269C5.58385 5.00498 5.60958 4.99727 5.61326 5.00113C5.61694 5.00113 5.84485 5.49826 6.11687 6.09559ZM11.0721 5.20152C11.4985 5.30557 11.8478 5.3865 11.8514 5.39036C11.8625 5.40577 10.7891 7.71801 10.7707 7.71801C10.7156 7.71801 8.84079 6.11486 8.86652 6.09173C9.07973 5.87207 10.1972 4.98571 10.2413 4.99728C10.2708 5.01269 10.6457 5.10518 11.0721 5.20152ZM4.98099 6.79697L4.97731 8.57353L3.66865 9.66799C2.94816 10.2653 2.34161 10.7625 2.30853 10.7702C2.27912 10.7779 2.25707 10.7624 2.25707 10.7393C2.25707 10.7008 4.31195 6.19193 4.71999 5.33255C4.98099 4.78532 4.98099 4.78532 4.98099 6.79697ZM13.0903 5.68709L13.7225 5.83353L13.7152 7.28254L13.7041 8.73539L13.0241 8.89725L12.344 9.0591L11.8037 8.60436C11.5059 8.35387 11.2633 8.13035 11.2633 8.10723C11.2633 8.05713 12.4102 5.5445 12.4359 5.54065C12.447 5.54065 12.7374 5.60231 13.0903 5.68709ZM15.1415 6.17652C15.5973 6.28827 15.9722 6.38076 15.9796 6.38847C16.0384 6.4694 16.7038 7.99162 16.6817 8.00704C16.667 8.02245 16.1524 8.15348 15.5385 8.29606C14.9246 8.44251 14.3916 8.56968 14.3585 8.58124C14.2923 8.60051 14.2886 8.52343 14.2886 7.29024C14.2886 6.5696 14.2923 5.97612 14.2997 5.97612C14.307 5.97612 14.6893 6.06861 15.1415 6.17652ZM9.5135 7.45595C10.0575 7.91069 10.506 8.29606 10.506 8.31533C10.506 8.33075 10.37 8.63519 10.2083 8.99359L9.90683 9.64102L9.28926 9.79131C8.9474 9.87224 8.63861 9.93775 8.5945 9.94161C8.52833 9.94161 8.47687 9.85682 8.31512 9.49457C8.20117 9.25179 7.93649 8.67373 7.72329 8.20743L7.33363 7.36732L7.85195 6.9357C8.34821 6.51564 8.37026 6.50408 8.44746 6.56574C8.4879 6.60428 8.96945 7.00507 9.5135 7.45595ZM18.8322 7.05902C19.3321 7.17848 19.5306 7.24014 19.5306 7.28254C19.5306 7.32493 19.2292 7.41356 18.4131 7.60625C17.7992 7.75269 17.2919 7.87216 17.2882 7.8683C17.2846 7.86445 17.1486 7.56386 16.9831 7.20161L16.6854 6.54647L17.4096 6.71604C17.8066 6.81238 18.4462 6.96653 18.8322 7.05902ZM7.42553 8.94349C7.70858 9.56394 7.92547 10.0803 7.91076 10.1035C7.89238 10.1189 7.36671 10.2538 6.74179 10.4002C6.11687 10.5466 5.58385 10.6777 5.5618 10.6854C5.52504 10.7008 5.51401 10.5081 5.51401 9.79516V8.88568L6.18672 8.32689C6.55432 8.0186 6.86678 7.77966 6.88148 7.79508C6.89619 7.81049 7.14248 8.33075 7.42553 8.94349ZM19.696 7.97621C19.6887 8.00704 19.3101 8.34616 18.8506 8.72768L18.0198 9.42135L17.8029 8.97432C17.6816 8.72383 17.5787 8.49646 17.575 8.47334C17.5676 8.43865 17.8801 8.34616 18.5675 8.1766C19.6887 7.89913 19.7144 7.89528 19.696 7.97621ZM20.1298 8.54656C20.1114 8.63519 18.891 11.2519 18.8689 11.2519C18.8542 11.2519 18.8248 11.2133 18.8028 11.1594C18.7807 11.1131 18.6484 10.828 18.5124 10.5235L18.2661 9.97629L19.163 9.22481C19.9791 8.54656 20.1519 8.42324 20.1298 8.54656ZM17.2625 9.17471C17.4169 9.52155 17.5456 9.80287 17.5456 9.81058C17.5456 9.81443 17.0897 10.1998 16.5347 10.6623C15.9759 11.1247 15.4944 11.5255 15.4613 11.5602C15.4098 11.6064 15.3326 11.5525 14.8474 11.1478L14.2923 10.6854V9.94161V9.19784L14.5864 9.12847C14.7445 9.08993 15.34 8.94734 15.8987 8.81246C16.4611 8.67373 16.9317 8.56197 16.9464 8.55812C16.9611 8.55426 17.1008 8.83173 17.2625 9.17471ZM11.4434 9.07066C11.5537 9.16315 11.5904 9.21325 11.5574 9.23252C11.5316 9.24794 11.3368 9.30189 11.1309 9.34813C10.9214 9.39438 10.7229 9.44448 10.6898 9.45218C10.642 9.4676 10.6678 9.37896 10.8038 9.07452L10.9802 8.67758L11.1309 8.80861C11.2118 8.88183 11.3552 8.99744 11.4434 9.07066ZM20.7621 11.9841C20.7621 14.5507 20.751 15.1788 20.7143 15.1942C20.6812 15.2058 20.4349 14.7087 19.9497 13.6527C19.5527 12.7934 19.2218 12.0573 19.2182 12.0265C19.1998 11.934 20.6481 8.79705 20.7143 8.79705C20.7547 8.7932 20.7621 9.34813 20.7621 11.9841ZM4.96628 10.8087C4.93687 10.8395 2.69084 11.3675 2.67246 11.3482C2.6357 11.3058 2.78274 11.1709 3.8451 10.2807L4.96261 9.35199L4.97363 10.0688C4.97731 10.4619 4.97363 10.7971 4.96628 10.8087ZM13.7225 9.76819C13.7225 10.088 13.7115 10.1767 13.6784 10.1574C13.6527 10.1381 13.4652 9.9917 13.2704 9.82985L12.9138 9.53311L13.252 9.44448C13.7666 9.31345 13.7225 9.28262 13.7225 9.76819ZM12.9616 10.3424L13.7225 10.9783V11.9995V13.0207L12.9689 13.645C12.5536 13.9919 12.1896 14.2732 12.1639 14.2732C12.0573 14.2732 10.2965 13.8377 10.2855 13.8107C10.2818 13.7953 10.0906 13.3791 9.8664 12.8859L9.45836 11.9956L9.87007 11.0977C10.098 10.6044 10.2928 10.1921 10.3075 10.1767C10.3296 10.1536 12.0426 9.72194 12.1529 9.71424C12.1786 9.70653 12.5425 9.9917 12.9616 10.3424ZM9.56129 10.3694C9.56129 10.4195 9.17163 11.2557 9.1459 11.2557C9.13487 11.2557 9.04665 11.09 8.9474 10.8858L8.77462 10.5158L9.12384 10.431C9.51718 10.3385 9.56129 10.327 9.56129 10.3694ZM18.1999 11.2172L18.5565 11.9918L18.1925 12.7934C17.9904 13.2327 17.8102 13.5911 17.7919 13.5834C17.7183 13.568 15.884 12.0265 15.8914 11.9956C15.9097 11.934 17.7919 10.3848 17.8176 10.4118C17.8286 10.4272 18.0014 10.7894 18.1999 11.2172ZM8.50995 11.3058C8.66802 11.6604 8.80036 11.9648 8.80036 11.9879C8.80036 12.0766 8.21587 13.3175 8.17544 13.3175C8.13132 13.3175 5.69781 12.7394 5.5765 12.697C5.51768 12.6778 5.50666 12.6084 5.50666 11.9879V11.302L5.87793 11.2133C6.08011 11.1632 6.67195 11.0206 7.19027 10.8935C7.71226 10.7702 8.15705 10.6623 8.17544 10.6623C8.20117 10.6623 8.34821 10.9513 8.50995 11.3058ZM4.97363 12.5467C4.96261 12.5544 3.69438 12.2615 2.9114 12.065C2.86361 12.0534 2.82317 12.0226 2.82317 11.9918C2.82317 11.9571 3.16872 11.8569 3.89289 11.6835L4.95893 11.4291L4.96996 11.9802C4.97731 12.2847 4.97731 12.539 4.97363 12.5467ZM14.9062 11.9687C14.9283 11.9918 14.6967 12.2076 14.3401 12.4966C14.3033 12.5236 14.2923 12.4196 14.2923 11.9918V11.4484L14.5864 11.6951C14.7445 11.8299 14.8915 11.9533 14.9062 11.9687ZM16.4575 13.2597C17.0236 13.7337 17.5015 14.1306 17.5162 14.1499C17.5492 14.1807 16.9978 15.4178 16.9501 15.4178C16.9133 15.4178 14.4577 14.832 14.3585 14.7973C14.2997 14.778 14.2886 14.7048 14.2886 14.0343L14.2923 13.2905L14.829 12.8473C15.1231 12.6007 15.3804 12.4003 15.3951 12.4003C15.4098 12.4003 15.8914 12.7895 16.4575 13.2597ZM3.77526 12.8781C4.32298 13.0092 4.80821 13.1248 4.856 13.1363C4.94055 13.1556 4.94055 13.1633 4.94055 13.8917V14.6239L3.80466 13.672C3.17974 13.1479 2.66878 12.7009 2.66878 12.6816C2.67246 12.6199 2.7276 12.6315 3.77526 12.8781ZM9.37381 13.1942L9.58702 13.6605L9.28191 13.5872C9.11282 13.5487 8.95842 13.5102 8.93637 13.5102C8.91799 13.5102 8.87755 13.4947 8.84814 13.4755C8.80771 13.4485 8.82976 13.3676 8.95475 13.0785C9.04665 12.882 9.12752 12.7163 9.13855 12.7163C9.14958 12.7163 9.25618 12.9321 9.37381 13.1942ZM19.5049 14.0574C19.8431 14.7934 20.1188 15.4216 20.1188 15.4447C20.1188 15.4717 20.1041 15.4948 20.0857 15.4948C20.0416 15.4948 18.2844 14.0304 18.2844 13.9919C18.2844 13.9495 18.8506 12.7201 18.8726 12.7201C18.88 12.7201 19.163 13.3252 19.5049 14.0574ZM3.65027 14.3117L4.94055 15.3946V17.1943C4.94055 18.493 4.92952 18.9902 4.90011 18.9786C4.84865 18.9593 2.21663 13.2442 2.24604 13.2134C2.25707 13.2019 2.29015 13.2019 2.31588 13.2096C2.34161 13.225 2.94448 13.7221 3.65027 14.3117ZM6.85575 13.6181L7.95855 13.884L7.42553 15.0478C7.08734 15.7839 6.87781 16.2078 6.84472 16.1962C6.81899 16.1885 6.50653 15.9342 6.15363 15.6374L5.51033 15.0979V14.2038V13.3059L5.63532 13.3329C5.69781 13.3444 6.25288 13.4755 6.85575 13.6181ZM13.7225 14.2231V14.6547L13.3365 14.5584C13.1233 14.5044 12.9469 14.4543 12.9395 14.4466C12.9285 14.4389 13.6858 13.7953 13.7152 13.7876C13.7189 13.7915 13.7225 13.988 13.7225 14.2231ZM9.17531 14.1691C9.50247 14.2501 9.80023 14.3194 9.84066 14.3349C9.88478 14.3464 10.0134 14.5776 10.2083 15.0054C10.3737 15.3677 10.506 15.6682 10.506 15.676C10.506 15.6952 8.48422 17.3986 8.40335 17.4525C8.37761 17.4679 8.13867 17.2945 7.84827 17.0479L7.33363 16.6201L7.92914 15.3253C8.25631 14.6123 8.53568 14.0266 8.55406 14.0266C8.56509 14.0304 8.84447 14.0959 9.17531 14.1691ZM11.3074 15.0285L10.9802 15.3021L10.8479 15.0324C10.778 14.8859 10.6972 14.7087 10.6714 14.6393L10.6237 14.516L11.1309 14.6354L11.6346 14.7588L11.3074 15.0285ZM18.8836 15.2944C19.3505 15.6837 19.7218 16.0189 19.7034 16.0421C19.6887 16.0652 19.2953 15.992 18.6594 15.834C18.1006 15.6991 17.6191 15.5796 17.5934 15.5719C17.5529 15.5565 17.9646 14.5853 18.0124 14.5853C18.0271 14.5853 18.4205 14.9052 18.8836 15.2944ZM12.9726 15.0825C13.2888 15.1596 13.5902 15.2289 13.638 15.2405L13.7225 15.2597V16.7049V18.15L13.2042 18.2772C12.9175 18.3466 12.6234 18.4198 12.5572 18.4352L12.4286 18.4699L12.1529 17.8687C12.0022 17.5373 11.7338 16.9515 11.5537 16.5623L11.2302 15.8648L11.7779 15.4062C12.0794 15.1518 12.3403 14.9476 12.3624 14.9476C12.3808 14.9437 12.6565 15.0054 12.9726 15.0825ZM15.5348 15.6952C16.1671 15.8455 16.6927 15.9765 16.7001 15.9842C16.7074 15.992 16.5457 16.3658 16.3398 16.8089L15.9649 17.6182L15.1562 17.8071C14.7114 17.9111 14.3364 17.992 14.318 17.992C14.2997 17.992 14.2886 17.414 14.2886 16.701C14.2886 15.676 14.2997 15.41 14.3364 15.41C14.3658 15.4178 14.9025 15.5411 15.5348 15.6952ZM6.03232 16.2964C6.297 16.5199 6.53594 16.7242 6.56534 16.7473C6.60578 16.7897 6.53226 16.9862 6.10952 17.8957C5.83382 18.4969 5.5912 18.9863 5.56915 18.9786C5.52871 18.9632 5.4846 15.8956 5.52871 15.8956C5.53974 15.8956 5.76765 16.0767 6.03232 16.2964ZM18.4388 16.3927C19.0344 16.5353 19.5306 16.6509 19.538 16.6509C19.5453 16.6509 19.5527 16.6779 19.5527 16.7087C19.5527 16.7396 19.5453 16.7666 19.538 16.7666C19.5122 16.7666 16.8545 17.4024 16.7846 17.4255C16.7479 17.4371 16.7148 17.4294 16.7148 17.4101C16.7148 17.3369 17.2882 16.1307 17.325 16.1307C17.3397 16.1345 17.8433 16.2502 18.4388 16.3927ZM11.3221 17.4333C11.6051 18.0537 11.822 18.5701 11.8073 18.5932C11.7889 18.6086 11.414 18.7088 10.9766 18.8129L10.1825 19.0017L9.51718 18.4506C9.14958 18.15 8.85182 17.888 8.8555 17.8726C8.8702 17.8186 10.756 16.2617 10.7817 16.2848C10.7928 16.3003 11.039 16.8205 11.3221 17.4333ZM7.86665 17.8417C7.91076 17.8764 6.21245 19.3062 6.16466 19.2753C6.1426 19.2599 6.31905 18.8244 6.59843 18.2078L7.07631 17.1712L7.45494 17.4911C7.66815 17.6683 7.85195 17.8263 7.86665 17.8417ZM19.6593 17.4679C19.4497 17.6837 14.9466 21.4026 14.9209 21.3756C14.8988 21.3525 16.2921 18.2348 16.3656 18.15C16.4097 18.0999 19.6813 17.3369 19.696 17.3754C19.7071 17.3947 19.6887 17.4333 19.6593 17.4679ZM8.92166 18.7165C9.21207 18.9593 9.44733 19.1636 9.43998 19.1674C9.43263 19.1751 8.81506 19.3254 8.06516 19.5066C7.31525 19.6877 6.67195 19.838 6.63519 19.8534C6.43668 19.9073 6.66092 19.6838 7.45861 19.0133C7.94017 18.6125 8.34453 18.2849 8.35923 18.2811C8.37394 18.2772 8.62758 18.4738 8.92166 18.7165ZM15.3731 18.9169C14.5165 20.7898 14.3622 21.102 14.3291 21.0673C14.3033 21.0403 14.296 20.5856 14.2997 19.8226L14.3107 18.6202L14.9172 18.4699C15.2517 18.389 15.5532 18.3235 15.5863 18.3196C15.634 18.3158 15.5863 18.4506 15.3731 18.9169ZM13.6821 21.0673C13.6527 21.0981 13.6343 21.0981 13.627 21.0673C13.6159 21.0442 13.4064 20.5817 13.1564 20.0422C12.9065 19.4988 12.7006 19.048 12.7006 19.0287C12.7006 19.0094 12.9285 18.9439 13.2042 18.8823L13.7041 18.7666L13.7152 19.8919C13.7225 20.7051 13.7115 21.0403 13.6821 21.0673ZM12.605 20.2233C13.1858 21.4874 13.1344 21.3718 13.0682 21.3718C13.002 21.3718 10.756 19.5066 10.7854 19.4796C10.8001 19.4642 11.9948 19.1636 12.0757 19.1559C12.0977 19.152 12.3367 19.6337 12.605 20.2233ZM11.3736 20.7706C12.1014 21.3795 12.6822 21.892 12.6675 21.9151C12.6528 21.9421 11.6015 21.707 9.76715 21.2677C8.18646 20.89 6.85207 20.5702 6.80796 20.5586C6.55799 20.497 6.7712 20.4237 8.3041 20.0538C9.17163 19.8418 9.92154 19.6723 9.96565 19.6684C10.0208 19.6646 10.4803 20.0268 11.3736 20.7706Z" fill="#41AC48"/>
<path d="M57.6434 5.75639L57.5479 5.85274V10.4772V15.0978L57.6361 15.2057C57.7574 15.3522 58.0221 15.3522 58.147 15.2019L58.2316 15.0978V10.4772V5.85274L58.136 5.75639C58.0074 5.61766 57.7721 5.61766 57.6434 5.75639Z" fill="white"/>
<path d="M34.2235 5.85266C33.8155 5.99524 33.4589 6.37676 33.3376 6.80453C33.2457 7.13209 33.2861 7.59839 33.4222 7.89128C33.5582 8.18031 33.867 8.48475 34.1243 8.58109L34.3081 8.65431L34.3118 11.8067C34.3118 14.1382 34.3228 14.9975 34.3559 15.1016C34.4073 15.2673 34.5911 15.3521 34.7749 15.2943C35.0212 15.2172 35.0065 15.46 35.0175 11.8876C35.0249 8.83159 35.0286 8.63505 35.0947 8.63505C35.2124 8.63505 35.5395 8.40382 35.7197 8.19957C35.977 7.89898 36.0615 7.63693 36.0432 7.16678C36.0248 6.72745 35.9255 6.48081 35.6572 6.19949C35.3043 5.82568 34.7124 5.68309 34.2235 5.85266Z" fill="#41AC48"/>
<path d="M28.8562 8.63525C27.9225 8.75857 27.2387 9.17863 26.941 9.81835L26.7976 10.1189V10.6353C26.7976 11.0978 26.8086 11.1749 26.8858 11.3367C27.1395 11.8724 27.6945 12.1421 28.7496 12.2423C28.9885 12.2655 29.3414 12.2847 29.5252 12.2847C30.2567 12.2847 30.9662 12.4427 31.275 12.6778C31.6316 12.9476 31.6536 13.6605 31.3191 14.1037C30.9846 14.5469 30.0913 14.7935 29.1172 14.701C28.3636 14.6317 27.7828 14.4081 27.3674 14.0189C27.1689 13.8378 27.1248 13.8108 26.9777 13.8108C26.7682 13.8108 26.6689 13.9226 26.6689 14.1615C26.6689 14.3079 26.691 14.3465 26.8895 14.5469C27.1248 14.7858 27.5549 15.044 27.9555 15.1789C28.3893 15.3292 28.8709 15.3947 29.584 15.3908C30.6059 15.387 31.0507 15.2752 31.5249 14.9014C32.1094 14.4428 32.3484 13.8185 32.2344 13.0593C32.1535 12.516 31.8925 12.1537 31.422 11.9225C31.036 11.7375 30.5802 11.6566 29.4921 11.5949C28.4555 11.5371 28.1982 11.487 27.8453 11.3059C27.5549 11.1556 27.4556 10.9513 27.4777 10.5621C27.4997 10.1228 27.6504 9.88386 28.0511 9.64878C28.518 9.37902 28.7349 9.33278 29.4517 9.33278C30.0178 9.33278 30.1281 9.34434 30.378 9.42527C30.742 9.54859 30.9993 9.68347 31.2088 9.86459C31.433 10.0573 31.5176 10.1074 31.6646 10.1074C31.933 10.1074 32.0653 9.73357 31.8852 9.49078C31.6683 9.20175 30.9478 8.82409 30.3597 8.69691C29.9994 8.61984 29.2127 8.58901 28.8562 8.63525Z" fill="white"/>
<path d="M39.6642 8.61964C39.4032 8.66589 39.0908 8.76608 38.8886 8.87399C38.6497 9.00116 38.2894 9.32487 38.124 9.5638L38.0174 9.71795V9.36341C38.0174 8.92023 37.9475 8.74681 37.7527 8.70057C37.6682 8.67745 37.5836 8.6813 37.5138 8.70828C37.2932 8.79691 37.2969 8.74681 37.2969 12.0071C37.2969 15.2943 37.2932 15.2365 37.5211 15.2827C37.6608 15.3136 37.6535 15.3136 37.7931 15.2827C38.0137 15.2403 38.0174 15.1864 38.0174 13.1747C38.0174 11.2209 38.0321 11.0321 38.2306 10.5195C38.3409 10.2344 38.5872 9.87596 38.793 9.69868C38.8776 9.62932 39.054 9.52141 39.1863 9.45205C39.3922 9.35185 39.4841 9.32873 39.8039 9.31331C40.609 9.27477 41.1236 9.5561 41.4214 10.192C41.664 10.7122 41.664 10.7122 41.686 13.0245C41.7118 15.3367 41.6971 15.2211 41.936 15.2904C42.0757 15.3328 42.2852 15.2789 42.3293 15.1864C42.3477 15.1517 42.3698 14.2615 42.3808 13.2133C42.3992 11.167 42.4102 11.0629 42.6161 10.5311C42.73 10.2344 42.9726 9.87981 43.1822 9.69868C43.2667 9.62932 43.4432 9.52141 43.5755 9.45205C43.7924 9.34414 43.8733 9.32873 44.2261 9.31331C44.5643 9.2979 44.6783 9.30946 44.8915 9.37497C45.3547 9.52141 45.7113 9.88366 45.884 10.3577C46.0568 10.8394 46.0789 11.1361 46.0789 13.1747V15.09L46.1671 15.1941C46.3104 15.3714 46.6964 15.3251 46.7405 15.1209C46.7552 15.0708 46.7589 14.0495 46.7516 12.851C46.7369 10.7353 46.7369 10.6621 46.6523 10.35C46.3546 9.23624 45.7149 8.6813 44.6305 8.60037C43.6012 8.52715 42.7116 8.95492 42.2742 9.72951C42.2154 9.84127 42.1529 9.93376 42.1419 9.93376C42.1308 9.93376 42.072 9.83357 42.0132 9.71025C41.664 9.01658 41.028 8.6312 40.1752 8.60423C39.9583 8.60808 39.7304 8.61193 39.6642 8.61964Z" fill="white"/>
<path d="M51.8176 8.63935C51.1191 8.73955 50.3361 9.21355 49.9501 9.7762L49.8325 9.94191L49.8178 9.40624C49.8068 8.91296 49.7994 8.86672 49.7186 8.78194C49.5973 8.65476 49.3326 8.65476 49.2113 8.78194L49.123 8.87443V13.26V17.6494L49.2297 17.7457C49.3693 17.8729 49.5605 17.8729 49.7002 17.7457L49.8068 17.6494L49.8178 15.8574L49.8288 14.0692L49.9722 14.2581C50.167 14.5124 50.3839 14.7128 50.6964 14.9286C51.2294 15.2909 51.608 15.3872 52.4572 15.3872C53.1115 15.3911 53.424 15.3256 53.8835 15.0789C54.7143 14.6435 55.1738 14.0654 55.4531 13.0981C55.5487 12.7667 55.5561 12.6935 55.5561 12.0075C55.5561 11.1867 55.5193 10.9439 55.2914 10.4275C54.9128 9.56424 54.2143 8.94765 53.3284 8.70872C52.9755 8.61623 52.2146 8.57769 51.8176 8.63935ZM53.0601 9.38697C53.8688 9.60663 54.4937 10.2194 54.7437 11.0518C55.001 11.9035 54.876 12.9247 54.4386 13.6145C54.1481 14.0731 53.7475 14.3891 53.2181 14.5702C52.9461 14.6666 52.8505 14.6781 52.38 14.6781C51.9242 14.682 51.8102 14.6704 51.5676 14.5895C50.7809 14.3313 50.2185 13.7648 49.9575 12.9517C49.8068 12.4738 49.7811 11.7686 49.8987 11.2907C50.1303 10.3196 50.7625 9.63361 51.6521 9.38697C52.0381 9.28677 52.6704 9.28292 53.0601 9.38697Z" fill="white"/>
<path d="M62.7018 8.63539C61.7314 8.81651 60.8712 9.47164 60.4815 10.3233C60.1948 10.9438 60.1396 11.2058 60.1396 12.0112C60.1433 12.8167 60.1874 13.0787 60.4227 13.5797C60.93 14.6626 61.8012 15.2638 63.0584 15.3833C63.4811 15.4257 64.0252 15.3871 64.4148 15.2792C65.0912 15.0981 66.0213 14.4237 66.1095 14.0422C66.1426 13.915 66.0727 13.6838 65.9882 13.6375C65.9514 13.6183 65.8558 13.599 65.775 13.599C65.6537 13.599 65.5985 13.6337 65.3302 13.9073C64.9809 14.2618 64.7347 14.4198 64.3046 14.574C64.0289 14.678 63.9517 14.6857 63.4517 14.6896C62.8231 14.6896 62.5842 14.6395 62.1284 14.4044C61.7167 14.1925 61.3196 13.7724 61.1138 13.3215C60.9815 13.0286 60.8418 12.5315 60.8418 12.3542C60.8418 12.3003 61.1542 12.2926 63.5583 12.281C65.7309 12.2733 66.2896 12.2579 66.3594 12.2194C66.5102 12.1269 66.569 11.9188 66.5359 11.5604C66.4183 10.1306 65.5691 9.067 64.2641 8.72017C63.9186 8.61997 63.029 8.57373 62.7018 8.63539ZM64.073 9.38686C64.867 9.59882 65.4809 10.2 65.7345 11.0131C65.786 11.175 65.8375 11.3715 65.8522 11.437L65.8742 11.5681H63.3598H60.8454L60.9006 11.2983C61.1248 10.254 61.8159 9.56028 62.8599 9.32906C63.0988 9.28667 63.8009 9.31364 64.073 9.38686Z" fill="white"/>
<path d="M67.8041 8.728C67.7526 8.75497 67.6864 8.82819 67.6607 8.88985C67.5467 9.12878 67.5798 9.17888 68.8444 10.6202L70.0317 11.9805L69.4141 12.6781C67.4732 14.8747 67.5761 14.7475 67.5761 14.9363C67.5761 15.0327 67.5945 15.1444 67.6129 15.183C67.668 15.2909 67.896 15.3487 68.0283 15.2909C68.0834 15.2639 68.6642 14.6203 69.3149 13.8612C69.9655 13.102 70.5096 12.4892 70.5243 12.4931C70.5353 12.5008 71.0683 13.1135 71.7043 13.8535C72.3366 14.5972 72.8843 15.2254 72.9174 15.2562C72.9505 15.2832 73.0497 15.3063 73.1379 15.3063C73.3585 15.3025 73.4761 15.1791 73.4761 14.9556C73.4761 14.7475 73.5827 14.8824 72.1197 13.2176L71.0059 11.9574L71.1566 11.7917C71.2374 11.7031 71.7778 11.0903 72.3513 10.4275C73.3732 9.24825 73.3953 9.22127 73.3953 9.05942C73.3916 8.79736 73.2298 8.64707 72.9982 8.68946C72.8916 8.71258 72.6968 8.92454 71.7116 10.0807C71.0757 10.836 70.539 11.4487 70.5243 11.4487C70.5096 11.4487 69.9876 10.8514 69.3664 10.1192C68.7451 9.38698 68.2047 8.76268 68.1606 8.73185C68.0724 8.66248 67.929 8.65863 67.8041 8.728Z" fill="white"/>
</svg>
