<?xml version="1.0" encoding="iso-8859-1"?>
<!-- Generator: Adobe Illustrator 19.0.0, SVG Export Plug-In . SVG Version: 6.00 Build 0)  -->
<svg xmlns="http://www.w3.org/2000/svg" xmlns:xlink="http://www.w3.org/1999/xlink" version="1.1" id="Capa_1" x="0px" y="0px" viewBox="0 0 512 512" style="enable-background:new 0 0 512 512;" xml:space="preserve" width="512px" height="512px">
<g>
	<g>
		<path d="M467,422H331v-30h136c8.284,0,15-6.716,15-15v-30c0-110.815-79.968-201.762-181-222.45V90h15c8.284,0,15-6.716,15-15V45    c0-24.813-20.187-45-45-45h-60c-24.813,0-45,20.187-45,45v30c0,8.284,6.716,15,15,15h15v34.55C110.014,145.229,30,236.139,30,347    v30c0,8.284,6.716,15,15,15h136v30H45c-24.813,0-45,20.187-45,45v30c0,8.284,6.716,15,15,15h482c8.284,0,15-6.716,15-15v-30    C512,442.187,491.813,422,467,422z M211,45c0-8.271,6.729-15,15-15h60c8.271,0,15,6.729,15,15v15c-9.109,0-75.331,0-90,0V45z     M271,90v30h-30V90H271z M256,150c92.676,0,170.529,64.987,190.835,152H65.165C85.471,214.987,163.324,150,256,150z M60,362v-15    c0-5.046,0.191-10.048,0.564-15h390.872c0.373,4.952,0.564,9.954,0.564,15v15H60z M301,392v30h-90v-30H301z M482,482H30v-15    c0-8.271,6.729-15,15-15h422c8.271,0,15,6.729,15,15V482z" fill="#a3a3a3"/>
	</g>
</g>
<g>
	<g>
		<path d="M115.606,64.393l-30-30c-5.857-5.858-15.355-5.858-21.213,0c-5.858,5.858-5.858,15.355,0,21.213l30,30    c5.857,5.858,15.356,5.859,21.213,0C121.464,79.748,121.464,70.251,115.606,64.393z" fill="#a3a3a3"/>
	</g>
</g>
<g>
	<g>
		<path d="M447.607,34.394c-5.858-5.859-15.356-5.859-21.213,0l-30,30c-5.858,5.858-5.858,15.355,0,21.213    c5.857,5.858,15.356,5.858,21.213,0l30-30C453.465,49.749,453.465,40.252,447.607,34.394z" fill="#a3a3a3"/>
	</g>
</g>
<g>
	<g>
		<path d="M75,120H15c-8.284,0-15,6.716-15,15s6.716,15,15,15h60c8.284,0,15-6.716,15-15S83.284,120,75,120z" fill="#a3a3a3"/>
	</g>
</g>
<g>
	<g>
		<path d="M497,120h-60c-8.284,0-15,6.716-15,15s6.716,15,15,15h60c8.284,0,15-6.716,15-15S505.284,120,497,120z" fill="#a3a3a3"/>
	</g>
</g>
<g>
</g>
<g>
</g>
<g>
</g>
<g>
</g>
<g>
</g>
<g>
</g>
<g>
</g>
<g>
</g>
<g>
</g>
<g>
</g>
<g>
</g>
<g>
</g>
<g>
</g>
<g>
</g>
<g>
</g>
</svg>
