<?xml version="1.0" encoding="UTF-8"?>
<svg width="96px" height="27px" viewBox="0 0 96 27" version="1.1" xmlns="http://www.w3.org/2000/svg" xmlns:xlink="http://www.w3.org/1999/xlink">
    <!-- Generator: Sketch 55.2 (78181) - https://sketchapp.com -->
    <title>Group 10</title>
    <desc>Created with Sketch.</desc>
    <defs>
        <polygon id="path-1" points="0 0.0407153208 23.9428656 0.0407153208 23.9428656 26.9869985 0 26.9869985"></polygon>
    </defs>
    <g id="UI-design-2" stroke="none" stroke-width="1" fill="none" fill-rule="evenodd">
        <g id="All-Dapp" transform="translate(-406.000000, -441.000000)">
            <g id="Group-7" transform="translate(354.000000, 367.000000)">
                <g id="metamask-copy-5" transform="translate(0.000000, 21.000000)">
                    <g id="Group-10" transform="translate(52.000000, 53.000000)">
                        <path d="M81.3891777,15.1626224 L81.3891777,23.6685495 L81.6564544,23.6685495 C85.8751291,23.6685495 90.0938038,23.6724433 94.3124785,23.6651085 C95.1099256,23.6637502 95.8174783,24.2218291 95.9654688,25.0027593 C96.1630473,26.0450258 95.4906444,26.9936604 94.5138384,26.9946565 C89.5420622,26.9995463 84.570286,26.993932 79.5985098,27 C78.8029534,27.0009046 78.0860331,26.3117048 78.0446954,25.4928328 C78.0265619,25.1340613 78.0024124,24.7750182 78.0023265,24.4160656 C78,16.9125616 77.9983732,9.40905767 78.0030999,1.90564428 C78.0036156,0.992597078 78.427391,0.328933194 79.1844457,0.0734828167 C79.325561,0.0258518707 79.4803408,0.00303248213 79.6289329,0.002941929 C84.5714032,-0.000589643035 89.5139594,0 94.4565157,0 C95.2808623,0 95.9700237,0.716047822 95.99572,1.62067358 C96.0202992,2.48645205 95.4882381,3.07142527 94.899284,3.2489094 C94.7426135,3.29617813 94.5750284,3.32497403 94.412342,3.32515513 C90.1643614,3.32923002 85.9165527,3.32841505 81.6685721,3.32841505 L81.3934747,3.32841505 L81.3934747,11.8342516 L81.6523292,11.8342516 C85.4908006,11.8342516 89.329358,11.8391414 93.1678295,11.8303578 C93.9700893,11.8285467 94.6653525,12.5898269 94.6742903,13.4324238 C94.6810797,14.0740832 94.4666567,14.5771964 93.9276344,14.9126052 C93.6600139,15.0791324 93.375635,15.1613547 93.0702005,15.1615358 C89.2683399,15.1632563 85.4663074,15.1626224 81.6643609,15.1626224 L81.3891777,15.1626224 Z" id="Fill-1" fill="#043B48"></path>
                        <g id="Group-5">
                            <mask id="mask-2" fill="white">
                                <use xlink:href="#path-1"></use>
                            </mask>
                            <g id="Clip-4"></g>
                            <path d="M3.89587581,15.1391762 C3.34638845,15.1391762 2.8306917,15.1409584 2.31499495,15.1388198 C1.37960144,15.1350772 0.663587004,14.3778297 0.659254874,13.4405822 C0.655529242,12.6441267 1.08978195,12.0051267 1.82693718,11.7468 C1.96799134,11.6973446 2.12698051,11.685404 2.27782527,11.684602 C3.27976029,11.6794337 4.28169531,11.6819287 5.28389025,11.6819287 C5.70878556,10.6265228 6.13168809,9.58127525 6.55034513,8.53424554 C6.93642455,7.56866139 7.31557256,6.60004752 7.70199856,5.63464158 C8.06659061,4.72359208 8.43412852,3.81370099 8.80556534,2.90559208 C9.0068361,2.41362178 9.19363755,1.91274059 9.43242455,1.44028515 C9.75213574,0.807968317 10.2062296,0.304859406 10.9121069,0.118710891 C11.0647711,0.0784336634 11.2239336,0.0395821782 11.3798036,0.0407153208 C11.8999191,0.0444831683 12.423587,0.0330772277 12.9389372,0.0920673267 C13.3959769,0.144374257 13.75693,0.43050297 14.0710094,0.772235644 C14.7186628,1.47655248 14.9301574,2.40952277 15.2983884,3.25801782 C15.6622007,4.09617624 15.9842513,4.95349307 16.3218975,5.80350297 C16.782143,6.96200792 17.2367567,8.12291881 17.6996881,9.28026535 C18.1081213,10.3011861 18.5272116,11.3176515 18.9369444,12.3379485 C19.2941718,13.2276119 19.6423884,14.1210178 19.999356,15.0108594 C20.4388939,16.1065426 20.8854498,17.1994634 21.3250744,18.2952356 C21.6820419,19.1849881 22.0299119,20.0786614 22.3878325,20.9679683 C22.7954859,21.9811366 23.2066917,22.9928792 23.6224029,24.0025723 C23.8160491,24.4728 23.9768578,24.9415129 23.9366556,25.4698396 C23.8754859,26.2737802 23.3246989,26.897097 22.5228217,26.9751564 C21.8913704,27.0366416 21.3677892,26.8628792 20.9858686,26.3557604 C20.7772332,26.0788099 20.62067,25.7496416 20.4900996,25.4231465 C20.0465762,24.3139188 19.6262729,23.1948 19.1947061,22.0804931 C18.6512838,20.6772059 18.1076881,19.274097 17.5602801,17.8725921 C17.1228217,16.752404 16.6757458,15.6363149 16.2395004,14.5156812 C15.6589949,13.023998 15.0878469,11.5283941 14.5069083,10.0369782 C14.0113993,8.76521584 13.5058397,7.49755248 13.0085112,6.22650297 C12.6940852,5.42300792 12.3871105,4.61648317 12.0751105,3.81200792 C12.051717,3.75159208 12.0148939,3.6967901 11.9715726,3.61552277 C10.918865,6.31097822 9.87681444,8.97925545 8.8213343,11.6819287 C9.32221516,11.6819287 9.78531986,11.7035822 10.2457386,11.6775624 C11.2610166,11.619998 12.0360347,12.4971861 12.003457,13.463305 C11.9804968,14.1427604 11.4952982,14.8930574 10.8548361,15.0567505 C10.7019119,15.0958693 10.5437025,15.1342752 10.3875726,15.1356119 C9.4809444,15.1430079 8.57440289,15.1405129 7.66777473,15.1376614 C7.54144982,15.137305 7.47118267,15.1540574 7.41278556,15.3057208 C6.55372419,17.5361168 5.68339928,19.7620574 4.81324765,21.987998 C4.30292274,23.2935327 3.80715379,24.6054832 3.26754368,25.898097 C3.0080491,26.5194535 2.54113213,26.9219584 1.839587,26.9706119 C1.14800578,27.0186416 0.56247509,26.8338297 0.219283755,26.1608792 C-0.0598787004,25.6134832 -0.0655104693,25.033295 0.162619495,24.4585426 C0.701449819,23.1009683 1.2414065,21.7437505 1.78500217,20.3881366 C2.32599856,19.0391168 2.87254007,17.6923248 3.41570253,16.344196 C3.57477834,15.9496218 3.73082166,15.5536218 3.89587581,15.1391762" id="Fill-3" fill="#00404A" mask="url(#mask-2)"></path>
                        </g>
                        <path d="M39.0018251,3.57616361 C37.9408455,6.29101085 36.893329,8.97153469 35.836953,11.6746139 C36.3563683,11.6746139 36.8493785,11.6797847 37.3423019,11.6735441 C38.4126623,11.6600822 39.1855314,12.6777487 38.995137,13.7315217 C38.8461743,14.5559965 38.0763452,15.1520647 37.3312709,15.1378896 C36.386074,15.1198809 35.4403559,15.1335211 34.4826514,15.1335211 C34.0299436,16.3050635 33.5817525,17.4750903 33.1259178,18.6419076 C32.658444,19.8386798 32.1808077,21.0311728 31.7126391,22.2275885 C31.2499425,23.4100074 30.8092212,24.601698 30.3280238,25.7760932 C30.0611937,26.4269897 29.6126551,26.8869232 28.8742689,26.9712607 C28.3573725,27.0302792 27.8867718,26.9207117 27.5044196,26.5721286 C27.1808708,26.2772148 27.0492798,25.8645317 27.0075876,25.4193081 C26.9539089,24.8471326 27.1957237,24.359562 27.3962805,23.8575488 C27.8345697,22.7605373 28.2686029,21.661921 28.708803,20.565801 C29.2811153,19.1406221 29.8577705,17.7171371 30.4326017,16.293028 C30.5844308,15.916897 30.7365205,15.5408552 30.9011178,15.1335211 C30.3711926,15.1335211 29.8596814,15.1326296 29.3480834,15.1337886 C28.7328629,15.1351259 28.2541843,14.8740006 27.9101368,14.3510368 C27.4907828,13.7138696 27.5793787,12.7433644 28.0993152,12.2109505 C28.4568258,11.8449828 28.8687968,11.6692648 29.3694507,11.6727417 C30.2783406,11.6792498 31.1873174,11.6704238 32.0962073,11.6785366 C32.2571566,11.679963 32.3216926,11.6198748 32.3797143,11.471883 C32.7412204,10.5506786 33.1154078,9.63482326 33.4839495,8.71656086 C33.8688206,7.75728868 34.2512597,6.79694669 34.6363045,5.83785281 C34.9747062,4.99501274 35.3131947,4.15217267 35.6556788,3.31102649 C35.9034868,2.70229875 36.1395688,2.0875087 36.4141293,1.49152966 C36.6931196,0.88610054 37.1279345,0.421798543 37.7438499,0.16040579 C37.8162901,0.129648457 37.8925521,0.0960382704 37.9690746,0.0895301971 C38.8318426,0.016425812 39.7037307,-0.143958077 40.5253276,0.296272964 C41.0153846,0.558824689 41.3616904,0.982295213 41.5899552,1.47922673 C41.9439046,2.24976478 42.2492131,3.04401718 42.5683321,3.83113744 C42.9094264,4.67255108 43.242964,5.51708504 43.5790205,6.36063832 C44.0462337,7.53342879 44.5090171,8.70809145 44.9803996,9.87909889 C45.4960799,11.1601195 46.023052,12.4363259 46.5381243,13.7175249 C46.9979545,14.8612519 47.4444954,16.0106846 47.9036307,17.1547682 C48.368325,18.3128487 48.8446584,19.4661149 49.3098738,20.6241062 C49.7474682,21.7131833 50.179851,22.8046674 50.6089332,23.8973105 C50.7406111,24.23261 50.9051216,24.5661265 50.9656621,24.9166709 C51.1209655,25.8152308 50.7541611,26.7329583 49.7694434,26.9483488 C48.8675022,27.1456414 48.0851655,26.78217 47.6795351,25.7815314 C47.1942553,24.5847592 46.7352068,23.3768429 46.2672119,22.1726711 C45.684216,20.6726939 45.1063447,19.1704879 44.5210905,17.6714023 C43.9921207,16.3163858 43.4537702,14.9652028 42.9239319,13.6104537 C42.3458869,12.1324078 41.7749644,10.6513308 41.1968325,9.17328496 C40.7585433,8.05246993 40.3122631,6.93486435 39.8722366,5.81476253 C39.583605,5.0799743 39.2998375,4.34313559 39.0018251,3.57616361" id="Fill-6" fill="#053C48"></path>
                        <path d="M60.0099018,23.4154237 C60.6281717,21.8264999 61.240271,20.2506849 61.8544561,18.6755834 C62.5625898,16.8591737 63.2708103,15.042764 63.9821596,13.2277811 C64.4862311,11.9417855 64.9982983,10.6591786 65.5015008,9.37282629 C66.0771853,7.90116793 66.6462647,6.42674514 67.2194288,4.95410586 C67.6775255,3.77708237 68.1401416,2.60202073 68.5951096,1.42374879 C68.7779659,0.950317641 69.0260908,0.530926667 69.4594185,0.2585856 C70.2681057,-0.249534701 71.7605052,0.00728988079 71.9738665,1.3636447 C72.0655554,1.94613712 71.9024274,2.44890691 71.6953235,2.95988082 C71.3263953,3.87027045 70.9582492,4.78101679 70.5901901,5.69176313 C70.2498549,6.53411209 69.9095196,7.37646104 69.5704881,8.21925588 C69.2148569,9.1030713 68.8607032,9.98760013 68.5058542,10.8717723 C68.1647368,11.7217903 67.8244016,12.5719867 67.4822413,13.4215588 C67.1319115,14.2917304 66.7788876,15.1606536 66.4288186,16.0308252 C66.0843987,16.887353 65.7410217,17.7441484 65.3993828,18.6018355 C64.9374621,19.7611131 64.4826679,20.9235118 64.0153588,22.0805601 C63.5506569,23.2314552 63.1030761,24.3909112 62.592834,25.5203152 C62.2644054,26.2470931 61.7238321,26.8143365 60.9129721,26.9475643 C60.4355816,27.0259493 59.9369853,27 59.4502955,26.9743168 C59.159846,26.9589787 58.8581852,26.892454 58.5892022,26.7796474 C58.0859129,26.568213 57.7285435,26.1645168 57.4941502,25.6714671 C57.1968349,25.0460814 56.9301984,24.4047334 56.6657347,23.7635637 C56.3164479,22.9173802 55.9806319,22.0653111 55.6414265,21.2147581 C55.2064475,20.1240562 54.7778129,19.0307682 54.3396183,17.9414039 C53.7938304,16.584514 53.2377004,15.2319046 52.6923472,13.8749255 C52.2325991,12.7306293 51.7849314,11.5813393 51.3262263,10.4366864 C50.8645663,9.28472119 50.3938678,8.13667964 49.9309041,6.98533861 C49.4156213,5.70406931 48.9028588,4.42164073 48.3927037,3.13823122 C48.2676418,2.82344276 48.1113796,2.5118646 48.0476754,2.18280811 C47.8617773,1.22230201 48.2093259,0.288191767 49.2701358,0.0393929535 C49.9973894,-0.131199208 50.8711714,0.265630441 51.1912568,0.971184639 C51.4837921,1.61601052 51.736697,2.28018743 51.9955986,2.94044062 C52.4324896,4.05406055 52.8597337,5.17169335 53.2920185,6.28718595 C53.6895398,7.31314665 54.086105,8.33946405 54.4873634,9.36381959 C54.9533688,10.5535951 55.4274568,11.739982 55.8919848,12.9302926 C56.4773162,14.429952 57.0536091,15.9332675 57.6389404,17.4329269 C58.0498457,18.4857294 58.4717883,19.534073 58.884171,20.5862512 C59.2261575,21.4591873 59.5609305,22.3352445 59.9009181,23.2091614 C59.9274253,23.2772913 59.9692285,23.3392681 60.0099018,23.4154237" id="Fill-8" fill="#053C48"></path>
                    </g>
                </g>
            </g>
        </g>
    </g>
</svg>