<?xml version="1.0" encoding="utf-8"?>
<!-- Generator: Adobe Illustrator 23.0.1, SVG Export Plug-In . SVG Version: 6.00 Build 0)  -->
<svg version="1.1" id="Layer_1" xmlns="http://www.w3.org/2000/svg" xmlns:xlink="http://www.w3.org/1999/xlink" x="0px" y="0px"
	 viewBox="0 0 60 60" style="enable-background:new 0 0 60 60;" xml:space="preserve">
<style type="text/css">
	.st0{fill:url(#SVGID_1_);}
	.st1{fill:#FFFFFF;}
</style>
<linearGradient id="SVGID_1_" gradientUnits="userSpaceOnUse" x1="5.5134" y1="65.0688" x2="53.2734" y2="-3.3312">
	<stop  offset="0" style="stop-color:#FF15D8"/>
	<stop  offset="1" style="stop-color:#6C4F89"/>
</linearGradient>
<path class="st0" d="M47.5,60h-35C5.6,60,0,54.4,0,47.5v-35C0,5.6,5.6,0,12.5,0h35C54.4,0,60,5.6,60,12.5v35
	C60,54.4,54.4,60,47.5,60z"/>
<path class="st1" d="M40,46.5c-0.4,0-0.6-0.2-0.9-0.4c-0.2-0.2-0.4-0.5-0.4-0.9v-3.7c0-0.4-0.2-0.6-0.4-0.9
	c-0.2-0.2-0.5-0.4-0.9-0.4s-0.6,0.2-0.9,0.4c-0.2,0.2-0.4,0.5-0.4,0.9v1.8c0,0.4-0.2,0.6-0.4,0.9c-0.2,0.2-0.5,0.4-0.9,0.4
	s-0.6-0.2-0.9-0.4c-0.3-0.2-0.4-0.5-0.4-0.9v-1.8c0-0.4-0.2-0.6-0.4-0.9c-0.2-0.2-0.5-0.4-0.9-0.4s-0.6,0.2-0.9,0.4
	c-0.2,0.2-0.4,0.5-0.4,0.9v0.4c0,0.4-0.2,0.6-0.4,0.9c-0.2,0.2-0.4,0.4-0.8,0.4c-0.4,0-0.6-0.2-0.9-0.4c-0.2-0.2-0.4-0.5-0.4-0.9
	v-0.4c0-0.4-0.2-0.6-0.4-0.9c-0.2-0.2-0.5-0.4-0.9-0.4c-0.4,0-0.6,0.2-0.9,0.4c-0.2,0.2-0.4,0.5-0.4,0.9v1.8c0,0.4-0.2,0.6-0.4,0.9
	c-0.2,0.2-0.5,0.4-0.9,0.4s-0.6-0.2-0.9-0.4c-0.3-0.2-0.4-0.5-0.4-0.9v-1.8c0-0.4-0.2-0.6-0.4-0.9c-0.2-0.2-0.5-0.4-0.9-0.4
	s-0.6,0.2-0.9,0.4c-0.2,0.2-0.4,0.5-0.4,0.9v3.6c0,0.4-0.2,0.6-0.4,0.9c-0.2,0.2-0.5,0.4-0.9,0.4s-0.6-0.2-0.9-0.4
	c-0.2-0.2-0.4-0.5-0.4-0.9V24.5c0.1-2.6,1-5.1,2.6-7.1c1.6-2,3.9-3.3,6.4-3.8c2.5-0.4,5.1-0.2,7.3,1.1c2.2,1.3,4.1,3.1,5.1,5.5
	c0.6,1.3,0.9,2.8,1,4.3c0,0,0,0,0,0.1l0,0v20.6c0,0.4-0.2,0.6-0.4,0.9C40.7,46.4,40.3,46.5,40,46.5z M28.7,27.8
	c-0.4,0-0.4,0.2-0.4,0.4c0,0.8,0.8,1.3,1.8,1.3s1.8-0.6,1.8-1.3c0-0.3-0.2-0.4-0.4-0.4c-0.2,0-0.4,0-0.4,0.1l0,0
	C30.7,28,30.4,28,30.2,28c-0.3,0-0.5,0-0.8-0.1C29.1,27.8,28.9,27.8,28.7,27.8z M34.2,21.6c-1.2,0-2,1.1-2,2.3c0,1.3,0.9,2.3,2,2.3
	c1.2,0,2-1.1,2-2.3S35.3,21.6,34.2,21.6z M25.9,21.6c-1.2,0-2,1.1-2,2.3c0,1.3,0.9,2.3,2,2.3c1.2,0,2-1.1,2-2.3S27,21.6,25.9,21.6z"
	/>
</svg>
