<?xml version="1.0" encoding="utf-8"?>
<!-- Generator: Adobe Illustrator 23.0.1, SVG Export Plug-In . SVG Version: 6.00 Build 0)  -->
<svg version="1.1" id="Layer_1" xmlns="http://www.w3.org/2000/svg" xmlns:xlink="http://www.w3.org/1999/xlink" x="0px" y="0px"
	 viewBox="0 0 60 60" style="enable-background:new 0 0 60 60;" xml:space="preserve">
<style type="text/css">
	.st0{fill:url(#SVGID_1_);}
	.st1{fill:#FFFFFF;}
</style>
<linearGradient id="SVGID_1_" gradientUnits="userSpaceOnUse" x1="55.4546" y1="-2.4893" x2="5.9546" y2="60.6907">
	<stop  offset="0" style="stop-color:#00FFBB"/>
	<stop  offset="0.1019" style="stop-color:#02F7BE"/>
	<stop  offset="0.2629" style="stop-color:#07E0C6"/>
	<stop  offset="0.4629" style="stop-color:#0EBBD2"/>
	<stop  offset="0.6941" style="stop-color:#1987E4"/>
	<stop  offset="0.9486" style="stop-color:#2746FA"/>
	<stop  offset="1" style="stop-color:#2A38FF"/>
</linearGradient>
<path class="st0" d="M47.5,60h-35C5.6,60,0,54.4,0,47.5v-35C0,5.6,5.6,0,12.5,0h35C54.4,0,60,5.6,60,12.5v35
	C60,54.4,54.4,60,47.5,60z"/>
<g>
	<path class="st1" d="M31.9,15.3c-0.3,0-0.6,0.2-0.6,0.6v12.2c0,0.3,0.2,0.6,0.6,0.6h12.2c0.3,0,0.6-0.2,0.6-0.6V15.9
		c0-0.3-0.2-0.6-0.6-0.6H31.9z M41.4,24.8c0,0.3-0.2,0.6-0.6,0.6h-5.6c-0.3,0-0.6-0.2-0.6-0.6v-5.6c0-0.3,0.2-0.6,0.6-0.6h5.6
		c0.3,0,0.6,0.2,0.6,0.6V24.8z"/>
	<g>
		<path class="st1" d="M14.6,28.1c0,0.3,0.2,0.6,0.6,0.6h12.2c0.3,0,0.6-0.2,0.6-0.6V15.9c0-0.3-0.2-0.6-0.6-0.6H15.2
			c-0.3,0-0.6,0.2-0.6,0.6V28.1z M17.9,19.2c0-0.3,0.2-0.6,0.6-0.6h5.6c0.3,0,0.6,0.2,0.6,0.6v5.6c0,0.3-0.2,0.6-0.6,0.6h-5.6
			c-0.3,0-0.6-0.2-0.6-0.6C17.9,24.8,17.9,19.2,17.9,19.2z"/>
		<path class="st1" d="M14.6,44.8c0,0.3,0.2,0.6,0.6,0.6h12.2c0.3,0,0.6-0.2,0.6-0.6V32.6c0-0.3-0.2-0.6-0.6-0.6H15.2
			c-0.3,0-0.6,0.2-0.6,0.6V44.8z M17.9,35.9c0-0.3,0.2-0.6,0.6-0.6h5.6c0.3,0,0.6,0.2,0.6,0.6v5.6c0,0.3-0.2,0.6-0.6,0.6h-5.6
			c-0.3,0-0.6-0.2-0.6-0.6C17.9,41.4,17.9,35.9,17.9,35.9z"/>
		<path class="st1" d="M44.1,42.1h-2.3c-0.3,0-0.6,0.2-0.6,0.6v2.3c0,0.3,0.2,0.6,0.6,0.6h2.3c0.3,0,0.6-0.2,0.6-0.6v-2.3
			C44.7,42.3,44.4,42.1,44.1,42.1z"/>
		<path class="st1" d="M34.1,32h-2.3c-0.3,0-0.6,0.2-0.6,0.6v2.3c0,0.3,0.2,0.6,0.6,0.6h2.3c0.3,0,0.6-0.2,0.6-0.6v-2.3
			C34.7,32.3,34.4,32,34.1,32z"/>
		<path class="st1" d="M37.4,35.4h-2.3c-0.3,0-0.6,0.2-0.6,0.6v2.2c0,0.3,0.2,0.6,0.6,0.6h2.3c0.3,0,0.6-0.2,0.6-0.6v-2.3
			C38,35.6,37.7,35.4,37.4,35.4z"/>
		<path class="st1" d="M34.1,38.7h-2.3c-0.3,0-0.6,0.2-0.6,0.6v2.3c0,0.3,0.2,0.6,0.6,0.6h2.3c0.3,0,0.6-0.2,0.6-0.6v-2.3
			C34.7,38.9,34.4,38.7,34.1,38.7z"/>
		<path class="st1" d="M37.4,42.1h-2.3c-0.3,0-0.6,0.2-0.6,0.6v2.3c0,0.3,0.2,0.6,0.6,0.6h2.3c0.3,0,0.6-0.2,0.6-0.6v-2.3
			C38,42.3,37.7,42.1,37.4,42.1z"/>
		<path class="st1" d="M40.8,38.7h-2.3c-0.3,0-0.6,0.2-0.6,0.6v2.3c0,0.3,0.2,0.6,0.6,0.6h2.3c0.3,0,0.6-0.2,0.6-0.6v-2.3
			C41.4,38.9,41.1,38.7,40.8,38.7z"/>
		<path class="st1" d="M40.8,32h-2.3c-0.3,0-0.6,0.2-0.6,0.6v2.3c0,0.3,0.2,0.6,0.6,0.6h2.3c0.3,0,0.6-0.2,0.6-0.6v-2.3
			C41.4,32.3,41.1,32,40.8,32z"/>
		<path class="st1" d="M44.1,35.4h-2.3c-0.3,0-0.6,0.2-0.6,0.6v2.2c0,0.3,0.2,0.6,0.6,0.6h2.3c0.3,0,0.6-0.2,0.6-0.6v-2.3
			C44.7,35.6,44.4,35.4,44.1,35.4z"/>
	</g>
</g>
</svg>
