<?xml version="1.0" encoding="utf-8"?>
<!-- Generator: Adobe Illustrator 24.1.3, SVG Export Plug-In . SVG Version: 6.00 Build 0)  -->
<svg version="1.1" id="Layer_1" xmlns="http://www.w3.org/2000/svg" xmlns:xlink="http://www.w3.org/1999/xlink" x="0px" y="0px"
	 viewBox="0 0 700 500" style="enable-background:new 0 0 700 500;" xml:space="preserve">
	<style type="text/css">
		.st0{fill:#008CFF;}
		.st1{fill:#0CBFE8;}
	</style>
	<g class="leaf">
		<path class="st0" d="M132.4,200.5V43.8c0,0-50.7,25.3-50.7,79S132.4,200.5,132.4,200.5"/>
		<path class="st1" d="M132.4,43.8c0,0,50.7,25.3,50.7,79c0,53.7-50.7,77.7-50.7,77.7V43.8z"/>
		<path class="st0" d="M250.7,274.2l69.7-39.6c0,0-24.1-16.2-47.9-2.6C248.6,245.6,250.7,274.2,250.7,274.2"/>
		<path class="st1" d="M320.4,234.6c0,0,1.6,28.9-22.3,42.5c-23.9,13.6-47.4-2.9-47.4-2.9L320.4,234.6z"/>
	</g>
	<path class="outline" d="M323.8,228.3c-1.2-0.7-30.6-16.2-55.4-1.8c-19.9,11.5-23.9,34.6-24.7,44.1l-9.2,5.3c-4.6-4.5-10.8-7.3-17.7-7.3
		c-6.8,0-13,2.7-17.6,7.1l-42.1-24.3c0.5-2,0.7-4,0.7-6.1c0-11.6-7.8-21.4-18.4-24.4v-15c12.3-7.9,51.2-36.5,51.2-82.1
		c0-52.7-52.3-85.7-54.5-87.1l-3.7-2.3l-3.7,2.3c-2.3,1.4-54.6,34.3-54.6,87.1c0,45.6,38.9,74.2,51.2,82.1v15
		c-10.6,3-18.4,12.8-18.4,24.4c0,2.1,0.3,4.1,0.7,6.1l-42.1,24.3c-4.5-4.4-10.8-7.1-17.6-7.1c-14,0-25.4,11.4-25.4,25.4
		c0,11.6,7.8,21.4,18.4,24.4v50.5c-10.6,3.1-18.4,12.9-18.4,24.4c0,14,11.4,25.4,25.4,25.4c7.4,0,14.1-3.2,18.8-8.3l40.9,23.6
		c-0.5,1.9-0.7,4-0.7,6.1c0,14,11.4,25.4,25.4,25.4c14,0,25.4-11.4,25.4-25.4c0-2.1-0.3-4.1-0.7-6.1l40.9-23.6
		c4.6,5.1,11.3,8.3,18.8,8.3c14,0,25.4-11.4,25.4-25.4c0-11.6-7.8-21.4-18.4-24.4v-50.5c10.6-3.1,18.4-12.9,18.4-24.4
		c0-2-0.3-4-0.7-5.9l9.2-5.3c5.4,2.5,15.9,6.7,28,6.7c7.3,0,15.2-1.5,22.7-5.9c24.8-14.3,26.1-47.5,26.1-48.9l0.1-4.3L323.8,228.3z
		M223.8,302.9c-1.9,1.5-4.4,2.5-7.1,2.5c-1.4,0-2.7-0.3-4-0.7c-1.1-0.4-2.1-1-3-1.7c-2.2-1.7-3.8-4.3-4.2-7.3
		c-0.1-0.5-0.1-1.1-0.1-1.6c0-0.5,0-1,0.1-1.4c0.5-4.2,3.3-7.6,7.1-9.1c1.3-0.5,2.7-0.8,4.2-0.8c1.6,0,3.1,0.3,4.4,0.9
		c4.1,1.7,6.9,5.8,6.9,10.5c0,0.6-0.1,1.3-0.2,1.9C227.5,298.7,226,301.2,223.8,302.9 M228.1,393.3c0,6.3-5.1,11.4-11.4,11.4
		c-2.2,0-4.2-0.6-5.9-1.7c-3.2-2-5.4-5.6-5.4-9.7c0-0.1,0-0.2,0-0.3v0c0-1.2,0.3-2.4,0.7-3.5c0.7-2,2-3.8,3.7-5.1
		c1.4-1.2,3.2-1.9,5.1-2.3c0.6-0.1,1.3-0.2,1.9-0.2c2.7,0,5.1,0.9,7.1,2.5C226.4,386.5,228.1,389.7,228.1,393.3 M209.7,368.9
		c-3.5,1-6.6,2.7-9.3,5L157.3,349v0c0.3-1.6,0.5-3.3,0.5-5c0-2.5-0.4-4.8-1-7.1l42.5-24.5c2.9,2.8,6.5,4.9,10.5,6V368.9z
		M132.4,451.4c-5.7,0-10.4-4.2-11.2-9.6c-0.1-0.6-0.1-1.1-0.1-1.7c0-4.8,2.9-8.8,7.1-10.5c1.3-0.5,2.8-0.8,4.3-0.8
		c1.5,0,2.9,0.3,4.3,0.8c4.1,1.7,7.1,5.8,7.1,10.5c0,0.6-0.1,1.2-0.1,1.7C142.8,447.3,138.1,451.4,132.4,451.4 M107.5,349.1
		l-43.1,24.8c-2.7-2.3-5.9-4-9.3-5v-50.5c4-1.1,7.6-3.3,10.6-6.1l42.4,24.5c-0.7,2.3-1.1,4.7-1.1,7.2
		C107,345.7,107.2,347.4,107.5,349.1L107.5,349.1z M59.4,393.3c0,4.1-2.2,7.7-5.4,9.7c-1.7,1.1-3.8,1.7-5.9,1.7
		c-6.3,0-11.4-5.1-11.4-11.4c0-3.6,1.7-6.8,4.3-8.9c1.9-1.5,4.4-2.5,7.1-2.5c0.7,0,1.3,0.1,2,0.2c1.9,0.3,3.6,1.1,5,2.3
		c1.7,1.3,2.9,3.1,3.7,5.1c0.4,1.1,0.6,2.3,0.7,3.5C59.4,393.1,59.4,393.2,59.4,393.3 M36.7,294c0-6.3,5.1-11.4,11.4-11.4
		c1.5,0,2.9,0.3,4.2,0.8c3.7,1.5,6.5,4.8,7.1,8.9c0.1,0.5,0.1,1.1,0.1,1.6s-0.1,1.1-0.1,1.6c-0.4,3-2,5.5-4.2,7.3
		c-0.8,0.7-1.8,1.2-2.8,1.6c-1.3,0.5-2.7,0.8-4.2,0.8c-2.7,0-5.1-0.9-7.1-2.5C38.4,300.8,36.7,297.6,36.7,294 M125.4,236.4
		c1.9-1.5,4.4-2.4,7-2.4c2.6,0,5.1,0.9,7,2.4c2.2,1.8,3.8,4.3,4.2,7.3c0.1,0.5,0.1,1.1,0.1,1.7c0,3.6-1.7,6.8-4.3,8.9
		c-0.8,0.7-1.8,1.2-2.8,1.6c-1.3,0.5-2.7,0.8-4.2,0.8c-1.5,0-2.9-0.3-4.2-0.8c-1-0.4-2-0.9-2.8-1.6c-2.6-2.1-4.3-5.3-4.3-8.9
		c0-0.6,0.1-1.1,0.1-1.7C121.6,240.7,123.1,238.2,125.4,236.4 M143.7,344.4c-0.1,3.5-1.8,6.5-4.3,8.5c-0.5,0.4-1.1,0.8-1.6,1.1
		c-1.6,0.9-3.5,1.4-5.4,1.4c-1.9,0-3.7-0.5-5.3-1.3c-0.6-0.3-1.2-0.7-1.7-1.1c-2.6-2-4.2-5.1-4.3-8.6c0-0.1,0-0.2,0-0.3
		c0-1,0.1-2,0.4-2.9c0.6-2.4,2-4.5,3.9-6c1.2-0.9,2.7-1.7,4.2-2.1c0.9-0.2,1.8-0.4,2.8-0.4c1,0,2,0.1,2.9,0.4c1.5,0.4,2.9,1.1,4.1,2
		c1.8,1.5,3.3,3.5,3.9,5.9c0.3,1,0.4,2,0.4,3.1C143.8,344.1,143.8,344.3,143.7,344.4L143.7,344.4z M192.1,287.9c-0.5,2-0.7,4-0.7,6.1
		c0,2.2,0.3,4.3,0.8,6.3L149.3,325c-2.8-2.5-6.1-4.4-9.8-5.4v-49.8c4-1.2,7.6-3.3,10.6-6.1L192.1,287.9z M88.2,123.9
		c0-37.4,32.9-64.4,44.2-72.6c11.3,8.1,44.2,35.1,44.2,72.6c0,31.3-23.1,53.9-37.1,64.8v-59.1c0-3.9-3.1-7-7-7c-3.9,0-7,3.1-7,7v59.1
		C111.3,177.8,88.2,155.2,88.2,123.9 M114.8,263.6c2.9,2.8,6.5,5,10.6,6.1v49.8c-3.7,1.1-7,2.9-9.7,5.4l-42.9-24.8
		c0.5-2,0.7-4,0.7-6.1c0-2.1-0.3-4.2-0.7-6.1L114.8,263.6z M73.1,397.8c0.3-1.4,0.4-2.9,0.4-4.4c0-2.7-0.4-5.3-1.2-7.7l41.8-24.1
		c3,3.2,7,5.6,11.3,6.9v47.3c-4,1.2-7.7,3.3-10.6,6.2L73.1,397.8z M150,421.9c-2.9-2.9-6.6-5-10.6-6.2v-47.3
		c4.4-1.3,8.3-3.7,11.4-6.9l41.8,24.1c-0.8,2.5-1.2,5.1-1.2,7.8c0,1.5,0.1,3,0.4,4.4L150,421.9z M294.3,271.4
		c-9.3,5.4-19.9,4.4-27.8,2.3l14.1-8.1c3.4-1.9,4.5-6.2,2.6-9.6c-1.9-3.4-6.2-4.5-9.6-2.6l-14,8.1c2.1-7.9,6.6-17.5,15.9-22.8
		c13.4-7.7,30-2.8,37.6,0.2C311.8,246.9,307.8,263.6,294.3,271.4"/>
	<g class="letters">
		<path d="M361.9,393.5l0-164.6l33.8-4.2l5.2,25.8c11.1-17.7,27.1-26.6,48.1-26.6c4.4,0,8,0.2,10.8,0.6l-0.6,33.6
			c-4.1-0.6-8.3-0.9-12.7-0.9c-14.8,0-25.9,3.9-33.3,11.8c-7.3,7.9-11,18.8-11,32.9v91.5H361.9z"/>
		<path d="M488.8,186.8c0-13.7,7.7-20.6,23-20.6c15.3,0,23,6.9,23,20.6c0,6.6-1.9,11.6-5.7,15.3c-3.8,3.6-9.6,5.5-17.2,5.5
			C496.5,207.6,488.8,200.6,488.8,186.8z M532.8,393.5h-42.2V226.8h42.2V393.5z"/>
		<path d="M662.6,258.5H626v135h-42.2v-135h-23.2v-20.3l23.2-11.3v-11.3c0-17.6,4.3-30.5,13-38.6c8.7-8.1,22.5-12.2,41.6-12.2
			c14.6,0,27.5,2.2,38.9,6.5l-10.8,31c-8.5-2.7-16.3-4-23.5-4c-6,0-10.3,1.8-13,5.3c-2.7,3.6-4,8.1-4,13.6v9.7h36.5V258.5z"/>
	</g>
</svg>
