<?xml version="1.0" encoding="UTF-8"?>
<svg version="1.1" xmlns="http://www.w3.org/2000/svg" width="2429" height="2689">
<path d="M0 0 C1.06994202 0.00182281 2.13988403 0.00364563 3.24224854 0.00552368 C29.69128791 0.08112332 55.09731464 2.78579801 81 8.3125 C82.48064941 8.62695068 82.48064941 8.62695068 83.99121094 8.94775391 C110.68758799 14.77217342 136.56667121 24.13640905 161 36.3125 C162.03737305 36.82570801 163.07474609 37.33891602 164.14355469 37.86767578 C206.32957855 58.87122932 246.33375444 88.26401542 277 124.3125 C277.77601562 125.199375 278.55203125 126.08625 279.3515625 127 C324.50489281 178.94125305 353.90726177 243.9758596 364.25 311.9375 C364.47671387 313.41657837 364.47671387 313.41657837 364.70800781 314.92553711 C367.68705547 335.93522031 368.32445624 356.99422692 368.53173828 378.18164062 C368.73307403 396.99944368 369.10911325 415.98540999 373.1875 434.4375 C373.40325684 435.42991699 373.61901367 436.42233398 373.84130859 437.44482422 C380.49595017 466.74678929 394.51105852 492.59396251 414 515.3125 C414.60457031 516.03953125 415.20914062 516.7665625 415.83203125 517.515625 C436.94764004 542.49210131 468.60153875 558.10377653 500 565.3125 C501.03036377 565.55806641 501.03036377 565.55806641 502.08154297 565.80859375 C525.98670663 571.26490085 553.29110745 569.91032205 577 564.3125 C578.02383789 564.07112305 579.04767578 563.82974609 580.10253906 563.58105469 C595.0664752 559.935229 609.09370702 554.90495286 623 548.3125 C623.82806152 547.92191406 624.65612305 547.53132812 625.50927734 547.12890625 C635.04067723 542.59103001 644.29546601 537.65068369 653.4375 532.375 C737.46614498 484.0025872 835.93102974 470.81771952 930 495.3125 C983.77048514 510.02350212 1036.89877493 534.99143092 1078 573.3125 C1079.22481033 574.3800189 1080.45391083 575.44263785 1081.6875 576.5 C1099.3509194 591.92845613 1099.3509194 591.92845613 1106.2890625 600.29296875 C1108.47325801 602.87111733 1110.8048477 605.29356369 1113.125 607.75 C1119.40743493 614.51310006 1124.9320801 621.81967601 1130.4375 629.21923828 C1131.88267456 631.15532057 1133.34456516 633.07724852 1134.8125 634.99609375 C1174.41405545 687.22091336 1197.55229193 751.37805591 1204 816.3125 C1204.09571289 817.26721191 1204.19142578 818.22192383 1204.29003906 819.20556641 C1205.17676705 829.1899964 1205.24336173 839.17102272 1205.25 849.1875 C1205.25101212 850.56894699 1205.25101212 850.56894699 1205.25204468 851.978302 C1205.22178008 878.17640948 1202.53881491 903.67468076 1197 929.3125 C1196.78504883 930.31265137 1196.57009766 931.31280273 1196.34863281 932.34326172 C1191.19472657 955.73614108 1183.3920438 978.51171742 1173.04394531 1000.11279297 C1172.03865418 1002.23105141 1171.07214608 1004.36256037 1170.1171875 1006.50390625 C1164.54768824 1018.88008322 1157.86259513 1030.61406427 1151 1042.3125 C1150.55897949 1043.06450684 1150.11795898 1043.81651367 1149.66357422 1044.59130859 C1140.48322897 1060.09111341 1129.63263061 1074.57413837 1118 1088.3125 C1117.19433594 1089.3025 1116.38867188 1090.2925 1115.55859375 1091.3125 C1109.05307909 1099.21561883 1101.98287955 1106.51802239 1094.75 1113.75 C1094.27841461 1114.22249176 1093.80682922 1114.69498352 1093.32095337 1115.18179321 C1087.72423302 1120.7772968 1082.04706228 1126.20600321 1076 1131.3125 C1075.11103027 1132.0696228 1075.11103027 1132.0696228 1074.20410156 1132.84204102 C1056.83309253 1147.51697427 1037.94247192 1159.81392968 1018.64550781 1171.77148438 C1001.28212197 1182.55074339 984.27078179 1193.67418338 969 1207.3125 C968.03707031 1208.14265625 967.07414062 1208.9728125 966.08203125 1209.828125 C959.64062303 1215.47879483 954.16987645 1221.48538093 949 1228.3125 C948.60458008 1228.83295898 948.20916016 1229.35341797 947.80175781 1229.88964844 C919.28161747 1267.72802655 905.52304827 1314.46479908 912.02563477 1361.76928711 C915.13825542 1380.9175911 921.44180948 1399.42859143 931 1416.3125 C931.3623877 1416.96041504 931.72477539 1417.60833008 932.09814453 1418.27587891 C938.52943948 1429.67795328 946.13965682 1439.40009816 954.9765625 1449.06640625 C956.57411928 1450.83975596 958.08383492 1452.62933982 959.5625 1454.5 C962.74360102 1458.17050118 966.28877692 1461.19085249 970 1464.3125 C970.85335937 1465.05371094 971.70671875 1465.79492188 972.5859375 1466.55859375 C988.98638339 1480.60007139 1007.32658247 1491.79925156 1025.8515625 1502.7890625 C1037.15568675 1509.52293726 1047.84264202 1516.55818762 1058.10498047 1524.79833984 C1059.931143 1526.25748182 1061.77498918 1527.68963858 1063.62890625 1529.11328125 C1067.12270784 1531.80152975 1070.57293372 1534.53975444 1074 1537.3125 C1074.5470459 1537.75368164 1075.0940918 1538.19486328 1075.65771484 1538.64941406 C1084.9193411 1546.19873849 1093.41293052 1554.51804693 1101.875 1562.9375 C1102.40920563 1563.4664386 1102.94341125 1563.9953772 1103.49380493 1564.54034424 C1110.46707966 1571.46040015 1116.9172534 1578.58064663 1123 1586.3125 C1123.60408691 1587.06257324 1124.20817383 1587.81264648 1124.83056641 1588.58544922 C1133.2732766 1599.07009499 1140.96850505 1609.83565178 1148 1621.3125 C1148.60956543 1622.29839111 1148.60956543 1622.29839111 1149.23144531 1623.30419922 C1200.71746583 1706.99487054 1216.74747584 1808.55573773 1194.4375 1904.15234375 C1188.78900668 1927.33712878 1180.8173939 1949.58399808 1171 1971.3125 C1170.68240723 1972.03131348 1170.36481445 1972.75012695 1170.03759766 1973.49072266 C1161.8364089 1992.0462913 1151.64433406 2009.71190872 1140 2026.3125 C1139.20553323 2027.46601091 1138.41126343 2028.6196575 1137.6171875 2029.7734375 C1131.73288688 2038.2396979 1125.33793667 2046.25108488 1118.75195312 2054.1796875 C1117.4957891 2055.70893067 1116.25680969 2057.25235216 1115.02929688 2058.8046875 C1109.49409007 2065.74748988 1103.53829834 2072.08441425 1097.24414062 2078.32910156 C1095.62653713 2079.93597307 1094.01993087 2081.55328494 1092.4140625 2083.171875 C1085.91885631 2089.67526741 1079.20205724 2095.59171695 1072 2101.3125 C1070.1849197 2102.87200185 1068.37183674 2104.43383812 1066.5625 2106 C1017.14433607 2147.12866547 953.14231144 2172.82736675 890 2182.3125 C888.93168945 2182.47621094 887.86337891 2182.63992187 886.76269531 2182.80859375 C868.97339415 2185.3918586 851.19384538 2185.62011988 833.25 2185.6875 C832.14408508 2185.69544586 831.03817017 2185.70339172 829.89874268 2185.71157837 C759.56499177 2186.09966174 695.59022304 2161.31180484 635.75 2126.0625 C605.90804673 2108.89613367 571.67602776 2099.83180045 537.3125 2100 C536.51874969 2100.00215515 535.72499939 2100.0043103 534.90719604 2100.00653076 C523.04670312 2100.05817405 511.56349773 2100.44462987 500 2103.3125 C499.16017578 2103.51649414 498.32035156 2103.72048828 497.45507812 2103.93066406 C485.44708851 2106.92612117 474.10295674 2110.85037564 463 2116.3125 C462.36900391 2116.61913574 461.73800781 2116.92577148 461.08789062 2117.24169922 C446.46511055 2124.43011481 434.0671832 2133.65500811 422.38525391 2144.97412109 C421.19073856 2146.12821576 419.97787918 2147.26326858 418.76171875 2148.39453125 C387.2764219 2178.3655052 369.56753241 2227.28178693 367.89537048 2269.98446655 C367.83989731 2272.8361288 367.80981116 2275.68693922 367.7890625 2278.5390625 C367.76350018 2280.71151678 367.73710105 2282.88396134 367.70996094 2285.05639648 C367.69008118 2286.74211258 367.69008118 2286.74211258 367.6697998 2288.46188354 C366.42235829 2385.23972169 338.85948287 2477.07666041 271.38574219 2548.82519531 C269.93048624 2550.3871085 268.49866541 2551.96815181 267.0703125 2553.5546875 C260.41424785 2560.92390194 253.4474203 2567.74256354 246 2574.3125 C245.42910645 2574.82280762 244.85821289 2575.33311523 244.27001953 2575.85888672 C223.15144225 2594.72848756 199.81443846 2610.68652066 175 2624.3125 C173.67427979 2625.04315674 173.67427979 2625.04315674 172.32177734 2625.78857422 C119.51467256 2654.67427395 60.65051155 2668.84419192 0.5625 2668.625 C-0.48215424 2668.62317719 -1.52680847 2668.62135437 -2.6031189 2668.61947632 C-54.55615532 2668.4675712 -104.63887779 2657.75970176 -152 2636.3125 C-152.8962207 2635.91224609 -153.79244141 2635.51199219 -154.71582031 2635.09960938 C-183.05231433 2622.36973764 -209.09471988 2605.94091789 -232.91748047 2586.03027344 C-234.41815749 2584.7924348 -235.93490978 2583.57399361 -237.46142578 2582.36816406 C-244.57614279 2576.70372005 -251.0469014 2570.5748449 -257.44384766 2564.12939453 C-259.12314428 2562.43936758 -260.81288969 2560.76032236 -262.50390625 2559.08203125 C-269.12792315 2552.46612675 -275.17762663 2545.65165148 -281 2538.3125 C-281.94705373 2537.18776037 -282.90029948 2536.06816406 -283.86328125 2534.95703125 C-299.23929655 2517.17774721 -312.24362448 2498.00372951 -323.75097656 2477.53173828 C-324.5232039 2476.15966116 -325.30023661 2474.79026125 -326.08496094 2473.42529297 C-349.61985753 2432.47457289 -362.40801168 2383.20659199 -366 2336.3125 C-366.11613647 2334.8111853 -366.11613647 2334.8111853 -366.23461914 2333.27954102 C-366.85783575 2324.3391719 -367.1887369 2315.39884405 -367.46484375 2306.44140625 C-367.50370697 2305.18619675 -367.54257019 2303.93098724 -367.58261108 2302.63774109 C-367.74291091 2297.39981517 -367.90100525 2292.16185744 -368.04956055 2286.92358398 C-368.70681236 2260.24718409 -368.70681236 2260.24718409 -373.1875 2234 C-373.40108154 2233.13028564 -373.61466309 2232.26057129 -373.8347168 2231.36450195 C-377.77819189 2215.85760042 -383.36769103 2201.3599441 -391 2187.3125 C-391.32081543 2186.70712402 -391.64163086 2186.10174805 -391.97216797 2185.47802734 C-398.94415391 2172.35199794 -407.7841482 2161.08056 -418 2150.3125 C-418.70116943 2149.56250732 -418.70116943 2149.56250732 -419.41650391 2148.79736328 C-441.52271968 2125.27509098 -469.88448923 2111.00404466 -501 2103.3125 C-501.68255859 2103.13315918 -502.36511719 2102.95381836 -503.06835938 2102.76904297 C-537.74665 2093.86969571 -580.75809332 2101.24606627 -613 2115.3125 C-613.76779785 2115.64701172 -614.5355957 2115.98152344 -615.32666016 2116.32617188 C-625.79571359 2120.96255552 -635.78018059 2126.22161257 -645.625 2132.0625 C-732.50361078 2183.57086292 -832.19093423 2198.06716721 -930 2173.3125 C-1004.69996973 2153.71906532 -1074.05777754 2111.45274721 -1122 2050.3125 C-1123.06590781 2048.98788001 -1124.13235827 2047.66369658 -1125.19921875 2046.33984375 C-1141.69291851 2025.70314401 -1155.62434949 2003.09141768 -1167.05273438 1979.27636719 C-1168.00414723 1977.30390198 -1168.97725843 1975.34327605 -1169.953125 1973.3828125 C-1211.72591136 1888.39466699 -1214.03930887 1786.72395686 -1184.20751953 1697.79785156 C-1172.16972637 1663.05229249 -1155.21827855 1629.68157871 -1133 1600.3125 C-1132.54318848 1599.70696289 -1132.08637695 1599.10142578 -1131.61572266 1598.47753906 C-1117.29373022 1579.62185672 -1101.45325112 1560.88350335 -1083.45703125 1545.43359375 C-1081.56148331 1543.79721453 -1079.689022 1542.14347174 -1077.82421875 1540.47265625 C-1059.49545113 1524.15653852 -1039.27254152 1510.98900027 -1018.3515625 1498.26171875 C-1006.51827694 1491.0578512 -994.91361444 1483.85897486 -984 1475.3125 C-983.07058594 1474.60480469 -982.14117188 1473.89710937 -981.18359375 1473.16796875 C-967.03854907 1462.0701826 -955.3873495 1448.91646202 -945 1434.3125 C-944.54786133 1433.67844238 -944.09572266 1433.04438477 -943.62988281 1432.39111328 C-917.95285342 1396.00096089 -904.15980367 1353.27712192 -911.52392578 1308.57861328 C-919.4353494 1265.63460689 -942.99738789 1226.58598765 -977.37451172 1199.59179688 C-978.49761162 1198.70789128 -979.61615943 1197.81818197 -980.73095703 1196.92382812 C-997.22901226 1183.70431699 -1015.12844319 1172.48432974 -1033.125 1161.4375 C-1046.92755782 1152.95744608 -1059.84705613 1144.03667454 -1072 1133.3125 C-1072.73605469 1132.67570312 -1073.47210937 1132.03890625 -1074.23046875 1131.3828125 C-1076.16600264 1129.70612246 -1078.08403687 1128.01151479 -1080 1126.3125 C-1080.72799805 1125.66861328 -1081.45599609 1125.02472656 -1082.20605469 1124.36132812 C-1088.33901773 1118.89374547 -1094.25589108 1113.24971484 -1100.0625 1107.4375 C-1101.38000244 1106.11878906 -1101.38000244 1106.11878906 -1102.72412109 1104.7734375 C-1108.56860358 1098.87331406 -1113.9167212 1092.87926628 -1119 1086.3125 C-1120.57965191 1084.45519596 -1122.16323257 1082.60122867 -1123.75 1080.75 C-1184.54198085 1007.64928733 -1209.79342087 909.66602948 -1202.17529297 815.81347656 C-1193.10056784 720.42504686 -1146.57432302 630.20712969 -1072.625 568.75 C-1070.75796885 567.26078756 -1068.88208186 565.7826452 -1067 564.3125 C-1066.39494629 563.83490234 -1065.78989258 563.35730469 -1065.16650391 562.86523438 C-1043.38603729 545.70583806 -1020.06743394 531.1884275 -995 519.3125 C-994.28150879 518.96654785 -993.56301758 518.6205957 -992.82275391 518.26416016 C-960.04008249 502.55975986 -924.9109654 492.59247098 -889 487.3125 C-887.92186035 487.14878906 -886.8437207 486.98507812 -885.73291016 486.81640625 C-852.23074897 481.93603123 -816.45229962 482.21533825 -783 487.3125 C-781.84773926 487.48410645 -780.69547852 487.65571289 -779.50830078 487.83251953 C-744.04906705 493.26426252 -710.47615926 504.2039358 -678 519.3125 C-677.02869141 519.76431641 -676.05738281 520.21613281 -675.05664062 520.68164062 C-664.77036755 525.49751797 -654.58145986 530.50205856 -644.44140625 535.6171875 C-609.33807373 554.30648273 -609.33807373 554.30648273 -572 567.3125 C-571.36320313 567.46895996 -570.72640625 567.62541992 -570.0703125 567.78662109 C-529.93535183 577.28353664 -484.7382405 566.3068391 -450.11328125 544.96484375 C-408.85070293 518.63925551 -383.68704479 477.10719748 -373.1875 429.8125 C-368.78094355 408.87460385 -367.12374486 387.64515989 -366.70996094 366.29150391 C-365.59496235 309.17409125 -353.43062039 253.64866076 -328 202.3125 C-327.60458008 201.50925293 -327.20916016 200.70600586 -326.80175781 199.87841797 C-314.89009576 175.91316321 -299.69658558 153.64592147 -282.53662109 133.15771484 C-281.14789392 131.49009489 -279.78379795 129.8059048 -278.42578125 128.11328125 C-271.46254859 119.57224488 -263.70294666 111.80297276 -255.9375 104 C-255.38268951 103.43992249 -254.82787903 102.87984497 -254.2562561 102.30279541 C-247.17091909 95.16554207 -239.89972035 88.55772793 -232 82.3125 C-230.82585512 81.33631164 -229.65476189 80.35642763 -228.48828125 79.37109375 C-211.15352173 64.95877266 -191.83151488 52.96199735 -172 42.3125 C-170.71440186 41.61930664 -170.71440186 41.61930664 -169.40283203 40.91210938 C-134.45332755 22.26715828 -96.20125105 10.46269352 -57.1875 4.0625 C-56.27154053 3.91135742 -55.35558105 3.76021484 -54.41186523 3.60449219 C-36.31280837 0.81445054 -18.2924616 -0.06506918 0 0 Z M-413 692.3125 C-413.50273438 692.78945313 -414.00546875 693.26640625 -414.5234375 693.7578125 C-426.00250712 704.65418823 -435.10431087 716.550352 -443 730.3125 C-443.35416992 730.91449219 -443.70833984 731.51648438 -444.07324219 732.13671875 C-462.52608887 763.73294344 -469.29657218 800.04029925 -469.53848267 836.20779419 C-469.57949157 841.82914115 -469.67310457 847.44961309 -469.765625 853.0703125 C-469.78297195 854.15568802 -469.80031891 855.24106354 -469.81819153 856.35932922 C-471.35238097 944.98938901 -506.92471998 1040.15727408 -570.8125 1103.1875 C-571.34875 1103.703125 -571.885 1104.21875 -572.4375 1104.75 C-574.17065598 1106.48315598 -575.73206047 1108.31438648 -577.3125 1110.1875 C-580.71341463 1114.12619846 -584.44945598 1117.54489311 -588.35546875 1120.9765625 C-590.08942572 1122.5081818 -591.80154208 1124.06496807 -593.48828125 1125.6484375 C-601.51560157 1133.17633425 -610.15369352 1139.78191912 -619 1146.3125 C-619.69399902 1146.82603027 -620.38799805 1147.33956055 -621.10302734 1147.86865234 C-633.81056249 1157.210749 -647.17460884 1165.32743736 -660.89453125 1173.08984375 C-689.15565107 1189.10724817 -714.9719861 1209.71088531 -734 1236.3125 C-734.41797852 1236.8914502 -734.83595703 1237.47040039 -735.26660156 1238.06689453 C-761.09036846 1274.2062951 -772.96849362 1317.66736644 -766.04296875 1361.7109375 C-761.32883846 1388.64480431 -749.942159 1414.83907299 -733 1436.3125 C-732.36457275 1437.11929199 -732.36457275 1437.11929199 -731.71630859 1437.94238281 C-720.70596817 1451.74775136 -708.23957501 1463.8814404 -694 1474.3125 C-693.3306543 1474.80492187 -692.66130859 1475.29734375 -691.97167969 1475.8046875 C-680.94622114 1483.86785347 -669.57450739 1491.04406245 -657.68359375 1497.75 C-639.64148677 1507.96922255 -622.11815019 1519.23812066 -606 1532.3125 C-605.08863281 1533.03308594 -604.17726563 1533.75367188 -603.23828125 1534.49609375 C-587.71586665 1546.91845408 -572.46338539 1560.96116521 -560.15625 1576.59765625 C-558.2069134 1579.05198403 -556.18534442 1581.4236462 -554.12670898 1583.78637695 C-498.80152284 1647.62765843 -471.24126486 1732.00670165 -469.76953125 1815.63671875 C-469.7418718 1817.16003563 -469.7418718 1817.16003563 -469.71365356 1818.71412659 C-469.62479564 1823.79329058 -469.55423802 1828.87161097 -469.51660156 1833.95141602 C-469.3220904 1851.84248864 -467.66630041 1869.61594618 -463.25 1887 C-462.99395996 1888.0305249 -462.73791992 1889.0610498 -462.47412109 1890.12280273 C-458.40536716 1906.02625955 -452.87538905 1920.90951001 -445 1935.3125 C-444.42378906 1936.37984375 -443.84757812 1937.4471875 -443.25390625 1938.546875 C-436.89333022 1949.88720917 -428.94103721 1959.90734788 -420 1969.3125 C-419.24807373 1970.11324951 -419.24807373 1970.11324951 -418.48095703 1970.93017578 C-396.29723552 1994.42701445 -368.43978269 2009.96016469 -337 2017.3125 C-335.72511719 2017.6321875 -334.45023438 2017.951875 -333.13671875 2018.28125 C-311.3497312 2023.14410346 -284.7059673 2022.26213659 -263 2017.3125 C-262.23059082 2017.14089355 -261.46118164 2016.96928711 -260.66845703 2016.79248047 C-234.95893248 2010.89841 -211.07312352 2000.7049689 -188.61132812 1986.93481445 C-132.16313299 1952.35418823 -68.18452179 1934.73889309 -2 1935 C-1.02854034 1935.00182281 -0.05708069 1935.00364563 0.94381714 1935.00552368 C51.69492728 1935.16467658 102.29409123 1945.11446397 148.59277344 1966.21826172 C150.9100605 1967.27161675 153.2386501 1968.29536133 155.5703125 1969.31640625 C167.18624997 1974.50900241 178.00083575 1980.93680453 188.89253235 1987.47254944 C219.0794135 2005.57919249 254.20846183 2020.28604155 289.98828125 2020.515625 C290.72474884 2020.52268463 291.46121643 2020.52974426 292.22000122 2020.53701782 C314.78438918 2020.80870212 314.78438918 2020.80870212 337 2017.3125 C337.83982422 2017.10850586 338.67964844 2016.90451172 339.54492188 2016.69433594 C351.55291149 2013.69887883 362.89704326 2009.77462436 374 2004.3125 C374.63099609 2004.00586426 375.26199219 2003.69922852 375.91210938 2003.38330078 C390.69582718 1996.11576978 403.18310729 1986.7263609 415 1975.3125 C415.91394531 1974.46171875 416.82789063 1973.6109375 417.76953125 1972.734375 C450.64014355 1941.32154379 469.11926652 1892.19335933 470.17358398 1847.09179688 C470.20165648 1845.23833625 470.22565867 1843.38481056 470.24609375 1841.53125 C470.27726485 1839.46475623 470.30885572 1837.39826876 470.34082031 1835.33178711 C470.35616821 1834.26652802 470.37151611 1833.20126892 470.3873291 1832.10372925 C471.88897294 1733.5953452 500.01518744 1641.01506437 581.00146484 1556.18066406 C582.76648544 1554.4210652 584.52601133 1552.65609603 586.28515625 1550.890625 C592.01583358 1545.15567446 597.74826527 1539.48605898 604 1534.3125 C604.63534668 1533.78543457 605.27069336 1533.25836914 605.92529297 1532.71533203 C620.45248753 1520.84698931 636.13732997 1510.86817474 652.00341797 1500.91040039 C675.361867 1486.24600569 697.98968224 1471.41074526 718 1452.3125 C718.66515625 1451.70019531 719.3303125 1451.08789062 720.015625 1450.45703125 C748.47301026 1423.528898 765.12373365 1378.64333176 766.203125 1339.921875 C766.74869061 1299.38773108 754.33975424 1263.63577347 730 1231.3125 C729.36191406 1230.44753906 728.72382812 1229.58257813 728.06640625 1228.69140625 C716.54865554 1213.83652053 702.34826605 1200.16315564 687 1189.3125 C686.46262207 1188.92545898 685.92524414 1188.53841797 685.37158203 1188.13964844 C677.10783615 1182.23242825 668.38798133 1177.2027134 659.5625 1172.1875 C638.10739221 1159.98399179 617.94179217 1146.13173515 599 1130.3125 C598.01257812 1129.51199219 597.02515625 1128.71148438 596.0078125 1127.88671875 C587.97382455 1121.2824979 580.55335501 1114.08017859 573.1875 1106.75 C572.69963013 1106.26730652 572.21176025 1105.78461304 571.70910645 1105.28729248 C565.0081985 1098.64250274 558.88286959 1091.69184287 553 1084.3125 C552.12497156 1083.27315392 551.24484612 1082.23803192 550.35546875 1081.2109375 C510.14537754 1034.40784034 485.80716052 974.9949229 475.75 914.5625 C475.59853516 913.65411377 475.44707031 912.74572754 475.29101562 911.80981445 C472.08239794 891.03909644 471.3626889 869.95501586 470.39819336 848.99121094 C469.79564921 836.04582933 469.01889337 823.1678499 467.54296875 810.2890625 C467.42490372 809.25759094 467.30683868 808.22611938 467.18519592 807.16339111 C462.60770496 769.49158993 448.09377583 733.08421329 423 704.3125 C422.57283691 703.81975586 422.14567383 703.32701172 421.70556641 702.81933594 C394.35918526 671.50929787 354.27240827 650.25543863 312.41113281 647.42529297 C295.53054931 646.63561804 278.49097723 646.18871328 262 650.3125 C260.75863281 650.61800781 259.51726562 650.92351563 258.23828125 651.23828125 C230.56517333 659.05956047 204.19130735 674.21224146 178.875 687.625 C136.22480972 710.20839357 92.1003458 725.37447244 44 731.3125 C43.06720215 731.42964355 42.1344043 731.54678711 41.17333984 731.66748047 C-39.22238113 741.25569954 -119.20852871 721.26016777 -188.75 681.1875 C-260.41777182 639.94125647 -349.3881225 630.72004719 -413 692.3125 Z " fill="#25211E" transform="translate(1216,8.6875)"/>
<path d="M0 0 C1.53063583 0.00273422 1.53063583 0.00273422 3.0921936 0.00552368 C19.8747423 0.05573117 36.31863428 0.80138049 52.9375 3.3125 C54.06994141 3.47878906 55.20238281 3.64507813 56.36914062 3.81640625 C93.52333382 9.43007842 129.24115146 20.73410098 162.9375 37.3125 C163.89994629 37.78413574 164.86239258 38.25577148 165.85400391 38.74169922 C193.14253112 52.23743207 218.16459924 69.12742887 240.9375 89.3125 C242.24982844 90.43770012 243.56230203 91.56273101 244.875 92.6875 C255.82531729 102.34816536 266.27888037 112.35544186 275.9375 123.3125 C276.37980957 123.81007813 276.82211914 124.30765625 277.27783203 124.8203125 C329.22310195 183.5494079 359.99987216 258.46457645 366.9375 336.3125 C367.00807617 337.0770752 367.07865234 337.84165039 367.15136719 338.62939453 C372.56282124 400.00215518 360.56078468 462.14676978 335.9375 518.3125 C335.52918945 519.24497559 335.12087891 520.17745117 334.70019531 521.13818359 C322.86779708 547.79257454 307.11557797 572.5517133 288.9375 595.3125 C288.20144531 596.24191406 287.46539063 597.17132812 286.70703125 598.12890625 C281.50976924 604.595588 275.989423 610.72336597 270.34033203 616.79199219 C268.95004219 618.29890572 267.57986717 619.82175246 266.21484375 621.3515625 C259.84986425 628.46199005 253.09007152 634.99439516 245.9375 641.3125 C245.36515625 641.82425781 244.7928125 642.33601563 244.203125 642.86328125 C177.80434338 702.18914918 89.83810414 734.97575906 0.9375 734.625 C-0.03362732 734.62317719 -1.00475464 734.62135437 -2.00531006 734.61947632 C-86.47279074 734.35448504 -167.70858054 704.74616633 -233.0625 651.3125 C-233.59891113 650.88050293 -234.13532227 650.44850586 -234.68798828 650.00341797 C-244.34658772 642.1751738 -253.13545639 633.44872951 -261.9375 624.6875 C-262.51954193 624.1107251 -263.10158386 623.5339502 -263.70126343 622.93969727 C-270.97206883 615.71977789 -277.70922059 608.36261801 -284.0625 600.3125 C-285.03858167 599.13826642 -286.018462 597.96716865 -287.00390625 596.80078125 C-312.20966567 566.48395892 -331.72481318 530.31422947 -345.0625 493.3125 C-345.40764648 492.3647168 -345.75279297 491.41693359 -346.10839844 490.44042969 C-377.96232347 402.0570039 -373.89601454 299.74597692 -334.29345703 214.46533203 C-316.83488132 177.45161979 -294.27897716 141.54259459 -264.6875 112.9375 C-262.8388047 111.14330205 -262.8388047 111.14330205 -260.5625 108.25 C-257.94910191 105.17925724 -255.15227659 102.69604824 -252.08984375 100.08984375 C-250.21214868 98.44369489 -248.48122302 96.73514884 -246.75 94.9375 C-242.18779353 90.32437605 -237.1406051 86.33708566 -232.0625 82.3125 C-231.39750488 81.78172852 -230.73250977 81.25095703 -230.04736328 80.70410156 C-220.03336498 72.7262754 -209.9140195 65.11494506 -199.0625 58.3125 C-197.96180176 57.62124023 -197.96180176 57.62124023 -196.83886719 56.91601562 C-153.81693851 30.09668597 -107.13595685 12.25521465 -57.0625 4 C-56.17006592 3.85256348 -55.27763184 3.70512695 -54.3581543 3.55322266 C-36.31163203 0.80312288 -18.23235441 -0.06829298 0 0 Z " fill="#25211E" transform="translate(1216.0625,975.6875)"/>
</svg>
