<?xml version="1.0" encoding="utf-8"?>
<!-- Generator: Adobe Illustrator 23.0.1, SVG Export Plug-In . SVG Version: 6.00 Build 0)  -->
<svg version="1.1" id="Layer_1" xmlns="http://www.w3.org/2000/svg" xmlns:xlink="http://www.w3.org/1999/xlink" x="0px" y="0px"
	 viewBox="0 0 60 60" style="enable-background:new 0 0 60 60;" xml:space="preserve">
<style type="text/css">
	.st0{fill:url(#SVGID_1_);}
	.st1{fill:#FFFFFF;}
</style>
<linearGradient id="SVGID_1_" gradientUnits="userSpaceOnUse" x1="8.9345" y1="63.6802" x2="50.2146" y2="-2.3198">
	<stop  offset="0" style="stop-color:#005BAA"/>
	<stop  offset="0.2253" style="stop-color:#083C7E"/>
	<stop  offset="0.4519" style="stop-color:#0E225A"/>
	<stop  offset="0.6636" style="stop-color:#120F40"/>
	<stop  offset="0.8527" style="stop-color:#150430"/>
	<stop  offset="1" style="stop-color:#16002A"/>
</linearGradient>
<path class="st0" d="M47.5,60h-35C5.6,60,0,54.4,0,47.5v-35C0,5.6,5.6,0,12.5,0h35C54.4,0,60,5.6,60,12.5v35
	C60,54.4,54.4,60,47.5,60z"/>
<title>icon</title>
<desc>Created with Sketch.</desc>
<g>
	<g transform="translate(787.08,980.69)">
		<path class="st1" d="M-771.3-956.9c-0.3-0.1-0.8-0.3-1.4-0.4c-0.4-0.1-0.8-0.2-1-0.3c-0.3-0.1-0.5-0.2-0.6-0.4
			c-0.2-0.2-0.3-0.4-0.3-0.6c0-0.3,0.2-0.6,0.5-0.9c0.3-0.2,0.8-0.3,1.4-0.3c0.3,0,0.7,0.1,1.1,0.2c0.3,0.1,0.7,0.2,1,0.4l0,0
			l0.4-0.9l0,0c-0.3-0.2-0.7-0.4-1.1-0.5c-0.4-0.1-0.9-0.2-1.3-0.2c-0.6,0-1.2,0.1-1.6,0.3c-0.4,0.2-0.8,0.5-1,0.8s-0.3,0.7-0.3,1.1
			c0,0.5,0.1,0.9,0.4,1.2c0.2,0.3,0.6,0.5,0.9,0.6c0.3,0.1,0.8,0.3,1.4,0.4c0.5,0.1,0.8,0.2,1.1,0.3c0.2,0.1,0.5,0.2,0.6,0.4
			c0.2,0.2,0.2,0.4,0.2,0.6c0,0.3-0.2,0.6-0.5,0.8s-0.8,0.3-1.4,0.3c-0.5,0-0.9-0.1-1.4-0.2c-0.4-0.2-0.8-0.4-1.1-0.6l0,0l-0.4,0.9
			l0,0c0.3,0.3,0.7,0.5,1.2,0.7s1.1,0.3,1.6,0.3c0.6,0,1.2-0.1,1.6-0.3c0.4-0.2,0.8-0.5,1-0.8s0.3-0.7,0.3-1.1
			c0-0.5-0.1-0.9-0.4-1.1C-770.7-956.5-771-956.7-771.3-956.9"/>
	</g>
	<g transform="translate(813.66,1011)">
		<path class="st1" d="M-795.5-989.9h2.6v6.6h1.1v-6.6h2.6v-1h-6.3L-795.5-989.9L-795.5-989.9z"/>
	</g>
	<g transform="translate(947.84,969.03)">
		<path class="st1" d="M-917.4-944.1h-3.2l1.6-3.7L-917.4-944.1z M-918.4-948.9h-1.1l-3.4,7.6h1.1l0.8-1.9h4l0.8,1.9h1.2
			L-918.4-948.9L-918.4-948.9z"/>
	</g>
	<g transform="translate(1065,1021.5)">
		<path class="st1" d="M-1023.8-1001.4h-1.3l-4.1,4.2v-4.2h-1.1v7.6h1.1v-2l1.4-1.4l2.9,3.3l0,0h1.3l-3.4-4.2L-1023.8-1001.4z"/>
	</g>
	<g transform="translate(1100.2,975.62)">
		<path class="st1" d="M-1055.8-951.3h3.8v-0.9h-3.8v-2.3h4.2v-1h-5.3v7.6h5.5v-1h-4.4L-1055.8-951.3L-1055.8-951.3z"/>
	</g>
	<g>
		<g transform="translate(1257.5,954.33)">
			<path class="st1" d="M-1234.8-915.9l-2.1-6.1l0,0h-1l-2.1,6.1l-2-6.1l0,0h-1.1l2.5,7.6h1.2l2.1-6l2.1,6h1.1l2.5-7.5v-0.1h-1
				L-1234.8-915.9z"/>
		</g>
		<path class="st1" d="M27.9,39.9H29v-7.6h-1.1V39.9z"/>
		<g transform="translate(1402.3,980.69)">
			<path class="st1" d="M-1366.3-944.6c-0.3-0.1-0.8-0.3-1.4-0.4c-0.4-0.1-0.8-0.2-1-0.3c-0.3-0.1-0.5-0.2-0.6-0.4
				c-0.2-0.2-0.3-0.4-0.3-0.6c0-0.3,0.2-0.6,0.5-0.9c0.3-0.2,0.8-0.3,1.4-0.3c0.3,0,0.7,0.1,1.1,0.2c0.3,0.1,0.7,0.2,1,0.4l0,0
				l0.4-0.9l0,0c-0.3-0.2-0.7-0.4-1.1-0.5s-0.9-0.2-1.3-0.2c-0.6,0-1.2,0.1-1.6,0.3s-0.8,0.5-1,0.8s-0.3,0.7-0.3,1.1
				c0,0.5,0.1,0.9,0.4,1.2c0.2,0.3,0.6,0.5,0.9,0.6s0.8,0.3,1.4,0.4c0.5,0.1,0.8,0.2,1.1,0.3c0.2,0.1,0.5,0.2,0.6,0.4
				c0.2,0.2,0.2,0.4,0.2,0.6c0,0.3-0.2,0.6-0.5,0.8s-0.8,0.3-1.4,0.3c-0.5,0-0.9-0.1-1.4-0.2c-0.4-0.2-0.8-0.4-1.1-0.6l0,0l-0.4,0.9
				l0,0c0.3,0.3,0.7,0.5,1.2,0.7s1.1,0.3,1.6,0.3c0.6,0,1.2-0.1,1.6-0.3s0.8-0.5,1-0.8s0.3-0.7,0.3-1.1c0-0.5-0.1-0.9-0.4-1.1
				C-1365.7-944.3-1366-944.5-1366.3-944.6"/>
		</g>
		<g transform="translate(1454,949.23)">
			<path class="st1" d="M-1413.3-910.3v-2.4h3.8v-0.9h-3.8v-2.3h4.2v-1h-5.3v7.6h5.5v-1L-1413.3-910.3L-1413.3-910.3z"/>
		</g>
	</g>
</g>
</svg>
