<?xml version="1.0" standalone="no"?>
<!DOCTYPE svg PUBLIC "-//W3C//DTD SVG 20010904//EN"
 "http://www.w3.org/TR/2001/REC-SVG-20010904/DTD/svg10.dtd">
<svg version="1.0" xmlns="http://www.w3.org/2000/svg"
 width="261.000000pt" height="263.000000pt" viewBox="0 0 261.000000 263.000000"
 preserveAspectRatio="xMidYMid meet">

<g transform="translate(0.000000,263.000000) scale(0.100000,-0.100000)"
fill="#000000" stroke="none">
<path d="M117 2526 c-14 -13 -29 -35 -32 -48 -3 -12 -4 -260 -3 -550 l3 -528
28 -27 27 -28 528 -3 c290 -1 538 0 550 3 13 3 35 18 48 32 24 26 24 27 24
249 l0 224 -272 0 -273 0 170 -170 170 -170 -63 -62 -62 -63 -275 275 -275
275 275 275 275 275 62 -63 63 -62 -170 -170 -170 -170 273 0 272 0 0 236 0
236 -29 29 -29 29 -545 0 -544 0 -26 -24z"/>
<path d="M1370 1940 l0 -90 95 0 95 0 0 90 0 90 -95 0 -95 0 0 -90z"/>
<path d="M1740 1940 l0 -90 95 0 95 0 0 90 0 90 -95 0 -95 0 0 -90z"/>
<path d="M1353 1292 c-38 -29 -43 -64 -43 -278 l0 -204 277 0 278 0 -170 170
-170 170 60 60 60 60 275 -275 275 -275 -275 -275 -275 -275 -57 57 c-32 32
-58 62 -58 68 0 5 73 83 162 172 l163 163 -273 0 -272 0 0 -222 c0 -205 2
-226 20 -256 11 -18 32 -37 46 -42 15 -6 232 -10 545 -10 556 0 563 1 589 49
6 13 10 210 10 564 l0 545 -31 26 -31 26 -541 0 c-498 0 -544 -2 -564 -18z"/>
<path d="M670 720 l0 -90 100 0 100 0 0 90 0 90 -100 0 -100 0 0 -90z"/>
<path d="M1040 720 l0 -90 100 0 100 0 0 90 0 90 -100 0 -100 0 0 -90z"/>
</g>
</svg>
