<?xml version="1.0" encoding="UTF-8"?>
<svg width="78px" height="50px" viewBox="0 0 78 50" version="1.1" xmlns="http://www.w3.org/2000/svg" xmlns:xlink="http://www.w3.org/1999/xlink">
    <title>Group 11</title>
    <g id="dapps-center-light" stroke="none" stroke-width="1" fill="none" fill-rule="evenodd">
        <g id="dapps-center" transform="translate(-1260.000000, -493.000000)">
            <g id="Group-11" transform="translate(1260.000000, 493.000000)">
                <circle id="Oval" fill="#05C0A5" cx="25" cy="25" r="25"></circle>
                <g id="whiteLogo.d156e83e" transform="translate(12.500000, 10.416667)" fill="#FFFFFF" fill-rule="nonzero">
                    <path d="M24.6006944,24.6729167 L15.1576389,1.76041667 C14.8251037,0.725529858 13.8701928,0.0175161104 12.7833333,0 L11.9527778,0 C10.8692634,0.0213423069 9.91896354,0.728626546 9.5875,1.76041667 L5.47986111,11.7451389 L2.36527778,11.7451389 C1.43350731,11.7549867 0.681961572,12.5105514 0.677083333,13.4423611 L0.677083333,13.4604167 C0.681961572,14.3922264 1.43350731,15.1477911 2.36527778,15.1576389 L4.03541667,15.1576389 L0.117361111,24.6729167 C0.0427219907,24.8816444 0.00306803489,25.1012663 -8.01875927e-16,25.3229167 C-0.0183619765,25.7910229 0.146850323,26.2477863 0.460416667,26.5958333 C0.788557184,26.9321042 1.24618377,27.1098872 1.71527778,27.0833333 C2.06605574,27.078369 2.40667679,26.9648286 2.69027778,26.7583333 C2.9854865,26.5371711 3.21614694,26.241053 3.35833333,25.9006944 L7.68263889,15.1576389 L10.6708333,15.1576389 C11.6061312,15.1527032 12.3631198,14.3957145 12.3680556,13.4604167 L12.3680556,13.4152778 C12.3631198,12.4799799 11.6061312,11.7229913 10.6708333,11.7180556 L9.07291667,11.7180556 L12.3680556,3.48472222 L21.3506944,25.9006944 C21.4928808,26.241053 21.7235413,26.5371711 22.01875,26.7583333 C22.302351,26.9648286 22.642972,27.078369 22.99375,27.0833333 C23.465923,27.1125544 23.9273888,26.9345605 24.2576389,26.5958333 C24.5679362,26.2463877 24.7298532,25.7897817 24.7090278,25.3229167 C24.7204066,25.1009618 24.6834435,24.8791836 24.6006944,24.6729167 L24.6006944,24.6729167 Z" id="Path"></path>
                </g>
                <circle id="Oval-Copy" fill="#CDF4EE" cx="52.0833333" cy="25" r="25"></circle>
                <path d="M54.0899722,31.9466521 L45.4114036,40.625 L42.9366063,37.960564 L48.950739,31.9466521 L42.7083333,25.7042465 L45.3727694,23.0398105 L54.0899722,31.9466521 Z M59.1523786,26.9601895 L61.8168147,24.2959743 L55.5737468,18.0535687 L61.5876586,12.039436 L59.1135237,9.375 L50.3969831,18.0535687 L59.1517163,26.9601895 L59.1523786,26.9601895 Z M46.476604,22.0121404 L55.2311165,30.9189821 L57.8955525,28.2552083 L49.14104,19.4998128 L46.476604,22.0121404 Z" id="Shape" fill="#5A78F0" fill-rule="nonzero"></path>
            </g>
        </g>
    </g>
</svg>