<?xml version="1.0" encoding="UTF-8"?>
<svg width="90px" height="90px" viewBox="0 0 90 90" version="1.1" xmlns="http://www.w3.org/2000/svg" xmlns:xlink="http://www.w3.org/1999/xlink">
    <!-- Generator: Sketch 51.2 (57519) - http://www.bohemiancoding.com/sketch -->
    <title>Group 13</title>
    <desc>Created with Sketch.</desc>
    <defs></defs>
    <g id="Symbols" stroke="none" stroke-width="1" fill="none" fill-rule="evenodd">
        <g id="Customer-Support" transform="translate(-44.000000, -44.000000)">
            <g>
                <path d="M4,1.41701245 C2.06700338,1.41701245 0.5,2.98401582 0.5,4.91701245 L0.5,186.917012 C0.5,188.850009 2.06700338,190.417012 4,190.417012 L486,190.417012 C487.932997,190.417012 489.5,188.850009 489.5,186.917012 L489.5,4.91701245 C489.5,2.98401582 487.932997,1.41701245 486,1.41701245 L4,1.41701245 Z" id="Rectangle-26" stroke="#CECECE"></path>
                <g id="conversation" transform="translate(50.000000, 49.000000)">
                    <path d="M6.01953551,42.5186469 C-1.65731685,30.0435568 2.22755037,13.7033645 14.6984876,6.02218391 C27.1694248,-1.65899665 43.5043813,2.22696014 51.1832562,14.7020502 C53.8254949,18.9935821 55.1893213,23.9502819 55.1172872,28.9902444 C54.6436974,43.6574008 42.5478669,55.2608002 27.8796538,55.1187089 L3.40576821,55.1187089 L5.98172923,50.7418911 C7.51591728,48.218019 7.52929728,45.0555919 6.01953551,42.5186469 Z" id="Shape" stroke="#003945" fill="#FFFFFF" fill-rule="nonzero"></path>
                    <path d="M72.0397269,63.5074646 C79.6069724,51.2150387 75.7681899,35.120563 63.4656431,27.5595429 C60.3516861,25.6464066 56.8716339,24.4052213 53.2476599,23.92 C53.4307075,25.2004323 53.5166309,26.4900631 53.5091126,27.7835266 C53.0420575,42.231776 41.1131241,53.6619951 26.6473016,53.5220245 L23.92,53.5220245 C26.0532025,66.5014255 37.3191445,76.0016443 50.4829203,75.919471 L74.6174297,75.919471 L72.0770116,71.6079771 C70.5658333,69.1217738 70.5509502,66.0066991 72.0397269,63.5074646 Z" id="Shape" fill="#05C0A5" fill-rule="nonzero"></path>
                    <g id="Group" fill="#003945" fill-rule="nonzero" stroke="#003945">
                        <path d="M73.8705703,70.9119023 C72.7336289,69.0293906 72.7336289,66.6738516 73.8705703,64.7913398 C81.919957,51.7044023 77.8377539,34.5687773 64.7509687,26.5193906 C61.8576562,24.7387969 58.6619414,23.5035938 55.3234805,22.8748711 C54.2477812,17.0436094 51.3358828,11.7076172 47.0143477,7.64765625 C41.3037422,2.18369531 33.5230898,-0.565042969 25.6479844,0.0990234375 C10.3299727,1.29903516 -1.11363281,14.6882227 0.0863789062,30.0062344 C0.433265625,34.4446172 1.84092187,38.7344648 4.19082422,42.5162461 C5.32776562,44.3987578 5.32776562,46.7542969 4.19082422,48.6368086 L1.61271094,52.9397578 C1.08971484,53.8207617 1.38084375,54.9595313 2.26184766,55.4806992 C2.54749219,55.6494961 2.87396484,55.740293 3.20775,55.740293 L22.9419023,55.740293 C25.8538008,68.7621797 37.4197383,78.0135586 50.7626133,77.9968008 L74.7997148,77.9968008 C75.8234648,77.9968008 76.6545,77.165918 76.6545,76.1420156 C76.6545,75.8100586 76.5655312,75.4817578 76.3949062,75.1961133 L73.8705703,70.9119023 Z M6.45175781,52.0310273 L7.34205469,50.5287656 C9.19303125,47.4666563 9.19303125,43.6310977 7.34205469,40.5689883 C0.362730469,29.2273008 3.89969531,14.3765273 15.2394023,7.39735547 C26.5791094,0.418183594 41.4317109,3.95316797 48.4110352,15.2947031 C50.8110586,19.193332 52.049918,23.6946328 51.9850195,28.2721055 C51.5416992,41.6186367 40.5228281,52.1701172 27.1689844,52.0310273 L6.45175781,52.0310273 Z M50.8351289,74.2875352 C39.5009062,74.3524336 29.5690078,66.7128516 26.7238359,55.7404453 L27.1689844,55.7404453 C42.544582,55.8684141 55.2122695,43.6978242 55.6944375,28.3277109 C55.6944375,27.7897852 55.6944375,27.2520117 55.6944375,26.7140859 C68.6588906,29.7576094 76.7009648,42.7331836 73.6572891,55.6976367 C73.0655859,58.2163359 72.0733711,60.6218438 70.7175117,62.8253438 C68.8665352,65.8874531 68.8665352,69.7230117 70.7175117,72.7851211 L71.6078086,74.2873828 L50.8351289,74.2873828 L50.8351289,74.2875352 Z" id="Shape"></path>
                    </g>
                    <circle id="Oval-6" fill="#003945" cx="14.56" cy="28.08" r="4.16"></circle>
                    <circle id="Oval-6" fill="#003945" cx="27.04" cy="28.08" r="4.16"></circle>
                    <circle id="Oval-6" fill="#003945" cx="39.52" cy="28.08" r="4.16"></circle>
                </g>
            </g>
        </g>
    </g>
</svg>