<?xml version="1.0" encoding="UTF-8"?>
<svg width="90px" height="90px" viewBox="0 0 90 90" version="1.1" xmlns="http://www.w3.org/2000/svg" xmlns:xlink="http://www.w3.org/1999/xlink">
    <!-- Generator: Sketch 51.2 (57519) - http://www.bohemiancoding.com/sketch -->
    <title>Group 13</title>
    <desc>Created with Sketch.</desc>
    <defs></defs>
    <g id="Desktop" stroke="none" stroke-width="1" fill="none" fill-rule="evenodd">
        <g id="FAQs-2" transform="translate(-1018.000000, -633.000000)">
            <g id="Group-13" transform="translate(216.000000, 602.000000)">
                <g id="Group-2-Copy-6" transform="translate(686.000000, 0.000000)">
                    <g id="Group-18" transform="translate(126.000000, 38.000000)">
                        <rect id="Rectangle-6" fill="#FFFFFF" x="5" y="47" width="59" height="11"></rect>
                        <g id="swap-icon" transform="translate(0.535270, 0.783133)">
                            <path d="M62.2055841,11.7283985 C66.830644,11.7283985 70.593361,15.4657558 70.593361,20.0601346 C70.593361,24.6545134 66.830644,28.3920125 62.2055841,28.3920125 L15.6780589,28.3920125 L22.3298673,34.999491 C23.509269,36.1710328 23.509269,38.0702129 22.3298673,39.2417547 C21.7403093,39.8276674 20.9672285,40.1204819 20.1945761,40.1204819 C19.4219237,40.1204819 18.6489857,39.8275256 18.0592849,39.2417547 L0.884551268,22.1813373 C-0.294850423,21.0097956 -0.294850423,19.1106154 0.884551268,17.9390737 L6.23670413,12.6228731 C6.24655867,12.6128005 6.25655602,12.6030116 6.26655337,12.5932228 L18.0594277,0.878656323 C19.2386866,-0.292885441 21.1510369,-0.292885441 22.3301529,0.878656323 C23.5095546,2.05019809 23.5095546,3.94937823 22.3301529,5.12091999 L15.6783445,11.7283985 L62.2055841,11.7283985 Z" id="Shape" fill="#003945" fill-rule="nonzero"></path>
                            <path d="M61.5853629,22.7349398 L9.00814095,22.7349398 L6.65975104,20.0600783 L9.00785526,17.3855422 L61.58522,17.3855422 C62.8802628,17.3855422 63.93361,18.5853249 63.93361,20.0600783 C63.93361,21.5349943 62.8802628,22.7349398 61.5853629,22.7349398 Z" id="Path" fill="#05C0A5"></path>
                            <path d="M69.708741,50.0354592 L52.5339167,32.9750419 C51.3548042,31.8035001 49.4426025,31.8035001 48.2632044,32.9750419 C47.0838063,34.1465836 47.0838063,36.0457638 48.2632044,37.2173055 L54.9149926,43.8247841 L8.38746577,43.8247841 C3.76256276,43.8247841 0,47.5622832 0,52.156662 C0,56.7508989 3.76256276,60.4882562 8.38746577,60.4882562 L54.9149926,60.4882562 L48.2632044,67.0958765 C47.0838063,68.2674183 47.0838063,70.1665984 48.2632044,71.3381402 C48.8529035,71.9239111 49.6258391,72.2168675 50.3984891,72.2168675 C51.1711391,72.2168675 51.9442176,71.924053 52.5337738,71.3381402 L64.3267552,59.6237156 C64.3334201,59.6171897 66.1273202,57.8351449 69.7084554,54.277581 C70.8882819,53.1061811 70.8882819,51.207001 69.708741,50.0354592 Z M60.9550877,54.488538 L8.38746577,54.488538 C7.09295566,54.488538 6.03980941,53.4424071 6.03980941,52.1565201 C6.03980941,50.8706331 7.09295566,49.8242185 8.38746577,49.8242185 L60.954802,49.8242185 L63.302744,52.1565201 L60.9550877,54.488538 Z" id="Shape" fill="#003945" fill-rule="nonzero"></path>
                        </g>
                    </g>
                </g>
            </g>
        </g>
    </g>
</svg>