<?xml version="1.0" encoding="UTF-8"?>
<svg width="90px" height="90px" viewBox="0 0 90 90" version="1.1" xmlns="http://www.w3.org/2000/svg" xmlns:xlink="http://www.w3.org/1999/xlink">
    <!-- Generator: Sketch 51.2 (57519) - http://www.bohemiancoding.com/sketch -->
    <title>Group 13</title>
    <desc>Created with Sketch.</desc>
    <defs></defs>
    <g id="Symbols" stroke="none" stroke-width="1" fill="none" fill-rule="evenodd">
        <g id="Community" transform="translate(-51.000000, -44.000000)">
            <g>
                <g id="Group-16" stroke="#CECECE">
                    <g id="Group-12" transform="translate(0.526971, 0.371578)">
                        <rect id="Rectangle-26" x="0.5" y="0.5" width="489" height="189" rx="4"></rect>
                    </g>
                </g>
                <g id="Group-14" transform="translate(54.000000, 47.000000)">
                    <g id="Group-13" transform="translate(7.000000, 13.000000)" fill="#05C0A5">
                        <circle id="Oval-4" cx="53" cy="32" r="5"></circle>
                        <circle id="Oval-4" cx="59" cy="34" r="5"></circle>
                        <circle id="Oval-4" cx="63" cy="39" r="5"></circle>
                        <circle id="Oval-4" cx="59" cy="39" r="5"></circle>
                        <circle id="Oval-4" cx="53.5" cy="43.5" r="3.5"></circle>
                        <circle id="Oval-4" cx="48.5" cy="58.5" r="7.5"></circle>
                        <circle id="Oval-4" cx="41" cy="57" r="5"></circle>
                        <circle id="Oval-4" cx="50.5" cy="49.5" r="2.5"></circle>
                        <circle id="Oval-4" cx="7" cy="37" r="7"></circle>
                        <circle id="Oval-4" cx="14" cy="31" r="5"></circle>
                        <circle id="Oval-4" cx="27" cy="58" r="5"></circle>
                        <circle id="Oval-4" cx="19" cy="60" r="7"></circle>
                        <circle id="Oval-4" cx="17" cy="50" r="5"></circle>
                        <circle id="Oval-4" cx="12.5" cy="42.5" r="4.5"></circle>
                        <circle id="Oval-4" cx="20" cy="14" r="7"></circle>
                        <circle id="Oval-4" cx="48" cy="14" r="7"></circle>
                        <circle id="Oval-4" cx="47" cy="7" r="7"></circle>
                        <circle id="Oval-4" cx="21" cy="7" r="7"></circle>
                        <circle id="Oval-4" cx="29.5" cy="9.5" r="3.5"></circle>
                        <circle id="Oval-4" cx="38.5" cy="9.5" r="3.5"></circle>
                    </g>
                    <g id="meeting" fill="#003945" fill-rule="nonzero">
                        <path d="M76.8348738,55.4039004 C78.2427427,49.9835637 75.6810142,44.0427183 70.2737398,41.522976 L61.558895,37.4617274 C61.0547224,37.2267778 60.5366075,37.0574924 60.0143257,36.9461836 C61.6143443,35.6231307 62.6356703,33.6243776 62.6356703,31.3917959 L62.6356703,21.7820853 C62.6356703,15.910908 58.3978005,11.0134823 52.8192101,9.97566817 C51.8033329,4.39629604 46.933084,0 41.0000022,0 C35.0718884,0 30.1976331,4.39197181 29.1807943,9.97566817 C23.6022039,11.0133222 19.3643341,15.9107479 19.3643341,21.7820853 L19.3643341,31.3917959 C19.3643341,33.6243776 20.3854998,35.6231307 21.9856787,36.9461836 C21.4632367,37.0574924 20.945282,37.2266176 20.4409492,37.4615672 L11.7261043,41.5228159 C6.3178684,44.0431988 3.75726172,49.9843644 5.16497038,55.4037402 C0.466358087,58.71914 -1.37228507,64.9564351 1.10098085,70.2568146 C3.57665064,75.5623191 9.5831307,78.3788313 15.1487403,76.9665713 C18.4470158,81.5899693 24.6873126,83.3571361 30.0134963,80.8751908 L38.7283412,76.8139421 C39.6136079,76.401379 40.3770783,75.8172882 41.0001625,75.1177246 C41.6230864,75.8172882 42.3865568,76.401379 43.2718235,76.8139421 L51.9866683,80.8751908 C57.3149354,83.3582572 63.554431,81.5877271 66.8512642,76.9665713 C72.3551743,78.3634563 78.3956291,75.6222176 80.8990236,70.2568146 C83.3722895,64.9565952 81.5336463,58.71914 76.8348738,55.4039004 Z M59.5273009,41.816703 L68.2419855,45.8776314 C71.1860902,47.249532 72.7683201,50.3679393 72.3333792,53.427409 C67.0546319,52.3008681 61.4021624,54.8667355 58.9571019,60.0923219 L63.0154824,51.3947026 C63.5765466,50.1922476 63.0558675,48.7626906 61.8528086,48.2019827 L57.4953862,46.1713584 C56.2940902,45.6116114 55.7724495,44.1793318 56.3327124,42.9786385 C56.8939369,41.7755428 58.3231202,41.2551943 59.5273009,41.816703 Z M41.0000022,4.80485528 C44.9093425,4.80485528 48.211945,8.17871219 48.211945,12.1723748 C48.211945,16.1464983 44.976651,19.3797378 41.0000022,19.3797378 C37.0233534,19.3797378 33.7880594,16.1464983 33.7880594,12.1723748 C33.7882197,8.17871219 37.0908222,4.80485528 41.0000022,4.80485528 Z M24.1724028,21.7820853 C24.1724028,18.5345919 26.3333254,15.782943 29.2931354,14.8849455 C30.5272844,20.2056649 35.3058655,24.184593 41.0001625,24.184593 C46.6944594,24.184593 51.4728803,20.2056649 52.7071895,14.8849455 C55.6671598,15.782943 57.8279221,18.5347521 57.8279221,21.7820853 L57.8279221,31.3917959 C57.8279221,32.7164503 56.7495442,33.7943036 55.424048,33.7943036 C54.0985519,33.7943036 53.0200137,32.7166105 53.0200137,31.3917959 L53.0200137,26.5869406 C53.0200137,25.2602041 51.9437191,24.1844329 50.6161396,24.1844329 L41.0000022,24.1844329 L31.3841853,24.1844329 C30.0566058,24.1844329 28.9803112,25.260044 28.9803112,26.5869406 L28.9803112,31.3917959 C28.9803112,32.7164503 27.9019333,33.7943036 26.5762769,33.7943036 C25.2506205,33.7943036 24.1722426,32.7166105 24.1722426,31.3917959 L24.1722426,21.7820853 L24.1724028,21.7820853 Z M13.758019,45.8776314 L22.4728638,41.8163827 C23.6770445,41.2553545 25.1060675,41.7749022 25.6676125,42.9783182 C26.2291575,44.181574 25.7091194,45.6100098 24.5049387,46.1710381 L20.1475163,48.2016624 C18.9442972,48.7623703 18.4237783,50.1917671 18.9848425,51.3943823 L23.0453064,60.0964859 C20.6018485,54.8686573 14.9479366,52.3000673 9.66694578,53.4270886 C9.23168431,50.3679393 10.8140745,47.249532 13.758019,45.8776314 Z M15.202587,71.8724734 C11.5919681,73.5550776 7.14608315,71.8436452 5.45824302,68.2261902 C3.79364034,64.6582236 5.43035808,60.361545 9.10700337,58.6483508 C12.7257954,56.9619028 17.0099798,58.5315967 18.6909289,62.1344775 C20.3763651,65.7463269 18.7789106,70.2058848 15.202587,71.8724734 Z M36.6965868,72.4592868 L27.9817419,76.5205354 C25.0357141,77.893397 21.6258989,77.0982199 19.5608108,74.7953296 C21.3220492,73.4115774 22.6706225,71.5462346 23.454606,69.3564147 C24.5488495,66.2996677 24.4057389,63.0162992 23.0517167,60.1104196 L27.1125011,68.813324 C27.6730845,70.0146579 29.1037101,70.5361275 30.3072497,69.9752594 L34.6646722,67.9446351 C35.8688528,67.3836069 37.2978759,67.9031546 37.8594208,69.1065705 C38.4331455,70.3364123 37.8898699,71.9032234 36.6965868,72.4592868 Z M41.0000022,65.252084 C38.9717735,63.0340765 35.6109973,62.2017432 32.632437,63.5898196 L30.4537258,64.6050517 L24.3579819,51.5410857 L26.5366931,50.5258536 C30.1407414,48.8464525 31.7055032,44.5497738 30.0250349,40.947854 C29.5570808,39.944954 28.8855986,39.1006089 28.0831854,38.439643 C31.3388322,37.7452044 33.7882197,34.8494147 33.7882197,31.3917959 L33.7882197,28.9892882 L48.211945,28.9892882 L48.211945,31.3917959 C48.211945,34.8494147 50.6614927,37.7450442 53.9169792,38.439643 C53.1144058,39.1004487 52.4430839,39.9447938 51.9751298,40.947854 C50.2946615,44.5497738 51.8594233,48.8462923 55.4634716,50.5258536 L57.642343,51.5410857 L51.5465991,64.6050517 L49.3678879,63.5898196 C46.3896482,62.2022237 43.0287117,63.0335961 41.0000022,65.252084 Z M54.018583,76.5206956 L45.3037381,72.459447 C44.110455,71.9033836 43.5671795,70.3367327 44.1410644,69.1065705 C44.7013273,67.9058772 46.134517,67.384728 47.335813,67.9446351 L51.6932355,69.9752594 C52.895493,70.5354869 54.3270802,70.0156189 54.8879841,68.813324 L58.9471659,60.1141032 C57.5949066,63.0193421 57.4521165,66.3009489 58.5458792,69.3564147 C59.3298627,71.5462346 60.6782758,73.4115774 62.4396744,74.7953296 C60.3744261,77.0983801 56.9647711,77.8935571 54.018583,76.5206956 Z M76.5416011,68.2261902 C74.8548828,71.8410827 70.4099594,73.5561987 66.7972571,71.8724734 C63.2210938,70.2060449 61.6236393,65.7464871 63.3089153,62.1343173 C64.9935503,58.5234288 69.2801386,56.9647857 72.8928408,58.6481907 C76.5698066,60.361545 78.2066846,64.6582236 76.5416011,68.2261902 Z" id="Shape"></path>
                    </g>
                </g>
            </g>
        </g>
    </g>
</svg>