<?xml version="1.0" encoding="UTF-8"?>
<svg width="90px" height="90px" viewBox="0 0 90 90" version="1.1" xmlns="http://www.w3.org/2000/svg" xmlns:xlink="http://www.w3.org/1999/xlink">
    <!-- Generator: Sketch 51.2 (57519) - http://www.bohemiancoding.com/sketch -->
    <title>Group 13</title>
    <desc>Created with Sketch.</desc>
    <defs></defs>
    <g id="Desktop" stroke="none" stroke-width="1" fill="none" fill-rule="evenodd">
        <g id="FAQs-2" transform="translate(-676.000000, -1271.000000)">
            <g id="Group-13-Copy-3" transform="translate(217.000000, 1238.000000)">
                <g id="Group-2-Copy-5" transform="translate(343.000000, 0.000000)">
                    <g id="studying" transform="translate(122.000000, 40.000000)">
                        <polygon id="Path-3" fill="#FFFFFF" points="8.62740966 29.8178688 38.5734532 36.7062698 69.584352 29.2835404 69.584352 41.0662205 64.186157 44.7723052 64.186157 55.6185378 68.9119008 59.4027655 69.584352 64.1770846 69.584352 68.9171899 39.1058808 74.8167666 7.98959475 68.3342862 7.98959475 58.2162608 12.5337092 57.0458071 14.3681662 52.0501535 13.8165197 43.7682747 8.62740966 41.984505 7.98959475 34.5757146"></polygon>
                        <polygon id="Path" fill="#FFFFFF" points="24.9939092 18.9154578 26.4144201 10.0734846 30.3883027 5.2962087 34.6726448 3.25182183 40.3694724 3.25182183 47.1404479 5.2962087 50.3637364 7.48083036 52.833474 12.8093304 52.833474 17.3770989 53.3462603 32.7007077 39.3536149 36.3476573 24.9939092 32.7007077"></polygon>
                        <rect id="Rectangle-7" fill="#05C0A5" x="4" y="42" width="10" height="16"></rect>
                        <rect id="Rectangle-7" fill="#05C0A5" x="64" y="42" width="10" height="16"></rect>
                        <path d="M73.125,39.9450173 L73.125,26.2448364 L56.0625,30.1902345 L56.0625,17.1007963 C56.0625,7.65627082 48.423375,0 39,0 C29.576625,0 21.9375,7.65627082 21.9375,17.1007963 L21.9375,30.1902345 L4.875,26.2448364 L4.875,39.9450173 C1.90825781,41.3553749 0.0124921875,44.3470982 0,47.6379327 L0,52.5238745 C0.0124921875,55.814709 1.90825781,58.8064322 4.875,60.2167899 L4.875,70.4210793 L29.654625,75.1970875 L30.8093022,70.4210793 L9.75,66.3852914 L9.75,60.9496811 C13.9367109,60.3503898 17.0504648,56.7625817 17.0625,52.5238745 L17.0625,47.6379327 C17.0504648,43.3992255 13.9367109,39.8114173 9.75,39.212126 L9.75,32.3864653 L36.5625,38.5989403 L36.5625,65.6664472 L41.4375,65.6664472 L41.4375,38.5989403 L68.25,32.3962372 L68.25,39.2218979 C64.0669453,39.8205785 60.9542578,43.4028899 60.9375,47.6379327 L60.9375,52.5238745 C60.9495352,56.7625817 64.0632891,60.3503898 68.25,60.9496811 L68.25,66.3852914 L41.4375,71.5521749 L41.4375,61.0742727 L36.5625,61.0742727 L36.5625,71.5521749 L30.5735625,70.3990926 L29.654625,75.1970875 L39,77 L73.125,70.4210793 L73.125,60.2167899 C76.0917422,58.8064322 77.9875078,55.814709 78,52.5238745 L78,47.6379327 C77.9875078,44.3470982 76.0917422,41.3553749 73.125,39.9450173 Z M12.1875,47.6379327 L12.1875,52.5238745 C12.1875,54.5477232 10.5505664,56.1883308 8.53125,56.1883308 C6.51193359,56.1883308 4.875,54.5477232 4.875,52.5238745 L4.875,47.6379327 C4.875,45.614084 6.51193359,43.9734763 8.53125,43.9734763 C10.5505664,43.9734763 12.1875,45.614084 12.1875,47.6379327 Z M39,4.88594181 C45.0995391,4.90502752 50.2420547,9.44803729 51.026625,15.5104223 L44.15775,12.0682763 L26.8831875,16.3972207 C27.2457656,9.95083124 32.5578398,4.90411141 39,4.88594181 Z M51.1875,31.318887 L39,34.1380754 L26.8125,31.318887 L26.8125,21.4517275 L43.59225,17.2473746 L51.1875,21.0535233 L51.1875,31.318887 Z M73.125,52.5238745 C73.125,54.5477232 71.4880664,56.1883308 69.46875,56.1883308 C67.4494336,56.1883308 65.8125,54.5477232 65.8125,52.5238745 L65.8125,47.6379327 C65.8125,45.614084 67.4494336,43.9734763 69.46875,43.9734763 C71.4880664,43.9734763 73.125,45.614084 73.125,47.6379327 L73.125,52.5238745 Z" id="Shape" fill="#003945" fill-rule="nonzero"></path>
                    </g>
                </g>
            </g>
        </g>
    </g>
</svg>