<?xml version="1.0" encoding="UTF-8"?>
<svg width="90px" height="90px" viewBox="0 0 90 90" version="1.1" xmlns="http://www.w3.org/2000/svg" xmlns:xlink="http://www.w3.org/1999/xlink">
    <!-- Generator: Sketch 51.2 (57519) - http://www.bohemiancoding.com/sketch -->
    <title>Group 13</title>
    <desc>Created with Sketch.</desc>
    <defs></defs>
    <g id="Desktop" stroke="none" stroke-width="1" fill="none" fill-rule="evenodd">
        <g id="FAQs-2" transform="translate(-336.000000, -633.000000)">
            <g id="Group-13" transform="translate(216.000000, 602.000000)">
                <g id="getting-start"></g>
                <g id="Group-17" transform="translate(130.000000, 40.000000)">
                    <polygon id="Path-5" fill="#FFFFFF" points="4.77416391 34.8749532 14.958481 33.6471636 21.522795 38.921577 30.6010349 47.417605 36.4570329 54.4499471 37.4897062 62.5984046 36.4570329 66.9580928 42.547045 65.443589 49.0379551 56.6677479 49.0379551 46.5398954 51.2626572 42.0308899 64.1208829 28.8407782 67.9899572 10.9114113 67.9899572 4.16703819 66.3876196 2.75667998 49.0379551 6.08494968 38.5744524 11.6774466 31.6299439 20.6138978 26.0261541 23.6585901 20.7366834 22.6252894 11.8523051 25.1555273 8.278101 28.8407782"></polygon>
                    <g id="Group-7">
                        <polygon id="Path-10" fill="#05C0A5" points="15.9340904 50.2724612 20.849569 50.2724612 21.8433518 55.4684758 19.4858039 59.5063356 11.8840333 60.7696188 11.8840333 55.4684758"></polygon>
                        <g id="Rocket" fill="#003945" fill-rule="nonzero">
                            <g id="Layer_1">
                                <path d="M71.703638,3.05808435 C71.5473656,1.49536033 70.3753226,0.323317323 68.8125986,0.167044922 C49.0441398,-1.39567909 34.9014875,8.2150736 26.0720968,20.2480485 C21.2276523,18.6853245 15.9925269,19.2322779 11.2262186,21.8889087 C6.6161828,24.4674033 2.78750896,28.8430306 0.287150538,34.1562922 C-0.259802867,35.4064714 -0.0253942652,36.8129231 0.990376344,37.7505575 C1.92801075,38.6881919 3.41259857,38.8444643 4.58464158,38.2193747 C9.58535842,35.5627438 15.2111649,36.1096973 18.5710215,39.4695539 L32.3229928,53.2215252 C35.7609857,56.659518 36.3079391,62.2853245 33.6513082,67.2860413 C33.0262186,68.4580843 33.2606272,69.9426722 34.1201254,70.8803066 C34.7452151,71.5053962 35.5265771,71.817941 36.3860753,71.817941 C36.8548925,71.817941 37.3237097,71.7398048 37.7143907,71.5053962 C43.0276523,69.0050378 47.4032796,65.0982277 49.9817742,60.5663281 C52.7165412,55.8000198 53.2634946,50.5648944 51.6226344,45.6423137 C55.1387634,43.0638191 58.3423477,40.2509159 60.9989785,37.1254679 C69.2814158,27.6709876 72.875681,16.1849661 71.703638,3.05808435 Z M10.5229928,30.3276184 C13.8828495,27.045898 18.1022043,25.0143567 22.5559677,25.7957188 C21.3057885,27.9835324 20.2900179,30.171346 19.3523835,32.3591596 C16.6957527,30.8745718 13.6484409,30.171346 10.5229928,30.3276184 Z M41.6993369,61.4258263 C41.7774731,58.2222421 41.0742473,55.1749302 39.6677957,52.5182994 C41.9337455,51.580665 44.1215591,50.4867582 46.2312366,49.3147152 C47.0125986,53.7684786 45.0591935,58.0659697 41.6993369,61.4258263 Z M35.4484409,47.4394464 L24.4312366,36.4222421 C29.9789068,21.6545001 43.7308781,5.87098757 65.6871505,6.26166858 C66.3903763,32.4372958 44.8247849,43.7670449 35.4484409,47.4394464 Z M55.6857168,16.2631023 C56.6233513,17.2007367 57.1703047,18.5290521 57.1703047,19.8573675 C57.1703047,21.1856829 56.6233513,22.5139983 55.6857168,23.4516327 C54.7480824,24.3892671 53.419767,24.9362205 52.0914516,24.9362205 C50.7631362,24.9362205 49.4348208,24.4674033 48.4971864,23.4516327 C47.559552,22.4358621 47.0125986,21.1856829 47.0125986,19.8573675 C47.0125986,18.5290521 47.559552,17.2007367 48.4971864,16.2631023 C49.4348208,15.3254679 50.7631362,14.7785145 52.0914516,14.7785145 C53.419767,14.7785145 54.7480824,15.3254679 55.6857168,16.2631023 Z M7.94449821,60.9570091 C7.94449821,62.6760055 9.35094982,64.0824571 11.0699462,64.0824571 L11.1480824,64.0824571 C12.7889427,64.0824571 19.6649283,63.8480485 23.1810573,60.3319195 C25.368871,58.1441059 25.8376882,55.878156 25.8376882,54.3935682 C25.8376882,52.2838908 24.97819,50.2523496 23.3373297,48.6114894 C19.4305197,44.6265431 14.5079391,45.8767223 11.6950358,48.7677618 C8.10077061,52.362027 7.94449821,59.5505575 7.94449821,60.9570091 Z M18.8054301,55.878156 C18.0240681,56.659518 16.3050717,57.2064714 14.5079391,57.44088 C14.8204839,55.6437474 15.3674373,53.924751 16.0706631,53.2215252 C16.6176165,52.6745718 17.0864337,52.362027 17.6333871,52.362027 C18.0240681,52.362027 18.4928853,52.5964356 18.9617025,53.0652528 C19.4305197,53.53407 19.6649283,54.0028872 19.6649283,54.3935682 C19.5867921,54.8623854 19.1961111,55.487475 18.8054301,55.878156 Z" id="XMLID_2180_"></path>
                            </g>
                        </g>
                    </g>
                </g>
            </g>
        </g>
    </g>
</svg>