<?xml version="1.0" encoding="UTF-8"?>
<svg width="33px" height="33px" viewBox="0 0 33 33" version="1.1" xmlns="http://www.w3.org/2000/svg" xmlns:xlink="http://www.w3.org/1999/xlink">
    <!-- Generator: Sketch 51.2 (57519) - http://www.bohemiancoding.com/sketch -->
    <title>Group</title>
    <desc>Created with Sketch.</desc>
    <defs></defs>
    <g id="Symbols" stroke="none" stroke-width="1" fill="none" fill-rule="evenodd">
        <g id="Community" transform="translate(-283.000000, -126.000000)">
            <g id="Group-16" stroke="#CECECE">
                <g>
                    <g id="Group-12" transform="translate(0.526971, 0.371578)">
                        <rect id="Rectangle-26" x="0.5" y="0.5" width="489" height="189" rx="4"></rect>
                    </g>
                </g>
            </g>
            <g id="Group" transform="translate(134.000000, 126.000000)" stroke="#003945" stroke-width="2">
                <g id="Github" transform="translate(154.000000, 5.000000)">
                    <path d="M7.98980611,20.6817143 C2.28280175,22.3938156 2.28280175,17.8282121 0,17.2575117 M15.9796122,24.1059169 L15.9796122,19.6886955 C16.0662253,18.5876972 15.6754188,17.5025854 14.9066954,16.7096393 C18.4906941,16.310149 22.257317,14.9518819 22.257317,8.71983316 C22.2570241,7.12624009 21.6440333,5.5937631 20.5452157,4.43957989 C21.06553,3.04536619 21.0287405,1.50429562 20.4424896,0.1364986 C20.4424896,0.1364986 19.0956366,-0.262991706 15.9796122,1.82577189 C13.3635318,1.11675849 10.6058866,1.11675849 7.98980611,1.82577189 C4.87378173,-0.262991706 3.5269287,0.1364986 3.5269287,0.1364986 C2.94067781,1.50429562 2.90388833,3.04536619 3.42420262,4.43957989 C2.31718886,5.60232459 1.70356666,7.14865254 1.71210131,8.75407519 C1.71210131,14.9404679 5.47872419,16.298735 9.06272293,16.7438813 C8.30325714,17.5286669 7.91318544,18.5992893 7.98980611,19.6886955 L7.98980611,24.1059169" id="Shape"></path>
                </g>
            </g>
        </g>
    </g>
</svg>