<?xml version="1.0" encoding="UTF-8"?>
<svg width="90px" height="90px" viewBox="0 0 90 90" version="1.1" xmlns="http://www.w3.org/2000/svg" xmlns:xlink="http://www.w3.org/1999/xlink">
    <!-- Generator: Sketch 51.2 (57519) - http://www.bohemiancoding.com/sketch -->
    <title>Group 13</title>
    <desc>Created with Sketch.</desc>
    <defs></defs>
    <g id="Desktop" stroke="none" stroke-width="1" fill="none" fill-rule="evenodd">
        <g id="FAQs-2" transform="translate(-327.000000, -1269.000000)">
            <g id="Group-13-Copy-3" transform="translate(217.000000, 1238.000000)">
                <g id="getting-start">
                    <g id="Group-11" transform="translate(114.000000, 38.000000)">
                        <circle id="Oval-7" fill="#FFFFFF" cx="43" cy="41" r="15"></circle>
                        <circle id="Oval-8" fill="#05C0A5" cx="42.5" cy="8.5" r="5.5"></circle>
                        <circle id="Oval-8" fill="#05C0A5" cx="72.5" cy="23.5" r="5.5"></circle>
                        <circle id="Oval-8" fill="#05C0A5" cx="67.5" cy="65.5" r="5.5"></circle>
                        <circle id="Oval-8" fill="#05C0A5" cx="17.5" cy="65.5" r="5.5"></circle>
                        <circle id="Oval-8" fill="#05C0A5" cx="7.5" cy="31.5" r="5.5"></circle>
                        <g id="network-(1)" fill="#003945" fill-rule="nonzero">
                            <path d="M80.0209653,20.410948 C78.9832717,18.4623335 77.2529499,17.0371042 75.1486588,16.3971321 C73.0443676,15.7568013 70.8180368,15.9792131 68.8800336,17.0223963 C66.9420303,18.0659382 65.5239443,19.8054139 64.88734,21.9208373 C64.4630561,23.3299238 64.4284425,24.7921022 64.7531678,26.1879157 L55.8660436,30.9719222 C53.1629733,27.156842 48.9493953,24.4990208 44.1081339,23.8866708 L44.1081339,16.2626088 C47.6115985,15.3126951 50.1976249,12.0920285 50.1976249,8.27407845 C50.1976249,3.7117663 46.5053915,0 41.9670881,0 C37.4287848,0 33.7361945,3.7117663 33.7361945,8.27443718 C33.7361945,12.0923872 36.3225778,15.3130538 39.8256855,16.2629676 L39.8256855,23.8863121 C33.6423453,24.6686995 28.4799271,28.7879816 26.1861534,34.3913246 L16.4597393,31.7568207 C16.4618803,30.3229819 16.0986162,28.9067208 15.3678059,27.6307227 C14.2712336,25.7151112 12.4980909,24.3433325 10.3756008,23.7682903 C5.99216645,22.5808982 1.46777988,25.1999767 0.286993137,29.6051657 C-0.285022926,31.739243 0.00401825358,33.9694596 1.10059053,35.8847123 C2.19716281,37.7999651 3.97030556,39.1721025 6.0927956,39.7471447 C6.80540701,39.9401408 7.5283668,40.0355626 8.24740134,40.0355626 C9.66941258,40.0355626 11.0735818,39.6614085 12.3396535,38.9292432 C13.6089368,38.1949254 14.6309293,37.1542534 15.3456818,35.9134106 L25.0724527,38.5482733 C24.9675415,39.3163115 24.9086627,40.0986989 24.9086627,40.8954354 C24.9086627,44.8489849 26.2500279,48.4915165 28.4945576,51.3954257 L21.3630909,58.5646197 C18.2178947,56.7480173 14.1284972,57.1802854 11.4436258,59.878643 C8.23455506,63.1046906 8.23455506,68.3539683 11.4436258,71.5803746 C13.0483397,73.1935778 15.1558424,74 17.263702,74 C19.3712047,74 21.4790642,73.1935778 23.0837781,71.5803746 C25.7682926,68.8812996 26.198286,64.7702682 24.3908865,61.6087918 L31.5223531,54.4395978 C34.4109807,56.6960016 38.033987,58.044463 41.9670881,58.044463 C45.9001892,58.044463 49.5231955,56.6960016 52.4118231,54.4395978 L59.5432898,61.6087918 C57.7362471,64.7706269 58.1658836,68.8816583 60.8503982,71.5803746 C62.455112,73.1935778 64.5626147,74 66.6704743,74 C68.7783339,74 70.8858366,73.1932191 72.4905504,71.5803746 C75.6996212,68.354327 75.6996212,63.1050493 72.4905504,59.878643 C69.8060359,57.1799267 65.7162816,56.7480173 62.5714422,58.5646197 L55.4399755,51.3954257 C57.6845052,48.4915165 59.0258704,44.8493436 59.0258704,40.8954354 C59.0258704,38.7355297 58.6226401,36.6692521 57.8943277,34.763685 L66.7750287,29.9832658 C67.7506319,31.0289601 68.9803059,31.8102713 70.382334,32.2367998 C71.1702389,32.4764306 71.9756289,32.5951698 72.77638,32.5951698 C74.11382,32.5951698 75.4387705,32.2637044 76.6509592,31.6111768 C78.5893193,30.5679936 80.0070485,28.828518 80.6436527,26.7130946 C81.280257,24.5976712 81.0586588,22.3592038 80.0209653,20.410948 Z M74.6287415,27.8158267 C73.6991708,28.316612 72.6311458,28.4231545 71.6216427,28.115724 C70.6121396,27.8090109 69.7821275,27.1249152 69.2843344,26.1900681 C68.7861844,25.2555797 68.6805595,24.1815458 68.9860153,23.1667022 C69.2911144,22.1518586 69.9716101,21.3174555 70.9015376,20.817029 C71.4831884,20.5038588 72.1187221,20.3449419 72.7603222,20.3449419 C73.1442831,20.3449419 73.5307418,20.4019798 73.9086364,20.516773 C74.9181395,20.8234861 75.7481516,21.5075818 76.2459447,22.4424289 C76.7440947,23.3769173 76.8497196,24.4505924 76.5442638,25.465436 C76.2391647,26.4809971 75.558669,27.3154001 74.6287415,27.8158267 Z M54.7430651,40.8950767 C54.7430651,47.9770995 49.0114856,53.7390006 41.9667313,53.7390006 C34.921977,53.7390006 29.1903975,47.9770995 29.1903975,40.8950767 C29.1903975,33.8130538 34.921977,28.0511528 41.9667313,28.0511528 C49.0114856,28.0511528 54.7430651,33.8130538 54.7430651,40.8950767 Z M38.018286,8.27443718 C38.018286,6.08547439 39.7896446,4.30510364 41.9667313,4.30510364 C44.143818,4.30510364 45.9151765,6.08583312 45.9151765,8.27443718 C45.9151765,10.4630412 44.143818,12.2437707 41.9667313,12.2437707 C39.7896446,12.2437707 38.018286,10.4630412 38.018286,8.27443718 Z M7.20685309,35.5905548 C6.18842898,35.3146924 5.33807697,34.6564251 4.81209339,33.7377208 C4.28575297,32.8186578 4.14729867,31.7489287 4.42170938,30.7251168 C4.98801598,28.6114871 7.15939324,27.3555777 9.26154336,27.9248803 C10.2799675,28.2007427 11.1303195,28.8586512 11.6566599,29.7777142 C12.1826435,30.6967773 12.3210978,31.7665064 12.0466871,32.7903182 C11.4803805,34.903948 9.30971689,36.1598573 7.20685309,35.5905548 Z M20.0556256,68.5358438 C18.5165706,70.0833996 16.0111902,70.0833996 14.4714214,68.5358438 C12.9320095,66.988288 12.9320095,64.4700122 14.4714214,62.9220977 C15.2411274,62.1483198 16.2524147,61.7616102 17.263702,61.7616102 C18.2746324,61.7616102 19.2859197,62.1486785 20.0556256,62.9220977 C21.5950376,64.4700122 21.5950376,66.988288 20.0556256,68.5358438 Z M69.4620412,62.9220977 C71.0014531,64.4696535 71.0014531,66.9879293 69.4620412,68.5358438 C67.9229861,70.0833996 65.4176057,70.0833996 63.8778369,68.5358438 C62.338425,66.988288 62.338425,64.4700122 63.8778369,62.9220977 C64.6475429,62.1483198 65.6588302,61.7616102 66.6701175,61.7616102 C67.6810479,61.7616102 68.6923352,62.1483198 69.4620412,62.9220977 Z" id="Shape"></path>
                        </g>
                    </g>
                </g>
            </g>
        </g>
    </g>
</svg>