<?xml version="1.0" encoding="UTF-8"?>
<svg width="90px" height="90px" viewBox="0 0 90 90" version="1.1" xmlns="http://www.w3.org/2000/svg" xmlns:xlink="http://www.w3.org/1999/xlink">
    <!-- Generator: Sketch 51.2 (57519) - http://www.bohemiancoding.com/sketch -->
    <title>Group 13</title>
    <desc>Created with Sketch.</desc>
    <defs></defs>
    <g id="Desktop" stroke="none" stroke-width="1" fill="none" fill-rule="evenodd">
        <g id="FAQs-2" transform="translate(-1019.000000, -850.000000)">
            <g id="Group-13-Copy" transform="translate(217.000000, 814.000000)">
                <g id="Group-2-Copy-6" transform="translate(686.000000, 0.000000)">
                    <g id="laptop-signal" transform="translate(116.000000, 48.000000)">
                        <rect id="Rectangle-10" fill="#05C0A5" x="4" y="53" width="83" height="9"></rect>
                        <rect id="Rectangle-10" fill="#FFFFFF" x="10" y="2" width="70" height="47"></rect>
                        <path d="M83.8491689,48.9191146 L83.8491689,8.18276495 C83.8491689,3.67060652 80.1669146,0 75.6412512,0 L14.3594784,0 C9.833815,0 6.15156072,3.67060652 6.15156072,8.18276495 L6.15156072,48.9191146 C2.73962053,49.0424016 0,51.8405435 0,55.271486 L0,59.6356273 C0,63.1447606 2.86401608,66 6.38393599,66 L83.616064,66 C87.1359839,66 90,63.1447606 90,59.6356273 L90,55.271486 C90,51.8409072 87.2607443,49.0424016 83.8491689,48.9191146 Z M14.3594784,5.45517663 L75.6408864,5.45517663 C77.149684,5.45517663 78.3768589,6.67859091 78.3768589,8.18276495 L78.3768589,48.9071132 L11.6235059,48.9071132 L11.6235059,8.18276495 C11.6235059,6.67859091 12.8510455,5.45517663 14.3594784,5.45517663 Z M84.5280549,59.6356273 C84.5280549,60.1284116 84.1103631,60.5448234 83.616064,60.5448234 L6.38393599,60.5448234 C5.88963695,60.5448234 5.47194513,60.1284116 5.47194513,59.6356273 L5.47194513,55.271486 C5.47194513,54.7787017 5.88963695,54.3622899 6.38393599,54.3622899 L83.616064,54.3622899 C84.1103631,54.3622899 84.5280549,54.7787017 84.5280549,55.271486 L84.5280549,59.6356273 Z" id="Shape" fill="#003945" fill-rule="nonzero"></path>
                        <g id="wifi" transform="translate(29.000000, 14.000000)" fill="#003945" fill-rule="nonzero">
                            <g id="Group" transform="translate(0.000000, 5.000000)">
                                <path d="M11.7289796,8.29257642 C9.52816327,8.96724891 7.45142857,10.1593886 5.7077551,11.9017467 L8.75102041,14.9541485 C9.65877551,14.0436681 10.7167347,13.3296943 11.8595918,12.8253275 L11.7289796,8.29257642 Z" id="Shape"></path>
                                <path d="M11.4808163,0 C7.26857143,0.851528384 3.25877551,2.90829694 0,6.1768559 L3.04326531,9.22925764 C5.4922449,6.77292576 8.47020408,5.17467249 11.6114286,4.40174672 L11.4808163,0 Z" id="Shape"></path>
                                <path d="M20.4930612,0 L20.362449,4.40829694 C23.5036735,5.18122271 26.4816327,6.77947598 28.9306122,9.23580786 L31.9738776,6.18340611 C28.7216327,2.90829694 24.7053061,0.851528384 20.4930612,0 Z" id="Shape"></path>
                                <path d="M20.1077551,12.8253275 C21.2506122,13.3296943 22.3085714,14.0436681 23.2228571,14.9606987 L26.2661224,11.9082969 C24.5289796,10.1659389 22.4457143,8.96724891 20.244898,8.29257642 L20.1077551,12.8253275 Z" id="Shape"></path>
                            </g>
                            <circle id="Oval" cx="15.5" cy="23.5" r="2.5"></circle>
                            <path d="M16.5177974,19 L14.4757609,19 C13.9410952,19 13.5030558,18.5584507 13.4901723,18.003169 L13.0005989,1.05704225 C12.9812736,0.481690141 13.4321965,0 13.9861875,0 L17.0138125,0 C17.5678035,0 18.0187264,0.475 17.9994011,1.05704225 L17.503386,18.003169 C17.4905024,18.5584507 17.0524631,19 16.5177974,19 Z" id="Shape"></path>
                        </g>
                    </g>
                </g>
            </g>
        </g>
    </g>
</svg>