<?xml version="1.0" encoding="UTF-8"?>
<svg width="90px" height="90px" viewBox="0 0 90 90" version="1.1" xmlns="http://www.w3.org/2000/svg" xmlns:xlink="http://www.w3.org/1999/xlink">
    <!-- Generator: Sketch 51.2 (57519) - http://www.bohemiancoding.com/sketch -->
    <title>Group 13</title>
    <desc>Created with Sketch.</desc>
    <defs></defs>
    <g id="Desktop" stroke="none" stroke-width="1" fill="none" fill-rule="evenodd">
        <g id="FAQs-2" transform="translate(-332.000000, -1057.000000)" fill="#003945" fill-rule="nonzero" stroke="#003945" stroke-width="1.4">
            <g id="Group-13-Copy-2" transform="translate(216.000000, 1026.000000)">
                <g id="getting-start">
                    <g id="currency" transform="translate(126.000000, 41.000000)">
                        <path d="M68.3997455,9.9008184 C67.2806738,9.63581041 66.1567857,10.320983 65.8899534,11.4308233 L64.803909,15.9446926 C58.3359446,6.04428356 47.2462363,0 35.2290141,0 C25.8190141,0 16.9722656,3.63369342 10.3182479,10.2318737 C3.66450553,16.830054 0,25.6027462 0,34.9341113 C0,36.0752013 0.932743193,37 2.0833283,37 C3.2339134,37 4.16665659,36.0749284 4.16665659,34.9341113 C4.16665659,17.9497195 18.1012454,4.13177743 35.2291517,4.13177743 C45.8033604,4.13177743 55.5637239,9.43957896 61.2722003,18.1380362 L56.6723369,17.0497568 C55.5536781,16.7847488 54.4295148,17.4699213 54.1625449,18.5797617 C53.8954374,19.689602 54.5862564,20.8039456 55.7054656,21.0685442 L65.173676,23.3086941 C65.3361974,23.3471762 65.4987187,23.3655985 65.6589006,23.3655985 C66.6011391,23.3655985 67.4554427,22.7272322 67.6836057,21.7786892 L69.9426662,12.3897374 C70.209636,11.2797606 69.5188171,10.165417 68.3997455,9.9008184 Z" id="Shape"></path>
                        <path d="M67.9165274,33 C66.7659386,33 65.8331925,33.9249352 65.8331925,35.0658887 C65.8331925,52.0504169 51.8985591,65.8682226 34.7707356,65.8682226 C24.196493,65.8682226 14.4360983,60.560421 8.72760363,51.8619638 L13.3274817,52.9502432 C14.4460065,53.2148418 15.5704487,52.5300787 15.8372818,51.4202383 C16.1043901,50.310398 15.413569,49.1960544 14.2943561,48.9314558 L4.82611545,46.6913059 C3.70745306,46.4265709 2.58314851,47.1114705 2.31631539,48.2213108 L0.0573852536,57.6102626 C-0.209723087,58.720103 0.481098071,59.8344465 1.60031092,60.0990451 C1.76283279,60.1375272 1.92535466,60.1559495 2.08553709,60.1559495 C3.02777862,60.1559495 3.88208494,59.5175832 4.11024859,58.5690402 L5.19629651,54.055171 C11.6638688,63.9557164 22.7536126,70 34.7708732,70 C44.1807656,70 53.0276801,66.3663066 59.6815814,59.7681263 C66.3356204,53.1698096 70,44.3972538 70,35.0658887 C69.9998624,33.9249352 69.0672538,33 67.9165274,33 Z" id="Shape"></path>
                        <path d="M36,32.8838708 C33.4017056,32.8838708 31.2877238,30.7972352 31.2877238,28.232552 C31.2878654,25.6680086 33.4017056,23.5813729 36,23.5813729 L42.8561381,23.5813729 C44.0401548,23.5813729 45,22.6339442 45,21.4652437 C45,20.2965432 44.0401548,19.3491145 42.8561381,19.3491145 L38.1438619,19.3491145 L38.1438619,17.1161292 C38.1438619,15.9474287 37.1840167,15 36,15 C34.8159833,15 33.8561381,15.9474287 33.8561381,17.1161292 L33.8561381,19.6057505 C29.9254178,20.5576523 27,24.0634741 27,28.232552 C27,33.1310018 31.0374957,37.1161292 36,37.1161292 C38.5982944,37.1161292 40.7122762,39.2027648 40.7122762,41.767448 C40.7122762,44.3321312 38.5982944,46.4186271 36,46.4186271 L29.1438619,46.4186271 C27.9598452,46.4186271 27,47.3660558 27,48.5347563 C27,49.7034568 27.9598452,50.6508855 29.1438619,50.6508855 L33.8561381,50.6508855 L33.8561381,52.8838708 C33.8561381,54.0525713 34.8159833,55 36,55 C37.1840167,55 38.1438619,54.0525713 38.1438619,52.8838708 L38.1438619,50.3942495 C42.0745822,49.4423477 45,45.9365259 45,41.767448 C45,36.8689982 40.9625043,32.8838708 36,32.8838708 Z" id="Shape"></path>
                    </g>
                </g>
            </g>
        </g>
    </g>
</svg>