<svg xmlns="http://www.w3.org/2000/svg" width="100" height="100" viewBox="0 0 100 100" version="1.1">
	<path d="M 44.275 16.250 C 41.630 19.119, 10 73.995, 10 75.714 C 10 76.735, 16.419 77, 41.107 77 C 69.062 77, 72.152 76.840, 71.607 75.418 C 71.273 74.548, 71 73.648, 71 73.418 C 71 73.188, 58.625 73, 43.500 73 C 28.375 73, 16 72.824, 16 72.608 C 16 72.392, 23.252 59.680, 32.115 44.358 C 40.978 29.036, 48.451 15.938, 48.722 15.250 C 49.543 13.164, 46.485 13.852, 44.275 16.250 M 52.676 17.130 C 50.440 20.600, 23 68.239, 23 68.650 C 23 68.843, 24.012 68.994, 25.250 68.986 C 27.133 68.974, 29.704 65.131, 40.993 45.458 C 52.405 25.571, 54.670 22.196, 55.678 23.574 C 56.333 24.470, 63.959 37.506, 72.625 52.543 C 81.290 67.580, 88.744 79.658, 89.190 79.383 C 89.635 79.107, 90 77.886, 90 76.669 C 90 74.376, 59.169 19.938, 55.997 16.630 C 54.249 14.806, 54.166 14.819, 52.676 17.130 M 53.525 32.122 C 52.964 34.292, 55.099 38.634, 65.924 57.330 C 73.116 69.753, 79 80.161, 79 80.458 C 79 80.756, 63.925 81, 45.500 81 C 27.075 81, 12 81.378, 12 81.839 C 12 84.500, 18.167 85, 50.988 85 C 69.630 85, 85.083 84.662, 85.328 84.250 C 85.708 83.611, 60.219 38.405, 55.743 31.780 L 54.203 29.500 53.525 32.122 M 41.165 53.271 C 36.674 61.120, 33 67.870, 33 68.271 C 33 68.672, 40.683 69, 50.073 69 C 63.238 69, 67.073 68.714, 66.823 67.750 C 66.237 65.485, 50.786 39, 50.050 39 C 49.654 39, 45.656 45.422, 41.165 53.271 M 44.750 55.305 C 42.138 59.869, 40 63.917, 40 64.302 C 40 64.686, 44.500 65, 50 65 C 55.500 65, 60 64.701, 60 64.336 C 60 63.249, 50.692 47, 50.071 47.003 C 49.757 47.005, 47.362 50.741, 44.750 55.305 " stroke="none" fill="black" fill-rule="evenodd"/>
</svg>