<svg width="250" height="250" viewBox="0 0 250 250" xmlns="http://www.w3.org/2000/svg"><g fill="none" fill-rule="evenodd"><circle fill="#000" cx="125" cy="125" r="125"/><path d="M113.06 114.978a10.055 10.055 0 0 1-9.029-5.572c-2.501-4.99-.497-11.091 4.476-13.607a10.154 10.154 0 0 1 4.536-1.083c3.841 0 7.3 2.136 9.032 5.568 2.509 4.99.498 11.095-4.475 13.603a10.075 10.075 0 0 1-4.54 1.09m-11.854 20.707c-.198 0-.389-.007-.586-.014-5.552-.324-9.823-5.12-9.506-10.695.313-5.554 5.061-9.867 10.658-9.54 5.559.312 9.823 5.114 9.509 10.689-.307 5.366-4.738 9.56-10.075 9.56m11.93 20.645c-1.967 0-3.88-.571-5.533-1.658a10.065 10.065 0 0 1-4.349-6.405 10.1 10.1 0 0 1 1.439-7.62 10.094 10.094 0 0 1 8.456-4.576c1.966 0 3.885.578 5.532 1.661a10.043 10.043 0 0 1 4.352 6.409c.556 2.646.04 5.35-1.442 7.615a10.065 10.065 0 0 1-8.456 4.574m23.821-.048a10.057 10.057 0 0 1-9.022-5.572 10.074 10.074 0 0 1-.572-7.731 10.06 10.06 0 0 1 5.047-5.872 10.05 10.05 0 0 1 4.54-1.087c3.842 0 7.301 2.136 9.026 5.575 2.501 4.986.497 11.088-4.476 13.603a10.129 10.129 0 0 1-4.543 1.084m11.868-20.7c-.201 0-.392-.013-.583-.02-5.566-.315-9.83-5.117-9.513-10.685.314-5.557 5.065-9.87 10.662-9.543a10.012 10.012 0 0 1 6.96 3.367 10.064 10.064 0 0 1 2.542 7.321c-.3 5.363-4.727 9.56-10.068 9.56m-11.97-20.651c-1.96 0-3.875-.57-5.528-1.661-4.663-3.066-5.962-9.355-2.908-14.028a10.084 10.084 0 0 1 13.981-2.915c4.66 3.059 5.965 9.351 2.911 14.024a10.092 10.092 0 0 1-8.456 4.58m-33.906-37.605c1.257 2.495.252 5.544-2.233 6.795a5.037 5.037 0 0 1-6.776-2.235 5.07 5.07 0 0 1 2.233-6.802 5.045 5.045 0 0 1 6.776 2.242m-30.573 43.238c2.784.157 4.911 2.55 4.754 5.339a5.06 5.06 0 0 1-5.327 4.771c-2.781-.164-4.905-2.553-4.751-5.346a5.054 5.054 0 0 1 5.324-4.764m22.052 48.173a5.031 5.031 0 0 1 6.983-1.456c2.332 1.528 2.983 4.665 1.452 7.007a5.042 5.042 0 0 1-6.987 1.46 5.074 5.074 0 0 1-1.448-7.011m52.631 4.935a5.064 5.064 0 0 1 2.23-6.791 5.042 5.042 0 0 1 6.779 2.235c1.257 2.495.252 5.544-2.236 6.795a5.029 5.029 0 0 1-6.773-2.239m30.57-43.237c-2.788-.157-4.908-2.55-4.751-5.339.157-2.796 2.539-4.929 5.324-4.768 2.78.154 4.914 2.546 4.758 5.342a5.054 5.054 0 0 1-5.331 4.765M155.583 82.26a5.038 5.038 0 0 1-6.987 1.46 5.066 5.066 0 0 1-1.452-7.008 5.032 5.032 0 0 1 6.983-1.46 5.074 5.074 0 0 1 1.456 7.008M91.91 61.8a3.28 3.28 0 0 1-1.445 4.399 3.26 3.26 0 0 1-4.386-1.453 3.278 3.278 0 0 1 1.445-4.396 3.266 3.266 0 0 1 4.386 1.45m-38.463 60.587a3.267 3.267 0 0 1 3.074 3.452c-.105 1.805-1.646 3.192-3.442 3.08a3.26 3.26 0 0 1-3.074-3.45 3.27 3.27 0 0 1 3.442-3.082m33.092 63.698a3.257 3.257 0 0 1 4.526-.94A3.278 3.278 0 0 1 92 189.68a3.262 3.262 0 0 1-4.52.944 3.286 3.286 0 0 1-.94-4.54m71.555 3.118a3.28 3.28 0 0 1 1.448-4.403 3.251 3.251 0 0 1 4.38 1.45 3.272 3.272 0 0 1-1.442 4.395 3.262 3.262 0 0 1-4.386-1.442m38.46-60.588a3.276 3.276 0 0 1-3.078-3.459 3.265 3.265 0 0 1 3.452-3.083 3.256 3.256 0 0 1 3.065 3.456 3.271 3.271 0 0 1-3.44 3.086M163.47 64.911a3.26 3.26 0 0 1-4.523.943 3.284 3.284 0 0 1-.94-4.535 3.252 3.252 0 0 1 4.519-.937 3.28 3.28 0 0 1 .944 4.529M92.9 100.157c2.74 1.798 3.507 5.49 1.707 8.238a5.917 5.917 0 0 1-8.22 1.712c-2.744-1.798-3.508-5.486-1.708-8.24 1.8-2.745 5.48-3.518 8.22-1.71m-5.838 40.551c2.928-1.483 6.5-.297 7.976 2.636 1.472 2.936.296 6.518-2.631 7.998-2.925 1.48-6.5.294-7.973-2.636-1.475-2.936-.3-6.518 2.628-7.998m31.674 25.345c.188-3.282 2.996-5.79 6.265-5.61 3.278.185 5.78 3.005 5.593 6.283-.184 3.285-2.99 5.797-6.268 5.609-3.272-.188-5.774-3.001-5.59-6.282m38.375-15.203a5.977 5.977 0 0 1-1.715-8.248 5.93 5.93 0 0 1 8.218-1.71c2.744 1.799 3.507 5.49 1.71 8.238a5.921 5.921 0 0 1-8.213 1.72m5.835-40.558c-2.928 1.48-6.5.3-7.972-2.636-1.476-2.932-.304-6.514 2.628-7.99 2.93-1.484 6.5-.302 7.982 2.634 1.469 2.933.29 6.515-2.638 7.992m-32.097-25.345c-.187 3.278-2.996 5.794-6.274 5.606a5.947 5.947 0 0 1-5.59-6.283c.187-3.284 2.989-5.793 6.261-5.608a5.958 5.958 0 0 1 5.603 6.285m-60.058 4.53c1.922 1.257 2.454 3.844 1.196 5.769a4.141 4.141 0 0 1-5.753 1.196 4.172 4.172 0 0 1-1.196-5.77 4.146 4.146 0 0 1 5.753-1.196m-4.005 65.092a4.146 4.146 0 0 1 5.583 1.846 4.175 4.175 0 0 1-1.844 5.599 4.151 4.151 0 0 1-5.58-1.843c-1.029-2.054-.207-4.566 1.841-5.602m53.787 36.026a4.153 4.153 0 0 1 4.383-3.924 4.16 4.16 0 0 1 3.913 4.396 4.153 4.153 0 0 1-4.383 3.927 4.157 4.157 0 0 1-3.913-4.4m58.637-29.07a4.178 4.178 0 0 1-1.196-5.769 4.153 4.153 0 0 1 5.757-1.2 4.182 4.182 0 0 1 1.196 5.77 4.15 4.15 0 0 1-5.757 1.2m4.012-65.089a4.16 4.16 0 0 1-5.586-1.852 4.167 4.167 0 0 1 1.844-5.592 4.148 4.148 0 0 1 5.58 1.842 4.18 4.18 0 0 1-1.838 5.602m-54.21-36.029a4.161 4.161 0 0 1-4.39 3.924 4.165 4.165 0 0 1-3.912-4.396 4.158 4.158 0 0 1 4.386-3.927 4.164 4.164 0 0 1 3.916 4.4" fill-rule="nonzero" fill="#FFF"/></g></svg>