<svg xmlns="http://www.w3.org/2000/svg" width="100" height="100" viewBox="0 0 100 100" version="1.1">
	<path d="M 17.383 32.402 C 6.209 37.605, 2.070 49.728, 7.647 60.919 C 12.158 69.972, 22.921 74.838, 32.249 72.043 C 34.618 71.334, 38.502 68.747, 41.605 65.812 C 46.709 60.985, 46.853 60.706, 45.388 58.470 L 43.866 56.146 39.183 60.973 C 36.162 64.087, 33.091 66.183, 30.532 66.880 C 19.139 69.979, 7.845 58.717, 10.914 47.318 C 12.436 41.666, 18.430 36.358, 24.281 35.481 C 32.315 34.276, 37.893 38.510, 48.568 53.917 C 58.857 68.765, 63.734 72.392, 73.500 72.454 C 78.281 72.485, 80.447 71.937, 84.163 69.755 C 88.109 67.439, 93 61.836, 93 59.632 C 93 57.787, 88.254 59.441, 84.928 62.446 C 79.596 67.263, 73.984 68.648, 68.414 66.520 C 63.484 64.638, 59.544 60.566, 51.391 48.931 C 44.220 38.698, 39.893 34.309, 34.601 31.906 C 29.053 29.387, 23.516 29.546, 17.383 32.402 M 66.182 31.519 C 61.496 33.555, 57.401 36.628, 55.135 39.810 C 53.455 42.170, 53.376 42.794, 54.556 44.407 C 55.843 46.167, 56.233 45.988, 61.408 41.258 C 67.543 35.651, 71.720 34.309, 77.877 35.967 C 82.293 37.156, 89 43.811, 89 47.003 C 89 48.866, 88.329 49, 79 49 L 69 49 69 51.500 L 69 54 82.136 54 L 95.272 54 94.623 49.250 C 92.742 35.489, 78.083 26.350, 66.182 31.519 " stroke="none" fill="black" fill-rule="evenodd"/>
</svg>