<svg xmlns="http://www.w3.org/2000/svg" width="100" height="100" viewBox="0 0 100 100" version="1.1">
	<path d="M 50.005 13.250 C 50.010 16.421, 50.167 16.537, 56.471 18.041 L 62.931 19.581 64.062 16.851 C 65.585 13.175, 64.851 12.348, 58.942 11.081 C 50.799 9.335, 49.999 9.529, 50.005 13.250 M 31.002 15.090 C 22.174 19.917, 16.254 26.621, 12.617 35.907 C 10.748 40.677, 11.361 41.953, 15.534 41.985 C 17.045 41.996, 18.308 40.443, 20.445 35.944 C 23.494 29.522, 29.497 23.416, 35.611 20.514 C 38.733 19.033, 39.092 18.496, 38.516 16.162 C 37.485 11.988, 36.842 11.896, 31.002 15.090 M 72.424 21.475 C 70.858 23.866, 70.923 24.092, 74.337 28.081 C 78.602 33.064, 80.593 37.082, 82.162 43.880 C 83.302 48.819, 83.465 49, 86.785 49 L 90.227 49 89.549 44.250 C 88.632 37.817, 84.027 28.143, 79.495 23.127 C 77.445 20.857, 75.380 19, 74.907 19 C 74.433 19, 73.316 20.114, 72.424 21.475 M 47.086 29.125 C 38.601 30.714, 31.234 37.555, 29.011 45.909 C 26.246 56.297, 32.396 67.345, 42.899 70.862 C 50.697 73.473, 59.623 71.086, 65.947 64.699 C 80.993 49.502, 68.102 25.188, 47.086 29.125 M 44.401 36.871 C 29.696 43.672, 34.312 65.011, 50.484 64.996 C 58.201 64.989, 64.989 58.279, 64.996 50.651 C 65.007 39.575, 54.196 32.341, 44.401 36.871 M 10 54.395 C 10 55.162, 10.897 58.693, 11.993 62.242 C 15.711 74.281, 25.947 84.408, 38.140 88.111 C 41.971 89.275, 45.255 90.063, 45.436 89.864 C 45.618 89.664, 46.067 88.097, 46.434 86.381 C 47.085 83.337, 46.987 83.234, 42.301 82.066 C 29.694 78.921, 20.392 69.031, 17.550 55.750 C 17.045 53.389, 16.469 53, 13.481 53 C 11.170 53, 10 53.469, 10 54.395 M 80.627 62.188 C 78.182 69.072, 69.399 77.946, 62.500 80.502 C 59.750 81.521, 57.345 82.468, 57.155 82.606 C 56.965 82.744, 57.122 84.277, 57.503 86.012 C 58.119 88.817, 58.490 89.098, 60.848 88.536 C 70.839 86.157, 81.030 77.343, 86.044 66.745 C 89.433 59.581, 89.604 58.446, 87.418 57.607 C 83.703 56.181, 82.463 57.017, 80.627 62.188 " stroke="none" fill="black" fill-rule="evenodd"/>
</svg>