<svg xmlns="http://www.w3.org/2000/svg" width="100" height="100" viewBox="0 0 100 100" version="1.1">
	<path d="M 39.802 18.895 C 30.605 22.948, 18.744 29.985, 13.136 34.716 L 9.771 37.554 11.504 44.027 C 14.555 55.426, 21.191 67.884, 28.293 75.544 C 35.131 82.920, 45.762 90, 50 90 C 54.198 90, 64.847 82.944, 71.532 75.733 C 78.505 68.212, 84.490 57.131, 88.081 45.093 L 90.290 37.685 86.895 34.819 C 78.521 27.750, 59.191 17.405, 51 15.609 C 49.349 15.247, 45.547 16.363, 39.802 18.895 M 42.793 31.246 C 43.920 32.608, 43.568 32.897, 40.070 33.488 C 29.777 35.227, 21.025 45.835, 21.006 56.595 C 20.993 63.456, 34.626 79.243, 45.183 84.593 L 50.087 87.078 55.241 84.289 C 60.239 81.585, 72 71.569, 72 70.017 C 72 69.595, 70.684 68.987, 69.077 68.665 C 65.539 67.958, 62 64.392, 62 61.534 C 62 58.636, 64.746 55, 66.934 55 C 68.976 55, 71.338 57.328, 70.325 58.342 C 69.963 58.704, 70.113 59, 70.659 59 C 73.162 59, 76 54.270, 76 50.099 C 76 46.266, 75.453 45.284, 70.686 40.555 C 64.594 34.511, 56.983 31.126, 47.500 30.241 C 42.138 29.741, 41.637 29.848, 42.793 31.246 M 57 37.465 C 57 38.694, 61.327 40.031, 63.288 39.407 C 65.439 38.723, 65.445 38.683, 63.500 37.922 C 61.263 37.048, 57 36.748, 57 37.465 " stroke="none" fill="black" fill-rule="evenodd"/>
</svg>