<svg xmlns="http://www.w3.org/2000/svg" width="100" height="100" viewBox="0 0 100 100" version="1.1">
	<path d="M 40.927 8.119 C 32.299 8.812, 20.238 12.304, 15.302 15.538 L 12.700 17.243 13.370 33.590 C 13.738 42.581, 14.484 52.281, 15.028 55.145 C 16.430 62.538, 20.157 70.131, 24.925 75.302 C 30.040 80.852, 47.154 92.250, 50.371 92.250 C 53.394 92.250, 71.687 80.260, 75.786 75.591 C 80.872 69.798, 83.983 63.609, 85.453 56.359 C 87.052 48.470, 88.552 21.316, 87.561 18.194 C 87.168 16.955, 84.691 15.053, 81.510 13.548 C 71.193 8.667, 57.280 6.806, 40.927 8.119 M 37 11.132 C 30.903 12.128, 19.270 15.754, 18.578 16.874 C 17.878 18.006, 29.958 39.002, 31.298 38.982 C 32.319 38.966, 48 12.318, 48 10.597 C 48 9.814, 43.825 10.017, 37 11.132 M 58.294 20.136 C 68.009 38.206, 68.477 38.983, 69.642 38.992 C 70.270 38.996, 73.488 34.038, 76.794 27.973 L 82.805 16.945 79.152 15.406 C 73.842 13.169, 66.404 11.352, 59.111 10.509 L 52.722 9.771 58.294 20.136 M 42.267 25.250 C 36.705 35.224, 34.305 40.553, 34.266 43.011 C 34.189 47.974, 47.684 72.500, 50.492 72.500 C 51.969 72.500, 54.185 69.324, 59.530 59.549 C 68.576 43.005, 68.578 43.138, 58.865 24.891 C 54.814 17.281, 51.210 11.043, 50.856 11.028 C 50.502 11.012, 46.637 17.412, 42.267 25.250 M 15.568 18.889 C 14.638 20.394, 16.989 53.525, 18.363 58.270 L 19.500 62.197 23.584 54.849 C 29.348 44.477, 29.096 40.753, 21.749 27.661 C 18.712 22.250, 15.931 18.302, 15.568 18.889 M 78.742 28.271 C 71.547 41.470, 71.294 44.213, 76.406 53.580 C 78.483 57.386, 80.550 60.886, 80.998 61.357 C 81.447 61.828, 82.283 59.803, 82.856 56.857 C 84.293 49.473, 86.010 20.841, 85.112 19.236 C 84.639 18.391, 82.385 21.587, 78.742 28.271 M 48.667 29.667 C 48.300 30.033, 48 32.270, 48 34.636 C 48 38.756, 47.768 39.087, 42.521 42.443 C 38.854 44.789, 37.227 46.428, 37.601 47.402 C 38.087 48.668, 38.680 48.671, 42.205 47.428 C 44.431 46.642, 46.645 46, 47.126 46 C 48.701 46, 48.121 53.739, 46.500 54.362 C 43.456 55.530, 45.142 56.615, 50 56.615 C 54.756 56.615, 56.193 55.855, 54 54.500 C 52.772 53.741, 52.658 46, 53.874 46 C 54.355 46, 56.569 46.642, 58.795 47.428 C 62.287 48.660, 62.916 48.661, 63.386 47.436 C 63.743 46.507, 62.042 44.809, 58.465 42.521 C 53.586 39.400, 53 38.657, 53 35.594 C 53 30.008, 51.026 27.308, 48.667 29.667 M 25.560 55.108 C 20.496 64.113, 20.550 63.918, 22.130 67.386 C 23.103 69.521, 24.838 70.251, 34.598 72.631 C 40.834 74.152, 46.227 75.106, 46.582 74.751 C 47.501 73.832, 32.747 47.043, 31.310 47.019 C 30.655 47.009, 28.067 50.649, 25.560 55.108 M 61.140 60.541 C 57.092 68.006, 54.036 74.369, 54.348 74.682 C 54.661 74.994, 59.913 74.010, 66.020 72.495 C 75.054 70.254, 77.427 69.278, 78.747 67.263 C 80.312 64.875, 80.203 64.474, 75.741 56.143 C 73.195 51.389, 70.524 47.380, 69.806 47.234 C 69.037 47.078, 65.475 52.546, 61.140 60.541 M 64.500 74.710 C 53.779 77.645, 51 79.799, 51 85.174 C 51 87.278, 51.454 89, 52.009 89 C 53.686 89, 69.290 78.359, 72.437 75.070 C 75.847 71.505, 76.155 71.519, 64.500 74.710 M 28.196 74.942 C 29.533 77.083, 47.054 89, 48.865 89 C 49.514 89, 50 87.362, 50 85.174 C 50 79.635, 47.184 77.491, 36.695 75.046 C 26.079 72.570, 26.720 72.578, 28.196 74.942 " stroke="none" fill="black" fill-rule="evenodd"/>
</svg>