<svg xmlns="http://www.w3.org/2000/svg" width="227" height="227" viewBox="0 0 227 227"><path d="M57.529 59.389C23.149 94.183.816 116.973.963 117.152c.5.417 4.878 4.26 6.729 5.838 14.222 12.185 30.972 22.105 48.514 28.748 9.374 3.515 21.246 6.762 29.826 8.162 11.108 1.788 18.307 2.383 28.65 2.354 9.374 0 14.311-.358 23.92-1.758 21.187-3.068 41.727-10.397 59.975-21.36 4.084-2.472 8.815-5.66 8.815-5.928 0-.149.118-.208.235-.119.147.09.706-.238 1.264-.715.558-.476 1.175-.864 1.381-.893.176 0 .353-.09.353-.239 0-.119.587-.596 1.322-1.042.735-.477 1.264-.954 1.175-1.103-.088-.119.089-.208.382-.178.294 0 .47-.15.412-.417-.059-.239 0-.358.117-.239.147.179 2.087-1.102 2.763-1.847.088-.09.852-.685 1.704-1.34.852-.656 1.47-1.34 1.41-1.55-.088-.208.03-.297.294-.178.265.09.412-.03.412-.358 0-.268.147-.387.323-.297.147.119.558-.03.881-.328.559-.507.559-.536-.088-1.281-.587-.656-.587-.685-.059-.238.706.595 1.176.655 1.5.119.117-.179.763-.715 1.41-1.162.646-.447 1.44-1.222 1.763-1.698.294-.477.676-.804.793-.745.118.09.235-.09.235-.387 0-.447.059-.477.294-.09.147.239.294.298.294.12 0-.18-.206-.507-.44-.715-.354-.298-.442-.298-.442.089 0 .268-.264.417-.705.387-.382 0-.646-.149-.558-.268.088-.149.323-.179.558-.09.529.21.529-.446 0-1.161-.353-.506-.47-.536-.94-.149-.47.417-.47.387-.147-.238.235-.447.235-.656.03-.656-.177 0-.383.209-.5.477-.147.387-.206.387-.412.06-.147-.209-.264-.537-.264-.686 0-.178.117-.119.264.12.177.268.324.297.441.06.118-.15-.059-.567-.411-.924-.324-.328-.588-.507-.588-.388-.03.15-.206-.089-.44-.506-.236-.417-.412-.626-.442-.477 0 .18-.293-.119-.675-.655-.5-.685-.794-.834-1.029-.596-.235.238-.264.15-.147-.357.147-.566.088-.656-.323-.507-.353.15-.47.06-.411-.327.058-.358-.089-.507-.588-.477-.44 0-.558-.09-.382-.268.323-.328-4.055-5.035-4.437-4.796-.147.089-.206.06-.177-.09.118-.357-1.675-2.174-2.115-2.174-.206 0-.294-.09-.177-.209.177-.179-97.617-99.618-97.97-99.558-.087 0-25.74 25.858-57.006 57.465zm93.327-11.857c42.314 42.868 51.57 52.103 51.952 51.865.147-.09.177-.06.088.09-.205.357 15.78 16.562 16.074 16.294.088-.09.176.239.176.745s-.147 1.013-.352 1.132c-.206.149-.235.09-.088-.179.117-.208-.676.358-1.793 1.222-2.292 1.847-3.056 2.562-2.88 2.71.06.09-.058.15-.264.15-.206 0-1.675 1.012-3.291 2.234-3.174 2.413-9.198 6.583-10.52 7.269-.47.268-.735.595-.617.774.147.209.088.238-.147.12-.206-.15-.823.089-1.44.506-5.348 3.604-17.602 9.681-25.918 12.869-12.077 4.617-28.062 8.58-38.347 9.503-.97.09-3.291.328-5.142.536-2.116.238-7.376.358-13.958.358-8.904 0-11.549-.12-16.75-.656-26.152-2.86-50.219-11.737-72.287-26.662-3.644-2.472-10.578-7.745-13.076-9.95-.412-.357-1.058-.893-1.47-1.25l-.734-.597 52.011-52.728c28.621-28.986 52.188-52.728 52.423-52.728.206-.03 16.573 16.354 36.35 36.373z"/><path d="M101.753 100.707c-11.107.894-14.34 1.37-28.298 4.29-6.993 1.43-20.922 6.137-29.179 9.801-1.528.685-3.32 1.46-3.996 1.728-.705.268-1.264.566-1.264.685 0 .09 4.261.268 9.492.358 14.898.268 25.506 1.698 40.757 5.481 2.35.566 4.378 1.162 4.554 1.31.147.15.5.269.764.269 1.44 0 16.867 5.57 23.038 8.281 5.965 2.652 14.898 7.3 19.776 10.308l2.704 1.668 3.614-.774a371.77 371.77 0 0 1 4.467-.924c1.44-.208 10.02-2.71 14.016-4.111 5.466-1.907 13.106-5.213 18.16-7.865 1.704-.863 3.85-1.995 4.79-2.472 1.028-.536 1.616-.983 1.499-1.192-.118-.178-.089-.238.117-.149.353.239 4.525-2.115 4.32-2.472-.06-.12.264-.298.764-.417.5-.09.822-.298.705-.477-.088-.149.088-.298.382-.298.705 0 1.41-.745.94-1.042-.147-.09-.411-.09-.587 0-.147.089-.294.06-.294-.12 0-.625-12.606-7.06-19.365-9.92-16.22-6.822-30.62-10.307-48.955-11.856-3.174-.268-19.982-.328-22.92-.09zm28.65 6.912c7.846 1.042 14.722 2.323 20.1 3.753 10.343 2.741 18.013 5.422 26.035 9.146.735.328 2.145.983 3.115 1.43.999.476 1.88.983 1.998 1.132.294.476-1.205 1.4-5.848 3.664-9.55 4.617-18.923 7.924-30.06 10.546l-4.202 1.012-3.585-2.085c-7.523-4.379-20.981-10.754-28.563-13.524-6.582-2.384-13.546-4.558-19.981-6.227-2.998-.774-14.987-3.157-16.868-3.366-.999-.09-1.88-.298-1.968-.417-.353-.596 11.372-3.158 21.04-4.588 7.522-1.102 11.166-1.31 22.626-1.221 9.609.09 12.048.179 16.162.745zm45.547 54.843c-.734.477-2.38 1.46-3.673 2.234-1.293.775-3.085 1.847-3.967 2.384-12.253 7.298-22.685 12.69-31.118 16.056-16.456 6.584-32.06 10.04-50.954 11.231-2.939.179-5.378.358-5.407.388-.059.03 7.523 7.745 16.808 17.129l16.867 17.04L137.75 205.3c12.812-12.988 24.213-24.636 25.36-25.857 3.29-3.516 5.524-6.286 5.318-6.614-.118-.179-.088-.238.088-.149.382.238 2.82-2.68 2.586-3.068-.118-.179.03-.209.352-.09.47.18.47.15.118-.297-.353-.447-.353-.507.088-.328.5.208.676-.328.176-.626-.146-.09-.293-.298-.293-.476 0-.15.117-.269.293-.269.177 0 .265.09.236.209-.089.268.146.387.675.387.177 0 .235-.208.147-.476-.088-.239-.058-.388.088-.298.383.238 1-.626.735-1.043-.117-.208-.088-.268.088-.179.5.328 2.939-3.068 2.527-3.485-.088-.09-.058-.179.089-.179.176 0 .558-.208.881-.447.97-.744.03-.447-1.352.447zm-27.622 23.147c0 .149-3.614 3.843-7.992 8.222a7735.957 7735.957 0 0 0-16.926 16.98l-8.874 8.997-9.55-9.682c-5.26-5.332-9.55-9.77-9.55-9.86 0-.09 1.234-.328 2.732-.507 16.074-1.906 33.94-6.94 47.222-13.256 2.233-1.073 2.938-1.281 2.938-.894z"/></svg>