<svg xmlns="http://www.w3.org/2000/svg" width="100" height="100" viewBox="0 0 100 100" version="1.1">
	<path d="M 37 10.576 C 37 10.892, 38.860 14.335, 41.133 18.227 L 45.266 25.304 42.383 30.648 C 40.797 33.587, 38.782 36.948, 37.905 38.116 C 36.318 40.230, 36.301 40.224, 34.074 36.620 C 32.119 33.457, 31.343 33, 27.918 33 C 25.763 33, 24 33.259, 24 33.576 C 24 33.892, 25.860 37.335, 28.133 41.227 L 32.266 48.304 29.383 53.648 C 27.797 56.587, 25.782 59.948, 24.905 61.116 C 23.318 63.230, 23.301 63.224, 21.074 59.620 C 19.039 56.328, 18.429 56, 14.337 56 L 9.837 56 11.787 59.250 C 12.859 61.038, 14.939 64.596, 16.409 67.158 L 19.082 71.816 14.601 79.158 L 10.121 86.500 18.227 86.793 C 22.685 86.954, 26.879 86.877, 27.547 86.620 C 28.215 86.364, 30.586 82.866, 32.815 78.846 L 36.868 71.538 34.728 67.730 C 32.616 63.973, 32.613 63.875, 34.451 60.461 C 35.476 58.557, 36.582 57.005, 36.907 57.011 C 37.233 57.017, 39.373 60.280, 41.663 64.261 L 45.827 71.500 43.228 76 C 41.799 78.475, 39.769 81.962, 38.716 83.750 L 36.802 87 45.811 87 L 54.821 87 59.271 79.295 L 63.722 71.591 61.865 68.545 C 59.257 64.269, 59.471 63.845, 64.060 64.193 C 67.540 64.456, 68.416 65.018, 70.183 68.120 L 72.244 71.739 68.122 78.678 C 65.855 82.494, 64 85.928, 64 86.308 C 64 87.603, 80.694 87.078, 81.734 85.750 C 82.273 85.063, 84.331 81.570, 86.309 77.990 L 89.904 71.480 85.418 63.740 C 81.014 56.142, 80.859 56, 76.966 56 C 74.785 56, 73 55.790, 73 55.534 C 73 55.278, 73.734 53.528, 74.632 51.646 C 76.255 48.241, 76.242 48.185, 72.062 40.612 L 67.860 33 63.366 33 L 58.872 33 60.989 29.233 L 63.106 25.466 58.803 17.755 L 54.500 10.043 45.750 10.022 C 40.938 10.010, 37 10.259, 37 10.576 M 47.299 37.499 C 45.700 40.853, 45.719 41.156, 47.767 44.799 C 49.893 48.582, 49.894 48.613, 47.958 51.550 C 45.253 55.653, 45.432 56.001, 50.250 55.992 C 54.110 55.985, 54.696 55.641, 56.632 52.242 L 58.764 48.500 54.632 41.261 C 52.360 37.280, 50.155 34.017, 49.734 34.011 C 49.312 34.005, 48.217 35.575, 47.299 37.499 " stroke="none" fill="black" fill-rule="evenodd"/>
</svg>