<svg xmlns="http://www.w3.org/2000/svg" width="100" height="100" viewBox="0 0 100 100" version="1.1">
	<path d="M 28.334 18.131 C 23.258 20.574, 21.214 22.372, 16.774 28.299 C 13.808 32.260, 11.053 36.047, 10.652 36.716 C 9.950 37.889, 48.289 82.500, 50 82.500 C 51.711 82.500, 90.050 37.889, 89.348 36.716 C 88.947 36.047, 86.195 32.264, 83.232 28.308 C 78.658 22.201, 76.859 20.654, 71.310 18.058 C 64.891 15.054, 64.509 15.001, 49.638 15.082 C 34.986 15.160, 34.302 15.258, 28.334 18.131 M 30.500 19.354 L 25.500 21.682 30.717 24.341 C 35.632 26.846, 36.746 27, 50 27 C 63.254 27, 64.368 26.846, 69.283 24.341 L 74.500 21.682 69.500 19.354 C 64.989 17.253, 63.082 17.026, 50 17.026 C 36.918 17.026, 35.011 17.253, 30.500 19.354 M 17.976 29.725 C 15.239 33.340, 13 36.582, 13 36.930 C 13 37.620, 27.513 45, 28.871 45 C 29.956 45, 34.330 30.302, 33.719 28.712 C 33.463 28.045, 30.935 26.522, 28.103 25.326 L 22.952 23.152 17.976 29.725 M 70.856 25.647 L 65.212 28.163 67.710 36.331 C 69.083 40.824, 70.396 44.698, 70.626 44.939 C 71.176 45.516, 87 37.794, 87 36.949 C 87 36.289, 77.115 22.945, 76.716 23.066 C 76.597 23.102, 73.960 24.264, 70.856 25.647 M 33.744 37.912 L 31.031 46.824 40.227 62.912 C 45.285 71.760, 49.682 79, 50 79 C 50.318 79, 54.715 71.760, 59.773 62.912 L 68.969 46.824 66.256 37.912 L 63.543 29 50 29 L 36.457 29 33.744 37.912 M 45 37 C 45 38.467, 44.333 39, 42.500 39 C 40.944 39, 40 39.567, 40 40.500 C 40 41.325, 40.675 42, 41.500 42 C 42.690 42, 43 43.444, 43 49 C 43 54.556, 42.690 56, 41.500 56 C 40.675 56, 40 56.675, 40 57.500 C 40 58.433, 40.944 59, 42.500 59 C 44.333 59, 45 59.533, 45 61 C 45 62.111, 45.667 63, 46.500 63 C 47.333 63, 48 62.111, 48 61 C 48 59.900, 48.450 59, 49 59 C 49.550 59, 50 59.900, 50 61 C 50 62.100, 50.450 63, 51 63 C 51.550 63, 52 62.100, 52 61 C 52 59.750, 52.667 59, 53.777 59 C 58.811 59, 62.148 52.027, 58.545 49.037 C 57.425 48.108, 57.346 47.418, 58.203 46.047 C 59.773 43.533, 58.503 41.016, 54.998 39.693 C 53.213 39.019, 52 37.841, 52 36.781 C 52 35.801, 51.550 35, 51 35 C 50.450 35, 50 35.900, 50 37 C 50 38.100, 49.550 39, 49 39 C 48.450 39, 48 38.100, 48 37 C 48 35.889, 47.333 35, 46.500 35 C 45.667 35, 45 35.889, 45 37 M 16 41.519 C 16 42.087, 37.744 67.015, 41.278 70.500 C 42.713 71.914, 42.344 70.742, 40.020 66.500 C 29.751 47.760, 29.962 48.030, 22.750 44.386 C 19.038 42.510, 16 41.220, 16 41.519 M 47 44.500 C 47 47.713, 47.243 48, 49.965 48 C 53.772 48, 55.751 44.894, 53.427 42.569 C 52.563 41.706, 50.764 41, 49.429 41 C 47.320 41, 47 41.461, 47 44.500 M 77 44.499 C 70.080 48.011, 70.172 47.893, 59.982 66.500 C 57.020 71.910, 56.940 72.254, 59.175 70 C 64.421 64.707, 84.229 41.897, 83.874 41.558 C 83.668 41.361, 80.575 42.685, 77 44.499 M 47 53 C 47 56.627, 47.239 57, 49.566 57 C 53.198 57, 56 55.258, 56 53 C 56 50.742, 53.198 49, 49.566 49 C 47.239 49, 47 49.373, 47 53 " stroke="none" fill="black" fill-rule="evenodd"/>
</svg>