<svg xmlns="http://www.w3.org/2000/svg" width="100" height="100" viewBox="0 0 100 100" version="1.1">
	<path d="M 40.618 11.048 C 34.290 12.638, 25.284 17.968, 20.912 22.711 C 18.667 25.147, 15.405 30.147, 13.665 33.820 C 10.799 39.869, 10.500 41.402, 10.500 50.052 C 10.500 59.084, 10.705 60.019, 14.272 67.237 C 18.727 76.251, 24.477 81.833, 34 86.390 C 39.864 89.196, 41.429 89.500, 50 89.500 C 58.571 89.500, 60.136 89.196, 66 86.390 C 75.523 81.833, 81.273 76.251, 85.728 67.237 C 89.295 60.019, 89.500 59.084, 89.500 50.052 C 89.500 41.423, 89.199 39.872, 86.390 34 C 79.483 19.567, 67.356 11.169, 52.385 10.451 C 48.048 10.243, 42.753 10.512, 40.618 11.048 M 44 32 L 44 35 50.545 35 C 56.162 35, 57.439 35.348, 59.545 37.455 C 60.895 38.805, 62 40.400, 62 41 C 62 41.600, 60.895 43.195, 59.545 44.545 C 57.150 46.941, 56.717 47, 41.545 47 L 26 47 26 50 L 26 53 41.545 53 C 56.717 53, 57.150 53.059, 59.545 55.455 C 62.612 58.522, 62.612 59.478, 59.545 62.545 C 57.439 64.652, 56.162 65, 50.545 65 L 44 65 44 68 L 44 71 52.600 71 C 61.047 71, 61.260 70.940, 64.600 67.600 C 67.537 64.663, 68 63.536, 68 59.323 C 68 56.550, 67.336 53.497, 66.461 52.247 C 65.105 50.312, 65.095 49.778, 66.379 47.775 C 67.821 45.526, 68.326 42.718, 68.111 38.150 C 68.050 36.857, 66.470 34.270, 64.600 32.400 C 61.260 29.060, 61.047 29, 52.600 29 L 44 29 44 32 " stroke="none" fill="black" fill-rule="evenodd"/>
</svg>