<svg xmlns="http://www.w3.org/2000/svg" width="100" height="100" viewBox="0 0 100 100" version="1.1">
	<path d="M 40.618 11.048 C 34.290 12.638, 25.284 17.968, 20.912 22.711 C 18.667 25.147, 15.405 30.147, 13.665 33.820 C 10.799 39.869, 10.500 41.402, 10.500 50.052 C 10.500 59.067, 10.710 60.028, 14.235 67.160 C 18.733 76.262, 24.523 81.931, 33.820 86.335 C 39.861 89.197, 41.409 89.500, 50 89.500 C 58.591 89.500, 60.139 89.197, 66.180 86.335 C 75.477 81.931, 81.267 76.262, 85.765 67.160 C 89.294 60.020, 89.500 59.075, 89.500 50 C 89.500 40.925, 89.294 39.980, 85.765 32.840 C 79.008 19.167, 67.003 11.144, 52.249 10.442 C 47.987 10.239, 42.753 10.512, 40.618 11.048 M 40.500 17.399 C 30.845 20.452, 23.319 26.955, 19.151 35.845 C 16.934 40.573, 16.500 42.893, 16.500 50 C 16.500 57.107, 16.934 59.427, 19.151 64.155 C 23.622 73.691, 33.360 81.345, 43.750 83.488 L 47 84.159 47 79.579 C 47 75.158, 47.103 75, 50 75 C 52.897 75, 53 75.158, 53 79.579 L 53 84.159 56.250 83.488 C 66.640 81.345, 76.378 73.691, 80.849 64.155 C 84.658 56.031, 84.658 43.969, 80.849 35.845 C 76.378 26.309, 66.640 18.655, 56.250 16.512 L 53 15.841 53 20.421 C 53 24.842, 52.897 25, 50 25 C 47.111 25, 47 24.833, 47 20.500 C 47 15.535, 46.758 15.420, 40.500 17.399 M 33.184 37.750 L 33.500 40.500 50 40.500 L 66.500 40.500 66.816 37.750 L 67.133 35 50 35 L 32.867 35 33.184 37.750 M 33.667 47.667 C 33.300 48.033, 33 49.383, 33 50.667 L 33 53 50 53 L 67 53 67 50 L 67 47 50.667 47 C 41.683 47, 34.033 47.300, 33.667 47.667 M 33.691 59.643 C 33.311 60.023, 33 61.383, 33 62.667 L 33 65 50.066 65 L 67.133 65 66.816 62.250 L 66.500 59.500 50.441 59.226 C 41.608 59.076, 34.070 59.263, 33.691 59.643 " stroke="none" fill="black" fill-rule="evenodd"/>
</svg>