<svg xmlns="http://www.w3.org/2000/svg" width="100" height="100" viewBox="0 0 100 100" version="1.1">
	<path d="M 37.734 21.765 C 31.280 28.236, 26 33.994, 26 34.562 C 26 35.836, 33.232 43, 34.519 43 C 35.033 43, 38.726 39.749, 42.726 35.775 L 50 28.550 57.274 35.775 C 61.274 39.749, 65.008 43, 65.571 43 C 66.844 43, 74 35.761, 74 34.473 C 74 33.502, 50.952 10, 50 10 C 49.708 10, 44.188 15.294, 37.734 21.765 M 13.986 45.514 L 9.555 50.029 14.278 54.751 L 19 59.474 23.722 54.751 L 28.445 50.029 24.014 45.514 C 21.577 43.032, 19.321 41, 19 41 C 18.679 41, 16.423 43.032, 13.986 45.514 M 44.986 45.514 L 40.555 50.029 45.278 54.751 L 50 59.474 54.722 54.751 L 59.445 50.029 55.014 45.514 C 52.577 43.032, 50.321 41, 50 41 C 49.679 41, 47.423 43.032, 44.986 45.514 M 75.986 45.514 L 71.555 50.029 76.278 54.751 L 81 59.474 85.722 54.751 L 90.445 50.029 86.014 45.514 C 83.577 43.032, 81.321 41, 81 41 C 80.679 41, 78.423 43.032, 75.986 45.514 M 29.703 60.792 C 27.666 62.878, 26 65.022, 26 65.558 C 26 66.093, 31.400 71.917, 38 78.500 L 50 90.469 62 78.500 C 68.600 71.917, 74 66.053, 74 65.469 C 74 64.172, 66.786 57, 65.481 57 C 64.967 57, 61.274 60.251, 57.274 64.225 L 50 71.450 42.726 64.225 C 38.726 60.251, 34.992 57, 34.429 57 C 33.866 57, 31.740 58.706, 29.703 60.792 " stroke="none" fill="black" fill-rule="evenodd"/>
</svg>