<svg xmlns="http://www.w3.org/2000/svg" width="100" height="100" viewBox="0 0 100 100" version="1.1">
	<path d="M 40 15.058 C 35.325 17.781, 31.384 20.355, 31.242 20.779 C 31.027 21.421, 46.615 31.060, 48.408 31.393 C 49.215 31.543, 66.963 21.609, 66.976 21 C 66.988 20.489, 66.072 19.934, 54.915 13.695 L 48.500 10.108 40 15.058 M 25 38.726 L 25 49.642 33.698 54.571 C 38.482 57.282, 42.757 59.650, 43.198 59.833 C 43.639 60.017, 43.996 55.292, 43.992 49.333 L 43.984 38.500 40.242 36.435 C 38.184 35.299, 33.913 32.894, 30.750 31.090 L 25 27.809 25 38.726 M 60.750 33.297 L 52 38.411 52 49.292 L 52 60.172 58.750 56.434 C 71.783 49.216, 71 50.367, 71 38.432 C 71 32.694, 70.662 28.041, 70.250 28.091 C 69.838 28.142, 65.563 30.484, 60.750 33.297 M 64.500 60.869 L 52.500 67.730 52.218 78.819 L 51.935 89.909 64.468 82.743 L 77 75.578 77 64.789 C 77 58.855, 76.888 54.002, 76.750 54.004 C 76.612 54.006, 71.100 57.095, 64.500 60.869 M 25.216 68.682 L 25.500 79.365 30 81.974 C 32.475 83.408, 36.638 85.820, 39.250 87.333 L 44 90.084 44 79.117 L 44 68.150 35.131 63.075 C 30.254 60.284, 25.963 58, 25.597 58 C 25.232 58, 25.060 62.807, 25.216 68.682 " stroke="none" fill="black" fill-rule="evenodd"/>
</svg>