<?xml version="1.0" encoding="utf-8"?>
<!-- Generator: Adobe Illustrator 22.0.1, SVG Export Plug-In . SVG Version: 6.00 Build 0)  -->
<svg version="1.1" id="Layer_1" xmlns="http://www.w3.org/2000/svg" xmlns:xlink="http://www.w3.org/1999/xlink" x="0px" y="0px"
	 viewBox="0 0 150 146" style="enable-background:new 0 0 150 146;" xml:space="preserve">
<style type="text/css">
	.st0{fill:#00FFBB;}
	.st1{fill:#00CFAB;}
</style>
<g>
	<path class="st0" d="M73,60.5c-8.8,0-16-7.2-16-16C57,37.6,51.4,32,44.5,32c-3.3,0-6.5,1.3-8.8,3.7c-6.2,6.2-16.4,6.2-22.6,0
		C6.8,29.4,6.8,19.3,13,13C21.4,4.6,32.6,0,44.5,0C69,0,88.9,20,88.9,44.5C88.9,53.3,81.8,60.5,73,60.5"/>
	<path class="st1" d="M24,137.2c-4.2,0-8.4-1.6-11.5-4.9C4.4,124,0,113.1,0,101.5C0,77,19.9,57,44.5,57c8.8,0,16,7.2,16,16
		s-7.2,16-16,16C37.6,89,32,94.6,32,101.5c0,3.3,1.2,6.3,3.5,8.7c6.1,6.4,5.9,16.5-0.4,22.6C32,135.8,28,137.2,24,137.2"/>
	<path class="st0" d="M101.5,146C77,146,57.1,126,57.1,101.5c0-8.8,7.2-16,16-16c8.8,0,16,7.2,16,16c0,6.9,5.6,12.5,12.5,12.5
		c3.4,0,6.6-1.3,9-3.8c6.2-6.3,16.3-6.5,22.6-0.3c6.3,6.2,6.5,16.3,0.3,22.6C125,141.2,113.7,146,101.5,146"/>
	<path class="st1" d="M44.5,146c-12.2,0-23.6-4.8-32-13.6c-6.1-6.4-5.9-16.5,0.4-22.6c6.4-6.1,16.5-5.9,22.6,0.4
		c2.4,2.5,5.6,3.8,9,3.8c6.9,0,12.5-5.6,12.5-12.5c0-8.8,7.2-16,16-16c8.8,0,16,7.2,16,16C88.9,126,69,146,44.5,146"/>
	<path class="st1" d="M73,60.5c-8.8,0-16-7.2-16-16C57.1,20,77,0,101.5,0c9.6,0,18.8,3,26.5,8.8c7.1,5.3,8.6,15.3,3.3,22.4
		c-5.3,7.1-15.3,8.6-22.4,3.3c-1.5-1.1-4-2.5-7.4-2.5C94.6,32,89,37.6,89,44.5C89,53.3,81.9,60.5,73,60.5"/>
	<path class="st1" d="M101.5,88.9c-8.8,0-16-7.2-16-16c0-8.8,7.2-16,16-16c6.9,0,12.5-5.6,12.5-12.5c0-4-1.8-7.6-5.1-10
		c-7.1-5.3-8.6-15.3-3.3-22.4C111,5,121,3.5,128.1,8.8c11.2,8.4,17.9,21.7,17.9,35.7C146,69,126.1,88.9,101.5,88.9"/>
	<path class="st0" d="M122,137.3c-4,0-8-1.5-11.1-4.5c-6.3-6.2-6.5-16.3-0.3-22.6c2.3-2.3,3.5-5.4,3.5-8.7c0-6.9-5.6-12.5-12.5-12.5
		c-8.8,0-16-7.2-16-16s7.2-16,16-16c24.5,0,44.5,20,44.5,44.5c0,11.6-4.5,22.6-12.6,31C130.3,135.7,126.1,137.3,122,137.3"/>
	<path class="st0" d="M44.5,88.9C19.9,88.9,0,69,0,44.5c0-11.9,4.6-23,13-31.4c6.2-6.2,16.4-6.2,22.6,0c6.2,6.2,6.2,16.4,0,22.6
		C33.3,38,32,41.1,32,44.5C32,51.4,37.6,57,44.5,57c8.8,0,16,7.2,16,16C60.5,81.8,53.3,88.9,44.5,88.9"/>
</g>
</svg>
