<svg xmlns="http://www.w3.org/2000/svg" width="100" height="100" viewBox="0 0 100 100" version="1.1">
	<path d="M 40.618 11.048 C 34.290 12.638, 25.284 17.968, 20.912 22.711 C 18.667 25.147, 15.405 30.147, 13.665 33.820 C 10.799 39.869, 10.500 41.402, 10.500 50.052 C 10.500 59.067, 10.710 60.028, 14.235 67.160 C 18.733 76.262, 24.523 81.931, 33.820 86.335 C 39.861 89.197, 41.409 89.500, 50 89.500 C 58.591 89.500, 60.139 89.197, 66.180 86.335 C 75.477 81.931, 81.267 76.262, 85.765 67.160 C 89.294 60.020, 89.500 59.075, 89.500 50 C 89.500 40.925, 89.294 39.980, 85.765 32.840 C 79.008 19.167, 67.003 11.144, 52.249 10.442 C 47.987 10.239, 42.753 10.512, 40.618 11.048 M 30.446 30.279 C 30.176 30.983, 30.078 40.321, 30.228 51.029 L 30.500 70.500 45 70.802 C 64.155 71.202, 67.543 70.657, 71.690 66.510 C 77.064 61.136, 76.072 54.624, 69.354 51.177 L 65.769 49.338 68.923 48.032 C 72.777 46.435, 74 44.318, 74 39.240 C 74 34.948, 71.589 31.925, 66.685 30.067 C 62.454 28.463, 31.072 28.648, 30.446 30.279 M 42 50 L 42 62 51.378 62 C 61.449 62, 63.763 60.979, 62.526 57.083 C 61.843 54.931, 59.155 54.186, 50.500 53.751 C 45.603 53.505, 45.493 53.430, 45.176 50.105 C 44.767 45.820, 46 45.035, 53.168 45.015 C 60.358 44.996, 62 44.342, 62 41.500 C 62 38.478, 60.420 38, 50.418 38 L 42 38 42 50 " stroke="none" fill="black" fill-rule="evenodd"/>
</svg>