<svg xmlns="http://www.w3.org/2000/svg" viewBox="-678 877.2 226.8 226.8"><switch><g><path d="M-564.6 877.2c-62.6 0-113.4 50.8-113.4 113.4s50.8 113.4 113.4 113.4c62.6 0 113.4-50.8 113.4-113.4S-502 877.2-564.6 877.2zm58.6 154.5c-8.1 23.3-27.4 25.2-53.1 20.4l-6.2 25-14.9-3.7 5.8-23.9.2-.8 4.5-18.4c13.3 3 31.3 4.8 34.8-9 1.8-7.4-1.7-12.7-7.4-16.6 2-.1 3.9-.2 5.9-.3 4.3-.2 6.4-.5 10.6-1.3 4.3-.7 9.4-2.4 13-3.7.2-.1.3-.1.5-.2 7.7 6.9 11.4 18.1 6.3 32.5zm5.4-58.3c-.8 5.6-2.8 11.1-6.7 15.3-3.4 3.6-8.7 5.5-13.3 7-5.4 1.8-11.2 2.9-16.9 2.9-3.8 0-7.7-.1-11.5-.4-6.2-.5-12.6-1-18.7-2.4-2-.5-3.7-.8-5.5-1.3l-8.3 33.2-4.9 18.1-6.2 24.8-15-3.8 6.2-25.1c-3.5-.9-7.1-1.9-10.7-2.8l-19.6-4.9 7.5-17.3s11.1 3 11 2.7c4.3 1.1 6.2-1.7 6.9-3.6l8.5-34 3.9-15.8 4.5-18.1c.2-3.2-.9-7.2-7-8.8.2-.2-10.9-2.7-10.9-2.7l4-16.1 20.8 5.3c3.1.8 6.3 1.5 9.6 2.3l6.2-24.8 15.1 3.8-6 24.3c4 .9 8.1 1.9 12.1 2.8l6-24.1 15.1 3.8-6.2 24.8c18.8 6.8 32.8 16.6 30 34.9zm-61.2-24.1l-7.5 30.1c8.5 2.1 34.7 10.8 39-6.3 4.4-17.7-23-21.7-31.5-23.8z"/></g></switch></svg>