<svg xmlns="http://www.w3.org/2000/svg" width="100" height="100" viewBox="0 0 100 100" version="1.1">
	<path d="M 40.618 11.048 C 34.290 12.638, 25.284 17.968, 20.912 22.711 C 18.667 25.147, 15.405 30.147, 13.665 33.820 C 10.799 39.869, 10.500 41.402, 10.500 50.052 C 10.500 59.067, 10.710 60.028, 14.235 67.160 C 18.733 76.262, 24.523 81.931, 33.820 86.335 C 39.861 89.197, 41.409 89.500, 50 89.500 C 58.591 89.500, 60.139 89.197, 66.180 86.335 C 75.477 81.931, 81.267 76.262, 85.765 67.160 C 89.294 60.020, 89.500 59.075, 89.500 50 C 89.500 40.925, 89.294 39.980, 85.765 32.840 C 79.008 19.167, 67.003 11.144, 52.249 10.442 C 47.987 10.239, 42.753 10.512, 40.618 11.048 M 46.667 13.667 C 46.300 14.033, 46 16.733, 46 19.667 C 46 24.689, 46.146 25, 48.500 25 C 50.889 25, 51 24.733, 51 19 C 51 13.848, 50.741 13, 49.167 13 C 48.158 13, 47.033 13.300, 46.667 13.667 M 59 19.445 C 59 24.726, 59.070 24.856, 62.250 25.526 C 70.866 27.342, 75 31.460, 75 38.228 C 75 41.272, 72.914 45.610, 70.732 47.106 C 70.245 47.440, 71.464 48.666, 73.439 49.832 C 79.099 53.171, 80.658 60.193, 77.248 66.980 C 74.948 71.558, 69.911 74.810, 63.880 75.610 L 59 76.258 59 81.104 C 59 85.843, 59.055 85.930, 61.466 85.013 C 71.213 81.307, 79.396 73.688, 83.798 64.218 C 87.615 56.009, 87.615 43.991, 83.798 35.782 C 79.396 26.312, 71.213 18.693, 61.466 14.987 C 59.034 14.062, 59 14.123, 59 19.445 M 33.160 17.361 C 19.222 24.655, 10.848 41.517, 13.878 56.187 C 15.542 64.246, 18.795 70.466, 24.163 75.854 C 27.753 79.458, 36.420 85, 38.467 85 C 38.760 85, 39 82.975, 39 80.500 L 39 76 32 76 C 24.504 76, 24.169 75.701, 25.616 70.304 C 26.063 68.636, 27.081 68.035, 29.852 67.804 L 33.500 67.500 33.776 51.006 C 34.084 32.615, 33.874 32, 27.309 32 C 24.194 32, 24 31.795, 24 28.500 L 24 25 31.500 25 L 39 25 39 20 C 39 17.250, 38.663 15.020, 38.250 15.045 C 37.837 15.070, 35.547 16.112, 33.160 17.361 M 47 39.500 L 47 46.248 52.485 45.793 C 58.557 45.289, 62 43.012, 62 39.500 C 62 35.988, 58.557 33.711, 52.485 33.207 L 47 32.752 47 39.500 M 47 60.361 L 47 68 51.480 68 C 57.165 68, 63.737 65.403, 64.553 62.834 C 66.324 57.253, 62.513 54.160, 52.750 53.255 L 47 52.722 47 60.361 M 46.429 77.325 C 46.120 78.130, 46.009 80.524, 46.183 82.645 C 46.462 86.034, 46.839 86.539, 49.305 86.822 C 52.099 87.142, 52.108 87.123, 51.805 81.822 C 51.538 77.171, 51.216 76.460, 49.246 76.180 C 47.949 75.996, 46.752 76.482, 46.429 77.325 " stroke="none" fill="black" fill-rule="evenodd"/>
</svg>