<svg xmlns="http://www.w3.org/2000/svg" width="227" height="227" viewBox="0 0 227 227"><path d="M113.5 227C50.813 227 0 176.187 0 113.5S50.813 0 113.5 0 227 50.813 227 113.5 176.187 227 113.5 227zm-30.46-90.119l3.724-16.245H97.61l-8.96 49.614h34.583c21.401 0 34.589-9.555 37.823-27.474l1.618-8.974c2.093-11.605-.71-19.65-9.023-23.913 8.399-4.107 13.286-11.222 15.223-21.92l.71-3.944c3.312-18.372-5.655-27.275-27.78-27.275H109.13l-8.1 44.896-32.476-.02-3.618 17.33H28.375l54.664 17.925zm35.936-19.487h10.57c10.733 0 14.521 4.356 12.549 15.302l-1.738 9.605c-1.547 8.562-6.1 12.194-14.28 12.194H112.28l6.696-37.1zm8.109-44.896h11.314c8.37 0 11.683 4.398 10.087 13.251l-1.113 6.15c-1.632 9.066-6.98 12.982-16.117 12.982h-10.024l5.853-32.383z"/></svg>