<svg xmlns="http://www.w3.org/2000/svg" width="100" height="100" viewBox="0 0 100 100" version="1.1">
	<path d="M 22.500 31.834 C 8.473 38.545, 5.761 56.559, 17.257 66.653 C 24.268 72.808, 33.292 73.483, 40.938 68.422 C 44.406 66.128, 44.748 65.569, 43.707 63.902 C 42.224 61.528, 41.811 61.535, 37.774 63.996 C 33.507 66.598, 26.526 66.618, 22.299 64.040 C 13.320 58.566, 13.253 43.475, 22.182 38.030 C 26.583 35.347, 33.452 35.368, 37.897 38.079 C 41.237 40.115, 41.327 40.118, 43.198 38.246 C 45.070 36.375, 45.035 36.296, 41.159 33.610 C 35.838 29.923, 28.045 29.181, 22.500 31.834 M 61.500 31.913 C 59.300 32.941, 53.710 37.631, 49.077 42.336 L 40.654 50.890 48.998 59.439 C 53.587 64.140, 59.207 68.890, 61.487 69.994 C 77.917 77.947, 95.911 59.361, 88.104 42.500 C 83.237 31.987, 71.412 27.281, 61.500 31.913 M 56.124 43.461 L 48.500 50.921 54.500 57.036 C 57.800 60.400, 61.715 63.793, 63.200 64.576 C 66.700 66.421, 73.333 66.396, 76.953 64.524 C 84.004 60.878, 86.582 49.915, 82.096 42.655 C 79.159 37.903, 75.393 36, 68.924 36 C 63.833 36, 63.622 36.123, 56.124 43.461 " stroke="none" fill="black" fill-rule="evenodd"/>
</svg>