<?xml version="1.0" encoding="UTF-8" standalone="no"?>
<svg
   xmlns:svg="http://www.w3.org/2000/svg"
   xmlns="http://www.w3.org/2000/svg"
   xml:space="preserve"
   style="enable-background:new 0 0 150 27;"
   viewBox="0 0 26 27"
   height="27px"
   width="26px"
   id="Layer_1"
   version="1.1"><metadata
   id="metadata13"/>
<style
   id="style2"
   type="text/css">
	.st0{fill:#003945;}
	.st1{fill:#FFFFFF;}
</style>
    <path
   class="st0"
   d="m 13.228813,0.45762642 c -7.1682548,0 -12.99999948,5.83174498 -12.99999948,12.99999958 0,7.168255 5.83174468,13 12.99999948,13 7.168255,0 13,-5.831745 13,-13 0,-7.1682546 -5.831745,-12.99999958 -13,-12.99999958 z m 4.579872,8.75875998 c 0,0.130949 -0.106133,0.237082 -0.237082,0.237082 h -5.24789 v 2.2666626 h 3.931769 c 0.130948,0 0.237082,0.106133 0.237082,0.237082 v 1.817629 c 0,0.130948 -0.106134,0.237082 -0.237082,0.237082 h -3.931769 v 1.817629 h 1.145896 c 0.130949,0 0.237082,0.106134 0.237082,0.237082 v 1.422492 c 0,0.130949 -0.106133,0.237083 -0.237082,0.237083 h -1.145896 v 1.395148 c 0,0.130949 -0.106134,0.237083 -0.237082,0.237083 h -1.81763 c -0.130948,0 -0.237081,-0.106134 -0.237081,-0.237083 V 17.72621 H 8.8860232 c -0.130948,0 -0.237082,-0.106134 -0.237082,-0.237083 v -1.422492 c 0,-0.130948 0.106134,-0.237082 0.237082,-0.237082 H 10.03192 V 7.3987574 c 0,-0.130948 0.106133,-0.237082 0.237081,-0.237082 h 7.302602 c 0.130949,0 0.237082,0.106134 0.237082,0.237082 z"
   id="Shape"
   style="fill:#003945;fill-rule:nonzero" />
</svg>
