<svg xmlns="http://www.w3.org/2000/svg" width="100" height="100" viewBox="0 0 100 100" version="1.1">
	<path d="M 43.923 12.923 C 41.928 14.918, 41 16.848, 41 19 C 41 23.454, 45.691 28, 50.287 28 C 54.978 28, 59 23.978, 59 19.287 C 59 14.691, 54.454 10, 50 10 C 47.848 10, 45.918 10.928, 43.923 12.923 M 47.667 16.667 C 46.537 17.797, 46.928 20.696, 48.373 21.895 C 51.014 24.086, 54.657 20.876, 53.362 17.500 C 52.783 15.991, 48.909 15.424, 47.667 16.667 M 21.374 25.784 C 18.473 26.224, 15.158 29.962, 14.427 33.616 C 13.958 35.961, 14.401 37.323, 16.408 39.709 C 19.604 43.507, 23.233 44.529, 26.946 42.677 C 31.288 40.511, 33.087 42.085, 32.357 47.411 C 31.246 55.520, 35.451 63.096, 42.937 66.472 C 47.851 68.687, 48.111 70.735, 44 74.846 C 39.991 78.856, 39.964 83.118, 43.923 87.077 C 47.853 91.007, 52.147 91.007, 56.077 87.077 C 57.767 85.387, 59 83.087, 59 81.624 C 59 78.041, 57.019 74.141, 54.848 73.452 C 51.408 72.360, 52.621 68.681, 57.142 66.499 C 59.419 65.400, 62.682 62.771, 64.392 60.659 C 67.174 57.221, 67.500 56.119, 67.500 50.159 C 67.500 42.063, 68.728 40.571, 73.685 42.642 C 82.654 46.389, 89.919 34.919, 82.975 27.975 C 78.137 23.137, 68 27.140, 68 33.887 C 68 37.853, 64.726 39.028, 61.665 36.161 C 55.558 30.441, 44.697 30.691, 37.822 36.711 C 35.259 38.955, 32 37.475, 32 34.067 C 32 28.674, 27.166 24.906, 21.374 25.784 M 20.384 32.442 C 19.319 35.217, 20.456 37.500, 22.905 37.500 C 26.059 37.500, 27.846 34.724, 26.070 32.584 C 24.428 30.606, 21.120 30.523, 20.384 32.442 M 73.970 32.536 C 72.154 34.725, 73.908 37.500, 77.109 37.500 C 79.099 37.500, 79.500 36.997, 79.500 34.500 C 79.500 32.220, 78.999 31.428, 77.412 31.202 C 76.264 31.038, 74.715 31.638, 73.970 32.536 M 46 37.653 C 43.110 38.802, 39.036 43.360, 37.946 46.665 C 35.972 52.646, 40.451 60.421, 47.082 62.526 C 50.610 63.646, 55.770 62.076, 58.923 58.923 C 66.632 51.214, 62.070 38.513, 51.203 37.427 C 49.166 37.223, 46.825 37.325, 46 37.653 M 47.357 41.992 C 37.249 46.071, 43.351 61.859, 53.539 57.985 C 55.761 57.140, 56.008 56.714, 54.986 55.483 C 54.309 54.668, 52.476 54, 50.913 54 C 49.094 54, 47.685 53.280, 47 52 C 45.404 49.019, 47.373 46, 50.913 46 C 52.476 46, 54.309 45.332, 54.986 44.517 C 56.008 43.286, 55.762 42.860, 53.544 42.017 C 50.448 40.840, 50.214 40.839, 47.357 41.992 M 20.388 56.959 C 17.423 58.187, 14 62.827, 14 65.619 C 14 66.911, 15.253 69.371, 16.784 71.084 C 22.557 77.546, 32 73.843, 32 65.119 C 32 59.149, 25.732 54.745, 20.388 56.959 M 73.329 57.458 C 62.885 62.001, 68.669 76.758, 79.737 73.811 C 82.959 72.953, 86 68.918, 86 65.500 C 86 62.306, 83.003 58.197, 79.881 57.108 C 78.132 56.499, 76.656 56.018, 76.601 56.039 C 76.545 56.061, 75.073 56.699, 73.329 57.458 M 20.709 62.624 C 19.160 64.173, 20.039 67.878, 22.112 68.535 C 25.057 69.470, 27.881 66.624, 26.381 64.231 C 25.227 62.390, 21.889 61.444, 20.709 62.624 M 73.970 63.536 C 72.154 65.725, 73.908 68.500, 77.109 68.500 C 79.099 68.500, 79.500 67.997, 79.500 65.500 C 79.500 63.220, 78.999 62.428, 77.412 62.202 C 76.264 62.038, 74.715 62.638, 73.970 63.536 M 48.040 78.452 C 46.231 80.632, 47.205 83.455, 49.897 83.837 C 53.597 84.363, 55.098 81.241, 52.429 78.571 C 50.480 76.623, 49.578 76.598, 48.040 78.452 " stroke="none" fill="black" fill-rule="evenodd"/>
</svg>