<svg xmlns="http://www.w3.org/2000/svg" width="100" height="100" viewBox="0 0 100 100" version="1.1">
	<path d="M 37.836 11.853 C 26.741 15.530, 18.984 22.537, 13.841 33.527 C 2.539 57.678, 18.914 87.698, 44.511 89.753 C 52.726 90.412, 59.202 88.210, 65.924 82.472 C 68.806 80.012, 71.734 78, 72.432 78 C 74.628 78, 81.768 72.235, 84.437 68.307 C 87.974 63.103, 88.023 55.932, 84.545 52.455 C 81.026 48.935, 75.073 49.065, 70.971 52.750 C 68.360 55.096, 67.694 56.742, 66.443 63.949 C 65.636 68.595, 64.418 72.773, 63.738 73.232 C 61.892 74.476, 52.121 73.102, 47.055 70.885 C 36.556 66.291, 31.636 59.596, 31.571 49.812 C 31.503 39.606, 39.076 32.005, 49.316 32.002 C 55.196 32, 57.195 32.969, 63.112 38.692 C 66.588 42.054, 68.737 43.289, 71.834 43.705 C 75.546 44.202, 76.286 43.914, 79.472 40.728 C 84.082 36.118, 84.312 31.110, 80.174 25.400 C 71.234 13.064, 52.385 7.032, 37.836 11.853 M 43.111 17.052 C 24.691 20.791, 12.679 40.233, 17.503 58.500 C 20.238 68.854, 26.407 76.307, 35.938 80.772 C 42.202 83.706, 50.947 84.140, 55.519 81.744 L 58.322 80.275 53.411 79.590 C 46.185 78.581, 36.735 73.642, 32.221 68.513 C 25.771 61.186, 23.400 50.231, 26.427 41.748 C 32.539 24.622, 53.805 19.753, 66.603 32.550 C 71.242 37.190, 73.901 38.029, 75.989 35.513 C 78.014 33.073, 76.317 29.451, 71.099 25.083 C 62.545 17.921, 52.720 15.102, 43.111 17.052 M 75.215 57.250 C 74.142 58.552, 71.722 70.056, 72.382 70.716 C 72.590 70.923, 74.358 69.585, 76.311 67.743 C 79.931 64.329, 81.675 60.202, 80.639 57.502 C 79.940 55.680, 76.635 55.526, 75.215 57.250 " stroke="none" fill="black" fill-rule="evenodd"/>
</svg>