<svg xmlns="http://www.w3.org/2000/svg" width="100" height="100" viewBox="0 0 100 100" version="1.1">
	<path d="M 40.746 11.022 C 29.466 13.872, 18.912 22.742, 13.693 33.759 C 10.796 39.876, 10.500 41.384, 10.500 50.052 C 10.500 59.067, 10.710 60.028, 14.235 67.160 C 29.347 97.739, 71.642 97.199, 86.307 66.241 C 89.204 60.124, 89.500 58.616, 89.500 49.948 C 89.500 40.933, 89.290 39.972, 85.765 32.840 C 79.008 19.167, 67.003 11.144, 52.249 10.442 C 47.987 10.239, 42.811 10.500, 40.746 11.022 M 43.344 16.022 C 33.885 17.938, 23.728 25.705, 19.233 34.460 C 15.459 41.811, 14.936 54.187, 18.051 62.449 C 23.579 77.118, 40.411 86.874, 55.407 84.102 C 74.532 80.566, 86.679 63.452, 83.754 44.162 C 80.965 25.769, 61.645 12.315, 43.344 16.022 M 41.459 28.303 C 32.594 32.544, 27.985 39.889, 28.022 49.718 C 28.073 63.121, 38.153 73.143, 51.583 73.143 C 56.912 73.143, 65.047 70.351, 66.481 68.031 C 66.905 67.345, 65.820 64.844, 63.937 62.167 C 62.131 59.600, 60.601 57.408, 60.538 57.295 C 60.475 57.182, 58.675 57.691, 56.539 58.426 C 45.990 62.052, 37.443 51.409, 44.405 43.316 C 46.444 40.945, 47.547 40.530, 51.655 40.585 C 54.320 40.621, 57.400 40.963, 58.500 41.345 C 60.132 41.912, 61.116 41.090, 63.845 36.888 C 66.501 32.798, 66.913 31.549, 65.845 30.831 C 61.490 27.903, 57.917 26.690, 52.545 26.314 C 47.639 25.971, 45.550 26.346, 41.459 28.303 " stroke="none" fill="black" fill-rule="evenodd"/>
</svg>