<?xml version="1.0" encoding="UTF-8" standalone="no"?>
<svg
   xmlns="http://www.w3.org/2000/svg"
   version="1.1"
   viewBox="0 0 688 688">
  <path
     style="fill:#f4b731;stroke-width:2.05963326"
     d="M 664.92784,233.42287 H 596.90092 C 559.44789,112.878 458.7451,29.85078 325.93972,29.85078 H 107.52742 V 233.42287 H 31.665924 v 73.03733 h 75.861496 v 76.58928 H 31.665924 v 73.03733 h 75.861496 v 201.13012 h 218.4123 c 131.27668,0 231.21512,-82.13924 269.62358,-201.13012 h 69.36454 v -73.03733 h -54.07759 c 1.33761,-12.87587 1.91087,-26.19576 1.91087,-39.51563 v -1.77598 c 0,-11.98788 -0.57326,-23.75378 -1.5287,-35.29767 h 53.69542 z M 168.67521,95.11817 h 157.26451 c 97.45431,0 169.87623,55.72148 203.31644,138.3047 H 168.67521 Z M 325.93972,591.72754 H 168.67521 V 456.08681 H 528.87398 C 495.0516,537.33804 423.01186,591.72754 325.93972,591.72754 Z m 223.76273,-246.4177 c 0,12.87587 -0.76434,25.52976 -2.29304,37.73964 H 168.67521 V 306.4602 h 378.92528 c 1.33762,11.98788 2.10196,24.41978 2.10196,37.07365 z" />
</svg>
