<svg xmlns="http://www.w3.org/2000/svg" width="100" height="100" viewBox="0 0 100 100" version="1.1">
	<path d="M 18.965 16.807 C 17.908 22.725, 17.961 24.024, 19.374 26.757 C 21.548 30.960, 21.480 31.637, 17.966 40.686 L 14.931 48.500 18.791 60 L 22.651 71.500 35.575 80.734 C 42.684 85.813, 49.047 89.770, 49.717 89.528 C 51.440 88.905, 73.627 73.155, 74.827 71.703 C 75.374 71.041, 77.494 65.656, 79.538 59.734 L 83.254 48.969 80.048 40.475 C 76.852 32.006, 76.847 31.967, 78.537 27.542 C 79.969 23.792, 80.063 22.144, 79.141 16.910 C 78.541 13.504, 77.833 10.500, 77.568 10.234 C 77.302 9.969, 75.519 10.676, 73.605 11.805 C 71.691 12.935, 68.099 14.162, 65.623 14.534 C 63.147 14.905, 60.408 15.997, 59.536 16.960 C 58.181 18.458, 57.302 18.563, 53.476 17.687 C 50.421 16.988, 47.579 16.988, 44.524 17.687 C 40.708 18.561, 39.818 18.456, 38.478 16.976 C 37.615 16.022, 35.087 14.950, 32.862 14.594 C 30.637 14.238, 27.076 13.059, 24.948 11.974 C 22.820 10.888, 20.878 10, 20.631 10 C 20.384 10, 19.634 13.063, 18.965 16.807 M 73.319 14.081 C 72.724 14.676, 69.822 15.709, 66.869 16.377 C 62.526 17.359, 61.562 17.944, 61.826 19.436 C 62.119 21.095, 61.719 21.196, 57.826 20.446 C 52.277 19.376, 46.701 19.355, 40.845 20.382 C 36.739 21.102, 36.207 20.992, 36.345 19.448 C 36.461 18.133, 35.256 17.396, 31.500 16.484 C 28.750 15.816, 25.707 14.934, 24.739 14.524 C 23.402 13.957, 23.121 14.151, 23.572 15.328 C 23.899 16.180, 25.499 17.170, 27.127 17.528 C 30.575 18.285, 37.021 27, 34.133 27 C 33.656 27, 32.075 25.200, 30.619 23 C 29.051 20.630, 27.185 19, 26.043 19 C 24.982 19, 23.448 18.050, 22.635 16.889 C 21.217 14.864, 21.128 14.961, 20.486 19.248 C 19.958 22.768, 20.270 24.609, 21.955 27.912 L 24.095 32.106 21.706 37.303 C 16.524 48.576, 16.568 47.438, 20.841 59.513 L 24.729 70.500 36.904 79.198 L 49.078 87.896 59.789 80.335 C 65.680 76.177, 71.233 72.038, 72.129 71.137 C 73.025 70.237, 75.329 64.742, 77.247 58.927 L 80.736 48.355 78.350 42.009 C 77.038 38.518, 75.469 35.066, 74.864 34.336 C 74.045 33.350, 74.313 31.656, 75.911 27.720 C 77.657 23.418, 77.885 21.689, 77.129 18.465 C 76.619 16.284, 76.156 15.085, 76.100 15.801 C 76.045 16.517, 74.400 17.771, 72.445 18.588 C 70.399 19.442, 68.022 21.544, 66.846 23.537 C 64.971 26.715, 63 28.096, 63 26.232 C 63 24.201, 68.343 17.952, 70.554 17.397 C 71.928 17.052, 73.507 15.922, 74.062 14.885 C 75.196 12.766, 74.926 12.474, 73.319 14.081 M 44.500 21.582 C 42.300 22.375, 39.927 23.233, 39.227 23.489 C 38.201 23.865, 38.199 24.345, 39.218 25.977 C 40.656 28.281, 42.494 28.730, 41.668 26.577 C 41.308 25.639, 42.175 24.786, 44.210 24.077 C 45.909 23.484, 47.456 23, 47.649 23 C 47.842 23, 48 24.366, 48 26.035 C 48 28.726, 47.781 28.953, 46.066 28.035 C 43.222 26.513, 42.893 26.725, 43.616 29.608 C 44.218 32.003, 44.102 32.125, 42.191 31.102 C 41.047 30.490, 39.835 29.542, 39.497 28.995 C 38.726 27.747, 37 27.691, 37 28.913 C 37 29.961, 44.930 36, 46.305 36 C 46.807 36, 46.963 34.987, 46.652 33.750 C 46.163 31.802, 46.479 31.500, 49 31.500 C 51.521 31.500, 51.837 31.802, 51.348 33.750 C 51.037 34.987, 51.200 36, 51.710 36 C 52.973 36, 61 29.767, 61 28.786 C 61 27.665, 59.234 27.813, 58.503 28.995 C 58.165 29.542, 56.999 30.465, 55.912 31.047 C 54.131 32, 53.999 31.853, 54.576 29.552 C 55.280 26.747, 54.828 26.487, 51.934 28.035 C 50.219 28.953, 50 28.726, 50 26.035 C 50 22.747, 50.540 22.494, 54.416 23.968 C 56.117 24.615, 56.767 25.444, 56.374 26.468 C 55.502 28.739, 57.755 28.327, 59.008 25.985 C 59.822 24.464, 59.770 23.856, 58.793 23.502 C 54.885 22.086, 48.732 20.010, 48.624 20.070 C 48.556 20.109, 46.700 20.790, 44.500 21.582 M 67.750 27.689 C 65.396 28.305, 65.518 30, 67.917 30 C 68.971 30, 70.034 30.563, 70.280 31.250 C 70.525 31.938, 71.054 32.196, 71.454 31.825 C 72.301 31.041, 71.195 26.944, 70.183 27.116 C 69.807 27.180, 68.713 27.438, 67.750 27.689 M 26.583 29.643 C 26.237 30.547, 26.250 31.559, 26.613 31.893 C 26.977 32.227, 27.475 31.938, 27.720 31.250 C 27.966 30.563, 29.281 30, 30.642 30 C 32.038 30, 32.848 29.564, 32.500 29 C 31.505 27.391, 27.271 27.851, 26.583 29.643 M 25 38.777 C 25 40.533, 28.234 44, 29.871 44 C 30.889 44, 32.318 45.443, 33.262 47.423 L 34.895 50.847 40.115 49.470 C 46.364 47.821, 48.460 46.025, 47.535 43.112 C 47.167 41.950, 46.415 41, 45.865 41 C 45.315 41, 45.131 41.836, 45.455 42.859 C 45.796 43.934, 45.400 45.253, 44.517 45.986 C 43.239 47.046, 42.649 46.823, 40.922 44.627 C 39.191 42.427, 38.055 42, 33.936 42 C 30.100 42, 28.742 41.560, 27.768 40 C 26.514 37.993, 25 37.324, 25 38.777 M 70 40 C 69.158 41.573, 67.906 42, 64.139 42 C 60.329 42, 58.871 42.509, 57.012 44.488 C 55.204 46.412, 54.367 46.719, 53.315 45.846 C 52.567 45.226, 52.208 43.919, 52.518 42.943 C 52.828 41.967, 52.661 40.909, 52.147 40.591 C 51.634 40.274, 50.914 41.206, 50.548 42.663 C 49.670 46.165, 51.383 47.754, 57.885 49.470 L 63.105 50.847 64.738 47.423 C 65.682 45.443, 67.111 44, 68.129 44 C 69.766 44, 73 40.533, 73 38.777 C 73 37.244, 71.050 38.039, 70 40 M 20.427 47.540 C 19.943 50.117, 20.203 51.567, 21.381 52.869 C 22.272 53.853, 23 56.032, 23 57.712 C 23 59.926, 23.551 60.911, 25 61.290 C 26.532 61.690, 27 62.654, 27 65.406 C 27 69.638, 27.552 69.770, 31.335 66.443 C 34.167 63.953, 34.169 63.943, 32.646 59.475 C 31.186 55.189, 31.203 55, 33.061 55 C 34.463 55, 35 55.693, 35 57.500 C 35 60.604, 36.562 60.781, 37.351 57.767 C 38.096 54.918, 37.198 54.069, 32.664 53.333 C 28.495 52.656, 28.375 52.978, 30.523 59.065 C 31.826 62.759, 31.845 63.584, 30.651 64.778 C 29.457 65.972, 29.158 65.656, 28.582 62.587 C 28.176 60.423, 27.332 59, 26.455 59 C 25.519 59, 25 57.974, 25 56.122 C 25 54.540, 24.291 52.656, 23.424 51.937 C 22.292 50.998, 22.023 49.692, 22.469 47.314 C 22.836 45.357, 22.681 44, 22.091 44 C 21.541 44, 20.792 45.593, 20.427 47.540 M 35 46 C 36.125 48.102, 40 48.794, 40 46.893 C 40 46.284, 39.308 46.052, 38.462 46.376 C 37.587 46.712, 36.679 46.327, 36.355 45.483 C 36.042 44.667, 35.368 44, 34.858 44 C 34.334 44, 34.396 44.872, 35 46 M 61.645 45.483 C 61.321 46.327, 60.413 46.712, 59.538 46.376 C 58.692 46.052, 58 46.284, 58 46.893 C 58 47.502, 59.125 48, 60.500 48 C 61.875 48, 63 47.812, 63 47.582 C 63 47.352, 63.273 46.452, 63.607 45.582 C 63.941 44.712, 63.764 44, 63.214 44 C 62.664 44, 61.958 44.667, 61.645 45.483 M 75.513 47.216 C 75.978 49.696, 75.722 50.986, 74.576 51.937 C 73.709 52.656, 73 54.487, 73 56.006 C 73 57.926, 72.391 58.926, 71 59.290 C 69.508 59.680, 69 60.654, 69 63.121 C 69 66.174, 68.875 66.303, 67.375 64.804 C 65.877 63.305, 65.876 62.811, 67.373 58.420 C 68.264 55.803, 68.801 53.467, 68.564 53.231 C 68.328 52.995, 66.264 53.117, 63.978 53.504 C 60.345 54.117, 59.893 54.477, 60.397 56.353 C 60.713 57.534, 60.979 58.837, 60.986 59.250 C 60.994 59.663, 61.480 60, 62.067 60 C 62.657 60, 62.868 59.158, 62.538 58.118 C 62.147 56.888, 62.520 56.015, 63.613 55.595 C 66.076 54.650, 66.275 55.350, 64.872 60.034 C 63.648 64.117, 63.700 64.345, 66.358 66.632 C 70.171 69.911, 71 69.620, 71 65 C 71 61.667, 71.333 61, 73 61 C 74.614 61, 75 60.333, 75 57.550 C 75 55.395, 75.614 53.756, 76.636 53.184 C 77.900 52.476, 78.119 51.449, 77.598 48.669 C 77.226 46.690, 76.461 44.785, 75.897 44.437 C 75.230 44.024, 75.096 44.993, 75.513 47.216 M 48 51 C 48 52.650, 48.450 54, 49 54 C 49.550 54, 50 52.650, 50 51 C 50 49.350, 49.550 48, 49 48 C 48.450 48, 48 49.350, 48 51 M 40.715 57 C 36.919 65.809, 36.633 68.360, 38.933 72.869 L 41.081 77.080 49.286 76.790 L 57.490 76.500 59.365 72.512 C 61.218 68.571, 61.214 68.443, 59.072 61.791 C 57.879 58.088, 56.475 54.794, 55.952 54.470 C 54.467 53.553, 54.815 55.788, 57.156 62.208 C 59.202 67.819, 59.229 68.298, 57.672 71.561 C 56.339 74.357, 55.468 75, 53.016 75 C 49.630 75, 48.969 73.462, 51.949 72.516 C 53.021 72.176, 54.146 71.021, 54.449 69.949 C 54.752 68.877, 55.240 67.149, 55.533 66.109 C 55.936 64.679, 55.327 63.961, 53.033 63.161 C 51.284 62.552, 50 61.395, 50 60.430 C 50 59.055, 50.268 58.978, 51.500 60 C 52.710 61.004, 53 60.978, 53 59.863 C 53 59.103, 52.100 57.919, 51 57.232 C 49.401 56.233, 48.599 56.233, 47 57.232 C 45.900 57.919, 45 59.103, 45 59.863 C 45 60.978, 45.290 61.004, 46.500 60 C 47.730 58.979, 48 59.052, 48 60.409 C 48 61.319, 47.438 62.230, 46.750 62.435 C 42.022 63.845, 42.131 63.677, 43.203 67.903 C 43.833 70.383, 44.954 72.168, 46.114 72.536 C 49.041 73.465, 48.337 75, 44.984 75 C 42.534 75, 41.661 74.357, 40.334 71.574 C 38.781 68.317, 38.811 67.854, 40.952 62.129 C 43.401 55.579, 43.201 51.232, 40.715 57 M 46.250 64.662 C 45.563 64.940, 45 65.974, 45 66.961 C 45 71.431, 52.218 72.492, 52.837 68.113 C 53.311 64.763, 50.130 63.097, 46.250 64.662 M 44.823 80.223 C 46.239 81.639, 51.734 81.666, 53.137 80.263 C 53.896 79.504, 52.686 79.182, 48.959 79.153 C 45.113 79.123, 44.009 79.409, 44.823 80.223 " stroke="none" fill="black" fill-rule="evenodd"/>
</svg>