<svg id="Layer_1" data-name="Layer 1" xmlns="http://www.w3.org/2000/svg" xmlns:xlink="http://www.w3.org/1999/xlink" viewBox="0 0 365.79 224.86"><defs><style>.cls-1{fill:url(#未命名的渐变_28);}.cls-2{fill:url(#未命名的渐变_28-2);}.cls-3{fill:url(#未命名的渐变_28-3);}</style><linearGradient id="未命名的渐变_28" x1="56.42" y1="252.84" x2="398.1" y2="273.51" gradientUnits="userSpaceOnUse"><stop offset="0" stop-color="#3fc7f4"/><stop offset="1" stop-color="#6662ac"/></linearGradient><linearGradient id="未命名的渐变_28-2" x1="-14.57" y1="94.41" x2="327.12" y2="115.08" xlink:href="#未命名的渐变_28"/><linearGradient id="未命名的渐变_28-3" x1="-14.98" y1="101.23" x2="326.71" y2="121.89" xlink:href="#未命名的渐变_28"/></defs><title>dcc logo gradient</title><path class="cls-1" d="M91.58,367.4,71.94,356.06V153.88l19.64-11.34,87.55,50.55,6.55,11.34V305.51l-6.55,11.34Zm6.55-190.84V333.38L159.49,298V212Z" transform="translate(-71.94 -142.54)"/><polygon class="cls-2" points="339.6 145.21 283.32 177.7 226.79 145.07 226.79 79.79 283.32 47.16 339.6 79.65 365.79 64.53 283.32 16.92 200.61 64.67 200.61 160.19 283.32 207.94 365.79 160.33 339.6 145.21"/><polygon class="cls-3" points="192.97 164.6 170.26 177.7 113.73 145.07 113.73 79.79 170.26 47.16 192.97 60.27 219.16 45.15 170.26 16.92 87.55 64.67 87.55 160.19 170.26 207.94 219.16 179.71 192.97 164.6"/></svg>