<svg xmlns="http://www.w3.org/2000/svg" width="100" height="100" viewBox="0 0 100 100" version="1.1">
	<path d="M 45.861 11.908 C 43.702 13.653, 43.457 14.767, 43 24.917 L 42.500 36.018 34 31.032 C 29.325 28.290, 24.242 26.036, 22.705 26.023 C 17.130 25.977, 13.263 32.885, 16 38 C 16.550 39.028, 20.822 42.036, 25.493 44.684 C 30.165 47.333, 33.987 49.725, 33.987 50 C 33.987 50.275, 30.165 52.667, 25.493 55.316 C 20.822 57.964, 16.550 60.972, 16 62 C 13.263 67.115, 17.130 74.023, 22.705 73.977 C 24.242 73.964, 29.325 71.710, 34 68.968 L 42.500 63.982 43 75.083 C 43.457 85.233, 43.702 86.347, 45.861 88.092 C 49.176 90.771, 53.171 90.510, 56.076 87.424 C 58.229 85.137, 58.556 83.700, 59 74.571 L 59.500 64.293 67.959 69.147 C 77.378 74.551, 79.535 74.940, 83.365 71.927 C 85.402 70.325, 86 68.975, 86 65.978 C 86 61.621, 84.172 59.837, 73.750 54.019 C 70.588 52.253, 68 50.441, 68 49.991 C 68 49.540, 71.037 47.497, 74.750 45.450 C 84.242 40.216, 86 38.411, 86 33.898 C 86 31.035, 85.375 29.654, 83.365 28.073 C 79.535 25.060, 77.378 25.449, 67.959 30.852 L 59.500 35.704 59.250 27.102 C 58.939 16.391, 58.521 14.563, 55.799 12.028 C 53.064 9.480, 48.927 9.430, 45.861 11.908 M 46.557 15.223 C 45.398 16.877, 45.002 20.007, 45.006 27.473 C 45.013 37.435, 45.031 37.510, 47.846 39.112 C 50.315 40.516, 51.023 40.544, 53.340 39.330 C 55.963 37.955, 56 37.791, 56 27.402 C 56 21.609, 55.534 15.998, 54.965 14.934 C 53.502 12.200, 48.555 12.370, 46.557 15.223 M 19.200 30.200 C 18.540 30.860, 18 32.670, 18 34.222 C 18 37.243, 21.013 39.620, 32.394 45.579 C 37.588 48.298, 37.842 48.333, 40.380 46.671 C 42.197 45.480, 43 44.076, 43 42.090 C 43 39.529, 42.048 38.684, 34.008 34.113 C 24.921 28.946, 21.388 28.012, 19.200 30.200 M 67.250 34.144 C 59.772 38.644, 59 39.397, 59 42.194 C 59 45.258, 61.212 47.905, 63.825 47.968 C 65.442 48.007, 78.636 40.411, 81.750 37.648 C 84.476 35.229, 84.619 32.870, 82.171 30.655 C 79.303 28.059, 76.129 28.801, 67.250 34.144 M 45 42 C 45 42.550, 45.702 43, 46.559 43 C 47.416 43, 47.840 42.550, 47.500 42 C 47.160 41.450, 46.459 41, 45.941 41 C 45.423 41, 45 41.450, 45 42 M 54.500 42 C 54.160 42.550, 54.359 43, 54.941 43 C 55.523 43, 56 42.550, 56 42 C 56 41.450, 55.802 41, 55.559 41 C 55.316 41, 54.840 41.450, 54.500 42 M 47.166 45.840 C 44.053 48.234, 44.535 52.562, 48.158 54.747 C 50.609 56.227, 51.016 56.219, 53.408 54.652 C 56.764 52.453, 56.954 47.782, 53.777 45.557 C 50.963 43.585, 50.046 43.624, 47.166 45.840 M 41 50 C 41 50.550, 41.450 51, 42 51 C 42.550 51, 43 50.550, 43 50 C 43 49.450, 42.550 49, 42 49 C 41.450 49, 41 49.450, 41 50 M 59 50 C 59 50.550, 59.450 51, 60 51 C 60.550 51, 61 50.550, 61 50 C 61 49.450, 60.550 49, 60 49 C 59.450 49, 59 49.450, 59 50 M 28.531 56.567 C 18.390 62.359, 18 62.706, 18 65.922 C 18 72.524, 22.352 72.515, 34.008 65.887 C 42.009 61.338, 43 60.463, 43 57.944 C 43 55.238, 40.005 51.990, 37.527 52.007 C 36.962 52.012, 32.914 54.063, 28.531 56.567 M 60.750 53.392 C 59.749 54.152, 59 56.040, 59 57.802 C 59 60.613, 59.755 61.328, 67.594 65.942 C 76.633 71.262, 79.841 72.016, 82.429 69.429 C 86.105 65.753, 83.842 62.775, 72.326 56.136 C 64.551 51.654, 63.399 51.381, 60.750 53.392 M 45 58 C 45 58.550, 45.423 59, 45.941 59 C 46.459 59, 47.160 58.550, 47.500 58 C 47.840 57.450, 47.416 57, 46.559 57 C 45.702 57, 45 57.450, 45 58 M 54.500 58 C 54.840 58.550, 55.316 59, 55.559 59 C 55.802 59, 56 58.550, 56 58 C 56 57.450, 55.523 57, 54.941 57 C 54.359 57, 54.160 57.450, 54.500 58 M 47.752 60.907 C 45.043 62.477, 45.004 62.644, 45.002 72.527 C 45 84.068, 46.219 87, 51.022 87 C 55.193 87, 56 84.663, 56 72.591 C 56 62.092, 55.989 62.046, 53.250 60.682 C 50.872 59.498, 50.129 59.529, 47.752 60.907 " stroke="none" fill="black" fill-rule="evenodd"/>
</svg>