<svg xmlns="http://www.w3.org/2000/svg" width="100" height="100" viewBox="0 0 100 100" version="1.1">
	<path d="M 40.618 11.048 C 34.290 12.638, 25.284 17.968, 20.912 22.711 C 18.667 25.147, 15.405 30.147, 13.665 33.820 C 10.799 39.869, 10.500 41.402, 10.500 50.052 C 10.500 59.067, 10.710 60.028, 14.235 67.160 C 18.733 76.262, 24.523 81.931, 33.820 86.335 C 39.861 89.197, 41.409 89.500, 50 89.500 C 58.591 89.500, 60.139 89.197, 66.180 86.335 C 75.477 81.931, 81.267 76.262, 85.765 67.160 C 89.294 60.020, 89.500 59.075, 89.500 50 C 89.500 40.925, 89.294 39.980, 85.765 32.840 C 79.008 19.167, 67.003 11.144, 52.249 10.442 C 47.987 10.239, 42.753 10.512, 40.618 11.048 M 35.794 35.250 C 35.507 42.332, 35.436 42.507, 32.750 42.816 C 30.590 43.065, 30 43.655, 30 45.566 C 30 47.604, 30.489 48, 33 48 L 36 48 36 60 L 36 72 45.250 71.994 C 56.555 71.988, 60.968 70.845, 65.684 66.704 C 78.191 55.723, 74.067 34.067, 58.596 29.473 C 55.868 28.663, 49.688 28, 44.862 28 L 36.088 28 35.794 35.250 M 42 38 L 42 43 47.500 43 C 52.700 43, 53 43.136, 53 45.500 C 53 47.864, 52.700 48, 47.500 48 L 42 48 42 57.609 L 42 67.219 49.449 66.842 C 57.426 66.440, 60.421 64.995, 64.438 59.615 C 67.379 55.676, 67.381 44.355, 64.441 40.323 C 61.246 35.941, 54.558 33, 47.788 33 L 42 33 42 38 " stroke="none" fill="black" fill-rule="evenodd"/>
</svg>