<svg xmlns="http://www.w3.org/2000/svg" width="100" height="100" viewBox="0 0 100 100" version="1.1">
	<path d="M 44.427 10.911 C 40.062 12.792, 20.419 24.872, 18.788 26.678 C 14.927 30.953, 14 35.468, 14 50 C 14 64.532, 14.927 69.049, 18.788 73.321 C 19.730 74.363, 25.900 78.429, 32.500 82.358 C 43.806 89.087, 44.847 89.500, 50.500 89.500 C 56.163 89.500, 57.177 89.095, 68.554 82.295 C 81.775 74.392, 83.195 73.171, 85.462 67.746 C 87.638 62.538, 87.638 37.462, 85.462 32.254 C 83.175 26.781, 81.613 25.442, 68.500 17.705 C 58.643 11.890, 55.607 10.571, 51.500 10.322 C 48.750 10.155, 45.567 10.420, 44.427 10.911 M 40.476 17.005 C 29.769 22.634, 22.079 27.900, 19.569 31.319 C 17.763 33.780, 17.458 35.877, 17.167 47.819 C 16.971 55.869, 17.285 63.005, 17.930 65.157 C 19.360 69.936, 23.570 73.510, 36.167 80.645 C 49.835 88.387, 51.207 88.380, 64.995 80.503 C 83.199 70.105, 83.989 68.836, 83.989 50 C 83.989 31.226, 83.154 29.869, 65.350 19.700 C 51.757 11.936, 50.398 11.789, 40.476 17.005 M 45.750 33.383 C 43.138 36.932, 41 40.740, 41 41.845 C 41 43.975, 45.338 48, 47.635 48 C 49.223 48, 49.345 48.906, 48.035 50.977 C 47.396 51.988, 47.610 53.016, 48.713 54.235 C 50.207 55.886, 50.456 55.897, 52.130 54.382 C 53.474 53.166, 53.688 52.286, 52.968 50.940 C 51.675 48.524, 51.745 48, 53.365 48 C 55.673 48, 60 43.970, 60 41.821 C 60 40.702, 58.313 37.634, 56.250 35.002 C 54.188 32.371, 52.050 29.479, 51.500 28.575 C 50.660 27.195, 49.738 27.966, 45.750 33.383 M 37.284 53.767 C 33.866 54.327, 30 59.575, 30 63.654 C 30 68.002, 34.531 73, 38.473 73 C 41.908 73, 47 70.333, 47 68.533 C 47 66.255, 45.261 65.815, 42.279 67.339 C 37.055 70.009, 32.820 66.011, 35.391 60.834 C 37.516 56.555, 40.168 57.420, 49.538 65.449 C 56.616 71.512, 58.997 73, 61.621 73 C 66.288 73, 69.992 69.477, 70.674 64.390 C 71.148 60.863, 70.821 59.832, 68.363 57.081 C 65.063 53.390, 60.503 52.704, 56.804 55.342 C 55.537 56.247, 53.543 57.682, 52.374 58.533 C 50.404 59.966, 50.028 59.895, 47.263 57.568 C 43.695 54.566, 40.300 53.272, 37.284 53.767 M 56.894 60.803 L 53.626 63.724 57.656 66.391 C 62.071 69.313, 64.176 69.105, 65.778 65.588 C 66.532 63.933, 66.493 62.613, 65.638 60.893 C 63.916 57.425, 60.712 57.392, 56.894 60.803 " stroke="none" fill="black" fill-rule="evenodd"/>
</svg>