<?xml version="1.0" encoding="UTF-8"?>
<svg width="28px" height="28px" viewBox="0 0 28 28" version="1.1" xmlns="http://www.w3.org/2000/svg" xmlns:xlink="http://www.w3.org/1999/xlink">
    <!-- Generator: Sketch 50.2 (55047) - http://www.bohemiancoding.com/sketch -->
    <title>educoin</title>
    <desc>Created with Sketch.</desc>
    <defs>
        <linearGradient x1="68.3747914%" y1="82.1792258%" x2="27.7276135%" y2="18.5060811%" id="linearGradient-1">
            <stop stop-color="#346CEA" offset="3%"></stop>
            <stop stop-color="#51D372" offset="99%"></stop>
        </linearGradient>
        <linearGradient x1="147.460811%" y1="83.7711203%" x2="-48.5585237%" y2="16.2572767%" id="linearGradient-2">
            <stop stop-color="#346CEA" offset="3%"></stop>
            <stop stop-color="#429DB1" offset="47%"></stop>
            <stop stop-color="#51D372" offset="99%"></stop>
        </linearGradient>
        <linearGradient x1="41.4211755%" y1="76.7308184%" x2="90.2013427%" y2="-4.72138136%" id="linearGradient-3">
            <stop stop-color="#346CEA" offset="3%"></stop>
            <stop stop-color="#3E8FC1" offset="33%"></stop>
            <stop stop-color="#4CC088" offset="78%"></stop>
            <stop stop-color="#51D372" offset="99%"></stop>
        </linearGradient>
        <linearGradient x1="155.401697%" y1="84.6872809%" x2="-55.6905322%" y2="15.9378686%" id="linearGradient-4">
            <stop stop-color="#346CEA" offset="3%"></stop>
            <stop stop-color="#4096B9" offset="44%"></stop>
            <stop stop-color="#51D372" offset="99%"></stop>
        </linearGradient>
    </defs>
    <g id="Wallet" stroke="none" stroke-width="1" fill="none" fill-rule="evenodd">
        <g id="Artboard" transform="translate(-98.000000, -35.000000)">
            <g id="educoin" transform="translate(98.000000, 35.000000)">
                <g id="Group-2">
                    <circle id="Oval-2-Copy" fill="#F1F0F0" cx="14" cy="14" r="14"></circle>
                    <g id="Asset-1" transform="translate(5.000000, 4.000000)">
                        <path d="M10.7107692,8.13809524 C8.8,7.01269841 6.92307692,5.81587302 5.04615385,4.64126984 C4.91549499,4.53649425 4.7359176,4.52515068 4.59384615,4.61269841 C3.85384615,5.04603175 3.11384615,5.47619048 2.36769231,5.89365079 C2.12153846,6.03174603 2.12307692,6.10952381 2.36769231,6.25238095 C3.9974359,7.2047619 5.62307692,8.16560847 7.24461538,9.13492063 C7.61384615,9.35238095 7.98,9.57460317 8.35230769,9.78730159 C8.58961187,9.91477594 8.77944925,10.1195682 8.89230769,10.3698413 L11.4338462,8.84920635 C11.2688273,8.5415726 11.0164999,8.29342079 10.7107692,8.13809524 Z" id="Shape"></path>
                        <path d="M16.9323077,4.41428571 C15.9076923,3.84285714 14.9046154,3.22698413 13.8938462,2.62857143 C12.5615385,1.83492063 11.2323077,1.04126984 9.89384615,0.258730159 C9.40021021,-0.0556824591 8.78428246,-0.0850862075 8.26461538,0.180952381 C7.81076923,0.40952381 7.38461538,0.693650794 6.93230769,0.952380952 C4.88307692,2.16349206 2.83538462,3.38095238 0.778461538,4.58730159 C0.372575565,4.80459949 0.130715097,5.25002585 0.163076923,5.72063492 C0.170769231,6.13650794 0.18,6.55238095 0.163076923,6.96825397 C0.130289935,7.21571749 0.257515456,7.45636894 0.476923077,7.56190476 C2.51384615,8.75555556 4.53846154,9.96825397 6.57538462,11.1603175 C6.73250779,11.2430046 6.86095578,11.3738668 6.94307692,11.5349206 L8.89076923,10.3698413 C8.77791079,10.1195682 8.58807341,9.91477594 8.35076923,9.78730159 C7.97846154,9.57460317 7.61230769,9.35238095 7.24307692,9.13492063 C5.61846154,8.17301587 3.99282051,7.21216931 2.36615385,6.25238095 C2.12307692,6.10952381 2.12153846,6.03174603 2.36615385,5.89365079 C3.11230769,5.47619048 3.85230769,5.04603175 4.59230769,4.61269841 C4.73437914,4.52515068 4.91395653,4.53649425 5.04461538,4.64126984 C6.92769231,5.81587302 8.79846154,7.01269841 10.7092308,8.13333333 C11.0143916,8.28892261 11.2661559,8.53704849 11.4307692,8.84444444 L13.4307692,7.65079365 C13.2998738,7.40007071 13.100282,7.19469469 12.8569231,7.06031746 C10.9046154,5.8968254 8.96461538,4.71111111 7.01846154,3.53650794 C6.85384615,3.43809524 6.74461538,3.36190476 6.98615385,3.21904762 C7.61487179,2.87195767 8.2425641,2.51587302 8.86923077,2.15079365 C9.00168862,2.06738138 9.16975473,2.07426736 9.29538462,2.16825397 C11.32,3.4031746 13.3497436,4.63492063 15.3846154,5.86349206 C15.5488967,5.95276695 15.6838186,6.09031484 15.7723077,6.25873016 L17.6707692,5.12222222 C17.5010487,4.8134949 17.2431765,4.56628208 16.9323077,4.41428571 Z" id="Shape" fill="url(#linearGradient-1)" fill-rule="nonzero"></path>
                        <path d="M11.5523077,18.8349206 C11.5523077,18.8349206 11.5523077,18.8349206 11.5523077,18.8349206 L13.5784615,17.6285714 C13.5676923,16.5460317 13.5784615,14.5349206 13.5784615,13.8285714 C13.5784615,12.1798942 13.5784615,10.5301587 13.5784615,8.87936508 L13.5784615,8.38730159 C13.5851967,8.13414786 13.5324102,7.88307678 13.4246154,7.65555556 L11.4246154,8.84920635 C11.4676923,8.82380952 11.5661538,9.47460317 11.5661538,9.52380952 C11.6384615,12.6269841 11.5846154,15.731746 11.5523077,18.8349206 Z" id="Shape" fill="url(#linearGradient-2)" fill-rule="nonzero"></path>
                        <path d="M8.89076923,10.3698413 L6.94307692,11.5349206 C7.00259198,11.6624422 7.03110611,11.8030013 7.02615385,11.9444444 C7.02615385,13.6544974 7.02615385,15.3634921 7.02615385,17.0714286 C7.02615385,17.4301587 7,17.4428571 6.70769231,17.2698413 C5.53538462,16.5777778 4.36358974,15.884127 3.19230769,15.1888889 C2.29487179,14.6597884 1.39794872,14.1306878 0.501538462,13.6015873 C0.209230769,13.4238095 0.164615385,13.4492063 0.153846154,13.7825397 C0.153846154,14.0746032 0.153846154,14.368254 0.153846154,14.6603175 C0.116433285,15.1709903 0.387230236,15.652834 0.835384615,15.8730159 C2.11538462,16.6222222 3.38769231,17.3825397 4.66153846,18.1396825 C5.52,18.6507937 6.36923077,19.1809524 7.23846154,19.6714286 C8.10769231,20.1619048 9.00923077,19.5920635 9.00923077,18.6047619 C9.00923077,16.0650794 9.00923077,13.5253968 9.00923077,10.9857143 C9.0140913,10.7739358 8.97364445,10.5636555 8.89076923,10.3698413 Z" id="Shape" fill="url(#linearGradient-3)" fill-rule="nonzero"></path>
                        <path d="M17.8461538,6.0031746 C17.8579599,5.69830675 17.7949892,5.39529654 17.6630769,5.12222222 L15.7646154,6.25873016 C15.8345782,6.40670766 15.8673774,6.57045208 15.86,6.73492063 C15.8430769,8.2968254 15.86,9.86031746 15.8507692,11.4222222 C15.8507692,13.0412698 15.8507692,14.6603175 15.8507692,16.2793651 C15.8507692,16.4047619 15.8323077,16.5968254 15.9969231,16.547619 C16.2430769,16.4857143 16.4492308,16.3047619 16.6646154,16.1746032 C16.912228,16.0342173 17.1525561,15.8805684 17.3846154,15.7142857 C17.7246154,15.4603175 17.8461538,14.9888889 17.8461538,14.5761905 C17.8246154,11.7142857 17.8138462,8.85873016 17.8461538,6.0031746 Z" id="Shape" fill="url(#linearGradient-4)" fill-rule="nonzero"></path>
                        <path d="M0.410769231,11.7063492 C1.02615385,12.0492063 1.62769231,12.4095238 2.23538462,12.7603175 C3.21538462,13.3238095 4.19846154,13.8825397 5.17538462,14.452381 C5.41076923,14.5904762 5.48307692,14.5238095 5.47384615,14.2634921 C5.46461538,14.0269841 5.47384615,13.7873016 5.47384615,13.5555556 C5.46152019,13.3647619 5.46152019,13.1733333 5.47384615,12.9825397 C5.51538462,12.6507937 5.36923077,12.4666667 5.09692308,12.3190476 C4.51846154,12.0015873 3.95076923,11.6714286 3.38,11.3428571 C2.41076923,10.784127 1.44153846,10.2222222 0.470769231,9.66507937 C0.203076923,9.50634921 0.163076923,9.53968254 0.163076923,9.86349206 C0.163076923,10.3253968 0.163076923,10.7857143 0.163076923,11.2460317 C0.143115836,11.4380471 0.24225592,11.6222914 0.410769231,11.7063492 Z" id="Shape" fill="#346CEA" fill-rule="nonzero"></path>
                    </g>
                </g>
            </g>
        </g>
    </g>
</svg>