<svg xmlns="http://www.w3.org/2000/svg" width="100" height="100" viewBox="0 0 100 100" version="1.1">
	<path d="M 46.923 12.923 C 45.315 14.531, 44 16.578, 44 17.473 C 44 19.944, 46.722 24.679, 48.545 25.379 C 57.100 28.662, 63.936 18.845, 57.545 12.455 C 54.243 9.152, 50.530 9.316, 46.923 12.923 M 16.299 19.960 C 6.367 26.015, 8.797 39.539, 20.327 42.380 C 22.351 42.879, 24.725 42.357, 28.697 40.538 C 36.778 36.839, 40.012 37.136, 44.622 42 C 48.694 46.298, 50.940 46.917, 53.429 44.429 C 55.443 42.414, 55.434 39.577, 53.407 37.549 C 52.186 36.329, 50.698 36.104, 47.047 36.588 C 40.534 37.452, 38.598 36.138, 34.552 28.103 C 29.701 18.471, 23.372 15.647, 16.299 19.960 M 66.180 34.682 C 54.353 40.510, 54.247 57.589, 66 63.785 C 77.724 69.966, 91.498 60.203, 89.723 46.971 C 88.287 36.269, 75.988 29.849, 66.180 34.682 M 45.513 55.395 C 41.379 60.814, 38.488 61.512, 30.963 58.908 C 27.465 57.697, 23.380 56.742, 21.886 56.784 C 8.469 57.166, 6.078 76.247, 18.963 80.107 C 26.141 82.258, 31.876 78.901, 34.494 71.017 C 35.477 68.060, 37.406 64.995, 39.275 63.422 C 41.985 61.141, 43.014 60.867, 46.872 61.396 C 50.259 61.860, 51.776 61.608, 53.167 60.349 C 55.500 58.237, 55.502 55.764, 53.171 53.655 C 50.426 51.170, 48.380 51.635, 45.513 55.395 M 48.229 73.669 C 46.686 74.290, 44 79.281, 44 81.527 C 44 84.120, 49.530 89, 52.469 89 C 56.235 89, 60 84.861, 60 80.720 C 60 75.019, 53.922 71.379, 48.229 73.669 " stroke="none" fill="black" fill-rule="evenodd"/>
</svg>