<svg xmlns="http://www.w3.org/2000/svg" width="100" height="100" viewBox="0 0 100 100" version="1.1">
	<path d="M 42.045 11.092 C 26.342 14.171, 13.884 27.216, 10.798 43.813 C 5.974 69.749, 30.504 93.938, 56.729 89.106 C 70.248 86.615, 80.366 78.779, 86.335 66.180 C 89.201 60.131, 89.500 58.598, 89.500 49.947 C 89.500 40.914, 89.295 39.980, 85.728 32.763 C 77.425 15.965, 60.365 7.501, 42.045 11.092 M 42.407 11.970 C 31.132 14.373, 20.916 22.362, 15.781 32.794 C 12.703 39.045, 12.500 40.110, 12.500 49.979 C 12.500 59.282, 12.808 61.157, 15.160 66.175 C 22.506 81.846, 40.380 91.251, 56.766 88.068 C 77.464 84.049, 91.675 63.975, 88.119 43.785 C 86.529 34.758, 82.805 27.961, 75.996 21.657 C 66.947 13.279, 53.909 9.519, 42.407 11.970 M 40.929 18.367 C 19.983 24.015, 9.898 45.670, 20.235 62.803 C 22.774 67.010, 23.480 66.393, 21.513 61.686 C 20.681 59.694, 20.020 57.037, 20.044 55.782 C 20.077 54.059, 20.407 54.395, 21.394 57.156 C 24.656 66.288, 31.696 75.139, 37.688 77.643 C 39.794 78.523, 45.043 79, 52.622 79 C 64.101 79, 64.418 78.939, 70.519 75.527 C 76.060 72.428, 76.797 71.646, 77.354 68.277 C 78.346 62.274, 78.138 61.269, 75.779 60.652 L 73.557 60.071 76.279 57.231 C 78.589 54.819, 79 53.531, 79 48.695 L 79 43 75.804 43 L 72.608 43 75.809 39.697 L 79.009 36.395 77.473 31.219 L 75.936 26.044 57.218 25.772 L 38.500 25.500 43.275 23.275 C 45.901 22.051, 51.076 20.510, 54.775 19.850 C 60.241 18.874, 61.032 18.514, 59 17.924 C 55.086 16.789, 45.952 17.013, 40.929 18.367 M 36.655 38.829 C 33.144 42.708, 34.240 43, 52.288 43 L 69.576 43 73.038 40.041 L 76.500 37.081 57.405 37.041 C 40.145 37.004, 38.151 37.176, 36.655 38.829 M 35 55.809 C 35 56.254, 35.614 57.458, 36.365 58.485 C 37.575 60.139, 39.541 60.398, 53.615 60.759 L 69.500 61.167 73 58.124 L 76.500 55.081 55.750 55.041 C 44.337 55.018, 35 55.364, 35 55.809 M 32.333 72.908 C 35.238 76.414, 41.307 77.956, 52.283 77.978 C 62.138 77.998, 63.516 77.763, 68.283 75.250 L 73.500 72.500 68 72.266 C 64.975 72.137, 55.450 71.912, 46.833 71.766 C 33.453 71.539, 31.336 71.706, 32.333 72.908 " stroke="none" fill="black" fill-rule="evenodd"/>
</svg>