<svg xmlns="http://www.w3.org/2000/svg" width="100" height="100" viewBox="0 0 100 100" version="1.1">
	<path d="M 40.618 11.048 C 34.290 12.638, 25.284 17.968, 20.912 22.711 C 18.667 25.147, 15.405 30.147, 13.665 33.820 C 10.799 39.869, 10.500 41.402, 10.500 50.052 C 10.500 59.067, 10.710 60.028, 14.235 67.160 C 18.733 76.262, 24.523 81.931, 33.820 86.335 C 39.861 89.197, 41.409 89.500, 50 89.500 C 58.591 89.500, 60.139 89.197, 66.180 86.335 C 75.477 81.931, 81.267 76.262, 85.765 67.160 C 89.294 60.020, 89.500 59.075, 89.500 50 C 89.500 40.925, 89.294 39.980, 85.765 32.840 C 79.008 19.167, 67.003 11.144, 52.249 10.442 C 47.987 10.239, 42.753 10.512, 40.618 11.048 M 36.656 29.133 C 34.475 30.400, 32 35.894, 32 39.468 C 32 41.840, 32.316 42, 37 42 C 41.667 42, 42 41.833, 42 39.500 L 42 37 54.906 37 C 67.785 37, 67.812 36.995, 67.268 34.750 C 66.969 33.513, 65.808 31.488, 64.688 30.250 C 62.787 28.150, 61.849 28.002, 50.576 28.030 C 43.860 28.047, 37.682 28.536, 36.656 29.133 M 33 47.326 C 33 48.605, 34.160 50.742, 35.578 52.076 C 38.020 54.373, 38.911 54.517, 52.578 54.824 L 67 55.148 66.968 52.824 C 66.930 50.068, 65.321 47.764, 62.316 46.163 C 60.964 45.443, 54.961 45, 46.566 45 C 33.033 45, 33 45.006, 33 47.326 M 58 60.500 L 58 63 45.052 63 L 32.104 63 33.155 66.016 C 34.982 71.256, 37.143 72, 50.548 72 C 61.895 72, 62.787 71.856, 64.818 69.693 C 66.076 68.355, 67.255 65.418, 67.629 62.693 L 68.272 58 63.136 58 C 58.324 58, 58 58.158, 58 60.500 " stroke="none" fill="black" fill-rule="evenodd"/>
</svg>