<svg xmlns="http://www.w3.org/2000/svg" width="100" height="100" viewBox="0 0 100 100" version="1.1">
	<path d="M 40.618 11.048 C 34.290 12.638, 25.284 17.968, 20.912 22.711 C 18.667 25.147, 15.405 30.147, 13.665 33.820 C 10.799 39.869, 10.500 41.402, 10.500 50.052 C 10.500 59.067, 10.710 60.028, 14.235 67.160 C 18.733 76.262, 24.523 81.931, 33.820 86.335 C 39.861 89.197, 41.409 89.500, 50 89.500 C 58.591 89.500, 60.139 89.197, 66.180 86.335 C 75.477 81.931, 81.267 76.262, 85.765 67.160 C 89.294 60.020, 89.500 59.075, 89.500 50 C 89.500 40.925, 89.294 39.980, 85.765 32.840 C 79.008 19.167, 67.003 11.144, 52.249 10.442 C 47.987 10.239, 42.753 10.512, 40.618 11.048 M 40.358 20.033 C 31.821 22.664, 22.262 32.620, 19.904 41.337 C 18.060 48.157, 19.226 58.807, 22.469 64.766 C 25.281 69.933, 29.562 74.771, 30.495 73.838 C 30.772 73.562, 30.368 68.847, 29.598 63.360 C 27.539 48.684, 29.140 42.720, 37.060 35.565 C 41.531 31.526, 47.293 28.677, 58.414 25.009 L 65.328 22.728 62.414 21.184 C 58.953 19.351, 44.944 18.620, 40.358 20.033 M 72.500 31.653 C 71.400 32.486, 65.726 35.577, 59.892 38.521 C 49.031 44.002, 44.479 47.954, 43.416 52.827 C 43.095 54.297, 42.637 56.122, 42.397 56.882 C 42.055 57.967, 42.932 58.155, 46.466 57.757 C 53.481 56.966, 61.407 52.569, 65.726 47.073 C 69.125 42.746, 74.703 38.369, 75.633 39.299 C 75.831 39.498, 75.279 41.760, 74.405 44.325 C 72.432 50.115, 65.981 57.389, 56.084 64.981 C 51.913 68.181, 46.525 72.837, 44.112 75.328 L 39.723 79.857 43.457 80.558 C 49.353 81.664, 59.142 80.478, 63.821 78.091 C 73.835 72.982, 80.051 63.596, 80.769 52.500 C 81.275 44.678, 80.117 39.284, 76.761 33.819 C 74.645 30.374, 74.372 30.236, 72.500 31.653 " stroke="none" fill="black" fill-rule="evenodd"/>
</svg>