<svg xmlns="http://www.w3.org/2000/svg" width="100" height="100" viewBox="0 0 100 100" version="1.1">
	<path d="M 40.618 11.048 C 34.290 12.638, 25.284 17.968, 20.912 22.711 C 18.667 25.147, 15.405 30.147, 13.665 33.820 C 10.799 39.869, 10.500 41.402, 10.500 50.052 C 10.500 59.067, 10.710 60.028, 14.235 67.160 C 18.733 76.262, 24.523 81.931, 33.820 86.335 C 39.861 89.197, 41.409 89.500, 50 89.500 C 58.591 89.500, 60.139 89.197, 66.180 86.335 C 75.477 81.931, 81.267 76.262, 85.765 67.160 C 89.294 60.020, 89.500 59.075, 89.500 50 C 89.500 40.925, 89.294 39.980, 85.765 32.840 C 79.008 19.167, 67.003 11.144, 52.249 10.442 C 47.987 10.239, 42.753 10.512, 40.618 11.048 M 38.324 14.383 C 32.294 16.350, 27.929 19.299, 22.573 25.026 C 15.167 32.943, 13.500 37.531, 13.500 50 C 13.500 59.427, 13.781 61.072, 16.246 66.091 C 19.548 72.815, 21.709 74.919, 26.397 75.977 C 33.096 77.488, 39.497 71.692, 41.457 62.343 C 42.104 59.252, 42.011 59.154, 37.010 57.688 C 30.705 55.839, 25.742 52.527, 23.440 48.629 C 21.745 45.760, 21.750 45.690, 23.595 46.406 C 31.388 49.430, 43.105 49.065, 49.827 45.590 C 56.670 42.051, 60.983 34.196, 60.994 25.250 C 61.001 19.937, 62.366 19.838, 64.980 24.960 C 68.613 32.082, 67.693 43.652, 62.488 56.301 C 61.838 57.881, 62.099 58.004, 64.624 57.301 C 66.206 56.860, 69.628 56.503, 72.229 56.507 C 78.599 56.516, 81.437 59.260, 81.474 65.445 C 81.506 70.894, 82.388 70.167, 85.112 62.442 C 86.798 57.662, 87.125 54.838, 86.787 48 C 86.263 37.440, 83.957 31.949, 76.915 24.504 C 69.342 16.497, 62.889 13.645, 51.556 13.298 C 45.888 13.125, 40.938 13.531, 38.324 14.383 M 40.542 17.720 C 32.197 19.880, 28.097 32.030, 33.644 38.160 C 35.207 39.886, 35.254 40.282, 33.979 41.014 C 33.166 41.481, 31.600 42.598, 30.500 43.496 C 28.621 45.031, 28.989 45.102, 36.582 44.671 C 49.909 43.914, 56.167 39.342, 56.167 30.360 C 56.167 25.561, 54.302 21.870, 50.736 19.612 C 48.055 17.914, 43.242 17.021, 40.542 17.720 M 69.500 66.239 C 67.850 66.833, 61.818 70.272, 56.096 73.880 C 48.961 78.380, 43.620 80.964, 39.096 82.105 L 32.500 83.768 37.932 85.384 C 40.919 86.273, 46.639 87, 50.644 87 C 60.355 87, 67.425 84.292, 74.431 77.889 C 79.615 73.151, 79.819 72.779, 78.811 69.889 C 78.221 68.194, 76.678 66.448, 75.312 65.929 C 73.969 65.418, 72.787 65.036, 72.685 65.079 C 72.583 65.122, 71.150 65.644, 69.500 66.239 " stroke="none" fill="black" fill-rule="evenodd"/>
</svg>