<svg xmlns="http://www.w3.org/2000/svg" width="100" height="100" viewBox="0 0 100 100" version="1.1">
	<path d="M 44.713 18.319 C 42.162 22.345, 39.836 26.282, 39.543 27.069 C 39.199 27.993, 40.957 29.850, 44.505 32.310 L 50 36.120 55.495 32.310 C 59.043 29.850, 60.801 27.993, 60.457 27.069 C 59.541 24.609, 50.685 11, 50 11 C 49.642 11, 47.263 14.294, 44.713 18.319 M 31.566 38.896 C 24.858 49.362, 22.881 53.756, 22.286 59.516 C 21.154 70.484, 27.487 81.836, 37.623 87.007 C 41.553 89.012, 43.956 89.491, 50 89.474 C 61.459 89.443, 69.510 84.585, 74.818 74.500 C 76.981 70.391, 77.450 68.164, 77.452 62 C 77.454 53.744, 76.662 51.723, 68.452 39.033 L 63.947 32.067 57.287 36.534 C 53.625 38.990, 50.290 41, 49.877 41 C 49.464 41, 46.170 38.976, 42.556 36.502 L 35.985 32.003 31.566 38.896 " stroke="none" fill="black" fill-rule="evenodd"/>
</svg>