<svg xmlns="http://www.w3.org/2000/svg" width="100" height="100" viewBox="0 0 100 100" version="1.1">
	<path d="M 54.027 11.737 C 47.354 14.092, 39.654 22.250, 37.422 29.330 C 36.257 33.025, 35.089 35.008, 34.067 35.022 C 31.198 35.062, 23.543 39.072, 20.161 42.307 C 11.219 50.858, 8.841 64.498, 14.492 74.833 C 19.913 84.746, 27.771 89.442, 39 89.477 C 45.572 89.497, 47.178 89.116, 51.975 86.395 C 58.653 82.607, 62.702 77.789, 65.060 70.824 C 66.697 65.987, 67.210 65.434, 71.357 64.029 C 83.297 59.985, 91.021 49.577, 90.978 37.590 C 90.910 18.715, 71.913 5.424, 54.027 11.737 M 58.245 16.940 C 51.257 18.678, 43 27.214, 43 32.700 L 43 35 63.500 35 C 83.846 35, 84 34.984, 84 32.838 C 84 29.069, 79.174 22.185, 74.723 19.605 C 69.962 16.845, 63.093 15.734, 58.245 16.940 M 30.491 42.865 C 24.731 45.482, 18 53.672, 18 58.065 C 18 58.579, 22.050 59, 27 59 L 36 59 36 50 C 36 45.050, 35.663 41.010, 35.250 41.022 C 34.837 41.034, 32.696 41.863, 30.491 42.865 M 42 50 L 42 59 51 59 L 60 59 60 50 L 60 41 51 41 L 42 41 42 50 M 67 49.906 L 67 58.813 70.750 57.669 C 75.566 56.201, 82.201 49.566, 83.669 44.750 L 84.813 41 75.906 41 L 67 41 67 49.906 M 18 66.540 C 18 68.892, 21.523 75.243, 24.153 77.633 C 32.957 85.634, 46.832 85.271, 54.702 76.834 C 56.847 74.535, 60 68.105, 60 66.032 C 60 65.355, 52.769 65, 39 65 C 20.759 65, 18 65.202, 18 66.540 " stroke="none" fill="black" fill-rule="evenodd"/>
</svg>