<svg xmlns="http://www.w3.org/2000/svg" width="100" height="100" viewBox="0 0 100 100" version="1.1">
	<path d="M 15.110 11.396 C 10.230 14.100, 10.073 15.285, 10.035 49.800 C 9.997 84.854, 10.214 86.409, 15.472 88.805 C 19.586 90.680, 81.180 90.475, 84.855 88.575 C 89.776 86.030, 90 84.352, 90 50 C 90 15.648, 89.776 13.970, 84.855 11.425 C 80.972 9.417, 18.727 9.391, 15.110 11.396 M 27 50 L 27 80 30.426 80 L 33.852 80 34.176 65.569 C 34.463 52.791, 34.740 50.816, 36.592 48.319 C 44.170 38.106, 58.247 38.452, 64.446 49.003 C 66.190 51.971, 66.552 54.578, 66.846 66.250 L 67.192 80 70.686 80 L 74.179 80 73.823 64.750 C 73.513 51.514, 73.184 48.972, 71.331 45.500 C 67.033 37.451, 60.561 33.663, 51 33.601 C 44.609 33.559, 42.122 34.406, 36.250 38.627 L 34 40.244 34 30.122 L 34 20 30.500 20 L 27 20 27 50 " stroke="none" fill="black" fill-rule="evenodd"/>
</svg>