<svg xmlns="http://www.w3.org/2000/svg" width="100" height="100" viewBox="0 0 100 100" version="1.1">
	<path d="M 31 20.878 C 31 21.360, 31.675 22.315, 32.500 23 C 33.325 23.685, 34 25.518, 34 27.075 C 34 29.841, 33.863 29.911, 27.867 30.202 L 21.735 30.500 15.796 40.683 L 9.858 50.866 15.814 61.183 L 21.769 71.500 27.385 71.800 L 33 72.100 33 67.956 C 33 64.637, 32.597 63.707, 30.976 63.283 C 29.863 62.992, 27.385 60.080, 25.469 56.812 L 21.987 50.870 25.305 45.185 L 28.623 39.500 36.061 39.406 C 40.153 39.354, 41.362 39.491, 38.750 39.711 L 34 40.110 34 57.973 C 34 76.594, 33.702 79, 31.393 79 C 30.627 79, 30 79.675, 30 80.500 C 30 81.720, 31.648 82, 38.833 82 C 43.692 82, 47.959 81.707, 48.317 81.350 C 48.675 80.992, 47.850 79.663, 46.484 78.397 C 45.118 77.131, 44 75.174, 44 74.048 C 44 72.059, 44.525 72, 62.287 72 L 80.574 72 84.312 65.500 C 86.369 61.925, 88.489 59, 89.025 59 C 89.561 59, 90 58.325, 90 57.500 C 90 56.310, 88.556 56, 83 56 C 77.012 56, 75.995 56.253, 75.968 57.750 C 75.920 60.407, 73.535 63, 71.140 63 C 69.025 63, 69 62.769, 69 43 C 69 30.333, 69.367 23, 70 23 C 70.550 23, 71 22.325, 71 21.500 C 71 20.300, 69.500 20, 63.500 20 C 57.637 20, 56 20.314, 56 21.441 C 56 22.234, 56.450 23.160, 57 23.500 C 57.550 23.840, 58 25.441, 58 27.059 L 58 30 51 30 C 44.355 30, 44 29.883, 44 27.691 C 44 26.421, 44.661 24.509, 45.468 23.441 C 46.276 22.374, 46.951 21.163, 46.968 20.750 C 46.986 20.337, 43.400 20, 39 20 C 34.600 20, 31 20.395, 31 20.878 M 70 34.500 C 70 38.396, 70.280 39, 72.087 39 C 73.487 39, 74.546 39.987, 75.306 42 C 76.411 44.927, 76.603 45, 83.219 45 C 87.073 45, 90 44.568, 90 44 C 90 43.450, 89.572 43, 89.049 43 C 88.526 43, 86.462 40.075, 84.463 36.500 L 80.828 30 75.414 30 L 70 30 70 34.500 M 44.190 42.750 L 44.500 46.500 51.250 46.796 L 58 47.091 58 43.046 L 58 39 50.940 39 L 43.879 39 44.190 42.750 M 44 59 L 44 63 51 63 L 58 63 58 59 L 58 55 51 55 L 44 55 44 59 M 58 75.465 C 58 76.906, 57.170 78.374, 56 79 C 51.982 81.150, 54.107 82, 63.500 82 C 72.893 82, 75.018 81.150, 71 79 C 69.830 78.374, 69 76.906, 69 75.465 C 69 73.144, 68.679 73, 63.500 73 C 58.321 73, 58 73.144, 58 75.465 " stroke="none" fill="black" fill-rule="evenodd"/>
</svg>