<svg xmlns="http://www.w3.org/2000/svg" width="100" height="100" viewBox="0 0 100 100" version="1.1">
	<path d="M 76.455 12.455 C 71.494 17.415, 75.009 26, 82 26 C 86.111 26, 90 22.111, 90 18 C 90 13.889, 86.111 10, 82 10 C 80.052 10, 78.002 10.907, 76.455 12.455 M 40 19.668 C 31.398 22.674, 25.727 27.838, 20.934 37.031 C 17.377 43.854, 17.531 55.431, 21.286 63.450 L 24.073 69.401 28.570 64.903 L 33.068 60.406 31.422 56.468 C 25.255 41.707, 41.141 25.854, 56.680 31.263 L 60.860 32.718 64.988 28.512 L 69.116 24.306 66.757 22.760 C 59.676 18.121, 48.218 16.796, 40 19.668 M 71.182 35.315 L 66.947 39.629 68.474 43.283 C 69.313 45.292, 70 48.437, 70 50.272 C 70 55.322, 65.367 63.729, 60.986 66.628 C 56.107 69.857, 47.862 70.805, 42.855 68.713 L 39.224 67.196 34.973 71.528 L 30.721 75.860 34.027 77.870 C 41.842 82.623, 54.944 83.142, 63.429 79.035 C 79.003 71.495, 86.019 52.194, 78.799 36.750 C 77.320 33.587, 75.954 31, 75.764 31 C 75.573 31, 73.511 32.942, 71.182 35.315 M 12.455 76.455 C 7.494 81.415, 11.009 90, 18 90 C 22.111 90, 26 86.111, 26 82 C 26 77.889, 22.111 74, 18 74 C 16.052 74, 14.002 74.907, 12.455 76.455 " stroke="none" fill="black" fill-rule="evenodd"/>
</svg>