<svg xmlns="http://www.w3.org/2000/svg" width="100" height="100" viewBox="0 0 100 100" version="1.1">
	<path d="M 43.704 13.227 C 42.966 15.027, 39.945 22.740, 36.990 30.367 L 31.618 44.233 35.059 50.676 C 39.083 58.210, 40.333 59.540, 41.719 57.762 C 42.692 56.515, 59.663 27.482, 61.820 23.375 C 62.837 21.439, 62.340 20.855, 56.218 16.789 C 45.064 9.382, 45.258 9.437, 43.704 13.227 M 58.724 31.154 C 55.725 36.295, 47.079 51.300, 39.512 64.500 C 31.945 77.700, 25.558 88.838, 25.318 89.250 C 25.078 89.662, 29.365 90, 34.845 90 L 44.808 90 59.404 65.096 C 67.432 51.399, 74 39.646, 74 38.977 C 74 38.309, 72.347 35.003, 70.326 31.631 C 63.713 20.594, 64.859 20.641, 58.724 31.154 M 54.174 75.608 C 50.145 82.524, 47.021 88.355, 47.232 88.566 C 47.443 88.777, 53.123 85.769, 59.854 81.882 C 68.207 77.058, 71.825 74.448, 71.252 73.658 C 67.940 69.094, 62.749 63.003, 62.183 63.017 C 61.807 63.027, 58.203 68.693, 54.174 75.608 " stroke="none" fill="black" fill-rule="evenodd"/>
</svg>