<svg xmlns="http://www.w3.org/2000/svg" width="100" height="100" viewBox="0 0 100 100" version="1.1">
	<path d="M 32.250 20.202 L 15 30.232 15 49.998 L 15 69.764 32.577 79.875 L 50.153 89.987 67.327 80.070 L 84.500 70.153 84.500 50.001 L 84.500 29.850 68 20.307 C 58.925 15.058, 51.050 10.631, 50.500 10.468 C 49.950 10.305, 41.737 14.685, 32.250 20.202 M 38.250 30.337 C 31.512 34.230, 26 37.668, 26 37.977 C 26 38.286, 28.730 40.039, 32.067 41.874 C 35.625 43.830, 37.938 45.720, 37.660 46.444 C 37.068 47.985, 42.614 51.433, 43.467 50.054 C 43.852 49.430, 44.997 49.497, 46.622 50.238 C 48.811 51.235, 48.956 51.559, 47.644 52.518 C 46.338 53.473, 46.551 53.894, 49.104 55.402 C 51.299 56.699, 52.439 56.880, 53.397 56.085 C 54.361 55.285, 55.782 55.590, 58.843 57.251 C 61.120 58.488, 62.987 59.748, 62.992 60.052 C 62.996 60.355, 60.188 62.095, 56.750 63.918 L 50.500 67.232 38.157 60.116 C 31.369 56.202, 25.406 53, 24.907 53 C 24.408 53, 24.005 54.462, 24.011 56.250 C 24.021 59.372, 24.548 59.800, 37.425 67.135 L 50.829 74.770 63.524 67.467 L 76.219 60.163 72.360 57.732 C 70.237 56.395, 67.006 54.530, 65.179 53.588 C 62.719 52.319, 62.126 51.553, 62.891 50.631 C 64.273 48.966, 59.046 45.735, 57.009 46.995 C 54.877 48.312, 51.555 46.241, 53.002 44.497 C 54.727 42.419, 49.875 39.461, 47.141 40.925 C 45.612 41.743, 44.432 41.584, 42.080 40.246 C 40.393 39.286, 39.010 38.268, 39.006 37.984 C 38.997 37.240, 49.608 31, 50.881 31 C 51.468 31, 55.639 33.184, 60.150 35.853 C 68.176 40.602, 68.411 40.671, 71.169 39.103 C 72.719 38.221, 73.990 37.258, 73.994 36.963 C 74 36.437, 66.957 32.249, 56 26.264 L 50.500 23.259 38.250 30.337 " stroke="none" fill="black" fill-rule="evenodd"/>
</svg>