<svg xmlns="http://www.w3.org/2000/svg" width="100" height="100" viewBox="0 0 100 100" version="1.1">
	<path d="M 49 11.500 C 49 12.325, 49.450 13, 50 13 C 50.550 13, 51 12.325, 51 11.500 C 51 10.675, 50.550 10, 50 10 C 49.450 10, 49 10.675, 49 11.500 M 35.364 18.493 C 35.018 19.396, 35.214 20.614, 35.800 21.200 C 37.324 22.724, 40.210 21.331, 39.812 19.265 C 39.369 16.963, 36.165 16.407, 35.364 18.493 M 61.667 17.667 C 60.202 19.132, 61.045 22, 62.941 22 C 65.494 22, 66.476 20.279, 64.964 18.456 C 63.643 16.865, 62.695 16.638, 61.667 17.667 M 21.597 21.844 C 21.251 22.404, 21.455 23.163, 22.050 23.531 C 23.588 24.481, 24.580 23.180, 23.296 21.896 C 22.578 21.178, 22.019 21.161, 21.597 21.844 M 76.469 22.050 C 75.519 23.588, 76.820 24.580, 78.104 23.296 C 78.822 22.578, 78.839 22.019, 78.156 21.597 C 77.596 21.251, 76.837 21.455, 76.469 22.050 M 47.243 23.157 C 44.344 26.056, 46.936 30.430, 51.195 29.827 C 53.100 29.557, 53.500 28.893, 53.500 26 C 53.500 23.009, 53.136 22.457, 50.993 22.207 C 49.614 22.046, 47.927 22.473, 47.243 23.157 M 31.046 30.445 C 30.386 31.240, 29.994 32.927, 30.173 34.195 C 30.438 36.065, 31.208 36.559, 34.250 36.810 L 38 37.121 38 49.560 L 38 62 35.122 62 C 31.674 62, 29.727 64.044, 30.173 67.195 C 30.443 69.100, 31.107 69.500, 34 69.500 C 37.313 69.500, 37.516 69.302, 37.807 65.807 C 38.095 62.338, 38.338 62.095, 41.802 61.807 C 44.992 61.542, 45.559 61.108, 45.996 58.607 C 47.041 52.611, 52.959 52.611, 54.004 58.607 C 54.442 61.118, 55.003 61.541, 58.254 61.810 C 61.572 62.085, 62.002 62.428, 62.015 64.810 C 62.038 68.779, 63.341 70.203, 66.609 69.830 C 68.959 69.562, 69.562 68.959, 69.830 66.609 C 70.205 63.327, 68.778 62.038, 64.750 62.015 C 62.211 62.001, 62 61.693, 62 58 C 62 54.431, 61.738 54, 59.571 54 C 56.942 54, 54 51.651, 54 49.551 C 54 47.754, 56.018 46.258, 59 45.846 C 61.087 45.557, 61.583 44.840, 62 41.500 C 62.461 37.815, 62.776 37.461, 66 37 C 69.084 36.559, 69.537 36.118, 69.811 33.284 C 70.076 30.546, 69.740 29.973, 67.548 29.423 C 64.209 28.585, 62 30.456, 62 34.122 C 62 36.749, 61.692 37, 58.469 37 C 54.917 37, 54.650 37.281, 53.592 42.140 C 52.458 47.345, 46 46.437, 46 41.072 C 46 38.056, 44.552 37, 40.418 37 C 38.436 37, 38 36.495, 38 34.200 C 38 29.510, 33.734 27.206, 31.046 30.445 M 17.364 36.493 C 17.018 37.396, 17.214 38.614, 17.800 39.200 C 19.324 40.724, 22.210 39.331, 21.812 37.265 C 21.369 34.963, 18.165 34.407, 17.364 36.493 M 78.364 36.493 C 78.018 37.396, 78.214 38.614, 78.800 39.200 C 80.324 40.724, 83.210 39.331, 82.812 37.265 C 82.369 34.963, 79.165 34.407, 78.364 36.493 M 23.046 47.445 C 22.386 48.240, 21.994 49.927, 22.173 51.195 C 22.443 53.100, 23.107 53.500, 26 53.500 C 28.893 53.500, 29.557 53.100, 29.827 51.195 C 30.446 46.826, 25.726 44.216, 23.046 47.445 M 71.200 47.200 C 68.340 50.060, 70.972 54.425, 75.195 53.827 C 76.897 53.586, 77.586 52.743, 77.830 50.609 C 78.297 46.519, 74.060 44.340, 71.200 47.200 M 10.192 50.075 C 10.389 50.666, 10.978 51.150, 11.500 51.150 C 12.022 51.150, 12.611 50.666, 12.808 50.075 C 13.005 49.484, 12.417 49, 11.500 49 C 10.583 49, 9.995 49.484, 10.192 50.075 M 87 50 C 87 50.550, 87.675 51, 88.500 51 C 89.325 51, 90 50.550, 90 50 C 90 49.450, 89.325 49, 88.500 49 C 87.675 49, 87 49.450, 87 50 M 17.556 60.910 C 16.591 62.471, 18.172 65.113, 19.876 64.789 C 20.769 64.619, 21.644 63.472, 21.820 62.240 C 22.060 60.557, 21.639 60, 20.129 60 C 19.023 60, 17.865 60.409, 17.556 60.910 M 78.556 60.910 C 77.591 62.471, 79.172 65.113, 80.876 64.789 C 81.769 64.619, 82.644 63.472, 82.820 62.240 C 83.060 60.557, 82.639 60, 81.129 60 C 80.023 60, 78.865 60.409, 78.556 60.910 M 47.011 71.487 C 46.290 72.356, 46.045 74.044, 46.423 75.548 C 46.973 77.740, 47.546 78.076, 50.284 77.811 C 52.766 77.571, 53.575 76.974, 53.827 75.195 C 54.451 70.793, 49.722 68.221, 47.011 71.487 M 21.543 76.931 C 20.860 78.036, 22.437 79.230, 23.361 78.306 C 24.311 77.355, 24.134 76, 23.059 76 C 22.541 76, 21.859 76.419, 21.543 76.931 M 76.150 76.950 C 76.580 78.239, 77.951 78.471, 78.075 77.275 C 78.116 76.876, 77.610 76.370, 76.950 76.150 C 76.290 75.930, 75.930 76.290, 76.150 76.950 M 35.364 79.493 C 35.018 80.396, 35.214 81.614, 35.800 82.200 C 37.324 83.724, 40.210 82.331, 39.812 80.265 C 39.369 77.963, 36.165 77.407, 35.364 79.493 M 61.667 78.667 C 60.202 80.132, 61.045 83, 62.941 83 C 65.494 83, 66.476 81.279, 64.964 79.456 C 63.643 77.865, 62.695 77.638, 61.667 78.667 M 49 88.500 C 49 89.325, 49.450 90, 50 90 C 50.550 90, 51 89.325, 51 88.500 C 51 87.675, 50.550 87, 50 87 C 49.450 87, 49 87.675, 49 88.500 " stroke="none" fill="black" fill-rule="evenodd"/>
</svg>