<svg xmlns="http://www.w3.org/2000/svg" width="100" height="100" viewBox="0 0 100 100" version="1.1">
	<path d="M 50.032 28.004 C 48.185 36.256, 46.940 43.273, 47.264 43.597 C 48.019 44.353, 74.264 29.709, 74.745 28.264 C 75.154 27.039, 56.709 13, 54.692 13 C 53.830 13, 52.256 18.065, 50.032 28.004 M 35.500 21.173 C 30.550 25.051, 26.169 28.736, 25.765 29.362 C 25.361 29.988, 25.031 39.050, 25.031 49.500 C 25.031 59.950, 25.361 68.985, 25.765 69.578 C 26.961 71.333, 44.881 85, 45.986 85 C 47.547 85, 47.263 82.730, 43.552 65.519 L 40.106 49.538 43.553 33.178 C 45.449 24.181, 47 16.185, 47 15.409 C 47 12.842, 44.593 14.049, 35.500 21.173 M 61.286 41.830 C 54.018 46.049, 48.060 49.725, 48.047 50 C 47.991 51.121, 75.464 66.036, 76.707 65.559 C 78.797 64.757, 78.114 34.600, 76 34.343 C 75.175 34.243, 68.554 37.612, 61.286 41.830 M 46.996 57.250 C 46.993 57.938, 48.418 64.912, 50.162 72.750 C 52.300 82.356, 53.767 87, 54.664 87 C 56.697 87, 75.158 72.973, 74.747 71.740 C 74.402 70.706, 49.309 56.110, 47.750 56.036 C 47.337 56.016, 46.998 56.563, 46.996 57.250 " stroke="none" fill="black" fill-rule="evenodd"/>
</svg>