<svg xmlns="http://www.w3.org/2000/svg" width="100" height="100" viewBox="0 0 100 100" version="1.1">
	<path d="M 32.500 19.894 L 15.500 29.759 15.500 50.003 L 15.500 70.246 32.685 80.105 L 49.870 89.965 66.899 80.232 L 83.928 70.500 83.931 50 L 83.934 29.500 67.284 20 C 58.127 14.775, 50.379 10.394, 50.067 10.265 C 49.755 10.135, 41.850 14.469, 32.500 19.894 M 39.750 32.574 L 30 38.127 30 50.007 L 30 61.887 39.851 67.465 L 49.702 73.042 59.841 67.271 L 69.979 61.500 69.989 50 L 69.999 38.500 60.305 33 C 54.972 29.975, 50.360 27.392, 50.055 27.260 C 49.750 27.128, 45.112 29.519, 39.750 32.574 " stroke="none" fill="black" fill-rule="evenodd"/>
</svg>