<svg xmlns="http://www.w3.org/2000/svg" width="100" height="100" viewBox="0 0 100 100" version="1.1">
	<path d="M 40.080 23.343 C 21.487 48.418, 13.926 59.279, 14.291 60.391 C 14.491 61.001, 22.624 67.953, 32.366 75.839 L 50.077 90.178 54.788 86.381 C 77.642 67.965, 86.065 60.611, 85.622 59.456 C 85.136 58.190, 67.733 33.803, 55.822 17.698 L 50.051 9.896 40.080 23.343 M 36.216 47.838 C 32.247 53.314, 29 58.040, 29 58.340 C 29 59.173, 43.071 70, 44.154 70 C 45.205 70, 45.135 42.669, 44.075 39.691 C 43.570 38.270, 41.881 40.022, 36.216 47.838 M 56 53.800 C 56 62.710, 56.249 70, 56.553 70 C 57.334 70, 71 58.887, 71 58.252 C 71 57.787, 58.873 40.942, 56.817 38.550 C 56.368 38.028, 56 44.890, 56 53.800 " stroke="none" fill="black" fill-rule="evenodd"/>
</svg>