<svg xmlns="http://www.w3.org/2000/svg" width="100" height="100" viewBox="0 0 100 100" version="1.1">
	<path d="M 33.500 19.345 C 24.700 24.452, 17.500 29.229, 17.500 29.962 C 17.500 30.694, 23.660 34.858, 31.189 39.215 C 42.887 45.984, 45.177 46.975, 46.939 46.033 C 50.095 44.344, 49.825 37.437, 46.500 34.821 C 41.865 31.176, 44.249 23.978, 50.079 24.015 C 53.060 24.034, 54.366 24.864, 55.850 27.685 C 57.329 30.493, 55.861 34.592, 53.057 35.482 C 51.387 36.012, 51 36.972, 51 40.589 C 51 44.238, 51.407 45.228, 53.250 46.067 C 55.174 46.942, 57.528 45.924, 69.500 39.038 C 77.200 34.609, 83.635 30.585, 83.799 30.096 C 84.061 29.318, 54.900 11.983, 50.980 10.586 C 50.166 10.296, 42.300 14.238, 33.500 19.345 M 15.653 33.681 C 15.294 34.040, 15.005 42.696, 15.010 52.917 L 15.020 71.500 30.663 80.500 C 39.267 85.450, 46.913 89.645, 47.653 89.823 C 48.740 90.084, 49 87.046, 49 74.109 C 49 59.233, 48.859 57.995, 47.051 57.027 C 44.547 55.687, 38 58.597, 38 61.050 C 38 63.840, 34.066 68, 31.427 68 C 28.061 68, 24.805 64.496, 25.189 61.288 C 25.360 59.864, 26.762 57.759, 28.305 56.612 C 30.939 54.655, 31.281 54.624, 33.888 56.121 C 36.469 57.602, 36.930 57.579, 40.394 55.802 C 43.471 54.224, 44.068 53.427, 43.811 51.241 C 43.493 48.531, 43.452 48.503, 21.903 36.219 C 18.824 34.464, 16.012 33.322, 15.653 33.681 M 70.094 41.014 C 59.378 47.259, 56.637 49.302, 56.436 51.194 C 56.243 53.004, 57.044 54.045, 59.842 55.617 C 63.218 57.515, 63.705 57.555, 66.157 56.134 C 71.836 52.843, 78.098 59.703, 74.199 64.945 C 73.154 66.350, 71.306 67.647, 70.092 67.827 C 66.895 68.301, 63 65.408, 63 62.559 C 63 59.039, 56.773 55.327, 53.426 56.852 C 51.010 57.953, 51 58.022, 51 73.420 C 51 82.568, 51.405 89.132, 51.992 89.495 C 52.538 89.832, 60.188 85.970, 68.992 80.912 L 85 71.715 85 52.917 C 85 42.577, 84.662 33.912, 84.250 33.660 C 83.838 33.407, 77.467 36.717, 70.094 41.014 " stroke="none" fill="black" fill-rule="evenodd"/>
</svg>