<svg xmlns="http://www.w3.org/2000/svg" style="isolation:isolate" viewBox="1483 1019 227 227" width="227" height="227"><path d="M1483 1132.5c0-62.642 50.858-113.5 113.5-113.5s113.5 50.858 113.5 113.5-50.858 113.5-113.5 113.5-113.5-50.858-113.5-113.5zm88.268-62.677c-4.263.988-7.495 2.356-10.906 4.646-2.49 1.66-6.103 5.093-7.943 7.539-2.671 3.568-4.802 8.348-5.722 12.835-.426 2.11-.449 3.053-.449 24.326v22.125h21.318v-20.397c0-12.612.089-20.847.224-21.587.359-1.975 1.593-4.219 3.119-5.655 4.286-4.107 10.771-4.016 14.968.157.74.763 1.615 1.93 1.952 2.603 1.279 2.603 1.279 2.581 1.279 24.616v20.263h20.263c22.036 0 22.014 0 24.617 1.28.673.336 1.84 1.212 2.603 1.952 3.276 3.276 4.084 7.966 2.109 12.207-.83 1.773-2.76 3.815-4.466 4.735-2.625 1.391-2.131 1.369-24.639 1.369h-20.487v21.317h44.543l2.356-.538c4.331-.988 7.562-2.357 11.018-4.668 2.491-1.66 6.103-5.094 7.944-7.54 2.67-3.567 4.802-8.347 5.722-12.835.583-2.85.628-9.739.09-12.589-2.11-11.152-10.412-20.757-21.139-24.415-4.599-1.57-5.228-1.638-17.704-1.75l-11.288-.112v-9.739c0-10.457-.157-12.835-1.032-16.426-1.414-5.767-4.152-10.636-8.37-14.878-4.713-4.712-10.098-7.674-16.404-8.953-3.343-.673-10.434-.629-13.575.113l-.001-.001zm-25.02 103.672v10.659h21.318v-21.318h-21.318v10.659z" fill-rule="evenodd"/></svg>