<svg xmlns="http://www.w3.org/2000/svg" style="isolation:isolate" viewBox="1121 1019 227 227" width="227" height="227"><path d="M1179.714 1036.99c-7.174 1.661-12.613 3.965-18.352 7.817-4.192 2.794-10.271 8.571-13.368 12.687-4.494 6.005-8.081 14.048-9.629 21.6-.717 3.551-.756 5.137-.756 40.936v37.233h35.875v-34.325c0-21.223.151-35.082.378-36.327.604-3.324 2.68-7.101 5.248-9.517 7.213-6.911 18.126-6.759 25.188.265 1.246 1.283 2.719 3.247 3.286 4.379 2.152 4.381 2.152 4.344 2.152 41.426v34.099h34.099c37.083 0 37.046 0 41.426 2.154 1.133.565 3.096 2.039 4.381 3.285 5.513 5.513 6.872 13.405 3.549 20.542-1.397 2.984-4.645 6.42-7.515 7.969-4.418 2.34-3.587 2.303-41.463 2.303h-34.478v35.873h74.96l3.964-.906c7.288-1.662 12.726-3.965 18.542-7.855 4.191-2.794 10.271-8.572 13.368-12.688 4.494-6.004 8.082-14.047 9.63-21.6.981-4.796 1.057-16.389.151-21.184-3.55-18.768-17.522-34.931-35.573-41.086-7.741-2.643-8.799-2.757-29.794-2.945l-18.995-.19v-16.389c0-17.597-.265-21.599-1.737-27.641-2.379-9.706-6.987-17.9-14.085-25.037-7.931-7.93-16.994-12.915-27.605-15.068-5.627-1.132-17.56-1.057-22.845.19h-.002zm-42.105 174.462v17.937h35.875v-35.874h-35.875v17.937z"/></svg>