<?xml version="1.0" encoding="UTF-8"?>
<svg width="28px" height="28px" viewBox="0 0 28 28" version="1.1" xmlns="http://www.w3.org/2000/svg" xmlns:xlink="http://www.w3.org/1999/xlink">
    <!-- Generator: Sketch 52.5 (67469) - http://www.bohemiancoding.com/sketch -->
    <title>mas</title>
    <desc>Created with Sketch.</desc>
    <g id="Wallet" stroke="none" stroke-width="1" fill="none" fill-rule="evenodd">
        <g id="All-Tokens" transform="translate(-732.000000, -243.000000)">
            <g id="mas" transform="translate(732.000000, 243.000000)">
                <circle id="Oval" fill="#FDD349" fill-rule="nonzero" cx="14" cy="14" r="14"></circle>
                <g id="Group" transform="translate(4.000000, 5.000000)" fill="#000000">
                    <path d="M0.588235294,7.69818132 L9.79593269,12.6044467 L19.4117647,7.52448462 L19.4117647,7.0103017 L9.79471123,12.0909091 L0.588235294,7.18529454 L0.588235294,7.69818132 Z M0.588235294,8.36711272 L0.588235294,17.1702128 C0.588235294,17.3229724 0.71991625,17.4468085 0.882352941,17.4468085 L19.1176471,17.4468085 C19.2800837,17.4468085 19.4117647,17.3229724 19.4117647,17.1702128 L19.4117647,8.19211989 L9.79471123,13.2727273 L0.588235294,8.36711272 Z M0.588235294,6.51636314 L9.79593269,11.4226285 L19.4117647,6.34266644 L19.4117647,5.9211137 L10,10.63219 L0.588235294,5.9211137 L0.588235294,6.51636314 Z M0,5 L10,10.0055186 L20,5 L20,17.1702128 C20,17.6284916 19.6049571,18 19.1176471,18 L0.882352941,18 C0.395042868,18 0,17.6284916 0,17.1702128 L0,5 Z" id="Combined-Shape" fill-rule="nonzero"></path>
                    <g id="Group-5" transform="translate(3.000000, 0.000000)">
                        <path d="M-3.91180144e-15,6.89734917 C0.00700179183,6.70118837 0.013416691,6.49268475 0.0206967224,6.39219424 C0.0796703055,5.5162092 0.307872432,4.68446582 0.69632886,3.89443602 C1.19119414,2.89078216 1.88862087,2.0489264 2.79758327,1.38024518 C3.7821857,0.655945856 4.88217123,0.207208929 6.10523206,0.0580513024 C7.58982792,-0.121443469 9.00391188,0.109877257 10.3103049,0.827856341 C12.471815,2.01732521 13.6897477,3.84766626 13.9679491,6.27463781 C13.998718,6.54387996 13.9935898,6.81691426 14,7.08868452 C14,7.12154975 13.9820515,7.17211166 13.9564108,7.18728023 C13.812823,7.26817929 13.664107,7.33896596 13.4961605,7.42618525 C13.5641083,5.60342849 13.0038593,4.03600936 11.7551577,2.70749525 L11.7551577,3.67575577 C11.7551577,4.05876222 11.7577218,4.44303271 11.7551577,4.82603916 C11.7538757,4.90693821 11.766696,4.96508441 11.8449001,5.01817441 C12.026949,5.14205108 12.0679741,5.47323158 11.9372066,5.65019825 C11.8590025,5.7576423 11.7500296,5.80567612 11.616698,5.79303564 C11.4705461,5.77660302 11.3743935,5.69317587 11.3231121,5.55918682 C11.2487541,5.36452348 11.3218301,5.13067465 11.4833664,4.9966856 C11.5166993,4.9676125 11.5449041,4.90946631 11.5449041,4.86522464 C11.5487502,4.08909936 11.5474682,3.31171004 11.5449041,2.53432071 C11.5449041,2.49892738 11.5384939,2.44962952 11.5154173,2.42814071 C11.3628552,2.28656737 11.205165,2.15257831 11.0487568,2.01479712 C11.0346544,2.02111735 11.0231161,2.02617354 11.0102957,2.03249378 L11.0102957,2.76690549 C11.0102957,4.14598151 11.0102957,5.52505753 11.0090137,6.90413355 C11.0090137,7.00020118 11.0231161,7.0697238 11.1128585,7.13671833 C11.2743948,7.25427476 11.3038816,7.57281478 11.1910626,7.73714098 C11.0461927,7.95076503 10.7320943,7.9419167 10.5987627,7.72070836 C10.4872257,7.5336293 10.5513274,7.23531405 10.72312,7.10132499 C10.7628631,7.0671957 10.8000421,7.00272927 10.8000421,6.95216737 C10.8038882,5.28109633 10.8038882,3.61128934 10.797478,1.94148235 C10.797478,1.88586425 10.757735,1.81002139 10.7102997,1.7784202 C9.83338815,1.17294136 8.86160606,0.80131134 7.79623546,0.678698715 C7.71290322,0.669850381 7.63213505,0.659737999 7.53982858,0.64836157 L7.53982858,7.12660595 L9.2616008,7.12660595 L9.2616008,2.03122974 L8.57443035,2.03122974 C8.57058425,2.07420736 8.56673814,2.11592093 8.56673814,2.1576345 C8.56545611,3.03614764 8.56289204,3.91466078 8.56802018,4.79443797 C8.56802018,4.84879202 8.60904528,4.9170506 8.65263445,4.95497203 C8.82058096,5.09401727 8.8667342,5.4340461 8.73083855,5.60469254 C8.59366087,5.77786707 8.33725398,5.78418731 8.19110206,5.61733301 C8.03725793,5.44289443 8.06802675,5.09275322 8.25776785,4.96129226 C8.33468991,4.90820226 8.35392043,4.85637631 8.35392043,4.77168511 C8.35007433,3.82996959 8.35135636,2.88825406 8.35007433,1.94653854 C8.35007433,1.69499305 8.35135636,1.69499305 8.60904528,1.6962571 C8.88852878,1.69752115 9.16801228,1.6962571 9.46416223,1.6962571 L9.46416223,7.44767406 C9.41031679,7.45020215 9.35390727,7.45652239 9.29621573,7.45652239 C8.70006972,7.45652239 8.10392372,7.45020215 7.50905975,7.46031453 C7.35008748,7.46410668 7.32060069,7.40848858 7.32060069,7.27070738 C7.32444679,6.27084566 7.32188272,5.27098395 7.32188272,4.26985818 C7.32060069,3.10567027 7.31675459,1.9402183 7.31931866,0.774766339 C7.31931866,0.667322286 7.28470373,0.624344664 7.1795769,0.625608712 C7.00778429,0.628136807 6.83727371,0.625608712 6.64625059,0.625608712 L6.64625059,0.824064198 C6.64496855,1.89724068 6.64496855,2.97041716 6.64368652,4.04359365 C6.64368652,4.13839722 6.65266076,4.20918389 6.74753131,4.27365033 C6.91675985,4.39373485 6.90906764,4.5858701 6.87958085,4.76662892 C6.85650423,4.90567417 6.75778758,4.9941575 6.61548176,5.03081489 C6.46932984,5.06747227 6.35266471,5.01564631 6.2629223,4.90693821 C6.11805241,4.73755582 6.16933378,4.39247081 6.34753657,4.24836937 C6.38856167,4.21550413 6.4270227,4.14977365 6.4270227,4.0979477 C6.4308688,2.98684978 6.42830474,1.87448782 6.4270227,0.762125862 C6.4270227,0.73052467 6.42061253,0.696395382 6.41676643,0.652153713 C6.23984568,0.674906572 6.0693351,0.690075144 5.90138859,0.724204431 C5.86420959,0.731788717 5.81292822,0.80131134 5.81292822,0.843024914 C5.80523601,1.48263304 5.80523601,2.12350522 5.80780008,2.76437739 C5.80780008,2.80735501 5.84369704,2.86170906 5.87959401,2.89204621 C6.04754051,3.02982741 6.11164224,3.31044599 6.01292559,3.50005314 C5.94113166,3.63909839 5.79241567,3.70988506 5.63087933,3.6846041 C5.48729147,3.66185125 5.3616521,3.54303076 5.34370362,3.38881695 C5.32190903,3.1966817 5.33601141,3.00833859 5.52575251,2.88446192 C5.55652133,2.86423716 5.58087999,2.81367525 5.58087999,2.77701787 C5.58216202,2.13614569 5.57959795,1.49653757 5.57703388,0.85566539 C5.57703388,0.843024914 5.57062371,0.827856341 5.5590854,0.793727054 C4.89114547,0.931508251 4.27448692,1.18684588 3.66936667,1.53572304 C3.89500473,1.77083591 4.10654041,1.99204426 4.31807609,2.2132526 C4.46679208,2.36873047 4.61037993,2.52926452 4.76678813,2.67589405 C4.86678682,2.76943358 4.8885814,2.87940573 4.8885814,3.0032824 C4.88601733,4.13334103 4.8847353,5.26466371 4.88217123,6.39472234 L4.88217123,7.45778644 L4.88217123,7.71565217 C4.82576172,7.71944431 4.78217255,7.72576455 4.74114744,7.72576455 C4.47448429,7.72702859 4.20910316,7.72702859 3.94244,7.72829264 C3.79115994,7.72829264 3.65782836,7.71059598 3.54500933,7.88250646 C3.40911369,8.08601814 3.05527219,8.01017528 2.9886064,7.77000622 C2.9514274,7.63222502 2.96168367,7.45525834 3.01552912,7.32379738 C3.1155278,7.08489237 3.45270286,7.08110023 3.59116257,7.30610072 C3.64372598,7.39079191 3.69885346,7.41228072 3.78987791,7.41101667 C4.07448955,7.40722453 4.35910119,7.40975263 4.67704572,7.40975263 L4.67704572,6.95595951 C4.67448165,5.68938373 4.67191759,4.4215439 4.66678945,3.15496813 C4.66678945,3.0854455 4.66037928,2.99696217 4.61807214,2.9527205 C4.22448757,2.53179262 3.82064673,2.12097712 3.41295979,1.69878519 C3.33347365,1.75313925 3.25911566,1.80370115 3.16809121,1.86816758 C3.35526824,2.06409498 3.53347102,2.24990998 3.71039177,2.43446095 C3.89115863,2.62154 4.07577158,2.80356287 4.24756419,2.99569812 C4.29499947,3.04878812 4.3373066,3.12968717 4.3373066,3.19794575 C4.34243474,4.29008294 4.33987067,5.38222014 4.33858864,6.47562139 C4.33858864,6.48320567 4.3334605,6.49331806 4.32192219,6.52744734 L4.0988482,6.52744734 C3.61167512,6.52744734 3.12322001,6.52997544 2.63732897,6.52744734 C2.55784283,6.52744734 2.50527942,6.53882377 2.46297229,6.61972282 C2.38605022,6.76129617 2.23092406,6.81691426 2.08605417,6.78025688 C1.92964597,6.73980735 1.82067304,6.61719473 1.81554491,6.45539663 C1.81298084,6.36059305 1.82067304,6.26073328 1.84631373,6.1684578 C1.8860568,6.03699684 1.98733752,5.95988993 2.1283613,5.94598541 C2.27451323,5.93081684 2.38220412,5.99022708 2.46553635,6.11157566 C2.49245908,6.15202518 2.54374045,6.20511518 2.58604759,6.20637923 C3.07193863,6.21269947 3.56039375,6.21017138 4.04756682,6.20890733 C4.06679734,6.20890733 4.08474582,6.20258709 4.11936075,6.1975309 C4.12320686,6.15076113 4.12961703,6.10525542 4.12961703,6.05848565 C4.12961703,5.17365228 4.12961703,4.29008294 4.12448889,3.40777766 C4.12320686,3.33825504 4.08859193,3.25609194 4.04115665,3.20679408 C3.67705888,2.81873144 3.3052689,2.43825309 2.90655619,2.02617354 C2.59245776,2.34471356 2.26810305,2.63670858 1.98990159,2.96536097 C1.26298807,3.8249134 0.798891613,4.81087059 0.60915052,5.91438422 C0.56394234,6.17997047 0.603839535,6.75874056 0.614472534,7.19254284 L0.0278168544,6.94003152 L5.99298389e-13,6.89734917 Z" id="Combined-Shape"></path>
                    </g>
                </g>
            </g>
        </g>
    </g>
</svg>