<?xml version="1.0" encoding="UTF-8" standalone="no"?>
<svg
   xmlns:dc="http://purl.org/dc/elements/1.1/"
   xmlns:cc="http://creativecommons.org/ns#"
   xmlns:rdf="http://www.w3.org/1999/02/22-rdf-syntax-ns#"
   xmlns:svg="http://www.w3.org/2000/svg"
   xmlns="http://www.w3.org/2000/svg"
   xml:space="preserve"
   enable-background="new 0 0 1492 1604"
   viewBox="0 0 1192.6764 1192.778"
   height="1192.778"
   width="1192.6764"
   y="0px"
   x="0px"
   id="Layer_1"
   version="1.1"><metadata
   id="metadata867"><rdf:RDF><cc:Work
       rdf:about=""><dc:format>image/svg+xml</dc:format><dc:type
         rdf:resource="http://purl.org/dc/dcmitype/StillImage" /><dc:title></dc:title></cc:Work></rdf:RDF></metadata><defs
   id="defs865" />  <path
   id="path4575"
   d="m 560.80778,1191.7754 c -81.05145,-5.0534 -157.38869,-25.405 -229,-61.0517 C 243.56616,1086.7989 170.72745,1025.1375 112.82917,945.34796 -17.464922,765.78999 -36.436969,526.53729 63.863188,327.84796 150.65263,155.92266 315.69226,35.943185 505.30778,6.9293246 627.82391,-11.817385 752.6631,7.6945346 862.68392,62.785945 1007.4639,135.28249 1117.0674,263.71738 1165.2595,417.34796 c 24.6519,78.5873 32.7868,161.39708 23.9698,244 -8.9969,84.28764 -37.7108,169.6237 -81.4371,242.0258 -84.1714,139.37154 -220.05962,238.08684 -377.70796,274.38414 -53.00273,12.2034 -115.44251,17.374 -169.27646,14.0175 z m 20.5,-28.9274 c 1.41259,-3.1326 2.36717,-4.0152 4.40187,-4.0703 1.42897,-0.039 3.40276,-0.388 4.3862,-0.7764 1.59294,-0.6291 1.45307,-1.0271 -1.2817,-3.6472 -3.10917,-2.9788 -3.24735,-4.0765 -1.35692,-10.7794 0.45399,-1.6097 0.0878,-1.5731 -3.96802,0.3974 l -4.46817,2.1708 -3.69036,-2.2807 -3.69035,-2.2808 0.29145,4.7395 c 0.26602,4.3258 -0.002,4.9788 -3.0674,7.4809 -3.64013,2.9709 -3.4196,3.4479 2.04981,4.4332 2.98009,0.5369 3.91823,1.3412 5.40188,4.6314 0.9875,2.1899 2.10877,3.9816 2.49171,3.9816 0.38294,0 1.50794,-1.8 2.5,-4 z m 59.33492,-5.9893 4.66508,-1.184 -3.79568,-3.2016 c -3.59147,-3.0293 -3.75945,-3.4281 -3.12219,-7.4133 0.37042,-2.3165 0.41669,-4.2118 0.10284,-4.2118 -0.31386,0 -2.20783,0.966 -4.20883,2.1466 -3.5037,2.0672 -3.76913,2.0841 -7.18096,0.4571 -1.94854,-0.9292 -3.72769,-1.5045 -3.95368,-1.2785 -0.22598,0.226 -2e-4,2.2387 0.50175,4.4727 0.84062,3.7413 0.68555,4.2794 -1.96531,6.819 -1.58287,1.5165 -2.87794,3.1231 -2.87794,3.5702 0,0.4471 1.81731,0.8129 4.03848,0.8129 3.70166,0 4.26461,0.3693 6.75,4.4278 l 2.71152,4.4278 1.83492,-4.3304 c 1.63139,-3.8502 2.35235,-4.4619 6.5,-5.5145 z m -110.58492,-0.239 c 1.10971,-1.1235 3.25142,-1.7717 5.85359,-1.7717 h 4.10359 l -3.10359,-3.5348 c -3.6386,-4.1441 -3.45535,-3.2168 -1.64795,-8.3395 0.8006,-2.2691 1.25971,-4.1257 1.02024,-4.1257 -0.23948,0 -2.2759,0.7364 -4.5254,1.6365 -3.93892,1.576 -4.19672,1.5576 -6.97974,-0.5 -1.58936,-1.1751 -3.13298,-2.1365 -3.43025,-2.1365 -0.29727,0 -0.54049,1.7972 -0.54049,3.9937 0,3.5281 -0.47958,4.3412 -4.11345,6.9735 l -4.11345,2.9798 4.60347,1.2312 c 3.97309,1.0627 4.75975,1.7167 5.74476,4.7765 1.71595,5.3304 2.0857,5.6222 3.80098,3.0003 0.86773,-1.3264 2.36519,-3.2089 3.32769,-4.1833 z m 158.5824,-4.5499 4.33239,-1.4434 -3.58239,-2.5489 c -3.1681,-2.2541 -3.5824,-3.0509 -3.5824,-6.8892 0,-2.3872 -0.26803,-4.3403 -0.59563,-4.3403 -0.3276,0 -1.97567,0.9827 -3.66239,2.1837 -2.92067,2.0797 -3.26883,2.1111 -7.30891,0.6583 l -4.24215,-1.5255 1.35587,4.5052 c 1.30597,4.3394 1.25995,4.6189 -1.24996,7.5918 l -2.60583,3.0865 4.17916,0.3087 c 3.62388,0.2677 4.53216,0.8421 6.83594,4.3234 l 2.65677,4.0146 1.56857,-4.2407 c 1.33935,-3.6211 2.20163,-4.4517 5.90096,-5.6842 z m -206.0824,-5.2218 c 2.3375,0 4.25,-0.268 4.25,-0.5956 0,-0.3276 -0.97433,-1.964 -2.16517,-3.6364 -2.08787,-2.9321 -2.10743,-3.1965 -0.54788,-7.4043 1.81023,-4.8843 1.90107,-4.7999 -3.44383,-3.1986 -3.62828,1.0871 -4.07537,0.9866 -6.67074,-1.5 -1.53,-1.4658 -3.09469,-2.6651 -3.4771,-2.6651 -0.3824,0 -0.69528,1.7936 -0.69528,3.9858 0,3.5602 -0.43899,4.2763 -4.11065,6.7061 l -4.11065,2.7203 4.15075,2.0103 c 3.53508,1.7122 4.31734,2.6719 5.27383,6.4705 l 1.12309,4.4602 3.08681,-3.6766 c 2.66533,-3.1747 3.66714,-3.6767 7.33682,-3.6766 z m 252.62786,0.038 c 0.57032,-3.5665 1.03175,-4.0808 4.62781,-5.1582 2.19688,-0.6582 3.99433,-1.5047 3.99433,-1.881 0,-0.3764 -1.5617,-1.5253 -3.47044,-2.5532 -2.89031,-1.5566 -3.57795,-2.5859 -4.11355,-6.1575 -0.3537,-2.3587 -0.90488,-4.2885 -1.22483,-4.2885 -0.31996,0 -1.8056,1.1725 -3.30142,2.6056 -2.5248,2.4189 -2.98138,2.5193 -6.37172,1.4004 -2.00863,-0.663 -3.8528,-1.0046 -4.09817,-0.7592 -0.24537,0.2454 0.26163,2.14 1.12666,4.2103 1.52549,3.651 1.49399,3.8833 -1.04764,7.7239 l -2.62042,3.9598 4.53325,-0.6798 c 4.22065,-0.633 4.71369,-0.4654 7.14966,2.4296 1.43903,1.7102 2.96889,3.1094 3.39971,3.1094 0.43081,0 1.06836,-1.7827 1.41677,-3.9616 z m -311.00231,-10.9085 c 2.43958,-2.5464 3.26061,-2.8125 7.27905,-2.3596 l 4.52932,0.5105 -1.98833,-3.8974 c -1.9794,-3.88 -1.97949,-3.9147 -0.0197,-7.7348 1.08277,-2.1105 1.82364,-3.9808 1.64637,-4.1562 -0.17726,-0.1754 -2.21242,0.028 -4.52256,0.451 -3.80957,0.6983 -4.45507,0.5039 -6.93946,-2.0892 -3.02839,-3.161 -4.31787,-2.4557 -4.34497,2.3766 -0.0125,2.2354 -0.85356,3.1569 -4.63552,5.0789 l -4.6202,2.3481 3.20537,1.3277 c 4.61199,1.9103 6.03504,3.6991 6.03504,7.5859 0,4.1767 0.81006,4.2801 4.37555,0.5585 z m 366.92312,-9.8285 4.20133,-2.0454 -3.96495,-1.6668 c -4.54631,-1.9112 -5.49834,-3.062 -5.51974,-6.6725 -0.0235,-3.9723 -1.10696,-4.2177 -4.44956,-1.0081 -2.77554,2.6651 -3.45993,2.8703 -7.22989,2.1676 l -4.16414,-0.7763 2.02612,4.1704 2.02612,4.1704 -2.05885,4.0356 -2.05884,4.0357 4.19686,-0.7919 c 3.91903,-0.7395 4.42857,-0.5629 7.69687,2.6688 l 3.5,3.4608 0.79867,-4.8514 c 0.72703,-4.4163 1.17549,-5.0349 5,-6.8969 z m -417.02214,-8.8806 c 3.03479,-2.5536 6.10894,-2.7451 11.41082,-0.7105 1.28714,0.4939 1.35895,0.2447 0.42983,-1.4914 -2.97809,-5.5646 -3.04508,-6.8607 -0.54472,-10.5404 1.33515,-1.9648 2.42782,-3.7088 2.42816,-3.8754 3.4e-4,-0.1667 -2.13716,-0.1768 -4.75,-0.023 -4.40189,0.2601 -4.93414,0.028 -7.25062,-3.1653 l -2.5,-3.446 -1.5,4.5877 c -1.20216,3.6768 -2.13107,4.8017 -4.67823,5.6654 -4.68437,1.5883 -4.78789,2.1264 -0.87437,4.5451 3.20282,1.9794 3.5526,2.6306 3.5526,6.6141 0,2.4301 0.27254,4.4184 0.60564,4.4184 0.33311,0 1.98501,-1.1607 3.67089,-2.5792 z m 465.28103,-10.5873 c 1.89334,-1.1171 3.44244,-2.3654 3.44244,-2.774 0,-0.4086 -1.71907,-1.258 -3.82017,-1.8875 -3.34769,-1.003 -3.99928,-1.7213 -5.26844,-5.8081 l -1.44827,-4.6635 -2.48156,3.7041 c -2.29459,3.425 -2.80177,3.6806 -6.73156,3.3926 -4.82335,-0.3535 -5.09934,0.2014 -2.15599,4.3349 1.99656,2.8039 2.01983,3.1262 0.5,6.9246 -0.8767,2.1911 -1.59401,4.1373 -1.59401,4.3249 0,0.1876 1.98229,-0.1126 4.40509,-0.667 4.03188,-0.9226 4.68847,-0.7856 7.75,1.6178 l 3.34491,2.6258 0.30756,-4.5467 c 0.26915,-3.9791 0.73734,-4.8004 3.75,-6.5779 z m -208.55756,3.1414 c 65.92215,-4.5722 128.79353,-20.9518 187.00712,-48.7201 157.95528,-75.34574 267.0335,-226.07164 288.9348,-399.25444 4.5487,-35.96859 5.2007,-84.35264 1.5901,-118 C 1095.3633,422.92012 1042.4503,313.24713 956.55038,229.23383 871.40023,145.95379 763.22708,95.708585 644.76904,84.414915 c -49.93413,-4.76067 -100.73155,-1.92266 -152.36346,8.51242 -82.24752,16.622655 -158.6565,53.502245 -225.5978,108.887125 -16.07999,13.30401 -51.72949,48.95351 -65.0335,65.0335 -55.38488,66.9413 -92.26447,143.35028 -108.887132,225.5978 -21.92611,108.4886 -10.10226,215.71702 34.889012,316.4022 10.4976,23.4924 25.19256,49.8012 41.33315,74 71.65173,107.4238 184.09878,185.39134 309.39645,214.52644 26.36335,6.1302 61.86474,11.3306 87.30202,12.7884 13.52791,0.7753 51.80492,0.5749 65,-0.3403 z M 279.95021,863.84856 c -9.08985,-3.2699 -13.89618,-7.8878 -18.4292,-17.7066 l -2.21323,-4.794 V 681.09822 c 0,-88.13735 0.0741,-160.24985 0.16468,-160.25 0.25721,-4.1e-4 253.64657,133.89774 312.90525,165.34804 14.10458,7.48571 21.07617,10.6517 23.45531,10.6517 3.75929,0 29.70504,-13.10778 288.97476,-145.98987 23.375,-11.98026 46.2179,-23.64127 50.7619,-25.91336 l 8.2619,-4.13108 -0.2619,161.26715 -0.2619,161.26716 -2.9298,5.2884 c -3.9146,7.0658 -9.9965,12.4791 -16.9389,15.0766 -5.2996,1.9828 -7.596,2.135 -32.2185,2.135 -23.36379,0 -26.89216,-0.2078 -29.71246,-1.75 -2.98074,-1.6299 -9.30741,-1.749 -92.20034,-1.7349 -82.55296,0.014 -89.23183,0.1408 -92.20034,1.75 -2.53115,1.3721 -5.70758,1.7349 -15.19098,1.7349 -6.91508,0 -12.25226,-0.4233 -12.60868,-1 -0.33992,-0.55 -1.06803,-1 -1.61803,-1 -0.55,0 -0.72189,0.45 -0.38197,1 0.41119,0.6653 -60.06379,0.9879 -180.69098,0.9639 -176.46032,-0.035 -181.4523,-0.088 -186.66659,-1.9633 z M 586.30778,669.95659 c -4.95,-2.66279 -38.925,-20.59571 -75.5,-39.85092 -185.6988,-97.76268 -249.61516,-131.57824 -250.77635,-132.67562 -0.95333,-0.90095 -1.20641,-5.1522 -1,-16.79842 l 0.27635,-15.59221 87.5,46.23065 c 48.125,25.42686 123.05,65.03168 166.5,88.0107 60.46024,31.97509 79.82138,41.78112 82.5,41.78461 2.67115,0.003 42.10093,-19.70082 166.5,-83.20526 89.65,-45.7654 167.1731,-85.35248 172.2735,-87.97129 l 9.2736,-4.76147 -0.2736,16.41046 -0.2735,16.41046 -33.5,17.02434 c -18.425,9.3634 -58.025,29.53692 -88,44.83005 -100.90673,51.48224 -126.20684,63.93616 -134.07381,65.99752 -20.13641,5.2763 -48.90321,19.91471 -62.96347,32.03989 -4.36303,3.76255 -27.16571,17.09534 -29.0454,16.98292 -0.22953,-0.0137 -4.46732,-2.20361 -9.41732,-4.86641 z m -61.5,-87.95499 c -38.225,-20.21209 -113.7125,-60.06834 -167.75,-88.56944 l -98.25,-51.82017 v -14.48901 c 0,-11.8888 0.24697,-14.39423 1.37617,-13.96091 0.75689,0.29044 41.59439,21.78604 90.75,47.76799 241.94869,127.88568 242.01056,127.9179 245.6496,127.9179 2.64394,0 17.41581,-7.09119 59.12438,-28.38246 30.57992,-15.61035 80.34985,-40.87538 110.59985,-56.1445 48.23342,-24.34652 113.5338,-57.80953 161.1603,-82.58621 8.3382,-4.33775 15.4381,-7.88683 15.7775,-7.88683 0.3394,0 0.4923,6.39867 0.3397,14.21926 l -0.2775,14.21927 -9,4.63545 c -75.03528,38.64689 -337.57827,171.91343 -338.60882,171.87747 -0.76515,-0.0267 -32.66618,-16.58572 -70.89118,-36.79781 z m 26,-39.25445 c -120.07378,-63.41564 -164.39395,-86.69881 -174.5,-91.67187 -6.05,-2.97713 -13.025,-6.6678 -15.5,-8.2015 -2.475,-1.5337 -26.325,-14.23755 -53,-28.23078 -51.1046,-26.80856 -56.95577,-29.29864 -62.98113,-26.80286 -1.70419,0.7059 -3.7556,2.22156 -4.5587,3.36814 -1.43194,2.04439 -1.46017,2.04603 -1.46017,0.0847 0,-2.91793 2.47782,-5.98607 6.01887,-7.45283 6.07205,-2.51512 11.79003,-0.0518 64.27368,27.68922 27.3859,14.47523 49.93436,26.3186 50.10767,26.3186 0.17332,0 0.6288,-5.0625 1.01217,-11.25 3.7526,-60.5656 25.81358,-111.96632 65.84877,-153.4236 20.62903,-21.36178 41.33376,-36.61797 66.23884,-48.80777 31.73442,-15.53242 61.46473,-22.9478 97,-24.19389 28.63758,-1.00421 54.70368,2.74592 82,11.79733 60.99973,20.2274 111.94602,65.00681 138.9682,122.14653 14.76241,31.21585 22.11051,61.31267 23.25062,95.2314 l 0.53781,16 -8.37832,4.27314 -8.37831,4.27313 -0.63219,-18.77313 c -0.68907,-20.46209 -2.37633,-32.8087 -6.80941,-49.82799 -7.69713,-29.55048 -23.26457,-60.15761 -42.2589,-83.08518 -3.46472,-4.18218 -7.07699,-8.56157 -8.02726,-9.73197 -1.64373,-2.0245 -1.72885,-0.17031 -1.75,38.122 -0.0181,32.77009 0.22412,40.25 1.30345,40.25 2.55978,0 5.6757,4.67335 6.77907,10.16746 0.97877,4.87365 0.87411,6.09189 -0.86024,10.01267 -3.67122,8.29941 -13.04557,9.91834 -19.24159,3.32299 -5.02942,-5.35357 -3.31616,-20.03639 2.65542,-22.75722 l 2.34165,-1.06694 v -43.70177 -43.70177 l -8.75,-7.56789 -8.75,-7.5679 -0.25551,87.03193 -0.25551,87.03192 2.62669,2.06615 c 7.06691,5.55884 7.16196,19.27057 0.16754,24.16966 -1.25196,0.8769 -4.28772,1.5607 -6.92879,1.5607 -3.8959,0 -5.21729,-0.51671 -7.71898,-3.01841 -5.74673,-5.74673 -4.83586,-18.41113 1.61696,-22.48159 l 3.17056,-2 0.0309,-90 0.0309,-90 -9.74239,-6.35106 c -26.5453,-17.30488 -63.80916,-30.59435 -94.49237,-33.69895 l -6.75,-0.68298 v 111.61649 111.6165 h 29.5 29.5 v -88 -88 h -12 -12 v 49.83948 49.83949 l 2.55196,1.16275 c 5.43415,2.47596 7.52186,16.25212 3.28014,21.6446 -6.30721,8.01832 -18.00293,5.79791 -20.68829,-3.92764 -1.8352,-6.64654 1.393,-16.64212 5.82955,-18.05022 2.00341,-0.63586 2.02664,-1.27859 2.02664,-56.07585 v -55.43261 h 18.43873 18.43872 l 0.60148,4.25 c 0.33081,2.3375 0.47089,46.775 0.31127,98.75 l -0.2902,94.5 h -36 -36 l -0.25413,-117.25 -0.25413,-117.25 h -11.49587 -11.49587 v 61.83948 61.83949 l 2.4519,1.11716 c 3.43101,1.56327 5.53416,6.18805 5.67941,12.48889 0.13649,5.92042 -0.68544,8.03437 -4.51743,11.61857 -1.8934,1.77097 -3.78004,2.42896 -7.16812,2.5 -4.08918,0.0857 -4.97747,-0.31721 -8.02206,-3.6389 -3.13776,-3.42335 -3.42339,-4.25854 -3.41996,-10 0.004,-6.9277 2.31794,-12.09724 5.92726,-13.24279 2.06242,-0.65459 2.069,-0.85205 2.069,-62.08929 0,-48.48999 -0.26335,-61.42844 -1.25,-61.4128 -1.75302,0.0278 -14.68479,1.86942 -18,2.56342 l -2.75,0.57568 0.006,36.17055 0.006,36.17054 3.03523,1.72734 c 3.69205,2.10076 5.95277,7.14862 5.95277,13.2902 0,8.18126 -4.5274,13.48246 -11.51448,13.48246 -8.32484,0 -13.15996,-6.17637 -12.19026,-15.57182 0.61016,-5.91191 2.54243,-9.46817 6.21135,-11.43172 l 2.49339,-1.33442 v -35.44456 -35.44457 l -4.55889,0.68365 c -11.4142,1.71167 -38.93872,12.472 -56.16703,21.95774 l -5.22591,2.87734 9.92831,10.60418 c 5.46058,5.8323 14.66002,15.55418 20.44321,21.60418 l 10.51489,11 0.0327,84.75 0.0327,84.75 h -21 c -16.66999,0 -21,0.27071 -21,1.31291 0,2.52416 -5.67662,6.83521 -9.63842,7.3198 -8.30383,1.01569 -14.12871,-6.33723 -12.88786,-16.2687 1.06867,-8.55335 6.63209,-13.31715 13.94933,-11.94442 3.22348,0.60472 8.57695,5.38408 8.57695,7.65714 0,0.53017 7.66388,0.92327 18,0.92327 h 18 v -75.60417 -75.60417 l -10.21255,-10.64583 c -5.61691,-5.85521 -15.34637,-15.95115 -21.62104,-22.43544 l -11.40847,-11.78961 -4.52591,2.94406 -4.5259,2.94406 20.10891,20.84555 20.1089,20.84555 0.038,59.15609 0.038,59.15609 -14.25,0.0652 c -7.8375,0.0359 -21.76206,0.0781 -30.94346,0.0939 l -16.69341,0.0287 -1.7626,2.98384 c -4.07702,6.90185 -12.87456,7.6001 -18.27408,1.45038 -2.70586,-3.0818 -3.07639,-4.22826 -3.07639,-9.51868 0,-7.08109 1.86996,-11.27982 5.96727,-13.39861 5.82571,-3.0126 11.98978,-1.39892 15.15616,3.96769 l 2.07412,3.51538 h 27.40123 27.40122 v -50.40363 -50.40364 l -20.11994,-21.09636 c -11.06597,-11.60301 -20.51206,-21.09637 -20.99131,-21.09637 -2.15638,0 -30.33475,29.44103 -37.58587,39.27007 -22.40819,30.37478 -36.3813,63.78909 -41.7048,99.72993 -1.84585,12.46198 -2.55189,37.45288 -1.09808,38.86744 0.55,0.53515 36.325,19.63026 79.5,42.43357 43.175,22.80331 92.07622,48.64435 108.66938,57.42453 l 30.16939,15.96398 36.96617,-18.85729 c 25.45241,-12.98386 37.52091,-18.64442 38.74724,-18.17383 1.39691,0.53604 0.61274,1.27039 -3.63555,3.40458 -2.97915,1.49661 -20.42027,10.41969 -38.75804,19.82907 -18.33778,9.40937 -33.41278,17.09209 -33.5,17.07271 -0.0872,-0.0194 -20.63359,-10.84889 -45.65859,-24.06557 z m 123.4508,-16.9788 c -0.83172,-1.34574 -1.32346,-1.00117 8.2992,-5.81531 7.7536,-3.87906 9.24669,-4.17479 7.48469,-1.48249 -1.34783,2.05946 -15.0935,8.41487 -15.78389,7.2978 z m 260.2358,-134.42548 c 12.0599,-6.48256 18.6354,-8.88189 22.016,-8.03343 2.9731,0.74621 7.2974,4.86323 7.2974,6.94761 0,1.05541 -0.7624,0.73757 -2.5724,-1.07237 -3.8701,-3.87018 -10.3687,-2.99719 -22.1852,2.98027 -5.0916,2.57566 -10.4916,4.67637 -12,4.66826 -2.0973,-0.0113 -0.3464,-1.3027 7.4442,-5.49034 z M 326.73516,1093.6474 c 3.67456,-2.1148 3.9844,-2.1374 7.94812,-0.5804 2.26847,0.891 4.1245,1.4879 4.1245,1.3263 0,-0.1616 -0.66859,-2.1888 -1.48577,-4.505 -1.43303,-4.0616 -1.39753,-4.3267 1,-7.4701 1.36718,-1.7924 2.48577,-3.554 2.48577,-3.9146 0,-0.3606 -1.9125,-0.6612 -4.25,-0.668 -3.79261,-0.011 -4.50686,-0.4086 -6.63669,-3.6945 l -2.38669,-3.6821 -1.62852,4.4445 c -1.46485,3.9978 -2.05415,4.5392 -5.86331,5.3866 -2.32914,0.5181 -4.23172,1.1931 -4.22796,1.5 0.004,0.3068 1.61736,1.6549 3.58577,2.9956 3.30746,2.2527 3.55292,2.7647 3.23596,6.75 -0.18863,2.3718 -0.20388,4.3123 -0.0339,4.3123 0.16999,0 2.02971,-0.9903 4.1327,-2.2006 z m 556.64132,-4.1897 c -0.6241,-4.1619 -0.4694,-4.546 2.9758,-7.3858 3.8967,-3.2119 3.781,-3.5968 -1.4167,-4.7126 -2.7163,-0.5831 -3.6697,-1.4812 -4.9017,-4.6176 -0.8412,-2.1415 -1.8668,-3.8937 -2.27901,-3.8937 -0.41225,0 -1.67881,1.575 -2.81459,3.5 -1.81739,3.0802 -2.54881,3.5 -6.09877,3.5 -4.27211,0 -5.02869,0.9294 -2.47913,3.0453 3.01021,2.4983 3.48004,4.6051 1.977,8.8651 -0.79358,2.2493 -1.29442,4.0896 -1.11297,4.0896 0.18146,0 2.22154,-0.6674 4.53353,-1.4831 4.03945,-1.4252 4.34634,-1.3862 7.85784,1 2.0099,1.3657 3.8259,2.4831 4.0357,2.4831 0.2098,0 0.085,-1.9756 -0.277,-4.3903 z m -595.17771,-24.0908 c 1.94963,0.8146 3.77562,1.4811 4.05776,1.4811 0.28214,0 0.25392,-1.9125 -0.0627,-4.25 -0.49905,-3.6841 -0.23017,-4.5728 2.01913,-6.6743 1.42716,-1.3334 2.59484,-2.7448 2.59484,-3.1365 0,-0.3916 -1.96504,-1.0068 -4.36674,-1.3669 -3.8918,-0.5837 -4.56393,-1.0922 -6.17968,-4.6752 l -1.81293,-4.0204 -2.07033,4.3116 c -1.26915,2.6432 -2.84428,4.4235 -4.07032,4.6006 -1.1,0.1589 -3.07682,0.5212 -4.39293,0.805 l -2.39293,0.516 3.28042,3.3845 c 2.96044,3.0544 3.21664,3.7834 2.62652,7.4738 l -0.65389,4.0892 3.93952,-2.0098 c 3.62874,-1.8513 4.21915,-1.893 7.48428,-0.5287 z m 635.82771,-2.527 c 4.5807,2.7929 4.9889,2.5785 4.2699,-2.2419 -0.5713,-3.8307 -0.3343,-4.5364 2.4032,-7.153 3.3825,-3.2332 3.2293,-4.597 -0.5166,-4.597 -3.669,0 -5.9377,-1.5296 -7.3594,-4.9618 -0.6921,-1.671 -1.5993,-3.0382 -2.0158,-3.0382 -0.4165,0 -1.3237,1.3672 -2.0158,3.0382 -1.4978,3.616 -3.6988,4.9618 -8.1146,4.9618 h -3.2619 l 3.2755,3.3795 c 3.06,3.1571 3.2291,3.689 2.5699,8.0847 l -0.7056,4.7053 4.0949,-2.0891 4.095,-2.0891 z m -678.6019,-28.9059 c 4.08597,2.6938 4.57399,2.4382 4.23772,-2.219 -0.26188,-3.6271 0.10594,-4.4706 3.00486,-6.8907 3.61594,-3.0188 3.43789,-3.3893 -2.10938,-4.3903 -2.0625,-0.3721 -3.7703,-1.2187 -3.7951,-1.8813 -0.0248,-0.6626 -0.62176,-2.5547 -1.32656,-4.2047 l -1.28146,-3 -2.68598,4.25 c -2.44829,3.8739 -3.04937,4.25 -6.79213,4.25 h -4.10615 l 2.76003,3.6186 c 2.51961,3.3034 2.6748,3.9911 1.78153,7.8946 l -0.97851,4.2761 4.20397,-1.802 c 4.07799,-1.748 4.29036,-1.7451 7.08716,0.099 z m 721.8202,-3.113 4.1672,1.7863 -0.9977,-4.8707 c -0.9388,-4.5827 -0.8384,-5.0371 1.6978,-7.6844 1.4827,-1.5475 2.6957,-3.1265 2.6957,-3.5089 0,-0.3824 -1.9995,-0.6953 -4.4433,-0.6953 -4.1364,0 -4.6119,-0.2827 -6.8838,-4.0925 -2.6176,-4.3896 -2.7868,-4.3421 -4.6019,1.2903 -1.0921,3.3887 -1.5805,3.7561 -5.8452,4.3956 l -4.6535,0.6978 3.7872,3.2738 c 3.6396,3.1462 3.7604,3.4526 3.0992,7.8615 l -0.6879,4.5877 4.2495,-2.4137 c 4.2143,-2.3938 4.284,-2.399 8.4167,-0.6275 z m -752.8017,-40.92534 3.54738,-2.4307 -4.59134,-1.3387 c -2.64059,-0.77 -4.59134,-1.9356 -4.59134,-2.7435 0,-0.7725 -0.46905,-2.6383 -1.04234,-4.1462 l -1.04235,-2.7415 -3.10542,3.7674 c -2.77072,3.3613 -3.52063,3.7278 -6.95766,3.4 -2.11873,-0.202 -3.85223,-0.1729 -3.85223,0.065 0,0.2376 1.11859,1.8986 2.48577,3.691 2.37839,3.1183 2.4235,3.4355 1.04436,7.3444 -1.61386,4.5742 -1.68757,4.5125 3.52456,2.9509 3.46197,-1.0373 4.07226,-0.9105 7.11602,1.4782 l 3.32929,2.61284 0.29396,-4.73904 c 0.2579,-4.1576 0.72925,-5.0373 3.84134,-7.1698 z m 783.9349,5.4665 c 3.14342,-2.3975 3.40852,-2.433 7.47012,-1 2.3162,0.8172 4.3523,1.4858 4.5247,1.4858 0.1725,0 -0.3897,-2.0642 -1.2494,-4.5871 -1.4752,-4.3295 -1.4541,-4.7366 0.3749,-7.25 3.9838,-5.4745 3.9805,-5.4906 -0.9605,-4.7497 -4.3657,0.6547 -4.6671,0.5358 -7.2611,-2.8651 -1.48842,-1.9514 -3.06332,-3.5481 -3.49972,-3.5481 -0.4364,0 -1.0936,1.7769 -1.4605,3.9486 -0.5822,3.446 -1.1343,4.0991 -4.3379,5.1313 -5.5374,1.7841 -5.5989,1.9447 -1.7469,4.5622 3.2045,2.1775 3.5761,2.8939 3.5761,6.894 0,2.4551 0.295,4.4639 0.6556,4.4639 0.3606,0 2.1222,-1.1186 3.9146,-2.4858 z m 41.92982,-37.4901 c 5.7584,1.3362 5.7349,1.3566 3.5,-3.0241 l -2.0406,-4 2.1134,-4.1427 2.1134,-4.1427 -4.2563,0.6806 c -3.8693,0.6187 -4.555,0.3913 -7.5382,-2.5002 l -3.2818,-3.1809 -0.516,2.393 c -0.2838,1.3161 -0.6461,3.2356 -0.805,4.2655 -0.1801,1.1673 -1.9722,2.5299 -4.7583,3.6178 l -4.4694,1.7451 4.1564,2.1204 c 3.7238,1.8998 4.2279,2.5978 4.8442,6.7074 l 0.6878,4.5871 3.1252,-3.0273 c 2.8865,-2.796 3.4307,-2.9563 7.1252,-2.099 z m -871.0215,-9.2653 3.92944,-2.0159 -4.70398,-2.3906 c -4.22308,-2.1462 -4.70398,-2.7405 -4.70398,-5.8124 0,-4.662 -1.16725,-5.0222 -4.59698,-1.4185 -2.68506,2.8213 -3.26594,3.0029 -7.73687,2.4189 l -4.83385,-0.6314 2.51579,4.2188 2.51579,4.2188 -2.0017,3.9236 c -1.10094,2.1581 -1.8047,4.1207 -1.56392,4.3615 0.24078,0.2408 2.20713,0.04 4.36966,-0.4457 3.53561,-0.7944 4.27957,-0.5918 7.38197,2.0095 l 3.45011,2.8929 1.02454,-4.6568 c 0.87685,-3.9854 1.59099,-4.9473 4.95398,-6.6727 z m 903.4264,-34.2749 c 2.2523,0.3806 4.0951,0.4531 4.0951,0.1612 0,-0.2919 -0.966,-2.168 -2.1466,-4.169 -2.0672,-3.5037 -2.0841,-3.7691 -0.4571,-7.1809 0.9292,-1.9486 1.4873,-3.7449 1.2403,-3.9919 -0.247,-0.247 -2.0858,0 -4.0862,0.5552 -3.3093,0.9137 -3.9381,0.7399 -6.9769,-1.9281 l -3.3397,-2.9323 -0.6033,2.2509 c -0.3317,1.2381 -0.6093,3.1612 -0.6168,4.2736 -0.01,1.2781 -1.302,2.7164 -3.5137,3.9075 -1.925,1.0366 -3.5,2.1957 -3.5,2.5757 0,0.3799 1.7325,1.3713 3.8499,2.2031 3.4209,1.3438 3.9265,1.9914 4.5374,5.8116 l 0.6875,4.2994 3.3675,-3.2639 c 3.0547,-2.9608 3.7478,-3.1997 7.4626,-2.5721 z m -939.5422,-2.3508 c 0.54547,-3.4111 1.13762,-4.1161 4.63136,-5.5141 2.20325,-0.8815 4.00592,-1.8223 4.00592,-2.0906 0,-0.2683 -1.7752,-1.3934 -3.94489,-2.5003 -3.61598,-1.8447 -3.97033,-2.3906 -4.25,-6.5468 l -0.30511,-4.5342 -3.61059,2.9843 c -3.3084,2.7346 -3.92303,2.8981 -7.34377,1.9536 -2.05325,-0.5669 -3.99664,-0.7673 -4.31864,-0.4453 -0.32199,0.322 0.18537,2.2018 1.12749,4.1775 1.6771,3.5169 1.66091,3.6808 -0.77429,7.8362 l -2.48722,4.2441 4.70351,-0.4397 c 4.2229,-0.3948 5.00015,-0.1275 7.60653,2.6157 1.59667,1.6804 3.22506,2.8564 3.61865,2.6131 0.3936,-0.2432 0.99707,-2.2023 1.34105,-4.3535 z m 966.8479,-44.1331 h 4.8912 l -2.6718,-3.5029 c -2.4564,-3.2204 -2.5855,-3.8428 -1.602,-7.7177 0.5884,-2.3182 0.938,-4.3467 0.7769,-4.5078 -0.1611,-0.1611 -2.0654,0.3324 -4.2318,1.0967 -3.7141,1.3105 -4.1081,1.2543 -6.9059,-0.9843 -4.1071,-3.2861 -4.8139,-3.0058 -4.188,1.6608 0.5147,3.8373 0.3381,4.1801 -3.4417,6.6814 l -3.9842,2.6367 4.2407,1.5685 c 3.6211,1.3394 4.4517,2.2017 5.6842,5.901 l 1.4434,4.3324 2.5489,-3.5824 c 2.3296,-3.2742 2.9698,-3.5824 7.4401,-3.5824 z m -988.43665,-6.769 4.27397,-1.4136 -4.13761,-2.9973 c -3.92506,-2.8433 -4.10548,-3.1982 -3.51215,-6.9087 0.72991,-4.5646 0.14871,-4.766 -4.29465,-1.4878 -3.12603,2.3063 -3.48181,2.3542 -7.350272,0.9893 -2.23588,-0.7888 -4.22485,-1.2746 -4.41993,-1.0796 -0.19508,0.1951 0.28196,2.1592 1.06008,4.3646 1.34102,3.8008 1.29132,4.1608 -0.95336,6.906 -1.30247,1.5928 -2.38431,3.2336 -2.40409,3.6461 -0.0198,0.4125 1.87654,0.7596 4.21404,0.7714 3.83613,0.019 4.53644,0.4259 7.191442,4.1761 l 2.94145,4.1547 1.55855,-4.8538 c 1.40003,-4.3601 1.99329,-4.9976 5.83253,-6.2674 z m 1004.60735,-38.231 c 2.4619,-3.7202 2.9746,-4 7.3291,-4 h 4.6819 l -3.2755,-3.3795 c -3.0612,-3.1583 -3.2293,-3.6878 -2.5689,-8.0915 l 0.7066,-4.712 -3.0776,1.5915 c -3.9818,2.0591 -5.3605,2.006 -9.3697,-0.3609 l -3.3072,-1.9524 0.2712,4.7024 c 0.2528,4.3842 0.022,4.8885 -3.4111,7.4524 -2.0252,1.5125 -3.0472,2.7525 -2.2711,2.7556 0.776,0 3.0278,0.4547 5.0038,1.0036 3.01,0.8361 3.787,1.6463 4.7901,4.9944 0.6586,2.198 1.3445,3.9964 1.5244,3.9964 0.1798,0 1.5181,-1.8 2.974,-4 z M 82.829828,819.28116 c 1.16573,-3.5322 2.84356,-4.7309 8.23814,-5.8856 l 2.76018,-0.5908 -3.61883,-3.1774 c -3.37135,-2.9601 -3.57852,-3.4715 -3.02932,-7.4784 0.32424,-2.3655 0.39885,-4.301 0.16581,-4.301 -0.23304,0 -2.02889,0.9471 -3.99077,2.1046 -3.42414,2.0203 -3.73193,2.0387 -7.68198,0.4582 -2.26321,-0.9056 -4.27155,-1.4899 -4.463,-1.2984 -0.19144,0.1914 0.11519,2.0259 0.6814,4.0765 0.9465,3.4279 0.77636,4.048 -2.11113,7.6938 l -3.14061,3.9653 2.83403,0.014 c 4.95715,0.024 6.90309,1.0306 8.79993,4.5528 1.01697,1.8884 2.19328,3.4335 2.61402,3.4335 0.42074,0 1.2947,-1.6051 1.94213,-3.5668 z m 1055.388872,-50.845 c 1.149,-0.3085 3.1016,-0.567 4.3391,-0.5745 3.1147,-0.019 2.8121,-1.53941 -0.8425,-4.23376 -2.9247,-2.15622 -3.0577,-2.54378 -2.4507,-7.14197 l 0.6418,-4.86203 -3.6876,2.27906 c -3.793,2.3442 -3.7349,2.34719 -10.6918,-0.5508 -1.5968,-0.66519 -1.7118,-0.31003 -1.1125,3.43753 0.6051,3.78439 0.3647,4.49259 -2.5444,7.49399 l -3.2127,3.31468 4.5871,0.6878 c 4.1143,0.617 4.8066,1.1184 6.7183,4.8656 l 2.1312,4.1776 2.0178,-4.1661 c 1.121,-2.3145 2.9463,-4.4155 4.1069,-4.7271 z m -1073.410922,0.4118 c 1.45329,-2.84869 2.68241,-4.00393 4.27032,-4.01365 1.22633,-0.008 3.27202,-0.2928 4.54599,-0.63398 l 2.31632,-0.62032 -3.20342,-3.30509 c -3.03029,-3.12646 -3.14771,-3.52457 -2.17265,-7.36602 1.15319,-4.5432 0.77946,-4.76106 -4.14162,-2.41436 -3.30007,1.57369 -3.61394,1.55156 -7.09108,-0.5 -2.001,-1.18062 -3.86503,-2.14658 -4.14229,-2.14658 -0.27727,0 -0.2023,2.01262 0.16658,4.47249 0.62224,4.14945 0.4461,4.66147 -2.43873,7.08889 -1.71018,1.43903 -3.10942,2.97531 -3.10942,3.41397 0,0.43866 1.96504,1.09224 4.36674,1.4524 3.87789,0.58152 4.56659,1.09801 6.15188,4.61355 0.98182,2.1773 1.93264,3.9587 2.11293,3.9587 0.18029,0 1.24609,-1.8 2.36845,-4 z m 1089.203622,-53 4.659,-1.5 -4.0217,-2.87981 c -3.7855,-2.71075 -4.0012,-3.13638 -3.6741,-7.25 0.1912,-2.40361 0.2018,-4.37019 0.024,-4.37019 -0.1782,0 -1.8031,1.12824 -3.6111,2.50721 -3.1609,2.41093 -3.4463,2.45104 -7.4332,1.04436 -4.6235,-1.63125 -5.0581,-1.08017 -3.1357,3.97613 0.8688,2.28491 0.5763,3.2062 -2.084,6.5651 l -3.0946,3.9072 h 4.848 c 4.5716,0 4.9879,0.22644 7.3029,3.97212 l 2.4549,3.97212 1.5534,-4.22212 c 1.3585,-3.69229 2.1381,-4.41036 6.2125,-5.72212 z m -1102.203622,1.5 c 1.94405,-3.14553 2.6106,-3.5 6.58156,-3.5 4.63174,0 5.46526,-0.88633 2.86384,-3.04531 -2.96189,-2.45815 -3.6343,-4.85229 -2.40713,-8.57066 0.63858,-1.93492 0.9603,-3.71879 0.71493,-3.96416 -0.24536,-0.24537 -2.13034,0.25759 -4.18883,1.11768 -3.62691,1.51542 -3.84617,1.48489 -7.08682,-0.98687 -1.83926,-1.40288 -3.59913,-2.55068 -3.91083,-2.55068 -0.3117,0 -0.56672,1.98135 -0.56672,4.40301 0,3.86756 -0.4453,4.76023 -3.66174,7.34055 l -3.66175,2.93756 4.623,1.16408 c 4.18246,1.05315 4.73705,1.5448 5.82003,5.15944 0.65837,2.19745 1.5391,3.99536 1.95719,3.99536 0.41808,0 1.73355,-1.575 2.92327,-3.5 z M 1161.7123,662.56599 c 4.1195,-1.82225 4.3771,-2.12658 2.639,-3.11866 -4.4016,-2.51252 -6.5435,-5.49996 -6.5435,-9.12672 v -3.61826 l -3.5799,2.95088 c -3.5031,2.88755 -3.677,2.92169 -8.1002,1.59048 -4.1921,-1.26164 -4.4678,-1.23463 -3.7971,0.37192 2.8722,6.8797 2.8711,6.85898 0.5627,10.59403 l -2.2486,3.6383 h 4.5306 c 4.0454,0 4.8308,0.394 7.3316,3.67804 l 2.8009,3.67803 0.9198,-4.30937 c 0.8197,-3.84073 1.4162,-4.52897 5.4847,-6.32867 z M 50.486328,661.84796 h 4.48457 l -2.2486,-3.6383 c -2.3016,-3.72407 -2.29954,-3.76542 0.5214,-10.48645 0.60481,-1.44101 0.17977,-1.50985 -3.75841,-0.60866 -4.07667,0.93287 -4.72662,0.79773 -7.93581,-1.65004 l -3.49547,-2.66612 -0.60946,2.27478 c -0.3352,1.25114 -0.61561,3.26178 -0.62312,4.46811 -0.009,1.49558 -1.31625,2.9701 -4.10834,4.6351 l -4.0947,2.44178 4.3447,1.42873 c 3.93406,1.29369 4.48233,1.88139 5.801,6.21822 l 1.4563,4.7895 2.89069,-3.60333 c 2.54497,-3.17237 3.42703,-3.60332 7.37525,-3.60332 z M 1160.2718,614.59487 c 0.5256,-3.14222 1.3105,-4.10141 4.8226,-5.89312 l 4.1948,-2.14004 -4.1692,-2.01925 c -3.8509,-1.86512 -4.221,-2.39604 -4.848,-6.95502 l -0.6789,-4.93576 -3.6426,3.52598 c -3.4135,3.30413 -3.9101,3.47605 -7.8927,2.73241 -2.3375,-0.43646 -4.2483,-0.51649 -4.2463,-0.17784 0,0.33865 0.942,2.1547 2.0887,4.03565 l 2.0849,3.41993 -2.235,3.97662 -2.235,3.97663 4.5768,-0.51588 c 4.2034,-0.47377 4.8467,-0.23753 7.8826,2.89478 1.8182,1.87586 3.3876,3.05456 3.4876,2.61933 0.1001,-0.43523 0.4644,-2.48022 0.8097,-4.54442 z M 47.644518,609.43784 c 2.28979,0.36616 4.16326,0.3941 4.16326,0.0621 0,-0.332 -0.87194,-2.03744 -1.93765,-3.78986 -1.92228,-3.16092 -1.92155,-3.2178 0.092,-7.16458 l 2.02961,-3.97838 -4.59584,0.51802 c -4.23937,0.47784 -4.82071,0.2619 -7.49508,-2.78404 -2.783,-3.16966 -2.92263,-3.21487 -3.48247,-1.1276 -0.32077,1.19595 -0.58937,3.19281 -0.59688,4.43746 -0.0102,1.68805 -1.16534,2.82253 -4.54678,4.46536 l -4.53314,2.20237 4.53314,2.3038 c 3.4776,1.76737 4.53313,2.86241 4.53313,4.70285 0,1.31947 0.28478,3.14118 0.63285,4.04823 0.53575,1.39615 1.12444,1.17273 3.83674,-1.45613 2.88109,-2.79247 3.62333,-3.03826 7.36715,-2.4396 z M 1158.8078,561.4495 c 0,-4.09953 0.2828,-4.56546 4.161,-6.8558 l 4.161,-2.45734 -4.5916,-1.75354 c -4.1252,-1.57546 -4.6582,-2.14815 -5.248,-5.63896 -0.361,-2.13698 -0.9548,-4.06869 -1.3194,-4.2927 -0.3647,-0.224 -1.788,1.13743 -3.163,3.02541 -2.314,3.17729 -2.8534,3.4118 -7.2506,3.15203 -2.6129,-0.15435 -4.7504,-0.14427 -4.75,0.0224 3e-4,0.16668 1.1023,1.92437 2.4488,3.90598 2.3033,3.38959 2.3625,3.80815 1,7.06907 -0.7965,1.90638 -1.4482,3.65169 -1.4482,3.87847 0,0.22677 2.1375,0.13096 4.75,-0.21292 4.2394,-0.55801 5.0106,-0.34671 7.1743,1.96556 3.3579,3.58846 4.0757,3.27009 4.0757,-1.80767 z M 49.112228,557.13389 c 2.09245,0.51618 4.02423,0.71872 4.29286,0.45009 0.26863,-0.26862 -0.26808,-2.07479 -1.19269,-4.01371 -1.61945,-3.39602 -1.60269,-3.63541 0.45714,-6.52817 1.17603,-1.65159 2.13824,-3.27091 2.13824,-3.59851 0,-0.3276 -1.95313,-0.59563 -4.34029,-0.59563 -3.85911,0 -4.63033,-0.40764 -6.9565,-3.67699 l -2.61621,-3.67698 -1.2573,4.7009 c -1.11945,4.18549 -1.67243,4.82527 -5.0435,5.83527 -2.08241,0.62391 -3.7862,1.47644 -3.7862,1.89453 0,0.41808 1.575,1.73355 3.5,2.92327 3.16148,1.9539 3.5,2.5986 3.5,6.66559 v 4.50247 l 3.75,-2.91031 c 3.36784,-2.61373 4.13771,-2.81467 7.55445,-1.97182 z M 1155.7928,501.1242 l 3.8776,-2.77624 -4.659,-1.5 c -4.1002,-1.32007 -4.8499,-2.01861 -6.2499,-5.82336 l -1.5908,-4.32337 -2.6588,4.01765 c -2.3769,3.5917 -3.1424,4.05006 -7.2212,4.32336 l -4.5625,0.30572 2.9141,3.48067 c 2.8178,3.3657 2.8683,3.61032 1.5291,7.40599 -0.7617,2.15892 -1.2253,4.08493 -1.0303,4.28001 0.1951,0.19508 2.1841,-0.29075 4.42,-1.07961 3.8784,-1.36839 4.2187,-1.3207 7.4059,1.03792 l 3.3408,2.47223 0.3037,-4.52237 c 0.2657,-3.9564 0.789,-4.8698 4.1813,-7.2986 z M 56.346848,505.20657 c 2.45351,0.836 4.46093,1.37889 4.46093,1.20642 0,-0.17247 -0.61842,-2.06635 -1.37426,-4.20863 -1.32606,-3.75847 -1.27206,-4.01712 1.5398,-7.37573 l 2.91405,-3.48067 -4.54101,-0.30484 c -3.95846,-0.26573 -4.86069,-0.7753 -7.03299,-3.97212 l -2.49198,-3.66728 -1.65174,4.20493 c -1.4428,3.67301 -2.22335,4.36638 -6.17034,5.48116 l -4.5186,1.27623 3.6567,2.49096 c 3.36476,2.29209 3.65725,2.87966 3.66354,7.35965 l 0.007,4.86869 3.53907,-2.69938 c 3.47557,-2.65095 3.6191,-2.67211 8,-1.17939 z M 1140.6824,456.35284 c -0.2406,-3.91254 0.1482,-4.93318 2.9997,-7.87518 l 3.2761,-3.38006 -4.6645,-0.69948 c -4.3604,-0.65389 -4.7976,-1.00061 -6.7082,-5.31987 l -2.0438,-4.62039 -2.3861,4.69505 c -2.0151,3.96502 -2.8369,4.69505 -5.2852,4.69505 -5.8947,0 -6.5112,0.94192 -2.9925,4.57231 2.9008,2.99293 3.1415,3.70309 2.5366,7.48596 -0.5993,3.74756 -0.4843,4.10272 1.1125,3.43753 6.7112,-2.79564 6.737,-2.79722 10.2934,-0.62918 1.9181,1.16925 3.6339,2.12759 3.8129,2.12964 0.1791,0.002 0.2012,-2.01906 0.049,-4.49138 z M 61.229568,453.90869 c 2.89182,-1.90634 2.96253,-1.90531 6.8927,0.0997 l 3.97091,2.02581 -0.68063,-4.25639 c -0.61794,-3.86442 -0.38986,-4.55638 2.47673,-7.51394 l 3.15734,-3.25756 -4.69516,-0.70408 c -4.05118,-0.60751 -4.91591,-1.16701 -6.30463,-4.07918 -1.98629,-4.16529 -2.65037,-4.2105 -4.2739,-0.29097 -1.34152,3.23872 -4.31872,4.91588 -8.72642,4.91588 h -2.63106 l 3.19616,3.29761 c 2.56472,2.64611 3.19617,4.12785 3.19617,7.5 0,4.76293 0.35448,4.94436 4.42179,2.26312 z M 1118.6961,407.55791 c 1.4364,0.57422 3.4223,1.38138 4.4129,1.79369 1.6372,0.68136 1.7428,0.3053 1.1593,-4.12699 -0.5771,-4.38311 -0.3799,-5.122 1.9487,-7.30096 1.4249,-1.33338 2.5908,-2.74478 2.5908,-3.13646 0,-0.39168 -2.015,-1.01432 -4.4779,-1.38364 -3.8669,-0.57988 -4.806,-1.22174 -6.8827,-4.70418 l -2.4048,-4.03267 -1.7572,4.60118 c -1.5843,4.14846 -2.1392,4.66226 -5.6395,5.22198 -2.1352,0.34144 -4.0929,0.96163 -4.3503,1.3782 -0.2575,0.41656 1.0492,1.91472 2.9037,3.32923 3.1771,2.42322 3.3412,2.84423 2.8406,7.28532 l -0.5312,4.71347 3.7879,-2.34109 c 3.1203,-1.92844 4.2484,-2.15707 6.3997,-1.29708 z M 88.273348,402.46695 c -0.6232,-4.15584 -0.47182,-4.52846 2.94537,-7.25 l 3.60235,-2.86899 -4.25665,-1.04466 c -3.60183,-0.88396 -4.5643,-1.68812 -6.25664,-5.22752 l -2,-4.18286 -2.27986,3.97752 c -2.14527,3.74271 -2.55533,3.97752 -6.94617,3.97752 h -4.6663 l 3.27624,3.38022 c 3.10262,3.20109 3.2193,3.58531 2.20174,7.25 -1.52069,5.47675 -1.5271,5.46964 3.07612,3.40871 4.16177,-1.86327 4.16179,-1.86327 7.75,0.49006 1.97353,1.29434 3.7283,2.37982 3.8995,2.41218 0.1712,0.0323 0.0156,-1.91262 -0.3457,-4.32218 z M 1093.0094,359.65036 c 2.5107,-1.73758 2.9632,-1.76039 6.4036,-0.32291 2.036,0.85072 3.889,1.35967 4.1177,1.13099 0.2286,-0.22867 -0.1317,-2.2428 -0.8007,-4.47585 -1.1364,-3.79306 -1.0423,-4.28833 1.4307,-7.53063 1.4559,-1.90881 2.6471,-3.78675 2.6471,-4.1732 0,-0.38646 -1.9954,-0.42915 -4.4342,-0.0949 -4.287,0.58759 -4.5327,0.4738 -7.4018,-3.42752 -3.1263,-4.25112 -3.4553,-4.20927 -4.6061,0.586 -0.994,4.14139 -2.2171,5.35103 -6.1584,6.09042 -4.2991,0.80652 -4.2786,1.70876 0.1005,4.41517 3.1568,1.95101 3.5,2.60217 3.5,6.64058 0,4.77542 -0.015,4.77206 5.2016,1.16182 z m -979.48079,-11.93888 3.61524,-2.23434 -2.41804,-0.92402 c -1.32991,-0.50821 -3.37379,-1.28927 -4.54194,-1.7357 -1.38993,-0.53118 -2.35593,-2.04847 -2.79531,-4.39057 -0.81776,-4.35903 -1.5564,-4.45571 -4.42266,-0.57889 -1.90396,2.57525 -2.86769,3 -6.806752,3 h -4.58875 l 2.69938,3.53907 c 2.63737,3.45777 2.66518,3.63943 1.21076,7.90793 l -1.48862,4.36886 4.40361,-1.50046 c 4.331772,-1.47598 4.456702,-1.45566 7.657932,1.24586 l 3.25432,2.74632 0.30279,-4.60486 c 0.26776,-4.0721 0.72106,-4.86336 3.91804,-6.8392 z M 1073.438,312.76231 c 5.5048,1.52847 5.5244,1.51261 3.7182,-3.00173 -1.5418,-3.85326 -1.5285,-4.29718 0.232,-7.75 1.0271,-2.01444 2.028,-3.99649 2.2242,-4.40454 0.1962,-0.40806 -1.7842,-0.44848 -4.4009,-0.0898 -4.6063,0.63136 -4.8605,0.52962 -7.9908,-3.19894 l -3.2331,-3.85103 -0.7205,4.80487 c -0.6745,4.4978 -1.0075,4.9318 -5.2099,6.79071 l -4.4893,1.98582 4.12,2.45684 c 3.2943,1.96451 4.1199,3.03024 4.1199,5.31836 0,5.83492 0.9481,6.46776 4.5131,3.01244 3.0601,-2.96597 3.4705,-3.08552 7.1171,-2.07298 z M 139.36433,303.1196 c 1.8939,-0.90314 3.44345,-1.97959 3.44345,-2.39212 0,-0.41254 -1.5847,-1.3231 -3.52155,-2.02347 -2.98498,-1.07939 -3.61447,-1.85446 -4.13135,-5.08689 -0.80764,-5.0507 -1.75015,-5.41624 -4.39351,-1.70398 -2.0982,2.94665 -2.42725,3.05735 -7.15508,2.40711 l -4.95572,-0.68159 2.49005,3.9445 2.49005,3.9445 -1.91104,4.26846 -1.91105,4.26845 2.4996,-0.6083 c 1.37478,-0.33457 3.51905,-0.8556 4.76505,-1.15785 1.66522,-0.40394 3.0562,0.27849 5.25,2.57571 l 2.98455,3.12525 0.30655,-4.61886 c 0.2759,-4.15697 0.6509,-4.78306 3.75,-6.26092 z m 904.88237,-34.03142 c 2.5086,0.28276 4.5611,0.285 4.5611,0.005 0,-0.28002 -0.9664,-2.07273 -2.1475,-3.9838 l -2.1474,-3.47466 2.1382,-4.40101 2.1381,-4.40102 -5.2407,0.60701 c -4.7522,0.55043 -5.4667,0.36473 -7.665,-1.99236 -3.3051,-3.54376 -4.0757,-3.2793 -4.0757,1.3988 0,3.66537 -0.38,4.23466 -4.5648,6.83939 l -4.5649,2.84122 4.4576,1.70235 c 4.1786,1.59582 4.5005,1.98882 5.144,6.28004 l 0.6865,4.57768 3.3597,-3.25636 c 3.0391,-2.94563 3.7949,-3.2073 7.9208,-2.74226 z m -878.42527,-0.49022 c 0.0288,-4.74624 1.12987,-6.38903 5.30554,-7.91586 l 4.18081,-1.52872 -4.19489,-2.14492 c -3.89096,-1.98951 -4.217,-2.47344 -4.5,-6.67918 l -0.30511,-4.53427 -3.62165,2.99348 c -3.22701,2.66729 -3.98905,2.88811 -6.9934,2.02648 -4.92606,-1.41278 -4.97892,-1.35504 -3.00615,3.28299 1.74735,4.10807 1.74634,4.35018 -0.0303,7.25 -2.58894,4.22571 -2.38987,4.53594 2.48208,3.86816 3.96164,-0.543 4.53673,-0.33309 6.75,2.46381 2.91216,3.68007 3.91487,3.91412 3.93305,0.91803 z m 844.59527,-40.75 h 4.4632 l -2.4529,-3.60983 c -2.3291,-3.42752 -2.3809,-3.81417 -1.0254,-7.65599 0.7851,-2.22539 1.2416,-4.23215 1.0142,-4.45948 -0.2273,-0.22733 -2.2116,0.12547 -4.4095,0.78399 -3.7344,1.11885 -4.2323,1.01733 -7.5974,-1.54938 l -3.60112,-2.74669 v 4.4858 c 0,4.16494 -0.302,4.68567 -4.2222,7.27993 -4.5769,3.02888 -4.6478,2.86812 2.3796,5.39587 1.8771,0.67519 2.8659,1.92771 3.3676,4.26581 1.0992,5.1231 1.4947,5.24178 4.66202,1.39926 2.5891,-3.14101 3.516,-3.58929 7.4219,-3.58929 z m -810.20914,-1.31747 c 0.54768,-2.91941 1.20979,-3.5207 5.26269,-4.77933 l 4.63619,-1.43978 -3.9176,-2.59255 c -3.78403,-2.50415 -3.90455,-2.75669 -3.53474,-7.4065 l 0.38287,-4.81395 -4.00245,3.17 c -3.97183,3.14575 -4.03479,3.15858 -8.2303,1.67832 -4.20894,-1.485 -4.22474,-1.48162 -3.53141,0.7548 1.7203,5.54907 1.66668,6.79728 -0.43828,10.20319 l -2.18987,3.54327 h 4.51347 c 3.8775,0 4.81564,0.42437 6.65802,3.01176 2.52066,3.53994 3.53558,3.23273 4.39141,-1.32923 z m 772.78582,-35.68253 h 4.9825 l -3.1342,-3.95714 c -2.9638,-3.74219 -3.0735,-4.18224 -2.0183,-8.10094 0.6137,-2.27909 0.9411,-4.31854 0.7275,-4.53211 -0.2135,-0.21357 -2.2369,0.33785 -4.4963,1.22538 -3.9317,1.54441 -4.2556,1.52249 -7.5455,-0.51075 -1.8905,-1.16844 -3.7829,-2.12444 -4.2053,-2.12444 -0.4223,0 -0.4918,2.0139 -0.1544,4.47533 0.5783,4.21929 0.4144,4.63408 -2.8641,7.25 -1.9126,1.52607 -3.4775,3.06108 -3.4775,3.41113 0,0.35005 1.9979,0.93605 4.4397,1.30222 4.0261,0.60376 4.5507,1.01023 5.6313,4.36355 1.8403,5.71075 2.0663,5.77575 4.6817,1.34693 2.352,-3.98252 2.6505,-4.14916 7.4329,-4.14916 z m -729.3102,-4.60857 4.48545,-0.67263 -3.59408,-3.29373 c -3.27225,-2.99879 -3.54524,-3.65778 -3.04875,-7.3594 0.29992,-2.23612 0.28679,-4.06567 -0.0292,-4.06567 -0.31598,0 -2.10835,0.90499 -3.98303,2.01108 -3.20533,1.89119 -3.63248,1.9175 -7.16525,0.44142 -2.0662,-0.86332 -3.92089,-1.4055 -4.12153,-1.20485 -0.20065,0.20064 0.10799,2.07717 0.68587,4.17005 0.97265,3.52266 0.81861,4.09402 -2.07423,7.69377 l -3.1249,3.88853 4.79713,0.0124 c 4.43256,0.0114 4.98048,0.29522 7.2099,3.73431 l 2.41279,3.72192 1.53219,-4.20227 c 1.41849,-3.89044 1.86503,-4.25218 6.01764,-4.87491 z m 681.0617,-24.2681 c 2.1364,-4.18767 3.6238,-5.12333 8.1447,-5.12333 3.6667,0 3.654,-0.64558 -0.088,-4.50658 -2.8269,-2.91667 -2.954,-3.38206 -2.1291,-7.79761 0.4825,-2.58269 0.6592,-4.69581 0.3925,-4.69581 -0.2666,0 -2.2339,0.98312 -4.3719,2.18472 -3.7443,2.10443 -4.017,2.12281 -7.4201,0.5 -1.9431,-0.9266 -3.8038,-1.68472 -4.1349,-1.68472 -0.331,0 -0.3336,1.95787 -0.01,4.35083 0.5345,3.8999 0.2895,4.64477 -2.3641,7.18709 -3.7446,3.58756 -3.7239,4.46208 0.1053,4.46208 4.4344,0 6.6182,1.51217 7.9318,5.49232 0.6367,1.92923 1.3386,3.50768 1.5597,3.50768 0.2212,0 1.2921,-1.7445 2.3799,-3.87667 z m -645.98425,-3.0309 c 1.68924,-3.31119 2.62159,-4.01368 6.10887,-4.60286 l 4.11537,-0.69529 -2.7246,-2.84387 c -2.38395,-2.48831 -2.65955,-3.42099 -2.20433,-7.4597 0.45024,-3.99456 0.30031,-4.52355 -1.11395,-3.93026 -6.7491,2.83132 -6.80034,2.83409 -10.62871,0.57529 l -3.74353,-2.20873 0.69836,4.65702 c 0.65061,4.33861 0.47441,4.88809 -2.57715,8.0365 -3.25798,3.36138 -3.26242,3.37954 -0.82935,3.39312 4.8064,0.0268 6.72778,1.17565 8.48549,5.07355 0.97044,2.15204 1.91194,3.9128 2.09223,3.9128 0.18029,0 1.22487,-1.75841 2.3213,-3.90757 z m 602.93425,-26.57004 c 1.7687,-3.99854 2.4157,-4.54717 6.0468,-5.12781 2.2363,-0.35761 4.0702,-0.93018 4.0751,-1.27239 0,-0.3422 -1.4338,-1.80807 -3.1973,-3.25748 -2.9499,-2.4245 -3.1844,-3.04965 -2.9314,-7.81555 l 0.2749,-5.18027 -4.1845,2.76922 c -4.14966,2.74609 -4.22204,2.75574 -8.67061,1.15605 -4.4622,-1.6046 -4.48275,-1.6017 -3.86898,0.54634 1.9022,6.65731 1.82095,7.57129 -0.96683,10.87483 l -2.77186,3.28467 4.61982,0.3034 c 4.21498,0.27682 4.81419,0.64925 6.83793,4.25 1.21993,2.17063 2.33923,3.9466 2.48713,3.9466 0.148,0 1.1604,-2.01492 2.2498,-4.47761 z m -559.0196,-2.02239 c 1.88602,-3.19657 2.46538,-3.5 6.6828,-3.5 h 4.61776 l -2.95468,-3.75 c -2.83643,-3.59992 -2.90404,-3.9201 -1.68953,-8 0.69583,-2.3375 1.1442,-4.25 0.99638,-4.25 -0.14783,0 -2.07593,0.6376 -4.28467,1.41689 -3.80498,1.34247 -4.2055,1.28806 -7.62573,-1.03605 l -3.60983,-2.45294 v 4.43246 c 0,3.81611 -0.4881,4.86102 -3.51019,7.51444 l -3.51018,3.08198 2.76018,0.61456 c 1.51811,0.338 3.50562,0.8147 4.4167,1.05932 0.91108,0.24462 2.36994,2.2278 3.2419,4.40706 0.87197,2.17925 1.76959,3.96228 1.99472,3.96228 0.22512,0 1.33859,-1.575 2.47437,-3.5 z m 511.6325,-26.20334 c 0.81974,-2.90158 1.79049,-3.84849 5.38525,-5.252995 l 4.38526,-1.71336 -3.52359,-2.1777 c -2.92044,-1.80492 -3.63888,-2.94649 -4.19709,-6.66888 l -0.67349,-4.49118 -3.24633,2.47609 c -2.89383,2.20723 -3.65738,2.3626 -7.03194,1.43084 -2.08209,-0.57489 -3.97432,-0.85655 -4.20497,-0.62591 -0.23064,0.23065 0.28436,2.10358 1.14445,4.16207 1.51843,3.63411 1.48832,3.84167 -1.03776,7.15354 l -2.60157,3.410825 h 4.42199 c 3.9153,0 4.692,0.39406 6.77848,3.43908 2.66439,3.88842 3.00501,3.8 4.40131,-1.14242 z M 375.77182,98.504125 c 0.0198,-0.46411 2.32133,-0.52952 5.11457,-0.14535 l 5.0786,0.69849 -2.68951,-4.26047 c -2.606,-4.12817 -2.6395,-4.36536 -1.07861,-7.63857 2.30978,-4.84365 2.10243,-5.14527 -2.7705,-4.03019 -4.02896,0.92196 -4.67251,0.78058 -8,-1.75742 l -3.61859,-2.76003 v 4.4858 c 0,4.15924 -0.30492,4.6876 -4.18847,7.25761 l -4.18848,2.7718 4.35588,1.61109 c 3.3345,1.23331 4.56968,2.31452 5.2677,4.61108 0.5015,1.649995 1.1227,3.655395 1.38043,4.456425 0.3455,1.07383 1.10334,0.67978 2.88481,-1.5 1.32891,-1.62603 2.43239,-3.336155 2.45217,-3.800265 z m 411.64132,-17.48637 c 0.21639,-0.73161 2.20265,-2.04089 4.41393,-2.9095 l 4.0205,-1.5793 -3.89928,-2.32525 c -3.85802,-2.30064 -5.10036,-4.55468 -5.12686,-9.30191 -0.0136,-2.42951 -0.0368,-2.42369 -3.41853,0.85397 -3.09404,2.99887 -3.77871,3.23698 -7.5,2.60827 -2.25231,-0.38053 -4.09512,-0.44258 -4.09512,-0.13789 0,0.30468 0.7225,2.06906 1.60555,3.92084 1.51302,3.17284 1.48751,3.59824 -0.44262,7.38162 l -2.04818,4.01475 4.69263,-0.4458 c 4.38418,-0.41649 4.85452,-0.22587 7.15581,2.90017 l 2.46318,3.34596 0.89278,-3.49786 c 0.49103,-1.92382 1.06983,-4.09645 1.28621,-4.82807 z m -361.54237,-1.82279 c 0.24036,0.21322 2.12898,0.69361 4.19693,1.06751 l 3.75992,0.67984 -2.1219,-4.36751 -2.1219,-4.36752 2.09917,-4.11471 2.09917,-4.11471 -3.73719,0.57659 c -2.05545,0.31713 -3.93384,0.74705 -4.1742,0.95539 -0.24035,0.20834 -2.12114,-1.26571 -4.17952,-3.27567 l -3.74252,-3.65447 -0.64839,3.88413 c -0.99477,5.95911 -1.18611,6.27035 -4.96174,8.07083 -1.94195,0.92605 -3.52624,1.93788 -3.52065,2.24851 0.006,0.31064 1.77078,1.304 3.92264,2.20749 3.55533,1.49275 3.97663,2.07059 4.61541,6.33031 l 0.70296,4.68762 3.6874,-3.60066 c 2.02807,-1.98036 3.88406,-3.42619 4.12441,-3.21297 z m 315.52509,-16.96437 c 1.87655,-1.01059 3.41192,-2.11685 3.41192,-2.45834 0,-0.3415 -1.75108,-1.30876 -3.8913,-2.14946 -3.41508,-1.34148 -3.97654,-2.03313 -4.58789,-5.65168 -0.38314,-2.26773 -0.9111,-4.12315 -1.17327,-4.12315 -0.26216,0 -1.61261,1.35 -3.00099,3 -2.11767,2.51671 -3.25087,3 -7.03422,3 h -4.50988 l 2.14985,3.64372 c 2.03443,3.44811 2.06658,3.85183 0.59877,7.52024 -0.85309,2.13208 -1.55107,4.04456 -1.55107,4.24995 0,0.20538 1.77866,-0.078 3.95257,-0.62984 3.5516,-0.90149 4.28707,-0.74034 7.25,1.58856 l 3.29743,2.59183 0.83808,-4.37219 c 0.68059,-3.55059 1.47922,-4.71748 4.25,-6.20964 z m -270.11275,5.64128 c 2.88426,-2.79553 3.2966,-2.9067 6.79675,-1.83248 2.04942,0.62899 3.95751,0.91232 4.24019,0.62963 0.28269,-0.28269 -0.17281,-2.1577 -1.01221,-4.16669 -1.46581,-3.50815 -1.42249,-3.81699 1.09453,-7.80422 l 2.62074,-4.15151 -4.583,0.62817 c -4.34678,0.59579 -4.726,0.44893 -7.35766,-2.84929 -1.52607,-1.9126 -3.07262,-3.47747 -3.43677,-3.47749 -0.36416,-2e-5 -0.97403,1.84623 -1.35527,4.10276 -0.6212,3.67686 -1.16875,4.31318 -5.27426,6.12924 l -4.5811,2.02644 4.18636,2.4723 c 3.90591,2.30669 4.18637,2.76698 4.18637,6.87077 0,2.41915 0.31608,4.39846 0.70239,4.39846 0.38632,0 2.08414,-1.33924 3.77294,-2.97609 z m 215.52467,-10.44235 c 0,-3.97245 0.35391,-4.63717 3.50623,-6.58541 4.05345,-2.50517 3.80072,-3.66034 -0.99779,-4.56054 -2.83318,-0.53151 -3.62339,-1.26885 -4.59624,-4.28874 -1.77901,-5.52236 -1.94124,-5.5823 -4.68225,-1.72991 -2.32965,3.27423 -2.9706,3.58304 -7.43678,3.58304 h -4.88742 l 3.06736,3.81692 c 3.02757,3.7674 3.04821,3.87119 1.59148,8 -1.63087,4.6224 -1.3569,4.8299 3.62743,2.74732 3.23306,-1.35086 3.60988,-1.29385 6.37212,0.96403 1.61472,1.31989 3.27336,2.41599 3.68586,2.43577 0.4125,0.0198 0.75,-1.95234 0.75,-4.38248 z m -159.20777,-0.76695 c 1.48927,0.53946 3.48732,1.29694 4.4401,1.68331 1.60596,0.65125 1.63309,0.37276 0.37192,-3.81778 -1.33121,-4.42326 -1.29707,-4.59711 1.59048,-8.10021 l 2.95088,-3.57993 h -4.55862 c -4.23178,0 -4.75385,-0.29503 -7.28184,-4.11508 -2.93604,-4.43666 -2.79192,-4.50025 -5.24543,2.31471 -0.73109,2.03069 -2.03495,2.98588 -5.26194,3.85482 l -4.29002,1.15518 3.74617,3.14519 c 3.27661,2.75096 3.74615,3.69276 3.74611,7.51387 l -4e-5,4.36869 3.54223,-2.70179 c 2.97848,-2.2718 3.97318,-2.5457 6.25,-1.72098 z m 52.74887,-3.4964 c 2.03858,0.97213 3.85093,1.62309 4.02745,1.44658 0.17651,-0.17652 -0.0826,-2.10831 -0.57586,-4.29286 -0.82048,-3.63392 -0.64558,-4.23128 2.05526,-7.01954 3.71219,-3.83235 3.69636,-4.45239 -0.11369,-4.45239 -4.22128,0 -6.43874,-1.38949 -7.91843,-4.96178 -0.69216,-1.67102 -1.58562,-3.03822 -1.98546,-3.03822 -0.39984,0 -1.42028,1.76493 -2.26762,3.92207 -1.41017,3.58994 -1.93792,3.98165 -6.23201,4.62559 l -4.69137,0.70352 3.5257,3.62441 c 3.23687,3.3275 3.47717,3.98195 2.93329,7.98889 l -0.59241,4.36447 4.06432,-2.33913 c 3.9933,-2.29824 4.1291,-2.30823 7.77083,-0.57161 z m 51.08737,0.62509 c 1.91722,1.13118 3.74438,2.0567 4.06036,2.0567 0.31598,0 0.32084,-1.89125 0.0108,-4.20277 -0.52297,-3.89904 -0.29762,-4.43306 3.11833,-7.38945 l 3.68204,-3.18668 -4.5,-0.89165 c -3.98895,-0.79039 -4.73057,-1.37797 -6.53026,-5.17389 l -2.03026,-4.28224 -2.28372,4.06334 c -1.75614,3.12461 -2.90426,4.07958 -4.96974,4.13363 -1.47731,0.0387 -3.49065,0.38805 -4.47409,0.77643 -1.59294,0.6291 -1.45307,1.0271 1.2817,3.64717 3.11308,2.98253 3.24967,4.08259 1.34361,10.82138 -0.47519,1.68 -0.20349,1.65714 3.64596,-0.3067 l 4.15942,-2.12198 z"
   style="fill:#000000" />
</svg>