<svg xmlns="http://www.w3.org/2000/svg" width="100" height="100" viewBox="0 0 100 100" version="1.1">
	<path d="M 57.426 32.750 C 55.428 37.013, 53.150 41.981, 52.366 43.790 C 51.581 45.600, 50.510 46.815, 49.985 46.491 C 49.460 46.166, 46.945 42.978, 44.396 39.407 C 41.847 35.835, 39.253 33.080, 38.631 33.285 C 38.009 33.490, 33.994 38.797, 29.708 45.079 C 25.422 51.360, 19.235 59.212, 15.958 62.527 C 12.681 65.842, 10 69.104, 10 69.777 C 10 70.721, 19.136 71, 50 71 C 75.230 71, 90 70.641, 90 70.028 C 90 69.493, 87.373 65.055, 84.161 60.164 C 80.950 55.274, 75.010 45.361, 70.962 38.136 C 66.914 30.911, 63.030 25, 62.331 25 C 61.632 25, 59.425 28.487, 57.426 32.750 M 63 40.875 L 63 48.750 65.883 49.327 C 67.469 49.644, 69.936 50.197, 71.365 50.555 C 73.899 51.192, 73.839 50.985, 68.897 42.104 C 66.110 37.097, 63.644 33, 63.415 33 C 63.187 33, 63 36.544, 63 40.875 M 56.091 44.156 C 53.454 49.911, 52.009 54.407, 52.198 56.261 L 52.500 59.210 56.750 53.971 C 60.828 48.942, 61 48.454, 61 41.865 C 61 38.089, 60.839 35, 60.642 35 C 60.446 35, 58.397 39.120, 56.091 44.156 M 39 44.543 C 39 48.567, 39.529 49.651, 43.637 54.043 C 46.187 56.769, 48.662 59, 49.137 59 C 49.612 59, 50 57.718, 50 56.151 C 50 53.434, 41.504 40.063, 39.750 40.019 C 39.337 40.008, 39 42.044, 39 44.543 M 33.633 45.979 C 30.292 51.028, 30.330 51.398, 34 49.500 C 36.313 48.304, 37 47.268, 37 44.974 C 37 43.338, 36.835 42, 36.633 42 C 36.431 42, 35.081 43.790, 33.633 45.979 M 31.844 52.963 C 29.283 54.571, 26.883 56.380, 26.511 56.982 C 25.853 58.047, 28.999 67.034, 30 66.951 C 30.275 66.928, 32.720 63.961, 35.434 60.358 C 39.266 55.272, 40.144 53.452, 39.363 52.213 C 37.798 49.733, 36.837 49.828, 31.844 52.963 M 56.804 56.757 L 52.109 62.500 57.804 65.173 C 62.965 67.596, 73 69.068, 73 67.402 C 73 66.835, 62.062 50.992, 61.681 51.007 C 61.582 51.011, 59.387 53.599, 56.804 56.757 M 65 51.731 C 65 52.014, 67.088 55.172, 69.640 58.748 C 73.450 64.088, 74.444 64.958, 75.197 63.613 C 75.701 62.712, 75.976 60.076, 75.807 57.755 C 75.500 53.542, 75.494 53.535, 70.250 52.376 C 67.362 51.737, 65 51.447, 65 51.731 M 37.120 61.457 C 34.854 64.458, 33 67.158, 33 67.457 C 33 67.756, 35.622 68, 38.826 68 C 43.754 68, 45.015 67.613, 47.011 65.489 L 49.370 62.977 45.989 59.489 C 44.129 57.570, 42.300 56, 41.924 56 C 41.548 56, 39.386 58.456, 37.120 61.457 M 77.637 61.066 C 76.396 67.269, 76.698 68, 80.500 68 C 82.425 68, 83.998 67.662, 83.996 67.250 C 83.993 66.838, 82.705 64.561, 81.133 62.191 L 78.274 57.882 77.637 61.066 M 20.196 63.298 C 18.438 65.111, 17 66.911, 17 67.298 C 17 67.684, 19.250 68, 22 68 C 24.750 68, 27 67.617, 27 67.149 C 27 65.453, 24.787 60, 24.098 60 C 23.710 60, 21.954 61.484, 20.196 63.298 M 48.980 65.524 C 47.205 67.663, 48.133 68.172, 53.146 67.813 L 57.500 67.500 54.300 65.750 C 50.424 63.631, 50.547 63.636, 48.980 65.524 " stroke="none" fill="black" fill-rule="evenodd"/>
</svg>