<svg xmlns="http://www.w3.org/2000/svg" width="100" height="100" viewBox="0 0 100 100" version="1.1">
	<path d="M 10 48.510 C 10 70.990, 10.269 77.077, 11.250 76.751 C 12.189 76.438, 12.624 69.936, 13 50.597 L 13.500 24.859 28.223 35.926 L 42.946 46.992 43.223 61.664 C 43.424 72.310, 43.843 76.450, 44.750 76.751 C 45.716 77.072, 45.989 73.572, 45.950 61.333 L 45.899 45.500 29.237 33 C 20.072 26.125, 11.995 20.355, 11.287 20.177 C 10.260 19.919, 10 25.646, 10 48.510 M 70.806 32.836 L 54.111 45.500 54.056 61.333 C 54.013 73.574, 54.284 77.072, 55.250 76.751 C 56.157 76.450, 56.576 72.310, 56.777 61.664 L 57.054 46.992 71.777 35.926 L 86.500 24.859 87 50.597 C 87.376 69.936, 87.811 76.438, 88.750 76.751 C 89.731 77.077, 90 71.005, 90 48.583 C 90 26.337, 89.723 20.019, 88.750 20.086 C 88.063 20.134, 79.988 25.871, 70.806 32.836 " stroke="none" fill="black" fill-rule="evenodd"/>
</svg>