<svg xmlns="http://www.w3.org/2000/svg" width="100" height="100" viewBox="0 0 100 100" version="1.1">
	<path d="M 40.618 11.048 C 34.290 12.638, 25.284 17.968, 20.912 22.711 C 18.667 25.147, 15.405 30.147, 13.665 33.820 C 10.799 39.869, 10.500 41.402, 10.500 50.052 C 10.500 59.067, 10.710 60.028, 14.235 67.160 C 18.733 76.262, 24.523 81.931, 33.820 86.335 C 39.861 89.197, 41.409 89.500, 50 89.500 C 58.609 89.500, 60.132 89.201, 66.241 86.307 C 74.965 82.174, 82.174 74.965, 86.307 66.241 C 89.204 60.124, 89.500 58.616, 89.500 49.948 C 89.500 40.933, 89.290 39.972, 85.765 32.840 C 79.008 19.167, 67.003 11.144, 52.249 10.442 C 47.987 10.239, 42.753 10.512, 40.618 11.048 M 37.423 13.763 C 26.480 17.669, 17.029 27.525, 13.437 38.777 C 10.800 47.036, 11.788 58.787, 15.779 66.620 C 19.724 74.361, 26.402 81.070, 33.762 84.683 C 38.948 87.229, 40.510 87.500, 50 87.500 C 59.502 87.500, 61.048 87.231, 66.265 84.670 C 73.844 80.950, 80.911 73.930, 84.556 66.500 C 87.247 61.016, 87.500 59.596, 87.500 50 C 87.500 40.486, 87.233 38.956, 84.655 33.703 C 81.003 26.261, 73.653 18.937, 66.297 15.411 C 58.651 11.744, 45.225 10.978, 37.423 13.763 M 41.230 15.550 C 33.582 17.609, 30.186 19.632, 24.364 25.596 C 9.082 41.248, 11.935 67.332, 30.254 79.457 C 52.642 94.276, 81.441 80.917, 85.503 53.830 C 86.308 48.461, 84.618 39.172, 81.841 33.705 C 77.264 24.695, 68.293 17.748, 58.147 15.360 C 51.137 13.710, 47.931 13.746, 41.230 15.550 M 31.371 36.704 C 31.758 37.091, 33.294 37.429, 34.785 37.454 C 37.282 37.496, 37.902 38.442, 42.681 49.500 C 45.533 56.100, 47.882 62.400, 47.900 63.500 C 47.917 64.600, 46.085 61.100, 43.828 55.721 C 41.571 50.343, 39.559 46.107, 39.357 46.309 C 38.725 46.942, 47.292 66.937, 48.007 66.496 C 48.380 66.265, 50.869 60.772, 53.540 54.288 C 56.210 47.805, 59.204 41.150, 60.194 39.500 C 61.984 36.514, 61.993 36.565, 61.996 50.191 C 61.998 57.721, 61.584 64.139, 61.076 64.453 C 60.567 64.767, 59.945 64.231, 59.692 63.262 C 59.321 61.840, 59.210 61.808, 59.116 63.097 C 59.052 63.976, 57.987 65.183, 56.750 65.780 C 54.916 66.664, 55.885 66.867, 62 66.880 C 69.101 66.894, 69.380 66.812, 67.250 65.326 C 65.117 63.838, 65 63.096, 65 51.031 C 65 38.823, 65.091 38.262, 67.250 37.220 C 69.216 36.272, 68.898 36.127, 64.729 36.068 C 60.701 36.011, 59.805 36.351, 58.984 38.250 C 58.449 39.487, 56.275 44.726, 54.153 49.890 L 50.294 59.281 45.451 47.640 L 40.608 36 35.637 36 C 32.903 36, 30.983 36.317, 31.371 36.704 M 35 50.492 C 35 61.900, 34.827 63.091, 33 64.232 C 29.805 66.227, 30.643 67, 36 67 C 41.357 67, 42.195 66.227, 39 64.232 C 37.210 63.114, 37.002 61.909, 37.015 52.742 C 37.026 45.760, 37.339 42.977, 38 44 C 38.533 44.825, 38.976 45.140, 38.985 44.700 C 39.006 43.612, 36.066 38, 35.474 38 C 35.213 38, 35 43.621, 35 50.492 M 34.500 64 C 34.160 64.550, 34.610 65, 35.500 65 C 36.390 65, 36.840 64.550, 36.500 64 C 36.160 63.450, 35.710 63, 35.500 63 C 35.290 63, 34.840 63.450, 34.500 64 " stroke="none" fill="black" fill-rule="evenodd"/>
</svg>