<?xml version="1.0" encoding="UTF-8"?>
<svg width="28px" height="28px" viewBox="0 0 28 28" version="1.1" xmlns="http://www.w3.org/2000/svg" xmlns:xlink="http://www.w3.org/1999/xlink">
    <!-- Generator: Sketch 52.5 (67469) - http://www.bohemiancoding.com/sketch -->
    <title>MossCoin_logo_1000x1000-01</title>
    <desc>Created with Sketch.</desc>
    <g id="Wallet" stroke="none" stroke-width="1" fill="none" fill-rule="evenodd">
        <g id="New" transform="translate(-116.000000, -307.000000)" fill-rule="nonzero">
            <g id="MossCoin_logo_1000x1000-01" transform="translate(116.000000, 307.000000)">
                <circle id="Oval" fill="#9CE3E5" cx="14" cy="14" r="14"></circle>
                <g id="Group" opacity="0.7" transform="translate(0.000000, 14.000000)" fill="#2E7689">
                    <path d="M28,0 C28,7.73192 21.73192,14 14,14 C6.26808,14 0,7.73192 0,0 L28,0 Z" id="Shape"></path>
                </g>
                <circle id="Oval" fill="#36C7CE" cx="14.1666667" cy="14.1666667" r="12.8333333"></circle>
                <g id="Group" opacity="0.7" transform="translate(8.000000, 8.333333)" fill="#3588A5">
                    <path d="M12.3272546,0 L18.6594121,6.3025 C18.5578475,12.9902778 12.9673343,18.2358333 6.24286996,18.3172222 L0.0145092177,12.1155556 L2.68225212,12.1155556 L2.68225212,4.5525 L5.66417539,9.07111111 L6.17506726,9.35805556 L9.1327155,4.99444444 L12.3272546,0 Z" id="Shape"></path>
                </g>
                <polygon id="Shape" fill="#EBFFFF" points="17.3042215 20 17.3042215 11.9480346 13.83459 17.2163149 13.7639351 17.2163149 10.328933 12.0008151 10.328933 20 7.66666667 20 7.66666667 7.66666667 10.5911661 7.66666667 13.83459 12.8813287 17.0741043 7.66666667 20 7.66666667 20 20"></polygon>
                <polygon id="Shape" fill="#2FADAA" points="10.4642805 20 11 20.5 8.20209375 20.5 7.66666667 20"></polygon>
                <polygon id="Shape" fill="#2FADAA" points="20.1309472 20 20.6666667 20.5 17.8690528 20.5 17.3333333 20"></polygon>
                <polygon id="Shape" fill="#28808E" points="17 12 13.6666667 17.2781303 14.157762 17.6666667 17 13.2882462"></polygon>
                <polygon id="Shape" fill="#28808E" points="10.3479267 19.9386723 10.3333333 12 11 12.7876591 11 20.3333333"></polygon>
                <polygon id="Shape" fill="#28808E" points="20 19.9376737 20.0127365 7.66666667 20.6666667 8.21319938 20.6666667 20.3333333"></polygon>
                <polygon id="Rectangle-path" fill="#EBFFFF" points="4.66666667 12.3333333 7.66666667 12.3333333 7.66666667 13.6666667 4.66666667 13.6666667"></polygon>
                <polygon id="Rectangle-path" fill="#EBFFFF" points="4.66666667 14.6666667 7.66666667 14.6666667 7.66666667 16 4.66666667 16"></polygon>
                <polygon id="Shape" fill="#2FADAA" points="7.66666667 13.6666667 7.66666667 14.1666667 5.18979631 14.1666667 4.66666667 13.6666667"></polygon>
                <polygon id="Shape" fill="#2FADAA" points="7.66666667 16 7.66666667 16.5 5.18979631 16.5 4.66666667 16"></polygon>
                <polygon id="Rectangle-path" fill="#EBFFFF" points="20 12.3333333 23 12.3333333 23 13.6666667 20 13.6666667"></polygon>
                <polygon id="Shape" fill="#2FADAA" points="22.8377318 13.6666667 23.3333333 14.1666667 20.4958722 14.1666667 20 13.6666667"></polygon>
                <polygon id="Shape" fill="#28808E" points="23.6666667 14 23 13.5937536 23 12.3333333 23.6666667 12.7395798"></polygon>
                <polygon id="Rectangle-path" fill="#EBFFFF" points="20 14.6666667 23 14.6666667 23 16 20 16"></polygon>
                <polygon id="Shape" fill="#2FADAA" points="22.8377318 16 23.3333333 16.5 20.4958722 16.5 20 16"></polygon>
                <polygon id="Shape" fill="#28808E" points="23.6666667 16.3333333 23 15.926871 23 14.6666667 23.6666667 15.073129"></polygon>
                <g id="Group" opacity="0.7" transform="translate(14.333333, 14.666667)" fill="#2F7A8E">
                    <path d="M1.18388203,13.3108298 C7.64883402,12.5738397 12.9020645,7.60956399 13.6556996,1.14627286 L13.0122977,0.502953586 L12.5342455,0.0247538678 C12.2027023,6.78087201 6.83839506,11.8728551 0.0205281207,12.1915612 L0.656337449,12.8270042 L1.18388203,13.3108298" id="Shape"></path>
                </g>
                <g id="Group" opacity="0.7" transform="translate(1.333333, 1.333333)" fill="#3CA7D5">
                    <path d="M25.6504148,12.6666667 C25.6504148,5.67981077 19.9121215,0.0160407569 12.8333333,0.0160407569 C5.75454512,0.0160407569 0.0162518195,5.67981077 0.0162518195,12.6666667 C0.0162518195,6.59634643 6.68314047,1.03877729 12.8333333,1.03877729 C18.9835262,1.03877729 25.6504148,6.59634643 25.6504148,12.6666667 Z" id="Shape"></path>
                </g>
            </g>
        </g>
    </g>
</svg>