<?xml version="1.0" encoding="UTF-8"?>
<svg width="28px" height="28px" viewBox="0 0 28 28" version="1.1" xmlns="http://www.w3.org/2000/svg" xmlns:xlink="http://www.w3.org/1999/xlink">
    <!-- Generator: Sketch 49.3 (51167) - http://www.bohemiancoding.com/sketch -->
    <title>MOT</title>
    <desc>Created with Sketch.</desc>
    <defs></defs>
    <g id="Page-1" stroke="none" stroke-width="1" fill="none" fill-rule="evenodd">
        <g id="MOT">
            <circle id="Oval" fill="#FFFFFF" fill-rule="evenodd" cx="14" cy="14" r="14"></circle>
            <g id="olympus" stroke-width="1" fill-rule="evenodd" transform="translate(1.000000, 5.000000)"></g>
            <ellipse id="Oval" fill="#000000" fill-rule="evenodd" cx="8.36144578" cy="8.33666667" rx="1" ry="1"></ellipse>
            <ellipse id="Oval-Copy" fill="#000000" fill-rule="evenodd" cx="12.5903614" cy="5.79444444" rx="1" ry="1"></ellipse>
            <ellipse id="Oval-Copy-2" fill="#000000" fill-rule="evenodd" cx="16.9759036" cy="8.33666667" rx="1" ry="1"></ellipse>
            <path d="M9.40561361,17.5633726 L6.46700496,14.3402012 L5.70624841,14.7487722 C5.27366135,14.9757561 4.91565827,15.1270787 4.87090788,15.0816819 C4.84107429,15.0514174 3.94606658,13.9921592 2.90189092,12.7361816 C1.85771525,11.4953363 1.00745793,10.4360781 1.00745793,10.3906813 C1.00745793,10.3452845 1.99196641,11.1472943 3.18531002,12.1460235 L5.37807892,13.9921592 L6.85484164,13.3263398 L8.34652116,12.6756526 L8.43602193,11.8585105 C8.49568911,11.4045427 8.58518988,10.5722684 8.64485706,10.0123748 L8.76419142,8.96824889 L10.4647061,14.0526882 C11.4044642,16.8521563 12.2398047,19.3187147 12.3143887,19.5154341 C12.433723,19.8786083 12.4933902,19.8483438 13.5823163,18.6528953 C14.5817415,17.5633726 14.7905767,17.41205 15.2828309,17.3969177 C15.8198355,17.3969177 15.9690035,17.2455951 18.698777,13.9013656 C20.2799573,11.9795686 21.5180513,10.5420039 21.4733009,10.723591 C21.4285505,10.8900459 21.1302146,12.0249654 20.8020451,13.2204139 L20.2352069,15.3994594 L21.1152978,16.3981885 C21.6075521,16.9429499 22.0699727,17.3969177 22.1445567,17.3969177 C22.2042239,17.3969177 23.2334827,16.2922627 24.4119096,14.9303593 C25.5903364,13.5684559 26.709096,12.3276106 26.8731808,12.1460235 C27.1416831,11.8887751 22.6666445,18.0627371 22.2788079,18.4864404 C22.2042239,18.577234 21.4882177,18.0173404 20.59321,17.1850661 C19.4893672,16.1409401 18.9225289,15.7323691 18.6391098,15.7323691 C18.3258571,15.7323691 17.9976876,16.0350143 17.028096,17.3212564 L15.8049187,18.925276 L14.9994118,18.8193501 L14.2088217,18.7285566 L13.3585643,19.7726825 C12.8961437,20.3325761 12.4784734,20.8016762 12.433723,20.8016762 C12.3889727,20.8016762 11.0315443,19.3489792 9.40561361,17.5633726 Z" id="Shape" fill="#000000" fill-rule="nonzero" transform="translate(13.946123, 14.884963) scale(-1, 1) rotate(-180.000000) translate(-13.946123, -14.884963) "></path>
        </g>
    </g>
</svg>