<svg xmlns="http://www.w3.org/2000/svg" width="226.777" height="226.777" viewBox="0 0 226.777 226.777"><path d="M101.447 1.368c-19.593 1.965-39.591 9.823-55.601 21.727-7.11 5.258-17.975 15.948-22.946 22.65-27.165 35.942-30.632 83.787-8.958 123.485 9.305 16.988 26.24 34.034 43.406 43.8 27.916 15.775 60.918 19.068 91.493 9.014 11.849-3.871 21.675-8.956 31.847-16.526 35.719-26.58 52.654-70.67 43.81-114.007-4.45-21.958-14.853-41.085-31.095-57.322-24.564-24.558-57.45-36.288-91.956-32.821zM65.035 114.855v55.762h-8.67V59.094h8.67zm100.568 0v55.762h-9.248V59.094h9.248zm-68.78-.867v36.404h-9.247V77.585h9.248zm35.257.29V131.9h-9.248V96.653h9.248z"/></svg>