<svg xmlns="http://www.w3.org/2000/svg" width="100" height="100" viewBox="0 0 100 100" version="1.1">
	<path d="M 20.500 20.750 L 10.500 26.515 10.500 49.867 L 10.500 73.220 20.694 79.110 L 30.888 85 40.422 79.418 L 49.957 73.835 58.763 78.918 C 63.607 81.713, 68.307 84, 69.209 84 C 70.111 84, 75.045 81.574, 80.174 78.610 L 89.500 73.219 89.500 49.888 L 89.500 26.558 80.500 21.224 C 75.550 18.291, 70.943 15.644, 70.263 15.343 C 69.582 15.042, 64.739 17.305, 59.500 20.372 L 49.975 25.949 41.523 20.957 C 36.874 18.211, 32.492 15.744, 31.785 15.475 C 31.078 15.205, 26 17.579, 20.500 20.750 M 22.500 23.112 C 18.650 25.355, 15.368 27.317, 15.206 27.472 C 14.941 27.727, 65.075 57.019, 67.191 57.846 C 67.680 58.037, 67.948 54.013, 67.789 48.880 L 67.500 39.567 50 29.363 C 40.375 23.751, 31.825 19.131, 31 19.097 C 30.175 19.063, 26.350 20.870, 22.500 23.112 M 60.150 23.630 C 52.919 27.728, 52.914 27.705, 62.250 32.929 L 68 36.147 68 28.073 C 68 23.633, 67.662 20.007, 67.250 20.015 C 66.838 20.024, 63.642 21.650, 60.150 23.630 M 71.229 40.169 L 71.500 60.337 78.835 64.669 C 82.869 67.051, 86.357 69, 86.585 69 C 86.813 69, 86.995 59.888, 86.989 48.750 L 86.979 28.500 79.522 24.250 C 75.420 21.913, 71.816 20, 71.512 20 C 71.207 20, 71.080 29.076, 71.229 40.169 M 13 50.878 C 13 65.591, 13.325 71.009, 14.250 71.734 C 14.938 72.273, 18.538 74.391, 22.250 76.443 L 29 80.172 28.988 59.836 L 28.975 39.500 21.638 35.250 C 17.602 32.913, 14.008 31, 13.650 31 C 13.293 31, 13 39.945, 13 50.878 M 32 50.916 L 32 59.833 50.332 70.416 C 60.414 76.237, 68.913 81, 69.217 81 C 69.521 81, 73.247 79.018, 77.497 76.596 C 85.150 72.234, 85.201 72.178, 82.862 70.705 C 77.296 67.199, 33.195 42, 32.626 42 C 32.282 42, 32 46.012, 32 50.916 M 32 71.917 C 32 76.362, 32.245 80, 32.544 80 C 33.513 80, 46 72.592, 46 72.018 C 46 71.565, 35.607 65.398, 32.768 64.167 C 32.346 63.983, 32 67.471, 32 71.917 " stroke="none" fill="black" fill-rule="evenodd"/>
</svg>