<svg xmlns="http://www.w3.org/2000/svg" width="100" height="100" viewBox="0 0 100 100" version="1.1">
	<path d="M 40.618 11.048 C 34.290 12.638, 25.284 17.968, 20.912 22.711 C 18.667 25.147, 15.405 30.147, 13.665 33.820 C 10.799 39.869, 10.500 41.402, 10.500 50.052 C 10.500 59.067, 10.710 60.028, 14.235 67.160 C 18.733 76.262, 24.523 81.931, 33.820 86.335 C 39.861 89.197, 41.409 89.500, 50 89.500 C 58.591 89.500, 60.139 89.197, 66.180 86.335 C 75.477 81.931, 81.267 76.262, 85.765 67.160 C 89.294 60.020, 89.500 59.075, 89.500 50 C 89.500 40.925, 89.294 39.980, 85.765 32.840 C 79.008 19.167, 67.003 11.144, 52.249 10.442 C 47.987 10.239, 42.753 10.512, 40.618 11.048 M 43.500 13.661 C 26.915 17.215, 15.329 29.841, 13.372 46.496 L 12.725 51.997 20.112 48.587 C 24.176 46.712, 29.192 44.862, 31.261 44.476 C 34.904 43.795, 36.779 42.446, 35.651 41.318 C 35.349 41.016, 33.655 41.273, 31.886 41.890 C 29.218 42.820, 28.357 42.728, 26.835 41.351 C 24.479 39.218, 24.523 38.326, 27.049 36.974 C 28.548 36.172, 30.043 36.189, 32.616 37.038 C 35.690 38.053, 36.311 37.966, 37.535 36.350 C 39.577 33.655, 39.372 33.145, 35.500 31.299 C 32.724 29.975, 32 29.047, 32 26.815 C 32 24.487, 32.428 24, 34.474 24 C 36.260 24, 37.409 24.904, 38.601 27.250 C 39.511 29.038, 40.367 30.632, 40.504 30.793 C 40.641 30.955, 42.614 30.506, 44.889 29.796 C 47.904 28.855, 48.862 28.098, 48.427 27.003 C 46.871 23.088, 46.861 19.360, 48.402 18.081 C 49.729 16.980, 50.271 16.980, 51.598 18.081 C 53.173 19.389, 53.125 23.086, 51.478 27.250 C 50.967 28.542, 51.279 29, 52.671 29 C 53.707 29, 55.539 29.689, 56.741 30.531 C 58.835 31.998, 59.015 31.891, 60.984 28.031 C 62.551 24.960, 63.631 24, 65.520 24 C 67.573 24, 68 24.485, 68 26.815 C 68 29.047, 67.276 29.975, 64.500 31.299 C 60.636 33.141, 60.375 33.762, 62.333 36.441 C 63.520 38.064, 64.084 38.128, 67.439 37.020 C 70.473 36.019, 71.680 36.026, 73.606 37.057 C 76.477 38.593, 76.558 39.185, 74.189 41.329 C 72.735 42.645, 71.700 42.774, 68.945 41.984 C 64.710 40.770, 64 40.758, 64 41.903 C 64 42.399, 67.257 43.794, 71.238 45.004 C 75.219 46.213, 80.151 48.057, 82.198 49.101 C 84.245 50.145, 86.221 51, 86.589 51 C 88.056 51, 85.735 40.132, 83.017 34.275 C 76.156 19.488, 58.728 10.397, 43.500 13.661 M 32.362 48.981 C 25.111 50.882, 15.662 55.121, 14.506 56.990 C 14.157 57.555, 14.130 58.835, 14.447 59.833 C 14.981 61.517, 15.436 61.444, 20.761 58.827 C 38.288 50.211, 60.464 49.881, 77.765 57.977 C 84.500 61.129, 86 61.132, 86 57.992 C 86 55.646, 76.439 50.941, 66.936 48.610 C 57.900 46.394, 41.563 46.569, 32.362 48.981 M 35.514 56.614 C 32.221 57.410, 26.517 59.449, 22.837 61.145 C 16.474 64.078, 16.200 64.345, 17.234 66.614 C 18.572 69.550, 18.507 69.550, 25.295 66.548 C 41.791 59.253, 57.229 59.108, 74.381 66.088 C 80.864 68.726, 81.427 68.803, 82.637 67.210 C 84.675 64.528, 84.342 64.046, 78.660 61.445 C 65.398 55.373, 48.482 53.479, 35.514 56.614 M 39.146 66.853 C 36.202 67.904, 32.830 69.726, 31.653 70.903 C 29.663 72.893, 29.619 73.231, 31.032 75.749 C 31.868 77.237, 34.071 79.479, 35.929 80.731 C 39.290 82.996, 39.313 82.998, 40.710 81.004 C 41.482 79.902, 42.593 79, 43.179 79 C 43.884 79, 43.848 79.478, 43.074 80.411 C 42.176 81.493, 42.189 81.999, 43.132 82.582 C 43.882 83.045, 44.923 82.495, 45.803 81.171 C 47.404 78.758, 49.239 78.213, 48.400 80.399 C 47.453 82.867, 50.254 83.503, 51.803 81.171 C 53.609 78.450, 54.981 78.356, 54.290 81 C 53.933 82.364, 54.259 83, 55.316 83 C 56.168 83, 57.151 82.100, 57.500 81 C 57.849 79.900, 58.540 79, 59.036 79 C 59.532 79, 59.696 79.629, 59.400 80.399 C 57.553 85.214, 66.209 81.331, 69.398 75.914 C 71.262 72.747, 71.262 72.664, 69.398 71.232 C 61.905 65.479, 48.458 63.532, 39.146 66.853 M 48.356 69.627 C 46.614 70.341, 47.989 74, 50 74 C 52.240 74, 53.320 70.337, 51.308 69.565 C 50.499 69.254, 49.761 69.036, 49.668 69.079 C 49.576 69.122, 48.985 69.369, 48.356 69.627 M 38.176 72.224 C 36.391 74.009, 36.769 76, 38.893 76 C 41.232 76, 42.328 73.517, 40.617 72.097 C 39.726 71.358, 39.005 71.395, 38.176 72.224 M 59.206 72.194 C 57.745 73.655, 58.849 76, 61 76 C 63.496 76, 64.160 73.581, 62.029 72.250 C 60.791 71.477, 59.940 71.460, 59.206 72.194 " stroke="none" fill="black" fill-rule="evenodd"/>
</svg>