<?xml version="1.0" encoding="UTF-8"?>
<svg width="27px" height="28px" viewBox="0 0 27 28" version="1.1" xmlns="http://www.w3.org/2000/svg" xmlns:xlink="http://www.w3.org/1999/xlink">
    <!-- Generator: Sketch 52.3 (67297) - http://www.bohemiancoding.com/sketch -->
    <title>odysee</title>
    <desc>Created with Sketch.</desc>
    <g id="Wallet" stroke="none" stroke-width="1" fill="none" fill-rule="evenodd">
        <g id="All-Tokens" transform="translate(-34.000000, -537.000000)" fill="#18242A">
            <g id="odysee" transform="translate(34.000000, 537.000000)">
                <g id="Group-3" transform="translate(0.000000, 0.102224)">
                    <path d="M13.4837693,0.911467586 C6.51461759,0.911467586 0.84481069,6.58144345 0.84481069,13.5505952 C0.84481069,20.5197469 6.51461759,26.1895538 13.4837693,26.1895538 C20.452921,26.1895538 26.1228969,20.5197469 26.1228969,13.5505952 C26.1228969,6.58144345 20.452921,0.911467586 13.4837693,0.911467586 M13.4837693,27.0343814 C6.04877966,27.0343814 -1.68965517e-05,20.9855848 -1.68965517e-05,13.5505952 C-1.68965517e-05,6.11560552 6.04877966,0.06664 13.4837693,0.06664 C20.918759,0.06664 26.9677245,6.11560552 26.9677245,13.5505952 C26.9677245,20.9855848 20.918759,27.0343814 13.4837693,27.0343814" id="Fill-1"></path>
                </g>
                <path d="M11.9917024,19.8390017 C9.19718172,19.1671948 7.11991966,16.6533259 7.11991966,13.6528362 C7.11991966,10.6521776 9.19718172,8.13813966 11.9917024,7.46650172 L11.9917024,5.20101207 C7.96271966,5.90762586 4.90005069,9.42143276 4.90005069,13.6528362 C4.90005069,17.8842397 7.96271966,21.3980466 11.9917024,22.1044914 L11.9917024,19.8390017 Z" id="Fill-4"></path>
                <path d="M14.8373859,5.17620793 L14.8373859,7.43460103 C17.7015203,8.05521138 19.8477203,10.6027045 19.8477203,13.652701 C19.8477203,16.7028666 17.7015203,19.2503597 14.8373859,19.87097 L14.8373859,22.1291941 C18.9347997,21.4801976 22.0675893,17.9327666 22.0675893,13.652701 C22.0675893,9.37280448 18.9347997,5.82537345 14.8373859,5.17620793" id="Fill-6"></path>
            </g>
        </g>
    </g>
</svg>