<svg xmlns="http://www.w3.org/2000/svg" width="100" height="100" viewBox="0 0 100 100" version="1.1">
	<path d="M 15 38.074 C 15 62.610, 15.752 65.848, 23.181 73.277 C 30.293 80.388, 37.533 83.421, 47.500 83.465 C 54.185 83.494, 56.404 83.060, 61 80.821 C 64.025 79.348, 67.625 77.225, 69 76.104 L 71.500 74.066 43.250 45.785 L 15 17.504 15 38.074 M 43.500 19.340 C 37.949 21.187, 31.628 24.538, 30.004 26.495 C 28.795 27.952, 31.818 31.313, 56.821 56.316 L 85 84.496 85 64.426 C 85 40.772, 84.277 37.653, 76.935 29.620 C 68.598 20.497, 53.745 15.931, 43.500 19.340 " stroke="none" fill="black" fill-rule="evenodd"/>
</svg>