<?xml version="1.0" encoding="UTF-8"?>
<svg width="28px" height="28px" viewBox="0 0 28 28" version="1.1" xmlns="http://www.w3.org/2000/svg" xmlns:xlink="http://www.w3.org/1999/xlink">
    <!-- Generator: Sketch 50.2 (55047) - http://www.bohemiancoding.com/sketch -->
    <title>pal</title>
    <desc>Created with Sketch.</desc>
    <defs>
        <linearGradient x1="5.586%" y1="42.916%" x2="89.693%" y2="76.712%" id="linearGradient-1">
            <stop stop-color="#00D7AF" offset="0%"></stop>
            <stop stop-color="#46737A" offset="100%"></stop>
        </linearGradient>
        <linearGradient x1="100%" y1="86.229%" x2="4.443%" y2="0%" id="linearGradient-2">
            <stop stop-color="#00D7AF" offset="0%"></stop>
            <stop stop-color="#46737A" offset="100%"></stop>
        </linearGradient>
        <linearGradient x1="8.054%" y1="21.454%" x2="84.433%" y2="63.075%" id="linearGradient-3">
            <stop stop-color="#00D7AF" offset="0%"></stop>
            <stop stop-color="#46737A" offset="100%"></stop>
        </linearGradient>
    </defs>
    <g id="IOS?-(for-Mike-Le)" stroke="none" stroke-width="1" fill="none" fill-rule="evenodd">
        <g id="Artboard-2-Copy" transform="translate(-347.000000, -127.000000)">
            <g id="pal" transform="translate(347.000000, 127.000000)">
                <circle id="bound" cx="14" cy="14" r="14"></circle>
                <g id="shape" transform="translate(0.777778, 0.777778)" fill-rule="nonzero">
                    <path d="M18.464414,19.1082602 C18.2155606,17.1674143 17.3897797,15.043693 16.0502954,12.990989 C15.2968794,11.8428177 14.3860184,10.7170298 13.3216381,9.6582747 C12.5420301,8.88282696 11.7251557,8.18554511 10.8892964,7.57797238 C9.57172665,6.61437574 8.20933166,5.86318639 6.86920282,5.33963905 C6.72933269,5.2861246 6.58868946,5.23465309 6.44731801,5.18524093 C6.26731382,5.0920747 6.10822809,4.9781658 5.96578337,4.83654141 C5.7814483,4.65358989 5.63662136,4.43475403 5.54026565,4.19357723 C5.44827132,3.97185332 5.40362185,3.73301963 5.39993035,3.49805323 C5.39805531,3.39551178 5.40561408,3.29443521 5.42272385,3.19581963 C5.48073302,2.79883774 5.66085439,2.41837967 5.96648651,2.11432963 C6.04342189,2.037863 6.12404877,1.96883796 6.21024218,1.90912954 C6.30610378,1.85112038 6.40155522,1.79346278 6.49712385,1.73937949 C11.5782577,-1.14877365 18.1354025,-0.438600872 22.454917,3.85794442 C23.1970242,4.59606706 23.8303787,5.39764821 24.3589067,6.2479219 C24.6697537,6.74363656 24.9413421,7.25634381 25.1774218,7.78205916 C26.4305955,10.5618113 26.6659135,13.6829973 25.8811491,16.5923032 C25.3012333,18.7573341 24.1570465,20.8050575 22.4486474,22.5043158 C19.8292114,25.1099233 16.3868071,26.3978439 12.9544811,26.3672572 C14.5178574,26.2772551 15.8866978,25.747028 16.8974635,24.741653 C18.2644875,23.3818948 18.7542255,21.369973 18.464414,19.1082602 Z" id="Shape" fill="url(#linearGradient-1)"></path>
                    <path d="M9.39500204,3.44845857 C10.6082139,3.2778296 11.9096113,3.18284692 13.2630413,3.18442899 C18.3534917,3.18091328 22.7041789,4.48957655 24.4708802,6.34001023 C24.7813171,6.8319748 25.0526125,7.34081477 25.2883406,7.86260425 C25.3051574,7.96807546 25.312599,8.07173021 25.312599,8.17901787 C25.3121302,9.47455582 24.1266339,10.6537239 22.1774088,11.5408539 C20.6007901,12.2635074 18.5243551,12.7912736 16.1729918,13.0323925 C15.4206305,11.8928348 14.5108828,10.7755431 13.4478502,9.72469836 C12.669297,8.95511014 11.8534772,8.26304326 11.018614,7.66004095 C9.70280217,6.7036515 8.34216504,5.95814588 7.00373546,5.43852441 C6.86310718,5.38508567 6.72089684,5.33334618 6.582378,5.28523959 C6.39723069,5.19018742 6.23958181,5.07539723 6.1015465,4.93917685 C5.91761251,4.75785781 5.77295014,4.54063488 5.67655614,4.30101747 C6.77193319,3.93239561 8.02657176,3.63936145 9.39500204,3.44845857 Z" id="Shape" fill="url(#linearGradient-2)" opacity="0.5"></path>
                    <path d="M3.85680859,22.5438954 C1.07617748,19.7456272 -0.199613928,16.0070245 0.0252741175,12.3447714 C0.0308992484,12.2415854 0.0367587597,12.1419737 0.0479504264,12.0406627 C0.105725208,11.6411612 0.284791875,11.258418 0.588783323,10.9524929 C1.24334934,10.2937666 2.25030636,10.2069286 2.9956948,10.6946744 C5.13541256,12.1573256 8.92153581,13.1185198 13.2355424,13.1169964 C14.2349993,13.1165276 15.2080297,13.0638506 16.1366451,12.965821 C17.4687464,15.0311229 18.2900155,17.1679695 18.5375213,19.1206517 C18.8258092,21.3963101 18.3387081,23.4205955 16.9791842,24.7887328 C15.9664849,25.807819 14.5958866,26.3393939 13.02794,26.4243568 C9.70389776,26.3897857 6.39145741,25.0945407 3.85680859,22.5438954 Z" id="Shape" fill="url(#linearGradient-3)"></path>
                </g>
            </g>
        </g>
    </g>
</svg>