<svg xmlns="http://www.w3.org/2000/svg" width="100" height="100" viewBox="0 0 100 100" version="1.1">
	<path d="M 40 11.366 C 28.200 14.819, 18.926 22.713, 13.693 33.759 C 10.799 39.868, 10.500 41.391, 10.500 50 C 10.500 58.571, 10.804 60.136, 13.610 66 C 18.167 75.523, 23.749 81.273, 32.763 85.728 C 39.981 89.295, 40.916 89.500, 49.948 89.500 C 58.598 89.500, 60.131 89.201, 66.180 86.335 C 75.477 81.931, 81.267 76.262, 85.765 67.160 C 89.294 60.020, 89.500 59.075, 89.500 50 C 89.500 40.908, 89.299 39.990, 85.728 32.763 C 81.295 23.794, 75.493 18.136, 66.249 13.766 C 58.835 10.261, 47.363 9.212, 40 11.366 M 36.211 46.500 C 30.515 51.622, 27 52.404, 27 48.550 C 27 47.202, 27.788 45.615, 28.750 45.023 C 30.267 44.090, 30.169 43.983, 28.020 44.223 C 23.094 44.773, 22.776 52.867, 27.495 57.586 C 31.317 61.408, 40.355 60.581, 47.250 55.779 C 49.959 53.892, 50.041 53.892, 52.750 55.779 C 59.645 60.581, 68.683 61.408, 72.505 57.586 C 77.224 52.867, 76.906 44.773, 71.980 44.223 C 69.831 43.983, 69.733 44.090, 71.250 45.023 C 72.213 45.615, 73 47.202, 73 48.550 C 73 52.326, 69.900 51.629, 63.891 46.500 C 58.315 41.740, 54.378 40.764, 51.671 43.472 C 50.375 44.768, 50.053 44.768, 48.977 43.472 C 46.522 40.515, 41.559 41.692, 36.211 46.500 " stroke="none" fill="black" fill-rule="evenodd"/>
</svg>