<svg xmlns="http://www.w3.org/2000/svg" width="100" height="100" viewBox="0 0 100 100" version="1.1">
	<path d="M 55.500 25.678 C 54.400 25.901, 49 29.886, 43.500 34.533 C 37.113 39.930, 31.826 43.543, 28.868 44.533 C 26.320 45.385, 23.438 46.964, 22.463 48.041 C 21.307 49.318, 19.394 50, 16.966 50 C 13.749 50, 13.069 50.420, 11.965 53.084 C 11.263 54.780, 9.520 56.651, 8.094 57.242 C 5.838 58.175, 5.747 58.373, 7.395 58.759 C 8.640 59.050, 10.080 58.194, 11.589 56.266 C 13.452 53.885, 14.465 53.415, 16.943 53.778 C 19.741 54.189, 20 54.551, 20 58.048 C 20 60.150, 19.504 63.137, 18.898 64.685 C 17.148 69.152, 14.099 80.433, 14.526 80.859 C 15.517 81.850, 18 79.849, 18 78.058 C 18 76.956, 18.965 74.067, 20.145 71.639 C 21.861 68.106, 23.091 66.960, 26.304 65.900 C 28.961 65.023, 30.958 63.491, 32.210 61.369 C 35.306 56.122, 38.177 54.808, 44.886 55.567 C 49.622 56.102, 51.596 55.830, 55.506 54.100 C 58.148 52.932, 60.450 52.116, 60.621 52.288 C 60.793 52.460, 60.581 53.928, 60.150 55.550 C 59.623 57.530, 58.630 58.607, 57.129 58.827 C 55.171 59.113, 53 62.342, 53 64.969 C 53 65.430, 55.478 64.466, 58.506 62.826 C 64.078 59.808, 70 52.898, 70 49.415 C 70 47.818, 70.150 47.826, 72.027 49.524 C 73.141 50.533, 75.703 52.353, 77.718 53.570 C 80.737 55.392, 81.812 55.587, 83.808 54.678 C 86.136 53.617, 86.214 53.262, 85.778 45.732 L 85.324 37.891 88.532 36.551 C 90.295 35.814, 92.472 34.164, 93.369 32.883 C 96.010 29.113, 95.245 28.669, 91.750 31.945 C 89.510 34.044, 87.490 34.992, 85.250 34.995 C 83.463 34.998, 82 34.716, 82 34.368 C 82 32.409, 86.469 26.998, 88.788 26.150 L 91.500 25.158 88.928 25.079 C 87.514 25.036, 84.589 26.337, 82.428 27.972 C 77.242 31.896, 72.733 31.903, 65 28 C 61.731 26.350, 58.707 25.061, 58.279 25.136 C 57.850 25.211, 56.600 25.455, 55.500 25.678 " stroke="none" fill="black" fill-rule="evenodd"/>
</svg>