<svg xmlns="http://www.w3.org/2000/svg" width="100" height="100" viewBox="0 0 100 100" version="1.1">
	<path d="M 44.819 9.655 L 40.164 14.310 34.266 12.655 C 31.023 11.745, 28.111 11, 27.795 11 C 27.480 11, 26.445 13.872, 25.494 17.383 L 23.766 23.766 17.383 25.494 C 13.872 26.445, 11 27.765, 11 28.430 C 11 29.094, 11.711 32.030, 12.579 34.954 L 14.158 40.271 9.367 45.135 L 4.575 50 9.338 54.835 L 14.100 59.670 12.365 65.912 C 10.366 73.102, 10.358 73.091, 18.443 74.900 L 23.725 76.082 25.474 82.541 C 26.435 86.093, 27.480 89, 27.795 89 C 28.111 89, 31.014 88.258, 34.248 87.350 L 40.127 85.701 45.064 90.563 L 50 95.425 54.936 90.563 L 59.873 85.701 65.752 87.350 C 68.986 88.258, 71.872 89, 72.167 89 C 72.462 89, 73.479 86.132, 74.428 82.628 L 76.153 76.255 82.576 74.517 C 86.109 73.560, 89 72.335, 89 71.793 C 89 71.251, 88.279 68.326, 87.397 65.293 L 85.794 59.778 90.609 54.889 L 95.425 50 90.609 45.111 L 85.794 40.222 87.397 34.707 C 88.279 31.674, 89 28.749, 89 28.207 C 89 27.665, 86.109 26.440, 82.576 25.483 L 76.153 23.745 74.428 17.372 C 73.479 13.868, 72.462 11, 72.167 11 C 71.872 11, 68.986 11.742, 65.752 12.650 L 59.873 14.299 55.152 9.650 C 52.556 7.092, 50.216 5, 49.952 5 C 49.689 5, 47.379 7.095, 44.819 9.655 M 45.152 11.331 L 41.804 14.798 44.973 15.494 C 48.922 16.361, 49.207 16.068, 48.816 11.533 L 48.500 7.865 45.152 11.331 M 51 11.804 C 51 16.190, 52.022 16.839, 56.281 15.156 C 57.842 14.539, 57.626 14.030, 54.531 11.030 L 51 7.608 51 11.804 M 65.175 14.416 L 60.850 15.510 63.421 17.926 C 64.835 19.254, 66.130 20.152, 66.299 19.921 C 67.877 17.755, 70.092 13.775, 69.830 13.574 C 69.648 13.436, 67.554 13.814, 65.175 14.416 M 34.441 15.418 C 36.664 17.230, 38 17.448, 38 16 C 38 15.450, 37.587 15, 37.082 15 C 36.577 15, 35.339 14.738, 34.332 14.418 C 32.656 13.886, 32.665 13.971, 34.441 15.418 M 27.677 15.750 C 27.434 16.163, 26.908 18.024, 26.508 19.886 C 25.793 23.217, 25.828 23.260, 28.639 22.555 C 32.413 21.607, 32.392 21.658, 30.548 18.093 C 28.884 14.874, 28.416 14.493, 27.677 15.750 M 31.032 15.727 C 31.049 16.152, 31.726 17.376, 32.536 18.446 C 33.561 19.803, 34.325 20.075, 35.055 19.345 C 35.785 18.615, 35.330 17.791, 33.551 16.626 C 32.148 15.706, 31.014 15.302, 31.032 15.727 M 39.698 16.636 C 37.485 18.848, 41.921 19.990, 45 18 C 46.297 17.162, 46.274 17.029, 44.832 17.015 C 43.914 17.007, 42.541 16.761, 41.780 16.469 C 41.018 16.177, 40.082 16.252, 39.698 16.636 M 55.500 16.938 C 53.795 17.618, 54.089 17.901, 57.500 18.862 C 63.027 20.419, 63.581 20.300, 61.500 18 C 59.559 15.855, 58.629 15.691, 55.500 16.938 M 69.123 18.629 C 67.815 21.499, 68.537 23.345, 70.039 20.971 C 70.927 19.566, 71.373 16, 70.661 16 C 70.474 16, 69.782 17.183, 69.123 18.629 M 72.070 19.750 C 72.032 21.538, 72.450 23, 73 23 C 74.187 23, 74.187 21.263, 73 18.500 C 72.280 16.824, 72.129 17.026, 72.070 19.750 M 44.043 19.885 C 41.774 20.518, 42.206 21.008, 49.695 26.285 C 54.155 29.428, 58.186 32, 58.652 31.999 C 59.119 31.998, 60.714 29.836, 62.198 27.194 L 64.896 22.390 58.534 20.695 C 51.912 18.931, 48.206 18.724, 44.043 19.885 M 37.267 21.908 L 35.033 22.500 38.043 27.762 L 41.054 33.023 44.120 31.438 C 47.981 29.441, 48.562 30.013, 46.574 33.857 C 45.708 35.531, 45 37.148, 45 37.450 C 45 37.753, 47.459 38, 50.465 38 C 54.856 38, 56.134 37.618, 56.971 36.054 C 57.890 34.337, 57.037 33.415, 49.756 28.254 C 39.457 20.952, 39.941 21.198, 37.267 21.908 M 25.571 25.571 C 24.707 26.436, 24 27.870, 24 28.759 C 24 29.966, 24.757 29.649, 27 27.500 C 28.650 25.919, 30 24.485, 30 24.313 C 30 23.353, 26.913 24.230, 25.571 25.571 M 27.266 29.313 C 22.949 33.877, 19.827 40.160, 21.195 41.529 C 21.589 41.923, 37.632 34.701, 38.671 33.662 C 39.381 32.953, 34.221 24, 33.103 24 C 32.656 24, 30.029 26.391, 27.266 29.313 M 64.523 26.500 C 59.574 34.623, 59.723 33.723, 63.010 35.665 C 67.056 38.055, 66.770 39, 62 39 L 58.001 39 60.750 43.986 C 62.777 47.660, 64.092 48.975, 65.750 48.986 C 67.225 48.995, 68.006 48.397, 68.017 47.250 C 68.027 46.288, 68.480 41.275, 69.024 36.110 C 69.741 29.298, 69.703 26.347, 68.884 25.360 C 67.260 23.403, 66.249 23.667, 64.523 26.500 M 72 25.345 C 72 26.085, 72.900 27.505, 74 28.500 C 75.729 30.065, 76 30.096, 76 28.726 C 76 27.303, 73.504 24, 72.429 24 C 72.193 24, 72 24.605, 72 25.345 M 17.097 27.158 L 13.695 28.136 16.872 30.068 C 20.650 32.366, 22 32.501, 22 30.582 C 22 29.802, 22.273 28.452, 22.607 27.582 C 23.296 25.785, 22.175 25.699, 17.097 27.158 M 77.445 28.639 C 78.425 32.541, 78.519 32.574, 82.478 30.442 C 86.246 28.413, 85.835 27.729, 80.114 26.505 C 76.784 25.793, 76.740 25.828, 77.445 28.639 M 70.938 31.750 C 70.904 33.263, 70.549 37.763, 70.149 41.750 L 69.423 49 75.211 49 C 78.395 49, 81 48.661, 81 48.247 C 81 47.833, 80.111 44.386, 79.025 40.588 C 76.365 31.285, 71.079 25.508, 70.938 31.750 M 13.379 31.731 C 13.668 32.704, 14.207 34.764, 14.576 36.309 L 15.246 39.117 17.623 36.884 C 18.930 35.656, 20 34.363, 20 34.011 C 20 33.659, 18.392 32.604, 16.427 31.666 C 13.029 30.046, 12.879 30.049, 13.379 31.731 M 83.608 31.496 C 82.568 32.283, 81.218 33.107, 80.608 33.327 C 79.959 33.560, 80.521 34.836, 81.963 36.404 C 84.652 39.328, 84.803 39.203, 86.370 32.750 C 87.114 29.687, 86.416 29.370, 83.608 31.496 M 43 34 C 42.207 34.490, 41.890 35.223, 42.296 35.629 C 42.701 36.035, 43.558 35.842, 44.200 35.200 C 44.842 34.558, 45.159 33.825, 44.904 33.571 C 44.650 33.317, 43.793 33.510, 43 34 M 30.014 39.655 C 24.797 42.124, 20.192 44.674, 19.780 45.322 C 17.932 48.227, 19.029 49, 25 49 L 31 49 31 45.500 C 31 41.207, 32.433 41.002, 34.500 45 C 35.353 46.650, 36.226 48, 36.440 48 C 36.654 48, 38 45.904, 39.432 43.343 C 41.755 39.186, 42.150 34.845, 40.183 35.082 C 39.807 35.128, 35.231 37.185, 30.014 39.655 M 59 36.500 C 59 37.325, 59.730 38, 60.622 38 C 61.951 38, 62.020 37.729, 61 36.500 C 60.315 35.675, 59.585 35, 59.378 35 C 59.170 35, 59 35.675, 59 36.500 M 17.534 38.963 C 16.481 40.126, 16.024 41.620, 16.412 42.630 C 17.217 44.728, 18.512 43.476, 19.390 39.750 C 20.161 36.480, 19.886 36.364, 17.534 38.963 M 80.517 40 C 81.643 45.530, 82.611 46.685, 83.420 43.463 C 83.958 41.320, 83.620 40.192, 81.962 38.588 L 79.805 36.500 80.517 40 M 40.535 44.503 L 37.570 50 40.535 55.497 L 43.500 60.993 49.748 60.997 L 55.996 61 58.979 56.250 C 60.620 53.638, 61.962 50.825, 61.962 50 C 61.962 49.175, 60.620 46.362, 58.979 43.750 L 55.996 39 49.748 39.003 L 43.500 39.007 40.535 44.503 M 11.466 45.038 C 9.652 47.042, 9.661 47.061, 12.009 46.192 C 13.323 45.706, 14.570 44.789, 14.782 44.154 C 15.398 42.307, 13.473 42.820, 11.466 45.038 M 84.607 44.582 C 83.236 48.155, 83.921 49, 88.187 49 L 92.374 49 89.500 46 C 86.224 42.581, 85.460 42.359, 84.607 44.582 M 12 48 C 10.831 48.755, 11.107 48.973, 13.250 48.985 C 14.762 48.993, 16 48.550, 16 48 C 16 46.736, 13.957 46.736, 12 48 M 32 48 C 32 48.550, 32.702 49, 33.559 49 C 34.416 49, 34.840 48.550, 34.500 48 C 34.160 47.450, 33.459 47, 32.941 47 C 32.423 47, 32 47.450, 32 48 M 10.737 54.199 C 14.273 57.734, 14.533 57.710, 15.527 53.748 C 16.200 51.067, 16.111 51, 11.878 51 L 7.538 51 10.737 54.199 M 19.434 53.750 C 21.520 62.569, 23.220 66.858, 25.465 68.967 C 26.855 70.273, 28.184 71.150, 28.418 70.916 C 28.652 70.682, 29.165 66.105, 29.559 60.745 L 30.274 51 24.529 51 L 18.783 51 19.434 53.750 M 32 51.824 C 32 52.354, 31.529 57.377, 30.954 62.986 C 29.928 72.979, 30.422 76, 33.080 76 C 34.021 76, 39 67.867, 39 66.331 C 39 65.785, 37.875 64.736, 36.500 64 C 32.894 62.070, 33.419 61, 37.971 61 L 41.942 61 39.157 56.250 C 37.407 53.266, 35.559 51.381, 34.186 51.180 C 32.984 51.005, 32 51.295, 32 51.824 M 65.638 52.500 C 65.955 53.325, 66.343 54, 66.500 54 C 66.657 54, 67.045 53.325, 67.362 52.500 C 67.709 51.595, 67.367 51, 66.500 51 C 65.633 51, 65.291 51.595, 65.638 52.500 M 69 54.500 C 69 58.793, 67.567 58.998, 65.500 55 C 64.647 53.350, 63.778 52, 63.569 52 C 63.004 52, 57.998 60.724, 58.015 61.678 C 58.079 65.111, 59.939 64.912, 69.563 60.445 C 75.017 57.914, 79.814 55.316, 80.224 54.672 C 82.068 51.773, 80.968 51, 75 51 L 69 51 69 54.500 M 84 52 C 84 53.264, 86.043 53.264, 88 52 C 89.169 51.245, 88.893 51.027, 86.750 51.015 C 85.237 51.007, 84 51.450, 84 52 M 86.443 54.418 C 85.376 55.198, 84.852 56.186, 85.279 56.613 C 85.706 57.040, 87.043 56.401, 88.250 55.194 C 90.696 52.748, 89.455 52.215, 86.443 54.418 M 16.607 56.430 C 16.046 58.663, 16.351 59.796, 17.940 61.385 C 20.356 63.800, 20.555 62.459, 18.591 57.018 L 17.333 53.535 16.607 56.430 M 80.998 58.505 C 79.472 62.519, 79.798 63.493, 82 61.500 C 84.172 59.534, 84.583 57.478, 82.998 56.499 C 82.447 56.158, 81.547 57.061, 80.998 58.505 M 70.475 61.686 C 66.089 63.649, 62.126 65.594, 61.669 66.009 C 60.764 66.829, 64.283 74.439, 66.081 75.550 C 67.909 76.680, 76.920 67.010, 78.091 62.662 C 78.663 60.537, 78.978 58.645, 78.791 58.457 C 78.603 58.270, 74.861 59.723, 70.475 61.686 M 14.576 63.691 C 14.207 65.236, 13.668 67.296, 13.379 68.269 C 12.879 69.951, 13.029 69.954, 16.427 68.334 C 18.392 67.396, 20 66.341, 20 65.989 C 20 65.637, 18.930 64.344, 17.623 63.116 L 15.246 60.883 14.576 63.691 M 82.079 63.413 C 80.748 64.832, 79.848 66.130, 80.079 66.299 C 82.562 68.109, 86.257 70.076, 86.575 69.758 C 86.796 69.538, 86.419 67.439, 85.738 65.095 L 84.500 60.834 82.079 63.413 M 38 62.893 C 38 63.384, 38.675 64.045, 39.500 64.362 C 40.414 64.712, 41 64.363, 41 63.469 C 41 62.661, 40.325 62, 39.500 62 C 38.675 62, 38 62.402, 38 62.893 M 43.200 63.200 C 42.540 63.860, 42 64.738, 42 65.150 C 42 65.563, 46.036 68.788, 50.970 72.318 C 57.905 77.279, 60.519 78.623, 62.494 78.246 L 65.048 77.758 62.381 73.129 C 60.915 70.583, 59.528 68.164, 59.301 67.754 C 59.073 67.343, 57.520 67.714, 55.850 68.577 C 51.999 70.569, 51.141 69.723, 53.303 66.065 C 54.236 64.485, 55 62.923, 55 62.596 C 55 61.462, 44.395 62.005, 43.200 63.200 M 55.469 65.050 C 54.551 66.536, 55.281 67.062, 56.886 66.071 C 57.745 65.539, 57.848 65.024, 57.176 64.609 C 56.605 64.256, 55.837 64.455, 55.469 65.050 M 16.607 69.996 L 13.714 71.846 17.958 72.989 C 20.292 73.617, 22.342 73.989, 22.513 73.816 C 22.684 73.642, 22.586 72.263, 22.295 70.750 C 21.685 67.573, 20.618 67.431, 16.607 69.996 M 37.684 72.839 L 35.051 77.678 42.322 79.488 C 49.254 81.215, 57 81.041, 57 79.160 C 57 78.277, 42.424 68, 41.172 68 C 40.702 68, 39.133 70.178, 37.684 72.839 M 77.560 70.618 C 77.198 72.058, 77.104 73.437, 77.350 73.684 C 77.597 73.930, 79.750 73.606, 82.135 72.964 L 86.472 71.796 82.986 69.940 C 78.452 67.526, 78.332 67.541, 77.560 70.618 M 24 71.206 C 24 73.449, 27.263 76.712, 27.823 75.030 C 28.050 74.349, 27.283 72.839, 26.118 71.674 C 24.338 69.894, 24 69.819, 24 71.206 M 72.500 73 C 70.653 74.928, 70.140 75.995, 71.063 75.985 C 73.232 75.962, 74.653 74.747, 75.433 72.250 C 76.353 69.302, 75.942 69.407, 72.500 73 M 26.015 78.250 C 26.024 78.938, 26.467 80.175, 27 81 C 27.755 82.169, 27.973 81.893, 27.985 79.750 C 27.993 78.237, 27.550 77, 27 77 C 26.450 77, 26.007 77.563, 26.015 78.250 M 69.750 77.689 C 67.602 78.251, 67.615 78.619, 69.933 82.974 L 71.783 86.447 72.886 82.474 C 74.528 76.558, 74.463 76.458, 69.750 77.689 M 29.667 78.667 C 29.300 79.033, 29.016 80.496, 29.035 81.917 L 29.071 84.500 30.500 82 C 31.286 80.625, 31.945 79.162, 31.965 78.750 C 32.008 77.820, 30.565 77.768, 29.667 78.667 M 31.716 82.904 C 29.379 86.859, 29.467 86.984, 33.750 85.815 C 38.581 84.496, 38.660 84.387, 36.506 82.006 C 34.134 79.386, 33.752 79.458, 31.716 82.904 M 38.534 81.979 C 40.106 83.550, 41.129 83.786, 43.506 83.126 L 46.500 82.294 42.500 81.153 C 36.933 79.564, 36.260 79.704, 38.534 81.979 M 64.568 80.891 C 64.265 81.380, 65.131 82.511, 66.493 83.403 C 68.954 85.016, 68.962 85.011, 67.824 82.513 C 66.638 79.911, 65.518 79.353, 64.568 80.891 M 55.155 81.883 C 54.164 82.511, 54.505 82.910, 56.451 83.398 C 59.224 84.094, 61 83.525, 61 81.941 C 61 80.771, 56.972 80.732, 55.155 81.883 M 61.500 84 C 61.160 84.550, 61.547 85, 62.359 85 C 63.172 85, 64.661 85.286, 65.668 85.635 C 67.278 86.192, 67.258 86.075, 65.500 84.666 C 63.145 82.779, 62.338 82.645, 61.500 84 M 43.719 84.844 C 42.158 85.461, 42.374 85.970, 45.469 88.970 L 49 92.392 49 88.196 C 49 83.810, 47.978 83.161, 43.719 84.844 M 51 88.196 L 51 92.392 54.531 88.970 C 57.626 85.970, 57.842 85.461, 56.281 84.844 C 52.022 83.161, 51 83.810, 51 88.196 " stroke="none" fill="black" fill-rule="evenodd"/>
</svg>