<svg xmlns="http://www.w3.org/2000/svg" width="226.8" height="226.8" viewBox="0 0 226.8 226.8"><path d="M113.4 0C50.8 0 0 50.8 0 113.4 0 176 50.8 226.8 113.4 226.8c62.6 0 113.4-50.8 113.4-113.4C226.8 50.8 176 0 113.4 0zm30.1 174.6s5.3-17.8 3-33.8c-2.4-16-16.7-35.4-27.5-44.1C108.3 87.9 87.5 78 87.5 78s18 13.8 24.3 20.4c6.2 6.6 14.8 17.5 18.9 31.8 4 14.3 3.4 39.2-4.9 44.4-8.3 5.2-30-3.8-37.2-9.9s-16.5-16-19.2-36.6c-2.7-20.6-2-68.7-2-68.7s38.6.2 67.8 18.6c29.2 18.4 31.9 33 31.9 56.6 0 23.7-23.6 40-23.6 40z"/></svg>