<?xml version="1.0" encoding="utf-8"?>
<!-- Generator: Adobe Illustrator 23.0.1, SVG Export Plug-In . SVG Version: 6.00 Build 0)  -->
<svg version="1.1" xmlns="http://www.w3.org/2000/svg" xmlns:xlink="http://www.w3.org/1999/xlink" x="0px" y="0px"
	 viewBox="0 0 137.56 137.56" style="enable-background:new 0 0 137.56 137.56;" xml:space="preserve">
<style type="text/css">
	.st0{fill:#EAECED;}
	.st1{fill:none;}
	.st2{fill:url(#SVGID_3_);}
	.st3{fill:url(#SVGID_4_);}
	.st4{fill:url(#SVGID_5_);}
	.st5{fill:url(#SVGID_6_);}
	.st6{fill:url(#SVGID_7_);}
	.st7{fill:url(#SVGID_8_);}
	.st8{fill:url(#SVGID_9_);}
	.st9{fill:url(#SVGID_10_);}
	.st10{fill:#49B08C;}
	.st11{fill:#111727;}
	.st12{fill:#217AB2;}
	.st13{fill:#92949E;}
	.st14{clip-path:url(#SVGID_12_);fill:url(#SVGID_13_);}
	.st15{clip-path:url(#SVGID_15_);fill:url(#SVGID_16_);}
	.st16{clip-path:url(#SVGID_20_);fill:url(#SVGID_21_);}
	.st17{clip-path:url(#SVGID_23_);fill:url(#SVGID_24_);}
	.st18{clip-path:url(#SVGID_23_);fill:url(#SVGID_25_);}
	.st19{clip-path:url(#SVGID_27_);fill:url(#SVGID_28_);}
	.st20{clip-path:url(#SVGID_30_);fill:url(#SVGID_31_);}
	.st21{clip-path:url(#SVGID_33_);}
	.st22{clip-path:url(#SVGID_35_);fill:url(#SVGID_36_);}
	.st23{clip-path:url(#SVGID_35_);fill:url(#SVGID_37_);}
	.st24{clip-path:url(#SVGID_39_);fill:url(#SVGID_40_);}
	.st25{clip-path:url(#SVGID_39_);fill:url(#SVGID_41_);}
	.st26{clip-path:url(#SVGID_43_);fill:url(#SVGID_44_);}
	.st27{clip-path:url(#SVGID_43_);fill:url(#SVGID_45_);}
	.st28{clip-path:url(#SVGID_47_);fill:url(#SVGID_48_);}
	.st29{display:none;}
	.st30{display:inline;fill:none;stroke:#000000;stroke-width:0.0849;stroke-miterlimit:10;}
	.st31{display:inline;}
	.st32{fill:none;stroke:#000000;stroke-width:0.0849;stroke-miterlimit:10;}
	.st33{display:inline;opacity:0.2;fill:url(#SVGID_49_);}
	.st34{display:inline;opacity:0.2;fill:url(#SVGID_50_);}
	.st35{display:inline;opacity:0.2;fill:url(#SVGID_51_);}
	.st36{display:inline;opacity:0.2;fill:url(#SVGID_52_);}
	.st37{display:inline;opacity:0.2;fill:url(#SVGID_53_);}
	.st38{display:inline;opacity:0.2;fill:url(#SVGID_54_);}
	.st39{display:inline;opacity:0.2;fill:url(#SVGID_55_);}
	.st40{display:inline;opacity:0.2;fill:url(#SVGID_56_);}
	.st41{display:inline;opacity:0.2;fill:url(#SVGID_57_);}
	.st42{display:inline;opacity:0.2;fill:url(#SVGID_58_);}
	.st43{display:inline;opacity:0.2;fill:url(#SVGID_59_);}
	.st44{display:inline;opacity:0.2;fill:url(#SVGID_60_);}
	.st45{display:inline;opacity:0.2;fill:url(#SVGID_61_);}
	.st46{display:inline;opacity:0.2;fill:url(#SVGID_62_);}
	.st47{display:inline;opacity:0.2;fill:url(#SVGID_63_);}
	.st48{display:inline;opacity:0.2;fill:url(#SVGID_64_);}
	.st49{display:inline;opacity:0.2;fill:url(#SVGID_65_);}
	.st50{display:inline;opacity:0.2;fill:url(#SVGID_66_);}
	.st51{display:inline;opacity:0.2;fill:url(#SVGID_67_);}
	.st52{display:inline;opacity:0.2;fill:url(#SVGID_68_);}
	.st53{display:inline;opacity:0.2;fill:url(#SVGID_69_);}
	.st54{display:inline;opacity:0.2;fill:url(#SVGID_70_);}
	.st55{display:inline;opacity:0.2;fill:url(#SVGID_71_);}
	.st56{display:inline;opacity:0.2;fill:url(#SVGID_72_);}
	.st57{display:inline;opacity:0.2;fill:url(#SVGID_73_);}
	.st58{display:inline;opacity:0.2;fill:url(#SVGID_74_);}
	.st59{display:inline;opacity:0.2;fill:url(#SVGID_75_);}
	.st60{display:inline;opacity:0.2;fill:url(#SVGID_76_);}
	.st61{display:inline;opacity:0.2;fill:url(#SVGID_77_);}
	.st62{display:inline;opacity:0.2;fill:url(#SVGID_78_);}
	.st63{display:inline;opacity:0.2;fill:url(#SVGID_79_);}
	.st64{display:inline;opacity:0.2;fill:url(#SVGID_80_);}
	.st65{display:inline;opacity:0.2;fill:url(#SVGID_81_);}
	.st66{display:inline;opacity:0.2;fill:url(#SVGID_82_);}
	.st67{display:inline;opacity:0.2;fill:url(#SVGID_83_);}
	.st68{display:inline;opacity:0.2;fill:url(#SVGID_84_);}
	.st69{fill:url(#SVGID_85_);}
	.st70{fill:#FF0000;}
	.st71{fill:#FFFFFF;}
	.st72{fill:url(#SVGID_86_);}
	.st73{fill:#FFFFFF;stroke:#000000;stroke-width:1.5013;stroke-linecap:round;stroke-linejoin:round;stroke-miterlimit:10;}
	.st74{fill:#F7DDC5;}
	.st75{fill:#9C9EA8;}
	.st76{fill:url(#SVGID_87_);}
	.st77{fill:url(#SVGID_88_);}
	.st78{fill:url(#SVGID_89_);}
	.st79{fill:url(#SVGID_90_);}
	.st80{fill:url(#SVGID_91_);}
	.st81{fill:url(#SVGID_92_);}
	.st82{fill:url(#SVGID_93_);}
	.st83{fill:#44BB93;}
	.st84{fill:#131927;}
	.st85{fill:#49BC98;}
	.st86{fill:#EB8023;}
	.st87{fill:#E08732;}
	.st88{fill:none;stroke:#EAECED;stroke-miterlimit:10;}
	.st89{fill:url(#SVGID_94_);}
	.st90{fill:url(#SVGID_95_);}
	.st91{fill:url(#SVGID_96_);}
	.st92{fill:none;stroke:#000000;stroke-miterlimit:10;}
	.st93{fill:none;stroke:#000000;stroke-miterlimit:10;stroke-dasharray:2.0489,2.0489;}
	.st94{fill:#1D2942;}
	.st95{clip-path:url(#SVGID_98_);}
	.st96{fill:url(#SVGID_99_);}
	.st97{fill:none;stroke:#000000;stroke-width:0.2;stroke-miterlimit:10;}
	.st98{fill:none;stroke:#231F20;stroke-width:0.8872;stroke-miterlimit:10;}
	.st99{fill:#74A091;}
	.st100{fill:#628E7E;}
	.st101{fill:#D3D3D3;}
	.st102{fill:#A1CEBE;}
	.st103{fill:#91BCAC;}
	.st104{fill:#B8DDCE;}
	.st105{fill:#EA412A;}
	.st106{fill:#F74A37;}
	.st107{fill:#E5302C;}
	.st108{fill:#FF5C50;}
	.st109{fill:#FF7976;}
	.st110{fill:#FFFFFF;stroke:#000000;stroke-width:1.1763;stroke-linecap:round;stroke-linejoin:round;stroke-miterlimit:10;}
	.st111{fill:#FFFFFF;stroke:#000000;stroke-width:0.8297;stroke-linecap:round;stroke-linejoin:round;stroke-miterlimit:10;}
	.st112{fill:#D1D2D3;stroke:#000000;stroke-linecap:round;stroke-linejoin:round;stroke-miterlimit:10;}
	.st113{fill:#FFFFFF;stroke:#000000;stroke-width:1.1596;stroke-linecap:round;stroke-linejoin:round;stroke-miterlimit:10;}
	.st114{fill:#FFFFFF;stroke:#000000;stroke-linecap:round;stroke-linejoin:round;stroke-miterlimit:10;}
	.st115{fill:#241F1F;}
	.st116{fill:#FFFFFF;stroke:#231F20;stroke-miterlimit:10;}
	.st117{fill:none;stroke:#231F20;stroke-width:0.6347;stroke-miterlimit:10;}
	.st118{opacity:0.2;}
	.st119{fill:none;stroke:#FF0000;stroke-width:2;stroke-miterlimit:10;}
	.st120{fill:url(#SVGID_100_);}
	.st121{fill:url(#SVGID_101_);}
	.st122{fill:url(#SVGID_102_);}
	.st123{fill:url(#SVGID_103_);}
	.st124{fill:url(#SVGID_104_);}
	.st125{fill:url(#SVGID_105_);}
	.st126{fill:#EB4E00;}
	.st127{stroke:#FFFFFF;stroke-width:2;stroke-linecap:round;stroke-linejoin:round;stroke-miterlimit:10;}
	.st128{fill:#FFFFFF;stroke:#FF0000;stroke-width:2;stroke-linecap:round;stroke-linejoin:round;stroke-miterlimit:10;}
	.st129{fill:none;stroke:#FF0000;stroke-width:2;stroke-linecap:round;stroke-linejoin:round;stroke-miterlimit:10;}
	.st130{opacity:0.2;fill:none;stroke:#FFFFFF;stroke-width:6;stroke-linecap:round;stroke-linejoin:round;stroke-miterlimit:10;}
	.st131{fill:#010204;}
</style>
<g id="BG">
</g>
<g id="Rulers" class="st29">
</g>
<g id="paddinh" class="st29">
</g>
<g id="boxes">
</g>
<g id="Layer_1">
	<g>
		<path d="M70.37,135.95c-35.19,0-63.82-28.63-63.82-63.82c0-35.19,28.63-63.82,63.82-63.82s63.82,28.63,63.82,63.82
			C134.19,107.32,105.56,135.95,70.37,135.95z"/>
		<g>
			<path d="M70.37,9.36c34.67,0,62.78,28.11,62.78,62.78c0,34.67-28.11,62.78-62.78,62.78c-34.67,0-62.78-28.11-62.78-62.78
				C7.59,37.46,35.7,9.36,70.37,9.36 M70.37,7.27c-35.76,0-64.86,29.1-64.86,64.86s29.1,64.86,64.86,64.86
				c35.76,0,64.86-29.1,64.86-64.86S106.13,7.27,70.37,7.27L70.37,7.27z"/>
		</g>
	</g>
	<g>
		<path class="st71" d="M66.46,129.55c-35.19,0-63.82-28.63-63.82-63.82c0-35.19,28.63-63.82,63.82-63.82s63.82,28.63,63.82,63.82
			C130.28,100.92,101.65,129.55,66.46,129.55z"/>
		<g>
			<path d="M66.46,2.96c34.67,0,62.78,28.11,62.78,62.78c0,34.67-28.11,62.78-62.78,62.78S3.68,100.4,3.68,65.73
				C3.68,31.06,31.79,2.96,66.46,2.96 M66.46,0.87C30.69,0.87,1.6,29.97,1.6,65.73s29.1,64.86,64.86,64.86s64.86-29.1,64.86-64.86
				S102.22,0.87,66.46,0.87L66.46,0.87z"/>
		</g>
	</g>
	<g>
		<path d="M92.2,64.09v27.64h-51.5V64.09H92.2 M92.2,62.09h-51.5c-1.1,0-2,0.9-2,2v27.64c0,1.1,0.9,2,2,2h51.5c1.1,0,2-0.9,2-2
			V64.09C94.2,62.99,93.31,62.09,92.2,62.09L92.2,62.09z"/>
	</g>
	<g>
		<path d="M95.33,46.01v15.72H37.58V46.01H95.33 M95.33,43.93H37.58c-1.15,0-2.08,0.93-2.08,2.08v15.72c0,1.15,0.93,2.08,2.08,2.08
			h57.75c1.15,0,2.08-0.93,2.08-2.08V46.01C97.42,44.86,96.48,43.93,95.33,43.93L95.33,43.93z"/>
	</g>
	<g>
		<path d="M73.03,46.01v45.73H61.2V46.01H73.03 M73.03,43.93H61.2c-1.15,0-2.08,0.93-2.08,2.08v45.73c0,1.15,0.93,2.08,2.08,2.08
			h11.84c1.15,0,2.08-0.93,2.08-2.08V46.01C75.12,44.86,74.19,43.93,73.03,43.93L73.03,43.93z"/>
	</g>
	<g>
		<path d="M79.83,34.14c0.2,0,0.41,0.01,0.62,0.02c7.86,0.48,8.36,9.48-8.76,9.48c-1.05,0-2.17-0.03-3.35-0.11
			C68.34,43.54,71.92,34.15,79.83,34.14 M79.83,32.06C79.83,32.06,79.83,32.06,79.83,32.06c-9.24,0-13.27,10.3-13.44,10.74
			c-0.24,0.62-0.16,1.31,0.2,1.87c0.36,0.56,0.96,0.91,1.62,0.95c1.2,0.07,2.37,0.11,3.48,0.11c11.69,0,15.97-3.97,16.09-7.69
			c0.1-3.2-2.93-5.7-7.21-5.96C80.32,32.07,80.07,32.06,79.83,32.06L79.83,32.06z"/>
	</g>
	<g>
		<path d="M54.74,34.14c7.91,0,11.49,9.4,11.49,9.4c-1.19,0.07-2.3,0.11-3.35,0.11c-17.11,0-16.62-9.01-8.76-9.48
			C54.33,34.15,54.54,34.14,54.74,34.14 M54.74,32.06c-0.24,0-0.49,0.01-0.74,0.02c-4.27,0.26-7.3,2.77-7.21,5.96
			c0.11,3.72,4.4,7.69,16.09,7.69c1.11,0,2.28-0.04,3.48-0.11c0.66-0.04,1.27-0.39,1.62-0.95c0.36-0.56,0.43-1.25,0.2-1.87
			C68.01,42.36,63.98,32.06,54.74,32.06L54.74,32.06z"/>
	</g>
	<g class="st118">
		<path class="st131" d="M116.06,53.71c-2.84,32.4-28.77,58.16-61.24,60.75c4.57,1.41,9.42,2.17,14.45,2.17
			c26.98,0,48.86-21.87,48.86-48.86C118.13,62.89,117.4,58.17,116.06,53.71z"/>
	</g>
	<g>
		<path d="M67.28,15.88c27.62,0,50.01,22.39,50.01,50.01c0,27.62-22.39,50.01-50.01,50.01c-27.62,0-50.01-22.39-50.01-50.01
			C17.28,38.27,39.66,15.88,67.28,15.88 M67.28,13.8c-28.72,0-52.09,23.37-52.09,52.09c0,28.72,23.37,52.09,52.09,52.09
			s52.09-23.37,52.09-52.09C119.38,37.16,96.01,13.8,67.28,13.8L67.28,13.8z"/>
	</g>
</g>
</svg>
