<svg xmlns="http://www.w3.org/2000/svg" width="100" height="100" viewBox="0 0 100 100" version="1.1">
	<path d="M 76.001 8.123 C 70.503 10.316, 66 16.553, 66 21.975 C 66 25.741, 69.386 27.405, 75.659 26.720 C 83.458 25.869, 89.923 18.433, 89.978 10.250 L 90 7 84.250 7.063 C 81.088 7.098, 77.375 7.575, 76.001 8.123 M 38.043 10.219 C 35.008 11.822, 34.227 14.488, 34.100 23.693 C 33.972 32.939, 32.726 34, 22 34 C 10.845 34, 10 34.844, 10 45.985 C 10 57.511, 10.462 58, 21.349 58 C 32.695 58, 33.998 59.010, 34.006 67.807 C 34.009 71.488, 34.480 76.188, 35.053 78.250 L 36.094 82 45.925 82 C 52.578 82, 56.085 81.596, 56.775 80.750 C 57.336 80.063, 57.954 75.523, 58.148 70.662 C 58.608 59.112, 59.747 58, 71.111 58 C 81.888 58, 83 56.878, 83 46 C 83 35.122, 81.888 34, 71.111 34 C 59.816 34, 58.775 32.978, 58.055 21.182 C 57.728 15.827, 56.974 11.572, 56.218 10.817 C 54.414 9.015, 41.152 8.578, 38.043 10.219 " stroke="none" fill="black" fill-rule="evenodd"/>
</svg>