<?xml version="1.0" encoding="UTF-8"?>
<svg width="22px" height="22px" viewBox="0 0 22 22" version="1.1" xmlns="http://www.w3.org/2000/svg" xmlns:xlink="http://www.w3.org/1999/xlink">
    <!-- Generator: Sketch 48.2 (47327) - http://www.bohemiancoding.com/sketch -->
    <title>PWR</title>
    <desc>Created with Sketch.</desc>
    <defs></defs>
    <g id="Symbols" stroke="none" stroke-width="1" fill="none" fill-rule="evenodd">
        <g id="PWR" fill="#00C0AC">
            <g id="power-ledger">
                <path d="M0.520746911,10.9999865 L10.9999596,21.4792249 L21.47928,10.9999865 L10.9999596,0.520640344 L0.520746911,10.9999865 Z M10.9999596,22 C10.9448518,22 10.8895283,21.9789706 10.8474695,21.9368038 L0.0631690402,11.1524769 C-0.0210563467,11.0682513 -0.0210563467,10.9316139 0.0631690402,10.8474961 L10.8474695,0.0631691951 C10.9316949,-0.0210563984 11.068332,-0.0210563984 11.1524496,0.0631691951 L21.9367501,10.8474961 C22.0210833,10.9316139 22.0210833,11.0682513 21.9367501,11.1524769 L11.1524496,21.9368038 C11.1103908,21.9789706 11.0551752,22 10.9999596,22 Z" id="Fill-176"></path>
                <path d="M1.24099354,10.5791177 L7.86394139,10.5791177 L10.2380275,6.67596015 L1.24099354,10.5791177 Z M7.99240853,11 L0.222258006,11 C0.117795107,11 0.0274458113,10.9310805 0.00510853166,10.8343828 C-0.0171176172,10.7377903 0.0347804404,10.6394091 0.129686096,10.5982678 L10.6851065,6.01906805 C10.7728998,5.98108342 10.8769181,6.00097011 10.9420407,6.06873217 C11.0071634,6.13628378 11.0186098,6.23613811 10.970268,6.31547443 L8.18499811,10.894569 C8.14532443,10.9598057 8.07197814,11 7.99240853,11 Z" id="Fill-178"></path>
                <path d="M14.1360778,11.4208843 L11.7619772,15.3239546 L20.7590663,11.4208843 L14.1360778,11.4208843 Z M11.222323,16 C11.1612007,16 11.1010786,15.9761148 11.0579596,15.9312906 C10.9928366,15.8636335 10.9813901,15.7637787 11.0297322,15.6845472 L13.8150191,11.1054315 C13.8546931,11.0401944 13.9280398,11 14.0076099,11 L21.7776969,11 C21.8822716,11 21.9726214,11.0688146 21.9948477,11.1655127 C22.0171851,11.2622109 21.9652868,11.3605926 21.8702694,11.401734 L11.3148955,15.9808498 C11.2852234,15.993792 11.253662,16 11.222323,16 Z" id="Fill-180"></path>
                <path d="M2.4768451,6.31644284 L6.31634321,20.5231276 L20.5231181,16.683732 L16.68362,2.47683303 L2.4768451,6.31644284 Z M6.1653463,21 C6.071,21 5.98447127,20.9371381 5.95876967,20.8417208 L2.00746958,6.22145388 C1.97662766,6.1072958 2.04409437,5.98960373 2.15825232,5.95876177 L16.7786088,2.00745696 C16.8334389,1.99257143 16.8918029,2.00017483 16.9411714,2.02844662 C16.9904328,2.05682551 17.0264151,2.10351681 17.0411935,2.15834696 L20.9924936,16.7786139 C21.0234426,16.892879 20.9558688,17.0103569 20.8417109,17.0411989 L6.22135437,20.9926108 C6.20272071,20.997644 6.18387287,21 6.1653463,21 Z" id="Fill-182"></path>
                <path d="M4.77912084,8 C4.74183914,8 4.70411624,7.99007326 4.66948177,7.96918092 L2.1108324,6.43099731 C2.00516416,6.36751232 1.96865457,6.22646022 2.02932005,6.11588091 C2.09009584,6.0053016 2.2248835,5.96732603 2.33055174,6.03058016 L4.88920111,7.5688792 C4.99486935,7.63236419 5.03137893,7.77353172 4.97060315,7.88399561 C4.92979183,7.95844619 4.85555934,8 4.77912084,8" id="Fill-184"></path>
                <path d="M19.7776044,17 C19.7400585,17 19.7020682,16.9900099 19.6671882,16.9691004 L17.1116181,15.4338799 C17.0052008,15.3698737 16.9684324,15.2278054 17.0295279,15.1166367 C17.0907345,15.0053518 17.2263666,14.9670177 17.3328949,15.0309078 L19.888465,16.5662444 C19.9948823,16.6300184 20.0315396,16.7720867 19.9704441,16.8833716 C19.9293435,16.958181 19.8545848,17 19.7776044,17" id="Fill-186"></path>
                <path d="M17.2210306,8 C17.144741,8 17.0704388,7.95866676 17.0295891,7.88475049 C16.9686458,7.77456689 17.0048585,7.63375754 17.1105156,7.57020337 L19.6688097,6.03085673 C19.7743565,5.96730255 19.9094916,6.00506663 19.9704349,6.11525023 C20.0313783,6.22543383 19.9950552,6.36624317 19.8895084,6.42979735 L17.3312143,7.96902885 C17.2964369,7.98998331 17.2584577,8 17.2210306,8" id="Fill-188"></path>
                <path d="M2.22259343,17 C2.14576447,17 2.07093684,16.958405 2.02979832,16.8840207 C1.9684241,16.7731394 2.00489284,16.6314385 2.11129706,16.5674819 L4.66644376,15.031133 C4.77284798,14.9670605 4.90882746,15.0050637 4.97020168,15.115945 C5.0315759,15.2268263 4.99510716,15.3685273 4.88870294,15.4325997 L2.33355624,16.9688327 C2.29853291,16.9899199 2.2602852,17 2.22259343,17" id="Fill-190"></path>
                <path d="M11.4928536,3 L11.4918679,3 C11.2195668,2.99980489 10.999508,2.91229839 11.0000008,2.80450052 L11.0142936,0.194621488 C11.0147864,0.0871162851 11.235338,0 11.5071464,0 L11.5081321,0 C11.7804332,0.000195109261 12.000492,0.0877016129 11.9999992,0.19549948 L11.9857064,2.80537851 C11.9852136,2.91288371 11.764662,3 11.4928536,3" id="Fill-192"></path>
                <path d="M11.4929746,22 L11.4919887,22 C11.2196206,21.9998035 10.9995079,21.9116693 11.0000008,21.8030983 L11.0140506,19.1961157 C11.01479,19.0876429 11.2353958,19 11.5070244,19 L11.5082568,19 C11.7803783,19.0002948 12.0007376,19.0884289 11.9999981,19.197 L11.9859484,21.8039826 C11.9854554,21.9122589 11.7648497,22 11.4929746,22" id="Fill-194"></path>
                <path d="M2.47731577,16.7348683 L16.7349152,20.5226136 L20.5226284,6.26500093 L6.26502903,2.47725563 L2.47731577,16.7348683 Z M16.8874585,21 C16.8691018,21 16.8506377,20.9976383 16.8321736,20.9928075 L2.15956179,17.0948136 C2.1044916,17.0802139 2.05757994,17.0442516 2.02902503,16.9950852 C2.00047011,16.9458114 1.99252626,16.8871982 2.00723311,16.8321276 L5.90519412,2.15949897 C5.93568133,2.04474158 6.05322883,1.97700359 6.16777055,2.007169 L20.8403824,5.90505563 C20.8954526,5.91976261 20.9423642,5.95561758 20.9709192,6.00489133 C20.9995814,6.05416509 21.0074179,6.11277831 20.9928184,6.16774162 L17.0947501,20.8403702 C17.0692009,20.936556 16.9823553,21 16.8874585,21 Z" id="Fill-196"></path>
                <path d="M6.83948874,2.96888769 L9.85344843,8.56529785 L14.1670951,8.55031561 L6.83948874,2.96888769 Z M9.73755791,9 C9.66570579,9 9.59929549,8.95885312 9.56321826,8.8918673 L6.02724736,2.32606266 C5.97968186,2.23779772 5.99560421,2.12564804 6.06554162,2.05692514 C6.1355798,1.98798512 6.24048592,1.98092827 6.3179814,2.03977156 L14.9148409,8.58798835 C14.9863907,8.64259754 15.0170261,8.74063351 14.9906232,8.83074409 C14.9642203,8.92074611 14.8867248,8.98219502 14.7990511,8.98252072 L9.73826333,9 L9.73755791,9 Z" id="Fill-198"></path>
                <path d="M7.83290364,13.4495712 L15.1605111,19.0310498 L12.146551,13.4346976 L7.83290364,13.4495712 Z M15.798413,20 C15.7579017,20 15.7171888,19.9868635 15.6821193,19.9601563 L7.08525851,13.4118988 C7.01360793,13.3573988 6.98297252,13.2592552 7.0093754,13.1692542 C7.03577829,13.0791445 7.11327379,13.0178048 7.2009475,13.0175877 L12.2618369,13 L12.2624415,13 C12.3342936,13 12.400704,13.0411465 12.4367812,13.1081316 L15.9727526,19.6738682 C16.0203181,19.7622408 16.0043958,19.8742808 15.9344584,19.9431115 C15.8961641,19.9807838 15.8473893,20 15.798413,20 Z" id="Fill-200"></path>
                <path d="M2.47777885,6.2230838 L6.22303638,20.5223086 L20.5222207,16.7769329 L16.7769632,2.47770811 L2.47777885,6.2230838 Z M6.0695431,21 C6.03168071,21 5.994141,20.9899966 5.96090385,20.9705275 C5.91163971,20.9418079 5.87582103,20.8945874 5.8614075,20.8394071 L2.00708047,6.12390987 C1.97696266,6.0090316 2.04569581,5.89146424 2.16068132,5.86134634 L16.8760293,2.0070084 C16.9907997,1.97710563 17.1085818,2.04562385 17.1385921,2.16050211 L20.9929191,16.8759993 C21.0230369,16.9908776 20.9543038,17.1084449 20.8394258,17.1385628 L6.12397029,20.9929008 C6.10600716,20.9976336 6.08772135,21 6.0695431,21 Z" id="Fill-202"></path>
                <path d="M13.5483334,8.9320768 L16.2499381,13.0634224 L17.3764337,3.21412915 L13.5483334,8.9320768 Z M16.4238617,14 C16.33391,14 16.2489202,13.9582064 16.2029902,13.8879575 L13.033433,9.04100703 C12.9883935,8.97198083 12.9889024,8.88728202 13.0347053,8.81858929 L17.5259291,2.1100435 C17.5863634,2.01978703 17.7107945,1.97866031 17.8242838,2.01089476 C17.9380275,2.04312922 18.0106759,2.14038835 17.9987163,2.24442783 L16.6771769,13.7998129 C16.6661079,13.8959605 16.5851895,13.9749905 16.4769166,13.9951093 C16.4592316,13.9984439 16.4414194,14 16.4238617,14 Z" id="Fill-204"></path>
                <path d="M8.17708056,10 L7,20 L11,14.1945604 L8.17708056,10 Z M6.25456827,21 C6.2283594,21 6.20176884,20.9964431 6.17581442,20.9891071 C6.062073,20.9568729 5.98942607,20.8596147 6.00125823,20.7555761 L7.32289798,9.20029506 C7.33396678,9.10414833 7.4148835,9.02511905 7.52315414,9.00500048 C7.63142478,8.98454846 7.74211275,9.02812016 7.79707505,9.11215129 L10.9665677,13.9590581 C11.0116062,14.0280837 11.0110973,14.1127817 10.9652954,14.1814738 L6.47416302,20.8899592 C6.42747051,20.9595406 6.34299142,21 6.25456827,21 Z" id="Fill-206"></path>
            </g>
        </g>
    </g>
</svg>