<svg xmlns="http://www.w3.org/2000/svg" width="100" height="100" viewBox="0 0 100 100" version="1.1">
	<path d="M 43.448 23.748 L 37.500 38.500 24.051 39 L 10.601 39.500 20.212 48.368 L 29.823 57.237 25.333 67.868 C 22.864 73.716, 19.995 80.613, 18.958 83.195 L 17.072 87.890 28.286 81.322 C 34.454 77.710, 41.833 73.434, 44.685 71.819 L 49.870 68.883 65.507 78.036 C 74.108 83.070, 81.324 87.009, 81.544 86.789 C 81.764 86.569, 79.198 79.892, 75.841 71.952 L 69.737 57.515 79.619 48.278 L 89.500 39.040 75.853 39.020 L 62.207 39 56.523 24.750 C 53.397 16.912, 50.514 10.162, 50.118 9.748 C 49.721 9.335, 46.720 15.635, 43.448 23.748 M 45.586 36.478 L 41.818 46 34.659 46.045 L 27.500 46.091 32.659 50.795 L 37.819 55.500 35.333 61.500 C 30.462 73.255, 30.642 72.461, 33.225 70.798 C 34.476 69.992, 38.724 67.460, 42.665 65.172 L 49.830 61.011 58.484 66.104 C 63.243 68.905, 67.336 70.997, 67.580 70.754 C 67.824 70.510, 66.572 67.026, 64.799 63.012 L 61.576 55.713 66.809 50.901 L 72.043 46.088 64.826 45.794 L 57.608 45.500 54.223 37 C 52.361 32.325, 50.504 28.152, 50.096 27.728 C 49.689 27.303, 47.659 31.240, 45.586 36.478 " stroke="none" fill="black" fill-rule="evenodd"/>
</svg>