<?xml version="1.0" encoding="UTF-8"?>
<svg width="28px" height="28px" viewBox="0 0 28 28" version="1.1" xmlns="http://www.w3.org/2000/svg" xmlns:xlink="http://www.w3.org/1999/xlink">
    <!-- Generator: Sketch 51.3 (57544) - http://www.bohemiancoding.com/sketch -->
    <title>QuarkChain - QKC</title>
    <desc>Created with Sketch.</desc>
    <defs>
        <linearGradient x1="50%" y1="0%" x2="50%" y2="96.6808165%" id="linearGradient-1">
            <stop stop-color="#00ABEC" offset="0%"></stop>
            <stop stop-color="#00559E" offset="100%"></stop>
        </linearGradient>
        <polygon id="path-2" points="0 0.0350737248 20.4967 0.0350737248 20.4967 14.9997 0 14.9997"></polygon>
        <polygon id="path-4" points="0 0.0355 20.4967 0.0355 20.4967 14.9998248 0 14.9998248"></polygon>
    </defs>
    <g id="Wallet" stroke="none" stroke-width="1" fill="none" fill-rule="evenodd">
        <g id="All-Tokens" transform="translate(-20.000000, -331.000000)">
            <g id="QuarkChain---QKC" transform="translate(20.000000, 331.000000)">
                <circle id="Oval" fill="url(#linearGradient-1)" fill-rule="nonzero" cx="14" cy="14" r="14"></circle>
                <g id="Group-7" stroke-width="1" fill-rule="evenodd" transform="translate(4.000000, 6.000000)">
                    <g id="Group-3" transform="translate(0.000000, 0.965000)">
                        <mask id="mask-3" fill="white">
                            <use xlink:href="#path-2"></use>
                        </mask>
                        <g id="Clip-2"></g>
                        <path d="M20.4967,14.2617 C20.4967,14.6787 20.0777,14.9997 19.5597,14.9997 C19.0417,14.9997 18.6217,14.6787 18.6217,14.2617 L18.6217,2.9607 C18.6217,2.9227 18.5977,2.8847 18.5487,2.8847 C18.4987,2.8847 18.4747,2.8847 18.4497,2.9037 L11.0257,11.9517 C10.7297,12.2737 10.1627,12.3687 9.7187,12.1417 C9.5947,12.1037 9.5207,12.0277 9.4467,11.9337 L2.0467,2.9037 C2.0227,2.8847 1.9737,2.8847 1.9237,2.8847 C1.8987,2.8847 1.8747,2.9227 1.8747,2.9607 L1.8747,14.2617 C1.8747,14.6787 1.4307,14.9997 0.9127,14.9997 C0.4187,14.9997 -0.0003,14.6787 -0.0003,14.2617 L-0.0003,0.7647 C-0.0003,0.5377 0.1227,0.3097 0.4187,0.1587 C0.8387,-0.0683 1.4057,0.0267 1.7017,0.3667 L9.8907,10.3047 C9.9897,10.3807 10.0877,10.4567 10.2357,10.4567 C10.3837,10.4567 10.4827,10.3807 10.5817,10.3047 L18.7457,0.4047 C18.8937,0.1777 19.2147,0.0457 19.5597,0.0457 C20.0777,0.0457 20.4967,0.3667 20.4967,0.7647 L20.4967,14.2617 Z" id="Fill-1" fill="#FFFFFF" mask="url(#mask-3)"></path>
                    </g>
                    <g id="Group-6" opacity="0.638337054" transform="translate(0.000000, 0.965000)">
                        <mask id="mask-5" fill="white">
                            <use xlink:href="#path-4"></use>
                        </mask>
                        <g id="Clip-5"></g>
                        <path d="M20.4967,14.2705 C20.4967,14.6675 20.0777,14.9895 19.5597,14.9895 C19.2147,14.9895 18.8937,14.8575 18.7457,14.6295 L10.5817,4.7295 C10.4827,4.6535 10.3837,4.5785 10.2357,4.5785 C10.0877,4.5785 9.9897,4.6535 9.8907,4.7295 L1.7017,14.6675 C1.4057,15.0085 0.8387,15.1035 0.4187,14.8755 C0.1227,14.7245 -0.0003,14.4975 -0.0003,14.2705 L-0.0003,0.7735 C-0.0003,0.3565 0.4187,0.0355 0.9127,0.0355 C1.4307,0.0355 1.8747,0.3565 1.8747,0.7735 L1.8747,12.0745 C1.8747,12.1125 1.8987,12.1505 1.9237,12.1505 C1.9737,12.1505 2.0227,12.1505 2.0467,12.1315 L9.4467,3.1015 C9.5207,3.0065 9.5947,2.9315 9.7187,2.8935 C10.1627,2.6665 10.7297,2.7605 11.0257,3.0825 L18.4497,12.1315 C18.4747,12.1505 18.4987,12.1505 18.5487,12.1505 C18.5977,12.1505 18.6217,12.1125 18.6217,12.0745 L18.6217,0.7735 C18.6217,0.3565 19.0417,0.0355 19.5597,0.0355 C20.0777,0.0355 20.4967,0.3565 20.4967,0.7735 L20.4967,14.2705 Z" id="Fill-4" fill="#FFFFFF" mask="url(#mask-5)"></path>
                    </g>
                </g>
            </g>
        </g>
    </g>
</svg>