<svg width="250" height="250" viewBox="0 0 250 250" xmlns="http://www.w3.org/2000/svg"><path d="M226.436 196.094c3.136 0 5.848 1.107 8.134 3.32 2.287 2.214 3.43 4.948 3.43 8.203 0 3.125-1.143 5.827-3.43 8.106-2.286 2.278-4.998 3.418-8.134 3.418-3.266 0-6.01-1.14-8.231-3.418-2.222-2.279-3.332-4.98-3.332-8.106 0-1.041.13-2.083.392-3.125.261-1.041.653-1.953 1.176-2.734l-20.188-17.383-41.354 29.688c.261.52.425 1.009.49 1.464.065.456.098.944.098 1.465 0 2.214-.784 4.102-2.352 5.664-1.568 1.563-3.397 2.344-5.488 2.344-1.96 0-3.658-.553-5.096-1.66-1.437-1.107-2.352-2.572-2.744-4.395H95.905c-.392 1.823-1.307 3.288-2.744 4.395-1.437 1.107-3.07 1.66-4.9 1.66-2.22 0-4.116-.781-5.683-2.344-1.568-1.562-2.352-3.45-2.352-5.664 0-.52.065-1.009.196-1.465.13-.455.26-.944.392-1.464l-36.26-25.977a8.42 8.42 0 0 1-2.253 1.27c-.85.325-1.797.488-2.842.488-2.221 0-4.116-.781-5.684-2.344-1.568-1.563-2.352-3.45-2.352-5.664 0-1.432.36-2.734 1.078-3.906a7.617 7.617 0 0 1 2.842-2.735l-13.915-42.382h-.392c-2.222 0-4.116-.782-5.684-2.344-1.568-1.563-2.352-3.45-2.352-5.664 0-2.214.784-4.102 2.352-5.664 1.568-1.563 3.462-2.344 5.684-2.344h.588l13.72-41.992h-.197c-1.045-.651-1.927-1.563-2.646-2.735-.718-1.172-1.078-2.474-1.078-3.906 0-2.213.784-4.101 2.352-5.664 1.568-1.563 3.463-2.344 5.684-2.344 1.045 0 1.993.163 2.842.489.85.325 1.6.813 2.254 1.464l36.259-26.172c-.131-.39-.262-.846-.392-1.367a6.4 6.4 0 0 1-.196-1.562c0-2.214.784-4.102 2.352-5.664C84.145 25.78 86.04 25 88.26 25c1.83 0 3.463.586 4.9 1.758 1.437 1.172 2.352 2.604 2.744 4.297h43.902c.392-1.823 1.307-3.288 2.744-4.395 1.438-1.107 3.136-1.66 5.096-1.66 2.09 0 3.92.781 5.488 2.344 1.568 1.562 2.352 3.45 2.352 5.664 0 .52-.033 1.041-.098 1.562a3.114 3.114 0 0 1-.49 1.367l36.259 26.172a6.251 6.251 0 0 1 2.352-1.464 8.137 8.137 0 0 1 2.743-.489c2.222 0 4.116.781 5.684 2.344 1.568 1.563 2.352 3.45 2.352 5.664 0 1.432-.36 2.734-1.078 3.906-.718 1.172-1.6 2.084-2.646 2.735l13.72 42.187h.588c2.09 0 3.92.781 5.488 2.344 1.568 1.562 2.352 3.45 2.352 5.664 0 2.214-.784 4.102-2.352 5.664-1.568 1.563-3.398 2.344-5.488 2.344h-.588l-15.68 48.242 20.384 17.578a10.916 10.916 0 0 1 3.43-2.05c1.24-.456 2.58-.684 4.017-.684zM197.626 78.32l-2.548 38.867c1.306.521 2.45 1.27 3.43 2.247.98.976 1.6 2.18 1.861 3.613h6.664c.261-1.042.686-1.953 1.274-2.734.588-.782 1.34-1.433 2.254-1.954L197.625 78.32zm-3.724-2.539l-.196-.195c-.654-.13-1.307-.456-1.96-.977a21.36 21.36 0 0 1-1.764-1.562l-13.328 5.664c0 .26.033.52.098.781.066.26.098.456.098.586a7.304 7.304 0 0 1-.784 3.32c-.522 1.042-1.176 1.888-1.96 2.54l16.464 31.25c.13-.13.228-.196.294-.196h.294l2.744-41.21zm-44.883 41.406l14.7-31.054a9.166 9.166 0 0 1-1.96-2.246 6.973 6.973 0 0 1-.98-2.832l-35.475-4.493c-.261.521-.555 1.01-.882 1.465-.327.456-.686.88-1.078 1.27l21.951 38.086c.392-.13.784-.228 1.176-.293a7.165 7.165 0 0 1 1.176-.098c.262 0 .523.033.784.098.262.065.458.097.588.097zm18.228-29.296l-14.504 31.054a6.101 6.101 0 0 1 1.568 1.856c.392.716.719 1.465.98 2.246h29.595c.13-.781.392-1.53.784-2.246a6.101 6.101 0 0 1 1.568-1.856l-16.464-31.25c-.392.13-.75.228-1.078.293-.326.065-.62.098-.882.098a3.25 3.25 0 0 1-.784-.098 3.232 3.232 0 0 0-.783-.097zm-25.284 31.445l-21.95-38.086c-.393 0-.752.033-1.079.098a5.525 5.525 0 0 1-1.078.097c-.392 0-.751-.032-1.078-.097a4.557 4.557 0 0 0-.882-.098L93.75 119.336c.523.52.98 1.074 1.372 1.66.392.586.653 1.27.784 2.05h43.902c.262-.78.556-1.464.882-2.05a7.513 7.513 0 0 1 1.274-1.66zm-51.546-1.953l21.951-38.086c-.392-.39-.75-.814-1.077-1.27a7.891 7.891 0 0 1-.882-1.66l-35.475 4.688a6.973 6.973 0 0 1-.98 2.832 9.166 9.166 0 0 1-1.96 2.246l14.7 31.054c.26 0 .522-.032.783-.097.262-.065.523-.098.784-.098.392 0 .752.033 1.078.098a9.09 9.09 0 0 1 1.078.293zm-7.251 1.562L68.662 87.891c-.261 0-.523.032-.784.097a3.232 3.232 0 0 1-.784.098c-.392 0-.751-.033-1.078-.098a4.557 4.557 0 0 0-.882-.097l-16.463 31.25a6.615 6.615 0 0 1 1.568 1.757c.392.651.718 1.368.98 2.149h29.399c.13-.912.424-1.693.882-2.344a8.476 8.476 0 0 1 1.666-1.758zm-31.947 8.008a10.777 10.777 0 0 1-.98 2.149 6.615 6.615 0 0 1-1.568 1.757l16.463 31.446a1.95 1.95 0 0 1 .882-.196h2.45l14.7-31.054a8.476 8.476 0 0 1-1.666-1.758c-.458-.651-.817-1.432-1.078-2.344H51.219zm35.474 5.86l-14.7 31.054a9.166 9.166 0 0 1 1.96 2.246c.523.847.85 1.79.98 2.832l35.476 4.492c.26-.52.555-1.041.882-1.562a7.65 7.65 0 0 1 1.077-1.367l-21.95-37.89c-.262.13-.589.227-.98.292a7.165 7.165 0 0 1-1.177.098c-.261 0-.522-.033-.784-.098a3.232 3.232 0 0 0-.784-.097zm7.056-2.149l21.951 37.89v.196c.392-.13.752-.228 1.078-.293a5.525 5.525 0 0 1 1.078-.098c.392 0 .784.033 1.176.098.392.065.719.098.98.098l21.951-37.89a10.998 10.998 0 0 1-1.372-1.661c-.392-.586-.653-1.27-.784-2.05H95.905c-.13.78-.392 1.464-.784 2.05-.392.586-.85 1.14-1.372 1.66zm55.273 2.154a3.268 3.268 0 0 0-.59.092 4.136 4.136 0 0 1-.98.098c-.393 0-.752-.033-1.079-.098a9.086 9.086 0 0 1-1.078-.293l-21.755 37.89c.392.391.719.847.98 1.368l.784 1.562 35.67-4.492c.131-1.041.425-1.985.883-2.832a7.612 7.612 0 0 1 1.862-2.246l-14.697-31.049zm3.525-1.763l14.7 31.054h2.45c.326 0 .62.065.881.196l16.856-31.64a4.496 4.496 0 0 1-1.568-1.563 10.777 10.777 0 0 1-.98-2.149H155.29c-.261.912-.62 1.693-1.078 2.344a8.476 8.476 0 0 1-1.666 1.758zm35.86-61.716a1.97 1.97 0 0 0-.091-.491 2.157 2.157 0 0 1-.098-.684 6.4 6.4 0 0 1 .196-1.562c.13-.521.261-.977.392-1.368l-36.063-26.171c-.13 0-.196.032-.196.097v.098l14.863 32.935a1.68 1.68 0 0 1 .62-.123h.784c1.307 0 2.483.293 3.528.88a10.12 10.12 0 0 1 2.744 2.245l13.321-5.856zm-43.896-28.91l-20.383 28.126c.392.52.751 1.106 1.078 1.757.327.652.49 1.368.49 2.149l35.67 4.687c.262-.65.589-1.27.98-1.855a4.838 4.838 0 0 1 1.569-1.465L149.019 40.82c-.261 0-.522.033-.784.098a3.232 3.232 0 0 1-.784.098 5.346 5.346 0 0 1-1.47-.196c-.457-.13-.947-.26-1.47-.39zm-48.606-5.468c-.13.651-.327 1.204-.588 1.66-.261.456-.588.944-.98 1.465l20.58 27.93v.195c.391-.26.849-.423 1.371-.488a12.673 12.673 0 0 1 1.568-.098c.523 0 1.013.033 1.47.098a7.21 7.21 0 0 1 1.274.293l20.775-27.93a10.256 10.256 0 0 1-.98-1.563 7.617 7.617 0 0 1-.588-1.562H95.905zm-7.644 6.055c-.261 0-.522-.033-.784-.098a2.689 2.689 0 0 0-.588-.098L71.994 73.828c.523.39.98.879 1.372 1.465.392.586.718 1.204.98 1.855l35.67-4.687a10.31 10.31 0 0 1 .589-2.148 5.202 5.202 0 0 1 1.175-1.758L91.201 40.43c-.392.13-.85.26-1.372.39a6.464 6.464 0 0 1-1.568.196zm-5.095-1.953l-36.26 26.171c.131.391.262.814.393 1.27.13.456.196.944.196 1.465v.781c0 .26-.066.456-.196.586l13.523 5.86c.654-.912 1.536-1.66 2.646-2.247a7.651 7.651 0 0 1 3.626-.879h.686c.196 0 .425.065.686.196l14.895-33.008c-.13 0-.195-.033-.195-.098v-.097zM45.73 73.047c-.392.52-.915 1.009-1.568 1.465a8.34 8.34 0 0 1-2.156 1.074l2.94 41.601h.392l16.463-31.25a6.035 6.035 0 0 1-2.058-2.539c-.457-1.041-.686-2.083-.686-3.125v-.78c0-.261.066-.522.196-.782L45.73 73.047zm-7.448 98.633l2.744-39.063h-.196a9.586 9.586 0 0 1-3.136-2.246 8.525 8.525 0 0 1-1.96-3.418H28.68c-.26 1.042-.686 1.953-1.274 2.734-.587.782-1.339 1.433-2.253 1.954l13.131 40.039zm-2.548-48.633a8.525 8.525 0 0 1 1.96-3.418c.915-.977 2.025-1.725 3.332-2.246L38.283 78.32l-12.935 39.844c.784.52 1.502 1.204 2.155 2.05a5.726 5.726 0 0 1 1.176 2.833h7.056zm6.272 51.367c.784.26 1.47.586 2.058.977.588.39 1.143.911 1.666 1.562l13.523-5.664c-.13-.26-.196-.488-.196-.684v-.683a8.17 8.17 0 0 1 .686-3.32 6.035 6.035 0 0 1 2.058-2.54l-16.463-31.25h-.392l-2.94 41.602zm5.365 6.218c.082.206.123.412.123.618v.781a6.4 6.4 0 0 1-.196 1.563c-.13.52-.262.976-.392 1.367l36.259 25.976.195-.195-14.895-33.008c-.261.13-.523.196-.784.196h-.784c-1.307 0-2.482-.293-3.528-.88a10.12 10.12 0 0 1-2.744-2.245l-13.254 5.827zm39.515 28.542c.197-.012.393-.043.59-.092.262-.065.523-.098.784-.098.523 0 1.046.065 1.568.196.523.13.98.26 1.372.39l17.052-23.437 3.527-4.688c-.522-.65-.914-1.302-1.175-1.953a10.331 10.331 0 0 1-.588-2.148l-35.475-4.492h-.196c-.262.65-.588 1.27-.98 1.855a5.907 5.907 0 0 1-1.372 1.465l14.893 33.002zm33.96-25.51c-.474.22-.949.359-1.423.418a12.672 12.672 0 0 1-3.136 0 3.143 3.143 0 0 1-1.372-.488l-20.579 28.32a4.8 4.8 0 0 1 .98 1.465c.261.586.457 1.14.588 1.66h43.902c.131-.52.327-1.042.588-1.562.262-.521.588-1.042.98-1.563l-20.528-28.25zm28.172 25.516l.392-1.172 14.308-31.836a14.649 14.649 0 0 1-1.372-1.563 7.636 7.636 0 0 1-.98-1.757l-35.671 4.492c0 .781-.163 1.497-.49 2.148a11.059 11.059 0 0 1-1.274 1.953l20.58 28.125c.522-.13 1.012-.26 1.47-.39.457-.13.947-.196 1.47-.196.26 0 .522.033.783.098.262.065.523.098.784.098zm3.724 1.757l39.59-28.71-17.247-7.422V175a8.725 8.725 0 0 1-2.744 2.148c-1.045.521-2.22.782-3.528.782h-.784c-.26 0-.457-.065-.587-.196l-14.504 32.032-.392.976v.195h.196zm23.911-39.648l17.444 7.617-2.94-46.289h-.392l-16.66 31.446c.784.78 1.438 1.66 1.96 2.636.523.977.784 2.051.784 3.223 0 .26-.032.488-.098.683a2.157 2.157 0 0 0-.098.684zm18.424-38.867l2.547 39.258 12.936-40.04a7.269 7.269 0 0 1-2.254-1.953c-.588-.78-1.013-1.692-1.274-2.734h-6.86c-.261 1.302-.849 2.409-1.764 3.32-.914.912-2.025 1.628-3.331 2.149z"/></svg>