<svg xmlns="http://www.w3.org/2000/svg" width="100" height="100" viewBox="0 0 100 100" version="1.1">
	<path d="M 10 50 L 10 90 50 90 L 90 90 90 50 L 90 10 50 10 L 10 10 10 50 M 36.250 23.181 L 31 26.127 31 52.646 L 31 79.165 36.250 76.135 L 41.500 73.105 41.771 53.052 C 41.920 42.024, 42.205 33, 42.406 33 C 42.606 33, 46.245 34.981, 50.492 37.401 L 58.215 41.803 52.119 45.151 L 46.024 48.500 46.012 55.083 L 46 61.665 59.500 70.890 L 73 80.115 72.983 73.808 L 72.966 67.500 64.920 61.834 L 56.874 56.169 63.437 52.498 L 70 48.828 69.987 42.164 L 69.975 35.500 56.393 28 C 48.924 23.875, 42.517 20.441, 42.156 20.368 C 41.795 20.295, 39.138 21.561, 36.250 23.181 " stroke="none" fill="black" fill-rule="evenodd"/>
</svg>