<svg xmlns="http://www.w3.org/2000/svg" width="226.777" height="226.777" viewBox="0 0 226.777 226.777"><path d="M113.283-.21C50.602-.21-.211 50.603-.211 113.284c0 62.68 50.813 113.493 113.494 113.493s113.494-50.813 113.494-113.493C226.777 50.603 175.964-.21 113.283-.21zm49.616 66.048l5.5-5.64a1.399 1.399 0 0 1 2.002 1.952l-5.5 5.639a1.396 1.396 0 0 1-1.977.025 1.399 1.399 0 0 1-.025-1.976zM130.32 48.211l2.172-7.692a1.399 1.399 0 0 1 2.692.761l-2.171 7.69a1.402 1.402 0 0 1-1.726.966 1.401 1.401 0 0 1-.967-1.725zm-37.971-8.658a1.4 1.4 0 0 1 1.726.965l2.171 7.692a1.399 1.399 0 0 1-2.691.759l-2.171-7.69a1.398 1.398 0 0 1 .965-1.726zm-36.158 20.62a1.4 1.4 0 0 1 1.978.025l5.5 5.64a1.398 1.398 0 1 1-2.001 1.951l-5.5-5.639a1.396 1.396 0 0 1 .023-1.977zm-13.882 76.511l-7.552 1.864a1.398 1.398 0 0 1-1.691-1.022 1.397 1.397 0 0 1 1.022-1.694l7.552-1.863a1.399 1.399 0 0 1 .669 2.715zm2.399-37.86a1.4 1.4 0 0 1-1.747.924l-7.55-2.319a1.398 1.398 0 1 1 .82-2.672l7.55 2.318a1.4 1.4 0 0 1 .927 1.749zm68.575 72.617l-62.368-65.449 24.253-20.574 13.453-4.344h49.327l13.453 4.344 24.252 20.574-62.37 65.449zm68.576-72.617a1.4 1.4 0 0 1 .927-1.749l7.55-2.318a1.399 1.399 0 1 1 .821 2.672l-7.551 2.319a1.397 1.397 0 0 1-1.747-.924zm11.644 38.703a1.4 1.4 0 0 1-1.692 1.022l-7.551-1.864a1.4 1.4 0 0 1 .67-2.715l7.551 1.863a1.4 1.4 0 0 1 1.022 1.694z"/><path d="M149.534 88.985a.66.66 0 0 0-.192-.106c-.015-.006-.025-.02-.04-.024l-11.846-3.823c-.003-.002-.009-.002-.013-.004a.837.837 0 0 0-.223-.035l-.022-.002H89.369l-.024.002a.902.902 0 0 0-.218.035l-.015.004-11.844 3.823c-.013.004-.022.013-.036.02a.762.762 0 0 0-.208.117c-.013.009-.029.011-.042.022L57.289 105.72l-.022.024a1.281 1.281 0 0 0-.112.124c-.018.024-.032.05-.048.076-.012.021-.025.043-.035.065-.013.028-.022.059-.032.087a.667.667 0 0 0-.023.072c-.006.028-.01.059-.014.089-.002.02-.008.039-.01.061l.002.013-.002.021c0 .03.005.052.007.074.002.026.003.055.007.081a.638.638 0 0 0 .024.091.897.897 0 0 0 .022.069c.012.03.026.057.041.085.012.021.022.043.036.065.016.026.037.048.057.074.013.016.023.033.038.048l55.452 58.192a.815.815 0 0 0 .169.131c.004.004.006.011.013.013.01.007.022.009.031.013a.908.908 0 0 0 .143.062c.019.004.037.011.056.015a.804.804 0 0 0 .194.028h.004a.966.966 0 0 0 .193-.028c.02-.004.037-.011.056-.015a.671.671 0 0 0 .14-.062c.011-.004.023-.006.034-.013l.013-.013a.81.81 0 0 0 .168-.131l55.453-58.192c.013-.015.023-.032.036-.048.02-.026.041-.047.058-.074.015-.021.023-.043.035-.065a.554.554 0 0 0 .041-.085c.01-.024.015-.048.023-.069a.671.671 0 0 0 .022-.091c.004-.026.006-.054.008-.081.002-.021.006-.043.006-.065l-.002-.022.002-.021c-.002-.022-.007-.042-.01-.061a.636.636 0 0 0-.014-.089l-.021-.072c-.011-.028-.02-.056-.033-.087a3.597 3.597 0 0 0-.034-.063c-.017-.028-.031-.054-.05-.078a1.243 1.243 0 0 0-.048-.059c-.02-.021-.04-.043-.063-.065l-.021-.024-19.692-16.706c-.016-.014-.036-.019-.053-.029zm-.034 3.175l7.569 13.36h-9.661l2.092-13.36zm-12.113-5.389l10.715 3.46-2.284 14.585-15.397-12.063 6.966-5.982zm-6.896 18.75H115.55l12.978-11.141 1.963 11.141zm-.187-10.726l13.69 10.726h-11.8l-1.89-10.726zm.044 12.403l-9.166 29.296-6.842-29.296h16.008zm1.759 0h12.626l-21.439 28.168 8.813-28.168zm2.825-20.531l-5.98 5.135-11.677-5.135h17.657zm-7.392 6.347l-14.257 12.24-14.256-12.24 14.256-6.269 14.257 6.269zm-33.167 12.507H82.572l13.691-10.726-1.89 10.726zm3.667-11.143l12.979 11.143H96.076l1.964-11.143zm-3.58 12.82l8.813 28.168-21.44-28.168H94.46zm1.759 0h16.008l-6.841 29.296-9.167-29.296zm13.073-20.531l-11.677 5.135-5.981-5.135h17.658zm-20.113.104l6.967 5.982-15.398 12.063-2.284-14.585 10.715-3.46zm-12.11 5.389l2.092 13.36h-9.663l7.571-13.36zm-2.601 1.184l-6.897 12.177h-7.453l14.35-12.177zM59.79 107.198h7.826l20.343 29.561-28.169-29.561zm9.865 0h9.905l11.883 31.664-21.788-31.664zm25.706 37.328l-12.428-33.112 21.812 28.655 6.663 21.298-16.047-16.841zm17.922 17.214l-6.912-22.093 6.912-29.6 6.913 29.598-6.913 22.095zm1.876-.373l6.664-21.298 21.811-28.655-12.427 33.11-16.048 16.843zm31.849-54.169h9.905l-21.788 31.664 11.883-31.664zm-8.399 29.561l20.341-29.561h7.827l-28.168 29.561zm27.842-31.238h-7.453L152.1 93.344l14.351 12.177z"/></svg>