<svg xmlns="http://www.w3.org/2000/svg" width="100" height="100" viewBox="0 0 100 100" version="1.1">
	<path d="M 38.324 14.383 C 32.124 16.406, 27.696 19.458, 22.130 25.548 C 15.789 32.486, 12.871 39.943, 12.561 50 C 12.386 55.651, 11.796 58.363, 10.168 61 C 8.980 62.925, 8.006 65.287, 8.004 66.250 C 7.998 69.007, 11.526 68.336, 12.901 65.319 L 14.122 62.638 16.939 67.569 C 20.531 73.857, 28.625 81.440, 34.741 84.249 C 38.653 86.045, 41.368 86.440, 50 86.467 C 59.502 86.497, 61.040 86.235, 66.178 83.711 C 73.771 79.982, 82.146 70.893, 85 63.285 C 86.362 59.654, 87.231 54.877, 87.335 50.457 C 87.459 45.158, 88.099 42.286, 89.916 38.861 C 92.366 34.247, 92.244 30.586, 89.673 31.572 C 88.902 31.868, 87.732 33.292, 87.074 34.736 L 85.878 37.362 83.041 32.395 C 79.244 25.747, 72.689 19.518, 66.056 16.254 C 61.582 14.053, 58.998 13.526, 51.556 13.298 C 45.888 13.125, 40.938 13.531, 38.324 14.383 M 41.286 18.451 C 31.260 21.584, 24.581 27.367, 20.344 36.581 C 17.652 42.437, 16.144 51, 17.805 51 C 18.397 51, 19.183 50.513, 19.551 49.917 C 22.272 45.515, 40.996 37.428, 50.802 36.419 C 59.833 35.490, 59.861 35.443, 54.645 30.147 C 50.133 25.567, 50.013 25.298, 51.768 23.710 C 53.502 22.141, 54.008 22.464, 61.302 29.801 L 69.005 37.549 62.104 44.397 C 55.839 50.614, 53 51.968, 53 48.739 C 53 48.110, 54.432 46.118, 56.182 44.313 C 57.932 42.507, 59.071 40.738, 58.713 40.380 C 58.356 40.023, 54.158 40.447, 49.385 41.324 C 39.135 43.206, 28.301 48.100, 22.109 53.645 C 17.743 57.556, 17.725 57.598, 19.017 61.170 C 22.375 70.458, 31.511 78.639, 41.894 81.658 C 56.219 85.822, 73.221 77.699, 79.893 63.503 C 81.980 59.064, 83.805 49, 82.523 49 C 82.119 49, 80.419 50.152, 78.745 51.561 C 71.615 57.561, 54.064 64, 44.840 64 C 42.728 64, 41 64.356, 41 64.792 C 41 65.227, 43.013 67.559, 45.472 69.973 C 48.904 73.341, 49.690 74.669, 48.850 75.681 C 46.970 77.946, 45.660 77.211, 38.223 69.725 L 30.997 62.450 37.943 55.556 C 43.981 49.565, 45.099 48.837, 46.491 49.992 C 47.924 51.182, 47.701 51.722, 44.361 55.142 C 42.309 57.244, 40.881 59.214, 41.188 59.521 C 42.026 60.359, 53.854 58.276, 60.267 56.160 C 66.875 53.980, 75.995 48.659, 79.635 44.859 C 82.012 42.378, 82.106 41.935, 80.940 38.711 C 75.352 23.258, 56.586 13.669, 41.286 18.451 " stroke="none" fill="black" fill-rule="evenodd"/>
</svg>