<?xml version="1.0" encoding="UTF-8"?>
<svg width="25px" height="28px" viewBox="0 0 25 28" version="1.1" xmlns="http://www.w3.org/2000/svg" xmlns:xlink="http://www.w3.org/1999/xlink">
    <!-- Generator: Sketch 51.3 (57544) - http://www.bohemiancoding.com/sketch -->
    <title>rp-logo-icon-dark</title>
    <desc>Created with Sketch.</desc>
    <defs></defs>
    <g id="Wallet" stroke="none" stroke-width="1" fill="none" fill-rule="evenodd">
        <g id="All-Tokens" transform="translate(-44.000000, -393.000000)" fill="#080818" fill-rule="nonzero">
            <g id="rp-logo-icon-dark" transform="translate(44.000000, 393.000000)">
                <polygon id="Shape" points="3.85 5.88636364 5.88636364 4.70909091 6.17272727 5.18636364 13.7454545 0.795454545 13.2045455 0.477272727 12.6318182 0.159090909 12.3772727 0 0 7.15909091 0 7.44545455 3.56363636 5.40909091"></polygon>
                <polygon id="Shape" points="3.85 10.3727273 9.8 6.96818182 10.0545455 7.44545455 17.6590909 3.05454545 17.0863636 2.73636364 16.5454545 2.41818182 16.2590909 2.25909091 0 11.6136364 0 11.9636364 3.56363636 9.89545455"></polygon>
                <polygon id="Shape" points="3.85 12.6318182 11.7090909 8.08181818 11.9954545 8.55909091 19.6 4.16818182 19.0272727 3.85 18.4863636 3.53181818 18.2 3.37272727 0 13.8727273 0 14.1909091 3.56363636 12.1545455"></polygon>
                <polygon id="Shape" points="3.85 14.8590909 13.7136364 9.16363636 14 9.64090909 21.5409091 5.28181818 20.9681818 4.96363636 20.4272727 4.64545455 20.1409091 4.48636364 0 16.1318182 0 16.4181818 3.56363636 14.3818182"></polygon>
                <polygon id="Shape" points="3.85 17.1181818 15.6545455 10.2772727 15.9409091 10.7863636 23.4818182 6.42727273 22.9090909 6.07727273 22.3681818 5.79090909 22.0818182 5.6 0 18.3590909 0 18.6772727 3.56363636 16.6409091"></polygon>
                <polygon id="Shape" points="24.3090909 6.90454545 24.0227273 6.71363636 0 20.6181818 0 20.9363636 3.56363636 18.9 3.85 19.3454545 15.6545455 12.5363636 15.9409091 13.0136364 24.7227273 7.95454545 24.7227273 7.31818182 24.7227273 7.15909091"></polygon>
                <polygon id="Shape" points="1.52727273 22.3045455 3.5 21.1590909 3.78636364 21.6363636 15.5909091 14.7954545 15.9090909 15.3045455 24.7227273 10.1818182 24.7227273 9.54545455 24.7227273 8.90909091 24.7227273 8.59090909 1.27272727 22.1454545"></polygon>
                <polyline id="Shape" points="15.5909091 17.0545455 15.9090909 17.5636364 24.7227273 12.4409091 24.7227273 11.7727273 24.7227273 11.1363636 24.7227273 10.85 3.21363636 23.2590909 3.46818182 23.4181818 5.50454545 22.2409091 5.79090909 22.7181818"></polyline>
                <polygon id="Shape" points="5.40909091 24.5318182 7.44545455 23.3545455 7.73181818 23.8636364 15.5909091 19.3136364 15.9090909 19.7909091 24.7227273 14.6681818 24.7227273 14.0318182 24.7227273 13.3954545 24.7227273 13.0772727 5.12272727 24.3727273"></polygon>
                <polygon id="Shape" points="7.38181818 25.6454545 9.38636364 24.5 9.67272727 24.9772727 15.5909091 21.5409091 15.9090909 22.0181818 24.7227273 16.9272727 24.7227273 16.2909091 24.7227273 15.6545455 24.7227273 15.3045455 7.06363636 25.5181818"></polygon>
                <polygon id="Shape" points="9.03636364 26.6318182 9.32272727 26.7909091 11.3272727 25.6136364 11.6136364 26.1227273 15.5909091 23.8 15.9090909 24.2772727 24.7227273 19.1863636 24.7227273 18.55 24.7227273 17.8818182 24.7227273 17.5636364"></polygon>
                <polygon id="Shape" points="11.2636364 27.9045455 13.2681818 26.7590909 13.5545455 27.2363636 15.5909091 26.0272727 15.9090909 26.5363636 24.7227273 21.4136364 24.7227273 20.7772727 24.7227273 20.1409091 24.7227273 19.8227273 10.9772727 27.7772727"></polygon>
                <polygon id="Shape" points="15.7181818 1.90909091 15.1454545 1.62272727 15.1454545 1.62272727 14.6045455 1.27272727 14.3181818 1.11363636 0 9.38636364 0 9.70454545 3.56363636 7.66818182 3.85 8.14545455 7.82727273 5.82272727 8.11363636 6.3"></polygon>
            </g>
        </g>
    </g>
</svg>