<svg xmlns="http://www.w3.org/2000/svg" width="227" height="227" viewBox="0 0 227 227"><path d="M102.103.612C53.373 5.75 13.064 41.645 2.707 89.156c-6.78 30.905-.745 61.81 17.212 88.694 6.408 9.607 20.341 23.458 30.102 29.937C69.542 220.819 90.107 227 113.503 227c11.847 0 17.882-.745 28.537-3.351 28.462-7.15 53.647-26.065 69.592-52.427 6.706-11.021 12.592-28.224 14.529-42.075 1.341-9.31 1.043-25.246-.67-34.852C215.356 35.76 160.964-5.57 102.102.612zm19.67 53.767c.596.596.894 3.351.894 7.372 0 7.224-.82 8.862-4.396 8.862-5.886 0-18.478 4.617-28.91 10.575l-5.438 3.128v23.532h53.2c47.387 0 53.348.15 54.391 1.192 1.043.968 1.192 3.798 1.192 19.51 0 10.129-.372 20.555-.82 23.235-1.49 9.235-6.854 16.682-15.2 21.075-4.172 2.235-4.991 2.383-11.92 2.383-9.016 0-12.444-1.34-18.554-7.074l-4.023-3.798-5.29 3.425c-2.98 1.937-7.079 4.245-9.24 5.139-9.984 4.468-25.78 7.968-27.866 6.255-.67-.52-.969-3.053-.969-8.117v-7.372l2.087-.447c12.145-2.607 17.733-4.394 25.11-8.117 12.517-6.256 11.623-4.766 11.027-18.543l-.447-11.618H83.55c-44.93 0-53.2-.149-53.945-1.042-.67-.82-.82-6.926-.67-22.937.223-21 .298-21.969 2.011-26.288 1.267-3.128 3.13-5.808 6.334-9.01 5.96-5.884 11.027-8.043 19.447-8.043 7.45-.075 13.337 2.383 18.627 7.744l3.576 3.575 4.173-2.83c7.972-5.362 17.212-9.234 27.717-11.543 6.036-1.266 9.836-1.34 10.953-.223z"/><path d="M50.617 76.199c-5.29 3.202-6.184 6.18-6.184 19.957v11.692H70.66l-.298-12.138c-.15-9.681-.522-12.511-1.565-14.447-3.502-6.405-12.07-8.862-18.18-5.064zm100.364 60.469c0 9.979.224 12.213 1.416 14.894 4.172 9.16 17.211 9.83 22.576 1.117 1.565-2.532 1.714-3.723 1.937-15.266l.298-12.437h-26.227z"/></svg>