<svg xmlns="http://www.w3.org/2000/svg" style="isolation:isolate" viewBox="1121 1490 227 227" width="227" height="227"><circle cx="1234.5" cy="1603.5" r="113.5"/><path d="M1195.907 1630.435c1.808-2.74 3.627-5.474 5.458-8.2h-19.628a.596.596 0 0 1-.596-.596v-4.074c0-.327.269-.596.596-.596h23.202c12.409-18.123 18.611-25.586 18.611-26.349 0-1.173-.256-1.755-4.485-1.755-8.353 0-22.095-5.964-22.095-22.25 0-8.859 14.33-19.615 22.698-19.615 3.882 0 4.477 1.645 2.691 1.755-4.78.294-15.235 9.84-15.235 19.026 0 6.15 5.458 16.689 17.617 16.689 14.363 0 26.632-22.833 56.453-22.833 17.918 0 22.697 14.018 22.697 17.862 0 3.843-5.593 5.855-13.139 5.855-7.546 0-7.829-13.473-22.999-13.473-23.818 0-44.101 25.793-53.845 45.088h16.81c.334 0 .596.269.596.596v4.075a.6.6 0 0 1-.596.601h-19.282c-1.332 3.075-2.326 5.862-2.947 8.201h16.849c.33-.01.602.259.602.589v4.081c0 .33-.267.596-.596.596h-17.611c.314 7.469 6.579 14.202 18.809 20.199h-46.894a1185.4 1185.4 0 0 1 12.813-20.2h-16.093a.598.598 0 0 1-.603-.596v-4.08c0-.328.268-.594.596-.596z" fill-rule="evenodd" fill="#fff"/></svg>