<svg xmlns="http://www.w3.org/2000/svg" width="100" height="100" viewBox="0 0 100 100" version="1.1">
	<path d="M 40.618 11.048 C 34.290 12.638, 25.284 17.968, 20.912 22.711 C 18.667 25.147, 15.405 30.147, 13.665 33.820 C 10.799 39.869, 10.500 41.402, 10.500 50.052 C 10.500 59.067, 10.710 60.028, 14.235 67.160 C 18.733 76.262, 24.523 81.931, 33.820 86.335 C 39.861 89.197, 41.409 89.500, 50 89.500 C 58.591 89.500, 60.139 89.197, 66.180 86.335 C 75.477 81.931, 81.267 76.262, 85.765 67.160 C 89.294 60.020, 89.500 59.075, 89.500 50 C 89.500 40.925, 89.294 39.980, 85.765 32.840 C 79.008 19.167, 67.003 11.144, 52.249 10.442 C 47.987 10.239, 42.753 10.512, 40.618 11.048 M 39.265 25.135 C 38.713 25.687, 37.433 26.260, 36.421 26.409 C 35.280 26.576, 34.253 27.942, 33.719 30.005 C 32.194 35.888, 37.153 40.182, 43.602 38.564 C 44.921 38.233, 46 37.328, 46 36.552 C 46 35.777, 46.662 34.480, 47.472 33.671 C 48.768 32.375, 48.768 32.053, 47.472 30.977 C 46.662 30.305, 46 28.835, 46 27.711 C 46 26.587, 45.698 25.968, 45.330 26.337 C 44.961 26.705, 43.672 26.360, 42.465 25.569 C 40.995 24.606, 39.938 24.462, 39.265 25.135 M 51.712 36.012 C 50.305 37.119, 48.852 39.399, 48.482 41.080 C 47.693 44.674, 46.276 45.436, 42.824 44.123 C 34.961 41.134, 30.052 53.424, 37.714 56.916 C 42.324 59.016, 48 54.931, 48 49.512 C 48 47.456, 49.317 46.988, 52.586 47.883 C 58.999 49.641, 64.318 44.595, 61.986 38.966 C 60.996 36.577, 57.416 34, 55.088 34 C 54.638 34, 53.119 34.905, 51.712 36.012 M 67.973 44.346 C 65.658 45.519, 65.043 46.394, 63.148 51.208 C 62.145 53.754, 61.797 53.882, 57.291 53.349 C 51.941 52.718, 50.080 53.988, 48.283 59.500 C 47.356 62.343, 47.059 62.482, 42.609 62.163 C 39.766 61.959, 37.298 62.338, 36.353 63.122 C 31.050 67.523, 34.039 76, 40.893 76 C 43.321 76, 46.851 72.455, 47.642 69.222 C 48.515 65.653, 49.692 64.997, 53.092 66.182 C 57.273 67.639, 61.182 65.409, 62.469 60.832 C 63.839 55.957, 64.430 55.521, 67.784 56.911 C 73.846 59.421, 79.446 53.905, 76.951 47.881 C 75.527 44.444, 71.165 42.727, 67.973 44.346 " stroke="none" fill="black" fill-rule="evenodd"/>
</svg>