<svg xmlns="http://www.w3.org/2000/svg" width="100" height="100" viewBox="0 0 100 100" version="1.1">
	<path d="M 29.803 30.266 L 10.107 50.301 29.703 69.401 C 40.481 79.905, 49.615 88.500, 50 88.500 C 50.385 88.500, 59.518 79.906, 70.296 69.402 L 89.891 50.303 69.855 30.152 C 58.836 19.068, 49.748 10.052, 49.660 10.115 C 49.572 10.178, 40.637 19.246, 29.803 30.266 M 36.796 33.094 L 24.171 47.500 32.755 47.791 L 41.340 48.083 45.670 43.833 L 50 39.584 54.288 43.792 L 58.576 48 67.394 48 L 76.212 48 68.998 39.997 C 65.030 35.596, 59.002 29.001, 55.602 25.341 L 49.421 18.687 36.796 33.094 " stroke="none" fill="black" fill-rule="evenodd"/>
</svg>