<svg xmlns="http://www.w3.org/2000/svg" width="100" height="100" viewBox="0 0 100 100" version="1.1">
	<path d="M 48.750 12.878 C 46.485 15.576, 46 17.117, 46 21.619 L 46 27.085 39.750 30.042 C 35.299 32.148, 31.989 32.999, 28.250 32.999 C 22.447 33, 21.912 33.660, 25.250 36.701 C 31.878 42.737, 36.427 42.514, 51.024 35.433 C 62.273 29.976, 62.628 29.878, 69 30.485 L 75.500 31.103 71.608 27.114 C 65.222 20.569, 62.067 19.969, 53.295 23.633 C 52.434 23.993, 52.006 22.063, 51.795 16.870 L 51.500 9.603 48.750 12.878 M 45.500 44.657 C 30.394 51.841, 29.102 52.271, 22.373 52.355 L 15.245 52.444 16.735 54.718 C 19.493 58.928, 26.102 63, 30.174 63 C 34.632 63, 42.925 59.979, 55.887 53.634 C 67.041 48.174, 70.511 47.388, 76.639 48.931 C 79.171 49.568, 81.498 49.835, 81.809 49.524 C 82.701 48.633, 73.988 40.222, 70.418 38.528 C 68.647 37.688, 65.916 37.011, 64.349 37.024 C 62.782 37.038, 54.300 40.473, 45.500 44.657 M 45.500 64.741 C 35.822 69.301, 32.484 70.405, 28.250 70.447 C 25.362 70.476, 23 70.791, 23 71.146 C 23 72.488, 30.147 77.999, 32.727 78.646 C 34.349 79.053, 37.273 78.662, 40.093 77.661 C 42.664 76.747, 45.046 76, 45.384 76 C 45.723 76, 46 78.925, 46 82.500 C 46 86.075, 46.380 89, 46.845 89 C 49.306 89, 51.434 84.542, 51.813 78.591 C 52.212 72.330, 52.238 72.283, 56.357 70.282 C 62.302 67.394, 66.336 66.723, 70.628 67.908 C 72.696 68.479, 74.605 68.728, 74.871 68.462 C 75.601 67.732, 69.871 62.015, 66.800 60.411 C 62.193 58.004, 57.983 58.860, 45.500 64.741 " stroke="none" fill="black" fill-rule="evenodd"/>
</svg>