<svg xmlns="http://www.w3.org/2000/svg" width="226.777" height="226.777" viewBox="0 0 226.777 226.777"><path d="M31.902 154.305a6.196 6.196 0 0 0-3.091.836c-1.43.828-2.453 2.164-2.878 3.762s-.205 3.265.625 4.695a6.214 6.214 0 0 0 5.365 3.089 6.173 6.173 0 0 0 3.091-.833 6.197 6.197 0 0 0 2.256-8.457 6.226 6.226 0 0 0-5.368-3.092zm87.579-134.948a6.197 6.197 0 0 0-6.188-6.188 6.197 6.197 0 0 0-6.189 6.188 6.194 6.194 0 0 0 6.189 6.189 6.193 6.193 0 0 0 6.188-6.189zm75.609 53.826a6.158 6.158 0 0 0 3.042-.809 6.138 6.138 0 0 0 2.913-3.734 6.145 6.145 0 0 0-.583-4.702 6.208 6.208 0 0 0-5.392-3.136 6.192 6.192 0 0 0-5.373 9.243 6.21 6.21 0 0 0 5.393 3.138zM34.771 61.287a6.175 6.175 0 0 0-3.064-.818 6.215 6.215 0 0 0-5.382 3.114 6.147 6.147 0 0 0-.602 4.7 6.143 6.143 0 0 0 2.896 3.746 6.183 6.183 0 0 0 3.066.821 6.214 6.214 0 0 0 5.382-3.116 6.199 6.199 0 0 0-2.296-8.447zm162.839 94.181a6.16 6.16 0 0 0-3.112-.848 6.222 6.222 0 0 0-5.354 3.07c-1.72 2.945-.723 6.742 2.224 8.466a6.18 6.18 0 0 0 3.11.845 6.22 6.22 0 0 0 5.354-3.069 6.145 6.145 0 0 0 .644-4.694 6.158 6.158 0 0 0-2.866-3.77zm-90.526 51.951c0 1.651.644 3.206 1.812 4.376s2.724 1.813 4.375 1.813h.003a6.192 6.192 0 0 0 6.187-6.185c.001-3.414-2.774-6.192-6.187-6.192s-6.19 2.774-6.19 6.188z"/><path d="M204.251 144.095a19.543 19.543 0 0 0-2.314-1.133V85.074a19.608 19.608 0 0 0 2.695-1.242c9.299-5.277 12.563-17.092 7.286-26.39-5.274-9.3-17.091-12.564-26.39-7.286-.699.394-1.352.841-1.981 1.305l-51.089-29.497c.114-.855.195-1.72.195-2.607 0-10.69-8.668-19.357-19.36-19.357-10.691 0-19.359 8.667-19.359 19.357 0 .89.082 1.753.196 2.61L43.396 51.256a19.481 19.481 0 0 0-2.079-1.396c-9.278-5.313-21.107-2.102-26.42 7.178-5.313 9.277-2.102 21.105 7.178 26.418.839.479 1.704.867 2.578 1.211v57.906c-.826.336-1.645.71-2.438 1.171-9.252 5.355-12.414 17.197-7.056 26.45 5.355 9.254 17.199 12.414 26.453 7.056.851-.491 1.632-1.058 2.379-1.652l50.158 28.958c-.14.935-.235 1.886-.235 2.859-.002 10.69 8.663 19.362 19.355 19.362 10.689.003 19.36-8.662 19.361-19.354 0-.969-.094-1.914-.229-2.845l49.859-28.787c.77.63 1.579 1.22 2.465 1.737 9.231 5.391 21.087 2.28 26.479-6.954 5.392-9.231 2.279-21.088-6.953-26.479zm2.98 24.158a14.816 14.816 0 0 1-12.754 7.317c-2.603 0-5.174-.697-7.432-2.016-5.738-3.352-8.372-10.006-6.909-16.165l-23.454-13.698c-4.741 4.791-11.311 7.762-18.565 7.762a25.91 25.91 0 0 1-9.735-1.873 37.55 37.55 0 0 1-10.813 1.803l-.008 41.918c6.053 1.845 10.472 7.477 10.469 14.122 0 8.134-6.618 14.754-14.755 14.754a14.665 14.665 0 0 1-10.438-4.324 14.658 14.658 0 0 1-4.322-10.438c.001-6.646 4.422-12.275 10.477-14.114l.009-42.73a36.995 36.995 0 0 1-9.228-3.288 31.45 31.45 0 0 1-6.093.592c-7.387 0-14.172-2.583-19.538-6.871l-27.864 16.13c1.439 6.163-1.22 12.809-6.972 16.137a14.756 14.756 0 0 1-7.384 1.986 14.806 14.806 0 0 1-12.781-7.364 14.66 14.66 0 0 1-1.487-11.197 14.667 14.667 0 0 1 6.864-8.97 14.756 14.756 0 0 1 7.383-1.987c3.781 0 7.362 1.479 10.062 3.99L68.102 134.6c-3.629-5.118-5.784-11.351-5.784-18.087 0-8.629 3.513-16.449 9.172-22.124L41.797 77.382c-2.705 2.542-6.305 4.037-10.112 4.037-2.561 0-5.093-.677-7.323-1.954-3.419-1.958-5.875-5.131-6.908-8.936s-.524-7.784 1.436-11.204A14.802 14.802 0 0 1 31.707 51.9c2.56 0 5.091.675 7.322 1.952 5.767 3.303 8.457 9.936 7.047 16.103L79.02 88.823a31.116 31.116 0 0 1 13.963-3.667c4.647-3.85 10.153-6.483 16.024-7.744V33.477c-6.054-1.841-10.473-7.472-10.473-14.12 0-8.137 6.62-14.757 14.758-14.757 8.136 0 14.756 6.62 14.756 14.757 0 6.648-4.419 12.279-10.473 14.12v43.101c11.279.221 21.376 5.372 28.109 13.51l34.999-19.856c-1.386-6.174 1.331-12.794 7.112-16.074a14.762 14.762 0 0 1 7.272-1.925 14.79 14.79 0 0 1 12.845 7.478 14.66 14.66 0 0 1 1.389 11.209 14.646 14.646 0 0 1-6.943 8.907 14.753 14.753 0 0 1-7.271 1.925c-3.833 0-7.45-1.512-10.158-4.079L150.35 97.292a37.161 37.161 0 0 1 2.486 6.396 26.085 26.085 0 0 1 11.429 21.616c0 4.072-.963 7.917-2.631 11.358l22.845 13.341c2.695-2.489 6.262-3.952 10.019-3.952 2.605 0 5.175.696 7.433 2.018a14.653 14.653 0 0 1 6.831 8.992 14.66 14.66 0 0 1-1.531 11.192z"/><path d="M142.703 111.317a24.84 24.84 0 0 0-.339-2.264c-.101-.525-.236-1.041-.369-1.556-.049-.188-.087-.379-.139-.565a26.1 26.1 0 0 0-.636-1.931l-.028-.081a26.02 26.02 0 0 0-5.717-9.042h-.001a25.873 25.873 0 0 0-1.768-1.656c-.023-.021-.046-.038-.068-.059a26.595 26.595 0 0 0-1.853-1.434c-.038-.028-.077-.054-.116-.08a26.092 26.092 0 0 0-1.944-1.23c-.051-.03-.103-.058-.154-.086a25.765 25.765 0 0 0-2.044-1.037l-.163-.073a26.373 26.373 0 0 0-2.161-.846c-.05-.015-.1-.034-.148-.05a25.631 25.631 0 0 0-2.295-.649l-.111-.026a26.01 26.01 0 0 0-2.496-.442 25.622 25.622 0 0 0-3.32-.238c-3.262 0-6.368.634-9.241 1.733-.236.092-.471.188-.705.285-.664.276-1.312.578-1.946.908-.341.175-.683.35-1.015.54a26.814 26.814 0 0 0-2.226 1.443c-.215.152-.434.297-.642.459a26.485 26.485 0 0 0-2.161 1.861 26.15 26.15 0 0 0-1.653 1.71 19.823 19.823 0 0 0-3.563-.336c-.35 0-.69.035-1.036.051a19.847 19.847 0 0 0-12.422 5.207c-.015.016-.031.029-.048.045a19.986 19.986 0 0 0-4.156 5.403c-.034.067-.062.135-.095.198a19.985 19.985 0 0 0-.79 1.759c-.073.185-.138.372-.206.562a19.655 19.655 0 0 0-.477 1.517c-.063.231-.124.458-.177.692a19.548 19.548 0 0 0-.289 1.562c-.034.224-.077.442-.103.67a20.286 20.286 0 0 0-.139 2.271c0 .641.037 1.269.096 1.893.02.225.058.441.086.663.05.391.104.778.177 1.159.052.274.114.544.177.815a19.874 19.874 0 0 0 .517 1.826c.083.245.173.487.265.725.129.339.258.674.403 1.001.064.142.136.279.203.419a19.983 19.983 0 0 0 9.594 9.553 19.367 19.367 0 0 0 1.988.803c.619.213 1.248.391 1.891.542.073.016.142.039.216.053.586.13 1.185.231 1.789.309.123.016.242.042.366.055.713.076 1.436.123 2.169.123 2.744 0 5.358-.556 7.738-1.559a27.02 27.02 0 0 0 1.738 1.177c.063.039.13.073.193.112.547.332 1.104.646 1.674.939.016.01.034.016.051.026a25.737 25.737 0 0 0 11.758 2.841c2.339 0 4.597-.33 6.752-.909.049-.013.095-.034.145-.046.901-.248 1.79-.529 2.65-.87a24.698 24.698 0 0 0 2.703-1.245 14.642 14.642 0 0 0 9.034 3.112 14.978 14.978 0 0 0 2.444-.218 14.631 14.631 0 0 0 1.869-.425 14.557 14.557 0 0 0 1.83-.71c.103-.048.202-.097.303-.146a14.527 14.527 0 0 0 1.657-.936c.003-.002.006-.005.01-.005a14.77 14.77 0 0 0 5.51-6.705s0-.004.002-.004c.352-.856.627-1.753.812-2.683.018-.086.024-.175.04-.263.068-.379.134-.762.173-1.157.049-.482.075-.974.075-1.472 0-6.532-4.254-12.058-10.138-13.988z"/></svg>