<svg xmlns="http://www.w3.org/2000/svg" width="226.777" height="226.777" viewBox="0 0 226.777 226.777"><path d="M113.389 0C50.767 0 .001 50.766.001 113.389c0 62.622 50.766 113.388 113.389 113.388s113.388-50.766 113.388-113.388C226.777 50.766 176.012 0 113.389 0zm64.699 135.255c6.573 3.838 8.79 12.28 4.951 18.854-3.84 6.575-12.28 8.79-18.855 4.951a13.842 13.842 0 0 1-1.753-1.237l-35.504 20.498c.097.662.164 1.336.164 2.026 0 7.612-6.174 13.782-13.787 13.78-7.613 0-13.782-6.175-13.782-13.787 0-.694.069-1.37.167-2.036l-35.714-20.619c-.532.423-1.088.828-1.694 1.176-6.589 3.816-15.023 1.566-18.836-5.024-3.815-6.588-1.563-15.02 5.024-18.833a14.162 14.162 0 0 1 1.737-.834V92.938a13.764 13.764 0 0 1-1.836-.862c-6.607-3.782-8.894-12.206-5.111-18.811 3.783-6.607 12.206-8.895 18.812-5.11.524.299 1.011.636 1.48.991l36.125-20.855a13.86 13.86 0 0 1-.139-1.857c0-7.611 6.171-13.785 13.784-13.785s13.785 6.174 13.785 13.785c0 .632-.058 1.248-.141 1.857l36.381 21.003c.448-.332.912-.649 1.41-.929 6.62-3.757 15.035-1.436 18.79 5.188 3.758 6.622 1.434 15.032-5.188 18.79-.625.355-1.269.637-1.92.885v41.218c.56.235 1.112.493 1.65.809z"/><path d="M171.564 90.864c1.808 0 3.599-.475 5.178-1.372a10.432 10.432 0 0 0 4.944-6.343 10.428 10.428 0 0 0-.99-7.979 10.528 10.528 0 0 0-9.146-5.326c-1.809 0-3.6.475-5.18 1.372-4.114 2.335-6.05 7.048-5.063 11.444L136.386 96.8c-4.794-5.796-11.983-9.464-20.016-9.621V56.49c4.311-1.311 7.458-5.321 7.458-10.055 0-5.792-4.714-10.508-10.508-10.508-5.795 0-10.509 4.716-10.509 10.508 0 4.734 3.146 8.745 7.458 10.055v31.284c-4.18.897-8.1 2.772-11.409 5.514a22.136 22.136 0 0 0-9.944 2.611L65.46 82.464c1.004-4.392-.912-9.116-5.019-11.467a10.499 10.499 0 0 0-5.212-1.39c-3.763 0-7.26 2.027-9.127 5.286a10.44 10.44 0 0 0-1.023 7.978 10.43 10.43 0 0 0 4.92 6.362 10.5 10.5 0 0 0 5.213 1.392c2.711 0 5.274-1.064 7.201-2.875l21.144 12.108c-4.03 4.042-6.531 9.612-6.531 15.754a22.19 22.19 0 0 0 4.119 12.88l-18.612 10.772c-1.923-1.787-4.474-2.843-7.165-2.843a10.52 10.52 0 0 0-5.258 1.416 10.44 10.44 0 0 0-4.888 6.387 10.44 10.44 0 0 0 1.059 7.974 10.546 10.546 0 0 0 9.101 5.244c1.84 0 3.659-.489 5.257-1.417 4.096-2.367 5.989-7.1 4.965-11.489l19.841-11.484c3.82 3.052 8.652 4.893 13.913 4.893 1.469 0 2.918-.142 4.338-.422a26.155 26.155 0 0 0 6.569 2.341l-.006 30.426c-4.31 1.311-7.458 5.318-7.459 10.051 0 2.806 1.092 5.448 3.077 7.433a10.447 10.447 0 0 0 7.432 3.079c5.793 0 10.507-4.716 10.507-10.505.001-4.732-3.145-8.743-7.455-10.058l.007-29.848a26.734 26.734 0 0 0 7.698-1.282 18.45 18.45 0 0 0 6.932 1.332c5.166 0 9.844-2.114 13.22-5.525l16.7 9.754c-1.042 4.384.833 9.125 4.921 11.51a10.501 10.501 0 0 0 5.292 1.435c3.725 0 7.203-1.997 9.081-5.208a10.444 10.444 0 0 0 1.089-7.971 10.439 10.439 0 0 0-4.864-6.402 10.505 10.505 0 0 0-5.292-1.436c-2.676 0-5.215 1.04-7.133 2.813l-16.268-9.498a18.502 18.502 0 0 0 1.874-8.09 18.578 18.578 0 0 0-8.137-15.391 26.84 26.84 0 0 0-1.772-4.554l24.624-13.97a10.52 10.52 0 0 0 7.231 2.905zm-2.181-14.343a4.388 4.388 0 0 1 2.168-.576c1.586 0 3.058.856 3.838 2.233a4.38 4.38 0 0 1 .416 3.35 4.374 4.374 0 0 1-2.073 2.658 4.382 4.382 0 0 1-2.167.574 4.424 4.424 0 0 1-3.841-2.233 4.409 4.409 0 0 1 1.659-6.006zM59.045 82.304a4.418 4.418 0 0 1-3.833 2.219c-.76 0-1.515-.201-2.183-.584a4.374 4.374 0 0 1-2.062-2.667 4.373 4.373 0 0 1 .429-3.346 4.425 4.425 0 0 1 3.833-2.217c.761 0 1.516.201 2.181.583a4.412 4.412 0 0 1 1.635 6.012zm-1.463 68.444a4.398 4.398 0 0 1-2.201.592 4.421 4.421 0 0 1-3.819-2.197 4.378 4.378 0 0 1-.446-3.345 4.376 4.376 0 0 1 2.05-2.677 4.402 4.402 0 0 1 2.201-.596c1.571 0 3.036.844 3.821 2.2a4.412 4.412 0 0 1-1.606 6.023zm109.749-5.814a4.427 4.427 0 0 1 3.813-2.185c.774 0 1.54.207 2.216.603a4.384 4.384 0 0 1 2.04 2.684 4.384 4.384 0 0 1-.458 3.343 4.429 4.429 0 0 1-3.812 2.186 4.4 4.4 0 0 1-2.216-.601 4.415 4.415 0 0 1-1.583-6.03zm-58.416-98.5a4.412 4.412 0 0 1 4.406-4.405 4.412 4.412 0 0 1 4.406 4.405 4.412 4.412 0 0 1-4.406 4.409 4.411 4.411 0 0 1-4.406-4.409zm8.799 133.913a4.408 4.408 0 0 1-4.406 4.402h-.002c-1.176 0-2.283-.456-3.115-1.29s-1.29-1.94-1.29-3.117a4.411 4.411 0 0 1 4.407-4.406 4.412 4.412 0 0 1 4.406 4.411zm23.767-58.474a9.775 9.775 0 0 1-.177 1.873c-.012.063-.017.127-.027.188a10.412 10.412 0 0 1-.58 1.909l-.001.003a10.522 10.522 0 0 1-3.93 4.777c-.376.249-.772.467-1.181.666l-.215.104c-.421.195-.854.368-1.305.508l-.015.002c-.427.129-.868.225-1.314.3a10.541 10.541 0 0 1-1.74.155c-2.427 0-4.655-.83-6.433-2.214a18.035 18.035 0 0 1-3.812 1.505c-.036.009-.068.022-.103.033a18.515 18.515 0 0 1-4.809.646 18.34 18.34 0 0 1-8.372-2.021l-.037-.021a18.235 18.235 0 0 1-1.191-.668c-.044-.028-.092-.054-.138-.08a20.33 20.33 0 0 1-1.237-.838 14.141 14.141 0 0 1-7.054 1.022c-.089-.009-.174-.027-.26-.039a13.682 13.682 0 0 1-1.275-.221c-.052-.009-.102-.025-.153-.037a13.317 13.317 0 0 1-1.382-.399 14.237 14.237 0 0 1-8.213-7.362c-.048-.1-.098-.197-.143-.297-.104-.232-.195-.473-.288-.714a13.381 13.381 0 0 1-.557-1.817 13.89 13.89 0 0 1-.126-.58c-.052-.271-.09-.547-.126-.825-.021-.158-.047-.313-.061-.473a13.967 13.967 0 0 1-.069-1.348c0-.548.039-1.085.098-1.618.02-.162.05-.317.074-.478.055-.375.122-.746.206-1.111.038-.166.083-.328.126-.492.1-.367.212-.728.339-1.08.049-.138.095-.27.146-.4.168-.43.355-.844.563-1.253.023-.045.043-.093.067-.141a14.219 14.219 0 0 1 2.995-3.88 14.117 14.117 0 0 1 8.844-3.708c.246-.011.488-.036.739-.036.866 0 1.711.089 2.536.239.371-.425.768-.828 1.176-1.217l.348-.326c.384-.346.779-.685 1.191-.999.148-.114.305-.22.457-.328.292-.208.589-.413.896-.605.228-.146.457-.287.691-.421.237-.137.48-.259.723-.384.451-.237.913-.452 1.386-.647a18.312 18.312 0 0 1 7.081-1.437c.803 0 1.589.068 2.364.167.015.002.028.002.043.007.587.077 1.165.18 1.733.311l.079.017a17.987 17.987 0 0 1 1.739.498c.525.18 1.039.378 1.541.603l.115.052c.497.226.983.47 1.456.738.036.021.073.039.108.062.476.272.938.562 1.385.875.028.019.056.037.082.058.456.322.896.66 1.32 1.021l.049.041c.437.374.856.767 1.257 1.177h.003a18.54 18.54 0 0 1 4.09 6.498c.166.454.321.908.453 1.375.038.132.063.27.099.402.095.367.19.733.263 1.107.103.532.186 1.067.24 1.613 4.195 1.377 7.223 5.314 7.223 9.963z"/></svg>