<svg xmlns="http://www.w3.org/2000/svg" width="100" height="100" viewBox="0 0 100 100" version="1.1">
	<path d="M 40.618 11.048 C 34.290 12.638, 25.284 17.968, 20.912 22.711 C 18.667 25.147, 15.405 30.147, 13.665 33.820 C 10.799 39.869, 10.500 41.402, 10.500 50.052 C 10.500 59.067, 10.710 60.028, 14.235 67.160 C 18.733 76.262, 24.523 81.931, 33.820 86.335 C 39.861 89.197, 41.409 89.500, 50 89.500 C 58.591 89.500, 60.139 89.197, 66.180 86.335 C 75.477 81.931, 81.267 76.262, 85.765 67.160 C 89.294 60.020, 89.500 59.075, 89.500 50 C 89.500 40.925, 89.294 39.980, 85.765 32.840 C 79.008 19.167, 67.003 11.144, 52.249 10.442 C 47.987 10.239, 42.753 10.512, 40.618 11.048 M 46.428 14.355 C 43.074 15.882, 41.096 18.179, 34.714 27.956 C 31.147 33.422, 29.427 34.989, 23.505 38.168 C 14.637 42.929, 12.662 46.076, 13.346 54.356 C 14.347 66.472, 22.940 78.268, 34.825 83.840 C 39.722 86.135, 41.803 86.500, 50 86.500 C 58.197 86.500, 60.278 86.135, 65.175 83.840 C 73.121 80.115, 79.397 73.970, 83.250 66.144 C 86.228 60.094, 86.500 58.744, 86.500 50 C 86.500 41.256, 86.228 39.906, 83.250 33.856 C 79.417 26.069, 73.081 19.842, 65.428 16.338 C 58.749 13.281, 50.645 12.435, 46.428 14.355 M 38.990 43.510 L 33.568 49 38.990 54.490 L 44.412 59.980 47.206 57.303 L 50 54.626 52.794 57.303 L 55.588 59.980 61.010 54.490 L 66.432 49 61.010 43.510 L 55.588 38.020 52.794 40.697 L 50 43.374 47.206 40.697 L 44.412 38.020 38.990 43.510 " stroke="none" fill="black" fill-rule="evenodd"/>
</svg>