<svg xmlns="http://www.w3.org/2000/svg" width="100" height="100" viewBox="0 0 100 100" version="1.1">
	<path d="M 31.250 17.819 L 13 28.458 13 49.998 L 13 71.539 31.500 82.219 L 50 92.900 68.500 82.219 L 87 71.539 87 49.986 L 87 28.433 68.856 17.967 C 58.877 12.210, 50.439 7.428, 50.106 7.340 C 49.773 7.252, 41.288 11.967, 31.250 17.819 M 33.750 22.183 L 18 31.289 18 50.002 L 18 68.715 34 77.907 L 50 87.099 66 77.907 L 82 68.715 82 50 L 82 31.285 66.087 22.142 C 57.334 17.114, 50.022 13.017, 49.837 13.039 C 49.651 13.060, 42.413 17.175, 33.750 22.183 M 49 24.434 C 49 26.944, 48.848 27, 42 27 L 35 27 35 32.296 L 35 37.592 42.108 43.956 L 49.215 50.320 42.108 56.743 L 35 63.166 35 68.583 L 35 74 42 74 C 48.333 74, 49 74.190, 49 76 C 49 77.556, 49.667 78, 52 78 C 54.333 78, 55 77.556, 55 76 C 55 74.222, 55.667 74, 61 74 L 67 74 67 69.500 L 67 65 56.775 65 L 46.550 65 53.777 57.725 L 61.003 50.450 54.002 43.502 C 50.151 39.680, 47 36.204, 47 35.777 C 47 35.350, 51.500 35, 57 35 L 67 35 67 31 L 67 27 61.070 27 C 55.681 27, 55.110 26.794, 54.820 24.750 C 54.591 23.139, 53.719 22.410, 51.750 22.184 C 49.382 21.911, 49 22.224, 49 24.434 " stroke="none" fill="black" fill-rule="evenodd"/>
</svg>