<svg xmlns="http://www.w3.org/2000/svg" width="100" height="100" viewBox="0 0 100 100" version="1.1">
	<path d="M 47.280 29.250 C 45.606 32.085, 44.422 32.720, 37.993 34.228 C 29.005 36.336, 17.318 41.765, 10.199 47.140 L 4.898 51.142 9.199 54.552 C 17.761 61.341, 30.056 66.583, 44.123 69.441 C 45.829 69.788, 47.183 71.028, 47.995 72.987 C 48.681 74.644, 49.583 76, 50 76 C 50.417 76, 51.319 74.644, 52.005 72.987 C 52.817 71.028, 54.171 69.788, 55.877 69.441 C 69.944 66.583, 82.239 61.341, 90.801 54.552 L 95.102 51.142 89.801 47.140 C 82.682 41.765, 70.995 36.336, 62.007 34.228 C 55.578 32.720, 54.394 32.085, 52.720 29.250 C 51.665 27.462, 50.441 26, 50 26 C 49.559 26, 48.335 27.462, 47.280 29.250 M 45 41 C 43.640 43.200, 42.232 45, 41.871 45 C 40.518 45, 40.047 41.781, 41.109 39.797 C 42.157 37.838, 42.023 37.773, 38.355 38.457 C 32.944 39.467, 20.510 44.414, 14.081 48.114 L 8.663 51.233 14.581 54.601 C 23.091 59.443, 43 66.328, 43 64.428 C 43 64.141, 41.204 60.633, 39.008 56.633 C 35.526 50.287, 35.187 49.127, 36.352 47.533 C 37.560 45.882, 38.157 46.629, 42.594 55.339 C 47.281 64.542, 49.082 66.686, 51.085 65.447 C 51.583 65.140, 54.315 60.575, 57.157 55.305 C 61.807 46.679, 62.455 45.901, 63.641 47.524 C 64.784 49.087, 64.429 50.288, 60.980 56.537 C 58.791 60.502, 57 64.017, 57 64.348 C 57 65.285, 62.815 63.951, 70.500 61.252 C 79.131 58.221, 91.077 51.934, 90.372 50.793 C 88.778 48.213, 64.363 38, 59.790 38 C 58.263 38, 58.114 38.345, 58.961 39.928 C 60.027 41.919, 59.417 45, 57.957 45 C 57.501 45, 56.116 43.200, 54.880 41 C 53.165 37.948, 52.020 37, 50.052 37 C 48.121 37, 46.850 38.006, 45 41 " stroke="none" fill="black" fill-rule="evenodd"/>
</svg>