<svg xmlns="http://www.w3.org/2000/svg" width="100" height="100" viewBox="0 0 100 100" version="1.1">
	<path d="M 40.618 11.048 C 34.290 12.638, 25.284 17.968, 20.912 22.711 C 18.667 25.147, 15.405 30.147, 13.665 33.820 C 10.799 39.869, 10.500 41.402, 10.500 50.052 C 10.500 59.067, 10.710 60.028, 14.235 67.160 C 18.733 76.262, 24.523 81.931, 33.820 86.335 C 39.861 89.197, 41.409 89.500, 50 89.500 C 58.591 89.500, 60.139 89.197, 66.180 86.335 C 75.477 81.931, 81.267 76.262, 85.765 67.160 C 89.294 60.020, 89.500 59.075, 89.500 50 C 89.500 40.925, 89.294 39.980, 85.765 32.840 C 79.008 19.167, 67.003 11.144, 52.249 10.442 C 47.987 10.239, 42.753 10.512, 40.618 11.048 M 42.750 14.716 C 39.771 15.167, 39.282 16.167, 41.250 17.780 C 42.156 18.522, 42.995 18.143, 44.297 16.402 C 45.285 15.081, 45.960 14.067, 45.797 14.150 C 45.634 14.232, 44.263 14.487, 42.750 14.716 M 55.844 16.589 C 57.040 18.189, 57.848 18.520, 58.750 17.780 C 60.727 16.159, 60.228 15.260, 57.094 14.801 C 54.247 14.383, 54.222 14.419, 55.844 16.589 M 46.200 18.200 C 43.372 21.028, 45.951 27, 50 27 C 52.233 27, 55 24.434, 55 22.363 C 55 17.769, 49.319 15.081, 46.200 18.200 M 29.410 20.826 C 27.259 22.388, 24.880 24.420, 24.121 25.341 C 22.842 26.894, 22.951 26.906, 25.621 25.514 C 27.205 24.688, 29.971 24.010, 31.769 24.006 C 34.828 24, 34.996 23.823, 34.378 21.250 C 34.016 19.738, 33.629 18.384, 33.519 18.243 C 33.409 18.102, 31.560 19.264, 29.410 20.826 M 36.446 19.087 C 35.416 20.755, 37.733 22.667, 39.113 21.287 C 40.267 20.133, 39.545 18, 38 18 C 37.515 18, 36.816 18.489, 36.446 19.087 M 60.446 19.087 C 59.416 20.755, 61.733 22.667, 63.113 21.287 C 64.267 20.133, 63.545 18, 62 18 C 61.515 18, 60.816 18.489, 60.446 19.087 M 66 19.362 C 66 20.173, 65.727 21.548, 65.393 22.418 C 64.914 23.666, 65.494 24.001, 68.143 24.006 C 69.989 24.010, 72.850 24.715, 74.500 25.575 L 77.500 27.137 74.795 24.311 C 73.307 22.756, 70.720 20.675, 69.045 19.686 C 66.508 18.187, 66 18.133, 66 19.362 M 57.716 23.979 C 57.150 26.142, 57.722 26.463, 59.797 25.146 C 60.846 24.482, 60.821 24.096, 59.669 23.141 C 58.526 22.192, 58.140 22.357, 57.716 23.979 M 39.500 24 C 39.160 24.550, 39.097 25, 39.359 25 C 39.622 25, 40.553 25.275, 41.430 25.611 C 42.596 26.059, 42.857 25.791, 42.404 24.611 C 41.704 22.787, 40.417 22.516, 39.500 24 M 27.418 27.969 C 20.646 30.709, 17.530 41.393, 21.636 47.798 C 25.249 53.434, 33.951 55.628, 40.094 52.451 C 49.136 47.776, 49.136 33.224, 40.094 28.549 C 36.873 26.883, 30.790 26.605, 27.418 27.969 M 59.299 28.900 C 50.722 34.289, 51.072 47.883, 59.906 52.451 C 68.082 56.680, 79.387 51.370, 80.029 43 C 80.490 37.002, 79.860 34.818, 76.665 31.331 C 73.766 28.168, 72.620 27.639, 67.915 27.290 C 63.727 26.980, 61.775 27.344, 59.299 28.900 M 48.359 32.885 C 50.334 36.231, 50.366 36.243, 51.218 33.938 C 51.693 32.657, 52.474 31.133, 52.955 30.554 C 53.542 29.847, 52.599 29.500, 50.096 29.500 L 46.362 29.500 48.359 32.885 M 14.690 42.875 C 14.311 44.731, 14 47.859, 14 49.825 C 14 52.606, 14.267 53.133, 15.200 52.200 C 15.860 51.540, 17.265 51, 18.322 51 C 19.851 51, 20.008 50.715, 19.091 49.609 C 18.456 48.844, 17.361 46.257, 16.658 43.859 L 15.380 39.500 14.690 42.875 M 83.604 42.500 C 83.228 44.150, 82.284 46.737, 81.507 48.250 C 80.226 50.742, 80.258 51, 81.847 51 C 82.811 51, 84.140 51.540, 84.800 52.200 C 85.733 53.133, 85.978 52.411, 85.900 48.950 C 85.845 46.502, 85.460 43.375, 85.044 42 L 84.287 39.500 83.604 42.500 M 49 46.365 C 49 47.116, 48.067 48.916, 46.927 50.365 L 44.855 53 50 53 L 55.145 53 53.073 50.365 C 51.933 48.916, 51 47.116, 51 46.365 C 51 45.614, 50.550 45, 50 45 C 49.450 45, 49 45.614, 49 46.365 M 16.446 54.087 C 15.573 55.499, 17.501 57.427, 18.913 56.554 C 20.499 55.574, 20.243 53, 18.559 53 C 17.766 53, 16.816 53.489, 16.446 54.087 M 80.173 54.659 C 80.594 56.848, 83.500 57.157, 83.500 55.014 C 83.500 54.196, 82.672 53.368, 81.659 53.173 C 80.323 52.916, 79.916 53.323, 80.173 54.659 M 22 55.406 C 22 56.339, 22.702 56.629, 24.085 56.268 C 25.669 55.853, 25.849 55.520, 24.835 54.877 C 22.891 53.645, 22 53.811, 22 55.406 M 75.165 54.877 C 74.151 55.520, 74.331 55.853, 75.915 56.268 C 77.298 56.629, 78 56.339, 78 55.406 C 78 53.811, 77.109 53.645, 75.165 54.877 M 42.832 57.709 C 39.533 59.755, 36 65.853, 36 69.500 C 36 73.241, 39.601 79.333, 42.999 81.340 C 46.602 83.469, 53.398 83.469, 57.001 81.340 C 60.399 79.333, 64 73.241, 64 69.500 C 64 65.759, 60.399 59.667, 57.001 57.660 C 53.420 55.544, 46.281 55.569, 42.832 57.709 M 30.995 58.250 C 31.585 58.938, 32.615 60.286, 33.284 61.247 C 34.395 62.844, 34.647 62.736, 36.203 59.997 L 37.907 57 33.914 57 C 30.814 57, 30.161 57.279, 30.995 58.250 M 63.797 59.997 C 65.353 62.736, 65.605 62.844, 66.716 61.247 C 67.385 60.286, 68.415 58.938, 69.005 58.250 C 69.839 57.279, 69.186 57, 66.086 57 L 62.093 57 63.797 59.997 M 15 58.435 C 15 58.674, 15.513 60.137, 16.140 61.685 L 17.281 64.500 17.960 62 C 18.349 60.570, 18.182 59.185, 17.570 58.765 C 16.376 57.946, 15 57.769, 15 58.435 M 82.430 58.765 C 81.818 59.185, 81.651 60.570, 82.040 62 L 82.719 64.500 83.860 61.685 C 85.450 57.758, 85.060 56.960, 82.430 58.765 M 22.750 60.080 C 20.740 61.251, 20.401 66.001, 22.200 67.800 C 24.216 69.816, 27.837 69.179, 29.592 66.500 C 31.109 64.184, 31.109 63.816, 29.592 61.500 C 27.861 58.858, 25.639 58.397, 22.750 60.080 M 70.557 61.223 C 68.540 64.102, 68.594 65.323, 70.829 67.345 C 74.544 70.707, 79 68.793, 79 63.835 C 79 59.111, 73.276 57.340, 70.557 61.223 M 31.697 69.393 C 31.288 70.434, 31.189 71.522, 31.476 71.810 C 32.389 72.722, 33.191 71.227, 32.809 69.328 C 32.459 67.588, 32.405 67.591, 31.697 69.393 M 67.015 69.750 C 67.007 70.987, 67.450 72, 68 72 C 69.253 72, 69.253 70.939, 68 69 C 67.216 67.787, 67.028 67.931, 67.015 69.750 M 23.171 73.682 C 24.815 75.432, 25.570 75.704, 26.169 74.761 C 27.479 72.697, 27.151 72.249, 23.987 71.785 L 20.973 71.342 23.171 73.682 M 75.750 71.716 C 72.859 72.154, 72.519 72.694, 73.831 74.761 C 74.426 75.698, 75.236 75.377, 76.990 73.511 C 78.287 72.130, 79.158 71.067, 78.924 71.150 C 78.691 71.232, 77.263 71.487, 75.750 71.716 M 29 74 C 27.819 74.730, 27.770 75.170, 28.758 76.158 C 29.724 77.124, 30.267 77.133, 31.200 76.200 C 32.822 74.578, 31.005 72.761, 29 74 M 68.419 74.131 C 67.567 75.510, 69.524 77.412, 70.913 76.554 C 71.511 76.184, 72 75.507, 72 75.048 C 72 73.718, 69.129 72.982, 68.419 74.131 M 32.112 78.110 L 29.771 80.006 35.450 82.606 C 40.869 85.087, 44.510 85.414, 40.032 83.017 C 38.856 82.388, 37.119 80.599, 36.173 79.044 C 34.459 76.225, 34.444 76.222, 32.112 78.110 M 65 76.977 C 65 77.685, 63.328 79.841, 61.285 81.768 C 58.036 84.832, 57.879 85.175, 60.035 84.507 C 62.920 83.613, 70.353 79.948, 69.847 79.670 C 69.656 79.565, 68.487 78.626, 67.250 77.584 C 65.730 76.305, 65 76.108, 65 76.977 " stroke="none" fill="black" fill-rule="evenodd"/>
</svg>