<svg xmlns="http://www.w3.org/2000/svg" width="100" height="100" viewBox="0 0 100 100" version="1.1">
	<path d="M 40.618 11.048 C 34.290 12.638, 25.284 17.968, 20.912 22.711 C 18.667 25.147, 15.405 30.147, 13.665 33.820 C 10.799 39.869, 10.500 41.402, 10.500 50.052 C 10.500 59.067, 10.710 60.028, 14.235 67.160 C 18.733 76.262, 24.523 81.931, 33.820 86.335 C 39.861 89.197, 41.409 89.500, 50 89.500 C 58.591 89.500, 60.139 89.197, 66.180 86.335 C 75.477 81.931, 81.267 76.262, 85.765 67.160 C 89.294 60.020, 89.500 59.075, 89.500 50 C 89.500 40.925, 89.294 39.980, 85.765 32.840 C 79.008 19.167, 67.003 11.144, 52.249 10.442 C 47.987 10.239, 42.753 10.512, 40.618 11.048 M 49.804 32.041 C 45.597 34.262, 41.807 38.916, 40.134 43.912 C 39.505 45.789, 39.123 47.456, 39.284 47.617 C 39.444 47.778, 44.812 48.042, 51.211 48.205 C 61.735 48.472, 63.116 48.299, 65.673 46.398 C 70.794 42.590, 71.293 36.215, 66.799 32.028 C 63.870 29.298, 54.984 29.305, 49.804 32.041 M 37.313 52.132 C 31.367 53.797, 28.408 60.142, 31.163 65.316 C 33.072 68.899, 35.215 69.935, 40.790 69.968 C 49.797 70.022, 56.941 64.824, 59.866 56.088 C 60.495 54.211, 60.894 52.586, 60.755 52.476 C 59.774 51.709, 39.868 51.417, 37.313 52.132 " stroke="none" fill="black" fill-rule="evenodd"/>
</svg>