<?xml version="1.0" standalone="no"?>
<!DOCTYPE svg PUBLIC "-//W3C//DTD SVG 20010904//EN"
 "http://www.w3.org/TR/2001/REC-SVG-20010904/DTD/svg10.dtd">
<svg version="1.0" xmlns="http://www.w3.org/2000/svg"
 width="2000.000000pt" height="2000.000000pt" viewBox="0 0 2000.000000 2000.000000"
 preserveAspectRatio="xMidYMid meet">

<g transform="translate(0.000000,2000.000000) scale(0.100000,-0.100000)"
fill="#000000" stroke="none">
<path d="M9540 19990 c-1130 -56 -2210 -289 -3235 -697 -2407 -959 -4355
-2821 -5425 -5188 -235 -519 -451 -1146 -590 -1710 -558 -2274 -302 -4689 719
-6770 140 -287 264 -516 401 -745 1240 -2071 3181 -3627 5460 -4378 1542 -508
3186 -632 4803 -361 2634 440 5009 1950 6543 4159 1705 2456 2220 5550 1404
8435 -966 3411 -3707 6079 -7145 6955 -599 153 -1165 242 -1845 290 -198 15
-876 20 -1090 10z m3110 -6187 c311 -106 438 -466 262 -739 -69 -106 -187
-187 -310 -213 -37 -8 -550 -11 -1752 -11 -1147 0 -1724 -3 -1777 -11 -366
-50 -686 -247 -890 -549 -84 -124 -166 -332 -194 -490 -21 -118 -16 -335 10
-459 108 -512 512 -900 1027 -986 87 -14 168 -16 644 -12 391 3 565 8 617 17
58 11 83 11 125 1 29 -7 158 -16 287 -21 384 -16 554 -45 821 -142 614 -222
1126 -743 1340 -1364 89 -257 123 -469 123 -749 -1 -205 -16 -334 -59 -514
-197 -807 -820 -1442 -1616 -1645 -291 -75 -146 -70 -2083 -73 -1272 -3 -1758
-1 -1808 8 -238 39 -407 241 -407 484 0 189 93 345 260 434 83 44 171 61 327
61 77 0 134 4 138 10 8 13 205 13 205 0 0 -7 484 -10 1513 -8 l1512 3 100 27
c243 66 427 169 590 333 655 654 405 1766 -467 2073 -192 68 -135 65 -1198 72
-927 6 -970 7 -1085 28 -250 44 -422 100 -630 202 -677 333 -1132 957 -1240
1705 -21 142 -24 446 -6 575 33 239 104 487 193 680 170 364 456 695 799 923
320 212 690 338 1078 367 58 4 867 7 1796 6 l1690 -1 65 -22z m-497 -990 c-29
-2 -77 -2 -105 0 -29 2 -6 3 52 3 58 0 81 -1 53 -3z m27 -33 c0 -6 -42 -10
-106 -10 -67 0 -103 4 -99 10 3 6 50 10 106 10 59 0 99 -4 99 -10z m69 -46 c2
-2 -90 -3 -205 -2 -157 1 -188 3 -124 8 80 6 320 2 329 -6z m-74 -33 c41 -5
-9 -8 -155 -8 -156 0 -194 2 -137 7 43 4 81 11 85 15 7 7 83 2 207 -14z m-81
-36 c-4 -9 -20 -15 -38 -16 -30 -1 -30 -1 -6 -9 16 -5 -14 -8 -80 -8 -71 1
-94 3 -70 8 33 7 33 7 6 9 -24 1 -27 3 -16 16 10 11 36 15 111 15 83 0 97 -2
93 -15z m-44 -60 c-9 -11 -35 -15 -106 -15 -77 0 -94 3 -94 15 0 12 18 15 106
15 94 0 105 -2 94 -15z m-22 -38 c-76 -6 -152 -6 -215 0 -91 9 -82 10 117 10
213 0 214 0 98 -10z m-26 -40 c-73 -6 -148 -6 -215 0 -96 9 -90 10 113 10 210
0 212 0 102 -10z m-80 -39 c-41 -7 -80 -6 -110 0 -41 8 -34 10 63 10 108 -1
109 -1 47 -10z m73 -28 c39 -4 -15 -7 -155 -7 -129 0 -189 3 -150 7 90 9 233
9 305 0z m-147 -37 c-15 -2 -42 -2 -60 0 -18 2 -6 4 27 4 33 0 48 -2 33 -4z
m5 -40 c-29 -2 -78 -2 -110 0 -32 2 -8 3 52 3 61 0 87 -1 58 -3z m-8 -33 c19
-5 -7 -8 -75 -8 -68 0 -94 3 -75 8 17 4 50 8 75 8 25 0 59 -4 75 -8z m-67 -37
c-16 -2 -40 -2 -55 0 -16 2 -3 4 27 4 30 0 43 -2 28 -4z m-10 -40 c-26 -2 -71
-2 -100 0 -29 2 -8 3 47 3 55 0 79 -1 53 -3z m24 -36 c-73 -6 -148 -6 -210 0
-90 9 -82 10 113 10 207 0 208 0 97 -10z m-14 -34 c-60 -2 -156 -2 -215 0 -60
1 -11 3 107 3 118 0 167 -2 108 -3z m-38 -33 c0 -6 -42 -10 -106 -10 -67 0
-103 4 -99 10 3 6 50 10 106 10 59 0 99 -4 99 -10z m25 -40 c39 -4 -15 -7
-155 -7 -126 0 -190 3 -155 7 83 9 238 9 310 0z m-125 -30 c0 -5 35 -11 78
-13 42 -1 -20 -3 -138 -3 -118 0 -176 2 -127 3 48 2 87 8 87 13 0 6 23 10 50
10 28 0 50 -4 50 -10z m-42 -37 c-16 -2 -40 -2 -55 0 -16 2 -3 4 27 4 30 0 43
-2 28 -4z m30 -20 c-21 -2 -38 -8 -38 -14 0 -5 -23 -9 -51 -9 -28 0 -48 4 -44
9 3 5 -7 12 -22 14 -16 2 22 4 82 4 61 0 93 -2 73 -4z m-12 -48 c-11 -11 -39
-15 -110 -15 -81 0 -94 2 -90 15 5 12 27 15 111 15 93 0 103 -2 89 -15z m82
-31 c-7 -6 -400 -6 -406 1 -3 3 88 5 203 5 115 0 206 -2 203 -6z m-131 -47
c-71 -6 -144 -6 -210 0 -97 9 -91 10 108 10 204 0 207 0 102 -10z m-74 -34
c-29 -2 -78 -2 -110 0 -32 2 -8 3 52 3 61 0 87 -1 58 -3z m22 -33 c-4 -6 -52
-10 -113 -10 -73 0 -102 3 -92 10 20 13 213 13 205 0z m-85 -40 c0 -5 -22 -10
-50 -10 -27 0 -50 5 -50 10 0 6 23 10 50 10 28 0 50 -4 50 -10z m-42 -37 c-16
-2 -40 -2 -55 0 -16 2 -3 4 27 4 30 0 43 -2 28 -4z m-8 -33 c0 -5 -23 -10 -51
-10 -31 0 -48 4 -44 10 3 6 26 10 51 10 24 0 44 -4 44 -10z m-42 -37 c-16 -2
-40 -2 -55 0 -16 2 -3 4 27 4 30 0 43 -2 28 -4z m47 -33 c-3 -6 -50 -10 -106
-10 -64 0 -98 4 -94 10 3 6 50 10 106 10 64 0 98 -4 94 -10z m-17 -37 c-60 -2
-156 -2 -215 0 -60 1 -11 3 107 3 118 0 167 -2 108 -3z m17 -33 c39 -5 -12 -7
-150 -7 -124 0 -185 3 -150 7 83 9 228 9 300 0z m-75 -40 c0 -6 -42 -10 -106
-10 -67 0 -103 4 -99 10 3 6 50 10 106 10 59 0 99 -4 99 -10z m-25 -29 c-3 -6
17 -12 47 -14 29 -2 -41 -4 -157 -4 -237 -1 -247 4 -35 16 80 4 146 9 148 10
2 0 1 -3 -3 -8z m-55 -40 c-26 -4 -13 -7 50 -11 51 -4 -2 -6 -135 -6 -135 0
-185 2 -130 5 53 4 80 9 65 12 -14 4 22 6 80 6 58 0 89 -3 70 -6z m-72 -38
c-16 -2 -40 -2 -55 0 -16 2 -3 4 27 4 30 0 43 -2 28 -4z m85 -20 c-51 -2 -93
-8 -93 -13 0 -6 -22 -10 -50 -10 -27 0 -50 4 -50 10 0 5 -35 11 -77 13 -43 1
21 3 142 3 121 0 178 -2 128 -3z m-106 -46 c-39 -6 -76 -6 -110 0 -48 10 -43
10 58 10 105 0 108 0 52 -10z m26 -40 c-72 -6 -150 -6 -215 0 -97 9 -90 10
112 10 209 0 212 0 103 -10z m-35 -40 c-76 -6 -152 -6 -215 0 -91 9 -82 10
117 10 213 0 214 0 98 -10z m27 -27 c40 -5 -9 -7 -145 -7 -119 0 -182 3 -150
7 75 9 222 9 295 0z m-80 -40 c-3 -6 -50 -10 -106 -10 -64 0 -98 4 -94 10 3 6
50 10 106 10 64 0 98 -4 94 -10z m-72 -37 c-29 -2 -77 -2 -105 0 -29 2 -6 3
52 3 58 0 81 -1 53 -3z m-31 -36 c-42 -7 -76 -6 -105 0 -37 9 -29 11 63 10
l105 0 -63 -10z m-14 -34 c-26 -2 -71 -2 -100 0 -29 2 -8 3 47 3 55 0 79 -1
53 -3z m-33 -33 c-3 -5 -29 -10 -56 -10 -31 0 -48 4 -44 10 3 6 29 10 56 10
31 0 48 -4 44 -10z m25 -40 c-20 -13 -200 -13 -200 0 0 6 42 10 108 10 73 0
102 -3 92 -10z m79 -36 c2 -2 -90 -3 -205 -2 -157 1 -188 3 -124 8 80 6 320 2
329 -6z m-79 -34 c43 -4 -8 -7 -150 -7 -125 0 -190 3 -155 7 82 9 226 9 305 0z
m-111 -26 c63 -13 28 -24 -76 -24 -66 0 -103 4 -97 9 17 17 120 25 173 15z m5
-49 c-5 -12 -27 -15 -111 -15 -93 0 -104 2 -93 15 10 11 36 15 111 15 83 0 97
-2 93 -15z m-54 -35 c-28 -6 -17 -8 50 -11 80 -3 82 -3 23 -6 -35 -2 -63 -8
-63 -13 0 -6 -45 -10 -106 -10 -63 0 -103 4 -99 9 3 6 -17 12 -47 14 -39 2
-28 4 37 6 63 2 82 5 65 11 -16 5 11 8 75 8 69 -1 89 -3 65 -8z m18 -57 c-49
-2 -88 -8 -88 -13 0 -12 -97 -13 -104 -1 -3 4 -33 9 -68 10 -34 1 -64 3 -66 6
-3 3 89 4 204 3 115 -1 170 -4 122 -5z m-110 -45 c-38 -7 -74 -7 -105 0 -43 9
-38 10 57 10 101 -1 103 -1 48 -10z m17 -38 c-3 -6 -48 -10 -101 -10 -56 0
-94 4 -94 10 0 6 40 10 101 10 64 0 98 -4 94 -10z m-12 -37 c-56 -2 -151 -2
-210 0 -59 1 -13 3 102 3 116 0 164 -2 108 -3z m-53 -33 c16 -5 -14 -8 -80 -8
-71 1 -94 3 -70 8 47 10 119 10 150 0z m-5 -40 c-4 -6 -52 -10 -113 -10 -73 0
-102 3 -92 10 20 13 213 13 205 0z m-25 -30 c0 -6 -40 -10 -101 -10 -64 0 -98
4 -94 10 3 6 48 10 101 10 56 0 94 -4 94 -10z m-30 -40 c0 -6 -40 -10 -101
-10 -64 0 -98 4 -94 10 3 6 48 10 101 10 56 0 94 -4 94 -10z m-67 -37 c-29 -2
-77 -2 -105 0 -29 2 -6 3 52 3 58 0 81 -1 53 -3z m23 -34 c-59 -4 -154 -4
-210 0 -87 7 -71 8 109 8 187 0 198 -1 101 -8z m-73 -36 c-29 -2 -77 -2 -105
0 -29 2 -6 3 52 3 58 0 81 -1 53 -3z m62 -33 c40 -5 -9 -7 -145 -7 -122 0
-181 3 -145 7 83 9 218 9 290 0z m34 -46 c2 -2 -90 -3 -205 -2 -154 1 -187 3
-124 8 81 6 320 1 329 -6z m-921 -1071 c-26 -2 -71 -2 -100 0 -29 2 -8 3 47 3
55 0 79 -1 53 -3z m72 -33 c-85 -10 -231 -10 -300 0 -36 5 18 7 155 7 142 0
189 -2 145 -7z m-62 -37 c-60 -2 -156 -2 -215 0 -60 1 -11 3 107 3 118 0 167
-2 108 -3z m-38 -33 c0 -6 -40 -10 -101 -10 -64 0 -98 4 -94 10 3 6 48 10 101
10 56 0 94 -4 94 -10z m70 -44 c8 -2 -82 -3 -200 -3 -118 1 -187 2 -152 4 34
2 62 7 62 11 0 7 259 -4 290 -12z m-170 -26 c0 -5 35 -11 78 -13 42 -1 -17 -3
-133 -3 -115 0 -173 2 -127 3 45 2 82 8 82 13 0 6 23 10 50 10 28 0 50 -4 50
-10z m-47 -37 c-13 -2 -35 -2 -50 0 -16 2 -5 4 22 4 28 0 40 -2 28 -4z m30
-20 c-18 -2 -33 -8 -33 -14 0 -5 -23 -9 -51 -9 -28 0 -48 4 -44 9 3 5 -7 12
-22 14 -16 2 19 4 77 4 58 0 90 -2 73 -4z m-4 -45 c-14 -15 -199 -12 -199 3 0
5 47 9 105 9 84 0 103 -3 94 -12z m-21 -41 c-70 -6 -146 -6 -215 0 -104 10
-99 10 107 10 206 0 211 0 108 -10z m-30 -40 c-70 -6 -146 -6 -215 0 -104 10
-99 10 107 10 206 0 211 0 108 -10z m-75 -34 c-29 -2 -78 -2 -110 0 -32 2 -8
3 52 3 61 0 87 -1 58 -3z m22 -33 c-4 -6 -52 -10 -113 -10 -73 0 -102 3 -92
10 20 13 213 13 205 0z m-83 -43 c-42 -7 -76 -6 -105 0 -37 9 -29 11 63 10
l105 0 -63 -10z m-15 -30 c-39 -6 -76 -6 -110 0 -48 10 -43 10 58 10 105 0
108 0 52 -10z m-27 -37 c0 -5 -25 -10 -56 -10 -34 0 -53 4 -49 10 3 6 28 10
56 10 27 0 49 -4 49 -10z m-27 -37 c-29 -2 -77 -2 -105 0 -29 2 -6 3 52 3 58
0 81 -1 53 -3z m22 -33 c-3 -6 -50 -10 -106 -10 -64 0 -98 4 -94 10 3 6 50 10
106 10 64 0 98 -4 94 -10z m-22 -37 c-57 -2 -149 -2 -205 0 -57 1 -11 3 102 3
113 0 159 -2 103 -3z m22 -33 c39 -4 -15 -7 -155 -7 -129 0 -189 3 -150 7 90
9 233 9 305 0z m-75 -40 c0 -6 -42 -10 -106 -10 -67 0 -103 4 -99 10 3 6 50
10 106 10 59 0 99 -4 99 -10z m-26 -35 c-5 -12 -27 -15 -111 -15 -93 0 -104 2
-93 15 10 11 36 15 111 15 83 0 97 -2 93 -15z m-54 -34 c-26 -4 -13 -7 50 -11
51 -4 -2 -6 -135 -6 -135 0 -185 2 -130 5 53 4 80 9 65 12 -14 4 22 6 80 6 58
0 89 -3 70 -6z m-72 -38 c-16 -2 -40 -2 -55 0 -16 2 -3 4 27 4 30 0 43 -2 28
-4z m90 -20 c-49 -2 -88 -8 -88 -13 0 -6 -25 -10 -55 -10 -30 0 -55 4 -55 10
0 5 -35 11 -77 13 -43 1 21 3 142 3 121 0 181 -2 133 -3z m-111 -46 c-39 -6
-76 -6 -110 0 -48 10 -43 10 58 10 105 0 108 0 52 -10z m20 -40 c-71 -6 -144
-6 -210 0 -97 9 -91 10 108 10 204 0 207 0 102 -10z m-30 -40 c-71 -6 -144 -6
-210 0 -97 9 -91 10 108 10 204 0 207 0 102 -10z m23 -27 c36 -5 -16 -7 -150
-7 -123 0 -181 3 -145 7 84 9 230 9 295 0z m-75 -40 c-3 -6 -50 -10 -106 -10
-64 0 -98 4 -94 10 3 6 50 10 106 10 64 0 98 -4 94 -10z m-25 -40 c0 -6 -42
-10 -106 -10 -67 0 -103 4 -99 10 3 6 50 10 106 10 59 0 99 -4 99 -10z m-78
-33 c-42 -7 -76 -6 -105 0 -37 9 -29 11 63 10 l105 0 -63 -10z m-19 -40 c-36
-7 -70 -7 -105 0 -50 10 -47 10 52 10 99 0 102 0 53 -10z m-55 -34 c-16 -2
-40 -2 -55 0 -16 2 -3 4 27 4 30 0 43 -2 28 -4z m52 -33 c-20 -13 -213 -13
-205 0 4 6 52 10 113 10 73 0 102 -3 92 -10z m-17 -37 c-56 -2 -151 -2 -210 0
-59 1 -13 3 102 3 116 0 164 -2 108 -3z m17 -33 c43 -4 -8 -7 -150 -7 -125 0
-190 3 -155 7 82 9 226 9 305 0z m-80 -40 c0 -6 -42 -10 -106 -10 -67 0 -103
4 -99 10 3 6 50 10 106 10 59 0 99 -4 99 -10z m-26 -35 c-5 -12 -26 -15 -105
-15 -83 0 -97 2 -93 15 5 12 26 15 105 15 83 0 97 -2 93 -15z m-54 -34 c-27
-4 -16 -7 45 -11 48 -4 -4 -6 -130 -6 -135 0 -178 2 -120 6 59 3 80 7 60 11
-16 3 17 6 75 6 58 0 89 -3 70 -6z m-37 -38 c-29 -2 -78 -2 -110 0 -32 2 -8 3
52 3 61 0 87 -1 58 -3z m57 -26 c-111 -12 -178 -12 -270 0 -66 9 -48 10 140
10 192 0 206 -1 130 -10z m-108 -39 c-41 -7 -80 -6 -110 0 -41 8 -34 10 63 10
108 -1 109 -1 47 -10z m23 -38 c-3 -6 -50 -10 -106 -10 -59 0 -99 4 -99 10 0
6 42 10 106 10 67 0 103 -4 99 -10z m-27 -37 c-60 -2 -156 -2 -215 0 -60 1
-11 3 107 3 118 0 167 -2 108 -3z m-53 -32 c30 -7 11 -9 -75 -8 -78 0 -102 2
-75 7 56 10 103 10 150 1z m-5 -41 c0 -6 -42 -10 -107 -10 -74 0 -103 3 -93
10 20 13 200 13 200 0z m-67 -37 c-29 -2 -77 -2 -105 0 -29 2 -6 3 52 3 58 0
81 -1 53 -3z m17 -33 c0 -6 -40 -10 -100 -10 -60 0 -100 4 -100 10 0 6 40 10
100 10 60 0 100 -4 100 -10z m-102 -37 c-16 -2 -40 -2 -55 0 -16 2 -3 4 27 4
30 0 43 -2 28 -4z m57 -34 c-60 -4 -152 -4 -205 0 -80 7 -64 8 110 8 186 0
195 -1 95 -8z m-77 -41 c-38 -7 -74 -7 -105 0 -43 9 -38 10 57 10 101 -1 103
-1 48 -10z m112 -32 c8 -2 -77 -3 -190 -3 l-205 1 155 6 c144 5 203 4 240 -4z
m-11 -42 c2 -2 -92 -3 -210 -2 -163 1 -193 3 -124 8 85 6 325 2 334 -6z m-31
-39 c3 -3 -91 -4 -209 -3 -120 1 -185 4 -149 7 75 7 351 4 358 -4z m-126 -22
c-6 -2 -10 -9 -6 -14 3 -5 -40 -9 -102 -9 -93 0 -105 2 -94 15 10 12 35 15
114 14 55 0 95 -3 88 -6z m-7 -66 c-100 -12 -190 -12 -280 0 -59 9 -37 10 145
10 190 0 206 -1 135 -10z m-25 -40 c-111 -12 -188 -13 -280 0 -65 9 -47 10
145 10 195 0 211 -1 135 -10z m-113 -40 c-39 -6 -76 -6 -110 0 -48 10 -43 10
58 10 105 0 108 0 52 -10z m18 -37 c-3 -6 -48 -10 -100 -10 -52 0 -97 4 -100
10 -4 6 32 10 100 10 68 0 104 -4 100 -10z m-22 -37 c-56 -2 -151 -2 -210 0
-59 1 -13 3 102 3 116 0 164 -2 108 -3z m-48 -33 c19 -5 -10 -8 -80 -8 -72 1
-98 3 -75 8 46 10 117 10 155 0z m-30 -40 c13 -5 -18 -8 -85 -8 -71 0 -94 3
-70 8 49 10 131 10 155 0z m-67 -27 c-16 -2 -40 -2 -55 0 -16 2 -3 4 27 4 30
0 43 -2 28 -4z m37 -43 c-3 -6 -48 -10 -101 -10 -56 0 -94 4 -94 10 0 6 40 10
101 10 64 0 98 -4 94 -10z m-127 -77 c-16 -2 -40 -2 -55 0 -16 2 -3 4 27 4 30
0 43 -2 28 -4z m15 -30 c-29 -2 -78 -2 -110 0 -32 2 -8 3 52 3 61 0 87 -1 58
-3z"/>
</g>
</svg>
