<?xml version="1.0" encoding="UTF-8"?>
<svg width="21px" height="28px" viewBox="0 0 21 28" version="1.1" xmlns="http://www.w3.org/2000/svg" xmlns:xlink="http://www.w3.org/1999/xlink">
    <!-- Generator: Sketch 52.3 (67297) - http://www.bohemiancoding.com/sketch -->
    <title>Group 10</title>
    <desc>Created with Sketch.</desc>
    <defs>
        <path d="M9.34101075,0.00135483871 C5.20182796,0.00135483871 1.49197849,2.62146237 0.109139785,6.52098925 C-0.23483871,7.49150538 0.272774194,8.55701075 1.24344086,8.90129032 C2.21335484,9.24511828 3.2796129,8.73765591 3.6235914,7.76698925 C4.47969892,5.35251613 6.77735484,3.73002151 9.34101075,3.73002151 L16.3958065,3.73002151 L16.3958065,17.7224946 C16.3958065,18.7520215 17.2306882,19.5867527 18.2603656,19.5867527 C19.2898925,19.5867527 20.1247742,18.7520215 20.1247742,17.7224946 L20.1247742,0.00135483871 L9.34101075,0.00135483871 Z" id="path-1"></path>
        <linearGradient x1="106.579372%" y1="89.2472581%" x2="31.6376624%" y2="-2.51762834%" id="linearGradient-3">
            <stop stop-color="#8E8AC2" offset="0%"></stop>
            <stop stop-color="#615FAA" offset="47.6857187%"></stop>
            <stop stop-color="#615FAA" offset="100%"></stop>
        </linearGradient>
        <path d="M8.80163441,0.135182796 C7.77195699,0.135182796 6.93722581,0.969913978 6.93722581,1.9995914 C6.93722581,3.02926882 7.77195699,3.864 8.80163441,3.864 L10.7837634,3.864 C14.1273548,3.864 16.8474194,6.58421505 16.8474194,9.92795699 C16.8474194,13.2715484 14.1273548,15.9916129 10.7837634,15.9916129 L3.7288172,15.9916129 L3.7288172,1.9995914 C3.7288172,0.969913978 2.89408602,0.135182796 1.8644086,0.135182796 C0.834731183,0.135182796 0,0.969913978 0,1.9995914 L0,19.7204301 L10.7837634,19.7204301 C16.1833978,19.7204301 20.5763871,15.3274409 20.5763871,9.92795699 C20.5763871,4.52817204 16.1833978,0.135182796 10.7837634,0.135182796 L8.80163441,0.135182796 Z" id="path-4"></path>
        <linearGradient x1="89.8758148%" y1="83.5489774%" x2="7.16314445%" y2="14.5256102%" id="linearGradient-6">
            <stop stop-color="#615FAA" offset="0%"></stop>
            <stop stop-color="#615FAA" offset="69.260958%"></stop>
            <stop stop-color="#9995C8" offset="100%"></stop>
        </linearGradient>
        <polygon id="path-7" points="0 0.0102093094 13.6391462 0.0102093094 13.6391462 14.3179505 0 14.3179505"></polygon>
    </defs>
    <g id="Wallet" stroke="none" stroke-width="1" fill="none" fill-rule="evenodd">
        <g id="All-Tokens" transform="translate(-205.000000, -538.000000)">
            <g id="Group-10" transform="translate(205.000000, 538.000000)">
                <g id="Group-3" transform="translate(0.451613, 0.149183)">
                    <mask id="mask-2" fill="white">
                        <use xlink:href="#path-1"></use>
                    </mask>
                    <g id="Clip-2"></g>
                    <path d="M9.34101075,0.00135483871 C5.20182796,0.00135483871 1.49197849,2.62146237 0.109139785,6.52098925 C-0.23483871,7.49150538 0.272774194,8.55701075 1.24344086,8.90129032 C2.21335484,9.24511828 3.2796129,8.73765591 3.6235914,7.76698925 C4.47969892,5.35251613 6.77735484,3.73002151 9.34101075,3.73002151 L16.3958065,3.73002151 L16.3958065,17.7224946 C16.3958065,18.7520215 17.2306882,19.5867527 18.2603656,19.5867527 C19.2898925,19.5867527 20.1247742,18.7520215 20.1247742,17.7224946 L20.1247742,0.00135483871 L9.34101075,0.00135483871 Z" id="Fill-1" fill="url(#linearGradient-3)" mask="url(#mask-2)"></path>
                </g>
                <g id="Group-6" transform="translate(0.000000, 8.278215)">
                    <mask id="mask-5" fill="white">
                        <use xlink:href="#path-4"></use>
                    </mask>
                    <g id="Clip-5"></g>
                    <path d="M8.80163441,0.135182796 C7.77195699,0.135182796 6.93722581,0.969913978 6.93722581,1.9995914 C6.93722581,3.02926882 7.77195699,3.864 8.80163441,3.864 L10.7837634,3.864 C14.1273548,3.864 16.8474194,6.58421505 16.8474194,9.92795699 C16.8474194,13.2715484 14.1273548,15.9916129 10.7837634,15.9916129 L3.7288172,15.9916129 L3.7288172,1.9995914 C3.7288172,0.969913978 2.89408602,0.135182796 1.8644086,0.135182796 C0.834731183,0.135182796 0,0.969913978 0,1.9995914 L0,19.7204301 L10.7837634,19.7204301 C16.1833978,19.7204301 20.5763871,15.3274409 20.5763871,9.92795699 C20.5763871,4.52817204 16.1833978,0.135182796 10.7837634,0.135182796 L8.80163441,0.135182796 Z" id="Fill-4" fill="url(#linearGradient-6)" mask="url(#mask-5)"></path>
                </g>
                <g id="Group-9" transform="translate(0.000000, 5.418000)">
                    <mask id="mask-8" fill="white">
                        <use xlink:href="#path-7"></use>
                    </mask>
                    <g id="Clip-8"></g>
                    <path d="M11.7747376,14.3179505 L9.7926086,14.3179505 C4.39297419,14.3179505 -1.50537634e-05,9.92481075 -1.50537634e-05,4.52517634 C-1.50537634e-05,3.40321935 0.188608602,2.30188602 0.560737634,1.25233763 C0.904866667,0.281821505 1.97082366,-0.226243011 2.94073763,0.117886022 C3.9114043,0.462015054 4.41931828,1.52752043 4.07533978,2.49803656 C3.84531828,3.14670323 3.72880215,3.82863871 3.72880215,4.52517634 C3.72880215,7.86891828 6.44886667,10.5891333 9.7926086,10.5891333 L11.7747376,10.5891333 C12.8044151,10.5891333 13.6391462,11.4238645 13.6391462,12.4535419 C13.6391462,13.4832194 12.8044151,14.3179505 11.7747376,14.3179505" id="Fill-7" fill="#615EA9" mask="url(#mask-8)"></path>
                </g>
            </g>
        </g>
    </g>
</svg>