<svg xmlns="http://www.w3.org/2000/svg" width="100" height="100" viewBox="0 0 100 100" version="1.1">
	<path d="M 45.626 9.517 C 44.733 10.410, 43.751 12.121, 43.443 13.320 C 42.620 16.527, 24.867 26.434, 21.471 25.582 C 18.950 24.949, 15.138 26.343, 13.765 28.400 C 12.306 30.585, 12.999 35.689, 15 37.500 C 16.762 39.095, 17 40.580, 17 50 C 17 59.420, 16.762 60.905, 15 62.500 C 12.999 64.311, 12.306 69.415, 13.765 71.600 C 15.127 73.639, 18.942 75.053, 21.411 74.433 C 23.239 73.974, 26.291 75.176, 33.410 79.159 C 38.660 82.096, 42.966 85.002, 42.978 85.615 C 42.990 86.228, 43.952 87.940, 45.115 89.419 C 46.833 91.603, 47.911 92.050, 50.865 91.804 C 53.874 91.552, 54.758 90.933, 56 88.206 C 57.124 85.738, 59.845 83.521, 66.851 79.364 C 74.884 74.598, 76.682 73.905, 79.601 74.453 C 86.006 75.655, 90.649 67.707, 86 63.500 C 84.217 61.887, 84 60.420, 84 50 C 84 39.580, 84.217 38.113, 86 36.500 C 88.714 34.044, 88.515 30.424, 85.500 27.409 C 83.441 25.350, 82.395 25.023, 79.568 25.553 C 76.607 26.109, 74.858 25.438, 66.818 20.663 C 59.803 16.497, 57.129 14.310, 56 11.815 C 54.756 9.066, 53.881 8.448, 50.874 8.197 C 48.530 8.001, 46.675 8.468, 45.626 9.517 M 46.750 10.056 C 44.592 11.342, 44.437 16.288, 46.500 18 C 47.636 18.943, 48 21.494, 48 28.507 C 48 37.249, 47.861 37.861, 45.535 39.385 C 44.180 40.273, 42.115 41, 40.948 41 C 37.342 41, 25.960 34.025, 24.864 31.143 C 23.651 27.951, 22.302 27.035, 18.785 27.015 C 15.898 26.999, 14 29.338, 14 32.911 C 14 35.568, 18.259 38.370, 20.983 37.505 C 22.383 37.061, 24.934 37.892, 28.782 40.046 C 31.927 41.806, 34.648 43.377, 34.830 43.537 C 35.011 43.696, 34.398 44.990, 33.466 46.411 C 32.206 48.335, 31.938 50.103, 32.421 53.320 L 33.069 57.644 28.029 60.388 C 24.784 62.154, 22.261 62.900, 20.945 62.483 C 18.259 61.630, 14 64.455, 14 67.089 C 14 70.662, 15.898 73.001, 18.785 72.985 C 22.299 72.965, 23.651 72.049, 24.860 68.869 C 25.455 67.304, 27.985 65.071, 31.251 63.228 C 36.091 60.496, 37.224 60.246, 42.078 60.838 L 47.500 61.500 47.784 71.099 C 48.011 78.757, 47.759 80.956, 46.534 81.971 C 44.269 83.851, 44.581 88.705, 47.052 90.028 C 50.152 91.687, 53.260 90.810, 54.943 87.802 C 56.345 85.296, 56.291 84.885, 54.186 82.038 C 52.190 79.338, 51.954 77.990, 52.210 70.736 L 52.500 62.500 59 61.982 C 64.589 61.537, 66.152 61.810, 70.155 63.932 C 73.077 65.481, 75.311 67.535, 76.155 69.450 C 78.008 73.651, 83.113 74.283, 85.521 70.608 C 88.469 66.109, 84.705 61.104, 79.379 62.441 C 77.721 62.857, 75.518 62.216, 72.472 60.431 C 68.688 58.213, 67.997 57.324, 67.978 54.655 C 67.966 52.920, 67.076 50.375, 66 49 C 64.924 47.625, 64.034 46.033, 64.022 45.463 C 63.981 43.545, 77.003 36.784, 79.521 37.416 C 82.765 38.230, 84.992 37.152, 86.103 34.229 C 88.626 27.593, 79.037 24.013, 76.168 30.520 C 75.273 32.551, 72.700 34.762, 68.312 37.271 L 61.787 41.002 56.894 38.757 L 52 36.512 52 28.715 C 52 22.223, 52.372 20.415, 54.226 17.908 C 56.290 15.116, 56.342 14.700, 54.945 12.198 C 53.311 9.274, 49.663 8.320, 46.750 10.056 M 49 14.583 C 49 16.349, 51.153 16.042, 51.771 14.188 C 51.989 13.534, 51.454 13, 50.583 13 C 49.712 13, 49 13.713, 49 14.583 M 18.192 32.075 C 18.389 32.666, 18.977 33.150, 19.500 33.150 C 20.023 33.150, 20.611 32.666, 20.808 32.075 C 21.005 31.484, 20.417 31, 19.500 31 C 18.583 31, 17.995 31.484, 18.192 32.075 M 80 32.583 C 80 33.454, 80.534 33.989, 81.188 33.771 C 83.042 33.153, 83.349 31, 81.583 31 C 80.713 31, 80 31.712, 80 32.583 M 46 42.120 C 43.525 43.270, 40.375 44.740, 39 45.387 C 37.086 46.287, 36.426 47.457, 36.184 50.380 C 35.626 57.107, 39.197 58.761, 55.485 59.323 C 60.066 59.482, 61.884 59.116, 63.235 57.765 C 65.416 55.584, 65.505 52.664, 63.442 50.952 C 62.585 50.241, 61.252 48.145, 60.478 46.294 C 59.541 44.051, 57.903 42.439, 55.568 41.464 C 51.175 39.628, 51.391 39.614, 46 42.120 M 18.639 66.694 C 17.513 67.820, 17.954 69, 19.500 69 C 20.325 69, 21 68.577, 21 68.059 C 21 66.798, 19.438 65.895, 18.639 66.694 M 80 67.417 C 80 68.287, 80.713 69, 81.583 69 C 83.349 69, 83.042 66.847, 81.188 66.229 C 80.534 66.011, 80 66.546, 80 67.417 M 49 85.417 C 49 86.287, 49.712 87, 50.583 87 C 51.454 87, 51.989 86.466, 51.771 85.813 C 51.153 83.958, 49 83.651, 49 85.417 " stroke="none" fill="black" fill-rule="evenodd"/>
</svg>