<svg xmlns="http://www.w3.org/2000/svg" width="100" height="100" viewBox="0 0 100 100" version="1.1">
	<path d="M 24.014 38.024 C 19.376 39.115, 15.190 43.960, 14.351 49.209 C 13.603 53.885, 10.184 58, 7.045 58 C 5.667 58, 5 58.652, 5 60 C 5 61.486, 5.667 62, 7.596 62 C 13.334 62, 19 55.894, 19 49.710 C 19 48.341, 19.860 46.159, 20.911 44.861 C 22.635 42.731, 23.757 42.466, 32.411 42.153 C 41.774 41.815, 42 41.750, 42 39.403 C 42 37.077, 41.767 37.003, 34.750 37.102 C 30.762 37.159, 25.931 37.574, 24.014 38.024 M 48.235 41.423 C 44.848 44.528, 44.500 45.326, 44.500 50 C 44.500 54.674, 44.848 55.472, 48.235 58.577 C 51.207 61.300, 52.802 62, 56.035 62 C 63.711 62, 69 57.105, 69 50 C 69 42.895, 63.711 38, 56.035 38 C 52.802 38, 51.207 38.700, 48.235 41.423 M 70 40 C 70 41.285, 70.667 42, 71.865 42 C 72.891 42, 74.916 42.933, 76.365 44.073 C 80.087 47, 80.087 53, 76.365 55.927 C 74.916 57.067, 72.891 58, 71.865 58 C 70.667 58, 70 58.715, 70 60 C 70 63.865, 78.638 61.700, 81.392 57.145 C 82.174 55.851, 82.422 55.850, 83.392 57.130 C 86.983 61.868, 95 63.850, 95 60 C 95 58.652, 94.333 58, 92.955 58 C 89.831 58, 86 53.594, 86 50 C 86 46.406, 89.831 42, 92.955 42 C 94.333 42, 95 41.348, 95 40 C 95 36.150, 86.983 38.132, 83.392 42.870 C 82.422 44.150, 82.174 44.149, 81.392 42.855 C 78.638 38.300, 70 36.135, 70 40 M 51.455 44.455 C 49.907 46.002, 49 48.052, 49 50 C 49 53.762, 52.878 58, 56.320 58 C 60.530 58, 64 54.385, 64 50 C 64 42.931, 56.356 39.553, 51.455 44.455 M 31 55.500 C 31 61.767, 31.090 62, 33.500 62 C 35.910 62, 36 61.767, 36 55.500 C 36 49.233, 35.910 49, 33.500 49 C 31.090 49, 31 49.233, 31 55.500 " stroke="none" fill="black" fill-rule="evenodd"/>
</svg>