<?xml version="1.0" encoding="UTF-8"?>
<svg width="60px" height="60px" viewBox="0 0 60 60" version="1.1" xmlns="http://www.w3.org/2000/svg" xmlns:xlink="http://www.w3.org/1999/xlink">
    <!-- Generator: Sketch 52.6 (67491) - http://www.bohemiancoding.com/sketch -->
    <title>sUSD_blue</title>
    <desc>Created with Sketch.</desc>
    <defs>
        <path d="M2.349903,0.547003112 L2.349903,5.26550286 C2.349903,5.92408165 2.47599409,6.4199453 2.72818007,6.75310869 C2.98036604,7.08627208 3.37774404,7.25285128 3.92032598,7.25285128 C4.46290792,7.25285128 4.86219639,7.08627208 5.11820336,6.75310869 C5.37421034,6.4199453 5.5022119,5.92408165 5.5022119,5.26550286 L5.5022119,0.547003112 L7.22165312,0.547003112 L7.22165312,5.1725275 C7.22165312,6.33472536 6.94081386,7.22185643 6.37912692,7.8339473 C5.81743998,8.44603818 4.99784786,8.75207903 3.92032598,8.75207903 C2.84280409,8.75207903 2.02512245,8.44603818 1.46725651,7.8339473 C0.909390567,7.22185643 0.63046178,6.33472536 0.63046178,5.1725275 L0.63046178,0.547003112 L2.349903,0.547003112 Z M9.90398142,6.03254962 C9.93454942,6.43544488 10.0969395,6.75891843 10.3911564,7.00297998 C10.6853734,7.24704154 11.07702,7.36907048 11.5661079,7.36907048 C11.9711339,7.36907048 12.3016454,7.28190695 12.5576524,7.10757727 C12.8136593,6.93324759 12.9416609,6.69112667 12.9416609,6.38120723 C12.9416609,6.16426363 12.8709735,5.99187353 12.7295965,5.86403177 C12.5882195,5.73619 12.3895305,5.6354677 12.1335235,5.56186183 C11.8775166,5.48825597 11.482049,5.3972185 10.9471091,5.2887467 C10.4198112,5.18802289 9.97658185,5.05824607 9.61740789,4.89941236 C9.25823392,4.74057865 8.96593184,4.50426863 8.74049286,4.19047521 C8.51505389,3.87668178 8.40233609,3.4602338 8.40233609,2.94111875 C8.40233609,2.46849162 8.53033766,2.04623272 8.78634463,1.67432941 C9.0423516,1.30242609 9.39769923,1.00994401 9.85239819,0.796874404 C10.3070971,0.583804795 10.8210139,0.477271588 11.3941638,0.477271588 C11.9825977,0.477271588 12.5117983,0.58767873 12.9817812,0.808496324 C13.4517642,1.02931392 13.8223956,1.3334178 14.0936865,1.72081709 C14.3649775,2.10821638 14.5044419,2.54597101 14.5120839,3.03409411 L12.8270315,3.03409411 C12.7888215,2.68543475 12.6436257,2.40457448 12.3914397,2.19150487 C12.1392537,1.97843526 11.8068318,1.87190206 11.3941638,1.87190206 C11.0120639,1.87190206 10.7063885,1.95325469 10.4771285,2.11596239 C10.2478685,2.27867009 10.1332403,2.51110618 10.1332403,2.81327762 C10.1332403,3.03022122 10.2020172,3.19873739 10.3395732,3.31883117 C10.4771292,3.43892495 10.6719972,3.53577332 10.9241832,3.60937918 C11.1763692,3.68298505 11.5661053,3.77014858 12.0934032,3.87087239 C12.6283432,3.97159621 13.0792144,4.09749909 13.4460303,4.24858481 C13.8128463,4.39967053 14.1089693,4.62823269 14.3344083,4.93427812 C14.5598473,5.24032356 14.6725651,5.64902368 14.6725651,6.16039074 C14.6725651,6.65626183 14.5388321,7.09982737 14.2713621,7.49110065 C14.0038921,7.88237393 13.6313503,8.19035175 13.1537253,8.41504333 C12.6761004,8.63973492 12.139258,8.75207903 11.5431821,8.75207903 C10.9012541,8.75207903 10.3300232,8.63392402 9.8294723,8.39761045 C9.32892136,8.16129689 8.93727477,7.8339494 8.6545208,7.41555816 C8.37176683,6.99716693 8.22657103,6.52842082 8.21892903,6.00930578 L9.90398142,6.03254962 Z M15.7042298,0.547003112 L18.4897246,0.547003112 C19.2921345,0.547003112 20.0009193,0.719393209 20.6161002,1.06417858 C21.2312812,1.40896394 21.705078,1.88933186 22.037505,2.50529673 C22.3699319,3.1212616 22.5361429,3.82438076 22.5361429,4.61467531 C22.5361429,5.40496986 22.3699319,6.10808902 22.037505,6.72405389 C21.705078,7.34001876 21.2312812,7.82038667 20.6161002,8.16517204 C20.0009193,8.50995741 19.2921345,8.68234751 18.4897246,8.68234751 L15.7042298,8.68234751 L15.7042298,0.547003112 Z M18.4897246,7.22960744 C19.2157145,7.22960744 19.7793035,6.99136045 20.1805084,6.51485932 C20.5817134,6.0383582 20.7823129,5.40496986 20.7823129,4.61467531 C20.7823129,3.82438076 20.5817134,3.19099242 20.1805084,2.7144913 C19.7793035,2.23799017 19.2157145,1.99974318 18.4897246,1.99974318 L17.423671,1.99974318 L17.423671,7.22960744 L18.4897246,7.22960744 Z" id="path-1"></path>
    </defs>
    <g id="Page-1" stroke="none" stroke-width="1" fill="none" fill-rule="evenodd">
        <g id="Home-Page-Variant" transform="translate(-451.000000, -667.000000)">
            <g id="sUSD_blue" transform="translate(451.000000, 667.000000)">
                <ellipse id="Oval-Copy" fill="#1E1A31" cx="30" cy="30.1289217" rx="30" ry="29.6703297"></ellipse>
                <g id="Group-19" transform="translate(14.666667, 16.282768)">
                    <g id="Group-Copy" transform="translate(0.000000, 0.502493)" fill="#FFFFFF">
                        <g id="Group-6" transform="translate(0.000000, 0.118365)">
                            <g id="Group-5" transform="translate(0.142521, 0.091464)">
                                <g id="Group-4" transform="translate(0.012509, 0.078368)">
                                    <path d="M10.8677061,11.1046046 C11.6715752,11.1046046 12.3232399,11.7653072 12.3232399,12.5803252 C12.3232399,13.3953432 11.6715752,14.0560457 10.8677061,14.0560457 L7.0895724,14.0560457 C3.43034822,14.0560457 0.463960922,11.0485178 0.463960922,7.33854389 C0.463960922,3.62857006 3.43034822,0.621042052 7.0895724,0.621042052 L16.8331803,0.621042052 C17.6370495,0.621042052 18.2887141,1.28174465 18.2887141,2.09676261 C18.2887141,2.91178058 17.6370495,3.57248317 16.8331803,3.57248317 L7.0895724,3.57248317 C5.03808648,3.57248317 3.37502855,5.25860599 3.37502855,7.33854389 C3.37502855,9.41848178 5.03808648,11.1046046 7.0895724,11.1046046 L10.8677061,11.1046046 Z" id="Rectangle-2"></path>
                                    <path d="M10.8677065,21.5881671 C11.6715756,21.5881671 12.3232403,22.2488698 12.3232403,23.0638877 C12.3232403,23.8789057 11.6715756,24.5396082 10.8677065,24.5396082 L7.08957276,24.5396082 C3.43034858,24.5396082 0.463961281,21.5320803 0.463961281,17.8221064 C0.463961281,14.1121326 3.43034858,11.1046046 7.08957276,11.1046046 L16.8331807,11.1046046 C17.6370498,11.1046046 18.2887145,11.7653072 18.2887145,12.5803252 C18.2887145,13.3953432 17.6370498,14.0560457 16.8331807,14.0560457 L7.08957276,14.0560457 C5.03808684,14.0560457 3.37502891,15.7421686 3.37502891,17.8221064 C3.37502891,19.9020443 5.03808684,21.5881671 7.08957276,21.5881671 L10.8677065,21.5881671 Z" id="Rectangle-2-Copy" transform="translate(9.376338, 17.822106) rotate(-180.000000) translate(-9.376338, -17.822106) "></path>
                                    <polygon id="Path-3" fill-opacity="0.5" points="3.06962432 23.9443092 0.703341026 22.2252052 15.5863448 1.16712074 17.9526281 2.88622463"></polygon>
                                </g>
                            </g>
                        </g>
                    </g>
                    <g id="USD" transform="translate(24.856783, 13.515339) rotate(-90.000000) translate(-24.856783, -13.515339) translate(13.523450, 8.899955)">
                        <g>
                            <use fill="#000000" xlink:href="#path-1"></use>
                            <use fill="#FFFFFF" xlink:href="#path-1"></use>
                        </g>
                    </g>
                </g>
            </g>
        </g>
    </g>
</svg>