<svg xmlns="http://www.w3.org/2000/svg" width="100" height="100" viewBox="0 0 100 100" version="1.1">
	<path d="M 63.500 32.004 C 58.309 34.106, 51.469 38.697, 43.528 45.410 L 38.903 49.321 34.663 45.160 C 32.332 42.872, 30.008 41, 29.500 41 C 28.991 41, 30.752 43.210, 33.412 45.911 L 38.249 50.821 32.116 55.336 C 24.886 60.658, 20.136 62.436, 15.478 61.562 C 10.784 60.681, 8 56.847, 8 51.265 C 8 47.520, 8.549 46.251, 11.400 43.400 C 15.180 39.620, 14.723 38.857, 10.615 42.088 C 3.077 48.018, 3.214 57.532, 10.912 62.720 C 16.928 66.774, 24.647 65.100, 35.011 57.492 C 37.627 55.571, 40.072 54, 40.443 54 C 40.814 54, 42.778 55.328, 44.809 56.952 C 46.839 58.575, 51.200 61.163, 54.500 62.702 C 59.823 65.184, 61.638 65.500, 70.578 65.500 C 80.058 65.500, 80.949 65.320, 85.566 62.465 C 94.861 56.718, 97.512 46.749, 91.917 38.584 C 86.615 30.846, 73.731 27.863, 63.500 32.004 M 21.163 34.878 C 20.427 35.345, 19.977 36.800, 20.163 38.113 C 20.645 41.529, 25.355 41.529, 25.837 38.113 C 26.126 36.072, 24.707 34.031, 23 34.031 C 22.725 34.031, 21.898 34.412, 21.163 34.878 M 64.831 35.398 C 61.230 36.685, 51.909 43.035, 45 48.910 C 41.568 51.829, 41.539 51.917, 43.500 53.445 C 44.600 54.303, 48.790 56.660, 52.812 58.684 C 59.066 61.833, 61.307 62.421, 68.312 62.753 C 75.384 63.088, 77.112 62.825, 80.992 60.821 C 96.139 52.995, 90.796 33.899, 73.500 34.045 C 70.750 34.069, 66.849 34.677, 64.831 35.398 " stroke="none" fill="black" fill-rule="evenodd"/>
</svg>