<svg xmlns="http://www.w3.org/2000/svg" width="100" height="100" viewBox="0 0 100 100" version="1.1">
	<path d="M 36.846 15.828 C 28.237 18.956, 20.290 22.332, 19.188 23.330 C 16.280 25.962, 15.462 28.731, 12.408 46.283 C 9.855 60.952, 9.771 62.296, 11.211 65.316 C 13.131 69.343, 37.680 89.761, 42.140 91.040 C 44.687 91.771, 47.027 91.356, 53.909 88.957 C 76.550 81.063, 80.333 79.455, 82.212 76.928 C 83.508 75.185, 85.120 68.725, 87.213 56.879 C 89.973 41.263, 90.153 39.093, 88.901 36.498 C 87.339 33.260, 65.270 13.980, 60.349 11.554 C 58.616 10.699, 56.141 10.031, 54.849 10.070 C 53.557 10.108, 45.456 12.699, 36.846 15.828 M 46.705 34.529 C 45.718 35.885, 43.468 37.728, 41.705 38.625 C 39.942 39.521, 38.424 40.311, 38.331 40.379 C 38.238 40.448, 37.852 41.741, 37.473 43.252 C 36.849 45.737, 37.040 46, 39.459 46 C 41.550 46, 42.015 46.382, 41.584 47.750 C 40.164 52.264, 39.045 60.575, 39.606 62.434 C 41.025 67.132, 44.014 69, 50.115 69 C 56.280 69, 56.379 68.942, 57.381 64.750 C 58.031 62.031, 57.982 62, 53.078 62 C 50.350 62, 47.882 61.618, 47.594 61.152 C 47.306 60.686, 47.641 57.198, 48.339 53.402 L 49.609 46.500 55.033 46.190 C 60.505 45.877, 61.957 44.950, 61.985 41.750 C 61.997 40.293, 61.077 40, 56.488 40 L 50.976 40 51.616 36 C 52.172 32.520, 52.011 32.004, 50.378 32.031 C 49.345 32.049, 47.692 33.173, 46.705 34.529 " stroke="none" fill="black" fill-rule="evenodd"/>
</svg>