<svg xmlns="http://www.w3.org/2000/svg" width="100" height="100" viewBox="0 0 100 100" version="1.1">
	<path d="M 16.263 23.116 C 10.579 24.757, 10 27.290, 10 50.516 C 10 71.364, 10.396 74.018, 13.913 76.718 C 16.188 78.464, 83.812 78.464, 86.087 76.718 C 89.604 74.018, 90 71.364, 90 50.516 C 90 26.832, 89.497 24.788, 83.248 23.052 C 78.564 21.751, 20.797 21.806, 16.263 23.116 M 16.250 27.534 C 13.758 29.283, 13.130 34, 15.389 34 C 17.436 34, 20.841 30.795, 21.193 28.536 C 21.590 25.997, 19.145 25.501, 16.250 27.534 M 25.684 26.650 C 25.308 27.026, 25 28.322, 25 29.530 C 25 32.391, 20.645 36.700, 16.927 37.516 L 14 38.159 14 50.379 L 14 62.598 17.557 63.884 C 20.911 65.097, 22.575 67.378, 24.402 73.268 C 24.910 74.905, 26.773 75.015, 49.662 74.768 L 74.374 74.500 75.199 71.313 C 76.169 67.567, 80.284 64, 83.635 64 L 86 64 86 51 C 86 38.791, 85.882 38, 84.056 38 C 81.152 38, 77.205 33.964, 76.232 30 L 75.374 26.500 50.871 26.233 C 37.394 26.086, 26.060 26.274, 25.684 26.650 M 80.015 28.250 C 80.035 31.076, 80.902 32.386, 83.750 33.885 C 85.845 34.989, 86 34.865, 86 32.092 C 86 30.148, 85.228 28.573, 83.777 27.557 C 80.772 25.452, 79.997 25.594, 80.015 28.250 M 44.620 31.212 C 35.683 33.627, 29.500 44.714, 31.971 53.893 C 34.336 62.674, 43.380 68.781, 52.499 67.753 C 67.204 66.095, 73.966 48.432, 64.295 36.939 C 59.687 31.463, 51.986 29.221, 44.620 31.212 M 44.450 35.407 C 42.773 36.137, 40.204 38.158, 38.740 39.897 C 30.480 49.714, 37.277 64.007, 50.200 63.996 C 65.637 63.983, 70.682 43.284, 56.964 36.250 C 51.992 33.701, 48.853 33.489, 44.450 35.407 M 47 47.500 L 47 53 52.500 53 C 56.722 53, 58 52.652, 58 51.500 C 58 50.452, 56.944 50, 54.500 50 C 51.083 50, 51 49.905, 51 46 C 51 42.667, 50.667 42, 49 42 C 47.242 42, 47 42.667, 47 47.500 M 14.184 69.727 C 14.382 71.440, 15.430 72.918, 17 73.703 C 19.242 74.824, 19.534 74.741, 19.830 72.894 C 20.201 70.582, 17.435 67, 15.279 67 C 14.331 67, 13.971 67.896, 14.184 69.727 M 82 68.288 C 80.400 69.093, 79.383 70.561, 79.175 72.364 C 78.882 74.902, 79.081 75.111, 81.175 74.469 C 84.685 73.392, 86 72.004, 86 69.378 C 86 66.669, 85.492 66.530, 82 68.288 " stroke="none" fill="black" fill-rule="evenodd"/>
</svg>