<svg xmlns="http://www.w3.org/2000/svg" width="100" height="100" viewBox="0 0 100 100" version="1.1">
	<path d="M 50.170 13.839 L 41.841 17.356 42.170 45.458 C 42.497 73.328, 42.521 73.601, 45.055 78.521 C 48.419 85.054, 54.591 88.973, 62.657 89.698 C 68.162 90.192, 74.851 89.065, 77.830 87.142 C 79.639 85.974, 75.840 73.330, 73.831 73.835 C 69.002 75.049, 63.926 74.371, 61.777 72.225 C 59.682 70.132, 59.474 68.912, 59.171 56.975 L 58.841 44 69.421 44 L 80 44 80 37.035 L 80 30.070 69.750 29.785 L 59.500 29.500 59 19.911 L 58.500 10.322 50.170 13.839 M 21.635 33.073 C 15.922 37.566, 19.695 48, 27.031 48 C 30.732 48, 36 43.307, 36 40.011 C 36 32.434, 27.603 28.378, 21.635 33.073 " stroke="none" fill="black" fill-rule="evenodd"/>
</svg>