<svg xmlns="http://www.w3.org/2000/svg" width="100" height="100" viewBox="0 0 100 100" version="1.1">
	<path d="M 40.618 11.048 C 34.290 12.638, 25.284 17.968, 20.912 22.711 C 18.667 25.147, 15.405 30.147, 13.665 33.820 C 10.799 39.869, 10.500 41.402, 10.500 50.052 C 10.500 59.067, 10.710 60.028, 14.235 67.160 C 18.733 76.262, 24.523 81.931, 33.820 86.335 C 39.861 89.197, 41.409 89.500, 50 89.500 C 58.591 89.500, 60.139 89.197, 66.180 86.335 C 75.477 81.931, 81.267 76.262, 85.765 67.160 C 89.294 60.020, 89.500 59.075, 89.500 50 C 89.500 40.908, 89.299 39.990, 85.728 32.763 C 79.046 19.245, 66.888 11.139, 52.249 10.442 C 47.987 10.239, 42.753 10.512, 40.618 11.048 M 39.500 20.328 C 31.216 23.577, 25.788 28.392, 21.838 36 C 20.086 39.373, 19.413 42.551, 19.150 48.691 C 18.848 55.748, 19.144 57.634, 21.285 62.311 C 26.751 74.250, 35.402 80.207, 48.182 80.831 C 59.121 81.365, 64.918 79.242, 72.080 72.080 C 81.652 62.508, 84.035 49.512, 78.485 37.146 C 73.290 25.571, 62.882 18.972, 50 19.086 C 45.875 19.122, 41.150 19.681, 39.500 20.328 M 32 35.500 L 32 40 38 40 L 44 40 44 56.500 L 44 73 49.500 73 L 55 73 55 56.500 L 55 40 61.500 40 L 68 40 68 35.500 L 68 31 50 31 L 32 31 32 35.500 " stroke="none" fill="black" fill-rule="evenodd"/>
</svg>