<svg xmlns="http://www.w3.org/2000/svg" width="100" height="100" viewBox="0 0 100 100" version="1.1">
	<path d="M 10.042 6.250 C 10.136 9.064, 41.590 94.374, 42.664 94.727 C 43.998 95.165, 88.241 31.199, 87.468 29.949 C 87.189 29.497, 83.991 27.051, 80.362 24.515 C 73.909 20.003, 73.089 19.739, 42.995 12.451 C 26.072 8.353, 11.725 5, 11.113 5 C 10.501 5, 10.019 5.563, 10.042 6.250 M 16.731 10.402 C 17.763 12.116, 47.026 47, 47.432 47 C 48.472 47, 70.468 23.115, 69.896 22.606 C 68.701 21.541, 16.178 9.484, 16.731 10.402 M 14.417 13.500 C 15.272 15.700, 21.767 33.642, 28.851 53.371 C 39.903 84.148, 41.815 88.763, 42.319 85.871 C 42.641 84.017, 43.647 75.011, 44.553 65.858 L 46.200 49.216 31.446 31.358 C 23.332 21.536, 15.831 12.600, 14.778 11.500 C 12.887 9.525, 12.883 9.550, 14.417 13.500 M 61.861 35.185 L 51.500 46.371 66.750 38.444 C 75.138 34.084, 82 30.235, 82 29.891 C 82 29.090, 74.338 24, 73.133 24 C 72.632 24, 67.560 29.033, 61.861 35.185 M 64.973 41.693 C 55.913 46.413, 48.425 50.325, 48.333 50.388 C 48.027 50.595, 44.263 87.495, 44.517 87.800 C 44.654 87.964, 53.167 75.875, 63.435 60.935 C 73.703 45.994, 81.956 33.622, 81.775 33.441 C 81.594 33.260, 74.033 36.974, 64.973 41.693 " stroke="none" fill="black" fill-rule="evenodd"/>
</svg>