<svg xmlns="http://www.w3.org/2000/svg" width="100" height="100" viewBox="0 0 100 100" version="1.1">
	<path d="M 38.798 11.865 C 26.801 15.839, 18.097 23.294, 13.160 33.825 C 10.897 38.652, 10.500 40.844, 10.500 48.500 C 10.500 56.134, 10.897 58.335, 13.113 63 C 18.475 74.287, 27.876 80.511, 39.500 80.470 C 55.713 80.414, 65.863 70.293, 66.798 53.250 L 67.251 45 64.257 45 L 61.263 45 60.790 52.250 C 60.224 60.914, 57.582 66.691, 52.370 70.667 C 49.384 72.944, 47.470 73.521, 41.842 73.839 C 26.300 74.717, 16.520 64.888, 16.631 48.500 C 16.708 37.214, 21.247 28.685, 30.417 22.599 C 46.940 11.632, 69.242 14.773, 83.395 30.060 C 89.889 37.074, 90.596 36.550, 85.250 28.685 C 80.474 21.659, 73.021 15.539, 66 12.877 C 58.116 9.887, 46.117 9.441, 38.798 11.865 M 29 39.500 L 29 52 36.500 52 L 44 52 44 60 C 44 64.541, 44.422 68, 44.977 68 C 47.522 68, 49.408 62.500, 49.820 53.873 L 50.245 45 43.072 45 L 35.900 45 36.200 39.250 L 36.500 33.500 49 33.518 C 63.365 33.539, 67.441 34.597, 73.203 39.802 C 79.062 45.095, 81.363 50.236, 81.349 58 C 81.333 66.342, 78.476 72.488, 71.836 78.457 C 64.970 84.631, 57.769 87.207, 45.798 87.771 C 40.186 88.036, 34.796 87.776, 33.013 87.154 C 31.260 86.543, 30.184 86.488, 30.517 87.027 C 30.838 87.547, 34.267 88.935, 38.137 90.110 C 52.562 94.492, 66.577 91.242, 77.400 81.006 C 84.650 74.150, 87.379 67.863, 87.387 58 C 87.395 48.575, 84.075 40.996, 77.342 35.069 C 69.634 28.285, 64.558 27, 45.462 27 L 29 27 29 39.500 " stroke="none" fill="black" fill-rule="evenodd"/>
</svg>