<svg xmlns="http://www.w3.org/2000/svg" width="100" height="100" viewBox="0 0 100 100" version="1.1">
	<path d="M 40.618 11.048 C 34.290 12.638, 25.284 17.968, 20.912 22.711 C 18.667 25.147, 15.405 30.147, 13.665 33.820 C 10.799 39.869, 10.500 41.402, 10.500 50.052 C 10.500 59.067, 10.710 60.028, 14.235 67.160 C 18.733 76.262, 24.523 81.931, 33.820 86.335 C 39.861 89.197, 41.409 89.500, 50 89.500 C 58.591 89.500, 60.139 89.197, 66.180 86.335 C 75.477 81.931, 81.267 76.262, 85.765 67.160 C 89.294 60.020, 89.500 59.075, 89.500 50 C 89.500 40.925, 89.294 39.980, 85.765 32.840 C 79.008 19.167, 67.003 11.144, 52.249 10.442 C 47.987 10.239, 42.753 10.512, 40.618 11.048 M 41.383 13.885 C 16.636 20.299, 5.471 48.702, 19.210 70.288 C 22.125 74.869, 22.339 75.003, 24.137 73.376 C 25.758 71.909, 25.825 71.458, 24.625 70.088 C 23.859 69.214, 22.169 66.475, 20.869 64 C 18.865 60.185, 18.506 58.054, 18.508 50 C 18.509 41.638, 18.828 39.901, 21.168 35.500 C 24.355 29.508, 29.868 24.066, 36 20.859 C 39.806 18.869, 41.966 18.506, 50 18.506 C 58.051 18.506, 60.186 18.866, 64 20.869 C 66.475 22.169, 69.214 23.859, 70.088 24.625 C 71.457 25.825, 71.907 25.761, 73.357 24.158 C 74.955 22.392, 74.850 22.168, 71.270 19.696 C 69.196 18.264, 65.708 16.347, 63.518 15.436 C 59.026 13.567, 46.103 12.662, 41.383 13.885 M 39.027 22.737 C 32.861 24.913, 24.830 33.115, 22.676 39.437 C 19.570 48.554, 21.103 60.909, 26.087 66.918 C 27.885 69.085, 28.251 69.178, 29.618 67.810 C 30.986 66.443, 30.931 65.935, 29.092 62.910 C 23.065 53, 24.548 41.166, 32.857 32.857 C 41.166 24.548, 53 23.065, 62.910 29.092 C 65.935 30.931, 66.443 30.986, 67.810 29.618 C 69.178 28.251, 69.085 27.885, 66.918 26.087 C 60.963 21.148, 47.955 19.585, 39.027 22.737 M 75.590 26.901 C 74.441 28.170, 74.230 29.024, 74.954 29.471 C 75.550 29.840, 77.265 32.472, 78.764 35.321 C 81.178 39.906, 81.490 41.590, 81.490 50 C 81.490 58.364, 81.173 60.098, 78.832 64.500 C 75.645 70.492, 70.132 75.934, 64 79.141 C 60.194 81.131, 58.034 81.494, 50 81.494 C 41.949 81.494, 39.814 81.134, 36 79.131 C 33.525 77.831, 30.786 76.141, 29.912 75.375 C 28.543 74.175, 28.093 74.239, 26.643 75.842 C 25.045 77.608, 25.150 77.832, 28.730 80.304 C 35.941 85.284, 39.861 86.413, 50 86.429 C 58.462 86.442, 60.153 86.127, 65.478 83.541 C 85.942 73.606, 92.991 48.883, 80.814 29.750 C 79.152 27.137, 77.683 25, 77.551 25 C 77.418 25, 76.536 25.855, 75.590 26.901 M 43.558 29.439 C 38.426 31.336, 35.031 33.904, 32.248 37.993 C 22.477 52.349, 32.600 71.398, 50 71.398 C 72.805 71.398, 79.724 40.938, 59.267 30.600 C 54.560 28.221, 48.138 27.747, 43.558 29.439 M 70.079 32.405 C 69.171 33.499, 69.361 34.545, 70.937 37.137 C 76.934 46.999, 75.436 58.850, 67.143 67.143 C 58.834 75.452, 47 76.935, 37.090 70.908 C 34.065 69.069, 33.557 69.014, 32.190 70.382 C 30.822 71.749, 30.915 72.115, 33.082 73.913 C 39.091 78.897, 51.446 80.430, 60.563 77.324 C 67.172 75.072, 75.072 67.172, 77.324 60.563 C 80.359 51.656, 79.060 40.077, 74.292 33.526 C 72.201 30.652, 71.654 30.507, 70.079 32.405 " stroke="none" fill="black" fill-rule="evenodd"/>
</svg>