<svg xmlns="http://www.w3.org/2000/svg" width="100" height="100" viewBox="0 0 100 100" version="1.1">
	<path d="M 40.618 11.048 C 34.290 12.638, 25.284 17.968, 20.912 22.711 C 18.667 25.147, 15.405 30.147, 13.665 33.820 C 10.803 39.861, 10.500 41.409, 10.500 50 C 10.500 58.706, 10.779 60.085, 13.840 66.500 L 17.180 73.500 19.065 67.500 C 20.102 64.200, 23.304 53.656, 26.179 44.068 C 31.170 27.429, 31.464 26.770, 32.646 29.568 C 35.753 36.929, 35.445 39.681, 29.206 60.317 C 25.927 71.161, 23.642 80.279, 24.129 80.580 C 25.176 81.227, 24.578 82.894, 31.314 60.525 L 36.727 42.549 38.513 48.525 C 39.495 51.811, 40.255 55.175, 40.203 56 C 40.150 56.825, 38.283 63.539, 36.054 70.919 C 33.824 78.300, 32 84.675, 32 85.087 C 32 87.146, 41.896 89.500, 50.552 89.500 C 59.007 89.500, 60.109 89.251, 67.237 85.728 C 76.251 81.273, 81.833 75.523, 86.390 66 C 89.203 60.121, 89.498 58.592, 89.481 50 C 89.464 41.686, 89.103 39.720, 86.594 34.250 C 85.017 30.813, 83.451 28.004, 83.113 28.008 C 82.776 28.013, 79.363 38.338, 75.529 50.953 C 71.694 63.569, 68.342 73.675, 68.078 73.411 C 67.815 73.148, 66.839 70.477, 65.911 67.475 L 64.222 62.019 70.598 41.296 C 74.105 29.899, 76.600 20.200, 76.142 19.742 C 75.684 19.284, 72.668 27.473, 69.440 37.940 C 66.212 48.407, 63.277 56.639, 62.918 56.235 C 62.559 55.831, 61.538 53.302, 60.648 50.617 L 59.030 45.733 63.515 31.289 C 65.982 23.344, 68 16.253, 68 15.531 C 68 11.923, 49.314 8.864, 40.618 11.048 M 33.243 26.250 C 33.495 26.938, 36.755 37.625, 40.488 50 C 44.221 62.375, 47.718 73.063, 48.260 73.750 C 48.802 74.438, 50.813 75, 52.729 75 C 55.089 75, 56.069 74.597, 55.766 73.750 C 55.519 73.063, 52.242 62.375, 48.483 50 C 44.724 37.625, 41.223 26.938, 40.702 26.250 C 40.181 25.563, 38.187 25, 36.271 25 C 33.906 25, 32.933 25.402, 33.243 26.250 M 44.008 27.750 C 44.505 29.262, 47.675 39.724, 51.053 50.997 C 54.431 62.271, 57.617 72.283, 58.132 73.247 C 58.754 74.410, 60.260 75, 62.603 75 C 65.494 75, 66.042 74.683, 65.625 73.250 C 59.931 53.720, 51.554 27.204, 50.775 26.250 C 50.214 25.563, 48.259 25, 46.430 25 C 43.249 25, 43.144 25.120, 44.008 27.750 " stroke="none" fill="black" fill-rule="evenodd"/>
</svg>