<svg xmlns="http://www.w3.org/2000/svg" width="100" height="100" viewBox="0 0 100 100" version="1.1">
	<path d="M 11.054 12.945 C 9.877 13.690, 12.850 20.487, 27.054 49.523 C 37.957 71.811, 45.341 85.756, 46.743 86.704 C 48.156 87.659, 49.948 87.979, 51.587 87.568 C 53.855 86.998, 56.483 82.234, 72.094 50.390 C 81.942 30.302, 90 13.640, 90 13.364 C 90 13.087, 89.027 13.005, 87.838 13.180 C 86.096 13.438, 83.128 18.658, 72.588 40 L 59.500 66.500 55.500 66.500 L 51.500 66.500 38.450 40.183 C 31.273 25.708, 24.748 13.453, 23.950 12.948 C 22.074 11.761, 12.929 11.759, 11.054 12.945 " stroke="none" fill="black" fill-rule="evenodd"/>
</svg>