<svg xmlns="http://www.w3.org/2000/svg" width="100" height="100" viewBox="0 0 100 100" version="1.1">
	<path d="M 40.618 11.048 C 34.290 12.638, 25.284 17.968, 20.912 22.711 C 18.667 25.147, 15.405 30.147, 13.665 33.820 C 10.799 39.869, 10.500 41.402, 10.500 50.052 C 10.500 59.067, 10.710 60.028, 14.235 67.160 C 18.733 76.262, 24.523 81.931, 33.820 86.335 C 39.861 89.197, 41.409 89.500, 50 89.500 C 58.591 89.500, 60.139 89.197, 66.180 86.335 C 75.477 81.931, 81.267 76.262, 85.765 67.160 C 89.294 60.020, 89.500 59.075, 89.500 50 C 89.500 40.925, 89.294 39.980, 85.765 32.840 C 79.008 19.167, 67.003 11.144, 52.249 10.442 C 47.987 10.239, 42.753 10.512, 40.618 11.048 M 19.243 37.250 C 19.494 37.938, 21.905 44.699, 24.600 52.275 L 29.500 66.050 36.388 65.775 L 43.275 65.500 46.366 56.750 C 48.066 51.938, 49.701 48, 50 48 C 50.299 48, 51.933 51.938, 53.632 56.750 L 56.722 65.500 61.861 65.802 C 64.687 65.969, 66.994 65.969, 66.987 65.802 C 66.980 65.636, 64.579 58.975, 61.651 51 L 56.328 36.500 49.989 36.500 L 43.650 36.500 40.113 46.246 C 37.880 52.397, 36.298 55.497, 35.825 54.651 C 35.412 53.914, 33.665 49.416, 31.943 44.656 L 28.811 36 23.798 36 C 20.211 36, 18.916 36.355, 19.243 37.250 M 70.015 39.750 C 69.108 42.941, 69.313 44.468, 71.387 50 C 72.855 53.916, 74.047 55.904, 74.384 55 C 77.122 47.664, 81 36.779, 81 36.432 C 81 36.194, 78.768 36, 76.040 36 C 71.165 36, 71.062 36.064, 70.015 39.750 " stroke="none" fill="black" fill-rule="evenodd"/>
</svg>