<?xml version="1.0" encoding="UTF-8"?>
<svg width="110px" height="110px" viewBox="0 0 110 110" version="1.1" xmlns="http://www.w3.org/2000/svg" xmlns:xlink="http://www.w3.org/1999/xlink">
    <!-- Generator: Sketch 50.2 (55047) - http://www.bohemiancoding.com/sketch -->
    <title>wbtc_colour</title>
    <desc>Created with Sketch.</desc>
    <defs></defs>
    <g id="Page-1" stroke="none" stroke-width="1" fill="none" fill-rule="evenodd">
        <g id="wbtc_colour" fill-rule="nonzero">
            <path d="M89.1,22.94 L86.1,25.94 C100.937667,42.1660445 100.937667,67.0339555 86.1,83.26 L89.1,86.26 C105.61263,68.3560643 105.61263,40.7739357 89.1,22.87 L89.1,22.94 Z" id="Shape" fill="#5A5564"></path>
            <path d="M26,23.2 C42.2260445,8.36233348 67.0939555,8.36233348 83.32,23.2 L86.32,20.2 C68.4160643,3.6873699 40.8339357,3.6873699 22.93,20.2 L26,23.2 Z" id="Shape" fill="#5A5564"></path>
            <path d="M23.2,83.29 C8.3806134,67.0683667 8.3806134,42.2216333 23.2,26 L20.2,23 C3.6873699,40.9039357 3.6873699,68.4860643 20.2,86.39 L23.2,83.29 Z" id="Shape" fill="#5A5564"></path>
            <path d="M83.29,86.06 C67.0639555,100.897667 42.1960445,100.897667 25.97,86.06 L22.97,89.06 C40.8739357,105.57263 68.4560643,105.57263 86.36,89.06 L83.29,86.06 Z" id="Shape" fill="#5A5564"></path>
            <path d="M73.58,44.63 C72.98,38.37 67.58,36.27 60.75,35.63 L60.75,27 L55.47,27 L55.47,35.46 C54.08,35.46 52.66,35.46 51.25,35.51 L51.25,27 L46,27 L46,35.68 C44.86,35.68 43.73,35.68 42.64,35.68 L35.3,35.68 L35.3,41.33 C35.3,41.33 39.2,41.26 39.14,41.33 C40.6016106,41.1692078 41.9279842,42.1949367 42.14,43.65 L42.14,67.42 C42.1092443,67.9181898 41.8805968,68.3834088 41.5049569,68.7120936 C41.1293171,69.0407785 40.6378637,69.2056479 40.14,69.17 C40.21,69.23 36.3,69.17 36.3,69.17 L35.25,75.48 L42.13,75.48 L45.91,75.48 L45.91,84.3 L51.19,84.3 L51.19,75.61 C52.5966667,75.61 54.0033333,75.61 55.41,75.61 L55.41,84.26 L60.7,84.26 L60.7,75.54 C69.62,75 75.84,72.8 76.62,64.45 C77.25,57.73 74.09,54.73 69.04,53.52 C72.11,51.96 74.04,49.21 73.58,44.63 Z M66.18,63.41 C66.18,69.97 54.94,69.22 51.36,69.22 L51.36,57.58 C54.94,57.59 66.18,56.56 66.18,63.41 Z M63.73,47 C63.73,53 54.35,52.27 51.37,52.27 L51.37,41.7 C54.35,41.7 63.73,40.76 63.73,47 Z" id="Shape" fill="#F09242"></path>
            <path d="M54.63,109.27 C24.4612883,109.264477 0.00816005831,84.8053794 0.0100010171,54.6366673 C0.0118419759,24.4679552 24.4679552,0.0118419759 54.6366673,0.0100010171 C84.8053794,0.00816005831 109.264477,24.4612883 109.27,54.63 C109.236932,84.7931311 84.7931311,109.236932 54.63,109.27 Z M54.63,4.27 C26.8345008,4.28656686 4.31264385,26.8278209 4.32000574,54.6233241 C4.32736763,82.4188272 26.861162,104.948148 54.656666,104.949991 C82.4521701,104.951834 104.988952,82.4255019 105,54.63 C104.966902,26.8316125 82.428405,4.3110136 54.63,4.3 L54.63,4.27 Z" id="Shape" fill="#282138"></path>
        </g>
    </g>
</svg>