<?xml version="1.0" encoding="UTF-8"?>
<svg width="29px" height="28px" viewBox="0 0 29 28" version="1.1" xmlns="http://www.w3.org/2000/svg" xmlns:xlink="http://www.w3.org/1999/xlink">
    <!-- Generator: Sketch 51.3 (57544) - http://www.bohemiancoding.com/sketch -->
    <title>Group 2</title>
    <desc>Created with Sketch.</desc>
    <defs></defs>
    <g id="Wallet" stroke="none" stroke-width="1" fill="none" fill-rule="evenodd">
        <g id="All-Tokens" transform="translate(-218.000000, -425.000000)">
            <g id="Group-2" transform="translate(218.000000, 425.000000)">
                <circle id="Oval-2" fill="#FF0079" fill-rule="nonzero" cx="13.0666667" cy="13.0666667" r="13.0666667"></circle>
                <rect id="Rectangle-2" fill="#000000" fill-rule="nonzero" x="1.86666667" y="22.4" width="14.9333333" height="5.6" rx="2.8"></rect>
                <path d="M13.0666667,26.1333333 C5.85014594,26.1333333 0,20.2831874 0,13.0666667 C0,5.85014594 5.85014594,0 13.0666667,0 C20.2831874,0 26.1333333,5.85014594 26.1333333,13.0666667 C26.1333333,20.2831874 20.2831874,26.1333333 13.0666667,26.1333333 Z M13.0666667,25.2 C19.7677216,25.2 25.2,19.7677216 25.2,13.0666667 C25.2,6.3656117 19.7677216,0.933333333 13.0666667,0.933333333 C6.3656117,0.933333333 0.933333333,6.3656117 0.933333333,13.0666667 C0.933333333,19.7677216 6.3656117,25.2 13.0666667,25.2 Z" id="Path" fill="#000000" fill-rule="nonzero"></path>
                <circle id="Oval-2" fill="#FFFFFF" fill-rule="nonzero" cx="15.8666667" cy="14.9333333" r="12.1333333"></circle>
                <path d="M15.8666667,28 C8.65014594,28 2.8,22.1498541 2.8,14.9333333 C2.8,7.7168126 8.65014594,1.86666667 15.8666667,1.86666667 C23.0831874,1.86666667 28.9333333,7.7168126 28.9333333,14.9333333 C28.9333333,22.1498541 23.0831874,28 15.8666667,28 Z M15.8666667,27.0666667 C22.5677216,27.0666667 28,21.6343883 28,14.9333333 C28,8.23227837 22.5677216,2.8 15.8666667,2.8 C9.1656117,2.8 3.73333333,8.23227837 3.73333333,14.9333333 C3.73333333,21.6343883 9.1656117,27.0666667 15.8666667,27.0666667 Z" id="Path" fill="#000000" fill-rule="nonzero"></path>
                <path d="M10.7349203,18.1298177 L9.40277261,18.1298177 L8.65556227,14.9798177 C8.62788768,14.8677078 8.58071578,14.6359718 8.51404516,14.2846029 C8.44737455,13.9332339 8.40900807,13.6973964 8.39894458,13.5770833 C8.38384935,13.7247403 8.34611183,13.961945 8.28573089,14.2887044 C8.22534996,14.6154639 8.17880702,14.848567 8.14610068,14.9880208 L7.40266413,18.1298177 L6.07429019,18.1298177 L4.66666667,12.1333333 L5.81767249,12.1333333 L6.52337115,15.4063802 C6.64664889,16.0106801 6.73596102,16.5343077 6.79131021,16.9772786 C6.80640545,16.8214185 6.84099817,16.5801123 6.89508943,16.2533529 C6.94918068,15.9265934 7.00012633,15.6729827 7.0479279,15.492513 L7.85174509,12.1333333 L8.95746544,12.1333333 L9.76128263,15.492513 C9.79650484,15.6429044 9.84053194,15.8725896 9.89336526,16.1815755 C9.94619858,16.4905614 9.98645193,16.7557932 10.0141265,16.9772786 C10.0392853,16.7639963 10.0795386,16.498081 10.1348878,16.1795247 C10.190237,15.8609685 10.2405537,15.6032562 10.2858394,15.4063802 L10.9877642,12.1333333 L12.1387701,12.1333333 L10.7349203,18.1298177 Z M16.0106782,18.1298177 L12.8331474,18.1298177 L12.8331474,12.1333333 L16.0106782,12.1333333 L16.0106782,13.1751302 L14.0030221,13.1751302 L14.0030221,14.4917318 L15.871048,14.4917318 L15.871048,15.5335286 L14.0030221,15.5335286 L14.0030221,17.0798177 L16.0106782,17.0798177 L16.0106782,18.1298177 Z M19.2901014,18.1298177 L18.1202266,18.1298177 L18.1202266,13.1915365 L16.6220321,13.1915365 L16.6220321,12.1333333 L20.7882958,12.1333333 L20.7882958,13.1915365 L19.2901014,13.1915365 L19.2901014,18.1298177 Z M26.1583984,18.1298177 L24.9922975,18.1298177 L24.9922975,15.5417318 L22.8072733,15.5417318 L22.8072733,18.1298177 L21.6373985,18.1298177 L21.6373985,12.1333333 L22.8072733,12.1333333 L22.8072733,14.4835286 L24.9922975,14.4835286 L24.9922975,12.1333333 L26.1583984,12.1333333 L26.1583984,18.1298177 Z" id="WETH" fill="#000000"></path>
            </g>
        </g>
    </g>
</svg>