<svg xmlns="http://www.w3.org/2000/svg" width="100" height="100" viewBox="0 0 100 100" version="1.1">
	<path d="M 9 23.258 C 9.275 23.517, 16.925 25.666, 26 28.035 C 35.075 30.404, 43.063 32.770, 43.750 33.294 C 46.929 35.713, 44.396 36.126, 29.750 35.577 L 14.500 35.005 27.947 38.753 L 41.394 42.500 44.172 51.500 C 46.887 60.293, 46.907 60.535, 45.049 62 C 44.003 62.825, 37.278 67.976, 30.104 73.447 C 22.930 78.917, 17.203 83.536, 17.377 83.710 C 17.551 83.884, 32.050 77.969, 49.597 70.564 L 81.500 57.102 81.792 50.133 L 82.084 43.164 85.286 44.082 C 87.046 44.587, 88.802 45, 89.188 45 C 90.174 45, 84.682 33.073, 83.677 33.033 C 83.224 33.015, 79.671 35.491, 75.781 38.535 C 71.890 41.579, 68.333 43.941, 67.876 43.785 C 67.419 43.628, 64.661 39.450, 61.746 34.500 L 56.448 25.500 49.474 24.878 C 38.988 23.943, 8.428 22.720, 9 23.258 " stroke="none" fill="black" fill-rule="evenodd"/>
</svg>