<svg xmlns="http://www.w3.org/2000/svg" width="100" height="100" viewBox="0 0 100 100" version="1.1">
	<path d="M 18.498 26.829 C 15.198 27.748, 11.935 28.864, 11.248 29.309 C 9.637 30.353, 9.447 63.540, 11.047 64.529 C 11.624 64.885, 14.324 64.642, 17.047 63.989 L 22 62.801 22 52.400 C 22 43.333, 22.256 41.744, 24 40 C 25.100 38.900, 26.696 38, 27.548 38 C 28.811 38, 29.041 36.853, 28.798 31.750 C 28.448 24.416, 27.976 24.190, 18.498 26.829 M 48.498 26.829 C 45.198 27.748, 41.935 28.864, 41.248 29.309 C 39.785 30.257, 39.457 61.595, 40.886 63.851 C 41.595 64.969, 42.709 64.985, 47.371 63.941 L 53 62.682 53 51.794 L 53 40.907 56.027 39.203 C 58.930 37.569, 59.042 37.256, 58.777 31.500 C 58.451 24.446, 57.921 24.205, 48.498 26.829 M 79.498 26.829 C 76.198 27.748, 72.935 28.864, 72.248 29.309 C 70.629 30.358, 70.448 63.541, 72.056 64.535 C 73.293 65.299, 86.909 62.194, 88.773 60.722 C 89.735 59.963, 89.979 55.535, 89.773 42.608 C 89.459 22.936, 90.076 23.883, 79.498 26.829 M 29 40.306 L 25.500 41.500 25.226 58.926 C 25.035 71.035, 25.295 76.564, 26.077 77.048 C 27.537 77.950, 42.260 74.187, 43.229 72.664 C 44.705 70.343, 43.943 68.082, 41.250 66.793 L 38.500 65.476 38.221 52.238 L 37.942 39 35.221 39.056 C 33.724 39.087, 30.925 39.650, 29 40.306 M 60.299 40.106 C 58.539 40.615, 56.846 41.440, 56.537 41.940 C 55.606 43.447, 54.670 69.425, 55.405 73.347 C 56.215 77.664, 57.544 77.890, 67.461 75.399 C 72.814 74.055, 73.935 73.396, 74.466 71.281 C 74.813 69.897, 74.963 68.681, 74.799 68.579 C 68.514 64.694, 69 65.952, 69 53.559 C 69 47.291, 68.727 41.452, 68.393 40.582 C 67.725 38.841, 65.189 38.692, 60.299 40.106 " stroke="none" fill="black" fill-rule="evenodd"/>
</svg>