<svg xmlns="http://www.w3.org/2000/svg" width="100" height="100" viewBox="0 0 100 100" version="1.1">
	<path d="M 19 18.649 L 19 27.299 29.692 38.149 L 40.385 49 50.590 49 L 60.796 49 71.398 37.632 L 82 26.265 82 18.132 C 82 13.660, 81.668 10, 81.262 10 C 80.856 10, 73.709 16.803, 65.381 25.119 L 50.239 40.237 35.484 25.119 C 27.369 16.803, 20.340 10, 19.865 10 C 19.389 10, 19 13.892, 19 18.649 M 20.035 18.406 L 20 26.311 29.717 36.406 C 41.945 49.108, 42.402 49.353, 46.121 45.191 C 47.704 43.419, 48.982 41.638, 48.959 41.234 C 48.937 40.830, 42.428 33.750, 34.494 25.500 L 20.070 10.500 20.035 18.406 M 62.818 29.083 L 45.135 47.500 52.264 47.798 L 59.393 48.096 70.242 37.247 L 81.091 26.398 80.796 18.531 L 80.500 10.665 62.818 29.083 M 30.772 60.750 C 25.300 66.112, 20.188 71.715, 19.412 73.200 C 17.741 76.397, 17.504 88.575, 19.093 89.558 C 19.720 89.945, 27.898 82.384, 38.231 71.867 C 48.156 61.765, 55.089 54.875, 53.638 56.555 C 52.187 58.235, 51 60.041, 51 60.568 C 51 61.678, 79.158 90, 80.263 90 C 80.668 90, 81 86.280, 81 81.734 L 81 73.467 69.734 62.234 L 58.469 51 49.594 51 L 40.720 51 30.772 60.750 " stroke="none" fill="black" fill-rule="evenodd"/>
</svg>