<svg xmlns="http://www.w3.org/2000/svg" width="100" height="100" viewBox="0 0 100 100" version="1.1">
	<path d="M 40.500 11.409 C 35.475 12.654, 29.191 15.630, 25.533 18.496 C 23.646 19.975, 24.090 20.563, 36.519 33.019 L 49.472 46.001 62.663 32.837 C 75.796 19.732, 75.845 19.666, 73.677 17.974 C 67.778 13.370, 57.028 9.905, 49.201 10.085 C 47.165 10.132, 43.250 10.728, 40.500 11.409 M 13.697 33.750 C 10.799 39.869, 10.500 41.388, 10.500 50 C 10.500 58.591, 10.803 60.139, 13.665 66.180 C 19.339 78.157, 29.067 86.027, 41.885 89.011 C 68.389 95.180, 94.094 70.345, 89.124 43.371 C 87.925 36.861, 83.736 27, 82.170 27 C 81.732 27, 80.150 28.278, 78.654 29.839 L 75.933 32.679 78.128 37.589 C 81.496 45.127, 81.321 55.779, 77.707 63.166 C 72.259 74.301, 62.510 80.377, 49.994 80.437 C 43.778 80.467, 41.517 79.998, 36.834 77.707 C 30.315 74.518, 24.695 68.748, 21.652 62.122 C 18.684 55.660, 18.764 44.383, 21.826 37.576 L 24.041 32.652 21.334 29.826 C 19.844 28.272, 18.236 27, 17.760 27 C 17.284 27, 15.456 30.038, 13.697 33.750 M 29.098 43.149 C 26.763 49.847, 28.875 59.819, 33.805 65.374 C 36.594 68.516, 45.100 71.980, 50.054 71.990 C 56.829 72.005, 64.523 67.822, 68.103 62.177 C 71.497 56.826, 72.461 52.548, 71.583 46.743 C 70.345 38.553, 69.935 38.629, 59.530 48.980 L 50 58.460 40.731 49.230 C 35.633 44.154, 31.177 40, 30.829 40 C 30.481 40, 29.702 41.417, 29.098 43.149 " stroke="none" fill="black" fill-rule="evenodd"/>
</svg>