<svg xmlns="http://www.w3.org/2000/svg" width="100" height="100" viewBox="0 0 100 100" version="1.1">
	<path d="M 22.256 11.087 C 17.720 12.439, 12.289 18.215, 10.979 23.079 C 10.270 25.710, 9.988 36.159, 10.188 52.336 C 10.489 76.581, 10.584 77.635, 12.800 81.200 C 14.066 83.234, 16.766 85.934, 18.800 87.200 C 22.427 89.455, 23.042 89.500, 50 89.500 C 76.958 89.500, 77.573 89.455, 81.200 87.200 C 83.234 85.934, 85.934 83.234, 87.200 81.200 C 89.455 77.573, 89.500 76.958, 89.500 50 C 89.500 23.042, 89.455 22.427, 87.200 18.800 C 85.934 16.766, 83.234 14.066, 81.200 12.800 C 77.610 10.568, 76.727 10.494, 51.500 10.310 C 37.033 10.204, 24.061 10.549, 22.256 11.087 M 42.535 38 C 37.640 45.923, 34.068 52.734, 34.381 53.549 C 34.784 54.600, 36.637 55, 41.096 55 L 47.256 55 46.657 58.750 C 46.328 60.813, 45.761 65.700, 45.399 69.610 C 44.753 76.564, 45.380 78.619, 47.708 77.180 C 49.282 76.208, 67 46.106, 67 44.405 C 67 43.341, 65.403 43, 60.415 43 L 53.830 43 54.165 33.780 C 54.662 20.110, 53.279 20.612, 42.535 38 " stroke="none" fill="black" fill-rule="evenodd"/>
</svg>