<svg xmlns="http://www.w3.org/2000/svg" width="100" height="100" viewBox="0 0 100 100" version="1.1">
	<path d="M 40.746 11.022 C 38.681 11.544, 34.728 13.118, 31.960 14.520 C 2.755 29.320, 3.101 70.639, 32.554 85.500 C 38.133 88.315, 39.210 88.500, 50 88.500 C 60.792 88.500, 61.866 88.315, 67.438 85.500 C 75.277 81.539, 82.563 74.041, 86.385 66 C 89.123 60.241, 89.476 58.474, 89.487 50.500 C 89.496 44.460, 88.923 39.856, 87.746 36.500 C 84.263 26.571, 74.290 16.431, 64.286 12.649 C 58.686 10.532, 46.122 9.663, 40.746 11.022 M 41.396 21.354 C 36.540 22.950, 28.487 28.288, 27.652 30.465 C 27.142 31.794, 28.734 32, 39.531 32 C 46.389 32, 52 32.248, 52 32.552 C 52 32.855, 50.987 34.877, 49.750 37.044 L 47.500 40.985 34.719 40.992 C 20.016 41.001, 20.462 40.702, 20.561 50.500 C 20.724 66.640, 33.895 79.345, 50.536 79.415 C 58.599 79.449, 66.397 76.327, 71.468 71.034 L 74.374 68 54.187 68 C 43.084 68, 34 67.786, 34 67.524 C 34 67.262, 38.544 59.162, 44.099 49.524 L 54.198 32 60.158 32 C 63.436 32, 65.925 32.337, 65.689 32.750 C 54.875 51.655, 52 56.829, 52 57.383 C 52 57.753, 58.188 57.931, 65.750 57.778 L 79.500 57.500 79.800 51.159 C 80.582 34.629, 68.779 21.513, 52.152 20.436 C 48.103 20.174, 43.894 20.533, 41.396 21.354 M 77.062 27.435 L 74.798 29.844 77.987 36.322 C 80.678 41.788, 81.176 43.927, 81.176 50 C 81.176 56.070, 80.677 58.213, 77.993 63.666 C 74.943 69.862, 74.883 70.213, 76.560 72.066 C 78.986 74.747, 80.175 74.484, 82.566 70.738 C 90.201 58.770, 90.820 44.102, 84.211 31.733 C 80.660 25.087, 79.770 24.552, 77.062 27.435 " stroke="none" fill="black" fill-rule="evenodd"/>
</svg>