<svg xmlns="http://www.w3.org/2000/svg" width="100" height="100" viewBox="0 0 100 100" version="1.1">
	<path d="M 51.637 15.484 L 42.774 20.780 50.137 24.988 C 63.401 32.569, 62.430 31.149, 63 43.791 L 63.500 54.874 72 50.064 L 80.500 45.253 80.779 33.371 L 81.058 21.489 71.166 15.745 C 65.725 12.585, 61.100 10.043, 60.887 10.095 C 60.674 10.146, 56.512 12.572, 51.637 15.484 M 41.193 26.222 C 41.486 30.253, 41.780 30.602, 47.712 33.970 L 53.925 37.498 54.212 44.793 C 54.490 51.826, 54.618 52.164, 57.783 54.163 L 61.066 56.238 60.783 44.440 L 60.500 32.641 51.500 27.338 C 46.550 24.421, 42.137 22.027, 41.693 22.017 C 41.248 22.008, 41.023 23.900, 41.193 26.222 M 22.208 33.118 L 12 39.102 12.015 49.801 C 12.024 55.685, 12.361 60.975, 12.765 61.555 C 13.495 62.603, 29.408 72, 30.453 72 C 30.754 72, 31 66.913, 31 60.696 L 31 49.392 40.500 44 C 45.725 41.035, 50 38.318, 50 37.963 C 50 37.608, 47.862 36.133, 45.250 34.686 C 42.638 33.238, 38.681 30.947, 36.458 29.594 L 32.416 27.135 22.208 33.118 M 41.750 44.643 L 32 50.219 32 61.693 C 32 68.003, 32.337 73.002, 32.750 72.801 C 39.394 69.564, 39 70.242, 39 62.052 L 39 54.426 45.500 50.688 C 51.783 47.074, 52 46.816, 52 42.975 C 52 40.789, 51.888 39.015, 51.750 39.033 C 51.612 39.052, 47.112 41.576, 41.750 44.643 M 45.742 52.914 C 44.226 53.886, 42.737 54.930, 42.434 55.232 C 41.933 55.734, 58.002 65.407, 60.610 66.174 C 61.220 66.353, 66.069 64.043, 71.384 61.040 L 81.049 55.580 77.341 53.343 L 73.634 51.105 69.567 53.614 C 61.406 58.647, 61.664 58.629, 54.970 54.642 C 51.608 52.639, 48.776 51.033, 48.678 51.073 C 48.580 51.113, 47.259 51.942, 45.742 52.914 M 71.500 62.512 C 66.550 65.494, 62.103 67.948, 61.619 67.967 C 61.134 67.985, 56.806 65.750, 52 63 C 47.194 60.250, 42.754 58, 42.131 58 C 40.478 58, 40.589 77.416, 42.250 78.785 C 42.938 79.351, 47.478 82.109, 52.339 84.913 L 61.179 90.012 71.089 84.450 L 81 78.887 81 67.944 C 81 61.925, 80.888 57.020, 80.750 57.045 C 80.612 57.070, 76.450 59.530, 71.500 62.512 " stroke="none" fill="black" fill-rule="evenodd"/>
</svg>