<svg xmlns="http://www.w3.org/2000/svg" width="100" height="100" viewBox="0 0 100 100" version="1.1">
	<path d="M 26.060 12.110 L 21.620 14.079 33.709 19.939 C 40.358 23.162, 50.344 27.938, 55.899 30.551 L 66 35.302 66 41.151 C 66 44.368, 66.441 47, 66.980 47 C 67.519 47, 69.769 46.276, 71.980 45.391 L 76 43.783 76 37.581 L 76 31.380 53.750 20.674 C 41.512 14.785, 31.275 10.007, 31 10.054 C 30.725 10.102, 28.502 11.027, 26.060 12.110 M 20 20.939 L 20 26.783 35 34.066 C 43.250 38.072, 50 41.636, 50 41.986 C 50 42.337, 43.250 45.825, 35 49.738 L 20 56.852 20 62.763 L 20 68.674 30.750 73.720 C 36.663 76.495, 46.787 81.277, 53.250 84.345 L 65 89.925 65 84.132 L 65 78.339 49.750 71.076 L 34.500 63.813 49.750 56.171 L 65 48.530 65 42.484 C 65 36.821, 64.826 36.369, 62.250 35.342 C 60.737 34.739, 50.612 29.937, 39.750 24.671 L 20 15.095 20 20.939 M 70.750 51.264 L 66 53.250 66 71.621 L 66 89.992 71.250 87.996 C 74.138 86.899, 76.612 86.001, 76.750 86.001 C 77.400 85.999, 76.905 50.065, 76.250 49.698 C 75.838 49.467, 73.362 50.171, 70.750 51.264 " stroke="none" fill="black" fill-rule="evenodd"/>
</svg>