<?xml version="1.0" encoding="UTF-8"?>
<svg width="80px" height="80px" viewBox="0 0 80 80" version="1.1" xmlns="http://www.w3.org/2000/svg" xmlns:xlink="http://www.w3.org/1999/xlink">
    <!-- Generator: Sketch 55.2 (78181) - https://sketchapp.com -->
    <title>metamask copy 3</title>
    <desc>Created with Sketch.</desc>
    <g id="Dashboard" stroke="none" stroke-width="1" fill="none" fill-rule="evenodd">
        <g id="dashboard" transform="translate(-852.000000, -767.000000)">
            <g id="MEW-dapps" transform="translate(317.000000, 682.000000)">
                <g id="metamask-copy-3" transform="translate(471.000000, 56.000000)">
                    <g id="Group-42" transform="translate(64.000000, 29.000000)">
                        <g id="Group-39" transform="translate(10.912180, 14.949359)">
                            <polygon id="Path-2" fill="#FFFFFF" points="0.91647328 30.0460262 30.2402403 1.1521279 53.6033255 2.12906807 53.6033255 25.313902 25.5878201 53.4573318"></polygon>
                            <g id="price-tag" transform="translate(0.087820, 0.050641)">
                                <path d="M53.0072632,0 L30.3339042,0 C29.8054304,0 29.2984782,0.209901354 28.9246407,0.583738321 L0.583672602,28.9252036 C-0.194557534,29.7034328 -0.194557534,30.9652322 0.583672602,31.7431957 L23.2567659,54.4162617 C23.6460139,54.8052434 24.1561545,55 24.6660294,55 C25.1759043,55 25.6860449,54.8055091 26.0752928,54.4162617 L54.4165267,26.0747964 C54.7900984,25.7012251 55,25.1942735 55,24.6658003 L55,1.99273437 C55,0.892213602 54.108051,0 53.0072632,0 Z M51.0147921,23.8405426 L24.6657637,50.1892735 L4.81066585,30.3341997 L31.1594286,3.98546874 L51.0147921,3.98546874 L51.0147921,23.8405426 L51.0147921,23.8405426 Z" id="Shape" fill="#003945" fill-rule="nonzero"></path>
                                <circle id="Oval" fill="#05C0A5" cx="43.0833333" cy="11.9166667" r="3.66666667"></circle>
                                <path d="M43.0833968,16.5 C44.3080858,16.5 45.4596834,16.0232903 46.3260209,15.1575417 C48.1137178,13.3704384 48.1135147,10.462692 46.3256149,8.67558871 C45.4594803,7.81004302 44.3078828,7.33333333 43.0831937,7.33333333 C41.8585047,7.33333333 40.7069071,7.81004302 39.8407726,8.67579166 C38.0530758,10.4628949 38.0530758,13.3706414 39.8407726,15.1577446 C40.7069071,16.0232903 41.8585047,16.5 43.0833968,16.5 Z M41.9945361,10.8279867 C42.285278,10.5373745 42.6720539,10.3772536 43.0831937,10.3772536 C43.4945366,10.3772536 43.8815156,10.5373745 44.1720544,10.8279867 C44.7726231,11.4282878 44.7726231,12.4048426 44.1724605,13.0049407 C43.8815156,13.2957559 43.4947396,13.4558768 43.0833968,13.4558768 C42.6720539,13.4558768 42.2850749,13.2957559 41.9945361,13.0051436 C41.3941705,12.4048426 41.3941705,11.4282878 41.9945361,10.8279867 Z" id="Shape" fill="#003945" fill-rule="nonzero"></path>
                                <text id="WWW" transform="translate(34.363576, 29.995385) rotate(-45.000000) translate(-34.363576, -29.995385) " font-family="ArialRoundedMTBold, Arial Rounded MT Bold" font-size="10" font-weight="normal" fill="#003945">
                                    <tspan x="16.0719096" y="27.9953854">WWW</tspan>
                                </text>
                            </g>
                        </g>
                    </g>
                </g>
            </g>
        </g>
    </g>
</svg>