<?xml version="1.0" encoding="UTF-8"?>
<svg width="80px" height="80px" viewBox="0 0 80 80" version="1.1" xmlns="http://www.w3.org/2000/svg" xmlns:xlink="http://www.w3.org/1999/xlink">
    <!-- Generator: Sketch 55.2 (78181) - https://sketchapp.com -->
    <title>metamask copy 3</title>
    <desc>Created with Sketch.</desc>
    <g id="Dashboard" stroke="none" stroke-width="1" fill="none" fill-rule="evenodd">
        <g id="dashboard" transform="translate(-411.000000, -767.000000)">
            <g id="MEW-dapps" transform="translate(317.000000, 682.000000)">
                <g id="metamask-copy-9" transform="translate(32.000000, 57.000000)">
                    <g id="Group-40">
                        <g id="Group-41" transform="translate(62.000000, 28.000000)">
                            <g id="Group-13" transform="translate(15.000000, 13.000000)">
                                <polygon id="Rectangle" fill="#05C0A5" points="1.4483066 2.20588235 47.771836 2.20588235 47.771836 13.2352941 1.4483066 13.2352941"></polygon>
                                <g id="browser">
                                    <rect id="Rectangle-4" fill="#FFFFFF" x="1.51515152" y="13.6363636" width="46.2121212" height="33.3333333"></rect>
                                    <path d="M45.6054687,0 L4.39453125,0 C1.97138672,0 0,1.97138672 0,4.39453125 L0,45.6054687 C0,48.0286133 1.97138672,50 4.39453125,50 L45.6054687,50 C48.0286133,50 50,48.0286133 50,45.6054687 L50,4.39453125 C50,1.97138672 48.0287109,0 45.6054687,0 Z M47.0703125,45.6054688 C47.0703125,46.4131836 46.4132812,47.0703125 45.6054687,47.0703125 L4.39453125,47.0703125 C3.58681641,47.0703125 2.9296875,46.4131836 2.9296875,45.6054688 L2.9296875,14.6484375 L47.0703125,14.6484375 L47.0703125,45.6054688 Z M47.0703125,11.71875 L2.9296875,11.71875 L2.9296875,4.39453125 C2.9296875,3.58681641 3.58681641,2.9296875 4.39453125,2.9296875 L45.6054687,2.9296875 C46.4131836,2.9296875 47.0703125,3.58681641 47.0703125,4.39453125 L47.0703125,11.71875 Z" id="Shape" stroke="#003945" stroke-width="0.5" fill="#003945" fill-rule="nonzero"></path>
                                    <path d="M42.1296296,5.55555556 L39.3518519,5.55555556 C38.5848148,5.55555556 37.962963,6.17740741 37.962963,6.94444444 C37.962963,7.71148148 38.5848148,8.33333333 39.3518519,8.33333333 L42.1296296,8.33333333 C42.8966667,8.33333333 43.5185185,7.71148148 43.5185185,6.94444444 C43.5185185,6.17740741 42.8966667,5.55555556 42.1296296,5.55555556 Z" id="Shape" stroke="#003945" stroke-width="0.5" fill="#003945" fill-rule="nonzero"></path>
                                    <path d="M33.7962963,5.55555556 L31.0185185,5.55555556 C30.2514815,5.55555556 29.6296296,6.17740741 29.6296296,6.94444444 C29.6296296,7.71148148 30.2514815,8.33333333 31.0185185,8.33333333 L33.7962963,8.33333333 C34.5633333,8.33333333 35.1851852,7.71148148 35.1851852,6.94444444 C35.1851852,6.17740741 34.5633333,5.55555556 33.7962963,5.55555556 Z" id="Shape" stroke="#003945" stroke-width="0.5" fill="#003945" fill-rule="nonzero"></path>
                                    <path d="M25.462963,5.55555556 L22.6851852,5.55555556 C21.9181481,5.55555556 21.2962963,6.17740741 21.2962963,6.94444444 C21.2962963,7.71148148 21.9181481,8.33333333 22.6851852,8.33333333 L25.462963,8.33333333 C26.23,8.33333333 26.8518519,7.71148148 26.8518519,6.94444444 C26.8518519,6.17740741 26.23,5.55555556 25.462963,5.55555556 Z" id="Shape" stroke="#003945" stroke-width="0.5" fill="#003945" fill-rule="nonzero"></path>
                                    <path d="M25.462963,17.5925926 C18.0599074,17.5925926 12.037037,23.615463 12.037037,31.0185185 C12.037037,38.4215741 18.0599074,44.4444444 25.462963,44.4444444 C32.866118,44.4444444 38.8888889,38.4215741 38.8888889,31.0185185 C38.8888889,23.615463 32.866118,17.5925926 25.462963,17.5925926 Z M35.7983402,29.526749 L31.395631,29.526749 C31.2705213,26.7234156 30.7954424,24.1123217 30.024297,22.0559671 C29.9551783,21.8715844 29.8845679,21.6965501 29.8131619,21.5264883 C32.9727298,22.9803669 35.2868621,25.9661934 35.7983402,29.526749 Z M15.1275857,32.5102881 L19.5302949,32.5102881 C19.6554047,35.3136214 20.1304835,37.9247154 20.9016289,39.98107 C20.9707476,40.1654527 21.041358,40.340487 21.1127641,40.5105487 C17.9532956,39.0566701 15.6391632,36.0708436 15.1275857,32.5102881 Z M20.9016289,22.0560665 C20.1304835,24.1124211 19.6554047,26.7235151 19.5302949,29.5268484 L15.1275857,29.5268484 C15.6391632,25.9662929 17.9532956,22.9803669 21.1127641,21.5265878 C21.041358,21.6966495 20.9707476,21.8716838 20.9016289,22.0560665 Z M27.2307099,38.9334499 C26.4570782,40.9965672 25.6756893,41.4609053 25.462963,41.4609053 C25.2502366,41.4609053 24.4689472,40.9965672 23.695216,38.9334499 C23.0423182,37.1924554 22.6347668,34.9512209 22.5163203,32.5102881 L28.4096056,32.5102881 C28.2911591,34.9511214 27.8836077,37.1924554 27.2307099,38.9334499 Z M22.5163203,29.526749 C22.6347668,27.0859156 23.0423182,24.8445816 23.695216,23.1035871 C24.4689472,21.0404698 25.2502366,20.5761317 25.462963,20.5761317 C25.6756893,20.5761317 26.4570782,21.0404698 27.2307099,23.1035871 C27.8836077,24.8445816 28.2911591,27.0858162 28.4096056,29.526749 L22.5163203,29.526749 Z M29.8131619,40.5105487 C29.8845679,40.340487 29.9551783,40.1653532 30.024297,39.98107 C30.7954424,37.9247154 31.2705213,35.3136214 31.395631,32.5102881 L35.7983402,32.5102881 C35.2868621,36.0708436 32.9727298,39.0567695 29.8131619,40.5105487 Z" id="Shape" stroke="#003945" stroke-width="0.5" fill="#003945" fill-rule="nonzero"></path>
                                </g>
                            </g>
                        </g>
                    </g>
                </g>
            </g>
        </g>
    </g>
</svg>