<svg width="37" height="37" xmlns="http://www.w3.org/2000/svg"><g fill="none"><circle fill="#FFF" cx="17.909" cy="18.606" r="15.333"/><path d="M18.606.485C8.598.485.485 8.598.485 18.606c0 10.009 8.113 18.121 18.121 18.121 10.009 0 18.121-8.112 18.121-18.12 0-10.009-8.112-18.122-18.12-18.122m-.143 30.413c-5.849 0-10.863-4.992-10.863-11.15 0-1.445.261-3.114.737-4.382l4.668 2.093a19.86 19.86 0 00-.056.26 6.31 6.31 0 00-.242 1.475c-.01.1-.014.2-.01.3 0 .022.002.045.004.068.02 1.83.83 3.55 2.198 4.678 1.368 1.128 3.149 1.541 4.84 1.124l2.654 4.743a10.098 10.098 0 01-3.926.791m-1.936-12.492l8.103-.038c-.29-3.09-3.31-5.598-6.16-5.598-.646 0-1.288.112-1.9.334l-2.804-5.008a10.796 10.796 0 014.703-1.075c6.238 0 11.57 5.414 11.57 11.97 0 1.768-.218 3.535-.878 5.042l-12.634-5.627z" fill="#1896A4"/></g></svg>