<?xml version="1.0" encoding="utf-8"?>
<!-- Generator: Adobe Illustrator 23.0.1, SVG Export Plug-In . SVG Version: 6.00 Build 0)  -->
<svg version="1.1" id="Layer_1" xmlns="http://www.w3.org/2000/svg" xmlns:xlink="http://www.w3.org/1999/xlink" x="0px" y="0px"
	 viewBox="0 0 36 24" style="enable-background:new 0 0 36 24;" xml:space="preserve">
<style type="text/css">
	.st0{fill:#FFFFFF;stroke:#000000;}
</style>
<path class="st0" d="M0.5,6.4c0-1.1,0-1.9,0.1-2.6c0.1-0.6,0.2-1.1,0.3-1.4c0.3-0.7,0.9-1.2,1.5-1.5c0.3-0.2,0.8-0.3,1.4-0.3
	c0.6-0.1,1.5-0.1,2.6-0.1h23.2c1.1,0,1.9,0,2.6,0.1c0.6,0.1,1.1,0.2,1.4,0.3c0.7,0.3,1.2,0.9,1.5,1.5c0.2,0.3,0.3,0.8,0.3,1.4
	c0.1,0.6,0.1,1.5,0.1,2.6v11.2c0,1.1,0,1.9-0.1,2.6c-0.1,0.6-0.2,1.1-0.3,1.4c-0.3,0.7-0.9,1.2-1.5,1.5c-0.3,0.2-0.8,0.3-1.4,0.3
	c-0.6,0.1-1.5,0.1-2.6,0.1H6.4c-1.1,0-1.9,0-2.6-0.1c-0.6-0.1-1.1-0.2-1.4-0.3c-0.7-0.3-1.2-0.9-1.5-1.5c-0.2-0.3-0.3-0.8-0.3-1.4
	c-0.1-0.6-0.1-1.5-0.1-2.6V6.4z"/>
<path id="XMLID_34_" d="M9.8,8.1C9.5,8.4,9,8.7,8.6,8.7C8.5,8.2,8.7,7.7,9,7.4C9.3,7,9.8,6.7,10.3,6.7C10.3,7.2,10.1,7.7,9.8,8.1
	 M10.3,8.8C9.6,8.7,9,9.2,8.6,9.2c-0.3,0-0.8-0.4-1.4-0.4c-0.7,0-1.4,0.4-1.8,1.1c-0.8,1.3-0.2,3.2,0.5,4.3c0.4,0.5,0.8,1.1,1.3,1.1
	c0.5,0,0.7-0.3,1.4-0.3c0.6,0,0.8,0.3,1.4,0.3c0.6,0,1-0.5,1.3-1C11.9,13.6,12,13,12,13c0,0-1.1-0.4-1.1-1.7c0-1.1,0.9-1.6,0.9-1.6
	C11.3,8.9,10.5,8.8,10.3,8.8 M14.3,7.3v7.9h1.2v-2.7h1.7c1.5,0,2.6-1.1,2.6-2.6s-1.1-2.6-2.6-2.6L14.3,7.3L14.3,7.3z M15.5,8.3h1.4
	c1.1,0,1.7,0.6,1.7,1.6s-0.6,1.6-1.7,1.6h-1.4V8.3z M22.1,15.2c0.8,0,1.5-0.4,1.8-1h0v0.9H25v-3.9c0-1.1-0.9-1.9-2.3-1.9
	c-1.3,0-2.3,0.7-2.3,1.8h1.1c0.1-0.5,0.5-0.8,1.2-0.8c0.7,0,1.2,0.3,1.2,1v0.4l-1.5,0.1c-1.4,0.1-2.2,0.7-2.2,1.7
	C20.1,14.5,20.9,15.2,22.1,15.2z M22.4,14.3c-0.6,0-1.1-0.3-1.1-0.8c0-0.5,0.4-0.8,1.2-0.8l1.4-0.1V13
	C23.8,13.8,23.2,14.3,22.4,14.3z M26.5,17.3c1.2,0,1.7-0.5,2.2-1.8l2.1-6h-1.2l-1.4,4.6h0l-1.4-4.6h-1.3l2.1,5.7l-0.1,0.3
	c-0.2,0.6-0.5,0.8-1,0.8c-0.1,0-0.3,0-0.4,0v0.9C26.1,17.3,26.4,17.3,26.5,17.3z"/>
</svg>
