<?xml version="1.0" encoding="utf-8"?>
<!-- Generator: Adobe Illustrator 23.0.1, SVG Export Plug-In . SVG Version: 6.00 Build 0)  -->
<svg version="1.1" id="Layer_1" xmlns="http://www.w3.org/2000/svg" xmlns:xlink="http://www.w3.org/1999/xlink" x="0px" y="0px"
	 viewBox="0 0 36 24" style="enable-background:new 0 0 36 24;" xml:space="preserve">
<style type="text/css">
	.st0{fill:#224DBA;}
	.st1{fill-rule:evenodd;clip-rule:evenodd;fill:#FFFFFF;}
</style>
<path class="st0" d="M0,6.4C0,4.2,0,3,0.4,2.2s1-1.4,1.7-1.7C3,0,4.2,0,6.4,0h23.2c2.2,0,3.4,0,4.2,0.4s1.4,1,1.7,1.7
	C36,3,36,4.2,36,6.4v11.2c0,2.2,0,3.4-0.4,4.2s-1,1.4-1.7,1.7C33,24,31.8,24,29.6,24H6.4c-2.2,0-3.4,0-4.2-0.4s-1.4-1-1.7-1.7
	C0,21,0,19.8,0,17.6V6.4z"/>
<path class="st1" d="M11.1,16.4H8.7l-1.8-7C6.7,9,6.6,8.8,6.3,8.7C5.6,8.4,5,8,4.1,7.9V7.7h3.9c0.6,0,1,0.4,1,0.9l0.9,5.1l2.5-6h2.4
	L11.1,16.4z M16,16.4h-2.3l1.8-8.9h2.3L16,16.4z M20.9,10.1c0.1-0.5,0.5-0.8,0.9-0.8c0.6-0.1,1.6,0.1,2.1,0.5l0.5-1.9
	c-0.6-0.2-1.4-0.4-2-0.4c-2.1,0-3.9,1.3-3.9,3c0,1.3,1.1,1.9,1.9,2.4c0.9,0.5,1.3,0.6,1.1,1.1c0,0.6-0.6,0.9-1.4,0.9
	c-0.8,0-1.6-0.2-2.4-0.6l-0.5,1.9c0.8,0.4,1.7,0.5,2.5,0.5c2.5,0.1,4-1.1,4-3C23.9,11.2,20.9,11.1,20.9,10.1z M31.9,16.4l-1.8-8.9
	h-1.9c-0.5,0-0.8,0.2-0.9,0.6l-3.3,8.1h2.4l0.5-1.3h2.9l0.2,1.3L31.9,16.4L31.9,16.4z M28.5,10.1l0.6,3.3h-1.8L28.5,10.1z"/>
</svg>
