<?xml version="1.0" encoding="utf-8"?><!-- Uploaded to: SVG Repo, www.svgrepo.com, Generator: SVG Repo Mixer Tools -->
<svg width="800px" height="800px" viewBox="0 -11 70 70" fill="none" xmlns="http://www.w3.org/2000/svg">
<rect x="0.5" y="0.5" width="69" height="47" rx="5.5" fill="white" stroke="#D9D9D9"/>
<path fill-rule="evenodd" clip-rule="evenodd" d="M33.0603 31.5161V25.4741H36.1786C37.4564 25.4741 38.535 25.046 39.4142 24.2015L39.6252 23.9875C41.2313 22.2391 41.1258 19.5155 39.4142 17.898C38.5584 17.0416 37.3861 16.5778 36.1786 16.6016H31.1729V31.5161H33.0603ZM33.0605 23.6425V18.4332H36.2262C36.9063 18.4332 37.5512 18.6948 38.0319 19.1706C39.052 20.1696 39.0754 21.8347 38.0905 22.8694C37.6098 23.3809 36.9297 23.6663 36.2262 23.6425H33.0605ZM48.4293 22.1083C47.6204 21.359 46.5185 20.9784 45.1234 20.9784C43.3298 20.9784 41.9816 21.6444 41.0906 22.9646L42.7553 24.0231C43.3649 23.1192 44.1973 22.6673 45.2524 22.6673C45.9206 22.6673 46.5653 22.9171 47.0694 23.369C47.5618 23.7972 47.8432 24.4156 47.8432 25.0698V25.5098C47.1163 25.1055 46.2019 24.8914 45.0765 24.8914C43.7635 24.8914 42.7084 25.2006 41.923 25.831C41.1375 26.4613 40.739 27.2939 40.739 28.3524C40.7155 29.3158 41.1258 30.2316 41.8527 30.85C42.5912 31.5161 43.5291 31.8491 44.631 31.8491C45.9323 31.8491 46.9639 31.2663 47.7494 30.1007H47.8314V31.5161H49.6368V25.2244C49.6368 23.9042 49.2382 22.8576 48.4293 22.1083ZM43.3066 29.6369C42.9197 29.3514 42.6852 28.8876 42.6852 28.3881C42.6852 27.8291 42.9432 27.3652 43.4473 26.9965C43.9632 26.6278 44.6081 26.4375 45.3702 26.4375C46.4255 26.4256 47.2462 26.6635 47.8325 27.1392C47.8325 27.948 47.5159 28.6497 46.8945 29.2444C46.3317 29.8153 45.5696 30.1364 44.7723 30.1364C44.2446 30.1483 43.7287 29.9699 43.3066 29.6369ZM53.693 35.9999L60.0001 21.3114H57.9485L55.0295 28.6378H54.9943L52.0049 21.3114H49.9534L54.0916 30.8619L51.747 35.9999H53.693Z" fill="#3C4043"/>
<path d="M26.544 24.1659C26.544 23.5831 26.4971 23.0003 26.4034 22.4294H18.4434V25.7239H23.0037C22.8161 26.7825 22.2065 27.734 21.3155 28.3286V30.4695H24.0353C25.6296 28.9828 26.544 26.7825 26.544 24.1659Z" fill="#4285F4"/>
<path d="M18.4442 32.539C20.7185 32.539 22.6411 31.7778 24.0361 30.4695L21.3164 28.3287C20.5544 28.852 19.5814 29.1493 18.4442 29.1493C16.2403 29.1493 14.3763 27.6388 13.7081 25.6169H10.9062V27.8291C12.3365 30.7193 15.2555 32.539 18.4442 32.539Z" fill="#34A853"/>
<path d="M13.708 25.6169C13.3563 24.5584 13.3563 23.4048 13.708 22.3343V20.134H10.9058C9.69808 22.5484 9.69808 25.4029 10.9058 27.8172L13.708 25.6169Z" fill="#FBBC04"/>
<path d="M18.4442 18.8019C19.6517 18.7781 20.8123 19.242 21.6798 20.0864L24.0948 17.6363C22.559 16.1853 20.5427 15.3885 18.4442 15.4123C15.2555 15.4123 12.3365 17.2439 10.9062 20.134L13.7081 22.3462C14.3763 20.3124 16.2403 18.8019 18.4442 18.8019Z" fill="#EA4335"/>
</svg>