<svg width="348" height="349" viewBox="0 0 348 349" fill="none" xmlns="http://www.w3.org/2000/svg">
<g clip-path="url(#clip0_257:1583)">
<path d="M336 0.599976H12C5.37258 0.599976 0 5.97257 0 12.6V336.6C0 343.227 5.37259 348.6 12 348.6H336C342.627 348.6 348 343.227 348 336.6V12.6C348 5.97256 342.627 0.599976 336 0.599976Z" fill="#F9F9F9"/>
<g filter="url(#filter0_f_257:1583)">
<path d="M32 153.964C32 156.827 34.3209 159.148 37.1842 159.148H152.964C155.827 159.148 158.148 156.827 158.148 153.964V38.1842C158.148 35.3209 155.827 33 152.964 33H37.1842C34.3209 33 32 35.3209 32 38.1842V153.964ZM63.5368 69.721C63.5368 66.8578 65.8578 64.5368 68.721 64.5368H121.427C124.29 64.5368 126.611 66.8578 126.611 69.721V122.427C126.611 125.29 124.29 127.611 121.427 127.611H68.721C65.8578 127.611 63.5368 125.29 63.5368 122.427V69.721Z" fill="#ECECEC"/>
<path d="M32 311.649C32 314.512 34.3209 316.833 37.1842 316.833H152.964C155.827 316.833 158.148 314.512 158.148 311.649V195.869C158.148 193.006 155.827 190.685 152.964 190.685H37.1842C34.3209 190.685 32 193.006 32 195.869V311.649ZM63.5368 227.406C63.5368 224.543 65.8578 222.222 68.721 222.222H121.427C124.29 222.222 126.611 224.543 126.611 227.406V280.112C126.611 282.975 124.29 285.296 121.427 285.296H68.721C65.8578 285.296 63.5368 282.975 63.5368 280.112V227.406Z" fill="#ECECEC"/>
<path d="M194.869 33C192.006 33 189.685 35.3209 189.685 38.1842V153.964C189.685 156.827 192.006 159.148 194.869 159.148H310.648C313.511 159.148 315.832 156.827 315.832 153.964V38.1842C315.832 35.3209 313.511 33 310.648 33H194.869ZM284.296 122.427C284.296 125.29 281.974 127.611 279.111 127.611H226.406C223.542 127.611 221.221 125.29 221.221 122.427V69.721C221.221 66.8578 223.542 64.5368 226.406 64.5368H279.111C281.974 64.5368 284.296 66.8578 284.296 69.721V122.427Z" fill="#ECECEC"/>
<path d="M310.648 285.296H289.48C286.616 285.296 284.295 287.617 284.295 290.48V311.649C284.295 314.512 286.616 316.833 289.48 316.833H310.648C313.511 316.833 315.832 314.512 315.832 311.649V290.48C315.832 287.617 313.511 285.296 310.648 285.296Z" fill="#ECECEC"/>
<path d="M216.037 190.685H194.869C192.006 190.685 189.685 193.006 189.685 195.869V217.038C189.685 219.901 192.006 222.222 194.869 222.222H216.037C218.9 222.222 221.221 219.901 221.221 217.038V195.869C221.221 193.006 218.9 190.685 216.037 190.685Z" fill="#ECECEC"/>
<path d="M247.574 222.222H226.406C223.543 222.222 221.222 224.543 221.222 227.406V248.575C221.222 251.438 223.543 253.759 226.406 253.759H247.574C250.438 253.759 252.758 251.438 252.758 248.575V227.406C252.758 224.543 250.438 222.222 247.574 222.222Z" fill="#ECECEC"/>
<path d="M216.037 253.759H194.869C192.006 253.759 189.685 256.08 189.685 258.943V280.112C189.685 282.975 192.006 285.296 194.869 285.296H216.037C218.9 285.296 221.221 282.975 221.221 280.112V258.943C221.221 256.08 218.9 253.759 216.037 253.759Z" fill="#ECECEC"/>
<path d="M247.574 285.296H226.406C223.543 285.296 221.222 287.617 221.222 290.48V311.649C221.222 314.512 223.543 316.833 226.406 316.833H247.574C250.438 316.833 252.758 314.512 252.758 311.649V290.48C252.758 287.617 250.438 285.296 247.574 285.296Z" fill="#ECECEC"/>
<path d="M279.112 253.759H257.943C255.081 253.759 252.759 256.08 252.759 258.943V280.112C252.759 282.975 255.081 285.296 257.943 285.296H279.112C281.976 285.296 284.297 282.975 284.297 280.112V258.943C284.297 256.08 281.976 253.759 279.112 253.759Z" fill="#ECECEC"/>
<path d="M279.112 190.685H257.943C255.081 190.685 252.759 193.006 252.759 195.869V217.038C252.759 219.901 255.081 222.222 257.943 222.222H279.112C281.976 222.222 284.297 219.901 284.297 217.038V195.869C284.297 193.006 281.976 190.685 279.112 190.685Z" fill="#ECECEC"/>
<path d="M310.648 222.222H289.48C286.616 222.222 284.295 224.543 284.295 227.406V248.575C284.295 251.438 286.616 253.759 289.48 253.759H310.648C313.511 253.759 315.832 251.438 315.832 248.575V227.406C315.832 224.543 313.511 222.222 310.648 222.222Z" fill="#ECECEC"/>
</g>
<g style="mix-blend-mode:color">
<rect y="0.599976" width="348" height="348" fill="#C4C4C4"/>
</g>
<path d="M190 175C190 183.837 182.837 191 174 191C165.163 191 158 183.837 158 175C158 166.163 165.163 159 174 159" stroke="#CECECE" stroke-width="4"/>
</g>
<defs>
<filter id="filter0_f_257:1583" x="12" y="13" width="323.833" height="323.833" filterUnits="userSpaceOnUse" color-interpolation-filters="sRGB">
<feFlood flood-opacity="0" result="BackgroundImageFix"/>
<feBlend mode="normal" in="SourceGraphic" in2="BackgroundImageFix" result="shape"/>
<feGaussianBlur stdDeviation="10" result="effect1_foregroundBlur_257:1583"/>
</filter>
<clipPath id="clip0_257:1583">
<rect width="348" height="348" fill="white" transform="translate(0 0.599976)"/>
</clipPath>
</defs>
</svg>
