<svg width="349" height="348" viewBox="0 0 349 348" fill="none" xmlns="http://www.w3.org/2000/svg">
<g clip-path="url(#clip0_268:281)">
<path d="M348.674 0H0.673828V348H348.674V0Z" fill="#F9F9F9"/>
<path d="M32.6738 153.364C32.6738 156.227 34.9948 158.548 37.858 158.548H153.637C156.501 158.548 158.822 156.227 158.822 153.364V37.5841C158.822 34.7209 156.501 32.3999 153.637 32.3999H37.858C34.9948 32.3999 32.6738 34.7209 32.6738 37.5841V153.364ZM64.2106 69.1209C64.2106 66.2577 66.5316 63.9367 69.3948 63.9367H122.101C124.964 63.9367 127.285 66.2577 127.285 69.1209V121.827C127.285 124.69 124.964 127.011 122.101 127.011H69.3948C66.5316 127.011 64.2106 124.69 64.2106 121.827V69.1209Z" fill="#ECECEC"/>
<path d="M32.6738 311.049C32.6738 313.912 34.9948 316.233 37.858 316.233H153.637C156.501 316.233 158.822 313.912 158.822 311.049V195.269C158.822 192.406 156.501 190.085 153.637 190.085H37.858C34.9948 190.085 32.6738 192.406 32.6738 195.269V311.049ZM64.2106 226.806C64.2106 223.943 66.5316 221.622 69.3948 221.622H122.101C124.964 221.622 127.285 223.943 127.285 226.806V279.512C127.285 282.375 124.964 284.696 122.101 284.696H69.3948C66.5316 284.696 64.2106 282.375 64.2106 279.512V226.806Z" fill="#ECECEC"/>
<path d="M195.543 32.3999C192.679 32.3999 190.358 34.7209 190.358 37.5841V153.364C190.358 156.227 192.679 158.548 195.543 158.548H311.322C314.185 158.548 316.506 156.227 316.506 153.364V37.5841C316.506 34.7209 314.185 32.3999 311.322 32.3999H195.543ZM284.969 121.827C284.969 124.69 282.648 127.011 279.785 127.011H227.079C224.216 127.011 221.895 124.69 221.895 121.827V69.1209C221.895 66.2577 224.216 63.9367 227.079 63.9367H279.785C282.648 63.9367 284.969 66.2577 284.969 69.1209V121.827Z" fill="#ECECEC"/>
<path d="M311.322 284.696H290.153C287.29 284.696 284.969 287.017 284.969 289.88V311.048C284.969 313.912 287.29 316.233 290.153 316.233H311.322C314.185 316.233 316.506 313.912 316.506 311.048V289.88C316.506 287.017 314.185 284.696 311.322 284.696Z" fill="#ECECEC"/>
<path d="M216.711 190.085H195.543C192.679 190.085 190.358 192.406 190.358 195.269V216.438C190.358 219.301 192.679 221.622 195.543 221.622H216.711C219.574 221.622 221.895 219.301 221.895 216.438V195.269C221.895 192.406 219.574 190.085 216.711 190.085Z" fill="#ECECEC"/>
<path d="M248.248 221.622H227.08C224.216 221.622 221.896 223.943 221.896 226.806V247.975C221.896 250.838 224.216 253.159 227.08 253.159H248.248C251.111 253.159 253.432 250.838 253.432 247.975V226.806C253.432 223.943 251.111 221.622 248.248 221.622Z" fill="#ECECEC"/>
<path d="M216.711 253.159H195.543C192.679 253.159 190.358 255.48 190.358 258.343V279.512C190.358 282.375 192.679 284.696 195.543 284.696H216.711C219.574 284.696 221.895 282.375 221.895 279.512V258.343C221.895 255.48 219.574 253.159 216.711 253.159Z" fill="#ECECEC"/>
<path d="M248.248 284.696H227.08C224.216 284.696 221.896 287.017 221.896 289.88V311.048C221.896 313.912 224.216 316.233 227.08 316.233H248.248C251.111 316.233 253.432 313.912 253.432 311.048V289.88C253.432 287.017 251.111 284.696 248.248 284.696Z" fill="#ECECEC"/>
<path d="M279.786 253.159H258.617C255.755 253.159 253.433 255.48 253.433 258.343V279.512C253.433 282.375 255.755 284.696 258.617 284.696H279.786C282.65 284.696 284.97 282.375 284.97 279.512V258.343C284.97 255.48 282.65 253.159 279.786 253.159Z" fill="#ECECEC"/>
<path d="M279.786 190.085H258.617C255.755 190.085 253.433 192.406 253.433 195.269V216.438C253.433 219.301 255.755 221.622 258.617 221.622H279.786C282.65 221.622 284.97 219.301 284.97 216.438V195.269C284.97 192.406 282.65 190.085 279.786 190.085Z" fill="#ECECEC"/>
<path d="M311.322 221.622H290.153C287.29 221.622 284.969 223.943 284.969 226.806V247.975C284.969 250.838 287.29 253.159 290.153 253.159H311.322C314.185 253.159 316.506 250.838 316.506 247.975V226.806C316.506 223.943 314.185 221.622 311.322 221.622Z" fill="#ECECEC"/>
<g style="mix-blend-mode:color">
<rect x="0.673828" width="348" height="348" fill="#C4C4C4"/>
</g>
</g>
<defs>
<clipPath id="clip0_268:281">
<rect width="348" height="348" fill="white" transform="translate(0.673828)"/>
</clipPath>
</defs>
</svg>
