<svg width="52" height="53" viewBox="0 0 52 53" fill="none" xmlns="http://www.w3.org/2000/svg">
<rect x="9" y="2" width="34.9091" height="48" rx="17.4545" fill="#4B83E8"/>
<path fill-rule="evenodd" clip-rule="evenodd" d="M25.7253 12.0857C26.2474 11.9115 26.8483 12.0078 27.2479 12.3298L35.1108 18.6668C35.6564 19.1065 35.6564 19.8195 35.1108 20.2592L28.2358 25.8L35.1108 31.3408C35.6564 31.7805 35.6564 32.4935 35.1108 32.9332L27.2479 39.2702C26.8483 39.5922 26.2474 39.6885 25.7253 39.5143C25.2033 39.34 24.8629 38.9294 24.8629 38.474L24.8629 28.5184L19.385 32.9332C18.8394 33.3729 17.9548 33.3729 17.4092 32.9332C16.8636 32.4935 16.8636 31.7805 17.4092 31.3408L24.2842 25.8L17.4092 20.2592C16.8636 19.8195 16.8636 19.1065 17.4092 18.6668C17.9548 18.2271 18.8394 18.2271 19.385 18.6668L24.8629 23.0816V13.126C24.8629 12.6706 25.2033 12.26 25.7253 12.0857ZM27.6571 28.5184L32.147 32.137L27.6571 35.7556V28.5184ZM27.6571 23.0816V15.8444L32.147 19.463L27.6571 23.0816Z" fill="white"/>
</svg>
