<svg width="340" height="161" viewBox="0 0 340 161" fill="none" xmlns="http://www.w3.org/2000/svg">
<path d="M78.8098 121.15C78.8098 120.119 78.252 119.284 77.5638 119.284H1.24606C0.557907 119.284 4.57764e-05 120.119 4.57764e-05 121.15V123.481C4.57764e-05 124.511 0.557907 125.347 1.24606 125.347H77.5638C78.252 125.347 78.8098 124.511 78.8098 123.481V121.15Z" fill="#444444"/>
<path d="M94.2549 116.111C94.2549 114.912 93.2826 113.94 92.0832 113.94H78.5105C77.3111 113.94 76.3388 114.912 76.3388 116.111V128.598C76.3388 129.797 77.3111 130.77 78.5105 130.77H92.0832C93.2826 130.77 94.2549 129.797 94.2549 128.598V116.111Z" fill="#C4C4C4"/>
<path d="M94.2549 116.111C94.2549 114.912 93.2826 113.94 92.0832 113.94H78.5105C77.3111 113.94 76.3388 114.912 76.3388 116.111V128.598C76.3388 129.797 77.3111 130.77 78.5105 130.77H92.0832C93.2826 130.77 94.2549 129.797 94.2549 128.598V116.111Z" stroke="#444444"/>
<path d="M56.251 119.369C56.251 118.17 55.2787 117.197 54.0793 117.197H47.0215C45.8221 117.197 44.8499 118.17 44.8499 119.369V125.341C44.8499 126.54 45.8221 127.513 47.0215 127.513H54.0793C55.2787 127.513 56.251 126.54 56.251 125.341V119.369Z" fill="#444444"/>
<path fill-rule="evenodd" clip-rule="evenodd" d="M47.0215 119.369H54.0793L54.0793 125.341L47.0215 125.341V119.369ZM54.0793 117.197C55.2787 117.197 56.251 118.17 56.251 119.369V125.341C56.251 126.54 55.2787 127.513 54.0793 127.513H47.0215C45.8221 127.513 44.8499 126.54 44.8499 125.341V119.369C44.8499 118.17 45.8221 117.197 47.0215 117.197H54.0793Z" fill="#444444"/>
<path d="M51.9077 113.94C51.9077 111.541 53.8523 109.596 56.251 109.596H79.5961C80.1958 109.596 80.682 110.083 80.682 110.682V134.027C80.682 134.627 80.1958 135.113 79.5961 135.113H56.251C53.8523 135.113 51.9077 133.169 51.9077 130.77V113.94Z" fill="#444444"/>
<path fill-rule="evenodd" clip-rule="evenodd" d="M78.5103 111.768H56.251C55.0516 111.768 54.0794 112.74 54.0794 113.94V130.77C54.0794 131.969 55.0516 132.942 56.251 132.942H78.5103V111.768ZM56.251 109.596C53.8523 109.596 51.9077 111.541 51.9077 113.94V130.77C51.9077 133.169 53.8523 135.113 56.251 135.113H79.5961C80.1958 135.113 80.682 134.627 80.682 134.027V110.682C80.682 110.083 80.1958 109.596 79.5961 109.596H56.251Z" fill="#444444"/>
<path fill-rule="evenodd" clip-rule="evenodd" d="M122.186 114.155L128.55 120.519C128.94 120.91 128.94 121.543 128.55 121.934L122.186 128.298C121.795 128.688 121.162 128.688 120.772 128.298C120.381 127.907 120.381 127.274 120.772 126.883L125.429 122.226H102.274V120.226H125.429L120.772 115.57C120.381 115.179 120.381 114.546 120.772 114.155C121.162 113.765 121.795 113.765 122.186 114.155Z" fill="#05C0A5"/>
<path fill-rule="evenodd" clip-rule="evenodd" d="M301.239 134.571C308.435 134.571 314.269 128.737 314.269 121.541C314.269 114.345 308.435 108.511 301.239 108.511C294.043 108.511 288.209 114.345 288.209 121.541C288.209 128.737 294.043 134.571 301.239 134.571ZM301.239 136.742C309.635 136.742 316.44 129.936 316.44 121.541C316.44 113.145 309.635 106.339 301.239 106.339C292.843 106.339 286.037 113.145 286.037 121.541C286.037 129.936 292.843 136.742 301.239 136.742Z" fill="#C4C4C4"/>
<path fill-rule="evenodd" clip-rule="evenodd" d="M138.909 94.3954C138.31 94.3954 137.824 94.8815 137.824 95.4812V147.601C137.824 148.2 138.31 148.686 138.909 148.686H319.699C320.298 148.686 320.784 148.2 320.784 147.601V95.4812C320.784 94.8815 320.298 94.3954 319.699 94.3954H138.909ZM301.511 132.399C307.358 132.399 312.098 127.659 312.098 121.812C312.098 115.965 307.358 111.226 301.511 111.226C295.664 111.226 290.924 115.965 290.924 121.812C290.924 127.659 295.664 132.399 301.511 132.399Z" fill="#444444"/>
<path fill-rule="evenodd" clip-rule="evenodd" d="M139.995 96.567V146.515H318.613V96.567H139.995ZM314.269 121.812C314.269 128.859 308.557 134.571 301.511 134.571C294.465 134.571 288.753 128.859 288.753 121.812C288.753 114.766 294.465 109.054 301.511 109.054C308.557 109.054 314.269 114.766 314.269 121.812ZM137.824 95.4812C137.824 94.8815 138.31 94.3954 138.909 94.3954H319.699C320.298 94.3954 320.784 94.8815 320.784 95.4812V147.601C320.784 148.2 320.298 148.686 319.699 148.686H138.909C138.31 148.686 137.824 148.2 137.824 147.601V95.4812ZM312.098 121.812C312.098 127.659 307.358 132.399 301.511 132.399C295.664 132.399 290.924 127.659 290.924 121.812C290.924 115.965 295.664 111.226 301.511 111.226C307.358 111.226 312.098 115.965 312.098 121.812Z" fill="#444444"/>
<rect x="160.326" y="103.213" width="105.484" height="37.5862" rx="2" fill="white" fill-opacity="0.12"/>
<path d="M189.374 122.515H185.699V125.307H189.994V126.567H184.145V117.49H189.951V118.762H185.699V121.268H189.374V122.515Z" fill="#00F0FF"/>
<path d="M192.986 118.182V119.822H194.16V120.944H192.986V124.709C192.986 124.967 193.035 125.154 193.134 125.27C193.236 125.382 193.416 125.438 193.674 125.438C193.847 125.438 194.021 125.417 194.197 125.376V126.548C193.857 126.643 193.529 126.691 193.214 126.691C192.067 126.691 191.493 126.049 191.493 124.765V120.944H190.4V119.822H191.493V118.182H192.986Z" fill="#00F0FF"/>
<path d="M196.777 120.557C197.265 119.984 197.881 119.697 198.627 119.697C200.044 119.697 200.763 120.518 200.783 122.159V126.567H199.29V122.215C199.29 121.75 199.19 121.422 198.989 121.23C198.792 121.035 198.502 120.937 198.117 120.937C197.519 120.937 197.072 121.208 196.777 121.748V126.567H195.284V116.992H196.777V120.557Z" fill="#00F0FF"/>
<path d="M205.225 126.691C204.279 126.691 203.511 126.39 202.921 125.787C202.336 125.181 202.043 124.374 202.043 123.369V123.182C202.043 122.508 202.17 121.908 202.424 121.38C202.682 120.848 203.042 120.435 203.505 120.14C203.968 119.845 204.484 119.697 205.053 119.697C205.959 119.697 206.657 119.99 207.148 120.576C207.644 121.162 207.892 121.991 207.892 123.063V123.674H203.548C203.593 124.231 203.775 124.671 204.095 124.996C204.418 125.32 204.824 125.482 205.311 125.482C205.995 125.482 206.552 125.201 206.983 124.64L207.787 125.42C207.521 125.823 207.165 126.136 206.718 126.361C206.276 126.581 205.778 126.691 205.225 126.691ZM205.047 120.913C204.638 120.913 204.306 121.058 204.052 121.349C203.802 121.64 203.642 122.045 203.573 122.564H206.417V122.452C206.384 121.945 206.251 121.563 206.018 121.305C205.784 121.043 205.461 120.913 205.047 120.913Z" fill="#00F0FF"/>
<path d="M212.537 121.206C212.34 121.172 212.137 121.156 211.928 121.156C211.244 121.156 210.784 121.422 210.546 121.954V126.567H209.053V119.822H210.478L210.515 120.576C210.876 119.99 211.376 119.697 212.015 119.697C212.228 119.697 212.404 119.726 212.543 119.784L212.537 121.206Z" fill="#00F0FF"/>
<path d="M216.285 126.691C215.338 126.691 214.57 126.39 213.981 125.787C213.395 125.181 213.102 124.374 213.102 123.369V123.182C213.102 122.508 213.229 121.908 213.483 121.38C213.741 120.848 214.101 120.435 214.564 120.14C215.027 119.845 215.543 119.697 216.113 119.697C217.018 119.697 217.716 119.99 218.208 120.576C218.703 121.162 218.951 121.991 218.951 123.063V123.674H214.607C214.652 124.231 214.835 124.671 215.154 124.996C215.478 125.32 215.883 125.482 216.371 125.482C217.055 125.482 217.612 125.201 218.042 124.64L218.847 125.42C218.58 125.823 218.224 126.136 217.778 126.361C217.335 126.581 216.838 126.691 216.285 126.691ZM216.106 120.913C215.697 120.913 215.365 121.058 215.111 121.349C214.861 121.64 214.702 122.045 214.632 122.564H217.477V122.452C217.444 121.945 217.311 121.563 217.077 121.305C216.844 121.043 216.52 120.913 216.106 120.913Z" fill="#00F0FF"/>
<path d="M224.143 125.906C223.705 126.429 223.082 126.691 222.275 126.691C221.554 126.691 221.007 126.477 220.635 126.049C220.266 125.621 220.082 125.002 220.082 124.191V119.822H221.575V124.173C221.575 125.029 221.925 125.457 222.625 125.457C223.35 125.457 223.84 125.193 224.094 124.665V119.822H225.587V126.567H224.18L224.143 125.906Z" fill="#00F0FF"/>
<path d="M228.511 119.822L228.554 120.526C229.021 119.973 229.66 119.697 230.471 119.697C231.36 119.697 231.968 120.042 232.296 120.732C232.779 120.042 233.459 119.697 234.336 119.697C235.069 119.697 235.614 119.903 235.97 120.314C236.331 120.726 236.515 121.332 236.523 122.134V126.567H235.03V122.178C235.03 121.75 234.938 121.436 234.754 121.237C234.569 121.037 234.264 120.937 233.838 120.937C233.498 120.937 233.22 121.031 233.003 121.218C232.79 121.401 232.64 121.642 232.554 121.941L232.56 126.567H231.067V122.128C231.047 121.334 230.647 120.937 229.869 120.937C229.271 120.937 228.847 121.185 228.597 121.679V126.567H227.104V119.822H228.511Z" fill="#00F0FF"/>
<path fill-rule="evenodd" clip-rule="evenodd" d="M285.242 144.314C297.614 153.249 314.886 150.463 323.822 138.091C332.757 125.719 329.971 108.447 317.599 99.5115L181.646 1.80201C180.656 1.0872 179.274 1.31009 178.559 2.29983L148.791 43.518C148.076 44.5078 148.299 45.8896 149.289 46.6044L285.242 144.314ZM311.376 110.015C304.448 105.012 294.775 106.572 289.772 113.5C284.768 120.428 286.328 130.101 293.256 135.104C300.185 140.108 309.857 138.548 314.861 131.62C319.865 124.691 318.305 115.019 311.376 110.015Z" fill="#C4C4C4"/>
<path d="M311.376 110.014C304.448 105.011 294.775 106.571 289.771 113.499C284.768 120.427 286.328 130.1 293.256 135.104C300.184 140.107 309.857 138.547 314.861 131.619C319.864 124.691 318.304 115.018 311.376 110.014Z" fill="#C4C4C4"/>
<path fill-rule="evenodd" clip-rule="evenodd" d="M310.812 110.795C304.315 106.103 295.245 107.566 290.552 114.063C285.86 120.56 287.323 129.63 293.82 134.323C300.317 139.015 309.388 137.552 314.08 131.055C318.772 124.558 317.309 115.487 310.812 110.795ZM289.771 113.499C294.775 106.571 304.448 105.011 311.376 110.014C318.304 115.018 319.864 124.691 314.861 131.619C309.857 138.547 300.184 140.107 293.256 135.104C286.328 130.1 284.768 120.427 289.771 113.499Z" fill="#444444" fill-opacity="0.12"/>
<path d="M189.577 29.5532L183.652 25.2742L177.879 33.2673L185.879 39.0447L190.158 33.1198C190.977 31.9849 190.717 30.3771 189.583 29.5579C189.581 29.5565 189.579 29.5546 189.577 29.5532V29.5532Z" fill="white"/>
<path d="M181.805 23.9422L180.784 23.2048C179.65 22.3856 178.042 22.6451 177.222 23.7793L176.485 24.8004L179.574 27.0315L181.805 23.9422Z" fill="white"/>
<path d="M175.151 26.6458L178.24 28.8769L176.009 31.9661L172.92 29.735L175.151 26.6458Z" fill="white"/>
<path d="M179.245 41.7747L180.267 42.5121C181.401 43.3318 183.009 43.0719 183.828 41.9376C183.83 41.9357 183.832 41.9331 183.833 41.9311L184.547 40.9425L181.458 38.7114L179.245 41.7747Z" fill="white"/>
<path d="M176.521 35.1475L179.611 37.3786L177.379 40.4678L174.29 38.2367L176.521 35.1475Z" fill="white"/>
<path d="M171.587 31.5838L170.849 32.6049C170.03 33.7391 170.29 35.3476 171.424 36.1667L172.445 36.9042L174.676 33.8149L171.587 31.5838Z" fill="white"/>
<path d="M198.951 37.5807L197.741 36.7071L189.573 48.0171L195.979 52.6437L196.759 51.5641L191.562 47.8111L198.951 37.5807Z" fill="white"/>
<path d="M205.871 47.1422C203.517 45.4419 200.595 45.9936 198.777 48.5106L198.57 48.7968C197.062 51.053 197.608 54.1395 199.8 55.7409L199.956 55.8536C201.059 56.6474 202.409 57.0226 203.764 56.9115L203.787 56.879L203.884 55.5935L203.802 55.5837C202.714 55.7201 201.614 55.4449 200.719 54.8112C200.696 54.7959 200.674 54.7799 200.652 54.764C199.01 53.5784 198.635 51.2531 199.821 49.6116C199.844 49.5791 199.868 49.5459 199.893 49.5143L206.006 53.9296L206.053 53.8645L206.467 53.2922C208.183 51.0387 207.907 48.6124 205.871 47.1422ZM200.695 48.5402C201.828 47.3117 203.723 47.1249 205.073 48.1098C206.095 48.8473 206.772 50.2665 205.599 52.0818L200.695 48.5402Z" fill="white"/>
<path d="M215.588 55.6122L215.282 56.0349C215.387 54.8004 214.84 53.5976 213.84 52.8658L213.691 52.7578C211.525 51.1937 208.789 51.8303 206.971 54.3473C205.153 56.8642 205.316 59.6536 207.449 61.1942C208.517 62.0454 209.974 62.2339 211.223 61.6831L210.326 62.9253L211.47 63.752L219.601 52.494L218.443 51.6579L215.588 55.6122ZM208.434 60.2826C206.938 59.2023 206.889 57.1876 208.251 55.3015C209.614 53.4154 211.577 52.9034 213.046 53.965C214.263 54.8433 214.784 56.7243 213.22 58.8901C211.525 61.2379 209.618 61.1375 208.408 60.2639L208.434 60.2826Z" fill="white"/>
<path d="M223.635 61.6624L223.588 61.7274C223.638 61.1793 223.538 59.8507 221.86 58.6389C219.727 57.0982 217.148 57.7096 215.354 60.194C213.559 62.6785 213.813 65.4245 215.978 66.9886C216.939 67.7973 218.279 67.9978 219.435 67.5056L218.627 68.6243C217.5 70.1852 215.868 70.3622 214.112 69.094C213.351 68.5518 212.731 67.837 212.304 67.0067L212.269 66.9319L211.106 67.5964L211.148 67.6759C211.667 68.6822 212.409 69.5577 213.318 70.2333C215.198 71.5907 217.911 72.0954 219.823 69.4484L225.459 61.6439L224.269 60.7844L223.635 61.6624ZM216.854 66.0774C215.293 64.9501 215.126 62.9888 216.484 61.1093C217.841 59.2297 219.54 58.7545 221.069 59.8583C222.753 61.0749 222.839 62.6412 221.388 64.6508C219.936 66.6605 218.383 67.1812 216.854 66.0774Z" fill="white"/>
<path d="M230.429 64.877C228.068 63.172 225.179 63.7472 223.385 66.2317L223.178 66.5178C221.642 68.7917 222.197 71.9176 224.423 73.5227L224.585 73.6401C225.688 74.4265 227.035 74.7958 228.385 74.6821L228.518 73.3333L228.453 73.2864C227.367 73.4247 226.269 73.1508 225.375 72.5186C225.353 72.5033 225.331 72.4873 225.309 72.4713C223.664 71.2834 223.288 68.9525 224.476 67.3077C224.498 67.2772 224.521 67.2471 224.543 67.217L230.709 71.6698L230.756 71.6048L231.169 71.0324C232.78 68.8017 232.497 66.3707 230.429 64.877ZM225.279 66.2938C226.416 65.0659 228.313 64.8823 229.664 65.8681C230.678 66.6009 231.356 68.0201 230.183 69.8354L225.279 66.2938Z" fill="white"/>
<path d="M238.693 71.0823C238.53 70.9649 238.407 70.8756 238.291 70.6931C237.118 69.8968 235.563 69.9213 234.417 70.755L235.727 68.9404L234.55 68.0902L228.683 76.2134L229.893 77.0871L232.354 73.6791C232.736 73.1584 233.198 72.7001 233.721 72.3209C235.002 71.3558 236.433 71.1824 237.454 71.9198C237.591 71.9989 237.72 72.0919 237.838 72.1969L237.903 72.2439L238.725 71.1058L238.693 71.0823Z" fill="white"/>
</svg>
