<?xml version="1.0" encoding="UTF-8"?>
<svg width="140px" height="37px" viewBox="0 0 140 37" version="1.1" xmlns="http://www.w3.org/2000/svg" xmlns:xlink="http://www.w3.org/1999/xlink">
    <!-- Generator: Sketch 49.1 (51147) - http://www.bohemiancoding.com/sketch -->
    <title>Logotype</title>
    <desc>Created with Sketch.</desc>
    <defs></defs>
    <g id="Page-1" stroke="none" stroke-width="1" fill="none" fill-rule="evenodd">
        <path d="M34.6229127,11.7192847 L50.0956168,11.7192847 L50.0956168,16.2258374 L44.8596359,16.2258374 L44.8596359,30.9228368 L39.8871222,30.9228368 L39.8871222,16.2258374 L34.6229127,16.2258374 L34.6229127,11.7192847 Z M67.918225,18.1074349 C67.918225,21.2914124 66.0790878,23.0943772 64.2596251,23.7990632 L68.4460146,30.9224071 L62.7429784,30.9224071 L59.2075579,24.4418743 L57.2863011,24.4418743 L57.2863011,30.9224071 L52.3394497,30.9224071 L52.3394497,11.7179956 L61.317861,11.7179956 C65.2673012,11.7179956 67.918225,14.2858026 67.918225,18.1074349 Z M57.2863011,16.1437673 L57.2863011,20.0161026 L60.7515778,20.0161026 C62.0329859,20.0161026 62.8952419,19.2375106 62.8952419,18.0790756 C62.8952419,16.9223593 62.0329859,16.1437673 60.7515778,16.1437673 L57.2863011,16.1437673 Z M70.2102177,30.922579 L70.2102177,11.7190269 L84.0636256,11.7190269 L84.0636256,16.1439392 L75.1553582,16.1439392 L75.1553582,18.9583862 L83.8754348,18.9583862 L83.8754348,23.3832985 L75.1553582,23.3832985 L75.1553582,26.4693074 L84.0636256,26.4693074 L84.0636256,30.922579 L70.2102177,30.922579 Z M101.147072,15.5512295 L93.187457,26.4162841 L101.147072,26.4162841 L101.147072,30.9228368 L86.5118166,30.9228368 L86.5118166,27.0625327 L94.4688651,16.2241187 L86.5118166,16.2241187 L86.5118166,11.7192847 L101.147072,11.7192847 L101.147072,15.5512295 Z M111.893193,11.4187619 C117.674072,11.4187619 121.869016,15.5901591 121.869016,21.3333498 C121.869016,27.0791186 117.674072,31.2479376 111.893193,31.2479376 C106.127712,31.2479376 101.943889,27.0791186 101.943889,21.3333498 C101.943889,15.5901591 106.127712,11.4187619 111.893193,11.4187619 Z M111.893193,26.7130256 C114.792187,26.7130256 116.816948,24.5009991 116.816948,21.3333498 C116.816948,18.1665598 114.792187,15.9536739 111.893193,15.9536739 C108.96426,15.9536739 106.995956,18.1158568 106.995956,21.3333498 C106.995956,24.5009991 109.009597,26.7130256 111.893193,26.7130256 Z M135.812755,23.7990632 L140,30.9224071 L134.297819,30.9224071 L130.762399,24.4418743 L128.839431,24.4418743 L128.839431,30.9224071 L123.894291,30.9224071 L123.894291,11.7179956 L132.872702,11.7179956 C136.822142,11.7179956 139.475632,14.2858026 139.475632,18.1074349 C139.475632,21.2914124 137.633929,23.0943772 135.812755,23.7990632 Z M128.839431,16.1437673 L128.839431,20.0161026 L132.306419,20.0161026 C133.587827,20.0161026 134.450083,19.2375106 134.450083,18.0790756 C134.450083,16.9223593 133.587827,16.1437673 132.306419,16.1437673 L128.839431,16.1437673 Z M21.0474284,11.7534878 L24.6538481,11.7534878 L24.6538481,30.9192274 L24.6290411,30.9192274 L12.3273518,36.6942149 L0.024806967,30.9192274 L-1.42108547e-14,30.9192274 L-1.42108547e-14,11.7534878 L3.60813058,11.7534878 L3.60813058,9.06279047 C3.60813058,4.4488161 7.52078806,0.694214876 12.3290626,0.694214876 C17.1347709,0.694214876 21.0474284,4.4488161 21.0474284,9.06279047 L21.0474284,11.7534878 Z M19.6924547,27.7318125 L19.6924547,16.2505874 L4.96139339,16.2505874 L4.96139339,27.7318125 L12.3273518,31.1813362 L19.6924547,27.7318125 Z M8.08108334,9.06279047 L8.08108334,11.7534878 L16.5744756,11.7534878 L16.5744756,9.06279047 C16.5744756,6.92724822 14.6686162,5.18959575 12.3290626,5.18959575 C9.98694274,5.18959575 8.08108334,6.92724822 8.08108334,9.06279047 Z" id="Logotype" fill="#000000" fill-rule="nonzero"></path>
    </g>
</svg>