<svg width="52" height="53" viewBox="0 0 52 53" fill="none" xmlns="http://www.w3.org/2000/svg">
<path d="M24.7305 28.3036C23.8828 28.3036 23.1956 28.4713 23.1956 28.6782L23.1956 51.6253C23.1956 51.8323 23.8828 52 24.7305 52L26.6493 52C27.497 52 28.1843 51.8323 28.1843 51.6253L28.1843 28.6782C28.1843 28.4713 27.497 28.3036 26.6493 28.3036L24.7305 28.3036Z" fill="#444444"/>
<path d="M18.2084 -3.28589e-08C17.4567 0 17.4567 0.938284 17.4567 2.09572L17.4567 15.1939C17.4567 16.3514 18.4121 17.2897 19.5906 17.2897L31.8607 17.2897C33.0392 17.2897 33.9946 16.3514 33.9946 15.1939L33.9946 2.09572C33.9946 0.938283 33.9946 -7.22896e-07 33.2429 -6.90037e-07L18.2084 -3.28589e-08Z" fill="#C4C4C4"/>
<path d="M18.2084 -3.28589e-08C17.4567 0 17.4567 0.938284 17.4567 2.09572L17.4567 15.1939C17.4567 16.3514 18.4121 17.2897 19.5906 17.2897L31.8607 17.2897C33.0392 17.2897 33.9946 16.3514 33.9946 15.1939L33.9946 2.09572C33.9946 0.938283 33.9946 -7.22896e-07 33.2429 -6.90037e-07L18.2084 -3.28589e-08Z" stroke="#444444"/>
<path d="M20.1969 5.26207C19.929 5.26207 19.7119 5.42525 19.7119 5.62654L19.7119 7.90449C19.7119 8.10579 19.929 8.26897 20.1969 8.26897L22.9856 8.26897C23.2534 8.26897 23.4705 8.10579 23.4705 7.90449L23.4705 5.62654C23.4705 5.42525 23.2534 5.26207 22.9856 5.26207L20.1969 5.26207Z" fill="#444444"/>
<path d="M20.1969 5.26207C19.929 5.26207 19.7119 5.42525 19.7119 5.62654L19.7119 7.90449C19.7119 8.10579 19.929 8.26897 20.1969 8.26897L22.9856 8.26897C23.2534 8.26897 23.4705 8.10579 23.4705 7.90449L23.4705 5.62654C23.4705 5.42525 23.2534 5.26207 22.9856 5.26207L20.1969 5.26207Z" stroke="#444444"/>
<path d="M28.4658 5.26207C28.198 5.26207 27.9808 5.42525 27.9808 5.62654L27.9808 7.90449C27.9808 8.10579 28.198 8.26897 28.4658 8.26897L31.2545 8.26897C31.5223 8.26897 31.7395 8.10579 31.7395 7.90449L31.7395 5.62654C31.7395 5.42525 31.5223 5.26207 31.2545 5.26207L28.4658 5.26207Z" fill="#444444"/>
<path d="M28.4658 5.26207C28.198 5.26207 27.9808 5.42525 27.9808 5.62654L27.9808 7.90449C27.9808 8.10579 28.198 8.26897 28.4658 8.26897L31.2545 8.26897C31.5223 8.26897 31.7395 8.10579 31.7395 7.90449L31.7395 5.62654C31.7395 5.42525 31.5223 5.26207 31.2545 5.26207L28.4658 5.26207Z" stroke="#444444"/>
<path d="M23.4455 30.632C22.5439 30.632 21.813 31.3629 21.813 32.2645L21.813 37.57C21.813 38.4716 22.5439 39.2025 23.4455 39.2025L27.9348 39.2025C28.8364 39.2025 29.5672 38.4716 29.5672 37.57L29.5672 32.2645C29.5672 31.3629 28.8364 30.632 27.9348 30.632L23.4455 30.632Z" fill="#444444"/>
<path fill-rule="evenodd" clip-rule="evenodd" d="M23.4455 37.57L23.4455 32.2645L27.9348 32.2645L27.9348 37.57L23.4455 37.57ZM21.813 32.2645C21.813 31.3629 22.5439 30.632 23.4455 30.632L27.9348 30.632C28.8364 30.632 29.5672 31.3629 29.5672 32.2645L29.5672 37.57C29.5672 38.4716 28.8364 39.2025 27.9348 39.2025L23.4455 39.2025C22.5439 39.2025 21.813 38.4716 21.813 37.57L21.813 32.2645Z" fill="#444444"/>
<path d="M19.3641 33.897C17.5609 33.897 16.0991 32.4352 16.0991 30.6321L16.0991 13.083C16.0991 12.6322 16.4646 12.2667 16.9154 12.2667L34.4645 12.2667C34.9153 12.2667 35.2807 12.6322 35.2807 13.0829L35.2807 30.6321C35.2807 32.4352 33.8189 33.897 32.0158 33.897L19.3641 33.897Z" fill="#444444"/>
<path fill-rule="evenodd" clip-rule="evenodd" d="M17.7316 13.8992L17.7316 30.6321C17.7316 31.5337 18.4625 32.2645 19.3641 32.2645L32.0158 32.2645C32.9173 32.2645 33.6482 31.5337 33.6482 30.6321L33.6482 13.8992L17.7316 13.8992ZM16.0991 30.6321C16.0991 32.4352 17.5609 33.897 19.3641 33.897L32.0158 33.897C33.8189 33.897 35.2807 32.4352 35.2807 30.6321L35.2807 13.0829C35.2807 12.6322 34.9153 12.2667 34.4645 12.2667L16.9154 12.2667C16.4646 12.2667 16.0991 12.6322 16.0991 13.083L16.0991 30.6321Z" fill="#444444"/>
</svg>
