<svg width="180" height="51" viewBox="0 0 180 51" fill="none" xmlns="http://www.w3.org/2000/svg">
<path d="M0.00646152 6.20979V7.73973V28.859C-0.0535363 30.8389 0.306451 32.7289 0.996427 34.4688C4.14631 42.3585 14.136 47.9383 21.9357 50.9682V47.0084C12.156 43.1685 7.4162 38.1887 5.49627 34.5888C3.78633 31.4089 3.99632 28.979 3.99632 28.979V8.4897L21.9657 3.29988V0.359987V0L1.6264 5.78979L0.00646152 6.20979Z" fill="#FFBE00"/>
<path d="M22.5356 45.8684C23.7956 45.2684 24.9355 44.6384 26.0155 44.0085L26.1355 33.4188V6.20982L22.5356 5.09985V45.8684Z" fill="#FFBE00"/>
<path d="M29.4653 41.2487C30.8452 40.5587 33.0652 38.4588 33.0652 38.4588V34.9489V7.73984L29.4653 6.62988V41.2487Z" fill="#FFBE00"/>
<path d="M36.3651 8.96997L36.4551 24.8394V34.9791L36.5451 34.8591C36.785 34.5591 36.995 34.2591 37.175 33.9891C39.7249 30.3292 39.8449 27.7193 39.8449 27.7193V24.9894L39.9349 10.0199L36.3651 8.96997Z" fill="#FFBE00"/>
<path d="M180 28.229C180 31.4088 177.66 33.1488 173.73 33.1488C169.65 33.1488 167.431 31.1688 167.101 27.899H169.56C169.86 29.6389 171.06 30.8689 173.73 30.8689C176.43 30.8689 177.63 29.9089 177.63 28.3189C177.63 26.549 176.49 25.829 174.66 25.4391L172.26 24.9291C169.41 24.2991 167.491 23.0391 167.491 20.2192C167.491 17.4893 169.71 15.6594 173.58 15.6594C177.24 15.6594 179.46 17.3094 179.79 20.2792H177.33C177.09 18.7493 175.83 17.9693 173.58 17.9693C171.12 17.9693 169.86 19.0793 169.86 20.3392C169.86 21.5092 170.88 22.3792 172.71 22.7692L175.11 23.3091C178.23 23.9691 180 25.2891 180 28.229Z" fill="#FFBE00"/>
<path fill-rule="evenodd" clip-rule="evenodd" d="M65.1642 30.6289C65.6742 29.9089 66.0342 29.0389 66.3041 28.049H63.7242C63.4242 29.0989 62.9143 29.9089 62.1943 30.5089C61.3843 31.1988 60.3044 31.5288 59.0144 31.5288C58.1144 31.5288 57.3345 31.3188 56.6145 30.8988C55.9245 30.4789 55.3545 29.8489 54.9046 29.0389C54.5446 28.4089 54.2746 27.719 54.0946 26.969C53.9146 26.219 53.8246 25.4091 53.8246 24.5091C53.8246 23.4891 53.9446 22.5591 54.1546 21.7492C54.3946 20.9092 54.7246 20.1592 55.2045 19.4993C55.6845 18.8093 56.2545 18.2993 56.9445 17.9693C57.6345 17.6093 58.3844 17.4593 59.2244 17.4593C59.7644 17.4593 60.2444 17.5493 60.7243 17.6993C61.2043 17.8493 61.6543 18.1193 62.0743 18.4193C62.5243 18.7493 62.8843 19.1393 63.1543 19.6193C63.3642 19.9492 63.5142 20.3092 63.6642 20.6992H66.3341C66.1541 19.7992 65.8242 18.9893 65.3442 18.2993C64.7442 17.4293 63.9042 16.7394 62.8243 16.1994C61.7443 15.6594 60.5144 15.3894 59.1344 15.3894C58.5344 15.3894 57.9644 15.4494 57.4245 15.5394C56.8845 15.6294 56.3745 15.7794 55.8645 15.9894C54.9046 16.3794 54.0946 16.9493 53.4346 17.6693C52.7746 18.4193 52.2346 19.3193 51.8447 20.4292C51.6347 21.0592 51.4547 21.7192 51.3347 22.4392C51.2147 23.1591 51.1547 23.9091 51.1547 24.7191C51.1547 25.739 51.2447 26.669 51.4247 27.479C51.6047 28.2889 51.8447 29.0389 52.2046 29.6989C52.5346 30.3589 52.9546 30.9289 53.4346 31.4088C53.9146 31.8888 54.4246 32.2788 55.0245 32.6088C55.6245 32.9388 56.2545 33.1788 56.9145 33.3288C57.5745 33.4788 58.2944 33.5688 59.0744 33.5688C59.7644 33.5688 60.4244 33.5088 61.0243 33.3588C61.6243 33.2088 62.1943 32.9988 62.7043 32.7288C63.7542 32.2488 64.5342 31.5288 65.1642 30.6289ZM92.4632 33.1188H94.8031V15.8994H92.4632V33.1188ZM73.7139 19.3193C75.6338 19.3193 77.3737 20.1292 78.5737 21.4492L78.4537 21.6292V21.6592C77.9437 22.3492 77.5837 23.1591 77.3737 24.0591C76.6838 22.7391 75.3338 21.8692 73.7439 21.8692C71.494 21.8692 69.664 23.6991 69.664 25.949C69.664 28.1989 71.494 30.0289 73.7439 30.0289C75.9338 30.0289 77.7337 28.2889 77.8237 26.099C77.8237 26.039 77.8237 25.979 77.8237 25.919C77.8237 24.4791 78.2737 23.1591 79.0837 22.0492V22.0192C80.2836 20.3692 82.2336 19.2893 84.4235 19.2893C88.0534 19.2893 91.0233 22.2292 91.0233 25.889C91.0233 29.5489 88.0834 32.4888 84.4235 32.4888C82.5036 32.4888 80.7636 31.6488 79.5637 30.3289C80.1336 29.5789 80.5836 28.6789 80.7636 27.689C81.4236 29.0389 82.8335 29.9689 84.4235 29.9689C86.6734 29.9689 88.5033 28.1389 88.5033 25.889C88.5033 23.6391 86.6734 21.8092 84.4235 21.8092C82.2336 21.8092 80.4636 23.5191 80.3436 25.679C80.3436 25.739 80.3436 25.829 80.3436 25.889C80.3436 29.5489 77.4037 32.4888 73.7439 32.4888C70.114 32.4888 67.1441 29.5489 67.1441 25.889C67.1141 22.2592 70.054 19.3193 73.7139 19.3193Z" fill="#FFBE00"/>
<path d="M130.232 31.1391V32.849C129.872 32.999 129.572 33.029 129.212 33.029C127.862 33.029 126.932 32.459 126.932 31.0791V30.4791C126.662 31.0491 125.402 33.119 122.342 33.119C119.852 33.119 117.902 31.889 117.902 29.2791C117.902 26.6992 119.942 25.6493 122.432 25.3193C124.022 25.1093 125.822 24.9593 126.722 24.4793V24.2393C126.722 22.1394 125.612 21.6894 123.902 21.6894C122.252 21.6894 121.292 22.1694 121.112 23.2793H118.712C118.952 20.9394 120.842 19.7095 123.902 19.7095C127.592 19.7095 129.242 21.1194 129.242 24.8393V30.0891C129.242 30.8391 129.512 31.1691 130.232 31.1391ZM126.692 26.2492C125.882 26.6392 124.592 26.7892 122.552 27.0892C121.022 27.3292 120.422 27.9892 120.422 29.1291C120.422 30.2991 121.202 31.1691 122.702 31.1691C125.192 31.1691 126.362 29.4291 126.692 28.8291V26.2492Z" fill="#FFBE00"/>
<path d="M134.822 15.5696H132.302V33.089H134.822V15.5696Z" fill="#FFBE00"/>
<path d="M140.131 15.5696H137.611V33.089H140.131V15.5696Z" fill="#FFBE00"/>
<path d="M154.231 27.2692H144.721C144.991 29.9091 146.611 31.0491 148.561 31.0491C149.791 31.0491 150.811 30.6891 151.501 29.7291H153.931C152.881 32.159 151.081 33.119 148.381 33.119C145.471 33.119 142.231 31.1691 142.231 26.4292C142.231 21.7194 145.411 19.7095 148.351 19.7095C151.471 19.7095 154.261 21.7494 154.261 26.6092V27.2692H154.231ZM144.721 25.4993H151.741C151.501 22.9794 150.181 21.8094 148.321 21.8094C146.521 21.8094 144.991 23.0094 144.721 25.4993Z" fill="#FFBE00"/>
<path d="M108.813 19.7395L104.463 33.119H102.033L97.053 15.8997H99.7829L103.383 29.2492L106.323 19.7695L108.813 19.7395ZM108.873 19.7695L111.813 29.2492L115.412 15.8997H118.142L113.162 33.119H110.733L106.383 19.7395" fill="#FFBE00"/>
<path d="M156.361 18.4197H157.771L158.251 20.4596H161.491V22.4095H158.791V29.5193C158.791 30.6892 159.301 30.9592 160.321 30.9592H161.491V33.0892H159.541C157.411 33.0892 156.361 31.9492 156.361 29.6693V18.4197Z" fill="#FFBE00"/>
<path d="M157.741 18.4197H158.761V20.4896H158.221L157.741 18.4197Z" fill="#FFBE00"/>
</svg>
