<svg width="180" height="40" viewBox="0 0 180 40" fill="none" xmlns="http://www.w3.org/2000/svg">
<g clip-path="url(#clip0)">
<path d="M-0.00933838 2.26636V38.742H5.21347V23.1389H22.2062V17.8695H5.2228V7.5357H24.2207V2.26636H-0.00933838Z" fill="#2A2C2D"/>
<path d="M41.3067 38.7978H46.5296V13.2714L63.9886 38.7885H68.1202V2.26628H62.9534V27.9792L45.3357 2.25694L41.3067 2.20093V38.7978Z" fill="#2A2C2D"/>
<path d="M30.0964 38.798H35.3845V2.31299H30.0964V38.798Z" fill="#2A2C2D"/>
<path d="M175.784 6.60313C175.589 6.11875 175.381 5.63989 175.16 5.16694C174.904 4.56963 174.633 3.97875 174.348 3.3949C174.156 2.98141 173.95 2.57391 173.733 2.17308C173.657 3.03316 173.594 3.89443 173.546 4.75652C173.499 5.68916 173.462 6.62182 173.434 7.57312H172.483C172.539 6.3507 172.607 5.12883 172.688 3.90778C172.771 2.78719 172.87 1.66791 172.987 0.550293H173.845C174.505 1.7383 175.106 2.95851 175.645 4.20629L176.176 5.41877C176.554 4.57062 176.93 3.72182 177.305 2.87256C177.684 2.08573 178.088 1.31125 178.517 0.550293H179.356C179.59 2.81661 179.757 5.15758 179.869 7.57312H178.918C178.885 6.63397 178.844 5.69506 178.797 4.75652C178.75 3.82388 178.694 2.96583 178.62 2.17308C178.386 2.56982 178.177 2.98107 177.995 3.40423C177.726 3.99566 177.456 4.58636 177.183 5.17628C176.98 5.65253 176.774 6.12809 176.568 6.60313H175.784ZM171.643 0.550293V1.39903H169.461V7.57312H168.482V1.39903H166.299V0.550293H171.643Z" fill="#2A2C2D"/>
<path d="M155.938 2.26636L147.311 18.1492L138.693 2.26636H132.93L144.187 23.0177H144.205L144.709 23.9503V38.7792H149.922V24.0249L150.435 23.0177L161.702 2.26636H155.938Z" fill="#2A2C2D"/>
<path d="M74.0518 38.7978H79.2746V13.2714L96.7337 38.7885H100.865V2.26628H95.6984V27.9792L78.0808 2.25694L74.0518 2.20093V38.7978Z" fill="#2A2C2D"/>
<path d="M106.452 2.26636V38.7979H131.493V33.5378H111.656V22.2155H128.164V16.9555H111.656V7.52636H130.299V2.26636H106.452Z" fill="#2A2C2D"/>
</g>
<defs>
<clipPath id="clip0">
<rect width="180" height="39.171" fill="white"/>
</clipPath>
</defs>
</svg>
