<svg width="88" height="82" viewBox="0 0 88 82" fill="none" xmlns="http://www.w3.org/2000/svg">
<path d="M82.9966 1L49.3249 26.0085L55.5516 11.2538L82.9966 1Z" fill="#E2761B" stroke="#E2761B" stroke-linecap="round" stroke-linejoin="round"/>
<path d="M5.26396 1L38.665 26.2454L32.7428 11.2538L5.26396 1Z" fill="#E4761B" stroke="#E4761B" stroke-linecap="round" stroke-linejoin="round"/>
<path d="M70.8816 58.9695L61.9137 72.7089L81.1016 77.9881L86.6176 59.274L70.8816 58.9695Z" fill="#E4761B" stroke="#E4761B" stroke-linecap="round" stroke-linejoin="round"/>
<path d="M1.71066 59.274L7.1929 77.9881L26.3807 72.7089L17.4129 58.9695L1.71066 59.274Z" fill="#E4761B" stroke="#E4761B" stroke-linecap="round" stroke-linejoin="round"/>
<path d="M25.2978 35.7546L19.9509 43.8426L39.0034 44.6886L38.3266 24.2148L25.2978 35.7546Z" fill="#E4761B" stroke="#E4761B" stroke-linecap="round" stroke-linejoin="round"/>
<path d="M62.9628 35.7547L49.7648 23.978L49.3249 44.6887L68.3435 43.8427L62.9628 35.7547Z" fill="#E4761B" stroke="#E4761B" stroke-linecap="round" stroke-linejoin="round"/>
<path d="M26.3807 72.7089L37.819 67.1252L27.9374 59.4094L26.3807 72.7089Z" fill="#E4761B" stroke="#E4761B" stroke-linecap="round" stroke-linejoin="round"/>
<path d="M50.4417 67.1252L61.9137 72.7089L60.3232 59.4094L50.4417 67.1252Z" fill="#E4761B" stroke="#E4761B" stroke-linecap="round" stroke-linejoin="round"/>
<path d="M61.9137 72.709L50.4417 67.1252L51.3554 74.6041L51.2538 77.7513L61.9137 72.709Z" fill="#D7C1B3" stroke="#D7C1B3" stroke-linecap="round" stroke-linejoin="round"/>
<path d="M26.3807 72.709L37.0406 77.7513L36.9729 74.6041L37.819 67.1252L26.3807 72.709Z" fill="#D7C1B3" stroke="#D7C1B3" stroke-linecap="round" stroke-linejoin="round"/>
<path d="M37.2098 54.4686L27.6667 51.6598L34.401 48.5803L37.2098 54.4686Z" fill="#233447" stroke="#233447" stroke-linecap="round" stroke-linejoin="round"/>
<path d="M51.0508 54.4686L53.8596 48.5803L60.6278 51.6598L51.0508 54.4686Z" fill="#233447" stroke="#233447" stroke-linecap="round" stroke-linejoin="round"/>
<path d="M26.3807 72.7089L28.0051 58.9695L17.4129 59.274L26.3807 72.7089Z" fill="#CD6116" stroke="#CD6116" stroke-linecap="round" stroke-linejoin="round"/>
<path d="M60.2894 58.9695L61.9137 72.7089L70.8816 59.274L60.2894 58.9695Z" fill="#CD6116" stroke="#CD6116" stroke-linecap="round" stroke-linejoin="round"/>
<path d="M68.3435 43.8428L49.3249 44.6888L51.0846 54.4688L53.8934 48.5805L60.6616 51.66L68.3435 43.8428Z" fill="#CD6116" stroke="#CD6116" stroke-linecap="round" stroke-linejoin="round"/>
<path d="M27.6667 51.66L34.4349 48.5805L37.2098 54.4688L39.0034 44.6888L19.9509 43.8428L27.6667 51.66Z" fill="#CD6116" stroke="#CD6116" stroke-linecap="round" stroke-linejoin="round"/>
<path d="M19.9509 43.8428L27.9374 59.4096L27.6667 51.66L19.9509 43.8428Z" fill="#E4751F" stroke="#E4751F" stroke-linecap="round" stroke-linejoin="round"/>
<path d="M60.6616 51.66L60.3232 59.4096L68.3435 43.8428L60.6616 51.66Z" fill="#E4751F" stroke="#E4751F" stroke-linecap="round" stroke-linejoin="round"/>
<path d="M39.0034 44.6887L37.2098 54.4688L39.4433 66.0085L39.951 50.8139L39.0034 44.6887Z" fill="#E4751F" stroke="#E4751F" stroke-linecap="round" stroke-linejoin="round"/>
<path d="M49.3249 44.6887L48.4112 50.7801L48.8173 66.0085L51.0846 54.4688L49.3249 44.6887Z" fill="#E4751F" stroke="#E4751F" stroke-linecap="round" stroke-linejoin="round"/>
<path d="M51.0846 54.4687L48.8173 66.0085L50.4416 67.1252L60.3232 59.4095L60.6616 51.6599L51.0846 54.4687Z" fill="#F6851B" stroke="#F6851B" stroke-linecap="round" stroke-linejoin="round"/>
<path d="M27.6667 51.6599L27.9374 59.4095L37.819 67.1252L39.4433 66.0085L37.2098 54.4687L27.6667 51.6599Z" fill="#F6851B" stroke="#F6851B" stroke-linecap="round" stroke-linejoin="round"/>
<path d="M51.2538 77.7513L51.3554 74.6041L50.5093 73.8596H37.7513L36.9729 74.6041L37.0406 77.7513L26.3807 72.709L30.1032 75.7547L37.6498 81H50.6108L58.1912 75.7547L61.9137 72.709L51.2538 77.7513Z" fill="#C0AD9E" stroke="#C0AD9E" stroke-linecap="round" stroke-linejoin="round"/>
<path d="M50.4416 67.1253L48.8173 66.0085H39.4433L37.819 67.1253L36.9729 74.6041L37.7513 73.8596H50.5093L51.3554 74.6041L50.4416 67.1253Z" fill="#161616" stroke="#161616" stroke-linecap="round" stroke-linejoin="round"/>
<path d="M84.418 27.6328L87.2945 13.8257L82.9967 1L50.4417 25.1624L62.9628 35.7547L80.6616 40.9323L84.5872 36.3638L82.8951 35.1455L85.6024 32.6751L83.5043 31.0508L86.2116 28.9865L84.418 27.6328Z" fill="#763D16" stroke="#763D16" stroke-linecap="round" stroke-linejoin="round"/>
<path d="M1 13.8257L3.87648 27.6328L2.04907 28.9865L4.75635 31.0508L2.69205 32.6751L5.39932 35.1455L3.70728 36.3638L7.59899 40.9323L25.2978 35.7547L37.819 25.1624L5.26396 1L1 13.8257Z" fill="#763D16" stroke="#763D16" stroke-linecap="round" stroke-linejoin="round"/>
<path d="M80.6616 40.9323L62.9628 35.7546L68.3435 43.8426L60.3232 59.4095L70.8816 59.2741H86.6176L80.6616 40.9323Z" fill="#F6851B" stroke="#F6851B" stroke-linecap="round" stroke-linejoin="round"/>
<path d="M25.2978 35.7546L7.59899 40.9323L1.71066 59.2741H17.4129L27.9374 59.4095L19.9509 43.8426L25.2978 35.7546Z" fill="#F6851B" stroke="#F6851B" stroke-linecap="round" stroke-linejoin="round"/>
<path d="M49.3249 44.6888L50.4416 25.1625L55.5855 11.2539H32.7428L37.819 25.1625L39.0034 44.6888L39.4095 50.8478L39.4433 66.0086H48.8173L48.885 50.8478L49.3249 44.6888Z" fill="#F6851B" stroke="#F6851B" stroke-linecap="round" stroke-linejoin="round"/>
</svg>
