<svg width="180" height="51" viewBox="0 0 180 51" fill="none" xmlns="http://www.w3.org/2000/svg">
<g clip-path="url(#clip0)">
<path d="M17.4567 0C10.509 0 4.88646 5.62259 4.88646 12.5702V17.2814C2.44674 17.7231 0 18.312 0 19.0761V43.6627C0 43.6627 0 44.3427 0.764167 44.6652C3.5334 45.787 14.428 49.6428 16.9309 50.5262C17.2533 50.6454 17.3445 50.6454 17.4286 50.6454C17.5478 50.6454 17.6039 50.6454 17.9264 50.5262C20.4292 49.6428 31.3519 45.787 34.1211 44.6652C34.8292 44.3708 34.8572 43.6908 34.8572 43.6908V19.0761C34.8572 18.312 32.4455 17.695 29.9988 17.2814V12.5702C30.0339 5.62259 24.3762 0 17.4567 0ZM17.4567 6.00818C21.5509 6.00818 24.0257 8.48296 24.0257 12.5772V16.6715C19.4337 16.349 15.5147 16.349 10.8946 16.6715V12.5772C10.8946 8.47595 13.3694 6.00818 17.4567 6.00818V6.00818ZM17.4286 22.7007C23.1423 22.7007 27.9377 23.1424 27.9377 23.9346V39.274C27.9377 39.5124 27.9096 39.5404 27.6993 39.6245C27.496 39.7157 17.9544 43.1579 17.9544 43.1579C17.9544 43.1579 17.5688 43.2771 17.4567 43.2771C17.3375 43.2771 16.9589 43.1299 16.9589 43.1299C16.9589 43.1299 7.41733 39.6876 7.21402 39.5965C7.01071 39.5054 6.97565 39.4773 6.97565 39.246V23.9065C6.91957 23.1143 11.7149 22.7007 17.4286 22.7007V22.7007Z" fill="black"/>
<path d="M51.0706 39.483V22.6849H44.933V16.6611H64.0696V22.6849H57.9923V39.483H51.0706Z" fill="black"/>
<path d="M79.5745 39.483L76.4253 32.3068H73.9193V39.483H66.9977V16.6611H79.1791C84.5261 16.6611 87.3939 20.2057 87.3939 24.4806C87.3939 28.4205 85.1158 30.5043 83.2865 31.4022L87.4207 39.4763H79.5745V39.483ZM80.3919 24.4806C80.3919 23.241 79.2931 22.705 78.1406 22.705H73.9193V26.3098H78.1406C79.2931 26.283 80.3919 25.747 80.3919 24.4806Z" fill="black"/>
<path d="M91.0257 39.483V16.6611H108.333V22.6849H97.9205V24.9362H108.078V30.96H97.9205V33.4659H108.333V39.483H91.0257Z" fill="black"/>
<path d="M111.931 39.5101V34.0224L120.628 22.712H111.931V16.6882H129.741V22.1223L121.017 33.4931H129.996V39.5168L111.931 39.5101V39.5101Z" fill="black"/>
<path d="M131.684 28.1124C131.684 21.1037 137.118 16.2927 144.181 16.2927C151.216 16.2927 156.677 21.0769 156.677 28.1124C156.677 35.1211 151.243 39.9052 144.181 39.9052C137.118 39.9052 131.684 35.1211 131.684 28.1124V28.1124ZM149.641 28.1124C149.641 24.9297 147.477 22.3969 144.154 22.3969C140.83 22.3969 138.666 24.9297 138.666 28.1124C138.666 31.2951 140.83 33.8279 144.154 33.8279C147.504 33.8279 149.641 31.2951 149.641 28.1124Z" fill="black"/>
<path d="M172.148 39.5101L168.999 32.3339H166.493V39.5101H159.572V16.6882H171.753C177.1 16.6882 179.968 20.2328 179.968 24.5077C179.968 28.4476 177.69 30.5315 175.861 31.4293L179.995 39.5034H172.148V39.5101ZM172.993 24.4809C172.993 23.2413 171.894 22.7053 170.741 22.7053H166.52V26.3101H170.741C171.901 26.2833 172.993 25.7473 172.993 24.4809Z" fill="black"/>
</g>
<defs>
<clipPath id="clip0">
<rect width="180" height="50.6384" fill="white"/>
</clipPath>
</defs>
</svg>
