<?xml version="1.0" encoding="UTF-8"?>
<svg width="27px" height="27px" viewBox="0 0 27 27" version="1.1" xmlns="http://www.w3.org/2000/svg" xmlns:xlink="http://www.w3.org/1999/xlink">
    <!-- Generator: Sketch 55.2 (78181) - https://sketchapp.com -->
    <title>Group 33</title>
    <desc>Created with Sketch.</desc>
    <g id="Landing-page" stroke="none" stroke-width="1" fill="none" fill-rule="evenodd">
        <g id="landing-page(Desktop)-" transform="translate(-1118.000000, -33.000000)">
            <g id="nav-bar">
                <g id="Group-17" transform="translate(191.000000, 22.000000)">
                    <g id="Group-33" transform="translate(911.000000, 0.000000)">
                        <g id="Group-25">
                            <rect id="Rectangle-Copy" stroke="#FFFFFF" fill-rule="nonzero" x="0.5" y="0.5" width="123" height="47" rx="6"></rect>
                            <text id="Buy-ETH" font-family="SFProDisplay-Medium, SF Pro Display" font-size="14" font-weight="400" fill="#FFFFFF">
                                <tspan x="46.4003906" y="28.0384615">Buy ETH</tspan>
                            </text>
                        </g>
                        <g id="payment-method" transform="translate(29.076923, 25.000000) scale(-1, 1) translate(-29.076923, -25.000000) translate(22.076923, 15.000000)" fill="#FFFFFF" fill-rule="nonzero">
                            <path d="M12.5472539,8.86674969 C12.350942,8.71315899 10.6175497,6.81610627 9.63599026,5.93192196 C9.63181341,5.92777086 9.63181341,5.92777086 9.63181341,5.92361976 L9.63181341,1.83893732 C9.63181341,0.826068908 8.8006205,0 7.78146938,0 L1.72086172,0 C0.772717035,0 -5.68434189e-14,0.772104608 -5.68434189e-14,1.71025322 L-5.68434189e-14,11.2909921 C-5.68434189e-14,12.3038605 0.831192918,13.1299294 1.85034403,13.1299294 L3.61297424,13.1299294 L4.05989707,13.1299294 C4.13508035,13.1299294 4.19773308,13.0635118 4.18937938,12.988792 L4.09331186,12.1751764 C4.08495816,12.1087588 4.03065913,12.0630967 3.96382954,12.0630967 L3.80093244,12.0630967 L3.70068807,12.0630967 C3.62968164,12.0630967 3.57120575,12.0049813 3.57120575,11.9344126 L3.57120575,1.05022831 C3.57120575,0.97965961 3.62968164,0.921544209 3.70068807,0.921544209 L7.79399993,0.921544209 C8.20750796,0.921544209 8.54583272,1.25778331 8.54583272,1.66874222 L8.54583272,10.5603985 L8.54583272,11.4362806 C8.54583272,11.7185554 8.34952082,11.9593192 8.08637935,12.034039 C8.0822025,12.034039 8.0822025,12.034039 8.07802565,12.034039 C7.63110282,11.7932752 7.10481987,10.7638024 7.02545974,10.6019095 C7.01710604,10.5894562 7.01292919,10.5728518 7.01292919,10.5603985 C6.98369125,10.2988792 6.68713499,7.76670818 5.32965911,7.76670818 C5.29206747,7.76670818 5.25447583,7.76670818 5.2168842,7.77085928 C5.2168842,7.77085928 4.1309035,7.86218348 5.028926,10.9381486 C5.028926,10.9464508 5.03310285,10.9506019 5.03310285,10.9589041 L5.42990349,14.3669572 C5.42990349,14.3711083 5.42990349,14.3752594 5.43408033,14.3835616 C5.46749513,14.5122457 5.9185948,16.2515567 7.08393562,17.4844334 C7.10481987,17.50934 7.11735042,17.5383977 7.11735042,17.5716065 L7.11735042,17.8663346 C7.11735042,17.8746368 7.11317357,17.8787879 7.10481987,17.8787879 L7.00039865,17.8787879 C6.74561087,17.8787879 6.53676843,18.0863429 6.53676843,18.33956 L6.53676843,19.5392279 C6.53676843,19.792445 6.74561087,20 7.00039865,20 L11.9165497,20 C12.1713375,20 12.3801799,19.792445 12.3801799,19.5392279 L12.3801799,18.3478622 C12.3801799,18.0946451 12.1713375,17.8870901 11.9165497,17.8870901 C11.908196,17.8870901 11.9040192,17.882939 11.9040192,17.8746368 C12.0669163,16.3719386 12.6516751,11.2328767 12.9649388,10.83022 C12.9732925,10.8177667 12.9816462,10.8053134 12.985823,10.788709 C13.0401221,10.6019095 13.3116172,9.46035699 12.5472539,8.86674969 Z M1.93388101,11.9427148 C1.93388101,12.0091324 1.87958198,12.0589456 1.81692924,12.0589456 C1.40759806,12.0589456 1.07345015,11.7268576 1.07345015,11.3200498 L1.07345015,1.66044002 C1.07345015,1.25363221 1.40759806,0.921544209 1.81692924,0.921544209 C1.88375882,0.921544209 1.93388101,0.97550851 1.93388101,1.03777501 L1.93388101,11.9427148 Z" id="Shape"></path>
                        </g>
                    </g>
                </g>
            </g>
        </g>
    </g>
</svg>