<?xml version="1.0" encoding="UTF-8"?>
<svg width="17px" height="19px" viewBox="0 0 17 19" version="1.1" xmlns="http://www.w3.org/2000/svg" xmlns:xlink="http://www.w3.org/1999/xlink">
    <!-- Generator: Sketch 55.2 (78181) - https://sketchapp.com -->
    <title>Group 52</title>
    <desc>Created with Sketch.</desc>
    <g id="Interact-with-contract" stroke="none" stroke-width="1" fill="none" fill-rule="evenodd">
        <g id="contract" transform="translate(-35.000000, -221.000000)" fill="#FFFFFF" fill-rule="nonzero">
            <g id="nav-bar-contract-01">
                <g id="Group-9">
                    <g transform="translate(17.000000, 94.000000)">
                        <g id="Group-51">
                            <g id="Group-54" transform="translate(17.000000, 123.000000)">
                                <g id="Group-52" transform="translate(0.000000, 3.000000)">
                                    <g id="copy-file" transform="translate(1.000000, 1.000000)">
                                        <path d="M12.5575015,0 L4.47219453,0 C4.08381734,0 3.76605418,0.308132093 3.76605418,0.684737985 L3.76605418,3.65194935 L0.706140351,3.65194935 C0.317763158,3.65194935 0,3.96008144 0,4.33668733 L0,18.2597065 C0,18.6363124 0.317763158,18.9444444 0.706140351,18.9444444 L12.5928501,18.9444444 C12.9812273,18.9444444 13.2989905,18.6363124 13.2989905,18.2597065 L13.2989905,15.1783855 L16.2412281,15.1783855 C16.6296053,15.1783855 16.9473684,14.8702534 16.9473684,14.4936475 L16.9473684,4.27961241 C16.9473684,4.09702904 16.8767544,3.92584454 16.7472815,3.80029582 L13.0635965,0.205421396 C12.9341236,0.0684737985 12.7458333,0 12.5575015,0 Z M11.8867098,17.5749282 L1.4122807,17.5749282 L1.4122807,5.02142532 L3.76609572,5.02142532 L3.76609572,14.4936475 C3.76609572,14.8702534 4.08385888,15.1783855 4.47223607,15.1783855 L11.8867098,15.1783855 L11.8867098,17.5749282 L11.8867098,17.5749282 Z M5.17833488,13.8088693 L5.17833488,1.36947597 L11.2982041,1.36947597 L11.2982041,5.24964446 C11.2982041,5.62625035 11.6159672,5.93438245 12.0043444,5.93438245 L15.5350462,5.93438245 L15.5350462,13.8088693 L5.17833488,13.8088693 L5.17833488,13.8088693 Z M15.5350877,4.56490648 L12.7105263,4.56490648 L12.7105263,1.80315679 L15.5350877,4.56490648 L15.5350877,4.56490648 Z" id="Shape"></path>
                                    </g>
                                </g>
                            </g>
                        </g>
                    </g>
                </g>
            </g>
        </g>
    </g>
</svg>