<svg width="133" height="128" xmlns="http://www.w3.org/2000/svg"><g fill="none"><path d="M60.955 103.98c-4.804 2.24-6.84 8.134-4.526 13.097 2.314 4.964 8.139 7.192 12.942 4.952 4.804-2.24 6.841-8.134 4.527-13.097-2.315-4.964-8.14-7.192-12.943-4.952zm20.486-16.877c-4.804 2.24-6.84 8.134-4.526 13.097 2.314 4.964 8.139 7.192 12.943 4.952 4.803-2.24 6.84-8.134 4.526-13.098-2.315-4.963-8.139-7.191-12.943-4.951zm-46.583 21.722c-4.804 2.24-6.84 8.134-4.526 13.097 2.315 4.964 8.139 7.192 12.943 4.952s6.84-8.134 4.526-13.098c-2.315-4.963-8.139-7.192-12.943-4.951z" fill="#324D5B"/><path d="M21.604 88.497c10.53-16.143 34.566-27.351 53.7-25.04 19.134 2.31 26.122 17.296 15.558 33.365-10.528 16.143-34.565 27.351-53.7 25.04-19.133-2.31-26.086-17.222-15.558-33.365z" fill="#E2574C"/><path d="M39.777 118.165c-18.317-2.12-25.338-15.85-16.267-31.093-.558.7-1.082 1.473-1.605 2.246-10.523 15.92-3.673 30.611 15.253 32.711 18.96 2.173 42.85-8.968 53.373-24.888.374-.527.713-1.126 1.014-1.618-11.17 14.723-33.737 24.719-51.768 22.642z" fill="#CB4E44"/><path d="M7.064 74.203C20.423 54.791 50.243 40.885 73.7 43.131c23.458 2.245 31.68 19.879 18.322 39.291-13.358 19.413-43.178 33.319-66.635 31.073C1.929 111.25-6.26 93.69 7.064 74.203z" fill="#324D5B"/><path d="M92.954 79.516c-13.102 19.328-42.53 33.05-65.758 30.664C8.413 108.22-.544 96.41 3.502 81.753c-7.217 16.583 1.616 30.594 22.083 32.75 23.228 2.387 52.656-11.335 65.758-30.663 2.496-3.754 4.235-7.423 5.252-10.933-.949 2.139-2.15 4.306-3.64 6.61z" fill="#2D4552"/><path d="M30.147 35.522c16.177-7.543 35.397-.537 42.948 15.657 7.552 16.194-2.169 29.558-18.346 37.102-16.178 7.544-32.664 6.4-40.215-9.795-7.552-16.194-.565-35.42 15.613-42.964z" fill="#FFF"/><path d="M9.008 72.067c16.927-18.88 36.899-28.44 59.917-28.683 11.952 6.504 12.963 19.631 3.035 39.38l-32.959 15.37L8.895 83.287l.113-11.22z" fill="#324D5B" opacity=".1"/><path d="M54.291 88.494c6.691-3.12 12.32-7.16 16.114-12.029l-9.123-19.563c-4.51-9.672-16.094-13.744-25.982-9.134-9.888 4.611-14.214 16.102-9.704 25.775l9.123 19.563c6.168.222 12.881-1.492 19.572-4.612z" fill="#05C0A5"/><path d="M40.454 60.014c4.529-2.112 9.983-.091 12.12 4.49 2.136 4.582.178 10.059-4.351 12.171-4.53 2.112-9.984.091-12.12-4.49-2.136-4.582-.178-10.059 4.35-12.17z" fill="#FFF"/><path d="M43.147 61.012c2.516-1.173 5.546-.05 6.733 2.495 1.187 2.545.1 5.588-2.417 6.761-2.516 1.173-5.546.05-6.733-2.494-1.187-2.546-.1-5.589 2.417-6.762z" fill="#003945"/><path d="M81.779 54L76.864 7.252" stroke="#E2574C" stroke-width="2" stroke-linecap="square"/><path fill="#1A96A4" d="M132.207 12.723L78.26 29.1 75.07.26z"/><path d="M88.172 7.022c-4.071 0-7.372 3.304-7.372 7.38 0 4.077 3.3 7.382 7.372 7.382s7.373-3.305 7.373-7.381c0-4.077-3.3-7.381-7.373-7.381zm0 12.02c-2.492 0-4.629-2.023-4.629-4.52 0-.585.111-1.261.314-1.775l1.989.848-.024.105a2.44 2.44 0 00-.109.72l.002.027a2.447 2.447 0 003 2.352l1.13 1.922a4.48 4.48 0 01-1.673.32zm4.273-2.803l-5.049-2.142 3.238-.014c-.116-1.176-1.323-2.132-2.462-2.132-.258 0-.514.043-.758.127l-1.12-1.904c.59-.27 1.23-.41 1.879-.41 2.492 0 4.622 2.06 4.622 4.556 0 .673-.087 1.345-.35 1.919z" fill="#FFF"/></g></svg>