<svg xmlns="http://www.w3.org/2000/svg" width="39" height="39" viewBox="0 0 39 39">
    <path fill="#5A78F0" fill-rule="nonzero" d="M17.234 7.13l.01-.045V26.49l-6.092-6.1a1.579 1.579 0 0 0-1.123-.463c-.423 0-.823.164-1.12.463l-.947.95a1.577 1.577 0 0 0-.462 1.12c0 .424.163.822.46 1.12l10.42 10.458c.298.3.695.463 1.118.462.426.001.824-.163 1.122-.462L31.04 23.58c.296-.298.46-.696.46-1.12 0-.425-.164-.822-.46-1.12l-.947-.95a1.562 1.562 0 0 0-1.116-.463c-.423 0-.799.164-1.096.463l-6.125 6.17V7.107c0-.874-.751-1.608-1.621-1.608h-1.339c-.87 0-1.562.756-1.562 1.63z"/>
</svg>
