<svg width="26" height="26" xmlns="http://www.w3.org/2000/svg"><g fill="none" fill-rule="evenodd"><path d="M25.89 13.064C25.89 20.208 20.098 26 12.954 26S.02 20.208.02 13.064 5.81.13 12.954.13 25.89 5.92 25.89 13.064" fill="#F7931A"/><path d="M16.095 16.845a1.41 1.41 0 01-.686.844c-.334.18-.718.22-1.082.112l-3.643-1.085.812-2.724 3.642 1.085a1.423 1.423 0 01.957 1.768m1.229-5.584a1.424 1.424 0 01-1.656 2.039l-3.643-1.085.811-2.725 3.643 1.085c.364.109.664.352.845.686m1.63-.882a3.254 3.254 0 00-1.946-1.58l-.482-.144.675-2.266-1.731-.515-.675 2.265-1.478-.44.675-2.265-.415-.124-1.68-.5-.65 2.183-2.048-.61-.577 1.941 2.047.61-2.103 7.062-2.048-.61-.578 1.941 2.048.61-.55 1.843.415.123 1.68.5.574-1.924 1.481.441-.573 1.925 1.724.514.573-1.925.486.144a3.258 3.258 0 002.494-.258 3.254 3.254 0 001.58-1.946 3.264 3.264 0 00-.285-2.534 3.266 3.266 0 001.625-1.968 3.254 3.254 0 00-.258-2.493" fill="#FFF"/></g></svg>