<svg width="20" height="20" xmlns="http://www.w3.org/2000/svg"><g fill="none" fill-rule="evenodd"><path fill="#FFF" d="M.87 5.217h18.261V18.84H.87z"/><path d="M.833 20h18.334c.46 0 .833-.373.833-.833V5.02a.833.833 0 00-.833-.833h-.905V.833A.832.832 0 0017.246.02L.65 3.754a.833.833 0 00-.65.813v14.6c0 .46.373.833.833.833zm17.5-6.665H14.84a1.243 1.243 0 01-1.242-1.24c0-.684.557-1.24 1.242-1.24h3.493v2.48zm0-4.147H14.84a2.911 2.911 0 00-2.91 2.907 2.911 2.911 0 002.91 2.907h3.493v3.331H1.667V5.854h16.666v3.334zm-1.737-7.313v2.313H6.316l10.28-2.313z" fill="#9EA9B3" fill-rule="nonzero"/><path d="M6.349 7.789H3.596a.834.834 0 00-.833.833v6.874c0 .46.373.834.833.834H6.35c.46 0 .833-.374.833-.834V8.622a.833.833 0 00-.833-.833zm-.834 6.874H4.43V9.455h1.085v5.208z" fill="#9EA9B3" fill-rule="nonzero"/></g></svg>