<svg width="57" height="67" xmlns="http://www.w3.org/2000/svg"><g fill="none"><path fill="#FFF" d="M3.163 2.426H35.56v17.601l3.935 1.982 13.863-.877v42.745H3.163z"/><path d="M37.64 4.374V20h14.4c0-.435-.642-2.423-1.022-2.98-5.704-6.165-11.391-11.51-11.91-11.998-.346-.325-.836-.541-1.469-.648z" fill="#05C0A5"/><path d="M54.487 14.25c.69.7 1.281 1.65 1.774 2.85.493 1.2.739 2.3.739 3.3v43c0 1-.345 1.85-1.035 2.55-.69.7-1.757 1.05-2.742 1.05H3.548c-.985 0-1.823-.35-2.513-1.05C.345 65.25 0 64.4 0 63.4V3.6c0-1 .345-1.85 1.035-2.55C1.725.35 2.563 0 3.548 0h33.117c.985 0 2.07.25 3.252.75 1.183.5 2.12 1.1 2.81 1.8l11.76 11.7zM37.847 5.1v14.1h13.897c-.246-.725-.517-1.237-.813-1.537L39.363 5.925c-.296-.3-.801-.575-1.516-.825zM52.04 62.4V24H36.665c-.986 0-1.824-.35-2.514-1.05-.69-.7-1.035-1.55-1.035-2.55V4.8H4.731v57.6h47.31zm-34.3-33.6c.198-.275.457-.431.777-.469.32-.037.616.044.887.244L21.29 30c.271.2.425.463.462.788.037.325-.043.625-.24.9L14.784 40.8l6.727 9.113c.197.275.277.575.24.9a1.098 1.098 0 01-.462.787l-1.885 1.425a1.21 1.21 0 01-.887.244 1.076 1.076 0 01-.776-.469L9.388 41.513c-.345-.475-.345-.95 0-1.425L17.74 28.8zm29.643 11.288c.345.475.345.95 0 1.425L39.03 52.8a1.076 1.076 0 01-.776.469 1.21 1.21 0 01-.887-.244L35.482 51.6a1.098 1.098 0 01-.462-.787 1.255 1.255 0 01.24-.9l6.727-9.113-6.727-9.112a1.255 1.255 0 01-.24-.9c.037-.325.19-.588.462-.788l1.885-1.425c.27-.2.567-.281.887-.244.32.038.579.194.776.469l8.353 11.288zM24.468 57.375a1.08 1.08 0 01-.758-.487 1.23 1.23 0 01-.203-.9l5.1-31.163c.05-.325.21-.581.48-.769a1.19 1.19 0 01.888-.206l2.328.375c.32.05.573.213.758.488.185.275.253.575.203.9l-5.1 31.162c-.05.325-.21.581-.48.769a1.186 1.186 0 01-.888.206l-2.328-.375z" fill="#003945"/></g></svg>