<?xml version="1.0" encoding="UTF-8"?>
<svg width="100px" height="100px" viewBox="0 0 100 100" version="1.1" xmlns="http://www.w3.org/2000/svg" xmlns:xlink="http://www.w3.org/1999/xlink">
    <!-- Generator: Sketch 49.2 (51160) - http://www.bohemiancoding.com/sketch -->
    <title>key</title>
    <desc>Created with Sketch.</desc>
    <defs></defs>
    <g id="key" stroke="none" stroke-width="1" fill="none" fill-rule="evenodd">
        <g transform="translate(21.000000, 20.000000)">
            <circle id="Oval" fill="#05C0A5" cx="16.7166667" cy="16.7166667" r="12.7833333"></circle>
            <path d="M58.3406748,43.6562373 C57.4135334,42.6566945 55.8602705,42.6085238 54.8729251,43.5358105 L49.6592597,48.3890123 L44.0964112,42.4278835 L49.3100766,37.5746817 C50.3094628,36.647395 50.357626,35.0938887 49.4304846,34.0943459 C48.5033431,33.0948031 46.9500802,33.0466323 45.950694,33.973919 L40.7370287,38.8391635 L30.6829626,28.060961 C36.137444,21.2929724 35.7280568,11.3577577 29.4307197,5.05943379 C22.6999138,-1.68446947 11.7789103,-1.68446947 5.04810442,5.04739111 C-1.68270147,11.7792517 -1.68270147,22.7019664 5.04810442,29.433827 C11.0444216,35.4310839 20.363999,36.0934315 27.0827641,31.3967846 L52.0915008,58.2158427 C53.0186423,59.2153855 54.5719052,59.2635563 55.5712914,58.3362696 C56.5586368,57.4089829 56.6188408,55.8554766 55.6916993,54.8559338 L53.0066015,51.9777322 L58.2202668,47.1245304 C59.2076123,46.2092864 59.2678162,44.6557801 58.3406748,43.6562373 Z M8.52789494,25.9655339 C3.71157588,21.1484602 3.71157588,13.3448007 8.52789494,8.5277269 C13.344214,3.71065314 21.1466509,3.71065314 25.9629699,8.5277269 C30.779289,13.3448007 30.779289,21.1484602 25.9629699,25.9655339 C21.1466509,30.7826077 13.344214,30.7826077 8.52789494,25.9655339 Z" id="Shape" stroke="#003945" fill="#003945" fill-rule="nonzero"></path>
        </g>
    </g>
</svg>