<svg width="28" height="28" xmlns="http://www.w3.org/2000/svg"><g fill="none" fill-rule="evenodd"><circle fill="#FFF" cx="14" cy="14" r="14"/><g transform="translate(5.895 5)" fill="#2E465A" fill-rule="nonzero"><path d="M11.636 4.838a5.007 5.007 0 00-2.428-.627c-2.703 0-4.902 2.15-4.902 4.793 0 2.644 2.2 4.794 4.902 4.794.88 0 1.704-.224 2.419-.627l2.584 3.386A9.31 9.31 0 019.208 18C4.123 18.009 0 13.977 0 9.004 0 4.032 4.123 0 9.208 0a9.28 9.28 0 014.975 1.425l-2.547 3.413z"/><ellipse cx="9" cy="8.526" rx="1.421" ry="1.895"/></g></g></svg>