<svg width="28" height="28" xmlns="http://www.w3.org/2000/svg"><g fill="none" fill-rule="evenodd"><path fill="#FFF" d="M-22-257h266V754H-22z"/><path d="M8.076 12.152c-.791 0-1.626-.352-2.197-.923A3.06 3.06 0 015 9.076c0-.791.352-1.582.879-2.197C6.45 6.308 7.24 6 8.076 6c.79 0 1.582.352 2.153.879.571.571.923 1.362.923 2.197 0 .79-.352 1.582-.923 2.153-.571.571-1.362.923-2.153.923zm13.577-.923c.571-.571.923-1.362.923-2.153 0-.791-.352-1.582-.923-2.197A3.06 3.06 0 0019.5 6c-.79 0-1.626.352-2.197.879-.571.571-.879 1.362-.879 2.197 0 .79.352 1.582.879 2.153a3.128 3.128 0 002.197.923c.79 0 1.582-.352 2.153-.923zM10.229 22.214c.571-.572.923-1.362.923-2.153 0-.791-.352-1.582-.923-2.197a3.06 3.06 0 00-2.153-.88c-.791 0-1.626.352-2.197.88-.571.57-.879 1.362-.879 2.197 0 .79.352 1.581.879 2.153a3.128 3.128 0 002.197.922c.79 0 1.582-.351 2.153-.922zm11.424 0c.571-.572.923-1.362.923-2.153 0-.791-.352-1.582-.923-2.197a3.06 3.06 0 00-2.153-.88c-.79 0-1.626.352-2.197.88-.571.57-.879 1.362-.879 2.197 0 .79.352 1.581.879 2.153a3.128 3.128 0 002.197.922c.79 0 1.582-.351 2.153-.922z" fill="#003945" fill-rule="nonzero"/></g></svg>