<?xml version="1.0" encoding="UTF-8"?>
<svg width="28px" height="28px" viewBox="0 0 28 28" version="1.1" xmlns="http://www.w3.org/2000/svg" xmlns:xlink="http://www.w3.org/1999/xlink">
  <!-- Generator: Sketch 49.2 (51160) - http://www.bohemiancoding.com/sketch -->
  <title>dapps 2</title>
  <desc>Created with Sketch.</desc>
  <defs></defs>
  <g id="Desktop" stroke="none" stroke-width="1" fill="none" fill-rule="evenodd">
      <g id="my-wallet-1" transform="translate(-22.000000, -324.000000)">
          <rect id="Rectangle-2" fill="#FFFFFF" x="0" y="0" width="266" height="1011"></rect>
          <g id="Group-19" transform="translate(24.000000, 136.000000)" fill="#B2B2B2" fill-rule="nonzero">
              <g id="Group-17" transform="translate(3.000000, 190.000000)">
                  <g id="Layer_1" transform="translate(0.000000, 4.000000)">
                      <path d="M3.07575758,6.15151515 C2.28484848,6.15151515 1.45,5.8 0.878787879,5.22878788 C0.307575758,4.65757576 0,3.86666667 0,3.07575758 C0,2.28484848 0.351515152,1.49393939 0.878787879,0.878787879 C1.45,0.307575758 2.24090909,0 3.07575758,0 C3.86666667,0 4.65757576,0.351515152 5.22878788,0.878787879 C5.8,1.45 6.15151515,2.24090909 6.15151515,3.07575758 C6.15151515,3.86666667 5.8,4.65757576 5.22878788,5.22878788 C4.65757576,5.8 3.86666667,6.15151515 3.07575758,6.15151515 Z M16.6530303,5.22878788 C17.2242424,4.65757576 17.5757576,3.86666667 17.5757576,3.07575758 C17.5757576,2.28484848 17.2242424,1.49393939 16.6530303,0.878787879 C16.0818182,0.307575758 15.2909091,0 14.5,0 C13.7090909,0 12.8742424,0.351515152 12.3030303,0.878787879 C11.7318182,1.45 11.4242424,2.24090909 11.4242424,3.07575758 C11.4242424,3.86666667 11.7757576,4.65757576 12.3030303,5.22878788 C12.8742424,5.8 13.6651515,6.15151515 14.5,6.15151515 C15.2909091,6.15151515 16.0818182,5.8 16.6530303,5.22878788 Z M5.22878788,16.2136364 C5.8,15.6424242 6.15151515,14.8515152 6.15151515,14.0606061 C6.15151515,13.269697 5.8,12.4787879 5.22878788,11.8636364 C4.65757576,11.2924242 3.86666667,10.9848485 3.07575758,10.9848485 C2.28484848,10.9848485 1.45,11.3363636 0.878787879,11.8636364 C0.307575758,12.4348485 7.10542736e-15,13.2257576 7.10542736e-15,14.0606061 C7.10542736e-15,14.8515152 0.351515152,15.6424242 0.878787879,16.2136364 C1.45,16.7848485 2.24090909,17.1363636 3.07575758,17.1363636 C3.86666667,17.1363636 4.65757576,16.7848485 5.22878788,16.2136364 Z M16.6530303,16.2136364 C17.2242424,15.6424242 17.5757576,14.8515152 17.5757576,14.0606061 C17.5757576,13.269697 17.2242424,12.4787879 16.6530303,11.8636364 C16.0818182,11.2924242 15.2909091,10.9848485 14.5,10.9848485 C13.7090909,10.9848485 12.8742424,11.3363636 12.3030303,11.8636364 C11.7318182,12.4348485 11.4242424,13.2257576 11.4242424,14.0606061 C11.4242424,14.8515152 11.7757576,15.6424242 12.3030303,16.2136364 C12.8742424,16.7848485 13.6651515,17.1363636 14.5,17.1363636 C15.2909091,17.1363636 16.0818182,16.7848485 16.6530303,16.2136364 Z" id="XMLID_29_"></path>
                  </g>
              </g>
          </g>
      </g>
  </g>
</svg>
