<svg data-name="Layer 1" xmlns="http://www.w3.org/2000/svg" xmlns:xlink="http://www.w3.org/1999/xlink" viewBox="0 0 365.79 224.86"><defs><linearGradient id="a" x1="56.42" y1="252.84" x2="398.1" y2="273.51" gradientUnits="userSpaceOnUse"><stop offset="0" stop-color="#3fc7f4"/><stop offset="1" stop-color="#6662ac"/></linearGradient><linearGradient id="b" x1="-14.57" y1="94.41" x2="327.12" y2="115.08" xlink:href="#a"/><linearGradient id="c" x1="-14.98" y1="101.23" x2="326.71" y2="121.89" xlink:href="#a"/></defs><path d="M91.58 367.4l-19.64-11.34V153.88l19.64-11.34 87.55 50.55 6.55 11.34v101.08l-6.55 11.34zm6.55-190.84v156.82L159.49 298v-86z" transform="translate(-71.94 -142.54)" fill="url(#a)"/><path fill="url(#b)" d="M339.6 145.21l-56.28 32.49-56.53-32.63V79.79l56.53-32.63 56.28 32.49 26.19-15.12-82.47-47.61-82.71 47.75v95.52l82.71 47.75 82.47-47.61-26.19-15.12z"/><path fill="url(#c)" d="M192.97 164.6l-22.71 13.1-56.53-32.63V79.79l56.53-32.63 22.71 13.11 26.19-15.12-48.9-28.23-82.71 47.75v95.52l82.71 47.75 48.9-28.23-26.19-15.11z"/></svg>