<svg xmlns="http://www.w3.org/2000/svg" width="100" height="100" viewBox="0 0 100 100" version="1.1">
	<path d="M 42.045 11.092 C 30.163 13.422, 19.063 22.310, 13.714 33.778 C 10.904 39.804, 10.575 41.489, 10.540 50.052 C 10.502 59.094, 10.698 60.004, 14.210 67.111 C 17.542 73.853, 21.432 79.008, 22.359 77.911 C 23.799 76.204, 31.818 61.453, 34.459 55.650 C 37.185 49.661, 43.101 32.654, 48.403 15.563 L 49.625 11.626 53.365 25.063 C 59.002 45.312, 68.235 66.909, 75.354 76.500 C 76.826 78.482, 76.862 78.478, 79.462 76.035 C 80.905 74.680, 83.529 70.639, 85.293 67.056 C 88.286 60.976, 88.500 59.841, 88.500 50.021 C 88.500 40.699, 88.195 38.848, 85.820 33.782 C 80.426 22.274, 68.924 13.351, 56.566 11.087 C 49.869 9.860, 48.328 9.861, 42.045 11.092 M 48.215 52.664 C 47.695 53.674, 46.021 58.325, 44.496 63 C 42.971 67.675, 40.403 74.857, 38.789 78.960 C 36.133 85.710, 36.007 86.532, 37.467 87.600 C 40.906 90.114, 56.988 90.480, 60.790 88.130 C 61.660 87.592, 60.361 82.539, 56.018 69.555 C 52.737 59.745, 49.852 51.519, 49.607 51.274 C 49.362 51.029, 48.736 51.655, 48.215 52.664 " stroke="none" fill="black" fill-rule="evenodd"/>
</svg>