<svg width="100" height="100" xmlns="http://www.w3.org/2000/svg"><g fill="none" fill-rule="evenodd"><path fill="#05C0A5" d="M18.912 19.912h61.147v14.559H18.912z"/><g fill="#003945" fill-rule="nonzero" stroke="#003945" stroke-width=".5"><path d="M77.2 17H22.8a5.807 5.807 0 00-5.8 5.8v54.4c0 3.198 2.602 5.8 5.8 5.8h54.4c3.198 0 5.8-2.602 5.8-5.8V22.8c0-3.198-2.602-5.8-5.8-5.8zm1.933 60.2a1.936 1.936 0 01-1.934 1.933H22.801a1.936 1.936 0 01-1.934-1.934V36.336h58.266v40.863zm0-44.731H20.867V22.8c0-1.066.868-1.934 1.934-1.934h54.398c1.066 0 1.934.868 1.934 1.934v9.668z"/><path d="M72.611 24.333h-3.667a1.833 1.833 0 000 3.667h3.667a1.833 1.833 0 000-3.667zm-11 0h-3.667a1.833 1.833 0 000 3.667h3.667a1.833 1.833 0 000-3.667zm-11 0h-3.667a1.833 1.833 0 000 3.667h3.667a1.833 1.833 0 000-3.667zm0 15.889c-9.772 0-17.722 7.95-17.722 17.722 0 9.772 7.95 17.723 17.722 17.723 9.772 0 17.722-7.95 17.722-17.723 0-9.772-7.95-17.722-17.722-17.722zm13.643 15.753h-5.812c-.165-3.7-.792-7.147-1.81-9.861a19.24 19.24 0 00-.279-.699c4.171 1.92 7.226 5.86 7.9 10.56zm-27.286 3.939h5.812c.165 3.7.792 7.147 1.81 9.861.091.243.185.474.279.699-4.17-1.92-7.225-5.86-7.9-10.56zm7.622-13.8c-1.018 2.714-1.645 6.161-1.81 9.861h-5.812c.676-4.7 3.73-8.64 7.9-10.56a19.24 19.24 0 00-.278.699zm8.355 22.278c-1.022 2.723-2.053 3.336-2.334 3.336-.28 0-1.312-.613-2.333-3.336-.862-2.298-1.4-5.256-1.556-8.478H54.5c-.157 3.221-.695 6.18-1.556 8.478zm-6.223-12.417c.156-3.222.694-6.18 1.556-8.478 1.021-2.724 2.052-3.337 2.333-3.337.28 0 1.312.613 2.334 3.337.861 2.298 1.4 5.256 1.556 8.478h-7.78zm9.631 14.499c.095-.225.188-.456.28-.699 1.017-2.714 1.644-6.161 1.81-9.861h5.81c-.674 4.7-3.729 8.64-7.9 10.56z"/></g></g></svg>