<svg width="32" height="32" xmlns="http://www.w3.org/2000/svg"><g fill="none" fill-rule="evenodd"><path fill="#05C0A5" fill-rule="nonzero" d="M18.471 5.667l5.008 5.318h-3.908l-1.1-1.107z"/><g fill="#0B2840" stroke="#0B2840" stroke-width=".2"><path d="M18.686 5.166A.527.527 0 0018.31 5H9.85C8.29 5 7 6.271 7 7.817v15.842c0 1.546 1.289 2.817 2.85 2.817h11.48c1.561 0 2.85-1.27 2.85-2.817V11.08a.555.555 0 00-.152-.362l-5.343-5.551zm.152 1.665l3.578 3.72H20.09c-.691 0-1.252-.55-1.252-1.235V6.831zm2.493 18.608H9.85c-.98 0-1.802-.804-1.802-1.78V7.817c0-.97.817-1.78 1.802-1.78h7.94v3.279a2.28 2.28 0 002.3 2.272h3.043V23.66c0 .976-.817 1.78-1.802 1.78z" fill-rule="nonzero"/><path d="M20.228 22.181h-8.421c-.281 0-.512.193-.512.43 0 .236.23.429.512.429h8.426c.281 0 .512-.193.512-.43 0-.236-.23-.429-.517-.429zm-5.006-2.759a.48.48 0 00.366.182.48.48 0 00.366-.182l2.938-3.572a.62.62 0 00-.025-.8.46.46 0 00-.707.028l-2.07 2.516v-6.201c0-.313-.226-.568-.502-.568s-.501.255-.501.568v6.2l-2.066-2.515c-.19-.227-.507-.244-.707-.028a.62.62 0 00-.025.8l2.933 3.572z"/></g></g></svg>