<?xml version="1.0" encoding="UTF-8"?>
<svg width="138px" height="114px" viewBox="0 0 138 114" version="1.1" xmlns="http://www.w3.org/2000/svg" xmlns:xlink="http://www.w3.org/1999/xlink">
    <!-- Generator: Sketch 51.2 (57519) - http://www.bohemiancoding.com/sketch -->
    <title>Drink</title>
    <desc>Created with Sketch.</desc>
    <defs></defs>
    <g id="Desktop" stroke="none" stroke-width="1" fill="none" fill-rule="evenodd">
        <g id="edutation5" transform="translate(-651.000000, -302.000000)">
            <g id="Drink" transform="translate(651.000000, 302.000000)">
                <polygon id="Path-12" fill="#05C0A5" points="15.3319042 38.6170607 30.6274942 63.5420898 53.1008118 44.9210306 44.508055 42.4729396 40.0209946 40.2046691 32.120365 42.4729396 27.5150335 38.6170607"></polygon>
                <polygon id="Path-12" fill="#05C0A5" transform="translate(102.746970, 51.079575) scale(-1, 1) translate(-102.746970, -51.079575) " points="83.8625165 38.6170607 99.1581064 63.5420898 121.631424 44.9210306 113.038667 42.4729396 108.551607 40.2046691 100.650977 42.4729396 96.0456457 38.6170607"></polygon>
                <g id="Layer_1" transform="translate(0.000000, -0.000000)" fill="#003945" fill-rule="nonzero">
                    <path d="M136.646118,22.7498181 C137.22103,21.8368233 137.214718,20.6733808 136.629932,19.7666784 C136.034753,18.8688208 134.978229,18.3907994 133.910911,18.5364647 L68.3039341,28.0637843 C68.2165341,28.0983012 68.1310918,28.1375829 68.0479917,28.1814526 L4.11068962,18.2990842 C3.04579864,18.1449291 1.98677999,18.6146759 1.38630965,19.507532 C0.793159469,20.4070506 0.77630145,21.5691329 1.34310937,22.4854788 L27.6598708,64.8944559 L21.4885281,104.834277 L7.8385094,102.723209 C6.3347396,102.50664 4.93415048,103.53318 4.68792716,105.03238 C4.57612342,105.756421 4.75663799,106.495215 5.1897311,107.086117 C5.62282421,107.67702 6.2729907,108.071589 6.99709827,108.182962 L39.7492654,113.248775 C39.8903154,113.27028 40.0327879,113.281101 40.1754677,113.281148 C41.6177731,113.277923 42.8147995,112.165533 42.9235897,110.727332 C43.0323798,109.289132 42.0163063,108.009336 40.5908976,107.789188 L26.9480052,105.678893 L33.1190717,65.7387397 L69.1398761,34.8504824 L104.477873,65.7158138 L110.28577,105.701487 L96.6165264,107.686435 C95.1838814,107.89504 94.1551654,109.174097 94.2586167,110.618149 C94.362068,112.062201 95.5626052,113.181555 97.0103561,113.183809 C97.1456399,113.182887 97.2807479,113.173884 97.4149582,113.15685 L130.221098,108.393218 C131.729323,108.168763 132.773056,106.768282 132.557062,105.258822 C132.310231,103.764078 130.925545,102.732135 129.422611,102.922858 L115.756793,104.907143 L109.948896,64.9214699 L136.646118,22.7498181 Z M91.0454025,46.6459826 C92.7837748,45.9499019 94.3618222,44.9064108 95.6829694,43.5793702 C101.05961,46.5866917 107.785698,45.6087553 112.083332,41.1948472 C113.727948,42.0910425 115.538231,42.6420039 117.403265,42.8139739 L106.456413,60.1038098 L91.0454025,46.6459826 Z M31.1928473,60.114306 L20.4017814,42.7232644 C22.2669616,42.5689323 24.0811076,42.0360157 25.7334254,41.1570608 C29.9914661,45.6095601 36.7090748,46.647277 42.1121883,43.6872052 C43.4223458,45.0263341 44.9919668,46.0840518 46.7250062,46.7956368 L31.1928473,60.114306 Z M51.885175,42.370149 C51.494012,42.3641035 51.1036924,42.3318798 50.7168339,42.2736942 C48.3577815,41.9063675 46.2779091,40.524382 45.0252795,38.4919017 C44.5987863,37.8184532 43.9021439,37.3620938 43.1143944,37.2401108 C42.3266448,37.1181279 41.5246041,37.3424164 40.9144025,37.8553328 C39.1068418,39.4181954 36.7043175,40.1087656 34.3427615,39.7442542 C31.9812056,39.3797427 29.898717,37.9969008 28.6465166,35.9617572 C28.2186424,35.2883875 27.5211112,34.8322996 26.7326719,34.7103704 C25.9442327,34.5884413 25.1415161,34.8125215 24.5302257,35.3251884 C22.7079153,36.8677661 20.3108959,37.553468 17.9484804,37.2079915 C17.5496145,37.1292571 17.1575172,37.0194485 16.775775,36.8795699 L9.20340631,24.6757663 L62.8498708,32.9677898 L51.885175,42.370149 Z M128.764221,24.8698913 L121.03811,37.0728111 L121.035072,37.0728111 C120.661631,37.1833205 120.280617,37.2664065 119.895071,37.321406 C117.528134,37.6716439 115.127324,36.9589016 113.334925,35.3738577 C112.723215,34.8658979 111.927772,34.6352863 111.139224,34.7372889 C110.351402,34.8543905 109.651876,35.3043563 109.218634,35.9726954 C107.939133,37.9866801 105.848964,39.3466573 103.489294,39.7005152 C101.125142,40.0478561 98.7278946,39.3375637 96.9345623,37.7583808 C96.3249777,37.2464258 95.5277499,37.0152967 94.7388609,37.1218119 C93.9510395,37.2389135 93.251513,37.6888793 92.8182714,38.3572184 C91.3911996,40.8198006 88.702931,42.2732459 85.8609267,42.1187919 L75.042239,32.6710227 L128.764221,24.8698913 Z" id="Shape"></path>
                    <path d="M68.6925156,11.7928564 C69.425218,11.7932818 70.128033,11.5024052 70.6461319,10.9843063 C71.1642308,10.4662074 71.4551074,9.76339242 71.454682,9.03069003 L71.454682,3.50635722 C71.454682,1.98085484 70.218018,0.744190816 68.6925156,0.744190816 C67.1670133,0.744190816 65.9303492,1.98085484 65.9303492,3.50635722 L65.9303492,9.03069003 C65.9299239,9.76339242 66.2208004,10.4662074 66.7388993,10.9843063 C67.2569983,11.5024052 67.9598132,11.7932818 68.6925156,11.7928564 Z" id="Shape"></path>
                    <path d="M82.4547888,17.3171892 C83.1874765,17.3181074 83.89031,17.0269417 84.4076957,16.5081507 L88.313399,12.6024474 C89.3734166,11.5207957 89.3646611,9.78726059 88.2937718,8.71637126 C87.2228825,7.64548194 85.4893474,7.63672648 84.4076957,8.69674411 L80.5019924,12.6024474 C79.7124716,13.3924298 79.4763898,14.5801368 79.9037791,15.6120058 C80.3311683,16.6438748 81.3379114,17.3168168 82.4547888,17.3171892 Z" id="Shape"></path>
                    <path d="M51.2616988,16.5081507 C52.3433506,17.5681683 54.0768856,17.5594129 55.147775,16.4885236 C56.2186643,15.4176342 56.2274197,13.6840992 55.1674021,12.6024474 L51.2616988,8.69674411 C50.1800471,7.63672648 48.446512,7.64548194 47.3756227,8.71637126 C46.3047333,9.78726059 46.2959779,11.5207957 47.3559955,12.6024474 L51.2616988,16.5081507 Z" id="Shape"></path>
                </g>
            </g>
        </g>
    </g>
</svg>