<?xml version="1.0" encoding="utf-8"?>
<!-- Generator: Adobe Illustrator 22.1.0, SVG Export Plug-In . SVG Version: 6.00 Build 0)  -->
<svg version="1.1" id="Layer_1" xmlns="http://www.w3.org/2000/svg" xmlns:xlink="http://www.w3.org/1999/xlink" x="0px" y="0px"
	 viewBox="0 0 141.8 142" style="enable-background:new 0 0 141.8 142;" xml:space="preserve">
<style type="text/css">
	.st0{fill:#546EFF;}
</style>
<g>
	<path class="st0" d="M70.9,10.3c-27.5,0-49.8,22.4-49.8,49.9c0,2.6,0.3,5.3,0.8,8c0.1,0.6,0.8,0.8,1.2,0.5c0.3-0.2,0.7-0.5,1.1-0.7
		c1.7-0.9,3.6-1.4,5.5-1.4c0,0,0,0,0,0c0.5,0,0.9-0.4,0.8-0.9c-0.3-1.8-0.5-3.7-0.5-5.4c0-22.6,18.4-41,41-41s41,18.4,41,41
		c0,22.6-28.9,51.5-39.3,61.6c-0.9,0.9-2.5,0.9-3.4,0c-3-3-7.7-7.6-12.7-13.2c-0.1,0-0.1,0-0.2,0c-4-0.4-7.9-1.3-11.5-2.8
		c-0.2-0.1-0.5-0.2-0.7-0.3c-0.7-0.3-1.4,0.6-0.9,1.2c6.6,8.1,13.9,15.5,20.4,21.9c2,2,4.7,3,7.4,3c2.7,0,5.4-1,7.4-3
		c18.2-17.9,42.4-44.6,42.4-68.5C120.8,32.7,98.4,10.3,70.9,10.3z"/>
	<path class="st0" d="M100.5,62.9c-0.1-1.8-0.3-3.6-0.6-5.4c-0.4-1.8-0.9-3.5-1.5-5.2c-0.7-1.7-1.5-3.3-2.4-4.8
		c-3.6-6.1-9-11-15.5-14.1c-3.2-1.5-6.8-2.5-10.5-2.8c-0.5,0-0.9,0-1.4-0.1l-0.4,0l-0.3,0h-0.6H65h-4.6h-1.2h-0.3l-0.4,0
		c-0.3,0-0.7,0-1,0.1c-1.3,0.2-2.6,0.6-3.8,1.2c-2.3,1.2-4.2,3.3-5.1,5.8c-0.2,0.6-0.4,1.3-0.5,1.9c-0.1,0.3-0.1,0.7-0.1,1
		c0,0.2,0,0.3,0,0.5l0,0.4v2.3v4.6V67v4.6V74c0,0.9,0,1.3-0.1,1.7c-0.1,0.4-0.2,0.8-0.3,1.2c-0.1,0.3-0.3,0.6-0.5,0.8
		c-0.3,0.4-0.9,0.8-1.7,1c-0.8,0.2-1.9,0.3-3,0.2c-1.1-0.1-2.3-0.3-3.5-0.7c-2.3-0.8-4.6-2.1-6.3-3.7l0,0c-1.4-1.3-3.5-1.6-5.2-0.6
		c-2.1,1.2-2.9,3.9-1.7,6.1c3.1,5.5,7.3,10.8,12.6,14.7c2.7,2,5.6,3.6,8.7,4.9c3.1,1.2,6.4,2,9.7,2.3c6.7,0.7,13.4-0.5,19.4-3
		c6.1-2.5,11.6-6.4,15.8-11.5l0.1,0c2.2-2.6,4.3-5.5,5.7-8.9c1.5-3.4,2.2-7,2.5-10.4c0.1-0.9,0.1-1.7,0.1-2.6l0-1.3
		C100.6,63.8,100.5,63.3,100.5,62.9z M91.6,65.2c0,0.7-0.1,1.4-0.1,2.1c-0.2,2.7-0.8,5.3-1.8,7.6c-1,2.3-2.5,4.5-4.3,6.6l0.1,0
		c-3.5,3.8-7.8,7-12.6,9c-4.8,2-10.1,2.9-15.1,2.4c-4.9-0.5-9.6-2.3-13.6-5.2c1.2,0,2.5-0.2,3.8-0.6c1.1-0.3,2.2-0.7,3.2-1.4
		c1-0.6,2-1.4,2.9-2.4c0.8-1,1.5-2.1,1.9-3.2c0.4-1.1,0.7-2.3,0.9-3.3C57,75.8,57,74.7,57,74v-2.3V67V48.5v-4.6v-2.3l0-0.1l0,0
		c0,0,0-0.1,0-0.1c0-0.1,0-0.1,0-0.2c0-0.1,0-0.2,0.1-0.3c0.1-0.4,0.5-0.8,0.9-1c0.2-0.1,0.4-0.2,0.6-0.2c0.1,0,0.1,0,0.2,0l0,0
		l0.1,0h0.3h1.2H65h2.3h0.6l0.3,0l0.2,0c0.3,0,0.6,0,0.9,0c2.5,0.2,5,0.9,7.4,2c4.8,2.2,8.9,6,11.6,10.5c0.7,1.1,1.2,2.3,1.7,3.5
		c0.5,1.2,0.8,2.5,1.1,3.7c0.3,1.3,0.4,2.6,0.5,3.8c0,0.3,0,0.6,0,1L91.6,65.2z"/>
</g>
</svg>
