<svg width="28" height="28" xmlns="http://www.w3.org/2000/svg"><defs><linearGradient x1="68.375%" y1="82.179%" x2="27.728%" y2="18.506%" id="a"><stop stop-color="#346CEA" offset="3%"/><stop stop-color="#51D372" offset="99%"/></linearGradient><linearGradient x1="147.461%" y1="83.771%" x2="-48.559%" y2="16.257%" id="b"><stop stop-color="#346CEA" offset="3%"/><stop stop-color="#429DB1" offset="47%"/><stop stop-color="#51D372" offset="99%"/></linearGradient><linearGradient x1="41.421%" y1="76.731%" x2="90.201%" y2="-4.721%" id="c"><stop stop-color="#346CEA" offset="3%"/><stop stop-color="#3E8FC1" offset="33%"/><stop stop-color="#4CC088" offset="78%"/><stop stop-color="#51D372" offset="99%"/></linearGradient><linearGradient x1="155.402%" y1="84.687%" x2="-55.691%" y2="15.938%" id="d"><stop stop-color="#346CEA" offset="3%"/><stop stop-color="#4096B9" offset="44%"/><stop stop-color="#51D372" offset="99%"/></linearGradient></defs><g fill="none" fill-rule="evenodd"><circle fill="#F1F0F0" cx="14" cy="14" r="14"/><path d="M15.71 12.138c-1.91-1.125-3.787-2.322-5.664-3.497a.391.391 0 00-.452-.028c-.74.433-1.48.863-2.226 1.28-.246.139-.245.217 0 .36 1.63.952 3.255 1.913 4.877 2.882.369.217.735.44 1.107.652.238.128.427.333.54.583l2.542-1.52a1.693 1.693 0 00-.723-.712z"/><path d="M16.932 4.414c-1.024-.571-2.027-1.187-3.038-1.785-1.332-.794-2.662-1.588-4-2.37A1.635 1.635 0 008.264.18c-.453.229-.88.513-1.332.771C4.883 2.163 2.835 3.381.778 4.587a1.19 1.19 0 00-.615 1.134c.008.416.017.831 0 1.247a.574.574 0 00.314.594c2.037 1.194 4.061 2.406 6.098 3.598a.867.867 0 01.368.375l1.948-1.165a1.236 1.236 0 00-.54-.583c-.373-.212-.739-.435-1.108-.652a3905.53 3905.53 0 00-4.877-2.883c-.243-.142-.244-.22 0-.358.746-.418 1.486-.848 2.226-1.281a.391.391 0 01.453.028c1.883 1.175 3.753 2.372 5.664 3.492.305.156.557.404.722.711l2-1.193a1.426 1.426 0 00-.574-.59c-1.952-1.164-3.892-2.35-5.839-3.524-.164-.099-.273-.175-.032-.318A93.788 93.788 0 008.87 2.151a.375.375 0 01.426.017c2.025 1.235 4.055 2.467 6.09 3.695.164.09.299.227.387.396l1.899-1.137a1.694 1.694 0 00-.739-.708z" fill="url(#a)" fill-rule="nonzero" transform="translate(5 4)"/><path d="M11.552 18.835l2.026-1.206c-.01-1.083 0-3.094 0-3.8V8.387a1.61 1.61 0 00-.153-.731l-2 1.193c.043-.025.141.626.141.675.072 3.103.019 6.208-.014 9.31z" fill="url(#b)" fill-rule="nonzero" transform="translate(5 4)"/><path d="M8.89 10.37l-1.947 1.165c.06.127.088.268.083.41v5.126c0 .36-.026.372-.318.199-1.173-.692-2.344-1.386-3.516-2.081l-2.69-1.587c-.293-.178-.337-.153-.348.18v.878c-.038.511.233.993.681 1.213 1.28.75 2.553 1.51 3.827 2.267.858.51 1.707 1.041 2.576 1.531.87.49 1.771-.079 1.771-1.066v-7.62a1.48 1.48 0 00-.118-.615z" fill="url(#c)" fill-rule="nonzero" transform="translate(5 4)"/><path d="M17.846 6.003a1.861 1.861 0 00-.183-.88l-1.898 1.136c.07.148.102.311.095.476-.017 1.562 0 3.125-.01 4.687v4.857c0 .126-.018.318.147.269.246-.062.452-.243.668-.373a8.12 8.12 0 00.72-.46c.34-.255.461-.726.461-1.139a454.99 454.99 0 010-8.573z" fill="url(#d)" fill-rule="nonzero" transform="translate(5 4)"/><path d="M5.41 15.706c.616.343 1.218.704 1.825 1.054.98.564 1.963 1.123 2.94 1.692.236.138.308.072.299-.189-.01-.236 0-.476 0-.707a4.444 4.444 0 010-.573c.041-.332-.105-.516-.377-.664-.579-.317-1.146-.648-1.717-.976-.97-.559-1.938-1.12-2.91-1.678-.267-.159-.307-.125-.307.198v1.383a.46.46 0 00.248.46z" fill="#346CEA" fill-rule="nonzero"/></g></svg>