<svg width="28" height="19" xmlns="http://www.w3.org/2000/svg"><defs><linearGradient x1="85.998%" y1="34.875%" x2="22.699%" y2="121.958%" id="a"><stop stop-color="#D2E3E5" offset="0%"/><stop stop-color="#CEE2E4" offset="1%"/><stop stop-color="#90CDD8" offset="21%"/><stop stop-color="#5DBCCD" offset="41%"/><stop stop-color="#35AFC5" offset="59%"/><stop stop-color="#18A5BF" offset="75%"/><stop stop-color="#069FBB" offset="90%"/><stop stop-color="#009DBA" offset="100%"/></linearGradient><linearGradient x1="44.172%" y1="-18.542%" x2="77.842%" y2="88.292%" id="b"><stop stop-color="#27BCD2" offset="0%"/><stop stop-color="#006F88" offset="82%"/></linearGradient><linearGradient x1="44.152%" y1="-18.542%" x2="77.834%" y2="88.292%" id="c"><stop stop-color="#27BCD2" offset="0%"/><stop stop-color="#006F88" offset="82%"/></linearGradient><linearGradient x1="85.998%" y1="34.875%" x2="22.699%" y2="122%" id="d"><stop stop-color="#D2E3E5" offset="0%"/><stop stop-color="#CEE2E4" offset="1%"/><stop stop-color="#90CDD8" offset="21%"/><stop stop-color="#5DBCCD" offset="41%"/><stop stop-color="#35AFC5" offset="59%"/><stop stop-color="#18A5BF" offset="75%"/><stop stop-color="#069FBB" offset="90%"/><stop stop-color="#009DBA" offset="100%"/></linearGradient><linearGradient x1="85.962%" y1="34.875%" x2="22.663%" y2="122%" id="e"><stop stop-color="#D2E3E5" offset="0%"/><stop stop-color="#CEE2E4" offset="1%"/><stop stop-color="#90CDD8" offset="21%"/><stop stop-color="#5DBCCD" offset="41%"/><stop stop-color="#35AFC5" offset="59%"/><stop stop-color="#18A5BF" offset="75%"/><stop stop-color="#069FBB" offset="90%"/><stop stop-color="#009DBA" offset="100%"/></linearGradient><linearGradient x1="44.136%" y1="-18.591%" x2="77.842%" y2="88.328%" id="f"><stop stop-color="#27BCD2" offset="0%"/><stop stop-color="#006F88" offset="82%"/></linearGradient><linearGradient x1="85.998%" y1="34.89%" x2="22.699%" y2="122.009%" id="g"><stop stop-color="#D2E3E5" offset="0%"/><stop stop-color="#CEE2E4" offset="1%"/><stop stop-color="#90CDD8" offset="21%"/><stop stop-color="#5DBCCD" offset="41%"/><stop stop-color="#35AFC5" offset="59%"/><stop stop-color="#18A5BF" offset="75%"/><stop stop-color="#069FBB" offset="90%"/><stop stop-color="#009DBA" offset="100%"/></linearGradient><linearGradient x1="85.993%" y1="34.89%" x2="22.671%" y2="122.009%" id="h"><stop stop-color="#D2E3E5" offset="0%"/><stop stop-color="#CEE2E4" offset="1%"/><stop stop-color="#90CDD8" offset="21%"/><stop stop-color="#5DBCCD" offset="41%"/><stop stop-color="#35AFC5" offset="59%"/><stop stop-color="#18A5BF" offset="75%"/><stop stop-color="#069FBB" offset="90%"/><stop stop-color="#009DBA" offset="100%"/></linearGradient></defs><g fill="none" fill-rule="evenodd"><path fill="url(#a)" d="M14.02 6.054L10.524 0 7.03 6.054zM3.537 0L.04 6.054h6.99z"/><path fill="url(#b)" d="M17.514 0h-6.99l3.496 6.054z"/><path fill="url(#c)" d="M10.524 0H3.537L7.03 6.054z"/><path fill="url(#a)" d="M21.01 6.054L17.514 0 14.02 6.054z"/><path fill="url(#b)" d="M24.504 0h-6.99l3.496 6.054z"/><path fill="url(#d)" d="M7.03 18.16h6.99l-3.496-6.054zm-6.99 0h6.99l-3.493-6.054z"/><path fill="url(#b)" d="M10.524 12.106l3.496 6.054 3.494-6.054z"/><path fill="url(#c)" d="M3.537 12.106L7.03 18.16l3.494-6.054z"/><path fill="url(#d)" d="M14.02 18.16h6.99l-3.496-6.054z"/><path fill="url(#e)" d="M24.504 12.106L21.01 18.16H28z"/><path fill="url(#b)" d="M17.514 12.106l3.496 6.054 3.494-6.054z"/><path fill="url(#f)" d="M7.03 6.054l3.494 6.052 3.496-6.052zm-6.99 0l3.497 6.052L7.03 6.054z"/><path fill="url(#g)" d="M10.524 12.106h6.99L14.02 6.054z"/><path fill="url(#h)" d="M7.03 6.054l-3.493 6.052h6.987z"/><path fill="url(#f)" d="M17.514 12.106l3.496-6.052h-6.99z"/><path fill="url(#g)" d="M24.504 12.106L21.01 6.054l-3.496 6.052z"/></g></svg>