<?xml version="1.0" encoding="UTF-8"?>
<svg width="90px" height="90px" viewBox="0 0 90 90" version="1.1" xmlns="http://www.w3.org/2000/svg" xmlns:xlink="http://www.w3.org/1999/xlink">
    <!-- Generator: Sketch 51.2 (57519) - http://www.bohemiancoding.com/sketch -->
    <title>Group 13</title>
    <desc>Created with Sketch.</desc>
    <defs></defs>
    <g id="Desktop" stroke="none" stroke-width="1" fill="none" fill-rule="evenodd">
        <g id="FAQs-2" transform="translate(-1018.000000, -1057.000000)">
            <g id="Group-13-Copy-2" transform="translate(216.000000, 1026.000000)">
                <g id="Group-2-Copy-6" transform="translate(686.000000, 0.000000)">
                    <g id="Group-10" transform="translate(127.000000, 42.000000)">
                        <rect id="Rectangle-3" fill="#FFFFFF" x="2" y="18" width="63" height="47"></rect>
                        <g id="Group-13">
                            <rect id="Rectangle" fill="#05C0A5" x="3" y="3" width="63" height="15"></rect>
                            <g id="browser" fill="#003945" fill-rule="nonzero" stroke="#003945" stroke-width="0.5">
                                <path d="M62.0234375,0 L5.9765625,0 C2.68108594,0 0,2.68108594 0,5.9765625 L0,62.0234375 C0,65.3189141 2.68108594,68 5.9765625,68 L62.0234375,68 C65.3189141,68 68,65.3189141 68,62.0234375 L68,5.9765625 C68,2.68108594 65.3190469,0 62.0234375,0 Z M64.015625,62.0234375 C64.015625,63.1219297 63.1220625,64.015625 62.0234375,64.015625 L5.9765625,64.015625 C4.87807031,64.015625 3.984375,63.1219297 3.984375,62.0234375 L3.984375,19.921875 L64.015625,19.921875 L64.015625,62.0234375 Z M64.015625,15.9375 L3.984375,15.9375 L3.984375,5.9765625 C3.984375,4.87807031 4.87807031,3.984375 5.9765625,3.984375 L62.0234375,3.984375 C63.1219297,3.984375 64.015625,4.87807031 64.015625,5.9765625 L64.015625,15.9375 Z" id="Shape"></path>
                                <path d="M57.2962963,7.55555556 L53.5185185,7.55555556 C52.4753481,7.55555556 51.6296296,8.40127407 51.6296296,9.44444444 C51.6296296,10.4876148 52.4753481,11.3333333 53.5185185,11.3333333 L57.2962963,11.3333333 C58.3394667,11.3333333 59.1851852,10.4876148 59.1851852,9.44444444 C59.1851852,8.40127407 58.3394667,7.55555556 57.2962963,7.55555556 Z" id="Shape"></path>
                                <path d="M45.962963,7.55555556 L42.1851852,7.55555556 C41.1420148,7.55555556 40.2962963,8.40127407 40.2962963,9.44444444 C40.2962963,10.4876148 41.1420148,11.3333333 42.1851852,11.3333333 L45.962963,11.3333333 C47.0061333,11.3333333 47.8518519,10.4876148 47.8518519,9.44444444 C47.8518519,8.40127407 47.0061333,7.55555556 45.962963,7.55555556 Z" id="Shape"></path>
                                <path d="M34.6296296,7.55555556 L30.8518519,7.55555556 C29.8086815,7.55555556 28.962963,8.40127407 28.962963,9.44444444 C28.962963,10.4876148 29.8086815,11.3333333 30.8518519,11.3333333 L34.6296296,11.3333333 C35.6728,11.3333333 36.5185185,10.4876148 36.5185185,9.44444444 C36.5185185,8.40127407 35.6728,7.55555556 34.6296296,7.55555556 Z" id="Shape"></path>
                                <path d="M34.6296296,23.9259259 C24.5614741,23.9259259 16.3703704,32.1170296 16.3703704,42.1851852 C16.3703704,52.2533407 24.5614741,60.4444444 34.6296296,60.4444444 C44.6979204,60.4444444 52.8888889,52.2533407 52.8888889,42.1851852 C52.8888889,32.1170296 44.6979204,23.9259259 34.6296296,23.9259259 Z M48.6857427,40.1563786 L42.6980582,40.1563786 C42.5279089,36.3438453 41.8818016,32.7927575 40.8330439,29.9961152 C40.7390425,29.7453547 40.6430123,29.5073081 40.5459001,29.2760241 C44.8429125,31.253299 47.9901325,35.314023 48.6857427,40.1563786 Z M20.5735166,44.2139918 L26.5612011,44.2139918 C26.7313503,48.0265251 27.3774576,51.5776129 28.4262154,54.3742551 C28.5202167,54.6250156 28.6162469,54.8630623 28.7133591,55.0943462 C24.416482,53.1170713 21.269262,49.0563473 20.5735166,44.2139918 Z M28.4262154,29.9962505 C27.3774576,32.7928927 26.7313503,36.3439805 26.5612011,40.1565139 L20.5735166,40.1565139 C21.269262,35.3141583 24.416482,31.253299 28.7133591,29.2761594 C28.6162469,29.5074433 28.5202167,29.74549 28.4262154,29.9962505 Z M37.0337654,52.9494919 C35.9816263,55.7553314 34.9189374,56.3868313 34.6296296,56.3868313 C34.3403218,56.3868313 33.2777682,55.7553314 32.2254938,52.9494919 C31.3375528,50.5817394 30.7832829,47.5336604 30.6221956,44.2139918 L38.6370636,44.2139918 C38.4759764,47.5335251 37.9217064,50.5817394 37.0337654,52.9494919 Z M30.6221956,40.1563786 C30.7832829,36.8368453 31.3375528,33.788631 32.2254938,31.4208785 C33.2777682,28.615039 34.3403218,27.9835391 34.6296296,27.9835391 C34.9189374,27.9835391 35.9816263,28.615039 37.0337654,31.4208785 C37.9217064,33.788631 38.4759764,36.83671 38.6370636,40.1563786 L30.6221956,40.1563786 Z M40.5459001,55.0943462 C40.6430123,54.8630623 40.7390425,54.6248804 40.8330439,54.3742551 C41.8818016,51.5776129 42.5279089,48.0265251 42.6980582,44.2139918 L48.6857427,44.2139918 C47.9901325,49.0563473 44.8429125,53.1172066 40.5459001,55.0943462 Z" id="Shape"></path>
                            </g>
                        </g>
                    </g>
                </g>
            </g>
        </g>
    </g>
</svg>