<svg width="26" height="27" xmlns="http://www.w3.org/2000/svg"><g fill="none" fill-rule="evenodd"><path d="M12.954 26.64C5.81 26.64.02 20.848.02 13.704S5.81.77 12.954.77 25.89 6.56 25.89 13.704 20.098 26.64 12.954 26.64z" fill="#6D89A6"/><path d="M13.976 20.64c-1.798 0-3.418-.751-4.466-2.146-.633-.771-1.067-1.814-1.245-3.083H7V14.12h1.107v-.313c0-.27.02-.541.04-.77H7v-1.291h1.325c.236-1.292.77-2.355 1.481-3.167 1.067-1.23 2.51-1.938 4.27-1.938 1.186 0 2.175.313 2.825.646l-.493 1.917a4.927 4.927 0 00-2.213-.542c-.989 0-1.858.375-2.511 1.146-.413.458-.71 1.145-.87 1.938h5.178v1.29h-5.415c-.04.23-.04.48-.04.751v.333h5.455v1.292h-5.237c.14.875.435 1.563.85 2.021.672.771 1.62 1.126 2.649 1.126.967 0 1.877-.355 2.333-.605L17 19.808c-.652.415-1.757.832-3.024.832z" fill="#FFF" fill-rule="nonzero"/></g></svg>