<?xml version="1.0" encoding="UTF-8"?>
<svg width="26px" height="27px" viewBox="0 0 26 27" version="1.1" xmlns="http://www.w3.org/2000/svg" xmlns:xlink="http://www.w3.org/1999/xlink">
    <!-- Generator: Sketch 51.2 (57519) - http://www.bohemiancoding.com/sketch -->
    <title>EUR</title>
    <desc>Created with Sketch.</desc>
    <defs></defs>
    <g id="Desktop" stroke="none" stroke-width="1" fill="none" fill-rule="evenodd">
        <g id="my-wallet-1.7" transform="translate(-514.000000, -621.000000)">
            <g id="pop-out" transform="translate(470.000000, 207.000000)">
                <g id="Group-7" transform="translate(26.000000, 160.000000)">
                    <g id="Group-3" transform="translate(0.000000, 240.640000)">
                        <g id="Group-2" transform="translate(18.000000, 14.000000)">
                            <g id="EUR">
                                <g id="BTC" fill="#6D89A6">
                                    <path d="M12.9542478,25.9995343 C5.81019801,25.9995343 0.0189243781,20.2082607 0.0189243781,13.0642109 C0.0189243781,5.92016119 5.81019801,0.128887562 12.9542478,0.128887562 C20.0982975,0.128887562 25.8895711,5.92016119 25.8895711,13.0642109 C25.8895711,20.2082607 20.0982975,25.9995343 12.9542478,25.9995343 Z" id="Fill-504"></path>
                                </g>
                                <g id="euro" transform="translate(7.000000, 6.000000)" fill="#FFFFFF" fill-rule="nonzero">
                                    <path d="M6.97634241,14 C5.17836576,14 3.55787289,13.2489219 2.50972763,11.8543906 C1.87740597,11.0828594 1.4429572,10.0402969 1.26459144,8.77138281 L0,8.77138281 L0,7.47851562 L1.10734112,7.47851562 C1.10734112,7.37428125 1.10734112,7.27174219 1.10734112,7.16575781 C1.10734112,6.89571094 1.12679637,6.62484375 1.14625162,6.39586719 L0,6.39586719 L0,5.10475 L1.3245655,5.10475 C1.56124514,3.81275781 2.09546044,2.74979687 2.80638132,1.93801562 C3.87320363,0.708367187 5.31616083,0 7.07683528,0 C8.26199741,0 9.25094682,0.312757812 9.90111543,0.64596875 L9.40824903,2.56260156 C8.89431907,2.29173437 8.08529183,2.02086719 7.19522698,2.02086719 C6.20627756,2.02086719 5.33727626,2.39596875 4.68394293,3.16673437 C4.27050584,3.62474219 3.97380026,4.31178125 3.81494163,5.10475 L8.99159533,5.10475 L8.99159533,6.39586719 L3.57732815,6.39586719 C3.53758755,6.62489844 3.53758755,6.87525781 3.53758755,7.146125 C3.53758755,7.27174219 3.53758755,7.35459375 3.53758755,7.47851562 L8.99154345,7.47851562 L8.99154345,8.77138281 L3.75486381,8.77138281 C3.89431907,9.64550781 4.19019455,10.3342422 4.60440986,10.79225 C5.27725032,11.5630156 6.22568093,11.9176094 7.25354086,11.9176094 C8.22137484,11.9176094 9.1309987,11.5630156 9.58656291,11.3134766 L10,13.1677109 C9.34827497,13.5830078 8.24254215,14 6.97634241,14 Z" id="Shape"></path>
                                </g>
                            </g>
                        </g>
                    </g>
                </g>
            </g>
        </g>
    </g>
</svg>