<?xml version="1.0" encoding="UTF-8"?>
<svg width="26px" height="27px" viewBox="0 0 26 27" version="1.1" xmlns="http://www.w3.org/2000/svg" xmlns:xlink="http://www.w3.org/1999/xlink">
    <!-- Generator: Sketch 51.2 (57519) - http://www.bohemiancoding.com/sketch -->
    <title>GBP</title>
    <desc>Created with Sketch.</desc>
    <defs></defs>
    <g id="Desktop" stroke="none" stroke-width="1" fill="none" fill-rule="evenodd">
        <g id="my-wallet-1.7" transform="translate(-514.000000, -681.000000)">
            <g id="pop-out" transform="translate(470.000000, 207.000000)">
                <g id="Group-7" transform="translate(26.000000, 160.000000)">
                    <g id="Group-3" transform="translate(0.000000, 300.800000)">
                        <g id="Group-2" transform="translate(18.000000, 14.000000)">
                            <g id="GBP">
                                <path d="M25.8895711,13.0642109 C25.8895711,20.2082607 20.0982975,25.9995343 12.9542478,25.9995343 C5.81019801,25.9995343 0.0189243781,20.2082607 0.0189243781,13.0642109 C0.0189243781,5.92016119 5.81019801,0.128887562 12.9542478,0.128887562 C20.0982975,0.128887562 25.8895711,5.92016119 25.8895711,13.0642109" id="Fill-504" fill="#476081"></path>
                                <g id="gbp" transform="translate(8.193182, 6.000000)" fill="#FFFFFF" fill-rule="nonzero">
                                    <path d="M10,9.93529412 L10,13.5333333 C10,13.6248366 9.97058824,13.7 9.91176471,13.7588235 C9.85294118,13.8176471 9.77777778,13.8470588 9.68627451,13.8470588 L0.31372549,13.8470588 C0.222222222,13.8470588 0.147058824,13.8176471 0.0882352941,13.7588235 C0.0294117647,13.7 0,13.6248366 0,13.5333333 L0,12.0627451 C0,11.9777778 0.0310457516,11.9042484 0.0931372549,11.8421569 C0.155228758,11.7800654 0.22875817,11.7490196 0.31372549,11.7490196 L1.26470588,11.7490196 L1.26470588,7.99411765 L0.333333333,7.99411765 C0.241830065,7.99411765 0.166666667,7.9630719 0.107843137,7.90098039 C0.0490196078,7.83888889 0.0196078431,7.76535948 0.0196078431,7.68039216 L0.0196078431,6.39607843 C0.0196078431,6.30457516 0.0490196078,6.22941176 0.107843137,6.17058824 C0.166666667,6.11176471 0.241830065,6.08235294 0.333333333,6.08235294 L1.26470588,6.08235294 L1.26470588,3.89607843 C1.26470588,2.77843137 1.66830065,1.85686275 2.4754902,1.13137255 C3.28267974,0.405882353 4.31045752,0.0431372549 5.55882353,0.0431372549 C6.76797386,0.0431372549 7.8627451,0.451633987 8.84313725,1.26862745 C8.90196078,1.32091503 8.93464052,1.3879085 8.94117647,1.46960784 C8.94771242,1.55130719 8.9248366,1.6248366 8.87254902,1.69019608 L7.8627451,2.93529412 C7.80392157,3.00718954 7.73202614,3.04640523 7.64705882,3.05294118 C7.5620915,3.06601307 7.4869281,3.04313725 7.42156863,2.98431373 C7.38888889,2.95163399 7.30392157,2.88954248 7.16666667,2.79803922 C7.02941176,2.70653595 6.80392157,2.60196078 6.49019608,2.48431373 C6.17647059,2.36666667 5.87254902,2.30784314 5.57843137,2.30784314 C5.02287582,2.30784314 4.5751634,2.46143791 4.23529412,2.76862745 C3.89542484,3.07581699 3.7254902,3.47777778 3.7254902,3.9745098 L3.7254902,6.08235294 L6.71568627,6.08235294 C6.80065359,6.08235294 6.87418301,6.11176471 6.93627451,6.17058824 C6.99836601,6.22941176 7.02941176,6.30457516 7.02941176,6.39607843 L7.02941176,7.68039216 C7.02941176,7.76535948 6.99836601,7.83888889 6.93627451,7.90098039 C6.87418301,7.9630719 6.80065359,7.99411765 6.71568627,7.99411765 L3.7254902,7.99411765 L3.7254902,11.7098039 L7.78431373,11.7098039 L7.78431373,9.93529412 C7.78431373,9.8503268 7.81372549,9.77679739 7.87254902,9.71470588 C7.93137255,9.65261438 8.00653595,9.62156863 8.09803922,9.62156863 L9.68627451,9.62156863 C9.77777778,9.62156863 9.85294118,9.65261438 9.91176471,9.71470588 C9.97058824,9.77679739 10,9.8503268 10,9.93529412 Z" id="Shape"></path>
                                </g>
                            </g>
                        </g>
                    </g>
                </g>
            </g>
        </g>
    </g>
</svg>