<?xml version="1.0" encoding="UTF-8"?>
<svg width="28px" height="28px" viewBox="0 0 28 28" version="1.1" xmlns="http://www.w3.org/2000/svg" xmlns:xlink="http://www.w3.org/1999/xlink">
    <!-- Generator: Sketch 50.2 (55047) - http://www.bohemiancoding.com/sketch -->
    <title>gifto</title>
    <desc>Created with Sketch.</desc>
    <defs></defs>
    <g id="IOS?-(for-Mike-Le)" stroke="none" stroke-width="1" fill="none" fill-rule="evenodd">
        <g id="Artboard-2-Copy" transform="translate(-152.000000, -127.000000)">
            <g id="gifto" transform="translate(152.000000, 127.000000)">
                <g>
                    <path d="M13.0745017,26.9703533 C5.44681295,26.4439206 -0.0505333598,19.684153 1.21994298,12.4026115 C2.12811619,7.18953093 6.41778536,3.05260907 11.8233482,2.17677426 C15.9922497,1.50126337 20.1659818,2.78240471 23.1561904,5.66613741 C29.2766981,11.568705 27.8178242,21.384577 20.2094582,25.4702532 C18.1370843,26.5883402 15.5043481,27.1380663 13.0745017,26.9703533 Z" id="Path-Copy" fill="#FFFFFF"></path>
                    <g id="Group" transform="translate(13.550617, 14.000000) scale(-1, 1) rotate(-180.000000) translate(-13.550617, -14.000000) " fill-rule="nonzero">
                        <path d="M12.5812736,27.9634805 C4.60943129,27.3739519 -1.13594966,19.8039873 0.191849276,11.6497112 C1.14099833,5.81181293 5.62421299,1.1790572 11.2736693,0.198248556 C15.6306673,-0.558226197 19.992714,0.8764673 23.1178378,4.10583194 C29.5144965,10.7158562 27.9897996,21.7082169 20.038152,26.2835849 C17.8722747,27.535681 15.1207521,28.151295 12.5812736,27.9634805 Z M11.3191073,21.2282467 C11.7230005,21.0039128 12.2177697,20.5187255 12.5358356,20.0335383 C12.7680742,19.6735606 13.3335247,18.5153717 13.3335247,18.3953792 C13.3335247,18.3484256 13.419352,18.3275573 13.5708119,18.3275573 C13.7273206,18.3275573 13.8131479,18.3484256 13.8131479,18.3953792 C13.8131479,18.5153717 14.3785984,19.6735606 14.610837,20.0335383 C14.9238542,20.5135085 15.4186234,21.0039128 15.8275653,21.2282467 L16.1708745,21.4212782 L16.7262277,21.4212782 L17.2815808,21.4212782 L17.6147927,21.2595491 C18.2307299,20.9673933 18.5286011,20.4665549 18.5286011,19.7205143 C18.5286011,19.1779393 18.4225792,18.849264 18.1045133,18.4475498 L17.8419827,18.1084405 L19.0991003,18.1032234 C20.4723372,18.1032234 20.6439918,18.0771381 20.9772037,17.8162847 C21.7546982,17.2006708 21.5376056,15.901621 20.5985538,15.5572946 L20.3713639,15.4790386 L17.2512888,15.4790386 L14.1312138,15.4790386 L14.1312138,16.600708 L14.1312138,17.7223775 L13.5708119,17.7223775 L13.0154588,17.7223775 L13.0154588,16.600708 L13.0154588,15.4790386 L9.89538371,15.4790386 L6.77530864,15.4790386 L6.54307004,15.5572946 C5.60401833,15.901621 5.38692572,17.2006708 6.16946882,17.8162847 C6.50268072,18.0771381 6.66928667,18.1032234 8.04757226,18.1032234 L9.30468989,18.1084405 L9.03711063,18.4475498 C8.72409339,18.849264 8.61807142,19.1779393 8.61807142,19.7205143 C8.61807142,20.8265325 9.32488455,21.4682318 10.4961749,21.4317123 L10.9757981,21.4160611 L11.3191073,21.2282467 Z M13.0154588,10.627166 L13.0154588,6.49003168 L10.8546301,6.50568288 L8.68875274,6.52133408 L8.29495685,6.71958263 C7.62853305,7.05869201 7.17920185,7.62213527 7.00249857,8.33165642 L6.92171993,8.64989752 L6.92171993,11.7070989 L6.92171993,14.7643004 L9.96606502,14.7643004 L13.0154588,14.7643004 L13.0154588,10.627166 Z M20.2249526,11.7070989 L20.2249526,8.64989752 L20.144174,8.33165642 C19.9674707,7.62213527 19.5130908,7.05869201 18.8517157,6.71958263 L18.4528712,6.52133408 L16.2920425,6.50568288 L14.1312138,6.49003168 L14.1312138,10.627166 L14.1312138,14.7643004 L17.1755589,14.7643004 L20.2249526,14.7643004 L20.2249526,11.7070989 Z" id="Shape" fill="#7E27FF"></path>
                        <path d="M10.011503,19.934414 L9.87518905,19.7935532 L9.90043237,19.5587852 C9.96606502,18.9796907 10.6021968,18.5518912 11.6422219,18.3901621 L11.9400931,18.3432085 L11.8845578,18.4840693 C11.3443506,19.7465996 10.4759802,20.4196013 10.011503,19.934414 Z" id="Shape" fill="#000000"></path>
                        <path d="M16.3475778,19.9657164 C16.0093172,19.7831191 15.54484,19.1466369 15.2621148,18.4840693 L15.2015308,18.3432085 L15.499402,18.3901621 C16.5394271,18.5518912 17.1806075,18.9796907 17.2411915,19.5587852 L17.2714835,19.7935532 L17.1351695,19.934414 C16.9635149,20.1117943 16.6353517,20.1222284 16.3475778,19.9657164 Z" id="Shape" fill="#000000"></path>
                    </g>
                </g>
            </g>
        </g>
    </g>
</svg>