<?xml version="1.0" encoding="UTF-8"?>
<svg width="90px" height="90px" viewBox="0 0 90 90" version="1.1" xmlns="http://www.w3.org/2000/svg" xmlns:xlink="http://www.w3.org/1999/xlink">
    <!-- Generator: Sketch 51.2 (57519) - http://www.bohemiancoding.com/sketch -->
    <title>Group 13</title>
    <desc>Created with Sketch.</desc>
    <defs></defs>
    <g id="Desktop" stroke="none" stroke-width="1" fill="none" fill-rule="evenodd">
        <g id="FAQs-2" transform="translate(-675.000000, -1057.000000)">
            <g id="Group-13-Copy-2" transform="translate(216.000000, 1026.000000)">
                <g id="Group-2-Copy-5" transform="translate(343.000000, 0.000000)"></g>
                <g id="hardware-icon" transform="translate(468.000000, 40.000000)">
                    <g>
                        <polygon id="Path-3" fill="#FFFFFF" points="34.1850108 15.0908544 56.4237496 37.3132317 24.4907995 70.116752 19.4439468 68.8337347 5.26122021 55.0130072 3.40418564 47.6700852 5.26122021 43.4133584"></polygon>
                        <polygon id="Path-4" fill="#FFFFFF" points="38.9216761 17.0876437 55.2218583 34.4854125 68.8012532 19.5330119 51.3175863 2.96831814"></polygon>
                        <path d="M71.3688475,18.1842419 L53.4691339,0.60451441 C52.6496358,-0.200566261 51.3364979,-0.20155064 50.5155933,0.601842527 L37.090562,13.7390716 L35.5829217,12.2315668 C34.7482346,11.3970954 33.4066878,11.4157986 32.5915494,12.2397231 L3.09200581,42.061458 C-1.02193974,46.1750335 -1.03572227,52.8374452 3.08103604,56.9655052 L14.6796004,68.887871 C14.686351,68.8949023 14.6932423,68.9017929 14.7001335,68.908543 C18.8222361,73.0302747 25.4939667,73.0306966 29.6163505,68.908543 L59.4490657,39.0783705 C60.2729237,38.2545866 60.2729237,36.9192074 59.4490657,36.0954235 L57.9574581,34.6039501 L71.3823487,21.1804076 C72.211129,20.3521237 72.2050816,19.0052132 71.3688475,18.1842419 Z M26.6331352,65.925596 C24.1574828,68.4010257 20.1616733,68.3937132 17.6926309,65.9348773 L6.09589488,54.0143396 C6.08914425,54.0073083 6.08225298,54.0004177 6.07536172,53.993527 C3.61278868,51.5313161 3.58789573,47.5316472 6.08337809,45.0362487 L34.099471,16.7140029 L54.9742428,37.586897 L26.6331352,65.925596 Z M54.9742428,31.6210031 C52.8178389,29.4647932 40.3013298,16.9494099 40.0740586,16.7221591 L51.9883554,5.06332539 L66.8940246,19.7024342 L54.9742428,31.6210031 Z" id="Shape" stroke="#003945" fill="#003945" fill-rule="nonzero"></path>
                        <path d="M18.3416008,35.4523715 L42.1801383,35.4523715 C42.7324231,35.4523715 43.1801383,35.9000868 43.1801383,36.4523715 L43.1801383,49.3314794 C43.1801383,49.8837641 42.7324231,50.3314794 42.1801383,50.3314794 L18.3416008,50.3314794 C16.1324618,50.3314794 14.3416008,48.5406184 14.3416008,46.3314794 L14.3416008,39.4523715 C14.3416008,37.2432325 16.1324618,35.4523715 18.3416008,35.4523715 Z" id="Rectangle" stroke="#003945" stroke-width="3.8" fill="#05C0A5" transform="translate(28.760870, 42.891925) rotate(-45.000000) translate(-28.760870, -42.891925) "></path>
                        <g id="Group" transform="translate(23.478261, 37.565217)" stroke="#003945" stroke-linecap="round" stroke-width="3.8">
                            <path d="M0,10.4543305 L1.06785191,9.30995396" id="Line"></path>
                            <path d="M5.47826087,4.97606968 L9.74966853,0.398563333" id="Line"></path>
                        </g>
                        <path d="M54.1112151,12.410547 C53.2163292,11.5153249 51.7650432,11.5153249 50.8696989,12.410547 L47.62803,15.6521739 C46.7326857,16.547396 46.7326857,17.9987316 47.62803,18.8938008 C48.5230686,19.7890229 49.9743546,19.7890229 50.8695461,18.8938008 L54.1112151,15.6521739 C55.0064066,14.7569518 55.0064066,13.3056162 54.1112151,12.410547 Z" id="Shape" fill="#003945" fill-rule="nonzero"></path>
                        <path d="M59.5894628,17.8888079 C58.6944067,16.9935858 57.2430924,16.9935858 56.3478834,17.8888079 L53.1063039,21.1304348 C52.2109422,22.0256569 52.2109422,23.4768396 53.1063039,24.3720617 C54.0013601,25.2672838 55.4526744,25.2672838 56.3478834,24.3720617 L59.5894628,21.1304348 C60.4846718,20.2353655 60.4846718,18.7840299 59.5894628,17.8888079 Z" id="Shape" fill="#003945" fill-rule="nonzero"></path>
                    </g>
                </g>
            </g>
        </g>
    </g>
</svg>