<svg height="24" width="24" xmlns="http://www.w3.org/2000/svg"><path d="M8.5 4C5.462 4 3 6.5 3 9.5c0 1.6.617 2.9 1.594 3.9.133.2.259.3.406.5l7 7.1 7-7.1.344-.4c1.013-1 1.656-2.4 1.656-4 0-3-2.462-5.5-5.5-5.5-1.329 0-2.549.4-3.5 1.2C11.049 4.4 9.829 4 8.5 4z" fill="#c0392b"/><path d="M8.889 5C6.189 5 4 7.2 4 9.9c0 1.3.548 2.5 1.417 3.4.119.2.23.3.36.4L12 20l6.222-6.3.306-.3C19.429 12.5 20 11.3 20 9.9 20 7.2 17.811 5 15.111 5 13.93 5 12.845 5.4 12 6.1 11.155 5.4 10.07 5 8.889 5z" fill="#e74c3c"/></svg>