<svg width="31" height="30" xmlns="http://www.w3.org/2000/svg"><g fill="none" fill-rule="evenodd"><path fill="#FFF" d="M-1051-125H389v783h-1440z"/><path fill="#FFF" fill-rule="nonzero" d="M9.249 21.111h13.839v3.295H9.249z"/><path d="M22.31 25.065H8.709c-.43 0-.777-.333-.777-.743v-3.128c0-.41.348-.742.777-.742H22.31c.429 0 .777.332.777.742v3.128c0 .41-.348.743-.777.743zM9.485 23.579h12.05v-1.642H9.484v1.642z" fill="#003945" fill-rule="nonzero"/><path d="M25.39 27.041H6.287a1.65 1.65 0 01-1.651-1.647c0-.91.74-1.647 1.651-1.647H25.39a1.65 1.65 0 011.651 1.647c0 .91-.739 1.647-1.65 1.647z" fill="#05C0A5" fill-rule="nonzero"/><path d="M25.455 27.652H6.223a2.448 2.448 0 01-2.452-2.439c0-1.345 1.1-2.439 2.452-2.439h19.232a2.448 2.448 0 012.452 2.44c0 1.344-1.1 2.438-2.452 2.438zM6.223 24.345a.871.871 0 00-.873.868c0 .479.392.868.873.868h19.232c.48 0 .872-.39.872-.868a.871.871 0 00-.872-.868H6.223zm9.616-19.199a.788.788 0 01-.79-.785V2.834c0-.434.354-.786.79-.786.436 0 .79.352.79.786V4.36a.788.788 0 01-.79.785zm13.049 10.667h-1.536a.788.788 0 01-.79-.786c0-.434.354-.786.79-.786h1.536c.436 0 .79.352.79.786a.788.788 0 01-.79.786zm-24.563 0H2.79a.788.788 0 01-.79-.786c0-.434.354-.786.79-.786h1.535c.436 0 .79.352.79.786a.788.788 0 01-.79.786zM23.422 8.27a.79.79 0 01-.559-.23.783.783 0 010-1.11l1.086-1.08a.793.793 0 011.117 0 .783.783 0 010 1.11L23.98 8.04a.79.79 0 01-.558.23zm-15.166 0a.79.79 0 01-.559-.23L6.612 6.96a.783.783 0 010-1.11.793.793 0 011.117 0l1.085 1.08a.783.783 0 010 1.11.79.79 0 01-.558.23z" fill="#003945" fill-rule="nonzero"/><path d="M24.806 19.087c-.406-4.74-4.386-8.387-9.301-8.387s-8.895 3.647-9.301 8.387h18.602z" stroke="#003945" stroke-width="1.6" fill="#FFF"/><path fill="#FFF" d="M6 16.272h19v5H6z"/><g fill="#003945" fill-rule="nonzero"><path d="M24.932 21.754H6.086a.783.783 0 01-.78-.785v-.827c0-5.649 4.577-10.245 10.203-10.245 1.064 0 2.113.164 3.118.487a.785.785 0 01-.477 1.494 8.606 8.606 0 00-2.64-.412c-4.766 0-8.642 3.892-8.642 8.676v.043H24.15v-.043c0-2.332-.909-4.52-2.558-6.162a.787.787 0 01-.005-1.11.78.78 0 011.105-.004 10.195 10.195 0 013.02 7.276v.827c0 .433-.35.785-.781.785z"/><path d="M15.51 11.283a.783.783 0 01-.782-.784V8.276c0-.433.35-.785.781-.785.432 0 .782.352.782.785v2.223c0 .433-.35.784-.782.784z"/><path d="M17.424 8.877h-3.829a.783.783 0 01-.781-.784c0-.434.35-.785.781-.785h3.829c.431 0 .78.351.78.785a.782.782 0 01-.78.784z"/></g></g></svg>