<?xml version="1.0" encoding="UTF-8"?>
<svg width="31px" height="30px" viewBox="0 0 31 30" version="1.1" xmlns="http://www.w3.org/2000/svg" xmlns:xlink="http://www.w3.org/1999/xlink">
    <!-- Generator: Sketch 51.1 (57501) - http://www.bohemiancoding.com/sketch -->
    <title>help center</title>
    <desc>Created with Sketch.</desc>
    <defs></defs>
    <g id="Symbols" stroke="none" stroke-width="1" fill="none" fill-rule="evenodd">
        <g id="FAQs-2" transform="translate(-1051.000000, -125.000000)">
            <rect id="Rectangle" fill="#FFFFFF" x="0" y="0" width="1440" height="783"></rect>
            <g id="help-center" transform="translate(1051.000000, 125.000000)">
                <g id="reception" transform="translate(2.000000, 2.000000)">
                    <g>
                        <rect id="Rectangle-path" fill="#FFFFFF" fill-rule="nonzero" x="7.24884793" y="19.1105991" width="13.8387097" height="3.29493088"></rect>
                        <path d="M20.3109325,23.0645161 L6.70750071,23.0645161 C6.27862928,23.0645161 5.93087558,22.7319397 5.93087558,22.3216722 L5.93087558,19.1944568 C5.93087558,18.7841894 6.27862928,18.4516129 6.70750071,18.4516129 L20.3109325,18.4516129 C20.7398039,18.4516129 21.0875576,18.7841894 21.0875576,19.1944568 L21.0875576,22.3216722 C21.0875576,22.7319397 20.7398039,23.0645161 20.3109325,23.0645161 Z M7.48412584,21.5787774 L19.5343073,21.5787774 L19.5343073,19.9373008 L7.48412584,19.9373008 L7.48412584,21.5787774 Z" id="Shape" fill="#003945" fill-rule="nonzero"></path>
                        <path d="M23.3901605,25.0414747 L4.28725888,25.0414747 C3.37528541,25.0414747 2.6359447,24.3038571 2.6359447,23.3940092 C2.6359447,22.4841613 3.37528541,21.7465438 4.28725888,21.7465438 L23.3901605,21.7465438 C24.3021339,21.7465438 25.0414747,22.4841613 25.0414747,23.3940092 C25.0415284,24.3038571 24.3021876,25.0414747 23.3901605,25.0414747 Z" id="Shape" fill="#05C0A5" fill-rule="nonzero"></path>
                        <g id="Group" fill="#003945" fill-rule="nonzero">
                            <path d="M23.4545587,25.6521246 L4.22296875,25.6521246 C2.87082951,25.6521246 1.77081426,24.558027 1.77081426,23.2131616 C1.77081426,21.8682963 2.87082951,20.7741449 4.22296875,20.7741449 L23.4545587,20.7741449 C24.806698,20.7741449 25.9067132,21.8683501 25.9067132,23.2131616 C25.9067132,24.558027 24.806698,25.6521246 23.4545587,25.6521246 Z M4.22296875,22.3452065 C3.7418033,22.3452065 3.35042729,22.7345846 3.35042729,23.2131616 C3.35042729,23.6917386 3.74185736,24.0810092 4.22296875,24.0810092 L23.4545587,24.0810092 C23.9357242,24.0810092 24.3271002,23.6916849 24.3271002,23.2131616 C24.3271002,22.7346384 23.9356701,22.3452065 23.4545587,22.3452065 L4.22296875,22.3452065 Z" id="Shape"></path>
                            <path d="M13.8387637,3.14626332 C13.4026282,3.14626332 13.0489842,2.79457563 13.0489842,2.3607325 L13.0489842,0.833867044 C13.0489842,0.400023909 13.4026282,0.0483362224 13.8387637,0.0483362224 C14.2748993,0.0483362224 14.6285432,0.400023909 14.6285432,0.833867044 L14.6285432,2.3607325 C14.6285432,2.79457563 14.2748993,3.14626332 13.8387637,3.14626332 Z" id="Shape"></path>
                            <path d="M26.8876399,13.812546 L25.352408,13.812546 C24.9162724,13.812546 24.5626285,13.4608583 24.5626285,13.0270152 C24.5626285,12.593172 24.9162724,12.2414844 25.352408,12.2414844 L26.8875858,12.2414844 C27.3237214,12.2414844 27.6773653,12.593172 27.6773653,13.0270152 C27.6774194,13.4608583 27.3238295,13.812546 26.8876399,13.812546 Z" id="Shape"></path>
                            <path d="M2.32501134,13.812546 L0.789779486,13.812546 C0.353643901,13.812546 0,13.4608583 0,13.0270152 C0,12.593172 0.353643901,12.2414844 0.789779486,12.2414844 L2.32501134,12.2414844 C2.76114693,12.2414844 3.11479083,12.593172 3.11479083,13.0270152 C3.11479083,13.4608583 2.76109287,13.812546 2.32501134,13.812546 Z" id="Shape"></path>
                            <path d="M21.4216198,6.27037478 C21.2194449,6.27037478 21.0173782,6.19370353 20.8631522,6.04030726 C20.5547544,5.7335685 20.5547544,5.23611941 20.8631522,4.92938065 L21.948626,3.84974623 C22.2572941,3.54306123 22.7572175,3.54300746 23.0656153,3.84974623 C23.3740131,4.15648499 23.3740131,4.65393408 23.0656153,4.96067284 L21.9801415,6.04030726 C21.8259156,6.19364976 21.6237407,6.27037478 21.4216198,6.27037478 Z" id="Shape"></path>
                            <path d="M6.25579952,6.27037478 C6.05362462,6.27037478 5.85155784,6.19370353 5.69733191,6.04030726 L4.61185811,4.96067284 C4.30346031,4.65393408 4.30346031,4.15648499 4.61185811,3.84974623 C4.92036404,3.54300746 5.42028742,3.54289993 5.7288474,3.84974623 L6.81432119,4.92938065 C7.122719,5.23611941 7.122719,5.7335685 6.81432119,6.04030726 C6.65998715,6.19364976 6.45797442,6.27037478 6.25579952,6.27037478 Z" id="Shape"></path>
                        </g>
                        <path d="M22.8059639,17.0866831 C22.4004452,12.3465183 18.4199154,8.6999939 13.5049953,8.6999939 C8.5900753,8.6999939 4.60954551,12.3465183 4.20402683,17.0866831 C4.59734844,17.0866831 5.23014948,17.0866831 6.53718269,17.0866831 C9.70437026,17.0866831 9.70437026,17.0866831 13.5049953,17.0866831 C17.3056204,17.0866831 17.3056204,17.0866831 20.472808,17.0866831 C21.7798412,17.0866831 22.4126423,17.0866831 22.8059639,17.0866831 Z" id="Oval" stroke="#003945" stroke-width="1.6" fill="#FFFFFF"></path>
                        <rect id="Rectangle-3" fill="#FFFFFF" x="4" y="14.2718894" width="19" height="5"></rect>
                        <g id="Group-2" transform="translate(0.294931, 17.271889)"></g>
                        <g id="Group" transform="translate(3.294931, 5.271889)" fill="#003945" fill-rule="nonzero">
                            <path d="M19.6370445,14.4817484 L0.791526926,14.4817484 C0.360066941,14.4817484 0.0102142857,14.1305283 0.0102142857,13.697262 L0.0102142857,12.8705711 C0.0102142857,7.22114122 4.58776515,2.62499577 10.2143392,2.62499577 C11.2784966,2.62499577 12.3274129,2.78887343 13.3319959,3.11217204 C13.7429203,3.24442325 13.969239,3.68611971 13.8375228,4.0986597 C13.7058601,4.51125339 13.2664319,4.73865243 12.8550262,4.60629384 C12.0048874,4.33266325 11.116405,4.19396863 10.2143927,4.19396863 C5.44956208,4.19396863 1.57294652,8.08627779 1.57294652,12.8705174 L1.57294652,12.9127218 L18.8557853,12.9127218 L18.8557853,12.8705174 C18.8557853,10.5385362 17.9473556,8.35008216 16.2977218,6.70819126 C15.9912932,6.4032027 15.9891006,5.90641499 16.2928553,5.59874166 C16.5966099,5.29096095 17.0912809,5.28892053 17.3978164,5.5938554 C19.3457502,7.5325732 20.4184106,10.1168143 20.4184106,12.8704637 L20.4184106,13.6971546 C20.4183571,14.1305283 20.068558,14.4817484 19.6370445,14.4817484 Z" id="Shape"></path>
                            <path d="M10.2143392,4.01113658 C9.78287921,4.01113658 9.43302655,3.65991647 9.43302655,3.22665015 L9.43302655,1.00393859 C9.43302655,0.570672265 9.78287921,0.219452159 10.2143392,0.219452159 C10.6457992,0.219452159 10.9956518,0.570672265 10.9956518,1.00393859 L10.9956518,3.22665015 C10.9956518,3.65991647 10.6457992,4.01113658 10.2143392,4.01113658 Z" id="Shape"></path>
                            <path d="M12.1285819,1.6052708 L8.30009648,1.6052708 C7.8686365,1.6052708 7.51878384,1.25405069 7.51878384,0.820784366 C7.51878384,0.387518041 7.8686365,0.0362979348 8.30009648,0.0362979348 L12.1285819,0.0362979348 C12.5600419,0.0362979348 12.9098945,0.387518041 12.9098945,0.820784366 C12.9098945,1.25405069 12.5600419,1.6052708 12.1285819,1.6052708 Z" id="Shape"></path>
                        </g>
                    </g>
                </g>
            </g>
        </g>
    </g>
</svg>