<?xml version="1.0" encoding="UTF-8"?>
<svg width="12px" height="16px" viewBox="0 0 12 16" version="1.1" xmlns="http://www.w3.org/2000/svg" xmlns:xlink="http://www.w3.org/1999/xlink">
    <!-- Generator: Sketch 52 (66869) - http://www.bohemiancoding.com/sketch -->
    <title>sand timer</title>
    <desc>Created with Sketch.</desc>
    <g id="sand-timer" stroke="none" stroke-width="1" fill="none" fill-rule="evenodd">
        <g fill-rule="nonzero">
            <path d="M2,1 L10,1 C9.91468816,2.74753473 9.7421541,3.89319278 9.48239782,4.43697416 C8.61968116,6.24301034 7.27306198,6.91850172 7.27306198,8 C7.27306198,9.02512106 8.7072816,9.86276002 9.48239782,11.5388492 C9.75703201,12.1327104 9.92956607,13.2864273 10,15 L2,15 C2.06278989,13.2021829 2.23982748,11.9728982 2.53111277,11.3121458 C3.19057484,9.81622003 4.73420813,8.94792484 4.73420813,8 C4.73420813,7.01089207 3.24912093,6.32882433 2.53111277,4.74306477 C2.24710272,4.11581332 2.07006513,2.86812507 2,1 Z" id="Rectangle-38" fill="#FFFFFF"></path>
            <path d="M2.40063937,4.33489366 L4.89360334,7.60322332 C5.23870107,7.81962477 5.60749996,7.92782549 6,7.92782549 C6.39250004,7.92782549 6.78840199,7.81962477 7.18770584,7.60322332 L9.74767094,4.33489366 L2.40063937,4.33489366 Z" id="Path-3" fill="#05C0A5"></path>
            <polygon id="Triangle-2" fill="#05C0A5" points="6 12 9 15 3 15"></polygon>
            <circle id="Oval" fill="#05C0A5" cx="6" cy="10.3" r="1"></circle>
            <path d="M11.4571585,14.9019835 L10.5267785,14.9019835 L10.5267785,13.21574 C10.5267785,11.5097256 9.60087375,9.94156922 7.91960468,8.80002424 C7.71054489,8.65807186 7.58060177,8.35159478 7.58060177,7.99991919 C7.58060177,7.64824361 7.71054489,7.34187427 7.91971124,7.19981414 C9.60087375,6.05837691 10.5267785,4.49022057 10.526885,2.78420611 L10.526885,1.09796263 L11.4571585,1.09796263 C11.7569493,1.09796263 12,0.852199151 12,0.548954381 C12,0.24570961 11.7569493,0 11.4571585,0 L0.542894817,0 C0.243103931,0 0,0.24570961 0,0.548900509 C0,0.852145279 0.243103931,1.09790876 0.542894817,1.09790876 L1.47327482,1.09790876 L1.47327482,2.78425999 C1.47327482,4.49027444 2.39907298,6.05843078 4.08044859,7.19986801 C4.28950838,7.34192814 4.41945151,7.64829748 4.41945151,7.99997306 C4.41945151,8.35170252 4.28950838,8.65812573 4.08034204,8.80018586 C2.39907298,9.94162309 1.47327482,11.5097794 1.47327482,13.2157939 L1.47327482,14.9020374 L0.542894817,14.9020374 C0.243103931,14.9020374 0,15.1478547 0,15.4510456 C0,15.7542904 0.243103931,16 0.542894817,16 L11.4571052,16 C11.7568961,16 11.9999467,15.7543443 11.9999467,15.4510456 C12,15.1478008 11.7569493,14.9019835 11.4571585,14.9019835 Z M2.55911773,13.21574 C2.55911773,11.4231535 3.89136776,10.2509015 4.68562448,9.71175181 C5.19884388,9.36336241 5.50529442,8.72341844 5.50529442,7.99997306 C5.50529442,7.27658156 5.19884388,6.63663759 4.68562448,6.28830206 C3.89136776,5.74915236 2.55911773,4.57690041 2.55911773,2.78431386 L2.55911773,1.09796263 L9.44093555,1.09796263 L9.44082899,2.78431386 C9.44082899,4.57690041 8.10857896,5.74915236 7.3144288,6.28819432 C6.80110284,6.63669146 6.4946523,7.27663543 6.4946523,7.99997306 C6.4946523,8.72347231 6.80110284,9.36330854 7.31432225,9.71175181 C8.10857896,10.2509015 9.44082899,11.4231535 9.44093555,13.21574 L9.44093555,14.9019835 L2.55911773,14.9019835 L2.55911773,13.21574 Z" id="Shape" fill="#0B2840"></path>
        </g>
    </g>
</svg>