<svg width="35" height="35" xmlns="http://www.w3.org/2000/svg"><g fill="none" fill-rule="evenodd"><circle stroke="#212121" fill="#FFF" cx="17.5" cy="17.5" r="17"/><path fill="#11ACA2" fill-rule="nonzero" d="M25.656 11.512l-9.598 5.577 9.246 5.896z"/><path fill="#11ACA2" fill-rule="nonzero" d="M18.031 5.913l-2.519 11.608 10.24-5.804zm.051 23.264l-2.549-11.414 9.678 5.707z"/><path d="M17.305 5.254l-6.837 5.353c-.297.23-.468.589-.468.974v11.35c0 .379.171.744.468.973l6.837 5.348c.428.33 1.02.33 1.442 0l6.837-5.354c.296-.23.468-.588.468-.974v-11.35c0-.378-.172-.743-.468-.973l-6.837-5.347a1.153 1.153 0 00-1.442 0zM16.04 18.165l8.787 5.172-6.62 5.178-2.167-10.35zM18.214 5.99l6.613 5.179-8.787 5.17L18.214 5.99zM16.29 17.253l8.866-5.226v10.444l-8.866-5.218zm-5.394-5.828l6.297-4.928-2.253 10.756 2.253 10.755-6.297-4.928V11.425z" fill="#212121" fill-rule="nonzero"/></g></svg>