<?xml version="1.0" encoding="UTF-8"?>
<svg width="90px" height="90px" viewBox="0 0 90 90" version="1.1" xmlns="http://www.w3.org/2000/svg" xmlns:xlink="http://www.w3.org/1999/xlink">
    <!-- Generator: Sketch 51.2 (57519) - http://www.bohemiancoding.com/sketch -->
    <title>Group 13</title>
    <desc>Created with Sketch.</desc>
    <defs></defs>
    <g id="Desktop" stroke="none" stroke-width="1" fill="none" fill-rule="evenodd">
        <g id="FAQs-2" transform="translate(-332.000000, -849.000000)">
            <g id="Group-13-Copy" transform="translate(217.000000, 814.000000)">
                <g id="File" transform="translate(115.000000, 35.000000)">
                    <g id="Layer_1" transform="translate(16.000000, 7.000000)">
                        <polygon id="Path-4" fill="#FFFFFF" points="3.3448046 7.62801832 7.36885978 3.52335803 34.9226321 3.52335803 37.0361911 5.57568818 37.0361911 15.9768478 39.0590694 21.0557448 44.1875696 22.3756535 51.4288538 22.3756535 55.6528716 22.3756535 57.1432912 60.3770883 54.8514708 69.1986977 51.4288538 71.1014434 8.96081073 71.1014434 3.3448046 68.3872213 3.3448046 61.6458438"></polygon>
                        <polygon id="Path-2" fill="#05C0A5" points="37.4371967 6.1441121 37.4371967 16.1300522 40.5780131 20.4647522 46.825144 22.0368761 53.2617532 22.0368761 46.825144 11.4057291 37.4371967 5.04339819"></polygon>
                        <path d="M9.85253882,0 C4.41962264,0 0,4.43803724 0,9.89359106 L0,64.1637016 C0,69.6192554 4.41962264,74.0572917 9.85253882,74.0572917 L49.1474622,74.0572917 C54.5754622,74.0572917 59,69.6192554 59,64.1637016 L59,22.3232593 C59,22.2146419 58.9475293,22.1136618 58.9327793,22.005044 C58.9180293,21.8964266 58.9046609,21.8050893 58.8751609,21.6964719 C58.7620776,21.2817511 58.5846203,20.8889394 58.279787,20.5778987 L38.6131184,0.829287627 C38.544285,0.760167489 38.4467969,0.753532943 38.3730469,0.694287109 C37.9108802,0.254880512 37.2979867,0 36.6637367,0 L9.85253882,0 Z M9.85253882,4.93715278 L34.4166667,4.93715278 L34.4166667,14.9657444 C34.4166667,20.381801 38.7987997,24.7918357 44.1923816,24.7918357 L54.0833333,24.7918357 L54.0833333,64.1637016 C54.0833333,66.8939471 51.8663788,69.1201389 49.1474622,69.1201389 L9.85253882,69.1201389 C7.13362264,69.1201389 4.91666667,66.8939471 4.91666667,64.1637016 L4.91666667,9.89359106 C4.91666667,7.16334607 7.13362215,4.93715278 9.85253882,4.93715278 Z M39.3333333,8.61108861 C42.657,11.9288553 47.1708098,16.4431103 50.5878882,19.8546829 L44.1923816,19.8546829 C41.5127983,19.8546829 39.3333333,17.6614298 39.3333333,14.9657444 L39.3333333,8.61108861 Z M43.2705066,43.3158013 L39.8902983,46.9029514 L43.0784518,49.9308134 L32.9186198,49.9308134 L32.9186198,54.8679662 L43.1840814,54.8679662 L39.8710938,58.1079727 L43.289716,61.646909 L50.9624005,54.1640368 C51.4442338,53.6950073 51.7163418,53.0466209 51.7114252,52.3801053 C51.7065085,51.7037153 51.4250293,51.0649712 50.943196,50.605816 L43.2705066,43.3158013 Z" id="path7" fill="#003945" fill-rule="nonzero"></path>
                    </g>
                </g>
            </g>
        </g>
    </g>
</svg>