<svg width="56" height="56" xmlns="http://www.w3.org/2000/svg"><g fill="none" fill-rule="evenodd"><circle stroke="#05C0A5" stroke-width="1.3" fill="#FFF" cx="28" cy="28" r="27.35"/><g fill-rule="nonzero"><path d="M45.416 43.938a2.956 2.956 0 010-3.057c4.02-6.536 1.981-15.094-4.555-19.114a13.888 13.888 0 00-4.708-1.82 13.894 13.894 0 00-4.15-7.606 13.763 13.763 0 00-10.672-3.77c-7.65.6-13.365 7.287-12.766 14.937.173 2.217.876 4.36 2.05 6.248.568.94.568 2.117 0 3.057l-1.288 2.15a.926.926 0 00.797 1.398h9.856a14.22 14.22 0 0013.895 11.116H45.88a.927.927 0 00.797-1.4l-1.261-2.139z" fill="#FFF"/><path d="M42.179 36.613c3.05-4.956 1.503-11.445-3.457-14.494a10.543 10.543 0 00-4.12-1.467c.074.516.109 1.036.106 1.558-.189 5.825-4.998 10.433-10.83 10.377h-1.1a10.783 10.783 0 0010.71 9.03h9.73l-1.024-1.738a3.166 3.166 0 01-.015-3.266z" fill="#C6F4ED"/><path d="M12.952 30.657c-3.889-6.319-1.92-14.595 4.396-18.486 6.317-3.891 14.591-1.923 18.481 4.396a13.438 13.438 0 011.993 7.238c-.24 7.43-6.367 13.307-13.797 13.235H11.628l1.305-2.217a4.04 4.04 0 00.019-4.166z" fill="#05C0A5"/><path d="M25.5 20.895c0-.852-.656-1.347-1.807-1.347-1.11.02-2.16.494-2.899 1.308l-1.778-1.913a6.114 6.114 0 014.727-2.05c2.788 0 4.677 1.446 4.677 3.963 0 2.427-1.667 3.418-3.727 3.775l-.212 1.159h-2.02l-.445-3.072.101-.099c2.434-.099 3.384-.733 3.384-1.724zm-3.676 6.397h3.131v3.032h-3.13v-3.032z" fill="#FFF"/></g></g></svg>