<svg width="100" height="100" xmlns="http://www.w3.org/2000/svg"><path d="M57.38 61.097a9.88 9.88 0 00.432-12.389v-5.476a7.9 7.9 0 00-15.801 0v5.476a9.836 9.836 0 00-1.975 5.925 1.796 1.796 0 103.59 0 6.284 6.284 0 0111.043-4.111c.018.036.054.053.072.09a6.15 6.15 0 011.455 4.021 6.265 6.265 0 01-1.527 4.112 6.464 6.464 0 01-8.457.97 1.796 1.796 0 00-2.1 2.909 9.737 9.737 0 005.8 1.885 9.866 9.866 0 007.469-3.412zm-3.16-15.334a9.737 9.737 0 00-8.618 0v-2.531a4.31 4.31 0 018.618 0v2.531zm-3.034 9.768c.327-.344.513-.8.52-1.275a1.858 1.858 0 00-.52-1.274 1.885 1.885 0 00-2.55 0c-.33.342-.517.799-.52 1.274a1.81 1.81 0 001.795 1.796c.476-.004.932-.19 1.275-.52zM39.138 24.468v7.2a1.796 1.796 0 003.59 0v-7.2a5.387 5.387 0 10-3.59 0zm1.795-6.877a1.796 1.796 0 110 3.591 1.796 1.796 0 010-3.59zM58.89 14a5.387 5.387 0 00-1.796 10.468v7.2a1.796 1.796 0 003.591 0v-7.2A5.387 5.387 0 0058.89 14zm0 7.182a1.796 1.796 0 110-3.59 1.796 1.796 0 010 3.59zm1.795 54.19v-7.2a1.796 1.796 0 00-3.59 0v7.2a5.387 5.387 0 103.59 0zm-1.795 6.86a1.796 1.796 0 110-3.592 1.796 1.796 0 010 3.591zm-16.16-6.86v-7.2a1.796 1.796 0 00-3.591 0v7.2a5.387 5.387 0 103.59 0zm-1.796 6.86a1.796 1.796 0 110-3.592 1.796 1.796 0 010 3.591zm30.83-35.912c2.28 0 4.31-1.44 5.063-3.591h7.2a1.796 1.796 0 000-3.591h-7.2a5.38 5.38 0 10-5.063 7.182zm0-7.182a1.796 1.796 0 110 3.59 1.796 1.796 0 010-3.59zm12.264 17.955h-7.2a5.387 5.387 0 100 3.591h7.2a1.796 1.796 0 000-3.59zm-12.264 3.591a1.796 1.796 0 110-3.59 1.796 1.796 0 010 3.59zM28.06 53.502a5.387 5.387 0 00-5.063 3.591h-7.2a1.796 1.796 0 000 3.591h7.2a5.38 5.38 0 105.063-7.182zm0 7.182a1.796 1.796 0 110-3.59 1.796 1.796 0 010 3.59zm0-25.137a5.387 5.387 0 00-5.063 3.59h-7.2a1.796 1.796 0 100 3.592h7.2a5.38 5.38 0 105.063-7.182zm0 7.182a1.796 1.796 0 110-3.591 1.796 1.796 0 010 3.59z" fill="#FFF" fill-rule="evenodd"/></svg>