<svg xmlns="http://www.w3.org/2000/svg" width="100" height="100" viewBox="0 0 100 100" version="1.1">
	<path d="M 44 6.845 C 44 7.860, 44.848 9.458, 45.885 10.396 C 46.922 11.334, 48.054 13.520, 48.401 15.254 C 48.965 18.074, 48.478 18.967, 43.766 23.749 L 38.500 29.092 42.500 28.469 C 44.700 28.126, 50.550 27.297, 55.500 26.627 L 64.500 25.408 58.250 22.189 C 52.413 19.184, 52 18.743, 52 15.520 C 52 13.087, 51.085 11.028, 48.896 8.535 C 45.434 4.592, 44 4.097, 44 6.845 M 48.500 29.769 C 43 30.613, 38.363 31.410, 38.196 31.540 C 37.947 31.732, 35.088 56.680, 35.020 59.250 C 35.009 59.663, 36.462 59.999, 38.250 59.998 L 41.500 59.996 41 75.500 C 40.725 84.027, 40.725 90.998, 41 90.991 C 41.275 90.983, 47.250 82.164, 54.278 71.391 L 67.056 51.805 62.028 52.496 C 58.748 52.947, 57 52.823, 57 52.139 C 57 51.562, 58.800 46.045, 61 39.877 C 63.200 33.710, 65 28.515, 65 28.332 C 65 27.679, 58.337 28.259, 48.500 29.769 " stroke="none" fill="black" fill-rule="evenodd"/>
</svg>