<svg width="28" height="28" xmlns="http://www.w3.org/2000/svg"><defs><linearGradient x1="5.586%" y1="42.916%" x2="89.693%" y2="76.712%" id="a"><stop stop-color="#00D7AF" offset="0%"/><stop stop-color="#46737A" offset="100%"/></linearGradient><linearGradient x1="100%" y1="86.229%" x2="4.443%" y2="0%" id="b"><stop stop-color="#00D7AF" offset="0%"/><stop stop-color="#46737A" offset="100%"/></linearGradient><linearGradient x1="8.054%" y1="21.454%" x2="84.433%" y2="63.075%" id="c"><stop stop-color="#00D7AF" offset="0%"/><stop stop-color="#46737A" offset="100%"/></linearGradient></defs><g fill="none" fill-rule="evenodd"><circle cx="14" cy="14" r="14"/><g fill-rule="nonzero"><path d="M18.464 19.108c-.248-1.94-1.074-4.064-2.414-6.117a20.85 20.85 0 00-2.728-3.333 20.829 20.829 0 00-2.433-2.08C9.572 6.614 8.21 5.863 6.87 5.34a15.16 15.16 0 00-.422-.155 1.898 1.898 0 01-.907-.992 1.898 1.898 0 01-.117-.997 1.906 1.906 0 01.787-1.287c.096-.058.192-.116.287-.17 5.081-2.888 11.638-2.178 15.958 2.119a13.18 13.18 0 012.722 3.924 13.129 13.129 0 01.704 8.81 13.1 13.1 0 01-3.432 5.912 13.255 13.255 0 01-9.495 3.863c1.564-.09 2.933-.62 3.943-1.625 1.367-1.36 1.857-3.372 1.567-5.634z" fill="url(#a)" transform="translate(.778 .778)"/><path d="M9.395 3.448a27.644 27.644 0 013.868-.264c5.09-.003 9.441 1.306 11.208 3.156.31.492.582 1 .817 1.523.017.105.025.209.025.316 0 1.296-1.186 2.475-3.136 3.362-1.576.723-3.653 1.25-6.004 1.491a20.716 20.716 0 00-2.725-3.307 20.76 20.76 0 00-2.43-2.065c-1.315-.956-2.676-1.702-4.014-2.221-.14-.054-.283-.106-.422-.154a1.883 1.883 0 01-.906-.984 20.713 20.713 0 013.719-.853z" fill="url(#b)" opacity=".5" transform="translate(.778 .778)"/><path d="M3.857 22.544A13.274 13.274 0 01.048 12.04c.058-.4.237-.783.54-1.089a1.914 1.914 0 012.408-.257c2.14 1.462 5.926 2.424 10.24 2.422.999 0 1.972-.053 2.9-.151 1.333 2.065 2.154 4.202 2.402 6.155.288 2.275-.2 4.3-1.559 5.668-1.013 1.019-2.383 1.55-3.951 1.635a13.082 13.082 0 01-9.171-3.88z" fill="url(#c)" transform="translate(.778 .778)"/></g></g></svg>