<svg xmlns="http://www.w3.org/2000/svg" width="100" height="100" viewBox="0 0 100 100" version="1.1">
	<path d="M 40.618 11.048 C 34.290 12.638, 25.284 17.968, 20.912 22.711 C 18.667 25.147, 15.405 30.147, 13.665 33.820 C 10.799 39.869, 10.500 41.402, 10.500 50.052 C 10.500 59.081, 10.706 60.021, 14.266 67.223 C 19.701 78.221, 29.681 86.586, 39.774 88.605 L 43 89.250 43 62.125 L 43 35 52.600 35 C 62.184 35, 62.206 35.006, 65.600 38.400 L 69 41.800 69 53.950 C 69 63.022, 68.603 66.866, 67.434 69.128 C 65.713 72.455, 60.772 75, 56.032 75 L 53 75 53 82.500 C 53 91.121, 52.727 90.956, 62.145 88.017 C 73.294 84.537, 83.435 74.849, 87.556 63.739 C 88.952 59.977, 89.500 55.949, 89.500 49.448 C 89.500 41.010, 89.247 39.883, 85.765 32.839 C 79.008 19.166, 67.002 11.144, 52.249 10.442 C 47.987 10.239, 42.753 10.512, 40.618 11.048 M 43.174 18.314 C 38.668 23.112, 41.774 30, 48.443 30 C 50.868 30, 52.347 29.342, 53.443 27.777 C 58.596 20.421, 49.270 11.826, 43.174 18.314 M 35.500 36.155 C 31.256 38.476, 31 39.701, 31 57.691 L 31 75 35.500 75 L 40 75 40 55 C 40 33.927, 39.951 33.720, 35.500 36.155 M 53 54.500 L 53 65.127 56.250 64.813 L 59.500 64.500 59.500 54.500 L 59.500 44.500 56.250 44.187 L 53 43.873 53 54.500 " stroke="none" fill="black" fill-rule="evenodd"/>
</svg>