<svg width="19" height="20" xmlns="http://www.w3.org/2000/svg"><g fill="#FFF"><path d="M18 13.56V6.988c0-.875-.696-1.587-1.55-1.587h-1.678V2.054c0-.58-.463-1.054-1.03-1.054H5.25c-.567 0-1.03.474-1.03 1.054v3.35H2.55C1.695 5.401 1 6.114 1 6.988v6.572c0 .874.696 1.587 1.55 1.587h1.674v2.799c0 .58.463 1.054 1.03 1.054h8.492c.567 0 1.03-.474 1.03-1.054v-2.8h1.675c.853 0 1.549-.708 1.549-1.586zM5.103 2.054c0-.084.068-.154.15-.154h8.493c.083 0 .151.07.151.154v3.35H5.103v-3.35zm8.794 15.892a.153.153 0 01-.15.154H5.253a.153.153 0 01-.151-.154v-7.222h8.79v7.222h.004zm.438-8.122h-9.67a.446.446 0 00-.44.452v3.97H2.548a.68.68 0 01-.67-.686V6.988a.68.68 0 01.67-.687h13.898c.37 0 .67.308.67.687v6.572a.68.68 0 01-.67.687h-1.675v-3.971a.441.441 0 00-.437-.452z" stroke="#FFF" stroke-width=".2"/><path d="M3.146 8.141a.503.503 0 00.708.712.51.51 0 000-.712.514.514 0 00-.708 0z" stroke="#FFF" stroke-width=".2"/><path d="M11.627 14h-4.25c-.209 0-.377.224-.377.5s.168.5.376.5h4.248c.208 0 .376-.224.376-.5s-.168-.5-.373-.5zm0 2h-4.25c-.209 0-.377.224-.377.5s.168.5.376.5h4.248c.208 0 .376-.224.376-.5s-.168-.5-.373-.5zm0-4h-4.25c-.209 0-.377.224-.377.5s.168.5.376.5h4.248c.208 0 .376-.224.376-.5s-.168-.5-.373-.5z"/></g></svg>