<?xml version="1.0" encoding="UTF-8"?>
<svg width="96px" height="96px" viewBox="0 0 96 96" version="1.1" xmlns="http://www.w3.org/2000/svg" xmlns:xlink="http://www.w3.org/1999/xlink">
    <!-- Generator: Sketch 51.2 (57519) - http://www.bohemiancoding.com/sketch -->
    <title>Group 49</title>
    <desc>Created with Sketch.</desc>
    <defs></defs>
    <g id="Style-guideline" stroke="none" stroke-width="1" fill="none" fill-rule="evenodd">
        <g id="style-guideline" transform="translate(-363.000000, -11082.000000)">
            <g id="Group-52" transform="translate(113.000000, 10893.000000)">
                <g id="Group-49" transform="translate(0.000000, 189.000000)">
                    <g id="printer-(1)" transform="translate(265.000000, 13.000000)">
                        <g>
                            <rect id="Rectangle" fill="#05C0A5" x="13" y="35" width="38" height="31"></rect>
                            <polygon id="Path-2" fill="#FFFFFF" fill-rule="nonzero" points="2.57495329 21.2076264 2.57495329 49.5905328 7.79177524 52.0082739 13.6176647 52.0082739 13.6176647 36.6079502 48.7409585 36.6079502 51.4736934 36.6079502 51.4736934 52.0082739 59.5242634 53.4899996 64.5629675 49.5905328 64.5629675 21.2076264 57.2428004 17.9656417 4.88570417 17.9656417"></polygon>
                            <polygon id="Path-3" fill="#FFFFFF" fill-rule="nonzero" points="15.0025612 2.37733779 15.0025612 17.8741919 50.8078433 17.8741919 50.8078433 2.37733779"></polygon>
                            <path d="M66,48.145102 L66,22.9530612 C66,19.6016327 63.2987342,16.8697959 59.9848101,16.8697959 L53.4683544,16.8697959 L53.4683544,4.04142857 C53.4683544,1.81653061 51.6721519,0 49.4721519,0 L16.5,0 C14.3,0 12.5037975,1.81653061 12.5037975,4.04142857 L12.5037975,16.8838776 L6.01518987,16.8838776 C2.70126582,16.8697959 0,19.6016327 0,22.9530612 L0,48.145102 C0,51.4965306 2.70126582,54.2283673 6.01518987,54.2283673 L12.5177215,54.2283673 L12.5177215,64.9585714 C12.5177215,67.1834694 14.3139241,69 16.5139241,69 L49.4860759,69 C51.6860759,69 53.4822785,67.1834694 53.4822785,64.9585714 L53.4822785,54.2283673 L59.9848101,54.2283673 C63.2987342,54.2283673 66,51.5106122 66,48.145102 Z M15.9291139,4.04142857 C15.9291139,3.71755102 16.1936709,3.45 16.5139241,3.45 L49.4860759,3.45 C49.8063291,3.45 50.0708861,3.71755102 50.0708861,4.04142857 L50.0708861,16.8838776 L15.9291139,16.8838776 L15.9291139,4.04142857 Z M50.0708861,64.9585714 C50.0708861,65.282449 49.8063291,65.55 49.4860759,65.55 L16.5139241,65.55 C16.1936709,65.55 15.9291139,65.282449 15.9291139,64.9585714 L15.9291139,37.2740816 L50.056962,37.2740816 L50.056962,64.9585714 L50.0708861,64.9585714 Z M51.7696203,33.8240816 L14.2303797,33.8240816 C13.2835443,33.8240816 12.5177215,34.5985714 12.5177215,35.5561224 L12.5177215,50.7783673 L6.01518987,50.7783673 C4.58101266,50.7783673 3.41139241,49.5955102 3.41139241,48.145102 L3.41139241,22.9530612 C3.41139241,21.5026531 4.58101266,20.3197959 6.01518987,20.3197959 L59.9708861,20.3197959 C61.4050633,20.3197959 62.5746835,21.5026531 62.5746835,22.9530612 L62.5746835,48.145102 C62.5746835,49.5955102 61.4050633,50.7783673 59.9708861,50.7783673 L53.4683544,50.7783673 L53.4683544,35.5561224 C53.4822785,34.5985714 52.7164557,33.8240816 51.7696203,33.8240816 Z" id="Shape" stroke="#003945" stroke-width="1.4" fill="#003945" fill-rule="nonzero"></path>
                            <path d="M7.43902439,24.4233129 C7.15853659,24.7055215 7,25.0858896 7,25.4907975 C7,25.8834356 7.15853659,26.2760736 7.43902439,26.5582822 C7.7195122,26.8404908 8.09756098,27 8.5,27 C8.8902439,27 9.2804878,26.8404908 9.56097561,26.5582822 C9.84146341,26.2760736 10,25.8834356 10,25.4907975 C10,25.0981595 9.84146341,24.7055215 9.56097561,24.4233129 C8.98780488,23.8588957 7.98780488,23.8588957 7.43902439,24.4233129 Z" id="Shape" stroke="#003945" stroke-width="1.4" fill="#003945" fill-rule="nonzero"></path>
                            <path d="M44.1345566,50 L22.8807339,50 C21.8409786,50 21,50.6707317 21,51.5 C21,52.3292683 21.8409786,53 22.8807339,53 L44.1192661,53 C45.1590214,53 46,52.3292683 46,51.5 C46,50.6707317 45.1590214,50 44.1345566,50 Z" id="Shape" stroke="#003945" stroke-width="1.4" fill="#003945" fill-rule="nonzero"></path>
                            <path d="M44.1345566,58 L22.8807339,58 C21.8409786,58 21,58.6707317 21,59.5 C21,60.3292683 21.8409786,61 22.8807339,61 L44.1192661,61 C45.1590214,61 46,60.3292683 46,59.5 C46,58.6707317 45.1590214,58 44.1345566,58 Z" id="Shape" stroke="#003945" stroke-width="1.4" fill="#003945" fill-rule="nonzero"></path>
                            <path d="M44.1345566,42 L22.8807339,42 C21.8409786,42 21,42.6707317 21,43.5 C21,44.3292683 21.8409786,45 22.8807339,45 L44.1192661,45 C45.1590214,45 46,44.3292683 46,43.5 C46,42.6707317 45.1590214,42 44.1345566,42 Z" id="Shape" stroke="#003945" stroke-width="1.4" fill="#003945" fill-rule="nonzero"></path>
                        </g>
                    </g>
                </g>
            </g>
        </g>
    </g>
</svg>