<svg xmlns="http://www.w3.org/2000/svg" width="100" height="100" viewBox="0 0 100 100" version="1.1">
	<path d="M 40.618 11.048 C 34.290 12.638, 25.284 17.968, 20.912 22.711 C 18.667 25.147, 15.405 30.147, 13.665 33.820 C 10.799 39.869, 10.500 41.402, 10.500 50.052 C 10.500 59.067, 10.710 60.028, 14.235 67.160 C 18.733 76.262, 24.523 81.931, 33.820 86.335 C 39.861 89.197, 41.409 89.500, 50 89.500 C 58.591 89.500, 60.139 89.197, 66.180 86.335 C 75.477 81.931, 81.267 76.262, 85.765 67.160 C 89.294 60.020, 89.500 59.075, 89.500 50 C 89.500 40.925, 89.294 39.980, 85.765 32.840 C 79.008 19.167, 67.003 11.144, 52.249 10.442 C 47.987 10.239, 42.753 10.512, 40.618 11.048 M 33.380 34.452 C 32.179 37.582, 34.119 38, 49.837 38 C 67.807 38, 70 38.696, 70 44.402 C 70 50.361, 68.370 50.916, 49.950 51.224 L 33.500 51.500 33.216 62.268 C 32.979 71.239, 33.190 73.136, 34.479 73.630 C 37.644 74.845, 39 72.098, 39 64.469 L 39 57.183 54.083 56.842 L 69.167 56.500 72.083 53.234 C 74.487 50.543, 75 49.083, 75 44.935 C 75 39.491, 73.041 34.613, 70.455 33.621 C 69.565 33.280, 60.984 33, 51.387 33 C 37.054 33, 33.838 33.259, 33.380 34.452 " stroke="none" fill="black" fill-rule="evenodd"/>
</svg>