<svg width="28" height="28" xmlns="http://www.w3.org/2000/svg" xmlns:xlink="http://www.w3.org/1999/xlink"><defs><path id="b" d="M0 .035h20.497V15H0z"/><path id="d" d="M0 .035h20.497V15H0z"/><linearGradient x1="50%" y1="0%" x2="50%" y2="96.681%" id="a"><stop stop-color="#00ABEC" offset="0%"/><stop stop-color="#00559E" offset="100%"/></linearGradient></defs><g fill="none" fill-rule="evenodd"><circle fill="url(#a)" fill-rule="nonzero" cx="14" cy="14" r="14"/><g transform="translate(4 6.965)"><mask id="c" fill="#fff"><use xlink:href="#b"/></mask><path d="M20.497 14.262c0 .417-.42.738-.937.738-.518 0-.938-.321-.938-.738V2.96c0-.038-.024-.076-.073-.076-.05 0-.074 0-.1.019l-7.423 9.048c-.296.322-.863.417-1.307.19a.536.536 0 01-.272-.208l-7.4-9.03c-.024-.02-.073-.02-.123-.02-.025 0-.05.039-.05.077v11.3c0 .418-.443.739-.961.739C.419 15 0 14.679 0 14.262V.765C0 .538.123.31.419.159c.42-.227.987-.132 1.283.208l8.189 9.938c.099.076.197.152.345.152.148 0 .247-.076.346-.152l8.164-9.9c.148-.227.469-.36.814-.36.518 0 .937.322.937.72v13.497z" fill="#FFF" mask="url(#c)"/></g><g opacity=".638" transform="translate(4 6.965)"><mask id="e" fill="#fff"><use xlink:href="#d"/></mask><path d="M20.497 14.27c0 .398-.42.72-.937.72-.345 0-.666-.133-.814-.36l-8.164-9.9c-.1-.077-.198-.152-.346-.152-.148 0-.246.075-.345.151L1.7 14.668c-.295.34-.862.436-1.282.208-.296-.151-.42-.378-.42-.605V.773C0 .357.42.036.914.036c.518 0 .962.322.962.738v11.302c0 .038.024.075.049.075.05 0 .099 0 .123-.018l7.4-9.03a.53.53 0 01.272-.208c.444-.228 1.01-.134 1.307.188l7.424 9.05c.025.018.049.018.099.018.049 0 .073-.037.073-.075V.774c0-.418.42-.739.938-.739s.937.322.937.738v13.498z" fill="#FFF" mask="url(#e)"/></g></g></svg>