<?xml version="1.0" encoding="UTF-8"?>
<svg width="16px" height="16px" viewBox="0 0 16 16" version="1.1" xmlns="http://www.w3.org/2000/svg" xmlns:xlink="http://www.w3.org/1999/xlink">
    <!-- Generator: Sketch 52.5 (67469) - http://www.bohemiancoding.com/sketch -->
    <title>Group 16</title>
    <desc>Created with Sketch.</desc>
    <g id="MEW-assets" stroke="none" stroke-width="1" fill="none" fill-rule="evenodd">
        <g id="paper-wallet" transform="translate(-23.000000, -249.000000)" fill-rule="nonzero">
            <g id="Group-16" transform="translate(31.000000, 257.000000) scale(-1, 1) translate(-31.000000, -257.000000) translate(17.000000, 243.000000)">
                <g id="Group-15" transform="translate(14.000000, 13.125000)" fill="#FFFFFF">
                    <circle id="Oval-3" cx="0.875" cy="0.875" r="1"></circle>
                </g>
                <g id="Cut" transform="translate(14.000000, 14.000000) rotate(135.000000) translate(-14.000000, -14.000000) translate(4.375000, 4.375000)" fill="#003945">
                    <path d="M16.6833333,7.7 L10.2666667,7.7 L10.2666667,5.04221667 C11.3977493,4.75251488 12.1895506,3.73425847 12.1916667,2.56666667 C12.1916667,1.14913581 11.0425309,1.42478621e-16 9.625,0 C8.20746914,-7.12393107e-17 7.05833333,1.14913581 7.05833333,2.56666667 C7.06044943,3.73425847 7.85225068,4.75251488 8.98333333,5.04221667 L8.98333333,7.7 C8.27365,7.7 7.7,8.27429167 7.7,8.98333333 L5.04221667,8.98333333 C4.75251488,7.85225068 3.73425847,7.06044943 2.56666667,7.05833333 C1.14913581,7.05833333 -5.23655193e-16,8.20746914 -6.66133815e-16,9.625 C-8.08612436e-16,11.0425309 1.14913581,12.1916667 2.56666667,12.1916667 C3.73425847,12.1895506 4.75251488,11.3977493 5.04221667,10.2666667 L7.7,10.2666667 L7.7,16.6833333 L10.2666667,19.25 L10.2666667,10.2666667 L19.25,10.2666667 L16.6833333,7.7 Z M2.56666667,10.9083333 C1.85890833,10.9083333 1.28333333,10.3334 1.28333333,9.625 C1.28333333,8.9166 1.85890833,8.34166667 2.56666667,8.34166667 C3.274425,8.34166667 3.85,8.9166 3.85,9.625 C3.85,10.3334 3.274425,10.9083333 2.56666667,10.9083333 Z M8.98333333,9.625 C8.62895062,9.625 8.34166667,9.33771605 8.34166667,8.98333333 C8.34166667,8.62895062 8.62895062,8.34166667 8.98333333,8.34166667 C9.33771605,8.34166667 9.625,8.62895062 9.625,8.98333333 C9.625,9.33771605 9.33771605,9.625 8.98333333,9.625 Z M9.625,3.85 C9.16639453,3.84988538 8.74268675,3.60511637 8.51348328,3.20789507 C8.28427981,2.81067378 8.28440211,2.32134757 8.51380412,1.92424089 C8.74320612,1.52713422 9.1670362,1.28257704 9.62564167,1.28269167 C10.3345843,1.28286887 10.9091522,1.85772406 10.908975,2.56666667 C10.9087978,3.27560928 10.3339426,3.85017718 9.625,3.85 Z" id="Shape"></path>
                </g>
            </g>
        </g>
    </g>
</svg>