<?xml version="1.0" encoding="UTF-8"?>
<svg width="28px" height="28px" viewBox="0 0 28 28" version="1.1" xmlns="http://www.w3.org/2000/svg" xmlns:xlink="http://www.w3.org/1999/xlink">
  <!-- Generator: Sketch 49.2 (51160) - http://www.bohemiancoding.com/sketch -->
  <title>send 1</title>
  <desc>Created with Sketch.</desc>
  <defs></defs>
  <g id="Desktop" stroke="none" stroke-width="1" fill="none" fill-rule="evenodd">
      <g id="my-wallet-1" transform="translate(-23.000000, -134.000000)">
          <rect id="Rectangle-2" fill="#FFFFFF" x="0" y="0" width="266" height="1011"></rect>
          <g id="Group-19" transform="translate(24.000000, 136.000000)" fill="#003945" fill-rule="nonzero" stroke="#003945" stroke-width="0.5">
              <g id="Group-32" transform="translate(3.000000, 0.000000)">
                  <g id="currency" transform="translate(0.000000, 2.000000)">
                      <path d="M19.5427844,2.79224021 C19.2230497,2.71750235 18.9019388,2.9107355 18.825701,3.22373395 L18.5154026,4.49674056 C16.6674127,1.70461581 13.4989246,0 10.0654326,0 C7.37686118,0 4.84921874,1.0247784 2.94807084,2.8856048 C1.04700158,4.7464312 0,7.22051597 0,9.85215829 C0,10.1739698 0.266498055,10.4347826 0.595236656,10.4347826 C0.923975257,10.4347826 1.19047331,10.1738928 1.19047331,9.85215829 C1.19047331,5.06220057 5.1717844,1.16524863 10.0654719,1.16524863 C13.0866744,1.16524863 15.8753497,2.66216093 17.5063429,5.11530986 L16.1920963,4.80839204 C15.8724795,4.73365418 15.5512899,4.92688733 15.4750128,5.23988578 C15.3986964,5.55288423 15.5960733,5.86715269 15.9158473,5.94177509 L18.6210503,6.57354474 C18.667485,6.58439751 18.7139196,6.58959298 18.7596859,6.58959298 C19.0288969,6.58959298 19.2729836,6.40956019 19.338173,6.142051 L19.9836189,3.494168 C20.059896,3.18113106 19.8625192,2.86686261 19.5427844,2.79224021 Z" id="Shape"></path>
                      <path d="M19.4047221,9.56521739 C19.0759825,9.56521739 18.8094836,9.82606868 18.8094836,10.1478417 C18.8094836,14.9378379 14.8281597,18.8347514 9.93449589,18.8347514 C6.91328372,18.8347514 4.12459952,17.3378391 2.49360104,14.8846901 L3.80785192,15.191608 C4.12743043,15.2662304 4.44869962,15.0731127 4.52493765,14.7601142 C4.60125432,14.4471158 4.40387685,14.1328473 4.08410175,14.0582249 L1.37889013,13.4264553 C1.0592723,13.3517944 0.738042431,13.5449506 0.661804399,13.857949 L0.0163957868,16.505832 C-0.0599208819,16.8188305 0.137456592,17.1330989 0.45723169,17.2077213 C0.50366651,17.2185741 0.55010133,17.2237696 0.59586774,17.2237696 C0.865079606,17.2237696 1.10916713,17.0437368 1.17435674,16.7762276 L1.48465615,15.503221 C3.33253394,18.2953842 6.50103216,20 9.9345352,20 C12.6230759,20 15.1507657,18.9752216 17.0518804,17.1143952 C18.9530344,15.2535303 20,12.779484 20,10.1478417 C19.9999607,9.82606868 19.7335011,9.56521739 19.4047221,9.56521739 Z" id="Shape"></path>
                      <path d="M10.4347826,9.40196348 C9.68165381,9.40196348 9.06890546,8.81226211 9.06890546,8.08746034 C9.0689465,7.36269807 9.68165381,6.77299669 10.4347826,6.77299669 L12.422069,6.77299669 C12.7652623,6.77299669 13.0434783,6.50524509 13.0434783,6.17496018 C13.0434783,5.84467526 12.7652623,5.57692366 12.422069,5.57692366 L11.0561919,5.57692366 L11.0561919,4.9458626 C11.0561919,4.61557769 10.7779759,4.34782609 10.4347826,4.34782609 C10.0915894,4.34782609 9.81337336,4.61557769 9.81337336,4.9458626 L9.81337336,5.64945124 C8.67403413,5.91846694 7.82608696,6.90924268 7.82608696,8.08746034 C7.82608696,9.47180486 8.99637556,10.5980365 10.4347826,10.5980365 C11.1879114,10.5980365 11.8006598,11.1877379 11.8006598,11.9125397 C11.8006598,12.6373414 11.1879114,13.2270033 10.4347826,13.2270033 L8.44749621,13.2270033 C8.10430295,13.2270033 7.82608696,13.4947549 7.82608696,13.8250398 C7.82608696,14.1553247 8.10430295,14.4230763 8.44749621,14.4230763 L9.81337336,14.4230763 L9.81337336,15.0541374 C9.81337336,15.3844223 10.0915894,15.6521739 10.4347826,15.6521739 C10.7779759,15.6521739 11.0561919,15.3844223 11.0561919,15.0541374 L11.0561919,14.3505488 C12.1955311,14.0815331 13.0434783,13.0907573 13.0434783,11.9125397 C13.0434783,10.5281951 11.8731897,9.40196348 10.4347826,9.40196348 Z" id="Shape"></path>
                  </g>
              </g>
          </g>
      </g>
  </g>
</svg>
