<?xml version="1.0" encoding="UTF-8"?>
<svg width="20px" height="16px" viewBox="0 0 20 16" version="1.1" xmlns="http://www.w3.org/2000/svg" xmlns:xlink="http://www.w3.org/1999/xlink">
    <!-- Generator: Sketch 49.2 (51160) - http://www.bohemiancoding.com/sketch -->
    <title>Eye</title>
    <desc>Created with Sketch.</desc>
    <defs></defs>
    <g id="Desktop" stroke="none" stroke-width="1" fill="none" fill-rule="evenodd">
        <g id="create-wallet(Mnemonic-Phrase)1" transform="translate(-883.000000, -432.000000)">
            <g id="Group-3" transform="translate(520.000000, 414.000000)">
                <g id="Eye" transform="translate(363.000000, 18.875000)">
                    <polygon id="Path-11" fill="#FFFFFF" points="1.48530238 7.39462999 4.31231076 3.25279478 8.67469966 1.48183022 11.743827 1.48183022 16.5597397 3.25279478 18.2382351 6.87248951 18.810041 8.61339342 15.0652024 11.9220257 11.743827 13.479625 7.9179554 13.479625 4.31231076 11.9220257 1.98620435 9.47240926"></polygon>
                    <circle id="Oval" fill="#05C0A5" cx="9.5" cy="7.5" r="2.5"></circle>
                    <path d="M10,0 C3.33333333,0 0,7.53458333 0,7.53458333 C0,7.53458333 3.33333333,15 10,15 C16.6666667,15 20,7.5 20,7.5 C20,7.5 16.6666667,0 10,0 Z M10,13.3333333 C5.59458333,13.3333333 2.813125,9.19125 1.875625,7.53083333 C2.8125,5.85458333 5.59458333,1.66666667 10,1.66666667 C14.40625,1.66666667 17.1879167,5.83291667 18.1245833,7.5 C17.18625,9.17 14.4052083,13.3333333 10,13.3333333 Z M10,4.16666667 C8.15916667,4.16666667 6.66666667,5.65916667 6.66666667,7.5 C6.66666667,9.34104167 8.15916667,10.8333333 10,10.8333333 C11.8410417,10.8333333 13.3333333,9.34104167 13.3333333,7.5 C13.3333333,5.65916667 11.8410417,4.16666667 10,4.16666667 Z M10,9.16666667 C9.08104167,9.16666667 8.33333333,8.41895833 8.33333333,7.5 C8.33333333,6.58104167 9.08104167,5.83333333 10,5.83333333 C10.9189583,5.83333333 11.6666667,6.58104167 11.6666667,7.5 C11.6666667,8.41895833 10.9189583,9.16666667 10,9.16666667 Z" id="Shape" fill="#003945" fill-rule="nonzero"></path>
                </g>
            </g>
        </g>
    </g>
</svg>