<svg width="20" height="16" xmlns="http://www.w3.org/2000/svg"><g transform="translate(0 .875)" fill="none" fill-rule="evenodd"><path fill="#FFF" d="M1.485 7.395l2.827-4.142 4.363-1.771h3.069l4.816 1.77 1.678 3.62.572 1.741-3.745 3.309-3.321 1.558H7.918l-3.606-1.558-2.326-2.45z"/><circle fill="#05C0A5" cx="9.5" cy="7.5" r="2.5"/><path d="M10 0C3.333 0 0 7.535 0 7.535S3.333 15 10 15s10-7.5 10-7.5S16.667 0 10 0zm0 13.333c-4.405 0-7.187-4.142-8.124-5.802C2.813 5.855 5.595 1.667 10 1.667c4.406 0 7.188 4.166 8.125 5.833-.939 1.67-3.72 5.833-8.125 5.833zm0-9.166a3.333 3.333 0 100 6.667 3.333 3.333 0 000-6.667zm0 5A1.669 1.669 0 018.333 7.5c0-.919.748-1.667 1.667-1.667s1.667.748 1.667 1.667S10.919 9.167 10 9.167z" fill="#003945" fill-rule="nonzero"/></g></svg>