<?xml version="1.0" encoding="UTF-8"?>
<svg width="90px" height="90px" viewBox="0 0 90 90" version="1.1" xmlns="http://www.w3.org/2000/svg" xmlns:xlink="http://www.w3.org/1999/xlink">
    <!-- Generator: Sketch 51.2 (57519) - http://www.bohemiancoding.com/sketch -->
    <title>Group 13</title>
    <desc>Created with Sketch.</desc>
    <defs></defs>
    <g id="Desktop" stroke="none" stroke-width="1" fill="none" fill-rule="evenodd">
        <g id="FAQs-2" transform="translate(-1019.000000, -1272.000000)">
            <g id="Group-13-Copy-3" transform="translate(217.000000, 1238.000000)">
                <g id="Group-2-Copy-6" transform="translate(686.000000, 0.000000)">
                    <g id="Group-19" transform="translate(125.000000, 43.000000)">
                        <circle id="Oval-2" fill="#FFFFFF" cx="36" cy="37" r="33"></circle>
                        <polygon id="Path-6" fill="#05C0A5" points="8.68805566 17.5852796 18.3129673 23.6356311 18.8961874 32.9524602 18.3129673 39.5913742 18.8961874 47.9078251 8.68805566 55.0983495 4.2947614 47.3263858 1.80694945 35.606334 3.71154135 26.6318685"></polygon>
                        <polygon id="Path-6" fill="#05C0A5" transform="translate(60.351568, 36.341815) scale(-1, 1) translate(-60.351568, -36.341815) " points="58.6880557 17.5852796 68.3129673 23.6356311 68.8961874 32.9524602 68.3129673 39.5913742 68.8961874 47.9078251 58.6880557 55.0983495 54.2947614 47.3263858 51.8069495 35.606334 53.7115413 26.6318685"></polygon>
                        <g id="help-lifeguard-symbol" fill="#003945" fill-rule="nonzero">
                            <path d="M61.5414881,10.6298673 C47.5331213,-3.47448527 24.7424017,-3.55442897 10.6312506,10.4585593 C-3.47761647,24.4692635 -3.55070757,47.2600699 10.4553751,61.3689907 C24.46831,75.4756273 47.2590297,75.5532869 61.3701808,61.5425827 C75.4767637,47.5318785 75.5521389,24.7410721 61.5414881,10.6298673 Z M51.5942457,8.96018601 L43.9585095,16.5434168 C38.9152234,14.4831535 33.2323901,14.4625966 28.1753994,16.4885983 L20.5921975,8.85283304 C30.1876889,3.41437744 42.0352999,3.45320723 51.5942457,8.96018601 Z M16.4945275,43.824775 L8.8587913,51.4057217 C3.4157882,41.8101938 3.45690195,29.9625377 8.96614386,20.4035554 L16.5516299,28.0393207 C14.4868063,33.0803419 14.4685335,38.7654809 16.4945275,43.824775 Z M20.4071856,63.0386719 L28.0452059,55.4554411 C33.0862079,57.5134203 38.7713253,57.5362614 43.8260319,55.5079755 L51.4092339,63.1460249 C41.8160266,68.5844805 29.9638474,68.5456507 20.4071856,63.0386719 Z M47.455462,47.5364467 C41.0942519,53.854283 30.77927,53.8177373 24.4591737,47.456503 C18.1413614,41.0952687 18.177907,30.7802475 24.5414011,24.4624112 C30.9048953,18.1445749 41.2175932,18.1788365 47.5354054,24.5400708 C53.8555017,30.9013051 53.8189562,41.2163263 47.455462,47.5364467 Z M55.4498014,43.9572531 C57.5100569,38.9139478 57.5328979,33.2310929 55.5046198,28.1740829 L63.140356,20.5908521 C68.581075,30.1840959 68.5422453,42.0340362 63.0330034,51.5930184 L55.4498014,43.9572531 Z" id="Shape"></path>
                        </g>
                    </g>
                </g>
            </g>
        </g>
    </g>
</svg>