<?xml version="1.0" encoding="UTF-8"?>
<svg width="28px" height="28px" viewBox="0 0 28 28" version="1.1" xmlns="http://www.w3.org/2000/svg" xmlns:xlink="http://www.w3.org/1999/xlink">
  <!-- Generator: Sketch 49.2 (51160) - http://www.bohemiancoding.com/sketch -->
  <title>swap 2</title>
  <desc>Created with Sketch.</desc>
  <defs></defs>
  <g id="Desktop" stroke="none" stroke-width="1" fill="none" fill-rule="evenodd">
      <g id="my-wallet-1" transform="translate(-23.000000, -267.000000)">
          <rect id="Rectangle-2" fill="#FFFFFF" x="0" y="0" width="266" height="1011"></rect>
          <g id="Group-19" transform="translate(24.000000, 136.000000)" opacity="0.800000012">
              <g id="Group-31" transform="translate(0.000000, 133.000000)">
                  <g id="Swap,-Call,-Tool,-Swapping" opacity="0.300000012">
                      <g id="Group">
                          <polygon id="Shape" points="0 0 26 0 26 26 0 26"></polygon>
                          <path d="M19.5,4.33333333 L15.1666667,8.66666667 L18.4166667,8.66666667 L18.4166667,16.25 C18.4166667,17.4470833 17.4470833,18.4166667 16.25,18.4166667 C15.0529167,18.4166667 14.0833333,17.4470833 14.0833333,16.25 L14.0833333,8.66666667 C14.0833333,6.27791667 12.13875,4.33333333 9.75,4.33333333 C7.36125,4.33333333 5.41666667,6.27791667 5.41666667,8.66666667 L5.41666667,16.25 L2.16666667,16.25 L6.5,20.5833333 L10.8333333,16.25 L7.58333333,16.25 L7.58333333,8.66666667 C7.58333333,7.46958333 8.55291667,6.5 9.75,6.5 C10.9470833,6.5 11.9166667,7.46958333 11.9166667,8.66666667 L11.9166667,16.25 C11.9166667,18.63875 13.86125,20.5833333 16.25,20.5833333 C18.63875,20.5833333 20.5833333,18.63875 20.5833333,16.25 L20.5833333,8.66666667 L23.8333333,8.66666667 L19.5,4.33333333 Z" id="Shape" fill="#000000" fill-rule="nonzero"></path>
                      </g>
                  </g>
              </g>
          </g>
      </g>
  </g>
</svg>
