<?xml version="1.0" encoding="UTF-8"?>
<svg width="90px" height="90px" viewBox="0 0 90 90" version="1.1" xmlns="http://www.w3.org/2000/svg" xmlns:xlink="http://www.w3.org/1999/xlink">
    <!-- Generator: Sketch 51.2 (57519) - http://www.bohemiancoding.com/sketch -->
    <title>Group 13</title>
    <desc>Created with Sketch.</desc>
    <defs></defs>
    <g id="Desktop" stroke="none" stroke-width="1" fill="none" fill-rule="evenodd">
        <g id="FAQs-2" transform="translate(-678.000000, -848.000000)">
            <g id="Group-13-Copy" transform="translate(217.000000, 814.000000)">
                <g id="Network-Access-Copy" transform="translate(464.000000, 37.000000)">
                    <circle id="Oval-9" fill="#05C0A5" cx="6.5" cy="31.5" r="4.5"></circle>
                    <circle id="Oval-9" fill="#05C0A5" cx="6.5" cy="51.5" r="4.5"></circle>
                    <circle id="Oval-9" fill="#05C0A5" cx="76.5" cy="51.5" r="4.5"></circle>
                    <circle id="Oval-9" fill="#05C0A5" cx="76.5" cy="31.5" r="4.5"></circle>
                    <circle id="Oval-9" fill="#05C0A5" cx="53.5" cy="6.5" r="4.5"></circle>
                    <circle id="Oval-9" fill="#05C0A5" cx="33.5" cy="6.5" r="4.5"></circle>
                    <circle id="Oval-9" fill="#05C0A5" cx="32.5" cy="77.5" r="4.5"></circle>
                    <circle id="Oval-9" fill="#05C0A5" cx="52.5" cy="77.5" r="4.5"></circle>
                    <path d="M29.4,12.2404273 L29.4,20.6596528 C29.4,21.8192064 30.340202,22.7592103 31.5,22.7592103 C32.659798,22.7592103 33.6,21.8192064 33.6,20.6596528 L33.6,12.2404273 C36.492848,11.2178666 38.2281314,8.26036703 37.7092709,5.23686393 C37.1904105,2.21336082 34.5683287,0.00330943008 31.5,0.00330943008 C28.4316713,0.00330943008 25.8095895,2.21336082 25.2907291,5.23686393 C24.7718686,8.26036703 26.507152,11.2178666 29.4,12.2404273 Z M31.5,4.19912207 C32.659798,4.19912207 33.6,5.13912598 33.6,6.29867956 C33.6,7.45823315 32.659798,8.39823706 31.5,8.39823706 C30.340202,8.39823706 29.4,7.45823315 29.4,6.29867956 C29.4034595,5.14056169 30.341638,4.20258088 31.5,4.19912207 Z M52.5,7.0880584e-06 C49.4280211,-0.00456859663 46.8006376,2.20670709 46.2812954,5.23383374 C45.7619533,8.26096038 47.5020933,11.2212246 50.4,12.2404273 L50.4,20.6596528 C50.4,21.8192064 51.340202,22.7592103 52.5,22.7592103 C53.659798,22.7592103 54.6,21.8192064 54.6,20.6596528 L54.6,12.2404273 C57.4979067,11.2212246 59.2380467,8.26096038 58.7187046,5.23383374 C58.1993624,2.20670709 55.5719789,-0.00456859663 52.5,7.0880584e-06 Z M52.5,8.39823706 C51.340202,8.39823706 50.4,7.45823315 50.4,6.29867956 C50.4,5.13912598 51.340202,4.19912207 52.5,4.19912207 C53.659798,4.19912207 54.6,5.13912598 54.6,6.29867956 C54.5965405,7.45679744 53.658362,8.39477824 52.5,8.39823706 Z M54.6,71.7628822 L54.6,63.3436566 C54.6,62.184103 53.659798,61.2440991 52.5,61.2440991 C51.340202,61.2440991 50.4,62.184103 50.4,63.3436566 L50.4,71.7628822 C47.507152,72.7854429 45.7718686,75.7429424 46.2907291,78.7664455 C46.8095895,81.7899486 49.4316713,84 52.5,84 C55.5683287,84 58.1904105,81.7899486 58.7092709,78.7664455 C59.2281314,75.7429424 57.492848,72.7854429 54.6,71.7628822 Z M52.5,79.7831918 C51.340202,79.7831918 50.4,78.8431879 50.4,77.6836343 C50.4,76.5240807 51.340202,75.5840768 52.5,75.5840768 C53.659798,75.5840768 54.6,76.5240807 54.6,77.6836343 C54.5965405,78.8417522 53.658362,79.779733 52.5,79.7831918 Z M33.6,71.7628822 L33.6,63.3436566 C33.6,62.184103 32.659798,61.2440991 31.5,61.2440991 C30.340202,61.2440991 29.4,62.184103 29.4,63.3436566 L29.4,71.7628822 C26.507152,72.7854429 24.7718686,75.7429424 25.2907291,78.7664455 C25.8095895,81.7899486 28.4316713,84 31.5,84 C34.5683287,84 37.1904105,81.7899486 37.7092709,78.7664455 C38.2281314,75.7429424 36.492848,72.7854429 33.6,71.7628822 Z M31.5,79.7831918 C30.340202,79.7831918 29.4,78.8431879 29.4,77.6836343 C29.4,76.5240807 30.340202,75.5840768 31.5,75.5840768 C32.659798,75.5840768 33.6,76.5240807 33.6,77.6836343 C33.5965405,78.8417522 32.658362,79.779733 31.5,79.7831918 Z M77.6996374,37.7920419 C75.0336896,37.7927382 72.6585515,36.108598 71.7776374,33.592927 L63.3566374,33.592927 C62.1968395,33.592927 61.2566374,32.6529231 61.2566374,31.4933695 C61.2566374,30.3338159 62.1968395,29.393812 63.3566374,29.393812 L71.7776374,29.393812 C72.8491955,26.3794912 76.0126614,24.6490577 79.1295387,25.3722808 C82.2464161,26.0955039 84.3241951,29.0420872 83.9583015,32.2201465 C83.5924079,35.3982057 80.8993535,37.795749 77.6996374,37.7920419 Z M77.4393529,29.393812 C78.5991509,29.393812 79.5393529,30.3338159 79.5393529,31.4933695 C79.5393529,32.6529231 78.5991509,33.592927 77.4393529,33.592927 C76.279555,33.592927 75.3393529,32.6529231 75.3393529,31.4933695 C75.3428125,30.3352516 76.280991,29.3972708 77.4393529,29.393812 Z M63.339303,50.3893869 L71.760303,50.3893869 C72.7830793,47.4971484 75.7412021,45.7622307 78.7653425,46.2809819 C81.7894828,46.799733 84,49.4212622 84,52.4889444 C84,55.5566265 81.7894828,58.1781558 78.7653425,58.6969069 C75.7412021,59.215658 72.7830793,57.4807403 71.760303,54.5885019 L63.339303,54.5885019 C62.1795051,54.5885019 61.239303,53.648498 61.239303,52.4889444 C61.239303,51.3293908 62.1795051,50.3893869 63.339303,50.3893869 Z M77.4393529,54.5885019 C76.279555,54.5885019 75.3393529,53.648498 75.3393529,52.4889444 C75.3393529,51.3293908 76.279555,50.3893869 77.4393529,50.3893869 C78.5991509,50.3893869 79.5393529,51.3293908 79.5393529,52.4889444 C79.5358934,53.6470623 78.5977149,54.5850431 77.4393529,54.5885019 Z M6.30036256,46.1902719 C8.96369789,46.1977555 11.3345911,47.8788858 12.2223626,50.3893869 L20.6433626,50.3893869 C21.8031605,50.3893869 22.7433626,51.3293908 22.7433626,52.4889444 C22.7433626,53.648498 21.8031605,54.5885019 20.6433626,54.5885019 L12.2223626,54.5885019 C11.1508045,57.6028226 7.98733865,59.3332562 4.87046128,58.6100331 C1.75358391,57.8868099 -0.324195121,54.9402267 0.0416984711,51.7621674 C0.407592063,48.5841081 3.10064648,46.1865649 6.30036256,46.1902719 Z M6.56064706,54.5885019 C5.40084908,54.5885019 4.46064706,53.648498 4.46064706,52.4889444 C4.46064706,51.3293908 5.40084908,50.3893869 6.56064706,50.3893869 C7.72044503,50.3893869 8.66064706,51.3293908 8.66064706,52.4889444 C8.65718752,53.6470623 7.71900902,54.5850431 6.56064706,54.5885019 Z M6.30036256,25.194697 C8.96369789,25.2021806 11.3345911,26.8833108 12.2223626,29.393812 L20.6433626,29.393812 C21.8031605,29.393812 22.7433626,30.3338159 22.7433626,31.4933695 C22.7433626,32.6529231 21.8031605,33.592927 20.6433626,33.592927 L12.2223626,33.592927 C11.1508045,36.6072477 7.98733865,38.3376813 4.87046128,37.6144581 C1.75358391,36.891235 -0.324195121,33.9446517 0.0416984711,30.7665925 C0.407592063,27.5885332 3.10064648,25.19099 6.30036256,25.194697 Z M6.56064706,33.592927 C5.40084908,33.592927 4.46064706,32.6529231 4.46064706,31.4933695 C4.46064706,30.3338159 5.40084908,29.393812 6.56064706,29.393812 C7.72044503,29.393812 8.66064706,30.3338159 8.66064706,31.4933695 C8.65718752,32.6514873 7.71900902,33.5894681 6.56064706,33.592927 Z" id="Access" fill="#003945"></path>
                    <rect id="Rectangle-8" stroke="#003945" stroke-width="4" fill="#FFFFFF" x="27" y="27" width="32" height="32" rx="16"></rect>
                    <path d="M43.5,41.9419354 C42.2008528,41.9419354 41.1438619,40.8986176 41.1438619,39.616276 C41.1439327,38.3340043 42.2008528,37.2906865 43.5,37.2906865 L46.928069,37.2906865 C47.5200774,37.2906865 48,36.8169721 48,36.2326219 C48,35.6482716 47.5200774,35.1745572 46.928069,35.1745572 L44.571931,35.1745572 L44.571931,34.0580646 C44.571931,33.4737144 44.0920084,33 43.5,33 C42.9079916,33 42.428069,33.4737144 42.428069,34.0580646 L42.428069,35.3028753 C40.4627089,35.7788261 39,37.531737 39,39.616276 C39,42.0655009 41.0187478,44.0580646 43.5,44.0580646 C44.7991472,44.0580646 45.8561381,45.1013824 45.8561381,46.383724 C45.8561381,47.6660656 44.7991472,48.7093135 43.5,48.7093135 L40.071931,48.7093135 C39.4799226,48.7093135 39,49.1830279 39,49.7673781 C39,50.3517284 39.4799226,50.8254428 40.071931,50.8254428 L42.428069,50.8254428 L42.428069,51.9419354 C42.428069,52.5262856 42.9079916,53 43.5,53 C44.0920084,53 44.571931,52.5262856 44.571931,51.9419354 L44.571931,50.6971247 C46.5372911,50.2211739 48,48.468263 48,46.383724 C48,43.9344991 45.9812522,41.9419354 43.5,41.9419354 Z" id="Shape" stroke="#003945" stroke-width="1.4" fill="#003945" fill-rule="nonzero"></path>
                </g>
            </g>
        </g>
    </g>
</svg>