<svg xmlns="http://www.w3.org/2000/svg" viewBox="0 0 99.04 117.28"><defs><style>.cls-1{fill:#01028d;}.cls-1,.cls-2,.cls-3{fill-rule:evenodd;}.cls-2{fill:#fff;}.cls-3{fill:#afb9c9;}</style></defs><title>资源 6</title><g id="图层_2" data-name="图层 2"><g id="图层_1-2" data-name="图层 1"><g id="_编组_" data-name="&lt;编组&gt;"><path id="_路径_" data-name="&lt;路径&gt;" class="cls-1" d="M1.87,27.88,47.55.55a3.85,3.85,0,0,1,4,0L97.17,27.88A3.85,3.85,0,0,1,99,31.18V86.09a3.85,3.85,0,0,1-1.87,3.3L51.5,116.73a3.85,3.85,0,0,1-4,0L1.87,89.4A3.85,3.85,0,0,1,0,86.09V31.18A3.85,3.85,0,0,1,1.87,27.88Z"/><g id="_编组_2" data-name="&lt;编组&gt;"><path id="_路径_2" data-name="&lt;路径&gt;" class="cls-2" d="M74.81,34.81H24.23a1.07,1.07,0,0,0-1.07,1.07V48.8a1.07,1.07,0,0,0,1.07,1.07H42V87.14a1.07,1.07,0,0,0,1.07,1.07H56a1.07,1.07,0,0,0,1.07-1.07V49.87H74.81a1.07,1.07,0,0,0,1.07-1.07V35.88A1.07,1.07,0,0,0,74.81,34.81Z"/><path id="_路径_3" data-name="&lt;路径&gt;" class="cls-3" d="M42,64.13V49.87H53.2a.53.53,0,0,1,.4.89Z"/></g></g></g></g></svg>