<svg xmlns="http://www.w3.org/2000/svg" viewBox="0 0 99.04 117.28"><g data-name="图层 2"><g data-name="图层 1"><g data-name="&lt;编组&gt;" fill-rule="evenodd"><path data-name="&lt;路径&gt;" d="M1.87 27.88L47.55.55a3.85 3.85 0 014 0l45.62 27.33a3.85 3.85 0 011.83 3.3v54.91a3.85 3.85 0 01-1.87 3.3L51.5 116.73a3.85 3.85 0 01-4 0L1.87 89.4A3.85 3.85 0 010 86.09V31.18a3.85 3.85 0 011.87-3.3z" fill="#01028d"/><g data-name="&lt;编组&gt;"><path data-name="&lt;路径&gt;" d="M74.81 34.81H24.23a1.07 1.07 0 00-1.07 1.07V48.8a1.07 1.07 0 001.07 1.07H42v37.27a1.07 1.07 0 001.07 1.07H56a1.07 1.07 0 001.07-1.07V49.87h17.74a1.07 1.07 0 001.07-1.07V35.88a1.07 1.07 0 00-1.07-1.07z" fill="#fff"/><path data-name="&lt;路径&gt;" d="M42 64.13V49.87h11.2a.53.53 0 01.4.89z" fill="#afb9c9"/></g></g></g></g></svg>