<svg width="32" height="32" xmlns="http://www.w3.org/2000/svg"><g fill="#1D1D1B"><path d="M16.656 4C10.402 4 5.313 9.159 5.314 15.467c-.005.1-.062 1.77.407 3.57l-1.528-.904a.789.789 0 00-1.085.29.811.811 0 00.286 1.1l3.58 2.116.022.01c.039.02.078.035.119.05.028.01.055.02.083.027.034.007.068.01.103.013.025.002.049.01.073.01.014 0 .027-.005.041-.006.014 0 .025.003.038.002.02-.002.038-.01.057-.014a.805.805 0 00.202-.064.748.748 0 00.175-.114.798.798 0 00.14-.16c.01-.016.025-.027.034-.044.007-.012.007-.027.013-.039.01-.022.027-.041.037-.065l1.424-3.575a.808.808 0 00-.438-1.048.79.79 0 00-1.033.445l-.731 1.836c-.489-1.655-.433-3.356-.431-3.403 0-5.454 4.376-9.89 9.755-9.89 5.379 0 9.755 4.436 9.755 9.89 0 5.454-4.376 9.89-9.755 9.89a.8.8 0 00-.794.805c0 .445.355.805.794.805C22.912 27 28 21.841 28 15.5S22.911 4 16.656 4z"/><path d="M16.57 16.487a.859.859 0 00.256.048c.018.001.036.01.054.01a.86.86 0 00.277-.05c.025-.008.048-.02.072-.031a.822.822 0 00.187-.116c.013-.01.03-.014.042-.026l5.094-4.75a.725.725 0 000-1.076.858.858 0 00-1.153 0l-4.709 4.39-4.225-1.65c-.418-.163-.894.02-1.068.407-.174.388.022.834.437.996l4.73 1.847h.005z"/></g></svg>