<?xml version="1.0" encoding="UTF-8"?>
<svg width="26px" height="27px" viewBox="0 0 26 27" version="1.1" xmlns="http://www.w3.org/2000/svg" xmlns:xlink="http://www.w3.org/1999/xlink">
    <!-- Generator: Sketch 51.2 (57519) - http://www.bohemiancoding.com/sketch -->
    <title>USD</title>
    <desc>Created with Sketch.</desc>
    <defs></defs>
    <g id="Desktop" stroke="none" stroke-width="1" fill="none" fill-rule="evenodd">
        <g id="my-wallet-1.7" transform="translate(-514.000000, -561.000000)">
            <g id="pop-out" transform="translate(470.000000, 207.000000)">
                <g id="Group-7" transform="translate(26.000000, 160.000000)">
                    <g id="Group-3" transform="translate(0.000000, 180.480000)">
                        <g id="Group-2" transform="translate(18.000000, 14.000000)">
                            <g id="USD">
                                <path d="M25.8895711,13.0642109 C25.8895711,20.2082607 20.0982975,25.9995343 12.9542478,25.9995343 C5.81019801,25.9995343 0.0189243781,20.2082607 0.0189243781,13.0642109 C0.0189243781,5.92016119 5.81019801,0.128887562 12.9542478,0.128887562 C20.0982975,0.128887562 25.8895711,5.92016119 25.8895711,13.0642109" id="Fill-504" fill="#1A96A4"></path>
                                <g id="Dollar" transform="translate(8.000000, 6.000000)" fill="#FFFFFF" fill-rule="nonzero">
                                    <g id="Layer_1">
                                        <path d="M9.81149245,8.43860463 C9.71446231,8.14067014 9.56600838,7.86118352 9.36659728,7.60014475 C9.16681288,7.33938597 8.91874672,7.10780778 8.62214994,6.9054413 C8.32539761,6.70329258 7.97753258,6.54363927 7.57833708,6.42635692 C7.41834156,6.38395484 7.13692616,6.31728745 6.76625795,6.22669695 C6.50133052,6.16217611 6.25295327,6.09603758 5.97296889,6.02862356 L5.97296889,2.73964711 C6.25295327,2.81418517 6.44744908,2.93258745 6.65507305,3.06411789 C7.09928381,3.34534664 7.37780605,3.82645313 7.45940594,4.47975 L9.61136584,4.47975 C9.59102031,3.91978125 9.46670725,3.46060688 9.23817778,3.04809656 C8.98712513,2.59567292 8.64781517,2.20739681 8.21996794,1.8984185 C7.79221403,1.58975128 7.27968708,1.35431553 6.7149897,1.19985748 C6.46972339,1.132879 6.25298438,1.07653992 5.973,1.03861759 L5.973,0 L3.982,0 L3.982,1.03180464 C3.76423438,1.06428283 3.51075519,1.10786706 3.28434116,1.16401948 C2.74795331,1.29726094 2.27677072,1.50211617 1.85483427,1.77886517 C1.43264894,2.05589416 1.09725877,2.40453692 0.840544203,2.82498013 C0.58386075,3.2456722 0.457525578,3.74332888 0.457525578,4.31823013 C0.457525578,4.61641348 0.501296469,4.90909048 0.58684725,5.19660333 C0.67246025,5.48408506 0.818363219,5.75554547 1.02368509,6.01107788 C1.2291003,6.26661028 1.50572486,6.49818847 1.85390098,6.70581244 C2.20179713,6.91337419 2.62245809,7.08111594 3.14730436,7.20888214 C3.43621713,7.28183363 3.73309389,7.34993205 3.98196889,7.41345739 L3.98196889,11.1337031 C3.63976577,11.0428948 3.30101578,10.9035248 3.02759548,10.7143798 C2.74232252,10.5175508 2.52779227,10.2803107 2.36813895,9.97136353 C2.21946725,9.68425511 2.14810234,9.3328125 2.13771181,8.9595 L0,8.9595 C0.0216210156,9.61279688 0.163324219,10.1881337 0.425327375,10.6820572 C0.699058766,11.1985973 1.06409617,11.6140941 1.52050181,11.9439157 C1.97662747,12.2740795 2.49711842,12.5149594 3.11323959,12.674706 C3.38964639,12.746382 3.70201563,12.7978991 3.982,12.837408 L3.982,13.937 L5.973,13.937 L5.973,12.8624822 C6.28409375,12.8292263 6.56274042,12.778798 6.86045714,12.7106995 C7.44223356,12.5777692 7.96935081,12.3673765 8.42575645,12.0799259 C8.88188211,11.7924752 9.25391913,11.422647 9.53359241,10.9699123 C9.81295459,10.5175508 9.95496889,9.97176795 9.95496889,9.33296805 C9.955,9.03500245 9.90827372,8.73678798 9.81149245,8.43860463 Z M3.982,5.52810483 C3.6086875,5.41166244 3.23811263,5.24538283 2.98491342,5.02886158 C2.7167195,4.80005213 2.59066431,4.4833898 2.59066431,4.07862572 C2.59066431,3.79114398 2.66576234,3.55163291 2.80855438,3.35993694 C2.95103531,3.16827208 3.1169105,3.01655166 3.33368063,2.90477567 C3.52593656,2.80556788 3.76423438,2.731652 3.982,2.68271695 L3.982,5.52810483 Z M7.68096691,10.1874181 C7.58953645,10.395011 7.44145583,10.5786496 7.23600952,10.7383963 C7.03062542,10.8980807 6.74622352,11.0285845 6.41543753,11.1296589 C6.27544534,11.1725276 6.15962514,11.2056902 5.97296889,11.2303288 L5.97296889,7.89820367 C6.28406264,7.97983467 6.53853733,8.06407886 6.7919543,8.151154 C7.04275808,8.23651813 7.28186473,8.38270108 7.49306628,8.59029394 C7.70414339,8.79798013 7.81377283,9.12008659 7.81377283,9.55655113 C7.81380394,9.76965034 7.77217959,9.97979417 7.68096691,10.1874181 Z" id="Shape"></path>
                                    </g>
                                </g>
                            </g>
                        </g>
                    </g>
                </g>
            </g>
        </g>
    </g>
</svg>