<svg xmlns="http://www.w3.org/2000/svg" width="100" height="100" viewBox="0 0 100 100" version="1.1">
	<path d="M 5 39 L 5 43 9 43 L 13 43 13 39 L 13 35 9 35 L 5 35 5 39 M 17 39 C 17 42.905, 17.083 43, 20.500 43 C 23.917 43, 24 42.905, 24 39 C 24 35.095, 23.917 35, 20.500 35 C 17.083 35, 17 35.095, 17 39 M 28 39 C 28 42.905, 28.083 43, 31.500 43 C 34.917 43, 35 42.905, 35 39 C 35 35.095, 34.917 35, 31.500 35 C 28.083 35, 28 35.095, 28 39 M 39 50.643 L 39 66.286 46.846 65.748 C 60.504 64.812, 65.380 60.330, 64.759 49.282 C 64.190 39.161, 58.734 35, 46.032 35 L 39 35 39 50.643 M 70 50.617 C 70 69.544, 71.791 70.760, 72.217 52.122 L 72.500 39.778 82.915 52.889 C 88.643 60.100, 93.706 66, 94.165 66 C 94.624 66, 95 59.025, 95 50.500 C 95 31.213, 93.178 29.326, 92.779 48.199 L 92.500 61.398 82.166 48.449 C 76.482 41.327, 71.420 35.350, 70.916 35.167 C 70.386 34.974, 70 41.485, 70 50.617 M 46 49.868 L 46 59 49.927 59 C 54.888 59, 58 55.521, 58 49.976 C 58 44.846, 55.457 42.005, 50.240 41.305 L 46 40.737 46 49.868 M 17 50 C 17 53.905, 17.083 54, 20.500 54 C 23.917 54, 24 53.905, 24 50 C 24 46.095, 23.917 46, 20.500 46 C 17.083 46, 17 46.095, 17 50 M 28 50 C 28 53.905, 28.083 54, 31.500 54 C 34.917 54, 35 53.905, 35 50 C 35 46.095, 34.917 46, 31.500 46 C 28.083 46, 28 46.095, 28 50 M 28 62 C 28 65.905, 28.083 66, 31.500 66 C 34.917 66, 35 65.905, 35 62 C 35 58.095, 34.917 58, 31.500 58 C 28.083 58, 28 58.095, 28 62 " stroke="none" fill="black" fill-rule="evenodd"/>
</svg>