<svg xmlns="http://www.w3.org/2000/svg" fill="none" aria-hidden="true" viewBox="0 0 28 20"><path fill="#fff" d="M0 0h28v20H0V0z"/><path fill="#DC1F37" d="M0 0h28v20H0V0z"/><path fill="#042C90" d="M0 0h12v9.333H0V0z"/><path fill="#fff" fill-rule="evenodd" d="M17.333 10V6.667h5.334V10c0 2-2.667 3.333-2.667 3.333S17.333 12 17.333 10z" clip-rule="evenodd"/><mask id="a" width="6" height="8" x="17" y="6" maskUnits="userSpaceOnUse"><path fill="#fff" fill-rule="evenodd" d="M17.333 10V6.667h5.334V10c0 2-2.667 3.333-2.667 3.333S17.333 12 17.333 10z" clip-rule="evenodd"/></mask><g mask="url(#a)"><path fill="#65B5D2" fill-rule="evenodd" d="M20 12a1.333 1.333 0 100-2.666A1.333 1.333 0 0020 12z" clip-rule="evenodd"/><path fill="url(#paint0_linear)" fill-rule="evenodd" d="M20 9.333A.667.667 0 1020.052 8 .667.667 0 0020 9.333zm-1.333 1.334a.667.667 0 100-1.334.667.667 0 000 1.334zM22 10a.667.667 0 11-1.333.052A.667.667 0 0122 10z" clip-rule="evenodd"/><path fill="#2F8F22" d="M17.333 12h5.333v1.333h-5.333V12z"/></g><defs><linearGradient id="paint0_linear" x1="18" x2="18" y1="8" y2="10.667" gradientUnits="userSpaceOnUse"><stop stop-color="#E20B0C"/><stop offset="1" stop-color="#D40001"/></linearGradient></defs></svg>