<svg xmlns="http://www.w3.org/2000/svg" fill="none" aria-hidden="true" viewBox="0 0 28 20"><path fill="#043CAE" d="M0 0h28v20H0V0z"/><path fill="#FFD429" d="M13.057 4.276L14 4l.943.276-.276-.943.276-.943-.943.277-.943-.276.276.942-.276.943zm0 13.334l.943-.277.943.277-.276-.943.276-.943L14 16l-.943-.276.276.943-.276.942v.001zm7.61-6.943l-.943.276L20 10l-.276-.943.943.276.942-.276-.276.943.277.943-.943-.276zm-14.277.276l.943-.276.943.276L8 10l.276-.943-.943.276-.942-.276.276.943-.276.943H6.39zm13.383-3.61l-.942.276.276-.942-.276-.943.942.276.943-.276-.276.943.276.942-.943-.276zM7.284 14.276L8.227 14l.942.276-.276-.943.276-.943-.942.277-.943-.277.276.943-.276.943zm10.049-9.383l-.942.276.276-.943-.277-.942.943.276.943-.276-.276.942.276.943-.943-.276zM9.724 16.716l.943-.276.943.276-.277-.943.277-.942-.943.276-.943-.276.276.943-.276.942zM19.773 14l-.942.276.276-.943-.276-.943.942.277.943-.277-.276.943.276.943-.943-.276zM7.284 7.61l.943-.277.942.276-.276-.942.276-.943L8.227 6l-.943-.276.276.943-.276.942v.001zm10.049 8.83l-.942.276.276-.943-.277-.942.943.276.943-.276-.276.943.276.942-.943-.276zM9.724 5.17l.943-.277.943.276-.277-.943.277-.942-.943.276-.943-.276.276.942-.276.943v.001z"/></svg>