<svg xmlns="http://www.w3.org/2000/svg" fill="none" aria-hidden="true" viewBox="0 0 28 20"><g clip-path="url(#clip0)"><path fill="#fff" d="M0 0h28v20H0V0z"/><path fill="#FF2B37" fill-rule="evenodd" d="M16 21.333h-4V12H-1.333V8H12v-9.333h4V8h13.333v4H16v9.333z" clip-rule="evenodd"/><path fill="#FD0D1B" fill-rule="evenodd" d="M21.6 4.4l-1.6.267V3.333l1.6.267-.267-1.6h1.334L22.4 3.6l1.6-.267v1.334L22.4 4.4l.267 1.6h-1.334l.267-1.6zm-16 0L4 4.667V3.333l1.6.267L5.333 2h1.334L6.4 3.6 8 3.333v1.334L6.4 4.4 6.667 6H5.333L5.6 4.4zm0 12l-1.6.267v-1.334l1.6.267-.267-1.6h1.334L6.4 15.6l1.6-.267v1.334L6.4 16.4l.267 1.6H5.333l.267-1.6zm16 0l-1.6.267v-1.334l1.6.267-.267-1.6h1.334l-.267 1.6 1.6-.267v1.334l-1.6-.267.267 1.6h-1.334l.267-1.6z" clip-rule="evenodd"/></g><defs><clipPath id="clip0"><path fill="#fff" d="M0 0h28v20H0z"/></clipPath></defs></svg>