<svg xmlns="http://www.w3.org/2000/svg" fill="none" aria-hidden="true" viewBox="0 0 28 20"><path fill="#fff" d="M0 0h28v20H0V0z"/><path fill="#63AEE3" d="M18.667 0H28v20h-9.333V0z"/><path fill="#63AEE3" fill-rule="evenodd" d="M0 20h9.333V0H0v20z" clip-rule="evenodd"/><path fill="#628A40" d="M12 9.333a.667.667 0 00-1.333 0H12zm.329 2.885a.667.667 0 00.67-1.153l-.67 1.153zm2.747-1.198a.667.667 0 00.718 1.123l-.718-1.123zm2.257-1.687a.667.667 0 10-1.333 0h1.333zm-6.666 0c0 1.233.67 2.31 1.662 2.885l.67-1.153A2 2 0 0112 9.333h-1.333zm5.127 2.81a3.332 3.332 0 001.54-2.81H16a2 2 0 01-.924 1.687l.718 1.123z"/><path fill="#DCC26D" fill-rule="evenodd" d="M14 10.667a1.333 1.333 0 100-2.666 1.333 1.333 0 000 2.666z" clip-rule="evenodd"/></svg>