<svg xmlns="http://www.w3.org/2000/svg" fill="none" aria-hidden="true" viewBox="0 0 28 20"><path fill="#fff" d="M0 0h28v20H0V0z"/><path fill="#DD1C34" fill-rule="evenodd" d="M0 20h28V9.333H12.444l.89.667L0 20z" clip-rule="evenodd"/><path fill="#0D4BC3" fill-rule="evenodd" d="M28 9.333H12.444L0 0h28v9.333z" clip-rule="evenodd"/><path fill="#FDD64D" fill-rule="evenodd" d="M2 4a.667.667 0 10.052-1.333A.667.667 0 002 4zm8 6.667a.667.667 0 100-1.333.667.667 0 000 1.333zm-7.333 6a.667.667 0 11-1.335 0 .667.667 0 011.335 0zm1.865-5.34L3.391 13.08l.433-2.047a1.344 1.344 0 01-.19-.19l-2.047.433 1.753-1.141a1.35 1.35 0 010-.27l-1.753-1.14 2.046.432c.057-.07.121-.133.19-.19L3.392 6.92l1.141 1.753c.09-.009.18-.009.27 0l1.14-1.753-.432 2.047c.07.057.133.12.19.19l2.046-.433-1.753 1.141c.009.09.009.18 0 .27l1.753 1.14-2.046-.432c-.057.07-.12.133-.19.19l.432 2.047-1.14-1.753c-.09.01-.18.01-.27 0h-.001z" clip-rule="evenodd"/></svg>