<svg xmlns="http://www.w3.org/2000/svg" fill="none" aria-hidden="true" viewBox="0 0 28 20"><path fill="#fff" d="M0 0h28v20H0V0z"/><path fill="#E12237" fill-rule="evenodd" d="M0 10.667h28V0H0v10.667z" clip-rule="evenodd"/><path fill="#fff" fill-rule="evenodd" d="M6.667 9.333c.945 0 1.813-.327 2.498-.876a3.333 3.333 0 110-6.248 4 4 0 10-2.498 7.124zM8 4.667a.667.667 0 11-1.333.052A.667.667 0 018 4.667zM8.667 8a.667.667 0 10.052-1.333A.667.667 0 008.667 8zM12 7.333a.667.667 0 11-1.333.052A.667.667 0 0112 7.333zm.667-2A.667.667 0 1012.719 4a.667.667 0 00-.052 1.333zm-2-2.666a.667.667 0 11-1.334 0 .667.667 0 011.334 0z" clip-rule="evenodd"/></svg>