<svg xmlns="http://www.w3.org/2000/svg" fill="none" aria-hidden="true" viewBox="0 0 28 20"><path fill="#fff" d="M0 0h28v20H0V0z"/><path fill="#E92434" d="M0 0h28v20H0V0z"/><path fill="#fff" fill-rule="evenodd" d="M19.02 10.768l-1.224 1.485.084-1.923-1.791-.706 1.855-.515.117-1.921 1.063 1.605 1.864-.482-1.198 1.507 1.034 1.624-1.803-.674h-.001z" clip-rule="evenodd"/><path fill="#fff" fill-rule="evenodd" d="M17.403 13.684a6 6 0 110-7.368 5.21 5.21 0 00-3.07-.983c-2.761 0-5 2.09-5 4.667s2.239 4.667 5 4.667a5.21 5.21 0 003.07-.983z" clip-rule="evenodd"/></svg>