<?xml version="1.0" encoding="UTF-8" standalone="no"?>
<svg xmlns="http://www.w3.org/2000/svg" id="svg19011" width="1000" height="500" version="1.1" viewBox="0 0 264.58332725 132.2916704">
  <metadata id="metadata19008"/>
  <g id="layer1" transform="translate(0 -164.70831655)">
    <path id="rect17344" d="M-264.58334351 164.70831299H0v132.29167175h-264.58334351z" style="opacity:1;fill:#d00c27;fill-opacity:1;stroke:none;stroke-width:.396874994;stroke-linecap:square;stroke-linejoin:round;stroke-miterlimit:4;stroke-dasharray:.396874999,.7937499979;stroke-dashoffset:0;stroke-opacity:1;paint-order:markers stroke fill" transform="scale(-1 1)"/>
    <path id="path17424" d="M89.76935272 192.20608605c.47247024-1.96075149-1.6063988-2.9765625-3.21279762-2.5749628-1.88988095-.5905878-3.35453869-.23623512-3.75613839.30710566-1.27566964-.07087054-2.52771577.51971726-2.69308036 1.51190476-1.37016369 0-2.52771577 1.08668155-1.41741071 4.63020833-.42522321 1.46465774.56696429 2.45684524 3.00018601 4.44122024 2.43322173 1.984375 8.7170759-5.48065476 8.07924107-8.3154762z" style="fill:#fff;stroke:#000;stroke-width:.2645833194;stroke-linecap:butt;stroke-linejoin:round;stroke-miterlimit:4;stroke-dasharray:none;stroke-opacity:1"/>
    <path id="path17422" d="M108.26087046 206.345502c-1.2862346.66817382-.8853303 1.73725193-.08352173 2.17156492.80180859.43431298 2.92326046-1.38646068 2.99007784-1.67043455.06681739-.28397387-2.9065561-.50113036-2.9065561-.50113036z" style="fill:#fff;stroke:#000;stroke-width:.2645833194;stroke-linecap:butt;stroke-linejoin:miter;stroke-miterlimit:4;stroke-dasharray:none;stroke-opacity:1"/>
    <path id="path17404" d="M73.77623516 236.9726411c-2.95293898 2.50409227-3.94512648 3.99237352-4.7719494 7.34691221-.82682292 3.3545387-.29930537 4.85589048-.46634882 6.27575984-.16704346 1.41986936-.73845029 2.9374098-1.25816755 3.83510326-.51971726.89769345-.7795759 1.22842262-1.25204613 1.55915178-.47247024.33072917-1.3937872 1.7953869-1.46465774 2.55133929-.07087053.75595238-.42522321 2.64583333-.4015997 3.23642113.02362351.5905878-.2126116 2.29148065-.04724703 3.1891741.16536459.89769346.35435268 2.952939-.42522321 3.85063245-.7795759.89769345-1.08668155 2.10249256-.51971726 3.11830357.56696428 1.01581101 1.56006785 2.04595807 2.07790256 2.27981891.51783471.23386084 2.13815622.80180858 2.45553879 1.21941722.31738256.41760864 1.2862346 1.57020847 1.88759103 1.90429538.60135644.33408691.9521477.5846521 1.45327806.78510424.50113036.20045215 1.48668675.28397387 1.77066062-.11693042.28397387-.40090429.43431298-.66817382.98555638-.45101732.5512434.21715649 1.15259984.31738256 1.1358955-.23386084-.01670435-.5512434.1503391-.78510424-.46772168-1.3196433-.61806078-.53453905-1.41986936-.65146947-1.58691282-.75169554-.16704345-.10022607-.78510424-.96885204-.90203465-1.48668675-.11693042-.5178347-1.21941722-1.36975632-1.97111277-2.10474753-.75169555-.7349912-1.16930418-1.95440841-.86862596-3.54132123.30067821-1.58691282.95167393-2.58470455 1.3060266-3.2697864.35435268-.68508184.73232887-1.84263392.9921875-2.29148065.25985864-.44884672.51971727-1.34654018.80319941-2.1733631.28348214-.82682291 1.70089286-2.0079985 1.984375-2.64583333.28348214-.63783482.87406994-2.29148065.96856399-3.23642113.09449405-.94494047 1.7717634-2.81119791 2.26785714-3.49627976.49609375-.68508184 2.61913664-3.55011098 2.90311051-4.26839783.28397387-.71828686 2.48894739-6.06367735 2.8230343-7.7341119.3340869-1.67043454-7.0963749-2.37257373-9.41141267-2.02985634z" style="fill:#fff;stroke:#000;stroke-width:.2645833194;stroke-linecap:round;stroke-linejoin:miter;stroke-miterlimit:4;stroke-dasharray:none;stroke-opacity:1"/>
    <path id="path17406" d="M71.26909746 276.7376138c.55959557.32573473 1.30790665.59877888 1.459938 1.36011538" style="fill:#fff;stroke:#000;stroke-width:.2645833194;stroke-linecap:round;stroke-linejoin:miter;stroke-miterlimit:4;stroke-dasharray:none;stroke-opacity:1"/>
    <path id="path17408" d="M72.17948429 276.42023123c.4009043.1837478.79230055.54191728 1.01838714 1.13540852" style="fill:#fff;stroke:#000;stroke-width:.2645833194;stroke-linecap:round;stroke-linejoin:miter;stroke-miterlimit:4;stroke-dasharray:none;stroke-opacity:1"/>
    <path id="path17410" d="M73.13998415 276.3367095c.41760864.22550867.99120565.47628272 1.0259658 1.34062817" style="fill:#fff;stroke:#000;stroke-width:.2645833194;stroke-linecap:round;stroke-linejoin:miter;stroke-miterlimit:4;stroke-dasharray:none;stroke-opacity:1"/>
    <path id="path17396" d="M72.71317709 217.48324383c.89769345 3.35453869.70242873 4.19684731 1.00310694 4.68127333.30067822.48442602.50879786 4.43740222-.67237774 5.3823427-1.18117559.94494048-3.1529174 3.00323876-3.01928264 4.80730807.13363476 1.80406931 1.40316502 5.31198186 2.77292135 6.44787735 1.36975632 1.1358955 2.20711278 1.83224017 2.79770058 2.16296934.5905878.33072917 4.44122024.87406994 5.52790179 2.22061012 1.08668154 1.34654018 1.77176339 2.55133929 2.85844494 3.47265625 1.08668154.92131696 3.35453869 2.29148065 3.75613839 2.55133929.4015997.25985863 1.34654018.85044642 1.5827753 1.34654017.23623512.49609375.4015997 2.7639509.23623512 3.3545387-.16536459.5905878-.8031994 1.44103422-.68508185 2.76395089.11811756 1.32291666.04724703 2.07886905.30710566 2.40959821.25985863.33072917.63783482 1.81901042.73232887 2.48046875.09449404.66145834.92131696 2.5749628 1.22842261 3.07105655.30710566.49609375 1.27566965 1.96075149 1.41741072 2.10249256.14174107.14174107 1.00411932 1.01240984 1.05423236 2.44898355.05011303 1.4365737-.50113037 2.48894747.05011303 3.47450385.5512434.98555639.66817382 1.8708867 2.67269528 1.4699824 2.00452145-.40090429 2.63928658-.43431298 3.24064302-.21715649.60135644.2171565 1.95440842.7349912 3.02348653.90203466 1.0690781.16704345 3.62484296.3674956 4.15938202.26726953.53453905-.10022608.1503391-4.05915595-4.82755584-4.10926899-1.08578246-.7683999-1.1520142-.6219512-1.35281406-.9999274-.20079985-.37797618-1.29929315-1.16936383-1.85444568-1.48828124-.55515253-.31891742-1.70381783-1.83821684-1.93767866-2.64002542-.23386084-.80180858-.7349912-1.41986936-.78510424-3.42439082-.05011304-2.00452145-.05011304-3.8921125-.16704346-4.67721673-.11693041-.78510424-.35079125-1.88759104-.08352172-3.42439082.26726952-1.53679978.45101732-3.35757344.5178347-4.0758603.06681739-.71828685.25056519-2.2049736-.30067821-3.14041694-.5512434-.93544335-1.33634764-1.40316502-1.4699824-1.92099973-.13363477-.51783471-.63476513-2.52235617-1.11919115-3.25734737-.48442602-.7349912-3.02348653-4.30972113-3.95892988-5.16164275-.93544334-.85192162-2.10474752-2.0212258-2.32190402-2.32190402-.21715649-.30067822-.5178347-.50113036-.46772167-.8853303.05011304-.38419995-.06681738-.81851294-.23386084-1.20271288-.16704345-.38419995-.1837478-.80180858.25056519-1.41986937.43431298-.61806078 1.50339109-2.43883443 1.70384323-3.05689522.20045215-.61806078.05011304-2.18826925 0-2.87314742-.05011303-.68487816-.28397392-2.37201701-.01670439-3.10700821.26726953-.7349912.83521728-2.37201706 1.1024868-2.73951266.26726953-.3674956 1.80406931-1.67043455 2.00452146-2.70610396.20045214-1.03566942.20045214-6.08038175.56794774-7.08264248.3674956-1.00226073-14.29891975-.36749555-14.29891975-.36749555z" style="opacity:1;fill:#fff;stroke:#000;stroke-width:.2645833194;stroke-linecap:butt;stroke-linejoin:round;stroke-miterlimit:4;stroke-dasharray:none;stroke-opacity:1"/>
    <path id="path17369" d="M90.9150931 200.32076234c-.03543527.70870535.05905878 1.64183408-1.35835194 1.21661086 1.35551446.52838207-.90798957.71931004.0787841 2.10202484.7349912-.01670435 3.64154732-.31738256 4.17608637-.30067822.53453906.01670435 2.07133884.41760864 3.27405171.7349912 1.20271288.31738257 3.00678219-.10022607 3.55802559-.11693042.5512434-.01670434 3.04019087-.06681738 4.0424516-.20045214 1.00226073-.13363477 2.91896368.190643 3.88752767.09614896.96856399-.09449405 2.48046875-1.06305804 3.49627976-1.11030506 1.01581101-.04724703 5.22079613 2.9765625 5.1499256 4.27585565-.07087054 1.29929316-1.81901042 1.984375-3.18917411 2.14973959-1.37016369.16536458-2.64583333-1.29929316-3.23642113-1.53552828-.5905878-.23623512-4.12032073-.03391136-4.65485979-.03391136-.53453905 0-2.1548605.65146943-3.290756.76839985-1.1358955.11693042-1.8207737.73499124-4.56028636 1.20271292-2.73951266.46772167-4.51017328-.46772168-7.28309462 1.53679978l-11.0869333 1.4633128c-1.37016368-.23623512-2.45684523 1.65364583-2.90569196 2.40959822-.44884672.75595238-2.19388545 3.00927927-2.69501582 3.99483565-.50113036.98555638-1.75395627 2.30519967-2.12145187 3.14041695-.3674956.83521727-.53453906 3.65825165-.5512434 5.52913835-.01670435 1.87088669.50113036 2.85644307 1.52009543 4.0758603 1.01896508 1.21941721.63476513 2.27179097.5846521 3.02348652-.05011304.75169555-.7683999 1.18600853-1.20271288.88533031-.43431298-.30067822-.40090429-1.1358955-.25056518-1.78736496.1503391-.65146948-.31738256-1.20271288-.5846521-1.03566942-.1837478.53453905-.25056517 2.0212258.08352174 2.77292134.3340869.75169555 1.30667273.91267288 1.22836296 1.66232824-.06073765.58143838-.75822851.53387228-1.56244987.0749237-.08352173.68487816-.91537204.61788697-1.36975633-.05011304-.38419995 1.03566942-1.09610997.451846-1.36975633-.20045215-.60135644 1.48668675-1.41469908-.09416113-1.60361717-.65146947-.3340869-.98555639-.54700354-3.14957411-.61787407-4.80321994-.07087054-1.65364584.77957589-3.21279762 1.08668154-3.73251488.30710566-.51971727.35435268-2.29148066.35435268-3.04743304 0-.75595238-.30532544-3.04983877-.35543847-3.75142128-.05011304-.70158251-.10022608-2.63928659-.10022608-3.42439082 0-.78510424.78510424-1.20271288 1.18600853-1.43657371.4009043-.23386084.50113037-1.52009544.5846521-1.8708867.08352172-.35079125.81112003-1.19855417 1.248155-1.70645968.43703497-.5079055 1.99248802-2.11883543 2.37668796-2.436218.38419995-.31738256.65146947-.96885203.75169555-1.36975632.10022607-.4009043.21434343-.87148104.5686961-1.50931586.35435269-.63783482 1.15755205-1.03943448 1.67726931-1.39378715.51971727-.35435268 1.7717634-.82682292 2.14973959-.92131697.37797619-.09449405 1.63002232-.54334077 2.85844494-1.2047991 1.22842262-.66145834 1.22842262-2.43322173.47247024-3.77976191.2580569-1.04658278.90952642-.9964698 1.09327422-1.53100885.1837478-.53453906 1.10371238-2.79209383.70211268-3.57166972.89769345-1.01581101 2.92931548-.4015997 3.59077381-2.26785715 1.29929315.4015997 2.5985863.68508185 3.02380952-.44884672.5844594 1.05991345.85172893 1.8450177.83502458 2.41296544-.01670434.56794774-.50113036 1.40316502-.38419994 1.82077365.11693041.41760864 1.04664827 2.20258255 1.18695634 2.53271815.12439919.29270306.9872949 1.56261137-.4920406 1.34821905" style="opacity:1;fill:#fff;stroke:none;stroke-width:.2645833194;stroke-linecap:round;stroke-linejoin:round;stroke-miterlimit:4;stroke-dasharray:none;stroke-opacity:1"/>
    <path id="path17371" d="M68.72168474 237.06479332c-.26807102-.63900279-.57965713-2.14739778-.5087866-3.30494986" style="fill:none;stroke:#000;stroke-width:.2645833194;stroke-linecap:round;stroke-linejoin:miter;stroke-miterlimit:4;stroke-dasharray:none;stroke-opacity:1"/>
    <path id="path17375" d="M70.09144107 237.26524547c-.37142346-.54603754-.61306582-1.86342391-.54219529-3.020976" style="fill:none;stroke:#000;stroke-width:.2645833194;stroke-linecap:round;stroke-linejoin:miter;stroke-miterlimit:4;stroke-dasharray:none;stroke-opacity:1"/>
    <path id="path17377" d="M71.4611974 237.3153585c-.46574265-.26578743-.90795236-1.57099602-.94338763-3.11833605" style="fill:none;stroke:#000;stroke-width:.2645833194;stroke-linecap:round;stroke-linejoin:miter;stroke-miterlimit:4;stroke-dasharray:none;stroke-opacity:1"/>
    <path id="path17380" d="M90.9150931 200.32076234c-.0183897-.42313774-.71162004-.6308466-.71162004-.2811508 0 .44298022-.918739.70993468-.98555638.07516955" style="fill:none;stroke:#000;stroke-width:.2645833194;stroke-linecap:round;stroke-linejoin:miter;stroke-miterlimit:4;stroke-dasharray:none;stroke-opacity:1"/>
    <path id="path17386" d="M86.9463431 196.75361204c.14174107-1.7953869 1.6063988-2.24423363 2.50409226-1.7717634-.70870536.484282-1.64183408.92131697-2.50409226 1.7717634z" style="fill:#000;stroke:none;stroke-width:.2645833194;stroke-linecap:butt;stroke-linejoin:miter;stroke-miterlimit:4;stroke-dasharray:none;stroke-opacity:1"/>
    <path id="path17388" d="M87.65504845 197.190647c.484282-.63783481 1.2642056-1.23020332 1.7484876-.79316835.42758306.38586764-.06622382.84530797-.29445447.89028255-.4544855.08955982-.85847817-.40174648-.26764451-1.02035865" style="opacity:1;fill:none;stroke:#000;stroke-width:.2645833194;stroke-linecap:round;stroke-linejoin:miter;stroke-miterlimit:4;stroke-dasharray:none;stroke-opacity:1"/>
    <circle id="path17390" cx="89.02816772" cy="196.78903198" r=".43703499" style="opacity:1;fill:#000;fill-opacity:1;stroke:none;stroke-width:.2645833194;stroke-linecap:round;stroke-linejoin:round;stroke-miterlimit:4;stroke-dasharray:none;stroke-dashoffset:0;stroke-opacity:1;paint-order:markers stroke fill"/>
    <path id="path17392" d="M84.74935649 196.84810609c-.30710566-.76776414-.7795759-1.20479911-1.40559896-.31891742-.62602307.8858817-.16536458 1.5591518-.05905878 1.99618676.1063058.43703497.70870536 1.05124628 1.16936384 1.12211682.46065848.07087053.484282-.43703497.41341146-.62602307" style="fill:#fff;stroke:#000;stroke-width:.2645833194;stroke-linecap:round;stroke-linejoin:miter;stroke-miterlimit:4;stroke-dasharray:none;stroke-opacity:1"/>
    <path id="path17394" d="M84.04792175 197.0829424c-.37584777.43431297-.16704345 1.29458677.14198694 1.49503891.22355052.14500574.49453958-.03611575.40090429-.28397387-.10363697-.27433314-.41760864-.07516956-.40925647.16704345" style="fill:none;stroke:#000;stroke-width:.2645833194;stroke-linecap:round;stroke-linejoin:miter;stroke-miterlimit:4;stroke-dasharray:none;stroke-opacity:1"/>
    <path id="path17398" d="M104.03795397 271.98268574c.30710565.04724702 1.42888876.00259945 1.61804978.17305053" style="opacity:1;fill:none;stroke:#000;stroke-width:.2645833194;stroke-linecap:round;stroke-linejoin:miter;stroke-miterlimit:4;stroke-dasharray:none;stroke-opacity:1"/>
    <path id="path17400" d="M104.46317718 272.66776758c.46065849.07087054 1.54698336-.23018264 1.76614676.08599053" style="opacity:1;fill:none;stroke:#000;stroke-width:.2645833194;stroke-linecap:round;stroke-linejoin:miter;stroke-miterlimit:4;stroke-dasharray:none;stroke-opacity:1"/>
    <path id="path17402" d="M104.81752986 273.3882847c.64964658.07087053 1.84059762-.17204194 1.97393565.40513128" style="opacity:1;fill:none;stroke:#000;stroke-width:.2645833194;stroke-linecap:round;stroke-linejoin:miter;stroke-miterlimit:4;stroke-dasharray:none;stroke-opacity:1"/>
    <path id="path17361" d="M112.9332866 205.70745612c.86862597-.86862596 2.52715676-.51455395 3.76327832-.03012793 1.23612157.48442602 2.3887214 1.60361716.85192162 1.82077365-1.53679978.2171565-3.68431866.32505-4.2522664.05778047" style="fill:#fff;stroke:#000;stroke-width:.2645833194;stroke-linecap:round;stroke-linejoin:miter;stroke-miterlimit:4;stroke-dasharray:none;stroke-opacity:1"/>
    <path id="path17363" d="M113.13300606 204.71473555c-.44884673.86225819-.1063058 3.07105655.64964658 3.38997396" style="fill:none;stroke:#000;stroke-width:.2645833194;stroke-linecap:round;stroke-linejoin:miter;stroke-miterlimit:4;stroke-dasharray:none;stroke-opacity:1"/>
    <path id="path17480" d="M152.77325897 191.1194045c-2.24423363-1.11030506-2.69308035-1.48828125-3.75613839-.85044643-1.06305803.63783482-1.46465774.73232887-1.53552827 1.27566965-.07087054.54334077-.47247024 1.55915178-1.27566965 1.72451636-.8031994.16536459-2.09752682.44787275-2.41490939.86548139-.31738256.41760863-.43431298.93544334.53453906 1.50339109-1.01896508 1.92099973.3340869.7349912 1.00226073 2.53906051-1.00226073-.50113036-1.88759104-.80180858-1.837478.01670435.05011303.81851292.23386083.86862596.01670434 1.35305198-.2171565.48442602.13363476 1.11919115.48442602 1.45327806.35079125.3340869.83521727 1.30293894.5178347 2.12145187 1.30293895.46772167 3.20723434 1.08578246 5.71288616.85192162.03340869-1.00226073.85192162-1.00226073 1.52009544-2.72280831.66817381-1.72054759 3.60813853-6.38105992 3.60813853-6.38105992z" style="fill:#fff;stroke:#000;stroke-width:.2645833194;stroke-linecap:butt;stroke-linejoin:round;stroke-miterlimit:4;stroke-dasharray:none;stroke-opacity:1"/>
    <path id="path17482" d="M150.63979491 196.80732074c.41760864-.80180858.96885204-.41760863 1.15259984-.08352172.1837478.3340869.25056518.85192161.1837478 1.08578245-.06681738.23386084-.41760864.1837478-.65146947.5846521-.23386084.40090428-.4009043.78510423-.78510424 1.00226072-.38419994.2171565-1.23612156.26726953-1.2862346-.31738256" style="fill:none;stroke:#000;stroke-width:.2645833194px;stroke-linecap:round;stroke-linejoin:miter;stroke-opacity:1"/>
    <path id="path17484" d="M149.67094288 198.34412053c.25056518-.28397388.31738256-.38419995.3674956-.60135644" style="fill:none;stroke:#000;stroke-width:.2645833194px;stroke-linecap:round;stroke-linejoin:miter;stroke-opacity:1"/>
    <path id="path17486" d="M152.74963546 190.00909944c-1.37016369-1.2047991-4.70107887.47247024-.96856399 2.52771578-.33072916 1.91350446.7795759 3.000186 1.48828125 3.28366815-.5905878.5905878-.82682291 1.63002232-.6142113 2.14973958-1.46465774 1.15755209-1.78183754 3.27843933-1.07313218 3.65641552-.05207996 1.12611032 1.99444914-.16013575 2.56141343-.70347653 2.24423363-.30710565 3.26004464-.49609375 3.5671503-3.02380952.4252232-.63783482.37797618-2.22061012-.14174108-3.07105655.1889881-1.3937872-.07087053-2.48046875-1.1811756-3.33091518-.8031994-.87406994-2.66945684-2.1969866-3.63802083-1.48828125z" style="fill:#fff;stroke:#000;stroke-width:.2645833194px;stroke-linecap:butt;stroke-linejoin:round;stroke-opacity:1"/>
    <path id="path17488" d="M145.80388698 195.83846865c-.05011304.84356945-1.07743029.6431173-1.0440216.05846521.02027064-.35473612.02117722-.4970772-.17092275-.66412066-.19209997-.16704346-.97636477-.09002118.12612203.56980047" style="fill:none;stroke:#000;stroke-width:.2645833194px;stroke-linecap:round;stroke-linejoin:miter;stroke-opacity:1"/>
    <path id="path17490" d="m144.24812434 195.25647186.44294085.35435268" style="fill:none;stroke:#000;stroke-width:.2645833194px;stroke-linecap:butt;stroke-linejoin:miter;stroke-opacity:1"/>
    <path id="path17492" d="M147.78335192 193.62514288c-.11693042.77675206.38419994 1.21941722.3340869 2.25508664" style="fill:none;stroke:#000;stroke-width:.2645833194px;stroke-linecap:round;stroke-linejoin:miter;stroke-opacity:1"/>
    <path id="path17494" d="M148.57680833 192.81498212c-.08352173.56794775.34243908 2.2383823.47607384 2.756217.63476513-1.29458677-.08352172-2.079691-.47607384-2.756217z" style="fill:#000;stroke:none;stroke-width:.2645833194px;stroke-linecap:butt;stroke-linejoin:miter;stroke-opacity:1"/>
    <path id="path18915" d="M90.9150931 200.32076234c-.03543527.70870535.05905878 1.64183408-1.35835194 1.21661086 1.35551446.52838207-.90798957.71931004.0787841 2.10202484.7349912-.01670435 3.64154732-.31738256 4.17608637-.30067822.53453906.01670435 2.07133884.41760864 3.27405171.7349912 1.20271288.31738257 3.00678219-.10022607 3.55802559-.11693042.5512434-.01670434 3.04019087-.06681738 4.0424516-.20045214 1.00226073-.13363477 2.91896368.190643 3.88752767.09614896.96856399-.09449405 2.48046875-1.06305804 3.49627976-1.11030506 1.01581101-.04724703 5.22079613 2.9765625 5.1499256 4.27585565-.07087054 1.29929316-1.81901042 1.984375-3.18917411 2.14973959-1.37016369.16536458-2.64583333-1.29929316-3.23642113-1.53552828-.5905878-.23623512-4.12032073-.03391136-4.65485979-.03391136-.53453905 0-2.1548605.65146943-3.290756.76839985-1.1358955.11693042-1.8207737.73499124-4.56028636 1.20271292-2.73951266.46772167-4.51017328-.46772168-7.28309462 1.53679978m-11.0869333 1.4633128c-1.37016368-.23623512-2.45684523 1.65364583-2.90569196 2.40959822-.44884672.75595238-2.19388545 3.00927927-2.69501582 3.99483565-.50113036.98555638-1.75395627 2.30519967-2.12145187 3.14041695-.3674956.83521727-.53453906 3.65825165-.5512434 5.52913835-.01670435 1.87088669.50113036 2.85644307 1.52009543 4.0758603 1.01896508 1.21941721.63476513 2.27179097.5846521 3.02348652-.05011304.75169555-.7683999 1.18600853-1.20271288.88533031-.43431298-.30067822-.40090429-1.1358955-.25056518-1.78736496.1503391-.65146948-.31738256-1.20271288-.5846521-1.03566942-.1837478.53453905-.25056517 2.0212258.08352174 2.77292134.3340869.75169555 1.30667273.91267288 1.22836296 1.66232824-.06073765.58143838-.75822851.53387228-1.56244987.0749237-.08352173.68487816-.91537204.61788697-1.36975633-.05011304-.38419995 1.03566942-1.09610997.451846-1.36975633-.20045215-.60135644 1.48668675-1.41469908-.09416113-1.60361717-.65146947-.3340869-.98555639-.54700354-3.14957411-.61787407-4.80321994-.07087054-1.65364584.77957589-3.21279762 1.08668154-3.73251488.30710566-.51971727.35435268-2.29148066.35435268-3.04743304 0-.75595238-.30532544-3.04983877-.35543847-3.75142128-.05011304-.70158251-.10022608-2.63928659-.10022608-3.42439082 0-.78510424.78510424-1.20271288 1.18600853-1.43657371.4009043-.23386084.50113037-1.52009544.5846521-1.8708867.08352172-.35079125.81112003-1.19855417 1.248155-1.70645968.43703497-.5079055 1.99248802-2.11883543 2.37668796-2.436218.38419995-.31738256.65146947-.96885203.75169555-1.36975632.10022607-.4009043.21434343-.87148104.5686961-1.50931586.35435269-.63783482 1.15755205-1.03943448 1.67726931-1.39378715.51971727-.35435268 1.7717634-.82682292 2.14973959-.92131697.37797619-.09449405 1.63002232-.54334077 2.85844494-1.2047991 1.22842262-.66145834 1.22842262-2.43322173.47247024-3.77976191.2580569-1.04658278.90952642-.9964698 1.09327422-1.53100885.1837478-.53453906 1.10371238-2.79209383.70211268-3.57166972.89769345-1.01581101 2.92931548-.4015997 3.59077381-2.26785715 1.29929315.4015997 2.5985863.68508185 3.02380952-.44884672.5844594 1.05991345.85172893 1.8450177.83502458 2.41296544-.01670434.56794774-.50113036 1.40316502-.38419994 1.82077365.11693041.41760864 1.04664827 2.20258255 1.18695634 2.53271815.12439919.29270306.9872949 1.56261137-.4920406 1.34821905" style="opacity:1;fill:none;stroke:#000;stroke-width:.2645833194;stroke-linecap:round;stroke-linejoin:round;stroke-miterlimit:4;stroke-dasharray:none;stroke-opacity:1"/>
    <path id="path17367" d="M117.77354566 205.25971955c9.7300473.50302172 30.57775393.46772167 37.62698771-.78510424 1.03566942.3674956 4.66051239 2.22167795 5.26186882 2.2049736-1.48668674.41760864-5.56254704 1.78736497-6.08038175 1.80406932-2.47224312.11693041-35.16840885-.71656783-36.65344153-.73330135" style="fill:#fff;stroke:#000;stroke-width:.2645833194;stroke-linecap:round;stroke-linejoin:miter;stroke-miterlimit:4;stroke-dasharray:none;stroke-opacity:1"/>
    <path id="path17365" d="m116.32906932 202.95451988 2.33860837.01670434.53453905 7.7508163-2.2049736-.0334087z" style="fill:#fff;stroke:#000;stroke-width:.2645833194;stroke-linecap:butt;stroke-linejoin:round;stroke-miterlimit:4;stroke-dasharray:none;stroke-opacity:1"/>
    <path id="path17382" d="M90.41531207 201.61346804c.1572401.38456364-.51602998.40818716-.51602998.66804579s1.03943452 1.42922247-.05905878 1.61821056c-1.0984933.1889881-2.59858631-.03543527-3.31910343-.93312872" style="fill:#fff;stroke:#000;stroke-width:.2645833194;stroke-linecap:round;stroke-linejoin:miter;stroke-miterlimit:4;stroke-dasharray:none;stroke-opacity:1"/>
    <path id="path18946" d="M136.18955397 246.23305799c-.09449404 4.937314.21261161 7.93750002.68508185 8.97693455.47247024 1.03943452 1.93712798 4.22860864 2.1497396 4.86644346.2126116.63783483.70870535 1.70089286.92131696 2.3623512.2126116.66145833.63808693.86853311 1.27285206.96875918.63476513.10022608 1.67043455.75169555 2.27179099 1.5033911s3.47450387 2.70610397 4.05915596 3.27405172c.5846521.56794775 2.62258225 1.38646068 3.1571213 1.92099973.53453906.53453906 1.57020848 1.18600853 1.41986937 2.43883445-.15033911 1.25282591-.918739 2.25508664-1.72054759 2.77292135-.80180858.51783471-1.67043455.4009043-1.80406931 1.35305199-.78510424.31738256-.83521728.7349912-.71828686 1.06907811-.4009043.56794775-.0334087 1.60361717.96885204 1.2862346 1.00226073-.31738256 2.13815623-.76839989 2.62258225-1.13589549.48442601-.3674956 2.40542575-1.4699824 2.87314742-1.93770408.46772168-.46772167 2.22167796-1.40316502 2.67269529-1.90429539.45101732-.50113036 1.08578245-.81851293 1.20271287-1.97111277.11693042-1.15259984-.13363476-1.98781711-1.41986937-2.68939962-1.2862346-.70158252-3.84199946-2.38872141-4.76073847-3.64154733-.918739-1.2528259-2.58917355-4.4433559-3.29075606-5.47902532-.70158251-1.03566943-1.58691283-1.60361717-2.03793016-1.83747801-.45101732-.23386084-1.1358955-1.4699824-1.11919115-2.37201706.01670435-.90203466.50113037-2.65599094.66817383-3.05689523.16704345-.4009043.11693041-1.00226073.16704345-1.20271288.05011304-.20045214 1.68912728-2.39941766.46070466-5.8248269-1.22842263-3.42540923-10.70145093.25985864-10.70145093.25985864z" style="fill:#fff;stroke:#000;stroke-width:.2645833194px;stroke-linecap:butt;stroke-linejoin:round;stroke-opacity:1"/>
    <path id="path18940" d="M156.24591563 222.65679305c-.51971726 3.68526786-.94494047 5.3389137-1.65364583 6.26023067-.70870536.92131696-.968564 1.44103423-1.29929316 2.07886905-.33072917.63783482-.89769346 2.05524554-1.41741072 2.33872769-.51971726.28348214-.68508185 2.00799851-1.13392857 2.45684524-.44884673.44884673-1.39378721 1.15755209-1.3701637 2.19698661.02362351 1.03943453-.14174107 3.3545387-.23623512 4.25223216-.09449405.89769345-.46655607 3.41014266-1.60245156 4.07831648-1.1358955.66817382-4.04245162 2.5724692-6.88219035 2.07133884-2.83973874 2.00452146-5.67947747 4.00904292-5.9133383 4.14267769-.23386085.13363476-1.31964323.93544332-1.93770402 1.16930416-.61806078.23386084-1.97111277.65146948-2.33860837.918739-.3674956.26726953-.80180858.88533032-.80180858 1.60361717 0 .71828686.36468 2.15086533.08119786 2.85957069-.28348215.70870536-1.13392858 2.66945685-1.3937872 3.1655506-.25985864.49609375-1.65364585 2.92931549-2.7403274 3.7561384-1.08668155.82682292-2.00799851 1.88988096-2.74032738 2.3387277-.73232888.44884672-.87406995 1.15755208-.85044644 2.1733631.02362352 1.015811.23623512 2.3859747-.66145833 2.92931548-.89769346.54334077-1.27566965.87406994-2.81119792.47247024-1.53552828-.4015997-2.36406002-.18898211-2.73155562.04487873-.3674956.23386083-1.62032158 1.05237378-2.15486063 1.353052-.53453906.30067821-2.57861354.82267939-3.14557782.72818534-.5669643-.09449405-1.5591518-.35435268-1.65364584-.63783482-.09449405-.28348214-.23623512-.5905878-.09449405-.7795759-.10088154-.27962668-.01735981-.81416573.2833184-.96450484-.01670434-.28397388.2171565-1.25282592.93544335-1.00226073.5512434-.5512434 1.2862346-.85192162 2.0546345-1.06907812.7683999-.21715649 1.97111277-.8853303 2.2383823-1.58691282.26726953-.70158251.50113037-1.43657371 1.16930419-1.92099973.66817382-.48442602 1.00226073-.93544335 1.5033911-1.01896508.50113036-.08352173 1.60361716-1.41986937 2.15486056-2.2049736.5512434-.78510425 2.03938587-4.0993066 2.60635016-5.0678706.56696429-.96856398.82682292-1.91350446.82682292-2.36235119 0-.44884673.42522321-1.51190476.7795759-2.12611607.35435267-.61421132.66145833-1.06305804.63783482-2.00799852-.02362352-.94494048-.21261161-2.62220983.07087053-3.26004465.28348215-.63783483.7413188-1.42894716 1.1422231-1.79644276.40090429-.3674956 1.08578245-.98555639 1.35305198-1.25282592.26726953-.26726952 1.5033911-2.10474753 1.82077366-2.68939962.31738257-.5846521 2.35531272-2.6058779 2.90655612-2.87314743.5512434-.26726953 1.57020848-.71828686 1.82077366-1.92099973.25056518-1.20271288.03340862-3.90881682.33408684-4.7440341.30067822-.83521727.0010689-1.33047936.52078616-2.06280823.51971726-.73232887.7795759-1.84263393.9921875-2.59858631.2126116-.75595239 2.31510417-4.41759674 3.00018602-4.98456103.68508185-.56696429 10.25260411-8.5753348 10.25260411-8.5753348l9.59114586.42522321z" style="fill:#fff;stroke:#000;stroke-width:.2645833194px;stroke-linecap:butt;stroke-linejoin:round;stroke-opacity:1"/>
    <path id="path18919" d="M137.98494088 228.51542401c-1.32291667-1.22842262-2.22061012-3.66164435-1.22842262-6.04761906-2.22061012 1.48828125-2.952939 1.70089286-3.99237352 1.72451637-1.03943453.02362352-5.6774766.56136955-6.27883304.37762175-.60135644-.1837478-3.27405172-1.67043455-3.65825167-1.85418235-.38419994-.1837478-2.7896257-1.4699824-3.25734737-1.48668675-.46772168-.01670435-1.8708867.1503391-2.62258225-.25056519-.75169555-.40090429-3.50701846-.825808-3.83774763-1.03841961-.33072916-.2126116-2.49319932-1.3168931-2.57672104-1.93495389-.08352173-.61806078.50113036-.65146947 2.9733735.16704346-1.80406932-1.05237377-4.32550307-1.4130628-3.97563423-2.58917356.29522433-.9924191 1.85418235.50113037 3.8587038 1.3196433-1.92099973-1.52009544-3.80859077-2.73951267-3.20723433-3.49120821.60135644-.75169555 2.43883444 1.62032151 4.2596081 2.47224313-1.2862346-1.4699824-2.99007784-3.35757345-2.13815622-3.84199947.85192162-.48442602 2.28849534 1.38646068 2.73951266 2.0880432.45101733.7015825 1.41986937 1.67043454 1.78736497 1.36975632.3674956-.30067821.20045215-.58465209-.56794774-1.80406931-.7683999-1.21941722-.30067822-2.2383823 1.0690781-.71828686 1.36975634 1.52009544 1.97111278 2.0880432 2.03793016 2.53906052.06681738.45101733-.06681738 1.05237377.918739 1.52009544.98555639.46772168 4.109269 2.0212258 4.86096455 2.07133885.75169555.05011303 1.73725193.45101732 2.35531272.21715649.61806078-.23386084 1.80406931-.60135644 2.4221301-1.30293895.61806078-.70158251 4.82755585-2.55576487 5.93004265-3.05689523 1.1024868-.50113037 3.9255212-1.67043455 4.51017329-2.13815623.5846521-.46772167 1.45327806-1.1024868 1.52009544-3.45779952 1.53163038-.342962 5.64212146-.342962 6.79967355.34211984.92131696 1.70089286 1.7717634 2.74032739 3.09468006 3.3545387 1.32291667.6142113 4.46484376 1.60639881 5.22079615 1.7717634.75595238.16536458 1.84263393.28348214 2.24423363.94494047.4015997.66145834 3.23642114 5.07905508 3.89787948 5.95312502.66145833.87406994 2.26785715 2.78757441 2.71670388 3.47265626.44884672.68508185 1.1811756 1.32291667 1.2047991 2.19698661.02362352.87406994-.30710565 1.60639882 0 2.5749628.30710566.968564.73232888 2.5513393.35435269 4.1341146-.3779762 1.5827753-.07087054 3.51990328-.02362352 4.25223215.04724703.73232888.09449405 2.64583334.28348215 3.3545387.1889881.70870536.85044643 2.7639509 1.06305804 3.28366817.2126116.51971726.42216101 2.51707843.23841321 3.0182088-.1837478.50113036-.93544335.53453905-1.1358955-.08352173-.20045214-.61806079.10022608-1.85418235-.83521727-3.44109518.28397387 1.3196433.2156776 3.14135177-.11693042 3.65825167-.47214691.7337547-1.58583667.46517093-1.5033911-.7683999-1e-7 7e-8-.34798348.84059415-1.21941722.78510425-.63141429-.0402063-.93544334-.7349912-.7349912-1.15259984-.70158251.75169554-1.58691282.71828685-1.70384324.16704345-.11693042-.5512434.28397387-1.00226073.65146947-1.52009544s.81851293-1.1358955.7349912-2.33860837c-.08352172-1.20271288-.7349912-1.35305199-1.0690781-.31738257-.33408692 1.03566942-.86862597 2.17156492-1.55350414 1.98781712-.68487816-.1837478-.46772167-1.78736497-.23386084-2.33860837.23386084-.5512434.918739-1.63702586 1.40316503-2.17156492.48442602-.53453906 1.75395628-.90203466 1.70384324-2.25508664-.05011304-1.35305199-.22452546-2.41900849-.22452546-2.96234926 0-.54334078.33072917-2.10249257.16536458-2.7403274-.16536458-.63783481-.5905878-2.69308036-1.96075149-3.26004464-1.3701637-.56696429-3.33091519-1.984375-3.89787948-3.00018602-.56696428-1.01581102-2.1733631-3.07105656-2.3859747-4.1577381" style="fill:#fff;stroke:#000;stroke-width:.2645833194px;stroke-linecap:round;stroke-linejoin:round;stroke-opacity:1"/>
    <path id="path18921" d="M164.2872456 243.47926219c.1837478 1.21941722.20045214 2.25508664-.85192163 3.54132125" style="fill:none;stroke:#000;stroke-width:.2645833194px;stroke-linecap:round;stroke-linejoin:miter;stroke-opacity:1"/>
    <path id="path18921-8" d="M165.53583065 244.18104571c.1837478 1.21941722.2381017 2.23818129-.14609825 3.20703333" style="fill:none;stroke:#000;stroke-width:.2645833194px;stroke-linecap:round;stroke-linejoin:miter;stroke-opacity:1"/>
    <path id="path18938" d="M141.88671826 209.36898865c1.47257167.4484256 5.13421587.90908417 6.79967355.34211984" style="fill:none;stroke:#000;stroke-width:.2645833194px;stroke-linecap:butt;stroke-linejoin:miter;stroke-opacity:1"/>
    <path id="path18942" d="M108.76265658 274.62851937c.54334083-.24804688 1.358352-.40159971 1.73632819-.28348215" style="fill:none;stroke:#000;stroke-width:.2645833194px;stroke-linecap:round;stroke-linejoin:miter;stroke-opacity:1"/>
    <path id="path18944" d="M109.04597499 273.66401453c.93329252-.3938471 1.5002568-.3702236 1.76011543-.31116481" style="fill:none;stroke:#000;stroke-width:.2645833194px;stroke-linecap:round;stroke-linejoin:miter;stroke-opacity:1"/>
    <path id="path18948" d="M147.8835783 277.73987483c.4484609-.28834579 1.1453545-.19385174 1.1453545-.19385174" style="fill:none;stroke:#000;stroke-width:.2645833194px;stroke-linecap:round;stroke-linejoin:miter;stroke-opacity:1"/>
    <path id="path18950" d="M148.60186516 276.67079672c.6278675-.09333762.86410262-.01065533.93497315.04840345" style="fill:none;stroke:#000;stroke-width:.2645833194px;stroke-linecap:round;stroke-linejoin:miter;stroke-opacity:1"/>
  </g>
</svg>