<svg xmlns="http://www.w3.org/2000/svg" fill="none" aria-hidden="true" viewBox="0 0 28 20"><path fill="#D6D6D6" d="M0 0h28v20H0V0z"/><path fill="#333" d="M7.1 7.1l1.4 2.4h.1L10 7.1h1.4l-2 3.3 2.1 3.3H10l-1.5-2.4L7 13.7H5.7l2.1-3.3-2-3.3h1.3zm4.8 6.6V7.1h2.5c.5 0 .9.1 1.3.3.3.2.6.4.8.8.2.4.3.7.3 1.1 0 .4-.1.8-.3 1.1-.2.3-.4.6-.8.8-.3.2-.8.3-1.3.3h-1.6v-1h1.5c.3 0 .5-.1.7-.2.2-.1.3-.2.4-.4.1-.2.1-.4.1-.6 0-.2 0-.4-.1-.6-.1-.2-.2-.3-.4-.4-.2-.1-.4-.1-.7-.1h-1.1v5.6h-1.3v-.1zm5.5 0V7.1h4.2v1h-3v1.8h2.7v1h-2.7v2.8h-1.2z"/></svg>