<svg xmlns="http://www.w3.org/2000/svg" fill="none" aria-hidden="true" viewBox="0 0 28 20"><path fill="#009F60" d="M0 0h28v20H0V0z"/><path fill="#EA8B42" d="M24 10.667h4V20h-4v-9.333z"/><path fill="#1A1919" fill-rule="evenodd" d="M20 20h4v-9.333h-4V20z" clip-rule="evenodd"/><path fill="#DB3C36" fill-rule="evenodd" d="M16 20h4v-9.333h-4V20z" clip-rule="evenodd"/><path fill="#EA8B42" fill-rule="evenodd" d="M21.014 3.484c-.092.003-.16-.03-.183-.083.15-.088.25-.068.376.044a.27.27 0 00-.053-.244c-.053-.058-.096-.058-.169-.063-.072-.005-.145-.024-.193-.024-.071-.156-.248-.09-.419-.026-.277.104-.526.292-.638.48-.05.087-.057.12-.088.17.026-.004.024-.004.04-.013-.02.214-.045.412-.006.54-.049.184-.01.301.048.36.058.058.082.083.092.151a.26.26 0 00.087.17c.048.04.077.098.082.132.005.034.154.181.217.22.024.014.03.044.058.082-.063.371.189.742.13 1.107.044.005.102 0 .16-.014.048.312.077.463-.193.555-.27.093-.419.184-.343.288.053.073.163.01.232-.054a.495.495 0 01.164-.107c.048-.015.058 0 .034.063-.024.064-.155.2-.16.269-.005.068.053.117.145.063a.52.52 0 00.194-.278c.014-.058.038-.097.033 0-.005.098-.062.273.068.302.13.03.17-.126.126-.268-.044-.141-.058-.22-.039-.268.02-.049.039-.078.087-.063.048.014.145-.005.14-.083-.005-.078-.072-.142-.15-.098-.077.044-.135.038-.101-.058.024-.068.067-.151.072-.205.053.078.353.088.474.015.029.146.106.278-.063.414-.17.137-.304.268-.3.366.005.097.044.156.13.107a.328.328 0 00.16-.18c.02-.064.058-.064.039.014-.02.078-.053.19-.039.259.015.068.121.073.165.01.043-.064.033-.147.024-.23a.408.408 0 01.024-.205c.02-.034.058-.083.096.01.04.093.058.166.136.19.077.025.135-.01.12-.102-.014-.093-.115-.195-.217-.273-.101-.078-.067-.117-.063-.19.005-.073-.01-.205-.014-.263.092.068.193.058.241.058.049 0 .128-.015.049-.088-.16-.146-.107-.234-.218-.341a.937.937 0 01-.246-.414c-.034-.142-.108-.4-.256-.532-.082-.073-.106-.273-.087-.502.02-.23.024-.482-.184-.6-.207-.116-.203-.214-.135-.316.068-.103.155-.203.266-.21.025-.002.083-.006.106-.024a.084.084 0 00-.058-.02z" clip-rule="evenodd"/><path fill="#EA8B42" fill-rule="evenodd" d="M19.663 4.01a.778.778 0 00.018.254c-.049.185-.01.302.048.36.058.06.082.084.092.152a.26.26 0 00.087.17c.041.033.07.08.082.132.005.034.154.181.217.22.024.014.03.044.058.082-.026.154.002.308.04.462-.342.286-.68.151-.537-.141-.284.227-.773.22-.664 0-.444.156-.58.026-.522-.117-.373.15-.567.006-.515-.098-.31.085-.509.033-.541-.02-.032-.051.045-.168.116-.227a.8.8 0 01-.406.033c-.129-.02-.096-.059-.07-.117.025-.059.059-.151.162-.242-.246.048-.556.082-.773.01-.041-.015-.111-.03-.068-.074.044-.044.174-.151.334-.22-.363.054-1.049.093-1.242-.126.188.039.43-.039.585-.102-.61-.069-1.44-.488-1.45-.897.174.282.474.38.773.468-.406-.24-.575-.527-.59-.717.233.224.585.478.933.536-.246-.131-.565-.517-.652-.785.179.161.638.42.952.502-.218-.17-.57-.575-.551-.799.082.083.285.239.7.483.416.243.641.225.985.299a.872.872 0 01-.124-.226c.101.014.197.053.487.234.29.18.924.235 1.286.395.265.117.644.044.75.117V4.01zm2.187 2.504c.015-.012.015-.034-.024-.07-.16-.147-.107-.235-.218-.342a.939.939 0 01-.246-.414c-.034-.142-.108-.4-.256-.532-.082-.073-.106-.273-.087-.502.016-.196.022-.41-.106-.54.241-.07.463-.084.54-.006.402-.102.75-.133 1.091-.156.393-.026 1.134-.195 1.662-.552-.032.13-.213.325-.374.422.535-.13 1.18-.37 1.727-.78-.007.286-.239.5-.374.618.374-.208.921-.468 1.108-.793.082.333-.477.768-.78 1.009.31-.15.71-.288.864-.509-.003.27-.355.605-.69.8.342-.13.722-.267.94-.468.027.271-1.02.895-1.539 1.066.451-.11 1.037-.26 1.295-.416-.013.055-.118.132-.194.189-.315.233-.799.358-1.094.415.039.163-.013.254-.193.267-.18.013-.617-.057-.836-.168a.278.278 0 01-.115.031c.213.161.285.278.242.346-.043.069-.196.056-.312.032.092.258-.215.241-.47.095.1.132.115.244-.025.273A.464.464 0 0123 5.761c-.01.097-.103.162-.227.13.425.258.4.352.328.45-.072.097-.326.078-.461-.01-.058.2-.29.2-.462.042-.001.08-.166.237-.329.141" clip-rule="evenodd"/><path fill="#000" fill-rule="evenodd" d="M19.877 7.495c.007-.062.013-.133.065-.18.051-.045.083-.084.128-.04.046.047.017.09-.045.109a.18.18 0 00-.112.11c-.01.037-.042.056-.036 0zm.351.299c-.032-.103-.016-.234.02-.273.035-.04.08-.065.122-.026.042.039.058.094-.02.126-.068.03-.074.1-.077.153-.003.052-.026.08-.045.02zm.452-.264c-.026.042.006.212.09.254.059.03.086.023.05-.033a.122.122 0 01-.002-.136.078.078 0 00-.026-.107c-.042-.026-.094-.01-.113.022h.001zm.363-.152c-.053-.04-.103.008-.122.042-.039.068-.01.166.051.22.061.056.052-.02.032-.051-.019-.033-.022-.098.02-.104.042-.006.07-.068.02-.107h-.001zm.303.11c-.052-.015-.103.04-.097.104.005.049.01.11.058.143.033.022.055.036.039-.023-.016-.058.01-.107.038-.123.03-.016.017-.085-.038-.1v-.001zm.428-.276c-.037.026-.035.088 0 .11.036.023.087.056.078.11-.01.056.019.076.045.014.025-.062.029-.153 0-.195-.03-.042-.09-.062-.123-.04" clip-rule="evenodd"/><path fill="#000" fill-rule="evenodd" d="M20.84 3.397c.023.05.087.08.174.076.027 0 .044.007.064.04-.02.016-.06.022-.111.026-.093.006-.173.077-.258.205-.076.115-.05.2.132.301.18.101.216.278.189.61-.02.241.009.427.083.493.123.11.202.3.26.537.032.137.13.301.243.41.024.023.045.05.06.08.01.02.018.039.025.06.035.093.06.134.132.2.04.037.048.068.023.088-.016.013-.046.02-.08.02h-.017a.362.362 0 01-.21-.049l.004.055.006.065a.994.994 0 01-.002.16c-.005.028-.006.036-.005.05.002.029.02.057.068.093.124.096.208.195.22.28.016.097-.044.143-.133.115-.055-.018-.083-.053-.116-.13l-.011-.03a2.603 2.603 0 00-.015-.037c-.016-.037-.03-.05-.043-.046-.011.003-.023.017-.035.038a.404.404 0 00-.023.198c.015.127.013.18-.026.236-.048.071-.166.065-.183-.013a.376.376 0 01.01-.147l.014-.058.015-.058c.007-.03.005-.047.003-.048-.003 0-.014.014-.021.04a.34.34 0 01-.165.185c-.09.05-.14 0-.146-.116-.005-.09.097-.208.303-.374a.285.285 0 00.083-.1c.03-.062.025-.11-.007-.233a1.584 1.584 0 01-.014-.057c-.122.063-.377.057-.458-.008a.702.702 0 01-.042.114 1.38 1.38 0 00-.028.071c-.014.041-.011.063.003.069.015.006.046-.002.083-.023.08-.045.16.014.166.106.005.077-.085.115-.154.094-.036-.01-.053.003-.074.057-.017.043-.006.114.039.261.05.164-.007.311-.138.282-.08-.018-.102-.082-.09-.193l.005-.048a.724.724 0 00.009-.11.28.28 0 00-.013.04.525.525 0 01-.198.285c-.092.054-.167.012-.161-.073.002-.032.024-.072.07-.136l.013-.018a.555.555 0 00.077-.117c.02-.056.018-.061-.02-.05a.484.484 0 00-.161.105c-.095.088-.197.123-.248.052-.04-.055-.024-.11.044-.163.06-.045.16-.09.304-.14.23-.08.247-.155.2-.536a.317.317 0 01-.173.003c.024-.15.005-.27-.066-.543-.072-.28-.091-.407-.062-.556a.292.292 0 01-.02-.03l-.014-.026a.06.06 0 00-.021-.024c-.07-.042-.218-.19-.223-.227a.226.226 0 00-.078-.125.275.275 0 01-.09-.177c-.01-.058-.021-.077-.09-.146-.071-.072-.095-.2-.05-.365-.03-.098-.028-.192 0-.486l.004-.037a.066.066 0 01-.012.002l-.015.002-.01-.016a.326.326 0 00.017-.03l.005-.01.005-.009.023-.05a.872.872 0 01.038-.07c.114-.19.365-.381.643-.485.264-.1.37-.107.423.025a.51.51 0 01.103.013.92.92 0 00.09.011l.017.001c.062.004.088.01.12.03.013.01.026.021.04.036a.28.28 0 01.056.254l-.018.005c-.126-.113-.223-.125-.36-.056zm.226.116a.07.07 0 00-.052-.018c-.094.002-.167-.03-.19-.103.146-.085.25-.075.377.033a.2.2 0 01-.004.017l.018-.005-.014-.012a.256.256 0 00-.055-.216.19.19 0 00-.036-.033c-.028-.017-.05-.022-.11-.026l-.016-.001a.946.946 0 01-.092-.012l-.032-.005-.078-.014c-.055-.122-.152-.115-.405-.02-.274.102-.522.29-.632.476a1.021 1.021 0 00-.038.068l-.023.05a.405.405 0 01-.005.01l-.005.01-.006.011a.039.039 0 01-.008.002l-.015.002.01.016a.335.335 0 00.013-.02.116.116 0 00.014-.008l.016.01-.006.058c-.027.29-.03.384-.001.484-.042.162-.02.284.046.35.07.072.085.094.094.158.01.069.04.128.084.163.045.037.08.096.085.14a.9.9 0 00.213.21.079.079 0 01.028.032l.008.015.006.01.005.008c.004.008.01.016.016.03-.026.153-.008.277.064.554.072.277.09.399.057.54.04.004.09 0 .153-.005l.016-.001c.062.4.042.485-.2.567a1.1 1.1 0 00-.3.14c-.06.044-.071.087-.04.132.04.055.13.024.217-.056a.5.5 0 01.169-.11c.06-.017.073.01.047.078a.548.548 0 01-.08.122l-.012.018c-.044.061-.065.1-.067.125-.005.068.052.1.129.054a.506.506 0 00.188-.272c.008-.032.018-.057.029-.064.012-.009.022 0 .025.016a.727.727 0 01-.007.126l-.006.047c-.01.102.007.155.073.17.11.024.16-.104.113-.255-.046-.15-.058-.225-.038-.275.025-.063.05-.085.1-.07.057.018.13-.014.126-.071-.005-.078-.07-.126-.133-.09-.043.025-.08.034-.102.024-.028-.011-.033-.045-.015-.095.006-.019.013-.035.028-.072a.468.468 0 00.044-.13l.02-.005c.049.073.342.082.458.012l.016.007.017.07c.033.127.038.18.006.247a.306.306 0 01-.09.108c-.2.161-.3.275-.295.356.005.102.043.14.115.1a.318.318 0 00.154-.176c.01-.034.028-.056.046-.053.02.004.024.033.013.074l-.015.058-.013.057a.357.357 0 00-.01.138c.012.058.106.063.145.006.034-.05.036-.1.022-.22v-.002a.42.42 0 01.025-.21c.015-.026.03-.043.048-.049.026-.007.049.012.068.06l.016.037.01.028c.03.072.056.103.103.118.075.024.12-.01.107-.09-.012-.079-.093-.174-.213-.267-.052-.04-.074-.072-.076-.11a.197.197 0 01.004-.054.954.954 0 00-.003-.22l-.007-.076.017-.01c.013.01.026.018.04.025a.343.343 0 00.177.032h.018a.12.12 0 00.066-.015c.01-.01.007-.025-.024-.055a.449.449 0 01-.138-.21.473.473 0 00-.024-.057.275.275 0 00-.056-.074.948.948 0 01-.25-.42c-.056-.234-.133-.42-.252-.526-.081-.072-.112-.263-.09-.51.026-.325-.01-.494-.18-.59-.19-.108-.221-.206-.138-.332.088-.134.173-.208.274-.215.015 0 .028-.002.04-.003a.198.198 0 01.06-.001z" clip-rule="evenodd"/><path fill="#000" fill-rule="evenodd" d="M19.402 3.96c.165.006.225.013.267.042l.005.01a.8.8 0 00.017.255c-.042.162-.02.284.046.35.07.072.085.094.094.158.01.069.04.128.084.163.045.037.08.096.085.14a.9.9 0 00.213.21.08.08 0 01.028.032l.014.025.005.008c.004.008.01.016.016.03-.023.132-.008.264.035.467-.161.136-.336.188-.46.15-.111-.037-.155-.139-.109-.267a.823.823 0 01-.454.147c-.151 0-.237-.062-.203-.16-.367.122-.57.052-.52-.118-.304.113-.555.035-.516-.1-.26.067-.487.043-.532-.03-.028-.045.015-.137.082-.207a.825.825 0 01-.365.017c-.062-.01-.093-.024-.1-.049-.007-.019-.005-.024.018-.076l.003-.007.021-.047a.545.545 0 01.117-.173c-.3.056-.558.064-.741.002l-.028-.009a.124.124 0 01-.051-.026c-.015-.016-.013-.035.007-.055.058-.06.162-.135.272-.192-.523.07-1.023.039-1.181-.14l.01-.017c.147.03.336-.008.54-.087-.668-.089-1.408-.524-1.418-.902l.02-.006c.136.22.316.325.689.44-.322-.209-.509-.468-.525-.682l.018-.009c.264.255.578.454.866.521-.239-.155-.522-.506-.603-.758l.017-.012c.182.164.604.395.897.486-.266-.224-.53-.586-.514-.776l.019-.007c.101.103.335.268.698.481.225.132.396.193.622.234l.11.02c.12.02.165.027.222.038a.828.828 0 01-.11-.208l.012-.012c.113.016.22.067.492.236.13.081.29.129.679.22l.018.003c.313.073.452.112.587.17.07.032.152.051.25.062.066.008.114.01.235.015zm.25.056V4.01l.005.01a.103.103 0 00-.005-.004zm-4.041.503c.156.021.35-.024.557-.108l-.003-.021c-.643-.072-1.373-.482-1.436-.843.146.215.347.315.755.435l.009-.02c-.345-.202-.55-.463-.581-.679.28.266.615.468.916.519l.007-.02c-.232-.124-.531-.478-.633-.741.21.173.644.404.925.478l.01-.019c-.264-.207-.54-.57-.548-.766.111.105.34.265.685.467.227.133.4.194.629.237l.111.02c.138.021.176.028.247.043l.011-.017a1.035 1.035 0 01-.118-.206c.104.018.212.07.468.23.134.083.294.131.685.222l.018.004c.312.073.45.111.583.17a.882.882 0 00.256.063c.067.007.115.01.237.014.153.006.214.013.25.035a.75.75 0 00.02.251c-.045.164-.021.293.05.365.069.07.081.088.09.146.01.074.041.138.09.177.04.032.067.076.078.125.006.037.154.185.223.227a.06.06 0 01.02.024l.014.025.02.03c-.024.129-.01.264.038.459-.153.12-.32.17-.436.133-.11-.035-.145-.14-.08-.273l-.017-.013a.797.797 0 01-.472.166c-.15 0-.222-.058-.175-.153l-.013-.014c-.383.134-.575.062-.509-.103l-.014-.014c-.314.125-.563.04-.501-.083l-.013-.015c-.26.071-.49.05-.529-.015-.025-.04.036-.15.114-.213l-.01-.019a.783.783 0 01-.401.032c-.055-.008-.08-.02-.084-.034-.004-.011-.002-.017.018-.061l.003-.007a.543.543 0 01.147-.227l.013-.011-.01-.019c-.313.062-.58.073-.767.01l-.027-.009a.11.11 0 01-.043-.02c-.006-.007-.005-.014.007-.026.068-.069.2-.162.33-.217l-.006-.021c-.515.076-1.026.058-1.208-.1zm0 0a.252.252 0 01-.024-.023l-.01.018a.5.5 0 00.034.005zm1.543-1.241a.097.097 0 01-.004-.015l-.012.012.016.003zm-1.565-.544V2.71l-.018.007a.687.687 0 00.018.017zm-.387.307a.729.729 0 01-.014-.038l-.017.011.03.027h.001zm-.29.242a.47.47 0 01-.003-.029l-.019.009.022.02zm-.183.264a.295.295 0 01-.004-.044l-.02.006.024.038z" clip-rule="evenodd"/><path fill="#000" fill-rule="evenodd" d="M21.844 6.524v-.018c.011-.01.006-.026-.026-.055a.447.447 0 01-.137-.21.49.49 0 00-.024-.057.277.277 0 00-.056-.074.948.948 0 01-.25-.42c-.056-.234-.133-.42-.252-.526-.08-.072-.112-.263-.09-.51l.005-.088.007.004h.001l.013.007-.005.078c-.02.241.01.427.083.493.123.11.202.3.26.537.032.137.13.301.243.41a.3.3 0 01.06.08c.01.02.018.039.025.059.035.094.06.135.132.201.033.03.044.057.033.076a.181.181 0 01-.01-.006v.018a.043.043 0 00.01-.012c.13.065.3-.04.302-.139l.018-.007c.174.16.39.147.444-.037l.016-.006c.138.09.382.1.447.012.09-.12.036-.214-.326-.434l.008-.02c.114.03.205-.025.214-.12l.016-.008c.125.08.231.097.38.066.12-.025.123-.118.017-.255l.014-.016a.673.673 0 00.36.103c.098-.01.136-.071.095-.185l.013-.015c.148.032.266.027.3-.026.04-.064-.038-.18-.24-.332l.006-.02a.365.365 0 00.12-.03c.2.101.63.181.83.167.17-.012.223-.091.193-.266.43-.084.827-.22 1.09-.414.04-.03.078-.06.116-.092a.37.37 0 00.06-.062.943.943 0 00.03-.017l-.016-.012a.091.091 0 01-.015.03c-.22.123-.607.237-1.267.399l-.006-.02c.587-.194 1.494-.78 1.531-1.032a1.12 1.12 0 00.02-.016l-.019-.007a.11.11 0 010 .023c-.153.133-.367.239-.725.377l-.1.039-.1.038-.01-.02c.36-.21.652-.518.681-.754a.528.528 0 00.023-.03l-.02-.006a.31.31 0 01-.003.036c-.1.124-.264.22-.582.362l-.01.005-.138.062-.115.053-.01-.018c.101-.08.201-.161.3-.246a2.24 2.24 0 00.37-.392c.085-.124.123-.235.11-.333a.969.969 0 00.014-.024l-.02-.003a.31.31 0 01.006.027c-.116.183-.339.351-.697.553a31.09 31.09 0 01-.4.22l-.013-.017c.228-.198.356-.37.37-.588l.017-.013-.017-.01v.023c-.488.36-1.087.616-1.713.769l-.006-.015-.002-.005c.152-.092.312-.265.36-.388l.025-.017-.016-.011a.303.303 0 01-.01.028c-.459.302-1.142.505-1.64.538a6.02 6.02 0 00-1.1.153c-.067-.068-.266-.065-.514.003a.37.37 0 00-.012-.013l-.005.018.018-.005c.085.096.112.222.104.423l-.02.004-.002.016c.01-.217-.017-.346-.11-.441l.005-.018c.262-.074.475-.08.541-.005a5.555 5.555 0 011.092-.157c.506-.033 1.201-.242 1.657-.55l.016.011c-.028.116-.174.287-.325.394.61-.155 1.19-.41 1.661-.763l.017.01c-.004.212-.112.38-.308.563l.022-.012.298-.164c.37-.209.595-.38.703-.569l.02.003c.027.11-.013.237-.109.377-.085.124-.21.253-.374.396a5.972 5.972 0 01-.229.19l.032-.015.138-.062.01-.004c.338-.153.502-.25.596-.385l.02.006c-.003.23-.26.529-.599.75l.095-.037c.37-.143.586-.25.737-.39l.018.008c.021.227-.763.762-1.369 1.01.576-.145.915-.252 1.108-.369l.015.012c-.006.029-.034.062-.08.103a1.242 1.242 0 01-.118.092c-.265.197-.664.333-1.09.405.042.174-.02.266-.203.28-.204.014-.638-.067-.83-.17a.235.235 0 01-.093.03c.194.15.271.269.223.344-.04.062-.155.07-.305.04.035.116-.012.185-.12.196a.654.654 0 01-.33-.084c.084.13.07.226-.059.253a.47.47 0 01-.38-.061c-.017.083-.09.135-.184.13.33.207.381.31.286.438-.072.096-.316.089-.464 0-.063.185-.282.2-.46.047-.023.11-.205.21-.342.13zm-.333-2.018a.24.24 0 00.011-.045l-.012-.012-.473.093v.015l-.013-.007-.003.02h.001l.014-.002v.01c.183.091.386.086.46-.041.161.088.416.045.498-.078.23.084.446.033.485-.178l-.014-.012-.453.155a.15.15 0 00.008-.058l-.51.14h.001zm-.005.012a.43.43 0 00.005-.012l-.022.006-.002.02.01.005.002-.005.021-.007c.152.073.38.032.462-.07l.012.004A.207.207 0 0022 4.451l.02-.006c.205.069.391.025.435-.15l.018-.006-.014-.012a.365.365 0 01-.004.018l-.436.15a.54.54 0 01-.013-.005.152.152 0 00.007-.016L22 4.428a.126.126 0 00.013-.051l-.492.148a.254.254 0 01-.014-.007zm.49-.082a.347.347 0 00.01.004.208.208 0 01-.007.011l-.01.004v-.01a.586.586 0 00.006-.009zm0 0a.703.703 0 01-.007-.002v.012a.215.215 0 01-.007.009v-.02L22 4.428a.206.206 0 01-.004.008zm-.49.082a.231.231 0 01-.007.014h-.003l.002-.019.008.005zm-.455.047l-.015.003v-.011l.015.008zm.447-.092c-.037.169-.25.19-.447.092l.447-.092zm0 0a.191.191 0 00.003-.015l.013.012-.016.003zm2.33-.654l-.965.311.005.021c.102-.017.263-.064.477-.137l.092-.032.4-.143-.008-.02zm0 0a40.61 40.61 0 01-.49.174 3.492 3.492 0 01-.474.137l.005.02.966-.311-.006-.02zm-2.813.743v.004-.004zM17.25 3.493c.068.1.247.246.36.281a.38.38 0 00.098.218l-.51-.164-.014.013a.328.328 0 00.058.117l-.352-.142c.03 0 .061-.001.096-.006l.006-.019-.082-.074.34-.224zm-.37.076l.37-.076.015-.014.343.263v.01a.404.404 0 01-.059-.028l-.216-.166a.58.58 0 01-.066-.077l-.015.015.081.062c.062.062.144.127.216.166l.06.047.001.003.01.003.01-.019-.022-.016v-.025l.016-.009.773.378c0 .005.002.01.003.014l-.015.004-.755-.369v-.016l-.015.009.015.007c0 .15.096.3.273.353.156.047.31.053.44.028-.034.01-.067.021-.099.034a.985.985 0 01-.348-.041.423.423 0 01-.153-.083l.006-.004-.004-.018-.037-.012a.389.389 0 00.02.02l-.01.006-.508-.163a.35.35 0 01-.006-.02l-.013.014.02.006a.31.31 0 00.115.154l-.05-.012.005-.002.001-.02-.04-.017a.281.281 0 00.017.021l-.014.004-.419-.17.002-.003c.02.004.04.006.063.006l-.066-.027-.014.006-.005.01a.249.249 0 01-.02-.006l.022-.015a.43.43 0 00.152.007l.018.016.005-.018a.806.806 0 01-.023.002l-.068-.062.018-.012-.14-.126.057-.012.047.007.005-.017h.001zm-.005 0h.004l.001-.004-.976-.503-.012.017c.233.222.505.391.79.469a.203.203 0 00-.016.064l-.13.026-.407-.144-.01.018c.076.063.18.11.314.147l-.6.122-.006.021.398.124c-.004.037.017.079.067.118.02.015.041.028.063.039-.05.024-.07.064-.06.106l-.805-.228-.008.02c.207.132.467.202.824.235.01.018.025.036.045.054a.117.117 0 00-.03.092.44.44 0 00-.162.03l.006.021.161-.026a.209.209 0 00.062.09c.26.235.9.23 1.506.02.014.03.05.05.106.067a.859.859 0 00.07.016l-.746.323.005.02c.227-.033.545-.18.78-.336a1 1 0 00.19.01.219.219 0 00-.012.172l-.789.28.007.02c.26-.076.6-.195.79-.28a.167.167 0 00.134.094l-.79.346.006.02c.185-.047.551-.208.832-.362.08.004.17-.005.26-.023a.31.31 0 00-.03.103l-.756.355.008.02c.23-.059.435-.162.747-.348 0 .05.016.095.048.13l-.692.35.007.02c.075-.016.165-.05.267-.1.056-.027.114-.058.175-.093.087-.05.156-.093.26-.16.047.04.106.061.167.062l-.566.265.007.02c.125-.026.245-.075.375-.147l.141-.083.095-.056a.697.697 0 00.213-.054.303.303 0 00-.055.134l-.578.289.008.02c.102-.036.395-.186.57-.285a.14.14 0 00.032.071.09.09 0 00.067.038l-.397.185.01.02c.162-.067.322-.141.478-.222a1.51 1.51 0 00.397-.234.25.25 0 00-.004.138l-.636.386.01.02c.17-.066.485-.263.634-.383a.177.177 0 00.083.082l-.442.281.01.02c.168-.072.363-.198.457-.29l.004.002a.343.343 0 00.29-.011l-.38.285.012.018c.185-.11.404-.272.476-.359l-.014-.015-.004-.016-.447-.195.078-.061.09-.072-.008-.019-.292.054.204-.157-.012-.017c-.087.06-.173.122-.257.186l-.265.05c.157-.087.323-.221.473-.39l-.01-.018-.386.055.052-.034.117-.079.113-.074-.01-.018-.37.219-.343.049c.21-.076.411-.194.534-.319.052-.007.106-.017.161-.03h.003l.005-.002v-.021l-.642-.123c.04-.003.083-.008.126-.015V4.27l-.735-.216-.014.01.001.022.024.012V4.1l-.002-.002h-.007L18.4 4.1v.002l-.012.003-.003-.001.003.001.016.008.003.008a.659.659 0 00-.06.016.826.826 0 01-.103.013 1.193 1.193 0 00-.127.06l-.493-.125a.328.328 0 00.12-.059l-.006-.004-.003-.016-.008.006.011.01v.002l-.02-.006a.315.315 0 01-.144.054l-.248-.063a.35.35 0 00.081.043l-.09-.023a.346.346 0 01-.04-.032l-.003-.003v-.02l-.015.005.015.015-.029-.01-.01.002-.42-.106a.153.153 0 01.011-.067l-.01-.004h.003l.01.001.001-.006-.01.004-.014-.002a.18.18 0 00-.014.069 5.735 5.735 0 00-.095-.017l.088-.059a.173.173 0 01-.098-.077l-.004-.008.006-.02-.016-.007a.202.202 0 01-.007-.075l.022-.004a.17.17 0 00.018.104c.02.034.053.059.102.072l.084-.055-.147-.133.026-.005-.03-.029a.888.888 0 00.086.017l.024-.005.02.01.004-.014v-.001zm-.062-.014l.064.01-.002.005-.024.004-.038-.019zm-.107-.023c.036.01.072.017.107.023l-.847-.437a2.015 2.015 0 01-.06-.054l-.01.017.07.037c.221.197.474.345.738.414l-.015.002a.149.149 0 00-.007.014l.014.004.005.005a.18.18 0 00-.013.05l.057-.011-.044-.04.002-.002.037.008-.034-.03zm-.003.022a.126.126 0 01.005-.01l-.017.003.005.005.007.002zm.003-.022h-.002.002zm-.032.158v-.003l-.139-.049-.04.009-.3-.107a.515.515 0 01-.063-.045l-.01.019.074.026c.074.045.17.08.284.11l-.047.01c.074.02.157.038.25.054v-.002l.004-.02-.014-.002h.001zm-.127-.025l-.053-.018-.014.003.067.015zm0 0c.04.01.082.018.127.025a.158.158 0 00.008.022v.002l-.135-.049zm.123.21l.027-.017c-.206-.036-.338-.044-.398-.018a.125.125 0 00-.069.063 1.966 1.966 0 00-.198-.065l-.199-.057-.006.021.26.075.048.015.09.034.023.028c.01.03.03.055.057.073l.01.006.04.05a.592.592 0 00.024.011l.002.001c-.084.03-.088.102-.01.164h-.003l-.01.002a.12.12 0 00-.007.009c.005.004.01.009.017.013-.046.053-.03.12.035.178.247.223.86.224 1.45.027l.04.006.001.002.008-.002-.002-.021v-.02l-.01-.002a.223.223 0 01.026-.075.423.423 0 01.146-.135l.056-.01V4.21l-.005.001V4.21l-.047.009-.493-.125a.36.36 0 00.05-.01l-.049-.012a.355.355 0 01-.092-.001l-.075-.02c.024.01.05.016.075.02l.09.023a.38.38 0 01-.255-.065l-.082-.02.04-.012-.04-.01-.045.01-.373-.094a.112.112 0 01-.003-.023l-.005-.002-.017-.003c0 .008 0 .015.002.022a5.436 5.436 0 00-.124-.022zm-.294.194a.433.433 0 01-.062-.036l-.066-.079c-.01-.038.01-.073.06-.095.052-.022.175-.015.362.016l-.294.194zm.01.005h-.008a.192.192 0 00-.023.009l.02-.014.01.005h.001zm0 0c.12.057.31.1.521.13l-.52-.13zm.688.172l-.167-.041c.4.056.882.062 1.16.014l.023.006a.796.796 0 00-.028.016c-.242.041-.63.042-.988.005zm-.172-.02l.172.02.815.205v.003l-.058.004-.929-.232zm-.52-.131l.002-.001h-.005l.002.001h.001zm0 0l.52.13a2.019 2.019 0 01-.52-.13zm1.493.374l-.044-.01h-.025l-1.436-.2c.012.01.025.018.041.027l-.04-.006.003-.003-.01.003h.006l-.002.003c.028.02.059.037.091.05.25.098.942.167 1.346.148l.047.007.035-.012h.002c0 .006.002.012.004.018h.004l-.002-.019h.004v-.002h-.003l.001-.02-.009.001v.017l-.013-.002zm.013.004l-.013-.004-.069-.01a3.014 3.014 0 01-.132.004l-1.263-.177c.016.01.035.018.056.027.222.087.8.151 1.207.15l.131.018a1.96 1.96 0 00.082-.005h.008v-.004h-.007v.001zm.005 0l.002.001h-.002v-.001zm0 0h-.005v.002l.005-.001v-.001zm-1.09-.574l.014.004c.023.09.155.142.373.094l.044.011c-.26.068-.422.003-.44-.11l.01.001zm0 0h.001zm1.287.326l.023-.014v.02l-.023-.006zm-1.865-.3a1.958 1.958 0 00-.09-.033l-.302-.111.397.123a.077.077 0 00-.005.02v.001zm0 0l.007.003.007-.021-.01-.003h.001l.01.003-.007.021-.008-.002v-.001zm2.182.197v-.001l.006-.002.002.001-.008.002zm.27.163c-.14-.032-.237-.09-.27-.163a.735.735 0 01-.06.015c-.183.055-.365.161-.412.25-.05.09-.029.128.07.156.29.081.632.007.895-.177l.01.006a.104.104 0 00.006.01 1.194 1.194 0 01-.352.17l-.247.023-.008.005a.151.151 0 00-.01.016l.023-.001-.003.002.005-.001c-.058.092-.027.248.108.265a.618.618 0 00.037.004l-.04.018h.01a5.422 5.422 0 01-.296.149l-.232.101c-.088.038-.18.07-.272.096l.007.02.265-.116c.073-.03.152-.064.232-.101l.33-.145h.004l.016-.009-.006-.012c.081.003.171-.007.264-.027a.344.344 0 00-.013.025l.027-.006c-.085.156-.025.3.154.322.02.002.042.003.065.001l-.046.022h.008l-.063.038-.095.056-.294.138a1.34 1.34 0 01-.12.033l.007.02.113-.053c.103-.035.201-.082.294-.138l.201-.094h.001l.005-.003-.01-.019a.705.705 0 00.24-.065.9.9 0 00-.023.032l.037-.015c-.078.112-.089.172-.043.231.025.032.061.038.125.017l-.074.034h.008a6.27 6.27 0 01-.404.185l.008.02.468-.219.01-.003.025-.013-.008-.017c.11-.047.216-.108.312-.18l.075-.056.005-.003a.392.392 0 00-.01.035l.018-.014.01-.008c-.048.135-.008.22.094.258a.32.32 0 00.35-.065l.014.007-.003-.018-.012.011-.443-.193.02-.015-.022-.01-.003.001c.03-.021.058-.044.09-.07l.057-.044.042-.008-.008-.019-.034.027-.292.054.038-.029-.018.004c.082-.062.165-.122.222-.16l-.013-.018-.238.183-.018.003-.038.03-.293.054a.706.706 0 00.066-.035l-.072.014c.165-.08.346-.216.51-.396l.03-.004-.01-.018-.02.022-.403.058.042-.028-.044.006.326-.193-.01-.018c-.035.021-.07.044-.115.074l-.117.079-.09.059-.05.007-.047.028-.417.06c.041-.011.082-.025.123-.04l-.127.019c.237-.066.48-.194.626-.332l.035-.005.003-.002-.008-.016.12-.021.046.009h.003V4.43a1.73 1.73 0 01-.05.012l-.682-.133c.03 0 .062-.002.095-.004l-.092-.018a1.4 1.4 0 00.165-.011l.048.014.001-.021a1.5 1.5 0 01-.049.007l-.674-.198v-.014l-.014.01.014.004.003.019h.002v.021l-.008.002.021.011c.04.062.138.113.273.139l.062.031a1.014 1.014 0 01-.052-.008l-.008-.02-.034.012zm.01.002l-.01-.002-.436.143.005.022a1.18 1.18 0 00.473-.156l-.002-.001-.008-.019-.023.013zm-.119.057l.15-.05v-.001a.942.942 0 01-.032-.006c-.039.02-.078.04-.118.057zm-.176.058c.06-.014.12-.034.176-.058l-.176.058zm0 0c-.045.01-.094.018-.15.025l.005.022.145-.047zm.437-.095a1.095 1.095 0 01-.058-.006l.13.065.005-.004a.078.078 0 00.005.01l.005.003-.002-.019-.008.006a.088.088 0 01-.006-.02l.025.013.002.019-.01.007c.026.04.082.07.158.09l-.084.039-.427.041a1.137 1.137 0 01-.239.044l.002-.003-.005.003h.003v.001l.606-.059-.366.166.008.02c.146-.046.308-.118.45-.195l.345-.034c.03-.001.06-.004.09-.007v-.001l.03-.003-.008-.018.008-.001-.002-.003-.163.016c-.249.005-.42-.065-.4-.167h.001-.002l.002-.01-.012.007.01.002H18.9l.004-.016.01-.005h.013l-.01-.002-.004.002c-.045 0-.09-.003-.136-.008l-.354-.18v.002c.003.01.008.02.013.03l.273.138a.963.963 0 00.068.01l.052.027zm0 0l.071.003a.096.096 0 000 .033l-.07-.036zm.65.158c-.052.007-.104.01-.156.012l-.138.014a.81.81 0 01-.075-.011l.003-.002-.01-.019-.028.013h.004c-.02.012-.04.024-.062.035l-.026.003-.06.027.036-.003c-.13.066-.27.127-.4.168l.007.02.423-.191.027-.003.047-.026.114-.011c.055.006.117.007.183.003l.09-.008a.866.866 0 00.021-.021zm-.42.038l.013-.001.038-.022.002-.001-.01-.02-.023.014.03.006-.05.024zm0 0l-.04.004-.05.027.03-.003.06-.028zm-.29.346l-.004.009.07-.018-.066.01v-.001zm0 0l.003-.004-.008.005h.005v-.001zm.536-.076l-.053.007-.282.167.01.02c.115-.044.224-.103.377-.201l-.05.007.05-.03-.008.002-.044.028zm-.03.018l.03-.018h.002l-.032.018zm0 0c-.031.02-.063.039-.095.057l.095-.057zm-.095.057c-.074.042-.14.073-.208.098l.01.02.198-.118zm.063.279l-.004.006.017-.008-.014.002h.001zm0 0l.002-.004-.007.005.005-.001zm.324-.06l-.018.003c-.066.05-.13.101-.19.157l.014.016.241-.185-.018.004.038-.03-.029.006-.038.029zm0 0l-.207.159.014.016c.071-.064.145-.124.222-.18l-.029.005zm.197.074l.004-.01-.014.006.01.004zm-.005-.023l-.013.01.002-.005.011-.005zm-.406.25v-.002l-.032.015.01-.004-.076.039a.22.22 0 00.072-.015l.034-.016-.008-.017zm0 0v-.002l-.023.011a.728.728 0 00.023-.009zm-.104-.264a1.292 1.292 0 01-.025.012l.003-.005.007-.004.015-.003zm-.264.077l.01.02-.006.002h-.043l.038-.022h.001zm0 0zm-.154-.362a1.513 1.513 0 01-.08.02l.002-.005.008-.005.07-.01zm-.346.047l.007.013-.019.008a.657.657 0 01-.035-.003l.034-.02.013.002zm0 0h.002l-.004-.007-.014.006h.003l.01-.006.003.007zm-.072-.747l-.004-.001h.007l-.003.001zm-.01-.006a.09.09 0 01-.003-.01l.015-.005-.002.02-.01-.005zm1.83 1.227h.001v-.002l-.094.07a.402.402 0 00.088-.063 2.45 2.45 0 01-.466.348l.012.018.474-.356-.015-.015zm0 0l-.005.005.005-.005zm-.388.078h.002l.005-.006-.013-.016-.017.011.003.002c-.046.042-.096.08-.148.115l-.086.055c-.068.041-.14.08-.21.108l.01.02.2-.128c.03-.018.06-.036.086-.055l.168-.106zm0 0l.006-.004-.014-.017-.012.012a.253.253 0 00.02.009zm-.107-.095l.001.002.011-.01-.012-.017-.007.004v.002c-.08.061-.161.12-.246.173l-.15.091a1.858 1.858 0 01-.238.12l.01.019.228-.139.15-.09.253-.155zm0 0a.143.143 0 01-.007-.02l.006-.004.012.018-.01.006zm-.59-.018v.001l.016-.009-.01-.019-.006.004a5.68 5.68 0 01-.577.288l.008.02.57-.285zm0 0v-.023l.006-.003.01.019-.016.007zm-.378-.165v.001l.008-.005-.01-.019-.014.007v.002c-.07.045-.124.08-.18.113l-.396.2a.827.827 0 01-.113.033l.007.02.107-.053c.045-.017.095-.039.148-.064a2.9 2.9 0 00.248-.136l.195-.099zm0 0a.18.18 0 01-.015-.014l.012-.008.01.019-.007.003zm-.064-.148v.002l.014-.009-.01-.019-.003.001c-.069.042-.139.082-.209.122l-.402.189c-.047.016-.095.03-.143.043l.007.02.136-.063c.125-.044.252-.105.402-.189l.208-.097zm0 0l.013-.006-.01-.02-.002.002a.24.24 0 000 .024zm-.41-.203l.007-.003-.008-.02-.008.003c-.19.085-.53.203-.788.28l.007.02.79-.28zm0 0a.187.187 0 01-.009-.02l.008-.003.008.02-.008.003h.001zm-.188-.202l.004-.002-.01-.019-.033.014.01.002a2.664 2.664 0 01-.103.062l-.548.237a.993.993 0 01-.102.02l.006.021.096-.041c.17-.044.372-.135.548-.237l.132-.057zm0 0a.86.86 0 01-.03-.005l.022-.015.01.02h-.002zm-1.782-.202v.002l.01-.002v-.022h-.015v.002l-.16.026.007.021a.415.415 0 01.158-.027zm0 0a.115.115 0 01-.005-.02l.012-.002v.022h-.007zm-.02-.17l.006.001.004-.02-.02-.007v.004a3.555 3.555 0 01-.106-.011l-.625-.177a1.121 1.121 0 01-.072-.042l-.009.019.081.023c.168.09.37.145.625.177l.115.033h.001zm0 0a.113.113 0 01-.01-.022l.018.002-.003.02h-.006.001zm1.304-.444l.006.004.01-.019a.234.234 0 01-.018-.005l.002.02zm2.632 1.73c-.044.06-.155.19-.226.267l.016.014.227-.268-.017-.013zm0 0l.017.013c-.044.06-.156.192-.227.269l-.017-.014.228-.269v.001zM20.16 3.52a1.17 1.17 0 00-.054.424.354.354 0 01-.006.093.767.767 0 00.035.357l.02-.007a.746.746 0 01-.033-.348.354.354 0 00.005-.098c-.008-.14.01-.28.053-.414l-.02-.008v.001zm-.33.574a.823.823 0 01.025-.262l.02.006a.797.797 0 00-.023.255l-.02.001h-.002zm.015.134a.997.997 0 00.02.346l.02-.005a.985.985 0 01-.019-.337l-.02-.004zm.076.577a.21.21 0 01-.022-.045l.02-.007a.194.194 0 00.02.04.657.657 0 00.094.112l-.016.015a1.153 1.153 0 01-.096-.114v-.001zm.083-.449c-.01.125.06.361.13.442.03.172.113.33.236.454l.015-.016a.865.865 0 01-.234-.447.806.806 0 01-.125-.431l-.022-.002zm-.029-.14a.74.74 0 01-.004-.207l.02.004a.72.72 0 00.006.2l-.022.004v-.001zm.334.13c-.046-.154-.047-.523 0-.718l.02.005c-.046.192-.044.556 0 .706l-.02.006v.001zm-.058.057a.686.686 0 00.01.347l.02-.007a.665.665 0 01-.01-.335l-.02-.005zm.39-.176a.812.812 0 01-.2-.524h.02a.793.793 0 00.195.51l-.016.014zm-.236.012c-.014.185-.004.355.03.453.01.036.019.073.023.111l.01.055c.002.021.005.04.01.056.008.07.032.136.07.195l.017-.013a.472.472 0 01-.068-.186 1.523 1.523 0 01-.01-.056l-.008-.054a.683.683 0 00-.024-.115 1.232 1.232 0 01-.028-.444l-.022-.002zm.173.302l-.008-.03.02-.006.01.03a.996.996 0 01.02.109.246.246 0 01-.015.122l-.02-.009a.226.226 0 00.013-.111.657.657 0 00-.02-.105zm.118-.171c.035.117.058.26.052.322l.022.002a1.135 1.135 0 00-.054-.33l-.02.006zm.15.947a.835.835 0 01-.093-.301l.021-.002a.813.813 0 00.091.293l-.019.01zm-.252-.006c.04.122.11.248.173.297l.013-.017c-.058-.046-.126-.169-.165-.287l-.02.007zm.595.341a.939.939 0 00-.14-.29l.018-.012c.07.099.098.163.142.295l-.02.007zm-.924-.261a.67.67 0 00.045.003c.053.003.072.008.096.034a.3.3 0 01.05.079 1.2 1.2 0 00.315.388c.125.22.18.512.142.668a.252.252 0 00-.11-.165.594.594 0 00-.08-.047.555.555 0 01-.17.11l.004.02a.434.434 0 00.17-.113c.015.013.03.025.047.036l.016.011a.23.23 0 01.102.152l.02-.003v.005l.02.006c.042-.155-.009-.438-.127-.663.146.068.24.143.258.25l.02.003.01-.024c.05-.11.068-.185.05-.263l.001.003.017.02.123.149h-.002c.003.02.005.052.008.1l.004.06.007.1c.007.114.015.189.026.238l.02-.005a1.856 1.856 0 01-.025-.234 16.707 16.707 0 01-.006-.1l-.004-.061a2.733 2.733 0 00-.006-.07c.046.057.058.077.064.099l.005.02.002.01a.69.69 0 00.155.278l.016-.015a.67.67 0 01-.15-.268l-.003-.011a.358.358 0 00-.005-.023c-.01-.037-.038-.07-.21-.277l-.02-.024a3.74 3.74 0 01-.04-.05l-.018.012c.043.093.03.17-.026.298-.032-.102-.13-.175-.274-.24-.083-.037-.265-.253-.328-.389a.318.318 0 00-.052-.085c-.03-.03-.053-.037-.11-.04a.67.67 0 01-.044-.003l-.003.021zm1.041.687l-.003-.031-.02.003.023.028zm-.5-.166l-.013-.005a.164.164 0 01-.022-.012l.018-.011.016.028zm-.39-.195c.037.114.067.25.07.329l.021-.001a1.437 1.437 0 00-.07-.335l-.02.007h-.002zm.324.56a1.69 1.69 0 00-.083-.342l.02-.007c.04.113.081.281.085.347l-.022.002zm.375-.04a.671.671 0 01.044.265l.021.002a.693.693 0 00-.046-.274l-.02.008.001-.001z" clip-rule="evenodd"/></svg>