<?xml version="1.0" encoding="utf-8"?>
<!-- Generator: Adobe Illustrator 24.1.2, SVG Export Plug-In . SVG Version: 6.00 Build 0)  -->
<svg version="1.1" id="layer" xmlns="http://www.w3.org/2000/svg" xmlns:xlink="http://www.w3.org/1999/xlink" x="0px" y="0px"
	 viewBox="0 0 627 175.7" style="enable-background:new 0 0 627 175.7;" xml:space="preserve">
<path d="M12.3,87.9v76.4h142.9v-17.6H29.6V28.8h125.6V11.5H12.3V87.9z"/>
<path d="M147.9,40.7c-12.6,1.6-21.6,8.2-25,18.3c-0.8,2.5-0.9,3.3-1.1,6.9c-0.3,8.5,1.5,13.7,6.4,18.6c4.8,4.8,11.1,7.5,23.8,10
	c8.2,1.6,11.9,2.9,14.8,5.1c3.5,2.7,4.7,8.1,2.7,12.3c-1,2.1-3.4,4.4-5.6,5.4c-5.2,2.3-14.2,1.9-19.5-0.8c-2.3-1.2-4.8-3.7-6.1-6.1
	c-1.1-2.2-2.1-5.8-2.1-7.9v-1.6h-17.6v1.2c0,6.4,2.1,13.8,5.4,18.7c1.7,2.6,5.2,6.2,7.6,7.8c7.2,4.9,17.1,7.2,27.4,6.3
	c10-0.8,17.1-3.8,22.3-9.2c3.4-3.6,5.5-7.7,6.4-12.7c0.7-3.8,0.5-12.3-0.4-15.4c-2.3-7.8-8.2-12.9-18.7-16.4
	c-1.9-0.6-5.1-1.5-7.1-1.9c-7-1.4-12.5-2.8-14.6-3.7c-5.1-2.1-7.2-4.8-7.2-9c0-4.7,2.8-7.7,8.4-9.1c3.2-0.8,9.1-0.7,11.8,0.3
	c5.1,1.8,8.5,5.8,9.3,10.7l0.3,2h17.3l-0.2-2.9c-0.4-6-1.7-9.8-4.7-14.3c-4.1-6-10.6-10.1-19.1-11.9c-2-0.4-4-0.6-8.2-0.7
	C151.4,40.6,148.4,40.7,147.9,40.7L147.9,40.7z M228.6,87.8v45.5h17.3v-91h-17.3V87.8z M280.4,44.7c-0.9,1.3-6.2,9.7-12,18.7
	l-10.5,16.2v16.5l12.4,18.5l12.4,18.6h21.1l-0.6-0.8c-0.3-0.5-7.1-10.5-15.1-22.3c-11.3-16.5-14.6-21.7-14.6-22.3
	c0-0.6,3.5-6.3,14.2-22.8c7.8-12.1,14.3-22.2,14.4-22.4c0.2-0.3-1.9-0.4-9.9-0.4H282L280.4,44.7L280.4,44.7z M355.6,42.5
	c0,0.2-21,88.4-21.4,89.8l-0.2,0.9h18.3l2.2-9.6c1.2-5.3,2.2-9.8,2.3-10c0.1-0.3,3.3-0.4,15.3-0.3l15.1,0.1l2.2,9.8l2.2,9.8l9.2,0.1
	c8.7,0.1,9.2,0,9-0.4c-0.1-0.3-4.9-20.5-10.7-44.8c-5.8-24.4-10.6-44.6-10.7-45l-0.1-0.6H372C362.9,42.3,355.6,42.4,355.6,42.5
	L355.6,42.5z M372.9,51.2c0,0.1,2.3,10.1,5.1,22.4l5,22.3L371.9,96c-6.1,0-11.1,0-11.2,0c-0.1-0.1,5.6-25.2,9.4-41.5l0.8-3.3h1
	C372.5,51.1,372.9,51.1,372.9,51.2L372.9,51.2z M454.8,87.8v45.5h58.7v-16.4h-41.4V42.4h-17.3L454.8,87.8L454.8,87.8z M553.1,87.8
	v45.5h59.3v-16.4h-42V59.1h42V42.4h-59.3V87.8z"/>
<path d="M582.4,87.9v8.4h16.7V79.6h-16.7V87.9z"/>
</svg>
