<svg width="189" height="172" viewBox="0 0 189 172" fill="none" xmlns="http://www.w3.org/2000/svg">
<path fill-rule="evenodd" clip-rule="evenodd" d="M83.0096 89.596C83.0096 89.596 121.157 89.4056 130.839 91.942C131.488 91.9423 128.603 94.8572 127.482 95.6067C126.361 96.3561 111.89 94.1316 102.001 100.652C92.1119 107.171 83.0096 89.596 83.0096 89.596Z" fill="#18286C"/>
<path fill-rule="evenodd" clip-rule="evenodd" d="M123.161 71.1018L126.657 74.4051C126.657 74.4051 124.811 75.6515 120.499 74.1443C116.187 72.6371 111.716 71.6364 111.716 71.6364L118.31 68.049L123.161 71.1018Z" fill="#B7464C"/>
<path fill-rule="evenodd" clip-rule="evenodd" d="M55.7522 115.687C55.7522 115.687 43.2533 130.37 37.6582 134.872C31.7192 139.65 25.5148 144.044 23.4778 150.812C23.4778 150.812 20.465 151.343 17.9873 151.78C15.5085 152.218 34.5971 126.055 34.5971 126.055L44.753 117.275L55.7522 115.687Z" fill="#18286C"/>
<path fill-rule="evenodd" clip-rule="evenodd" d="M98.8981 39.9208C98.8981 39.9208 90.8192 46.9312 90.1566 50.8283C89.4939 54.7255 98.7303 51.1457 98.7303 51.1457C98.7303 51.1457 97.7711 47.8246 97.8002 45.8706C97.8294 43.9166 98.8981 39.9208 98.8981 39.9208Z" fill="#22306B"/>
<path fill-rule="evenodd" clip-rule="evenodd" d="M-1.19353 152.86C-1.19353 152.86 3.55052 152.636 4.54543 152.461C5.07716 152.367 24.7189 143.81 37.2434 133.068C49.7691 122.328 62.7367 117.935 71.9245 114.564C79.384 111.827 91.0303 108.044 106.772 106.03C114.567 105.033 130.333 104.265 130.333 104.265C130.333 104.265 132.878 103.83 133.581 101.964C117.836 97.2483 100.938 100.228 100.81 88.791C100.712 80.0202 105.643 74.4278 107.665 74.0713C111.31 73.4286 117.756 75.0837 121.096 69.5726C124.437 64.0616 124.275 62.0642 123.636 58.4414C123.592 58.1915 122.363 58.2694 120.487 58.1822C117.441 58.0405 112.909 57.6716 110.617 56.3069C106.915 54.1019 102.823 47.5129 93.8118 49.1017C93.8118 49.1017 91.9414 42.2017 93.792 38.4996C93.792 38.4996 85.3315 41.0967 82.3527 53.0134C79.374 64.93 78.7531 79.2816 57.8062 87.8971C36.8589 96.5126 18.8304 97.7914 10.118 79.9865C10.118 79.9865 10.6891 95.527 28.5288 102.643C28.5288 102.643 24.6559 106.942 21.5521 125.853C19.7725 136.702 -1.19353 152.86 -1.19353 152.86Z" fill="#5577FF"/>
<path fill-rule="evenodd" clip-rule="evenodd" d="M-1.19353 152.86C-1.19353 152.86 3.55052 152.636 4.54543 152.461C5.07716 152.367 24.7189 143.81 37.2434 133.068C49.7691 122.328 62.7367 117.935 71.9245 114.564C79.384 111.827 91.0303 108.044 106.772 106.03C114.567 105.033 130.333 104.265 130.333 104.265C130.333 104.265 132.878 103.83 133.581 101.964C117.836 97.2483 100.938 100.228 100.81 88.791C100.712 80.0202 105.643 74.4278 107.665 74.0713C111.31 73.4286 117.756 75.0837 121.096 69.5726C124.437 64.0616 124.275 62.0642 123.636 58.4414C123.592 58.1915 122.363 58.2694 120.487 58.1822C117.441 58.0405 112.909 57.6716 110.617 56.3069C106.915 54.1019 102.823 47.5129 93.8118 49.1017C93.8118 49.1017 91.9414 42.2017 93.792 38.4996C93.792 38.4996 85.3315 41.0967 82.3527 53.0134C79.374 64.93 78.7531 79.2816 57.8062 87.8971C36.8589 96.5126 18.8304 97.7914 10.118 79.9865C10.118 79.9865 10.6891 95.527 28.5288 102.643C28.5288 102.643 24.6559 106.942 21.5521 125.853C19.7725 136.702 -1.19353 152.86 -1.19353 152.86Z" fill="white" fill-opacity="0.6" style="mix-blend-mode:overlay"/>
<path fill-rule="evenodd" clip-rule="evenodd" d="M117.57 57.5319C117.57 57.5319 119.317 64.2839 122.914 65.9766C123.018 66.0213 123.736 64.4234 124.083 62.5743C124.445 60.6419 124.28 58.3872 123.914 57.8547C123.198 56.8124 122.615 57.7125 121.056 57.7192C119.497 57.7259 117.57 57.5319 117.57 57.5319Z" fill="#22306B"/>
<path d="M114.149 66.0415C114.676 65.9485 115.028 65.4441 114.934 64.9147C114.841 64.3853 114.338 64.0316 113.811 64.1245C113.284 64.2175 112.932 64.722 113.025 65.2513C113.119 65.7807 113.622 66.1345 114.149 66.0415Z" fill="#1C295C"/>
<path d="M111.623 68.4634C112.15 68.3704 112.502 67.8659 112.409 67.3366C112.315 66.8072 111.812 66.4534 111.285 66.5464C110.758 66.6394 110.406 67.1439 110.5 67.6732C110.593 68.2026 111.096 68.5563 111.623 68.4634Z" fill="#1C295C"/>
<path d="M115.049 68.3536C115.576 68.2607 115.928 67.7562 115.834 67.2268C115.741 66.6975 115.238 66.3437 114.711 66.4367C114.183 66.5296 113.832 67.0341 113.925 67.5635C114.018 68.0928 114.522 68.4466 115.049 68.3536Z" fill="#1C295C"/>
<path fill-rule="evenodd" clip-rule="evenodd" d="M93.9072 48.8564C93.9072 48.8564 91.3292 51.2153 93.9108 57.765C96.4924 64.3147 103.174 65.3854 107.616 61.3C112.058 57.2146 109.127 58.9848 112.063 57.0009C110.821 56.2489 108.972 54.8681 106.082 52.5979C105.156 51.8713 102.87 50.2557 102.87 50.2557C102.87 50.2557 99.9404 49.1197 98.287 48.8616C96.6335 48.6034 93.9072 48.8564 93.9072 48.8564Z" fill="#2841A6"/>
<path d="M102.882 58.546C104.332 58.2904 105.299 56.903 105.043 55.4473C104.786 53.9915 103.403 53.0187 101.953 53.2743C100.503 53.5299 99.5357 54.9173 99.7924 56.373C100.049 57.8288 101.433 58.8017 102.882 58.546Z" fill="#0C1740"/>
<g opacity="0.451149" filter="url(#filter0_ii_29_3433)">
<path d="M113.472 85.0514C134.956 81.2632 149.289 60.7051 145.486 39.1336C141.682 17.5621 121.182 3.14586 99.6983 6.93406C78.2143 10.7223 63.8815 31.2804 67.6852 52.8519C71.4888 74.4234 91.9885 88.8396 113.472 85.0514Z" fill="url(#paint0_radial_29_3433)"/>
</g>
<path fill-rule="evenodd" clip-rule="evenodd" d="M75.728 78.3899C75.728 78.3899 73.2338 80.6799 59.1322 83.1663C45.0306 85.6528 39.8009 80.1192 29.5259 81.9311C19.2497 83.743 -14.5994 104.133 -14.5994 104.133C-14.5994 104.133 -25.767 90.4471 -41.8653 96.9729C-57.9648 103.499 -9.55632 83.5857 -9.55632 83.5857L31.2122 73.0245L61.3251 72.0647L75.36 76.3029L75.728 78.3899Z" fill="#18286C"/>
<path fill-rule="evenodd" clip-rule="evenodd" d="M76.8535 74.6809C76.8535 74.6809 41.756 61.1111 26.0298 68.9114C10.3024 76.7115 -3.87801 77.3761 -13.9788 75.9658C-24.0796 74.5556 -22.1662 75.7237 -26.8541 83.2634C-31.543 90.803 -54.5348 98.3936 -37.1954 96.7663C-19.8571 95.1388 23.0338 73.4414 37.7426 77.2002C52.4512 80.959 75.4656 76.901 75.4656 76.901L76.8535 74.6809Z" fill="#23D9ED"/>
<path d="M77.7163 79.5744C76.0582 79.8668 74.479 78.7706 74.189 77.1261C73.899 75.4815 75.0081 73.9113 76.6661 73.619C78.3242 73.3266 79.9034 74.4228 80.1934 76.0673C80.4834 77.7119 79.3743 79.2821 77.7163 79.5744Z" fill="#18286C"/>
<path opacity="0.5" fill-rule="evenodd" clip-rule="evenodd" d="M74.3903 75.0603C74.3903 75.0603 62.3446 71.7102 61.053 71.7295C59.7614 71.7487 60.5147 73.3266 60.5147 73.3266L74.3903 75.0603Z" fill="#0C4180"/>
<path opacity="0.5" fill-rule="evenodd" clip-rule="evenodd" d="M74.2888 75.4502C74.2888 75.4502 64.0824 75.2134 62.813 75.4548C61.5437 75.6963 64.2868 76.5203 64.2868 76.5203L74.2888 75.4502Z" fill="#0C4180"/>
<defs>
<filter id="filter0_ii_29_3433" x="67.0736" y="6.32971" width="79.0236" height="81.4759" filterUnits="userSpaceOnUse" color-interpolation-filters="sRGB">
<feFlood flood-opacity="0" result="BackgroundImageFix"/>
<feBlend mode="normal" in="SourceGraphic" in2="BackgroundImageFix" result="shape"/>
<feColorMatrix in="SourceAlpha" type="matrix" values="0 0 0 0 0 0 0 0 0 0 0 0 0 0 0 0 0 0 127 0" result="hardAlpha"/>
<feOffset/>
<feGaussianBlur stdDeviation="0.447917"/>
<feComposite in2="hardAlpha" operator="arithmetic" k2="-1" k3="1"/>
<feColorMatrix type="matrix" values="0 0 0 0 0.93935 0 0 0 0 0.866071 0 0 0 0 0.481353 0 0 0 1 0"/>
<feBlend mode="overlay" in2="shape" result="effect1_innerShadow_29_3433"/>
<feColorMatrix in="SourceAlpha" type="matrix" values="0 0 0 0 0 0 0 0 0 0 0 0 0 0 0 0 0 0 127 0" result="hardAlpha"/>
<feOffset dy="2.15"/>
<feGaussianBlur stdDeviation="2.15"/>
<feComposite in2="hardAlpha" operator="arithmetic" k2="-1" k3="1"/>
<feColorMatrix type="matrix" values="0 0 0 0 1 0 0 0 0 0.977316 0 0 0 0 0.432878 0 0 0 1 0"/>
<feBlend mode="overlay" in2="effect1_innerShadow_29_3433" result="effect2_innerShadow_29_3433"/>
</filter>
<radialGradient id="paint0_radial_29_3433" cx="0" cy="0" r="1" gradientUnits="userSpaceOnUse" gradientTransform="translate(85.25 66.6501) rotate(-45.5256) scale(82.8587 82.5227)">
<stop stop-color="white" stop-opacity="0"/>
<stop offset="1" stop-color="white"/>
</radialGradient>
</defs>
</svg>
