<svg width="54" height="40" viewBox="0 0 54 40" fill="none" xmlns="http://www.w3.org/2000/svg">
<path fill-rule="evenodd" clip-rule="evenodd" d="M9.54897 8.57998C8.37055 10.9678 8.08701 13.5278 8.01999 16.7773L5.12132 13.8787C3.94975 12.7071 2.05025 12.7071 0.87868 13.8787C-0.292893 15.0502 -0.292893 16.9497 0.87868 18.1213L8.87868 26.1213C9.44129 26.6839 10.2044 27 11 27C11.7957 27 12.5587 26.6839 13.1213 26.1213L21.1213 18.1213C22.2929 16.9497 22.2929 15.0502 21.1213 13.8787C19.9497 12.7071 18.0503 12.7071 16.8787 13.8787L14.0313 16.726C14.0991 13.8604 14.3077 12.4952 14.9294 11.2353C15.6354 9.80475 17.2776 8.09103 18.6768 7.3247C20.4016 6.38006 21.9415 6.25528 26.7347 6.05091C27.5075 6.01796 28.2659 6 28.9999 6C33.7993 6 37.0799 6.47986 39.0991 6.92856C40.109 7.15298 40.8053 7.37004 41.2202 7.51648C41.4278 7.58973 41.5653 7.64546 41.6369 7.67582C41.6656 7.688 41.6837 7.69611 41.6915 7.69965C43.1671 8.41524 44.9478 7.81251 45.6832 6.34162C46.4242 4.85968 45.8235 3.05766 44.3416 2.31671L42.9999 5C44.3416 2.31671 44.3389 2.31538 44.3389 2.31538L44.3361 2.314L44.3303 2.31112L44.3176 2.30486L44.2877 2.29034C44.2657 2.27979 44.2398 2.26752 44.2097 2.25365C44.1496 2.22592 44.0733 2.19181 43.9802 2.15231C43.7939 2.07329 43.5408 1.97277 43.2171 1.85853C42.5695 1.62997 41.6408 1.34702 40.4007 1.07144C37.9198 0.520145 34.2004 0 28.9999 0C28.1693 0 27.325 0.02029 26.4792 0.0563526L26.0248 0.0755834C21.8394 0.252086 18.8712 0.377256 15.7946 2.06229C13.3147 3.4205 10.8003 6.04448 9.54897 8.57998ZM43.0004 13C43.796 13 44.5591 13.3161 45.1217 13.8787L53.1217 21.8787C54.2933 23.0503 54.2933 24.9497 53.1217 26.1213C51.9501 27.2929 50.0506 27.2929 48.879 26.1213L45.9806 23.2229C45.9136 26.4723 45.63 29.0323 44.4516 31.42C43.2003 33.9555 40.6859 36.5795 38.206 37.9377C35.1294 39.6227 32.1612 39.7479 27.9758 39.9244L27.5214 39.9436C26.6756 39.9797 25.8313 40 25.0007 40C19.8001 40 16.0808 39.4798 13.5999 38.9286C12.3598 38.653 11.4311 38.37 10.7835 38.1415C10.4598 38.0272 10.2067 37.9267 10.0204 37.8477C9.92732 37.8082 9.79087 37.7463 9.79087 37.7463L9.65904 37.6833C8.1771 36.9423 7.57641 35.1403 8.31736 33.6584C9.05279 32.1875 10.8335 31.5847 12.3091 32.3003C12.3169 32.3039 12.335 32.312 12.3637 32.3242C12.4353 32.3545 12.5728 32.4103 12.7804 32.4835C13.1953 32.63 13.8916 32.847 14.9015 33.0714C16.9207 33.5201 20.2013 34 25.0007 34C25.7347 34 26.4931 33.982 27.2658 33.9491C32.0591 33.7447 33.599 33.6199 35.3238 32.6753C36.723 31.909 38.3652 30.1952 39.0712 28.7647C39.693 27.5048 39.9015 26.1395 39.9693 23.2737L37.1217 26.1213C35.9501 27.2929 34.0506 27.2929 32.879 26.1213C31.7075 24.9497 31.7075 23.0503 32.879 21.8787L40.879 13.8787C41.4416 13.3161 42.2047 13 43.0004 13Z" fill="#1896A4"/>
</svg>
