<?xml version="1.0" encoding="UTF-8"?>
<svg width="25px" height="25px" viewBox="0 0 25 25" version="1.1" xmlns="http://www.w3.org/2000/svg" xmlns:xlink="http://www.w3.org/1999/xlink">
    <!-- Generator: Sketch 55.2 (78181) - https://sketchapp.com -->
    <title>icon7</title>
    <desc>Created with Sketch.</desc>
    <g id="Landing-page" stroke="none" stroke-width="1" fill="none" fill-rule="evenodd">
        <g id="005-no-bug" transform="translate(3.000000, 3.000000)" fill="#8698A3" fill-rule="nonzero" stroke="#8698A3" stroke-width="0.8">
            <path d="M0.624571857,11.9887106 L3.0635666,11.9887106 C3.08263686,12.269697 3.11336579,12.5492321 3.15883462,12.8241715 C3.20805089,13.1215252 3.47336901,13.3333333 3.77474575,13.3333333 C3.80755659,13.3333333 3.84078382,13.3308339 3.87426087,13.3255931 C4.21486072,13.2728628 4.44678507,12.9626893 4.39223913,12.6329233 C4.32478537,12.2250294 4.29055883,11.8056865 4.29055883,11.3864241 C4.29055883,7.92130142 6.60713749,5.07902519 9.52205598,4.86762022 C9.54270849,4.8660883 9.5630279,4.86334697 9.58368041,4.86213756 C9.6320639,4.85923497 9.68094706,4.85923497 9.72966367,4.85778368 C9.77654819,4.85641301 9.82318289,4.85359105 9.87040053,4.85359105 C10.2704596,4.85359105 10.6695194,4.9034994 11.0565874,5.0018648 C11.05767,5.00210668 11.0588359,5.00226793 11.0599184,5.00250982 C11.0699116,5.00500926 11.079988,5.00662181 11.0900644,5.0086375 C11.1030555,5.01121757 11.1160466,5.01379765 11.1290377,5.01557145 C11.1391142,5.01694212 11.1491073,5.01782902 11.1591837,5.01863529 C11.1729243,5.0198447 11.1865816,5.0207316 11.2001556,5.02105411 C11.2049857,5.02113474 11.2098157,5.02186039 11.2146457,5.02186039 C11.2183931,5.02186039 11.221974,5.02121537 11.2257215,5.02113474 C11.24729,5.02081223 11.268692,5.01944156 11.2898442,5.01694212 C11.2931752,5.01653898 11.2965063,5.01645835 11.2998373,5.01605522 C11.3249035,5.01274949 11.3495532,5.0077506 11.3738699,5.00154229 C11.3792829,5.00017162 11.3846125,4.99839782 11.3899422,4.99694653 C11.4090125,4.99154449 11.4277496,4.98525556 11.4460704,4.97816035 C11.4523994,4.97574153 11.4587284,4.97340333 11.4649741,4.97074263 C11.4874587,4.9612286 11.5095269,4.95082767 11.5306791,4.93889482 C11.5333439,4.9373629 11.5358422,4.93550847 11.538507,4.93397655 C11.5570776,4.92309185 11.5748988,4.91123963 11.5922202,4.8985005 C11.5985492,4.89382411 11.6047117,4.88898647 11.6109574,4.88414883 C11.6262802,4.87205472 11.6409368,4.85915434 11.6550105,4.84560894 C11.6589245,4.84190009 11.663005,4.83843311 11.6667525,4.83464362 C11.684407,4.81682497 11.7008124,4.79779691 11.7161353,4.77780132 C11.7191332,4.77385058 11.7218813,4.76965796 11.7248793,4.76570722 C11.7379537,4.74780794 11.7499454,4.72918301 11.7610212,4.70983244 C11.7626867,4.70701049 11.7647686,4.70451104 11.7663509,4.70160845 L13.8658283,0.889304283 C14.0281337,0.594691855 13.9128794,0.22840169 13.608588,0.0712589364 C13.3042133,-0.0859644448 12.9258893,0.0257044695 12.7635839,0.320397525 L10.8858711,3.73004858 C10.5507675,3.67352879 10.2110004,3.64434168 9.87056708,3.64434168 L9.87056708,3.64434168 C9.87056708,3.64434168 9.87056708,3.64434168 9.87056708,3.64434168 L9.87056708,3.64434168 C9.77155162,3.64434168 9.67311909,3.6473249 9.57510295,3.65200129 C9.5566989,3.65288819 9.5381283,3.65337195 9.51972425,3.65442011 C9.44519201,3.65869336 9.37115942,3.66482104 9.29729339,3.67183562 C9.11608427,3.68900925 8.93687379,3.71424562 8.75991176,3.74722222 C8.75624761,3.73956261 8.75324966,3.73182239 8.7492524,3.72424341 L6.96489225,0.330475947 C6.80841618,0.0328803059 6.43225737,-0.0855613079 6.12496801,0.0659375296 C5.81751211,0.217436367 5.6951793,0.581468965 5.85165537,0.879145233 L7.54782598,4.10553027 C6.13637686,4.68588611 4.94028011,5.77935457 4.13583156,7.18606038 C2.85262786,7.02077427 1.8592255,5.95504162 1.8592255,4.66814809 C1.8592255,4.33410888 1.57958386,4.06344278 1.23465365,4.06344278 C0.88972343,4.06344278 0.61008179,4.33410888 0.61008179,4.66814809 C0.61008179,6.44178909 1.88878857,7.93073482 3.60028201,8.318875 C3.30814894,9.0834644 3.12161014,9.91134629 3.0621509,10.7792193 L0.624571857,10.7792193 C0.27964164,10.7792193 0,11.0498854 0,11.3839247 C0,11.7179639 0.27964164,11.9887106 0.624571857,11.9887106 Z" id="Path"></path>
            <path d="M19.3733696,11.2668745 L16.9456047,11.2668745 C16.8866415,10.3768219 16.7041562,9.50498515 16.4068345,8.68931435 C18.114346,8.27684062 19.3879851,6.72367592 19.3879851,4.87492331 C19.3879851,4.52553082 19.107534,4.24242424 18.7616052,4.24242424 C18.4156765,4.24242424 18.1352254,4.52553082 18.1352254,4.87492331 C18.1352254,6.31761151 16.9906206,7.49465011 15.5704086,7.53082906 C15.4569921,7.51851641 15.3389821,7.53656372 15.2289063,7.59104297 C15.0469221,7.6807735 14.9279934,7.84800626 14.8905776,8.03404532 C14.8899095,8.03733431 14.8893249,8.04070764 14.8886568,8.04399664 C14.8859007,8.05883928 14.8835622,8.07376626 14.8818918,8.08877757 C14.8807226,8.09830722 14.8799709,8.10783687 14.8793028,8.11745086 C14.8787182,8.12622151 14.8782171,8.13490783 14.8779665,8.14367849 C14.877716,8.15084681 14.8768808,8.15776213 14.8768808,8.16501479 C14.8768808,8.17395411 14.8777995,8.18272476 14.8782171,8.19157975 C14.8783006,8.19301342 14.8783841,8.19444708 14.8784676,8.19588074 C14.8834787,8.30045392 14.9133779,8.39819611 14.9627366,8.48345699 C15.4545701,9.51839413 15.71481,10.6990591 15.71481,11.9019879 C15.71481,15.6698271 13.2044466,18.7350862 10.1188993,18.7350862 C8.80792802,18.7350862 7.53228453,18.1679454 6.5269866,17.1380682 C6.28403473,16.8892853 5.88749451,16.8865023 5.64120195,17.1317432 C5.39482587,17.3768999 5.39198628,17.7773983 5.63485463,18.0261812 C6.87742526,19.2990224 8.46993344,20 10.1189828,20 C12.5000615,20 14.6007726,18.5555408 15.8284771,16.3690337 L17.467755,18.0242416 C17.5900243,18.1477054 17.7503776,18.2094373 17.9106473,18.2094373 C18.070917,18.2094373 18.2312703,18.1477054 18.3535396,18.0242416 C18.5981619,17.7771453 18.5981619,17.3767312 18.3535396,17.1297192 L16.392219,15.1493225 C16.6940506,14.337278 16.886725,13.4561647 16.947108,12.5317883 L19.3736201,12.5317883 C19.7195489,12.5317883 20,12.2486818 20,11.8992893 C20,11.5498968 19.7192983,11.2668745 19.3733696,11.2668745 Z" id="Path"></path>
            <path d="M19.8305627,0.169379098 C19.6046464,-0.0564596992 19.2383518,-0.0564596992 19.0125126,0.169379098 L0.169437272,19.0124952 C-0.0564790908,19.2384882 -0.0564790908,19.604705 0.169437272,19.8306209 C0.282356888,19.9435403 0.430448188,20 0.578462357,20 C0.726476526,20 0.874567826,19.9435403 0.987487442,19.8306209 L19.8305627,0.987504821 C20.0564791,0.761588893 20.0564791,0.395295025 19.8305627,0.169379098 Z" id="Path"></path>
        </g>
    </g>
</svg>