<?xml version="1.0" encoding="UTF-8"?>
<svg width="25px" height="25px" viewBox="0 0 25 25" version="1.1" xmlns="http://www.w3.org/2000/svg" xmlns:xlink="http://www.w3.org/1999/xlink">
    <!-- Generator: Sketch 55.2 (78181) - https://sketchapp.com -->
    <title>icon5</title>
    <desc>Created with Sketch.</desc>
    <g id="Landing-page" stroke="none" stroke-width="1" fill="none" fill-rule="evenodd">
        <g id="Group-58" transform="translate(1.000000, 1.000000)" fill="#8698A3" fill-rule="nonzero">
            <g id="cloud">
                <path d="M18.0490616,4.81458994 C17.6630598,3.5332333 16.8942172,2.37982317 15.8472076,1.52518009 C14.6423744,0.541644746 13.1198167,0 11.5601852,0 C10.0005536,0 8.47799597,0.541644746 7.2731176,1.52522513 C6.22610802,2.37986821 5.45726539,3.53327834 5.07126358,4.81463498 C2.24461768,4.99387719 0,7.3443821 0,10.207889 C0,13.1878133 2.43089019,15.6121768 5.41883681,15.6121768 L6.18650535,15.6121768 L6.18650535,16.0173633 C6.18650535,19.0365588 8.45939129,21.6061175 11.4733935,21.9944156 C11.5022036,21.9981535 11.5311944,22 11.5601852,22 C11.589176,22 11.6181667,21.9981535 11.6469769,21.9944156 C14.6609791,21.6060725 16.933865,19.0365137 16.933865,16.0173633 L16.933865,15.6105556 C16.9448833,15.611096 16.955721,15.6122219 16.9668748,15.6122219 L17.7015336,15.6122219 C20.6894802,15.6122219 23.1203704,13.1878584 23.1203704,10.2079341 C23.1203704,7.3443821 20.8757527,4.99387719 18.0490616,4.81458994 Z M15.5791558,16.0173633 C15.5791558,18.3303985 13.8575914,20.3034589 11.5601852,20.6424879 C9.26277901,20.3034589 7.54121455,18.3303985 7.54121455,16.0173633 L7.54121455,12.0624605 L11.5601852,10.6465821 L15.5791558,12.0624605 L15.5791558,16.0173633 Z M17.7015336,14.2611049 L16.9668748,14.2611049 C16.955721,14.2611049 16.9448833,14.2622308 16.933865,14.2627712 L16.933865,11.5846314 C16.933865,11.2982942 16.7528307,11.0430767 16.4821147,10.947646 L11.7857894,9.29312325 C11.6398421,9.24169244 11.4805283,9.24169244 11.3345809,9.29312325 L6.63825571,10.947646 C6.36753966,11.0430316 6.18650535,11.2982491 6.18650535,11.5846314 L6.18650535,14.2611049 L5.41883681,14.2611049 C3.17787684,14.2611049 1.3547092,12.4428323 1.3547092,10.207889 C1.3547092,7.97294581 3.17787684,6.15467317 5.41883681,6.15467317 L5.59896797,6.15467317 C5.91849872,6.15467317 6.19458845,5.93192644 6.26137561,5.62027918 C6.7912927,3.14655651 9.01974418,1.35107195 11.5601852,1.35107195 C14.1006262,1.35107195 16.3290777,3.14655651 16.8589948,5.62027918 C16.9257819,5.93192644 17.2018717,6.15467317 17.5214024,6.15467317 L17.7015336,6.15467317 C19.9424935,6.15467317 21.7656612,7.97294581 21.7656612,10.207889 C21.7656612,12.4428773 19.9424935,14.2611049 17.7015336,14.2611049 Z" id="Shape" stroke="#8698A3" stroke-width="0.4"></path>
                <path d="M10.5245483,15.1360126 C10.2596577,14.8715615 9.83112232,14.8725121 9.56744989,15.1383213 C9.30377746,15.4041304 9.30481519,15.8340785 9.56975093,16.098575 L10.5898348,17.1170876 C10.7218515,17.2489057 10.894565,17.3148148 11.0672335,17.3148148 C11.2399019,17.3148148 11.4126155,17.2489057 11.5446322,17.1170876 L13.4487676,15.215864 C13.7137033,14.9513224 13.7147411,14.5214195 13.4510686,14.2556103 C13.1873962,13.9897559 12.7588608,13.98876 12.4939702,14.2533017 L11.0672335,15.6778613 L10.5245483,15.1360126 Z" id="Path"></path>
            </g>
        </g>
    </g>
</svg>