<?xml version="1.0" encoding="UTF-8"?>
<svg width="38px" height="38px" viewBox="0 0 38 38" version="1.1" xmlns="http://www.w3.org/2000/svg" xmlns:xlink="http://www.w3.org/1999/xlink">
    <!-- Generator: Sketch 55.2 (78181) - https://sketchapp.com -->
    <title>Oval</title>
    <desc>Created with Sketch.</desc>
    <defs>
        <linearGradient x1="14.5070348%" y1="38.8503086%" x2="100%" y2="56.4903777%" id="linearGradient-1">
            <stop stop-color="#F09819" offset="0%"></stop>
            <stop stop-color="#FF5858" offset="100%"></stop>
        </linearGradient>
        <rect id="path-2" x="0" y="0" width="1440" height="680"></rect>
    </defs>
    <g id="Landing-page" stroke="none" stroke-width="1" fill="none" fill-rule="evenodd">
        <g id="Group-70" transform="translate(-1283.000000, -265.000000)">
            <g id="Group-20">
                <mask id="mask-3" fill="white">
                    <use xlink:href="#path-2"></use>
                </mask>
                <g id="Mask"></g>
            </g>
            <g id="Group-34" transform="translate(1283.000000, 265.000000)">
                <g id="BTC">
                    <circle id="Oval" stroke="#FFFFFF" cx="18.855618" cy="19" r="18"></circle>
                    <path d="M19.7705232,28.4223977 C19.7008257,28.3998924 19.6713978,28.3130863 19.3368497,27.1621023 C19.1509897,26.5255245 18.9976551,26.0014731 18.9930086,25.9982581 C18.989911,25.9934355 18.3533403,26.1895529 17.5773745,26.4306809 C16.8029576,26.6734163 16.1679357,26.8695337 16.1679357,26.8695337 C16.1508986,26.8502435 15.4972907,24.5514904 15.5065837,24.5434528 C15.512779,24.5354152 15.6754066,24.4823671 15.867462,24.4228889 C16.5257164,24.2187339 16.6465254,24.1576481 16.7208694,23.9888586 C16.7719809,23.8747247 16.7487484,23.6818223 16.6418789,23.2944101 C16.4777025,22.7108805 14.3325677,15.340403 14.2628701,15.1217803 C14.1513541,14.7761636 14.0863031,14.6491696 13.9856289,14.5848688 C13.8493315,14.4980627 13.70529,14.5189605 13.0439379,14.724723 C12.8425895,14.7874163 12.6737666,14.8356418 12.6722178,14.8324268 C12.6691201,14.8292118 12.5188833,14.313198 12.3361209,13.6846578 C12.1549073,13.0577251 12.0031216,12.5352813 12.0000119,12.5272437 C11.9969263,12.5175985 12.5932273,12.3230887 13.4048162,12.0691006 C14.2799073,11.7974298 14.814255,11.6222101 14.814255,11.60935 C14.814255,11.5997048 14.6671158,11.0869061 14.4889999,10.4712261 C14.255126,9.66746626 14.1637448,9.32988714 14.1637448,9.27362396 C14.1637448,9.13698479 14.1730378,9.13216223 15.0032127,8.87335157 C15.7884715,8.62740107 15.802411,8.62418603 15.8875968,8.70616953 C15.9371595,8.75439512 15.9185735,8.69813193 16.3166238,10.0677386 C16.4699583,10.5982201 16.5985115,11.040288 16.6016092,11.0499331 C16.6062557,11.0627933 16.7502973,11.0242128 17.0244408,10.9390143 C17.2521194,10.8682834 17.4410771,10.8088052 17.442626,10.8088052 C17.4441748,10.8071977 17.2939379,10.2815388 17.1080779,9.64013843 C16.7874693,8.53898749 16.7704321,8.47468671 16.7921158,8.43449872 C16.855618,8.32197234 16.8323854,8.33161746 17.6114489,8.088882 C18.0187922,7.96188795 18.3688286,7.85739917 18.3874146,7.85739917 C18.4060006,7.85739917 18.4509168,7.87025933 18.4880888,7.88794204 L18.5546887,7.91848492 L18.8954321,9.09518928 L19.2361755,10.2718936 L19.2826406,10.2622485 C19.3074219,10.257426 19.4483658,10.2284906 19.5924073,10.1979477 C20.1716712,10.0757762 20.5294518,10.0355883 21.0405669,10.0355883 C21.337943,10.0371958 21.4788869,10.0436259 21.6136354,10.0645236 C22.6947215,10.2381357 23.5605196,10.7412894 24.2094809,11.5755921 C24.8026843,12.3391639 25.1387812,13.3744065 25.1093534,14.3437408 C25.0985115,14.6764974 25.0706325,14.8838674 24.9962885,15.1844736 C24.805782,15.956083 24.4263177,16.5331826 23.7448308,17.0845618 L23.6395101,17.1713678 L23.7835516,17.2019107 C24.0050349,17.2485288 24.3721085,17.3787379 24.5796522,17.4864417 C24.9389817,17.6696989 25.2162229,17.8786765 25.5182455,18.1921428 C26.2802717,18.9830425 26.669029,20.1308115 26.5466712,21.2223173 C26.4971085,21.6547401 26.399532,22.0083944 26.2214161,22.3813389 C25.7645101,23.3474582 24.9792513,24.0001112 23.6720356,24.5032648 C23.5403847,24.5530979 23.4319664,24.596501 23.4304175,24.5981085 C23.4288687,24.599716 23.5822032,25.1366276 23.7727098,25.7892805 L24.1180997,26.978845 L24.0824766,27.0543985 C24.0623417,27.096194 24.0391092,27.1331669 24.031365,27.1379895 C24.0236209,27.1444196 23.6735844,27.2553384 23.2523016,27.387155 L22.4887266,27.6266755 L22.4128337,27.5832724 L22.3369408,27.5398694 L21.9946486,26.35995 C21.8056908,25.7121196 21.6446121,25.1784231 21.6337703,25.175208 C21.6198308,25.1703855 20.7958512,25.419551 20.7834605,25.4324112 C20.7803629,25.4340187 20.9305997,25.9580701 21.1164598,26.5946479 C21.4076406,27.5977401 21.4525567,27.7617071 21.4448126,27.8260079 C21.4293242,27.956217 21.4200312,27.9610395 20.6177353,28.2102051 C19.9656763,28.4127525 19.8402207,28.4449029 19.7705232,28.4223977 Z M20.7633257,22.5436984 C22.1944481,22.096808 22.5955961,21.9087282 22.8619955,21.5631114 C23.0617951,21.3043008 23.1469809,20.9586841 23.1020647,20.5969922 C23.0075859,19.8559256 22.6281216,19.355987 22.0395647,19.195235 C21.9094627,19.1598696 21.8490582,19.1534395 21.6601005,19.151832 C21.2279758,19.148617 20.9089161,19.2209554 19.7550349,19.5826473 C19.3864124,19.6983887 19.2206872,19.7562594 19.2222253,19.7707271 C19.2237849,19.7835872 19.4173891,20.460353 19.6543607,21.2753654 C19.9192113,22.1868291 20.0911318,22.7542835 20.1019736,22.751082 C20.1112666,22.7478534 20.4086427,22.6546173 20.7633257,22.5436984 Z M19.3260079,17.0427663 C20.1561828,16.7823481 20.3947032,16.6971496 20.6967258,16.5460427 C20.9724182,16.407796 21.14279,16.2888396 21.2945757,16.1313027 C21.6337703,15.7776483 21.7592258,15.3468331 21.6817841,14.805099 C21.6337703,14.4659123 21.4928264,14.0817151 21.319357,13.8116518 C21.217134,13.6541149 21.0080414,13.4370998 20.853158,13.3277884 C20.4132892,13.0159296 20.052411,12.9660965 19.3368497,13.1139883 C19.0905852,13.165429 18.962032,13.2024019 18.2433731,13.4290622 C17.665658,13.6107119 17.5556908,13.6541149 17.5278118,13.7135931 C17.489091,13.7971842 17.535556,13.9772264 18.0884897,15.8869597 C18.3068752,16.6392789 18.4896376,17.2629965 18.4927353,17.2758566 C18.5020283,17.3031845 18.440075,17.3208672 19.3260079,17.0427663 Z" id="Shape" fill="#FFFFFF" fill-rule="nonzero" transform="translate(19.284441, 18.142985) scale(-1, 1) rotate(-180.000000) translate(-19.284441, -18.142985) "></path>
                </g>
            </g>
        </g>
    </g>
</svg>