<?xml version="1.0" encoding="UTF-8"?>
<svg width="431px" height="562px" viewBox="0 0 431 562" version="1.1" xmlns="http://www.w3.org/2000/svg" xmlns:xlink="http://www.w3.org/1999/xlink">
    <title>Group 8</title>
    <defs>
        <filter x="-8.1%" y="-6.0%" width="116.1%" height="112.0%" filterUnits="objectBoundingBox" id="filter-1">
            <feOffset dx="0" dy="6" in="SourceAlpha" result="shadowOffsetOuter1"></feOffset>
            <feGaussianBlur stdDeviation="5" in="shadowOffsetOuter1" result="shadowBlurOuter1"></feGaussianBlur>
            <feColorMatrix values="0 0 0 0 0.0748762814   0 0 0 0 0.395440093   0 0 0 0 0.463768116  0 0 0 0.0854731206 0" type="matrix" in="shadowBlurOuter1" result="shadowMatrixOuter1"></feColorMatrix>
            <feMerge>
                <feMergeNode in="shadowMatrixOuter1"></feMergeNode>
                <feMergeNode in="SourceGraphic"></feMergeNode>
            </feMerge>
        </filter>
        <polygon id="path-2" points="0 0.0180956982 10.7742895 0.0180956982 10.7742895 11.9942215 0 11.9942215"></polygon>
        <polygon id="path-4" points="0 0.0180956982 10.7742895 0.0180956982 10.7742895 11.9942215 0 11.9942215"></polygon>
        <polygon id="path-6" points="0.103303509 0.240141463 52.379807 0.240141463 52.379807 38 0.103303509 38"></polygon>
        <polygon id="path-8" points="0 0.037 52.2773404 0.037 52.2773404 11.037 0 11.037"></polygon>
        <polygon id="path-10" points="0 0.000350999694 26.0001735 0.000350999694 26.0001735 26 0 26"></polygon>
        <polygon id="path-12" points="0 0 2 0 2 4.99991667 0 4.99991667"></polygon>
        <polygon id="path-14" points="0.7305 0 2.7305 0 2.7305 4.99991667 0.7305 4.99991667"></polygon>
        <polygon id="path-16" points="0.5771 0 2.5771 0 2.5771 4.99991667 0.5771 4.99991667"></polygon>
        <polygon id="path-18" points="0.1924 0 2.1924 0 2.1924 4.99991667 0.1924 4.99991667"></polygon>
        <linearGradient x1="50%" y1="15.2544593%" x2="50%" y2="68.3529244%" id="linearGradient-20">
            <stop stop-color="#FFFFFF" stop-opacity="0" offset="0%"></stop>
            <stop stop-color="#FFFFFF" offset="100%"></stop>
        </linearGradient>
    </defs>
    <g id="Landing-page_mobile-layout" stroke="none" stroke-width="1" fill="none" fill-rule="evenodd">
        <g id="landing-page-Dapps" transform="translate(8.000000, -1260.000000)">
            <g id="Group-8" filter="url(#filter-1)" transform="translate(15.000000, 1283.000000)">
                <rect id="Rectangle" fill="#FFFFFF" x="0" y="0" width="385" height="516" rx="12"></rect>
                <g id="Group-9" transform="translate(38.000000, 125.000000)">
                    <g id="Group-29" transform="translate(186.000000, 89.000000)">
                        <g id="lock-copy" fill-rule="nonzero">
                            <path d="M21.2964869,13.5925926 C23.4208329,13.5925926 25.3483066,14.4556388 26.7439268,15.8526966 C28.1380556,17.2482615 29,19.175462 29,21.2999208 C29,22.7242603 28.6088195,24.0876046 27.9044718,25.2632293 C27.4723752,25.9844404 26.9222758,26.6352366 26.2714013,27.1858312 L26.2714013,27.1858312 L26.2405265,31.4515554 C26.2352596,32.819349 25.6822889,34.0450483 24.8037745,34.9338527 C23.9010429,35.847158 22.6525129,36.4074074 21.2762865,36.4074074 C19.9113393,36.4074074 18.6717074,35.8551149 17.7725647,34.9589592 C16.8676313,34.0570321 16.3093133,32.8081303 16.3120085,31.4318312 L16.3120085,31.4318312 L16.3427074,27.2043256 C15.6882024,26.6550331 15.1349349,26.0049857 14.6999233,25.2839676 C13.9883409,24.1045423 13.5925926,22.7342302 13.5925926,21.2999208 C13.5925926,19.1753765 14.4545962,17.2481064 15.848901,15.8525089 C17.2444954,14.4556206 19.1719432,13.5925926 21.2964869,13.5925926 Z" id="Path" stroke="#5A78F0" stroke-width="8" fill="#F9F9F9"></path>
                            <path d="M42.5429594,13.5658264 L42.5414329,13.5272979 C42.5196816,13.0470275 42.5051807,12.5385284 42.4964039,11.9731903 C42.4555724,9.21630859 40.2632649,6.93588262 37.5050405,6.78215029 C31.7542878,6.46095273 27.3055635,4.58641055 23.504419,0.883102441 L23.4719828,0.85220332 C22.231774,-0.284194922 20.3615392,-0.283813477 19.1220936,0.851821875 L19.0892758,0.883102441 C15.2881313,4.58641055 10.8394069,6.46095273 5.08865426,6.78215029 C2.33042994,6.93588262 0.138122345,9.21630859 0.0972909295,11.9735718 C0.0888956213,12.5354767 0.0740130915,13.0435943 0.0522617619,13.5272979 L0.0499721946,13.6177063 C-0.0618373725,19.4797516 -0.200740854,26.7749786 2.24075328,33.3972931 C3.58323163,37.0388031 5.61602915,40.2042389 8.2830504,42.8058624 C11.3209896,45.7691192 15.2995793,48.1216431 20.1092997,49.7982025 C20.2657569,49.8527527 20.427938,49.8970031 20.593172,49.9298096 C20.8267128,49.9767304 21.0617801,50 21.2968474,50 C21.5319146,50 21.7673635,49.9767304 22.0005227,49.9298096 C22.1657568,49.8970031 22.3290826,49.8523712 22.4870662,49.7974396 C27.2902994,48.1182099 31.2646915,45.7645416 34.2995778,42.8016662 C36.9654543,40.1988983 38.9986335,37.0323182 40.3422567,33.3904267 C42.7929091,26.7482758 42.6543873,19.4389344 42.5429594,13.5658264 Z M25.2109462,26.6166687 L25.176602,31.3968658 C25.1731676,33.5445404 23.424664,35.2905273 21.2758592,35.2905273 C19.1251465,35.2905273 17.375498,33.5414887 17.375498,31.3915253 L17.375498,31.3808441 L17.4094607,26.6380311 C15.6891956,25.3997803 14.6527628,23.4088897 14.6527628,21.2505341 C14.6527628,17.5888062 17.6326983,14.6095275 21.2960842,14.6095275 C24.9590886,14.6095275 27.9394056,17.5888062 27.9394056,21.2505341 C27.9394056,23.393631 26.913276,25.3765106 25.2109462,26.6166687 Z" id="Shape" fill="#CDF4EE"></path>
                        </g>
                        <text id="SafeSend-transaction" font-family="SFProText-Regular, SF Pro Text" font-size="14" font-weight="normal" fill="#334758">
                            <tspan x="62" y="22">SafeSend </tspan>
                            <tspan x="62" y="38">transaction </tspan>
                        </text>
                    </g>
                    <g id="Group-45" transform="translate(180.000000, 3.000000)">
                        <g id="Group-13-Copy-2" fill="#CDF4EE">
                            <rect id="Rectangle-4" x="0.836363636" y="0.783164983" width="52.2469136" height="50" rx="14"></rect>
                        </g>
                        <g id="Group-10" transform="translate(4.000000, 20.000000)">
                            <path d="M37.1556711,6.73894329 L37.1556711,10.5193553 L37.2625817,10.5193553 C38.9500516,10.5193553 40.6375215,10.5210859 42.3249914,10.517826 C42.6439702,10.5172223 42.9269913,10.7652574 42.9861875,11.1123375 C43.0652189,11.575567 42.7962578,11.9971824 42.4055353,11.9976251 C40.4168249,11.9997984 38.4281144,11.9973031 36.4394039,12 C36.1211814,12.0004021 35.8344132,11.694091 35.8178782,11.3301479 C35.8106247,11.1706939 35.800965,11.0111192 35.8009306,10.8515847 C35.8,7.51669405 35.7993493,4.18180341 35.80124,0.846953013 C35.8014462,0.441154257 35.9709564,0.146192531 36.2737783,0.0326590296 C36.3302244,0.0114897203 36.3921363,0.00134776984 36.4515732,0.001307524 C38.4285613,-0.000262063571 40.4055838,0 42.3826063,0 C42.7123449,0 42.9880095,0.318243476 42.998288,0.72029937 C43.0081197,1.1050898 42.7952952,1.3650779 42.5597136,1.44395973 C42.4970454,1.46496806 42.4300114,1.47776623 42.3649368,1.47784673 C40.6657445,1.47965779 38.9666211,1.47929558 37.2674288,1.47929558 L37.1573899,1.47929558 L37.1573899,5.25966737 L37.2609317,5.25966737 C38.7963203,5.25966737 40.3317432,5.26184064 41.8671318,5.2579368 C42.1880357,5.25713188 42.466141,5.59547862 42.4697161,5.96996611 C42.4724319,6.2551481 42.3866627,6.47875396 42.1710538,6.62782454 C42.0640056,6.70183663 41.950254,6.73837985 41.8280802,6.73846034 C40.307336,6.73922501 38.786523,6.73894329 37.2657444,6.73894329 L37.1556711,6.73894329 Z" id="Fill-1" stroke="#00C0A5" stroke-width="0.5" fill="#05C0A5"></path>
                            <g id="Group-5">
                                <mask id="mask-3" fill="white">
                                    <use xlink:href="#path-2"></use>
                                </mask>
                                <g id="Clip-4"></g>
                                <path d="M1.75314412,6.72852277 C1.5058748,6.72852277 1.27381126,6.72931485 1.04174773,6.72836436 C0.62082065,6.72670099 0.298614152,6.39014653 0.296664693,5.97359208 C0.294988159,5.61961188 0.490401877,5.33561188 0.822121733,5.2208 C0.885596101,5.1988198 0.957141227,5.19351287 1.02502137,5.19315644 C1.47589213,5.19085941 1.92676289,5.19196832 2.37775061,5.19196832 C2.5689535,4.72289901 2.75925964,4.25834455 2.94765531,3.79299802 C3.12139105,3.3638495 3.29200765,2.93335446 3.46589935,2.50428515 C3.62996578,2.09937426 3.79535783,1.69497822 3.9625044,1.29137426 C4.05307625,1.07272079 4.1371369,0.850106931 4.24459105,0.640126733 C4.38846108,0.35909703 4.59280332,0.135493069 4.91044809,0.052760396 C4.979147,0.0348594059 5.05077011,0.0175920792 5.12091162,0.0180956982 C5.35496361,0.019770297 5.59061415,0.0147009901 5.82252173,0.0409188119 C6.0281896,0.0641663366 6.19061848,0.191334653 6.33195422,0.343215842 C6.62339827,0.656245545 6.71857083,1.07089901 6.8842748,1.44800792 C7.04799032,1.82052277 7.19291307,2.20155248 7.34485386,2.57933465 C7.55196433,3.09422574 7.75654051,3.61018614 7.96485964,4.12456238 C8.14865458,4.57830495 8.3372452,5.03006733 8.52162498,5.48353267 C8.68237733,5.87893861 8.8390748,6.27600792 8.99971018,6.67149307 C9.19750224,7.15846337 9.39845242,7.64420594 9.59628347,8.13121584 C9.75691884,8.52666139 9.91346036,8.9238495 10.0745246,9.31909703 C10.2579687,9.76939406 10.4430113,10.2190574 10.6300813,10.6678099 C10.7172221,10.8768 10.789586,11.0851168 10.771495,11.3199287 C10.7439687,11.6772356 10.4961145,11.9542653 10.1352697,11.9889584 C9.85111668,12.0162851 9.61550513,11.9390574 9.44364087,11.7136713 C9.34975495,11.5905822 9.27930152,11.4442851 9.22054484,11.2991762 C9.02095928,10.8061861 8.83182282,10.3088 8.63761776,9.81355248 C8.39307769,9.18986931 8.14845964,8.56626535 7.90212606,7.94337426 C7.70526975,7.44551287 7.50408563,6.94947327 7.30777516,6.45141386 C7.04654773,5.78844356 6.78953112,5.12373069 6.52810874,4.46087921 C6.30512968,3.89565149 6.07762787,3.33224554 5.85383004,2.76733465 C5.71233834,2.41022574 5.57419971,2.0517703 5.43379971,1.69422574 C5.42327264,1.66737426 5.40670224,1.64301782 5.38720765,1.60689901 C4.91348924,2.80487921 4.4445665,3.9907802 3.96960043,5.19196832 C4.19499682,5.19196832 4.40339394,5.20159208 4.61058238,5.19002772 C5.06745747,5.16444356 5.4162156,5.55430495 5.40155567,5.98369109 C5.39122354,6.28567129 5.17288419,6.61913663 4.88467625,6.69188911 C4.81586036,6.70927525 4.74466614,6.72634455 4.67440765,6.72693861 C4.26642498,6.73022574 3.8584813,6.72911683 3.45049863,6.7278495 C3.39365242,6.72769109 3.3620322,6.73513663 3.3357535,6.80254257 C2.94917588,7.7938297 2.55752968,8.78313663 2.16596144,9.77244356 C1.93631523,10.3526812 1.71321921,10.9357703 1.47039466,11.5102653 C1.35362209,11.7864238 1.14350946,11.9653149 0.827814152,11.9869386 C0.516602599,12.0082851 0.253113791,11.9261465 0.0986776895,11.6270574 C-0.0269454152,11.3837703 -0.0294797112,11.1259089 0.0731787726,10.8704634 C0.315652419,10.267097 0.558632924,9.66388911 0.803250975,9.06139406 C1.04669935,8.4618297 1.29264303,7.86325545 1.53706614,7.26408713 C1.60865025,7.08872079 1.67886975,6.91272079 1.75314412,6.72852277" id="Fill-3" stroke="#00C0A5" stroke-width="0.5" fill="#05C0A5" mask="url(#mask-3)"></path>
                            </g>
                            <path d="M17.4008213,1.58940605 C16.9233805,2.79600482 16.4519981,3.98734875 15.9766288,5.18871729 C16.2103657,5.18871729 16.4322203,5.19101542 16.6540359,5.18824182 C17.135698,5.18225875 17.4834891,5.63455498 17.3978117,6.10289852 C17.3307784,6.46933178 16.9843553,6.73425098 16.6490719,6.72795092 C16.2237333,6.71994708 15.7981602,6.7260094 15.3671931,6.7260094 C15.1634746,7.24669489 14.9617886,7.76670678 14.756663,8.28529225 C14.5462998,8.81719104 14.3313635,9.34718793 14.1206876,9.87892823 C13.9124741,10.4044477 13.7141496,10.934088 13.4976107,11.4560414 C13.3775372,11.7453287 13.1756948,11.9497437 12.843421,11.987227 C12.6108176,12.0134574 12.3990473,11.9647608 12.2269888,11.8098349 C12.0813919,11.6787622 12.0221759,11.4953474 12.0034144,11.2974703 C11.979259,11.04317 12.0880756,10.826472 12.1783262,10.603355 C12.3755564,10.1157944 12.5708713,9.62752046 12.7689614,9.14035601 C13.0265019,8.50694316 13.2859967,7.87428315 13.5446708,7.24134578 C13.6129939,7.07417646 13.6814342,6.90704676 13.755503,6.7260094 C13.5170367,6.7260094 13.2868566,6.72561317 13.0566375,6.72612827 C12.7797883,6.72672261 12.564383,6.61066692 12.4095616,6.37823856 C12.2208523,6.09505318 12.2607204,5.66371749 12.4946918,5.4270891 C12.6555716,5.26443679 12.8409586,5.18633991 13.0662528,5.18788521 C13.4752533,5.19077769 13.8842928,5.18685501 14.2932933,5.1904607 C14.3657205,5.19109467 14.3947617,5.16438879 14.4208714,5.09861465 C14.5835492,4.68919047 14.7519335,4.28214367 14.9177773,3.87402705 C15.0909693,3.44768386 15.2630669,3.02086519 15.436337,2.59460125 C15.5886178,2.22000566 15.7409376,1.84541008 15.8950554,1.47156733 C16.006569,1.20102167 16.112806,0.927781646 16.2363582,0.662902072 C16.3619038,0.393822462 16.5575705,0.187466019 16.8347325,0.0712914622 C16.8673305,0.0576215366 16.9016484,0.0426836757 16.9360836,0.0397911987 C17.3243292,0.00730036087 17.7166788,-0.0639813675 18.0863974,0.131676873 C18.3069231,0.248366528 18.4627607,0.43657565 18.5654799,0.657434102 C18.7247571,0.999895457 18.8621459,1.35289652 19.0057495,1.70272775 C19.1592419,2.07668937 19.3093338,2.45203779 19.4605592,2.82695036 C19.6708052,3.34819057 19.8790577,3.87026287 20.0911798,4.39071062 C20.323236,4.96005311 20.5603734,5.52725597 20.7921559,6.09667772 C20.9990795,6.60500084 21.2000229,7.11585983 21.4066338,7.62434144 C21.6157462,8.13904386 21.8300963,8.65160664 22.0394432,9.16626943 C22.2363607,9.65030367 22.430933,10.1354077 22.62402,10.6210269 C22.683275,10.7700489 22.7573047,10.9182784 22.7845479,11.074076 C22.8544345,11.4734359 22.6893725,11.8813148 22.2462495,11.9770439 C21.840376,12.0647295 21.4883245,11.9031867 21.3057908,11.4584584 C21.0874149,10.9265596 20.8808431,10.389708 20.6702454,9.85452048 C20.4078972,9.18786395 20.1478551,8.52021686 19.8844907,7.85395657 C19.6464543,7.251727 19.4041966,6.65120122 19.1657693,6.04909053 C18.9056491,5.39218126 18.648734,4.73392481 18.3885746,4.07701554 C18.1913445,3.57887552 17.9905184,3.08216193 17.7925065,2.5843389 C17.6626223,2.25776636 17.5349269,1.93028249 17.4008213,1.58940605" id="Fill-6" stroke="#5A78F0" stroke-width="0.5" fill="#5A78F0"></path>
                            <path d="M27.8044558,10.406855 C28.0826773,9.70066664 28.358122,9.00030442 28.6345053,8.30025927 C28.9531654,7.49296607 29.2718646,6.68567288 29.5919718,5.87901382 C29.818804,5.30746023 30.0492342,4.7374127 30.2756753,4.16570057 C30.5347334,3.51163019 30.7908191,2.85633117 31.048743,2.20182483 C31.2548865,1.67870327 31.4630637,1.15645366 31.6677993,0.632777239 C31.7500847,0.422363396 31.8617409,0.235967407 32.0567383,0.114926933 C32.4206476,-0.110904311 33.0922273,0.00323994702 33.1882399,0.606064312 C33.2294999,0.864949832 33.1560923,1.08840307 33.0628956,1.31550259 C32.8968779,1.7201202 32.7312121,2.12489635 32.5655855,2.5296725 C32.4124347,2.90404982 32.2592838,3.27842713 32.1067196,3.65300261 C31.9466856,4.04580947 31.7873164,4.43893339 31.6276344,4.83189878 C31.4741316,5.20968457 31.3209807,5.58754963 31.1670086,5.96513725 C31.0093602,6.35188019 30.8504994,6.73806827 30.6929684,7.12481121 C30.5379794,7.50549024 30.3834598,7.88628817 30.2297223,8.26748243 C30.0218579,8.78271693 29.8172005,9.2993386 29.6069114,9.81358226 C29.3977956,10.3250912 29.1963843,10.840405 28.9667753,11.3423623 C28.8189824,11.6653747 28.5757244,11.9174829 28.2108375,11.9766952 C27.9960117,12.011533 27.7716434,12 27.552633,11.9885853 C27.4219307,11.9817683 27.2861834,11.9522018 27.165141,11.9020655 C26.9386608,11.8080946 26.7778446,11.6286741 26.6723676,11.4095409 C26.5385757,11.1315917 26.4185893,10.8465482 26.2995806,10.5615839 C26.1424015,10.1855023 25.9912844,9.80680495 25.8386419,9.42878136 C25.6429014,8.94402496 25.4500158,8.45811919 25.2528282,7.9739573 C25.0072237,7.37089513 24.7569652,6.76973537 24.5115562,6.16663357 C24.3046696,5.65805749 24.1032192,5.14726193 23.8968018,4.63852731 C23.6890548,4.12654275 23.4772405,3.61630206 23.2689068,3.10459494 C23.0370296,2.53514191 22.8062865,1.96517366 22.5767166,1.39476943 C22.5204388,1.25486345 22.4501208,1.11638427 22.4214539,0.970136937 C22.3377998,0.543245337 22.4941967,0.12808523 22.9715611,0.0175079793 C23.2988252,-0.058310759 23.6920271,0.118057974 23.8360656,0.431637617 C23.9677065,0.7182269 24.0815137,1.01341663 24.1980194,1.3068625 C24.3946203,1.80180469 24.5868802,2.29853038 24.7814083,2.79430487 C24.9602929,3.2502874 25.1387473,3.70642847 25.3193135,4.1616976 C25.529016,4.69048673 25.7423556,5.21776979 25.9513932,5.74679672 C26.2147923,6.413312 26.4741241,7.08145224 26.7375232,7.74796752 C26.9224305,8.21587971 27.1123047,8.68181023 27.297877,9.14944499 C27.4517709,9.53741657 27.6024187,9.92677532 27.7554131,10.3151829 C27.7673414,10.3454628 27.7861528,10.373008 27.8044558,10.406855" id="Fill-8" stroke="#00C0A5" stroke-width="0.5" fill="#05C0A5"></path>
                        </g>
                    </g>
                    <text id="Aave" font-family="SFProText-Regular, SF Pro Text" font-size="14" font-weight="normal" fill="#334758">
                        <tspan x="248" y="32">Aave </tspan>
                    </text>
                    <g id="Group-10" transform="translate(2.000000, 0.000000)">
                        <g id="Group-5-Copy">
                            <path d="M24.1237939,3.5293698 L3.66817003,23.5659262 C1.69544587,25.4982359 1.66268342,28.6638912 3.59499305,30.6366154 C3.62599581,30.6682666 3.65741789,30.6995043 3.68925098,30.7303203 L24.2790846,50.6622704 C26.2057808,52.527405 29.2607801,52.5405323 31.2034337,50.6920241 L51.2139781,31.6512363 C53.214472,29.7476909 53.2930643,26.5828416 51.3895189,24.5823477 C51.3828932,24.5753845 51.3762473,24.5684404 51.3695816,24.5615156 L31.2248273,3.63379682 C29.3097766,1.644314 26.1445267,1.58397485 24.1550439,3.49902556 C24.1445832,3.50909489 24.1341665,3.51920973 24.1237939,3.5293698 Z" id="Path-5" fill="#CDF4EE"></path>
                            <line x1="13.7142857" y1="24.8571429" x2="27.4145199" y2="11.148092" id="Line-3" stroke="#5A78F0" stroke-width="4.5" stroke-linecap="round" fill-rule="nonzero"></line>
                            <line x1="27.1615925" y1="25.7142857" x2="40.8899297" y2="11.148092" id="Line-3" stroke="#5A78F0" stroke-width="4.5" stroke-linecap="round" fill-rule="nonzero" transform="translate(34.152225, 18.449649) scale(-1, 1) translate(-34.152225, -18.449649) "></line>
                        </g>
                        <text id="MakerDAO" font-family="SFProText-Regular, SF Pro Text" font-size="14" font-weight="normal" fill="#334758">
                            <tspan x="69" y="31">MakerDAO</tspan>
                        </text>
                    </g>
                    <g id="Group-45" transform="translate(178.000000, 263.000000)">
                        <g id="Group-13-Copy-2" fill="#CDF4EE">
                            <rect id="Rectangle-4" x="0.836363636" y="0.783164983" width="52.2469136" height="50" rx="14"></rect>
                        </g>
                        <g id="Group-10" transform="translate(6.000000, 20.000000)">
                            <path d="M37.1556711,6.73894329 L37.1556711,10.5193553 L37.2625817,10.5193553 C38.9500516,10.5193553 40.6375215,10.5210859 42.3249914,10.517826 C42.6439702,10.5172223 42.9269913,10.7652574 42.9861875,11.1123375 C43.0652189,11.575567 42.7962578,11.9971824 42.4055353,11.9976251 C40.4168249,11.9997984 38.4281144,11.9973031 36.4394039,12 C36.1211814,12.0004021 35.8344132,11.694091 35.8178782,11.3301479 C35.8106247,11.1706939 35.800965,11.0111192 35.8009306,10.8515847 C35.8,7.51669405 35.7993493,4.18180341 35.80124,0.846953013 C35.8014462,0.441154257 35.9709564,0.146192531 36.2737783,0.0326590296 C36.3302244,0.0114897203 36.3921363,0.00134776984 36.4515732,0.001307524 C38.4285613,-0.000262063571 40.4055838,0 42.3826063,0 C42.7123449,0 42.9880095,0.318243476 42.998288,0.72029937 C43.0081197,1.1050898 42.7952952,1.3650779 42.5597136,1.44395973 C42.4970454,1.46496806 42.4300114,1.47776623 42.3649368,1.47784673 C40.6657445,1.47965779 38.9666211,1.47929558 37.2674288,1.47929558 L37.1573899,1.47929558 L37.1573899,5.25966737 L37.2609317,5.25966737 C38.7963203,5.25966737 40.3317432,5.26184064 41.8671318,5.2579368 C42.1880357,5.25713188 42.466141,5.59547862 42.4697161,5.96996611 C42.4724319,6.2551481 42.3866627,6.47875396 42.1710538,6.62782454 C42.0640056,6.70183663 41.950254,6.73837985 41.8280802,6.73846034 C40.307336,6.73922501 38.786523,6.73894329 37.2657444,6.73894329 L37.1556711,6.73894329 Z" id="Fill-1" stroke="#00C0A5" stroke-width="0.5" fill="#05C0A5"></path>
                            <g id="Group-5">
                                <mask id="mask-5" fill="white">
                                    <use xlink:href="#path-4"></use>
                                </mask>
                                <g id="Clip-4"></g>
                                <path d="M1.75314412,6.72852277 C1.5058748,6.72852277 1.27381126,6.72931485 1.04174773,6.72836436 C0.62082065,6.72670099 0.298614152,6.39014653 0.296664693,5.97359208 C0.294988159,5.61961188 0.490401877,5.33561188 0.822121733,5.2208 C0.885596101,5.1988198 0.957141227,5.19351287 1.02502137,5.19315644 C1.47589213,5.19085941 1.92676289,5.19196832 2.37775061,5.19196832 C2.5689535,4.72289901 2.75925964,4.25834455 2.94765531,3.79299802 C3.12139105,3.3638495 3.29200765,2.93335446 3.46589935,2.50428515 C3.62996578,2.09937426 3.79535783,1.69497822 3.9625044,1.29137426 C4.05307625,1.07272079 4.1371369,0.850106931 4.24459105,0.640126733 C4.38846108,0.35909703 4.59280332,0.135493069 4.91044809,0.052760396 C4.979147,0.0348594059 5.05077011,0.0175920792 5.12091162,0.0180956982 C5.35496361,0.019770297 5.59061415,0.0147009901 5.82252173,0.0409188119 C6.0281896,0.0641663366 6.19061848,0.191334653 6.33195422,0.343215842 C6.62339827,0.656245545 6.71857083,1.07089901 6.8842748,1.44800792 C7.04799032,1.82052277 7.19291307,2.20155248 7.34485386,2.57933465 C7.55196433,3.09422574 7.75654051,3.61018614 7.96485964,4.12456238 C8.14865458,4.57830495 8.3372452,5.03006733 8.52162498,5.48353267 C8.68237733,5.87893861 8.8390748,6.27600792 8.99971018,6.67149307 C9.19750224,7.15846337 9.39845242,7.64420594 9.59628347,8.13121584 C9.75691884,8.52666139 9.91346036,8.9238495 10.0745246,9.31909703 C10.2579687,9.76939406 10.4430113,10.2190574 10.6300813,10.6678099 C10.7172221,10.8768 10.789586,11.0851168 10.771495,11.3199287 C10.7439687,11.6772356 10.4961145,11.9542653 10.1352697,11.9889584 C9.85111668,12.0162851 9.61550513,11.9390574 9.44364087,11.7136713 C9.34975495,11.5905822 9.27930152,11.4442851 9.22054484,11.2991762 C9.02095928,10.8061861 8.83182282,10.3088 8.63761776,9.81355248 C8.39307769,9.18986931 8.14845964,8.56626535 7.90212606,7.94337426 C7.70526975,7.44551287 7.50408563,6.94947327 7.30777516,6.45141386 C7.04654773,5.78844356 6.78953112,5.12373069 6.52810874,4.46087921 C6.30512968,3.89565149 6.07762787,3.33224554 5.85383004,2.76733465 C5.71233834,2.41022574 5.57419971,2.0517703 5.43379971,1.69422574 C5.42327264,1.66737426 5.40670224,1.64301782 5.38720765,1.60689901 C4.91348924,2.80487921 4.4445665,3.9907802 3.96960043,5.19196832 C4.19499682,5.19196832 4.40339394,5.20159208 4.61058238,5.19002772 C5.06745747,5.16444356 5.4162156,5.55430495 5.40155567,5.98369109 C5.39122354,6.28567129 5.17288419,6.61913663 4.88467625,6.69188911 C4.81586036,6.70927525 4.74466614,6.72634455 4.67440765,6.72693861 C4.26642498,6.73022574 3.8584813,6.72911683 3.45049863,6.7278495 C3.39365242,6.72769109 3.3620322,6.73513663 3.3357535,6.80254257 C2.94917588,7.7938297 2.55752968,8.78313663 2.16596144,9.77244356 C1.93631523,10.3526812 1.71321921,10.9357703 1.47039466,11.5102653 C1.35362209,11.7864238 1.14350946,11.9653149 0.827814152,11.9869386 C0.516602599,12.0082851 0.253113791,11.9261465 0.0986776895,11.6270574 C-0.0269454152,11.3837703 -0.0294797112,11.1259089 0.0731787726,10.8704634 C0.315652419,10.267097 0.558632924,9.66388911 0.803250975,9.06139406 C1.04669935,8.4618297 1.29264303,7.86325545 1.53706614,7.26408713 C1.60865025,7.08872079 1.67886975,6.91272079 1.75314412,6.72852277" id="Fill-3" stroke="#00C0A5" stroke-width="0.5" fill="#05C0A5" mask="url(#mask-5)"></path>
                            </g>
                            <path d="M17.4008213,1.58940605 C16.9233805,2.79600482 16.4519981,3.98734875 15.9766288,5.18871729 C16.2103657,5.18871729 16.4322203,5.19101542 16.6540359,5.18824182 C17.135698,5.18225875 17.4834891,5.63455498 17.3978117,6.10289852 C17.3307784,6.46933178 16.9843553,6.73425098 16.6490719,6.72795092 C16.2237333,6.71994708 15.7981602,6.7260094 15.3671931,6.7260094 C15.1634746,7.24669489 14.9617886,7.76670678 14.756663,8.28529225 C14.5462998,8.81719104 14.3313635,9.34718793 14.1206876,9.87892823 C13.9124741,10.4044477 13.7141496,10.934088 13.4976107,11.4560414 C13.3775372,11.7453287 13.1756948,11.9497437 12.843421,11.987227 C12.6108176,12.0134574 12.3990473,11.9647608 12.2269888,11.8098349 C12.0813919,11.6787622 12.0221759,11.4953474 12.0034144,11.2974703 C11.979259,11.04317 12.0880756,10.826472 12.1783262,10.603355 C12.3755564,10.1157944 12.5708713,9.62752046 12.7689614,9.14035601 C13.0265019,8.50694316 13.2859967,7.87428315 13.5446708,7.24134578 C13.6129939,7.07417646 13.6814342,6.90704676 13.755503,6.7260094 C13.5170367,6.7260094 13.2868566,6.72561317 13.0566375,6.72612827 C12.7797883,6.72672261 12.564383,6.61066692 12.4095616,6.37823856 C12.2208523,6.09505318 12.2607204,5.66371749 12.4946918,5.4270891 C12.6555716,5.26443679 12.8409586,5.18633991 13.0662528,5.18788521 C13.4752533,5.19077769 13.8842928,5.18685501 14.2932933,5.1904607 C14.3657205,5.19109467 14.3947617,5.16438879 14.4208714,5.09861465 C14.5835492,4.68919047 14.7519335,4.28214367 14.9177773,3.87402705 C15.0909693,3.44768386 15.2630669,3.02086519 15.436337,2.59460125 C15.5886178,2.22000566 15.7409376,1.84541008 15.8950554,1.47156733 C16.006569,1.20102167 16.112806,0.927781646 16.2363582,0.662902072 C16.3619038,0.393822462 16.5575705,0.187466019 16.8347325,0.0712914622 C16.8673305,0.0576215366 16.9016484,0.0426836757 16.9360836,0.0397911987 C17.3243292,0.00730036087 17.7166788,-0.0639813675 18.0863974,0.131676873 C18.3069231,0.248366528 18.4627607,0.43657565 18.5654799,0.657434102 C18.7247571,0.999895457 18.8621459,1.35289652 19.0057495,1.70272775 C19.1592419,2.07668937 19.3093338,2.45203779 19.4605592,2.82695036 C19.6708052,3.34819057 19.8790577,3.87026287 20.0911798,4.39071062 C20.323236,4.96005311 20.5603734,5.52725597 20.7921559,6.09667772 C20.9990795,6.60500084 21.2000229,7.11585983 21.4066338,7.62434144 C21.6157462,8.13904386 21.8300963,8.65160664 22.0394432,9.16626943 C22.2363607,9.65030367 22.430933,10.1354077 22.62402,10.6210269 C22.683275,10.7700489 22.7573047,10.9182784 22.7845479,11.074076 C22.8544345,11.4734359 22.6893725,11.8813148 22.2462495,11.9770439 C21.840376,12.0647295 21.4883245,11.9031867 21.3057908,11.4584584 C21.0874149,10.9265596 20.8808431,10.389708 20.6702454,9.85452048 C20.4078972,9.18786395 20.1478551,8.52021686 19.8844907,7.85395657 C19.6464543,7.251727 19.4041966,6.65120122 19.1657693,6.04909053 C18.9056491,5.39218126 18.648734,4.73392481 18.3885746,4.07701554 C18.1913445,3.57887552 17.9905184,3.08216193 17.7925065,2.5843389 C17.6626223,2.25776636 17.5349269,1.93028249 17.4008213,1.58940605" id="Fill-6" stroke="#5A78F0" stroke-width="0.5" fill="#5A78F0"></path>
                            <path d="M27.8044558,10.406855 C28.0826773,9.70066664 28.358122,9.00030442 28.6345053,8.30025927 C28.9531654,7.49296607 29.2718646,6.68567288 29.5919718,5.87901382 C29.818804,5.30746023 30.0492342,4.7374127 30.2756753,4.16570057 C30.5347334,3.51163019 30.7908191,2.85633117 31.048743,2.20182483 C31.2548865,1.67870327 31.4630637,1.15645366 31.6677993,0.632777239 C31.7500847,0.422363396 31.8617409,0.235967407 32.0567383,0.114926933 C32.4206476,-0.110904311 33.0922273,0.00323994702 33.1882399,0.606064312 C33.2294999,0.864949832 33.1560923,1.08840307 33.0628956,1.31550259 C32.8968779,1.7201202 32.7312121,2.12489635 32.5655855,2.5296725 C32.4124347,2.90404982 32.2592838,3.27842713 32.1067196,3.65300261 C31.9466856,4.04580947 31.7873164,4.43893339 31.6276344,4.83189878 C31.4741316,5.20968457 31.3209807,5.58754963 31.1670086,5.96513725 C31.0093602,6.35188019 30.8504994,6.73806827 30.6929684,7.12481121 C30.5379794,7.50549024 30.3834598,7.88628817 30.2297223,8.26748243 C30.0218579,8.78271693 29.8172005,9.2993386 29.6069114,9.81358226 C29.3977956,10.3250912 29.1963843,10.840405 28.9667753,11.3423623 C28.8189824,11.6653747 28.5757244,11.9174829 28.2108375,11.9766952 C27.9960117,12.011533 27.7716434,12 27.552633,11.9885853 C27.4219307,11.9817683 27.2861834,11.9522018 27.165141,11.9020655 C26.9386608,11.8080946 26.7778446,11.6286741 26.6723676,11.4095409 C26.5385757,11.1315917 26.4185893,10.8465482 26.2995806,10.5615839 C26.1424015,10.1855023 25.9912844,9.80680495 25.8386419,9.42878136 C25.6429014,8.94402496 25.4500158,8.45811919 25.2528282,7.9739573 C25.0072237,7.37089513 24.7569652,6.76973537 24.5115562,6.16663357 C24.3046696,5.65805749 24.1032192,5.14726193 23.8968018,4.63852731 C23.6890548,4.12654275 23.4772405,3.61630206 23.2689068,3.10459494 C23.0370296,2.53514191 22.8062865,1.96517366 22.5767166,1.39476943 C22.5204388,1.25486345 22.4501208,1.11638427 22.4214539,0.970136937 C22.3377998,0.543245337 22.4941967,0.12808523 22.9715611,0.0175079793 C23.2988252,-0.058310759 23.6920271,0.118057974 23.8360656,0.431637617 C23.9677065,0.7182269 24.0815137,1.01341663 24.1980194,1.3068625 C24.3946203,1.80180469 24.5868802,2.29853038 24.7814083,2.79430487 C24.9602929,3.2502874 25.1387473,3.70642847 25.3193135,4.1616976 C25.529016,4.69048673 25.7423556,5.21776979 25.9513932,5.74679672 C26.2147923,6.413312 26.4741241,7.08145224 26.7375232,7.74796752 C26.9224305,8.21587971 27.1123047,8.68181023 27.297877,9.14944499 C27.4517709,9.53741657 27.6024187,9.92677532 27.7554131,10.3151829 C27.7673414,10.3454628 27.7861528,10.373008 27.8044558,10.406855" id="Fill-8" stroke="#00C0A5" stroke-width="0.5" fill="#05C0A5"></path>
                        </g>
                    </g>
                    <text id="Aave" font-family="SFProText-Regular, SF Pro Text" font-size="14" font-weight="normal" fill="#334758">
                        <tspan x="249" y="292">Aave </tspan>
                    </text>
                    <g id="Group-10" transform="translate(2.000000, 260.000000)">
                        <g id="Group-5-Copy">
                            <path d="M24.1237939,3.5293698 L3.66817003,23.5659262 C1.69544587,25.4982359 1.66268342,28.6638912 3.59499305,30.6366154 C3.62599581,30.6682666 3.65741789,30.6995043 3.68925098,30.7303203 L24.2790846,50.6622704 C26.2057808,52.527405 29.2607801,52.5405323 31.2034337,50.6920241 L51.2139781,31.6512363 C53.214472,29.7476909 53.2930643,26.5828416 51.3895189,24.5823477 C51.3828932,24.5753845 51.3762473,24.5684404 51.3695816,24.5615156 L31.2248273,3.63379682 C29.3097766,1.644314 26.1445267,1.58397485 24.1550439,3.49902556 C24.1445832,3.50909489 24.1341665,3.51920973 24.1237939,3.5293698 Z" id="Path-5" fill="#CDF4EE"></path>
                            <line x1="13.7142857" y1="24.8571429" x2="27.4145199" y2="11.148092" id="Line-3" stroke="#5A78F0" stroke-width="4.5" stroke-linecap="round" fill-rule="nonzero"></line>
                            <line x1="27.1615925" y1="25.7142857" x2="40.8899297" y2="11.148092" id="Line-3" stroke="#5A78F0" stroke-width="4.5" stroke-linecap="round" fill-rule="nonzero" transform="translate(34.152225, 18.449649) scale(-1, 1) translate(-34.152225, -18.449649) "></line>
                        </g>
                        <text id="MakerDAO" font-family="SFProText-Regular, SF Pro Text" font-size="14" font-weight="normal" fill="#334758">
                            <tspan x="69" y="31">MakerDAO</tspan>
                        </text>
                    </g>
                    <g id="Group-11" transform="translate(1.000000, 89.000000)">
                        <g id="Group-3" transform="translate(0.000000, 12.000000)">
                            <mask id="mask-7" fill="white">
                                <use xlink:href="#path-6"></use>
                            </mask>
                            <g id="Clip-2"></g>
                            <path d="M0.103303509,0.240141463 L52.3808298,0.240141463 L52.3808298,34.2927756 C52.3808298,36.3401415 50.715514,38.0000927 48.6615316,38.0000927 L3.82260175,38.0000927 C1.7686193,38.0000927 0.103303509,36.3401415 0.103303509,34.2927756 L0.103303509,0.240141463 Z" id="Fill-1" fill="#CDF4EE" mask="url(#mask-7)"></path>
                        </g>
                        <g id="Group-6">
                            <mask id="mask-9" fill="white">
                                <use xlink:href="#path-8"></use>
                            </mask>
                            <g id="Clip-5"></g>
                            <path d="M-0.000185964912,11.037 L52.2773404,11.037 L52.2773404,4.037 C52.2773404,1.828 50.6120246,0.037 48.5580421,0.037 L3.71911228,0.037 C1.66512982,0.037 -0.000185964912,1.828 -0.000185964912,4.037 L-0.000185964912,11.037 Z" id="Fill-4" fill="#5A78F0" mask="url(#mask-9)"></path>
                        </g>
                        <path d="M26.6879602,4 C27.5504418,4 28.25,4.67157585 28.25,5.50044183 C28.25,6.32842415 27.5504418,7 26.6879602,7 L23.5620398,7 C22.6995582,7 22,6.32842415 22,5.50044183 C22,4.67157585 22.6995582,4 23.5620398,4 L26.6879602,4 Z M36.0629602,4 C36.9254418,4 37.6259205,4.67157585 37.6259205,5.50044183 C37.6259205,6.32842415 36.9254418,7 36.0629602,7 L32.9379602,7 C32.0754786,7 31.3759205,6.32842415 31.3759205,5.50044183 C31.3759205,4.67157585 32.0754786,4 32.9379602,4 L36.0629602,4 Z M45.4379602,4 C46.3013623,4 47,4.67157585 47,5.50044183 C47,6.32842415 46.3013623,7 45.4379602,7 L42.3129602,7 C41.4495582,7 40.75,6.32842415 40.75,5.50044183 C40.75,4.67157585 41.4495582,4 42.3129602,4 L45.4379602,4 Z" id="Fill-7" fill="#FFFFFF"></path>
                        <path d="M30.5504481,39.3377217 C30.6164603,39.1796645 30.6824724,39.0160289 30.746625,38.8449552 C31.4643906,36.9296738 31.9069508,34.499312 32.0240991,31.888579 L36.1224292,31.888579 C35.6463982,35.2040611 33.4921715,37.9840083 30.5504481,39.3377217 L30.5504481,39.3377217 Z M23.7567779,29.111421 C23.8674179,26.8391164 24.2467552,24.7518316 24.8548105,23.1312804 C25.5744356,21.2104206 26.3024285,20.7780877 26.5004649,20.7780877 C26.6975715,20.7780877 27.4255644,21.2104206 28.1461192,23.1312804 C28.7532448,24.7518316 29.1335118,26.8391164 29.2441519,29.111421 L23.7567779,29.111421 Z M28.1461192,37.8696493 C27.4255644,39.7895794 26.6975715,40.2219123 26.5004649,40.2219123 C26.3024285,40.2219123 25.5744356,39.7895794 24.8548105,37.8696493 C24.2467552,36.2490981 23.8674179,34.1618134 23.7567779,31.888579 L29.2441519,31.888579 C29.1335118,34.1618134 28.7532448,36.2490981 28.1461192,37.8696493 L28.1461192,37.8696493 Z M22.253375,22.1559746 C21.5356094,24.0703262 21.0930492,26.5016178 20.9768307,29.111421 L16.8775708,29.111421 C17.3536018,25.7968686 19.5087582,23.0169214 22.4504816,21.663208 C22.3835397,21.8212652 22.3175276,21.9839711 22.253375,22.1559746 L22.253375,22.1559746 Z M16.8775708,31.888579 L20.9768307,31.888579 C21.0930492,34.499312 21.5356094,36.9296738 22.253375,38.8449552 C22.3175276,39.0160289 22.3835397,39.1796645 22.4504816,39.3377217 C19.5087582,37.9840083 17.3536018,35.2040611 16.8775708,31.888579 L16.8775708,31.888579 Z M36.1224292,29.111421 L32.0240991,29.111421 C31.9069508,26.500688 31.4643906,24.0703262 30.746625,22.1559746 C30.6824724,21.9839711 30.6164603,21.8212652 30.5504481,21.663208 C33.4921715,23.0169214 35.6463982,25.7968686 36.1224292,29.111421 L36.1224292,29.111421 Z M26.5004649,18 C19.6073115,18 14,23.6082413 14,30.5004649 C14,37.3926885 19.6073115,43 26.5004649,43 C33.3926885,43 39,37.3926885 39,30.5004649 C39,23.6082413 33.3926885,18 26.5004649,18 L26.5004649,18 Z" id="Fill-9" fill="#05C0A5"></path>
                    </g>
                    <g id="Group-30" transform="translate(69.000000, 99.000000)" fill="#334758" font-family="SFProText-Regular, SF Pro Text" font-size="14" font-weight="normal">
                        <text id="ENS-Manager">
                            <tspan x="1.8189894e-12" y="13">ENS </tspan>
                            <tspan x="1.8189894e-12" y="29">Manager </tspan>
                        </text>
                    </g>
                    <g id="Group-30" transform="translate(249.000000, 185.000000)" fill="#334758" font-family="SFProText-Regular, SF Pro Text" font-size="14" font-weight="normal">
                        <text id="Schedule-a-transacti">
                            <tspan x="1.8189894e-12" y="13">Schedule a</tspan>
                            <tspan x="1.8189894e-12" y="29">transaction</tspan>
                        </text>
                    </g>
                    <g id="Group-26" transform="translate(182.000000, 174.000000)">
                        <g id="Group-3" transform="translate(0.000000, 28.000000)">
                            <mask id="mask-11" fill="white">
                                <use xlink:href="#path-10"></use>
                            </mask>
                            <g id="Clip-2"></g>
                            <path d="M13.9214759,13.0003586 C13.9214759,13.5122897 13.5063724,13.9282897 12.9935448,13.9282897 L7.42595862,13.9282897 C6.91313103,13.9282897 6.49802759,13.5122897 6.49802759,13.0003586 C6.49802759,12.487531 6.91313103,12.071531 7.42595862,12.071531 L12.0656138,12.071531 L12.0656138,3.71477241 C12.0656138,3.20194483 12.4816138,2.78594483 12.9935448,2.78594483 C13.5063724,2.78594483 13.9214759,3.20194483 13.9214759,3.71477241 L13.9214759,13.0003586 Z M12.9935448,0.000350999694 C7.8294069,-0.00502068966 3.15388966,3.05222069 1.08644138,7.7878069 C-0.981903448,12.5224966 -0.0476965517,18.0327034 3.46409655,21.821531 C3.68554483,22.0680828 3.92044138,22.3038759 4.1669931,22.5253241 C8.43278621,26.4898759 14.8144414,27.1309103 19.7822345,24.0924966 C24.7509241,21.0540828 27.0918207,15.0785655 25.5112,9.47153103 C23.9314759,3.86449655 18.8157517,-0.00591724138 12.9935448,0.000350999694 L12.9935448,0.000350999694 Z" id="Fill-1" fill="#5A78F0" mask="url(#mask-11)"></path>
                        </g>
                        <path d="M52,15 L4,15 L4,29.294359 C4.136,29.1857692 4.27733333,29.090641 4.41866667,28.985641 C4.56088889,28.8815385 4.696,28.7792308 4.83377778,28.6814103 C5.12088889,28.4848718 5.41422222,28.3008974 5.71288889,28.1285897 C5.81422222,28.0684615 5.91022222,28.0029487 6.01333333,27.9446154 C6.41422222,27.7184615 6.82755556,27.5147436 7.248,27.3271795 C7.36266667,27.2769231 7.48,27.235641 7.59644444,27.1880769 C7.912,27.0588462 8.23022222,26.935 8.55466667,26.8264103 C8.71111111,26.774359 8.87022222,26.7285897 9.02844444,26.6819231 C9.32355556,26.5930769 9.62044444,26.515 9.92177778,26.445 C10.0871111,26.4064103 10.2524444,26.3705128 10.4186667,26.3373077 C10.736,26.2753846 11.0542222,26.2287179 11.3742222,26.1865385 C11.5226667,26.1685897 11.6693333,26.144359 11.8177778,26.13 C12.2862222,26.0851282 12.7573333,26.0564103 13.2311111,26.0564103 C21.3822222,26.0662821 27.9875556,32.6561538 28,40.7896154 C28,41.2616667 27.9715556,41.7319231 27.9262222,42.1985897 C27.9111111,42.3466667 27.8871111,42.4929487 27.8693333,42.6401282 C27.8284444,42.9614103 27.7768889,43.28 27.7191111,43.595 C27.6853333,43.7619231 27.648,43.9261538 27.6106667,44.0912821 C27.5413333,44.3910256 27.4613333,44.6898718 27.3724444,44.9860256 C27.3262222,45.1421795 27.28,45.2992308 27.2284444,45.4535897 C27.1182222,45.7829487 26.9928889,46.1069231 26.8586667,46.4273077 C26.8142222,46.5358974 26.7751111,46.6471795 26.7262222,46.7548718 C26.5386667,47.179359 26.3315556,47.5930769 26.104,47.9978205 C26.0533333,48.0902564 25.9928889,48.1746154 25.9395556,48.2652564 C25.7555556,48.5757692 25.5653333,48.88 25.3591111,49.1761538 C25.2666667,49.3107692 25.1662222,49.4391026 25.0684444,49.5701282 C24.9697778,49.7011538 24.864,49.8608974 24.7511111,50 L49.2311111,50 C50.76,50 52,48.7633333 52,47.2367949 L52,15 Z" id="Fill-4" fill="#CDF4EE"></path>
                        <path d="M52,7.625 C52,6.175125 50.76,5 49.2311111,5 L47.3848889,5 L47.3848889,7.625 C47.3848889,8.108 46.9715556,8.5 46.4622222,8.5 C45.952,8.5 45.5377778,8.108 45.5377778,7.625 L45.5377778,5 L38.1537778,5 L38.1537778,7.625 C38.1537778,8.108 37.7404444,8.5 37.2311111,8.5 C36.7217778,8.5 36.3084444,8.108 36.3084444,7.625 L36.3084444,5 L28.9226667,5 L28.9226667,7.625 C28.9226667,8.108 28.5093333,8.5 28,8.5 C27.4906667,8.5 27.0764444,8.108 27.0764444,7.625 L27.0764444,5 L19.6924444,5 L19.6924444,7.625 C19.6924444,8.108 19.2791111,8.5 18.7697778,8.5 C18.2595556,8.5 17.8462222,8.108 17.8462222,7.625 L17.8462222,5 L10.4622222,5 L10.4622222,7.625 C10.4622222,8.108 10.048,8.5 9.53866667,8.5 C9.02844444,8.5 8.61511111,8.108 8.61511111,7.625 L8.61511111,5 L6.76977778,5 C5.24,5 4,6.175125 4,7.625 L4,12 L52,12 L52,7.625 Z" id="Fill-6" fill="#05C0A5"></path>
                        <g id="Group-10" transform="translate(27.000000, 0.000000)">
                            <mask id="mask-13" fill="white">
                                <use xlink:href="#path-12"></use>
                            </mask>
                            <g id="Clip-9"></g>
                            <path d="M1,-8.33333333e-05 C0.448,-8.33333333e-05 0,0.37325 0,0.83325 L0,4.99991667 L2,4.99991667 L2,0.83325 C2,0.37325 1.552,-8.33333333e-05 1,-8.33333333e-05" id="Fill-8" fill="#05C0A5" mask="url(#mask-13)"></path>
                        </g>
                        <path d="M37,0 C36.447,0 36,0.373333333 36,0.833333333 L36,5 L38,5 L38,0.833333333 C38,0.373333333 37.552,0 37,0" id="Fill-11" fill="#05C0A5"></path>
                        <g id="Group-15" transform="translate(45.000000, 0.000000)">
                            <mask id="mask-15" fill="white">
                                <use xlink:href="#path-14"></use>
                            </mask>
                            <g id="Clip-14"></g>
                            <path d="M2.7305,0.83325 C2.7305,0.37325 2.2835,-8.33333333e-05 1.7305,-8.33333333e-05 C1.1785,-8.33333333e-05 0.7305,0.37325 0.7305,0.83325 L0.7305,4.99991667 L2.7305,4.99991667 L2.7305,0.83325 Z" id="Fill-13" fill="#05C0A5" mask="url(#mask-15)"></path>
                        </g>
                        <g id="Group-18" transform="translate(17.000000, 0.000000)">
                            <mask id="mask-17" fill="white">
                                <use xlink:href="#path-16"></use>
                            </mask>
                            <g id="Clip-17"></g>
                            <path d="M1.5771,-8.33333333e-05 C1.0251,-8.33333333e-05 0.5771,0.37325 0.5771,0.83325 L0.5771,4.99991667 L2.5771,4.99991667 L2.5771,0.83325 C2.5771,0.37325 2.1291,-8.33333333e-05 1.5771,-8.33333333e-05" id="Fill-16" fill="#05C0A5" mask="url(#mask-17)"></path>
                        </g>
                        <g id="Group-21" transform="translate(8.000000, 0.000000)">
                            <mask id="mask-19" fill="white">
                                <use xlink:href="#path-18"></use>
                            </mask>
                            <g id="Clip-20"></g>
                            <path d="M1.1924,-8.33333333e-05 C0.6404,-8.33333333e-05 0.1924,0.37325 0.1924,0.83325 L0.1924,4.99991667 L2.1924,4.99991667 L2.1924,0.83325 C2.1924,0.37325 1.7444,-8.33333333e-05 1.1924,-8.33333333e-05" id="Fill-19" fill="#05C0A5" mask="url(#mask-19)"></path>
                        </g>
                        <path d="M37.2546934,22.4460269 L33.1175828,29.8309093 C32.8776252,30.2596567 33.0165934,30.8106466 33.4283192,31.0596257 C33.460256,31.0794003 33.4939191,31.0964782 33.5284454,31.1117585 L37.6646929,32.9292162 C37.8796189,33.0235946 38.1213028,33.0235946 38.3353657,32.9292162 L42.4724763,31.1117585 C42.9118231,30.9194064 43.1172544,30.3917864 42.9316757,29.9342761 C42.9178652,29.8983224 42.9014652,29.8641664 42.8824758,29.8309093 L38.7462283,22.4460269 C38.5054076,22.0172794 37.9771556,21.8725659 37.5645667,22.1224439 C37.4368195,22.2006431 37.329788,22.3120995 37.2546934,22.4460269" id="Fill-22" fill="#05C0A5"></path>
                        <path d="M33.4894778,33.0581759 L37.6290154,35.006275 C37.8514488,35.1108582 38.1045325,35.1108582 38.3260901,35.006275 L42.5102896,33.0315548 C42.6871855,32.9478882 42.8938559,33.0363086 42.9709194,33.229312 C43.0173327,33.3443535 43.0076997,33.4765086 42.9455234,33.583944 L38.8760435,40.5586901 C38.6168298,41.0017424 38.0756336,41.1329468 37.6675472,40.8524737 C37.5659635,40.7830685 37.479267,40.6908452 37.4118364,40.5834098 L33.060374,33.6210235 C32.9517845,33.4470351 32.9938191,33.2102969 33.1532005,33.0924032 C33.2521571,33.0191949 33.3800125,33.0058844 33.4894778,33.0581759" id="Fill-24" fill="#05C0A5"></path>
                    </g>
                    <g id="Group-5-Copy" transform="translate(0.000000, 174.000000)">
                        <path d="M24.1237939,3.5293698 L3.66817003,23.5659262 C1.69544587,25.4982359 1.66268342,28.6638912 3.59499305,30.6366154 C3.62599581,30.6682666 3.65741789,30.6995043 3.68925098,30.7303203 L24.2790846,50.6622704 C26.2057808,52.527405 29.2607801,52.5405323 31.2034337,50.6920241 L51.2139781,31.6512363 C53.214472,29.7476909 53.2930643,26.5828416 51.3895189,24.5823477 C51.3828932,24.5753845 51.3762473,24.5684404 51.3695816,24.5615156 L31.2248273,3.63379682 C29.3097766,1.644314 26.1445267,1.58397485 24.1550439,3.49902556 C24.1445832,3.50909489 24.1341665,3.51920973 24.1237939,3.5293698 Z" id="Path-5" fill="#CDF4EE"></path>
                        <line x1="13.7142857" y1="24.8571429" x2="27.4145199" y2="11.148092" id="Line-3" stroke="#5A78F0" stroke-width="4.5" stroke-linecap="round" fill-rule="nonzero"></line>
                        <line x1="27.1615925" y1="25.7142857" x2="40.8899297" y2="11.148092" id="Line-3" stroke="#5A78F0" stroke-width="4.5" stroke-linecap="round" fill-rule="nonzero" transform="translate(34.152225, 18.449649) scale(-1, 1) translate(-34.152225, -18.449649) "></line>
                    </g>
                    <text id="MakerDAO" font-family="SFProText-Regular, SF Pro Text" font-size="14" font-weight="normal" fill="#334758">
                        <tspan x="69" y="203">MakerDAO</tspan>
                    </text>
                </g>
                <polygon id="Rectangle" fill="url(#linearGradient-20)" points="2 299 254.634082 299 365 299 365 489 2 489"></polygon>
                <text id="Using-the-most-popul" font-family="SFProText-Regular, SF Pro Text" font-size="14" font-weight="normal" line-spacing="20" fill="#334758">
                    <tspan x="39" y="73">Explore the most popular Ethereum </tspan>
                    <tspan x="39" y="93">Dapps right from your wallet.</tspan>
                </text>
                <text id="Dapps-center" font-family="SFProDisplay-Bold, SF Pro Display" font-size="22" font-weight="bold" fill="#0B1A40">
                    <tspan x="39" y="49">Dapps center</tspan>
                </text>
                <g id="Send-Transaction" transform="translate(23.000000, 429.000000)">
                    <path d="M6,0 L334,0 C337.313708,-6.08718376e-16 340,2.6862915 340,6 L340,56 C340,59.3137085 337.313708,62 334,62 L6,62 C2.6862915,62 4.05812251e-16,59.3137085 0,56 L0,6 C-4.05812251e-16,2.6862915 2.6862915,6.08718376e-16 6,0 Z" id="Unlock-wallet" fill="#05C0A5"></path>
                    <text id="Explore-Dapps" font-family="SFProText-Medium, SF Pro Text" font-size="14" font-weight="400" fill="#FFFFFF">
                        <tspan x="121.116211" y="36.12">Explore Dapps</tspan>
                    </text>
                </g>
            </g>
        </g>
    </g>
</svg>