<?xml version="1.0" encoding="UTF-8"?>
<svg width="64px" height="64px" viewBox="0 0 64 64" version="1.1" xmlns="http://www.w3.org/2000/svg" xmlns:xlink="http://www.w3.org/1999/xlink">
    <!-- Generator: Sketch 55.2 (78181) - https://sketchapp.com -->
    <title>icon</title>
    <desc>Created with Sketch.</desc>
    <g id="icon" stroke="none" stroke-width="1" fill="none" fill-rule="evenodd">
        <g id="Buy-ETH" transform="translate(4.000000, 4.000000)">
            <polygon id="Rectangle" fill="#FFFFFF" points="0.0725803548 39 46 39 46 46 0.0725803548 46"></polygon>
            <g id="Group" transform="translate(0.072580, 0.965096)" fill-rule="nonzero">
                <g id="credit-card" transform="translate(23.500000, 32.881678) rotate(-90.000000) translate(-23.500000, -32.881678) translate(7.500000, 9.381678)" fill="#05C0A5">
                    <path d="M4.62621702,0.238551064 C4.28397447,-0.00509361702 3.84434681,-0.0663382979 3.44765106,0.0751914894 C1.38594893,0.81546383 0,2.78996808 0,4.98786383 L0,41.5827128 C0,43.7806085 1.38582766,45.7551128 3.44752979,46.4953851 C3.84422554,46.6370362 4.28385319,46.5757914 4.62609574,46.3320255 C4.96979362,46.0869255 5.17438734,45.6886532 5.17438734,45.2637 L5.17438734,1.30687659 C5.17450851,0.882044684 4.96991489,0.483772341 4.62621702,0.238551064 Z" id="Path"></path>
                    <path d="M11.6424319,46.5704553 C10.9275064,46.5704553 10.3488958,45.9919659 10.3488958,45.2767978 L10.3488958,45.2767978 L10.3488958,1.29365745 C10.3488958,0.578610638 10.9275064,1.45661261e-13 11.6424319,1.45661261e-13 L11.6424319,1.45661261e-13 L25.8724213,1.45661261e-13 C28.7261808,1.45661261e-13 31.0468085,2.32074893 31.0468085,5.17450851 L31.0468085,5.17450851 L31.0468085,20.9257921 L31.0468085,20.9257921 L31.0468085,42.2156066 C31.0468085,44.6207176 29.0970808,46.5704553 26.6919698,46.5704553 L18.2903226,46.5704553 L11.6424319,46.5704553 Z" id="Combined-Shape"></path>
                </g>
                <path d="M53.690209,21.5497551 C53.6613994,21.5129078 50.8498007,17.845103 49.9358752,14.9131296 C49.7187938,14.2149831 49.4482219,13.2319206 49.1375551,12.1052835 C47.6518412,6.71551432 46.2989818,2.12950222 44.7999641,0.610105438 C43.6626264,-0.543329737 40.3126365,-1.41668748 37.4466299,-1.98177394 C36.8458483,-2.10022529 36.290208,-1.62595463 36.290208,-1.00513183 L36.290208,6.18234366 C36.290208,6.53378969 36.3826007,6.89342403 36.5587614,7.1960193 C37.3421262,8.54122836 38.039062,9.33242391 38.3964298,9.4834424 C38.8954601,9.69391916 39.1307081,10.2755684 38.9231687,10.7816618 C38.7158128,11.2878482 38.1420978,11.5272632 37.6430674,11.315949 C36.0378945,10.6381802 34.3380352,7.56272528 33.2816213,4.91101548 C33.1106904,4.48103613 32.6450572,3.71617351 32.248512,3.11972948 C31.0141024,1.34044689 29.0159353,-1.03815759 27.3490754,-0.137039102 C25.9670316,0.610105438 24.2556712,0.610105438 25.9670316,5.84885403 C26.8239112,8.47190012 28.2912263,13.6332408 28.449037,15.3057032 C28.4748188,15.5840128 28.4862877,15.8478066 28.4987657,16.1075063 C28.5647342,17.5414841 28.6325378,19.0240336 30.5895734,21.7523228 C31.6412162,23.2183095 33.0122422,24.060868 34.4635497,24.953766 C36.4542577,26.1785698 38.5135032,27.4445942 40.3118107,30.5812753 C40.4854024,30.8840567 40.8108411,31.0963946 41.1561895,31.0967817 C50.4831662,31.1059786 53.8003095,22.6026974 53.8327891,22.516348 C53.9568356,22.1935611 53.9024276,21.8241566 53.690209,21.5497551 Z" id="Path" fill="#CDF4EE" transform="translate(39.573992, 14.548391) rotate(-90.000000) translate(-39.573992, -14.548391) "></path>
                <g id="ETH" transform="translate(33.895162, 33.131678)">
                    <path d="M20.9032258,10.4516129 C20.9032258,16.2239342 16.2239342,20.9032258 10.4516129,20.9032258 C4.67939613,20.9032258 0,16.2239342 0,10.4516129 C0,4.67929161 4.67939613,0 10.4516129,0 C16.2239342,0 20.9032258,4.67929161 20.9032258,10.4516129" id="Fill-506" fill="#5577FF"></path>
                    <path d="M14.8933286,11.8364998 L10.8693546,16.9347562 L6.71889401,11.8364998 L10.8693546,13.9005481 L14.8933286,11.8364998 Z M10.8735359,3.49696822 L14.8933286,11.09798 L10.8735359,13.1501384 L6.71889401,11.09798 L10.8735359,3.49696822 Z" id="Combined-Shape" fill="#FFFFFF"></path>
                </g>
            </g>
        </g>
    </g>
</svg>