<?xml version="1.0" encoding="UTF-8"?>
<svg width="64px" height="64px" viewBox="0 0 64 64" version="1.1" xmlns="http://www.w3.org/2000/svg" xmlns:xlink="http://www.w3.org/1999/xlink">
    <!-- Generator: Sketch 55.2 (78181) - https://sketchapp.com -->
    <title>icon\</title>
    <desc>Created with Sketch.</desc>
    <g id="icon\" stroke="none" stroke-width="1" fill="none" fill-rule="evenodd">
        <g id="calendar" transform="translate(5.000000, 5.000000)" fill-rule="nonzero">
            <path d="M13.0435734,27.9 C7.85963817,27.8949063 3.16579923,30.9640764 1.09054773,35.7172577 C-0.985433103,40.4704392 -0.0475405199,46.0026812 3.47794389,49.8052993 C3.7000188,50.053431 3.93558588,50.2891562 4.18282191,50.5117448 C8.46569475,54.4917042 14.8712242,55.1350221 19.8582457,52.0851917 C24.8456318,49.0349964 27.1958333,43.0371426 25.6092195,37.4085671 C24.023335,31.7792619 18.8882635,27.8938115 13.0435734,27.9 Z M13.9749023,40.9499172 C13.9749023,41.4647905 13.5581016,41.8822356 13.0435734,41.8822356 L7.4545065,41.8822356 C6.9399783,41.8822356 6.52317768,41.4647905 6.52317768,40.9499172 C6.52317768,40.4354089 6.9399783,40.0179638 7.4545065,40.0179638 L12.1122446,40.0179638 L12.1122446,31.6285584 C12.1122446,31.11405 12.5290452,30.6966049 13.0435734,30.6966049 C13.5581016,30.6966049 13.9749023,31.11405 13.9749023,31.6285584 L13.9749023,40.9499172 Z" id="Shape" fill="#5A78F0"></path>
            <path d="M52.2,14.4 L3.6,14.4 L3.6,29.6354228 C3.73756824,29.5265829 3.88025865,29.4303987 4.02404679,29.3262594 C4.16820069,29.2213969 4.3046712,29.1183424 4.44480057,29.0203502 C4.73457195,28.8229196 5.03166078,28.6388678 5.33387187,28.4660256 C5.43631626,28.4060008 5.53437027,28.339829 5.63827815,28.2816122 C6.04476306,28.055254 6.46295571,27.8498681 6.88883184,27.6622005 C7.00481358,27.6119388 7.1237223,27.5703555 7.24116744,27.5229865 C7.5609405,27.3928124 7.88327451,27.269147 8.21109663,27.1599454 C8.37025128,27.1075142 8.5308696,27.0619532 8.69148783,27.0153076 C8.9896743,26.9263552 9.29078775,26.8475276 9.59555988,26.7773782 C9.76276377,26.7394108 9.93033351,26.7028897 10.0990011,26.669623 C10.4198716,26.6077903 10.7422056,26.5604213 11.066369,26.5188379 C11.2171087,26.5003966 11.3652872,26.4765313 11.5160269,26.461706 C11.9901983,26.4165067 12.4665648,26.3879407 12.9462241,26.3879407 C21.1995859,26.3977037 27.8881091,33.0065705 27.9001829,41.1630627 C27.9001829,41.6371134 27.8709131,42.1079097 27.825179,42.5761749 C27.8101782,42.7251519 27.7860306,42.8719594 27.767371,43.0194901 C27.7260274,43.3413093 27.6737075,43.660959 27.6148021,43.9766312 C27.5811417,44.1440496 27.5438227,44.3082137 27.5054061,44.4734624 C27.4355243,44.7757556 27.3543005,45.0747945 27.2642958,45.3716637 C27.2178299,45.5285958 27.1709982,45.6855279 27.1186783,45.840652 C27.007453,46.1711497 26.8801292,46.4955001 26.7447562,46.8169578 C26.699022,46.9257979 26.6598737,47.0375306 26.6108467,47.1460091 C26.4205928,47.5708829 26.2102158,47.9863552 25.9800817,48.3920645 C25.9284937,48.4842711 25.8677587,48.5692459 25.8139755,48.6600061 C25.6270144,48.9713392 25.4345652,49.2768868 25.2260176,49.5733944 C25.13272,49.7082692 25.0306414,49.8377201 24.9314899,49.9689791 C24.8323384,50.0995148 24.7244058,50.2607859 24.6102535,50.4 L49.3963158,50.4 C50.94469,50.4 52.2,49.1593685 52.2,47.6290996 L52.2,14.4 Z" id="Path" fill="#CDF4EE"></path>
            <path d="M52.2,8.09982387 C52.2,6.608808 50.94469,5.4 49.3963158,5.4 L47.5270708,5.4 L47.5270708,8.09982387 C47.5270708,8.59694652 47.1085122,9 46.5922655,9 C46.0763846,9 45.657826,8.59694652 45.657826,8.09982387 L45.657826,5.4 L38.1808466,5.4 L38.1808466,8.09982387 C38.1808466,8.59694652 37.762288,9 37.2464072,9 C36.7301605,9 36.3116018,8.59694652 36.3116018,8.09982387 L36.3116018,5.4 L28.8346225,5.4 L28.8346225,8.09982387 C28.8346225,8.59694652 28.4160638,9 27.9001829,9 C27.3839362,9 26.9653775,8.59694652 26.9653775,8.09982387 L26.9653775,5.4 L19.4883983,5.4 L19.4883983,8.09982387 C19.4883983,8.59694652 19.0702055,9 18.5539587,9 C18.037712,9 17.6191534,8.59694652 17.6191534,8.09982387 L17.6191534,5.4 L10.1425399,5.4 L10.1425399,8.09982387 C10.1425399,8.59694652 9.72398133,9 9.20773458,9 C8.69148783,9 8.273295,8.59694652 8.273295,8.09982387 L8.273295,5.4 L6.40405017,5.4 C4.85494416,5.4 3.6,6.608808 3.6,8.09982387 L3.6,14.4 L52.2,14.4 L52.2,8.09982387 Z" id="Path" fill="#05C0A5"></path>
            <path d="M27.9001761,0 C27.4030534,0 27,0.40305339 27,0.89982378 L27,5.4 L28.8,5.4 L28.8,0.89982378 C28.8,0.40305339 28.3969466,0 27.9001761,0 Z" id="Path" fill="#05C0A5"></path>
            <path d="M37.2427387,0.029133 C36.7456159,0.029133 36.3425625,0.43218639 36.3425625,0.92895678 L36.3425625,5.429133 L38.1425625,5.429133 L38.1425625,0.92895678 C38.1425625,0.43218639 37.739509,0.029133 37.2427387,0.029133 Z" id="Path" fill="#05C0A5"></path>
            <path d="M47.457826,0.89982378 C47.457826,0.40305339 47.0547725,0 46.5576499,0 C46.0608794,0 45.657826,0.40305339 45.657826,0.89982378 L45.657826,5.4 L47.457826,5.4 L47.457826,0.89982378 Z" id="Path" fill="#05C0A5"></path>
            <path d="M18.5193295,0 C18.0222068,0 17.6191534,0.40305339 17.6191534,0.89982378 L17.6191534,5.4 L19.4191534,5.4 L19.4191534,0.89982378 C19.4191534,0.40305339 19.0164523,0 18.5193295,0 Z" id="Path" fill="#05C0A5"></path>
            <path d="M9.17311887,0 C8.67599613,0 8.273295,0.40305339 8.273295,0.89982378 L8.273295,5.4 L10.073295,5.4 L10.073295,0.89982378 C10.073295,0.40305339 9.67024161,0 9.17311887,0 Z" id="Path" fill="#05C0A5"></path>
            <g id="Group" transform="translate(32.400000, 20.700000)" fill="#05C0A5">
                <g id="Group-2">
                    <path d="M5.57239497,0.540739299 L0.595449329,8.94313882 C0.306459907,9.43102933 0.473785927,10.0572654 0.969182457,10.3418762 C1.00772963,10.364022 1.0476862,10.3836976 1.08880366,10.4007808 L6.0657493,12.4685559 C6.32383031,12.575781 6.61494918,12.575781 6.87303018,12.4685559 L11.8499758,10.4007808 C12.3784049,10.1812339 12.6260653,9.58137024 12.4031409,9.06094759 C12.3857949,9.02045311 12.3658166,8.98110194 12.3433302,8.94313882 L7.36638452,0.540739299 C7.07739508,0.0528487773 6.44152463,-0.111942 5.9461281,0.172668794 C5.79140209,0.261560608 5.66265435,0.38835763 5.57239497,0.540739299 Z" id="Path-2"></path>
                    <path d="M1.14718425,12.44386 L6.05582277,14.5391387 C6.31964414,14.6517523 6.61906697,14.6515971 6.8827679,14.5387103 L11.8437952,12.4149604 C12.0541891,12.3248935 12.2988841,12.4198538 12.3903367,12.62706 C12.4452279,12.7514283 12.4339729,12.8945031 12.3602866,13.009061 L7.53453066,20.5115222 C7.22761437,20.9886759 6.58604909,21.1304505 6.10155451,20.8281844 C5.98124498,20.7531258 5.87789782,20.6544976 5.79793734,20.538431 L0.638260352,13.0488955 C0.50945787,12.861932 0.558938361,12.6075353 0.748778133,12.4806842 C0.866429855,12.4020694 1.01673462,12.3881769 1.14718425,12.44386 Z" id="Path-3"></path>
                </g>
            </g>
        </g>
    </g>
</svg>