<?xml version="1.0" encoding="UTF-8"?>
<svg width="64px" height="64px" viewBox="0 0 64 64" version="1.1" xmlns="http://www.w3.org/2000/svg" xmlns:xlink="http://www.w3.org/1999/xlink">
    <!-- Generator: Sketch 55.2 (78181) - https://sketchapp.com -->
    <title>icon\</title>
    <desc>Created with Sketch.</desc>
    <g id="icon\" stroke="none" stroke-width="1" fill="none" fill-rule="evenodd">
        <g id="eth-balance" transform="translate(6.000000, 10.000000)">
            <g id="chart" fill-rule="nonzero">
                <g id="Group" transform="translate(0.370000, 0.780000)">
                    <path d="M2,23 L6.02,23 C7.1245695,23 8.02,23.8954305 8.02,25 L8.02,36.6 C8.02,37.7045695 7.1245695,38.6 6.02,38.6 L2,38.6 C0.8954305,38.6 1.3527075e-16,37.7045695 0,36.6 L0,25 C-1.3527075e-16,23.8954305 0.8954305,23 2,23 Z" id="Path" fill="#1CC5AD"></path>
                    <path d="M16,9 L20.02,9 C21.1245695,9 22.02,9.8954305 22.02,11 L22.02,36.30024 C22.02,37.4048095 21.1245695,38.30024 20.02,38.30024 L16,38.30024 C14.8954305,38.30024 14,37.4048095 14,36.30024 L14,11 C14,9.8954305 14.8954305,9 16,9 Z" id="Path" fill="#1CC5AD"></path>
                    <path d="M30,13 L34.02,13 C35.1245695,13 36.02,13.8954305 36.02,15 L36.02,35.99996 C36.02,37.1045295 35.1245695,37.99996 34.02,37.99996 L30,37.99996 C28.8954305,37.99996 28,37.1045295 28,35.99996 L28,15 C28,13.8954305 28.8954305,13 30,13 Z" id="Path" fill="#05C0A5"></path>
                    <path d="M44,0.39992 L48.02,0.39992 C49.1245695,0.39992 50.02,1.2953505 50.02,2.39992 L50.02,36.39992 C50.02,37.5044895 49.1245695,38.39992 48.02,38.39992 L44,38.39992 C42.8954305,38.39992 42,37.5044895 42,36.39992 L42,2.39992 C42,1.2953505 42.8954305,0.39992 44,0.39992 Z" id="Path" fill="#05C0A5"></path>
                </g>
            </g>
            <g id="Group-27" transform="translate(44.000000, 33.000000) scale(-1, 1) translate(-44.000000, -33.000000) translate(33.000000, 22.000000)">
                <path d="M10.7409161,21.6 C4.80892298,21.6 1.77635684e-15,16.764732 1.77635684e-15,10.8 C1.77635684e-15,4.835268 4.80892298,1.77635684e-15 10.7409161,1.77635684e-15 C16.6730167,1.77635684e-15 21.4818323,4.835268 21.4818323,10.8 C21.4818323,16.764732 16.6730167,21.6 10.7409161,21.6 Z" id="Fill-506" fill="#5A78F0"></path>
                <path d="M10.7409161,2.84210526 L15.2634072,11.4500758 L10.7409161,13.8789474 L6.21842514,11.4494189 L10.7409161,2.84210526 Z" id="Combined-Shape" fill="#FFFFFF"></path>
                <path d="M10.7409161,14.9027193 L15.2634072,12.5052632 L10.7409161,18.7578947 L6.21842514,12.5052632 L10.7409161,14.9027193 Z" id="Combined-Shape" fill="#FFFFFF"></path>
            </g>
        </g>
    </g>
</svg>