<?xml version="1.0" encoding="UTF-8"?>
<svg width="64px" height="64px" viewBox="0 0 64 64" version="1.1" xmlns="http://www.w3.org/2000/svg" xmlns:xlink="http://www.w3.org/1999/xlink">
    <!-- Generator: Sketch 55.2 (78181) - https://sketchapp.com -->
    <title>icon\</title>
    <desc>Created with Sketch.</desc>
    <g id="icon\" stroke="none" stroke-width="1" fill="none" fill-rule="evenodd">
        <g id="rocket" transform="translate(6.000000, 7.000000)" fill-rule="nonzero">
            <g id="start-up">
                <path d="M16.8722941,33.1766199 C15.7424637,32.0479133 12.5650957,33.0598852 11.0724982,34.5505914 C6.07925865,39.5388644 3.8240766,43.0754785 2.81150428,45.1636874 C2.52120915,45.7620036 2.64213151,46.4782747 3.11279238,46.9484674 C3.58426748,47.4198803 4.30247317,47.5394622 4.90179219,47.2494558 C6.94525839,46.2582277 10.442236,44.0158639 15.4949189,38.9686134 C17.1361248,37.3282265 17.9459383,34.249603 16.8735155,33.1778402 L16.8722941,33.1766199 Z" id="Path" fill="#05C0A5"></path>
                <path d="M26.1760788,48.3988175 L30.7025688,43.9632244 C34.2068272,40.5282023 34.6394359,35.5258417 33.8443205,34.1205497 C30.4254911,36.6456645 26.8831943,39.6271443 23.651892,41.4122449 C23.8748411,42.6460104 23.9895115,43.564221 23.4623517,47.0600941 C23.3594201,47.736807 23.7161385,48.3914663 24.3253935,48.6900041 C24.941733,48.9954846 25.6880913,48.8774581 26.1760788,48.3988175 Z" id="Path" fill="#05C0A5"></path>
                <path d="M4.95377468,30.9621569 L9.4826315,26.5288818 C12.9887222,23.0956549 13.421557,18.0959085 12.6260259,16.691351 C9.20540892,19.2151462 5.66125989,22.1950678 2.4282681,23.9792355 C2.65133372,25.2123562 2.7660641,26.130087 2.23862867,29.6241331 C2.13564322,30.3004923 2.49254816,30.9548095 3.10212174,31.2531913 C3.71878346,31.5585122 4.46553203,31.4405473 4.95377468,30.9621569 Z" id="Path-Copy" fill="#05C0A5" transform="translate(7.593241, 24.056395) scale(1, -1) rotate(90.000000) translate(-7.593241, -24.056395) "></path>
                <path d="M27.9870771,15.7645148 C26.2523696,17.5005346 26.2523696,20.3244654 27.9870771,22.0604852 C29.7221708,23.7965049 32.5449814,23.7965049 34.2800751,22.0604852 C36.0151688,20.3244654 36.0151688,17.5005346 34.2800751,15.7645148 C32.5449814,14.0284951 29.7221708,14.0284951 27.9870771,15.7645148 Z" id="Path" fill="#05C0A5"></path>
                <path d="M48.4871509,0.083855463 C44.6110208,-0.208470725 40.7500978,0.26913271 36.9656206,1.42855622 C37.2504427,4.0331418 38.5952309,6.85182547 40.8910704,9.1517331 C43.2144467,11.4788147 46.1045906,12.825574 48.7510121,13.077551 C49.7702892,9.49923077 50.2536238,5.66687493 49.9433198,1.5421928 C49.8866019,0.760323114 49.2651717,0.142320658 48.4871509,0.083855463 Z" id="Path" fill="#5A78F0"></path>
                <path d="M36.9656206,1.42855622 C35.4170292,1.76231729 34.4827313,2.0126625 34.1627268,2.17959184 C33.68272,2.42998584 37.2402283,14.8735496 47.8373873,15.7611384 C47.8373873,15.7611384 48.541221,14.1673469 48.7510121,13.077551 C45.6977455,9.05233639 41.7692816,5.16933812 36.9656206,1.42855622 Z" id="Path-2" fill="#B4ECE4"></path>
                <path d="M34.1627268,2.17959184 C24.7598195,6.04759986 15.7585715,14.4944754 8.64573446,26.360675 L12.1795214,29.9051561 C14.5939632,28.921896 17.5250574,28.6621746 19.3841082,30.5264424 C21.2456057,32.3939823 20.9817747,35.3327195 20.0018889,37.7511959 L23.651892,41.4122449 C32.7542683,35.9098327 43.3515516,27.2408647 47.8578844,15.7071902 C44.7408445,15.2347837 41.5181906,13.6359633 38.8700932,10.9798521 C36.2644043,8.36627781 34.6732624,5.23162478 34.1627268,2.17959184 Z M36.6550538,24.3066265 C33.6028502,27.3680668 28.6357305,27.3680668 25.5831193,24.3066265 C22.5305079,21.2447773 22.5305079,16.2622169 25.5831193,13.2007766 C28.6357305,10.1393364 33.6028502,10.1393364 36.6550538,13.2007766 C39.7076651,16.2626259 39.7076651,21.2447773 36.6550538,24.3066265 Z" id="Shape" fill="#B4ECE4"></path>
            </g>
            <path d="M5.20840803,34.1205497 C4.92518893,35.3721319 5.3869666,36.7723264 5.84190501,37.2532862 C6.06832858,37.4164335 6.22956745,37.4164335 6.32562162,37.2532862 C7.14942024,35.8540696 7.90092877,34.3545704 8.67823234,33.3123372 C9.60207173,32.0736242 11.935541,30.0760954 12.4118956,29.7957809 L8.64573446,26.3474926 C7.2789733,28.9586517 5.46462096,32.9883113 5.20840803,34.1205497 Z" id="Path" fill="#B4ECE4"></path>
            <path d="M14.5399245,43.3718766 C14.2565573,44.6228047 14.7185764,46.0222674 15.1737527,46.5029759 C15.4002947,46.666038 15.5616178,46.666038 15.6577222,46.5029759 C16.4819516,45.1044906 17.2338531,43.605775 18.0115631,42.5640865 C18.9358855,41.3260208 21.2705748,39.3295359 21.7471786,39.0493679 L17.9790482,35.6028817 C16.6115724,38.2126762 14.7962714,42.2402299 14.5399245,43.3718766 Z" id="Path-Copy-2" fill="#B4ECE4" transform="translate(18.100107, 41.114077) scale(1, -1) rotate(90.000000) translate(-18.100107, -41.114077) "></path>
        </g>
    </g>
</svg>