<?xml version="1.0" encoding="UTF-8"?>
<svg width="64px" height="64px" viewBox="0 0 64 64" version="1.1" xmlns="http://www.w3.org/2000/svg" xmlns:xlink="http://www.w3.org/1999/xlink">
    <!-- Generator: Sketch 55.2 (78181) - https://sketchapp.com -->
    <title>icon\</title>
    <desc>Created with Sketch.</desc>
    <g id="icon\" stroke="none" stroke-width="1" fill="none" fill-rule="evenodd">
        <g id="swap" transform="translate(6.000000, 3.000000)">
            <g transform="translate(26.000000, 29.745960) rotate(90.000000) translate(-26.000000, -29.745960) translate(-3.000000, 5.245960)" fill="#05C0A5" fill-rule="nonzero" id="Path">
                <path d="M46.0141945,2.06363869 L38.4367717,11.9241019 C38.1002484,12.362018 38.1824435,12.9898252 38.6203596,13.3263485 C38.7951023,13.4606321 39.0093096,13.5334313 39.229689,13.5334313 L43.5000727,13.5334313 C44.0523574,13.5334312 44.5000727,13.9811465 44.5000727,14.5334312 L44.5000727,35.4667156 C44.5000727,38.929 41.7256168,41.7334312 38.3000145,41.7334312 C34.8745576,41.7334312 32.0999564,38.9291469 32.0999564,35.4667156 L32.0999564,13.5334312 C32.0999564,6.62443125 26.5354961,1.00014688 19.6999855,1.00014688 C12.8644748,1.00014688 7.30001453,6.62443125 7.30001453,13.5334312 L7.30001453,34.4667156 C7.30001453,35.0190004 6.85229928,35.4667156 6.30001453,35.4667156 L2.02964426,35.4667156 C1.47735951,35.4667156 1.02964426,35.9144309 1.02964426,36.4667156 C1.02964426,36.6870968 1.10244455,36.9013057 1.23673019,37.0760491 L8.81415389,46.9364064 C9.48720506,47.8122351 10.7428203,47.9766188 11.618649,47.3035676 C11.7564672,47.197658 11.8798914,47.0742346 11.9858019,46.9364171 L19.5633356,37.0760545 C19.8998641,36.6381424 19.8176766,36.0103342 19.3797645,35.6738057 C19.2050202,35.5395174 18.9908092,35.4667156 18.7704257,35.4667156 L14.5000727,35.4667156 C13.9477879,35.4667156 13.5000727,35.0190004 13.5000727,34.4667156 L13.5000727,13.5334312 C13.5000727,10.0711469 16.2745286,7.26671562 19.7001308,7.26671562 C23.125733,7.26671562 25.9000436,10.071 25.9000436,13.5334312 L25.9000436,35.4667156 C25.9000436,42.3757156 31.4645039,48 38.3000145,48 C45.1355252,48 50.6999855,42.3757156 50.6999855,35.4667156 L50.6999855,14.5334312 C50.6999855,13.9811465 51.1477007,13.5334312 51.6999855,13.5334313 L55.9703692,13.5334313 C56.5226539,13.5334313 56.9703692,13.085716 56.9703692,12.5334313 C56.9703692,12.3130518 56.8975701,12.0988446 56.7632864,11.9241019 L49.1858636,2.06363869 C48.512817,1.18780647 47.2572026,1.02341623 46.3813704,1.69646281 C46.2435425,1.80237876 46.1201105,1.92581079 46.0141945,2.06363869 Z"></path>
            </g>
            <path d="M9.36491117,6.23195701 L17.0947174,16.8886064 C17.4189933,17.3356675 17.3194563,17.9609596 16.8723953,18.2852356 C16.7016668,18.4090736 16.4961543,18.47576 16.2852418,18.47576 L-0.793321778,18.47576 C-1.34560653,18.47576 -1.79332178,18.0280447 -1.79332178,17.47576 C-1.79332178,17.2648474 -1.7266354,17.059335 -1.60279736,16.8886064 L6.12700882,6.23195701 C6.77556071,5.33783496 8.02614502,5.13876102 8.92026707,5.78731291 C9.09100047,5.91115447 9.24106961,6.06122361 9.36491117,6.23195701 Z" id="Triangle" fill="#05C0A5" transform="translate(7.745960, 11.237880) scale(-1, 1) rotate(90.000000) translate(-7.745960, -11.237880) "></path>
            <path d="M45.8445917,43.477917 L53.5743979,54.1345664 C53.8986738,54.5816274 53.7991369,55.2069196 53.3520759,55.5311955 C53.1813473,55.6550336 52.9758348,55.72172 52.7649223,55.72172 L35.6863588,55.72172 C35.134074,55.72172 34.6863588,55.2740047 34.6863588,54.72172 C34.6863588,54.5108074 34.7530452,54.305295 34.8768832,54.1345664 L42.6066894,43.477917 C43.2552413,42.583795 44.5058256,42.384721 45.3999476,43.0332729 C45.570681,43.1571145 45.7207502,43.3071836 45.8445917,43.477917 Z" id="Triangle-Copy" fill="#5A78F0" transform="translate(44.225641, 48.483840) rotate(90.000000) translate(-44.225641, -48.483840) "></path>
        </g>
    </g>
</svg>