<?xml version="1.0" encoding="utf-8"?>
<!-- Generator: Adobe Illustrator 23.0.1, SVG Export Plug-In . SVG Version: 6.00 Build 0)  -->
<svg version="1.1" id="Layer_1" xmlns="http://www.w3.org/2000/svg" xmlns:xlink="http://www.w3.org/1999/xlink" x="0px" y="0px"
	 viewBox="0 0 1812.1 1812.1" style="enable-background:new 0 0 1812.1 1812.1;" xml:space="preserve">
<style type="text/css">
	.st0{fill-rule:evenodd;clip-rule:evenodd;fill:#4F4F4F;}
	.st1{fill-rule:evenodd;clip-rule:evenodd;fill:#B1B1B1;}
	.st2{fill:#45080D;}
	.st3{fill:#FAF950;}
	.st4{fill:#F0CA46;}
	.st5{fill-rule:evenodd;clip-rule:evenodd;fill:#45080D;}
	.st6{fill:#FAED6A;}
</style>
<path class="st0" d="M964.6,1611.7c296.8,0,537.4,39.2,537.4,87.6c0,48.4-240.6,87.6-537.4,87.6s-537.4-39.2-537.4-87.6
	C427.2,1650.9,667.8,1611.7,964.6,1611.7L964.6,1611.7z"/>
<path class="st1" d="M959.3,138.4c346.2,0,626.9,280.7,626.9,626.9c0,346.2-280.7,626.9-626.9,626.9s-626.9-280.7-626.9-626.9
	C332.4,419.1,613,138.4,959.3,138.4L959.3,138.4z"/>
<path class="st1" d="M1718.3,563c1.5,7.6-12.5,17-33.2,23.3c1.8,21.5-1.8,38-9.4,39.4c-7.6,1.5-17-12.5-23.3-33.2
	c-21.5,1.8-38-1.8-39.4-9.4c-1.5-7.6,12.5-17,33.2-23.3c-1.8-21.5,1.8-38,9.4-39.4c7.6-1.5,17,12.5,23.3,33.2
	C1700.3,551.8,1716.8,555.4,1718.3,563L1718.3,563z"/>
<path class="st1" d="M1562.8,345.2c-4.1-9.6-15.1-14-24.7-9.9c-9.6,4.1-14,15.1-9.9,24.7c4.1,9.6,15.1,14,24.7,9.9
	C1562.5,365.8,1566.9,354.7,1562.8,345.2L1562.8,345.2z"/>
<path class="st2" d="M1365.3,1512.8V1665c0,22.8-45.6,41.7-119.3,53.7c-68.9,11.2-163.9,18.2-268.7,18.2
	c-104.7,0-199.7-6.9-268.7-18.2c-73.7-12-119.3-30.8-119.3-53.7v-152.2c0-22.8,45.6-41.7,119.3-53.7
	c68.9-11.2,163.9-18.2,268.7-18.2c104.7,0,199.7,6.9,268.7,18.2C1319.7,1471.1,1365.3,1489.9,1365.3,1512.8L1365.3,1512.8z
	 M610.1,1512.8c0,11.1,38.9,23,101.9,33.3c67.7,11,161.5,17.8,265.3,17.8c103.8,0,197.6-6.8,265.3-17.8
	c62.9-10.2,101.9-22.1,101.9-33.3c0-11.1-38.9-23-101.9-33.3c-67.7-11-161.5-17.8-265.3-17.8c-103.8,0-197.6,6.8-265.3,17.8
	C649.1,1489.7,610.1,1501.6,610.1,1512.8L610.1,1512.8z M1344.5,1538c-5.1,2.9-11,5.6-17.7,8.3l-1.3,0.5c-2.5,1-5.2,1.9-7.9,2.9
	l-0.4,0.1l-2.1,0.7l-0.6,0.2l-1.2,0.4l-1.5,0.5l-1.3,0.4l-0.4,0.1l-2.7,0.8l0,0l-1.5,0.4l-1.5,0.4l-1.5,0.4l-0.2,0.1l-2.7,0.7
	l-0.6,0.2l-1.2,0.3l-0.1,0l-1.6,0.4l-0.1,0l-1,0.3l-1.6,0.4l-0.5,0.1l0,0l-0.7,0.2l-1.6,0.4l-0.9,0.2l-0.2,0.1l-1.7,0.4l-0.2,0.1
	l-0.9,0.2l-1.9,0.4l-0.4,0.1l0,0l-0.6,0.1l-1.8,0.4l-0.6,0.1l-0.6,0.1l-1.8,0.4l-0.6,0.1l-0.5,0.1l-1.7,0.4l-1.8,0.4l-1.8,0.4
	l-0.6,0.1l-2.7,0.5l-0.3,0.1l-1.3,0.2l-1.9,0.4l0,0l-0.6,0.1l-2.1,0.4l-0.5,0.1l-0.6,0.1l-2,0.4l-0.1,0l-1.3,0.2l-0.6,0.1l-2,0.4h0
	l-3.3,0.6l-0.1,0l-2.8,0.5l-1.1,0.2l-2.9,0.5c-68.9,11.2-163.9,18.2-268.7,18.2c-104.7,0-199.7-6.9-268.7-18.2l-2.9-0.5l-1.1-0.2
	l-2.8-0.5l-0.1,0l-3.3-0.6h0l-2-0.4l-0.6-0.1l-1.3-0.2l-0.1,0l-2-0.4l-0.6-0.1l-0.5-0.1l-2.1-0.4l-0.6-0.1l0,0l-1.9-0.4l-1.3-0.2
	l-0.3-0.1l-2.7-0.5l-0.6-0.1l-1.8-0.4l-1.8-0.4l-1.7-0.4l-0.5-0.1l-0.6-0.1l-1.8-0.4l-0.6-0.1l-0.6-0.1l-1.8-0.4l-0.6-0.1l0,0
	l-0.4-0.1l-1.9-0.4l-0.9-0.2l-0.2-0.1l-1.7-0.4l-0.2-0.1l-0.9-0.2l-1.6-0.4l-0.7-0.2l0,0l-0.5-0.1l-1.6-0.4l-1-0.3l-0.1,0l-1.6-0.4
	l-0.1,0l-1.2-0.3l-0.6-0.2c-0.9-0.2-1.8-0.5-2.7-0.7l-0.2-0.1l-1.4-0.4l0,0l-1.5-0.4l-1.5-0.4l0,0c-0.9-0.3-1.8-0.5-2.7-0.8
	l-0.4-0.1l-1.3-0.4l-1.5-0.5l-1.2-0.4l-0.6-0.2c-0.7-0.2-1.4-0.5-2.1-0.7l-0.4-0.1c-2.7-0.9-5.4-1.9-7.9-2.9l-1.3-0.5
	c-6.7-2.6-12.6-5.4-17.7-8.3V1665c0,11.1,38.9,23,101.9,33.3c67.7,11,161.5,17.8,265.3,17.8c103.8,0,197.6-6.8,265.3-17.8
	c62.9-10.2,101.9-22.1,101.9-33.3V1538L1344.5,1538z"/>
<path class="st3" d="M1344.5,1538c-5.1,2.9-11,5.6-17.7,8.3l-1.3,0.5c-2.5,1-5.2,1.9-7.9,2.9l-0.4,0.1l-2.1,0.7l-0.6,0.2l-1.2,0.4
	l-1.5,0.5l-1.3,0.4l-0.4,0.1l-2.7,0.8l0,0l-1.5,0.4l-1.5,0.4l-1.5,0.4l-0.2,0.1l-2.7,0.7l-0.6,0.2l-1.2,0.3l-0.1,0l-1.6,0.4l-0.1,0
	l-1,0.3l-1.6,0.4l-0.5,0.1l0,0l-0.7,0.2l-1.6,0.4l-0.9,0.2l-0.2,0.1l-1.7,0.4l-0.2,0.1l-0.9,0.2l-1.9,0.4l-0.4,0.1l0,0l-0.6,0.1
	l-1.8,0.4l-0.6,0.1l-0.6,0.1l-1.8,0.4l-0.6,0.1l-0.5,0.1l-1.7,0.4l-1.8,0.4l-1.8,0.4l-0.6,0.1l-2.7,0.5l-0.3,0.1l-1.3,0.2l-1.9,0.4
	l0,0l-0.6,0.1l-2.1,0.4l-0.5,0.1l-0.6,0.1l-2,0.4l-0.1,0l-1.3,0.2l-0.6,0.1l-2,0.4h0l-3.3,0.6l-0.1,0l-2.8,0.5l-1.1,0.2l-2.9,0.5
	c-68.9,11.2-163.9,18.2-268.7,18.2c-104.7,0-199.7-6.9-268.7-18.2l-2.9-0.5l-1.1-0.2l-2.8-0.5l-0.1,0l-3.3-0.6h0l-2-0.4l-0.6-0.1
	l-1.3-0.2l-0.1,0l-2-0.4l-0.6-0.1l-0.5-0.1l-2.1-0.4l-0.6-0.1l0,0l-1.9-0.4l-1.3-0.2l-0.3-0.1l-2.7-0.5l-0.6-0.1l-1.8-0.4l-1.8-0.4
	l-1.7-0.4l-0.5-0.1l-0.6-0.1l-1.8-0.4l-0.6-0.1l-0.6-0.1l-1.8-0.4l-0.6-0.1l0,0l-0.4-0.1l-1.9-0.4l-0.9-0.2l-0.2-0.1l-1.7-0.4
	l-0.2-0.1l-0.9-0.2l-1.6-0.4l-0.7-0.2l0,0l-0.5-0.1l-1.6-0.4l-1-0.3l-0.1,0l-1.6-0.4l-0.1,0l-1.2-0.3l-0.6-0.2
	c-0.9-0.2-1.8-0.5-2.7-0.7l-0.2-0.1l-1.4-0.4l0,0l-1.5-0.4l-1.5-0.4l0,0c-0.9-0.3-1.8-0.5-2.7-0.8l-0.4-0.1l-1.3-0.4l-1.5-0.5
	l-1.2-0.4l-0.6-0.2c-0.7-0.2-1.4-0.5-2.1-0.7l-0.4-0.1c-2.7-0.9-5.4-1.9-7.9-2.9l-1.3-0.5c-6.7-2.6-12.6-5.4-17.7-8.3V1665
	c0,11.1,38.9,23,101.9,33.3c67.7,11,161.5,17.8,265.3,17.8c103.8,0,197.6-6.8,265.3-17.8c62.9-10.2,101.9-22.1,101.9-33.3V1538
	L1344.5,1538z"/>
<path class="st4" d="M663.2,1557.3l-0.8-0.2l-0.7-0.2l0,0l-0.5-0.1l-1.6-0.4l-1-0.3l-0.1,0l-1.6-0.4l-0.1,0l-1.2-0.3l-0.6-0.2
	c-0.9-0.2-1.8-0.5-2.7-0.7l-0.2-0.1l-1.4-0.4l0,0l-1.5-0.4l-1.5-0.4l0,0c-0.9-0.3-1.8-0.5-2.7-0.8l-0.4-0.1l-1.3-0.4l-1.5-0.5
	l-1.2-0.4l-0.6-0.2c-0.7-0.2-1.4-0.5-2.1-0.7l-0.4-0.1c-2.7-0.9-5.4-1.9-7.9-2.9l-1.3-0.5c-6.7-2.6-12.6-5.4-17.7-8.3V1665
	c0,11.1,38.9,23,101.9,33.3c67.7,11,161.5,17.8,265.3,17.8c20.7,0,41-0.3,60.7-0.8c-114.8,0.5-330.4-45-355.2-62.9
	C662.5,1637.6,662.2,1581.9,663.2,1557.3L663.2,1557.3z M1072.1,1714.1c36.1-1.5,70-3.9,100.9-7l1.2-0.1l1.2-0.1l1.2-0.1l1.2-0.1
	l0.1,0l1-0.1c2.4-0.2,4.7-0.5,7-0.7l1.2-0.1l1.1-0.1l0,0l1.2-0.1l1.1-0.1l1.1-0.1l1.1-0.1l0.5-0.1l0.7-0.1l1.1-0.1l0.7-0.1l0.4,0
	l1.1-0.1l0,0l2.2-0.3l1.1-0.1l0.1,0l1-0.1l1.1-0.1l0.3,0l0.8-0.1l1.1-0.1l0.6-0.1l0.5-0.1l1.1-0.1l0.8-0.1l0.3,0l1.1-0.1l1-0.1
	l0.1,0l1.1-0.1l1.1-0.1l0.2,0l0.9-0.1l1.1-0.1l0.4-0.1l0.7-0.1l1.1-0.1l0.6-0.1l0.4-0.1l1.9-0.3l0.2,0l1.1-0.1l1.1-0.1l0,0l1-0.1
	l1-0.1l0.3,0l0.8-0.1l1-0.1l0.5-0.1l0.5-0.1l1-0.2l0.7-0.1l0.3,0l1-0.2l0.9-0.1l0.1,0l1-0.2l1-0.2l0.1,0l0.9-0.1l1-0.2l0.3-0.1
	l0.7-0.1l1-0.2l0.6-0.1l0.4-0.1l1-0.2l0.8-0.1l0.2,0l1-0.2l1-0.2c62.9-10.2,101.9-22.1,101.9-33.3v-46.2v-32.7
	c-12.4,16-26.6,30.8-41.9,41C1249.2,1662.6,1183.2,1699,1072.1,1714.1L1072.1,1714.1z"/>
<path class="st4" d="M610.1,1512.8c0,11.1,38.9,23,101.9,33.3c67.7,11,161.5,17.8,265.3,17.8c103.8,0,197.6-6.8,265.3-17.8
	c62.9-10.2,101.9-22.1,101.9-33.3c0-11.1-38.9-23-101.9-33.3c-67.7-11-161.5-17.8-265.3-17.8c-103.8,0-197.6,6.8-265.3,17.8
	C649.1,1489.7,610.1,1501.6,610.1,1512.8L610.1,1512.8z"/>
<path class="st4" d="M1334,1502.4c-15.6-7.9-47.7-15.8-91.3-22.9c-67.7-11-161.5-17.8-265.3-17.8c-103.8,0-197.6,6.8-265.3,17.8
	c-43.6,7.1-75.7,15-91.3,22.9c15.6,7.9,47.7,15.8,91.3,22.9c67.7,11,161.5,17.8,265.3,17.8c103.8,0,197.6-6.8,265.3-17.8
	C1286.3,1518.2,1318.4,1510.3,1334,1502.4L1334,1502.4z"/>
<path class="st3" d="M633.3,1507.6c17.6,6.1,44.7,12.2,78.7,17.7c67.7,11,161.5,17.8,265.3,17.8c103.8,0,197.6-6.8,265.3-17.8
	c34.1-5.5,61.1-11.6,78.7-17.7c-17.6-6.1-44.7-12.2-78.7-17.7c-67.7-11-161.5-17.8-265.3-17.8c-103.8,0-197.6,6.8-265.3,17.8
	C677.9,1495.4,650.9,1501.4,633.3,1507.6L633.3,1507.6z"/>
<path class="st2" d="M1286.3,1371.2v152.2c0,22.8-45.6,41.7-119.3,53.7c-68.9,11.2-163.9,18.2-268.7,18.2
	c-104.7,0-199.7-6.9-268.7-18.2c-73.7-12-119.3-30.8-119.3-53.7v-152.2c0-22.8,45.6-41.7,119.3-53.7
	c68.9-11.2,163.9-18.2,268.7-18.2c104.7,0,199.7,6.9,268.7,18.2C1240.7,1329.5,1286.3,1348.4,1286.3,1371.2L1286.3,1371.2z
	 M531.2,1371.2c0,11.1,38.9,23,101.9,33.3c67.7,11,161.5,17.8,265.3,17.8c103.8,0,197.6-6.8,265.3-17.8
	c62.9-10.2,101.9-22.1,101.9-33.3c0-11.1-38.9-23-101.9-33.3c-67.7-11-161.5-17.8-265.3-17.8c-103.8,0-197.6,6.8-265.3,17.8
	C570.1,1348.2,531.2,1360.1,531.2,1371.2L531.2,1371.2z M1265.6,1396.5c-5.1,2.9-11,5.6-17.7,8.3l-1.3,0.5c-2.5,1-5.2,1.9-7.9,2.9
	l-0.4,0.1l-2.1,0.7l-0.6,0.2l-1.2,0.4l-1.5,0.5l-1.3,0.4l-0.4,0.1l-2.7,0.8l0,0l-1.5,0.4l-1.5,0.4l-1.5,0.4l-0.2,0.1l-2.7,0.7
	l-0.6,0.2l-1.2,0.3l-0.1,0l-1.6,0.4l-0.1,0l-1,0.3l-1.6,0.4l-0.5,0.1l0,0l-0.7,0.2l-1.6,0.4l-0.9,0.2l-0.2,0.1l-1.7,0.4l-0.2,0.1
	l-0.9,0.2l-1.9,0.4l-0.4,0.1l0,0l-0.6,0.1l-1.8,0.4l-0.6,0.1l-0.6,0.1l-1.8,0.4l-0.6,0.1l-0.5,0.1l-1.7,0.4l-1.8,0.4l-1.8,0.4
	l-0.6,0.1l-2.7,0.5l-0.3,0.1l-1.3,0.2l-1.9,0.4l0,0l-0.6,0.1l-2.1,0.4l-0.5,0.1l-0.6,0.1l-2,0.4l-0.1,0l-1.3,0.2l-0.6,0.1l-2,0.4h0
	l-3.3,0.6l-0.1,0l-2.8,0.5l-1.1,0.2l-2.9,0.5c-68.9,11.2-163.9,18.2-268.7,18.2c-104.7,0-199.7-6.9-268.7-18.2l-2.9-0.5l-1.1-0.2
	l-2.8-0.5l-0.1,0l-3.3-0.6h0l-2-0.4l-0.6-0.1l-1.3-0.2l-0.1,0l-2-0.4l-0.6-0.1l-0.5-0.1l-2.1-0.4l-0.6-0.1l0,0l-1.9-0.4l-1.3-0.2
	l-0.3-0.1l-2.7-0.5l-0.6-0.1l-1.8-0.4l-1.8-0.4l-1.7-0.4l-0.5-0.1l-0.6-0.1l-1.8-0.4l-0.6-0.1l-0.6-0.1l-1.8-0.4l-0.6-0.1l0,0
	l-0.4-0.1l-1.9-0.4l-0.9-0.2l-0.2-0.1l-1.7-0.4l-0.2-0.1l-0.9-0.2l-1.6-0.4l-0.7-0.2l0,0l-0.5-0.1l-1.6-0.4l-1-0.3l-0.1,0l-1.6-0.4
	l-0.1,0l-1.2-0.3l-0.6-0.2c-0.9-0.2-1.8-0.5-2.7-0.7l-0.2-0.1l-1.4-0.4l0,0l-1.5-0.4l-1.5-0.4l0,0c-0.9-0.3-1.8-0.5-2.7-0.8
	l-0.4-0.1l-1.3-0.4l-1.5-0.5l-1.2-0.4l-0.6-0.2c-0.7-0.2-1.4-0.5-2.1-0.7l-0.4-0.1c-2.7-0.9-5.4-1.9-7.9-2.9l-1.3-0.5
	c-6.7-2.6-12.6-5.4-17.7-8.3v126.9c0,11.1,38.9,23,101.9,33.3c67.7,11,161.5,17.8,265.3,17.8c103.8,0,197.6-6.8,265.3-17.8
	c62.9-10.2,101.9-22.1,101.9-33.3V1396.5L1265.6,1396.5z"/>
<path class="st3" d="M1265.6,1396.5c-5.1,2.9-11,5.6-17.7,8.3l-1.3,0.5c-2.5,1-5.2,1.9-7.9,2.9l-0.4,0.1l-2.1,0.7l-0.6,0.2l-1.2,0.4
	l-1.5,0.5l-1.3,0.4l-0.4,0.1l-2.7,0.8l0,0l-1.5,0.4l-1.5,0.4l-1.5,0.4l-0.2,0.1l-2.7,0.7l-0.6,0.2l-1.2,0.3l-0.1,0l-1.6,0.4l-0.1,0
	l-1,0.3l-1.6,0.4l-0.5,0.1l0,0l-0.7,0.2l-1.6,0.4l-0.9,0.2l-0.2,0.1l-1.7,0.4l-0.2,0.1l-0.9,0.2l-1.9,0.4l-0.4,0.1l0,0l-0.6,0.1
	l-1.8,0.4l-0.6,0.1l-0.6,0.1l-1.8,0.4l-0.6,0.1l-0.5,0.1l-1.7,0.4l-1.8,0.4l-1.8,0.4l-0.6,0.1l-2.7,0.5l-0.3,0.1l-1.3,0.2l-1.9,0.4
	l0,0l-0.6,0.1l-2.1,0.4l-0.5,0.1l-0.6,0.1l-2,0.4l-0.1,0l-1.3,0.2l-0.6,0.1l-2,0.4h0l-3.3,0.6l-0.1,0l-2.8,0.5l-1.1,0.2l-2.9,0.5
	c-68.9,11.2-163.9,18.2-268.7,18.2c-104.7,0-199.7-6.9-268.7-18.2l-2.9-0.5l-1.1-0.2l-2.8-0.5l-0.1,0l-3.3-0.6h0l-2-0.4l-0.6-0.1
	l-1.3-0.2l-0.1,0l-2-0.4l-0.6-0.1l-0.5-0.1l-2.1-0.4l-0.6-0.1l0,0l-1.9-0.4l-1.3-0.2l-0.3-0.1l-2.7-0.5l-0.6-0.1l-1.8-0.4l-1.8-0.4
	l-1.7-0.4l-0.5-0.1l-0.6-0.1l-1.8-0.4l-0.6-0.1l-0.6-0.1l-1.8-0.4l-0.6-0.1l0,0l-0.4-0.1l-1.9-0.4l-0.9-0.2l-0.2-0.1l-1.7-0.4
	l-0.2-0.1l-0.9-0.2l-1.6-0.4l-0.7-0.2l0,0l-0.5-0.1l-1.6-0.4l-1-0.3l-0.1,0l-1.6-0.4l-0.1,0l-1.2-0.3l-0.6-0.2
	c-0.9-0.2-1.8-0.5-2.7-0.7l-0.2-0.1l-1.4-0.4l0,0l-1.5-0.4l-1.5-0.4l0,0c-0.9-0.3-1.8-0.5-2.7-0.8l-0.4-0.1l-1.3-0.4l-1.5-0.5
	l-1.2-0.4l-0.6-0.2c-0.7-0.2-1.4-0.5-2.1-0.7l-0.4-0.1c-2.7-0.9-5.4-1.9-7.9-2.9l-1.3-0.5c-6.7-2.6-12.6-5.4-17.7-8.3v126.9
	c0,11.1,38.9,23,101.9,33.3c67.7,11,161.5,17.8,265.3,17.8c103.8,0,197.6-6.8,265.3-17.8c62.9-10.2,101.9-22.1,101.9-33.3V1396.5
	L1265.6,1396.5z"/>
<path class="st4" d="M584.2,1415.7l-0.8-0.2l-0.7-0.2l0,0l-0.5-0.1l-1.6-0.4l-1-0.3l-0.1,0l-1.6-0.4l-0.1,0l-1.2-0.3l-0.6-0.2
	c-0.9-0.2-1.8-0.5-2.7-0.7l-0.2-0.1l-1.4-0.4l0,0l-1.5-0.4l-1.5-0.4l0,0c-0.9-0.3-1.8-0.5-2.7-0.8l-0.4-0.1l-1.3-0.4l-1.5-0.5
	l-1.2-0.4l-0.6-0.2c-0.7-0.2-1.4-0.5-2.1-0.7l-0.4-0.1c-2.7-0.9-5.4-1.9-7.9-2.9l-1.3-0.5c-6.7-2.6-12.6-5.4-17.7-8.3v126.9
	c0,11.1,38.9,23,101.9,33.3c67.7,11,161.5,17.8,265.3,17.8c20.7,0,41-0.3,60.7-0.8c-114.8,0.5-330.4-45-355.2-62.9
	C583.5,1496.1,583.3,1440.3,584.2,1415.7L584.2,1415.7z M993.1,1572.5c36.1-1.5,70-3.9,100.9-7l1.2-0.1l1.2-0.1l1.2-0.1l1.2-0.1
	l0.1,0l1-0.1c2.4-0.2,4.7-0.5,7-0.7l1.2-0.1l1.1-0.1l0,0l1.2-0.1l1.1-0.1l1.1-0.1l1.1-0.1l0.5-0.1l0.7-0.1l1.1-0.1l0.7-0.1l0.4,0
	l1.1-0.1l0,0l2.2-0.3l1.1-0.1l0.1,0l1-0.1l1.1-0.1l0.3,0l0.8-0.1l1.1-0.1l0.6-0.1l0.5-0.1l1.1-0.1l0.8-0.1l0.3,0l1.1-0.1l1-0.1
	l0.1,0l1.1-0.1l1.1-0.1l0.2,0l0.9-0.1l1.1-0.1l0.4-0.1l0.7-0.1l1.1-0.1l0.6-0.1l0.4-0.1l1.9-0.3l0.2,0l1.1-0.1l1.1-0.1l0,0l1-0.1
	l1-0.1l0.3,0l0.8-0.1l1-0.1l0.5-0.1l0.5-0.1l1-0.1l0.7-0.1l0.3,0l1-0.2l0.9-0.1l0.1,0l1-0.2l1-0.2l0.1,0l0.9-0.1l1-0.2l0.3-0.1
	l0.7-0.1l1-0.2l0.6-0.1l0.4-0.1l1-0.2l0.8-0.1l0.2,0l1-0.2l1-0.2c62.9-10.2,101.9-22.1,101.9-33.3v-46.2v-32.7
	c-12.4,16-26.6,30.8-41.9,41C1170.3,1521,1104.2,1557.5,993.1,1572.5L993.1,1572.5z"/>
<path class="st4" d="M531.2,1371.2c0,11.1,38.9,23,101.9,33.3c67.7,11,161.5,17.8,265.3,17.8c103.8,0,197.6-6.8,265.3-17.8
	c62.9-10.2,101.9-22.1,101.9-33.3c0-11.1-38.9-23-101.9-33.3c-67.7-11-161.5-17.8-265.3-17.8c-103.8,0-197.6,6.8-265.3,17.8
	C570.1,1348.2,531.2,1360.1,531.2,1371.2L531.2,1371.2z"/>
<path class="st4" d="M1255,1360.8c-15.6-7.9-47.7-15.8-91.3-22.9c-67.7-11-161.5-17.8-265.3-17.8c-103.8,0-197.6,6.8-265.3,17.8
	c-43.6,7.1-75.7,15-91.3,22.9c15.6,7.9,47.7,15.8,91.3,22.9c67.7,11,161.5,17.8,265.3,17.8c103.8,0,197.6-6.8,265.3-17.8
	C1207.4,1376.6,1239.5,1368.7,1255,1360.8L1255,1360.8z"/>
<path class="st3" d="M554.3,1366c17.6,6.1,44.7,12.2,78.7,17.7c67.7,11,161.5,17.8,265.3,17.8c103.8,0,197.6-6.8,265.3-17.8
	c34.1-5.5,61.1-11.6,78.7-17.7c-17.6-6.1-44.7-12.2-78.7-17.7c-67.7-11-161.5-17.8-265.3-17.8c-103.8,0-197.6,6.8-265.3,17.8
	C599,1353.9,572,1359.9,554.3,1366L554.3,1366z"/>
<path class="st2" d="M1352.8,1229.6v152.2c0,22.8-45.6,41.7-119.3,53.7c-68.9,11.2-163.9,18.2-268.7,18.2
	c-104.7,0-199.7-6.9-268.7-18.2c-73.7-12-119.3-30.8-119.3-53.7v-152.2c0-22.8,45.6-41.7,119.3-53.7
	c68.9-11.2,163.9-18.2,268.7-18.2c104.7,0,199.7,6.9,268.7,18.2C1307.2,1188,1352.8,1206.8,1352.8,1229.6L1352.8,1229.6z
	 M597.6,1229.6c0,11.1,38.9,23,101.9,33.3c67.7,11,161.5,17.8,265.3,17.8c103.8,0,197.6-6.8,265.3-17.8
	c62.9-10.2,101.9-22.1,101.9-33.3c0-11.1-38.9-23-101.9-33.3c-67.7-11-161.5-17.8-265.3-17.8c-103.8,0-197.6,6.8-265.3,17.8
	C636.5,1206.6,597.6,1218.5,597.6,1229.6L597.6,1229.6z M1332,1254.9c-5.1,2.9-11,5.6-17.7,8.3l-1.3,0.5c-2.5,1-5.2,1.9-7.9,2.9
	l-0.4,0.1l-2.1,0.7l-0.6,0.2l-1.2,0.4l-1.5,0.5l-1.3,0.4l-0.4,0.1l-2.7,0.8l0,0l-1.5,0.4l-1.5,0.4l-1.5,0.4l-0.2,0.1l-2.7,0.7
	l-0.6,0.2l-1.2,0.3l-0.1,0l-1.6,0.4l-0.1,0l-1,0.3l-1.6,0.4l-0.5,0.1l0,0l-0.7,0.2l-1.6,0.4l-0.9,0.2l-0.2,0.1l-1.7,0.4l-0.2,0.1
	l-0.9,0.2l-1.9,0.4l-0.5,0.1l0,0l-0.6,0.1l-1.8,0.4l-0.6,0.1l-0.6,0.1l-1.8,0.4l-0.6,0.1l-0.5,0.1l-1.7,0.4l-1.8,0.4l-1.8,0.4
	l-0.6,0.1l-2.7,0.5l-0.3,0.1l-1.3,0.2l-1.9,0.4l0,0l-0.6,0.1l-2.1,0.4l-0.5,0.1l-0.6,0.1l-2,0.4l-0.1,0l-1.3,0.2l-0.6,0.1l-2,0.4h0
	l-3.3,0.6l-0.1,0l-2.8,0.5l-1.1,0.2l-2.9,0.5c-68.9,11.2-163.9,18.2-268.7,18.2c-104.7,0-199.7-6.9-268.7-18.2l-2.9-0.5l-1.1-0.2
	l-2.8-0.5l-0.1,0l-3.3-0.6h0l-2-0.4l-0.6-0.1l-1.3-0.2l-0.1,0l-2-0.4l-0.6-0.1l-0.5-0.1l-2.1-0.4l-0.6-0.1l0,0l-1.9-0.4l-1.3-0.2
	l-0.3-0.1l-2.7-0.5l-0.6-0.1l-1.8-0.4l-1.8-0.4l-1.7-0.4l-0.5-0.1l-0.6-0.1l-1.8-0.4l-0.6-0.1l-0.6-0.1l-1.8-0.4l-0.6-0.1l0,0
	l-0.4-0.1l-1.9-0.4l-0.9-0.2l-0.2-0.1l-1.7-0.4l-0.2-0.1l-0.9-0.2l-1.6-0.4l-0.7-0.2l0,0l-0.5-0.1l-1.6-0.4l-1-0.3l-0.1,0l-1.6-0.4
	l-0.1,0l-1.2-0.3l-0.6-0.2c-0.9-0.2-1.8-0.5-2.7-0.7l-0.2-0.1l-1.4-0.4l0,0l-1.5-0.4l-1.5-0.4l0,0c-0.9-0.3-1.8-0.5-2.7-0.8
	l-0.4-0.1l-1.3-0.4l-1.5-0.5l-1.2-0.4l-0.6-0.2c-0.7-0.2-1.4-0.5-2.1-0.7l-0.4-0.1c-2.7-0.9-5.4-1.9-7.9-2.9l-1.3-0.5
	c-6.7-2.6-12.6-5.4-17.7-8.3v126.9c0,11.1,38.9,23,101.9,33.3c67.7,11,161.5,17.8,265.3,17.8c103.8,0,197.6-6.8,265.3-17.8
	c62.9-10.2,101.9-22.1,101.9-33.3V1254.9L1332,1254.9z"/>
<path class="st3" d="M1332,1254.9c-5.1,2.9-11,5.6-17.7,8.3l-1.3,0.5c-2.5,1-5.2,1.9-7.9,2.9l-0.4,0.1l-2.1,0.7l-0.6,0.2l-1.2,0.4
	l-1.5,0.5l-1.3,0.4l-0.4,0.1l-2.7,0.8l0,0l-1.5,0.4l-1.5,0.4l-1.5,0.4l-0.2,0.1l-2.7,0.7l-0.6,0.2l-1.2,0.3l-0.1,0l-1.6,0.4l-0.1,0
	l-1,0.3l-1.6,0.4l-0.5,0.1l0,0l-0.7,0.2l-1.6,0.4l-0.9,0.2l-0.2,0.1l-1.7,0.4l-0.2,0.1l-0.9,0.2l-1.9,0.4l-0.5,0.1l0,0l-0.6,0.1
	l-1.8,0.4l-0.6,0.1l-0.6,0.1l-1.8,0.4l-0.6,0.1l-0.5,0.1l-1.7,0.4l-1.8,0.4l-1.8,0.4l-0.6,0.1l-2.7,0.5l-0.3,0.1l-1.3,0.2l-1.9,0.4
	l0,0l-0.6,0.1l-2.1,0.4l-0.5,0.1l-0.6,0.1l-2,0.4l-0.1,0l-1.3,0.2l-0.6,0.1l-2,0.4h0l-3.3,0.6l-0.1,0l-2.8,0.5l-1.1,0.2l-2.9,0.5
	c-68.9,11.2-163.9,18.2-268.7,18.2c-104.7,0-199.7-6.9-268.7-18.2l-2.9-0.5l-1.1-0.2l-2.8-0.5l-0.1,0l-3.3-0.6h0l-2-0.4l-0.6-0.1
	l-1.3-0.2l-0.1,0l-2-0.4l-0.6-0.1l-0.5-0.1l-2.1-0.4l-0.6-0.1l0,0l-1.9-0.4l-1.3-0.2l-0.3-0.1l-2.7-0.5l-0.6-0.1l-1.8-0.4l-1.8-0.4
	l-1.7-0.4l-0.5-0.1l-0.6-0.1l-1.8-0.4l-0.6-0.1l-0.6-0.1l-1.8-0.4l-0.6-0.1l0,0l-0.4-0.1l-1.9-0.4l-0.9-0.2l-0.2-0.1l-1.7-0.4
	l-0.2-0.1l-0.9-0.2l-1.6-0.4l-0.7-0.2l0,0l-0.5-0.1l-1.6-0.4l-1-0.3l-0.1,0l-1.6-0.4l-0.1,0l-1.2-0.3l-0.6-0.2
	c-0.9-0.2-1.8-0.5-2.7-0.7l-0.2-0.1l-1.4-0.4l0,0l-1.5-0.4l-1.5-0.4l0,0c-0.9-0.3-1.8-0.5-2.7-0.8l-0.4-0.1l-1.3-0.4l-1.5-0.5
	l-1.2-0.4l-0.6-0.2c-0.7-0.2-1.4-0.5-2.1-0.7l-0.4-0.1c-2.7-0.9-5.4-1.9-7.9-2.9l-1.3-0.5c-6.7-2.6-12.6-5.4-17.7-8.3v126.9
	c0,11.1,38.9,23,101.9,33.3c67.7,11,161.5,17.8,265.3,17.8c103.8,0,197.6-6.8,265.3-17.8c62.9-10.2,101.9-22.1,101.9-33.3V1254.9
	L1332,1254.9z"/>
<path class="st4" d="M650.7,1274.1l-0.8-0.2l-0.7-0.2l0,0l-0.5-0.1l-1.6-0.4l-1-0.3l-0.1,0l-1.6-0.4l-0.1,0l-1.2-0.3l-0.6-0.2
	c-0.9-0.2-1.8-0.5-2.7-0.7l-0.2-0.1l-1.4-0.4l0,0l-1.5-0.4l-1.5-0.4l0,0c-0.9-0.3-1.8-0.5-2.7-0.8l-0.4-0.1l-1.3-0.4l-1.5-0.5
	l-1.2-0.4l-0.6-0.2c-0.7-0.2-1.4-0.5-2.1-0.7l-0.4-0.1c-2.7-0.9-5.4-1.9-7.9-2.9l-1.3-0.5c-6.7-2.6-12.6-5.4-17.7-8.3v126.9
	c0,11.1,38.9,23,101.9,33.3c67.7,11,161.5,17.8,265.3,17.8c20.7,0,41-0.3,60.7-0.8c-114.8,0.5-330.4-45-355.2-62.9
	C650,1354.5,649.7,1298.7,650.7,1274.1L650.7,1274.1z M1059.5,1431c36.1-1.5,70-3.9,100.9-7l1.2-0.1l1.2-0.1l1.2-0.1l1.2-0.1l0.1,0
	l1-0.1c2.4-0.2,4.7-0.5,7-0.7l1.2-0.1l1.1-0.1l0,0l1.2-0.1l1.1-0.1l1.1-0.1l1.1-0.1l0.5-0.1l0.7-0.1l1.1-0.1l0.7-0.1l0.4,0l1.1-0.1
	l0,0l2.2-0.3l1.1-0.1l0.1,0l1-0.1l1.1-0.1l0.3,0l0.8-0.1l1.1-0.1l0.6-0.1l0.5-0.1l1.1-0.1l0.8-0.1l0.3,0l1.1-0.1l1-0.1l0.1,0
	l1.1-0.1l1.1-0.1l0.2,0l0.9-0.1l1.1-0.1l0.4-0.1l0.7-0.1l1.1-0.1l0.6-0.1l0.4-0.1l1.9-0.3l0.2,0l1.1-0.1l1.1-0.1l0,0l1-0.1l1-0.1
	l0.3,0l0.8-0.1l1-0.1l0.5-0.1l0.5-0.1l1-0.2l0.7-0.1l0.3,0l1-0.2l0.9-0.1l0.1,0l1-0.2l1-0.2l0.1,0l0.9-0.1l1-0.2l0.3-0.1l0.7-0.1
	l1-0.2l0.6-0.1l0.4-0.1l1-0.2l0.8-0.1l0.2,0l1-0.2l1-0.2c62.9-10.2,101.9-22.1,101.9-33.3v-46.2v-32.7c-12.4,16-26.6,30.8-41.9,41
	C1236.7,1379.4,1170.7,1415.9,1059.5,1431L1059.5,1431z"/>
<path class="st4" d="M597.6,1229.6c0,11.1,38.9,23,101.9,33.3c67.7,11,161.5,17.8,265.3,17.8c103.8,0,197.6-6.8,265.3-17.8
	c62.9-10.2,101.9-22.1,101.9-33.3c0-11.1-38.9-23-101.9-33.3c-67.7-11-161.5-17.8-265.3-17.8c-103.8,0-197.6,6.8-265.3,17.8
	C636.5,1206.6,597.6,1218.5,597.6,1229.6L597.6,1229.6z"/>
<path class="st4" d="M1321.5,1219.3c-15.6-7.9-47.7-15.8-91.3-22.9c-67.7-11-161.5-17.8-265.3-17.8c-103.8,0-197.6,6.8-265.3,17.8
	c-43.6,7.1-75.7,15-91.3,22.9c15.6,7.9,47.7,15.8,91.3,22.9c67.7,11,161.5,17.8,265.3,17.8c103.8,0,197.6-6.8,265.3-17.8
	C1273.8,1235,1305.9,1227.1,1321.5,1219.3L1321.5,1219.3z"/>
<path class="st3" d="M620.8,1224.4c17.6,6.1,44.7,12.2,78.7,17.7c67.7,11,161.5,17.8,265.3,17.8c103.8,0,197.6-6.8,265.3-17.8
	c34.1-5.5,61.1-11.6,78.7-17.7c-17.6-6.1-44.7-12.2-78.7-17.7c-67.7-11-161.5-17.8-265.3-17.8c-103.8,0-197.6,6.8-265.3,17.8
	C665.4,1212.3,638.4,1218.3,620.8,1224.4L620.8,1224.4z"/>
<path class="st2" d="M1465.1,1081.7v152.2c0,22.8-45.6,41.7-119.3,53.7c-68.9,11.2-163.9,18.2-268.7,18.2
	c-104.7,0-199.7-6.9-268.7-18.2c-73.7-12-119.3-30.8-119.3-53.7v-152.2c0-22.8,45.6-41.7,119.3-53.7
	c68.9-11.2,163.9-18.2,268.7-18.2c104.7,0,199.7,6.9,268.7,18.2C1419.5,1040,1465.1,1058.9,1465.1,1081.7L1465.1,1081.7z
	 M709.9,1081.7c0,11.1,38.9,23,101.9,33.3c67.7,11,161.5,17.8,265.3,17.8c103.8,0,197.6-6.8,265.3-17.8
	c62.9-10.2,101.9-22.1,101.9-33.3c0-11.1-38.9-23-101.9-33.3c-67.7-11-161.5-17.8-265.3-17.8c-103.8,0-197.6,6.8-265.3,17.8
	C748.9,1058.7,709.9,1070.6,709.9,1081.7L709.9,1081.7z M1444.4,1107c-5.1,2.9-11,5.6-17.7,8.3l-1.3,0.5c-2.5,1-5.2,1.9-7.9,2.9
	l-0.4,0.1l-2.1,0.7l-0.6,0.2l-1.2,0.4l-1.5,0.5l-1.3,0.4l-0.4,0.1l-2.7,0.8l0,0l-1.5,0.4l-1.5,0.4l-1.5,0.4l-0.2,0.1l-2.7,0.7
	l-0.6,0.2l-1.2,0.3l-0.1,0l-1.6,0.4l-0.1,0l-1,0.3l-1.6,0.4l-0.5,0.1l0,0l-0.7,0.2l-1.6,0.4l-0.9,0.2l-0.2,0.1l-1.7,0.4l-0.2,0.1
	l-0.9,0.2l-1.9,0.4l-0.4,0.1l0,0l-0.6,0.1l-1.8,0.4l-0.6,0.1l-0.6,0.1l-1.8,0.4l-0.6,0.1l-0.5,0.1l-1.7,0.4l-1.8,0.4l-1.8,0.4
	l-0.6,0.1l-2.7,0.5l-0.3,0.1l-1.3,0.2l-1.9,0.4l0,0l-0.6,0.1l-2.1,0.4l-0.5,0.1l-0.6,0.1l-2,0.4l-0.1,0l-1.3,0.2l-0.6,0.1l-2,0.4h0
	l-3.3,0.6l-0.1,0l-2.8,0.5l-1.1,0.2l-2.9,0.5c-68.9,11.2-163.9,18.2-268.7,18.2c-104.7,0-199.7-6.9-268.7-18.2l-2.9-0.5l-1.1-0.2
	l-2.8-0.5l-0.1,0l-3.3-0.6h0l-2-0.4l-0.6-0.1l-1.3-0.2l-0.1,0l-2-0.4l-0.6-0.1l-0.5-0.1l-2.1-0.4l-0.6-0.1l0,0l-1.9-0.4l-1.3-0.2
	l-0.3-0.1l-2.7-0.5l-0.6-0.1l-1.8-0.4l-1.8-0.4l-1.7-0.4l-0.5-0.1l-0.6-0.1l-1.8-0.4l-0.6-0.1l-0.6-0.1l-1.8-0.4l-0.6-0.1l0,0
	l-0.4-0.1l-1.9-0.4l-0.9-0.2l-0.2-0.1l-1.7-0.4l-0.2-0.1l-0.9-0.2l-1.6-0.4l-0.7-0.2l0,0l-0.5-0.1l-1.6-0.4l-1-0.3l-0.1,0l-1.6-0.4
	l-0.1,0l-1.2-0.3l-0.6-0.2c-0.9-0.2-1.8-0.5-2.7-0.7l-0.2-0.1l-1.4-0.4l0,0l-1.5-0.4l-1.5-0.4l0,0c-0.9-0.3-1.8-0.5-2.7-0.8
	l-0.4-0.1l-1.3-0.4l-1.5-0.5l-1.2-0.4l-0.6-0.2c-0.7-0.2-1.4-0.5-2.1-0.7l-0.4-0.1c-2.7-0.9-5.4-1.9-7.9-2.9l-1.3-0.5
	c-6.7-2.6-12.6-5.4-17.7-8.3v126.9c0,11.1,38.9,23,101.9,33.3c67.7,11,161.5,17.8,265.3,17.8c103.8,0,197.6-6.8,265.3-17.8
	c62.9-10.2,101.9-22.1,101.9-33.3V1107L1444.4,1107z"/>
<path class="st3" d="M1444.4,1107c-5.1,2.9-11,5.6-17.7,8.3l-1.3,0.5c-2.5,1-5.2,1.9-7.9,2.9l-0.4,0.1l-2.1,0.7l-0.6,0.2l-1.2,0.4
	l-1.5,0.5l-1.3,0.4l-0.4,0.1l-2.7,0.8l0,0l-1.5,0.4l-1.5,0.4l-1.5,0.4l-0.2,0.1l-2.7,0.7l-0.6,0.2l-1.2,0.3l-0.1,0l-1.6,0.4l-0.1,0
	l-1,0.3l-1.6,0.4l-0.5,0.1l0,0l-0.7,0.2l-1.6,0.4l-0.9,0.2l-0.2,0.1l-1.7,0.4l-0.2,0.1l-0.9,0.2l-1.9,0.4l-0.4,0.1l0,0l-0.6,0.1
	l-1.8,0.4l-0.6,0.1l-0.6,0.1l-1.8,0.4l-0.6,0.1l-0.5,0.1l-1.7,0.4l-1.8,0.4l-1.8,0.4l-0.6,0.1l-2.7,0.5l-0.3,0.1l-1.3,0.2l-1.9,0.4
	l0,0l-0.6,0.1l-2.1,0.4l-0.5,0.1l-0.6,0.1l-2,0.4l-0.1,0l-1.3,0.2l-0.6,0.1l-2,0.4h0l-3.3,0.6l-0.1,0l-2.8,0.5l-1.1,0.2l-2.9,0.5
	c-68.9,11.2-163.9,18.2-268.7,18.2c-104.7,0-199.7-6.9-268.7-18.2l-2.9-0.5l-1.1-0.2l-2.8-0.5l-0.1,0l-3.3-0.6h0l-2-0.4l-0.6-0.1
	l-1.3-0.2l-0.1,0l-2-0.4l-0.6-0.1l-0.5-0.1l-2.1-0.4l-0.6-0.1l0,0l-1.9-0.4l-1.3-0.2l-0.3-0.1l-2.7-0.5l-0.6-0.1l-1.8-0.4l-1.8-0.4
	l-1.7-0.4l-0.5-0.1l-0.6-0.1l-1.8-0.4l-0.6-0.1l-0.6-0.1l-1.8-0.4l-0.6-0.1l0,0l-0.4-0.1l-1.9-0.4l-0.9-0.2l-0.2-0.1l-1.7-0.4
	l-0.2-0.1l-0.9-0.2l-1.6-0.4l-0.7-0.2l0,0l-0.5-0.1l-1.6-0.4l-1-0.3l-0.1,0l-1.6-0.4l-0.1,0l-1.2-0.3l-0.6-0.2
	c-0.9-0.2-1.8-0.5-2.7-0.7l-0.2-0.1l-1.4-0.4l0,0l-1.5-0.4l-1.5-0.4l0,0c-0.9-0.3-1.8-0.5-2.7-0.8l-0.4-0.1l-1.3-0.4l-1.5-0.5
	l-1.2-0.4l-0.6-0.2c-0.7-0.2-1.4-0.5-2.1-0.7l-0.4-0.1c-2.7-0.9-5.4-1.9-7.9-2.9l-1.3-0.5c-6.7-2.6-12.6-5.4-17.7-8.3v126.9
	c0,11.1,38.9,23,101.9,33.3c67.7,11,161.5,17.8,265.3,17.8c103.8,0,197.6-6.8,265.3-17.8c62.9-10.2,101.9-22.1,101.9-33.3V1107
	L1444.4,1107z"/>
<path class="st4" d="M763,1126.2l-0.8-0.2l-0.7-0.2l0,0l-0.5-0.1l-1.6-0.4l-1-0.3l-0.1,0l-1.6-0.4l-0.1,0l-1.2-0.3l-0.6-0.2
	c-0.9-0.2-1.8-0.5-2.7-0.7l-0.2-0.1l-1.4-0.4l0,0l-1.5-0.4l-1.5-0.4l0,0c-0.9-0.3-1.8-0.5-2.7-0.8l-0.4-0.1l-1.3-0.4l-1.5-0.5
	l-1.2-0.4l-0.6-0.2c-0.7-0.2-1.4-0.5-2.1-0.7l-0.4-0.1c-2.7-0.9-5.4-1.9-7.9-2.9l-1.3-0.5c-6.7-2.6-12.6-5.4-17.7-8.3v126.9
	c0,11.1,38.9,23,101.9,33.3c67.7,11,161.5,17.8,265.3,17.8c20.7,0,41-0.3,60.7-0.8c-114.8,0.5-330.4-45-355.2-62.9
	C762.3,1206.6,762.1,1150.8,763,1126.2L763,1126.2z M1171.9,1283c36.1-1.5,70-3.9,100.9-7l1.2-0.1l1.2-0.1l1.2-0.1l1.2-0.1l0.1,0
	l1-0.1c2.4-0.2,4.7-0.5,7-0.7l1.2-0.1l1.1-0.1l0,0l1.2-0.1l1.1-0.1l1.1-0.1l1.1-0.1l0.5-0.1l0.7-0.1l1.1-0.1l0.7-0.1l0.4,0l1.1-0.1
	l0,0l2.2-0.3l1.1-0.1l0.1,0l1-0.1l1.1-0.1l0.3,0l0.8-0.1l1.1-0.1l0.6-0.1l0.5-0.1l1.1-0.1l0.8-0.1l0.3,0l1.1-0.1l1-0.1l0.1,0
	l1.1-0.1l1.1-0.1l0.2,0l0.9-0.1l1.1-0.1l0.4-0.1l0.7-0.1l1.1-0.1l0.6-0.1l0.4-0.1l1.9-0.3l0.2,0l1.1-0.1l1.1-0.1l0,0l1-0.1l1-0.1
	l0.3,0l0.8-0.1l1-0.1l0.5-0.1l0.5-0.1l1-0.2l0.7-0.1l0.3,0l1-0.2l0.9-0.1l0.1,0l1-0.2l1-0.2l0.1,0l0.9-0.1l1-0.2l0.3-0.1l0.7-0.1
	l1-0.2l0.6-0.1l0.4-0.1l1-0.2l0.8-0.1l0.2,0l1-0.2l1-0.2c62.9-10.2,101.9-22.1,101.9-33.3v-46.2V1155c-12.4,16-26.6,30.8-41.9,41
	C1349.1,1231.5,1283,1268,1171.9,1283L1171.9,1283z"/>
<path class="st4" d="M709.9,1081.7c0,11.1,38.9,23,101.9,33.3c67.7,11,161.5,17.8,265.3,17.8c103.8,0,197.6-6.8,265.3-17.8
	c62.9-10.2,101.9-22.1,101.9-33.3c0-11.1-38.9-23-101.9-33.3c-67.7-11-161.5-17.8-265.3-17.8c-103.8,0-197.6,6.8-265.3,17.8
	C748.9,1058.7,709.9,1070.6,709.9,1081.7L709.9,1081.7z"/>
<path class="st4" d="M1433.8,1071.3c-15.6-7.9-47.7-15.8-91.3-22.9c-67.7-11-161.5-17.8-265.3-17.8c-103.8,0-197.6,6.8-265.3,17.8
	c-43.6,7.1-75.7,15-91.3,22.9c15.6,7.9,47.7,15.8,91.3,22.9c67.7,11,161.5,17.8,265.3,17.8c103.8,0,197.6-6.8,265.3-17.8
	C1386.1,1087.1,1418.2,1079.2,1433.8,1071.3L1433.8,1071.3z"/>
<path class="st3" d="M733.1,1076.5c17.6,6.1,44.7,12.2,78.7,17.7c67.7,11,161.5,17.8,265.3,17.8c103.8,0,197.6-6.8,265.3-17.8
	c34.1-5.5,61.1-11.6,78.7-17.7c-17.6-6.1-44.7-12.2-78.7-17.7c-67.7-11-161.5-17.8-265.3-17.8c-103.8,0-197.6,6.8-265.3,17.8
	C777.8,1064.3,750.7,1070.4,733.1,1076.5L733.1,1076.5z"/>
<path class="st2" d="M1365.3,933.7V1086c0,22.8-45.6,41.7-119.3,53.7c-68.9,11.2-163.9,18.2-268.7,18.2
	c-104.7,0-199.7-6.9-268.7-18.2c-73.7-12-119.3-30.8-119.3-53.7V933.7c0-22.8,45.6-41.7,119.3-53.7c68.9-11.2,163.9-18.2,268.7-18.2
	c104.7,0,199.7,6.9,268.7,18.2C1319.7,892.1,1365.3,910.9,1365.3,933.7L1365.3,933.7z M610.1,933.7c0,11.1,38.9,23,101.9,33.3
	c67.7,11,161.5,17.8,265.3,17.8c103.8,0,197.6-6.8,265.3-17.8c62.9-10.2,101.9-22.1,101.9-33.3c0-11.1-38.9-23-101.9-33.3
	c-67.7-11-161.5-17.8-265.3-17.8c-103.8,0-197.6,6.8-265.3,17.8C649.1,910.7,610.1,922.6,610.1,933.7L610.1,933.7z M1344.5,959
	c-5.1,2.9-11,5.6-17.7,8.3l-1.3,0.5c-2.5,1-5.2,1.9-7.9,2.9l-0.4,0.1l-2.1,0.7l-0.6,0.2l-1.2,0.4l-1.5,0.5l-1.3,0.4l-0.4,0.1
	l-2.7,0.8l0,0l-1.5,0.4l-1.5,0.4l-1.5,0.4l-0.2,0.1l-2.7,0.7l-0.6,0.2l-1.2,0.3l-0.1,0l-1.6,0.4l-0.1,0l-1,0.3l-1.6,0.4l-0.5,0.1
	l0,0l-0.7,0.2l-1.6,0.4l-0.9,0.2l-0.2,0.1l-1.7,0.4l-0.2,0.1l-0.9,0.2l-1.9,0.4l-0.4,0.1l0,0l-0.6,0.1l-1.8,0.4l-0.6,0.1l-0.6,0.1
	l-1.8,0.4l-0.6,0.1l-0.5,0.1l-1.7,0.4l-1.8,0.4l-1.8,0.4l-0.6,0.1l-2.7,0.5l-0.3,0.1l-1.3,0.2l-1.9,0.4l0,0l-0.6,0.1l-2.1,0.4
	l-0.5,0.1l-0.6,0.1l-2,0.4l-0.1,0l-1.3,0.2l-0.6,0.1l-2,0.4h0l-3.3,0.6l-0.1,0l-2.8,0.5l-1.1,0.2l-2.9,0.5
	c-68.9,11.2-163.9,18.2-268.7,18.2c-104.7,0-199.7-6.9-268.7-18.2l-2.9-0.5l-1.1-0.2l-2.8-0.5l-0.1,0l-3.3-0.6h0l-2-0.4l-0.6-0.1
	l-1.3-0.2l-0.1,0l-2-0.4l-0.6-0.1l-0.5-0.1l-2.1-0.4l-0.6-0.1l0,0l-1.9-0.4l-1.3-0.2l-0.3-0.1l-2.7-0.5l-0.6-0.1l-1.8-0.4l-1.8-0.4
	l-1.7-0.4l-0.5-0.1l-0.6-0.1l-1.8-0.4l-0.6-0.1l-0.6-0.1l-1.8-0.4l-0.6-0.1l0,0l-0.4-0.1l-1.9-0.4l-0.9-0.2l-0.2-0.1l-1.7-0.4
	l-0.2-0.1l-0.9-0.2l-1.6-0.4l-0.7-0.2l0,0l-0.5-0.1l-1.6-0.4l-1-0.3l-0.1,0l-1.6-0.4l-0.1,0l-1.2-0.3l-0.6-0.2
	c-0.9-0.2-1.8-0.5-2.7-0.7l-0.2-0.1l-1.4-0.4l0,0l-1.5-0.4l-1.5-0.4l0,0c-0.9-0.3-1.8-0.5-2.7-0.8l-0.4-0.1l-1.3-0.4l-1.5-0.5
	l-1.2-0.4l-0.6-0.2c-0.7-0.2-1.4-0.5-2.1-0.7l-0.4-0.1c-2.7-0.9-5.4-1.9-7.9-2.9l-1.3-0.5c-6.7-2.6-12.6-5.4-17.7-8.3V1086
	c0,11.1,38.9,23,101.9,33.3c67.7,11,161.5,17.8,265.3,17.8c103.8,0,197.6-6.8,265.3-17.8c62.9-10.2,101.9-22.1,101.9-33.3V959
	L1344.5,959z"/>
<path class="st3" d="M1344.5,959c-5.1,2.9-11,5.6-17.7,8.3l-1.3,0.5c-2.5,1-5.2,1.9-7.9,2.9l-0.4,0.1l-2.1,0.7l-0.6,0.2l-1.2,0.4
	l-1.5,0.5l-1.3,0.4l-0.4,0.1l-2.7,0.8l0,0l-1.5,0.4l-1.5,0.4l-1.5,0.4l-0.2,0.1l-2.7,0.7l-0.6,0.2l-1.2,0.3l-0.1,0l-1.6,0.4l-0.1,0
	l-1,0.3l-1.6,0.4l-0.5,0.1l0,0l-0.7,0.2l-1.6,0.4l-0.9,0.2l-0.2,0.1l-1.7,0.4l-0.2,0.1l-0.9,0.2l-1.9,0.4l-0.4,0.1l0,0l-0.6,0.1
	l-1.8,0.4l-0.6,0.1l-0.6,0.1l-1.8,0.4l-0.6,0.1l-0.5,0.1l-1.7,0.4l-1.8,0.4l-1.8,0.4l-0.6,0.1l-2.7,0.5l-0.3,0.1l-1.3,0.2l-1.9,0.4
	l0,0l-0.6,0.1l-2.1,0.4l-0.5,0.1l-0.6,0.1l-2,0.4l-0.1,0l-1.3,0.2l-0.6,0.1l-2,0.4h0l-3.3,0.6l-0.1,0l-2.8,0.5l-1.1,0.2l-2.9,0.5
	c-68.9,11.2-163.9,18.2-268.7,18.2c-104.7,0-199.7-6.9-268.7-18.2l-2.9-0.5l-1.1-0.2l-2.8-0.5l-0.1,0l-3.3-0.6h0l-2-0.4l-0.6-0.1
	l-1.3-0.2l-0.1,0l-2-0.4l-0.6-0.1l-0.5-0.1l-2.1-0.4l-0.6-0.1l0,0l-1.9-0.4l-1.3-0.2l-0.3-0.1l-2.7-0.5l-0.6-0.1l-1.8-0.4l-1.8-0.4
	l-1.7-0.4l-0.5-0.1l-0.6-0.1l-1.8-0.4l-0.6-0.1l-0.6-0.1l-1.8-0.4l-0.6-0.1l0,0l-0.4-0.1l-1.9-0.4l-0.9-0.2l-0.2-0.1l-1.7-0.4
	l-0.2-0.1l-0.9-0.2l-1.6-0.4l-0.7-0.2l0,0l-0.5-0.1l-1.6-0.4l-1-0.3l-0.1,0l-1.6-0.4l-0.1,0l-1.2-0.3l-0.6-0.2
	c-0.9-0.2-1.8-0.5-2.7-0.7l-0.2-0.1l-1.4-0.4l0,0l-1.5-0.4l-1.5-0.4l0,0c-0.9-0.3-1.8-0.5-2.7-0.8l-0.4-0.1l-1.3-0.4l-1.5-0.5
	l-1.2-0.4l-0.6-0.2c-0.7-0.2-1.4-0.5-2.1-0.7l-0.4-0.1c-2.7-0.9-5.4-1.9-7.9-2.9l-1.3-0.5c-6.7-2.6-12.6-5.4-17.7-8.3V1086
	c0,11.1,38.9,23,101.9,33.3c67.7,11,161.5,17.8,265.3,17.8c103.8,0,197.6-6.8,265.3-17.8c62.9-10.2,101.9-22.1,101.9-33.3V959
	L1344.5,959z"/>
<path class="st4" d="M663.2,978.3l-0.8-0.2l-0.7-0.2l0,0l-0.5-0.1l-1.6-0.4l-1-0.3l-0.1,0l-1.6-0.4l-0.1,0l-1.2-0.3l-0.6-0.2
	c-0.9-0.2-1.8-0.5-2.7-0.7l-0.2-0.1l-1.4-0.4l0,0l-1.5-0.4l-1.5-0.4l0,0c-0.9-0.3-1.8-0.5-2.7-0.8l-0.4-0.1l-1.3-0.4l-1.5-0.5
	l-1.2-0.4l-0.6-0.2c-0.7-0.2-1.4-0.5-2.1-0.7l-0.4-0.1c-2.7-0.9-5.4-1.9-7.9-2.9l-1.3-0.5c-6.7-2.6-12.6-5.4-17.7-8.3V1086
	c0,11.1,38.9,23,101.9,33.3c67.7,11,161.5,17.8,265.3,17.8c20.7,0,41-0.3,60.7-0.8c-114.8,0.5-330.4-45-355.2-62.9
	C662.5,1058.6,662.2,1002.8,663.2,978.3L663.2,978.3z M1072.1,1135.1c36.1-1.5,70-3.9,100.9-7l1.2-0.1l1.2-0.1l1.2-0.1l1.2-0.1
	l0.1,0l1-0.1c2.4-0.2,4.7-0.5,7-0.7l1.2-0.1l1.1-0.1l0,0l1.2-0.1l1.1-0.1l1.1-0.1l1.1-0.1l0.5-0.1l0.7-0.1l1.1-0.1l0.7-0.1l0.4,0
	l1.1-0.1l0,0l2.2-0.3l1.1-0.1l0.1,0l1-0.1l1.1-0.1l0.3,0l0.8-0.1l1.1-0.1l0.6-0.1l0.5-0.1l1.1-0.1l0.8-0.1l0.3,0l1.1-0.1l1-0.1
	l0.1,0l1.1-0.1l1.1-0.1l0.2,0l0.9-0.1l1.1-0.1l0.4-0.1l0.7-0.1l1.1-0.1l0.6-0.1l0.4-0.1l1.9-0.3l0.2,0l1.1-0.1l1.1-0.1l0,0l1-0.1
	l1-0.1l0.3,0l0.8-0.1l1-0.1l0.5-0.1l0.5-0.1l1-0.2l0.7-0.1l0.3,0l1-0.2l0.9-0.1l0.1,0l1-0.2l1-0.2l0.1,0l0.9-0.1l1-0.2l0.3-0.1
	l0.7-0.1l1-0.2l0.6-0.1l0.4-0.1l1-0.2l0.8-0.1l0.2,0l1-0.2l1-0.2c62.9-10.2,101.9-22.1,101.9-33.3v-46.2V1007
	c-12.4,16-26.6,30.8-41.9,41C1249.2,1083.6,1183.2,1120,1072.1,1135.1L1072.1,1135.1z"/>
<path class="st4" d="M610.1,933.7c0,11.1,38.9,23,101.9,33.3c67.7,11,161.5,17.8,265.3,17.8c103.8,0,197.6-6.8,265.3-17.8
	c62.9-10.2,101.9-22.1,101.9-33.3c0-11.1-38.9-23-101.9-33.3c-67.7-11-161.5-17.8-265.3-17.8c-103.8,0-197.6,6.8-265.3,17.8
	C649.1,910.7,610.1,922.6,610.1,933.7L610.1,933.7z"/>
<path class="st4" d="M1334,923.4c-15.6-7.9-47.7-15.8-91.3-22.9c-67.7-11-161.5-17.8-265.3-17.8c-103.8,0-197.6,6.8-265.3,17.8
	c-43.6,7.1-75.7,15-91.3,22.9c15.6,7.9,47.7,15.8,91.3,22.9c67.7,11,161.5,17.8,265.3,17.8c103.8,0,197.6-6.8,265.3-17.8
	C1286.3,939.2,1318.4,931.3,1334,923.4L1334,923.4z"/>
<path class="st4" d="M633.3,928.6c17.6,6.1,44.7,12.2,78.7,17.7c67.7,11,161.5,17.8,265.3,17.8c103.8,0,197.6-6.8,265.3-17.8
	c34.1-5.5,61.1-11.6,78.7-17.7c-17.6-6.1-44.7-12.2-78.7-17.7c-67.7-11-161.5-17.8-265.3-17.8c-103.8,0-197.6,6.8-265.3,17.8
	C677.9,916.4,650.9,922.4,633.3,928.6L633.3,928.6z"/>
<path class="st5" d="M1213.4,395.4c64,61.7,100.7,145.4,100.7,234.6c0,89.3-36.7,172.9-100.7,234.6
	c-65.2,62.8-152.1,96.9-242.5,96.9c-90.4,0-177.4-34.1-242.5-96.9c-64-61.7-100.7-145.4-100.7-234.6c0-89.3,36.7-172.9,100.7-234.6
	c65.2-62.8,152.1-96.9,242.5-96.9C1061.3,298.5,1148.3,332.6,1213.4,395.4L1213.4,395.4z"/>
<path class="st3" d="M1203.5,405.8c-59.5-57.4-141.7-92.9-232.5-92.9c-90.8,0-173,35.5-232.5,92.9C678.9,463.2,642,542.5,642,630.1
	c0,87.6,36.8,166.9,96.3,224.3c59.5,57.4,141.7,92.9,232.5,92.9c90.8,0,173-35.5,232.5-92.9c59.5-57.4,96.3-136.7,96.3-224.3
	C1299.8,542.5,1263,463.2,1203.5,405.8L1203.5,405.8z"/>
<path class="st2" d="M1197.8,411.2c-29.6-28.6-64.9-51.6-104.2-67.2c-37.8-15.1-79.2-23.4-122.7-23.4c-43.5,0-85,8.3-122.7,23.4
	c-39.2,15.7-74.5,38.7-104.2,67.2c-29.6,28.6-53.5,62.6-69.7,100.5c-15.6,36.4-24.3,76.4-24.3,118.4c0,42,8.6,82,24.3,118.4
	c16.2,37.8,40.1,71.9,69.7,100.5c29.6,28.6,64.9,51.6,104.2,67.2c37.8,15.1,79.2,23.4,122.7,23.4c43.5,0,85-8.3,122.7-23.4
	c39.2-15.7,74.5-38.7,104.2-67.2c29.6-28.6,53.5-62.6,69.7-100.5c15.6-36.4,24.3-76.4,24.3-118.4c0-42-8.6-82-24.3-118.4
	C1251.3,473.9,1227.4,439.8,1197.8,411.2L1197.8,411.2z M1099.7,329.8c41.3,16.5,78.4,40.6,109.4,70.5c31,29.9,56,65.7,73.1,105.5
	c16.4,38.3,25.5,80.3,25.5,124.2c0,44-9.1,85.9-25.5,124.2c-17.1,39.8-42.1,75.6-73.1,105.5c-31,29.9-68.1,54-109.4,70.5
	c-39.7,15.9-83.2,24.6-128.8,24.6c-45.6,0-89.1-8.8-128.8-24.6c-41.3-16.5-78.4-40.6-109.4-70.5c-31-29.9-56-65.7-73.1-105.5
	c-16.4-38.3-25.5-80.3-25.5-124.2c0-44,9.1-85.9,25.5-124.2c17.1-39.8,42.1-75.6,73.1-105.5c31-29.9,68.1-54.1,109.4-70.5
	c39.7-15.9,83.2-24.6,128.8-24.6C1016.5,305.2,1060,313.9,1099.7,329.8L1099.7,329.8z"/>
<path d="M1021.7,315.8c88.3,0,168.2,35.8,226,93.6c57.8,57.8,93.6,137.7,93.6,226c0,88.3-35.8,168.2-93.6,226
	c-57.8,57.8-137.7,93.6-226,93.6c-88.3,0-168.2-35.8-226-93.6c-57.8-57.8-93.6-137.7-93.6-226c0-88.3,35.8-168.2,93.6-226
	C853.6,351.5,933.5,315.8,1021.7,315.8L1021.7,315.8z"/>
<path class="st5" d="M1252.3,404.8c61.3,61.3,95.5,143.8,95.5,230.6c0,86.8-34.2,169.2-95.5,230.6c-61.3,61.3-143.8,95.5-230.6,95.5
	c-86.8,0-169.2-34.2-230.6-95.5c-61.3-61.3-95.5-143.8-95.5-230.6c0-86.8,34.2-169.2,95.5-230.6c61.3-61.3,143.8-95.5,230.6-95.5
	C1108.5,309.3,1191,343.5,1252.3,404.8L1252.3,404.8z"/>
<path class="st4" d="M1237.2,419.9c-55.2-55.2-131.4-89.3-215.5-89.3c-84.2,0-160.4,34.1-215.5,89.3
	C751,475,716.9,551.2,716.9,635.4s34.1,160.4,89.3,215.5c55.2,55.2,131.4,89.3,215.5,89.3c84.2,0,160.4-34.1,215.5-89.3
	c55.2-55.2,89.3-131.4,89.3-215.5S1292.4,475,1237.2,419.9L1237.2,419.9z"/>
<path class="st6" d="M1237.2,419.9c-45.6-45.6-105.7-76.9-172.7-86.3c-67,9.4-127.1,40.7-172.7,86.3
	c-55.2,55.2-89.3,131.4-89.3,215.5s34.1,160.4,89.3,215.5c45.6,45.6,105.7,76.9,172.7,86.3c67-9.4,127.1-40.7,172.7-86.3
	c55.2-55.2,89.3-131.4,89.3-215.5S1292.4,475,1237.2,419.9L1237.2,419.9z"/>
<path class="st3" d="M984.6,356.3c-34.8,15.3-66.2,37-92.8,63.5c-55.2,55.2-89.3,131.4-89.3,215.5s34.1,160.4,89.3,215.5
	c45.6,45.6,105.7,76.9,172.7,86.3c66.4-9.3,125.9-40.1,171.4-85c42.3-52.3,67.6-118.9,67.6-191.4c0-84.2-34.1-160.4-89.3-215.5
	c-55.2-55.2-131.4-89.3-215.5-89.3C994,356,989.3,356.1,984.6,356.3L984.6,356.3z"/>
<path class="st1" d="M1475.6,1545.9c-3.4-2-2.4-10.5,2.1-20.6c-8.9-6.5-14.1-13.4-12.1-16.8c2-3.4,10.5-2.4,20.6,2.1
	c6.5-8.9,13.4-14.1,16.8-12.1c3.4,2,2.4,10.5-2.1,20.6c8.9,6.5,14.1,13.4,12.1,16.8c-2,3.4-10.5,2.4-20.6-2.1
	C1485.9,1542.7,1479,1547.8,1475.6,1545.9L1475.6,1545.9z"/>
<path class="st1" d="M1611.6,1558.5c5.1,1.6,10.5-1.2,12.1-6.2c1.6-5.1-1.2-10.5-6.2-12.1c-5.1-1.6-10.5,1.2-12.1,6.2
	C1603.7,1551.5,1606.5,1556.9,1611.6,1558.5L1611.6,1558.5z"/>
<path class="st1" d="M104.3,782.6c-3.4-2-2.4-10.5,2.1-20.6c-8.9-6.5-14.1-13.4-12.1-16.8c2-3.4,10.5-2.4,20.6,2.1
	c6.5-8.9,13.4-14.1,16.8-12.1c3.4,2,2.4,10.5-2.1,20.6c8.9,6.5,14.1,13.4,12.1,16.8c-2,3.4-10.5,2.4-20.6-2.1
	C114.6,779.5,107.8,784.6,104.3,782.6L104.3,782.6z"/>
<path class="st1" d="M240.4,795.3c5.1,1.6,10.5-1.2,12.1-6.2c1.6-5.1-1.2-10.5-6.2-12.1c-5.1-1.6-10.5,1.2-12.1,6.2
	C232.5,788.3,235.3,793.7,240.4,795.3L240.4,795.3z"/>
<path class="st1" d="M1028.3,73.3c3.4-2,2.4-10.5-2.1-20.6c8.9-6.5,14.1-13.4,12.1-16.8c-2-3.4-10.5-2.4-20.6,2.1
	c-6.5-8.9-13.4-14.1-16.8-12.1c-3.4,2-2.4,10.5,2.1,20.6c-8.9,6.5-14.1,13.4-12.1,16.8c2,3.4,10.5,2.4,20.6-2.1
	C1018,70.1,1024.9,75.3,1028.3,73.3L1028.3,73.3z"/>
<path class="st1" d="M892.3,86c-5.1,1.6-10.5-1.2-12.1-6.2c-1.6-5.1,1.2-10.5,6.2-12.1c5.1-1.6,10.5,1.2,12.1,6.2
	C900.1,79,897.3,84.4,892.3,86L892.3,86z"/>
<path class="st5" d="M916.1,691.7l132.7-273.3v343.2L916.1,691.7L916.1,691.7z M1190,701.7l-133.2,173.3V768.1L1190,701.7
	L1190,701.7z M916.1,701.7l132.7,66.4v106.8L916.1,701.7L916.1,701.7z M1190,691.7l-133.2,69.8V418.3L1190,691.7L1190,691.7z"/>
</svg>
