<?xml version="1.0" encoding="UTF-8"?>
<svg width="52px" height="52px" viewBox="0 0 52 52" version="1.1" xmlns="http://www.w3.org/2000/svg" xmlns:xlink="http://www.w3.org/1999/xlink">
    <!-- Generator: Sketch 57.1 (83088) - https://sketch.com -->
    <title>Artboard Copy 9</title>
    <desc>Created with Sketch.</desc>
    <g id="Artboard-Copy-9" stroke="none" stroke-width="1" fill="none" fill-rule="evenodd">
        <g id="Group" transform="translate(5.000000, 10.000000)" fill="#002747" fill-rule="nonzero" stroke="#002747">
            <path d="M26.9636498,0.766850546 C29.4551524,0.474523182 32.0047489,0.832518287 34.3430289,1.70243933 C36.2318071,2.40077692 37.9985882,3.41474333 39.5315413,4.69632344 C39.872843,4.37504579 40.206883,4.04600098 40.5539941,3.73037216 C40.8771415,3.44016311 41.4268551,3.45993404 41.7340267,3.76426518 C42.0186868,4.02481783 42.0811378,4.47743097 41.8792614,4.80294526 C41.7681568,4.97382261 41.6040415,5.10162757 41.4595329,5.24355462 C38.3086644,8.232496 35.1563436,11.2207313 32.0062013,14.2110849 C32.4869284,14.9560254 32.7018759,15.8669005 32.5551888,16.7389398 C32.4803928,17.2212094 32.2923138,17.6808836 32.0403315,18.1003098 C35.2420321,21.1379724 38.4437328,24.175635 41.647612,27.2111793 C41.8923326,27.411713 42.0462814,27.7252236 41.9874614,28.0387341 C41.9257366,28.4800495 41.4646162,28.8175676 41.0114837,28.7490754 C40.7718463,28.7264801 40.5714223,28.5831408 40.4109378,28.4193245 C40.111028,28.1312338 39.8082135,27.8473797 39.5075775,27.5607011 C37.6848811,29.1649711 35.4911098,30.3724102 33.1303185,31.0474464 C30.7056239,31.7500206 28.1059214,31.8509936 25.6267637,31.3694301 C23.472932,30.9577711 21.4171337,30.0906744 19.6205795,28.8655827 C17.6272322,30.5559975 14.9345794,31.2486862 12.3334246,31.2748121 C8.55586801,31.281167 4.77831146,31.2769304 1.00075491,31.2769304 C0.464112406,31.2974075 -0.0216979237,30.8264356 0.000813466748,30.3039181 C0,20.8865991 0.000813466748,11.4699863 0.000813466748,2.05266728 C-0.0216979237,1.5633367 0.426351364,1.1177846 0.93031604,1.13120059 C4.5880539,1.12696397 8.24579176,1.13049449 11.9035296,1.12908228 C13.3798411,1.11213577 14.8757593,1.26818491 16.2714655,1.75892771 C17.4282605,2.158583 18.4979147,2.80113831 19.3656925,3.64634569 C21.5877846,2.07173211 24.2317837,1.06765117 26.9636498,0.766850546 L26.9636498,0.766850546 Z M21.669116,4.21829053 C20.7548631,4.71821269 19.9306558,5.35300086 19.1267813,6.00402943 C18.7825748,5.60013752 18.4652369,5.17223804 18.0767338,4.80647578 C17.471831,4.228176 16.7427524,3.77979949 15.9577584,3.47052561 C14.7218105,2.98119502 13.3733056,2.82232145 12.0465859,2.83291303 C8.61396192,2.83361913 5.18133797,2.83150082 1.74871401,2.83361913 C1.74816938,11.7474854 1.74816938,20.6620578 1.74871401,29.5759241 C4.62291025,29.5766302 7.49783266,29.5759241 10.3727551,29.5766302 C11.6689755,29.568863 12.9753623,29.6288819 14.2577854,29.4043406 C15.7043237,29.1699139 17.1218152,28.6410414 18.2713484,27.741464 C18.7092313,27.4074764 19.0832108,27.0057028 19.4738924,26.622994 C20.1274489,27.1200918 20.7860886,27.6150712 21.5035484,28.024612 C24.6660357,29.8816674 28.6011719,30.4500818 32.1775783,29.5392066 C34.4265389,28.9764412 36.5309908,27.883391 38.2701772,26.3871551 C37.3682693,25.5327683 36.4678136,24.6762633 35.5651795,23.8225826 C34.1585807,24.9791822 32.4491674,25.7912027 30.6380897,26.1287207 C29.0027461,26.4365824 27.2918804,26.3278423 25.703012,25.8491033 C23.5411923,25.2016052 21.61901,23.8409414 20.3089923,22.0495536 C18.8704419,20.1049412 18.1907431,17.6505211 18.4231188,15.2660054 C18.6358877,12.8730164 19.7774331,10.5774699 21.5572853,8.91459318 C23.3175308,7.24889209 25.7015596,6.22080359 28.1553012,6.08805589 C29.4515216,6.00120501 30.7557299,6.21021201 31.9829637,6.61339782 C33.2675653,7.03353015 34.4810019,7.66055116 35.5535607,8.46621667 C36.4678136,7.60194446 37.379888,6.73484784 38.2926886,5.86916342 C35.9761939,4.04882539 33.1470205,2.81879093 30.1856834,2.45373478 C27.2497623,2.12610218 24.2237958,2.78842843 21.669116,4.21829053 L21.669116,4.21829053 Z M22.5775596,10.3282149 C20.8340161,12.0560532 19.9154061,14.5443663 20.1710193,16.9564201 C20.2421844,17.5629641 20.462215,18.1391456 20.6967692,18.7012049 C21.276256,20.0795214 22.1004633,21.378048 23.2151402,22.4075487 C24.3007702,23.4186907 25.6732388,24.1438603 27.1495503,24.4361877 C29.6563026,24.9488197 32.3504077,24.2130586 34.3067202,22.6285595 C33.1433896,21.5242117 31.9807852,20.4198639 30.8160023,19.3176344 C29.5807805,20.1028228 27.8851645,20.0795214 26.6666447,19.274562 C26.0443137,19.8620411 25.4270659,20.4537569 24.8032825,21.0398238 C24.5360505,21.2940215 24.0959892,21.3434489 23.7742941,21.1605678 C23.4358971,20.980511 23.255806,20.5681459 23.3589227,20.2066202 C23.406124,19.9969071 23.5600728,19.8359153 23.7162002,19.6939882 C24.3058534,19.1368716 24.8955066,18.5783427 25.4829813,18.0184016 C25.2222849,17.5629641 25.0371105,17.0616297 24.9862783,16.5405244 C24.8991375,15.7588665 25.1068232,14.9637925 25.5163853,14.2915808 C24.872269,13.6758575 24.2216172,13.0664891 23.5789534,12.4493535 C23.3109952,12.1937436 23.2543536,11.7637258 23.439528,11.448097 C23.6159882,11.1261132 24.0197409,10.9446443 24.3857325,11.0265525 C24.6050371,11.0632699 24.7807711,11.2059031 24.9318153,11.3563034 C25.5301826,11.926836 26.1314546,12.4952503 26.7312742,13.0643708 C27.9214732,12.3031898 29.5444718,12.284125 30.7528252,13.0191801 C31.9226913,11.9113017 33.0911051,10.8027173 34.2595189,9.69342672 C32.9131925,8.73029984 31.3352166,8.04467214 29.6722784,7.82719188 C27.076933,7.52144852 24.383554,8.5008158 22.5775596,10.3282149 L22.5775596,10.3282149 Z M28.4159976,14.1856651 C27.3456173,14.3854927 26.4829227,15.5039627 26.7385359,16.564532 C26.8155104,16.9366492 27.0369934,17.2572207 27.2562979,17.5629641 C27.6687647,17.9583827 28.2286447,18.2380002 28.8190241,18.2196415 C29.9373319,18.216111 30.9227499,17.191553 30.8748224,16.1119188 C30.8385137,14.9482582 29.599661,13.9540627 28.4159976,14.1856651 Z" id="Shape"></path>
            <path d="M6.99938185,7.70949974 C7.11408356,7.67406373 7.23633144,7.6727008 7.35631547,7.67065642 C8.4618287,7.6727008 9.56809654,7.67133788 10.6743644,7.67133788 C11.3271077,7.68019688 11.9881518,7.62499848 12.6325943,7.75038744 C13.5019126,7.89281294 14.3591569,8.2798832 14.8753147,8.9456713 C15.4103378,9.62645156 15.5333403,10.5150776 15.3673246,11.3226098 C15.2292298,12.0013457 14.7968345,12.6303348 14.1659751,13.0228568 C13.3517439,13.535316 12.32622,13.6995483 11.3497462,13.6613864 C9.96804331,13.6532089 8.58483119,13.6695639 7.20312831,13.6586606 C6.76620534,13.6436684 6.40776248,13.2668201 6.43794714,12.875661 C6.43794714,11.3989335 6.43719253,9.92152448 6.43870176,8.44479693 C6.41908173,8.12246554 6.65754056,7.8062673 6.99938185,7.70949974 L6.99938185,7.70949974 Z M8.256573,9.31434209 C8.25581838,10.2159159 8.25581838,11.1181713 8.256573,12.0197451 C9.29039766,12.0217895 10.3234677,12.0149749 11.3572924,12.0183822 C11.9790964,12.0429148 12.6544782,11.987035 13.1713905,11.6435782 C13.5653003,11.3784896 13.6528359,10.8953333 13.6083135,10.4803231 C13.585675,10.1395922 13.4007939,9.8002243 13.0695173,9.62304425 C12.5609057,9.34160056 11.9413656,9.28912801 11.358047,9.31161624 C10.3242223,9.31706794 9.29039766,9.31093478 8.256573,9.31434209 Z" id="Shape"></path>
            <path d="M7.09038209,19.6918355 C8.61154001,19.6491247 10.1364706,19.6964117 11.6591376,19.6666667 C12.6181613,19.6735309 13.6156667,19.9313213 14.355873,20.5727464 C14.9874251,21.1150214 15.3496056,21.929578 15.4160053,22.7563376 C15.5080595,23.7142805 15.2907513,24.7431539 14.6441082,25.4745769 C13.9386109,26.2845573 12.8467877,26.6331082 11.8055189,26.6666667 C10.2715338,26.6491247 8.73754863,26.6704801 7.20431803,26.6620905 C6.76894693,26.6689547 6.40374831,26.2509988 6.43845727,25.8170262 C6.4407209,24.0361371 6.43468455,22.2552481 6.44147544,20.474359 C6.43996635,20.1006392 6.72895618,19.7574272 7.09038209,19.6918355 L7.09038209,19.6918355 Z M8.25690498,21.5139101 C8.25615044,22.6175274 8.25615044,23.7219075 8.25690498,24.8255248 C9.29062837,24.8285756 10.3243518,24.8171352 11.3588297,24.8239994 C11.9519002,24.8537445 12.5902432,24.7858647 13.090505,24.4335004 C13.4247674,24.1970654 13.585485,23.7829229 13.6088758,23.3832716 C13.6443393,22.9058255 13.5832213,22.3643132 13.22255,22.016525 C12.8241515,21.6443306 12.258999,21.5322147 11.7345919,21.5062831 C10.5756144,21.5207743 9.41663698,21.5093339 8.25690498,21.5139101 Z" id="Shape"></path>
        </g>
    </g>
</svg>