<svg xmlns="http://www.w3.org/2000/svg" width="100" height="100"><path d="M44.275 16.25C41.63 19.119 10 73.995 10 75.714 10 76.735 16.419 77 41.107 77c27.955 0 31.045-.16 30.5-1.582-.334-.87-.607-1.77-.607-2 0-.23-12.375-.418-27.5-.418S16 72.824 16 72.608c0-.216 7.252-12.928 16.115-28.25s16.336-28.42 16.607-29.108c.821-2.086-2.237-1.398-4.447 1m8.401.88C50.44 20.6 23 68.239 23 68.65c0 .193 1.012.344 2.25.336 1.883-.012 4.454-3.855 15.743-23.528C52.405 25.571 54.67 22.196 55.678 23.574c.655.896 8.281 13.932 16.947 28.969C81.29 67.58 88.744 79.658 89.19 79.383c.445-.276.81-1.497.81-2.714 0-2.293-30.831-56.731-34.003-60.039-1.748-1.824-1.831-1.811-3.321.5m.849 14.992c-.561 2.17 1.574 6.512 12.399 25.208C73.116 69.753 79 80.161 79 80.458c0 .298-15.075.542-33.5.542s-33.5.378-33.5.839C12 84.5 18.167 85 50.988 85c18.642 0 34.095-.338 34.34-.75.38-.639-25.109-45.845-29.585-52.47l-1.54-2.28-.678 2.622m-12.36 21.149C36.674 61.12 33 67.87 33 68.271c0 .401 7.683.729 17.073.729 13.165 0 17-.286 16.75-1.25C66.237 65.485 50.786 39 50.05 39c-.396 0-4.394 6.422-8.885 14.271m3.585 2.034C42.138 59.869 40 63.917 40 64.302c0 .384 4.5.698 10 .698s10-.299 10-.664c0-1.087-9.308-17.336-9.929-17.333-.314.002-2.709 3.738-5.321 8.302" fill-rule="evenodd"/></svg>