<svg width="20" height="24" xmlns="http://www.w3.org/2000/svg"><g fill="#FFF" fill-rule="evenodd"><path d="M18.733 3h-2.248V.75a.75.75 0 00-.75-.75H2.249A2.252 2.252 0 000 2.25V21c0 1.654 1.344 3 2.997 3h15.736a.75.75 0 00.75-.75V3.75a.75.75 0 00-.75-.75zM2.248 1.5h12.738V3H2.248a.752.752 0 01-.75-.75c0-.413.338-.75.75-.75zm15.736 21H2.997A1.5 1.5 0 011.5 21V4.362c.235.084.485.138.749.138h15.736v18z" fill-rule="nonzero"/><g transform="translate(5 5)"><rect y="10" width="10" height="1.4" rx=".7"/><rect x="1" y="13" width="8" height="1.4" rx=".7"/><text font-family="ArialRoundedMTBold, Arial Rounded MT Bold" font-size="8"><tspan x="2" y="8">A</tspan></text></g></g></svg>