<svg xmlns="http://www.w3.org/2000/svg" width="100" height="100"><path d="M40.618 11.048c-6.328 1.59-15.334 6.92-19.706 11.663-2.245 2.436-5.507 7.436-7.247 11.109-2.866 6.049-3.165 7.582-3.165 16.232 0 9.015.21 9.976 3.735 17.108 4.498 9.102 10.288 14.771 19.585 19.175C39.861 89.197 41.409 89.5 50 89.5s10.139-.303 16.18-3.165c9.297-4.404 15.087-10.073 19.585-19.175C89.294 60.02 89.5 59.075 89.5 50s-.206-10.02-3.735-17.16c-6.757-13.673-18.762-21.696-33.516-22.398-4.262-.203-9.496.07-11.631.606m4.59 16.24C42.894 29.646 41 31.98 41 32.473c0 .494.981 1.942 2.18 3.218l2.179 2.32 2.321-2.18 2.32-2.18 2.314 2.174 2.313 2.173 2.678-2.795 2.678-2.795-4.776-4.704C52.58 25.117 50.203 23 49.924 23c-.279 0-2.401 1.93-4.716 4.288m-8.72 9.725l-2.887 3.013 4.912 4.987L43.425 50l-4.713 4.784C36.121 57.416 34 60.037 34 60.61c0 1.247 4.251 5.39 5.53 5.39.496 0 3.054-2.121 5.686-4.712L50 56.575l4.784 4.713C57.416 63.879 60.037 66 60.61 66c1.247 0 5.39-4.251 5.39-5.53 0-.496-2.121-3.054-4.712-5.686L56.575 50l4.934-5.009 4.934-5.01-3.212-3.212-3.212-3.212-5.01 4.934L50 43.425l-4.784-4.713C42.584 36.121 40.193 34 39.903 34c-.291 0-1.828 1.356-3.415 3.013m6.547 27.45l-2.325 2.474 3.786 4.282c2.082 2.354 4.175 4.711 4.651 5.237.527.582 2.818-.966 5.851-3.954l4.985-4.91-2.678-2.795-2.678-2.795-2.313 2.173L50 66.349l-2.32-2.18-2.321-2.18-2.324 2.474" fill-rule="evenodd"/></svg>