<svg xmlns="http://www.w3.org/2000/svg" width="100" height="100"><path d="M17.383 32.402C6.209 37.605 2.07 49.728 7.647 60.919c4.511 9.053 15.274 13.919 24.602 11.124 2.369-.709 6.253-3.296 9.356-6.231 5.104-4.827 5.248-5.106 3.783-7.342l-1.522-2.324-4.683 4.827c-3.021 3.114-6.092 5.21-8.651 5.907-11.393 3.099-22.687-8.163-19.618-19.562 1.522-5.652 7.516-10.96 13.367-11.837 8.034-1.205 13.612 3.029 24.287 18.436C58.857 68.765 63.734 72.392 73.5 72.454c4.781.031 6.947-.517 10.663-2.699C88.109 67.439 93 61.836 93 59.632c0-1.845-4.746-.191-8.072 2.814-5.332 4.817-10.944 6.202-16.514 4.074-4.93-1.882-8.87-5.954-17.023-17.589-7.171-10.233-11.498-14.622-16.79-17.025-5.548-2.519-11.085-2.36-17.218.496m48.799-.883c-4.686 2.036-8.781 5.109-11.047 8.291-1.68 2.36-1.759 2.984-.579 4.597 1.287 1.76 1.677 1.581 6.852-3.149 6.135-5.607 10.312-6.949 16.469-5.291C82.293 37.156 89 43.811 89 47.003 89 48.866 88.329 49 79 49H69v5h26.272l-.649-4.75c-1.881-13.761-16.54-22.9-28.441-17.731" fill-rule="evenodd"/></svg>