<svg xmlns="http://www.w3.org/2000/svg" width="100" height="100"><path d="M50.005 13.25c.005 3.171.162 3.287 6.466 4.791l6.46 1.54 1.131-2.73c1.523-3.676.789-4.503-5.12-5.77-8.143-1.746-8.943-1.552-8.937 2.169m-19.003 1.84c-8.828 4.827-14.748 11.531-18.385 20.817-1.869 4.77-1.256 6.046 2.917 6.078 1.511.011 2.774-1.542 4.911-6.041 3.049-6.422 9.052-12.528 15.166-15.43 3.122-1.481 3.481-2.018 2.905-4.352-1.031-4.174-1.674-4.266-7.514-1.072m41.422 6.385c-1.566 2.391-1.501 2.617 1.913 6.606 4.265 4.983 6.256 9.001 7.825 15.799 1.14 4.939 1.303 5.12 4.623 5.12h3.442l-.678-4.75c-.917-6.433-5.522-16.107-10.054-21.123C77.445 20.857 75.38 19 74.907 19c-.474 0-1.591 1.114-2.483 2.475m-25.338 7.65c-8.485 1.589-15.852 8.43-18.075 16.784-2.765 10.388 3.385 21.436 13.888 24.953 7.798 2.611 16.724.224 23.048-6.163 15.046-15.197 2.155-39.511-18.861-35.574m-2.685 7.746c-14.705 6.801-10.089 28.14 6.083 28.125 7.717-.007 14.505-6.717 14.512-14.345.011-11.076-10.8-18.31-20.595-13.78M10 54.395c0 .767.897 4.298 1.993 7.847 3.718 12.039 13.954 22.166 26.147 25.869 3.831 1.164 7.115 1.952 7.296 1.753.182-.2.631-1.767.998-3.483.651-3.044.553-3.147-4.133-4.315C29.694 78.921 20.392 69.031 17.55 55.75c-.505-2.361-1.081-2.75-4.069-2.75C11.17 53 10 53.469 10 54.395m70.627 7.793C78.182 69.072 69.399 77.946 62.5 80.502c-2.75 1.019-5.155 1.966-5.345 2.104-.19.138-.033 1.671.348 3.406.616 2.805.987 3.086 3.345 2.524 9.991-2.379 20.182-11.193 25.196-21.791 3.389-7.164 3.56-8.299 1.374-9.138-3.715-1.426-4.955-.59-6.791 4.581" fill-rule="evenodd"/></svg>