<svg width="18" height="20" xmlns="http://www.w3.org/2000/svg"><path d="M11.386 4a.588.588 0 01-.596-.58c0-.321.266-.58.596-.58.33 0 .597.258.597.58 0 .32-.267.58-.597.58zM6.614 4a.588.588 0 01-.597-.58c0-.321.267-.58.597-.58.33 0 .596.258.596.58 0 .32-.266.58-.596.58zm5.125-2.325l.222-.328.223-.322.495-.724a.19.19 0 00-.056-.268.2.2 0 00-.274.054l-.756 1.102-.227.331A6.695 6.695 0 009 1.097a6.7 6.7 0 00-2.366.423l-.226-.331-.223-.326-.532-.776a.204.204 0 00-.276-.054A.191.191 0 005.32.3l.496.724.222.323.223.327c-1.687.765-2.83 2.215-2.83 3.874h11.136c0-1.659-1.142-3.109-2.829-3.875zM3.518 6.323h-.085v8.516c0 .676.564 1.226 1.26 1.226H5.6a1.09 1.09 0 00-.048.322v2.452c0 .641.535 1.161 1.194 1.161.658 0 1.193-.52 1.193-1.16v-2.453c0-.112-.018-.22-.048-.322h2.216a1.13 1.13 0 00-.047.322v2.452c0 .641.534 1.161 1.192 1.161.66 0 1.195-.52 1.195-1.16v-2.453c0-.112-.018-.22-.05-.322h.91c.697 0 1.26-.55 1.26-1.226V6.323H3.518zm-2.074 0c-.66 0-1.194.52-1.194 1.16v4.969c0 .64.534 1.16 1.194 1.16.658 0 1.192-.52 1.192-1.16V7.483c0-.64-.534-1.16-1.192-1.16zm15.114 0c-.66 0-1.194.52-1.194 1.16v4.969c0 .64.534 1.16 1.194 1.16.658 0 1.192-.52 1.192-1.16V7.483c0-.64-.534-1.16-1.192-1.16z"/></svg>