<svg xmlns="http://www.w3.org/2000/svg" width="100" height="100"><path d="M39.802 18.895c-9.197 4.053-21.058 11.09-26.666 15.821l-3.365 2.838 1.733 6.473c3.051 11.399 9.687 23.857 16.789 31.517C35.131 82.92 45.762 90 50 90c4.198 0 14.847-7.056 21.532-14.267 6.973-7.521 12.958-18.602 16.549-30.64l2.209-7.408-3.395-2.866C78.521 27.75 59.191 17.405 51 15.609c-1.651-.362-5.453.754-11.198 3.286m2.991 12.351c1.127 1.362.775 1.651-2.723 2.242-10.293 1.739-19.045 12.347-19.064 23.107-.013 6.861 13.62 22.648 24.177 27.998l4.904 2.485 5.154-2.789C60.239 81.585 72 71.569 72 70.017c0-.422-1.316-1.03-2.923-1.352C65.539 67.958 62 64.392 62 61.534 62 58.636 64.746 55 66.934 55c2.042 0 4.404 2.328 3.391 3.342-.362.362-.212.658.334.658C73.162 59 76 54.27 76 50.099c0-3.833-.547-4.815-5.314-9.544-6.092-6.044-13.703-9.429-23.186-10.314-5.362-.5-5.863-.393-4.707 1.005M57 37.465c0 1.229 4.327 2.566 6.288 1.942 2.151-.684 2.157-.724.212-1.485-2.237-.874-6.5-1.174-6.5-.457" fill-rule="evenodd"/></svg>