<svg width="16" height="20" xmlns="http://www.w3.org/2000/svg"><path d="M9.028 1.469C9.725.65 10.902.04 11.873 0c.124 1.137-.332 2.276-1.006 3.097-.675.82-1.78 1.458-2.864 1.373-.148-1.113.399-2.274 1.025-3.001m5.526 15.516c-.806 1.182-1.64 2.357-2.955 2.382-1.296.024-1.71-.77-3.19-.77-1.479 0-1.942.745-3.165.795-1.27.047-2.237-1.277-3.049-2.454C.535 14.532-.732 10.134.972 7.166c.844-1.473 2.356-2.406 3.994-2.43 1.248-.024 2.427.843 3.189.843.763 0 2.194-1.04 3.698-.888.63.026 2.397.255 3.532 1.92-.09.06-2.109 1.238-2.085 3.694.025 2.933 2.563 3.908 2.592 3.921-.023.07-.406 1.392-1.338 2.76"/></svg>