<svg xmlns="http://www.w3.org/2000/svg" width="100" height="100"><path d="M40.927 8.119c-8.628.693-20.689 4.185-25.625 7.419L12.7 17.243l.67 16.347c.368 8.991 1.114 18.691 1.658 21.555 1.402 7.393 5.129 14.986 9.897 20.157 5.115 5.55 22.229 16.948 25.446 16.948 3.023 0 21.316-11.99 25.415-16.659 5.086-5.793 8.197-11.982 9.667-19.232 1.599-7.889 3.099-35.043 2.108-38.165-.393-1.239-2.87-3.141-6.051-4.646-10.317-4.881-24.23-6.742-40.583-5.429M37 11.132c-6.097.996-17.73 4.622-18.422 5.742-.7 1.132 11.38 22.128 12.72 22.108C32.319 38.966 48 12.318 48 10.597c0-.783-4.175-.58-11 .535m21.294 9.004c9.715 18.07 10.183 18.847 11.348 18.856.628.004 3.846-4.954 7.152-11.019l6.011-11.028-3.653-1.539c-5.31-2.237-12.748-4.054-20.041-4.897l-6.389-.738 5.572 10.365M42.267 25.25c-5.562 9.974-7.962 15.303-8.001 17.761C34.189 47.974 47.684 72.5 50.492 72.5c1.477 0 3.693-3.176 9.038-12.951 9.046-16.544 9.048-16.411-.665-34.658-4.051-7.61-7.655-13.848-8.009-13.863-.354-.016-4.219 6.384-8.589 14.222m-26.699-6.361c-.93 1.505 1.421 34.636 2.795 39.381l1.137 3.927 4.084-7.348c5.764-10.372 5.512-14.096-1.835-27.188-3.037-5.411-5.818-9.359-6.181-8.772m63.174 9.382c-7.195 13.199-7.448 15.942-2.336 25.309 2.077 3.806 4.144 7.306 4.592 7.777.449.471 1.285-1.554 1.858-4.5 1.437-7.384 3.154-36.016 2.256-37.621-.473-.845-2.727 2.351-6.37 9.035m-30.075 1.396C48.3 30.033 48 32.27 48 34.636c0 4.12-.232 4.451-5.479 7.807-3.667 2.346-5.294 3.985-4.92 4.959.486 1.266 1.079 1.269 4.604.026 2.226-.786 4.44-1.428 4.921-1.428 1.575 0 .995 7.739-.626 8.362-3.044 1.168-1.358 2.253 3.5 2.253 4.756 0 6.193-.76 4-2.115-1.228-.759-1.342-8.5-.126-8.5.481 0 2.695.642 4.921 1.428 3.492 1.232 4.121 1.233 4.591.008.357-.929-1.344-2.627-4.921-4.915C53.586 39.4 53 38.657 53 35.594c0-5.586-1.974-8.286-4.333-5.927M25.56 55.108c-5.064 9.005-5.01 8.81-3.43 12.278.973 2.135 2.708 2.865 12.468 5.245 6.236 1.521 11.629 2.475 11.984 2.12.919-.919-13.835-27.708-15.272-27.732-.655-.01-3.243 3.63-5.75 8.089m35.58 5.433c-4.048 7.465-7.104 13.828-6.792 14.141.313.312 5.565-.672 11.672-2.187 9.034-2.241 11.407-3.217 12.727-5.232 1.565-2.388 1.456-2.789-3.006-11.12-2.546-4.754-5.217-8.763-5.935-8.909-.769-.156-4.331 5.312-8.666 13.307M64.5 74.71C53.779 77.645 51 79.799 51 85.174c0 2.104.454 3.826 1.009 3.826 1.677 0 17.281-10.641 20.428-13.93 3.41-3.565 3.718-3.551-7.937-.36m-36.304.232C29.533 77.083 47.054 89 48.865 89 49.514 89 50 87.362 50 85.174c0-5.539-2.816-7.683-13.305-10.128-10.616-2.476-9.975-2.468-8.499-.104" fill-rule="evenodd"/></svg>