<svg xmlns="http://www.w3.org/2000/svg" width="100" height="100"><path d="M37 10.576c0 .316 1.86 3.759 4.133 7.651l4.133 7.077-2.883 5.344c-1.586 2.939-3.601 6.3-4.478 7.468-1.587 2.114-1.604 2.108-3.831-1.496-1.955-3.163-2.731-3.62-6.156-3.62-2.155 0-3.918.259-3.918.576 0 .316 1.86 3.759 4.133 7.651l4.133 7.077-2.883 5.344c-1.586 2.939-3.601 6.3-4.478 7.468-1.587 2.114-1.604 2.108-3.831-1.496-2.035-3.292-2.645-3.62-6.737-3.62h-4.5l1.95 3.25a592.66 592.66 0 014.622 7.908l2.673 4.658-4.481 7.342-4.48 7.342 8.106.293c4.458.161 8.652.084 9.32-.173.668-.256 3.039-3.754 5.268-7.774l4.053-7.308-2.14-3.808c-2.112-3.757-2.115-3.855-.277-7.269 1.025-1.904 2.131-3.456 2.456-3.45.326.006 2.466 3.269 4.756 7.25l4.164 7.239-2.599 4.5a1288.697 1288.697 0 01-4.512 7.75L36.802 87h18.019l4.45-7.705 4.451-7.704-1.857-3.046c-2.608-4.276-2.394-4.7 2.195-4.352 3.48.263 4.356.825 6.123 3.927l2.061 3.619-4.122 6.939C65.855 82.494 64 85.928 64 86.308c0 1.295 16.694.77 17.734-.558.539-.687 2.597-4.18 4.575-7.76l3.595-6.51-4.486-7.74C81.014 56.142 80.859 56 76.966 56 74.785 56 73 55.79 73 55.534s.734-2.006 1.632-3.888c1.623-3.405 1.61-3.461-2.57-11.034L67.86 33h-8.988l2.117-3.767 2.117-3.767-4.303-7.711-4.303-7.712-8.75-.021c-4.812-.012-8.75.237-8.75.554m10.299 26.923c-1.599 3.354-1.58 3.657.468 7.3 2.126 3.783 2.127 3.814.191 6.751-2.705 4.103-2.526 4.451 2.292 4.442 3.86-.007 4.446-.351 6.382-3.75l2.132-3.742-4.132-7.239c-2.272-3.981-4.477-7.244-4.898-7.25-.422-.006-1.517 1.564-2.435 3.488" fill-rule="evenodd"/></svg>