<svg xmlns="http://www.w3.org/2000/svg" width="100" height="100"><path d="M28.334 18.131c-5.076 2.443-7.12 4.241-11.56 10.168-2.966 3.961-5.721 7.748-6.122 8.417C9.95 37.889 48.289 82.5 50 82.5c1.711 0 40.05-44.611 39.348-45.784-.401-.669-3.153-4.452-6.116-8.408-4.574-6.107-6.373-7.654-11.922-10.25-6.419-3.004-6.801-3.057-21.672-2.976-14.652.078-15.336.176-21.304 3.049m2.166 1.223l-5 2.328 5.217 2.659C35.632 26.846 36.746 27 50 27c13.254 0 14.368-.154 19.283-2.659l5.217-2.659-5-2.328c-4.511-2.101-6.418-2.328-19.5-2.328s-14.989.227-19.5 2.328M17.976 29.725C15.239 33.34 13 36.582 13 36.93 13 37.62 27.513 45 28.871 45c1.085 0 5.459-14.698 4.848-16.288-.256-.667-2.784-2.19-5.616-3.386l-5.151-2.174-4.976 6.573m52.88-4.078l-5.644 2.516 2.498 8.168c1.373 4.493 2.686 8.367 2.916 8.608.55.577 16.374-7.145 16.374-7.99 0-.66-9.885-14.004-10.284-13.883-.119.036-2.756 1.198-5.86 2.581M33.744 37.912l-2.713 8.912 9.196 16.088C45.285 71.76 49.682 79 50 79c.318 0 4.715-7.24 9.773-16.088l9.196-16.088-2.713-8.912L63.543 29H36.457l-2.713 8.912M45 37c0 1.467-.667 2-2.5 2-1.556 0-2.5.567-2.5 1.5 0 .825.675 1.5 1.5 1.5 1.19 0 1.5 1.444 1.5 7s-.31 7-1.5 7c-.825 0-1.5.675-1.5 1.5 0 .933.944 1.5 2.5 1.5 1.833 0 2.5.533 2.5 2 0 1.111.667 2 1.5 2s1.5-.889 1.5-2c0-1.1.45-2 1-2s1 .9 1 2 .45 2 1 2 1-.9 1-2c0-1.25.667-2 1.777-2 5.034 0 8.371-6.973 4.768-9.963-1.12-.929-1.199-1.619-.342-2.99 1.57-2.514.3-5.031-3.205-6.354C53.213 39.019 52 37.841 52 36.781c0-.98-.45-1.781-1-1.781s-1 .9-1 2-.45 2-1 2-1-.9-1-2c0-1.111-.667-2-1.5-2s-1.5.889-1.5 2m-29 4.519c0 .568 21.744 25.496 25.278 28.981 1.435 1.414 1.066.242-1.258-4-10.269-18.74-10.058-18.47-17.27-22.114C19.038 42.51 16 41.22 16 41.519M47 44.5c0 3.213.243 3.5 2.965 3.5 3.807 0 5.786-3.106 3.462-5.431-.864-.863-2.663-1.569-3.998-1.569C47.32 41 47 41.461 47 44.5m30-.001c-6.92 3.512-6.828 3.394-17.018 22.001-2.962 5.41-3.042 5.754-.807 3.5 5.246-5.293 25.054-28.103 24.699-28.442-.206-.197-3.299 1.127-6.874 2.941M47 53c0 3.627.239 4 2.566 4C53.198 57 56 55.258 56 53s-2.802-4-6.434-4C47.239 49 47 49.373 47 53" fill-rule="evenodd"/></svg>