<svg width="1061pt" height="1060pt" viewBox="0 0 1061 1060" xmlns="http://www.w3.org/2000/svg"><path d="M130 0h800.57c32.2 1.66 63.63 15.06 86.95 37.36 23.19 21.84 38.4 52.02 41.85 83.72.72 6.02.81 12.1 1.63 18.12v777.94c-.84 11.03-1.13 22.19-3.45 33.06-6.19 31.17-23.84 59.84-48.69 79.62-15.45 12.39-33.63 21.37-52.87 26.04-9.85 2.55-20.01 3.35-30.1 4.14H136.17c-16.07-.69-32.17-3.18-47.22-9.01-29.13-10.92-54.2-32.16-69.86-59.03C8.76 974.36 2.46 954.4.89 934.05c-.22-3.72-.41-7.46-.89-11.13V139.65c.75-7.15.57-14.37 1.68-21.48C6.08 84.44 23.85 52.8 50.1 31.22 72.47 12.56 100.94 1.59 130 0m5.21 24.19c-30.1 1.31-59.29 15.14-79.64 37.31-19.65 21.07-31.05 49.65-30.98 78.49v779.97c0 29.05 11.66 57.8 31.63 78.87 21.39 22.95 52.37 36.7 83.79 36.72 260 .02 520 .01 780 .01 13.2 0 26.4-2.29 38.83-6.76 26.65-9.48 49.49-29.09 63.03-53.91 9.21-16.74 14.16-35.8 14.22-54.91V158c-.13-12.36.62-24.83-1.62-37.06-3.38-20.15-12.3-39.31-25.42-54.97-21.41-25.9-54.42-41.82-88.08-41.9-172.01-.02-344.02 0-516.04-.01-89.9.09-179.81-.17-269.72.13z"/><path d="M612.49 311.71c34.31-4.14 69.42.93 101.62 13.25 26.01 9.89 50.34 24.25 71.45 42.4 4.7-4.55 9.3-9.21 14.08-13.68 4.45-4.11 12.02-3.83 16.25.48 3.92 3.69 4.78 10.1 2 14.71-1.53 2.42-3.79 4.23-5.78 6.24-43.39 42.33-86.8 84.65-130.18 127 6.62 10.55 9.58 23.45 7.56 35.8-1.03 6.83-3.62 13.34-7.09 19.28 44.09 43.02 88.18 86.04 132.3 129.03 3.37 2.84 5.49 7.28 4.68 11.72-.85 6.25-7.2 11.03-13.44 10.06-3.3-.32-6.06-2.35-8.27-4.67-4.13-4.08-8.3-8.1-12.44-12.16-25.1 22.72-55.31 39.82-87.82 49.38-33.39 9.95-69.19 11.38-103.33 4.56-29.66-5.83-57.97-18.11-82.71-35.46-27.45 23.94-64.53 33.75-100.35 34.12-52.02.09-104.04.03-156.06.03-7.39.29-14.08-6.38-13.77-13.78-.01-133.37 0-266.73 0-400.1-.31-6.93 5.86-13.24 12.8-13.05 50.37-.06 100.74-.01 151.11-.03 20.33-.24 40.93 1.97 60.15 8.92 15.93 5.66 30.66 14.76 42.61 26.73 30.6-22.3 67.01-36.52 104.63-40.78m-72.91 48.88c-12.59 7.08-23.94 16.07-35.01 25.29-4.74-5.72-9.11-11.78-14.46-16.96-8.33-8.19-18.37-14.54-29.18-18.92-17.02-6.93-35.59-9.18-53.86-9.03-47.27.01-94.54-.02-141.81.01-.01 126.24-.01 252.49 0 378.73 39.58.01 79.17 0 118.76.01 17.85-.11 35.84.74 53.5-2.44 19.92-3.32 39.44-10.81 55.27-23.55 6.03-4.73 11.18-10.42 16.56-15.84 9 7.04 18.07 14.05 27.95 19.85 43.55 26.3 97.74 34.35 146.99 21.45 30.97-7.97 59.95-23.45 83.9-44.64-12.42-12.1-24.82-24.23-37.25-36.32-19.37 16.38-42.91 27.88-67.85 32.66-22.52 4.36-46.08 2.82-67.96-3.96-29.77-9.17-56.24-28.44-74.28-53.81-19.81-27.54-29.17-62.3-25.97-96.07 2.93-33.89 18.65-66.4 43.16-89.95 24.24-23.59 57.07-38.15 90.86-40.03 17.85-1.23 35.81 1.73 52.71 7.44 17.69 5.95 34.4 14.83 49.17 26.24 12.59-12.24 25.15-24.52 37.72-36.78-31.9-25.78-70.86-43.2-111.64-48.37-40.43-4.64-82.1 4.74-117.28 24.99m12.51 86.53c-24.01 24.47-36.66 59.71-33.14 93.87.98 8.59 4.01 16.75 7.24 24.71 7.98 19.52 19.33 37.91 34.68 52.49 14.95 14.32 33.85 24.59 54.18 28.73 34.52 7.26 71.62-3.16 98.56-25.6-16.02-15.64-32.03-31.28-48.07-46.89-17.01 11.12-40.36 10.79-57.14-.61-8.57 8.32-17.07 16.7-25.66 25-3.68 3.6-9.74 4.3-14.17 1.71-4.66-2.55-7.14-8.39-5.72-13.51.65-2.97 2.77-5.25 4.92-7.26 8.12-7.89 16.24-15.8 24.33-23.73-3.59-6.45-6.14-13.55-6.84-20.93-1.2-11.07 1.66-22.33 7.3-31.85-8.87-8.72-17.83-17.35-26.68-26.09-3.69-3.62-4.47-9.71-1.92-14.18 2.43-4.56 7.99-7.13 13.03-5.97 3.02.52 5.44 2.54 7.52 4.67 8.24 8.08 16.52 16.13 24.78 24.19 16.39-10.78 38.74-11.05 55.38-.64 16.11-15.69 32.2-31.39 48.29-47.1-18.54-13.64-40.27-23.35-63.17-26.43-35.74-4.33-72.83 9.54-97.7 35.42m80.4 54.63c-14.74 2.83-26.62 18.67-23.1 33.69 1.06 5.27 4.11 9.81 7.13 14.14 5.68 5.6 13.39 9.56 21.52 9.3 15.4-.05 28.97-14.56 28.31-29.85-.5-16.48-17.56-30.56-33.86-27.28z"/><path d="M339.25 404.21c1.52-.52 3.14-.54 4.73-.57 14.65.03 29.31.01 43.97.01 8.65.13 17.41-.68 25.95 1.16 11.52 2.09 22.88 7.77 29.72 17.54 7.09 9.99 8.72 23.03 6.52 34.88-1.83 9.96-7.56 19.19-15.92 24.95-10.79 7.52-24.38 9.93-37.32 9.37-18.31-.12-36.64.12-54.95-.04-5.79-.22-10.54-5.75-10.14-11.49 0-21.67-.01-43.35.01-65.02-.26-4.73 2.9-9.37 7.43-10.79m16.66 23.55c-.01 13.23-.01 26.47 0 39.7 13.7.03 27.39-.07 41.09-.02 8.24.36 17.19-.46 24.04-5.5 5.22-3.89 6.38-10.98 5.79-17.07-.3-5-2.75-9.98-7.14-12.58-6.74-4.13-14.95-4.9-22.68-4.57-13.7.08-27.4-.01-41.1.04zm-15.46 137.95c20.16-.56 40.37.06 60.55-.33 12.71.09 25.93 3.47 35.74 11.88 8.37 7.11 13.17 17.79 14.05 28.63 1.22 12.56-1.66 26.05-10.23 35.64-9.35 10.62-23.82 15.19-37.62 15.63-20.33-.23-40.66.05-60.98-.06-5.77.09-10.61-5.39-10.15-11.08.03-23.35-.05-46.7.04-70.05-.02-4.9 3.81-9.4 8.6-10.26m15.46 23.89c-.01 14.47-.01 28.95 0 43.42 13.7.04 27.4-.11 41.11-.02 7.86.39 16.32-.5 22.95-5.12 4.43-3.1 6.56-8.53 6.87-13.77.47-6.26-.34-13.36-5.12-17.92-5.28-4.88-12.77-6.35-19.72-6.69-15.36.19-30.72.04-46.09.1z"/></svg>