<svg xmlns="http://www.w3.org/2000/svg" width="225" height="207"><path d="M187.029 25.958l31.998 54.044a50 50 0 01.277 50.474l-29.71 51.46a50 50 0 01-43.85 24.998l-62.804-.69a50 50 0 01-42.475-24.523L8.466 127.677a50 50 0 01-.277-50.474L37.9 25.743A50 50 0 0181.75.744l62.803.69a50 50 0 0142.476 24.523zm-67.234 146.53c13.596-6.778 14.659-7.45 17.96-10.867 2.238-2.353 4.14-5.042 5.26-7.45 3.357-7.17 2.63-16.637-1.791-23.303-3.637-5.49-5.93-6.946-26.856-16.973-10.799-5.21-19.751-9.635-19.863-9.803-.112-.168 8.393-4.425 18.911-9.466 10.52-5.042 20.367-10.027 21.877-11.148 9.064-6.61 12.421-19.437 7.721-29.464-3.804-8.122-6.77-10.419-25.233-19.438-11.526-5.601-13.429-6.33-15.946-6.33-5.092 0-9.68 2.913-12.31 7.787-1.119 2.128-1.175 3.08-1.342 18.653L88.015 71.1l5.035-2.577 5.092-2.52v-13.11c0-14.396.112-14.9 3.357-14.9 1.958 0 25.85 11.65 28.647 14.003 5.091 4.258 6.658 12.38 3.58 18.654-.839 1.736-2.35 3.865-3.412 4.705-1.008.896-9.736 5.322-19.303 9.915-18.185 8.738-19.807 9.803-21.598 14.116-1.846 4.481 0 11.54 3.75 14.396 1.062.728 9.567 5.098 18.91 9.579 9.4 4.481 17.793 8.85 18.688 9.747 2.91 2.744 4.476 6.61 4.476 11.035.056 4.65-1.23 7.898-4.308 11.091-2.462 2.465-26.8 14.956-29.262 14.956-.784 0-1.959-.392-2.518-.952-.895-.84-1.007-2.017-1.007-14.116v-13.276l-4.756-2.352c-2.63-1.289-4.924-2.353-5.092-2.353-.167 0-.223 7.394-.111 16.413.167 15.572.223 16.468 1.398 18.653 1.4 2.577 4.588 5.602 7.106 6.722.951.392 3.301.728 5.204.784 3.357 0 3.972-.28 17.904-7.226zm-52.818-41.564c.728-.336 2.238-2.185 3.413-4.145l2.014-3.53-.839-5.489c-1.119-6.834-1.175-21.622-.112-28.12l.784-4.65-1.567-2.912c-1.902-3.697-3.469-5.434-4.868-5.434-1.343 0-35.137 19.214-37.207 21.175-1.847 1.792-2.91 4.929-2.406 7.506.783 4.2 1.678 4.873 19.191 14.9 15.107 8.682 19.807 11.315 20.142 11.315.056 0 .728-.28 1.455-.616zm113.189-9.243c9.512-5.433 18.072-10.643 19.08-11.539 3.356-3.193 3.524-9.018.279-12.155-1.846-1.793-35.977-21.343-37.263-21.343-1.343 0-3.357 2.241-5.036 5.49l-1.455 2.857.895 6.33c1.008 7.114.84 20.67-.335 27.896l-.728 4.2 2.127 3.53c1.734 3.025 3.189 4.37 4.811 4.537.224.056 8.113-4.369 17.625-9.803z"/><path d="M48.209 113.15c-8.57-4.816-15.57-8.96-15.57-9.129 0-.56 30.804-18.034 31.196-17.698.168.168 0 2.408-.336 4.929-.784 5.825-.784 18.37 0 24.755.336 2.688.504 5.153.392 5.433-.112.28-7.17-3.417-15.682-8.29zm115.711 7.338c1.792-8.682 1.792-25.26.056-33.1-.224-.953-.112-1.289.504-1.12.448.111 7.673 4.088 15.962 8.848 11.314 6.497 14.954 8.85 14.45 9.297-.84.785-30.356 17.587-30.916 17.587-.168 0-.224-.672-.056-1.512z"/></svg>