<svg xmlns="http://www.w3.org/2000/svg" width="227" height="227"><path d="M58.857 82.06a63.39 63.39 0 00-8.435 31.695c0 35.114 28.41 63.589 63.461 63.589 35.05 0 63.46-28.467 63.46-63.589 0-35.114-28.41-63.588-63.46-63.588a63.07 63.07 0 00-31.929 8.626 17.139 17.139 0 00-32.298 8.044 17.167 17.167 0 009.2 15.224zM113.5 227C50.813 227 0 176.187 0 113.5S50.813 0 113.5 0 227 50.813 227 113.5 176.187 227 113.5 227zm.383-81.961c-17.238 0-31.212-14.003-31.212-31.284 0-17.28 13.974-31.283 31.212-31.283s31.213 14.01 31.213 31.283c0 17.274-13.975 31.284-31.213 31.284z"/></svg>