<svg xmlns="http://www.w3.org/2000/svg" width="100" height="100"><path d="M40.618 11.048c-6.328 1.59-15.334 6.92-19.706 11.663-2.245 2.436-5.507 7.436-7.247 11.109-2.866 6.049-3.165 7.582-3.165 16.232 0 9.032.205 9.967 3.772 17.185C18.727 76.251 24.477 81.833 34 86.39c5.864 2.806 7.429 3.11 16 3.11s10.136-.304 16-3.11c9.523-4.557 15.273-10.139 19.728-19.153 3.567-7.218 3.772-8.153 3.772-17.185 0-8.629-.301-10.18-3.11-16.052-6.907-14.433-19.034-22.831-34.005-23.549-4.337-.208-9.632.061-11.767.597M44 32v3h6.545c5.617 0 6.894.348 9 2.455C60.895 38.805 62 40.4 62 41c0 .6-1.105 2.195-2.455 3.545-2.395 2.396-2.828 2.455-18 2.455H26v6h15.545c15.172 0 15.605.059 18 2.455 3.067 3.067 3.067 4.023 0 7.09-2.106 2.107-3.383 2.455-9 2.455H44v6h8.6c8.447 0 8.66-.06 12-3.4 2.937-2.937 3.4-4.064 3.4-8.277 0-2.773-.664-5.826-1.539-7.076-1.356-1.935-1.366-2.469-.082-4.472 1.442-2.249 1.947-5.057 1.732-9.625-.061-1.293-1.641-3.88-3.511-5.75-3.34-3.34-3.553-3.4-12-3.4H44v3" fill-rule="evenodd"/></svg>