<svg xmlns="http://www.w3.org/2000/svg" width="100" height="100"><path d="M40.618 11.048c-6.328 1.59-15.334 6.92-19.706 11.663-2.245 2.436-5.507 7.436-7.247 11.109-2.866 6.049-3.165 7.582-3.165 16.232 0 9.015.21 9.976 3.735 17.108 4.498 9.102 10.288 14.771 19.585 19.175C39.861 89.197 41.409 89.5 50 89.5s10.139-.303 16.18-3.165c9.297-4.404 15.087-10.073 19.585-19.175C89.294 60.02 89.5 59.075 89.5 50s-.206-10.02-3.735-17.16c-6.757-13.673-18.762-21.696-33.516-22.398-4.262-.203-9.496.07-11.631.606m-.118 6.351c-9.655 3.053-17.181 9.556-21.349 18.446C16.934 40.573 16.5 42.893 16.5 50c0 7.107.434 9.427 2.651 14.155 4.471 9.536 14.209 17.19 24.599 19.333l3.25.671v-4.58c0-4.421.103-4.579 3-4.579s3 .158 3 4.579v4.58l3.25-.671c10.39-2.143 20.128-9.797 24.599-19.333 3.809-8.124 3.809-20.186 0-28.31-4.471-9.536-14.209-17.19-24.599-19.333L53 15.841v4.58C53 24.842 52.897 25 50 25c-2.889 0-3-.167-3-4.5 0-4.965-.242-5.08-6.5-3.101M33.184 37.75l.316 2.75h33l.316-2.75.317-2.75H32.867l.317 2.75m.483 9.917c-.367.366-.667 1.716-.667 3V53h34v-6H50.667c-8.984 0-16.634.3-17 .667m.024 11.976c-.38.38-.691 1.74-.691 3.024V65h34.133l-.317-2.75-.316-2.75-16.059-.274c-8.833-.15-16.371.037-16.75.417" fill-rule="evenodd"/></svg>