<svg xmlns="http://www.w3.org/2000/svg" width="227" height="227"><path d="M172.495 192.207c7.956 7.678 20.826 7.678 28.782 0 7.956-7.678 7.956-20.1 0-27.777-7.956-7.678-20.826-7.678-28.782 0-7.885 7.678-7.92 20.133 0 27.777zM59.528 79.932L80.99 59.219l19.66 18.972a38.377 38.377 0 00-12.941 8.258 37.347 37.347 0 00-8.557 12.49zm96.454 50.643l19.66 18.973-21.463 20.713-19.66-18.973a38.377 38.377 0 0012.942-8.258c3.819-3.685 6.647-7.916 8.521-12.455zM33.416 64.835c7.955 7.678 20.826 7.678 28.782 0 7.955-7.678 7.955-20.099 0-27.777-7.956-7.677-20.791-7.712-28.747-.034-7.956 7.678-7.991 20.133-.035 27.811z" class="st0"/><path class="st1" d="M171.81 38.036c-7.956 7.678-7.956 20.099 0 27.777 7.956 7.677 20.826 7.677 28.782 0 7.956-7.678 7.956-20.1 0-27.777-7.92-7.644-20.862-7.644-28.782 0zM35.49 166.226c-7.956 7.678-7.956 20.099 0 27.777 7.955 7.678 20.826 7.678 28.781 0 7.956-7.678 7.956-20.099 0-27.777-7.955-7.678-20.826-7.678-28.782 0zM152.554 60.03l21.463 20.712-19.66 18.973c-1.874-4.539-4.703-8.77-8.557-12.49a38.923 38.923 0 00-12.941-8.257zm-50.276 92.341l-19.66 18.973-21.463-20.713 19.66-18.973c1.874 4.539 4.703 8.77 8.557 12.49a38.497 38.497 0 0012.906 8.223z"/><path class="st2" d="M138.207 207.78c0-10.859-9.1-19.642-20.352-19.642-11.25 0-20.352 8.783-20.352 19.641 0 10.858 9.101 19.641 20.352 19.641s20.352-8.783 20.352-19.64zm0-187.597c0-10.858-9.1-19.641-20.352-19.641-11.25 0-20.352 8.783-20.352 19.64 0 10.859 9.101 19.642 20.352 19.642s20.352-8.783 20.352-19.641zM125.26 177.858h-12.801v-24.322c2.1.337 4.2.53 6.4.53s4.3-.193 6.4-.53zm0-104.508c-2.1-.339-4.2-.532-6.4-.532s-4.301.193-6.401.531V49.027h12.8z"/><path class="st3" d="M207.88 99.697c-11.251 0-20.352 8.783-20.352 19.64 0 10.859 9.101 19.642 20.352 19.642s20.352-8.783 20.352-19.641c0-10.858-9.1-19.641-20.352-19.641zm-186.836-3.33c-11.251 0-20.352 8.783-20.352 19.64 0 10.859 9.1 19.642 20.352 19.642 11.25 0 20.352-8.783 20.352-19.641 0-10.858-9.101-19.641-20.352-19.641zm135.079 13.459h25.203v12.354h-25.203c.35-2.026.55-4.053.55-6.177 0-2.123-.2-4.15-.55-6.177zm-78.288.001a35.952 35.952 0 00-.55 6.177c0 2.123.2 4.15.55 6.177H52.633v-12.354z"/><path class="st4" d="M146.096 114.572c0-15.346-12.901-27.845-28.853-27.845-15.951 0-28.853 12.45-28.853 27.845 0 15.394 12.902 27.845 28.853 27.845 15.952 0 28.853-12.5 28.853-27.845z"/></svg>