<svg xmlns="http://www.w3.org/2000/svg" width="100" height="100"><path d="M37.734 21.765C31.28 28.236 26 33.994 26 34.562 26 35.836 33.232 43 34.519 43c.514 0 4.207-3.251 8.207-7.225L50 28.55l7.274 7.225c4 3.974 7.734 7.225 8.297 7.225C66.844 43 74 35.761 74 34.473 74 33.502 50.952 10 50 10c-.292 0-5.812 5.294-12.266 11.765M13.986 45.514l-4.431 4.515 4.723 4.722L19 59.474l4.722-4.723 4.723-4.722-4.431-4.515C21.577 43.032 19.321 41 19 41c-.321 0-2.577 2.032-5.014 4.514m31 0l-4.431 4.515 4.723 4.722L50 59.474l4.722-4.723 4.723-4.722-4.431-4.515C52.577 43.032 50.321 41 50 41c-.321 0-2.577 2.032-5.014 4.514m31 0l-4.431 4.515 4.723 4.722L81 59.474l4.722-4.723 4.723-4.722-4.431-4.515C83.577 43.032 81.321 41 81 41c-.321 0-2.577 2.032-5.014 4.514M29.703 60.792C27.666 62.878 26 65.022 26 65.558c0 .535 5.4 6.359 12 12.942l12 11.969L62 78.5c6.6-6.583 12-12.447 12-13.031C74 64.172 66.786 57 65.481 57c-.514 0-4.207 3.251-8.207 7.225L50 71.45l-7.274-7.225c-4-3.974-7.734-7.225-8.297-7.225-.563 0-2.689 1.706-4.726 3.792" fill-rule="evenodd"/></svg>