<svg xmlns="http://www.w3.org/2000/svg" width="100" height="100"><path d="M40 15.058c-4.675 2.723-8.616 5.297-8.758 5.721-.215.642 15.373 10.281 17.166 10.614.807.15 18.555-9.784 18.568-10.393.012-.511-.904-1.066-12.061-7.305L48.5 10.108l-8.5 4.95M25 38.726v10.916l8.698 4.929c4.784 2.711 9.059 5.079 9.5 5.262.441.184.798-4.541.794-10.5L43.984 38.5l-3.742-2.065a984.043 984.043 0 01-9.492-5.345L25 27.809v10.917m35.75-5.429L52 38.411v21.761l6.75-3.738C71.783 49.216 71 50.367 71 38.432c0-5.738-.338-10.391-.75-10.341-.412.051-4.687 2.393-9.5 5.206m3.75 27.572l-12 6.861-.282 11.089-.283 11.09 12.533-7.166L77 75.578V64.789c0-5.934-.112-10.787-.25-10.785-.138.002-5.65 3.091-12.25 6.865m-39.284 7.813l.284 10.683 4.5 2.609 9.25 5.359L44 90.084V68.15l-8.869-5.075C30.254 60.284 25.963 58 25.597 58c-.365 0-.537 4.807-.381 10.682" fill-rule="evenodd"/></svg>