<svg xmlns="http://www.w3.org/2000/svg" width="100" height="100"><path d="M40.618 11.048c-6.328 1.59-15.334 6.92-19.706 11.663-2.245 2.436-5.507 7.436-7.247 11.109-2.866 6.049-3.165 7.582-3.165 16.232 0 9.015.21 9.976 3.735 17.108 4.498 9.102 10.288 14.771 19.585 19.175C39.861 89.197 41.409 89.5 50 89.5s10.139-.303 16.18-3.165c9.297-4.404 15.087-10.073 19.585-19.175C89.294 60.02 89.5 59.075 89.5 50s-.206-10.02-3.735-17.16c-6.757-13.673-18.762-21.696-33.516-22.398-4.262-.203-9.496.07-11.631.606M30.446 30.279c-.27.704-.368 10.042-.218 20.75L30.5 70.5l14.5.302c19.155.4 22.543-.145 26.69-4.292 5.374-5.374 4.382-11.886-2.336-15.333l-3.585-1.839 3.154-1.306C72.777 46.435 74 44.318 74 39.24c0-4.292-2.411-7.315-7.315-9.173-4.231-1.604-35.613-1.419-36.239.212M42 50v12h9.378c10.071 0 12.385-1.021 11.148-4.917-.683-2.152-3.371-2.897-12.026-3.332-4.897-.246-5.007-.321-5.324-3.646-.409-4.285.824-5.07 7.992-5.09C60.358 44.996 62 44.342 62 41.5c0-3.022-1.58-3.5-11.582-3.5H42v12" fill-rule="evenodd"/></svg>