<svg xmlns="http://www.w3.org/2000/svg" width="226.777" height="226.777"><path d="M182.981 112.854c-7.3-5.498-17.699-7.697-17.699-7.697s8.8-5.102 12.396-10.199c3.6-5.099 5.399-12.999 5.7-17.098.299-4.101 1-21.296-12.399-31.193-10.364-7.658-22.241-10.698-38.19-11.687V.278h-21.396V34.57H95.096V.278H73.702V34.57H31.61v22.219h12.372c3.373 0 9.372.375 11.921 3.228 2.55 2.848 3 4.349 3 9.895l.001 88.535c0 2.099-.4 4.697-2.201 6.398-1.798 1.701-3.597 2.098-7.898 2.098H36.009l-4.399 25.698h42.092v34.195h21.395v-34.195h16.297v34.195h21.396v-34.759c5.531-.323 10.688-.742 13.696-1.136 6.1-.798 19.896-2.398 32.796-11.397 12.896-9 15.793-23.098 16.094-37.294.304-14.197-5.102-23.897-12.395-29.396zM95.096 58.766s6.798-.599 13.497-.501c6.701.099 12.597.3 21.398 3 8.797 2.701 13.992 9.3 14.196 17.099.199 7.799-3.204 12.996-9.2 16.296-5.998 3.299-14.292 5.099-22.094 5.396-7.797.301-17.797 0-17.797 0v-41.29zm47.89 102.279c-4.899 2.701-14.698 5.1-24.194 5.798-9.499.701-23.696.401-23.696.401v-45.893s13.598-.698 24.197 0c10.597.703 19.495 3.4 23.492 5.403 3.999 1.998 11 6.396 11 16.896 0 10.496-5.903 14.696-10.799 17.395z"/></svg>