<svg xmlns="http://www.w3.org/2000/svg" width="100" height="100"><path d="M40.618 11.048c-6.328 1.59-15.334 6.92-19.706 11.663-2.245 2.436-5.507 7.436-7.247 11.109-2.866 6.049-3.165 7.582-3.165 16.232 0 9.015.21 9.976 3.735 17.108 4.498 9.102 10.288 14.771 19.585 19.175C39.861 89.197 41.409 89.5 50 89.5s10.139-.303 16.18-3.165c9.297-4.404 15.087-10.073 19.585-19.175C89.294 60.02 89.5 59.075 89.5 50s-.206-10.02-3.735-17.16c-6.757-13.673-18.762-21.696-33.516-22.398-4.262-.203-9.496.07-11.631.606m6.049 2.619c-.367.366-.667 3.066-.667 6 0 5.022.146 5.333 2.5 5.333 2.389 0 2.5-.267 2.5-6 0-5.152-.259-6-1.833-6-1.009 0-2.134.3-2.5.667M59 19.445c0 5.281.07 5.411 3.25 6.081C70.866 27.342 75 31.46 75 38.228c0 3.044-2.086 7.382-4.268 8.878-.487.334.732 1.56 2.707 2.726 5.66 3.339 7.219 10.361 3.809 17.148-2.3 4.578-7.337 7.83-13.368 8.63l-4.88.648v4.846c0 4.739.055 4.826 2.466 3.909 9.747-3.706 17.93-11.325 22.332-20.795 3.817-8.209 3.817-20.227 0-28.436-4.402-9.47-12.585-17.089-22.332-20.795-2.432-.925-2.466-.864-2.466 4.458m-25.84-2.084c-13.938 7.294-22.312 24.156-19.282 38.826 1.664 8.059 4.917 14.279 10.285 19.667C27.753 79.458 36.42 85 38.467 85c.293 0 .533-2.025.533-4.5V76h-7c-7.496 0-7.831-.299-6.384-5.696.447-1.668 1.465-2.269 4.236-2.5L33.5 67.5l.276-16.494C34.084 32.615 33.874 32 27.309 32 24.194 32 24 31.795 24 28.5V25h15v-5c0-2.75-.337-4.98-.75-4.955-.413.025-2.703 1.067-5.09 2.316M47 39.5v6.748l5.485-.455C58.557 45.289 62 43.012 62 39.5s-3.443-5.789-9.515-6.293L47 32.752V39.5m0 20.861V68h4.48c5.685 0 12.257-2.597 13.073-5.166 1.771-5.581-2.04-8.674-11.803-9.579L47 52.722v7.639m-.571 16.964c-.309.805-.42 3.199-.246 5.32.279 3.389.656 3.894 3.122 4.177 2.794.32 2.803.301 2.5-5-.267-4.651-.589-5.362-2.559-5.642-1.297-.184-2.494.302-2.817 1.145" fill-rule="evenodd"/></svg>