<svg width="100" height="100" xmlns="http://www.w3.org/2000/svg"><g transform="translate(21 20)" fill="none" fill-rule="evenodd"><circle fill="#05C0A5" cx="16.717" cy="16.717" r="12.783"/><path d="M58.34 43.656a2.443 2.443 0 00-3.467-.12l-5.214 4.853-5.563-5.961 5.214-4.853c1-.928 1.048-2.481.12-3.48a2.457 2.457 0 00-3.48-.121l-5.213 4.865-10.054-10.778c5.454-6.768 5.045-16.703-1.252-23.002C22.7-1.684 11.779-1.684 5.048 5.047c-6.73 6.732-6.73 17.655 0 24.387 5.996 5.997 15.316 6.66 22.035 1.963l25.009 26.819c.927 1 2.48 1.048 3.48.12a2.47 2.47 0 00.12-3.48l-2.685-2.878 5.213-4.853a2.454 2.454 0 00.12-3.469zM8.529 25.966c-4.816-4.818-4.816-12.621 0-17.438 4.816-4.817 12.619-4.817 17.435 0 4.816 4.817 4.816 12.62 0 17.438-4.816 4.817-12.619 4.817-17.435 0z" stroke="#003945" fill="#003945" fill-rule="nonzero"/></g></svg>