<svg width="74" height="75" xmlns="http://www.w3.org/2000/svg"><g fill="none" fill-rule="evenodd"><path d="M18.642 15a1 1 0 00-1 1v44a1 1 0 001 1h36.093a1 1 0 001-1V16a1 1 0 00-1-1H18.642z" stroke="#0B2840" stroke-width="4" fill="#FFF"/><g transform="translate(25.745 24.017)"><ellipse fill="#05C0A5" cx="2.79" cy="2.799" rx="2.79" ry="2.799"/><ellipse fill="#05C0A5" cx="2.79" cy="14.796" rx="2.79" ry="2.799"/><ellipse fill="#05C0A5" cx="2.79" cy="25.993" rx="2.79" ry="2.799"/><path d="M9.768.8h11.55a1 1 0 011 1v1.999a1 1 0 01-1 1H9.768a1 1 0 01-1-1v-2a1 1 0 011-1zm0 11.996h11.55a1 1 0 011 1v2a1 1 0 01-1 1H9.768a1 1 0 01-1-1v-2a1 1 0 011-1zm0 11.197h11.55a1 1 0 011 1v2a1 1 0 01-1 1H9.768a1 1 0 01-1-1v-2a1 1 0 011-1z" fill="#0B2840"/></g></g></svg>