<svg width="93" height="104" xmlns="http://www.w3.org/2000/svg"><defs><filter x="-15.1%" y="-9.7%" width="130.1%" height="123.4%" filterUnits="objectBoundingBox" id="a"><feOffset dy="5" in="SourceAlpha" result="shadowOffsetOuter1"/><feGaussianBlur stdDeviation="9" in="shadowOffsetOuter1" result="shadowBlurOuter1"/><feColorMatrix values="0 0 0 0 0.118312129 0 0 0 0 0.461199204 0 0 0 0 0.461840986 0 0 0 0.136379076 0" in="shadowBlurOuter1" result="shadowMatrixOuter1"/><feMerge><feMergeNode in="shadowMatrixOuter1"/><feMergeNode in="SourceGraphic"/></feMerge></filter></defs><g filter="url(#a)" transform="translate(-51.544 -25)" fill="none" fill-rule="evenodd"><path fill="#FFF" d="M72.708 41.426h32.397v17.601l3.934 1.982 13.864-.877v42.745H72.708z"/><path d="M123.644 52.55c.69.7 1.282 1.65 1.774 2.85.493 1.2.74 2.3.74 3.3v43.2c0 1-.345 1.85-1.035 2.55-.69.7-1.528 1.05-2.513 1.05H72.935c-.986 0-1.823-.35-2.513-1.05-.69-.7-1.035-1.55-1.035-2.55v-60c0-1 .345-1.85 1.035-2.55.69-.7 1.527-1.05 2.513-1.05h33.116c.986 0 2.07.25 3.253.75 1.183.5 2.119 1.1 2.809 1.8l11.531 11.7zm-16.41-9.15v14.1h13.897c-.246-.725-.517-1.238-.813-1.537l-11.569-11.738c-.295-.3-.8-.575-1.515-.825zm14.193 57.3V62.3H106.05c-.985 0-1.823-.35-2.513-1.05-.69-.7-1.035-1.55-1.035-2.55V43.1H74.118v57.6h47.309zm-34.3-33.6c.198-.275.457-.431.777-.469.32-.037.616.044.887.244l1.885 1.425c.27.2.425.462.462.788.037.325-.043.625-.24.9L84.17 79.1l6.727 9.113c.197.275.277.575.24.9a1.098 1.098 0 01-.462.787l-1.885 1.425a1.21 1.21 0 01-.887.244 1.076 1.076 0 01-.776-.469l-8.353-11.287c-.345-.476-.345-.95 0-1.426L87.128 67.1zm29.643 11.287c.345.475.345.95 0 1.425L108.417 91.1a1.076 1.076 0 01-.776.469 1.21 1.21 0 01-.887-.244l-1.885-1.425a1.098 1.098 0 01-.462-.788 1.255 1.255 0 01.24-.9l6.727-9.112-6.727-9.113a1.255 1.255 0 01-.24-.9c.037-.325.19-.587.462-.787l1.885-1.425c.27-.2.566-.281.887-.244.32.038.579.194.776.469l8.353 11.287zM93.854 95.675a1.08 1.08 0 01-.757-.488 1.23 1.23 0 01-.204-.9l5.101-31.162c.05-.325.21-.581.48-.769a1.19 1.19 0 01.888-.206l2.328.375c.32.05.573.212.758.487.184.275.252.575.203.9l-5.1 31.163c-.05.325-.21.581-.481.769a1.186 1.186 0 01-.887.206l-2.329-.375z" fill="#003945" fill-rule="nonzero"/><path d="M107.184 43.374v14.135h13.948c0-.436-.19-.932-.57-1.49-5.704-6.164-11.391-11.509-11.91-11.997-.346-.325-.835-.541-1.468-.648z" fill="#05C0A5"/></g></svg>