<svg width="78" height="78" xmlns="http://www.w3.org/2000/svg"><g fill="none" fill-rule="evenodd"><path fill="#FFF" d="M36.903 16.93l23.474 23.456L26.67 75.012l-5.327-1.354L6.372 59.069l-1.96-7.75 1.96-4.494zm5 2.107l17.205 18.364 14.334-15.783L54.987 4.133z"/><path d="M76.152 20.194L57.258 1.638a2.227 2.227 0 00-3.117-.003L39.97 15.502l-1.592-1.59a2.227 2.227 0 00-3.157.008L4.082 45.398C-.26 49.74-.275 56.773 4.071 61.13l12.243 12.585.021.022a11.128 11.128 0 0015.745 0l31.49-31.488c.87-.87.87-2.279 0-3.148l-1.574-1.575 14.17-14.169a2.227 2.227 0 00-.014-3.163zm-47.22 50.394a6.676 6.676 0 01-9.438.01L7.254 58.015l-.023-.022a6.675 6.675 0 01.009-9.455l29.572-29.895 22.035 22.032L28.93 70.588zm29.915-36.21L43.119 18.65 55.695 6.345 71.43 21.797l-12.582 12.58z" stroke="#003945" fill="#003945" fill-rule="nonzero"/><path d="M17.69 48.656l17.99-17.99a1 1 0 011.414 0l9.691 9.692a1 1 0 010 1.414l-17.989 17.99a4 4 0 01-5.657 0l-5.449-5.45a4 4 0 010-5.656z" stroke="#003945" stroke-width="3.8" fill="#05C0A5"/><path d="M25.601 51.687l1.127-1.208m4.656-4.574l4.508-4.832" stroke="#003945" stroke-linecap="round" stroke-width="3.8"/><path d="M57.936 14.1a2.42 2.42 0 00-3.422 0l-3.421 3.422a2.42 2.42 0 103.421 3.421l3.422-3.421a2.42 2.42 0 000-3.422zm5.783 5.783a2.42 2.42 0 00-3.422 0l-3.422 3.421a2.42 2.42 0 103.422 3.422l3.422-3.422a2.42 2.42 0 000-3.421z" fill="#003945" fill-rule="nonzero"/></g></svg>