<svg width="33" height="33" xmlns="http://www.w3.org/2000/svg"><path d="M8.689 15.527c.255-.2 2.508-2.666 3.784-3.816.006-.005.006-.005.006-.01V6.39a2.402 2.402 0 012.405-2.391h7.879A2.238 2.238 0 0125 6.223v12.455c0 1.317-1.08 2.39-2.405 2.39h-2.872a.17.17 0 01-.17-.183l.126-1.057a.165.165 0 01.168-.146h.342a.169.169 0 00.168-.167V5.365a.169.169 0 00-.168-.167h-5.321a.977.977 0 00-.978.971v12.698c0 .367.256.68.598.777h.01c.582-.313 1.266-1.651 1.369-1.862a.104.104 0 00.016-.053c.038-.34.424-3.632 2.188-3.632.05 0 .098 0 .147.005 0 0 1.412.119.244 4.118 0 .01-.005.016-.005.027l-.516 4.43c0 .005 0 .01-.005.022-.044.167-.63 2.428-2.145 4.03a.174.174 0 00-.044.114v.383c0 .011.006.016.017.016h.135c.332 0 .603.27.603.6V29.4c0 .33-.271.599-.603.599H9.51a.603.603 0 01-.603-.599v-1.549c0-.329.271-.599.602-.599.011 0 .017-.005.017-.016-.212-1.953-.972-8.634-1.38-9.158a.168.168 0 01-.027-.054c-.07-.243-.423-1.727.57-2.498zm13.797 3.999c0 .086.07.15.152.15a.966.966 0 00.967-.96V6.16a.966.966 0 00-.967-.961.151.151 0 00-.152.151v14.177z" fill="#003945"/></svg>