<svg xmlns="http://www.w3.org/2000/svg" width="100" height="100"><path d="M22.5 31.834C8.473 38.545 5.761 56.559 17.257 66.653c7.011 6.155 16.035 6.83 23.681 1.769 3.468-2.294 3.81-2.853 2.769-4.52-1.483-2.374-1.896-2.367-5.933.094-4.267 2.602-11.248 2.622-15.475.044-8.979-5.474-9.046-20.565-.117-26.01 4.401-2.683 11.27-2.662 15.715.049 3.34 2.036 3.43 2.039 5.301.167 1.872-1.871 1.837-1.95-2.039-4.636-5.321-3.687-13.114-4.429-18.659-1.776m39 .079c-2.2 1.028-7.79 5.718-12.423 10.423l-8.423 8.554 8.344 8.549c4.589 4.701 10.209 9.451 12.489 10.555 16.43 7.953 34.424-10.633 26.617-27.494C83.237 31.987 71.412 27.281 61.5 31.913m-5.376 11.548l-7.624 7.46 6 6.115c3.3 3.364 7.215 6.757 8.7 7.54 3.5 1.845 10.133 1.82 13.753-.052 7.051-3.646 9.629-14.609 5.143-21.869C79.159 37.903 75.393 36 68.924 36c-5.091 0-5.302.123-12.8 7.461" fill-rule="evenodd"/></svg>