<svg width="26" height="27" xmlns="http://www.w3.org/2000/svg"><g transform="translate(0 .32)" fill="none" fill-rule="evenodd"><circle fill="#FFF" cx="13" cy="12" r="10"/><path d="M13 0C5.832 0 0 5.832 0 13s5.832 13 13 13 13-5.832 13-13S20.168 0 13 0zm4.58 8.759c0 .13-.106.237-.237.237h-5.248v2.267h3.932c.13 0 .237.106.237.237v1.817a.237.237 0 01-.237.237h-3.932v1.818h1.146c.13 0 .237.106.237.237v1.423c0 .13-.106.237-.237.237h-1.146v1.395c0 .13-.106.237-.237.237H10.04a.237.237 0 01-.237-.237v-1.395H8.657a.237.237 0 01-.237-.237v-1.423c0-.13.106-.237.237-.237h1.146v-8.43c0-.132.106-.238.237-.238h7.303c.13 0 .237.106.237.237V8.76z" fill="#003945" fill-rule="nonzero"/></g></svg>