<svg xmlns="http://www.w3.org/2000/svg" width="100" height="100"><path d="M43.923 12.923C41.928 14.918 41 16.848 41 19c0 4.454 4.691 9 9.287 9C54.978 28 59 23.978 59 19.287 59 14.691 54.454 10 50 10c-2.152 0-4.082.928-6.077 2.923m3.744 3.744c-1.13 1.13-.739 4.029.706 5.228 2.641 2.191 6.284-1.019 4.989-4.395-.579-1.509-4.453-2.076-5.695-.833m-26.293 9.117c-2.901.44-6.216 4.178-6.947 7.832-.469 2.345-.026 3.707 1.981 6.093 3.196 3.798 6.825 4.82 10.538 2.968 4.342-2.166 6.141-.592 5.411 4.734-1.111 8.109 3.094 15.685 10.58 19.061 4.914 2.215 5.174 4.263 1.063 8.374-4.009 4.01-4.036 8.272-.077 12.231 3.93 3.93 8.224 3.93 12.154 0 1.69-1.69 2.923-3.99 2.923-5.453 0-3.583-1.981-7.483-4.152-8.172-3.44-1.092-2.227-4.771 2.294-6.953 2.277-1.099 5.54-3.728 7.25-5.84 2.782-3.438 3.108-4.54 3.108-10.5 0-8.096 1.228-9.588 6.185-7.517 8.969 3.747 16.234-7.723 9.29-14.667C78.137 23.137 68 27.14 68 33.887c0 3.966-3.274 5.141-6.335 2.274-6.107-5.72-16.968-5.47-23.843.55-2.563 2.244-5.822.764-5.822-2.644 0-5.393-4.834-9.161-10.626-8.283m-.99 6.658c-1.065 2.775.072 5.058 2.521 5.058 3.154 0 4.941-2.776 3.165-4.916-1.642-1.978-4.95-2.061-5.686-.142m53.586.094c-1.816 2.189-.062 4.964 3.139 4.964 1.99 0 2.391-.503 2.391-3 0-2.28-.501-3.072-2.088-3.298-1.148-.164-2.697.436-3.442 1.334M46 37.653c-2.89 1.149-6.964 5.707-8.054 9.012-1.974 5.981 2.505 13.756 9.136 15.861 3.528 1.12 8.688-.45 11.841-3.603 7.709-7.709 3.147-20.41-7.72-21.496-2.037-.204-4.378-.102-5.203.226m1.357 4.339c-10.108 4.079-4.006 19.867 6.182 15.993 2.222-.845 2.469-1.271 1.447-2.502-.677-.815-2.51-1.483-4.073-1.483-1.819 0-3.228-.72-3.913-2-1.596-2.981.373-6 3.913-6 1.563 0 3.396-.668 4.073-1.483 1.022-1.231.776-1.657-1.442-2.5-3.096-1.177-3.33-1.178-6.187-.025M20.388 56.959C17.423 58.187 14 62.827 14 65.619c0 1.292 1.253 3.752 2.784 5.465C22.557 77.546 32 73.843 32 65.119c0-5.97-6.268-10.374-11.612-8.16m52.941.499c-10.444 4.543-4.66 19.3 6.408 16.353C82.959 72.953 86 68.918 86 65.5c0-3.194-2.997-7.303-6.119-8.392-1.749-.609-3.225-1.09-3.28-1.069-.056.022-1.528.66-3.272 1.419m-52.62 5.166c-1.549 1.549-.67 5.254 1.403 5.911 2.945.935 5.769-1.911 4.269-4.304-1.154-1.841-4.492-2.787-5.672-1.607m53.261.912c-1.816 2.189-.062 4.964 3.139 4.964 1.99 0 2.391-.503 2.391-3 0-2.28-.501-3.072-2.088-3.298-1.148-.164-2.697.436-3.442 1.334M48.04 78.452c-1.809 2.18-.835 5.003 1.857 5.385 3.7.526 5.201-2.596 2.532-5.266-1.949-1.948-2.851-1.973-4.389-.119" fill-rule="evenodd"/></svg>