<svg xmlns="http://www.w3.org/2000/svg" width="226.777" height="226.777"><path d="M113.389 0C50.767 0 .001 50.766.001 113.389S50.767 226.777 113.39 226.777s113.388-50.766 113.388-113.388S176.012 0 113.389 0zm68.035 86.053c2.42 3.35 3.214 7.877 3.475 10.725l-.951 2.243c-1.825 4.304-12.979 24.156-24.205 38.297-9.725 12.251-24.339 26.782-27.841 30.226a25.008 25.008 0 00-3.813-2.854c3.292-4.322 16.049-21.396 24.119-36.903 9.192-17.667 18.487-42.46 20.016-48.37 2.022.746 6.368 2.716 9.2 6.636zm-31.225-25.664c2.04-.042 6.537.328 11.672 3.679 4.974 3.247 7.536 9.422 8.607 12.738l-.498 1.954c-1.215 4.779-10.189 29.393-19.844 47.948-8.186 15.731-21.271 33.123-24.121 36.849a25.135 25.135 0 00-3.319-1.321c2.651-5.449 13.265-27.697 18.215-44.583 5.829-19.879 9.193-46.423 9.288-57.17v-.094zm-22.664-11.913c1.389-.595 4.136-1.159 8.852.127 5.403 1.475 9.58 6.985 11.494 9.949l-.017 1.909c-.094 10.615-3.422 36.856-9.193 56.536-5.04 17.19-16.043 40.062-18.272 44.625a27.786 27.786 0 00-3.335-.529c.928-5.803 4.987-31.632 7.546-55.168 2.715-24.97 2.926-49.74 2.926-56.737v-.712zm-15.856-6.196c6.232 0 11.326 3.83 13.52 5.786v1.121c0 6.967-.209 31.633-2.91 56.484-2.591 23.825-6.725 50.023-7.569 55.295-.204-.002-.401-.016-.608-.016-1.175 0-2.292.065-3.362.179-.826-4.886-5.275-31.63-8.026-56.771-2.992-27.354-4.208-50.508-4.371-55.21-.013-.377-.021-.729-.031-1.083 2.141-1.956 7.127-5.785 13.357-5.785zm-28.135 7.854c5.856-2.716 10.417-1.97 12.462-1.372.005.159.007.302.013.466.163 4.72 1.384 27.958 4.383 55.383 2.745 25.092 7.177 51.776 8.036 56.847a27.185 27.185 0 00-3.455.877c-2.172-4.681-11.848-25.944-18.354-47.248-7.254-23.755-11.41-45.81-12.287-52.77-.103-.804-.192-1.523-.276-2.171 1.274-2.82 4.089-7.514 9.478-10.012zM61.22 65.601a16.758 16.758 0 0110.772-3.258l.034.267c.884 7.023 5.073 29.259 12.372 53.159 6.469 21.185 16.05 42.328 18.395 47.392-.826.355-1.607.737-2.334 1.147-2.852-3.353-14.684-17.8-25.58-39.005-11.918-23.193-16.44-39.226-18.372-46.072l-.292-1.037a81.24 81.24 0 01-.716-2.658c.601-2.903 2.085-7.254 5.721-9.935zM41.815 86.683c2.664-4.923 9.451-7.172 12.142-7.893l.012.043.292 1.03c1.95 6.913 6.517 23.105 18.541 46.507 10.733 20.888 22.396 35.321 25.662 39.191a24.03 24.03 0 00-2.492 1.989c-3.375-2.91-16.827-14.846-30.563-31.705-11.584-14.217-19.585-26.815-23.782-37.453a110.765 110.765 0 01-1.615-4.342c.022-2.229.44-4.85 1.803-7.367zm30.372 69.501c-23.539-20.425-36.428-34.629-36.938-43.603-.39-6.847 3.039-10.712 4.687-12.164 4.395 10.606 12.342 23.009 23.662 36.904 13.673 16.779 27.088 28.745 30.725 31.89a23.054 23.054 0 00-2.344 3.08c-5.62-4.209-12.22-9.535-19.792-16.107zm42.021 28.89c-2.746 0-9.584-3.492-20.349-11.385 1.718-2.817 7.526-10.404 20.252-10.404 12.638 0 18.461 7.78 20.222 10.742-9.578 6.819-17.371 11.047-20.125 11.047zm77.331-73.73c-.486 8.654-15.126 25.823-33.51 43.185a229.416 229.416 0 01-21.818 18.145 24.362 24.362 0 00-2.659-3.481c3.564-3.505 18.231-18.095 28.018-30.423 11.25-14.174 22.456-34.077 24.468-38.702 1.92 1.268 5.87 4.696 5.501 11.276z"/></svg>