<svg xmlns="http://www.w3.org/2000/svg" width="226.777" height="226.777"><path d="M133.922 19.865c0 10.147-.307 46.07-4.24 82.281-3.711 34.133-9.599 71.589-10.945 80.004 1.701.163 3.308.428 4.836.767 3.234-6.615 19.191-39.787 26.499-64.716 8.37-28.537 13.197-66.593 13.333-81.986.011-1.008.019-1.923.024-2.77-2.776-4.295-8.832-12.289-16.669-14.427-6.839-1.864-10.823-1.046-12.838-.183v1.03z"/><path d="M166.79 36.244c-.138 15.586-5.017 54.081-13.47 82.91-7.178 24.486-22.568 56.75-26.414 64.653a36.741 36.741 0 014.812 1.918c4.136-5.404 23.111-30.628 34.982-53.44 14-26.908 27.015-62.603 28.778-69.532l.722-2.835c-1.555-4.809-5.271-13.763-12.483-18.47-7.445-4.862-13.968-5.398-16.926-5.337l-.001.133z"/><path d="M169.703 133.848c-11.705 22.492-30.203 47.251-34.979 53.52a35.94 35.94 0 015.529 4.138c5.081-4.992 26.272-26.068 40.376-43.835 16.28-20.506 32.458-49.297 35.104-55.537l1.378-3.253c-.377-4.129-1.53-10.695-5.038-15.553-4.107-5.685-10.408-8.54-13.344-9.623-2.218 8.57-15.694 44.522-29.026 70.143zM56.783 38.907c1.271 10.091 7.299 42.077 17.819 76.526 9.435 30.894 23.465 61.73 26.617 68.519a39.133 39.133 0 015.009-1.271c-1.242-7.356-7.671-46.052-11.653-82.44-4.35-39.772-6.12-73.471-6.356-80.318-.007-.236-.011-.444-.019-.674-2.965-.87-9.58-1.948-18.073 1.99-7.815 3.624-11.897 10.43-13.744 14.52.121.937.252 1.981.4 3.148zm34.819-19.1c.235 6.82 2 40.397 6.339 80.067 3.987 36.459 10.44 75.246 11.638 82.328a46.84 46.84 0 014.876-.256c.3 0 .586.016.883.02 1.225-7.643 7.22-45.636 10.975-80.187 3.919-36.041 4.225-71.811 4.225-81.915v-1.625c-3.186-2.836-10.571-8.39-19.608-8.39-9.036 0-16.267 5.553-19.371 8.388.013.513.025 1.022.043 1.57zm22.854 165.523c-18.456 0-26.878 11.003-29.369 15.087 15.609 11.447 25.527 16.511 29.51 16.511 3.993 0 15.294-6.13 29.185-16.018-2.555-4.297-10.999-15.58-29.326-15.58z"/><path d="M218.762 93.653c-2.917 6.707-19.169 35.572-35.483 56.125-14.191 17.881-35.463 39.04-40.631 44.122a35.47 35.47 0 013.856 5.045 331.75 331.75 0 0031.641-26.31c26.66-25.179 47.893-50.076 48.597-62.63.535-9.543-5.193-14.514-7.98-16.352zM9.338 91.225c6.086 15.424 17.689 33.698 34.489 54.313C63.748 169.99 83.256 187.3 88.151 191.52a35.335 35.335 0 013.613-2.889c-4.735-5.61-21.649-26.542-37.214-56.835-17.436-33.937-24.061-57.417-26.89-67.443l-.423-1.494-.018-.063C23.317 63.84 13.474 67.104 9.61 74.243c-1.976 3.65-2.582 7.45-2.616 10.683a161.37 161.37 0 002.344 6.299z"/><path d="M85.758 193.926c-5.274-4.56-24.729-21.912-44.557-46.248C24.785 127.531 13.26 109.542 6.885 94.16c-2.391 2.104-7.362 7.71-6.796 17.641.74 13.014 19.432 33.611 53.568 63.233 10.981 9.529 20.551 17.254 28.701 23.358a33.431 33.431 0 013.4-4.466zM30.494 61.93l.424 1.504c2.802 9.928 9.36 33.179 26.643 66.815 15.801 30.754 32.96 51.701 37.095 56.563a35.789 35.789 0 013.386-1.664c-3.401-7.34-17.296-38.003-26.678-68.727-10.584-34.658-16.658-66.905-17.94-77.09l-.048-.387c-2.988-.162-9.413.144-15.623 4.724-5.273 3.89-7.425 10.2-8.298 14.407.265 1.06.601 2.322 1.039 3.855z"/></svg>