<svg width="31" height="17" xmlns="http://www.w3.org/2000/svg"><g fill="none" fill-rule="evenodd"><path d="M8.938 16.25a8.021 8.021 0 0 1 0-16.042H24.25a5.832 5.832 0 0 1 5.833 5.834 5.832 5.832 0 0 1-5.833 5.833H11.854a3.647 3.647 0 0 1-3.646-3.646 3.647 3.647 0 0 1 3.646-3.646h10.938v2.188H11.854a1.458 1.458 0 1 0 0 2.917H24.25a3.647 3.647 0 0 0 3.646-3.646 3.647 3.647 0 0 0-3.646-3.646H8.937a5.832 5.832 0 0 0-5.833 5.833 5.832 5.832 0 0 0 5.833 5.834h13.855v2.187H8.937z" fill="#96A8B6" fill-rule="nonzero"/><path d="M-2-10h35v35H-2z"/></g></svg>