<svg xmlns="http://www.w3.org/2000/svg" width="100" height="100"><path d="M37.836 11.853C26.741 15.53 18.984 22.537 13.841 33.527c-11.302 24.151 5.073 54.171 30.67 56.226 8.215.659 14.691-1.543 21.413-7.281 2.882-2.46 5.81-4.472 6.508-4.472 2.196 0 9.336-5.765 12.005-9.693 3.537-5.204 3.586-12.375.108-15.852-3.519-3.52-9.472-3.39-13.574.295-2.611 2.346-3.277 3.992-4.528 11.199-.807 4.646-2.025 8.824-2.705 9.283-1.846 1.244-11.617-.13-16.683-2.347-10.499-4.594-15.419-11.289-15.484-21.073-.068-10.206 7.505-17.807 17.745-17.81 5.88-.002 7.879.967 13.796 6.69 3.476 3.362 5.625 4.597 8.722 5.013 3.712.497 4.452.209 7.638-2.977 4.61-4.61 4.84-9.618.702-15.328-8.94-12.336-27.789-18.368-42.338-13.547m5.275 5.199C24.691 20.791 12.679 40.233 17.503 58.5c2.735 10.354 8.904 17.807 18.435 22.272 6.264 2.934 15.009 3.368 19.581.972l2.803-1.469-4.911-.685c-7.226-1.009-16.676-5.948-21.19-11.077-6.45-7.327-8.821-18.282-5.794-26.765 6.112-17.126 27.378-21.995 40.176-9.198 4.639 4.64 7.298 5.479 9.386 2.963 2.025-2.44.328-6.062-4.89-10.43-8.554-7.162-18.379-9.981-27.988-8.031M75.215 57.25c-1.073 1.302-3.493 12.806-2.833 13.466.208.207 1.976-1.131 3.929-2.973 3.62-3.414 5.364-7.541 4.328-10.241-.699-1.822-4.004-1.976-5.424-.252" fill-rule="evenodd"/></svg>