<svg width="90" height="90" xmlns="http://www.w3.org/2000/svg"><g fill="none" fill-rule="evenodd"><rect x=".5" y=".5" width="489" height="189" rx="4" transform="translate(-50.473 -43.628)" stroke="#CECECE"/><g transform="translate(10 16)" fill="#05C0A5"><circle cx="53" cy="32" r="5"/><circle cx="59" cy="34" r="5"/><circle cx="63" cy="39" r="5"/><circle cx="59" cy="39" r="5"/><circle cx="53.5" cy="43.5" r="3.5"/><circle cx="48.5" cy="58.5" r="7.5"/><circle cx="41" cy="57" r="5"/><circle cx="50.5" cy="49.5" r="2.5"/><circle cx="7" cy="37" r="7"/><circle cx="14" cy="31" r="5"/><circle cx="27" cy="58" r="5"/><circle cx="19" cy="60" r="7"/><circle cx="17" cy="50" r="5"/><circle cx="12.5" cy="42.5" r="4.5"/><circle cx="20" cy="14" r="7"/><circle cx="48" cy="14" r="7"/><circle cx="47" cy="7" r="7"/><circle cx="21" cy="7" r="7"/><circle cx="29.5" cy="9.5" r="3.5"/><circle cx="38.5" cy="9.5" r="3.5"/></g><path d="M79.835 58.404c1.408-5.42-1.154-11.361-6.561-13.881l-8.715-4.061a7.207 7.207 0 00-1.545-.516 7.194 7.194 0 002.622-5.554v-9.61c0-5.871-4.238-10.769-9.817-11.806C54.803 7.396 49.933 3 44 3c-5.928 0-10.802 4.392-11.82 9.976-5.578 1.037-9.816 5.935-9.816 11.806v9.61a7.194 7.194 0 002.622 5.554 7.14 7.14 0 00-1.545.516l-8.715 4.06c-5.408 2.521-7.969 8.462-6.561 13.882-4.699 3.315-6.537 9.552-4.064 14.853 2.476 5.305 8.482 8.122 14.048 6.71 3.298 4.623 9.538 6.39 14.864 3.908l8.715-4.061A6.999 6.999 0 0044 78.118a6.996 6.996 0 002.272 1.696l8.715 4.061c5.328 2.483 11.567.713 14.864-3.908 5.504 1.396 11.545-1.345 14.048-6.71 2.473-5.3.635-11.538-4.064-14.853zM62.527 44.817l8.715 4.06a7.219 7.219 0 014.091 7.55c-5.278-1.126-10.93 1.44-13.376 6.665l4.058-8.697a2.402 2.402 0 00-1.162-3.193l-4.358-2.03a2.403 2.403 0 112.032-4.355zM44 7.805c3.91 0 7.212 3.374 7.212 7.367 0 3.974-3.235 7.208-7.212 7.208s-7.212-3.234-7.212-7.208c0-3.993 3.303-7.367 7.212-7.367zM27.172 24.782c0-3.247 2.161-6 5.121-6.897 1.234 5.32 6.013 9.3 11.707 9.3 5.694 0 10.473-3.98 11.707-9.3 2.96.898 5.12 3.65 5.12 6.897v9.61a2.406 2.406 0 01-2.403 2.402 2.406 2.406 0 01-2.404-2.402v-4.805a2.403 2.403 0 00-2.404-2.403H34.384a2.403 2.403 0 00-2.404 2.403v4.805a2.406 2.406 0 01-2.404 2.402 2.406 2.406 0 01-2.404-2.402v-9.61zM16.758 48.878l8.715-4.062a2.403 2.403 0 112.032 4.355l-4.357 2.03a2.402 2.402 0 00-1.163 3.193l4.06 8.702c-2.443-5.227-8.097-7.796-13.378-6.669a7.219 7.219 0 014.091-7.55zm1.445 25.994c-3.611 1.683-8.057-.028-9.745-3.646-1.664-3.568-.028-7.864 3.649-9.578a7.21 7.21 0 019.584 3.486c1.685 3.612.088 8.072-3.488 9.738zm21.494.587l-8.715 4.062c-2.946 1.372-6.356.577-8.421-1.726a12.037 12.037 0 003.894-5.439c1.094-3.056.95-6.34-.403-9.246l4.06 8.703a2.405 2.405 0 003.195 1.162l4.358-2.03a2.403 2.403 0 013.194 1.162c.574 1.23.03 2.796-1.162 3.352zM44 68.252a7.213 7.213 0 00-8.368-1.662l-2.178 1.015-6.096-13.064 2.179-1.015c3.604-1.68 5.169-5.976 3.488-9.578a7.166 7.166 0 00-1.942-2.508c3.256-.695 5.705-3.59 5.705-7.048v-2.403h14.424v2.403c0 3.457 2.45 6.353 5.705 7.048a7.161 7.161 0 00-1.942 2.508c-1.68 3.602-.116 7.898 3.488 9.578l2.18 1.015-6.096 13.064-2.18-1.015A7.214 7.214 0 0044 68.252zm13.019 11.269l-8.715-4.062c-1.194-.556-1.737-2.122-1.163-3.352a2.407 2.407 0 013.195-1.162l4.357 2.03c1.202.56 2.634.04 3.195-1.162l4.06-8.699c-1.353 2.905-1.496 6.187-.402 9.242a12.036 12.036 0 003.894 5.44c-2.066 2.302-5.475 3.098-8.421 1.725zm22.523-8.295c-1.687 3.615-6.132 5.33-9.745 3.646-3.576-1.666-5.173-6.126-3.488-9.738a7.21 7.21 0 019.584-3.486c3.677 1.714 5.314 6.01 3.649 9.578z" fill="#003945" fill-rule="nonzero"/></g></svg>