<svg xmlns="http://www.w3.org/2000/svg" width="100" height="100"><path d="M40.746 11.022c-11.28 2.85-21.834 11.72-27.053 22.737-2.897 6.117-3.193 7.625-3.193 16.293 0 9.015.21 9.976 3.735 17.108 15.112 30.579 57.407 30.039 72.072-.919 2.897-6.117 3.193-7.625 3.193-16.293 0-9.015-.21-9.976-3.735-17.108-6.757-13.673-18.762-21.696-33.516-22.398-4.262-.203-9.438.058-11.503.58m2.598 5c-9.459 1.916-19.616 9.683-24.111 18.438-3.774 7.351-4.297 19.727-1.182 27.989 5.528 14.669 22.36 24.425 37.356 21.653 19.125-3.536 31.272-20.65 28.347-39.94-2.789-18.393-22.109-31.847-40.41-28.14m-1.885 12.281c-8.865 4.241-13.474 11.586-13.437 21.415.051 13.403 10.131 23.425 23.561 23.425 5.329 0 13.464-2.792 14.898-5.112.424-.686-.661-3.187-2.544-5.864-1.806-2.567-3.336-4.759-3.399-4.872-.063-.113-1.863.396-3.999 1.131-10.549 3.626-19.096-7.017-12.134-15.11 2.039-2.371 3.142-2.786 7.25-2.731 2.665.036 5.745.378 6.845.76 1.632.567 2.616-.255 5.345-4.457 2.656-4.09 3.068-5.339 2-6.057-4.355-2.928-7.928-4.141-13.3-4.517-4.906-.343-6.995.032-11.086 1.989" fill-rule="evenodd"/></svg>