<svg xmlns="http://www.w3.org/2000/svg" style="isolation:isolate" viewBox="417 311 227 227" width="227" height="227"><path d="M417 424.5c0-62.642 50.858-113.5 113.5-113.5S644 361.858 644 424.5 593.142 538 530.5 538 417 487.142 417 424.5zm114.359 53.204c-29.694 0-53.841-23.863-53.841-53.203 0-29.34 24.147-53.203 53.841-53.203 24.225 0 44.762 15.89 51.501 37.682h18.557c-7.164-31.71-35.809-55.416-70.065-55.416-39.647 0-71.788 31.758-71.788 70.937s32.141 70.938 71.788 70.938c34.256 0 62.9-23.708 70.065-55.417h-18.564c-6.74 21.792-27.276 37.682-51.5 37.682h.006m7.378-47.677a16.611 16.611 0 009.435-14.947c0-9.179-7.534-16.62-16.813-16.62-9.292 0-16.833 7.441-16.833 16.62a16.6 16.6 0 009.449 14.94v20.53h14.762v-20.523m-7.378 47.677z" fill-rule="evenodd"/></svg>