<svg xmlns="http://www.w3.org/2000/svg" viewBox="0 0 688 688"><path d="M664.928 233.423H596.9C559.448 112.878 458.745 29.85 325.94 29.85H107.527v203.572H31.666v73.037h75.861v76.59H31.666v73.037h75.861v201.13H325.94c131.276 0 231.215-82.14 269.623-201.13h69.365v-73.038H610.85c1.338-12.875 1.911-26.195 1.911-39.515v-1.776c0-11.988-.573-23.754-1.529-35.298h53.696zM168.675 95.118H325.94c97.454 0 169.876 55.722 203.316 138.305h-360.58zm157.265 496.61H168.675V456.087h360.199c-33.822 81.251-105.862 135.64-202.934 135.64zM549.702 345.31c0 12.876-.764 25.53-2.293 37.74H168.675v-76.59H547.6c1.338 11.988 2.102 24.42 2.102 37.074z" fill="#f4b731"/></svg>