<svg xmlns="http://www.w3.org/2000/svg" width="100" height="100"><path d="M18.965 16.807c-1.057 5.918-1.004 7.217.409 9.95 2.174 4.203 2.106 4.88-1.408 13.929L14.931 48.5l3.86 11.5 3.86 11.5 12.924 9.234c7.109 5.079 13.472 9.036 14.142 8.794 1.723-.623 23.91-16.373 25.11-17.825.547-.662 2.667-6.047 4.711-11.969l3.716-10.765-3.206-8.494c-3.196-8.469-3.201-8.508-1.511-12.933 1.432-3.75 1.526-5.398.604-10.632-.6-3.406-1.308-6.41-1.573-6.676-.266-.265-2.049.442-3.963 1.571-1.914 1.13-5.506 2.357-7.982 2.729-2.476.371-5.215 1.463-6.087 2.426-1.355 1.498-2.234 1.603-6.06.727-3.055-.699-5.897-.699-8.952 0-3.816.874-4.706.769-6.046-.711-.863-.954-3.391-2.026-5.616-2.382-2.225-.356-5.786-1.535-7.914-2.62C22.82 10.888 20.878 10 20.631 10c-.247 0-.997 3.063-1.666 6.807m54.354-2.726c-.595.595-3.497 1.628-6.45 2.296-4.343.982-5.307 1.567-5.043 3.059.293 1.659-.107 1.76-4 1.01-5.549-1.07-11.125-1.091-16.981-.064-4.106.72-4.638.61-4.5-.934.116-1.315-1.089-2.052-4.845-2.964-2.75-.668-5.793-1.55-6.761-1.96-1.337-.567-1.618-.373-1.167.804.327.852 1.927 1.842 3.555 2.2 3.448.757 9.894 9.472 7.006 9.472-.477 0-2.058-1.8-3.514-4-1.568-2.37-3.434-4-4.576-4-1.061 0-2.595-.95-3.408-2.111-1.418-2.025-1.507-1.928-2.149 2.359-.528 3.52-.216 5.361 1.469 8.664l2.14 4.194-2.389 5.197c-5.182 11.273-5.138 10.135-.865 22.21L24.729 70.5l12.175 8.698 12.174 8.698 10.711-7.561c5.891-4.158 11.444-8.297 12.34-9.198.896-.9 3.2-6.395 5.118-12.21l3.489-10.572-2.386-6.346c-1.312-3.491-2.881-6.943-3.486-7.673-.819-.986-.551-2.68 1.047-6.616 1.746-4.302 1.974-6.031 1.218-9.255-.51-2.181-.973-3.38-1.029-2.664-.055.716-1.7 1.97-3.655 2.787-2.046.854-4.423 2.956-5.599 4.949C64.971 26.715 63 28.096 63 26.232c0-2.031 5.343-8.28 7.554-8.835 1.374-.345 2.953-1.475 3.508-2.512 1.134-2.119.864-2.411-.743-.804M44.5 21.582c-2.2.793-4.573 1.651-5.273 1.907-1.026.376-1.028.856-.009 2.488 1.438 2.304 3.276 2.753 2.45.6-.36-.938.507-1.791 2.542-2.5C45.909 23.484 47.456 23 47.649 23c.193 0 .351 1.366.351 3.035 0 2.691-.219 2.918-1.934 2-2.844-1.522-3.173-1.31-2.45 1.573.602 2.395.486 2.517-1.425 1.494-1.144-.612-2.356-1.56-2.694-2.107-.771-1.248-2.497-1.304-2.497-.082C37 29.961 44.93 36 46.305 36c.502 0 .658-1.013.347-2.25-.489-1.948-.173-2.25 2.348-2.25s2.837.302 2.348 2.25c-.311 1.237-.148 2.25.362 2.25 1.263 0 9.29-6.233 9.29-7.214 0-1.121-1.766-.973-2.497.209-.338.547-1.504 1.47-2.591 2.052-1.781.953-1.913.806-1.336-1.495.704-2.805.252-3.065-2.642-1.517-1.715.918-1.934.691-1.934-2 0-3.288.54-3.541 4.416-2.067 1.701.647 2.351 1.476 1.958 2.5-.872 2.271 1.381 1.859 2.634-.483.814-1.521.762-2.129-.215-2.483-3.908-1.416-10.061-3.492-10.169-3.432-.068.039-1.924.72-4.124 1.512m23.25 6.107c-2.354.616-2.232 2.311.167 2.311 1.054 0 2.117.563 2.363 1.25.245.688.774.946 1.174.575.847-.784-.259-4.881-1.271-4.709-.376.064-1.47.322-2.433.573m-41.167 1.954c-.346.904-.333 1.916.03 2.25.364.334.862.045 1.107-.643.246-.687 1.561-1.25 2.922-1.25 1.396 0 2.206-.436 1.858-1-.995-1.609-5.229-1.149-5.917.643M25 38.777C25 40.533 28.234 44 29.871 44c1.018 0 2.447 1.443 3.391 3.423l1.633 3.424 5.22-1.377c6.249-1.649 8.345-3.445 7.42-6.358-.368-1.162-1.12-2.112-1.67-2.112-.55 0-.734.836-.41 1.859.341 1.075-.055 2.394-.938 3.127-1.278 1.06-1.868.837-3.595-1.359-1.731-2.2-2.867-2.627-6.986-2.627-3.836 0-5.194-.44-6.168-2C26.514 37.993 25 37.324 25 38.777M70 40c-.842 1.573-2.094 2-5.861 2-3.81 0-5.268.509-7.127 2.488-1.808 1.924-2.645 2.231-3.697 1.358-.748-.62-1.107-1.927-.797-2.903.31-.976.143-2.034-.371-2.352-.513-.317-1.233.615-1.599 2.072-.878 3.502.835 5.091 7.337 6.807l5.22 1.377 1.633-3.424c.944-1.98 2.373-3.423 3.391-3.423C69.766 44 73 40.533 73 38.777c0-1.533-1.95-.738-3 1.223m-49.573 7.54c-.484 2.577-.224 4.027.954 5.329.891.984 1.619 3.163 1.619 4.843 0 2.214.551 3.199 2 3.578 1.532.4 2 1.364 2 4.116 0 4.232.552 4.364 4.335 1.037 2.832-2.49 2.834-2.5 1.311-6.968-1.46-4.286-1.443-4.475.415-4.475 1.402 0 1.939.693 1.939 2.5 0 3.104 1.562 3.281 2.351.267.745-2.849-.153-3.698-4.687-4.434-4.169-.677-4.289-.355-2.141 5.732 1.303 3.694 1.322 4.519.128 5.713s-1.493.878-2.069-2.191C28.176 60.423 27.332 59 26.455 59 25.519 59 25 57.974 25 56.122c0-1.582-.709-3.466-1.576-4.185-1.132-.939-1.401-2.245-.955-4.623.367-1.957.212-3.314-.378-3.314-.55 0-1.299 1.593-1.664 3.54M35 46c1.125 2.102 5 2.794 5 .893 0-.609-.692-.841-1.538-.517-.875.336-1.783-.049-2.107-.893-.313-.816-.987-1.483-1.497-1.483-.524 0-.462.872.142 2m26.645-.517c-.324.844-1.232 1.229-2.107.893-.846-.324-1.538-.092-1.538.517S59.125 48 60.5 48s2.5-.188 2.5-.418c0-.23.273-1.13.607-2 .334-.87.157-1.582-.393-1.582s-1.256.667-1.569 1.483m13.868 1.733c.465 2.48.209 3.77-.937 4.721-.867.719-1.576 2.55-1.576 4.069 0 1.92-.609 2.92-2 3.284-1.492.39-2 1.364-2 3.831 0 3.053-.125 3.182-1.625 1.683-1.498-1.499-1.499-1.993-.002-6.384.891-2.617 1.428-4.953 1.191-5.189-.236-.236-2.3-.114-4.586.273-3.633.613-4.085.973-3.581 2.849.316 1.181.582 2.484.589 2.897.008.413.494.75 1.081.75.59 0 .801-.842.471-1.882-.391-1.23-.018-2.103 1.075-2.523 2.463-.945 2.662-.245 1.259 4.439-1.224 4.083-1.172 4.311 1.486 6.598C70.171 69.911 71 69.62 71 65c0-3.333.333-4 2-4 1.614 0 2-.667 2-3.45 0-2.155.614-3.794 1.636-4.366 1.264-.708 1.483-1.735.962-4.515-.372-1.979-1.137-3.884-1.701-4.232-.667-.413-.801.556-.384 2.779M48 51c0 1.65.45 3 1 3s1-1.35 1-3-.45-3-1-3-1 1.35-1 3m-7.285 6c-3.796 8.809-4.082 11.36-1.782 15.869l2.148 4.211 8.205-.29 8.204-.29 1.875-3.988c1.853-3.941 1.849-4.069-.293-10.721-1.193-3.703-2.597-6.997-3.12-7.321-1.485-.917-1.137 1.318 1.204 7.738 2.046 5.611 2.073 6.09.516 9.353C56.339 74.357 55.468 75 53.016 75c-3.386 0-4.047-1.538-1.067-2.484 1.072-.34 2.197-1.495 2.5-2.567l1.084-3.84c.403-1.43-.206-2.148-2.5-2.948C51.284 62.552 50 61.395 50 60.43c0-1.375.268-1.452 1.5-.43 1.21 1.004 1.5.978 1.5-.137 0-.76-.9-1.944-2-2.631-1.599-.999-2.401-.999-4 0-1.1.687-2 1.871-2 2.631 0 1.115.29 1.141 1.5.137 1.23-1.021 1.5-.948 1.5.409 0 .91-.562 1.821-1.25 2.026-4.728 1.41-4.619 1.242-3.547 5.468.63 2.48 1.751 4.265 2.911 4.633 2.927.929 2.223 2.464-1.13 2.464-2.45 0-3.323-.643-4.65-3.426-1.553-3.257-1.523-3.72.618-9.445 2.449-6.55 2.249-10.897-.237-5.129m5.535 7.662c-.687.278-1.25 1.312-1.25 2.299 0 4.47 7.218 5.531 7.837 1.152.474-3.35-2.707-5.016-6.587-3.451m-1.427 15.561c1.416 1.416 6.911 1.443 8.314.04.759-.759-.451-1.081-4.178-1.11-3.846-.03-4.95.256-4.136 1.07" fill-rule="evenodd"/></svg>