<svg xmlns="http://www.w3.org/2000/svg" width="100" height="100"><path d="M42.045 11.092c-11.882 2.33-22.982 11.218-28.331 22.686-2.81 6.026-3.139 7.711-3.174 16.274-.038 9.042.158 9.952 3.67 17.059 3.332 6.742 7.222 11.897 8.149 10.8 1.44-1.707 9.459-16.458 12.1-22.261 2.726-5.989 8.642-22.996 13.944-40.087l1.222-3.937 3.74 13.437c5.637 20.249 14.87 41.846 21.989 51.437 1.472 1.982 1.508 1.978 4.108-.465 1.443-1.355 4.067-5.396 5.831-8.979 2.993-6.08 3.207-7.215 3.207-17.035 0-9.322-.305-11.173-2.68-16.239-5.394-11.508-16.896-20.431-29.254-22.695-6.697-1.227-8.238-1.226-14.521.005m6.17 41.572c-.52 1.01-2.194 5.661-3.719 10.336-1.525 4.675-4.093 11.857-5.707 15.96-2.656 6.75-2.782 7.572-1.322 8.64 3.439 2.514 19.521 2.88 23.323.53.87-.538-.429-5.591-4.772-18.575-3.281-9.81-6.166-18.036-6.411-18.281-.245-.245-.871.381-1.392 1.39" fill-rule="evenodd"/></svg>