<svg xmlns="http://www.w3.org/2000/svg" width="100" height="100"><path d="M45.861 11.908c-2.159 1.745-2.404 2.859-2.861 13.009l-.5 11.101-8.5-4.986c-4.675-2.742-9.758-4.996-11.295-5.009C17.13 25.977 13.263 32.885 16 38c.55 1.028 4.822 4.036 9.493 6.684 4.672 2.649 8.494 5.041 8.494 5.316 0 .275-3.822 2.667-8.494 5.316C20.822 57.964 16.55 60.972 16 62c-2.737 5.115 1.13 12.023 6.705 11.977 1.537-.013 6.62-2.267 11.295-5.009l8.5-4.986.5 11.101c.457 10.15.702 11.264 2.861 13.009 3.315 2.679 7.31 2.418 10.215-.668 2.153-2.287 2.48-3.724 2.924-12.853l.5-10.278 8.459 4.854c9.419 5.404 11.576 5.793 15.406 2.78C85.402 70.325 86 68.975 86 65.978c0-4.357-1.828-6.141-12.25-11.959-3.162-1.766-5.75-3.578-5.75-4.028 0-.451 3.037-2.494 6.75-4.541C84.242 40.216 86 38.411 86 33.898c0-2.863-.625-4.244-2.635-5.825-3.83-3.013-5.987-2.624-15.406 2.779L59.5 35.704l-.25-8.602c-.311-10.711-.729-12.539-3.451-15.074-2.735-2.548-6.872-2.598-9.938-.12m.696 3.315c-1.159 1.654-1.555 4.784-1.551 12.25.007 9.962.025 10.037 2.84 11.639 2.469 1.404 3.177 1.432 5.494.218C55.963 37.955 56 37.791 56 27.402c0-5.793-.466-11.404-1.035-12.468-1.463-2.734-6.41-2.564-8.408.289M19.2 30.2c-.66.66-1.2 2.47-1.2 4.022 0 3.021 3.013 5.398 14.394 11.357 5.194 2.719 5.448 2.754 7.986 1.092C42.197 45.48 43 44.076 43 42.09c0-2.561-.952-3.406-8.992-7.977-9.087-5.167-12.62-6.101-14.808-3.913m48.05 3.944c-7.478 4.5-8.25 5.253-8.25 8.05 0 3.064 2.212 5.711 4.825 5.774 1.617.039 14.811-7.557 17.925-10.32 2.726-2.419 2.869-4.778.421-6.993-2.868-2.596-6.042-1.854-14.921 3.489M45 42c0 .55.702 1 1.559 1s1.281-.45.941-1c-.34-.55-1.041-1-1.559-1S45 41.45 45 42m9.5 0c-.34.55-.141 1 .441 1S56 42.55 56 42s-.198-1-.441-1-.719.45-1.059 1m-7.334 3.84c-3.113 2.394-2.631 6.722.992 8.907 2.451 1.48 2.858 1.472 5.25-.095 3.356-2.199 3.546-6.87.369-9.095-2.814-1.972-3.731-1.933-6.611.283M41 50c0 .55.45 1 1 1s1-.45 1-1-.45-1-1-1-1 .45-1 1m18 0c0 .55.45 1 1 1s1-.45 1-1-.45-1-1-1-1 .45-1 1m-30.469 6.567C18.39 62.359 18 62.706 18 65.922c0 6.602 4.352 6.593 16.008-.035C42.009 61.338 43 60.463 43 57.944c0-2.706-2.995-5.954-5.473-5.937-.565.005-4.613 2.056-8.996 4.56m32.219-3.175c-1.001.76-1.75 2.648-1.75 4.41 0 2.811.755 3.526 8.594 8.14 9.039 5.32 12.247 6.074 14.835 3.487 3.676-3.676 1.413-6.654-10.103-13.293-7.775-4.482-8.927-4.755-11.576-2.744M45 58c0 .55.423 1 .941 1s1.219-.45 1.559-1c.34-.55-.084-1-.941-1S45 57.45 45 58m9.5 0c.34.55.816 1 1.059 1s.441-.45.441-1-.477-1-1.059-1-.781.45-.441 1m-6.748 2.907c-2.709 1.57-2.748 1.737-2.75 11.62C45 84.068 46.219 87 51.022 87 55.193 87 56 84.663 56 72.591c0-10.499-.011-10.545-2.75-11.909-2.378-1.184-3.121-1.153-5.498.225" fill-rule="evenodd"/></svg>