<svg xmlns="http://www.w3.org/2000/svg" width="63" height="60"><path fill="#040000" fill-rule="evenodd" d="M38.56 12.186L31.5 0l-7.06 12.186L17.38 0 0 30l17.38 30 7.06-12.186L31.5 60l7.06-12.186L45.62 60 63 30 45.62 0l-7.06 12.186zm3.26 30L48.88 30l-7.06-12.186 3.8-6.558L56.477 30 45.62 48.743l-3.799-6.557zM27.7 17.814l3.8-6.558 3.799 6.558-3.8 6.557-3.799-6.557zM6.522 30L17.38 11.256l3.798 6.558L14.119 30l7.06 12.186-3.798 6.557L6.52 30zm28.238 0l3.8-6.557L42.359 30l-3.8 6.557L34.76 30zm-14.12 0l3.8-6.557L28.239 30l-3.8 6.557L20.642 30zm7.06 12.186l3.8-6.558 3.799 6.558-3.8 6.557-3.799-6.557z"/></svg>