<svg xmlns="http://www.w3.org/2000/svg" width="100" height="100"><path d="M56.653 6.49c-1.722 1.722-3.088 6.997-2.189 8.452.337.545.306 5.056-.069 10.025L53.713 34h-7.675c-9.821 0-16.535 2.022-21.866 6.585-6.255 5.354-8.586 10.46-8.633 18.915-.058 10.386 4.433 17.757 13.908 22.83 3.703 1.983 5.791 2.198 24.196 2.492 20.042.321 20.15.311 21.75-1.972 3.289-4.697.605-8.85-5.722-8.85H66V46.123l4.528-.679C75.017 44.77 77 42.97 77 39.566 77 36.801 73.225 34 69.5 34H66V21.5c0-11.167-.213-12.713-2-14.5-2.372-2.372-5.283-2.574-7.347-.51M33.299 47.96C29.133 50.5 27 54.769 27 60.568c0 4.088.482 5.149 3.882 8.55 3.454 3.453 4.42 3.88 8.75 3.867 6.035-.018 9.15-1.538 12.088-5.897 2.657-3.943 2.993-9.809.804-14.041-3.337-6.453-12.855-8.972-19.225-5.087" fill-rule="evenodd"/></svg>