<svg width="100" height="100" xmlns="http://www.w3.org/2000/svg"><g transform="translate(20 20)" fill="#b1b1b1" fill-rule="evenodd"><path d="M57.826 0H33.092c-.577 0-1.13.229-1.538.637L.637 31.555a2.174 2.174 0 000 3.074L25.37 59.363c.425.425.981.637 1.537.637.557 0 1.113-.212 1.538-.637l30.917-30.918a2.17 2.17 0 00.637-1.537V2.174A2.173 2.173 0 0057.826 0zm-2.174 26.008L26.908 54.752l-21.66-21.66L33.992 4.348h21.66v21.66z" fill-rule="nonzero"/><circle cx="47" cy="13" r="4"/><path d="M47 18c1.336 0 2.592-.52 3.537-1.465a5.004 5.004 0 000-7.07A4.972 4.972 0 0047 8a4.97 4.97 0 00-3.537 1.464 5.005 5.005 0 000 7.072A4.972 4.972 0 0047 18zm-1.188-6.188A1.67 1.67 0 0147 11.321a1.68 1.68 0 010 3.358 1.681 1.681 0 01-1.188-2.867z" fill-rule="nonzero"/><text transform="rotate(-45 30.358 29.48)" font-family="ArialRoundedMTBold, Arial Rounded MT Bold" font-size="10"><tspan x="15.858" y="32.979">WWW</tspan></text></g></svg>