<svg width="138" height="114" xmlns="http://www.w3.org/2000/svg"><g fill="none" fill-rule="evenodd"><path fill="#05C0A5" d="M15.332 38.617l15.295 24.925 22.474-18.621-8.593-2.448-4.487-2.268-7.9 2.268-4.606-3.856zm106.299 0l-15.295 24.925-22.473-18.621 8.592-2.448 4.487-2.268 7.901 2.268 4.605-3.856z"/><path d="M136.646 22.75a2.775 2.775 0 00-.016-2.983 2.807 2.807 0 00-2.72-1.23l-65.606 9.527a2.571 2.571 0 00-.256.117L4.111 18.3a2.8 2.8 0 00-2.725 1.209c-.593.9-.61 2.061-.043 2.977l26.317 42.41-6.171 39.94-13.65-2.112a2.79 2.79 0 00-3.151 2.31 2.761 2.761 0 002.31 3.15l32.751 5.066a2.762 2.762 0 00.842-5.46l-13.643-2.11 6.171-39.94L69.14 34.85l35.339 30.866 5.808 39.985-13.67 1.985a2.763 2.763 0 10.799 5.47l32.806-4.763a2.772 2.772 0 002.336-3.134 2.817 2.817 0 00-3.134-2.336l-13.666 1.984-5.808-39.986 26.697-42.171zm-45.6 23.896a13.763 13.763 0 004.637-3.067 13.614 13.614 0 0016.4-2.384 13.758 13.758 0 005.32 1.619l-10.947 17.29-15.41-13.458zM31.192 60.114l-10.791-17.39a13.77 13.77 0 005.331-1.567 13.613 13.613 0 0016.38 2.53 13.77 13.77 0 004.612 3.109L31.193 60.114zM51.885 42.37a8.16 8.16 0 01-6.86-3.878 2.762 2.762 0 00-4.11-.637 8.147 8.147 0 01-12.268-1.893 2.769 2.769 0 00-4.117-.637 8.323 8.323 0 01-6.582 1.883 7.798 7.798 0 01-1.172-.328L9.203 24.676l53.647 8.292-10.965 9.402zm76.88-17.5l-7.727 12.203h-.003a8.04 8.04 0 01-1.14.248 8.11 8.11 0 01-6.56-1.947 2.862 2.862 0 00-2.196-.637 2.775 2.775 0 00-1.92 1.236 8.235 8.235 0 01-5.73 3.728 8.13 8.13 0 01-6.554-1.943 2.826 2.826 0 00-2.196-.636 2.775 2.775 0 00-1.92 1.235 7.567 7.567 0 01-6.958 3.762L75.042 32.67l53.722-7.801zM68.693 11.793a2.76 2.76 0 002.762-2.762V3.506a2.762 2.762 0 10-5.525 0v5.525a2.76 2.76 0 002.763 2.762zm13.762 5.524a2.754 2.754 0 001.953-.809l3.905-3.906a2.762 2.762 0 00-3.905-3.905l-3.906 3.905a2.762 2.762 0 001.953 4.715zm-31.193-.809a2.762 2.762 0 003.905-3.906l-3.905-3.905a2.762 2.762 0 00-3.906 3.905l3.906 3.906z" fill="#003945" fill-rule="nonzero"/></g></svg>