<svg width="90" height="90" xmlns="http://www.w3.org/2000/svg"><g fill="none" fill-rule="evenodd"><path fill="#FFF" d="M14.627 36.818l29.946 6.888 31.011-7.422v11.782l-5.398 3.706V62.62l4.726 3.784.672 4.774v4.74l-30.478 5.9-31.116-6.483V65.216l4.544-1.17 1.834-4.996-.551-8.282-5.19-1.783-.637-7.41z"/><path fill="#FFF" d="M30.994 25.915l1.42-8.842 3.974-4.777 4.285-2.044h5.696l6.771 2.044 3.224 2.185 2.47 5.328v4.568l.512 15.324-13.992 3.647-14.36-3.647z"/><path fill="#05C0A5" d="M10 49h10v16H10zm60 0h10v16H70z"/><path d="M79.125 46.945v-13.7L62.062 37.19V24.1C62.063 14.657 54.423 7 45 7c-9.423 0-17.063 7.656-17.063 17.1v13.09l-17.062-3.945v13.7A8.552 8.552 0 006 54.638v4.886a8.552 8.552 0 004.875 7.693V77.42l24.78 4.776 1.154-4.776-21.059-4.036V67.95a8.53 8.53 0 007.312-8.426v-4.886a8.53 8.53 0 00-7.312-8.426v-6.826L42.562 45.6v27.067h4.876V45.6l26.812-6.203v6.826a8.53 8.53 0 00-7.313 8.416v4.886a8.53 8.53 0 007.313 8.426v5.435l-26.813 5.167V68.074h-4.874v10.478l-5.99-1.153-.918 4.798L45 84l34.125-6.579V67.217A8.552 8.552 0 0084 59.524v-4.886a8.552 8.552 0 00-4.875-7.693zm-60.938 7.693v4.886a3.66 3.66 0 01-3.656 3.664 3.66 3.66 0 01-3.656-3.664v-4.886a3.66 3.66 0 013.656-3.665 3.66 3.66 0 013.656 3.665zM45 11.886c6.1.019 11.242 4.562 12.027 10.624l-6.87-3.442-17.274 4.33C33.246 16.95 38.558 11.903 45 11.885zm12.188 26.433L45 41.139l-12.188-2.82v-9.867l16.78-4.205 7.596 3.807v10.265zm21.937 21.205a3.66 3.66 0 01-3.656 3.664 3.66 3.66 0 01-3.656-3.664v-4.886a3.66 3.66 0 013.656-3.665 3.66 3.66 0 013.656 3.665v4.886z" fill="#003945" fill-rule="nonzero"/></g></svg>