<svg xmlns="http://www.w3.org/2000/svg" width="100" height="100"><path d="M40.618 11.048c-6.328 1.59-15.334 6.92-19.706 11.663-2.245 2.436-5.507 7.436-7.247 11.109-2.866 6.049-3.165 7.582-3.165 16.232 0 9.015.21 9.976 3.735 17.108 4.498 9.102 10.288 14.771 19.585 19.175C39.861 89.197 41.409 89.5 50 89.5s10.139-.303 16.18-3.165c9.297-4.404 15.087-10.073 19.585-19.175C89.294 60.02 89.5 59.075 89.5 50s-.206-10.02-3.735-17.16c-6.757-13.673-18.762-21.696-33.516-22.398-4.262-.203-9.496.07-11.631.606M35.794 35.25c-.287 7.082-.358 7.257-3.044 7.566-2.16.249-2.75.839-2.75 2.75 0 2.038.489 2.434 3 2.434h3v24l9.25-.006c11.305-.006 15.718-1.149 20.434-5.29 12.507-10.981 8.383-32.637-7.088-37.231C55.868 28.663 49.688 28 44.862 28h-8.774l-.294 7.25M42 38v5h5.5c5.2 0 5.5.136 5.5 2.5s-.3 2.5-5.5 2.5H42v19.219l7.449-.377c7.977-.402 10.972-1.847 14.989-7.227 2.941-3.939 2.943-15.26.003-19.292C61.246 35.941 54.558 33 47.788 33H42v5" fill-rule="evenodd"/></svg>