<svg version="1.1" id="Layer_1" xmlns="http://www.w3.org/2000/svg" x="0" y="0" viewBox="0 0 141.8 142" xml:space="preserve"><style>.st0{fill:#546eff}</style><path class="st0" d="M70.9 10.3c-27.5 0-49.8 22.4-49.8 49.9 0 2.6.3 5.3.8 8 .1.6.8.8 1.2.5.3-.2.7-.5 1.1-.7 1.7-.9 3.6-1.4 5.5-1.4.5 0 .9-.4.8-.9-.3-1.8-.5-3.7-.5-5.4 0-22.6 18.4-41 41-41s41 18.4 41 41-28.9 51.5-39.3 61.6c-.9.9-2.5.9-3.4 0-3-3-7.7-7.6-12.7-13.2h-.2c-4-.4-7.9-1.3-11.5-2.8-.2-.1-.5-.2-.7-.3-.7-.3-1.4.6-.9 1.2 6.6 8.1 13.9 15.5 20.4 21.9 2 2 4.7 3 7.4 3s5.4-1 7.4-3c18.2-17.9 42.4-44.6 42.4-68.5-.1-27.5-22.5-49.9-50-49.9z"/><path class="st0" d="M100.5 62.9c-.1-1.8-.3-3.6-.6-5.4-.4-1.8-.9-3.5-1.5-5.2-.7-1.7-1.5-3.3-2.4-4.8-3.6-6.1-9-11-15.5-14.1-3.2-1.5-6.8-2.5-10.5-2.8-.5 0-.9 0-1.4-.1H58.5c-.3 0-.7 0-1 .1-1.3.2-2.6.6-3.8 1.2-2.3 1.2-4.2 3.3-5.1 5.8-.2.6-.4 1.3-.5 1.9-.1.3-.1.7-.1 1V74c0 .9 0 1.3-.1 1.7l-.3 1.2c-.1.3-.3.6-.5.8-.3.4-.9.8-1.7 1-.8.2-1.9.3-3 .2-1.1-.1-2.3-.3-3.5-.7-2.3-.8-4.6-2.1-6.3-3.7-1.4-1.3-3.5-1.6-5.2-.6-2.1 1.2-2.9 3.9-1.7 6.1 3.1 5.5 7.3 10.8 12.6 14.7 2.7 2 5.6 3.6 8.7 4.9 3.1 1.2 6.4 2 9.7 2.3 6.7.7 13.4-.5 19.4-3 6.1-2.5 11.6-6.4 15.8-11.5h.1c2.2-2.6 4.3-5.5 5.7-8.9 1.5-3.4 2.2-7 2.5-10.4.1-.9.1-1.7.1-2.6v-1.3c.3-.4.2-.9.2-1.3zm-8.9 2.3c0 .7-.1 1.4-.1 2.1-.2 2.7-.8 5.3-1.8 7.6s-2.5 4.5-4.3 6.6h.1c-3.5 3.8-7.8 7-12.6 9s-10.1 2.9-15.1 2.4c-4.9-.5-9.6-2.3-13.6-5.2 1.2 0 2.5-.2 3.8-.6 1.1-.3 2.2-.7 3.2-1.4 1-.6 2-1.4 2.9-2.4.8-1 1.5-2.1 1.9-3.2.4-1.1.7-2.3.9-3.3.1-1 .1-2.1.1-2.8V41.2c0-.1 0-.2.1-.3.1-.4.5-.8.9-1 .2-.1.4-.2.6-.2h10.7c2.5.2 5 .9 7.4 2 4.8 2.2 8.9 6 11.6 10.5.7 1.1 1.2 2.3 1.7 3.5.5 1.2.8 2.5 1.1 3.7.3 1.3.4 2.6.5 3.8v2z"/></svg>