<svg id="Layer_1" width="100" height="100" data-name="Layer 1" xmlns="http://www.w3.org/2000/svg"><defs><style>.cls-1{fill:#00c4a4}.cls-2{fill:#003a47}</style></defs><path class="cls-1" d="M38.33 24.36h25.13v6.93H38.33z"/><path class="cls-2" d="M90.39 77.55h-79a5.24 5.24 0 01-5.23-5.24V34.52a5.23 5.23 0 015.23-5.23h79a5.24 5.24 0 015.23 5.23v37.79a5.24 5.24 0 01-5.23 5.24zm-79-44.26a1.24 1.24 0 00-1.23 1.23v37.79a1.24 1.24 0 001.23 1.24h79a1.24 1.24 0 001.23-1.24V34.52a1.24 1.24 0 00-1.23-1.23z"/><path class="cls-2" d="M84.6 69.59H37.9a5.23 5.23 0 01-5.23-5.23V42.48a5.23 5.23 0 015.23-5.23h46.7a5.23 5.23 0 015.23 5.23v21.88a5.23 5.23 0 01-5.23 5.23zM37.9 41.25a1.23 1.23 0 00-1.23 1.23v21.88a1.23 1.23 0 001.23 1.23h46.7a1.23 1.23 0 001.23-1.23V42.48a1.23 1.23 0 00-1.23-1.23zm27.56-9.96h-4v-4.93H40.33v4.93h-4v-5.55a3.38 3.38 0 013.37-3.38h22.39a3.38 3.38 0 013.37 3.38z"/><path class="cls-1" d="M21.55 63.67l5.2-7.43H16.34l5.21 7.43 5.2-7.43H16.34l5.21 7.43z"/><path class="cls-2" d="M21.63 65.67a3.58 3.58 0 01-2.87-1.41l-6.65-8.63a3.63 3.63 0 010-4.42l6.65-8.63a3.61 3.61 0 012.89-1.41 3.58 3.58 0 012.87 1.44L31 51.24a3.65 3.65 0 010 4.35l-6.5 8.64a3.58 3.58 0 01-2.87 1.44zm-6.17-12.25l6.16 8 6-8-6-8zM21.93 45z"/><path class="cls-2" d="M21.63 58.86a4 4 0 01-1.56-.31l-7.9-3.28 1.54-3.7 7.89 3.29 7.77-3.28 1.57 3.68-7.71 3.28a4.19 4.19 0 01-1.6.32zM41 52.4v-4.65l.67-1.75a1.44 1.44 0 011.11 1.11v6.2l-.45.44zm1.33 1.77l.45.44v6.2a1.44 1.44 0 01-1.11 1.11L41 60.14V55.5zm2.67 6.2v-5.76l.44-.44 1.33 1.33v4.2zm8.41 1.55h-7.32A1.42 1.42 0 0145 60.81l1.77-.67h6zm-1.34-14.17h-5.29L45 47.09A1.44 1.44 0 0146.12 46h6.61zm.44 5.31l.89.89-.89.88h-5.75l-.89-.83.89-.89zm0-.66v-4.65l.67-1.75a1.42 1.42 0 011.1 1.11v6.2l-.44.44zm5.75-1.11h-1.77v-1.77h1.77zm0 7.09h-1.77V56.6h1.77zm3.99-10.18v4.2l-1.33 1.33-.44-.44v-5.76zm-1.77 12.17v-5.76l.44-.44 1.33 1.33v4.2zm7.74 1.55h-6.64a1.42 1.42 0 01-1.1-1.11l1.77-.67h5.31zm-.66-14.17h-5.29l-1.77-.66A1.44 1.44 0 0161.61 46h6.61zM68 52.4v-4.65l.67-1.75a1.44 1.44 0 011.1 1.11v6.2l-.44.44zm1.33 1.77l.44.44v6.2a1.44 1.44 0 01-1.1 1.11L68 60.14V55.5zm4.42-5.97v4.2l-1.32 1.33-.43-.44v-5.76zM72 60.37v-5.76l.45-.44 1.32 1.33v4.2zm7.75 1.55h-6.66A1.44 1.44 0 0172 60.81l1.77-.67h5.31zm-.67-14.17h-5.3L72 47.09A1.41 1.41 0 0173.11 46h6.62zm.45 4.65v-4.65l.64-1.75a1.44 1.44 0 011.11 1.11v6.2l-.45.44zm1.32 1.77l.45.44v6.2a1.44 1.44 0 01-1.11 1.11l-.66-1.78V55.5z"/></svg>