<svg xmlns="http://www.w3.org/2000/svg" width="100" height="100"><path d="M44.427 10.911c-4.365 1.881-24.008 13.961-25.639 15.767C14.927 30.953 14 35.468 14 50s.927 19.049 4.788 23.321c.942 1.042 7.112 5.108 13.712 9.037 11.306 6.729 12.347 7.142 18 7.142 5.663 0 6.677-.405 18.054-7.205 13.221-7.903 14.641-9.124 16.908-14.549 2.176-5.208 2.176-30.284 0-35.492-2.287-5.473-3.849-6.812-16.962-14.549-9.857-5.815-12.893-7.134-17-7.383-2.75-.167-5.933.098-7.073.589m-3.951 6.094C29.769 22.634 22.079 27.9 19.569 31.319c-1.806 2.461-2.111 4.558-2.402 16.5-.196 8.05.118 15.186.763 17.338 1.43 4.779 5.64 8.353 18.237 15.488 13.668 7.742 15.04 7.735 28.828-.142C83.199 70.105 83.989 68.836 83.989 50c0-18.774-.835-20.131-18.639-30.3-13.593-7.764-14.952-7.911-24.874-2.695m5.274 16.378C43.138 36.932 41 40.74 41 41.845 41 43.975 45.338 48 47.635 48c1.588 0 1.71.906.4 2.977-.639 1.011-.425 2.039.678 3.258 1.494 1.651 1.743 1.662 3.417.147 1.344-1.216 1.558-2.096.838-3.442-1.293-2.416-1.223-2.94.397-2.94C55.673 48 60 43.97 60 41.821c0-1.119-1.687-4.187-3.75-6.819-2.062-2.631-4.2-5.523-4.75-6.427-.84-1.38-1.762-.609-5.75 4.808m-8.466 20.384c-3.418.56-7.284 5.808-7.284 9.887C30 68.002 34.531 73 38.473 73 41.908 73 47 70.333 47 68.533c0-2.278-1.739-2.718-4.721-1.194-5.224 2.67-9.459-1.328-6.888-6.505 2.125-4.279 4.777-3.414 14.147 4.615C56.616 71.512 58.997 73 61.621 73c4.667 0 8.371-3.523 9.053-8.61.474-3.527.147-4.558-2.311-7.309-3.3-3.691-7.86-4.377-11.559-1.739-1.267.905-3.261 2.34-4.43 3.191-1.97 1.433-2.346 1.362-5.111-.965-3.568-3.002-6.963-4.296-9.979-3.801m19.61 7.036l-3.268 2.921 4.03 2.667c4.415 2.922 6.52 2.714 8.122-.803.754-1.655.715-2.975-.14-4.695-1.722-3.468-4.926-3.501-8.744-.09" fill-rule="evenodd"/></svg>