<svg xmlns="http://www.w3.org/2000/svg" width="100" height="100"><path d="M46.923 12.923C45.315 14.531 44 16.578 44 17.473c0 2.471 2.722 7.206 4.545 7.906 8.555 3.283 15.391-6.534 9-12.924-3.302-3.303-7.015-3.139-10.622.468M16.299 19.96c-9.932 6.055-7.502 19.579 4.028 22.42 2.024.499 4.398-.023 8.37-1.842 8.081-3.699 11.315-3.402 15.925 1.462 4.072 4.298 6.318 4.917 8.807 2.429 2.014-2.015 2.005-4.852-.022-6.88-1.221-1.22-2.709-1.445-6.36-.961-6.513.864-8.449-.45-12.495-8.485-4.851-9.632-11.18-12.456-18.253-8.143M66.18 34.682C54.353 40.51 54.247 57.589 66 63.785c11.724 6.181 25.498-3.582 23.723-16.814-1.436-10.702-13.735-17.122-23.543-12.289M45.513 55.395c-4.134 5.419-7.025 6.117-14.55 3.513-3.498-1.211-7.583-2.166-9.077-2.124-13.417.382-15.808 19.463-2.923 23.323 7.178 2.151 12.913-1.206 15.531-9.09.983-2.957 2.912-6.022 4.781-7.595 2.71-2.281 3.739-2.555 7.597-2.026 3.387.464 4.904.212 6.295-1.047 2.333-2.112 2.335-4.585.004-6.694-2.745-2.485-4.791-2.02-7.658 1.74m2.716 18.274C46.686 74.29 44 79.281 44 81.527 44 84.12 49.53 89 52.469 89 56.235 89 60 84.861 60 80.72c0-5.701-6.078-9.341-11.771-7.051" fill-rule="evenodd"/></svg>