<svg xmlns="http://www.w3.org/2000/svg" width="100" height="100"><path d="M42.045 11.092c-15.703 3.079-28.161 16.124-31.247 32.721-4.824 25.936 19.706 50.125 45.931 45.293 13.519-2.491 23.637-10.327 29.606-22.926 2.866-6.049 3.165-7.582 3.165-16.233 0-9.033-.205-9.967-3.772-17.184-8.303-16.798-25.363-25.262-43.683-21.671m.362.878c-11.275 2.403-21.491 10.392-26.626 20.824-3.078 6.251-3.281 7.316-3.281 17.185 0 9.303.308 11.178 2.66 16.196 7.346 15.671 25.22 25.076 41.606 21.893 20.698-4.019 34.909-24.093 31.353-44.283-1.59-9.027-5.314-15.824-12.123-22.128-9.049-8.378-22.087-12.138-33.589-9.687m-1.478 6.397C19.983 24.015 9.898 45.67 20.235 62.803c2.539 4.207 3.245 3.59 1.278-1.117-.832-1.992-1.493-4.649-1.469-5.904.033-1.723.363-1.387 1.35 1.374 3.262 9.132 10.302 17.983 16.294 20.487 2.106.88 7.355 1.357 14.934 1.357 11.479 0 11.796-.061 17.897-3.473 5.541-3.099 6.278-3.881 6.835-7.25.992-6.003.784-7.008-1.575-7.625l-2.222-.581 2.722-2.84c2.31-2.412 2.721-3.7 2.721-8.536V43h-6.392l3.201-3.303 3.2-3.302-1.536-5.176-1.537-5.175-18.718-.272L38.5 25.5l4.775-2.225c2.626-1.224 7.801-2.765 11.5-3.425 5.466-.976 6.257-1.336 4.225-1.926-3.914-1.135-13.048-.911-18.071.443m-4.274 20.462C33.144 42.708 34.24 43 52.288 43h17.288l3.462-2.959 3.462-2.96-19.095-.04c-17.26-.037-19.254.135-20.75 1.788M35 55.809c0 .445.614 1.649 1.365 2.676 1.21 1.654 3.176 1.913 17.25 2.274l15.885.408 3.5-3.043 3.5-3.043-20.75-.04c-11.413-.023-20.75.323-20.75.768m-2.667 17.099c2.905 3.506 8.974 5.048 19.95 5.07 9.855.02 11.233-.215 16-2.728L73.5 72.5l-5.5-.234c-3.025-.129-12.55-.354-21.167-.5-13.38-.227-15.497-.06-14.5 1.142" fill-rule="evenodd"/></svg>