<svg width="90" height="90" xmlns="http://www.w3.org/2000/svg"><g fill="none" fill-rule="evenodd"><path fill="#FFF" d="M13 29h63v47H13z"/><path fill="#05C0A5" d="M14 14h63v15H14z"/><g fill="#003945" fill-rule="nonzero" stroke="#003945" stroke-width=".5"><path d="M73.023 11H16.977A5.983 5.983 0 0011 16.977v56.046A5.983 5.983 0 0016.977 79h56.046A5.983 5.983 0 0079 73.023V16.977A5.983 5.983 0 0073.023 11zm1.993 62.023a1.994 1.994 0 01-1.993 1.993H16.977a1.994 1.994 0 01-1.993-1.993V30.922h60.032v42.101zm0-46.085H14.984v-9.961c0-1.099.894-1.993 1.993-1.993h56.046c1.099 0 1.993.894 1.993 1.993v9.96z"/><path d="M68.296 18.556H64.52a1.889 1.889 0 000 3.777h3.777a1.889 1.889 0 000-3.777zm-11.333 0h-3.778a1.889 1.889 0 000 3.777h3.778a1.889 1.889 0 000-3.777zm-11.333 0h-3.778a1.889 1.889 0 000 3.777h3.778a1.889 1.889 0 000-3.777zm0 16.37c-10.069 0-18.26 8.191-18.26 18.26 0 10.067 8.191 18.258 18.26 18.258 10.068 0 18.259-8.19 18.259-18.259 0-10.068-8.191-18.26-18.26-18.26zm14.056 16.23h-5.988c-.17-3.812-.816-7.363-1.865-10.16-.094-.25-.19-.489-.287-.72 4.297 1.977 7.444 6.038 8.14 10.88zm-28.112 4.058h5.987c.17 3.813.816 7.364 1.865 10.16.094.251.19.49.287.72-4.297-1.977-7.444-6.038-8.14-10.88zm7.852-14.218c-1.049 2.797-1.695 6.348-1.865 10.16h-5.987c.695-4.842 3.842-8.903 8.14-10.88-.098.231-.194.47-.288.72zm8.608 22.953c-1.052 2.806-2.115 3.438-2.404 3.438-.29 0-1.352-.632-2.405-3.438-.887-2.367-1.442-5.415-1.603-8.735h8.015c-.161 3.32-.715 6.368-1.603 8.735zm-6.412-12.793c.161-3.32.716-6.367 1.603-8.735 1.053-2.806 2.115-3.437 2.405-3.437.289 0 1.352.631 2.404 3.437.888 2.368 1.442 5.416 1.603 8.735h-8.015zm9.924 14.938c.097-.23.193-.47.287-.72 1.049-2.796 1.695-6.347 1.865-10.16h5.988c-.696 4.842-3.843 8.903-8.14 10.88z"/></g></g></svg>