<svg xmlns="http://www.w3.org/2000/svg" width="97.069" height="155.076"><path fill="none" stroke="#fff" stroke-linecap="round" stroke-linejoin="round" stroke-miterlimit="10" stroke-width="2" d="M21.452 50.228l15.5-25 56.6 53.1zm27.3-44.1l-11.8 19.1 10.1 9.4zm25.5 64.7l-7.4 50.6s13.6-22 13.8-22.2c.2-.2-6.4-28.4-6.4-28.4zm-27.4 16.8l-.9-27.8 28.3 11z" class="st0"/><path fill="none" stroke="#fff" stroke-linecap="round" stroke-linejoin="round" stroke-miterlimit="10" stroke-width="2" d="M19.952 104.028l15.5 25.1 38.8-58.3z" class="st0"/><path fill="none" stroke="#fff" stroke-linecap="round" stroke-linejoin="round" stroke-miterlimit="10" stroke-width="2" d="M58.952 93.828l15.3-23-7.4 50.6z" class="st0"/><path fill="none" stroke="#fff" stroke-linecap="round" stroke-linejoin="round" stroke-miterlimit="10" stroke-width="2" d="M48.752 150.628l-13.3-21.5 31.4-7.7zm-44.7-72.3l15.9 25.7 26.5-28.6z" class="st0"/><path fill="none" stroke="#fff" stroke-linecap="round" stroke-linejoin="round" stroke-miterlimit="10" stroke-width="2" d="M46.852 87.628l-26.9 16.4 26.5-28.6zm-25.4-37.4l-17.4 28.1 42.4-2.9z" class="st0"/><path fill="none" stroke="#fff" stroke-linecap="round" stroke-linejoin="round" stroke-miterlimit="10" stroke-width="2" d="M21.452 50.228l24.5 9.6.5 15.6zm59.2 49l-6.4-28.4 19.3 7.5zm-21.7-5.4l-23.5 35.3 31.4-7.7zm-10.2-87.7l18.1 47.2 26.7 25z" class="st0"/><path fill="none" stroke="#fff" stroke-linecap="round" stroke-linejoin="round" stroke-miterlimit="10" stroke-width="2" d="M48.752 6.128l-1.7 28.5 19.8 18.7z" class="st0"/></svg>