<svg xmlns="http://www.w3.org/2000/svg" width="100" height="100"><path d="M40.618 11.048c-6.328 1.59-15.334 6.92-19.706 11.663-2.245 2.436-5.507 7.436-7.247 11.109-2.866 6.049-3.165 7.582-3.165 16.232 0 9.015.21 9.976 3.735 17.108 4.498 9.102 10.288 14.771 19.585 19.175C39.861 89.197 41.409 89.5 50 89.5s10.139-.303 16.18-3.165c9.297-4.404 15.087-10.073 19.585-19.175C89.294 60.02 89.5 59.075 89.5 50s-.206-10.02-3.735-17.16c-6.757-13.673-18.762-21.696-33.516-22.398-4.262-.203-9.496.07-11.631.606m-3.962 18.085C34.475 30.4 32 35.894 32 39.468 32 41.84 32.316 42 37 42c4.667 0 5-.167 5-2.5V37h12.906c12.879 0 12.906-.005 12.362-2.25-.299-1.237-1.46-3.262-2.58-4.5-1.901-2.1-2.839-2.248-14.112-2.22-6.716.017-12.894.506-13.92 1.103M33 47.326c0 1.279 1.16 3.416 2.578 4.75 2.442 2.297 3.333 2.441 17 2.748L67 55.148l-.032-2.324c-.038-2.756-1.647-5.06-4.652-6.661-1.352-.72-7.355-1.163-15.75-1.163C33.033 45 33 45.006 33 47.326M58 60.5V63H32.104l1.051 3.016C34.982 71.256 37.143 72 50.548 72c11.347 0 12.239-.144 14.27-2.307 1.258-1.338 2.437-4.275 2.811-7L68.272 58h-5.136C58.324 58 58 58.158 58 60.5" fill-rule="evenodd"/></svg>