<svg xmlns="http://www.w3.org/2000/svg" style="isolation:isolate" viewBox="759 667.651 227 228" width="227" height="228"><path d="M976 768.222c-.042.402-.104.796-.104 1.2a15941.94 15941.94 0 00-.125 37.901l-.041 25.948c0 .827-.073 1.656-.124 2.69-.455-.207-.788-.341-1.097-.516l-48.168-26.86c-.861-.475-.933-.9-.518-1.747 8.207-16.852 8.239-33.742.154-50.633-.382-.807-.309-1.211.518-1.666l48.19-27.044c.403-.228.869-.342 1.314-.508v41.236l.001-.001zM875.605 667.651c.807.486 1.605 1.004 2.432 1.47l93.657 52.629c.351.197.683.415 1.169.704-.435.28-.724.487-1.045.662l-47.797 26.693c-1.252.693-1.24.683-2.069-.496-10.598-14.853-25.13-23.34-43.594-25.492a13.473 13.473 0 00-1.656-.104c-.973 0-1.345-.373-1.345-1.398-.01-10.484-.073-20.98-.104-31.463l-.03-21.725c0-.496.113-.984.175-1.48h.207zm-6.417 227.697c-.352-.259-.673-.549-1.036-.756l-94.359-53.043c-.445-.248-.87-.518-1.48-.869.413-.279.683-.497.993-.673 15.836-8.849 31.671-17.688 47.505-26.559.953-.537 1.398-.331 1.989.488 9.894 13.723 23.411 21.838 40.375 24.602 1.728.278 3.498.413 5.247.496.994.042 1.386.311 1.386 1.345-.009 9.284.032 18.569.063 27.842l.052 26.35c0 .26-.073.518-.113.777h-.622zM769 827.556c.053-.311.156-.632.166-.952l.041-13.072.073-29.26.134-46.148.053-9.948c0-.29.041-.579.073-1.045.454.216.785.35 1.096.527 15.753 8.798 31.495 17.596 47.267 26.372.923.508 1.047.9.591 1.863-8.28 16.983-8.239 33.989 0 50.994.672 1.366.693 1.357-.652 2.111a32831.3 32831.3 0 01-47.454 26.651c-.405.229-.931.248-1.387.363v-8.455l-.001-.001zm139.446-9.625c1.687-5.931 2.235-11.903 1.862-17.968-.434-7.431-2.276-14.49-6.147-20.969-4.45-7.472-10.889-12.885-18.734-16.819-2.07-1.044-2.298-.517-1.065-3.104 2.784-5.828 7.658-9.45 13.661-11.769a42.56 42.56 0 0113.02-2.546c.627.027 1.22.294 1.656.744a51.691 51.691 0 0113.849 28.349c3.963 26.983-13.621 52.31-40.926 59.017-30.293 7.452-61.022-11.199-67.314-40.82-5.88-27.729 11.882-54.545 38.378-61.625 19.902-5.309 37.559-1.075 53.012 12.11l1.749 1.491-.219.332c-1.52-.187-3.032-.415-4.552-.561-9.45-.89-18.744-.268-27.759 2.826a46.219 46.219 0 00-25.958 21.579c-.827 1.471-.89 1.481-2.484.933a13.565 13.565 0 01-5.371-3.487 28.437 28.437 0 01-6.51-10.755c-1.211-3.519-2.101-7.142-3.137-10.712-.082-.28-.145-.569-.394-.87-.143.829-.309 1.635-.433 2.463a50.624 50.624 0 00-.311 2.485c-.983 9.253-.455 18.36 2.743 27.189 3.974 11.013 11.458 18.941 22.387 23.763 1.428.632 1.428.642.662 1.946-4.047 6.872-10.391 10.33-18.226 11.509-3.643.549-7.286.331-11.002.063.341.134.673.289 1.014.414 17.905 6.157 37.57 3.394 52.382-12.276a71.76 71.76 0 009.708-13.112c.703-1.222.754-1.233 1.894-.404 4.854 3.539 7.741 8.383 9.729 13.816 1.853 4.999 2.586 10.195 2.763 15.484.01.424.041.849.073 1.273v.011zm64.872 22.893l-97.941 54.327c-.051-.569-.124-.92-.124-1.262 0-17.906 0-35.811-.02-53.717 0-.797.238-1.086 1.097-1.159 19.043-1.572 34.144-9.915 45.23-25.077.963-1.335.951-1.345 2.378-.549l48.056 26.651c.373.207.745.445 1.324.787v-.001zM869.801 668.023c.029.58.061.933.061 1.284 0 17.668 0 35.335.021 52.992 0 .827-.124 1.242-1.139 1.313-19.437 1.408-34.806 9.824-46.067 25.285-.89 1.223-.869 1.233-2.174.508l-46.79-25.978c-.55-.311-1.057-.683-1.585-1.036.539-.372 1.036-.797 1.614-1.118l94.289-52.329c.527-.289 1.065-.547 1.758-.919h.012v-.002z"/></svg>