<svg xmlns="http://www.w3.org/2000/svg" style="isolation:isolate" viewBox="417 668 227 227" width="227" height="227"><circle cx="530.5" cy="781.5" r="113.5"/><path d="M597 772.968c-.027.259-.067.512-.067.772-.033 8.112-.066 16.232-.08 24.352l-.026 16.671c0 .532-.047 1.064-.08 1.729-.293-.133-.506-.22-.705-.332l-30.949-17.257c-.553-.306-.599-.579-.332-1.123 5.273-10.828 5.293-21.68.099-32.532-.246-.519-.199-.778.333-1.071l30.962-17.376c.259-.147.558-.22.844-.327v26.495zm-64.505-64.617c.518.312 1.031.645 1.563.944l60.176 33.815c.225.127.438.266.751.452-.28.18-.465.313-.672.425l-30.71 17.151c-.804.445-.797.439-1.329-.319-6.81-9.543-16.147-14.996-28.01-16.379a8.601 8.601 0 00-1.064-.066c-.625 0-.864-.24-.864-.898-.007-6.737-.047-13.481-.067-20.216l-.02-13.959c0-.318.073-.632.113-.95zm-4.123 146.297c-.226-.166-.432-.352-.666-.485l-60.627-34.081c-.285-.159-.558-.333-.95-.559.265-.179.439-.318.637-.432 10.175-5.685 20.349-11.364 30.523-17.064.613-.345.898-.213 1.278.313 6.357 8.818 15.042 14.032 25.942 15.807 1.11.179 2.247.266 3.371.319.638.027.89.2.89.864-.005 5.965.021 11.931.041 17.889l.033 16.931c0 .166-.046.332-.073.498zM464 811.091c.034-.2.1-.406.107-.611l.026-8.4.047-18.799.086-29.651.034-6.392c0-.186.026-.372.047-.671.291.139.504.225.704.339 10.121 5.652 20.236 11.305 30.37 16.944.593.326.672.578.38 1.197-5.32 10.912-5.294 21.839 0 32.764.431.878.445.872-.419 1.357l-30.49 17.123c-.26.147-.599.159-.891.234v-5.433zm89.596-6.184c1.083-3.811 1.436-7.648 1.196-11.545-.279-4.774-1.463-9.309-3.95-13.473-2.859-4.8-6.996-8.278-12.036-10.805-1.331-.672-1.477-.333-.685-1.995 1.789-3.744 4.921-6.072 8.778-7.562a27.322 27.322 0 018.365-1.635c.403.016.784.188 1.064.478a33.206 33.206 0 018.898 18.214c2.547 17.337-8.751 33.61-26.295 37.919-19.464 4.788-39.207-7.195-43.25-26.227-3.778-17.816 7.634-35.046 24.658-39.595 12.788-3.411 24.133-.691 34.061 7.781l1.124.958-.141.213c-.976-.12-1.948-.266-2.924-.36-6.072-.572-12.044-.173-17.836 1.816a29.69 29.69 0 00-16.678 13.864c-.532.945-.572.952-1.597.599a8.703 8.703 0 01-3.45-2.24 18.252 18.252 0 01-4.183-6.91c-.778-2.261-1.35-4.589-2.016-6.883-.052-.18-.092-.365-.253-.558-.092.532-.198 1.05-.278 1.582-.08.53-.146 1.063-.2 1.596-.632 5.946-.292 11.797 1.763 17.47 2.553 7.075 7.361 12.169 14.384 15.268.917.406.917.412.425 1.25-2.6 4.416-6.676 6.637-11.71 7.395-2.341.352-4.682.213-7.069.04.219.086.432.186.651.266 11.504 3.956 24.139 2.181 33.656-7.887a46.098 46.098 0 006.238-8.425c.451-.785.484-.792 1.216-.26 3.119 2.275 4.974 5.387 6.251 8.878 1.191 3.211 1.662 6.55 1.776 9.948.006.273.026.546.047.818zm41.681 14.709l-62.928 34.906c-.033-.366-.08-.591-.08-.811 0-11.504 0-23.009-.013-34.514 0-.512.153-.697.705-.744 12.235-1.011 21.938-6.371 29.06-16.113.619-.858.612-.864 1.528-.352l30.877 17.123c.24.133.479.286.851.506zM528.766 708.59c.018.372.039.599.039.825 0 11.351 0 22.703.013 34.047 0 .532-.079.798-.731.844-12.489.905-22.363 6.312-29.599 16.246-.571.786-.558.792-1.396.326l-30.064-16.691c-.353-.2-.679-.439-1.018-.665.346-.24.665-.512 1.037-.719l60.582-33.622c.338-.185.684-.351 1.129-.59h.008z" fill-rule="evenodd" fill="#fff"/></svg>