<svg xmlns="http://www.w3.org/2000/svg" width="100" height="100"><path d="M40.618 11.048c-6.328 1.59-15.334 6.92-19.706 11.663-2.245 2.436-5.507 7.436-7.247 11.109-2.866 6.049-3.165 7.582-3.165 16.232 0 9.015.21 9.976 3.735 17.108 4.498 9.102 10.288 14.771 19.585 19.175C39.861 89.197 41.409 89.5 50 89.5s10.139-.303 16.18-3.165c9.297-4.404 15.087-10.073 19.585-19.175C89.294 60.02 89.5 59.075 89.5 50s-.206-10.02-3.735-17.16c-6.757-13.673-18.762-21.696-33.516-22.398-4.262-.203-9.496.07-11.631.606m-.26 8.985c-8.537 2.631-18.096 12.587-20.454 21.304-1.844 6.82-.678 17.47 2.565 23.429 2.812 5.167 7.093 10.005 8.026 9.072.277-.276-.127-4.991-.897-10.478-2.059-14.676-.458-20.64 7.462-27.795 4.471-4.039 10.233-6.888 21.354-10.556l6.914-2.281-2.914-1.544c-3.461-1.833-17.47-2.564-22.056-1.151M72.5 31.653c-1.1.833-6.774 3.924-12.608 6.868-10.861 5.481-15.413 9.433-16.476 14.306-.321 1.47-.779 3.295-1.019 4.055-.342 1.085.535 1.273 4.069.875 7.015-.791 14.941-5.188 19.26-10.684 3.399-4.327 8.977-8.704 9.907-7.774.198.199-.354 2.461-1.228 5.026-1.973 5.79-8.424 13.064-18.321 20.656-4.171 3.2-9.559 7.856-11.972 10.347l-4.389 4.529 3.734.701c5.896 1.106 15.685-.08 20.364-2.467 10.014-5.109 16.23-14.495 16.948-25.591.506-7.822-.652-13.216-4.008-18.681-2.116-3.445-2.389-3.583-4.261-2.166" fill-rule="evenodd"/></svg>