<svg xmlns="http://www.w3.org/2000/svg" style="isolation:isolate" viewBox="1483 667.651 227 227" width="227" height="227"><path d="M1660.977 690.015c.927.719 1.759 1.337 2.53 2.005 2.038 1.8 4.085 3.599 6.07 5.461 1.574 1.503 3.066 3.108 4.577 4.681.123.123.226.412.185.576a38.534 38.534 0 01-4.196 10.101c-1.646 2.758-3.538 5.288-5.741 7.561a45.114 45.114 0 01-9.988 7.766c-1.595.927-3.229 1.749-4.865 2.573-5.214 2.643-10.77 4.124-16.428 5.173-3.857.72-7.755 1.233-11.634 1.77-5.101.698-10.214 1.264-15.305 2.005-7.51 1.09-14.863 2.799-21.838 6.038-7.674 3.57-14.061 8.785-18.402 16.489-2.891 5.143-4.064 10.749-4.012 16.696.092 11.386 3.991 21.23 10.718 29.984 4.115 5.35 8.804 10.101 13.742 14.587 3.416 3.117 6.902 6.141 10.307 9.257 4.352 4.012 8.713 8.013 12.447 12.694 1.955 2.468 3.888 4.998 5.566 7.684 2.859 4.588 5.133 9.515 6.624 14.79a43.887 43.887 0 011.542 8.817 41.516 41.516 0 01-1.173 13.29c-.442 1.779-.462 1.811-2.221 2.13-2.48.462-4.959.935-7.448 1.337-1.82.277-3.651.452-5.481.658-.638.081-1.288.113-1.934.164l-.382-.01c.01-.145 0-.287.041-.412.557-1.471 1.174-2.921 1.698-4.403a43.45 43.45 0 002.324-9.854 30.15 30.15 0 00-3.117-17.198 41.206 41.206 0 00-7.137-9.731c-3.869-4.064-8.127-7.622-12.396-11.172-7.128-5.935-14.022-12.137-20.315-19.049a103.708 103.708 0 01-10.412-13.393 65.875 65.875 0 01-7.898-16.521 48.479 48.479 0 01-.258-27.957c1.502-5.288 3.529-10.256 6.656-14.711 4.135-5.894 9.473-10.287 15.594-13.681 6.171-3.446 12.754-5.709 19.533-7.406a133.711 133.711 0 0116.541-3.086c6.275-.761 12.549-1.399 18.824-2.108 5.123-.577 10.215-1.286 15.163-2.849a31.172 31.172 0 0012.107-6.913c2.993-2.798 5.216-6.151 6.809-9.999 1.471-3.549 2.191-7.293 2.716-11.089.113-.843.174-1.707.277-2.747h-.01v.002zm-72.621 131.931c2.254-.442 4.394-.823 6.523-1.286 5.472-1.214 10.872-2.674 15.943-5.266a42.193 42.193 0 0013.054-10.287c3.703-4.382 6.738-9.207 8.322-14.926a32.018 32.018 0 001.029-11.129 44.392 44.392 0 00-7.55-21.252 86.15 86.15 0 00-11.111-13.25c-.719-.729-1.48-1.439-2.211-2.16-.102-.102-.186-.225-.34-.41l3.91-.608 8.465-1.285c1.481-.226 2.963-.474 4.443-.668.174-.022.422.174.566.329 2.633 3.065 5.329 6.068 7.859 9.227a65.904 65.904 0 018.332 13.413c2.006 4.309 3.478 8.794 4.197 13.546.504 3.324.721 6.676.381 10.03-.987 9.391-3.776 18.083-9.279 25.675-3.415 4.722-7.621 8.538-12.365 11.727a70.666 70.666 0 01-17.845 8.465c-2.706.865-5.443 1.606-8.169 2.366a.895.895 0 01-.729-.154c-4.394-3.91-8.764-7.848-13.136-11.778-.083-.062-.145-.155-.279-.308l-.01-.011zm21.766-99.757l-6.624 1.028-7.509 1.163c-.874.144-1.759.307-2.653.4a1.273 1.273 0 01-.905-.287 77.796 77.796 0 01-8.034-8.59c-1.338-1.697-2.697-3.393-3.878-5.214-4.013-6.214-7.149-12.848-8.476-20.306a40.805 40.805 0 011.008-19.133c.113-.411.236-.617.719-.711 2.758-.471 5.483-1.089 8.229-1.541 2.264-.36 4.568-.546 6.852-.812l1.87-.186c-.164.37-.255.616-.368.832a45.106 45.106 0 00-4.023 12.757 29.503 29.503 0 002.787 17.712c2.274 4.578 5.38 8.455 8.898 12.036 3.663 3.702 7.633 7.035 11.615 10.358.144.123.267.256.503.493h-.01l-.001.001zm-32.649 116.113l-4.382.464c-1.851.204-3.702.348-5.553.636-2.85.443-5.709.875-8.528 1.503-10.318 2.282-18.351 7.754-22.733 18.278a59.245 59.245 0 00-3.57 11.922c-.03.186-.093.37-.174.699-.587-.452-1.131-.822-1.626-1.254-2.057-1.832-4.103-3.641-6.11-5.513-1.45-1.359-2.819-2.809-4.259-4.188-.483-.463-.576-.925-.4-1.584a39.95 39.95 0 0111.099-18.413 52.963 52.963 0 0111.417-8.074c5.822-3.19 12.046-5.02 18.424-6.399.739-.153 1.5-.236 2.221-.432.452-.123.751 0 1.07.299l5.945 5.442 6.594 6.058c.197.177.386.363.565.556zm44.51-45.035c-.515-.123-1.029-.236-1.522-.392l-35.498-11.097c-4.558-1.421-9.105-2.829-13.651-4.259-1.749-.545-2.643-1.975-2.509-3.436.185-2.161.904-3.662 2.93-4.062a3.545 3.545 0 011.667.143c3.847 1.184 7.686 2.418 11.521 3.611l27.167 8.476 10.832 3.364a3.498 3.498 0 012.541 3.805c-.299 2.294-1.668 3.785-3.478 3.847zm-74.989 66.82c.33.083.721.156 1.103.269l49.425 15.428c1.697.537 2.706 1.955 2.552 3.623-.197 2.242-1.369 3.734-3.128 3.886a4.311 4.311 0 01-1.605-.225c-13.63-4.238-27.248-8.497-40.867-12.755-2.839-.884-5.679-1.748-8.508-2.643-1.583-.505-2.633-1.852-2.52-3.395.165-2.037.915-3.59 2.736-4.053.237-.072.493-.082.823-.135h-.011zm104.202-162.153c-.153.452-.359 1.398-.802 2.189-.72 1.297-2.191 1.781-3.641 1.329l-23.834-7.448c-8.528-2.668-17.059-5.326-25.593-7.972-1.45-.453-2.53-1.305-2.694-2.953-.186-1.851.667-4.33 3.096-4.608.46-.031.922.032 1.357.186l49.54 15.46c1.646.513 2.571 1.729 2.571 3.817zm-71.13 66.48c.102-2.129 1.03-3.734 2.694-4.064a4.191 4.191 0 011.965.125c5 1.523 9.978 3.096 14.978 4.659l18.845 5.863a3.499 3.499 0 012.509 3.972c-.38 2.365-1.79 3.805-3.702 3.599-.978-.124-1.935-.514-2.901-.812l-24.503-7.654-7.385-2.304a3.354 3.354 0 01-2.5-3.384zm-3.415 19.442c.659.174 1.152.267 1.636.41l31.065 9.711c.852.267 1.717.515 2.571.792 1.904.618 2.827 2.387 2.334 4.403-.38 1.595-1.141 2.819-2.787 3.095a3.577 3.577 0 01-1.605-.133c-3.95-1.203-7.888-2.448-11.828-3.683-7.335-2.282-14.659-4.576-21.983-6.84-1.357-.421-2.387-1.233-2.613-2.726-.257-1.656.175-3.189 1.502-4.249.515-.4 1.193-.544 1.708-.77v-.01zm-28.627 94.501c.145-2.222 1.111-3.96 3.118-4.176.439-.044.883.001 1.305.133 11.397 3.548 22.795 7.098 34.192 10.667 1.83.577 2.726 2.387 2.262 4.321-.391 1.646-1.232 2.799-2.849 3.168-.302.085-.62.092-.925.021l-31.96-9.978c-.936-.299-1.883-.576-2.829-.885a3.384 3.384 0 01-2.314-3.271zm10.255-27.979c.309.082.721.154 1.121.277l33.75 10.533c1.646.515 2.674 1.955 2.552 3.56-.175 2.201-1.308 3.712-3.035 3.93a4.295 4.295 0 01-1.728-.218c-9.104-2.827-18.207-5.687-27.301-8.536-2.17-.669-4.35-1.337-6.51-2.028-1.585-.513-2.541-1.819-2.408-3.445.164-2.118.986-3.498 2.756-3.96.227-.062.464-.062.803-.103v-.01zm78.404-139.505c-1.111-.329-2.191-.627-3.272-.966-10.564-3.292-21.127-6.615-31.703-9.917-2.108-.667-2.962-2.365-2.386-4.608.361-1.43 1.102-2.458 2.489-2.777a3.69 3.69 0 011.852.062c9.36 2.89 18.732 5.822 28.102 8.744 2.006.616 4.003 1.254 6.008 1.881a3.392 3.392 0 012.324 3.703c-.174 1.359-.555 2.676-1.851 3.344-.483.247-1.03.348-1.563.534zm10.111-27.773c-.196 1.368-.566 2.859-2.129 3.62a3.31 3.31 0 01-2.52.073l-24.328-7.613-9.495-2.983c-1.995-.616-2.859-2.345-2.314-4.473.371-1.45 1.07-2.573 2.52-2.882a3.941 3.941 0 011.914.103c6.398 1.975 12.785 3.992 19.173 5.988l14.659 4.567c1.595.504 2.53 1.749 2.52 3.6z"/></svg>