<svg xmlns="http://www.w3.org/2000/svg" style="isolation:isolate" viewBox="1121 667.651 227 227" width="227" height="227"><circle cx="1234.5" cy="781.151" r="113.5"/><g fill="#fff"><path d="M1278.481 718.301c.639.496 1.213.922 1.745 1.383 1.405 1.241 2.817 2.482 4.186 3.766 1.085 1.036 2.114 2.143 3.156 3.228.085.085.156.284.128.397a26.579 26.579 0 01-2.894 6.966c-1.135 1.902-2.44 3.647-3.959 5.214a31.12 31.12 0 01-6.888 5.356c-1.1.639-2.227 1.206-3.355 1.774-3.596 1.823-7.427 2.844-11.329 3.568-2.66.496-5.348.85-8.023 1.22-3.518.482-7.044.872-10.555 1.383-5.179.752-10.25 1.93-15.06 4.164-5.292 2.462-9.697 6.058-12.69 11.371-1.994 3.547-2.803 7.413-2.767 11.514.063 7.852 2.752 14.641 7.391 20.678 2.838 3.689 6.072 6.966 9.477 10.059 2.356 2.15 4.76 4.235 7.108 6.384 3.001 2.767 6.009 5.526 8.584 8.754 1.348 1.702 2.681 3.447 3.838 5.299 1.972 3.164 3.54 6.562 4.568 10.2a30.313 30.313 0 011.064 6.08 28.662 28.662 0 01-.809 9.165c-.305 1.227-.319 1.249-1.532 1.469-1.71.319-3.42.645-5.136.922-1.255.191-2.518.312-3.78.454-.44.056-.888.078-1.334.113l-.263-.007c.007-.1 0-.198.028-.284.384-1.014.81-2.014 1.171-3.036a30 30 0 001.603-6.796 20.795 20.795 0 00-2.15-11.86 28.431 28.431 0 00-4.922-6.711c-2.668-2.802-5.604-5.256-8.548-7.704-4.916-4.093-9.67-8.37-14.01-13.137a71.41 71.41 0 01-7.18-9.236 45.409 45.409 0 01-5.447-11.393 33.439 33.439 0 01-.178-19.28c1.036-3.647 2.434-7.073 4.59-10.145 2.852-4.065 6.533-7.094 10.754-9.435 4.256-2.376 8.796-3.937 13.471-5.107 3.76-.95 7.57-1.66 11.407-2.128 4.327-.525 8.654-.965 12.981-1.454 3.533-.398 7.045-.887 10.457-1.965a21.49 21.49 0 008.349-4.767c2.064-1.93 3.597-4.242 4.696-6.896 1.014-2.447 1.511-5.029 1.873-7.647.078-.581.12-1.177.191-1.894h-.007v.001z"/><path d="M1228.4 809.284c1.554-.305 3.03-.568 4.498-.887 3.774-.837 7.498-1.844 10.995-3.632a29.073 29.073 0 009.002-7.094c2.554-3.022 4.647-6.349 5.739-10.293.685-2.497.925-5.094.71-7.675a30.62 30.62 0 00-5.207-14.656 59.398 59.398 0 00-7.662-9.137c-.496-.503-1.021-.993-1.525-1.49-.07-.07-.128-.155-.234-.283l2.696-.419 5.838-.886c1.021-.156 2.043-.327 3.064-.461.12-.015.291.12.39.227 1.816 2.114 3.675 4.185 5.42 6.363a45.51 45.51 0 015.746 9.25c1.383 2.972 2.398 6.065 2.894 9.342.348 2.292.497 4.604.263 6.917-.681 6.476-2.604 12.47-6.399 17.706-2.355 3.256-5.256 5.888-8.527 8.087a48.72 48.72 0 01-12.307 5.838c-1.866.596-3.753 1.107-5.633 1.631a.61.61 0 01-.503-.106c-3.03-2.696-6.044-5.412-9.059-8.122-.057-.043-.1-.107-.192-.213l-.007-.007zm15.01-68.795l-4.568.709-5.178.802c-.603.099-1.213.212-1.83.276a.878.878 0 01-.624-.198 53.513 53.513 0 01-5.54-5.924c-.923-1.17-1.86-2.34-2.675-3.596-2.767-4.285-4.93-8.86-5.845-14.003a28.147 28.147 0 01.695-13.195c.078-.283.163-.425.496-.49 1.902-.325 3.781-.751 5.675-1.063 1.561-.248 3.15-.376 4.725-.56l1.29-.128c-.113.255-.176.425-.254.574a31.093 31.093 0 00-2.774 8.797 20.348 20.348 0 001.922 12.215c1.568 3.157 3.71 5.831 6.136 8.3 2.526 2.553 5.264 4.852 8.01 7.143.099.085.184.177.347.34h-.007l-.001.001zm-22.515 80.074l-3.022.32c-1.277.141-2.553.24-3.83.439-1.965.305-3.937.603-5.881 1.036-7.115 1.574-12.655 5.348-15.677 12.605a40.895 40.895 0 00-2.462 8.222c-.021.128-.064.255-.12.482-.405-.312-.78-.567-1.121-.865-1.419-1.263-2.83-2.511-4.214-3.802-1-.937-1.944-1.937-2.937-2.888-.333-.319-.397-.638-.276-1.092a27.551 27.551 0 017.654-12.698 36.531 36.531 0 017.874-5.568c4.015-2.2 8.307-3.462 12.705-4.413.51-.106 1.035-.163 1.532-.298.312-.085.518 0 .738.206l4.1 3.753 4.547 4.178c.136.122.266.25.39.383z"/><path d="M1251.59 789.506c-.355-.085-.71-.163-1.05-.27l-24.48-7.653c-3.143-.98-6.279-1.951-9.414-2.937-1.206-.376-1.823-1.362-1.73-2.37.127-1.49.623-2.525 2.02-2.801.386-.059.78-.025 1.15.099 2.653.816 5.3 1.667 7.945 2.49l18.735 5.845 7.47 2.32a2.413 2.413 0 011.752 2.624c-.206 1.582-1.15 2.61-2.398 2.653zm-51.714 46.081c.227.057.497.107.76.185l34.085 10.64c1.17.37 1.866 1.348 1.76 2.498-.136 1.546-.944 2.575-2.157 2.68a2.951 2.951 0 01-1.107-.155c-9.4-2.923-18.791-5.86-28.183-8.796-1.958-.61-3.916-1.206-5.867-1.823-1.092-.348-1.816-1.277-1.738-2.341.114-1.405.631-2.476 1.887-2.795.163-.05.34-.057.567-.093h-.007zm71.86-111.825c-.106.312-.248.964-.553 1.51-.497.894-1.511 1.228-2.511.916l-16.437-5.136a7825.23 7825.23 0 00-17.649-5.498c-1-.312-1.745-.9-1.858-2.036-.128-1.277.46-2.986 2.135-3.178.317-.021.636.022.936.128l34.164 10.662c1.135.354 1.773 1.192 1.773 2.632zm-49.053 45.846c.07-1.468.71-2.575 1.858-2.802.452-.079.917-.05 1.355.086 3.448 1.05 6.881 2.135 10.329 3.213l12.996 4.043a2.412 2.412 0 011.73 2.739c-.262 1.631-1.234 2.624-2.553 2.482-.674-.085-1.334-.354-2-.56l-16.898-5.278-5.093-1.589a2.313 2.313 0 01-1.724-2.334zm-2.355 13.408c.454.12.794.184 1.128.283l21.423 6.697c.588.184 1.184.355 1.773.546 1.313.426 1.95 1.646 1.61 3.036-.262 1.1-.787 1.944-1.922 2.135-.371.054-.75.022-1.107-.092-2.724-.83-5.44-1.688-8.157-2.54-5.058-1.574-10.109-3.156-15.16-4.717-.936-.29-1.646-.85-1.802-1.88-.177-1.142.121-2.199 1.036-2.93.355-.276.823-.375 1.178-.531v-.007zm-19.742 65.17c.1-1.532.766-2.731 2.15-2.88.303-.03.609.001.9.092 7.86 2.447 15.72 4.895 23.58 7.356 1.262.398 1.88 1.646 1.56 2.98-.27 1.135-.85 1.93-1.965 2.185a1.266 1.266 0 01-.638.014l-22.04-6.881c-.646-.206-1.299-.397-1.951-.61a2.334 2.334 0 01-1.596-2.256zm7.072-19.295c.213.057.497.106.773.191l23.275 7.264c1.135.355 1.844 1.348 1.76 2.455-.121 1.518-.902 2.56-2.093 2.71a2.926 2.926 0 01-1.192-.15c-6.278-1.95-12.556-3.922-18.827-5.887-1.497-.461-3-.922-4.49-1.398-1.093-.354-1.752-1.255-1.66-2.376.113-1.461.68-2.412 1.9-2.731.157-.043.32-.043.554-.071v-.007zm54.069-96.206c-.766-.227-1.511-.432-2.256-.666-7.285-2.27-14.57-4.562-21.863-6.839-1.454-.46-2.043-1.631-1.646-3.178.249-.986.76-1.695 1.717-1.915.422-.094.862-.08 1.277.043 6.455 1.993 12.918 4.015 19.38 6.03 1.383.425 2.76.865 4.143 1.297a2.34 2.34 0 011.603 2.554c-.12.937-.383 1.845-1.277 2.306-.333.17-.71.24-1.078.368zm6.973-19.153c-.135.944-.39 1.972-1.468 2.497a2.276 2.276 0 01-1.738.05l-16.777-5.25-6.548-2.057c-1.376-.425-1.972-1.617-1.596-3.085.256-1 .738-1.774 1.738-1.987a2.72 2.72 0 011.32.071c4.412 1.362 8.817 2.753 13.222 4.129l10.109 3.15c1.1.347 1.745 1.206 1.738 2.482z"/></g></svg>