<svg xmlns="http://www.w3.org/2000/svg" xmlns:xlink="http://www.w3.org/1999/xlink" width="640" height="640"><defs><path d="M292.44 8.1c15.39-8.13 38.82-8.13 54.21 0 94.24 49.79 146.6 77.44 157.07 82.97 9.28 4.9 14.37 12.2 15.28 19.73h.15v417.07c-.21 8.22-5.34 16.38-15.43 21.71l-157.07 82.97c-15.39 8.13-38.82 8.13-54.21 0l-157.07-82.97c-10.04-5.31-14.86-13.53-15.1-21.71-.02-.84-.02-1.53 0-2.1V113.61c-.02-.58-.02-1.16 0-1.73v-1.08h.07c.7-7.61 5.56-14.72 15.03-19.73C219.14 46.82 271.5 19.16 292.44 8.1zm54.21 413.44c-15.39 8.13-38.82 8.13-54.21 0l-147.45-77.88v183.39c88.47 46.48 137.62 72.31 147.45 77.47 8.71 4.66 17.77 9.2 26.6 9.39.05 0 .45.01.51.01 8.8.03 17.35-4.44 26.02-8.67l148.85-78.87v-182.9c-88.66 46.84-137.92 72.86-147.77 78.06zM100.27 552.68c3.05 6.14 7.64 10.82 16.01 16.53.05.03.43.29.48.32 1.84 1.24 3.86 2.54 6.32 4.06.2.12 1.17.71 2.91 1.78l8.92 5.39-12.8 21.16-9.98-6.04c-1.01-.61-1.57-.96-1.68-1.03-2.89-1.78-5.28-3.31-7.51-4.82C79.08 573.95 70.18 556.4 70 519.91v-1.11h24.72c1.24 17.66 3.09 28.95 5.55 33.88zM307.18 231.7c-1.14.39-2.21.84-3.19 1.36-94.25 49.78-146.61 77.44-157.08 82.97-.16.09-.32.18-.47.26l-.13.08.24.14.36.19 157.08 82.98c.98.51 2.05.97 3.19 1.36V231.7zm24.73 169.34c1.14-.39 2.21-.85 3.19-1.36 94.25-49.79 146.61-77.44 157.08-82.98.16-.08.32-.17.47-.25l.13-.08-.24-.14-.36-.2c-94.25-49.78-146.61-77.44-157.08-82.97-.98-.52-2.05-.97-3.19-1.36v169.34zm21.61-186.22l140.9 74.44V140.39l-140.9 74.43zm-208.53 74.26l140.58-74.26-140.58-74.26v148.52zM335.1 29.97c-8.17-4.32-22.94-4.32-31.11 0-94.25 49.78-146.61 77.44-157.08 82.97-.16.09-.32.17-.47.26l-.13.08.24.14.36.19c94.25 49.79 146.61 77.44 157.08 82.97 8.17 4.32 22.94 4.32 31.11 0 94.25-49.78 146.61-77.44 157.08-82.97.16-.09.32-.17.47-.26l.13-.07-.24-.15-.36-.19C408.4 68.69 356.05 41.03 335.1 29.97zM527.62 45.1c1.01.62 1.57.96 1.68 1.03 2.89 1.78 5.28 3.31 7.51 4.82 23.86 16.09 32.76 33.63 32.94 70.12v1.11h-24.72c0-15.98-1.86-26.49-5.55-33.88-3.05-6.14-7.64-10.82-16.01-16.53-.05-.03-.43-.29-.48-.32-1.84-1.24-3.86-2.54-6.32-4.06-.2-.12-1.17-.71-2.91-1.78l-8.92-5.39 12.8-21.15 9.98 6.03z" id="a"/></defs><use xlink:href="#a" fill="#fbfbfb"/><use xlink:href="#a" fill-opacity="0" stroke="#000" stroke-opacity="0"/></svg>