<svg xmlns="http://www.w3.org/2000/svg" width="226.8" height="226.8"><path d="M13.051 113.727a101.257 101.675 0 001.707 18.518l-12.581 2.358a112.29 112.753 0 005.72 20.164l11.93-4.657a100.187 100.6 0 008.271 16.623l-10.87 6.783a113.568 114.036 0 0012.602 16.706l9.449-8.666a101.195 101.613 0 0013.69 12.525l-7.715 10.253a113.164 113.63 0 0017.747 11.044l5.707-11.506a99.881 100.294 0 0017.261 6.704l-3.485 12.377a112.706 113.171 0 0020.526 3.814l1.16-12.797a101.88 102.13 0 0018.527-.008l1.173 12.797a112.7 113.166 0 0020.523-3.837l-3.502-12.364a99.888 100.3 0 0017.251-6.72l5.717 11.498a113.169 113.635 0 0017.734-11.056l-7.722-10.247a101.197 101.615 0 0013.682-12.537l9.457 8.66a113.566 114.035 0 0012.587-16.72l-10.874-6.774a100.202 100.615 0 008.26-16.635l11.933 4.642a112.29 112.753 0 005.702-20.17l-12.559-2.345a101.28 101.697 0 001.712-18.518v-.183l12.777-.022a113.74 114.21 0 00-1.953-20.862l-12.584 2.369a99.835 100.247 0 00-5.091-17.865l11.924-4.665a112.726 113.191 0 00-9.348-18.745l-10.862 6.794a100.997 101.413 0 00-11.193-14.813l9.44-8.675a113.794 114.263 0 00-15.44-14.1l-7.706 10.26a100.607 101.023 0 00-15.75-9.776l5.695-11.511a112.36 112.824 0 00-19.488-7.545l-3.479 12.368a100.24 100.653 0 00-18.2-3.369l1.152-12.8q-5.076-.455-10.276-.463-5.354 0-10.584.492l1.185 12.797a100.225 100.638 0 00-18.193 3.418L82.285 4.38a112.364 112.827 0 00-19.46 7.604l5.727 11.493a100.626 101.042 0 00-15.719 9.818l-7.732-10.24a113.798 114.266 0 00-15.405 14.138l9.465 8.653a100.987 101.404 0 00-11.154 14.845l-10.882-6.765a112.708 113.174 0 00-9.302 18.772l11.939 4.632a99.828 100.24 0 00-5.038 17.879L2.14 92.877a113.77 114.24 0 00-1.888 20.76v.102zm111.779 79.581l-.679-4.783a74.818 75.127 0 0020.567-6.063l2.004 4.394a79.626 79.955 0 01-21.895 6.447zm68.717-79.677a80.263 80.595 0 01-3.224 22.677l-4.619-1.363a75.44 75.752 0 003.032-21.312v-.125l4.812-.013v.13zm-12.785-43.615a79.768 80.098 0 019.52 20.816l-4.616 1.364a74.958 75.266 0 00-8.946-19.564zm-3.974 84.512l4.047 2.613a80.503 80.835 0 01-14.94 17.308l-3.15-3.646a75.694 76.007 0 0014.043-16.275zM146.594 40.356a80.174 80.505 0 0119.2 12.373l-3.15 3.655a75.364 75.674 0 00-18.046-11.629zm-12.132 53.43h11.212l14.583 21.596V93.786h11.427v39.08h-11.372l-14.537-21.478v21.478h-11.313zm-21.073-60.635a81.131 81.466 0 0111.301.794l-.673 4.786a76.328 76.643 0 00-21.448.027l-.684-4.784a81.13 81.464 0 0111.504-.823zM90.226 93.786h11.992v23.81c0 2.13.598 3.791 1.774 4.988 1.175 1.199 2.81 1.797 4.897 1.797 2.068 0 3.715-.59 4.891-1.769 1.178-1.18 1.788-2.851 1.788-5.014V93.786h11.992v23.256a19.516 19.597 0 01-1.099 6.532 14.082 14.14 0 01-3.381 5.374q-2.293 2.302-4.82 3.234-3.5 1.303-8.409 1.304a52.965 53.184 0 01-6.192-.398q-3.355-.4-5.61-1.584-2.254-1.184-4.123-3.366c-1.245-1.455-2.114-2.954-2.574-4.497-.742-2.483-1.131-4.682-1.131-6.598V93.786zm12.473 94.746l-.68 4.785a79.634 79.963 0 01-21.898-6.435l1.999-4.397a74.822 75.131 0 0020.579 6.047zM80 40.445l2.007 4.393A75.372 75.683 0 0063.99 56.512l-3.157-3.648A80.18 80.512 0 0180 40.445zM55.153 93.786h29.642v8.407H67.259v6.817h15.045v7.838H67.26v16.018H55.153zm8.938 77.057l-3.151 3.653A80.502 80.833 0 0145.986 157.2l4.044-2.619a75.689 76 0 0014.06 16.262zM45.911 70.19l4.05 2.614a74.947 75.256 0 00-8.896 19.587l-4.625-1.362a79.762 80.09 0 019.468-20.844zm-7.859 43.511a75.432 75.743 0 003.048 21.31l-4.617 1.364a80.242 80.575 0 01-3.244-22.67z"/></svg>