<svg xmlns="http://www.w3.org/2000/svg" width="100" height="100"><path d="M40.618 11.048c-6.328 1.59-15.334 6.92-19.706 11.663-2.245 2.436-5.507 7.436-7.247 11.109-2.866 6.049-3.165 7.582-3.165 16.232 0 9.015.21 9.976 3.735 17.108 4.498 9.102 10.288 14.771 19.585 19.175C39.861 89.197 41.409 89.5 50 89.5s10.139-.303 16.18-3.165c9.297-4.404 15.087-10.073 19.585-19.175C89.294 60.02 89.5 59.075 89.5 50s-.206-10.02-3.735-17.16c-6.757-13.673-18.762-21.696-33.516-22.398-4.262-.203-9.496.07-11.631.606m-2.294 3.335c-6.03 1.967-10.395 4.916-15.751 10.643C15.167 32.943 13.5 37.531 13.5 50c0 9.427.281 11.072 2.746 16.091 3.302 6.724 5.463 8.828 10.151 9.886 6.699 1.511 13.1-4.285 15.06-13.634.647-3.091.554-3.189-4.447-4.655-6.305-1.849-11.268-5.161-13.57-9.059-1.695-2.869-1.69-2.939.155-2.223 7.793 3.024 19.51 2.659 26.232-.816 6.843-3.539 11.156-11.394 11.167-20.34.007-5.313 1.372-5.412 3.986-.29 3.633 7.122 2.713 18.692-2.492 31.341-.65 1.58-.389 1.703 2.136 1 1.582-.441 5.004-.798 7.605-.794 6.37.009 9.208 2.753 9.245 8.938.032 5.449.914 4.722 3.638-3.003 1.686-4.78 2.013-7.604 1.675-14.442-.524-10.56-2.83-16.051-9.872-23.496-7.573-8.007-14.026-10.859-25.359-11.206-5.668-.173-10.618.233-13.232 1.085m2.218 3.337c-8.345 2.16-12.445 14.31-6.898 20.44 1.563 1.726 1.61 2.122.335 2.854-.813.467-2.379 1.584-3.479 2.482-1.879 1.535-1.511 1.606 6.082 1.175 13.327-.757 19.585-5.329 19.585-14.311 0-4.799-1.865-8.49-5.431-10.748-2.681-1.698-7.494-2.591-10.194-1.892M69.5 66.239c-1.65.594-7.682 4.033-13.404 7.641-7.135 4.5-12.476 7.084-17 8.225L32.5 83.768l5.432 1.616C40.919 86.273 46.639 87 50.644 87c9.711 0 16.781-2.708 23.787-9.111 5.184-4.738 5.388-5.11 4.38-8-.59-1.695-2.133-3.441-3.499-3.96-1.343-.511-2.525-.893-2.627-.85-.102.043-1.535.565-3.185 1.16" fill-rule="evenodd"/></svg>