<svg width="26" height="27" xmlns="http://www.w3.org/2000/svg"><g fill="none" fill-rule="evenodd"><path d="M25.89 13.864c0 7.144-5.792 12.936-12.936 12.936S.02 21.008.02 13.864 5.81.93 12.954.93 25.89 6.72 25.89 13.864" fill="#476081"/><path d="M18.193 16.735v3.598a.31.31 0 01-.088.226.305.305 0 01-.226.088H8.507a.305.305 0 01-.226-.088.305.305 0 01-.088-.226v-1.47c0-.085.031-.159.093-.22a.301.301 0 01.22-.094h.952v-3.755h-.931a.31.31 0 01-.314-.314v-1.284c0-.091.03-.167.088-.225a.305.305 0 01.226-.089h.93v-2.186c0-1.118.404-2.04 1.212-2.765.807-.725 1.835-1.088 3.083-1.088 1.21 0 2.304.409 3.284 1.226a.29.29 0 01.098.2.303.303 0 01-.068.221l-1.01 1.245a.3.3 0 01-.216.118.263.263 0 01-.225-.069 2.154 2.154 0 00-.255-.186c-.137-.091-.363-.196-.677-.314a2.59 2.59 0 00-.911-.176c-.556 0-1.004.153-1.344.46-.34.308-.51.71-.51 1.207v2.107h2.99a.31.31 0 01.315.314v1.284a.301.301 0 01-.094.221.301.301 0 01-.22.093h-2.99v3.716h4.058v-1.775a.31.31 0 01.314-.313h1.588a.31.31 0 01.314.314z" fill="#FFF" fill-rule="nonzero"/></g></svg>