<svg width="90" height="90" xmlns="http://www.w3.org/2000/svg"><g fill="none" fill-rule="evenodd"><path fill="#FFF" d="M14.774 43.875l10.184-1.228 6.565 5.275 9.078 8.496 5.856 7.032 1.033 8.148-1.033 4.36 6.09-1.514 6.491-8.776V55.54l2.225-4.51L74.12 37.84l3.869-17.929v-6.744l-1.602-1.41-17.35 3.328-10.464 5.592-6.944 8.937-5.604 3.045-5.29-1.034-8.884 2.53-3.574 3.686z"/><path fill="#05C0A5" d="M25.934 59.272h4.916l.993 5.196-2.357 4.038-7.602 1.264v-5.302z"/><path d="M81.704 12.058c-.157-1.563-1.329-2.735-2.891-2.891-19.769-1.563-33.912 8.048-42.74 20.081-4.845-1.563-10.08-1.016-14.847 1.64-4.61 2.58-8.438 6.955-10.939 12.268-.547 1.25-.312 2.657.703 3.595.938.937 2.423 1.093 3.595.468 5-2.656 10.626-2.11 13.986 1.25l13.752 13.753c3.438 3.438 3.985 9.063 1.328 14.064-.625 1.172-.39 2.657.47 3.594a3.13 3.13 0 002.265.938c.469 0 .938-.078 1.328-.313 5.314-2.5 9.69-6.407 12.268-10.939 2.735-4.766 3.281-10.001 1.64-14.924 3.517-2.578 6.72-5.391 9.377-8.517 8.282-9.454 11.877-20.94 10.705-34.067zm-61.181 27.27c3.36-3.282 7.58-5.314 12.033-4.532-1.25 2.188-2.266 4.375-3.204 6.563-2.656-1.484-5.704-2.188-8.829-2.031zm31.176 31.098c.078-3.204-.625-6.251-2.031-8.908 2.266-.937 4.454-2.031 6.563-3.203.782 4.453-1.172 8.751-4.532 12.11zm-6.25-13.987L34.43 45.422c5.548-14.767 19.3-30.551 41.256-30.16.703 26.175-20.862 37.505-30.239 41.177zm20.237-31.176a5.153 5.153 0 011.484 3.594 5.153 5.153 0 01-1.484 3.595 5.153 5.153 0 01-3.595 1.484c-1.328 0-2.656-.469-3.594-1.484-.937-1.016-1.484-2.266-1.484-3.595 0-1.328.547-2.656 1.484-3.594a5.153 5.153 0 013.594-1.484c1.329 0 2.657.546 3.595 1.484zM17.944 69.957a3.135 3.135 0 003.126 3.125h.078c1.64 0 8.517-.234 12.033-3.75 2.188-2.188 2.657-4.454 2.657-5.938 0-2.11-.86-4.142-2.5-5.783-3.907-3.984-8.83-2.734-11.643.157-3.594 3.594-3.75 10.783-3.75 12.189zm10.861-5.079c-.78.782-2.5 1.328-4.297 1.563.312-1.797.86-3.516 1.563-4.22.547-.546 1.015-.859 1.562-.859.391 0 .86.234 1.329.703.469.47.703.938.703 1.329-.078.468-.469 1.093-.86 1.484z" fill="#003945" fill-rule="nonzero"/></g></svg>