<svg width="159" height="47" fill="none" xmlns="http://www.w3.org/2000/svg"><path fill-rule="evenodd" clip-rule="evenodd" d="M152.75 47H5.875C2.644 47 0 44.356 0 41.125V5.875C0 2.644 2.644 0 5.875 0H152.75c3.231 0 5.875 2.644 5.875 5.875v35.25c0 3.231-2.644 5.875-5.875 5.875z" fill="#313131"/><path d="M54.963 12.178v-.884h-2.925v.986h1.694l-.005.147c-.019.971-.751 1.626-1.826 1.626-1.255 0-2.04-.987-2.04-2.588 0-1.582.77-2.564 2.001-2.564.904 0 1.533.445 1.787 1.245h1.255c-.224-1.44-1.416-2.368-3.042-2.368-2.007 0-3.29 1.44-3.29 3.697 0 2.285 1.269 3.7 3.31 3.7 1.88 0 3.08-1.166 3.08-2.997zm6.325 1.733h-3.3v-1.973h3.12v-1.025h-3.12v-1.87h3.3V7.954h-4.56V15h4.56v-1.089zM66.163 15V9.043h2.173V7.954h-5.6v1.089h2.168V15h1.26zm8.017 0V7.954h-1.26V15h1.26zm5.051 0V9.043h2.173V7.954h-5.6v1.089h2.168V15h1.26zm9.795-7.222c-2.046 0-3.335 1.421-3.335 3.697 0 2.275 1.27 3.7 3.335 3.7 2.055 0 3.33-1.43 3.33-3.7 0-2.276-1.28-3.697-3.33-3.697zm0 1.118c1.25 0 2.046 1.001 2.046 2.579 0 1.572-.791 2.583-2.046 2.583-1.27 0-2.046-1.011-2.046-2.583 0-1.578.796-2.579 2.046-2.579zM95.317 15v-4.795h.083L98.857 15h1.089V7.954h-1.211v4.79h-.083l-3.457-4.79H94.1V15h1.216z" fill="#fff"/><path fill-rule="evenodd" clip-rule="evenodd" d="M125.65 37.25h2.192V22.561h-2.192V37.25zm19.748-9.398l-2.513 6.369h-.075l-2.609-6.369h-2.362l3.912 8.901-2.23 4.952h2.287l6.028-13.853h-2.438zm-12.434 7.73c-.719 0-1.72-.359-1.72-1.247 0-1.134 1.248-1.569 2.324-1.569.965 0 1.417.208 2.004.491a2.658 2.658 0 01-2.608 2.325zm.265-8.05c-1.588 0-3.232.699-3.912 2.249l1.946.812c.416-.812 1.19-1.078 2.003-1.078 1.134 0 2.287.68 2.306 1.89v.151c-.398-.227-1.247-.566-2.287-.566-2.097 0-4.234 1.152-4.234 3.306 0 1.966 1.721 3.233 3.648 3.233 1.474 0 2.286-.662 2.797-1.438h.076v1.134h2.116v-5.63c0-2.609-1.946-4.063-4.459-4.063zm-13.551 2.109h-3.118v-5.035h3.118c1.64 0 2.57 1.357 2.57 2.517 0 1.138-.93 2.518-2.57 2.518zm-.056-7.08h-5.253V37.25h2.191v-5.565h3.062c2.43 0 4.819-1.76 4.819-4.562 0-2.803-2.389-4.562-4.819-4.562zM90.974 35.584c-1.514 0-2.782-1.268-2.782-3.01 0-1.76 1.268-3.047 2.782-3.047 1.496 0 2.669 1.288 2.669 3.048 0 1.741-1.173 3.009-2.669 3.009zm2.517-6.91h-.075c-.492-.585-1.438-1.115-2.63-1.115-2.5 0-4.79 2.194-4.79 5.016 0 2.8 2.29 4.978 4.79 4.978 1.192 0 2.138-.53 2.63-1.136h.075v.72c0 1.912-1.02 2.934-2.668 2.934-1.344 0-2.177-.966-2.518-1.78l-1.912.796c.549 1.325 2.007 2.952 4.43 2.952 2.574 0 4.752-1.514 4.752-5.205v-8.973H93.49v.814zm3.598 8.576h2.196V22.56H97.09v14.69zm5.432-4.846c-.056-1.93 1.496-2.915 2.612-2.915.872 0 1.61.435 1.855 1.06l-4.467 1.855zm6.815-1.666c-.416-1.116-1.685-3.18-4.278-3.18-2.574 0-4.713 2.025-4.713 4.998 0 2.801 2.12 4.997 4.959 4.997 2.291 0 3.616-1.4 4.165-2.215l-1.704-1.136c-.567.833-1.344 1.382-2.461 1.382-1.117 0-1.912-.511-2.423-1.514l6.682-2.763-.227-.569zm-53.237-1.646v2.12h5.073c-.152 1.192-.549 2.063-1.154 2.67-.74.737-1.894 1.55-3.919 1.55-3.123 0-5.566-2.517-5.566-5.64 0-3.124 2.443-5.64 5.566-5.64 1.685 0 2.915.662 3.824 1.514l1.495-1.496c-1.269-1.212-2.952-2.14-5.319-2.14-4.278 0-7.875 3.484-7.875 7.762 0 4.279 3.597 7.761 7.875 7.761 2.31 0 4.05-.756 5.413-2.177 1.401-1.4 1.837-3.369 1.837-4.96 0-.492-.038-.946-.114-1.324h-7.136zm13.018 6.492c-1.514 0-2.821-1.25-2.821-3.028 0-1.799 1.306-3.03 2.821-3.03 1.513 0 2.82 1.231 2.82 3.03 0 1.779-1.307 3.028-2.82 3.028zm0-8.025c-2.765 0-5.017 2.1-5.017 4.997 0 2.876 2.252 4.997 5.017 4.997 2.764 0 5.016-2.12 5.016-4.997 0-2.896-2.252-4.997-5.016-4.997zm10.943 8.025c-1.515 0-2.821-1.25-2.821-3.028 0-1.799 1.306-3.03 2.82-3.03 1.515 0 2.82 1.231 2.82 3.03 0 1.779-1.305 3.028-2.82 3.028zm0-8.025c-2.764 0-5.016 2.1-5.016 4.997 0 2.876 2.252 4.997 5.016 4.997 2.763 0 5.016-2.12 5.016-4.997 0-2.896-2.253-4.997-5.016-4.997zM12.261 8.868c-.342.362-.543.922-.543 1.65v25.965c0 .727.201 1.287.543 1.65l.087.084 14.545-14.545v-.344L12.348 8.783l-.087.085z" fill="#fff"/><mask id="a" maskUnits="userSpaceOnUse" x="26" y="18" width="13" height="11"><path d="M31.74 28.522l-4.847-4.85v-.344l4.85-4.849 5.854 3.326c1.64.932 1.64 2.458 0 3.39l-5.745 3.264-.112.063z" fill="#7B7F7E" fill-opacity=".6"/></mask><g mask="url(#a)"><path fill-rule="evenodd" clip-rule="evenodd" d="M31.74 28.522l-4.847-4.85v-.344l4.85-4.849 5.854 3.326c1.64.932 1.64 2.458 0 3.39l-5.745 3.264-.112.063z" fill="#fff" fill-opacity=".6"/></g><mask id="b" maskUnits="userSpaceOnUse" x="12" y="23" width="20" height="16"><path d="M31.852 28.459L26.893 23.5 12.261 38.132c.542.573 1.435.643 2.44.072l17.15-9.745z" fill="#7B7F7E" fill-opacity=".7"/></mask><g mask="url(#b)"><path fill-rule="evenodd" clip-rule="evenodd" d="M31.852 28.459L26.893 23.5 12.261 38.132c.542.573 1.435.643 2.44.072l17.15-9.745z" fill="#fff" fill-opacity=".7"/></g><mask id="c" maskUnits="userSpaceOnUse" x="12" y="8" width="20" height="16"><path d="M31.852 18.542l-17.15-9.746c-1.006-.57-1.9-.5-2.44.072L26.892 23.5l4.959-4.958z" fill="#7B7F7E" fill-opacity=".8"/></mask><g mask="url(#c)"><path fill-rule="evenodd" clip-rule="evenodd" d="M31.852 18.542l-17.15-9.746c-1.006-.57-1.9-.5-2.44.072L26.892 23.5l4.959-4.958z" fill="#fff" fill-opacity=".8"/></g></svg>