<svg xmlns="http://www.w3.org/2000/svg" width="226.777" height="226.777"><path d="M215.33 97.578h-97.026v6.954h97.819c-.198-2.329-.443-4.655-.793-6.954z"/><path d="M223.802 87.603v.101H118.303v5.552h100.68l.313 1.795a109.383 109.383 0 011.558 18.363c0 50.049-35.403 94.266-84.177 105.139l-2.193.485-8.921-48.513 1.958-.494c15.059-3.818 27.95-13.52 35.857-26.849h-45.074v6.864h14.744a41.287 41.287 0 01-19.559 4.896c-22.891 0-41.453-18.559-41.453-41.454s18.562-41.454 41.453-41.454a41.298 41.298 0 0123.618 7.375h84.451C207.092 33.483 164.179.199 113.489.199 50.926.202.202 50.914.202 113.49c0 62.567 50.724 113.287 113.287 113.287 62.563 0 113.288-50.72 113.288-113.287 0-8.907-1.029-17.579-2.975-25.887zM99.573 6.545c4.469-.563 9.031-.849 13.559-.849 43.954 0 83.104 26.285 99.742 66.964l1.215 2.98h-56.415l-.643-.735a58.434 58.434 0 00-47.934-19.744l-1.891.131-9.949-48.456 2.316-.291zm22.892 214.191c-3.063.261-6.199.396-9.329.4-47.576 0-90.103-31.862-103.418-77.49l-.6-2.049 54.214-16.47c-.891-3.769-1.41-7.679-1.41-11.713 0-21.47 13.3-39.867 32.078-47.461L82.774 14.545c-43.123 13.22-73.04 53.547-73.04 98.869 0 4.156.252 8.337.741 12.464l39.943-11.983v-.481c0-20.66 10.25-39.908 27.057-51.555-.211-.591-.376-1.207-.376-1.874a5.502 5.502 0 015.502-5.502 5.501 5.501 0 015.503 5.502 5.502 5.502 0 01-7.659 5.064C64.488 75.851 54.74 93.97 54.74 113.414c0 .667.009 1.333.034 1.996l.06 1.671L6.89 131.466l-.354-2.481a109.102 109.102 0 01-1.123-15.57C5.413 65.4 37.65 22.764 83.805 9.739l2.203-.62 12.089 55.349a51.01 51.01 0 0115.035-2.261c5.847 0 11.527 1.008 16.953 2.915 1-1.194 2.448-1.996 4.131-1.996a5.468 5.468 0 015.47 5.468 5.468 5.468 0 01-5.47 5.47c-2.227 0-4.122-1.341-4.979-3.25-5.135-1.941-10.527-2.988-16.105-2.988-25.141 0-45.589 20.448-45.589 45.589 0 25.14 20.448 45.593 45.589 45.593 6.367 0 12.642-1.411 18.422-3.958.667-2.267 2.675-3.955 5.161-3.955 3.021 0 5.469 2.447 5.469 5.469s-2.447 5.469-5.469 5.469c-1.435 0-2.722-.582-3.692-1.486-5.367 2.259-11.099 3.558-16.937 3.899l8.682 56.092-2.303.198z"/><path d="M64.479 129.296l-6.887 2.094c5.815 17.984 20.021 32.074 37.994 37.724.945-1.663 2.666-2.836 4.717-2.836a5.503 5.503 0 010 11.005c-2.439 0-4.439-1.612-5.161-3.807-19.727-5.895-35.363-21.204-41.68-40.833l-38.977 11.84c13.439 42.698 53.699 72.333 98.646 72.333 2.228-.004 4.455-.076 6.653-.215l-8.055-52.045c-22.076-.603-40.693-15.208-47.25-35.26zm62.448-2.26a2.705 2.705 0 000 5.409 2.705 2.705 0 000-5.409zm-13.795-76.333c17.719 0 34.6 7.502 46.491 20.616h47.976c-16.625-37.351-53.355-61.302-94.467-61.302-3.566 0-7.157.186-10.697.548l8.253 40.183c.81-.029 1.625-.045 2.444-.045z"/><path d="M168.965 142.011c-7.935 15.446-21.861 26.902-38.433 31.679l7.385 40.133c39.622-9.759 69.606-42.55 76.882-81.922h-81.675c-.903 2.572-3.326 4.435-6.197 4.435-3.634 0-6.592-2.959-6.592-6.597s2.958-6.594 6.592-6.594c2.871 0 5.294 1.86 6.197 4.435h82.328c.358-2.563.636-5.136.802-7.744h-71.1c-.899 2.575-3.326 4.436-6.199 4.436-3.633 0-6.591-2.958-6.591-6.596 0-3.637 2.958-6.596 6.591-6.596 2.873 0 5.3 1.862 6.199 4.437h71.289c.014-.706.089-1.394.089-2.102 0-1.52-.105-3.039-.173-4.562h-98.056v30.01h52.272l-1.61 3.148z"/><circle cx="138.955" cy="117.676" r="2.705"/><path d="M117.123 104.531c-.903-2.574-3.326-4.435-6.199-4.435-3.632 0-6.591 2.958-6.591 6.597 0 3.635 2.958 6.594 6.591 6.594 2.873 0 5.295-1.86 6.199-4.435h1.181v-4.321h-1.181zm-6.199 4.865a2.703 2.703 0 01-2.701-2.703 2.703 2.703 0 012.701-2.706 2.704 2.704 0 010 5.409zm6.739 29.466c-.903-2.574-3.324-4.434-6.198-4.434-3.633 0-6.592 2.958-6.592 6.595s2.958 6.595 6.592 6.595c2.874 0 5.295-1.861 6.198-4.435h.641v-4.321h-.641zm-6.198 4.866a2.705 2.705 0 010-5.41c1.489 0 2.699 1.212 2.699 2.705s-1.21 2.705-2.699 2.705zm-7.161-50.472c-.899-2.573-3.325-4.434-6.195-4.434-3.638 0-6.59 2.958-6.59 6.595 0 3.638 2.953 6.595 6.59 6.595 2.871 0 5.296-1.859 6.195-4.434h14v-4.322h-14zm-6.195 4.866a2.7 2.7 0 01-2.699-2.705 2.7 2.7 0 012.699-2.705 2.707 2.707 0 012.701 2.705 2.708 2.708 0 01-2.701 2.705z"/></svg>