<svg xmlns="http://www.w3.org/2000/svg" width="100" height="100"><path d="M44.713 18.319c-2.551 4.026-4.877 7.963-5.17 8.75-.344.924 1.414 2.781 4.962 5.241L50 36.12l5.495-3.81c3.548-2.46 5.306-4.317 4.962-5.241C59.541 24.609 50.685 11 50 11c-.358 0-2.737 3.294-5.287 7.319M31.566 38.896c-6.708 10.466-8.685 14.86-9.28 20.62-1.132 10.968 5.201 22.32 15.337 27.491 3.93 2.005 6.333 2.484 12.377 2.467 11.459-.031 19.51-4.889 24.818-14.974 2.163-4.109 2.632-6.336 2.634-12.5.002-8.256-.79-10.277-9-22.967l-4.505-6.966-6.66 4.467C53.625 38.99 50.29 41 49.877 41c-.413 0-3.707-2.024-7.321-4.498l-6.571-4.499-4.419 6.893" fill-rule="evenodd"/></svg>