<svg xmlns="http://www.w3.org/2000/svg" width="100" height="100"><path d="M54.027 11.737C47.354 14.092 39.654 22.25 37.422 29.33c-1.165 3.695-2.333 5.678-3.355 5.692-2.869.04-10.524 4.05-13.906 7.285-8.942 8.551-11.32 22.191-5.669 32.526C19.913 84.746 27.771 89.442 39 89.477c6.572.02 8.178-.361 12.975-3.082 6.678-3.788 10.727-8.606 13.085-15.571 1.637-4.837 2.15-5.39 6.297-6.795 11.94-4.044 19.664-14.452 19.621-26.439-.068-18.875-19.065-32.166-36.951-25.853m4.218 5.203C51.257 18.678 43 27.214 43 32.7V35h20.5c20.346 0 20.5-.016 20.5-2.162 0-3.769-4.826-10.653-9.277-13.233-4.761-2.76-11.63-3.871-16.478-2.665M30.491 42.865C24.731 45.482 18 53.672 18 58.065c0 .514 4.05.935 9 .935h9v-9c0-4.95-.337-8.99-.75-8.978-.413.012-2.554.841-4.759 1.843M42 50v9h18V41H42v9m25-.094v8.907l3.75-1.144c4.816-1.468 11.451-8.103 12.919-12.919L84.813 41H67v8.906M18 66.54c0 2.352 3.523 8.703 6.153 11.093 8.804 8.001 22.679 7.638 30.549-.799C56.847 74.535 60 68.105 60 66.032 60 65.355 52.769 65 39 65c-18.241 0-21 .202-21 1.54" fill-rule="evenodd"/></svg>