<svg xmlns="http://www.w3.org/2000/svg" width="100" height="100"><path d="M15.11 11.396c-4.88 2.704-5.037 3.889-5.075 38.404-.038 35.054.179 36.609 5.437 39.005 4.114 1.875 65.708 1.67 69.383-.23C89.776 86.03 90 84.352 90 50c0-34.352-.224-36.03-5.145-38.575-3.883-2.008-66.128-2.034-69.745-.029M27 50v30h6.852l.324-14.431c.287-12.778.564-14.753 2.416-17.25 7.578-10.213 21.655-9.867 27.854.684 1.744 2.968 2.106 5.575 2.4 17.247L67.192 80h6.987l-.356-15.25c-.31-13.236-.639-15.778-2.492-19.25C67.033 37.451 60.561 33.663 51 33.601c-6.391-.042-8.878.805-14.75 5.026L34 40.244V20h-7v30" fill-rule="evenodd"/></svg>