<svg width="12" height="16" xmlns="http://www.w3.org/2000/svg"><g fill="none"><path d="M2 1h8c-.085 1.748-.258 2.893-.518 3.437C8.62 6.243 7.273 6.919 7.273 8c0 1.025 1.434 1.863 2.21 3.539.274.594.447 1.747.517 3.461H2c.063-1.798.24-3.027.531-3.688C3.191 9.816 4.734 8.948 4.734 8c0-.99-1.485-1.671-2.203-3.257C2.247 4.116 2.071 2.868 2 1z" fill="#FFF"/><path d="M2.4 4.335l2.494 3.268A2.04 2.04 0 0 0 6 7.928c.393 0 .788-.108 1.188-.325l2.56-3.268H2.4zM6 12l3 3H3z" fill="#05C0A5"/><circle fill="#05C0A5" cx="6" cy="10.3" r="1"/><path d="M11.457 14.902h-.93v-1.686c0-1.706-.926-3.274-2.607-4.416-.21-.142-.34-.448-.34-.8 0-.352.13-.658.34-.8 1.68-1.142 2.607-2.71 2.607-4.416V1.098h.93c.3 0 .543-.246.543-.549A.546.546 0 0 0 11.457 0H.543C.243 0 0 .246 0 .549c0 .303.243.549.543.549h.93v1.686c0 1.706.926 3.274 2.607 4.416.21.142.34.448.34.8 0 .352-.13.658-.34.8-1.68 1.142-2.607 2.71-2.607 4.416v1.686h-.93c-.3 0-.543.246-.543.549 0 .303.243.549.543.549h10.914c.3 0 .543-.246.543-.549a.546.546 0 0 0-.543-.549zM2.56 13.216c0-1.793 1.332-2.965 2.127-3.504.513-.349.82-.989.82-1.712s-.307-1.363-.82-1.712C3.89 5.75 2.559 4.577 2.559 2.784V1.098h6.882v1.686c0 1.793-1.332 2.965-2.127 3.504-.513.349-.82.989-.82 1.712s.307 1.363.82 1.712c.795.539 2.127 1.711 2.127 3.504v1.686H2.559v-1.686z" fill="#0B2840"/></g></svg>