<svg xmlns="http://www.w3.org/2000/svg" width="100" height="100"><path d="M31 20.878c0 .482.675 1.437 1.5 2.122.825.685 1.5 2.518 1.5 4.075 0 2.766-.137 2.836-6.133 3.127l-6.132.298-5.939 10.183-5.938 10.183 5.956 10.317L21.769 71.5l5.616.3 5.615.3v-4.144c0-3.319-.403-4.249-2.024-4.673-1.113-.291-3.591-3.203-5.507-6.471l-3.482-5.942 3.318-5.685 3.318-5.685 7.438-.094c4.092-.052 5.301.085 2.689.305L34 40.11v17.863C34 76.594 33.702 79 31.393 79c-.766 0-1.393.675-1.393 1.5 0 1.22 1.648 1.5 8.833 1.5 4.859 0 9.126-.293 9.484-.65.358-.358-.467-1.687-1.833-2.953C45.118 77.131 44 75.174 44 74.048 44 72.059 44.525 72 62.287 72h18.287l3.738-6.5c2.057-3.575 4.177-6.5 4.713-6.5.536 0 .975-.675.975-1.5 0-1.19-1.444-1.5-7-1.5-5.988 0-7.005.253-7.032 1.75C75.92 60.407 73.535 63 71.14 63 69.025 63 69 62.769 69 43c0-12.667.367-20 1-20 .55 0 1-.675 1-1.5 0-1.2-1.5-1.5-7.5-1.5-5.863 0-7.5.314-7.5 1.441 0 .793.45 1.719 1 2.059.55.34 1 1.941 1 3.559V30h-7c-6.645 0-7-.117-7-2.309 0-1.27.661-3.182 1.468-4.25.808-1.067 1.483-2.278 1.5-2.691C46.986 20.337 43.4 20 39 20s-8 .395-8 .878M70 34.5c0 3.896.28 4.5 2.087 4.5 1.4 0 2.459.987 3.219 3 1.105 2.927 1.297 3 7.913 3C87.073 45 90 44.568 90 44c0-.55-.428-1-.951-1-.523 0-2.587-2.925-4.586-6.5L80.828 30H70v4.5m-25.81 8.25l.31 3.75 6.75.296 6.75.295V39H43.879l.311 3.75M44 59v4h14v-8H44v4m14 16.465c0 1.441-.83 2.909-2 3.535-4.018 2.15-1.893 3 7.5 3s11.518-.85 7.5-3c-1.17-.626-2-2.094-2-3.535C69 73.144 68.679 73 63.5 73s-5.5.144-5.5 2.465" fill-rule="evenodd"/></svg>