<svg width="90" height="90" xmlns="http://www.w3.org/2000/svg"><g fill="none" fill-rule="evenodd"><g transform="translate(18.679 6)" fill="#05C0A5"><circle cx="3.414" cy="3.414" r="3.414"/><circle cx="12.191" cy="8.29" r="3.414"/><circle cx="20.969" cy="13.167" r="3.414"/></g><path fill="#FFF" d="M37.018 23.096l14.698 8.63v17.567l-14.698-8.298zm33.264 0l-14.698 8.85v18.117l14.698-8.672z"/><g fill-rule="nonzero"><path fill="#00FFB0" d="M53.34 30.873l9.452-5.497 8.873-5.161L53.34 9.566l-8.874 5.161-9.452 5.488z"/><path d="M74.145 20.132a1.952 1.952 0 00-.063-.473c-.018-.065-.053-.123-.077-.186-.037-.096-.068-.194-.118-.283-.035-.061-.086-.111-.128-.168-.059-.08-.11-.164-.18-.234-.05-.05-.114-.086-.169-.131-.075-.061-.144-.129-.23-.179l-.012-.005c-.004-.001-.006-.004-.01-.006L54.611 7.94a1.946 1.946 0 00-1.923 0l-8.977 5.1-.003.001-9.567 5.425-.01.007-.011.005c-.083.048-.15.115-.223.174-.058.046-.123.083-.174.135-.072.072-.126.157-.185.24-.04.055-.09.104-.123.162-.056.096-.09.203-.128.307-.02.055-.052.106-.067.162-.04.147-.057.3-.06.456-.003.018-.01.036-.01.055v22.032c0 .706.379 1.357.991 1.705L52.69 54.432c.1.056.206.089.311.126.05.019.099.048.151.062a1.913 1.913 0 00.998 0c.052-.013.1-.042.151-.06.106-.038.212-.071.312-.127L73.16 43.907a1.96 1.96 0 00.991-1.705V20.17c0-.013-.005-.025-.005-.038zm-37.09 3.398l14.643 8.318V49.37l-14.643-8.31V23.53zm33.19 17.53l-14.642 8.31V31.847l14.643-8.318v17.53z" stroke="#003945" fill="#003945"/><path fill="#05C0A5" d="M54.03 27.004l14.045-7.724-14.098-7.956-13.993 8.035z"/></g><path fill="#FFF" d="M9.868 38.481l14.698 8.63v17.567L9.868 56.38zm33.264 0l-14.698 8.85v18.118l14.698-8.673z"/><g fill-rule="nonzero"><path fill="#00FFB0" d="M26.19 46.258l9.452-5.497 8.873-5.161L26.19 24.952l-8.873 5.16L7.864 35.6z"/><path d="M46.995 35.517a1.952 1.952 0 00-.063-.473c-.018-.065-.053-.123-.077-.186-.038-.096-.068-.193-.119-.283-.035-.061-.085-.111-.127-.168-.059-.08-.11-.164-.181-.234-.05-.05-.113-.086-.168-.131-.075-.061-.144-.129-.23-.178l-.012-.005-.01-.007-18.547-10.526a1.946 1.946 0 00-1.924 0l-8.977 5.1h-.002L6.99 33.851l-.01.008-.012.005c-.083.048-.149.114-.222.173-.058.046-.123.083-.174.135-.072.072-.126.158-.185.24-.04.055-.09.104-.123.162-.056.096-.09.203-.128.307-.02.055-.052.106-.068.162-.04.147-.056.3-.06.456-.002.018-.009.036-.009.056v22.031c0 .706.379 1.357.99 1.705l18.548 10.526c.1.056.206.09.312.126.05.019.098.048.151.062a1.913 1.913 0 00.998 0c.052-.013.1-.042.151-.06.106-.038.212-.071.312-.127l18.547-10.526A1.96 1.96 0 0047 57.587V35.556c0-.014-.005-.026-.005-.039zm-37.09 3.398l14.643 8.318v17.522l-14.643-8.31v-17.53zm33.19 17.53l-14.643 8.31V47.233l14.643-8.318v17.53z" stroke="#003945" fill="#003945"/><path fill="#05C0A5" d="M26.879 42.39l14.046-7.725-14.098-7.956-13.994 8.035z"/></g><path fill="#FFF" d="M37.018 53.867l14.698 8.63v17.566l-14.698-8.298zm33.264 0l-14.698 8.85v18.117l14.698-8.673z"/><g fill-rule="nonzero"><path fill="#00FFB0" d="M53.34 61.643l9.452-5.497 8.873-5.16-18.325-10.65-8.874 5.161-9.452 5.488z"/><path d="M74.145 50.903a1.952 1.952 0 00-.063-.473c-.018-.066-.053-.124-.077-.186-.037-.096-.068-.194-.118-.283-.035-.062-.086-.112-.128-.169-.059-.08-.11-.163-.18-.234-.05-.05-.114-.086-.169-.131-.075-.06-.144-.128-.23-.178l-.012-.005-.01-.007L54.611 38.71a1.946 1.946 0 00-1.923 0l-8.977 5.1h-.003l-9.567 5.425-.01.008-.011.005c-.083.048-.15.114-.223.173-.058.046-.123.083-.174.135-.072.073-.126.158-.185.24-.04.055-.09.104-.123.163-.056.096-.09.202-.128.306-.02.055-.052.106-.067.163-.04.146-.057.3-.06.455-.003.019-.01.036-.01.056V72.97c0 .706.379 1.357.991 1.705L52.69 85.202c.1.056.206.09.311.126.05.019.099.048.151.062a1.913 1.913 0 00.998.001c.052-.014.1-.043.151-.062.106-.037.212-.07.312-.126L73.16 74.677a1.96 1.96 0 00.991-1.705V50.941c0-.014-.005-.026-.005-.038zM37.055 54.3l14.643 8.318V80.14l-14.643-8.31V54.3zm33.19 17.53l-14.642 8.31V62.618L70.246 54.3v17.53z" stroke="#003945" fill="#003945"/><path fill="#05C0A5" d="M54.03 57.774l14.045-7.724-14.098-7.956-13.993 8.036z"/></g><g transform="translate(60.617 64.519)" fill="#05C0A5"><circle cx="3.414" cy="3.414" r="3.414"/><circle cx="12.191" cy="8.29" r="3.414"/><circle cx="20.969" cy="13.167" r="3.414"/></g></g></svg>