<svg width="90" height="90" xmlns="http://www.w3.org/2000/svg"><g fill="none" fill-rule="evenodd"><path d="M70.92 21.421c4.456 0 8.08 3.64 8.08 8.114s-3.624 8.113-8.08 8.113H26.102l6.408 6.435a2.93 2.93 0 010 4.131 2.893 2.893 0 01-2.057.856 2.894 2.894 0 01-2.057-.856L11.852 31.6a2.93 2.93 0 010-4.13l5.156-5.178.028-.029 11.36-11.407a2.9 2.9 0 014.114 0 2.93 2.93 0 010 4.13l-6.408 6.435H70.92z" fill="#003945" fill-rule="nonzero"/><path d="M70.92 31.806H20.286l-2.262-2.271 2.261-2.271h50.637a2.269 2.269 0 012.261 2.27 2.269 2.269 0 01-2.261 2.272z" fill="#05C0A5"/><path d="M78.148 58.4L61.604 41.786a2.9 2.9 0 00-4.114 0 2.93 2.93 0 000 4.131l6.408 6.434H19.079c-4.455 0-8.079 3.64-8.079 8.114s3.624 8.114 8.08 8.114h44.818l-6.408 6.434a2.93 2.93 0 000 4.131 2.897 2.897 0 004.114 0l11.36-11.407 5.184-5.206a2.93 2.93 0 000-4.131zm-8.432 4.336H19.079a2.269 2.269 0 01-2.261-2.271 2.269 2.269 0 012.261-2.271h50.637l2.261 2.271-2.261 2.271z" fill="#003945" fill-rule="nonzero"/></g></svg>