<svg xmlns="http://www.w3.org/2000/svg" width="100" height="100"><path d="M76.455 12.455C71.494 17.415 75.009 26 82 26c4.111 0 8-3.889 8-8 0-4.111-3.889-8-8-8-1.948 0-3.998.907-5.545 2.455M40 19.668c-8.602 3.006-14.273 8.17-19.066 17.363-3.557 6.823-3.403 18.4.352 26.419l2.787 5.951 4.497-4.498 4.498-4.497-1.646-3.938c-6.167-14.761 9.719-30.614 25.258-25.205l4.18 1.455 4.128-4.206 4.128-4.206-2.359-1.546C59.676 18.121 48.218 16.796 40 19.668m31.182 15.647l-4.235 4.314 1.527 3.654C69.313 45.292 70 48.437 70 50.272c0 5.05-4.633 13.457-9.014 16.356-4.879 3.229-13.124 4.177-18.131 2.085l-3.631-1.517-4.251 4.332-4.252 4.332 3.306 2.01c7.815 4.753 20.917 5.272 29.402 1.165 15.574-7.54 22.59-26.841 15.37-42.285C77.32 33.587 75.954 31 75.764 31c-.191 0-2.253 1.942-4.582 4.315m-58.727 41.14C7.494 81.415 11.009 90 18 90c4.111 0 8-3.889 8-8 0-4.111-3.889-8-8-8-1.948 0-3.998.907-5.545 2.455" fill-rule="evenodd"/></svg>