<svg xmlns="http://www.w3.org/2000/svg" width="100" height="100"><path d="M43.704 13.227c-.738 1.8-3.759 9.513-6.714 17.14l-5.372 13.866 3.441 6.443c4.024 7.534 5.274 8.864 6.66 7.086.973-1.247 17.944-30.28 20.101-34.387 1.017-1.936.52-2.52-5.602-6.586-11.154-7.407-10.96-7.352-12.514-3.562m15.02 17.927C55.725 36.295 47.079 51.3 39.512 64.5c-7.567 13.2-13.954 24.338-14.194 24.75-.24.412 4.047.75 9.527.75h9.963l14.596-24.904C67.432 51.399 74 39.646 74 38.977c0-.668-1.653-3.974-3.674-7.346-6.613-11.037-5.467-10.99-11.602-.477m-4.55 44.454c-4.029 6.916-7.153 12.747-6.942 12.958.211.211 5.891-2.797 12.622-6.684 8.353-4.824 11.971-7.434 11.398-8.224-3.312-4.564-8.503-10.655-9.069-10.641-.376.01-3.98 5.676-8.009 12.591" fill-rule="evenodd"/></svg>