<svg xmlns="http://www.w3.org/2000/svg" width="100" height="100"><path d="M32.25 20.202L15 30.232v39.532l17.577 10.111 17.576 10.112 17.174-9.917L84.5 70.153V29.85L68 20.307c-9.075-5.249-16.95-9.676-17.5-9.839-.55-.163-8.763 4.217-18.25 9.734m6 10.135C31.512 34.23 26 37.668 26 37.977c0 .309 2.73 2.062 6.067 3.897 3.558 1.956 5.871 3.846 5.593 4.57-.592 1.541 4.954 4.989 5.807 3.61.385-.624 1.53-.557 3.155.184 2.189.997 2.334 1.321 1.022 2.28-1.306.955-1.093 1.376 1.46 2.884 2.195 1.297 3.335 1.478 4.293.683.964-.8 2.385-.495 5.446 1.166 2.277 1.237 4.144 2.497 4.149 2.801.004.303-2.804 2.043-6.242 3.866l-6.25 3.314-12.343-7.116C31.369 56.202 25.406 53 24.907 53c-.499 0-.902 1.462-.896 3.25.01 3.122.537 3.55 13.414 10.885l13.404 7.635 12.695-7.303 12.695-7.304-3.859-2.431c-2.123-1.337-5.354-3.202-7.181-4.144-2.46-1.269-3.053-2.035-2.288-2.957 1.382-1.665-3.845-4.896-5.882-3.636-2.132 1.317-5.454-.754-4.007-2.498 1.725-2.078-3.127-5.036-5.861-3.572-1.529.818-2.709.659-5.061-.679-1.687-.96-3.07-1.978-3.074-2.262C38.997 37.24 49.608 31 50.881 31c.587 0 4.758 2.184 9.269 4.853 8.026 4.749 8.261 4.818 11.019 3.25 1.55-.882 2.821-1.845 2.825-2.14C74 36.437 66.957 32.249 56 26.264l-5.5-3.005-12.25 7.078" fill-rule="evenodd"/></svg>