<svg xmlns="http://www.w3.org/2000/svg" width="226.8" height="226.8"><path d="M113.4 0C50.8 0 0 50.8 0 113.4s50.8 113.4 113.4 113.4S226.8 176 226.8 113.4 176 0 113.4 0zm45.392 73.794a8.182 8.182 0 116.063 9.856 8.18 8.18 0 01-6.063-9.856zm-1.182 19.698a6.617 6.617 0 1112.873 3.067 6.617 6.617 0 01-12.873-3.067zm-8.061 33.826a4.26 4.26 0 111.975-8.29 4.26 4.26 0 01-1.975 8.29zm2.656 16.69a3.144 3.144 0 11-5.673-2.71 3.144 3.144 0 015.673 2.71zm-7.632-44.797a7.131 7.131 0 110-14.263 7.131 7.131 0 010 14.263zm10.253 36.541a3.599 3.599 0 116.495 3.102 3.599 3.599 0 01-6.495-3.102zm1.631-19.045a6.11 6.11 0 112.833-11.89 6.111 6.111 0 01-2.833 11.89zm-9.134-36.439a7.721 7.721 0 110-15.442 7.721 7.721 0 010 15.442zm-2.16-39.948a9.548 9.548 0 110 19.097 9.548 9.548 0 010-19.097zm-5.561 62.862a4.972 4.972 0 11-.001 9.943 4.972 4.972 0 01.001-9.943zm-7.667 21.163a4.342 4.342 0 110-8.684 4.342 4.342 0 010 8.684zm4.057 13.177a3.452 3.452 0 11-6.717-1.6 3.452 3.452 0 016.717 1.6zm-13.047-13.177a4.03 4.03 0 110 8.058 4.03 4.03 0 010-8.058zm-4.753-39.361a3.722 3.722 0 11-2.125-7.133 3.722 3.722 0 012.125 7.133zm7.642 17.823a4.029 4.029 0 11-4.028-6.978 4.029 4.029 0 014.028 6.978zm-.616-19.363a3.452 3.452 0 111.972 6.617 3.452 3.452 0 01-1.972-6.617zm4.077-11.041a2.915 2.915 0 11.455 5.815 2.915 2.915 0 11-.455-5.815zm-6.567-6.242a3.144 3.144 0 11.49 6.269 3.144 3.144 0 01-.49-6.269zm-9.022-5.318a3.598 3.598 0 11.563 7.175 3.598 3.598 0 01-.563-7.175zm2.129 32.704a4.342 4.342 0 11-7.521 4.342 4.342 4.342 0 017.521-4.342zm-32.331 32.659a3.72 3.72 0 115.407 5.115 3.72 3.72 0 01-5.407-5.115zm.277-10.343a3.453 3.453 0 115.017 4.747 3.453 3.453 0 01-5.017-4.747zm2.195 21.724a4.26 4.26 0 116.19 5.856 4.26 4.26 0 01-6.19-5.856zm14.488-38.279a4.971 4.971 0 11-4.971-8.61 4.971 4.971 0 014.971 8.61zm1.388 16.725a4.029 4.029 0 11-6.978-4.028 4.029 4.029 0 016.978 4.028zm-10.141 32.842a6.111 6.111 0 118.88 8.398 6.111 6.111 0 01-8.88-8.398zm7.235-19.125a4.341 4.341 0 114.34-7.52 4.341 4.341 0 01-4.34 7.52zm4.296 6.319a4.972 4.972 0 118.611 4.972 4.972 4.972 0 01-8.611-4.972zm6.361-59.263a4.26 4.26 0 11-8.164 2.434 4.26 4.26 0 018.164-2.434zm-7.9-20.202a5.162 5.162 0 11.806 10.294 5.162 5.162 0 11-.806-10.294zm-4.744 19.525a6.112 6.112 0 11-11.714 3.49 6.112 6.112 0 0111.714-3.49zm-9.542-20.832a5.59 5.59 0 11.873 11.145 5.59 5.59 0 01-.873-11.145zm.332 39.872a7.13 7.13 0 11-12.351 7.131 7.13 7.13 0 1112.351-7.131zm-15.433 27.565a2.916 2.916 0 114.806-3.302 2.916 2.916 0 01-4.806 3.302zm2.248 9.62a3.142 3.142 0 11-3.558-5.18 3.142 3.142 0 013.558 5.18zm6.165-53.847a6.617 6.617 0 11-12.682 3.78 6.617 6.617 0 0112.682-3.78zm-9.661-21.688a6.913 6.913 0 111.079 13.783 6.913 6.913 0 01-1.079-13.783zM53.954 79.881a8.183 8.183 0 114.674 15.684 8.183 8.183 0 01-4.674-15.684zm-4.457 47.717c-4.567 2.637-10.406 1.072-13.043-3.495-2.637-4.567-1.072-10.406 3.495-13.043 4.567-2.637 10.406-1.072 13.043 3.495 2.636 4.567 1.071 10.406-3.495 13.043zm17.646-14.792a7.72 7.72 0 112.826-10.547 7.72 7.72 0 01-2.826 10.547zm2.956 29.208a3.599 3.599 0 115.933-4.074 3.599 3.599 0 01-5.933 4.074zm2.331 12.515a5.163 5.163 0 118.512-5.845 5.163 5.163 0 01-8.512 5.845zm6.011 13.025a5.59 5.59 0 119.217-6.328 5.59 5.59 0 01-9.217 6.328zm19.104 15.184a6.912 6.912 0 11-7.826-11.396 6.912 6.912 0 017.826 11.396zm13.955-11.904a6.617 6.617 0 11-9.615-9.093 6.617 6.617 0 019.615 9.093zm1.305-23.503a7.13 7.13 0 1112.351 7.131 7.13 7.13 0 01-12.351-7.131zm15.224 36.589a8.183 8.183 0 11-11.889-11.246 8.183 8.183 0 0111.889 11.246zm13.179-17.015a7.72 7.72 0 11-13.373-7.72 7.72 7.72 0 0113.373 7.72zm2.308-20.331a2.916 2.916 0 11-5.264-2.513 2.916 2.916 0 015.264 2.513zm1.895-14.182a3.72 3.72 0 11-7.24-1.725 3.72 3.72 0 017.24 1.725zm18.1 44.895c-2.637 4.567-8.476 6.131-13.043 3.495-4.567-2.637-6.131-8.476-3.495-13.043 2.637-4.567 8.476-6.131 13.043-3.495 4.567 2.637 6.131 8.476 3.495 13.043zm7.483-46.71a5.162 5.162 0 11-9.317-4.449 5.162 5.162 0 119.317 4.449zm8.275-11.718a5.59 5.59 0 11-10.09-4.817 5.59 5.59 0 0110.09 4.817zm6.857-14.92a6.912 6.912 0 11-12.475-5.957 6.912 6.912 0 0112.475 5.957z"/></svg>