<svg xmlns="http://www.w3.org/2000/svg" width="100" height="100"><path d="M49 11.5c0 .825.45 1.5 1 1.5s1-.675 1-1.5-.45-1.5-1-1.5-1 .675-1 1.5m-13.636 6.993c-.346.903-.15 2.121.436 2.707 1.524 1.524 4.41.131 4.012-1.935-.443-2.302-3.647-2.858-4.448-.772m26.303-.826C60.202 19.132 61.045 22 62.941 22c2.553 0 3.535-1.721 2.023-3.544-1.321-1.591-2.269-1.818-3.297-.789m-40.07 4.177c-.346.56-.142 1.319.453 1.687 1.538.95 2.53-.351 1.246-1.635-.718-.718-1.277-.735-1.699-.052m54.872.206c-.95 1.538.351 2.53 1.635 1.246.718-.718.735-1.277.052-1.699-.56-.346-1.319-.142-1.687.453m-29.226 1.107c-2.899 2.899-.307 7.273 3.952 6.67C53.1 29.557 53.5 28.893 53.5 26c0-2.991-.364-3.543-2.507-3.793-1.379-.161-3.066.266-3.75.95m-16.197 7.288c-.66.795-1.052 2.482-.873 3.75.265 1.87 1.035 2.364 4.077 2.615l3.75.311V62h-2.878c-3.448 0-5.395 2.044-4.949 5.195.27 1.905.934 2.305 3.827 2.305 3.313 0 3.516-.198 3.807-3.693.288-3.469.531-3.712 3.995-4 3.19-.265 3.757-.699 4.194-3.2 1.045-5.996 6.963-5.996 8.008 0 .438 2.511.999 2.934 4.25 3.203 3.318.275 3.748.618 3.761 3 .023 3.969 1.326 5.393 4.594 5.02 2.35-.268 2.953-.871 3.221-3.221.375-3.282-1.052-4.571-5.08-4.594C62.211 62.001 62 61.693 62 58c0-3.569-.262-4-2.429-4C56.942 54 54 51.651 54 49.551c0-1.797 2.018-3.293 5-3.705 2.087-.289 2.583-1.006 3-4.346.461-3.685.776-4.039 4-4.5 3.084-.441 3.537-.882 3.811-3.716.265-2.738-.071-3.311-2.263-3.861C64.209 28.585 62 30.456 62 34.122 62 36.749 61.692 37 58.469 37c-3.552 0-3.819.281-4.877 5.14C52.458 47.345 46 46.437 46 41.072 46 38.056 44.552 37 40.418 37 38.436 37 38 36.495 38 34.2c0-4.69-4.266-6.994-6.954-3.755m-13.682 6.048c-.346.903-.15 2.121.436 2.707 1.524 1.524 4.41.131 4.012-1.935-.443-2.302-3.647-2.858-4.448-.772m61 0c-.346.903-.15 2.121.436 2.707 1.524 1.524 4.41.131 4.012-1.935-.443-2.302-3.647-2.858-4.448-.772M23.046 47.445c-.66.795-1.052 2.482-.873 3.75.27 1.905.934 2.305 3.827 2.305s3.557-.4 3.827-2.305c.619-4.369-4.101-6.979-6.781-3.75M71.2 47.2c-2.86 2.86-.228 7.225 3.995 6.627 1.702-.241 2.391-1.084 2.635-3.218.467-4.09-3.77-6.269-6.63-3.409m-61.008 2.875c.197.591.786 1.075 1.308 1.075s1.111-.484 1.308-1.075C13.005 49.484 12.417 49 11.5 49s-1.505.484-1.308 1.075M87 50c0 .55.675 1 1.5 1s1.5-.45 1.5-1-.675-1-1.5-1-1.5.45-1.5 1M17.556 60.91c-.965 1.561.616 4.203 2.32 3.879.893-.17 1.768-1.317 1.944-2.549.24-1.683-.181-2.24-1.691-2.24-1.106 0-2.264.409-2.573.91m61 0c-.965 1.561.616 4.203 2.32 3.879.893-.17 1.768-1.317 1.944-2.549.24-1.683-.181-2.24-1.691-2.24-1.106 0-2.264.409-2.573.91M47.011 71.487c-.721.869-.966 2.557-.588 4.061.55 2.192 1.123 2.528 3.861 2.263 2.482-.24 3.291-.837 3.543-2.616.624-4.402-4.105-6.974-6.816-3.708m-25.468 5.444c-.683 1.105.894 2.299 1.818 1.375.95-.951.773-2.306-.302-2.306-.518 0-1.2.419-1.516.931m54.607.019c.43 1.289 1.801 1.521 1.925.325.041-.399-.465-.905-1.125-1.125-.66-.22-1.02.14-.8.8m-40.786 2.543c-.346.903-.15 2.121.436 2.707 1.524 1.524 4.41.131 4.012-1.935-.443-2.302-3.647-2.858-4.448-.772m26.303-.826C60.202 80.132 61.045 83 62.941 83c2.553 0 3.535-1.721 2.023-3.544-1.321-1.591-2.269-1.818-3.297-.789M49 88.5c0 .825.45 1.5 1 1.5s1-.675 1-1.5-.45-1.5-1-1.5-1 .675-1 1.5" fill-rule="evenodd"/></svg>