<svg xmlns="http://www.w3.org/2000/svg" width="226.8" height="226.8"><path d="M195.309 37.615l-5.776-5.777c-17.77-7.438-35.536-14.89-53.312-22.316l-14.66-6.136-4.06-1.682-4.101-1.7-4.102 1.7-4.059 1.682L90.58 9.523c-17.776 7.426-35.543 14.878-53.312 22.316l-5.777 5.777L0 113.399l31.491 75.784 5.777 5.777c25.373 10.621 50.725 21.299 76.133 31.836 25.408-10.537 50.759-21.215 76.132-31.836l5.776-5.777 31.491-75.784-31.491-75.784zm-34.436 123.257L113.4 180.537l-47.473-19.664L46.263 113.4l19.664-47.472L113.4 46.262l47.472 19.665 19.665 47.472-19.664 47.473z"/><path d="M113.4 65.927L79.832 79.832 65.927 113.4l13.905 33.567 33.568 13.906 33.568-13.906 13.905-33.567-13.905-33.568z"/></svg>