<svg xmlns="http://www.w3.org/2000/svg" width="100" height="100"><path d="M50.032 28.004c-1.847 8.252-3.092 15.269-2.768 15.593.755.756 27-13.888 27.481-15.333C75.154 27.039 56.709 13 54.692 13c-.862 0-2.436 5.065-4.66 15.004M35.5 21.173c-4.95 3.878-9.331 7.563-9.735 8.189-.404.626-.734 9.688-.734 20.138 0 10.45.33 19.485.734 20.078C26.961 71.333 44.881 85 45.986 85c1.561 0 1.277-2.27-2.434-19.481l-3.446-15.981 3.447-16.36C45.449 24.181 47 16.185 47 15.409c0-2.567-2.407-1.36-11.5 5.764M61.286 41.83C54.018 46.049 48.06 49.725 48.047 50c-.056 1.121 27.417 16.036 28.66 15.559 2.09-.802 1.407-30.959-.707-31.216-.825-.1-7.446 3.269-14.714 7.487m-14.29 15.42c-.003.688 1.422 7.662 3.166 15.5C52.3 82.356 53.767 87 54.664 87c2.033 0 20.494-14.027 20.083-15.26-.345-1.034-25.438-15.63-26.997-15.704-.413-.02-.752.527-.754 1.214" fill-rule="evenodd"/></svg>