<svg width="78" height="50" xmlns="http://www.w3.org/2000/svg"><g fill="none" fill-rule="evenodd"><circle fill="#05C0A5" cx="25" cy="25" r="25"/><path d="M37.1 35.09l-9.442-22.913a2.537 2.537 0 00-2.375-1.76h-.83a2.537 2.537 0 00-2.366 1.76l-4.107 9.985h-3.115a1.706 1.706 0 00-1.688 1.697v.018a1.706 1.706 0 001.688 1.697h1.67l-3.918 9.516a2.013 2.013 0 00-.117.65c-.018.468.147.924.46 1.273.329.336.786.514 1.255.487a1.7 1.7 0 00.975-.325c.295-.221.526-.517.668-.858l4.325-10.743h2.988a1.706 1.706 0 001.697-1.697v-.045a1.706 1.706 0 00-1.697-1.697h-1.598l3.295-8.234 8.983 22.416c.142.34.373.637.668.858a1.7 1.7 0 00.975.325c.472.03.933-.149 1.264-.487a1.8 1.8 0 00.451-1.273 1.535 1.535 0 00-.108-.65z" fill="#FFF" fill-rule="nonzero"/><circle fill="#CDF4EE" cx="52.083" cy="25" r="25"/><path d="M54.09 31.947l-8.679 8.678-2.474-2.664 6.014-6.014-6.243-6.243 2.665-2.664 8.717 8.907zm5.062-4.987l2.665-2.664-6.243-6.242 6.014-6.015-2.474-2.664-8.717 8.679 8.755 8.906zm-12.675-4.948l8.754 8.907 2.665-2.664L49.14 19.5l-2.664 2.512z" fill="#5A78F0" fill-rule="nonzero"/></g></svg>