<svg width="571" height="571" xmlns="http://www.w3.org/2000/svg"><g fill="none"><circle fill="#FFF" cx="285.38" cy="285.38" r="204.92"/><path d="M0 285.38c0 157.61 127.77 285.37 285.38 285.37s285.37-127.76 285.37-285.37S442.99 0 285.38 0 0 127.77 0 285.38zm285.38 179.33c-96.47 0-179.18-78.21-179.18-174.68 0-22.65 4.31-48.8 12.15-68.66l77 32.79c-.25 1.07-.57 2.47-.92 4.07a94.33 94.33 0 00-4 23.12 34.69 34.69 0 00-.17 4.68c0 .36.05.71.07 1.07a94.56 94.56 0 00116.11 90.91l43.76 74.3a174.203 174.203 0 01-64.76 12.4m165.29-108.37l-195.4-82.79 125.31-.55c-4.48-45.46-51.2-82.36-95.26-82.36a89.82 89.82 0 00-29.37 4.9l-43.37-73.68a174.053 174.053 0 0172.72-15.81c96.47 0 178.91 79.65 178.91 176.12 0 26-3.36 52-13.56 74.17" fill="#1896A4"/></g></svg>