<svg xmlns="http://www.w3.org/2000/svg" width="100" height="100"><path d="M40.08 23.343C21.487 48.418 13.926 59.279 14.291 60.391c.2.61 8.333 7.562 18.075 15.448l17.711 14.339 4.711-3.797c22.854-18.416 31.277-25.77 30.834-26.925-.486-1.266-17.889-25.653-29.8-41.758l-5.771-7.802-9.971 13.447m-3.864 24.495C32.247 53.314 29 58.04 29 58.34 29 59.173 43.071 70 44.154 70c1.051 0 .981-27.331-.079-30.309-.505-1.421-2.194.331-7.859 8.147M56 53.8c0 8.91.249 16.2.553 16.2C57.334 70 71 58.887 71 58.252c0-.465-12.127-17.31-14.183-19.702-.449-.522-.817 6.34-.817 15.25" fill-rule="evenodd"/></svg>