<svg xmlns="http://www.w3.org/2000/svg" style="isolation:isolate" viewBox="1861 667.651 227 227" width="227" height="227"><path d="M1953.581 893.8c-.166.167-.501.335-.668.502h-18.543c-.334 0-.501-.167-.669-.335l-54.659-61.744a1.077 1.077 0 010-.991l68.076-117.503c.335-.49 1.16-.49 1.494 0l19.044 32.951c.167.168.167.502 0 .837l-46.045 79.39c-.168.322 0 .657.167.992l27.49 30.955c.185.177.418.294.67.335h32.46c.837 0 1.16.836.658 1.326l-29.475 33.285zm20.193-225.996c.346-.67 1.17-.67 1.338 0l94.898 163.081c.167.347 0 .681-.167 1.004l-54.648 61.744a1.254 1.254 0 01-.669.334h-44.385c-.836 0-1.16-.836-.657-1.326l29.641-33.62 27.826-31.29c.334-.334.334-.669.167-.991l-52.677-90.872-19.868-34.289c-.167-.155-.167-.49 0-.836l19.2-32.941.001.002z"/></svg>