<svg xmlns="http://www.w3.org/2000/svg" style="isolation:isolate" viewBox="2242 667.301 227 227" width="227" height="227"><circle cx="2355.5" cy="780.801" r="113.5"/><path d="M2343.079 844.347c-.1.1-.298.198-.397.298h-11.01c-.199 0-.298-.1-.397-.199l-32.454-36.66a.64.64 0 010-.59l40.419-69.765c.199-.291.688-.291.887 0l11.307 19.564c.1.1.1.298 0 .497l-27.339 47.138c-.1.191 0 .39.1.589l16.322 18.38c.11.105.248.174.397.198h19.274c.497 0 .688.497.39.788l-17.5 19.763v-.001m11.988-134.186c.206-.397.695-.397.795 0l56.345 96.83c.1.206 0 .404-.099.596l-32.447 36.66a.736.736 0 01-.397.2h-26.353c-.497 0-.688-.497-.39-.788l17.6-19.962 16.52-18.579c.2-.198.2-.397.1-.588l-31.276-53.955-11.797-20.36c-.1-.092-.1-.29 0-.496l11.4-19.558" fill-rule="evenodd" fill="#fff"/></svg>