<svg xmlns="http://www.w3.org/2000/svg" width="100" height="100"><path d="M33.5 19.345c-8.8 5.107-16 9.884-16 10.617 0 .732 6.16 4.896 13.689 9.253 11.698 6.769 13.988 7.76 15.75 6.818 3.156-1.689 2.886-8.596-.439-11.212-4.635-3.645-2.251-10.843 3.579-10.806 2.981.019 4.287.849 5.771 3.67 1.479 2.808.011 6.907-2.793 7.797-1.67.53-2.057 1.49-2.057 5.107 0 3.649.407 4.639 2.25 5.478 1.924.875 4.278-.143 16.25-7.029 7.7-4.429 14.135-8.453 14.299-8.942.262-.778-28.899-18.113-32.819-19.51-.814-.29-8.68 3.652-17.48 8.759M15.653 33.681c-.359.359-.648 9.015-.643 19.236l.01 18.583 15.643 9c8.604 4.95 16.25 9.145 16.99 9.323C48.74 90.084 49 87.046 49 74.109c0-14.876-.141-16.114-1.949-17.082C44.547 55.687 38 58.597 38 61.05c0 2.79-3.934 6.95-6.573 6.95-3.366 0-6.622-3.504-6.238-6.712.171-1.424 1.573-3.529 3.116-4.676 2.634-1.957 2.976-1.988 5.583-.491 2.581 1.481 3.042 1.458 6.506-.319 3.077-1.578 3.674-2.375 3.417-4.561-.318-2.71-.359-2.738-21.908-15.022-3.079-1.755-5.891-2.897-6.25-2.538m54.441 7.333c-10.716 6.245-13.457 8.288-13.658 10.18-.193 1.81.608 2.851 3.406 4.423 3.376 1.898 3.863 1.938 6.315.517 5.679-3.291 11.941 3.569 8.042 8.811-1.045 1.405-2.893 2.702-4.107 2.882-3.197.474-7.092-2.419-7.092-5.268 0-3.52-6.227-7.232-9.574-5.707C51.01 57.953 51 58.022 51 73.42c0 9.148.405 15.712.992 16.075.546.337 8.196-3.525 17-8.583L85 71.715V52.917c0-10.34-.338-19.005-.75-19.257-.412-.253-6.783 3.057-14.156 7.354" fill-rule="evenodd"/></svg>