<svg xmlns="http://www.w3.org/2000/svg" height="1192.778" width="1192.676"><path d="M560.808 1191.775c-81.052-5.053-157.389-25.405-229-61.051-88.242-43.925-161.08-105.586-218.979-185.376-130.294-179.558-149.266-418.81-48.966-617.5 86.79-171.925 251.83-291.905 441.445-320.919 122.516-18.746 247.355.766 357.376 55.857 144.78 72.496 254.383 200.931 302.575 354.562 24.652 78.587 32.787 161.397 23.97 244-8.997 84.288-37.71 169.624-81.437 242.026-84.171 139.371-220.06 238.087-377.708 274.384-53.002 12.203-115.442 17.374-169.276 14.017zm20.5-28.927c1.412-3.133 2.367-4.015 4.402-4.07 1.429-.04 3.402-.388 4.386-.777 1.593-.629 1.453-1.027-1.282-3.647-3.109-2.979-3.247-4.076-1.357-10.78.454-1.609.088-1.572-3.968.398l-4.468 2.17-3.69-2.28-3.69-2.28.29 4.739c.267 4.326-.001 4.979-3.067 7.48-3.64 2.972-3.42 3.449 2.05 4.434 2.98.537 3.918 1.341 5.402 4.631.988 2.19 2.109 3.982 2.492 3.982s1.508-1.8 2.5-4zm59.335-5.99l4.665-1.183-3.796-3.202c-3.591-3.03-3.76-3.428-3.122-7.413.37-2.317.417-4.212.103-4.212s-2.208.966-4.21 2.147c-3.503 2.067-3.768 2.084-7.18.457-1.949-.93-3.728-1.505-3.954-1.279-.226.226 0 2.239.502 4.473.84 3.741.686 4.28-1.965 6.819-1.583 1.516-2.878 3.123-2.878 3.57 0 .447 1.817.813 4.038.813 3.702 0 4.265.37 6.75 4.428l2.712 4.428 1.835-4.33c1.631-3.851 2.352-4.463 6.5-5.515zm-110.585-.238c1.11-1.124 3.251-1.772 5.853-1.772h4.104l-3.104-3.535c-3.638-4.144-3.455-3.217-1.648-8.34.801-2.268 1.26-4.125 1.02-4.125-.239 0-2.275.736-4.525 1.637-3.939 1.576-4.196 1.557-6.98-.5-1.589-1.176-3.132-2.137-3.43-2.137-.297 0-.54 1.797-.54 3.994 0 3.528-.48 4.34-4.114 6.973l-4.113 2.98 4.603 1.231c3.973 1.063 4.76 1.717 5.745 4.777 1.716 5.33 2.086 5.622 3.801 3 .868-1.326 2.365-3.209 3.328-4.183zm158.582-4.55l4.333-1.444-3.583-2.549c-3.168-2.254-3.582-3.05-3.582-6.889 0-2.387-.268-4.34-.596-4.34-.327 0-1.976.983-3.662 2.184-2.92 2.08-3.27 2.11-7.31.658l-4.241-1.526 1.356 4.506c1.306 4.34 1.26 4.619-1.25 7.591l-2.606 3.087 4.179.309c3.624.267 4.532.842 6.836 4.323l2.657 4.015 1.568-4.241c1.34-3.621 2.202-4.452 5.901-5.684zm-206.082-5.222c2.337 0 4.25-.268 4.25-.596 0-.327-.975-1.964-2.165-3.636-2.088-2.932-2.108-3.197-.548-7.404 1.81-4.885 1.9-4.8-3.444-3.199-3.628 1.087-4.075.987-6.67-1.5-1.53-1.466-3.096-2.665-3.478-2.665-.382 0-.695 1.794-.695 3.986 0 3.56-.44 4.276-4.11 6.706l-4.112 2.72 4.151 2.01c3.535 1.713 4.318 2.672 5.274 6.471l1.123 4.46 3.087-3.676c2.665-3.175 3.667-3.677 7.337-3.677zm252.628.038c.57-3.567 1.031-4.08 4.627-5.158 2.197-.658 3.995-1.505 3.995-1.881 0-.377-1.562-1.526-3.47-2.553-2.891-1.557-3.579-2.586-4.114-6.158-.354-2.359-.905-4.288-1.225-4.288-.32 0-1.806 1.172-3.301 2.605-2.525 2.42-2.982 2.52-6.372 1.4-2.009-.662-3.853-1.004-4.098-.759-.246.246.261 2.14 1.126 4.21 1.526 3.652 1.494 3.884-1.047 7.725l-2.62 3.96 4.532-.68c4.221-.633 4.714-.466 7.15 2.43 1.44 1.71 2.969 3.109 3.4 3.109.43 0 1.068-1.783 1.417-3.962zm-311.003-10.909c2.44-2.546 3.26-2.812 7.28-2.36l4.529.511-1.989-3.897c-1.979-3.88-1.98-3.915-.02-7.735 1.083-2.11 1.824-3.98 1.647-4.156-.177-.175-2.212.028-4.523.451-3.81.698-4.455.504-6.939-2.09-3.028-3.16-4.318-2.455-4.345 2.377-.012 2.236-.854 3.157-4.635 5.08l-4.62 2.347 3.205 1.328c4.612 1.91 6.035 3.7 6.035 7.586 0 4.177.81 4.28 4.375.559zm366.923-9.828l4.202-2.045-3.965-1.667c-4.546-1.911-5.499-3.062-5.52-6.673-.023-3.972-1.107-4.217-4.45-1.008-2.775 2.665-3.46 2.87-7.23 2.168l-4.164-.776 2.027 4.17 2.026 4.17-2.06 4.036-2.058 4.036 4.197-.792c3.919-.74 4.428-.563 7.697 2.668l3.5 3.461.798-4.851c.727-4.416 1.176-5.035 5-6.897zm-417.022-8.88c3.035-2.554 6.11-2.746 11.411-.711 1.287.494 1.36.245.43-1.491-2.978-5.565-3.045-6.861-.545-10.54 1.335-1.966 2.428-3.71 2.428-3.876 0-.167-2.137-.177-4.75-.023-4.401.26-4.934.028-7.25-3.166l-2.5-3.446-1.5 4.588c-1.202 3.677-2.131 4.802-4.678 5.666-4.685 1.588-4.788 2.126-.875 4.545 3.203 1.979 3.553 2.63 3.553 6.614 0 2.43.272 4.418.605 4.418.334 0 1.985-1.16 3.671-2.58zm465.281-10.588c1.894-1.117 3.443-2.365 3.443-2.774 0-.408-1.72-1.258-3.82-1.887-3.348-1.003-4-1.722-5.269-5.808l-1.448-4.664-2.482 3.704c-2.294 3.425-2.801 3.68-6.731 3.393-4.824-.354-5.1.201-2.156 4.335 1.996 2.803 2.02 3.126.5 6.924-.877 2.191-1.594 4.137-1.594 4.325 0 .188 1.982-.113 4.405-.667 4.032-.922 4.688-.785 7.75 1.618l3.345 2.626.307-4.547c.27-3.98.738-4.8 3.75-6.578zm-208.557 3.141c65.922-4.572 128.793-20.951 187.007-48.72 157.955-75.345 267.033-226.071 288.935-399.254 4.548-35.969 5.2-84.353 1.59-118-12.977-120.928-65.89-230.6-151.79-314.614-85.15-83.28-193.323-133.525-311.781-144.82-49.934-4.76-100.732-1.922-152.363 8.513-82.248 16.623-158.657 53.503-225.598 108.887-16.08 13.304-51.73 48.954-65.034 65.034-55.385 66.941-92.264 143.35-108.887 225.598-21.926 108.488-10.102 215.717 34.89 316.402 10.497 23.492 25.192 49.801 41.332 74 71.652 107.424 184.1 185.391 309.397 214.526 26.363 6.13 61.865 11.331 87.302 12.789 13.528.775 51.805.575 65-.34zM279.95 863.85c-9.09-3.27-13.896-7.888-18.429-17.707l-2.213-4.794v-160.25c0-88.137.074-160.25.164-160.25.258 0 253.647 133.898 312.906 165.348 14.104 7.486 21.076 10.652 23.455 10.652 3.76 0 29.705-13.108 288.975-145.99 23.375-11.98 46.218-23.641 50.762-25.913l8.262-4.131-.262 161.267-.262 161.267-2.93 5.288c-3.915 7.066-9.997 12.48-16.939 15.077-5.3 1.983-7.596 2.135-32.218 2.135-23.364 0-26.893-.208-29.713-1.75-2.98-1.63-9.307-1.749-92.2-1.735-82.553.014-89.232.14-92.2 1.75-2.532 1.372-5.708 1.735-15.192 1.735-6.915 0-12.252-.423-12.608-1-.34-.55-1.068-1-1.618-1s-.722.45-.382 1c.411.665-60.064.988-180.691.964-176.46-.035-181.452-.088-186.667-1.963zm306.358-193.892c-4.95-2.663-38.925-20.596-75.5-39.851-185.699-97.764-249.615-131.58-250.778-132.677-.953-.9-1.206-5.152-1-16.798l.277-15.593 87.5 46.231a572916.21 572916.21 0 01166.5 88.01c60.46 31.976 79.821 41.782 82.5 41.785 2.67.003 42.1-19.7 166.5-83.205 89.65-45.765 167.173-85.352 172.273-87.971l9.274-4.762-.274 16.41-.273 16.411-33.5 17.025a78918.328 78918.328 0 00-88 44.83C720.9 611.285 695.6 623.739 687.734 625.8c-20.136 5.276-48.903 19.915-62.964 32.04-4.363 3.763-27.165 17.095-29.045 16.983-.23-.014-4.467-2.204-9.417-4.866zm-61.5-87.955a225888.317 225888.317 0 00-167.75-88.57l-98.25-51.82v-14.489c0-11.889.247-14.394 1.376-13.96.757.29 41.594 21.785 90.75 47.767 241.949 127.886 242.01 127.918 245.65 127.918 2.643 0 17.415-7.091 59.124-28.382a33099.5 33099.5 0 01110.6-56.145c48.233-24.347 113.534-57.81 161.16-82.586 8.338-4.338 15.438-7.887 15.778-7.887.339 0 .492 6.399.34 14.22l-.278 14.218-9 4.636C859.272 485.57 596.73 618.836 595.699 618.8c-.765-.026-32.666-16.585-70.891-36.797zm26-39.255c-120.074-63.415-164.394-86.699-174.5-91.672-6.05-2.977-13.025-6.668-15.5-8.201-2.475-1.534-26.325-14.238-53-28.231-51.105-26.809-56.956-29.299-62.981-26.803-1.705.706-3.756 2.222-4.56 3.368-1.431 2.045-1.46 2.046-1.46.085 0-2.918 2.479-5.986 6.02-7.453 6.072-2.515 11.79-.052 64.273 27.69 27.386 14.475 49.935 26.318 50.108 26.318.173 0 .629-5.063 1.012-11.25 3.753-60.566 25.814-111.966 65.849-153.424 20.629-21.361 41.334-36.618 66.239-48.807 31.734-15.533 61.465-22.948 97-24.194 28.637-1.005 54.703 2.746 82 11.797 61 20.227 111.946 65.007 138.968 122.147 14.762 31.215 22.11 61.312 23.25 95.231l.538 16-8.378 4.273-8.378 4.273-.632-18.773c-.69-20.462-2.377-32.809-6.81-49.828-7.697-29.55-23.264-60.157-42.259-83.085a2150.942 2150.942 0 01-8.027-9.732c-1.644-2.025-1.729-.17-1.75 38.122-.018 32.77.224 40.25 1.303 40.25 2.56 0 5.676 4.673 6.78 10.167.978 4.874.874 6.092-.86 10.013-3.672 8.3-13.046 9.918-19.242 3.323-5.03-5.353-3.316-20.036 2.655-22.757l2.342-1.067v-87.404l-8.75-7.568-8.75-7.567-.256 87.032-.255 87.031 2.626 2.067c7.067 5.558 7.162 19.27.168 24.17-1.252.876-4.288 1.56-6.929 1.56-3.896 0-5.217-.517-7.719-3.018-5.747-5.747-4.836-18.412 1.617-22.482l3.17-2 .032-90 .03-90-9.742-6.351c-26.545-17.305-63.809-30.594-94.492-33.7l-6.75-.682v223.233h59v-176h-24v99.679l2.552 1.163c5.434 2.476 7.522 16.252 3.28 21.644-6.307 8.019-18.003 5.798-20.688-3.927-1.836-6.647 1.393-16.642 5.83-18.05 2.003-.636 2.026-1.28 2.026-56.076v-55.433h36.877l.602 4.25c.33 2.337.47 46.775.311 98.75l-.29 94.5h-72l-.254-117.25-.254-117.25h-22.992v123.679l2.452 1.117c3.43 1.563 5.534 6.188 5.68 12.489.136 5.92-.686 8.034-4.518 11.619-1.894 1.77-3.78 2.429-7.168 2.5-4.09.085-4.978-.318-8.023-3.64-3.137-3.423-3.423-4.258-3.42-10 .005-6.927 2.318-12.097 5.928-13.242 2.062-.655 2.069-.852 2.069-62.09 0-48.49-.264-61.428-1.25-61.412-1.753.028-14.685 1.87-18 2.563l-2.75.576.006 36.17.006 36.171 3.035 1.727c3.692 2.101 5.953 7.149 5.953 13.29 0 8.182-4.528 13.483-11.515 13.483-8.325 0-13.16-6.176-12.19-15.572.61-5.912 2.542-9.468 6.211-11.432l2.494-1.334v-70.89l-4.56.684c-11.413 1.711-38.938 12.472-56.166 21.957l-5.226 2.878 9.928 10.604a3481.29 3481.29 0 0020.443 21.604l10.515 11 .033 84.75.033 84.75h-21c-16.67 0-21 .27-21 1.313 0 2.524-5.677 6.835-9.639 7.32-8.303 1.015-14.128-6.338-12.888-16.269 1.07-8.553 6.633-13.317 13.95-11.944 3.223.604 8.577 5.384 8.577 7.657 0 .53 7.664.923 18 .923h18V302.64l-10.213-10.646a8719.79 8719.79 0 00-21.62-22.436l-11.41-11.79-4.525 2.945-4.526 2.944 20.109 20.845 20.109 20.846.038 59.156.038 59.156-14.25.065c-7.838.036-21.762.078-30.944.094l-16.693.029-1.763 2.984c-4.077 6.902-12.874 7.6-18.274 1.45-2.706-3.082-3.076-4.228-3.076-9.519 0-7.08 1.87-11.28 5.967-13.398 5.826-3.013 11.99-1.399 15.156 3.968l2.074 3.515h54.802V312.04l-20.12-21.097c-11.065-11.603-20.511-21.096-20.99-21.096-2.157 0-30.335 29.441-37.586 39.27-22.409 30.375-36.382 63.79-41.705 99.73-1.846 12.462-2.552 37.453-1.098 38.867.55.536 36.325 19.63 79.5 42.434 43.175 22.803 92.076 48.644 108.67 57.424l30.169 15.964 36.966-18.857c25.452-12.984 37.52-18.644 38.747-18.174 1.397.536.613 1.27-3.636 3.405-2.979 1.497-20.42 10.42-38.758 19.829-18.337 9.41-33.412 17.092-33.5 17.073-.087-.02-20.633-10.85-45.658-24.066zm123.45-16.979c-.831-1.345-1.323-1 8.3-5.815 7.753-3.879 9.246-4.175 7.484-1.482-1.347 2.059-15.093 8.414-15.783 7.297zm260.236-134.425c12.06-6.483 18.636-8.882 22.016-8.034 2.973.747 7.298 4.864 7.298 6.948 0 1.055-.763.738-2.573-1.072-3.87-3.87-10.368-2.998-22.185 2.98-5.091 2.576-10.491 4.676-12 4.668-2.097-.011-.346-1.302 7.444-5.49zm-607.759 702.304c3.675-2.114 3.985-2.137 7.948-.58 2.269.891 4.125 1.488 4.125 1.326 0-.161-.669-2.189-1.486-4.505-1.433-4.061-1.398-4.326 1-7.47 1.367-1.792 2.486-3.554 2.486-3.914 0-.361-1.913-.662-4.25-.668-3.793-.011-4.507-.409-6.637-3.695l-2.387-3.682-1.628 4.444c-1.465 3.998-2.054 4.54-5.863 5.387-2.33.518-4.232 1.193-4.228 1.5.004.307 1.617 1.655 3.585 2.996 3.308 2.252 3.553 2.764 3.236 6.75-.188 2.371-.204 4.312-.034 4.312.17 0 2.03-.99 4.133-2.2zm556.641-4.19c-.624-4.161-.469-4.545 2.976-7.385 3.897-3.212 3.781-3.597-1.416-4.713-2.717-.583-3.67-1.48-4.902-4.617-.841-2.142-1.867-3.894-2.28-3.894-.411 0-1.678 1.575-2.814 3.5-1.817 3.08-2.549 3.5-6.098 3.5-4.273 0-5.03.93-2.48 3.045 3.01 2.499 3.48 4.605 1.977 8.865-.793 2.25-1.294 4.09-1.113 4.09.182 0 2.222-.667 4.534-1.483 4.04-1.425 4.346-1.386 7.858 1 2.01 1.366 3.826 2.483 4.035 2.483.21 0 .085-1.976-.277-4.39zm-595.177-24.09c1.95.815 3.775 1.481 4.058 1.481.282 0 .253-1.912-.063-4.25-.5-3.684-.23-4.573 2.019-6.674 1.427-1.334 2.595-2.745 2.595-3.137 0-.391-1.965-1.007-4.367-1.367-3.892-.583-4.564-1.092-6.18-4.675l-1.813-4.02-2.07 4.311c-1.269 2.644-2.844 4.424-4.07 4.6-1.1.16-3.077.522-4.393.806l-2.393.516 3.28 3.384c2.96 3.055 3.217 3.784 2.627 7.474l-.654 4.09 3.94-2.01c3.628-1.852 4.219-1.893 7.484-.53zm635.827-2.527c4.581 2.793 4.99 2.578 4.27-2.242-.57-3.83-.334-4.536 2.404-7.153 3.382-3.233 3.229-4.597-.517-4.597-3.669 0-5.938-1.53-7.36-4.962-.692-1.67-1.599-3.038-2.015-3.038-.417 0-1.324 1.367-2.016 3.038-1.498 3.616-3.699 4.962-8.115 4.962h-3.262l3.276 3.38c3.06 3.157 3.23 3.689 2.57 8.084l-.706 4.706 4.095-2.09 4.095-2.089zm-678.601-28.906c4.086 2.694 4.574 2.438 4.237-2.219-.262-3.627.106-4.47 3.005-6.89 3.616-3.02 3.438-3.39-2.11-4.391-2.062-.372-3.77-1.219-3.794-1.881-.025-.663-.622-2.555-1.327-4.205l-1.281-3-2.686 4.25c-2.449 3.874-3.05 4.25-6.792 4.25h-4.107l2.76 3.619c2.52 3.303 2.675 3.99 1.782 7.894l-.979 4.276 4.204-1.802c4.078-1.748 4.29-1.745 7.088.1zm721.82-3.113l4.167 1.786-.998-4.87c-.939-4.583-.838-5.037 1.698-7.685 1.483-1.547 2.696-3.126 2.696-3.509 0-.382-2-.695-4.444-.695-4.136 0-4.611-.283-6.883-4.092-2.618-4.39-2.787-4.343-4.602 1.29-1.092 3.389-1.58 3.756-5.845 4.395l-4.654.698 3.787 3.274c3.64 3.146 3.76 3.453 3.1 7.862l-.688 4.587 4.25-2.413c4.213-2.394 4.283-2.4 8.416-.628zm-752.802-40.925l3.547-2.431-4.59-1.339c-2.641-.77-4.592-1.935-4.592-2.743 0-.773-.47-2.639-1.043-4.146l-1.042-2.742-3.105 3.767c-2.771 3.362-3.521 3.728-6.958 3.4-2.119-.202-3.852-.172-3.852.065 0 .238 1.118 1.9 2.486 3.691 2.378 3.119 2.423 3.436 1.044 7.345-1.614 4.574-1.688 4.512 3.524 2.95 3.462-1.037 4.073-.91 7.116 1.479l3.33 2.613.294-4.74c.258-4.157.729-5.037 3.841-7.169zm783.935 5.466c3.143-2.397 3.408-2.433 7.47-1 2.316.817 4.352 1.486 4.525 1.486.172 0-.39-2.064-1.25-4.587-1.475-4.33-1.454-4.737.375-7.25 3.984-5.475 3.98-5.49-.96-4.75-4.366.655-4.667.536-7.261-2.865-1.489-1.951-3.064-3.548-3.5-3.548-.436 0-1.094 1.777-1.46 3.949-.583 3.446-1.135 4.099-4.338 5.13-5.538 1.785-5.6 1.946-1.747 4.563 3.204 2.178 3.576 2.894 3.576 6.894 0 2.455.295 4.464.655 4.464.361 0 2.123-1.119 3.915-2.486zm41.93-37.49c5.758 1.336 5.735 1.357 3.5-3.024l-2.04-4 2.113-4.143 2.113-4.142-4.256.68c-3.87.619-4.555.391-7.539-2.5l-3.281-3.18-.516 2.392a89.93 89.93 0 00-.805 4.266c-.18 1.167-1.973 2.53-4.759 3.617l-4.469 1.745 4.156 2.12c3.724 1.9 4.228 2.599 4.845 6.708l.687 4.587 3.126-3.027c2.886-2.796 3.43-2.956 7.125-2.099zm-871.022-9.265l3.93-2.016-4.704-2.39c-4.223-2.147-4.704-2.741-4.704-5.813 0-4.662-1.167-5.022-4.597-1.419-2.685 2.822-3.266 3.003-7.737 2.42l-4.834-.632 2.516 4.219 2.516 4.218-2.002 3.924c-1.101 2.158-1.805 4.12-1.564 4.362.24.24 2.207.04 4.37-.446 3.535-.795 4.28-.592 7.382 2.01l3.45 2.892 1.024-4.657c.877-3.985 1.591-4.947 4.954-6.672zm903.427-34.275c2.252.38 4.095.453 4.095.161 0-.292-.966-2.168-2.147-4.169-2.067-3.504-2.084-3.769-.457-7.18.93-1.95 1.487-3.746 1.24-3.993-.247-.247-2.085 0-4.086.555-3.31.914-3.938.74-6.977-1.928l-3.34-2.932-.603 2.251c-.331 1.238-.609 3.161-.617 4.274-.01 1.278-1.302 2.716-3.513 3.907-1.925 1.037-3.5 2.196-3.5 2.576 0 .38 1.732 1.371 3.85 2.203 3.42 1.344 3.926 1.991 4.537 5.811l.688 4.3 3.367-3.264c3.055-2.96 3.748-3.2 7.463-2.572zm-939.543-2.35c.546-3.412 1.138-4.117 4.632-5.515 2.203-.882 4.006-1.822 4.006-2.09 0-.269-1.775-1.394-3.945-2.5-3.616-1.846-3.97-2.392-4.25-6.548l-.305-4.534-3.61 2.984c-3.31 2.735-3.924 2.898-7.345 1.954-2.053-.567-3.996-.767-4.318-.445-.322.322.185 2.201 1.127 4.177 1.677 3.517 1.661 3.681-.774 7.836l-2.487 4.244 4.703-.44c4.223-.394 5-.127 7.607 2.616 1.596 1.68 3.225 2.857 3.618 2.614.394-.244.998-2.203 1.341-4.354zm966.848-44.134h4.892l-2.672-3.503c-2.457-3.22-2.586-3.843-1.602-7.718.588-2.318.938-4.346.777-4.507-.161-.162-2.066.332-4.232 1.096-3.714 1.31-4.108 1.255-6.906-.984-4.107-3.286-4.814-3.006-4.188 1.66.515 3.838.338 4.18-3.442 6.682l-3.984 2.637 4.24 1.568c3.622 1.34 4.452 2.202 5.685 5.901l1.443 4.333 2.55-3.583c2.329-3.274 2.97-3.582 7.44-3.582zm-988.436-6.769l4.274-1.414-4.138-2.997c-3.925-2.843-4.105-3.198-3.512-6.909.73-4.564.149-4.766-4.295-1.487-3.126 2.306-3.482 2.354-7.35.989-2.236-.789-4.225-1.275-4.42-1.08-.195.195.282 2.16 1.06 4.365 1.341 3.8 1.292 4.16-.953 6.906-1.303 1.593-2.384 3.233-2.404 3.646-.02.412 1.876.76 4.214.771 3.836.02 4.536.426 7.191 4.176l2.942 4.155 1.558-4.854c1.4-4.36 1.994-4.997 5.833-6.267zm1004.607-38.231c2.462-3.72 2.975-4 7.33-4h4.681l-3.275-3.38c-3.062-3.158-3.23-3.687-2.57-8.091l.707-4.712-3.077 1.591c-3.982 2.06-5.36 2.006-9.37-.36l-3.307-1.953.271 4.703c.253 4.384.022 4.888-3.411 7.452-2.025 1.512-3.047 2.752-2.271 2.756.776 0 3.028.454 5.004 1.003 3.01.836 3.787 1.646 4.79 4.995.658 2.198 1.344 3.996 1.524 3.996.18 0 1.518-1.8 2.974-4zM82.83 819.281c1.167-3.532 2.844-4.73 8.239-5.885l2.76-.591-3.619-3.178c-3.371-2.96-3.578-3.471-3.029-7.478.324-2.366.399-4.301.166-4.301s-2.03.947-3.991 2.105c-3.424 2.02-3.732 2.038-7.682.458-2.263-.906-4.271-1.49-4.463-1.299-.191.192.115 2.026.681 4.077.947 3.428.777 4.048-2.11 7.694l-3.141 3.965 2.834.014c4.957.024 6.903 1.03 8.8 4.553 1.017 1.888 2.193 3.433 2.614 3.433.42 0 1.294-1.605 1.942-3.567zm1055.39-50.845c1.149-.308 3.101-.567 4.339-.574 3.114-.02 2.812-1.54-.843-4.234-2.924-2.156-3.057-2.544-2.45-7.142l.641-4.862-3.687 2.279c-3.793 2.344-3.735 2.347-10.692-.55-1.597-.666-1.712-.31-1.113 3.437.606 3.784.365 4.492-2.544 7.494l-3.213 3.314 4.587.688c4.115.617 4.807 1.119 6.719 4.866l2.131 4.177 2.018-4.166c1.12-2.314 2.946-4.415 4.107-4.727zm-1073.411.412c1.453-2.849 2.682-4.004 4.27-4.014 1.226-.008 3.272-.292 4.546-.634l2.316-.62-3.203-3.305c-3.03-3.127-3.148-3.525-2.173-7.366 1.154-4.543.78-4.761-4.141-2.414-3.3 1.573-3.614 1.551-7.091-.5-2.001-1.181-3.865-2.147-4.143-2.147-.277 0-.202 2.013.167 4.472.622 4.15.446 4.662-2.439 7.09-1.71 1.438-3.11 2.975-3.11 3.413 0 .439 1.966 1.093 4.368 1.453 3.877.581 4.566 1.098 6.151 4.613.982 2.178 1.933 3.959 2.113 3.959.18 0 1.246-1.8 2.369-4zm1089.203-53l4.66-1.5-4.022-2.88c-3.786-2.71-4.001-3.136-3.674-7.25.19-2.403.201-4.37.024-4.37-.179 0-1.804 1.128-3.612 2.507-3.16 2.411-3.446 2.451-7.433 1.045-4.623-1.632-5.058-1.08-3.135 3.976.868 2.285.576 3.206-2.084 6.565l-3.095 3.907h4.848c4.572 0 4.988.226 7.303 3.972l2.455 3.972 1.553-4.222c1.359-3.692 2.138-4.41 6.213-5.722zm-1102.203 1.5c1.944-3.146 2.61-3.5 6.581-3.5 4.632 0 5.466-.886 2.864-3.045-2.962-2.459-3.634-4.853-2.407-8.571.639-1.935.96-3.719.715-3.964-.245-.246-2.13.257-4.189 1.118-3.627 1.515-3.846 1.484-7.087-.987-1.839-1.403-3.599-2.551-3.91-2.551-.312 0-.567 1.981-.567 4.403 0 3.868-.446 4.76-3.662 7.34l-3.662 2.938 4.623 1.164c4.183 1.053 4.737 1.545 5.82 5.16.659 2.197 1.54 3.995 1.958 3.995.418 0 1.733-1.575 2.923-3.5zm1109.904-54.782c4.12-1.822 4.377-2.127 2.64-3.119-4.402-2.512-6.544-5.5-6.544-9.126v-3.619l-3.58 2.951c-3.503 2.888-3.677 2.922-8.1 1.59-4.192-1.26-4.468-1.234-3.797.373 2.872 6.88 2.87 6.859.562 10.594l-2.248 3.638h4.53c4.046 0 4.831.394 7.332 3.678l2.8 3.678.92-4.31c.82-3.84 1.417-4.528 5.485-6.328zm-1111.226-.718h4.485l-2.249-3.638c-2.301-3.724-2.3-3.766.522-10.487.605-1.44.18-1.51-3.759-.608-4.076.932-4.726.797-7.936-1.65l-3.495-2.667-.61 2.275c-.335 1.251-.615 3.262-.623 4.468-.009 1.496-1.316 2.97-4.108 4.635l-4.095 2.442 4.345 1.429c3.934 1.294 4.482 1.881 5.801 6.218l1.456 4.79 2.891-3.604c2.545-3.172 3.427-3.603 7.375-3.603zm1109.786-47.253c.525-3.142 1.31-4.102 4.822-5.893l4.195-2.14-4.169-2.02c-3.85-1.865-4.221-2.396-4.848-6.955l-.679-4.935-3.643 3.526c-3.413 3.304-3.91 3.476-7.892 2.732-2.338-.436-4.249-.516-4.247-.178 0 .339.942 2.155 2.09 4.036l2.084 3.42-2.235 3.976-2.235 3.977 4.577-.516c4.203-.474 4.847-.237 7.883 2.895 1.818 1.876 3.387 3.055 3.487 2.62.1-.436.464-2.48.81-4.545zM47.645 609.438c2.29.366 4.163.394 4.163.062s-.872-2.037-1.938-3.79c-1.922-3.16-1.921-3.218.092-7.164l2.03-3.979-4.596.518c-4.24.478-4.82.262-7.495-2.784-2.783-3.17-2.923-3.215-3.483-1.128-.32 1.196-.589 3.193-.597 4.438-.01 1.688-1.165 2.822-4.546 4.465l-4.533 2.203 4.533 2.303c3.477 1.768 4.533 2.863 4.533 4.703 0 1.32.285 3.142.633 4.049.535 1.396 1.124 1.172 3.836-1.457 2.881-2.792 3.624-3.038 7.368-2.44zm1111.163-47.989c0-4.099.283-4.565 4.16-6.855l4.162-2.458-4.592-1.753c-4.125-1.576-4.658-2.148-5.248-5.64-.36-2.136-.955-4.068-1.32-4.292-.364-.224-1.787 1.138-3.162 3.026-2.314 3.177-2.854 3.411-7.25 3.152-2.614-.155-4.751-.145-4.75.022 0 .167 1.101 1.924 2.448 3.906 2.303 3.39 2.362 3.808 1 7.069-.797 1.906-1.448 3.652-1.448 3.879 0 .226 2.137.13 4.75-.213 4.24-.558 5.01-.347 7.174 1.965 3.358 3.589 4.076 3.27 4.076-1.808zM49.112 557.134c2.093.516 4.024.719 4.293.45.269-.269-.268-2.075-1.193-4.014-1.62-3.396-1.602-3.635.458-6.528 1.176-1.651 2.138-3.27 2.138-3.598 0-.328-1.953-.596-4.34-.596-3.86 0-4.63-.408-6.957-3.677l-2.616-3.677-1.258 4.7c-1.119 4.186-1.672 4.826-5.043 5.836-2.082.624-3.786 1.477-3.786 1.895 0 .418 1.575 1.733 3.5 2.923 3.161 1.954 3.5 2.599 3.5 6.666v4.502l3.75-2.91c3.368-2.614 4.137-2.815 7.554-1.972zm1106.68-56.01l3.878-2.776-4.659-1.5c-4.1-1.32-4.85-2.019-6.25-5.823l-1.59-4.324-2.66 4.018c-2.376 3.592-3.141 4.05-7.22 4.323l-4.563.306 2.914 3.48c2.818 3.366 2.869 3.611 1.53 7.407-.762 2.159-1.226 4.085-1.03 4.28.194.195 2.183-.291 4.42-1.08 3.878-1.368 4.218-1.32 7.405 1.038l3.34 2.472.305-4.522c.265-3.957.788-4.87 4.18-7.299zM56.348 505.207c2.453.836 4.46 1.378 4.46 1.206 0-.172-.618-2.066-1.373-4.209-1.327-3.758-1.273-4.017 1.54-7.375l2.913-3.481-4.54-.305c-3.96-.266-4.861-.775-7.034-3.972l-2.492-3.667-1.651 4.205c-1.443 3.673-2.224 4.366-6.17 5.48l-4.52 1.277 3.657 2.491c3.365 2.292 3.658 2.88 3.664 7.36l.007 4.868 3.539-2.699c3.476-2.651 3.62-2.672 8-1.18zm1084.335-48.854c-.24-3.913.149-4.933 3-7.875l3.276-3.38-4.664-.7c-4.36-.654-4.798-1-6.709-5.32l-2.043-4.62-2.386 4.695c-2.015 3.965-2.837 4.695-5.286 4.695-5.894 0-6.51.942-2.992 4.572 2.9 2.993 3.141 3.703 2.537 7.486-.6 3.748-.485 4.103 1.112 3.438 6.711-2.796 6.737-2.797 10.293-.63 1.918 1.17 3.634 2.128 3.813 2.13.18.002.201-2.019.05-4.491zM61.23 453.909c2.891-1.907 2.962-1.906 6.892.1l3.971 2.025-.68-4.256c-.618-3.865-.39-4.557 2.476-7.514l3.158-3.258-4.696-.704c-4.05-.607-4.915-1.167-6.304-4.079-1.986-4.165-2.65-4.21-4.274-.29-1.342 3.238-4.319 4.915-8.726 4.915h-2.632l3.197 3.298c2.564 2.646 3.196 4.127 3.196 7.5 0 4.762.354 4.944 4.422 2.263zm1057.466-46.351a407.97 407.97 0 014.413 1.794c1.637.681 1.743.305 1.16-4.127-.578-4.383-.38-5.122 1.948-7.301 1.425-1.334 2.59-2.745 2.59-3.137 0-.391-2.014-1.014-4.477-1.383-3.867-.58-4.806-1.222-6.883-4.705l-2.405-4.032-1.757 4.6c-1.584 4.15-2.139 4.663-5.64 5.223-2.135.341-4.092.961-4.35 1.378-.257.417 1.05 1.915 2.904 3.33 3.177 2.423 3.341 2.844 2.84 7.285l-.53 4.713 3.787-2.341c3.12-1.928 4.249-2.157 6.4-1.297zM88.273 402.467c-.623-4.156-.471-4.529 2.946-7.25l3.602-2.869-4.257-1.045c-3.601-.884-4.564-1.688-6.256-5.227l-2-4.183-2.28 3.977c-2.145 3.743-2.555 3.978-6.946 3.978h-4.667l3.277 3.38c3.102 3.201 3.219 3.585 2.201 7.25-1.52 5.477-1.527 5.47 3.077 3.409 4.161-1.863 4.161-1.863 7.75.49 1.973 1.294 3.728 2.38 3.899 2.412.171.032.016-1.912-.346-4.322zM1093.01 359.65c2.511-1.737 2.964-1.76 6.404-.323 2.036.851 3.889 1.36 4.118 1.131.228-.228-.132-2.242-.801-4.475-1.136-3.793-1.042-4.289 1.43-7.531 1.457-1.909 2.648-3.787 2.648-4.173 0-.387-1.996-.43-4.434-.095-4.287.587-4.533.474-7.402-3.428-3.127-4.25-3.456-4.209-4.606.586-.994 4.142-2.217 5.351-6.159 6.09-4.299.807-4.278 1.71.1 4.416 3.158 1.95 3.5 2.602 3.5 6.64 0 4.776-.014 4.773 5.202 1.162zm-979.48-11.939l3.615-2.234-2.418-.924-4.542-1.736c-1.39-.53-2.356-2.048-2.795-4.39-.818-4.36-1.557-4.456-4.423-.579-1.904 2.575-2.868 3-6.807 3h-4.59l2.7 3.539c2.637 3.458 2.665 3.64 1.21 7.908l-1.488 4.369 4.404-1.5c4.331-1.477 4.456-1.456 7.657 1.245l3.255 2.747.303-4.605c.267-4.072.72-4.864 3.918-6.84zm959.909-34.949c5.505 1.529 5.524 1.513 3.718-3.001-1.542-3.854-1.528-4.298.232-7.75a426.493 426.493 0 002.224-4.405c.197-.408-1.784-.448-4.4-.09-4.607.632-4.861.53-7.991-3.199l-3.233-3.85-.72 4.804c-.675 4.498-1.008 4.932-5.21 6.79l-4.49 1.987 4.12 2.457c3.294 1.964 4.12 3.03 4.12 5.318 0 5.835.948 6.468 4.513 3.012 3.06-2.966 3.47-3.085 7.117-2.073zm-934.074-9.642c1.894-.904 3.444-1.98 3.444-2.393 0-.412-1.585-1.323-3.522-2.023-2.985-1.08-3.614-1.854-4.131-5.087-.808-5.05-1.75-5.416-4.394-1.704-2.098 2.947-2.427 3.057-7.155 2.407l-4.955-.681 2.49 3.944 2.49 3.945-1.911 4.268-1.911 4.269 2.5-.609 4.764-1.158c1.665-.404 3.056.279 5.25 2.576l2.985 3.125.306-4.618c.276-4.157.651-4.784 3.75-6.261zm904.883-34.032c2.508.283 4.56.285 4.56.005 0-.28-.966-2.073-2.147-3.984l-2.147-3.474 2.138-4.401 2.138-4.401-5.24.607c-4.753.55-5.467.364-7.666-1.993-3.305-3.543-4.075-3.279-4.075 1.4 0 3.665-.38 4.234-4.565 6.839l-4.565 2.84 4.458 1.703c4.178 1.596 4.5 1.989 5.144 6.28l.686 4.578 3.36-3.257c3.039-2.945 3.795-3.207 7.92-2.742zm-878.426-.49c.03-4.746 1.13-6.39 5.306-7.916l4.18-1.529-4.194-2.145c-3.891-1.99-4.217-2.473-4.5-6.679l-.305-4.534-3.622 2.993c-3.227 2.668-3.989 2.889-6.993 2.027-4.926-1.413-4.98-1.355-3.006 3.283 1.747 4.108 1.746 4.35-.03 7.25-2.59 4.226-2.39 4.536 2.481 3.868 3.962-.543 4.537-.333 6.75 2.464 2.913 3.68 3.915 3.914 3.933.918zm844.596-40.75h4.463l-2.453-3.61c-2.33-3.427-2.38-3.814-1.025-7.656.785-2.225 1.241-4.232 1.014-4.46-.227-.227-2.212.126-4.41.785-3.734 1.118-4.232 1.017-7.597-1.55l-3.601-2.746v4.485c0 4.165-.302 4.686-4.222 7.28-4.577 3.03-4.648 2.868 2.38 5.396 1.876.675 2.865 1.928 3.367 4.266 1.099 5.123 1.494 5.242 4.662 1.4 2.589-3.142 3.516-3.59 7.422-3.59zm-810.21-1.318c.548-2.919 1.21-3.52 5.263-4.779l4.636-1.44-3.917-2.592c-3.784-2.504-3.905-2.757-3.535-7.407l.383-4.814-4.002 3.17c-3.972 3.146-4.035 3.159-8.23 1.679-4.21-1.485-4.226-1.482-3.532.754 1.72 5.55 1.666 6.798-.438 10.204l-2.19 3.543h4.513c3.878 0 4.816.424 6.658 3.012 2.52 3.54 3.536 3.232 4.392-1.33zm772.786-35.682h4.983l-3.134-3.957c-2.964-3.742-3.074-4.182-2.019-8.101.614-2.28.941-4.319.728-4.532-.214-.214-2.237.338-4.496 1.225-3.932 1.545-4.256 1.523-7.546-.51-1.89-1.169-3.783-2.125-4.205-2.125-.423 0-.492 2.014-.155 4.475.579 4.22.415 4.634-2.864 7.25-1.912 1.526-3.477 3.061-3.477 3.411 0 .35 1.998.936 4.44 1.303 4.026.603 4.55 1.01 5.63 4.363 1.841 5.71 2.067 5.776 4.682 1.347 2.352-3.982 2.651-4.149 7.433-4.149zm-729.31-4.609l4.486-.672-3.594-3.294c-3.273-2.999-3.546-3.658-3.05-7.36.3-2.235.288-4.065-.028-4.065s-2.109.905-3.983 2.011c-3.206 1.891-3.633 1.918-7.166.441-2.066-.863-3.92-1.405-4.121-1.204-.2.2.108 2.077.686 4.17.972 3.522.818 4.094-2.075 7.693l-3.124 3.889 4.797.012c4.432.012 4.98.296 7.21 3.735l2.412 3.722 1.533-4.203c1.418-3.89 1.865-4.252 6.017-4.875zm681.062-24.268c2.136-4.187 3.624-5.123 8.145-5.123 3.666 0 3.654-.646-.088-4.507-2.827-2.916-2.954-3.382-2.13-7.797.483-2.583.66-4.696.393-4.696s-2.234.983-4.372 2.185c-3.744 2.104-4.017 2.122-7.42.5-1.943-.927-3.804-1.685-4.135-1.685-.33 0-.334 1.958-.01 4.35.535 3.9.29 4.646-2.364 7.188-3.745 3.587-3.724 4.462.105 4.462 4.435 0 6.618 1.512 7.932 5.492.637 1.93 1.339 3.508 1.56 3.508.221 0 1.292-1.745 2.38-3.877zm-645.984-3.03c1.689-3.312 2.621-4.014 6.109-4.603l4.115-.696-2.725-2.844c-2.384-2.488-2.66-3.42-2.204-7.46.45-3.994.3-4.523-1.114-3.93-6.75 2.832-6.8 2.834-10.629.576l-3.743-2.209.698 4.657c.65 4.339.475 4.888-2.577 8.036-3.258 3.362-3.262 3.38-.83 3.394 4.807.026 6.728 1.175 8.486 5.073.97 2.152 1.912 3.913 2.092 3.913.18 0 1.225-1.758 2.322-3.908zm602.934-26.57c1.769-4 2.416-4.548 6.047-5.128 2.236-.358 4.07-.93 4.075-1.273 0-.342-1.434-1.808-3.198-3.257-2.95-2.425-3.184-3.05-2.93-7.816l.274-5.18-4.185 2.77c-4.15 2.745-4.222 2.755-8.67 1.155-4.462-1.604-4.483-1.602-3.87.546 1.903 6.658 1.822 7.572-.966 10.875l-2.772 3.285 4.62.303c4.215.277 4.814.65 6.838 4.25 1.22 2.171 2.34 3.947 2.487 3.947.148 0 1.16-2.015 2.25-4.478zm-559.02-2.023c1.886-3.197 2.466-3.5 6.683-3.5h4.618l-2.955-3.75c-2.836-3.6-2.904-3.92-1.69-8 .696-2.338 1.145-4.25.997-4.25-.148 0-2.076.638-4.285 1.417-3.805 1.342-4.205 1.288-7.625-1.036l-3.61-2.453v4.432c0 3.816-.488 4.861-3.51 7.515l-3.51 3.082 2.76.614c1.518.338 3.505.815 4.416 1.06.911.244 2.37 2.227 3.242 4.407.872 2.179 1.77 3.962 1.995 3.962.225 0 1.339-1.575 2.474-3.5zm511.633-26.203c.82-2.902 1.79-3.849 5.385-5.253l4.385-1.714-3.523-2.177c-2.92-1.805-3.64-2.947-4.197-6.67l-.674-4.49-3.246 2.476c-2.894 2.207-3.658 2.362-7.032 1.43-2.082-.574-3.974-.856-4.205-.625-.23.23.284 2.103 1.144 4.162 1.519 3.634 1.489 3.841-1.037 7.153l-2.602 3.411h4.422c3.915 0 4.692.394 6.778 3.439 2.665 3.888 3.005 3.8 4.402-1.142zm-458.536-5.64c.02-.465 2.321-.53 5.114-.146l5.079.698-2.69-4.26c-2.606-4.128-2.639-4.366-1.078-7.639 2.31-4.843 2.102-5.145-2.77-4.03-4.03.922-4.673.78-8-1.757l-3.62-2.76v4.485c0 4.16-.304 4.688-4.188 7.258l-4.188 2.772 4.356 1.61c3.334 1.234 4.57 2.315 5.267 4.612.502 1.65 1.123 3.655 1.38 4.456.346 1.074 1.104.68 2.886-1.5 1.329-1.626 2.432-3.336 2.452-3.8zm411.641-17.487c.217-.732 2.203-2.041 4.414-2.91l4.02-1.579-3.899-2.325c-3.858-2.3-5.1-4.555-5.127-9.302-.013-2.43-.036-2.424-3.418.854-3.094 2.999-3.779 3.237-7.5 2.608-2.252-.38-4.095-.443-4.095-.138s.722 2.07 1.605 3.921c1.513 3.173 1.488 3.598-.442 7.382l-2.048 4.014 4.692-.445c4.384-.417 4.855-.226 7.156 2.9l2.463 3.346.893-3.498c.491-1.924 1.07-4.097 1.286-4.828zm-361.542-1.823c.24.213 2.129.694 4.197 1.067l3.76.68-2.122-4.367-2.122-4.368 2.099-4.114 2.1-4.115-3.738.576c-2.055.318-3.934.748-4.174.956-.24.208-2.121-1.266-4.18-3.276l-3.742-3.654-.649 3.884c-.994 5.959-1.186 6.27-4.961 8.07-1.942.927-3.527 1.939-3.521 2.25.006.31 1.77 1.303 3.923 2.207 3.555 1.492 3.976 2.07 4.615 6.33l.703 4.688 3.687-3.601c2.028-1.98 3.884-3.426 4.125-3.213zm315.525-16.964c1.876-1.011 3.412-2.117 3.412-2.459 0-.341-1.751-1.309-3.892-2.15-3.415-1.34-3.976-2.032-4.587-5.65-.384-2.269-.912-4.124-1.174-4.124-.262 0-1.612 1.35-3 3-2.118 2.517-3.252 3-7.035 3h-4.51l2.15 3.644c2.035 3.448 2.067 3.852.599 7.52-.853 2.132-1.551 4.044-1.551 4.25 0 .205 1.778-.078 3.952-.63 3.552-.901 4.287-.74 7.25 1.589l3.298 2.591.838-4.372c.68-3.55 1.48-4.717 4.25-6.21zm-270.113 5.64c2.884-2.795 3.297-2.906 6.797-1.832 2.05.63 3.957.913 4.24.63.283-.283-.173-2.158-1.012-4.167-1.466-3.508-1.423-3.817 1.094-7.804l2.621-4.151-4.583.628c-4.347.596-4.726.449-7.358-2.85-1.526-1.912-3.072-3.477-3.436-3.477-.364 0-.974 1.846-1.356 4.103-.62 3.677-1.168 4.313-5.274 6.129l-4.581 2.026 4.186 2.473c3.906 2.306 4.187 2.767 4.187 6.87 0 2.42.316 4.399.702 4.399.386 0 2.084-1.34 3.773-2.976zM686.808 57.43c0-3.973.354-4.638 3.506-6.586 4.053-2.505 3.8-3.66-.998-4.56-2.833-.532-3.623-1.27-4.596-4.29-1.779-5.522-1.941-5.581-4.682-1.73-2.33 3.275-2.97 3.584-7.437 3.584h-4.887l3.067 3.817c3.027 3.767 3.048 3.871 1.591 8-1.63 4.622-1.357 4.83 3.628 2.747 3.233-1.35 3.61-1.294 6.372.964 1.615 1.32 3.273 2.416 3.686 2.436.412.02.75-1.952.75-4.382zM527.6 56.663a157.77 157.77 0 014.44 1.683c1.606.651 1.633.373.372-3.818-1.331-4.423-1.297-4.597 1.59-8.1l2.951-3.58h-4.558c-4.232 0-4.754-.295-7.282-4.115-2.936-4.437-2.792-4.5-5.246 2.315-.73 2.03-2.034 2.985-5.261 3.854l-4.29 1.156 3.746 3.145c3.276 2.75 3.746 3.693 3.746 7.514v4.368l3.542-2.701c2.978-2.272 3.973-2.546 6.25-1.721zm52.749-3.497c2.038.972 3.85 1.623 4.027 1.447.177-.177-.082-2.109-.576-4.293-.82-3.634-.645-4.231 2.056-7.02 3.712-3.832 3.696-4.452-.114-4.452-4.221 0-6.439-1.39-7.918-4.962-.693-1.67-1.586-3.038-1.986-3.038-.4 0-1.42 1.765-2.267 3.922-1.41 3.59-1.938 3.982-6.232 4.626l-4.692.703 3.526 3.625c3.237 3.327 3.477 3.982 2.933 7.988l-.592 4.365 4.064-2.34c3.993-2.297 4.13-2.307 7.77-.57zm51.087.625c1.917 1.131 3.745 2.057 4.06 2.057.317 0 .321-1.891.011-4.203-.523-3.899-.297-4.433 3.119-7.39l3.682-3.186-4.5-.892c-3.99-.79-4.73-1.378-6.53-5.173l-2.03-4.283-2.284 4.064c-1.757 3.124-2.905 4.08-4.97 4.133-1.478.039-3.49.388-4.474.777-1.593.629-1.453 1.027 1.281 3.647 3.113 2.982 3.25 4.082 1.344 10.821-.475 1.68-.203 1.657 3.646-.306l4.16-2.122z"/></svg>