<svg width="90" height="90" xmlns="http://www.w3.org/2000/svg"><g fill="none" fill-rule="evenodd"><path fill="#FFF" d="M19.345 14.628l4.024-4.105h27.554l2.113 2.053v10.4l2.023 5.08 5.129 1.32h11.465l1.49 38.001-2.292 8.822L67.43 78.1H24.96l-5.616-2.714v-6.741z"/><path fill="#05C0A5" d="M53.437 13.144v9.986l3.141 4.335 6.247 1.572h6.437l-6.437-10.631-9.388-6.363z"/><path d="M25.853 7C20.42 7 16 11.438 16 16.894v54.27c0 5.455 4.42 9.893 9.853 9.893h39.294c5.428 0 9.853-4.438 9.853-9.893v-41.84c0-.11-.052-.21-.067-.319a2.268 2.268 0 00-.058-.309c-.113-.414-.29-.807-.595-1.118L54.613 7.829c-.069-.069-.166-.075-.24-.135A2.493 2.493 0 0052.663 7h-26.81zm0 4.937h24.564v10.029c0 5.416 4.382 9.826 9.775 9.826h9.891v39.372c0 2.73-2.217 4.956-4.936 4.956H25.853c-2.72 0-4.936-2.226-4.936-4.956v-54.27c0-2.73 2.217-4.957 4.936-4.957zm29.48 3.674c3.324 3.318 7.838 7.832 11.255 11.244h-6.396c-2.68 0-4.859-2.194-4.859-4.89v-6.354zm3.938 34.705l-3.38 3.587 3.187 3.028h-10.16v4.937h10.266l-3.313 3.24 3.419 3.539 7.672-7.483a2.474 2.474 0 00.75-1.784 2.476 2.476 0 00-.769-1.774l-7.672-7.29z" fill="#003945" fill-rule="nonzero"/></g></svg>