<svg xmlns="http://www.w3.org/2000/svg" width="100" height="100"><path d="M57.426 32.75c-1.998 4.263-4.276 9.231-5.06 11.04-.785 1.81-1.856 3.025-2.381 2.701-.525-.325-3.04-3.513-5.589-7.084-2.549-3.572-5.143-6.327-5.765-6.122-.622.205-4.637 5.512-8.923 11.794-4.286 6.281-10.473 14.133-13.75 17.448C12.681 65.842 10 69.104 10 69.777 10 70.721 19.136 71 50 71c25.23 0 40-.359 40-.972 0-.535-2.627-4.973-5.839-9.864-3.211-4.89-9.151-14.803-13.199-22.028C66.914 30.911 63.03 25 62.331 25c-.699 0-2.906 3.487-4.905 7.75M63 40.875v7.875l2.883.577a141.5 141.5 0 015.482 1.228c2.534.637 2.474.43-2.468-8.451C66.11 37.097 63.644 33 63.415 33c-.228 0-.415 3.544-.415 7.875m-6.909 3.281c-2.637 5.755-4.082 10.251-3.893 12.105l.302 2.949 4.25-5.239C60.828 48.942 61 48.454 61 41.865c0-3.776-.161-6.865-.358-6.865-.196 0-2.245 4.12-4.551 9.156M39 44.543c0 4.024.529 5.108 4.637 9.5 2.55 2.726 5.025 4.957 5.5 4.957.475 0 .863-1.282.863-2.849 0-2.717-8.496-16.088-10.25-16.132-.413-.011-.75 2.025-.75 4.524m-5.367 1.436c-3.341 5.049-3.303 5.419.367 3.521 2.313-1.196 3-2.232 3-4.526 0-1.636-.165-2.974-.367-2.974-.202 0-1.552 1.79-3 3.979m-1.789 6.984c-2.561 1.608-4.961 3.417-5.333 4.019-.658 1.065 2.488 10.052 3.489 9.969.275-.023 2.72-2.99 5.434-6.593 3.832-5.086 4.71-6.906 3.929-8.145-1.565-2.48-2.526-2.385-7.519.75m24.96 3.794L52.109 62.5l5.695 2.673C62.965 67.596 73 69.068 73 67.402c0-.567-10.938-16.41-11.319-16.395-.099.004-2.294 2.592-4.877 5.75M65 51.731c0 .283 2.088 3.441 4.64 7.017 3.81 5.34 4.804 6.21 5.557 4.865.504-.901.779-3.537.61-5.858-.307-4.213-.313-4.22-5.557-5.379-2.888-.639-5.25-.929-5.25-.645m-27.88 9.726c-2.266 3.001-4.12 5.701-4.12 6 0 .299 2.622.543 5.826.543 4.928 0 6.189-.387 8.185-2.511l2.359-2.512-3.381-3.488C44.129 57.57 42.3 56 41.924 56c-.376 0-2.538 2.456-4.804 5.457m40.517-.391C76.396 67.269 76.698 68 80.5 68c1.925 0 3.498-.338 3.496-.75-.003-.412-1.291-2.689-2.863-5.059l-2.859-4.309-.637 3.184m-57.441 2.232c-1.758 1.813-3.196 3.613-3.196 4 0 .386 2.25.702 5 .702s5-.383 5-.851C27 65.453 24.787 60 24.098 60c-.388 0-2.144 1.484-3.902 3.298m28.784 2.226c-1.775 2.139-.847 2.648 4.166 2.289L57.5 67.5l-3.2-1.75c-3.876-2.119-3.753-2.114-5.32-.226" fill-rule="evenodd"/></svg>