<svg xmlns="http://www.w3.org/2000/svg" width="100" height="100"><path d="M10 48.51c0 22.48.269 28.567 1.25 28.241.939-.313 1.374-6.815 1.75-26.154l.5-25.738 14.723 11.067 14.723 11.066.277 14.672c.201 10.646.62 14.786 1.527 15.087.966.321 1.239-3.179 1.2-15.418L45.899 45.5 29.237 33c-9.165-6.875-17.242-12.645-17.95-12.823C10.26 19.919 10 25.646 10 48.51m60.806-15.674L54.111 45.5l-.055 15.833c-.043 12.241.228 15.739 1.194 15.418.907-.301 1.326-4.441 1.527-15.087l.277-14.672 14.723-11.066L86.5 24.859l.5 25.738c.376 19.339.811 25.841 1.75 26.154.981.326 1.25-5.746 1.25-28.168 0-22.246-.277-28.564-1.25-28.497-.687.048-8.762 5.785-17.944 12.75" fill-rule="evenodd"/></svg>