<svg xmlns="http://www.w3.org/2000/svg" width="100" height="100"><path d="M40.618 11.048c-6.328 1.59-15.334 6.92-19.706 11.663-2.245 2.436-5.507 7.436-7.247 11.109-2.866 6.049-3.165 7.582-3.165 16.232 0 9.015.21 9.976 3.735 17.108 4.498 9.102 10.288 14.771 19.585 19.175C39.861 89.197 41.409 89.5 50 89.5c8.609 0 10.132-.299 16.241-3.193 8.724-4.133 15.933-11.342 20.066-20.066 2.897-6.117 3.193-7.625 3.193-16.293 0-9.015-.21-9.976-3.735-17.108-6.757-13.673-18.762-21.696-33.516-22.398-4.262-.203-9.496.07-11.631.606m-3.195 2.715C26.48 17.669 17.029 27.525 13.437 38.777c-2.637 8.259-1.649 20.01 2.342 27.843 3.945 7.741 10.623 14.45 17.983 18.063C38.948 87.229 40.51 87.5 50 87.5c9.502 0 11.048-.269 16.265-2.83 7.579-3.72 14.646-10.74 18.291-18.17C87.247 61.016 87.5 59.596 87.5 50c0-9.514-.267-11.044-2.845-16.297-3.652-7.442-11.002-14.766-18.358-18.292-7.646-3.667-21.072-4.433-28.874-1.648m3.807 1.787c-7.648 2.059-11.044 4.082-16.866 10.046-15.282 15.652-12.429 41.736 5.89 53.861 22.388 14.819 51.187 1.46 55.249-25.627.805-5.369-.885-14.658-3.662-20.125-4.577-9.01-13.548-15.957-23.694-18.345-7.01-1.65-10.216-1.614-16.917.19m-9.859 21.154c.387.387 1.923.725 3.414.75 2.497.042 3.117.988 7.896 12.046 2.852 6.6 5.201 12.9 5.219 14 .017 1.1-1.815-2.4-4.072-7.779-2.257-5.378-4.269-9.614-4.471-9.412-.632.633 7.935 20.628 8.65 20.187.373-.231 2.862-5.724 5.533-12.208 2.67-6.483 5.664-13.138 6.654-14.788 1.79-2.986 1.799-2.935 1.802 10.691.002 7.53-.412 13.948-.92 14.262-.509.314-1.131-.222-1.384-1.191-.371-1.422-.482-1.454-.576-.165-.064.879-1.129 2.086-2.366 2.683-1.834.884-.865 1.087 5.25 1.1 7.101.014 7.38-.068 5.25-1.554-2.133-1.488-2.25-2.23-2.25-14.295 0-12.208.091-12.769 2.25-13.811 1.966-.948 1.648-1.093-2.521-1.152-4.028-.057-4.924.283-5.745 2.182-.535 1.237-2.709 6.476-4.831 11.64l-3.859 9.391-4.843-11.641L40.608 36h-4.971c-2.734 0-4.654.317-4.266.704M35 50.492c0 11.408-.173 12.599-2 13.74C29.805 66.227 30.643 67 36 67s6.195-.773 3-2.768c-1.79-1.118-1.998-2.323-1.985-11.49.011-6.982.324-9.765.985-8.742.533.825.976 1.14.985.7.021-1.088-2.919-6.7-3.511-6.7-.261 0-.474 5.621-.474 12.492M34.5 64c-.34.55.11 1 1 1s1.34-.45 1-1c-.34-.55-.79-1-1-1-.21 0-.66.45-1 1" fill-rule="evenodd"/></svg>