<svg width="28" height="28" xmlns="http://www.w3.org/2000/svg"><g fill="none"><circle fill="#9CE3E5" cx="14" cy="14" r="14"/><path d="M28 14c0 7.732-6.268 14-14 14S0 21.732 0 14h28z" opacity=".7" fill="#2E7689"/><circle fill="#36C7CE" cx="14.167" cy="14.167" r="12.833"/><path d="M20.327 8.333l6.332 6.303c-.101 6.688-5.692 11.933-12.416 12.015l-6.228-6.202h2.667v-7.563l2.982 4.518.511.287 2.958-4.363 3.194-4.995z" opacity=".7" fill="#3588A5"/><path fill="#EBFFFF" d="M17.304 20v-8.052l-3.47 5.268h-.07l-3.435-5.215V20H7.667V7.667h2.924l3.244 5.214 3.24-5.214H20V20z"/><path fill="#2FADAA" d="M10.464 20l.536.5H8.202l-.535-.5zm9.666 0l.537.5h-2.798l-.536-.5z"/><path fill="#28808E" d="M17 12l-3.333 5.278.49.389L17 13.288zm-6.652 7.939L10.333 12l.667.788v7.545zM20 19.938l.013-12.271.654.546v12.12z"/><path fill="#EBFFFF" d="M4.667 12.333h3v1.334h-3zm0 2.334h3V16h-3z"/><path fill="#2FADAA" d="M7.667 13.667v.5H5.19l-.523-.5zm0 2.333v.5H5.19l-.523-.5z"/><path fill="#EBFFFF" d="M20 12.333h3v1.334h-3z"/><path fill="#2FADAA" d="M22.838 13.667l.495.5h-2.837l-.496-.5z"/><path fill="#28808E" d="M23.667 14L23 13.594v-1.26l.667.406z"/><path fill="#EBFFFF" d="M20 14.667h3V16h-3z"/><path fill="#2FADAA" d="M22.838 16l.495.5h-2.837L20 16z"/><path fill="#28808E" d="M23.667 16.333L23 15.927v-1.26l.667.406z"/><path d="M15.517 27.977c6.465-.736 11.718-5.7 12.472-12.164l-.643-.643-.478-.479c-.332 6.757-5.696 11.849-12.514 12.167l.636.636.527.483" opacity=".7" fill="#2F7A8E"/><path d="M26.984 14c0-6.987-5.739-12.65-12.817-12.65C7.087 1.35 1.35 7.012 1.35 14c0-6.07 6.666-11.628 12.817-11.628 6.15 0 12.817 5.558 12.817 11.628z" opacity=".7" fill="#3CA7D5"/></g></svg>