<svg width="28" height="28" xmlns="http://www.w3.org/2000/svg"><g fill="none" fill-rule="evenodd"><circle fill="#FFF" cx="14" cy="14" r="14"/><circle fill="#000" cx="8.361" cy="8.337" r="1"/><circle fill="#000" cx="12.59" cy="5.794" r="1"/><circle fill="#000" cx="16.976" cy="8.337" r="1"/><path d="M9.406 12.207L6.467 15.43l-.76-.409c-.433-.227-.791-.378-.836-.333-.03.03-.925 1.09-1.97 2.346-1.043 1.24-1.894 2.3-1.894 2.345 0 .046.985-.756 2.178-1.755l2.193-1.846 1.477.666 1.492.65.089.817c.06.454.15 1.287.209 1.847l.12 1.044 1.7-5.085c.94-2.8 1.775-5.266 1.85-5.463.119-.363.178-.332 1.267.863 1 1.09 1.209 1.24 1.7 1.256.538 0 .687.151 3.417 3.496 1.581 1.921 2.82 3.359 2.774 3.177-.044-.166-.343-1.301-.671-2.496l-.567-2.18.88-.998c.493-.545.955-.999 1.03-.999.06 0 1.088 1.105 2.267 2.467a190.826 190.826 0 002.461 2.784c.269.257-4.206-5.917-4.594-6.34-.075-.091-.79.469-1.686 1.3-1.104 1.045-1.67 1.454-1.954 1.454-.313 0-.641-.303-1.61-1.59l-1.224-1.603-.806.106-.79.09-.85-1.044c-.463-.56-.88-1.029-.925-1.029-.045 0-1.402 1.453-3.028 3.239z" fill="#000" fill-rule="nonzero"/></g></svg>