<svg xmlns="http://www.w3.org/2000/svg" width="227" height="227"><path d="M68.551 60.003c-4.284 4.255-21.274 21.069-37.735 37.413L.886 127.11v1.203c0 1.174.058 1.233 18.897 19.866 10.387 10.27 19.19 18.838 19.601 19.014.41.176 1.086.264 1.526.176.528-.088 5.986-5.34 18.545-17.87l17.782-17.753 17.753 17.636c9.771 9.683 18.104 17.753 18.515 17.9a2.188 2.188 0 001.555.029c.44-.176 8.686-8.158 18.37-17.753 9.683-9.595 17.752-17.46 17.928-17.46.206 0 8.275 7.894 17.958 17.577 11.738 11.708 17.87 17.636 18.399 17.753.44.088 1.085.059 1.467-.117.381-.147 9.243-8.774 19.69-19.132 17.928-17.812 19.014-18.927 19.014-19.895s-1.32-2.348-23.857-24.736c-47.536-47.214-51.702-51.263-52.759-51.263-.821 0-2.729 1.76-18.809 17.664-9.86 9.742-18.017 17.694-18.163 17.694-.118 0-8.275-7.952-18.135-17.694C79.82 53.84 78.176 52.286 77.296 52.286c-.851 0-1.761.792-8.745 7.717zm15.582 5.106l6.631 6.69 1.76 4.842c1.556 4.342 1.703 4.841 1.204 4.93-.499.087-21.655-1.526-24.384-1.879l-1.409-.176V67.691l4.607-4.607c2.553-2.553 4.695-4.636 4.783-4.636.088 0 3.14 2.993 6.808 6.66zm68.81-5.135l1.526 1.555 1.936 8.01c1.057 4.402 1.908 8.129 1.849 8.275-.059.206-19.132-6.28-19.601-6.66-.118-.118 12.353-12.706 12.617-12.706.088 0 .851.704 1.673 1.526zm36.444 36.532c-.616.117-21.655-2.993-21.86-3.228-.206-.205-5.957-23.533-5.987-24.237 0-.206 6.368 5.868 14.114 13.498 7.776 7.658 13.939 13.938 13.733 13.967zM62.86 77.726c-.118 2.553-.206 7.072-.206 10.065v5.429l-12.412 3.492a2740.01 2740.01 0 01-14.29 4.02l-1.907.528 14.231-14.085c7.805-7.717 14.349-14.056 14.496-14.056.146 0 .205 1.79.088 4.607zm84.45 1.849l12.617 4.43 1.262 5.165c.675 2.847 1.203 5.194 1.174 5.253-.059.03-1.585.792-3.433 1.702l-3.316 1.672-4.9-2.875c-2.67-1.585-8.862-5.282-13.733-8.158l-8.891-5.282 3.14-3.14c1.73-1.76 3.227-3.168 3.315-3.168.088 0 5.84 1.966 12.765 4.401zm-37.384 11.092c2.905 2.787 3.551 3.286 4.343 3.286.792 0 1.585-.616 5.575-4.401l4.666-4.402 1.79 1.057c.998.586 1.79 1.232 1.79 1.408 0 .382-3.14 23.387-3.375 24.678-.117.763-.44 1.056-2.112 1.878l-1.937.939-5.164-2.113c-2.847-1.174-5.194-2.142-5.223-2.171-.118-.059-10.946-30.077-10.946-30.312 0-.117 1.614 1.38 3.61 3.316a1444.52 1444.52 0 006.983 6.837zm-26.467-4.754C90.47 86.471 96.222 86.94 96.25 87c.265.41 7.483 20.834 7.395 20.922-.059.088-8.158-3.17-17.988-7.19l-17.87-7.335-.088-3.17c-.058-1.73 0-3.726.088-4.43l.176-1.262 1.38.176c.763.088 7.1.616 14.114 1.203zm57.982 9.302c4.196 2.465 7.893 4.636 8.187 4.812.499.264-.88 1.057-9.449 5.34-5.516 2.76-10.035 4.93-10.035 4.813 0-.147.587-4.519 1.32-9.771.734-5.253 1.32-9.713 1.32-9.918 0-.47-.615-.793 8.657 4.724zm-70.19 4.988c3.2 1.32 5.81 2.524 5.81 2.7-.028.147-1.848 2.318-4.049 4.754-3.11 3.462-4.108 4.401-4.372 4.108-.587-.587-8.04-12.618-7.922-12.735.176-.176 3.814-1.203 4.284-1.233.235 0 3.051 1.086 6.25 2.406zm99.475-1.232l2.142.323 2.729 25.616c1.496 14.085 2.67 25.823 2.611 26.087-.058.322-2.523-1.937-7.512-6.955l-7.394-7.394 2.113-19.015c1.907-16.99 2.171-18.985 2.64-18.985.265 0 1.468.147 2.67.323zm-10.153 16.902c-.968 8.685-1.79 15.845-1.849 15.904-.088.088-1.496-1.203-3.169-2.847-2.905-2.875-3.08-2.993-4.284-2.993h-1.29l-8.716 8.715c-8.245 8.217-8.774 8.657-9.008 7.982-1.585-4.167-2.436-6.867-2.318-7.336.146-.499 14.847-24.942 16.138-26.79.44-.617 2.583-1.82 8.246-4.578 4.225-2.083 7.717-3.785 7.835-3.785.088-.03-.646 7.071-1.585 15.728zm21.626-15.23l3.17.5 3.814 8.362c2.083 4.607 3.814 8.568 3.814 8.803.03.235-2.376 4.783-5.34 10.094-5.223 9.302-5.429 9.625-5.634 8.657-.117-.558-1.027-8.657-1.995-18.017-.969-9.36-1.82-17.46-1.908-17.988-.205-1.115-.381-1.085 4.079-.41zm-121.98 7.307c2.611 4.167 4.783 7.747 4.841 7.923.06.205-3.14 3.961-7.1 8.333-4.02 4.431-7.22 7.747-7.278 7.512-.146-.733 1.996-30.253 2.23-30.458.176-.176 1.732-.705 2.406-.822.089-.03 2.29 3.375 4.9 7.512zm146.57 5.517a3841.74 3841.74 0 0012.97 12.793c2.024 1.966 2.054 1.996 1.496 2.612-.293.323-.763.587-1.027.587-.264 0-4.812-1.614-10.123-3.61l-9.654-3.58-4.49-9.947c-2.465-5.458-4.49-10.035-4.49-10.153 0-.117.998-.058 2.201.147l2.201.323zM46.75 114.552c-.47 6.485-.88 11.826-.939 11.884-.088.118-24.413-11.708-24.707-12.001-.059-.059 1.203-1.409 2.788-2.993l2.905-2.905 10.065-2.876c5.545-1.584 10.24-2.875 10.387-2.875.205-.03.03 4.078-.499 11.766zm39.966-8.187c3.726 1.438 3.961 1.585 3.873 2.26-.117.968-3.814 22.506-4.05 23.592l-.175.822-1.966-1.878c-5.311-5.136-5.429-5.224-6.984-5.224h-1.38l-13.292 13.264c-7.306 7.306-13.35 13.204-13.439 13.116-.323-.323.675-11.679 1.086-12.236.733-1.027 32.013-35.27 32.19-35.241.087 0 1.965.704 4.137 1.525zm20.07 8.422c6.31 2.612 11.62 4.871 11.826 5.076.381.382 5.458 14.584 5.282 14.79-.088.058-29.637-18.135-30.106-18.575-.118-.088.44-3.99.763-5.34.088-.352.293-.646.44-.646.176 0 5.458 2.113 11.796 4.695zm25.94 5.957c-2.787 4.607-5.164 8.304-5.252 8.186-.294-.293-3.58-9.741-3.463-9.859.264-.235 13.616-6.866 13.704-6.778.058.03-2.201 3.844-4.989 8.45zm-101.352 4.343c7.6 3.726 13.91 6.866 13.997 6.954.147.176-.557 11.825-.704 12.001-.03.03-6.016-1.056-13.322-2.377l-13.263-2.435-5.575-5.4c-3.081-2.963-5.605-5.457-5.605-5.574 0-.323 9.947-9.948 10.3-9.948.176 0 6.543 3.052 14.172 6.779zm66.668-.44l4.52 2.816v2.113c.029 1.144.205 6.25.41 11.327.235 5.076.352 9.301.264 9.39-.059.058-3.08-2.847-6.69-6.456l-6.602-6.602 1.32-7.483c.734-4.108 1.32-7.659 1.32-7.893 0-.558.44-.352 5.458 2.787zm102.497 10.035c2.435 5.37 4.43 9.86 4.43 9.977 0 .117-3.726 3.932-8.304 8.51l-8.275 8.274-2.142-2.142-2.142-2.172-.557-5.047-.558-5.076 6.338-11.297c3.492-6.192 6.427-11.18 6.573-11.033.118.117 2.23 4.636 4.637 10.006zm9.624-3.433c3.287 1.203 5.957 2.23 5.957 2.318 0 .088-1.614 1.79-3.61 3.756l-3.609 3.609-2.611-5.81c-1.438-3.198-2.67-5.927-2.729-6.074-.088-.147.03-.206.264-.118.235.06 3.081 1.116 6.338 2.319zm-91.844 5.986l8.539 5.281.821 2.436.851 2.406-7.13 7.13-7.101 7.102-2.847-2.847-2.846-2.875-.352-9.009c-.206-4.988-.44-10.651-.528-12.647l-.176-3.609 1.115.675c.616.381 4.959 3.052 9.654 5.957zm-83.453 10.094c5.165.968 9.39 1.79 9.42 1.848.029.06-.06 2.025-.206 4.402l-.264 4.284-1.82 1.79-1.79 1.79-7.922-7.923c-5.4-5.399-7.747-7.922-7.336-7.922.323 0 4.783.792 9.918 1.73z"/></svg>