<svg xmlns="http://www.w3.org/2000/svg" width="100" height="100"><path d="M20.5 20.75l-10 5.765V73.22l10.194 5.89L30.888 85l9.534-5.582 9.535-5.583 8.806 5.083C63.607 81.713 68.307 84 69.209 84c.902 0 5.836-2.426 10.965-5.39l9.326-5.391V26.558l-9-5.334c-4.95-2.933-9.557-5.58-10.237-5.881-.681-.301-5.524 1.962-10.763 5.029l-9.525 5.577-8.452-4.992c-4.649-2.746-9.031-5.213-9.738-5.482-.707-.27-5.785 2.104-11.285 5.275m2 2.362c-3.85 2.243-7.132 4.205-7.294 4.36-.265.255 49.869 29.547 51.985 30.374.489.191.757-3.833.598-8.966l-.289-9.313L50 29.363c-9.625-5.612-18.175-10.232-19-10.266-.825-.034-4.65 1.773-8.5 4.015m37.65.518c-7.231 4.098-7.236 4.075 2.1 9.299L68 36.147v-8.074c0-4.44-.338-8.066-.75-8.058-.412.009-3.608 1.635-7.1 3.615m11.079 16.539l.271 20.168 7.335 4.332C82.869 67.051 86.357 69 86.585 69c.228 0 .41-9.112.404-20.25l-.01-20.25-7.457-4.25C75.42 21.913 71.816 20 71.512 20c-.305 0-.432 9.076-.283 20.169M13 50.878c0 14.713.325 20.131 1.25 20.856.688.539 4.288 2.657 8 4.709L29 80.172l-.012-20.336-.013-20.336-7.337-4.25C17.602 32.913 14.008 31 13.65 31c-.357 0-.65 8.945-.65 19.878m19 .038v8.917l18.332 10.583C60.414 76.237 68.913 81 69.217 81c.304 0 4.03-1.982 8.28-4.404 7.653-4.362 7.704-4.418 5.365-5.891C77.296 67.199 33.195 42 32.626 42c-.344 0-.626 4.012-.626 8.916m0 21.001c0 4.445.245 8.083.544 8.083C33.513 80 46 72.592 46 72.018c0-.453-10.393-6.62-13.232-7.851-.422-.184-.768 3.304-.768 7.75" fill-rule="evenodd"/></svg>