<svg xmlns="http://www.w3.org/2000/svg" width="100" height="100"><path d="M44 6.845c0 1.015.848 2.613 1.885 3.551 1.037.938 2.169 3.124 2.516 4.858.564 2.82.077 3.713-4.635 8.495L38.5 29.092l4-.623c2.2-.343 8.05-1.172 13-1.842l9-1.219-6.25-3.219C52.413 19.184 52 18.743 52 15.52c0-2.433-.915-4.492-3.104-6.985C45.434 4.592 44 4.097 44 6.845m4.5 22.924c-5.5.844-10.137 1.641-10.304 1.771-.249.192-3.108 25.14-3.176 27.71-.011.413 1.442.749 3.23.748l3.25-.002L41 75.5c-.275 8.527-.275 15.498 0 15.491.275-.008 6.25-8.827 13.278-19.6l12.778-19.586-5.028.691c-3.28.451-5.028.327-5.028-.357 0-.577 1.8-6.094 4-12.262 2.2-6.167 4-11.362 4-11.545 0-.653-6.663-.073-16.5 1.437" fill-rule="evenodd"/></svg>