<svg xmlns="http://www.w3.org/2000/svg" width="226.777" height="226.777"><path d="M111.214.148c-.51.118-1.018.33-1.098.47-.108.118-.482.259-.83.259-.402.023-.643.164-.563.329.08.14-.16.4-.509.564-.348.14-.67.352-.75.423-.428.47-2.437 1.457-2.651 1.316-.161-.07-.241 0-.161.164.16.376-2.384 1.951-2.785 1.716-.161-.07-.215 0-.134.188.134.353-.563.729-.991.517-.134-.094-.161.047-.054.259.107.282.08.352-.134.235-.187-.094-.321-.07-.321.047 0 .352-2.09 1.527-2.384 1.34-.16-.071-.24 0-.134.187.08.212-.16.447-.67.635-.455.164-.83.376-.83.47 0 .305-2.115 1.457-2.383 1.292-.16-.07-.241 0-.134.188.08.212-.16.447-.67.635-.455.164-.83.376-.83.47 0 .094-.509.47-1.125.846a20.9 20.9 0 00-1.5.963c-.187.165-.455.306-.562.306-.134 0-.509.235-.884.517-.375.306-.937.705-1.285.893-.322.188-.911.588-1.286.893-.402.282-.937.494-1.178.423-.295-.047-.402.024-.295.235.08.188-.16.423-.562.588-.375.164-.697.352-.697.446 0 .094-.348.306-.776.47-.429.141-.857.447-.938.635-.107.211-.375.305-.67.235-.374-.07-.481-.024-.374.211.08.188-.161.423-.563.588-.375.164-.696.376-.696.47 0 .094-.241.235-.509.329-.295.07-.99.493-1.553.94-.563.446-1.232.87-1.473.963-.268.071-.482.212-.482.306 0 .259-1.34.752-1.634.611-.134-.07-.16 0-.08.188s-.322.588-1.018 1.01c-.643.377-1.206.753-1.286.823-.294.33-1.366.705-1.607.564-.134-.07-.187.024-.107.212.08.211-.08.446-.455.634-.348.141-.75.376-.884.47-.16.118-.696.47-1.178.823-.483.329-1.045.564-1.26.493-.24-.094-.32-.023-.24.188.107.212-.107.447-.536.611-.375.165-.696.376-.696.47 0 .094-.215.235-.51.33-.267.07-.776.352-1.124.61-.321.259-.75.4-.937.353-.215-.07-.295.023-.215.211.107.212-.107.447-.535.611-.375.165-.697.353-.697.447 0 .259-1.339.729-1.633.588-.134-.071-.161 0-.08.188.133.352-.563.728-.992.517-.134-.094-.16.023-.08.211.107.235-.08.47-.536.635-.375.164-.696.352-.696.446 0 .235-1.34.729-1.607.588-.107-.07-.187.07-.16.305.026.259-.161.4-.563.376-.322 0-.536.07-.455.188.08.094 0 .188-.188.188-.187 0-.241.07-.16.141.24.212-2.143 1.575-2.465 1.41-.134-.07-.214.047-.187.282.027.259-.16.4-.563.376-.32 0-.535.047-.482.141.161.235-.187.54-1.392 1.246-.616.376-1.26.611-1.393.517-.187-.07-.214 0-.134.211.107.235-.08.47-.536.635-.374.165-.696.376-.696.47 0 .094-.214.235-.509.329-.268.07-.776.353-1.125.611-.321.259-.75.4-.937.353-.214-.07-.295 0-.214.188.16.352-2.437 1.88-2.84 1.668-.133-.07-.187 0-.106.188.134.353-.563.729-.991.517-.134-.094-.161.047-.054.259.107.282.08.352-.134.235-.187-.094-.321-.07-.321.047 0 .352-2.09 1.527-2.384 1.34-.16-.071-.24 0-.134.187.161.376-.589.729-1.044.47-.188-.07-.241-.07-.134.047.375.353-2.223 2.162-2.705 1.88-.188-.07-.214 0-.134.212.107.259-.054.447-.509.588-.375.117-.696.305-.75.423-.214.376-2.357 1.527-2.625 1.363-.16-.07-.24 0-.16.188.107.188-.375.61-1.259 1.104-.777.447-1.58.94-1.794 1.128-.188.165-.536.259-.724.188-.24-.07-.294 0-.187.259.107.258.054.329-.134.211-.187-.094-.321-.07-.321.047 0 .353-2.09 1.528-2.384 1.34-.16-.07-.241 0-.134.188.16.376-.59.728-1.044.47-.188-.07-.241-.07-.134.047.375.352-2.223 2.162-2.705 1.88-.161-.07-.215 0-.134.188.08.212-.16.447-.67.635-.455.164-.83.376-.83.47 0 .305-2.116 1.457-2.384 1.292-.16-.07-.214 0-.134.212.08.211-.053.4-.375.47-.294.094-.83.4-1.205.681-.696.54-1.366.987-2.33 1.575-.321.188-.99.61-1.473.94-.482.329-1.152.752-1.473.94-.321.188-.83.54-1.125.752-.294.235-.67.352-.83.258-.134-.07-.188-.023-.107.094.16.212-.054.494-1.152 1.646-.16.164-.455.916-.67 1.668-.348 1.199-.401 6.463-.294 41.903.054 22.28.16 40.798.214 41.127.054.423.215.588.482.494.215-.07.322-.047.215.047-.349.352 2.41 2.843 4.713 4.253.83.517 1.688 1.034 1.848 1.175.188.118.938.611 1.66 1.058 1.688 1.034 2.036 1.316 1.795 1.528-.107.117-.027.117.134.023.188-.094.482-.047.67.094.187.141 1.044.705 1.874 1.27.83.563 1.447 1.104 1.34 1.198-.108.117-.027.117.134.023.187-.094.482-.047.67.094a71.808 71.808 0 002.838 1.857c.321.188.509.423.429.54-.08.094.026.118.24.07.188-.07.643.071 1.018.353 1.447 1.058 1.795 1.316 2.384 1.645 1.74 1.035 3.455 2.304 3.267 2.468-.107.118-.026.118.134.024.322-.165.59-.024 1.714.87.268.21.59.399.67.399.429 0 1.687 1.01 1.553 1.222-.134.164-.053.188.161.07.188-.094.402-.094.509.024.08.117.777.587 1.5 1.034 1.66 1.01 2.035 1.316 1.794 1.504-.08.094 0 .094.241.023.214-.07.67.047.964.282.322.235.884.635 1.286.87 1.286.846 1.74 1.246 1.553 1.41-.107.094-.026.094.215.024.214-.071.696.094 1.07.376.35.282.911.658 1.233.846.348.188.536.446.455.564-.08.117.054.14.268.07.241-.07.429-.047.429.094 0 .118.348.353.803.517.429.165.803.353.803.447 0 .07.429.4.938.705.509.305.857.658.75.799-.08.14-.027.164.134.07.294-.164.589-.023 1.687.87.268.211.59.4.67.4.428 0 1.687 1.01 1.553 1.221-.107.165-.054.188.107.094.268-.14 1.42.423 2.357 1.152.16.117.59.446.99.682.376.258.644.54.563.658-.08.094.027.117.241.07.188-.07.616.047.91.282.322.235.885.635 1.287.87 1.312.846 1.74 1.245 1.526 1.433-.107.118-.027.118.134.024.375-.188 2.946 1.41 2.839 1.762-.054.094.107.141.321.07.215-.093.402-.046.402.071 0 .141.295.353.67.494.375.164.83.376 1.017.517.188.14.643.47 1.072.728.401.259.67.588.589.705-.107.118 0 .165.187.094.188-.07.75.188 1.232.588.482.376 1.018.705 1.152.705.16 0 .187.118.08.282-.107.141-.08.188.08.118.349-.188 1.474.634 1.233.87-.107.093-.027.093.214.023.214-.07.67.047.964.282.322.235.83.587 1.152.775 1.366.823 1.875 1.222 1.74 1.434-.106.117 0 .14.215.094.187-.07.616.047.91.282.322.235.83.587 1.152.775.348.188.91.588 1.286.87.375.305.75.54.857.54.375 0 1.312.87 1.125 1.058-.108.117-.027.117.134.023.187-.094.482-.047.67.094a71.808 71.808 0 002.838 1.857c.321.188.509.423.429.54-.08.095.026.118.24.071.188-.07.617.047.938.282.295.235.884.635 1.259.893.375.259.83.564 1.017.705.188.118.938.611 1.661 1.058 1.66 1.01 2.035 1.316 1.794 1.504-.08.094.027.094.295 0 .241-.07.455-.024.455.094 0 .14.215.305.51.4.267.07.75.328 1.044.54.294.235.857.634 1.232.87.375.234.589.54.509.657-.08.141-.027.165.134.07.187-.093.455-.046.642.095a71.808 71.808 0 002.84 1.857c.32.188.508.423.428.54-.08.094.027.118.24.047.215-.07.831.259 1.42.705.563.47 1.125.846 1.205.846.349 0 1.286.87 1.125 1.034-.107.094-.026.094.215.024.214-.07.67.047.99.282.295.235.858.634 1.206.893.375.258.616.54.535.634-.053.094.08.118.295.047.241-.07.429-.023.429.094 0 .141.214.306.508.4.268.07.75.329 1.045.54.295.235.857.635 1.232.87s.616.517.536.634c-.08.094.053.118.267.047.241-.07.429-.047.429.094 0 .4 3.053.987 5.089.987 2.035 0 5.088-.587 5.088-.987 0-.14.188-.164.429-.094.214.07.348.047.268-.047-.08-.117.16-.4.535-.634a16.22 16.22 0 001.232-.87c.295-.211.777-.47 1.045-.54.294-.094.509-.259.509-.4 0-.117.187-.164.428-.094.214.07.348.047.295-.047-.08-.094.16-.376.535-.634.349-.259.911-.658 1.206-.893.321-.235.776-.353.99-.282.242.07.322.07.215-.024-.16-.164.777-1.034 1.125-1.034.08 0 .642-.376 1.205-.846.59-.446 1.205-.775 1.42-.705.214.07.32.047.24-.047-.08-.117.108-.352.429-.54a71.808 71.808 0 002.839-1.857c.187-.141.455-.188.643-.094.16.094.214.07.134-.07-.08-.118.133-.424.508-.659.375-.235.938-.634 1.232-.87.295-.21.777-.47 1.045-.54.295-.094.509-.258.509-.4 0-.117.214-.164.455-.093.268.094.375.094.295 0-.241-.188.134-.494 1.794-1.504.723-.447 1.473-.94 1.66-1.058.188-.14.643-.446 1.018-.705.375-.258.965-.658 1.26-.893.32-.235.75-.352.937-.282.214.047.32.024.24-.07-.08-.118.108-.353.43-.541a71.808 71.808 0 002.838-1.857c.188-.14.482-.188.67-.094.16.094.24.094.134-.023-.188-.188.75-1.058 1.124-1.058.108 0 .482-.235.857-.54.375-.282.938-.682 1.286-.87.321-.188.83-.54 1.152-.775.294-.235.723-.353.91-.282.215.047.322.023.215-.094-.134-.212.374-.611 1.74-1.434.322-.188.83-.54 1.152-.775.295-.235.75-.353.964-.282.241.07.322.07.214-.024-.24-.235.884-1.057 1.232-.87.161.071.188.024.08-.117-.106-.164-.08-.282.081-.282.134 0 .67-.329 1.152-.705.482-.4 1.044-.658 1.232-.588.187.07.294.024.187-.094-.08-.117.188-.446.59-.705a14.24 14.24 0 001.07-.728c.188-.141.644-.353 1.019-.517.374-.141.67-.353.67-.494 0-.117.187-.164.4-.07.215.07.376.023.322-.07-.107-.353 2.464-1.951 2.84-1.763.16.094.24.094.133-.024-.214-.188.214-.587 1.527-1.433.401-.235.964-.635 1.285-.87.295-.235.723-.352.91-.282.215.047.322.024.242-.07-.08-.118.187-.4.562-.658.402-.236.83-.565.991-.682.938-.729 2.09-1.293 2.357-1.152.16.094.214.07.107-.094-.134-.211 1.125-1.222 1.554-1.222.08 0 .401-.188.67-.4 1.097-.892 1.392-1.033 1.686-.869.161.094.215.07.134-.07-.107-.141.241-.494.75-.8.51-.305.938-.634.938-.704 0-.094.348-.282.803-.447.429-.164.804-.4.804-.517 0-.14.187-.164.428-.094.214.07.348.047.268-.07-.08-.118.107-.376.455-.564a11.94 11.94 0 001.232-.846c.375-.282.857-.447 1.072-.376.24.07.321.07.214-.024-.188-.164.268-.564 1.553-1.41.402-.235.964-.635 1.286-.87.294-.235.75-.352.964-.282.241.07.321.07.241-.023-.241-.188.134-.494 1.794-1.504.75-.447 1.42-.917 1.5-1.034.107-.118.322-.118.51-.024.213.118.294.094.16-.07-.134-.212 1.125-1.222 1.553-1.222.08 0 .402-.188.67-.4 1.125-.893 1.392-1.034 1.714-.87.16.095.24.095.134-.023-.188-.164 1.526-1.433 3.267-2.468.59-.329.938-.587 2.384-1.645.375-.282.83-.423 1.018-.352.214.047.32.023.24-.07-.08-.118.108-.353.43-.541a71.808 71.808 0 002.838-1.857c.188-.14.482-.188.67-.094.16.094.24.094.134-.023-.108-.094.508-.635 1.339-1.199.83-.564 1.687-1.128 1.874-1.269.188-.14.483-.188.67-.094.16.094.241.094.134-.023-.241-.212.107-.494 1.794-1.528.723-.447 1.473-.94 1.66-1.058.162-.14 1.019-.658 1.849-1.175 2.303-1.41 5.062-3.9 4.714-4.253-.108-.094 0-.118.214-.047.268.094.428-.07.482-.494.053-.329.16-18.848.214-41.127.107-35.44.054-40.704-.294-41.903-.215-.752-.51-1.504-.67-1.668-1.098-1.152-1.312-1.434-1.152-1.646.08-.117.027-.164-.107-.094-.16.094-.535-.023-.83-.258a17.735 17.735 0 00-1.125-.752 27.728 27.728 0 01-1.553-1.01c-.51-.353-1.045-.635-1.179-.635-.16 0-.214-.165-.134-.33.107-.21.027-.305-.16-.234-.188.047-.563-.047-.857-.259a99.06 99.06 0 01-1.58-1.057c-.563-.376-1.152-.705-1.286-.705-.16 0-.188-.165-.107-.376.08-.212.053-.282-.134-.212-.268.165-2.384-.987-2.384-1.292 0-.094-.375-.306-.83-.47-.509-.188-.75-.423-.67-.635.08-.188.027-.259-.134-.188-.482.282-3.08-1.528-2.705-1.88.108-.118.054-.118-.133-.047-.456.258-1.206-.094-1.045-.47.107-.188.027-.259-.134-.188-.294.188-2.384-.987-2.384-1.34 0-.117-.133-.14-.32-.047-.188.118-.242.047-.135-.211.107-.259.054-.33-.187-.259-.188.07-.536-.023-.723-.188-.215-.188-1.018-.681-1.795-1.128-.884-.493-1.366-.916-1.259-1.104.08-.188 0-.259-.16-.188-.268.164-2.41-.987-2.625-1.363-.054-.118-.375-.306-.75-.423-.455-.141-.616-.33-.509-.588.08-.212.054-.282-.134-.212-.482.282-3.08-1.527-2.705-1.88.107-.117.054-.117-.134-.047-.455.259-1.205-.094-1.044-.47.107-.188.027-.258-.134-.188-.295.188-2.384-.987-2.384-1.34 0-.117-.134-.14-.321-.046-.214.117-.241.047-.134-.235.107-.212.08-.353-.054-.259-.428.212-1.124-.164-.99-.517.08-.188.026-.258-.108-.188-.401.212-3-1.316-2.839-1.668.08-.188 0-.259-.214-.188-.187.047-.616-.094-.937-.353-.348-.258-.857-.54-1.125-.611-.295-.094-.509-.235-.509-.329 0-.094-.321-.305-.696-.47-.456-.165-.643-.4-.536-.635.08-.211.054-.282-.134-.211-.134.094-.777-.141-1.393-.517-1.205-.705-1.553-1.01-1.392-1.246.053-.094-.161-.14-.482-.14-.402.023-.59-.118-.563-.377.027-.235-.053-.352-.187-.282-.322.165-2.705-1.198-2.464-1.41.08-.07.027-.14-.16-.14-.188 0-.269-.095-.188-.189.08-.117-.134-.188-.456-.188-.401.024-.589-.117-.562-.376.027-.235-.054-.376-.16-.305-.269.14-1.608-.353-1.608-.588 0-.094-.321-.282-.696-.446-.455-.165-.643-.4-.536-.635.08-.188.054-.305-.08-.211-.429.211-1.125-.165-.991-.517.08-.188.053-.259-.08-.188-.295.14-1.634-.33-1.634-.588 0-.094-.322-.282-.697-.447-.428-.164-.642-.399-.535-.61.08-.189 0-.283-.214-.212-.188.047-.616-.094-.938-.353-.348-.258-.857-.54-1.125-.61-.294-.095-.509-.236-.509-.33 0-.094-.32-.305-.696-.47-.428-.164-.643-.4-.536-.61.08-.212 0-.283-.24-.189-.215.07-.777-.164-1.26-.493-.481-.353-1.017-.705-1.178-.823a5.521 5.521 0 00-.884-.47c-.375-.188-.535-.423-.455-.634.08-.188.027-.282-.107-.212-.241.141-1.312-.235-1.607-.564-.08-.07-.643-.446-1.286-.822-.696-.423-1.098-.823-1.017-1.011.08-.188.053-.258-.08-.188-.295.141-1.634-.352-1.634-.611 0-.094-.215-.235-.456-.306-.267-.094-.937-.517-1.5-.963-.562-.447-1.258-.87-1.553-.94-.268-.094-.509-.235-.509-.33 0-.093-.321-.305-.696-.47-.402-.164-.643-.399-.563-.587.108-.235 0-.282-.374-.211-.295.07-.563-.024-.67-.235-.08-.188-.509-.494-.937-.635-.429-.164-.777-.376-.777-.47 0-.094-.321-.282-.696-.446-.402-.165-.643-.4-.563-.588.107-.211 0-.282-.294-.235-.242.07-.777-.14-1.179-.423a12.362 12.362 0 00-1.285-.893c-.349-.188-.911-.587-1.286-.893-.375-.282-.75-.517-.884-.517-.107 0-.375-.141-.562-.306a26.08 26.08 0 00-1.473-.963c-.643-.376-1.152-.752-1.152-.846 0-.094-.375-.306-.83-.47-.51-.188-.75-.423-.67-.635.107-.188.027-.258-.134-.188-.268.165-2.383-.987-2.383-1.292 0-.094-.375-.306-.83-.47-.51-.188-.75-.423-.67-.635.107-.188.027-.258-.134-.188-.295.188-2.384-.987-2.384-1.34 0-.117-.134-.14-.321-.046-.214.117-.241.047-.134-.235.107-.212.08-.353-.054-.259-.428.212-1.124-.164-.99-.517.08-.188.026-.258-.134-.188-.402.235-2.947-1.34-2.786-1.716.08-.164 0-.235-.16-.164-.215.14-2.223-.846-2.652-1.316a3.344 3.344 0 00-.75-.423c-.348-.165-.59-.423-.509-.564.08-.165-.16-.306-.562-.33-.348 0-.723-.117-.83-.258-.483-.681-5.464-.987-7.526-.47zm11.463 16.334c-.054.282.107.423.455.423.348 0 .536.164.536.47 0 .305.187.47.535.47.536 0 .536.188.616 7.215l.054 7.238h-4.419l.08-6.228.08-6.228h-13.472l.108 1.88.08 1.88h-4.152v-5.64l1.019-.916.99-.917 8.785-.023c8.169-.024 8.785 0 8.705.376zM94.073 34.178v9.87h-4.285v-19.74h4.285zm56.457-.54l.08 1.95h-13.953v-3.995l6.91.047 6.883.07zm-38.352.658c.214.188.535.658.67 1.057.16.376.374.705.481.705.108 0 .375.423.563.94.187.517.455.94.562.94.107 0 .349.376.536.823.187.446.429.822.536.822.107 0 .321.282.482.635.187.376.482.916.696 1.245.804 1.223.59 1.41-1.58 1.41-2.49 0-2.732-.093-3.107-1.08-.16-.447-.402-.8-.535-.8-.134 0-.375-.376-.536-.822-.16-.447-.429-.823-.563-.823a.246.246 0 01-.24-.235c0-.258-2.384-4.018-2.679-4.23-.107-.07-.24-.305-.348-.54-.16-.353.054-.4 2.25-.4 1.767 0 2.517.094 2.812.353zm19.658 5.992c.188.376.429.705.563.705.134 0 .294.259.401.588.08.329.295.588.456.588.16 0 .214.07.107.14-.08.071-.027.259.107.424 1.044 1.104 1.312 1.433 1.446 1.81.107.258.268.446.402.446.107 0 .295.258.375.564.08.329.321.728.509.893.616.564 1.794 2.209 1.794 2.49 0 .165.107.283.241.283s.348.211.429.47c.08.258.321.611.482.775.643.588 1.446 1.716 1.634 2.233.107.282.294.517.401.517.134 0 .375.306.563.705.187.376.428.705.535.705.107 0 .349.353.563.752.187.423.402.823.482.893.107.07.482.54.91 1.081.697.893.724 1.081.724 3.69v2.75h-.67c-.428 0-.67-.141-.67-.353 0-.188-.107-.352-.24-.352-.134 0-.376-.33-.563-.705-.187-.4-.429-.705-.536-.705-.16 0-.589-.658-.83-1.293-.027-.141-.187-.353-.295-.47-.133-.141-.455-.494-.75-.8-.32-.328-.615-.822-.696-1.127-.107-.306-.268-.54-.401-.54-.134 0-.349-.189-.429-.424-.107-.211-.643-.987-1.205-1.692-.563-.705-1.018-1.433-1.018-1.598 0-.14-.107-.282-.241-.282s-.375-.329-.562-.705c-.188-.4-.429-.705-.536-.705-.188 0-.884-1.222-.804-1.387.027-.047-.053-.164-.187-.235-.321-.211-1.687-2.02-1.687-2.232 0-.212-.697-.846-.91-.846-.081 0-.162 4.066-.162 9.048v9.048h-4.553V39.583h2.25c2.223 0 2.25 0 2.571.705zm20.89 4.818v1.998h-4.418l.054-1.81c.027-1.01.054-1.903.08-2.02 0-.095.964-.165 2.143-.165h2.143zm-79.811 1.645c0 1.904-.027 2.021-.67 2.28-.375.14-.67.352-.67.446 0 .094-.294.235-.642.306-.375.07-.83.282-1.018.446-.696.541-1.982 1.27-2.571 1.434-.321.094-.59.259-.59.353 0 .117-.401.352-.856.517-.482.164-.991.4-1.152.493-.134.118-.562.4-.91.658-.349.259-.858.517-1.125.588-.295.094-.51.235-.51.352 0 .118-.428.33-.937.47-.509.141-.937.353-.937.47 0 .094-.348.306-.804.47-.428.165-.803.376-.803.494 0 .117-.16.211-.348.211-.214 0-.643.212-.991.47-.348.259-.75.47-.937.47-.456 0-1.232-.822-1.018-1.057.134-.094.053-.118-.107-.024-.188.094-.482.047-.67-.07a17.06 17.06 0 00-1.018-.705l-.67-.447.67-.493c.375-.259.938-.564 1.286-.635.321-.07.59-.235.59-.329 0-.094.374-.305.803-.47.455-.164.803-.376.803-.47 0-.094.402-.329.884-.493.455-.165.99-.4 1.125-.494.16-.117.562-.4.91-.658.375-.282.938-.54 1.286-.611.348-.094.616-.235.616-.329 0-.094.375-.306.803-.47.456-.165.804-.4.804-.517 0-.141.187-.188.375-.118.268.094.348.024.24-.211-.106-.259-.749-.33-3.052-.33h-2.92v-3.994h14.731zm35.031 1.692l-.08 2.068-2.062.071-2.063.07-.08-2.138-.08-2.115h4.446zm72.58 5.17l-.08 2.069-12.24.07-12.266.047v-4.23h24.667zM78.004 52.369c0 .165.241.54.536.846.295.306.536.635.536.729 0 .094.16.329.348.493.616.564 1.794 2.21 1.794 2.491 0 .165.107.282.241.282s.375.306.563.705c.187.376.428.705.562.705.107 0 .268.188.375.447.08.235.402.681.697.987.294.306.482.729.428.94-.08.235.027.376.321.353.268-.024.429.164.402.446 0 .635 1.152.705 1.366.094.107-.235.268-.446.375-.446.107 0 .348-.282.536-.635.375-.705 2.142-3.102 2.624-3.549a1.95 1.95 0 00.482-.775c.108-.306.322-.423.563-.353.214.07.321.024.24-.094-.133-.211 1.072-2.303 1.5-2.585.081-.07.402-.493.67-.94l.51-.822.08 3.266c.026 1.81-.027 3.337-.161 3.408-.322.211-1.929 2.42-1.929 2.679 0 .118-.187.165-.374.094-.268-.094-.349-.023-.268.165.08.164-.027.47-.215.634-.214.188-.535.682-.723 1.081-.187.423-.455.776-.589.776-.107 0-.295.211-.375.47a2.05 2.05 0 01-.482.752c-.187.164-.67.775-1.125 1.363a15.884 15.884 0 01-1.125 1.363c-.187.164-.348.47-.348.634 0 .752-.509.494-1.366-.658-.482-.681-1.044-1.363-1.232-1.527-.187-.165-.428-.564-.509-.87-.08-.305-.348-.61-.562-.681-.241-.094-.348-.33-.268-.588.08-.352.027-.423-.294-.329-.268.094-.349.047-.215-.117.107-.165.054-.282-.107-.282-.187 0-.24-.165-.16-.4.107-.235.107-.329 0-.235-.161.141-.67-.352-1.634-1.645-1.42-1.833-1.688-2.233-1.688-2.42 0-.142-.08-.236-.187-.236-.134 0-.214-1.48-.214-3.266 0-1.81.08-3.22.214-3.15.107.048.187.236.187.4zm37.228 14.9v9.612l-1.098.963-1.098.987h-8.544c-4.928 0-8.517-.094-8.436-.211.08-.118-.054-.188-.322-.165-.294.024-.455-.14-.455-.446s-.187-.47-.536-.47c-.348 0-.535-.141-.508-.4.026-.235-.054-.352-.188-.282s-.24-1.08-.24-2.585v-2.726h4.338l-.107 1.81-.08 1.833h13.122l-.08-8.766-.054-8.743h4.285zm82.222 1.927v7.05H192.9v-14.1h4.553zM176.966 66c.214.164.535 1.01.696 1.88.187.846.429 1.551.509 1.551.107 0 .348.776.562 1.74.188.963.429 1.715.536 1.644.107-.047.268.423.375 1.081.107.635.268 1.222.402 1.293.107.07.375.799.562 1.645.188.846.429 1.527.509 1.527.107 0 .348.8.536 1.763.187.964.428 1.763.535 1.763.107 0 .295.47.456 1.057l.267 1.058h-2.062c-2.196 0-2.41-.118-2.41-1.199 0-.235-.107-.446-.215-.446-.133 0-.375-.752-.562-1.645-.187-.917-.429-1.645-.562-1.645-.108 0-.295-.518-.402-1.176-.107-.634-.268-1.222-.402-1.292-.107-.07-.348-.823-.536-1.692-.187-.893-.455-1.669-.589-1.74-.134-.07-.268-.68-.294-1.315-.027-.658-.134-1.152-.241-1.081-.134.047-.215-.165-.215-.47 0-.706-.428-.87-2.303-.87-1.152 0-1.5.094-1.607.4-.08.235-.241.587-.375.799-.134.211-.294.87-.402 1.48-.107.588-.321 1.081-.455 1.081-.16 0-.214.212-.134.47.08.259.027.47-.08.47s-.295.517-.402 1.175c-.107.635-.268 1.175-.402 1.175-.107 0-.348.8-.535 1.763-.188.964-.429 1.763-.536 1.763-.08 0-.321.705-.509 1.55-.482 2.35-.616 2.445-2.892 2.445-1.848 0-1.955-.024-1.955-.54 0-.283.187-.8.375-1.152.214-.376.482-1.128.589-1.716.08-.587.268-1.057.375-1.057.107 0 .321-.753.509-1.646.187-.916.428-1.645.535-1.645.107 0 .348-.752.536-1.645.187-.916.428-1.645.562-1.645.107 0 .268-.54.375-1.175.107-.658.268-1.175.402-1.175.107 0 .375-.799.562-1.763.188-.963.456-1.692.563-1.621.134.07.24-.094.24-.353 0-1.198.028-1.198 4.741-1.198 3.402 0 4.5.07 4.768.329zM46.4 70.182v1.95H24.171v-3.877H46.4zm8.838 0v1.95h-4.285v-3.877h4.285zM74.79 73.66v5.194l-2.197-.07-2.223-.071-.08-4.818c-.027-2.632 0-4.935.054-5.1.107-.211.803-.305 2.303-.305h2.143zm136.831-1.01c.295.493.697 1.151.884 1.48.187.33.482.729.67.87.16.164.375.61.482 1.01.107.376.267.705.375.705.214 0 .964 1.27.776 1.316-.026 0 .134.212.402.447.268.235.429.611.375.87-.08.235-.027.352.134.282.295-.165.75.305.75.775 0 .235-.67.306-2.437.306-2.09 0-2.41-.047-2.277-.376.08-.188.054-.282-.107-.212-.16.07-.268-.023-.268-.211 0-.212-.107-.376-.24-.376-.135 0-.403-.376-.59-.823-.188-.447-.429-.823-.536-.823-.107 0-.348-.352-.535-.775-.188-.4-.51-.893-.697-1.058-.187-.164-.348-.47-.348-.658 0-.188-.107-.329-.241-.329s-.375-.352-.59-.775c-.187-.4-.428-.8-.508-.87-.107-.07-.375-.47-.616-.893l-.402-.752h5.035zm-79.785 10.058V89.9l-2.33-.07-2.357-.071-.08-6.816c-.027-3.736 0-6.933.08-7.097.08-.212.804-.306 2.41-.306h2.277zm17.944-3.642v2.138l-2.062-.07-2.089-.07-.08-2.069-.08-2.045h4.311zm-83.347 2.28c-.267.046-.482.21-.482.328 0 .141-.107.165-.268.094-.133-.07-.267-.023-.267.118 0 .164-.188.211-.456.14-.267-.093-.375-.093-.267 0 .214.189-.75.964-1.447 1.152-.294.094-.509.235-.509.353 0 .117-.267.282-.589.376-.589.164-1.875.87-2.544 1.433a2.93 2.93 0 01-.884.423c-.295.07-.536.235-.536.33 0 .117-.401.352-.857.516-.482.165-1.017.47-1.178.658a.72.72 0 01-.75.188c-.268-.094-.402-.07-.295.071.08.117.027.446-.16.729-.161.282-.188.446-.027.352.134-.07.402 0 .562.188.188.188.616.4.965.47.374.094.67.235.67.353 0 .117.374.329.803.493.455.165.803.376.803.494 0 .094.214.235.509.329.428.117.857.376 2.089 1.292.187.141.643.353 1.018.47.375.118.67.33.67.447 0 .117.294.282.642.352.375.07.83.282 1.018.447.187.164.776.517 1.285.822l.938.517h-7.232l-1.74-.987c-.965-.54-1.902-1.128-2.09-1.292-.187-.165-.455-.306-.589-.306-.134 0-.401-.14-.589-.305-.187-.165-.803-.54-1.366-.846-.535-.282-.937-.635-.857-.752.107-.118-.027-.141-.24-.07-.242.093-.858-.165-1.447-.565-.563-.4-1.366-.846-1.768-1.01-.402-.165-.67-.423-.589-.588.08-.188 0-.258-.268-.164-.67.211-.402-.377.375-.8.402-.235.884-.54 1.071-.705.188-.164.643-.376.991-.446.349-.07.697-.282.777-.47.08-.188.321-.33.536-.33a.652.652 0 00.535-.375c.107-.259.349-.33.723-.259.322.07.483.07.402 0-.16-.14.857-1.01 1.205-1.01.108 0 .375-.141.563-.306.643-.54 2.517-1.574 2.839-1.574.187 0 .321-.094.321-.188 0-.517 1.446-.729 4.821-.705 1.982 0 3.401.047 3.16.117zm131.02 4.887v1.998H192.9v-3.995h4.553zm-161.552.54c.08 1.552 0 1.787-.509 2.187-.32.235-.75.446-.91.446-.188 0-.402.165-.509.353a.637.637 0 01-.536.352c-.214 0-.562.141-.75.282-.642.564-2.517 1.598-2.838 1.598-.188 0-.322.094-.322.212 0 .117-.24.305-.536.376-.294.07-.696.282-.883.423-.616.517-2.036 1.34-2.277 1.34-.134 0-.509.21-.857.47-.83.634-1.312.587-2.303-.236-.482-.376-.938-.61-1.045-.517-.134.094-.134-.023-.053-.258.107-.259.08-.376-.08-.282-.161.07-.51 0-.83-.188l-.563-.353.562-.164c.322-.07.723-.282.884-.423.67-.54 2.517-1.575 2.839-1.575.187 0 .321-.094.321-.211 0-.118.241-.306.536-.376.616-.165 1.339-.752 1.339-1.081 0-.118-3.428-.212-8.436-.212H9.708v-3.995l13.07.047 13.043.07zm72.5 4.63v1.998H86.039v-3.995h22.364zm10.58 0v2.022l-2.33-.07-2.357-.071-.08-1.95-.081-1.928h4.847zm28.175 3.056l-.107 1.762h-4.232v11.516h19.819v3.643l-11.034-.07c-11.088-.048-11.972-.118-11.624-.894.08-.164 0-.376-.16-.47-.188-.094-.215-.07-.108.094.241.376-.187.353-.589 0-.375-.329-.482-15.816-.08-15.605.134.07.214-.047.187-.282 0-.235.16-.376.429-.376.267.024.401-.07.294-.211-.428-.588.83-.87 4.044-.87h3.241zm21.372 2.115v2.021l-2.33-.07-2.357-.07-.08-1.952-.08-1.927h4.847zm35.3-.07l-.08 1.95h-22.23l-.08-1.95-.081-1.928h22.551zm-117.79 5.475v1.998l-6.213-.047-6.24-.07-.081-1.599c-.054-.987.054-1.739.241-1.95.241-.259 1.473-.33 6.294-.33h6zm38.674-1.48c-.027.235.107.329.295.258.375-.117 1.044.705.776.94-.08.07.08.094.349.094.455-.047.482.376.562 7.544l.054 7.615-1.179 1.034-1.205 1.034h-6.187v-3.76h3.991l.08-5.711.08-5.688-9.829.07-9.829.048-.08-1.998-.08-1.997 11.114.047c10.204.07 11.115.094 11.088.47zm-60.662 2.068c.16.658.294 1.363.294 1.527 0 .188.107.353.241.353s.402.728.59 1.645c.187.893.401 1.645.508 1.645.108 0 .295.47.375 1.058.108.587.349 1.34.563 1.668.187.353.428 1.152.535 1.763.108.634.268 1.151.402 1.151.107 0 .348.8.536 1.763.187.964.428 1.692.536 1.645.107-.07.294.4.401 1.01.107.612.295 1.293.429 1.505.24.4.08.423-2.009.423h-2.276l-.161-1.293c-.107-.705-.295-1.245-.402-1.175-.107.047-.348-.681-.535-1.645-.188-.964-.429-1.763-.536-1.763-.134 0-.295-.54-.402-1.175-.107-.658-.268-1.175-.375-1.175-.107 0-.375-.752-.562-1.645-.188-.916-.429-1.645-.536-1.645-.107 0-.321-.752-.509-1.645l-.348-1.645h-3.642l-.161 1.057c-.107.588-.295 1.058-.402 1.058-.134 0-.294.517-.402 1.175-.107.635-.294 1.222-.455 1.316-.16.07-.214.282-.134.47.08.165.027.376-.08.447-.134.07-.321.658-.429 1.292-.107.658-.267 1.128-.375 1.058-.107-.047-.348.752-.535 1.762-.214 1.034-.456 1.88-.563 1.88-.107 0-.321.73-.509 1.646l-.348 1.645h-4.5l.162-.658c.107-.353.267-.752.375-.87.107-.14.294-.681.401-1.245.107-.541.268-.987.375-.987.134 0 .375-.8.563-1.763.187-.964.428-1.763.535-1.763.134 0 .295-.517.402-1.151.107-.611.348-1.41.536-1.763.214-.329.455-1.08.562-1.668.08-.588.295-1.058.429-1.058.16 0 .214-.212.134-.47-.08-.259-.027-.517.08-.588.134-.07.321-.61.428-1.175.08-.587.268-1.057.375-1.057.107 0 .295-.47.375-1.058l.188-1.057h9.561zm-24.881 11.797v7.239h-4.821V107.15h4.82zm178.8-6.298l1.178 1.034v21.433h-4.285v-19.74h-13.124v3.783l-2.062-.07-2.089-.071-.08-2.68c-.08-2.678.16-3.477.91-3.219.215.07.295 0 .215-.188-.161-.376.562-.94.937-.728.188.07.214 0 .134-.212-.134-.329.777-.376 8.463-.376h8.624zm-195.941 5.311v2.115h-4.553v-1.95c0-1.081.08-2.045.187-2.115.08-.094 1.125-.165 2.277-.165h2.089zm64.037-.423c.187.423.455.87.562 1.01.134.118.456.494.75.8.322.329.616.822.697 1.105.08.282.321.587.535.658.215.07.375.282.375.47s.16.493.348.658c.616.564 1.795 2.209 1.795 2.49 0 .165.107.283.24.283.135 0 .376.305.563.705.188.376.429.705.51.705.106 0 .4.352.642.752.428.752.884 1.41 1.34 1.927.856 1.058 1.793 2.42 1.793 2.656 0 .164.108.305.242.305.133 0 .374.306.562.705.187.376.428.705.562.705.134 0 .295.259.402.588.08.329.241.587.348.587.536 0 .83 1.41.83 3.76 0 2.515-.026 2.586-.589 2.586-.75-.024-1.66-1.058-1.42-1.598.081-.212.081-.306-.026-.235-.08.094-.321.047-.482-.118-.455-.423-2.223-2.82-2.598-3.525-.187-.353-.402-.635-.509-.635-.107 0-.375-.352-.562-.775-.188-.4-.536-.87-.75-1.01-.214-.142-.295-.424-.214-.635.107-.259.053-.33-.241-.235-.188.07-.375.023-.375-.118 0-.117-.322-.61-.697-1.104-.375-.494-.616-1.034-.535-1.222.08-.189.026-.259-.107-.189-.161.071-.268.024-.268-.117 0-.141-.134-.188-.322-.094-.214.117-.24 0-.16-.329.107-.282.08-.47-.027-.423-.107.07-.482-.282-.83-.752-.375-.47-.724-.917-.804-.987-.402-.33-.83-1.41-.696-1.622.134-.164.027-.211-.215-.117-.294.094-.428 0-.428-.235 0-.212-.107-.376-.268-.376-.16 0-.294 3.266-.321 8.977l-.08 9.001-2.33.07-2.358.071v-12.784c0-7.027.08-12.856.188-12.926.08-.094 1.152-.165 2.357-.165h2.223zm23.006 8.179v5.405h-4.82v-10.811h4.82zm32.407 1.762v1.998h-4.553v-3.995h4.553zm28.121.118v2.115h-15.533v-4.23h15.533zm10.981 6.463v7.873h-4.553v-15.746h4.553zm-48.878-2.468v1.998h-4.205l-.026-2.068-.054-2.069 2.143.071 2.142.07zm-64.68 3.055v2.115l-11.168-.047-11.195-.07-.08-1.74c-.054-.963-.027-1.88.053-2.067.108-.259 2.197-.306 11.276-.306h11.115zm-48.797 1.457l-.08 1.951-2.09.07-2.062.071.054 5.57.08 5.57 9.99.07 9.99.047-.08 1.833-.08 1.81-10.955.07c-11.061.047-11.918 0-11.57-.775.054-.165-.08-.282-.321-.259-.295.024-.456-.164-.456-.446 0-.306-.16-.447-.482-.4-.428.07-.455-.47-.455-7.497v-7.567l1.018-.987.99-1.01 3.295-.024 3.294-.024zm149.821 10.106l.08 7.238h-4.151v-12.432l-6.615-.07-6.642-.07.08 1.809.107 1.833h-4.338v-5.311l1.151-.988 1.125-.987 8.437-.047 8.436-.07 1.125.916 1.125.94zm34.71-8.296c.322.235.482.493.402.587-.107.094-.027.094.214.024.214-.07.67.047.964.282.322.235.777.54 1.045.682.402.211.268.352-1.125 1.034-.857.446-1.687.893-1.848.987-.99.705-2.41 1.363-2.705 1.269-.214-.07-.295 0-.214.211.08.165-.08.376-.375.447-.295.094-.804.376-1.152.634-.348.259-.83.423-1.071.376-.268-.07-.429.024-.402.282.027.235-.187.376-.562.353-.322 0-.536.047-.482.14.053.071-.349.4-.884.706-.536.329-1.072.658-1.152.775-.08.094-.402.212-.696.235-.375.024-.51.141-.402.447.107.4.723.423 10.124.423h10.016v4.113l-14.489-.047c-7.954-.047-14.596-.118-14.73-.188-.134-.094-.241-.917-.241-1.88 0-1.598.053-1.763.723-2.233.402-.259.91-.423 1.125-.353.214.071.321.071.24-.023-.401-.33 2.063-1.833 2.679-1.622.241.07.348.07.268-.023-.268-.212.428-.752 1.446-1.152.482-.188.777-.329.616-.352-.134 0 .402-.33 1.205-.752.804-.4 1.607-.87 1.822-1.034.187-.188.642-.4.99-.47.349-.07.697-.282.777-.47.08-.188.322-.33.509-.33.214 0 .643-.21.991-.47.348-.258.777-.47.99-.47.188 0 .35-.117.35-.258 0-.117.374-.352.803-.47.455-.141.803-.329.803-.447 0-.094.375-.305.804-.47.455-.164.803-.376.803-.47 0-.164.375-.329 1.098-.446.08 0 .429.164.723.423zm-71.08.893c.615.376 1.151.752 1.205.846.053.118.401.306.803.423l.697.259-.67.446c-.375.235-.83.564-1.018.705-.187.141-.535.188-.75.118-.214-.07-.348-.047-.268.047.08.117-.348.446-.91.775-.59.306-1.071.635-1.071.705 0 .094-.402.306-.857.47-.483.165-1.018.47-1.179.658-.16.188-.482.259-.723.188-.295-.094-.375-.047-.268.212.107.235 0 .282-.348.164-.295-.094-.402-.07-.268.118.107.164-.08.329-.482.423-.348.07-.723.305-.803.493-.108.212-.375.306-.697.235-.294-.07-.482-.047-.401.047.053.094-.375.423-.938.752-.59.306-1.071.635-1.071.729 0 .117-.188.188-.402.188-.214 0-.402.211-.402.47 0 .47.188.47 10.312.47h10.338l-.08 1.81-.081 1.833-14.784.07-14.81.047v-1.856c0-1.951.428-2.797 1.258-2.515.214.07.295.023.214-.094-.08-.141-.026-.235.107-.235.161 0 .536-.212.83-.47.295-.259.724-.47.938-.47.214 0 .402-.118.402-.259 0-.14.187-.188.428-.117.215.07.349.047.268-.047-.08-.118.348-.447.91-.776.59-.305 1.072-.634 1.072-.728 0-.07.429-.282.938-.423.508-.141.937-.353.937-.47 0-.094.375-.306.803-.47.456-.165.804-.376.804-.494 0-.094.268-.258.59-.352.32-.07.749-.306.963-.494.214-.188.59-.258.804-.188.24.07.348.07.24-.023-.24-.212.831-1.01 1.608-1.175.321-.094.535-.235.455-.353-.08-.117.027-.211.214-.211.188 0 1.125-.47 2.09-1.058.963-.588 1.794-1.058 1.847-1.058.08 0 .616.282 1.205.635zm-70.117 13.349c-.214.211-.482.564-.562.822-.08.259-.268.47-.402.47-.107 0-.348.306-.51.705-.133.376-.4.705-.535.705-.16 0-.294.165-.294.353 0 .211-.188.423-.402.493-.214.094-.402.306-.402.494s-.107.258-.268.188c-.134-.07-.187 0-.134.188.08.164-.08.564-.401.87-.295.305-.536.61-.536.705 0 .258-.99 1.175-1.125 1.057-.053-.07-.107.118-.107.423.027.33-.134.517-.402.494-.294-.024-.401.117-.321.376.08.211-.054.54-.268.728-.214.188-.562.635-.777.987l-.375.658-.857-1.151c-.482-.658-.857-1.293-.857-1.434 0-.14-.107-.258-.24-.258-.135 0-.376-.33-.563-.705-.188-.4-.429-.705-.563-.705-.107 0-.294-.212-.374-.47a2.05 2.05 0 00-.483-.753c-.428-.399-2.865-3.666-2.865-3.83 0-.094-.188-.306-.429-.517-.214-.212-.348-.517-.268-.682.08-.164 0-.258-.187-.188-.241.07-.321-.728-.321-3.196 0-2.703.053-3.22.348-2.89.16.21.321.493.321.61 0 .094.188.353.429.564.214.212.348.517.267.682-.08.211 0 .259.295.164.268-.094.375-.047.268.095-.107.14-.107.305 0 .352.134.024.562.54 1.018 1.128.428.588.857 1.105.937 1.175.08.07.321.423.536.823.214.376.562.846.75 1.034.187.164.294.47.214.634-.08.212 0 .259.294.165.268-.094.375-.047.268.094-.107.14-.107.305 0 .352.295.094 1.42 1.528 1.42 1.786 0 .141.294.282.642.33.429.07.616.023.536-.165-.08-.165.027-.447.214-.611.188-.188.724-.8 1.152-1.387.455-.587.884-1.104 1.018-1.128.107-.047.107-.211 0-.352s0-.188.268-.094c.321.094.375.047.267-.235a.552.552 0 01.215-.635c.214-.14.562-.61.75-1.034.187-.4.455-.752.562-.752.107 0 .348-.329.536-.705.187-.4.401-.705.509-.705.08 0 .589-.658 1.098-1.434l.937-1.433.08 3.196c.054 2.585 0 3.29-.321 3.549zm19.257-.353v1.998h-4.553l-.08-1.74c-.054-.963-.028-1.88.053-2.067.107-.259.67-.306 2.357-.259l2.223.07zm24.773 13.396c0 5.476-.107 8.46-.267 8.484-.134 0-1.152 0-2.197.023h-1.955l-.08-8.484-.054-8.484h4.553zm-23.756-4.254c.536.282.991.635.991.752 0 .118.188.212.402.212.214 0 .509.211.67.446.214.376.16.494-.268.611-.295.07-.536.235-.536.33 0 .117-.348.328-.803.493-.429.164-.804.376-.804.493 0 .118-.294.259-.67.353-.374.07-.669.235-.669.329 0 .117-.214.258-.509.352-.268.07-.777.353-1.125.611-.348.259-.83.423-1.071.376-.348-.07-.429 0-.321.259.107.212.053.306-.108.212-.16-.095-.348-.095-.401.023-.107.235-2.866 1.81-3.777 2.186-.401.164-.723.376-.723.47 0 .094-.24.258-.535.329-.295.07-.536.305-.536.493 0 .282 1.5.33 10.043.33h10.044v4.229l-14.516-.047-14.543-.07-.08-1.95c-.08-1.787-.027-2.022.508-2.421.349-.259.884-.517 1.232-.588.349-.094.616-.235.616-.329 0-.117.241-.282.536-.352.295-.07.696-.282.857-.423.562-.47 2.598-1.575 2.893-1.575.133 0 .267-.094.267-.211 0-.118.375-.33.804-.494.455-.165.803-.376.803-.494 0-.094.268-.258.59-.352.589-.165 1.874-.893 2.57-1.434.188-.164.643-.376 1.018-.446.349-.07.643-.235.643-.33 0-.117.241-.281.536-.352a2.93 2.93 0 00.884-.423c.616-.517 2.035-1.34 2.276-1.34.134 0 .509-.21.857-.47.348-.258.697-.446.777-.422.08.047.616.329 1.178.634zm65.403-.14c.188.164.429.751.536 1.315.107.54.348 1.27.535 1.598.215.33.429 1.128.536 1.74.107.634.268 1.151.402 1.151.107 0 .348.776.562 1.74.188.963.429 1.715.536 1.668.08-.07.321.681.509 1.645.187.963.428 1.762.562 1.762.107 0 .268.447.375.987.107.564.295 1.105.402 1.246.16.188.803 2.444.803 2.82 0 .07-.937.118-2.115.118-2.09 0-2.116 0-2.25-.658-.241-1.034-.322-1.316-.51-1.575-.08-.141-.24-.729-.347-1.363-.107-.611-.295-1.105-.402-1.105-.107 0-.348-.799-.536-1.762-.187-.964-.428-1.763-.562-1.763-.107 0-.348-.775-.536-1.739-.187-.963-.428-1.715-.535-1.668-.107.07-.268-.377-.375-.988-.295-1.762-.536-1.95-2.464-1.95-1.634 0-1.688.023-1.688.587 0 .33-.107.588-.24.588-.108 0-.376.799-.563 1.763-.188.963-.429 1.762-.536 1.762-.107 0-.321.729-.509 1.645-.187.893-.428 1.692-.562 1.763-.107.07-.295.61-.402 1.222-.107.634-.321 1.269-.455 1.41-.16.164-.188.305-.08.305.107 0 .08.141-.08.282-.135.165-.349.8-.43 1.41-.106.635-.294 1.129-.455 1.129-.133 0-.24.14-.24.329 0 .258-.51.352-2.143.423l-2.116.07.16-.587c.081-.33.242-.635.349-.705.107-.07.321-.8.509-1.646.187-.846.428-1.645.562-1.762.107-.141.295-.682.402-1.246.107-.54.268-.987.375-.987.107 0 .348-.752.535-1.645.188-.916.456-1.645.59-1.645.134 0 .24-.282.24-.61 0-.33.081-.541.215-.494.107.07.214-.423.241-1.082.027-.634.16-1.245.295-1.316.134-.07.348-.61.455-1.198.107-.588.348-1.363.562-1.74.215-.375.375-.869.375-1.127 0-.4.295-.423 4.58-.423 3.402 0 4.66.07 4.928.305zm-27.184.751c0 .188.107.353.24.353.135 0 .403.4.59.87.16.493.482.963.67 1.08.187.094.401.494.509.87.107.4.294.705.428.705s.295.258.402.587c.08.33.268.588.375.588.134 0 .375.376.562.823.188.446.429.822.536.822.187 0 .777 1.293.777 1.74 0 .258-4.018.305-4.5.046-.134-.07-.643-.846-1.152-1.715-.508-.87-1.07-1.74-1.232-1.904-.187-.165-.428-.564-.508-.893-.08-.306-.241-.564-.349-.564-.24 0-.937-1.199-.883-1.48.026-.095-.054-.165-.188-.165s-.348-.235-.455-.517c-.08-.282-.348-.658-.536-.846-.723-.611-.348-.752 2.17-.752 2.089 0 2.544.07 2.544.352zm73.25 3.643v1.998h-4.553l-.08-1.74c-.054-.963-.027-1.88.053-2.068.107-.258.67-.305 2.357-.258l2.223.07zm-27.184 2.985c.134.164.428.587.589.94.187.352.509.799.696.987.188.164.268.493.188.681-.08.212-.08.306.027.235.267-.258.964.47.75.776-.108.164-.08.211.053.14.268-.14 2.518 2.61 2.518 3.08 0 .164.107.281.24.281.135 0 .322.188.43.447.08.235.4.682.696.987.294.282.482.658.428.776-.08.14.16.258.482.258.322 0 .563-.117.482-.258-.053-.118.134-.494.429-.776.294-.305.616-.752.696-.987.107-.259.268-.447.402-.447.107 0 .294-.258.375-.564.08-.329.321-.728.509-.893.16-.164.696-.775 1.124-1.363 1.018-1.34 1.366-1.668 1.58-1.457.108.07.108-.023.027-.235-.107-.211.134-.752.51-1.245.374-.494.696-.987.696-1.105 0-.14.187-.188.375-.117.24.094.348.023.267-.141-.053-.165.054-.494.268-.752.375-.423.402-.165.429 2.75 0 2.02-.107 3.242-.268 3.242a.279.279 0 00-.268.282c0 .282-1.178 1.904-1.794 2.492a2.05 2.05 0 00-.482.752c-.08.258-.268.47-.375.47-.134 0-.375.305-.563.705-.187.376-.428.705-.562.705-.107 0-.295.211-.375.493-.268.729-1.393 2.092-1.58 1.927-.08-.094-.161.024-.161.259 0 .211-.107.329-.268.258-.134-.07-.187 0-.107.188s-.027.494-.241.658c-.214.188-.509.564-.696.87-.402.681-.777.658-.991-.047-.08-.33-.322-.635-.536-.705-.214-.07-.375-.282-.375-.47s-.16-.494-.348-.658c-.59-.54-2.866-3.62-2.866-3.878 0-.14-.187-.305-.402-.4-.214-.07-.401-.281-.401-.47 0-.187-.161-.493-.348-.657-.188-.165-.777-.917-1.34-1.646l-.99-1.316v-3.149c.026-2.773.053-3.078.401-2.655.214.258.51.587.67.752zm-114.094 4.77v2.115H38.901v-1.95c0-1.081.08-2.045.187-2.115.08-.094 3.054-.165 6.562-.165h6.374zm66.635 8.508c.429.376.402.728 0 .517-.214-.094-.24-.07-.134.047.134.117.429.211.67.211.268 0 .455.188.455.47 0 .306.16.447.482.4.429-.07.456.446.456 7.285l-.027 7.356-1.313 1.246-1.339 1.245-3-.07-3.026-.07-.08-1.951-.08-1.927h4.312V180.12h-19.82v-3.525h11.062c8.249 0 11.141.07 11.382.282zm-54.315 3.243v1.88h-4.687l.054-1.81c.027-1.01.054-1.856.08-1.903 0-.024 1.018-.047 2.277-.047h2.276zm90.98.611c.563.329 1.072.658 1.152.752.08.094.348.259.616.4.643.305.59.705-.08.681-.295 0-.482.024-.402.094.214.188-1.152 1.058-3.75 2.42-.589.306-1.232.682-1.419.847-.188.164-.643.376-.991.446s-.696.306-.777.494c-.107.211-.375.305-.67.235-.401-.07-.481-.024-.374.258.107.235.053.306-.134.188-.188-.094-.321-.07-.321.07 0 .142-.295.306-.643.4-.375.07-.723.306-.804.494-.107.235-.375.305-.723.235-.321-.07-.482-.07-.402 0 .241.211-.616.822-.937.634-.187-.094-.241-.07-.134.094.08.118.027.282-.16.33-.161.046-.215.235-.108.376.134.188 1.205.282 3.402.282h3.187v3.76H135.05v-1.716c0-1.527.08-1.786.642-2.28.455-.352.83-.47 1.152-.376.24.095.374.095.294 0-.294-.235.536-.846.91-.658.188.094.269.094.161-.023-.24-.212.483-.729 2.33-1.669.75-.352 1.474-.752 1.607-.846 1.045-.728 2.41-1.363 2.705-1.269.215.07.295 0 .215-.188-.161-.352.589-.681 1.044-.446.188.07.241.07.134-.047-.24-.212 1.313-1.293 1.821-1.293.188 0 .375-.07.429-.188.107-.211 3.803-2.397 4.07-2.397.108 0 .376-.164.59-.353.562-.493.991-.446 2.17.259zm-65.054 6.204l.08 1.88H69.97v-3.877l10.097.047 10.123.047zm4.446 10.905c.294.517.723 1.081.91 1.269.161.165.322.447.322.611 0 .165.24.54.535.846.295.306.536.682.536.846 0 .165.16.447.348.611.59.564 1.795 2.703 1.795 3.196 0 .447-.188.494-2.143.564-1.58.047-2.143 0-2.143-.235 0-.14-.107-.282-.24-.282-.135 0-.402-.376-.59-.822-.187-.447-.428-.823-.536-.823-.107 0-.32-.352-.535-.775-.188-.4-.429-.8-.51-.87-.16-.117-.561-.705-1.392-2.115-.187-.329-.482-.728-.67-.893-.187-.165-.428-.564-.508-.893-.08-.306-.268-.564-.375-.564-.107 0-.295-.165-.375-.353-.134-.329.187-.352 2.41-.305l2.571.07zm34.04 5.899v1.88h-4.553l-.08-1.622c-.054-.893-.027-1.762.053-1.95.108-.259.67-.306 2.357-.259l2.223.07zm-11.972 7.685l-.08 5.005h-4.553l-.08-5.005-.054-4.983h4.821z"/></svg>