<svg width="96" height="96" xmlns="http://www.w3.org/2000/svg"><g fill="none" fill-rule="evenodd"><g fill-rule="nonzero"><path fill="#FFF" d="M20.974 17.72v53.536l3.515 4.55h31.53l-1.697-6.741-2.892-13.442 4.59-3.905 8.147-3.441h2.778V30.653L51.43 15.71H24.489z"/><path d="M23.249 71.037v-51.2a2.621 2.621 0 012.624-2.612h22.948v9.288c0 4.32 3.532 7.836 7.873 7.836h9.316v12.99h5.25v-16.68L52.61 12H25.872C21.532 12 18 15.516 18 19.837v51.2c0 4.321 3.532 7.837 7.873 7.837h37.111l-4-5.225H25.873a2.621 2.621 0 01-2.624-2.612zm30.82-50.168l8.253 8.256h-5.628a2.621 2.621 0 01-2.624-2.612v-5.644z" fill="#003945"/></g><path fill="#05C0A5" d="M52.296 54.638l1.496-2.699 8.076-3.912h3.935l6.812 1.677 5.484 3.68v12.782l-2.64 5.062-3.867 5.189-4.536 2.495h-2.874L56.4 72.459l-4.103-7.644z"/><path d="M76.657 48.69c-3.229-.571-6.301-2.446-7.473-3.225a7.399 7.399 0 00-4.11-1.243 7.4 7.4 0 00-4.112 1.243c-1.171.78-4.244 2.654-7.473 3.226-2.601.46-4.489 2.684-4.489 5.287v8.236c0 12.402 14.37 18.866 14.981 19.135l1.092.48 1.092-.48c.612-.27 14.981-6.733 14.981-19.135v-8.236c0-2.603-1.888-4.826-4.489-5.287zm-.868 13.524c0 7.316-7.79 12.19-10.716 13.763-2.93-1.575-10.715-6.449-10.715-13.763v-8.236c0-.045.032-.082.08-.09 4.08-.724 7.717-2.847 9.522-4.047a2.004 2.004 0 012.226 0c1.805 1.2 5.442 3.323 9.523 4.046.047.009.08.046.08.09v8.237z" fill="#003945" fill-rule="nonzero"/></g></svg>