<svg width="96" height="96" xmlns="http://www.w3.org/2000/svg"><g fill="none" fill-rule="evenodd"><path fill="#FFF" fill-rule="nonzero" d="M16 33h63v42H16z"/><g transform="translate(12 14)"><path d="M29.053 55c2.804 0 5.128-4.587 5.54-5.452h2.094c.413.865 2.736 5.452 5.54 5.452a5.598 5.598 0 005.603-5.452H54v-5.591h-5.306a61.85 61.85 0 00-1.05-5.615C46.677 34.332 44.905 29 40.685 29c-1.946 0-3.663 1.016-4.906 1.906-1.242-.89-2.96-1.906-4.905-1.906-4.22 0-5.992 5.332-6.958 9.342a61.801 61.801 0 00-1.05 5.615H17v5.591h6.45A5.598 5.598 0 0029.053 55zm.073-14.284c.855-3.99 1.714-5.52 2.094-6.038.316.129.894.456 1.984 1.287.804.613 1.498 1.143 2.576 1.143s1.773-.53 2.576-1.143c.365-.278 1.347-1.027 1.986-1.285.38.518 1.232 2.04 2.083 5.99.247 1.148.442 2.262.588 3.203a5.669 5.669 0 00-.786-.056H28.773v.007c-.074.004-.148.01-.221.017.144-.92.334-2.004.574-3.125z" stroke="#FFF" stroke-width=".4" fill="#003945" fill-rule="nonzero"/><path fill="#05C0A5" d="M4 4h62v14H4z"/><path d="M62.68 0H8.32C3.732 0 0 3.764 0 8.39v49.22C0 62.236 3.732 66 8.32 66h54.36c4.588 0 8.32-3.764 8.32-8.39V8.39C71 3.764 67.268 0 62.68 0zm2.773 57.61c0 1.542-1.244 2.797-2.773 2.797H8.32c-1.529 0-2.773-1.255-2.773-2.797V22.373h59.906V57.61zm0-40.83H5.547V8.39c0-1.542 1.244-2.797 2.773-2.797h54.36c1.529 0 2.773 1.255 2.773 2.797v8.39z" fill="#003945" fill-rule="nonzero"/><circle fill="#003945" fill-rule="nonzero" cx="20.5" cy="11.5" r="2.5"/><circle fill="#003945" fill-rule="nonzero" cx="12.5" cy="11.5" r="2.5"/></g></g></svg>