<svg xmlns="http://www.w3.org/2000/svg" width="100" height="100"><path d="M40.618 11.048c-6.328 1.59-15.334 6.92-19.706 11.663-2.245 2.436-5.507 7.436-7.247 11.109-2.866 6.049-3.165 7.582-3.165 16.232 0 9.015.21 9.976 3.735 17.108 4.498 9.102 10.288 14.771 19.585 19.175C39.861 89.197 41.409 89.5 50 89.5s10.139-.303 16.18-3.165c9.297-4.404 15.087-10.073 19.585-19.175C89.294 60.02 89.5 59.075 89.5 50s-.206-10.02-3.735-17.16c-6.757-13.673-18.762-21.696-33.516-22.398-4.262-.203-9.496.07-11.631.606m2.882 2.613c-16.585 3.554-28.171 16.18-30.128 32.835l-.647 5.501 7.387-3.41c4.064-1.875 9.08-3.725 11.149-4.111 3.643-.681 5.518-2.03 4.39-3.158-.302-.302-1.996-.045-3.765.572-2.668.93-3.529.838-5.051-.539-2.356-2.133-2.312-3.025.214-4.377 1.499-.802 2.994-.785 5.567.064 3.074 1.015 3.695.928 4.919-.688 2.042-2.695 1.837-3.205-2.035-5.051-2.776-1.324-3.5-2.252-3.5-4.484 0-2.328.428-2.815 2.474-2.815 1.786 0 2.935.904 4.127 3.25.91 1.788 1.766 3.382 1.903 3.543.137.162 2.11-.287 4.385-.997 3.015-.941 3.973-1.698 3.538-2.793-1.556-3.915-1.566-7.643-.025-8.922 1.327-1.101 1.869-1.101 3.196 0 1.575 1.308 1.527 5.005-.12 9.169-.511 1.292-.199 1.75 1.193 1.75 1.036 0 2.868.689 4.07 1.531 2.094 1.467 2.274 1.36 4.243-2.5C62.551 24.96 63.631 24 65.52 24c2.053 0 2.48.485 2.48 2.815 0 2.232-.724 3.16-3.5 4.484-3.864 1.842-4.125 2.463-2.167 5.142 1.187 1.623 1.751 1.687 5.106.579 3.034-1.001 4.241-.994 6.167.037 2.871 1.536 2.952 2.128.583 4.272-1.454 1.316-2.489 1.445-5.244.655C64.71 40.77 64 40.758 64 41.903c0 .496 3.257 1.891 7.238 3.101 3.981 1.209 8.913 3.053 10.96 4.097C84.245 50.145 86.221 51 86.589 51c1.467 0-.854-10.868-3.572-16.725C76.156 19.488 58.728 10.397 43.5 13.661m-11.138 35.32c-7.251 1.901-16.7 6.14-17.856 8.009-.349.565-.376 1.845-.059 2.843.534 1.684.989 1.611 6.314-1.006 17.527-8.616 39.703-8.946 57.004-.85C84.5 61.129 86 61.132 86 57.992c0-2.346-9.561-7.051-19.064-9.382-9.036-2.216-25.373-2.041-34.574.371m3.152 7.633c-3.293.796-8.997 2.835-12.677 4.531-6.363 2.933-6.637 3.2-5.603 5.469 1.338 2.936 1.273 2.936 8.061-.066 16.496-7.295 31.934-7.44 49.086-.46 6.483 2.638 7.046 2.715 8.256 1.122 2.038-2.682 1.705-3.164-3.977-5.765-13.262-6.072-30.178-7.966-43.146-4.831m3.632 10.239c-2.944 1.051-6.316 2.873-7.493 4.05-1.99 1.99-2.034 2.328-.621 4.846.836 1.488 3.039 3.73 4.897 4.982 3.361 2.265 3.384 2.267 4.781.273.772-1.102 1.883-2.004 2.469-2.004.705 0 .669.478-.105 1.411-.898 1.082-.885 1.588.058 2.171.75.463 1.791-.087 2.671-1.411 1.601-2.413 3.436-2.958 2.597-.772-.947 2.468 1.854 3.104 3.403.772 1.806-2.721 3.178-2.815 2.487-.171-.357 1.364-.031 2 1.026 2 .852 0 1.835-.9 2.184-2 .349-1.1 1.04-2 1.536-2s.66.629.364 1.399c-1.847 4.815 6.809.932 9.998-4.485 1.864-3.167 1.864-3.25 0-4.682-7.493-5.753-20.94-7.7-30.252-4.379m9.21 2.774C46.614 70.341 47.989 74 50 74c2.24 0 3.32-3.663 1.308-4.435-.809-.311-1.547-.529-1.64-.486-.092.043-.683.29-1.312.548m-10.18 2.597C36.391 74.009 36.769 76 38.893 76c2.339 0 3.435-2.483 1.724-3.903-.891-.739-1.612-.702-2.441.127m21.03-.03C57.745 73.655 58.849 76 61 76c2.496 0 3.16-2.419 1.029-3.75-1.238-.773-2.089-.79-2.823-.056" fill-rule="evenodd"/></svg>