<svg width="41" height="41" xmlns="http://www.w3.org/2000/svg"><defs><filter x="-1.9%" y="-29.9%" width="103.9%" height="164.4%" filterUnits="objectBoundingBox" id="a"><feOffset dy="2" in="SourceAlpha" result="shadowOffsetOuter1"/><feGaussianBlur stdDeviation="9" in="shadowOffsetOuter1" result="shadowBlurOuter1"/><feColorMatrix values="0 0 0 0 0 0 0 0 0 0 0 0 0 0 0 0 0 0 0.0564424819 0" in="shadowBlurOuter1" result="shadowMatrixOuter1"/><feMerge><feMergeNode in="shadowMatrixOuter1"/><feMergeNode in="SourceGraphic"/></feMerge></filter></defs><g filter="url(#a)" transform="translate(-1265 -24)" fill="none" fill-rule="evenodd"><path fill="#FFF" d="M0 0h1440v87H0z"/><path d="M1290.275 49.4h-9.35v-6.6c0-2.933 2.338-4.4 4.674-4.4h.002c2.336 0 4.674 1.467 4.674 4.4v6.6zm-3.507 3.3c0 .607-.522 1.1-1.168 1.1-.646 0-1.17-.493-1.17-1.1v-1.1h2.34v1.1h-.002zm5.844-3.3v-6.6c0-3.908-2.767-6.077-5.844-6.513V34c0-1.429-2.336-1.401-2.336 0v2.287c-3.077.436-5.844 2.605-5.844 6.513v6.6h-1.17c-.644 0-1.168.493-1.168 1.1 0 .607.524 1.1 1.17 1.1h4.674v1.1c0 1.823 1.569 3.3 3.506 3.3 1.936 0 3.507-1.477 3.507-3.3v-1.1h4.675c.644 0 1.168-.493 1.168-1.1 0-.607-.524-1.1-1.17-1.1h-1.167z" fill="#003945" fill-rule="nonzero"/></g></svg>