<svg width="27" height="28" xmlns="http://www.w3.org/2000/svg"><g fill="#18242A" fill-rule="evenodd"><path d="M13.484 1.014c-6.97 0-12.64 5.67-12.64 12.639 0 6.969 5.67 12.639 12.64 12.639 6.969 0 12.639-5.67 12.639-12.64 0-6.968-5.67-12.638-12.64-12.638m0 26.123C6.05 27.137 0 21.087 0 13.653 0 6.218 6.049.169 13.484.169s13.484 6.049 13.484 13.484-6.05 13.484-13.484 13.484"/><path d="M11.992 19.839a6.365 6.365 0 010-12.372V5.2C7.962 5.907 4.9 9.42 4.9 13.652c0 4.231 3.063 7.745 7.092 8.451V19.84zm2.845-14.663v2.259a6.365 6.365 0 010 12.436v2.258a8.585 8.585 0 000-16.953"/></g></svg>