<svg width="90" height="90" xmlns="http://www.w3.org/2000/svg"><g fill="none" fill-rule="evenodd"><path fill="#05C0A5" d="M4 65h83v9H4z"/><path fill="#FFF" d="M10 14h70v47H10z"/><path d="M83.85 60.92V20.182c0-4.512-3.684-8.182-8.21-8.182H14.36c-4.525 0-8.207 3.67-8.207 8.183v40.736C2.74 61.042 0 63.841 0 67.271v4.365C0 75.145 2.864 78 6.384 78h77.232C87.136 78 90 75.145 90 71.636V67.27c0-3.43-2.74-6.229-6.15-6.352zM14.36 17.454h61.28a2.735 2.735 0 012.737 2.728v40.724H11.624V20.183a2.735 2.735 0 012.735-2.728zm70.168 54.18c0 .493-.418.91-.912.91H6.384a.923.923 0 01-.912-.91V67.27c0-.492.418-.909.912-.909h77.232c.494 0 .912.417.912.91v4.364z" fill="#003945" fill-rule="nonzero"/><g transform="translate(29 26)" fill="#003945" fill-rule="nonzero"><path d="M11.729 13.293a14.486 14.486 0 00-6.021 3.609l3.043 3.052a10.2 10.2 0 013.109-2.129l-.131-4.532zM11.48 5A22.434 22.434 0 000 11.177l3.043 3.052a18.18 18.18 0 018.568-4.827L11.481 5zm9.013 0l-.13 4.408a18.18 18.18 0 018.568 4.828l3.043-3.053A22.372 22.372 0 0020.494 5zm-.385 12.825c1.143.505 2.2 1.219 3.115 2.136l3.043-3.053a14.46 14.46 0 00-6.021-3.615l-.137 4.532z"/><circle cx="15.5" cy="23.5" r="2.5"/><path d="M16.518 19h-2.042c-.535 0-.973-.442-.986-.997L13 1.057C12.982.482 13.433 0 13.987 0h3.028c.554 0 1.005.475.985 1.057l-.496 16.946c-.012.555-.45.997-.985.997z"/></g></g></svg>