<svg xmlns="http://www.w3.org/2000/svg" width="227" height="228"><path d="M106.957 1.975c7.318-3.2 12.538 3.58 17.05 8.111 8.06 6.867 15.724 14.202 22.993 21.9 4.168 4.565 2.48 12.92-3.188 15.462-4.356 2.387-9.679.588-13.02-2.732-8.768-8.441-17.154-17.297-26.266-25.358-5.646-4.636-4.493-14.702 2.431-17.383zm79.844 23.384c4.961-2.681 12.899-.501 14.278 5.431 2.101 5.276-1.274 10.499-4.978 14.01-8.113 8.044-16 16.311-23.889 24.579-2.875 3.495-7.939 4.43-12.004 2.544-5.873-2.44-7.457-11.296-3.031-15.776 9.956-10.169 18.74-21.569 29.624-30.788zM28.266 27.002c5.167-3.13 11.557-1.055 15.38 3.2 8.594 8.717 17.464 17.141 26.161 25.72 5.753 5.345 1.74 16.657-6.285 16.692-6.717 1.038-10.283-5.639-14.778-9.288C40.856 56.77 33.64 49.472 26.492 42.12c-4.047-4.186-2.841-11.866 1.774-15.118zm6.666 51.527c8.663-3.354 17.119 7.612 11.711 15.17-6.39 8.372-14.709 15.1-21.683 23.005-4.117 4.254-7.957 10.793-14.812 9.963-8.026-.313-12.056-11.521-6.217-16.951 10.54-10.136 18.91-22.954 31-31.186l.001-.001zm175.653 24.251c5.959-3.909 14.95.537 15.14 7.75.877 6.78-5.822 10.36-9.508 14.91-6.492 7.852-13.621 15.169-20.976 22.209-5.374 5.102-15.415 1.521-16.38-5.863-1.258-7.629 5.873-12.367 10.369-17.246 7.44-6.936 13.726-15.117 21.355-21.76zM57.528 156.418c5.786-3.477 14.57.658 14.708 7.714 1.068 6.815-5.632 10.431-9.3 14.979-6.476 7.87-13.692 15.082-20.978 22.209-4.736 4.809-14.828 2.49-16.172-4.41-2.29-6.658 3.341-12.039 7.63-16.226 8.319-7.817 15.552-16.759 24.112-24.266zm102.854-.26c3.203-1.106 7.269-1.193 9.972 1.125 10.024 9.565 20.685 18.455 30.105 28.66 2.91 2.958 3.169 7.922 1.24 11.485-2.721 6.399-12.057 6.555-16.586 2.024-9.146-8.666-17.928-17.765-27.127-26.396-5.561-4.34-4.254-14.39 2.396-16.898zm-77.175 24.457c4.77-2.594 10.368-.137 13.795 3.512 8.646 8.613 17.291 17.228 26.266 25.496 5.906 5.639 1.91 17.072-6.408 17.158-6.717.797-10.213-5.897-14.726-9.564-7.836-6.521-15.104-13.7-22.13-21.086-4.238-4.549-2.516-13.006 3.203-15.516zM67.873 10.673c0 5.463-4.408 9.89-9.847 9.89-5.438 0-9.847-4.427-9.847-9.89 0-5.46 4.41-9.889 9.847-9.889 5.439 0 9.847 4.428 9.847 9.889zm28.702 26.304c0 5.462-4.409 9.89-9.847 9.89s-9.848-4.428-9.848-9.89c0-5.461 4.409-9.89 9.848-9.89 5.438 0 9.847 4.429 9.847 9.89zM19.694 61.14c0 5.463-4.409 9.89-9.848 9.89C4.41 71.03 0 66.603 0 61.14c0-5.46 4.409-9.888 9.846-9.888 5.439-.001 9.848 4.428 9.848 9.888zM176.005 9.89c0 5.46-4.407 9.888-9.846 9.888s-9.847-4.427-9.847-9.889S160.721 0 166.159 0s9.846 4.427 9.846 9.89zM227 58.66c0 5.461-4.408 9.89-9.846 9.89s-9.848-4.429-9.848-9.89 4.409-9.89 9.848-9.89c5.438 0 9.846 4.43 9.846 9.89zm-26.911 28.416c0 5.461-4.409 9.888-9.847 9.888s-9.846-4.427-9.846-9.888 4.408-9.888 9.846-9.888 9.847 4.427 9.847 9.888zm26.866 79.868c0 5.462-4.409 9.888-9.848 9.888-5.438 0-9.846-4.426-9.846-9.888s4.408-9.89 9.846-9.89c5.439.001 9.848 4.428 9.848 9.89zm-76.794 24.115c0 5.462-4.409 9.889-9.847 9.889s-9.848-4.427-9.848-9.889c0-5.461 4.41-9.891 9.848-9.891s9.847 4.43 9.847 9.891zm28.33 27.05c0 5.463-4.41 9.891-9.849 9.891-5.438 0-9.847-4.428-9.847-9.891 0-5.46 4.409-9.888 9.847-9.888 5.439.001 9.849 4.428 9.849 9.888zm-107.835 0c0 5.463-4.408 9.889-9.846 9.889-5.439 0-9.847-4.426-9.847-9.889 0-5.462 4.408-9.889 9.847-9.889 5.438.001 9.846 4.427 9.846 9.889zM46.64 140.653c0 5.462-4.408 9.888-9.846 9.888-5.439 0-9.847-4.426-9.847-9.888s4.408-9.89 9.847-9.89c5.438.001 9.846 4.428 9.846 9.89zm-26.946 28.743c0 5.462-4.409 9.89-9.848 9.89-5.437 0-9.846-4.428-9.846-9.89s4.409-9.889 9.846-9.889c5.439 0 9.848 4.427 9.848 9.889z"/></svg>