<svg xmlns="http://www.w3.org/2000/svg" width="227" height="227"><circle cx="113.5" cy="113.5" r="113.5"/><path d="M158.034 67.638c9.264 0 16.745 7.482 16.745 16.745v25.118c0 9.263-7.481 16.745-16.745 16.745H137.37l-1.246 6.234c-.357 1.604-1.782 2.85-3.385 2.85h-4.097c-1.604 0-2.494-1.246-2.138-2.85l1.247-6.234h-9.798l-1.247 6.234c-.356 1.604-1.78 2.85-3.384 2.85h-4.097c-1.604 0-2.494-1.246-2.138-2.85l1.069-6.413h-10.51l-9.085 43.288H66.293l16.211-76.6h22.267l-3.563 16.746h42.932a8.363 8.363 0 008.372-8.373v-8.372a8.363 8.363 0 00-8.372-8.373H52.22l13.895-16.745h54.51l1.247-6.235c.357-1.603 1.782-2.85 3.385-2.85h4.097c1.604 0 2.494 1.247 2.138 2.85l-1.247 6.235h9.798l1.247-6.235c.356-1.603 1.78-2.85 3.384-2.85h4.097c1.604 0 2.494 1.247 2.138 2.85l-1.247 6.235z" fill="#fff"/></svg>