<svg xmlns="http://www.w3.org/2000/svg" width="100" height="100"><path d="M40 11.366c-11.8 3.453-21.074 11.347-26.307 22.393C10.799 39.868 10.5 41.391 10.5 50c0 8.571.304 10.136 3.11 16 4.557 9.523 10.139 15.273 19.153 19.728 7.218 3.567 8.153 3.772 17.185 3.772 8.65 0 10.183-.299 16.232-3.165 9.297-4.404 15.087-10.073 19.585-19.175C89.294 60.02 89.5 59.075 89.5 50c0-9.092-.201-10.01-3.772-17.237-4.433-8.969-10.235-14.627-19.479-18.997-7.414-3.505-18.886-4.554-26.249-2.4M36.211 46.5C30.515 51.622 27 52.404 27 48.55c0-1.348.788-2.935 1.75-3.527 1.517-.933 1.419-1.04-.73-.8-4.926.55-5.244 8.644-.525 13.363 3.822 3.822 12.86 2.995 19.755-1.807 2.709-1.887 2.791-1.887 5.5 0 6.895 4.802 15.933 5.629 19.755 1.807 4.719-4.719 4.401-12.813-.525-13.363-2.149-.24-2.247-.133-.73.8.963.592 1.75 2.179 1.75 3.527 0 3.776-3.1 3.079-9.109-2.05-5.576-4.76-9.513-5.736-12.22-3.028-1.296 1.296-1.618 1.296-2.694 0-2.455-2.957-7.418-1.78-12.766 3.028" fill-rule="evenodd"/></svg>