<svg xmlns="http://www.w3.org/2000/svg" width="100" height="100"><path d="M66.42 26.158c-.506.873-4.417 5.293-8.692 9.821l-7.772 8.233-8.572-9.106C36.67 30.098 32.443 26 31.992 26 30.821 26 10 48.737 10 50.015c0 .583 4.964 6.422 11.031 12.975l11.032 11.914 8.586-9.202c4.723-5.061 8.871-9.308 9.219-9.437.348-.129 4.457 4.024 9.132 9.229l8.5 9.464 9.796-10.229c5.388-5.626 10.503-11.242 11.365-12.479 1.999-2.866 1.685-3.338-11.43-17.215-8.065-8.534-10.06-10.172-10.811-8.877M25.613 43.5L19.871 50l5.742 6.5c3.158 3.575 6.073 6.5 6.477 6.5.405 0 3.457-3.037 6.782-6.75l6.046-6.75-6.18-6.25C35.339 39.813 32.287 37 31.956 37c-.33 0-3.185 2.925-6.343 6.5m35.971-.33C58.513 46.564 56 49.611 56 49.942c0 .33 2.671 3.516 5.936 7.079l5.937 6.479 5.517-6c3.035-3.3 5.539-6.598 5.564-7.329C79.004 48.73 69.19 37 67.934 37c-.421 0-3.279 2.777-6.35 6.17" fill-rule="evenodd"/></svg>