<svg width="60" height="60" xmlns="http://www.w3.org/2000/svg"><g fill="#F9F9F9" fill-rule="evenodd"><path d="M13.467 12.184l10.132-3.24a.98.98 0 00.663-.741l.485-2.416A.98.98 0 0125.708 5h2.459a.98.98 0 01.958.774l.525 2.434a.98.98 0 00.668.73l10.498 3.254a.98.98 0 01.638 1.251l-5.145 15.17h-3.972l4.147-12.163a.735.735 0 00-.5-.946l-7.025-1.94h-4.054l-6.952 1.946a.735.735 0 00-.506.918l3.625 12.185h-3.704l-4.542-15.215a.98.98 0 01.64-1.214z"/><path d="M42.993 18.449c1.915-.188 3.994-.171 6.238.048 3.633.356 3.37 5.993 2.033 8.456-1.335 2.463-2.41 3.394-3.834 4.728-1.423 1.334-4.466 2.898-5.987 2.898H14.814a.735.735 0 01-.438-.145l-3.454-2.564a.735.735 0 01.448-1.326c18.964.245 29.313.153 31.046-.276 2.701-.668 7.213-5.065 5.414-6.505-1.064-.85-2.986-1.232-5.768-1.143a.735.735 0 01-.711-.995l1.026-2.705a.735.735 0 01.616-.471zm-29.245 36.39a.766.766 0 01-.233-.037c-.459-.146-.726-.688-.597-1.21l4.141-17.135h4.29l-3.351 13.082a1.106 1.106 0 00-.034.27c0 .542.386.98.863.98h15.94a.767.767 0 00.26-.045c.454-.163.706-.713.562-1.23l-3.453-13.057h4.43l4.141 17.136c.022.086.032.176.032.266 0 .541-.386.98-.862.98H13.748z"/></g></svg>