<svg xmlns="http://www.w3.org/2000/svg" width="100" height="100"><path d="M55.5 25.678c-1.1.223-6.5 4.208-12 8.855-6.387 5.397-11.674 9.01-14.632 10-2.548.852-5.43 2.431-6.405 3.508C21.307 49.318 19.394 50 16.966 50c-3.217 0-3.897.42-5.001 3.084-.702 1.696-2.445 3.567-3.871 4.158-2.256.933-2.347 1.131-.699 1.517 1.245.291 2.685-.565 4.194-2.493 1.863-2.381 2.876-2.851 5.354-2.488 2.798.411 3.057.773 3.057 4.27 0 2.102-.496 5.089-1.102 6.637-1.75 4.467-4.799 15.748-4.372 16.174.991.991 3.474-1.01 3.474-2.801 0-1.102.965-3.991 2.145-6.419 1.716-3.533 2.946-4.679 6.159-5.739 2.657-.877 4.654-2.409 5.906-4.531 3.096-5.247 5.967-6.561 12.676-5.802 4.736.535 6.71.263 10.62-1.467 2.642-1.168 4.944-1.984 5.115-1.812.172.172-.04 1.64-.471 3.262-.527 1.98-1.52 3.057-3.021 3.277-1.958.286-4.129 3.515-4.129 6.142 0 .461 2.478-.503 5.506-2.143C64.078 59.808 70 52.898 70 49.415c0-1.597.15-1.589 2.027.109 1.114 1.009 3.676 2.829 5.691 4.046 3.019 1.822 4.094 2.017 6.09 1.108 2.328-1.061 2.406-1.416 1.97-8.946l-.454-7.841 3.208-1.34c1.763-.737 3.94-2.387 4.837-3.668 2.641-3.77 1.876-4.214-1.619-.938-2.24 2.099-4.26 3.047-6.5 3.05-1.787.003-3.25-.279-3.25-.627 0-1.959 4.469-7.37 6.788-8.218l2.712-.992-2.572-.079c-1.414-.043-4.339 1.258-6.5 2.893C77.242 31.896 72.733 31.903 65 28c-3.269-1.65-6.293-2.939-6.721-2.864-.429.075-1.679.319-2.779.542" fill-rule="evenodd"/></svg>