<svg xmlns="http://www.w3.org/2000/svg" width="100" height="100"><path d="M44.819 9.655l-4.655 4.655-5.898-1.655C31.023 11.745 28.111 11 27.795 11c-.315 0-1.35 2.872-2.301 6.383l-1.728 6.383-6.383 1.728C13.872 26.445 11 27.765 11 28.43c0 .664.711 3.6 1.579 6.524l1.579 5.317-4.791 4.864L4.575 50l4.763 4.835L14.1 59.67l-1.735 6.242c-1.999 7.19-2.007 7.179 6.078 8.988l5.282 1.182 1.749 6.459C26.435 86.093 27.48 89 27.795 89c.316 0 3.219-.742 6.453-1.65l5.879-1.649 4.937 4.862L50 95.425l4.936-4.862 4.937-4.862 5.879 1.649c3.234.908 6.12 1.65 6.415 1.65.295 0 1.312-2.868 2.261-6.372l1.725-6.373 6.423-1.738C86.109 73.56 89 72.335 89 71.793c0-.542-.721-3.467-1.603-6.5l-1.603-5.515 4.815-4.889L95.425 50l-4.816-4.889-4.815-4.889 1.603-5.515c.882-3.033 1.603-5.958 1.603-6.5 0-.542-2.891-1.767-6.424-2.724l-6.423-1.738-1.725-6.373C73.479 13.868 72.462 11 72.167 11c-.295 0-3.181.742-6.415 1.65l-5.879 1.649-4.721-4.649C52.556 7.092 50.216 5 49.952 5c-.263 0-2.573 2.095-5.133 4.655m.333 1.676l-3.348 3.467 3.169.696c3.949.867 4.234.574 3.843-3.961L48.5 7.865l-3.348 3.466m5.848.473c0 4.386 1.022 5.035 5.281 3.352 1.561-.617 1.345-1.126-1.75-4.126L51 7.608v4.196m14.175 2.612L60.85 15.51l2.571 2.416c1.414 1.328 2.709 2.226 2.878 1.995 1.578-2.166 3.793-6.146 3.531-6.347-.182-.138-2.276.24-4.655.842m-30.734 1.002C36.664 17.23 38 17.448 38 16c0-.55-.413-1-.918-1-.505 0-1.743-.262-2.75-.582-1.676-.532-1.667-.447.109 1m-6.764.332c-.243.413-.769 2.274-1.169 4.136-.715 3.331-.68 3.374 2.131 2.669 3.774-.948 3.753-.897 1.909-4.462-1.664-3.219-2.132-3.6-2.871-2.343m3.355-.023c.017.425.694 1.649 1.504 2.719 1.025 1.357 1.789 1.629 2.519.899.73-.73.275-1.554-1.504-2.719-1.403-.92-2.537-1.324-2.519-.899m8.666.909C37.485 18.848 41.921 19.99 45 18c1.297-.838 1.274-.971-.168-.985-.918-.008-2.291-.254-3.052-.546-.762-.292-1.698-.217-2.082.167m15.802.302c-1.705.68-1.411.963 2 1.924 5.527 1.557 6.081 1.438 4-.862-1.941-2.145-2.871-2.309-6-1.062m13.623 1.691c-1.308 2.87-.586 4.716.916 2.342.888-1.405 1.334-4.971.622-4.971-.187 0-.879 1.183-1.538 2.629m2.947 1.121c-.038 1.788.38 3.25.93 3.25 1.187 0 1.187-1.737 0-4.5-.72-1.676-.871-1.474-.93 1.25m-28.027.135c-2.269.633-1.837 1.123 5.652 6.4 4.46 3.143 8.491 5.715 8.957 5.714.467-.001 2.062-2.163 3.546-4.805l2.698-4.804-6.362-1.695c-6.622-1.764-10.328-1.971-14.491-.81m-6.776 2.023l-2.234.592 3.01 5.262 3.011 5.261 3.066-1.585c3.861-1.997 4.442-1.425 2.454 2.419C45.708 35.531 45 37.148 45 37.45c0 .303 2.459.55 5.465.55 4.391 0 5.669-.382 6.506-1.946.919-1.717.066-2.639-7.215-7.8-10.299-7.302-9.815-7.056-12.489-6.346m-11.696 3.663C24.707 26.436 24 27.87 24 28.759c0 1.207.757.89 3-1.259 1.65-1.581 3-3.015 3-3.187 0-.96-3.087-.083-4.429 1.258m1.695 3.742c-4.317 4.564-7.439 10.847-6.071 12.216.394.394 16.437-6.828 17.476-7.867.71-.709-4.45-9.662-5.568-9.662-.447 0-3.074 2.391-5.837 5.313M64.523 26.5c-4.949 8.123-4.8 7.223-1.513 9.165C67.056 38.055 66.77 39 62 39h-3.999l2.749 4.986c2.027 3.674 3.342 4.989 5 5 1.475.009 2.256-.589 2.267-1.736.01-.962.463-5.975 1.007-11.14.717-6.812.679-9.763-.14-10.75-1.624-1.957-2.635-1.693-4.361 1.14M72 25.345c0 .74.9 2.16 2 3.155 1.729 1.565 2 1.596 2 .226C76 27.303 73.504 24 72.429 24c-.236 0-.429.605-.429 1.345m-54.903 1.813l-3.402.978 3.177 1.932C20.65 32.366 22 32.501 22 30.582c0-.78.273-2.13.607-3 .689-1.797-.432-1.883-5.51-.424m60.348 1.481c.98 3.902 1.074 3.935 5.033 1.803 3.768-2.029 3.357-2.713-2.364-3.937-3.33-.712-3.374-.677-2.669 2.134m-6.507 3.111c-.034 1.513-.389 6.013-.789 10L69.423 49h5.788c3.184 0 5.789-.339 5.789-.753s-.889-3.861-1.975-7.659c-2.66-9.303-7.946-15.08-8.087-8.838m-57.559-.019c.289.973.828 3.033 1.197 4.578l.67 2.808 2.377-2.233C18.93 35.656 20 34.363 20 34.011c0-.352-1.608-1.407-3.573-2.345-3.398-1.62-3.548-1.617-3.048.065m70.229-.235c-1.04.787-2.39 1.611-3 1.831-.649.233-.087 1.509 1.355 3.077 2.689 2.924 2.84 2.799 4.407-3.654.744-3.063.046-3.38-2.762-1.254M43 34c-.793.49-1.11 1.223-.704 1.629.405.406 1.262.213 1.904-.429.642-.642.959-1.375.704-1.629-.254-.254-1.111-.061-1.904.429m-12.986 5.655c-5.217 2.469-9.822 5.019-10.234 5.667C17.932 48.227 19.029 49 25 49h6v-3.5c0-4.293 1.433-4.498 3.5-.5.853 1.65 1.726 3 1.94 3 .214 0 1.56-2.096 2.992-4.657 2.323-4.157 2.718-8.498.751-8.261-.376.046-4.952 2.103-10.169 4.573M59 36.5c0 .825.73 1.5 1.622 1.5 1.329 0 1.398-.271.378-1.5-.685-.825-1.415-1.5-1.622-1.5-.208 0-.378.675-.378 1.5m-41.466 2.463c-1.053 1.163-1.51 2.657-1.122 3.667.805 2.098 2.1.846 2.978-2.88.771-3.27.496-3.386-1.856-.787M80.517 40c1.126 5.53 2.094 6.685 2.903 3.463.538-2.143.2-3.271-1.458-4.875L79.805 36.5l.712 3.5m-39.982 4.503L37.57 50l2.965 5.497 2.965 5.496 6.248.004 6.248.003 2.983-4.75c1.641-2.612 2.983-5.425 2.983-6.25 0-.825-1.342-3.638-2.983-6.25L55.996 39l-6.248.003-6.248.004-2.965 5.496m-29.069.535c-1.814 2.004-1.805 2.023.543 1.154 1.314-.486 2.561-1.403 2.773-2.038.616-1.847-1.309-1.334-3.316.884m73.141-.456C83.236 48.155 83.921 49 88.187 49h4.187L89.5 46c-3.276-3.419-4.04-3.641-4.893-1.418M12 48c-1.169.755-.893.973 1.25.985C14.762 48.993 16 48.55 16 48c0-1.264-2.043-1.264-4 0m20 0c0 .55.702 1 1.559 1s1.281-.45.941-1c-.34-.55-1.041-1-1.559-1S32 47.45 32 48m-21.263 6.199c3.536 3.535 3.796 3.511 4.79-.451.673-2.681.584-2.748-3.649-2.748h-4.34l3.199 3.199m8.697-.449c2.086 8.819 3.786 13.108 6.031 15.217 1.39 1.306 2.719 2.183 2.953 1.949.234-.234.747-4.811 1.141-10.171L30.274 51H18.783l.651 2.75M32 51.824c0 .53-.471 5.553-1.046 11.162C29.928 72.979 30.422 76 33.08 76c.941 0 5.92-8.133 5.92-9.669 0-.546-1.125-1.595-2.5-2.331-3.606-1.93-3.081-3 1.471-3h3.971l-2.785-4.75c-1.75-2.984-3.598-4.869-4.971-5.07-1.202-.175-2.186.115-2.186.644m33.638.676c.317.825.705 1.5.862 1.5.157 0 .545-.675.862-1.5.347-.905.005-1.5-.862-1.5s-1.209.595-.862 1.5m3.362 2c0 4.293-1.433 4.498-3.5.5-.853-1.65-1.722-3-1.931-3-.565 0-5.571 8.724-5.554 9.678.064 3.433 1.924 3.234 11.548-1.233 5.454-2.531 10.251-5.129 10.661-5.773C82.068 51.773 80.968 51 75 51h-6v3.5M84 52c0 1.264 2.043 1.264 4 0 1.169-.755.893-.973-1.25-.985-1.513-.008-2.75.435-2.75.985m2.443 2.418c-1.067.78-1.591 1.768-1.164 2.195.427.427 1.764-.212 2.971-1.419 2.446-2.446 1.205-2.979-1.807-.776M16.607 56.43c-.561 2.233-.256 3.366 1.333 4.955 2.416 2.415 2.615 1.074.651-4.367l-1.258-3.483-.726 2.895m64.391 2.075c-1.526 4.014-1.2 4.988 1.002 2.995 2.172-1.966 2.583-4.022.998-5.001-.551-.341-1.451.562-2 2.006m-10.523 3.181c-4.386 1.963-8.349 3.908-8.806 4.323-.905.82 2.614 8.43 4.412 9.541 1.828 1.13 10.839-8.54 12.01-12.888.572-2.125.887-4.017.7-4.205-.188-.187-3.93 1.266-8.316 3.229m-55.899 2.005c-.369 1.545-.908 3.605-1.197 4.578-.5 1.682-.35 1.685 3.048.065C18.392 67.396 20 66.341 20 65.989c0-.352-1.07-1.645-2.377-2.873l-2.377-2.233-.67 2.808m67.503-.278c-1.331 1.419-2.231 2.717-2 2.886 2.483 1.81 6.178 3.777 6.496 3.459.221-.22-.156-2.319-.837-4.663L84.5 60.834l-2.421 2.579M38 62.893c0 .491.675 1.152 1.5 1.469.914.35 1.5.001 1.5-.893 0-.808-.675-1.469-1.5-1.469s-1.5.402-1.5.893m5.2.307c-.66.66-1.2 1.538-1.2 1.95 0 .413 4.036 3.638 8.97 7.168 6.935 4.961 9.549 6.305 11.524 5.928l2.554-.488-2.667-4.629a893.743 893.743 0 01-3.08-5.375c-.228-.411-1.781-.04-3.451.823-3.851 1.992-4.709 1.146-2.547-2.512.933-1.58 1.697-3.142 1.697-3.469 0-1.134-10.605-.591-11.8.604m12.269 1.85c-.918 1.486-.188 2.012 1.417 1.021.859-.532.962-1.047.29-1.462-.571-.353-1.339-.154-1.707.441m-38.862 4.946l-2.893 1.85 4.244 1.143c2.334.628 4.384 1 4.555.827.171-.174.073-1.553-.218-3.066-.61-3.177-1.677-3.319-5.688-.754m21.077 2.843l-2.633 4.839 7.271 1.81C49.254 81.215 57 81.041 57 79.16 57 78.277 42.424 68 41.172 68c-.47 0-2.039 2.178-3.488 4.839m39.876-2.221c-.362 1.44-.456 2.819-.21 3.066.247.246 2.4-.078 4.785-.72l4.337-1.168-3.486-1.856c-4.534-2.414-4.654-2.399-5.426.678M24 71.206c0 2.243 3.263 5.506 3.823 3.824.227-.681-.54-2.191-1.705-3.356-1.78-1.78-2.118-1.855-2.118-.468M72.5 73c-1.847 1.928-2.36 2.995-1.437 2.985 2.169-.023 3.59-1.238 4.37-3.735.92-2.948.509-2.843-2.933.75m-46.485 5.25c.009.688.452 1.925.985 2.75.755 1.169.973.893.985-1.25C27.993 78.237 27.55 77 27 77s-.993.563-.985 1.25m43.735-.561c-2.148.562-2.135.93.183 5.285l1.85 3.473 1.103-3.973c1.642-5.916 1.577-6.016-3.136-4.785m-40.083.978c-.367.366-.651 1.829-.632 3.25l.036 2.583L30.5 82c.786-1.375 1.445-2.838 1.465-3.25.043-.93-1.4-.982-2.298-.083m2.049 4.237c-2.337 3.955-2.249 4.08 2.034 2.911 4.831-1.319 4.91-1.428 2.756-3.809-2.372-2.62-2.754-2.548-4.79.898m6.818-.925c1.572 1.571 2.595 1.807 4.972 1.147l2.994-.832-4-1.141c-5.567-1.589-6.24-1.449-3.966.826m26.034-1.088c-.303.489.563 1.62 1.925 2.512 2.461 1.613 2.469 1.608 1.331-.89-1.186-2.602-2.306-3.16-3.256-1.622m-9.413.992c-.991.628-.65 1.027 1.296 1.515 2.773.696 4.549.127 4.549-1.457 0-1.17-4.028-1.209-5.845-.058M61.5 84c-.34.55.047 1 .859 1 .813 0 2.302.286 3.309.635 1.61.557 1.59.44-.168-.969-2.355-1.887-3.162-2.021-4-.666m-17.781.844c-1.561.617-1.345 1.126 1.75 4.126L49 92.392v-4.196c0-4.386-1.022-5.035-5.281-3.352M51 88.196v4.196l3.531-3.422c3.095-3 3.311-3.509 1.75-4.126C52.022 83.161 51 83.81 51 88.196" fill-rule="evenodd"/></svg>