<svg xmlns="http://www.w3.org/2000/svg" width="100" height="100"><path d="M40.618 11.048c-6.328 1.59-15.334 6.92-19.706 11.663-2.245 2.436-5.507 7.436-7.247 11.109-2.866 6.049-3.165 7.582-3.165 16.232 0 9.029.206 9.969 3.766 17.171 5.435 10.998 15.415 19.363 25.508 21.382L43 89.25V35h9.6c9.584 0 9.606.006 13 3.4l3.4 3.4v12.15c0 9.072-.397 12.916-1.566 15.178C65.713 72.455 60.772 75 56.032 75H53v7.5c0 8.621-.273 8.456 9.145 5.517 11.149-3.48 21.29-13.168 25.411-24.278 1.396-3.762 1.944-7.79 1.944-14.291 0-8.438-.253-9.565-3.735-16.609-6.757-13.673-18.763-21.695-33.516-22.397-4.262-.203-9.496.07-11.631.606m2.556 7.266C38.668 23.112 41.774 30 48.443 30c2.425 0 3.904-.658 5-2.223 5.153-7.356-4.173-15.951-10.269-9.463M35.5 36.155c-4.244 2.321-4.5 3.546-4.5 21.536V75h9V55c0-21.073-.049-21.28-4.5-18.845M53 54.5v10.627l3.25-.314 3.25-.313v-20l-3.25-.313-3.25-.314V54.5" fill-rule="evenodd"/></svg>