<svg width="96" height="96" xmlns="http://www.w3.org/2000/svg"><g fill="none" fill-rule="evenodd"><path fill="#05C0A5" d="M28 48h38v31H28z"/><path fill="#FFF" fill-rule="nonzero" d="M17.575 34.208V62.59l5.217 2.417h5.826v-15.4h37.856v15.4l8.05 1.482 5.039-3.9v-28.38l-7.32-3.242H19.886zm12.428-18.831v15.497h35.805V15.377z"/><path d="M81 61.145V35.953c0-3.351-2.701-6.083-6.015-6.083h-6.517V17.04c0-2.224-1.796-4.041-3.996-4.041H31.5c-2.2 0-3.996 1.817-3.996 4.041v12.843h-6.489C17.701 29.87 15 32.602 15 35.954v25.191c0 3.352 2.701 6.083 6.015 6.083h6.503v10.73c0 2.225 1.796 4.042 3.996 4.042h32.972c2.2 0 3.996-1.817 3.996-4.041v-10.73h6.503c3.314 0 6.015-2.718 6.015-6.084zM30.93 17.041c0-.323.264-.591.584-.591h32.972c.32 0 .585.268.585.591v12.843H30.929V17.04zM65.07 77.96a.592.592 0 01-.584.591H31.514a.592.592 0 01-.585-.591V50.274h34.128V77.96h.014zm1.7-31.135H29.23c-.946 0-1.712.775-1.712 1.732v15.222h-6.503c-1.434 0-2.604-1.182-2.604-2.633V35.953c0-1.45 1.17-2.633 2.604-2.633h53.956c1.434 0 2.604 1.183 2.604 2.633v25.192c0 1.45-1.17 2.633-2.604 2.633h-6.503V48.556a1.7 1.7 0 00-1.698-1.732z" stroke="#003945" stroke-width="1.4" fill="#003945" fill-rule="nonzero"/><path d="M22.439 37.423c-.28.283-.439.663-.439 1.068 0 .392.159.785.439 1.067a1.49 1.49 0 002.122 0A1.53 1.53 0 0025 38.491a1.53 1.53 0 00-.439-1.068c-.573-.564-1.573-.564-2.122 0zM59.135 63H37.88c-1.04 0-1.88.67-1.88 1.5s.841 1.5 1.88 1.5h21.24c1.039 0 1.88-.67 1.88-1.5s-.841-1.5-1.865-1.5zm0 8H37.88c-1.04 0-1.88.67-1.88 1.5s.841 1.5 1.88 1.5h21.24c1.039 0 1.88-.67 1.88-1.5s-.841-1.5-1.865-1.5zm0-16H37.88c-1.04 0-1.88.67-1.88 1.5s.841 1.5 1.88 1.5h21.24c1.039 0 1.88-.67 1.88-1.5s-.841-1.5-1.865-1.5z" stroke="#003945" stroke-width="1.4" fill="#003945" fill-rule="nonzero"/></g></svg>