<svg xmlns="http://www.w3.org/2000/svg" width="100" height="100"><path d="M40.618 11.048c-6.328 1.59-15.334 6.92-19.706 11.663-2.245 2.436-5.507 7.436-7.247 11.109-2.866 6.049-3.165 7.582-3.165 16.232 0 9.015.21 9.976 3.735 17.108 4.498 9.102 10.288 14.771 19.585 19.175C39.861 89.197 41.409 89.5 50 89.5s10.139-.303 16.18-3.165c9.297-4.404 15.087-10.073 19.585-19.175C89.294 60.02 89.5 59.075 89.5 50s-.206-10.02-3.735-17.16c-6.757-13.673-18.762-21.696-33.516-22.398-4.262-.203-9.496.07-11.631.606M33.38 34.452C32.179 37.582 34.119 38 49.837 38 67.807 38 70 38.696 70 44.402c0 5.959-1.63 6.514-20.05 6.822L33.5 51.5l-.284 10.768c-.237 8.971-.026 10.868 1.263 11.362C37.644 74.845 39 72.098 39 64.469v-7.286l15.083-.341 15.084-.342 2.916-3.266C74.487 50.543 75 49.083 75 44.935c0-5.444-1.959-10.322-4.545-11.314-.89-.341-9.471-.621-19.068-.621-14.333 0-17.549.259-18.007 1.452" fill-rule="evenodd"/></svg>