<svg xmlns="http://www.w3.org/2000/svg" viewBox="0 0 137.56 137.56"><style/><g id="Layer_1"><path d="M70.37 135.95c-35.19 0-63.82-28.63-63.82-63.82S35.18 8.31 70.37 8.31s63.82 28.63 63.82 63.82-28.63 63.82-63.82 63.82z"/><path d="M70.37 9.36c34.67 0 62.78 28.11 62.78 62.78s-28.11 62.78-62.78 62.78S7.59 106.81 7.59 72.14c0-34.68 28.11-62.78 62.78-62.78m0-2.09c-35.76 0-64.86 29.1-64.86 64.86s29.1 64.86 64.86 64.86 64.86-29.1 64.86-64.86-29.1-64.86-64.86-64.86z"/><path d="M66.46 129.55c-35.19 0-63.82-28.63-63.82-63.82S31.27 1.91 66.46 1.91s63.82 28.63 63.82 63.82-28.63 63.82-63.82 63.82z" fill="#fff"/><path d="M66.46 2.96c34.67 0 62.78 28.11 62.78 62.78s-28.11 62.78-62.78 62.78S3.68 100.4 3.68 65.73 31.79 2.96 66.46 2.96m0-2.09C30.69.87 1.6 29.97 1.6 65.73s29.1 64.86 64.86 64.86 64.86-29.1 64.86-64.86S102.22.87 66.46.87z"/><path d="M92.2 64.09v27.64H40.7V64.09h51.5m0-2H40.7c-1.1 0-2 .9-2 2v27.64c0 1.1.9 2 2 2h51.5c1.1 0 2-.9 2-2V64.09a2 2 0 00-2-2z"/><path d="M95.33 46.01v15.72H37.58V46.01h57.75m0-2.08H37.58c-1.15 0-2.08.93-2.08 2.08v15.72c0 1.15.93 2.08 2.08 2.08h57.75c1.15 0 2.08-.93 2.08-2.08V46.01c.01-1.15-.93-2.08-2.08-2.08z"/><path d="M73.03 46.01v45.73H61.2V46.01h11.83m0-2.08H61.2c-1.15 0-2.08.93-2.08 2.08v45.73c0 1.15.93 2.08 2.08 2.08h11.84c1.15 0 2.08-.93 2.08-2.08V46.01c0-1.15-.93-2.08-2.09-2.08z"/><path d="M79.83 34.14c.2 0 .41.01.62.02 7.86.48 8.36 9.48-8.76 9.48-1.05 0-2.17-.03-3.35-.11 0 .01 3.58-9.38 11.49-9.39m0-2.08c-9.24 0-13.27 10.3-13.44 10.74-.24.62-.16 1.31.2 1.87s.96.91 1.62.95c1.2.07 2.37.11 3.48.11 11.69 0 15.97-3.97 16.09-7.69.1-3.2-2.93-5.7-7.21-5.96-.25-.01-.5-.02-.74-.02z"/><path d="M54.74 34.14c7.91 0 11.49 9.4 11.49 9.4-1.19.07-2.3.11-3.35.11-17.11 0-16.62-9.01-8.76-9.48.21-.02.42-.03.62-.03m0-2.08c-.24 0-.49.01-.74.02-4.27.26-7.3 2.77-7.21 5.96.11 3.72 4.4 7.69 16.09 7.69 1.11 0 2.28-.04 3.48-.11.66-.04 1.27-.39 1.62-.95a2.1 2.1 0 00.2-1.87c-.17-.44-4.2-10.74-13.44-10.74z"/><path d="M116.06 53.71c-2.84 32.4-28.77 58.16-61.24 60.75 4.57 1.41 9.42 2.17 14.45 2.17 26.98 0 48.86-21.87 48.86-48.86 0-4.88-.73-9.6-2.07-14.06z" fill="#010204" opacity=".2"/><path d="M67.28 15.88c27.62 0 50.01 22.39 50.01 50.01 0 27.62-22.39 50.01-50.01 50.01-27.62 0-50.01-22.39-50.01-50.01.01-27.62 22.39-50.01 50.01-50.01m0-2.08c-28.72 0-52.09 23.37-52.09 52.09 0 28.72 23.37 52.09 52.09 52.09s52.09-23.37 52.09-52.09c.01-28.73-23.36-52.09-52.09-52.09z"/></g></svg>