<svg xmlns="http://www.w3.org/2000/svg" width="100" height="100"><path d="M76.001 8.123C70.503 10.316 66 16.553 66 21.975c0 3.766 3.386 5.43 9.659 4.745 7.799-.851 14.264-8.287 14.319-16.47L90 7l-5.75.063c-3.162.035-6.875.512-8.249 1.06m-37.958 2.096c-3.035 1.603-3.816 4.269-3.943 13.474C33.972 32.939 32.726 34 22 34c-11.155 0-12 .844-12 11.985C10 57.511 10.462 58 21.349 58c11.346 0 12.649 1.01 12.657 9.807.003 3.681.474 8.381 1.047 10.443L36.094 82h9.831c6.653 0 10.16-.404 10.85-1.25.561-.687 1.179-5.227 1.373-10.088C58.608 59.112 59.747 58 71.111 58 81.888 58 83 56.878 83 46s-1.112-12-11.889-12c-11.295 0-12.336-1.022-13.056-12.818-.327-5.355-1.081-9.61-1.837-10.365-1.804-1.802-15.066-2.239-18.175-.598" fill-rule="evenodd"/></svg>