<svg xmlns="http://www.w3.org/2000/svg" width="100" height="100"><path d="M43.448 23.748L37.5 38.5l-13.449.5-13.45.5 9.611 8.868 9.611 8.869-4.49 10.631c-2.469 5.848-5.338 12.745-6.375 15.327l-1.886 4.695 11.214-6.568c6.168-3.612 13.547-7.888 16.399-9.503l5.185-2.936 15.637 9.153c8.601 5.034 15.817 8.973 16.037 8.753.22-.22-2.346-6.897-5.703-14.837l-6.104-14.437 9.882-9.237L89.5 39.04l-13.647-.02L62.207 39l-5.684-14.25c-3.126-7.838-6.009-14.588-6.405-15.002-.397-.413-3.398 5.887-6.67 14m2.138 12.73L41.818 46l-7.159.045-7.159.046 5.159 4.704 5.16 4.705-2.486 6c-4.871 11.755-4.691 10.961-2.108 9.298 1.251-.806 5.499-3.338 9.44-5.626l7.165-4.161 8.654 5.093c4.759 2.801 8.852 4.893 9.096 4.65.244-.244-1.008-3.728-2.781-7.742l-3.223-7.299 5.233-4.812 5.234-4.813-7.217-.294-7.218-.294-3.385-8.5c-1.862-4.675-3.719-8.848-4.127-9.272-.407-.425-2.437 3.512-4.51 8.75" fill-rule="evenodd"/></svg>