<svg width="34" height="34" xmlns="http://www.w3.org/2000/svg"><g fill="#003945"><path d="M0 33.128h14.82V19.18H0v13.95zM2.964 21.97h8.892v8.348H2.964V21.97z"/><path d="M7.846 24.41h4.359v4.359H7.846zm16.564 6.103h4.359V34H24.41zm6.103 0H34V34h-3.487z"/><path d="M30.338 21.97H27.55v-2.79h-8.37v13.948h2.79v-8.37h2.79v2.791h8.37v-8.37h-2.79zM0 14.82h14.82V0H0v14.82zM2.964 2.965h8.892v8.892H2.964V2.964z"/><path d="M7.846 7.846h4.359v4.359H7.846zM19.18 0v14.82h13.948V0H19.18zm11.158 11.856H21.97V2.964h8.37v8.892z"/><path d="M24.41 7.846h4.359v4.359H24.41z"/></g></svg>