<svg width="250" height="250" xmlns="http://www.w3.org/2000/svg"><g fill="none" fill-rule="evenodd"><circle fill="#000" cx="125" cy="125" r="125"/><path d="M192.29 172.777c2.092 0 3.899.736 5.423 2.208 1.525 1.472 2.287 3.29 2.287 5.455 0 2.079-.762 3.875-2.287 5.39-1.524 1.516-3.331 2.274-5.422 2.274-2.178 0-4.007-.758-5.488-2.273-1.48-1.516-2.221-3.312-2.221-5.39 0-.693.087-1.386.261-2.079a5.755 5.755 0 01.784-1.818l-13.458-11.56-27.57 19.743c.175.346.283.67.327.974.044.303.065.627.065.974 0 1.472-.522 2.727-1.568 3.766-1.045 1.04-2.264 1.559-3.658 1.559-1.307 0-2.44-.368-3.397-1.104-.959-.736-1.568-1.71-1.83-2.922H105.27c-.261 1.212-.871 2.186-1.83 2.922a5.221 5.221 0 01-3.266 1.104c-1.48 0-2.744-.52-3.789-1.559s-1.568-2.294-1.568-3.766c0-.347.044-.671.13-.974.088-.303.175-.628.262-.974l-24.172-17.275a5.617 5.617 0 01-1.503.844c-.566.217-1.198.325-1.895.325-1.48 0-2.744-.52-3.789-1.559s-1.568-2.294-1.568-3.766c0-.953.24-1.818.719-2.598a5.073 5.073 0 011.894-1.818l-9.277-28.185h-.26c-1.482 0-2.745-.52-3.79-1.558-1.045-1.04-1.568-2.295-1.568-3.767s.523-2.727 1.568-3.766c1.045-1.04 2.308-1.56 3.79-1.56h.391l9.146-27.924h-.13c-.697-.433-1.285-1.039-1.764-1.818a4.862 4.862 0 01-.719-2.598c0-1.472.523-2.727 1.568-3.766 1.045-1.04 2.309-1.56 3.79-1.56.696 0 1.328.11 1.894.326a4.277 4.277 0 011.503.974l24.172-17.405c-.087-.26-.174-.562-.261-.909a4.246 4.246 0 01-.13-1.039c0-1.472.522-2.727 1.567-3.766 1.045-1.04 2.308-1.559 3.79-1.559 1.219 0 2.308.39 3.266 1.169.958.78 1.568 1.732 1.829 2.857h29.268c.262-1.212.871-2.186 1.83-2.922.958-.736 2.09-1.104 3.397-1.104 1.394 0 2.613.52 3.658 1.559 1.046 1.039 1.568 2.294 1.568 3.766 0 .347-.021.693-.065 1.04a2.07 2.07 0 01-.327.908l24.173 17.405a4.169 4.169 0 011.568-.974 5.437 5.437 0 011.829-.325c1.48 0 2.744.52 3.79 1.558 1.044 1.04 1.567 2.295 1.567 3.767 0 .953-.24 1.818-.719 2.598-.479.78-1.067 1.385-1.763 1.818l9.146 28.055h.392c1.394 0 2.613.52 3.658 1.558 1.046 1.04 1.568 2.295 1.568 3.767s-.522 2.728-1.568 3.767c-1.045 1.039-2.264 1.558-3.658 1.558h-.392l-10.453 32.081 13.589 11.69a7.281 7.281 0 012.286-1.364 7.73 7.73 0 012.679-.455zm-19.206-78.319l-1.699 25.847a6.74 6.74 0 012.287 1.493c.653.65 1.067 1.45 1.24 2.403h4.443a5.01 5.01 0 01.85-1.818c.392-.52.893-.953 1.502-1.299l-8.623-26.626zM170.6 92.77l-.13-.13c-.436-.087-.872-.303-1.307-.65a14.229 14.229 0 01-1.176-1.039l-8.885 3.767c0 .173.022.346.065.52.044.172.065.302.065.389 0 .78-.174 1.515-.522 2.208-.349.693-.784 1.255-1.307 1.688l10.976 20.782c.087-.087.152-.13.196-.13h.196L170.6 92.77zm-29.922 27.535l9.8-20.652a6.1 6.1 0 01-1.307-1.493 4.63 4.63 0 01-.653-1.884l-23.65-2.987c-.174.346-.37.671-.588.974a6.703 6.703 0 01-.718.844l14.634 25.328c.261-.087.523-.152.784-.195.261-.044.522-.065.784-.065.174 0 .348.021.522.065.175.043.305.065.392.065zm12.152-19.483l-9.669 20.652a4.06 4.06 0 011.045 1.234c.262.476.48.974.654 1.493h19.73c.087-.52.26-1.017.522-1.493a4.06 4.06 0 011.046-1.234l-10.976-20.782a6.07 6.07 0 01-.719.195 3.045 3.045 0 01-.588.065 2.16 2.16 0 01-.522-.065 2.16 2.16 0 00-.523-.065zm-16.855 20.911L121.34 96.406c-.26 0-.5.022-.718.065a3.692 3.692 0 01-.719.065c-.261 0-.5-.022-.718-.065a3.045 3.045 0 00-.588-.065l-14.765 25.327c.348.347.653.715.914 1.104.262.39.436.845.523 1.364h29.268c.175-.52.37-.974.588-1.364.218-.39.501-.757.85-1.104zm-34.365-1.298l14.635-25.328a6.618 6.618 0 01-.719-.844 5.243 5.243 0 01-.588-1.104l-23.65 3.117a4.63 4.63 0 01-.653 1.884 6.1 6.1 0 01-1.307 1.493l9.8 20.652c.174 0 .348-.022.523-.065a2.16 2.16 0 01.522-.065c.262 0 .501.021.719.065.218.043.457.108.718.195zm-4.834 1.039l-9.669-20.652a2.16 2.16 0 00-.523.065 2.16 2.16 0 01-.522.065c-.262 0-.501-.021-.719-.065a3.046 3.046 0 00-.588-.065L73.78 121.604c.436.346.784.736 1.046 1.168.261.433.479.91.653 1.43h19.6c.087-.607.282-1.126.587-1.56a5.642 5.642 0 011.111-1.168zm-21.298 5.325c-.174.52-.392.996-.653 1.429-.262.432-.61.822-1.046 1.168l10.976 20.912c.174-.087.37-.13.588-.13h1.633l9.8-20.652a5.642 5.642 0 01-1.11-1.169c-.306-.433-.545-.952-.72-1.558H75.48zm23.65 3.896l-9.8 20.652a6.1 6.1 0 011.307 1.493 4.63 4.63 0 01.653 1.884l23.65 2.987c.174-.346.37-.693.588-1.04.218-.345.457-.649.719-.908l-14.635-25.198a2.332 2.332 0 01-.653.195 4.789 4.789 0 01-.784.065 2.16 2.16 0 01-.522-.065 2.16 2.16 0 00-.523-.065zm4.704-1.428l14.634 25.197v.13c.261-.087.5-.152.719-.195.217-.043.457-.065.718-.065.262 0 .523.022.784.065.261.043.48.065.653.065l14.635-25.197a7.251 7.251 0 01-.915-1.104 3.436 3.436 0 01-.523-1.364H105.27c-.087.52-.261.974-.523 1.364-.26.39-.566.757-.914 1.104zm36.848 1.432a2.184 2.184 0 00-.394.061 2.764 2.764 0 01-.653.065c-.261 0-.5-.021-.718-.065a6.07 6.07 0 01-.72-.195l-14.503 25.198c.262.26.48.563.654.909l.522 1.039 23.78-2.987c.088-.693.284-1.32.589-1.884a5.065 5.065 0 011.241-1.493l-9.798-20.648zm2.35-1.173l9.8 20.652h1.633c.218 0 .414.043.588.13l11.237-21.041a2.994 2.994 0 01-1.045-1.04 7.158 7.158 0 01-.653-1.428h-19.73c-.175.606-.414 1.125-.719 1.558a5.642 5.642 0 01-1.11 1.17zm23.907-41.04a1.307 1.307 0 00-.06-.327 1.431 1.431 0 01-.066-.455c0-.346.043-.693.13-1.039.088-.346.175-.65.262-.91l-24.042-17.403c-.087 0-.13.021-.13.065v.064l9.908 21.902c.138-.054.276-.081.414-.081h.522c.871 0 1.655.195 2.352.584a6.76 6.76 0 011.83 1.494l8.88-3.895zM137.674 69.26l-13.589 18.703c.262.346.501.736.719 1.169.218.433.327.909.327 1.429l23.78 3.117a6.7 6.7 0 01.653-1.234c.262-.39.61-.715 1.046-.974l-9.93-21.95a2.16 2.16 0 00-.523.064 2.16 2.16 0 01-.523.065 3.56 3.56 0 01-.98-.13 30.673 30.673 0 00-.98-.26zm-32.404-3.637a3.656 3.656 0 01-.392 1.104 9.49 9.49 0 01-.653.974l13.72 18.573v.13c.26-.173.565-.281.914-.324a8.47 8.47 0 011.045-.065c.349 0 .675.021.98.065.305.043.588.108.85.194l13.85-18.573a6.818 6.818 0 01-.654-1.039 5.057 5.057 0 01-.392-1.039H105.27zm-5.096 4.026a2.16 2.16 0 01-.522-.065 1.797 1.797 0 00-.392-.064l-9.93 21.95c.348.26.653.584.914.974s.479.8.653 1.234l23.78-3.117c.088-.52.218-.996.393-1.43a3.45 3.45 0 01.784-1.168l-13.72-18.703c-.261.086-.566.173-.914.26a4.32 4.32 0 01-1.046.13zm-3.397-1.298L72.605 85.756c.087.26.174.541.26.844.088.303.132.628.132.974v.52c0 .173-.044.303-.131.39l9.016 3.896c.435-.606 1.023-1.104 1.763-1.494a5.111 5.111 0 012.418-.584h.457c.13 0 .283.043.457.13l9.93-21.95c-.086 0-.13-.022-.13-.065v-.065zm-24.956 22.6a4.54 4.54 0 01-1.046.973 5.566 5.566 0 01-1.437.715l1.96 27.665h.261l10.976-20.782a4.015 4.015 0 01-1.372-1.688 5.122 5.122 0 01-.457-2.078v-.52c0-.173.043-.346.13-.52l-9.015-3.766zm-4.966 65.59l1.83-25.977h-.131a6.39 6.39 0 01-2.09-1.493 5.666 5.666 0 01-1.307-2.273h-4.704a5.01 5.01 0 01-.85 1.818c-.391.52-.892.953-1.502 1.299l8.754 26.626zm-1.698-32.34a5.666 5.666 0 011.306-2.274 6.085 6.085 0 012.222-1.493l-1.83-25.977-8.623 26.496a6.075 6.075 0 011.437 1.364c.436.563.697 1.19.784 1.883h4.704zm4.181 34.158c.523.174.98.39 1.372.65.392.26.762.606 1.11 1.039l9.016-3.767a1.042 1.042 0 01-.13-.454v-.455c0-.78.152-1.515.457-2.208a4.015 4.015 0 011.372-1.688l-10.976-20.782h-.261l-1.96 27.665zm3.577 4.135c.054.137.082.274.082.411v.52c0 .346-.044.692-.131 1.039-.087.346-.174.65-.261.909l24.172 17.274.13-.13-9.93-21.95c-.174.087-.348.13-.522.13h-.523c-.871 0-1.655-.195-2.352-.584a6.743 6.743 0 01-1.83-1.494l-8.835 3.875zm26.343 18.98a2.16 2.16 0 00.394-.06 2.16 2.16 0 01.522-.065c.349 0 .697.043 1.046.13.348.086.653.173.914.26l11.368-15.587 2.352-3.117a5.162 5.162 0 01-.784-1.299 6.857 6.857 0 01-.392-1.428l-23.65-2.988h-.13a6.7 6.7 0 01-.654 1.234c-.261.39-.566.715-.915.974l9.929 21.947zm22.64-16.964a3.191 3.191 0 01-.949.279 8.469 8.469 0 01-2.09 0 2.099 2.099 0 01-.915-.325l-13.72 18.833c.262.26.48.584.654.974a6.8 6.8 0 01.392 1.104h29.268c.087-.346.218-.693.392-1.04.175-.345.392-.692.654-1.038l-13.686-18.787zm18.781 16.968l.262-.779 9.538-21.17a9.772 9.772 0 01-.915-1.04 5.074 5.074 0 01-.653-1.169l-23.78 2.988c0 .52-.11.995-.327 1.428-.218.433-.5.866-.85 1.3l13.72 18.702c.349-.086.675-.173.98-.26.305-.086.632-.13.98-.13.174 0 .349.022.523.066.174.043.348.064.522.064zm2.483 1.17l26.394-19.093-11.499-4.936v.13a5.815 5.815 0 01-1.829 1.429c-.697.346-1.48.52-2.352.52h-.522c-.175 0-.305-.044-.392-.13l-9.67 21.3-.26.65v.13h.13zm15.94-26.367l11.63 5.066-1.96-30.783h-.262l-11.106 20.912c.523.52.958 1.104 1.307 1.753a4.46 4.46 0 01.522 2.143c0 .173-.021.325-.065.455-.043.13-.065.281-.065.454zm12.283-25.846l1.699 26.106 8.623-26.626a4.859 4.859 0 01-1.502-1.299 5.01 5.01 0 01-.85-1.818h-4.573a4.213 4.213 0 01-1.176 2.208c-.61.606-1.35 1.082-2.221 1.429z" fill="#FFF" fill-rule="nonzero"/></g></svg>