<svg xmlns="http://www.w3.org/2000/svg" width="100" height="100"><path d="M10 50v40h80V10H10v40m26.25-26.819L31 26.127v53.038l5.25-3.03 5.25-3.03.271-20.053C41.92 42.024 42.205 33 42.406 33c.2 0 3.839 1.981 8.086 4.401l7.723 4.402-6.096 3.348-6.095 3.349-.012 6.583L46 61.665l13.5 9.225L73 80.115l-.017-6.307-.017-6.308-8.046-5.666-8.046-5.665 6.563-3.671L70 48.828l-.013-6.664-.012-6.664L56.393 28c-7.469-4.125-13.876-7.559-14.237-7.632-.361-.073-3.018 1.193-5.906 2.813" fill-rule="evenodd"/></svg>