<svg xmlns="http://www.w3.org/2000/svg" width="226.777" height="226.777"><path d="M113.121 110.328l20.165-17.31-20.165-8.867-20.164 8.867zm30.621-26.286h-24.974l16.516 7.262zm-57.367 26.665l2.674-15.171-19.365 15.171zm53.371 2.372l-12.466 39.843 30.324-39.843zM91.561 94.946l-2.778 15.761h21.135zm7.403 57.976l-12.466-39.843H68.64zm60.174-43.21l3.232-20.631-15.155-4.892-9.856 8.461zm15.914.995l-10.708-18.898-2.959 18.898zm-63.425 2.372H88.985l12.965 41.436zm12.668 41.436l12.963-41.436h-22.64zm64.026-43.808l-20.299-17.221 9.757 17.221zm-31.762 0l-19.365-15.171 2.676 15.171zm-40.234 0h21.134l-2.776-15.759zm-51.466 0L61.9 91.809l-10.707 18.898zm60.341 48.865l-9.426 30.121 22.698-23.818 17.577-46.832zm35.621-46.493l-16.807 44.784 30.815-44.784zm-47.7 4.03l-9.777 41.867 9.777 31.248 9.777-31.25z"/><path d="M148.005 76.131H78.239l-19.027 6.143-34.303 29.102 88.213 92.568 88.212-92.568-34.301-29.102-19.028-6.143zm44.347 34.891c.031.029.06.06.089.092.023.026.047.053.068.082a1.594 1.594 0 01.118.201c.018.04.031.081.046.122.011.033.023.067.031.101.01.041.015.083.02.125.003.029.012.057.014.086 0 .01-.003.021-.002.031 0 .01.003.019.003.031 0 .032-.007.061-.01.094-.003.037-.005.076-.011.112-.008.045-.021.085-.032.127-.012.034-.02.068-.034.1a.944.944 0 01-.056.121c-.017.029-.03.059-.049.09-.026.038-.055.07-.083.106-.018.022-.033.047-.053.068l-78.431 82.306a1.294 1.294 0 01-.257.2c-.016.01-.032.012-.047.02a1.137 1.137 0 01-.199.088c-.026.008-.053.018-.078.023a1.35 1.35 0 01-.275.039h-.005a1.216 1.216 0 01-.275-.039c-.026-.006-.052-.016-.079-.023a1.329 1.329 0 01-.202-.088c-.014-.008-.03-.01-.044-.02-.007-.002-.01-.008-.019-.014a1.325 1.325 0 01-.239-.186l-78.429-82.306c-.02-.021-.035-.046-.054-.069-.029-.035-.059-.067-.081-.105-.019-.031-.034-.061-.05-.09-.021-.041-.042-.08-.059-.121-.012-.032-.021-.066-.031-.1a1.112 1.112 0 01-.033-.126c-.006-.038-.008-.078-.01-.115-.003-.031-.01-.06-.01-.092 0-.012.002-.021.003-.031 0-.011-.003-.021-.002-.031.002-.03.009-.057.013-.086.006-.042.011-.084.019-.125a.744.744 0 01.033-.101c.013-.041.027-.083.045-.122.015-.032.033-.062.05-.093.022-.037.043-.073.067-.108a1.784 1.784 0 01.157-.174c.012-.012.02-.024.033-.034l27.854-23.63c.017-.015.041-.019.058-.031.091-.07.189-.126.294-.166.019-.007.032-.021.051-.028l16.752-5.407c.006-.003.015-.002.021-.004.101-.03.204-.045.308-.049.012-.001.024-.004.035-.004h67.649c.011 0 .021.003.03.003.106.004.214.02.315.05l.018.004 16.754 5.407c.021.007.037.025.058.034.098.036.188.088.273.152.022.016.051.022.072.04l27.854 23.63a.152.152 0 01.034.033z"/><path d="M107.476 84.042H82.501l8.46 7.262zm41.464 70.844l39.843-41.807H177.71zm-78.744-35.843l17.576 46.832 22.697 23.818-9.424-30.121zM88.884 92.65l-9.855-8.461-15.156 4.892 3.232 20.631zm-30.663.836l-20.296 17.221h10.54zm-20.76 19.593l39.842 41.807-28.771-41.807zm13.953 0l30.816 44.784-16.807-44.784zm-39.625 37.864l-10.68 2.641a1.975 1.975 0 00-1.447 2.393 1.98 1.98 0 001.918 1.504c.158 0 .316-.02.476-.061l10.68-2.635a1.982 1.982 0 001.446-2.396 1.981 1.981 0 00-2.393-1.446zm3.031-52.18L4.14 95.485a1.977 1.977 0 00-1.16 3.78l10.678 3.28a1.977 1.977 0 001.162-3.782zm25.295-41.424a1.976 1.976 0 102.831-2.759l-7.778-7.976a1.979 1.979 0 00-2.832 2.761l7.779 7.974zm45.104-26.616a1.979 1.979 0 001.902 1.442c.178 0 .359-.026.538-.077a1.977 1.977 0 001.366-2.44l-3.07-10.878a1.978 1.978 0 00-3.807 1.075l3.071 10.878zm139.916 122.861l-10.68-2.641a1.98 1.98 0 00-2.394 1.445 1.98 1.98 0 001.445 2.396l10.682 2.635c.156.041.317.061.474.061.888 0 1.696-.604 1.919-1.504a1.973 1.973 0 00-1.446-2.392zm-1.871-54.32a1.976 1.976 0 10-1.161-3.78l-10.68 3.278a1.979 1.979 0 00.579 3.868c.192 0 .39-.027.581-.087l10.681-3.279zm-38.551-41.327c.514 0 1.027-.2 1.415-.598l7.779-7.975a1.979 1.979 0 10-2.832-2.761l-7.777 7.976a1.973 1.973 0 00.035 2.795 1.97 1.97 0 001.38.563zm-46.128-25.849c.18.05.36.077.537.077.864 0 1.657-.571 1.904-1.442l3.07-10.878a1.979 1.979 0 00-1.366-2.441 1.98 1.98 0 00-2.44 1.366l-3.071 10.878a1.978 1.978 0 001.366 2.44z"/></svg>