<svg xmlns="http://www.w3.org/2000/svg" width="100" height="100"><path d="M38.324 14.383c-6.2 2.023-10.628 5.075-16.194 11.165-6.341 6.938-9.259 14.395-9.569 24.452-.175 5.651-.765 8.363-2.393 11-1.188 1.925-2.162 4.287-2.164 5.25-.006 2.757 3.522 2.086 4.897-.931l1.221-2.681 2.817 4.931c3.592 6.288 11.686 13.871 17.802 16.68 3.912 1.796 6.627 2.191 15.259 2.218 9.502.03 11.04-.232 16.178-2.756C73.771 79.982 82.146 70.893 85 63.285c1.362-3.631 2.231-8.408 2.335-12.828.124-5.299.764-8.171 2.581-11.596 2.45-4.614 2.328-8.275-.243-7.289-.771.296-1.941 1.72-2.599 3.164l-1.196 2.626-2.837-4.967c-3.797-6.648-10.352-12.877-16.985-16.141-4.474-2.201-7.058-2.728-14.5-2.956-5.668-.173-10.618.233-13.232 1.085m2.962 4.068c-10.026 3.133-16.705 8.916-20.942 18.13C17.652 42.437 16.144 51 17.805 51c.592 0 1.378-.487 1.746-1.083 2.721-4.402 21.445-12.489 31.251-13.498 9.031-.929 9.059-.976 3.843-6.272-4.512-4.58-4.632-4.849-2.877-6.437 1.734-1.569 2.24-1.246 9.534 6.091l7.703 7.748-6.901 6.848C55.839 50.614 53 51.968 53 48.739c0-.629 1.432-2.621 3.182-4.426 1.75-1.806 2.889-3.575 2.531-3.933-.357-.357-4.555.067-9.328.944-10.25 1.882-21.084 6.776-27.276 12.321-4.366 3.911-4.384 3.953-3.092 7.525 3.358 9.288 12.494 17.469 22.877 20.488 14.325 4.164 31.327-3.959 37.999-18.155C81.98 59.064 83.805 49 82.523 49c-.404 0-2.104 1.152-3.778 2.561C71.615 57.561 54.064 64 44.84 64c-2.112 0-3.84.356-3.84.792 0 .435 2.013 2.767 4.472 5.181 3.432 3.368 4.218 4.696 3.378 5.708-1.88 2.265-3.19 1.53-10.627-5.956l-7.226-7.275 6.946-6.894c6.038-5.991 7.156-6.719 8.548-5.564 1.433 1.19 1.21 1.73-2.13 5.15-2.052 2.102-3.48 4.072-3.173 4.379.838.838 12.666-1.245 19.079-3.361 6.608-2.18 15.728-7.501 19.368-11.301 2.377-2.481 2.471-2.924 1.305-6.148-5.588-15.453-24.354-25.042-39.654-20.26" fill-rule="evenodd"/></svg>