<svg width="25" height="28" xmlns="http://www.w3.org/2000/svg"><path d="M3.85 5.886L5.886 4.71l.287.477 7.572-4.39-.54-.319-.573-.318-.255-.16L0 7.16v.285L3.564 5.41zm0 4.487L9.8 6.968l.255.477 7.604-4.39-.573-.319-.54-.318-.287-.159L0 11.614v.35l3.564-2.069zm0 2.259l7.86-4.55.285.477L19.6 4.17l-.573-.319-.54-.318-.287-.16L0 13.873v.319l3.564-2.036zm0 2.228l9.864-5.696.286.477 7.54-4.36-.572-.317-.54-.319-.287-.159L0 16.132v.286l3.564-2.036zm0 2.258l11.805-6.84.286.508 7.54-4.359-.572-.35-.54-.286-.287-.191L0 18.36v.317l3.564-2.036zM24.31 6.905l-.287-.191L0 20.618v.318L3.564 18.9l.286.445 11.805-6.809.286.478 8.782-5.06V7.16zm-22.783 15.4L3.5 21.159l.286.477 11.805-6.84.318.509 8.814-5.123V8.59L1.273 22.145zm14.063-5.25l.32.509 8.813-5.123V10.85L3.213 23.26l.255.158 2.037-1.177.286.477m-.381 1.814l2.035-1.177.287.509 7.859-4.55.318.477 8.814-5.123v-1.591l-19.6 11.296zm1.972 1.113L9.386 24.5l.287.477 5.918-3.436.318.477 8.814-5.09v-1.624L7.063 25.518zm1.654.987l.287.159 2.004-1.177.287.509L15.59 23.8l.318.477 8.814-5.09v-1.624zm2.228 1.273l2.004-1.146.287.477 2.036-1.209.318.51 8.814-5.123v-1.591l-13.746 7.954zM15.718 1.91l-.573-.287-.54-.35-.287-.16L0 9.387v.319l3.564-2.037.286.477 3.977-2.322.287.477z" fill="#080818"/></svg>