<svg xmlns="http://www.w3.org/2000/svg" width="210mm" height="297mm" viewBox="0 0 210 297" shape-rendering="geometricPrecision" text-rendering="geometricPrecision" image-rendering="optimizeQuality" fill-rule="evenodd" clip-rule="evenodd"><defs><style>.fil0{fill:#fefefe}</style></defs><g id="Layer_x0020_1"><path class="fil0" d="M164.549 138.83c-15.884 0-29.35-10.342-34.05-24.658a35.778 35.778 0 00-1.788 11.18c0 19.79 16.049 35.838 35.838 35.838 19.794 0 35.837-16.047 35.837-35.838 0-3.905-.632-7.66-1.787-11.18-4.699 14.315-18.162 24.658-34.05 24.658z"/><path class="fil0" d="M58.579 219.065c-15.063-.003-27.318-12.258-27.32-27.32v-23.926h38.233l35.74 51.246H58.58zm105.97-41.79c-15.78 0-29.171-10.206-33.954-24.375a35.776 35.776 0 00-1.884 11.462c0 16.276 10.859 30.012 25.722 34.38-3.081 11.582-13.575 20.174-26.083 20.308l-37.11-52.77c17.294-2.656 25.943-11.77 25.943-27.341 0-4.569-.864-8.857-2.588-12.867-1.818-4.15-4.57-7.436-8.252-9.86-3.17-2.098-6.888-3.567-11.153-4.406-4.265-.84-10.035-1.259-17.308-1.259H33.94c4.398-9.207 13.775-15.6 24.64-15.602h71.176l.001-.006c3.853 15.64 17.968 27.242 34.793 27.242 19.794 0 35.837-16.046 35.837-35.837 0-19.793-16.043-35.839-35.837-35.839-16.482 0-30.36 11.136-34.542 26.291H58.574C37.56 76.8 19.835 91.14 14.651 110.547H.386v19.09H84.46c2.9 0 5.099.25 7.317 1.321 2.102 1.014 4.637 2.278 4.637 7.84 0 5.563-2.284 7.569-4.595 8.573-2.577 1.12-4.606 1.358-7.359 1.358H.386v19.09h12.725v23.927c.002 25.066 20.398 45.462 45.465 45.468h69.485c22.522-.005 41.262-16.476 44.837-38.003 15.766-3.764 27.488-17.934 27.488-34.85 0-4.01-.667-7.861-1.883-11.461-4.781 14.168-18.17 24.376-33.954 24.376z"/></g></svg>