<svg width="26" height="26" xmlns="http://www.w3.org/2000/svg"><g fill="none" fill-rule="evenodd"><path d="M25.629 13.205c0 7.068-5.73 12.797-12.797 12.797-7.068 0-12.798-5.73-12.798-12.797C.034 6.137 5.764.408 12.832.408s12.797 5.73 12.797 12.797" fill="#602453"/><path d="M12.49 5.417l-.012-.005-6.122 11a.17.17 0 00.066-.025c.214-.117.426-.237.643-.35.502-.262 1.015-.5 1.555-.678.136-.045.277-.061.419-.053.316.019.607.127.889.265.428.211.797.503 1.15.822a2.51 2.51 0 001.183.596c.119.024.239.04.364.06-.008.01-.013.02-.02.027a2.297 2.297 0 00-.443.556c-.007.014-.045.024-.063.018-.215-.07-.435-.129-.642-.217a2.834 2.834 0 01-.806-.49 5.06 5.06 0 00-.845-.627 2.449 2.449 0 00-.641-.288c-.106-.026-.214-.051-.323-.014a9.774 9.774 0 00-.424.152c-.58.228-1.13.522-1.673.83-.14.079-.277.163-.422.248l6.156 3.666v-2.491c0-.043 0-.087.005-.13.03-.268.157-.492.33-.691.322-.372.732-.622 1.171-.829a2.644 2.644 0 001.387-1.46c.01-.025.02-.049.036-.083l.038.068c.1.162.197.324.298.484.03.048.091.09.093.137.002.05-.05.102-.08.153-.33.57-.794.998-1.38 1.299a9.147 9.147 0 00-.554.304c-.2.121-.385.265-.53.453a.474.474 0 00-.117.291v2.517l6.141-3.675-.037-.02c-.829-.414-1.657-.828-2.486-1.24a1.551 1.551 0 01-.497-.396c-.418-.495-.64-1.082-.765-1.706a3.136 3.136 0 00-.366-.978 2.789 2.789 0 00-.833-.882 2.537 2.537 0 00-1.045-.424c-.08-.014-.161-.023-.243-.034.004-.01.005-.016.008-.019.173-.17.327-.355.444-.57.007-.013.037-.023.053-.02a3.463 3.463 0 011.692.923c.395.391.688.845.853 1.376.049.156.057.325.091.486a3.7 3.7 0 00.455 1.177c.127.205.286.375.508.485.705.35 1.406.705 2.109 1.058.025.013.052.023.093.041L13.164 5.407a.447.447 0 01-.014.003v4.735c0 .065-.001.13-.01.195-.04.293-.192.53-.389.74-.307.331-.68.569-1.085.762-.12.057-.244.109-.356.18-.421.267-.728.641-.954 1.08-.275.534-.334 1.103-.237 1.691.018.106.045.21.068.318-.009-.002-.013-.001-.017-.003-.238-.09-.476-.18-.713-.273-.017-.006-.037-.032-.038-.05-.01-.226-.029-.452-.02-.678.022-.5.19-.96.422-1.395a3.34 3.34 0 011.39-1.392c.202-.11.41-.21.609-.328.217-.128.411-.287.558-.496a.575.575 0 00.113-.34c-.002-1.54-.002-3.08-.002-4.621v-.118m7.877 11.615a.7.7 0 01-.356.628l-3.36 2.01c-1.132.677-2.264 1.353-3.395 2.031a.746.746 0 01-.826 0 7663.606 7663.606 0 00-6.761-4.043c-.218-.13-.35-.31-.37-.566a.71.71 0 01.1-.406c.356-.635.71-1.27 1.064-1.906l5.514-9.895c.084-.15.165-.302.252-.451.216-.373.663-.476 1.004-.222a.829.829 0 01.216.257c.76 1.355 1.515 2.712 2.271 4.07l4.546 8.152c.06.106.099.217.101.34" fill="#FFF"/></g></svg>