<svg xmlns="http://www.w3.org/2000/svg" width="100" height="100"><path d="M40.618 11.048c-6.328 1.59-15.334 6.92-19.706 11.663-2.245 2.436-5.507 7.436-7.247 11.109-2.866 6.049-3.165 7.582-3.165 16.232 0 9.015.21 9.976 3.735 17.108 4.498 9.102 10.288 14.771 19.585 19.175C39.861 89.197 41.409 89.5 50 89.5s10.139-.303 16.18-3.165c9.297-4.404 15.087-10.073 19.585-19.175C89.294 60.02 89.5 59.075 89.5 50s-.206-10.02-3.735-17.16c-6.757-13.673-18.762-21.696-33.516-22.398-4.262-.203-9.496.07-11.631.606m-1.353 14.087c-.552.552-1.832 1.125-2.844 1.274-1.141.167-2.168 1.533-2.702 3.596-1.525 5.883 3.434 10.177 9.883 8.559C44.921 38.233 46 37.328 46 36.552c0-.775.662-2.072 1.472-2.881 1.296-1.296 1.296-1.618 0-2.694-.81-.672-1.472-2.142-1.472-3.266s-.302-1.743-.67-1.374c-.369.368-1.658.023-2.865-.768-1.47-.963-2.527-1.107-3.2-.434m12.447 10.877c-1.407 1.107-2.86 3.387-3.23 5.068-.789 3.594-2.206 4.356-5.658 3.043-7.863-2.989-12.772 9.301-5.11 12.793C42.324 59.016 48 54.931 48 49.512c0-2.056 1.317-2.524 4.586-1.629 6.413 1.758 11.732-3.288 9.4-8.917-.99-2.389-4.57-4.966-6.898-4.966-.45 0-1.969.905-3.376 2.012m16.261 8.334c-2.315 1.173-2.93 2.048-4.825 6.862-1.003 2.546-1.351 2.674-5.857 2.141-5.35-.631-7.211.639-9.008 6.151-.927 2.843-1.224 2.982-5.674 2.663-2.843-.204-5.311.175-6.256.959C31.05 67.523 34.039 76 40.893 76c2.428 0 5.958-3.545 6.749-6.778.873-3.569 2.05-4.225 5.45-3.04 4.181 1.457 8.09-.773 9.377-5.35 1.37-4.875 1.961-5.311 5.315-3.921 6.062 2.51 11.662-3.006 9.167-9.03-1.424-3.437-5.786-5.154-8.978-3.535" fill-rule="evenodd"/></svg>