<svg xmlns="http://www.w3.org/2000/svg" width="100" height="100"><path d="M48.75 12.878C46.485 15.576 46 17.117 46 21.619v5.466l-6.25 2.957c-4.451 2.106-7.761 2.957-11.5 2.957-5.803.001-6.338.661-3 3.702 6.628 6.036 11.177 5.813 25.774-1.268C62.273 29.976 62.628 29.878 69 30.485l6.5.618-3.892-3.989c-6.386-6.545-9.541-7.145-18.313-3.481-.861.36-1.289-1.57-1.5-6.763L51.5 9.603l-2.75 3.275M45.5 44.657c-15.106 7.184-16.398 7.614-23.127 7.698l-7.128.089 1.49 2.274C19.493 58.928 26.102 63 30.174 63c4.458 0 12.751-3.021 25.713-9.366 11.154-5.46 14.624-6.246 20.752-4.703 2.532.637 4.859.904 5.17.593.892-.891-7.821-9.302-11.391-10.996-1.771-.84-4.502-1.517-6.069-1.504-1.567.014-10.049 3.449-18.849 7.633m0 20.084c-9.678 4.56-13.016 5.664-17.25 5.706-2.888.029-5.25.344-5.25.699 0 1.342 7.147 6.853 9.727 7.5 1.622.407 4.546.016 7.366-.985C42.664 76.747 45.046 76 45.384 76c.339 0 .616 2.925.616 6.5s.38 6.5.845 6.5c2.461 0 4.589-4.458 4.968-10.409.399-6.261.425-6.308 4.544-8.309 5.945-2.888 9.979-3.559 14.271-2.374 2.068.571 3.977.82 4.243.554.73-.73-5-6.447-8.071-8.051-4.607-2.407-8.817-1.551-21.3 4.33" fill-rule="evenodd"/></svg>