<svg width="28" height="23" xmlns="http://www.w3.org/2000/svg"><path d="M3 4.5l1.809-.301c.499-.084.668-.13.851-.204a1.72 1.72 0 00.492-.299c.15-.129.27-.258.573-.662l1.034-1.38c.46-.613.689-.848.967-1.062a2.64 2.64 0 01.912-.456C9.976.041 10.302 0 11.068 0h5.864c.766 0 1.092.041 1.43.136.337.095.634.243.912.456.278.214.507.45.967 1.062l1.034 1.38c.304.404.422.533.573.662.15.13.308.225.492.3.183.074.352.12.851.203L25 4.5a3.59 3.59 0 013 3.541v9.831c0 1.783-.186 2.43-.534 3.082a3.635 3.635 0 01-1.512 1.512c-.652.348-1.299.534-3.082.534H5.128c-1.783 0-2.43-.186-3.082-.534a3.635 3.635 0 01-1.512-1.512C.186 20.302 0 19.655 0 17.872v-9.83A3.59 3.59 0 013 4.5zM14 6a7 7 0 100 14 7 7 0 000-14zm2 4h-1V9h2v2h-1v-1zm-6 6v-2h1v1h1v1h-1v1h-1v-1zm8-4v1h-1v-2h1v1zm-5 4v-1h1v2h-1v-1zm4 0h-2v-1h1v-1h2v3h-1v-1zm-7-7h4v4h-4V9zm1 1v2h2v-2h-2zm1 4h1v1h-1v-1zm3-1h1v1h-1v-1zm0-2h1v1h-1v-1z" fill="#202124" fill-rule="evenodd"/></svg>