<svg width="16" height="16" xmlns="http://www.w3.org/2000/svg"><g fill="none"><circle cx=".875" cy=".875" r="1" transform="matrix(-1 0 0 1 8 7.125)" fill="#FFF"/><path d="M11.63 14.352L7.093 9.815l-1.88 1.88a2.56 2.56 0 01-4.019 3.11 2.56 2.56 0 013.112-4.02l1.88-1.878a1.283 1.283 0 010-1.814l-1.88-1.88a2.56 2.56 0 01-3.112-4.019 2.56 2.56 0 014.02 3.112l1.879 1.88 4.537-4.538h3.63L8.907 8l6.353 6.352h-3.63zM3.916 2.102a1.284 1.284 0 10-1.814 1.817 1.284 1.284 0 001.814-1.817zm3.63 5.444a.642.642 0 10-.907.908.642.642 0 00.907-.908zm-3.63 4.538a1.284 1.284 0 10-1.814 1.815 1.284 1.284 0 001.814-1.815z" fill="#003945"/></g></svg>