<svg width="90" height="90" xmlns="http://www.w3.org/2000/svg"><g fill="none" fill-rule="evenodd"><path fill="#FFF" d="M17.363 24.119l10.318-5.356 10.728-4.318 4.522-3.456h5.98l6.634 3.456 7.232 3.109 6.38 3.116 1.973 3.449 2.878 3.327V37.46L71.13 59.674 59.563 71.876l-13.878 10.07-18.004-10.07-10.318-14.772-1.564-26.392z"/><g transform="translate(33 28)"><circle fill="#05C0A5" cx="12" cy="22" r="10"/><path d="M12 18c-1.103 0-2 1.045-2 2.33 0 .927.468 1.73 1.143 2.104V26h1.714v-3.566C13.532 22.06 14 21.257 14 20.33c0-1.285-.897-2.33-2-2.33z" stroke="#003945" stroke-width="2" fill="#003945" fill-rule="nonzero"/><path d="M19.13 12.187V7.186C19.13 3.223 15.932 0 12 0S4.87 3.223 4.87 7.186v5.001A12.113 12.113 0 000 21.907C0 28.575 5.383 34 12 34s12-5.425 12-12.093c0-3.979-1.917-7.515-4.87-9.72zM6.957 7.186c0-2.803 2.262-5.083 5.043-5.083s5.043 2.28 5.043 5.083v3.75A11.851 11.851 0 0012 9.814c-1.8 0-3.51.403-5.043 1.122v-3.75zM12 31.896c-5.466 0-9.913-4.48-9.913-9.989 0-5.508 4.447-9.99 9.913-9.99s9.913 4.482 9.913 9.99c0 5.509-4.447 9.99-9.913 9.99z" stroke="#003945" stroke-width="2" fill="#003945" fill-rule="nonzero"/></g><path d="M70.358 16.932c-7.477-1.325-14.362-5.36-17.801-7.647A13.603 13.603 0 0045 7a13.6 13.6 0 00-7.557 2.285c-3.439 2.287-10.324 6.322-17.8 7.647-4.429.784-7.643 4.57-7.643 9.003v18.39c0 6.074 1.72 11.996 5.112 17.6 2.653 4.385 6.33 8.576 10.927 12.456 7.73 6.524 15.385 9.926 15.707 10.068L45 85l1.254-.551c.322-.142 7.977-3.544 15.707-10.068 4.597-3.88 8.274-8.07 10.927-12.455C76.28 56.32 78 50.399 78 44.324v-18.39c0-4.432-3.214-8.218-7.642-9.002zm1.474 27.392c0 9.057-4.63 17.577-13.76 25.323-5.309 4.503-10.697 7.438-13.072 8.63-5.457-2.74-26.832-14.707-26.832-33.953v-18.39c0-1.476 1.078-2.74 2.562-3.002 8.59-1.521 16.316-6.035 20.158-8.59a7.404 7.404 0 018.225 0c3.841 2.555 11.568 7.069 20.157 8.59 1.484.263 2.562 1.526 2.562 3.003v18.39z" fill="#003945" fill-rule="nonzero"/></g></svg>