<svg width="28" height="28" xmlns="http://www.w3.org/2000/svg"><g fill="none" fill-rule="evenodd"><path fill="#FFF" d="M-23-134h266V877H-23z"/><g fill="#003945" fill-rule="nonzero" stroke="#003945" stroke-width=".5"><path d="M23.543 6.792a.596.596 0 00-.717.432l-.31 1.273C20.666 5.705 17.498 4 14.065 4a10.11 10.11 0 00-7.118 2.886C5.047 8.746 4 11.22 4 13.852c0 .322.266.583.595.583a.59.59 0 00.595-.583c0-4.79 3.982-8.687 8.875-8.687 3.022 0 5.81 1.497 7.441 3.95l-1.314-.307a.596.596 0 00-.717.432.582.582 0 00.44.702l2.706.632a.593.593 0 00.717-.431l.646-2.649a.582.582 0 00-.441-.702zm-.138 6.773a.589.589 0 00-.596.583c0 4.79-3.98 8.687-8.875 8.687-3.02 0-5.81-1.497-7.44-3.95l1.314.307c.32.074.64-.119.717-.432a.582.582 0 00-.44-.702l-2.706-.632a.596.596 0 00-.717.432l-.646 2.648a.582.582 0 00.58.718c.27 0 .513-.18.578-.448l.31-1.273C7.334 22.295 10.502 24 13.935 24a10.11 10.11 0 007.118-2.886c1.9-1.86 2.947-4.334 2.947-6.966a.59.59 0 00-.595-.583z"/><path d="M14.435 13.402c-.753 0-1.366-.59-1.366-1.315 0-.724.613-1.314 1.366-1.314h1.987a.61.61 0 00.621-.598.61.61 0 00-.62-.598h-1.367v-.631a.61.61 0 00-.621-.598.61.61 0 00-.622.598v.703c-1.139.27-1.987 1.26-1.987 2.438 0 1.385 1.17 2.511 2.609 2.511.753 0 1.366.59 1.366 1.315 0 .724-.613 1.314-1.366 1.314h-1.988a.61.61 0 00-.62.598c0 .33.277.598.62.598h1.366v.631c0 .33.279.598.622.598a.61.61 0 00.621-.598v-.703c1.14-.27 1.987-1.26 1.987-2.438 0-1.385-1.17-2.511-2.608-2.511z"/></g></g></svg>