<svg width="90" height="90" xmlns="http://www.w3.org/2000/svg"><g fill="none" fill-rule="evenodd"><path fill="#FFF" d="M15 54h59v11H15z"/><path d="M72.74 19.512c4.626 0 8.389 3.737 8.389 8.331 0 4.595-3.763 8.332-8.388 8.332H26.213l6.652 6.608a2.985 2.985 0 010 4.242 3.02 3.02 0 01-2.135.879 3.021 3.021 0 01-2.135-.88L11.42 29.965a2.985 2.985 0 010-4.242l5.352-5.316.03-.03L28.595 8.662a3.034 3.034 0 014.27 0 2.985 2.985 0 010 4.242l-6.651 6.608H72.74z" fill="#003945" fill-rule="nonzero"/><path d="M72.12 30.518H19.544l-2.348-2.675 2.348-2.674H72.12c1.296 0 2.349 1.2 2.349 2.674 0 1.475-1.053 2.675-2.348 2.675z" fill="#05C0A5"/><path d="M80.244 57.819l-17.175-17.06a3.034 3.034 0 00-4.27 0 2.985 2.985 0 000 4.241l6.651 6.608H18.923c-4.625 0-8.388 3.737-8.388 8.332 0 4.594 3.763 8.331 8.388 8.331H65.45l-6.652 6.608a2.985 2.985 0 000 4.242c.59.586 1.363.879 2.136.879a3.02 3.02 0 002.135-.879l11.793-11.714 5.382-5.346a2.985 2.985 0 000-4.242zm-8.754 4.453H18.923a2.343 2.343 0 01-2.348-2.332 2.343 2.343 0 012.348-2.333H71.49l2.348 2.333-2.348 2.332z" fill="#003945" fill-rule="nonzero"/></g></svg>