<svg width="35" height="35" xmlns="http://www.w3.org/2000/svg"><path d="M26.405 17.565c.329 0 .595.261.595.583 0 2.631-1.047 5.106-2.948 6.966A10.11 10.11 0 0116.935 28c-3.327 0-6.404-1.6-8.273-4.238l-.177-.259-.31 1.273a.593.593 0 01-.718.432.584.584 0 01-.455-.608l.014-.094.646-2.648a.594.594 0 01.621-.446l.096.014 2.705.632c.32.075.517.39.44.702a.594.594 0 01-.62.446l-.096-.014-1.314-.307c1.63 2.453 4.42 3.95 7.44 3.95 4.894 0 8.875-3.897 8.875-8.687a.59.59 0 01.596-.583zm-8.97-5.217a.61.61 0 01.621.598h0v.63h1.366a.61.61 0 01.621.599.61.61 0 01-.62.598h0-1.988c-.753 0-1.366.59-1.366 1.314 0 .725.613 1.315 1.366 1.315 1.438 0 2.608 1.126 2.608 2.51 0 1.179-.847 2.17-1.987 2.439h0v.703a.61.61 0 01-.621.598.61.61 0 01-.622-.598h0v-.63h-1.366a.61.61 0 01-.62-.599.61.61 0 01.62-.598h1.988c.753 0 1.366-.59 1.366-1.314 0-.725-.613-1.315-1.366-1.315-1.439 0-2.609-1.126-2.609-2.51 0-1.179.848-2.17 1.987-2.439h0v-.703a.61.61 0 01.622-.598zM17.065 8c3.327 0 6.404 1.6 8.273 4.238l.177.259.31-1.273a.596.596 0 01.718-.432.584.584 0 01.455.608l-.014.094-.646 2.648a.593.593 0 01-.578.448l-.07-.004h0l-.069-.012-2.705-.632a.582.582 0 01-.441-.702.594.594 0 01.621-.446l.096.014 1.314.307c-1.63-2.453-4.42-3.95-7.44-3.95-4.894 0-8.876 3.897-8.876 8.687a.59.59 0 01-.595.583.589.589 0 01-.595-.583c0-2.631 1.047-5.106 2.948-6.966A10.11 10.11 0 0117.065 8z" fill="#999" stroke="#999" stroke-width=".5"/></svg>