<svg xmlns="http://www.w3.org/2000/svg" width="100" height="100"><path d="M40.618 11.048c-6.328 1.59-15.334 6.92-19.706 11.663-2.245 2.436-5.507 7.436-7.247 11.109-2.866 6.049-3.165 7.582-3.165 16.232 0 9.015.21 9.976 3.735 17.108 4.498 9.102 10.288 14.771 19.585 19.175C39.861 89.197 41.409 89.5 50 89.5s10.139-.303 16.18-3.165c9.297-4.404 15.087-10.073 19.585-19.175C89.294 60.02 89.5 59.075 89.5 50s-.206-10.02-3.735-17.16c-6.757-13.673-18.762-21.696-33.516-22.398-4.262-.203-9.496.07-11.631.606m5.81 3.307c-3.354 1.527-5.332 3.824-11.714 13.601-3.567 5.466-5.287 7.033-11.209 10.212-8.868 4.761-10.843 7.908-10.159 16.188 1.001 12.116 9.594 23.912 21.479 29.484C39.722 86.135 41.803 86.5 50 86.5c8.197 0 10.278-.365 15.175-2.66 7.946-3.725 14.222-9.87 18.075-17.696 2.978-6.05 3.25-7.4 3.25-16.144 0-8.744-.272-10.094-3.25-16.144-3.833-7.787-10.169-14.014-17.822-17.518-6.679-3.057-14.783-3.903-19-1.983M38.99 43.51L33.568 49l5.422 5.49 5.422 5.49 2.794-2.677L50 54.626l2.794 2.677 2.794 2.677 5.422-5.49L66.432 49l-5.422-5.49-5.422-5.49-2.794 2.677L50 43.374l-2.794-2.677-2.794-2.677-5.422 5.49" fill-rule="evenodd"/></svg>