<svg id="Lager_1" version="1.1" viewBox="0 0 128 128" xml:space="preserve" xmlns="http://www.w3.org/2000/svg"><style>.st6{fill:#72c5cd}.st7{fill:#248c73}</style><path fill="#fff" d="M80.4 31.9L31.9 47.6l15.8 48.5 48.4-15.7-15.7-48.5z"/><path d="M96.1 80.4l16.7-5.4c.8-3.5 1.2-7.2 1.2-10.9 0-14.9-6.6-28.4-17-37.5L80.3 32l15.8 48.4z" fill="#dfa22f"/><path d="M47.7 96.1L31.9 47.6c-5.7 1.9-11.3 3.7-16.7 5.4-.8 3.6-1.2 7.2-1.2 11 0 15 6.6 28.4 17 37.5l16.7-5.4z" fill="#3cb187"/><path d="M47.7 96.1l5.4 16.7c3.5.8 7.2 1.2 10.9 1.2 15 0 28.4-6.6 37.5-17l-5.4-16.7-48.4 15.8zm48.4-15.7l5.4 16.6-5.4-16.6zM47.7 96.1l5.4 16.7-5.4-16.7z" fill="#ce1e5b"/><path d="M47.7 96.1h-.1L31 101.5zM31 101.5c6.2 5.5 13.7 9.4 22.1 11.3l-5.4-16.7-16.7 5.4z" fill="#392538"/><path d="M96.1 80.4l16.7-5.5-16.7 5.5zm0 0l5.4 16.7c5.5-6.2 9.4-13.7 11.3-22.1l-16.7 5.4z" fill="#bb242a"/><path class="st6" d="M80.4 31.9L75 15.2c-3.6-.8-7.2-1.2-11-1.2-14.9 0-28.4 6.6-37.5 17l5.4 16.7 48.5-15.8z"/><path class="st6" d="M31.9 47.6L26.5 31c1.7 5.3 3.5 10.9 5.4 16.6z"/><path class="st7" d="M31.9 47.6L15.2 53c5.4-1.7 11-3.5 16.7-5.4z"/><path class="st7" d="M31.9 47.6C30 41.9 28.2 36.3 26.5 31c-5.5 6.2-9.4 13.8-11.3 22.1l16.7-5.5z"/><path d="M80.4 31.9L97 26.5zm0 0l-5.5-16.7 5.5 16.7zm-5.5-16.7l5.4 16.7L97 26.5c-6.2-5.5-13.7-9.4-22.1-11.3z" fill="#62803a"/><path d="M47.4 55.6c0-8 5.8-13.6 16.4-13.6 6.5 0 11.8 2.1 14.6 4.1.4.3 1.1 1 .7 2.3-.6 1.4-1.6 3.5-2.3 4.9-.4.8-1.5.7-2.1.4-2-1-5.4-2.8-8.5-3.1-.8-.1-1.6-.1-2.3-.1-2.7.1-5 1-5.8 3.1-.2.4-.2.8-.3 1.2-.1 2.7 3.7 3.7 8.3 4.5 8.5 1.5 15 4 15 12.8 0 7.5-5.9 14.2-17.6 14-7.7-.2-13.1-2.7-16-5.3-.1-.1-1.2-1.2-.6-2.6.7-1.7 1.8-3.8 2.7-4.8.5-.7 1.8-.8 2.5-.4 2.4 1.5 6.4 3.9 10.9 4h1.1c4.1-.1 6.6-1.7 6.5-4.3 0-2.3-3.3-3.7-8.5-4.6-8.1-1.5-14.7-4.2-14.7-12.5" fill="#443642"/></svg>