<svg xmlns="http://www.w3.org/2000/svg" xmlns:xlink="http://www.w3.org/1999/xlink" width="800" height="600"><path fill="#5eb6e4" d="M0 0h800v600H0z"/><path fill="#fff" d="M0 0h800v300H0z"/><g fill="none" stroke="#000" stroke-width=".933"><g fill="#fff"><circle cx="459.439" cy="171.232" r="4.044"/><circle cx="461.689" cy="157.024" r="5.081"/><circle cx="376.388" cy="141.721" r="3.909"/><circle cx="338.47" cy="157.024" r="5.081"/><circle cx="361.666" cy="143.366" r="4.218"/><circle cx="340.72" cy="171.232" r="4.044"/><circle cx="346.87" cy="147.119" r="4.885"/><circle cx="423.77" cy="141.721" r="3.909"/><circle cx="438.492" cy="143.366" r="4.218"/><circle cx="453.288" cy="147.119" r="4.886"/></g><g stroke-width="1.09"><circle cx="459.439" cy="171.231" r="4.458"/><circle cx="461.69" cy="157.025" r="5.602"/><circle cx="376.389" cy="141.721" r="4.31"/><circle cx="338.47" cy="157.025" r="5.602"/><circle cx="361.666" cy="143.367" r="4.65"/><circle cx="340.718" cy="171.231" r="4.458"/><circle cx="346.871" cy="147.119" r="5.386"/><circle cx="423.769" cy="141.721" r="4.309"/><circle cx="438.492" cy="143.365" r="4.65"/><circle cx="453.287" cy="147.119" r="5.387"/></g><g fill="#000" stroke-linecap="round" stroke-linejoin="round"><path d="M392.488 132.016c-13.483 15.539-37.154 7.948-47.953 13.998-18.784 10.523 1.649 35.487 5.496 40.258l20.47-5.342c-7.515-6.013-22.587-16.227-18.048-24.525 4.652-8.51 29.37.124 40.18-18.04 2.274-3.82.532-7.127-.145-6.349z"/><path fill="#f1bf31" d="M392.488 132.481c-13.483 15.542-36.39 8.094-47.186 14.145-18.785 10.524 2.431 34.875 6.279 39.649l17.681-5.345c-7.518-6.013-21.8-16.536-17.26-24.835 4.65-8.508 29.822-.03 40.631-18.195 2.274-3.82.532-6.197-.145-5.419z"/><path stroke-width=".633" d="M393.711 133.678c-14.603 19.717-36.523 9.764-45.943 17.455-10.642 8.69 4.862 25.795 12.343 32.562l1.17-.429c-6.07-5.754-24.059-22.84-12.628-32.065 8.219-6.636 31.33 2.02 45.107-17.055z"/><path fill="#d99f31" d="M357.83 171.306a14.718 14.718 0 00-1.256 3.332c-6.242-7.435-10.917-15.14-5.998-21.505 4.478-5.795 15.453-3.173 26.877-7.187 5.233-1.551 10.37-4.315 14.744-9.494-.42 1.134-.856 2.506-1.338 3.88-11.596 14.764-34.753 7.69-39.167 15.761-2.604 4.763 1.095 10.259 6.138 15.213z" stroke="none"/><path d="M352.11 169.98c1.303-.376 1.968-1.098 2.693-1.942.296.358.602.713.918 1.067-.499.662-1.07 1.31-1.925 1.76-1.035.542-2.168.68-3.23.68-.355-.476-.7-.96-1.036-1.445.86.086 1.827.098 2.58-.12zm-2.812-5.771c1.136-.179 1.594-.293 2.493-.8.156.342.33.686.518 1.03-.758.44-1.378.704-2.428.92-1.056.217-2.151.153-3.122-.009a22.97 22.97 0 01-.576-1.335c.949.183 2.175.341 3.116.194zm1.539-4.813c-2.073-.198-4.085-1.283-5.495-2.828.1-.413.23-.821.393-1.22.811 1.014 2.57 2.769 5.186 2.997a6.956 6.956 0 00-.084 1.051zm1.806-4.554c-1.482-.864-2.705-2.228-3.457-3.772a8.95 8.95 0 01.867-.546c.55 1.167 1.583 2.742 3.389 3.644a6.53 6.53 0 00-.799.674zm3.983-6.15c.246 1.407.99 2.596 2.146 3.45-.383.081-.755.167-1.116.258a6.261 6.261 0 01-1.931-3.58c.296-.046.596-.088.901-.129zm7.098-.62c.37 1.046 1.113 1.968 2.092 2.707.11.082.165.184.182.287l-1.107.139c-.999-.848-1.745-1.891-2.103-3.064l.936-.069zm6.924-.688a8.143 8.143 0 002.685 2.552 66.79 66.79 0 01-1.278.243 8.893 8.893 0 01-2.397-2.664c.33-.041.66-.084.99-.131zm6.187-1.259c.895.866 2.03 1.508 3.242 1.92-.43.165-.864.319-1.3.465-1.116-.511-2.14-1.217-2.95-2.117.337-.085.673-.174 1.008-.268zm6.23-2.395c.83.6 1.92.996 2.897 1.238-.33.231-.666.451-1.005.664-.997-.316-2.018-.786-2.797-1.458.302-.143.604-.291.904-.444zm4.591-2.906c.66.33 1.43.565 2.182.726-.238.264-.48.518-.727.765-.79-.205-1.579-.494-2.253-.895.268-.192.534-.391.798-.596z" stroke="none"/><path fill="none" stroke-width=".604" d="M393.76 134.456c.044.954-.226 1.776-1.125 3.289-10.812 18.163-36.292 9.84-40.944 18.35-4.472 8.18 9.643 18.517 17.238 24.572a40.26 40.26 0 01-4.216 1.26l-1.327.719-1.967.62c-6.07-5.755-24.041-22.685-12.613-31.909 8.222-6.636 31.178 2.174 44.954-16.901z"/><path d="M407.522 132.016c13.485 15.539 37.156 7.948 47.952 13.998 18.785 10.523-1.648 35.487-5.493 40.258l-20.473-5.342c7.519-6.013 22.588-16.227 18.052-24.525-4.653-8.51-29.374.124-40.184-18.04-2.273-3.82-.528-7.127.146-6.349z"/><path fill="#f1bf31" d="M407.671 132.481c13.483 15.542 36.39 8.094 47.186 14.145 18.784 10.524-2.431 34.875-6.279 39.649l-17.682-5.345c7.519-6.013 21.8-16.536 17.263-24.835-4.653-8.508-29.824-.03-40.633-18.195-2.274-3.82-.532-6.197.145-5.419z"/><path stroke-width=".633" d="M438.879 183.266c6.07-5.754 24.058-22.84 12.628-32.065-8.22-6.636-31.331 2.02-45.108-17.055l.05-.468c14.602 19.717 36.523 9.763 45.943 17.455 10.626 8.675-4.95 25.737-12.46 32.528z"/><path fill="#d99f31" d="M442.329 171.306c.358.679.894 1.849 1.256 3.332 6.241-7.435 10.917-15.14 5.998-21.505-4.478-5.796-15.454-3.172-26.88-7.187-5.232-1.552-10.368-4.316-14.741-9.494.42 1.133.853 2.504 1.336 3.877 11.593 14.768 34.758 7.692 39.17 15.764 2.603 4.763-1.095 10.259-6.14 15.213z" stroke="none"/><path d="M448.048 170.6c-1.502-.373-2.248-1.031-3.233-1.925-.296.341-.6.681-.915 1.02.69.664 1.397 1.315 2.462 1.79.92.408 1.89.564 2.814.61a53.4 53.4 0 001.013-1.368c-.737.045-1.51.03-2.141-.127zm2.813-6.393c-1.136-.178-1.594-.292-2.493-.8-.156.343-.33.687-.518 1.03.758.44 1.376.705 2.427.92 1.057.218 2.152.154 3.123-.008.208-.445.402-.89.576-1.335-.95.183-2.175.341-3.115.194zm-1.538-4.812c2.074-.199 4.084-1.284 5.493-2.828a8.6 8.6 0 00-.392-1.22c-.81 1.015-2.57 2.768-5.185 2.996.055.349.082.7.084 1.052zm-1.805-4.554c1.48-.863 2.702-2.228 3.455-3.771a8.773 8.773 0 00-.867-.547c-.55 1.167-1.583 2.741-3.388 3.643.29.208.556.433.8.675zm-3.986-6.15c-.246 1.407-.991 2.596-2.145 3.45.383.08.754.166 1.116.258a6.26 6.26 0 001.93-3.58 41.682 41.682 0 00-.901-.129zm-7.098-.62c-.37 1.046-1.11 1.968-2.092 2.707a.443.443 0 00-.182.286l1.108.14c.999-.848 1.745-1.891 2.103-3.065l-.937-.068zm-6.923-.688a8.142 8.142 0 01-2.686 2.552c.427.085.853.167 1.28.243a8.897 8.897 0 002.394-2.664 58.96 58.96 0 01-.988-.131zm-6.188-1.259c-.895.866-2.029 1.508-3.24 1.92.43.164.864.318 1.298.464 1.118-.51 2.14-1.217 2.95-2.116a39.245 39.245 0 01-1.008-.268zm-6.228-2.394c-.83.599-1.92.995-2.898 1.237.331.231.667.45 1.006.663.996-.316 2.016-.786 2.796-1.457a30.17 30.17 0 01-.904-.443zm-4.594-2.907c-.659.331-1.428.565-2.18.726.238.264.48.517.727.765.79-.206 1.577-.494 2.252-.895a29.492 29.492 0 01-.799-.596z" stroke="none"/><path fill="none" stroke-width=".604" d="M406.399 134.456c-.044.954.227 1.776 1.128 3.289 10.809 18.163 36.29 9.84 40.942 18.35 4.47 8.18-9.643 18.517-17.239 24.572a40.22 40.22 0 004.217 1.26l1.326.719 1.967.62c6.07-5.755 24.041-22.685 12.614-31.909-8.223-6.636-31.179 2.174-44.955-16.901z"/></g><path fill="#000" d="M400.079 166.698h-6.842s.81-6.522-.105-10.94c-.741-3.573-3.592-7.674-3.592-10.681 0-3.006 3.256-11.453 3.256-11.453h14.567s3.1 8.447 3.1 11.453c0 3.007-2.696 7.108-3.437 10.68-.915 4.419-.105 10.941-.105 10.941h-6.842z"/><path fill="#f1bf31" d="M400.079 166.698h-6.842s1.053-6.511.204-10.94c-.691-3.605-3.125-6.402-3.446-10.058-.457-5.158 4.042-12.076 4.042-12.076h12.085s4.343 6.918 3.888 12.076c-.322 3.656-2.602 6.453-3.293 10.057-.849 4.43.204 10.941.204 10.941h-6.842z" stroke="none"/><path fill="#d99f31" d="M389.977 144.402c.43-.146.886-.249 1.318-.249 1.501 0 2.095.98 2.095.98s3.932-.91 6.69-.91c2.757 0 6.69.91 6.69.91s.594-.98 2.095-.98c.38 0 .78.08 1.162.2.026.458.023.909-.015 1.348-.322 3.658-2.604 6.453-3.293 10.057-.42 2.189-.377 4.886-.224 7.055l-6.415 3.05-6.416-3.05c.153-2.17.198-4.866-.222-7.055-.691-3.604-3.124-6.399-3.448-10.057a9.117 9.117 0 01-.017-1.299z" stroke="none"/><path fill="#000" d="M407.092 146.815c-.299.943-.778 2.453-1.194 3.975-.415 1.522-.768 3.054-.816 4.045-.19 3.869.473 8.07 1.242 11.863h-.278c-1.087-3.318-2.346-8.429-2.297-11.87.027-2.094 1.352-6.152 2.03-8.093.979-2.804.777-4.697.088-6.574-.691-1.885-1.87-3.754-2.839-6.495a.05.05 0 01.002-.042h1.298c.99 2.696 2.103 4.582 2.766 6.491.673 1.938.885 3.895-.002 6.7zm-13.25 19.883c.774-3.826 1.418-7.972 1.243-11.863-.044-.989-.397-2.52-.816-4.045-.415-1.524-.897-3.033-1.194-3.974-.889-2.806-.18-6.133.746-8.75a28.76 28.76 0 012.016-4.442h1.347c-.413.678-4.643 7.827-2.796 13.112.676 1.94 2 5.998 2.03 8.09.047 3.438-1.216 8.558-2.3 11.872h-.275z" stroke="none"/><path d="M400.079 166.698h-6.842s1.053-6.511.204-10.94c-.691-3.605-3.125-6.402-3.446-10.058-.457-5.158 4.042-12.076 4.042-12.076h12.085s4.343 6.918 3.888 12.076c-.322 3.656-2.602 6.453-3.293 10.057-.849 4.43.204 10.941.204 10.941h-6.842z"/><ellipse fill="#fff" stroke-width=".915" cx="400" cy="140.644" rx="3.409" ry="2.507"/><ellipse stroke-width="1.029" cx="400" cy="140.492" rx="3.835" ry="2.735"/><circle fill="#fff" stroke-width=".915" cx="400" cy="148.23" r="3.683"/><circle stroke-width="1.029" cx="400" cy="148.23" r="4.143"/><path stroke-width=".904" d="M360.414 204.281s-1.057-1.065-1.378-1.935c-.255-.685-.279-1.855-.279-1.855l-3.787-6.069 8.507-8.089 16.177-4.64 20.395-1.458h.031l20.398 1.457 16.174 4.641 8.507 8.09-3.787 6.068s-.023 1.17-.278 1.855c-.322.87-1.379 1.935-1.379 1.935l-18.971-6.412-20.664-.926-20.692.926-18.974 6.412z"/><path fill="#f1bf31" d="M360.873 203.597s-.758-.947-1.046-1.655c-.418-1.024-.364-2.814-.364-2.814l-4.493-4.705 8.507-8.089 16.174-4.64 20.43-1.458 20.426 1.457 16.177 4.641 8.504 8.09-4.49 4.704s.051 1.79-.366 2.814c-.287.708-1.047 1.655-1.047 1.655l-18.514-5.727-20.69-.928-20.693.928-18.515 5.727z"/><path fill="#000" d="M358.832 207.288a41.168 12.777 0 1182.336 0 41.168 10.824 0 11-82.336 0z"/><path fill="#f1bf31" d="M360.208 207.288a39.792 12.312 0 1179.584 0 39.792 10.523 0 11-79.584 0z"/><ellipse fill="#d99f31" cx="400" cy="208.415" rx="36.785" ry="9.395"/><path stroke-width="1.09" d="M436.52 209.676c-6.886 2.946-20.432 4.527-36.47 4.527-16.04 0-29.585-1.58-36.47-4.527"/><path stroke-width="1.01" d="M435.909 206.262c-7.056 2.688-20.282 4.033-35.859 4.031-15.578 0-28.802-1.344-35.858-4.032"/><path d="M432.459 203.885c-7.495 2.174-19.092 3.403-32.409 3.402-13.317 0-24.912-1.228-32.407-3.402"/><path d="M427.478 202.07c-7.231 1.427-16.78 2.213-27.428 2.213s-20.196-.786-27.428-2.213m46.47-1.752c-5.66.624-12.118.956-19.042.956-6.924 0-13.383-.332-19.042-.956"/><ellipse cx="400" cy="208.415" rx="36.475" ry="9.093"/><path fill="#000" stroke-linejoin="round" d="M354.757 192.762c-3.611-4.803-6.83-8.073-14.649-10.834 1.073-.864 2.971-1.649 4.795-2.097 2.975-.733 6.015-.335 7.97.689-1.552-5.555 1.429-11.094 1.429-11.094s4.817-.276 9.699 3.646c.16-6.727 2.132-9.92 2.132-9.92s5.07.243 10.257 5.396c.988-6.958 4.742-10.735 4.742-10.735s6.23 1.951 9.79 8.524c2.373-9.523 9.156-13.253 9.156-13.253s6.786 3.73 9.157 13.253c3.563-6.573 9.792-8.524 9.792-8.524s3.73 3.64 4.742 10.735c5.187-5.153 10.257-5.397 10.257-5.397s1.973 3.194 2.133 9.92c4.881-3.921 10.178-2.462 10.178-2.462s2.502 4.356.949 9.91c1.954-1.023 4.996-1.421 7.971-.688 1.823.448 3.72 1.233 4.794 2.097-7.001 2.541-11.191 6.031-14.804 10.834-3.378-6.902-21.455-14.493-45.169-14.493-23.71 0-41.943 7.591-45.321 14.493z"/><path fill="#f1bf31" stroke-linejoin="round" d="M354.757 191.986c-3.088-4.84-7.545-8.382-12.17-10.172 1.074-.864 2.96-1.194 4.956-1.333 2.343-.162 4.292.166 5.946.95-1.554-5.551.969-11.23.969-11.23s4.966.02 9.848 3.941c.16-6.727 2.292-10.064 2.292-10.064s4.755.53 9.942 5.685c1.113-6.945 4.748-10.866 4.748-10.866s6.229 1.933 9.79 8.503c2.373-9.52 9-12.923 9-12.923s6.63 3.403 9.004 12.923c3.56-6.57 9.79-8.503 9.79-8.503s3.751 3.511 4.748 10.866c5.187-5.155 9.941-5.685 9.941-5.685s2.132 3.337 2.293 10.064c4.881-3.922 10.466-2.857 10.466-2.857s1.904 4.595.352 10.147c1.652-.785 3.601-1.113 5.942-.951 1.997.14 3.884.47 4.958 1.333-4.624 1.79-9.082 5.332-12.17 10.172-3.378-6.902-21.61-13.86-45.324-13.86-23.71 0-41.943 6.958-45.32 13.86z"/><path fill="#000" d="M352.995 194.157c0-8.754 20.9-16.185 47.053-16.185 26.156 0 46.282 7.73 46.282 15.41 0 1.84-1.626 3.424-3.77 4.77a5.188 5.188 0 00.31-1.763c0-7.68-16.666-13.905-42.822-13.905-26.153 0-42.82 6.225-42.82 13.905 0 .596.106 1.186.313 1.762-2.146-1.345-4.546-2.155-4.546-3.994z"/><path fill="#f1bf31" stroke-width=".904" d="M354.222 193.382c0-6.642 19.675-14.945 45.828-14.945 26.154 0 45.829 8.303 45.829 14.945 0 1.84-2.048 2.024-2.233 1.458-2.198-6.734-17.442-12.668-43.596-12.668-26.153 0-41.398 5.934-43.596 12.668-.185.566-2.232.382-2.232-1.458z"/><path fill="#000" stroke-width=".45" stroke-linejoin="round" d="M399.577 172.094c.152-2.35.463-7.569.463-7.569.007-.052.073-.827.08-.774 0 0 .292 5.99.433 8.339.141 2.344.289 6.015.289 6.015a.04.04 0 01-.04.04l-1.503.007a.04.04 0 01-.04-.04s.167-3.674.318-6.018zm38.456 13.549a84.63 84.63 0 001.287-2.655c.753-1.655 2.11-4.304 2.11-4.304.019-.05-.044-.079-.07-.034 0 0-1.7 2.402-2.654 3.894a93.09 93.09 0 01-1.722 2.567zm-12.812-4.644c.228-.51 1.296-2.89 2.124-4.415.987-1.814 2.77-4.512 2.77-4.512.029-.045.09-.01.067.038 0 0-1.28 2.73-2.014 4.512-.719 1.74-1.714 4.512-1.714 4.512l-.66.009zm-11.599-2.087c.282-1.12.858-3.368 1.316-4.95a103.307 103.307 0 011.79-5.64.039.039 0 01.075.019c-.424 2.255-.65 3.53-1.036 5.791a475.699 475.699 0 00-.802 4.95zm-39.31 2.244l-.57.004c-.038-.027-1.032-2.798-1.75-4.539-.736-1.78-2.015-4.51-2.015-4.51-.022-.05.038-.085.067-.039 0 0 1.783 2.698 2.77 4.512.829 1.524 1.895 3.904 2.123 4.415zm10.883-2.075c-.165-1.036-.53-3.337-.804-4.949-.384-2.26-.612-3.535-1.035-5.79-.01-.054.058-.07.075-.021a102.846 102.846 0 011.788 5.641c.46 1.582 1.035 3.832 1.318 4.951zm-23.187 6.623a85.031 85.031 0 01-1.317-2.716c-.755-1.655-2.109-4.304-2.109-4.304-.02-.05.043-.079.068-.034 0 0 1.699 2.402 2.654 3.894a95.684 95.684 0 001.76 2.621z"/><g stroke-width=".777" stroke-linecap="round" stroke-linejoin="round"><path fill="#d99f31" stroke-width=".719" d="M361.605 197.422c-.337-1.906-1.985-3.44-3.256-3.217-1.268.223-3.072 2.123-2.736 4.027.335 1.905 2.717 3.29 3.988 3.069 1.27-.225 2.34-1.975 2.004-3.879z"/><path fill="#f1bf31" d="M359.49 195.078a2.393 2.393 0 01-3.027 3.62 2.868 2.868 0 01-.147-.528c-.291-1.652.971-3.144 2.07-3.338.08-.014.16-.02.24-.02.296 0 .59.094.864.266z" stroke="none"/><path d="M360.903 197.466c-.29-1.649-1.418-2.828-2.516-2.635-1.101.193-2.361 1.688-2.073 3.337.293 1.648 2.056 2.848 3.155 2.655 1.1-.193 1.725-1.709 1.434-3.357z"/><path fill="#d99f31" d="M375.4 192.846l-.598-3.583-2.413-1.217s-2.593.704-4.209 1.279c-1.673.594-4.21 1.731-4.21 1.731l-.602 1.053.754 4.053 1.35 1.202 9.02-2.705.908-1.813z"/><path fill="#f1bf31" d="M365.464 195.441l7.226-2.287.45-.748-.625-3.752-.26-.257-8.024 2.944.611 3.402z" stroke="none"/><path stroke-width="1.09" d="M365.464 195.441l7.226-2.287.45-.748-.475-3.001m2.555 3.441l-2.08-.442"/><path fill="#f1bf31" d="M385.724 189.003a1.502 1.502 0 011.367-1.628 1.502 1.502 0 11.264 2.995 1.505 1.505 0 01-1.631-1.367zm-3.482 3.322a1.504 1.504 0 112.998-.259 1.504 1.504 0 01-2.998.26zm-3.554-2.668a1.502 1.502 0 011.366-1.627c.826-.073 1.406.54 1.478 1.366.073.828-.388 1.557-1.216 1.63a1.504 1.504 0 01-1.628-1.369zm3.03-3.322a1.504 1.504 0 112.997-.259 1.504 1.504 0 01-2.996.259z" stroke="none"/><path fill="#d99f31" d="M385.814 189.398a1.503 1.503 0 012.818 0 1.504 1.504 0 01-2.818 0zm-4.005-2.668a1.502 1.502 0 002.816 0 1.504 1.504 0 00-2.816 0zm-3.032 3.322c.23.619.851 1.032 1.54.974.585-.052.988-.433 1.147-.945-.188-.633-.711-1.062-1.41-1a1.504 1.504 0 00-1.277.97zm3.556 2.667a1.501 1.501 0 002.816 0 1.505 1.505 0 00-2.816 0z" stroke="none"/><path stroke-width=".933" d="M385.724 189.003a1.502 1.502 0 011.367-1.628 1.502 1.502 0 11.264 2.995 1.505 1.505 0 01-1.631-1.367zm-3.482 3.322a1.504 1.504 0 112.998-.259 1.504 1.504 0 01-2.998.26zm-3.554-2.668a1.502 1.502 0 011.366-1.627c.826-.073 1.406.54 1.478 1.366.073.828-.388 1.557-1.216 1.63a1.504 1.504 0 01-1.628-1.369zm3.03-3.322a1.504 1.504 0 112.997-.259 1.504 1.504 0 01-2.996.259z"/><path fill="#d99f31" d="M392.853 190.393V186.5l2.27-2.113h9.918l2.269 2.113.002 3.891-2.272 1.965h-9.918z" stroke="none"/><path fill="#f1bf31" d="M405.238 184.846l-.798.814v3.717l-.633.625-7.51-.054-.623-.624v-3.569l-.672-.909z" stroke="none"/><path d="M392.853 190.393V186.5l2.27-2.113h9.918l2.269 2.113.002 3.891-2.272 1.965h-9.918z"/><path stroke-width="1.09" d="M393.463 190.23l2.211-.851m10.993.911l-2.227-.913m-9.05 2.728l.901-2.104m8.42 2.104l-.901-2.104m.63-4.34v3.716l-.63.624-7.512-.053-.624-.623v-3.717"/><path fill="#f1bf31" d="M414.374 189.003a1.5 1.5 0 00-1.366-1.628 1.502 1.502 0 10-.261 2.995 1.503 1.503 0 001.627-1.367zm3.483 3.322a1.504 1.504 0 10-2.998-.258 1.504 1.504 0 002.998.258zm3.554-2.668a1.502 1.502 0 00-1.366-1.627c-.826-.073-1.405.54-1.479 1.366-.072.828.39 1.557 1.217 1.63.827.07 1.556-.54 1.628-1.369zm-3.029-3.322a1.503 1.503 0 10-2.998-.261 1.503 1.503 0 002.998.26z" stroke="none"/><path fill="#d99f31" d="M414.285 189.398a1.505 1.505 0 00-2.818 0 1.504 1.504 0 002.818 0zm1.19-2.668a1.504 1.504 0 002.816 0 1.504 1.504 0 00-2.817 0zm3.16 3.35c.159.513.562.894 1.15.946a1.503 1.503 0 001.537-.975 1.503 1.503 0 00-1.277-.97c-.698-.062-1.22.367-1.41 1zm-3.686 2.64a1.504 1.504 0 002.818.002 1.505 1.505 0 00-2.818-.003z" stroke="none"/><path stroke-width=".933" d="M414.374 189.003a1.5 1.5 0 00-1.366-1.628 1.502 1.502 0 10-.261 2.995 1.503 1.503 0 001.627-1.367zm3.483 3.322a1.504 1.504 0 10-2.998-.258 1.504 1.504 0 002.998.258zm3.554-2.668a1.502 1.502 0 00-1.366-1.627c-.826-.073-1.405.54-1.479 1.366-.072.828.39 1.557 1.217 1.63.827.07 1.556-.54 1.628-1.369zm-3.029-3.322a1.503 1.503 0 10-2.998-.261 1.503 1.503 0 002.998.26z"/><path fill="#d99f31" d="M424.7 192.846l.598-3.583 2.413-1.217s2.593.704 4.208 1.279c1.674.594 4.211 1.731 4.211 1.731l.602 1.053-.753 4.053-1.352 1.202-9.02-2.705-.907-1.813z"/><path fill="#f1bf31" d="M434.635 195.441l-7.223-2.287-.453-.748.627-3.752.257-.257 8.027 2.944-.613 3.402z" stroke="none"/><path stroke-width="1.09" d="M434.635 195.441l-7.223-2.287-.453-.748.476-3.001m-1.885 4.952l1.861-1.202"/><path fill="#d99f31" stroke-width=".719" d="M438.405 197.422c.337-1.906 1.985-3.44 3.253-3.217 1.271.223 3.076 2.123 2.742 4.027-.337 1.905-2.72 3.29-3.991 3.069-1.269-.225-2.34-1.975-2.004-3.879z"/><path fill="#f1bf31" d="M439.953 196.626c0-.59.214-1.13.568-1.548.274-.172.568-.266.863-.266.08 0 .16.007.24.02 1.1.194 2.36 1.687 2.069 3.338-.032.182-.082.36-.147.53a2.394 2.394 0 01-3.593-2.074z" stroke="none"/><path d="M439.106 197.466c.29-1.649 1.419-2.828 2.517-2.635 1.1.193 2.363 1.688 2.072 3.337-.291 1.648-2.054 2.848-3.154 2.655-1.1-.193-1.726-1.709-1.435-3.357z"/><path stroke-width=".833" d="M424.278 192.878l.652-3.893 2.562-1.27s2.777.755 4.508 1.37c1.79.635 4.508 1.844 4.508 1.844l.645 1.127-.805 4.352-1.45 1.289-9.66-2.899-.96-1.92zm-31.907-6.532l2.397-2.242h10.624l2.396 2.242.004 4.21-2.4 2.083h-10.625l-2.396-2.082v-4.211zm-16.55 6.532l-.652-3.893-2.562-1.27s-2.777.755-4.508 1.37c-1.79.635-4.508 1.844-4.508 1.844l-.643 1.127.803 4.352 1.45 1.289 9.66-2.899.96-1.92z"/></g><g stroke-linejoin="round" stroke-linecap="round"><path fill="#d99f31" stroke-width=".952" d="M408.129 95.85c1.776 0 3.071 1.585 3.071 3.364 0 1.78-1.295 3.524-3.071 3.524-2.32 0-5.686-2.743-5.572-.56l.056 1.104 1.231 10.145c3.022.681-10.554.681-7.533 0l1.235-10.19.054-1.06c.11-2.18-3.34.561-5.57.561-1.778 0-3.071-1.744-3.071-3.524s1.293-3.364 3.07-3.364c1.75 0 3.684 1.631 4.923.864 1.95-1.202-.397-3.907-.397-5.73 0-1.775 1.745-3.225 3.524-3.225 1.778 0 3.524 1.45 3.524 3.225 0 1.823-2.363 4.449-.395 5.73 1.174.767 3.11-.864 4.921-.864z"/><path fill="#f1bf31" d="M397.49 91.508a2.576 2.576 0 01-.462-.81c.378-1.319 1.66-2.37 3.053-2.37.61 0 1.198.202 1.7.54-.106.36-.917.435-1.683 1.077-1.099.92-1.688 2.66-2.608 1.563zm.505 5.096c.142.198.219.41.219.631 0 1.1-1.9 1.99-4.244 1.99-1.964 0-3.616-.627-4.099-1.477a3.25 3.25 0 012.69-1.473c1.637 0 3.875 1.394 5.034.68.17-.105.3-.223.4-.351zm3.268.168c0-.513.243-.993.666-1.403-.106.626.02 1.183.637 1.585 1.096.715 3.336-.679 5.03-.679 1.078 0 2.09.574 2.666 1.432-.651 1.04-2.357 1.782-4.358 1.782-2.562 0-4.641-1.216-4.641-2.717z" stroke="none"/><path d="M407.596 96.276c1.659 0 3.158 1.356 3.158 3.016s-1.5 3.016-3.158 3.016-5.737-2.903-5.64-.69l.054 1.182.698 9.783c2.824.636-8.083.636-5.261 0l.701-9.826.05-1.139c.098-2.211-4.104.69-5.635.69-1.658 0-3.158-1.356-3.158-3.016s1.5-3.016 3.158-3.016c1.635 0 3.874 1.391 5.033.679 1.821-1.123-.683-3.77-.683-5.471 0-1.659 1.506-3.156 3.166-3.156 1.662 0 3.167 1.497 3.167 3.156 0 1.7-2.516 4.273-.68 5.471 1.096.712 3.338-.679 5.03-.679z"/><circle fill="#f1f1f2" stroke-width="1.703" cx="400" cy="116.288" r="7.901"/><path fill="#000" d="M401.46 121.283c.53-.663 1.115-1.504 1.358-2.288.18-.573.774-.304.646.184-.226.854-.746 1.747-1.254 2.45zm-8.695-4.654c.137-.115.292-.26.477-.408a4.87 4.87 0 01.654-.45c.334-.225.102-.744-.305-.547-.428.208-.78.427-1.013.583zm-.05 1.172l.411.735c.577-.61 1.543-1.5 1.696-1.643.357-.338-.106-.728-.41-.51-.352.25-.86.635-1.22.967a30.44 30.44 0 00-.478.451zm.597 1.763l.513.598c1.213-.944 2.291-2.087 2.465-2.274.343-.372-.054-.876-.46-.507-.194.204-1.767 1.604-2.507 2.174l-.01.009zm10.783 1.333c.382-.433.797-1.037.934-1.736.05-.247.227-.365.404-.328.17.037.294.214.255.45-.14.843-.58 1.56-.993 2.04zm-6.057.772c1.108-1.267 1.915-2.349 2.644-3.565.11-.183.309-.229.456-.156.156.074.229.262.122.48a15.155 15.155 0 01-1.618 2.593c-.547.691-.952 1.165-.952 1.165zm-2.24-1.375c.74-.686 1.588-1.552 2.058-2.128.278-.34.882-.077.537.434a12.725 12.725 0 01-1.759 2.043z" stroke="none"/><path fill="#d99f31" d="M406.135 133.626h-6.057l-6.033-.002c-1.024 1.73-4.257 2.903-6.903 1.522-1.878-.982-2.263-3.212-2.263-3.212s5.062.185 5.09-4.294c0-4.539 2.607-7.504 6.355-7.055 1.636.195 2.743 1.02 3.754 1.938 1.013-.918 2.124-1.746 3.763-1.938 3.747-.445 6.349 2.516 6.349 7.02 0 4.516 5.088 4.333 5.088 4.333s-.383 2.226-2.262 3.208c-2.656 1.385-5.908.197-6.881-1.52z"/><path fill="#d99f31" d="M406.139 133.624h-.418c-1.121 1.04-2.884 2.095-5.641 2.705-2.76-.61-4.52-1.665-5.641-2.705h-.395s-4.24 3.006-7.213.752c-1.099-.831-1.33-1.977-1.33-1.977s5.088-.278 5.088-4.794c0-4.504 2.444-6.401 5.733-6.401 1.437 0 2.745.71 3.758 1.63 1.01-.92 2.321-1.63 3.758-1.63 3.289 0 5.733 1.897 5.733 6.4 0 4.517 5.087 4.795 5.087 4.795s-.233 1.146-1.33 1.977c-2.975 2.254-7.189-.752-7.189-.752z" stroke="none"/><path stroke="#f1bf31" stroke-width=".904" d="M391.164 125.035c-.265.64.156 2.864.156 2.864s.138 2.02-1.451 3.556c-1.11 1.074-3.646 1.541-3.646 1.541m22.779-7.961c.266.64-.156 2.864-.156 2.864s-.137 2.02 1.45 3.556c1.108 1.074 3.646 1.541 3.646 1.541"/><path fill="#f1bf31" d="M399.982 135.868c-6.296-1.43-7.112-5.33-6.937-5.286.413.102 1.867 2.946 7.034 4.383 5.168-1.437 6.62-4.281 7.035-4.383.174-.044-.642 3.856-6.937 5.286h-.195zm-7.736-11.121c0-1.524 2.527-2.802 5.935-3.152a6.774 6.774 0 011.9 1.239 6.743 6.743 0 011.892-1.237c3.4.353 5.918 1.628 5.918 3.15 0 3.61-4.125 5.357-7.823 5.355-3.698 0-7.822-1.744-7.822-5.355z" stroke="none"/><path d="M406.139 133.624h-.418c-1.121 1.04-2.884 2.095-5.641 2.705-2.76-.61-4.52-1.665-5.641-2.705h-.395s-4.24 3.006-7.213.752c-1.099-.831-1.33-1.977-1.33-1.977s5.088-.278 5.088-4.794c0-4.504 2.444-6.401 5.733-6.401 1.437 0 2.745.71 3.758 1.63 1.01-.92 2.321-1.63 3.758-1.63 3.289 0 5.733 1.897 5.733 6.4 0 4.517 5.087 4.795 5.087 4.795s-.233 1.146-1.33 1.977c-2.975 2.254-7.189-.752-7.189-.752z"/><path fill="#000" d="M407.625 130.618s-.752 5.052-7.545 6.555c-6.796-1.503-7.548-6.555-7.548-6.555s.752 4.208 7.547 5.712c6.794-1.504 7.546-5.712 7.546-5.712z"/></g></g><g stroke-width=".933" stroke-linejoin="round" stroke-linecap="round"><path fill="#a0cfeb" d="M398.792 227.491c13.541-.237 71.818-10.008 71.818 70.925 0 77.305-70.56 108.048-70.56 108.048s-70.564-29.78-70.564-113.912c0-75.068 69.306-65.06 69.306-65.06z"/><path fill="#94bb79" d="M421.681 348.386a28.545 28.545 0 0113.953-3.619c8.237 0 15.66 3.474 20.89 9.036-20.586 37.015-56.473 52.66-56.473 52.66s-34.96-14.755-55.664-52.832c5.22-5.462 12.577-8.864 20.729-8.864a28.52 28.52 0 0115.425 4.5c5.234-5.63 12.704-9.15 20.997-9.15 7.851 0 14.964 3.157 20.143 8.269z"/><path fill="#658d5c" d="M433.967 345.161c3.555.411 9.773 3.758 12.78 8.27-2.336 3.86-6.823 9.993-9.3 13.374-5.496-8.067-16.883-18.868-16.094-18.088.114.11.592-.277.731-.355 1.096-.611 2.119-1.166 3.122-1.639a28.482 28.482 0 016.357-1.669c.758-.025 1.553.008 2.404.107zm-24.18 50.77a123.41 123.41 0 01-9.738 4.63 122.488 122.488 0 01-9.738-4.63c-8.708-7.052-26.641-23.508-39.267-47.43a28.088 28.088 0 0113.761-3.579c.41 0 2.106.494 3.347 1.077 7.936 3.73 17.757 14.435 14.138 16.483-2.656 1.498-10.255-.962-10.654 1.978-.15 1.113 14.096 8.939 22.192 15.83 6.636 5.65 17.001 14.796 15.959 15.64zm17.297-7.032c-9.063-8.897-29.447-26.996-46.503-39.676 4.727-5.062 11.265-8.408 18.583-9.007l.384.051c9.843 1.41 18.758 11.964 15.14 14.01-2.657 1.5-10.256-.96-10.654 1.98-.132.98 10.192 7.221 16.236 12.418 5.935 5.102 9.815 8.767 14.217 13.576a136.434 136.434 0 01-7.403 6.648z"/><path d="M422.071 347.943c1.886 1.78 2.708 3.262 2.714 3.272.18.3-.021.992-.563.486 0 0-.75-.715-2.952-2.861-2.965-2.892-8.094-6.55-12.34-7.263-.407-.069-.583-.27-.533-.565.047-.297.305-.577.712-.511.077.012 6.345 1.194 12.962 7.442zm-34.874 5.554c.194.175.246.416.138.595-.114.186-.355.228-.558.08-3.586-2.547-5.336-3.614-7.415-4.918-.163-.104-.272-.277-.15-.46.082-.121.25-.2.41-.247.326-.093.818-.11 1.133.088 2.106 1.322 3.52 2.462 6.442 4.862z"/><path fill="none" stroke="#000" stroke-width="1.244" d="M421.681 348.386c4.13-2.305 8.889-4.084 13.953-4.084 8.277 0 15.733 3.636 20.966 9.366m-112.312-.225c5.227-5.682 12.624-9.295 20.828-9.295 5.68 0 10.972 2.27 15.425 5.118 5.235-5.629 12.705-9.767 20.998-9.767 7.85 0 14.964 3.775 20.142 8.887"/><path fill="none" stroke="#4c819a" stroke-width=".777" d="M367.911 230.52h66.967m-75.913 3.712h84.12m-90.251 3.713h95.793m-100.444 3.715h104.632m-108.329 3.712h111.648m-114.663 3.712h117.374m-119.856 3.713h122.102m-124.169 3.712h126.052m-127.756 3.713H464.55m-130.752 3.714h132.08m-133.249 3.71h134.356m-135.3 3.713h136.22m-50.246 3.713h51.005m-137.726 0h51.354m51.984 3.711h35.002m-138.918 0h35.444m74.937 3.716h29.018m-139.824 0h29.234m87.872 3.712h23.08m-140.456 0h22.994m100.604 3.713h17.118m-140.856 0h17.094m111.114 3.71h12.8m-141.032 0h13.029m119.299 3.712h8.772m-141.027 0h8.481"/><g fill="none"><path fill="#000" d="M356.655 300.398l-.017-7.225 7.749-3.024 7.75 2.093.016 8.156z"/><path fill="#fff" d="M373.237 333.224l3.394 13.948a28.587 28.587 0 00-11.515-2.406l-.729-57.564 3.099.89v6.053l3.874.997v-5.994l5.271 1.387v9.841l-3.394 5.038v27.81z"/><path fill="#bdbfc1" d="M364.387 332.147v-44.943h-.001l-3.1 1.355v5.965l-3.874 1.545v-5.99l-5.27 2.237v9.532l3.788 4.542.09 27.393-3.877 14.082a28.528 28.528 0 0112.244-3.089v-12.629z"/><path stroke="#000" stroke-width="1.09" d="M364.249 332.04l-8.23 1.744m-1.74 8.669l10.048-2.123 10.864 1.168m-11.224-5.225l-8.868 1.807m17.653-24.684l-8.364-1.735-8.483 2.589m16.847 3.098l-8.364-1.597-8.483 2.45m0-7.859l8.483-2.743 8.364 1.767m-16.847 12.726l8.483-2.263 8.364 1.488m-16.77 4.664l8.406-2.076 8.44 1.38m-16.847 4.602l8.407-1.892 8.52 1.271m-3.097-24.411v3.836m-3.1-.583v3.914m3.1.828v3.917m-7.903-4.282v3.914m0 4.11v3.912m-3.72 1.363v3.604m0-19.42v3.605m3.72-9.107v3.916m2.496-10.982l12.227 2.977m-12.227-2.977l-12.26 4.447"/><path stroke="#000" stroke-width="1.244" d="M364.387 344.776v-57.572"/><path fill="#000" d="M370.586 334.677l-3.723-.513.004-11.781c0-1.45.88-2.336 1.674-2.336 1.406 0 2.045 1.584 2.045 2.957z"/><path stroke="#000" d="M373.237 333.225l3.394 13.948a28.587 28.587 0 00-11.515-2.406 28.535 28.535 0 00-12.972 3.098l3.874-14.08-.09-27.393-3.784-4.543v-9.532l5.269-2.238v5.988l3.874-1.543v-5.965l3.1-1.356 3.099.89v6.053l3.874.997v-5.994l5.271 1.387v9.841l-3.394 5.038v27.81zm3.1 13.42c-3.409-1.41-7.302-2.186-11.22-2.186-4.472 0-8.864 1.011-12.647 2.821l3.848-13.413-.08-27.478a.976.976 0 00-.07-.196l-3.714-4.457v-9.214l4.649-1.975v5.521c0 .253.189.382.425.287l3.875-1.543c.08-.031.194-.2.194-.287v-5.764l2.812-1.23 2.766.797v5.817c0 .11.125.273.232.3l3.875.998c.218.056.388-.076.388-.299v-5.594l4.65 1.223v9.51l-3.34 4.956a1.03 1.03 0 00-.054.175v27.81l3.411 13.42zm1.215.455c.075.31-.756.02-1.046-.108a28.263 28.263 0 00-11.39-2.38c-4.618 0-8.98 1.105-12.832 3.063-.3.152-1.149.43-1.06.106l4.483-14.038-.087-27.239-3.714-4.458a.929.929 0 01-.071-.198v-9.532c0-.083.11-.251.186-.284l5.27-2.239c.239-.101.432.027.432.285v5.53l3.254-1.294v-5.756c0-.08.112-.251.187-.283l3.1-1.355a.853.853 0 01.21-.015l3.097.891c.102.03.225.191.225.297v5.812l3.253.838v-5.593c0-.227.172-.357.39-.301l5.27 1.387c.108.027.23.19.23.299v9.842a.92.92 0 01-.051.172l-3.341 4.96v27.677l4.005 13.914zm-13.148-43.577l8.364 1.891m-8.364-1.89l-8.475 2.868"/></g><g fill="none"><path fill="#000" d="M391.526 294.975l-.017-7.383 7.749-2.789 7.75 2.402.016 7.77z"/><path fill="#fff" d="M408.108 328.109l3.395 13.789a28.579 28.579 0 00-9.964-1.78c-.813 0-1.618.034-2.414.1l.134-58.44 3.098 1.046v6.051l3.874 1.076v-5.916l5.272 1.694v9.811l-3.395 4.836v27.733z"/><path fill="#bdbfc1" d="M399.259 340.19v-58.412l-3.099 1.202v6.045l-3.876 1.384v-5.985l-5.27 2.08v9.64l3.787 4.637.09 27.58-3.877 15.702a28.483 28.483 0 0112.245-3.855v-.019z"/><path stroke="#000" stroke-width="1.09" d="M398.802 330.83l-8.575 1.646m19.482 3.87l-10.502-1.32-10.357 1.97m4.225-21.011v3.757m3.72 3.4v3.915m0-28.17v3.915m-3.72 1.433v3.757m3.72-1.008v3.913m7.904-3.315v3.913m-3.1-8.656v3.914m3.1-7.09v3.836m-13.829 20.886l8.405-1.814 8.52 1.582m-17.002-7.64l8.482-2.109 8.364 1.798m-16.846-3.581l8.482-2.295 8.364 1.908m-16.846-3.565l8.482-2.433 8.364 2.047m-16.846-3.581l8.482-2.541 8.364 2.152m.079 15.858l-8.443-1.691-8.405 2m8.39 6.166l-8.37 1.715m20.613-32.82l-12.244-3.56-12.244 4.164m20.624 4.216l-8.363-2.255-8.477 2.675"/><path stroke="#000" stroke-width="1.244" d="M399.259 340.19v-58.412"/><path fill="#000" d="M405.457 329.407l-3.722-.59.004-11.78c0-1.45.88-2.258 1.675-2.258 1.404 0 2.043 1.582 2.043 2.269z"/><path stroke="#000" d="M411.218 341.411c-2.983-1.038-6.343-1.603-9.68-1.603-5.097 0-10.042 1.317-14.204 3.627l3.855-15.001-.078-27.654a.942.942 0 00-.071-.196l-3.714-4.55v-9.319l4.65-1.84v5.534c0 .247.182.376.414.293l3.874-1.39c.09-.03.206-.197.206-.29v-5.83l2.797-1.086 2.78.939v5.83c0 .108.122.27.226.299l3.875 1.075c.22.06.394-.07.394-.299v-5.492l4.652 1.497v9.487l-3.34 4.755a1.426 1.426 0 00-.055.178v27.734l3.42 13.3zm1.206.411c.073.297-.743.007-1.03-.1a28.304 28.304 0 00-9.856-1.758 28.232 28.232 0 00-14.366 3.901c-.295.175-1.16.457-1.078.123l4.485-15.666-.09-27.43-3.714-4.552a.906.906 0 01-.07-.195v-9.64c0-.087.114-.256.197-.289l5.268-2.083c.236-.093.423.036.423.29v5.547l3.256-1.165v-5.826c0-.09.114-.257.199-.288l3.098-1.203c.022-.008.19-.01.211-.004l3.099 1.047c.09.031.209.195.209.292v5.818l3.256.901v-5.508c0-.237.179-.368.405-.295l5.272 1.696c.095.031.213.195.213.295v9.811c0 .018-.046.164-.056.178l-3.336 4.755v27.598l4.005 13.75zm-4.315-13.713l3.395 13.789a28.579 28.579 0 00-9.965-1.78 28.53 28.53 0 00-14.524 3.945l3.875-15.702-.09-27.58-3.785-4.637v-9.64l5.27-2.081v5.988l3.875-1.389v-6.044l3.1-1.2 3.097 1.046v6.051l3.875 1.075v-5.915l5.272 1.694v9.811l-3.395 4.835v27.734z"/></g><g fill="none"><path fill="#000" d="M426.396 300.554l-.015-8.156 7.749-2.17 7.748 2.556.017 7.77z"/><path fill="#fff" d="M442.979 333.534l3.394 13.313a28.586 28.586 0 00-10.74-2.08c-.547 0-1.09.015-1.63.045l.127-57.61 3.098 1.045v6.053l3.874 1.308v-5.918l5.271 1.774v9.688l-3.394 4.804v27.578z"/><path fill="#bdbfc1" d="M434.13 332.147v-44.944l-3.098.968v6.044l-3.876 1.154v-5.987l-5.27 1.696v9.763l3.785 4.852.091 27.549-3.877 15.03a28.508 28.508 0 0112.245-3.466v-12.659z"/><path stroke="#000" stroke-width="1.09" d="M423.572 342.002l10.507-1.63 10.695 1.408m-11.092-5.557l-8.851 1.358m6.82-33.425v3.915m-3.72 1.277v3.76m0 12.132V329m3.72-8.648v3.914m0-12.014v3.915m7.903-3.084v3.914m-3.1-8.733v3.913m3.1-7.014v3.838m-13.828 20.42l8.404-1.426 8.52 1.582m-17.002-11.997l8.482-1.83 8.366 1.986m0 3.968l-8.366-1.875-8.482 1.722m16.848-7.766l-8.366-2.124-8.482 1.968m16.848-3.812l-8.366-2.232-8.482 2.076m16.862-3.706l-8.364-2.433-8.475 2.171m-3.785-4.852l12.26-3.44 12.228 3.75m-12.228 30.89l-8.386 1.357m-.034-7.88l8.404-1.613 8.442 1.767"/><path stroke="#000" stroke-width="1.244" d="M434.13 344.806v-57.603"/><path fill="#000" d="M440.329 334.909l-3.723-.59.002-11.78c0-1.452.882-2.26 1.676-2.26 1.405 0 2.045 1.585 2.045 2.27z"/><path stroke="#000" d="M446.079 346.338c-3.198-1.215-6.82-1.88-10.444-1.88-4.784 0-9.452 1.16-13.427 3.21l3.853-14.349-.079-27.625a.864.864 0 00-.067-.19l-3.718-4.768v-9.433l4.649-1.495v5.562c0 .233.174.364.399.298l3.874-1.157c.1-.029.222-.19.222-.297v-5.816l2.786-.87 2.79.943v5.828c0 .098.12.264.21.295l3.877 1.308c.229.077.41-.051.41-.295v-5.485l4.65 1.565v9.366l-3.339 4.724a1.423 1.423 0 00-.055.178v27.578l3.41 12.805zm-3.1-12.804l3.394 13.313a28.586 28.586 0 00-10.74-2.08c-4.981 0-9.665 1.27-13.747 3.505l3.874-15.03-.089-27.548-3.785-4.854v-9.762l5.27-1.696v5.987l3.874-1.154v-6.044l3.1-.968 3.098 1.044v6.053l3.874 1.308v-5.918l5.271 1.774v9.688l-3.394 4.804v27.578zm4.314 13.235c.077.304-.746.017-1.036-.101a28.31 28.31 0 00-10.622-2.055 28.24 28.24 0 00-13.6 3.467c-.298.162-1-.177-.914-.505l4.329-14.372-.087-27.403-3.72-4.768a.889.889 0 01-.068-.191v-9.765c0-.099.122-.263.217-.294l5.267-1.695c.229-.074.408.056.408.296v5.572l3.253-.972v-5.811c0-.102.12-.266.218-.298l3.1-.967a.943.943 0 01.191.002l3.098 1.045c.094.03.21.197.21.294v5.829l3.255 1.098v-5.483c0-.241.18-.372.41-.295l5.271 1.773c.091.031.21.197.21.295v9.686c0 .016-.046.164-.056.178l-3.337 4.724v27.443l4.003 13.274z"/></g><g id="a" fill="#000" stroke="#000"><path d="M369.418 268.702c-.283-2.57-1.282-6.729-4.716-6.2.175 4.469 5.862 21.291-.637 22.453l-.218-.232c.085-7.639-7.55-15.975-6.063-22.627.98-4.378 4.292-6.745 8.704-6.745 8.045 0 9.159 9.998 3.279 13.503l-.349-.152z"/><path fill="#fff" d="M369.854 267.53c-.654-2.87-2.232-6.61-5.845-5.971l-.237.311c.166 4.805 6.19 19.418.457 21.999-.154-8.368-7.695-13.798-5.76-21.642.538-2.173 2.706-4.875 4.816-5.668.99-.374 2.117-.684 3.189-.663 7.258.15 9.141 7.672 3.38 11.634z"/><path stroke="none" d="M359.574 264.713c.62-1.698 2.653-3.42 4.466-3.635.377-.046.68.292.829.711l-.173-.004c-.208 0-.411.027-.615.075.01.31.036.633.074.966-.85.053-2.325.395-3.83 2.238-.695.855-1.065.504-.751-.35z"/><path stroke-width="1.09" d="M359.997 265.232l4.249-1.736m-3.927 3.268l4.201-1.813m-3.863 3.433l4.2-1.98m-3.392 3.523l3.785-1.955m-2.516 3.385l2.948-1.676m-.822 2.7l1.29-.717"/><path stroke="none" d="M369.137 259.592c-2.228-3.283-7.832-1.437-9.277.644-.103.151-.473-.075-.68-.159a.475.475 0 01-.078-.038c.388-.645.872-1.297 1.425-1.884 2.714-1.734 7.436-2.083 9.337.982a.412.412 0 01-.135.586.427.427 0 01-.592-.13z"/></g><use xlink:href="#a" x="35.338" y="-5.423"/><use xlink:href="#a" x="70.673"/><g stroke="#000"><path d="M446.259 240.532c3.264 2.153 14.81 8.644 16.519 45.635 3.33 72.097-58.017 114.162-58.017 114.162s77.622-33.05 77.622-114.226h0c0-34.173-13.567-71.19-40.476-71.19l-14.791.046-21.485 10.05c-1.125-1.569-3.271-2.59-5.35-2.59-2.076 0-4.225 1.021-5.35 2.59l-21.484-10.05-15.255-.047c-26.911 0-40.478 37.018-40.478 71.191h0c0 81.176 77.621 114.226 77.621 114.226s-61.347-42.066-58.016-114.162c1.709-36.991 13.255-43.482 16.519-45.635l18.13 6.048 22.915-13.412c1.495 1.599 3.04 2.735 5.4 2.733 2.36 0 3.682-.929 5.397-2.733l22.76 13.567z"/><path fill="#d99f31" d="M431.453 214.144l-31.172 13.544-31.17-13.544-10.92.768c-26.91 0-40.477 37.018-40.477 71.191v0c0 81.175 77.62 114.226 77.62 114.226s-62.12-42.066-58.792-114.162c1.709-36.991 13.567-44.412 16.83-46.565l19.976 5.559 26.933-15.921 26.932 15.92 19.511-5.558c3.264 2.153 15.122 9.574 16.831 46.565 3.33 72.097-58.794 114.162-58.794 114.162s77.622-33.05 77.622-114.226h0c0-34.173-13.567-71.191-40.476-71.191z"/><path d="M437.336 228.911c-3.716.438-6.318 2.93-6.45 6.735-.072 2.04.9 5.067 2.302 6.348l-.837.915c-1.655-1.514-2.868-4.887-2.782-7.31.15-4.267 3.146-7.24 7.616-7.764zm-74.51-1.076c4.47.523 7.467 3.497 7.616 7.763.085 2.424-1.128 5.797-2.782 7.311l-.837-.915c1.401-1.281 2.373-4.309 2.302-6.348-.133-3.805-2.734-6.297-6.451-6.735zm-8.735 7.447c-5.398 3.486-10.292 10.097-13.034 16.925-.152.358-.385.464-.621.378-.212-.076-.301-.382-.204-.683 2.586-7.178 7.435-13.664 13.534-18.186l.325 1.566zm7.2-12.852c-13.214 0-23.02 9.304-29.64 26.468-.15.32-.454.565-.783.449-.26-.094-.29-.466-.172-.802 6.622-17.49 16.726-27.2 30.595-27.2 6.037 0 11.227 1.487 15.67 4.752l.243 1.61c-4.459-3.628-9.737-5.277-15.913-5.277zm0 3.564c-11.53 0-20.518 9.719-26.182 24.018-.162.343-.395.524-.71.395-.246-.1-.272-.467-.148-.77 5.378-14.462 14.815-24.727 27.04-24.727 6.132 0 11.387 1.942 15.811 6.198l-.207 1.38c-4.334-4.454-9.53-6.494-15.604-6.494zm13.22 12.591c-2.302-6.87-6.057-9.514-13.379-9.514-9.654 0-17.603 8.772-22.856 22.038-.128.303-.353.481-.641.384-.25-.085-.289-.428-.177-.737 5.114-13.48 13.317-23.08 23.674-23.08 7.686 0 11.79 3.16 14.015 9.848l-.637 1.061zm51.046.093l-.67-.957c2.2-6.8 6.29-10.022 14.002-10.046 12.427.058 21.967 14.06 26.928 32.333.1.36.033.748-.289.812-.315.06-.567-.179-.658-.52-4.973-18.034-14.437-31.17-25.904-31.23-7.381.022-11.117 2.691-13.41 9.608zm43.388 21.765c.104.411.066.758-.297.847-.294.075-.562-.148-.66-.585-4.77-20.384-14.975-34.364-29.18-34.364-6.111 0-11.324 1.522-15.64 5.964l-.198-1.43c4.428-4.272 9.694-5.694 15.838-5.694 15.123 0 25.642 14.935 30.137 35.262zm3.827.535c.075.386-.055.749-.387.803-.317.052-.574-.22-.649-.592-4.693-22.305-15.788-38.723-33.15-38.723-6.105 0-11.33 2.098-15.726 5.755l.166-1.607c4.422-3.405 9.577-5.311 15.56-5.311 18.292 0 29.686 17.306 34.183 39.672zm-31.65-28.224c9.511 1.162 18.057 12.304 21.672 26.985.085.374-.002.744-.32.829-.31.085-.583-.115-.716-.594-4.113-15.828-12.263-24.675-20.761-25.757l.124-1.463z" stroke="none"/><path fill="none" d="M419.351 240.512c-.732-.866-2.93-3.989-2.93-10.27m-.293 8.365c-.684-.916-2.325-3.61-2.325-8.365m-.86 6.482c-.582-.892-1.76-3.114-1.76-6.482m-1.35 4.644c-.4-.797-1.117-2.524-1.117-4.644m-27.504 10.27c.732-.866 2.93-3.989 2.93-10.27m.293 8.365c.684-.916 2.325-3.61 2.325-8.365m.865 6.48c.58-.894 1.755-3.115 1.755-6.48m1.35 4.645c.4-.798 1.117-2.525 1.117-4.645"/><circle fill="#d99f31" cx="400.282" cy="229.24" r="6.199" stroke="none"/><path fill="none" d="M394.135 227.779c.66-2.803 3.141-4.89 6.146-4.89a6.354 6.354 0 015.847 3.868m.33 4.062a6.38 6.38 0 01-6.177 4.77 6.353 6.353 0 01-5.928-4.072m7.562 1.628a4.235 4.235 0 01-5.864-3.744m7.874 1.995a4.239 4.239 0 01-2.01 1.749m-1.192-1.899a2.057 2.057 0 01-2.487-1.798m-2.112-1.24c.125-.555.368-.89.47-1.045"/><path fill="none" d="M394.135 227.779c0-2.917 2.558-5.359 6.146-5.359 2.738 0 5.847 1.925 5.847 4.337m.33 4.062c0 2.695-3.214 5.079-6.177 5.079-2.703 0-5.928-1.965-5.928-4.381"/><path d="M423.345 242.22c3.266 4.331 8.31 7.071 13.965 7.071 7.398 0 13.03-4.597 13.03-11.945-.168-3.893-2.797-8.702-9.016-8.702-4.04 0-7.47 3.896-7.47 7.936 0 2.234.428 3.584 1.8 5.264-5.536-1.78-9.199-4.73-9.199-11.011 0-6.44 4.271-11.055 11.269-11.636 23.385-1.943 37.675 24.015 40.428 59.894 3.924 51.177-23.678 91.974-65.637 115.27-5.857 3.252-10.45 5.852-12.44 6.693l-.026 6.366c15.975-6.107 34.496-17.892 46.046-28.442 21.993-20.09 42.974-54.078 39.79-99.852-2.01-28.906-11.012-48.293-22.062-57.87-18.892-16.381-44.651-9.839-44.651 9.577 0 4.24 1.667 8.225 4.173 11.387zm-46.592 0c-3.266 4.331-8.31 7.071-13.967 7.071-7.396 0-13.028-4.597-13.028-11.945.169-3.893 2.797-8.702 9.016-8.702 4.04 0 7.47 3.896 7.47 7.936 0 2.234-.427 3.584-1.8 5.264 5.535-1.78 9.199-4.73 9.199-11.011 0-6.44-4.271-11.055-11.269-11.636-23.385-1.943-37.674 24.015-40.428 59.894-3.924 51.177 23.678 91.974 65.637 115.27 5.857 3.252 10.45 5.852 12.44 6.693l.026 6.366c-15.975-6.107-34.496-17.892-46.046-28.442-21.993-20.09-42.974-54.078-39.79-99.852 2.01-28.906 11.012-48.293 22.062-57.87 18.892-16.381 44.651-9.839 44.651 9.577 0 4.24-1.666 8.225-4.173 11.387z"/><path fill="#f1bf31" d="M400.048 406.956c-15.975-6.107-34.496-18.669-46.047-29.218-21.992-20.09-41.578-53.303-38.395-99.078 2.012-28.905 10.55-47.207 21.598-56.785 18.893-16.378 43.258-8.922 43.258 8.96 0 9.839-7.986 17.837-17.831 17.837-5.961 0-12.255-4.836-11.632-12.1a7.317 7.317 0 0114.625.32c0 2.233-1.463 4.386-3.039 5.73 6.223-.223 11.677-5.507 11.677-11.788 0-6.44-4.891-11.829-11.889-12.41-23.385-1.943-38.497 24.632-41.047 60.668-3.624 51.205 24.297 92.596 66.256 115.89 5.883 3.266 10.493 5.255 12.466 6.084 1.974-.829 6.582-2.818 12.466-6.084 41.959-23.294 69.88-64.685 66.255-115.89-2.55-36.036-17.661-62.611-41.046-60.668-6.998.581-11.887 5.97-11.887 12.41 0 6.281 5.452 11.566 11.677 11.788-1.576-1.344-3.042-3.497-3.042-5.73a7.316 7.316 0 017.317-7.316 7.319 7.319 0 017.311 6.995c.622 7.265-5.673 12.101-11.634 12.101-9.845 0-17.83-7.998-17.83-17.838 0-17.881 24.365-25.337 43.257-8.96 11.05 9.58 19.588 27.882 21.597 56.786 3.184 45.775-16.403 78.987-38.395 99.078-11.55 10.55-30.071 23.111-46.046 29.218z"/></g></g><g stroke="#000" stroke-width=".933" stroke-linejoin="round" stroke-linecap="round"><path d="M302.443 357.768s-3.285-1.326-4.739-2.053c-2.525-1.263-8.215-8.266-14.573-11.955-9.759-5.663-19.204-4.203-27.833-7.91 1.933 9.037 8.021 17.199 18.101 21.522 8.28 3.552 21.642.498 23.095.619 1.454.123 6.069 1.904 6.069 1.904l-.12-2.127zm-35.22 11.276l.087-.264c5.338-.726 10.339-1.936 15.531-3.253 11.505-2.915 16.895-.548 26.218 5.833.583.4 1.275.956 1.943 1.208 1.512.57 2.482.172 3.941.172l.134.027 2.185 1.709c.167.13.067.244-.09.278-1.905.392-4.505.386-6.497.206-3.007-.274-9.195 6.851-18.002 6.851-11.16 0-18.494-4.94-25.45-12.767z"/><path fill="#658d5c" d="M316.303 374.316c-1.742.062-3.599.062-5.318.35-5.132.865-10.214 6.456-18.018 6.68-10.386.3-16.943-4.592-24.042-11.573 10.328-1.553 18.311-7.516 28.967-4.163 5.463 1.72 11.885 8.6 17.014 7.614l1.397 1.092z"/><path stroke-width=".45" d="M309.878 372.946s-9.11 1.497-14.785 1.512c-9.165.02-23.193-3.8-23.193-3.8s13.986 4.232 23.193 4.418c5.662.115 14.785-1.2 14.785-1.2v-.93z"/><path fill="none" stroke-width=".777" d="M284.538 262.675c.075-.287.019-.634-.16-1.063-.183-.445-.465-.918-.764-1.42-.311-.526-.642-1.078-.903-1.653-.264-.585-.467-1.213-.509-1.867l1.417-.405c.101.794.579 1.813 1.119 2.614.268.399.54.727.77.935.116.105.21.17.271.196.033.017.427.447.427.447l-1.172 2.616c-.087.196-.603.013-.496-.4z"/><path stroke-width=".777" d="M338.065 388.946c-.046-1.9.33-1.192 2.377-.357.436.176.115.604-.26.837-1.222.764-2.302 2.383-2.82 2.02-1.409-.985-.522-1.02.703-2.5z"/><path d="M289.158 254.936c-6.025 15.319-8.06 42.444-5.975 54.761 6.407 37.867 37.596 73.368 66.145 79.106 24.831 4.99 39.967 16.116 49.852 27.982 6.461 7.755 9.91 11.276 19.188 26.72 3.39 5.644-2.409 6.785-4.8 2.106-6.529-12.766-10.046-18.439-19.04-28.473-9.66-10.777-23.868-20.452-47.058-25.08-27.655-5.52-60.05-41.084-66.457-78.95-2.085-12.319-.261-41.73 6.063-57.275l2.082-.897"/><path d="M330.29 387.334c-4.302.472-7.211 6.718-11.528 10.648-7.948 7.234-20.684 7.956-28.805 3.125-.34-.204-.513-.657-.128-.745 10.096-2.29 11.413-16.07 32.46-14.713 2.467.159 3.51.664 5.987.664l2.014 1.021zm-15.983-64.065l.14.068c.106 6.155 4.773 14.549 5.917 21.318.987 5.83-.436 10.703-2.67 16.135-.559 1.353-1.87 4.074-1.92 5.407-.048 1.241.73 2.39 1.388 3.417.23.362 1.624 2.19 1.48 2.545-5.576-4.828-2.296-1.68-4.617-6.133-1.196-2.296-2.622-4.38-3.808-6.693-6.26-12.212-6.376-26.064 4.09-36.064zm40.249 66.701c-2.739-.885-5.528-1.976-7.03-4.78-2.526-4.705-1.985-8.508-4.575-13.377-4.912-9.237-14.37-10.232-19.143-18.795-.968 7.88-2.025 19.652 10.242 28.072 4.319 2.963 10.905 3.644 12.492 4.834 1.588 1.19 2.543 2.89 2.543 2.89l5.471 1.156z"/><path fill="#658d5c" d="M349.244 388.53c-.901-.959-1.912-1.925-2.982-2.699-2.503-1.81-7.924-1.981-12.017-4.981-5.716-4.192-8.68-8.089-10.267-14.997-.964-4.19-.223-7.54-.026-11.023 5.15 7.478 14.095 8.182 18.88 17.13 2.91 5.435 2.523 13.703 8.484 17.008l-2.072-.438z"/><path stroke-width=".777" d="M300.355 347.397s-.34.41-.82 1.778c-.214.614 1.133 2.464 1.023 1.822-.274-1.57.499-2.674.499-2.674l-.702-.926z"/><path fill="#658d5c" d="M302.443 357.768s-3.285-.707-4.739-1.432c-2.525-1.264-8.114-8.596-14.573-12.265-9.26-5.26-17.327-4.16-26.438-6.825 2.585 9.723 7.527 15.54 16.706 19.66 8.22 3.69 21.642.5 23.095.62 1.454.122 6.069 2.06 6.069 2.06l-.12-1.818z"/><path fill="#466343" d="M315.478 368.908c-.406-2.893-3.694-7.056-5.07-9.748-2.016-3.948-3.53-8.256-3.98-12.683-.972-9.536 1.216-14.682 7.493-21.749.046 2.072.324 2.799.95 4.725 2.626 8.092 6.303 14.78 5.111 23.577-.587 4.332-4.124 10.498-4.285 13.145-.083 1.37.69 2.98 1.374 4.134l-1.593-1.401z"/><path d="M291.921 343.116c-6.736-11.197-22.534-6.179-32.887-15.58-5.025-4.564-7.27-11.432-8.272-17.965-.3-1.945-1.13-9.657-.677-11.154.083-.278.363-.345.58-.133 3.432 3.356 6.872 5.523 10.846 8.214 9.439 6.389 13.314 12.385 18.178 22.348 6.37 13.045 12.145 5.61 12.232 14.27z"/><path stroke-width=".45" d="M312.93 328.102s-2.138 11.202-1.815 18.407c.333 7.36 3.597 18.55 3.597 18.55h-.622s-3.383-11.183-3.593-18.55c-.208-7.239 2.433-18.407 2.433-18.407z"/><path fill="#658d5c" d="M281.964 336.012c-3.629-1.151-7.786-1.85-12.202-2.914-4.14-.997-7.521-3.258-10.677-6.102-4.9-4.419-6.52-10.343-7.475-16.698a48.74 48.74 0 01-.442-10.622c.395.695.895 1.382 1.548 1.851 3.215 2.303 6.564 3.91 9.784 6.236 2.814 2.032 4.811 3.374 7.119 5.973 2.916 3.291 5.352 6.848 7.403 10.733 1.618 3.066 3.005 6.66 5.096 9.443z"/><path fill="#a48253" d="M282.118 333.911c1.084 1.445 5.457 3.322 7.047 3.526l1.547 3.858v0c-2.272-2.659-5.267-4.18-8.748-5.284z"/><circle fill="#d99f31" cx="271.96" cy="304.79" r="4.417"/><path fill="#f1bf31" d="M272.469 300.875a4.54 4.54 0 00-.36 1.781c0 1.948 1.151 3.531 2.563 3.531a1.99 1.99 0 001.094-.343c.092-.334.14-.683.14-1.047a3.95 3.95 0 00-3.437-3.922z" stroke="none"/><circle fill="none" stroke-width="1.244" cx="271.96" cy="304.79" r="4.719"/><path d="M285.013 302.83s2.062-7.676 4.003-12.426c4.59-11.246 12.551-11.67 16.608-20.575 2.323 6.013 4.178 13.743.12 22.414-4.683 10.016-16.669 15.894-16.669 15.894l-4.062-5.307z"/><path fill="#466343" d="M305.587 271.848c5.982 16.33-1.916 28.088-16.42 36.197l-3.82-5.28c2.493-10.488 4.283-15.652 12.296-23.104 3.168-2.946 5.944-3.903 7.944-7.813z"/><path fill="#a48253" d="M288.712 255.666c-5.971 15.695-7.736 41.94-5.68 54.084 6.424 37.957 37.527 73.589 66.234 79.357 24.756 4.975 39.556 16.124 49.75 27.646a125.144 125.144 0 0111.765 15.591c2.72 4.259 5.05 8.906 7.337 12.583.37.593-2.72 1.87-3.046 1.343-2.419-3.91-4.642-8.84-7.428-13.356-3.17-5.138-8.617-10.393-13.353-15.984-10.079-11.9-23.5-20.843-46.76-25.485-27.504-5.49-59.513-40.62-65.903-78.39-2.076-12.27-.546-40.75 4.92-55.784l2.164-1.605z"/><path d="M285.719 329.932c-1.234-1.182-3.009-2.309-4.194-3.54-11.027-11.445-8.131-31.438 3.963-41.203.412-.33.723-.174.78.312.487 4.028 1.113 7.819 2.73 12.256 3.689 10.134 4.29 15.947.938 24.575-2.046 5.26.006 9.898.006 9.898l-4.223-2.298z"/><path stroke-width=".623" d="M324.604 379.212c-7.055-2.412-14.343-1.765-20.21-7.855-6.772-7.024-8.237-17.89-6.468-24.164.087-.305.324-.555.514-.32 1.504 1.842 2.301 3.167 4.278 4.624 7.067 5.214 15.744 7.826 18.74 15.79.598 1.585.796 3.246 1.354 4.843 1.908 5.471 5.04 7.124 9.574 10.11l-7.782-3.028z"/><path fill="#658d5c" d="M330.117 382.116c-6.601-5.598-18.497-3.588-25.58-11.18-5.202-5.576-7.395-14.367-6.105-21.991 6.287 5.602 13.597 7.14 19.316 13.43 6.73 7.404 1 12.372 13.668 19.577l-1.3.164z"/><path d="M294.865 341.944l.019-.172c1.64-1.954.502-7.823-.036-10.176-.927-4.056-1.042-7.542-.367-11.671.78-4.77 3.39-9.076 6.068-13.024 1.193-1.759 5.07-7.258 5.472-9.249.033-.17.214-.158.289.006 1.478 3.223 2.25 7.148 2.847 10.632.833 4.879 1.094 9.313-.6 14.862-1.516 4.966-3.553 8.18-6.674 11.521-1.32 1.412-4.427 4.524-4.881 6.206-.083.307-.61 2.546-.494 4.184l-1.643-3.119z"/><path stroke-width=".948" d="M283.939 277.75s.21.031 1.094-.562c.884-.592 1.956-1.611 2.41-2.884.455-1.271 3.643-11.862 7.9-18.417 4.972-7.66 10.136-11.094 16.398-16.715.984 6.07 1.127 15.96-4.003 23.899-4.699 7.267-16.613 12.443-17.993 12.983-1.382.54-3.749.939-5.109 2.745-.77 1.019-1.3 3.006-1.3 3.006l.603-4.055z"/><path d="M282.442 278.762s-.517-.025-1.186-.967c-.666-.946-1.336-2.403-1.336-3.9 0-3.166 3.002-12.642 1.513-19.816-2.843-13.692-7.145-19.181-7.807-24.262-.264-2.027-11.445 13.83-8.045 28.545 1.685 7.293 10.161 15.444 11.35 16.515 1.19 1.072 2.814 2.46 3.59 4.601.8 2.208.63 4.72.63 4.72l1.291-5.436zm6.562-23.55c.804-1.96 2.132-4.283 3.362-5.31 3.022-2.526 11.49-8.815 14.382-13.4 6.439-10.207 5.14-22.779 4.467-24.968-5.583 4.854-10.679 8.056-16.37 16.092-4.969 7.014-6.055 20.73-6.437 23.33-.42 2.838-1.68 5.905-1.68 5.905l2.276-1.649z"/><path fill="#658d5c" stroke-width=".948" d="M283.998 279.97l.224-1.972c1.532-.586 2.895-2.112 3.514-3.591 2.668-6.384 4.293-12.875 8.041-18.771 4.865-7.654 10.076-10.631 15.336-14.835.245 6.764 1.436 13.89-3.95 22.754-3.06 5.033-11.98 10.02-17.532 12.21-2.483.98-4.26 1.777-5.633 4.205z"/><path d="M261.115 266.482c8.511 7.088 10.938 10.403 13.442 21.368.293 1.284 1.922 6.834 2.268 7.518.82 1.632 2.516 2.404 3.56 3.743.114.148.397 3.036.44 3.416.027.23-.15.224-.28.106-1.324-1.21-2.02-3.106-3.565-4.24-1.329-.976-5.818-1.933-7.755-2.732-4.946-2.041-8.98-5.86-11.845-10.332-3.781-5.903-4.209-13.94-3.3-20.706.21-1.553.42-3.423.97-4.895.077-.203.197-.156.3.006 2.017 3.141 3.312 4.705 5.765 6.748z"/><path fill="#658d5c" d="M279.992 299.389l.235 2.006c-4.04-5.467-5.392-3.851-10.978-6.165-4.862-2.011-8.81-5.763-11.635-10.157-4.22-6.561-4.14-16.27-2.359-23.668 2.265 4.466 11.129 8.945 14.53 14.52 2.188 3.585 3.546 7.846 4.632 11.885.542 2.02 1.155 6.091 1.99 7.761.622 1.248 2.508 2.916 3.585 3.818zm15.374 42.663c1.508-2.302.187-8.137-.295-10.778-.743-4.086-.797-7.615-.13-11.74 1.088-6.74 5.354-11.257 9.123-16.72.743-1.078 1.484-2.168 2.068-3.343 4.33 12.192 5.546 24.646-3.893 34.886-1.425 1.545-4.85 4.525-5.376 6.402-.282 1.005-.38 2.072-.459 3.11l-1.038-1.817z"/><path fill="#a48253" d="M331.315 385.465s-.534.85-3.04.85l1.243 1.218c.25-.078.507-.145.771-.2 2.396-.493 3.134-.42 4.693.184"/><path fill="#466343" d="M328.275 386.314c-2.506 0-10.344-1.302-16.615.337-9.455 2.47-13.358 11.315-20.466 14.459 10.797 4.649 18.7 3.505 27.684-3.681 3.62-2.895 5.922-8.418 10.64-9.896z"/><path fill="none" d="M405.404 431.001s.1-1.378 1.69-1.93a1.762 1.762 0 012.082.614"/><path fill="#a48253" stroke-width=".777" d="M340.475 388.878s-.85.495-1.1.719c-.58.519-1.342.9-1.578 1.325l-.923-.086c.574-.477 1.18-1.293 1.506-1.69.191-.23.004-1.107.004-1.107l2.09.839z"/><path fill="#658d5c" d="M287.558 255.574c1.697-4.804 1.658-10.15 2.608-15.138 2.002-10.517 4.99-13.936 12.587-20.97 2.42-2.241 4.9-3.871 7.532-5.86.427 3.025.625 5.564.318 8.602-1.495 14.86-7.824 18.367-18.435 27.455-2.058 1.76-2.59 4.227-4.61 5.911z" stroke="none"/><path fill="#a48253" d="M287.961 254.318c.277-.405.543-.638.686-.57.115.054.13.288.062.617-.333.431-.706.84-1.15 1.21.146-.415.28-.834.402-1.257z" stroke="none"/><path fill="none" d="M287.558 255.574c1.697-4.804 1.658-10.15 2.608-15.138 2.002-10.517 4.99-13.936 12.587-20.97 2.42-2.241 4.9-3.871 7.532-5.86.427 3.025.625 5.564.318 8.602-1.495 14.86-7.824 18.367-18.435 27.455-2.058 1.76-2.59 4.227-4.61 5.911z"/><path d="M288.224 256.116s.382-1.165.957-2.652c.575-1.486.428.399.428.399l-.339 1.62-1.046.633z" stroke="none"/><path fill="#658d5c" d="M282.056 278.96l-.777 2.493c-.435-3.244-1.802-4.69-4.14-6.806-10.18-9.21-14.53-20.05-10.259-32.725 1.495-4.43 2.935-6.874 6.084-10.33 1.989 3.408 2.953 5.447 4.331 9.145 3.493 9.385 4.886 14.69 3.5 25.44-.49 3.797-2.31 8.42.21 11.797.276.367.61.797 1.051.986z" stroke="none"/><path fill="none" d="M282.056 278.96l-.777 2.493c-.435-3.244-1.802-4.69-4.14-6.806-10.18-9.21-14.53-20.05-10.259-32.725 1.495-4.43 2.935-6.874 6.084-10.33 1.989 3.408 2.953 5.447 4.331 9.145 3.493 9.385 4.886 14.69 3.5 25.44-.49 3.797-2.31 8.42.21 11.797.276.367.61.797 1.051.986z"/><path fill="#a48253" d="M281.765 284.471s.246-2.464-.136-3.963c-.19-.746-.684-1.846-.684-1.846s1.225.623 1.506.568c.28-.052-.686 5.241-.686 5.241zm4.157-24.14c-.587.24-2.392-2.304-2.611-4.026-.208-1.636-.88-.953-.8.347.148 2.417 3.038 5.006 2.637 6.543.544-1.32.801-2.276.774-2.864z" stroke="none"/><path fill="none" stroke-width=".777" d="M285.922 260.331c-.587.24-2.392-2.304-2.611-4.026-.208-1.636-.88-.953-.8.347.148 2.417 2.728 4.566 2.328 6.1"/><circle fill="#d99f31" cx="281.443" cy="253.512" r="4.416" stroke="none"/><path fill="#f1bf31" d="M281.706 253.088c-1.196-.84-1.721-2.155-1.171-2.942.55-.785 1.966-.743 3.164.096 1.198.838 1.721 2.154 1.171 2.94s-1.966.743-3.164-.094z" stroke="none"/><circle fill="none" stroke-width="1.315" cx="281.402" cy="253.639" r="4.607"/><circle fill="#d99f31" cx="303.963" cy="344.419" r="4.572" stroke="none"/><path fill="#f1bf31" d="M303.43 343.97c-.976-1.343-1.009-2.982-.074-3.658.934-.679 2.481-.142 3.457 1.202.973 1.342 1.008 2.98.074 3.659-.934.679-2.48.141-3.457-1.203z" stroke="none"/><circle fill="none" stroke-width="1.4" cx="303.963" cy="344.419" r="4.805"/><path fill="none" d="M406.8 432.551s.05-1.391 1.69-1.778c1.495-.35 2.082.926 2.082.926m7.229 15.614c-2.988.617-4.816-3.133-3.79-4.055.671-.602 2.323-.473 3.536.118 2.168 1.057 1.586 3.663.254 3.937z"/><path fill="#a48253" d="M417.799 447.313c-2.481.631-4.43-2.701-3.787-3.436.593-.677 1.85-.712 3.062-.123 2.168 1.06 2.043 3.225.725 3.559z" stroke="none"/><path fill="none" d="M417.799 447.313c-2.481.631-4.43-2.701-3.787-3.436.593-.677 1.85-.712 3.062-.123 2.168 1.06 2.043 3.225.725 3.559z"/><path stroke-width=".45" d="M287.438 256.177c3.143-9.159 4.896-15.598 10.1-24.544 3.541-6.084 10.484-14.695 10.484-14.695s-6.538 8.835-9.93 14.96c-4.795 8.66-5.87 12.388-9.697 23.458l-.957.821zm-14.889-20.356s-1.148 14.387.66 23.294c1.626 8.002 7.273 19.632 7.273 19.632s.316.234-1.318-4.076c-1.68-4.427-3.82-9.323-5.18-15.581-1.931-8.884-1.435-23.269-1.435-23.269zm-13.45 37.38s1.904 4.98 3.536 7.955c4.48 8.172 8.326 12.447 15.973 17.773l.224-.687c-7.373-5.235-10.84-9.414-15.579-17.086-1.837-2.978-4.154-7.955-4.154-7.955zm27.382 3.342s9.156-8.454 13.838-15.066c4.138-5.846 9.103-16.21 9.103-16.21s-4.534 10.492-8.55 16.374c-4.51 6.604-13.151 14.902-13.151 14.902h-1.24zm8.973 66.251c1.742-4.196 4.362-9.975 6.318-16.632 2.455-8.352 3.912-12.423 4.193-21.928-.142 9.491-1.153 12.772-3.163 20.678-1.71 6.73-4.053 12.637-5.795 16.83l-1.553 1.052zm-5.214-42.126s6.897-6.031 9.98-11.43c4.06-7.116 4.743-12.828 4.743-12.828s-.066 5.744-4.126 12.859c-3.08 5.4-10.323 12.288-10.323 12.288l-.274-.89zm-7.86 34.217s-5.95-3.77-9.213-6.52c-12.657-10.66-20.586-25.031-20.586-25.031s7.246 15.173 20.121 25.653c3.422 2.784 9.678 6.673 9.678 6.673v-.775z"/><path fill="none" d="M283.201 336.413s-1.14-.487-.546-1.572"/><path stroke-width=".45" d="M328.64 379.995c-5.585-3.51-13.444-8.741-20.527-16.016-2.425-2.493-5.915-6.67-5.915-6.67s2.832 4.42 5.14 6.825c6.315 6.572 14.988 12.738 20.573 16.25l.729-.39zm19.328 6.709s-10.506-7.537-15.232-14.114c-2.57-3.576-3.819-5.785-5.558-9.832 2.088 4.055 3.505 6.254 6.335 9.832 4.732 5.985 14.455 13.184 14.455 13.184v.93zM295.95 400.21c15.448-2.147 21.456-11.173 34.614-13.222-1.387.072-1.133-.472-2.394-.206-11.602 2.448-18.697 11.225-32.22 13.428z"/><circle fill="#d99f31" cx="314.799" cy="382.209" r="4.572" stroke="none"/><path fill="#f1bf31" d="M319.287 381.34c-.04.148-.1.292-.178.428-.67 1.16-2.506 1.353-4.099.434-1.594-.92-2.344-2.606-1.673-3.767.19-.33.477-.583.825-.753a4.573 4.573 0 015.125 3.658z" stroke="none"/><circle fill="none" stroke-width="1.399" cx="314.799" cy="382.209" r="4.805"/><path fill="#a48253" d="M330.798 384.331s.43.243.693.542c.266.3.364.656.181.884 0 0 .106.262.448.511.46.334 1.063.308 1.73.412.85.137 1.445.253 2.047.43.605.176 1.362.49 1.362.49l-3.426-1.707-3.035-1.562z" stroke="none"/><path stroke-width=".45" d="M297.758 357.549s-8.527-2.236-19.421-6.301c-10.896-4.068-18.237-10.872-18.237-10.872s7.342 6.183 18.237 10.25c10.894 4.068 19.421 5.993 19.421 5.993v.93z"/><circle fill="#d99f31" stroke-width="1.244" cx="334.687" cy="394.974" r="4.882"/><path fill="#f1bf31" d="M338.153 397.954c-1.461.554-3.392-.396-4.476-2.276-1.171-2.027-.915-4.367.572-5.227l.064-.035a4.573 4.573 0 013.84 7.538z" stroke="none"/><circle fill="none" cx="334.683" cy="394.974" r="4.572"/><path fill="#a48253" d="M289.595 332.55s.52 1.589.924 2.577c.3.733.836 1.852.836 1.852s-1.118.239-1.118.114c0-.125-.872-4.524-.872-4.524l.23-.019z" stroke="none"/><path fill="#658d5c" d="M289.006 333.474c-1.651-2.529-5.162-5.342-7.147-7.404-3.413-3.544-5.532-7.606-6.31-12.491-1.838-11.547 1.52-19.312 9.946-27.117.532 8.1 5.163 14.815 6.144 22.904 1.405 11.602-5.978 13.79-.85 25.144l-1.783-1.036z" stroke="none"/><path fill="#a48253" d="M287.887 331.17s.099.5.237 1.12c.33.399.627.795.88 1.183l1.463.85-.781-2.667-1.799-.486z" stroke="none"/><path fill="none" d="M289.006 333.474c-1.651-2.529-5.162-5.342-7.147-7.404-3.413-3.544-5.532-7.606-6.31-12.491-1.838-11.547 1.52-19.312 9.946-27.117.532 8.1 5.163 14.815 6.144 22.904 1.405 11.602-5.978 13.79-.85 25.144"/><path stroke-width=".45" d="M288.996 331.076c-3.356-5.047-4.012-7.514-5.43-12.716-2.668-9.769-2.685-21.632-.174-25.966-2.51 4.334-3.027 16.137-.6 25.975 1.366 5.543 2.453 8.436 5.564 13.541l.64-.834z"/><path fill="none" d="M288.588 332.886c-.82-.957.229-2.53 1.171-1.142"/></g><g stroke="#000" stroke-width=".933" stroke-linejoin="round" stroke-linecap="round"><path stroke-width=".777" d="M514.668 257.68a.631.631 0 01.039-.268s.297-.434.6-1.146c.307-.724.614-1.721.631-2.834l1.66.34c-1.383 4.94-1.44 6.69-1.44 6.69-.012.416-.483.48-.606.083l-.884-2.865z"/><path d="M519.124 275.312c1.323-.868 1.768-3.11 1.85-4.561.148-2.604-2.022-4.91-2.134-7.321-.07-1.548 1.266-1.707 1.52-2.914.224-1.077-3.962-4.856-2.832-7.833.808-2.129 2.504-1.082 3.152-3.308.682-2.357-1.435-5.725 1.287-7.31 1.322-.77 3.264.352 3.84-1.712.585-2.1.119-6.27 3.143-6.565 4.011-.393 4.631 7.82 5.369 8.396.766.6 1.792-.5 2.884-.066 2.946 1.173-.208 6.609-1.221 8.422 7.473.305.64 4.952-.509 7.018.318.754 2.23 1.034 2.544 2.182.205.756-.362 1.42-.885 1.883-1.673 1.478-4.17 2.033-5.988 3.229l-.25.179c-.061.682 1.832 2.682-.72 3.53-4.765 1.586-7.798 2.625-9.636 7.438-.494 1.292-.666 5.256-.758 4.849l-.656-5.536z"/><path fill="#658d5c" d="M519.848 279.074l-.828-3.638c.224-.12.415-.302.598-.476.97-.932 1.432-3.509 1.507-4.802.162-2.81-1.877-4.42-1.979-6.757-.052-1.212 1.294-1.646 1.512-2.794.276-1.462-3.756-4.996-2.7-7.76.72-1.872 2.461-.905 3.165-3.344.612-2.126-1.225-5.918 1.073-7.19 1.388-.767 3.384.465 4.055-1.994.509-1.858.117-5.03 2.743-5.294 3.572-.358 4.107 6.814 5.036 7.526 1.03.79 1.847-.235 2.838.152 1.493.583 1.125 2.643.789 3.83-.389 1.381-1.062 2.52-1.633 3.802-.111.256-.114.496.188.611.938.355 1.74.205 2.065 1.436.443 1.672-2.126 3.499-2.694 4.824-.443 1.032 1.291 1.293 1.517 2.66.322 1.928-6.152 4.09-6.648 4.995-.058 1.265 1.622 2.573-.42 3.256-5.126 1.717-10.244 4.946-10.184 10.957z"/><path stroke-width=".45" d="M519.398 275.86s6.528-11.623 8.415-19.874c1.304-5.712 1.88-14.958 1.88-14.958s-.283 9.213-1.414 14.94c-1.724 8.705-8.47 20.986-8.47 20.986l-.411-1.094z"/><path stroke-width=".777" d="M519.608 286.898a.61.61 0 01.08-.266s1.276-1.34 2.034-2.198c.295-.333.48-.736.59-1.063.105-.318.138-.55.138-.55.03-.206.208-.318.405-.252l2.17.717c.297.097.336.367.081.548-.014.008-1.668 1.179-2.265 1.894-1.32 1.573-1.667 2.169-2.199 3.793-.125.375-.536.346-.6-.046l-.434-2.577z"/><path fill="#a48253" stroke-width=".777" d="M520.348 289.424c.546-1.67.915-2.299 2.255-3.896.631-.752 2.325-1.95 2.325-1.95l-2.17-.716s-.141 1.026-.803 1.778c-.76.86-2.041 2.207-2.041 2.207l.434 2.577z"/><path d="M511.694 247.35s2.726 5.434 5.072 13.789c4.838 17.25 5.465 39.649 3.38 51.968-6.407 37.868-40.662 73.276-68.314 78.796-23.193 4.628-36.874 14.514-46.595 25.236-7.558 8.735-10.48 13.943-17.333 27.906-2.11 4.298-9.016 5.141-6.046-.91 5.373-9.49 10.477-18.257 18.348-27.588 10.234-11.565 24.937-22.91 49.765-27.9 28.55-5.736 61.442-41.083 67.85-78.949 2.084-12.319 1.442-39.17-5.519-56.443l-.608-5.905"/><path stroke-width=".846" d="M497.255 240.334s-8.048-.305-4.178-6.401c-3.683-1.81-8.124-5.093-3.372-7.803-.213-.924-3.022-1.81-2.81-3.989.122-1.252 1.706-1.824 1.843-2.362-.523-.987-4.196-5.702-2.923-7.11 1.953-2.159 6.175.442 8.097 1.602.478-.294 1.186-.89 1.662-1.205 2.805-1.859 2.991 2.637 3.76 4.073.352.659 2.566-1.125 4.061-.334 2.585 1.367 1.443 4.703 2.093 6.956.647-.07 1.578-.598 2.226-.642 4.19-.28 1.92 7.095 1.741 9.414 6.661-.96 1.537 5.874 1.907 11.744.102 1.622-.4 5.203-1.651 3.827-3.943-4.342-14.9-3.154-12.456-7.77z"/><path stroke-width=".977" d="M496.324 264.527c-1.442-.116-4.569-.559-5.185-1.925-.974-2.168 1.559-2.913 1.434-3.077-.886-1.18-4.994-1.935-5.017-3.588-.017-1.16 1.922-1.99 1.58-3.048-.47-1.447-3.238-3.648-2.165-5.257 1.3-1.945 4.035.668 5.353.652.627-.008 1.514-1.397 2.716-1.419 1.77-.029 2.847 3.414 3.516 3.32.74-.101 1.191-1.117 1.918-1.334 2.217-.668 2.85 1.73 3.372 3.29 1.032 3.086 2.145-.577 3.812.15 4.215 1.84 2.48 10.093 3.703 11.084.736.595 2.117.52 2.659 1.362 1.154 1.794-.43 5.418.459 8.664.36 1.312 4.455 5.124 4.455 5.124s.636 3.818.532 3.62c-1.846-3.552-2.246-4.394-5.55-6.919-3.175-2.425-8-.502-9.113-1.773-1.238-1.416.193-2.708-.45-3.328-.246-.235-3.972.151-4.533.095-2.65-.266-5.08-2.676-3.496-5.693z"/><path fill="#658d5c" stroke-width=".977" d="M518.514 278.198l.428 2.377c-6.796-9.721-12.342-5.86-13.8-7.44-1.108-1.202.305-2.067-.6-3.01-.957-.998-6.668 1.115-8.365-3.32-.353-.922.907-2.446.27-2.57-1.445-.283-3.393-.243-4.385-1.551-.413-.547-.769-1.294-.229-1.884.281-.305.611-.564.845-.91.883-1.314-4.486-2.326-4.503-4.28-.01-1.12 1.462-1.525.922-2.903-.471-1.207-2.101-3.204-1.27-4.517 1.01-1.59 3.273.412 4.534.557.619.071 1.67-1.387 2.691-1.416 1.626-.048 2.32 2.973 3.562 2.85 1.213-.12 2.59-2.005 3.917-.367.924 1.142.903 4.477 3.068 3.511.518-.23 1.288-.861 1.867-.61 3.465 1.499 2.58 7.068 3.442 10.03.463 1.59 2.116 1.24 2.708 2.224.286.478.526 1.03.573 1.59.042.48-.033.954-.098 1.427-.268 1.92-.087 3.646.401 5.528.386 1.499 2.494 4.276 4.022 4.684z"/><path d="M520.088 307.84l.34-.28c1.198-.021 2.027-2.498 2.388-3.445 1.5-3.934-1.196-10.462 3.347-10.442.232-1.627.565-5.625 2.045-6.69 1.074-.774 2.126.2 3.152-.106.76-1.532 1.121-4.439 3.303-4.848.692-.128 2.144.995 2.384.873.596-.3 1.302-3.419 3.048-3.89 1.077-.29 2.093.822 2.485.571.64-.409 1.259-1.078 1.79-1.644 2.278-2.434 5.118-2.475 5.042.77-.027 1.157-.767 2.789-1.18 3.844-.141.357 1.433 1.106 1.672 1.565.805 1.534-2.026 3.356-2.66 4.564.043.204 1.5.494 1.717.799 1.885 2.637-3.571 5.527-4.952 7.149-.544.637 1.325 2.056 1.065 3.16-1.044 4.429-7.865 2.799-9.375 3.486-.525.241-.685 2.612-1.129 3.215-1.92 2.595-9.526-.576-11.254 1.05-1.573 1.482-2.097 4.01-3.098 5.812-.216.392-.633.271-.598-.138l.468-5.375z"/><path fill="#658d5c" d="M520.538 308.03c1.408-.069 2.286-2.633 2.711-3.748.555-1.453.802-2.902.858-4.451.085-2.25-1.524-6.205 1.97-5.669 0 0 .737-5.275 2.249-6.492.985-.791 2.743-.342 3.168-.657 1.008-.742.618-3.96 2.79-4.37.842-.16 2.352.672 2.993.353.804-.4 1.092-2.814 2.63-3.224.962-.256 2.237.782 2.864.39 1.325-.827 2.333-3.443 4.207-2.917 2.114.591 1.368 3.8.83 5.115-.384.941.686 1.282 1.065 1.973.71 1.297-1.65 3.359-1.945 4.503-.112.426.928.945 1.19 1.224 1.571 1.679-2.477 4.648-3.565 5.577-.324.275-1.028.828-1.067 1.27-.084.942.932 1.63.67 2.778-.889 3.9-6.316 2.75-8.448 3.462-.86.286-.985 2.032-1.516 2.761-1.707 2.342-9.186.08-11.194 1.912-1.2 1.096-2.168 2.982-2.83 4.458l.37-4.248z"/><path stroke-width=".45" d="M521.658 307.028c.236-.066 9.067-7.095 14.027-12.483 4.062-4.412 9.458-12.121 9.458-12.121s-5.332 7.86-9.302 12.43c-5.02 5.779-13.945 13.503-14.181 13.57-.237.066-.24-1.33 0-1.396z"/><path d="M523.694 284.444c-2.078-1.208-1.77-7.674 1.27-10.607 2.557-2.47 9.707 4.8 7.488 7.806-1.227 1.664-6.568 4.074-8.758 2.801z"/><path d="M532.498 280.529c-1.286 1.057-4.271-.324-5.787-1.839-1.389-1.391-2.233-3.52-1.401-4.502 1.637-1.943 6.201-4.734 8.394-2.894 2.182 1.83-.042 8.278-1.206 9.235z"/><path fill="#a48253" d="M532.078 281.366c-1.167 1.58-6.262 3.617-8.15 2.52-1.642-.954-1.623-6.837 1.359-9.716 1.88-1.815 8.892 4.351 6.791 7.196z"/><path fill="#d99f31" stroke-width="1.09" d="M533.248 271.806c1.819 1.527.058 7.455-1.049 8.363-.94.775-3.612-.259-5.161-1.807-1.407-1.41-2.078-3.381-1.532-4.028 1.684-1.996 5.924-4.054 7.742-2.528z"/><path fill="#f1bf31" d="M531.891 271.844c-.527.557-.875 1.51-.875 2.594 0 1.684.843 3.057 1.89 3.11.145-.459.278-.942.376-1.438.168-.857.253-1.73.187-2.438-.066-.707-.29-1.21-.578-1.453l-.015-.016c-.247-.2-.574-.317-.97-.359h-.015z" stroke="none"/><path stroke-width=".863" d="M493.752 286.796c-.581-1.792-3.343-3.027-3.633-5.184-.131-.98.942-2.648.853-2.938-.477-1.558-3.075-3.566-1.744-5.503 1.717-2.502 4.163.081 6.198.673.334-.127.446-1.246 1.242-1.457 3.116-.829 5.83 4.233 6.648 4.54 2.417.916 4.312-3.36 5.626 5.984 1.034-.247 2.44-.502 3.063.56 2.57 4.405 1.07 13.894 6.206 16.443l.166.337c-.07.373-.236 3.178-.99 2.263-1.298-1.574-2.32-3.812-4.58-4.209-2.386-.417-12.803 3.352-13.083-1.38-.033-.559.723-1.326.473-1.868-.596-1.303-6.854-.847-7.51-4.345-.257-1.372.708-2.623 1.065-3.916z"/><path fill="#658d5c" stroke-width=".863" d="M517.578 301.936c-3.83-5.944-5.544-3.702-11.362-3.264-1.327.1-5.801.286-5.722-1.954.023-.638.507-.806.11-1.574-.845-1.645-6.088-1.343-6.877-4.389-.409-1.576.457-3.7.237-4.294-.731-1.979-3.987-3.829-3.02-6.42.13-.345.32-.662.383-1.032.195-1.144-2.143-3.764-1.103-5.453 1.21-1.963 3.32-.412 4.927.316 1.15.522.86-.496 1.62-.747 1.328-.44 2.984.828 3.872 1.68.499.479 2.074 2.359 2.475 2.545.939.436 2.533-.06 3.622.322.977.345 1.64 4.45 1.787 5.496l.19.13c.89-.192 2.202-.184 2.736.684 2.429 3.961 1.235 13.42 6.446 16.29l-.321 1.664z"/><path stroke-width=".45" d="M517.278 301.663s-6.918-11.443-12.89-17.428c-3.81-3.817-10.641-8.83-10.641-8.83s6.896 5.231 10.641 9.261c5.448 5.861 11.495 16.997 11.495 16.997h1.395z"/><path d="M509.884 319.282c.309.147.967.033 1.378.143 3.049.833-1.314 9.672-1.561 11.613-.064.517.267 2.189.235 2.3l-.665 3.763c-.118.39.073-3.744-.527-4.774-1.063-1.827-4.414-.84-6.136-1.106-2.846-.439-.625-2.872-1.86-3.366-2.041-.816-6.3.349-6.807-2.689-.189-1.134.56-2.347.482-3.316-1.463-1.694-5.222-2.072-4.787-5.047.15-1.032 1.654-2.127 1.613-2.795-.052-.81-3.15-3.082-2.411-4.736.453-1.01 1.327-1.015 1.41-1.605.087-.61-2.512-4.512-.326-5.567 2.622-1.264 4.788 1.694 6.678 1.832.956.07 1.802-1.496 3.249-1.174 1.526.341 1.696 2.386 2.392 3.522.675.025 1.337-.698 2.087-.774 3.197-.335 2.702 4.787 3.525 6.55.1.214 1.061-.367 1.458-.211.668.259.916 1.004 1.012 1.657.281 1.918-.743 3.97-.439 5.78zm20.26 7.674c.6 6.038-7.585.09-12.086 2.49-1.343.713-4.485 3.118-4.256 2.54l1.133-2.852c.374-.316 1.58-.32 2.004-.513.976-.444 2.31-1.989 3.206-3.665 1.24-2.323.394-4.949 1.148-6.656 1.154-2.61 2.96-.21 3.74-.775 1.44-1.044 1.683-6.322 5.203-6.376.927-.015.909.164 1.551.473.732-1.067.97-2.379 2.392-2.823 1.027-.322 1.729.593 2.678.585.681-.534 3.32-4.956 5.483-4.437 2.432.583.966 4.908.783 6.493.268.295.604.288 1.03.857 1.674 2.24-.949 4.632-1.85 6.395.237.53.914.498 1.061 1.17.6 2.736-4.594 3.072-5.13 3.803 0 .253.4.546.355 1.119-.264 3.349-8.025 2.454-8.445 2.172zm-52.557 19.914c.154-1.144-2.24-2.88-1.235-4.452.815-1.275 2.678-.616 3.427-1.272.646-2.027-.427-4.76 2.387-5.389 1.427-.317 2.212 1.13 2.675 2.23.175.41.808 2.936 1.053 3.024.528.189 1.925-.81 2.625-.71 1.905.274.402 3.84.982 4.848.407.708 1.422.149 2.07.372 1.923.66.43 3.859.43 5.225 0 .837 1.384 1.092 1.499 2.513.201 2.545-1.95 2.821-3.173 4.466-.17.23-.211.342-.018.577 2.107 2.569.913 3.82-1.419 5.517-2.746 1.995-6.976 3.266-5.423 7.53 0 0-1.389 2.851-1.538 1.903-.22-1.396.456-2.82.07-4.338-.413-1.62-5.363-3.748-5.56-5.494-.142-1.231 1.287-1.416 1.399-2.524.13-1.26-4.294-2.424-3.777-4.921.28-1.35 1.72-1.747 2.348-2.837-.101-1.06-5.035-4.829-.703-5.811.546-.125 1.413-.117 1.881-.457z"/><path fill="#658d5c" d="M481.75 372.916c.168-1.23.318-2.89.004-4.097-.452-1.744-4.296-3.939-4.466-5.45-.11-.964.625-1.215.779-2.42.207-1.622-3.79-2.661-3.316-4.895.288-1.368 1.997-2.022 1.835-3.237-.09-.677-2.114-2.348-1.682-4.086.351-1.406 1.875-.846 2.76-1.553.97-.773-1.902-3.131-.986-4.55.726-1.126 2.713-.633 3.276-1.43.583-.824-.467-4.267 2.3-4.909 2.19-.506 2.635 4.192 3.564 4.875.878.649 1.276-.512 2.65-.326 1.355.185.31 3.493.846 4.49.579 1.081 1.5.222 2.436.556 1.51.54.02 3.746.02 4.86 0 1.165 1.232 1.164 1.341 2.542.18 2.24-1.951 2.808-3.079 4.188-.312.38-.339.733.007 1.105 2.029 2.186.598 3.499-1.375 4.923-3.064 2.215-6.664 3.44-5.121 7.902l-1.793 1.512z"/><path d="M531.058 337.065c1.524-.392 3.617-1.879 5.09-.703 2.79 2.229-2.07 6.133-2.968 8.222-.017.762 1.553 1.021 1.45 2.555-.178 2.698-3.771 2.123-5.461 3.086-.134.486.618.907.618 1.387 0 3.819-5.765 2.377-7.964 3.092-.7.226.48 2.248-2.021 3.193-1.08.407-2.624-.021-3.719-.214-1.326-.235-2.678-.509-4.034-.434-.558.031-1.131.178-1.692.13-.24-.022-.413-.138-.322-.41l6.3-18.585c.135-.399 2.872.638 3.482.638.678 0 1.345-1.425 1.819-1.857 1.644-1.501 2.437.631 3.81.64 1 .003 3.816-5.59 5.612-.74z"/><path stroke-width=".777" d="M499.83 340.094c-.049-.785-1.63 1.605-1.63 1.605s1.124 1.106 1.888 1.762c.943.812 2.523 1.954 2.523 1.954l.152-1.177s-2.793-1.952-2.933-4.144z"/><path d="M498.153 332.518c.428.606.16 1.424-.133 2.032-.321.67-.51 1.072-.949 1.655-1.437 1.904-4.627 3.605-6.068 2.617-1.313-.9-3.995-8.781-1.896-10.14 1.997-1.291 7.177 1.189 9.046 3.836z"/><path d="M490.57 336.029c.623-.943 1.533-1.66 2.422-2.336 1.264-.968 4.48-2.678 5.9-1.308 1.863 1.8 2.76 7.24.596 9.129-2.85 2.492-7.464-.377-9.26-2.844-.619-.849-.17-1.865.342-2.641z"/><path fill="#a48253" d="M493.292 334.184c1.948-1.447 4.16-2.25 4.997-1.37 2.247 2.37 2.36 6.903.8 8.228-1.572 1.334-5.224 1.227-8.376-2.755-.665-.84.612-2.641 2.579-4.103z"/><path fill="#d99f31" stroke-width="1.09" d="M497.646 332.256c1.052 1.935-4.688 7.333-6.603 6.055-1.329-.885-3.14-7.678-1.835-8.854 1.842-1.663 7.524 1.117 8.438 2.799z"/><path fill="#f1bf31" d="M490.641 329.5c-.47.03-.837.156-1.063.36-.028.025-.066.119-.109.234.782.386 2.177.736 3.61 1.375 2.045.91 3.46 2.109 4.062 1.765.096-.332.1-.59.031-.718-.145-.268-.63-.743-1.281-1.188a12.117 12.117 0 00-2.313-1.219c-.844-.333-1.713-.561-2.437-.609a3.77 3.77 0 00-.5 0z" stroke="none"/><path fill="#466343" d="M512.038 356.94c2.871-.139 5.617 1.136 7.352.509 2.585-.93 1.007-2.942 2.253-3.054 1.246-.115 7.533.346 7.527-2.782 0-.603-.507-.838-.28-1.516.226-.68 4.956-.45 5.126-2.978.107-1.61-1.36-1.63-1.134-2.605.226-.976 5.293-5.769 2.768-7.753-1.739-1.367-4.587 1.02-4.855.322-.35-.91-.43-1.67-1.582-1.778-1.667-.153-2.674 2.5-3.762 2.5-1.09 0-1.586-1.09-2.703-.99-1.462.128-1.682 2.36-2.928 2.36s-3.19-.69-3.19-.69l-6.299 18.584s1.04-.098 1.707-.129z"/><path fill="none" stroke-width=".623" d="M515.124 349.614s5.916-2.24 9.39-4.267c3.323-1.937 7.999-5.716 7.999-5.716m-17.389 9.983s5.916-1.93 9.39-3.956c3.323-1.939 7.999-6.027 7.999-6.027"/><path stroke-width=".777" d="M477.297 379.028s2.342-.568 3.281-.568c.938 0 1.492.455 1.492.455l1.066-1.957s-3.186.377-4.13.292l-1.709 1.778z"/><path fill="none" d="M463.168 400.047c-1.86-2.27 4.311-8.154 6.607-6.489 1.645 1.194 3.712 6.314 2.075 7.843-1.828 1.7-7.203.452-8.682-1.354z"/><path stroke-width=".777" d="M460.324 392.568l-.686-.047c-1.204-1.502-1.642-1.562-3.407-2.044-.56-.153-.64-.745-.033-.907l2.135-.56c.338-.088 1.243.72 1.5.911.408.303 2.48.747 1.72 1.48l-1.229 1.167z"/><path fill="none" d="M459.855 391.228c.872-1.312 6.285-1.624 9.441 1.158 1.941 1.714.38 4.13-1.461 5.69-1.823 1.544-4.583 2.82-5.717 1.828-3.216-2.813-3.312-7.098-2.263-8.676z"/><path fill="#658d5c" d="M513.108 333.132s2.617-2.724 4.726-3.785c4.092-2.061 10.743 1.256 11.73-.61.505-.951-.256-1.647.379-1.9.634-.254 7.89 1.186 8.178-2.096.055-.59-.755-.89-.126-1.521.63-.631 5.213-.938 4.755-3.104-.145-.694-1.143-.89-.887-1.582.253-.696 3.688-3.96 2.222-5.961-.428-.585-1.507-.47-1.427-1.184.256-2.217 1.002-5.646-.83-5.825-1.969-.19-4.269 3.812-5.037 3.967-.954.19-1.522-.75-2.475-.445-1.583.507-1.836 2.851-2.47 2.851-.634 0-.586-.654-1.604-.634-3.108.065-3.37 5.052-4.925 6.277-.886.698-1.41-.242-2.284-.062-2.153.442-1.518 5.828-2.66 7.542-1.142 1.712-3.612 3.739-4.12 3.994-.508.254-1.504.251-1.504.251l-1.641 3.827z"/><path fill="#a48253" stroke-width=".777" d="M455.154 389.994s1.972.663 3.28.733c.88.048 2.257-.126 2.257-.126s-.54.114-1.125-.3c-.19-.135-1.543-1.332-1.543-1.332l-2.869 1.025z"/><path fill="#a48253" d="M460.398 391.64c1.453-1.647 5.66-1.47 8.745 1.25 1.532 1.351.52 3.382-1.301 4.99-1.834 1.617-4.163 2.518-4.952 1.83-3.082-2.695-3.56-6.862-2.492-8.07z"/><path fill="#d99f31" stroke-width="1.09" d="M463.517 399.896c-.691-.789.413-3.208 1.883-4.532 1.302-1.176 3.423-1.979 3.88-1.487 1.8 1.931 3.64 5.367 2.213 7.07-1.433 1.709-6.419.728-7.976-1.051z"/><path fill="#f1bf31" d="M469.062 394.484c-.046.006-.094.021-.14.031-1.493.318-2.34 2.279-1.891 4.39.2.945.63 1.763 1.172 2.345.002.002.013-.002.015 0 1.296.1 2.438-.154 2.86-.657.524-.624.488-1.68.015-2.906-.437-1.132-1.24-2.306-2.031-3.203z" stroke="none"/><path fill="#a48253" stroke-width=".777" d="M515.848 260.454s.052-1.771 1.45-6.762a2.71 2.71 0 01.902-1.352l-2.606-.357s.664.63.653 1.455c-.033 2.33-1.285 4.15-1.285 4.15l.886 2.866z"/><path fill="#658d5c" stroke-width=".846" d="M512.958 255.114s-1.694-4.952-3.142-6.759c-1.532-1.917-2.632-2.319-5.415-3.208-2.46-.787-6.304-1.42-6.465-3.349-.164-1.928.062-1.564-.64-1.748-2.258-.594-5.082-1.34-4.543-3.578.54-2.238 1.373-2.587.406-3.056-1.429-.69-5.185-2.876-4.737-4.79.447-1.916 2.118-1.942 1.414-3.117-.506-.84-2.317-1.763-2.172-3.295.1-1.044 1.423-1.383 1.383-2.313-.04-.932-3.59-5.064-1.501-6.79 1.904-1.57 5.266 1.238 6.125 1.593.862.355 1.852-1.468 3.112-1.168 1.62.386 1.705 2.81 2.182 3.67.874 1.568 2.663-.471 4.062.28 2.332 1.255 1.52 5.567 2.15 6.44.626.87 2.35-.522 3.572.15 1.902 1.051.275 7.347.399 8.38.124 1.037 1.507.146 2.296.761 2.102 1.636-.456 6.6-.052 10.788.14 1.448.487 3.696.487 3.696l1.079 7.413z"/><path d="M496.894 399.126c.66 1.135 1.86 1.918 2.417 3.085.785 1.64.05 3.308-1.931 3.185-.857-.052-1.646-.714-2.468-.78-.665-.052-2.567 2.49-4.41 2.408-2.514-.11-3.711-3.177-5.244-4.744-1.22-.258-2.117 1.54-3.473 1.295-2.786-.502-2.652-4.924-3.613-6.872-.768-.571-1.929.637-3.474-.455-2.387-1.686-1.137-6.985-3.698-8.467-2.255-1.306-7.023-.44-6.609-.658l2.658-1.381c.166-.088.675.156.84.189 4.357.867 10.188.153 14.653.153 2.141 0 1.797 1.73 2.141 2.083l.173.027c2.223.154 4.877-.008 6.773 1.393 2.294 1.703.123 3.225.114 3.607l.104.05.485.164 1.498.44c1.16.372 2.46.886 3.238 1.875 1.135 1.44-.138 2.113-.174 3.403z"/><path fill="#466343" d="M467.191 386.192c.961.608 13.786.204 15.508.204 1.862 0 1.254 1.471 1.89 2.026.772.35 9.58.058 7.574 3.387-.23.382-.532.727-.726 1.127l.044.37c.9.745 4.023.804 5.382 2.556.81 1.046-1.336 2.726-.417 3.388 1.765 1.269 5.712 6.914-1.451 5.22-1.724-.41-3.764 4.396-7.512.096-.455-.523-1.511-2.048-1.946-2.349-1.046-.723-2.379.958-3.663.748-2.36-.389-2.507-4.528-3.357-6.265-1.17-.818-2.15.156-3.548-.83-3.168-2.236.715-9.908-9.537-8.762l1.759-.916z"/><path stroke-width=".45" d="M466.256 386.406s9.654 1.955 15.2 4.75c5.091 2.567 11.92 8.464 11.92 8.464s-6.656-6.267-11.764-8.928c-5.287-2.754-14.582-4.595-14.582-4.595l-.774.309z"/><path d="M491.113 376.212c2.504 2.32-1.283 10.045-4.126 9.561-4.53-.772-7.018-5.888-6.164-8.069.911-2.335 7.585-3.996 10.29-1.492z"/><path fill="none" d="M486.598 384.988c-1.28-.918-.788-4.17.345-6.133 1.038-1.8 2.514-2.928 3.644-2.575 3.212 1.003 6.333 5.228 5.13 7.802-1.18 2.537-7.844 1.817-9.119.906z"/><path fill="#a48253" d="M490.902 376.44c2.3 2.13-1.352 9.146-3.862 8.718-4.317-.735-5.872-5.18-5.349-7.011.538-1.892 6.657-4.072 9.211-1.707z"/><path d="M505.924 381.749c-.411.544-1.275 1.555-2.176 1.547-3.844-.037-3.575-3.318-5.594-5.498-.677-.164-1.177.633-2.5.332-1.734-.397-1.84-4.815-4.437-5.718-1.312-.455-4.968-.474-6.999 1.432l3.633-2.827c3.512 1.378 6.676-6.096 10.698-5.104 1.142.282 1.179 1.028 2.5.912 2.936-.26 5.921-2.187 9.455-1.02 2.114.698-.633 3.53 2.04 3.206 1.719-.21 4.28-.202 4.791 1.935.28 1.173-.324 1.704-.195 2.554.346.27 6.798 2.514 3.384 4.242.54 1.516 3.134 2.531 1.761 4.39-1.287 1.745-4.03-.192-4.79.53-.313.302-.3 1.137-.577 1.482-1.138 1.413-4.132-1.458-5.41-1.729-1.27 4.311-3.57 2.28-5.584-.666z"/><path fill="#658d5c" d="M491.454 372.425c2.666.751 2.739 4.864 4.276 5.249 1.536.384 1.496-.426 2.458-.204.889.204 1.786 5.388 6.083 4.853 1.095-.137 1.643-1.3 1.643-1.3s1.572 2.576 3.224 2.808c2.378.335 1.697-1.805 2.3-1.876.967-.112 2.743 1.937 4.52 1.937 1 0 .857-1.706 1.913-1.706 1.057 0 3.144 1.007 4.003-.231 1.124-1.615-1.492-3.51-1.683-4.086-.193-.576.743-.592.645-1.148-.363-2.054-3.698-2.382-3.987-3.107-.288-.722.466-1.468.184-2.593-.478-1.914-3.194-1.981-4.423-1.709-2.847.634-.266-2.402-2.294-3.257-3.493-1.473-8.573 1.316-9.87.77-.873-.368-1.206-.476-1.95-.607-3.147-.546-6.047 4.043-8.034 5l.992 1.207z"/><path stroke-width=".45" d="M490.467 370.994s9.648-.594 15.31 1.377c4.899 1.704 11.364 6.911 11.364 6.911s-6.966-5.124-12.148-6.63c-5.575-1.617-14.867-.73-14.867-.73l.341-.928zm-8.522.676s1.845-12.28 1.686-20.172c-.096-4.744-1.001-12.123-1.001-12.123s1.27 7.649 1.466 12.589c.293 7.338-1.377 18.775-1.377 18.775l-.774.931z"/><path d="M472.62 371.22c.177.525 1.962 1.042 1.8 3.031-.195 2.438-3.868 1.689-5.577 2.834-.646.436.766 2.53.025 3.522-1.327 1.77-5.834.714-6.162 1.154-.605.81 1.47 3.04-.717 4.27-3.038 1.708-9.451-.994-12.91 2.071-.204.183-1.55 1.694-1.601 1.71-1.977.52-7.222 1.602-6.609 1.344 3.077-1.3 8.025-2.566 8.992-4.681.827-1.803.202-5.206.54-7.154.503-2.91 2.641-1.74 3.345-2.664.57-.747-.49-4.804 1.81-6.716 1.616-1.341 3.35-.42 4.826-1.483 1.543-1.108-.789-4.815 2.259-5.87 1.832-.633 3.736 1.412 4.15 1.323 1.14-.245 2.475-3.678 4.787-3.216 2.302.458 1.275 3.494 1.177 4.9 3.86.48 1.77 3.35-.135 5.625z"/><path fill="#658d5c" d="M441.417 390.864s8.207-3.43 8.878-5.151c1.032-2.64-.094-6.636 1.343-7.591.937-.625 1.875-.312 2.49-1.2.616-.89-.183-5.195 2.034-6.935 1.39-1.089 2.641-.113 4.334-1.302 1.823-1.286-.48-4.46 2.307-5.504 1.64-.615 3.289 1.393 4.107 1.179 1.571-.41 2.402-3.536 4.707-3.202 1.853.268.946 2.156.828 3.94-.068 1.027 1.54.55 2.019 1.988.35 1.046-1.08 3.295-2.038 4.132-.546.477 1.664 1.316 1.531 2.802-.193 2.137-4.315 2.286-5.272 2.629-1.235.44-.121 2.286-.96 3.362-1.34 1.719-4.779.652-5.392 1.472-.56.75.686 2.68-.892 3.864-1.64 1.23-8.015.45-9.05.833a77.195 77.195 0 00-5.574 2.31l-5.4 2.374z"/><path stroke-width=".45" d="M450.209 386.042s8.972-6.453 13.56-12.223c2.531-3.183 5.874-8.019 5.874-8.019s-3.236 5.014-5.72 8.328c-4.528 6.044-13.566 12.95-13.566 12.95l-.148-1.036zm67.055-57.412c3.449-1.864 9.711-5.091 14.825-9.757 3.44-3.139 7.925-8.934 7.925-8.934s-4.454 6.094-7.925 9.4c-5.22 4.97-11.841 8.51-15.29 10.375l.465-1.084z"/><path fill="#466343" d="M509.938 333.264l-.791 2.633c0-3.636-.144-5.368-4.45-5.14-.667.034-1.354.108-2.016.005-2.188-.343-.502-1.657-1.198-2.658-.852-1.221-6.611-.124-7.082-3.011-.18-1.117 1.064-2.446.151-3.322-1.382-1.324-4.826-2.473-4.458-4.9.154-.999 1.491-1.724 1.298-2.654-.258-1.24-2.733-3.395-2.128-4.757.481-1.086 1.364-.735 1.447-1.76.095-1.144-1.908-4-.122-4.869 2.354-1.145 3.949 1.09 5.969 1.254 1.171.095 1.966-1.3 3.19-1.027 1.581.35 1.592 2.898 2.61 3.419.373.189 1.494-.76 2.021-.82 2.834-.326 2.191 5.172 3.156 6.46.35.465 1.098.001 1.605.16 1.774.551-.126 6.562.605 7.366.248.274 1.15.12 1.544.23 1.48.416.447 4.238.202 5.177-.55 2.108-2.454 6.247-1.553 8.214z"/><path stroke-width=".45" d="M509.828 332.84s-2.747-10.935-6.646-16.812c-3.229-4.867-10.303-10.867-10.303-10.867s6.767 6.046 9.838 10.867c3.764 5.91 6.333 16.812 6.333 16.812h.778zm5.966-57.146s-6.492-10.546-12.074-16.031c-4.555-4.481-12.983-9.993-12.983-9.993s8.031 5.67 12.362 10.165c5.295 5.494 11.455 15.859 11.455 15.859h1.24z"/><path fill="#a48253" d="M512.964 250.457c1.082 2.708 2.633 6.896 3.664 10.806 4.84 18.336 5.287 39.524 3.215 51.766-6.381 37.707-40.664 72.786-68.103 78.263-23.297 4.651-37.067 14.746-46.846 25.535-4.637 5.114-8.339 10.215-11.204 15.078-2.843 4.82-4.707 8.951-7.23 13.103-.03.015-.074.034-.141.057-.17.06-.397.113-.658.164-.554.104-1.257.185-1.923.212-.679.029-1.281.002-1.644-.088l-.087-.023c.355-.55.708-1.085 1.054-1.655 2.406-3.965 4.498-7.83 7.248-12.424 2.743-4.576 5.987-9.406 10.401-14.395 10.176-11.503 24.638-22.63 49.354-27.597 28.772-5.783 61.627-41.463 68.062-79.483 2.094-12.381 2.049-33.76-5.818-56.926l.656-2.393z"/><path stroke-width=".45" d="M511.844 248.246c-2.386-6.082-4.065-9.424-7.52-14.968-4.463-7.161-13.528-16.88-13.528-16.88s8.577 9.758 12.797 16.85c4.464 7.505 6.509 12.123 9.071 20.47l-.82-5.472z"/><path fill="#a48253" d="M513.234 254.084s-.366-.91-.555-1.508c-.394-1.24-.712-3.261-.712-3.261s.588 1.416.98 2.348c.345.822.895 2.452.895 2.452l-.608-.031z" stroke="none"/><path d="M514.378 317.002c-1.778-1.476-6.65-5.97-6.65-8.266 0-2.736 2.554-2.265 3.168-2.666-.11-1.108-3.858-3.845-2.354-6.312.99-1.628 3.243-1.171 4.077-1.835.638-1.744-1.837-6.27.147-8.725 1.176-1.454 2.086-.368 2.638-.5.11-.765.087-1.544.174-2.309.15-1.354.64-2.698 2.214-2.778 2.203-.115 3.7 2.713 4.749 4.266.233-.134 1.382-.296 1.625-.417 2.71-1.325 1.727 7.082 1.804 8.378.631-.02 1.913-.373 2.473-.046 2.903 1.713-2.865 10.718-3.48 12.837-.255.88 3.046.172.51 3.371-1.477 1.867-3.363 3.52-4.995 5.251l-6.1-.249z"/><path fill="#658d5c" d="M515.298 323.974c1.103-2.905.71-5.737-1.48-7.323-2.347-1.699-5.475-5.732-5.471-8.069.007-2.761 2.75-1.08 2.877-2.385.096-.974-3.606-3.896-2.286-6.042.86-1.396 3.15-1.234 3.73-1.934.963-1.164-1.427-6.33.464-8.736 1.04-1.323 1.847.083 2.54-.405.67-.476-.405-4.425 2.14-4.54 2.453-.11 4.257 4.004 4.65 3.877.793-.255 1.735-1.084 2.628-.236.87.824.598 7.844.598 7.844s1.667-.162 2.201.166c2.217 1.364-1.765 9.333-2.886 11.518-.957 1.864 1.846 2.098.409 4.013-2.365 3.154-7.09 6.939-7.838 11.58"/><path stroke-width=".45" d="M518.028 321.924s1.775-11.42 2.267-17.446c.403-4.941-.696-13.074-.696-13.074s.634 7.823.231 12.765c-.492 6.024-3.137 20.356-3.137 20.356l1.335-2.6z"/><path d="M492.06 364.365c.994-2.554-1.933-10.043.276-11.355 1.262-.752 2.06.66 3.29-.55 1.57-1.554-.888-7.402 1.986-9.253 1.67-1.073 2.992.474 4.599-.984 1.067-.972 1.114-4.886 3.827-5.564 1.802-.45 2.63.776 4.227.997 1.353.184 5.949-6.22 8.805-4.69 2.992 1.606.343 5.003-.26 7.279-.315 1.19 2.233 1.021 1.994 3.014-.217 1.821-2.3 3.646-2.302 4.412 0 .815 2.105 1.369 2.19 2.893.168 2.963-4.607 3.38-6.212 4.64-.841.66 1.083 2.789-.104 4.749-1.259 2.082-6.617.62-7.508 1.067-.725.366-.017 3.895-.92 5.147-1.468 2.035-8.465.125-11.056.548-3.47.57-4.986 1.28-7.167 3.87l4.335-6.22z"/><path fill="#658d5c" d="M487.657 368.456s2.734-1.416 3.72-2.996c.968-1.56 1.094-2.12 1.056-4.584-.023-1.497-1.327-6.649.14-7.469 1.207-.673 1.876.646 3.38-.774 1.833-1.732-.856-7.724 1.754-9.342 1.574-.976 2.995.75 4.815-.878 1.241-1.11 1.03-4.846 3.473-5.458 1.532-.385 2.751.81 4.2 1.004 1.772.239 5.81-5.651 8.34-4.273 1.11.605 1.438 1.453 1.234 2.67-.22 1.312-.963 2.471-1.247 3.752-.365 1.65 1.866 1.506 1.665 3.248-.189 1.654-2.151 3.24-2.151 4.314 0 1.176 1.769 1.94 1.883 3.385.216 2.74-5.515 2.794-5.978 4.297-.459 1.49.656 2.606-.427 4.363-1.171 1.894-5.204.218-6.78.861-1.314.534-.518 3.505-1.316 4.696-2.2 3.282-12.85-1.328-17.225 4.686l-.536-1.502z"/><path stroke-width=".45" d="M487.976 368.836s11.323-9.636 17.535-16.775c4.784-5.493 11.245-14.916 11.245-14.916s-6.031 9.539-10.625 15.072c-5.611 6.76-15.991 15.865-15.991 15.865l-2.164.754z"/><path fill="#a48253" d="M486.963 369.091l1.856-.537s-.68.799-.955 1.046c-.232.207-.843.778-.843.778l-.058-1.287z" stroke="none"/><path fill="#d99f31" stroke-width="1.09" d="M486.87 384.764c-.918-.658-.68-3.67.477-5.679 1.05-1.819 2.679-2.7 3.354-2.386 2.48 1.165 5.587 5.063 4.596 7.186-.984 2.108-7.212 1.747-8.427.879z"/><path fill="#f1bf31" d="M491.359 377.719a2.032 2.032 0 00-.734.5c-1.021 1.134-.543 3.226 1.062 4.672.816.734 1.767 1.159 2.64 1.25.004-.002.013.002.016 0 .221-.152.375-.317.453-.485.35-.748-.026-2.095-.937-3.406a10.718 10.718 0 00-2.5-2.531z" stroke="none"/><path d="M516.644 254.586c-2.355-.813-3.964-5.166-2.984-9.028.972-3.823 10.73-2.266 9.68 2.288-.83 3.594-4.698 7.43-6.696 6.74z"/><path d="M523.074 246.464c-.347 2.293-3.367 2.548-4.765 2.263-1.487-.299-4.292-1.879-3.964-3.777.696-4.028 3.947-7.133 5.864-6.83 2.095.331 3.424 4.652 2.865 8.344z"/><path fill="#a48253" d="M516.848 253.845c-1.983-.307-3.534-4.4-2.585-8.133.889-3.503 9.233-1.287 8.475 1.995-.828 3.59-3.952 6.437-5.89 6.138z"/><path fill="#d99f31" stroke-width="1.09" d="M520.134 238.734c1.628.257 3.356 3.926 2.789 7.66-.272 1.803-3.085 1.704-4.523 1.413-1.548-.314-4.154-1.35-3.907-2.778.687-3.982 4.142-6.534 5.641-6.295z"/><path fill="#f1bf31" d="M519.859 239.266a1.769 1.769 0 00-.25.047c.101.654.514 1.614.703 2.719.251 1.463.22 3.85 1.234 3.671.63-.11.9-.61.907-1.578v-.015a9.46 9.46 0 00-.61-2.64c-.527-1.325-1.348-2.133-1.796-2.204a.831.831 0 00-.188 0z" stroke="none"/><path fill="none" d="M382.268 446.704c-.77-1.134.992-4.616 4.682-4.196 1.617.184.835 2.526-1.173 3.928-1.408.98-2.738 1.403-3.509.268z"/><path fill="#a48253" d="M382.268 446.704c-.77-1.134.35-3.572 4.064-3.73 1.332-.058 1.453 2.06-.555 3.462-1.408.98-2.738 1.403-3.509.268z"/><path fill="none" d="M394.916 431s-.1-1.379-1.69-1.93c-1.37-.479-2.238.614-2.238.614m2.377 3.177s-.05-1.392-1.688-1.778c-1.495-.35-2.085.926-2.085.926"/></g><path fill="#fff" d="M401.704 427.164c7.69-.09 13.472-.821 20.047-2.12-1.552 5.274-4.653 15.305 7.744 15.305 9.022 0 18.598-5.426 27.897-.654 20.311 10.417 35.647 2.978 48.045-10.97 0 0-9.167 1.958-18.598 1.55 0 0 7.065-6.022 7.749-13.95-6.2 4.65-12.4 5.329-18.602 5.329-6.196 0-10.16-3.744-18.276-5.025.457-2.805.947-5.662 1.678-9.601.797-4.3-.388-7.79-6.644-8.526-13.614-1.598-26.8 6.255-50.892 6.633-24.256-.378-40.882-8.23-54.499-6.633-6.255.735-7.44 4.226-6.643 8.526.73 3.939 1.22 6.796 1.675 9.601-8.114 1.28-12.078 5.025-18.274 5.025-6.204 0-12.401-.68-18.602-5.328.684 7.927 7.75 13.948 7.75 13.948-9.43.41-18.599-1.549-18.599-1.549 12.4 13.947 27.734 21.387 48.045 10.97 9.3-4.772 18.876.654 27.897.654 12.398 0 9.296-10.031 7.745-15.304 7.036 1.388 14.824 2.153 23.354 2.153l.003-.034z"/><path d="M337.705 427.301c-.901.417-1.364-.162-.348-.681.72-.37 3.83-1.724 6.079-2.166a.155.155 0 01.182.133l.082.6a.159.159 0 01-.127.172c-2.116.376-5.112 1.59-5.868 1.942zm.519 2.946c-.901.417-1.366-.162-.348-.68.718-.369 3.986-1.976 6.236-2.418.063-.012.153.037.175.097l.226.599c.036.097-.016.188-.118.207-2.117.374-5.417 1.846-6.171 2.195zm32.315 5.392c-3.864-.4-8.428-1.571-13.272-2.246-6.134-.856-11.467-.538-17.852 2.356-.352.16-.538.176-.675.18-.118.005-.3-.027-.336-.205-.03-.137.064-.265.15-.349.096-.097.242-.186.418-.278 5.943-3.037 12.161-3.583 18.4-2.734 4.837.658 9.444 1.67 13.3 2.07 2.17.224 4.646-.141 5.462-1.447.214-.341.83.396.628.716-1.234 1.977-4.118 2.155-6.224 1.937zm-33.608-11.043a1.363 1.363 0 01-.434.103c-.097 0-.253-.024-.303-.17-.046-.135.042-.253.107-.322.08-.08.202-.16.35-.228 2.337-1.075 2.944-1.264 6.368-2.176.288-.077.503.094.552.313a.445.445 0 01-.355.534c-2.672.636-3.974 1.05-6.285 1.946zm-.527-3c-.152.06-.295.096-.41.092-.107-.004-.238-.045-.287-.174-.049-.123.01-.244.076-.322a.894.894 0 01.32-.229c2.359-1.04 3.301-1.376 6.588-2 .276-.053.5.099.577.296.085.217-.023.467-.322.523-3.21.608-4.346.942-6.542 1.814zm34.142 9.007c-2.637-.272-5.639-.862-8.82-1.38a.492.492 0 01-.417-.58c.04-.24.25-.47.58-.416 3.16.515 6.144 1.103 8.761 1.374a6.256 6.256 0 002.93-.377.487.487 0 01.652.285.486.486 0 01-.285.651 7.203 7.203 0 01-3.4.443zm-13.876 5.25c-5.263-.82-11.754.069-16.78 2.572-.22.11-.42.148-.57.163-.122.01-.305.006-.384-.135a.253.253 0 01-.008-.222.51.51 0 01.118-.169c.1-.103.263-.216.476-.328 7.408-3.59 13.065-3.35 17.47-2.85 4.724.533 8.868 1.558 13.388 1.9.393.028.5.381.603.687.093.282.265.8-1.149.647-4.474-.473-8.569-1.548-13.163-2.265zm13.833-2.98c-5.001-.52-11.64-2.226-18.004-2.509-.327-.014-.535-.235-.537-.486-.002-.261.211-.47.546-.456 6.387.284 13.102 1.806 18.122 2.325 1.854.193 3.88-.174 4.855-1.047.292-.263 1.046.725.766.975-1.292 1.158-3.741 1.405-5.748 1.198zm-31.732.107c-.901.418-1.364-.162-.349-.68.822-.423 5.342-2.559 7.753-2.719a.613.613 0 01.646.416c.077.26-.069.531-.426.556-2.167.143-6.758 2.026-7.624 2.427zm123.621-5.679c.901.417 1.366-.162.349-.681-.721-.37-3.83-1.724-6.078-2.166a.156.156 0 00-.184.133l-.082.6a.16.16 0 00.127.172c2.116.376 5.112 1.59 5.868 1.942zm-.518 2.946c.9.417 1.364-.162.349-.68-.72-.369-3.99-1.976-6.238-2.418-.062-.012-.152.037-.175.097l-.225.599c-.038.097.014.188.118.207 2.116.374 5.417 1.846 6.17 2.195zm-32.315 5.392c3.863-.4 8.427-1.571 13.272-2.246 6.131-.856 11.467-.538 17.852 2.356.35.16.537.176.675.18.118.005.299-.027.336-.205.03-.137-.065-.265-.149-.349a1.732 1.732 0 00-.422-.278c-5.94-3.037-12.16-3.583-18.398-2.734-4.838.658-9.444 1.67-13.3 2.07-2.169.224-4.646-.141-5.461-1.447-.215-.341-.83.396-.628.716 1.233 1.977 4.118 2.155 6.223 1.937zm33.608-11.043c.162.062.318.102.434.103.097 0 .253-.024.303-.17.046-.135-.041-.253-.107-.322a1.21 1.21 0 00-.35-.228c-2.337-1.075-2.943-1.264-6.368-2.176-.29-.077-.504.094-.552.313a.445.445 0 00.355.534c2.672.636 3.974 1.05 6.285 1.946zm.526-3c.152.06.296.096.41.092.108-.004.239-.045.288-.174.048-.123-.01-.244-.076-.322a.89.89 0 00-.32-.229c-2.359-1.04-3.302-1.376-6.589-2a.503.503 0 00-.577.296c-.085.217.023.467.32.523 3.214.608 4.35.942 6.544 1.814zm-34.142 9.007c2.637-.272 5.64-.862 8.82-1.38.332-.055.455-.341.417-.58a.491.491 0 00-.579-.416c-3.16.515-6.143 1.103-8.762 1.374a6.255 6.255 0 01-2.93-.377.486.486 0 00-.651.285.487.487 0 00.284.651c1.013.4 2.166.571 3.401.443zm13.876 5.25c5.264-.82 11.756.069 16.781 2.572.22.11.42.148.569.163.122.01.305.006.384-.135a.255.255 0 00.008-.222.532.532 0 00-.116-.169 1.955 1.955 0 00-.478-.328c-7.408-3.59-13.064-3.35-17.47-2.85-4.723.533-8.868 1.558-13.386 1.9-.394.028-.502.381-.604.687-.094.282-.265.8 1.148.647 4.474-.473 8.57-1.548 13.164-2.265zm-13.834-2.98c5.003-.52 11.64-2.226 18.005-2.509.327-.014.535-.235.537-.486.003-.261-.213-.47-.546-.456-6.384.284-13.102 1.806-18.122 2.325-1.854.193-3.88-.174-4.854-1.047-.292-.263-1.044.725-.766.975 1.291 1.158 3.742 1.405 5.747 1.198zm31.733.107c.902.418 1.366-.162.35-.68-.825-.423-5.343-2.559-7.756-2.719a.613.613 0 00-.643.416c-.078.26.068.531.425.556 2.168.143 6.759 2.026 7.625 2.427z"/><g stroke="#000" stroke-linejoin="round" stroke-linecap="round"><path stroke-width=".933" d="M400.04 427.329c-10.344 0-17.105-1.581-26.346-3.253-21.515-3.893-26.193-.935-26.193 2.788 0 1.194 1.105 1.547 1.902 1.188.407-.185.743-.87.743-.87-.758-.008-1.254-.31-1.094-1.248.46-2.718 6.046-3.955 24.642-.928 9.27 1.507 16.01 2.788 26.354 2.788l-.008-.465zm.017 0c10.344 0 17.105-1.581 26.346-3.253 21.515-3.893 26.193-.935 26.193 2.788 0 1.194-1.105 1.547-1.901 1.188-.408-.185-.744-.87-.744-.87.758-.008 1.254-.31 1.094-1.248-.46-2.718-6.046-3.955-24.642-.928-9.27 1.507-16.01 2.788-26.355 2.788l.008-.465z"/><path d="M342.374 416.79c-3.409.546-6.536 1.71-9.731 2.965-8.708 3.42-18.7 2.896-26.438-2.608.54 3.912 2.255 7.317 4.763 10.305.613.727 2.492 2.587 2.492 2.587.313.325.257.533-.187.546-5.928.253-11.312.176-17.14-.911 13.761 15.134 27.585 18.9 46.43 9.744 9.902-4.81 18.15.62 28.04.62 10.489 0 9.5-6.866 7.192-14.623l1.258.135c1.688 4.767 4.34 16.523-8.45 15.573-9.86-.732-17.751-5.755-27.684-1.016-15.294 7.296-26.347 7.192-39.654-2.683-2.714-2.012-7.086-5.63-8.951-8.39-.453-.67.004-1.071.684-.862 5.051 1.568 12.7 1.572 16.594 1.47-3.153-3.17-6.7-9.055-6.546-13.276.021-.546.28-.65.744-.413 7.209 3.735 9.914 5.237 18.321 5.237 4.95 0 15.064-5.592 18.075-5.013l.188.613z"/><path stroke-width=".933" d="M457.723 416.79c3.407.546 6.534 1.71 9.732 2.965 8.708 3.42 18.7 2.896 26.438-2.608-.54 3.912-2.258 7.317-4.766 10.305-.61.727-2.489 2.587-2.489 2.587-.313.325-.258.533.187.546 5.925.253 11.311.176 17.14-.911-13.764 15.134-27.586 18.9-46.433 9.744-9.9-4.81-18.147.62-28.036.62-10.49 0-9.502-6.866-7.193-14.623l-1.256.135c-1.69 4.767-4.342 16.523 8.449 15.573 9.858-.732 17.75-5.755 27.683-1.016 15.294 7.296 26.346 7.192 39.654-2.683 2.714-2.012 7.086-5.63 8.95-8.39.456-.67-.006-1.071-.682-.862-5.052 1.568-12.701 1.572-16.594 1.47 3.15-3.17 6.698-9.055 6.544-13.276-.02-.546-.28-.65-.743-.413-7.209 3.735-9.914 5.237-18.321 5.237-4.953 0-15.064-5.592-18.075-5.013l-.189.613z"/><path d="M399.473 405.15c-11.826.086-21.8-2.068-30.125-3.945-6.9-1.557-14.935-3.336-22.009-2.396-5.153.69-7.256 2.965-6.376 8.16 1.096 6.458 2.06 12.969 3.233 19.405.676 3.715 2.655 4.213 6.146 3.596 5.026-.888 21.147-4.493 24.768.086 3.476 4.391.089 7.558-4.749 7.639-.677.01-.458-.461-.23-.461 4.628 0 7.886-2.679 4.896-6.785-3.15-4.328-18.232-1.155-24.374.28-3.906.911-6.503.409-7.221-4.386-.99-6.609-1.6-11.15-3.694-19.695-3.543-14.446 22.237-7.754 29.664-6.028 10.125 2.35 18.577 3.862 30.584 4.221 12.03-.36 20.483-1.87 30.607-4.221 7.425-1.726 33.207-8.418 29.667 6.028-2.097 8.546-2.706 13.086-3.696 19.695-.718 4.795-3.316 5.297-7.221 4.386-6.143-1.435-21.224-4.608-24.374-.28-2.99 4.106.268 6.785 4.896 6.785.228 0 .446.47-.23.46-4.836-.08-8.225-3.247-4.75-7.638 3.621-4.579 19.742-.974 24.769-.086 3.49.617 5.47.12 6.146-3.596 1.171-6.436 2.137-12.947 3.233-19.405.88-5.195-1.223-7.47-6.379-8.16-7.074-.94-15.107.84-22.006 2.396-8.324 1.877-18.3 4.03-30.126 3.945h-1.049z"/></g><path d="M361.531 417.226c-1.62-.139-4.225-.284-4.225-.284l-.945-12.882 3.13.373.651 10.052c.318.02 1.723.112 2.66.215 1.065.115 2.784.386 2.784.386l.197 2.587s-2.626-.308-4.252-.447zm6.759.721l-.706-12.422 3.155.484.705 12.421zm9.52-5.768l1.071.183c1.597.272 1.72-.278 1.709-.949-.017-.81-.393-1.308-2.006-1.584l-.82-.14.046 2.49zm.114 4.938l1.492.255c1.739.295 2.162-.027 2.145-.899-.019-.999-.62-1.599-2.497-1.918l-1.193-.204.053 2.766zm1.834 2.765l-4.999-.853-.226-12.271 4.495.766c3.086.525 4.751 1.879 4.794 4.21.017.975-.533 1.622-1.135 1.971.868.484 2.101 1.593 2.132 3.219.042 2.28-1.343 3.591-5.061 2.958zm11.772 1.684c-1.671-.158-4.34-.53-4.34-.53l-.122-6.182-.12-6.207 7.122.74.022 1.22.025 1.24-3.982-.414.05 2.549 4.186.433.046 2.305-4.186-.434.049 2.62c.318.05 1.75.27 2.712.356 1.082.097 2.857.134 2.857.134l.047 2.463s-2.698-.135-4.366-.293zm10.388-6.338c1.663-.029 2.392-.737 2.371-1.87-.021-1.188-.536-1.687-2.043-1.66l-1.395.023.061 3.524 1.006-.017zm6.962 6.418c-2.457-.081-3.779-1.313-5.075-2.766l-1.37-1.536c-.195.016-.405.02-.617.024l-.812.015.073 4.33-3.08.05-.213-12.386 4.782-.083c2.744-.048 4.769 1.183 4.818 3.938.024 1.343-.593 2.536-1.85 3.31l1.19 1.244c.669.693 1.416 1.154 2.727 1.47l-.573 2.39zm.111-9.962l-.015-2.45 10.951-1.511.015 2.452-3.904.538.059 9.887-3.144.432-.059-9.886zm17.632-2.489a193.266 193.266 0 01-1.18 4.023c.86-.086 1.761-.24 2.587-.487-.371-1.196-.736-2.39-1.077-3.598l-.33.062zm3.35 8.996l-1.216-3.324c-.645.237-1.34.376-2.04.482-.706.106-1.417.178-2.091.282l-1.33 3.815-3.184.596 3.85-10.625-1.349.253-.025-2.447c2.847-.466 5.609-.985 8.364-1.57l.112 2.431-1.36.255 3.549 9.238-3.28.614zm8.327-.791c-2.023.035-3.092-.314-4.013-.806l.861-2.296c1.148.384 1.816.544 3.158.521 1.476-.027 2.199-.49 2.21-1.16.007-.449-.335-.763-.919-1.047-.584-.284-1.362-.519-2.14-.822-1.562-.609-3.167-1.503-3.13-3.64.044-2.425 2.752-3.662 4.926-3.7 1.954-.035 3.05.365 4 .766l-.79 2.226c-.962-.261-1.927-.486-3.163-.463-1.22.02-1.932.654-1.94 1.107-.008.351.335.631.938.915.591.279 1.384.538 2.175.87 1.587.663 3.217 1.628 3.182 3.634-.05 2.76-2.82 3.852-5.355 3.895z"/></svg>