<svg xmlns="http://www.w3.org/2000/svg" width="100" height="100"><path d="M31.25 17.819L13 28.458v43.081l18.5 10.68L50 92.9l18.5-10.681L87 71.539V28.433L68.856 17.967C58.877 12.21 50.439 7.428 50.106 7.34c-.333-.088-8.818 4.627-18.856 10.479m2.5 4.364L18 31.289v37.426l16 9.192 16 9.192 16-9.192 16-9.192v-37.43l-15.913-9.143c-8.753-5.028-16.065-9.125-16.25-9.103-.186.021-7.424 4.136-16.087 9.144M49 24.434c0 2.51-.152 2.566-7 2.566h-7v10.592l7.108 6.364 7.107 6.364-7.107 6.423L35 63.166V74h7c6.333 0 7 .19 7 2 0 1.556.667 2 3 2s3-.444 3-2c0-1.778.667-2 6-2h6v-9H46.55l7.227-7.275 7.226-7.275-7.001-6.948C50.151 39.68 47 36.204 47 35.777 47 35.35 51.5 35 57 35h10v-8h-5.93c-5.389 0-5.96-.206-6.25-2.25-.229-1.611-1.101-2.34-3.07-2.566-2.368-.273-2.75.04-2.75 2.25" fill-rule="evenodd"/></svg>