<svg xmlns="http://www.w3.org/2000/svg" width="100" height="100"><path d="M40.618 11.048c-6.328 1.59-15.334 6.92-19.706 11.663-2.245 2.436-5.507 7.436-7.247 11.109-2.866 6.049-3.165 7.582-3.165 16.232 0 9.015.21 9.976 3.735 17.108 4.498 9.102 10.288 14.771 19.585 19.175C39.861 89.197 41.409 89.5 50 89.5s10.139-.303 16.18-3.165c9.297-4.404 15.087-10.073 19.585-19.175C89.294 60.02 89.5 59.075 89.5 50s-.206-10.02-3.735-17.16c-6.757-13.673-18.762-21.696-33.516-22.398-4.262-.203-9.496.07-11.631.606m2.132 3.668c-2.979.451-3.468 1.451-1.5 3.064.906.742 1.745.363 3.047-1.378.988-1.321 1.663-2.335 1.5-2.252-.163.082-1.534.337-3.047.566m13.094 1.873c1.196 1.6 2.004 1.931 2.906 1.191 1.977-1.621 1.478-2.52-1.656-2.979-2.847-.418-2.872-.382-1.25 1.788M46.2 18.2c-2.828 2.828-.249 8.8 3.8 8.8 2.233 0 5-2.566 5-4.637 0-4.594-5.681-7.282-8.8-4.163m-16.79 2.626c-2.151 1.562-4.53 3.594-5.289 4.515-1.279 1.553-1.17 1.565 1.5.173 1.584-.826 4.35-1.504 6.148-1.508 3.059-.006 3.227-.183 2.609-2.756-.362-1.512-.749-2.866-.859-3.007-.11-.141-1.959 1.021-4.109 2.583m7.036-1.739c-1.03 1.668 1.287 3.58 2.667 2.2C40.267 20.133 39.545 18 38 18c-.485 0-1.184.489-1.554 1.087m24 0c-1.03 1.668 1.287 3.58 2.667 2.2C64.267 20.133 63.545 18 62 18c-.485 0-1.184.489-1.554 1.087m5.554.275c0 .811-.273 2.186-.607 3.056-.479 1.248.101 1.583 2.75 1.588 1.846.004 4.707.709 6.357 1.569l3 1.562-2.705-2.826c-1.488-1.555-4.075-3.636-5.75-4.625C66.508 18.187 66 18.133 66 19.362m-8.284 4.617c-.566 2.163.006 2.484 2.081 1.167 1.049-.664 1.024-1.05-.128-2.005-1.143-.949-1.529-.784-1.953.838M39.5 24c-.34.55-.403 1-.141 1 .263 0 1.194.275 2.071.611 1.166.448 1.427.18.974-1-.7-1.824-1.987-2.095-2.904-.611m-12.082 3.969c-6.772 2.74-9.888 13.424-5.782 19.829 3.613 5.636 12.315 7.83 18.458 4.653 9.042-4.675 9.042-19.227 0-23.902-3.221-1.666-9.304-1.944-12.676-.58m31.881.931c-8.577 5.389-8.227 18.983.607 23.551C68.082 56.68 79.387 51.37 80.029 43c.461-5.998-.169-8.182-3.364-11.669-2.899-3.163-4.045-3.692-8.75-4.041-4.188-.31-6.14.054-8.616 1.61m-10.94 3.985c1.975 3.346 2.007 3.358 2.859 1.053.475-1.281 1.256-2.805 1.737-3.384.587-.707-.356-1.054-2.859-1.054h-3.734l1.997 3.385m-33.669 9.99c-.379 1.856-.69 4.984-.69 6.95 0 2.781.267 3.308 1.2 2.375.66-.66 2.065-1.2 3.122-1.2 1.529 0 1.686-.285.769-1.391-.635-.765-1.73-3.352-2.433-5.75L15.38 39.5l-.69 3.375m68.914-.375c-.376 1.65-1.32 4.237-2.097 5.75-1.281 2.492-1.249 2.75.34 2.75.964 0 2.293.54 2.953 1.2.933.933 1.178.211 1.1-3.25-.055-2.448-.44-5.575-.856-6.95l-.757-2.5-.683 3M49 46.365c0 .751-.933 2.551-2.073 4L44.855 53h10.29l-2.072-2.635c-1.14-1.449-2.073-3.249-2.073-4 0-.751-.45-1.365-1-1.365s-1 .614-1 1.365m-32.554 7.722c-.873 1.412 1.055 3.34 2.467 2.467 1.586-.98 1.33-3.554-.354-3.554-.793 0-1.743.489-2.113 1.087m63.727.572c.421 2.189 3.327 2.498 3.327.355 0-.818-.828-1.646-1.841-1.841-1.336-.257-1.743.15-1.486 1.486M22 55.406c0 .933.702 1.223 2.085.862 1.584-.415 1.764-.748.75-1.391-1.944-1.232-2.835-1.066-2.835.529m53.165-.529c-1.014.643-.834.976.75 1.391 1.383.361 2.085.071 2.085-.862 0-1.595-.891-1.761-2.835-.529m-32.333 2.832C39.533 59.755 36 65.853 36 69.5c0 3.741 3.601 9.833 6.999 11.84 3.603 2.129 10.399 2.129 14.002 0C60.399 79.333 64 73.241 64 69.5c0-3.741-3.601-9.833-6.999-11.84-3.581-2.116-10.72-2.091-14.169.049m-11.837.541c.59.688 1.62 2.036 2.289 2.997 1.111 1.597 1.363 1.489 2.919-1.25L37.907 57h-3.993c-3.1 0-3.753.279-2.919 1.25m32.802 1.747c1.556 2.739 1.808 2.847 2.919 1.25.669-.961 1.699-2.309 2.289-2.997.834-.971.181-1.25-2.919-1.25h-3.993l1.704 2.997M15 58.435c0 .239.513 1.702 1.14 3.25l1.141 2.815.679-2.5c.389-1.43.222-2.815-.39-3.235-1.194-.819-2.57-.996-2.57-.33m67.43.33c-.612.42-.779 1.805-.39 3.235l.679 2.5 1.141-2.815c1.59-3.927 1.2-4.725-1.43-2.92M22.75 60.08c-2.01 1.171-2.349 5.921-.55 7.72 2.016 2.016 5.637 1.379 7.392-1.3 1.517-2.316 1.517-2.684 0-5-1.731-2.642-3.953-3.103-6.842-1.42m47.807 1.143c-2.017 2.879-1.963 4.1.272 6.122C74.544 70.707 79 68.793 79 63.835c0-4.724-5.724-6.495-8.443-2.612m-38.86 8.17c-.409 1.041-.508 2.129-.221 2.417.913.912 1.715-.583 1.333-2.482-.35-1.74-.404-1.737-1.112.065m35.318.357C67.007 70.987 67.45 72 68 72c1.253 0 1.253-1.061 0-3-.784-1.213-.972-1.069-.985.75m-43.844 3.932c1.644 1.75 2.399 2.022 2.998 1.079 1.31-2.064.982-2.512-2.182-2.976l-3.014-.443 2.198 2.34m52.579-1.966c-2.891.438-3.231.978-1.919 3.045.595.937 1.405.616 3.159-1.25 1.297-1.381 2.168-2.444 1.934-2.361-.233.082-1.661.337-3.174.566M29 74c-1.181.73-1.23 1.17-.242 2.158.966.966 1.509.975 2.442.042 1.622-1.622-.195-3.439-2.2-2.2m39.419.131c-.852 1.379 1.105 3.281 2.494 2.423.598-.37 1.087-1.047 1.087-1.506 0-1.33-2.871-2.066-3.581-.917M32.112 78.11l-2.341 1.896 5.679 2.6c5.419 2.481 9.06 2.808 4.582.411-1.176-.629-2.913-2.418-3.859-3.973-1.714-2.819-1.729-2.822-4.061-.934M65 76.977c0 .708-1.672 2.864-3.715 4.791-3.249 3.064-3.406 3.407-1.25 2.739 2.885-.894 10.318-4.559 9.812-4.837-.191-.105-1.36-1.044-2.597-2.086-1.52-1.279-2.25-1.476-2.25-.607" fill-rule="evenodd"/></svg>