<svg xmlns="http://www.w3.org/2000/svg" width="100" height="100"><path d="M40.618 11.048c-6.328 1.59-15.334 6.92-19.706 11.663-2.245 2.436-5.507 7.436-7.247 11.109-2.866 6.049-3.165 7.582-3.165 16.232 0 9.015.21 9.976 3.735 17.108 4.498 9.102 10.288 14.771 19.585 19.175C39.861 89.197 41.409 89.5 50 89.5s10.139-.303 16.18-3.165c9.297-4.404 15.087-10.073 19.585-19.175C89.294 60.02 89.5 59.075 89.5 50s-.206-10.02-3.735-17.16c-6.757-13.673-18.762-21.696-33.516-22.398-4.262-.203-9.496.07-11.631.606m9.186 20.993c-4.207 2.221-7.997 6.875-9.67 11.871-.629 1.877-1.011 3.544-.85 3.705.16.161 5.528.425 11.927.588 10.524.267 11.905.094 14.462-1.807 5.121-3.808 5.62-10.183 1.126-14.37-2.929-2.73-11.815-2.723-16.995.013M37.313 52.132c-5.946 1.665-8.905 8.01-6.15 13.184 1.909 3.583 4.052 4.619 9.627 4.652 9.007.054 16.151-5.144 19.076-13.88.629-1.877 1.028-3.502.889-3.612-.981-.767-20.887-1.059-23.442-.344" fill-rule="evenodd"/></svg>