<svg version="1.0" xmlns="http://www.w3.org/2000/svg" width="2666.667" height="2666.667" viewBox="0 0 2000 2000"><path d="M954 1C841 6.6 733 29.9 630.5 70.7 389.8 166.6 195 352.8 88 589.5c-23.5 51.9-45.1 114.6-59 171-55.8 227.4-30.2 468.9 71.9 677 14 28.7 26.4 51.6 40.1 74.5 124 207.1 318.1 362.7 546 437.8 154.2 50.8 318.6 63.2 480.3 36.1 263.4-44 500.9-195 654.3-415.9 170.5-245.6 222-555 140.4-843.5-96.6-341.1-370.7-607.9-714.5-695.5C1187.6 15.7 1131 6.8 1063 2c-19.8-1.5-87.6-2-109-1zm311 618.7c31.1 10.6 43.8 46.6 26.2 73.9-6.9 10.6-18.7 18.7-31 21.3-3.7.8-55 1.1-175.2 1.1-114.7 0-172.4.3-177.7 1.1-36.6 5-68.6 24.7-89 54.9-8.4 12.4-16.6 33.2-19.4 49-2.1 11.8-1.6 33.5 1 45.9 10.8 51.2 51.2 90 102.7 98.6 8.7 1.4 16.8 1.6 64.4 1.2 39.1-.3 56.5-.8 61.7-1.7 5.8-1.1 8.3-1.1 12.5-.1 2.9.7 15.8 1.6 28.7 2.1 38.4 1.6 55.4 4.5 82.1 14.2 61.4 22.2 112.6 74.3 134 136.4 8.9 25.7 12.3 46.9 12.3 74.9-.1 20.5-1.6 33.4-5.9 51.4-19.7 80.7-82 144.2-161.6 164.5-29.1 7.5-14.6 7-208.3 7.3-127.2.3-175.8.1-180.8-.8-23.8-3.9-40.7-24.1-40.7-48.4 0-18.9 9.3-34.5 26-43.4 8.3-4.4 17.1-6.1 32.7-6.1 7.7 0 13.4-.4 13.8-1 .8-1.3 20.5-1.3 20.5 0 0 .7 48.4 1 151.3.8l151.2-.3 10-2.7c24.3-6.6 42.7-16.9 59-33.3 65.5-65.4 40.5-176.6-46.7-207.3-19.2-6.8-13.5-6.5-119.8-7.2-92.7-.6-97-.7-108.5-2.8-25-4.4-42.2-10-63-20.2-67.7-33.3-113.2-95.7-124-170.5-2.1-14.2-2.4-44.6-.6-57.5 3.3-23.9 10.4-48.7 19.3-68 17-36.4 45.6-69.5 79.9-92.3 32-21.2 69-33.8 107.8-36.7 5.8-.4 86.7-.7 179.6-.6l169 .1 6.5 2.2zm-49.7 99c-2.9.2-7.7.2-10.5 0-2.9-.2-.6-.3 5.2-.3s8.1.1 5.3.3zm2.7 3.3c0 .6-4.2 1-10.6 1-6.7 0-10.3-.4-9.9-1 .3-.6 5-1 10.6-1 5.9 0 9.9.4 9.9 1zm6.9 4.6c.2.2-9 .3-20.5.2-15.7-.1-18.8-.3-12.4-.8 8-.6 32-.2 32.9.6zm-7.4 3.3c4.1.5-.9.8-15.5.8-15.6 0-19.4-.2-13.7-.7 4.3-.4 8.1-1.1 8.5-1.5.7-.7 8.3-.2 20.7 1.4zm-8.1 3.6c-.4.9-2 1.5-3.8 1.6-3 .1-3 .1-.6.9 1.6.5-1.4.8-8 .8-7.1-.1-9.4-.3-7-.8 3.3-.7 3.3-.7.6-.9-2.4-.1-2.7-.3-1.6-1.6 1-1.1 3.6-1.5 11.1-1.5 8.3 0 9.7.2 9.3 1.5zm-4.4 6c-.9 1.1-3.5 1.5-10.6 1.5-7.7 0-9.4-.3-9.4-1.5s1.8-1.5 10.6-1.5c9.4 0 10.5.2 9.4 1.5zm-2.2 3.8c-7.6.6-15.2.6-21.5 0-9.1-.9-8.2-1 11.7-1 21.3 0 21.4 0 9.8 1zm-2.6 4c-7.3.6-14.8.6-21.5 0-9.6-.9-9-1 11.3-1 21 0 21.2 0 10.2 1zm-8 3.9c-4.1.7-8 .6-11 0-4.1-.8-3.4-1 6.3-1 10.8.1 10.9.1 4.7 1zm7.3 2.8c3.9.4-1.5.7-15.5.7-12.9 0-18.9-.3-15-.7 9-.9 23.3-.9 30.5 0zm-14.7 3.7c-1.5.2-4.2.2-6 0-1.8-.2-.6-.4 2.7-.4 3.3 0 4.8.2 3.3.4zm.5 4c-2.9.2-7.8.2-11 0s-.8-.3 5.2-.3c6.1 0 8.7.1 5.8.3zm-.8 3.3c1.9.5-.7.8-7.5.8s-9.4-.3-7.5-.8c1.7-.4 5-.8 7.5-.8s5.9.4 7.5.8zm-6.7 3.7c-1.6.2-4 .2-5.5 0-1.6-.2-.3-.4 2.7-.4s4.3.2 2.8.4zm-1 4c-2.6.2-7.1.2-10 0-2.9-.2-.8-.3 4.7-.3s7.9.1 5.3.3zm2.4 3.6c-7.3.6-14.8.6-21 0-9-.9-8.2-1 11.3-1 20.7 0 20.8 0 9.7 1zm-1.4 3.4c-6 .2-15.6.2-21.5 0-6-.1-1.1-.3 10.7-.3 11.8 0 16.7.2 10.8.3zm-3.8 3.3c0 .6-4.2 1-10.6 1-6.7 0-10.3-.4-9.9-1 .3-.6 5-1 10.6-1 5.9 0 9.9.4 9.9 1zm2.5 4c3.9.4-1.5.7-15.5.7-12.6 0-19-.3-15.5-.7 8.3-.9 23.8-.9 31 0zm-12.5 3c0 .5 3.5 1.1 7.8 1.3 4.2.1-2 .3-13.8.3s-17.6-.2-12.7-.3c4.8-.2 8.7-.8 8.7-1.3 0-.6 2.3-1 5-1 2.8 0 5 .4 5 1zm-4.2 3.7c-1.6.2-4 .2-5.5 0-1.6-.2-.3-.4 2.7-.4s4.3.2 2.8.4zm3 2c-2.1.2-3.8.8-3.8 1.4 0 .5-2.3.9-5.1.9s-4.8-.4-4.4-.9c.3-.5-.7-1.2-2.2-1.4-1.6-.2 2.2-.4 8.2-.4 6.1 0 9.3.2 7.3.4zm-1.2 4.8c-1.1 1.1-3.9 1.5-11 1.5-8.1 0-9.4-.2-9-1.5.5-1.2 2.7-1.5 11.1-1.5 9.3 0 10.3.2 8.9 1.5zm8.2 3.1c-.7.6-40 .6-40.6-.1-.3-.3 8.8-.5 20.3-.5s20.6.2 20.3.6zm-13.1 4.7c-7.1.6-14.4.6-21 0-9.7-.9-9.1-1 10.8-1 20.4 0 20.7 0 10.2 1zm-7.4 3.4c-2.9.2-7.8.2-11 0s-.8-.3 5.2-.3c6.1 0 8.7.1 5.8.3zm2.2 3.3c-.4.6-5.2 1-11.3 1-7.3 0-10.2-.3-9.2-1 2-1.3 21.3-1.3 20.5 0zm-8.5 4c0 .5-2.2 1-5 1-2.7 0-5-.5-5-1 0-.6 2.3-1 5-1 2.8 0 5 .4 5 1zm-4.2 3.7c-1.6.2-4 .2-5.5 0-1.6-.2-.3-.4 2.7-.4s4.3.2 2.8.4zm-.8 3.3c0 .5-2.3 1-5.1 1-3.1 0-4.8-.4-4.4-1 .3-.6 2.6-1 5.1-1 2.4 0 4.4.4 4.4 1zm-4.2 3.7c-1.6.2-4 .2-5.5 0-1.6-.2-.3-.4 2.7-.4s4.3.2 2.8.4zm4.7 3.3c-.3.6-5 1-10.6 1-6.4 0-9.8-.4-9.4-1 .3-.6 5-1 10.6-1 6.4 0 9.8.4 9.4 1zm-1.7 3.7c-6 .2-15.6.2-21.5 0-6-.1-1.1-.3 10.7-.3 11.8 0 16.7.2 10.8.3zm1.7 3.3c3.9.5-1.2.7-15 .7-12.4 0-18.5-.3-15-.7 8.3-.9 22.8-.9 30 0zm-7.5 4c0 .6-4.2 1-10.6 1-6.7 0-10.3-.4-9.9-1 .3-.6 5-1 10.6-1 5.9 0 9.9.4 9.9 1zm-2.5 2.9c-.3.6 1.7 1.2 4.7 1.4 2.9.2-4.1.4-15.7.4-23.7.1-24.7-.4-3.5-1.6 8-.4 14.6-.9 14.8-1 .2 0 .1.3-.3.8zm-5.5 4c-2.6.4-1.3.7 5 1.1 5.1.4-.2.6-13.5.6-13.5 0-18.5-.2-13-.5 5.3-.4 8-.9 6.5-1.2-1.4-.4 2.2-.6 8-.6s8.9.3 7 .6zm-7.2 3.8c-1.6.2-4 .2-5.5 0-1.6-.2-.3-.4 2.7-.4s4.3.2 2.8.4zm8.5 2c-5.1.2-9.3.8-9.3 1.3 0 .6-2.2 1-5 1-2.7 0-5-.4-5-1 0-.5-3.5-1.1-7.7-1.3-4.3-.1 2.1-.3 14.2-.3s17.8.2 12.8.3zm-10.6 4.6c-3.9.6-7.6.6-11 0-4.8-1-4.3-1 5.8-1 10.5 0 10.8 0 5.2 1zm2.6 4c-7.2.6-15 .6-21.5 0-9.7-.9-9-1 11.2-1 20.9 0 21.2 0 10.3 1zm-3.5 4c-7.6.6-15.2.6-21.5 0-9.1-.9-8.2-1 11.7-1 21.3 0 21.4 0 9.8 1zm2.7 2.7c4 .5-.9.7-14.5.7-11.9 0-18.2-.3-15-.7 7.5-.9 22.2-.9 29.5 0zm-8 4c-.3.6-5 1-10.6 1-6.4 0-9.8-.4-9.4-1 .3-.6 5-1 10.6-1 6.4 0 9.8.4 9.4 1zm-7.2 3.7c-2.9.2-7.7.2-10.5 0-2.9-.2-.6-.3 5.2-.3s8.1.1 5.3.3zm-3.1 3.6c-4.2.7-7.6.6-10.5 0-3.7-.9-2.9-1.1 6.3-1h10.5l-6.3 1zm-1.4 3.4c-2.6.2-7.1.2-10 0-2.9-.2-.8-.3 4.7-.3s7.9.1 5.3.3zm-3.3 3.3c-.3.5-2.9 1-5.6 1-3.1 0-4.8-.4-4.4-1 .3-.6 2.9-1 5.6-1 3.1 0 4.8.4 4.4 1zm2.5 4c-2 1.3-20 1.3-20 0 0-.6 4.2-1 10.8-1 7.3 0 10.2.3 9.2 1zm7.9 3.6c.2.2-9 .3-20.5.2-15.7-.1-18.8-.3-12.4-.8 8-.6 32-.2 32.9.6zm-7.9 3.4c4.3.4-.8.7-15 .7-12.5 0-19-.3-15.5-.7 8.2-.9 22.6-.9 30.5 0zm-11.1 2.6c6.3 1.3 2.8 2.4-7.6 2.4-6.6 0-10.3-.4-9.7-.9 1.7-1.7 12-2.5 17.3-1.5zm.5 4.9c-.5 1.2-2.7 1.5-11.1 1.5-9.3 0-10.4-.2-9.3-1.5 1-1.1 3.6-1.5 11.1-1.5 8.3 0 9.7.2 9.3 1.5zm-5.4 3.5c-2.8.6-1.7.8 5 1.1 8 .3 8.2.3 2.3.6-3.5.2-6.3.8-6.3 1.3 0 .6-4.5 1-10.6 1-6.3 0-10.3-.4-9.9-.9.3-.6-1.7-1.2-4.7-1.4-3.9-.2-2.8-.4 3.7-.6 6.3-.2 8.2-.5 6.5-1.1-1.6-.5 1.1-.8 7.5-.8 6.9.1 8.9.3 6.5.8zm1.8 5.7c-4.9.2-8.8.8-8.8 1.3 0 1.2-9.7 1.3-10.4.1-.3-.4-3.3-.9-6.8-1-3.4-.1-6.4-.3-6.6-.6-.3-.3 8.9-.4 20.4-.3 11.5.1 17 .4 12.2.5zm-11 4.5c-3.8.7-7.4.7-10.5 0-4.3-.9-3.8-1 5.7-1 10.1.1 10.3.1 4.8 1zm1.7 3.8c-.3.6-4.8 1-10.1 1-5.6 0-9.4-.4-9.4-1s4-1 10.1-1c6.4 0 9.8.4 9.4 1zm-1.2 3.7c-5.6.2-15.1.2-21 0-5.9-.1-1.3-.3 10.2-.3 11.6 0 16.4.2 10.8.3zm-5.3 3.3c1.6.5-1.4.8-8 .8-7.1-.1-9.4-.3-7-.8 4.7-1 11.9-1 15 0zm-.5 4c-.4.6-5.2 1-11.3 1-7.3 0-10.2-.3-9.2-1 2-1.3 21.3-1.3 20.5 0zm-2.5 3c0 .6-4 1-10.1 1-6.4 0-9.8-.4-9.4-1 .3-.6 4.8-1 10.1-1 5.6 0 9.4.4 9.4 1zm-3 4c0 .6-4 1-10.1 1-6.4 0-9.8-.4-9.4-1 .3-.6 4.8-1 10.1-1 5.6 0 9.4.4 9.4 1zm-6.7 3.7c-2.9.2-7.7.2-10.5 0-2.9-.2-.6-.3 5.2-.3s8.1.1 5.3.3zm2.3 3.4c-5.9.4-15.4.4-21 0-8.7-.7-7.1-.8 10.9-.8 18.7 0 19.8.1 10.1.8zm-7.3 3.6c-2.9.2-7.7.2-10.5 0-2.9-.2-.6-.3 5.2-.3s8.1.1 5.3.3zm6.2 3.3c4 .5-.9.7-14.5.7-12.2 0-18.1-.3-14.5-.7 8.3-.9 21.8-.9 29 0zm3.4 4.6c.2.2-9 .3-20.5.2-15.4-.1-18.7-.3-12.4-.8 8.1-.6 32-.1 32.9.6zm-92.1 107.1c-2.6.2-7.1.2-10 0-2.9-.2-.8-.3 4.7-.3s7.9.1 5.3.3zm7.2 3.3c-8.5 1-23.1 1-30 0-3.6-.5 1.8-.7 15.5-.7 14.2 0 18.9.2 14.5.7zm-6.2 3.7c-6 .2-15.6.2-21.5 0-6-.1-1.1-.3 10.7-.3 11.8 0 16.7.2 10.8.3zm-3.8 3.3c0 .6-4 1-10.1 1-6.4 0-9.8-.4-9.4-1 .3-.6 4.8-1 10.1-1 5.6 0 9.4.4 9.4 1zm7 4.4c.8.2-8.2.3-20 .3-11.8-.1-18.7-.2-15.2-.4 3.4-.2 6.2-.7 6.2-1.1 0-.7 25.9.4 29 1.2zm-17 2.6c0 .5 3.5 1.1 7.8 1.3 4.2.1-1.7.3-13.3.3-11.5 0-17.3-.2-12.7-.3 4.5-.2 8.2-.8 8.2-1.3 0-.6 2.3-1 5-1 2.8 0 5 .4 5 1zm-4.7 3.7c-1.3.2-3.5.2-5 0-1.6-.2-.5-.4 2.2-.4 2.8 0 4 .2 2.8.4zm3 2c-1.8.2-3.3.8-3.3 1.4 0 .5-2.3.9-5.1.9s-4.8-.4-4.4-.9c.3-.5-.7-1.2-2.2-1.4-1.6-.2 1.9-.4 7.7-.4 5.8 0 9 .2 7.3.4zm-.4 4.5c-1.4 1.5-19.9 1.2-19.9-.3 0-.5 4.7-.9 10.5-.9 8.4 0 10.3.3 9.4 1.2zm-2.1 4.1c-7 .6-14.6.6-21.5 0-10.4-1-9.9-1 10.7-1s21.1 0 10.8 1zm-3 4c-7 .6-14.6.6-21.5 0-10.4-1-9.9-1 10.7-1s21.1 0 10.8 1zm-7.5 3.4c-2.9.2-7.8.2-11 0s-.8-.3 5.2-.3c6.1 0 8.7.1 5.8.3zm2.2 3.3c-.4.6-5.2 1-11.3 1-7.3 0-10.2-.3-9.2-1 2-1.3 21.3-1.3 20.5 0zm-8.3 4.3c-4.2.7-7.6.6-10.5 0-3.7-.9-2.9-1.1 6.3-1h10.5l-6.3 1zm-1.5 3c-3.9.6-7.6.6-11 0-4.8-1-4.3-1 5.8-1 10.5 0 10.8 0 5.2 1zm-2.7 3.7c0 .5-2.5 1-5.6 1-3.4 0-5.3-.4-4.9-1 .3-.6 2.8-1 5.6-1 2.7 0 4.9.4 4.9 1zm-2.7 3.7c-2.9.2-7.7.2-10.5 0-2.9-.2-.6-.3 5.2-.3s8.1.1 5.3.3zm2.2 3.3c-.3.6-5 1-10.6 1-6.4 0-9.8-.4-9.4-1 .3-.6 5-1 10.6-1 6.4 0 9.8.4 9.4 1zm-2.2 3.7c-5.7.2-14.9.2-20.5 0-5.7-.1-1.1-.3 10.2-.3 11.3 0 15.9.2 10.3.3zm2.2 3.3c3.9.4-1.5.7-15.5.7-12.9 0-18.9-.3-15-.7 9-.9 23.3-.9 30.5 0zm-7.5 4c0 .6-4.2 1-10.6 1-6.7 0-10.3-.4-9.9-1 .3-.6 5-1 10.6-1 5.9 0 9.9.4 9.9 1zm-2.6 3.5c-.5 1.2-2.7 1.5-11.1 1.5-9.3 0-10.4-.2-9.3-1.5 1-1.1 3.6-1.5 11.1-1.5 8.3 0 9.7.2 9.3 1.5zm-5.4 3.4c-2.6.4-1.3.7 5 1.1 5.1.4-.2.6-13.5.6-13.5 0-18.5-.2-13-.5 5.3-.4 8-.9 6.5-1.2-1.4-.4 2.2-.6 8-.6s8.9.3 7 .6zm-7.2 3.8c-1.6.2-4 .2-5.5 0-1.6-.2-.3-.4 2.7-.4s4.3.2 2.8.4zm9 2c-4.9.2-8.8.8-8.8 1.3 0 .6-2.5 1-5.5 1s-5.5-.4-5.5-1c0-.5-3.5-1.1-7.7-1.3-4.3-.1 2.1-.3 14.2-.3s18.1.2 13.3.3zm-11.1 4.6c-3.9.6-7.6.6-11 0-4.8-1-4.3-1 5.8-1 10.5 0 10.8 0 5.2 1zm2 4c-7.1.6-14.4.6-21 0-9.7-.9-9.1-1 10.8-1 20.4 0 20.7 0 10.2 1zm-3 4c-7.1.6-14.4.6-21 0-9.7-.9-9.1-1 10.8-1 20.4 0 20.7 0 10.2 1zm2.3 2.7c3.6.5-1.6.7-15 .7-12.3 0-18.1-.3-14.5-.7 8.4-.9 23-.9 29.5 0zm-7.5 4c-.3.6-5 1-10.6 1-6.4 0-9.8-.4-9.4-1 .3-.6 5-1 10.6-1 6.4 0 9.8.4 9.4 1zm-2.5 4c0 .6-4.2 1-10.6 1-6.7 0-10.3-.4-9.9-1 .3-.6 5-1 10.6-1 5.9 0 9.9.4 9.9 1zm-7.8 3.3c-4.2.7-7.6.6-10.5 0-3.7-.9-2.9-1.1 6.3-1h10.5l-6.3 1zm-1.9 4c-3.6.7-7 .7-10.5 0-5-1-4.7-1 5.2-1s10.2 0 5.3 1zm-5.5 3.4c-1.6.2-4 .2-5.5 0-1.6-.2-.3-.4 2.7-.4s4.3.2 2.8.4zm5.2 3.3c-2 1.3-21.3 1.3-20.5 0 .4-.6 5.2-1 11.3-1 7.3 0 10.2.3 9.2 1zm-1.7 3.7c-5.6.2-15.1.2-21 0-5.9-.1-1.3-.3 10.2-.3 11.6 0 16.4.2 10.8.3zm1.7 3.3c4.3.4-.8.7-15 .7-12.5 0-19-.3-15.5-.7 8.2-.9 22.6-.9 30.5 0zm-8 4c0 .6-4.2 1-10.6 1-6.7 0-10.3-.4-9.9-1 .3-.6 5-1 10.6-1 5.9 0 9.9.4 9.9 1zm-2.6 3.5c-.5 1.2-2.6 1.5-10.5 1.5-8.3 0-9.7-.2-9.3-1.5.5-1.2 2.6-1.5 10.5-1.5 8.3 0 9.7.2 9.3 1.5zm-5.4 3.4c-2.7.4-1.6.7 4.5 1.1 4.8.4-.4.6-13 .6-13.5 0-17.8-.2-12-.6 5.9-.3 8-.7 6-1.1-1.6-.3 1.7-.6 7.5-.6s8.9.3 7 .6zm-3.7 3.8c-2.9.2-7.8.2-11 0s-.8-.3 5.2-.3c6.1 0 8.7.1 5.8.3zm5.7 2.6c-11.1 1.2-17.8 1.2-27 0-6.6-.9-4.8-1 14-1 19.2 0 20.6.1 13 1zm-10.8 3.9c-4.1.7-8 .6-11 0-4.1-.8-3.4-1 6.3-1 10.8.1 10.9.1 4.7 1zm2.3 3.8c-.3.6-5 1-10.6 1-5.9 0-9.9-.4-9.9-1s4.2-1 10.6-1c6.7 0 10.3.4 9.9 1zm-2.7 3.7c-6 .2-15.6.2-21.5 0-6-.1-1.1-.3 10.7-.3 11.8 0 16.7.2 10.8.3zm-5.3 3.2c3 .7 1.1.9-7.5.8-7.8 0-10.2-.2-7.5-.7 5.6-1 10.3-1 15-.1zm-.5 4.1c0 .6-4.2 1-10.7 1-7.4 0-10.3-.3-9.3-1 2-1.3 20-1.3 20 0zm-6.7 3.7c-2.9.2-7.7.2-10.5 0-2.9-.2-.6-.3 5.2-.3s8.1.1 5.3.3zm1.7 3.3c0 .6-4 1-10 1s-10-.4-10-1 4-1 10-1 10 .4 10 1zm-10.2 3.7c-1.6.2-4 .2-5.5 0-1.6-.2-.3-.4 2.7-.4s4.3.2 2.8.4zm5.7 3.4c-6 .4-15.2.4-20.5 0-8-.7-6.4-.8 11-.8 18.6 0 19.5.1 9.5.8zm-7.7 4.1c-3.8.7-7.4.7-10.5 0-4.3-.9-3.8-1 5.7-1 10.1.1 10.3.1 4.8 1zm11.2 3.2c.8.2-7.7.3-19 .3l-20.5-.1 15.5-.6c14.4-.5 20.3-.4 24 .4zm-1.1 4.2c.2.2-9.2.3-21 .2-16.3-.1-19.3-.3-12.4-.8 8.5-.6 32.5-.2 33.4.6zm-3.1 3.9c.3.3-9.1.4-20.9.3-12-.1-18.5-.4-14.9-.7 7.5-.7 35.1-.4 35.8.4zm-12.6 2.2c-.6.2-1 .9-.6 1.4.3.5-4 .9-10.2.9-9.3 0-10.5-.2-9.4-1.5 1-1.2 3.5-1.5 11.4-1.4 5.5 0 9.5.3 8.8.6zm-.7 6.6c-10 1.2-19 1.2-28 0-5.9-.9-3.7-1 14.5-1 19 0 20.6.1 13.5 1zm-2.5 4c-11.1 1.2-18.8 1.3-28 0-6.5-.9-4.7-1 14.5-1 19.5 0 21.1.1 13.5 1zm-11.3 4c-3.9.6-7.6.6-11 0-4.8-1-4.3-1 5.8-1 10.5 0 10.8 0 5.2 1zm1.8 3.7c-.3.6-4.8 1-10 1s-9.7-.4-10-1c-.4-.6 3.2-1 10-1s10.4.4 10 1zm-2.2 3.7c-5.6.2-15.1.2-21 0-5.9-.1-1.3-.3 10.2-.3 11.6 0 16.4.2 10.8.3zm-4.8 3.3c1.9.5-1 .8-8 .8-7.2-.1-9.8-.3-7.5-.8 4.6-1 11.7-1 15.5 0zm-3 4c1.3.5-1.8.8-8.5.8-7.1 0-9.4-.3-7-.8 4.9-1 13.1-1 15.5 0zm-6.7 2.7c-1.6.2-4 .2-5.5 0-1.6-.2-.3-.4 2.7-.4s4.3.2 2.8.4zm3.7 4.3c-.3.6-4.8 1-10.1 1-5.6 0-9.4-.4-9.4-1s4-1 10.1-1c6.4 0 9.8.4 9.4 1zm-12.7 7.7c-1.6.2-4 .2-5.5 0-1.6-.2-.3-.4 2.7-.4s4.3.2 2.8.4zm1.5 3c-2.9.2-7.8.2-11 0s-.8-.3 5.2-.3c6.1 0 8.7.1 5.8.3z"/></svg>