<svg xmlns="http://www.w3.org/2000/svg" width="815" height="483"><defs><linearGradient id="c" x1="100%" x2="26.715%" y1="-36.275%" y2="91.919%"><stop offset="0%" stop-color="#24EDF2"/><stop offset="100%" stop-color="#182A64" stop-opacity="0"/></linearGradient><linearGradient id="d" x1="77.936%" x2="41.649%" y1="88.909%" y2="24.069%"><stop offset="0%" stop-color="#24EDF2"/><stop offset="100%" stop-color="#0B2840" stop-opacity=".247"/></linearGradient><linearGradient id="e" x1="52.087%" x2="52.087%" y1="121.342%" y2="11.059%"><stop offset="0%" stop-color="#268F92"/><stop offset="100%" stop-color="#0E205D" stop-opacity="0"/></linearGradient><linearGradient id="f" x1="-22.272%" x2="80.544%" y1="-30.6%" y2="79.248%"><stop offset="0%" stop-color="#24EDF2"/><stop offset="100%" stop-color="#182A64" stop-opacity="0"/></linearGradient><linearGradient id="g" x1="16.61%" x2="50%" y1="0%" y2="78.348%"><stop offset="0%" stop-color="#24EDF2"/><stop offset="100%" stop-color="#182A64"/></linearGradient><linearGradient id="h" x1="44.118%" x2="47.639%" y1="-88.706%" y2="100%"><stop offset="0%" stop-color="#24EDF2"/><stop offset="100%" stop-color="#182A64" stop-opacity="0"/></linearGradient><filter id="a" width="101.5%" height="102.8%" x="-.7%" y="-1.4%" filterUnits="objectBoundingBox"><feGaussianBlur in="SourceGraphic" stdDeviation="2"/></filter><filter id="b" width="100%" height="100%" x="0%" y="0%" filterUnits="objectBoundingBox"><feGaussianBlur in="SourceGraphic"/></filter></defs><g fill="none" fill-rule="evenodd" transform="translate(4 -8)"><g fill="#50E3C2"><path d="M41.797 157.602a2.146 2.146 0 01-2.144-2.148c0-1.186.96-2.148 2.144-2.148 1.184 0 2.143.962 2.143 2.148 0 1.186-.96 2.148-2.143 2.148zm120.032-35.439a2.146 2.146 0 01-2.144-2.148c0-1.186.96-2.147 2.144-2.147 1.183 0 2.143.961 2.143 2.147 0 1.187-.96 2.148-2.143 2.148zM38.379 31.951a1.61 1.61 0 01-1.607-1.611c0-.89.72-1.61 1.608-1.61a1.61 1.61 0 011.607 1.61c0 .89-.72 1.61-1.607 1.61zM1.073 108.202a1.073 1.073 0 11.002-2.145 1.073 1.073 0 01-.002 2.145zm175.76-60.138a1.073 1.073 0 11.003-2.145 1.073 1.073 0 01-.002 2.145zm2.144 149.272a1.073 1.073 0 11.002-2.146 1.073 1.073 0 01-.002 2.146zM793.068 33.03a2.146 2.146 0 01-2.144-2.148c0-1.186.96-2.148 2.144-2.148 1.184 0 2.143.962 2.143 2.148 0 1.186-.96 2.148-2.143 2.148zm-20.363 156.789a2.146 2.146 0 01-2.143-2.148c0-1.186.96-2.148 2.143-2.148 1.184 0 2.144.962 2.144 2.148 0 1.186-.96 2.148-2.144 2.148zm32.687-64.434a1.61 1.61 0 01-1.607-1.611c0-.89.72-1.61 1.607-1.61a1.61 1.61 0 011.608 1.61c0 .89-.72 1.61-1.608 1.61zm-95.918-57.99a1.073 1.073 0 11.002-2.146 1.073 1.073 0 01-.002 2.145zM646.243 2.96a1.073 1.073 0 11.002-2.146 1.073 1.073 0 01-.002 2.146zm51.534 419.943a1.61 1.61 0 011.608 1.611c0 .89-.72 1.61-1.608 1.61a1.61 1.61 0 01-1.608-1.61c0-.89.72-1.61 1.608-1.61zm-1.072-121.354a1.61 1.61 0 011.608 1.611c0 .89-.72 1.611-1.608 1.611a1.61 1.61 0 01-1.608-1.61c0-.89.72-1.612 1.608-1.612zm-97.557 28.996a1.61 1.61 0 011.609 1.611 1.61 1.61 0 01-3.216 0c0-.89.72-1.61 1.607-1.61zm127.038 70.88a1.073 1.073 0 11-.002 2.145 1.073 1.073 0 01.002-2.145zm3.216-61.214a1.073 1.073 0 11-.002 2.146 1.073 1.073 0 01.002-2.146zm-142.582 49.4a1.073 1.073 0 11-.002 2.146 1.073 1.073 0 01.002-2.146zM87.782 402.5a1.61 1.61 0 011.608 1.611c0 .89-.72 1.611-1.608 1.611a1.61 1.61 0 01-1.608-1.61c0-.89.72-1.612 1.608-1.612zm17.153-127.797a1.61 1.61 0 011.608 1.61c0 .89-.72 1.612-1.608 1.612a1.61 1.61 0 01-1.608-1.611c0-.89.72-1.611 1.608-1.611zm-27.337 52.622a1.073 1.073 0 11-.002 2.146 1.073 1.073 0 01.002-2.146zm78.26 46.18a1.073 1.073 0 11-.003 2.145 1.073 1.073 0 01.002-2.146zm50.385 52.622a1.073 1.073 0 11-.001 2.146 1.073 1.073 0 01.001-2.146zm16.081-160.015a1.073 1.073 0 11-.002 2.146 1.073 1.073 0 01.002-2.146z" filter="url(#a)" transform="translate(0 12)"/><path d="M41.797 157.602a2.146 2.146 0 01-2.144-2.148c0-1.186.96-2.148 2.144-2.148 1.184 0 2.143.962 2.143 2.148 0 1.186-.96 2.148-2.143 2.148zm120.032-35.439a2.146 2.146 0 01-2.144-2.148c0-1.186.96-2.147 2.144-2.147 1.183 0 2.143.961 2.143 2.147 0 1.187-.96 2.148-2.143 2.148zM38.379 31.951a1.61 1.61 0 01-1.607-1.611c0-.89.72-1.61 1.608-1.61a1.61 1.61 0 011.607 1.61c0 .89-.72 1.61-1.607 1.61zM1.073 108.202a1.073 1.073 0 11.002-2.145 1.073 1.073 0 01-.002 2.145zm175.76-60.138a1.073 1.073 0 11.003-2.145 1.073 1.073 0 01-.002 2.145zm2.144 149.272a1.073 1.073 0 11.002-2.146 1.073 1.073 0 01-.002 2.146zM793.068 33.03a2.146 2.146 0 01-2.144-2.148c0-1.186.96-2.148 2.144-2.148 1.184 0 2.143.962 2.143 2.148 0 1.186-.96 2.148-2.143 2.148zm-20.363 156.789a2.146 2.146 0 01-2.143-2.148c0-1.186.96-2.148 2.143-2.148 1.184 0 2.144.962 2.144 2.148 0 1.186-.96 2.148-2.144 2.148zm32.687-64.434a1.61 1.61 0 01-1.607-1.611c0-.89.72-1.61 1.607-1.61a1.61 1.61 0 011.608 1.61c0 .89-.72 1.61-1.608 1.61zm-95.918-57.99a1.073 1.073 0 11.002-2.146 1.073 1.073 0 01-.002 2.145zM646.243 2.96a1.073 1.073 0 11.002-2.146 1.073 1.073 0 01-.002 2.146zm51.534 419.943a1.61 1.61 0 011.608 1.611c0 .89-.72 1.61-1.608 1.61a1.61 1.61 0 01-1.608-1.61c0-.89.72-1.61 1.608-1.61zm-1.072-121.354a1.61 1.61 0 011.608 1.611c0 .89-.72 1.611-1.608 1.611a1.61 1.61 0 01-1.608-1.61c0-.89.72-1.612 1.608-1.612zm-97.557 28.996a1.61 1.61 0 011.609 1.611 1.61 1.61 0 01-3.216 0c0-.89.72-1.61 1.607-1.61zm127.038 70.88a1.073 1.073 0 11-.002 2.145 1.073 1.073 0 01.002-2.145zm3.216-61.214a1.073 1.073 0 11-.002 2.146 1.073 1.073 0 01.002-2.146zm-142.582 49.4a1.073 1.073 0 11-.002 2.146 1.073 1.073 0 01.002-2.146zM87.782 402.5a1.61 1.61 0 011.608 1.611c0 .89-.72 1.611-1.608 1.611a1.61 1.61 0 01-1.608-1.61c0-.89.72-1.612 1.608-1.612zm17.153-127.797a1.61 1.61 0 011.608 1.61c0 .89-.72 1.612-1.608 1.612a1.61 1.61 0 01-1.608-1.611c0-.89.72-1.611 1.608-1.611zm-27.337 52.622a1.073 1.073 0 11-.002 2.146 1.073 1.073 0 01.002-2.146zm78.26 46.18a1.073 1.073 0 11-.003 2.145 1.073 1.073 0 01.002-2.146zm50.385 52.622a1.073 1.073 0 11-.001 2.146 1.073 1.073 0 01.001-2.146zm16.081-160.015a1.073 1.073 0 11-.002 2.146 1.073 1.073 0 01.002-2.146z" filter="url(#b)" transform="translate(0 12)"/></g><circle cx="245.5" cy="464.5" r="26.5" fill="url(#c)" opacity=".56"/><g transform="translate(54 46)"><ellipse cx="53.419" cy="37.739" fill="url(#d)" opacity=".3" rx="30.419" ry="30.245"/><ellipse cx="57.305" cy="41.153" stroke="url(#e)" stroke-width="2" rx="57.5" ry="14.385" transform="rotate(-29 57.305 41.153)"/></g><circle cx="538.5" cy="427.5" r="11.5" fill="url(#f)" opacity=".76"/><g transform="rotate(-90 439.5 -276.5)"><ellipse cx="30" cy="21.5" fill="url(#g)" opacity=".3" rx="17" ry="16.5"/><ellipse cx="32" cy="23" stroke="url(#h)" rx="32" ry="8" transform="rotate(-29 32 23)"/></g></g></svg>