<svg xmlns="http://www.w3.org/2000/svg" width="226.777" height="226.777"><path d="M146.82 73.769c-.505-.429-1.413-.959-2.73-1.593-1.316-.632-2.91-1.207-4.781-1.727-1.869-.521-3.945-.945-6.223-1.287-.384-.057-.791-.082-1.181-.126l.704-9.853a4.186 4.186 0 00-3.946-4.418c-2.293-.134-4.288 1.633-4.422 3.946l-.713 10.019a53.51 53.51 0 00-6.732.671l.732-10.217a4.19 4.19 0 00-3.948-4.418 4.197 4.197 0 00-4.42 3.946l-.927 12.969c-3.337 1.269-6.293 2.858-8.843 4.795-3.238 2.463-5.766 5.407-7.589 8.837-1.819 3.429-2.73 7.181-2.73 11.244 0 2.931.456 5.505 1.365 7.716.91 2.216 2.112 4.17 3.605 5.858a25.793 25.793 0 005.086 4.439 78.426 78.426 0 005.805 3.518 167.54 167.54 0 005.804 3.054c1.896.939 3.59 1.947 5.083 3.008 1.492 1.06 2.694 2.226 3.605 3.49s1.369 2.73 1.369 4.4c0 1.85-.395 3.555-1.181 5.112-.782 1.557-1.934 2.924-3.45 4.099-1.519 1.173-3.406 2.097-5.653 2.776-2.251.677-4.872 1.015-7.855 1.015-3.39 0-6.3-.363-8.729-1.086-2.43-.722-4.529-1.499-6.299-2.335-1.772-.834-3.252-1.601-4.438-2.301-1.19-.701-2.214-1.052-3.072-1.052-.508 0-.977.23-1.406.68-.43.452-.824 1.039-1.174 1.762-.357.72-.662 1.524-.913 2.402a38.143 38.143 0 00-.646 2.574c-.177.829-.315 1.61-.417 2.333-.1.725-.152 1.266-.152 1.626 0 1.358.353 2.373 1.063 3.051.707.673 1.794 1.388 3.263 2.131 1.467.743 3.277 1.455 5.425 2.133 1.573.495 3.374.919 5.284 1.305l-.739 10.351a4.19 4.19 0 004.302 4.424 4.188 4.188 0 004.063-3.95l.701-9.796c.957.043 1.889.107 2.895.107 1.29 0 2.544-.053 3.788-.123l-.666 9.338a4.19 4.19 0 108.364.474l.78-10.902a48.358 48.358 0 004.316-1.094c4.98-1.528 9.231-3.646 12.747-6.328 3.517-2.687 6.235-5.844 8.16-9.483 1.922-3.632 2.883-7.57 2.883-11.816 0-2.845-.456-5.36-1.366-7.547-.91-2.192-2.127-4.134-3.642-5.823a26.86 26.86 0 00-5.201-4.476 80.463 80.463 0 00-5.916-3.553 277.88 277.88 0 00-5.923-3.113c-1.946-.989-3.678-2.016-5.195-3.082-1.519-1.059-2.734-2.212-3.646-3.452-.909-1.246-1.363-2.679-1.363-4.304 0-1.396.289-2.783.873-4.163.579-1.374 1.478-2.62 2.693-3.722 1.213-1.109 2.77-2.001 4.668-2.678 1.896-.677 4.21-1.015 6.941-1.015 2.633 0 4.983.282 7.06.843 2.073.566 3.881 1.18 5.426 1.832 1.543.653 2.845 1.265 3.907 1.829 1.063.563 1.947.841 2.658.841.455 0 .881-.224 1.287-.673.406-.452.772-1.028 1.102-1.727.327-.7.607-1.466.833-2.303a31.109 31.109 0 00.913-4.705c.074-.678.114-1.196.114-1.561 0-.721-.114-1.32-.342-1.798-.223-.47-.591-.921-1.098-1.348z"/><path d="M113.389 0C50.766 0 0 50.766 0 113.388c0 62.623 50.766 113.389 113.389 113.389 62.622 0 113.388-50.766 113.388-113.389C226.777 50.766 176.011 0 113.389 0zm-.001 199.423c-47.516 0-86.034-38.521-86.034-86.032 0-47.516 38.519-86.036 86.034-86.036 47.518 0 86.034 38.52 86.034 86.036.001 47.511-38.516 86.032-86.034 86.032z"/></svg>