<svg xmlns="http://www.w3.org/2000/svg" width="100" height="100"><path d="M45.626 9.517c-.893.893-1.875 2.604-2.183 3.803-.823 3.207-18.576 13.114-21.972 12.262-2.521-.633-6.333.761-7.706 2.818-1.459 2.185-.766 7.289 1.235 9.1 1.762 1.595 2 3.08 2 12.5s-.238 10.905-2 12.5c-2.001 1.811-2.694 6.915-1.235 9.1 1.362 2.039 5.177 3.453 7.646 2.833 1.828-.459 4.88.743 11.999 4.726 5.25 2.937 9.556 5.843 9.568 6.456.012.613.974 2.325 2.137 3.804 1.718 2.184 2.796 2.631 5.75 2.385 3.009-.252 3.893-.871 5.135-3.598 1.124-2.468 3.845-4.685 10.851-8.842 8.033-4.766 9.831-5.459 12.75-4.911C86.006 75.655 90.649 67.707 86 63.5c-1.783-1.613-2-3.08-2-13.5s.217-11.887 2-13.5c2.714-2.456 2.515-6.076-.5-9.091-2.059-2.059-3.105-2.386-5.932-1.856-2.961.556-4.71-.115-12.75-4.89-7.015-4.166-9.689-6.353-10.818-8.848-1.244-2.749-2.119-3.367-5.126-3.618-2.344-.196-4.199.271-5.248 1.32m1.124.539c-2.158 1.286-2.313 6.232-.25 7.944 1.136.943 1.5 3.494 1.5 10.507 0 8.742-.139 9.354-2.465 10.878-1.355.888-3.42 1.615-4.587 1.615-3.606 0-14.988-6.975-16.084-9.857-1.213-3.192-2.562-4.108-6.079-4.128C15.898 26.999 14 29.338 14 32.911c0 2.657 4.259 5.459 6.983 4.594 1.4-.444 3.951.387 7.799 2.541 3.145 1.76 5.866 3.331 6.048 3.491.181.159-.432 1.453-1.364 2.874-1.26 1.924-1.528 3.692-1.045 6.909l.648 4.324-5.04 2.744c-3.245 1.766-5.768 2.512-7.084 2.095C18.259 61.63 14 64.455 14 67.089c0 3.573 1.898 5.912 4.785 5.896 3.514-.02 4.866-.936 6.075-4.116.595-1.565 3.125-3.798 6.391-5.641 4.84-2.732 5.973-2.982 10.827-2.39l5.422.662.284 9.599c.227 7.658-.025 9.857-1.25 10.872-2.265 1.88-1.953 6.734.518 8.057 3.1 1.659 6.208.782 7.891-2.226 1.402-2.506 1.348-2.917-.757-5.764-1.996-2.7-2.232-4.048-1.976-11.302l.29-8.236 6.5-.518c5.589-.445 7.152-.172 11.155 1.95 2.922 1.549 5.156 3.603 6 5.518 1.853 4.201 6.958 4.833 9.366 1.158 2.948-4.499-.816-9.504-6.142-8.167-1.658.416-3.861-.225-6.907-2.01-3.784-2.218-4.475-3.107-4.494-5.776-.012-1.735-.902-4.28-1.978-5.655s-1.966-2.967-1.978-3.537c-.041-1.918 12.981-8.679 15.499-8.047 3.244.814 5.471-.264 6.582-3.187 2.523-6.636-7.066-10.216-9.935-3.709-.895 2.031-3.468 4.242-7.856 6.751l-6.525 3.731-4.893-2.245L52 36.512v-7.797c0-6.492.372-8.3 2.226-10.807 2.064-2.792 2.116-3.208.719-5.71-1.634-2.924-5.282-3.878-8.195-2.142M49 14.583c0 1.766 2.153 1.459 2.771-.395.218-.654-.317-1.188-1.188-1.188S49 13.713 49 14.583M18.192 32.075c.197.591.785 1.075 1.308 1.075s1.111-.484 1.308-1.075C21.005 31.484 20.417 31 19.5 31s-1.505.484-1.308 1.075M80 32.583c0 .871.534 1.406 1.188 1.188 1.854-.618 2.161-2.771.395-2.771-.87 0-1.583.712-1.583 1.583M46 42.12c-2.475 1.15-5.625 2.62-7 3.267-1.914.9-2.574 2.07-2.816 4.993-.558 6.727 3.013 8.381 19.301 8.943 4.581.159 6.399-.207 7.75-1.558 2.181-2.181 2.27-5.101.207-6.813-.857-.711-2.19-2.807-2.964-4.658-.937-2.243-2.575-3.855-4.91-4.83-4.393-1.836-4.177-1.85-9.568.656M18.639 66.694C17.513 67.82 17.954 69 19.5 69c.825 0 1.5-.423 1.5-.941 0-1.261-1.562-2.164-2.361-1.365M80 67.417c0 .87.713 1.583 1.583 1.583 1.766 0 1.459-2.153-.395-2.771-.654-.218-1.188.317-1.188 1.188m-31 18c0 .87.712 1.583 1.583 1.583s1.406-.534 1.188-1.187C51.153 83.958 49 83.651 49 85.417" fill-rule="evenodd"/></svg>