<svg xmlns="http://www.w3.org/2000/svg" width="100" height="100"><path d="M24.014 38.024c-4.638 1.091-8.824 5.936-9.663 11.185C13.603 53.885 10.184 58 7.045 58 5.667 58 5 58.652 5 60c0 1.486.667 2 2.596 2C13.334 62 19 55.894 19 49.71c0-1.369.86-3.551 1.911-4.849 1.724-2.13 2.846-2.395 11.5-2.708 9.363-.338 9.589-.403 9.589-2.75 0-2.326-.233-2.4-7.25-2.301-3.988.057-8.819.472-10.736.922m24.221 3.399C44.848 44.528 44.5 45.326 44.5 50c0 4.674.348 5.472 3.735 8.577C51.207 61.3 52.802 62 56.035 62 63.711 62 69 57.105 69 50s-5.289-12-12.965-12c-3.233 0-4.828.7-7.8 3.423M70 40c0 1.285.667 2 1.865 2 1.026 0 3.051.933 4.5 2.073 3.722 2.927 3.722 8.927 0 11.854-1.449 1.14-3.474 2.073-4.5 2.073-1.198 0-1.865.715-1.865 2 0 3.865 8.638 1.7 11.392-2.855.782-1.294 1.03-1.295 2-.015C86.983 61.868 95 63.85 95 60c0-1.348-.667-2-2.045-2C89.831 58 86 53.594 86 50c0-3.594 3.831-8 6.955-8C94.333 42 95 41.348 95 40c0-3.85-8.017-1.868-11.608 2.87-.97 1.28-1.218 1.279-2-.015C78.638 38.3 70 36.135 70 40m-18.545 4.455C49.907 46.002 49 48.052 49 50c0 3.762 3.878 8 7.32 8 4.21 0 7.68-3.615 7.68-8 0-7.069-7.644-10.447-12.545-5.545M31 55.5c0 6.267.09 6.5 2.5 6.5s2.5-.233 2.5-6.5-.09-6.5-2.5-6.5-2.5.233-2.5 6.5" fill-rule="evenodd"/></svg>