<svg width="90" height="90" xmlns="http://www.w3.org/2000/svg"><g transform="translate(9 9)" fill="none" fill-rule="evenodd"><circle fill="#FFF" cx="36" cy="37" r="33"/><path fill="#05C0A5" d="M8.688 17.585l9.625 6.05.583 9.317-.583 6.64.583 8.316-10.208 7.19-4.393-7.772-2.488-11.72 1.905-8.974zm53.327 0l-9.625 6.05-.583 9.317.583 6.64-.583 8.316 10.208 7.19 4.393-7.772 2.488-11.72-1.904-8.974z"/><path d="M61.541 10.63c-14.008-14.104-36.799-14.184-50.91-.171-14.109 14.01-14.182 36.801-.176 50.91 14.013 14.107 36.804 14.184 50.915.174 14.107-14.011 14.182-36.802.171-50.913zm-9.947-1.67l-7.635 7.583a21.087 21.087 0 00-15.784-.054l-7.583-7.636c9.596-5.439 21.443-5.4 31.002.107zm-35.1 34.865l-7.635 7.58c-5.443-9.595-5.402-21.442.107-31.001l7.586 7.635a21.071 21.071 0 00-.057 15.786zm3.913 19.214l7.638-7.584a21.081 21.081 0 0015.781.053l7.583 7.638c-9.593 5.438-21.445 5.4-31.002-.107zm27.048-15.503c-6.36 6.318-16.676 6.282-22.996-.08-6.318-6.36-6.281-16.676.082-22.994 6.364-6.317 16.677-6.283 22.994.078 6.32 6.361 6.284 16.676-.08 22.996zm7.995-3.579a21.076 21.076 0 00.055-15.783l7.635-7.583c5.441 9.593 5.402 21.443-.107 31.002l-7.583-7.636z" fill="#003945" fill-rule="nonzero"/></g></svg>