<svg width="90" height="90" xmlns="http://www.w3.org/2000/svg"><g fill="none" fill-rule="evenodd"><path d="M-40-42.583a3.5 3.5 0 00-3.5 3.5v182a3.5 3.5 0 003.5 3.5h482a3.5 3.5 0 003.5-3.5v-182a3.5 3.5 0 00-3.5-3.5H-40z" stroke="#CECECE"/><g transform="translate(6 5)"><path d="M6.02 42.519c-7.677-12.475-3.792-28.816 8.678-36.497 12.471-7.681 28.806-3.795 36.485 8.68a26.53 26.53 0 013.934 14.288c-.473 14.667-12.57 26.27-27.237 26.129H3.406l2.576-4.377a7.976 7.976 0 00.038-8.223z" stroke="#003945" fill="#FFF" fill-rule="nonzero"/><path d="M72.04 63.507c7.567-12.292 3.728-28.386-8.574-35.947a26.15 26.15 0 00-10.218-3.64c.183 1.28.269 2.57.261 3.864-.467 14.448-12.396 25.878-26.862 25.738H23.92c2.133 12.98 13.4 22.48 26.563 22.397h24.134l-2.54-4.311a7.854 7.854 0 01-.037-8.1z" fill="#05C0A5" fill-rule="nonzero"/><path d="M73.87 70.912a5.918 5.918 0 010-6.12c8.05-13.088 3.968-30.223-9.119-38.273a27.807 27.807 0 00-9.428-3.644 27.82 27.82 0 00-8.309-15.227A27.556 27.556 0 0025.648.099C10.33 1.299-1.114 14.689.086 30.006a27.808 27.808 0 004.105 12.51 5.918 5.918 0 010 6.12L1.613 52.94a1.854 1.854 0 001.595 2.8h19.734c2.912 13.022 14.478 22.274 27.82 22.257H74.8a1.855 1.855 0 001.595-2.8l-2.524-4.285zM6.453 52.03l.89-1.502a9.626 9.626 0 000-9.96C.362 29.227 3.9 14.377 15.24 7.397 26.58.418 41.432 3.953 48.411 15.295a24.1 24.1 0 013.574 12.977c-.443 13.347-11.462 23.898-24.816 23.759H6.452zm44.383 22.257A24.763 24.763 0 0126.724 55.74h.445c15.376.128 28.043-12.042 28.525-27.412v-1.614c12.965 3.044 21.007 16.02 17.963 28.984a24.127 24.127 0 01-2.94 7.127 9.626 9.626 0 000 9.96l.89 1.502H50.836h0z" fill="#003945" fill-rule="nonzero" stroke="#003945"/><circle fill="#003945" cx="14.56" cy="28.08" r="4.16"/><circle fill="#003945" cx="27.04" cy="28.08" r="4.16"/><circle fill="#003945" cx="39.52" cy="28.08" r="4.16"/></g></g></svg>