<svg xmlns="http://www.w3.org/2000/svg" width="100" height="100"><path d="M63.5 32.004c-5.191 2.102-12.031 6.693-19.972 13.406l-4.625 3.911-4.24-4.161C32.332 42.872 30.008 41 29.5 41c-.509 0 1.252 2.21 3.912 4.911l4.837 4.91-6.133 4.515c-7.23 5.322-11.98 7.1-16.638 6.226C10.784 60.681 8 56.847 8 51.265c0-3.745.549-5.014 3.4-7.865 3.78-3.78 3.323-4.543-.785-1.312-7.538 5.93-7.401 15.444.297 20.632 6.016 4.054 13.735 2.38 24.099-5.228C37.627 55.571 40.072 54 40.443 54c.371 0 2.335 1.328 4.366 2.952 2.03 1.623 6.391 4.211 9.691 5.75 5.323 2.482 7.138 2.798 16.078 2.798 9.48 0 10.371-.18 14.988-3.035 9.295-5.747 11.946-15.716 6.351-23.881-5.302-7.738-18.186-10.721-28.417-6.58m-42.337 2.874c-.736.467-1.186 1.922-1 3.235.482 3.416 5.192 3.416 5.674 0 .289-2.041-1.13-4.082-2.837-4.082-.275 0-1.102.381-1.837.847m43.668.52C61.23 36.685 51.909 43.035 45 48.91c-3.432 2.919-3.461 3.007-1.5 4.535 1.1.858 5.29 3.215 9.312 5.239 6.254 3.149 8.495 3.737 15.5 4.069 7.072.335 8.8.072 12.68-1.932 15.147-7.826 9.804-26.922-7.492-26.776-2.75.024-6.651.632-8.669 1.353" fill-rule="evenodd"/></svg>