<svg xmlns="http://www.w3.org/2000/svg" width="226.777" height="226.777"><path d="M123.412 31.733v2.705c1.906.354 3.354 2.015 3.354 4.02a4.1 4.1 0 01-4.098 4.097 4.102 4.102 0 01-4.097-4.097 4.097 4.097 0 013.351-4.02v-2.896a82.19 82.19 0 00-6.843-.394v9.222c3.112.577 5.48 3.3 5.48 6.575a6.705 6.705 0 01-6.7 6.698 6.705 6.705 0 01-6.698-6.698c0-3.275 2.368-5.998 5.48-6.575v-9.245c-2.33.02-4.635.135-6.915.345v2.968c1.903.354 3.353 2.015 3.353 4.02a4.102 4.102 0 01-4.098 4.097 4.102 4.102 0 01-4.098-4.097 4.097 4.097 0 013.353-4.02v-2.813C63.1 36.176 31.103 71.036 31.103 113.388c0 45.447 36.842 82.283 82.288 82.283 45.447 0 82.283-36.836 82.283-82.283 0-42.054-31.545-76.708-72.262-81.655zm-27.278 6.554L113.657 64.4l17.45-26.007a76.533 76.533 0 0115.595 5.485l-25.446 37.917v13.813a19.366 19.366 0 00-7.431-1.478c-2.694 0-5.262.547-7.596 1.539h-.002v-13.62L80.485 43.695a76.416 76.416 0 0115.649-5.408zm-58.476 89.346h14.799s2.902 11.234 7.105 17.688c4.203 6.452 11.091 13.411 11.091 13.411l14.572-17.615v-20.01H36.709a77.782 77.782 0 01-.386-7.719c0-28.572 15.562-53.491 38.659-66.803l25.902 37.332v13.269H85.007V86.528L71.959 68.26s-10.875 7.829-14.898 17.29c-4.022 9.459-5.219 21.204-5.219 21.204H95.62a19.352 19.352 0 00-1.26 6.84c0 5.775 2.529 10.946 6.524 14.515v16.596l-27.717 34.423c-18.23-11.175-31.438-29.727-35.509-51.495zm51.598 56.445H82.71a78.338 78.338 0 01-3.77-1.758l2.5-3.041h7.815v4.799zm0-6.887h-6.103l5.334-6.492s.285.132.768.336v6.156zm11.544 12.207a75.673 75.673 0 01-9.458-2.168v-1.067h9.458v3.235zm0-5.32h-9.458v-4.799h9.458v4.799zm0-6.887h-9.458v-5.308a78.51 78.51 0 009.458 2.99v2.318zm11.547 13.23a76.955 76.955 0 01-9.458-.71v-3.548h9.458v4.258zm0-6.343h-9.458v-4.799h9.458v4.799zm0-6.887h-9.458v-1.836c2.981.643 6.203 1.116 9.458 1.23v.606zm-19.8-11.277l13.629-17.485v-24.443c-3.195-2.357-5.292-6.118-5.292-10.391 0-7.144 5.794-12.938 12.94-12.938 7.148 0 12.941 5.794 12.941 12.938 0 4.375-2.186 8.229-5.51 10.569v23.335l13.919 18.706s-10.73 4.495-21.35 4.495-21.277-4.786-21.277-4.786zm31.341 23.797a76.95 76.95 0 01-9.454.71v-4.258h9.454v3.548zm0-5.633h-9.454v-4.799h9.454v4.799zm0-6.887h-9.454v-.577c3.269-.045 6.482-.475 9.454-1.087v1.664zm11.549 10.046a76.743 76.743 0 01-9.458 2.164v-3.238h9.458v1.074zm0-3.159h-9.458v-4.799h9.458v4.799zm0-6.887h-9.458v-2.133a71.42 71.42 0 009.458-3.006v5.139zm8.628 6.887h-6.542v-4.799h7.749l2.429 3.112a75.993 75.993 0 01-3.636 1.687zm-6.542-6.887v-6.007c.671-.299 1.059-.485 1.059-.485l5.064 6.492h-6.123zm19.472-18.459s6.89-6.959 11.092-13.411c4.204-6.454 7.106-17.688 7.106-17.688h13.927c-4.028 21.538-17.005 39.915-34.937 51.13l-27.418-34.058v-16.596c3.994-3.569 6.523-8.74 6.523-14.515 0-2.409-.458-4.709-1.259-6.84h43.778s-1.197-11.745-5.22-21.204c-4.023-9.461-14.897-17.29-14.897-17.29l-13.049 18.269v10.658h-15.877v-13.27l25.655-36.972c22.754 13.393 38.034 38.129 38.034 66.443a77.48 77.48 0 01-.387 7.719h-47.644v20.01l14.573 17.615z"/><path d="M109.251 46.945a4.616 4.616 0 004.608 4.613c2.545 0 4.61-2.07 4.61-4.613a4.615 4.615 0 00-4.61-4.611 4.615 4.615 0 00-4.608 4.611zm-7.089-8.487a2.824 2.824 0 002.82 2.823 2.822 2.822 0 000-5.644 2.823 2.823 0 00-2.82 2.821z"/><path d="M113.388 0C50.766 0 0 50.766 0 113.388c0 62.624 50.766 113.389 113.389 113.389s113.388-50.766 113.388-113.389C226.776 50.766 176.011 0 113.388 0zm.002 201.578c-48.708 0-88.191-39.484-88.191-88.19 0-48.707 39.483-88.191 88.191-88.191 48.707 0 88.19 39.484 88.19 88.191.001 48.706-39.483 88.19-88.19 88.19z"/><path d="M119.846 38.458a2.826 2.826 0 002.821 2.823 2.822 2.822 0 000-5.644 2.825 2.825 0 00-2.821 2.821z"/></svg>