<svg xmlns="http://www.w3.org/2000/svg" width="226.777" height="226.777"><path d="M123.502 157.245v-30.002c4.272-3.01 7.083-7.962 7.083-13.589 0-9.184-7.448-16.636-16.639-16.636-9.187 0-16.636 7.452-16.636 16.636 0 5.493 2.695 10.331 6.803 13.359v31.431L86.59 180.923s13.704 6.152 27.357 6.152c13.655 0 27.45-5.779 27.45-5.779l-17.895-24.051z"/><path d="M113.388 0C50.763 0-.001 50.765-.001 113.389c0 62.622 50.765 113.388 113.39 113.388 62.624 0 113.389-50.767 113.389-113.388C226.777 50.765 176.012 0 113.388 0zm.604 22.032a5.936 5.936 0 015.929 5.93 5.934 5.934 0 01-5.929 5.93c-3.269 0-5.925-2.662-5.925-5.93s2.656-5.93 5.925-5.93zm-.604 197.151c-58.43 0-105.799-47.361-105.799-105.794 0-54.453 41.14-99.273 94.03-105.126v3.618c-2.448.455-4.31 2.591-4.31 5.168a5.274 5.274 0 005.269 5.268 5.274 5.274 0 005.268-5.268c0-2.577-1.863-4.714-4.31-5.168V8.065c2.93-.271 5.894-.419 8.891-.445v11.888c-4.001.742-7.047 4.241-7.047 8.454 0 4.75 3.863 8.611 8.612 8.611 4.751 0 8.615-3.862 8.615-8.611 0-4.212-3.045-7.711-7.047-8.454V7.651c2.961.057 5.902.208 8.798.506v3.724c-2.445.455-4.31 2.591-4.31 5.168 0 2.905 2.364 5.268 5.27 5.268s5.267-2.363 5.267-5.268c0-2.577-1.862-4.714-4.31-5.168V8.402c52.349 6.363 92.908 50.918 92.908 104.987 0 58.433-47.361 105.794-105.795 105.794zm-10.81-205.761a3.63 3.63 0 010 7.257 3.632 3.632 0 01-3.626-3.631 3.631 3.631 0 013.626-3.626zm22.74 0a3.63 3.63 0 010 7.257 3.633 3.633 0 01-3.627-3.631 3.632 3.632 0 013.627-3.626z"/><path d="M104.178 90.609h.002a24.904 24.904 0 019.766-1.981c3.386 0 6.612.682 9.556 1.901v-17.76l32.717-48.751c-6.334-3.042-13.056-5.406-20.05-7.053l-22.438 33.438L91.202 16.83a98.296 98.296 0 00-20.121 6.951l33.096 49.314v17.514z"/><path d="M97.31 132.316c-5.136-4.59-8.388-11.238-8.388-18.663 0-3.097.588-6.055 1.62-8.793H34.254s1.539-15.1 6.71-27.263c5.173-12.165 19.155-22.231 19.155-22.231l16.776 23.489v13.703H97.31v-17.06l-33.304-48C34.309 44.613 14.3 76.652 14.3 113.388c0 3.351.171 6.663.497 9.926h62.378v25.727l-18.735 22.65s-8.856-8.95-14.26-17.246c-5.404-8.297-9.135-22.741-9.135-22.741H16.018c5.233 27.988 22.216 51.841 45.655 66.209l35.637-44.258v-21.339zm114.666-9.001c.326-3.264.495-6.575.495-9.926 0-36.404-19.645-68.208-48.9-85.427l-32.986 47.536v17.059H151V78.855l16.775-23.489s13.982 10.066 19.155 22.231c5.172 12.164 6.711 27.263 6.711 27.263h-56.288a24.902 24.902 0 011.619 8.793c0 7.424-3.251 14.073-8.388 18.663v21.34l35.252 43.787c23.056-14.419 39.74-38.047 44.918-65.738h-17.903s-3.733 14.444-9.137 22.741c-5.403 8.296-14.26 17.246-14.26 17.246l-18.735-22.65v-25.727h61.257zm-82.4 72.11h12.159v-6.608a91.425 91.425 0 01-12.159 3.863v2.745zm-14.846 0h12.156v-2.142c-3.82.785-7.953 1.341-12.156 1.399v.743zm0 2.682h12.156v6.17H114.73zm14.846 0h12.159v6.17h-12.159zm14.842-10.408v7.726h7.873l-6.513-8.351s-.499.241-1.36.625zm0 10.408v6.17h8.411a100.191 100.191 0 004.675-2.168l-3.123-4.002h-9.963zm-75.322 3.908a98.007 98.007 0 004.847 2.262h8.415v-6.17H72.31l-3.214 3.908zm30.791-6.59h12.16v-.779c-4.184-.147-8.327-.755-12.16-1.582v2.361zm29.689 15.697a99.676 99.676 0 0012.159-2.782v-1.381h-12.159v4.163zm-55.064-15.697h7.846v-7.917a29.856 29.856 0 01-.987-.434l-6.859 8.351zm40.218 17.007a99.41 99.41 0 0012.156-.911v-4.563H114.73v5.474zm-29.689-14.325h12.16v6.17h-12.16zm14.846 0h12.16v6.17h-12.16zm0 13.414c3.982.547 8.039.854 12.16.911v-5.474h-12.16v4.563zm-14.846-16.096h12.16v-2.979a101.442 101.442 0 01-12.16-3.846v6.825zm0 12.906a98.156 98.156 0 0012.16 2.788v-4.16h-12.16v1.372z"/></svg>