<svg xmlns="http://www.w3.org/2000/svg" width="100" height="100"><path d="M36.846 15.828c-8.609 3.128-16.556 6.504-17.658 7.502-2.908 2.632-3.726 5.401-6.78 22.953-2.553 14.669-2.637 16.013-1.197 19.033 1.92 4.027 26.469 24.445 30.929 25.724 2.547.731 4.887.316 11.769-2.083 22.641-7.894 26.424-9.502 28.303-12.029 1.296-1.743 2.908-8.203 5.001-20.049 2.76-15.616 2.94-17.786 1.688-20.381C87.339 33.26 65.27 13.98 60.349 11.554c-1.733-.855-4.208-1.523-5.5-1.484-1.292.038-9.393 2.629-18.003 5.758m9.859 18.701c-.987 1.356-3.237 3.199-5 4.096-1.763.896-3.281 1.686-3.374 1.754-.093.069-.479 1.362-.858 2.873C36.849 45.737 37.04 46 39.459 46c2.091 0 2.556.382 2.125 1.75-1.42 4.514-2.539 12.825-1.978 14.684C41.025 67.132 44.014 69 50.115 69c6.165 0 6.264-.058 7.266-4.25.65-2.719.601-2.75-4.303-2.75-2.728 0-5.196-.382-5.484-.848-.288-.466.047-3.954.745-7.75l1.27-6.902 5.424-.31c5.472-.313 6.924-1.24 6.952-4.44.012-1.457-.908-1.75-5.497-1.75h-5.512l.64-4c.556-3.48.395-3.996-1.238-3.969-1.033.018-2.686 1.142-3.673 2.498" fill-rule="evenodd"/></svg>