<svg xmlns="http://www.w3.org/2000/svg" width="100" height="100"><path d="M16.263 23.116C10.579 24.757 10 27.29 10 50.516c0 20.848.396 23.502 3.913 26.202 2.275 1.746 69.899 1.746 72.174 0C89.604 74.018 90 71.364 90 50.516c0-23.684-.503-25.728-6.752-27.464-4.684-1.301-62.451-1.246-66.985.064m-.013 4.418C13.758 29.283 13.13 34 15.389 34c2.047 0 5.452-3.205 5.804-5.464.397-2.539-2.048-3.035-4.943-1.002m9.434-.884c-.376.376-.684 1.672-.684 2.88 0 2.861-4.355 7.17-8.073 7.986L14 38.159v24.439l3.557 1.286c3.354 1.213 5.018 3.494 6.845 9.384.508 1.637 2.371 1.747 25.26 1.5l24.712-.268.825-3.187c.97-3.746 5.085-7.313 8.436-7.313H86V51c0-12.209-.118-13-1.944-13-2.904 0-6.851-4.036-7.824-8l-.858-3.5-24.503-.267c-13.477-.147-24.811.041-25.187.417m54.331 1.6c.02 2.826.887 4.136 3.735 5.635 2.095 1.104 2.25.98 2.25-1.793 0-1.944-.772-3.519-2.223-4.535-3.005-2.105-3.78-1.963-3.762.693M44.62 31.212c-8.937 2.415-15.12 13.502-12.649 22.681 2.365 8.781 11.409 14.888 20.528 13.86 14.705-1.658 21.467-19.321 11.796-30.814-4.608-5.476-12.309-7.718-19.675-5.727m-.17 4.195c-1.677.73-4.246 2.751-5.71 4.49-8.26 9.817-1.463 24.11 11.46 24.099 15.437-.013 20.482-20.712 6.764-27.746-4.972-2.549-8.111-2.761-12.514-.843M47 47.5V53h5.5c4.222 0 5.5-.348 5.5-1.5 0-1.048-1.056-1.5-3.5-1.5-3.417 0-3.5-.095-3.5-4 0-3.333-.333-4-2-4-1.758 0-2 .667-2 5.5M14.184 69.727c.198 1.713 1.246 3.191 2.816 3.976 2.242 1.121 2.534 1.038 2.83-.809.371-2.312-2.395-5.894-4.551-5.894-.948 0-1.308.896-1.095 2.727M82 68.288c-1.6.805-2.617 2.273-2.825 4.076-.293 2.538-.094 2.747 2 2.105C84.685 73.392 86 72.004 86 69.378c0-2.709-.508-2.848-4-1.09" fill-rule="evenodd"/></svg>