<svg xmlns="http://www.w3.org/2000/svg" width="100" height="100"><path d="M50.17 13.839l-8.329 3.517.329 28.102c.327 27.87.351 28.143 2.885 33.063 3.364 6.533 9.536 10.452 17.602 11.177 5.505.494 12.194-.633 15.173-2.556 1.809-1.168-1.99-13.812-3.999-13.307-4.829 1.214-9.905.536-12.054-1.61-2.095-2.093-2.303-3.313-2.606-15.25L58.841 44H80V30.07l-10.25-.285L59.5 29.5l-.5-9.589-.5-9.589-8.33 3.517M21.635 33.073C15.922 37.566 19.695 48 27.031 48 30.732 48 36 43.307 36 40.011c0-7.577-8.397-11.633-14.365-6.938" fill-rule="evenodd"/></svg>