<svg width="90" height="90" xmlns="http://www.w3.org/2000/svg"><g transform="translate(3 3)" fill="none" fill-rule="evenodd"><circle fill="#05C0A5" cx="6.5" cy="31.5" r="4.5"/><circle fill="#05C0A5" cx="6.5" cy="51.5" r="4.5"/><circle fill="#05C0A5" cx="76.5" cy="51.5" r="4.5"/><circle fill="#05C0A5" cx="76.5" cy="31.5" r="4.5"/><circle fill="#05C0A5" cx="53.5" cy="6.5" r="4.5"/><circle fill="#05C0A5" cx="33.5" cy="6.5" r="4.5"/><circle fill="#05C0A5" cx="32.5" cy="77.5" r="4.5"/><circle fill="#05C0A5" cx="52.5" cy="77.5" r="4.5"/><path d="M29.4 12.24v8.42a2.1 2.1 0 004.2 0v-8.42A6.299 6.299 0 0031.5.003a6.3 6.3 0 00-2.1 12.237zm2.1-8.04a2.1 2.1 0 110 4.199 2.1 2.1 0 010-4.2zm21-4.2a6.3 6.3 0 00-2.1 12.24v8.42a2.1 2.1 0 004.2 0v-8.42A6.299 6.299 0 0052.5 0zm0 8.398a2.1 2.1 0 110-4.2 2.1 2.1 0 010 4.2zm2.1 63.365v-8.42a2.1 2.1 0 00-4.2 0v8.42A6.299 6.299 0 0052.5 84a6.3 6.3 0 002.1-12.237zm-2.1 8.02a2.1 2.1 0 110-4.2 2.1 2.1 0 010 4.2zm-18.9-8.02v-8.42a2.1 2.1 0 00-4.2 0v8.42A6.299 6.299 0 0031.5 84a6.3 6.3 0 002.1-12.237zm-2.1 8.02a2.1 2.1 0 110-4.2 2.1 2.1 0 010 4.2zm46.2-41.991a6.273 6.273 0 01-5.922-4.2h-8.421a2.1 2.1 0 110-4.198h8.42a6.293 6.293 0 0112.181 2.826 6.292 6.292 0 01-6.258 5.572zm-.26-8.398a2.1 2.1 0 110 4.2 2.1 2.1 0 010-4.2zm-14.1 20.995h8.42A6.3 6.3 0 0184 52.49a6.3 6.3 0 01-12.24 2.1h-8.42a2.1 2.1 0 110-4.2zm14.1 4.2a2.1 2.1 0 11-.001-4.2 2.1 2.1 0 010 4.2zM6.3 46.19a6.3 6.3 0 015.922 4.2h8.421a2.1 2.1 0 110 4.199h-8.42A6.293 6.293 0 01.041 51.762 6.292 6.292 0 016.3 46.19zm.26 8.399a2.1 2.1 0 110-4.2 2.1 2.1 0 010 4.2zM6.3 25.195a6.3 6.3 0 015.922 4.199h8.421a2.1 2.1 0 110 4.199h-8.42A6.293 6.293 0 01.041 30.767 6.292 6.292 0 016.3 25.195zm.26 8.398a2.1 2.1 0 110-4.2 2.1 2.1 0 010 4.2z" fill="#003945"/><rect stroke="#003945" stroke-width="4" fill="#FFF" x="27" y="27" width="32" height="32" rx="16"/><path d="M43.5 41.942c-1.3 0-2.356-1.043-2.356-2.326 0-1.282 1.057-2.325 2.356-2.325h3.428c.592 0 1.072-.474 1.072-1.058 0-.585-.48-1.058-1.072-1.058h-2.356v-1.117c0-.584-.48-1.058-1.072-1.058-.592 0-1.072.474-1.072 1.058v1.245C40.463 35.779 39 37.532 39 39.616c0 2.45 2.019 4.442 4.5 4.442 1.3 0 2.356 1.043 2.356 2.326 0 1.282-1.057 2.325-2.356 2.325h-3.428c-.592 0-1.072.474-1.072 1.058 0 .585.48 1.058 1.072 1.058h2.356v1.117c0 .584.48 1.058 1.072 1.058.592 0 1.072-.474 1.072-1.058v-1.245C46.537 50.221 48 48.468 48 46.384c0-2.45-2.019-4.442-4.5-4.442z" stroke="#003945" stroke-width="1.4" fill="#003945" fill-rule="nonzero"/></g></svg>