<svg xmlns="http://www.w3.org/2000/svg" width="226.8" height="226.8"><path d="M123.351 100.469c0-5.496-4.455-9.951-9.951-9.951s-9.951 4.455-9.951 9.951a9.947 9.947 0 005.209 8.75l-2.837 21.542h15.157l-2.837-21.542a9.948 9.948 0 005.21-8.75zM113.4 57.366c-10.023 0-18.178 8.417-18.178 18.762v2.662h36.357v-2.662c-.001-10.345-8.156-18.762-18.179-18.762z"/><path d="M202.96 18.962s-7.324-2.645-12.919-7.223S179.224.278 179.224.278H47.576s-5.222 6.884-10.817 11.461-12.919 7.223-12.919 7.223-15.327 53.595-8.274 89.886c7.053 36.291 18.175 61.18 45.846 86.409 22.785 20.819 51.984 31.263 51.989 31.264.004-.001 29.203-10.446 51.989-31.264 27.67-25.229 38.792-50.118 45.846-86.409 7.051-36.29-8.276-89.886-8.276-89.886zm-45.9 114.132c0 6.053-4.907 10.96-10.96 10.96H80.7c-6.053 0-10.96-4.907-10.96-10.96V86.871a8.08 8.08 0 018.08-8.08h6.008v-2.662c0-16.628 13.266-30.156 29.572-30.156 16.306 0 29.572 13.528 29.572 30.156v2.662h6.008a8.08 8.08 0 018.08 8.08v46.223z"/></svg>