<svg xmlns="http://www.w3.org/2000/svg" width="100" height="100"><path d="M40.618 11.048c-6.328 1.59-15.334 6.92-19.706 11.663-2.245 2.436-5.507 7.436-7.247 11.109-2.866 6.049-3.165 7.582-3.165 16.232 0 9.015.21 9.976 3.735 17.108 4.498 9.102 10.288 14.771 19.585 19.175C39.861 89.197 41.409 89.5 50 89.5s10.139-.303 16.18-3.165c9.297-4.404 15.087-10.073 19.585-19.175C89.294 60.02 89.5 59.075 89.5 50c0-9.092-.201-10.01-3.772-17.237-6.682-13.518-18.84-21.624-33.479-22.321-4.262-.203-9.496.07-11.631.606m-1.118 9.28C31.216 23.577 25.788 28.392 21.838 36c-1.752 3.373-2.425 6.551-2.688 12.691-.302 7.057-.006 8.943 2.135 13.62 5.466 11.939 14.117 17.896 26.897 18.52 10.939.534 16.736-1.589 23.898-8.751 9.572-9.572 11.955-22.568 6.405-34.934C73.29 25.571 62.882 18.972 50 19.086c-4.125.036-8.85.595-10.5 1.242M32 35.5V40h12v33h11V40h13v-9H32v4.5" fill-rule="evenodd"/></svg>