<svg xmlns="http://www.w3.org/2000/svg" width="100" height="100"><path d="M10.042 6.25c.094 2.814 31.548 88.124 32.622 88.477 1.334.438 45.577-63.528 44.804-64.778-.279-.452-3.477-2.898-7.106-5.434-6.453-4.512-7.273-4.776-37.367-12.064C26.072 8.353 11.725 5 11.113 5c-.612 0-1.094.563-1.071 1.25m6.689 4.152C17.763 12.116 47.026 47 47.432 47c1.04 0 23.036-23.885 22.464-24.394-1.195-1.065-53.718-13.122-53.165-12.204M14.417 13.5c.855 2.2 7.35 20.142 14.434 39.871 11.052 30.777 12.964 35.392 13.468 32.5.322-1.854 1.328-10.86 2.234-20.013L46.2 49.216 31.446 31.358C23.332 21.536 15.831 12.6 14.778 11.5c-1.891-1.975-1.895-1.95-.361 2m47.444 21.685L51.5 46.371l15.25-7.927C75.138 34.084 82 30.235 82 29.891 82 29.09 74.338 24 73.133 24c-.501 0-5.573 5.033-11.272 11.185m3.112 6.508c-9.06 4.72-16.548 8.632-16.64 8.695-.306.207-4.07 37.107-3.816 37.412.137.164 8.65-11.925 18.918-26.865 10.268-14.941 18.521-27.313 18.34-27.494-.181-.181-7.742 3.533-16.802 8.252" fill-rule="evenodd"/></svg>