<svg xmlns="http://www.w3.org/2000/svg" width="100" height="100"><path d="M38.798 11.865c-11.997 3.974-20.701 11.429-25.638 21.96-2.263 4.827-2.66 7.019-2.66 14.675 0 7.634.397 9.835 2.613 14.5C18.475 74.287 27.876 80.511 39.5 80.47c16.213-.056 26.363-10.177 27.298-27.22l.453-8.25h-5.988l-.473 7.25c-.566 8.664-3.208 14.441-8.42 18.417-2.986 2.277-4.9 2.854-10.528 3.172C26.3 74.717 16.52 64.888 16.631 48.5c.077-11.286 4.616-19.815 13.786-25.901 16.523-10.967 38.825-7.826 52.978 7.461 6.494 7.014 7.201 6.49 1.855-1.375C80.474 21.659 73.021 15.539 66 12.877c-7.884-2.99-19.883-3.436-27.202-1.012M29 39.5V52h15v8c0 4.541.422 8 .977 8 2.545 0 4.431-5.5 4.843-14.127L50.245 45H35.9l.3-5.75.3-5.75 12.5.018c14.365.021 18.441 1.079 24.203 6.284 5.859 5.293 8.16 10.434 8.146 18.198-.016 8.342-2.873 14.488-9.513 20.457-6.866 6.174-14.067 8.75-26.038 9.314-5.612.265-11.002.005-12.785-.617-1.753-.611-2.829-.666-2.496-.127.321.52 3.75 1.908 7.62 3.083 14.425 4.382 28.44 1.132 39.263-9.104C84.65 74.15 87.379 67.863 87.387 58c.008-9.425-3.312-17.004-10.045-22.931C69.634 28.285 64.558 27 45.462 27H29v12.5" fill-rule="evenodd"/></svg>