<svg xmlns="http://www.w3.org/2000/svg" xmlns:xlink="http://www.w3.org/1999/xlink" width="34" height="35"><defs><rect id="a" width="13" height="13" x="0" y=".5" rx="6.5"/></defs><g fill="none" fill-rule="evenodd"><rect width="31" height="31" fill="#1DA1F2" rx="6"/><path fill="#FFF" fill-rule="nonzero" d="M13.346 23c6.415 0 9.924-5.387 9.924-10.058 0-.153 0-.305-.01-.457a7.146 7.146 0 001.74-1.83 6.899 6.899 0 01-2.003.557 3.539 3.539 0 001.533-1.956 6.93 6.93 0 01-2.215.858 3.456 3.456 0 00-4.19-.695 3.555 3.555 0 00-1.754 3.92 9.862 9.862 0 01-7.188-3.694c-.926 1.615-.453 3.682 1.08 4.719a3.432 3.432 0 01-1.583-.443v.045c0 1.683 1.17 3.132 2.798 3.465a3.437 3.437 0 01-1.575.061 3.498 3.498 0 003.259 2.455A6.934 6.934 0 018 21.413a9.775 9.775 0 005.346 1.584"/><g transform="translate(20 20.5)"><use fill="#0D2A8A" xlink:href="#a"/><use fill="#3D46C3" stroke="#FFF" xlink:href="#a"/></g><path fill="#FFF" fill-rule="nonzero" d="M26.5 23.5l-.74.422-2.02 1.156-.74.422v4l.74.422 2.038 1.156.74.422.741-.422 2-1.156L30 29.5v-4l-.74-.422-2.02-1.156-.74-.422zm-2.019 5.156v-2.312l2.019-1.156 2.019 1.156v2.312L26.5 29.812l-2.019-1.156z"/></g></svg>