<svg width="90" height="90" xmlns="http://www.w3.org/2000/svg"><g fill="#003945" stroke="#003945" stroke-width="1.4"><path d="M78.4 19.9a2.084 2.084 0 00-2.51 1.53l-1.086 4.515C68.336 16.045 57.246 10 45.229 10c-9.41 0-18.257 3.634-24.91 10.232C13.664 26.83 10 35.602 10 44.934c0 1.141.933 2.066 2.083 2.066 1.15 0 2.084-.925 2.084-2.066 0-16.984 13.934-30.802 31.062-30.802 10.574 0 20.335 5.308 26.043 14.006l-4.6-1.088a2.084 2.084 0 00-2.51 1.53 2.065 2.065 0 001.543 2.489l9.469 2.24a2.08 2.08 0 002.51-1.53l2.259-9.39a2.065 2.065 0 00-1.543-2.488zM77.917 43a2.075 2.075 0 00-2.084 2.066c0 16.984-13.934 30.802-31.062 30.802-10.575 0-20.335-5.308-26.043-14.006l4.6 1.088a2.084 2.084 0 002.51-1.53 2.065 2.065 0 00-1.544-2.489l-9.468-2.24a2.084 2.084 0 00-2.51 1.53l-2.259 9.39a2.065 2.065 0 001.543 2.488 2.08 2.08 0 002.51-1.53l1.086-4.514C21.664 73.955 32.754 80 44.771 80c9.41 0 18.257-3.634 24.91-10.232C76.337 63.17 80 54.398 80 45.066A2.075 2.075 0 0077.917 43z"/><path d="M46 42.884c-2.598 0-4.712-2.087-4.712-4.651 0-2.565 2.114-4.652 4.712-4.652h6.856c1.184 0 2.144-.947 2.144-2.116 0-1.168-.96-2.116-2.144-2.116h-4.712v-2.233c0-1.169-.96-2.116-2.144-2.116-1.184 0-2.144.947-2.144 2.116v2.49c-3.93.952-6.856 4.457-6.856 8.627 0 4.898 4.037 8.883 9 8.883 2.598 0 4.712 2.087 4.712 4.651 0 2.565-2.114 4.652-4.712 4.652h-6.856c-1.184 0-2.144.947-2.144 2.116 0 1.168.96 2.116 2.144 2.116h4.712v2.233c0 1.169.96 2.116 2.144 2.116 1.184 0 2.144-.947 2.144-2.116v-2.49c3.93-.952 6.856-4.457 6.856-8.627 0-4.898-4.037-8.883-9-8.883z"/></g></svg>