<svg xmlns="http://www.w3.org/2000/svg" version="1.1" id="layer" x="0" y="0" viewBox="0 0 652 300" xml:space="preserve"><style type="text/css" id="style2">.st0{fill:#dc6be5}</style><g id="New" transform="translate(6.676 -178.02)"><g id="Home---Full" transform="translate(-863 -5670)"><g id="uniswap" transform="translate(863 5670)"><g id="uniswap-logo"><path id="Path" class="st0" d="M127.3 290.8c-2.3 2.2-6 2.1-8.2-.2l-6-6.2c-8.8-9.2-23.4-9.5-32.7-.8l-40.1 37.9 38 .9c3.2.1 5.7 2.7 5.6 5.9-.1 3.2-2.7 5.7-5.9 5.6l-52-1.3c-3.2-.1-5.7-2.7-5.6-5.9l1.3-51.5c.1-3.2 2.7-5.7 5.9-5.6 3.2.1 5.7 2.7 5.6 5.9l-.9 37.7 40.1-37.9c13.9-13.1 35.8-12.5 49 1.2l6 6.2c2.3 2.3 2.2 5.9-.1 8.1z" fill="#dc6be5"/><path id="Path_1_" class="st0" d="M38.5 344c2.3-2.2 6-2.1 8.2.2l6 6.2c8.8 9.2 23.4 9.5 32.7.8l40.1-37.9-38-.9c-3.2-.1-5.7-2.7-5.6-5.9.1-3.2 2.7-5.7 5.9-5.6l52 1.3c3.2.1 5.7 2.7 5.6 5.9l-1.3 51.5c-.1 3.2-2.7 5.7-5.9 5.6-3.2-.1-5.7-2.7-5.6-5.9l.9-37.7-40.1 37.9c-13.9 13.1-35.8 12.5-49-1.2l-6-6.2c-2.3-2.3-2.2-5.9.1-8.1z" fill="#dc6be5"/></g><path id="Uniswap" d="M259.4 284.9h11.2v48.8c0 5.5-1.3 10.3-4 14.2-2.6 3.9-6.2 6.9-10.6 8.9-4.5 2.1-9.4 3.1-14.9 3.1s-10.4-1-14.9-3.1-8-5-10.6-8.9c-2.6-3.9-4-8.6-4-14.2v-48.8h11.2v48.6c0 3.5.8 6.4 2.5 8.8 1.7 2.4 3.9 4.2 6.7 5.5 2.8 1.3 5.8 1.9 9.1 1.9s6.4-.6 9.2-1.9c2.8-1.2 5-3.1 6.7-5.5 1.7-2.4 2.5-5.3 2.5-8.8v-48.6zm37.5 40.9v32.8h-10.8v-55.3h10.4v9h.7c1.3-2.9 3.3-5.3 6-7.1 2.7-1.8 6.2-2.7 10.4-2.7 5.7 0 10.3 1.8 13.8 5.3s5.2 8.7 5.2 15.6v35.2h-10.8v-33.9c0-4-1.1-7.1-3.2-9.4-2.1-2.3-5-3.4-8.7-3.4-3.8 0-6.9 1.2-9.3 3.6-2.5 2.5-3.7 5.9-3.7 10.3zm50.2 32.8v-55.3h10.8v55.3zm5.5-63.5c-1.9 0-3.5-.6-4.8-1.9-1.4-1.2-2-2.8-2-4.5 0-1.8.7-3.3 2-4.6 1.4-1.3 3-1.9 4.8-1.9 1.8 0 3.5.6 4.8 1.9 1.4 1.3 2 2.8 2 4.6 0 1.8-.7 3.3-2 4.5-1.4 1.3-3 1.9-4.8 1.9zm61.6 21.7l-9.8 1.7c-.6-1.8-1.8-3.5-3.5-5.1-1.7-1.5-4.2-2.3-7.6-2.3-3.1 0-5.6.7-7.7 2-2.1 1.4-3.1 3.1-3.1 5.2 0 1.9.7 3.4 2 4.5 1.4 1.1 3.6 2 6.7 2.8l8.8 2c10.2 2.3 15.2 7.3 15.2 15 0 3.3-1 6.3-2.9 8.9-1.9 2.6-4.6 4.6-8 6-3.4 1.4-7.4 2.2-11.9 2.2-6.3 0-11.4-1.3-15.3-4-3.9-2.7-6.3-6.4-7.3-11.3l10.5-1.6c1.3 5.5 5.3 8.2 12 8.2 3.6 0 6.4-.7 8.5-2.2 2.1-1.5 3.2-3.3 3.2-5.4 0-3.5-2.6-5.9-7.9-7l-9.4-2.1c-5.2-1.2-9.1-3-11.5-5.6-2.5-2.6-3.7-5.8-3.7-9.8 0-3.3.9-6.1 2.8-8.6 1.8-2.5 4.4-4.4 7.6-5.7 3.2-1.4 6.9-2.1 11.2-2.1 6 0 10.8 1.3 14.2 3.9 3.6 2.7 5.8 6.1 6.9 10.4zm25.1 41.8l-16.4-55.3h11.2L445 344h.5l11-40.6h11.2l10.9 40.4h.5l10.8-40.4h11.2l-16.4 55.3h-11.1l-11.3-39.9h-.8l-11.3 39.9h-10.9zm88.4 1.3c-3.5 0-6.7-.6-9.6-1.9-2.8-1.3-5.1-3.2-6.8-5.7-1.7-2.5-2.5-5.6-2.5-9.2 0-3.1.6-5.7 1.8-7.7 1.2-2 2.9-3.6 4.9-4.8 2-1.2 4.3-2.1 6.9-2.6 2.5-.6 5.1-1 7.8-1.4.5 0 .9-.1 1.4-.1.4 0 .9-.1 1.3-.1 4-.5 6.9-.9 8.7-1.4 1.8-.5 2.7-1.6 2.6-3.4 0-3.2-.9-5.6-2.6-7.4-1.7-1.8-4.4-2.6-7.9-2.6-3.7 0-6.5.8-8.6 2.4-2.1 1.6-3.5 3.4-4.3 5.3l-10.2-2.3c1.8-5 4.8-8.7 9.1-10.8 4.2-2.2 8.9-3.3 14-3.3 2.2 0 4.5.3 7 .8s4.8 1.5 7.1 2.8c2.2 1.4 4 3.3 5.4 5.9 1.4 2.5 2.1 5.8 2.1 9.8v36.7h-10.6v-7.6h-.4c-1 2.1-2.9 4-5.5 5.9-2.8 1.7-6.5 2.7-11.1 2.7zm2.4-8.7c3 0 5.6-.6 7.7-1.8 2.1-1.2 3.8-2.7 4.9-4.6 1.1-1.9 1.7-4 1.7-6.1v-7.1c-.5.5-1.7.9-3.4 1.3s-3.5.7-5.4 1c-1.9.3-3.5.5-4.6.6-3.1.4-5.8 1.2-8.1 2.5-2.2 1.2-3.4 3.3-3.4 6.2 0 2.7 1 4.7 3 6 2 1.3 4.5 2 7.6 2zm67.1 8.5c-3.4 0-6.2-.6-8.3-1.7-2.1-1.1-3.8-2.4-5-4-1.2-1.5-2.1-2.9-2.8-4h-.7v29.3h-10.8v-76h10.6v9h.9c.7-1.1 1.6-2.5 2.7-4s2.8-2.9 4.9-4c2.1-1.1 4.9-1.7 8.3-1.7 4.5 0 8.5 1.1 12 3.4s6.3 5.5 8.3 9.8c2 4.2 3 9.4 3 15.3s-1 11.1-3 15.4c-2 4.3-4.8 7.5-8.3 9.8-3.5 2.3-7.3 3.4-11.8 3.4zm-2.4-9.2c3.2 0 6-.9 8.1-2.6 2.1-1.7 3.8-4.1 5-7 1.1-3 1.7-6.3 1.7-10s-.6-7-1.7-9.8c-1.1-2.9-2.7-5.2-4.9-6.9-2.2-1.7-4.9-2.5-8.2-2.5-4.7 0-8.3 1.8-10.8 5.3s-3.7 8.2-3.7 13.9c0 5.8 1.3 10.5 3.8 14.1 2.4 3.7 6 5.5 10.7 5.5z" fill="#262223"/></g></g></g></svg>