<svg xmlns="http://www.w3.org/2000/svg" width="100" height="100"><path d="M40.618 11.048c-6.328 1.59-15.334 6.92-19.706 11.663-2.245 2.436-5.507 7.436-7.247 11.109-2.866 6.049-3.165 7.582-3.165 16.232 0 9.015.21 9.976 3.735 17.108 4.498 9.102 10.288 14.771 19.585 19.175C39.861 89.197 41.409 89.5 50 89.5s10.139-.303 16.18-3.165c9.297-4.404 15.087-10.073 19.585-19.175C89.294 60.02 89.5 59.075 89.5 50s-.206-10.02-3.735-17.16c-6.757-13.673-18.762-21.696-33.516-22.398-4.262-.203-9.496.07-11.631.606m.765 2.837C16.636 20.299 5.471 48.702 19.21 70.288c2.915 4.581 3.129 4.715 4.927 3.088 1.621-1.467 1.688-1.918.488-3.288-.766-.874-2.456-3.613-3.756-6.088-2.004-3.815-2.363-5.946-2.361-14 .001-8.362.32-10.099 2.66-14.5 3.187-5.992 8.7-11.434 14.832-14.641 3.806-1.99 5.966-2.353 14-2.353 8.051 0 10.186.36 14 2.363 2.475 1.3 5.214 2.99 6.088 3.756 1.369 1.2 1.819 1.136 3.269-.467 1.598-1.766 1.493-1.99-2.087-4.462-2.074-1.432-5.562-3.349-7.752-4.26-4.492-1.869-17.415-2.774-22.135-1.551m-2.356 8.852c-6.166 2.176-14.197 10.378-16.351 16.7-3.106 9.117-1.573 21.472 3.411 27.481 1.798 2.167 2.164 2.26 3.531.892 1.368-1.367 1.313-1.875-.526-4.9-6.027-9.91-4.544-21.744 3.765-30.053C41.166 24.548 53 23.065 62.91 29.092c3.025 1.839 3.533 1.894 4.9.526 1.368-1.367 1.275-1.733-.892-3.531-5.955-4.939-18.963-6.502-27.891-3.35m36.563 4.164c-1.149 1.269-1.36 2.123-.636 2.57.596.369 2.311 3.001 3.81 5.85C81.178 39.906 81.49 41.59 81.49 50c0 8.364-.317 10.098-2.658 14.5-3.187 5.992-8.7 11.434-14.832 14.641-3.806 1.99-5.966 2.353-14 2.353-8.051 0-10.186-.36-14-2.363-2.475-1.3-5.214-2.99-6.088-3.756-1.369-1.2-1.819-1.136-3.269.467-1.598 1.766-1.493 1.99 2.087 4.462 7.211 4.98 11.131 6.109 21.27 6.125 8.462.013 10.153-.302 15.478-2.888 20.464-9.935 27.513-34.658 15.336-53.791-1.662-2.613-3.131-4.75-3.263-4.75-.133 0-1.015.855-1.961 1.901m-32.032 2.538c-5.132 1.897-8.527 4.465-11.31 8.554C22.477 52.349 32.6 71.398 50 71.398c22.805 0 29.724-30.46 9.267-40.798-4.707-2.379-11.129-2.853-15.709-1.161m26.521 2.966c-.908 1.094-.718 2.14.858 4.732 5.997 9.862 4.499 21.713-3.794 30.006C58.834 75.452 47 76.935 37.09 70.908c-3.025-1.839-3.533-1.894-4.9-.526-1.368 1.367-1.275 1.733.892 3.531 6.009 4.984 18.364 6.517 27.481 3.411 6.609-2.252 14.509-10.152 16.761-16.761 3.035-8.907 1.736-20.486-3.032-27.037-2.091-2.874-2.638-3.019-4.213-1.121" fill-rule="evenodd"/></svg>