<svg width="26" height="27" xmlns="http://www.w3.org/2000/svg"><g fill="none" fill-rule="evenodd"><path d="M25.89 13.544c0 7.144-5.792 12.936-12.936 12.936S.02 20.688.02 13.544 5.81.61 12.954.61 25.89 6.4 25.89 13.544" fill="#1A96A4"/><path d="M17.811 14.919a2.807 2.807 0 00-.444-.839c-.2-.26-.448-.492-.745-.695a3.686 3.686 0 00-1.044-.479c-.16-.042-.441-.109-.812-.2-.265-.064-.513-.13-.793-.197v-3.29c.28.075.474.194.682.325.444.281.723.762.804 1.416h2.152c-.02-.56-.144-1.02-.373-1.432a3.499 3.499 0 00-1.018-1.15 4.68 4.68 0 00-1.505-.698 5.376 5.376 0 00-.742-.161V6.48h-1.991v1.032a7.766 7.766 0 00-.698.132 4.59 4.59 0 00-1.43.615 3.278 3.278 0 00-1.013 1.046c-.257.42-.383.918-.383 1.493 0 .298.043.591.129.879.085.287.231.559.437.814.205.256.482.487.83.695.348.207.768.375 1.293.503.29.073.586.14.835.204v3.72a3.099 3.099 0 01-.954-.419 1.985 1.985 0 01-.66-.743c-.149-.287-.22-.638-.23-1.012H8c.022.654.163 1.23.425 1.723.274.517.64.932 1.096 1.262.456.33.976.571 1.592.73.277.072.589.124.869.163v1.1h1.991v-1.075a7.39 7.39 0 00.887-.151 5.024 5.024 0 001.566-.631 3.438 3.438 0 001.108-1.11c.279-.452.421-.998.421-1.637a2.88 2.88 0 00-.144-.894zm-5.829-2.91c-.373-.117-.744-.284-.997-.5-.268-.229-.394-.546-.394-.95 0-.288.075-.527.218-.72.142-.19.308-.342.525-.454.192-.1.43-.173.648-.222v2.845zm3.699 4.658a1.42 1.42 0 01-.445.551c-.205.16-.49.29-.82.392-.14.043-.256.076-.443.1v-3.332a11 11 0 01.819.253c.25.086.49.232.701.44.211.207.32.53.32.966 0 .213-.04.423-.132.63z" fill="#FFF" fill-rule="nonzero"/></g></svg>