<svg xmlns="http://www.w3.org/2000/svg" width="100" height="100"><path d="M40.618 11.048c-6.328 1.59-15.334 6.92-19.706 11.663-2.245 2.436-5.507 7.436-7.247 11.109C10.803 39.861 10.5 41.409 10.5 50c0 8.706.279 10.085 3.34 16.5l3.34 7 1.885-6c1.037-3.3 4.239-13.844 7.114-23.432 4.991-16.639 5.285-17.298 6.467-14.5 3.107 7.361 2.799 10.113-3.44 30.749-3.279 10.844-5.564 19.962-5.077 20.263 1.047.647.449 2.314 7.185-20.055l5.413-17.976 1.786 5.976c.982 3.286 1.742 6.65 1.69 7.475-.053.825-1.92 7.539-4.149 14.919C33.824 78.3 32 84.675 32 85.087c0 2.059 9.896 4.413 18.552 4.413 8.455 0 9.557-.249 16.685-3.772C76.251 81.273 81.833 75.523 86.39 66c2.813-5.879 3.108-7.408 3.091-16-.017-8.314-.378-10.28-2.887-15.75-1.577-3.437-3.143-6.246-3.481-6.242-.337.005-3.75 10.33-7.584 22.945-3.835 12.616-7.187 22.722-7.451 22.458-.263-.263-1.239-2.934-2.167-5.936l-1.689-5.456 6.376-20.723C74.105 29.899 76.6 20.2 76.142 19.742c-.458-.458-3.474 7.731-6.702 18.198-3.228 10.467-6.163 18.699-6.522 18.295-.359-.404-1.38-2.933-2.27-5.618l-1.618-4.884 4.485-14.444C65.982 23.344 68 16.253 68 15.531c0-3.608-18.686-6.667-27.382-4.483M33.243 26.25c.252.688 3.512 11.375 7.245 23.75s7.23 23.063 7.772 23.75c.542.688 2.553 1.25 4.469 1.25 2.36 0 3.34-.403 3.037-1.25-.247-.687-3.524-11.375-7.283-23.75-3.759-12.375-7.26-23.062-7.781-23.75-.521-.687-2.515-1.25-4.431-1.25-2.365 0-3.338.402-3.028 1.25m10.765 1.5c.497 1.512 3.667 11.974 7.045 23.247 3.378 11.274 6.564 21.286 7.079 22.25C58.754 74.41 60.26 75 62.603 75c2.891 0 3.439-.317 3.022-1.75-5.694-19.53-14.071-46.046-14.85-47-.561-.687-2.516-1.25-4.345-1.25-3.181 0-3.286.12-2.422 2.75" fill-rule="evenodd"/></svg>