<svg xmlns="http://www.w3.org/2000/svg" width="57" height="57"><g fill="#FFF"><path d="M53.66 30.568v-2.18a8.342 8.342 0 00-3.34-6.675V18.37c0-4.604-3.745-8.35-8.35-8.35H40.3V5.01A5.015 5.015 0 0035.292 0H15.029a5.015 5.015 0 00-5.01 5.01v5.01H6.68A6.687 6.687 0 000 16.7v31.95C0 53.254 3.746 57 8.35 57h36.96c4.605 0 8.35-3.746 8.35-8.35v-1.957A5.018 5.018 0 0057 41.971v-6.68a5.018 5.018 0 00-3.34-4.723zM40.111 13.722h1.583c2.62 0 4.75 2.131 4.75 4.75v1.584h-6.333v-6.334zM26.39 3.167h8.834c.95 0 1.721.757 1.721 1.689v15.2H26.39V3.166zm-6.333 0h3.166v16.889h-3.166V3.166zm-6.334 1.689c0-.932.71-1.69 1.584-1.69h1.583v16.89h-3.167v-15.2zm-7.389 8.866H9.5v6.334H6.333a3.17 3.17 0 01-3.166-3.167 3.17 3.17 0 013.166-3.167zm44.334 35.023c0 2.806-2.273 5.088-5.065 5.088H8.232c-2.793 0-5.065-2.282-5.065-5.088V22.167a6.687 6.687 0 003.376.912h39.059c2.792 0 5.065 2.283 5.065 5.088v1.922h-5.065c-4.655 0-8.442 3.805-8.442 8.48 0 4.676 3.787 8.48 8.442 8.48h5.065v1.696zm3.166-7.05c0 .872-.77 1.583-1.715 1.583h-6.861c-2.837 0-5.146-2.131-5.146-4.75 0-2.62 2.309-4.75 5.146-4.75h6.861c.946 0 1.715.71 1.715 1.583v6.333z"/><circle cx="47.5" cy="38.5" r="1.5"/></g></svg>