<svg xmlns="http://www.w3.org/2000/svg" width="100" height="100"><path d="M40.618 11.048c-6.328 1.59-15.334 6.92-19.706 11.663-2.245 2.436-5.507 7.436-7.247 11.109-2.866 6.049-3.165 7.582-3.165 16.232 0 9.015.21 9.976 3.735 17.108 4.498 9.102 10.288 14.771 19.585 19.175C39.861 89.197 41.409 89.5 50 89.5s10.139-.303 16.18-3.165c9.297-4.404 15.087-10.073 19.585-19.175C89.294 60.02 89.5 59.075 89.5 50s-.206-10.02-3.735-17.16c-6.757-13.673-18.762-21.696-33.516-22.398-4.262-.203-9.496.07-11.631.606M19.243 37.25c.251.688 2.662 7.449 5.357 15.025l4.9 13.775 6.888-.275 6.887-.275 3.091-8.75C48.066 51.938 49.701 48 50 48c.299 0 1.933 3.938 3.632 8.75l3.09 8.75 5.139.302c2.826.167 5.133.167 5.126 0-.007-.166-2.408-6.827-5.336-14.802l-5.323-14.5H43.65l-3.537 9.746c-2.233 6.151-3.815 9.251-4.288 8.405-.413-.737-2.16-5.235-3.882-9.995L28.811 36h-5.013c-3.587 0-4.882.355-4.555 1.25m50.772 2.5c-.907 3.191-.702 4.718 1.372 10.25 1.468 3.916 2.66 5.904 2.997 5C77.122 47.664 81 36.779 81 36.432c0-.238-2.232-.432-4.96-.432-4.875 0-4.978.064-6.025 3.75" fill-rule="evenodd"/></svg>