<svg width="13" height="13" xmlns="http://www.w3.org/2000/svg"><g fill="none" fill-rule="evenodd"><path d="M3.834 5.408h-2.71a5.38 5.38 0 00.23 2.92h2.46a16.795 16.795 0 01.02-2.92zM1.856 9.344a5.504 5.504 0 002.656 2.183 11.37 11.37 0 01-.576-2.183h-2.08zm5.251-8.28a5.29 5.29 0 00-.604-.033c-.25 0-.496.018-.734.048a19.9 19.9 0 00-.787 3.314h3.143a17.123 17.123 0 00-1.018-3.33zm2.049 3.329h2.41a5.49 5.49 0 00-3.258-3.06c.266.71.61 1.775.843 3.037.002.007.005.015.005.023zm-7.721 0h2.518a22 22 0 01.655-3.03 5.492 5.492 0 00-3.173 3.03zm10.443 1.015H9.31c.117.98.134 1.93.053 2.829l-.008.091h2.293a5.38 5.38 0 00.229-2.92zm-6.124 6.439a5.594 5.594 0 001.477.003c.465-.81.762-1.66.94-2.506H4.969c.15.85.399 1.7.785 2.503zm-.899-6.439a15.899 15.899 0 00-.02 2.92H8.33a12.618 12.618 0 00-.043-2.92H4.854z"/><path d="M4 .837h1.087l-.729 7.792 1.356 3.455H4L.761 8.156C.356 6.6.356 5.362.761 4.446 1.167 3.529 2.246 2.326 4 .836zM8.539 11.51a5.509 5.509 0 002.607-2.166H9.21a9.856 9.856 0 01-.67 2.166z"/><path d="M11.093 1.902A6.475 6.475 0 006.5.012a6.467 6.467 0 00-4.59 1.89A6.382 6.382 0 00.004 6.464c0 1.724.675 3.344 1.904 4.563a6.48 6.48 0 004.591 1.89 6.467 6.467 0 004.59-1.89 6.382 6.382 0 001.905-4.563 6.39 6.39 0 00-1.902-4.562zm.475 2.49h-2.41c-.002-.007-.002-.015-.005-.022a18.299 18.299 0 00-.843-3.037 5.49 5.49 0 013.258 3.06zM5.766 1.08a5.397 5.397 0 011.338-.015c.219.505.709 1.75 1.018 3.329H4.98a19.75 19.75 0 01.787-3.314zM1.021 6.464c0-.36.035-.713.104-1.056h2.709a16.556 16.556 0 00-.023 2.92H1.353a5.341 5.341 0 01-.332-1.864zm.835 2.88h2.082c.127.774.317 1.505.576 2.183a5.499 5.499 0 01-2.658-2.183zm2.097-4.951H1.435a5.492 5.492 0 013.173-3.03c-.19.65-.47 1.724-.655 3.03zm3.278 7.457a5.623 5.623 0 01-1.478-.003 9.513 9.513 0 01-.782-2.503h3.202a8.695 8.695 0 01-.942 2.506zm1.1-3.522H4.834a15.899 15.899 0 01.02-2.92h3.433c.112.881.155 1.884.044 2.92zm.208 3.182c.3-.678.525-1.402.67-2.166h1.937A5.497 5.497 0 018.54 11.51zm.817-3.182l.008-.091c.081-.9.064-1.849-.053-2.829h2.567a5.38 5.38 0 01-.229 2.92H9.356z" fill="#fff" fill-rule="nonzero"/></g></svg>