<svg width="29" height="28" xmlns="http://www.w3.org/2000/svg"><g fill="none" fill-rule="evenodd"><circle fill="#FF0079" fill-rule="nonzero" cx="13.067" cy="13.067" r="13.067"/><rect fill="#000" fill-rule="nonzero" x="1.867" y="22.4" width="14.933" height="5.6" rx="2.8"/><path d="M13.067 26.133C5.85 26.133 0 20.283 0 13.067 0 5.85 5.85 0 13.067 0c7.216 0 13.066 5.85 13.066 13.067 0 7.216-5.85 13.066-13.066 13.066zm0-.933c6.7 0 12.133-5.432 12.133-12.133C25.2 6.366 19.768.933 13.067.933 6.366.933.933 6.366.933 13.067c0 6.7 5.433 12.133 12.134 12.133z" fill="#000" fill-rule="nonzero"/><circle fill="#FFF" fill-rule="nonzero" cx="15.867" cy="14.933" r="12.133"/><path d="M15.867 28C8.65 28 2.8 22.15 2.8 14.933c0-7.216 5.85-13.066 13.067-13.066 7.216 0 13.066 5.85 13.066 13.066C28.933 22.15 23.083 28 15.867 28zm0-.933c6.7 0 12.133-5.433 12.133-12.134C28 8.233 22.568 2.8 15.867 2.8 9.166 2.8 3.733 8.232 3.733 14.933c0 6.701 5.433 12.134 12.134 12.134z" fill="#000" fill-rule="nonzero"/><path d="M10.735 18.13H9.403l-.747-3.15a16.484 16.484 0 01-.142-.695 8.566 8.566 0 01-.115-.708c-.015.148-.053.385-.113.712-.06.326-.107.56-.14.699l-.743 3.142H6.074l-1.407-5.997h1.15l.706 3.273c.124.605.213 1.128.268 1.571.015-.156.05-.397.104-.724a8.57 8.57 0 01.153-.76l.804-3.36h1.105l.804 3.36c.036.15.08.38.132.689.053.309.093.574.121.795.025-.213.066-.479.12-.797.056-.319.107-.577.152-.774l.702-3.273h1.15l-1.403 5.997zm5.276 0h-3.178v-5.997h3.178v1.042h-2.008v1.317h1.868v1.042h-1.868v1.546h2.008v1.05zm3.28 0h-1.17v-4.938h-1.499v-1.059h4.166v1.059H19.29v4.938zm6.867 0h-1.166v-2.588h-2.185v2.588h-1.17v-5.997h1.17v2.35h2.185v-2.35h1.166v5.997z" fill="#000"/></g></svg>