<svg xmlns="http://www.w3.org/2000/svg" width="100" height="100"><path d="M9 23.258c.275.259 7.925 2.408 17 4.777s17.063 4.735 17.75 5.259c3.179 2.419.646 2.832-14 2.283l-15.25-.572 13.447 3.748L41.394 42.5l2.778 9c2.715 8.793 2.735 9.035.877 10.5-1.046.825-7.771 5.976-14.945 11.447-7.174 5.47-12.901 10.089-12.727 10.263.174.174 14.673-5.741 32.22-13.146L81.5 57.102l.292-6.969.292-6.969 3.202.918c1.76.505 3.516.918 3.902.918.986 0-4.506-11.927-5.511-11.967-.453-.018-4.006 2.458-7.896 5.502-3.891 3.044-7.448 5.406-7.905 5.25-.457-.157-3.215-4.335-6.13-9.285l-5.298-9-6.974-.622C38.988 23.943 8.428 22.72 9 23.258" fill-rule="evenodd"/></svg>