<svg xmlns="http://www.w3.org/2000/svg" width="100" height="100"><path d="M18.498 26.829c-3.3.919-6.563 2.035-7.25 2.48-1.611 1.044-1.801 34.231-.201 35.22.577.356 3.277.113 6-.54L22 62.801V52.4c0-9.067.256-10.656 2-12.4 1.1-1.1 2.696-2 3.548-2 1.263 0 1.493-1.147 1.25-6.25-.35-7.334-.822-7.56-10.3-4.921m30 0c-3.3.919-6.563 2.035-7.25 2.48-1.463.948-1.791 32.286-.362 34.542.709 1.118 1.823 1.134 6.485.09L53 62.682V40.907l3.027-1.704c2.903-1.634 3.015-1.947 2.75-7.703-.326-7.054-.856-7.295-10.279-4.671m31 0c-3.3.919-6.563 2.035-7.25 2.48-1.619 1.049-1.8 34.232-.192 35.226 1.237.764 14.853-2.341 16.717-3.813.962-.759 1.206-5.187 1-18.114-.314-19.672.303-18.725-10.275-15.779M29 40.306L25.5 41.5l-.274 17.426c-.191 12.109.069 17.638.851 18.122 1.46.902 16.183-2.861 17.152-4.384 1.476-2.321.714-4.582-1.979-5.871l-2.75-1.317-.279-13.238L37.942 39l-2.721.056c-1.497.031-4.296.594-6.221 1.25m31.299-.2c-1.76.509-3.453 1.334-3.762 1.834-.931 1.507-1.867 27.485-1.132 31.407.81 4.317 2.139 4.543 12.056 2.052 5.353-1.344 6.474-2.003 7.005-4.118.347-1.384.497-2.6.333-2.702C68.514 64.694 69 65.952 69 53.559c0-6.268-.273-12.107-.607-12.977-.668-1.741-3.204-1.89-8.094-.476" fill-rule="evenodd"/></svg>