<svg xmlns="http://www.w3.org/2000/svg" width="100" height="100"><path d="M19 18.649v8.65l10.692 10.85L40.385 49h20.411l10.602-11.368L82 26.265v-8.133C82 13.66 81.668 10 81.262 10c-.406 0-7.553 6.803-15.881 15.119L50.239 40.237 35.484 25.119C27.369 16.803 20.34 10 19.865 10c-.476 0-.865 3.892-.865 8.649m1.035-.243L20 26.311l9.717 10.095c12.228 12.702 12.685 12.947 16.404 8.785 1.583-1.772 2.861-3.553 2.838-3.957-.022-.404-6.531-7.484-14.465-15.734l-14.424-15-.035 7.906m42.783 10.677L45.135 47.5l7.129.298 7.129.298 10.849-10.849 10.849-10.849-.295-7.867-.296-7.866-17.682 18.418M30.772 60.75C25.3 66.112 20.188 71.715 19.412 73.2c-1.671 3.197-1.908 15.375-.319 16.358.627.387 8.805-7.174 19.138-17.691 9.925-10.102 16.858-16.992 15.407-15.312C52.187 58.235 51 60.041 51 60.568 51 61.678 79.158 90 80.263 90c.405 0 .737-3.72.737-8.266v-8.267L69.734 62.234 58.469 51H40.72l-9.948 9.75" fill-rule="evenodd"/></svg>