<svg xmlns="http://www.w3.org/2000/svg" style="isolation:isolate" viewBox="417 1856 227 227" width="227" height="227"><circle cx="530.5" cy="1969.5" r="113.5"/><path d="M598.081 1996.702l-3.89 15.582-10.385-2.584 3.883-15.589-15.582-3.884 2.591-10.384 15.582 3.883 3.89-15.582 10.385 2.591-3.883 15.582 15.582 3.883-2.591 10.392-15.582-3.89m-38.308-42.784c-1.449 9.637-6.702 14.319-13.647 15.989 9.5 5.018 14.311 12.756 9.621 26.246-5.824 16.752-19.457 18.236-37.558 14.846L513.691 2029l-10.606-2.641 4.433-17.773c-2.825-.7-5.643-1.43-8.452-2.191l-4.454 17.845-10.592-2.642 4.498-18.044c-2.486-.635-4.997-1.306-7.567-1.949l-13.812-3.447 5.34-12.434s7.815 2.077 7.707 1.927c3.013.735 4.355-1.271 4.891-2.606l7.094-28.464 1.128.279a8.561 8.561 0 0 0-1.107-.358l5.069-20.321c.142-2.305-.621-5.203-4.926-6.281.171-.107-7.701-1.913-7.701-1.913l2.891-11.592 14.632 3.655-.014.05c2.198.549 4.467 1.071 6.781 1.592l4.447-17.83 10.606 2.64-4.361 17.488c2.848.642 5.711 1.299 8.494 1.998l4.332-17.366 10.615 2.642-4.448 17.836c13.391 4.64 23.163 11.656 21.164 24.818m-24.461 34.868c3.505-14.061-19.572-17.558-26.767-19.357l-5.946 23.89c7.195 1.784 29.372 8.943 32.727-4.54l-.014.01m3.476-34.946c3.183-12.799-16.117-15.539-22.106-17.031l-5.403 21.678c5.989 1.499 24.447 7.615 27.509-4.647" fill-rule="evenodd" fill="#fff"/></svg>