<svg xmlns="http://www.w3.org/2000/svg" width="226.777" height="226.777"><path d="M177.174 49.819c7.424 2.874 14.387 6.273 20.76 10.168a104.697 104.697 0 018.815 6.002c-.588-13.332-5.014-24.543-13.108-32.638-7.986-7.983-19.217-12.471-32.616-13.08a105.401 105.401 0 015.98 8.787c3.896 6.373 7.295 13.336 10.169 20.761zm-31.195-35.804C136.142 5.012 125.092.219 113.649.219S91.155 5.011 81.317 14.015c10.526 1.411 21.44 4.637 32.333 9.461 10.894-4.824 21.807-8.05 32.329-9.461zM50.125 49.82c2.874-7.425 6.273-14.388 10.167-20.762a106.384 106.384 0 015.98-8.787c-13.399.609-24.63 5.097-32.614 13.08-8.096 8.094-12.521 19.306-13.108 32.638a105.573 105.573 0 018.814-6.002c6.374-3.895 13.335-7.293 20.761-10.167zm121.618 121.616a151.518 151.518 0 004.811-16.087 199.232 199.232 0 01-10.057 10.841 198.084 198.084 0 01-10.852 10.061 151.167 151.167 0 0016.098-4.815zm-72.675 16.105a155.3 155.3 0 0014.582 7.857 156.537 156.537 0 0014.583-7.857c-4.804.355-9.67.54-14.583.54s-9.78-.185-14.582-.54zm-17.751 25.132c9.838 9.003 20.89 13.796 32.333 13.796s22.493-4.793 32.332-13.796c-10.522-1.409-21.438-4.638-32.332-9.462-10.893 4.824-21.807 8.052-32.333 9.462zm95.855-35.806c-2.874 7.426-6.271 14.387-10.167 20.763a104.683 104.683 0 01-5.98 8.784c13.399-.607 24.63-5.094 32.616-13.078 8.095-8.097 12.521-19.306 13.108-32.638a105.352 105.352 0 01-8.815 6.004c-6.374 3.894-13.337 7.291-20.762 10.165zM16.322 91.474a105.577 105.577 0 01-1.988-10.477C5.324 90.84.525 101.896.525 113.342c0 11.446 4.798 22.505 13.809 32.347a105.72 105.72 0 011.988-10.478c1.754-7.261 4.272-14.588 7.491-21.87-3.219-7.281-5.738-14.606-7.491-21.867zm196.644-10.477a106.176 106.176 0 01-1.988 10.478c-1.754 7.261-4.274 14.585-7.49 21.869 3.216 7.282 5.736 14.609 7.49 21.87.862 3.568 1.52 7.061 1.988 10.478 9.01-9.842 13.808-20.901 13.808-32.347-.001-11.448-4.799-22.507-13.808-32.348zm-157.41 90.439a150.587 150.587 0 0016.098 4.814 196.95 196.95 0 01-20.909-20.902 151 151 0 004.811 16.088zm-5.431 5.431c-7.426-2.874-14.387-6.272-20.761-10.165a105.829 105.829 0 01-8.814-6.004c.588 13.332 5.013 24.541 13.108 32.638 7.984 7.984 19.214 12.471 32.614 13.078a105.652 105.652 0 01-5.98-8.784c-3.894-6.376-7.293-13.337-10.167-20.763zm-18.633-63.524a151.513 151.513 0 007.975 14.779 196.637 196.637 0 01-.554-14.779c0-4.978.187-9.912.554-14.778a151.614 151.614 0 00-7.975 14.778zm175.107-38.5c-3.646-3.134-7.754-6.107-12.31-8.891-4.387-2.68-9.078-5.108-14.015-7.287 2.485 7.848 4.424 16.117 5.781 24.685 5.099 7.016 9.577 14.235 13.366 21.545 1.954-5.032 3.552-10.065 4.759-15.063 1.254-5.189 2.056-10.198 2.419-14.989zm-26.324 93.179c4.937-2.178 9.628-4.605 14.015-7.287 4.556-2.783 8.664-5.759 12.31-8.891-.36-4.793-1.165-9.801-2.418-14.991-1.207-4.996-2.805-10.03-4.759-15.062-3.789 7.309-8.268 14.527-13.366 21.544-1.358 8.568-3.297 16.838-5.782 24.687zm15.531-54.679a151.305 151.305 0 00-7.977-14.779c.368 4.867.554 9.8.554 14.779 0 4.978-.186 9.912-.552 14.781a151.558 151.558 0 007.975-14.781zM143.66 40.938c8.561 1.357 16.824 3.294 24.667 5.78-2.178-4.938-4.606-9.629-7.287-14.016-2.779-4.547-5.748-8.652-8.874-12.291-9.564.714-19.7 3.191-29.945 7.189 7.245 3.775 14.429 8.239 21.439 13.338zM83.641 185.75c-8.562-1.357-16.826-3.296-24.668-5.781 2.176 4.938 4.606 9.63 7.286 14.017 2.778 4.547 5.747 8.651 8.875 12.29 9.564-.715 19.699-3.191 29.946-7.189-7.245-3.773-14.432-8.239-21.439-13.337zM58.972 46.718c7.84-2.485 16.106-4.422 24.667-5.78 7.007-5.099 14.194-9.563 21.439-13.337-10.248-3.999-20.382-6.476-29.946-7.189-3.128 3.639-6.096 7.744-8.875 12.291-2.679 4.386-5.109 9.077-7.285 14.015zm12.679 3.72a151.664 151.664 0 00-16.095 4.811 151.228 151.228 0 00-4.811 16.089 195.838 195.838 0 0110.058-10.841 196.082 196.082 0 0110.848-10.059zm-24.628 8.227c-4.938 2.178-9.629 4.607-14.014 7.287-4.556 2.784-8.666 5.757-12.31 8.891.361 4.791 1.164 9.8 2.416 14.988 1.208 4.998 2.807 10.033 4.759 15.063 3.791-7.309 8.267-14.528 13.366-21.545 1.357-8.566 3.295-16.836 5.783-24.684zm-26.324 93.179c3.644 3.132 7.754 6.107 12.31 8.891 4.385 2.682 9.076 5.109 14.014 7.287-2.487-7.85-4.426-16.119-5.782-24.687-5.099-7.017-9.576-14.235-13.366-21.544-1.952 5.031-3.551 10.065-4.759 15.062-1.253 5.191-2.056 10.2-2.417 14.991zm155.854-80.508c-1.34-5.556-2.943-10.934-4.811-16.088a151.883 151.883 0 00-16.098-4.811 197.257 197.257 0 0110.852 10.059c3.518 3.52 6.875 7.14 10.057 10.84zM113.65 31.288a155.467 155.467 0 00-14.584 7.858 197.41 197.41 0 0129.167 0 156.062 156.062 0 00-14.583-7.858zm54.677 148.683c-7.843 2.482-16.108 4.421-24.669 5.778-7.008 5.099-14.192 9.562-21.437 13.336 10.246 3.998 20.38 6.475 29.944 7.189 3.126-3.641 6.095-7.743 8.874-12.29 2.681-4.386 5.11-9.077 7.288-14.013zm-19.723-51.343c0-6.761-2.759-12.889-7.209-17.316a22.47 22.47 0 005.338-14.558c0-12.448-10.127-22.577-22.575-22.577H85.246a7.574 7.574 0 00-7.574 7.573v63.797a7.574 7.574 0 007.574 7.576h38.912c.342 0 .676-.033 1.006-.076 13.014-.531 23.44-11.277 23.44-24.419zM92.821 89.325h31.337c4.096 0 7.429 3.332 7.429 7.428s-3.333 7.428-7.429 7.428H92.821V89.325zm31.337 48.6c-.284 0-.563.02-.839.05H92.821V119.33h31.337c5.125 0 9.297 4.172 9.297 9.298s-4.172 9.297-9.297 9.297z"/></svg>