<svg xmlns="http://www.w3.org/2000/svg" width="226.777" height="226.777"><path d="M125.183 102.635a5.198 5.198 0 00-5.19-5.191H98.099v10.382h21.894a5.198 5.198 0 005.19-5.191z"/><path d="M113.386 0C50.765 0 0 50.765 0 113.386s50.766 113.387 113.387 113.387 113.387-50.766 113.387-113.387S176.008 0 113.386 0zm55.152 58.338c5.656 5.655 8.748 13.488 9.16 22.802a74.444 74.444 0 00-6.158-4.194c-4.453-2.72-9.319-5.096-14.505-7.104-2.009-5.186-4.384-10.051-7.104-14.504a73.64 73.64 0 00-4.179-6.139c9.362.426 17.209 3.561 22.786 9.139zm-4.06 45.562a105.895 105.895 0 015.575 10.326 106.187 106.187 0 01-5.573 10.326 137.606 137.606 0 00-.002-20.652zm8.102 16.228c1.363 3.516 2.48 7.034 3.323 10.525.875 3.624 1.438 7.124 1.691 10.473-2.548 2.188-5.419 4.267-8.602 6.212a83.177 83.177 0 01-9.792 5.09c1.738-5.481 3.093-11.261 4.041-17.246 3.561-4.903 6.69-9.948 9.339-15.054zm-9.338-26.858c-.949-5.985-2.303-11.763-4.041-17.246a82.886 82.886 0 019.792 5.092c3.183 1.944 6.054 4.021 8.602 6.211-.254 3.347-.816 6.846-1.691 10.473-.843 3.492-1.96 7.008-3.323 10.523-2.65-5.106-5.779-10.151-9.339-15.053zm-13.668-15.967a137.789 137.789 0 00-7.58-7.027c3.884.934 7.644 2.058 11.245 3.36a105.392 105.392 0 013.36 11.241 136.055 136.055 0 00-7.025-7.574zm7.025 66.271a105.717 105.717 0 01-3.36 11.241 105.315 105.315 0 01-11.248 3.362 137.14 137.14 0 0014.608-14.603zm-10.837-85.689c1.872 3.063 3.568 6.341 5.09 9.792-5.479-1.736-11.253-3.091-17.233-4.04-4.897-3.563-9.919-6.681-14.979-9.317 7.158-2.794 14.24-4.525 20.922-5.024 2.182 2.543 4.259 5.41 6.2 8.589zm-25.065 84.082a5.648 5.648 0 01-.704.051H92.805a5.29 5.29 0 01-5.291-5.291V92.152a5.291 5.291 0 015.291-5.291h27.188c8.697 0 15.772 7.076 15.772 15.774 0 3.873-1.404 7.422-3.73 10.171a17.023 17.023 0 015.038 12.1c0 9.18-7.284 16.691-16.376 17.061zm2.144 24.098a108.563 108.563 0 01-10.189 5.49 108.066 108.066 0 01-10.189-5.49 137.728 137.728 0 0020.378 0zm-20.38-103.678a108.2 108.2 0 0110.19-5.491 108.808 108.808 0 0110.189 5.491c-3.357-.25-6.758-.377-10.189-.377-3.432 0-6.832.127-10.19.377zm10.191-27.199c7.993 0 15.715 3.349 22.589 9.639-7.354.985-14.979 3.239-22.589 6.61-7.612-3.371-15.238-5.625-22.591-6.61 6.874-6.29 14.595-9.639 22.591-9.639zm-5.99 19.132c-5.063 2.636-10.082 5.755-14.979 9.317-5.982.948-11.756 2.303-17.234 4.04 1.521-3.451 3.218-6.728 5.091-9.792 1.94-3.179 4.015-6.046 6.198-8.589 6.684.499 13.765 2.23 20.924 5.024zm-30.934 96.829a137.494 137.494 0 007.581 7.028 105.779 105.779 0 01-11.248-3.362 105.554 105.554 0 01-3.36-11.241 137.57 137.57 0 007.027 7.575zm-7.027-66.272a105.694 105.694 0 013.36-11.241 106.042 106.042 0 0111.246-3.36 137.428 137.428 0 00-14.606 14.601zM56.762 58.338c5.578-5.578 13.425-8.713 22.788-9.139a74.045 74.045 0 00-4.178 6.139c-2.721 4.454-5.096 9.318-7.105 14.504-5.187 2.01-10.05 4.384-14.505 7.104a73.591 73.591 0 00-6.157 4.194c.409-9.314 3.502-17.147 9.157-22.802zm4.059 66.214a106.403 106.403 0 01-5.573-10.326 106.158 106.158 0 015.573-10.324 137.021 137.021 0 00-.387 10.324c0 3.479.13 6.924.387 10.326zm1.239 10.629c.947 5.985 2.302 11.765 4.04 17.246a83.177 83.177 0 01-9.792-5.09c-3.183-1.945-6.054-4.023-8.599-6.212.253-3.348.813-6.849 1.689-10.473a82.536 82.536 0 013.325-10.524c2.647 5.106 5.774 10.151 9.337 15.053zm0-41.91c-3.563 4.902-6.69 9.946-9.338 15.052-1.365-3.515-2.482-7.031-3.325-10.525-.876-3.625-1.437-7.124-1.689-10.471 2.545-2.189 5.417-4.267 8.599-6.211a82.886 82.886 0 019.792-5.092c-1.736 5.483-3.091 11.262-4.039 17.247zm-18.8 43.553c-6.296-6.874-9.648-14.601-9.648-22.599 0-7.997 3.352-15.723 9.648-22.598a73.832 73.832 0 001.389 7.319c1.225 5.073 2.985 10.191 5.234 15.279-2.249 5.089-4.009 10.208-5.234 15.279a74.196 74.196 0 00-1.389 7.32zm13.502 33.29c-5.655-5.655-8.748-13.487-9.157-22.803a72.95 72.95 0 006.157 4.194c4.455 2.72 9.318 5.095 14.505 7.104 2.009 5.187 4.384 10.051 7.105 14.504a73.545 73.545 0 004.178 6.139c-9.363-.424-17.21-3.558-22.788-9.138zm22.779.455a82.818 82.818 0 01-5.091-9.793c5.479 1.735 11.254 3.091 17.235 4.038 4.896 3.563 9.917 6.683 14.978 9.318-7.159 2.793-14.24 4.525-20.924 5.023-2.184-2.541-4.258-5.409-6.198-8.586zm33.111 22.695c-7.996 0-15.717-3.348-22.591-9.64 7.353-.984 14.979-3.239 22.591-6.61 7.61 3.371 15.237 5.626 22.589 6.61-6.874 6.293-14.597 9.64-22.589 9.64zm5.987-19.133c5.061-2.635 10.082-5.754 14.978-9.316 5.982-.947 11.756-2.303 17.235-4.037a83.177 83.177 0 01-5.09 9.792c-1.941 3.176-4.019 6.043-6.201 8.585-6.681-.498-13.762-2.229-20.922-5.024zm49.899-4.017c-5.577 5.58-13.424 8.714-22.786 9.139a73.31 73.31 0 004.179-6.139c2.721-4.453 5.096-9.317 7.104-14.504 5.187-2.01 10.053-4.384 14.506-7.104a73.953 73.953 0 006.158-4.194c-.413 9.315-3.505 17.147-9.161 22.802zm13.503-33.29a73.544 73.544 0 00-1.389-7.319c-1.227-5.073-2.985-10.191-5.234-15.279 2.249-5.088 4.008-10.206 5.234-15.279a73.508 73.508 0 001.389-7.32c6.295 6.876 9.647 14.602 9.647 22.599s-3.352 15.724-9.647 22.598z"/><path d="M119.993 118.409H98.099v13.024h21.308c.192-.021.389-.032.586-.032a6.503 6.503 0 006.495-6.495 6.503 6.503 0 00-6.495-6.497z"/></svg>