<svg xmlns="http://www.w3.org/2000/svg" width="226.777" height="226.777"><path d="M193.424 50.858h-46.207l-80.195 80.196H46.316l-14.883-14.882v-18.88l14.93-14.929H65.9L76.372 92.8a3.727 3.727 0 002.702 1.163 3.717 3.717 0 002.801-1.282L98.641 75.96v-.015a3.734 3.734 0 00.033-5.251v-.007L78.92 50.93H33.342L0 84.272v44.92l33.295 33.295H80.04l80.196-80.196h20.168l15.058 15.059v19.197l-14.618 14.619h-22.675l-8.661-8.66h-.007a3.728 3.728 0 00-5.26-.063h-.015L124.61 142.06v45.794a3.744 3.744 0 003.742 3.742h23.929a3.743 3.743 0 003.736-3.719l.026-18.836.012-.012a6.44 6.44 0 016.436-6.43h31.372l33.032-33.033V84.331l-33.471-33.473z"/></svg>