<svg xmlns="http://www.w3.org/2000/svg" width="100" height="100"><path d="M5 39v4h8v-8H5v4m12 0c0 3.905.083 4 3.5 4s3.5-.095 3.5-4-.083-4-3.5-4-3.5.095-3.5 4m11 0c0 3.905.083 4 3.5 4s3.5-.095 3.5-4-.083-4-3.5-4-3.5.095-3.5 4m11 11.643v15.643l7.846-.538c13.658-.936 18.534-5.418 17.913-16.466C64.19 39.161 58.734 35 46.032 35H39v15.643m31-.026c0 18.927 1.791 20.143 2.217 1.505l.283-12.344 10.415 13.111C88.643 60.1 93.706 66 94.165 66c.459 0 .835-6.975.835-15.5 0-19.287-1.822-21.174-2.221-2.301L92.5 61.398 82.166 48.449c-5.684-7.122-10.746-13.099-11.25-13.282-.53-.193-.916 6.318-.916 15.45m-24-.749V59h3.927C54.888 59 58 55.521 58 49.976c0-5.13-2.543-7.971-7.76-8.671L46 40.737v9.131M17 50c0 3.905.083 4 3.5 4s3.5-.095 3.5-4-.083-4-3.5-4-3.5.095-3.5 4m11 0c0 3.905.083 4 3.5 4s3.5-.095 3.5-4-.083-4-3.5-4-3.5.095-3.5 4m0 12c0 3.905.083 4 3.5 4s3.5-.095 3.5-4-.083-4-3.5-4-3.5.095-3.5 4" fill-rule="evenodd"/></svg>