<svg xmlns="http://www.w3.org/2000/svg" width="100" height="100"><path d="M40.5 11.409c-5.025 1.245-11.309 4.221-14.967 7.087-1.887 1.479-1.443 2.067 10.986 14.523l12.953 12.982 13.191-13.164c13.133-13.105 13.182-13.171 11.014-14.863-5.899-4.604-16.649-8.069-24.476-7.889-2.036.047-5.951.643-8.701 1.324M13.697 33.75C10.799 39.869 10.5 41.388 10.5 50c0 8.591.303 10.139 3.165 16.18 5.674 11.977 15.402 19.847 28.22 22.831 26.504 6.169 52.209-18.666 47.239-45.64C87.925 36.861 83.736 27 82.17 27c-.438 0-2.02 1.278-3.516 2.839l-2.721 2.84 2.195 4.91c3.368 7.538 3.193 18.19-.421 25.577-5.448 11.135-15.197 17.211-27.713 17.271-6.216.03-8.477-.439-13.16-2.73-6.519-3.189-12.139-8.959-15.182-15.585-2.968-6.462-2.888-17.739.174-24.546l2.215-4.924-2.707-2.826C19.844 28.272 18.236 27 17.76 27s-2.304 3.038-4.063 6.75m15.401 9.399c-2.335 6.698-.223 16.67 4.707 22.225 2.789 3.142 11.295 6.606 16.249 6.616 6.775.015 14.469-4.168 18.049-9.813 3.394-5.351 4.358-9.629 3.48-15.434-1.238-8.19-1.648-8.114-12.053 2.237L50 58.46l-9.269-9.23C35.633 44.154 31.177 40 30.829 40c-.348 0-1.127 1.417-1.731 3.149" fill-rule="evenodd"/></svg>