<svg xmlns="http://www.w3.org/2000/svg" style="isolation:isolate" viewBox="1854.379 1029 226.777 226.777" width="226.777" height="226.777"><path d="M1939.845 1110.139c0-5.225-3.685-9.525-10.441-9.525h-.123l-.113.019h-66.852c16.63-41.963 57.583-71.633 105.451-71.633 62.629 0 113.389 50.76 113.389 113.389 0 6.368-.529 12.623-1.54 18.709h-51.384l5.745-21.478c1.379-5.216 2.768-11.055 2.768-15.667 0-14.882-9.071-23.953-23.811-23.953-12.435 0-22.262 6.142-29.481 14.901-3.222-9.061-10.593-14.901-21.799-14.901-9.213 0-15.969 4.914-21.809 10.139zm62.808 59.274c-2.523 9.354 1.257 14.967 8.589 15.336v.018h61.722c-16.791 41.623-57.555 71.01-105.197 71.01-62.618 0-113.388-50.77-113.388-113.388 0-6.161.501-12.199 1.446-18.095h56.902l-12.038 45.119c-2.618 9.676 1.53 15.354 9.364 15.354 6.142 0 11.055-4.299 13.058-11.82l9.515-35.321c2.608-9.827 8.287-16.432 17.51-16.432 7.209 0 10.894 3.534 10.894 10.139 0 1.994-.453 5.065-1.067 7.37l-8.297 30.71c-2.608 9.676 1.54 15.354 9.374 15.354 6.142 0 11.055-4.299 13.039-11.82l9.534-35.321c2.608-9.827 8.287-16.432 17.5-16.432 7.219 0 10.904 3.534 10.904 10.139 0 1.994-.463 5.065-1.077 7.37l-8.287 30.71z" fill-rule="evenodd"/></svg>