<svg xmlns="http://www.w3.org/2000/svg" width="226.777" height="226.777"><path d="M113.448.122C50.862.122.123 50.861.123 113.451c0 62.588 50.739 113.326 113.326 113.326 62.59 0 113.329-50.738 113.329-113.326C226.777 50.861 176.039.122 113.448.122zm17.643 183.634a72.546 72.546 0 01-17.642 2.167c-40.025 0-72.471-32.448-72.471-72.472 0-30.076 18.319-55.869 44.405-66.837v84.169l10.76 10.734h34.948v42.239zm10.426-3.471V96.118l-10.763-10.734H95.809V43.143a72.634 72.634 0 0117.64-2.167c40.026 0 72.474 32.448 72.474 72.475 0 30.072-18.32 55.866-44.406 66.834z"/></svg>