<svg xmlns="http://www.w3.org/2000/svg" width="100" height="100"><path d="M22.256 11.087c-4.536 1.352-9.967 7.128-11.277 11.992-.709 2.631-.991 13.08-.791 29.257.301 24.245.396 25.299 2.612 28.864 1.266 2.034 3.966 4.734 6 6 3.627 2.255 4.242 2.3 31.2 2.3s27.573-.045 31.2-2.3c2.034-1.266 4.734-3.966 6-6 2.255-3.627 2.3-4.242 2.3-31.2s-.045-27.573-2.3-31.2c-1.266-2.034-3.966-4.734-6-6-3.59-2.232-4.473-2.306-29.7-2.49-14.467-.106-27.439.239-29.244.777M42.535 38c-4.895 7.923-8.467 14.734-8.154 15.549C34.784 54.6 36.637 55 41.096 55h6.16l-.599 3.75c-.329 2.063-.896 6.95-1.258 10.86-.646 6.954-.019 9.009 2.309 7.57C49.282 76.208 67 46.106 67 44.405 67 43.341 65.403 43 60.415 43H53.83l.335-9.22c.497-13.67-.886-13.168-11.63 4.22" fill-rule="evenodd"/></svg>