<svg xmlns="http://www.w3.org/2000/svg" width="100" height="100"><path d="M40.746 11.022c-2.065.522-6.018 2.096-8.786 3.498-29.205 14.8-28.859 56.119.594 70.98 5.579 2.815 6.656 3 17.446 3 10.792 0 11.866-.185 17.438-3 7.839-3.961 15.125-11.459 18.947-19.5 2.738-5.759 3.091-7.526 3.102-15.5.009-6.04-.564-10.644-1.741-14-3.483-9.929-13.456-20.069-23.46-23.851-5.6-2.117-18.164-2.986-23.54-1.627m.65 10.332c-4.856 1.596-12.909 6.934-13.744 9.111C27.142 31.794 28.734 32 39.531 32c6.858 0 12.469.248 12.469.552 0 .303-1.013 2.325-2.25 4.492l-2.25 3.941-12.781.007c-14.703.009-14.257-.29-14.158 9.508.163 16.14 13.334 28.845 29.975 28.915 8.063.034 15.861-3.088 20.932-8.381L74.374 68H54.187C43.084 68 34 67.786 34 67.524s4.544-8.362 10.099-18L54.198 32h5.96c3.278 0 5.767.337 5.531.75C54.875 51.655 52 56.829 52 57.383c0 .37 6.188.548 13.75.395L79.5 57.5l.3-6.341c.782-16.53-11.021-29.646-27.648-30.723-4.049-.262-8.258.097-10.756.918m35.666 6.081l-2.264 2.409 3.189 6.478c2.691 5.466 3.189 7.605 3.189 13.678 0 6.07-.499 8.213-3.183 13.666-3.05 6.196-3.11 6.547-1.433 8.4 2.426 2.681 3.615 2.418 6.006-1.328 7.635-11.968 8.254-26.636 1.645-39.005-3.551-6.646-4.441-7.181-7.149-4.298" fill-rule="evenodd"/></svg>