<svg xmlns="http://www.w3.org/2000/svg" width="100" height="100"><path d="M51.637 15.484l-8.863 5.296 7.363 4.208C63.401 32.569 62.43 31.149 63 43.791l.5 11.083 8.5-4.81 8.5-4.811.279-11.882.279-11.882-9.892-5.744c-5.441-3.16-10.066-5.702-10.279-5.65-.213.051-4.375 2.477-9.25 5.389M41.193 26.222c.293 4.031.587 4.38 6.519 7.748l6.213 3.528.287 7.295c.278 7.033.406 7.371 3.571 9.37l3.283 2.075-.283-11.798-.283-11.799-9-5.303c-4.95-2.917-9.363-5.311-9.807-5.321-.445-.009-.67 1.883-.5 4.205m-18.985 6.896L12 39.102l.015 10.699c.009 5.884.346 11.174.75 11.754C13.495 62.603 29.408 72 30.453 72c.301 0 .547-5.087.547-11.304V49.392L40.5 44c5.225-2.965 9.5-5.682 9.5-6.037 0-.355-2.138-1.83-4.75-3.277a304.958 304.958 0 01-8.792-5.092l-4.042-2.459-10.208 5.983M41.75 44.643L32 50.219v11.474c0 6.31.337 11.309.75 11.108C39.394 69.564 39 70.242 39 62.052v-7.626l6.5-3.738c6.283-3.614 6.5-3.872 6.5-7.713 0-2.186-.112-3.96-.25-3.942-.138.019-4.638 2.543-10 5.61m3.992 8.271c-1.516.972-3.005 2.016-3.308 2.318-.501.502 15.568 10.175 18.176 10.942.61.179 5.459-2.131 10.774-5.134l9.665-5.46-3.708-2.237-3.707-2.238-4.067 2.509c-8.161 5.033-7.903 5.015-14.597 1.028-3.362-2.003-6.194-3.609-6.292-3.569-.098.04-1.419.869-2.936 1.841M71.5 62.512c-4.95 2.982-9.397 5.436-9.881 5.455-.485.018-4.813-2.217-9.619-4.967-4.806-2.75-9.246-5-9.869-5-1.653 0-1.542 19.416.119 20.785.688.566 5.228 3.324 10.089 6.128l8.84 5.099 9.91-5.562L81 78.887V67.944c0-6.019-.112-10.924-.25-10.899-.138.025-4.3 2.485-9.25 5.467" fill-rule="evenodd"/></svg>