<svg xmlns="http://www.w3.org/2000/svg" width="100" height="100"><path d="M26.06 12.11l-4.44 1.969 12.089 5.86a2571.308 2571.308 0 0022.19 10.612L66 35.302v5.849c0 3.217.441 5.849.98 5.849.539 0 2.789-.724 5-1.609L76 43.783V31.38L53.75 20.674C41.512 14.785 31.275 10.007 31 10.054c-.275.048-2.498.973-4.94 2.056M20 20.939v5.844l15 7.283c8.25 4.006 15 7.57 15 7.92 0 .351-6.75 3.839-15 7.752l-15 7.114v11.822l10.75 5.046a6856.04 6856.04 0 0122.5 10.625L65 89.925V78.339l-15.25-7.263-15.25-7.263 15.25-7.642L65 48.53v-6.046c0-5.663-.174-6.115-2.75-7.142-1.513-.603-11.638-5.405-22.5-10.671L20 15.095v5.844m50.75 30.325L66 53.25v36.742l5.25-1.996c2.888-1.097 5.362-1.995 5.5-1.995.65-.002.155-35.936-.5-36.303-.412-.231-2.888.473-5.5 1.566" fill-rule="evenodd"/></svg>