<svg xmlns="http://www.w3.org/2000/svg" style="isolation:isolate" viewBox="1854.156 1856 227 227" width="227" height="227"><path d="M1962.461 2083.009c-2.787-.288-5.571-.547-8.358-.877a112.25 112.25 0 0 1-42.532-14.075c-.197-.102-.373-.257-.754-.515 22.762-17.026 45.421-33.949 68.206-50.973l6.862 6.676c3.817 3.734 7.655 7.429 11.401 11.215.929.93 1.6.918 2.684.361a73.762 73.762 0 0 0 28.147-24.661l1.106-1.629c.32.371.618.669.865 1 7.915 10.546 15.819 21.092 23.764 31.606.691.908.61 1.444-.123 2.269-18.398 20.906-41.264 33.783-68.825 38.189-3.467.557-6.986.764-10.484 1.146-.464.051-.929.175-1.382.268h-10.577zm10.008-227.008c1.92.197 3.85.402 5.779.578 16.262 1.548 31.472 6.367 45.64 14.446.206.123.381.269.721.516l-69.319 49.725c-.919-.867-1.807-1.693-2.684-2.548-4.87-4.748-9.76-9.484-14.599-14.271-.774-.764-1.363-.847-2.334-.361a73.744 73.744 0 0 0-28.581 25.011l-1.031 1.547-25.467-33.927c2.568-2.724 4.942-5.439 7.511-7.945 16.747-16.334 36.631-26.724 59.672-30.904 4.437-.806 8.968-1.074 13.455-1.6.506-.051 1.013-.175 1.507-.268h9.731l-.001.001zm-103.266 57.104l51.542 67.566-10.401 10.668c-2.59 2.652-5.16 5.335-7.802 7.946-.742.742-.774 1.309-.32 2.219a73.605 73.605 0 0 0 25.003 28.582c.361.226.722.464 1.062.722.062.041.093.145.279.494l-33.649 25.241c-20.122-17.325-33.174-38.675-38.416-64.564-5.613-27.716-1.062-53.905 12.713-78.874h-.011zm146.265 45.092l9.473-9.834c2.641-2.745 5.242-5.521 7.946-8.194.845-.835.835-1.465.34-2.455a73.637 73.637 0 0 0-25.28-28.871c-.382-.259-.754-.537-1.404-1.001l33.834-25.383c19.163 16.405 31.885 36.63 37.725 61.034 7.296 30.459.796 60.59-11.835 81.805l-50.799-67.101z"/></svg>