<svg xmlns="http://www.w3.org/2000/svg" style="isolation:isolate" viewBox="1489 1856 227 227" width="227" height="227"><circle cx="1602.5" cy="1969.5" r="113.5"/><path d="M1599.27 2039.999c-1.731-.179-3.461-.34-5.192-.545a69.726 69.726 0 01-26.417-8.742c-.122-.063-.232-.16-.468-.32 14.137-10.575 28.212-21.086 42.364-31.66l4.261 4.147c2.371 2.319 4.755 4.614 7.082 6.966.577.577.994.57 1.667.224a45.818 45.818 0 0017.483-15.318l.686-1.012c.199.231.384.416.538.622 4.916 6.55 9.825 13.1 14.76 19.631.429.563.379.897-.077 1.409-11.427 12.985-25.629 20.983-42.748 23.72-2.153.346-4.339.474-6.512.712-.288.031-.576.108-.858.166h-6.569m6.216-140.998c1.192.122 2.391.249 3.589.359 10.101.961 19.548 3.954 28.348 8.972.128.077.236.167.448.321l-43.055 30.885c-.571-.538-1.123-1.052-1.667-1.583-3.025-2.949-6.063-5.891-9.069-8.864-.48-.474-.846-.526-1.449-.224a45.812 45.812 0 00-17.752 15.534l-.641.962-15.818-21.073c1.596-1.692 3.07-3.378 4.666-4.935 10.402-10.145 22.752-16.598 37.063-19.195 2.756-.5 5.57-.667 8.357-.994.315-.031.629-.108.936-.166h6.045l-.001.001m-64.141 35.468l32.014 41.966-6.46 6.626c-1.609 1.647-3.205 3.314-4.846 4.936-.461.461-.481.813-.199 1.378a45.728 45.728 0 0015.53 17.753c.224.14.448.288.659.448.039.025.058.09.174.307l-20.9 15.677c-12.498-10.76-20.605-24.021-23.861-40.101-3.486-17.215-.659-33.481 7.896-48.99h-.01m90.848 28.007l5.884-6.108c1.64-1.705 3.256-3.429 4.935-5.089.525-.519.519-.91.212-1.525a45.753 45.753 0 00-15.703-17.933c-.236-.16-.468-.333-.871-.621l21.014-15.766c11.903 10.19 19.805 22.752 23.432 37.909 4.532 18.919.494 37.633-7.351 50.811l-31.552-41.678" fill-rule="evenodd" fill="#fff"/></svg>