<?xml version="1.0" encoding="utf-8"?>
<!-- Generator: Adobe Illustrator 23.0.1, SVG Export Plug-In . SVG Version: 6.00 Build 0)  -->
<svg version="1.1" id="Layer_1" xmlns="http://www.w3.org/2000/svg" xmlns:xlink="http://www.w3.org/1999/xlink" x="0px" y="0px"
	 viewBox="0 0 300 300" style="enable-background:new 0 0 300 300;" xml:space="preserve">
<style type="text/css">
	.st0{fill-rule:evenodd;clip-rule:evenodd;fill:#040000;}
</style>
<path class="st0" d="M176.6,83L150,37.1L123.4,83L96.9,37.1L31.5,150l65.4,112.9l26.6-45.8l26.6,45.8l26.6-45.8l26.6,45.8L268.5,150
	L203.1,37.1C203.1,37.1,176.6,83,176.6,83z M188.8,195.8l26.6-45.8l-26.6-45.8l14.3-24.7L244,150l-40.8,70.5L188.8,195.8
	L188.8,195.8z M135.7,104.2L150,79.5l14.3,24.7L150,128.8L135.7,104.2z M56,150l40.8-70.5l14.3,24.7L84.6,150l26.6,45.8l-14.3,24.7
	L56,150L56,150z M162.3,150l14.3-24.7l14.3,24.7l-14.3,24.7C176.6,174.7,162.3,150,162.3,150z M109.1,150l14.3-24.7l14.3,24.7
	l-14.3,24.7L109.1,150L109.1,150z M135.7,195.8l14.3-24.7l14.3,24.7L150,220.5C150,220.5,135.7,195.8,135.7,195.8z"/>
</svg>
