<?xml version="1.0" encoding="utf-8"?>
<!-- Generator: Adobe Illustrator 23.0.1, SVG Export Plug-In . SVG Version: 6.00 Build 0)  -->
<svg version="1.1" id="Layer_1" xmlns="http://www.w3.org/2000/svg" xmlns:xlink="http://www.w3.org/1999/xlink" x="0px" y="0px"
	 viewBox="0 0 300 300" style="enable-background:new 0 0 300 300;" xml:space="preserve">
<style type="text/css">
	.st0{fill:#DADADA;}
	.st1{fill:#F4F4F4;}
</style>
<path class="st0" d="M96.4,195.5l23.1-23.3L97.1,150H31.9L96.4,195.5z"/>
<path class="st1" d="M96.4,104.5l23.1,23.3L97.1,150H31.9L96.4,104.5z M104.5,203.6l23.3-23.1l22.2,22.3v65.2L104.5,203.6z"/>
<path class="st0" d="M195.5,203.6l-23.3-23.1L150,202.9v65.2L195.5,203.6z"/>
<path class="st1" d="M203.6,195.5l-23.1-23.3l22.3-22.2h65.2L203.6,195.5z"/>
<path class="st0" d="M203.6,104.5l-23.1,23.3l22.3,22.2h65.2L203.6,104.5z"/>
<g>
	<path class="st0" d="M195.5,96.4l-23.3,23.1L150,97.1V31.9L195.5,96.4z"/>
	<path class="st1" d="M104.5,96.4l23.3,23.1L150,97.1V31.9L104.5,96.4z"/>
</g>
<path class="st0" d="M112.8,150l37.2-37.2l37.2,37.2L150,187.2L112.8,150z"/>
</svg>
