<svg viewBox="0 0 256 256" fill="none" xmlns="http://www.w3.org/2000/svg">
<path d="M188.124 118.141C186.906 117.069 185.326 116.482 183.69 116.493L125.335 116.505C117.623 116.505 111.649 123.805 114.217 131.747C115.766 136.539 120.707 139.5 125.828 139.5H159.528C160.128 139.502 160.718 139.652 161.245 139.934C161.771 140.216 162.218 140.623 162.544 141.117C162.87 141.611 163.066 142.177 163.113 142.764C163.161 143.351 163.058 143.94 162.815 144.478C159.579 151.577 154.318 157.605 147.667 161.835C141.017 166.065 133.26 168.316 125.335 168.317C99.9985 168.317 80.0212 145.81 85.0218 120.064C88.1401 104.013 101.488 91.2093 117.885 88.3357C123.697 87.2845 129.672 87.4844 135.397 88.9218C141.122 90.3592 146.461 92.9997 151.044 96.6606C151.131 96.6869 151.216 96.7206 151.297 96.7615C156.223 100.834 165.196 100.7 169.344 95.8649C172.981 91.6195 172.926 85.2716 169.543 81.0845C157.968 70.5742 142.559 64.0716 125.6 64.0044C120.286 63.982 115.311 60.5682 114.002 55.5159C112.019 47.8634 117.86 41 125.335 41C174.224 41 214 80.0266 214 127.999C214 175.971 174.221 215 125.335 215C117.776 215 111.889 207.982 114.073 200.226C115.443 195.358 120.172 191.996 125.321 191.996C161.289 192.002 190.555 163.291 190.555 127.999C190.555 126.071 190.457 124.168 190.272 122.288C190.107 120.691 189.341 119.213 188.124 118.141Z" fill="url(#paint0_linear)"/>
<path d="M102.271 59.1251C102.271 65.1312 97.4301 70.0001 91.4585 70.0001C85.4869 70.0001 80.646 65.1312 80.646 59.1251C80.646 53.119 85.4869 48.2501 91.4585 48.2501C97.4301 48.2501 102.271 53.119 102.271 59.1251Z" fill="url(#paint1_linear)"/>
<path d="M77.0416 91.7501C77.0416 97.7562 72.2007 102.625 66.2291 102.625C60.2575 102.625 55.4166 97.7562 55.4166 91.7501C55.4166 85.744 60.2575 80.8751 66.2291 80.8751C72.2007 80.8751 77.0416 85.744 77.0416 91.7501Z" fill="url(#paint2_linear)"/>
<path d="M51.8125 135.25C57.7841 135.25 62.625 130.381 62.625 124.375C62.625 118.369 57.7841 113.5 51.8125 113.5C45.8409 113.5 41 118.369 41 124.375C41 130.381 45.8409 135.25 51.8125 135.25Z" fill="url(#paint3_linear)"/>
<path d="M77.0416 164.25C77.0416 170.256 72.2007 175.125 66.2291 175.125C60.2575 175.125 55.4166 170.256 55.4166 164.25C55.4166 158.244 60.2575 153.375 66.2291 153.375C72.2007 153.375 77.0416 158.244 77.0416 164.25Z" fill="url(#paint4_linear)"/>
<path d="M91.4585 207.75C97.4301 207.75 102.271 202.881 102.271 196.875C102.271 190.869 97.4301 186 91.4585 186C85.4869 186 80.646 190.869 80.646 196.875C80.646 202.881 85.4869 207.75 91.4585 207.75Z" fill="url(#paint5_linear)"/>
<path fill-rule="evenodd" clip-rule="evenodd" d="M256 128C256 198.692 198.692 256 128 256C57.3076 256 0 198.692 0 128C0 57.3076 57.3076 0 128 0C198.692 0 256 57.3076 256 128ZM240 128C240 189.856 189.856 240 128 240C66.1441 240 16 189.856 16 128C16 66.1441 66.1441 16 128 16C189.856 16 240 66.1441 240 128Z" fill="url(#paint6_linear)"/>
<defs>
<linearGradient id="paint0_linear" x1="128" y1="256" x2="128" y2="0" gradientUnits="userSpaceOnUse">
<stop stop-color="#9F2FFF"/>
<stop offset="1" stop-color="#0BB1D3"/>
</linearGradient>
<linearGradient id="paint1_linear" x1="128" y1="256" x2="128" y2="0" gradientUnits="userSpaceOnUse">
<stop stop-color="#9F2FFF"/>
<stop offset="1" stop-color="#0BB1D3"/>
</linearGradient>
<linearGradient id="paint2_linear" x1="128" y1="256" x2="128" y2="0" gradientUnits="userSpaceOnUse">
<stop stop-color="#9F2FFF"/>
<stop offset="1" stop-color="#0BB1D3"/>
</linearGradient>
<linearGradient id="paint3_linear" x1="128" y1="256" x2="128" y2="0" gradientUnits="userSpaceOnUse">
<stop stop-color="#9F2FFF"/>
<stop offset="1" stop-color="#0BB1D3"/>
</linearGradient>
<linearGradient id="paint4_linear" x1="128" y1="256" x2="128" y2="0" gradientUnits="userSpaceOnUse">
<stop stop-color="#9F2FFF"/>
<stop offset="1" stop-color="#0BB1D3"/>
</linearGradient>
<linearGradient id="paint5_linear" x1="128" y1="256" x2="128" y2="0" gradientUnits="userSpaceOnUse">
<stop stop-color="#9F2FFF"/>
<stop offset="1" stop-color="#0BB1D3"/>
</linearGradient>
<linearGradient id="paint6_linear" x1="128" y1="256" x2="128" y2="0" gradientUnits="userSpaceOnUse">
<stop stop-color="#9F2FFF"/>
<stop offset="1" stop-color="#0BB1D3"/>
</linearGradient>
</defs>
</svg>
