<?xml version="1.0" encoding="UTF-8"?>
<svg width="60px" height="60px" viewBox="0 0 60 60" version="1.1" xmlns="http://www.w3.org/2000/svg" xmlns:xlink="http://www.w3.org/1999/xlink">
    <!-- Generator: Sketch 55.2 (78181) - https://sketchapp.com -->
    <title>favicon_perkle_60 copy</title>
    <desc>Created with Sketch.</desc>
    <g id="favicon_perkle_60-copy" stroke="none" stroke-width="1" fill="none" fill-rule="evenodd">
        <g id="logo" transform="translate(10.000000, 5.000000)" fill="#F9F9F9">
            <g id="Group" transform="translate(0.625000, 0.000000)">
                <path d="M2.84162374,7.18362359 L12.9742779,3.94391273 C13.3132636,3.83552895 13.5668924,3.55195379 13.6369283,3.2030222 L14.1217687,0.787460285 C14.2136858,0.329512932 14.615909,0 15.0829899,0 L17.5420074,0 C18.0038543,0 18.4030709,0.322333594 18.5003878,0.773811119 L19.0251132,3.20814169 C19.0997079,3.55420486 19.3550745,3.83317486 19.6932124,3.93799301 L30.1908215,7.19210883 C30.7079988,7.35242675 30.9972905,7.90164515 30.8369726,8.41882246 C30.8344182,8.4270629 30.8317551,8.43526925 30.8289841,8.44343938 L25.6838178,23.6134145 L21.7116751,23.6134145 L25.8586242,11.4499038 C25.9896678,11.0655367 25.7843086,10.6477138 25.3999415,10.5166701 C25.386216,10.5119907 25.3723551,10.5077183 25.358377,10.5038585 L18.3335911,8.56412003 L14.2798241,8.56412003 L7.32840489,10.5100577 C6.93734645,10.6195282 6.70907433,11.025287 6.81854483,11.4163455 C6.81961373,11.4201639 6.82071351,11.4239736 6.82184404,11.4277742 L10.4465906,23.6134145 L6.74326683,23.6134145 L2.20077343,8.39790415 C2.04799442,7.88615642 2.33292589,7.34626942 2.84162374,7.18362359 Z" id="Rectangle-21-Copy-10"></path>
                <path d="M32.3678334,13.4485775 C34.2831642,13.261243 36.3624252,13.2775017 38.6056164,13.4973534 C42.2391096,13.8534666 41.9752189,19.4904666 40.639412,21.9533032 C39.3036051,24.4161398 38.2290486,25.3468964 36.8053603,26.6809529 C35.3816719,28.0150093 32.3392755,29.5789474 30.8184108,29.5789474 L4.18921145,29.5789474 C4.03133211,29.5789474 3.87764531,29.528131 3.75088516,29.4340154 L0.297012246,26.869613 C-0.029033998,26.6275334 -0.0971024165,26.1669764 0.144977178,25.8409301 C0.285686236,25.6514153 0.508822988,25.5409734 0.744843272,25.5440254 C19.7094793,25.7892546 30.058214,25.6974046 31.7910474,25.2684755 C34.4923763,24.5998141 39.0035975,20.2034723 37.2046217,18.7634717 C36.1413903,17.912402 34.2187386,17.5313825 31.4366667,17.6204134 C31.0307838,17.6334002 30.6912212,17.3148968 30.6782323,16.909014 C30.6751288,16.8120349 30.6912502,16.7154005 30.7256672,16.6246808 L31.7519261,13.9195646 C31.8510491,13.6582864 32.0897118,13.4757801 32.3678334,13.4485775 Z" id="Path"></path>
                <path d="M3.12320351,49.8389047 C3.04423038,49.8389047 2.96563156,49.8265708 2.88961115,49.8022489 C2.43116965,49.6555754 2.16411224,49.1141479 2.29312174,48.5929368 L6.43431639,31.4565517 L10.7245644,31.4565517 L7.3727905,44.5389531 C7.35061219,44.6268516 7.33935943,44.7178457 7.33935943,44.8092894 C7.33935943,45.350745 7.72543464,45.7896815 8.20168254,45.7896815 L24.1419662,45.7896815 C24.2299647,45.7896815 24.3174448,45.7743676 24.4013675,45.7442716 C24.8555565,45.5813926 25.1076115,45.0307473 24.9643481,44.5143709 L21.5114743,31.4565517 L25.941064,31.4565517 L30.0822586,48.5929368 C30.1036514,48.6793659 30.1145,48.7687264 30.1145,48.8585125 C30.1145,49.3999682 29.7284247,49.8389047 29.2521768,49.8389047 L3.12320351,49.8389047 Z" id="Path"></path>
            </g>
        </g>
    </g>
</svg>