<?xml version="1.0" encoding="utf-8"?>
<!-- Generator: Adobe Illustrator 23.0.1, SVG Export Plug-In . SVG Version: 6.00 Build 0)  -->
<svg version="1.1" id="Ebene_1" xmlns="http://www.w3.org/2000/svg" xmlns:xlink="http://www.w3.org/1999/xlink" x="0px" y="0px"
	 viewBox="0 0 400 400" style="enable-background:new 0 0 400 400;" xml:space="preserve">
<style type="text/css">
	.st0{fill:#F0F0F0;}
</style>
<g id="g5876" transform="matrix(.55072 0 0 .55072 7.673 5.157)">
	<path id="path5320" class="st0" d="M631.4,334.9L372.6,76.1c-11.9-11.9-31.3-11.9-43.1,0L157.1,248.7c-11.9,11.9-11.9,31.3,0,43.1
		l172.5,172.6c11.9,11.9,31.3,11.9,43.1,0c11.9-11.9,11.9-31.3,0-43.1l-151-151L351,140.8L588.2,378c11.9,11.9,31.3,11.9,43.1,0
		C643.2,366.1,643.4,346.8,631.4,334.9z"/>
	<path id="path5322" class="st0" d="M70.7,378l258.8,258.8c11.9,11.9,31.3,11.9,43.1,0l172.5-172.5c11.9-11.9,11.9-31.3,0-43.1
		L372.6,248.7c-11.9-11.9-31.3-11.9-43.1,0c-11.9,11.9-11.9,31.3,0,43.1l151,151L351.1,572.1L113.9,334.9
		c-11.9-11.9-31.3-11.9-43.2,0C58.9,346.8,58.9,366.2,70.7,378z"/>
</g>
</svg>
