<?xml version="1.0" encoding="utf-8"?>
<!-- Generator: Adobe Illustrator 23.0.1, SVG Export Plug-In . SVG Version: 6.00 Build 0)  -->
<svg version="1.1" id="Layer_1" xmlns="http://www.w3.org/2000/svg" xmlns:xlink="http://www.w3.org/1999/xlink" x="0px" y="0px"
	 viewBox="0 0 400 400" style="enable-background:new 0 0 400 400;" xml:space="preserve">
<style type="text/css">
	.st0{fill:#F9F9F9;}
</style>
<path class="st0" d="M48.4,324.1C95.8,242.5,201.1,73.7,201.1,73.7l150.7,250.7L48.4,324.1z M325.4,311.2c0,0-25.8-45.6-39.6-67.9
	c0,0-23.5,18-47.8,28.7c-24.2,10.7-56,9.8-77.7-0.8c-21.7-10.6-34.2-21.2-42.2-28.6l-41.4,68.6L325.4,311.2z M237.2,255.9
	c17.9-7.4,28.6-16.7,40.7-27.5c-11.6-12.6-24.7-20.1-39.1-27c-27.8-13.3-53.8-12-77.8,0.4c-11.5,7.3-25.5,14.6-36,27.2
	c8.4,8.8,23.4,19.6,40.6,27.4C188.3,266.9,212.7,266.1,237.2,255.9L237.2,255.9z M200.5,257.5c-16.7,0.1-30.9-13.1-30.4-30.3
	c0.5-17.3,14-27.3,29.2-27.1c15.2,0.2,30,7.3,30.4,28.7C230,243.9,217.2,257.4,200.5,257.5L200.5,257.5z M214,228.4
	c0.2-19-28.6-18-28.7-0.5C185.2,245.5,213.9,245.1,214,228.4z M169.8,181.3c21-6.6,40.3-5.7,54.1-1.1c13.9,4.6,21.5,7.7,31.9,13.3
	l-54.7-94l-59.6,96.2C141.5,195.7,156.5,185.4,169.8,181.3L169.8,181.3z"/>
</svg>
