<?xml version="1.0" encoding="utf-8"?>
<!-- Generator: Adobe Illustrator 23.0.1, SVG Export Plug-In . SVG Version: 6.00 Build 0)  -->
<svg version="1.1" id="Layer_1" xmlns="http://www.w3.org/2000/svg" xmlns:xlink="http://www.w3.org/1999/xlink" x="0px" y="0px"
	 viewBox="0 0 800 800" style="enable-background:new 0 0 800 800;" xml:space="preserve">
<style type="text/css">
	.st0{fill-rule:evenodd;clip-rule:evenodd;fill:#FEFEFE;}
</style>
<g id="Layer_x0020_1">
	<path class="st0" d="M593.1,384.9c-47.8,0-88.3-31.1-102.5-74.2c-3.5,10.6-5.4,21.9-5.4,33.7c0,59.6,48.3,107.9,107.9,107.9
		c59.6,0,107.9-48.3,107.9-107.9c0-11.8-1.9-23.1-5.4-33.7C681.5,353.7,641,384.9,593.1,384.9L593.1,384.9z"/>
	<path class="st0" d="M274.2,626.4c-45.3,0-82.2-36.9-82.2-82.2v-72h45.5H307l107.6,154.3H274.2L274.2,626.4z M593.1,500.6
		c-47.5,0-87.8-30.7-102.2-73.4c-3.7,10.8-5.7,22.4-5.7,34.5c0,49,32.7,90.3,77.4,103.5c-9.3,34.9-40.9,60.7-78.5,61.1L372.5,467.5
		c52.1-8,78.1-35.4,78.1-82.3c0-13.8-2.6-26.7-7.8-38.7c-5.5-12.5-13.8-22.4-24.8-29.7c-9.5-6.3-20.7-10.7-33.6-13.3
		c-12.8-2.5-30.2-3.8-52.1-3.8l-132.3,0c13.2-27.7,41.5-47,74.2-47l214.2,0c0,0,0,0,0,0c11.6,47.1,54.1,82,104.7,82
		c59.6,0,107.9-48.3,107.9-107.9c0-59.6-48.3-107.9-107.9-107.9c-49.6,0-91.4,33.5-104,79.1l-215,0c-63.3,0-116.6,43.2-132.2,101.6
		l-42.9,0v57.5h67h71.4h114.6c8.7,0,15.3,0.8,22,4c6.3,3.1,14,6.9,14,23.6c0,16.7-6.9,22.8-13.8,25.8c-7.8,3.4-13.9,4.1-22.2,4.1
		l-186.1,0H99v57.5h38.3v72c0,75.4,61.4,136.8,136.9,136.9l209.2,0c67.8,0,124.2-49.6,135-114.4c47.5-11.3,82.7-54,82.7-104.9
		c0-12.1-2-23.7-5.7-34.5C680.9,469.9,640.6,500.6,593.1,500.6L593.1,500.6z"/>
</g>
</svg>
