<?xml version="1.0" encoding="utf-8"?>
<!-- Generator: Adobe Illustrator 23.0.1, SVG Export Plug-In . SVG Version: 6.00 Build 0)  -->
<svg version="1.1" id="Layer_1" xmlns="http://www.w3.org/2000/svg" xmlns:xlink="http://www.w3.org/1999/xlink" x="0px" y="0px"
	 viewBox="0 0 32 32" style="enable-background:new 0 0 32 32;" xml:space="preserve">
<style type="text/css">
	.st0{opacity:0.986;enable-background:new    ;}
</style>
<title>rsk</title>
<path class="st0" d="M16,2.6c-1.5,0-2.7,1.2-2.7,2.7c0,0.3,0.1,0.6,0.2,0.9l-5,2.8C7.9,8.3,7.2,8,6.4,8c-1.5,0-2.7,1.2-2.7,2.7
	c0,1.3,0.9,2.3,2.1,2.6l0,5.6c-1.2,0.3-2.1,1.3-2.1,2.6c0,1.5,1.2,2.7,2.7,2.7c0.8,0,1.5-0.3,2-0.8l5,2.8c-0.1,0.2-0.1,0.5-0.1,0.7
	c0,1.5,1.2,2.7,2.7,2.7c1.5,0,2.7-1.2,2.7-2.7c0-0.2,0-0.5-0.1-0.7l5-2.8c0.5,0.5,1.2,0.8,1.9,0.8c1.5,0,2.7-1.2,2.7-2.7
	c0-1.3-0.9-2.3-2.1-2.6l0-5.6c1.2-0.3,2.1-1.3,2.1-2.6c0-1.5-1.2-2.7-2.7-2.7c-0.8,0-1.5,0.3-2,0.8l-5-2.8c0.1-0.2,0.1-0.5,0.1-0.8
	C18.7,3.8,17.5,2.6,16,2.6L16,2.6z M16,3.8c0.8,0,1.5,0.6,1.5,1.4S16.8,6.7,16,6.7c-0.8,0-1.5-0.6-1.5-1.4S15.2,3.8,16,3.8z M18,7.1
	l5,2.8c-0.1,0.2-0.1,0.5-0.1,0.7c0,0.3,0.1,0.6,0.1,0.8l-4.5,2.6c-0.5-1-1.3-1.7-1.8-2.1l0-4.2C17.1,7.7,17.6,7.4,18,7.1L18,7.1z
	 M14.1,7.1c0.3,0.3,0.8,0.6,1.3,0.7l0.1,4.2c-0.5,0.4-1.3,1.1-1.8,2.1L9,11.5c0.1-0.3,0.1-0.6,0.1-0.9c0-0.2,0-0.5-0.1-0.7L14.1,7.1
	z M6.4,9.2c0.8,0,1.5,0.6,1.5,1.4s-0.6,1.4-1.5,1.4c-0.8,0-1.5-0.6-1.5-1.4S5.6,9.2,6.4,9.2z M25.6,9.2c0.8,0,1.5,0.6,1.5,1.4
	c0,0.8-0.6,1.4-1.5,1.4s-1.5-0.6-1.5-1.4C24.1,9.8,24.8,9.2,25.6,9.2z M8.3,12.5l4.9,2.7c-0.1,0.4-0.1,0.7-0.1,1.1
	c0,0.2,0,0.4,0.1,0.5l-4.7,2.7C8,19.2,7.6,18.9,7,18.8l0-5.6C7.5,13.1,7.9,12.9,8.3,12.5z M23.7,12.5c0.4,0.3,0.8,0.6,1.3,0.7l0,5.6
	c-0.5,0.1-0.9,0.4-1.3,0.7l-4.7-2.6c0-0.2,0.1-0.4,0.1-0.5c0-0.4,0-0.8-0.1-1.1L23.7,12.5z M16,13.1c0.7,0.6,1.8,1.8,1.7,3.1
	c-0.1,0.9-0.5,1.6-1,2.2v-2c0,0,0,0,0,0c0-0.3-0.3-0.6-0.6-0.6c0,0,0,0,0,0h0c-0.4,0-0.6,0.3-0.6,0.6c0,0,0,0,0,0v0v2
	c-0.5-0.6-1-1.3-1.1-2.2C14.3,15,15.3,13.8,16,13.1L16,13.1z M18.5,18.1l4.5,2.5c-0.1,0.3-0.1,0.5-0.1,0.8c0,0.3,0,0.6,0.1,0.8
	L18,25c-0.4-0.4-0.8-0.7-1.4-0.8l0-3.8c0,0,0-0.1,0-0.2v0C17.2,19.8,18,19.1,18.5,18.1L18.5,18.1z M13.5,18.1c0.5,1,1.3,1.7,1.8,2.1
	l0,4c-0.5,0.1-1,0.4-1.4,0.8l-5-2.8c0.1-0.2,0.1-0.5,0.1-0.8c0-0.3,0-0.5-0.1-0.7L13.5,18.1z M6.4,20c0.8,0,1.5,0.6,1.5,1.4
	s-0.6,1.4-1.5,1.4s-1.5-0.6-1.5-1.4S5.6,20,6.4,20z M25.6,20c0.8,0,1.5,0.6,1.5,1.4s-0.6,1.4-1.5,1.4c-0.8,0-1.5-0.6-1.5-1.4
	S24.8,20,25.6,20z M16,25.3c0.8,0,1.5,0.6,1.5,1.4c0,0.8-0.6,1.4-1.5,1.4s-1.5-0.6-1.5-1.4c0-0.2,0.1-0.4,0.2-0.6l0.1-0.2
	C15.1,25.6,15.5,25.3,16,25.3z"/>
</svg>
