<?xml version="1.0" encoding="utf-8"?>
<!-- Generator: Adobe Illustrator 23.0.1, SVG Export Plug-In . SVG Version: 6.00 Build 0)  -->
<svg version="1.1" id="Layer_1" xmlns="http://www.w3.org/2000/svg" xmlns:xlink="http://www.w3.org/1999/xlink" x="0px" y="0px"
	 viewBox="0 0 480 480" style="enable-background:new 0 0 480 480;" xml:space="preserve">
<style type="text/css">
	.st0{fill:#FFFFFF;}
</style>
<path d="M1.2,240.2C1.2,108.3,108.1,1.3,240,1.3l0,0c131.9,0,238.8,106.9,238.8,238.8l0,0C478.8,372,371.9,479,240,479l0,0
	C108.1,479,1.2,372,1.2,240.2"/>
<path class="st0" d="M107,240L107,240l19-19l0,0l133,133l0,0l-19,19l0,0L107,240 M145,202L145,202l19-19l0,0l133,133l0,0l-19,19l0,0
	L145,202 M183,164L183,164l19-19l0,0l133,133l0,0l-19,19l0,0L183,164 M221,126L221,126l19-19l0,0l133,133l0,0l-19,19l0,0L221,126
	 M126,259L126,259l133-133l0,0l19,19l0,0L145,278l0,0L126,259 M164,297L164,297l133-133l0,0l19,19l0,0L183,316l0,0L164,297 M202,335
	L202,335l133-133l0,0l19,19l0,0L221,354l0,0L202,335"/>
</svg>
