<?xml version="1.0" standalone="no"?>
<!DOCTYPE svg PUBLIC "-//W3C//DTD SVG 20010904//EN"
 "http://www.w3.org/TR/2001/REC-SVG-20010904/DTD/svg10.dtd">
<svg version="1.0" xmlns="http://www.w3.org/2000/svg"
 width="512.000000pt" height="512.000000pt" viewBox="0 0 512.000000 512.000000"
 preserveAspectRatio="xMidYMid meet">
<metadata>
Created by potrace 1.11, written by Peter Selinger 2001-2013
</metadata>
<g transform="translate(0.000000,512.000000) scale(0.100000,-0.100000)"
fill="#000000" stroke="none">
<path d="M1179 4479 c-115 -32 -215 -124 -267 -246 -12 -28 -22 -54 -22 -57 0
-10 134 44 189 77 66 39 172 136 212 193 16 24 29 44 29 46 0 10 -86 2 -141
-13z"/>
<path d="M3806 4491 c-12 -19 84 -131 168 -195 77 -59 240 -135 250 -117 3 4
-10 38 -29 77 -52 105 -136 183 -236 217 -59 20 -146 31 -153 18z"/>
<path d="M2468 4475 c-2 -1 -39 -6 -83 -9 -363 -31 -747 -218 -999 -488 -181
-193 -312 -442 -352 -665 -2 -13 -7 -35 -10 -50 -14 -62 -13 -339 1 -418 22
-123 23 -128 56 -222 162 -459 561 -812 1066 -943 94 -24 94 -24 198 -40 78
-12 331 -16 410 -6 563 69 1018 373 1245 831 104 210 146 404 136 635 -2 74
-7 146 -10 160 -3 14 -9 41 -12 60 -20 112 -106 324 -179 440 -171 273 -468
506 -785 618 -90 31 -229 67 -295 77 -23 3 -52 8 -65 11 -26 5 -317 14 -322 9z
m268 -153 c21 -11 53 -46 97 -103 l28 -37 -118 2 -117 1 -1 63 c-1 34 1 66 4
71 14 20 72 22 107 3z m-215 -12 c1 -5 1 -36 2 -67 l1 -58 -119 -2 c-65 -2
-115 0 -111 4 4 4 13 8 19 8 47 3 129 40 156 71 17 19 31 39 31 44 0 13 20 13
21 0z m-326 -90 l-22 -35 -87 -2 -87 -2 27 22 c15 12 52 36 82 53 52 30 56 31
82 16 l28 -16 -23 -36z m815 12 c0 -5 11 -15 25 -22 35 -19 31 -28 -14 -28
-31 -1 -42 5 -60 29 l-22 29 36 0 c19 0 35 -4 35 -8z m-890 -152 c0 -5 -4 -10
-10 -10 -5 0 -10 5 -10 10 0 6 5 10 10 10 6 0 10 -4 10 -10z m404 -190 l0
-195 -217 -3 -216 -2 23 83 c26 92 55 174 93 260 l26 58 146 -3 145 -3 0 -195z
m287 184 c7 -9 21 -13 34 -10 12 3 31 -2 43 -10 l23 -16 -25 -19 c-13 -10 -32
-19 -41 -19 -20 0 -55 -18 -55 -29 0 -4 18 -16 40 -26 44 -20 61 -55 41 -86
-23 -38 -14 -49 35 -45 32 2 53 11 73 30 l28 26 10 -35 c11 -35 10 -36 -23
-50 -19 -8 -59 -19 -89 -24 -66 -12 -91 -25 -105 -51 -9 -17 -21 -20 -93 -20
l-82 0 1 193 c1 105 2 195 3 200 0 4 39 7 85 7 64 0 87 -4 97 -16z m-805 -138
c14 3 32 6 38 7 15 3 12 -12 -17 -113 -14 -47 -28 -97 -31 -112 l-6 -28 -148
0 -147 1 25 20 c14 12 43 36 65 55 22 19 46 34 53 34 8 0 26 -13 42 -30 30
-32 36 -30 68 27 20 37 14 48 -33 61 -45 12 -56 29 -37 59 12 19 55 31 79 22
12 -4 34 -6 49 -3z m1318 -81 c16 -16 52 -35 67 -35 7 0 9 10 7 25 -3 14 0 33
7 42 11 15 18 7 58 -62 26 -43 45 -81 43 -83 -3 -2 -16 4 -31 14 l-28 18 -36
-42 c-41 -49 -53 -51 -75 -18 -8 13 -28 27 -43 30 -15 4 -43 22 -61 41 -35 35
-92 62 -92 44 0 -22 -19 3 -25 34 -4 17 -12 37 -17 44 -13 16 9 28 26 13 36
-29 106 -33 106 -5 0 6 10 17 23 22 20 10 24 7 41 -30 10 -22 24 -46 30 -52z
m-1359 -270 c-1 -10 -18 -136 -20 -145 -3 -12 -17 -192 -20 -258 -2 -41 -6
-76 -9 -79 -4 -4 -233 -6 -399 -4 l-37 1 5 53 c17 167 21 193 52 308 20 77 30
99 49 110 13 7 24 15 24 19 0 4 80 7 178 6 111 -1 177 -5 177 -11z m556 6 c6
-35 2 -484 -4 -488 -12 -7 -473 -7 -485 1 -15 9 -2 214 24 387 l16 106 224 0
c123 0 224 -3 225 -6z m209 -3 c0 -5 -5 -16 -11 -27 -8 -12 -9 -31 -3 -57 11
-51 8 -85 -13 -163 -16 -63 -16 -65 3 -75 10 -6 46 -39 79 -73 34 -34 76 -69
95 -77 35 -15 34 -15 -52 -16 -103 -2 -150 -2 -181 -1 l-22 1 1 243 c1 133 2
245 3 248 2 9 101 6 101 -3z m1183 -9 c7 -26 -1 -29 -34 -12 -37 19 -37 32 0
31 19 -1 31 -7 34 -19z m-70 -69 c30 -24 60 -26 77 -5 7 8 16 15 21 15 9 0 64
-165 73 -220 3 -19 8 -46 10 -60 2 -14 7 -51 11 -82 l6 -58 -50 0 c-63 0 -66
1 -64 20 17 135 10 179 -35 218 -15 13 -49 42 -75 65 -27 22 -55 54 -64 71
-14 27 -14 31 3 43 26 19 57 16 87 -7z m-2638 -62 c-5 -18 -11 -64 -14 -103
-5 -59 -3 -78 16 -122 12 -29 34 -69 49 -88 14 -19 22 -35 18 -36 -5 0 -43 -1
-84 -1 l-75 -1 1 34 c4 130 56 349 83 349 10 0 12 -8 6 -32z m191 10 c11 -12
13 -80 3 -127 -6 -31 -13 -81 -14 -111 -2 -30 -3 -68 -4 -85 l-1 -30 -20 25
c-11 14 -23 34 -26 45 -3 11 -17 35 -31 52 -38 51 -63 114 -63 161 0 37 3 44
28 54 55 22 114 29 128 16z m1651 -355 c-8 -7 -77 -6 -85 2 -3 3 16 5 43 5 27
0 45 -3 42 -7z m-1672 -105 c3 -3 8 -32 10 -65 4 -62 14 -145 21 -178 3 -11 7
-47 10 -80 2 -33 15 -83 29 -112 16 -35 20 -53 12 -54 -17 -1 -178 -1 -203 0
-43 2 -129 275 -139 441 -2 25 -2 47 0 50 5 8 252 6 260 -2z m546 -8 c0 -8 3
-57 5 -108 l5 -94 -56 7 c-77 8 -83 12 -105 56 -26 50 -33 53 -107 51 -58 -1
-64 1 -90 29 -15 17 -38 40 -50 53 l-21 22 209 -1 c179 0 209 -2 210 -15z
m604 -218 c0 -128 -3 -241 -6 -250 -6 -15 -20 -17 -100 -15 -120 2 -116 2
-100 12 20 13 6 78 -20 86 -10 4 -52 8 -93 10 -72 4 -155 30 -157 50 0 5 -2
19 -4 30 -10 48 -25 294 -19 305 1 3 114 5 250 5 l248 0 1 -233z m599 168 c-3
-126 -35 -407 -48 -429 -3 -4 -384 -6 -441 -2 -7 1 -10 84 -9 244 1 133 2 244
3 247 1 3 112 5 249 5 l247 0 -1 -65z m231 30 c7 -20 31 -64 54 -99 22 -35 41
-68 41 -72 0 -5 -11 -25 -25 -45 -30 -44 -33 -70 -22 -191 3 -36 1 -53 -7 -54
-16 -1 -156 -1 -190 0 -25 1 -27 4 -22 26 4 14 9 45 12 69 2 24 7 53 9 65 4
24 17 182 20 256 2 28 3 57 4 66 1 12 13 15 58 14 55 -1 57 -2 68 -35z m679 5
c-1 -46 -13 -155 -18 -163 -2 -4 -7 -23 -10 -42 -4 -30 -28 -99 -78 -232 -7
-21 -17 -28 -36 -29 -132 -4 -185 -3 -193 2 -5 3 13 30 41 60 77 81 83 98 86
219 1 71 7 118 18 145 28 66 37 71 118 70 l73 0 -1 -30z m-2537 -77 c-3 -8 -6
-5 -6 6 -1 11 2 17 5 13 3 -3 4 -12 1 -19z m1 -491 c7 -5 31 -45 54 -90 44
-89 120 -206 169 -262 17 -19 29 -35 28 -36 -2 -1 -23 -2 -47 -4 -55 -3 -94
24 -217 149 -71 72 -195 230 -195 248 0 7 196 2 208 -5z m1023 3 c7 -34 2
-384 -6 -390 -13 -9 -266 -8 -281 2 -11 7 -84 178 -84 196 0 4 20 18 44 30
l44 24 -4 71 -4 72 145 0 c80 0 145 -2 146 -5z m515 1 l22 -1 -25 -87 c-26
-95 -98 -282 -114 -298 -14 -14 -289 -15 -290 -1 -5 43 -3 382 2 386 6 4 321
5 405 1z m398 -70 l25 -74 -49 -71 c-27 -39 -71 -96 -98 -126 l-49 -55 -117
-1 c-64 -1 -116 -1 -116 0 0 1 15 40 34 87 32 79 62 171 86 266 12 49 10 48
152 48 l107 0 25 -74z m414 70 c22 -2 -87 -149 -178 -241 -126 -128 -164 -154
-222 -156 -53 -1 -58 4 -27 32 32 29 143 201 185 286 21 43 45 79 54 80 12 3
140 2 188 -1z m-2174 -58 c13 -21 27 -52 31 -69 3 -17 18 -42 32 -55 14 -13
29 -33 34 -44 4 -11 29 -49 54 -85 l47 -65 -42 44 c-64 70 -200 276 -200 304
0 19 22 3 44 -30z m446 -334 c0 -3 -18 -6 -40 -5 -46 1 -49 11 -18 51 l21 27
18 -33 c10 -19 18 -37 19 -40z m82 -147 c17 -26 43 -60 57 -76 l26 -28 -25 7
c-76 22 -261 132 -242 144 5 3 42 5 81 3 l71 -4 32 -46z m322 -45 c0 -58 -4
-92 -11 -94 -28 -10 -121 59 -183 133 l-40 49 52 5 c29 3 82 4 118 2 l65 -3
-1 -92z m289 94 l48 -1 -20 -27 c-40 -55 -79 -93 -131 -128 -82 -55 -87 -52
-84 58 1 50 3 94 3 97 1 3 31 4 68 3 38 -1 90 -2 116 -2z m291 -35 c-71 -47
-207 -116 -229 -116 -3 0 67 98 103 145 5 6 43 9 91 7 l83 -4 -48 -32z m-1224
4 l35 -30 -50 26 c-61 31 -64 34 -39 34 11 0 35 -13 54 -30z m1431 9 c-36 -22
-51 -20 -30 5 8 8 25 15 39 16 24 0 23 -1 -9 -21z"/>
<path d="M760 4403 c-45 -35 -55 -48 -84 -103 -21 -41 -40 -97 -52 -155 -7
-34 -13 -175 -7 -175 2 0 26 22 52 48 48 51 92 130 116 210 17 56 30 202 19
202 -5 0 -25 -12 -44 -27z"/>
<path d="M4310 4382 c0 -128 53 -270 136 -361 46 -51 48 -53 54 -30 18 66 -17
241 -63 319 -22 38 -102 120 -118 120 -5 0 -9 -22 -9 -48z"/>
<path d="M470 4067 c-71 -58 -105 -152 -97 -272 7 -87 26 -167 42 -168 13 0
71 115 91 183 19 66 22 169 5 228 -13 45 -17 48 -41 29z"/>
<path d="M4610 4056 c-16 -43 -21 -137 -9 -200 10 -59 86 -236 101 -236 7 0
16 29 36 110 16 63 7 181 -17 235 -21 48 -76 115 -93 115 -5 0 -13 -11 -18
-24z"/>
<path d="M940 4036 c-96 -27 -250 -130 -250 -167 0 -31 263 11 350 56 56 29
140 86 140 96 0 27 -159 37 -240 15z"/>
<path d="M3970 4038 l-45 -10 34 -28 c46 -39 133 -84 211 -109 74 -25 243 -40
254 -23 16 26 -144 138 -236 166 -53 16 -158 18 -218 4z"/>
<path d="M802 3755 c-113 -26 -259 -114 -293 -177 -9 -16 -3 -17 60 -13 83 5
140 18 218 46 97 36 222 126 208 148 -9 15 -120 12 -193 -4z"/>
<path d="M4115 3760 c-8 -13 82 -85 148 -118 96 -48 171 -68 291 -77 66 -6 69
-5 55 12 -63 81 -176 151 -288 177 -64 15 -198 19 -206 6z"/>
<path d="M174 3699 c-28 -53 -29 -196 -2 -284 22 -76 73 -185 86 -185 14 0 44
112 47 173 4 99 -29 206 -94 301 l-19 29 -18 -34z"/>
<path d="M4893 3683 c-58 -97 -80 -168 -81 -263 0 -64 31 -190 47 -190 10 0
63 108 86 175 32 94 27 251 -11 308 -10 16 -14 13 -41 -30z"/>
<path d="M655 3476 c-73 -23 -121 -54 -175 -113 -45 -49 -116 -170 -107 -180
8 -7 147 39 190 62 82 46 167 141 197 220 9 24 8 25 -28 24 -20 0 -55 -6 -77
-13z"/>
<path d="M4350 3486 c0 -4 12 -30 26 -59 34 -67 127 -157 196 -191 60 -29 162
-57 166 -46 2 4 -10 34 -25 66 -35 76 -125 167 -198 200 -52 24 -165 45 -165
30z"/>
<path d="M5 3238 c-7 -28 0 -114 15 -167 17 -65 99 -168 178 -223 l42 -29 -5
62 c-14 143 -90 284 -197 360 l-27 20 -6 -23z"/>
<path d="M5065 3231 c-103 -76 -185 -247 -185 -384 l0 -29 38 28 c90 67 163
162 183 238 13 48 18 135 10 159 -6 16 -10 15 -46 -12z"/>
<path d="M606 3155 c-69 -35 -109 -67 -152 -126 -37 -51 -84 -162 -84 -199 0
-19 1 -19 53 1 137 53 230 163 256 302 10 56 2 59 -73 22z"/>
<path d="M4435 3148 c31 -147 102 -244 220 -299 62 -30 95 -36 95 -19 0 24
-43 135 -66 172 -39 61 -102 117 -169 149 -79 38 -88 38 -80 -3z"/>
<path d="M656 2813 c-62 -45 -90 -75 -131 -138 -44 -68 -76 -173 -81 -268 l-4
-78 32 18 c45 26 133 117 162 168 40 73 67 164 73 252 3 46 4 83 2 83 -2 0
-26 -17 -53 -37z"/>
<path d="M26 2788 c11 -119 75 -246 172 -346 52 -52 102 -92 117 -92 6 0 0 83
-9 125 -17 85 -97 216 -172 285 -52 47 -95 80 -105 80 -4 0 -5 -23 -3 -52z"/>
<path d="M4409 2833 c-7 -44 13 -186 31 -222 4 -9 15 -34 25 -56 9 -22 33 -62
53 -89 44 -59 143 -140 153 -124 9 14 2 108 -12 173 -25 113 -102 231 -193
297 -40 28 -55 34 -57 21z"/>
<path d="M5034 2802 c-101 -81 -172 -176 -209 -282 -17 -49 -31 -170 -19 -170
9 0 61 39 99 76 56 53 104 119 135 185 32 70 64 208 51 222 -4 4 -30 -10 -57
-31z"/>
<path d="M4329 2475 c-8 -179 4 -254 60 -370 21 -44 59 -102 83 -129 44 -49
45 -49 50 -24 9 47 1 242 -12 293 -28 109 -99 222 -162 256 -16 8 -18 5 -19
-26z"/>
<path d="M734 2472 c-45 -41 -88 -109 -114 -182 -17 -51 -23 -93 -26 -195 -5
-160 2 -176 52 -120 91 103 144 251 146 411 1 123 -6 133 -58 86z"/>
<path d="M10 2274 c0 -60 112 -192 213 -252 57 -34 182 -89 221 -96 11 -2 29
-7 39 -11 10 -5 17 -3 17 5 0 12 -75 127 -107 165 -33 38 -133 115 -183 140
-36 18 -178 65 -197 65 -2 0 -3 -7 -3 -16z"/>
<path d="M5033 2270 c-161 -42 -290 -139 -384 -291 -21 -35 -37 -64 -35 -66 8
-8 177 52 236 84 80 44 124 76 173 128 38 41 92 137 85 154 -2 5 -34 1 -75 -9z"/>
<path d="M901 2058 c-86 -117 -99 -299 -32 -452 l22 -49 25 37 c78 114 105
239 79 370 -13 70 -40 136 -54 136 -5 0 -23 -19 -40 -42z"/>
<path d="M4139 2033 c-49 -156 -26 -312 63 -436 l27 -39 15 37 c15 35 34 98
42 140 10 50 5 157 -10 207 -16 57 -82 158 -103 158 -7 0 -22 -30 -34 -67z"/>
<path d="M1166 1861 c-3 -5 -13 -39 -21 -76 -22 -94 -20 -206 4 -286 21 -67
87 -171 120 -189 16 -8 21 -2 35 50 34 119 24 249 -25 355 -36 79 -102 164
-113 146z"/>
<path d="M3903 1819 c-77 -103 -104 -174 -109 -289 -2 -56 2 -106 12 -145 24
-92 26 -93 67 -50 101 107 141 279 102 444 -24 100 -26 102 -72 40z"/>
<path d="M250 1804 c50 -132 230 -248 432 -279 113 -17 117 -14 66 56 -98 137
-254 223 -446 244 l-62 7 10 -28z"/>
<path d="M4807 1824 c-1 -1 -24 -5 -50 -8 -148 -20 -312 -119 -387 -234 -16
-26 -30 -51 -30 -57 1 -29 217 19 320 71 71 37 147 104 186 166 33 52 31 69
-6 66 -17 -1 -32 -3 -33 -4z"/>
<path d="M1447 1706 c-10 -24 0 -250 12 -296 35 -127 78 -218 136 -285 40 -47
46 -43 65 47 18 83 8 228 -21 298 -31 76 -77 146 -132 203 -51 52 -53 53 -60
33z"/>
<path d="M3603 1666 c-134 -142 -188 -347 -138 -524 l18 -64 29 34 c105 120
165 303 162 488 -2 109 -3 120 -12 120 -4 0 -30 -24 -59 -54z"/>
<path d="M3229 1520 c-136 -137 -175 -312 -119 -532 7 -27 15 -48 19 -48 11 0
91 127 121 193 16 35 36 92 45 128 20 76 26 230 10 285 l-11 39 -65 -65z"/>
<path d="M1814 1559 c-11 -18 -14 -190 -3 -244 5 -27 16 -72 25 -100 31 -99
136 -281 155 -270 15 10 39 145 39 222 0 142 -42 251 -135 350 -51 53 -68 62
-81 42z"/>
<path d="M635 1363 c-52 -7 -105 -23 -105 -32 0 -15 86 -89 127 -109 40 -20
93 -39 134 -48 83 -17 115 -21 214 -22 61 -1 134 2 164 6 l54 7 -53 52 c-63
63 -162 116 -253 137 -63 15 -206 19 -282 9z"/>
<path d="M4202 1356 c-104 -26 -194 -77 -267 -150 l-40 -41 35 -6 c19 -4 105
-5 190 -4 167 3 232 16 330 63 55 27 148 107 137 118 -29 29 -293 42 -385 20z"/>
<path d="M2540 1098 c-18 -57 -36 -105 -41 -108 -4 -3 -55 -5 -113 -5 -59 0
-106 0 -106 -2 0 -1 41 -30 90 -64 50 -34 90 -65 90 -69 0 -3 -15 -52 -34
-108 -19 -56 -32 -102 -28 -102 4 0 45 29 92 64 l85 64 65 -46 c36 -25 76 -54
89 -64 13 -10 25 -17 27 -15 2 2 -10 45 -26 97 -16 52 -30 100 -30 107 0 6 38
38 85 70 46 32 85 60 85 64 0 3 -48 5 -107 5 l-108 -1 -35 102 c-19 56 -38
104 -41 108 -4 3 -21 -41 -39 -97z"/>
<path d="M1205 1042 c-114 -10 -315 -62 -315 -82 0 -11 83 -42 175 -66 71 -18
263 -25 315 -12 57 15 88 27 130 48 42 21 43 23 24 37 -66 51 -217 85 -329 75z"/>
<path d="M3827 1044 c-1 -1 -26 -4 -55 -8 -86 -10 -210 -65 -197 -86 10 -16
96 -50 165 -67 62 -14 200 -14 269 1 90 20 221 65 221 76 0 4 -8 10 -17 13
-117 37 -197 58 -243 63 -57 6 -139 11 -143 8z"/>
<path d="M1635 843 c-114 -16 -252 -86 -362 -184 -32 -30 -38 -39 -25 -44 30
-11 309 -3 386 11 95 18 170 50 220 94 33 30 72 87 64 95 -2 2 -28 10 -58 17
-54 14 -165 20 -225 11z"/>
<path d="M3296 842 c-3 -2 -13 -6 -23 -7 -37 -3 -73 -18 -73 -29 0 -33 64 -96
130 -130 91 -47 162 -59 370 -63 l194 -3 -34 35 c-45 46 -161 125 -225 152
-77 33 -170 51 -256 51 -43 -1 -81 -3 -83 -6z"/>
</g>
</svg>
