<?xml version="1.0" encoding="UTF-8"?>
<svg width="35px" height="35px" viewBox="0 0 35 35" version="1.1" xmlns="http://www.w3.org/2000/svg" xmlns:xlink="http://www.w3.org/1999/xlink">
    <!-- Generator: Sketch 57.1 (83088) - https://sketch.com -->
    <title>dashboard</title>
    <desc>Created with Sketch.</desc>
    <g id="Dashboard" stroke="none" stroke-width="1" fill="none" fill-rule="evenodd">
        <g id="dashboard" transform="translate(-20.000000, -140.000000)" stroke="#003945" stroke-width="1.6">
            <g id="Group-44" transform="translate(20.000000, 140.000000)">
                <path d="M24.2328131,20.7865354 C24.2526861,20.8218938 24.2492327,20.8657542 24.2240708,20.8975667 L17.6917003,29.1565323 C17.6574391,29.1998492 17.5945496,29.2071903 17.5512327,29.1729291 C17.5454964,29.1683921 17.5402752,29.1632395 17.5356628,29.1575637 L10.8283508,20.9040441 C10.79352,20.8611839 10.8000291,20.7982029 10.8428893,20.763372 C10.8746504,20.7375611 10.9189335,20.7337087 10.9546745,20.7536474 L17.4965538,24.4031386 C17.526935,24.4200872 17.5639412,24.4200284 17.5942682,24.4029832 L24.0966426,20.7483568 C24.1447877,20.7212971 24.2057533,20.7383902 24.2328131,20.7865354 Z M17.4501661,5.61242347 C17.4977516,5.58439126 17.5590519,5.60024233 17.5870841,5.64782783 L17.5870841,5.64782783 L24.1039961,16.7104771 C24.1316333,16.7573921 24.1166558,16.817796 24.070302,16.8463645 L24.070302,16.8463645 L17.5530319,20.8630401 C17.5205691,20.8830473 17.4795534,20.8828506 17.447284,20.8625331 L17.447284,20.8625331 L11.0683041,16.8461848 C11.0228466,16.8175638 11.008122,16.7581423 11.0349557,16.7116075 L11.0349557,16.7116075 L17.4142937,5.64863089 C17.4229231,5.6336659 17.435282,5.62119158 17.4501661,5.61242347 Z" id="Combined-Shape"></path>
            </g>
        </g>
    </g>
</svg>