<?xml version="1.0" encoding="UTF-8"?>
<svg width="30px" height="30px" viewBox="0 0 30 30" version="1.1" xmlns="http://www.w3.org/2000/svg" xmlns:xlink="http://www.w3.org/1999/xlink">
    <!-- Generator: Sketch 55.2 (78181) - https://sketchapp.com -->
    <title>dashboard</title>
    <desc>Created with Sketch.</desc>
    <g id="Dashboard" stroke="none" stroke-width="1" fill="none" fill-rule="evenodd">
        <g id="dashboard" transform="translate(-22.000000, -143.000000)" stroke="#003945" stroke-width="1.6">
            <g id="Group-44" transform="translate(22.000000, 143.000000)">
                <path d="M15.4142937,2.64863089 C15.4229231,2.6336659 15.435282,2.62119158 15.4501661,2.61242347 C15.4977516,2.58439126 15.5590519,2.60024233 15.5870841,2.64782783 L22.1039961,13.7104771 C22.1316333,13.7573921 22.1166558,13.817796 22.070302,13.8463645 L15.5530319,17.8630401 C15.5205691,17.8830473 15.4795534,17.8828506 15.447284,17.8625331 L9.06830408,13.8461848 C9.02284662,13.8175638 9.00812195,13.7581423 9.03495574,13.7116075 L15.4142937,2.64863089 Z M8.95467449,17.7536474 L15.4965538,21.4031386 C15.526935,21.4200872 15.5639412,21.4200284 15.5942682,21.4029832 L22.0966426,17.7483568 C22.1447877,17.7212971 22.2057533,17.7383902 22.2328131,17.7865354 C22.2526861,17.8218938 22.2492327,17.8657542 22.2240708,17.8975667 L15.6917003,26.1565323 C15.6574391,26.1998492 15.5945496,26.2071903 15.5512327,26.1729291 C15.5454964,26.1683921 15.5402752,26.1632395 15.5356628,26.1575637 L8.82835081,17.9040441 C8.79351999,17.8611839 8.8000291,17.7982029 8.84288932,17.763372 C8.87465038,17.7375611 8.91893349,17.7337087 8.95467449,17.7536474 Z" id="Combined-Shape"></path>
            </g>
        </g>
    </g>
</svg>