<?xml version="1.0" encoding="UTF-8"?>
<svg width="35px" height="35px" viewBox="0 0 35 35" version="1.1" xmlns="http://www.w3.org/2000/svg" xmlns:xlink="http://www.w3.org/1999/xlink">
    <!-- Generator: Sketch 57.1 (83088) - https://sketch.com -->
    <title>dashboard</title>
    <desc>Created with Sketch.</desc>
    <g id="Dashboard" stroke="none" stroke-width="1" fill="none" fill-rule="evenodd">
        <g id="dashboard" transform="translate(-20.000000, -200.000000)" fill="#999" fill-rule="nonzero" stroke="#999" stroke-width="0.5">
            <g id="Group-11" transform="translate(20.000000, 200.000000)">
                <g id="currency" transform="translate(7.000000, 8.000000)">
                    <path d="M19.4047221,9.56521739 C19.7335011,9.56521739 20,9.82606868 20,10.1478417 C20,12.779484 18.9530344,15.2535303 17.0518804,17.1143952 C15.1507657,18.9752216 12.6230759,20 9.9345352,20 C6.60832913,20 3.53082387,18.400258 1.66173148,15.7617813 L1.48465615,15.503221 L1.17435674,16.7762276 C1.10916713,17.0437368 0.865079606,17.2237696 0.59586774,17.2237696 C0.55010133,17.2237696 0.50366651,17.2185741 0.45723169,17.2077213 C0.169434102,17.1405611 -0.0192214109,16.8792877 0.00156031392,16.5995287 L0.0163957868,16.505832 L0.661804399,13.857949 C0.730418627,13.5762504 0.997476247,13.391624 1.28320302,13.4119435 L1.37889013,13.4264553 L4.08410175,14.0582249 C4.40387685,14.1328473 4.60125432,14.4471158 4.52493765,14.7601142 C4.45632342,15.0418128 4.18923395,15.226408 3.90352947,15.2061103 L3.80785192,15.191608 L2.49360104,14.8846901 C4.12459952,17.3378391 6.91328372,18.8347514 9.93449589,18.8347514 C14.8281597,18.8347514 18.8094836,14.9378379 18.8094836,10.1478417 C18.8094836,9.82606868 19.0759825,9.56521739 19.4047221,9.56521739 Z M10.4347826,4.34782609 C10.7779759,4.34782609 11.0561919,4.61557769 11.0561919,4.9458626 L11.0561919,4.9458626 L11.0561919,5.57692366 L12.422069,5.57692366 C12.7652623,5.57692366 13.0434783,5.84467526 13.0434783,6.17496018 C13.0434783,6.50524509 12.7652623,6.77299669 12.422069,6.77299669 L12.422069,6.77299669 L10.4347826,6.77299669 C9.68165381,6.77299669 9.0689465,7.36269807 9.06890546,8.08746034 C9.06890546,8.81226211 9.68165381,9.40196348 10.4347826,9.40196348 C11.8731897,9.40196348 13.0434783,10.5281951 13.0434783,11.9125397 C13.0434783,13.0907573 12.1955311,14.0815331 11.0561919,14.3505488 L11.0561919,14.3505488 L11.0561919,15.0541374 C11.0561919,15.3844223 10.7779759,15.6521739 10.4347826,15.6521739 C10.0915894,15.6521739 9.81337336,15.3844223 9.81337336,15.0541374 L9.81337336,15.0541374 L9.81337336,14.4230763 L8.44749621,14.4230763 C8.10430295,14.4230763 7.82608696,14.1553247 7.82608696,13.8250398 C7.82608696,13.4947549 8.10430295,13.2270033 8.44749621,13.2270033 L8.44749621,13.2270033 L10.4347826,13.2270033 C11.1879114,13.2270033 11.8006598,12.6373414 11.8006598,11.9125397 C11.8006598,11.1877379 11.1879114,10.5980365 10.4347826,10.5980365 C8.99637556,10.5980365 7.82608696,9.47180486 7.82608696,8.08746034 C7.82608696,6.90924268 8.67403413,5.91846694 9.81337336,5.64945124 L9.81337336,5.64945124 L9.81337336,4.9458626 C9.81337336,4.61557769 10.0915894,4.34782609 10.4347826,4.34782609 Z M10.0654326,4.52970994e-14 C13.391628,4.52970994e-14 16.4691234,1.59974199 18.3383171,4.23818376 L18.5154026,4.49674056 L18.825701,3.22373395 C18.9019388,2.9107355 19.2230497,2.71750235 19.5427844,2.79224021 C19.8305457,2.85940037 20.0191971,3.12067383 19.9984437,3.40046085 L19.9836189,3.494168 L19.338173,6.142051 C19.2729836,6.40956019 19.0288969,6.58959298 18.7596859,6.58959298 L18.6906187,6.58563865 L18.6906187,6.58563865 L18.6210503,6.57354474 L15.9158473,5.94177509 C15.5960733,5.86715269 15.3986964,5.55288423 15.4750128,5.23988578 C15.5436622,4.95818718 15.8106907,4.77349846 16.0964105,4.79386161 L16.1920963,4.80839204 L17.5063429,5.11530986 C15.8753497,2.66216093 13.0866744,1.16524863 10.0654719,1.16524863 C5.1717844,1.16524863 1.19047331,5.06220057 1.19047331,9.85215829 C1.19047331,10.1738928 0.923975257,10.4347826 0.595236656,10.4347826 C0.266498055,10.4347826 0,10.1739698 0,9.85215829 C0,7.22051597 1.04700158,4.7464312 2.94807084,2.8856048 C4.84921874,1.0247784 7.37686118,4.52970994e-14 10.0654326,4.52970994e-14 Z" id="Combined-Shape"></path>
                </g>
            </g>
        </g>
    </g>
</svg>
