<?xml version="1.0" encoding="UTF-8"?>
<svg width="35px" height="35px" viewBox="0 0 35 35" version="1.1" xmlns="http://www.w3.org/2000/svg" xmlns:xlink="http://www.w3.org/1999/xlink">
    <!-- Generator: Sketch 57.1 (83088) - https://sketch.com -->
    <title>dashboard</title>
    <desc>Created with Sketch.</desc>
    <g id="Dashboard" stroke="none" stroke-width="1" fill="none" fill-rule="evenodd">
        <g id="dashboard" transform="translate(-19.000000, -264.000000)" fill="#999" fill-rule="nonzero">
            <g id="Group-31" transform="translate(19.000000, 264.000000)">
                <g id="Swap,-Call,-Tool,-Swapping">
                    <g id="Group">
                        <g id="Group-47">
                            <path d="M24.5,9.33333333 L20.1666667,13.6666667 L23.4166667,13.6666667 L23.4166667,21.25 C23.4166667,22.4470833 22.4470833,23.4166667 21.25,23.4166667 C20.0529167,23.4166667 19.0833333,22.4470833 19.0833333,21.25 L19.0833333,13.6666667 C19.0833333,11.2779167 17.13875,9.33333333 14.75,9.33333333 C12.36125,9.33333333 10.4166667,11.2779167 10.4166667,13.6666667 L10.4166667,21.25 L7.16666667,21.25 L11.5,25.5833333 L15.8333333,21.25 L12.5833333,21.25 L12.5833333,13.6666667 C12.5833333,12.4695833 13.5529167,11.5 14.75,11.5 C15.9470833,11.5 16.9166667,12.4695833 16.9166667,13.6666667 L16.9166667,21.25 C16.9166667,23.63875 18.86125,25.5833333 21.25,25.5833333 C23.63875,25.5833333 25.5833333,23.63875 25.5833333,21.25 L25.5833333,13.6666667 L28.8333333,13.6666667 L24.5,9.33333333 Z" id="Shape"></path>
                        </g>
                    </g>
                </g>
            </g>
        </g>
    </g>
</svg>
