<?xml version="1.0" encoding="UTF-8"?>
<svg width="25px" height="24px" viewBox="0 0 25 24" version="1.1" xmlns="http://www.w3.org/2000/svg" xmlns:xlink="http://www.w3.org/1999/xlink">
    <!-- Generator: Sketch 55.2 (78181) - https://sketchapp.com -->
    <title>Group 57 Copy 9</title>
    <desc>Created with Sketch.</desc>
    <defs>
        <filter x="-4.3%" y="-6.8%" width="108.6%" height="113.5%" filterUnits="objectBoundingBox" id="filter-1">
            <feOffset dx="0" dy="2" in="SourceAlpha" result="shadowOffsetOuter1"></feOffset>
            <feGaussianBlur stdDeviation="4.5" in="shadowOffsetOuter1" result="shadowBlurOuter1"></feGaussianBlur>
            <feColorMatrix values="0 0 0 0 0   0 0 0 0 0   0 0 0 0 0  0 0 0 0.211046766 0" type="matrix" in="shadowBlurOuter1" result="shadowMatrixOuter1"></feColorMatrix>
            <feMerge>
                <feMergeNode in="shadowMatrixOuter1"></feMergeNode>
                <feMergeNode in="SourceGraphic"></feMergeNode>
            </feMerge>
        </filter>
    </defs>
    <g id="Landing-page" stroke="none" stroke-width="1" fill="none" fill-rule="evenodd">
        <g id="landing-page(Desktop)-3" transform="translate(-819.000000, -332.000000)">
            <g id="Group-11" filter="url(#filter-1)" transform="translate(557.000000, 68.000000)">
                <g id="Group-58" transform="translate(38.000000, 87.000000)"></g>
            </g>
            <g id="Group-13" opacity="0.5" transform="translate(821.000000, 334.000000)" fill="#0D3046" fill-rule="nonzero">
                <path d="M3.96468008,14.5946711 L2.19809511,14.5620967 C2.07638364,14.5620967 1.97770155,14.6860715 1.97770155,14.8389783 L2.09242157,16.795217 L2.51677562,16.7504309 L2.62483631,15.5504951 C5.0132224,18.2373821 7.75121585,18.2040777 9.97032506,15.2972266 L9.65200271,14.9140809 C7.63058051,17.5608147 5.20385705,17.6530788 2.98474786,15.2693013 L3.93023835,15.0755322 L3.96468008,14.5946711 Z" id="Path-Copy-2" stroke="#0B3047" transform="translate(5.974013, 16.042493) rotate(38.000000) translate(-5.974013, -16.042493) "></path>
                <path d="M12.6665669,2.72846184 L10.8999819,2.69588742 C10.7782704,2.69588742 10.6795883,2.81986222 10.6795883,2.97276901 L10.7943084,4.92900771 L11.2186624,4.8842216 L11.3267231,3.68428579 C13.7151092,6.37117282 16.4531026,6.33786845 18.6722119,3.43101734 L18.3158159,3.07462135 C16.2943937,5.72135516 13.9057438,5.78686949 11.6866347,3.40309206 L12.6321252,3.20932291 L12.6665669,2.72846184 Z" id="Path-Copy-3" stroke="#0B3047" transform="translate(14.675900, 4.176284) rotate(-135.000000) translate(-14.675900, -4.176284) "></path>
                <g id="Group-3-Copy">
                    <g id="Group" transform="translate(0.000000, 5.933105)">
                        <path d="M2.42003775,1.36294613 L1.94434272,1.36294613 L1.94434272,2.29222757 L2.42003775,2.29222757 C2.66273929,2.29222757 2.85932754,2.08371844 2.85932754,1.82629976 C2.85932754,1.56888107 2.66273929,1.36294613 2.42003775,1.36294613 Z" id="Path"></path>
                        <path d="M2.42003775,2.84979644 L1.94434272,2.84979644 L1.94434272,3.77907789 L2.42003775,3.77907789 C2.66273929,3.77907789 2.85932754,3.57056876 2.85932754,3.31315007 C2.85932754,3.05573139 2.66273929,2.84979644 2.42003775,2.84979644 Z" id="Path"></path>
                        <path d="M0,0 L0,5.14202402 L4.74648371,5.14202402 L4.74648371,0 L0,0 Z M3.3646835,3.32280624 C3.3646835,3.90187419 2.92711344,4.37407553 2.39051436,4.37407553 L1.66046325,4.37407553 C1.50616223,4.37407553 1.38180021,4.23987094 1.38180021,4.07335784 L1.38180021,2.57473991 C1.38180021,2.57473991 1.38180021,2.57473991 1.38180021,2.57225464 C1.38180021,2.57225464 1.38180021,2.57225464 1.38180021,2.56976937 L1.38180021,1.07115145 C1.38180021,0.904638348 1.50616223,0.770433758 1.66046325,0.770433758 L2.39051436,0.770433758 C2.92711344,0.770433758 3.3646835,1.24263509 3.3646835,1.82170305 C3.3646835,2.11496493 3.25183649,2.38337411 3.06989946,2.57225464 C3.25183649,2.76113518 3.3646835,3.02705909 3.3646835,3.32280624 Z" id="Shape"></path>
                    </g>
                    <g id="Group" transform="translate(2.768782, 0.000000)">
                        <polygon id="Path" points="2.05871583 2.91174854 2.74495443 2.91174854 2.40065603 1.92051499"></polygon>
                        <path d="M0,0 L0,5.14202402 L4.74648371,5.14202402 L4.74648371,0 L0,0 Z M3.53971153,4.3517081 C3.39462251,4.41135458 3.23110948,4.33431121 3.17583747,4.17773919 L2.92481044,3.47192245 L1.82167327,3.47192245 L1.57064623,4.17773919 C1.51998023,4.33928175 1.37258821,4.41135458 1.20677218,4.3517081 C1.05938016,4.29951742 0.987987148,4.11560743 1.04556216,3.95903541 L2.11185132,0.964284833 C2.15330532,0.847477134 2.25924334,0.770433758 2.37439335,0.770433758 C2.49184637,0.770433758 2.59548139,0.847477134 2.63693539,0.966770103 L3.70322455,3.96152068 C3.75849656,4.11560743 3.68710355,4.29206161 3.53971153,4.3517081 Z" id="Shape"></path>
                    </g>
                    <path d="M5.53756433,5.93310464 L5.53756433,11.0751287 L10.284048,11.0751287 L10.284048,5.93310464 L5.53756433,5.93310464 Z M8.07892288,9.7320072 C8.31717752,9.7320072 8.54626853,9.62049343 8.72495951,9.41976863 C8.83034138,9.30082061 9.00445054,9.29586444 9.11670513,9.4098563 C9.22666882,9.52384816 9.23125064,9.71218253 9.12586877,9.83360864 C8.84408684,10.1557595 8.4706685,10.3317035 8.07892288,10.3317035 C7.24503162,10.3317035 6.56692224,9.52632624 6.56692224,8.53509269 C6.56692224,7.54385915 7.24503162,6.73848189 8.07892288,6.73848189 C8.50045033,6.73848189 8.90594141,6.94911902 9.19001426,7.31587543 C9.28852339,7.44225771 9.27248702,7.63059208 9.15565061,7.73714969 C9.03881419,7.8437073 8.86470503,7.82636071 8.7661959,7.69997843 C8.58292309,7.46456046 8.34008662,7.3357001 8.07892288,7.3357001 C7.54972265,7.3357001 7.11903156,7.8734443 7.11903156,8.53261461 C7.11903156,9.19178492 7.54972265,9.7320072 8.07892288,9.7320072 Z" id="Shape"></path>
                </g>
                <g id="004-binary-code-copy" transform="translate(10.284048, 9.024532)">
                    <path d="M0.884225904,7.50788813 C0.884225904,7.73040634 1.04047036,7.91080618 1.23319357,7.91080618 C1.42591678,7.91080618 1.58216124,7.73040634 1.58216124,7.50788813 L1.58216124,4.35830462 C1.58216124,4.19531084 1.49715271,4.04843378 1.36673186,3.98606207 C1.23640407,3.92374408 1.08625492,3.95818014 0.986450166,4.0734147 L0.102212629,5.09435531 C-0.0340708765,5.25170824 -0.0340708765,5.50683595 0.102212629,5.66413515 C0.238496135,5.82148808 0.459462461,5.82148808 0.595699438,5.66413515 L0.884225904,5.33100251 L0.884225904,7.50788813 Z" id="Path"></path>
                    <path d="M2.72232584,1.70873206 L3.08298393,1.37559942 L3.08298393,3.55248504 C3.08298393,3.77500325 3.2782895,3.95540309 3.51919351,3.95540309 C3.76009752,3.95540309 3.95540309,3.77500325 3.95540309,3.55248504 L3.95540309,0.402901531 C3.95540309,0.23990775 3.84914244,0.0930306915 3.68611638,0.0306589778 C3.52320664,-0.0316590135 3.33552019,0.00277704893 3.21076425,0.11801161 L2.10546733,1.13895222 C1.93511295,1.29630515 1.93511295,1.55143285 2.10546733,1.70873206 C2.27582171,1.86608499 2.55202962,1.86608499 2.72232584,1.70873206 Z" id="Path"></path>
                    <path d="M7.2998365,3.98606207 C7.16950871,3.92374408 7.01935955,3.95818014 6.9195548,4.0734147 L6.03531727,5.09435531 C5.89903376,5.25170824 5.89903376,5.50683595 6.03531727,5.66413515 C6.17160077,5.82148808 6.3925671,5.82148808 6.52880407,5.66413515 L6.81733054,5.33100251 L6.81733054,7.50788813 C6.81733054,7.73040634 6.973575,7.91080618 7.16629821,7.91080618 C7.35902142,7.91080618 7.51526587,7.73040634 7.51526587,7.50788813 L7.51526587,4.35830462 C7.51526587,4.19536456 7.43025735,4.04843378 7.2998365,3.98606207 Z" id="Path"></path>
                    <path d="M6.50875588,7.94146516 C6.37842809,7.87914717 6.22827894,7.91358323 6.12847418,8.02881779 L5.24423665,9.0497584 C5.10795314,9.20711133 5.10795314,9.46223904 5.24423665,9.61953824 C5.38052015,9.77689117 5.60148648,9.77689117 5.73772346,9.61953824 L6.02624992,9.2864056 L6.02624992,11.4632912 C6.02624992,11.6858094 6.18249438,11.8662093 6.37521759,11.8662093 C6.5679408,11.8662093 6.72418525,11.6858094 6.72418525,11.4632912 L6.72418525,8.31370771 C6.72418525,8.15076765 6.63917673,8.00383687 6.50875588,7.94146516 Z" id="Path-Copy"></path>
                    <path d="M5.53756433,6.52604441 L5.53756433,5.34016486 C5.53756433,4.57660112 4.83285793,3.95540309 3.96664743,3.95540309 L3.94415875,3.95540309 C3.07794825,3.95540309 2.37324185,4.57660112 2.37324185,5.34016486 L2.37324185,6.52604441 C2.37324185,7.28960815 3.07794825,7.91080618 3.94415875,7.91080618 L3.96664743,7.91080618 C4.83285793,7.91080618 5.53756433,7.28960815 5.53756433,6.52604441 Z M4.62339016,6.52604441 C4.62339016,6.84526595 4.32878229,7.10496251 3.96664743,7.10496251 L3.94415875,7.10496251 C3.58202389,7.10496251 3.28741602,6.84526595 3.28741602,6.52604441 L3.28741602,5.34016486 C3.28741602,5.02094332 3.58202389,4.76124677 3.94415875,4.76124677 L3.96664743,4.76124677 C4.32878229,4.76124677 4.62339016,5.02094332 4.62339016,5.34016486 L4.62339016,6.52604441 Z" id="Shape"></path>
                    <path d="M9.89975207,3.95540309 L9.87726338,3.95540309 C9.01105289,3.95540309 8.30634649,4.57660112 8.30634649,5.34016486 L8.30634649,6.52604441 C8.30634649,7.28960815 9.01105289,7.91080618 9.87726338,7.91080618 L9.89975207,7.91080618 C10.7659626,7.91080618 11.470669,7.28960815 11.470669,6.52604441 L11.470669,5.34016486 C11.470669,4.57665484 10.7659626,3.95540309 9.89975207,3.95540309 Z M10.5564948,6.52609813 C10.5564948,6.84531968 10.2618869,7.10501623 9.89975207,7.10501623 L9.87726338,7.10501623 C9.51512852,7.10501623 9.22052066,6.84531968 9.22052066,6.52609813 L9.22052066,5.34021858 C9.22052066,5.02099704 9.51512852,4.76130049 9.87726338,4.76130049 L9.89975207,4.76130049 C10.2618869,4.76130049 10.5564948,5.02099704 10.5564948,5.34021858 L10.5564948,6.52609813 Z" id="Shape"></path>
                    <path d="M6.33988929,0 L6.3174006,0 C5.4511901,0 4.74648371,0.621198027 4.74648371,1.38476177 L4.74648371,2.57064132 C4.74648371,3.33420506 5.4511901,3.95540309 6.3174006,3.95540309 L6.33988929,3.95540309 C6.59232325,3.95540309 6.79697637,3.77500155 6.79697637,3.55248125 C6.79697637,3.32996095 6.59232325,3.14955942 6.33988929,3.14955942 L6.3174006,3.14955942 C5.95526574,3.14955942 5.66065788,2.88986286 5.66065788,2.57064132 L5.66065788,1.38476177 C5.66065788,1.06554023 5.95526574,0.805843674 6.3174006,0.805843674 L6.33988929,0.805843674 C6.70202415,0.805843674 6.99663201,1.06554023 6.99663201,1.38476177 C6.99663201,1.60728207 7.20128514,1.78768361 7.4537191,1.78768361 C7.70615306,1.78768361 7.91080618,1.60728207 7.91080618,1.38476177 C7.91086713,0.621198027 7.20616073,0 6.33988929,0 Z" id="Path"></path>
                    <path d="M9.89975207,0 L9.87726338,0 C9.01105289,0 8.30634649,0.621198027 8.30634649,1.38476177 L8.30634649,2.57064132 C8.30634649,3.33420506 9.01105289,3.95540309 9.87726338,3.95540309 L9.89975207,3.95540309 C10.7659626,3.95540309 11.470669,3.33420506 11.470669,2.57064132 L11.470669,1.38476177 C11.470669,0.621198027 10.7659626,0 9.89975207,0 Z M10.5564948,2.57069504 C10.5564948,2.88991658 10.2618869,3.14961314 9.89975207,3.14961314 L9.87726338,3.14961314 C9.51512852,3.14961314 9.22052066,2.88991658 9.22052066,2.57069504 L9.22052066,1.38476177 C9.22052066,1.06554023 9.51512852,0.805843674 9.87726338,0.805843674 L9.89975207,0.805843674 C10.2618869,0.805843674 10.5564948,1.06554023 10.5564948,1.38476177 L10.5564948,2.57069504 Z" id="Shape"></path>
                    <path d="M3.17556682,7.91080618 L3.15307813,7.91080618 C2.28686763,7.91080618 1.58216124,8.53200421 1.58216124,9.29556795 L1.58216124,10.4814475 C1.58216124,11.2450112 2.28686763,11.8662093 3.15307813,11.8662093 L3.17556682,11.8662093 C4.04177731,11.8662093 4.74648371,11.2450112 4.74648371,10.4814475 L4.74648371,9.29556795 C4.74654465,8.53205793 4.04183826,7.91080618 3.17556682,7.91080618 Z M3.83237048,10.4815012 C3.83237048,10.8007228 3.53776262,11.0604193 3.17562776,11.0604193 L3.15313908,11.0604193 C2.79100421,11.0604193 2.49639635,10.8007228 2.49639635,10.4815012 L2.49639635,9.29556795 C2.49639635,8.97634641 2.79100421,8.71664986 3.15313908,8.71664986 L3.17562776,8.71664986 C3.53776262,8.71664986 3.83237048,8.97634641 3.83237048,9.29556795 L3.83237048,10.4815012 Z" id="Shape"></path>
                </g>
            </g>
        </g>
    </g>
</svg>