<?xml version="1.0" encoding="UTF-8"?>
<svg width="24px" height="24px" viewBox="0 0 24 24" version="1.1" xmlns="http://www.w3.org/2000/svg" xmlns:xlink="http://www.w3.org/1999/xlink">
    <!-- Generator: Sketch 55.2 (78181) - https://sketchapp.com -->
    <title>icon4</title>
    <desc>Created with Sketch.</desc>
    <g id="Landing-page" stroke="none" stroke-width="1" fill="none" fill-rule="evenodd">
        <g id="ethereum" transform="translate(1.000000, 1.000000)" fill="#8698A3" fill-rule="nonzero">
            <path d="M8.60214231,9.14915465 C8.48062136,8.92205811 8.25654603,8.80859375 8.03263854,8.80859375 C7.80839538,8.80859375 7.58432005,8.92222594 7.46279909,9.1496582 L4.61897279,14.4749298 C4.45246888,14.7869568 4.48167418,15.1667938 4.6941681,15.4496155 L7.5158386,19.2070313 C7.64491273,19.3789063 7.83877566,19.4648438 8.0324707,19.4648438 C8.22616575,19.4648438 8.419693,19.3790741 8.54876709,19.2075348 L11.3756409,15.450119 C11.5888062,15.1669616 11.6181793,14.7866211 11.451004,14.4742584 L8.60214231,9.14915465 Z M8.03330993,17.0339203 L6.37800599,14.8297577 L8.0334778,11.7297974 L9.691803,14.829422 L8.03330993,17.0339203 Z M19.5162048,0.533584605 C18.2518158,0.189498891 16.5854339,0 14.8242187,0 C13.0630036,0 11.3966217,0.189498891 10.1322327,0.533584605 C8.48414613,0.982070934 7.6484375,1.66990661 7.6484375,2.578125 L7.6484375,5.93925475 C3.39671325,6.14167787 0,9.66394043 0,13.9648437 C0,18.3954925 3.60450746,22 8.03515625,22 C8.92994691,22 9.79116823,21.8527985 10.5956574,21.5815582 C11.8041535,21.8553161 13.2664337,22 14.8242187,22 C16.5854339,22 18.2518158,21.8105011 19.5162048,21.4664154 C21.1642914,21.0179291 22,20.3300934 22,19.421875 L22,2.578125 C22,1.66990661 21.1642914,0.982070934 19.5162048,0.533584605 Z M1.71875,13.9648437 C1.71875,10.4820251 4.55233763,7.6484375 8.03515625,7.6484375 C8.54356383,7.6484375 9.03804017,7.70919798 9.51187136,7.82316588 C9.7040558,7.89215088 9.91050719,7.95693972 10.1322327,8.01719664 C10.1659699,8.02642822 10.200882,8.03498841 10.2351227,8.04388428 C12.6365051,8.93901061 14.3515625,11.2552948 14.3515625,13.9648437 C14.3515625,17.4476624 11.5179749,20.28125 8.03515625,20.28125 C4.55233763,20.28125 1.71875,17.4476624 1.71875,13.9648437 Z M18.6524658,19.9099731 C17.5856323,20.1494904 16.2259064,20.28125 14.8242188,20.28125 C14.2293701,20.28125 13.642746,20.2572479 13.0826416,20.2117615 C13.6560059,19.7474976 14.1645813,19.2066956 14.5920868,18.604126 C14.6694641,18.6049652 14.7468414,18.6054688 14.8242188,18.6054688 C15.8781281,18.6054688 16.8867188,18.5393372 17.8219604,18.4087524 C18.2919312,18.3431244 18.6199036,17.908905 18.5542755,17.4387665 C18.4886475,16.9687958 18.0542603,16.6409912 17.5842896,16.7064514 C16.9456329,16.7957458 16.2442017,16.8529816 15.5244751,16.8756409 C15.7242126,16.3637085 15.8725891,15.8264313 15.9637298,15.2701874 C16.609436,15.2393036 17.2321472,15.1825714 17.8219604,15.1001587 C18.2919312,15.0345306 18.6199036,14.6003113 18.5542755,14.1303406 C18.4886475,13.660202 18.0544281,13.3323975 17.5844574,13.3980255 C17.1000519,13.4654999 16.5891266,13.5140075 16.0594025,13.5435486 C16.0312042,13.0024109 15.9494629,12.4753723 15.819046,11.9673004 C16.5146027,11.9387665 17.1854858,11.8803558 17.8219604,11.7915649 C18.292099,11.7259369 18.6199036,11.2917175 18.5542755,10.8217468 C18.4886475,10.3516083 18.0544281,10.0239715 17.5844574,10.0894318 C16.8403931,10.193161 16.0110626,10.2539215 15.1672974,10.2668457 C14.8388214,9.63607786 14.4292755,9.05398562 13.9522552,8.53466797 C14.2394409,8.54507448 14.5303192,8.55078125 14.8242188,8.55078125 C15.8781281,8.55078125 16.8867188,8.48464968 17.8219604,8.35406494 C18.2919312,8.28843688 18.6199036,7.85421751 18.5542755,7.38407897 C18.4886475,6.91410827 18.0542603,6.58647155 17.5842896,6.65176394 C16.7396851,6.76976012 15.785141,6.83203125 14.8242188,6.83203125 C13.4225311,6.83203125 12.0628052,6.70027162 10.9959717,6.46075439 C10.910202,6.44145202 10.8286286,6.4219818 10.7505798,6.40234375 C10.50737,6.3147278 10.2589569,6.23852539 10.0055084,6.17440794 C9.6505127,6.04096986 9.45379639,5.92028809 9.3671875,5.84677122 L9.3671875,4.37475586 C9.59915163,4.46421813 9.85377504,4.54696653 10.1322327,4.62266539 C11.3966217,4.96675111 13.0630036,5.15625 14.8242188,5.15625 C15.8781281,5.15625 16.8867188,5.09011843 17.8219604,4.95953369 C18.2919312,4.89390563 18.6199036,4.45968626 18.5542755,3.98954772 C18.4886475,3.51940918 18.0537567,3.19177246 17.5842896,3.25723269 C16.7395172,3.37522887 15.785141,3.4375 14.8242188,3.4375 C13.4225311,3.4375 12.0628052,3.30574037 10.9959717,3.06622314 C10.2498932,2.89871218 9.80157471,2.71391295 9.55735778,2.578125 C9.80157471,2.44233705 10.2498932,2.25753782 10.9959717,2.09002686 C12.0628052,1.85050963 13.4225311,1.71875 14.8242188,1.71875 C16.2259064,1.71875 17.5856323,1.85050963 18.6524658,2.09002686 C19.6706238,2.31863405 20.1340485,2.57929994 20.28125,2.70401003 L20.28125,19.29599 C20.1338806,19.4208679 19.6702881,19.6815338 18.6524658,19.9099731 L18.6524658,19.9099731 Z" id="Shape"></path>
        </g>
    </g>
</svg>