<?xml version="1.0" encoding="UTF-8"?>
<svg width="25px" height="24px" viewBox="0 0 25 24" version="1.1" xmlns="http://www.w3.org/2000/svg" xmlns:xlink="http://www.w3.org/1999/xlink">
    <!-- Generator: Sketch 55.2 (78181) - https://sketchapp.com -->
    <title>Group 57 Copy 6</title>
    <desc>Created with Sketch.</desc>
    <defs>
        <filter x="-4.3%" y="-6.8%" width="108.6%" height="113.5%" filterUnits="objectBoundingBox" id="filter-1">
            <feOffset dx="0" dy="2" in="SourceAlpha" result="shadowOffsetOuter1"></feOffset>
            <feGaussianBlur stdDeviation="4.5" in="shadowOffsetOuter1" result="shadowBlurOuter1"></feGaussianBlur>
            <feColorMatrix values="0 0 0 0 0   0 0 0 0 0   0 0 0 0 0  0 0 0 0.211046766 0" type="matrix" in="shadowBlurOuter1" result="shadowMatrixOuter1"></feColorMatrix>
            <feMerge>
                <feMergeNode in="shadowMatrixOuter1"></feMergeNode>
                <feMergeNode in="SourceGraphic"></feMergeNode>
            </feMerge>
        </filter>
    </defs>
    <g id="Landing-page" stroke="none" stroke-width="1" fill="none" fill-rule="evenodd">
        <g id="landing-page(Desktop)-3" transform="translate(-819.000000, -197.000000)">
            <g id="Group-11" filter="url(#filter-1)" transform="translate(557.000000, 68.000000)">
                <g id="Group-58" transform="translate(38.000000, 87.000000)"></g>
            </g>
            <g id="Group-8" opacity="0.5" transform="translate(820.000000, 199.000000)">
                <path d="M1.38262252,17.7753453 L2.76387601,17.7753453 L2.76387601,13.6704039 L1.38262252,13.6704039 L1.38262252,17.7753453 Z M4.18327412,17.7968703 L4.47745802,17.7968703 C6.68054531,17.7968703 8.88373711,17.7981365 11.0869289,17.7963427 C12.7413606,17.7950766 14.3961058,17.8068942 16.0501195,17.7797769 C17.0347734,17.7636332 17.861101,17.3328169 18.4741321,16.5644593 C19.1944908,15.6614651 19.8669858,14.7194304 20.5578738,13.7925898 C21.0027551,13.1956935 21.4508761,12.601013 21.8834257,11.9950424 C22.1981972,11.5540968 21.9805116,10.9946582 21.4640438,10.8952634 C21.1547065,10.8356476 20.9369164,11.0049986 20.7387734,11.2209871 C19.8214212,12.2205272 18.8932005,13.2098325 17.9839998,14.2166531 C17.4693086,14.7865377 16.848335,15.0618254 16.0878461,15.0427272 C15.6613579,15.0319647 15.2344516,15.0417776 14.8077543,15.0417776 C13.8063795,15.0415666 12.8049002,15.0456816 11.8035253,15.0387177 C11.2463003,15.0348136 10.9071789,14.5237007 11.1347926,14.0416044 C11.2703366,13.754499 11.5120586,13.6518333 11.8182607,13.6526774 C13.1157005,13.6564759 14.4133493,13.6594303 15.7106846,13.6479292 C15.8932563,13.646241 16.0963111,13.5998146 16.2525473,13.5088609 C16.5118263,13.357764 16.6007607,13.0476565 16.5195597,12.7741625 C16.4247729,12.4550863 16.1770941,12.2654765 15.8116372,12.2619945 C15.080201,12.2550305 14.3467791,12.2272802 13.617851,12.269697 C13.0336634,12.3037783 12.5681945,12.0869457 12.1265529,11.7533084 C12.0290489,11.6795537 11.9350982,11.6009453 11.8398934,11.5242361 C10.6477954,10.5647915 8.99064657,10.4727828 7.76113554,11.3816859 C7.00524491,11.9407024 6.31759658,12.5972145 5.62263285,13.2357891 C5.29155839,13.5399878 4.9436585,13.7116601 4.49491049,13.6598524 C4.39500292,13.6482458 4.29279623,13.6581642 4.18327412,13.6581642 L4.18327412,17.7968703 Z M17.8501279,12.3172841 C18.4252234,11.6937982 18.982971,11.0910985 19.5384195,10.4862886 C19.8650002,10.1307043 20.1922079,9.7817674 20.6665598,9.61779766 C21.4736583,9.33892247 22.3973853,9.58730393 22.9155252,10.2343197 C23.4985632,10.9625817 23.5910508,11.9068322 23.0854517,12.6585185 C22.5677298,13.4281422 21.9961874,14.1611524 21.4447102,14.9074575 C20.8671065,15.6891099 20.2945191,16.4747719 19.7034342,17.2460839 C18.7115694,18.5403264 17.38654,19.1894525 15.7752692,19.193251 C10.7869972,19.2049631 5.79851615,19.1982102 0.810139616,19.1966275 C0.260961507,19.196522 0.000532991816,18.9239777 0.000323980166,18.364328 C-0.000107993389,16.6063486 -0.000107993389,14.8483693 0.000323980166,13.0903899 C0.000532991816,12.5308458 0.258244356,12.2624165 0.811811709,12.2608338 C1.96095776,12.2576684 3.11020831,12.254925 4.25924986,12.2670592 C4.51999189,12.269697 4.71290964,12.1955203 4.91063466,12.0182557 C5.59964157,11.4000454 6.27150951,10.7523966 7.0176811,10.2110009 C8.65737749,9.0212179 11.0114757,9.09803255 12.5954705,10.3758148 C13.053415,10.7452216 13.5054027,10.9297667 14.0908443,10.8831292 C14.6445162,10.8390241 15.2045629,10.8663524 15.7616835,10.8765873 C16.712582,10.8941027 17.4083817,11.3131013 17.7826171,12.2204217 C17.7921271,12.2435294 17.8115652,12.262522 17.8501279,12.3172841 L17.8501279,12.3172841 Z" id="Fill-1" stroke="#002747" stroke-width="0.4" fill="#002747"></path>
                <path d="M12.5231591,4.35361299 C12.4911891,3.84518627 12.4948103,3.4774428 12.4404921,3.11910672 C12.2940919,2.15121446 11.3944802,1.39135383 10.4451029,1.40632014 C9.44120044,1.42224856 8.55027972,2.2120418 8.45871488,3.21809813 C8.40656948,3.79184208 8.41494999,4.37328299 8.42560669,4.95055472 C8.42995214,5.18509808 8.49016766,5.42616248 8.56414378,5.65044323 C8.83480324,6.47059669 9.61884658,7.0178289 10.4777972,7.00649727 C11.3512327,6.99495184 12.147795,6.42441495 12.3650675,5.58245345 C12.4785666,5.14212341 12.4848778,4.67228837 12.5231591,4.35361299 M13.8745941,3.5072685 L17.9257951,3.5072685 C17.9257951,3.03625754 17.9210358,2.5764713 17.927347,2.11679197 C17.931796,1.79929252 18.1212369,1.53417513 18.3893098,1.44341519 C18.6616246,1.35105171 18.964875,1.4293041 19.1261739,1.67892067 C19.211531,1.81094485 19.2644006,1.98776105 19.2714361,2.14704528 C19.2905768,2.59026168 19.2780578,3.03486781 19.2780578,3.51742421 C19.706395,3.51742421 20.1167296,3.52287622 20.5264435,3.50876514 C20.5663802,3.50737541 20.6332174,3.38614835 20.6351832,3.31901378 C20.6461503,2.94517689 20.637149,2.57080549 20.6421152,2.19675479 C20.6482195,1.72756116 20.9167063,1.41262736 21.308728,1.40482351 C21.7038535,1.39691275 22.0032757,1.73151654 22.0063796,2.19761001 C22.0107251,2.83891613 22.0110355,3.48032916 22.0063796,4.12174218 C22.0027584,4.63070342 21.72496,4.91463559 21.232993,4.91484939 C18.8878984,4.91623912 16.5429074,4.9154908 14.1978128,4.9154908 L13.8685933,4.9154908 C13.8464521,5.09626238 13.8289669,5.2696577 13.803515,5.44177019 C13.54972,7.1555189 12.1382764,8.41899566 10.4680717,8.42921017 C8.79031411,8.43920017 7.33717492,7.1603295 7.11493619,5.41226519 C7.0008164,4.51396625 6.97112249,3.59631801 7.16542618,2.70261586 C7.51140678,1.11052183 8.89419105,-0.0040402066 10.4658989,1.10079304e-05 C12.0301575,0.0040843584 13.4114933,1.14141656 13.7590258,2.72089613 C13.8140682,2.9702989 13.8344504,3.22771933 13.8745941,3.5072685" id="Fill-3" stroke="#002747" stroke-width="0.4" fill="#002747"></path>
                <path d="M4.21463415,17.7941969 L4.21463415,13.6694335 C4.3238414,13.6694335 4.42575429,13.659654 4.52537465,13.671116 C4.97283263,13.722853 5.31973241,13.5517634 5.64985511,13.2484921 C6.34282102,12.6121901 7.02838834,11.9579064 7.7822102,11.4007874 C9.00808252,10.4948642 10.6605717,10.5865606 11.8492427,11.5427486 C11.9441739,11.6191974 12.0378545,11.6976441 12.1350782,11.7711485 C12.5754502,12.1036533 13.039581,12.3196448 13.6220892,12.2857844 C14.3489219,12.2434063 15.0802354,12.2711676 15.8095689,12.278108 C16.1739752,12.2815781 16.420942,12.4705443 16.5153521,12.7885376 C16.5964239,13.0611032 16.5077451,13.3701581 16.2492115,13.5207422 C16.0934245,13.6113871 15.8909534,13.657656 15.7089065,13.6593385 C14.4153007,13.6708005 13.1213823,13.667751 11.8276722,13.6640705 C11.5222462,13.6632293 11.2813233,13.7655465 11.1461689,14.0516774 C10.9192095,14.5321374 11.2573561,15.0415154 11.8129793,15.0454062 C12.8114754,15.0523465 13.8100757,15.0482454 14.8085719,15.0484557 C15.2340425,15.0484557 15.6597216,15.0386762 16.0849838,15.049297 C16.8432865,15.0684355 17.462475,14.7940822 17.9756866,14.2260268 C18.8822736,13.2227287 19.8078259,12.2366763 20.7225409,11.240634 C20.9201144,11.0253787 21.1372784,10.8564974 21.4457264,10.9159108 C21.9607095,11.0150733 22.1777693,11.5726131 21.8639027,12.012062 C21.4325965,12.6159758 20.9857638,13.2086378 20.5421614,13.8034029 C19.8532595,14.7272027 19.1826977,15.6660398 18.4644099,16.5658639 C17.853141,17.3317186 17.0291889,17.7610726 16.0473657,17.7771615 C14.3981068,17.8041868 12.7481185,17.7923041 11.0984428,17.7936711 C8.9015846,17.7954588 6.70472637,17.7941969 4.50786814,17.7941969 L4.21463415,17.7941969 Z" id="Fill-4" fill="#FEFEFE"></path>
                <polygon id="Fill-5" fill="#FEFEFE" points="1.40487805 17.795122 2.8097561 17.795122 2.8097561 13.5804878 1.40487805 13.5804878"></polygon>
                <path d="M10.9165408,4.2267757 C10.9165408,4.00355989 10.9219222,3.78023681 10.9154079,3.55723552 C10.9024735,3.11809781 10.6407654,2.81743758 10.2823802,2.82087002 C9.92890429,2.82408794 9.67984731,3.1074787 9.67050059,3.54597282 C9.66087064,4.00087829 9.66247563,4.45664187 9.67371058,4.91154734 C9.68437905,5.34178215 9.9448598,5.62903442 10.2967307,5.62442208 C10.6411431,5.62002426 10.9009629,5.31850593 10.9151246,4.89631589 C10.9225831,4.67342187 10.9164464,4.44999152 10.9165408,4.2267757 M12.1756098,4.36235706 C12.1406776,4.68221749 12.1349185,5.15364158 12.0313493,5.59535361 C11.8330856,6.44016273 11.1062131,7.01262924 10.309193,7.02421373 C9.52539044,7.03569094 8.80994169,6.48650066 8.56296175,5.66357334 C8.49536327,5.43853404 8.44051031,5.19665433 8.43654504,4.96142498 C8.42682067,4.38209358 8.41917336,3.79868617 8.46675665,3.22300174 C8.55031064,2.2135428 9.36328626,1.42107838 10.2792646,1.40509608 C11.145677,1.39007916 11.9665832,2.152617 12.1001751,3.12367553 C12.1497411,3.48322354 12.1464367,3.85221077 12.1756098,4.36235706" id="Fill-6" fill="#FEFEFE"></path>
                <path d="M11.2364373,4.21875996 C11.2364373,4.44246305 11.2432033,4.66638113 11.2348515,4.88976173 C11.2190995,5.31287338 10.9280565,5.61504992 10.5423955,5.61945734 C10.1484884,5.62407974 9.85681111,5.33620042 9.84486492,4.90502643 C9.83228442,4.44912792 9.83038149,3.99236943 9.84127049,3.53647092 C9.85173662,3.09701958 10.130622,2.81301018 10.526432,2.80978525 C10.9277393,2.80634532 11.2206853,3.10766187 11.2351687,3.54775819 C11.242569,3.77124629 11.2364373,3.99505687 11.2364373,4.21875996" id="Fill-7" stroke="#002747" stroke-width="0.4" fill="#002747"></path>
            </g>
        </g>
    </g>
</svg>