<?xml version="1.0" encoding="UTF-8"?>
<svg width="25px" height="25px" viewBox="0 0 25 25" version="1.1" xmlns="http://www.w3.org/2000/svg" xmlns:xlink="http://www.w3.org/1999/xlink">
    <!-- Generator: Sketch 55.2 (78181) - https://sketchapp.com -->
    <title>icon6</title>
    <desc>Created with Sketch.</desc>
    <g id="Landing-page" stroke="none" stroke-width="1" fill="none" fill-rule="evenodd">
        <g id="Group-8" transform="translate(0.000000, 2.000000)">
            <path d="M1.4402318,18.5159847 L2.87903751,18.5159847 L2.87903751,14.240004 L1.4402318,14.240004 L1.4402318,18.5159847 Z M4.35757721,18.5384066 L4.66401877,18.5384066 C6.95890137,18.5384066 9.25389282,18.5397255 11.5488843,18.537857 C13.2722506,18.5365381 14.9959436,18.5488481 16.7188745,18.520601 C17.7445556,18.5037846 18.6053135,18.0550176 19.2438876,17.2546451 C19.9942612,16.3140261 20.6947768,15.33274 21.4144519,14.367281 C21.8778699,13.7455141 22.3446626,13.1260552 22.7952351,12.4948359 C23.1231221,12.0355175 22.8963662,11.4527689 22.3583789,11.3492327 C22.0361527,11.2871329 21.8092879,11.4635402 21.6028889,11.6885282 C20.6473138,12.7297159 19.6804172,13.7602421 18.7333331,14.8090137 C18.1971965,15.4026434 17.550349,15.6894014 16.7581731,15.6695075 C16.3139144,15.6582966 15.8692204,15.6685183 15.4247441,15.6685183 C14.3816453,15.6682985 13.3384377,15.672585 12.2953389,15.6653309 C11.7148961,15.6612642 11.3616447,15.1288549 11.5987423,14.6266712 C11.739934,14.3276031 11.9917277,14.2206597 12.3106882,14.221539 C13.662188,14.2254958 15.0139055,14.2285733 16.3652965,14.216593 C16.5554753,14.2148344 16.7669907,14.1664735 16.9297368,14.0717302 C17.199819,13.9143375 17.2924591,13.5913088 17.2078747,13.3064193 C17.1091385,12.9740482 16.8511397,12.776538 16.4704555,12.7729109 C15.7085427,12.7656568 14.9445616,12.7367502 14.1852614,12.7809344 C13.5767327,12.8164357 13.0918692,12.5905684 12.6318259,12.2430296 C12.5302593,12.1662017 12.4323939,12.084318 12.3332223,12.0044126 C11.0914536,11.0049912 9.36525684,10.9091487 8.08451619,11.8559228 C7.29713011,12.4382317 6.58082977,13.1220984 5.85690922,13.7872803 C5.51203999,14.1041539 5.14964427,14.2829792 4.68219843,14.2290129 C4.57812805,14.2169227 4.47166274,14.2272543 4.35757721,14.2272543 L4.35757721,18.5384066 Z M18.5938832,12.8305043 C19.1929411,12.1810397 19.7739281,11.5532276 20.3525203,10.9232173 C20.6927085,10.552817 21.0335499,10.189341 21.5276665,10.0185392 C22.3683941,9.72804424 23.3306097,9.98677492 23.8703387,10.6607497 C24.47767,11.419356 24.5740113,12.4029502 24.0473455,13.1859568 C23.5080519,13.9876482 22.9126953,14.7512005 22.3382398,15.5286015 C21.7365693,16.3428228 21.1401241,17.1612207 20.5244106,17.9646707 C19.4912181,19.31284 18.1109792,19.989013 16.4325721,19.9929698 C11.2364554,20.0051699 6.04012099,19.9981356 0.843895434,19.996487 C0.271834903,19.9963771 0.000555199808,19.7124767 0.00033747934,19.1295084 C-0.000112493113,17.2982798 -0.000112493113,15.4670513 0.00033747934,13.6358228 C0.000555199808,13.0529643 0.269004537,12.7733506 0.845637197,12.7717019 C2.04266433,12.7684046 3.23980033,12.7655469 4.4367186,12.7781866 C4.70832489,12.7809344 4.90928088,12.7036669 5.11524444,12.5190163 C5.83295996,11.8750473 6.53282241,11.2004131 7.31008448,10.6364593 C9.01810155,9.39710197 11.4702872,9.47711724 13.1202818,10.8081404 C13.5973073,11.1929391 14.0681278,11.3851736 14.6779628,11.3365929 C15.2547044,11.2906501 15.8380864,11.319117 16.4184203,11.3297784 C17.4089395,11.3480237 18.133731,11.7844806 18.5235595,12.7296059 C18.5334658,12.7536765 18.5537138,12.7734605 18.5938832,12.8305043 L18.5938832,12.8305043 Z" id="Fill-1" stroke="#8698A3" stroke-width="0.4" fill="#8698A3"></path>
            <path d="M13.0449574,4.53501353 C13.0116553,4.00540236 13.0154274,3.62233625 12.958846,3.2490695 C12.8063457,2.2408484 11.8692502,1.44932691 10.8803155,1.46491681 C9.8345838,1.48150892 8.90654138,2.30421021 8.81116134,3.35218555 C8.75684321,3.9498355 8.76557291,4.55550312 8.77667364,5.15682783 C8.78120015,5.40114383 8.84392465,5.65225258 8.9209831,5.88587837 C9.20292004,6.74020488 10.0196319,7.31023844 10.9143721,7.29843466 C11.8242007,7.28640816 12.6539532,6.69209891 12.8802787,5.81505568 C12.9985068,5.35637855 13.005081,4.86696705 13.0449574,4.53501353 M14.4527022,3.65340469 L18.6727032,3.65340469 C18.6727032,3.16276827 18.6677456,2.68382427 18.6743198,2.20499163 C18.6789541,1.87426304 18.8762884,1.5980991 19.155531,1.50355749 C19.4391923,1.40734554 19.7550781,1.48885844 19.9230979,1.7488757 C20.0120115,1.88640089 20.067084,2.07058442 20.0744126,2.2365055 C20.0943508,2.69818925 20.0813102,3.16132064 20.0813102,3.66398355 C20.5274948,3.66398355 20.9549267,3.66966273 21.381712,3.65496368 C21.4233127,3.65351605 21.4929348,3.52723786 21.4949825,3.45730602 C21.5064065,3.06789259 21.4970302,2.67792238 21.5022034,2.28828624 C21.508562,1.79954288 21.7882357,1.47148684 22.1965916,1.46335782 C22.6081807,1.45511744 22.9200789,1.80366306 22.9233121,2.28917709 C22.9278386,2.9572043 22.9281619,3.62534287 22.9233121,4.29348144 C22.91954,4.8236494 22.6301667,5.11941207 22.117701,5.11963478 C19.6748942,5.12108242 17.2321952,5.12030292 14.7893884,5.12030292 L14.4464513,5.12030292 C14.4233877,5.30860664 14.4051738,5.48922677 14.3786614,5.66851062 C14.1142917,7.45366552 12.644038,8.76978714 10.9042413,8.78042726 C9.15657719,8.79083351 7.64289054,7.45867656 7.41139187,5.63777624 C7.29251708,4.70204818 7.26158592,3.7461646 7.46398561,2.81522486 C7.82438206,1.15679357 9.26478235,-0.00420854854 10.9019781,1.14665942e-05 C12.5314141,0.00425454 13.9703055,1.18897558 14.3323186,2.83426681 C14.3896544,3.09406135 14.4108859,3.36220763 14.4527022,3.65340469" id="Fill-3" stroke="#8698A3" stroke-width="0.4" fill="#8698A3"></path>
            <path d="M4.3902439,18.5356218 L4.3902439,14.2389932 C4.50400146,14.2389932 4.61016071,14.2288062 4.71393192,14.2407458 C5.18003399,14.2946385 5.54138792,14.1164202 5.88526574,13.8005126 C6.60710523,13.1376981 7.32123786,12.4561525 8.10646896,11.8758202 C9.38341929,10.9321502 11.1047622,11.0276673 12.3429612,12.0236965 C12.4418478,12.1033306 12.5394318,12.185046 12.6407064,12.261613 C13.0994273,12.6079722 13.5828969,12.8329633 14.1896763,12.7976921 C14.9467936,12.7535483 15.7085785,12.7824663 16.468301,12.7896958 C16.8478909,12.7933105 17.1051479,12.9901504 17.2034918,13.3213933 C17.2879416,13.6053158 17.1955678,13.9272481 16.926262,14.0841065 C16.7639838,14.1785283 16.5530764,14.226725 16.3634443,14.2284776 C15.0159382,14.2404172 13.6681065,14.2372406 12.3204919,14.2334068 C12.0023398,14.2325305 11.7513785,14.339111 11.6105926,14.6371639 C11.3741766,15.1376431 11.7264126,15.6682452 12.3051867,15.6722981 C13.3452869,15.6795276 14.3854956,15.6752556 15.4255957,15.6754747 C15.8687943,15.6754747 16.31221,15.6652877 16.7551915,15.676351 C17.5450901,15.6962869 18.1900781,15.4105023 18.7246735,14.8187779 C19.669035,13.7736758 20.633152,12.7465378 21.5859801,11.7089938 C21.7917858,11.4847695 22.0179983,11.3088514 22.3392983,11.3707404 C22.875739,11.4740347 23.101843,12.0548053 22.7748986,12.5125646 C22.3256214,13.1416414 21.8601706,13.7589977 21.3980848,14.3785447 C20.6804786,15.3408361 19.9819768,16.3187915 19.2337603,17.2561082 C18.5970219,18.0538736 17.7387385,18.5011173 16.7160059,18.5178766 C14.9980279,18.5460279 13.2792901,18.5336501 11.560878,18.5350741 C9.27248396,18.5369362 6.98408997,18.5356218 4.69569598,18.5356218 L4.3902439,18.5356218 Z" id="Fill-4" fill="#FEFEFE"></path>
            <polygon id="Fill-5" fill="#FEFEFE" points="1.46341463 18.5365854 2.92682927 18.5365854 2.92682927 14.1463415 1.46341463 14.1463415"></polygon>
            <path d="M11.3713967,4.40289136 C11.3713967,4.17037488 11.3770023,3.93774667 11.3702165,3.70545366 C11.3567432,3.24801856 11.0841306,2.93483082 10.7108127,2.93840627 C10.3426086,2.94175827 10.0831743,3.23695698 10.0734381,3.69372169 C10.0634069,4.16758156 10.0650788,4.64233528 10.0767819,5.11619515 C10.0878948,5.56435641 10.359229,5.86357752 10.7257611,5.858773 C11.084524,5.85419194 11.3551697,5.54011034 11.3699215,5.10032906 C11.3776907,4.86814778 11.3712983,4.63540784 11.3713967,4.40289136 M12.6829268,4.54412193 C12.6465391,4.87730989 12.6405401,5.36837664 12.5326555,5.82849334 C12.3261308,6.70850284 11.568972,7.30482213 10.7387427,7.3168893 C9.92228171,7.32884473 9.17702259,6.75677152 8.91975183,5.89955556 C8.84933674,5.66513962 8.79219824,5.41318159 8.78806775,5.16815102 C8.7779382,4.56468081 8.76997225,3.95696476 8.81953818,3.35729348 C8.90657358,2.30577375 9.75342318,1.48028997 10.7075673,1.46364175 C11.6100802,1.44799912 12.4651908,2.24230937 12.6043491,3.25382867 C12.6559803,3.62835786 12.6525382,4.01271955 12.6829268,4.54412193" id="Fill-6" fill="#FEFEFE"></path>
            <path d="M11.7046222,4.39454163 C11.7046222,4.62756568 11.7116701,4.86081368 11.7029703,5.0935018 C11.686562,5.53424311 11.3833922,5.84901034 10.9816619,5.85360139 C10.5713421,5.8584164 10.2675116,5.55854211 10.2550676,5.10940253 C10.2419629,4.63450825 10.2399807,4.15871815 10.2513234,3.68382387 C10.2622256,3.22606207 10.5527312,2.93021894 10.9650333,2.92685963 C11.3830618,2.92327637 11.6882138,3.23714779 11.7033007,3.69558145 C11.7110094,3.92838155 11.7046222,4.16151758 11.7046222,4.39454163" id="Fill-7" stroke="#8698A3" stroke-width="0.4" fill="#8698A3"></path>
        </g>
    </g>
</svg>