<?xml version="1.0" encoding="UTF-8"?>
<svg width="64px" height="64px" viewBox="0 0 64 64" version="1.1" xmlns="http://www.w3.org/2000/svg" xmlns:xlink="http://www.w3.org/1999/xlink">
    <!-- Generator: Sketch 55.2 (78181) - https://sketchapp.com -->
    <title>icon</title>
    <desc>Created with Sketch.</desc>
    <g id="icon" stroke="none" stroke-width="1" fill="none" fill-rule="evenodd">
        <g id="Group" transform="translate(-4.000000, -10.000000)" fill-rule="nonzero">
            <g id="Group-10" transform="translate(8.496727, 14.754182)">
                <rect id="Rectangle-4" fill="#CDF4EE" x="0.503272727" y="0.245818182" width="54" height="54" rx="14"></rect>
                <g id="Group-2" transform="translate(4.000000, 21.000000)" stroke-width="0.5">
                    <path d="M40.1281248,7.27807649 L40.1281248,11.3609215 L40.2435882,11.3609215 C42.0660557,11.3609215 43.8885232,11.3627905 45.7109907,11.3592698 C46.0554878,11.3586178 46.3611506,11.6264957 46.4250825,12.0013422 C46.5104364,12.5016301 46.2199584,12.9569747 45.7979781,12.9574528 C43.6501709,12.9598 41.5023636,12.9571051 39.3545562,12.9600182 C39.0108759,12.960452 38.7011663,12.629636 38.6833085,12.2365775 C38.6754747,12.0643671 38.6650422,11.8920265 38.665005,11.7197292 C38.6640254,8.11804731 38.6632972,4.51636542 38.6653392,0.914726991 C38.6655619,0.476464334 38.8486329,0.15790567 39.1756806,0.0352894885 C39.2366424,0.0124266345 39.3035072,0.00147332796 39.3676991,0.00142986245 C41.5028462,-0.000265292125 43.6380305,4.17443857e-14 45.7732148,4.17443857e-14 C46.1293325,4.17443857e-14 46.4270503,0.343720691 46.438151,0.777941056 C46.4487693,1.19351472 46.2189188,1.47430187 45.9644907,1.55949424 C45.896809,1.58218324 45.8244123,1.59600526 45.7541317,1.5960922 C43.9190041,1.59804815 42.0839508,1.59765696 40.2488231,1.59765696 L40.1299811,1.59765696 L40.1299811,5.6804585 L40.2418062,5.6804585 C41.9000259,5.6804585 43.5582827,5.68280563 45.2165023,5.67858948 C45.5630786,5.67772017 45.8634323,6.04313465 45.8672934,6.44758114 C45.8702265,6.75557768 45.7775957,6.99707201 45.5447381,7.15806824 C45.429126,7.2380013 45.3062743,7.27746797 45.1743266,7.2775549 C43.5319229,7.27838075 41.8894448,7.27807649 40.247004,7.27807649 L40.1281248,7.27807649 Z" id="Fill-1" stroke="#00C0A5" fill="#05C0A5"></path>
                    <g id="Group-5" transform="translate(0.000000, 0.000018)" fill="#05C0A5" stroke="#00C0A5">
                        <g id="Fill-3-Clipped">
                            <path d="M1.89339565,7.26680459 C1.62634478,7.26680459 1.37571616,7.26766004 1.12508755,7.26663351 C0.670486302,7.26483707 0.322503284,6.90135825 0.320397868,6.45147945 C0.318587212,6.06918083 0.529634027,5.76246083 0.887891472,5.638464 C0.956443789,5.61472538 1.03371253,5.6089939 1.10702308,5.60860896 C1.5939635,5.60612816 2.08090392,5.60732579 2.56797066,5.60732579 C2.77446978,5.10073093 2.98000041,4.59901211 3.18346773,4.09643786 C3.37110233,3.63295746 3.55536826,3.16802282 3.7431713,2.70462796 C3.92036304,2.2673242 4.09898646,1.83057648 4.27950475,1.3946842 C4.37732235,1.15853845 4.46810785,0.918115485 4.58415833,0.691336872 C4.73953797,0.387824792 4.96022759,0.146332515 5.30328394,0.0569812277 C5.37747876,0.0376481584 5.45483172,0.0189994455 5.53058455,0.0195317403 C5.7833607,0.0213519208 6.03786328,0.0158770693 6.28832347,0.0441923169 C6.51044477,0.0692996435 6.68586796,0.206641425 6.83851056,0.370673109 C7.15327013,0.708745189 7.2560565,1.15657093 7.43501678,1.56384855 C7.61182955,1.96616459 7.76834612,2.37767668 7.93244217,2.78568142 C8.15612148,3.3417638 8.37706375,3.89900103 8.60204841,4.45452737 C8.80054695,4.94456935 9.00422482,5.43247272 9.20335498,5.92221528 C9.37696752,6.3492537 9.54620078,6.77808855 9.71968699,7.20521252 C9.93330242,7.73114044 10.1503286,8.25574242 10.3639861,8.78171311 C10.5374723,9.2087943 10.7065372,9.63775746 10.8804866,10.0646248 C11.0786062,10.5509456 11.2784522,11.036582 11.4804878,11.5212347 C11.5745999,11.746944 11.6527529,11.9719261 11.6332146,12.225523 C11.6034862,12.6114144 11.3358037,12.9106065 10.9460913,12.9480751 C10.639206,12.9775879 10.3847455,12.894182 10.1991321,12.650765 C10.0977353,12.5178288 10.0216456,12.3598279 9.95818843,12.2031103 C9.74263602,11.670681 9.53836865,11.133504 9.32862718,10.5986367 C9.06452391,9.92505885 8.80033641,9.25156658 8.53429614,8.5788442 C8.32169133,8.0411539 8.10441248,7.50543113 7.89239717,6.96752697 C7.61027155,6.25151904 7.33269361,5.53362915 7.05035744,4.81774955 C6.80954005,4.20730361 6.5638381,3.59882518 6.32213644,2.98872142 C6.16932541,2.6030438 6.02013569,2.21591192 5.86850369,1.8297638 C5.85713445,1.8007642 5.83923842,1.77445925 5.81818426,1.73545093 C5.30656838,3.02926955 4.80013182,4.31004262 4.28716846,5.60732579 C4.53059657,5.60732579 4.75566546,5.61771945 4.97942897,5.60522994 C5.47285407,5.57759904 5.84951285,5.99864935 5.83368012,6.46238638 C5.82252142,6.78852499 5.58671493,7.14866756 5.27545035,7.22724024 C5.20112919,7.24601727 5.12423943,7.26445211 5.04836026,7.2650937 C4.60773898,7.2686438 4.1671598,7.26744618 3.72653852,7.26607746 C3.66514461,7.26590638 3.63099478,7.27394756 3.60261378,7.34674598 C3.18510995,8.41733608 2.76213205,9.48578756 2.33923836,10.554239 C2.09122045,11.1808957 1.85027675,11.8106319 1.58802623,12.4310865 C1.46191186,12.7293377 1.23499022,12.9225401 0.894039284,12.9458937 C0.557930807,12.9689479 0.273362894,12.8802382 0.106571905,12.557222 C-0.0291010484,12.2944719 -0.0318380881,12.0159816 0.0790330744,11.7401005 C0.340904613,11.0884648 0.603323558,10.4370002 0.867511053,9.78630558 C1.1304353,9.13877608 1.39605447,8.49231589 1.66003143,7.8452141 C1.73734227,7.65581845 1.81317933,7.46573845 1.89339565,7.26680459" id="Fill-3"></path>
                        </g>
                    </g>
                    <path d="M18.792887,1.71657627 C18.2772509,3.01970294 17.7681579,4.30635439 17.2547591,5.60383241 C17.507195,5.60383241 17.7467979,5.60631439 17.9863588,5.6033189 C18.5065538,5.59685719 18.8821682,6.08533711 18.7896366,6.59114814 C18.7172407,6.98689606 18.3431037,7.27300879 17.9809977,7.26620473 C17.521632,7.25756058 17.062013,7.26410789 16.5965685,7.26410789 C16.3765526,7.82644822 16.1587317,8.38806106 15.937196,8.94813337 C15.7100038,9.52258406 15.4778726,10.0949807 15.2503426,10.6692602 C15.025472,11.2368213 14.8112816,11.8088328 14.5774196,12.3725424 C14.4477402,12.6849727 14.2297504,12.9057409 13.8708947,12.9462229 C13.619683,12.9745517 13.3909711,12.9219594 13.2051479,12.7546394 C13.0479033,12.6130809 12.98395,12.4149929 12.9636876,12.2012857 C12.9375997,11.9266413 13.0551216,11.6926075 13.1525923,11.4516411 C13.3656009,10.9250757 13.576541,10.3977398 13.7904783,9.87160223 C14.0686221,9.18751635 14.3488764,8.50424354 14.6282445,7.82067118 C14.7020334,7.64012831 14.7759489,7.45962824 14.8559432,7.26410789 C14.5983996,7.26410789 14.3498051,7.26367996 14.1011685,7.26423627 C13.8021714,7.26487816 13.5695336,7.13953801 13.4023265,6.88851538 C13.1985205,6.58267517 13.241578,6.11683263 13.4942671,5.86127396 C13.6680173,5.68560947 13.8682353,5.60126484 14.111553,5.60293376 C14.5532736,5.60605764 14.9950362,5.60182115 15.4367568,5.60571529 C15.5149781,5.60639998 15.5463426,5.57755763 15.5745411,5.50652156 C15.7502331,5.06434344 15.9320882,4.6247329 16.1111995,4.18396695 C16.2982468,3.72351631 16.4841123,3.26255214 16.671244,2.80218709 C16.8357072,2.39762385 17.0002126,1.99306062 17.1666598,1.58931045 C17.2870945,1.29712114 17.4018305,1.00202191 17.5352669,0.715951974 C17.6708561,0.425345995 17.8821761,0.202481037 18.1815111,0.0770125157 C18.2167169,0.0622489961 18.2537803,0.0461161063 18.2909703,0.0429922311 C18.7102755,0.00790212627 19.1340131,-0.0690821404 19.5333092,0.142228759 C19.7714769,0.268253587 19.9397816,0.471519439 20.0507183,0.710046567 C20.2227377,1.07990483 20.3711176,1.46114598 20.5262095,1.83896371 C20.6919813,2.24284226 20.8540805,2.64821855 21.0174039,3.05312413 C21.2444696,3.61606355 21.4693823,4.17990164 21.6984742,4.74198521 C21.9490949,5.3568751 22.2052033,5.96945418 22.4555284,6.58442967 C22.6790059,7.13341864 22.8960247,7.68514635 23.1191645,8.23430649 C23.3450059,8.79018511 23.576504,9.34375291 23.8025987,9.89958872 C24.0152696,10.4223457 24.2254076,10.9462581 24.4339416,11.4707268 C24.497937,11.6316705 24.5778891,11.7917584 24.6073117,11.9600198 C24.6827893,12.3913285 24.5045223,12.8318377 24.0259495,12.9352251 C23.5876061,13.0299256 23.2073905,12.8554594 23.0102541,12.3751528 C22.7744081,11.8007021 22.5513105,11.2209024 22.323865,10.6428999 C22.040529,9.9229108 21.7596835,9.20185195 21.47525,8.48229083 C21.2181706,7.8318829 20.9565323,7.18331505 20.6990308,6.53303551 C20.418101,5.8235735 20.1406327,5.11265653 19.8596606,4.40319452 C19.6466521,3.8652033 19.4297599,3.32875262 19.215907,2.79110375 C19.0756321,2.43840541 18.9377211,2.08472283 18.792887,1.71657627" id="Fill-6" stroke="#5A78F0" fill="#5A78F0"></path>
                    <path d="M30.0288123,11.2394211 C30.3292915,10.4767377 30.6267718,9.72034651 30.9252657,8.96429775 C31.2694186,8.09242109 31.6136138,7.22054445 31.9593295,6.34935266 C32.2043083,5.73207478 32.4531729,5.11642345 32.6977293,4.49897435 C32.9775121,3.79257834 33.2540846,3.0848554 33.5326424,2.37798855 C33.7552774,1.81301727 33.9801088,1.24898769 34.2012232,0.683417155 C34.2900915,0.456170204 34.4106802,0.254862536 34.6212774,0.124138824 C35.0142994,-0.119758919 35.7396055,0.00351687931 35.8432991,0.654567193 C35.8878599,0.934163555 35.8085797,1.17549305 35.7079272,1.42076053 C35.5286281,1.85774755 35.3497091,2.29490579 35.1708323,2.73206404 C35.0054295,3.13639154 34.8400265,3.54071904 34.6752572,3.94526056 C34.5024204,4.36949196 34.3303017,4.7940658 34.1578452,5.21846842 C33.9920621,5.62647707 33.8266592,6.03457134 33.6603693,6.44236597 C33.490109,6.86004834 33.3185394,7.27713147 33.1484059,7.69481384 C32.9810178,8.1059472 32.8141366,8.51720896 32.6481001,8.92889876 C32.4236065,9.48535202 32.2025765,10.0433034 31.9754643,10.5986866 C31.7496192,11.1511162 31.532095,11.7076551 31.2841173,12.249769 C31.124501,12.5986224 30.8617824,12.8708993 30.4677045,12.9348486 C30.2356926,12.9724734 29.9933749,12.9600017 29.7568436,12.9476899 C29.6156852,12.9403275 29.4690781,12.9083957 29.3383523,12.8542485 C29.0937537,12.7527599 28.9200722,12.5589858 28.806157,12.3223219 C28.6616618,12.0221368 28.5320764,11.7142898 28.403547,11.4065283 C28.2337936,11.0003602 28.0705872,10.5913671 27.9057333,10.1831016 C27.6943335,9.65956469 27.4860171,9.13478646 27.2730545,8.61189162 C27.0078016,7.96058448 26.7375224,7.31133194 26.4724807,6.65998199 C26.2490432,6.11071983 26.0314767,5.55906062 25.8085459,5.00962723 C25.5841792,4.45668391 25.3554197,3.90562396 25.1304193,3.35298027 C24.879992,2.737971 24.6307894,2.12240529 24.3828539,1.50636872 C24.3220739,1.35527026 24.2461305,1.20571275 24.2151702,1.04776563 C24.1248238,0.5867227 24.2937324,0.138349785 24.809286,0.0189263542 C25.1627312,-0.0629578832 25.5873893,0.127520348 25.7429508,0.466186363 C25.885123,0.775702789 26.0080348,1.0945077 26.133861,1.41142924 C26.3461899,1.9459668 26.5538306,2.48243055 26.763921,3.017867 C26.9571163,3.51032813 27.1498471,4.00296048 27.3448586,4.49465114 C27.5713373,5.0657434 27.801744,5.63520911 28.0275047,6.20655819 C28.3119757,6.9263947 28.592054,7.64798616 28.8765251,8.36782266 C29.0762249,8.87316782 29.2812891,9.37637278 29.4817072,9.88141833 C29.6479126,10.3004276 29.8106122,10.7209351 29.9758461,11.1404153 C29.9887287,11.1731176 30.009045,11.2028664 30.0288123,11.2394211" id="Fill-8" stroke="#00C0A5" fill="#05C0A5"></path>
                </g>
            </g>
        </g>
    </g>
</svg>