<?xml version="1.0" encoding="UTF-8"?>
<svg width="64px" height="64px" viewBox="0 0 64 64" version="1.1" xmlns="http://www.w3.org/2000/svg" xmlns:xlink="http://www.w3.org/1999/xlink">
    <!-- Generator: Sketch 55.2 (78181) - https://sketchapp.com -->
    <title>icon</title>
    <desc>Created with Sketch.</desc>
    <g id="icon" stroke="none" stroke-width="1" fill="none" fill-rule="evenodd">
        <g id="Group-3" transform="translate(5.000000, 8.000000)" fill-rule="nonzero">
            <path d="M54,10 L54,45.3086419 C54,47.2372553 52.4365499,48.8007054 50.5079365,48.8007054 L3.49206349,48.8007054 C1.56345008,48.8007054 0,47.2372553 0,45.3086419 L0,10 L54,10 Z" id="Rectangle-4" fill="#CDF4EE"></path>
            <path d="M54,1.8189894e-12 L54,6.98412698 C54,8.9127404 52.4365499,10.4761905 50.5079365,10.4761905 L3.49206349,10.4761905 C1.56345008,10.4761905 0,8.9127404 0,6.98412698 L0,1.8189894e-12 L54,1.8189894e-12 Z" id="Rectangle-4" fill="#5A78F0" transform="translate(27.000000, 5.238095) scale(-1, 1) rotate(-180.000000) translate(-27.000000, -5.238095) "></path>
            <path d="M45.0170488,4 L48.2504409,4 C49.1432883,4 49.867137,4.72384871 49.867137,5.61669606 C49.867137,6.46702687 49.2105848,7.16407093 48.376781,7.22852789 L48.2504409,7.23339213 L45.0170488,7.23339213 C44.1242015,7.23339213 43.4003527,6.5095434 43.4003527,5.61669606 C43.4003527,4.76636526 44.0569049,4.06932119 44.8907088,4.00486423 L45.0170488,4 L48.2504409,4 L45.0170488,4 Z M35.3168725,4 L38.5502646,4 C39.4431119,4 40.1669606,4.72384871 40.1669606,5.61669606 C40.1669606,6.46702687 39.5104085,7.16407093 38.6766046,7.22852789 L38.5502646,7.23339213 L35.3168725,7.23339213 C34.4240251,7.23339213 33.7001764,6.5095434 33.7001764,5.61669606 C33.7001764,4.76636526 34.3567286,4.06932119 35.1905324,4.00486423 L35.3168725,4 L38.5502646,4 L35.3168725,4 Z M28.8500882,4 C29.7429355,4 30.4667842,4.72384871 30.4667842,5.61669606 C30.4667842,6.5095434 29.7429355,7.23339213 28.8500882,7.23339213 L25.6166961,7.23339213 C24.7238487,7.23339213 24,6.5095434 24,5.61669606 C24,4.72384871 24.7238487,4 25.6166961,4 L28.8500882,4 Z" id="Combined-Shape" fill="#FFFFFF"></path>
            <path d="M28.0965616,23 L28.1307386,23 C28.5537744,23 28.9553275,23.2165312 29.2049825,23.5793362 C29.4269946,23.9023414 29.5083284,24.3115269 29.4328288,24.6990636 L29.3971334,24.8431645 L26.8527629,34.2412667 C26.688442,34.7857456 26.238038,35.1648733 25.7096048,35.2162565 L25.5863682,35.2222222 L25.5520827,35.2222222 C25.1291554,35.2222222 24.7276024,35.0055758 24.4779473,34.642886 C24.2562245,34.3206998 24.1744943,33.9121514 24.2492163,33.5243417 L24.2846029,33.3800943 L26.8294073,23.9808404 C26.9937284,23.4363614 27.4446,23.057333 27.9732739,23.0059641 L28.0965616,23 L28.1307386,23 L28.0965616,23 Z M20.2579781,23.8730159 C20.5165812,23.8730159 20.7670722,23.9556537 20.9820448,24.1118307 C21.3355326,24.3678008 21.5596458,24.7892052 21.5974722,25.257957 L21.6031746,25.3998848 L21.6031746,25.4396457 C21.6031746,25.9861545 21.3430349,26.4915624 20.9313092,26.7625449 L20.8252825,26.8252949 L16.5000665,29.1104879 L20.8252825,31.3954317 C21.2615187,31.6257707 21.5552151,32.106964 21.5978179,32.6454912 L21.6031746,32.7812054 L21.6031746,32.8213403 C21.6031746,33.3453367 21.3708813,33.8268302 20.9820448,34.1093945 C20.7648797,34.2664438 20.5150465,34.3492063 20.2587455,34.3492063 C20.1013254,34.3492063 19.9480448,34.318654 19.8014853,34.2582514 L19.6928663,34.2073634 L12.7773441,30.550855 C12.3411079,30.3193654 12.0477851,29.8381898 12.005326,29.3007506 L12,29.1653305 L12,29.0560192 C12,28.5097405 12.259953,28.004138 12.6713051,27.7331241 L12.7772344,27.67037 L19.6923182,24.0142357 C19.8673878,23.921751 20.062957,23.8730159 20.2579781,23.8730159 Z M33.4251886,23.8730159 C33.6202053,23.8730159 33.8155509,23.921751 33.9899587,24.0139864 L33.9899587,24.0139864 L40.9048846,27.6701208 C41.377463,27.9199041 41.6825397,28.4639679 41.6825397,29.0557699 L41.6825397,29.0557699 L41.6825397,29.1650812 C41.6825397,29.75626 41.377463,30.3000746 40.9053231,30.5504811 L40.9053231,30.5504811 L33.9903972,34.2068648 C33.8103987,34.3014684 33.6202053,34.3492063 33.4236539,34.3492063 C33.1670299,34.3492063 32.9170928,34.2661945 32.7006999,34.1093945 C32.3114339,33.8267056 32.0793651,33.3452122 32.0793651,32.821091 L32.0793651,32.821091 L32.0793651,32.7809562 C32.0793651,32.1889049 32.3846611,31.6449657 32.8571299,31.3951824 L32.8571299,31.3951824 L37.1822472,29.1104879 L32.8571299,26.825918 C32.3844418,26.5748883 32.0793651,26.0309491 32.0793651,25.4395211 L32.0796939,25.4393964 L32.0796939,25.3997602 C32.0796939,24.8750158 32.311982,24.3933978 32.7012481,24.1113321 C32.9162158,23.9554045 33.1670299,23.8730159 33.4251886,23.8730159 Z" id="Combined-Shape" fill="#00C0A5"></path>
        </g>
    </g>
</svg>