<?xml version="1.0" encoding="UTF-8"?>
<svg width="64px" height="64px" viewBox="0 0 64 64" version="1.1" xmlns="http://www.w3.org/2000/svg" xmlns:xlink="http://www.w3.org/1999/xlink">
    <!-- Generator: Sketch 55.2 (78181) - https://sketchapp.com -->
    <title>icon\</title>
    <desc>Created with Sketch.</desc>
    <g id="icon\" stroke="none" stroke-width="1" fill="none" fill-rule="evenodd">
        <g id="youth-bicycle" transform="translate(3.000000, 15.000000)">
            <path d="M47.2291731,14.3637381 C46.4564222,14.3637381 45.7123885,14.4603553 44.9931559,14.6261713 L39.0709084,1.49798288 C38.7563257,0.796855367 38.0592836,0.345104677 37.2878381,0.345104677 L33.5846386,0.345104677 C32.505137,0.345104677 31.6266551,1.22118766 31.6266551,2.30356142 C31.6266551,3.38462955 32.505137,4.26201817 33.5846386,4.26201817 L36.0216754,4.26201817 L37.6585496,7.88908006 L21.1240315,7.88908006 L20.0275607,5.4605937 L20.947813,5.4605937 C22.0286199,5.4605937 22.9057965,4.58320507 22.9057965,3.50213695 C22.9057965,2.41976319 22.0286199,1.54368021 20.947813,1.54368021 L13.7607082,1.54368021 C12.6799013,1.54368021 11.8027246,2.41976319 11.8027246,3.50213695 C11.8027246,4.58320507 12.6799013,5.4605937 13.7607082,5.4605937 L15.7317449,5.4605937 L17.6140197,9.63471784 L13.8638286,15.1510377 C12.6694587,14.6431446 11.3576097,14.3624324 9.97918932,14.3624324 C4.47725564,14.3624324 0,18.8407702 0,24.3440336 C0,29.8472971 4.47725564,34.3269405 9.97918932,34.3269405 C14.8101873,34.3269405 18.8514653,30.8722228 19.7638856,26.3024904 L21.4412248,26.3024904 C22.3797516,28.6774456 24.9029397,30.1123416 27.4887832,29.5718075 C30.3722403,28.9672972 32.2205767,26.1366744 31.6214338,23.2499091 C31.5405038,22.8686629 31.4191088,22.5083068 31.2663861,22.1662297 L40.0472895,13.1834415 L41.4283206,16.2412453 C38.9051325,18.0534706 37.2565103,21.0042121 37.2565103,24.3440336 C37.2565103,29.8472971 41.7350713,34.3269405 47.237005,34.3269405 C52.740244,34.3269405 57.2174996,29.8486027 57.2174996,24.3440336 C57.2044464,18.8381589 52.7284961,14.3637381 47.2291731,14.3637381 Z M22.567718,20.6177433 C22.0756115,21.1243307 21.6918467,21.7301467 21.4333929,22.3855769 L19.7651909,22.3855769 C19.3775102,20.4519273 18.4311515,18.7167346 17.0984174,17.3588712 L19.5028211,13.8218984 L22.567718,20.6177433 Z M14.8141033,20.719583 C15.1913414,21.2209479 15.485039,21.7797609 15.6912799,22.3829656 L13.6823888,22.3829656 L14.8141033,20.719583 Z M9.98049464,30.4074157 C6.63756412,30.4074157 3.91727235,27.6877721 3.91727235,24.3414224 C3.91727235,20.9950726 6.63756412,18.275429 9.98049464,18.275429 C10.536562,18.275429 11.0613015,18.3746575 11.5742932,18.5156664 L8.36320026,23.2368527 C7.95463437,23.8361405 7.91025341,24.6143007 8.25094254,25.2540632 C8.59163167,25.8951314 9.25734606,26.2972678 9.98049464,26.2972678 L15.6912799,26.2972678 C14.8702321,28.6800569 12.6368256,30.4074157 9.98049464,30.4074157 Z M28.4664697,19.4256959 C27.7472371,19.1240936 26.9588224,18.9870016 26.1469119,19.0248651 L22.8914379,11.8059935 L35.914639,11.8059935 L28.4664697,19.4256959 Z M47.2291731,30.4074157 C43.8849372,30.4074157 41.1646454,27.6877721 41.1646454,24.3414224 C41.1646454,22.5997015 41.9099845,21.0394643 43.0939119,19.9322834 L45.4487134,25.1443896 C45.775044,25.8716299 46.4890553,26.2998791 47.2317837,26.2998791 C47.5019854,26.2998791 47.7747978,26.2437367 48.0332516,26.123618 C49.0213806,25.6783955 49.4599689,24.5189891 49.0122434,23.5358438 L46.6665791,18.3354883 C46.8571562,18.3172094 47.0359853,18.2793459 47.2317837,18.2793459 C50.5760195,18.2793459 53.2963113,20.9989895 53.2963113,24.3453393 C53.2884794,27.6864665 50.5681876,30.4074157 47.2291731,30.4074157 Z" id="Shape" fill="#05C0A5" fill-rule="nonzero"></path>
            <path d="M13.7257487,1.47592444 L21.216158,1.47592444 C22.365712,1.47592444 23.2976096,2.40782207 23.2976096,3.55737605 C23.2976096,4.70693003 22.365712,5.63882766 21.216158,5.63882766 L13.7257487,5.63882766 C12.5761947,5.63882766 11.6442971,4.70693003 11.6442971,3.55737605 C11.6442971,2.40782207 12.5761947,1.47592444 13.7257487,1.47592444 Z" id="Rectangle" fill="#5A78F0"></path>
            <path d="M26.3959302,26.9540777 C27.7750616,26.9540777 28.8930686,25.8358006 28.8930686,24.4563358 C28.8930686,23.076871 27.7750616,21.9585938 26.3959302,21.9585938 C25.0167987,21.9585938 23.8987918,23.076871 23.8987918,24.4563358 C23.8987918,25.8358006 25.0167987,26.9540777 26.3959302,26.9540777 Z" id="Oval" fill="#B4ECE4" fill-rule="nonzero"></path>
        </g>
    </g>
</svg>