<?xml version="1.0" encoding="UTF-8"?>
<svg width="64px" height="64px" viewBox="0 0 64 64" version="1.1" xmlns="http://www.w3.org/2000/svg" xmlns:xlink="http://www.w3.org/1999/xlink">
    <!-- Generator: Sketch 55.2 (78181) - https://sketchapp.com -->
    <title>icon</title>
    <desc>Created with Sketch.</desc>
    <g id="icon" stroke="none" stroke-width="1" fill="none" fill-rule="evenodd">
        <g id="chrome" transform="translate(4.000000, 4.000000)" fill-rule="nonzero">
            <path d="M17.5355279,28.0020196 C17.5355279,33.7720394 22.2297967,38.465941 28,38.465941 C33.7698361,38.465941 38.4637377,33.7718557 38.4637377,28.0020196 C38.4637377,22.232 33.7698361,17.5377311 28,17.5377311 C22.2297967,17.5377311 17.5355279,22.232 17.5355279,28.0020196 Z" id="XMLID_17_" fill="#05C0A5"></path>
            <path d="M52.0952394,14.1892984 C52.1767606,14.0459016 52.1752918,13.869823 52.0910164,13.7278951 C49.6536394,9.62281964 46.1849443,6.18423606 42.0600394,3.78394754 C37.8086295,1.30984918 32.9465443,0.00220327869 28,0.00220327869 C19.4393443,0.00220327869 11.4612721,3.84398689 6.11134426,10.5425049 C5.99328525,10.6901246 5.9778623,10.8948459 6.07241967,11.0584394 L13.9546491,24.7105049 C14.0372721,24.853718 14.1896656,24.9400131 14.3519738,24.9400131 C14.3725377,24.9400131 14.3934689,24.9385443 14.4142164,24.9357901 C14.5989246,24.9106361 14.7500328,24.7762361 14.7966689,24.5957509 C16.3508984,18.5736394 21.7803279,14.3677639 28,14.3677639 C28.385941,14.3677639 28.7845509,14.3853901 29.1851804,14.419541 C29.1982164,14.4208262 29.2114361,14.421377 29.2244721,14.421377 L51.6962623,14.421377 C51.8613246,14.421377 52.013718,14.3328787 52.0952394,14.1892984 Z" id="XMLID_18_" fill="#CDF4EE"></path>
            <path d="M32.1375738,41.2997246 C32.0235541,41.1522885 31.8322361,41.0889443 31.6517509,41.1388852 C30.4662033,41.4690099 29.2376918,41.6362754 28,41.6362754 C22.7413246,41.6362754 17.8946623,38.5520525 15.6522754,33.7790164 C15.6467672,33.7672656 15.6407082,33.755882 15.634282,33.7444984 L4.39021639,14.269718 C4.30832787,14.127423 4.15666885,14.0402099 3.9927082,14.0402099 C3.99197377,14.0402099 3.99105574,14.0402099 3.99032131,14.0402099 C3.82544262,14.0411279 3.6736,14.130177 3.59281311,14.2737574 C1.24246557,18.4443804 0,23.1915279 0,28.0020196 C0,34.7504787 2.43462295,41.2690623 6.85531804,46.3569836 C11.2321311,51.3942295 17.2577311,54.7092459 23.8225836,55.691541 C23.8453509,55.6950295 23.868118,55.6964984 23.8907016,55.6964984 C24.0528262,55.6964984 24.2052196,55.6102033 24.2880262,55.4669901 L32.1722754,41.8107016 C32.2655475,41.6491279 32.251777,41.4471606 32.1375738,41.2997246 Z" id="XMLID_19_" fill="#CDF4EE"></path>
            <path d="M53.6452459,17.484118 L37.8598557,17.484118 C37.6733115,17.484118 37.5053115,17.5970361 37.4349901,17.7696262 C37.3644852,17.9422164 37.4054295,18.1405115 37.5385443,18.2708721 C40.1797246,20.8600918 41.6342557,24.3159344 41.6342557,28.0020196 C41.6342557,30.7924721 40.7922361,33.4779016 39.199082,35.7682099 C39.1917377,35.778859 39.1849443,35.7896918 39.178518,35.8008918 L27.9149901,55.3094557 C27.8325509,55.4523016 27.8331016,55.6283804 27.9162754,55.770859 C27.9987148,55.9116852 28.1496394,55.9979804 28.3124984,55.9979804 C28.3141509,55.9979804 28.3159869,55.9979804 28.3176394,55.9979804 C35.7298361,55.9153574 42.6854033,52.9664525 47.9027672,47.6949246 C53.1243541,42.4189901 56,35.4252328 56,28.0020196 C56,24.4736525 55.3515016,21.0330491 54.0724984,17.7755016 C54.0034623,17.5996065 53.8339935,17.484118 53.6452459,17.484118 Z" id="XMLID_20_" fill="#CDF4EE"></path>
        </g>
    </g>
</svg>