<?xml version="1.0" encoding="UTF-8"?>
<svg width="64px" height="64px" viewBox="0 0 64 64" version="1.1" xmlns="http://www.w3.org/2000/svg" xmlns:xlink="http://www.w3.org/1999/xlink">
    <!-- Generator: Sketch 55.2 (78181) - https://sketchapp.com -->
    <title>icon\</title>
    <desc>Created with Sketch.</desc>
    <g id="icon\" stroke="none" stroke-width="1" fill="none" fill-rule="evenodd">
        <g id="time-control-tool" transform="translate(9.000000, 4.000000)">
            <circle id="Oval" fill="#F2FAFA" cx="23.1827957" cy="32.8172043" r="19.5698925"></circle>
            <path d="M27.6455967,9.3682821 L27.6455967,7.27278502 L32.7932093,7.27461119 L32.7932093,6.83394702 C32.794161,3.06075012 29.7395852,0 25.9679791,0 L21.0007145,0 C17.2326773,0 14.175405,3.06075012 14.175405,6.83394702 L14.175405,7.27183223 L19.4369843,7.27365841 L19.4369843,9.35097313 C8.39990513,11.2740951 0,20.8859732 0,32.4866362 C0,45.475828 10.514038,56 23.483871,56 C36.4537832,56 46.9677419,45.475828 46.9677419,32.4866362 C46.9686143,20.9261491 38.6270804,11.3370585 27.6455967,9.3682821 Z M23.483871,50.6184186 C13.4983463,50.6184186 5.37459421,42.4853459 5.37459421,32.4867156 C5.37459421,22.4907054 13.4984256,14.3595383 23.483871,14.3595383 C33.4684439,14.3595383 41.5931477,22.4907848 41.5931477,32.4867156 C41.5931477,42.4853459 33.4693956,50.6184186 23.483871,50.6184186 Z" id="Shape" fill="#05C0A5" fill-rule="nonzero"></path>
            <path d="M23.4136408,18.0645161 C15.4645311,18.1009878 9.03225806,24.5568038 9.03225806,32.5126845 C9.03225806,32.4968805 13.8260523,32.4973757 23.4136408,32.5141704 L23.4136408,18.0645161 Z" id="Path" fill="#5A78F0" fill-rule="nonzero"></path>
        </g>
    </g>
</svg>