<?xml version="1.0" encoding="UTF-8"?>
<svg width="52px" height="52px" viewBox="0 0 52 52" version="1.1" xmlns="http://www.w3.org/2000/svg" xmlns:xlink="http://www.w3.org/1999/xlink">
    <!-- Generator: Sketch 57.1 (83088) - https://sketch.com -->
    <title>Artboard Copy 4</title>
    <desc>Created with Sketch.</desc>
    <g id="Artboard-Copy-4" stroke="none" stroke-width="1" fill="none" fill-rule="evenodd">
        <path d="M26,20 L26,27 L26,20 Z" id="Rectangle" fill="#000000"></path>
        <g id="coolwallet-s-vector-logo" transform="translate(8.000000, 3.000000)" fill="#002747" fill-rule="nonzero">
            <path d="M0.107705836,5.589 L0.107705836,6.966 L0.107705836,25.974 L0.107705836,25.974 C0.0564372722,27.756 0.364048652,29.457 0.95363713,31.023 C3.6452367,38.124 12.1814525,43.146 18.8463657,45.873 L18.8463657,42.309 C10.4895899,38.853 6.4393734,34.371 4.79877938,31.131 C3.33762532,28.269 3.51706529,26.082 3.51706529,26.082 L3.51706529,7.641 L18.872,2.97 L18.872,0.324 L18.872,0 L1.49195704,5.211 L0.107705836,5.589 Z" id="Path"></path>
            <g id="Group" transform="translate(19.250000, 4.590000)">
                <path d="M0.135,36.693 C1.269,36.153 2.295,35.586 3.267,35.019 L3.375,25.488 L3.375,0.999 L0.135,0 L0.135,36.693 Z" id="Path"></path>
                <path d="M6.372,32.535 C7.614,31.914 9.612,30.024 9.612,30.024 L9.612,26.865 L9.612,2.376 L6.372,1.377 L6.372,32.535 Z" id="Path"></path>
                <path d="M12.582,3.483 L12.663,17.766 L12.663,26.892 L12.744,26.784 C12.96,26.514 13.149,26.244 13.311,26.001 C15.606,22.707 15.714,20.358 15.714,20.358 L15.714,17.901 L15.795,4.428 L12.582,3.483 Z" id="Path"></path>
            </g>
        </g>
    </g>
</svg>