<?xml version="1.0" encoding="UTF-8"?>
<svg width="64px" height="64px" viewBox="0 0 64 64" version="1.1" xmlns="http://www.w3.org/2000/svg" xmlns:xlink="http://www.w3.org/1999/xlink">
    <!-- Generator: Sketch 55.2 (78181) - https://sketchapp.com -->
    <title>chrome</title>
    <desc>Created with Sketch.</desc>
    <g id="chrome" stroke="none" stroke-width="1" fill="none" fill-rule="evenodd">
        <g id="diploma" transform="translate(8.000000, 4.000000)" fill-rule="nonzero">
            <path d="M47.0009448,10.5276047 C47.5263913,10.5276047 47.952381,10.1005111 47.952381,9.57370299 L47.952381,4.69955563 C47.952381,2.10824991 45.8087319,0 43.1737613,0 L4.74449483,0 C2.0840257,0 0,2.06424325 0,4.69955563 L0,47.3198829 C0,49.9813957 2.1282992,52.1466254 4.74449483,52.1466254 L14.0812548,52.1466254 L26.1327791,52.144972 L43.1736344,52.1148287 C45.8087319,52.1148287 47.952381,49.963844 47.952381,47.3198829 L47.952381,42.4457355 C47.952381,41.9189274 47.5263913,41.4918338 47.0009448,41.4918338 L40.3408919,41.4918338 L40.3408919,10.5276047 L47.0009448,10.5276047 Z" id="Path" fill="#CDF4EE"></path>
            <path d="M20.6764538,9.04761905 L20.6992237,9.04761905 C20.9810644,9.04761905 21.2485925,9.19187944 21.4149213,9.43359238 C21.5575506,9.64110377 21.6130304,9.90200336 21.5717102,10.1518774 L21.5429386,10.2755975 L19.8477931,16.5369305 C19.7406137,16.8920706 19.4507493,17.1416219 19.1082702,17.1840597 L19.0040782,17.1904762 L18.9812361,17.1904762 C18.6994676,17.1904762 18.4319394,17.0461391 18.2656107,16.8045029 C18.1231673,16.5975177 18.0674485,16.3370315 18.108287,16.0870231 L18.1367982,15.9631884 L19.8322328,9.70108804 C19.9394124,9.34594791 20.2295754,9.09646009 20.5722173,9.05403372 L20.6764538,9.04761905 L20.6992237,9.04761905 L20.6764538,9.04761905 Z M15.4541248,9.62925166 C15.6264149,9.62925166 15.7933004,9.68430787 15.9365225,9.7883582 C16.1631965,9.95249893 16.3100202,10.2187464 16.3431843,10.5169498 L16.3503402,10.6465033 L16.3503402,10.6729934 C16.3503402,11.0236107 16.1896266,11.348836 15.9327798,11.5336576 L15.8320821,11.5961596 L12.9504772,13.1186324 L15.8320821,14.6409391 C16.1119531,14.7887151 16.3037635,15.091468 16.3429329,15.4340697 L16.3503402,15.5641884 L16.3503402,15.5909275 C16.3503402,15.9400317 16.1955785,16.2608189 15.9365225,16.4490728 C15.7918398,16.5537043 15.6253924,16.6088436 15.4546361,16.6088436 C15.3563125,16.6088436 15.2604126,16.5909534 15.168354,16.5555585 L15.0776282,16.5143429 L10.4702738,14.0782537 C10.1904028,13.9297395 9.99882329,13.6269702 9.95975657,13.2850155 L9.95238095,13.1551704 L9.95238095,13.0823435 C9.95238095,12.7318738 10.1129792,12.4065337 10.3695951,12.2216848 L10.4702008,12.1591773 L15.0772631,9.72333713 C15.1939004,9.66172067 15.3241952,9.62925166 15.4541248,9.62925166 Z M24.5496943,9.62925166 C24.679621,9.62925166 24.8097668,9.66172067 24.9259632,9.72317101 L24.9259632,9.72317101 L29.5329203,12.1590112 C29.847768,12.3254252 30.0510204,12.687899 30.0510204,13.0821774 L30.0510204,13.0821774 L30.0510204,13.1550044 C30.0510204,13.5488676 29.847768,13.9111753 29.5332125,14.0780045 L29.5332125,14.0780045 L24.9262553,16.5140108 C24.8063342,16.5770388 24.679621,16.6088436 24.5486718,16.6088436 C24.3777003,16.6088436 24.2111837,16.5535383 24.0670155,16.4490728 C23.8076733,16.2607359 23.6530613,15.9399487 23.6530613,15.5907615 L23.6530613,15.5907615 L23.6530613,15.5640223 C23.6530613,15.1695778 23.8564597,14.8071871 24.1712343,14.640773 L24.1712343,14.640773 L27.0527736,13.1186324 L24.1712343,11.5965748 C23.8563137,11.4293304 23.6530613,11.0669397 23.6530613,10.6729104 L23.6530613,10.6728273 L23.6532803,10.6728273 L23.6532803,10.6464203 C23.6532803,10.2968179 23.8080385,9.97594765 24.0673806,9.78802598 C24.2105994,9.68414176 24.3777003,9.62925166 24.5496943,9.62925166 Z" id="Combined-Shape" fill="#00C0A5"></path>
            <path d="M46.0495087,47.3198829 C46.0495087,48.8840273 44.7341165,50.2054991 43.1746493,50.2070254 C41.6118837,50.1999029 40.3408919,48.9053947 40.3408919,47.3198829 L40.3408919,41.5901134 L46.0495087,41.5901134 L46.0495087,47.3198829 Z" id="Path" fill="#05C0A5"></path>
            <path d="M14.4761905,57 L14.4761905,46.1428571 C16.1416762,47.1103535 16.7005557,48.0234868 19,48.0234868 C21.2994443,48.0234868 22.7913143,47.1339721 24.4285714,46.2093714 L24.4285714,57 L19.5602286,54.4691572 C19.207622,54.2857654 18.792378,54.2857654 18.4397714,54.4691572 L14.4761905,57 Z" id="Path" fill="#5A78F0"></path>
            <path d="M23.9085822,46.8004523 C23.7753812,46.8719313 23.6614626,46.9743168 23.5755796,47.0979424 C22.3817175,48.0931798 20.8812394,48.6403378 19.3267196,48.6403378 C17.6759144,48.6403378 16.0909487,48.0276786 14.8643573,46.9156836 C13.4677759,45.6480119 12.6666667,43.8427211 12.6666667,41.9630261 C12.6666667,38.2810928 15.6543029,35.2857143 19.3267196,35.2857143 C22.9991362,35.2857143 25.9867725,38.2810928 25.9867725,41.9630261 C25.9867725,43.7921008 25.231459,45.5401574 23.9085822,46.8004523 Z" id="Path" fill="#05C0A5"></path>
            <path d="M46.0495087,10.4293251 L40.3408919,10.4293251 L40.3408919,4.76314908 C40.3408919,3.1949347 41.6123912,1.91441709 43.1755373,1.90780337 C44.760503,1.90882087 46.0495087,3.16072143 46.0495087,4.69955563 L46.0495087,10.4293251 Z" id="Path" fill="#05C0A5"></path>
            <path d="M32.4977852,26.2380952 L6.40697675,26.2380952 C5.8666361,26.2380952 5.42857143,26.6431873 5.42857143,27.1428571 C5.42857143,27.642527 5.8666361,28.047619 6.40697675,28.047619 L32.4977852,28.047619 C33.0381258,28.047619 33.4761905,27.642527 33.4761905,27.1428571 C33.4761905,26.6431873 33.0381258,26.2380952 32.4977852,26.2380952 Z" id="Path" fill="#05C0A5"></path>
            <path d="M32.5714286,21.7142857 L28.952381,21.7142857 C28.4527111,21.7142857 28.047619,22.1193777 28.047619,22.6190476 C28.047619,23.1187175 28.4527111,23.5238095 28.952381,23.5238095 L32.5714286,23.5238095 C33.0710984,23.5238095 33.4761905,23.1187175 33.4761905,22.6190476 C33.4761905,22.1193777 33.0710984,21.7142857 32.5714286,21.7142857 Z" id="Path" fill="#05C0A5"></path>
            <path d="M6.39170507,23.5238095 L24.3701997,23.5238095 C24.9021063,23.5238095 25.3333333,23.1187175 25.3333333,22.6190476 C25.3333333,22.1193777 24.9021063,21.7142857 24.3701997,21.7142857 L6.39170507,21.7142857 C5.85979846,21.7142857 5.42857143,22.1193777 5.42857143,22.6190476 C5.42857143,23.1187175 5.85979846,23.5238095 6.39170507,23.5238095 Z" id="Path" fill="#05C0A5"></path>
        </g>
    </g>
</svg>