<?xml version="1.0" encoding="utf-8"?>
<!-- Generator: Adobe Illustrator 23.0.1, SVG Export Plug-In . SVG Version: 6.00 Build 0)  -->
<svg version="1.1" id="Layer_1" xmlns="http://www.w3.org/2000/svg" xmlns:xlink="http://www.w3.org/1999/xlink" x="0px" y="0px"
	 viewBox="0 0 60 60" style="enable-background:new 0 0 60 60;" xml:space="preserve">
<style type="text/css">
	.st0{fill:#FFFFFF;}
	.st1{fill:none;stroke:#C3F0E9;}
	.st2{fill:url(#Shape_2_);}
</style>
<path class="st0" d="M10,0.5h40c5.2,0,9.5,4.3,9.5,9.5v40c0,5.2-4.3,9.5-9.5,9.5H10c-5.2,0-9.5-4.3-9.5-9.5V10
	C0.5,4.8,4.8,0.5,10,0.5z"/>
<path class="st1" d="M10,0.5h40c5.2,0,9.5,4.3,9.5,9.5v40c0,5.2-4.3,9.5-9.5,9.5H10c-5.2,0-9.5-4.3-9.5-9.5V10
	C0.5,4.8,4.8,0.5,10,0.5z"/>
<linearGradient id="Shape_2_" gradientUnits="userSpaceOnUse" x1="30" y1="51.2297" x2="30" y2="12.9606" gradientTransform="matrix(1 0 0 -1 0 62)">
	<stop  offset="0" style="stop-color:#2CD2BF"/>
	<stop  offset="0.1567" style="stop-color:#2CCEC0"/>
	<stop  offset="0.2981" style="stop-color:#2CC3C4"/>
	<stop  offset="0.4337" style="stop-color:#2DB1C9"/>
	<stop  offset="0.5657" style="stop-color:#2D97D1"/>
	<stop  offset="0.6951" style="stop-color:#2E76DC"/>
	<stop  offset="0.8225" style="stop-color:#2F4DE9"/>
	<stop  offset="0.946" style="stop-color:#301DF8"/>
	<stop  offset="1" style="stop-color:#3006FF"/>
</linearGradient>
<path id="Shape_1_" class="st2" d="M30,10.9c-10.6,0-19.1,8.5-19.1,19.1S19.4,49.1,30,49.1S49.1,40.6,49.1,30S40.6,10.9,30,10.9z
	 M44.7,27.9h-6.3c-0.2-4-0.9-7.7-1.9-10.7c-0.1-0.3-0.2-0.5-0.3-0.8C40.7,18.5,44,22.8,44.7,27.9z M15.3,32.1h6.3
	c0.2,4,0.9,7.7,1.9,10.7c0.1,0.3,0.2,0.5,0.3,0.8C19.3,41.5,16,37.2,15.3,32.1z M23.5,17.2c-1,2.9-1.8,6.6-1.9,10.7h-6.3
	c0.7-5.1,4.1-9.3,8.5-11.4C23.7,16.7,23.6,16.9,23.5,17.2z M32.5,41.3C31.4,44.2,30.3,45,30,45c-0.3,0-1.4-0.7-2.5-3.7
	c-1-2.5-1.5-5.7-1.7-9.2h8.4C34.1,35.7,33.4,38.8,32.5,41.3z M25.7,27.9c0.2-3.4,0.7-6.7,1.7-9.2c1.1-2.9,2.2-3.7,2.5-3.7
	s1.4,0.7,2.5,3.7c1,2.5,1.5,5.7,1.7,9.2H25.7z M36.2,43.5c0.1-0.3,0.2-0.5,0.3-0.8c1-2.9,1.8-6.6,1.9-10.7h6.3
	C44,37.2,40.7,41.5,36.2,43.5z"/>
</svg>
