<?xml version="1.0" encoding="utf-8"?>
<!-- Generator: Adobe Illustrator 25.0.0, SVG Export Plug-In . SVG Version: 6.00 Build 0)  -->
<svg version="1.1" id="Layer_1" xmlns="http://www.w3.org/2000/svg" xmlns:xlink="http://www.w3.org/1999/xlink" x="0px" y="0px"
	 viewBox="0 0 60 60" style="enable-background:new 0 0 60 60;" xml:space="preserve">
<style type="text/css">
	.st0{fill:#FFFFFF;}
	.st1{fill:url(#SVGID_1_);}
	.st2{fill:url(#SVGID_2_);}
	.st3{fill:url(#SVGID_3_);}
	.st4{fill:url(#SVGID_4_);}
	.st5{fill:url(#SVGID_5_);}
	.st6{fill:url(#SVGID_6_);}
	.st7{fill:url(#SVGID_7_);}
	.st8{fill:url(#SVGID_8_);}
	.st9{fill:url(#SVGID_9_);}
	.st10{fill:url(#SVGID_10_);}
	.st11{fill:url(#SVGID_11_);}
	.st12{fill:none;stroke:#C3F0E9;}
</style>
<path class="st0" d="M10,0.5h40c5.2,0,9.5,4.3,9.5,9.5v40c0,5.2-4.3,9.5-9.5,9.5H10c-5.2,0-9.5-4.3-9.5-9.5V10
	C0.5,4.8,4.8,0.5,10,0.5z"/>
<linearGradient id="SVGID_1_" gradientUnits="userSpaceOnUse" x1="19.5118" y1="61.0992" x2="18.83" y2="2.4629" gradientTransform="matrix(1 0 0 -1 0 62)">
	<stop  offset="0.1979" style="stop-color:#2CD7BE"/>
	<stop  offset="0.651" style="stop-color:#2878DB"/>
	<stop  offset="1" style="stop-color:#2400FF"/>
</linearGradient>
<path class="st1" d="M11,27.6c0,0.4,0.3,0.7,0.7,0.7h15.2c0.4,0,0.7-0.3,0.7-0.7V12.4c0-0.4-0.3-0.7-0.7-0.7H11.7
	c-0.4,0-0.7,0.3-0.7,0.7V27.6z M15.1,16.5c0-0.4,0.3-0.7,0.7-0.7h6.9c0.4,0,0.7,0.3,0.7,0.7v6.9c0,0.4-0.3,0.7-0.7,0.7h-6.9
	c-0.4,0-0.7-0.3-0.7-0.7V16.5z"/>
<linearGradient id="SVGID_2_" gradientUnits="userSpaceOnUse" x1="19.7529" y1="61.0964" x2="19.0711" y2="2.4601" gradientTransform="matrix(1 0 0 -1 0 62)">
	<stop  offset="0.1979" style="stop-color:#2CD7BE"/>
	<stop  offset="0.651" style="stop-color:#2878DB"/>
	<stop  offset="1" style="stop-color:#2400FF"/>
</linearGradient>
<path class="st2" d="M11,48.3c0,0.4,0.3,0.7,0.7,0.7h15.2c0.4,0,0.7-0.3,0.7-0.7V33.1c0-0.4-0.3-0.7-0.7-0.7H11.7
	c-0.4,0-0.7,0.3-0.7,0.7V48.3z M15.1,37.2c0-0.4,0.3-0.7,0.7-0.7h6.9c0.4,0,0.7,0.3,0.7,0.7v6.9c0,0.4-0.3,0.7-0.7,0.7h-6.9
	c-0.4,0-0.7-0.3-0.7-0.7V37.2z"/>
<linearGradient id="SVGID_3_" gradientUnits="userSpaceOnUse" x1="40.2477" y1="60.8581" x2="39.5659" y2="2.2217" gradientTransform="matrix(1 0 0 -1 0 62)">
	<stop  offset="0.1979" style="stop-color:#2CD7BE"/>
	<stop  offset="0.651" style="stop-color:#2878DB"/>
	<stop  offset="1" style="stop-color:#2400FF"/>
</linearGradient>
<path class="st3" d="M32.4,11.7c-0.4,0-0.7,0.3-0.7,0.7v15.2c0,0.4,0.3,0.7,0.7,0.7h15.2c0.4,0,0.7-0.3,0.7-0.7V12.4
	c0-0.4-0.3-0.7-0.7-0.7H32.4z M44.2,23.4c0,0.4-0.3,0.7-0.7,0.7h-6.9c-0.4,0-0.7-0.3-0.7-0.7v-6.9c0-0.4,0.3-0.7,0.7-0.7h6.9
	c0.4,0,0.7,0.3,0.7,0.7V23.4z"/>
<linearGradient id="SVGID_4_" gradientUnits="userSpaceOnUse" x1="46.7818" y1="60.7821" x2="46.1" y2="2.1458" gradientTransform="matrix(1 0 0 -1 0 62)">
	<stop  offset="0.1979" style="stop-color:#2CD7BE"/>
	<stop  offset="0.651" style="stop-color:#2878DB"/>
	<stop  offset="1" style="stop-color:#2400FF"/>
</linearGradient>
<path class="st4" d="M47.6,44.9h-2.8c-0.4,0-0.7,0.3-0.7,0.7v2.8c0,0.4,0.3,0.7,0.7,0.7h2.8c0.4,0,0.7-0.3,0.7-0.7v-2.8
	C48.3,45.2,48,44.9,47.6,44.9z"/>
<linearGradient id="SVGID_5_" gradientUnits="userSpaceOnUse" x1="34.1957" y1="60.9285" x2="33.5139" y2="2.2921" gradientTransform="matrix(1 0 0 -1 0 62)">
	<stop  offset="0.1979" style="stop-color:#2CD7BE"/>
	<stop  offset="0.651" style="stop-color:#2878DB"/>
	<stop  offset="1" style="stop-color:#2400FF"/>
</linearGradient>
<path class="st5" d="M35.2,32.4h-2.8c-0.4,0-0.7,0.3-0.7,0.7v2.8c0,0.4,0.3,0.7,0.7,0.7h2.8c0.4,0,0.7-0.3,0.7-0.7v-2.8
	C35.9,32.7,35.6,32.4,35.2,32.4z"/>
<linearGradient id="SVGID_6_" gradientUnits="userSpaceOnUse" x1="38.3911" y1="60.8797" x2="37.7093" y2="2.2433" gradientTransform="matrix(1 0 0 -1 0 62)">
	<stop  offset="0.1979" style="stop-color:#2CD7BE"/>
	<stop  offset="0.651" style="stop-color:#2878DB"/>
	<stop  offset="1" style="stop-color:#2400FF"/>
</linearGradient>
<path class="st6" d="M39.3,36.6h-2.8c-0.4,0-0.7,0.3-0.7,0.7V40c0,0.4,0.3,0.7,0.7,0.7h2.8c0.4,0,0.7-0.3,0.7-0.7v-2.8
	C40,36.9,39.7,36.6,39.3,36.6z"/>
<linearGradient id="SVGID_7_" gradientUnits="userSpaceOnUse" x1="34.2922" y1="60.9273" x2="33.6104" y2="2.291" gradientTransform="matrix(1 0 0 -1 0 62)">
	<stop  offset="0.1979" style="stop-color:#2CD7BE"/>
	<stop  offset="0.651" style="stop-color:#2878DB"/>
	<stop  offset="1" style="stop-color:#2400FF"/>
</linearGradient>
<path class="st7" d="M35.2,40.7h-2.8c-0.4,0-0.7,0.3-0.7,0.7v2.8c0,0.4,0.3,0.7,0.7,0.7h2.8c0.4,0,0.7-0.3,0.7-0.7v-2.8
	C35.9,41,35.6,40.7,35.2,40.7z"/>
<linearGradient id="SVGID_8_" gradientUnits="userSpaceOnUse" x1="38.4875" y1="60.8786" x2="37.8057" y2="2.2422" gradientTransform="matrix(1 0 0 -1 0 62)">
	<stop  offset="0.1979" style="stop-color:#2CD7BE"/>
	<stop  offset="0.651" style="stop-color:#2878DB"/>
	<stop  offset="1" style="stop-color:#2400FF"/>
</linearGradient>
<path class="st8" d="M39.3,44.9h-2.8c-0.4,0-0.7,0.3-0.7,0.7v2.8c0,0.4,0.3,0.7,0.7,0.7h2.8c0.4,0,0.7-0.3,0.7-0.7v-2.8
	C40,45.2,39.7,44.9,39.3,44.9z"/>
<linearGradient id="SVGID_9_" gradientUnits="userSpaceOnUse" x1="42.5864" y1="60.8309" x2="41.9046" y2="2.1946" gradientTransform="matrix(1 0 0 -1 0 62)">
	<stop  offset="0.1979" style="stop-color:#2CD7BE"/>
	<stop  offset="0.651" style="stop-color:#2878DB"/>
	<stop  offset="1" style="stop-color:#2400FF"/>
</linearGradient>
<path class="st9" d="M43.5,40.7h-2.8c-0.4,0-0.7,0.3-0.7,0.7v2.8c0,0.4,0.3,0.7,0.7,0.7h2.8c0.4,0,0.7-0.3,0.7-0.7v-2.8
	C44.2,41,43.9,40.7,43.5,40.7z"/>
<linearGradient id="SVGID_10_" gradientUnits="userSpaceOnUse" x1="42.49" y1="60.832" x2="41.8082" y2="2.1957" gradientTransform="matrix(1 0 0 -1 0 62)">
	<stop  offset="0.1979" style="stop-color:#2CD7BE"/>
	<stop  offset="0.651" style="stop-color:#2878DB"/>
	<stop  offset="1" style="stop-color:#2400FF"/>
</linearGradient>
<path class="st10" d="M43.5,32.4h-2.8c-0.4,0-0.7,0.3-0.7,0.7v2.8c0,0.4,0.3,0.7,0.7,0.7h2.8c0.4,0,0.7-0.3,0.7-0.7v-2.8
	C44.2,32.7,43.9,32.4,43.5,32.4z"/>
<linearGradient id="SVGID_11_" gradientUnits="userSpaceOnUse" x1="46.6854" y1="60.7832" x2="46.0036" y2="2.1469" gradientTransform="matrix(1 0 0 -1 0 62)">
	<stop  offset="0.1979" style="stop-color:#2CD7BE"/>
	<stop  offset="0.651" style="stop-color:#2878DB"/>
	<stop  offset="1" style="stop-color:#2400FF"/>
</linearGradient>
<path class="st11" d="M47.6,36.6h-2.8c-0.4,0-0.7,0.3-0.7,0.7V40c0,0.4,0.3,0.7,0.7,0.7h2.8c0.4,0,0.7-0.3,0.7-0.7v-2.8
	C48.3,36.9,48,36.6,47.6,36.6z"/>
<path class="st12" d="M10,0.5h40c5.2,0,9.5,4.3,9.5,9.5v40c0,5.2-4.3,9.5-9.5,9.5H10c-5.2,0-9.5-4.3-9.5-9.5V10
	C0.5,4.8,4.8,0.5,10,0.5z"/>
</svg>
