<?xml version="1.0" encoding="UTF-8"?>
<svg width="52px" height="52px" viewBox="0 0 52 52" version="1.1" xmlns="http://www.w3.org/2000/svg" xmlns:xlink="http://www.w3.org/1999/xlink">
    <!-- Generator: Sketch 57.1 (83088) - https://sketch.com -->
    <title>Artboard Copy 8</title>
    <desc>Created with Sketch.</desc>
    <g id="Artboard-Copy-8" stroke="none" stroke-width="1" fill="none" fill-rule="evenodd">
        <path d="M26,20 L26,27 L26,20 Z" id="Rectangle" fill="#000000"></path>
        <g id="sirin-labs-vector-logo" transform="translate(2.000000, 12.000000)" fill="#002747" fill-rule="nonzero">
            <path d="M6.94790809,6.77768 C8.04083745,6.93622222 9.25086638,4.63736 9.99249702,3.25011556 L10.0315302,3.17084444 C9.68023149,2.57631111 9.87539745,1.70432889 10.1095966,1.03052444 C10.1486298,0.951253333 10.2266962,0.673804444 10.1486298,0.634168889 C10.1095966,0.634168889 10.0705634,0.634168889 10.0315302,0.634168889 C9.52409872,1.03052444 9.01666723,1.50615111 8.58730213,1.98177778 C8.07987064,2.57631111 7.53340596,3.09157333 6.90887489,3.52756444 C6.59660936,4.39954667 6.24531064,5.94533333 6.59660936,6.57950222 C6.63564255,6.65877333 6.79177532,6.73804444 6.94790809,6.77768 Z" id="Path"></path>
            <path d="M41.8435813,4.16173333 C41.8435813,4.12209778 41.8826145,4.04282667 41.9216477,4.04282667 C41.9606809,4.04282667 41.999714,4.04282667 42.0387472,4.08246222 C42.7803779,5.3508 43.7952409,6.97585778 44.3807387,7.49112 C44.6149379,8.75945778 44.5759047,9.75034667 44.2636391,10.1467022 C44.1855728,10.2656089 44.0684732,10.3052444 43.9513736,10.34488 C43.4439421,10.4241511 42.7023115,9.90888889 41.7264817,7.09476444 C42.0777804,6.14351111 42.1168136,5.11298667 41.8435813,4.16173333 Z" id="Path"></path>
            <path d="M5.42561362,4.16173333 C5.42561362,4.12209778 5.38658043,4.04282667 5.34754723,4.04282667 C5.30851404,4.04282667 5.26948085,4.04282667 5.23044766,4.08246222 C4.48881702,5.3508 3.47395404,6.97585778 2.88845617,7.49112 C2.65425702,8.75945778 2.69329021,9.75034667 3.00555574,10.1467022 C3.08362213,10.2656089 3.2007217,10.3052444 3.31782128,10.34488 C3.82525277,10.4241511 4.5668834,9.90888889 5.54271319,7.09476444 C5.19141447,6.18314667 5.15238128,5.15262222 5.42561362,4.16173333 Z" id="Path"></path>
            <path d="M4.68398298,17.1621956 C4.68398298,16.9243822 4.68398298,16.6865689 4.68398298,16.4487556 C4.68398298,16.4487556 4.68398298,16.4487556 4.68398298,16.40912 C4.64494979,16.3694844 4.6059166,16.3298489 4.6059166,16.2902133 C4.5668834,16.2505778 4.52785021,16.2109422 4.52785021,16.1316711 C4.48881702,16.0920356 4.44978383,16.0127644 4.41075064,15.9731289 C4.37171745,15.8938578 4.33268426,15.8542222 4.29365106,15.7749511 C4.25461787,15.69568 4.21558468,15.6560444 4.17655149,15.5767733 C4.1375183,15.4975022 4.09848511,15.4182311 4.05945191,15.33896 C4.02041872,15.2596889 3.98138553,15.1804178 3.98138553,15.1011467 C3.94235234,15.0218756 3.90331915,14.9029689 3.90331915,14.8236978 C3.86428596,14.7444267 3.82525277,14.62552 3.82525277,14.5066133 C3.78621957,14.3877067 3.78621957,14.3084356 3.74718638,14.1895289 C3.70815319,14.0706222 3.70815319,13.9517156 3.66912,13.8328089 C3.63008681,13.7139022 3.63008681,13.5949956 3.59105362,13.4760889 C3.55202043,13.3571822 3.55202043,13.19864 3.55202043,13.0797333 C3.55202043,12.9211911 3.51298723,12.8022844 3.51298723,12.6437422 C3.51298723,12.4852 3.47395404,12.3266578 3.47395404,12.1681156 C3.47395404,12.0888444 3.47395404,12.0095733 3.47395404,11.9303022 C3.47395404,11.8906667 3.47395404,11.77176 3.47395404,11.7321244 C3.47395404,11.7321244 3.47395404,11.6924889 3.47395404,11.6924889 C3.47395404,11.6132178 3.39588766,11.5339467 3.31782128,11.5339467 C3.23975489,11.5339467 3.2007217,11.5735822 3.16168851,11.6528533 C3.16168851,11.6528533 3.16168851,11.6924889 3.16168851,11.6924889 C3.16168851,11.6924889 3.16168851,11.7321244 3.16168851,11.7321244 C3.16168851,11.77176 3.16168851,11.8113956 3.16168851,11.8113956 C3.16168851,11.8906667 3.12265532,11.9303022 3.12265532,12.0095733 C3.08362213,12.1681156 3.08362213,12.3266578 3.04458894,12.4852 C3.00555574,12.6437422 3.00555574,12.7626489 2.96652255,12.9211911 C2.92748936,13.0400978 2.92748936,13.19864 2.88845617,13.3175467 C2.84942298,13.4364533 2.84942298,13.55536 2.81038979,13.6742667 C2.7713566,13.7931733 2.7713566,13.8724444 2.7323234,13.9913511 C2.7323234,14.0706222 2.69329021,14.1895289 2.69329021,14.2688 C2.69329021,14.3480711 2.65425702,14.4669778 2.65425702,14.5462489 C2.65425702,14.62552 2.61522383,14.7047911 2.61522383,14.7840622 C2.61522383,14.8633333 2.57619064,14.9426044 2.57619064,15.0218756 C2.57619064,15.1011467 2.53715745,15.1407822 2.53715745,15.2200533 C2.53715745,15.2596889 2.49812426,15.33896 2.49812426,15.3785956 C2.49812426,15.4182311 2.45909106,15.4975022 2.45909106,15.5371378 C2.45909106,15.5767733 2.42005787,15.6164089 2.42005787,15.69568 C2.42005787,15.7353156 2.38102468,15.7749511 2.38102468,15.8145867 C2.38102468,15.8542222 2.34199149,15.8938578 2.34199149,15.9334933 C2.34199149,15.9731289 2.3029583,16.0127644 2.3029583,16.0127644 C2.3029583,16.0524 2.26392511,16.0524 2.26392511,16.0920356 C2.26392511,16.1316711 2.22489191,16.1316711 2.22489191,16.1713067 C2.22489191,16.2109422 2.18585872,16.2109422 2.18585872,16.2505778 C2.18585872,16.2902133 2.14682553,16.2902133 2.14682553,16.3298489 C2.14682553,16.3694844 2.10779234,16.3694844 2.10779234,16.40912 C2.10779234,16.40912 2.10779234,16.4487556 2.10779234,16.4487556 C2.10779234,16.4487556 2.10779234,16.4883911 2.10779234,16.4883911 C2.92748936,19.3025156 3.55202043,19.6988711 3.82525277,19.7385067 C3.86428596,19.7385067 3.90331915,19.7385067 3.94235234,19.7385067 C4.5668834,19.6592356 4.68398298,18.6683467 4.68398298,17.1621956 Z" id="Path"></path>
            <path d="M42.5852119,17.1621956 C42.5852119,16.9243822 42.5852119,16.6865689 42.5852119,16.4487556 C42.5852119,16.4487556 42.5852119,16.4487556 42.5852119,16.40912 C42.6242451,16.3694844 42.6632783,16.3298489 42.6632783,16.2902133 C42.7023115,16.2505778 42.7413447,16.2109422 42.7413447,16.1316711 C42.7803779,16.0920356 42.8194111,16.0127644 42.8584443,15.9731289 C42.8974774,15.8938578 42.9365106,15.8542222 42.9755438,15.7749511 C43.014577,15.69568 43.0536102,15.6560444 43.0926434,15.5767733 C43.1316766,15.4975022 43.1707098,15.4182311 43.209743,15.33896 C43.2487762,15.2596889 43.2878094,15.1804178 43.2878094,15.1011467 C43.3268426,15.0218756 43.3658757,14.9029689 43.3658757,14.8236978 C43.4049089,14.7444267 43.4439421,14.62552 43.4439421,14.5066133 C43.4829753,14.3877067 43.4829753,14.3084356 43.5220085,14.1895289 C43.5610417,14.0706222 43.5610417,13.9517156 43.6000749,13.8328089 C43.6391081,13.7139022 43.6391081,13.5949956 43.6781413,13.4760889 C43.7171745,13.3571822 43.7171745,13.19864 43.7171745,13.0797333 C43.7171745,12.9211911 43.7562077,12.8022844 43.7562077,12.6437422 C43.7562077,12.4852 43.7952409,12.3266578 43.7952409,12.1681156 C43.7952409,12.0888444 43.7952409,12.0095733 43.7952409,11.9303022 C43.7952409,11.8906667 43.7952409,11.77176 43.7952409,11.7321244 C43.7952409,11.7321244 43.7952409,11.6924889 43.7952409,11.6924889 C43.7952409,11.6132178 43.8733072,11.5339467 43.9513736,11.5339467 C44.02944,11.5339467 44.0684732,11.5735822 44.1075064,11.6528533 C44.1075064,11.6528533 44.1075064,11.6924889 44.1075064,11.6924889 C44.1075064,11.6924889 44.1075064,11.7321244 44.1075064,11.7321244 C44.1075064,11.77176 44.1075064,11.8113956 44.1075064,11.8113956 C44.1075064,11.8906667 44.1465396,11.9303022 44.1465396,12.0095733 C44.1855728,12.1681156 44.1855728,12.3266578 44.224606,12.4852 C44.2636391,12.6437422 44.2636391,12.7626489 44.3026723,12.9211911 C44.3417055,13.0400978 44.3417055,13.19864 44.3807387,13.3175467 C44.4197719,13.4364533 44.4197719,13.55536 44.4588051,13.6742667 C44.4978383,13.7931733 44.4978383,13.8724444 44.5368715,13.9913511 C44.5368715,14.0706222 44.5759047,14.1895289 44.5759047,14.2688 C44.5759047,14.3480711 44.6149379,14.4669778 44.6149379,14.5462489 C44.6149379,14.62552 44.6539711,14.7047911 44.6539711,14.7840622 C44.6539711,14.8633333 44.6930043,14.9426044 44.6930043,15.0218756 C44.6930043,15.1011467 44.7320374,15.1407822 44.7320374,15.2200533 C44.7320374,15.2596889 44.7710706,15.33896 44.7710706,15.3785956 C44.7710706,15.4182311 44.8101038,15.4975022 44.8101038,15.5371378 C44.8101038,15.5767733 44.849137,15.6164089 44.849137,15.69568 C44.849137,15.7353156 44.8881702,15.7749511 44.8881702,15.8145867 C44.8881702,15.8542222 44.9272034,15.8938578 44.9272034,15.9334933 C44.9272034,15.9731289 44.9662366,16.0127644 44.9662366,16.0127644 C44.9662366,16.0524 45.0052698,16.0524 45.0052698,16.0920356 C45.0052698,16.1316711 45.044303,16.1316711 45.044303,16.1713067 C45.044303,16.2109422 45.0833362,16.2109422 45.0833362,16.2505778 C45.0833362,16.2902133 45.1223694,16.2902133 45.1223694,16.3298489 C45.1223694,16.3694844 45.1614026,16.3694844 45.1614026,16.40912 C45.1614026,16.40912 45.1614026,16.4487556 45.1614026,16.4487556 C45.1614026,16.4487556 45.1614026,16.4883911 45.1614026,16.4883911 C44.3417055,19.3025156 43.7171745,19.6988711 43.4439421,19.7385067 C43.4049089,19.7385067 43.3658757,19.7385067 43.3268426,19.7385067 C42.7023115,19.6592356 42.5852119,18.6683467 42.5852119,17.1621956 Z" id="Path"></path>
            <path d="M7.06500766,25.0893067 L7.06500766,25.0893067 C7.02597447,25.0496711 6.98694128,25.0100356 6.94790809,24.9704 C6.90887489,24.9307644 6.8698417,24.8911289 6.83080851,24.8514933 C6.79177532,24.8118578 6.71370894,24.7325867 6.67467574,24.6929511 C6.63564255,24.61368 6.55757617,24.5740444 6.51854298,24.4947733 C6.4404766,24.4155022 6.4014434,24.3362311 6.32337702,24.2965956 C6.24531064,24.2173244 6.20627745,24.1380533 6.12821106,24.0587822 C6.05014468,23.9795111 5.9720783,23.90024 5.93304511,23.7813333 C5.85497872,23.7020622 5.77691234,23.5831556 5.73787915,23.5038844 C5.65981277,23.3849778 5.58174638,23.3057067 5.50368,23.1868 C5.42561362,23.0678933 5.34754723,22.9489867 5.26948085,22.8697156 C5.19141447,22.7508089 5.11334809,22.6319022 5.07431489,22.5129956 C4.99624851,22.3940889 4.91818213,22.2751822 4.87914894,22.11664 C4.76204936,21.8788267 4.64494979,21.6806489 4.5668834,21.4428356 C4.52785021,21.3635644 4.48881702,21.2842933 4.41075064,21.2842933 C4.37171745,21.2842933 4.33268426,21.2842933 4.29365106,21.3239289 C4.25461787,21.4032 4.29365106,21.4428356 4.29365106,21.5221067 C4.29365106,21.6013778 4.33268426,21.6806489 4.33268426,21.7202844 C4.37171745,21.8788267 4.41075064,21.9977333 4.41075064,22.1562756 C4.48881702,22.5129956 4.5668834,22.8697156 4.64494979,23.2660711 C4.68398298,23.4642489 4.72301617,23.6624267 4.76204936,23.90024 C4.80108255,24.0984178 4.80108255,24.2965956 4.80108255,24.4947733 C4.80108255,24.5344089 4.80108255,24.61368 4.80108255,24.6533156 C4.80108255,24.6929511 4.76204936,24.7325867 4.80108255,24.7722222 C5.65981277,26.39728 6.51854298,27.0710844 7.65050553,27.0710844 C7.68953872,27.0710844 7.68953872,27.0710844 7.72857191,27.0710844 C7.72857191,27.0710844 7.72857191,27.0314489 7.72857191,27.0314489 C7.72857191,27.0314489 7.72857191,26.9918133 7.72857191,26.9918133 C7.72857191,26.9918133 7.72857191,26.9521778 7.72857191,26.9521778 C7.72857191,26.9125422 7.72857191,26.9125422 7.72857191,26.8729067 C7.72857191,26.8332711 7.72857191,26.8332711 7.72857191,26.7936356 C7.72857191,26.754 7.72857191,26.7143644 7.72857191,26.7143644 C7.72857191,26.6747289 7.72857191,26.6350933 7.68953872,26.5954578 C7.68953872,26.5558222 7.65050553,26.5161867 7.65050553,26.4765511 C7.65050553,26.4369156 7.61147234,26.39728 7.61147234,26.3576444 C7.61147234,26.3180089 7.57243915,26.2783733 7.57243915,26.1991022 C7.57243915,26.1594667 7.53340596,26.0801956 7.53340596,26.04056 C7.49437277,26.0009244 7.49437277,25.9216533 7.45533957,25.8820178 C7.41630638,25.8027467 7.41630638,25.7631111 7.37727319,25.68384 C7.33824,25.6045689 7.33824,25.5649333 7.29920681,25.4856622 C7.26017362,25.4063911 7.22114043,25.3667556 7.18210723,25.2874844 C7.18210723,25.2478489 7.14307404,25.2478489 7.14307404,25.2082133 L7.10404085,25.1685778 L7.06500766,25.0893067 C7.10404085,25.0893067 7.06500766,25.0893067 7.06500766,25.0893067 Z" id="Path"></path>
            <path d="M40.165154,25.0893067 L40.165154,25.0893067 C40.2041872,25.0496711 40.2432204,25.0100356 40.2822536,24.9704 C40.3212868,24.9307644 40.36032,24.8911289 40.3993532,24.8514933 C40.4383864,24.8118578 40.5164528,24.7325867 40.555486,24.6929511 C40.5945191,24.61368 40.6725855,24.5740444 40.7116187,24.4947733 C40.7896851,24.4155022 40.8287183,24.3362311 40.9067847,24.2965956 C40.9848511,24.2173244 41.0238843,24.1380533 41.1019506,24.0587822 C41.180017,23.9795111 41.2580834,23.90024 41.2971166,23.7813333 C41.375183,23.7020622 41.4532494,23.5831556 41.4922826,23.5038844 C41.5703489,23.3849778 41.6484153,23.3057067 41.7264817,23.1868 C41.8045481,23.0678933 41.8826145,22.9489867 41.9606809,22.8697156 C42.0387472,22.7508089 42.1168136,22.6319022 42.1558468,22.5129956 C42.2339132,22.3940889 42.3119796,22.2751822 42.3510128,22.11664 C42.4681123,21.8788267 42.5852119,21.6806489 42.6632783,21.4428356 C42.7023115,21.3635644 42.7413447,21.2842933 42.8194111,21.2842933 C42.8584443,21.2842933 42.8974774,21.2842933 42.9365106,21.3239289 C42.9755438,21.4032 42.9365106,21.4428356 42.9365106,21.5221067 C42.9365106,21.6013778 42.8974774,21.6806489 42.8974774,21.7202844 C42.8584443,21.8788267 42.8194111,21.9977333 42.8194111,22.1562756 C42.7413447,22.5129956 42.6632783,22.8697156 42.5852119,23.2660711 C42.5461787,23.4642489 42.5071455,23.6624267 42.4681123,23.90024 C42.4290791,24.0984178 42.4290791,24.2965956 42.4290791,24.4947733 C42.4290791,24.5344089 42.4290791,24.61368 42.4290791,24.6533156 C42.4290791,24.6929511 42.4681123,24.7325867 42.4290791,24.7722222 C41.5703489,26.39728 40.7116187,27.0710844 39.5796562,27.0710844 C39.540623,27.0710844 39.540623,27.0710844 39.5015898,27.0710844 C39.5015898,27.0710844 39.5015898,27.0314489 39.5015898,27.0314489 C39.5015898,27.0314489 39.5015898,26.9918133 39.5015898,26.9918133 C39.5015898,26.9918133 39.5015898,26.9521778 39.5015898,26.9521778 C39.5015898,26.9125422 39.5015898,26.9125422 39.5015898,26.8729067 C39.5015898,26.8332711 39.5015898,26.8332711 39.5015898,26.7936356 C39.5015898,26.754 39.5015898,26.7143644 39.5015898,26.7143644 C39.5015898,26.6747289 39.5015898,26.6350933 39.540623,26.5954578 C39.540623,26.5558222 39.5796562,26.5161867 39.5796562,26.4765511 C39.5796562,26.4369156 39.6186894,26.39728 39.6186894,26.3576444 C39.6186894,26.3180089 39.6577226,26.2783733 39.6577226,26.1991022 C39.6577226,26.1594667 39.6967557,26.0801956 39.6967557,26.04056 C39.7357889,26.0009244 39.7357889,25.9216533 39.7748221,25.8820178 C39.8138553,25.8027467 39.8138553,25.7631111 39.8528885,25.68384 C39.8919217,25.6045689 39.8919217,25.5649333 39.9309549,25.4856622 C39.9699881,25.4063911 40.0090213,25.3667556 40.0480545,25.2874844 C40.0480545,25.2478489 40.0870877,25.2478489 40.0870877,25.2082133 L40.1261209,25.1685778 L40.165154,25.0893067 C40.165154,25.0893067 40.165154,25.0893067 40.165154,25.0893067 Z" id="Path"></path>
            <path d="M1.83456,6.81731556 C1.91262638,6.81731556 2.84942298,6.42096 4.72301617,3.01230222 L4.80108255,2.85376 C4.72301617,2.41776889 4.87914894,2.06104889 5.30851404,1.42688 C5.38658043,1.30797333 5.46464681,1.14943111 5.42561362,1.03052444 C5.42561362,1.03052444 5.42561362,1.03052444 5.42561362,1.03052444 C5.42561362,1.03052444 5.42561362,1.03052444 5.42561362,1.03052444 C4.52785021,1.70432889 3.70815319,2.49704 3.00555574,3.36902222 C1.63939404,5.27152889 1.67842723,6.65877333 1.83456,6.81731556 C1.83456,6.81731556 1.83456,6.81731556 1.83456,6.81731556 Z" id="Path"></path>
            <path d="M45.3175353,6.85695111 C45.2394689,6.85695111 44.3026723,6.46059556 42.4290791,3.05193778 L42.3510128,2.89339556 C42.4290791,2.45740444 42.2729464,2.10068444 41.8435813,1.46651556 C41.7655149,1.34760889 41.6874485,1.18906667 41.7264817,1.07016 C41.7264817,1.07016 41.7264817,1.07016 41.7264817,1.07016 C41.7264817,1.07016 41.7264817,1.07016 41.7264817,1.07016 C42.6242451,1.74396444 43.4439421,2.53667556 44.1465396,3.40865778 C45.5127013,5.27152889 45.4736681,6.65877333 45.3175353,6.85695111 C45.3175353,6.85695111 45.3175353,6.85695111 45.3175353,6.85695111 Z" id="Path"></path>
            <path d="M1.99069277,10.9394133 C1.99069277,10.8997778 1.95165957,10.8997778 1.99069277,10.9394133 L1.95165957,10.8601422 C1.95165957,10.8205067 1.91262638,10.8205067 1.91262638,10.7808711 C1.83456,10.6619644 1.79552681,10.5034222 1.75649362,10.3845156 C1.71746043,10.2656089 1.67842723,10.1070667 1.63939404,9.94852444 C1.60036085,9.78998222 1.60036085,9.67107556 1.56132766,9.51253333 C1.56132766,9.35399111 1.52229447,9.23508444 1.52229447,9.07654222 C1.52229447,8.918 1.52229447,8.79909333 1.52229447,8.64055111 C1.52229447,8.56128 1.52229447,8.48200889 1.52229447,8.40273778 C1.52229447,8.36310222 1.52229447,8.32346667 1.52229447,8.28383111 C1.52229447,8.24419556 1.52229447,8.12528889 1.44422809,8.12528889 C1.32712851,8.12528889 1.24906213,8.20456 1.21002894,8.32346667 C1.17099574,8.40273778 1.13196255,8.52164444 1.09292936,8.60091556 C0.975829787,8.83872889 0.897763404,9.07654222 0.819697021,9.31435556 C0.624531064,9.82961778 0.468398298,10.34488 0.312265532,10.8601422 C0.195165957,11.41504 0.117099574,11.9699378 0.117099574,12.5248356 C0.117099574,13.1193689 0.156132766,13.7535378 0.27323234,14.3480711 C0.312265532,14.8633333 0.468398298,15.3785956 0.741630638,15.8145867 C0.78066383,15.8542222 0.78066383,15.8542222 0.819697021,15.8938578 C1.17099574,15.4975022 1.67842723,13.0797333 1.99069277,10.9394133 Z" id="Path"></path>
            <path d="M2.84942298,20.6501244 C2.81038979,20.6104889 2.81038979,20.5708533 2.7713566,20.5312178 C2.7323234,20.4915822 2.69329021,20.4519467 2.65425702,20.4123111 C2.61522383,20.3726756 2.57619064,20.2934044 2.53715745,20.2537689 C2.49812426,20.1744978 2.45909106,20.1348622 2.42005787,20.0555911 C2.38102468,19.97632 2.34199149,19.8970489 2.3029583,19.8177778 C2.26392511,19.7385067 2.22489191,19.6592356 2.14682553,19.5799644 C2.10779234,19.5006933 2.02972596,19.3817867 1.99069277,19.3025156 C1.95165957,19.1836089 1.87359319,19.1043378 1.83456,18.9854311 C1.79552681,18.8665244 1.71746043,18.7476178 1.67842723,18.6287111 C1.63939404,18.4701689 1.60036085,18.3908978 1.56132766,18.2323556 C1.52229447,18.0341778 1.48326128,17.9945422 1.44422809,17.7963644 C1.40519489,17.7170933 1.40519489,17.5585511 1.28809532,17.5981867 C1.17099574,17.5981867 1.17099574,17.7963644 1.17099574,17.8756356 C1.17099574,18.0341778 1.17099574,18.1530844 1.17099574,18.2719911 C1.17099574,18.3116267 1.17099574,18.3116267 1.17099574,18.3512622 C1.17099574,18.5098044 1.17099574,18.7079822 1.13196255,18.8665244 C1.13196255,19.0250667 1.13196255,19.2232444 1.13196255,19.3817867 C1.13196255,19.5403289 1.13196255,19.7385067 1.13196255,19.8970489 C1.21002894,20.5708533 1.40519489,21.2050222 1.71746043,21.7995556 C1.91262638,22.1959111 2.10779234,22.5526311 2.34199149,22.9093511 C2.57619064,23.3453422 2.92748936,23.7416978 3.35685447,24.0191467 C3.39588766,24.0587822 3.47395404,24.0191467 3.51298723,23.9795111 C3.51298723,23.9795111 3.51298723,23.9398756 3.51298723,23.9398756 C3.43492085,22.8697156 3.23975489,21.7995556 2.92748936,20.7293956 C2.88845617,20.68976 2.88845617,20.68976 2.84942298,20.6501244 Z" id="Path"></path>
            <path d="M44.4197719,20.6501244 C44.4588051,20.6104889 44.4588051,20.5708533 44.4978383,20.5312178 C44.5368715,20.4915822 44.5759047,20.4519467 44.6149379,20.4123111 C44.6539711,20.3726756 44.6930043,20.2934044 44.7320374,20.2537689 C44.7710706,20.1744978 44.8101038,20.1348622 44.849137,20.0555911 C44.8881702,19.97632 44.9272034,19.8970489 44.9662366,19.8177778 C45.0052698,19.7385067 45.044303,19.6592356 45.1223694,19.5799644 C45.1614026,19.5006933 45.2394689,19.3817867 45.2785021,19.3025156 C45.3175353,19.1836089 45.3956017,19.1043378 45.4346349,18.9854311 C45.4736681,18.8665244 45.5517345,18.7476178 45.5907677,18.6287111 C45.6298009,18.4701689 45.668834,18.3908978 45.7078672,18.2323556 C45.7469004,18.0341778 45.7859336,17.9945422 45.8249668,17.7963644 C45.864,17.7170933 45.864,17.5585511 45.9810996,17.5981867 C46.0981991,17.5981867 46.0981991,17.7963644 46.0981991,17.8756356 C46.0981991,18.0341778 46.0981991,18.1530844 46.0981991,18.2719911 C46.0981991,18.3116267 46.0981991,18.3116267 46.0981991,18.3512622 C46.0981991,18.5098044 46.0981991,18.7079822 46.1372323,18.8665244 C46.1372323,19.0250667 46.1372323,19.2232444 46.1372323,19.3817867 C46.1372323,19.5403289 46.1372323,19.7385067 46.1372323,19.8970489 C46.059166,20.5708533 45.864,21.2050222 45.5517345,21.7995556 C45.3565685,22.1959111 45.1614026,22.5526311 44.9272034,22.9093511 C44.6930043,23.3453422 44.3417055,23.7416978 43.9123404,24.0191467 C43.8733072,24.0587822 43.7952409,24.0191467 43.7562077,23.9795111 C43.7562077,23.9795111 43.7562077,23.9398756 43.7562077,23.9398756 C43.834274,22.8697156 44.02944,21.7995556 44.3417055,20.7293956 C44.3807387,20.68976 44.3807387,20.68976 44.4197719,20.6501244 Z" id="Path"></path>
            <path d="M14.4032477,6.65877333 C15.9255421,6.81731556 16.8233055,4.95444444 17.4478366,3.21048 C16.8623387,2.65558222 16.7452391,1.62505778 16.706206,0.911617778 L16.706206,0.871982222 C16.706206,0.554897778 16.6281396,0.35672 16.1987745,0.317084444 C15.9255421,0.317084444 15.3400443,1.07016 14.9106791,1.62505778 C14.481314,2.29886222 13.8958162,2.89339556 13.2322519,3.36902222 C13.037086,4.51845333 13.1541855,5.62824889 13.5835506,6.22278222 C13.7787166,6.46059556 14.0909821,6.61913778 14.4032477,6.65877333 Z" id="Path"></path>
            <path d="M15.1839115,8.12528889 C14.67648,8.24419556 14.1690485,8.20456 13.7006502,8.08565333 C13.3103183,9.27472 12.4125549,10.6619644 11.7489906,11.1375911 C11.9051234,13.0797333 12.84192,15.8145867 14.0909821,15.8542222 C15.7303762,15.8938578 16.3549072,13.5949956 16.7452391,11.05832 C15.8865089,10.3052444 15.3400443,9.23508444 15.1839115,8.12528889 Z" id="Path"></path>
            <path d="M14.8326128,17.3603733 C14.3642145,17.47928 13.856783,17.47928 13.3883847,17.3207378 C13.1541855,18.90616 12.7638536,19.9366844 12.1783557,20.5708533 C12.5296545,21.4032 13.7787166,23.7020622 15.1058451,23.9795111 C15.4571438,24.0984178 15.8084426,24.0191467 16.0816749,23.8209689 C16.7842723,23.2660711 16.8623387,21.6806489 16.9013719,20.68976 C16.0036085,20.0159556 15.3010111,18.9457956 14.8326128,17.3603733 Z" id="Path"></path>
            <path d="M8.74343489,7.45148444 C8.78246809,8.48200889 9.13376681,10.2259733 10.0705634,10.2259733 C10.0705634,10.2259733 10.0705634,10.2259733 10.1095966,10.2259733 C10.9292936,10.2259733 11.7099574,9.23508444 12.4906213,7.17403556 C12.0612562,6.57950222 11.6318911,5.50934222 11.827057,3.76537778 C11.6318911,3.76537778 11.4757583,3.76537778 11.2805923,3.72574222 C10.5779949,5.03371556 9.75829787,6.57950222 8.74343489,7.45148444 Z" id="Path"></path>
            <path d="M12.0612562,16.4883911 C11.3976919,15.7749511 10.5779949,14.3877067 10.3437957,11.6924889 C10.1095966,11.7321244 9.87539745,11.7321244 9.6411983,11.6924889 C9.21183319,14.1102578 8.78246809,15.6560444 8.04083745,16.5676622 C8.31406979,17.4000089 9.21183319,19.6988711 10.4608953,19.7385067 C11.1634928,19.8177778 11.7880238,18.54944 12.0612562,16.4883911 Z" id="Path"></path>
            <path d="M10.9292936,21.2446578 C10.6950945,21.2842933 10.4999285,21.2842933 10.2657294,21.2842933 C10.3828289,22.9886222 10.3828289,24.0984178 9.99249702,24.8118578 C10.6560613,25.8820178 11.9051234,27.3881689 13.2322519,26.9125422 C13.4664511,26.8332711 13.5835506,26.04056 13.4274179,25.0100356 C12.3735217,24.2965956 11.5147915,23.0282578 10.9292936,21.2446578 Z" id="Path"></path>
            <path d="M4.68398298,11.1375911 C4.80108255,13.7535378 5.50368,15.8542222 6.32337702,15.8542222 L6.32337702,15.8542222 C7.45533957,15.8542222 8.07987064,12.3662933 8.31406979,11.0186844 C7.65050553,10.2259733 7.29920681,9.23508444 7.29920681,8.16492444 C6.98694128,8.20456 6.67467574,8.20456 6.36241021,8.12528889 C6.16724426,8.83872889 5.54271319,10.5430578 4.68398298,11.1375911 Z" id="Path"></path>
            <path d="M6.83080851,17.3603733 C6.51854298,17.4396444 6.24531064,17.4396444 5.93304511,17.3603733 C5.85497872,18.7476178 5.69884596,19.7781422 5.30851404,20.4519467 C5.89401191,21.9580978 7.49437277,24.2173244 8.47020255,24.2173244 C8.50923574,24.2173244 8.50923574,24.25696 8.58730213,24.1380533 C8.7044017,23.9795111 9.09473362,23.3057067 8.78246809,20.68976 C7.8066383,19.8177778 7.10404085,18.6683467 6.83080851,17.3603733 Z" id="Path"></path>
            <path d="M16.5500732,7.45148444 C16.7842723,8.75945778 17.4088034,10.1070667 18.6188323,10.2259733 C20.4924255,10.3845156 21.0779234,8.56128 21.4292221,7.25330667 C20.8437243,6.65877333 20.18016,5.62824889 19.984994,3.76537778 C19.5946621,3.80501333 19.2043302,3.80501333 18.8139983,3.76537778 C18.3456,5.03371556 17.6820357,6.53986667 16.5500732,7.45148444 Z" id="Path"></path>
            <path d="M18.9310979,19.7781422 L18.9310979,19.7781422 C20.5314587,19.7781422 21.1559898,17.6378222 21.3901889,16.2902133 C20.3362928,15.2200533 19.7117617,13.7535378 19.3994962,11.6924889 C18.9701311,11.77176 18.5017328,11.77176 18.0723677,11.6924889 C17.6430026,14.2291644 17.0575047,15.7353156 16.1207081,16.6469333 C16.3549072,17.3603733 17.2136374,19.7385067 18.9310979,19.7781422 Z" id="Path"></path>
            <path d="M19.7117617,21.2446578 C19.3214298,21.3239289 18.9310979,21.3239289 18.540766,21.2446578 C18.4626996,22.6319022 18.2285004,24.0984178 17.4088034,24.9704 C18.1114009,27.0314489 19.5556289,27.1503556 20.375326,27.0314489 C21.1169566,26.9125422 21.4682553,26.3576444 21.7414877,24.9307644 C20.5314587,24.0191467 20.0240272,22.4337244 19.7117617,21.2446578 Z" id="Path"></path>
            <path d="M23.5760477,6.69840889 L23.5760477,6.69840889 C25.2544749,6.69840889 25.7619064,4.71663111 25.9180391,3.40865778 C25.3325413,3.09157333 25.0593089,2.37813333 24.7470434,1.70432889 C24.4347779,0.990888889 24.1615455,0.317084444 23.6150809,0.317084444 C23.0686162,0.277448889 22.8734502,0.71344 22.6002179,1.50615111 C22.4050519,2.29886222 21.9756868,2.97266667 21.3121226,3.40865778 C21.4682553,4.51845333 21.8585872,6.69840889 23.5760477,6.69840889 Z" id="Path"></path>
            <path d="M23.5760477,15.5371378 C24.9031762,15.5371378 25.879006,13.8724444 26.2693379,11.0979556 C25.4106077,10.3052444 24.7470434,9.27472 24.4347779,8.12528889 C23.8883132,8.28383111 23.3418485,8.28383111 22.7953838,8.12528889 C22.4831183,9.27472 21.8585872,10.3052444 20.999857,11.05832 C21.1169566,12.2077511 22.01472,15.5371378 23.5760477,15.5371378 Z" id="Path"></path>
            <path d="M24.4347779,17.0829244 C23.8883132,17.2018311 23.3028153,17.2018311 22.7563506,17.0432889 C22.4050519,18.6683467 21.8585872,19.8177778 21.0388902,20.5312178 C21.2340562,21.4032 22.01472,24.0984178 23.5760477,24.0984178 L23.5760477,24.0984178 C24.5909106,24.0984178 25.8009396,22.7904444 26.2303047,20.6104889 C25.4496409,19.97632 24.864143,18.8665244 24.4347779,17.0829244 Z" id="Path"></path>
            <path d="M28.6503626,10.2259733 C29.8213583,10.1467022 30.4849226,8.75945778 30.7191217,7.45148444 C29.5871591,6.53986667 28.9235949,5.03371556 28.4551966,3.72574222 C28.0648647,3.76537778 27.6745328,3.80501333 27.2842009,3.72574222 C27.0500017,5.58861333 26.3864374,6.61913778 25.8399728,7.21367111 C26.1912715,8.56128 26.7767694,10.34488 28.6503626,10.2259733 Z" id="Path"></path>
            <path d="M28.2600306,19.7781422 L28.2600306,19.7781422 C30.0165243,19.7385067 30.8752545,17.3603733 31.0704204,16.6469333 C30.1336238,15.7749511 29.548126,14.2688 29.1187609,11.6924889 C28.6893957,11.77176 28.2209974,11.77176 27.7916323,11.6924889 C27.4403336,13.7535378 26.8158026,15.1804178 25.8009396,16.2902133 C26.0741719,17.6378222 26.698703,19.7781422 28.2600306,19.7781422 Z" id="Path"></path>
            <path d="M27.5184,21.2446578 C27.2061345,22.4337244 26.698703,24.0191467 25.5277072,24.9704 C25.7619064,26.39728 26.1522383,26.9521778 26.8938689,27.0710844 C27.713566,27.1899911 29.1187609,27.0710844 29.8603915,25.0100356 C29.0406945,24.1380533 28.8455285,22.6715378 28.7284289,21.2842933 C28.338097,21.3239289 27.9087319,21.3239289 27.5184,21.2446578 Z" id="Path"></path>
            <path d="M32.8659472,6.65877333 C33.1782128,6.61913778 33.4904783,6.46059556 33.6466111,6.18314667 C34.0759762,5.62824889 34.1930757,4.51845333 33.9979098,3.32938667 C33.3343455,2.85376 32.7878809,2.25922667 32.3194826,1.58542222 C31.8901174,1.03052444 31.3436528,0.277448889 31.0313872,0.277448889 C30.6410553,0.317084444 30.5629889,0.515262222 30.5239557,0.832346667 L30.5239557,0.871982222 C30.4849226,1.58542222 30.367823,2.57631111 29.7823251,3.17084444 C30.4458894,4.95444444 31.3436528,6.85695111 32.8659472,6.65877333 Z" id="Path"></path>
            <path d="M33.1782128,15.8542222 C34.3882417,15.8145867 35.3640715,13.0797333 35.5202043,11.1375911 C34.8176068,10.6619644 33.9198434,9.27472 33.5685447,8.08565333 C33.1001464,8.24419556 32.5927149,8.24419556 32.0852834,8.12528889 C31.9291506,9.27472 31.382686,10.3052444 30.5629889,11.05832 C30.9142877,13.5949956 31.5388187,15.8938578 33.1782128,15.8542222 Z" id="Path"></path>
            <path d="M33.841777,17.3207378 C33.3733787,17.4396444 32.8659472,17.47928 32.3975489,17.3603733 C31.8901174,18.9457956 31.2265532,20.0555911 30.3287898,20.68976 C30.367823,21.6806489 30.4458894,23.2660711 31.1484868,23.8209689 C31.4217191,24.0191467 31.8120511,24.0984178 32.1243166,23.9795111 C33.4514451,23.7020622 34.7005072,21.4032 35.051806,20.5708533 C34.4663081,19.9366844 34.1150094,18.90616 33.841777,17.3207378 Z" id="Path"></path>
            <path d="M37.1595983,10.2259733 L37.1595983,10.2259733 C38.2915609,10.1863378 38.4867268,8.00638222 38.4867268,7.45148444 C37.4718638,6.57950222 36.6521668,5.03371556 35.9495694,3.72574222 C35.7544034,3.76537778 35.5982706,3.76537778 35.4031047,3.76537778 C35.5982706,5.50934222 35.1689055,6.53986667 34.7395404,7.17403556 C35.5592374,9.23508444 36.3399013,10.2259733 37.1595983,10.2259733 Z" id="Path"></path>
            <path d="M37.5889634,11.6924889 C37.3547643,11.7321244 37.1205651,11.7321244 36.886366,11.6924889 C36.6521668,14.3877067 35.871503,15.7749511 35.1689055,16.4883911 C35.4421379,18.5098044 36.0276357,19.7385067 36.7302332,19.7385067 C36.7302332,19.7385067 36.7692664,19.7385067 36.7692664,19.7385067 C38.0183285,19.6592356 38.9160919,17.4000089 39.1893243,16.5676622 C38.4476936,15.6560444 38.0573617,14.1102578 37.5889634,11.6924889 Z" id="Path"></path>
            <path d="M37.0034655,21.2842933 C36.7692664,21.3239289 36.5350672,21.2842933 36.3399013,21.2446578 C35.7153702,23.0282578 34.8956732,24.2965956 33.841777,25.0100356 C33.6856443,26.04056 33.8027438,26.8332711 34.036943,26.9125422 C35.3640715,27.3881689 36.6131336,25.8820178 37.2766979,24.8118578 C36.886366,24.0984178 36.886366,22.9886222 37.0034655,21.2842933 Z" id="Path"></path>
            <path d="M37.2766979,3.13120889 L37.3157311,3.21048 C38.0573617,4.59772444 39.2673906,6.93622222 40.36032,6.73804444 C40.5164528,6.73804444 40.6335523,6.61913778 40.7116187,6.50023111 C41.0629174,5.86606222 40.7116187,4.35991111 40.3993532,3.44829333 C39.7748221,3.01230222 39.2283574,2.49704 38.720926,1.90250667 C38.2915609,1.38724444 37.7841294,0.951253333 37.2766979,0.554897778 C37.2376647,0.554897778 37.1986315,0.554897778 37.1595983,0.554897778 C37.0815319,0.594533333 37.1986315,0.871982222 37.1986315,0.951253333 C37.4328306,1.70432889 37.6279966,2.53667556 37.2766979,3.13120889 Z" id="Path"></path>
            <path d="M39.8919217,8.16492444 C39.8919217,9.19544889 39.540623,10.1863378 38.8770587,11.0186844 C39.1112579,12.3662933 39.7748221,15.8542222 40.8677515,15.8542222 L40.8677515,15.8542222 C41.6874485,15.8542222 42.390046,13.7535378 42.5071455,11.1375911 C41.6484153,10.5430578 41.0238843,8.83872889 40.7896851,8.12528889 C40.5164528,8.20456 40.2041872,8.20456 39.8919217,8.16492444 Z" id="Path"></path>
            <path d="M41.9606809,20.4519467 C41.5703489,19.7781422 41.4142162,18.7476178 41.3361498,17.3603733 C41.0238843,17.4396444 40.7506519,17.4396444 40.4383864,17.3603733 C40.1261209,18.6287111 39.4235234,19.8177778 38.4476936,20.68976 C38.1354281,23.3057067 38.52576,23.9795111 38.6428596,24.1380533 C38.720926,24.25696 38.7599591,24.2173244 38.7989923,24.2173244 C39.7357889,24.2173244 41.375183,21.9580978 41.9606809,20.4519467 Z" id="Path"></path>
            <path d="M46.878863,10.8601422 C46.7617634,10.34488 46.5665974,9.82961778 46.3714315,9.31435556 C46.2933651,9.07654222 46.1762655,8.83872889 46.0981991,8.60091556 C46.059166,8.52164444 46.0201328,8.40273778 45.9810996,8.32346667 C45.9420664,8.20456 45.8249668,8.12528889 45.7469004,8.12528889 C45.668834,8.12528889 45.668834,8.24419556 45.668834,8.28383111 C45.668834,8.32346667 45.668834,8.36310222 45.668834,8.40273778 C45.668834,8.48200889 45.668834,8.56128 45.668834,8.64055111 C45.668834,8.79909333 45.668834,8.918 45.668834,9.07654222 C45.668834,9.23508444 45.668834,9.35399111 45.6298009,9.51253333 C45.6298009,9.67107556 45.5907677,9.78998222 45.5517345,9.94852444 C45.5127013,10.1070667 45.4736681,10.2259733 45.4346349,10.3845156 C45.3956017,10.5430578 45.3175353,10.6619644 45.2785021,10.7808711 C45.2785021,10.8205067 45.2394689,10.8205067 45.2394689,10.8601422 L45.2394689,10.8997778 C45.2394689,10.8997778 45.2004357,10.9394133 45.2394689,10.9394133 C45.5517345,13.0797333 46.059166,15.5371378 46.4104647,15.8938578 C46.4494979,15.8938578 46.4494979,15.8542222 46.4885311,15.8145867 C46.7617634,15.3785956 46.9178962,14.8633333 46.9569294,14.3480711 C47.0349957,13.7535378 47.1130621,13.1590044 47.1130621,12.5248356 C47.0740289,11.9699378 46.9959626,11.41504 46.878863,10.8601422 Z" id="Path"></path>
        </g>
    </g>
</svg>