<?xml version="1.0" encoding="UTF-8"?>
<svg width="64px" height="64px" viewBox="0 0 64 64" version="1.1" xmlns="http://www.w3.org/2000/svg" xmlns:xlink="http://www.w3.org/1999/xlink">
    <!-- Generator: Sketch 55.2 (78181) - https://sketchapp.com -->
    <title>icon</title>
    <desc>Created with Sketch.</desc>
    <g id="icon" stroke="none" stroke-width="1" fill="none" fill-rule="evenodd">
        <g id="keystore-file" transform="translate(9.000000, 4.000000)" fill-rule="nonzero">
            <path d="M4.81690141,0 L35.3973301,0 L35.3973301,0 L46.4009189,11.0992639 L46.4009189,50.6794181 C46.4009189,53.3397193 44.2443187,55.4963195 41.5840175,55.4963195 L4.81690141,55.4963195 C2.15660022,55.4963195 0,53.3397193 0,50.6794181 L0,4.81690141 C0,2.15660022 2.15660022,0 4.81690141,0 Z" id="Rectangle" fill="#CDF4EE"></path>
            <path d="M35.3530813,4.54747351e-13 L46.4009191,11.0992639 L46.4009191,2.15886425 C46.0473209,0.719621417 45.1531177,4.54747351e-13 43.7183096,4.54747351e-13 C42.2835015,4.54747351e-13 39.4950922,4.54747351e-13 35.3530813,4.54747351e-13 Z" id="Path-2" fill="#05C0A5" transform="translate(40.877000, 5.549632) rotate(180.000000) translate(-40.877000, -5.549632) "></path>
            <g id="Group-12" transform="translate(13.000000, 24.000000)">
                <path d="M5.70654038,0.58726264 C5.88524379,0.58726264 6.05834143,0.642851713 6.2068948,0.747909192 C6.47559385,0.937314495 6.63611633,1.26137448 6.63611633,1.6143609 L6.63611633,1.6143609 L6.63611633,1.64110737 C6.63611633,2.03936996 6.42514176,2.40518463 6.09856674,2.57320952 L6.09856674,2.57320952 L3.10969712,4.11041926 L6.09856674,5.64746131 C6.42514176,5.81531851 6.63611633,6.18121702 6.63611633,6.57964731 L6.63611633,6.57964731 L6.63611633,6.60664532 C6.63611633,6.95912867 6.47559385,7.28302096 6.2068948,7.47309702 C6.05682635,7.5787414 5.88418324,7.63441432 5.70707066,7.63441432 C5.57109243,7.63441432 5.43958368,7.60230178 5.31602909,7.538999 L5.31602909,7.538999 L0.537170856,5.07932925 C0.210595848,4.91063361 -7.57130914e-05,4.54481893 -3.90446673e-11,4.14731095 L-3.90446673e-11,4.14731095 L-3.90446673e-11,4.0737791 C-3.90446673e-11,3.6756842 0.210823109,3.30970184 0.537095103,3.14167696 L0.537095103,3.14167696 L5.31565032,0.682258748 C5.43662928,0.62004594 5.57177421,0.58726264 5.70654038,0.58726264 Z M15.1406826,0.58726264 C15.2754457,0.58726264 15.410436,0.62004594 15.5309577,0.682091059 L15.5309577,0.682091059 L20.3094039,3.14150926 C20.6359714,3.30953415 20.8467897,3.67551651 20.8467897,4.07361141 L20.8467897,4.07361141 L20.8467897,4.14714326 C20.8467897,4.54481893 20.6359714,4.91063361 20.3097068,5.07907772 L20.3097068,5.07907772 L15.5312607,7.53866361 C15.4068757,7.60230178 15.2754457,7.63441432 15.139622,7.63441432 C14.9622862,7.63441432 14.7895713,7.57857372 14.6400365,7.47309702 C14.3710406,7.28293711 14.2106733,6.95904482 14.2106733,6.60647762 L14.2106733,6.60647762 L14.2106733,6.57947961 C14.2106733,6.18121702 14.4216431,5.81531851 14.7481349,5.64729363 L14.7481349,5.64729363 L17.7369363,4.11041926 L14.7481349,2.57362874 C14.4214916,2.4047654 14.2106733,2.03886689 14.2106733,1.64102352 L14.2109006,1.64093968 L14.2109006,1.61427705 C14.2109006,1.26129063 14.3714194,0.937314495 14.6404153,0.747573812 C14.7889653,0.642684024 14.9622862,0.58726264 15.1406826,0.58726264 Z" id="Combined-Shape" fill="#00C0A5"></path>
                <path d="M8.62268078,7.83196754 C8.79520083,8.07594272 9.07268751,8.22167695 9.36494441,8.22167695 L9.38863691,8.22167695 C9.78990912,8.22167695 10.1414722,7.95624068 10.2637582,7.56180515 L12.0220037,1.2398648 C12.1113753,0.951960187 12.061816,0.634149436 11.889221,0.389709427 C11.7167009,0.145656804 11.4392143,-1.24344979e-14 11.1468823,-1.24344979e-14 L11.1232649,-1.24344979e-14 C10.7218427,-1.24344979e-14 10.3699048,0.265358805 10.2476187,0.659794331 L8.48907334,6.98250945 C8.40037661,7.27080146 8.45031069,7.58814734 8.62268078,7.83196754 Z" id="Path" fill="#5A78F0"></path>
            </g>
        </g>
    </g>
</svg>