<?xml version="1.0" encoding="UTF-8"?>
<svg width="52px" height="52px" viewBox="0 0 52 52" version="1.1" xmlns="http://www.w3.org/2000/svg" xmlns:xlink="http://www.w3.org/1999/xlink">
    <!-- Generator: Sketch 57.1 (83088) - https://sketch.com -->
    <title>Artboard</title>
    <desc>Created with Sketch.</desc>
    <g id="Artboard" stroke="none" stroke-width="1" fill="none" fill-rule="evenodd">
        <path d="M26,20 L26,27 L26,20 Z" id="Rectangle" fill="#000000"></path>
        <g id="ledger-copy" transform="translate(6.000000, 6.000000)" fill="#002747" fill-rule="nonzero">
            <g id="ledger" transform="translate(0.000000, 0.000000)">
                <path d="M33.6762481,0 L15.2193646,0 L15.2193646,24.6896205 L39.989941,24.6896205 L39.989941,6.42372455 C40,2.95551646 37.1558245,0 33.6762481,0 Z M9.55118507,0 L6.45486636,0 C2.97528996,0 0,2.82483036 0,6.43377733 L0,9.51997989 L9.55118507,9.51997989 L9.55118507,0 Z M0,15.3003267 L9.55118507,15.3003267 L9.55118507,24.8203066 L0,24.8203066 L0,15.3003267 Z M30.4488149,39.9899472 L33.5451336,39.9899472 C37.02471,39.9899472 40,37.1651169 40,33.5561699 L40,30.4800201 L30.4488149,30.4800201 L30.4488149,39.9899472 Z M15.2193646,30.4800201 L24.7705497,30.4800201 L24.7705497,40 L15.2193646,40 L15.2193646,30.4800201 Z M0,30.4800201 L0,33.5662227 C0,37.0344308 2.83408976,40 6.45486636,40 L9.55118507,40 L9.55118507,30.4800201 L0,30.4800201 Z" id="Shape"></path>
            </g>
        </g>
    </g>
</svg>