<?xml version="1.0" encoding="UTF-8"?>
<svg width="64px" height="64px" viewBox="0 0 64 64" version="1.1" xmlns="http://www.w3.org/2000/svg" xmlns:xlink="http://www.w3.org/1999/xlink">
    <!-- Generator: Sketch 55.2 (78181) - https://sketchapp.com -->
    <title>chrome</title>
    <desc>Created with Sketch.</desc>
    <g id="chrome" stroke="none" stroke-width="1" fill="none" fill-rule="evenodd">
        <g id="lock" transform="translate(7.000000, 3.000000)" fill-rule="nonzero">
            <path d="M49.3498329,15.7363586 L49.3480622,15.6916656 C49.3228307,15.1345519 49.3060096,14.544693 49.2958285,13.8889008 C49.2484639,10.690918 46.7053872,8.04562384 43.505847,7.86729434 C36.8349738,7.49470517 31.6744537,5.32023623 27.265126,1.02439883 L27.2275,0.988555852 C25.7888579,-0.329666109 23.6193855,-0.329223633 22.1816286,0.988113375 L22.1435599,1.02439883 C17.7342323,5.32023623 12.573712,7.49470517 5.90283895,7.86729434 C2.70329873,8.04562384 0.160221921,10.690918 0.112857478,13.8893433 C0.103118921,14.5411529 0.0858551861,15.1305694 0.0606236439,15.6916656 L0.0579677457,15.7965393 C-0.0717313521,22.5965118 -0.23285939,31.0589752 2.5992738,38.74086 C4.15654869,42.9650116 6.51459381,46.6369171 9.60833847,49.6548004 C13.1323479,53.0921783 17.747512,55.821106 23.3267877,57.7659149 C23.508278,57.8291932 23.6964081,57.8805236 23.8880795,57.9185791 C24.1589869,57.9730072 24.4316649,58 24.7043429,58 C24.977021,58 25.2501416,57.9730072 25.5206064,57.9185791 C25.7122779,57.8805236 25.9017359,57.8287506 26.0849968,57.7650299 C31.6567473,55.8171234 36.2670421,53.0868683 39.7875103,49.6499328 C42.879927,46.6307221 45.2384148,42.9574891 46.7970177,38.7328949 C49.6397746,31.0279999 49.4790893,22.5491639 49.3498329,15.7363586 Z" id="Shape" fill="#CDF4EE"></path>
            <path d="M29.2446976,30.8753357 L29.2048584,36.4203644 C29.2008745,38.9116669 27.1726103,40.9370117 24.6799966,40.9370117 C22.1851699,40.9370117 20.1555777,38.9081269 20.1555777,36.4141693 L20.1555777,36.4017792 L20.1949744,30.900116 C18.1994669,29.4637451 16.9972048,27.1543121 16.9972048,24.6506195 C16.9972048,20.4030151 20.45393,16.9470519 24.7034577,16.9470519 C28.9525427,16.9470519 32.4097105,20.4030151 32.4097105,24.6506195 C32.4097105,27.1366119 31.2194001,29.4367523 29.2446976,30.8753357 Z" id="Path" fill="#5A78F0"></path>
            <path d="M26.7257373,28.5038735 C28.1285824,27.7528238 29,26.2980799 29,24.7079082 C29,22.3365915 27.0728011,20.4074074 24.7039248,20.4074074 C22.3346064,20.4074074 20.4074074,22.3365915 20.4074074,24.7079082 C20.4074074,26.3091443 21.2876674,27.7687565 22.7051026,28.5162656 C23.3214171,28.8415582 23.6552173,29.4921433 23.6079105,30.1458265 L23.5619301,36.4777463 C23.5645829,37.0929255 24.0655042,37.5925926 24.6804924,37.5925926 C25.2972491,37.5925926 25.7990548,37.09027 25.7990548,36.4728779 L25.7990548,36.4609285 L25.8441509,30.2303583 C25.7526323,29.5470226 26.0828956,28.8481968 26.7257373,28.5038735 Z" id="Path" fill="#FFFFFF"></path>
        </g>
    </g>
</svg>