<?xml version="1.0" encoding="UTF-8"?>
<svg width="64px" height="64px" viewBox="0 0 64 64" version="1.1" xmlns="http://www.w3.org/2000/svg" xmlns:xlink="http://www.w3.org/1999/xlink">
    <!-- Generator: Sketch 55.2 (78181) - https://sketchapp.com -->
    <title>icon\</title>
    <desc>Created with Sketch.</desc>
    <g id="icon\" stroke="none" stroke-width="1" fill="none" fill-rule="evenodd">
        <g id="message" transform="translate(4.000000, 8.000000)" fill-rule="nonzero">
            <path d="M27.7091326,14.6461538 L5.89086747,14.6461538 C2.64259602,14.6461538 0,17.329945 0,20.6287358 L0,34.2956057 C0,37.5943964 2.64259602,40.2780918 5.89086747,40.2780918 L19.7879422,40.2781876 L26.4404753,47.0340896 C26.6659306,47.263147 26.967166,47.3846154 27.2738681,47.3846154 C27.4256169,47.3846154 27.5786851,47.3547508 27.7244017,47.2933944 C28.1646615,47.1082724 28.4517588,46.672173 28.4517588,46.1881182 L28.4517588,40.2308063 C31.350914,39.8589349 33.6,37.3390161 33.6,34.2956057 L33.6,20.6287358 C33.6,17.329945 30.9574039,14.6461538 27.7091326,14.6461538 Z" id="Shape-Copy" fill="#5A78F0" transform="translate(16.800000, 31.015385) scale(-1, 1) translate(-16.800000, -31.015385) "></path>
            <path d="M47.6923664,0 L16.9230182,0 C12.3421226,0 8.61538462,3.67255632 8.61538462,8.18669099 L8.61538462,26.8887236 C8.61538462,31.4028583 12.3421226,35.0752836 16.9230182,35.0752836 L36.521457,35.0754146 L45.9032344,44.320333 C46.2211842,44.6337801 46.6460033,44.8 47.078532,44.8 C47.2925366,44.8 47.5084022,44.7591327 47.7138998,44.6751713 C48.3347791,44.4218464 48.7396599,43.8250789 48.7396599,43.162688 L48.7396599,35.010577 C52.828212,34.5017005 56,31.0533904 56,26.8887236 L56,8.18669099 C56,3.67255632 52.273262,0 47.6923664,0 Z" id="Shape" fill="#CDF4EE"></path>
            <path d="M33.9772501,12.9230769 L34.0109779,12.9230769 C34.428452,12.9230769 34.8247259,13.1367615 35.0710988,13.4947967 C35.2901922,13.8135554 35.3704565,14.2173613 35.2959497,14.5998032 L35.2607235,14.7420096 L32.7498035,24.0165563 C32.5876429,24.5538771 32.1431603,24.9280204 31.6216742,24.9787281 L31.5000579,24.9846154 L31.466223,24.9846154 C31.048856,24.9846154 30.6525822,24.7708172 30.4062092,24.4128956 C30.1874014,24.0949452 30.1067457,23.6917679 30.1804854,23.3090566 L30.2154067,23.1667056 L32.726755,13.8910224 C32.8889157,13.3537016 33.3338598,12.9796562 33.8555832,12.9289626 L33.9772501,12.9230769 L34.0109779,12.9230769 L33.9772501,12.9230769 Z M26.2417194,13.7846154 C26.4969227,13.7846154 26.7441204,13.8661668 26.9562669,14.0202905 C27.3051074,14.2728954 27.5262741,14.6887597 27.5636033,15.1513489 L27.5692308,15.2914108 L27.5692308,15.330649 C27.5692308,15.8699729 27.312511,16.3687362 26.9061982,16.6361562 L26.8015655,16.6980812 L22.5332124,18.9532311 L26.8015655,21.2081351 C27.2320666,21.4354459 27.5219017,21.910313 27.5639445,22.4417602 L27.5692308,22.5756903 L27.5692308,22.6152975 C27.5692308,23.132405 27.3399914,23.6075684 26.9562669,23.8864178 C26.7419567,24.0414025 26.4954081,24.1230769 26.2424767,24.1230769 C26.0871262,24.1230769 25.9358606,24.0929263 25.791228,24.0333177 L25.6840369,23.9830987 L18.859432,20.374662 C18.428931,20.1462157 18.1394645,19.6713661 18.0975637,19.1409925 L18.0923077,19.0073528 L18.0923077,18.8994785 C18.0923077,18.3603817 18.3488431,17.8614262 18.7547872,17.5939753 L18.8593239,17.5320463 L25.6834961,13.9239786 C25.856264,13.8327098 26.0492621,13.7846154 26.2417194,13.7846154 Z M39.2358224,13.7846154 C39.4282753,13.7846154 39.6210526,13.8327098 39.7931676,13.9237326 L39.7931676,13.9237326 L46.617184,17.5318003 C47.0835495,17.7782998 47.3846154,18.3152109 47.3846154,18.8992325 L47.3846154,18.8992325 L47.3846154,19.0071067 C47.3846154,19.5905133 47.0835495,20.1271785 46.6176167,20.374293 L46.6176167,20.374293 L39.7936003,23.9826067 C39.6159682,24.0759665 39.4282753,24.1230769 39.2343079,24.1230769 C38.9810577,24.1230769 38.7344065,24.0411564 38.5208585,23.8864178 C38.1367101,23.6074454 37.9076923,23.1322821 37.9076923,22.6150515 L37.9076923,22.6150515 L37.9076923,22.5754443 C37.9076923,21.9911767 38.2089745,21.4543885 38.6752318,21.2078891 L38.6752318,21.2078891 L42.9434876,18.9532311 L38.6752318,16.6986962 C38.2087582,16.4509667 37.9076923,15.9141786 37.9076923,15.330526 L37.9080168,15.3304029 L37.9080168,15.2912878 C37.9080168,14.7734422 38.137251,14.2981559 38.5213994,14.0197985 C38.7335411,13.8659208 38.9810577,13.7846154 39.2358224,13.7846154 Z" id="Combined-Shape" fill="#00C0A5"></path>
        </g>
    </g>
</svg>