<?xml version="1.0" encoding="UTF-8"?>
<svg width="64px" height="64px" viewBox="0 0 64 64" version="1.1" xmlns="http://www.w3.org/2000/svg" xmlns:xlink="http://www.w3.org/1999/xlink">
    <!-- Generator: Sketch 55.2 (78181) - https://sketchapp.com -->
    <title>icon\</title>
    <desc>Created with Sketch.</desc>
    <g id="icon\" stroke="none" stroke-width="1" fill="none" fill-rule="evenodd">
        <g id="paper-plane" transform="translate(4.000000, 3.000000)">
            <g transform="translate(2.806452, 0.000000)" fill-rule="nonzero" id="Path">
                <path d="M17.1034693,32.0737327 L17.1034693,40.400254 C17.1034693,41.1014823 17.5064341,41.7303258 18.1193647,41.9814108 C18.306001,42.0583197 18.5011208,42.0967742 18.6941197,42.0967742 C19.1331393,42.0967742 19.5636753,41.9022399 19.8712011,41.5403156 L25.1521607,35.3400997 L17.1034693,32.0737327 Z" fill="#5D7BEF"></path>
                <path d="M51.0514028,0.111110507 L1.0620057,19.1991836 C0.419919663,19.4435109 -0.00221302316,20.0521478 -8.6595499e-06,20.7305924 C0.0022304788,21.4090371 0.428806667,22.0133109 1.07311445,22.2532753 L14.8546358,27.3994198 L44.803839,8.54476657 L20.0979681,29.35622 L40.5091944,36.9783602 C40.7002649,37.0481681 40.9024443,37.0852535 41.1024019,37.0852535 C41.3534597,37.0852535 41.6045176,37.0307161 41.8355797,36.9194599 C42.2510471,36.7187625 42.5620923,36.3609974 42.6976191,35.9290616 L53.2509362,2.11590355 C53.4353416,1.51599269 53.2576015,0.86372596 52.788812,0.436153123 C52.3222443,0.0107617798 51.646832,-0.115764876 51.0514028,0.111110507 Z" fill="#CDF4EE"></path>
            </g>
            <path d="M19.6451613,58 C19.0085833,51.9193548 11.0511362,48.8023875 10.7159401,53.0394199 C10.380744,57.2764524 21.6028414,54.7572795 19.0085833,49.8393852 C16.4143252,44.921491 4.5187978,44.1044323 0,49.8393852" id="Path-2" stroke="#05C0A5" stroke-width="2" stroke-linecap="round" transform="translate(9.822581, 51.919355) scale(1, -1) translate(-9.822581, -51.919355) "></path>
        </g>
    </g>
</svg>