<?xml version="1.0" encoding="UTF-8"?>
<svg width="64px" height="64px" viewBox="0 0 64 64" version="1.1" xmlns="http://www.w3.org/2000/svg" xmlns:xlink="http://www.w3.org/1999/xlink">
    <!-- Generator: Sketch 55.2 (78181) - https://sketchapp.com -->
    <title>chrome</title>
    <desc>Created with Sketch.</desc>
    <g id="chrome" stroke="none" stroke-width="1" fill="none" fill-rule="evenodd">
        <g id="customer-service" transform="translate(4.000000, 4.000000)" fill-rule="nonzero">
            <path d="M6.54603674,32.0189959 C1.18831326,23.3125521 3.8995865,11.9086292 12.6031319,6.54788508 C21.3066774,1.18714092 32.7069461,3.89917458 38.0660812,12.6056183 C39.9101161,15.6007053 40.8619391,19.0600172 40.811666,22.5774388 C40.4811447,32.8137393 32.0393887,40.9118247 21.8023506,40.8126582 L4.72187213,40.8126582 L6.51965151,37.7580496 C7.59037098,35.9966235 7.59970897,33.7895458 6.54603674,32.0189959 Z" id="Shape" stroke="#003945" fill="#CDF4EE"></path>
            <path d="M51.410293,45.4922179 C56.6590213,36.9660503 53.9963976,25.8027373 45.4632101,20.5583271 C43.3033337,19.2313537 40.8895296,18.3704534 38.3758997,18.0338983 C38.5028636,18.9220208 38.5624611,19.8165235 38.5572463,20.7136846 C38.2332915,30.7351563 29.9592465,38.6632874 19.925586,38.5662021 L18.0338983,38.5662021 C19.513512,47.5688636 27.3276987,54.1583244 36.4582446,54.101328 L53.1982172,54.101328 L51.436154,51.1108264 C50.3879834,49.3863673 50.3776604,47.2257156 51.410293,45.4922179 Z" id="Shape" fill="#05C0A5"></path>
            <g id="Group">
                <path d="M53.0945756,51.0128872 C52.2946353,49.6883713 52.2946353,48.0310382 53.0945756,46.7065222 C58.7580416,37.4986872 55.8858453,25.4422372 46.6781175,19.7787713 C44.6424125,18.5259638 42.3939404,17.6568875 40.0450335,17.2145247 C39.2881825,13.1117087 37.2394006,9.35735937 34.1988128,6.5008125 C30.1808893,2.65642562 24.7065022,0.722441562 19.1656588,1.18967188 C8.38806281,2.03398782 0.336459375,11.4544828 1.18077531,22.2320788 C1.42484125,25.3548794 2.41525375,28.3731722 4.06862093,31.0339947 C4.86856125,32.3585107 4.86856125,34.0158438 4.06862093,35.3403596 L2.25468687,38.3678707 C1.88671218,38.9877359 2.0915475,39.7889625 2.71141281,40.1556509 C2.91238937,40.2744147 3.14209218,40.3382984 3.37694,40.3382984 L17.2616872,40.3382984 C19.3104691,49.5003644 27.4481441,56.0095396 36.8360541,55.997781 L53.7483122,55.997781 C54.4686122,55.997781 55.05332,55.4131485 55.05332,54.6927412 C55.05332,54.4591796 54.9907225,54.2281907 54.8706725,54.0272141 L53.0945756,51.0128872 Z M36.8870753,53.3885216 C28.9124325,53.4336097 21.9244507,48.0584782 19.9226169,40.3384056 L20.2358188,40.3384056 C31.0539315,40.4284431 39.9667865,31.865341 40.306035,21.0510869 C40.306035,20.6726078 40.306035,20.2942359 40.306035,19.9157569 C49.4276913,22.0571487 55.0860122,31.1866297 52.9445131,40.3082859 C52.5281969,42.0804169 51.8300847,43.7729075 50.8761159,45.3232675 C49.5737878,47.4777362 49.5737878,50.1763959 50.8761159,52.3308647 L51.5025196,53.3878406 L36.8870753,53.3878406 L36.8870753,53.3885216 Z" id="Shape" stroke="#05C0A5" fill="#05C0A5"></path>
                <path d="M1.3304915,39.8599879 C2.13923532,38.5468266 4.66689872,34.219303 3.07636054,31.5874969 C-2.92095023,21.8396013 0.118352238,9.07573436 9.8625259,3.07731138 C19.6066995,-2.9211116 32.3694922,0.117118709 38.3668029,9.8648834 C40.4291353,13.2156571 41.4936831,17.084412 41.4379161,21.0186348 C41.0569724,32.4896433 31.5884921,41.5583758 20.1135772,41.4388316 L2.31133131,41.4388316 C1.09558933,41.2985457 0.76864273,40.7722644 1.3304915,39.8599879 Z" id="Path" stroke="#CDF4EE" fill="#CDF4EE"></path>
            </g>
            <circle id="Oval-6" fill="#5A78F0" cx="11.8644068" cy="21.3559322" r="2.37288136"></circle>
            <circle id="Oval-6" fill="#5A78F0" cx="21.3559322" cy="21.3559322" r="2.37288136"></circle>
            <circle id="Oval-6" fill="#5A78F0" cx="29.8983051" cy="21.3559322" r="2.37288136"></circle>
        </g>
    </g>
</svg>