<?xml version="1.0" encoding="utf-8"?>
<!-- Generator: Adobe Illustrator 23.0.1, SVG Export Plug-In . SVG Version: 6.00 Build 0)  -->
<svg version="1.1" id="Layer_1" xmlns="http://www.w3.org/2000/svg" xmlns:xlink="http://www.w3.org/1999/xlink" x="0px" y="0px"
	 viewBox="0 0 60 60" style="enable-background:new 0 0 60 60;" xml:space="preserve">
<style type="text/css">
	.st0{fill:#FFFFFF;}
	.st1{fill:none;stroke:#C3F0E9;}
	.st2{fill:#EFEFEF;}
	.st3{fill:#5A78F0;}
	.st4{fill:#07EFC8;}
	.st5{fill:#05C0A5;}
	.st6{fill:#7BA1FF;}
	.st7{fill:#DDDDDD;}
</style>
<path class="st0" d="M10,0.5h40c5.2,0,9.5,4.3,9.5,9.5v40c0,5.2-4.3,9.5-9.5,9.5H10c-5.2,0-9.5-4.3-9.5-9.5V10
	C0.5,4.8,4.8,0.5,10,0.5z"/>
<path class="st1" d="M10,0.5h40c5.2,0,9.5,4.3,9.5,9.5v40c0,5.2-4.3,9.5-9.5,9.5H10c-5.2,0-9.5-4.3-9.5-9.5V10
	C0.5,4.8,4.8,0.5,10,0.5z"/>
<polygon class="st2" points="30,10.2 13.7,41.3 30,49.8 46.3,41.4 "/>
<polygon class="st3" points="30,33.4 13.7,41.3 30,49.8 46.3,41.4 "/>
<polygon class="st4" points="30,33.4 20.4,28.6 13.7,41.3 "/>
<polygon class="st5" points="39.7,28.7 30,33.4 46.3,41.4 "/>
<polygon class="st6" points="30,49.8 30,33.4 13.7,41.3 "/>
<polygon class="st7" points="30,10.2 30,33.4 39.7,28.7 "/>
</svg>
