<svg width="60" height="60" viewBox="0 0 60 60" fill="none" xmlns="http://www.w3.org/2000/svg">
<rect width="60" height="60" rx="12" fill="#CDF4EE"/>
<path d="M35.0679 20.5V19.492C35.5559 19.036 35.9999 18.612 36.3999 18.22C36.8079 17.82 37.1559 17.448 37.4439 17.104C37.7399 16.752 37.9679 16.428 38.1279 16.132C38.2959 15.828 38.3799 15.54 38.3799 15.268C38.3799 14.892 38.2839 14.608 38.0919 14.416C37.8999 14.216 37.6359 14.116 37.2999 14.116C37.0199 14.116 36.7719 14.196 36.5559 14.356C36.3399 14.508 36.1359 14.688 35.9439 14.896L34.9839 13.948C35.3599 13.548 35.7439 13.248 36.1359 13.048C36.5279 12.84 36.9959 12.736 37.5399 12.736C37.9159 12.736 38.2559 12.796 38.5599 12.916C38.8719 13.028 39.1399 13.192 39.3639 13.408C39.5879 13.616 39.7599 13.868 39.8799 14.164C39.9999 14.46 40.0599 14.792 40.0599 15.16C40.0599 15.48 39.9919 15.808 39.8559 16.144C39.7199 16.472 39.5359 16.804 39.3039 17.14C39.0799 17.468 38.8199 17.8 38.5239 18.136C38.2359 18.464 37.9359 18.788 37.6239 19.108C37.8159 19.084 38.0279 19.064 38.2599 19.048C38.4999 19.024 38.7119 19.012 38.8959 19.012H40.4319V20.5H35.0679ZM42.3637 20.644C42.0597 20.644 41.8037 20.54 41.5957 20.332C41.3957 20.116 41.2957 19.852 41.2957 19.54C41.2957 19.22 41.3957 18.956 41.5957 18.748C41.8037 18.532 42.0597 18.424 42.3637 18.424C42.6677 18.424 42.9197 18.532 43.1197 18.748C43.3277 18.956 43.4317 19.22 43.4317 19.54C43.4317 19.852 43.3277 20.116 43.1197 20.332C42.9197 20.54 42.6677 20.644 42.3637 20.644ZM46.9294 20.644C46.5214 20.644 46.1494 20.56 45.8134 20.392C45.4774 20.216 45.1894 19.96 44.9494 19.624C44.7174 19.288 44.5334 18.872 44.3974 18.376C44.2694 17.88 44.2054 17.308 44.2054 16.66C44.2054 16.012 44.2694 15.444 44.3974 14.956C44.5334 14.468 44.7174 14.06 44.9494 13.732C45.1894 13.396 45.4774 13.148 45.8134 12.988C46.1494 12.82 46.5214 12.736 46.9294 12.736C47.3374 12.736 47.7094 12.82 48.0454 12.988C48.3814 13.148 48.6654 13.396 48.8974 13.732C49.1374 14.06 49.3214 14.468 49.4494 14.956C49.5854 15.444 49.6534 16.012 49.6534 16.66C49.6534 17.308 49.5854 17.88 49.4494 18.376C49.3214 18.872 49.1374 19.288 48.8974 19.624C48.6654 19.96 48.3814 20.216 48.0454 20.392C47.7094 20.56 47.3374 20.644 46.9294 20.644ZM46.9294 19.276C47.0814 19.276 47.2214 19.24 47.3494 19.168C47.4774 19.088 47.5894 18.948 47.6854 18.748C47.7814 18.548 47.8534 18.28 47.9014 17.944C47.9574 17.608 47.9854 17.18 47.9854 16.66C47.9854 16.14 47.9574 15.716 47.9014 15.388C47.8534 15.052 47.7814 14.792 47.6854 14.608C47.5894 14.416 47.4774 14.284 47.3494 14.212C47.2214 14.14 47.0814 14.104 46.9294 14.104C46.7854 14.104 46.6494 14.14 46.5214 14.212C46.3934 14.284 46.2814 14.416 46.1854 14.608C46.0894 14.792 46.0134 15.052 45.9574 15.388C45.9014 15.716 45.8734 16.14 45.8734 16.66C45.8734 17.18 45.9014 17.608 45.9574 17.944C46.0134 18.28 46.0894 18.548 46.1854 18.748C46.2814 18.948 46.3934 19.088 46.5214 19.168C46.6494 19.24 46.7854 19.276 46.9294 19.276Z" fill="#5A78F0"/>
<path d="M25.6534 10.5L25.3852 11.4115V37.8604L25.6534 38.1281L37.9306 30.871L25.6534 10.5Z" fill="white"/>
<path d="M25.6534 10.5L13.3761 30.871L25.6534 38.1282V25.2906V10.5Z" fill="white"/>
<path d="M25.6533 39.4527L25.5022 39.6369V49.0586L25.6533 49.5L37.9379 32.1992L25.6533 39.4527Z" fill="#5A78F0"/>
<path d="M25.6534 49.4999V39.4526L13.3761 32.1991L25.6534 49.4999Z" fill="#5A78F0"/>
</svg>
