<?xml version="1.0" encoding="UTF-8"?>
<svg width="64px" height="64px" viewBox="0 0 64 64" version="1.1" xmlns="http://www.w3.org/2000/svg" xmlns:xlink="http://www.w3.org/1999/xlink">
    <!-- Generator: Sketch 55.2 (78181) - https://sketchapp.com -->
    <title>icon\</title>
    <desc>Created with Sketch.</desc>
    <g id="icon\" stroke="none" stroke-width="1" fill="none" fill-rule="evenodd">
        <g id="tag" transform="translate(5.000000, 7.000000)">
            <path d="M14.0014243,35.6583204 L26.5201584,48.169286 C28.7533777,50.4011195 32.3709283,50.406762 34.611099,48.1819057 L53.1657561,29.7540936 C54.8992824,28.0324182 55.8741696,25.6902012 55.8741696,23.2469904 L55.8741696,12.1859055 C55.8741696,9.02026713 53.3079128,6.45401023 50.1422744,6.45401023 L38.8151327,6.45401023 C36.3758392,6.45401023 34.0370448,7.4257827 32.3159983,9.15440989 L13.9912693,27.5598552 C11.7607293,29.8002202 11.7652728,33.4235565 14.0014243,35.6583204 Z" id="Path-4" fill="#A0DCD3" fill-rule="nonzero" transform="translate(34.097751, 28.150436) rotate(-20.000000) translate(-34.097751, -28.150436) "></path>
            <path d="M1.75391764,31.8251586 L16.4189635,46.4811042 C18.6521828,48.7129377 22.2697335,48.7185801 24.509904,46.493724 L45.7015225,25.4469777 C47.4350487,23.7253023 48.4099359,21.3830853 48.4099359,18.9398744 L48.4099359,5.73189522 C48.4099359,2.5662569 45.8436791,3.55271368e-15 42.6780407,3.55271368e-15 L29.1769809,3.55271368e-15 C26.7376874,3.55271368e-15 24.3988929,0.971772464 22.6778466,2.70039967 L1.74376253,23.7266935 C-0.486777419,25.9670584 -0.482233917,29.5903947 1.75391764,31.8251586 Z" id="Path-4" fill="#CDF4EE" fill-rule="nonzero"></path>
            <text id="https" fill="#05C0A5" transform="translate(32.106252, 25.268755) rotate(-46.000000) translate(-32.106252, -25.268755) " font-family="ArialRoundedMTBold, Arial Rounded MT Bold" font-size="12" font-weight="normal">
                <tspan x="12.7765137" y="22.2687548">https</tspan>
            </text>
            <circle id="Oval" fill="#5A78F0" fill-rule="nonzero" cx="40.0123266" cy="7.69183359" r="2.88443759"></circle>
        </g>
    </g>
</svg>