<?xml version="1.0" encoding="UTF-8"?>
<svg width="64px" height="64px" viewBox="0 0 64 64" version="1.1" xmlns="http://www.w3.org/2000/svg" xmlns:xlink="http://www.w3.org/1999/xlink">
    <!-- Generator: Sketch 55.2 (78181) - https://sketchapp.com -->
    <title>icon\</title>
    <desc>Created with Sketch.</desc>
    <g id="icon\" stroke="none" stroke-width="1" fill="none" fill-rule="evenodd">
        <g id="token-list" transform="translate(10.000000, 4.000000)">
            <g id="list-(1)" fill-rule="nonzero">
                <path d="M38.5457135,11.383422 L38.5457135,49.3641794 C38.5457135,50.5443812 37.5889182,51.5011765 36.4087165,51.5011765 L2.21716588,51.5011765 C1.03696412,51.5011765 0.0801688235,50.5443812 0.0801688235,49.3641794 L0.0801688235,2.13699706 C0.0801688235,0.956795294 1.03686353,0 2.21716588,0 L27.2940328,0 C27.8607469,0 28.4043257,0.225116471 28.8050692,0.62586 L37.9198535,9.8722849 C38.3205971,10.273129 38.5457135,10.8166073 38.5457135,11.383422 Z" id="Path" fill="#CDF4EE"></path>
                <path d="M30.2622773,10.4964836 L38.34846,10.4964836 C38.2652619,10.3149941 38.1518027,10.1471083 38.0082421,10.003229 L28.6656911,0.533064361 C28.5107925,0.377822018 28.3287468,0.256428909 28.1311314,0.172005882 L28.1311314,8.25373016 C28.1311314,9.34562797 29.1727977,10.4964836 30.2622773,10.4964836 Z" id="Path" fill="#00C0A5"></path>
            </g>
            <path d="M8.21469646,17.8823529 L30.7911671,17.8823529" id="Line-2" stroke="#05C0A5" stroke-width="3" stroke-linecap="round"></path>
            <path d="M8.04705882,24.9235294 L30.6235294,24.9235294" id="Line-2-Copy" stroke="#05C0A5" stroke-width="3" stroke-linecap="round"></path>
            <g id="Group-27" transform="translate(35.297689, 45.061134) scale(-1, 1) translate(-35.297689, -45.061134) translate(24.101261, 33.864706)">
                <path d="M10.804098,21.7270588 C4.83721076,21.7270588 1.77635684e-15,16.8633481 1.77635684e-15,10.8635294 C1.77635684e-15,4.86371075 4.83721076,1.77635684e-15 10.804098,1.77635684e-15 C16.7710933,1.77635684e-15 21.608196,4.86371075 21.608196,10.8635294 C21.608196,16.8633481 16.7710933,21.7270588 10.804098,21.7270588 Z" id="Fill-506" fill="#5A78F0"></path>
                <path d="M10.804098,2.85882353 L15.3531919,11.5174292 L10.804098,13.9605882 L6.25500411,11.5167684 L10.804098,2.85882353 Z" id="Combined-Shape" fill="#FFFFFF"></path>
                <path d="M10.804098,14.9903823 L15.3531919,12.5788235 L10.804098,18.8682353 L6.25500411,12.5788235 L10.804098,14.9903823 Z" id="Combined-Shape" fill="#FFFFFF"></path>
            </g>
            <path d="M8.04705882,31.9647059 L22.8,31.9647059" id="Line-2-Copy-2" stroke="#05C0A5" stroke-width="3" stroke-linecap="round"></path>
        </g>
    </g>
</svg>