<?xml version="1.0" encoding="UTF-8"?>
<svg width="52px" height="52px" viewBox="0 0 52 52" version="1.1" xmlns="http://www.w3.org/2000/svg" xmlns:xlink="http://www.w3.org/1999/xlink">
    <!-- Generator: Sketch 57.1 (83088) - https://sketch.com -->
    <title>Artboard Copy 10</title>
    <desc>Created with Sketch.</desc>
    <g id="Artboard-Copy-10" stroke="none" stroke-width="1" fill="none" fill-rule="evenodd">
        <path d="M26,20 L26,27 L26,20 Z" id="Rectangle" fill="#000000"></path>
        <path d="M26.0257442,3 C19.6476267,3 14.4859212,8.106866 14.4859212,14.4172204 L14.4859212,18.6962901 C12.2461786,19.0974529 10,19.6323367 10,20.326412 L10,42.6578073 C10,42.6578073 10,43.2754707 10.7015286,43.5683832 C13.2437651,44.5872093 23.2453741,48.0894241 25.543041,48.8917497 C25.839099,49 25.9227675,49 26,49 C26.1094127,49 26.160901,49 26.456959,48.8917497 C28.7546259,48.0894241 38.7819791,44.5872093 41.3242156,43.5683832 C41.9742558,43.3009413 42,42.683278 42,42.683278 L42,20.326412 C42,19.6323367 39.7860016,19.0719823 37.539823,18.6962901 L37.539823,14.4172204 C37.5720032,8.106866 32.3781175,3 26.0257442,3 Z M26.028139,7.49216436 C30.1364291,7.49216436 32.6196935,9.96990733 32.6196935,14.0690628 L32.6196935,18.1682183 C28.0119366,17.8453397 24.0795151,17.8453397 19.4436192,18.1682183 L19.4436192,14.0690628 C19.4436192,9.96288823 21.9268836,7.49216436 26.028139,7.49216436 Z M25.9960524,21.8550954 C32.5407362,21.8550954 38.0334524,22.3409886 38.0334524,23.2125112 L38.0334524,40.0876575 C38.0334524,40.3498856 38.0013313,40.3807359 37.7604227,40.473287 C37.5275444,40.5735507 26.5983239,44.3604322 26.5983239,44.3604322 C26.5983239,44.3604322 26.1566581,44.4915463 26.0281736,44.4915463 C25.8916587,44.4915463 25.4580232,44.3295819 25.4580232,44.3295819 C25.4580232,44.3295819 14.5288027,40.5427003 14.2959244,40.4424367 C14.0630461,40.342173 14.0228947,40.3113226 14.0228947,40.0568072 L14.0228947,23.1816609 C13.9586524,22.3101382 19.4513686,21.8550954 25.9960524,21.8550954 L25.9960524,21.8550954 Z" id="path7" fill="#002747" fill-rule="nonzero"></path>
    </g>
</svg>