<svg width="140" height="31" viewBox="0 0 140 31" fill="none" xmlns="http://www.w3.org/2000/svg">
<path d="M128.225 23.2978L123.171 11.6973H126.56L130.007 20.0055L133.996 11.6973H137.327L129.465 27.6746H126.095L128.225 23.2978ZM115.947 20.8964C116.237 20.8189 116.528 20.7221 116.799 20.5671C117.051 20.4316 117.303 20.2573 117.516 20.0636C117.729 19.87 117.922 19.6376 118.077 19.3858C118.232 19.1147 118.368 18.8242 118.445 18.5337C118.542 18.2044 118.581 17.8752 118.581 17.5266C118.581 17.178 118.542 16.8488 118.445 16.5196C118.368 16.2291 118.232 15.9386 118.077 15.6674C117.922 15.4157 117.729 15.1833 117.516 14.9896C117.303 14.7959 117.051 14.6217 116.799 14.4861C116.528 14.3505 116.237 14.2537 115.947 14.1762C115.637 14.0988 115.308 14.06 114.998 14.0794C114.688 14.0794 114.359 14.1181 114.049 14.1762C113.759 14.2343 113.468 14.3505 113.197 14.4861C112.926 14.6217 112.693 14.7959 112.48 14.9896C112.267 15.1833 112.074 15.4157 111.919 15.6674C111.764 15.9386 111.628 16.2291 111.551 16.5196C111.454 16.8488 111.415 17.1974 111.415 17.5266C111.415 17.8558 111.454 18.2044 111.551 18.5337C111.628 18.8242 111.764 19.1147 111.919 19.3858C112.074 19.6376 112.267 19.87 112.48 20.0636C112.693 20.2573 112.945 20.4316 113.197 20.5671C113.468 20.7027 113.739 20.8189 114.049 20.8964C114.359 20.9738 114.669 21.0126 114.998 20.9932C115.308 21.0126 115.618 20.9738 115.947 20.8964ZM112.519 23.4915C111.996 23.3559 111.493 23.1623 111.028 22.8911C110.118 22.3876 109.362 21.6323 108.859 20.7221C108.588 20.2573 108.394 19.7538 108.258 19.2309C107.987 18.1076 107.987 16.9456 108.258 15.8224C108.394 15.2995 108.588 14.7959 108.859 14.3312C109.362 13.4209 110.118 12.685 111.028 12.1621C111.493 11.9103 111.996 11.6973 112.519 11.5618C113.081 11.4262 113.642 11.3487 114.223 11.3487C114.533 11.3487 114.843 11.3681 115.153 11.4068C115.443 11.4456 115.715 11.5037 115.986 11.5811C116.237 11.6586 116.489 11.7361 116.722 11.8522C116.954 11.9491 117.167 12.0653 117.38 12.2008C117.574 12.317 117.767 12.472 117.922 12.6269C118.077 12.7818 118.232 12.9368 118.348 13.1111V11.7167H121.563V23.3753H118.348V21.9809C117.922 22.5232 117.361 22.9492 116.722 23.2397C116.354 23.414 115.966 23.5302 115.56 23.5883C115.114 23.6658 114.649 23.7239 114.204 23.7045C113.642 23.7045 113.081 23.6464 112.519 23.4915ZM100.86 14.6604C101.325 14.6604 101.79 14.6216 102.235 14.5054C102.584 14.4086 102.913 14.2537 103.184 14.0213C103.436 13.8083 103.63 13.5371 103.746 13.2273C103.862 12.8787 103.94 12.5107 103.92 12.1427C103.92 11.7748 103.862 11.4068 103.746 11.0582C103.63 10.7484 103.436 10.4966 103.184 10.2836C102.913 10.0705 102.584 9.89624 102.235 9.81877C101.79 9.70258 101.325 9.64448 100.86 9.66384H97.7037V14.6604H100.86ZM94.3727 6.91381H101.19C102.139 6.89444 103.068 7.03001 103.959 7.30114C104.676 7.51417 105.334 7.90149 105.896 8.38566C106.399 8.85045 106.787 9.41208 107.038 10.0512C107.29 10.729 107.426 11.4456 107.406 12.1621C107.406 12.8787 107.29 13.5952 107.038 14.2537C106.787 14.8928 106.399 15.4544 105.896 15.9192C105.334 16.4227 104.676 16.7907 103.959 17.0037C103.068 17.2749 102.119 17.4104 101.19 17.3911H97.7231V23.3753H94.3921L94.3727 6.91381ZM80.0996 11.6973H83.2951V13.0917C83.4888 12.8206 83.7212 12.5688 83.9923 12.3751C84.2634 12.1621 84.5733 11.9684 84.9025 11.8329C85.2511 11.678 85.6384 11.5618 86.0258 11.4843C86.4518 11.4068 86.8779 11.3681 87.3233 11.3681C88.0011 11.3487 88.679 11.4649 89.2987 11.6973C89.8603 11.9103 90.3832 12.2396 90.8093 12.6656C91.2353 13.1111 91.5452 13.6533 91.7389 14.2343C91.9713 14.9121 92.0681 15.6093 92.0681 16.3259V23.3753H88.8726V17.1587C88.8726 16.7132 88.8145 16.2484 88.679 15.8224C88.5628 15.4738 88.3885 15.1445 88.1367 14.854C87.9043 14.6023 87.5945 14.3893 87.2652 14.2731C86.5099 14.0213 85.6772 14.0213 84.9025 14.2731C84.5733 14.3893 84.2634 14.6023 84.031 14.854C83.7793 15.1445 83.605 15.4738 83.4888 15.8224C83.3532 16.2484 83.2951 16.7132 83.2951 17.1587V23.3753H80.119L80.0996 11.6973ZM72.2369 20.8576C72.5467 20.7802 72.8372 20.6833 73.1084 20.5284C73.3795 20.3928 73.6119 20.2186 73.8249 20.0055C74.0379 19.7925 74.2122 19.5601 74.3672 19.3083C74.5221 19.0372 74.6383 18.7661 74.6964 18.4756C74.8513 17.8365 74.8513 17.178 74.6964 16.5389C74.5608 15.9579 74.251 15.4157 73.8249 15.009C73.6119 14.7959 73.3601 14.6217 73.1084 14.4861C72.8372 14.3312 72.5274 14.2343 72.2369 14.1569C71.9076 14.0794 71.559 14.0407 71.2298 14.0407C70.9006 14.0407 70.552 14.0794 70.2228 14.1569C69.9129 14.2343 69.6224 14.3312 69.3513 14.4861C69.0801 14.6217 68.8477 14.7959 68.6347 15.009C68.4217 15.222 68.2474 15.4544 68.0924 15.7062C67.6277 16.5583 67.5115 17.546 67.7632 18.4949C67.8407 18.7854 67.9569 19.0759 68.0924 19.3277C68.228 19.5795 68.4217 19.8119 68.6347 20.0249C68.8477 20.2379 69.0801 20.4122 69.3513 20.5478C69.6224 20.6833 69.9129 20.7995 70.2228 20.877C70.552 20.9545 70.8812 20.9932 71.2298 20.9932C71.5784 20.9932 71.9076 20.9545 72.2369 20.8576ZM69.3513 23.4915C68.7703 23.3559 68.2086 23.1623 67.6858 22.8911C67.1822 22.6394 66.7368 22.3295 66.3107 21.9615C65.904 21.5936 65.5554 21.1869 65.2843 20.7221C64.9938 20.2573 64.7808 19.7538 64.6258 19.2309C64.316 18.1076 64.316 16.9263 64.6258 15.8224C64.7808 15.2995 64.9938 14.7959 65.2843 14.3312C65.8653 13.4016 66.6981 12.6463 67.6858 12.1621C68.2086 11.891 68.7703 11.6973 69.3513 11.5618C70.5907 11.2713 71.8883 11.2713 73.1277 11.5618C73.7087 11.6973 74.251 11.891 74.7739 12.1621C75.2774 12.4139 75.7228 12.7237 76.1489 13.1111C76.5556 13.479 76.9042 13.8857 77.1947 14.3505C77.4852 14.8153 77.7176 15.3188 77.8531 15.8417C78.163 16.965 78.163 18.1463 77.8531 19.2502C77.5626 20.3154 76.9623 21.2643 76.1489 21.9809C75.7422 22.3489 75.2774 22.6587 74.7739 22.9105C74.251 23.1816 73.6893 23.3753 73.1277 23.5108C71.8883 23.782 70.5907 23.782 69.3513 23.4915ZM56.918 20.8576C57.2279 20.7802 57.5184 20.6833 57.7895 20.5284C58.0606 20.3928 58.293 20.2186 58.5061 20.0055C58.7191 19.7925 58.8934 19.5601 59.0483 19.3083C59.2032 19.0372 59.3194 18.7661 59.3775 18.4756C59.5325 17.8365 59.5325 17.178 59.3775 16.5389C59.242 15.9579 58.9321 15.4157 58.5061 15.009C58.293 14.7959 58.0413 14.6217 57.7895 14.4861C57.5184 14.3312 57.2085 14.2343 56.918 14.1569C56.5888 14.0794 56.2402 14.0407 55.911 14.0407C55.5817 14.0407 55.2331 14.0794 54.9039 14.1569C54.594 14.2343 54.3035 14.3312 54.0324 14.4861C53.7806 14.6217 53.5289 14.7959 53.3158 15.009C53.1028 15.2026 52.9285 15.4544 52.7736 15.7062C52.638 15.9773 52.5218 16.2484 52.4444 16.5389C52.3669 16.8488 52.3088 17.178 52.3282 17.5072C52.3282 17.8365 52.3669 18.1657 52.4444 18.4756C52.5218 18.7661 52.638 19.0566 52.7736 19.3083C52.9092 19.5601 53.1028 19.7925 53.3158 20.0055C53.5289 20.2186 53.7613 20.3928 54.0324 20.5284C54.3035 20.664 54.594 20.7802 54.9039 20.8576C55.2331 20.9351 55.5624 20.9738 55.911 20.9738C56.2402 20.9738 56.5888 20.9351 56.918 20.8576ZM54.013 23.4915C53.432 23.3559 52.8704 23.1623 52.3475 22.8911C51.844 22.6394 51.3986 22.3295 50.9725 21.9615C50.5658 21.5936 50.2172 21.1869 49.9461 20.7221C49.6556 20.2573 49.4426 19.7538 49.2876 19.2309C48.9778 18.1076 48.9778 16.9263 49.2876 15.8224C49.4426 15.2995 49.6556 14.7959 49.9461 14.3312C50.2366 13.8664 50.5852 13.4597 50.9725 13.0917C51.3792 12.7237 51.844 12.3945 52.3475 12.1427C52.8704 11.8716 53.432 11.678 54.013 11.5424C55.2525 11.2713 56.55 11.2713 57.7895 11.5424C58.3705 11.678 58.9128 11.8716 59.4356 12.1427C59.9392 12.3945 60.3846 12.7044 60.8107 13.0917C61.2174 13.4597 61.566 13.8664 61.8565 14.3312C62.1469 14.7959 62.3793 15.2995 62.5149 15.8224C62.8248 16.9456 62.8248 18.127 62.5149 19.2309C62.2244 20.296 61.6241 21.245 60.8107 21.9615C60.404 22.3295 59.9392 22.6394 59.4356 22.8911C58.9128 23.1623 58.3511 23.3559 57.7895 23.4915C56.5694 23.782 55.2719 23.782 54.013 23.4915ZM28.8367 6.91381H32.2064L37.9389 15.6868L43.7101 6.91381H47.0605V23.3753H43.7295V12.0846L38.9653 19.3664H36.9318L32.1677 12.0846V23.3753H28.8367V6.91381Z" fill="black"/>
<path d="M21.1676 9.85753C23.0267 9.85753 24.5179 8.34694 24.5179 6.50713C24.5179 4.64795 23.0074 3.15674 21.1676 3.15674C19.3084 3.15674 17.8172 4.66732 17.8172 6.50713C17.8172 8.34694 19.3084 9.85753 21.1676 9.85753ZM10.8646 24.9827C6.33286 24.9827 2.67261 21.3225 2.67261 16.7907C2.67261 12.259 6.33286 8.59871 10.8646 8.59871C15.3964 8.59871 19.0566 12.259 19.0566 16.7907C19.0566 21.3225 15.3964 24.9827 10.8646 24.9827Z" fill="#7D00FF"/>
</svg>
