<?xml version="1.0" encoding="utf-8"?>
<!-- Generator: Adobe Illustrator 23.0.1, SVG Export Plug-In . SVG Version: 6.00 Build 0)  -->
<svg version="1.1" id="Layer_1" xmlns="http://www.w3.org/2000/svg" xmlns:xlink="http://www.w3.org/1999/xlink" x="0px" y="0px"
	 viewBox="0 0 300 300" style="enable-background:new 0 0 300 300;" xml:space="preserve">
<style type="text/css">
	.st0{fill:#E5E5E5;}
	.st1{fill:#CBCBCB;}
	.st2{fill:#EEEEEE;}
	.st3{fill:#CFCFCF;}
	.st4{fill:#BDBDBD;}
	.st5{fill:#B4B4B4;}
	.st6{fill:#CECECE;}
	.st7{fill:#A3A3A3;}
	.st8{fill:#CBC7C7;}
	.st9{fill:#B7B7B7;}
	.st10{fill:#939393;}
	.st11{fill:#FFFFFF;}
</style>
<g>
	<path class="st0" d="M69.8,232.3l8.4-10.2c0.1-0.1,187.3,35,187.3,35l-8.6,8.5L69.8,232.3z"/>
	<path class="st1" d="M36.4,46.6l7.4-10.9L78.3,222l-8,10.4L36.4,46.6z"/>
	<path class="st2" d="M172,129.7c-0.1-0.1-10.3-37-10.2-37.1c0.3-0.1,32,11.8,32,11.8l11.7,34.3L172,129.7z"/>
	<path class="st3" d="M161.8,92.8l-1.4-5.8l37.9,13.5l-4.3,4.2L161.8,92.8z"/>
	<path class="st4" d="M115.5,186.1l6.5-6.7l114.8,26.9l-6.4,5.1L115.5,186.1z M64.3,60.1l-1.5-7.6l32.4,11.6L90,68.5L64.3,60.1z"/>
	<path class="st5" d="M205.6,138.8l-11.7-34.3l4.3-4.2l14.2,39.9L205.6,138.8z"/>
	<path class="st6" d="M92.2,206.9c0,0-28-146.7-27.9-146.8l26,8.1c0,0,0.4-0.3,0.1,0.1C89.9,68.7,115.5,186,115.5,186l114.9,25.2
		l10,26.1L92.2,206.9z"/>
	<path class="st7" d="M240.4,237.3l-9.8-26.1l6.4-5.1l12.2,32.7c0.1,0.1,0.1,0.1,0,0.1L240.4,237.3L240.4,237.3z M115.5,186.1
		L90,68.5l5.1-4.3L122,179.3L115.5,186.1z"/>
	<path class="st8" d="M137.3,164.1l-21-86.5l21,7.4l17.4,61.9l61.1,15.5l8.1,23.8L137.3,164.1z"/>
	<path class="st9" d="M215.9,162.2l-61.2-15.5c1.7-1.8,5-4.5,5-4.5l59.6,15.9L215.9,162.2z M116.5,77.6l-1.5-6.6l26.4,9.7l-3.8,4.2
		L116.5,77.6z"/>
	<path class="st10" d="M223.8,185.8l-7.9-23.6l3.6-4.1l10.2,29L223.8,185.8z M154.9,146.7l-17.4-61.9l3.9-4.2
		c0.1,0.3,18.4,61.5,18.4,61.5L154.9,146.7z"/>
</g>
<path class="st11" d="M160.3,87l37.9,13.5l14.2,39.9L172,129.9L160.3,87z M114.9,70.9l26.4,9.7l18.4,61.5l59.6,15.9l10.2,29
	l-92.3-23L114.9,70.9z M95.2,64.1l26.9,115.1l114.8,26.9l12.2,32.7l-156.9-32L62.8,52.5L95.2,64.1z M43.7,35.7L78.3,222l187.2,35.2
	L206.8,94.3L43.7,35.7z"/>
</svg>
