<?xml version="1.0" encoding="utf-8"?>
<!-- Generator: Adobe Illustrator 23.0.1, SVG Export Plug-In . SVG Version: 6.00 Build 0)  -->
<svg version="1.1" id="Layer_1" xmlns="http://www.w3.org/2000/svg" xmlns:xlink="http://www.w3.org/1999/xlink" x="0px" y="0px"
	 viewBox="0 0 300 300" style="enable-background:new 0 0 300 300;" xml:space="preserve">
<style type="text/css">
	.st0{fill:#E5E5E5;}
	.st1{fill:#CBCBCB;}
	.st2{fill:#EEEEEE;}
	.st3{fill:#CFCFCF;}
	.st4{fill:#BDBDBD;}
	.st5{fill:#B4B4B4;}
	.st6{fill:#CECECE;}
	.st7{fill:#A3A3A3;}
	.st8{fill:#CBC7C7;}
	.st9{fill:#B7B7B7;}
	.st10{fill:#939393;}
	.st11{fill:#FFFFFF;}
</style>
<g>
	<path class="st0" d="M65,237.2l8.9-10.8c0.1-0.1,198.5,37.1,198.5,37.1l-9.1,9L65,237.2z"/>
	<path class="st1" d="M29.6,40.4l7.8-11.6L74,226.2l-8.5,11L29.6,40.4z"/>
	<path class="st2" d="M173.3,128.5c-0.1-0.1-10.9-39.2-10.8-39.3c0.3-0.1,33.9,12.5,33.9,12.5l12.4,36.3L173.3,128.5z"/>
	<path class="st3" d="M162.4,89.4l-1.5-6.1l40.2,14.3l-4.6,4.4L162.4,89.4z"/>
	<path class="st4" d="M113.4,188.2l6.9-7.1l121.6,28.5l-6.8,5.4L113.4,188.2z M59.1,54.7l-1.6-8l34.3,12.3l-5.4,4.6L59.1,54.7z"/>
	<path class="st5" d="M208.9,138.1l-12.4-36.3l4.6-4.4l15,42.3L208.9,138.1z"/>
	<path class="st6" d="M88.7,210.2c0,0-29.7-155.4-29.6-155.5l27.5,8.6c0,0,0.4-0.3,0.1,0.1c-0.4,0.4,26.7,124.7,26.7,124.7
		l121.7,26.7l10.6,27.7L88.7,210.2z"/>
	<path class="st7" d="M245.7,242.5l-10.4-27.7l6.8-5.4l12.9,34.7c0.1,0.1,0.1,0.1,0,0.1L245.7,242.5L245.7,242.5z M113.4,188.2
		l-27-124.6l5.4-4.6l28.5,122L113.4,188.2z"/>
	<path class="st8" d="M136.5,164.9l-22.2-91.7l22.3,7.8l18.4,65.6l64.7,16.4l8.6,25.2L136.5,164.9z"/>
	<path class="st9" d="M219.8,162.9L155,146.5c1.8-1.9,5.3-4.8,5.3-4.8l63.1,16.9L219.8,162.9z M114.4,73.2l-1.6-7l28,10.3l-4,4.5
		L114.4,73.2z"/>
	<path class="st10" d="M228.1,187.9l-8.4-25l3.8-4.3l10.8,30.7L228.1,187.9z M155.1,146.5l-18.4-65.6l4.1-4.5
		c0.1,0.3,19.5,65.2,19.5,65.2L155.1,146.5z"/>
</g>
<path class="st11" d="M160.9,83.2l40.2,14.3l15,42.3l-42.8-11.1L160.9,83.2z M112.8,66.2l28,10.3l19.5,65.2l63.1,16.9l10.8,30.7
	l-97.8-24.4L112.8,66.2z M91.9,58.9l28.5,122L242,209.4l12.9,34.7L88.7,210.2L57.5,46.7L91.9,58.9z M37.3,28.9L74,226.2l198.3,37.3
	L210.1,90.9L37.3,28.9z"/>
</svg>
