<?xml version="1.0" encoding="utf-8"?>
<!-- Generator: Adobe Illustrator 23.0.1, SVG Export Plug-In . SVG Version: 6.00 Build 0)  -->
<svg version="1.1" id="Layer_1" xmlns="http://www.w3.org/2000/svg" xmlns:xlink="http://www.w3.org/1999/xlink" x="0px" y="0px"
	 viewBox="0 0 300 300" style="enable-background:new 0 0 300 300;" xml:space="preserve">
<style type="text/css">
	.st0{fill-rule:evenodd;clip-rule:evenodd;fill:#F6F6F6;}
	.st1{fill-rule:evenodd;clip-rule:evenodd;fill:#CCCCCC;}
	.st2{fill:#484848;}
</style>
<g transform="translate(1.646 -18.108)">
	<path class="st0" d="M253.1,175.6L253.1,175.6l-82.9,47.9v-0.1c-1.3,0.9-3.1,0.6-4-0.8c-0.1-0.2-0.2-0.4-0.3-0.6l-23.7-40.6
		c-0.6-0.9-0.4-2,0.5-2.6c0.3-0.2,0.7-0.4,1-0.4h25.6c0.9,0.1,1.5,0.9,1.5,1.7c0,0.5-0.3,0.9-0.7,1.1c-3.5,2.7-4.2,7.9-1.3,11.4
		c2.7,3.5,7.9,4.2,11.4,1.3c0.3-0.2,0.6-0.5,0.8-0.7c2.9-2.9,17.4-17.6,20.2-20.4c2.8-2.8,2.8-7.4,0-10.1
		c-2.7-2.7-17.4-17.5-20.2-20.4c-3.2-3.2-8.3-3.2-11.5,0c-3.2,3.2-3.2,8.3,0,11.5c0.2,0.2,0.5,0.5,0.8,0.7c0.7,0.6,0.7,1.6,0.1,2.3
		c-0.3,0.3-0.7,0.5-1.1,0.6h-25.9c-0.9-0.2-1.6-1.1-1.4-2.2c0-0.2,0.1-0.3,0.2-0.5l23.9-40.9c0.7-1.4,2.3-2.2,3.8-1.5
		c0.2,0.1,0.3,0.2,0.5,0.3v-0.1l82.9,47.8l0,0c4.2,2.2,5.7,7.3,3.5,11.4C255.9,173.6,254.6,174.8,253.1,175.6z M60.5,54.3
		c-2.7,1.6-4.4,4.5-4.3,7.7l0,0l0.1,95.7h0.1c-0.1,1.6,1,2.9,2.6,3c0.2,0,0.4,0,0.6,0l47.4,0.3c1-0.1,1.8-0.9,1.7-1.9
		c0-0.2,0-0.3-0.1-0.5l-13-22.4c-0.5-0.8-1.5-1-2.3-0.6c-0.4,0.2-0.7,0.6-0.8,1c-0.7,4.4-4.7,7.6-9.2,6.9s-7.6-4.7-6.9-9.2
		c0-0.4,0.1-0.7,0.2-0.9c1-3.9,6.5-23.9,7.6-27.7s4.9-6.1,8.8-5.1l0,0c3.8,1,23.8,6.2,27.8,7.3c4.4,1.1,7,5.6,5.8,9.9
		c-1.1,4.4-5.6,7-9.9,5.8c-0.3-0.1-0.7-0.2-0.9-0.3c-0.9-0.4-1.8,0.1-2.1,0.9c-0.2,0.4-0.2,0.9,0,1.3l12.9,22.2
		c0.5,0.9,1.6,1.1,2.5,0.7c0.3-0.2,0.6-0.5,0.8-0.9l23.3-40.9c1-1.2,0.9-3-0.4-4c-0.2-0.1-0.4-0.3-0.6-0.4v-0.1l-83-47.7l0,0
		C66.5,52.8,63.2,52.7,60.5,54.3L60.5,54.3z"/>
	<path class="st1" d="M56.3,274.3L56.3,274.3l0.1-95.8h0.1c-0.1-1.6,1-2.9,2.6-3c0.2,0,0.5,0,0.7,0l47-0.3c1-0.1,1.9,0.7,2,1.6
		c0,0.4,0,0.8-0.2,1l-12.8,22.2c-0.5,0.8-1.5,0.9-2.3,0.4c-0.4-0.3-0.6-0.7-0.7-1.1c-0.7-4.4-4.8-7.5-9.3-6.8
		c-4.4,0.7-7.5,4.8-6.8,9.3c0,0.3,0.1,0.6,0.2,0.9c1,4,6.5,23.9,7.6,27.7s4.9,6.1,8.8,5.1c3.8-1,23.8-6.2,27.8-7.3
		c4.4-1.1,6.9-5.6,5.8-9.9c-1.1-4.4-5.6-6.9-9.9-5.8c-0.4,0.1-0.7,0.2-0.9,0.4c-0.9,0.3-1.8-0.2-2.1-1c-0.1-0.4-0.1-0.9,0.1-1.2
		l13-22.4c0.7-0.8,1.8-0.9,2.6-0.1c0.1,0.1,0.2,0.2,0.3,0.4l23.5,41.2c0.9,1.2,0.7,3-0.6,4c-0.2,0.1-0.3,0.2-0.5,0.3v0.1l-82.9,47.9
		l0,0c-4,2.5-9.2,1.3-11.6-2.6C56.7,277.7,56.2,276,56.3,274.3L56.3,274.3z"/>
	<path class="st2" d="M177,226.1L177,226.1C177,226.1,177.1,226.1,177,226.1L177,226.1C177.1,226.1,177,226.1,177,226.1L177,226.1
		L177,226.1L177,226.1L177,226.1z"/>
	<polygon class="st2" points="94.2,274 94.2,274 94.2,274.1 94.2,274.1 94.2,274.1 94.2,274.1 94.2,274.1 94.2,274.1 	"/>
</g>
</svg>
