<?xml version="1.0" encoding="utf-8"?>
<!-- Generator: Adobe Illustrator 23.0.1, SVG Export Plug-In . SVG Version: 6.00 Build 0)  -->
<svg version="1.1" id="Layer_1" xmlns="http://www.w3.org/2000/svg" xmlns:xlink="http://www.w3.org/1999/xlink" x="0px" y="0px"
	 viewBox="0 0 300 300" style="enable-background:new 0 0 300 300;" xml:space="preserve">
<style type="text/css">
	.st0{fill-rule:evenodd;clip-rule:evenodd;fill:#F6F6F6;}
	.st1{fill-rule:evenodd;clip-rule:evenodd;fill:#CCCCCC;}
	.st2{fill:#484848;}
</style>
<g transform="translate(1.646 -18.108)">
	<path class="st0" d="M258.6,176L258.6,176L171,226.6l0-0.1c-1.4,0.9-3.3,0.6-4.2-0.8c-0.1-0.2-0.2-0.4-0.3-0.6l-25.1-42.9
		c-0.6-0.9-0.4-2.1,0.5-2.7c0.3-0.2,0.7-0.4,1.1-0.4l27.1,0c0.9,0.1,1.6,0.9,1.6,1.8c0,0.5-0.3,0.9-0.7,1.2
		c-3.7,2.9-4.4,8.4-1.4,12.1c2.9,3.7,8.4,4.4,12.1,1.4c0.3-0.2,0.6-0.5,0.8-0.7c3.1-3.1,18.4-18.6,21.4-21.6c3-3,3-7.8,0-10.7
		c-2.9-2.9-18.4-18.5-21.4-21.6c-3.4-3.4-8.8-3.4-12.2,0s-3.4,8.8,0,12.2c0.2,0.2,0.5,0.5,0.8,0.7c0.7,0.6,0.7,1.7,0.1,2.4
		c-0.3,0.3-0.7,0.5-1.2,0.6h-27.4c-1-0.2-1.7-1.2-1.5-2.3c0-0.2,0.1-0.3,0.2-0.5l25.3-43.2c0.7-1.5,2.4-2.3,4-1.6
		c0.2,0.1,0.3,0.2,0.5,0.3l0-0.1l87.6,50.5v0c4.4,2.3,6,7.7,3.7,12.1C261.5,173.9,260.2,175.2,258.6,176z M55,47.8
		c-2.9,1.7-4.6,4.8-4.5,8.1h0L50.6,157h0.1c-0.1,1.7,1.1,3.1,2.8,3.2c0.2,0,0.4,0,0.6,0l50.1,0.3c1.1-0.1,1.9-1,1.8-2
		c0-0.2,0-0.3-0.1-0.5l-13.7-23.7c-0.5-0.8-1.6-1.1-2.4-0.6c-0.4,0.2-0.7,0.6-0.8,1.1c-0.7,4.7-5,8-9.7,7.3c-4.7-0.7-8-5-7.3-9.7
		c0-0.4,0.1-0.7,0.2-1c1.1-4.1,6.9-25.3,8-29.3c1.1-4,5.2-6.4,9.3-5.4c0,0,0,0,0,0c4,1.1,25.2,6.6,29.4,7.7
		c4.6,1.2,7.4,5.9,6.1,10.5c-1.2,4.6-5.9,7.4-10.5,6.1c-0.3-0.1-0.7-0.2-1-0.3c-0.9-0.4-1.9,0.1-2.2,0.9c-0.2,0.4-0.2,1,0,1.4
		l13.6,23.5c0.5,0.9,1.7,1.2,2.6,0.7c0.3-0.2,0.6-0.5,0.8-0.9l24.6-43.2c1.1-1.3,0.9-3.2-0.4-4.2c-0.2-0.1-0.4-0.3-0.6-0.4l0-0.1
		L64.2,48l0,0C61.4,46.2,57.9,46.1,55,47.8L55,47.8z"/>
	<path class="st1" d="M50.6,280.3L50.6,280.3l0.1-101.2h0.1c-0.1-1.7,1.1-3.1,2.8-3.2c0.2,0,0.5,0,0.7,0l49.7-0.3
		c1.1-0.1,2,0.7,2.1,1.7c0,0.4,0,0.8-0.2,1.1l-13.5,23.5c-0.5,0.8-1.6,1-2.4,0.4c-0.4-0.3-0.6-0.7-0.7-1.2c-0.7-4.7-5.1-7.9-9.8-7.2
		c-4.7,0.7-7.9,5.1-7.2,9.8c0,0.3,0.1,0.6,0.2,0.9c1.1,4.2,6.9,25.3,8,29.3c1.1,4,5.2,6.4,9.3,5.4c4-1.1,25.2-6.6,29.4-7.7
		c4.6-1.2,7.3-5.9,6.1-10.5c-1.2-4.6-5.9-7.3-10.5-6.1c-0.4,0.1-0.7,0.2-1,0.4c-0.9,0.3-1.9-0.2-2.2-1.1c-0.1-0.4-0.1-0.9,0.1-1.3
		l13.7-23.7c0.7-0.8,1.9-0.9,2.7-0.1c0.1,0.1,0.2,0.2,0.3,0.4l24.8,43.5c1,1.3,0.7,3.2-0.6,4.2c-0.2,0.1-0.3,0.2-0.5,0.3l0,0.1
		l-87.6,50.6l0,0c-4.2,2.6-9.7,1.4-12.3-2.8C51,283.9,50.5,282.1,50.6,280.3L50.6,280.3z"/>
	<path class="st2" d="M178.1,229.4L178.1,229.4C178.1,229.4,178.2,229.4,178.1,229.4L178.1,229.4
		C178.2,229.4,178.1,229.4,178.1,229.4L178.1,229.4C178.1,229.4,178.1,229.4,178.1,229.4L178.1,229.4
		C178.1,229.4,178.1,229.4,178.1,229.4z"/>
	<polygon class="st2" points="90.6,280 90.6,280 90.6,280.1 90.6,280.1 90.6,280.1 90.6,280.1 90.6,280.1 90.6,280.1 	"/>
</g>
</svg>
