<?xml version="1.0" encoding="UTF-8"?>
<svg width="100px" height="100px" viewBox="0 0 100 100" version="1.1" xmlns="http://www.w3.org/2000/svg" xmlns:xlink="http://www.w3.org/1999/xlink">
    <!-- Generator: Sketch 49.2 (51160) - http://www.bohemiancoding.com/sketch -->
    <title>balance</title>
    <desc>Created with Sketch.</desc>
    <defs></defs>
    <g id="balance" stroke="none" stroke-width="1" fill="none" fill-rule="evenodd">
        <g id="Network-Access-Copy" transform="translate(14.000000, 14.000000)" fill="#FFFFFF">
            <path d="M43.3806222,47.0974222 C46.4192577,43.5825925 46.598633,38.4255521 43.8115556,34.7080889 L43.8115556,29.2316444 C43.8115556,24.8683495 40.2744061,21.3312 35.9111111,21.3312 C31.5478161,21.3312 28.0106667,24.8683495 28.0106667,29.2316444 L28.0106667,34.7080889 C26.7260336,36.4161634 26.0326938,38.4961827 26.0355556,40.6334222 C26.0355556,41.6250802 26.8394532,42.4289778 27.8311111,42.4289778 C28.8227691,42.4289778 29.6266667,41.6250802 29.6266667,40.6334222 C29.6239421,38.0060689 31.2559396,35.6543159 33.7181408,34.7374963 C36.180342,33.8206766 38.9530172,34.5323157 40.6693333,36.5216 C40.6872889,36.5575111 40.7232,36.5754667 40.7411556,36.6113778 C41.691482,37.7349103 42.2075008,39.1619254 42.1955556,40.6334222 C42.198892,42.1431576 41.6569119,43.6033159 40.6693333,44.7452444 C38.4910568,47.1410122 34.876242,47.5554495 32.2122667,45.7148444 C31.409101,45.1834006 30.3296904,45.3802467 29.7658209,46.1609891 C29.2019513,46.9417316 29.3544557,48.0282941 30.1114667,48.6236444 C31.7929405,49.8568722 33.8258945,50.5177396 35.9111111,50.5089778 C38.778404,50.5112676 41.5048405,49.2660201 43.3806222,47.0974222 Z M40.2204444,31.7633778 C37.5039592,30.4227357 34.318263,30.4227357 31.6017778,31.7633778 L31.6017778,29.2316444 C31.6017778,26.8516654 33.531132,24.9223111 35.9111111,24.9223111 C38.2910902,24.9223111 40.2204444,26.8516654 40.2204444,29.2316444 L40.2204444,31.7633778 Z M37.1859556,41.5312 C37.5133092,41.1866225 37.6991718,40.7315796 37.7066667,40.2563556 C37.7027546,39.7804057 37.5163757,39.3240986 37.1859556,38.9815111 C36.4647657,38.3191514 35.3565587,38.3191514 34.6353689,38.9815111 C34.3051986,39.3241885 34.1191345,39.7805117 34.1155556,40.2563556 C34.1191094,40.7269092 34.305518,41.177638 34.6353689,41.5132444 C34.9736742,41.8529255 35.4317338,42.0463356 35.9111111,42.0519111 C36.3869876,42.0476336 36.8431647,41.8613078 37.1859556,41.5312 Z M25.1377778,10.4680889 L25.1377778,17.6682667 C25.1377778,18.6599246 25.9416754,19.4638222 26.9333333,19.4638222 C27.9249913,19.4638222 28.7288889,18.6599246 28.7288889,17.6682667 L28.7288889,10.4680889 C31.2023505,9.59358815 32.6860637,7.06431486 32.2424242,4.47859486 C31.7987848,1.89287486 29.5568355,0.0028241849 26.9333333,0.0028241849 C24.3098311,0.0028241849 22.0678818,1.89287486 21.6242424,4.47859486 C21.180603,7.06431486 22.6643162,9.59358815 25.1377778,10.4680889 Z M26.9333333,3.59111111 C27.9249913,3.59111111 28.7288889,4.39500872 28.7288889,5.38666667 C28.7288889,6.37832462 27.9249913,7.18222222 26.9333333,7.18222222 C25.9416754,7.18222222 25.1377778,6.37832462 25.1377778,5.38666667 C25.1407358,4.39623655 25.9429032,3.59406911 26.9333333,3.59111111 Z M44.8888889,1.74477776e-15 C42.2622657,-0.00391315603 40.0157832,1.88718455 39.571732,4.47600342 C39.1276807,7.0648223 40.6155465,9.59646001 43.0933333,10.4680889 L43.0933333,17.6682667 C43.0933333,18.6599246 43.8972309,19.4638222 44.8888889,19.4638222 C45.8805468,19.4638222 46.6844444,18.6599246 46.6844444,17.6682667 L46.6844444,10.4680889 C49.1622313,9.59646001 50.6500971,7.0648223 50.2060458,4.47600342 C49.7619946,1.88718455 47.5155121,-0.00391315603 44.8888889,1.74477776e-15 Z M44.8888889,7.18222222 C43.8972309,7.18222222 43.0933333,6.37832462 43.0933333,5.38666667 C43.0933333,4.39500872 43.8972309,3.59111111 44.8888889,3.59111111 C45.8805468,3.59111111 46.6844444,4.39500872 46.6844444,5.38666667 C46.6814864,6.37709679 45.879319,7.17926422 44.8888889,7.18222222 Z M46.6844444,61.3720889 L46.6844444,54.1719111 C46.6844444,53.1802532 45.8805468,52.3763556 44.8888889,52.3763556 C43.8972309,52.3763556 43.0933333,53.1802532 43.0933333,54.1719111 L43.0933333,61.3720889 C40.6198717,62.2465896 39.1361586,64.7758629 39.579798,67.3615829 C40.0234374,69.9473029 42.2653867,71.8373536 44.8888889,71.8373536 C47.5123911,71.8373536 49.7543404,69.9473029 50.1979798,67.3615829 C50.6416192,64.7758629 49.157906,62.2465896 46.6844444,61.3720889 Z M44.8888889,68.2311111 C43.8972309,68.2311111 43.0933333,67.4272135 43.0933333,66.4355556 C43.0933333,65.4438976 43.8972309,64.64 44.8888889,64.64 C45.8805468,64.64 46.6844444,65.4438976 46.6844444,66.4355556 C46.6814864,67.4259857 45.879319,68.2281531 44.8888889,68.2311111 Z M28.7288889,61.3720889 L28.7288889,54.1719111 C28.7288889,53.1802532 27.9249913,52.3763556 26.9333333,52.3763556 C25.9416754,52.3763556 25.1377778,53.1802532 25.1377778,54.1719111 L25.1377778,61.3720889 C22.6643162,62.2465896 21.180603,64.7758629 21.6242424,67.3615829 C22.0678818,69.9473029 24.3098311,71.8373536 26.9333333,71.8373536 C29.5568355,71.8373536 31.7987848,69.9473029 32.2424242,67.3615829 C32.6860637,64.7758629 31.2023505,62.2465896 28.7288889,61.3720889 Z M26.9333333,68.2311111 C25.9416754,68.2311111 25.1377778,67.4272135 25.1377778,66.4355556 C25.1377778,65.4438976 25.9416754,64.64 26.9333333,64.64 C27.9249913,64.64 28.7288889,65.4438976 28.7288889,66.4355556 C28.7259309,67.4259857 27.9237635,68.2281531 26.9333333,68.2311111 Z M57.7630222,32.32 C60.0424781,32.3205954 62.0732841,30.8803075 62.8264889,28.7288889 L70.0266667,28.7288889 C71.0183246,28.7288889 71.8222222,27.9249913 71.8222222,26.9333333 C71.8222222,25.9416754 71.0183246,25.1377778 70.0266667,25.1377778 L62.8264889,25.1377778 C61.9102784,22.5599106 59.2054314,21.0800323 56.5404188,21.6985375 C53.8754062,22.3170428 52.0988502,24.8369804 52.4116989,27.5548779 C52.7245476,30.2727753 55.0271803,32.3231703 57.7630222,32.32 Z M57.7630222,25.1377778 C58.7546802,25.1377778 59.5585778,25.9416754 59.5585778,26.9333333 C59.5585778,27.9249913 58.7546802,28.7288889 57.7630222,28.7288889 C56.7713643,28.7288889 55.9674667,27.9249913 55.9674667,26.9333333 C55.9704247,25.9429032 56.7725921,25.1407358 57.7630222,25.1377778 Z M70.0266667,43.0933333 L62.8264889,43.0933333 C61.9519882,40.6198717 59.4227149,39.1361586 56.8369949,39.579798 C54.2512749,40.0234374 52.3612242,42.2653867 52.3612242,44.8888889 C52.3612242,47.5123911 54.2512749,49.7543404 56.8369949,50.1979798 C59.4227149,50.6416192 61.9519882,49.157906 62.8264889,46.6844444 L70.0266667,46.6844444 C71.0183246,46.6844444 71.8222222,45.8805468 71.8222222,44.8888889 C71.8222222,43.8972309 71.0183246,43.0933333 70.0266667,43.0933333 Z M57.7630222,46.6844444 C56.7713643,46.6844444 55.9674667,45.8805468 55.9674667,44.8888889 C55.9674667,43.8972309 56.7713643,43.0933333 57.7630222,43.0933333 C58.7546802,43.0933333 59.5585778,43.8972309 59.5585778,44.8888889 C59.5556198,45.879319 58.7534523,46.6814864 57.7630222,46.6844444 Z M14.0592,39.5022222 C11.7819778,39.5086222 9.75480139,40.946336 8.99573333,43.0933333 L1.79555556,43.0933333 C0.803897605,43.0933333 0,43.8972309 0,44.8888889 C0,45.8805468 0.803897605,46.6844444 1.79555556,46.6844444 L8.99573333,46.6844444 C9.91194381,49.2623116 12.6167908,50.7421899 15.2818034,50.1236847 C17.946816,49.5051795 19.7233721,46.9852418 19.4105234,44.2673444 C19.0976747,41.5494469 16.7950419,39.4990519 14.0592,39.5022222 Z M14.0592,46.6844444 C13.067542,46.6844444 12.2636444,45.8805468 12.2636444,44.8888889 C12.2636444,43.8972309 13.067542,43.0933333 14.0592,43.0933333 C15.050858,43.0933333 15.8547556,43.8972309 15.8547556,44.8888889 C15.8517976,45.879319 15.0496301,46.6814864 14.0592,46.6844444 Z M14.0592,21.5466667 C11.7819778,21.5530667 9.75480139,22.9907805 8.99573333,25.1377778 L1.79555556,25.1377778 C0.803897605,25.1377778 0,25.9416754 0,26.9333333 C0,27.9249913 0.803897605,28.7288889 1.79555556,28.7288889 L8.99573333,28.7288889 C9.91194381,31.3067561 12.6167908,32.7866344 15.2818034,32.1681291 C17.946816,31.5496239 19.7233721,29.0296863 19.4105234,26.3117888 C19.0976747,23.5938913 16.7950419,21.5434964 14.0592,21.5466667 Z M14.0592,28.7288889 C13.067542,28.7288889 12.2636444,27.9249913 12.2636444,26.9333333 C12.2636444,25.9416754 13.067542,25.1377778 14.0592,25.1377778 C15.050858,25.1377778 15.8547556,25.9416754 15.8547556,26.9333333 C15.8517976,27.9237635 15.0496301,28.7259309 14.0592,28.7288889 Z" id="Access"></path>
        </g>
    </g>
</svg>