<?xml version="1.0" encoding="utf-8"?>
<!-- Generator: Adobe Illustrator 23.0.1, SVG Export Plug-In . SVG Version: 6.00 Build 0)  -->
<svg version="1.1" id="Layer_1" xmlns="http://www.w3.org/2000/svg" xmlns:xlink="http://www.w3.org/1999/xlink" x="0px" y="0px"
	 viewBox="0 0 1100 1100" style="enable-background:new 0 0 1100 1100;" xml:space="preserve">
<style type="text/css">
	.st0{fill:#BEBEBE;}
	.st1{fill:#CBCBCB;}
	.st2{fill:#B0B0B0;}
</style>
<g>
	<path class="st0" d="M565.3,415c0-31.7-0.1-63.3-0.1-95c0-91.6,0-183.3,0.1-274.9c0-2-1.3-5,1.3-5.7c2.3-0.6,2.7,2.6,3.6,4.1
		c26.3,43.6,52.5,87.2,78.8,130.8c16.9,28,33.9,56,50.9,84.1c22.9,38,45.7,76.1,68.7,114.1c34.6,57.4,69.2,114.7,103.8,172.2
		c2.2,3.7,5.1,7,6,11.4c-1.1-0.2-2.3-0.3-3.4-0.7c-11.7-5.3-23.3-10.6-34.9-15.9c-16.6-7.6-33.1-15.3-49.8-22.8
		c-24.2-11-48.5-21.9-72.6-32.9c-20.5-9.3-41-18.8-61.5-28.2c-23.3-10.6-46.5-21.4-69.9-31.7C579.4,420.7,572.9,416.5,565.3,415z"/>
	<path class="st1" d="M223.3,554.9c2.6-7.5,7.6-13.6,11.5-20.3c10-17.2,20.5-34.1,30.9-51.2c15.9-26.3,31.8-52.6,47.7-78.9
		c17.7-29.3,35.2-58.7,52.9-88c18.3-30.3,36.7-60.5,55-90.8c14.4-23.9,28.8-47.8,43.2-71.8c14.9-24.8,29.8-49.5,44.7-74.3
		c7.7-12.8,15.4-25.5,23.2-38.4c2.4,1.2,2,3,2,4.5c0,123.3,0,246.5-0.1,369.8c0,0.2,0,0.3,0,0.5c-2.1-0.2-4,0.7-5.7,1.5
		c-19.1,8.6-38.1,17.3-57.2,26c-20.3,9.3-40.5,18.6-60.7,27.8c-34.5,15.6-69,31.2-103.5,46.8c-24.7,11.2-49.2,22.6-73.9,33.7
		C230,553.2,227.1,555.6,223.3,554.9z"/>
	<path class="st2" d="M565.3,415c7.6,1.6,14.1,5.7,21,8.8c23.4,10.4,46.6,21.1,69.9,31.7c20.5,9.4,41,18.9,61.5,28.2
		c24.2,11,48.4,21.9,72.6,32.9c16.6,7.5,33.2,15.2,49.8,22.8c11.6,5.3,23.3,10.6,34.9,15.9c1,0.5,2.2,0.5,3.4,0.7
		c0.4,2.4-1.3,3.1-2.9,4c-32.4,19.1-64.8,38.1-97.1,57.3c-33.9,20.1-67.8,40.3-101.7,60.4c-35.5,21-71.1,41.9-106.6,62.8
		c-4.1,2.4-4.8,2.1-4.8-2.6C565.3,630.2,565.3,522.6,565.3,415z"/>
	<path class="st0" d="M223.3,554.9c3.8,0.7,6.7-1.7,9.8-3.1c24.7-11.1,49.3-22.5,73.9-33.7c34.5-15.6,69-31.2,103.5-46.8
		c20.3-9.2,40.5-18.6,60.7-27.8c19-8.7,38.1-17.4,57.2-26c1.8-0.8,3.7-1.7,5.7-1.5c0,1.7,0.1,3.3,0.1,5c0,104.7,0,209.3,0,314
		c0,6.9-0.5,7.2-6.3,3.8c-29.9-17.7-59.8-35.5-89.7-53.2c-32.5-19.2-65.1-38.3-97.6-57.5c-33.5-19.8-67-39.7-100.4-59.6
		c-5.7-3.4-11.3-6.9-17-10.4C223.3,557.1,223.3,556,223.3,554.9L223.3,554.9z"/>
	<path class="st0" d="M876.5,623.1c-0.9,4.8-4.5,8-7.1,11.8c-25.4,36-50.9,71.9-76.4,107.8C759,790.3,725.1,838,691.2,885.7
		c-28.8,40.5-57.6,81-86.4,121.6c-11.6,16.4-23.2,32.9-34.9,49.2c-0.9,1.3-1.5,3.7-3.4,3.2c-2.3-0.6-1.3-3.1-1.3-4.8
		c-0.1-81.3,0-162.6-0.2-243.9c0-4.5,2.1-6.3,5.5-8.3c31.8-18.7,63.5-37.7,95.3-56.4c36.1-21.3,72.2-42.5,108.3-63.7
		c32.7-19.2,65.3-38.5,97.9-57.8c1.3-0.7,2.7-1.2,4-1.8L876.5,623.1z"/>
	<path class="st1" d="M224.3,622.1c7.5,4.4,15,8.8,22.6,13.3c37.1,21.9,74.2,43.7,111.2,65.6c27.9,16.5,55.7,33.2,83.6,49.7
		c29.6,17.5,59.3,35,89,52.4c2.6,1.5,3.7,3.2,3.7,6.3c-0.1,82.5-0.1,165-0.1,247.5c0,0.8-0.1,1.6-0.2,3.9
		C430,914.1,326.7,768.6,223.5,623.1C223.7,622.8,224,622.4,224.3,622.1z"/>
	<path class="st1" d="M223.3,554.9c0,1.1,0,2.1,0,3.2C220.3,557,221.8,556,223.3,554.9z"/>
	<path class="st0" d="M-42.1,425.9c0.2-0.1,0.4-0.2,0.6-0.4c-0.1,0.2-0.3,0.4-0.4,0.6C-41.9,426.1-42.1,425.9-42.1,425.9z"/>
</g>
</svg>
