<?xml version="1.0" encoding="UTF-8" standalone="no"?>
<!-- Generator: Adobe Illustrator 23.0.1, SVG Export Plug-In . SVG Version: 6.00 Build 0)  -->

<svg
   version="1.1"
   id="Layer_1"
   x="0px"
   y="0px"
   viewBox="0 0 200 200"
   style="enable-background:new 0 0 200 200;"
   xml:space="preserve"
   sodipodi:docname="eth.svg"
   inkscape:version="1.1.2 (08b2f3d93c, 2022-04-05)"
   xmlns:inkscape="http://www.inkscape.org/namespaces/inkscape"
   xmlns:sodipodi="http://sodipodi.sourceforge.net/DTD/sodipodi-0.dtd"
   xmlns="http://www.w3.org/2000/svg"
   xmlns:svg="http://www.w3.org/2000/svg"><defs
   id="defs42" /><sodipodi:namedview
   id="namedview40"
   pagecolor="#ffffff"
   bordercolor="#666666"
   borderopacity="1.0"
   inkscape:pageshadow="2"
   inkscape:pageopacity="0.0"
   inkscape:pagecheckerboard="0"
   showgrid="false"
   inkscape:zoom="2.0175"
   inkscape:cx="160.34696"
   inkscape:cy="79.553903"
   inkscape:window-width="1878"
   inkscape:window-height="1016"
   inkscape:window-x="1962"
   inkscape:window-y="27"
   inkscape:window-maximized="1"
   inkscape:current-layer="Layer_1" />
<style
   type="text/css"
   id="style25">
	.st0{fill:#343434;}
	.st1{fill:#8C8C8C;}
	.st2{fill:#3C3C3B;}
	.st3{fill:#141414;}
	.st4{fill:#393939;}
</style>
<polygon
   class="st0"
   points="161.3,101.8 100.5,0.9 99,5.4 99,136.4 100.5,137.7 "
   id="polygon27"
   transform="matrix(0.7067977,0,0,0.7067977,29.46683,29.30557)" />
<polygon
   class="st1"
   points="100.5,0.9 39.7,101.8 100.5,137.7 100.5,74.2 "
   id="polygon29"
   transform="matrix(0.7067977,0,0,0.7067977,29.46683,29.30557)" />
<polygon
   class="st2"
   points="161.3,113.3 100.5,149.2 99.7,150.2 99.7,196.8 100.5,199 "
   id="polygon31"
   transform="matrix(0.7067977,0,0,0.7067977,29.46683,29.30557)" />
<polygon
   class="st1"
   points="100.5,149.2 39.7,113.3 100.5,199 "
   id="polygon33"
   transform="matrix(0.7067977,0,0,0.7067977,29.46683,29.30557)" />
<polygon
   class="st3"
   points="161.3,101.8 100.5,74.2 100.5,137.7 "
   id="polygon35"
   transform="matrix(0.7067977,0,0,0.7067977,29.46683,29.30557)" />
<polygon
   class="st4"
   points="100.5,137.7 100.5,74.2 39.7,101.8 "
   id="polygon37"
   transform="matrix(0.7067977,0,0,0.7067977,29.46683,29.30557)" />
</svg>
