<?xml version="1.0" standalone="no"?>
<!DOCTYPE svg PUBLIC "-//W3C//DTD SVG 20010904//EN"
 "http://www.w3.org/TR/2001/REC-SVG-20010904/DTD/svg10.dtd">
<svg version="1.0" xmlns="http://www.w3.org/2000/svg"
 width="225.000000pt" height="225.000000pt" viewBox="0 0 225.000000 225.000000"
 preserveAspectRatio="xMidYMid meet">
<metadata>
Created by potrace 1.16, written by Peter Selinger 2001-2019
</metadata>
<g transform="translate(0.000000,225.000000) scale(0.100000,-0.100000)"
fill="#000000" stroke="none">
<path d="M990 2239 c-159 -18 -360 -94 -502 -190 -87 -59 -218 -188 -278 -275
-155 -224 -228 -502 -201 -758 42 -390 270 -720 616 -894 310 -155 668 -158
983 -7 356 171 590 503 633 901 27 256 -46 534 -201 758 -60 87 -191 216 -278
275 -149 100 -340 171 -515 190 -108 12 -149 12 -257 0z m498 -776 l-3 -98
-222 -3 -223 -2 0 -70 0 -70 195 0 195 0 0 -100 0 -100 -195 0 -195 0 0 -75 0
-75 230 0 230 0 0 -100 0 -100 -355 0 -355 0 0 445 0 445 350 0 351 0 -3 -97z"/>
</g>
</svg>
