<?xml version="1.0" encoding="utf-8"?>
<!-- Generator: Adobe Illustrator 23.0.1, SVG Export Plug-In . SVG Version: 6.00 Build 0)  -->
<svg version="1.1" id="Layer_1" xmlns="http://www.w3.org/2000/svg" xmlns:xlink="http://www.w3.org/1999/xlink" x="0px" y="0px"
	 viewBox="0 0 300 300" style="enable-background:new 0 0 300 300;" xml:space="preserve">
<style type="text/css">
	.st0{opacity:0.83;fill:url(#SVGID_1_);enable-background:new    ;}
	.st1{fill-rule:evenodd;clip-rule:evenodd;fill:#474C4E;}
	.st2{clip-path:url(#SVGID_3_);}
	.st3{opacity:0.86;clip-path:url(#SVGID_5_);}
	.st4{fill-rule:evenodd;clip-rule:evenodd;fill:#899195;}
	.st5{opacity:0.41;clip-path:url(#SVGID_7_);}
	.st6{fill-rule:evenodd;clip-rule:evenodd;fill:#A0ADAD;}
	.st7{clip-path:url(#SVGID_9_);}
	.st8{opacity:0.77;clip-path:url(#SVGID_11_);}
	.st9{fill:url(#SVGID_12_);filter:url(#Adobe_OpacityMaskFilter);}
	.st10{mask:url(#m_1_);}
	.st11{fill:url(#SVGID_13_);}
	.st12{opacity:0.75;clip-path:url(#SVGID_15_);}
	.st13{fill-rule:evenodd;clip-rule:evenodd;fill:#FFFFFF;}
	.st14{opacity:0.7;clip-path:url(#SVGID_17_);}
	.st15{fill:url(#SVGID_18_);}
	.st16{fill:url(#SVGID_19_);}
	.st17{fill:url(#SVGID_20_);}
	.st18{fill:url(#SVGID_21_);}
	.st19{fill:#FFFFFF;}
	.st20{opacity:0.93;clip-path:url(#SVGID_23_);}
	.st21{clip-path:url(#SVGID_25_);}
	.st22{fill:url(#SVGID_26_);filter:url(#Adobe_OpacityMaskFilter_1_);}
	.st23{mask:url(#D_1_);}
	.st24{fill:url(#SVGID_27_);}
	.st25{clip-path:url(#SVGID_29_);}
	.st26{clip-path:url(#SVGID_31_);}
	.st27{fill:url(#SVGID_32_);filter:url(#Adobe_OpacityMaskFilter_2_);}
	.st28{mask:url(#H_1_);}
</style>
<linearGradient id="SVGID_1_" gradientUnits="userSpaceOnUse" x1="179.031" y1="668.6263" x2="179.526" y2="668.6263" gradientTransform="matrix(1.371586e-14 -223.9969 -223.9969 -1.371586e-14 149921.3438 40307.4609)">
	<stop  offset="0" style="stop-color:#DDC454"/>
	<stop  offset="0.318" style="stop-color:#DDC454"/>
	<stop  offset="1" style="stop-color:#DDC454"/>
</linearGradient>
<path class="st0" d="M95.7,149.6c0-30.6,24.8-55.4,55.4-55.4s55.4,24.8,55.4,55.4s-24.8,55.4-55.4,55.4S95.7,180.2,95.7,149.6"/>
<path class="st1" d="M46.6,208.8l104.3-62.2L255,207.8L150.9,270L46.6,208.8z"/>
<g>
	<defs>
		<rect id="SVGID_2_" x="-292.2" y="-43.9" width="901.4" height="506.8"/>
	</defs>
	<clipPath id="SVGID_3_">
		<use xlink:href="#SVGID_2_"  style="overflow:visible;"/>
	</clipPath>
	<g transform="matrix(1.33333 0 0 -1.33333 -684.119 878.667)" class="st2">
		<g>
			<defs>
				<rect id="SVGID_4_" x="613.2" y="480.6" width="104.3" height="179.8"/>
			</defs>
			<clipPath id="SVGID_5_">
				<use xlink:href="#SVGID_4_"  style="overflow:visible;"/>
			</clipPath>
			<g class="st3">
				<path class="st4" d="M626.3,638l78.3-46.6l-0.2-88.2L626.3,549L626.3,638z"/>
			</g>
		</g>
		<g>
			<defs>
				<rect id="SVGID_6_" x="535" y="479.8" width="104.3" height="180.7"/>
			</defs>
			<clipPath id="SVGID_7_">
				<use xlink:href="#SVGID_6_"  style="overflow:visible;"/>
			</clipPath>
			<g class="st5">
				<path class="st6" d="M626.3,638l-78.2-46.6v-88.9l78.2,46.6V638z"/>
			</g>
		</g>
		<g>
			<g>
				<defs>
					<rect id="SVGID_8_" x="570.8" y="479.7" width="112.8" height="73.4"/>
				</defs>
				<clipPath id="SVGID_9_">
					<use xlink:href="#SVGID_8_"  style="overflow:visible;"/>
				</clipPath>
				<g class="st7">
					<g>
						<defs>
							<path id="SVGID_10_" d="M584.9,516.4c0,15.2,18.9,27.5,42.3,27.5c23.4,0,42.3-12.3,42.3-27.5c0-15.2-18.9-27.5-42.3-27.5
								C603.9,488.8,584.9,501.2,584.9,516.4"/>
						</defs>
						<clipPath id="SVGID_11_">
							<use xlink:href="#SVGID_10_"  style="overflow:visible;"/>
						</clipPath>
						<g class="st8">
							<defs>
								<filter id="Adobe_OpacityMaskFilter" filterUnits="userSpaceOnUse" x="584.9" y="-543.9" width="84.6" height="55">
									<feColorMatrix  type="matrix" values="1 0 0 0 0  0 1 0 0 0  0 0 1 0 0  0 0 0 1 0"/>
								</filter>
							</defs>
							<mask maskUnits="userSpaceOnUse" x="584.9" y="-543.9" width="84.6" height="55" id="m_1_">
								
									<radialGradient id="SVGID_12_" cx="643.1212" cy="159.0911" r="0.4949" gradientTransform="matrix(85.4338 0 0 55.5966 -54146.4414 -8360.3525)" gradientUnits="userSpaceOnUse">
									<stop  offset="0" style="stop-color:#FFFFFF"/>
									<stop  offset="0.626" style="stop-color:#FFFFFF"/>
									<stop  offset="1" style="stop-color:#FFFFFF;stop-opacity:0"/>
								</radialGradient>
								<path class="st9" d="M-11615.5-11525.1H12711v24326.5h-24326.5V-11525.1z"/>
							</mask>
							<g class="st10">
								
									<radialGradient id="SVGID_13_" cx="645.687" cy="158.2006" r="0.4949" gradientTransform="matrix(113.9115 0 0 -74.1286 -72923.9219 12243.5508)" gradientUnits="userSpaceOnUse">
									<stop  offset="0" style="stop-color:#1D1D1B"/>
									<stop  offset="0.626" style="stop-color:#1D1D1B"/>
									<stop  offset="1" style="stop-color:#1D1D1B"/>
								</radialGradient>
								<path class="st11" d="M584.9,516.4c0,15.2,18.9,27.5,42.3,27.5c23.4,0,42.3-12.3,42.3-27.5c0-15.2-18.9-27.5-42.3-27.5
									C603.9,488.8,584.9,501.2,584.9,516.4"/>
							</g>
						</g>
					</g>
				</g>
			</g>
		</g>
	</g>
</g>
<g>
	<g>
		<defs>
			<rect id="SVGID_14_" x="46.6" y="90.2" width="104.6" height="179.8"/>
		</defs>
		<clipPath id="SVGID_15_">
			<use xlink:href="#SVGID_14_"  style="overflow:visible;"/>
		</clipPath>
		<g transform="matrix(1.3362 0 0 -1.33333 -685.588 878.667)" class="st12">
			<path class="st13" d="M547.9,502.4l78.3-45.9v88.2L548,591.4L547.9,502.4z"/>
		</g>
	</g>
</g>
<g>
	<g>
		<defs>
			<rect id="SVGID_16_" x="150.7" y="90.3" width="104.6" height="179.7"/>
		</defs>
		<clipPath id="SVGID_17_">
			<use xlink:href="#SVGID_16_"  style="overflow:visible;"/>
		</clipPath>
		<g transform="matrix(1.3362 0 0 -1.33333 -686.492 878.667)" class="st14">
			<path class="st13" d="M704.8,591.3l-78.3-46.6v-88.2l78.1,46.6L704.8,591.3z"/>
		</g>
	</g>
</g>
<linearGradient id="SVGID_18_" gradientUnits="userSpaceOnUse" x1="475.9666" y1="667.6175" x2="549.7964" y2="667.6175" gradientTransform="matrix(-148.1674 33.266 33.266 148.1674 4719.7153 -104765.6719)">
	<stop  offset="0" style="stop-color:#FFFFFF"/>
	<stop  offset="1" style="stop-color:#D1D1D1"/>
</linearGradient>
<path class="st15" d="M105.9,144.3c-8.5,8-2.7,27.2,3.3,41.4c10.1,11.7,25.1,19.1,41.8,19.1c21.3,0,39.8-12,49-29.7l-50.9-4.6
	l8.7-30.4l-3.1-16.3C154.7,123.9,120.1,131,105.9,144.3"/>
<linearGradient id="SVGID_19_" gradientUnits="userSpaceOnUse" x1="180.5942" y1="667.4559" x2="181.0891" y2="667.4559" gradientTransform="matrix(-148.1674 33.266 33.266 148.1674 4719.7153 -104765.6719)">
	<stop  offset="0" style="stop-color:#FFFFFF"/>
	<stop  offset="1" style="stop-color:#D1D1D1"/>
</linearGradient>
<path class="st16" d="M95.8,149.6c0,16.8,7.5,31.8,19.2,41.9c-3.2-15.7-7.7-58.2,36.1-62.8c12.3,4.9,13.7,10.6,13.7,10.6l7.3,5.3
	l-8-31.8l-45-8.3C104.9,114.5,95.8,131,95.8,149.6"/>
<linearGradient id="SVGID_20_" gradientUnits="userSpaceOnUse" x1="177.8644" y1="668.6387" x2="178.3594" y2="668.6387" gradientTransform="matrix(112.4052 -112.4052 -112.4052 -112.4052 55315.9219 95333.2344)">
	<stop  offset="0" style="stop-color:#FFFFFF"/>
	<stop  offset="1" style="stop-color:#CECECE"/>
</linearGradient>
<path class="st17" d="M180.1,145.7l-20.2,4.2c0,0-11.5-17.1-27.5,4.1c8.7,37.8,47.6,34.3,60.2,32.1c8.6-9.7,13.8-22.5,13.8-36.5
	c0-18.8-9.4-35.4-23.7-45.4L180.1,145.7z"/>
<linearGradient id="SVGID_21_" gradientUnits="userSpaceOnUse" x1="179.1304" y1="665.963" x2="179.6253" y2="665.963" gradientTransform="matrix(34.8997 151.071 151.071 -34.8997 -106714.3203 -3729.9165)">
	<stop  offset="0" style="stop-color:#CECECE"/>
	<stop  offset="1" style="stop-color:#FFFFFF"/>
</linearGradient>
<path class="st18" d="M110.9,111.5c9.9-1.6,28.5-2.7,41.9,6.3c15.7,10.6,17.9,20.6,19.2,28.5c1,6-18.5,22.4-18.5,22.4
	s25.8,0.2,33.9-28.3c3.2-11.2,2.7-22.5,1.2-31.4c-9.9-9.1-23.1-14.7-37.6-14.7C135.3,94.3,121,100.9,110.9,111.5"/>
<path class="st19" d="M132.3,148.7c0-11,8.9-19.9,19.9-19.9c11,0,19.9,8.9,19.9,19.9c0,11-8.9,19.9-19.9,19.9
	C141.2,168.6,132.3,159.7,132.3,148.7"/>
<g>
	<defs>
		<rect id="SVGID_22_" x="127" y="123.5" width="50.4" height="50.4"/>
	</defs>
	<clipPath id="SVGID_23_">
		<use xlink:href="#SVGID_22_"  style="overflow:visible;"/>
	</clipPath>
	<g transform="matrix(1.33333 0 0 -1.33333 -684.119 878.667)" class="st20">
		<g>
			<defs>
				<path id="SVGID_24_" d="M608.3,547.5c0,10.4,8.5,18.9,18.9,18.9c10.4,0,18.9-8.5,18.9-18.9c0-10.4-8.5-18.9-18.9-18.9
					C616.8,528.6,608.3,537,608.3,547.5"/>
			</defs>
			<clipPath id="SVGID_25_">
				<use xlink:href="#SVGID_24_"  style="overflow:visible;"/>
			</clipPath>
			<g class="st21">
				<defs>
					<filter id="Adobe_OpacityMaskFilter_1_" filterUnits="userSpaceOnUse" x="608.3" y="-566.4" width="37.8" height="37.8">
						<feColorMatrix  type="matrix" values="1 0 0 0 0  0 1 0 0 0  0 0 1 0 0  0 0 0 1 0"/>
					</filter>
				</defs>
				<mask maskUnits="userSpaceOnUse" x="608.3" y="-566.4" width="37.8" height="37.8" id="D_1_">
					
						<radialGradient id="SVGID_26_" cx="637.9877" cy="160.0605" r="0.4949" gradientTransform="matrix(38.1846 0 0 38.1846 -23563.4336 -5650.5928)" gradientUnits="userSpaceOnUse">
						<stop  offset="0" style="stop-color:#FFFFFF"/>
						<stop  offset="0.849" style="stop-color:#FFFFFF"/>
						<stop  offset="1" style="stop-color:#FFFFFF;stop-opacity:0"/>
					</radialGradient>
					<path class="st22" d="M-11615.5-11525.1H12711v24326.5h-24326.5V-11525.1z"/>
				</mask>
				<g class="st23">
					
						<radialGradient id="SVGID_27_" cx="643.7283" cy="158.764" r="0.4949" gradientTransform="matrix(50.9126 0 0 -50.9126 -32146.6777 8630.5459)" gradientUnits="userSpaceOnUse">
						<stop  offset="0" style="stop-color:#FFFFFF"/>
						<stop  offset="0.849" style="stop-color:#FFFFFF"/>
						<stop  offset="1" style="stop-color:#FFFFFF"/>
					</radialGradient>
					<path class="st24" d="M608.3,547.5c0,10.4,8.5,18.9,18.9,18.9c10.4,0,18.9-8.5,18.9-18.9c0-10.4-8.5-18.9-18.9-18.9
						C616.8,528.6,608.3,537,608.3,547.5"/>
				</g>
			</g>
		</g>
	</g>
</g>
<g>
	<g>
		<defs>
			<rect id="SVGID_28_" x="46.6" y="28" width="208.7" height="123.4"/>
		</defs>
		<clipPath id="SVGID_29_">
			<use xlink:href="#SVGID_28_"  style="overflow:visible;"/>
		</clipPath>
		<g transform="matrix(1.33333 0 0 -1.33333 -684.119 878.667)" class="st25">
			<g>
				<defs>
					<polygon id="SVGID_30_" points="548.1,591.4 626.3,638 704.5,591.3 626.3,545.4 					"/>
				</defs>
				<clipPath id="SVGID_31_">
					<use xlink:href="#SVGID_30_"  style="overflow:visible;"/>
				</clipPath>
				<g class="st26">
					<defs>
						<filter id="Adobe_OpacityMaskFilter_2_" filterUnits="userSpaceOnUse" x="548.1" y="-638" width="156.5" height="92.6">
							<feColorMatrix  type="matrix" values="1 0 0 0 0  0 1 0 0 0  0 0 1 0 0  0 0 0 1 0"/>
						</filter>
					</defs>
					<mask maskUnits="userSpaceOnUse" x="548.1" y="-638" width="156.5" height="92.6" id="H_1_">
						
							<linearGradient id="SVGID_32_" gradientUnits="userSpaceOnUse" x1="646.9252" y1="155.1067" x2="647.4202" y2="155.1067" gradientTransform="matrix(0 -186.9994 186.9994 0 -28457.1484 121437.4141)">
							<stop  offset="0" style="stop-color:#FFFFFF;stop-opacity:0"/>
							<stop  offset="0.375" style="stop-color:#FFFFFF;stop-opacity:0"/>
							<stop  offset="1" style="stop-color:#FFFFFF;stop-opacity:0.7"/>
						</linearGradient>
						<path class="st27" d="M-11615.5-11525.1H12711v24326.5h-24326.5V-11525.1z"/>
					</mask>
					<g class="st28">
						<path class="st13" d="M548.1,591.4l78.2,46.6l78.3-46.6l-78.3-45.9L548.1,591.4z"/>
					</g>
				</g>
			</g>
		</g>
	</g>
</g>
</svg>
