<?xml version="1.0" encoding="utf-8"?>
<!-- Generator: Adobe Illustrator 23.0.1, SVG Export Plug-In . SVG Version: 6.00 Build 0)  -->
<svg version="1.1" id="Layer_1" xmlns="http://www.w3.org/2000/svg" xmlns:xlink="http://www.w3.org/1999/xlink" x="0px" y="0px"
	 viewBox="0 0 300 300" style="enable-background:new 0 0 300 300;" xml:space="preserve">
<style type="text/css">
	.st0{fill:#FBFBFB;}
	.st1{fill-opacity:0;stroke:#000000;stroke-opacity:0;}
</style>
<g>
	<g>
		<g>
			<g>
				<path id="jfupHWqEA" class="st0" d="M139.9,37.6c5.6-3,14-3,19.6,0l0,0c34,18,52.9,28,56.7,30c3.4,1.7,5.2,4.4,5.6,7.1
					c0,0,0,0,0.1,0c0,90.4,0,140.5,0,150.6c-0.1,3-1.9,5.9-5.6,7.9l0,0c-34,18-52.9,28-56.7,30c-5.6,3-14,3-19.6,0l0,0
					c-34-18-52.9-28-56.7-30c-3.6-1.9-5.4-4.9-5.5-7.9c0-0.3,0-0.6,0-0.8c0-14.9,0-133.9,0-148.9c0-0.2,0-0.4,0-0.7c0,0,0-0.2,0-0.4
					l0,0c0.3-2.8,2-5.3,5.5-7.1l0,0C113.5,51.6,132.5,41.6,139.9,37.6z M159.6,186.9c-5.6,3-14,3-19.6,0l0,0l-53.3-28.2V225
					c31.9,16.8,49.7,26.1,53.2,28c3.2,1.7,6.4,3.4,9.6,3.4h0.2c3.2,0,6.2-1.6,9.4-3.2l0,0l53.8-28.5v-66
					C180.9,175.6,163.1,185,159.6,186.9z M70.6,234.3c1.1,2.2,2.8,3.9,5.8,5.9l0.2,0.1c0.7,0.5,1.4,1,2.3,1.4c0.1,0,0.4,0.3,1.1,0.7
					l3.3,1.9l-4.6,7.7l-3.6-2.2c-0.4-0.2-0.6-0.4-0.6-0.4c-1.1-0.7-1.9-1.2-2.7-1.7c-8.6-5.8-11.8-12.2-11.9-25.3c0,0,0-0.2,0-0.4
					h8.9C69,228.3,69.7,232.4,70.6,234.3z M145.3,118.3c-0.4,0.1-0.8,0.3-1.2,0.5l0,0c-34,18-52.9,28-56.7,30
					c-0.1,0-0.1,0.1-0.2,0.1l0,0l0,0l0.1,0.1l0.1,0.1c34,18,52.9,28,56.7,30c0.4,0.2,0.8,0.4,1.2,0.5
					C145.3,167.3,145.3,130.6,145.3,118.3z M154.2,179.4c0.4-0.1,0.8-0.3,1.2-0.5l0,0c34-18,52.9-28,56.7-30c0.1,0,0.1-0.1,0.2-0.1
					l0,0l0,0l-0.1-0.1l-0.1-0.1c-34-18-52.9-28-56.7-30c-0.4-0.2-0.8-0.4-1.2-0.5C154.2,130.6,154.2,173.4,154.2,179.4z M162,112.2
					l50.9,26.8V85.3L162,112.2z M86.7,139.1l50.8-26.8L86.7,85.4V139.1z M155.4,45.5c-3-1.5-8.2-1.5-11.2,0l0,0
					c-34,18-52.9,28-56.7,30c-0.1,0-0.1,0.1-0.2,0.1l0,0l0,0l0.1,0.1l0.1,0.1c34,18,52.9,28,56.7,30c3,1.5,8.2,1.5,11.2,0l0,0
					c34-18,52.9-28,56.7-30c0.1,0,0.1-0.1,0.2-0.1l0,0l0,0l-0.1-0.1l-0.1-0.1C181.8,59.4,162.9,49.5,155.4,45.5z M224.9,51
					c0.4,0.2,0.6,0.4,0.6,0.4c1.1,0.7,1.9,1.2,2.7,1.7c8.6,5.8,11.8,12.2,11.9,25.3c0,0,0,0.2,0,0.4c-5.4,0-8.3,0-8.9,0
					c0-5.8-0.7-9.6-2-12.3c-1.1-2.2-2.8-3.9-5.8-5.9l-0.2-0.1c-0.7-0.5-1.4-1-2.3-1.4c-0.1,0-0.4-0.3-1.1-0.7l-3.3-1.9l4.6-7.7
					L224.9,51z"/>
			</g>
			<g>
				<g>
					<path class="st1" d="M139.9,37.6c5.6-3,14-3,19.6,0l0,0c34,18,52.9,28,56.7,30c3.4,1.7,5.2,4.4,5.6,7.1c0,0,0,0,0.1,0
						c0,90.4,0,140.5,0,150.6c-0.1,3-1.9,5.9-5.6,7.9l0,0c-34,18-52.9,28-56.7,30c-5.6,3-14,3-19.6,0l0,0c-34-18-52.9-28-56.7-30
						c-3.6-1.9-5.4-4.9-5.5-7.9c0-0.3,0-0.6,0-0.8c0-14.9,0-133.9,0-148.9c0-0.2,0-0.4,0-0.7c0,0,0-0.2,0-0.4l0,0
						c0.3-2.8,2-5.3,5.5-7.1l0,0C113.5,51.6,132.5,41.6,139.9,37.6z M159.6,186.9c-5.6,3-14,3-19.6,0l0,0l-53.3-28.2V225
						c31.9,16.8,49.7,26.1,53.2,28c3.2,1.7,6.4,3.4,9.6,3.4h0.2c3.2,0,6.2-1.6,9.4-3.2l0,0l53.8-28.5v-66
						C180.9,175.6,163.1,185,159.6,186.9z M70.6,234.3c1.1,2.2,2.8,3.9,5.8,5.9l0.2,0.1c0.7,0.5,1.4,1,2.3,1.4
						c0.1,0,0.4,0.3,1.1,0.7l3.3,1.9l-4.6,7.7l-3.6-2.2c-0.4-0.2-0.6-0.4-0.6-0.4c-1.1-0.7-1.9-1.2-2.7-1.7
						c-8.6-5.8-11.8-12.2-11.9-25.3c0,0,0-0.2,0-0.4h8.9C69,228.3,69.7,232.4,70.6,234.3z M145.3,118.3c-0.4,0.1-0.8,0.3-1.2,0.5
						l0,0c-34,18-52.9,28-56.7,30c-0.1,0-0.1,0.1-0.2,0.1l0,0l0,0l0.1,0.1l0.1,0.1c34,18,52.9,28,56.7,30c0.4,0.2,0.8,0.4,1.2,0.5
						C145.3,167.3,145.3,130.6,145.3,118.3z M154.2,179.4c0.4-0.1,0.8-0.3,1.2-0.5l0,0c34-18,52.9-28,56.7-30c0.1,0,0.1-0.1,0.2-0.1
						l0,0l0,0l-0.1-0.1l-0.1-0.1c-34-18-52.9-28-56.7-30c-0.4-0.2-0.8-0.4-1.2-0.5C154.2,130.6,154.2,173.4,154.2,179.4z M162,112.2
						l50.9,26.8V85.3L162,112.2z M86.7,139.1l50.8-26.8L86.7,85.4V139.1z M155.4,45.5c-3-1.5-8.2-1.5-11.2,0l0,0
						c-34,18-52.9,28-56.7,30c-0.1,0-0.1,0.1-0.2,0.1l0,0l0,0l0.1,0.1l0.1,0.1c34,18,52.9,28,56.7,30c3,1.5,8.2,1.5,11.2,0l0,0
						c34-18,52.9-28,56.7-30c0.1,0,0.1-0.1,0.2-0.1l0,0l0,0l-0.1-0.1l-0.1-0.1C181.8,59.4,162.9,49.5,155.4,45.5z M224.9,51
						c0.4,0.2,0.6,0.4,0.6,0.4c1.1,0.7,1.9,1.2,2.7,1.7c8.6,5.8,11.8,12.2,11.9,25.3c0,0,0,0.2,0,0.4c-5.4,0-8.3,0-8.9,0
						c0-5.8-0.7-9.6-2-12.3c-1.1-2.2-2.8-3.9-5.8-5.9l-0.2-0.1c-0.7-0.5-1.4-1-2.3-1.4c-0.1,0-0.4-0.3-1.1-0.7l-3.3-1.9l4.6-7.7
						L224.9,51z"/>
				</g>
			</g>
		</g>
	</g>
</g>
</svg>
