<svg version="1.1" xmlns="http://www.w3.org/2000/svg" xmlns:xlink="http://www.w3.org/1999/xlink"
     preserveAspectRatio="xMidYMid meet" viewBox="0 0 640 640" width="640" height="640">
  <defs>
    <path
      d="M292.44 8.1C307.83 -0.03 331.26 -0.03 346.65 8.1C346.65 8.1 346.65 8.1 346.65 8.1C440.89 57.89 493.25 85.54 503.72 91.07C513 95.97 518.09 103.27 519 110.8C519.01 110.8 519.06 110.8 519.15 110.8C519.15 361.04 519.15 500.07 519.15 527.87C518.94 536.09 513.81 544.25 503.72 549.58C503.72 549.58 503.72 549.58 503.72 549.58C409.48 599.36 357.12 627.02 346.65 632.55C331.26 640.68 307.83 640.68 292.44 632.55C292.44 632.55 292.44 632.55 292.44 632.55C198.2 582.77 145.84 555.11 135.37 549.58C125.33 544.27 120.51 536.05 120.27 527.87C120.25 527.03 120.25 526.34 120.27 525.77C120.27 484.55 120.27 154.83 120.27 113.61C120.25 113.03 120.25 112.45 120.27 111.88C120.27 111.81 120.27 111.45 120.27 110.8C120.31 110.8 120.34 110.8 120.34 110.8C121.04 103.19 125.9 96.08 135.37 91.07C135.37 91.07 135.37 91.07 135.37 91.07C219.14 46.82 271.5 19.16 292.44 8.1ZM346.65 421.54C331.26 429.67 307.83 429.67 292.44 421.54C292.44 421.54 292.44 421.54 292.44 421.54L144.99 343.66L144.99 527.05C233.46 573.53 282.61 599.36 292.44 604.52C301.15 609.18 310.21 613.72 319.04 613.91C319.09 613.91 319.49 613.92 319.55 613.92C328.35 613.95 336.9 609.48 345.57 605.25C345.57 605.25 345.57 605.25 345.57 605.25L494.42 526.38L494.42 343.48C405.76 390.32 356.5 416.34 346.65 421.54ZM100.27 552.68C103.32 558.82 107.91 563.5 116.28 569.21C116.33 569.24 116.71 569.5 116.76 569.53C118.6 570.77 120.62 572.07 123.08 573.59C123.28 573.71 124.25 574.3 125.99 575.37L134.91 580.76L122.11 601.92L112.13 595.88C111.12 595.27 110.56 594.92 110.45 594.85C107.56 593.07 105.17 591.54 102.94 590.03C79.08 573.95 70.18 556.4 70 519.91C70 519.84 70 519.47 70 518.8L94.72 518.8C95.96 536.46 97.81 547.75 100.27 552.68ZM307.18 231.7C306.04 232.09 304.97 232.54 303.99 233.06C303.99 233.06 303.99 233.06 303.99 233.06C209.74 282.84 157.38 310.5 146.91 316.03C146.75 316.12 146.59 316.21 146.44 316.29C146.44 316.29 146.44 316.29 146.44 316.29L146.31 316.37L146.55 316.51L146.91 316.7C241.16 366.49 293.52 394.15 303.99 399.68C304.97 400.19 306.04 400.65 307.18 401.04C307.18 367.17 307.18 265.56 307.18 231.7ZM331.91 401.04C333.05 400.65 334.12 400.19 335.1 399.68C335.1 399.68 335.1 399.68 335.1 399.68C429.35 349.89 481.71 322.24 492.18 316.7C492.34 316.62 492.5 316.53 492.65 316.45C492.65 316.45 492.65 316.45 492.65 316.45L492.78 316.37L492.54 316.23L492.18 316.03C397.93 266.25 345.57 238.59 335.1 233.06C334.12 232.54 333.05 232.09 331.91 231.7C331.91 265.56 331.91 384.11 331.91 401.04ZM353.52 214.82L494.42 289.26L494.42 140.39L353.52 214.82ZM144.99 289.08L285.57 214.82L144.99 140.56L144.99 289.08ZM335.1 29.97C326.93 25.65 312.16 25.65 303.99 29.97C303.99 29.97 303.99 29.97 303.99 29.97C209.74 79.75 157.38 107.41 146.91 112.94C146.75 113.03 146.59 113.11 146.44 113.2C146.44 113.2 146.44 113.2 146.44 113.2L146.31 113.28L146.55 113.42L146.91 113.61C241.16 163.4 293.52 191.05 303.99 196.58C312.16 200.9 326.93 200.9 335.1 196.58C335.1 196.58 335.1 196.58 335.1 196.58C429.35 146.8 481.71 119.14 492.18 113.61C492.34 113.52 492.5 113.44 492.65 113.35C492.65 113.35 492.65 113.35 492.65 113.35L492.78 113.28L492.54 113.13L492.18 112.94C408.4 68.69 356.05 41.03 335.1 29.97ZM527.62 45.1C528.63 45.72 529.19 46.06 529.3 46.13C532.19 47.91 534.58 49.44 536.81 50.95C560.67 67.04 569.57 84.58 569.75 121.07C569.75 121.14 569.75 121.51 569.75 122.18C554.92 122.18 546.67 122.18 545.03 122.18C545.03 106.2 543.17 95.69 539.48 88.3C536.43 82.16 531.84 77.48 523.47 71.77C523.42 71.74 523.04 71.48 522.99 71.45C521.15 70.21 519.13 68.91 516.67 67.39C516.47 67.27 515.5 66.68 513.76 65.61L504.84 60.22L517.64 39.07L527.62 45.1Z"
      id="jfupHWqEA"/>
  </defs>
  <g>
    <g>
      <g>
        <use xlink:href="#jfupHWqEA" opacity="1" fill="#fbfbfb" fill-opacity="1"/>
        <g>
          <use xlink:href="#jfupHWqEA" opacity="1" fill-opacity="0" stroke="#000000" stroke-width="1"
               stroke-opacity="0"/>
        </g>
      </g>
    </g>
  </g>
</svg>
