<?xml version="1.0" encoding="utf-8"?>
<!-- Generator: Adobe Illustrator 23.0.1, SVG Export Plug-In . SVG Version: 6.00 Build 0)  -->
<svg version="1.1" id="Layer_1" xmlns="http://www.w3.org/2000/svg" xmlns:xlink="http://www.w3.org/1999/xlink" x="0px" y="0px"
	 viewBox="0 0 300 300" style="enable-background:new 0 0 300 300;" xml:space="preserve">
<style type="text/css">
	.st0{fill:#FBFBFB;}
	.st1{fill-opacity:0;stroke:#000000;stroke-opacity:0;}
</style>
<g>
	<g>
		<g>
			<g>
				<path id="jfupHWqEA" class="st0" d="M139.5,32.7c5.8-3.1,14.6-3.1,20.4,0l0,0c35.5,18.8,55.2,29.2,59.2,31.3
					c3.5,1.8,5.4,4.6,5.8,7.4c0,0,0,0,0.1,0c0,94.3,0,146.6,0,157.1c-0.1,3.1-2,6.2-5.8,8.2l0,0c-35.5,18.8-55.2,29.2-59.2,31.3
					c-5.8,3.1-14.6,3.1-20.4,0l0,0c-35.5-18.8-55.2-29.2-59.2-31.3c-3.8-2-5.6-5.1-5.7-8.2c0-0.3,0-0.6,0-0.8
					c0-15.5,0-139.7,0-155.3c0-0.2,0-0.4,0-0.7c0,0,0-0.2,0-0.4c0,0,0,0,0,0c0.3-2.9,2.1-5.5,5.7-7.4l0,0
					C111.9,47.3,131.7,36.9,139.5,32.7z M160,188.5c-5.8,3.1-14.6,3.1-20.4,0l0,0L84,159.1v69.1c33.3,17.5,51.8,27.2,55.5,29.2
					c3.3,1.8,6.7,3.5,10,3.5c0,0,0.2,0,0.2,0c3.3,0,6.5-1.7,9.8-3.3l0,0l56.1-29.7V159C182.2,176.7,163.7,186.5,160,188.5z
					 M67.2,237.9c1.1,2.3,2.9,4.1,6,6.2c0,0,0.2,0.1,0.2,0.1c0.7,0.5,1.5,1,2.4,1.5c0.1,0,0.4,0.3,1.1,0.7l3.4,2l-4.8,8l-3.8-2.3
					c-0.4-0.2-0.6-0.4-0.6-0.4c-1.1-0.7-2-1.2-2.8-1.8c-9-6.1-12.3-12.7-12.4-26.4c0,0,0-0.2,0-0.4h9.3
					C65.5,231.7,66.2,236,67.2,237.9z M145.1,116.9c-0.4,0.1-0.8,0.3-1.2,0.5l0,0c-35.5,18.8-55.2,29.2-59.2,31.3
					c-0.1,0-0.1,0.1-0.2,0.1l0,0l0,0l0.1,0.1l0.1,0.1c35.5,18.8,55.2,29.2,59.2,31.3c0.4,0.2,0.8,0.4,1.2,0.5
					C145.1,168,145.1,129.7,145.1,116.9z M154.4,180.7c0.4-0.1,0.8-0.3,1.2-0.5l0,0c35.5-18.8,55.2-29.2,59.2-31.3
					c0.1,0,0.1-0.1,0.2-0.1l0,0l0,0l-0.1-0.1l-0.1-0.1c-35.5-18.8-55.2-29.2-59.2-31.3c-0.4-0.2-0.8-0.4-1.2-0.5
					C154.4,129.7,154.4,174.4,154.4,180.7z M162.5,110.6l53.1,28V82.5L162.5,110.6z M84,138.6l53-28l-53-28V138.6z M155.6,41
					c-3.1-1.6-8.6-1.6-11.7,0l0,0c-35.5,18.8-55.2,29.2-59.2,31.3c-0.1,0-0.1,0.1-0.2,0.1l0,0l0,0l0.1,0.1l0.1,0.1
					c35.5,18.8,55.2,29.2,59.2,31.3c3.1,1.6,8.6,1.6,11.7,0l0,0c35.5-18.8,55.2-29.2,59.2-31.3c0.1,0,0.1-0.1,0.2-0.1l0,0l0,0
					l-0.1-0.1l-0.1-0.1C183.2,55.5,163.5,45.1,155.6,41z M228.1,46.7c0.4,0.2,0.6,0.4,0.6,0.4c1.1,0.7,2,1.2,2.8,1.8
					c9,6.1,12.3,12.7,12.4,26.4c0,0,0,0.2,0,0.4c-5.6,0-8.7,0-9.3,0c0-6-0.7-10-2.1-12.8c-1.1-2.3-2.9-4.1-6-6.2
					c0,0-0.2-0.1-0.2-0.1c-0.7-0.5-1.5-1-2.4-1.5c-0.1,0-0.4-0.3-1.1-0.7l-3.4-2l4.8-8L228.1,46.7z"/>
			</g>
			<g>
				<g>
					<path class="st1" d="M139.5,32.7c5.8-3.1,14.6-3.1,20.4,0l0,0c35.5,18.8,55.2,29.2,59.2,31.3c3.5,1.8,5.4,4.6,5.8,7.4
						c0,0,0,0,0.1,0c0,94.3,0,146.6,0,157.1c-0.1,3.1-2,6.2-5.8,8.2l0,0c-35.5,18.8-55.2,29.2-59.2,31.3c-5.8,3.1-14.6,3.1-20.4,0
						l0,0c-35.5-18.8-55.2-29.2-59.2-31.3c-3.8-2-5.6-5.1-5.7-8.2c0-0.3,0-0.6,0-0.8c0-15.5,0-139.7,0-155.3c0-0.2,0-0.4,0-0.7
						c0,0,0-0.2,0-0.4c0,0,0,0,0,0c0.3-2.9,2.1-5.5,5.7-7.4l0,0C111.9,47.3,131.7,36.9,139.5,32.7z M160,188.5
						c-5.8,3.1-14.6,3.1-20.4,0l0,0L84,159.1v69.1c33.3,17.5,51.8,27.2,55.5,29.2c3.3,1.8,6.7,3.5,10,3.5c0,0,0.2,0,0.2,0
						c3.3,0,6.5-1.7,9.8-3.3l0,0l56.1-29.7V159C182.2,176.7,163.7,186.5,160,188.5z M67.2,237.9c1.1,2.3,2.9,4.1,6,6.2
						c0,0,0.2,0.1,0.2,0.1c0.7,0.5,1.5,1,2.4,1.5c0.1,0,0.4,0.3,1.1,0.7l3.4,2l-4.8,8l-3.8-2.3c-0.4-0.2-0.6-0.4-0.6-0.4
						c-1.1-0.7-2-1.2-2.8-1.8c-9-6.1-12.3-12.7-12.4-26.4c0,0,0-0.2,0-0.4h9.3C65.5,231.7,66.2,236,67.2,237.9z M145.1,116.9
						c-0.4,0.1-0.8,0.3-1.2,0.5l0,0c-35.5,18.8-55.2,29.2-59.2,31.3c-0.1,0-0.1,0.1-0.2,0.1l0,0l0,0l0.1,0.1l0.1,0.1
						c35.5,18.8,55.2,29.2,59.2,31.3c0.4,0.2,0.8,0.4,1.2,0.5C145.1,168,145.1,129.7,145.1,116.9z M154.4,180.7
						c0.4-0.1,0.8-0.3,1.2-0.5l0,0c35.5-18.8,55.2-29.2,59.2-31.3c0.1,0,0.1-0.1,0.2-0.1l0,0l0,0l-0.1-0.1l-0.1-0.1
						c-35.5-18.8-55.2-29.2-59.2-31.3c-0.4-0.2-0.8-0.4-1.2-0.5C154.4,129.7,154.4,174.4,154.4,180.7z M162.5,110.6l53.1,28V82.5
						L162.5,110.6z M84,138.6l53-28l-53-28V138.6z M155.6,41c-3.1-1.6-8.6-1.6-11.7,0l0,0c-35.5,18.8-55.2,29.2-59.2,31.3
						c-0.1,0-0.1,0.1-0.2,0.1l0,0l0,0l0.1,0.1l0.1,0.1c35.5,18.8,55.2,29.2,59.2,31.3c3.1,1.6,8.6,1.6,11.7,0l0,0
						c35.5-18.8,55.2-29.2,59.2-31.3c0.1,0,0.1-0.1,0.2-0.1l0,0l0,0l-0.1-0.1l-0.1-0.1C183.2,55.5,163.5,45.1,155.6,41z M228.1,46.7
						c0.4,0.2,0.6,0.4,0.6,0.4c1.1,0.7,2,1.2,2.8,1.8c9,6.1,12.3,12.7,12.4,26.4c0,0,0,0.2,0,0.4c-5.6,0-8.7,0-9.3,0
						c0-6-0.7-10-2.1-12.8c-1.1-2.3-2.9-4.1-6-6.2c0,0-0.2-0.1-0.2-0.1c-0.7-0.5-1.5-1-2.4-1.5c-0.1,0-0.4-0.3-1.1-0.7l-3.4-2l4.8-8
						L228.1,46.7z"/>
				</g>
			</g>
		</g>
	</g>
</g>
</svg>
