<?xml version="1.0" encoding="utf-8"?>
<!-- Generator: Adobe Illustrator 23.0.1, SVG Export Plug-In . SVG Version: 6.00 Build 0)  -->
<svg version="1.1" id="Layer_1" xmlns="http://www.w3.org/2000/svg" xmlns:xlink="http://www.w3.org/1999/xlink" x="0px" y="0px"
	 viewBox="0 0 300 300" style="enable-background:new 0 0 300 300;" xml:space="preserve">
<style type="text/css">
	.st0{fill-rule:evenodd;clip-rule:evenodd;}
	.st1{fill-rule:evenodd;clip-rule:evenodd;fill:url(#SVGID_1_);}
	.st2{fill-rule:evenodd;clip-rule:evenodd;fill:#25435A;}
</style>
<title>Group 8</title>
<desc>Created with Sketch.</desc>
<g id="community-page-home">
	<g id="community-page-new" transform="translate(-638.000000, -619.000000)">
		<g id="Group-8" transform="translate(640.000000, 621.000000)">
			<g id="Rectangle">
				<g>
					<path id="path-2" class="st0" d="M148-1L148-1c82.3,0,149,66.7,149,149l0,0c0,82.3-66.7,149-149,149l0,0
						C65.7,297-1,230.3-1,148l0,0C-1,65.7,65.7-1,148-1z"/>
				</g>
				<g>
					
						<linearGradient id="SVGID_1_" gradientUnits="userSpaceOnUse" x1="-153.2116" y1="540.8021" x2="-149.3434" y2="534.4266" gradientTransform="matrix(52 0 0 -52 8009 28095)">
						<stop  offset="0" style="stop-color:#85FFBC"/>
						<stop  offset="1" style="stop-color:#FFEA14"/>
					</linearGradient>
					<path class="st1" d="M148-1L148-1c82.3,0,149,66.7,149,149l0,0c0,82.3-66.7,149-149,149l0,0C65.7,297-1,230.3-1,148l0,0
						C-1,65.7,65.7-1,148-1z"/>
				</g>
			</g>
			<path id="Fill-10" class="st2" d="M213.4,151.8c0-4.3-2.4-8.1-6.2-9.9l-15.7-7.4l15.7-7.4c3.8-1.8,6.2-5.6,6.2-9.9
				c0-4.3-2.4-8.1-6.2-9.9l-37.6-17.7c-13-6.1-27.9-6.1-40.9,0l-37.6,17.7c-3.8,1.8-6.2,5.6-6.2,9.9c0,4.3,2.4,8.1,6.2,9.9l15.7,7.4
				l-15.7,7.4c-3.8,1.8-6.2,5.6-6.2,9.9s2.4,8.1,6.2,9.9l15.7,7.4l-15.7,7.4c-3.8,1.8-6.2,5.6-6.2,9.9c0,4.3,2.4,8.1,6.2,9.9
				l37.6,17.7c6.5,3.1,13.5,4.6,20.5,4.6c7,0,14-1.5,20.5-4.6l37.6-17.7c3.8-1.8,6.2-5.6,6.2-9.9c0-4.3-2.4-8.1-6.2-9.9l-15.7-7.4
				l15.7-7.4C211,159.9,213.4,156.1,213.4,151.8 M203.4,152.9L169,169l34.4,16.2c0.6,0.3,0.7,0.8,0.7,1.1c0,0.4-0.1,0.9-0.7,1.1
				l-37.6,17.7c-10.5,5-22.7,5-33.2,0L95,187.5c-0.6-0.3-0.7-0.8-0.7-1.1c0-0.4,0.1-0.9,0.7-1.1l23.1-10.9l10.6,5
				c6.5,3.1,13.5,4.6,20.5,4.6c7,0,14-1.5,20.5-4.6l3-1.4l-11.7-5.5c-9.3,3-19.4,2.4-28.4-1.9L95,152.9c-0.6-0.3-0.7-0.8-0.7-1.1
				c0-0.4,0.1-0.9,0.7-1.1l23.1-10.9l10.6,5c6.5,3.1,13.5,4.6,20.4,4.6c7,0,14-1.5,20.5-4.6l3-1.4l-11.7-5.5
				c-9.3,3-19.4,2.4-28.4-1.9L95,118.3c-0.6-0.3-0.7-0.8-0.7-1.1s0.1-0.9,0.7-1.1l37.6-17.7c10.5-5,22.6-5,33.2,0l37.6,17.7
				c0.6,0.3,0.7,0.8,0.7,1.1s-0.1,0.9-0.7,1.1L169,134.4l34.4,16.2c0.6,0.3,0.7,0.8,0.7,1.1C204.1,152.1,204,152.6,203.4,152.9"/>
		</g>
	</g>
</g>
</svg>
