<?xml version="1.0" encoding="UTF-8"?>
<svg width="58px" height="58px" viewBox="0 0 58 58" version="1.1" xmlns="http://www.w3.org/2000/svg" xmlns:xlink="http://www.w3.org/1999/xlink">
    <!-- Generator: Sketch 55.2 (78181) - https://sketchapp.com -->
    <title>Group 8</title>
    <desc>Created with Sketch.</desc>
    <defs>
        <linearGradient x1="18.75%" y1="-11.25%" x2="86.25%" y2="100%" id="linearGradient-1">
            <stop stop-color="#85FFBC" offset="0%"></stop>
            <stop stop-color="#FFEA14" offset="100%"></stop>
        </linearGradient>
        <rect id="path-2" x="0" y="0" width="52" height="52" rx="26"></rect>
        <filter x="-7.7%" y="-7.7%" width="119.2%" height="119.2%" filterUnits="objectBoundingBox" id="filter-3">
            <feOffset dx="1" dy="1" in="SourceAlpha" result="shadowOffsetOuter1"></feOffset>
            <feGaussianBlur stdDeviation="1.5" in="shadowOffsetOuter1" result="shadowBlurOuter1"></feGaussianBlur>
            <feColorMatrix values="0 0 0 0 0   0 0 0 0 0   0 0 0 0 0  0 0 0 0.144927536 0" type="matrix" in="shadowBlurOuter1"></feColorMatrix>
        </filter>
    </defs>
    <g id="community-page-home" stroke="none" stroke-width="1" fill="none" fill-rule="evenodd">
        <g id="community-page-new" transform="translate(-638.000000, -619.000000)">
            <g id="Group-8" transform="translate(640.000000, 621.000000)">
                <g id="Rectangle">
                    <use fill="black" fill-opacity="1" filter="url(#filter-3)" xlink:href="#path-2"></use>
                    <use fill="url(#linearGradient-1)" fill-rule="evenodd" xlink:href="#path-2"></use>
                </g>
                <path d="M37.4137931,26.6552924 C37.4137931,25.8991748 37.0008599,25.2351732 36.3358103,24.9228429 L33.5949718,23.6346605 L36.3353468,22.3469578 C37.0008599,22.0346275 37.4137931,21.3706259 37.4137931,20.6145084 C37.4137931,19.8588706 37.0008599,19.1948689 36.3358103,18.8820589 L29.775687,15.7995367 C27.5075667,14.7334878 24.9062264,14.7334878 22.6381061,15.7995367 L16.0779828,18.8820589 C15.4129332,19.1948689 15,19.8588706 15,20.6145084 C15,21.3706259 15.4133967,22.0346275 16.0784463,22.3469578 L18.8183579,23.6346605 L16.0779828,24.9228429 C15.4129332,25.2351732 15,25.8991748 15,26.6552924 C15,27.4114099 15.4133967,28.0749318 16.0784463,28.387262 L18.8183579,29.6754445 L16.0779828,30.9631471 C15.4129332,31.2759572 15,31.9399588 15,32.6955966 C15,33.4517141 15.4133967,34.1157158 16.0784463,34.428046 L22.6381061,37.511048 C23.7721662,38.0440725 24.9896473,38.3103448 26.2066648,38.3103448 C27.4241458,38.3103448 28.6416269,38.0440725 29.775687,37.511048 L36.3353468,34.428046 C37.0008599,34.1157158 37.4137931,33.4517141 37.4137931,32.6955966 C37.4137931,31.9399588 37.0008599,31.2759572 36.3358103,30.9631471 L33.5949718,29.6754445 L36.3353468,28.387262 C37.0008599,28.0749318 37.4137931,27.4114099 37.4137931,26.6552924 M35.6633455,26.8543969 L29.6677034,29.6725659 L35.6633455,32.4960123 C35.7662312,32.544469 35.7875499,32.6313074 35.7875499,32.6955966 C35.7875499,32.7598858 35.7662312,32.8467241 35.6633455,32.8951809 L29.1036857,35.9781829 C27.2628655,36.8432082 25.1509276,36.8432082 23.3101074,35.9781829 L16.7504476,32.8951809 C16.6475619,32.8467241 16.6262432,32.7598858 16.6262432,32.6955966 C16.6262432,32.6313074 16.6475619,32.544469 16.7504476,32.4960123 L20.7856997,30.5999612 L22.6367157,31.4697842 C23.7712393,32.0028087 24.9887204,32.2695608 26.2066648,32.2695608 C27.4246093,32.2695608 28.6430172,32.0028087 29.7770774,31.4697842 L30.3081901,31.2203039 L28.2690137,30.2626829 C26.6418436,30.7808345 24.8774926,30.6738458 23.3087171,29.9369191 L16.7504476,26.8543969 C16.6475619,26.8064199 16.6262432,26.7195815 16.6262432,26.6552924 C16.6262432,26.5905234 16.6475619,26.503685 16.7504476,26.4552283 L20.7856997,24.5591773 L22.6385695,25.4304396 C23.7726297,25.9629843 24.9896473,26.2297364 26.2066648,26.2297364 C27.4241458,26.2297364 28.6411634,25.9629843 29.7752236,25.4304396 L30.3063363,25.1804794 L28.2666965,24.2228585 C26.6409167,24.7405303 24.877956,24.6335416 23.3110343,23.8975744 L16.7504476,20.8140927 C16.6475619,20.7656359 16.6262432,20.6787975 16.6262432,20.6145084 C16.6262432,20.5502192 16.6475619,20.4633808 16.7504476,20.414924 L23.3105708,17.3319221 C25.151391,16.4668968 27.2624021,16.4668968 29.1032223,17.3319221 L35.6633455,20.414924 C35.7662312,20.4633808 35.7875499,20.5502192 35.7875499,20.6145084 C35.7875499,20.6787975 35.7662312,20.7656359 35.6633455,20.8140927 L29.6653861,23.6332212 L35.6633455,26.4552283 C35.7662312,26.503685 35.7875499,26.5905234 35.7875499,26.6552924 C35.7875499,26.7195815 35.7662312,26.8064199 35.6633455,26.8543969" id="Fill-10" fill="#25435A"></path>
            </g>
        </g>
    </g>
</svg>