<svg id="metadium" xmlns="http://www.w3.org/2000/svg" width="64" height="64" viewBox="0 0 64 31.45"><defs><style>.cls-1{fill:#fff;}</style></defs><title>meta</title><path class="cls-1" d="M62.55,34.42H57.11a3.88,3.88,0,0,1-3.88-3.88V24.75a1.45,1.45,0,0,0-1.45-1.45H44.55a1.45,1.45,0,0,0-1.45,1.45h0V32a1.45,1.45,0,0,0,1.45,1.45H50a3.88,3.88,0,0,1,3.89,3.86h0v16a1.45,1.45,0,0,0,1.45,1.45h7.22A1.44,1.44,0,0,0,64,53.29V35.87a1.45,1.45,0,0,0-1.45-1.45h0m-20.9,0H36.2a3.88,3.88,0,0,1-3.87-3.88V24.75a1.45,1.45,0,0,0-1.4-1.45H23.66a1.45,1.45,0,0,0-1.45,1.45h0V32a1.45,1.45,0,0,0,1.45,1.45H29.1A3.87,3.87,0,0,1,33,37.28h0v16a1.45,1.45,0,0,0,1.45,1.45h7.22a1.45,1.45,0,0,0,1.45-1.45h0V35.87a1.45,1.45,0,0,0-1.45-1.45h0m-21.5,0H12.93a1.45,1.45,0,0,0-1.45,1.45h0V53.25a1.45,1.45,0,0,0,1.45,1.45h7.22a1.45,1.45,0,0,0,1.45-1.45h0V35.87a1.45,1.45,0,0,0-1.45-1.45h0m-10-9.67V32a1.45,1.45,0,0,1-1.45,1.45H1.45A1.45,1.45,0,0,1,0,32H0V24.75A1.45,1.45,0,0,1,1.45,23.3H8.67a1.45,1.45,0,0,1,1.45,1.45" transform="translate(0 -23.3)"/></svg>