<?xml version="1.0" encoding="utf-8"?>
<!-- Generator: Adobe Illustrator 23.0.1, SVG Export Plug-In . SVG Version: 6.00 Build 0)  -->
<svg version="1.1" id="metadium" xmlns="http://www.w3.org/2000/svg" xmlns:xlink="http://www.w3.org/1999/xlink" x="0px" y="0px"
	 viewBox="0 0 64 64" style="enable-background:new 0 0 64 64;" xml:space="preserve">
<style type="text/css">
	.st0{fill:#FFFFFF;}
</style>
<title>meta</title>
<path class="st0" d="M56,28.4h-4.3c-1.7,0-3-1.4-3-3v0v-4.6c0-0.6-0.5-1.1-1.1-1.1l0,0h-5.7c-0.6,0-1.1,0.5-1.1,1.1c0,0,0,0,0,0l0,0
	v5.7c0,0.6,0.5,1.1,1.1,1.1l0,0h4.3c1.7,0,3,1.4,3.1,3l0,0v12.6c0,0.6,0.5,1.1,1.1,1.1l0,0H56c0.6,0,1.1-0.5,1.1-1.1c0,0,0,0,0,0
	V29.5C57.1,28.9,56.6,28.4,56,28.4L56,28.4L56,28.4 M39.6,28.4h-4.3c-1.7,0-3-1.4-3-3v-4.6c0-0.6-0.5-1.1-1.1-1.1h-5.7
	c-0.6,0-1.1,0.5-1.1,1.1c0,0,0,0,0,0l0,0v5.7c0,0.6,0.5,1.1,1.1,1.1c0,0,0,0,0,0h4.3c1.7,0,3,1.3,3.1,3l0,0v12.6
	c0,0.6,0.5,1.1,1.1,1.1l0,0h5.7c0.6,0,1.1-0.5,1.1-1.1l0,0l0,0V29.5C40.7,28.9,40.2,28.4,39.6,28.4L39.6,28.4L39.6,28.4 M22.7,28.4
	H17c-0.6,0-1.1,0.5-1.1,1.1l0,0l0,0v13.7c0,0.6,0.5,1.1,1.1,1.1l0,0h5.7c0.6,0,1.1-0.5,1.1-1.1l0,0l0,0V29.5
	C23.8,28.9,23.3,28.4,22.7,28.4C22.7,28.4,22.7,28.4,22.7,28.4L22.7,28.4 M14.8,20.8v5.7c0,0.6-0.5,1.1-1.1,1.1l0,0H8
	c-0.6,0-1.1-0.5-1.1-1.1c0,0,0,0,0,0l0,0v-5.7c0-0.6,0.5-1.1,1.1-1.1c0,0,0,0,0,0h5.7C14.3,19.6,14.8,20.2,14.8,20.8L14.8,20.8"/>
</svg>
