<?xml version="1.0" encoding="utf-8"?>
<!-- Generator: Adobe Illustrator 23.0.1, SVG Export Plug-In . SVG Version: 6.00 Build 0)  -->
<svg version="1.1"
	 id="Capa_1" inkscape:version="0.92.4 (5da689c313, 2019-01-14)" sodipodi:docname="mintme-coin-white@400x400.svg" xmlns:cc="http://creativecommons.org/ns#" xmlns:dc="http://purl.org/dc/elements/1.1/" xmlns:inkscape="http://www.inkscape.org/namespaces/inkscape" xmlns:rdf="http://www.w3.org/1999/02/22-rdf-syntax-ns#" xmlns:sodipodi="http://sodipodi.sourceforge.net/DTD/sodipodi-0.dtd" xmlns:svg="http://www.w3.org/2000/svg"
	 xmlns="http://www.w3.org/2000/svg" xmlns:xlink="http://www.w3.org/1999/xlink" x="0px" y="0px" viewBox="0 0 400 400"
	 style="enable-background:new 0 0 400 400;" xml:space="preserve">
<style type="text/css">
	.st0{fill:#CEB185;}
</style>
<sodipodi:namedview  bordercolor="#666666" borderopacity="1" gridtolerance="10" guidetolerance="10" id="namedview20" inkscape:current-layer="Capa_1" inkscape:cx="315.53971" inkscape:cy="196.0446" inkscape:pageopacity="0" inkscape:pageshadow="2" inkscape:window-height="1017" inkscape:window-maximized="1" inkscape:window-width="1920" inkscape:window-x="-8" inkscape:window-y="-8" inkscape:zoom="1.473948" objecttolerance="10" pagecolor="#ffffff" showgrid="false">
	</sodipodi:namedview>
<g id="XMLID_250_" transform="translate(-50.61221,244)">
	<g id="XMLID_251_" transform="matrix(3.5381657,0,0,3.5255143,-465.34599,-316.64155)">
		<path id="XMLID_261_" inkscape:connector-curvature="0" class="st0" d="M241.3,38.6c-21.5-21.5-56.4-21.5-77.9,0
			s-21.5,56.4,0,77.9s56.4,21.5,77.9,0C262.8,95,262.8,60.1,241.3,38.6z M240.5,115.8c-21,21-55.1,21-76.1,0s-21-55.1,0-76.1
			s55.1-21,76.1,0S261.5,94.8,240.5,115.8L240.5,115.8z"/>
		<path id="XMLID_258_" inkscape:connector-curvature="0" class="st0" d="M238.7,41.3c-20.1-20.1-52.7-20.1-72.8,0
			s-20.1,52.7,0,72.8s52.7,20.1,72.8,0S258.9,61.4,238.7,41.3L238.7,41.3z M238.3,113.6c-19.8,19.8-52,19.8-71.8,0
			c-19.8-19.8-19.8-52,0-71.8s52-19.8,71.8,0C258.2,61.6,258.2,93.8,238.3,113.6L238.3,113.6z"/>
		<g id="XMLID_252_">
			<path id="XMLID_257_" inkscape:connector-curvature="0" class="st0" d="M235.6,73.7c-0.3-0.5-0.7-0.9-1.3-1.2
				c-0.6-0.3-1.4-0.4-2.3-0.4c-1.9,0-3.5,0.5-4.6,1.5c-1.2,1-2.1,2.4-2.8,4.1H236c0.1-0.8,0.2-1.5,0.2-2.2
				C236.1,74.8,235.9,74.2,235.6,73.7L235.6,73.7z"/>
			<path id="XMLID_253_" inkscape:connector-curvature="0" class="st0" d="M237.7,42.5c-19.5-19.5-51-19.5-70.5,0s-19.5,51,0,70.5
				s51,19.5,70.5,0C257.1,93.5,257.1,61.9,237.7,42.5z M197.6,95l6.2-29.3h-0.1L188.4,95h-8.1l0.4-29.3h-0.1L171.1,95h-10l12.4-38.6
				h14.8c-0.1,3.2-0.2,6.1-0.3,8.8c0,1.1-0.1,2.2-0.1,3.4c0,1.1-0.1,2.1-0.1,3.1c0,0.9,0,1.8-0.1,2.4c0,0.7,0,1.2,0,1.4
				c0,0.7,0,1.6-0.1,2.5c-0.1,1-0.1,1.9-0.2,2.7c-0.1,1-0.1,2-0.2,3.1h0.1c0.5-1,0.9-2.1,1.4-3.1c0.4-0.9,0.8-1.8,1.3-2.7
				c0.5-1,0.9-1.8,1.3-2.5c0.1-0.3,0.4-0.7,0.7-1.4c0.3-0.7,0.7-1.5,1.2-2.4c0.5-0.9,1-2,1.5-3.1s1.1-2.2,1.7-3.4
				c1.3-2.6,2.8-5.6,4.4-8.8h14.8L207.6,95H197.6z M244.2,80.5c-0.2,0.9-0.5,1.8-0.9,2.8H223c-0.2,0.8-0.2,1.5-0.2,2.3
				c0.1,0.8,0.3,1.5,0.8,2.1c0.4,0.6,1.1,1.2,1.9,1.6c0.8,0.4,1.9,0.6,3.3,0.6c0.9,0,1.9-0.1,3-0.3c1.1-0.2,2.2-0.4,3.3-0.7
				c1.1-0.3,2.2-0.6,3.2-0.9c1-0.3,2-0.7,2.8-1l-3.2,7.3c0,0.1-0.4,0.2-1.1,0.4c-0.7,0.2-1.6,0.4-2.8,0.6c-1.1,0.2-2.4,0.4-3.7,0.5
				c-1.4,0.1-2.7,0.2-4,0.2c-2.5,0-4.6-0.3-6.3-1c-1.8-0.7-3.1-1.7-4.2-2.9c-1-1.3-1.7-2.8-1.9-4.7c-0.2-1.9,0-4,0.6-6.3
				c0.6-2.4,1.6-4.5,2.9-6.4c1.3-1.8,2.8-3.4,4.5-4.6c1.7-1.2,3.6-2.2,5.6-2.8c2-0.6,4.1-0.9,6.1-0.9c2,0,3.7,0.3,5.2,0.9
				c1.5,0.6,2.7,1.5,3.6,2.5c0.9,1.1,1.6,2.3,1.9,3.8c0.4,1.4,0.5,2.9,0.3,4.6C244.5,78.8,244.3,79.6,244.2,80.5L244.2,80.5z"/>
		</g>
	</g>
</g>
</svg>
