<?xml version="1.0" encoding="UTF-8" standalone="no"?>
<svg
   xmlns:dc="http://purl.org/dc/elements/1.1/"
   xmlns:cc="http://creativecommons.org/ns#"
   xmlns:rdf="http://www.w3.org/1999/02/22-rdf-syntax-ns#"
   xmlns:svg="http://www.w3.org/2000/svg"
   xmlns="http://www.w3.org/2000/svg"
   xmlns:xlink="http://www.w3.org/1999/xlink"
   xmlns:sodipodi="http://sodipodi.sourceforge.net/DTD/sodipodi-0.dtd"
   xmlns:inkscape="http://www.inkscape.org/namespaces/inkscape"
   version="1.1"
   id="Capa_1"
   width="400"
   height="400"
   x="0px"
   y="0px"
   viewBox="0 0 400 400"
   xml:space="preserve"
   sodipodi:docname="mintme-coin-white@400x400.svg"
   inkscape:version="0.92.4 (5da689c313, 2019-01-14)"><metadata
   id="metadata24"><rdf:RDF><cc:Work
       rdf:about=""><dc:format>image/svg+xml</dc:format><dc:type
         rdf:resource="http://purl.org/dc/dcmitype/StillImage" /><dc:title></dc:title></cc:Work></rdf:RDF></metadata><defs
   id="defs22"><linearGradient
     inkscape:collect="always"
     id="linearGradient838"><stop
       style="stop-color:#ccaf81;stop-opacity:1;"
       offset="0"
       id="stop834" /><stop
       style="stop-color:#ccaf81;stop-opacity:0;"
       offset="1"
       id="stop836" /></linearGradient><linearGradient
     inkscape:collect="always"
     xlink:href="#linearGradient838"
     id="linearGradient840"
     x1="55.712596"
     y1="-43.237916"
     x2="445.36105"
     y2="-43.237916"
     gradientUnits="userSpaceOnUse" /></defs><sodipodi:namedview
   pagecolor="#ffffff"
   bordercolor="#666666"
   borderopacity="1"
   objecttolerance="10"
   gridtolerance="10"
   guidetolerance="10"
   inkscape:pageopacity="0"
   inkscape:pageshadow="2"
   inkscape:window-width="1920"
   inkscape:window-height="1017"
   id="namedview20"
   showgrid="false"
   inkscape:zoom="1.473948"
   inkscape:cx="315.53971"
   inkscape:cy="196.0446"
   inkscape:window-x="-8"
   inkscape:window-y="-8"
   inkscape:window-maximized="1"
   inkscape:current-layer="Capa_1" />
	
	<g
   id="XMLID_250_"
   transform="translate(-50.61221,244)"
   style="fill:#ffffff;fill-opacity:1">
			
			
			<g
   id="XMLID_251_"
   transform="matrix(3.5381657,0,0,3.5255143,-465.34599,-316.64155)"
   style="fill:#ffffff;fill-opacity:1">
				<path
   id="XMLID_261_"
   d="m 241.268,38.614 c -21.504,-21.504 -56.368,-21.504 -77.872,0 -21.504,21.504 -21.504,56.368 0,77.872 21.504,21.504 56.368,21.504 77.872,0 21.503,-21.504 21.503,-56.369 0,-77.872 z m -0.786,77.173 c -21.026,21.026 -55.117,21.026 -76.143,0 -21.026,-21.026 -21.026,-55.117 0,-76.143 21.026,-21.026 55.117,-21.026 76.143,0 21.026,21.026 21.027,55.117 0,76.143 z"
   inkscape:connector-curvature="0"
   style="fill:#ffffff;fill-opacity:1" />
				<path
   id="XMLID_258_"
   d="m 238.748,41.299 c -20.112,-20.112 -52.72,-20.112 -72.833,0 -20.113,20.112 -20.112,52.72 0,72.833 20.112,20.113 52.72,20.112 72.833,0 20.113,-20.112 20.112,-52.721 0,-72.833 z m -0.418,72.336 c -19.838,19.838 -52.002,19.838 -71.839,0 -19.838,-19.838 -19.838,-52.002 0,-71.839 19.838,-19.837 52.002,-19.838 71.839,0 19.838,19.838 19.838,52.001 0,71.839 z"
   inkscape:connector-curvature="0"
   style="fill:#ffffff;fill-opacity:1" />
				<g
   id="XMLID_252_"
   style="fill:#ffffff;fill-opacity:1">
					<path
   id="XMLID_257_"
   d="m 235.628,73.672 c -0.289,-0.505 -0.73,-0.901 -1.326,-1.191 -0.595,-0.288 -1.362,-0.433 -2.3,-0.433 -1.913,0 -3.455,0.506 -4.627,1.515 -1.173,1.01 -2.12,2.381 -2.841,4.113 h 11.418 c 0.144,-0.793 0.198,-1.533 0.162,-2.219 -0.035,-0.684 -0.198,-1.279 -0.486,-1.785 z"
   inkscape:connector-curvature="0"
   style="fill:#ffffff;fill-opacity:1" />
					<path
   id="XMLID_253_"
   d="m 237.668,42.458 c -19.472,-19.472 -51.043,-19.472 -70.515,0 -19.472,19.472 -19.472,51.043 0,70.515 19.472,19.472 51.043,19.472 70.515,0 19.473,-19.472 19.473,-51.043 0,-70.515 z m -40.081,52.589 6.223,-29.329 h -0.108 l -15.314,29.329 h -8.117 l 0.379,-29.329 h -0.108 l -9.47,29.329 h -9.957 L 173.561,56.41 h 14.827 c -0.108,3.211 -0.216,6.133 -0.325,8.766 -0.036,1.119 -0.073,2.237 -0.108,3.355 -0.036,1.119 -0.063,2.147 -0.081,3.084 -0.019,0.939 -0.036,1.75 -0.054,2.435 -0.019,0.686 -0.027,1.155 -0.027,1.407 0,0.722 -0.027,1.561 -0.081,2.516 -0.054,0.956 -0.117,1.867 -0.189,2.733 -0.073,1.01 -0.145,2.039 -0.216,3.084 h 0.108 c 0.469,-1.046 0.938,-2.074 1.407,-3.084 0.397,-0.866 0.82,-1.776 1.272,-2.733 0.451,-0.956 0.874,-1.794 1.272,-2.516 0.144,-0.252 0.387,-0.721 0.731,-1.407 0.342,-0.685 0.748,-1.496 1.217,-2.435 0.468,-0.938 0.983,-1.966 1.542,-3.084 0.559,-1.118 1.127,-2.237 1.705,-3.355 1.334,-2.633 2.795,-5.555 4.383,-8.766 h 14.827 L 207.6,95.047 Z m 46.564,-14.503 c -0.199,0.902 -0.496,1.822 -0.893,2.76 H 223.02 c -0.181,0.758 -0.235,1.524 -0.162,2.3 0.072,0.776 0.325,1.48 0.758,2.111 0.433,0.632 1.064,1.155 1.894,1.569 0.83,0.415 1.93,0.622 3.301,0.622 0.901,0 1.902,-0.099 3.003,-0.298 1.1,-0.198 2.2,-0.441 3.301,-0.731 1.1,-0.288 2.173,-0.604 3.22,-0.947 1.046,-0.342 1.984,-0.676 2.814,-1.001 l -3.247,7.251 c -0.036,0.073 -0.415,0.199 -1.136,0.379 -0.722,0.181 -1.642,0.37 -2.76,0.568 -1.119,0.198 -2.363,0.37 -3.734,0.514 -1.371,0.144 -2.706,0.216 -4.004,0.216 -2.454,0 -4.555,-0.343 -6.304,-1.028 -1.75,-0.685 -3.139,-1.668 -4.167,-2.949 -1.028,-1.28 -1.66,-2.849 -1.894,-4.708 -0.235,-1.858 -0.046,-3.959 0.568,-6.304 0.649,-2.417 1.623,-4.546 2.922,-6.385 1.299,-1.84 2.795,-3.382 4.491,-4.627 1.695,-1.245 3.553,-2.182 5.574,-2.814 2.02,-0.631 4.058,-0.947 6.115,-0.947 1.984,0 3.715,0.307 5.195,0.92 1.479,0.614 2.678,1.461 3.598,2.543 0.92,1.082 1.569,2.336 1.948,3.761 0.379,1.426 0.478,2.949 0.298,4.573 -0.109,0.866 -0.263,1.751 -0.461,2.652 z"
   inkscape:connector-curvature="0"
   style="fill:#ffffff;fill-opacity:1" />
				</g>
			</g>
		</g>
</svg>
