<?xml version="1.0" encoding="utf-8"?>
<!-- Generator: Adobe Illustrator 23.0.1, SVG Export Plug-In . SVG Version: 6.00 Build 0)  -->
<svg version="1.1" id="Layer_1" xmlns="http://www.w3.org/2000/svg" xmlns:xlink="http://www.w3.org/1999/xlink" x="0px" y="0px"
	 viewBox="0 0 200 200" style="enable-background:new 0 0 200 200;" xml:space="preserve">
<style type="text/css">
	.st0{fill:none;}
	.st1{fill:#F2B705;}
	.st2{fill:#53CBC8;}
</style>
<g id="logo-symbol" transform="translate(-442 -265)">
	<rect id="Rectangle_38" x="455.7" y="278.7" class="st0" width="172.7" height="172.7"/>
	<g id="symbol" transform="translate(231.196 -160.618)">
		<path id="Path_207" class="st1" d="M309.3,442.7c-34.3,0-62.1,27.8-62.1,62.1c0,0,0,0,0,0c0,3.9,0.4,7.8,1.1,11.7l8-5.5
			c14.1-9.7,37-9.7,51,0l8.4,5.8l4.6,3.1c12.7,8.7,33.3,8.7,46,0l3.7-2.6c6.9-33.6-14.8-66.4-48.4-73.3
			C317.6,443.2,313.4,442.8,309.3,442.7L309.3,442.7z"/>
		<path id="Path_208" class="st2" d="M344.1,542.1c-9.3,0-18.3-2.5-25-7.2l-13-8.9c-6.2-4.3-14.5-6.6-23.4-6.6
			c-8.9,0-17.2,2.3-23.4,6.6l-8.4,5.7c-1.7,1.1-3.9,0.7-5.1-0.9c-1.1-1.7-0.7-3.9,0.9-5.1c0,0,0,0,0,0l8.4-5.7
			c7.4-5.1,17.2-7.9,27.6-7.9c10.4,0,20.1,2.8,27.6,7.9l13,8.9c12.8,7.9,29,7.9,41.8,0l4.9-3.4c1.6-1.2,3.9-0.8,5.1,0.9
			c1.2,1.6,0.8,3.9-0.9,5.1c0,0-0.1,0-0.1,0.1l-4.9,3.4C362.4,539.5,353.5,542.1,344.1,542.1z"/>
		<path id="Path_209" class="st2" d="M282.4,568.1v-35.1c0-0.7,0-1.5,0.1-2.2c0.2-2,1.9-3.5,3.9-3.5c1.9,0.1,3.5,1.6,3.7,3.5
			c0.1,1.2,0.2,2.4,0.1,3.7v69.9c-0.2,2.6-1.8,4.3-4,4.3c-2.2,0-3.8-1.8-3.8-4.5v-23.3L282.4,568.1z"/>
		<path id="Path_210" class="st2" d="M275.1,550.5v17.4c0,3-1.6,5-3.8,4.9c-2.3-0.1-4-2.1-4-4.9V533c0-3.1,1.8-5.1,4.1-5
			c2.3,0.1,3.7,2,3.7,5C275.1,538.9,275.1,544.7,275.1,550.5z"/>
		<path id="Path_211" class="st2" d="M297.7,550.4v-12.2c0-2.8,1.5-4.7,3.8-4.7s4,1.9,4,4.6c0.1,8.3,0.1,16.7,0,25
			c0,2.8-1.7,4.5-4,4.5c-2.3,0-3.8-1.8-3.8-4.7L297.7,550.4L297.7,550.4z"/>
		<path id="Path_212" class="st2" d="M252,553v-12.3c0-2.8,1.5-4.7,3.8-4.7s4,1.9,4,4.6c0.1,8.3,0.1,16.7,0,25c0,2.8-1.7,4.5-4,4.5
			c-2.3,0-3.8-1.8-3.8-4.7L252,553L252,553z"/>
		<path id="Path_213" class="st2" d="M316.7,542.6L316.7,542.6c2.1,0,3.9,1.7,3.9,3.8v6.7c0,2.1-1.7,3.8-3.8,3.8h0
			c-2.1,0-3.8-1.7-3.8-3.8v-6.7C312.9,544.3,314.6,542.6,316.7,542.6z"/>
		<path id="Path_214" class="st2" d="M332,548.4L332,548.4c2.1,0,3.9,1.7,3.9,3.8v37.4c0,2.1-1.7,3.8-3.8,3.8c0,0,0,0,0,0h0
			c-2.1,0-3.8-1.7-3.8-3.8c0,0,0,0,0,0v-37.4C328.1,550.1,329.8,548.4,332,548.4z"/>
		<path id="Path_215" class="st2" d="M347.1,549.9L347.1,549.9c2.1,0,3.9,1.7,3.9,3.8v31.8c0,2.1-1.7,3.8-3.8,3.8h0
			c-2.1,0-3.8-1.7-3.8-3.8c0,0,0,0,0,0v-31.8C343.2,551.6,345,549.9,347.1,549.9C347.1,549.9,347.1,549.9,347.1,549.9z"/>
		<path id="Path_216" class="st2" d="M362.4,546.2L362.4,546.2c2.1,0,3.9,1.7,3.9,3.8l0,0v13.7c0,2.1-1.7,3.8-3.8,3.8h0
			c-2.1,0-3.8-1.7-3.8-3.8c0,0,0,0,0,0v-13.7C358.6,548,360.3,546.2,362.4,546.2C362.4,546.2,362.4,546.2,362.4,546.2z"/>
	</g>
</g>
</svg>
