<svg width="24" height="24" viewBox="0 0 24 24" fill="none" xmlns="http://www.w3.org/2000/svg">
<path fill-rule="evenodd" clip-rule="evenodd" d="M1.90735e-06 12C1.90735e-06 18.6275 5.37252 24 12 24C18.6274 24 24 18.6275 24 12C24 5.37252 18.6274 0 12 0C5.37252 0 1.90735e-06 5.37252 1.90735e-06 12Z" fill="#BDC5D1"/>
<path fill-rule="evenodd" clip-rule="evenodd" d="M12.0001 3.15784L17.0527 12.7215L12.0001 15.421V3.15784ZM12 15.421L6.94737 12.7222L12 3.15784V15.421Z" fill="white"/>
<path fill-rule="evenodd" clip-rule="evenodd" d="M12.0001 16.5586L17.0527 13.8948L12.0001 20.8421V16.5586ZM12 20.8421L6.94737 13.8948L12 16.5586V20.8421Z" fill="white"/>
</svg>
