<?xml version="1.0" encoding="utf-8"?>
<!-- Generator: Adobe Illustrator 23.0.1, SVG Export Plug-In . SVG Version: 6.00 Build 0)  -->
<svg version="1.1" id="Layer_1" xmlns="http://www.w3.org/2000/svg" xmlns:xlink="http://www.w3.org/1999/xlink" x="0px" y="0px"
	 viewBox="0 0 300 300" style="enable-background:new 0 0 300 300;" xml:space="preserve">
<style type="text/css">
	.st0{fill-rule:evenodd;clip-rule:evenodd;fill:#F9F9F9;}
</style>
<title>favicon_perkle_60 copy</title>
<desc>Created with Sketch.</desc>
<g id="favicon_perkle_60-copy">
	<g id="logo" transform="translate(10.000000, 5.000000)">
		<g id="Group" transform="translate(0.625000, 0.000000)">
			<path id="Rectangle-21-Copy-10" class="st0" d="M58,63.1l46.8-15c1.6-0.5,2.7-1.8,3.1-3.4l2.2-11.1c0.4-2.1,2.3-3.6,4.4-3.6h11.3
				c2.1,0,4,1.5,4.4,3.6l2.4,11.2c0.3,1.6,1.5,2.9,3.1,3.4l48.4,15c2.4,0.7,3.7,3.3,3,5.7c0,0,0,0.1,0,0.1l-23.7,70h-18.3l19.1-56.1
				c0.6-1.8-0.3-3.7-2.1-4.3c-0.1,0-0.1,0-0.2-0.1l-32.4-9h-18.7l-32.1,9c-1.8,0.5-2.9,2.4-2.4,4.2c0,0,0,0,0,0.1l16.7,56.2H76
				l-21-70.2C54.4,66.3,55.7,63.8,58,63.1z"/>
			<path id="Path" class="st0" d="M194.3,92c8.8-0.9,18.4-0.8,28.8,0.2c16.8,1.6,15.6,27.7,9.4,39s-11.1,15.7-17.7,21.8
				c-6.6,6.2-20.6,13.4-27.6,13.4H64.2c-0.7,0-1.4-0.2-2-0.7l-15.9-11.8c-1.5-1.1-1.8-3.2-0.7-4.7c0.6-0.9,1.7-1.4,2.8-1.4
				c87.5,1.1,135.3,0.7,143.3-1.3c12.5-3.1,33.3-23.4,25-30c-4.9-3.9-13.8-5.7-26.6-5.3c-1.9,0.1-3.4-1.4-3.5-3.3
				c0-0.4,0.1-0.9,0.2-1.3l4.7-12.5C191.9,93,193,92.1,194.3,92z"/>
			<path class="st0" d="M59.3,259.9c-0.4,0-0.7-0.1-1.1-0.2c-2.1-0.7-3.3-3.2-2.8-5.6l19.1-79.1h19.8l-15.5,60.4
				c-0.1,0.4-0.2,0.8-0.2,1.2c0,2.5,1.8,4.5,4,4.5h73.6c0.4,0,0.8-0.1,1.2-0.2c2.1-0.8,3.3-3.3,2.6-5.7l-15.9-60.3h20.4l19.1,79.1
				c0.1,0.4,0.1,0.8,0.1,1.2c0,2.5-1.8,4.5-4,4.5H59.3z"/>
		</g>
	</g>
</g>
</svg>
