<?xml version="1.0" encoding="utf-8"?>
<!-- Generator: Adobe Illustrator 23.0.1, SVG Export Plug-In . SVG Version: 6.00 Build 0)  -->
<svg version="1.1" id="Ebene_1" xmlns="http://www.w3.org/2000/svg" xmlns:xlink="http://www.w3.org/1999/xlink" x="0px" y="0px"
	 viewBox="0 0 300 300" style="enable-background:new 0 0 300 300;" xml:space="preserve">
<style type="text/css">
	.st0{fill:#F0F0F0;}
</style>
<g id="g5876" transform="matrix(.55072 0 0 .55072 7.673 5.157)">
	<path id="path5320" class="st0" d="M462.6,250.1L275.8,63.3c-8.6-8.6-22.6-8.6-31.1,0L120.3,187.9c-8.6,8.6-8.6,22.6,0,31.1
		l124.5,124.6c8.6,8.6,22.6,8.6,31.1,0c8.6-8.6,8.6-22.6,0-31.1l-109-109l93.3-93.5l171.2,171.2c8.6,8.6,22.6,8.6,31.1,0
		C471.2,272.6,471.3,258.7,462.6,250.1z"/>
	<path id="path5322" class="st0" d="M57.9,281.2L244.7,468c8.6,8.6,22.6,8.6,31.1,0l124.5-124.5c8.6-8.6,8.6-22.6,0-31.1
		L275.8,187.9c-8.6-8.6-22.6-8.6-31.1,0c-8.6,8.6-8.6,22.6,0,31.1l109,109l-93.4,93.3L89.1,250.1c-8.6-8.6-22.6-8.6-31.2,0
		C49.4,258.7,49.4,272.7,57.9,281.2z"/>
</g>
</svg>
