<?xml version="1.0" encoding="utf-8"?>
<!-- Generator: Adobe Illustrator 23.0.1, SVG Export Plug-In . SVG Version: 6.00 Build 0)  -->
<svg version="1.1" id="Layer_1" xmlns="http://www.w3.org/2000/svg" xmlns:xlink="http://www.w3.org/1999/xlink" x="0px" y="0px"
	 viewBox="0 0 300 300" style="enable-background:new 0 0 300 300;" xml:space="preserve">
<style type="text/css">
	.st0{fill:#F9F9F9;}
</style>
<path class="st0" d="M40.2,239.6C74.5,180.5,150.8,58.2,150.8,58.2L260,239.9L40.2,239.6z M240.9,230.3c0,0-18.7-33-28.7-49.2
	c0,0-17,13-34.6,20.8c-17.5,7.8-40.6,7.1-56.3-0.6c-15.7-7.7-24.8-15.4-30.6-20.7l-30,49.7L240.9,230.3z M177,190.2
	c13-5.4,20.7-12.1,29.5-19.9c-8.4-9.1-17.9-14.6-28.3-19.6c-20.1-9.6-39-8.7-56.4,0.3c-8.3,5.3-18.5,10.6-26.1,19.7
	c6.1,6.4,17,14.2,29.4,19.9C141.6,198.2,159.2,197.6,177,190.2L177,190.2z M150.4,191.4c-12.1,0.1-22.4-9.5-22-22
	c0.4-12.5,10.1-19.8,21.2-19.6c11,0.1,21.7,5.3,22,20.8C171.8,181.5,162.5,191.3,150.4,191.4L150.4,191.4z M160.2,170.3
	c0.1-13.8-20.7-13-20.8-0.4C139.3,182.7,160.1,182.4,160.2,170.3z M128.1,136.2c15.2-4.8,29.2-4.1,39.2-0.8
	c10.1,3.3,15.6,5.6,23.1,9.6l-39.6-68.1l-43.2,69.7C107.6,146.6,118.5,139.2,128.1,136.2L128.1,136.2z"/>
</svg>
