<?xml version="1.0" encoding="utf-8"?>
<!-- Generator: Adobe Illustrator 23.0.1, SVG Export Plug-In . SVG Version: 6.00 Build 0)  -->
<svg version="1.1" id="Layer_1" xmlns="http://www.w3.org/2000/svg" xmlns:xlink="http://www.w3.org/1999/xlink" x="0px" y="0px"
	 viewBox="0 0 300 300" style="enable-background:new 0 0 300 300;" xml:space="preserve">
<style type="text/css">
	.st0{fill-rule:evenodd;clip-rule:evenodd;fill:#FEFEFE;}
</style>
<g id="Layer_x0020_1">
	<path class="st0" d="M229,143.8c-19.6,0-36.1-12.7-41.9-30.4c-1.4,4.3-2.2,9-2.2,13.8c0,24.4,19.8,44.2,44.2,44.2
		s44.2-19.8,44.2-44.2c0-4.8-0.8-9.5-2.2-13.8C265.2,131,248.6,143.8,229,143.8L229,143.8z"/>
	<path class="st0" d="M98.6,242.6c-18.5,0-33.6-15.1-33.6-33.6v-29.5h18.6H112l44,63.1L98.6,242.6L98.6,242.6z M229,191.1
		c-19.4,0-35.9-12.6-41.8-30c-1.5,4.4-2.3,9.2-2.3,14.1c0,20,13.4,36.9,31.7,42.4c-3.8,14.3-16.7,24.8-32.1,25l-45.7-65
		c21.3-3.3,32-14.5,32-33.7c0-5.6-1.1-10.9-3.2-15.8c-2.3-5.1-5.6-9.2-10.1-12.2c-3.9-2.6-8.5-4.4-13.7-5.4
		c-5.2-1-12.4-1.6-21.3-1.6H68.2c5.4-11.3,17-19.2,30.4-19.2h87.6l0,0c4.7,19.3,22.1,33.6,42.8,33.6c24.4,0,44.2-19.8,44.2-44.2
		S253.4,35,229,35c-20.3,0-37.4,13.7-42.6,32.4h-88c-25.9,0-47.7,17.7-54.1,41.6H26.9v23.5h27.4h29.2h46.9c3.6,0,6.3,0.3,9,1.6
		c2.6,1.3,5.7,2.8,5.7,9.7c0,6.8-2.8,9.3-5.6,10.6c-3.2,1.4-5.7,1.7-9.1,1.7H54.2H26.9v23.5h15.7v29.5c0,30.9,25.1,56,56,56h85.6
		c27.7,0,50.8-20.3,55.2-46.8c19.4-4.6,33.8-22.1,33.8-42.9c0-5-0.8-9.7-2.3-14.1C265,178.6,248.5,191.1,229,191.1L229,191.1z"/>
</g>
</svg>
