<svg version="1.1" xmlns="http://www.w3.org/2000/svg" width="32" height="32" viewBox="0 0 32 32">
<title>rsk</title>
<path opacity="0.986" fill="#000" d="M15.976 0.5c-1.736 0-3.151 1.39-3.151 3.078 0 0.35 0.062 0.686 0.173 1l-5.745 3.189c-0.578-0.63-1.416-1.029-2.345-1.029-1.736 0-3.151 1.39-3.151 3.078 0 1.453 1.050 2.685 2.45 2.999l-0.024 6.406c-1.381 0.328-2.413 1.55-2.413 2.991 0 1.688 1.416 3.077 3.151 3.077 0.901 0 1.715-0.375 2.291-0.971l5.773 3.259c-0.080 0.269-0.123 0.553-0.123 0.846 0 1.688 1.416 3.077 3.151 3.077s3.152-1.39 3.152-3.077c0-0.284-0.041-0.559-0.116-0.821l5.802-3.22c0.572 0.567 1.366 0.921 2.241 0.921 1.736 0 3.151-1.39 3.151-3.077 0-1.452-1.049-2.683-2.447-2.998l0.024-6.414c1.366-0.338 2.383-1.554 2.383-2.984 0-1.688-1.416-3.077-3.151-3.077-0.903 0-1.72 0.377-2.296 0.976l-5.766-3.254c0.089-0.284 0.137-0.585 0.137-0.895 0-1.688-1.417-3.078-3.152-3.078zM15.976 1.926c0.934 0 1.682 0.728 1.682 1.652s-0.748 1.652-1.682 1.652c-0.934 0-1.681-0.727-1.681-1.652s0.747-1.652 1.681-1.652zM18.248 5.703l5.78 3.262c-0.083 0.274-0.128 0.564-0.128 0.863 0 0.341 0.059 0.67 0.165 0.977l-5.24 2.958c-0.602-1.105-1.495-1.925-2.060-2.372l-0.042-4.825c0.59-0.142 1.116-0.447 1.524-0.863zM13.786 5.783c0.402 0.381 0.905 0.659 1.467 0.789l0.065 4.801c-0.564 0.442-1.475 1.269-2.087 2.394l-5.34-2.965c0.109-0.31 0.169-0.642 0.169-0.987 0-0.274-0.038-0.54-0.108-0.793zM4.907 8.164c0.934 0 1.681 0.728 1.681 1.652s-0.748 1.652-1.681 1.652c-0.934 0-1.681-0.728-1.681-1.652s0.747-1.652 1.681-1.652zM27.052 8.177c0.934 0 1.681 0.727 1.681 1.652s-0.747 1.653-1.681 1.653c-0.934 0-1.682-0.728-1.682-1.653s0.748-1.652 1.682-1.652zM7.108 12.012l5.604 3.11c-0.092 0.405-0.136 0.833-0.109 1.284 0.013 0.218 0.041 0.428 0.080 0.632l-5.458 3.082c-0.416-0.437-0.96-0.756-1.572-0.9l0.024-6.42c0.548-0.136 1.039-0.413 1.431-0.788zM24.843 12.017c0.41 0.395 0.929 0.681 1.507 0.811l-0.024 6.413c-0.572 0.141-1.082 0.435-1.483 0.835l-5.47-3.036c0.039-0.204 0.067-0.415 0.080-0.633 0.027-0.452-0.017-0.88-0.109-1.286zM16.029 12.713c0.792 0.721 2.039 2.105 1.949 3.611-0.060 1.014-0.608 1.878-1.185 2.517v-2.268c0-0.003 0-0.006 0-0.010 0-0.396-0.331-0.717-0.74-0.717-0.004 0-0.008 0-0.012 0h0.001c-0.404 0.006-0.729 0.325-0.729 0.717 0 0.003 0 0.007 0 0.011v-0.001 2.321c-0.594-0.645-1.172-1.528-1.234-2.571-0.090-1.506 1.157-2.89 1.949-3.611zM18.897 18.417l5.192 2.881c-0.096 0.293-0.148 0.604-0.148 0.927 0 0.325 0.053 0.64 0.151 0.935l-5.752 3.193c-0.413-0.442-0.956-0.768-1.569-0.917l-0.016-4.416c0.019-0.053 0.032-0.115 0.037-0.178l0-0.002c0.613-0.459 1.52-1.274 2.106-2.423zM13.161 18.418c0.591 1.158 1.509 1.979 2.122 2.436l0.017 4.572c-0.622 0.142-1.174 0.465-1.595 0.908l-5.763-3.253c0.084-0.276 0.13-0.567 0.13-0.869 0-0.295-0.044-0.58-0.125-0.851zM4.921 20.559c0.934 0 1.682 0.728 1.682 1.653s-0.748 1.652-1.682 1.652c-0.934 0-1.681-0.727-1.681-1.652s0.747-1.653 1.681-1.653zM27.093 20.573c0.934 0 1.681 0.728 1.681 1.652s-0.748 1.652-1.681 1.652c-0.934 0-1.681-0.727-1.681-1.652s0.747-1.652 1.681-1.652zM16.013 26.771c0.934 0 1.682 0.728 1.682 1.652s-0.748 1.652-1.682 1.652c-0.934 0-1.681-0.727-1.681-1.652 0-0.267 0.064-0.516 0.175-0.737l0.13-0.217c0.303-0.424 0.804-0.698 1.376-0.698z"></path>
</svg>