<?xml version="1.0" encoding="utf-8"?>
<!-- Generator: Adobe Illustrator 23.0.1, SVG Export Plug-In . SVG Version: 6.00 Build 0)  -->
<svg version="1.1" id="Layer_1" xmlns="http://www.w3.org/2000/svg" xmlns:xlink="http://www.w3.org/1999/xlink" x="0px" y="0px"
	 viewBox="0 0 300 300" style="enable-background:new 0 0 300 300;" xml:space="preserve">
<style type="text/css">
	.st0{opacity:0.986;enable-background:new    ;}
</style>
<title>rsk</title>
<path class="st0" d="M150.4,35.1c-12.8,0-23,10.2-23,23c0,2.6,0.9,5.1,1.7,7.7L86.5,89.6c-5.1-6-11.1-8.5-17.9-8.5
	c-12.8,0-23,10.2-23,23c0,11.1,7.7,19.6,17.9,22.1V174c-10.2,2.6-17.9,11.1-17.9,22.1c0,12.8,10.2,23,23,23c6.8,0,12.8-2.6,17-6.8
	l42.6,23.9c-0.9,1.7-0.9,4.3-0.9,6c0,12.8,10.2,23,23,23c12.8,0,23-10.2,23-23c0-1.7,0-4.3-0.9-6l42.6-23.9
	c4.3,4.3,10.2,6.8,16.2,6.8c12.8,0,23-10.2,23-23c0-11.1-7.7-19.6-17.9-22.1v-47.7c10.2-2.6,17.9-11.1,17.9-22.1
	c0-12.8-10.2-23-23-23c-6.8,0-12.8,2.6-17,6.8l-42.6-23.9c0.9-1.7,0.9-4.3,0.9-6.8C173.4,45.3,163.2,35.1,150.4,35.1L150.4,35.1z
	 M150.4,45.3c6.8,0,12.8,5.1,12.8,11.9s-6,12.8-12.8,12.8c-6.8,0-12.8-5.1-12.8-11.9S143.6,45.3,150.4,45.3z M167.4,73.4L210,97.3
	c-0.9,1.7-0.9,4.3-0.9,6c0,2.6,0.9,5.1,0.9,6.8l-38.3,22.1c-4.3-8.5-11.1-14.5-15.3-17.9V78.5C159.7,78.5,164,76,167.4,73.4
	L167.4,73.4z M134.2,73.4c2.6,2.6,6.8,5.1,11.1,6l0.9,35.8c-4.3,3.4-11.1,9.4-15.3,17.9l-40-22.1c0.9-2.6,0.9-5.1,0.9-7.7
	c0-1.7,0-4.3-0.9-6L134.2,73.4z M68.6,91.3c6.8,0,12.8,5.1,12.8,11.9c0,6.8-5.1,11.9-12.8,11.9c-6.8,0-12.8-5.1-12.8-11.9
	C55.8,96.4,61.8,91.3,68.6,91.3z M232.2,91.3c6.8,0,12.8,5.1,12.8,11.9c0,6.8-5.1,11.9-12.8,11.9c-7.7,0-12.8-5.1-12.8-11.9
	C219.4,96.4,225.3,91.3,232.2,91.3z M84.8,119.4l41.7,23c-0.9,3.4-0.9,6-0.9,9.4c0,1.7,0,3.4,0.9,4.3l-40,23
	c-4.3-2.6-7.7-5.1-12.8-6v-47.7C78,124.5,81.4,122.8,84.8,119.4z M216,119.4c3.4,2.6,6.8,5.1,11.1,6v47.7c-4.3,0.9-7.7,3.4-11.1,6
	l-40-22.1c0-1.7,0.9-3.4,0.9-4.3c0-3.4,0-6.8-0.9-9.4L216,119.4z M150.4,124.5c6,5.1,15.3,15.3,14.5,26.4
	c-0.9,7.7-4.3,13.6-8.5,18.7v-17l0,0c0-2.6-2.6-5.1-5.1-5.1l0,0l0,0c-3.4,0-5.1,2.6-5.1,5.1l0,0l0,0v17c-4.3-5.1-8.5-11.1-9.4-18.7
	C135.9,140.7,144.4,130.5,150.4,124.5L150.4,124.5z M171.7,167.1l38.3,21.3c-0.9,2.6-0.9,4.3-0.9,6.8c0,2.6,0,5.1,0.9,6.8
	l-42.6,23.9c-3.4-3.4-6.8-6-11.9-6.8v-32.4c0,0,0-0.9,0-1.7l0,0C160.6,181.6,167.4,175.7,171.7,167.1L171.7,167.1z M129.1,167.1
	c4.3,8.5,11.1,14.5,15.3,17.9v34.1c-4.3,0.9-8.5,3.4-11.9,6.8l-42.6-23.9c0.9-1.7,0.9-4.3,0.9-6.8c0-2.6,0-4.3-0.9-6L129.1,167.1z
	 M68.6,183.3c6.8,0,12.8,5.1,12.8,11.9c0,6.8-5.1,11.9-12.8,11.9s-12.8-5.1-12.8-11.9C55.8,188.4,61.8,183.3,68.6,183.3z
	 M232.2,183.3c6.8,0,12.8,5.1,12.8,11.9c0,6.8-5.1,11.9-12.8,11.9c-6.8,0-12.8-5.1-12.8-11.9C219.4,188.4,225.3,183.3,232.2,183.3z
	 M150.4,228.5c6.8,0,12.8,5.1,12.8,11.9s-5.1,11.9-12.8,11.9c-7.7,0-12.8-5.1-12.8-11.9c0-1.7,0.9-3.4,1.7-5.1l0.9-1.7
	C142.7,231,146.1,228.5,150.4,228.5z"/>
</svg>
