<svg xmlns="http://www.w3.org/2000/svg" baseProfile="full" version="1.1" viewBox="5, 5, 480, 480" style="fill: none; stroke-width: 1;">
	<path d="M65,245 A180,180 0 0,1 245,65 A0,0 0 0,1 245,65 A180,180 0 0,1 425,245 A0,0 0 0,1 425,245 A180,180 0 0,1 245,425 A0,0 0 0,1 245,425 A180,180 0 0,1 65,245 " style="stroke-width: 20; stroke-linecap: round; stroke-linejoin: round; stroke: #FFF; fill: #transparent;"></path>
	<path d="M140,245 L140,245 L155,230 L155,230 L260,335 L260,335 L245,350 L245,350 L140,245 M170,215 L170,215 L185,200 L185,200 L290,305 L290,305 L275,320 L275,320 L170,215 M200,185 L200,185 L215,170 L215,170 L320,275 L320,275 L305,290 L305,290 L200,185 M230,155 L230,155 L245,140 L245,140 L350,245 L350,245 L335,260 L335,260 L230,155 M155,260 L155,260 L260,155 L260,155 L275,170 L275,170 L170,275 L170,275 L155,260 M185,290 L185,290 L290,185 L290,185 L305,200 L305,200 L200,305 L200,305 L185,290 M215,320 L215,320 L320,215 L320,215 L335,230 L335,230 L230,335 L230,335 L215,320 " style="fill: #FFF;"></path>
</svg>