<?xml version="1.0" encoding="utf-8"?>
<!-- Generator: Adobe Illustrator 23.0.1, SVG Export Plug-In . SVG Version: 6.00 Build 0)  -->
<svg version="1.1" id="Layer_1" xmlns="http://www.w3.org/2000/svg" xmlns:xlink="http://www.w3.org/1999/xlink" x="0px" y="0px"
	 viewBox="0 0 100 100" style="enable-background:new 0 0 100 100;" xml:space="preserve">
<style type="text/css">
	.st0{opacity:0.8;}
	.st1{fill-rule:evenodd;clip-rule:evenodd;fill:#FFFFFF;}
	.st2{filter:url(#Adobe_OpacityMaskFilter);}
	.st3{mask:url(#b_1_);fill-rule:evenodd;clip-rule:evenodd;fill:#FFFFFF;}
</style>
<g class="st0">
	<path class="st1" d="M45.4,68.6c1.9,0.9,3.9,1.3,5.9,1.3c3,0,6-1,8.5-3c0.3-0.3,0.7-0.5,1-0.8c1.1-1,1.2-2.7,0.2-3.8c0,0,0,0,0,0
		c-1-1.1-2.7-1.2-3.8-0.2c-0.2,0.2-0.5,0.4-0.7,0.6c-2.5,2-5.7,2.4-8.6,1c-3-1.4-4.7-4.2-4.7-7.5V41.7h16.2c1.3,0,2.4-1,2.4-2.3
		s-1-2.4-2.3-2.4c0,0-0.1,0-0.1,0H43v-4.2c0-1.5-1.2-2.7-2.7-2.7c0,0,0,0,0,0c-1.5,0-2.7,1.2-2.7,2.7V37h-4.4
		c-1.3,0-2.3,1.1-2.3,2.4c0,1.3,1,2.3,2.3,2.3h4.4v14.5C37.5,61.5,40.5,66.3,45.4,68.6"/>
	<path class="st1" d="M86.2,57.8c0.3-1.3-0.7-2.5-2-2.5h-0.6c-1,0-1.8,0.7-2,1.6C78.5,71,66.1,81.7,51.3,82.3
		c-22.8,0.9-40.8-22-30.9-45.9c3-7.2,8.8-13,16-16C52.8,13.7,68.7,20,76.8,32c0.6,0.9,1.9,1.2,2.8,0.6l0.4-0.2c1-0.7,1.4-2,0.7-3.1
		c0,0,0,0,0-0.1C71.8,16.1,54.7,9,36.9,15.2c-10.1,3.5-18,11.3-21.6,21.3C5.9,62.5,25.1,87.1,50,87.1C67.7,87.1,82.6,74.5,86.2,57.8
		"/>
	<g transform="translate(0 .329)">
		<defs>
			<filter id="Adobe_OpacityMaskFilter" filterUnits="userSpaceOnUse" x="0.5" y="0.2" width="99" height="99">
				<feColorMatrix  type="matrix" values="1 0 0 0 0  0 1 0 0 0  0 0 1 0 0  0 0 0 1 0"/>
			</filter>
		</defs>
		<mask maskUnits="userSpaceOnUse" x="0.5" y="0.2" width="99" height="99" id="b_1_">
			<g class="st2">
				<path id="a_1_" class="st1" d="M0.5,99.2v-99h99v99H0.5z"/>
			</g>
		</mask>
		<path class="st3" d="M47.7,0.2C22.2,1.4,1.7,22,0.5,47.4c-0.2,5.4,0.4,10.9,1.9,16.1c0.4,1.4,2,2,3.3,1.4l0,0
			c1-0.5,1.6-1.7,1.2-2.8c-1.4-4.6-2-9.5-1.8-14.3C6.2,24.8,24.9,6,48,5c25.6-1.1,46.7,19.4,46.7,44.7c0,24.7-20.1,44.7-44.7,44.7
			c-3.3,0-6.5-0.4-9.7-1.1c-0.8-0.2-1.7,0.1-2.2,0.8c-1.1,1.4-0.4,3.5,1.4,3.9c4.1,0.9,8.2,1.3,12.3,1.1
			c25.7-0.9,46.5-21.6,47.6-47.3C100.7,22.8,76.7-1.1,47.7,0.2"/>
	</g>
</g>
</svg>
