<?xml version="1.0" encoding="utf-8"?>
<!-- Generator: Adobe Illustrator 24.1.1, SVG Export Plug-In . SVG Version: 6.00 Build 0)  -->
<svg version="1.1" id="图层_1" xmlns="http://www.w3.org/2000/svg" xmlns:xlink="http://www.w3.org/1999/xlink" x="0px" y="0px"
	 viewBox="0 0 1000 1000" style="enable-background:new 0 0 1000 1000;" xml:space="preserve">
<style type="text/css">
	.st0{fill:#8200FF;}
	.st1{fill:#00FFDA;}
</style>
<g>
	<path class="st0" d="M846.53,252.39l-127.8,31.47c-11.68,2.88-19.85,13.3-19.85,25.33v294.7c0,14.39,11.67,26.1,26,26.1
		c2.1,0,4.23-0.26,6.32-0.77l127.8-31.47c11.69-2.88,19.86-13.28,19.86-25.32v-294.7c0-14.4-11.68-26.11-26.01-26.11
		C850.75,251.61,848.62,251.88,846.53,252.39z"/>
	<g>
		<path class="st0" d="M234.53,427.59c0-23.68,16.06-44.17,39.04-49.83l27.53-6.78v-93.25c0-14.4-11.67-26.11-26-26.11
			c-2.1,0-4.23,0.26-6.32,0.77l-127.8,31.47c-11.68,2.88-19.85,13.3-19.85,25.33v294.7c0,14.39,11.67,26.1,26,26.1h0.01
			c2.1,0,4.23-0.26,6.31-0.77l81.08-19.96V427.59z"/>
	</g>
	<g>
		<path class="st1" d="M432.13,655.23c-28.25,0-51.23-23.03-51.23-51.33V377.31l-101.3,24.94c-11.68,2.88-19.85,13.3-19.85,25.33
			v294.69c0,14.4,11.67,26.11,26,26.11h0.01c2.1,0,4.23-0.26,6.31-0.77l127.8-31.47c11.68-2.88,19.85-13.3,19.85-25.33v-36.22
			C437.21,654.97,434.67,655.23,432.13,655.23z"/>
	</g>
	<g>
		<path class="st0" d="M527.28,427.59c0-23.67,16.06-44.17,39.05-49.83l19.79-4.87v-95.16c0-14.4-11.68-26.11-26.01-26.11
			c-2.1,0-4.23,0.26-6.32,0.77l-127.79,31.47c-11.69,2.88-19.86,13.3-19.86,25.33v294.7c0,14.39,11.67,26.1,26,26.1h0.01
			c2.1,0,4.23-0.26,6.31-0.77l88.82-21.87V427.59z"/>
	</g>
	<g>
		<path class="st1" d="M724.89,655.23c-28.25,0-51.23-23.03-51.23-51.33V377.31l-101.3,24.94c-11.69,2.88-19.86,13.3-19.86,25.33
			v294.69c0,14.4,11.68,26.11,26.01,26.11c2.1,0,4.23-0.26,6.32-0.77l127.8-31.47c11.68-2.88,19.85-13.3,19.85-25.33v-36.22
			C729.96,654.97,727.42,655.23,724.89,655.23z"/>
	</g>
</g>
</svg>
