<svg xmlns="http://www.w3.org/2000/svg" viewBox="0 0 1953.69 494.71"><defs><style>.cls-1,.cls-2{fill:#c69c6d;}.cls-1{fill-rule:evenodd;}</style></defs><g id="Layer_2" data-name="Layer 2"><g id="t"><path class="cls-1" d="M628.62,295.79a77.6,77.6,0,0,0,10.68-24.08l-24.25,0q-4.41,14.85-14.35,23c-7.73,6.37-17.72,9.54-29.89,9.53a41.84,41.84,0,0,1-22.37-6c-6.43-3.93-11.73-9.77-16-17.45A74.35,74.35,0,0,1,525,261.28a103.31,103.31,0,0,1-2.41-22.94,99.4,99.4,0,0,1,3.18-26,65.24,65.24,0,0,1,9.82-21.16,44.4,44.4,0,0,1,16.2-14.33A46,46,0,0,1,573.08,172a42.42,42.42,0,0,1,14.11,2.35A45.68,45.68,0,0,1,600,181.22a41.59,41.59,0,0,1,10.26,11.27A48.66,48.66,0,0,1,615,202.66l25,0a57.34,57.34,0,0,0-9.13-22.51c-5.59-8-13.51-14.62-23.73-19.6l0,0c-10-5-21.56-7.56-34.47-7.57a87.88,87.88,0,0,0-15.91,1.4,76.08,76.08,0,0,0-14.6,4.16h0a62.24,62.24,0,0,0-22.72,15.77,76.49,76.49,0,0,0-15,25.78l0,0a100.58,100.58,0,0,0-4.74,18.74A136.76,136.76,0,0,0,498,240.27a126.66,126.66,0,0,0,2.49,26,79.32,79.32,0,0,0,7.3,20.86,69.11,69.11,0,0,0,11.39,16.13A59.66,59.66,0,0,0,534,314.57v0a72.72,72.72,0,0,0,17.84,6.88A86,86,0,0,0,572,323.76a80.24,80.24,0,0,0,18.26-2,66.75,66.75,0,0,0,15.83-5.93v0a61.63,61.63,0,0,0,22.52-20Z"/><polygon class="cls-1" points="884.49 319.12 906.44 319.13 906.54 157.78 884.6 157.77 884.49 319.12 884.49 319.12"/><path class="cls-1" d="M708.87,189.77a61.49,61.49,0,0,1,45.48,20l-1.25,1.66-.09-.11,0,.22a62,62,0,0,0-10.13,22.37,38.36,38.36,0,1,0,4.29,19.33c0-.54,0-1.06,0-1.61a61.83,61.83,0,0,1,11.7-36.18l0-.22,0,.07a61.89,61.89,0,1,1,4.36,78,61.22,61.22,0,0,0,11.34-24.63,38.39,38.39,0,1,0-3.9-19.15l-.06,0c0,.69,0,1.39,0,2.07a61.86,61.86,0,1,1-61.81-61.89Z"/><path class="cls-2" d="M1238.75,300.92v15.95a23.11,23.11,0,0,1-9.62,1.63c-12.67,0-21.35-5.4-21.34-18.31v-5.63c-2.59,5.4-14.33,24.86-43,24.84-23.22,0-41.75-11.52-41.73-35.92,0-24.16,19-34,42.48-37,14.78-1.87,31.91-3.27,40.12-7.95v-2.11c0-19.71-10.31-23.94-26.49-23.95-15.48,0-24.4,4.45-26.29,15l-22.51,0c2.35-22,19.95-33.53,48.81-33.51,34.72,0,50.19,13.17,50.17,48.12l0,49.26C1229.36,298.1,1231.94,301.15,1238.75,300.92Zm-33-46c-7.51,3.74-19.71,5.15-38.71,8-14.31,2.1-20,8.43-20,19.22,0,11,7.26,19,21.34,19a41.55,41.55,0,0,0,37.31-22Z"/><path class="cls-2" d="M1281.89,154.92l-.11,164.2h-23.69l.1-164.21Z"/><path class="cls-2" d="M1331.62,155l-.1,164.2h-23.7l.1-164.21Z"/><path class="cls-2" d="M1463.74,264.7l-89.14-.06c2.56,24.64,17.57,35.44,35.87,35.45,11.49,0,21.11-3.28,27.45-12.42h22.75c-9.86,22.75-26.76,31.89-52.09,31.88-27.21,0-57.7-18.34-57.67-62.67,0-44.11,29.83-62.85,57.51-62.83,29.32,0,55.35,19.26,55.32,64.77Zm-89.13-16.48,65.92,0c-2.1-23.69-14.53-34.73-32.12-34.74C1391.52,213.51,1377.2,224.76,1374.61,248.22Z"/><path class="cls-2" d="M1038,194,997.11,319.28H974.29L927.82,157.7l25.59,0L987,282.82l27.53-88.73m24.06,0L1066,282.87l33.73-125.06,25.59,0-46.67,161.5h-22.82L1015.11,194"/><path class="cls-2" d="M1483.73,181.94h13.09l4.49,19.19,30.39,0,0,18.42h-25.4l0,66.54c0,11.06,4.79,13.56,14.33,13.57h11.06v19.95h-18.17q-29.82,0-29.78-31.94Z"/><polygon class="cls-2" points="1496.82 181.95 1506.35 181.96 1506.34 201.14 1501.31 201.14 1496.82 181.95"/><path class="cls-2" d="M1605.74,152.57l70.39,0q18.18,0,29.68,5.28t17.71,13.18a44.92,44.92,0,0,1,8.49,17.25,73.43,73.43,0,0,1,2.26,17.23,72.1,72.1,0,0,1-2.29,17.12,44.82,44.82,0,0,1-8.51,17.11q-6.23,7.91-17.72,13T1676.06,258l-48,0,0,65.59h-22.38ZM1628.08,236l51.35,0a38.89,38.89,0,0,0,10.29-1.43,29.5,29.5,0,0,0,9.7-4.66,24,24,0,0,0,7.19-8.61c1.83-3.59,3.29-13,3.29-18.44,0-5.58-1.32-12.84-2.91-16.52a22.3,22.3,0,0,0-6.46-8.74,23.11,23.11,0,0,0-9.33-4.43A51.25,51.25,0,0,0,1680,172l-51.83,0Z"/><path class="cls-2" d="M1754.38,211.74h23.15v21.64h.43a24.86,24.86,0,0,1,4.23-8.87,41.09,41.09,0,0,1,7.57-7.89,38.2,38.2,0,0,1,9.85-5.73,29.3,29.3,0,0,1,11-2.15,52.07,52.07,0,0,1,6,.22l3.35.43,0,23.8c-1.73-.29-3.49-.54-5.3-.76a43.71,43.71,0,0,0-5.3-.33,28.49,28.49,0,0,0-11.79,2.48,27.12,27.12,0,0,0-9.63,7.35,36.14,36.14,0,0,0-6.5,12,51.91,51.91,0,0,0-2.39,16.45l0,53.22-24.67,0Z"/><path class="cls-2" d="M1892.14,205.53a61.59,61.59,0,1,0,61.55,61.63A61.59,61.59,0,0,0,1892.14,205.53Zm-.06,100.55a39,39,0,1,1,39-38.94A39,39,0,0,1,1892.08,306.08Z"/><path class="cls-2" d="M.07,60.39V280.05h0a132.17,132.17,0,0,0,9.63,54.49c30.63,76.6,127.56,130.77,203.22,160.17l0-38.49C118,419.06,72,370.64,53.38,335.77c-16.52-30.86-14.55-54.44-14.55-54.44V82.47L212.94,32.19V0L15.53,56.28Z"/><path class="cls-2" d="M218.6,445q18.17-8.91,33.82-18l1.16-102.72v-264l-35-10.64Z"/><path class="cls-2" d="M285.92,400.16c13.47-6.79,35-27.13,35-27.13V75.1l-35-10.63Z"/><path class="cls-2" d="M352.76,87.12l1,154v98.47l1-1.1q3.3-4.32,6.16-8.45c24.67-35.59,25.88-60.72,25.88-60.72V243l1-145.19Z"/></g></g></svg>