<svg width="180" height="45" viewBox="0 0 180 45" fill="none" xmlns="http://www.w3.org/2000/svg">
<path d="M31.089 0H14.1297V22.8793H37.0276V5.91996C37.0276 2.67143 34.3543 0 31.1077 0C31.1021 0 31.0946 0 31.089 0V0Z" fill="#142533"/>
<path d="M8.8427 0H5.91995C2.67329 0 0 2.67328 0 5.91995V8.84269H8.8427V0Z" fill="#142533"/>
<path d="M0 14.1299H8.8427V22.9726H0V14.1299Z" fill="#142533"/>
<path d="M28.2594 37.0275H31.1821C34.4307 37.0275 37.1021 34.3542 37.1021 31.1076C37.1021 31.102 37.1021 31.0945 37.1021 31.0889V28.2593H28.2594V37.0275Z" fill="#142533"/>
<path d="M14.1297 28.2593H22.9724V37.102H14.1297V28.2593Z" fill="#142533"/>
<path d="M0 28.2593V31.182C0 34.4287 2.67329 37.102 5.91995 37.102H8.8427V28.2593H0Z" fill="#142533"/>
<path d="M59.6276 2.36401H56.165V34.7376H74.5019V31.6473H59.6276V2.36401Z" fill="#142533"/>
<path d="M85.6345 10.9463C78.8954 10.9463 74.1483 15.954 74.1483 23.1585V23.9776C74.3754 30.2718 79.5972 35.3354 85.8951 35.3707H86.3419C89.4955 35.3652 92.5448 34.237 94.9426 32.1874V32.0943L93.3788 29.5439L93.2113 29.637C91.3496 31.372 88.9053 32.3493 86.3605 32.3735C86.2972 32.3754 86.2339 32.3754 86.1706 32.3754C81.4719 32.3754 77.6071 28.5107 77.6071 23.8119C77.6071 23.7189 77.6071 23.6239 77.6109 23.5308H95.1101V23.3447V21.7065C95.2777 15.1349 91.4613 10.9463 85.6345 10.9463V10.9463ZM77.797 20.6081C78.2587 16.7583 81.5705 13.8318 85.4483 13.8504C88.371 13.8504 91.573 15.6003 91.8337 20.6081H77.797Z" fill="#142533"/>
<path d="M115.42 13.6827V14.8927C113.94 12.4279 111.276 10.9088 108.402 10.8902H107.974C101.775 10.8902 97.493 15.8049 97.493 23.0094C97.493 30.2138 101.589 35.2402 107.695 35.2402C110.859 35.391 113.857 33.7658 115.458 31.033V34.5886H118.734V2.36401H115.42V13.6827ZM108.309 32.1872C104.027 32.1872 101.198 28.4639 101.198 23.0652C101.198 17.6665 104.195 14.0364 108.402 14.0364C111.883 14.0364 115.42 16.866 115.42 23.0652C115.42 29.7857 111.697 32.1872 108.235 32.1872H108.309Z" fill="#142533"/>
<path d="M138.784 14.1297V14.3159C138.132 13.2175 136.14 10.8533 131.337 10.8533C125.231 10.8533 121.21 15.5073 121.21 22.6187C121.21 29.7301 125.417 34.5517 131.617 34.5517C134.523 34.7676 137.315 33.3249 138.821 30.8285V34.0304C138.821 38.4983 135.991 41.0487 130.965 41.0487C128.798 41.0618 126.661 40.5591 124.729 39.5781L124.561 39.485L123.276 42.3147L123.463 42.4077C125.806 43.5954 128.392 44.234 131.021 44.2694C136.401 44.2694 142.191 41.5328 142.191 33.956V11.6165H138.784V14.1297ZM132.026 31.6476C127.558 31.6476 124.58 28.185 124.58 22.8049C124.58 17.4248 127.13 14.2228 131.505 14.2228C136.326 14.2228 138.616 17.0525 138.616 22.8049C138.616 28.5573 136.401 31.6476 132.026 31.6476V31.6476Z" fill="#142533"/>
<path d="M155.929 10.9463C149.171 10.9463 144.517 15.954 144.517 23.0654V23.8846C144.717 30.2494 150.009 35.3745 156.376 35.3708H156.841C159.984 35.3521 163.02 34.2166 165.405 32.1688L163.822 29.4508H163.636C161.782 31.1858 159.343 32.1632 156.804 32.1874C156.741 32.1892 156.678 32.1892 156.614 32.1892C151.906 32.1892 148.032 28.3152 148.032 23.6072C148.032 23.5197 148.034 23.4322 148.036 23.3447H165.684V23.1585V21.5203C165.684 15.1349 161.849 10.9463 155.929 10.9463V10.9463ZM148.166 20.6081C148.635 16.7545 151.955 13.8318 155.836 13.8504C158.74 13.8504 161.942 15.6003 162.203 20.6081H148.166Z" fill="#142533"/>
<path d="M179.907 11.3932C179.442 11.3932 179.088 11.3932 178.622 11.207C175.335 11.302 172.442 13.4615 171.418 16.5871V11.3932H168.048V34.6448H171.511V24.8899C171.522 23.3913 171.768 21.902 172.237 20.4779C173.335 16.9222 175.793 14.651 178.715 14.651C179.08 14.6138 179.449 14.6138 179.814 14.651H180V11.3932H179.907Z" fill="#142533"/>
</svg>
