<svg width="80" height="80" viewBox="0 0 80 80" fill="none" xmlns="http://www.w3.org/2000/svg">
<path d="M40 80C62.0914 80 80 62.0914 80 40C80 17.9086 62.0914 0 40 0C17.9086 0 0 17.9086 0 40C0 62.0914 17.9086 80 40 80Z" fill="#181818"/>
<path d="M41.8239 35.1999L57.7279 19.2639L60.9599 22.5279L45.0559 38.4319L41.8239 35.1999ZM19.0079 57.9839L34.9439 42.0479L38.1759 45.3119L22.2719 61.2159L19.0079 57.9839ZM41.8239 45.3119L45.0559 42.0479L60.9919 57.9839L57.7279 61.2159L41.8239 45.3119ZM19.0079 22.5279L22.2719 19.2639L38.1759 35.1679L34.9439 38.4319L19.0079 22.5279ZM36.7359 40.2239L39.9999 36.9599L43.2639 40.2239L39.9999 43.4879L36.7359 40.2239Z" fill="#F6D30C"/>
</svg>
