<svg width="340" height="160" viewBox="0 0 340 160" fill="none" xmlns="http://www.w3.org/2000/svg">
<g clip-path="url(#clip0_1412_2985)">
<path fill-rule="evenodd" clip-rule="evenodd" d="M224.906 140.476C231.804 141.124 237.921 136.057 238.568 129.16C239.216 122.262 234.149 116.145 227.252 115.498C220.354 114.85 214.237 119.917 213.59 126.814C212.942 133.712 218.009 139.829 224.906 140.476ZM224.711 142.558C232.758 143.313 239.894 137.402 240.65 129.355C241.405 121.308 235.494 114.172 227.447 113.416C219.4 112.661 212.264 118.572 211.508 126.619C210.753 134.666 216.664 141.802 224.711 142.558Z" fill="#C4C4C4"/>
<path fill-rule="evenodd" clip-rule="evenodd" d="M72.9266 87.3596C72.3518 87.3056 71.8421 87.7278 71.7882 88.3026L67.0979 138.26C67.0439 138.835 67.4661 139.344 68.0409 139.398L241.33 155.668C241.905 155.722 242.414 155.299 242.468 154.725L247.159 104.767C247.213 104.193 246.79 103.683 246.216 103.629L72.9266 87.3596ZM225.363 138.419C230.967 138.946 235.937 134.829 236.463 129.225C236.989 123.62 232.872 118.65 227.268 118.124C221.664 117.598 216.694 121.715 216.168 127.319C215.642 132.923 219.758 137.893 225.363 138.419Z" fill="#444444"/>
<path fill-rule="evenodd" clip-rule="evenodd" d="M73.772 89.5388L69.2771 137.414L240.485 153.488L244.979 105.613L73.772 89.5388ZM238.544 129.42C237.91 136.174 231.921 141.135 225.167 140.501C218.413 139.867 213.452 133.878 214.086 127.124C214.72 120.37 220.71 115.409 227.463 116.043C234.217 116.677 239.179 122.666 238.544 129.42ZM71.7882 88.3026C71.8421 87.7278 72.3518 87.3056 72.9266 87.3596L246.216 103.629C246.79 103.683 247.213 104.193 247.159 104.767L242.468 154.725C242.414 155.299 241.905 155.722 241.33 155.668L68.0409 139.398C67.4661 139.344 67.0439 138.835 67.0979 138.26L71.7882 88.3026ZM236.463 129.225C235.937 134.829 230.967 138.946 225.363 138.419C219.758 137.893 215.642 132.923 216.168 127.319C216.694 121.715 221.664 117.598 227.268 118.124C232.872 118.65 236.989 123.62 236.463 129.225Z" fill="#444444"/>
<rect x="92.6616" y="97.7383" width="101.552" height="36.1853" rx="2" transform="rotate(5.36354 92.6616 97.7383)" fill="white" fill-opacity="0.12"/>
<path d="M118.767 118.854L115.245 118.523L114.994 121.2L119.11 121.586L118.997 122.793L113.39 122.267L114.207 113.567L119.773 114.09L119.658 115.309L115.583 114.926L115.357 117.328L118.879 117.659L118.767 118.854Z" fill="#00F0FF"/>
<path d="M122.62 115.026L122.472 116.597L123.597 116.703L123.496 117.779L122.371 117.673L122.032 121.282C122.009 121.529 122.039 121.713 122.123 121.833C122.211 121.95 122.379 122.02 122.626 122.043C122.791 122.058 122.96 122.054 123.132 122.03L123.027 123.154C122.692 123.215 122.374 123.231 122.072 123.202C120.972 123.099 120.48 122.432 120.596 121.201L120.94 117.539L119.892 117.44L119.993 116.365L121.041 116.463L121.188 114.892L122.62 115.026Z" fill="#00F0FF"/>
<path d="M126.039 117.644C126.558 117.138 127.175 116.918 127.889 116.986C129.248 117.113 129.863 117.964 129.735 119.54L129.338 123.764L127.907 123.63L128.299 119.459C128.341 119.013 128.274 118.689 128.099 118.488C127.928 118.283 127.658 118.163 127.289 118.129C126.716 118.075 126.264 118.294 125.932 118.785L125.499 123.404L124.068 123.269L124.929 114.092L126.36 114.226L126.039 117.644Z" fill="#00F0FF"/>
<path d="M133.585 124.283C132.678 124.198 131.969 123.84 131.458 123.21C130.951 122.575 130.743 121.776 130.833 120.812L130.85 120.633C130.911 119.988 131.087 119.424 131.378 118.94C131.673 118.454 132.055 118.09 132.526 117.849C132.996 117.608 133.504 117.513 134.05 117.564C134.917 117.645 135.56 117.989 135.979 118.595C136.401 119.201 136.564 120.018 136.467 121.046L136.412 121.631L132.249 121.241C132.242 121.778 132.377 122.217 132.654 122.556C132.935 122.896 133.309 123.088 133.776 123.132C134.432 123.194 134.991 122.975 135.454 122.476L136.155 123.295C135.864 123.657 135.494 123.926 135.046 124.101C134.602 124.272 134.115 124.333 133.585 124.283ZM133.934 118.728C133.542 118.692 133.211 118.801 132.941 119.057C132.675 119.313 132.486 119.687 132.372 120.179L135.099 120.435L135.109 120.328C135.123 119.839 135.03 119.46 134.829 119.192C134.629 118.92 134.331 118.766 133.934 118.728Z" fill="#00F0FF"/>
<path d="M141.087 119.683C140.901 119.634 140.708 119.6 140.508 119.581C139.853 119.519 139.387 119.733 139.111 120.221L138.696 124.643L137.265 124.508L137.872 118.043L139.238 118.172L139.206 118.898C139.604 118.369 140.11 118.133 140.722 118.19C140.926 118.209 141.092 118.253 141.221 118.322L141.087 119.683Z" fill="#00F0FF"/>
<path d="M144.186 125.279C143.279 125.194 142.57 124.836 142.058 124.205C141.552 123.571 141.343 122.771 141.434 121.808L141.451 121.628C141.511 120.983 141.687 120.419 141.978 119.936C142.273 119.449 142.656 119.085 143.126 118.844C143.596 118.603 144.104 118.508 144.65 118.559C145.518 118.641 146.161 118.984 146.579 119.59C147.002 120.196 147.164 121.013 147.068 122.041L147.013 122.627L142.849 122.236C142.842 122.774 142.977 123.212 143.255 123.552C143.536 123.892 143.91 124.083 144.377 124.127C145.032 124.189 145.592 123.97 146.054 123.471L146.756 124.29C146.464 124.653 146.094 124.921 145.646 125.096C145.202 125.268 144.716 125.328 144.186 125.279ZM144.535 119.724C144.142 119.687 143.811 119.796 143.541 120.052C143.276 120.309 143.086 120.683 142.973 121.174L145.699 121.43L145.71 121.323C145.724 120.834 145.631 120.455 145.43 120.187C145.23 119.916 144.931 119.761 144.535 119.724Z" fill="#00F0FF"/>
<path d="M151.788 125.233C151.321 125.695 150.701 125.89 149.927 125.818C149.236 125.753 148.732 125.499 148.413 125.055C148.098 124.611 147.977 124.001 148.05 123.224L148.443 119.036L149.874 119.17L149.483 123.341C149.406 124.161 149.703 124.603 150.374 124.666C151.069 124.731 151.562 124.523 151.853 124.039L152.289 119.397L153.72 119.531L153.113 125.996L151.764 125.87L151.788 125.233Z" fill="#00F0FF"/>
<path d="M156.523 119.794L156.501 120.473C156.998 119.986 157.636 119.778 158.413 119.851C159.265 119.931 159.817 120.317 160.069 121.007C160.594 120.39 161.277 120.12 162.117 120.199C162.82 120.265 163.324 120.511 163.628 120.938C163.937 121.364 164.059 121.963 163.995 122.732L163.596 126.98L162.165 126.846L162.56 122.64C162.598 122.229 162.538 121.92 162.379 121.712C162.221 121.505 161.937 121.382 161.529 121.343C161.203 121.313 160.927 121.377 160.703 121.537C160.482 121.693 160.317 121.911 160.208 122.19L159.797 126.624L158.366 126.489L158.766 122.235C158.817 121.473 158.47 121.056 157.724 120.986C157.151 120.932 156.722 121.131 156.438 121.583L155.999 126.267L154.568 126.133L155.175 119.668L156.523 119.794Z" fill="#00F0FF"/>
<path fill-rule="evenodd" clip-rule="evenodd" d="M208.696 148.376C219.751 158.054 236.558 156.937 246.235 145.883C255.913 134.828 254.797 118.022 243.742 108.344L122.222 2.45342C121.338 1.6792 119.994 1.76849 119.219 2.65285L86.9768 39.4822C86.2026 40.3666 86.2919 41.7111 87.1762 42.4853L208.696 148.376ZM236.833 117.852C230.642 112.432 221.231 113.057 215.811 119.248C210.391 125.438 211.016 134.85 217.207 140.27C223.398 145.689 232.809 145.064 238.229 138.874C243.648 132.683 243.023 123.271 236.833 117.852Z" fill="#C4C4C4"/>
<path d="M152.675 76.982L151.789 78.0879L159.611 84.35L163.604 79.3623L162.464 78.4499L159.357 82.3317L152.675 76.982ZM165.853 60.5217L164.968 61.6276L171.65 66.9773L168.542 70.8593L169.681 71.7718L173.675 66.7838L165.853 60.5217ZM154.97 65.8479L157.027 63.2781L158.815 64.7094C159.687 65.4074 159.774 65.9397 159.158 66.7097L158.793 67.165C158.159 67.9565 157.64 67.986 156.758 67.2793L154.97 65.8479ZM157.443 68.5754C158.424 69.0223 159.584 68.7411 160.287 67.8629C160.73 67.31 160.906 66.6323 160.803 65.8911C160.666 64.9628 160.15 64.1408 159.223 63.3984L156.709 61.3856L150.632 68.9759L151.749 69.8706L154.171 66.8454L155.847 68.1874C156.708 68.8761 156.776 69.5004 156.082 70.3681L154.632 72.1789L155.772 73.0914L157.082 71.454C158.037 70.2612 158.112 69.5733 157.322 68.7274L157.443 68.5754ZM147.836 61.2924L151.277 64.0478L152.076 63.0503L148.634 60.2949L150.458 58.0177L154.234 61.0414L155.033 60.0439L150.116 56.1076L144.039 63.6979L149.124 67.7684L149.922 66.7708L145.978 63.6129L147.836 61.2924ZM143.771 58.6967L143.354 59.2171C142.478 60.3123 141.778 60.3392 140.739 59.5073L140.493 59.3105C139.453 58.4785 139.211 57.7505 140.418 56.2433L142.05 54.2047C143.265 52.6868 144.043 52.7926 145.082 53.6245L145.305 53.8032C146.322 54.6174 146.351 55.2455 145.546 56.2737L146.775 57.2578C147.861 55.6719 147.588 53.9057 146.046 52.6711C145.298 52.0718 144.49 51.7986 143.673 51.8565C142.457 51.9327 141.198 52.704 139.983 54.222C138.81 55.6859 138.278 57.0387 138.432 58.2654C138.545 59.0857 139.003 59.8431 139.64 60.3531C140.31 60.8898 141.133 61.1216 141.897 60.8082L142.053 60.9333L141.48 61.649L142.508 62.472L145.642 58.5577L142.614 56.1334L141.815 57.1309L143.771 58.6967ZM136.859 47.1306L138.077 48.1058C139.228 49.0273 139.628 49.8102 138.413 51.3284L136.816 53.3235C135.6 54.8415 134.749 54.6226 133.598 53.701L132.38 52.7259L136.859 47.1306ZM132.899 54.7792C135.034 56.488 137.085 55.5507 138.865 53.3278C140.671 51.0724 141.055 48.8529 138.954 47.1709L136.54 45.2385L130.463 52.8289L132.899 54.7792ZM127.723 45.19L131.165 47.9454L131.964 46.9478L128.522 44.1924L130.345 41.9152L134.122 44.9389L134.92 43.9413L130.004 40.005L123.927 47.5953L129.011 51.6659L129.81 50.6684L125.866 47.5105L127.723 45.19ZM124.551 35.6396L123.412 34.7272L117.335 42.3175L122.475 46.4326L123.273 45.4351L119.273 42.2324L124.551 35.6396ZM109.502 36.0466L105.508 41.0345L113.33 47.2966L114.215 46.1905L107.533 40.8408L110.641 36.959L109.502 36.0466ZM119.572 23.4681L115.579 28.456L116.719 29.3684L119.827 25.4864L126.508 30.8361L127.394 29.7302L119.572 23.4681Z" fill="white"/>
<path d="M236.833 117.851C230.642 112.431 221.23 113.056 215.811 119.247C210.391 125.437 211.016 134.849 217.207 140.269C223.397 145.688 232.809 145.063 238.229 138.873C243.648 132.682 243.023 123.27 236.833 117.851Z" fill="#C4C4C4"/>
<path fill-rule="evenodd" clip-rule="evenodd" d="M236.222 118.549C230.417 113.467 221.591 114.053 216.509 119.858C211.426 125.663 212.012 134.489 217.818 139.571C223.623 144.653 232.449 144.067 237.531 138.262C242.613 132.457 242.027 123.631 236.222 118.549ZM215.811 119.247C221.23 113.056 230.642 112.431 236.833 117.851C243.023 123.27 243.648 132.682 238.229 138.873C232.809 145.063 223.397 145.688 217.207 140.269C211.016 134.849 210.391 125.437 215.811 119.247Z" fill="#444444" fill-opacity="0.12"/>
<circle cx="249" cy="43" r="22" fill="#00D6B6"/>
<circle cx="249" cy="43" r="31.5" stroke="#00D6B6" stroke-opacity="0.32" stroke-width="19"/>
<path d="M243.372 37.8837L254.628 49.1395L249 54.7674V32.2557L254.628 37.8837L243.372 49.1395" stroke="white" stroke-width="2" stroke-linecap="round" stroke-linejoin="round"/>
</g>
<defs>
<clipPath id="clip0_1412_2985">
<rect width="340" height="160" fill="white"/>
</clipPath>
</defs>
</svg>
