<svg width="223" height="179" viewBox="0 0 223 179" fill="none" xmlns="http://www.w3.org/2000/svg">
<path fill-rule="evenodd" clip-rule="evenodd" d="M163.415 152.376C170.612 152.376 176.445 146.543 176.445 139.347C176.445 132.15 170.612 126.317 163.415 126.317C156.219 126.317 150.386 132.15 150.386 139.347C150.386 146.543 156.219 152.376 163.415 152.376ZM163.415 154.548C171.811 154.548 178.617 147.742 178.617 139.347C178.617 130.951 171.811 124.145 163.415 124.145C155.02 124.145 148.214 130.951 148.214 139.347C148.214 147.742 155.02 154.548 163.415 154.548Z" fill="#C4C4C4"/>
<path fill-rule="evenodd" clip-rule="evenodd" d="M1.08582 112.201C0.486138 112.201 0 112.687 0 113.287V165.406C0 166.006 0.486138 166.492 1.08582 166.492H181.875C182.475 166.492 182.961 166.006 182.961 165.406V113.287C182.961 112.687 182.475 112.201 181.875 112.201H1.08582ZM163.687 150.205C169.534 150.205 174.274 145.465 174.274 139.618C174.274 133.771 169.534 129.031 163.687 129.031C157.841 129.031 153.101 133.771 153.101 139.618C153.101 145.465 157.841 150.205 163.687 150.205Z" fill="#444444"/>
<path fill-rule="evenodd" clip-rule="evenodd" d="M2.17164 114.373V164.321H180.789V114.373H2.17164ZM176.446 139.618C176.446 146.664 170.734 152.377 163.687 152.377C156.641 152.377 150.929 146.664 150.929 139.618C150.929 132.572 156.641 126.86 163.687 126.86C170.734 126.86 176.446 132.572 176.446 139.618ZM0 113.287C0 112.687 0.486138 112.201 1.08582 112.201H181.875C182.475 112.201 182.961 112.687 182.961 113.287V165.406C182.961 166.006 182.475 166.492 181.875 166.492H1.08582C0.486138 166.492 0 166.006 0 165.406V113.287ZM174.274 139.618C174.274 145.465 169.534 150.205 163.687 150.205C157.841 150.205 153.101 145.465 153.101 139.618C153.101 133.771 157.841 129.031 163.687 129.031C169.534 129.031 174.274 133.771 174.274 139.618Z" fill="#444444"/>
<path d="M22.5028 123.018C22.5028 121.914 23.3982 121.018 24.5028 121.018H125.987C127.091 121.018 127.987 121.914 127.987 123.018V156.605C127.987 157.709 127.091 158.605 125.987 158.605H24.5028C23.3982 158.605 22.5028 157.709 22.5028 156.605V123.018Z" fill="white" fill-opacity="0.12"/>
<path d="M51.55 140.32H47.8759V143.113H52.1706V144.372H46.3214V135.296H52.1276V136.568H47.8759V139.074H51.55V140.32Z" fill="#00F0FF"/>
<path d="M55.1627 135.988V137.628H56.3362V138.75H55.1627V142.515C55.1627 142.772 55.2119 142.959 55.3102 143.076C55.4126 143.188 55.5928 143.244 55.8509 143.244C56.0229 143.244 56.197 143.223 56.3731 143.182V144.354C56.0331 144.449 55.7055 144.497 55.3901 144.497C54.2432 144.497 53.6697 143.855 53.6697 142.571V138.75H52.5761V137.628H53.6697V135.988H55.1627Z" fill="#00F0FF"/>
<path d="M58.9536 138.363C59.441 137.79 60.0575 137.503 60.803 137.503C62.2202 137.503 62.9391 138.324 62.9595 139.965V144.372H61.4665V140.021C61.4665 139.556 61.3662 139.227 61.1655 139.036C60.9689 138.841 60.6781 138.743 60.293 138.743C59.695 138.743 59.2485 139.013 58.9536 139.554V144.372H57.4606V134.797H58.9536V138.363Z" fill="#00F0FF"/>
<path d="M67.4017 144.497C66.4555 144.497 65.6875 144.196 65.0977 143.593C64.5119 142.986 64.2191 142.18 64.2191 141.174V140.987C64.2191 140.314 64.3461 139.714 64.6 139.186C64.8581 138.654 65.2185 138.24 65.6814 137.945C66.1442 137.65 66.6603 137.503 67.2297 137.503C68.1349 137.503 68.8333 137.796 69.3248 138.382C69.8204 138.968 70.0682 139.797 70.0682 140.869V141.48H65.7244C65.7694 142.037 65.9517 142.477 66.2712 142.801C66.5948 143.126 67.0003 143.288 67.4877 143.288C68.1718 143.288 68.7288 143.007 69.1589 142.446L69.9638 143.225C69.6975 143.628 69.3412 143.942 68.8947 144.167C68.4523 144.387 67.9547 144.497 67.4017 144.497ZM67.2235 138.718C66.8139 138.718 66.4821 138.864 66.2282 139.155C65.9783 139.446 65.8186 139.851 65.749 140.37H68.5937V140.258C68.5609 139.751 68.4278 139.369 68.1943 139.111C67.9608 138.849 67.6372 138.718 67.2235 138.718Z" fill="#00F0FF"/>
<path d="M74.7132 139.011C74.5165 138.978 74.3138 138.962 74.1049 138.962C73.4208 138.962 72.96 139.227 72.7225 139.759V144.372H71.2295V137.628H72.6549L72.6918 138.382C73.0522 137.796 73.5519 137.503 74.1909 137.503C74.4039 137.503 74.58 137.532 74.7193 137.59L74.7132 139.011Z" fill="#00F0FF"/>
<path d="M78.461 144.497C77.5148 144.497 76.7468 144.196 76.157 143.593C75.5713 142.986 75.2784 142.18 75.2784 141.174V140.987C75.2784 140.314 75.4054 139.714 75.6593 139.186C75.9174 138.654 76.2778 138.24 76.7407 137.945C77.2035 137.65 77.7196 137.503 78.289 137.503C79.1942 137.503 79.8926 137.796 80.3841 138.382C80.8797 138.968 81.1276 139.797 81.1276 140.869V141.48H76.7837C76.8288 142.037 77.011 142.477 77.3305 142.801C77.6541 143.126 78.0596 143.288 78.547 143.288C79.2311 143.288 79.7882 143.007 80.2182 142.446L81.0231 143.225C80.7569 143.628 80.4005 143.942 79.954 144.167C79.5117 144.387 79.014 144.497 78.461 144.497ZM78.2829 138.718C77.8732 138.718 77.5415 138.864 77.2875 139.155C77.0377 139.446 76.8779 139.851 76.8083 140.37H79.653V140.258C79.6202 139.751 79.4871 139.369 79.2536 139.111C79.0201 138.849 78.6966 138.718 78.2829 138.718Z" fill="#00F0FF"/>
<path d="M86.3193 143.712C85.881 144.235 85.2584 144.497 84.4515 144.497C83.7306 144.497 83.1838 144.283 82.811 143.855C82.4424 143.427 82.2581 142.808 82.2581 141.997V137.628H83.7511V141.979C83.7511 142.835 84.1013 143.263 84.8017 143.263C85.5267 143.263 86.0162 142.999 86.2701 142.471V137.628H87.7631V144.372H86.3562L86.3193 143.712Z" fill="#00F0FF"/>
<path d="M90.6877 137.628L90.7307 138.332C91.1977 137.779 91.8367 137.503 92.6477 137.503C93.5365 137.503 94.1448 137.848 94.4725 138.538C94.9558 137.848 95.6357 137.503 96.5123 137.503C97.2455 137.503 97.7903 137.709 98.1466 138.12C98.5071 138.531 98.6914 139.138 98.6996 139.94V144.372H97.2066V139.984C97.2066 139.556 97.1144 139.242 96.9301 139.043C96.7458 138.843 96.4406 138.743 96.0146 138.743C95.6747 138.743 95.3961 138.837 95.179 139.024C94.966 139.207 94.8165 139.448 94.7305 139.747L94.7367 144.372H93.2437V139.934C93.2232 139.14 92.8238 138.743 92.0456 138.743C91.4475 138.743 91.0236 138.991 90.7737 139.485V144.372H89.2807V137.628H90.6877Z" fill="#00F0FF"/>
<path fill-rule="evenodd" clip-rule="evenodd" d="M147.418 162.12C159.79 171.055 177.063 168.269 185.998 155.897C194.933 143.525 192.147 126.252 179.775 117.317L43.8221 19.6079C42.8323 18.8931 41.4505 19.116 40.7357 20.1058L10.9675 61.324C10.2527 62.3137 10.4756 63.6955 11.4653 64.4103L147.418 162.12ZM173.553 127.821C166.624 122.817 156.952 124.378 151.948 131.306C146.944 138.234 148.505 147.907 155.433 152.91C162.361 157.914 172.034 156.354 177.037 149.426C182.041 142.497 180.481 132.825 173.553 127.821Z" fill="#C4C4C4"/>
<path d="M74.2735 90.3141L73.4121 91.5068L81.733 97.5168L85.6183 92.1377L84.4058 91.262L81.382 95.4484L74.2735 90.3141ZM87.0956 72.562L86.2341 73.7547L93.3426 78.8891L90.3186 83.0758L91.5311 83.9515L95.4165 78.5721L87.0956 72.562ZM76.14 78.6897L78.1418 75.9182L80.0438 77.2919C80.9711 77.9617 81.0844 78.5061 80.4846 79.3365L80.1299 79.8276C79.5133 80.6812 78.9811 80.7417 78.042 80.0634L76.14 78.6897ZM78.8045 81.3614C79.8326 81.7659 81.0132 81.4084 81.6973 80.4614C82.128 79.865 82.2791 79.1554 82.14 78.3964C81.958 77.4462 81.3912 76.6276 80.4048 75.9151L77.7303 73.9834L71.8177 82.1694L73.0065 83.028L75.363 79.7655L77.1461 81.0534C78.0613 81.7144 78.1596 82.3548 77.4837 83.2905L76.0732 85.2435L77.2856 86.1192L78.5611 84.3533C79.4902 83.0669 79.5359 82.3527 78.6861 81.5253L78.8045 81.3614ZM68.6017 74.4012L72.2629 77.0457L73.04 75.9699L69.3787 73.3254L71.1526 70.8695L75.1704 73.7715L75.9475 72.6957L70.717 68.9178L64.8044 77.1038L70.2131 81.0104L70.9902 79.9346L66.7941 76.9038L68.6017 74.4012ZM64.3068 71.9576L63.9014 72.5189C63.0483 73.7 62.3295 73.7683 61.2242 72.9699L60.9627 72.7811C59.8571 71.9825 59.5757 71.2452 60.7498 69.6197L62.3378 67.4211C63.5202 65.784 64.3241 65.8483 65.4295 66.6466L65.667 66.8182C66.7489 67.5996 66.8063 68.2462 66.024 69.354L67.3317 70.2985C68.3785 68.5988 68.0197 66.7917 66.3792 65.6068C65.5829 65.0317 64.7397 64.7965 63.9028 64.9035C62.6555 65.0526 61.3948 65.9217 60.2123 67.5587C59.072 69.1375 58.584 70.5647 58.7973 71.8218C58.9502 72.6618 59.4539 73.4171 60.1315 73.9065C60.8446 74.4216 61.7014 74.6132 62.4732 74.2455L62.6394 74.3655L62.0819 75.1374L63.1755 75.9273L66.2246 71.7058L63.0033 69.3791L62.2262 70.4549L64.3068 71.9576ZM56.6862 60.4206L57.982 61.3566C59.2065 62.241 59.6526 63.0258 58.47 64.6632L56.9159 66.8148C55.7335 68.4519 54.848 68.2753 53.6235 67.3909L52.3277 66.455L56.6862 60.4206ZM52.9531 68.5442C55.2236 70.1842 57.2921 69.0979 59.0236 66.7006C60.7805 64.2681 61.0766 61.9551 58.8417 60.3409L56.2741 58.4863L50.3614 66.6723L52.9531 68.5442ZM47.2052 58.9469L50.8665 61.5914L51.6436 60.5156L47.9823 57.8711L49.7561 55.4152L53.7738 58.3171L54.5509 57.2413L49.3204 53.4634L43.4078 61.6494L48.8167 65.5561L49.5938 64.4803L45.3976 61.4495L47.2052 58.9469ZM43.5199 49.2737L42.3075 48.3981L36.3949 56.584L41.8629 60.5335L42.64 59.4577L38.3843 56.3839L43.5199 49.2737ZM28.0617 50.5656L24.1763 55.9449L32.4972 61.955L33.3588 60.762L26.2503 55.6277L29.2741 51.4412L28.0617 50.5656ZM37.86 36.9999L33.9745 42.3793L35.1869 43.255L38.2109 39.0683L45.3194 44.2027L46.1808 43.01L37.86 36.9999Z" fill="white"/>
<path d="M173.552 127.82C166.624 122.817 156.951 124.377 151.948 131.305C146.944 138.233 148.504 147.906 155.433 152.909C162.361 157.913 172.033 156.353 177.037 149.425C182.041 142.496 180.481 132.824 173.552 127.82Z" fill="#C4C4C4"/>
<path fill-rule="evenodd" clip-rule="evenodd" d="M172.988 128.601C166.491 123.909 157.421 125.372 152.729 131.869C148.037 138.366 149.5 147.436 155.997 152.129C162.493 156.821 171.564 155.358 176.256 148.861C180.948 142.364 179.485 133.293 172.988 128.601ZM151.948 131.305C156.951 124.377 166.624 122.817 173.552 127.82C180.481 132.824 182.041 142.496 177.037 149.425C172.033 156.353 162.361 157.913 155.433 152.909C148.504 147.906 146.944 138.233 151.948 131.305Z" fill="#444444" fill-opacity="0.12"/>
<path d="M202.176 41.9999C202.176 54.1502 192.327 63.9999 180.176 63.9999C168.026 63.9999 158.176 54.1502 158.176 41.9999C158.176 29.8496 168.026 19.9999 180.176 19.9999C192.327 19.9999 202.176 29.8496 202.176 41.9999Z" fill="#00D6B6"/>
<path fill-rule="evenodd" clip-rule="evenodd" d="M222.176 41.9999C222.176 65.1959 203.372 83.9999 180.176 83.9999C156.98 83.9999 138.176 65.1959 138.176 41.9999C138.176 18.804 156.98 -8.7738e-05 180.176 -8.7738e-05C203.372 -8.7738e-05 222.176 18.804 222.176 41.9999ZM180.176 63.9999C192.327 63.9999 202.176 54.1502 202.176 41.9999C202.176 29.8496 192.327 19.9999 180.176 19.9999C168.026 19.9999 158.176 29.8496 158.176 41.9999C158.176 54.1502 168.026 63.9999 180.176 63.9999Z" fill="#00D6B6" fill-opacity="0.32"/>
<path fill-rule="evenodd" clip-rule="evenodd" d="M179.794 30.3318C180.167 30.177 180.597 30.2626 180.883 30.5486L186.511 36.1765C186.902 36.567 186.902 37.2001 186.511 37.5907L181.59 42.5115L186.511 47.4323C186.902 47.8228 186.902 48.456 186.511 48.8465L180.883 54.4744C180.597 54.7604 180.167 54.8459 179.794 54.6912C179.42 54.5364 179.176 54.1717 179.176 53.7673V44.9257L175.255 48.8465C174.865 49.237 174.232 49.237 173.841 48.8465C173.451 48.456 173.451 47.8228 173.841 47.4323L178.762 42.5115L173.841 37.5907C173.451 37.2001 173.451 36.567 173.841 36.1765C174.232 35.7859 174.865 35.7859 175.255 36.1765L179.176 40.0973V31.2557C179.176 30.8512 179.42 30.4866 179.794 30.3318ZM181.176 44.9257L184.39 48.1394L181.176 51.3531V44.9257ZM181.176 40.0973V33.6699L184.39 36.8836L181.176 40.0973Z" fill="white"/>
</svg>
