<?xml version="1.0" encoding="UTF-8"?>
<svg width="133px" height="128px" viewBox="0 0 133 128" version="1.1" xmlns="http://www.w3.org/2000/svg" xmlns:xlink="http://www.w3.org/1999/xlink">
    <!-- Generator: Sketch 51.1 (57501) - http://www.bohemiancoding.com/sketch -->
    <title>Group 2</title>
    <desc>Created with Sketch.</desc>
    <defs></defs>
    <g id="InVision-V2" stroke="none" stroke-width="1" fill="none" fill-rule="evenodd">
        <g id="404" transform="translate(-406.000000, -623.000000)">
            <g id="Group-2" transform="translate(387.000000, 621.000000)">
                <g id="ufo" transform="translate(68.500000, 81.000000) rotate(-25.000000) translate(-68.500000, -81.000000) translate(16.000000, 33.000000)">
                    <g transform="translate(0.834548, 0.416837)">
                        <path d="M51.4902827,75.0636718 C46.1897764,75.0636718 41.8529615,79.5445795 41.8529615,85.0211976 C41.8529615,90.4978157 46.1897764,94.9787234 51.4902827,94.9787234 C56.7907889,94.9787234 61.1276038,90.4978157 61.1276038,85.0211976 C61.1276038,79.5445795 56.7907889,75.0636718 51.4902827,75.0636718 Z M77.1896019,68.4255319 C71.8890956,68.4255319 67.5522807,72.9064396 67.5522807,78.3830577 C67.5522807,83.8596759 71.8890956,88.3405835 77.1896019,88.3405835 C82.4901082,88.3405835 86.8269231,83.8596759 86.8269231,78.3830577 C86.8269231,72.9064396 82.4901082,68.4255319 77.1896019,68.4255319 Z M25.7911673,68.4255319 C20.4906611,68.4255319 16.1538462,72.9064396 16.1538462,78.3830577 C16.1538462,83.8596759 20.4906611,88.3405835 25.7911673,88.3405835 C31.0916736,88.3405835 35.4284885,83.8596759 35.4284885,78.3830577 C35.4284885,72.9064396 31.0916736,68.4255319 25.7911673,68.4255319 Z" id="Shape" fill="#324D5B" fill-rule="nonzero"></path>
                        <path d="M22.3696323,44.4016163 C38.7342702,34.2207378 65.2561144,34.2207378 81.6207523,44.4016163 C97.9853903,54.5824948 97.9853903,71.1162117 81.6207523,81.215405 C65.2561144,91.3962835 38.7342702,91.3962835 22.3696323,81.215405 C6.00499436,71.0345265 6.00499436,54.582288 22.3696323,44.4016163 Z" id="Shape" fill="#E2574C" fill-rule="nonzero"></path>
                        <path d="M26.301148,78.9695111 C10.5968684,69.3075844 10.0359867,53.8961474 24.698658,43.9148936 C23.8975148,44.3141032 23.0961681,44.7931953 22.2950248,45.2722874 C6.02986353,55.2537439 6.02986353,71.4636001 22.2950248,81.3649714 C38.5601861,91.346428 64.9208103,91.346428 81.1859716,81.3649714 C81.7468532,81.0456443 82.3077349,80.6462319 82.7884615,80.3269048 C66.4431453,88.9507649 41.765166,88.4716728 26.301148,78.9695111 Z" id="Shape" fill="#CB4E44" fill-rule="nonzero"></path>
                        <path d="M15.232944,25.3018113 C35.5436391,13.3532969 68.4466682,13.3532969 88.7573633,25.3018113 C109.068058,37.2503257 109.068058,56.7071211 88.7573633,68.6556355 C68.4466682,80.6041499 35.5436391,80.6041499 15.232944,68.6556355 C-5.07775113,56.7071211 -5.07754486,37.3310908 15.232944,25.3018113 Z" id="Shape" fill="#324D5B" fill-rule="nonzero"></path>
                        <path d="M90.8300297,66.4157039 C70.7868113,78.3954213 38.3170905,78.3954213 18.2738721,66.4157039 C2.07901185,56.7022861 -1.04771557,42.213341 8.81348602,30.6382979 C-4.73566613,42.6180153 -2.65118119,59.0497673 14.986737,69.6535098 C35.0299555,81.6332272 67.4996762,81.6332272 87.5428947,69.6535098 C91.3912529,67.3060285 94.5179803,64.7158249 96.9230769,61.9638749 C95.1592037,63.5018018 93.1549225,64.9587528 90.8300297,66.4157039 Z" id="Shape" fill="#2D4552" fill-rule="nonzero"></path>
                        <path d="M52.5,0 C70.3500523,0 84.8076923,14.4722575 84.8076923,32.3403571 C84.8076923,50.2084568 70.3500523,58.212766 52.5,58.212766 C34.6499477,58.212766 20.1923077,50.2084568 20.1923077,32.3403571 C20.1923077,14.4722575 34.6499477,0 52.5,0 Z" id="Shape" fill="#FFFFFF" fill-rule="nonzero"></path>
                        <path d="M17.8971339,24.1872668 C41.216907,14.2297378 63.3586598,14.0051196 84.3223925,23.5134123 C92.4055052,34.4593993 87.7748483,46.7838713 70.4304218,60.4868282 L34.0640107,60.4868282 C20.0566955,43.0348432 13.053038,34.3088507 13.053038,34.3088507 C13.053038,34.3088507 14.6677366,30.9349894 17.8971339,24.1872668 Z" id="Path-2" fill="#324D5B" fill-rule="nonzero" opacity="0.100000001"></path>
                        <path d="M51.9951923,58.212766 C59.3779788,58.212766 66.18653,56.9287822 71.6826923,54.1203989 L71.6826923,32.5349253 C71.6826923,21.8624983 62.9052453,13.2765957 51.9951923,13.2765957 C41.0851393,13.2765957 32.3076923,21.862702 32.3076923,32.5349253 L32.3076923,54.1203989 C37.8038546,56.9287822 44.6124058,58.212766 51.9951923,58.212766 Z" id="Shape" fill="#05C0A5" fill-rule="nonzero"></path>
                        <path d="M51.4903846,26.5531915 C56.4879615,26.5531915 60.5769231,30.6893812 60.5769231,35.7446809 C60.5769231,40.7999806 56.4879615,44.9361702 51.4903846,44.9361702 C46.4928077,44.9361702 42.4038462,40.7999806 42.4038462,35.7446809 C42.4038462,30.6893812 46.4929999,26.5531915 51.4903846,26.5531915 Z" id="Shape" fill="#FFFFFF" fill-rule="nonzero"></path>
                        <path d="M53.5096154,28.5957447 C56.286047,28.5957447 58.5576923,30.8936278 58.5576923,33.7021277 C58.5576923,36.5106275 56.286047,38.8085106 53.5096154,38.8085106 C50.7331838,38.8085106 48.4615385,36.5106275 48.4615385,33.7021277 C48.4615385,30.8936278 50.7333974,28.5957447 53.5096154,28.5957447 Z" id="Shape" fill="#003945" fill-rule="nonzero"></path>
                    </g>
                </g>
                <g id="Group" transform="translate(94.000000, 0.000000)" fill-rule="nonzero">
                    <path d="M6.77889929,56 L1.86398834,9.25217391" id="Line" stroke="#E2574C" stroke-width="2" stroke-linecap="square"></path>
                    <polygon id="Triangle" fill="#1A96A4" transform="translate(28.891304, 15.729845) rotate(88.000000) translate(-28.891304, -15.729845) " points="28.873395 -12.6035439 43.3580048 41.8818429 14.4246027 44.0632333"></polygon>
                    <path d="M13.1723343,9.0215103 C9.10050724,9.0215103 5.79996785,12.326342 5.79996785,16.402746 C5.79996785,20.47915 9.10082847,23.7839817 13.1723343,23.7839817 C17.2438401,23.7839817 20.5447007,20.47915 20.5447007,16.402746 C20.5447007,12.326342 17.2443219,9.0215103 13.1723343,9.0215103 Z M13.1723343,21.0416677 C10.6800247,21.0416677 8.54316276,19.0188232 8.54316276,16.522872 C8.54316276,15.9368758 8.65447104,15.2605038 8.85733158,14.7467119 L10.8459431,15.5948303 C10.8395184,15.6226507 10.8313269,15.6591548 10.8221716,15.7001617 C10.7626699,15.8943864 10.7276514,16.0952963 10.7179305,16.2982187 C10.7136347,16.3384295 10.712132,16.3788904 10.7134332,16.4193096 C10.7134332,16.4286366 10.7147182,16.4378028 10.7152,16.4471299 C10.7241283,17.1886846 11.0686138,17.8861374 11.6517928,18.3433756 C12.2349718,18.8006138 12.9938572,18.9682528 13.7150625,18.799155 L14.845492,20.7210101 C14.3132466,20.9335621 13.7453565,21.0423972 13.1723343,21.0416677 Z M17.4447732,18.2387279 L12.3962281,16.0970438 L15.6341264,16.0828924 C15.517839,14.9070407 14.3107947,13.9511787 13.1724949,13.9511787 C12.9143552,13.9509552 12.657981,13.9937809 12.4138961,14.077898 L11.2935855,12.1735713 C11.883196,11.9031068 12.5242677,11.7635471 13.1728161,11.7644675 C15.6651257,11.7644675 17.7950811,13.8247811 17.7950811,16.320089 C17.7945992,16.9932449 17.7078655,17.6647926 17.4442914,18.2387279 L17.4447732,18.2387279 Z" id="Shape" fill="#FFFFFF"></path>
                </g>
            </g>
        </g>
    </g>
</svg>