<?xml version="1.0" encoding="UTF-8"?>
<svg width="18px" height="20px" viewBox="0 0 18 20" version="1.1" xmlns="http://www.w3.org/2000/svg" xmlns:xlink="http://www.w3.org/1999/xlink">
    <!-- Generator: Sketch 51.2 (57519) - http://www.bohemiancoding.com/sketch -->
    <title>Android</title>
    <desc>Created with Sketch.</desc>
    <defs></defs>
    <g id="InVision-V2" stroke="none" stroke-width="1" fill="none" fill-rule="evenodd">
        <g id="create-wallet(MEWconnect)1" transform="translate(-785.000000, -457.000000)" fill="#000000" fill-rule="nonzero">
            <g id="pop-out" transform="translate(476.000000, 207.000000)">
                <g id="Group-4" transform="translate(301.000000, 103.000000)">
                    <g id="Group-2" transform="translate(3.000000, 144.000000)">
                        <g id="Android" transform="translate(5.250000, 3.000000)">
                            <path d="M11.13625,4 C10.80625,4 10.5395833,3.74041667 10.5395833,3.41958333 C10.5395833,3.09875 10.80625,2.83958333 11.13625,2.83958333 C11.46625,2.83958333 11.7329167,3.09833333 11.7329167,3.41958333 C11.7329167,3.74041667 11.46625,4.00041667 11.13625,4.00041667 L11.13625,4 Z M6.36375,4 C6.03375,4 5.76708333,3.74041667 5.76708333,3.41958333 C5.76708333,3.09875 6.03375,2.83958333 6.36375,2.83958333 C6.69375,2.83958333 6.96041667,3.09833333 6.96041667,3.41958333 C6.96041667,3.74041667 6.69375,4.00041667 6.36375,4.00041667 L6.36375,4 Z M11.48875,1.67458333 L11.71125,1.3475 L11.93375,1.02541667 L12.4291667,0.300833333 C12.4584935,0.258259844 12.4691187,0.20553878 12.4585718,0.154929246 C12.4480249,0.104319712 12.4172247,0.0602316192 12.3733333,0.0329166667 C12.2824885,-0.0269360859 12.1604245,-0.00282009808 12.0991667,0.0870833333 L11.3429167,1.18875 L11.1158333,1.52041667 C10.3592118,1.23776076 9.55768988,1.09433943 8.75,1.09708333 C7.9423189,1.09444026 7.1408149,1.23785838 6.38416667,1.52041667 L6.15833333,1.18875 L5.935,0.862916667 L5.40333333,0.0870833333 C5.34050288,-0.00215729915 5.21851186,-0.0260410841 5.12666667,0.0329166667 C5.08324294,0.0606288977 5.05283449,0.104686596 5.04232506,0.155116149 C5.03181564,0.205545702 5.04209399,0.258082452 5.07083333,0.300833333 L5.56666667,1.02541667 L5.78875,1.3475 L6.01208333,1.67458333 C4.32458333,2.44 3.1825,3.89 3.1825,5.54916667 L14.3175,5.54916667 C14.3175,3.89 13.1758333,2.44 11.4891667,1.67416667 L11.48875,1.67458333 Z M3.26791667,6.32291667 L3.1825,6.32291667 L3.1825,14.83875 C3.1825,15.515 3.74666667,16.0654167 4.4425,16.0654167 L5.35125,16.0654167 C5.31909966,16.1697514 5.30280671,16.2783242 5.30291667,16.3875 L5.30291667,18.8391667 C5.30291667,19.4804167 5.83833333,20 6.49666667,20 C7.155,20 7.69041667,19.4804167 7.69041667,18.8391667 L7.69041667,16.3875 C7.69041667,16.275 7.67208333,16.1675 7.64208333,16.0654167 L9.85791667,16.0654167 C9.826766,16.1699441 9.81090718,16.2784296 9.81083333,16.3875 L9.81083333,18.8391667 C9.81083333,19.4804167 10.345,20 11.0033333,20 C11.6629167,20 12.1983333,19.4804167 12.1983333,18.8391667 L12.1983333,16.3875 C12.1983333,16.275 12.18,16.1675 12.14875,16.0654167 L13.05875,16.0654167 C13.7545833,16.0654167 14.3175,15.5154167 14.3175,14.83875 L14.3175,6.32291667 L3.26833333,6.32291667 L3.26791667,6.32291667 Z M1.19375,6.32291667 C0.534166667,6.32291667 -5.68434189e-14,6.8425 -5.68434189e-14,7.48333333 L-5.68434189e-14,12.4516667 C-5.68434189e-14,13.0925 0.534166667,13.6125 1.19375,13.6125 C1.85208333,13.6125 2.38625,13.0925 2.38625,12.4516667 L2.38625,7.48333333 C2.38625,6.8425 1.85208333,6.32291667 1.19375,6.32291667 Z M16.3075,6.32291667 C15.6479167,6.32291667 15.11375,6.8425 15.11375,7.48333333 L15.11375,12.4516667 C15.11375,13.0925 15.6479167,13.6125 16.3075,13.6125 C16.9658333,13.6125 17.5,13.0925 17.5,12.4516667 L17.5,7.48333333 C17.5,6.8425 16.9658333,6.32291667 16.3075,6.32291667 Z"></path>
                        </g>
                    </g>
                </g>
            </g>
        </g>
    </g>
</svg>