<?xml version="1.0" encoding="UTF-8"?>
<svg width="16px" height="20px" viewBox="0 0 16 20" version="1.1" xmlns="http://www.w3.org/2000/svg" xmlns:xlink="http://www.w3.org/1999/xlink">
    <!-- Generator: Sketch 51.2 (57519) - http://www.bohemiancoding.com/sketch -->
    <title>Apple</title>
    <desc>Created with Sketch.</desc>
    <defs></defs>
    <g id="InVision-V2" stroke="none" stroke-width="1" fill="none" fill-rule="evenodd">
        <g id="create-wallet(MEWconnect)1" transform="translate(-572.000000, -456.000000)" fill="#000000" fill-rule="nonzero">
            <g id="pop-out" transform="translate(476.000000, 207.000000)">
                <g id="Group-3" transform="translate(71.000000, 103.000000)">
                    <g id="Group" transform="translate(6.000000, 144.000000)">
                        <g id="Apple" transform="translate(19.054945, 2.000000)">
                            <g id="Layer_1">
                                <path d="M8.97340288,1.46888432 C9.66981393,0.6500842 10.8469468,0.0409400059 11.8183023,0 C11.9421997,1.13748574 11.4862574,2.2764798 10.812471,3.09721919 C10.1371764,3.91645025 9.03222721,4.5546834 7.947748,4.46957128 C7.80036397,3.35664954 8.34658984,2.19610811 8.97340288,1.46888432 M14.4994418,16.9851466 C13.6933546,18.1670199 12.8599023,19.3419981 11.5435734,19.3667775 C10.2481454,19.3913416 9.83314301,18.5971054 8.35499332,18.5971054 C6.87533531,18.5971054 6.41206683,19.3419981 5.18946896,19.391557 C3.91882046,19.4393922 2.95242085,18.1146598 2.14008494,16.9379578 C0.480290912,14.5315474 -0.787125483,10.1341598 0.916840659,7.1664403 C1.76063573,5.69260009 3.27283026,4.76024532 4.91107692,4.73546584 C6.15910068,4.71241016 7.33795738,5.57947639 8.09987244,5.57947639 C8.86351129,5.57947639 10.2944722,4.53852287 11.7984788,4.69129373 C12.428093,4.71736605 14.1951929,4.94576819 15.3303084,6.61159549 C15.2406714,6.67063528 13.2210362,7.84949198 13.2453848,10.3050304 C13.2699488,13.2382741 15.8077982,14.2128617 15.8373181,14.2262211 C15.8142624,14.2951727 15.4313656,15.6179658 14.4994418,16.9851466" id="Shape"></path>
                            </g>
                        </g>
                    </g>
                </g>
            </g>
        </g>
    </g>
</svg>