<?xml version="1.0" encoding="UTF-8"?>
<svg width="97px" height="171px" viewBox="0 0 97 171" version="1.1" xmlns="http://www.w3.org/2000/svg" xmlns:xlink="http://www.w3.org/1999/xlink">
    <!-- Generator: Sketch 55.2 (78181) - https://sketchapp.com -->
    <title>Path 2</title>
    <desc>Created with Sketch.</desc>
    <g id="Access-wallet_new-flows" stroke="none" stroke-width="1" fill="none" fill-rule="evenodd">
        <g id="Optionals-Mobile-App-Copy-2" transform="translate(-766.000000, -446.000000)" fill="#979797" fill-rule="nonzero">
            <g id="Group-14" transform="translate(593.000000, 447.000000)">
                <path id="Path-2" d="M228.308454,8.606271 C228.539857,8.92178079 228.770274,9.23680958 228.999706,9.55135736 L227.78783,10.4353014 C227.562957,10.1270032 227.337131,9.81823743 227.110352,9.50900425 L223.125113,12.5117593 L220.496192,-0.532445359 L232.309796,5.59138293 L228.308454,8.606271 Z M228.958701,12.0482444 L230.174604,11.1698476 C230.566703,11.7126036 230.955837,12.2539125 231.342006,12.7937744 L230.121997,13.6664589 C229.737196,13.1285085 229.34943,12.5891036 228.958701,12.0482444 Z M231.285129,15.3008323 L232.509354,14.4340725 C232.89779,14.9827048 233.283129,15.5298266 233.665372,16.0754379 L232.436857,16.9361074 C232.056042,16.3925343 231.672133,15.8474426 231.285129,15.3008323 Z M233.575211,18.5697623 L234.808082,17.7153457 C235.190958,18.2678121 235.570624,18.8187129 235.94708,19.3680482 L234.709743,20.2159865 C234.334774,19.6688196 233.956596,19.1200782 233.575211,18.5697623 Z M235.830333,21.8605914 L237.072205,21.0193102 C237.449139,21.5757286 237.822743,22.1305227 238.193015,22.6836926 L236.946494,23.5180698 C236.577769,22.9672112 236.205715,22.4147184 235.830333,21.8605914 Z M238.051118,25.1784979 L239.302376,24.3512415 C239.672729,24.9114138 240.039624,25.469901 240.403063,26.0267032 L239.146965,26.8465911 C238.785136,26.292256 238.419854,25.7362249 238.051118,25.1784979 Z M240.232782,28.5211047 L241.493823,27.7088397 C241.858057,28.2743131 242.218683,28.8380277 242.575699,29.3999835 L241.309603,30.2043475 C240.954268,29.6450374 240.595327,29.0839564 240.232782,28.5211047 Z M242.374872,31.8930527 L243.646126,31.0968661 C244.002998,31.6666754 244.356112,32.234654 244.705468,32.8008019 L243.428946,33.5885141 C243.081341,33.0252043 242.729983,32.4600505 242.374872,31.8930527 Z M244.467613,35.2846097 L245.749496,34.5056522 C246.098784,35.0804546 246.444149,35.6533457 246.785589,36.2243259 L245.498209,36.9941657 C245.158595,36.4262397 244.815063,35.8563876 244.467613,35.2846097 Z M246.518068,38.713882 L247.811072,37.9535254 C248.151989,38.5332628 248.488806,39.1110037 248.821522,39.6867484 L247.522787,40.4372729 C247.191974,39.8648222 246.857068,39.2903585 246.518068,38.713882 Z M248.511605,42.1638437 L249.816179,41.4235152 C250.147707,42.0077193 250.474954,42.5898399 250.79792,43.1698771 L249.487378,43.8995891 C249.166393,43.3231092 248.841135,42.7445274 248.511605,42.1638437 Z M250.453273,45.6515919 L251.769939,44.932987 C252.092253,45.5235485 252.410065,46.1119196 252.723373,46.6981003 L251.40048,47.4051746 C251.089237,46.8228583 250.773502,46.2383307 250.453273,45.6515919 Z M252.335217,49.1731924 L253.664489,48.4781843 C253.976248,49.0744531 254.283275,49.6684218 254.585572,50.2600908 L253.249818,50.9425572 C252.949669,50.3550923 252.644802,49.7653039 252.335217,49.1731924 Z M254.142928,52.7116511 L255.485261,52.0422157 C255.786174,52.6455987 256.08209,53.2465533 256.373008,53.8450797 L255.023928,54.5008098 C254.735243,53.9068784 254.441577,53.3104921 254.142928,52.7116511 Z M255.887542,56.3016739 L257.243508,55.6603029 C257.53149,56.2691459 257.814215,56.875436 258.091683,57.4791735 L256.728731,58.1055626 C256.453573,57.506849 256.173177,56.9055527 255.887542,56.3016739 Z M257.549623,59.9189173 L258.91968,59.3082269 C259.194464,59.9246929 259.463672,60.538453 259.727302,61.1495077 L258.350017,61.7437178 C258.088771,61.1381906 257.821973,60.5299237 257.549623,59.9189173 Z M259.127521,63.5770845 L260.512136,63.0001613 C260.77162,63.6229212 261.025205,64.2428217 261.272894,64.8598634 L259.880857,65.4186437 C259.635612,64.8076881 259.3845,64.1938349 259.127521,63.5770845 Z M260.611903,67.2762911 L262.01147,66.7366493 C262.254247,67.366294 262.490766,67.9929071 262.721025,68.6164892 L261.313891,69.1360782 C261.086115,68.5192239 260.85212,67.8992947 260.611903,67.2762911 Z M261.990069,71.0100775 L263.404838,70.5116513 C263.629487,71.1493122 263.847461,71.7837426 264.058758,72.414943 L262.63634,72.8911032 C262.427544,72.2673741 262.212121,71.6403654 261.990069,71.0100775 Z M263.252626,74.7833334 L264.682694,74.3306688 C264.886827,74.9755714 265.083844,75.6170339 265.273743,76.2550568 L263.836072,76.6829607 C263.648646,76.0532468 263.454164,75.4200375 263.252626,74.7833334 Z M264.387777,78.5997069 L265.833001,78.1980497 C266.014345,78.8505528 266.188078,79.4993812 266.354199,80.1445355 L264.901582,80.5185707 C264.737847,79.8826857 264.566579,79.2430642 264.387777,78.5997069 Z M265.378572,82.450496 L266.838409,82.1057117 C266.99409,82.7648744 267.141637,83.4201144 267.281048,84.0714324 L265.814272,84.3853881 C265.677075,83.7444143 265.531842,83.0994501 265.378572,82.450496 Z M266.210641,86.3428303 L267.684063,86.0617115 C267.811155,86.7278354 267.929522,87.389757 268.039163,88.0474767 L266.55958,88.2941211 C266.451867,87.6479661 266.335554,86.9975357 266.210641,86.3428303 Z M266.856825,90.2190715 L268.341933,90.0082274 C268.437325,90.6801345 268.523372,91.347545 268.60007,92.010459 L267.110011,92.1828581 C267.034803,91.5328351 266.950409,90.8782395 266.856825,90.2190715 Z M267.311567,94.1587301 L268.805777,94.0270602 C268.86541,94.7037824 268.915024,95.3756881 268.954616,96.0427768 L267.457251,96.1316464 C267.41851,95.4788989 267.369949,94.8212604 267.311567,94.1587301 Z M267.545117,98.1125574 L269.044481,98.068879 C269.064282,98.7486027 269.073362,99.4231745 269.071718,100.092593 L267.571722,100.088909 C267.573328,99.4353438 267.56446,98.7765604 267.545117,98.1125574 Z M267.534264,102.068665 L269.033312,102.122114 C269.009068,102.802052 268.973402,103.476499 268.926311,104.145454 L267.430014,104.04012 C267.475885,103.388508 267.510636,102.731357 267.534264,102.068665 Z M267.255138,106.01498 L268.74662,106.174605 C268.674207,106.851213 268.5897,107.522 268.493097,108.186963 L267.008679,107.971314 C267.102567,107.32504 267.184721,106.67293 267.255138,106.01498 Z M266.691152,109.924645 L268.167991,110.187226 C268.049084,110.855998 267.921439,111.517029 267.785076,112.170409 L266.316714,111.863954 C266.450024,111.225208 266.574844,110.578802 266.691152,109.924645 Z M265.881729,113.79712 L267.339746,114.149524 C267.180107,114.810004 267.011134,115.462391 266.832844,116.106785 L265.387158,115.706795 C265.561065,115.078244 265.725929,114.44172 265.881729,113.79712 Z M264.824628,117.612316 L266.255651,118.061952 C266.051658,118.711188 265.837724,119.352009 265.613865,119.984526 L264.199813,119.484068 C264.417698,118.868432 264.625975,118.244555 264.824628,117.612316 Z M263.502245,121.344526 L264.896626,121.897429 C264.645777,122.530051 264.38446,123.15404 264.112685,123.769521 L262.740505,123.163616 C263.004528,122.565689 263.258445,121.959371 263.502245,121.344526 Z M261.913759,124.941294 L263.261164,125.60046 C262.962874,126.210195 262.653738,126.811242 262.333761,127.403737 L261.01393,126.690962 C261.32435,126.116163 261.624294,125.53299 261.913759,124.941294 Z M260.034993,128.417735 L261.324325,129.184299 C260.977973,129.76685 260.620504,130.340784 260.251915,130.90625 L258.995302,130.087151 C259.352628,129.538963 259.699189,128.982544 260.034993,128.417735 Z M257.869504,131.737361 L259.090566,132.608571 C258.697704,133.159196 258.29362,133.701448 257.878302,134.235487 L256.694224,133.314641 C257.096893,132.796866 257.488645,132.271162 257.869504,131.737361 Z M255.474197,134.819783 L256.620271,135.78752 C256.184037,136.304144 255.736605,136.812771 255.277949,137.313568 L254.171769,136.300471 C254.616861,135.814484 255.050991,135.320978 255.474197,134.819783 Z M252.805251,137.734349 L253.870547,138.790353 C253.396736,139.268333 252.911992,139.738902 252.41627,140.202233 L251.392017,139.106374 C251.873859,138.656017 252.344918,138.198733 252.805251,137.734349 Z M249.917267,140.43408 L250.900188,141.567158 C250.392516,142.007553 249.874216,142.441174 249.345221,142.868199 L248.403036,141.701029 C248.918318,141.285073 249.423036,140.862814 249.917267,140.43408 Z M246.835697,142.922428 L247.737609,144.120992 C247.202461,144.523688 246.657104,144.920335 246.101445,145.311111 L245.238563,144.08415 C245.781133,143.702578 246.313479,143.315394 246.835697,142.922428 Z M243.584468,145.209315 L244.409065,146.462327 C243.850978,146.829599 243.283107,147.191555 242.705334,147.548372 L241.917163,146.272133 C242.48276,145.922836 243.038488,145.56862 243.584468,145.209315 Z M240.201295,147.299255 L240.954187,148.596619 C240.37681,148.931685 239.790034,149.262142 239.193713,149.588163 L238.474149,148.272022 C239.059357,147.952076 239.635023,147.627876 240.201295,147.299255 Z M236.728009,149.199531 L237.416008,150.532444 C236.824155,150.837936 236.223281,151.139507 235.613208,151.437331 L234.955167,150.089376 C235.55527,149.79642 236.146158,149.49986 236.728009,149.199531 Z M233.184573,150.930991 L233.814685,152.292226 C233.211185,152.571584 232.598975,152.847663 231.977841,153.120635 L231.374338,151.747397 C231.986631,151.47831 232.589972,151.20623 233.184573,150.930991 Z M229.537436,152.534548 L230.115833,153.918548 C229.503193,154.174581 228.882087,154.427941 228.252258,154.678805 L227.697209,153.285277 C228.319291,153.037499 228.932615,152.787313 229.537436,152.534548 Z M225.866173,153.99808 L226.399674,155.399999 C225.779612,155.635963 225.151233,155.869818 224.514224,156.101744 L224.00105,154.692257 C224.631322,154.462784 225.252927,154.23145 225.866173,153.99808 Z M222.119023,155.363026 L222.613246,156.779269 C221.987918,156.997489 221.354336,157.214139 220.712121,157.42941 L220.235389,156.007184 C220.871814,155.793854 221.499566,155.579197 222.119023,155.363026 Z M218.342363,156.629628 L218.802913,158.057176 C218.173623,158.260195 217.536025,158.462161 216.889643,158.663282 L216.443995,157.231012 C217.085449,157.031425 217.718081,156.831031 218.342363,156.629628 Z M214.534374,157.815029 L214.966293,159.251499 C214.333708,159.441705 213.692599,159.631365 213.042357,159.820712 L212.622984,158.380529 C213.269082,158.192389 213.906011,158.003966 214.534374,157.815029 Z M210.698534,158.932475 L211.106417,160.375954 C210.471422,160.555384 209.827484,160.734784 209.1738,160.914427 L208.776312,159.468051 C209.426568,159.28935 210.067042,159.110915 210.698534,158.932475 Z M206.844652,159.992033 L207.232727,161.440963 C206.596648,161.611327 205.95094,161.782209 205.294489,161.95395 L204.914836,160.502791 C205.568514,160.331775 206.211417,160.161636 206.844652,159.992033 Z M202.989671,161.001059 L203.361854,162.454152 C202.725873,162.617047 202.079155,162.781076 201.420054,162.9467 L201.054487,161.491929 C201.711415,161.32685 202.35593,161.16338 202.989671,161.001059 Z M199.103248,161.978018 L199.463013,163.434236 C198.82843,163.591012 198.181261,163.749688 197.518804,163.910969 L197.163981,162.45354 C197.824821,162.292652 198.470345,162.13438 199.103248,161.978018 Z M195.216022,162.924747 L195.566678,164.383184 C194.935281,164.534993 194.287997,164.689782 193.619526,164.84886 L193.272264,163.38961 C193.939632,163.230795 194.585788,163.076275 195.216022,162.924747 Z M191.319182,163.852419 L191.663776,165.312301 C191.04209,165.459045 190.397976,165.61059 189.716443,165.770503 L189.373794,164.310163 C190.054705,164.150397 190.698175,163.999003 191.319182,163.852419 Z M187.419078,164.767843 L187.760469,166.228477 C187.183612,166.363304 186.590316,166.501814 185.812374,166.683314 L185.471565,165.222544 C186.249329,165.041085 186.842449,164.902617 187.419078,164.767843 Z M183.513515,165.679347 L183.854396,167.1401 C183.112983,167.313116 182.497907,167.456773 181.90715,167.594935 L181.565558,166.134348 C182.156583,165.996123 182.771883,165.852414 183.513515,165.679347 Z M179.641169,166.585253 L179.984073,168.045533 C179.30818,168.204247 178.663749,168.355987 178.038406,168.503704 L177.693569,167.043879 C178.319584,166.896004 178.964655,166.744113 179.641169,166.585253 Z M175.741238,167.506776 L176.08861,168.965999 C175.424923,169.123991 174.778557,169.278555 174.145043,169.430795 L173.794556,167.972317 C174.429134,167.819821 175.076536,167.66501 175.741238,167.506776 Z"></path>
            </g>
        </g>
    </g>
</svg>