<?xml version="1.0" encoding="UTF-8"?>
<svg width="41px" height="41px" viewBox="0 0 41 41" version="1.1" xmlns="http://www.w3.org/2000/svg" xmlns:xlink="http://www.w3.org/1999/xlink">
    <!-- Generator: Sketch 55.2 (78181) - https://sketchapp.com -->
    <title>Group 8</title>
    <desc>Created with Sketch.</desc>
    <g id="Finalization" stroke="none" stroke-width="1" fill="none" fill-rule="evenodd">
        <g id="my-wallet-12-copy-10" transform="translate(-61.000000, -50.000000)" fill="#0B2840" fill-rule="nonzero">
            <g id="Group-2" transform="translate(61.000000, 50.000000)">
                <g id="back-button" transform="translate(5.000000, 4.000000)">
                    <path d="M15.9383273,31.8765091 C24.7265455,31.8765091 31.8762182,24.7265455 31.8762182,15.9381818 C31.8762182,7.14996364 24.7265455,0 15.9383273,0 C7.15010909,0 0.000290909091,7.14996364 0.000290909091,15.9381818 C0.000290909091,24.7265455 7.15010909,31.8765091 15.9383273,31.8765091 Z M15.9383273,2.18181818 C23.5234909,2.18181818 29.6945455,8.35287273 29.6945455,15.9381818 C29.6945455,23.5234909 23.5236364,29.6946909 15.9383273,29.6946909 C8.35316364,29.6946909 2.18225455,23.5234909 2.18225455,15.9380364 C2.18225455,8.35301818 8.35316364,2.18181818 15.9383273,2.18181818 Z" id="Shape"></path>
                    <path d="M13.7979636,22.7646545 C14.224,23.1905455 14.9147636,23.1904 15.3406545,22.7646545 C15.7668364,22.3384727 15.7668364,21.6478545 15.3405091,21.2216727 L11.1485091,17.0298182 L23.2877091,17.0286545 C23.8901818,17.0285091 24.3784727,16.5402182 24.3784727,15.9374545 C24.3784727,15.3349818 23.8900364,14.8468364 23.2875636,14.8468364 L11.1479273,14.848 L15.3409455,10.6552727 C15.7669818,10.2292364 15.7669818,9.53832727 15.3409455,9.11243636 C15.1278545,8.89949091 14.8487273,8.79287273 14.5694545,8.79287273 C14.2903273,8.79287273 14.0112,8.89949091 13.7981091,9.11229091 L7.74298182,15.1672727 C7.53832727,15.3717818 7.42341818,15.6491636 7.42341818,15.9386182 C7.42341818,16.2280727 7.53847273,16.5053091 7.74312727,16.7102545 L13.7979636,22.7646545 Z" id="Path"></path>
                </g>
            </g>
        </g>
    </g>
</svg>