<svg xmlns="http://www.w3.org/2000/svg" width="28" height="28" viewBox="0 0 28 28">
    <g fill="none" fill-rule="evenodd">
        <path stroke="#05C0A5" d="M14 27C6.82 27 1 21.18 1 14S6.82 1 14 1s13 5.82 13 13-5.82 13-13 13z"/>
        <path fill="#05C0A5" d="M16.844 16.636a1.365 1.365 0 0 1-.665.816 1.371 1.371 0 0 1-1.049.109L11.6 16.51l.787-2.633 3.53 1.049c.729.216 1.145.983.928 1.709m1.191-5.399c.175.323.214.695.109 1.047a1.38 1.38 0 0 1-1.714.925l-3.531-1.05.786-2.634 3.532 1.05c.352.104.643.34.818.662m1.581-.853a3.153 3.153 0 0 0-1.886-1.528l-.468-.138.654-2.19-1.678-.5-.654 2.191-1.433-.425.655-2.19-.403-.12L12.775 5l-.63 2.111-1.986-.59-.56 1.877 1.985.59-2.039 6.828-1.985-.59L7 17.102l1.985.59-.532 1.782.402.119 1.628.484.556-1.861 1.436.426-.556 1.861 1.672.497.556-1.861.47.14a3.165 3.165 0 0 0 2.417-.25 3.148 3.148 0 0 0 1.533-1.882 3.149 3.149 0 0 0-.276-2.45 3.16 3.16 0 0 0 1.325-4.313"/>
    </g>
</svg>
