<?xml version="1.0" encoding="UTF-8"?>
<svg width="75px" height="75px" viewBox="0 0 75 75" version="1.1" xmlns="http://www.w3.org/2000/svg" xmlns:xlink="http://www.w3.org/1999/xlink">
    <!-- Generator: Sketch 54.1 (76490) - https://sketchapp.com -->
    <title>Optionals</title>
    <desc>Created with Sketch.</desc>
    <g id="Extension" stroke="none" stroke-width="1" fill="none" fill-rule="evenodd">
        <g id="my-wallet-12-copy-3" transform="translate(-433.000000, -321.000000)">
            <g id="Group-8" transform="translate(396.000000, 302.000000)">
                <g id="metamask-copy-13">
                    <g id="wallet" transform="translate(37.000000, 19.000000)">
                        <g id="Group" transform="translate(16.526316, 13.684211)" fill="#05C0A5" fill-rule="nonzero">
                            <polygon id="Shape" points="39.6394258 0.0318754864 0 8.95701167 0 10.0427704 39.6394258 10.0427704"></polygon>
                            <path d="M28.4969952,26.9547082 C28.4969952,29.6930117 30.7173206,31.9123424 33.4551579,31.9123424 L43.7894737,31.9123424 L43.7894737,21.9970739 L33.4551579,21.9970739 C30.7163254,21.9970739 28.4969952,24.2174008 28.4969952,26.9547082 Z" id="Shape"></path>
                        </g>
                        <g id="Group" transform="translate(14.000000, 12.000000)">
                            <rect id="Rectangle" fill="#FFFFFF" x="2.08695652" y="12.5217391" width="43.826087" height="32.6956522"></rect>
                            <path d="M2,48 L46,48 C47.104,48 48,47.104 48,46 L48,12.05 C48,10.945 47.104,10.05 46,10.05 L43.83,10.05 L43.83,2 C43.83,1.393 43.554,0.818 43.079,0.439 C42.604,0.059 41.982,-0.085 41.391,0.049 L1.561,9.009 C0.648,9.214 0,10.024 0,10.96 L0,12.05 L0,46 C0,47.104 0.895,48 2,48 Z M44,32.004 L35.616,32.004 C33.971,32.004 32.634,30.669 32.634,29.027 C32.634,27.386 33.972,26.05 35.616,26.05 L44,26.05 L44,32.004 Z M44,22.051 L35.616,22.051 C31.766,22.051 28.634,25.181 28.634,29.028 C28.634,32.875 31.766,36.005 35.616,36.005 L44,36.005 L44,44 L4,44 L4,14.05 L41.83,14.05 L44,14.05 L44,22.051 Z M39.83,4.5 L39.83,10.05 L15.159,10.05 L39.83,4.5 Z" id="Shape" fill="#003945" fill-rule="nonzero"></path>
                            <path d="M15.237,18.693 L8.631,18.693 C7.527,18.693 6.631,19.589 6.631,20.693 L6.631,37.191 C6.631,38.295 7.526,39.191 8.631,39.191 L15.237,39.191 C16.341,39.191 17.237,38.295 17.237,37.191 L17.237,20.693 C17.237,19.588 16.342,18.693 15.237,18.693 Z M13.237,35.191 L10.631,35.191 L10.631,22.693 L13.237,22.693 L13.237,35.191 Z" id="Shape" fill="#003945" fill-rule="nonzero"></path>
                        </g>
                    </g>
                </g>
            </g>
        </g>
    </g>
</svg>