<?xml version="1.0" encoding="UTF-8"?>
<svg width="93px" height="104px" viewBox="0 0 93 104" version="1.1" xmlns="http://www.w3.org/2000/svg" xmlns:xlink="http://www.w3.org/1999/xlink">
    <!-- Generator: Sketch 49.2 (51160) - http://www.bohemiancoding.com/sketch -->
    <title>Group 5</title>
    <desc>Created with Sketch.</desc>
    <defs>
        <filter x="-15.1%" y="-9.7%" width="130.1%" height="123.4%" filterUnits="objectBoundingBox" id="filter-1">
            <feOffset dx="0" dy="5" in="SourceAlpha" result="shadowOffsetOuter1"></feOffset>
            <feGaussianBlur stdDeviation="9" in="shadowOffsetOuter1" result="shadowBlurOuter1"></feGaussianBlur>
            <feColorMatrix values="0 0 0 0 0.118312129   0 0 0 0 0.461199204   0 0 0 0 0.461840986  0 0 0 0.136379076 0" type="matrix" in="shadowBlurOuter1" result="shadowMatrixOuter1"></feColorMatrix>
            <feMerge>
                <feMergeNode in="shadowMatrixOuter1"></feMergeNode>
                <feMergeNode in="SourceGraphic"></feMergeNode>
            </feMerge>
        </filter>
    </defs>
    <g id="InVision-V2" stroke="none" stroke-width="1" fill="none" fill-rule="evenodd">
        <g id="Software" transform="translate(-996.000000, -276.000000)">
            <g id="Group-9" transform="translate(300.000000, 251.000000)">
                <g id="metamask-copy-8" filter="url(#filter-1)" transform="translate(644.455569, 0.000000)">
                    <g id="Group-5" transform="translate(69.000000, 38.000000)">
                        <polygon id="Path-8" fill="#FFFFFF" points="3.70764744 3.42553278 36.1048754 3.42553278 36.1048754 21.027371 40.0390792 23.0085627 53.90282 22.1321226 53.90282 62.7692675 53.90282 64.8769793 3.70764744 64.8769793"></polygon>
                        <g id="File,-Code,-Coding,-Programming,-Data" transform="translate(0.386733, 0.300000)" fill="#003945" fill-rule="nonzero">
                            <path d="M54.2576658,14.25 C54.9475907,14.95 55.5389549,15.9 56.0317584,17.1 C56.524562,18.3 56.7709637,19.4 56.7709637,20.4 L56.7709637,63.6 C56.7709637,64.6 56.4260013,65.45 55.7360763,66.15 C55.0461514,66.85 54.2083855,67.2 53.2227785,67.2 L3.54818523,67.2 C2.56257822,67.2 1.72481227,66.85 1.03488736,66.15 C0.344962453,65.45 0,64.6 0,63.6 L0,3.6 C0,2.6 0.344962453,1.75 1.03488736,1.05 C1.72481227,0.35 2.56257822,0 3.54818523,0 L36.6645807,0 C37.6501877,0 38.7343554,0.25 39.9170839,0.75 C41.0998123,1.25 42.0361389,1.85 42.7260638,2.55 L54.2576658,14.25 Z M37.8473091,5.1 L37.8473091,19.2 L51.744368,19.2 C51.4979662,18.475 51.2269243,17.9625 50.9312422,17.6625 L39.3626799,5.925 C39.0669978,5.625 38.5618742,5.35 37.8473091,5.1 Z M52.0400501,62.4 L52.0400501,24 L36.6645807,24 C35.6789737,24 34.8412078,23.65 34.1512829,22.95 C33.4613579,22.25 33.1163955,21.4 33.1163955,20.4 L33.1163955,4.8 L4.73091364,4.8 L4.73091364,62.4 L52.0400501,62.4 Z M17.7409262,28.8 C17.9380476,28.525 18.1967694,28.36875 18.5170917,28.33125 C18.837414,28.29375 19.1330961,28.375 19.404138,28.575 L21.2891114,30 C21.5601533,30.2 21.7141544,30.4625 21.7511147,30.7875 C21.7880749,31.1125 21.7079944,31.4125 21.510873,31.6875 L14.7841051,40.8 L21.510873,49.9125 C21.7079944,50.1875 21.7880749,50.4875 21.7511147,50.8125 C21.7141544,51.1375 21.5601533,51.4 21.2891114,51.6 L19.404138,53.025 C19.1330961,53.225 18.837414,53.30625 18.5170917,53.26875 C18.1967694,53.23125 17.9380476,53.075 17.7409262,52.8 L9.38790676,41.5125 C9.04294431,41.0375 9.04294431,40.5625 9.38790676,40.0875 L17.7409262,28.8 Z M47.3830569,40.0875 C47.7280194,40.5625 47.7280194,41.0375 47.3830569,41.5125 L39.0300375,52.8 C38.8329161,53.075 38.5741943,53.23125 38.253872,53.26875 C37.9335497,53.30625 37.6378676,53.225 37.3668257,53.025 L35.4818523,51.6 C35.2108104,51.4 35.0568093,51.1375 35.019849,50.8125 C34.9828888,50.4875 35.0629693,50.1875 35.2600907,49.9125 L41.9868586,40.8 L35.2600907,31.6875 C35.0629693,31.4125 34.9828888,31.1125 35.019849,30.7875 C35.0568093,30.4625 35.2108104,30.2 35.4818523,30 L37.3668257,28.575 C37.6378676,28.375 37.9335497,28.29375 38.253872,28.33125 C38.5741943,28.36875 38.8329161,28.525 39.0300375,28.8 L47.3830569,40.0875 Z M24.467694,57.375 C24.1473717,57.325 23.8948099,57.1625 23.7100086,56.8875 C23.5252073,56.6125 23.4574468,56.3125 23.5067272,55.9875 L28.6072434,24.825 C28.6565238,24.5 28.8166849,24.24375 29.0877268,24.05625 C29.3587688,23.86875 29.6544509,23.8 29.9747732,23.85 L32.3032697,24.225 C32.623592,24.275 32.8761538,24.4375 33.0609551,24.7125 C33.2457564,24.9875 33.3135169,25.2875 33.2642365,25.6125 L28.1637203,56.775 C28.1144399,57.1 27.9542788,57.35625 27.6832369,57.54375 C27.4121949,57.73125 27.1165128,57.8 26.7961906,57.75 L24.467694,57.375 Z" id="Shape"></path>
                        </g>
                        <path d="M38.1836823,5.3735386 L38.1836823,19.5086415 L52.1323392,19.5086415 C52.1323392,19.0732081 51.9423041,18.5767213 51.5622341,18.019181 C45.8583755,11.8554553 40.1710078,6.51027631 39.6521656,6.02226793 C39.3062708,5.696929 38.8167764,5.48068589 38.1836823,5.3735386 Z" id="Path-5" fill="#05C0A5"></path>
                    </g>
                </g>
            </g>
        </g>
    </g>
</svg>