<?xml version="1.0" encoding="UTF-8"?>
<svg width="28px" height="41px" viewBox="0 0 28 41" version="1.1" xmlns="http://www.w3.org/2000/svg" xmlns:xlink="http://www.w3.org/1999/xlink">
    <!-- Generator: Sketch 49.2 (51160) - http://www.bohemiancoding.com/sketch -->
    <title>trezor1</title>
    <desc>Created with Sketch.</desc>
    <defs></defs>
    <g id="Desktop" stroke="none" stroke-width="1" fill="none" fill-rule="evenodd">
        <g id="Hardware(pop-out)1" transform="translate(-776.000000, -310.000000)">
            <g id="pop-out" transform="translate(477.000000, 207.000000)">
                <g id="Group-4" transform="translate(299.000000, 103.000000)">
                    <g id="trezor1">
                        <polygon id="Rectangle-2" fill="#05C0A5" points="3 15 25 15 25.8130099 34.2369212 14.6140062 39.1207312 2.67912018 34.2369212"></polygon>
                        <g fill="#003945" fill-rule="nonzero" id="path7">
                            <path d="M14.0225261,0 C8.44167337,0 3.92518101,4.55177187 3.92518101,10.1762182 L3.92518101,13.9901717 C1.96540628,14.3477298 0,14.824474 0,15.4431063 L0,35.3471761 C0,35.3471761 0,35.8977021 0.61383749,36.1587763 C2.83829445,37.0668605 11.5897023,40.1883998 13.6001609,40.9035161 C13.8592116,41 13.9324216,41 14,41 C14.0957361,41 14.1407884,41 14.3998391,40.9035161 C16.4102977,40.1883998 25.1842317,37.0668605 27.4086887,36.1587763 C27.9774739,35.9204042 28,35.3698782 28,35.3698782 L28,15.4431063 C28,14.824474 26.0627514,14.3250277 24.0973451,13.9901717 L24.0973451,10.1762182 C24.1255028,4.55177187 19.5808528,0 14.0225261,0 Z M14.0246216,4.00388563 C17.6193755,4.00388563 19.7922318,6.21230871 19.7922318,9.86590383 L19.7922318,13.519499 C15.7604445,13.2317158 12.3195757,13.2317158 8.26316676,13.519499 L8.26316676,9.86590383 C8.26316676,6.20605255 10.4360231,4.00388563 14.0246216,4.00388563 Z M13.9965459,16.8056285 C19.7231442,16.8056285 24.5292709,17.2387072 24.5292709,18.0154991 L24.5292709,33.0563904 C24.5292709,33.2901154 24.5011649,33.3176125 24.2903699,33.4001036 C24.0866013,33.4894691 14.5235334,36.8647331 14.5235334,36.8647331 C14.5235334,36.8647331 14.1370759,36.9815956 14.0246519,36.9815956 C13.9052013,36.9815956 13.5257703,36.837236 13.5257703,36.837236 C13.5257703,36.837236 3.96270239,33.461972 3.75893386,33.3726066 C3.55516533,33.2832411 3.52003283,33.2557441 3.52003283,33.0288934 L3.52003283,17.9880021 C3.46382082,17.2112101 8.26994752,16.8056285 13.9965459,16.8056285 Z"></path>
                        </g>
                    </g>
                </g>
            </g>
        </g>
    </g>
</svg>