<?xml version="1.0" encoding="UTF-8"?>
<svg width="100px" height="100px" viewBox="0 0 100 100" version="1.1" xmlns="http://www.w3.org/2000/svg" xmlns:xlink="http://www.w3.org/1999/xlink">
    <!-- Generator: Sketch 49.2 (51160) - http://www.bohemiancoding.com/sketch -->
    <title>mnemonic1</title>
    <desc>Created with Sketch.</desc>
    <defs></defs>
    <g id="mnemonic1" stroke="none" stroke-width="1" fill="none" fill-rule="evenodd">
        <g id="json" transform="translate(22.000000, 16.000000)" fill="#999999" fill-rule="nonzero">
            <g id="File,-Code,-Coding,-Programming,-Data" transform="translate(0.381129, 0.295652)">
                <path d="M53.4713228,14.0434783 C54.1512488,14.7333333 54.7340426,15.6695652 55.219704,16.8521739 C55.7053654,18.0347826 55.9481961,19.1188406 55.9481961,20.1043478 L55.9481961,62.6782609 C55.9481961,63.6637681 55.6082331,64.5014493 54.9283071,65.1913043 C54.2483811,65.8811594 53.4227567,66.226087 52.4514339,66.226087 L3.49676226,66.226087 C2.52543941,66.226087 1.69981499,65.8811594 1.01988899,65.1913043 C0.339962997,64.5014493 0,63.6637681 0,62.6782609 L0,3.54782609 C0,2.56231884 0.339962997,1.72463768 1.01988899,1.03478261 C1.69981499,0.344927536 2.52543941,0 3.49676226,0 L36.13321,0 C37.1045328,0 38.172988,0.246376812 39.3385754,0.739130435 C40.5041628,1.23188406 41.4269195,1.82318841 42.1068455,2.51304348 L53.4713228,14.0434783 Z M37.2987974,5.02608696 L37.2987974,18.9217391 L50.9944496,18.9217391 C50.7516189,18.2072464 50.4845051,17.7021739 50.1931082,17.4065217 L38.7922063,5.83913043 C38.5008094,5.54347826 38.0030065,5.27246377 37.2987974,5.02608696 Z M51.2858464,61.4956522 L51.2858464,23.6521739 L36.13321,23.6521739 C35.1618871,23.6521739 34.3362627,23.3072464 33.6563367,22.6173913 C32.9764107,21.9275362 32.6364477,21.0898551 32.6364477,20.1043478 L32.6364477,4.73043478 L4.66234968,4.73043478 L4.66234968,61.4956522 L51.2858464,61.4956522 Z M17.4838113,28.3826087 C17.6780759,28.1115942 17.9330481,27.9576087 18.248728,27.9206522 C18.564408,27.8836957 18.8558048,27.9637681 19.1229186,28.1608696 L20.9805735,29.5652174 C21.2476873,29.7623188 21.3994565,30.0210145 21.4358811,30.3413043 C21.4723057,30.6615942 21.3933858,30.9572464 21.1991212,31.2282609 L14.5698427,40.2086957 L21.1991212,49.1891304 C21.3933858,49.4601449 21.4723057,49.7557971 21.4358811,50.076087 C21.3994565,50.3963768 21.2476873,50.6550725 20.9805735,50.8521739 L19.1229186,52.2565217 C18.8558048,52.4536232 18.564408,52.5336957 18.248728,52.4967391 C17.9330481,52.4597826 17.6780759,52.3057971 17.4838113,52.0347826 L9.25185014,40.9108696 C8.91188714,40.4427536 8.91188714,39.9746377 9.25185014,39.5065217 L17.4838113,28.3826087 Z M46.696346,39.5065217 C47.036309,39.9746377 47.036309,40.4427536 46.696346,40.9108696 L38.4643848,52.0347826 C38.2701203,52.3057971 38.015148,52.4597826 37.6994681,52.4967391 C37.3837882,52.5336957 37.0923913,52.4536232 36.8252775,52.2565217 L34.9676226,50.8521739 C34.7005088,50.6550725 34.5487396,50.3963768 34.512315,50.076087 C34.4758904,49.7557971 34.5548104,49.4601449 34.7490749,49.1891304 L41.3783534,40.2086957 L34.7490749,31.2282609 C34.5548104,30.9572464 34.4758904,30.6615942 34.512315,30.3413043 C34.5487396,30.0210145 34.7005088,29.7623188 34.9676226,29.5652174 L36.8252775,28.1608696 C37.0923913,27.9637681 37.3837882,27.8836957 37.6994681,27.9206522 C38.015148,27.9576087 38.2701203,28.1115942 38.4643848,28.3826087 L46.696346,39.5065217 Z M24.1130897,56.5434783 C23.7974098,56.4942029 23.5485083,56.334058 23.3663853,56.0630435 C23.1842623,55.792029 23.1174838,55.4963768 23.16605,55.176087 L28.1926457,24.4652174 C28.2412118,24.1449275 28.3990518,23.8923913 28.6661656,23.7076087 C28.9332794,23.5228261 29.2246762,23.4550725 29.5403562,23.5043478 L31.8351064,23.873913 C32.1507863,23.9231884 32.3996878,24.0833333 32.5818108,24.3543478 C32.7639339,24.6253623 32.8307123,24.9210145 32.7821462,25.2413043 L27.7555504,55.9521739 C27.7069843,56.2724638 27.5491443,56.525 27.2820305,56.7097826 C27.0149167,56.8945652 26.7235199,56.9623188 26.40784,56.9130435 L24.1130897,56.5434783 Z" id="Shape"></path>
            </g>
        </g>
    </g>
</svg>