<?xml version="1.0" encoding="UTF-8"?>
<svg width="81px" height="81px" viewBox="0 0 81 81" version="1.1" xmlns="http://www.w3.org/2000/svg" xmlns:xlink="http://www.w3.org/1999/xlink">
    <!-- Generator: Sketch 53 (72520) - https://sketchapp.com -->
    <title>mewconnect disable</title>
    <desc>Created with Sketch.</desc>
    <g id="mewconnect-disable" stroke="none" stroke-width="1" fill="none" fill-rule="evenodd">
        <g id="mew-connect">
            <g id="Group-8" transform="translate(13.000000, 0.000000)" fill="#CECECE">
                <circle id="Oval" cx="3.5" cy="3.5" r="3.5"></circle>
                <circle id="Oval" cx="12.5" cy="8.5" r="3.5"></circle>
                <circle id="Oval" cx="21.5" cy="13.5" r="3.5"></circle>
            </g>
            <g id="Group-7" transform="translate(0.000000, 1.000000)">
                <g id="box" transform="translate(27.837614, 0.729080)">
                    <polygon id="Path-2" fill="#FFFFFF" points="3.93928499 15.6464341 18.9085679 24.4090714 18.9085679 42.2453719 3.93928499 33.8198887"></polygon>
                    <polygon id="Path-2" fill="#FFFFFF" transform="translate(30.332494, 29.337064) scale(-1, 1) translate(-30.332494, -29.337064) " points="22.8478529 15.6464341 37.8171359 24.6319721 37.8171359 43.0276936 22.8478529 34.2217614"></polygon>
                    <g id="package-(1)-copy-3" fill-rule="nonzero">
                        <polygon id="Shape" fill="#00FFB0" points="20.5618739 23.5426678 30.1884938 17.9607242 39.2257287 12.7207376 20.5618739 1.90886495 11.524639 7.1488516 1.89801913 12.7207376"></polygon>
                        <path d="M41.7514499,12.6369171 C41.7484673,12.4728723 41.7285833,12.3108159 41.6868268,12.1567132 C41.6689312,12.0901011 41.63314,12.0314426 41.608285,11.9678131 C41.5705054,11.8703805 41.5396852,11.7709594 41.4879867,11.6804862 C41.4521955,11.6178509 41.4004971,11.5671462 41.3577465,11.5094819 C41.2980944,11.4289509 41.2454018,11.3434487 41.1738194,11.2718656 C41.1231152,11.2211608 41.0584921,11.184375 41.0028169,11.1386413 C40.9262635,11.0770002 40.8556752,11.0083997 40.7691798,10.9576949 C40.765203,10.9557065 40.760232,10.9547123 40.7562552,10.9527239 C40.7522784,10.9507354 40.75029,10.9477528 40.7463132,10.9457644 L21.8565037,0.257997716 C21.2490472,-0.0859992388 20.5053853,-0.0859992388 19.8979287,0.257997716 L10.755261,5.43584784 C10.7542668,5.43584784 10.7532726,5.43684205 10.7522784,5.43684205 L1.0091135,10.9447702 C1.0051367,10.9467586 1.0021541,10.9507354 0.9991715,10.9527239 C0.995194698,10.9547123 0.990223695,10.9557065 0.987241094,10.9576949 C0.902734051,11.0064113 0.835128418,11.0740176 0.76056338,11.1336702 C0.701905551,11.1803982 0.635294118,11.2181782 0.583595692,11.2708713 C0.510024855,11.3444429 0.455343828,11.4309393 0.394697597,11.514453 C0.353935377,11.5701288 0.303231152,11.6198393 0.269428335,11.679492 C0.212758906,11.7769247 0.177961889,11.8852936 0.13918807,11.99068 C0.118309859,12.0463558 0.0864954432,12.0980548 0.0705882353,12.155719 C0.0298260149,12.3048506 0.0129246065,12.4599475 0.00894780447,12.618027 C0.00695940348,12.6369171 0,12.6548128 0,12.6746971 L0,12.6746971 L0,12.6746971 L0,35.0444413 C0,35.7612673 0.385749793,36.4224175 1.0091135,36.7753624 L19.8989229,47.463129 C20.0003314,47.5197991 20.1086993,47.5536022 20.2160729,47.5913822 C20.2677713,47.6102722 20.3164872,47.6400986 20.370174,47.6540175 C20.5362055,47.698757 20.707208,47.7216239 20.8782104,47.7216239 C21.0492129,47.7216239 21.2202154,47.698757 21.3862469,47.6550117 C21.4389395,47.6410928 21.4876553,47.6112665 21.540348,47.5923764 C21.6477216,47.5545964 21.7560895,47.5207933 21.8574979,47.4641232 L40.7473074,36.7763566 C41.3706711,36.4234117 41.7564209,35.7622615 41.7564209,35.0454355 L41.7564209,12.6756913 L41.7564209,12.6756913 L41.7564209,12.6756913 C41.7564209,12.6617723 41.7514499,12.6498418 41.7514499,12.6369171 Z M3.97680199,16.0868287 L18.8898094,24.5326499 L18.8898094,42.3230589 L3.97680199,33.8851914 L3.97680199,16.0868287 Z M37.7796189,33.8851914 L22.8666114,42.3230589 L22.8666114,24.5326499 L37.7796189,16.0868287 L37.7796189,33.8851914 Z" id="Shape" stroke="#999999" fill="#999999"></path>
                        <polygon id="Shape" fill="#E0E0E0" points="21.2641865 19.6142272 35.5689696 11.7713339 21.2112952 3.69297526 6.95940348 11.8521093"></polygon>
                    </g>
                </g>
                <g id="box" transform="translate(0.000000, 16.503728)">
                    <polygon id="Path-2" fill="#FFFFFF" points="3.93928499 15.6464341 18.9085679 24.4090714 18.9085679 42.2453719 3.93928499 33.8198887"></polygon>
                    <polygon id="Path-2" fill="#FFFFFF" transform="translate(30.332494, 29.337064) scale(-1, 1) translate(-30.332494, -29.337064) " points="22.8478529 15.6464341 37.8171359 24.6319721 37.8171359 43.0276936 22.8478529 34.2217614"></polygon>
                    <g id="package-(1)-copy-3" fill-rule="nonzero">
                        <polygon id="Shape" fill="#00FFB0" points="20.5618739 23.5426678 30.1884938 17.9607242 39.2257287 12.7207376 20.5618739 1.90886495 11.524639 7.1488516 1.89801913 12.7207376"></polygon>
                        <path d="M41.7514499,12.6369171 C41.7484673,12.4728723 41.7285833,12.3108159 41.6868268,12.1567132 C41.6689312,12.0901011 41.63314,12.0314426 41.608285,11.9678131 C41.5705054,11.8703805 41.5396852,11.7709594 41.4879867,11.6804862 C41.4521955,11.6178509 41.4004971,11.5671462 41.3577465,11.5094819 C41.2980944,11.4289509 41.2454018,11.3434487 41.1738194,11.2718656 C41.1231152,11.2211608 41.0584921,11.184375 41.0028169,11.1386413 C40.9262635,11.0770002 40.8556752,11.0083997 40.7691798,10.9576949 C40.765203,10.9557065 40.760232,10.9547123 40.7562552,10.9527239 C40.7522784,10.9507354 40.75029,10.9477528 40.7463132,10.9457644 L21.8565037,0.257997716 C21.2490472,-0.0859992388 20.5053853,-0.0859992388 19.8979287,0.257997716 L10.755261,5.43584784 C10.7542668,5.43584784 10.7532726,5.43684205 10.7522784,5.43684205 L1.0091135,10.9447702 C1.0051367,10.9467586 1.0021541,10.9507354 0.9991715,10.9527239 C0.995194698,10.9547123 0.990223695,10.9557065 0.987241094,10.9576949 C0.902734051,11.0064113 0.835128418,11.0740176 0.76056338,11.1336702 C0.701905551,11.1803982 0.635294118,11.2181782 0.583595692,11.2708713 C0.510024855,11.3444429 0.455343828,11.4309393 0.394697597,11.514453 C0.353935377,11.5701288 0.303231152,11.6198393 0.269428335,11.679492 C0.212758906,11.7769247 0.177961889,11.8852936 0.13918807,11.99068 C0.118309859,12.0463558 0.0864954432,12.0980548 0.0705882353,12.155719 C0.0298260149,12.3048506 0.0129246065,12.4599475 0.00894780447,12.618027 C0.00695940348,12.6369171 0,12.6548128 0,12.6746971 L0,12.6746971 L0,12.6746971 L0,35.0444413 C0,35.7612673 0.385749793,36.4224175 1.0091135,36.7753624 L19.8989229,47.463129 C20.0003314,47.5197991 20.1086993,47.5536022 20.2160729,47.5913822 C20.2677713,47.6102722 20.3164872,47.6400986 20.370174,47.6540175 C20.5362055,47.698757 20.707208,47.7216239 20.8782104,47.7216239 C21.0492129,47.7216239 21.2202154,47.698757 21.3862469,47.6550117 C21.4389395,47.6410928 21.4876553,47.6112665 21.540348,47.5923764 C21.6477216,47.5545964 21.7560895,47.5207933 21.8574979,47.4641232 L40.7473074,36.7763566 C41.3706711,36.4234117 41.7564209,35.7622615 41.7564209,35.0454355 L41.7564209,12.6756913 L41.7564209,12.6756913 L41.7564209,12.6756913 C41.7564209,12.6617723 41.7514499,12.6498418 41.7514499,12.6369171 Z M3.97680199,16.0868287 L18.8898094,24.5326499 L18.8898094,42.3230589 L3.97680199,33.8851914 L3.97680199,16.0868287 Z M37.7796189,33.8851914 L22.8666114,42.3230589 L22.8666114,24.5326499 L37.7796189,16.0868287 L37.7796189,33.8851914 Z" id="Shape" stroke="#999999" fill="#999999"></path>
                        <polygon id="Shape" fill="#CECECE" points="21.2641865 19.6142272 35.5689696 11.7713339 21.2112952 3.69297526 6.95940348 11.8521093"></polygon>
                    </g>
                </g>
                <g id="box" transform="translate(27.837614, 32.278376)">
                    <polygon id="Path-2" fill="#FFFFFF" points="3.93928499 15.6464341 18.9085679 24.4090714 18.9085679 42.2453719 3.93928499 33.8198887"></polygon>
                    <polygon id="Path-2" fill="#FFFFFF" transform="translate(30.332494, 29.337064) scale(-1, 1) translate(-30.332494, -29.337064) " points="22.8478529 15.6464341 37.8171359 24.6319721 37.8171359 43.0276936 22.8478529 34.2217614"></polygon>
                    <g id="package-(1)-copy-3" fill-rule="nonzero">
                        <polygon id="Shape" fill="#00FFB0" points="20.5618739 23.5426678 30.1884938 17.9607242 39.2257287 12.7207376 20.5618739 1.90886495 11.524639 7.1488516 1.89801913 12.7207376"></polygon>
                        <path d="M41.7514499,12.6369171 C41.7484673,12.4728723 41.7285833,12.3108159 41.6868268,12.1567132 C41.6689312,12.0901011 41.63314,12.0314426 41.608285,11.9678131 C41.5705054,11.8703805 41.5396852,11.7709594 41.4879867,11.6804862 C41.4521955,11.6178509 41.4004971,11.5671462 41.3577465,11.5094819 C41.2980944,11.4289509 41.2454018,11.3434487 41.1738194,11.2718656 C41.1231152,11.2211608 41.0584921,11.184375 41.0028169,11.1386413 C40.9262635,11.0770002 40.8556752,11.0083997 40.7691798,10.9576949 C40.765203,10.9557065 40.760232,10.9547123 40.7562552,10.9527239 C40.7522784,10.9507354 40.75029,10.9477528 40.7463132,10.9457644 L21.8565037,0.257997716 C21.2490472,-0.0859992388 20.5053853,-0.0859992388 19.8979287,0.257997716 L10.755261,5.43584784 C10.7542668,5.43584784 10.7532726,5.43684205 10.7522784,5.43684205 L1.0091135,10.9447702 C1.0051367,10.9467586 1.0021541,10.9507354 0.9991715,10.9527239 C0.995194698,10.9547123 0.990223695,10.9557065 0.987241094,10.9576949 C0.902734051,11.0064113 0.835128418,11.0740176 0.76056338,11.1336702 C0.701905551,11.1803982 0.635294118,11.2181782 0.583595692,11.2708713 C0.510024855,11.3444429 0.455343828,11.4309393 0.394697597,11.514453 C0.353935377,11.5701288 0.303231152,11.6198393 0.269428335,11.679492 C0.212758906,11.7769247 0.177961889,11.8852936 0.13918807,11.99068 C0.118309859,12.0463558 0.0864954432,12.0980548 0.0705882353,12.155719 C0.0298260149,12.3048506 0.0129246065,12.4599475 0.00894780447,12.618027 C0.00695940348,12.6369171 0,12.6548128 0,12.6746971 L0,12.6746971 L0,12.6746971 L0,35.0444413 C0,35.7612673 0.385749793,36.4224175 1.0091135,36.7753624 L19.8989229,47.463129 C20.0003314,47.5197991 20.1086993,47.5536022 20.2160729,47.5913822 C20.2677713,47.6102722 20.3164872,47.6400986 20.370174,47.6540175 C20.5362055,47.698757 20.707208,47.7216239 20.8782104,47.7216239 C21.0492129,47.7216239 21.2202154,47.698757 21.3862469,47.6550117 C21.4389395,47.6410928 21.4876553,47.6112665 21.540348,47.5923764 C21.6477216,47.5545964 21.7560895,47.5207933 21.8574979,47.4641232 L40.7473074,36.7763566 C41.3706711,36.4234117 41.7564209,35.7622615 41.7564209,35.0454355 L41.7564209,12.6756913 L41.7564209,12.6756913 L41.7564209,12.6756913 C41.7564209,12.6617723 41.7514499,12.6498418 41.7514499,12.6369171 Z M3.97680199,16.0868287 L18.8898094,24.5326499 L18.8898094,42.3230589 L3.97680199,33.8851914 L3.97680199,16.0868287 Z M37.7796189,33.8851914 L22.8666114,42.3230589 L22.8666114,24.5326499 L37.7796189,16.0868287 L37.7796189,33.8851914 Z" id="Shape" stroke="#999999" fill="#999999"></path>
                        <polygon id="Shape" fill="#CECECE" points="21.2641865 19.6142272 35.5689696 11.7713339 21.2112952 3.69297526 6.95940348 11.8521093"></polygon>
                    </g>
                </g>
            </g>
            <g id="Group-9" transform="translate(56.000000, 60.000000)" fill="#CECECE">
                <circle id="Oval" cx="3.5" cy="3.5" r="3.5"></circle>
                <circle id="Oval" cx="12.5" cy="8.5" r="3.5"></circle>
                <circle id="Oval" cx="21.5" cy="13.5" r="3.5"></circle>
            </g>
        </g>
    </g>
</svg>