<?xml version="1.0" encoding="UTF-8"?>
<svg width="96px" height="106px" viewBox="0 0 96 106" version="1.1" xmlns="http://www.w3.org/2000/svg" xmlns:xlink="http://www.w3.org/1999/xlink">
    <!-- Generator: Sketch 49.2 (51160) - http://www.bohemiancoding.com/sketch -->
    <title>icon</title>
    <desc>Created with Sketch.</desc>
    <defs></defs>
    <g id="InVision-V2" stroke="none" stroke-width="1" fill="none" fill-rule="evenodd">
        <g id="MEW-connect(pop-out)1" transform="translate(-673.000000, -321.000000)">
            <g id="pop-out" transform="translate(477.000000, 207.000000)">
                <g id="icon" transform="translate(197.000000, 116.000000)">
                    <g id="Group-4" stroke="#05C0A5" stroke-linecap="round" stroke-width="3">
                        <path d="M4.5,13.5 L0.5,4.5" id="Line"></path>
                        <path d="M16.5,13.5 L20.8812494,4.80188395" id="Line"></path>
                        <path d="M10.5,0.416666667 L10.5,9.58333333" id="Line-3"></path>
                    </g>
                    <g id="Group-4" transform="translate(82.500000, 95.000000) scale(1, -1) translate(-82.500000, -95.000000) translate(72.000000, 88.000000)" stroke="#05C0A5" stroke-linecap="round" stroke-width="3">
                        <path d="M4.5,13.5 L0.5,4.5" id="Line"></path>
                        <path d="M16.5,13.5 L20.8812494,4.80188395" id="Line"></path>
                        <path d="M10.5,0.416666667 L10.5,9.58333333" id="Line-3"></path>
                    </g>
                    <g id="usb-cable" transform="translate(1.000000, 7.000000)" fill="#003945" fill-rule="nonzero">
                        <path d="M89.4361393,39.6315773 L85.0071806,39.6315773 L85.0071806,21.4342988 C85.0071806,9.61559853 75.338882,0 63.4545408,0 C51.5714502,0 41.9037768,9.61528758 41.9037768,21.4342988 L41.9037768,66.5657012 C41.9037768,74.440896 35.4623088,80.8480818 27.5445213,80.8480818 C19.6254831,80.8480818 13.1827646,74.440896 13.1827646,66.5657012 L13.1827646,47.8736966 L17.6117232,47.8736966 C18.4749419,47.8736966 19.1749587,47.1777838 19.1749587,46.3189317 L19.1749587,24.4325073 C19.1749587,23.5739662 18.4749419,22.8777425 17.6117232,22.8777425 L16.146659,22.8777425 L16.146659,14.7006124 C16.146659,13.8420712 15.4466421,13.1458475 14.5834235,13.1458475 L4.59153517,13.1458475 C3.72831655,13.1458475 3.02829972,13.8420712 3.02829972,14.7006124 L3.02829972,22.8780534 L1.56323545,22.8780534 C0.700016835,22.8780534 0,23.5742771 0,24.4328183 L0,46.3189317 C0,47.1777838 0.700016835,47.8736966 1.56323545,47.8736966 L5.99219413,47.8736966 L5.99219413,66.5657012 C5.99219413,78.3847124 15.6604927,88 27.5448339,88 C39.4276119,88 49.0949726,78.3847124 49.0949726,66.5657012 L49.0949726,21.4342988 C49.0949726,13.559104 55.5367532,7.15191819 63.4548534,7.15191819 C71.3738916,7.15191819 77.8166101,13.5587931 77.8166101,21.4342988 L77.8166101,39.6315773 L73.3876515,39.6315773 C72.5244329,39.6315773 71.824416,40.327801 71.824416,41.1863421 L71.824416,63.0727665 C71.824416,63.9316186 72.5244329,64.6275314 73.3876515,64.6275314 L74.8527157,64.6275314 L74.8527157,72.8046615 C74.8527157,73.6635136 75.5527326,74.3594263 76.4159512,74.3594263 L86.4084648,74.3594263 C87.2716834,74.3594263 87.9717003,73.6635136 87.9717003,72.8046615 L87.9717003,64.6275314 L89.4367645,64.6275314 C90.2999832,64.6275314 91,63.9316186 91,63.0727665 L91,41.1863421 C90.9993747,40.327801 90.2993579,39.6315773 89.4361393,39.6315773 Z M6.15477062,16.2553772 L13.0208134,16.2553772 L13.0208134,22.8780534 L6.15477062,22.8780534 L6.15477062,16.2553772 Z M84.8446041,71.2498966 L77.9785613,71.2498966 L77.9785613,64.6275314 L84.8446041,64.6275314 L84.8446041,71.2498966 Z" id="Shape"></path>
                    </g>
                    <rect id="Rectangle-2" fill="#05C0A5" x="7" y="23" width="7" height="7"></rect>
                    <rect id="Rectangle-2-Copy" fill="#05C0A5" x="79" y="71.3999939" width="7" height="7"></rect>
                </g>
            </g>
        </g>
    </g>
</svg>