<?xml version="1.0" encoding="UTF-8"?>
<svg width="73px" height="69px" viewBox="0 0 73 69" version="1.1" xmlns="http://www.w3.org/2000/svg" xmlns:xlink="http://www.w3.org/1999/xlink">
    <!-- Generator: Sketch 53 (72520) - https://sketchapp.com -->
    <title>metamask disable</title>
    <desc>Created with Sketch.</desc>
    <g id="metamask-disable" stroke="none" stroke-width="1" fill="none" fill-rule="evenodd">
        <g id="metamask" transform="translate(0.172043, 0.300000)">
            <path d="M9.0779757,28.6576261 C9.01173656,29.0922403 8.89362679,29.517345 8.72617513,29.9238387 L3.25452172,43.2064335 C3.16327615,43.4279347 3.24195786,43.6830306 3.44211991,43.8146501 L35.7028295,65.028159 C35.8698347,65.1379758 36.0861956,65.1377815 36.2530033,65.027665 L68.3997369,43.806318 C68.5980158,43.6754261 68.6768043,43.4230793 68.5882243,43.2026235 L63.2310566,29.8698341 C63.0841919,29.5043207 62.9770195,29.1240873 62.911384,28.7356788 L58.6372367,3.44269584 C58.618759,3.333351 58.5644545,3.23325159 58.4828662,3.1581446 C58.2797011,2.97111899 57.9633891,2.98420257 57.7763635,3.18736761 L45.8855116,16.1043436 C44.844097,17.2356272 43.3766636,17.8793055 41.8390204,17.8793055 L30.062077,17.8793055 C28.5504236,17.8793055 27.1054072,17.2571328 26.066577,16.1589853 L13.7791594,3.16995462 C13.7026482,3.08907458 13.6013311,3.03604456 13.4912667,3.01926976 C13.2182767,2.97766362 12.9632462,3.16523729 12.92164,3.43822729 L9.0779757,28.6576261 Z" id="Path-3" stroke="#999999" stroke-width="5"></path>
            <polygon id="Path-2" fill="#CECECE" points="9.16521107 44.7037938 36.030201 62.3637104 62.0524024 45.0737825 46.3273423 38.0596183 37.6406798 48.5443374 26.7897716 38.7695358"></polygon>
            <path d="M3.03469745,43.5689847 L25.7811149,38.1236934 C26.1508823,38.0351743 26.5388593,38.1640074 26.7822302,38.4561276 L35.4655213,48.8787575 C35.8190317,49.3030791 36.4495892,49.3604829 36.8739108,49.0069725 C36.9415561,48.9506159 37.0014625,48.8855725 37.052076,48.8135293 L44.2678407,38.5426334 C44.5062229,38.203321 44.9292893,38.0463381 45.331308,38.1480236 L66.7633438,43.5689847" id="Path-4" stroke="#999999" stroke-width="5"></path>
        </g>
    </g>
</svg>