<?xml version="1.0" encoding="UTF-8"?>
<svg width="112px" height="111px" viewBox="0 0 112 111" version="1.1" xmlns="http://www.w3.org/2000/svg" xmlns:xlink="http://www.w3.org/1999/xlink">
    <!-- Generator: Sketch 49.2 (51160) - http://www.bohemiancoding.com/sketch -->
    <title>mew connect</title>
    <desc>Created with Sketch.</desc>
    <defs>
        <filter x="-15.1%" y="-9.7%" width="130.1%" height="123.4%" filterUnits="objectBoundingBox" id="filter-1">
            <feOffset dx="0" dy="5" in="SourceAlpha" result="shadowOffsetOuter1"></feOffset>
            <feGaussianBlur stdDeviation="9" in="shadowOffsetOuter1" result="shadowBlurOuter1"></feGaussianBlur>
            <feColorMatrix values="0 0 0 0 0.118312129   0 0 0 0 0.461199204   0 0 0 0 0.461840986  0 0 0 0.136379076 0" type="matrix" in="shadowBlurOuter1" result="shadowMatrixOuter1"></feColorMatrix>
            <feMerge>
                <feMergeNode in="shadowMatrixOuter1"></feMergeNode>
                <feMergeNode in="SourceGraphic"></feMergeNode>
            </feMerge>
        </filter>
    </defs>
    <g id="InVision-V2" stroke="none" stroke-width="1" fill="none" fill-rule="evenodd">
        <g id="MEW-connect1" transform="translate(-340.000000, -277.000000)">
            <g id="Group-9" transform="translate(300.000000, 251.000000)">
                <g id="metamask-copy-10" filter="url(#filter-1)">
                    <g id="mew-connect" transform="translate(59.000000, 38.000000)">
                        <g id="Group-8" transform="translate(12.197531, 0.000000)" fill="#FFFFFF">
                            <circle id="Oval" cx="3.28395062" cy="3.28395062" r="3.28395062"></circle>
                            <circle id="Oval" cx="11.7283951" cy="7.97530864" r="3.28395062"></circle>
                            <circle id="Oval" cx="20.1728395" cy="12.6666667" r="3.28395062"></circle>
                        </g>
                        <g id="Group-7" transform="translate(0.000000, 0.938272)">
                            <g id="box" transform="translate(26.119243, 0.684075)">
                                <g>
                                    <polygon id="Path-2" fill="#FFFFFF" points="3.67924528 14.7540984 17.6603774 23.0169915 17.6603774 39.8360656 3.67924528 31.8910981"></polygon>
                                    <polygon id="Path-2" fill="#FFFFFF" transform="translate(28.330189, 27.663934) scale(-1, 1) translate(-28.330189, -27.663934) " points="21.3396226 14.7540984 35.3207547 23.2271799 35.3207547 40.5737705 21.3396226 32.2700516"></polygon>
                                    <g id="package-(1)-copy-3" fill-rule="nonzero">
                                        <polygon id="Shape" fill="#00FFB0" points="19.2045455 22.2 28.1956938 16.9364017 36.6363636 11.995258 19.2045455 1.8 10.7638756 6.74114365 1.77272727 11.995258"></polygon>
                                        <path d="M38.9953571,11.9162179 C38.9925714,11.7615288 38.974,11.6087147 38.935,11.4634007 C38.9182857,11.4005875 38.8848571,11.3452744 38.8616429,11.2852738 C38.8263571,11.1933978 38.7975714,11.0996469 38.7492857,11.0143335 C38.7158571,10.9552704 38.6675714,10.9074574 38.6276429,10.8530818 C38.5719286,10.7771435 38.5227143,10.6965177 38.4558571,10.629017 C38.4085,10.581204 38.3481429,10.5465161 38.2961429,10.5033907 C38.2246429,10.4452651 38.1587143,10.3805769 38.0779286,10.3327639 C38.0742143,10.3308889 38.0695714,10.3299514 38.0658571,10.3280763 C38.0621429,10.3262013 38.0602857,10.3233888 38.0565714,10.3215138 L20.4137143,0.243283784 C19.8463571,-0.0810945947 19.1517857,-0.0810945947 18.5844286,0.243283784 L10.0452857,5.12583464 C10.0443571,5.12583464 10.0434286,5.12677215 10.0425,5.12677215 L0.9425,10.3205763 C0.938785714,10.3224513 0.936,10.3262013 0.933214286,10.3280763 C0.9295,10.3299514 0.924857143,10.3308889 0.922071429,10.3327639 C0.843142857,10.3787019 0.78,10.4424525 0.710357143,10.4987031 C0.655571429,10.5427661 0.593357143,10.5783914 0.545071429,10.6280795 C0.476357143,10.6974552 0.425285714,10.7790185 0.368642857,10.8577694 C0.330571429,10.9102699 0.283214286,10.9571454 0.251642857,11.013396 C0.198714286,11.1052719 0.166214286,11.2074605 0.13,11.3068365 C0.1105,11.3593371 0.0807857143,11.4080876 0.0659285714,11.4624632 C0.0278571429,11.6030896 0.0120714286,11.7493411 0.00835714286,11.8984052 C0.0065,11.9162179 0,11.9330931 0,11.9518432 L0,33.045813 C0,33.7217575 0.360285714,34.3452015 0.9425,34.6780175 L18.5853571,44.7562475 C18.6800714,44.8096855 18.7812857,44.8415608 18.8815714,44.8771862 C18.9298571,44.8949989 18.9753571,44.9231242 19.0255,44.9362493 C19.1805714,44.9784373 19.3402857,45 19.5,45 C19.6597143,45 19.8194286,44.9784373 19.9745,44.9371868 C20.0237143,44.9240617 20.0692143,44.8959364 20.1184286,44.8781237 C20.2187143,44.8424984 20.3199286,44.810623 20.4146429,44.757185 L38.0575,34.678955 C38.6397143,34.346139 39,33.722695 39,33.0467505 L39,11.9527808 C39,11.9396556 38.9953571,11.9284055 38.9953571,11.9162179 Z M3.71428571,15.1693768 L17.6428571,23.1335222 L17.6428571,39.909322 L3.71428571,31.9526766 L3.71428571,15.1693768 Z M35.2857143,31.9526766 L21.3571429,39.909322 L21.3571429,23.1335222 L35.2857143,15.1693768 L35.2857143,31.9526766 Z" id="Shape" stroke="#003945" fill="#003945"></path>
                                        <polygon id="Shape" fill="#05C0A5" points="19.8604971 18.4956033 33.2209942 11.1 19.8110972 3.48236027 6.5 11.1761687"></polygon>
                                    </g>
                                </g>
                            </g>
                            <g id="box" transform="translate(0.000000, 15.484980)">
                                <g>
                                    <polygon id="Path-2" fill="#FFFFFF" points="3.67924528 14.7540984 17.6603774 23.0169915 17.6603774 39.8360656 3.67924528 31.8910981"></polygon>
                                    <polygon id="Path-2" fill="#FFFFFF" transform="translate(28.330189, 27.663934) scale(-1, 1) translate(-28.330189, -27.663934) " points="21.3396226 14.7540984 35.3207547 23.2271799 35.3207547 40.5737705 21.3396226 32.2700516"></polygon>
                                    <g id="package-(1)-copy-3" fill-rule="nonzero">
                                        <polygon id="Shape" fill="#00FFB0" points="19.2045455 22.2 28.1956938 16.9364017 36.6363636 11.995258 19.2045455 1.8 10.7638756 6.74114365 1.77272727 11.995258"></polygon>
                                        <path d="M38.9953571,11.9162179 C38.9925714,11.7615288 38.974,11.6087147 38.935,11.4634007 C38.9182857,11.4005875 38.8848571,11.3452744 38.8616429,11.2852738 C38.8263571,11.1933978 38.7975714,11.0996469 38.7492857,11.0143335 C38.7158571,10.9552704 38.6675714,10.9074574 38.6276429,10.8530818 C38.5719286,10.7771435 38.5227143,10.6965177 38.4558571,10.629017 C38.4085,10.581204 38.3481429,10.5465161 38.2961429,10.5033907 C38.2246429,10.4452651 38.1587143,10.3805769 38.0779286,10.3327639 C38.0742143,10.3308889 38.0695714,10.3299514 38.0658571,10.3280763 C38.0621429,10.3262013 38.0602857,10.3233888 38.0565714,10.3215138 L20.4137143,0.243283784 C19.8463571,-0.0810945947 19.1517857,-0.0810945947 18.5844286,0.243283784 L10.0452857,5.12583464 C10.0443571,5.12583464 10.0434286,5.12677215 10.0425,5.12677215 L0.9425,10.3205763 C0.938785714,10.3224513 0.936,10.3262013 0.933214286,10.3280763 C0.9295,10.3299514 0.924857143,10.3308889 0.922071429,10.3327639 C0.843142857,10.3787019 0.78,10.4424525 0.710357143,10.4987031 C0.655571429,10.5427661 0.593357143,10.5783914 0.545071429,10.6280795 C0.476357143,10.6974552 0.425285714,10.7790185 0.368642857,10.8577694 C0.330571429,10.9102699 0.283214286,10.9571454 0.251642857,11.013396 C0.198714286,11.1052719 0.166214286,11.2074605 0.13,11.3068365 C0.1105,11.3593371 0.0807857143,11.4080876 0.0659285714,11.4624632 C0.0278571429,11.6030896 0.0120714286,11.7493411 0.00835714286,11.8984052 C0.0065,11.9162179 0,11.9330931 0,11.9518432 L0,33.045813 C0,33.7217575 0.360285714,34.3452015 0.9425,34.6780175 L18.5853571,44.7562475 C18.6800714,44.8096855 18.7812857,44.8415608 18.8815714,44.8771862 C18.9298571,44.8949989 18.9753571,44.9231242 19.0255,44.9362493 C19.1805714,44.9784373 19.3402857,45 19.5,45 C19.6597143,45 19.8194286,44.9784373 19.9745,44.9371868 C20.0237143,44.9240617 20.0692143,44.8959364 20.1184286,44.8781237 C20.2187143,44.8424984 20.3199286,44.810623 20.4146429,44.757185 L38.0575,34.678955 C38.6397143,34.346139 39,33.722695 39,33.0467505 L39,11.9527808 C39,11.9396556 38.9953571,11.9284055 38.9953571,11.9162179 Z M3.71428571,15.1693768 L17.6428571,23.1335222 L17.6428571,39.909322 L3.71428571,31.9526766 L3.71428571,15.1693768 Z M35.2857143,31.9526766 L21.3571429,39.909322 L21.3571429,23.1335222 L35.2857143,15.1693768 L35.2857143,31.9526766 Z" id="Shape" stroke="#003945" fill="#003945"></path>
                                        <polygon id="Shape" fill="#05C0A5" points="19.8604971 18.4956033 33.2209942 11.1 19.8110972 3.48236027 6.5 11.1761687"></polygon>
                                    </g>
                                </g>
                            </g>
                            <g id="box" transform="translate(26.119243, 30.285884)">
                                <g>
                                    <polygon id="Path-2" fill="#FFFFFF" points="3.67924528 14.7540984 17.6603774 23.0169915 17.6603774 39.8360656 3.67924528 31.8910981"></polygon>
                                    <polygon id="Path-2" fill="#FFFFFF" transform="translate(28.330189, 27.663934) scale(-1, 1) translate(-28.330189, -27.663934) " points="21.3396226 14.7540984 35.3207547 23.2271799 35.3207547 40.5737705 21.3396226 32.2700516"></polygon>
                                    <g id="package-(1)-copy-3" fill-rule="nonzero">
                                        <polygon id="Shape" fill="#00FFB0" points="19.2045455 22.2 28.1956938 16.9364017 36.6363636 11.995258 19.2045455 1.8 10.7638756 6.74114365 1.77272727 11.995258"></polygon>
                                        <path d="M38.9953571,11.9162179 C38.9925714,11.7615288 38.974,11.6087147 38.935,11.4634007 C38.9182857,11.4005875 38.8848571,11.3452744 38.8616429,11.2852738 C38.8263571,11.1933978 38.7975714,11.0996469 38.7492857,11.0143335 C38.7158571,10.9552704 38.6675714,10.9074574 38.6276429,10.8530818 C38.5719286,10.7771435 38.5227143,10.6965177 38.4558571,10.629017 C38.4085,10.581204 38.3481429,10.5465161 38.2961429,10.5033907 C38.2246429,10.4452651 38.1587143,10.3805769 38.0779286,10.3327639 C38.0742143,10.3308889 38.0695714,10.3299514 38.0658571,10.3280763 C38.0621429,10.3262013 38.0602857,10.3233888 38.0565714,10.3215138 L20.4137143,0.243283784 C19.8463571,-0.0810945947 19.1517857,-0.0810945947 18.5844286,0.243283784 L10.0452857,5.12583464 C10.0443571,5.12583464 10.0434286,5.12677215 10.0425,5.12677215 L0.9425,10.3205763 C0.938785714,10.3224513 0.936,10.3262013 0.933214286,10.3280763 C0.9295,10.3299514 0.924857143,10.3308889 0.922071429,10.3327639 C0.843142857,10.3787019 0.78,10.4424525 0.710357143,10.4987031 C0.655571429,10.5427661 0.593357143,10.5783914 0.545071429,10.6280795 C0.476357143,10.6974552 0.425285714,10.7790185 0.368642857,10.8577694 C0.330571429,10.9102699 0.283214286,10.9571454 0.251642857,11.013396 C0.198714286,11.1052719 0.166214286,11.2074605 0.13,11.3068365 C0.1105,11.3593371 0.0807857143,11.4080876 0.0659285714,11.4624632 C0.0278571429,11.6030896 0.0120714286,11.7493411 0.00835714286,11.8984052 C0.0065,11.9162179 0,11.9330931 0,11.9518432 L0,33.045813 C0,33.7217575 0.360285714,34.3452015 0.9425,34.6780175 L18.5853571,44.7562475 C18.6800714,44.8096855 18.7812857,44.8415608 18.8815714,44.8771862 C18.9298571,44.8949989 18.9753571,44.9231242 19.0255,44.9362493 C19.1805714,44.9784373 19.3402857,45 19.5,45 C19.6597143,45 19.8194286,44.9784373 19.9745,44.9371868 C20.0237143,44.9240617 20.0692143,44.8959364 20.1184286,44.8781237 C20.2187143,44.8424984 20.3199286,44.810623 20.4146429,44.757185 L38.0575,34.678955 C38.6397143,34.346139 39,33.722695 39,33.0467505 L39,11.9527808 C39,11.9396556 38.9953571,11.9284055 38.9953571,11.9162179 Z M3.71428571,15.1693768 L17.6428571,23.1335222 L17.6428571,39.909322 L3.71428571,31.9526766 L3.71428571,15.1693768 Z M35.2857143,31.9526766 L21.3571429,39.909322 L21.3571429,23.1335222 L35.2857143,15.1693768 L35.2857143,31.9526766 Z" id="Shape" stroke="#003945" fill="#003945"></path>
                                        <polygon id="Shape" fill="#05C0A5" points="19.8604971 18.4956033 33.2209942 11.1 19.8110972 3.48236027 6.5 11.1761687"></polygon>
                                    </g>
                                </g>
                            </g>
                        </g>
                        <g id="Group-9" transform="translate(52.543210, 56.296296)">
                            <circle id="Oval" fill="#05C0A5" cx="3.28395062" cy="3.28395062" r="3.28395062"></circle>
                            <circle id="Oval" fill="#FFFFFF" cx="11.7283951" cy="7.97530864" r="3.28395062"></circle>
                            <circle id="Oval" fill="#FFFFFF" cx="20.1728395" cy="12.6666667" r="3.28395062"></circle>
                        </g>
                    </g>
                </g>
            </g>
        </g>
    </g>
</svg>