<?xml version="1.0" encoding="UTF-8"?>
<svg width="87px" height="86px" viewBox="0 0 87 86" version="1.1" xmlns="http://www.w3.org/2000/svg" xmlns:xlink="http://www.w3.org/1999/xlink">
    <!-- Generator: Sketch 55.2 (78181) - https://sketchapp.com -->
    <title>Optionals</title>
    <desc>Created with Sketch.</desc>
    <g id="Access-wallet_new-flows" stroke="none" stroke-width="1" fill="none" fill-rule="evenodd">
        <g id="Optionals" transform="translate(-358.000000, -272.000000)">
            <g id="Group-9" transform="translate(300.000000, 241.000000)">
                <g id="metamask-copy-10">
                    <g id="h" transform="translate(59.000000, 31.000000)">
                        <g id="Group-6" transform="translate(18.000000, 3.000000)">
                            <g id="app">
                                <path d="M42.8305027,0 L6.23616398,0 C2.79772495,0 0,2.80639656 0,6.25549313 L0,73.7445069 C0,77.1936034 2.79772495,80 6.23616398,80 L42.8305027,80 C46.2689417,80 49.0666667,77.1936034 49.0666667,73.7445069 L49.0666667,6.25549313 C49.0666667,2.80639656 46.2689417,0 42.8305027,0 Z M6.23616398,4.6875 L42.8305027,4.6875 C43.6926984,4.6875 44.3936508,5.4718537 44.3936508,6.435119 L44.3936508,72.9541667 L4.67301587,72.9541667 L4.67301587,6.435119 C4.67301587,5.4718537 5.37457668,4.6875 6.23616398,4.6875 Z M42.8305027,75.3125 L6.23616398,75.3125 C5.37457668,75.3125 4.67301587,74.6087647 4.67301587,73.7445069 L4.67301587,72.9482031 L44.3936508,72.9482031 L44.3936508,73.7445069 C44.3936508,74.6087647 43.69209,75.3125 42.8305027,75.3125 Z" id="Shape" fill="#003945" fill-rule="nonzero"></path>
                                <g id="Group-5" transform="translate(10.000000, 23.000000)" stroke="#003945" stroke-width="3.5">
                                    <rect id="Rectangle" fill="#05C0A5" x="0" y="0" width="11" height="11" rx="3"></rect>
                                    <rect id="Rectangle-Copy" x="18" y="0" width="11" height="11" rx="3"></rect>
                                    <rect id="Rectangle" x="0" y="18" width="11" height="11" rx="3"></rect>
                                    <rect id="Rectangle-Copy" x="18" y="18" width="11" height="11" rx="3"></rect>
                                </g>
                                <path d="M4.67301587,10.5 L44.3936508,10.5" id="Line" stroke="#003945" stroke-width="4.2" stroke-linecap="square"></path>
                            </g>
                            <path d="M4.67301587,66.5 L44.3936508,66.5" id="Line" stroke="#003945" stroke-width="4.2" stroke-linecap="square"></path>
                        </g>
                    </g>
                </g>
            </g>
        </g>
    </g>
</svg>