<?xml version="1.0" encoding="UTF-8"?>
<svg width="81px" height="81px" viewBox="0 0 81 81" version="1.1" xmlns="http://www.w3.org/2000/svg" xmlns:xlink="http://www.w3.org/1999/xlink">
    <!-- Generator: Sketch 49.2 (51160) - http://www.bohemiancoding.com/sketch -->
    <title>mew connect</title>
    <desc>Created with Sketch.</desc>
    <defs></defs>
    <g id="mew-connect" stroke="none" stroke-width="1" fill="none" fill-rule="evenodd">
        <g>
            <g id="Group-8" transform="translate(13.000000, 0.000000)" fill="#05C0A5">
                <circle id="Oval" cx="3.5" cy="3.5" r="3.5"></circle>
                <circle id="Oval" cx="12.5" cy="8.5" r="3.5"></circle>
                <circle id="Oval" cx="21.5" cy="13.5" r="3.5"></circle>
            </g>
            <g id="Group-7" transform="translate(0.000000, 1.000000)">
                <g id="box" transform="translate(27.837614, 0.729080)">
                    <g>
                        <polygon id="Path-2" fill="#FFFFFF" points="3.96226415 15.7377049 19.0188679 24.5514576 19.0188679 42.4918033 3.96226415 34.0171713"></polygon>
                        <polygon id="Path-2" fill="#FFFFFF" transform="translate(30.509434, 29.508197) scale(-1, 1) translate(-30.509434, -29.508197) " points="22.9811321 15.7377049 38.0377358 24.7756586 38.0377358 43.2786885 22.9811321 34.4213884"></polygon>
                        <g id="package-(1)-copy-3" fill-rule="nonzero">
                            <polygon id="Shape" fill="#00FFB0" points="20.6818182 23.68 30.3645933 18.0654951 39.4545455 12.7949419 20.6818182 1.92 11.591866 7.19055323 1.90909091 12.7949419"></polygon>
                            <path d="M41.995,12.7106324 C41.992,12.5456307 41.972,12.382629 41.93,12.2276274 C41.912,12.1606267 41.876,12.1016261 41.851,12.0376254 C41.813,11.9396244 41.782,11.8396233 41.73,11.7486224 C41.694,11.6856217 41.642,11.6346212 41.599,11.5766206 C41.539,11.4956197 41.486,11.4096189 41.414,11.3376181 C41.363,11.2866176 41.298,11.2496172 41.242,11.2036167 C41.165,11.1416161 41.094,11.0726153 41.007,11.0216148 C41.003,11.0196148 40.998,11.0186148 40.994,11.0166148 C40.99,11.0146147 40.988,11.0116147 40.984,11.0096147 L21.984,0.259502703 C21.373,-0.0865009011 20.625,-0.0865009011 20.014,0.259502703 L10.818,5.46755695 C10.817,5.46755695 10.816,5.46855696 10.815,5.46855696 L1.015,11.0086147 C1.011,11.0106147 1.008,11.0146147 1.005,11.0166148 C1.001,11.0186148 0.996,11.0196148 0.993,11.0216148 C0.908,11.0706153 0.84,11.138616 0.765,11.1986167 C0.706,11.2456171 0.639,11.2836175 0.587,11.3366181 C0.513,11.4106189 0.458,11.4976198 0.397,11.5816206 C0.356,11.6376212 0.305,11.6876217 0.271,11.7476224 C0.214,11.8456234 0.179,11.9546245 0.14,12.0606256 C0.119,12.1166262 0.087,12.1686268 0.071,12.2266274 C0.03,12.3766289 0.013,12.5326305 0.009,12.6916322 C0.007,12.7106324 0,12.7286326 0,12.7486328 L0,35.2488672 C0,35.9698747 0.388,36.6348816 1.015,36.9898853 L20.015,47.7399973 C20.117,47.7969979 20.226,47.8309982 20.334,47.8689986 C20.386,47.8879988 20.435,47.9179991 20.489,47.9319993 C20.656,47.9769998 20.828,48 21,48 C21.172,48 21.344,47.9769998 21.511,47.9329993 C21.564,47.9189992 21.613,47.8889988 21.666,47.8699986 C21.774,47.8319982 21.883,47.7979979 21.985,47.7409973 L40.985,36.9908853 C41.612,36.6358816 42,35.9708747 42,35.2498672 L42,12.7496328 C42,12.7356327 41.995,12.7236325 41.995,12.7106324 Z M4,16.1806685 L19,24.675757 L19,42.5699434 L4,34.082855 L4,16.1806685 Z M38,34.082855 L23,42.5699434 L23,24.675757 L38,16.1806685 L38,34.082855 Z" id="Shape" stroke="#003945" fill="#003945"></path>
                            <polygon id="Shape" fill="#05C0A5" points="21.3882276 19.7286435 35.7764553 11.84 21.3350278 3.71451762 7 11.9212466"></polygon>
                        </g>
                    </g>
                </g>
                <g id="box" transform="translate(0.000000, 16.503728)">
                    <g>
                        <polygon id="Path-2" fill="#FFFFFF" points="3.96226415 15.7377049 19.0188679 24.5514576 19.0188679 42.4918033 3.96226415 34.0171713"></polygon>
                        <polygon id="Path-2" fill="#FFFFFF" transform="translate(30.509434, 29.508197) scale(-1, 1) translate(-30.509434, -29.508197) " points="22.9811321 15.7377049 38.0377358 24.7756586 38.0377358 43.2786885 22.9811321 34.4213884"></polygon>
                        <g id="package-(1)-copy-3" fill-rule="nonzero">
                            <polygon id="Shape" fill="#00FFB0" points="20.6818182 23.68 30.3645933 18.0654951 39.4545455 12.7949419 20.6818182 1.92 11.591866 7.19055323 1.90909091 12.7949419"></polygon>
                            <path d="M41.995,12.7106324 C41.992,12.5456307 41.972,12.382629 41.93,12.2276274 C41.912,12.1606267 41.876,12.1016261 41.851,12.0376254 C41.813,11.9396244 41.782,11.8396233 41.73,11.7486224 C41.694,11.6856217 41.642,11.6346212 41.599,11.5766206 C41.539,11.4956197 41.486,11.4096189 41.414,11.3376181 C41.363,11.2866176 41.298,11.2496172 41.242,11.2036167 C41.165,11.1416161 41.094,11.0726153 41.007,11.0216148 C41.003,11.0196148 40.998,11.0186148 40.994,11.0166148 C40.99,11.0146147 40.988,11.0116147 40.984,11.0096147 L21.984,0.259502703 C21.373,-0.0865009011 20.625,-0.0865009011 20.014,0.259502703 L10.818,5.46755695 C10.817,5.46755695 10.816,5.46855696 10.815,5.46855696 L1.015,11.0086147 C1.011,11.0106147 1.008,11.0146147 1.005,11.0166148 C1.001,11.0186148 0.996,11.0196148 0.993,11.0216148 C0.908,11.0706153 0.84,11.138616 0.765,11.1986167 C0.706,11.2456171 0.639,11.2836175 0.587,11.3366181 C0.513,11.4106189 0.458,11.4976198 0.397,11.5816206 C0.356,11.6376212 0.305,11.6876217 0.271,11.7476224 C0.214,11.8456234 0.179,11.9546245 0.14,12.0606256 C0.119,12.1166262 0.087,12.1686268 0.071,12.2266274 C0.03,12.3766289 0.013,12.5326305 0.009,12.6916322 C0.007,12.7106324 0,12.7286326 0,12.7486328 L0,35.2488672 C0,35.9698747 0.388,36.6348816 1.015,36.9898853 L20.015,47.7399973 C20.117,47.7969979 20.226,47.8309982 20.334,47.8689986 C20.386,47.8879988 20.435,47.9179991 20.489,47.9319993 C20.656,47.9769998 20.828,48 21,48 C21.172,48 21.344,47.9769998 21.511,47.9329993 C21.564,47.9189992 21.613,47.8889988 21.666,47.8699986 C21.774,47.8319982 21.883,47.7979979 21.985,47.7409973 L40.985,36.9908853 C41.612,36.6358816 42,35.9708747 42,35.2498672 L42,12.7496328 C42,12.7356327 41.995,12.7236325 41.995,12.7106324 Z M4,16.1806685 L19,24.675757 L19,42.5699434 L4,34.082855 L4,16.1806685 Z M38,34.082855 L23,42.5699434 L23,24.675757 L38,16.1806685 L38,34.082855 Z" id="Shape" stroke="#003945" fill="#003945"></path>
                            <polygon id="Shape" fill="#05C0A5" points="21.3882276 19.7286435 35.7764553 11.84 21.3350278 3.71451762 7 11.9212466"></polygon>
                        </g>
                    </g>
                </g>
                <g id="box" transform="translate(27.837614, 32.278376)">
                    <g>
                        <polygon id="Path-2" fill="#FFFFFF" points="3.96226415 15.7377049 19.0188679 24.5514576 19.0188679 42.4918033 3.96226415 34.0171713"></polygon>
                        <polygon id="Path-2" fill="#FFFFFF" transform="translate(30.509434, 29.508197) scale(-1, 1) translate(-30.509434, -29.508197) " points="22.9811321 15.7377049 38.0377358 24.7756586 38.0377358 43.2786885 22.9811321 34.4213884"></polygon>
                        <g id="package-(1)-copy-3" fill-rule="nonzero">
                            <polygon id="Shape" fill="#00FFB0" points="20.6818182 23.68 30.3645933 18.0654951 39.4545455 12.7949419 20.6818182 1.92 11.591866 7.19055323 1.90909091 12.7949419"></polygon>
                            <path d="M41.995,12.7106324 C41.992,12.5456307 41.972,12.382629 41.93,12.2276274 C41.912,12.1606267 41.876,12.1016261 41.851,12.0376254 C41.813,11.9396244 41.782,11.8396233 41.73,11.7486224 C41.694,11.6856217 41.642,11.6346212 41.599,11.5766206 C41.539,11.4956197 41.486,11.4096189 41.414,11.3376181 C41.363,11.2866176 41.298,11.2496172 41.242,11.2036167 C41.165,11.1416161 41.094,11.0726153 41.007,11.0216148 C41.003,11.0196148 40.998,11.0186148 40.994,11.0166148 C40.99,11.0146147 40.988,11.0116147 40.984,11.0096147 L21.984,0.259502703 C21.373,-0.0865009011 20.625,-0.0865009011 20.014,0.259502703 L10.818,5.46755695 C10.817,5.46755695 10.816,5.46855696 10.815,5.46855696 L1.015,11.0086147 C1.011,11.0106147 1.008,11.0146147 1.005,11.0166148 C1.001,11.0186148 0.996,11.0196148 0.993,11.0216148 C0.908,11.0706153 0.84,11.138616 0.765,11.1986167 C0.706,11.2456171 0.639,11.2836175 0.587,11.3366181 C0.513,11.4106189 0.458,11.4976198 0.397,11.5816206 C0.356,11.6376212 0.305,11.6876217 0.271,11.7476224 C0.214,11.8456234 0.179,11.9546245 0.14,12.0606256 C0.119,12.1166262 0.087,12.1686268 0.071,12.2266274 C0.03,12.3766289 0.013,12.5326305 0.009,12.6916322 C0.007,12.7106324 0,12.7286326 0,12.7486328 L0,35.2488672 C0,35.9698747 0.388,36.6348816 1.015,36.9898853 L20.015,47.7399973 C20.117,47.7969979 20.226,47.8309982 20.334,47.8689986 C20.386,47.8879988 20.435,47.9179991 20.489,47.9319993 C20.656,47.9769998 20.828,48 21,48 C21.172,48 21.344,47.9769998 21.511,47.9329993 C21.564,47.9189992 21.613,47.8889988 21.666,47.8699986 C21.774,47.8319982 21.883,47.7979979 21.985,47.7409973 L40.985,36.9908853 C41.612,36.6358816 42,35.9708747 42,35.2498672 L42,12.7496328 C42,12.7356327 41.995,12.7236325 41.995,12.7106324 Z M4,16.1806685 L19,24.675757 L19,42.5699434 L4,34.082855 L4,16.1806685 Z M38,34.082855 L23,42.5699434 L23,24.675757 L38,16.1806685 L38,34.082855 Z" id="Shape" stroke="#003945" fill="#003945"></path>
                            <polygon id="Shape" fill="#05C0A5" points="21.3882276 19.7286435 35.7764553 11.84 21.3350278 3.71451762 7 11.9212466"></polygon>
                        </g>
                    </g>
                </g>
            </g>
            <g id="Group-9" transform="translate(56.000000, 60.000000)" fill="#05C0A5">
                <circle id="Oval" cx="3.5" cy="3.5" r="3.5"></circle>
                <circle id="Oval" cx="12.5" cy="8.5" r="3.5"></circle>
                <circle id="Oval" cx="21.5" cy="13.5" r="3.5"></circle>
            </g>
        </g>
    </g>
</svg>