<?xml version="1.0" encoding="UTF-8"?>
<svg width="78px" height="78px" viewBox="0 0 78 78" version="1.1" xmlns="http://www.w3.org/2000/svg" xmlns:xlink="http://www.w3.org/1999/xlink">
    <!-- Generator: Sketch 49.2 (51160) - http://www.bohemiancoding.com/sketch -->
    <title>hardware icon</title>
    <desc>Created with Sketch.</desc>
    <defs></defs>
    <g id="InVision-V2" stroke="none" stroke-width="1" fill="none" fill-rule="evenodd">
        <g id="Optionals" transform="translate(-573.000000, -297.000000)">
            <g id="Group-9" transform="translate(300.000000, 261.000000)">
                <g id="metamask-copy-13" transform="translate(214.818523, 0.000000)">
                    <g id="hardware-icon" transform="translate(59.000000, 37.000000)">
                        <g>
                            <polygon id="Path-3" fill="#FFFFFF" points="36.0841781 15.9292352 59.5584024 39.386189 25.8513995 74.0121271 20.524166 72.657831 5.55351022 58.0692853 3.59330707 50.3184233 5.55351022 45.8252117"></polygon>
                            <polygon id="Path-4" fill="#FFFFFF" points="41.0839914 18.0369573 58.2897393 36.4012688 72.623545 20.6181793 54.1685633 3.13322471"></polygon>
                            <path d="M75.3337834,19.1944775 L56.4396414,0.638098544 C55.5746155,-0.211708832 54.1885255,-0.212747897 53.3220152,0.635278222 L39.1511488,14.5023533 L37.5597507,12.9110983 C36.6786921,12.0302674 35.2626149,12.0500096 34.402191,12.9197077 L3.26378391,44.3982057 C-1.07871417,48.7403132 -1.0932624,55.7728589 3.25220471,60.1302555 L15.4951337,72.714975 C15.5022594,72.7223969 15.5095335,72.7296703 15.5168076,72.7367953 C19.8679159,77.0875122 26.9102981,77.0879575 31.2617033,72.7367953 L62.7517916,41.2493911 C63.6214194,40.3798414 63.6214194,38.9702745 62.7517916,38.1007248 L61.1773169,36.5263917 L75.3480347,22.3570969 C76.2228584,21.4827973 76.216475,20.0610584 75.3337834,19.1944775 Z M28.1127539,69.5881291 C25.4995652,72.2010827 21.2817663,72.1933639 18.6755548,69.597926 L6.43455571,57.0151362 C6.42743004,57.0077143 6.42015593,57.0004409 6.41288181,56.9931674 C3.81349916,54.394167 3.78722328,50.1722943 6.42134354,47.5382625 L35.9938861,17.6425586 L58.0283674,39.675058 L28.1127539,69.5881291 Z M58.0283674,33.3777255 C55.7521633,31.1017261 42.5402925,17.8910437 42.3003952,17.651168 L54.8765974,5.34462124 L70.6103592,20.7970139 L58.0283674,33.3777255 Z" id="Shape" stroke="#003945" fill="#003945" fill-rule="nonzero"></path>
                            <path d="M19.1383564,37.4219477 L44.5790349,37.4219477 C45.1313197,37.4219477 45.5790349,37.869663 45.5790349,38.4219477 L45.5790349,52.1276727 C45.5790349,52.6799574 45.1313197,53.1276727 44.5790349,53.1276727 L19.1383564,53.1276727 C16.9292174,53.1276727 15.1383564,51.3368117 15.1383564,49.1276727 L15.1383564,41.4219477 C15.1383564,39.2128087 16.9292174,37.4219477 19.1383564,37.4219477 Z" id="Rectangle" stroke="#003945" stroke-width="3.8" fill="#05C0A5" transform="translate(30.358696, 45.274810) rotate(-45.000000) translate(-30.358696, -45.274810) "></path>
                            <g id="Group" transform="translate(24.782609, 39.652174)" stroke="#003945" stroke-linecap="round" stroke-width="3.8">
                                <path d="M0,11.0351267 L1.12717702,9.82717362" id="Line"></path>
                                <path d="M5.7826087,5.25251799 L10.2913168,0.42070574" id="Line"></path>
                            </g>
                            <path d="M57.1173937,13.1000218 C56.172792,12.1550652 54.640879,12.1550652 53.6957933,13.1000218 L50.2740316,16.5217391 C49.328946,17.4666958 49.328946,18.9986611 50.2740316,19.9434564 C51.2187947,20.8884131 52.7507077,20.8884131 53.695632,19.9434564 L57.1173937,16.5217391 C58.062318,15.5767825 58.062318,14.0448171 57.1173937,13.1000218 Z" id="Shape" fill="#003945" fill-rule="nonzero"></path>
                            <path d="M62.8999886,18.8826305 C61.9552071,17.9376739 60.4232641,17.9376739 59.4783214,18.8826305 L56.0566542,22.3043478 C55.1115501,23.2493045 55.1115501,24.7811085 56.0566542,25.7260651 C57.0014356,26.6710218 58.5333786,26.6710218 59.4783214,25.7260651 L62.8999886,22.3043478 C63.8449313,21.3595525 63.8449313,19.8275871 62.8999886,18.8826305 Z" id="Shape" fill="#003945" fill-rule="nonzero"></path>
                        </g>
                    </g>
                </g>
            </g>
        </g>
    </g>
</svg>