<?xml version="1.0" encoding="UTF-8"?>
<svg width="81px" height="76px" viewBox="0 0 81 76" version="1.1" xmlns="http://www.w3.org/2000/svg" xmlns:xlink="http://www.w3.org/1999/xlink">
    <!-- Generator: Sketch 55.2 (78181) - https://sketchapp.com -->
    <title>Web3 icon disable</title>
    <desc>Created with Sketch.</desc>
    <g id="Page-1" stroke="none" stroke-width="1" fill="none" fill-rule="evenodd">
        <g id="Artboard" transform="translate(-11.000000, -17.000000)" stroke="#B1B1B1">
            <g id="Web3-icon-disable" transform="translate(14.000000, 20.000000)">
                <g id="outline">
                    <path d="M53.1702332,22.1915727 C54.7855803,21.2556182 56.4035304,20.3242191 58.0205043,19.3910304 C58.4002223,19.1720499 58.7584653,18.9289913 59.0352007,18.5790456 C59.6163286,17.844013 59.555808,17.1358243 58.8219143,16.5507918 C57.3801573,15.4012256 55.7501681,15.181269 53.9952332,15.6101193 C53.0651356,15.837397 52.2767408,16.3580043 51.4641052,16.8257375 C48.2745716,18.6612039 46.1719197,19.7393418 42.9879176,21.5840815 C42.8070065,21.6888537 42.6605857,21.7381487 42.4625922,21.623127 C40.7071692,20.6027366 38.9473536,19.5895045 37.1328742,18.5419448 C37.6808134,18.2178667 38.1858026,17.9128233 38.6968113,17.6178667 C41.8015835,15.8263266 43.8240293,14.7995987 46.930103,13.0101735 C47.3109599,12.790705 47.6600922,12.5349566 47.9474024,12.1968872 C48.5490293,11.4890239 48.4961551,10.7526898 47.7642137,10.1707484 C46.130808,8.87183297 44.3073807,8.73484816 42.3982158,9.39032538 C41.2707755,9.77736443 40.3050488,10.4951518 39.2776627,11.0826247 C36.4027711,12.7261171 33.5228362,14.3622885 30.6795065,16.0596312 C28.8352549,17.1605531 27.7940401,18.7952603 27.7938774,21.0040998 C27.7933894,26.2057809 27.7992462,31.4071367 27.7898102,36.6088178 C27.7873698,38.0250325 27.5674132,39.4100108 26.9400813,40.6959111 C25.9644306,42.6958568 24.284333,43.4476464 22.1228362,42.8222668 C19.6901356,42.1184707 17.6884002,40.7064859 15.9337907,38.9177115 C15.2345499,38.2049675 14.6265781,37.4178742 14.0810792,36.5814859 C14.014051,36.4788286 13.9888341,36.3040998 13.7592787,36.3888612 C12.4566215,36.8700976 11.2013069,36.5821367 9.99040672,36.066898 C6.65786876,34.6490564 4.13194685,32.3186876 2.3950705,29.1540456 C0.874571584,26.3839262 0.0754392625,23.4226464 0.0938207718,20.2370174 C0.125873102,15.0084924 0.0734869848,9.77964208 0.118552061,4.55144252 C0.134983731,2.64504338 1.21247831,1.2677115 2.70743492,0.186637744 C2.80602495,0.11537961 2.89420282,0.113590022 3.00531996,0.178015184 C4.76139371,1.19808026 5.62814354,1.72071321 7.38519343,2.73915138 C7.40666849,2.75162427 7.73331587,2.95132869 8.36513557,3.33826464 C7.30591649,4.22524946 6.60954989,4.9787744 6.27603579,5.59883948 C5.8689859,6.35616052 5.6519577,7.16180043 5.65244577,8.02714751 C5.65553688,13.3653254 5.65130694,18.7033406 5.6552115,24.0413557 C5.65683839,26.2127766 7.06622017,28.388102 8.92511388,29.1136985 C10.0704501,29.5609328 10.8525,29.1239479 11.0703416,27.9119089 C11.1355803,27.5497614 11.1689317,27.1864751 11.1686063,26.815705 C11.1629121,21.6415184 11.1656779,16.4673319 11.164051,11.2931453 C11.1634002,9.27937093 12.1405152,7.80084599 13.6984328,6.63712581 C13.8219143,6.54504338 13.9305911,6.4858243 14.10109,6.58522777 C15.8317842,7.59374187 15.8718059,7.58080453 17.6059165,8.5834618 C17.6361768,8.60092383 18.2483243,8.97980244 19.442359,9.72009761 C18.5401898,10.4594685 17.9280423,11.0749783 17.6059165,11.5666269 C17.0143764,12.469718 16.7142137,13.4546421 16.714539,14.534577 C16.7160033,19.7907592 16.7122614,25.0467787 16.716654,30.302961 C16.7186063,32.6313703 18.1320553,34.8104447 20.103205,35.5493818 C21.0772289,35.9146204 21.7554826,35.5871258 22.0675217,34.5869089 C22.1729447,34.2493275 22.2256562,33.9010087 22.2254935,33.5424403 C22.222077,28.327256 22.2321638,23.1122343 22.2189859,17.8968872 C22.2132918,15.6377766 23.2341703,13.9500325 25.1221855,12.830564 C28.7558623,10.6759002 32.4228905,8.5762256 36.0980531,6.49265727 C37.6855803,5.59249458 39.4286388,5.07888286 41.2187148,4.7512256 C44.3784761,4.17302603 47.489756,4.31863341 50.5034219,5.5091974 C52.5625868,6.32264642 54.4478362,7.42470716 56.0112852,9.02394794 C56.2990835,9.3182538 56.5886714,9.62280911 56.7513612,9.99585683 C56.9059165,10.3501952 57.1580857,10.4362581 57.4964805,10.5037744 C60.990244,11.2000868 64.0935521,12.7004121 66.7691486,15.0623427 C67.2108514,15.4523102 67.5721855,15.9158134 67.8728362,16.4242191 C68.6321095,17.7084924 68.469257,19.1016052 67.432923,20.1769848 C67.1090076,20.5129393 66.744257,20.7965076 66.3393221,21.0299675 C61.9117191,23.5843601 57.4849295,26.1400542 53.0571638,28.6942842 C52.9401898,28.7618004 52.8154067,28.8158134 52.6942028,28.8760087 C51.8439859,28.3876139 50.9862852,27.9115835 50.1453416,27.4075705 C49.1651356,26.8202603 50.1354591,25.1345513 49.1928344,24.4841175 C51.1843203,23.327393 51.1776085,23.3461822 53.1702332,22.1915727 Z" id="Fill-4" stroke-width="4.5"></path>
                    <path d="M58.8378416,57.9875108 C61.3745011,59.4531833 63.9092082,60.9217842 66.4450542,62.3887581 C66.8377874,62.6157104 67.2624078,62.7585521 67.7068764,62.8368059 C68.5115401,62.978346 69.180846,62.3241703 69.2447831,61.3791052 C69.4147939,58.8668492 68.2427766,57.1102874 66.1603471,55.864897 C64.8521584,55.0826844 63.4745011,54.4127278 62.2886551,53.4347993 C59.01859,50.7378905 56.6447831,47.4526952 55.753243,43.246513 C55.3414751,41.3041594 55.289577,39.3265022 55.7332321,37.37032 C55.9779176,36.2915239 56.4786768,35.343205 57.434154,34.7170119 C58.2781887,34.1638666 59.2245553,34.0314371 60.2153362,34.1319794 C62.1427223,34.3275325 63.7769414,35.2416866 65.4044902,36.1992787 C67.9767787,37.7126193 70.5700542,39.1900054 73.1545445,40.6826844 C73.461269,40.8599078 74.0160954,41.183064 74.8190239,41.6521529 L74.8190239,48.0446095 C71.9972234,46.4409978 69.9377874,45.2638666 68.6407158,44.5132158 C66.989577,43.5577386 65.3434816,42.5939642 63.6846963,41.6521529 C63.3201085,41.4450488 62.9148482,41.3069252 62.4803037,41.2992787 C61.7727657,41.2869143 61.3317137,41.5649512 61.1402278,42.2536171 C60.8319306,43.3623482 61.0242299,44.4357755 61.4921258,45.465602 C62.1170174,46.8409816 63.1945119,47.760179 64.4919631,48.4812202 C66.1354555,49.3947234 67.7789479,50.3124566 69.3750976,51.3043764 C70.6930477,52.1231941 71.6550325,53.3214046 72.4596963,54.6346367 C73.7031345,56.6633785 74.3898482,58.8813286 74.6612148,61.2385412 C74.874013,63.0857213 74.9734165,64.9338774 74.5527007,66.7607213 C74.2447289,68.0983568 73.6118655,69.2340944 72.2457592,69.7812202 C71.341692,70.143205 70.4124078,70.1015564 69.4751518,69.9356128 C67.8996638,69.6567625 66.5400651,68.887077 65.1835575,68.094615 C63.4893059,67.1047017 60.2526464,65.2027495 55.4735792,62.3887581 C55.4735792,59.5768275 55.4735792,57.4659273 55.4735792,56.0560575 C56.644295,56.7279664 57.7427766,57.3548102 58.8378416,57.9875108 Z" id="Fill-6" stroke-width="4.5"></path>
                    <path d="M50.1453416,27.4075705 C50.9862852,27.9115835 51.8439859,28.3876139 52.6942028,28.8760087 C51.3821095,29.8196095 50.3866106,30.9906508 50.0395933,32.6160846 C49.9401898,33.0815401 49.9074892,33.5565944 49.9078145,34.0352278 C49.9115564,39.3182538 49.9222939,44.6012798 49.9021204,49.8843059 C49.8967516,51.3031236 49.566654,52.6617462 48.8537473,53.9087636 C47.9137256,55.5530694 46.3567842,56.0774187 44.5946909,55.6802928 C42.5921421,55.2293167 40.8878037,54.1798048 39.3429013,52.8782863 C36.0264696,50.0837636 34.2310249,46.4406508 33.5238124,42.2149458 C33.4566757,41.8136443 33.375949,41.1309885 33.2816323,40.1669785 C35.4987847,41.3695498 37.1434238,42.2684493 38.2155496,42.8636771 C38.3231613,42.9234214 38.5613639,43.0535192 38.9301573,43.2539705 C38.9081961,43.4957361 38.9081961,43.6921819 38.9301573,43.843308 C39.1938774,45.6533948 40.029615,47.1065401 41.6400813,48.0446095 C42.1066757,48.3163015 42.5955586,48.5601735 43.1773373,48.457679 C43.5943113,48.3839805 43.8601464,48.1327874 44.0462636,47.7820282 C44.2743547,47.3522017 44.3495174,46.8880477 44.3490293,46.4012798 C44.3446367,41.145423 44.3314588,35.8897289 44.3534219,30.633872 C44.3625325,28.4618004 45.3541269,26.8077332 47.1957755,25.6610954 C48.1384002,26.3115293 49.1651356,26.8202603 50.1453416,27.4075705 Z" id="Fill-8" stroke-width="4.5"></path>
                    <path d="M33.2826085,27.7114425 C33.2782158,27.3800434 33.3712744,27.3268438 33.654192,27.4921367 C35.2991486,28.4526573 36.9467082,29.4092733 38.5991486,30.3567787 C38.7930748,30.4680586 38.8566866,30.595282 38.8558731,30.8111714 C38.8488774,32.7196855 38.8467625,34.6283623 38.8568801,36.5367137 C38.8586388,36.866974 38.7833134,36.9104121 38.5000705,36.7457701 C36.8531616,35.7876898 35.2007213,34.8390456 33.5471421,33.8925163 C33.3450813,33.7768438 33.2785412,33.6276573 33.2816323,33.3961497 C33.2939967,32.441974 33.2868384,31.4876356 33.2868384,30.5332972 C33.2868384,29.5926247 33.2948102,28.6519523 33.2826085,27.7114425 Z" id="Fill-10" stroke-width="4"></path>
                </g>
                <g id="Group-12" fill-rule="nonzero">
                    <path d="M53.1702332,22.1915727 C54.7855803,21.2556182 56.4035304,20.3242191 58.0205043,19.3910304 C58.4002223,19.1720499 58.7584653,18.9289913 59.0352007,18.5790456 C59.6163286,17.844013 59.555808,17.1358243 58.8219143,16.5507918 C57.3801573,15.4012256 55.7501681,15.181269 53.9952332,15.6101193 C53.0651356,15.837397 52.2767408,16.3580043 51.4641052,16.8257375 C48.2745716,18.6612039 46.1719197,19.7393418 42.9879176,21.5840815 C42.8070065,21.6888537 42.6605857,21.7381487 42.4625922,21.623127 C40.7071692,20.6027366 38.9473536,19.5895045 37.1328742,18.5419448 C37.6808134,18.2178667 38.1858026,17.9128233 38.6968113,17.6178667 C41.8015835,15.8263266 43.8240293,14.7995987 46.930103,13.0101735 C47.3109599,12.790705 47.6600922,12.5349566 47.9474024,12.1968872 C48.5490293,11.4890239 48.4961551,10.7526898 47.7642137,10.1707484 C46.130808,8.87183297 44.3073807,8.73484816 42.3982158,9.39032538 C41.2707755,9.77736443 40.3050488,10.4951518 39.2776627,11.0826247 C36.4027711,12.7261171 33.5228362,14.3622885 30.6795065,16.0596312 C28.8352549,17.1605531 27.7940401,18.7952603 27.7938774,21.0040998 C27.7933894,26.2057809 27.7992462,31.4071367 27.7898102,36.6088178 C27.7873698,38.0250325 27.5674132,39.4100108 26.9400813,40.6959111 C25.9644306,42.6958568 24.284333,43.4476464 22.1228362,42.8222668 C19.6901356,42.1184707 17.6884002,40.7064859 15.9337907,38.9177115 C15.2345499,38.2049675 14.6265781,37.4178742 14.0810792,36.5814859 C14.014051,36.4788286 13.9888341,36.3040998 13.7592787,36.3888612 C12.4566215,36.8700976 11.2013069,36.5821367 9.99040672,36.066898 C6.65786876,34.6490564 4.13194685,32.3186876 2.3950705,29.1540456 C0.874571584,26.3839262 0.0754392625,23.4226464 0.0935106586,20.2370174 C0.125873102,15.0084924 0.0734869848,9.77964208 0.118552061,4.55144252 C0.134983731,2.64504338 1.21247831,1.2677115 2.70743492,0.186637744 C2.80602495,0.11537961 2.89420282,0.113590022 3.00531996,0.178015184 C4.76139371,1.19808026 6.5200705,2.21359002 8.27712039,3.2320282 C8.30933297,3.25073753 8.32820499,3.2927115 8.36513557,3.33826464 C7.49848698,3.93940347 6.77630694,4.66874187 6.27603579,5.59883948 C5.8689859,6.35616052 5.6519577,7.16180043 5.65244577,8.02714751 C5.65553688,13.3653254 5.65130694,18.7033406 5.6552115,24.0413557 C5.65683839,26.2127766 7.06622017,28.388102 8.92511388,29.1136985 C10.0704501,29.5609328 10.8525,29.1239479 11.0703416,27.9119089 C11.1355803,27.5497614 11.1689317,27.1864751 11.1686063,26.815705 C11.1629121,21.6415184 11.1656779,16.4673319 11.164051,11.2931453 C11.1634002,9.27937093 12.1405152,7.80084599 13.6984328,6.63712581 C13.8219143,6.54504338 13.9305911,6.4858243 14.10109,6.58522777 C15.8317842,7.59374187 17.5686605,8.59200651 19.3027711,9.59466377 C19.3481616,9.62085683 19.3826518,9.66559653 19.442359,9.72009761 C18.7177386,10.238102 18.0891052,10.829154 17.6059165,11.5666269 C17.0143764,12.469718 16.7142137,13.4546421 16.714539,14.534577 C16.7160033,19.7907592 16.7122614,25.0467787 16.716654,30.302961 C16.7186063,32.6313703 18.1320553,34.8104447 20.103205,35.5493818 C21.0772289,35.9146204 21.7554826,35.5871258 22.0675217,34.5869089 C22.1729447,34.2493275 22.2256562,33.9010087 22.2254935,33.5424403 C22.222077,28.327256 22.2321638,23.1122343 22.2189859,17.8968872 C22.2132918,15.6377766 23.2341703,13.9500325 25.1221855,12.830564 C28.7558623,10.6759002 32.4228905,8.5762256 36.0980531,6.49265727 C37.6855803,5.59249458 39.4286388,5.07888286 41.2187148,4.7512256 C44.3784761,4.17302603 47.489756,4.31863341 50.5034219,5.5091974 C52.5625868,6.32264642 54.4478362,7.42470716 56.0112852,9.02394794 C56.2990835,9.3182538 56.5886714,9.62280911 56.7513612,9.99585683 C56.9059165,10.3501952 57.1580857,10.4362581 57.4964805,10.5037744 C60.990244,11.2000868 64.0935521,12.7004121 66.7691486,15.0623427 C67.2108514,15.4523102 67.5721855,15.9158134 67.8728362,16.4242191 C68.6321095,17.7084924 68.469257,19.1016052 67.432923,20.1769848 C67.1090076,20.5129393 66.744257,20.7965076 66.3393221,21.0299675 C61.9117191,23.5843601 57.4849295,26.1400542 53.0571638,28.6942842 C52.9401898,28.7618004 52.8154067,28.8158134 52.6942028,28.8760087 C51.8439859,28.3876139 50.9862852,27.9115835 50.1453416,27.4075705 C49.1651356,26.8202603 48.1384002,26.3115293 47.1957755,25.6610954 C49.1872614,24.5043709 51.1776085,23.3461822 53.1702332,22.1915727 Z" id="Fill-4" stroke-width="2.5" fill="#E4E4E4"></path>
                    <path d="M58.8378416,57.9875108 C61.3745011,59.4531833 63.9092082,60.9217842 66.4450542,62.3887581 C66.8377874,62.6157104 67.2624078,62.7585521 67.7068764,62.8368059 C68.5115401,62.978346 69.180846,62.3241703 69.2447831,61.3791052 C69.4147939,58.8668492 68.2427766,57.1102874 66.1603471,55.864897 C64.8521584,55.0826844 63.4745011,54.4127278 62.2886551,53.4347993 C59.01859,50.7378905 56.6447831,47.4526952 55.753243,43.246513 C55.3414751,41.3041594 55.289577,39.3265022 55.7332321,37.37032 C55.9779176,36.2915239 56.4786768,35.343205 57.434154,34.7170119 C58.2781887,34.1638666 59.2245553,34.0314371 60.2153362,34.1319794 C62.1427223,34.3275325 63.7769414,35.2416866 65.4044902,36.1992787 C67.9767787,37.7126193 70.5700542,39.1900054 73.1545445,40.6826844 C73.461269,40.8599078 74.0160954,41.183064 74.8190239,41.6521529 L74.8190239,48.0446095 C71.9972234,46.4409978 69.9377874,45.2638666 68.6407158,44.5132158 C66.989577,43.5577386 65.3434816,42.5939642 63.6846963,41.6521529 C63.3201085,41.4450488 62.9148482,41.3069252 62.4803037,41.2992787 C61.7727657,41.2869143 61.3317137,41.5649512 61.1402278,42.2536171 C60.8319306,43.3623482 61.0242299,44.4357755 61.4921258,45.465602 C62.1170174,46.8409816 63.1945119,47.760179 64.4919631,48.4812202 C66.1354555,49.3947234 67.7789479,50.3124566 69.3750976,51.3043764 C70.6930477,52.1231941 71.6550325,53.3214046 72.4596963,54.6346367 C73.7031345,56.6633785 74.3898482,58.8813286 74.6612148,61.2385412 C74.874013,63.0857213 74.9734165,64.9338774 74.5527007,66.7607213 C74.2447289,68.0983568 73.6118655,69.2340944 72.2457592,69.7812202 C71.341692,70.143205 70.4124078,70.1015564 69.4751518,69.9356128 C67.8996638,69.6567625 66.5400651,68.887077 65.1835575,68.094615 C63.4893059,67.1047017 60.2526464,65.2027495 55.4735792,62.3887581 C55.4735792,59.5768275 55.4735792,57.4659273 55.4735792,56.0560575 C56.644295,56.7279664 57.7427766,57.3548102 58.8378416,57.9875108 Z" id="Fill-6" stroke-width="2.5" fill="#FFFFFF"></path>
                    <path d="M50.1453416,27.4075705 C50.9862852,27.9115835 51.8439859,28.3876139 52.6942028,28.8760087 C51.3821095,29.8196095 50.3866106,30.9906508 50.0395933,32.6160846 C49.9401898,33.0815401 49.9074892,33.5565944 49.9078145,34.0352278 C49.9115564,39.3182538 49.9222939,44.6012798 49.9021204,49.8843059 C49.8967516,51.3031236 49.566654,52.6617462 48.8537473,53.9087636 C47.9137256,55.5530694 46.3567842,56.0774187 44.5946909,55.6802928 C42.5921421,55.2293167 40.8878037,54.1798048 39.3429013,52.8782863 C36.0264696,50.0837636 34.2310249,46.4406508 33.5238124,42.2149458 C33.4566757,41.8136443 33.375949,41.1309885 33.2816323,40.1669785 C35.4987847,41.3695498 37.1434238,42.2684493 38.2155496,42.8636771 C38.3231613,42.9234214 38.5613639,43.0535192 38.9301573,43.2539705 C38.9081961,43.4957361 38.9081961,43.6921819 38.9301573,43.843308 C39.1938774,45.6533948 40.029615,47.1065401 41.6400813,48.0446095 C42.1066757,48.3163015 42.5955586,48.5601735 43.1773373,48.457679 C43.5943113,48.3839805 43.8601464,48.1327874 44.0462636,47.7820282 C44.2743547,47.3522017 44.3495174,46.8880477 44.3490293,46.4012798 C44.3446367,41.145423 44.3314588,35.8897289 44.3534219,30.633872 C44.3625325,28.4618004 45.3541269,26.8077332 47.1957755,25.6610954 C48.1384002,26.3115293 49.1651356,26.8202603 50.1453416,27.4075705 Z" id="Fill-8" stroke-width="2.5" fill="#FFFFFF"></path>
                    <path d="M33.2826085,27.7114425 C33.2782158,27.3800434 33.3712744,27.3268438 33.654192,27.4921367 C35.2991486,28.4526573 36.9467082,29.4092733 38.5991486,30.3567787 C38.7930748,30.4680586 38.8566866,30.595282 38.8558731,30.8111714 C38.8488774,32.7196855 38.8467625,34.6283623 38.8568801,36.5367137 C38.8586388,36.866974 38.7833134,36.9104121 38.5000705,36.7457701 C36.8531616,35.7876898 35.2007213,34.8390456 33.5471421,33.8925163 C33.3450813,33.7768438 33.2785412,33.6276573 33.2816323,33.3961497 C33.2939967,32.441974 33.2868384,31.4876356 33.2868384,30.5332972 C33.2868384,29.5926247 33.2948102,28.6519523 33.2826085,27.7114425 Z" id="Fill-10" stroke-width="1.5" fill="#E4E4E4"></path>
                </g>
                <path d="M54,29 L47,25" id="Line-2" stroke-width="4"></path>
                <path d="M32,16 L25,12" id="Line-2-Copy" stroke-width="4"></path>
            </g>
        </g>
    </g>
</svg>