<?xml version="1.0" encoding="UTF-8"?>
<svg width="76px" height="76px" viewBox="0 0 76 76" version="1.1" xmlns="http://www.w3.org/2000/svg" xmlns:xlink="http://www.w3.org/1999/xlink">
    <!-- Generator: Sketch 49.2 (51160) - http://www.bohemiancoding.com/sketch -->
    <title>ledger</title>
    <desc>Created with Sketch.</desc>
    <defs>
        <filter x="-13.5%" y="-29.9%" width="127.9%" height="170.7%" filterUnits="objectBoundingBox" id="filter-1">
            <feOffset dx="0" dy="5" in="SourceAlpha" result="shadowOffsetOuter1"></feOffset>
            <feGaussianBlur stdDeviation="10" in="shadowOffsetOuter1" result="shadowBlurOuter1"></feGaussianBlur>
            <feColorMatrix values="0 0 0 0 0.314725235   0 0 0 0 0.380536463   0 0 0 0 0.457270408  0 0 0 0.113309556 0" type="matrix" in="shadowBlurOuter1" result="shadowMatrixOuter1"></feColorMatrix>
            <feMerge>
                <feMergeNode in="shadowMatrixOuter1"></feMergeNode>
                <feMergeNode in="SourceGraphic"></feMergeNode>
            </feMerge>
        </filter>
    </defs>
    <g id="Desktop" stroke="none" stroke-width="1" fill="none" fill-rule="evenodd">
        <g id="Hardware(pop-out)1" transform="translate(-700.000000, -299.000000)" fill-rule="nonzero" stroke="#999999" stroke-width="3">
            <g id="pop-out" transform="translate(477.000000, 207.000000)">
                <g id="Group-6" filter="url(#filter-1)" transform="translate(37.000000, 79.000000)">
                    <g id="Group-5" transform="translate(38.000000, 29.000000)">
                        <g id="ledger" transform="translate(170.000000, 1.000000)">
                            <g id="Shape">
                                <path d="M26.9409985,0 L12.1754917,0 L12.1754917,19.7516964 L31.9919528,19.7516964 L31.9919314,5.13897964 C32,2.36441317 29.7246596,2.85717109e-16 26.9409985,0 Z M7.64094806,0 L5.16389309,0 C2.38023197,0 0,2.25986429 0,5.14702186 L0,7.61598392 L7.64094806,7.61598392 L7.64094806,0 Z M0,12.2402614 L7.64094806,12.2402614 L7.64094806,19.8562453 L0,19.8562453 L0,12.2402614 Z M24.3590519,31.9919578 L26.8361069,31.9919578 C29.619768,31.9919578 32,29.7320935 32,26.8449359 L32,24.3840161 L24.3590519,24.3840161 L24.3590519,31.9919578 Z M12.1754917,24.3840161 L19.8164397,24.3840161 L19.8164397,32 L12.1754917,32 L12.1754917,24.3840161 Z M0,24.3840161 L0,26.8529781 C0,29.6275446 2.26727181,32 5.16389309,32 L7.64094806,32 L7.64094806,24.3840161 L0,24.3840161 Z"></path>
                            </g>
                        </g>
                    </g>
                </g>
            </g>
        </g>
    </g>
</svg>