<?xml version="1.0" encoding="UTF-8"?>
<svg width="20px" height="20px" viewBox="0 0 20 20" version="1.1" xmlns="http://www.w3.org/2000/svg" xmlns:xlink="http://www.w3.org/1999/xlink">
    <!-- Generator: Sketch 54.1 (76490) - https://sketchapp.com -->
    <title>wallet</title>
    <desc>Created with Sketch.</desc>
    <g id="Extension" stroke="none" stroke-width="1" fill="none" fill-rule="evenodd">
        <g id="my-wallet-02-copy-5" transform="translate(-28.000000, -138.000000)">
            <g id="Group-13" transform="translate(28.000000, 136.000000)">
                <g id="wallet" transform="translate(0.000000, 2.000000)">
                    <rect id="Rectangle" fill="#FFFFFF" x="0.869565217" y="5.2173913" width="18.2608696" height="13.6231884"></rect>
                    <path d="M0.833333333,20 L19.1666667,20 C19.6266667,20 20,19.6266667 20,19.1666667 L20,5.02083333 C20,4.56041667 19.6266667,4.1875 19.1666667,4.1875 L18.2625,4.1875 L18.2625,0.833333333 C18.2625,0.580416667 18.1475,0.340833333 17.9495833,0.182916667 C17.7516667,0.0245833333 17.4925,-0.0354166667 17.24625,0.0204166667 L0.650416667,3.75375 C0.27,3.83916667 0,4.17666667 0,4.56666667 L0,5.02083333 L0,19.1666667 C0,19.6266667 0.372916667,20 0.833333333,20 Z M18.3333333,13.335 L14.84,13.335 C14.1545833,13.335 13.5975,12.77875 13.5975,12.0945833 C13.5975,11.4108333 14.155,10.8541667 14.84,10.8541667 L18.3333333,10.8541667 L18.3333333,13.335 Z M18.3333333,9.18791667 L14.84,9.18791667 C13.2358333,9.18791667 11.9308333,10.4920833 11.9308333,12.095 C11.9308333,13.6979167 13.2358333,15.0020833 14.84,15.0020833 L18.3333333,15.0020833 L18.3333333,18.3333333 L1.66666667,18.3333333 L1.66666667,5.85416667 L17.4291667,5.85416667 L18.3333333,5.85416667 L18.3333333,9.18791667 Z M16.5958333,1.875 L16.5958333,4.1875 L6.31625,4.1875 L16.5958333,1.875 Z" id="Shape" fill="#0B2840" fill-rule="nonzero"></path>
                    <path d="M6.34875,7.78875 L3.59625,7.78875 C3.13625,7.78875 2.76291667,8.16208333 2.76291667,8.62208333 L2.76291667,15.49625 C2.76291667,15.95625 3.13583333,16.3295833 3.59625,16.3295833 L6.34875,16.3295833 C6.80875,16.3295833 7.18208333,15.95625 7.18208333,15.49625 L7.18208333,8.62208333 C7.18208333,8.16166667 6.80916667,7.78875 6.34875,7.78875 Z M5.51541667,14.6629167 L4.42958333,14.6629167 L4.42958333,9.45541667 L5.51541667,9.45541667 L5.51541667,14.6629167 Z" id="Shape" fill="#0B2840" fill-rule="nonzero"></path>
                </g>
            </g>
        </g>
    </g>
</svg>