<?xml version="1.0" encoding="UTF-8"?>
<svg width="57px" height="67px" viewBox="0 0 57 67" version="1.1" xmlns="http://www.w3.org/2000/svg" xmlns:xlink="http://www.w3.org/1999/xlink">
    <!-- Generator: Sketch 55.2 (78181) - https://sketchapp.com -->
    <title>button-software</title>
    <desc>Created with Sketch.</desc>
    <g id="Page-1" stroke="none" stroke-width="1" fill="none" fill-rule="evenodd">
        <g id="button-software" transform="translate(-1.000000, -1.000000)" fill-rule="nonzero">
            <polygon id="Path-8" fill="#FFFFFF" points="4.16321644 3.42553278 36.5604444 3.42553278 36.5604444 21.027371 40.4946482 23.0085627 54.358389 22.1321226 54.358389 62.7692675 54.358389 64.8769793 4.16321644 64.8769793"></polygon>
            <path d="M38.6392513,5.3735386 L38.6392513,21.0004098 L53.0400501,21.0004098 C53.0400501,20.5649764 52.3978731,18.5767213 52.0178031,18.019181 C46.3139445,11.8554553 40.6265768,6.51027631 40.1077346,6.02226793 C39.7618398,5.696929 39.2723454,5.48068589 38.6392513,5.3735386 Z" id="Path-5" fill="#05C0A5"></path>
            <g id="File,-Code,-Coding,-Programming,-Data" transform="translate(0.842302, 0.300000)" fill="#003945">
                <path d="M54.6444001,14.95 C55.334325,15.65 55.9256892,16.6 56.4184927,17.8 C56.9112963,19 57.157698,20.1 57.157698,21.1 L57.157698,64.1 C57.157698,65.1 56.8127356,65.95 56.1228106,66.65 C55.4328857,67.35 54.3660835,67.7 53.3804765,67.7 L3.70588323,67.7 C2.72027622,67.7 1.88251027,67.35 1.19258536,66.65 C0.502660453,65.95 0.157698,65.1 0.157698,64.1 L0.157698,4.3 C0.157698,3.3 0.502660453,2.45 1.19258536,1.75 C1.88251027,1.05 2.72027622,0.7 3.70588323,0.7 L36.8222787,0.7 C37.8078857,0.7 38.8920534,0.95 40.0747819,1.45 C41.2575103,1.95 42.1938369,2.55 42.8837618,3.25 L54.6444001,14.95 Z M38.0050071,5.8 L38.0050071,19.9 L51.902066,19.9 C51.6556642,19.175 51.3846223,18.6625 51.0889402,18.3625 L39.5203779,6.625 C39.2246958,6.325 38.7195722,6.05 38.0050071,5.8 Z M52.1977481,63.1 L52.1977481,24.7 L36.8222787,24.7 C35.8366717,24.7 34.9989058,24.35 34.3089809,23.65 C33.6190559,22.95 33.2740935,22.1 33.2740935,21.1 L33.2740935,5.5 L4.88861164,5.5 L4.88861164,63.1 L52.1977481,63.1 Z M17.8986242,29.5 C18.0957456,29.225 18.3544674,29.06875 18.6747897,29.03125 C18.995112,28.99375 19.2907941,29.075 19.561836,29.275 L21.4468094,30.7 C21.7178513,30.9 21.8718524,31.1625 21.9088127,31.4875 C21.9457729,31.8125 21.8656924,32.1125 21.668571,32.3875 L14.9418031,41.5 L21.668571,50.6125 C21.8656924,50.8875 21.9457729,51.1875 21.9088127,51.5125 C21.8718524,51.8375 21.7178513,52.1 21.4468094,52.3 L19.561836,53.725 C19.2907941,53.925 18.995112,54.00625 18.6747897,53.96875 C18.3544674,53.93125 18.0957456,53.775 17.8986242,53.5 L9.54560476,42.2125 C9.20064231,41.7375 9.20064231,41.2625 9.54560476,40.7875 L17.8986242,29.5 Z M47.5407549,40.7875 C47.8857174,41.2625 47.8857174,41.7375 47.5407549,42.2125 L39.1877355,53.5 C38.9906141,53.775 38.7318923,53.93125 38.41157,53.96875 C38.0912477,54.00625 37.7955656,53.925 37.5245237,53.725 L35.6395503,52.3 C35.3685084,52.1 35.2145073,51.8375 35.177547,51.5125 C35.1405868,51.1875 35.2206673,50.8875 35.4177887,50.6125 L42.1445566,41.5 L35.4177887,32.3875 C35.2206673,32.1125 35.1405868,31.8125 35.177547,31.4875 C35.2145073,31.1625 35.3685084,30.9 35.6395503,30.7 L37.5245237,29.275 C37.7955656,29.075 38.0912477,28.99375 38.41157,29.03125 C38.7318923,29.06875 38.9906141,29.225 39.1877355,29.5 L47.5407549,40.7875 Z M24.625392,58.075 C24.3050697,58.025 24.0525079,57.8625 23.8677066,57.5875 C23.6829053,57.3125 23.6151448,57.0125 23.6644252,56.6875 L28.7649414,25.525 C28.8142218,25.2 28.9743829,24.94375 29.2454248,24.75625 C29.5164668,24.56875 29.8121489,24.5 30.1324712,24.55 L32.4609677,24.925 C32.78129,24.975 33.0338518,25.1375 33.2186531,25.4125 C33.4034544,25.6875 33.4712149,25.9875 33.4219345,26.3125 L28.3214183,57.475 C28.2721379,57.8 28.1119768,58.05625 27.8409349,58.24375 C27.5698929,58.43125 27.2742108,58.5 26.9538886,58.45 L24.625392,58.075 Z" id="Shape"></path>
            </g>
        </g>
    </g>
</svg>