<?xml version="1.0" encoding="UTF-8"?>
<svg width="92px" height="92px" viewBox="0 0 92 92" version="1.1" xmlns="http://www.w3.org/2000/svg" xmlns:xlink="http://www.w3.org/1999/xlink">
    <!-- Generator: Sketch 53 (72520) - https://sketchapp.com -->
    <title>hardware icon disable</title>
    <desc>Created with Sketch.</desc>
    <g id="hardware-icon-disable" stroke="none" stroke-width="1" fill="none" fill-rule="evenodd">
        <g id="hardware-icon">
            <polygon id="Path-3" fill="#FFFFFF" points="43.6808471 19.2827584 72.0970134 47.6780182 31.2937994 89.5936275 24.8450431 87.9542165 6.72267027 70.294398 4.34979276 60.9117756 6.72267027 55.4726247"></polygon>
            <polygon id="Path-4" fill="#FFFFFF" points="49.7332527 21.8342114 70.5612634 44.0646938 87.9127124 24.9588486 65.5724714 3.79285096"></polygon>
            <path d="M91.1935273,23.2354202 L68.3216711,0.772435079 C67.2745346,-0.256279112 65.5966362,-0.257536928 64.5477026,0.769021006 L47.3934959,17.5554804 L45.4670666,15.6292243 C44.400522,14.5629553 42.6863233,14.5868538 41.6447576,15.6396462 L3.95089632,53.7451964 C-1.30581189,59.0014318 -1.3234229,67.5145134 3.93687939,72.7892566 L18.7572671,88.0233907 C18.7658929,88.0323751 18.7746984,88.0411799 18.7835039,88.0498049 C24.050635,93.3164622 32.5756241,93.3170012 37.8431145,88.0498049 L75.9626951,49.9334734 C77.0154025,48.8808607 77.0154025,47.1745428 75.9626951,46.1219301 L74.056752,44.2161584 L91.2107789,27.0638542 C92.2697759,26.0054915 92.2620487,24.2844391 91.1935273,23.2354202 Z M34.0312283,84.2382616 C30.8678947,87.4013106 25.7621381,87.3919669 22.6072506,84.250121 L7.78919901,69.0183228 C7.78057321,69.0093384 7.7717677,69.0005337 7.7629622,68.991729 C4.61634109,65.8455706 4.58453344,60.7348826 7.77320534,57.5463178 L43.5715463,21.3567814 L70.2448658,48.0277017 L34.0312283,84.2382616 Z M70.2448658,40.4046151 C67.4894608,37.649458 51.4961436,21.6575793 51.2057415,21.3672033 L66.4295653,6.46980466 L85.475698,25.1753326 L70.2448658,40.4046151 Z" id="Shape" stroke="#999999" fill="#999999" fill-rule="nonzero"></path>
            <path d="M22.3253788,45.3002525 L54.1746212,45.3002525 C54.726906,45.3002525 55.1746212,45.7479678 55.1746212,46.3002525 L55.1746212,63.3124458 C55.1746212,63.8647306 54.726906,64.3124458 54.1746212,64.3124458 L22.3253788,64.3124458 C20.1162398,64.3124458 18.3253788,62.5215848 18.3253788,60.3124458 L18.3253788,49.3002525 C18.3253788,47.0911135 20.1162398,45.3002525 22.3253788,45.3002525 Z" id="Rectangle" stroke="#999999" stroke-width="3.8" fill="#CECECE" transform="translate(36.750000, 54.806349) rotate(-45.000000) translate(-36.750000, -54.806349) "></path>
            <g id="Group" transform="translate(30.000000, 48.000000)" stroke="#999999" stroke-linecap="round" stroke-width="3.8">
                <path d="M0,13.3583113 L1.36447745,11.8960523" id="Line"></path>
                <path d="M7,6.35831125 L12.4579098,0.509275369" id="Line"></path>
            </g>
            <path d="M69.1421082,15.8579211 C67.9986429,14.7140263 66.1442219,14.7140263 65.0001709,15.8579211 L60.8580383,20 C59.7139872,21.1438949 59.7139872,22.9983793 60.8580383,24.1420789 C62.0016988,25.2859737 63.8561198,25.2859737 64.9999756,24.1420789 L69.1421082,20 C70.2859639,18.8561051 70.2859639,17.0016207 69.1421082,15.8579211 Z" id="Shape" fill="#999999" fill-rule="nonzero"></path>
            <path d="M76.1420914,22.8579211 C74.9984086,21.7140263 73.1439513,21.7140263 72.0000732,22.8579211 L67.858055,27 C66.7139817,28.1438949 66.7139817,29.998184 67.858055,31.1420789 C69.0017379,32.2859737 70.8561951,32.2859737 72.0000732,31.1420789 L76.1420914,27 C77.2859695,25.8563004 77.2859695,24.001816 76.1420914,22.8579211 Z" id="Shape" fill="#999999" fill-rule="nonzero"></path>
        </g>
    </g>
</svg>