<?xml version="1.0" encoding="UTF-8"?>
<svg width="33px" height="33px" viewBox="0 0 33 33" version="1.1" xmlns="http://www.w3.org/2000/svg" xmlns:xlink="http://www.w3.org/1999/xlink">
    <!-- Generator: sketchtool 55.2 (78181) - https://sketchapp.com -->
    <title>02570B95-CA53-4E4A-A70A-C250ED94FCDC</title>
    <desc>Created with sketchtool.</desc>
    <g id="Dashboard" stroke="none" stroke-width="1" fill="none" fill-rule="evenodd">
        <g id="dashboard" transform="translate(-745.000000, -27.000000)" fill="#003945" fill-rule="nonzero">
            <g id="nav-bar">
                <g id="Group-43" transform="translate(745.000000, 27.000000)">
                    <g id="payment-method" transform="translate(16.500000, 16.500000) scale(-1, 1) translate(-16.500000, -16.500000) ">
                        <path d="M24.3114301,15.5267746 C24.0562246,15.3271067 21.8028147,12.8609381 20.5267873,11.7114985 C20.5213574,11.7061021 20.5213574,11.7061021 20.5213574,11.7007057 L20.5213574,6.39061851 C20.5213574,5.07388958 19.4408066,4 18.1159102,4 L10.2371202,4 C9.00453214,4 8,5.00373599 8,6.22332918 L8,18.6782897 C8,19.9950187 9.08055079,21.0689083 10.4054472,21.0689083 L12.6968665,21.0689083 L13.2778662,21.0689083 C13.3756045,21.0689083 13.457053,20.9825654 13.4461932,20.8854296 L13.3213054,19.8277293 C13.3104456,19.7413865 13.2398569,19.6820257 13.1529784,19.6820257 L12.9412122,19.6820257 L12.8108945,19.6820257 C12.7185861,19.6820257 12.6425675,19.6064757 12.6425675,19.5147364 L12.6425675,5.3652968 C12.6425675,5.27355749 12.7185861,5.19800747 12.8108945,5.19800747 L18.1321999,5.19800747 C18.6697603,5.19800747 19.1095825,5.63511831 19.1095825,6.16936488 L19.1095825,17.7285181 L19.1095825,18.8671648 C19.1095825,19.234122 18.8543771,19.547115 18.5122931,19.6442507 C18.5068632,19.6442507 18.5068632,19.6442507 18.5014333,19.6442507 C17.9204337,19.3312578 17.2362658,17.9929431 17.1330977,17.7824824 C17.1222379,17.7662931 17.116808,17.7447073 17.116808,17.7285181 C17.0787986,17.388543 16.6932755,14.0967206 14.9285568,14.0967206 C14.8796877,14.0967206 14.8308186,14.0967206 14.7819495,14.1021171 C14.7819495,14.1021171 13.3701745,14.2208385 14.5376038,18.2195932 C14.5376038,18.2303861 14.5430337,18.2357825 14.5430337,18.2465753 L15.0588745,22.6770444 C15.0588745,22.6824408 15.0588745,22.6878373 15.0643044,22.6986301 C15.1077437,22.8659195 15.6941732,25.1270237 17.2091163,26.7297634 C17.2362658,26.762142 17.2525555,26.799917 17.2525555,26.8430884 L17.2525555,27.226235 C17.2525555,27.2370278 17.2471256,27.2424242 17.2362658,27.2424242 L17.1005182,27.2424242 C16.7692941,27.2424242 16.497799,27.5122457 16.497799,27.841428 L16.497799,29.4009963 C16.497799,29.7301785 16.7692941,30 17.1005182,30 L23.4915146,30 C23.8227388,30 24.0942339,29.7301785 24.0942339,29.4009963 L24.0942339,27.8522208 C24.0942339,27.5230386 23.8227388,27.2532171 23.4915146,27.2532171 C23.4806548,27.2532171 23.4752249,27.2478207 23.4752249,27.2370278 C23.6869912,25.2835201 24.4471777,18.6027397 24.8544204,18.079286 C24.8652802,18.0630967 24.87614,18.0469074 24.8815699,18.0253217 C24.9521587,17.7824824 25.3051024,16.2984641 24.3114301,15.5267746 Z M10.5140453,19.5255293 C10.5140453,19.6118721 10.4434566,19.6766293 10.362008,19.6766293 C9.82987747,19.6766293 9.3954852,19.2449149 9.3954852,18.7160648 L9.3954852,6.15857202 C9.3954852,5.62972188 9.82987747,5.19800747 10.362008,5.19800747 C10.4488865,5.19800747 10.5140453,5.26816106 10.5140453,5.34910751 L10.5140453,19.5255293 Z" id="Shape"></path>
                    </g>
                </g>
            </g>
        </g>
    </g>
</svg>