<?xml version="1.0" encoding="UTF-8"?>
<svg width="41px" height="41px" viewBox="0 0 41 41" version="1.1" xmlns="http://www.w3.org/2000/svg" xmlns:xlink="http://www.w3.org/1999/xlink">
    <!-- Generator: Sketch 55.2 (78181) - https://sketchapp.com -->
    <title>Group 8</title>
    <desc>Created with Sketch.</desc>
    <g id="Finalization" stroke="none" stroke-width="1" fill="none" fill-rule="evenodd">
        <g id="my-wallet-12-copy-10" transform="translate(-1285.000000, -51.000000)" fill="#FF122F" fill-rule="nonzero">
            <g id="Group" transform="translate(1285.000000, 51.000000)">
                <g id="cancel" transform="translate(21.000000, 20.000000) scale(1, -1) translate(-21.000000, -20.000000) translate(5.000000, 4.000000)">
                    <path d="M16,0 C7.16298932,0 0,7.16298932 0,16 C0,24.8360132 7.16298932,32 16,32 C24.8360132,32 32,24.8370107 32,16 C32,7.16298932 24.8360132,0 16,0 Z M16,29.9999688 C8.26803128,29.9999688 2.00003117,23.7319687 2.00003117,16 C2.00003117,8.26803128 8.26803128,2.00003117 16,2.00003117 C23.7319687,2.00003117 29.9999688,8.26803128 29.9999688,16 C29.9999688,23.7319687 23.7319687,29.9999688 16,29.9999688 Z" id="Shape"></path>
                    <path d="M22.7053739,21.2748921 L17.4550232,16.0153501 L22.6754671,10.8297378 C23.069144,10.4394291 23.069144,9.8075838 22.6754671,9.41827083 C22.2827843,9.02895785 21.6449648,9.02895785 21.252282,9.41827083 L16.038797,14.5969134 L10.747604,9.29646532 C10.3549212,8.90117823 9.71710168,8.90117823 9.32441892,9.29646532 C8.93173616,9.69075672 8.93173616,10.3315632 9.32441892,10.7258546 L14.6076589,16.0183372 L9.29451207,21.2958015 C8.90182931,21.6861102 8.90182931,22.3179555 9.29451207,22.7072685 C9.68719483,23.0975772 10.3250144,23.0975772 10.7186913,22.7072685 L16.0247963,17.436774 L21.2831002,22.7032858 C21.6757829,23.0985729 22.3136024,23.0985729 22.7062852,22.7032858 C23.0980567,22.30999 23.0980567,21.6701792 22.7053739,21.2748921 Z" id="Path"></path>
                </g>
            </g>
        </g>
    </g>
</svg>