<?xml version="1.0" encoding="UTF-8"?>
<svg width="64px" height="64px" viewBox="0 0 64 64" version="1.1" xmlns="http://www.w3.org/2000/svg" xmlns:xlink="http://www.w3.org/1999/xlink">
    <!-- Generator: Sketch 55.2 (78181) - https://sketchapp.com -->
    <title>icon\</title>
    <desc>Created with Sketch.</desc>
    <g id="icon\" stroke="none" stroke-width="1" fill="none" fill-rule="evenodd">
        <g id="car" transform="translate(2.000000, 23.000000)">
            <g id="Group-7" transform="translate(14.146351, 0.000000)" fill-rule="nonzero">
                <path d="M44.2546872,9.21032298 L43.0490361,8.38840674 L42.1331142,5.81737022 C41.9735566,5.36959735 41.5684079,5.06008964 41.1005926,5.02891103 L28.3870872,4.18169214 L24.6254464,1.49925203 C22.7237372,0.143222133 20.3367464,-0.32205873 18.0762687,0.222847517 L15.2994712,0.892348305 C12.3236987,1.60969627 9.46511609,2.76426435 6.82049643,4.30232939 C6.78355743,4.29873186 6.74626439,4.29657334 6.70838126,4.29657334 L3.53870859,4.29657334 L2.46783176,3.20843969 C2.00697943,2.74016089 1.25970237,2.74016089 0.798732023,3.20843969 C0.337879696,3.6767185 0.337879696,4.43603768 0.798732023,4.9044364 L2.2152776,6.34380913 C2.43655753,6.56865491 2.73679013,6.69504822 3.04976846,6.69504822 L3.27612307,6.69504822 C2.58690986,7.23096063 1.91823143,7.79553339 1.2732742,8.38852666 C1.02603076,8.61589071 0.884883675,8.9388292 0.884883675,9.27771676 L0.884883675,10.2684772 L0.122736599,11.831605 C0.0420136821,11.9970915 0,12.1793665 0,12.3640398 C0,13.8517394 1.19113509,15.0620693 2.6552411,15.0620693 L6.93426381,15.0620693 C7.4547142,17.0150497 9.21315202,18.4562212 11.2974319,18.4562212 C13.3817118,18.4562212 15.1402676,17.0150497 15.6606,15.0620693 L30.2401738,15.0620693 C30.7606242,17.0150497 32.519062,18.4562212 34.6033419,18.4562212 C36.6876218,18.4562212 38.4461776,17.0150497 38.96651,15.0620693 L41.8973183,15.0620693 C43.0814905,15.0620693 44.1325406,14.2531041 44.453426,13.0946987 L44.9768268,11.2038356 C45.1860691,10.4485937 44.8958679,9.64742318 44.2546872,9.21032298 Z" id="Shape" fill="#B4ECE4"></path>
                <path d="M42.2122997,12.4107359 C42.1766385,12.5385806 42.0598539,12.6279408 41.9281909,12.6279408 L38.9957066,12.6279408 C38.4749586,10.6875135 36.7155152,9.25560531 34.6300435,9.25560531 C32.5445718,9.25560531 30.7850103,10.6875135 30.2643804,12.6279408 L15.6763514,12.6279408 C15.1556034,10.6875135 13.3961601,9.25560531 11.3106884,9.25560531 C9.2252166,9.25560531 7.46565517,10.6875135 6.94502526,12.6279408 L2.66355566,12.6279408 C2.56365706,12.6279408 2.47509448,12.5775417 2.42172076,12.5006919 L3.13128419,11.0559159 C3.21205327,10.891493 3.25409097,10.7103897 3.25409097,10.5269034 L3.25409097,9.798558 C6.85681692,6.62519791 11.2044132,4.3652184 15.8600893,3.2508369 L18.6384747,2.58563943 C20.2440553,2.20127134 21.9391432,2.52952121 23.2896636,3.4857947 L27.3242207,6.34281962 C27.5013458,6.46828136 27.7092908,6.54215248 27.9252654,6.55645011 L40.2059438,7.36915152 L40.9911988,9.55800029 C41.0766912,9.79617506 41.2351592,10.0007504 41.4435764,10.1418204 L42.6222854,10.9397476 L42.2122997,12.4107359 Z" id="Path" fill="#B4ECE4"></path>
                <path d="M15.9681848,13.8745452 C15.9681848,16.4187793 13.8988637,18.4886005 11.3552444,18.4886005 C8.81162512,18.4886005 6.74230402,16.4187793 6.74230402,13.8745452 C6.74230402,11.3303112 8.81162512,9.26048993 11.3552444,9.26048993 C13.8988637,9.26048993 15.9681848,11.3303112 15.9681848,13.8745452 Z" id="Path" fill="#05C0A5"></path>
                <path d="M15.9681848,13.8745452 C15.9681848,16.4187793 13.8988637,18.4886005 11.3552444,18.4886005 C8.81162512,18.4886005 6.74230402,16.4187793 6.74230402,13.8745452 C6.74230402,11.3303112 8.81162512,9.26048993 11.3552444,9.26048993 C13.8988637,9.26048993 15.9681848,11.3303112 15.9681848,13.8745452 Z M39.3404161,13.8745452 C39.3404161,16.4187793 37.271095,18.4886005 34.7274757,18.4886005 C32.1838564,18.4886005 30.1145353,16.4187793 30.1145353,13.8745452 C30.1145353,11.3303112 32.1838564,9.26048993 34.7274757,9.26048993 C37.271095,9.26048993 39.3404161,11.3303112 39.3404161,13.8745452 Z" id="Combined-Shape" fill="#05C0A5"></path>
            </g>
            <path d="M0.92281106,13.6576037 C0.413156585,13.6576037 9.70754794e-15,13.2444471 9.76996262e-15,12.7347926 C9.83237729e-15,12.2251382 0.413156585,11.8119816 0.92281106,11.8119816 L8.91812844,11.8119816 C9.42778291,11.8119816 9.8409395,12.2251382 9.8409395,12.7347926 C9.8409395,13.2444471 9.42778291,13.6576037 8.91812844,13.6576037 L0.92281106,13.6576037 Z M3.38304593,9.90483871 C2.87339146,9.90483871 2.46023487,9.49168213 2.46023487,8.98202765 C2.46023487,8.47237317 2.87339146,8.05921659 3.38304593,8.05921659 L8.91812844,8.05921659 C9.42778291,8.05921659 9.8409395,8.47237317 9.8409395,8.98202765 C9.8409395,9.49168213 9.42778291,9.90483871 8.91812844,9.90483871 L3.38304593,9.90483871 Z M7.07339825,6.15207373 C6.56374377,6.15207373 6.15058719,5.73891715 6.15058719,5.22926267 C6.15058719,4.7196082 6.56374377,4.30645161 7.07339825,4.30645161 L8.91812844,4.30645161 C9.42778291,4.30645161 9.8409395,4.7196082 9.8409395,5.22926267 C9.8409395,5.73891715 9.42778291,6.15207373 8.91812844,6.15207373 L7.07339825,6.15207373 Z" id="Combined-Shape" fill="#5A78F0"></path>
        </g>
    </g>
</svg>