<?xml version="1.0" encoding="UTF-8"?>
<svg width="18px" height="17px" viewBox="0 0 18 17" version="1.1" xmlns="http://www.w3.org/2000/svg" xmlns:xlink="http://www.w3.org/1999/xlink">
    <!-- Generator: Sketch 49.2 (51160) - http://www.bohemiancoding.com/sketch -->
    <title>exchange (1)</title>
    <desc>Created with Sketch.</desc>
    <defs></defs>
    <g id="Symbols" stroke="none" stroke-width="1" fill="none" fill-rule="evenodd">
        <g id="address-box" transform="translate(-190.000000, -107.000000)" fill="#FFFFFF" fill-rule="nonzero" stroke="#FFFFFF" stroke-width="0.2">
            <g id="exchange-(1)" transform="translate(191.000000, 108.000000)">
                <path d="M15.0669898,9.30564568 C15.0669898,10.6683971 14.2232612,10.7657365 14.062551,10.7657365 L1.71297618,10.7657365 L4.36971676,8.19110967 L3.66158742,7.5 L0.146051677,10.9068787 C-0.0486838922,11.0967209 -0.0486838922,11.4032791 0.146051677,11.5931213 L3.66158742,15 L4.36971676,14.3137573 L1.71297618,11.7391304 L14.062551,11.7391304 C14.7556138,11.7391304 16.0714286,11.2524335 16.0714286,9.30564568 L16.0714286,7.84555483 L15.0669898,7.84555483 L15.0669898,9.30564568 Z" id="Shape"></path>
                <path d="M1.00443878,5.69922128 C1.00443878,4.33646982 1.84816736,4.23913043 2.00887756,4.23913043 L14.3584524,4.23913043 L11.7017118,6.8137573 L12.4098412,7.5 L15.9253769,4.09312135 C16.1201125,3.90327912 16.1201125,3.59672088 15.9253769,3.40687865 L12.4098412,0 L11.6966896,0.691109669 L14.3584524,3.26573653 L2.00887756,3.26573653 C1.3158148,3.26573653 0,3.75243348 0,5.69922128 L0,7.15931213 L1.00443878,7.15931213 L1.00443878,5.69922128 Z" id="Shape"></path>
            </g>
        </g>
    </g>
</svg>