<?xml version="1.0" encoding="UTF-8"?>
<svg width="31px" height="17px" viewBox="0 0 31 17" version="1.1" xmlns="http://www.w3.org/2000/svg" xmlns:xlink="http://www.w3.org/1999/xlink">
    <!-- Generator: Sketch 49.2 (51160) - http://www.bohemiancoding.com/sketch -->
    <title>Attachment, Attach, Pin, Clip, Connect, Join</title>
    <desc>Created with Sketch.</desc>
    <defs></defs>
    <g id="InVision-V2" stroke="none" stroke-width="1" fill="none" fill-rule="evenodd">
        <g id="MetaMask(pop-out)1" transform="translate(-706.000000, -365.000000)">
            <g id="Attachment,-Attach,-Pin,-Clip,-Connect,-Join" transform="translate(704.000000, 355.000000)">
                <g id="Group">
                    <path d="M10.9375,26.25 C6.50416667,26.25 2.91666667,22.6552083 2.91666667,18.2291667 C2.91666667,13.803125 6.50416667,10.2083333 10.9375,10.2083333 L26.25,10.2083333 C29.4729167,10.2083333 32.0833333,12.81875 32.0833333,16.0416667 C32.0833333,19.2645833 29.4729167,21.875 26.25,21.875 L13.8541667,21.875 C11.8416667,21.875 10.2083333,20.2416667 10.2083333,18.2291667 C10.2083333,16.2166667 11.8416667,14.5833333 13.8541667,14.5833333 L24.7916667,14.5833333 L24.7916667,16.7708333 L13.8541667,16.7708333 C13.0520833,16.7708333 12.3958333,17.4197917 12.3958333,18.2291667 C12.3958333,19.0385417 13.0520833,19.6875 13.8541667,19.6875 L26.25,19.6875 C28.2625,19.6875 29.8958333,18.0541667 29.8958333,16.0416667 C29.8958333,14.0291667 28.2625,12.3958333 26.25,12.3958333 L10.9375,12.3958333 C7.71458333,12.3958333 5.10416667,15.00625 5.10416667,18.2291667 C5.10416667,21.4520833 7.71458333,24.0625 10.9375,24.0625 L24.7916667,24.0625 L24.7916667,26.25 L10.9375,26.25 Z" id="Shape" fill="#96A8B6" fill-rule="nonzero"></path>
                    <polygon id="Shape" points="0 0 35 0 35 35 0 35"></polygon>
                </g>
            </g>
        </g>
    </g>
</svg>