<?xml version="1.0" encoding="UTF-8"?>
<svg width="64px" height="64px" viewBox="0 0 64 64" version="1.1" xmlns="http://www.w3.org/2000/svg" xmlns:xlink="http://www.w3.org/1999/xlink">
    <!-- Generator: Sketch 55.2 (78181) - https://sketchapp.com -->
    <title>icon\</title>
    <desc>Created with Sketch.</desc>
    <g id="icon\" stroke="none" stroke-width="1" fill="none" fill-rule="evenodd">
        <g id="copy" transform="translate(7.000000, 4.000000)">
            <g id="Group-18" transform="translate(8.842105, 0.000000)">
                <g id="Group-16" fill="#B2EEE4">
                    <path d="M6,0 L31.4779461,0 L41.2631579,9.62807018 L41.2631579,42.1403509 C41.2631579,45.4540594 38.5768664,48.1403509 35.2631579,48.1403509 L6,48.1403509 C2.6862915,48.1403509 4.05812251e-16,45.4540594 0,42.1403509 L0,6 C-1.29399067e-15,2.6862915 2.6862915,-2.79460044e-16 6,0 Z" id="Rectangle"></path>
                </g>
                <path d="M31.4385965,0 L41.2631579,9.8245614 L41.2631579,1.87270946 C40.9487118,0.624236486 40.1535196,0 38.8775812,0 C37.6016428,0 35.1219813,0 31.4385965,0 Z" id="Path-2" fill="#5A78F0" transform="translate(36.350877, 4.912281) scale(-1, -1) translate(-36.350877, -4.912281) "></path>
            </g>
            <g id="Group-19" transform="translate(0.000000, 7.859649)">
                <g id="Group-18">
                    <g id="Group-16" fill="#CDF4EE">
                        <path d="M6,0 L31.4779461,0 L41.2631579,9.62807018 L41.2631579,42.1403509 C41.2631579,45.4540594 38.5768664,48.1403509 35.2631579,48.1403509 L6,48.1403509 C2.6862915,48.1403509 4.05812251e-16,45.4540594 0,42.1403509 L0,6 C-4.05812251e-16,2.6862915 2.6862915,-2.79460044e-16 6,0 Z" id="Rectangle"></path>
                    </g>
                    <path d="M31.4385965,0 L41.2631579,9.8245614 L41.2631579,1.87270946 C40.9487118,0.624236486 40.1535196,0 38.8775812,0 C37.6016428,0 35.1219813,0 31.4385965,0 Z" id="Path-2" fill="#05C0A5" transform="translate(36.350877, 4.912281) scale(-1, -1) translate(-36.350877, -4.912281) "></path>
                </g>
                <path d="M11.288012,17.3241199 C10.9955896,17.1729317 10.8069498,16.8450818 10.8070176,16.4888277 L10.8070176,16.422927 C10.8070176,16.0661469 10.9957931,15.7381467 11.2879441,15.5875596 L15.5667659,13.3833829 C15.6750931,13.3276266 15.7961048,13.2982456 15.9167773,13.2982456 C16.0767922,13.2982456 16.2317876,13.3480656 16.3648055,13.4422201 C16.6054044,13.6119686 16.7491397,13.9023973 16.7491397,14.2187503 L16.7491397,14.242721 C16.7491397,14.5996514 16.5602285,14.9275014 16.2678062,15.0780884 L13.5915077,16.4557646 L16.2678062,17.8332905 C16.5602285,17.9837273 16.7491397,18.3116524 16.7491397,18.6687331 L16.7491397,18.6929292 C16.7491397,19.0088314 16.6054044,19.2991098 16.3648055,19.4694595 C16.230431,19.56414 16.0758426,19.6140351 15.9172521,19.6140351 C15.7954943,19.6140351 15.6777385,19.5852552 15.5671051,19.5285221 L11.288012,17.3241199 Z M18.5279526,19.791086 C18.3736086,19.5725698 18.3288966,19.2881584 18.4083176,19.0297857 L19.9829572,13.3632499 C20.0924547,13.0097494 20.4075876,12.7719298 20.7670297,12.7719298 L20.7881773,12.7719298 C21.0499376,12.7719298 21.2984052,12.9024702 21.4528834,13.1211947 C21.6074287,13.3402664 21.6518051,13.6250944 21.5717799,13.8831199 L19.9974088,19.5489614 C19.8879112,19.9024619 19.5731141,20.1403509 19.2138062,20.1403509 L19.1925915,20.1403509 C18.9308983,20.1403509 18.6824308,20.0097411 18.5279526,19.791086 Z M23.531562,14.2426459 L23.531562,14.2425707 L23.5317655,14.2425707 L23.5317655,14.2186752 C23.5317655,13.9023221 23.6754975,13.6119686 23.9163623,13.4419195 C24.0493772,13.3479153 24.2045725,13.2982456 24.3643124,13.2982456 C24.4849822,13.2982456 24.6058555,13.3276266 24.7137732,13.3832326 L28.9924973,15.5874093 C29.284913,15.7379964 29.4736842,16.0659966 29.4736842,16.4227768 L29.4736842,16.4886774 C29.4736842,16.8450818 29.284913,17.1729317 28.9927686,17.3238945 L24.7140445,19.5282215 C24.6026675,19.5852552 24.4849822,19.6140351 24.3633628,19.6140351 C24.2045725,19.6140351 24.0499198,19.5639897 23.9160232,19.4694595 C23.6751584,19.2990346 23.531562,19.0087563 23.531562,18.6927789 L23.531562,18.6685828 C23.531562,18.3116524 23.7204689,17.9837273 24.0128167,17.8331403 L26.6890542,16.4557646 L24.0128167,15.0784642 C23.7203333,14.9271257 23.531562,14.5992006 23.531562,14.2426459 Z" id="Combined-Shape" fill="#00C0A5" fill-rule="nonzero"></path>
                <g id="Group-8" transform="translate(7.859649, 26.035088)" fill-rule="nonzero">
                    <path d="M24.6527948,4.06665453 L0.891064871,4.06665453 C0.398959445,4.06665453 0,4.43080988 0,4.87998543 C0,5.32916098 0.398959445,5.69331634 0.891064871,5.69331634 L24.6527948,5.69331634 C25.1449002,5.69331634 25.5438596,5.32916098 25.5438596,4.87998543 C25.5438596,4.43080988 25.1449002,4.06665453 24.6527948,4.06665453 Z" id="Path" fill="#05C0A5"></path>
                    <path d="M24.7198642,0 L21.4238823,0 C20.9688171,0 20.5998868,0.364155357 20.5998868,0.813330905 C20.5998868,1.26250645 20.9688171,1.62666181 21.4238823,1.62666181 L24.7198642,1.62666181 C25.1749294,1.62666181 25.5438596,1.26250645 25.5438596,0.813330905 C25.5438596,0.364155357 25.1749294,0 24.7198642,0 Z" id="Path" fill="#5A78F0"></path>
                    <path d="M0.877156471,1.62666181 L17.2507439,1.62666181 C17.7351682,1.62666181 18.1279004,1.26250645 18.1279004,0.813330905 C18.1279004,0.364155357 17.7351682,0 17.2507439,0 L0.877156471,0 C0.392732191,0 0,0.364155357 0,0.813330905 C0,1.26250645 0.392732191,1.62666181 0.877156471,1.62666181 Z" id="Path" fill="#05C0A5"></path>
                    <g id="Group-10" transform="translate(12.771930, 9.115765) scale(-1, 1) translate(-12.771930, -9.115765) translate(0.000000, 8.133309)">
                        <path d="M24.7198642,0 L21.4238823,0 C20.9688171,0 20.5998868,0.364155357 20.5998868,0.813330905 C20.5998868,1.26250645 20.9688171,1.62666181 21.4238823,1.62666181 L24.7198642,1.62666181 C25.1749294,1.62666181 25.5438596,1.26250645 25.5438596,0.813330905 C25.5438596,0.364155357 25.1749294,0 24.7198642,0 Z" id="Path" fill="#5A78F0"></path>
                        <path d="M0.877156471,1.62666181 L17.2507439,1.62666181 C17.7351682,1.62666181 18.1279004,1.26250645 18.1279004,0.813330905 C18.1279004,0.364155357 17.7351682,0 17.2507439,0 L0.877156471,0 C0.392732191,0 0,0.364155357 0,0.813330905 C0,1.26250645 0.392732191,1.62666181 0.877156471,1.62666181 Z" id="Path" fill="#05C0A5"></path>
                    </g>
                </g>
            </g>
        </g>
    </g>
</svg>