<?xml version="1.0" encoding="UTF-8"?>
<svg width="100px" height="100px" viewBox="0 0 100 100" version="1.1" xmlns="http://www.w3.org/2000/svg" xmlns:xlink="http://www.w3.org/1999/xlink">
    <!-- Generator: Sketch 49.2 (51160) - http://www.bohemiancoding.com/sketch -->
    <title>Domain</title>
    <desc>Created with Sketch.</desc>
    <defs></defs>
    <g id="Domain" stroke="none" stroke-width="1" fill="none" fill-rule="evenodd">
        <g id="Group-13" transform="translate(17.000000, 17.000000)">
            <rect id="Rectangle" fill="#b1b1b1" x="1.91176471" y="2.91176471" width="61.1470588" height="14.5588235"></rect>
            <g id="browser" fill="#b1b1b1" fill-rule="nonzero" stroke="#eee" stroke-width="0.5">
                <path d="M60.1992188,0 L5.80078125,0 C2.60223047,0 0,2.60223047 0,5.80078125 L0,60.1992188 C0,63.3977695 2.60223047,66 5.80078125,66 L60.1992188,66 C63.3977695,66 66,63.3977695 66,60.1992188 L66,5.80078125 C66,2.60223047 63.3978984,0 60.1992188,0 Z M62.1328125,60.1992188 C62.1328125,61.2654023 61.2655312,62.1328125 60.1992187,62.1328125 L5.80078125,62.1328125 C4.73459766,62.1328125 3.8671875,61.2654023 3.8671875,60.1992188 L3.8671875,19.3359375 L62.1328125,19.3359375 L62.1328125,60.1992188 Z M62.1328125,15.46875 L3.8671875,15.46875 L3.8671875,5.80078125 C3.8671875,4.73459766 4.73459766,3.8671875 5.80078125,3.8671875 L60.1992187,3.8671875 C61.2654023,3.8671875 62.1328125,4.73459766 62.1328125,5.80078125 L62.1328125,15.46875 Z" id="Shape"></path>
                <path d="M55.6111111,7.33333333 L51.9444444,7.33333333 C50.9319556,7.33333333 50.1111111,8.15417778 50.1111111,9.16666667 C50.1111111,10.1791556 50.9319556,11 51.9444444,11 L55.6111111,11 C56.6236,11 57.4444444,10.1791556 57.4444444,9.16666667 C57.4444444,8.15417778 56.6236,7.33333333 55.6111111,7.33333333 Z" id="Shape"></path>
                <path d="M44.6111111,7.33333333 L40.9444444,7.33333333 C39.9319556,7.33333333 39.1111111,8.15417778 39.1111111,9.16666667 C39.1111111,10.1791556 39.9319556,11 40.9444444,11 L44.6111111,11 C45.6236,11 46.4444444,10.1791556 46.4444444,9.16666667 C46.4444444,8.15417778 45.6236,7.33333333 44.6111111,7.33333333 Z" id="Shape"></path>
                <path d="M33.6111111,7.33333333 L29.9444444,7.33333333 C28.9319556,7.33333333 28.1111111,8.15417778 28.1111111,9.16666667 C28.1111111,10.1791556 28.9319556,11 29.9444444,11 L33.6111111,11 C34.6236,11 35.4444444,10.1791556 35.4444444,9.16666667 C35.4444444,8.15417778 34.6236,7.33333333 33.6111111,7.33333333 Z" id="Shape"></path>
                <path d="M33.6111111,23.2222222 C23.8390778,23.2222222 15.8888889,31.1724111 15.8888889,40.9444444 C15.8888889,50.7164778 23.8390778,58.6666667 33.6111111,58.6666667 C43.3832757,58.6666667 51.3333333,50.7164778 51.3333333,40.9444444 C51.3333333,31.1724111 43.3832757,23.2222222 33.6111111,23.2222222 Z M47.2538091,38.9753086 L41.4422329,38.9753086 C41.2770881,35.2749086 40.649984,31.8282646 39.632072,29.1138765 C39.5408354,28.8704914 39.4476296,28.6394461 39.3533737,28.4149646 C43.5240033,30.3340844 46.578658,34.2753753 47.2538091,38.9753086 Z M19.9684132,42.9135802 L25.7799893,42.9135802 C25.9451342,46.6139802 26.5722383,50.0606243 27.5901502,52.7750123 C27.6813868,53.0183975 27.7745926,53.2494428 27.8688486,53.4739243 C23.6983502,51.5548045 20.6436955,47.6135136 19.9684132,42.9135802 Z M27.5901502,29.1140078 C26.5722383,31.8283959 25.9451342,35.2750399 25.7799893,38.9754399 L19.9684132,38.9754399 C20.6436955,34.2755066 23.6983502,30.3340844 27.8688486,28.4150959 C27.7745926,28.6395774 27.6813868,28.8706226 27.5901502,29.1140078 Z M35.944537,51.3921539 C34.9233432,54.1154687 33.8919099,54.7283951 33.6111111,54.7283951 C33.3303123,54.7283951 32.2990103,54.1154687 31.2776852,51.3921539 C30.4158601,49.0940412 29.8778922,46.1356115 29.7215428,42.9135802 L37.5006794,42.9135802 C37.34433,46.1354802 36.8063621,49.0940412 35.944537,51.3921539 Z M29.7215428,38.9753086 C29.8778922,35.7534086 30.4158601,32.7948477 31.2776852,30.496735 C32.2990103,27.7734202 33.3303123,27.1604938 33.6111111,27.1604938 C33.8919099,27.1604938 34.9233432,27.7734202 35.944537,30.496735 C36.8063621,32.7948477 37.34433,35.7532774 37.5006794,38.9753086 L29.7215428,38.9753086 Z M39.3533737,53.4739243 C39.4476296,53.2494428 39.5408354,53.0182663 39.632072,52.7750123 C40.649984,50.0606243 41.2770881,46.6139802 41.4422329,42.9135802 L47.2538091,42.9135802 C46.578658,47.6135136 43.5240033,51.5549358 39.3533737,53.4739243 Z" id="Shape"></path>
            </g>
        </g>
    </g>
</svg>
