<?xml version="1.0" encoding="UTF-8"?>
<svg width="100px" height="100px" viewBox="0 0 100 100" version="1.1" xmlns="http://www.w3.org/2000/svg" xmlns:xlink="http://www.w3.org/1999/xlink">
    <!-- Generator: Sketch 49.2 (51160) - http://www.bohemiancoding.com/sketch -->
    <title>sale domain</title>
    <desc>Created with Sketch.</desc>
    <defs></defs>
    <g id="sale-domain" stroke="none" stroke-width="1" fill="none" fill-rule="evenodd">
        <g id="price-tag" transform="translate(20.000000, 20.000000)">
            <path d="M57.8261053,0 L33.0915318,0 C32.515015,0 31.9619762,0.228983295 31.5541535,0.636805441 L0.636733747,31.5547676 C-0.212244582,32.4037449 -0.212244582,33.7802533 0.636733747,34.6289408 L25.3710174,59.3631946 C25.7956515,59.7875383 26.3521685,60 26.9083957,60 C27.4646229,60 28.0211399,59.7878281 28.445774,59.3631946 L59.3634836,28.4452324 C59.7710164,28.0377001 60,27.484662 60,26.9081458 L60,2.17389204 C60,0.973323929 59.0269647,0 57.8261053,0 Z M55.6522107,26.0078647 L26.9081058,54.7519348 L5.24799911,33.0918542 L33.9921039,4.34778408 L55.6525005,4.34778408 L55.6525005,26.0078647 L55.6522107,26.0078647 Z" id="Shape" fill="#b1b1b1" fill-rule="nonzero"></path>
            <circle id="Oval" fill="#b1b1b1" cx="47" cy="13" r="4"></circle>
            <path d="M47.0000692,18 C48.3360936,18 49.5923819,17.4799531 50.5374774,16.5355 C52.4876921,14.5859328 52.4874706,11.4138458 50.5370344,9.4642786 C49.5921604,8.52004693 48.3358721,8 46.9998477,8 C45.6638233,8 44.4075351,8.52004693 43.462661,9.46449999 C41.5124463,11.4140672 41.5124463,14.5861542 43.462661,16.5357214 C44.4075351,17.4799531 45.6638233,18 47.0000692,18 Z M45.8122212,11.8123492 C46.1293941,11.4953176 46.5513316,11.3206403 46.9998477,11.3206403 C47.4485854,11.3206403 47.8707443,11.4953176 48.1876957,11.8123492 C48.8428615,12.4672231 48.8428615,13.5325555 48.1881387,14.187208 C47.8707443,14.504461 47.4488069,14.6791383 47.0000692,14.6791383 C46.5513316,14.6791383 46.1291726,14.504461 45.8122212,14.1874294 C45.1572769,13.5325555 45.1572769,12.4672231 45.8122212,11.8123492 Z" id="Shape" fill="#b1b1b1" fill-rule="nonzero"></path>
            <text id="WWW" transform="translate(30.357864, 29.479185) rotate(-45.000000) translate(-30.357864, -29.479185) " font-family="ArialRoundedMTBold, Arial Rounded MT Bold" font-size="10" font-weight="normal" fill="#b1b1b1">
                <tspan x="15.8578644" y="32.9791847">WWW</tspan>
            </text>
        </g>
    </g>
</svg>
