<?xml version="1.0" encoding="UTF-8"?>
<svg width="32px" height="32px" viewBox="0 0 32 32" version="1.1" xmlns="http://www.w3.org/2000/svg" xmlns:xlink="http://www.w3.org/1999/xlink">
    <!-- Generator: Sketch 55.1 (78136) - https://sketchapp.com -->
    <title>Group 14</title>
    <desc>Created with Sketch.</desc>
    <g id="View-Wallet-Info" stroke="none" stroke-width="1" fill="none" fill-rule="evenodd">
        <g id="view-wallet-info-2" transform="translate(-413.000000, -705.000000)">
            <g id="Group-23" transform="translate(311.000000, 288.000000)">
                <g id="Group-12" transform="translate(102.000000, 348.000000)">
                    <g id="Group-13" transform="translate(0.000000, 69.000000)">
                        <g id="Group-11" transform="translate(7.000000, 5.000000)">
                            <g id="Group-5">
                                <polygon id="Path-2" fill="#999" fill-rule="nonzero" points="11.4714286 0.667375306 16.4791353 5.98521787 12.5714286 5.98521787 11.4714286 4.87805629"></polygon>
                                <g id="file" fill="#999" stroke="#999" stroke-width="0.2">
                                    <path d="M11.6862044,0.165980374 C11.5867692,0.0622631255 11.4504387,0 11.3091446,0 L2.84953915,0 C1.28852179,0 0,1.270987 0,2.81675104 L0,18.6592756 C0,20.2052035 1.28852179,21.4761905 2.84953915,21.4761905 L14.3314132,21.4761905 C15.8924306,21.4761905 17.1809524,20.2052035 17.1809524,18.6592756 L17.1809524,6.07966649 C17.1809524,5.94481766 17.1180815,5.81521208 17.0290696,5.71657416 L11.6862044,0.165980374 Z M11.8380872,1.83119129 L15.4157702,5.55059378 L13.0900446,5.55059378 C12.3986306,5.55059378 11.8380872,5.00071208 11.8380872,4.31598154 L11.8380872,1.83119129 Z M14.3314132,20.4386902 L2.84953915,20.4386902 C1.87007729,20.4386902 1.04762712,19.6346766 1.04762712,18.6592756 L1.04762712,2.81675104 C1.04762712,1.84675708 1.8647829,1.03750029 2.84953915,1.03750029 L10.7904601,1.03750029 L10.7904601,4.31598154 C10.7904601,5.57648212 11.8172405,6.58809408 13.0900446,6.58809408 L16.1333253,6.58809408 L16.1333253,18.6592756 C16.1333253,19.6346766 15.3161695,20.4386902 14.3314132,20.4386902 Z" id="Shape" fill-rule="nonzero"></path>
                                    <path d="M13.2279759,17.1809524 L4.80685297,17.1809524 C4.52551326,17.1809524 4.2952381,17.3741431 4.2952381,17.6104762 C4.2952381,17.8466736 4.52551326,18.04 4.80685297,18.04 L13.233147,18.04 C13.5144867,18.04 13.7447619,17.8466736 13.7447619,17.6104762 C13.7447619,17.3741431 13.5144867,17.1809524 13.2279759,17.1809524 Z" id="Path"></path>
                                    <path d="M8.22195043,14.4221159 C8.31728884,14.535652 8.44762692,14.6038095 8.58794225,14.6038095 C8.72841599,14.6038095 8.85875407,14.535652 8.95393411,14.4221159 L11.8921629,10.850303 C12.0826814,10.6230515 12.0676363,10.2596642 11.8671406,10.0496315 C11.6664864,9.83385911 11.3456299,9.85071911 11.1601792,10.0779706 L9.08934002,12.5935213 L9.08934002,6.39262166 C9.08934002,6.08017325 8.86366354,5.8247619 8.58794225,5.8247619 C8.31222101,5.8247619 8.08654453,6.08017325 8.08654453,6.39262166 L8.08654453,12.5935213 L6.02077313,10.0779706 C5.83025464,9.8508985 5.51430754,9.83385911 5.31381181,10.0496315 C5.11331607,10.2654038 5.09827096,10.6232308 5.28878941,10.850303 L8.22195043,14.4221159 Z" id="Path"></path>
                                </g>
                            </g>
                        </g>
                    </g>
                </g>
            </g>
        </g>
    </g>
</svg>
