<svg id="Layer_1" width="100px" height="100px" data-name="Layer 1" xmlns="http://www.w3.org/2000/svg" viewBox="0 0 100 100"><defs><style>.cls-1{fill:#cccccc;}.cls-2{fill:#b1b1b1;}</style></defs><title>eth-alarm-clock-icon-02-v2</title><rect class="cls-1" x="38.33" y="24.36" width="25.13" height="6.93"/><path class="cls-2" d="M90.39,77.55h-79a5.24,5.24,0,0,1-5.23-5.24V34.52a5.23,5.23,0,0,1,5.23-5.23h79a5.24,5.24,0,0,1,5.23,5.23V72.31A5.24,5.24,0,0,1,90.39,77.55Zm-79-44.26a1.24,1.24,0,0,0-1.23,1.23V72.31a1.24,1.24,0,0,0,1.23,1.24h79a1.24,1.24,0,0,0,1.23-1.24V34.52a1.24,1.24,0,0,0-1.23-1.23Z"/><path class="cls-2" d="M84.6,69.59H37.9a5.23,5.23,0,0,1-5.23-5.23V42.48a5.23,5.23,0,0,1,5.23-5.23H84.6a5.23,5.23,0,0,1,5.23,5.23V64.36A5.23,5.23,0,0,1,84.6,69.59ZM37.9,41.25a1.23,1.23,0,0,0-1.23,1.23V64.36a1.23,1.23,0,0,0,1.23,1.23H84.6a1.23,1.23,0,0,0,1.23-1.23V42.48a1.23,1.23,0,0,0-1.23-1.23Z"/><path class="cls-2" d="M65.46,31.29h-4V26.36H40.33v4.93h-4V25.74a3.38,3.38,0,0,1,3.37-3.38H62.09a3.38,3.38,0,0,1,3.37,3.38Z"/><polygon class="cls-1" points="21.55 63.67 26.75 56.24 16.34 56.24 21.55 63.67 26.75 56.24 16.34 56.24 21.55 63.67"/><path class="cls-2" d="M21.63,65.67a3.58,3.58,0,0,1-2.87-1.41l-6.65-8.63a3.63,3.63,0,0,1,0-4.42l6.65-8.63a3.61,3.61,0,0,1,2.89-1.41,3.58,3.58,0,0,1,2.87,1.44L31,51.24a3.65,3.65,0,0,1,0,4.35l-6.5,8.64a3.58,3.58,0,0,1-2.87,1.44ZM15.46,53.42l6.16,8,6-8-6-8ZM21.93,45Z"/><path class="cls-2" d="M21.63,58.86a4,4,0,0,1-1.56-.31l-7.9-3.28,1.54-3.7,7.89,3.29,7.77-3.28,1.57,3.68-7.71,3.28A4.19,4.19,0,0,1,21.63,58.86Z"/><path class="cls-2" d="M41,52.4V47.75L41.67,46a1.44,1.44,0,0,1,1.11,1.11v6.2l-.45.44Zm1.33,1.77.45.44v6.2a1.44,1.44,0,0,1-1.11,1.11L41,60.14V55.5Z"/><path class="cls-2" d="M45,60.37V54.61l.44-.44,1.33,1.33v4.2Zm8.41,1.55H46.09A1.42,1.42,0,0,1,45,60.81l1.77-.67h6ZM52.07,47.75H46.78L45,47.09A1.44,1.44,0,0,1,46.12,46h6.61Zm.44,5.31.89.89-.89.88H46.76L45.87,54l.89-.89Zm0-.66V47.75L53.18,46a1.42,1.42,0,0,1,1.1,1.11v6.2l-.44.44Z"/><path class="cls-2" d="M58.26,51.29H56.49V49.52h1.77Zm0,7.09H56.49V56.6h1.77Z"/><path class="cls-2" d="M62.25,48.2v4.2l-1.33,1.33-.44-.44V47.53ZM60.48,60.37V54.61l.44-.44,1.33,1.33v4.2Zm7.74,1.55H61.58a1.42,1.42,0,0,1-1.1-1.11l1.77-.67h5.31Zm-.66-14.17H62.27l-1.77-.66A1.44,1.44,0,0,1,61.61,46h6.61ZM68,52.4V47.75L68.67,46a1.44,1.44,0,0,1,1.1,1.11v6.2l-.44.44Zm1.33,1.77.44.44v6.2a1.44,1.44,0,0,1-1.1,1.11L68,60.14V55.5Z"/><path class="cls-2" d="M73.75,48.2v4.2l-1.32,1.33L72,53.29V47.53ZM72,60.37V54.61l.45-.44,1.32,1.33v4.2Zm7.75,1.55H73.09A1.44,1.44,0,0,1,72,60.81l1.77-.67h5.31Zm-.67-14.17H73.78L72,47.09A1.41,1.41,0,0,1,73.11,46h6.62Zm.45,4.65V47.75L80.17,46a1.44,1.44,0,0,1,1.11,1.11v6.2l-.45.44Zm1.32,1.77.45.44v6.2a1.44,1.44,0,0,1-1.11,1.11l-.66-1.78V55.5Z"/></svg>