<?xml version="1.0" encoding="utf-8"?>
<!-- Generator: Adobe Illustrator 23.0.1, SVG Export Plug-In . SVG Version: 6.00 Build 0)  -->
<svg width="100px" height="100px" version="1.1" id="Layer_1" xmlns="http://www.w3.org/2000/svg" xmlns:xlink="http://www.w3.org/1999/xlink" x="0px" y="0px"
	 viewBox="0 0 292 280" style="enable-background:new 0 0 292 280;" xml:space="preserve">
<style type="text/css">
	.st0{fill:#52CACB;}
	.st1{fill:#263238;}
</style>
<g>
	<g>
		<path class="st0" d="M71.63,91.91h-27c-2.13-0.54-3.35-1.91-3.68-4.09l6.79-2.46h22.09L71.63,91.91z M41.11,86.18l2.21-21.27
			l1.8-1.64l4.42,4.91L47.9,83.73L41.11,86.18z M52.4,41.18l-1.64,15.55l-5.48,4.91L43.89,60l2.21-21.27L52.4,41.18z M74.66,39.54
			H52.65l-6.3-2.45c0.76-2.18,2.26-3.54,4.5-4.09h26.92L74.66,39.54z M71.79,59.18l2.86,3.27l-3.6,3.27H49.78l-2.95-3.27l3.68-3.27
			H71.79z"/>
		<path class="st0" d="M95.19,39.54l-6.3-2.45c0.76-2.18,2.26-3.54,4.5-4.09h26.1c2.13,0.55,3.35,1.91,3.68,4.09l-6.79,2.45H95.19z
			 M103.21,63.27l2.95,3.27l-2.21,21.27c-0.76,2.18-2.26,3.55-4.5,4.09l-1.8-6.55l1.96-18.82L103.21,63.27z M100.51,58.36l1.8-17.18
			h6.55l-1.8,17.18l-3.68,3.27L100.51,58.36z"/>
		<path class="st0" d="M134.63,68.18l-1.8,17.18l-3.11,6.55c-2.13-0.54-3.35-1.91-3.68-4.09l2.37-22.91l1.8-1.64L134.63,68.18z
			 M130.29,62.45l-1.39-1.64l2.37-22.91c0.76-2.18,2.26-3.54,4.5-4.09l1.8,6.54l-1.8,17.18L130.29,62.45z M156.88,59.18l2.86,3.27
			l-3.6,3.27h-21.27l-2.95-3.27l3.68-3.27H156.88z M161.3,63.27l1.47,1.64l-2.37,22.91c-0.76,2.18-2.26,3.55-4.5,4.09l-1.8-6.55
			l1.8-17.18L161.3,63.27z M157.13,56.73l1.8-17.18l3.11-6.54c2.13,0.55,3.35,1.91,3.68,4.09L163.35,60l-1.88,1.64L157.13,56.73z"/>
		<path class="st0" d="M189.94,78.82h-6.55l0.74-6.55h6.55L189.94,78.82z M192.72,52.64h-6.54l0.65-6.54h6.55L192.72,52.64z"/>
		<path class="st0" d="M49.54,148.18l-1.8,17.18l-3.11,6.55c-2.13-0.54-3.35-1.91-3.68-4.09l2.37-22.91l1.8-1.64L49.54,148.18z
			 M52.4,121.18l-1.64,15.55l-5.48,4.91L43.89,140l2.21-21.27L52.4,121.18z M72.2,119.54H52.65l-6.3-2.45
			c0.76-2.18,2.26-3.54,4.5-4.09h24.46L72.2,119.54z M71.79,139.18l2.86,3.27l-3.6,3.27H49.78l-2.95-3.27l3.68-3.27H71.79z
			 M76.21,143.27l1.47,1.64l-2.37,22.91c-0.76,2.18-2.26,3.55-4.5,4.09l-1.8-6.55l1.8-17.18L76.21,143.27z M72.04,136.73l1.8-17.18
			l3.11-6.54c2.13,0.55,3.35,1.91,3.68,4.09L78.26,140l-1.88,1.64L72.04,136.73z"/>
		<path class="st0" d="M92.08,148.18l-1.8,17.18l-3.11,6.55c-2.13-0.54-3.35-1.91-3.68-4.09l2.37-22.91l1.8-1.64L92.08,148.18z
			 M87.83,141.64L86.44,140l2.37-22.91c0.76-2.18,2.26-3.54,4.5-4.09l1.8,6.54l-1.8,17.18L87.83,141.64z M91.92,165.36h19.64
			l6.3,2.46c-0.76,2.18-2.26,3.55-4.5,4.09H88.81L91.92,165.36z"/>
		<path class="st0" d="M134.63,148.18l-1.8,17.18l-3.11,6.55c-2.13-0.54-3.35-1.91-3.68-4.09l2.37-22.91l1.8-1.64L134.63,148.18z
			 M137.49,121.18l-1.64,15.55l-5.48,4.91l-1.39-1.64l2.21-21.27L137.49,121.18z M157.29,119.54h-19.55l-6.3-2.45
			c0.76-2.18,2.26-3.54,4.5-4.09h24.46L157.29,119.54z M156.88,139.18l2.86,3.27l-3.6,3.27h-21.27l-2.95-3.27l3.68-3.27H156.88z
			 M161.3,143.27l1.47,1.64l-2.37,22.91c-0.76,2.18-2.26,3.55-4.5,4.09l-1.8-6.55l1.8-17.18L161.3,143.27z M157.13,136.73l1.8-17.18
			l3.11-6.54c2.13,0.55,3.35,1.91,3.68,4.09L163.35,140l-1.88,1.64L157.13,136.73z"/>
		<path class="st0" d="M177.17,148.18l-1.8,17.18l-3.11,6.55c-2.13-0.54-3.35-1.91-3.68-4.09l2.37-22.91l1.8-1.64L177.17,148.18z
			 M180.04,121.18l-1.64,15.55l-5.48,4.91l-1.39-1.64l2.21-21.27L180.04,121.18z M199.84,119.54h-19.55l-6.3-2.45
			c0.76-2.18,2.26-3.54,4.5-4.09h24.46L199.84,119.54z M199.43,139.18l2.86,3.27l-3.6,3.27h-21.27l-2.95-3.27l3.68-3.27H199.43z
			 M178.89,147.36h4.91l19.06,21.27c-1.31,2.18-3.6,3.27-6.87,3.27l-17.59-19.64L178.89,147.36z M199.67,136.73l1.8-17.18l3.11-6.54
			c2.13,0.55,3.35,1.91,3.68,4.09L205.89,140l-1.88,1.64L199.67,136.73z"/>
		<path class="st0" d="M219.72,148.18l-1.8,17.18l-3.11,6.55c-2.13-0.54-3.35-1.91-3.68-4.09l2.37-22.91l1.8-1.64L219.72,148.18z
			 M222.58,121.18l-1.64,15.55l-5.48,4.91l-1.39-1.64l2.21-21.27L222.58,121.18z M242.38,119.54h-19.55l-6.3-2.45
			c0.76-2.18,2.26-3.54,4.5-4.09h24.46L242.38,119.54z M234.53,140l-3.68,3.27l-2.86-3.27l1.96-18.82h6.55L234.53,140z
			 M246.39,143.27l1.47,1.64l-2.37,22.91c-0.76,2.18-2.26,3.55-4.5,4.09l-1.8-6.55l1.8-17.18L246.39,143.27z M242.22,136.73
			l1.8-17.18l3.11-6.54c2.13,0.55,3.35,1.91,3.68,4.09L248.44,140l-1.88,1.64L242.22,136.73z"/>
		<path class="st0" d="M71.63,251.91h-27c-2.13-0.54-3.35-1.91-3.68-4.09l6.79-2.46h22.09L71.63,251.91z M41.11,246.18l2.21-21.27
			l1.8-1.64l4.42,4.91l-1.64,15.55L41.11,246.18z M52.4,201.18l-1.64,15.55l-5.48,4.91L43.89,220l2.21-21.27L52.4,201.18z
			 M74.66,199.55H52.65l-6.3-2.46c0.76-2.18,2.26-3.54,4.5-4.09h26.92L74.66,199.55z"/>
		<path class="st0" d="M92.08,228.18l-1.8,17.18l-3.11,6.55c-2.13-0.54-3.35-1.91-3.68-4.09l2.37-22.91l1.8-1.64L92.08,228.18z
			 M87.83,221.64L86.44,220l2.37-22.91c0.76-2.18,2.26-3.54,4.5-4.09l1.8,6.55l-1.8,17.18L87.83,221.64z M91.92,245.36h19.64
			l6.3,2.46c-0.76,2.18-2.26,3.55-4.5,4.09H88.81L91.92,245.36z"/>
		<path class="st0" d="M134.63,228.18l-1.8,17.18l-2.7,2.46l-3.68-4.09l1.96-18.82l1.8-1.64L134.63,228.18z M130.37,221.64
			l-1.39-1.64l1.96-18.82l4.5-4.09l2.21,2.46l-1.8,17.18L130.37,221.64z M155.41,248.64l-3.6,3.27h-18l-2.95-3.27l3.6-3.27h18
			L155.41,248.64z M157.29,199.55h-18l-2.95-3.27l3.6-3.27h18l2.95,3.27L157.29,199.55z M161.3,223.27l1.47,1.64l-1.96,18.82
			l-4.5,4.09l-2.21-2.46l1.8-17.18L161.3,223.27z M157.13,216.73l1.8-17.18l2.7-2.46l3.68,4.09L163.35,220l-1.88,1.64L157.13,216.73
			z"/>
		<path class="st0" d="M199.26,251.91h-27c-2.13-0.54-3.35-1.91-3.68-4.09l6.79-2.46h22.09L199.26,251.91z M168.75,246.18
			l2.21-21.27l1.8-1.64l4.42,4.91l-1.64,15.55L168.75,246.18z M180.04,201.18l-1.64,15.55l-5.48,4.91l-1.39-1.64l2.21-21.27
			L180.04,201.18z M202.29,199.55h-22.01l-6.3-2.46c0.76-2.18,2.26-3.54,4.5-4.09h26.92L202.29,199.55z"/>
		<path class="st0" d="M219.72,228.18l-1.8,17.18l-3.11,6.55c-2.13-0.54-3.35-1.91-3.68-4.09l2.37-22.91l1.8-1.64L219.72,228.18z
			 M215.46,221.64l-1.39-1.64l2.37-22.91c0.76-2.18,2.26-3.54,4.5-4.09l1.8,6.55l-1.8,17.18L215.46,221.64z M241.97,219.18
			l2.86,3.27l-3.6,3.27h-21.27l-2.95-3.27l3.68-3.27H241.97z M222.99,212.64L244.67,193c3.27,0,5.34,1.09,6.22,3.27l-23.48,21.27
			h-4.91L222.99,212.64z M246.39,223.27l1.47,1.64l-2.37,22.91c-0.76,2.18-2.26,3.55-4.5,4.09l-1.8-6.55l1.8-17.18L246.39,223.27z"
			/>
	</g>
</g>
</svg>
