<?xml version="1.0" encoding="UTF-8"?>
<svg width="32px" height="32px" viewBox="0 0 32 32" version="1.1" xmlns="http://www.w3.org/2000/svg" xmlns:xlink="http://www.w3.org/1999/xlink">
    <!-- Generator: Sketch 55.2 (78181) - https://sketchapp.com -->
    <title>Artboard</title>
    <desc>Created with Sketch.</desc>
    <g id="Artboard" stroke="none" stroke-width="1" fill="none" fill-rule="evenodd">
        <g id="edit" transform="translate(1.000000, 1.000000)">
            <g>
                <circle id="Oval" fill="#CDF4EF" cx="15" cy="15" r="15"></circle>
                <path d="M16.1119416,9.9659026 L8.34331262,17.6986442 C8.15477394,17.8863119 8.04878049,18.1413673 8.04878049,18.4073861 L8.04878049,21.3512195 C8.04878049,21.6825904 8.31740964,21.9512195 8.64878049,21.9512195 L11.5947464,21.9512195 C11.8584452,21.9512195 12.1114705,21.8470617 12.2987488,21.6614171 L20.0699909,13.957965 C20.3052518,13.7246446 20.3069409,13.3447926 20.0737643,13.1093892 L16.9613967,9.96880264 C16.7281419,9.73343302 16.3482468,9.7317186 16.1128772,9.96497336 C16.112565,9.96528277 16.1122531,9.96559251 16.1119416,9.9659026 Z" id="Path-2" fill="#05C0A5"></path>
                <path d="M17.414083,9.57764028 L20.5375477,12.6348568 C20.7734816,12.8657866 21.1516527,12.8627259 21.3838179,12.6280076 L22.6309544,11.3671568 C22.8623723,11.1331941 22.8621568,10.7564913 22.6304715,10.5227935 L19.5171649,7.38244405 C19.2838658,7.14711843 18.9039703,7.14547563 18.6686447,7.37877477 C18.6632988,7.38407462 18.6580532,7.38947459 18.6529105,7.39497184 L17.3956158,8.73895565 C17.172844,8.97708725 17.1810453,9.34954527 17.414083,9.57764028 Z" id="Path-3" fill="#5977EF"></path>
            </g>
        </g>
    </g>
</svg>