<?xml version="1.0" encoding="UTF-8"?>
<svg width="22px" height="22px" viewBox="0 0 22 22" version="1.1" xmlns="http://www.w3.org/2000/svg" xmlns:xlink="http://www.w3.org/1999/xlink">
    <!-- Generator: Sketch 55.2 (78181) - https://sketchapp.com -->
    <title>Group 8</title>
    <desc>Created with Sketch.</desc>
    <g id="Finalization" stroke="none" stroke-width="1" fill="none" fill-rule="evenodd">
        <g id="detail" transform="translate(-888.000000, -275.000000)" fill="#CECECE" fill-rule="nonzero">
            <g id="pop-out" transform="translate(510.000000, 228.000000)">
                <g id="Group-6">
                    <g id="Group-3" transform="translate(0.000000, 32.000000)">
                        <g id="Eye" transform="translate(378.000000, 15.000000)">
                            <path d="M11,4 C4.33333333,4 1,11.5345833 1,11.5345833 C1,11.5345833 4.33333333,19 11,19 C17.6666667,19 21,11.5 21,11.5 C21,11.5 17.6666667,4 11,4 Z M11,17.3333333 C6.59458333,17.3333333 3.813125,13.19125 2.875625,11.5308333 C3.8125,9.85458333 6.59458333,5.66666667 11,5.66666667 C15.40625,5.66666667 18.1879167,9.83291667 19.1245833,11.5 C18.18625,13.17 15.4052083,17.3333333 11,17.3333333 Z M11,8.16666667 C9.15916667,8.16666667 7.66666667,9.65916667 7.66666667,11.5 C7.66666667,13.3410417 9.15916667,14.8333333 11,14.8333333 C12.8410417,14.8333333 14.3333333,13.3410417 14.3333333,11.5 C14.3333333,9.65916667 12.8410417,8.16666667 11,8.16666667 Z M11,13.1666667 C10.0810417,13.1666667 9.33333333,12.4189583 9.33333333,11.5 C9.33333333,10.5810417 10.0810417,9.83333333 11,9.83333333 C11.9189583,9.83333333 12.6666667,10.5810417 12.6666667,11.5 C12.6666667,12.4189583 11.9189583,13.1666667 11,13.1666667 Z" id="Shape"></path>
                        </g>
                    </g>
                </g>
            </g>
        </g>
    </g>
</svg>