<?xml version="1.0" encoding="UTF-8"?>
<svg width="32px" height="32px" viewBox="0 0 32 32" version="1.1" xmlns="http://www.w3.org/2000/svg" xmlns:xlink="http://www.w3.org/1999/xlink">
    <!-- Generator: Sketch 55.2 (78181) - https://sketchapp.com -->
    <title>Group 8</title>
    <desc>Created with Sketch.</desc>
    <g id="Finalization" stroke="none" stroke-width="1" fill="none" fill-rule="evenodd">
        <g id="my-wallet-02-copy-26" transform="translate(-21.000000, -180.000000)" fill-rule="nonzero" stroke="#9EA9B3" stroke-width="1.5">
            <g id="Group-3">
                <g id="Group-30" transform="translate(21.000000, 180.000000)">
                    <path d="M16.4431889,11.003087 C17.2100441,9.23545652 18.961879,8.00036957 20.9994796,8.00036957 C23.7442743,8.00036957 25.7210736,10.283913 25.9695986,13.0053913 C25.9695986,13.0053913 26.1037412,13.6809565 25.8084754,14.8971957 C25.4064274,16.553587 24.4613485,18.0251957 23.1871832,19.1483043 L16.4431889,25 L9.81281684,19.1479348 C8.53865147,18.0251957 7.59357265,16.5532174 7.19152464,14.8968261 C6.89625876,13.680587 7.03040143,13.0050217 7.03040143,13.0050217 C7.27892638,10.2835435 9.25572575,8 12.0005204,8 C14.038501,8 15.6763336,9.23545652 16.4431889,11.003087 Z" id="Path"></path>
                </g>
            </g>
        </g>
    </g>
</svg>