<?xml version="1.0" encoding="UTF-8"?>
<svg width="32px" height="32px" viewBox="0 0 32 32" version="1.1" xmlns="http://www.w3.org/2000/svg" xmlns:xlink="http://www.w3.org/1999/xlink">
    <!-- Generator: Sketch 55.2 (78181) - https://sketchapp.com -->
    <title>Group 8</title>
    <desc>Created with Sketch.</desc>
    <g id="Finalization" stroke="none" stroke-width="1" fill="none" fill-rule="evenodd">
        <g id="my-wallet-02-copy-28" transform="translate(-22.000000, -180.000000)" fill-rule="nonzero" stroke="#082D49" stroke-width="1.8">
            <g id="Group-3">
                <g id="Group-30" transform="translate(22.000000, 180.000000)">
                    <path d="M15.4431889,11.003087 C16.2100441,9.23545652 17.961879,8.00036957 19.9994796,8.00036957 C22.7442743,8.00036957 24.7210736,10.283913 24.9695986,13.0053913 C24.9695986,13.0053913 25.1037412,13.6809565 24.8084754,14.8971957 C24.4064274,16.553587 23.4613485,18.0251957 22.1871832,19.1483043 L15.4431889,25 L8.81281684,19.1479348 C7.53865147,18.0251957 6.59357265,16.5532174 6.19152464,14.8968261 C5.89625876,13.680587 6.03040143,13.0050217 6.03040143,13.0050217 C6.27892638,10.2835435 8.25572575,8 11.0005204,8 C13.038501,8 14.6763336,9.23545652 15.4431889,11.003087 Z" id="Path"></path>
                </g>
            </g>
        </g>
    </g>
</svg>