<?xml version="1.0" encoding="UTF-8"?>
<svg width="72px" height="72px" viewBox="0 0 72 72" version="1.1" xmlns="http://www.w3.org/2000/svg" xmlns:xlink="http://www.w3.org/1999/xlink">
    <!-- Generator: Sketch 51 (57462) - http://www.bohemiancoding.com/sketch -->
    <title>hardware icon</title>
    <desc>Created with Sketch.</desc>
    <defs></defs>
    <g id="Desktop" stroke="none" stroke-width="1" fill="none" fill-rule="evenodd">
        <g id="Optionals" transform="translate(-579.000000, -297.000000)">
            <rect fill="#FFFFFF" x="0" y="0" width="1440" height="1880"></rect>
            <g id="Group-9" transform="translate(300.000000, 261.000000)">
                <g id="metamask-copy-13" transform="translate(214.818523, 0.000000)">
                    <g id="hardware-icon-disable" transform="translate(65.000000, 37.000000)">
                        <g id="hardware-icon">
                            <polygon id="Path-3" fill="#FFFFFF" points="33.2354272 14.671664 54.8564233 36.276753 23.8104995 68.1690644 18.9038371 66.9216865 5.1150752 53.4848681 3.30962493 46.3459162 5.1150752 42.2074318"></polygon>
                            <polygon id="Path-4" fill="#FFFFFF" points="37.8405184 16.612987 53.6879178 33.5274844 66.8901072 18.9904283 49.8920978 2.88586486"></polygon>
                            <path d="M69.3863795,17.6791241 L51.9838802,0.587722343 C51.1871459,-0.194994976 49.910484,-0.195952011 49.1123824,0.585124679 L36.0602687,13.3574307 L34.5945072,11.8918011 C33.7830058,11.0805094 32.4787242,11.0986931 31.6862286,11.8997308 L3.00611676,40.8930842 C-0.993552523,44.8923937 -1.00695221,51.3697384 2.99545171,55.38313 L14.2718337,66.974319 C14.2783968,66.981155 14.2850966,66.9878542 14.2917965,66.9944168 C18.2993962,71.001656 24.7858009,71.0020662 28.7936741,66.9944168 L57.7977028,37.9928602 C58.5986758,37.1919592 58.5986758,35.8936739 57.7977028,35.0927729 L56.3475287,33.6427292 L69.3995057,20.592063 C70.2052643,19.786787 70.1993849,18.4772906 69.3863795,17.6791241 Z M25.8933259,64.0943295 C23.4864417,66.5009972 19.6016268,66.4938878 17.2011689,64.1033529 L5.92656447,52.5139413 C5.92000136,52.5071053 5.91330151,52.5004061 5.90660167,52.4937068 C3.51243344,50.0998907 3.48823196,46.2113237 5.91439536,43.7852418 L33.1522635,16.249725 L53.4471805,36.5428165 L25.8933259,64.0943295 Z M53.4471805,30.7426419 C51.3506767,28.6463267 39.1818484,16.4785929 38.9608903,16.2576547 L50.5442344,4.92267746 L65.0358572,19.1551444 L53.4471805,30.7426419 Z" id="Shape" stroke="#999999" fill="#999999" fill-rule="nonzero"></path>
                            <path d="M17.943223,34.4675834 L40.98069,34.4675834 C41.5329748,34.4675834 41.98069,34.9152987 41.98069,35.4675834 L41.98069,47.9333827 C41.98069,48.4856675 41.5329748,48.9333827 40.98069,48.9333827 L17.943223,48.9333827 C15.734084,48.9333827 13.943223,47.1425217 13.943223,44.9333827 L13.943223,38.4675834 C13.943223,36.2584444 15.734084,34.4675834 17.943223,34.4675834 Z" id="Rectangle" stroke="#999999" stroke-width="3.8" fill="#CECECE" transform="translate(27.961957, 41.700483) rotate(-45.000000) translate(-27.961957, -41.700483) "></path>
                            <g id="Group" transform="translate(22.826087, 36.521739)" stroke="#999999" stroke-linecap="round" stroke-width="3.8">
                                <path d="M0,10.1639325 L1.03818936,9.05134413" id="Line"></path>
                                <path d="M5.32608696,4.83784552 L9.4788444,0.387492129" id="Line"></path>
                            </g>
                            <path d="M52.6081258,12.0658096 C51.7380979,11.1954548 50.3271254,11.1954548 49.4566517,12.0658096 L46.3050291,15.2173913 C45.4345555,16.0877461 45.4345555,17.4987668 46.3050291,18.368973 C47.1752056,19.2393278 48.5861781,19.2393278 49.4565032,18.368973 L52.6081258,15.2173913 C53.4784508,14.3470365 53.4784508,12.9360158 52.6081258,12.0658096 Z" id="Shape" fill="#999999" fill-rule="nonzero"></path>
                            <path d="M57.9342,17.3918965 C57.0640065,16.5215417 55.6530065,16.5215417 54.7826644,17.3918965 L51.6311288,20.5434783 C50.7606382,21.4138331 50.7606382,22.8247052 51.6311288,23.69506 C52.5013223,24.5654148 53.9123224,24.5654148 54.7826644,23.69506 L57.9342,20.5434783 C58.804542,19.673272 58.804542,18.2622513 57.9342,17.3918965 Z" id="Shape" fill="#999999" fill-rule="nonzero"></path>
                        </g>
                    </g>
                </g>
            </g>
        </g>
    </g>
</svg>