<?xml version="1.0" encoding="UTF-8"?>
<svg width="25px" height="25px" viewBox="0 0 25 25" version="1.1" xmlns="http://www.w3.org/2000/svg" xmlns:xlink="http://www.w3.org/1999/xlink">
    <!-- Generator: Sketch 55.2 (78181) - https://sketchapp.com -->
    <title>icon2</title>
    <desc>Created with Sketch.</desc>
    <g id="Landing-page" stroke="none" stroke-width="1" fill="none" fill-rule="evenodd">
        <g id="Group-49" transform="translate(2.000000, 3.000000)" fill="#8698A3" fill-rule="nonzero" stroke="#8698A3" stroke-width="0.4">
            <g id="paper-plane">
                <path d="M16.9621903,16.6160081 C16.8943417,16.6160081 16.8264931,16.6043765 16.7619541,16.5827749 L0.420367434,10.9746637 C0.185379554,10.8932422 0.0215499762,10.6805494 0.00169184547,10.4321308 C-0.016511441,10.1837123 0.113393831,9.9477562 0.33266069,9.83227065 L18.9496582,0.0700030283 C19.1573412,-0.0371742077 19.4080501,-0.020557582 19.5967023,0.114867918 C19.7870094,0.251124249 19.8854726,0.482095347 19.8515483,0.714728107 L17.5761375,16.0851069 C17.5488326,16.2678898 17.4420951,16.4290711 17.2840575,16.5254475 C17.1864217,16.5852673 17.0747197,16.6160081 16.9621903,16.6160081 L16.9621903,16.6160081 Z M2.18939591,10.2643029 L16.4574628,15.1612225 L18.4441033,1.74163558 L2.18939591,10.2643029 Z" id="Shape"></path>
                <path d="M7.91268801,19.047619 C7.84843107,19.047619 7.78335033,19.0376815 7.720741,19.0169781 C7.46618466,18.9325086 7.29483283,18.6948345 7.29483283,18.4265195 L7.29483283,12.8366232 C7.29483283,12.6801061 7.35414692,12.5277297 7.46041802,12.4126192 L18.7877631,0.197660807 C19.0200766,-0.0540915572 19.4130325,-0.0665135488 19.6618222,0.167019894 C19.9114357,0.400553337 19.9246166,0.793916405 19.6923031,1.04566877 L8.5305432,13.0809224 L8.5305432,16.5325798 L10.5925319,13.7111314 C10.7943646,13.4361914 11.1815538,13.3749095 11.4567054,13.5786302 C11.7318569,13.7815227 11.7903472,14.1707451 11.5885145,14.4473415 L8.4110912,18.7950386 C8.29163919,18.9565244 8.10545883,19.047619 7.91268801,19.047619 Z" id="Path"></path>
            </g>
        </g>
    </g>
</svg>