<svg width="48" height="49" viewBox="0 0 48 49" fill="none" xmlns="http://www.w3.org/2000/svg">
<rect y="0.600098" width="48" height="48" rx="24" fill="#F2FAFA"/>
<path d="M22.25 25.6001C22.25 26.2901 21.69 26.8501 21 26.8501C20.31 26.8501 19.75 26.2901 19.75 25.6001C19.75 24.9101 20.31 24.3501 21 24.3501C21.69 24.3501 22.25 24.9101 22.25 25.6001ZM27 24.3501C26.31 24.3501 25.75 24.9101 25.75 25.6001C25.75 26.2901 26.31 26.8501 27 26.8501C27.69 26.8501 28.25 26.2901 28.25 25.6001C28.25 24.9101 27.69 24.3501 27 24.3501ZM34 24.6001C34 30.1201 29.52 34.6001 24 34.6001C18.48 34.6001 14 30.1201 14 24.6001C14 19.0801 18.48 14.6001 24 14.6001C29.52 14.6001 34 19.0801 34 24.6001ZM22.66 16.7201C24.06 19.0401 26.6 20.6001 29.5 20.6001C29.96 20.6001 30.41 20.5501 30.84 20.4801C29.44 18.1601 26.9 16.6001 24 16.6001C23.54 16.6001 23.09 16.6501 22.66 16.7201ZM16.42 22.0701C18.13 21.1001 19.45 19.5201 20.08 17.6301C18.37 18.6001 17.05 20.1801 16.42 22.0701ZM32 24.6001C32 23.8201 31.88 23.0701 31.67 22.3601C30.97 22.5101 30.25 22.6001 29.5 22.6001C26.37 22.6001 23.58 21.1601 21.74 18.9101C20.69 21.4701 18.6 23.4801 16 24.4601C16.01 24.5001 16 24.5501 16 24.6001C16 29.0101 19.59 32.6001 24 32.6001C28.41 32.6001 32 29.0101 32 24.6001Z" fill="#05C0A5"/>
</svg>
