<?xml version="1.0" encoding="utf-8"?>
<!-- Generator: Adobe Illustrator 24.1.2, SVG Export Plug-In . SVG Version: 6.00 Build 0)  -->
<svg version="1.1" id="Layer_1" xmlns="http://www.w3.org/2000/svg" xmlns:xlink="http://www.w3.org/1999/xlink" x="0px" y="0px"
	 viewBox="0 0 108 108" style="enable-background:new 0 0 108 108;" xml:space="preserve">
<style type="text/css">
	.st0{fill:#1896A4;}
	.st1{fill:#FFFFFF;}
</style>
<g>
	<g>
		<circle class="st0" cx="657.53" cy="54" r="54"/>
		<g>
			<g>
				<path class="st1" d="M664.27,70.88c-2.06,0.82-4.29,1.29-6.64,1.29c-9.88,0-17.89-8.01-17.89-17.89c0-0.73,0.06-1.45,0.14-2.16
					l-18.02-2.93c-0.21,1.57-0.33,3.18-0.33,4.81c0,19.88,16.12,36,36,36c6.97,0,13.47-1.99,18.98-5.42L664.27,70.88z"/>
			</g>
			<path class="st1" d="M674.46,48.18l-23.94,5.28l42.05,8.74c0.61-2.63,0.95-5.38,0.95-8.2c0-19.88-16.12-36-36-36
				c-7.98,0-15.34,2.6-21.31,6.99l12.44,13.82c2.64-1.54,5.7-2.43,8.98-2.43C665.38,36.38,671.97,41.3,674.46,48.18"/>
		</g>
	</g>
	<polygon class="st1" points="733.76,16.99 733.76,91.01 751.69,91.01 751.69,49.58 767.11,78.88 776.45,78.88 792.62,49.58 
		792.62,91.01 810.31,91.01 810.31,16.99 792.62,16.99 772.03,54.36 752.45,16.99 	"/>
	<polygon class="st1" points="822.27,16.99 875.23,16.99 875.23,32.15 839.61,32.15 839.61,45.6 870.31,45.6 870.31,60.09 
		839.71,60.09 839.71,74.87 876.08,74.87 876.08,91.01 822.27,91.01 	"/>
	<polygon class="st1" points="881.8,16.99 899.47,16.99 923.85,67.64 930.17,54 912.74,16.99 929.41,16.99 937.24,32.91 
		943.31,16.99 962.51,16.99 947.35,54.36 953.92,67.64 973.24,16.99 992.86,16.99 962,91.01 947.47,91.01 939.26,73.07 
		932.19,91.01 917.17,91.01 	"/>
</g>
<g>
	<circle class="st0" cx="54" cy="54" r="54"/>
	<g>
		<g>
			<path class="st1" d="M60.75,70.88c-2.06,0.82-4.29,1.29-6.64,1.29c-9.88,0-17.89-8.01-17.89-17.89c0-0.73,0.06-1.45,0.14-2.16
				l-18.02-2.93C18.12,50.76,18,52.37,18,54c0,19.88,16.12,36,36,36c6.97,0,13.47-1.99,18.98-5.42L60.75,70.88z"/>
		</g>
		<path class="st1" d="M70.94,48.18L47,53.46l42.05,8.74C89.66,59.56,90,56.82,90,54c0-19.88-16.12-36-36-36
			c-7.98,0-15.34,2.6-21.31,6.99l12.44,13.82c2.64-1.54,5.7-2.43,8.98-2.43C61.85,36.38,68.45,41.3,70.94,48.18"/>
	</g>
</g>
</svg>
