<?xml version="1.0" encoding="utf-8"?>
<!-- Generator: Adobe Illustrator 23.0.1, SVG Export Plug-In . SVG Version: 6.00 Build 0)  -->
<svg version="1.1" id="Layer_1" xmlns="http://www.w3.org/2000/svg" xmlns:xlink="http://www.w3.org/1999/xlink" x="0px" y="0px"
	 viewBox="0 0 43 43" style="enable-background:new 0 0 43 43;" xml:space="preserve">
<style type="text/css">
	.st0{fill:#7E44F2;}
	.st1{fill:#FFFFFF;}
</style>
<path class="st0" d="M34.3,43H8.7C3.9,43,0,39.1,0,34.3V8.7C0,3.9,3.9,0,8.7,0h25.6C39.1,0,43,3.9,43,8.7v25.6
	C43,39.1,39.1,43,34.3,43z"/>
<g>
	<path class="st1" d="M14.5,8.6c-0.6,0.1-1.5,0.4-2,0.6c-1.3,0.7-2.4,2-3,3.3c-0.4,1.1-0.4,0.6-0.4,8.7c0,8,0,8,0.3,8.9
		c0.6,1.6,1.7,2.9,3.2,3.7c0.9,0.4,1.5,0.6,2.4,0.7c0.9,0.1,16.5,0.1,16.9,0c0.8-0.1,1.4-0.6,1.8-1.3l0.2-0.4v-1.4
		c0-1.2,0-1.5-0.1-1.8c-0.4-1.3-1.2-2.1-2.5-2.4c-0.2-0.1-1-0.1-5.3-0.1h-5l-0.6-0.2c-2.1-0.7-3.6-2.3-4-4.3
		c-0.1-0.7-0.1-1.9,0.1-2.5c0.1-0.6,0.5-1.3,0.8-1.7c0.6-0.8,1.7-1.7,2.6-2c1-0.4,1-0.4,5.9-0.4c2.5,0,4.8,0,5-0.1
		c1.4-0.2,2.5-1,3-2.4c0.1-0.3,0.1-0.6,0.2-1.7c0-0.8,0-1.4-0.1-1.6c-0.2-0.9-0.9-1.6-1.8-1.8c-0.2-0.1-2.7-0.1-8.7-0.1
		C16.5,8.4,14.9,8.5,14.5,8.6z"/>
	<path class="st1" d="M21,17.9c-1.2,0.3-2.1,1.2-2.5,2.3c-0.2,0.7-0.2,1.9,0,2.6c0.4,1,1.2,1.8,2.3,2.3l0.4,0.2H26
		c4.7,0,4.8,0,5.1-0.1c1.2-0.4,2.2-1.4,2.5-2.7c0.1-0.7,0.1-1.7-0.1-2.3c-0.4-1.1-1.4-2-2.6-2.3C30.5,17.7,21.5,17.7,21,17.9z"/>
</g>
</svg>
