<?xml version="1.0" encoding="UTF-8"?>
<svg width="127px" height="67px" viewBox="0 0 127 67" version="1.1" xmlns="http://www.w3.org/2000/svg" xmlns:xlink="http://www.w3.org/1999/xlink">
    <!-- Generator: Sketch 50.2 (55047) - http://www.bohemiancoding.com/sketch -->
    <title>kyber-logo</title>
    <desc>Created with Sketch.</desc>
    <defs></defs>
    <g id="Symbols" stroke="none" stroke-width="1" fill="none" fill-rule="evenodd">
        <g id="Top-Menu-Login" fill-rule="nonzero">
            <g id="kyber-logo">
                <g id="Group" transform="translate(56.000000, 16.000000)" fill="#141927">
                    <path d="M11.7722581,15.4543933 C11.4516129,15.6351464 11.0546237,15.725523 10.5965591,15.725523 C10.443871,15.725523 10.0926882,15.7104603 9.51247312,15.6502092 L9.51247312,17.2920502 C10.0163441,17.4276151 10.5202151,17.4728033 11.0393548,17.4728033 C11.8333333,17.4728033 12.4898925,17.2619247 13.0243011,16.8552301 C13.5587097,16.4485356 14.032043,15.8158996 14.4290323,14.9422594 L18.9180645,4.82008368 L16.7956989,4.85020921 L14.0778495,11.4778243 L11.4363441,4.85020921 L9.31397849,4.85020921 L12.9937634,13.5263598 L12.612043,14.3849372 C12.3677419,14.9121339 12.0776344,15.2736402 11.7722581,15.4543933 Z" id="Shape"></path>
                    <path d="M22.2619355,12.6979079 C22.5978495,13.1648536 23.055914,13.5263598 23.6055914,13.7824268 C24.1705376,14.0384937 24.7812903,14.1740586 25.4683871,14.1740586 C26.7662366,14.1740586 27.8350538,13.7372385 28.6748387,12.81841 C29.5146237,11.9146444 29.9574194,10.7849372 29.9574194,9.4292887 C29.9574194,8.07364017 29.5298925,6.94393305 28.6595699,6.04016736 C27.7892473,5.13640167 26.7051613,4.68451883 25.4073118,4.68451883 L25.4836559,4.66945607 C24.1552688,4.66945607 23.1169892,5.10627615 22.384086,5.97991632 L22.384086,0.0753138075 L20.4144086,0.0753138075 L20.4144086,13.9481172 L22.2466667,13.9481172 L22.2466667,12.6979079 L22.2619355,12.6979079 Z M23.1017204,7.24518828 C23.6513978,6.73305439 24.307957,6.46192469 25.0713978,6.46192469 C25.8806452,6.46192469 26.5524731,6.73305439 27.1021505,7.29037657 C27.651828,7.84769874 27.9113978,8.55564854 27.9113978,9.41422594 C27.9113978,10.2878661 27.651828,11.0108787 27.1021505,11.5682008 C26.5524731,12.125523 25.9264516,12.4267782 25.1172043,12.4267782 L25.0866667,12.4267782 C24.3232258,12.4267782 23.6666667,12.1857741 23.1169892,11.6887029 C22.5673118,11.1916318 22.2924731,10.4535565 22.2924731,9.47447699 C22.2924731,8.49539749 22.552043,7.75732218 23.1017204,7.24518828 Z" id="Shape"></path>
                    <path d="M4.71806452,26.4803347 L4.7027957,26.4803347 C3.55763441,26.4803347 2.64150538,26.8569038 1.93913978,27.5949791 L1.93913978,26.6912134 L0.10688172,26.6912134 L0.10688172,35.8192469 L2.07655914,35.8192469 L2.07655914,30.3665272 C2.07655914,29.748954 2.25978495,29.2518828 2.65677419,28.860251 C3.05376344,28.4686192 3.55763441,28.2728033 4.18365591,28.2728033 C4.77913978,28.2728033 5.26774194,28.483682 5.64946237,28.860251 C6.0311828,29.2518828 6.2144086,29.7640167 6.2144086,30.3966527 L6.2144086,35.8192469 L8.18408602,35.8192469 L8.18408602,30.125523 C8.18408602,29.0410042 7.87870968,28.167364 7.26795699,27.5046025 C6.6572043,26.841841 5.78688172,26.4803347 4.71806452,26.4803347 Z" id="Shape"></path>
                    <path d="M14.7344086,26.465272 C13.4060215,26.465272 12.276129,26.9322176 11.36,27.851046 C10.443871,28.7698745 9.97053763,29.8995816 9.97053763,31.2401674 C9.97053763,32.5958159 10.443871,33.725523 11.3752688,34.6292887 C12.3066667,35.5330544 13.4976344,36 14.9176344,36 C16.3223656,36 17.543871,35.5179916 18.5974194,34.5389121 L17.6660215,33.2133891 C16.8415054,33.9364017 15.9406452,34.2828452 14.9787097,34.2828452 C14.1694624,34.2828452 13.4976344,34.0719665 12.947957,33.6502092 C12.3982796,33.2284519 12.0623656,32.6259414 11.9402151,31.8728033 L18.8111828,31.8728033 C18.9791398,31.4209205 18.9944086,30.6527197 18.9944086,30.6527197 C18.9944086,29.4476987 18.5821505,28.4535565 17.7729032,27.6552301 C16.9789247,26.8569038 15.955914,26.465272 14.7344086,26.465272 Z M11.9860215,30.3665272 C12.1387097,29.6887029 12.4593548,29.1464435 12.947957,28.739749 C13.4365591,28.3330544 13.9862366,28.1372385 14.6427957,28.1221757 C15.2993548,28.1221757 15.8490323,28.3330544 16.3070968,28.739749 C16.7498925,29.1464435 16.9789247,29.6887029 16.9941935,30.3665272 L11.9860215,30.3665272 Z" id="Shape"></path>
                    <path d="M36.7062366,14.1891213 C38.1109677,14.1891213 39.3324731,13.707113 40.3860215,12.7280335 L39.4546237,11.4025105 C38.6301075,12.125523 37.7292473,12.4719665 36.7673118,12.4719665 C35.9580645,12.4719665 35.2862366,12.2610879 34.7365591,11.8393305 C34.1868817,11.4175732 33.8509677,10.8150628 33.7288172,10.0619247 L40.5997849,10.0619247 C40.7830108,9.57991632 40.7830108,8.841841 40.7830108,8.841841 C40.7830108,7.63682008 40.3707527,6.64267782 39.5615054,5.84435146 C38.7522581,5.0460251 37.7445161,4.65439331 36.5230108,4.65439331 C35.1946237,4.65439331 34.0647312,5.12133891 33.1486022,6.04016736 C32.2324731,6.95899582 31.7591398,8.08870293 31.7591398,9.4292887 C31.7591398,10.7849372 32.2324731,11.9146444 33.163871,12.81841 C34.0952688,13.7372385 35.2862366,14.1891213 36.7062366,14.1891213 Z M34.7212903,6.94393305 C35.2098925,6.53723849 35.7595699,6.34142259 36.416129,6.32635983 C37.0726882,6.32635983 37.6223656,6.53723849 38.0804301,6.94393305 C38.5232258,7.35062762 38.7522581,7.89288703 38.7675269,8.5707113 L33.7593548,8.5707113 C33.912043,7.87782427 34.2326882,7.35062762 34.7212903,6.94393305 Z" id="Shape"></path>
                    <path d="M25.5752688,34.2225941 C24.9797849,34.2225941 24.5217204,34.1171548 24.2316129,33.8761506 C23.9262366,33.6351464 23.7888172,33.2284519 23.7888172,32.6560669 L23.7888172,28.3782427 L26.5219355,28.3782427 L26.5219355,26.6912134 L23.7888172,26.6912134 L23.7888172,24.3112971 L21.803871,24.3112971 L21.803871,26.6912134 L20.3075269,26.6912134 L20.3075269,28.3782427 L21.803871,28.3782427 L21.803871,32.8217573 C21.803871,33.8761506 22.1092473,34.674477 22.7047312,35.1866109 C23.3002151,35.6987448 24.1247312,35.9698745 25.1935484,35.9698745 C25.6668817,35.9698745 26.2012903,35.8945607 26.8273118,35.7589958 L26.8273118,34.1171548 C26.2776344,34.1774059 25.895914,34.2225941 25.6058065,34.2225941 L25.5752688,34.2225941 Z" id="Shape"></path>
                    <polygon id="Shape" points="38.8744086 32.5506276 36.0344086 26.4803347 35.3625806 26.4803347 32.5683871 32.6259414 30.1406452 26.6912134 28.0488172 26.6912134 32.1408602 35.9698745 32.8126882 35.9698745 35.6984946 29.9297071 38.5843011 35.9698745 39.2713978 35.9698745 43.348172 26.6912134 41.2563441 26.6912134"></polygon>
                    <path d="M48.7686022,26.4803347 C47.3944086,26.4803347 46.2492473,26.9472803 45.3178495,27.851046 C44.3864516,28.7548117 43.9131183,29.8845188 43.9131183,31.2251046 C43.9131183,32.5656904 44.3864516,33.6803347 45.3178495,34.5991632 C46.2492473,35.5029289 47.3944086,35.9698745 48.7686022,35.9849372 C50.1122581,35.9849372 51.2574194,35.5179916 52.2193548,34.5991632 C53.1812903,33.6803347 53.6393548,32.5506276 53.6393548,31.2100418 C53.6393548,29.8845188 53.1507527,28.7548117 52.1888172,27.8359833 C51.2574194,26.9322176 50.1122581,26.4953975 48.7686022,26.4803347 Z M50.7688172,33.3188285 C50.2191398,33.8761506 49.5473118,34.1472803 48.7380645,34.1472803 C47.9135484,34.1472803 47.2417204,33.8761506 46.692043,33.3188285 C46.1423656,32.7615063 45.8827957,32.0535565 45.8827957,31.2251046 C45.8827957,30.3665272 46.1423656,29.6736402 46.692043,29.116318 C47.2417204,28.5589958 47.9135484,28.2878661 48.7380645,28.2577406 L48.7533333,28.2577406 C49.5625806,28.2728033 50.2344086,28.5589958 50.784086,29.1012552 C51.3337634,29.6585774 51.5933333,30.3665272 51.5933333,31.2100418 C51.5933333,32.0535565 51.3032258,32.7615063 50.7688172,33.3188285 Z" id="Shape"></path>
                    <path d="M59.9606452,26.6008368 C59.9606452,26.6008368 59.9965037,26.6008368 59.9965037,26.6008368 C59.9965037,26.6008368 60.0323623,26.6008368 60.0323623,26.6008368 L59.9606452,26.6008368 Z" id="Shape"></path>
                    <path d="M57.2886022,27.8661088 L57.2886022,26.6761506 L55.4563441,26.6761506 L55.4563441,35.8041841 L57.4260215,35.8041841 L57.4260215,30.9238494 C57.4260215,30.125523 57.6855914,29.5230126 58.1894624,29.0711297 C58.6933333,28.6343096 59.3346237,28.4083682 60.0980645,28.4083682 L60.6935484,28.4083682 L60.6935484,26.6912134 C60.4797849,26.6309623 60.2354839,26.6008368 59.9606452,26.6008368 C58.8460215,26.6008368 57.9451613,27.0225941 57.2886022,27.8661088 Z" id="Shape"></path>
                    <path d="M44.5696774,9.12803347 C44.5696774,8.32970711 44.8292473,7.72719665 45.3331183,7.27531381 C45.8369892,6.83849372 46.4782796,6.6125523 47.2417204,6.6125523 L47.8372043,6.6125523 L47.8372043,4.89539749 C47.6234409,4.83514644 47.3791398,4.80502092 47.1043011,4.80502092 C45.9744086,4.80502092 45.0735484,5.241841 44.4169892,6.08535565 L44.4169892,4.89539749 L42.5847312,4.89539749 L42.5847312,14.0083682 L44.5544086,14.0083682 L44.5544086,9.12803347 L44.5696774,9.12803347 Z" id="Shape"></path>
                    <path d="M47.1043011,4.78995816 C47.1043011,4.78995816 47.1401597,4.78995816 47.1401597,4.78995816 C47.1401597,4.78995816 47.1760182,4.78995816 47.1760182,4.78995816 L47.1043011,4.78995816 Z" id="Shape"></path>
                    <rect id="Rectangle-path" x="62.5258065" y="21.8861925" width="1.96967742" height="13.9179916"></rect>
                    <polygon id="Shape" points="66.8774194 30.6828452 70.5877419 26.6912134 68.16 26.6912134 64.5565591 30.6677824 68.5722581 35.8041841 70.9389247 35.8041841"></polygon>
                    <polygon id="Shape" points="8.1688172 4.88033473 5.72580645 4.88033473 2.13763441 8.87196653 6.15333333 14.0083682 8.52 14.0083682 4.45849462 8.88702929"></polygon>
                    <rect id="Rectangle-path" x="0.10688172" y="0.090376569" width="1.96967742" height="13.9179916"></rect>
                </g>
                <path d="M20,33.5085572 L45.0291971,47.8260572 C45.9084784,48.3249775 47,47.689988 47,46.6921475 L47,20.3098482 C47,19.2968889 45.9084784,18.6770182 45.0291971,19.1759385 L20,33.5085572 Z" id="Shape" fill="#31CB9E"></path>
                <path d="M44.4732586,12.8350914 L27.3769029,0.269049366 C26.5828099,-0.315766435 25.4461669,0.104101319 25.243751,1.03380849 L19,29 L44.3175541,14.9944113 C45.1583585,14.5295577 45.2362107,13.404912 44.4732586,12.8350914" id="Shape" fill="#31CB9E"></path>
                <path d="M27.36083,66.7375403 L44.4717278,54.1686161 C45.2346341,53.5986649 45.1567865,52.4737612 44.3316022,52.008801 L19,38 L25.2433758,65.9726058 C25.43021,66.9025262 26.5823542,67.3074915 27.36083,66.7375403" id="Shape" fill="#31CB9E"></path>
                <path d="M13.4971379,33.0075661 L19.9685736,2.59192327 C20.2232366,1.39648259 18.8750208,0.533949433 17.9162896,1.2754253 L1.34821577,14.0469688 C0.494345784,14.6976518 0,15.7266387 0,16.8010221 L0,49.1989779 C0,50.2733613 0.494345784,51.3023482 1.34821577,51.9530312 L17.9162896,64.7245747 C18.8750208,65.4660506 20.2232366,64.6035174 19.9685736,63.4080767 L13.4971379,33.0075661 Z" id="Shape" fill="#31CB9E"></path>
            </g>
        </g>
    </g>
</svg>