<?xml version="1.0" encoding="UTF-8"?>
<svg width="32px" height="32px" viewBox="0 0 32 32" version="1.1" xmlns="http://www.w3.org/2000/svg" xmlns:xlink="http://www.w3.org/1999/xlink">
    <!-- Generator: Sketch 55.2 (78181) - https://sketchapp.com -->
    <title>img6</title>
    <desc>Created with Sketch.</desc>
    <g id="Landing-page" stroke="none" stroke-width="1" fill="none" fill-rule="evenodd">
        <g id="landing-page(Desktop)-2" transform="translate(-1126.000000, -2108.000000)">
            <g id="img6" transform="translate(1126.000000, 2108.000000)">
                <g id="Group-47" transform="translate(1.000000, 1.000000)">
                    <g id="Google-Play" transform="translate(9.600000, 6.000000)" fill="#0B1A40" fill-rule="nonzero">
                        <path d="M0.766513847,0 L8.57810155,8.04747659 L10.7200118,5.82487585 L1.25131131,0.151966302 C1.10431034,0.0604870438 0.937737635,0.00827258201 0.766513847,0 Z M0.112542268,0.374301237 C0.0376361275,0.513734827 -0.00114029849,0.67094371 -2.4442172e-05,0.830574444 L-2.4442172e-05,16.4692544 C-2.4442172e-05,16.5950196 0.0252498679,16.7076843 0.0678139309,16.8083713 L8.05975783,8.57374413 L0.112542268,0.374301237 Z M11.3739833,6.21115472 L9.08562389,8.57374413 L11.3736226,10.9251045 L14.1691437,9.26395561 C14.5666488,9.02552572 14.6229199,8.72309032 14.6200342,8.56214079 C14.6160664,8.29638691 14.4541065,8.04747659 14.1806865,7.89551029 C13.9426163,7.76225905 12.1740434,6.69362902 11.3736226,6.21115472 L11.3739833,6.21115472 Z M8.57846226,9.10001167 L0.698339203,17.2066279 C0.840707495,17.2019389 0.979895821,17.1617547 1.10414065,17.0894716 L7.65359567,13.1593086 L10.7308331,11.3229867 L8.57846226,9.10001167 Z" id="surface1"></path>
                    </g>
                    <circle id="Oval" stroke="#0B1A40" cx="15" cy="15" r="15"></circle>
                </g>
            </g>
        </g>
    </g>
</svg>