<svg width="24" height="24" viewBox="0 0 24 24" fill="none" xmlns="http://www.w3.org/2000/svg">
<g opacity="0.7">
<path fill-rule="evenodd" clip-rule="evenodd" d="M19.0588 18.732C18.9907 18.732 18.9226 18.7203 18.8578 18.6986L9.89928 15.614L9.439 16.1035V19.5145L11.505 16.7263C11.7072 16.4546 12.0952 16.394 12.3709 16.5953C12.6466 16.7958 12.7052 17.1805 12.5029 17.4538L9.31932 21.7504C9.19963 21.91 9.01309 22 8.81994 22C8.75556 22 8.69035 21.9902 8.62762 21.9697C8.37257 21.8862 8.20088 21.6514 8.20088 21.3862V15.8621C8.20088 15.7074 8.26031 15.5568 8.36679 15.443L8.62016 15.1736L2.45645 13.0513C2.2206 12.9693 2.05617 12.7551 2.03624 12.505C2.01797 12.2548 2.14835 12.0172 2.36842 11.9009L21.0535 2.07049C21.262 1.96257 21.5136 1.9793 21.7029 2.11567C21.8939 2.25288 21.9928 2.48546 21.9587 2.71972L19.675 18.1974C19.6476 18.3815 19.5404 18.5438 19.3818 18.6408C19.2838 18.7011 19.1717 18.732 19.0588 18.732ZM10.8415 14.612L20.4518 4.3914L18.552 17.2671L10.8415 14.612ZM9.56229 14.1715L4.23175 12.336L18.1937 4.99121L9.56229 14.1715Z" fill="white"/>
<path d="M18.8578 18.6986L18.7927 18.8877L18.7941 18.8882L18.8578 18.6986ZM9.89928 15.614L9.96439 15.4249L9.84214 15.3828L9.75358 15.477L9.89928 15.614ZM9.439 16.1035L9.2933 15.9665L9.239 16.0242V16.1035H9.439ZM9.439 19.5145H9.239V20.1204L9.5997 19.6336L9.439 19.5145ZM11.505 16.7263L11.3446 16.6069L11.3443 16.6072L11.505 16.7263ZM12.3709 16.5953L12.2529 16.7569L12.2532 16.7571L12.3709 16.5953ZM12.5029 17.4538L12.6636 17.5729L12.6637 17.5728L12.5029 17.4538ZM9.31932 21.7504L9.47932 21.8704L9.48001 21.8694L9.31932 21.7504ZM8.62762 21.9697L8.56541 22.1598L8.5656 22.1598L8.62762 21.9697ZM8.36679 15.443L8.22108 15.306L8.22077 15.3064L8.36679 15.443ZM8.62016 15.1736L8.76587 15.3106L8.97778 15.0852L8.68527 14.9845L8.62016 15.1736ZM2.45645 13.0513L2.39078 13.2402L2.39134 13.2404L2.45645 13.0513ZM2.03624 12.505L1.83677 12.5195L1.83688 12.5209L2.03624 12.505ZM2.36842 11.9009L2.2753 11.7239L2.27498 11.7241L2.36842 11.9009ZM21.0535 2.07049L20.9616 1.89288L20.9604 1.89349L21.0535 2.07049ZM21.7029 2.11567L21.586 2.27796L21.5862 2.2781L21.7029 2.11567ZM21.9587 2.71972L22.1566 2.74891L22.1566 2.74849L21.9587 2.71972ZM19.675 18.1974L19.8728 18.2269L19.8728 18.2266L19.675 18.1974ZM19.3818 18.6408L19.2774 18.4702L19.2771 18.4705L19.3818 18.6408ZM20.4518 4.3914L20.6497 4.4206L20.7427 3.79008L20.3061 4.2544L20.4518 4.3914ZM10.8415 14.612L10.6957 14.475L10.4838 14.7004L10.7763 14.8011L10.8415 14.612ZM18.552 17.2671L18.4869 17.4562L18.7147 17.5346L18.7499 17.2963L18.552 17.2671ZM9.56229 14.1715L9.49717 14.3606L9.61943 14.4027L9.708 14.3085L9.56229 14.1715ZM4.23175 12.336L4.13864 12.159L3.7291 12.3744L4.16663 12.5251L4.23175 12.336ZM18.1937 4.99121L18.3394 5.12821L18.1006 4.8142L18.1937 4.99121ZM18.7941 18.8882C18.8783 18.9164 18.9679 18.932 19.0588 18.932V18.532C19.0135 18.532 18.9669 18.5242 18.9215 18.509L18.7941 18.8882ZM9.83417 15.8031L18.7927 18.8877L18.9229 18.5095L9.96439 15.4249L9.83417 15.8031ZM9.75358 15.477L9.2933 15.9665L9.58471 16.2405L10.045 15.751L9.75358 15.477ZM9.239 16.1035V19.5145H9.639V16.1035H9.239ZM9.5997 19.6336L11.6657 16.8453L11.3443 16.6072L9.27831 19.3955L9.5997 19.6336ZM11.6655 16.8457C11.8025 16.6616 12.0663 16.6206 12.2529 16.7569L12.4888 16.4338C12.1241 16.1675 11.612 16.2476 11.3446 16.6069L11.6655 16.8457ZM12.2532 16.7571C12.439 16.8922 12.4784 17.1507 12.3422 17.3349L12.6637 17.5728C12.932 17.2102 12.8542 16.6995 12.4885 16.4336L12.2532 16.7571ZM12.3423 17.3348L9.15862 21.6313L9.48001 21.8694L12.6636 17.5729L12.3423 17.3348ZM9.15932 21.6304C9.0781 21.7387 8.9513 21.8 8.81994 21.8V22.2C9.07487 22.2 9.32117 22.0812 9.47932 21.8704L9.15932 21.6304ZM8.81994 21.8C8.77576 21.8 8.73154 21.7932 8.68963 21.7796L8.5656 22.1598C8.64916 22.1871 8.73536 22.2 8.81994 22.2V21.8ZM8.68983 21.7796C8.51568 21.7226 8.40088 21.5635 8.40088 21.3862H8.00088C8.00088 21.7392 8.22945 22.0498 8.56541 22.1598L8.68983 21.7796ZM8.40088 21.3862V15.8621H8.00088V21.3862H8.40088ZM8.40088 15.8621C8.40088 15.7583 8.44091 15.6565 8.5128 15.5797L8.22077 15.3064C8.07971 15.4571 8.00088 15.6565 8.00088 15.8621H8.40088ZM8.5125 15.58L8.76587 15.3106L8.47445 15.0366L8.22108 15.306L8.5125 15.58ZM2.39134 13.2404L8.55505 15.3627L8.68527 14.9845L2.52156 12.8622L2.39134 13.2404ZM1.83688 12.5209C1.86305 12.8493 2.07925 13.1319 2.39078 13.2402L2.52212 12.8624C2.36196 12.8067 2.2493 12.6609 2.23561 12.4891L1.83688 12.5209ZM2.27498 11.7241C1.98377 11.878 1.8128 12.1913 1.83678 12.5195L2.23571 12.4904C2.22315 12.3184 2.31294 12.1564 2.46187 12.0778L2.27498 11.7241ZM20.9604 1.89349L2.2753 11.7239L2.46154 12.0779L21.1466 2.24749L20.9604 1.89349ZM21.8198 1.95338C21.5681 1.77212 21.2357 1.75097 20.9616 1.89289L21.1455 2.2481C21.2883 2.17417 21.459 2.18648 21.586 2.27796L21.8198 1.95338ZM22.1566 2.74849C22.2014 2.4406 22.0715 2.13417 21.8196 1.95324L21.5862 2.2781C21.7164 2.37158 21.7841 2.53033 21.7608 2.69095L22.1566 2.74849ZM19.8728 18.2266L22.1566 2.74891L21.7609 2.69052L19.4771 18.1682L19.8728 18.2266ZM19.4862 18.8114C19.6955 18.6834 19.8367 18.4693 19.8728 18.2269L19.4772 18.168C19.4584 18.2937 19.3854 18.4042 19.2774 18.4702L19.4862 18.8114ZM19.0588 18.932C19.2082 18.932 19.3566 18.8911 19.4866 18.8112L19.2771 18.4705C19.2111 18.511 19.1353 18.532 19.0588 18.532V18.932ZM20.3061 4.2544L10.6957 14.475L10.9872 14.749L20.5975 4.52841L20.3061 4.2544ZM20.254 4.36221L18.3542 17.2379L18.7499 17.2963L20.6497 4.4206L20.254 4.36221ZM18.6171 17.078L10.9066 14.4229L10.7763 14.8011L18.4869 17.4562L18.6171 17.078ZM9.6274 13.9824L4.29687 12.1469L4.16663 12.5251L9.49717 14.3606L9.6274 13.9824ZM4.32486 12.513L18.2868 5.16821L18.1006 4.8142L4.13864 12.159L4.32486 12.513ZM9.708 14.3085L18.3394 5.12821L18.048 4.85421L9.41658 14.0345L9.708 14.3085Z" fill="white"/>
</g>
</svg>
