<?xml version="1.0" encoding="UTF-8"?>
<svg width="38px" height="38px" viewBox="0 0 38 38" version="1.1" xmlns="http://www.w3.org/2000/svg" xmlns:xlink="http://www.w3.org/1999/xlink">
    <!-- Generator: Sketch 55.2 (78181) - https://sketchapp.com -->
    <title>Oval Copy 16</title>
    <desc>Created with Sketch.</desc>
    <defs>
        <linearGradient x1="14.5070348%" y1="38.8503086%" x2="100%" y2="56.4903777%" id="linearGradient-1">
            <stop stop-color="#F09819" offset="0%"></stop>
            <stop stop-color="#FF5858" offset="100%"></stop>
        </linearGradient>
        <rect id="path-2" x="0" y="0" width="1440" height="680"></rect>
    </defs>
    <g id="Landing-page" stroke="none" stroke-width="1" fill="none" fill-rule="evenodd">
        <g id="Group-70" transform="translate(-1333.000000, -472.000000)">
            <g id="Group-20">
                <mask id="mask-3" fill="white">
                    <use xlink:href="#path-2"></use>
                </mask>
                <g id="Mask"></g>
            </g>
            <g id="Group-34" transform="translate(1283.000000, 268.000000)">
                <g id="BTC"></g>
            </g>
            <g id="Group-35" transform="translate(1283.000000, 473.000000)" stroke="#FFFFFF">
                <g id="fiats">
                    <circle id="Oval-Copy-15" cx="69" cy="18" r="18"></circle>
                </g>
            </g>
        </g>
        <g id="Group-3" transform="translate(13.000000, 10.000000)" fill="#FEFEFE">
            <path d="M4.45908969,3.88521588 C3.81143182,4.22979987 3.42276604,4.64373072 3.41317374,5.315338 C3.40358144,6.01185281 3.91552603,6.29551192 4.45908969,6.62970284 L4.45908969,3.88521588 Z M7.31546343,14.7380885 C8.32443127,14.4764699 9.06552525,13.4796312 8.96249685,12.5603822 C8.88327155,11.8547287 8.05975485,11.0899421 7.31546343,11.0506993 L7.31546343,14.7380885 Z M7.29432484,18.6833333 L4.49639308,18.6833333 C4.49639308,18.3934025 4.47294524,18.1260498 4.50207741,17.8644312 C4.54257823,17.5022865 4.40189116,17.3738066 4.05692364,17.2523153 C3.3932786,17.0184712 2.72163997,16.7511185 2.13100299,16.3739217 C0.68540787,15.4505513 0.132962452,14 0.00257822777,12.3487578 C-0.0288631996,11.9502374 0.229773627,11.6698037 0.64117671,11.6533181 C1.15809509,11.632532 1.67643455,11.6429251 2.19406348,11.6431043 C2.60688764,11.6432835 2.81134574,11.8561622 2.84509642,12.2708098 C2.92290063,13.2246427 3.35224487,13.9709725 4.16581401,14.4800537 C4.21572949,14.5114121 4.26617788,14.5431289 4.31982371,14.5666029 C4.34415973,14.5773543 4.37666697,14.568574 4.49568254,14.568574 C4.49568254,13.6986024 4.4985247,12.8263014 4.49479436,11.9540004 C4.49248511,11.4468903 4.46548456,10.9394218 4.47862956,10.4328493 C4.48573497,10.1672885 4.39620684,10.0334329 4.1491163,9.93774501 C3.19645881,9.56879106 2.3562444,9.01527054 1.66968442,8.25191755 C-0.451990205,5.89340766 0.624123732,2.26515146 3.70254145,1.3738562 C4.48005064,1.1487925 4.47969537,1.1487925 4.49745889,0.306774725 C4.49941288,0.217896066 4.50971572,0.129017408 4.51895275,0 L7.28029167,0 L7.28029167,1.12746879 C7.92937062,1.42402964 8.55624518,1.63045749 9.09803249,1.97378714 C10.4139539,2.80756214 11.0850596,4.06440672 11.2056739,5.61584105 C11.2511485,6.20036158 11.0772437,6.3643212 10.4924687,6.37328074 C10.048736,6.38009 9.6044704,6.36306686 9.16109298,6.37776051 C8.7113207,6.39263335 8.46831577,6.20842517 8.43332164,5.73966192 C8.38784703,5.12987548 8.11588756,4.62939545 7.65385845,4.23445883 C7.59772574,4.18643568 7.53963903,4.1391293 7.47640091,4.10167842 C7.44247259,4.08125066 7.3955769,4.08268419 7.29290376,4.06171886 L7.29290376,6.70137918 C7.29290376,7.52171486 7.29752228,7.51006746 8.04359005,7.80752426 C9.46573732,8.37448409 10.748441,9.13640356 11.374605,10.6380228 C12.4885552,13.3101167 11.4268297,16.5230085 8.04678748,17.2781187 C7.31919377,17.4406448 7.31972668,17.4470957 7.29503539,18.2036394 C7.29023924,18.3509343 7.29432484,18.4985876 7.29432484,18.6833333 L7.29432484,18.6833333 Z" id="Fill-1"></path>
        </g>
    </g>
</svg>