<svg width="24" height="24" viewBox="0 0 24 24" fill="none" xmlns="http://www.w3.org/2000/svg">
<path d="M5.825 14L12 14C12.2833 14 12.521 14.096 12.713 14.288C12.9043 14.4793 13 14.7167 13 15C13 15.2833 12.9043 15.521 12.713 15.713C12.521 15.9043 12.2833 16 12 16L5.825 16L7.7 17.875C7.88333 18.0583 7.97933 18.2873 7.988 18.562C7.996 18.8373 7.9 19.075 7.7 19.275C7.51666 19.475 7.28766 19.5793 7.013 19.588C6.73766 19.596 6.5 19.5 6.3 19.3L2.7 15.7C2.6 15.6 2.52933 15.4917 2.488 15.375C2.446 15.2583 2.42499 15.1333 2.42499 15C2.42499 14.8667 2.446 14.7417 2.488 14.625C2.52933 14.5083 2.6 14.4 2.7 14.3L6.3 10.7C6.48333 10.5167 6.71233 10.425 6.987 10.425C7.26233 10.425 7.5 10.525 7.7 10.725C7.88333 10.925 7.97933 11.1583 7.988 11.425C7.996 11.6917 7.9 11.925 7.7 12.125L5.825 14ZM18.175 7.99999L16.3 6.12499C16.0833 5.90832 15.9833 5.66665 16 5.39999C16.0167 5.13332 16.1167 4.90832 16.3 4.72499C16.5 4.52499 16.7377 4.42499 17.013 4.42499C17.2877 4.42499 17.5167 4.51665 17.7 4.69999L21.3 8.29999C21.4 8.39999 21.471 8.50832 21.513 8.62499C21.5543 8.74165 21.575 8.86665 21.575 8.99999C21.575 9.13332 21.5543 9.25832 21.513 9.37499C21.471 9.49165 21.4 9.59999 21.3 9.69999L17.7 13.3C17.5167 13.4833 17.2833 13.575 17 13.575C16.7167 13.575 16.4833 13.4833 16.3 13.3C16.1 13.1 16 12.8627 16 12.588C16 12.3127 16.1 12.075 16.3 11.875L18.175 9.99999L12 9.99999C11.7167 9.99999 11.4793 9.90432 11.288 9.71299C11.096 9.52099 11 9.28332 11 8.99999C11 8.71665 11.096 8.47932 11.288 8.28799C11.4793 8.09599 11.7167 7.99999 12 7.99999L18.175 7.99999Z" fill="black"/>
</svg>
