<svg width="24" height="12" viewBox="0 0 24 12" fill="none" xmlns="http://www.w3.org/2000/svg">
<path d="M6.00005 12.0002C5.68338 12.0002 5.42505 11.8919 5.22505 11.6752C5.02505 11.4585 4.95005 11.2002 5.00005 10.9002C5.25005 9.2002 6.03738 7.7752 7.36205 6.6252C8.68738 5.4752 10.2334 4.9002 12.0001 4.9002C13.7667 4.9002 15.3124 5.4752 16.6371 6.6252C17.9624 7.7752 18.7501 9.2002 19.0001 10.9002C19.0501 11.2002 18.9707 11.4585 18.7621 11.6752C18.5541 11.8919 18.3001 12.0002 18.0001 12.0002C17.7167 12.0002 17.4627 11.9002 17.2381 11.7002C17.0127 11.5002 16.8584 11.2419 16.7751 10.9252C16.5251 9.8252 15.9584 8.91286 15.0751 8.1882C14.1917 7.46286 13.1667 7.1002 12.0001 7.1002C10.8334 7.1002 9.80838 7.46286 8.92505 8.1882C8.04172 8.91286 7.47505 9.8252 7.22505 10.9252C7.14172 11.2419 6.98772 11.5002 6.76305 11.7002C6.53772 11.9002 6.28338 12.0002 6.00005 12.0002ZM1.90005 12.0002C1.60005 12.0002 1.34605 11.8919 1.13805 11.6752C0.929384 11.4585 0.841718 11.2002 0.875051 10.9002C1.02505 9.5002 1.41272 8.18353 2.03805 6.9502C2.66272 5.71686 3.47105 4.6462 4.46305 3.7382C5.45438 2.82953 6.59605 2.11686 7.88805 1.6002C9.17938 1.08353 10.5501 0.825195 12.0001 0.825195C13.4501 0.825195 14.8211 1.08353 16.1131 1.6002C17.4044 2.11686 18.5461 2.82953 19.5381 3.7382C20.5294 4.6462 21.3417 5.71686 21.9751 6.9502C22.6084 8.18353 22.9917 9.5002 23.1251 10.9002C23.1584 11.2002 23.0711 11.4585 22.8631 11.6752C22.6544 11.8919 22.4001 12.0002 22.1001 12.0002C21.8001 12.0002 21.5417 11.8962 21.3251 11.6882C21.1084 11.4795 20.9834 11.2169 20.9501 10.9002C20.6667 8.66686 19.6834 6.79186 18.0001 5.2752C16.3167 3.75853 14.3167 3.0002 12.0001 3.0002C9.68338 3.0002 7.68338 3.75853 6.00005 5.2752C4.31672 6.79186 3.33338 8.66686 3.05005 10.9002C3.01672 11.2169 2.89605 11.4795 2.68805 11.6882C2.47938 11.8962 2.21672 12.0002 1.90005 12.0002Z" fill="white"/>
</svg>
