<?xml version="1.0" encoding="UTF-8"?>
<svg width="70px" height="66px" viewBox="0 0 70 66" version="1.1" xmlns="http://www.w3.org/2000/svg" xmlns:xlink="http://www.w3.org/1999/xlink">
    <!-- Generator: Sketch 55.2 (78181) - https://sketchapp.com -->
    <title>Group 34</title>
    <desc>Created with Sketch.</desc>
    <g id="Landing-page" stroke="none" stroke-width="1" fill="none" fill-rule="evenodd">
        <g id="about" transform="translate(-790.000000, -1405.000000)" fill-rule="nonzero">
            <g id="Group-34" transform="translate(790.000000, 1405.000000)">
                <g id="meeting" transform="translate(-0.000000, 0.000000)">
                    <circle id="Oval" fill="#CDF4EE" cx="34.6201761" cy="7.34663293" r="7.24390244"></circle>
                    <path d="M44.7693877,9.93854063 C43.75798,14.4057808 39.7725979,17.7586155 35.0039794,17.7586155 C30.2353608,17.7586155 26.2499787,14.4057808 25.238571,9.93854063 C21.6515535,10.7378079 18.9578504,13.9336747 18.9578504,17.7586155 L18.9578504,25.7817468 C18.9578504,27.993191 20.7579719,29.7933124 22.9694161,29.7933124 C25.1808602,29.7933124 26.9809817,27.993191 26.9809817,25.7817468 L26.9809817,21.7701812 L43.0271106,21.7701812 L43.0271106,25.7817468 C43.0271106,27.993191 44.8272321,29.7933124 47.0386762,29.7933124 C49.2501204,29.7933124 51.0502419,27.993191 51.0502419,25.7817468 L51.0502419,17.7586155 C51.0502419,13.9336747 48.3562716,10.7378079 44.7693877,9.93854063 Z" id="Path" fill="#05C0A5"></path>
                    <path d="M66.2307013,49.2882851 C62.7951737,47.2881426 58.4025777,48.4748177 56.4190768,51.9391694 C54.4357353,55.4031996 55.6126965,59.8329711 59.0482241,61.832792 C62.4834328,63.8329346 67.0359653,62.6459378 69.0191474,59.1819077 C71.0026483,55.7177167 69.66591,51.2882669 66.2307013,49.2882851 Z" id="Path" fill="#CDF4EE"></path>
                    <path d="M62.4213986,37.0338751 L55.4733974,33.0223095 C53.5581216,31.9165874 51.0992693,32.5754519 49.9935472,34.4907277 C48.8878251,36.4060034 49.5466896,38.8648558 51.4619654,39.9705779 L54.9360996,41.9762939 L46.9129683,55.8726971 L43.4388341,53.8669811 C41.5235583,52.761259 39.064706,53.4201235 37.9589839,55.3353993 C36.8532618,57.250675 37.5121263,59.7095274 39.4274021,60.8152495 L46.3754033,64.8268151 C49.6881611,66.7392855 53.8027244,66.0042749 56.2881611,63.29748 C52.9251736,60.1880457 52.0140917,55.0602044 54.398401,50.9302783 C56.7827103,46.8003522 61.6790406,45.0256128 66.0535695,46.3831515 C67.1550167,42.8773565 65.7341565,38.9463455 62.4213986,37.0338751 Z" id="Path" fill="#05C0A5"></path>
                    <path d="M13.6376979,51.9392571 C11.6375874,48.4749608 7.20820858,47.2881439 3.74391238,49.2884152 C0.279937759,51.2883649 -1.06815504,55.7177438 0.932116242,59.18204 C2.93190515,62.6460146 7.5225599,63.8329923 10.9865345,61.8328818 C14.4508307,59.8327713 15.6376476,55.4032317 13.6376979,51.9392571 Z" id="Path" fill="#CDF4EE"></path>
                    <path d="M32.0488412,55.3353993 C30.9431191,53.4201235 28.4841332,52.7613926 26.568991,53.8669811 L23.0948568,55.8726971 L15.0717255,41.9762939 L18.5458597,39.9705779 C20.4611355,38.8648558 21.1198664,36.4058699 20.0142779,34.4907277 C18.9085558,32.5754519 16.4495699,31.916721 14.5344277,33.0223095 L7.58642648,37.0338751 C4.27366866,38.9463455 2.85280842,42.8773565 3.95438923,46.3832851 C8.32878454,45.0256128 13.2252485,46.8004858 15.6095577,50.9304119 C17.993867,55.060338 17.0827851,60.1880457 13.7197976,63.2976136 C16.2052343,66.0042749 20.3197976,66.7394191 23.6325554,64.8269487 L30.5805566,60.8152495 C32.4956988,59.7095274 33.1545633,57.2505414 32.0488412,55.3353993 Z" id="Path" fill="#05C0A5"></path>
                </g>
            </g>
        </g>
    </g>
</svg>