<?xml version="1.0" encoding="UTF-8"?>
<svg width="25px" height="24px" viewBox="0 0 25 24" version="1.1" xmlns="http://www.w3.org/2000/svg" xmlns:xlink="http://www.w3.org/1999/xlink">
    <!-- Generator: Sketch 55.2 (78181) - https://sketchapp.com -->
    <title>Group 39</title>
    <desc>Created with Sketch.</desc>
    <g id="Landing-page" stroke="none" stroke-width="1" fill="none" fill-rule="evenodd">
        <g id="about" transform="translate(-790.000000, -1611.000000)" fill="#003945" fill-rule="nonzero">
            <g id="Group-39" transform="translate(788.000000, 1609.000000)">
                <g id="Telegram" transform="translate(2.000000, 2.000000)">
                    <path d="M23.1442308,0.957692308 C22.8355594,0.98014975 22.5325804,1.05256594 22.2471154,1.17211538 L22.2432692,1.17211538 C21.9692308,1.28076923 20.6663462,1.82884615 18.6855769,2.65961538 L11.5875,5.64903846 C6.49423077,7.79326923 1.4875,9.90480769 1.4875,9.90480769 L1.54711538,9.88173077 C1.54711538,9.88173077 1.20192308,9.99519231 0.841346154,10.2423077 C0.618584594,10.3840581 0.426897724,10.5695299 0.277884615,10.7875 C0.100961538,11.0471154 -0.0413461538,11.4442308 0.0115384615,11.8548077 C0.0980769231,12.5490385 0.548076923,12.9653846 0.871153846,13.1951923 C1.19807692,13.4278846 1.50961538,13.5365385 1.50961538,13.5365385 L1.51730769,13.5365385 L6.2125,15.1182692 C6.42307692,15.7942308 7.64326923,19.8057692 7.93653846,20.7298077 C8.10961538,21.2817308 8.27788462,21.6269231 8.48846154,21.8903846 C8.59038462,22.025 8.70961538,22.1375 8.85288462,22.2278846 C8.9273653,22.2712075 9.00678029,22.305427 9.08942308,22.3298077 L9.04134615,22.3182692 C9.05576923,22.3221154 9.06730769,22.3336538 9.07788462,22.3375 C9.11634615,22.3480769 9.14230769,22.3519231 9.19134615,22.3596154 C9.93461538,22.5846154 10.5317308,22.1230769 10.5317308,22.1230769 L10.5653846,22.0961538 L13.3375,19.5721154 L17.9836538,23.1365385 L18.0894231,23.1817308 C19.0576923,23.6067308 20.0384615,23.3701923 20.5567308,22.9528846 C21.0788462,22.5326923 21.2817308,21.9951923 21.2817308,21.9951923 L21.3153846,21.9086538 L24.9057692,3.51538462 C25.0076923,3.06153846 25.0336538,2.63653846 24.9211538,2.22403846 C24.8051204,1.80656281 24.5372861,1.44750718 24.1701923,1.21730769 C23.861946,1.02991837 23.5045064,0.939469736 23.1442308,0.957692308 L23.1442308,0.957692308 Z M23.0471154,2.92884615 C23.0432692,2.98942308 23.0548077,2.98269231 23.0278846,3.09903846 L23.0278846,3.10961538 L19.4711538,21.3115385 C19.4557692,21.3375 19.4298077,21.3942308 19.3586538,21.4509615 C19.2836538,21.5105769 19.2240385,21.5480769 18.9115385,21.4240385 L13.2288462,17.0673077 L9.79615385,20.1961538 L10.5173077,15.5903846 L19.8019231,6.93653846 C20.1846154,6.58076923 20.0567308,6.50576923 20.0567308,6.50576923 C20.0836538,6.06923077 19.4788462,6.37788462 19.4788462,6.37788462 L7.77115385,13.6307692 L7.76730769,13.6115385 L2.15576923,11.7221154 L2.15576923,11.7182692 L2.14134615,11.7153846 C2.15118326,11.7121178 2.16081589,11.7082647 2.17019231,11.7038462 L2.20096154,11.6884615 L2.23076923,11.6778846 C2.23076923,11.6778846 7.24134615,9.56634615 12.3346154,7.42211538 C14.8846154,6.34807692 17.4538462,5.26634615 19.4298077,4.43173077 C21.4057692,3.60192308 22.8663462,2.99326923 22.9490385,2.96057692 C23.0278846,2.92980769 22.9903846,2.92980769 23.0471154,2.92980769 L23.0471154,2.92884615 Z" id="surface1"></path>
                </g>
            </g>
        </g>
    </g>
</svg>