<?xml version="1.0" encoding="utf-8"?>
<!-- Generator: Adobe Illustrator 23.0.1, SVG Export Plug-In . SVG Version: 6.00 Build 0)  -->
<svg version="1.1" id="Layer_1" xmlns="http://www.w3.org/2000/svg" xmlns:xlink="http://www.w3.org/1999/xlink" x="0px" y="0px"
	 viewBox="0 0 48 46" style="enable-background:new 0 0 48 46;" xml:space="preserve">
<style type="text/css">
	.st0{fill:#FFFFFF;stroke:#FFFFFF;stroke-width:1.2;stroke-miterlimit:10;}
</style>
<g>
	<g>
		<path class="st0" d="M40.2,19.4H38c-0.3-1.3-0.9-2.6-1.5-3.7l1.6-1.6c0.7-0.7,0.7-1.8,0-2.6L35.5,9c-0.3-0.3-0.8-0.5-1.3-0.5
			c-0.5,0-0.9,0.2-1.3,0.5l-1.6,1.6c-1.2-0.7-2.4-1.2-3.7-1.5V6.8c0-1-0.8-1.8-1.8-1.8h-3.6c-1,0-1.8,0.8-1.8,1.8V9
			c-1.3,0.3-2.6,0.9-3.7,1.5L15.1,9c-0.3-0.3-0.8-0.5-1.3-0.5c-0.5,0-0.9,0.2-1.3,0.5L10,11.5c-0.7,0.7-0.7,1.8,0,2.6l1.6,1.6
			c-0.7,1.2-1.2,2.4-1.5,3.7H7.8c-1,0-1.8,0.8-1.8,1.8v3.6c0,1,0.8,1.8,1.8,1.8H10c0.3,1.3,0.9,2.6,1.5,3.7L10,31.9
			c-0.7,0.7-0.7,1.8,0,2.6l2.6,2.6c0.4,0.4,0.8,0.5,1.3,0.5c0.5,0,0.9-0.2,1.3-0.5l1.6-1.6c1.2,0.7,2.4,1.2,3.7,1.5v2.3
			c0,1,0.8,1.8,1.8,1.8h3.6c1,0,1.8-0.8,1.8-1.8V37c1.3-0.3,2.6-0.9,3.7-1.5l1.6,1.6c0.4,0.4,0.8,0.5,1.3,0.5s0.9-0.2,1.3-0.5
			l2.6-2.6c0.7-0.7,0.7-1.8,0-2.6l-1.6-1.6c0.7-1.2,1.2-2.4,1.5-3.7h2.3c1,0,1.8-0.8,1.8-1.8v-3.6C42,20.2,41.2,19.4,40.2,19.4z
			 M40.2,24.8h-3.8c-0.3,2.1-1.1,4.1-2.4,5.7l2.7,2.7l-2.6,2.6l-2.7-2.7c-1.7,1.2-3.6,2.1-5.7,2.4v3.8h-3.6v-3.8
			c-2.1-0.3-4.1-1.1-5.7-2.4l-2.7,2.7l-2.6-2.6l2.7-2.7c-1.2-1.7-2.1-3.6-2.4-5.7H7.8v-3.6h3.8c0.3-2.1,1.1-4.1,2.4-5.7l-2.7-2.7
			l2.6-2.6l2.7,2.7c1.7-1.2,3.6-2.1,5.7-2.4V6.8h3.6v3.8c2.1,0.3,4.1,1.1,5.7,2.4l2.7-2.7l2.6,2.6l-2.7,2.7c1.2,1.7,2.1,3.6,2.4,5.7
			h3.8V24.8z"/>
	</g>
</g>
<g>
	<g>
		<path class="st0" d="M24,15.1c-4.4,0-7.9,3.5-7.9,7.9s3.5,7.9,7.9,7.9s7.9-3.5,7.9-7.9S28.4,15.1,24,15.1z M24,29.3
			c-3.5,0-6.3-2.8-6.3-6.3s2.8-6.3,6.3-6.3s6.3,2.8,6.3,6.3S27.5,29.3,24,29.3z"/>
	</g>
</g>
</svg>
