<?xml version="1.0" encoding="UTF-8"?>
<svg width="24px" height="24px" viewBox="0 0 24 24" version="1.1" xmlns="http://www.w3.org/2000/svg" xmlns:xlink="http://www.w3.org/1999/xlink">
    <!-- Generator: Sketch 55.2 (78181) - https://sketchapp.com -->
    <title>Group 14</title>
    <desc>Created with Sketch.</desc>
    <g id="Interact-with-contract" stroke="none" stroke-width="1" fill="none" fill-rule="evenodd">
        <g id="contract" transform="translate(-59.000000, -136.000000)">
            <g id="nav-bar-contract-01">
                <g id="Group-9">
                    <g transform="translate(17.000000, 94.000000)">
                        <g id="Group-51">
                            <g id="Group-50" transform="translate(14.000000, 18.000000)">
                                <g id="Group-14" transform="translate(28.000000, 24.000000)">
                                    <g id="Group-52">
                                        <circle id="Oval" fill="#FFFFFF" cx="12" cy="12" r="12"></circle>
                                        <g id="qr-code" transform="translate(5.000000, 5.000000)">
                                            <path d="M3.63189103,2.73169064 C3.51313852,2.61332094 3.34935137,2.54545455 3.18181818,2.54545455 C3.01425765,2.54545455 2.85044316,2.61332094 2.73169064,2.73169064 C2.61332094,2.8504705 2.54545455,3.0142303 2.54545455,3.18181818 C2.54545455,3.34940606 2.61332094,3.51313852 2.73169064,3.63194572 C2.85006035,3.75031543 3.0142303,3.81818182 3.18181818,3.81818182 C3.34935137,3.81818182 3.51313852,3.75031543 3.63189103,3.63194572 C3.75026074,3.51316586 3.81818182,3.34940606 3.81818182,3.18181818 C3.81818182,3.0142303 3.75026074,2.8504705 3.63189103,2.73169064 Z" id="Path" fill="#5A78F0"></path>
                                            <path d="M11.2678719,2.73169064 C11.1495022,2.61332094 10.9857424,2.54545455 10.8181818,2.54545455 C10.6506213,2.54545455 10.486424,2.61332094 10.3680543,2.73169064 C10.2496846,2.8504705 10.1818182,3.0142303 10.1818182,3.18181818 C10.1818182,3.34940606 10.2496846,3.51313852 10.3680543,3.63194572 C10.486424,3.75031543 10.6505939,3.81818182 10.8181818,3.81818182 C10.985715,3.81818182 11.1494748,3.75031543 11.2678719,3.63194572 C11.3866517,3.51316586 11.4545455,3.34940606 11.4545455,3.18181818 C11.4545455,3.0142303 11.3866244,2.8504705 11.2678719,2.73169064 Z" id="Path" fill="#5A78F0"></path>
                                            <rect id="Rectangle" stroke="#5A78F0" stroke-width="1.3" fill-opacity="0" fill="#D8D8D8" fill-rule="nonzero" x="8.28636364" y="0.65" width="5.06363636" height="5.06363636" rx="2"></rect>
                                            <rect id="Rectangle" stroke="#5A78F0" stroke-width="1.3" fill-opacity="0" fill="#D8D8D8" fill-rule="nonzero" x="0.65" y="0.65" width="5.06363636" height="5.06363636" rx="2"></rect>
                                            <rect id="Rectangle" stroke="#5A78F0" stroke-width="1.3" fill-opacity="0" fill="#D8D8D8" fill-rule="nonzero" x="0.65" y="8.28636364" width="5.06363636" height="5.06363636" rx="2"></rect>
                                            <path d="M3.63189103,10.3680543 C3.51311117,10.2496846 3.34935137,10.1818182 3.18181818,10.1818182 C3.01425765,10.1818182 2.85044316,10.2496846 2.73169064,10.3680543 C2.61332094,10.4868341 2.54545455,10.6505939 2.54545455,10.8181818 C2.54545455,10.9857697 2.61332094,11.1495022 2.73169064,11.2683094 C2.85006035,11.3866791 3.0142303,11.4545455 3.18181818,11.4545455 C3.34935137,11.4545455 3.51313852,11.3866791 3.63189103,11.2683094 C3.75026074,11.1495295 3.81818182,10.9857697 3.81818182,10.8181818 C3.81818182,10.6505939 3.75026074,10.4868341 3.63189103,10.3680543 Z" id="Path" fill="#5A78F0"></path>
                                            <path d="M12.2499974,10.1818182 L11.9318207,10.1818182 C11.6682355,10.1818182 11.4545455,10.4667367 11.4545455,10.8181818 C11.4545455,11.1696269 11.6682355,11.4545455 11.9318207,11.4545455 L12.2499974,11.4545455 C12.5135827,11.4545455 12.7272727,11.1696269 12.7272727,10.8181818 C12.7272727,10.4667367 12.5135827,10.1818182 12.2499974,10.1818182 Z" id="Path" fill="#5A78F0"></path>
                                            <path d="M13.2840871,11.4545455 C12.8887092,11.4545455 12.5681741,11.739464 12.5681741,12.0909091 L12.5681741,12.7272727 L10.8977311,12.7272727 C10.5023533,12.7272727 10.1818182,13.0121913 10.1818182,13.3636364 C10.1818182,13.7150815 10.5023533,14 10.8977311,14 L13.2840871,14 C13.6794649,13.9999727 14,13.7150541 14,13.363609 L14,12.0909091 C14,11.739464 13.6794649,11.4545455 13.2840871,11.4545455 Z" id="Path" fill="#5A78F0"></path>
                                            <path d="M8.27272727,10.1818182 C7.92128217,10.1818182 7.63636364,10.5237234 7.63636364,10.9454611 L7.63636364,11.9636298 C7.63636364,12.3853675 7.92128217,12.7272727 8.27272727,12.7272727 C8.62417237,12.7272727 8.90909091,12.3853675 8.90909091,11.9636298 L8.90909091,10.9454611 C8.90909091,10.5237234 8.62417237,10.1818182 8.27272727,10.1818182 Z" id="Path" fill="#5A78F0"></path>
                                            <path d="M10.818175,7.63636364 L9.54546138,7.63636364 C9.19401251,7.63636364 8.90909091,7.92128217 8.90909091,8.27272727 C8.90909091,8.62417237 9.19401251,8.90909091 9.54546138,8.90909091 L10.818175,8.90909091 C11.1696239,8.90909091 11.4545455,8.62417237 11.4545455,8.27272727 C11.4545455,7.92128217 11.1696239,7.63636364 10.818175,7.63636364 Z" id="Path" fill="#5A78F0"></path>
                                        </g>
                                    </g>
                                </g>
                            </g>
                        </g>
                    </g>
                </g>
            </g>
        </g>
    </g>
</svg>