<?xml version="1.0" encoding="utf-8"?>
<!-- Generator: Adobe Illustrator 23.0.1, SVG Export Plug-In . SVG Version: 6.00 Build 0)  -->
<svg version="1.1" id="Layer_1" xmlns="http://www.w3.org/2000/svg" xmlns:xlink="http://www.w3.org/1999/xlink" x="0px" y="0px"
	 viewBox="0 0 64 64" style="enable-background:new 0 0 64 64;" xml:space="preserve">
<style type="text/css">
	.st0{fill:#05C0A5;}
</style>
<title>icon</title>
<desc>Created with Sketch.</desc>
<path id="Shape" class="st0" d="M32,5.1C17.1,5.1,5.1,17.1,5.1,32s12,26.9,26.9,26.9s26.9-12,26.9-26.9S46.9,5.1,32,5.1z M52.7,29
	h-8.8c-0.2-5.6-1.2-10.8-2.7-15c-0.1-0.4-0.2-0.7-0.4-1.1C47,15.9,51.7,21.8,52.7,29z M11.3,35h8.8c0.2,5.6,1.2,10.8,2.7,15
	c0.1,0.4,0.2,0.7,0.4,1.1C17,48.1,12.3,42.2,11.3,35z M22.8,14c-1.5,4.1-2.5,9.3-2.7,15h-8.8c1-7.2,5.7-13.1,12-16
	C23.2,13.3,22.9,13.6,22.8,14z M35.6,47.9C34,52,32.5,53,32,53c-0.5,0-2-1-3.6-5.1C27,44.4,26.3,39.9,26,35h11.8
	C37.7,39.9,36.8,44.4,35.6,47.9z M26,29c0.2-4.8,1-9.4,2.4-12.9C30,12,31.5,11,32,11c0.5,0,2,1,3.6,5.1C37,19.6,37.7,24.1,38,29H26z
	 M40.7,51c0.1-0.4,0.2-0.7,0.4-1.1c1.5-4.1,2.5-9.3,2.7-15h8.8C51.7,42.2,47,48.1,40.7,51z"/>
</svg>
