<?xml version="1.0" encoding="UTF-8"?>
<svg width="32px" height="32px" viewBox="0 0 32 32" version="1.1" xmlns="http://www.w3.org/2000/svg" xmlns:xlink="http://www.w3.org/1999/xlink">
    <!-- Generator: Sketch 55.2 (78181) - https://sketchapp.com -->
    <title>Group 48</title>
    <desc>Created with Sketch.</desc>
    <g id="Landing-page" stroke="none" stroke-width="1" fill="none" fill-rule="evenodd">
        <g id="landing-page(Desktop)-2" transform="translate(-1085.000000, -2108.000000)">
            <g id="Group-48" transform="translate(1085.000000, 2108.000000)">
                <g id="Group-46" transform="translate(1.000000, 1.000000)">
                    <g id="Apple" transform="translate(7.200000, 4.800000)" fill="#0B1A40" fill-rule="nonzero">
                        <path d="M14.257879,12.6326667 C13.869031,13.5291182 13.6818213,13.9296205 13.1815132,14.720519 C12.4813704,15.8258306 11.4933792,17.2058793 10.2730891,17.2148625 C9.18698407,17.2253429 8.90634983,16.4793606 7.43139683,16.4924611 C5.95752597,16.4999471 5.65019901,17.2298345 4.56229041,17.2178569 C3.34091823,17.2062536 2.40667312,15.9631991 1.70616964,14.8597591 C-0.252498679,11.7642879 -0.459186883,8.13506308 0.751003213,6.2051659 C1.60769516,4.83672058 2.9618095,4.03234722 4.23404213,4.03234722 C5.53044249,4.03234722 6.34493109,4.77084356 7.41552549,4.77084356 C8.45545933,4.77084356 9.08814888,4.03122432 10.5876303,4.03122432 C11.7202672,4.03122432 12.9178324,4.67127943 13.7748851,5.77696529 C10.9735926,7.37036565 11.4288116,11.5213664 14.2582397,12.6326667 L14.257879,12.6326667 Z M9.44886128,2.79565594 C9.99425842,2.06876294 10.4083563,1.04392615 10.2575785,0 C9.36878312,0.0628826078 8.32884928,0.652032754 7.72177031,1.41523298 C7.17060177,2.11143328 6.71393987,3.14338179 6.89141037,4.14201749 C7.86244815,4.17420739 8.86703218,3.57307961 9.44886128,2.79565594 L9.44886128,2.79565594 Z" id="surface1"></path>
                    </g>
                    <circle id="Oval" stroke="#0B1A40" cx="15" cy="15" r="15"></circle>
                </g>
            </g>
        </g>
    </g>
</svg>