<?xml version="1.0" encoding="UTF-8"?>
<svg width="21px" height="21px" viewBox="0 0 21 21" version="1.1" xmlns="http://www.w3.org/2000/svg" xmlns:xlink="http://www.w3.org/1999/xlink">
    <!-- Generator: Sketch 57.1 (83088) - https://sketch.com -->
    <title>Group 7</title>
    <desc>Created with Sketch.</desc>
    <g id="dapps-center-light" stroke="none" stroke-width="1" fill="none" fill-rule="evenodd">
        <g id="dapps-center" transform="translate(-490.000000, -473.000000)">
            <g id="Group-2" transform="translate(347.000000, 84.000000)">
                <g id="Group-10" transform="translate(32.000000, 314.000000)">
                    <g id="Group-8" transform="translate(0.000000, 51.000000)">
                        <g id="Group-7">
                            <g id="Group-11" transform="translate(111.000000, 24.000000)">
                                <g id="budge" transform="translate(1.000000, 1.000000)">
                                    <g transform="translate(-0.000000, 0.000000)">
                                        <path d="M10.4529121,0 C10.612031,0 10.7685414,0.0608285912 10.8911412,0.171906888 L10.8911412,0.171906888 L11.6580422,0.875402769 C11.7780335,0.986481066 11.9345439,1.04730966 12.0962713,1.04730966 L12.0962713,1.04730966 L12.1197218,1.04730966 L13.1527165,1.00763884 L13.1527165,1.00763884 L13.1761669,1.00763884 C13.4161756,1.00763884 13.6405072,1.14251963 13.752673,1.35938678 L13.752673,1.35938678 L14.2352467,2.28768397 C14.3135019,2.43843309 14.4491443,2.55480083 14.6108456,2.60769526 L14.6108456,2.60769526 L15.5942526,2.93035126 C15.8316528,3.0096929 16.0063966,3.21862589 16.0403333,3.46987442 L16.0403333,3.46987442 L16.1838012,4.50924991 C16.2072516,4.6811568 16.2959409,4.83455064 16.4289747,4.94033949 L16.4289747,4.94033949 L17.2454373,5.58300678 C17.4437099,5.73904534 17.5350076,5.99558332 17.4828375,6.24418712 L17.4828375,6.24418712 L17.2637229,7.27033901 C17.2298123,7.43695645 17.2585059,7.61415279 17.3498036,7.75961246 L17.3498036,7.75961246 L17.9002246,8.64823884 C18.0332585,8.86510599 18.0332585,9.13751229 17.9002246,9.35173472 L17.9002246,9.35173472 L17.3446388,10.2403611 C17.2533411,10.3858208 17.222039,10.5603988 17.258532,10.7296345 L17.258532,10.7296345 L17.4776465,11.7558129 C17.5298167,12.0043902 17.4385189,12.2609547 17.2402724,12.4169932 L17.2402724,12.4169932 L16.4237838,13.0596605 C16.290776,13.1654494 16.2020607,13.3188168 16.1786102,13.4907236 L16.1786102,13.4907236 L16.0351424,14.5301256 C16.0012318,14.7813741 15.8264619,14.9929518 15.5890617,15.0696487 L15.5890617,15.0696487 L14.8430288,15.3129367 L14.6030462,15.3922783 C14.4413187,15.4451727 14.3057025,15.5589222 14.2274473,15.7122896 L14.2274473,15.7122896 L13.7448736,16.6405868 C13.6326817,16.8574804 13.4083501,16.9923612 13.1683675,16.9923612 L13.1683675,16.9923612 L13.144917,16.9923612 L12.1119223,16.9526903 L12.1119223,16.9526903 L12.0884718,16.9526903 C11.9267444,16.9526903 11.770234,17.0135454 11.6502167,17.1245972 L11.6502167,17.1245972 L10.8833418,17.8280931 C10.760742,17.9418426 10.6042316,18 10.4451127,18 C10.364249,18 10.2807768,17.9815134 10.199913,17.9497503 L10.199913,17.9497503 L9.24259112,17.5530421 C9.16433592,17.5187136 9.08086371,17.5028453 8.99741758,17.5028453 C8.91394537,17.5028453 8.83047315,17.5213319 8.75221796,17.5530421 L8.75221796,17.5530421 L7.79489602,17.9497503 C7.71664082,17.9841317 7.63316861,18 7.54972248,18 C7.39057749,18 7.2340671,17.9391979 7.11146728,17.8280931 L7.11146728,17.8280931 L6.34459242,17.1245972 C6.22457503,17.0135454 6.06806463,16.9526903 5.90636331,16.9526903 L5.90636331,16.9526903 L5.88288675,16.9526903 L4.84991812,16.9923612 L4.84991812,16.9923612 L4.82644156,16.9923612 C4.58643287,16.9923612 4.36212738,16.8574804 4.2499616,16.6405868 L4.2499616,16.6405868 L3.76738787,15.7122896 C3.68913267,15.5615405 3.55349033,15.4451727 3.39176292,15.3922783 L3.39176292,15.3922783 L3.15178031,15.3129367 L2.40574741,15.0696487 C2.16837331,14.9903071 1.99360336,14.7813741 1.95969278,14.5301256 L1.95969278,14.5301256 L1.81622491,13.4907236 C1.79274835,13.3188168 1.70405913,13.1654494 1.57102529,13.0596605 L1.57102529,13.0596605 L0.754562713,12.4169932 C0.556290124,12.2609547 0.464992392,12.0043902 0.517162524,11.7558129 L0.517162524,11.7558129 L0.736277081,10.7296345 C0.770187668,10.5630171 0.741494095,10.3858208 0.650196363,10.2403611 L0.650196363,10.2403611 L0.0997753786,9.35173472 C-0.0332584595,9.13486757 -0.0332584595,8.86246127 0.0997753786,8.64823884 L0.0997753786,8.64823884 L0.650196363,7.75961246 C0.741494095,7.61415279 0.772796174,7.43960118 0.736277081,7.27033901 L0.736277081,7.27033901 L0.517162524,6.24418712 C0.464992392,5.99558332 0.556290124,5.73904534 0.754562713,5.58300678 L0.754562713,5.58300678 L1.58145931,4.94033949 C1.71446707,4.83455064 1.80318238,4.6811568 1.82663285,4.50924991 L1.82663285,4.50924991 L1.97010072,3.46987442 C2.00403739,3.21862589 2.17878125,3.00704818 2.41618144,2.93035126 L2.41618144,2.93035126 L3.39958844,2.60769526 C3.56128976,2.55480083 3.69693211,2.44107781 3.77518731,2.28768397 L3.77518731,2.28768397 L4.25776103,1.35938678 C4.36992682,1.14251963 4.59425839,1.00763884 4.834241,1.00763884 L4.834241,1.00763884 L4.85771756,1.00763884 L5.89068618,1.04730966 L5.89068618,1.04730966 L5.91416274,1.04730966 C6.07589015,1.04730966 6.23240055,0.986481066 6.35239186,0.875402769 L6.35239186,0.875402769 L7.1192928,0.171906888 C7.24186653,0.0581838698 7.39837693,0 7.55752192,0 C7.63835954,0 7.72183175,0.0185130495 7.80269546,0.0502497058 L7.80269546,0.0502497058 L8.76001739,0.446957909 C8.83827259,0.481339287 8.9217448,0.497207615 9.00521701,0.497207615 C9.08868923,0.497207615 9.17213535,0.478694566 9.25039055,0.446957909 L9.25039055,0.446957909 L10.2077125,0.0502497058 C10.2859677,0.0158683281 10.3694399,0 10.4529121,0 Z M9.00255634,2.06023794 C8.07917107,2.06023794 7.18181871,2.24272371 6.33668865,2.60505054 C5.52283458,2.95415376 4.78981813,3.45400609 4.16119412,4.09138394 C3.5325701,4.72876179 3.03953627,5.46928377 2.69521339,6.29708155 C2.33784798,7.15397127 2.15786102,8.06375542 2.15786102,8.99998678 C2.15786102,9.93619169 2.33787407,10.8460023 2.69521339,11.702892 C2.82563872,12.0202586 2.9795667,12.3217568 3.15433664,12.6126761 C3.43605536,13.0807654 3.7725788,13.5145261 4.1612202,13.9085896 C4.78984421,14.545941 5.52022607,15.0458198 6.33671473,15.3948966 C7.18184479,15.7572763 8.07919716,15.9397092 9.00258242,15.9397092 C9.92599377,15.9397092 10.8233461,15.7572498 11.6684762,15.3948966 C12.4823303,15.0458198 13.2152945,14.5459675 13.8439707,13.9085896 C14.2326382,13.5171444 14.5691356,13.0807654 14.8508543,12.6126761 C15.0256503,12.3217304 15.1769176,12.0175874 15.3099775,11.702892 C15.6673169,10.8460023 15.8472777,9.93621814 15.8472777,8.99998678 C15.8472777,8.06375542 15.6672647,7.15397127 15.3099254,6.29708155 C14.9656025,5.47192849 14.4725947,4.72876179 13.8439446,4.09138394 C13.2152945,3.45400609 12.4849127,2.95415376 11.6684501,2.60505054 C10.82332,2.24272371 9.92596768,2.06023794 9.00255634,2.06023794 Z M9,3 C12.3135484,3 15,5.68644584 15,8.9999871 C15,9.54966333 14.9251355,10.0838557 14.7858065,10.5896611 C14.0890323,13.1316169 11.7612903,15 9,15 C6.23870968,15 3.91096774,13.1315911 3.21419355,10.5896611 C3.07483871,10.0838557 3,9.54966333 3,8.9999871 C3,5.68644584 5.68645161,3 9,3 Z" id="Combined-Shape" fill="#05C0A5" fill-rule="nonzero"></path>
                                        <path d="M12.7516129,8.69500287 C12.7516129,8.69500287 13.0628428,8.22458357 12.6603188,7.86674325 C12.1582013,7.42044802 10.7929397,7.71797817 10.7929397,7.71797817 L10.7929397,7.71797817 C10.6974959,7.73406088 10.5979024,7.75416427 10.4900093,7.77828834 C10.4900093,7.77828834 10.01694,7.99138426 10.4900093,6.60425043 C10.9630787,5.2171166 10.1746298,5 9.84265124,5 C9.51067273,5 9.62271548,5.6875359 9.62271548,5.6875359 C9.62271548,5.6875359 8.91311142,7.58127513 8.23670521,8.08385985 C8.05826676,8.26881103 7.9586732,8.47386559 7.90887643,8.61860999 C7.80098341,8.53015508 7.66404228,8.47788627 7.51465195,8.47788627 L6.60586078,8.47788627 C6.26973254,8.47788627 6,8.74325101 6,9.06490523 L6,11.412981 C6,11.7386559 6.27388227,12 6.60586078,12 L7.51465195,12 C7.63914389,12 7.75533637,11.9638139 7.85078019,11.8994831 C7.87152885,11.8793797 7.99187105,11.76278 7.99187105,11.4371051 L7.99187105,9.97759908 C7.99187105,10.0338886 8.00017052,11.7869041 9.04175309,11.8954624 C9.41522891,11.9195864 9.87584909,11.9396898 10.3364693,11.9316485 C10.7555921,11.9638139 11.2037631,11.9678346 11.5564903,11.8954624 C12.7599124,11.6461804 12.4611317,10.8340034 12.4611317,10.8340034 C13.1126396,10.3595635 12.7433135,9.76852384 12.7433135,9.76852384 C13.3159764,9.18552556 12.7516129,8.69500287 12.7516129,8.69500287 Z" id="Path" fill="#FFFFFF" fill-rule="nonzero"></path>
                                    </g>
                                </g>
                            </g>
                        </g>
                    </g>
                </g>
            </g>
        </g>
    </g>
</svg>