<svg width="48" height="49" viewBox="0 0 48 49" fill="none" xmlns="http://www.w3.org/2000/svg">
<rect y="0.600098" width="48" height="48" rx="24" fill="#F2FAFA"/>
<path d="M30 18.6001H28C28 16.3901 26.21 14.6001 24 14.6001C21.79 14.6001 20 16.3901 20 18.6001H18C16.9 18.6001 16 19.5001 16 20.6001V32.6001C16 33.7001 16.9 34.6001 18 34.6001H30C31.1 34.6001 32 33.7001 32 32.6001V20.6001C32 19.5001 31.1 18.6001 30 18.6001ZM24 16.6001C25.1 16.6001 26 17.5001 26 18.6001H22C22 17.5001 22.9 16.6001 24 16.6001ZM30 32.6001H18V20.6001H20V22.6001C20 23.1501 20.45 23.6001 21 23.6001C21.55 23.6001 22 23.1501 22 22.6001V20.6001H26V22.6001C26 23.1501 26.45 23.6001 27 23.6001C27.55 23.6001 28 23.1501 28 22.6001V20.6001H30V32.6001Z" fill="#05C0A5"/>
</svg>
