<?xml version="1.0" encoding="UTF-8"?>
<svg width="25px" height="25px" viewBox="0 0 25 25" version="1.1" xmlns="http://www.w3.org/2000/svg" xmlns:xlink="http://www.w3.org/1999/xlink">
    <!-- Generator: Sketch 55.2 (78181) - https://sketchapp.com -->
    <title>icon3</title>
    <desc>Created with Sketch.</desc>
    <g id="Landing-page" stroke="none" stroke-width="1" fill="none" fill-rule="evenodd">
        <g id="Group-4" transform="translate(2.000000, 2.000000)" fill="#8698A3" fill-rule="nonzero" stroke="#8698A3">
            <g id="message" stroke-width="0.5">
                <path d="M21.0636336,7.45799609 C21.0635924,7.4262313 21.056511,7.3782541 21.0442007,7.35061461 C21.0117989,7.23287864 20.9397902,7.12533215 20.8320036,7.05025175 L17.8144729,4.94849555 L17.8144729,2.69542345 C17.8144729,2.39675197 17.5727148,2.15451454 17.2746342,2.15451454 L13.8031071,2.15451454 L10.8493508,0.0968990092 C10.6647385,-0.0318515034 10.4196455,-0.032387792 10.2344567,0.095826432 L7.26163817,2.15451454 L3.80530327,2.15451454 C3.50714035,2.15451454 3.26546452,2.39675197 3.26546452,2.69542345 L3.26546452,4.92196989 L0.233276874,7.0217872 C0.0841130697,7.12508464 0.00341722212,7.29022027 0.000864598367,7.45906866 C0.000699912963,7.46224514 0,7.46525661 0,7.46855685 L0.0160979982,19.1940942 C0.0163038549,19.3375307 0.0733673471,19.4750269 0.174690041,19.5763442 C0.275889222,19.6774552 0.41298982,19.7342193 0.55593675,19.7342193 C0.556224949,19.7342193 0.556430806,19.7342193 0.556677834,19.7342193 L20.5406339,19.7067035 C20.8387145,19.706291 21.0801433,19.4637648 21.0797321,19.1650521 L21.0636336,7.45799609 Z M17.8144318,6.26607409 L19.539429,7.467278 L17.8144318,8.66889445 L17.8144318,6.26607409 Z M10.5404834,1.19921956 L11.9119011,2.15447329 L9.16116078,2.15447329 L10.5404834,1.19921956 Z M4.34514202,3.23633237 L16.7347543,3.23633237 L16.7347543,9.42101856 L12.5749657,12.3187095 L10.878953,11.0005122 C10.8763181,10.9984495 10.8740537,10.9971707 10.871501,10.9953143 C10.6819481,10.8528266 10.4138403,10.8475874 10.2171236,11.0005122 L8.50880072,12.328239 L4.34514202,9.44494528 L4.34514202,3.23633237 Z M3.26546452,6.23699074 L3.26546452,8.69731775 L1.48908542,7.4671955 L3.26546452,6.23699074 Z M1.08107733,8.50029357 L7.61369439,13.0238878 L1.09425216,18.0907423 L1.08107733,8.50029357 Z M2.13576382,18.6502563 L10.5480589,12.1123209 L18.9301754,18.6271134 L2.13576382,18.6502563 Z M13.4689604,13.0135333 L19.9853971,8.4742217 L19.9985719,18.0885971 L13.4689604,13.0135333 Z" id="Shape"></path>
            </g>
            <g id="check" transform="translate(7.000000, 4.000000)" stroke-width="0.6">
                <g id="Group-2">
                    <path d="M7.15649073,1.57284332 L3.18686701,5.84073578 C3.06777495,5.9687798 2.91144566,6.03322259 2.75511635,6.03322259 C2.59878703,6.03322259 2.44245774,5.9687798 2.32336568,5.84073578 L0.338609743,3.70678955 C0.0997546702,3.45010046 0.0997546702,3.03506958 0.338609743,2.77838049 C0.577352972,2.52157113 0.963256002,2.52157113 1.20211108,2.77838049 L2.75511635,4.44812218 L6.2929894,0.644434255 C6.53173263,0.387624905 6.91763566,0.387624905 7.15649073,0.644434255 C7.39523399,0.901123354 7.39523399,1.31603397 7.15649073,1.57284332 Z" id="Path"></path>
                </g>
            </g>
        </g>
    </g>
</svg>