<svg
    width="28"
    height="28"
    viewBox="0 0 28 28"
    fill="none"
    xmlns="http://www.w3.org/2000/svg"
  >
    <g filter="url(#filter0_d_1035_11489)">
      <path
        d="M2.5 10.3C2.5 7.21971 2.5 5.67957 3.09946 4.50305C3.62677 3.46816 4.46816 2.62677 5.50305 2.09946C6.67957 1.5 8.21971 1.5 11.3 1.5H16.7C19.7803 1.5 21.3204 1.5 22.4969 2.09946C23.5318 2.62677 24.3732 3.46816 24.9005 4.50305C25.5 5.67957 25.5 7.21971 25.5 10.3V15.7C25.5 18.7803 25.5 20.3204 24.9005 21.4969C24.3732 22.5318 23.5318 23.3732 22.4969 23.9005C21.3204 24.5 19.7803 24.5 16.7 24.5H11.3C8.21971 24.5 6.67957 24.5 5.50305 23.9005C4.46816 23.3732 3.62677 22.5318 3.09946 21.4969C2.5 20.3204 2.5 18.7803 2.5 15.7V10.3Z"
        fill="url(#paint0_linear_1035_11489)"
      />
      <path
        d="M2.87671 4.38955C2.55603 5.01893 2.40196 5.73466 2.32576 6.66725C2.25 7.59456 2.25 8.75803 2.25 10.2883V10.3V15.7V15.7117C2.25 17.242 2.25 18.4054 2.32576 19.3327C2.40196 20.2653 2.55603 20.9811 2.87671 21.6104C3.42798 22.6924 4.30762 23.572 5.38955 24.1233C6.01893 24.444 6.73466 24.598 7.66725 24.6742C8.59456 24.75 9.75803 24.75 11.2883 24.75H11.3H16.7H16.7117C18.242 24.75 19.4054 24.75 20.3327 24.6742C21.2653 24.598 21.9811 24.444 22.6104 24.1233C23.6924 23.572 24.572 22.6924 25.1233 21.6104C25.444 20.9811 25.598 20.2653 25.6742 19.3327C25.75 18.4054 25.75 17.242 25.75 15.7117V15.7V10.3V10.2883C25.75 8.75803 25.75 7.59456 25.6742 6.66725C25.598 5.73466 25.444 5.01893 25.1233 4.38955C24.572 3.30762 23.6924 2.42798 22.6104 1.87671C21.9811 1.55603 21.2653 1.40196 20.3327 1.32576C19.4054 1.25 18.242 1.25 16.7117 1.25H16.7H11.3H11.2883C9.75803 1.25 8.59456 1.25 7.66725 1.32576C6.73466 1.40196 6.01893 1.55603 5.38955 1.87671C4.30762 2.42798 3.42798 3.30762 2.87671 4.38955Z"
        stroke="black"
        stroke-opacity="0.05"
        stroke-width="0.5"
      />
      <g filter="url(#filter1_ii_1035_11489)">
        <circle cx="14" cy="13" r="9.5" fill="url(#paint1_linear_1035_11489)" />
      </g>
      <g filter="url(#filter2_d_1035_11489)">
        <path
          fill-rule="evenodd"
          clip-rule="evenodd"
          d="M14 4C13.8619 4 13.75 4.11193 13.75 4.25V5.25C13.75 5.38807 13.8619 5.5 14 5.5C14.1381 5.5 14.25 5.38807 14.25 5.25V4.25C14.25 4.11193 14.1381 4 14 4ZM14 20.5C13.8619 20.5 13.75 20.6119 13.75 20.75V21.75C13.75 21.8881 13.8619 22 14 22C14.1381 22 14.25 21.8881 14.25 21.75V20.75C14.25 20.6119 14.1381 20.5 14 20.5ZM5.13674 11.4372C5.11276 11.5731 5.20356 11.7028 5.33953 11.7268L6.32434 11.9004C6.46031 11.9244 6.58997 11.8336 6.61395 11.6976C6.63793 11.5617 6.54713 11.432 6.41116 11.408L5.42635 11.2344C5.29038 11.2104 5.16071 11.3012 5.13674 11.4372ZM21.3861 14.3024C21.3621 14.4383 21.4529 14.568 21.5889 14.592L22.5737 14.7656C22.7096 14.7896 22.8393 14.6988 22.8633 14.5628C22.8873 14.4269 22.7965 14.2972 22.6605 14.2732L21.6757 14.0996C21.5397 14.0756 21.41 14.1664 21.3861 14.3024ZM5.69219 10.2422C5.56245 10.195 5.49555 10.0516 5.54278 9.92181C5.59 9.79207 5.73346 9.72517 5.8632 9.77239L6.8029 10.1144C6.93264 10.1616 6.99954 10.3051 6.95232 10.4348C6.90509 10.5646 6.76163 10.6315 6.63189 10.5843L5.69219 10.2422ZM21.1971 15.8856C21.0674 15.8383 21.0005 15.6949 21.0477 15.5651C21.0949 15.4354 21.2384 15.3685 21.3681 15.4157L22.3078 15.7577C22.4376 15.805 22.5045 15.9484 22.4572 16.0782C22.41 16.2079 22.2666 16.2748 22.1368 16.2276L21.1971 15.8856ZM6.20578 8.49999C6.13674 8.61957 6.17771 8.77246 6.29728 8.8415L7.16331 9.3415C7.28288 9.41053 7.43578 9.36957 7.50481 9.24999C7.57385 9.13042 7.53288 8.97752 7.41331 8.90849L6.54728 8.40849C6.42771 8.33945 6.27481 8.38042 6.20578 8.49999ZM20.4952 16.75C20.4262 16.8696 20.4671 17.0225 20.5867 17.0915L21.4527 17.5915C21.5723 17.6605 21.7252 17.6196 21.7942 17.5C21.8633 17.3804 21.8223 17.2275 21.7027 17.1585L20.8367 16.6585C20.7171 16.5895 20.5642 16.6304 20.4952 16.75ZM7.13642 7.56711C7.03065 7.47836 7.01685 7.32067 7.10561 7.2149C7.19436 7.10913 7.35204 7.09534 7.45781 7.18409L8.22386 7.82688C8.32963 7.91563 8.34342 8.07332 8.25467 8.17908C8.16592 8.28485 8.00823 8.29865 7.90246 8.2099L7.13642 7.56711ZM19.7762 18.1731C19.6704 18.0844 19.6566 17.9267 19.7453 17.8209C19.8341 17.7151 19.9918 17.7013 20.0975 17.7901L20.8636 18.4329C20.9694 18.5216 20.9832 18.6793 20.8944 18.7851C20.8057 18.8908 20.648 18.9046 20.5422 18.8159L19.7762 18.1731ZM8.21492 6.1056C8.10915 6.19435 8.09535 6.35204 8.1841 6.4578L8.82689 7.22385C8.91564 7.32962 9.07333 7.34341 9.1791 7.25466C9.28487 7.16591 9.29866 7.00822 9.20991 6.90245L8.56713 6.13641C8.47838 6.03064 8.32069 6.01684 8.21492 6.1056ZM18.8209 18.7453C18.7151 18.8341 18.7013 18.9918 18.7901 19.0975L19.4329 19.8636C19.5216 19.9693 19.6793 19.9831 19.7851 19.8944C19.8909 19.8056 19.9047 19.648 19.8159 19.5422L19.1731 18.7761C19.0844 18.6704 18.9267 18.6566 18.8209 18.7453ZM9.4085 5.54727C9.33946 5.4277 9.38043 5.2748 9.50001 5.20577C9.61958 5.13673 9.77248 5.1777 9.84151 5.29727L10.3415 6.1633C10.4105 6.28287 10.3696 6.43577 10.25 6.50481C10.1304 6.57384 9.97754 6.53287 9.9085 6.4133L9.4085 5.54727ZM17.6585 19.8367C17.5895 19.7171 17.6304 19.5642 17.75 19.4952C17.8696 19.4262 18.0225 19.4671 18.0915 19.5867L18.5915 20.4527C18.6605 20.5723 18.6196 20.7252 18.5 20.7942C18.3804 20.8633 18.2275 20.8223 18.1585 20.7027L17.6585 19.8367ZM10.9218 4.54276C10.7921 4.58999 10.7252 4.73345 10.7724 4.86319L11.1144 5.80289C11.1616 5.93263 11.3051 5.99953 11.4349 5.9523C11.5646 5.90508 11.6315 5.76162 11.5843 5.63188L11.2423 4.69218C11.195 4.56244 11.0516 4.49554 10.9218 4.54276ZM16.5652 20.0477C16.4354 20.0949 16.3685 20.2384 16.4157 20.3681L16.7578 21.3078C16.805 21.4376 16.9484 21.5045 17.0782 21.4572C17.2079 21.41 17.2748 21.2665 17.2276 21.1368L16.8856 20.1971C16.8384 20.0674 16.6949 20.0005 16.5652 20.0477ZM12.2344 4.42634C12.2104 4.29037 12.3012 4.1607 12.4372 4.13673C12.5731 4.11275 12.7028 4.20354 12.7268 4.33952L12.9004 5.32432C12.9244 5.4603 12.8336 5.58996 12.6976 5.61394C12.5617 5.63791 12.432 5.54712 12.408 5.41115L12.2344 4.42634ZM15.0996 20.6757C15.0756 20.5397 15.1664 20.41 15.3024 20.3861C15.4383 20.3621 15.568 20.4529 15.592 20.5888L15.7656 21.5737C15.7896 21.7096 15.6988 21.8393 15.5628 21.8633C15.4269 21.8872 15.2972 21.7965 15.2732 21.6605L15.0996 20.6757ZM23 13C23 12.8619 22.8881 12.75 22.75 12.75H21.75C21.6119 12.75 21.5 12.8619 21.5 13C21.5 13.1381 21.6119 13.25 21.75 13.25H22.75C22.8881 13.25 23 13.1381 23 13ZM6.5 13C6.5 12.8619 6.38807 12.75 6.25 12.75H5.25C5.11193 12.75 5 12.8619 5 13C5 13.1381 5.11193 13.25 5.25 13.25H6.25C6.38807 13.25 6.5 13.1381 6.5 13ZM22.5737 11.2344C22.7096 11.2104 22.8393 11.3012 22.8633 11.4372C22.8872 11.5731 22.7965 11.7028 22.6605 11.7268L21.6757 11.9004C21.5397 11.9244 21.41 11.8336 21.3861 11.6976C21.3621 11.5617 21.4529 11.432 21.5889 11.408L22.5737 11.2344ZM6.32433 14.0996C6.4603 14.0756 6.58997 14.1664 6.61394 14.3024C6.63792 14.4383 6.54713 14.568 6.41115 14.592L5.42634 14.7656C5.29037 14.7896 5.16071 14.6988 5.13673 14.5628C5.11275 14.4269 5.20355 14.2972 5.33952 14.2732L6.32433 14.0996ZM22.4572 9.92182C22.41 9.79208 22.2666 9.72518 22.1368 9.7724L21.1971 10.1144C21.0674 10.1616 21.0005 10.3051 21.0477 10.4349C21.0949 10.5646 21.2384 10.6315 21.3681 10.5843L22.3078 10.2422C22.4376 10.195 22.5045 10.0516 22.4572 9.92182ZM6.95231 15.5652C6.90508 15.4354 6.76162 15.3685 6.63188 15.4157L5.69219 15.7578C5.56244 15.805 5.49554 15.9484 5.54277 16.0782C5.58999 16.2079 5.73345 16.2748 5.86319 16.2276L6.80289 15.8856C6.93263 15.8384 6.99953 15.6949 6.95231 15.5652ZM21.4527 8.4085C21.5723 8.33946 21.7252 8.38043 21.7942 8.5C21.8633 8.61958 21.8223 8.77247 21.7027 8.84151L20.8367 9.34151C20.7171 9.41055 20.5642 9.36958 20.4952 9.25C20.4262 9.13043 20.4671 8.97753 20.5867 8.9085L21.4527 8.4085ZM7.16331 16.6585C7.28288 16.5895 7.43578 16.6304 7.50481 16.75C7.57385 16.8696 7.53288 17.0225 7.41331 17.0915L6.54728 17.5915C6.42771 17.6605 6.27481 17.6196 6.20577 17.5C6.13674 17.3804 6.17771 17.2275 6.29728 17.1585L7.16331 16.6585ZM19.7851 6.1056C19.6793 6.01685 19.5216 6.03065 19.4329 6.13642L18.7901 6.90246C18.7013 7.00823 18.7151 7.16592 18.8209 7.25467C18.9267 7.34342 19.0844 7.32962 19.1731 7.22385L19.8159 6.45781C19.9047 6.35204 19.8909 6.19435 19.7851 6.1056ZM9.17909 18.7453C9.07333 18.6566 8.91564 18.6704 8.82689 18.7761L8.1841 19.5422C8.09535 19.648 8.10914 19.8056 8.21491 19.8944C8.32068 19.9832 8.47837 19.9694 8.56712 19.8636L9.20991 19.0975C9.29866 18.9918 9.28486 18.8341 9.17909 18.7453ZM18.1585 5.29728C18.2275 5.17771 18.3804 5.13674 18.5 5.20577C18.6196 5.27481 18.6605 5.42771 18.5915 5.54728L18.0915 6.4133C18.0225 6.53288 17.8696 6.57385 17.75 6.50481C17.6304 6.43577 17.5895 6.28288 17.6585 6.1633L18.1585 5.29728ZM9.9085 19.5867C9.97753 19.4671 10.1304 19.4262 10.25 19.4952C10.3696 19.5642 10.4105 19.7171 10.3415 19.8367L9.84151 20.7027C9.77247 20.8223 9.61958 20.8633 9.5 20.7942C9.38043 20.7252 9.33946 20.5723 9.4085 20.4527L9.9085 19.5867ZM17.0782 4.54277C16.9484 4.49554 16.805 4.56244 16.7578 4.69219L16.4157 5.63188C16.3685 5.76162 16.4354 5.90508 16.5652 5.95231C16.6949 5.99953 16.8384 5.93263 16.8856 5.80289L17.2276 4.8632C17.2748 4.73345 17.2079 4.58999 17.0782 4.54277ZM11.4349 20.0477C11.3051 20.0005 11.1616 20.0674 11.1144 20.1971L10.7724 21.1368C10.7252 21.2666 10.7921 21.41 10.9218 21.4572C11.0516 21.5045 11.195 21.4376 11.2423 21.3078L11.5843 20.3681C11.6315 20.2384 11.5646 20.0949 11.4349 20.0477ZM15.2732 4.33952C15.2972 4.20355 15.4269 4.11276 15.5628 4.13673C15.6988 4.16071 15.7896 4.29037 15.7656 4.42634L15.592 5.41115C15.568 5.54713 15.4383 5.63792 15.3024 5.61394C15.1664 5.58997 15.0756 5.4603 15.0996 5.32433L15.2732 4.33952ZM12.408 20.5888C12.432 20.4529 12.5617 20.3621 12.6976 20.3861C12.8336 20.41 12.9244 20.5397 12.9004 20.6757L12.7268 21.6605C12.7028 21.7965 12.5731 21.8872 12.4372 21.8633C12.3012 21.8393 12.2104 21.7096 12.2344 21.5737L12.408 20.5888Z"
          fill="white"
        />
      </g>
      <g filter="url(#filter3_dd_1035_11489)">
        <path
          d="M20.8944 7.21491L14.8035 13.9576L7.10563 18.7851L13.1965 12.0424L20.8944 7.21491Z"
          fill="white"
        />
        <path
          d="M20.8944 7.21491L14.8035 13.9576L13.1965 12.0424L20.8944 7.21491Z"
          fill="#ED6C60"
        />
        <path
          opacity="0.3"
          d="M20.8944 7.2149L14.8035 13.9575L7.10561 18.7851L20.8944 7.2149Z"
          fill="black"
        />
      </g>
    </g>
    <defs>
      <filter
        id="filter0_d_1035_11489"
        x="0"
        y="0"
        width="28"
        height="28"
        filterUnits="userSpaceOnUse"
        color-interpolation-filters="sRGB"
      >
        <feFlood flood-opacity="0" result="BackgroundImageFix" />
        <feColorMatrix
          in="SourceAlpha"
          type="matrix"
          values="0 0 0 0 0 0 0 0 0 0 0 0 0 0 0 0 0 0 127 0"
          result="hardAlpha"
        />
        <feOffset dy="1" />
        <feGaussianBlur stdDeviation="1" />
        <feColorMatrix
          type="matrix"
          values="0 0 0 0 0 0 0 0 0 0 0 0 0 0 0 0 0 0 0.25 0"
        />
        <feBlend
          mode="normal"
          in2="BackgroundImageFix"
          result="effect1_dropShadow_1035_11489"
        />
        <feBlend
          mode="normal"
          in="SourceGraphic"
          in2="effect1_dropShadow_1035_11489"
          result="shape"
        />
      </filter>
      <filter
        id="filter1_ii_1035_11489"
        x="4.5"
        y="2.5"
        width="19"
        height="21"
        filterUnits="userSpaceOnUse"
        color-interpolation-filters="sRGB"
      >
        <feFlood flood-opacity="0" result="BackgroundImageFix" />
        <feBlend
          mode="normal"
          in="SourceGraphic"
          in2="BackgroundImageFix"
          result="shape"
        />
        <feColorMatrix
          in="SourceAlpha"
          type="matrix"
          values="0 0 0 0 0 0 0 0 0 0 0 0 0 0 0 0 0 0 127 0"
          result="hardAlpha"
        />
        <feOffset dy="1" />
        <feGaussianBlur stdDeviation="0.75" />
        <feComposite in2="hardAlpha" operator="arithmetic" k2="-1" k3="1" />
        <feColorMatrix
          type="matrix"
          values="0 0 0 0 0 0 0 0 0 0 0 0 0 0 0 0 0 0 0.4 0"
        />
        <feBlend
          mode="normal"
          in2="shape"
          result="effect1_innerShadow_1035_11489"
        />
        <feColorMatrix
          in="SourceAlpha"
          type="matrix"
          values="0 0 0 0 0 0 0 0 0 0 0 0 0 0 0 0 0 0 127 0"
          result="hardAlpha"
        />
        <feOffset dy="-1" />
        <feGaussianBlur stdDeviation="0.5" />
        <feComposite in2="hardAlpha" operator="arithmetic" k2="-1" k3="1" />
        <feColorMatrix
          type="matrix"
          values="0 0 0 0 1 0 0 0 0 1 0 0 0 0 1 0 0 0 0.3 0"
        />
        <feBlend
          mode="overlay"
          in2="effect1_innerShadow_1035_11489"
          result="effect2_innerShadow_1035_11489"
        />
      </filter>
      <filter
        id="filter2_d_1035_11489"
        x="4.3"
        y="3.8"
        width="19.4"
        height="19.4"
        filterUnits="userSpaceOnUse"
        color-interpolation-filters="sRGB"
      >
        <feFlood flood-opacity="0" result="BackgroundImageFix" />
        <feColorMatrix
          in="SourceAlpha"
          type="matrix"
          values="0 0 0 0 0 0 0 0 0 0 0 0 0 0 0 0 0 0 127 0"
          result="hardAlpha"
        />
        <feOffset dy="0.5" />
        <feGaussianBlur stdDeviation="0.35" />
        <feComposite in2="hardAlpha" operator="out" />
        <feColorMatrix
          type="matrix"
          values="0 0 0 0 0 0 0 0 0 0 0 0 0 0 0 0 0 0 0.4 0"
        />
        <feBlend
          mode="normal"
          in2="BackgroundImageFix"
          result="effect1_dropShadow_1035_11489"
        />
        <feBlend
          mode="normal"
          in="SourceGraphic"
          in2="effect1_dropShadow_1035_11489"
          result="shape"
        />
      </filter>
      <filter
        id="filter3_dd_1035_11489"
        x="4.10559"
        y="6.2149"
        width="19.7888"
        height="17.5702"
        filterUnits="userSpaceOnUse"
        color-interpolation-filters="sRGB"
      >
        <feFlood flood-opacity="0" result="BackgroundImageFix" />
        <feColorMatrix
          in="SourceAlpha"
          type="matrix"
          values="0 0 0 0 0 0 0 0 0 0 0 0 0 0 0 0 0 0 127 0"
          result="hardAlpha"
        />
        <feOffset dy="2" />
        <feGaussianBlur stdDeviation="1.5" />
        <feColorMatrix
          type="matrix"
          values="0 0 0 0 0 0 0 0 0 0 0 0 0 0 0 0 0 0 0.55 0"
        />
        <feBlend
          mode="normal"
          in2="BackgroundImageFix"
          result="effect1_dropShadow_1035_11489"
        />
        <feColorMatrix
          in="SourceAlpha"
          type="matrix"
          values="0 0 0 0 0 0 0 0 0 0 0 0 0 0 0 0 0 0 127 0"
          result="hardAlpha"
        />
        <feOffset dy="0.5" />
        <feGaussianBlur stdDeviation="0.5" />
        <feColorMatrix
          type="matrix"
          values="0 0 0 0 0 0 0 0 0 0 0 0 0 0 0 0 0 0 0.25 0"
        />
        <feBlend
          mode="normal"
          in2="effect1_dropShadow_1035_11489"
          result="effect2_dropShadow_1035_11489"
        />
        <feBlend
          mode="normal"
          in="SourceGraphic"
          in2="effect2_dropShadow_1035_11489"
          result="shape"
        />
      </filter>
      <linearGradient
        id="paint0_linear_1035_11489"
        x1="14"
        y1="1.5"
        x2="14"
        y2="24.5"
        gradientUnits="userSpaceOnUse"
      >
        <stop stop-color="#FDFDFD" />
        <stop offset="1" stop-color="#D1D1D1" />
      </linearGradient>
      <linearGradient
        id="paint1_linear_1035_11489"
        x1="14"
        y1="3.5"
        x2="14"
        y2="22.5"
        gradientUnits="userSpaceOnUse"
      >
        <stop stop-color="#4DA0E8" />
        <stop offset="0.515625" stop-color="#4993E9" />
        <stop offset="1" stop-color="#356BDB" />
      </linearGradient>
    </defs>
  </svg>