<svg width="45" height="20" viewBox="0 0 45 20" fill="none" xmlns="http://www.w3.org/2000/svg">
<path d="M7.66671 2.66667L1.33337 6.00001V7.33334H14V6.00001L7.66671 2.66667ZM10.6667 8.66667V13.3333H12.6667V8.66667H10.6667ZM1.33337 16.6667H14V14.6667H1.33337V16.6667ZM6.66671 8.66667V13.3333H8.66671V8.66667H6.66671ZM2.66671 8.66667V13.3333H4.66671V8.66667H2.66671Z" fill="#5A678A"/>
<path d="M22.0312 10.0098H19.8691L19.8574 9.10156H21.8203C22.1445 9.10156 22.4277 9.04688 22.6699 8.9375C22.9121 8.82812 23.0996 8.67188 23.2324 8.46875C23.3691 8.26172 23.4375 8.01562 23.4375 7.73047C23.4375 7.41797 23.377 7.16406 23.2559 6.96875C23.1387 6.76953 22.957 6.625 22.7109 6.53516C22.4688 6.44141 22.1602 6.39453 21.7852 6.39453H20.1211V14H18.9902V5.46875H21.7852C22.2227 5.46875 22.6133 5.51367 22.957 5.60352C23.3008 5.68945 23.5918 5.82617 23.8301 6.01367C24.0723 6.19727 24.2559 6.43164 24.3809 6.7168C24.5059 7.00195 24.5684 7.34375 24.5684 7.74219C24.5684 8.09375 24.4785 8.41211 24.2988 8.69727C24.1191 8.97852 23.8691 9.20898 23.5488 9.38867C23.2324 9.56836 22.8613 9.68359 22.4355 9.73438L22.0312 10.0098ZM21.9785 14H19.4238L20.0625 13.0801H21.9785C22.3379 13.0801 22.6426 13.0176 22.8926 12.8926C23.1465 12.7676 23.3398 12.5918 23.4727 12.3652C23.6055 12.1348 23.6719 11.8633 23.6719 11.5508C23.6719 11.2344 23.6152 10.9609 23.502 10.7305C23.3887 10.5 23.2109 10.3223 22.9688 10.1973C22.7266 10.0723 22.4141 10.0098 22.0312 10.0098H20.4199L20.4316 9.10156H22.6348L22.875 9.42969C23.2852 9.46484 23.6328 9.58203 23.918 9.78125C24.2031 9.97656 24.4199 10.2266 24.5684 10.5312C24.7207 10.8359 24.7969 11.1719 24.7969 11.5391C24.7969 12.0703 24.6797 12.5195 24.4453 12.8867C24.2148 13.25 23.8887 13.5273 23.4668 13.7188C23.0449 13.9062 22.5488 14 21.9785 14ZM30.041 12.916V9.65234C30.041 9.40234 29.9902 9.18555 29.8887 9.00195C29.791 8.81445 29.6426 8.66992 29.4434 8.56836C29.2441 8.4668 28.998 8.41602 28.7051 8.41602C28.4316 8.41602 28.1914 8.46289 27.9844 8.55664C27.7812 8.65039 27.6211 8.77344 27.5039 8.92578C27.3906 9.07812 27.334 9.24219 27.334 9.41797H26.25C26.25 9.19141 26.3086 8.9668 26.4258 8.74414C26.543 8.52148 26.7109 8.32031 26.9297 8.14062C27.1523 7.95703 27.418 7.8125 27.7266 7.70703C28.0391 7.59766 28.3867 7.54297 28.7695 7.54297C29.2305 7.54297 29.6367 7.62109 29.9883 7.77734C30.3438 7.93359 30.6211 8.16992 30.8203 8.48633C31.0234 8.79883 31.125 9.19141 31.125 9.66406V12.6172C31.125 12.8281 31.1426 13.0527 31.1777 13.291C31.2168 13.5293 31.2734 13.7344 31.3477 13.9062V14H30.2168C30.1621 13.875 30.1191 13.709 30.0879 13.502C30.0566 13.291 30.041 13.0957 30.041 12.916ZM30.2285 10.1562L30.2402 10.918H29.1445C28.8359 10.918 28.5605 10.9434 28.3184 10.9941C28.0762 11.041 27.873 11.1133 27.709 11.2109C27.5449 11.3086 27.4199 11.4316 27.334 11.5801C27.248 11.7246 27.2051 11.8945 27.2051 12.0898C27.2051 12.2891 27.25 12.4707 27.3398 12.6348C27.4297 12.7988 27.5645 12.9297 27.7441 13.0273C27.9277 13.1211 28.1523 13.168 28.418 13.168C28.75 13.168 29.043 13.0977 29.2969 12.957C29.5508 12.8164 29.752 12.6445 29.9004 12.4414C30.0527 12.2383 30.1348 12.041 30.1465 11.8496L30.6094 12.3711C30.582 12.5352 30.5078 12.7168 30.3867 12.916C30.2656 13.1152 30.1035 13.3066 29.9004 13.4902C29.7012 13.6699 29.4629 13.8203 29.1855 13.9414C28.9121 14.0586 28.6035 14.1172 28.2598 14.1172C27.8301 14.1172 27.4531 14.0332 27.1289 13.8652C26.8086 13.6973 26.5586 13.4727 26.3789 13.1914C26.2031 12.9062 26.1152 12.5879 26.1152 12.2363C26.1152 11.8965 26.1816 11.5977 26.3145 11.3398C26.4473 11.0781 26.6387 10.8613 26.8887 10.6895C27.1387 10.5137 27.4395 10.3809 27.791 10.291C28.1426 10.2012 28.5352 10.1562 28.9688 10.1562H30.2285ZM33.9141 9.01367V14H32.8301V7.66016H33.8555L33.9141 9.01367ZM33.6562 10.5898L33.2051 10.5723C33.209 10.1387 33.2734 9.73828 33.3984 9.37109C33.5234 9 33.6992 8.67773 33.9258 8.4043C34.1523 8.13086 34.4219 7.91992 34.7344 7.77148C35.0508 7.61914 35.4004 7.54297 35.7832 7.54297C36.0957 7.54297 36.377 7.58594 36.627 7.67188C36.877 7.75391 37.0898 7.88672 37.2656 8.07031C37.4453 8.25391 37.582 8.49219 37.6758 8.78516C37.7695 9.07422 37.8164 9.42773 37.8164 9.8457V14H36.7266V9.83398C36.7266 9.50195 36.6777 9.23633 36.5801 9.03711C36.4824 8.83398 36.3398 8.6875 36.1523 8.59766C35.9648 8.50391 35.7344 8.45703 35.4609 8.45703C35.1914 8.45703 34.9453 8.51367 34.7227 8.62695C34.5039 8.74023 34.3145 8.89648 34.1543 9.0957C33.998 9.29492 33.875 9.52344 33.7852 9.78125C33.6992 10.0352 33.6562 10.3047 33.6562 10.5898ZM40.5527 5V14H39.4629V5H40.5527ZM44.4258 7.66016L41.6602 10.6191L40.1133 12.2246L40.0254 11.0703L41.1328 9.74609L43.1016 7.66016H44.4258ZM43.4355 14L41.1738 10.9766L41.7363 10.0098L44.7129 14H43.4355Z" fill="#4E546C"/>
</svg>
