<svg width="54" height="54" viewBox="0 0 54 54" fill="none" xmlns="http://www.w3.org/2000/svg">
<path fill-rule="evenodd" clip-rule="evenodd" d="M3.00572 3.00617C4.93026 1.08165 7.54046 0.000441929 10.2622 0.000441929L53.3296 0V7.87413C53.3296 9.83046 52.5523 11.7067 51.169 13.09C49.7857 14.4733 47.9095 15.2504 45.9532 15.2504H25.7045C22.9828 15.2504 20.3726 16.3316 18.448 18.2561C16.5235 20.1807 15.4423 22.7909 15.4423 25.5126V28.1242C15.4423 30.8459 16.5235 33.4561 18.448 35.3806C20.3726 37.3051 22.9828 38.3863 25.7045 38.3863H45.9532C47.9095 38.3863 49.7857 39.1635 51.169 40.5468C52.5523 41.9301 53.3296 43.8063 53.3296 45.7626V53.33H10.2622C7.54046 53.33 4.93026 52.2488 3.00572 50.3243C1.0812 48.3997 0 45.7895 0 43.0678V10.2626C0 7.5409 1.0812 4.9307 3.00572 3.00617ZM26.1479 19.5423H46.9157C50.458 19.5423 53.3295 22.4138 53.3295 25.9561V27.6816C53.3295 31.2238 50.458 34.0954 46.9157 34.0954H26.1479C22.6057 34.0954 19.7341 31.2238 19.7341 27.6816V25.9561C19.7341 22.4138 22.6057 19.5423 26.1479 19.5423Z" fill="url(#paint0_linear_287_2360)"/>
<defs>
<linearGradient id="paint0_linear_287_2360" x1="5.36017" y1="-7.21007e-08" x2="42.7696" y2="55.8005" gradientUnits="userSpaceOnUse">
<stop stop-color="#C549FF"/>
<stop offset="1" stop-color="#654BFF"/>
</linearGradient>
</defs>
</svg>
