<?xml version="1.0" encoding="UTF-8"?>
<svg width="65px" height="55px" viewBox="0 0 65 55" version="1.1" xmlns="http://www.w3.org/2000/svg" xmlns:xlink="http://www.w3.org/1999/xlink">
    <!-- Generator: Sketch 55.2 (78181) - https://sketchapp.com -->
    <title>Group 65</title>
    <desc>Created with Sketch.</desc>
    <g id="Landing-page" stroke="none" stroke-width="1" fill="none" fill-rule="evenodd">
        <g id="how-it-works" transform="translate(-581.000000, -3324.000000)" fill-rule="nonzero">
            <g id="Group-65" transform="translate(581.000000, 3319.000000)">
                <g id="Group-59" transform="translate(0.000000, 5.000000)">
                    <path d="M32.162386,17 L6.83761403,17 C3.06729895,17 0,20.1151147 0,23.9440683 L0,39.8073995 C0,43.636353 3.06729895,46.7513566 6.83761403,46.7513566 L22.9681472,46.7514677 L30.6898374,54.5931397 C30.9515266,54.8590099 31.3011748,55 31.6571683,55 C31.8333053,55 32.0109738,54.9653358 32.1801091,54.8941185 C32.691125,54.6792447 33.0243629,54.173058 33.0243629,53.6112086 L33.0243629,46.6964716 C36.3894537,46.2648352 39,43.3399294 39,39.8073995 L39,23.9440683 C39,20.1151147 35.932701,17 32.162386,17 Z" id="Shape-Copy" fill="#5A78F0" transform="translate(19.500000, 36.000000) scale(-1, 1) translate(-19.500000, -36.000000) "></path>
                    <path d="M55.357211,0 L19.642789,0 C14.325678,0 10,4.26278858 10,9.50240919 L10,31.2101256 C10,36.4497462 14.325678,40.7123828 19.642789,40.7123828 L42.3909769,40.7125348 L53.2805399,51.4432437 C53.6495888,51.8070662 54.1426824,52 54.6447246,52 C54.8931228,52 55.1436811,51.9525647 55.3822051,51.8551096 C56.1028686,51.5610717 56.5728195,50.8683952 56.5728195,50.0995486 L56.5728195,40.6372769 C61.3184603,40.0466166 65,36.0441139 65,31.2101256 L65,9.50240919 C65,4.26278858 60.674322,0 55.357211,0 Z" id="Shape" fill="#CDF4EE"></path>
                    <path d="M21.8904122,23.6491612 C21.3490828,23.3619036 20.9998745,22.7389887 21,22.0621059 L21,21.9368947 C21,21.2590125 21.3494595,20.635812 21.8902867,20.3496966 L29.8112008,16.1617609 C30.011735,16.0558239 30.2357507,16 30.4591386,16 C30.7553567,16 31.0422826,16.0946579 31.2885241,16.2735515 C31.7339186,16.5960738 32,17.1478882 32,17.748959 L32,17.7945033 C32,18.472671 31.6502894,19.095586 31.1089599,19.3817014 L26.1546215,21.9992861 L31.1089599,24.6165854 C31.6502894,24.9024152 32,25.5254729 32,26.2039262 L32,26.2498989 C32,26.850113 31.7339186,27.4016419 31.2885241,27.7253064 C31.0397712,27.9051993 30.7535987,28 30.4600176,28 C30.2346206,28 30.0166322,27.9453183 29.8118286,27.8375253 L21.8904122,23.6491612 Z M35.2929214,28.3363967 C35.0072014,27.9212159 34.9244308,27.3808343 35.0714542,26.8899262 L37.986412,16.1235081 C38.1891129,15.4518571 38.7724838,15 39.4378796,15 L39.4770279,15 C39.9615961,15 40.4215568,15.2480267 40.7075254,15.6636033 C40.9936182,16.0798396 41.0757674,16.6210127 40.9276255,17.1112612 L38.0131648,27.87636 C37.8104639,28.548011 37.2277144,29 36.5625672,29 L36.5232946,29 C36.0388507,29 35.57889,28.7518414 35.2929214,28.3363967 Z M44,17.7943605 L44,17.7942177 L44.0003767,17.7942177 L44.0003767,17.7488162 C44.0003767,17.1477454 44.2664521,16.5960738 44.7123386,16.2729804 C44.9585745,16.0943724 45.2458706,16 45.5415796,16 C45.7649624,16 45.9887218,16.0558239 46.1884981,16.1614753 L54.1092314,20.3494111 C54.6505485,20.6355265 55,21.2587269 55,21.9366092 L55,22.0618203 C55,22.7389887 54.6505485,23.3619036 54.1097337,23.6487329 L46.1890004,27.8369542 C45.9828202,27.9453183 45.7649624,28 45.5398217,28 C45.2458706,28 44.959579,27.9049137 44.7117108,27.7253064 C44.2658242,27.4014991 44,26.8499703 44,26.2496133 L44,26.2036407 C44,25.5254729 44.3497026,24.9024152 44.8908941,24.6162998 L49.8451195,21.9992861 L44.8908941,19.3824152 C44.3494515,19.0948721 44,18.4718144 44,17.7943605 Z" id="Combined-Shape" fill="#00C0A5"></path>
                </g>
            </g>
        </g>
    </g>
</svg>