<?xml version="1.0" encoding="UTF-8"?>
<svg width="53px" height="63px" viewBox="0 0 53 63" version="1.1" xmlns="http://www.w3.org/2000/svg" xmlns:xlink="http://www.w3.org/1999/xlink">
    <!-- Generator: Sketch 55.2 (78181) - https://sketchapp.com -->
    <title>Group 63</title>
    <desc>Created with Sketch.</desc>
    <g id="Landing-page" stroke="none" stroke-width="1" fill="none" fill-rule="evenodd">
        <g id="how-it-works" transform="translate(-213.000000, -3319.000000)" fill-rule="nonzero">
            <g id="Group-63" transform="translate(212.000000, 3319.000000)">
                <g id="diploma" transform="translate(1.000000, 0.000000)">
                    <path d="M51.9484127,11.6357736 C52.5291693,11.6357736 53,11.1637228 53,10.5814612 L53,5.1942457 C53,2.33017095 50.6307037,0 47.7183677,0 L5.24391534,0 C2.30339683,0 0,2.28153201 0,5.1942457 L0,52.3009232 C0,55.2425953 2.35233069,57.6357439 5.24391534,57.6357439 L15.5634921,57.6357439 L28.8835979,57.6339164 L47.7182275,57.6006001 C50.6307037,57.6006001 53,55.223196 53,52.3009232 L53,46.9137077 C53,46.3314461 52.5291693,45.8593953 51.9484127,45.8593953 L44.5873016,45.8593953 L44.5873016,11.6357736 L51.9484127,11.6357736 Z" id="Path" fill="#CDF4EE"></path>
                    <path d="M11.5724079,15.5601751 C11.2244104,15.3755095 10.9999193,14.9750642 11,14.5399252 L11,14.4594323 C11,14.0236509 11.2246526,13.623022 11.5723272,13.4390907 L16.6643434,10.7468463 C16.7932583,10.6787439 16.9372684,10.6428571 17.0808748,10.6428571 C17.2713007,10.6428571 17.4557531,10.7037087 17.6140512,10.8187117 C17.9003762,11.0260474 18.0714286,11.3807852 18.0714286,11.7671879 L18.0714286,11.7964664 C18.0714286,12.2324314 17.8466146,12.6328767 17.4986171,12.816808 L14.3136853,14.4995411 L17.4986171,16.1820906 C17.8466146,16.3658384 18.0714286,16.7663755 18.0714286,17.202524 L18.0714286,17.2320778 C18.0714286,17.6179298 17.9003762,17.9724841 17.6140512,18.1805541 C17.4541387,18.2961995 17.2701706,18.3571429 17.0814399,18.3571429 C16.9365418,18.3571429 16.7964065,18.3219903 16.664747,18.2526948 L11.5724079,15.5601751 Z M20.1883066,18.5733979 C20.0046295,18.3064959 19.9514198,17.9591078 20.0459349,17.643524 L21.9198363,10.7222552 C22.050144,10.2904796 22.4251682,10 22.8529226,10 L22.8780894,10 C23.1895975,10 23.4852865,10.1594457 23.6691235,10.4266021 C23.8530403,10.6941826 23.9058505,11.0420796 23.8106164,11.3572393 L21.9370345,18.27766 C21.8067268,18.7094356 21.4321021,19 21.0045075,19 L20.9792609,19 C20.6678326,19 20.3721436,18.8404695 20.1883066,18.5733979 Z M26.1428572,11.7963746 L26.1428572,11.7962828 L26.1430993,11.7962828 L26.1430993,11.7670961 C26.1430993,11.3806935 26.3141478,11.0260474 26.6007891,10.8183445 C26.7590836,10.7035251 26.943774,10.6428571 27.1338726,10.6428571 C27.2774758,10.6428571 27.4213212,10.6787439 27.5497488,10.7466627 L32.6416488,13.4389071 C32.9896383,13.6228384 33.2142857,14.0234673 33.2142857,14.4592487 L33.2142857,14.5397417 C33.2142857,14.9750642 32.9896383,15.3755095 32.6419717,15.5598997 L27.5500717,18.2523277 C27.4175273,18.3219903 27.2774758,18.3571429 27.1327425,18.3571429 C26.943774,18.3571429 26.7597294,18.296016 26.6003855,18.1805541 C26.3137442,17.9723923 26.1428572,17.617838 26.1428572,17.2318943 L26.1428572,17.2023404 C26.1428572,16.7663755 26.367666,16.3658384 26.7155748,16.181907 L29.900434,14.4995411 L26.7155748,12.8172669 C26.3675046,12.6324178 26.1428572,12.2318807 26.1428572,11.7963746 Z" id="Combined-Shape" fill="#00C0A5"></path>
                    <path d="M50.8968254,52.3009232 C50.8968254,54.0297144 49.4429709,55.4902885 47.7193492,55.4919754 C45.992082,55.4841032 44.5873016,54.053331 44.5873016,52.3009232 L44.5873016,45.9680201 L50.8968254,45.9680201 L50.8968254,52.3009232 Z" id="Path" fill="#05C0A5"></path>
                    <path d="M16,63 L16,51 C17.8408,52.0693381 18.4585089,53.0785907 21,53.0785907 C23.5414911,53.0785907 25.1904,52.0954429 27,51.0735158 L27,63 L21.6192,60.2027527 C21.2294769,60.0000565 20.7705231,60.0000565 20.3808,60.2027527 L16,63 Z" id="Path" fill="#5A78F0"></path>
                    <path d="M26.4252751,51.7268157 C26.2780529,51.8058188 26.1521429,51.9189817 26.0572196,52.0556206 C24.7376878,53.1556198 23.0792646,53.7603734 21.3611111,53.7603734 C19.536537,53.7603734 17.7847328,53.0832237 16.4290265,51.8541766 C14.8854365,50.4530658 14,48.4577444 14,46.3801867 C14,42.3106815 17.3021243,39 21.3611111,39 C25.4200979,39 28.7222222,42.3106815 28.7222222,46.3801867 C28.7222222,48.4017956 27.8874021,50.3338582 26.4252751,51.7268157 Z" id="Path" fill="#05C0A5"></path>
                    <path d="M50.8968254,11.5271488 L44.5873016,11.5271488 L44.5873016,5.26453319 C44.5873016,3.53124362 45.9926429,2.11593468 47.7203307,2.10862478 C49.4721349,2.10974938 50.8968254,3.49342895 50.8968254,5.1942457 L50.8968254,11.5271488 Z" id="Path" fill="#05C0A5"></path>
                    <path d="M35.9186047,29 L7.08139535,29 C6.48417674,29 6,29.4477333 6,30 C6,30.5522667 6.48417674,31 7.08139535,31 L35.9186047,31 C36.5158233,31 37,30.5522667 37,30 C37,29.4477333 36.5158233,29 35.9186047,29 Z" id="Path" fill="#05C0A5"></path>
                    <path d="M36,24 L32,24 C31.4477333,24 31,24.4477333 31,25 C31,25.5522667 31.4477333,26 32,26 L36,26 C36.5522667,26 37,25.5522667 37,25 C37,24.4477333 36.5522667,24 36,24 Z" id="Path" fill="#05C0A5"></path>
                    <path d="M7.06451613,26 L26.9354839,26 C27.5233806,26 28,25.5522667 28,25 C28,24.4477333 27.5233806,24 26.9354839,24 L7.06451613,24 C6.47661935,24 6,24.4477333 6,25 C6,25.5522667 6.47661935,26 7.06451613,26 Z" id="Path" fill="#05C0A5"></path>
                </g>
            </g>
        </g>
    </g>
</svg>