<?xml version="1.0" encoding="UTF-8"?>
<svg width="58px" height="58px" viewBox="0 0 58 58" version="1.1" xmlns="http://www.w3.org/2000/svg" xmlns:xlink="http://www.w3.org/1999/xlink">
    <!-- Generator: Sketch 57.1 (83088) - https://sketch.com -->
    <title>Group 5</title>
    <desc>Created with Sketch.</desc>
    <defs>
        <filter x="-14.1%" y="-47.1%" width="128.2%" height="194.2%" filterUnits="objectBoundingBox" id="filter-1">
            <feOffset dx="0" dy="12" in="SourceAlpha" result="shadowOffsetOuter1"></feOffset>
            <feGaussianBlur stdDeviation="8.5" in="shadowOffsetOuter1" result="shadowBlurOuter1"></feGaussianBlur>
            <feColorMatrix values="0 0 0 0 0.0819970561   0 0 0 0 0.11507115   0 0 0 0 0.247367527  0 0 0 0.0332440997 0" type="matrix" in="shadowBlurOuter1" result="shadowMatrixOuter1"></feColorMatrix>
            <feMerge>
                <feMergeNode in="shadowMatrixOuter1"></feMergeNode>
                <feMergeNode in="SourceGraphic"></feMergeNode>
            </feMerge>
        </filter>
    </defs>
    <g id="Mobile-App_desktop" stroke="none" stroke-width="1" fill="none" fill-rule="evenodd">
        <g id="-Mobile-App-1" transform="translate(-820.000000, -213.000000)" fill="#3B99FC" fill-rule="nonzero">
            <g id="features-nav-bar-1" filter="url(#filter-1)" transform="translate(520.000000, 184.000000)">
                <g id="Group-5" transform="translate(284.000000, 14.000000)">
                    <g id="Group" transform="translate(16.000000, 15.000000)">
                        <g id="2019-10-23-14.10.22" transform="translate(0.500000, 12.000000)">
                            <g id="download" transform="translate(0.500000, 0.000000)">
                                <path d="M11.3422748,6.50776265 C20.3774176,-2.16925422 35.0262786,-2.16925422 44.061421,6.50776265 L45.1488151,7.55205551 C45.6005722,7.98590631 45.6005722,8.68931755 45.1488151,9.12316855 L41.4290571,12.6954864 C41.2031785,12.912412 40.836957,12.912412 40.6110783,12.6954864 L39.1146951,11.2584152 C32.8115538,5.20511139 22.5921423,5.20511139 16.2890007,11.2584152 L14.686498,12.7973999 C14.4606192,13.0143253 14.0943976,13.0143253 13.8685193,12.7973999 L10.1487613,9.22508203 C9.69700416,8.79123103 9.69700416,8.08781981 10.1487613,7.65396899 L11.3422748,6.50776265 Z M51.7542318,13.8956937 L55.0648235,17.0750746 C55.5165784,17.5089234 55.516581,18.2123305 55.0648292,18.6461822 L40.1371424,32.9824048 C39.6853884,33.4162589 38.9529454,33.4162637 38.5011851,32.982416 C38.5011833,32.9824142 38.5011811,32.9824121 38.5011792,32.9824102 L27.9064153,22.8075757 C27.793476,22.699113 27.6103652,22.699113 27.497426,22.8075757 C27.4974252,22.8075764 27.4974247,22.8075772 27.4974239,22.8075777 L16.9028857,32.9824048 C16.451133,33.4162599 15.7186899,33.4162672 15.2669282,32.9824206 C15.2669256,32.982418 15.2669228,32.9824155 15.2669199,32.9824126 L0.338817718,18.6459995 C-0.112939239,18.2121487 -0.112939239,17.5087374 0.338817718,17.0748866 L3.64941544,13.8955111 C4.1011724,13.4616603 4.83361555,13.4616603 5.28537271,13.8955111 L15.8802908,24.0704879 C15.9932302,24.1789506 16.1763407,24.1789506 16.2892801,24.0704879 C16.2892818,24.0704862 16.2892833,24.0704848 16.289285,24.0704835 L26.8836721,13.8955111 C27.3354189,13.4616503 28.0678621,13.461634 28.5196295,13.8954748 C28.5196358,13.8954809 28.5196421,13.895487 28.5196482,13.8954931 L39.1145524,24.0704835 C39.2274916,24.178946 39.4106024,24.178946 39.5235417,24.0704835 L50.1182746,13.8956937 C50.5700317,13.4618427 51.3024747,13.4618427 51.7542318,13.8956937 Z" id="WalletConnect"></path>
                            </g>
                        </g>
                    </g>
                </g>
            </g>
        </g>
    </g>
</svg>