<?xml version="1.0" encoding="UTF-8"?>
<svg width="25px" height="25px" viewBox="0 0 25 25" version="1.1" xmlns="http://www.w3.org/2000/svg" xmlns:xlink="http://www.w3.org/1999/xlink">
    <!-- Generator: Sketch 55.2 (78181) - https://sketchapp.com -->
    <title>icon8</title>
    <desc>Created with Sketch.</desc>
    <g id="Landing-page" stroke="none" stroke-width="1" fill="none" fill-rule="evenodd">
        <g id="Group-11" transform="translate(-0.000000, 3.000000)">
            <g id="Group-10" fill="#8698A3" fill-rule="nonzero">
                <path d="M20.1775835,14.9632375 C20.1751667,14.769399 20.1600616,14.5761682 20.1268303,14.3902291 C20.398118,14.1708695 20.942506,13.7327581 20.942506,13.7327581 L20.972112,12.8146078 L19.7177841,11.24324 L18.8030189,11.2134654 C18.8030189,11.2134654 18.3583246,11.5731907 18.1359775,11.7524458 C17.9045673,11.6309169 17.6592603,11.5282251 17.4030778,11.4486237 C17.3903895,11.1891596 17.3644087,10.6696239 17.3644087,10.6696239 L16.7390573,10 L14.7397456,10.0978307 L14.0727042,10.7261348 C14.0727042,10.7261348 14.1059354,11.4097345 14.1210405,11.7512305 C13.9228615,11.8563529 13.7337456,11.9772741 13.557318,12.1115635 C13.2811966,11.9730206 12.7271414,11.6965425 12.7271414,11.6965425 L11.8359402,11.9013186 L10.9423221,13.7060218 L10.9090909,13.8293735 L11.145939,14.6016893 C11.145939,14.6016893 11.788208,14.9213101 12.1096447,15.0823358 C12.1168951,15.2992648 12.1434801,15.5107249 12.1900038,15.7161086 C11.9344255,15.9190618 11.4232687,16.3292216 11.4232687,16.3292216 L11.3936627,17.2461567 L12.6383234,18.8248162 C12.6383234,18.8248162 13.3875366,18.9390533 13.4286225,18.9177857 C13.4697084,18.8965182 13.5518801,18.8545908 13.5518801,18.8545908 C13.5518801,18.8545908 14.0382645,18.4669138 14.2811546,18.2730753 C14.4769168,18.3702984 14.6823462,18.4523303 14.8974429,18.5173482 C14.912548,18.7883575 14.9445708,19.3303761 14.9445708,19.3303761 L15.5699222,20 L17.5668171,19.882117 L18.2338586,19.2550283 C18.2338586,19.2550283 18.1939811,18.5568451 18.1734381,18.2074497 C18.3383859,18.1187337 18.4991042,18.0202953 18.6501553,17.911527 C18.903921,18.0707298 19.4138694,18.3891353 19.4138694,18.3891353 L20.3050706,18.1837516 L21.3636364,16.4744486 L21.1594153,15.5775658 C21.1606237,15.5769581 20.5056664,15.167406 20.1775835,14.9632375 Z M16.0701539,16.8171098 C14.9415413,16.7809202 14.0552124,15.8363129 14.092015,14.7083045 C14.1282042,13.5772292 15.0734172,12.6927332 16.2014165,12.7283094 C17.3312559,12.7651122 18.2163581,13.7091062 18.1807822,14.8395681 C18.1439797,15.9688033 17.1999933,16.8532993 16.0701539,16.8171098 Z" id="Shape"></path>
                <path d="M24.3238114,10.5893299 C24.3238114,10.5893299 23.6118669,10.1455574 23.255284,9.92458928 C23.2528417,9.71402688 23.237577,9.50591289 23.2003312,9.30453199 C23.4958553,9.06642509 24.0875142,8.5914355 24.0875142,8.5914355 L24.1198753,7.59677301 L22.7558238,5.89391083 L21.7623986,5.86146953 C21.7623986,5.86146953 21.278203,6.25015302 21.0370211,6.44602502 C20.7854592,6.31319932 20.5192433,6.20179713 20.2389838,6.11610313 C20.2261615,5.83453713 20.198685,5.27201724 20.198685,5.27201724 L19.5203228,4.54545455 L17.3454116,4.65195994 L16.6212553,5.33261514 C16.6212553,5.33261514 16.6572799,6.07264403 16.6737658,6.44235242 C16.4576179,6.55681512 16.2530713,6.68658032 16.0619575,6.83409642 C15.7615486,6.68351982 15.1582886,6.38481502 15.1582886,6.38481502 L14.1911186,6.60700732 L13.2184534,8.5608305 L13.1818182,8.6954925 L13.4400965,9.53162109 C13.4400965,9.53162109 13.8955945,9.75809808 14.2552303,9.93683128 L14.6582178,9.55794139 L14.8230763,9.40430429 L15.0471617,9.39328649 L16.6688811,9.31432559 C16.9528041,8.392503 17.814953,7.73265921 18.8224217,7.76571261 C20.0326054,7.80427491 20.9808471,8.81791249 20.9417695,10.0304826 C20.9320001,10.3567319 20.8465179,10.6615577 20.710357,10.9357785 L21.8491019,12.3582989 L21.9907582,12.5351957 L21.9834311,12.7616727 L21.9645029,13.3480645 C22.2008001,13.4949685 22.4273279,13.6363636 22.4273279,13.6363636 L23.3957191,13.4141713 L24.5454545,11.5625689 L24.3238114,10.5893299 Z" id="Path"></path>
                <path d="M8.77456273,15.4545455 C7.81006227,15.4545455 7.02548046,14.6421537 7.02548046,13.6434659 L7.02548046,12.7982955 C7.02548046,11.7996077 7.81006227,10.9872159 8.77456273,10.9872159 C9.73906319,10.9872159 10.523645,11.7996077 10.523645,12.7982955 L10.523645,13.6434659 C10.523645,13.9769121 10.2626491,14.2471591 9.94061758,14.2471591 C9.61858602,14.2471591 9.35759015,13.9769121 9.35759015,13.6434659 L9.35759015,12.7982955 C9.35759015,12.4654388 9.09602493,12.1946023 8.77456273,12.1946023 C8.45310053,12.1946023 8.19153531,12.4654388 8.19153531,12.7982955 L8.19153531,13.6434659 C8.19153531,13.9763225 8.45310053,14.2471591 8.77456273,14.2471591 C9.09659428,14.2471591 9.35759015,14.5174061 9.35759015,14.8508523 C9.35759015,15.1842984 9.09659428,15.4545455 8.77456273,15.4545455 Z M4.40185705,15.4545455 C3.43735659,15.4545455 2.65277478,14.6421537 2.65277478,13.6434659 L2.65277478,12.7982955 C2.65277478,11.7996077 3.43735659,10.9872159 4.40185705,10.9872159 C5.36635751,10.9872159 6.15093932,11.7996077 6.15093932,12.7982955 L6.15093932,13.6434659 C6.15093932,13.9769121 5.88994345,14.2471591 5.5679119,14.2471591 C5.24588034,14.2471591 4.98488447,13.9769121 4.98488447,13.6434659 L4.98488447,12.7982955 C4.98488447,12.4654388 4.72331925,12.1946023 4.40185705,12.1946023 C4.08039485,12.1946023 3.81882963,12.4654388 3.81882963,12.7982955 L3.81882963,13.6434659 C3.81882963,13.9763225 4.08039485,14.2471591 4.40185705,14.2471591 C4.7238886,14.2471591 4.98488447,14.5174061 4.98488447,14.8508523 C4.98488447,15.1842984 4.7238886,15.4545455 4.40185705,15.4545455 Z M1.16605485,15.3639915 C0.844023294,15.3639915 0.583027424,15.0937445 0.583027424,14.7602983 L0.583027424,11.6814631 C0.583027424,11.3480169 0.844023294,11.0777699 1.16605485,11.0777699 C1.4880864,11.0777699 1.74908227,11.3480169 1.74908227,11.6814631 L1.74908227,14.7602983 C1.74908227,15.0937445 1.4880864,15.3639915 1.16605485,15.3639915 Z M8.19153531,9.99112216 C7.22703485,9.99112216 6.44245303,9.17873037 6.44245303,8.18004261 L6.44245303,7.33487216 C6.44245303,6.3361844 7.22703485,5.52379261 8.19153531,5.52379261 C9.15603577,5.52379261 9.94061758,6.3361844 9.94061758,7.33487216 L9.94061758,8.18004261 C9.94061758,8.51348877 9.67962171,8.7837358 9.35759015,8.7837358 C9.0355586,8.7837358 8.77456273,8.51348877 8.77456273,8.18004261 L8.77456273,7.33487216 C8.77456273,7.00201554 8.5129975,6.73117898 8.19153531,6.73117898 C7.87007311,6.73117898 7.60850788,7.00201554 7.60850788,7.33487216 L7.60850788,8.18004261 C7.60850788,8.51289923 7.87007311,8.7837358 8.19153531,8.7837358 C8.51356686,8.7837358 8.77456273,9.05398282 8.77456273,9.38742898 C8.77456273,9.72087513 8.51356686,9.99112216 8.19153531,9.99112216 Z M1.74908227,9.99112216 C0.784581812,9.99112216 0,9.17873037 0,8.18004261 L0,7.33487216 C0,6.3361844 0.784581812,5.52379261 1.74908227,5.52379261 C2.71358273,5.52379261 3.49816454,6.3361844 3.49816454,7.33487216 L3.49816454,8.18004261 C3.49816454,8.51348877 3.23716867,8.7837358 2.91513712,8.7837358 C2.59310557,8.7837358 2.3321097,8.51348877 2.3321097,8.18004261 L2.3321097,7.33487216 C2.3321097,7.00201554 2.07054447,6.73117898 1.74908227,6.73117898 C1.42762007,6.73117898 1.16605485,7.00201554 1.16605485,7.33487216 L1.16605485,8.18004261 C1.16605485,8.51289923 1.42762007,8.7837358 1.74908227,8.7837358 C2.07111383,8.7837358 2.3321097,9.05398282 2.3321097,9.38742898 C2.3321097,9.72087513 2.07111383,9.99112216 1.74908227,9.99112216 Z M11.3981861,9.93075284 C11.0761546,9.93075284 10.8151587,9.66050581 10.8151587,9.32705966 L10.8151587,6.21803977 C10.8151587,5.88459362 11.0761546,5.61434659 11.3981861,5.61434659 C11.7202177,5.61434659 11.9812136,5.88459362 11.9812136,6.21803977 L11.9812136,9.32705966 C11.9812136,9.66050581 11.7202177,9.93075284 11.3981861,9.93075284 Z M4.98488447,9.93075284 C4.66285292,9.93075284 4.40185705,9.66050581 4.40185705,9.32705966 L4.40185705,6.21803977 C4.40185705,5.88459362 4.66285292,5.61434659 4.98488447,5.61434659 C5.30691603,5.61434659 5.5679119,5.88459362 5.5679119,6.21803977 L5.5679119,9.32705966 C5.5679119,9.66050581 5.30691603,9.93075284 4.98488447,9.93075284 Z M10.523645,4.46732955 C9.55914454,4.46732955 8.77456273,3.65493776 8.77456273,2.65625 L8.77456273,1.81107955 C8.77456273,0.812391786 9.55914454,0 10.523645,0 C11.4881455,0 12.2727273,0.812391786 12.2727273,1.81107955 L12.2727273,2.65625 C12.2727273,2.98969616 12.0117314,3.25994318 11.6896998,3.25994318 C11.3676683,3.25994318 11.1066724,2.98969616 11.1066724,2.65625 L11.1066724,1.81107955 C11.1066724,1.47822293 10.8451072,1.20738636 10.523645,1.20738636 C10.2021828,1.20738636 9.94061758,1.47822293 9.94061758,1.81107955 L9.94061758,2.65625 C9.94061758,2.98910662 10.2021828,3.25994318 10.523645,3.25994318 C10.8456766,3.25994318 11.1066724,3.53019021 11.1066724,3.86363636 C11.1066724,4.19708252 10.8456766,4.46732955 10.523645,4.46732955 Z M6.15093932,4.46732955 C5.18643886,4.46732955 4.40185705,3.65493776 4.40185705,2.65625 L4.40185705,1.81107955 C4.40185705,0.812391786 5.18643886,0 6.15093932,0 C7.11543978,0 7.90002159,0.812391786 7.90002159,1.81107955 L7.90002159,2.65625 C7.90002159,2.98969616 7.63902572,3.25994318 7.31699417,3.25994318 C6.99496262,3.25994318 6.73396675,2.98969616 6.73396675,2.65625 L6.73396675,1.81107955 C6.73396675,1.47822293 6.47240152,1.20738636 6.15093932,1.20738636 C5.82947712,1.20738636 5.5679119,1.47822293 5.5679119,1.81107955 L5.5679119,2.65625 C5.5679119,2.98910662 5.82947712,3.25994318 6.15093932,3.25994318 C6.47297088,3.25994318 6.73396675,3.53019021 6.73396675,3.86363636 C6.73396675,4.19708252 6.47297088,4.46732955 6.15093932,4.46732955 Z M2.91513712,4.40696023 C2.59310557,4.40696023 2.3321097,4.1367132 2.3321097,3.80326705 L2.3321097,0.694247159 C2.3321097,0.360801003 2.59310557,0.0905539773 2.91513712,0.0905539773 C3.23716867,0.0905539773 3.49816454,0.360801003 3.49816454,0.694247159 L3.49816454,3.80326705 C3.49816454,4.1367132 3.23716867,4.40696023 2.91513712,4.40696023 Z M0.583027424,4.40696023 C0.26099587,4.40696023 0,4.1367132 0,3.80326705 L0,0.694247159 C0,0.360801003 0.26099587,0.0905539773 0.583027424,0.0905539773 C0.905058978,0.0905539773 1.16605485,0.360801003 1.16605485,0.694247159 L1.16605485,3.80326705 C1.16605485,4.1367132 0.905058978,4.40696023 0.583027424,4.40696023 Z" id="Shape"></path>
            </g>
            <g id="digital" transform="translate(0.000000, 4.545455)"></g>
        </g>
    </g>
</svg>