<?xml version="1.0" encoding="UTF-8"?>
<svg width="15px" height="17px" viewBox="0 0 15 17" version="1.1" xmlns="http://www.w3.org/2000/svg" xmlns:xlink="http://www.w3.org/1999/xlink">
    <!-- Generator: Sketch 55.2 (78181) - https://sketchapp.com -->
    <title>Android</title>
    <desc>Created with Sketch.</desc>
    <g id="MEWconnect_create-new-wallet" stroke="none" stroke-width="1" fill="none" fill-rule="evenodd" opacity="0.5">
        <g id="MEWconnect-1.1" transform="translate(-746.000000, -481.000000)" fill="#0B2840" fill-rule="nonzero">
            <g id="Group-3" transform="translate(592.000000, 470.000000)">
                <g id="Group-5" transform="translate(154.000000, 11.000000)">
                    <g id="Android">
                        <path d="M9.4658125,3.39996958 C9.1853125,3.39996958 8.95864583,3.17932326 8.95864583,2.90661431 C8.95864583,2.63390537 9.1853125,2.41361321 9.4658125,2.41361321 C9.7463125,2.41361321 9.97297917,2.6335512 9.97297917,2.90661431 C9.97297917,3.17932326 9.7463125,3.40032375 9.4658125,3.40032375 L9.4658125,3.39996958 Z M5.4091875,3.39996958 C5.1286875,3.39996958 4.90202083,3.17932326 4.90202083,2.90661431 C4.90202083,2.63390537 5.1286875,2.41361321 5.4091875,2.41361321 C5.6896875,2.41361321 5.91635417,2.6335512 5.91635417,2.90661431 C5.91635417,3.17932326 5.6896875,3.40032375 5.4091875,3.40032375 L5.4091875,3.39996958 Z M9.7654375,1.423361 L9.9545625,1.14533954 L10.1436875,0.871568097 L10.5647917,0.255670886 C10.5897194,0.219483339 10.5987509,0.174670335 10.589786,0.131652135 C10.5808211,0.0886339344 10.554641,0.0511589719 10.5173333,0.0279412103 C10.4401152,-0.0229337432 10.3363608,-0.00243510764 10.2842917,0.07398298 L9.64147917,1.01040174 L9.44845833,1.29231904 C8.80533005,1.05206098 8.1240364,0.930152577 7.4375,0.9324849 C6.75097107,0.930238285 6.06969267,1.05214396 5.42654167,1.29231904 L5.23458333,1.01040174 L5.04475,0.733442788 L4.59283333,0.07398298 C4.53942745,-0.00187172729 4.43573508,-0.0221729899 4.35766667,0.0279412103 C4.3207565,0.0514966594 4.29490932,0.0889457865 4.28597631,0.131811002 C4.27704329,0.174676218 4.28577989,0.219332556 4.31020833,0.255670886 L4.73166667,0.871568097 L4.9204375,1.14533954 L5.11027083,1.423361 C3.67589583,2.07396662 2.705125,3.30646938 2.705125,4.7167642 L12.169875,4.7167642 C12.169875,3.30646938 11.1994583,2.07396662 9.76579167,1.42300683 L9.7654375,1.423361 Z M2.77772917,5.37445317 L2.705125,5.37445317 L2.705125,12.6129277 C2.705125,13.1877415 3.18466667,13.6555967 3.776125,13.6555967 L4.5485625,13.6555967 C4.52123471,13.7442814 4.5073857,13.8365685 4.50747917,13.9293681 L4.50747917,16.0132895 C4.50747917,16.5583532 4.96258333,17 5.52216667,17 C6.08175,17 6.53685417,16.5583532 6.53685417,16.0132895 L6.53685417,13.9293681 C6.53685417,13.8337429 6.52127083,13.7423677 6.49577083,13.6555967 L8.37922917,13.6555967 C8.3527511,13.7444452 8.3392711,13.8366581 8.33920833,13.9293681 L8.33920833,16.0132895 C8.33920833,16.5583532 8.79325,17 9.35283333,17 C9.91347917,17 10.3685833,16.5583532 10.3685833,16.0132895 L10.3685833,13.9293681 C10.3685833,13.8337429 10.353,13.7423677 10.3264375,13.6555967 L11.0999375,13.6555967 C11.6913958,13.6555967 12.169875,13.1880956 12.169875,12.6129277 L12.169875,5.37445317 L2.77808333,5.37445317 L2.77772917,5.37445317 Z M1.0146875,5.37445317 C0.454041667,5.37445317 0,5.81609999 0,6.36080954 L0,10.5839023 C0,11.1286119 0.454041667,11.5706129 1.0146875,11.5706129 C1.57427083,11.5706129 2.0283125,11.1286119 2.0283125,10.5839023 L2.0283125,6.36080954 C2.0283125,5.81609999 1.57427083,5.37445317 1.0146875,5.37445317 L1.0146875,5.37445317 Z M13.861375,5.37445317 C13.3007292,5.37445317 12.8466875,5.81609999 12.8466875,6.36080954 L12.8466875,10.5839023 C12.8466875,11.1286119 13.3007292,11.5706129 13.861375,11.5706129 C14.4209583,11.5706129 14.875,11.1286119 14.875,10.5839023 L14.875,6.36080954 C14.875,5.81609999 14.4209583,5.37445317 13.861375,5.37445317 L13.861375,5.37445317 Z"></path>
                    </g>
                </g>
            </g>
        </g>
    </g>
</svg>