<?xml version="1.0" encoding="UTF-8"?>
<svg width="30px" height="24px" viewBox="0 0 30 24" version="1.1" xmlns="http://www.w3.org/2000/svg" xmlns:xlink="http://www.w3.org/1999/xlink">
    <!-- Generator: Sketch 55.2 (78181) - https://sketchapp.com -->
    <title>Group 45</title>
    <desc>Created with Sketch.</desc>
    <g id="Landing-page" stroke="none" stroke-width="1" fill="none" fill-rule="evenodd">
        <g id="about" transform="translate(-889.000000, -1611.000000)" fill="#003945" fill-rule="nonzero">
            <g id="Group-45" transform="translate(889.000000, 1609.000000)">
                <g id="Reddit" transform="translate(0.666667, 2.000000)">
                    <path d="M17.0682474,0 C15.0414979,0 13.5330394,1.63872 13.5330394,3.50976 L13.5330394,6.74976 C10.866162,6.88896 8.44876052,7.58976 6.49259922,8.69952 C5.74417171,7.98336 4.74723532,7.68 3.77253903,7.68 C2.71855197,7.68 1.64619265,8.0208 0.902599948,8.85024 L0.902599948,8.88 L0.871657209,8.90976 C0.158040281,9.79488 -0.133014862,10.97664 0.0565094171,12.14976 C0.254956941,13.3326157 0.94566278,14.3779417 1.95948789,15.02976 C1.95175221,15.1392 1.92951211,15.24768 1.92951211,15.36 C1.92951211,17.8608 3.45150811,20.05152 5.73740298,21.57024 C8.02136393,23.088 11.1040343,24 14.5,24 C17.8959657,24 20.9786361,23.088 23.263564,21.57024 C25.5475249,20.05152 27.0704879,17.8608 27.0704879,15.36 C27.0704879,15.24768 27.0482478,15.1392 27.0405121,15.02976 C28.0543372,14.3779417 28.7450431,13.3326157 28.9434906,12.14976 C29.1330149,10.97664 28.8419597,9.79488 28.1283428,8.90976 L28.0974001,8.88 C27.3538073,8.05152 26.281448,7.68 25.227461,7.68 C24.2527647,7.68 23.2548613,7.98336 22.5074008,8.70048 C20.5512395,7.58976 18.133838,6.88896 15.4669606,6.74976 L15.4669606,3.50976 C15.4669606,2.56896 16.0074916,1.92 17.0682474,1.92 C17.5710669,1.92 18.1937895,2.15616 19.1539814,2.49024 C19.9691292,2.77536 21.0269841,3.09024 22.3865307,3.17952 C22.7152973,4.1184 23.6029672,4.8 24.6530864,4.8 C25.9826572,4.8 27.0704879,3.72 27.0704879,2.4 C27.0704879,1.08 25.9826572,0 24.6530864,0 C23.7393086,0 22.9493018,0.5136 22.5373766,1.26048 C21.3779908,1.19328 20.5396359,0.95328 19.7883076,0.69024 C18.9151421,0.38592 18.1106309,0 17.0682474,0 Z M14.5,9 C17.5087273,9 20.1938636,9.80507143 22.0771818,11.0317143 C23.9595455,12.2574286 25,13.8313571 25,15.5 C25,17.1686429 23.9595455,18.7425714 22.0762273,19.9692143 C20.1938636,21.1949286 17.5087273,22 14.5,22 C11.4912727,22 8.80613636,21.1949286 6.92281818,19.9682857 C5.04045455,18.7425714 4,17.1686429 4,15.5 C4,13.8313571 5.04045455,12.2574286 6.92377273,11.0307857 C8.80518182,9.80507143 11.4912727,9 14.5,9 Z M3.91435627,10 C4.30245092,10 4.68441777,10.0820244 5,10.2181501 C3.89086633,11.0122164 3.02888767,11.95637 2.5100664,13 C2.25740361,12.7220648 2.09247663,12.3933665 2.03107589,12.0453752 C1.919754,11.4589878 2.11890784,10.8525305 2.44674569,10.4904014 C2.4508309,10.4842932 2.44266048,10.4703316 2.44674569,10.4642234 C2.75722142,10.1841187 3.30872435,10 3.91435627,10 L3.91435627,10 Z M25.085676,10 C25.691326,10 26.2428453,10.1832994 26.5533303,10.4634856 C26.5574156,10.466977 26.5492449,10.4879255 26.5533303,10.4905441 C26.8801565,10.8527786 27.0803376,11.4594123 26.9690124,12.0459703 C26.9046685,12.3863835 26.749426,12.7206866 26.4889863,13 C25.971171,11.9569392 25.110188,11.0125109 24,10.2182136 C24.3155916,10.0820483 24.6985912,10 25.085676,10 L25.085676,10 Z M10,12 C8.8954305,12 8,12.8954305 8,14 C8,15.1045695 8.8954305,16 10,16 C11.1045695,16 12,15.1045695 12,14 C12,12.8954305 11.1045695,12 10,12 Z M19,12 C17.8954305,12 17,12.8954305 17,14 C17,15.1045695 17.8954305,16 19,16 C20.1045695,16 21,15.1045695 21,14 C21,12.8954305 20.1045695,12 19,12 Z M19,17 C17.9066667,17.9227443 16.0685714,18.5134044 14,18.5134044 C11.9314286,18.5134044 10.0933333,17.9158259 9,17.1081003 C9.60952381,18.6085327 11.5666667,20 14,20 C16.4333333,20 18.3904762,18.6145863 19,17 Z" id="surface1"></path>
                </g>
            </g>
        </g>
    </g>
</svg>