<svg width="24" height="24" viewBox="0 0 24 24" fill="none" xmlns="http://www.w3.org/2000/svg">
<path fill-rule="evenodd" clip-rule="evenodd" d="M20.5994 2.59201C17.7173 2.43301 15.3262 3.19523 13.5465 4.97497C12.3617 6.15972 11.6279 7.61539 11.3165 9.30647C11.1816 9.14234 11.0375 8.98353 10.8841 8.83018C9.41856 7.36462 7.4541 6.7446 5.11112 6.87386C4.67488 6.89793 4.32656 7.24626 4.30249 7.68249C4.17323 10.0255 4.79324 11.9899 6.25881 13.4555C7.53503 14.7317 9.18955 15.3668 11.1429 15.4242V18.0259C9.74019 18.1207 8.36898 18.4452 7.08406 18.9769C6.64664 19.1579 6.43878 19.6593 6.61978 20.0967C6.80078 20.5341 7.30211 20.7419 7.73953 20.5609C9.05849 20.0152 10.4809 19.7212 11.9292 19.7114C11.9525 19.7133 11.9762 19.7143 12 19.7143C12.0241 19.7143 12.048 19.7133 12.0715 19.7113C13.4707 19.7198 14.8915 19.9939 16.2642 20.5625C16.7016 20.7436 17.203 20.5359 17.3841 20.0986C17.5653 19.6612 17.3576 19.1598 16.9203 18.9787C15.5896 18.4275 14.2191 18.1164 12.8572 18.0253V12.8561C15.346 12.8256 17.4308 12.0478 19.0251 10.4536C20.8048 8.67384 21.567 6.28273 21.408 3.40063C21.384 2.9644 21.0356 2.61608 20.5994 2.59201ZM14.7586 6.18715C15.9734 4.97241 17.5965 4.31614 19.7134 4.28667C19.6839 6.40354 19.0276 8.02665 17.8129 9.24139C16.5981 10.4561 14.975 11.1124 12.8582 11.1419C12.8876 9.025 13.5439 7.4019 14.7586 6.18715ZM6.00519 8.57656C6.0614 10.1459 6.57038 11.3427 7.47099 12.2433C8.3716 13.1439 9.56838 13.6529 11.1378 13.7091C11.0815 12.1397 10.5726 10.943 9.67195 10.0424C8.77134 9.14176 7.57457 8.63277 6.00519 8.57656Z" fill="white"/>
</svg>
