<?xml version="1.0" encoding="utf-8"?>
<!-- Generator: Adobe Illustrator 16.0.0, SVG Export Plug-In . SVG Version: 6.00 Build 0)  -->
<!DOCTYPE svg PUBLIC "-//W3C//DTD SVG 1.1//EN" "http://www.w3.org/Graphics/SVG/1.1/DTD/svg11.dtd">
<svg version="1.1" id="Layer_1" xmlns="http://www.w3.org/2000/svg" xmlns:xlink="http://www.w3.org/1999/xlink" x="0px" y="0px"
	 width="612px" height="612px" viewBox="0 90.188 612 612" enable-background="new 0 90.188 612 612" xml:space="preserve">
<circle fill="#5F7793" cx="306" cy="396.188" r="306"/>
<path fill="#C8DAEA" d="M249.9,536.438c-9.915,0-8.229-3.743-11.648-13.184L209.1,427.316l224.4-133.128"/>
<path fill="#A9C9DD" d="M249.9,536.438c7.65,0,11.029-3.499,15.3-7.65l40.8-39.673l-50.893-30.688"/>
<path fill="#FFFFFF" d="M255.102,458.434l123.318,91.109c14.073,7.765,24.228,3.743,27.734-13.063l50.196-236.546
	c5.139-20.604-7.854-29.952-21.318-23.84L140.278,389.75c-20.119,8.071-20,19.296-3.667,24.296l75.641,23.61l175.116-110.479
	c8.267-5.013,15.855-2.32,9.629,3.208"/>
</svg>
