<svg width="88" height="18" viewBox="0 0 88 18" fill="none" xmlns="http://www.w3.org/2000/svg">
<path fill-rule="evenodd" clip-rule="evenodd" d="M4.00825 0.0612043C3.5816 0.129721 3.00727 0.319151 2.65446 0.50455C1.79296 0.947896 0.997096 1.83056 0.64429 2.73337C0.629892 2.76986 0.616268 2.80363 0.603376 2.83559C0.574508 2.90715 0.549308 2.96962 0.527292 3.03319C0.376071 3.46982 0.375058 3.95847 0.367088 7.80347L0.365328 8.62987C0.348918 13.9863 0.353021 14.0588 0.55814 14.6755C0.915048 15.7395 1.72732 16.6665 2.71189 17.1461C3.26982 17.4162 3.7539 17.5572 4.32413 17.6096C4.93129 17.6661 15.4211 17.662 15.7739 17.6056C16.3154 17.521 16.7339 17.2187 16.98 16.7229L17.1113 16.461V15.4937C17.1113 14.6634 17.099 14.4941 17.0374 14.3047C16.7462 13.4583 16.1923 12.9142 15.3473 12.6563C15.1709 12.6039 14.6457 12.5918 11.7372 12.5716L8.33217 12.5515L7.96706 12.4386C6.53532 11.9993 5.51793 10.9071 5.25127 9.51656C5.16102 9.045 5.18974 8.24295 5.31691 7.81573C5.41947 7.45299 5.66561 6.94516 5.86663 6.67109C6.26456 6.11892 7.00299 5.55063 7.61015 5.3209L7.61253 5.32C7.72779 5.27656 7.8226 5.24082 7.91935 5.21142C8.3681 5.07504 8.8583 5.07504 11.6223 5.07504C13.3084 5.07504 14.8221 5.05489 14.9862 5.03474C15.9462 4.91383 16.6928 4.31329 17.0128 3.41048C17.0908 3.19284 17.1072 3.05177 17.1236 2.30615C17.1318 1.77816 17.1236 1.37512 17.0949 1.25018C16.9595 0.633523 16.4918 0.174056 15.8683 0.0410522C15.7124 0.00880885 14.0427 -0.00328241 10.0018 0.00074801C5.36204 0.00477843 4.29131 0.0168697 4.00825 0.0612043ZM45.3234 2.72424C45.2454 2.76051 45.1429 2.85321 45.0854 2.93382L44.987 3.07891V8.57237L44.9868 9.68202V9.68218C44.9858 13.8574 44.9857 14.2034 45.1547 14.3394C45.1699 14.3517 45.1866 14.3623 45.2047 14.3738L45.2048 14.3738C45.2224 14.385 45.2413 14.3971 45.2618 14.4124L45.4095 14.5253H46.5008H47.592L47.6125 12.7398L47.633 10.9503L48.9663 12.6713C49.7991 13.7474 50.3447 14.4165 50.4226 14.4568C50.5293 14.5172 50.7385 14.5253 52.0144 14.5374C53.0113 14.5455 53.4789 14.5374 53.4789 14.5051C53.4789 14.485 53.2492 14.1948 52.9661 13.8643C52.281 13.0542 50.2134 10.5795 49.996 10.2974L49.8196 10.0757L50.636 9.10036L51.0754 8.57384C51.5169 8.04506 52.0667 7.38649 52.4779 6.89169L53.5076 5.65838L52.0513 5.64629C50.7303 5.63823 50.5826 5.64226 50.4473 5.70675C50.3324 5.76317 50.0001 6.16621 48.9663 7.49625L47.633 9.20918L47.6125 5.94454C47.6002 4.14697 47.5838 2.67184 47.5797 2.66378C47.5756 2.65975 47.0956 2.65572 46.5172 2.65572C45.6229 2.65572 45.4382 2.66781 45.3234 2.72424ZM82.3148 3.3241C82.3681 3.23946 82.4707 3.13467 82.5404 3.09436C82.6553 3.02584 82.7579 3.01778 83.7055 3.01778H84.7393V4.32767V5.63756H86.1341H87.5289V6.41946C87.5289 7.2336 87.5084 7.35854 87.3525 7.52379C87.1597 7.72531 87.1023 7.7374 85.8839 7.76159L84.7393 7.78577V9.5914C84.7393 11.2358 84.7475 11.4131 84.8173 11.6348C84.9075 11.929 85.0224 12.0943 85.2111 12.2071C85.4859 12.3764 85.728 12.4087 86.692 12.4087H87.5987L87.6274 12.8681C87.6643 13.4203 87.6233 13.9926 87.5371 14.174C87.5043 14.2465 87.41 14.3554 87.332 14.4158L87.1884 14.5246L86.3023 14.5367C84.4973 14.5649 83.7917 14.3795 83.0778 13.6782C82.6922 13.3034 82.4625 12.8923 82.3148 12.328C82.2286 12.0016 82.2245 11.8807 82.2081 9.87755L82.1876 7.77368H81.8758C81.6994 7.77368 81.4082 7.76159 81.2236 7.74546L80.8831 7.72128V7.05223C80.8872 6.12121 80.9282 5.95999 81.2277 5.74235C81.322 5.67383 81.4123 5.65368 81.7651 5.64562L82.1876 5.6295L82.204 4.5574L82.2041 4.5467C82.2163 3.50527 82.2167 3.47673 82.3148 3.3241ZM28.5979 5.24108C26.7272 5.39827 25.2011 6.62352 24.6185 8.42511C24.4052 9.09013 24.3232 10.1421 24.4339 10.8272C24.7621 12.8505 26.0872 14.2168 28.1261 14.636C28.6266 14.7367 29.8778 14.7811 30.4029 14.7126C31.1167 14.6199 32.1464 14.3015 32.4664 14.0758C32.7249 13.8904 32.7372 13.8218 32.7536 12.782C32.7618 12.2701 32.7577 11.8469 32.7454 11.8469C32.729 11.8469 32.5403 11.9356 32.3187 12.0444C31.4408 12.4757 30.9362 12.6208 30.1486 12.6732C28.7497 12.7618 27.5641 12.2016 27.0923 11.2222C27.073 11.1821 27.0526 11.1461 27.0343 11.1138C26.9952 11.0448 26.9658 10.9929 26.978 10.9541C27.0147 10.8367 27.4314 10.8382 29.1078 10.8445H29.1082C29.3742 10.8455 29.672 10.8466 30.005 10.8474C31.6664 10.8514 33.0695 10.8393 33.1187 10.8232C33.1638 10.8071 33.2213 10.7668 33.2377 10.7265C33.2541 10.6902 33.2746 10.3557 33.2869 9.98489C33.3033 9.23523 33.25 8.77979 33.0695 8.15911C32.5936 6.53888 31.2398 5.40633 29.6029 5.25721C29.0696 5.20884 28.963 5.20884 28.5979 5.24108ZM29.7876 7.44975C30.366 7.73188 30.7475 8.30017 30.7516 8.87249V9.02565H28.8235C27.0472 9.02565 26.8954 9.02162 26.8954 8.95713C26.8954 8.92086 26.9733 8.73546 27.0636 8.54603C27.1948 8.28002 27.3015 8.13492 27.5271 7.91728C28.0194 7.44169 28.4092 7.28854 29.0943 7.30466C29.4676 7.31272 29.5291 7.32481 29.7876 7.44975ZM37.7379 6.26024C38.1974 5.85317 38.7389 5.5791 39.3255 5.45416C39.8958 5.33728 40.9009 5.45819 41.467 5.7121C42.2341 6.05872 42.8085 6.7842 43.0259 7.67492C43.1079 8.02556 43.112 8.14648 43.1285 10.8791C43.1408 12.4429 43.1367 13.8173 43.1202 13.9342C43.0997 14.0954 43.0587 14.184 42.9644 14.2929C42.7469 14.5347 42.6854 14.5468 41.5449 14.5468H40.5193L40.5029 11.7335L40.502 11.5711C40.4889 9.15687 40.487 8.80987 40.358 8.51931C40.3364 8.47054 40.3111 8.42336 40.2817 8.36826L40.2773 8.36009C40.027 7.8845 39.3912 7.65074 38.7143 7.7918C38.5502 7.82404 38.3369 7.89659 38.2425 7.95302C38.0128 8.08199 37.7379 8.38024 37.6312 8.61401C37.5411 8.80321 37.541 8.82756 37.5287 11.6672L37.5287 11.6771L37.5164 14.5508L36.421 14.5387C35.1534 14.5266 35.1247 14.5186 34.936 14.1639L34.8334 13.9664V10.073V6.18366L34.936 6.00632C35.1534 5.6315 35.2888 5.60328 36.618 5.63553L37.5 5.65971L37.5123 6.05469L37.5246 6.44967L37.7379 6.26024ZM75.8249 5.45963C75.1357 5.6007 74.5572 5.89895 74.0444 6.37857L73.6629 6.73728V6.18914V5.641H72.5963C71.4066 5.641 71.3779 5.64503 71.1728 5.91104L71.0579 6.05614V11.606V17.1559L71.1769 17.305C71.3738 17.5589 71.4394 17.571 72.6168 17.571H73.6629V15.451C73.6629 14.2862 73.6793 13.3391 73.6998 13.3472C73.7162 13.3512 73.827 13.4681 73.9419 13.6051C74.307 14.0404 74.8731 14.4072 75.4885 14.6127C75.9233 14.7538 76.7561 14.7941 77.2484 14.6933C78.233 14.4958 79.1355 13.8751 79.7139 13.0046C80.6206 11.6383 80.7929 9.66739 80.1488 8.03507C79.8698 7.32572 79.3242 6.61636 78.7089 6.1569C78.3643 5.89895 77.7899 5.62488 77.3756 5.52009C76.9448 5.41127 76.2023 5.37902 75.8249 5.45963ZM76.309 7.79728C77.0023 7.97461 77.5479 8.53887 77.7899 9.32883C77.8474 9.5102 77.8638 9.6956 77.8638 10.0946C77.8597 10.5501 77.8474 10.6629 77.753 10.941C77.4371 11.8761 76.6659 12.4524 75.7264 12.4524C75.2054 12.4524 74.668 12.2267 74.307 11.8519C74.0362 11.5697 73.905 11.3561 73.7614 10.941C73.667 10.6629 73.6506 10.5501 73.6465 10.1349C73.6465 9.80039 73.667 9.57066 73.7162 9.38929C73.9296 8.59933 74.4383 8.03104 75.1316 7.8134C75.4269 7.7207 75.9808 7.71667 76.309 7.79728ZM57.2084 6.40094C57.4176 6.12284 58.0535 5.74801 58.5375 5.61904C58.6688 5.5868 58.9724 5.56261 59.3293 5.56261C59.8257 5.55858 59.9159 5.56664 59.9365 5.62307C59.9488 5.65934 59.9611 6.19942 59.9611 6.82816V7.9728L59.4401 7.94862C58.6524 7.91638 58.1396 8.0655 57.7006 8.45242C57.4832 8.64588 57.2248 9.10938 57.1263 9.48824C57.0894 9.63737 57.073 10.3387 57.0607 12.108L57.0484 14.5263H55.9448C54.8864 14.5263 54.8331 14.5222 54.7223 14.4416C54.5418 14.3086 54.431 14.1192 54.4023 13.8895C54.39 13.7726 54.3818 11.9831 54.39 9.91143C54.4023 6.32436 54.4064 6.13493 54.4803 5.98984C54.5213 5.90923 54.6157 5.80041 54.6854 5.74801C54.8085 5.66337 54.8495 5.65934 55.9325 5.64725L57.0484 5.63516V6.08254C57.0484 6.32436 57.0648 6.52588 57.0812 6.52588C57.1017 6.52588 57.155 6.46946 57.2084 6.40094ZM60.6579 5.66116C60.6579 5.67325 60.8261 6.10047 61.0312 6.61636C63.189 12.0373 64.03 14.1855 64.03 14.2903C64.03 14.3669 63.7716 15.0238 63.4147 15.8621C63.0783 16.6602 62.7829 17.3695 62.7583 17.438L62.7132 17.571H64.0054H65.2936L65.3346 17.4783C65.3515 17.4386 65.8235 16.2699 66.4517 14.7147L66.8771 13.6615C67.7017 11.6101 68.7642 8.98625 69.236 7.82549C69.7077 6.66473 70.0934 5.70146 70.0934 5.68131C70.0934 5.62488 67.7919 5.62891 67.6442 5.68534C67.4596 5.75386 67.353 5.8788 67.2422 6.16093C67.1848 6.30602 66.7704 7.46678 66.3233 8.73233C65.872 10.0019 65.4864 11.074 65.4618 11.1103C65.4571 11.1183 65.4532 11.1262 65.4498 11.1333C65.4427 11.1476 65.4374 11.1585 65.4308 11.1593C65.4105 11.1619 65.3782 11.068 65.2461 10.6839C65.2196 10.6071 65.1892 10.5186 65.1541 10.417C65.031 10.0624 64.7192 9.17165 64.4608 8.44214L64.3617 8.16249C63.6388 6.12305 63.5577 5.89428 63.396 5.78758C63.3756 5.7741 63.3539 5.76257 63.3294 5.74958C63.32 5.74457 63.3101 5.73934 63.2998 5.7337C63.1439 5.64503 63.107 5.641 61.9009 5.641C61.2158 5.641 60.6579 5.64906 60.6579 5.66116ZM6.85955 7.97033C7.10979 7.22874 7.79489 6.59193 8.56614 6.39041C8.90254 6.30174 14.9125 6.29771 15.2653 6.38638C16.0653 6.5879 16.7463 7.20455 17.0089 7.96227C17.1401 8.34919 17.1689 9.05855 17.0704 9.49786C16.8858 10.3322 16.2294 11.0335 15.3884 11.2954C15.1012 11.3841 15.093 11.3841 11.9014 11.3841H8.70152L8.40615 11.2793C7.67592 11.0133 7.10159 10.4531 6.86365 9.75984C6.69545 9.26813 6.69135 8.45801 6.85955 7.97033Z" fill="white"/>
</svg>
