<svg width="22" height="22" viewBox="0 0 22 22" fill="none" xmlns="http://www.w3.org/2000/svg">
<path fill-rule="evenodd" clip-rule="evenodd" d="M18.0584 17.732C17.9903 17.732 17.9222 17.7203 17.8574 17.6986L8.89891 14.614L8.43864 15.1035V18.5145L10.5047 15.7263C10.7069 15.4546 11.0948 15.394 11.3705 15.5953C11.6462 15.7958 11.7048 16.1805 11.5026 16.4538L8.31895 20.7504C8.19927 20.91 8.01272 21 7.81957 21C7.75519 21 7.68998 20.9902 7.62725 20.9697C7.3722 20.8862 7.20051 20.6514 7.20051 20.3862V14.8621C7.20051 14.7074 7.25994 14.5568 7.36642 14.443L7.61979 14.1736L1.45608 12.0513C1.22024 11.9693 1.05581 11.7551 1.03588 11.505C1.01761 11.2548 1.14799 11.0172 1.36806 10.9009L20.0532 1.07049C20.2616 0.962566 20.5132 0.979299 20.7026 1.11567C20.8936 1.25288 20.9924 1.48546 20.9583 1.71972L18.6746 17.1974C18.6472 17.3815 18.5401 17.5438 18.3815 17.6408C18.2835 17.7011 18.1714 17.732 18.0584 17.732ZM9.84109 13.612L19.4515 3.3914L17.5516 16.2671L9.84109 13.612ZM8.56192 13.1715L3.23138 11.336L17.1933 3.99121L8.56192 13.1715Z" fill="white"/>
<path d="M17.8574 17.6986L17.7923 17.8877L17.7938 17.8882L17.8574 17.6986ZM8.89891 14.614L8.96403 14.4249L8.84178 14.3828L8.75321 14.477L8.89891 14.614ZM8.43864 15.1035L8.29293 14.9665L8.23864 15.0242V15.1035H8.43864ZM8.43864 18.5145H8.23864V19.1204L8.59933 18.6336L8.43864 18.5145ZM10.5047 15.7263L10.3442 15.6069L10.344 15.6072L10.5047 15.7263ZM11.3705 15.5953L11.2526 15.7569L11.2529 15.7571L11.3705 15.5953ZM11.5026 16.4538L11.6633 16.5729L11.6634 16.5728L11.5026 16.4538ZM8.31895 20.7504L8.47896 20.8704L8.47965 20.8694L8.31895 20.7504ZM7.62725 20.9697L7.56504 21.1598L7.56524 21.1598L7.62725 20.9697ZM7.36642 14.443L7.22071 14.306L7.22041 14.3064L7.36642 14.443ZM7.61979 14.1736L7.7655 14.3106L7.97741 14.0852L7.6849 13.9845L7.61979 14.1736ZM1.45608 12.0513L1.39041 12.2402L1.39097 12.2404L1.45608 12.0513ZM1.03588 11.505L0.836405 11.5195L0.83651 11.5209L1.03588 11.505ZM1.36806 10.9009L1.27494 10.7239L1.27461 10.7241L1.36806 10.9009ZM20.0532 1.07049L19.9612 0.892883L19.96 0.893493L20.0532 1.07049ZM20.7026 1.11567L20.5857 1.27796L20.5859 1.2781L20.7026 1.11567ZM20.9583 1.71972L21.1562 1.74891L21.1563 1.74849L20.9583 1.71972ZM18.6746 17.1974L18.8724 17.2269L18.8725 17.2266L18.6746 17.1974ZM18.3815 17.6408L18.2771 17.4702L18.2767 17.4705L18.3815 17.6408ZM19.4515 3.3914L19.6493 3.4206L19.7424 2.79008L19.3058 3.2544L19.4515 3.3914ZM9.84109 13.612L9.69538 13.475L9.48346 13.7004L9.77597 13.8011L9.84109 13.612ZM17.5516 16.2671L17.4865 16.4562L17.7143 16.5346L17.7495 16.2963L17.5516 16.2671ZM8.56192 13.1715L8.4968 13.3606L8.61906 13.4027L8.70763 13.3085L8.56192 13.1715ZM3.23138 11.336L3.13827 11.159L2.72873 11.3744L3.16627 11.5251L3.23138 11.336ZM17.1933 3.99121L17.339 4.12821L17.1002 3.8142L17.1933 3.99121ZM17.7938 17.8882C17.8779 17.9164 17.9675 17.932 18.0584 17.932V17.532C18.0131 17.532 17.9665 17.5242 17.9211 17.509L17.7938 17.8882ZM8.8338 14.8031L17.7923 17.8877L17.9226 17.5095L8.96403 14.4249L8.8338 14.8031ZM8.75321 14.477L8.29293 14.9665L8.58434 15.2405L9.04462 14.751L8.75321 14.477ZM8.23864 15.1035V18.5145H8.63864V15.1035H8.23864ZM8.59933 18.6336L10.6653 15.8453L10.344 15.6072L8.27794 18.3955L8.59933 18.6336ZM10.6651 15.8457C10.8021 15.6616 11.066 15.6206 11.2526 15.7569L11.4885 15.4338C11.1237 15.1675 10.6116 15.2476 10.3442 15.6069L10.6651 15.8457ZM11.2529 15.7571C11.4386 15.8922 11.478 16.1507 11.3418 16.3349L11.6634 16.5728C11.9316 16.2102 11.8538 15.6995 11.4882 15.4336L11.2529 15.7571ZM11.3419 16.3348L8.15826 20.6313L8.47965 20.8694L11.6633 16.5729L11.3419 16.3348ZM8.15895 20.6304C8.07773 20.7387 7.95094 20.8 7.81957 20.8V21.2C8.07451 21.2 8.3208 21.0812 8.47895 20.8704L8.15895 20.6304ZM7.81957 20.8C7.77539 20.8 7.73117 20.7932 7.68927 20.7796L7.56524 21.1598C7.6488 21.1871 7.73499 21.2 7.81957 21.2V20.8ZM7.68946 20.7796C7.51531 20.7226 7.40051 20.5635 7.40051 20.3862H7.00051C7.00051 20.7392 7.22909 21.0498 7.56504 21.1598L7.68946 20.7796ZM7.40051 20.3862V14.8621H7.00051V20.3862H7.40051ZM7.40051 14.8621C7.40051 14.7583 7.44054 14.6565 7.51244 14.5797L7.22041 14.3064C7.07935 14.4571 7.00051 14.6565 7.00051 14.8621H7.40051ZM7.51213 14.58L7.7655 14.3106L7.47408 14.0366L7.22071 14.306L7.51213 14.58ZM1.39097 12.2404L7.55468 14.3627L7.6849 13.9845L1.5212 11.8622L1.39097 12.2404ZM0.83651 11.5209C0.862679 11.8493 1.07888 12.1319 1.39041 12.2402L1.52176 11.8624C1.36159 11.8067 1.24894 11.6609 1.23525 11.4891L0.83651 11.5209ZM1.27461 10.7241C0.983403 10.878 0.812434 11.1913 0.836409 11.5195L1.23535 11.4904C1.22278 11.3184 1.31257 11.1564 1.4615 11.0778L1.27461 10.7241ZM19.96 0.893493L1.27494 10.7239L1.46118 11.0779L20.1463 1.24749L19.96 0.893493ZM20.8195 0.953381C20.5678 0.772117 20.2353 0.750967 19.9612 0.892887L20.1451 1.2481C20.2879 1.17417 20.4587 1.18648 20.5857 1.27796L20.8195 0.953381ZM21.1563 1.74849C21.201 1.4406 21.0711 1.13417 20.8192 0.953236L20.5859 1.2781C20.716 1.37158 20.7838 1.53033 20.7604 1.69095L21.1563 1.74849ZM18.8725 17.2266L21.1562 1.74891L20.7605 1.69052L18.4768 17.1682L18.8725 17.2266ZM18.4858 17.8114C18.6952 17.6834 18.8363 17.4693 18.8724 17.2269L18.4768 17.168C18.4581 17.2937 18.385 17.4042 18.2771 17.4702L18.4858 17.8114ZM18.0584 17.932C18.2078 17.932 18.3562 17.8911 18.4862 17.8112L18.2767 17.4705C18.2107 17.511 18.1349 17.532 18.0584 17.532V17.932ZM19.3058 3.2544L9.69538 13.475L9.98679 13.749L19.5972 3.52841L19.3058 3.2544ZM19.2536 3.36221L17.3538 16.2379L17.7495 16.2963L19.6493 3.4206L19.2536 3.36221ZM17.6168 16.078L9.9062 13.4229L9.77597 13.8011L17.4865 16.4562L17.6168 16.078ZM8.62704 12.9824L3.2965 11.1469L3.16627 11.5251L8.4968 13.3606L8.62704 12.9824ZM3.3245 11.513L17.2864 4.16821L17.1002 3.8142L3.13827 11.159L3.3245 11.513ZM8.70763 13.3085L17.339 4.12821L17.0476 3.85421L8.41621 13.0345L8.70763 13.3085Z" fill="white"/>
</svg>
