<?xml version="1.0" encoding="UTF-8"?>
<svg width="25px" height="25px" viewBox="0 0 25 25" version="1.1" xmlns="http://www.w3.org/2000/svg" xmlns:xlink="http://www.w3.org/1999/xlink">
    <!-- Generator: Sketch 55.2 (78181) - https://sketchapp.com -->
    <title>Notification Copy 3</title>
    <desc>Created with Sketch.</desc>
    <g id="Interact-with-contract" stroke="none" stroke-width="1" fill="none" fill-rule="evenodd">
        <g id="Group-4" transform="translate(5.000000, 0.000000)" fill-rule="nonzero" stroke="#334758" stroke-width="2">
            <g id="Group-35">
                <g id="Group-34">
                    <rect id="Rectangle" x="1" y="1" width="13.4326241" height="22.6808511" rx="2"></rect>
                    <path d="M5.10638298,20.5531915 L10.3068133,20.5531915" id="Line" stroke-linecap="round"></path>
                    <path d="M9.2845474,2 C9.28591859,2.04227875 9.28951653,2.02596178 9.19903881,2.05828273 L9.53544418,3 L9.53544418,2 L9.2845474,2 Z M6.33408003,2 L6.0543394,2 L6.0543394,3 L6.2899146,2.02814388 C6.31278386,2.03368732 6.33173439,2.0522872 6.33408003,2 Z M4.21890656,1 L11.3076527,1 L11.2838631,2.02324296 C11.2626266,2.93666921 10.743202,3.630448 9.87184956,3.94171727 L9.70869566,4 L9.53544418,4 C9.10030609,4 9.10030609,4 7.79489179,4 C6.4894775,4 6.4894775,4 6.0543394,4 L5.93487064,4 L5.8187642,3.97185612 C4.94771944,3.76071731 4.4425288,3.06004271 4.33917356,2.10791826 L4.21890656,1 Z" id="Path-3"></path>
                </g>
            </g>
        </g>
    </g>
</svg>