<?xml version="1.0" encoding="utf-8"?>
<!-- Generator: Adobe Illustrator 23.0.1, SVG Export Plug-In . SVG Version: 6.00 Build 0)  -->
<svg version="1.1" id="Layer_1" xmlns="http://www.w3.org/2000/svg" xmlns:xlink="http://www.w3.org/1999/xlink" x="0px" y="0px"
	 viewBox="0 0 64 64" style="enable-background:new 0 0 64 64;" xml:space="preserve">
<style type="text/css">
	.st0{fill:url(#Shape_1_);}
</style>
<title>icon</title>
<desc>Created with Sketch.</desc>
<linearGradient id="Shape_1_" gradientUnits="userSpaceOnUse" x1="32" y1="7.837" x2="32" y2="55.9239">
	<stop  offset="0" style="stop-color:#2CD2BF"/>
	<stop  offset="0.1567" style="stop-color:#2CCEC0"/>
	<stop  offset="0.2981" style="stop-color:#2CC3C4"/>
	<stop  offset="0.4337" style="stop-color:#2DB1C9"/>
	<stop  offset="0.5657" style="stop-color:#2D97D1"/>
	<stop  offset="0.6951" style="stop-color:#2E76DC"/>
	<stop  offset="0.8225" style="stop-color:#2F4DE9"/>
	<stop  offset="0.946" style="stop-color:#301DF8"/>
	<stop  offset="1" style="stop-color:#3006FF"/>
</linearGradient>
<path id="Shape" class="st0" d="M32,8C18.7,8,8,18.7,8,32s10.7,24,24,24s24-10.7,24-24S45.3,8,32,8z M50.5,29.3h-7.9
	c-0.2-5-1.1-9.7-2.4-13.4c-0.1-0.4-0.2-0.6-0.4-1C45.4,17.6,49.6,22.9,50.5,29.3z M13.5,34.7h7.9c0.2,5,1.1,9.7,2.4,13.4
	c0.1,0.4,0.2,0.6,0.4,1C18.6,46.4,14.4,41.1,13.5,34.7z M23.8,15.9c-1.3,3.7-2.2,8.3-2.4,13.4h-7.9c0.9-6.4,5.1-11.7,10.7-14.3
	C24.1,15.3,23.9,15.6,23.8,15.9z M35.2,46.2c-1.4,3.7-2.8,4.6-3.2,4.6c-0.4,0-1.8-0.9-3.2-4.6c-1.3-3.1-1.9-7.2-2.1-11.5h10.5
	C37.1,39.1,36.3,43.1,35.2,46.2z M26.6,29.3c0.2-4.3,0.9-8.4,2.1-11.5c1.4-3.7,2.8-4.6,3.2-4.6c0.4,0,1.8,0.9,3.2,4.6
	c1.3,3.1,1.9,7.2,2.1,11.5H26.6z M39.8,49c0.1-0.4,0.2-0.6,0.4-1c1.3-3.7,2.2-8.3,2.4-13.4h7.9C49.6,41.1,45.4,46.4,39.8,49z"/>
</svg>
