<?xml version="1.0" encoding="UTF-8"?>
<svg width="25px" height="25px" viewBox="0 0 25 25" version="1.1" xmlns="http://www.w3.org/2000/svg" xmlns:xlink="http://www.w3.org/1999/xlink">
    <!-- Generator: Sketch 55.2 (78181) - https://sketchapp.com -->
    <title>Notification Copy 2</title>
    <desc>Created with Sketch.</desc>
    <g id="Interact-with-contract" stroke="none" stroke-width="1" fill="none" fill-rule="evenodd">
        <g id="Notification" transform="translate(2.000000, 0.000000)" fill="#334758" fill-rule="nonzero">
            <path d="M15.306713,17.8451541 L5.41087963,17.8451541 L5.41087963,10.6903082 C5.41087963,7.51117173 7.88483796,5.92041099 10.3576321,5.92041099 L10.3599605,5.92041099 C12.8327546,5.92041099 15.306713,7.51117173 15.306713,10.6903082 L15.306713,17.8451541 L15.306713,17.8451541 Z M11.5951934,21.4225771 C11.5951934,22.0808229 11.0421909,22.6150514 10.3587963,22.6150514 C9.67540169,22.6150514 9.12123502,22.0808229 9.12123502,21.4225771 L9.12123502,20.2301027 L11.5963576,20.2301027 L11.5963576,21.4225771 L11.5951934,21.4225771 Z M17.7806713,17.8451541 L17.7806713,10.6903082 C17.7806713,6.45344701 14.8515046,4.10188767 11.5951934,3.62966784 C11.5951934,2.3340821 11.5951934,1.5076974 11.5951934,1.15051374 C11.5951934,-0.398520473 9.12239924,-0.368414837 9.12239924,1.15051374 C9.12239924,1.65107129 9.12239924,2.47745599 9.12239924,3.62966784 C5.86608796,4.10188767 2.9369213,6.45344701 2.9369213,10.6903082 L2.9369213,17.8451541 L1.69936002,17.8451541 C1.01712963,17.8451541 0.462962963,18.3793826 0.462962963,19.0376284 C0.462962963,19.6958743 1.01712963,20.2301027 1.70052424,20.2301027 L6.6484409,20.2301027 L6.6484409,21.4225771 C6.6484409,23.398507 8.30861247,25 10.3587963,25 C12.4078159,25 14.0703159,23.398507 14.0703159,21.4225771 L14.0703159,20.2301027 L19.0182326,20.2301027 C19.700463,20.2301027 20.2546296,19.6958743 20.2546296,19.0376284 C20.2546296,18.3793826 19.700463,17.8451541 19.0170684,17.8451541 L17.7806713,17.8451541 Z" id="notification_bell-[#1398]"></path>
        </g>
    </g>
</svg>