<?xml version="1.0" encoding="utf-8"?>
<!-- Generator: Adobe Illustrator 23.0.1, SVG Export Plug-In . SVG Version: 6.00 Build 0)  -->
<svg version="1.1" id="Layer_1" xmlns="http://www.w3.org/2000/svg" xmlns:xlink="http://www.w3.org/1999/xlink" x="0px" y="0px"
	 viewBox="0 0 943.4 190.3" style="enable-background:new 0 0 943.4 190.3;" xml:space="preserve">
<style type="text/css">
	.st0{fill:none;}
	.st1{fill:#7E45F1;}
	.st2{fill:#7F45F1;}
	.st3{fill:#7F46F1;}
	.st4{fill:#8047F1;}
</style>
<path class="st0" d="M321.4,924.8c0,0,12.1-85.1-42.1-117.5c-75.1-44.9-134.6,10.6-134.6,10.6s-29.6,20.9-36.1,74.9
	s24.5,85.7,24.5,85.7s31,49,116.6,39.6c0,0,64.2-4.7,59.9-28.9l-0.9-38.8c0,0-43.9,25.9-84.2,18.7c-40.3-7.2-53.5-35.8-54-43.2
	L321.4,924.8z"/>
<path class="st0" d="M169.3,881.2h93.9c0,0-4.6-42-39.3-42S173.6,864.3,169.3,881.2z"/>
<path class="st0" d="M263.1,883.2"/>
<g>
	<path class="st1" d="M103.3,190.2c-19,0-38,0.3-57-0.1c-19.8-0.4-34.3-9.8-42.6-27.8c-2.2-4.8-3.5-10.5-3.6-15.9
		C-0.1,112.3,0.1,78.2,0.1,44C0,20.7,21.7,0,45,0c39.7,0.1,79.3,0,119,0c10,0,16.6,6.5,17,16.4c0.1,4.3,0.1,8.7,0,13
		c-0.3,13.7-10.7,24.4-24.4,24.7c-21.5,0.5-43,1.1-64.4,0.6C76.9,54.4,56.7,67,53,86.6c-3.9,20.7,6.5,39.6,25.8,46.2
		c6.7,2.3,14.3,2.6,21.6,2.8c18.5,0.5,37,0.2,55.5,0.5c14.4,0.2,25,11,25.1,25.5c0,4,0,8,0,12c0,9.4-6.6,16.4-16.2,16.5
		C144.2,190.3,123.7,190.1,103.3,190.2C103.3,190.2,103.3,190.2,103.3,190.2z"/>
	<path class="st2" d="M792.9,144.5c0,15.5,0,30,0,44.9c-8,0-15.4,0.2-22.8-0.1c-3.6-0.2-5.5-2.6-5.5-6.5c0-38.5,0-77,0-115.4
		c0-3.8,2-6.2,5.6-6.4c7.3-0.3,14.6-0.1,22.3-0.1c0,3.6,0,6.9,0,10.8c1.2-0.8,2-1,2.5-1.5c20-20.5,50.5-13.3,64.3,9.3
		c13.5,22.2,9,55.1-10.2,70.7c-16.2,13.1-38.4,11.9-53-2.9C795.3,146.7,794.5,146,792.9,144.5z M837.9,108.8c0-1.7,0.2-3.4,0-5
		c-1.6-8.9-5.9-16.2-14.8-19c-8.3-2.7-16.5-1.8-23.2,4.8c-9.9,9.8-10.2,29.1,0.2,38.4c3.4,3,8.3,5.4,12.7,6
		C827.5,135.7,838,124.9,837.9,108.8z"/>
	<path class="st1" d="M574.7,60.9c-13.8,16.5-26.7,32.1-40,47.9c13.1,15.7,26.1,31.4,39.8,47.9c-11.2,0-21.2,0.3-31.3-0.2
		c-2.1-0.1-4.4-2.8-6-4.8c-7.9-9.9-15.7-19.9-23.5-29.8c-0.6-0.8-1.3-1.5-2.7-3.2c0,13.2,0,25.3,0,38.2c-8.2,0-15.8,0.3-23.3-0.1
		c-3.3-0.2-4.9-3-5-6.5c-0.1-7.5-0.3-15-0.3-22.5c0-30.1,0-60.3,0-90.4c0-6.5,1.2-8.2,7.6-8.5c6.6-0.4,13.2-0.1,20.5-0.1
		c0,23.3,0,46.3,0,69.3c0.4,0.1,0.8,0.2,1.1,0.3c5.7-7.3,12.1-14.1,16.8-21.9c7.6-12.4,17.4-18.3,32.1-15.6
		C564.8,61.5,569.1,60.9,574.7,60.9z"/>
	<path class="st3" d="M287.4,117.8c6.1,13.7,16.8,18.3,29.6,19.1c8.8,0.5,17.2-1.4,25.1-5.3c2.4-1.2,4.8-2.2,8.4-3.9
		c-0.4,7.6-0.6,14.5-1.3,21.3c-0.1,1.4-2.1,3.2-3.6,3.8c-21.2,8.9-42.5,10.2-62.9-1.5c-18.5-10.6-24.3-28.1-22.9-48.6
		c2.2-32.8,35.2-54.6,66.3-43.9c16.6,5.8,28.6,22,29.5,40.3c0.2,3.8-0.2,7.7,0.1,11.5c0.4,5-1.4,6.6-6.5,6.6
		c-18.3-0.3-36.6-0.1-55,0C292.4,117.1,290.3,117.5,287.4,117.8z M328.4,96.9c-0.1-9.5-6.7-17.1-15.1-18c-12.8-1.3-23.5,5.9-26.1,18
		C300.9,96.9,314.4,96.9,328.4,96.9z"/>
	<path class="st2" d="M433.8,156.6c0-17.2,0-34.2,0-51.2c0-3.3-0.1-6.7-0.6-10c-1.2-7.7-6.2-11.7-14.3-11.7
		c-8.8,0-15.7,4.6-16.5,12.2c-0.7,7.1-0.5,14.3-0.6,21.5c-0.1,13,0,26,0,39.2c-8.1,0-15.9,0.3-23.6-0.1c-3.8-0.2-5.4-3.7-5.4-7.3
		c-0.1-26.8-0.1-53.7,0-80.5c0-4.3,2.2-7.5,6.9-7.6c7.1-0.2,14.2-0.1,21.7-0.1c0.2,2.7,0.4,5,0.6,7.9c1.4-1,2.5-1.8,3.6-2.7
		c15.6-13,39.5-8.4,48.7,2.7c6,7.2,8,15.5,8,24.6c0.1,18,0.3,36,0.2,54c0,7.2-2.5,9.4-9.8,9.6c-5.5,0.1-11,0-16.5,0
		C435.8,157,435.3,156.8,433.8,156.6z"/>
	<path class="st3" d="M754.1,60.9c-2.3,5.9-4.4,11.3-6.5,16.7c-14.5,35.9-29.1,71.8-43.5,107.7c-1.4,3.5-3.2,4.8-6.9,4.6
		c-7.3-0.3-14.6-0.1-22.7-0.1c0.8-2.2,1.2-3.9,1.9-5.5c3.4-8.1,6.7-16.3,10.2-24.4c1.6-3.7,1.7-7.1,0.2-11
		c-10.9-27.3-21.6-54.7-32.4-82.1c-0.7-1.7-1.2-3.4-2.1-5.7c9.3,0,18.1-0.4,26.7,0.3c2.1,0.2,4.8,3.9,5.8,6.6
		c5.9,15.9,11.5,31.9,17.2,47.9c0.4,1.2,0.9,2.4,1.8,4.9c3.7-10.2,7-19.3,10.2-28.5c3-8.3,6-16.6,8.8-24.9c1.5-4.5,4.2-6.7,9.3-6.5
		C739.2,61.2,746.3,60.9,754.1,60.9z"/>
	<path class="st1" d="M124.8,122.9c-10.3,0-20.7,0-31,0c-12.7,0-24.3-11.4-25-24.6c-0.8-15.7,8.3-28.9,22-29.4
		c22.5-0.8,45-1,67.4-0.2c14.4,0.5,23.4,13.2,22.7,29.3c-0.6,13.5-11.7,24.5-25.2,24.8c-1.7,0-3.3,0.1-5,0.1
		C142.2,122.9,133.5,122.9,124.8,122.9z"/>
	<path class="st3" d="M913,84.2c0,13.6-0.3,26.8,0.2,40.1c0.2,5.1,3.7,8.6,9.1,9c6.9,0.5,13.9,0.7,21.1,1.1c0,5.6,0.3,11-0.1,16.4
		c-0.3,4.2-3.1,6.4-7.6,6.2c-7.6-0.3-15.4,0.2-22.9-0.8c-16.9-2.3-26.9-13.7-27.5-30.8c-0.4-12.6-0.3-25.3-0.4-38
		c0-1-0.1-1.9-0.2-3.2c-4.6-0.3-9.1-0.6-13.7-1c0-5.4-0.3-10.4,0.1-15.4c0.3-4.3,2.8-7,7.5-7c1.8,0,3.6-0.2,6.4-0.3
		c0-6,0-11.7,0-17.5c0.1-9,1.9-10.8,10.9-10.9c4.8-0.1,9.7,0,14.5,0c0.5,0,1,0.2,2.1,0.4c0,9.1,0,18.3,0,28c10.2,0,19.8,0,29.7,0
		c0,6.2,0.5,12-0.3,17.6c-0.3,1.9-3.7,4.4-5.9,4.7c-5.9,0.9-11.9,0.7-17.9,0.9C916.4,84,914.8,84.1,913,84.2z"/>
	<path class="st4" d="M613.6,156.8c-8.5,0-15.6,0.3-22.7-0.2c-1.9-0.1-4-2-5.4-3.7c-1-1.3-1.3-3.4-1.3-5.2
		c0.1-26.5,0.2-52.9,0.6-79.4c0.1-5.8,2-7.3,7.6-7.4c6.2-0.1,12.3-0.1,18.5-0.1c0.5,0,0.9,0.2,1.7,0.4c0.2,2.5,0.4,5.1,0.7,8.3
		c1.5-1.1,2.5-1.9,3.4-2.6c7.2-6.1,15.7-7.8,24.8-6.8c1.1,0.1,2.9,1.9,2.9,2.9c0.3,7.4,0.1,14.9,0.1,22.9c-3.7,0-7.2-0.1-10.6,0
		c-11.9,0.5-20,8.5-20.2,20.4C613.4,122.9,613.6,139.5,613.6,156.8z"/>
</g>
</svg>
