<?xml version="1.0" encoding="UTF-8"?>
<svg width="13px" height="17px" viewBox="0 0 13 17" version="1.1" xmlns="http://www.w3.org/2000/svg" xmlns:xlink="http://www.w3.org/1999/xlink">
    <!-- Generator: Sketch 55.2 (78181) - https://sketchapp.com -->
    <title>Apple</title>
    <desc>Created with Sketch.</desc>
    <g id="MEWconnect_create-new-wallet" stroke="none" stroke-width="1" fill="none" fill-rule="evenodd">
        <g id="MEWconnect-1.1" transform="translate(-626.000000, -480.000000)" fill="#FFFFFF" fill-rule="nonzero">
            <g id="Group-3" transform="translate(592.000000, 470.000000)">
                <g id="Group-7" transform="translate(34.000000, 10.000000)">
                    <g id="Apple">
                        <path d="M7.29088984,1.24855167 C7.85672382,0.55257157 8.81314431,0.034799005 9.60237066,0 C9.70303728,0.966862882 9.3325841,1.93500783 8.78513272,2.63263631 C8.23645584,3.32898271 7.3386846,3.87148089 6.45754525,3.79913559 C6.33779573,2.85315211 6.78160425,1.86669189 7.29088984,1.24855167 M11.7807965,14.4373746 C11.1258506,15.4419669 10.4486706,16.4406984 9.37915335,16.4617609 C8.32661812,16.4826403 7.98942869,15.8075396 6.78843207,15.8075396 C5.58620994,15.8075396 5.2098043,16.4406984 4.21644353,16.4828235 C3.18404163,16.5234834 2.39884194,15.3974608 1.73881902,14.3972642 C0.390236366,12.3518153 -0.639539455,8.61403582 0.744933036,6.09147426 C1.43051653,4.83871008 2.65917459,4.04620852 3.99025,4.02514597 C5.00426931,4.00554863 5.96209037,4.74255493 6.58114636,4.74255493 C7.20160292,4.74255493 8.36425869,3.85774444 9.586264,3.98759967 C10.0978255,4.00976114 11.5335942,4.20390296 12.4558756,5.61985616 C12.3830455,5.67003999 10.7420919,6.67206818 10.7618751,8.75927588 C10.7818334,11.252533 12.843836,12.0809325 12.8678209,12.0922879 C12.8490882,12.1508968 12.5379846,13.275271 11.7807965,14.4373746" id="Shape"></path>
                    </g>
                </g>
            </g>
        </g>
    </g>
</svg>