<?xml version="1.0" encoding="UTF-8"?>
<svg width="61px" height="61px" viewBox="0 0 61 61" version="1.1" xmlns="http://www.w3.org/2000/svg" xmlns:xlink="http://www.w3.org/1999/xlink">
    <!-- Generator: Sketch 55.2 (78181) - https://sketchapp.com -->
    <title>Group 27</title>
    <desc>Created with Sketch.</desc>
    <g id="Landing-page" stroke="none" stroke-width="1" fill="none" fill-rule="evenodd">
        <g id="about" transform="translate(-214.000000, -1408.000000)">
            <g id="Group-27" transform="translate(213.000000, 1405.000000)">
                <g id="conversation" transform="translate(2.000000, 4.000000)">
                    <path d="M6.89671728,33.7342992 C1.2519729,24.5614388 4.10849292,12.5465915 13.2782997,6.89866464 C22.4481065,1.25073776 34.4591039,4.10805893 40.1053355,13.2809193 C42.048158,16.4364574 43.0509716,20.0810896 42.9980053,23.7869444 C42.6497775,34.5716182 33.7557845,43.1035296 22.9703337,42.9990506 L4.97482957,42.9990506 L6.86891855,39.7808023 C7.996998,37.925014 8.00683624,35.5997 6.89671728,33.7342992 Z" id="Shape" stroke="#003945" fill="#CDF4EE" fill-rule="nonzero"></path>
                    <path d="M54.1644158,47.929301 C59.694326,38.9463744 56.8890618,27.1850268 47.8987392,21.659666 C45.6231552,20.2616048 43.0800401,19.3545848 40.4317515,19 C40.565517,19.9357005 40.6283072,20.878123 40.6228131,21.8233463 C40.2815035,32.3816825 31.5642061,40.7345349 20.9930281,40.6322486 L19,40.6322486 C20.5588787,50.1171956 28.7916826,57.0596632 38.4113648,56.9996134 L56.0481217,56.9996134 L54.1916623,53.8489064 C53.0873397,52.0320655 53.0764636,49.7556647 54.1644158,47.929301 Z" id="Shape" fill="#05C0A5" fill-rule="nonzero"></path>
                    <g id="Group" fill-rule="nonzero">
                        <path d="M55.9389279,53.7457204 C55.0961336,52.3502483 55.0961336,50.6041295 55.9389279,49.2086573 C61.9057938,39.5075454 58.8797299,26.8052142 49.1787309,20.8383483 C47.0339703,19.5184261 44.6650443,18.6027922 42.1903031,18.1367314 C41.3929066,13.8141217 39.2343685,9.85864648 36.0308921,6.84907031 C31.7977227,2.79873414 26.0300648,0.761143789 20.1923905,1.2534043 C8.83742332,2.14295145 0.354483984,12.0681158 1.24403113,23.423083 C1.50117203,26.7131765 2.54464234,29.8931636 4.28658277,32.6965301 C5.12937703,34.0920023 5.12937703,35.8381211 4.28658277,37.2335932 L2.37547367,40.4232923 C1.98778605,41.0763646 2.20359469,41.9205141 2.85666707,42.3068465 C3.06841023,42.4319726 3.31041855,42.4992787 3.5578475,42.4992787 L18.1864204,42.4992787 C20.3449585,52.1521696 28.9185804,59.0100507 38.8094141,58.9976453 L56.6276861,58.9976453 C57.3865736,58.9976453 58.002605,58.38171 58.002605,57.6227095 C58.002605,57.3766357 57.9366541,57.1332723 57.8101728,56.9215291 L55.9389279,53.7457204 Z M38.8631686,56.2483206 C30.4613128,56.2961245 23.0989748,50.6330395 20.9898999,42.4993916 L21.3198805,42.4993916 C32.717535,42.5942526 42.1078644,33.5724128 42.4652869,22.1788237 C42.4652869,21.7800689 42.4652869,21.3814271 42.4652869,20.9826724 C52.0756033,23.2387817 58.0370486,32.857342 55.7808263,42.4676584 C55.3422074,44.3347249 54.6066964,46.1178847 53.6016221,47.7512997 C52.2295264,50.0211864 52.2295264,52.8644171 53.6016221,55.1343039 L54.2615832,56.2479035 L38.8631686,56.2479035 L38.8631686,56.2483206 Z" id="Shape" stroke="#05C0A5" fill="#05C0A5"></path>
                        <path d="M1.40176783,41.9953444 C2.25383721,40.6118352 4.91691115,36.0524799 3.24116557,33.2796842 C-3.07742971,23.0095799 0.124692536,9.56193442 10.3908755,3.24216735 C20.6570584,-3.07759972 34.1035721,0.123392926 40.4221673,10.3933593 C42.5949818,13.9236387 43.716559,17.9996484 43.6578045,22.1446331 C43.2564531,34.2301599 33.2807327,43.7847174 21.1910903,43.658769 L2.43515263,43.658769 C1.15428162,43.5109678 0.809820019,42.9564929 1.40176783,41.9953444 Z" id="Path" stroke="#CDF4EE" fill="#CDF4EE"></path>
                    </g>
                    <circle id="Oval-6" fill="#5A78F0" cx="12.5" cy="22.5" r="2.5"></circle>
                    <circle id="Oval-6" fill="#5A78F0" cx="22.5" cy="22.5" r="2.5"></circle>
                    <circle id="Oval-6" fill="#5A78F0" cx="31.5" cy="22.5" r="2.5"></circle>
                </g>
            </g>
        </g>
    </g>
</svg>