<?xml version="1.0" encoding="UTF-8"?>
<svg width="64px" height="64px" viewBox="0 0 64 64" version="1.1" xmlns="http://www.w3.org/2000/svg" xmlns:xlink="http://www.w3.org/1999/xlink">
    <!-- Generator: Sketch 55.2 (78181) - https://sketchapp.com -->
    <title>icon</title>
    <desc>Created with Sketch.</desc>
    <g id="icon" stroke="none" stroke-width="1" fill="none" fill-rule="evenodd">
        <g id="ens-manager" transform="translate(4.457518, 7.692929)" fill-rule="nonzero">
            <path d="M54.9139308,9.8 L54.9139308,44.5124577 C54.9139308,46.4805997 53.2865832,48.076094 51.2791482,48.076094 L3.63478261,48.076094 C1.6273476,48.076094 -1.85096383e-12,46.4805997 -1.85096383e-12,44.5124577 L-1.85096383e-12,9.8 L54.9139308,9.8 Z" id="Rectangle-4" fill="#CDF4EE"></path>
            <path d="M27.5202597,17.3070705 C20.9157131,17.3070705 15.5424819,22.6803016 15.5424819,29.2848482 C15.5424819,35.8893949 20.9157131,41.2626261 27.5202597,41.2626261 C34.1248951,41.2626261 39.4980375,35.8893949 39.4980375,29.2848482 C39.4980375,22.6803016 34.1248951,17.3070705 27.5202597,17.3070705 Z M36.7408418,27.9539841 L32.8130179,27.9539841 C32.7014028,25.4530241 32.2775669,23.1235681 31.5895988,21.2890162 C31.5279355,21.1245213 31.4649411,20.9683666 31.4012371,20.8166481 C34.2200075,22.1137084 36.2845328,24.7774774 36.7408418,27.9539841 Z M18.2996776,30.6157125 L22.2275015,30.6157125 C22.3391166,33.1166725 22.7629526,35.4461285 23.4509206,37.2806804 C23.512584,37.4451752 23.5755782,37.6013299 23.6392823,37.7530485 C20.8206006,36.4559882 18.7560754,33.7922192 18.2996776,30.6157125 Z M23.4509206,21.289105 C22.7629526,23.1236568 22.3391166,25.4531128 22.2275015,27.9540728 L18.2996776,27.9540728 C18.7560754,24.7775661 20.8206006,22.1137084 23.6392823,20.8167368 C23.5755782,20.9684554 23.512584,21.1246101 23.4509206,21.289105 Z M29.0973338,36.3460588 C28.4071476,38.186644 27.7100409,38.6008977 27.5202597,38.6008977 C27.3304785,38.6008977 26.6334605,38.186644 25.9431857,36.3460588 C25.3607107,34.7928516 24.9971186,32.7933612 24.891448,30.6157125 L30.1490714,30.6157125 C30.0434008,32.7932725 29.6798087,34.7928516 29.0973338,36.3460588 Z M24.891448,27.9539841 C24.9971186,25.7764241 25.3607107,23.776845 25.9431857,22.2236378 C26.6334605,20.3830525 27.3304785,19.9687989 27.5202597,19.9687989 C27.7100409,19.9687989 28.4071476,20.3830525 29.0973338,22.2236378 C29.6798087,23.776845 30.0434008,25.7763354 30.1490714,27.9539841 L24.891448,27.9539841 Z M31.4012371,37.7530485 C31.4649411,37.6013299 31.5279355,37.4450865 31.5895988,37.2806804 C32.2775669,35.4461285 32.7014028,33.1166725 32.8130179,30.6157125 L36.7408418,30.6157125 C36.2845328,33.7922192 34.2200075,36.4560769 31.4012371,37.7530485 Z" id="Shape" fill="#05C0A5"></path>
            <path d="M54.9139308,9.23705556e-14 L54.9139308,6.23636364 C54.9139308,8.20450565 53.2870178,9.8 51.280119,9.8 L3.6338118,9.8 C1.62691296,9.8 3.37507799e-13,8.20450565 3.37507799e-13,6.23636364 L3.37507799e-13,9.23705556e-14 L54.9139308,9.23705556e-14 Z" id="Rectangle-4" fill="#5A78F0" transform="translate(27.456965, 4.900000) scale(-1, 1) rotate(-180.000000) translate(-27.456965, -4.900000) "></path>
            <path d="M45.1101522,3.17867564 L48.194406,3.17867564 C49.0460713,3.17867564 49.736533,3.85580322 49.736533,4.69102133 C49.736533,5.48228059 49.1168389,6.13165249 48.3274627,6.19781558 L48.194406,6.203367 L45.1101522,6.203367 C44.2584869,6.203367 43.5680253,5.52623943 43.5680253,4.69102133 C43.5680253,3.89976206 44.1877194,3.25039015 44.9770956,3.18422707 L45.1101522,3.17867564 L48.194406,3.17867564 L45.1101522,3.17867564 Z M35.8573907,3.17867564 L38.9416446,3.17867564 C39.7933099,3.17867564 40.4837714,3.85580322 40.4837714,4.69102133 C40.4837714,5.48228059 39.8640774,6.13165249 39.0747012,6.19781558 L38.9416446,6.203367 L35.8573907,6.203367 C35.0057254,6.203367 34.3152638,5.52623943 34.3152638,4.69102133 C34.3152638,3.89976206 34.9349579,3.25039015 35.724334,3.18422707 L35.8573907,3.17867564 L38.9416446,3.17867564 L35.8573907,3.17867564 Z M29.688883,3.17867564 C30.5405483,3.17867564 31.2310099,3.85580322 31.2310099,4.69102133 C31.2310099,5.52623943 30.5405483,6.203367 29.688883,6.203367 L29.688883,6.203367 L26.6046291,6.203367 C25.7529638,6.203367 25.0625023,5.52623943 25.0625023,4.69102133 C25.0625023,3.85580322 25.7529638,3.17867564 26.6046291,3.17867564 L26.6046291,3.17867564 L29.688883,3.17867564 Z" id="Combined-Shape" fill="#FFFFFF"></path>
        </g>
    </g>
</svg>