<?xml version="1.0" encoding="UTF-8"?>
<svg width="68px" height="60px" viewBox="0 0 68 60" version="1.1" xmlns="http://www.w3.org/2000/svg" xmlns:xlink="http://www.w3.org/1999/xlink">
    <!-- Generator: Sketch 55.2 (78181) - https://sketchapp.com -->
    <title>img19</title>
    <desc>Created with Sketch.</desc>
    <defs>
        <filter x="-12.8%" y="-43.1%" width="125.5%" height="186.1%" filterUnits="objectBoundingBox" id="filter-1">
            <feOffset dx="0" dy="6" in="SourceAlpha" result="shadowOffsetOuter1"></feOffset>
            <feGaussianBlur stdDeviation="5" in="shadowOffsetOuter1" result="shadowBlurOuter1"></feGaussianBlur>
            <feColorMatrix values="0 0 0 0 0.0125916444   0 0 0 0 0.157410553   0 0 0 0 0.113523398  0 0 0 0.0673623252 0" type="matrix" in="shadowBlurOuter1" result="shadowMatrixOuter1"></feColorMatrix>
            <feMerge>
                <feMergeNode in="shadowMatrixOuter1"></feMergeNode>
                <feMergeNode in="SourceGraphic"></feMergeNode>
            </feMerge>
        </filter>
    </defs>
    <g id="Symbols" stroke="none" stroke-width="1" fill="none" fill-rule="evenodd">
        <g id="get-a-new-wallet-section" transform="translate(-1016.000000, -107.000000)">
            <g id="Group-19">
                <g transform="translate(991.000000, 94.000000)">
                    <g id="Group-2" filter="url(#filter-1)">
                        <g id="img19" transform="translate(33.000000, 16.000000)">
                            <g id="Group-3">
                                <polygon id="Rectangle" fill="#5A78F0" transform="translate(6.556349, 4.242641) rotate(45.000000) translate(-6.556349, -4.242641) " points="3.55634919 1.24264069 6.42269544 2.1552105 9.55634919 1.24264069 8.42199924 4.1545143 9.55634919 7.24264069 6.46827349 6.10824006 3.55634919 7.24264069 4.46896969 4.10893626"></polygon>
                                <polygon id="Rectangle" fill="#CDF4EE" transform="translate(47.556349, 7.535534) rotate(45.000000) translate(-47.556349, -7.535534) " points="45.0563492 5.03553391 47.4449711 5.79600875 50.0563492 5.03553391 49.1110576 7.46209525 50.0563492 10.0355339 47.4829528 9.09020005 45.0563492 10.0355339 45.8168663 7.42411355"></polygon>
                                <g id="Group-64" transform="translate(9.000000, 7.000000)" fill-rule="nonzero">
                                    <path d="M28.7285714,12.6503336 C27.9028078,12.6503336 26.3725399,13.1152168 25.3770707,14.0466325 C24.2382273,15.112197 23.6828633,16.7143376 23.6828633,17.6582929 C23.6828633,18.591239 23.9560224,20.6425675 25.0767296,21.8368963 C26.0811305,22.9072783 27.8917901,23.1776549 28.7285714,23.1776549 L36.2202381,23.1776549 L36.2202381,12.6503336 L28.7285714,12.6503336 Z" id="Shape" fill="#5A78F0"></path>
                                    <path d="M28.9041574,12.6503336 L36.2202381,12.6503336 L36.2202381,6.33394089 C35.9078066,6.33394089 3.68109809,6.33394089 3.68109809,6.33394089 C3.0170927,6.33394089 2.00491829,5.9806209 1.44431559,5.40773972 C0.883712893,4.83485853 0.674771638,3.92769892 0.545634921,3.55465359 C0.545634921,4.03512053 0.545634921,23.4969134 0.545634921,24.230387 C0.545634921,27.1373313 2.88524786,29.4940476 5.77140687,29.4940476 L36.2202381,29.4940476 L36.2202381,23.1776549 L28.9041574,23.1776549 C26.0228061,23.1776549 23.6783854,20.8162364 23.6783854,17.9139943 C23.6783854,15.0117522 26.0228061,12.6503336 28.9041574,12.6503336 Z" id="Path" fill="#CDF4EE"></path>
                                    <path d="M3.671109,0 C1.9449444,0 0.545634921,1.43634591 0.545634921,3.20819805 C0.545634921,4.98005019 1.9449444,6.35458622 3.671109,6.35458622 L31.9392857,6.35458622 L31.9392857,0 L3.671109,0 Z" id="Path" fill="#00C0A5"></path>
                                    <circle id="Oval" fill="#FFFFFF" cx="28.3703633" cy="17.9628336" r="1.5625"></circle>
                                </g>
                                <polygon id="Rectangle" fill="#00C0A5" transform="translate(5.556349, 37.949747) rotate(45.000000) translate(-5.556349, -37.949747) " points="2.05634919 34.4497475 5.40041982 35.5144123 9.05634919 34.4497475 7.73294092 37.8469334 9.05634919 41.4497475 5.45359421 40.1262801 2.05634919 41.4497475 3.1210731 37.793759"></polygon>
                            </g>
                        </g>
                    </g>
                </g>
            </g>
        </g>
    </g>
</svg>