<svg width="48" height="49" viewBox="0 0 48 49" fill="none" xmlns="http://www.w3.org/2000/svg">
<rect y="0.600098" width="48" height="48" rx="24" fill="#F2FAFA"/>
<path d="M29 19.6001H25V21.6001H29C30.65 21.6001 32 22.9501 32 24.6001C32 26.2501 30.65 27.6001 29 27.6001H25V29.6001H29C31.76 29.6001 34 27.3601 34 24.6001C34 21.8401 31.76 19.6001 29 19.6001ZM23 27.6001H19C17.35 27.6001 16 26.2501 16 24.6001C16 22.9501 17.35 21.6001 19 21.6001H23V19.6001H19C16.24 19.6001 14 21.8401 14 24.6001C14 27.3601 16.24 29.6001 19 29.6001H23V27.6001ZM20 23.6001H28V25.6001H20V23.6001Z" fill="#05C0A5"/>
</svg>
