<svg width="64" height="64" viewBox="0 0 64 64" fill="none" xmlns="http://www.w3.org/2000/svg">
<g clip-path="url(#clip0_114_274)">
<path d="M56.1267 21.4933C56.0954 22.8381 54.8898 23.9005 53.434 23.8666C51.9782 23.8327 50.8237 22.7154 50.855 21.3706C50.8863 20.0258 52.0916 18.9633 53.5473 18.9972C55.0031 19.0311 56.158 20.1485 56.1267 21.4933Z" fill="#0098A6"/>
<path d="M56.5166 14.5118C56.2113 15.9302 56.4342 17.8798 53.7868 17.9249L53.7241 17.9229C51.8041 18.0402 50.2077 16.1751 51.3239 13.101C52.4277 10.0612 56.2485 9.86504 56.3182 7.63904C56.3627 6.19907 54.9383 5.3734 53.6289 5.50169C51.5895 5.70177 51.5387 7.49025 50.0853 8.34521C47.5722 9.82375 43.4343 6.48201 48.2492 2.82702C53.5534 -1.19956 61.3701 1.34168 61.4986 7.33131C61.6061 12.3343 56.9914 12.3041 56.5166 14.5118Z" fill="#0098A6"/>
<path d="M43.7504 59.8553L42.2379 45.0098C42.0167 42.1411 41.5022 40.5803 40.6551 39.2204L40.5973 39.1301C39.7162 37.7473 38.5001 36.7009 37.0004 36.0404C35.5329 35.3941 33.9433 35.1022 31.1292 35.2962L30.9396 35.3094L26.8498 35.6209C26.8484 35.6176 26.8473 35.6177 26.8449 35.6178L26.6993 35.6301C21.8886 36.0759 18.3083 40.3003 18.6809 45.1351L20.2537 59.8553H43.7504Z" fill="white"/>
<path d="M43.7504 59.8553L42.2379 45.0098C42.0167 42.1411 41.5022 40.5803 40.6551 39.2204L40.5973 39.1301C39.7162 37.7473 38.5001 36.7009 37.0004 36.0404C35.5329 35.3941 33.9433 35.1022 31.1292 35.2962L30.9396 35.3094L26.8498 35.6209C26.8484 35.6176 26.8473 35.6177 26.8449 35.6178L26.6993 35.6301C21.8886 36.0759 18.3083 40.3003 18.6809 45.1351L20.2537 59.8553H43.7504Z" stroke="black" stroke-width="1.125" stroke-linecap="round" stroke-linejoin="round"/>
<path d="M1.83691 59.8262H62.0935" stroke="black" stroke-width="1.375" stroke-linecap="round" stroke-linejoin="round"/>
<path d="M19.25 45.625L13.625 55.375H24.875" stroke="black" stroke-width="9.25" stroke-linecap="round" stroke-linejoin="round"/>
<path d="M19.25 45.625L13.625 55.375H24.875" stroke="white" stroke-width="7" stroke-linecap="round" stroke-linejoin="round"/>
<path d="M43.4111 43.375L50.6611 55.375H44.7861" stroke="black" stroke-width="9.25" stroke-linecap="round" stroke-linejoin="round"/>
<path d="M43.4111 43.375L50.6611 55.375H44.7861" stroke="white" stroke-width="7" stroke-linecap="round" stroke-linejoin="round"/>
<path d="M24.7916 59.7917H39.125L42.0871 50.6443L22.2084 48.7917L24.7916 59.7917Z" fill="white"/>
<path d="M24.7916 59.7917H39.125L42.0871 50.6443L22.2084 48.7917L24.7916 59.7917Z" stroke="black" stroke-width="1.125" stroke-linecap="round" stroke-linejoin="round"/>
<path d="M27.9479 49.2207L35.6674 49.9522" stroke="black" stroke-width="2.375" stroke-linecap="round" stroke-linejoin="round"/>
<path d="M48.6066 51.9745C49.767 53.895 50.6611 55.375 50.6611 55.375H44.7861" stroke="black" stroke-width="9.25" stroke-linecap="round" stroke-linejoin="round"/>
<path d="M48.6066 51.9745C49.767 53.895 50.6611 55.375 50.6611 55.375H44.7861" stroke="white" stroke-width="7" stroke-linecap="round" stroke-linejoin="round"/>
<path d="M45.7861 54.8541L41.2445 54.8333" stroke="black" stroke-width="1.125" stroke-linecap="round" stroke-linejoin="round"/>
<path d="M45.7549 58.1041L42.0674 58.0833" stroke="black" stroke-width="1.125" stroke-linecap="round" stroke-linejoin="round"/>
<path d="M49.4062 46.4531C49.5156 46.5781 53.2031 52.8281 53.25 52.9219C52.3281 53.7031 45.0704 54.8594 44.3594 52.7188C44.9687 52.3125 43.875 50.8751 43.3046 50.0079C43.0311 47.8438 48.0625 47.3125 49.4062 46.4531Z" fill="white" fill-opacity="0.99"/>
<path d="M50.3438 51.2188L42.5 51.2812" stroke="black" stroke-width="1.125" stroke-linecap="round"/>
<path d="M47.4735 51.3542C49.8748 53.1875 49.7498 58.625 47.911 59.5" stroke="black" stroke-width="1.125" stroke-linecap="round" stroke-linejoin="round"/>
<path d="M39.3436 41.125C38.7499 42.125 40.1874 42.2188 40.3691 41.6324C42.1874 43.1562 43.0148 46.574 41.4999 47C41.1718 46.25 40.1249 46.7188 40.4061 47.4062C37.8436 47.1562 37.4686 41.4375 39.3436 41.125Z" fill="white"/>
<path d="M24.7501 42.0313C20.0001 40.3438 20.3751 46.7501 22.3751 47.3126C22.7032 46.5626 23.6719 47.0469 23.4063 47.6563C25.9688 47.4063 26.5413 42.6677 24.7501 42.0313Z" fill="white"/>
<path d="M13.9222 55.375C15.5181 55.375 23.0001 55.375 23.0001 55.375" stroke="black" stroke-width="9.25" stroke-linecap="round" stroke-linejoin="round"/>
<path d="M13.9222 55.375C15.5181 55.375 23.0001 55.375 23.0001 55.375" stroke="white" stroke-width="7" stroke-linecap="round" stroke-linejoin="round"/>
<path d="M14.2188 49.4687C13.2813 49.6875 12.0625 52.2812 11.625 52.7187C11.1875 53.1562 14 55.4375 16.5 54.2187C17.0248 53.9629 17.2813 53.2187 17.4688 51.8437C16.875 51.8125 16.7813 50.7812 17.4688 50.7187C16.8125 49.4687 15.1563 49.25 14.2188 49.4687Z" fill="white"/>
<path d="M20.5011 42.4175C19.8911 42.6475 18.9199 43.2975 18.5174 43.8313L13.3299 53.2688C11.5924 55.5738 13.2399 58.875 16.1249 58.875H13.6249C10.7371 58.875 9.09377 55.5747 10.8299 53.2688L16.4549 43.4563C17.4463 42.1412 19.1318 41.8889 20.5011 42.4175Z" fill="#D8D8D8"/>
<path d="M20 51.375V59.4584" stroke="black" stroke-width="1.125" stroke-linecap="round" stroke-linejoin="round"/>
<path d="M24 54.7917H26.6666" stroke="black" stroke-width="1.125" stroke-linecap="round" stroke-linejoin="round"/>
<path d="M24.0312 58.0417H25.8438" stroke="black" stroke-width="1.125" stroke-linecap="round" stroke-linejoin="round"/>
<path d="M36.949 14.3382C43.3419 17.0742 44.1865 23.4189 44.7105 28.4044C45.2896 33.9135 44.205 38.8335 39.8468 41.9092C36.0091 44.6176 26.8091 45.763 22.1508 43.7691C17.2633 41.6772 15.1671 37.1051 14.5854 31.5706C14.2413 28.2965 12.9992 20.6102 19.2529 16.1981C23.1065 13.4795 32.31 12.3527 36.949 14.3382Z" fill="white"/>
<path d="M36.949 14.3382C43.3419 17.0742 44.1865 23.4189 44.7105 28.4044C45.2896 33.9135 44.2051 38.8335 39.8468 41.9092C36.0091 44.6176 26.8091 45.763 22.1508 43.7691C17.2633 41.6772 15.1671 37.1051 14.5854 31.5706C14.2413 28.2965 12.9992 20.6102 19.2529 16.1981C23.1065 13.4795 32.31 12.3527 36.949 14.3382Z" stroke="black" stroke-width="1.18125" stroke-linecap="round" stroke-linejoin="round"/>
<path d="M24.4164 43.8382C23.0436 43.5616 21.7361 43.0773 20.3595 42.1174C20.3568 42.115 20.3542 42.114 20.3514 42.1116C17.3854 40.036 15.6767 36.5441 15.1478 31.5121C14.8298 28.4872 13.855 22.3948 17.8933 18.1358C17.8976 18.1287 17.9023 18.1243 17.9068 18.1198C19.7755 16.1554 21.9748 15.2661 24.7146 14.6285C17.8777 19.6205 21.2313 38.8548 24.4164 43.8382Z" fill="#D8D8D8"/>
<path d="M35.5898 17.0326C37.0433 17.2752 38.593 18.0103 39.7892 18.8127" stroke="black" stroke-width="1.44375" stroke-linecap="round"/>
<path d="M31.2912 20.8491C28.8299 21.1882 24.2907 21.4199 22.7049 25.9456C21.7679 28.6202 22.3994 33.1848 24.056 35.5234C26.8157 39.4169 31.2439 38.4421 33.4514 38.1375C35.8072 37.812 40.3414 37.569 41.9233 33.0569C42.8583 30.3891 42.232 25.824 40.5722 23.4791C37.8109 19.5831 33.3505 20.5653 31.2912 20.8491Z" fill="white"/>
<path d="M31.2912 20.8491C28.8299 21.1882 24.2907 21.4199 22.7049 25.9456C21.7679 28.6202 22.3994 33.1848 24.056 35.5234C26.8157 39.4169 31.2439 38.4421 33.4514 38.1375C35.8072 37.812 40.3414 37.569 41.9233 33.0569C42.8583 30.3891 42.232 25.824 40.5722 23.4791C37.8109 19.5831 33.3505 20.5653 31.2912 20.8491Z" stroke="black" stroke-width="1.18125" stroke-linecap="round" stroke-linejoin="round"/>
<path d="M28.8219 48.737C29.4999 47.0625 34.4374 47.1875 34.8899 49.4181" stroke="black" stroke-width="0.75" stroke-linecap="round" stroke-linejoin="round"/>
<path d="M44.0778 23.5281C44.4282 24.6624 44.5767 26.3073 44.6875 27.2651C44.8875 28.9935 44.9531 31.028 44.9639 31.0629C45.0844 31.1264 45.7855 31.4223 46.6999 31.0267C48.0223 30.4544 48.8362 29.169 48.7791 27.5327C48.7462 26.592 48.8756 24.4924 46.8688 23.4595C45.7194 22.8705 44.6252 23.2842 44.0778 23.5281Z" fill="white"/>
<path d="M44.0778 23.5281C44.4282 24.6624 44.5767 26.3073 44.6875 27.2651C44.8875 28.9935 44.9531 31.028 44.9639 31.0629C45.0844 31.1264 45.7855 31.4223 46.6999 31.0267C48.0223 30.4544 48.8362 29.169 48.7791 27.5327C48.7462 26.592 48.8756 24.4924 46.8688 23.4595C45.7194 22.8705 44.6252 23.2842 44.0778 23.5281Z" stroke="black" stroke-width="1.18125" stroke-linecap="round" stroke-linejoin="round"/>
<path d="M46.5693 25.4568L46.8643 28.1628" stroke="#BABABA" stroke-width="1.575" stroke-linecap="round" stroke-linejoin="round"/>
<path d="M12.1685 27.1566C10.3999 28.559 10.9338 30.5937 11.084 31.5228C11.3452 33.1392 12.3927 34.2424 13.801 34.5474C14.7748 34.7584 15.904 34.5695 16.7469 34.0693C17.9892 33.3321 18.6262 31.9505 18.3669 30.3462C18.2012 29.3207 18.0445 27.3002 15.9627 26.5437C14.7354 26.0978 13.1804 26.354 12.1685 27.1566Z" fill="#D8D8D8"/>
<path d="M12.1685 27.1566C10.3999 28.559 10.9338 30.5937 11.084 31.5228C11.3452 33.1392 12.3927 34.2424 13.801 34.5474C14.7748 34.7584 15.904 34.5695 16.7469 34.0693C17.9892 33.3321 18.6262 31.9505 18.3669 30.3462C18.2012 29.3207 18.0445 27.3002 15.9627 26.5437C14.7354 26.0978 13.1804 26.354 12.1685 27.1566Z" stroke="black" stroke-width="1.18125" stroke-linecap="round" stroke-linejoin="round"/>
<path d="M14.3933 32.1301L13.8698 28.89" stroke="white" stroke-width="1.575" stroke-linecap="round" stroke-linejoin="round"/>
<path d="M34.0233 30.1212C34.6892 30.4451 35.5497 30.268 36.0451 29.6994" stroke="black" stroke-width="1.3125" stroke-linecap="round"/>
<path d="M38.7734 23.9756L40.5369 24.3381" stroke="black" stroke-width="1.3125" stroke-linecap="round"/>
<path d="M26.9806 26.3355L28.8191 25.1787" stroke="black" stroke-width="1.3125" stroke-linecap="round"/>
<path d="M40.5401 29.9024C41.412 29.7799 42.0065 28.8758 41.8672 27.8841C41.7278 26.8924 40.9071 26.187 40.0351 26.3096C39.1633 26.4321 38.5688 27.3363 38.7082 28.328C38.8475 29.3197 39.6682 30.0249 40.5401 29.9024Z" fill="black"/>
<path d="M28.9805 31.5824C29.9722 31.443 30.6637 30.5251 30.5244 29.5334C30.385 28.5417 29.4673 27.8502 28.4756 27.9895C27.484 28.1289 26.7922 29.0467 26.9315 30.0384C27.0709 31.03 27.9889 31.7217 28.9805 31.5824Z" fill="black"/>
</g>
<defs>
<clipPath id="clip0_114_274">
<rect width="64" height="64" fill="white"/>
</clipPath>
</defs>
</svg>
