<?xml version="1.0" encoding="UTF-8"?>
<svg width="22px" height="22px" viewBox="0 0 22 22" version="1.1" xmlns="http://www.w3.org/2000/svg" xmlns:xlink="http://www.w3.org/1999/xlink">
    <!-- Generator: Sketch 55.2 (78181) - https://sketchapp.com -->
    <title>Shape</title>
    <desc>Created with Sketch.</desc>
    <g id="Interact-with-contract" stroke="none" stroke-width="1" fill="none" fill-rule="evenodd">
        <polygon id="Shape" transform="translate(11.000000, 11.000000) rotate(90.000000) translate(-11.000000, -11.000000) " points="0 0 22 0 22 22 0 22"></polygon>
        <path d="M16.9583333,4.125 L13.2916667,7.79166667 L16.0416667,7.79166667 L16.0416667,14.2083333 C16.0416667,15.22125 15.22125,16.0416667 14.2083333,16.0416667 C13.1954167,16.0416667 12.375,15.22125 12.375,14.2083333 L12.375,7.79166667 C12.375,5.77041667 10.7295833,4.125 8.70833333,4.125 C6.68708333,4.125 5.04166667,5.77041667 5.04166667,7.79166667 L5.04166667,14.2083333 L2.29166667,14.2083333 L5.95833333,17.875 L9.625,14.2083333 L6.875,14.2083333 L6.875,7.79166667 C6.875,6.77875 7.69541667,5.95833333 8.70833333,5.95833333 C9.72125,5.95833333 10.5416667,6.77875 10.5416667,7.79166667 L10.5416667,14.2083333 C10.5416667,16.2295833 12.1870833,17.875 14.2083333,17.875 C16.2295833,17.875 17.875,16.2295833 17.875,14.2083333 L17.875,7.79166667 L20.625,7.79166667 L16.9583333,4.125 Z" id="Shape" fill="#4D687E" fill-rule="nonzero" transform="translate(11.458333, 11.000000) rotate(90.000000) translate(-11.458333, -11.000000) "></path>
    </g>
</svg>