<?xml version="1.0" encoding="utf-8"?>
<!-- Generator: Adobe Illustrator 23.0.1, SVG Export Plug-In . SVG Version: 6.00 Build 0)  -->
<svg version="1.1" id="Layer_1" xmlns="http://www.w3.org/2000/svg" xmlns:xlink="http://www.w3.org/1999/xlink" x="0px" y="0px"
	 viewBox="0 0 48 46" style="enable-background:new 0 0 48 46;" xml:space="preserve">
<style type="text/css">
	.st0{fill:none;stroke:#FFFFFF;stroke-width:3;stroke-miterlimit:10;}
	.st1{fill:none;stroke:#FFFFFF;stroke-width:2;stroke-miterlimit:10;}
</style>
<g>
	<path class="st0" d="M40.6,31.6h-33c-0.6,0-1.2-0.5-1.2-1.2V12.9c0-1.9,1.5-3.5,3.5-3.5h28.5c1.9,0,3.5,1.5,3.5,3.5v17.5
		C41.8,31.1,41.3,31.6,40.6,31.6z"/>
	<path class="st0" d="M39.3,37.4H8.7c-2.5,0-4.5-2-4.5-4.5l0,0c0-0.7,0.6-1.3,1.3-1.3h37c0.7,0,1.3,0.6,1.3,1.3l0,0
		C43.8,35.4,41.8,37.4,39.3,37.4z"/>
</g>
<polyline class="st1" points="13.8,25.8 19.7,19.8 25.6,26.1 34.2,17.3 "/>
<polyline class="st1" points="29.5,16.5 35.3,16.5 35.3,21.7 "/>
</svg>
