<?xml version="1.0" encoding="UTF-8" standalone="no"?>
<!-- Svg Vector Icons : http://www.onlinewebfonts.com/icon -->

<svg
   version="1.1"
   x="0px"
   y="0px"
   viewBox="0 0 1000 1000"
   enable-background="new 0 0 1000 1000"
   xml:space="preserve"
   id="svg5726"
   sodipodi:docname="icon-trash-gray"
   inkscape:version="1.2 (56b05e47e7, 2022-06-09, custom)"
   xmlns:inkscape="http://www.inkscape.org/namespaces/inkscape"
   xmlns:sodipodi="http://sodipodi.sourceforge.net/DTD/sodipodi-0.dtd"
   xmlns="http://www.w3.org/2000/svg"
   xmlns:svg="http://www.w3.org/2000/svg"><defs
   id="defs5730" /><sodipodi:namedview
   id="namedview5728"
   pagecolor="#ffffff"
   bordercolor="#000000"
   borderopacity="0.25"
   inkscape:showpageshadow="2"
   inkscape:pageopacity="0.0"
   inkscape:pagecheckerboard="0"
   inkscape:deskcolor="#d1d1d1"
   showgrid="false"
   inkscape:zoom="0.61871843"
   inkscape:cx="180.21121"
   inkscape:cy="403.2529"
   inkscape:window-width="1872"
   inkscape:window-height="1016"
   inkscape:window-x="1968"
   inkscape:window-y="27"
   inkscape:window-maximized="1"
   inkscape:current-layer="g5724" />
<metadata
   id="metadata5712"> Svg Vector Icons : http://www.onlinewebfonts.com/icon </metadata>
<g
   id="g5724"><g
     transform="matrix(0.10137314,0,0,-0.10137314,-6.8656079,512.16462)"
     id="g5722"
     style="fill:#8f9bba;fill-opacity:1"><path
       d="M 3656.2,4991 C 3474.3,4947 3317.4,4857 3171.9,4707.7 2961.3,4495.2 2858,4236.8 2856,3926.7 v -128.3 l -974.4,-5.7 C 930.2,3787 905.3,3785 853.6,3746.8 752.1,3672.1 721.5,3610.9 721.5,3490.3 c 0,-120.6 30.6,-181.9 132.1,-256.5 47.9,-36.4 84.2,-40.2 415.4,-45.9 l 361.8,-5.8 V -325 c 0,-3882.2 -7.7,-3618 126.3,-3884.1 135.9,-268 421.1,-490 712.1,-549.4 141.7,-28.7 4919.7,-28.7 5061.4,0 388.6,80.4 727.4,421.1 811.7,819.3 21.1,105.3 26.8,696.8 26.8,3623.7 V 3182 l 361.8,5.8 c 331.2,5.7 367.5,9.6 415.4,45.9 101.5,74.7 132.1,135.9 132.1,256.5 0,120.6 -30.6,181.9 -132.1,256.5 -51.7,38.3 -76.6,40.2 -1028,45.9 l -974.4,5.7 v 137.8 c -1.9,419.2 -227.8,796.3 -582,970.5 -86.1,42.1 -201,86.1 -258.4,95.7 -61.2,11.5 -587.7,19.1 -1320.8,17.2 -968.6,0.2 -1240.4,-7.4 -1326.5,-28.5 z M 6250,4384.2 c 174.2,-74.7 264.2,-216.3 277.6,-438.4 l 9.6,-149.3 H 5000 3462.8 l 9.6,149.3 c 13.4,218.2 103.4,361.8 273.7,436.5 86.2,38.2 2413.9,38.2 2503.9,1.9 z M 7756.6,-303.9 c -1.9,-2865.7 -5.7,-3503.2 -26.8,-3562.5 -42.1,-113 -122.5,-204.8 -229.7,-254.6 l -97.6,-45.9 H 5000 2597.6 l -97.6,45.9 c -107.2,49.8 -187.6,141.6 -229.7,254.6 -21.1,59.3 -24.9,696.8 -26.8,3562.5 V 3183.9 H 5000 7756.6 Z"
       id="path5714"
       style="fill:#8f9bba;fill-opacity:1" /><path
       d="m 3344.1,2238.3 c -78.5,-34.5 -158.9,-132.1 -172.3,-208.7 -5.7,-34.5 -7.7,-1190.7 -5.7,-2572.8 5.7,-2502 5.7,-2511.5 45.9,-2563.2 74.7,-101.5 135.9,-132.1 256.5,-132.1 120.6,0 181.9,30.6 256.5,132.1 40.2,51.7 40.2,57.4 40.2,2614.9 0,2557.5 0,2563.2 -40.2,2614.9 -21.1,28.7 -61.3,70.8 -88.1,90 -63,47.8 -216.2,61.2 -292.8,24.9 z"
       id="path5716"
       style="fill:#8f9bba;fill-opacity:1" /><path
       d="m 4875.6,2238.3 c -78.5,-34.5 -158.9,-132.1 -172.3,-208.7 -5.7,-34.5 -7.7,-1190.7 -5.7,-2572.8 5.7,-2502 5.7,-2511.5 45.9,-2563.2 74.7,-101.5 135.9,-132.1 256.5,-132.1 120.6,0 181.9,30.6 256.5,132.1 40.2,51.7 40.2,57.4 40.2,2614.9 0,2557.5 0,2563.2 -40.2,2614.9 -21.1,28.7 -61.3,70.8 -88.1,90 -63.1,47.8 -216.3,61.2 -292.8,24.9 z"
       id="path5718"
       style="fill:#8f9bba;fill-opacity:1" /><path
       d="m 6407,2238.3 c -78.5,-34.5 -158.9,-132.1 -172.3,-208.7 -5.7,-34.5 -7.7,-1190.7 -5.7,-2572.8 5.7,-2502 5.7,-2511.5 45.9,-2563.2 74.7,-101.5 135.9,-132.1 256.5,-132.1 120.6,0 181.9,30.6 256.5,132.1 40.2,51.7 40.2,57.4 40.2,2614.9 0,2557.5 0,2563.2 -40.2,2614.9 -21.1,28.7 -61.3,70.8 -88.1,90 -63.1,47.8 -216.2,61.2 -292.8,24.9 z"
       id="path5720"
       style="fill:#8f9bba;fill-opacity:1" /></g></g>
</svg>
