<?xml version="1.0" encoding="UTF-8"?>
<svg width="25px" height="25px" viewBox="0 0 25 25" version="1.1" xmlns="http://www.w3.org/2000/svg" xmlns:xlink="http://www.w3.org/1999/xlink">
    <!-- Generator: Sketch 55.2 (78181) - https://sketchapp.com -->
    <title>icon1</title>
    <desc>Created with Sketch.</desc>
    <g id="Landing-page" stroke="none" stroke-width="1" fill="none" fill-rule="evenodd">
        <g id="view-wallet-info" transform="translate(-3.000000, -3.000000)">
            <g id="Group-44">
                <g id="Group-57" transform="translate(4.000000, 4.000000)">
                    <g id="Group">
                        <rect id="Rectangle" fill="#FFFFFF" x="0" y="5" width="17" height="12"></rect>
                        <polygon id="Path-6" fill="#FFFFFF" points="1.71801758 4.2722168 15.7993164 0.892333984 15.7993164 4.2722168"></polygon>
                        <path d="M0.763888889,18.3333333 C0.341840278,18.3333333 0,17.9911111 0,17.5694444 L0,4.60243056 L0,4.18611111 C0,3.82861111 0.2475,3.51923611 0.596215278,3.4409375 L15.8090625,0.0187152778 C16.0347917,-0.0324652778 16.2723611,0.0225347222 16.4537847,0.167673611 C16.6352083,0.312430556 16.740625,0.532048611 16.740625,0.763888889 L16.740625,3.83854167 L17.5694444,3.83854167 C17.9911111,3.83854167 18.3333333,4.18038194 18.3333333,4.60243056 L18.3333333,17.5694444 C18.3333333,17.9911111 17.9911111,18.3333333 17.5694444,18.3333333 L0.763888889,18.3333333 Z M16.8055556,12.22375 L16.8055556,9.94965278 L13.6033333,9.94965278 C12.9754167,9.94965278 12.464375,10.4599306 12.464375,11.0867014 C12.464375,11.7138542 12.9750347,12.22375 13.6033333,12.22375 L16.8055556,12.22375 Z M16.8055556,8.42225694 L16.8055556,5.36631944 L15.9767361,5.36631944 L1.52777778,5.36631944 L1.52777778,16.8055556 L16.8055556,16.8055556 L16.8055556,13.7519097 L13.6033333,13.7519097 C12.1328472,13.7519097 10.9365972,12.5564236 10.9365972,11.0870833 C10.9365972,9.61774306 12.1328472,8.42225694 13.6033333,8.42225694 L16.8055556,8.42225694 Z M15.2128472,1.71875 L5.78989583,3.83854167 L15.2128472,3.83854167 L15.2128472,1.71875 Z M5.8196875,7.1396875 C6.24173611,7.1396875 6.58357639,7.48152778 6.58357639,7.90357639 L6.58357639,14.2048958 C6.58357639,14.6265625 6.24135417,14.9687847 5.8196875,14.9687847 L3.2965625,14.9687847 C2.87451389,14.9687847 2.53267361,14.6265625 2.53267361,14.2048958 L2.53267361,7.90357639 C2.53267361,7.48190972 2.87489583,7.1396875 3.2965625,7.1396875 L5.8196875,7.1396875 Z M5.05579861,13.4410069 L5.05579861,8.66746528 L4.06045139,8.66746528 L4.06045139,13.4410069 L5.05579861,13.4410069 Z" id="Combined-Shape" fill="#7F93A3" fill-rule="nonzero"></path>
                    </g>
                    <circle id="Oval" stroke="#7F93A3" stroke-width="1.6" fill="#FFFFFF" cx="14.6666667" cy="13.75" r="5.5"></circle>
                    <path d="M18.6388889,17.7222222 L22.6580337,21.741367" id="Line-2" stroke="#7F93A3" stroke-width="1.6" stroke-linecap="round"></path>
                </g>
            </g>
        </g>
    </g>
</svg>