<?xml version="1.0" encoding="utf-8"?>
<!-- Generator: Adobe Illustrator 23.0.1, SVG Export Plug-In . SVG Version: 6.00 Build 0)  -->
<svg version="1.1" id="Layer_1" xmlns="http://www.w3.org/2000/svg" xmlns:xlink="http://www.w3.org/1999/xlink" x="0px" y="0px"
	 viewBox="0 0 24 24" style="enable-background:new 0 0 24 24;" xml:space="preserve">
<style type="text/css">
	.st0{fill-rule:evenodd;clip-rule:evenodd;fill:#FFFFFF;}
	.st1{fill:#FFFFFF;}
</style>
<g>
	<path class="st0" d="M18.4,18.1c-0.1,0-0.1,0-0.2,0l-8.1-2.8l-0.4,0.4v3.1l1.9-2.5c0.2-0.2,0.5-0.3,0.8-0.1
		c0.2,0.2,0.3,0.5,0.1,0.8l-2.9,3.9C9.5,20.9,9.3,21,9.1,21C9.1,21,9,21,9,21c-0.2-0.1-0.4-0.3-0.4-0.5v-5c0-0.1,0.1-0.3,0.1-0.4
		L9,14.9l-5.5-1.9c-0.2-0.1-0.4-0.3-0.4-0.5c0-0.2,0.1-0.4,0.3-0.5l16.8-8.8c0.2-0.1,0.4-0.1,0.6,0C20.9,3.2,21,3.4,21,3.6
		l-2.1,13.9c0,0.2-0.1,0.3-0.3,0.4C18.6,18,18.5,18.1,18.4,18.1z M11,14.4l8.6-9.2l-1.7,11.6L11,14.4z M9.8,14L5,12.3l12.6-6.6
		L9.8,14z"/>
	<path class="st1" d="M18.2,18l-0.1,0.2l0,0L18.2,18z M10.1,15.3l0.1-0.2l-0.1,0L10,15.1L10.1,15.3z M9.7,15.7l-0.1-0.1l0,0.1v0.1
		H9.7z M9.7,18.8H9.5v0.5l0.3-0.4L9.7,18.8z M11.6,16.3l-0.1-0.1l0,0L11.6,16.3z M12.3,16.1l-0.1,0.1l0,0L12.3,16.1z M12.5,16.9
		l0.1,0.1l0,0L12.5,16.9z M9.6,20.8l0.1,0.1l0,0L9.6,20.8z M9,21l-0.1,0.2h0L9,21z M8.7,15.1L8.6,15l0,0L8.7,15.1z M9,14.9L9.1,15
		l0.2-0.2L9,14.7L9,14.9z M3.4,12.9l-0.1,0.2l0,0L3.4,12.9z M3,12.5l-0.2,0l0,0L3,12.5z M3.3,11.9l-0.1-0.2l0,0L3.3,11.9z M20.1,3.1
		l-0.1-0.2l0,0L20.1,3.1z M20.7,3.1l-0.1,0.1l0,0L20.7,3.1z M21,3.6l0.2,0v0L21,3.6z M18.9,17.6l0.2,0v0L18.9,17.6z M18.6,18
		l-0.1-0.2l0,0L18.6,18z M19.6,5.2l0.2,0l0.1-0.6L19.5,5L19.6,5.2z M11,14.4l-0.1-0.1l-0.2,0.2l0.3,0.1L11,14.4z M17.9,16.7
		l-0.1,0.2L18,17l0-0.2L17.9,16.7z M9.8,14l-0.1,0.2l0.1,0l0.1-0.1L9.8,14z M5,12.3l-0.1-0.2l-0.4,0.2L5,12.5L5,12.3z M17.6,5.7
		l0.1,0.1l-0.2-0.3L17.6,5.7z M18.1,18.2c0.1,0,0.2,0,0.2,0v-0.4c0,0-0.1,0-0.1,0L18.1,18.2z M10.1,15.4l8.1,2.8l0.1-0.3l-8.1-2.8
		L10.1,15.4z M10,15.1l-0.4,0.4l0.3,0.2l0.4-0.4L10,15.1z M9.5,15.7v3.1h0.4v-3.1H9.5z M9.8,18.9l1.9-2.5l-0.3-0.2l-1.9,2.5
		L9.8,18.9z M11.7,16.4c0.1-0.2,0.4-0.2,0.5-0.1l0.2-0.3c-0.3-0.2-0.8-0.2-1,0.2L11.7,16.4z M12.2,16.3c0.2,0.1,0.2,0.4,0.1,0.5
		l0.3,0.2c0.2-0.3,0.2-0.8-0.2-1L12.2,16.3z M12.3,16.8l-2.9,3.9l0.3,0.2l2.9-3.9L12.3,16.8z M9.4,20.7c-0.1,0.1-0.2,0.2-0.3,0.2
		v0.4c0.2,0,0.5-0.1,0.6-0.3L9.4,20.7z M9.1,20.8c0,0-0.1,0-0.1,0l-0.1,0.3c0.1,0,0.2,0,0.2,0V20.8z M9,20.8
		c-0.2-0.1-0.3-0.2-0.3-0.4H8.4c0,0.3,0.2,0.6,0.5,0.7L9,20.8z M8.8,20.4v-5H8.4v5H8.8z M8.8,15.5c0-0.1,0-0.2,0.1-0.3L8.6,15
		c-0.1,0.1-0.2,0.3-0.2,0.5H8.8z M8.9,15.2L9.1,15l-0.3-0.2L8.6,15L8.9,15.2z M3.4,13.1L8.9,15L9,14.7l-5.5-1.9L3.4,13.1z M2.9,12.5
		c0,0.3,0.2,0.5,0.5,0.6l0.1-0.3c-0.1-0.1-0.2-0.2-0.3-0.3L2.9,12.5z M3.2,11.8c-0.3,0.1-0.4,0.4-0.4,0.7l0.4,0
		c0-0.2,0.1-0.3,0.2-0.4L3.2,11.8z M20.1,2.9L3.2,11.8l0.2,0.3l16.8-8.8L20.1,2.9z M20.8,3c-0.2-0.2-0.5-0.2-0.8-0.1l0.2,0.3
		c0.1-0.1,0.3-0.1,0.4,0L20.8,3z M21.1,3.7c0-0.3-0.1-0.6-0.3-0.7l-0.2,0.3c0.1,0.1,0.2,0.2,0.2,0.4L21.1,3.7z M19.1,17.6l2.1-13.9
		l-0.4-0.1l-2.1,13.9L19.1,17.6z M18.7,18.1c0.2-0.1,0.3-0.3,0.3-0.5l-0.4-0.1c0,0.1-0.1,0.2-0.2,0.3L18.7,18.1z M18.4,18.2
		c0.1,0,0.3,0,0.4-0.1l-0.2-0.3c-0.1,0-0.1,0.1-0.2,0.1V18.2z M19.5,5l-8.6,9.2l0.3,0.2l8.6-9.2L19.5,5z M19.4,5.1l-1.7,11.6
		l0.4,0.1l1.7-11.6L19.4,5.1z M18,16.6L11,14.2l-0.1,0.3l6.9,2.4L18,16.6z M9.9,13.8l-4.8-1.7L5,12.5l4.8,1.7L9.9,13.8z M5.1,12.5
		l12.6-6.6l-0.2-0.3L4.9,12.1L5.1,12.5z M9.9,14.1l7.8-8.3l-0.3-0.2l-7.8,8.3L9.9,14.1z"/>
</g>
</svg>
