<?xml version="1.0" encoding="UTF-8"?>
<svg width="60px" height="60px" viewBox="0 0 60 60" version="1.1" xmlns="http://www.w3.org/2000/svg" xmlns:xlink="http://www.w3.org/1999/xlink">
    <!-- Generator: Sketch 55.2 (78181) - https://sketchapp.com -->
    <title>Group 67</title>
    <desc>Created with Sketch.</desc>
    <g id="Landing-page" stroke="none" stroke-width="1" fill="none" fill-rule="evenodd">
        <g id="how-it-works" transform="translate(-214.000000, -3588.000000)" fill-rule="nonzero">
            <g id="Group-67" transform="translate(212.000000, 3587.000000)">
                <g id="chrome" transform="translate(2.000000, 1.000000)">
                    <path d="M18.7880656,30.0021639 C18.7880656,36.1843279 23.8176393,41.2135082 30,41.2135082 C36.1819672,41.2135082 41.2111475,36.1841311 41.2111475,30.0021639 C41.2111475,23.82 36.1819672,18.7904262 30,18.7904262 C23.8176393,18.7904262 18.7880656,23.82 18.7880656,30.0021639 Z" id="XMLID_17_" fill="#05C0A5"></path>
                    <path d="M55.8163279,15.2028197 C55.9036721,15.0491803 55.9020984,14.8605246 55.8118033,14.708459 C53.2003279,10.3101639 49.4838689,6.62596721 45.0643279,4.05422951 C40.5092459,1.40340984 35.2998689,0.00236065574 30,0.00236065574 C20.8278689,0.00236065574 12.2799344,4.11855738 6.54786885,11.295541 C6.42137705,11.4537049 6.40485246,11.6730492 6.50616393,11.8483279 L14.9514098,26.475541 C15.0399344,26.6289836 15.2032131,26.7214426 15.3771148,26.7214426 C15.3991475,26.7214426 15.4215738,26.7198689 15.4438033,26.716918 C15.6417049,26.6899672 15.8036066,26.5459672 15.8535738,26.3525902 C17.5188197,19.9003279 23.3360656,15.3940328 30,15.3940328 C30.4135082,15.3940328 30.8405902,15.412918 31.2698361,15.4495082 C31.2838033,15.4508852 31.2979672,15.4514754 31.3119344,15.4514754 L55.3888525,15.4514754 C55.5657049,15.4514754 55.7289836,15.3566557 55.8163279,15.2028197 Z" id="XMLID_18_" fill="#CDF4EE"></path>
                    <path d="M34.4331148,44.2497049 C34.3109508,44.0917377 34.1059672,44.0238689 33.9125902,44.077377 C32.6423607,44.431082 31.3260984,44.6102951 30,44.6102951 C24.3657049,44.6102951 19.1728525,41.3057705 16.7702951,36.1918033 C16.7643934,36.1792131 16.7579016,36.1670164 16.7510164,36.1548197 L4.70380328,15.2889836 C4.61606557,15.1365246 4.45357377,15.043082 4.27790164,15.043082 C4.27711475,15.043082 4.27613115,15.043082 4.27534426,15.043082 C4.09868852,15.0440656 3.936,15.1394754 3.84944262,15.2933115 C1.33121311,19.7618361 0,24.8480656 0,30.0021639 C0,37.2326557 2.60852459,44.2168525 7.34498361,49.6681967 C12.0344262,55.0652459 18.4904262,58.6170492 25.5241967,59.6695082 C25.5485902,59.6732459 25.5729836,59.6748197 25.5971803,59.6748197 C25.7708852,59.6748197 25.9341639,59.5823607 26.0228852,59.428918 L34.4702951,44.7971803 C34.5702295,44.6240656 34.5554754,44.4076721 34.4331148,44.2497049 Z" id="XMLID_19_" fill="#CDF4EE"></path>
                    <path d="M57.4770492,18.7329836 L40.5641311,18.7329836 C40.3642623,18.7329836 40.1842623,18.8539672 40.108918,19.0388852 C40.033377,19.2238033 40.0772459,19.4362623 40.2198689,19.5759344 C43.0497049,22.3500984 44.6081311,26.0527869 44.6081311,30.0021639 C44.6081311,32.9919344 43.7059672,35.8691803 41.9990164,38.323082 C41.9911475,38.3344918 41.9838689,38.3460984 41.9769836,38.3580984 L29.908918,59.2601311 C29.8205902,59.4131803 29.8211803,59.6018361 29.9102951,59.7544918 C29.998623,59.905377 30.1603279,59.9978361 30.3348197,59.9978361 C30.3365902,59.9978361 30.3385574,59.9978361 30.3403279,59.9978361 C38.2819672,59.9093115 45.7343607,56.7497705 51.3243934,51.1017049 C56.9189508,45.448918 60,37.9556066 60,30.0021639 C60,26.2217705 59.3051803,22.5354098 57.9348197,19.0451803 C57.8608525,18.8567213 57.6792787,18.7329836 57.4770492,18.7329836 Z" id="XMLID_20_" fill="#CDF4EE"></path>
                </g>
            </g>
        </g>
    </g>
</svg>