<?xml version="1.0" encoding="utf-8"?>
<!-- Generator: Adobe Illustrator 16.0.0, SVG Export Plug-In . SVG Version: 6.00 Build 0)  -->
<!DOCTYPE svg PUBLIC "-//W3C//DTD SVG 1.1//EN" "http://www.w3.org/Graphics/SVG/1.1/DTD/svg11.dtd">
<svg version="1.1" id="Layer_1" xmlns="http://www.w3.org/2000/svg" xmlns:xlink="http://www.w3.org/1999/xlink" x="0px" y="0px"
	 width="612px" height="612px" viewBox="0 90.188 612 612" enable-background="new 0 90.188 612 612" xml:space="preserve">
<path fill="#DAE4EA" d="M232.205,619.688c-18.019,0-14.954-6.802-21.17-23.96l-52.98-174.359l407.828-241.949"/>
<path fill="#4C6884" d="M232.205,619.688c13.903,0,20.043-6.359,27.807-13.903l74.15-72.103l-92.494-55.773"/>
<path fill="#5F7793" d="M241.659,477.922l224.119,165.583c25.577,14.11,44.032,6.803,50.406-23.742l91.228-429.902
	c9.338-37.446-14.275-54.436-38.745-43.327l-535.69,206.56c-36.565,14.668-36.348,35.069-6.664,44.156l137.471,42.91
	l318.258-200.785c15.023-9.111,28.815-4.218,17.5,5.83"/>
</svg>
