<?xml version="1.0" encoding="UTF-8"?>
<svg width="64px" height="64px" viewBox="0 0 64 64" version="1.1" xmlns="http://www.w3.org/2000/svg" xmlns:xlink="http://www.w3.org/1999/xlink">
    <!-- Generator: Sketch 55.2 (78181) - https://sketchapp.com -->
    <title>icon\</title>
    <desc>Created with Sketch.</desc>
    <g id="icon\" stroke="none" stroke-width="1" fill="none" fill-rule="evenodd">
        <g id="mnemonic" transform="translate(9.000000, 4.000000)" fill-rule="nonzero">
            <g id="Group-18" transform="translate(0.000000, 0.472365)">
                <g id="Group-16" fill="#CDF4EE">
                    <path d="M4.76243868,-4.54747351e-13 L35.7763243,-4.54747351e-13 L46.5868677,10.90454 L46.5868677,50.2676056 C46.5868677,52.8812349 44.4681025,55 41.8544733,55 L4.76243868,55 C2.14880944,55 0.0300443153,52.8812349 0.0300443153,50.2676056 L0.0300443153,4.73239437 C0.0300443153,2.11876513 2.14880944,-4.54747351e-13 4.76243868,-4.54747351e-13 Z" id="Rectangle"></path>
                </g>
                <path d="M35.7763243,7.88731995e-08 L46.5868679,10.90454 L46.5868679,2.12098952 C46.2394729,0.706996559 45.3609575,7.88731995e-08 43.9513215,7.88731995e-08 C42.5416854,7.88731995e-08 39.8456681,7.88731995e-08 35.7763243,7.88731995e-08 Z" id="Path-2" fill="#05C0A5" transform="translate(41.181596, 5.452270) rotate(180.000000) translate(-41.181596, -5.452270) "></path>
            </g>
            <g id="Group-6" transform="translate(7.000000, 20.000000)">
                <g id="Group-11">
                    <g id="Group-8" transform="translate(1.590663, 14.368707)">
                        <path d="M28.0804043,6.28386232e-14 L21.4147002,6.28386232e-14 C20.9085886,6.28386232e-14 20.4982741,0.403948024 20.4982741,0.902206725 C20.4982741,1.40046542 20.9085886,1.80441345 21.4147002,1.80441345 L28.0804043,1.80441345 C28.5865159,1.80441345 28.9968304,1.40046542 28.9968304,0.902206725 C28.9968304,0.403948024 28.5865159,6.28386232e-14 28.0804043,6.28386232e-14 Z" id="Path" stroke="#5A78F0" fill="#5A78F0"></path>
                        <path d="M1.56317329,1.80441345 L16.7734456,1.80441345 C17.3122096,1.80441345 17.7489959,1.40046542 17.7489959,0.902206725 C17.7489959,0.403948024 17.3122096,6.28386232e-14 16.7734456,6.28386232e-14 L1.56317329,6.28386232e-14 C1.02440938,6.28386232e-14 0.587622986,0.403948024 0.587622986,0.902206725 C0.587622986,1.40046542 1.02440938,1.80441345 1.56317329,1.80441345 Z" id="Path" stroke="#05C0A5" fill="#05C0A5"></path>
                    </g>
                    <g id="Group-8" transform="translate(16.260563, 4.676056) rotate(180.000000) translate(-16.260563, -4.676056) translate(0.760563, 0.676056)">
                        <g id="Group-9" transform="translate(1.376355, -0.692650)">
                            <path d="M27.4927813,6.28386232e-14 L23.8270772,6.28386232e-14 C23.3209656,6.28386232e-14 22.9106511,0.403948024 22.9106511,0.902206725 C22.9106511,1.40046542 23.3209656,1.80441345 23.8270772,1.80441345 L27.4927813,1.80441345 C27.9988929,1.80441345 28.4092074,1.40046542 28.4092074,0.902206725 C28.4092074,0.403948024 27.9988929,6.28386232e-14 27.4927813,6.28386232e-14 Z" id="Path" stroke="#5A78F0" fill="#5A78F0"></path>
                            <path d="M0.975550303,1.80441345 L19.1858227,1.80441345 C19.7245866,1.80441345 20.1613729,1.40046542 20.1613729,0.902206725 C20.1613729,0.403948024 19.7245866,6.28386232e-14 19.1858227,6.28386232e-14 L0.975550303,6.28386232e-14 C0.43678639,6.28386232e-14 -3.37507799e-14,0.403948024 -3.37507799e-14,0.902206725 C-3.37507799e-14,1.40046542 0.43678639,1.80441345 0.975550303,1.80441345 Z" id="Path" stroke="#05C0A5" fill="#05C0A5"></path>
                        </g>
                        <g id="Group-10" transform="translate(15.285562, 6.867137) scale(-1, 1) translate(-15.285562, -6.867137) translate(0.785562, 5.867137)">
                            <path d="M27.4927813,0 L23.8270772,0 C23.3209656,0 22.9106511,0.403948024 22.9106511,0.902206725 C22.9106511,1.40046542 23.3209656,1.80441345 23.8270772,1.80441345 L27.4927813,1.80441345 C27.9988929,1.80441345 28.4092074,1.40046542 28.4092074,0.902206725 C28.4092074,0.403948024 27.9988929,0 27.4927813,0 Z" id="Path" stroke="#5A78F0" fill="#5A78F0"></path>
                            <path d="M0.975550303,1.80441345 L19.1858227,1.80441345 C19.7245866,1.80441345 20.1613729,1.40046542 20.1613729,0.902206725 C20.1613729,0.403948024 19.7245866,0 19.1858227,0 L0.975550303,0 C0.43678639,0 0,0.403948024 0,0.902206725 C0,1.40046542 0.43678639,1.80441345 0.975550303,1.80441345 Z" id="Path" stroke="#05C0A5" fill="#05C0A5"></path>
                        </g>
                    </g>
                </g>
            </g>
        </g>
    </g>
</svg>