<svg width="22" height="16" viewBox="0 0 22 16" fill="none" xmlns="http://www.w3.org/2000/svg">
<path fill-rule="evenodd" clip-rule="evenodd" d="M20.9782 11.7826H21.3414C21.7051 11.7826 22 12.0762 22 12.4383V13.4244C22 14.8447 20.8393 16 19.4128 16H2.58719C1.16066 16 0 14.8447 0 13.4244V12.4383C0 12.0762 0.294907 11.7826 0.65863 11.7826H1.02185V1.71675C1.02185 0.770148 1.79546 0 2.74631 0H19.2537C20.2045 0 20.9782 0.770148 20.9782 1.71675V11.7826ZM20.6825 13.4243V13.094H1.31738V13.4243C1.31738 14.1215 1.88689 14.6886 2.58714 14.6886H19.4128C20.113 14.6886 20.6825 14.1215 20.6825 13.4243ZM2.33911 1.71673C2.33911 1.49316 2.52173 1.31152 2.74614 1.31152H19.2535C19.4779 1.31152 19.6606 1.49316 19.6606 1.71673V11.7826H2.33911V1.71673ZM14.2446 3.73334H16.5158C16.8775 3.73334 17.1708 4.03224 17.1708 4.40105V6.71534C17.1708 7.08398 16.8775 7.38288 16.5156 7.38288C16.1538 7.38288 15.8605 7.08398 15.8605 6.71534V6.01275L12.0089 9.93771C11.8862 10.0629 11.7194 10.1333 11.5456 10.1333C11.372 10.1333 11.2054 10.0629 11.0825 9.93771L8.31961 7.12209L5.94764 9.53912C5.6919 9.79991 5.27706 9.79991 5.02115 9.53912C4.76541 9.2785 4.76541 8.85576 5.02115 8.59514L7.8562 5.70586C8.11211 5.44524 8.52694 5.44524 8.78269 5.70586L11.5456 8.52165L14.9342 5.0686H14.2446C13.8829 5.0686 13.5896 4.7697 13.5896 4.40105C13.5896 4.03224 13.8829 3.73334 14.2446 3.73334Z" fill="white"/>
</svg>
