<?xml version="1.0" encoding="UTF-8"?>
<svg width="76px" height="76px" viewBox="0 0 76 76" version="1.1" xmlns="http://www.w3.org/2000/svg" xmlns:xlink="http://www.w3.org/1999/xlink">
    <title>Group 2</title>
    <defs>
        <filter x="-10.9%" y="-46.3%" width="121.7%" height="192.6%" filterUnits="objectBoundingBox" id="filter-1">
            <feOffset dx="0" dy="12" in="SourceAlpha" result="shadowOffsetOuter1"></feOffset>
            <feGaussianBlur stdDeviation="8.5" in="shadowOffsetOuter1" result="shadowBlurOuter1"></feGaussianBlur>
            <feColorMatrix values="0 0 0 0 0.0819970561   0 0 0 0 0.11507115   0 0 0 0 0.247367527  0 0 0 0.0332440997 0" type="matrix" in="shadowBlurOuter1" result="shadowMatrixOuter1"></feColorMatrix>
            <feMerge>
                <feMergeNode in="shadowMatrixOuter1"></feMergeNode>
                <feMergeNode in="SourceGraphic"></feMergeNode>
            </feMerge>
        </filter>
    </defs>
    <g id="Keystore-file-desktop" stroke="none" stroke-width="1" fill="none" fill-rule="evenodd">
        <g id="software" transform="translate(-869.000000, -490.000000)">
            <g id="Group-3" filter="url(#filter-1)" transform="translate(461.000000, 467.000000)">
                <g id="Group-19" transform="translate(408.000000, 23.000000)">
                    <g id="Group-18" transform="translate(9.000000, 2.598891)">
                        <g id="Group-16" fill="#CDF4EE">
                            <path d="M6,0 L44.0914112,0 L44.0914112,0 L57.7976358,13.8253989 L57.7976358,63.1269945 C57.7976358,66.440703 55.1113443,69.1269945 51.7976358,69.1269945 L6,69.1269945 C2.6862915,69.1269945 4.05812251e-16,66.440703 0,63.1269945 L0,6 C4.82366169e-16,2.6862915 2.6862915,1.4968968e-15 6,0 Z" id="Rectangle"></path>
                        </g>
                        <path d="M44.0362939,0 L57.7976358,14.1075499 L57.7976358,2.68911161 C57.3571886,0.896370537 56.2433565,0 54.4561394,0 C52.6689223,0 49.1956405,0 44.0362939,0 Z" id="Path-2" fill="#05C0A5" transform="translate(50.916965, 7.053775) scale(-1, -1) translate(-50.916965, -7.053775) "></path>
                    </g>
                    <path d="M38.5,30 C41.5375661,30 44,32.4624339 44,35.5 C44,37.515989 42.9153505,39.2786446 41.297784,40.2362341 L42.2228694,48 L35,48 L35.8611294,40.3267722 C34.1560853,39.3926174 33,37.5813178 33,35.5 C33,32.4624339 35.4624339,30 38.5,30 Z" id="Combined-Shape" fill="#5A78F0"></path>
                </g>
            </g>
        </g>
    </g>
</svg>