<svg width="24" height="24" viewBox="0 0 24 24" fill="none" xmlns="http://www.w3.org/2000/svg">
<path d="M5.99999 17C5.68332 17 5.42499 16.8916 5.22499 16.675C5.02499 16.4583 4.94999 16.2 4.99999 15.9C5.24999 14.2 6.03732 12.775 7.36199 11.625C8.68732 10.475 10.2333 9.89995 12 9.89995C13.7667 9.89995 15.3123 10.475 16.637 11.625C17.9623 12.775 18.75 14.2 19 15.9C19.05 16.2 18.9707 16.4583 18.762 16.675C18.554 16.8916 18.3 17 18 17C17.7167 17 17.4627 16.9 17.238 16.7C17.0127 16.5 16.8583 16.2416 16.775 15.925C16.525 14.825 15.9583 13.9126 15.075 13.188C14.1917 12.4626 13.1667 12.1 12 12.1C10.8333 12.1 9.80832 12.4626 8.92499 13.188C8.04166 13.9126 7.47499 14.825 7.22499 15.925C7.14166 16.2416 6.98766 16.5 6.76299 16.7C6.53766 16.9 6.28332 17 5.99999 17ZM1.89999 17C1.59999 17 1.34599 16.8916 1.13799 16.675C0.929323 16.4583 0.841657 16.2 0.87499 15.9C1.02499 14.5 1.41266 13.1833 2.03799 11.95C2.66266 10.7166 3.47099 9.64595 4.46299 8.73795C5.45432 7.82928 6.59599 7.11662 7.88799 6.59995C9.17932 6.08328 10.55 5.82495 12 5.82495C13.45 5.82495 14.821 6.08328 16.113 6.59995C17.4043 7.11662 18.546 7.82928 19.538 8.73795C20.5293 9.64595 21.3417 10.7166 21.975 11.95C22.6083 13.1833 22.9917 14.5 23.125 15.9C23.1583 16.2 23.071 16.4583 22.863 16.675C22.6543 16.8916 22.4 17 22.1 17C21.8 17 21.5417 16.896 21.325 16.688C21.1083 16.4793 20.9833 16.2166 20.95 15.9C20.6667 13.6666 19.6833 11.7916 18 10.275C16.3167 8.75828 14.3167 7.99995 12 7.99995C9.68332 7.99995 7.68332 8.75828 5.99999 10.275C4.31666 11.7916 3.33332 13.6666 3.04999 15.9C3.01666 16.2166 2.89599 16.4793 2.68799 16.688C2.47932 16.896 2.21666 17 1.89999 17Z" fill="white"/>
</svg>
