<?xml version="1.0" encoding="UTF-8"?>
<svg width="22px" height="22px" viewBox="0 0 22 22" version="1.1" xmlns="http://www.w3.org/2000/svg" xmlns:xlink="http://www.w3.org/1999/xlink">
    <!-- Generator: Sketch 55.2 (78181) - https://sketchapp.com -->
    <title>Group 6 Copy 2</title>
    <desc>Created with Sketch.</desc>
    <g id="submit-dapp" stroke="none" stroke-width="1" fill="none" fill-rule="evenodd">
        <g id="dapp-submission-3" transform="translate(-893.000000, -1178.000000)">
            <g id="Group-29" transform="translate(270.000000, 1058.000000)">
                <g id="Group-8" transform="translate(557.000000, 92.000000)">
                    <g id="Group-12" transform="translate(0.000000, 28.000000)">
                        <g id="Group-6-Copy-2" transform="translate(66.000000, 0.000000)">
                            <rect id="Rectangle" fill="#0277B4" x="0" y="0" width="22" height="22" rx="11"></rect>
                            <g id="Linkedin" transform="translate(6.285714, 5.238095)" fill="#FFFFFF" fill-rule="nonzero">
                                <path d="M2.25608035,10.0265415 L2.25608035,3.26840211 L0.134607071,3.26840211 L0.134607071,10.0265415 L2.25608035,10.0265415 Z M1.19561805,2.34513894 C1.93541299,2.34513894 2.39589991,1.8261928 2.39589991,1.17768291 C2.38211661,0.514548888 1.93544137,0.0100065084 1.20965677,0.0100065084 C0.483985688,0.0100065084 0.00944113126,0.514558904 0.00944113126,1.17768291 C0.00944113126,1.82622285 0.469814531,2.34513894 1.18176854,2.34513894 L1.19555183,2.34513894 L1.19561805,2.34513894 Z M3.43030922,10.0265415 L5.5517825,10.0265415 L5.5517825,6.25246514 C5.5517825,6.05048191 5.5655658,5.84870903 5.62158822,5.70432082 C5.77495457,5.30076505 6.12402101,4.88279549 6.71006173,4.88279549 C7.47773544,4.88279549 7.78484655,5.50253793 7.78484655,6.41103674 L7.78484655,10.0265415 L9.90618738,10.0265415 L9.90618738,6.15143846 C9.90618738,4.07560381 8.85956514,3.10974036 7.46376294,3.10974036 C6.31931431,3.10974036 5.81682476,3.78707781 5.53766811,4.2484089 L5.5518298,4.2484089 L5.5518298,3.26826188 L3.43030922,3.26826188 C3.45819746,3.90240808 3.43030922,10.0264013 3.43030922,10.0264013 L3.43030922,10.0265415 Z" id="Shape"></path>
                            </g>
                        </g>
                    </g>
                </g>
            </g>
        </g>
    </g>
</svg>