<?xml version="1.0" encoding="utf-8"?>
<!-- Generator: Adobe Illustrator 23.0.1, SVG Export Plug-In . SVG Version: 6.00 Build 0)  -->
<svg version="1.1" id="Layer_1" xmlns="http://www.w3.org/2000/svg" xmlns:xlink="http://www.w3.org/1999/xlink" x="0px" y="0px"
	 viewBox="0 0 402 114" style="enable-background:new 0 0 402 114;" xml:space="preserve">
<style type="text/css">
	.st0{fill:#1896A4;}
	.st1{fill:#FFFFFF;}
	.st2{fill:#00537E;}
</style>
<g>
	<circle class="st0" cx="57.3" cy="57" r="54"/>
	<g>
		<g>
			<path class="st1" d="M64.1,73.9c-2.1,0.8-4.3,1.3-6.6,1.3c-9.9,0-17.9-8-17.9-17.9c0-0.7,0.1-1.5,0.1-2.2l-18-2.9
				c-0.2,1.6-0.3,3.2-0.3,4.8c0,19.9,16.1,36,36,36c7,0,13.5-2,19-5.4L64.1,73.9z"/>
		</g>
		<path class="st1" d="M74.3,51.2l-23.9,5.3l42,8.7c0.6-2.6,0.9-5.4,0.9-8.2c0-19.9-16.1-36-36-36c-8,0-15.3,2.6-21.3,7l12.4,13.8
			c2.6-1.5,5.7-2.4,9-2.4C65.2,39.4,71.8,44.3,74.3,51.2"/>
	</g>
</g>
<g>
	<polygon class="st2" points="139.6,20 139.6,94 157.5,94 157.5,52.6 172.9,81.9 182.3,81.9 198.4,52.6 198.4,94 216.1,94 216.1,20 
		198.4,20 177.8,57.4 158.3,20 	"/>
	<polygon class="st2" points="228.1,20 281,20 281,35.2 245.4,35.2 245.4,48.6 276.1,48.6 276.1,63.1 245.5,63.1 245.5,77.9 
		281.9,77.9 281.9,94 228.1,94 	"/>
	<polygon class="st2" points="287.6,20 305.3,20 329.7,70.6 336,57 318.5,20 335.2,20 343,35.9 349.1,20 368.3,20 353.1,57.4 
		359.7,70.6 379,20 398.7,20 367.8,94 353.3,94 345.1,76.1 338,94 323,94 	"/>
</g>
</svg>
