<svg id="svg" version="1.1" xmlns="http://www.w3.org/2000/svg" xmlns:xlink="http://www.w3.org/1999/xlink" width="400" height="74.50980392156863" viewBox="0, 0, 400,74.50980392156863"><g id="svgg"><path id="path0" d="M186.810 14.163 C 186.489 14.433,186.460 14.522,186.652 14.648 C 187.005 14.881,187.333 14.681,187.333 14.232 C 187.333 13.749,187.308 13.746,186.810 14.163 M211.083 17.160 C 211.361 17.275,211.374 17.315,211.159 17.404 C 211.008 17.466,210.884 17.752,210.862 18.091 L 210.822 18.673 211.661 18.643 C 212.340 18.619,212.950 18.333,212.322 18.333 C 212.223 18.333,212.189 18.193,212.245 18.017 C 212.366 17.634,211.638 16.994,211.103 17.012 C 210.758 17.023,210.758 17.027,211.083 17.160 M211.972 17.684 C 212.120 17.921,212.127 17.995,211.994 17.913 C 211.853 17.826,211.832 17.901,211.921 18.181 C 212.033 18.533,212.004 18.523,211.621 18.078 C 211.326 17.735,211.255 17.547,211.390 17.461 C 211.677 17.279,211.732 17.300,211.972 17.684 M178.876 19.030 C 178.329 19.177,177.966 19.591,177.750 20.311 C 177.662 20.605,177.689 20.686,177.858 20.627 C 177.982 20.583,178.073 20.425,178.060 20.276 C 178.048 20.126,178.116 20.052,178.211 20.111 C 178.312 20.173,178.335 20.137,178.265 20.024 C 178.109 19.772,178.606 19.276,178.858 19.432 C 178.978 19.506,179.007 19.479,178.934 19.361 C 178.859 19.241,178.905 19.205,179.058 19.263 C 179.191 19.314,179.352 19.271,179.416 19.167 C 179.586 18.892,179.482 18.866,178.876 19.030 M178.750 19.917 L 178.083 20.583 178.646 20.637 C 179.355 20.705,179.538 20.522,179.470 19.813 L 179.417 19.250 178.750 19.917 M5.056 20.867 C 4.888 21.128,4.760 50.504,4.918 52.458 L 5.030 53.833 9.557 53.831 C 12.118 53.829,14.192 53.760,14.333 53.670 C 14.753 53.405,14.707 21.469,14.286 21.048 C 13.896 20.657,5.300 20.489,5.056 20.867 M17.333 20.882 C 16.683 21.211,16.661 21.841,16.707 38.298 C 16.745 51.609,16.781 53.532,17.000 53.670 C 17.444 53.951,26.364 53.877,26.774 53.589 C 26.966 53.455,27.176 53.399,27.242 53.464 C 27.308 53.530,27.346 53.508,27.327 53.417 C 27.258 53.075,27.343 52.924,27.482 53.143 C 27.582 53.300,27.660 53.313,27.739 53.184 C 27.802 53.083,27.769 53.000,27.667 53.000 C 27.564 53.000,27.527 52.924,27.585 52.831 C 27.643 52.737,27.761 52.706,27.849 52.760 C 27.937 52.814,27.994 52.796,27.978 52.721 C 27.961 52.645,28.002 52.458,28.070 52.305 C 28.137 52.151,28.112 51.875,28.013 51.691 C 27.799 51.291,27.776 50.984,27.984 51.314 C 28.205 51.662,28.313 51.119,28.279 49.833 C 28.258 49.067,28.189 48.762,28.042 48.792 C 27.793 48.841,27.763 48.563,28.000 48.417 C 28.219 48.281,28.225 43.667,28.005 43.667 C 27.916 43.667,27.884 43.563,27.932 43.437 C 28.038 43.160,27.248 42.500,26.811 42.500 C 26.582 42.500,26.501 42.379,26.503 42.042 C 26.504 41.714,26.547 41.649,26.651 41.814 C 26.732 41.942,27.181 42.082,27.649 42.127 L 28.500 42.209 28.500 43.771 C 28.500 45.577,28.734 46.000,29.730 46.000 L 30.294 46.000 30.415 47.625 C 30.566 49.665,30.620 49.762,31.661 49.900 L 32.500 50.011 32.500 50.663 C 32.500 51.693,32.841 51.833,35.339 51.833 C 37.842 51.833,37.982 51.767,38.143 50.492 C 38.233 49.775,38.318 49.588,38.544 49.606 C 38.701 49.619,38.784 49.554,38.727 49.463 C 38.665 49.362,38.759 49.340,38.970 49.407 C 39.340 49.525,39.958 48.836,39.764 48.522 C 39.627 48.302,39.835 47.815,40.017 47.927 C 40.100 47.978,40.167 47.565,40.167 47.010 L 40.167 46.000 40.896 46.000 C 41.927 46.000,42.061 45.764,42.139 43.814 C 42.205 42.172,42.207 42.167,42.635 42.167 C 43.045 42.167,43.050 42.177,42.742 42.402 C 42.394 42.656,41.956 50.413,42.276 50.647 C 42.353 50.704,42.429 51.155,42.444 51.649 C 42.474 52.643,42.921 53.436,43.425 53.389 C 43.586 53.374,43.825 53.468,43.955 53.598 C 44.245 53.887,51.859 53.940,52.870 53.659 C 53.946 53.360,53.917 53.825,53.917 37.250 C 53.917 20.675,53.946 21.140,52.870 20.841 C 52.526 20.745,50.530 20.668,48.381 20.668 C 44.024 20.667,44.167 20.622,44.167 21.968 C 44.167 22.604,44.146 22.627,43.503 22.730 C 42.579 22.878,42.356 23.299,42.225 25.137 L 42.117 26.667 41.590 26.667 C 40.594 26.667,40.167 27.571,40.167 29.680 L 40.167 30.482 39.392 30.533 C 38.423 30.596,38.374 30.689,38.242 32.700 L 38.137 34.317 37.277 34.367 L 36.417 34.417 36.370 36.292 L 36.322 38.167 35.328 38.167 L 34.333 38.167 34.333 36.429 C 34.333 35.074,34.276 34.633,34.073 34.430 C 33.929 34.287,33.855 34.099,33.908 34.014 C 34.180 33.575,33.281 32.667,32.575 32.667 C 32.395 32.667,32.333 32.445,32.331 31.792 C 32.327 30.657,32.250 30.563,31.208 30.421 L 30.333 30.302 30.333 28.807 C 30.333 26.958,30.218 26.720,29.250 26.575 C 28.507 26.463,28.500 26.456,28.500 25.803 C 28.500 24.747,28.282 24.500,27.351 24.500 L 26.548 24.500 26.434 22.998 C 26.299 21.198,26.240 21.019,25.716 20.821 C 25.073 20.576,17.833 20.629,17.333 20.882 M56.145 20.942 C 55.884 21.257,55.706 50.398,55.952 52.583 L 56.083 53.750 60.750 53.800 C 64.889 53.844,65.478 53.818,65.958 53.565 C 66.726 53.162,66.716 52.804,65.947 53.176 C 65.709 53.291,65.749 53.223,66.063 52.980 C 66.327 52.775,66.688 52.302,66.866 51.929 C 67.123 51.388,67.164 51.352,67.067 51.750 C 67.000 52.025,66.950 52.430,66.956 52.651 C 66.964 52.907,66.921 52.976,66.838 52.841 C 66.746 52.692,66.675 52.685,66.594 52.816 C 66.532 52.917,66.564 53.000,66.667 53.000 C 66.771 53.000,66.798 53.091,66.728 53.208 C 66.646 53.345,66.702 53.336,66.890 53.183 C 67.048 53.055,67.148 52.867,67.111 52.767 C 67.074 52.666,67.146 52.330,67.272 52.021 C 67.556 51.321,67.565 50.721,67.292 50.610 C 67.125 50.543,67.125 50.524,67.292 50.513 C 68.158 50.458,67.279 48.382,66.324 48.229 L 65.667 48.124 65.667 47.062 L 65.667 46.000 71.042 45.998 C 76.937 45.995,77.133 45.976,77.252 45.397 C 77.522 44.082,77.454 44.167,78.245 44.167 C 80.175 44.167,81.025 43.769,81.154 42.806 C 81.250 42.083,81.250 42.083,82.053 41.991 C 83.022 41.880,83.107 41.760,83.253 40.300 C 83.377 39.067,83.981 38.167,84.685 38.167 C 84.867 38.167,85.077 38.001,85.161 37.792 C 85.269 37.523,85.315 37.832,85.323 38.875 L 85.333 40.333 84.604 40.333 C 83.602 40.333,83.490 40.538,83.361 42.607 L 83.250 44.396 82.712 44.535 C 82.416 44.612,82.101 44.811,82.012 44.977 C 81.651 45.653,81.338 46.789,81.336 47.437 C 81.333 48.105,81.316 48.127,80.688 48.227 C 79.700 48.385,79.591 48.629,79.527 50.817 C 79.469 52.828,79.619 53.595,80.107 53.782 C 80.260 53.841,80.725 54.215,81.141 54.613 C 81.689 55.138,81.984 55.308,82.219 55.233 C 82.446 55.161,82.505 55.191,82.417 55.333 C 82.323 55.484,82.429 55.506,82.833 55.417 C 83.212 55.334,83.341 55.353,83.261 55.482 C 83.198 55.584,83.226 55.667,83.323 55.667 C 83.421 55.667,83.500 55.587,83.500 55.489 C 83.500 55.386,83.643 55.356,83.838 55.418 C 84.057 55.488,84.159 55.455,84.129 55.325 C 84.104 55.215,84.188 55.087,84.315 55.041 C 84.470 54.985,84.507 55.033,84.428 55.187 C 84.362 55.313,84.422 55.278,84.560 55.109 C 84.698 54.939,84.765 54.683,84.710 54.540 C 84.649 54.380,84.679 54.321,84.786 54.388 C 84.886 54.449,84.953 54.371,84.940 54.207 C 84.919 53.947,85.141 53.912,87.042 53.870 L 89.167 53.823 89.167 52.933 L 89.167 52.042 90.018 51.961 C 91.109 51.856,91.161 51.753,91.164 49.708 L 91.167 48.000 97.066 48.000 C 103.424 48.000,103.167 47.964,103.167 48.847 C 103.167 49.319,103.765 49.833,104.313 49.833 C 104.854 49.833,105.000 50.222,105.000 51.663 C 105.000 53.535,105.433 53.831,108.176 53.832 L 109.768 53.833 110.342 54.431 C 111.091 55.210,111.763 55.554,112.282 55.424 C 112.547 55.357,112.656 55.382,112.587 55.493 C 112.529 55.589,112.602 55.667,112.750 55.667 C 112.905 55.667,112.971 55.588,112.906 55.482 C 112.826 55.353,112.955 55.334,113.333 55.417 C 113.751 55.508,113.845 55.487,113.744 55.323 C 113.650 55.171,113.692 55.141,113.893 55.218 C 114.238 55.350,115.556 54.220,115.433 53.899 C 115.383 53.768,115.440 53.718,115.579 53.771 C 115.884 53.889,116.172 53.320,116.060 52.819 C 116.002 52.555,116.023 52.489,116.121 52.626 C 116.215 52.757,116.257 52.492,116.234 51.911 C 116.191 50.829,116.004 50.547,115.233 50.403 L 114.667 50.296 114.686 48.856 C 114.697 48.065,114.740 47.548,114.782 47.708 C 114.842 47.941,115.041 48.000,115.762 48.000 L 116.667 48.000 116.667 48.800 C 116.667 49.803,116.864 50.000,117.867 50.000 L 118.667 50.000 118.667 50.897 C 118.667 51.895,118.789 51.993,120.042 51.998 C 120.644 52.000,120.667 52.021,120.667 52.583 C 120.667 53.671,121.025 53.832,123.458 53.840 L 125.583 53.847 126.239 54.678 C 126.600 55.135,127.088 55.562,127.323 55.626 C 128.215 55.871,132.500 55.727,132.500 55.453 C 132.500 55.375,132.650 55.358,132.833 55.417 C 133.070 55.492,133.167 55.447,133.167 55.261 C 133.167 55.118,133.246 55.000,133.343 55.000 C 133.440 55.000,133.463 55.094,133.395 55.208 C 133.309 55.350,133.360 55.343,133.551 55.188 C 133.850 54.946,133.949 54.576,133.669 54.749 C 133.574 54.807,133.546 54.741,133.603 54.593 C 133.657 54.451,133.760 54.372,133.832 54.416 C 133.904 54.460,133.952 54.366,133.940 54.207 C 133.919 53.949,134.131 53.911,135.823 53.869 C 137.999 53.815,138.167 53.734,138.167 52.730 L 138.167 52.000 139.375 51.998 C 141.259 51.995,141.832 51.857,142.049 51.351 C 142.151 51.112,142.562 50.559,142.961 50.121 C 143.492 49.539,143.659 49.238,143.582 48.996 C 143.523 48.808,143.554 48.667,143.655 48.667 C 143.753 48.667,143.833 48.362,143.833 47.990 C 143.833 47.618,143.766 47.355,143.684 47.406 C 143.602 47.457,143.490 47.382,143.436 47.240 C 143.379 47.093,143.408 47.026,143.502 47.085 C 143.982 47.381,143.424 46.386,142.726 45.700 C 142.342 45.323,142.167 44.997,142.167 44.659 C 142.167 44.357,142.087 44.183,141.961 44.208 C 141.835 44.234,141.743 44.037,141.725 43.701 C 141.686 42.990,141.432 42.700,140.731 42.569 C 140.419 42.510,140.122 42.396,140.072 42.314 C 139.927 42.080,134.772 42.128,134.533 42.367 C 134.423 42.477,134.333 42.927,134.333 43.367 L 134.333 44.167 133.167 44.167 C 132.525 44.167,132.000 44.223,132.000 44.292 C 132.000 44.360,131.156 44.367,130.125 44.306 C 129.094 44.245,127.410 44.188,126.383 44.181 L 124.517 44.167 124.467 43.208 L 124.417 42.250 123.458 42.200 L 122.500 42.150 122.500 38.158 L 122.500 34.167 123.155 34.167 C 123.887 34.167,124.332 33.832,124.336 33.280 C 124.341 32.436,124.519 32.167,125.071 32.167 C 125.828 32.167,126.175 31.843,126.283 31.036 L 126.377 30.333 130.347 30.333 L 134.317 30.333 134.367 31.292 L 134.417 32.250 137.772 32.295 C 141.816 32.349,141.947 32.316,142.098 31.173 L 142.210 30.333 146.146 30.350 C 149.531 30.364,149.978 30.394,149.334 30.566 C 148.106 30.893,148.163 30.297,148.209 42.369 C 148.247 52.466,148.269 53.174,148.547 53.452 C 148.998 53.904,159.145 54.011,159.513 53.568 C 159.712 53.328,159.758 51.444,159.797 41.811 L 159.844 30.340 163.630 30.295 L 167.417 30.250 167.566 29.745 C 167.648 29.467,167.971 29.054,168.283 28.828 C 169.712 27.793,169.583 28.125,169.583 25.487 C 169.583 23.735,169.529 23.093,169.375 23.042 C 169.260 23.004,169.167 22.899,169.167 22.810 C 169.167 22.720,169.237 22.690,169.323 22.743 C 169.417 22.802,169.425 22.652,169.341 22.360 C 169.026 21.260,168.555 20.837,168.027 21.179 C 167.793 21.331,167.791 21.346,168.015 21.278 C 168.161 21.234,168.386 21.264,168.515 21.346 C 168.691 21.458,168.696 21.496,168.535 21.497 C 168.360 21.500,168.360 21.543,168.535 21.732 C 168.664 21.870,168.791 21.898,168.852 21.801 C 168.908 21.712,169.001 21.761,169.058 21.911 C 169.128 22.092,169.098 22.144,168.970 22.065 C 168.844 21.987,168.811 22.035,168.876 22.205 C 168.931 22.347,168.644 22.141,168.238 21.747 C 167.832 21.352,167.500 20.950,167.500 20.852 C 167.500 20.600,140.567 20.591,140.411 20.843 C 140.350 20.942,140.259 21.473,140.209 22.024 C 140.159 22.574,140.073 22.956,140.017 22.871 C 139.962 22.787,139.546 22.668,139.092 22.608 C 138.224 22.492,138.007 22.315,138.003 21.720 C 137.995 20.685,137.626 20.641,129.431 20.701 L 122.778 20.750 122.622 21.218 C 122.310 22.154,121.810 22.453,120.340 22.583 C 118.842 22.715,118.667 22.854,118.667 23.906 C 118.667 24.498,118.664 24.500,117.929 24.500 C 116.976 24.500,116.667 24.809,116.667 25.762 L 116.667 26.500 115.958 26.503 C 115.003 26.506,114.893 26.609,114.754 27.626 C 114.650 28.396,114.582 28.513,114.193 28.600 C 112.960 28.873,112.998 28.793,112.837 31.412 L 112.714 33.406 111.916 34.109 C 111.245 34.699,111.096 34.940,110.985 35.614 C 110.829 36.561,110.793 38.404,110.927 38.539 C 110.979 38.590,111.039 39.118,111.060 39.711 C 111.115 41.209,111.795 42.110,112.523 41.649 C 112.765 41.496,112.548 41.429,112.000 41.487 C 111.778 41.511,111.778 41.493,112.000 41.325 C 112.214 41.162,112.209 41.148,111.964 41.227 C 111.806 41.277,111.633 41.247,111.579 41.159 C 111.525 41.072,111.564 41.000,111.667 41.000 C 111.769 41.000,111.802 40.917,111.739 40.816 C 111.659 40.687,111.576 40.699,111.463 40.857 C 111.342 41.027,111.326 41.007,111.400 40.780 C 111.454 40.613,111.418 40.325,111.319 40.140 C 111.220 39.956,111.179 39.766,111.227 39.718 C 111.275 39.670,111.422 39.890,111.555 40.207 C 111.687 40.524,112.021 40.944,112.296 41.140 C 112.572 41.336,112.793 41.591,112.789 41.707 C 112.657 45.174,112.892 46.000,114.012 46.000 C 114.581 46.000,114.666 46.049,114.662 46.375 C 114.657 46.710,114.638 46.719,114.487 46.458 C 114.361 46.243,114.102 46.167,113.492 46.167 L 112.667 46.167 112.667 44.514 C 112.667 42.408,112.647 42.364,111.650 42.232 L 110.833 42.124 110.833 40.395 C 110.833 39.354,110.767 38.667,110.667 38.667 C 110.575 38.667,110.500 38.475,110.500 38.242 C 110.500 37.527,110.054 36.877,109.420 36.668 C 108.842 36.477,108.833 36.460,108.826 35.529 C 108.810 33.424,108.355 32.500,107.337 32.500 L 106.878 32.500 106.797 30.822 C 106.705 28.910,106.582 28.691,105.523 28.549 L 104.833 28.456 104.833 26.884 C 104.833 25.156,104.676 24.668,104.119 24.664 C 103.189 24.659,103.000 24.501,103.000 23.728 C 103.000 23.325,102.931 22.865,102.847 22.706 C 102.763 22.547,102.603 22.170,102.491 21.869 C 102.242 21.196,101.781 20.910,101.373 21.172 C 101.147 21.317,101.142 21.341,101.348 21.278 C 101.494 21.234,101.719 21.264,101.848 21.346 C 102.024 21.458,102.029 21.496,101.868 21.497 C 101.693 21.500,101.693 21.543,101.868 21.732 C 101.997 21.870,102.124 21.898,102.185 21.801 C 102.241 21.712,102.334 21.761,102.392 21.911 C 102.453 22.071,102.428 22.142,102.331 22.082 C 102.134 21.960,102.112 22.202,102.301 22.425 C 102.375 22.512,102.126 22.283,101.747 21.917 C 101.309 21.492,101.111 21.181,101.201 21.061 C 101.453 20.724,100.881 20.667,97.278 20.669 C 93.244 20.672,93.306 20.653,93.203 21.892 C 93.133 22.741,93.089 22.824,92.664 22.917 C 91.638 23.143,91.173 24.348,91.169 26.792 L 91.167 28.500 90.343 28.500 C 89.325 28.500,89.371 28.416,89.234 30.538 L 89.120 32.297 88.326 32.402 C 87.356 32.531,87.333 32.582,87.333 34.680 L 87.333 36.333 86.625 36.336 C 85.857 36.339,85.602 36.447,85.455 36.833 C 85.402 36.971,85.346 35.358,85.330 33.250 C 85.297 29.011,85.243 28.608,84.703 28.530 C 83.923 28.417,83.378 27.603,83.253 26.367 C 83.107 24.906,83.022 24.787,82.053 24.676 C 81.349 24.595,81.244 24.532,81.203 24.167 C 81.060 22.888,80.842 22.744,78.750 22.544 L 77.417 22.417 77.320 21.694 C 77.267 21.297,77.117 20.904,76.987 20.822 C 76.501 20.514,56.404 20.630,56.145 20.942 M224.000 20.976 C 222.668 21.480,222.756 20.375,222.705 37.297 C 222.680 45.572,222.722 52.585,222.798 52.880 C 223.047 53.847,222.949 53.840,236.057 53.793 L 247.913 53.750 248.013 53.250 L 248.112 52.750 248.181 53.250 L 248.250 53.750 260.833 53.750 L 273.417 53.750 273.417 49.917 C 273.417 46.626,273.381 46.082,273.167 46.072 C 272.654 46.048,271.513 44.753,271.979 44.724 C 272.291 44.705,272.330 44.737,272.151 44.865 C 271.968 44.995,271.983 45.010,272.217 44.934 C 272.397 44.876,272.476 44.905,272.413 45.006 C 272.356 45.099,272.408 45.154,272.529 45.129 C 272.663 45.101,272.729 45.205,272.697 45.392 C 272.666 45.575,272.716 45.656,272.820 45.591 C 272.929 45.524,272.960 45.597,272.902 45.783 C 272.812 46.072,272.816 46.072,273.001 45.783 C 273.388 45.178,272.020 44.098,271.243 44.396 C 271.109 44.448,271.000 44.417,271.000 44.328 C 271.000 44.227,268.552 44.167,264.417 44.167 L 257.833 44.167 257.833 43.167 L 257.833 42.167 263.625 42.154 C 269.148 42.143,271.007 42.049,271.289 41.766 C 271.456 41.600,271.456 32.900,271.289 32.734 C 271.007 32.451,269.148 32.357,263.625 32.346 L 257.833 32.333 257.833 31.333 L 257.833 30.333 264.560 30.333 C 272.266 30.333,272.740 30.298,273.137 29.692 C 273.594 28.994,273.556 21.242,273.093 20.904 C 272.704 20.619,248.780 20.548,248.333 20.830 C 248.115 20.967,248.077 22.610,248.035 33.636 L 247.986 46.284 247.535 46.205 C 246.978 46.107,246.000 45.210,246.000 44.797 C 246.000 44.233,245.258 44.167,238.697 44.146 C 235.151 44.134,232.571 44.073,232.964 44.009 C 234.220 43.805,234.139 44.506,234.157 33.667 C 234.176 22.167,234.198 23.323,233.951 23.017 C 233.793 22.822,233.794 22.796,233.958 22.895 C 234.073 22.963,234.167 22.945,234.167 22.853 C 234.167 22.761,234.090 22.639,233.996 22.581 C 233.901 22.522,233.835 22.387,233.849 22.279 C 233.947 21.483,233.280 20.818,232.717 21.151 C 232.452 21.308,232.466 21.324,232.829 21.290 C 233.098 21.264,233.245 21.337,233.253 21.500 C 233.260 21.637,233.346 21.734,233.445 21.715 C 233.544 21.696,233.625 21.856,233.625 22.069 C 233.625 22.438,233.593 22.427,233.006 21.854 C 232.522 21.382,232.427 21.198,232.568 21.010 C 232.714 20.819,232.692 20.793,232.458 20.880 C 232.298 20.940,232.167 20.920,232.167 20.835 C 232.167 20.530,224.844 20.656,224.000 20.976 M275.663 21.094 C 275.485 21.560,275.426 53.112,275.601 53.570 C 275.692 53.806,276.834 53.833,286.809 53.831 C 298.525 53.828,298.685 53.818,298.797 53.079 C 298.959 52.005,298.963 52.000,299.803 52.000 C 300.671 52.000,301.000 51.793,301.000 51.248 C 301.000 50.596,301.810 50.046,302.960 49.917 C 304.541 49.740,304.693 49.549,304.794 47.614 L 304.879 46.000 305.684 46.000 C 306.681 46.000,306.824 45.783,306.858 44.219 C 306.872 43.595,306.915 43.291,306.953 43.544 C 306.991 43.798,307.086 43.967,307.162 43.919 C 307.239 43.872,307.267 43.966,307.225 44.130 C 307.074 44.706,307.475 45.350,308.149 45.615 C 308.773 45.860,308.798 45.900,308.871 46.783 C 308.958 47.832,309.125 47.994,310.125 47.997 L 310.833 48.000 310.833 48.827 C 310.833 49.788,311.072 50.000,312.156 50.000 L 312.833 50.000 312.833 50.823 C 312.833 51.772,312.877 51.815,313.978 51.945 C 314.773 52.039,314.800 52.061,314.897 52.666 C 315.058 53.674,315.251 53.743,318.097 53.809 L 320.643 53.868 320.750 54.503 C 320.927 55.549,321.213 55.685,323.455 55.788 C 327.158 55.959,328.075 55.713,328.269 54.499 L 328.372 53.856 331.033 53.803 C 334.002 53.744,334.167 53.678,334.167 52.551 C 334.167 52.008,334.177 52.000,334.928 52.000 C 335.878 52.000,336.333 51.765,336.333 51.275 C 336.333 50.804,337.108 50.047,337.667 49.973 L 338.083 49.917 338.133 43.333 C 338.207 33.443,338.764 34.417,333.036 34.417 C 328.102 34.417,328.500 34.175,328.500 37.179 C 328.500 39.252,328.492 39.301,328.083 39.568 C 327.854 39.718,327.667 39.984,327.667 40.158 C 327.667 40.333,327.854 40.623,328.083 40.804 C 328.473 41.110,328.500 41.229,328.500 42.649 L 328.500 44.167 327.333 44.167 C 326.692 44.167,326.167 44.223,326.167 44.292 C 326.167 44.360,325.604 44.417,324.917 44.417 C 324.229 44.417,323.667 44.360,323.667 44.292 C 323.667 44.223,322.961 44.167,322.098 44.167 L 320.529 44.167 320.417 43.499 C 320.290 42.751,319.836 42.333,319.149 42.333 C 318.736 42.333,318.694 42.266,318.561 41.376 L 318.417 40.419 317.542 40.280 L 316.667 40.141 316.667 37.259 L 316.667 34.377 317.431 34.291 C 318.381 34.183,318.517 34.050,318.622 33.117 C 318.706 32.373,318.707 32.372,319.457 32.288 C 320.307 32.192,320.446 32.040,320.597 31.042 L 320.705 30.333 324.602 30.333 L 328.500 30.333 328.503 31.042 C 328.507 32.277,328.411 32.245,332.285 32.294 C 336.192 32.344,336.182 32.347,336.293 31.192 L 336.374 30.349 337.229 30.300 L 338.083 30.250 338.129 27.539 L 338.175 24.828 337.743 24.664 C 337.506 24.574,337.098 24.500,336.837 24.500 C 336.408 24.500,336.351 24.432,336.246 23.792 C 336.075 22.758,335.989 22.709,334.095 22.580 L 332.372 22.463 332.288 21.711 C 332.167 20.637,332.428 20.672,324.555 20.669 C 316.377 20.666,316.875 20.603,316.735 21.660 L 316.630 22.453 315.305 22.556 C 313.534 22.692,313.130 22.902,312.958 23.771 C 312.825 24.445,312.805 24.461,311.997 24.568 C 311.070 24.691,310.833 24.961,310.833 25.895 C 310.833 26.459,310.808 26.483,310.089 26.591 C 309.078 26.743,309.003 26.881,308.886 28.816 L 308.783 30.500 308.091 30.500 C 307.252 30.500,307.009 30.716,306.973 31.492 C 306.957 31.817,306.901 31.349,306.847 30.452 C 306.736 28.617,306.662 28.507,305.550 28.503 L 304.850 28.500 304.800 27.542 L 304.750 26.583 303.875 26.533 L 303.000 26.483 303.000 25.691 C 303.000 24.702,302.800 24.500,301.822 24.500 L 301.043 24.500 300.957 23.736 C 300.839 22.684,300.766 22.644,298.766 22.542 L 297.000 22.452 297.000 21.893 C 297.000 20.598,297.610 20.667,286.079 20.667 L 275.825 20.667 275.663 21.094 M340.500 20.830 C 340.216 21.009,340.021 52.142,340.297 53.208 L 340.438 53.750 353.011 53.750 L 365.583 53.750 365.636 53.295 C 365.671 52.993,365.978 52.587,366.552 52.084 L 367.417 51.328 367.417 50.000 L 367.417 48.672 366.542 47.906 C 365.875 47.323,365.667 47.029,365.667 46.672 C 365.667 46.395,365.557 46.160,365.399 46.100 C 365.234 46.036,365.172 45.893,365.236 45.725 C 365.472 45.110,364.118 44.125,363.410 44.396 C 363.276 44.448,363.167 44.417,363.167 44.328 C 363.167 44.227,360.719 44.167,356.583 44.167 L 350.000 44.167 350.000 43.176 L 350.000 42.184 356.597 42.134 C 362.904 42.086,363.204 42.069,363.430 41.760 C 363.777 41.285,363.777 33.215,363.430 32.740 C 363.204 32.431,362.904 32.414,356.597 32.366 L 350.000 32.316 350.000 31.324 L 350.000 30.333 357.468 30.333 C 363.651 30.333,364.992 30.293,365.260 30.097 C 365.639 29.820,365.860 22.029,365.514 21.121 L 365.342 20.667 353.046 20.669 C 345.590 20.671,340.652 20.734,340.500 20.830 M367.839 20.989 C 367.652 21.338,367.583 53.088,367.768 53.570 C 367.900 53.914,376.959 53.974,377.300 53.633 C 377.444 53.490,377.500 52.385,377.500 49.717 L 377.500 46.000 379.397 46.000 C 381.488 46.000,381.492 46.002,381.498 47.202 C 381.500 47.742,381.903 48.000,382.739 48.000 L 383.333 48.000 383.333 48.800 C 383.333 49.798,383.531 50.000,384.508 50.000 L 385.283 50.000 385.393 51.538 C 385.551 53.764,385.509 53.736,388.822 53.806 L 391.468 53.862 391.575 54.432 C 391.694 55.068,392.334 55.600,392.774 55.430 C 393.025 55.334,393.021 55.301,392.734 55.084 C 392.294 54.751,392.080 54.774,392.352 55.125 C 392.536 55.362,392.508 55.358,392.205 55.099 C 391.824 54.774,391.702 54.566,392.000 54.750 C 392.092 54.807,392.167 54.777,392.167 54.685 C 392.167 54.592,392.044 54.448,391.893 54.364 C 391.734 54.275,391.672 54.126,391.745 54.008 C 391.830 53.871,391.974 53.976,392.193 54.337 C 392.371 54.629,392.732 54.950,392.996 55.050 C 393.424 55.211,393.446 55.253,393.199 55.434 C 392.953 55.613,392.969 55.637,393.336 55.643 C 393.564 55.647,394.299 55.665,394.971 55.683 C 396.911 55.735,396.904 55.749,396.973 51.664 L 397.030 48.337 396.588 48.168 C 396.344 48.076,395.935 48.000,395.678 48.000 C 395.258 48.000,395.201 47.932,395.120 47.327 C 394.995 46.393,394.756 46.167,393.896 46.167 C 393.176 46.167,393.167 46.159,393.167 45.594 C 393.167 44.445,392.940 44.167,392.004 44.167 L 391.167 44.167 391.167 43.175 L 391.167 42.183 392.125 42.133 L 393.083 42.083 393.133 41.125 L 393.183 40.167 393.988 40.167 C 394.516 40.167,394.867 40.077,395.010 39.905 C 395.129 39.761,395.358 39.678,395.519 39.720 C 395.854 39.808,396.550 39.382,396.418 39.169 C 396.370 39.092,396.419 38.999,396.526 38.964 C 396.671 38.915,396.673 38.818,396.532 38.574 C 396.428 38.396,396.341 38.347,396.338 38.466 C 396.333 38.711,395.592 39.500,395.368 39.500 C 395.286 39.500,395.489 39.211,395.818 38.857 C 396.235 38.409,396.478 38.261,396.618 38.371 C 396.966 38.644,397.012 37.941,396.963 33.167 L 396.917 28.583 396.500 28.527 C 395.955 28.455,395.167 27.700,395.167 27.252 C 395.167 26.708,394.838 26.500,393.975 26.500 L 393.183 26.500 393.133 25.542 C 393.085 24.613,393.068 24.582,392.583 24.529 C 391.960 24.461,391.167 23.730,391.167 23.225 C 391.167 22.751,390.716 22.500,389.868 22.500 C 389.234 22.500,389.210 22.479,389.065 21.797 C 388.818 20.626,389.262 20.672,378.048 20.669 C 368.295 20.667,368.007 20.676,367.839 20.989 M176.271 21.310 C 175.930 21.687,175.623 22.667,175.845 22.667 C 175.930 22.667,176.000 22.554,176.000 22.417 C 176.000 22.279,176.083 22.167,176.184 22.167 C 176.286 22.167,176.331 22.267,176.284 22.389 C 176.237 22.511,176.300 22.611,176.425 22.611 C 176.550 22.611,176.606 22.537,176.550 22.446 C 176.487 22.344,176.536 22.337,176.683 22.428 C 177.280 22.800,177.500 22.686,177.500 22.005 C 177.500 21.076,176.827 20.696,176.271 21.310 M224.454 21.208 C 224.414 21.323,224.261 21.407,224.114 21.395 C 223.967 21.382,223.858 21.420,223.871 21.478 C 223.921 21.689,223.129 22.833,222.942 22.820 C 222.805 22.811,222.807 22.784,222.949 22.726 C 223.058 22.682,223.107 22.538,223.057 22.407 C 223.006 22.276,223.081 22.125,223.222 22.071 C 223.377 22.012,223.439 21.862,223.380 21.695 C 223.325 21.542,223.336 21.467,223.404 21.528 C 223.472 21.589,223.672 21.495,223.847 21.319 C 224.208 20.959,224.565 20.893,224.454 21.208 M176.867 21.753 C 176.619 21.968,176.352 22.080,176.273 22.003 C 176.100 21.834,176.297 21.458,176.494 21.580 C 176.570 21.626,176.674 21.554,176.726 21.419 C 176.778 21.283,176.932 21.215,177.069 21.268 C 177.265 21.343,177.222 21.446,176.867 21.753 M93.167 23.064 C 93.167 23.226,91.775 24.497,91.689 24.412 C 91.636 24.359,91.694 24.253,91.818 24.176 C 91.942 24.100,91.996 23.962,91.940 23.871 C 91.883 23.779,91.963 23.602,92.117 23.477 C 92.358 23.282,92.378 23.285,92.257 23.500 C 92.181 23.637,92.282 23.581,92.482 23.375 C 92.802 23.045,93.167 22.880,93.167 23.064 M185.251 28.788 C 185.282 28.950,185.314 29.177,185.321 29.292 C 185.341 29.627,185.652 29.533,186.091 29.059 C 186.316 28.816,186.500 28.691,186.500 28.780 C 186.500 29.015,185.770 29.665,185.489 29.678 C 185.344 29.686,185.380 29.746,185.583 29.833 C 186.058 30.037,186.172 30.029,186.125 29.792 C 186.102 29.675,186.212 29.605,186.375 29.632 C 186.535 29.659,186.676 29.603,186.688 29.507 C 186.699 29.412,186.718 29.265,186.729 29.181 C 186.741 29.097,186.806 28.972,186.875 28.903 C 187.142 28.636,186.967 28.550,186.098 28.522 C 185.315 28.496,185.203 28.532,185.251 28.788 M200.528 29.886 C 200.068 30.376,200.073 30.569,200.557 30.949 C 200.771 31.118,200.987 31.367,201.037 31.503 C 201.087 31.639,201.089 31.262,201.041 30.667 C 200.937 29.361,200.972 29.414,200.528 29.886 M73.500 30.906 C 73.500 32.055,73.726 32.333,74.663 32.333 L 75.500 32.333 75.500 33.333 L 75.500 34.333 74.663 34.333 C 73.726 34.333,73.500 34.611,73.500 35.761 L 73.500 36.333 69.583 36.333 L 65.667 36.333 65.667 35.779 C 65.667 35.403,65.801 35.099,66.083 34.833 C 66.447 34.492,66.500 34.300,66.500 33.333 C 66.500 32.366,66.447 32.175,66.083 31.833 C 65.801 31.568,65.667 31.263,65.667 30.888 L 65.667 30.333 69.583 30.333 L 73.500 30.333 73.500 30.906 M293.258 31.078 C 293.409 32.085,293.572 32.178,295.385 32.286 L 296.955 32.380 297.061 33.632 C 297.198 35.249,297.197 39.259,297.060 40.884 L 296.952 42.151 296.101 42.200 L 295.250 42.250 295.200 43.208 L 295.150 44.167 290.242 44.167 L 285.333 44.167 285.333 37.250 L 285.333 30.333 289.240 30.333 L 293.146 30.333 293.258 31.078 M385.333 31.323 C 385.333 31.868,385.398 32.354,385.478 32.403 C 385.558 32.452,385.670 32.785,385.727 33.141 C 385.784 33.498,385.955 33.894,386.108 34.020 C 386.359 34.228,386.339 34.258,385.901 34.334 C 385.440 34.415,385.414 34.464,385.367 35.376 L 385.317 36.333 381.408 36.333 L 377.500 36.333 377.500 33.333 L 377.500 30.333 381.417 30.333 L 385.333 30.333 385.333 31.323 M170.886 30.834 C 170.161 31.156,169.816 31.821,169.849 32.833 C 169.861 33.229,169.870 33.225,170.029 32.750 C 170.122 32.475,170.195 32.117,170.192 31.955 C 170.189 31.783,170.263 31.706,170.369 31.772 C 170.471 31.835,170.504 31.809,170.444 31.711 C 170.320 31.510,170.727 31.116,170.890 31.279 C 170.951 31.340,171.000 31.297,171.000 31.185 C 171.000 31.072,171.068 31.022,171.150 31.073 C 171.233 31.124,171.083 31.399,170.817 31.684 C 170.357 32.176,170.156 32.629,170.488 32.424 C 170.574 32.371,170.684 32.394,170.734 32.475 C 171.046 32.980,171.577 32.563,171.599 31.796 C 171.611 31.363,171.561 31.045,171.489 31.090 C 171.416 31.135,171.309 31.096,171.252 31.003 C 171.194 30.910,171.264 30.833,171.407 30.833 C 171.550 30.833,171.667 30.758,171.667 30.667 C 171.667 30.575,171.648 30.505,171.625 30.512 C 171.602 30.518,171.270 30.663,170.886 30.834 M191.063 30.800 C 191.126 30.902,191.300 30.938,191.449 30.881 C 191.646 30.806,191.683 30.838,191.585 30.997 C 191.494 31.144,191.513 31.178,191.641 31.099 C 191.747 31.034,191.833 31.057,191.833 31.152 C 191.833 31.246,191.965 31.281,192.125 31.229 C 192.371 31.150,192.378 31.163,192.167 31.315 C 191.938 31.479,192.044 31.575,192.387 31.516 C 192.463 31.502,192.478 31.568,192.420 31.661 C 192.362 31.754,192.383 31.952,192.466 32.100 C 192.604 32.347,192.626 32.347,192.723 32.093 C 192.791 31.915,192.764 31.857,192.647 31.929 C 192.527 32.003,192.500 31.929,192.568 31.716 C 192.634 31.508,192.560 31.289,192.366 31.113 C 192.001 30.783,190.887 30.515,191.063 30.800 M191.112 31.291 C 190.883 31.676,191.059 32.334,191.396 32.353 C 192.319 32.405,192.483 32.275,192.070 31.819 C 191.675 31.382,191.211 31.126,191.112 31.291 M386.894 33.728 C 387.246 34.036,387.245 34.037,386.792 33.766 C 386.540 33.615,386.333 33.541,386.333 33.600 C 386.333 33.659,386.221 33.614,386.083 33.500 C 385.946 33.386,385.833 33.212,385.833 33.114 C 385.833 33.016,385.952 33.082,386.097 33.260 C 386.321 33.534,386.346 33.539,386.264 33.292 C 386.000 32.498,385.999 32.453,386.258 32.917 C 386.412 33.192,386.698 33.557,386.894 33.728 M97.215 33.704 C 97.318 34.895,97.797 35.767,98.316 35.709 C 98.528 35.685,98.642 35.738,98.583 35.834 C 98.527 35.925,98.597 36.000,98.740 36.000 C 98.942 36.000,99.001 36.195,99.003 36.875 C 99.006 38.031,99.097 38.136,100.170 38.209 C 100.672 38.244,99.733 38.271,98.083 38.271 C 96.433 38.271,95.515 38.243,96.042 38.210 L 97.000 38.150 97.000 35.381 C 97.000 32.545,97.068 32.016,97.215 33.704 M33.167 33.083 C 33.396 33.214,33.485 33.324,33.365 33.327 C 33.245 33.331,33.194 33.410,33.252 33.503 C 33.309 33.596,33.421 33.632,33.500 33.583 C 33.723 33.446,33.868 33.801,33.707 34.088 C 33.586 34.304,33.528 34.281,33.347 33.941 C 33.227 33.719,32.953 33.442,32.737 33.327 C 32.521 33.211,32.384 33.053,32.432 32.975 C 32.550 32.784,32.676 32.803,33.167 33.083 M177.523 35.125 C 177.510 36.205,177.567 37.000,177.657 37.000 C 178.324 37.000,178.660 34.291,178.014 34.122 C 177.839 34.076,177.661 33.861,177.620 33.644 C 177.579 33.427,177.535 34.094,177.523 35.125 M98.701 35.380 L 99.083 35.689 98.708 35.505 C 98.419 35.364,98.332 35.370,98.327 35.536 C 98.324 35.654,98.142 35.531,97.923 35.263 C 97.704 34.995,97.536 34.632,97.549 34.456 C 97.570 34.177,97.622 34.196,97.946 34.604 C 98.152 34.861,98.491 35.210,98.701 35.380 M109.792 37.070 C 109.846 37.123,109.792 37.167,109.674 37.167 C 109.499 37.167,109.499 37.214,109.673 37.425 C 109.823 37.606,109.922 37.626,110.004 37.494 C 110.082 37.367,110.154 37.394,110.225 37.578 C 110.286 37.737,110.261 37.808,110.165 37.749 C 109.971 37.629,109.945 37.862,110.125 38.095 C 110.194 38.184,110.115 38.105,109.951 37.920 C 109.786 37.735,109.459 37.424,109.224 37.229 L 108.797 36.875 109.247 36.925 C 109.494 36.952,109.739 37.017,109.792 37.070 M201.000 37.917 C 201.000 38.274,201.076 38.333,201.529 38.333 L 202.058 38.333 201.667 37.917 C 201.451 37.688,201.213 37.500,201.138 37.500 C 201.062 37.500,201.000 37.688,201.000 37.917 M177.516 40.925 C 177.512 41.837,177.563 42.506,177.629 42.411 C 177.796 42.173,178.151 42.205,178.316 42.472 C 178.426 42.651,178.474 42.642,178.555 42.429 C 178.676 42.115,178.422 41.384,178.030 40.917 C 177.752 40.586,177.753 40.586,178.126 40.902 C 178.333 41.077,178.588 41.506,178.693 41.855 C 178.797 42.204,178.947 42.450,179.025 42.401 C 179.233 42.273,179.198 41.667,178.982 41.667 C 178.881 41.667,178.843 41.549,178.898 41.405 C 179.025 41.074,178.762 40.579,178.068 39.843 L 177.524 39.267 177.516 40.925 M169.933 42.333 C 170.027 43.328,170.160 43.593,171.031 44.541 L 171.606 45.165 171.599 43.624 C 171.595 42.770,171.516 42.029,171.421 41.961 C 171.165 41.777,170.632 41.808,170.750 42.000 C 170.807 42.092,170.734 42.167,170.589 42.167 C 170.266 42.167,170.612 42.947,171.162 43.459 C 171.476 43.752,171.476 43.762,171.172 43.762 C 170.999 43.762,170.871 43.688,170.887 43.597 C 170.903 43.506,170.842 43.427,170.750 43.422 C 170.379 43.399,170.158 43.125,170.257 42.811 C 170.314 42.631,170.288 42.394,170.198 42.284 C 170.109 42.173,169.993 41.933,169.940 41.750 C 169.888 41.567,169.884 41.829,169.933 42.333 M201.500 42.025 C 201.500 42.114,201.424 42.140,201.332 42.083 C 201.109 41.944,200.962 42.360,201.029 42.944 L 201.083 43.417 201.625 42.888 C 202.252 42.276,202.297 42.073,201.833 41.952 C 201.650 41.904,201.500 41.937,201.500 42.025 M202.163 42.510 C 202.047 42.788,201.739 43.127,201.477 43.262 C 200.974 43.522,200.841 43.833,201.232 43.833 C 201.360 43.833,201.508 43.721,201.560 43.583 C 201.613 43.446,201.752 43.334,201.870 43.336 C 202.019 43.338,202.008 43.387,201.833 43.500 C 201.696 43.589,201.665 43.663,201.766 43.664 C 202.046 43.668,202.547 43.044,202.423 42.844 C 202.363 42.746,202.393 42.667,202.490 42.667 C 202.704 42.667,202.726 42.223,202.519 42.095 C 202.438 42.045,202.278 42.232,202.163 42.510 M26.899 42.862 C 26.816 42.996,26.872 43.021,27.077 42.942 C 27.654 42.721,27.787 43.251,27.778 45.737 L 27.769 48.083 27.713 45.971 L 27.657 43.860 27.091 43.362 C 26.570 42.905,26.495 42.667,26.871 42.667 C 26.953 42.667,26.965 42.754,26.899 42.862 M140.741 42.954 C 140.824 43.170,140.883 43.189,140.982 43.029 C 141.084 42.864,141.160 42.875,141.330 43.079 C 141.516 43.304,141.504 43.324,141.244 43.224 C 140.955 43.114,140.954 43.128,141.220 43.508 C 141.374 43.728,141.500 43.985,141.499 44.079 C 141.499 44.173,141.354 44.013,141.178 43.723 C 141.001 43.433,140.700 43.147,140.509 43.086 C 140.318 43.026,140.205 42.906,140.257 42.821 C 140.406 42.580,140.620 42.639,140.741 42.954 M210.375 43.951 C 209.885 44.045,209.894 44.244,210.389 44.272 C 210.620 44.286,210.778 44.201,210.778 44.064 C 210.778 43.937,210.772 43.844,210.764 43.856 C 210.756 43.869,210.581 43.911,210.375 43.951 M308.167 44.833 C 308.868 45.534,308.945 45.667,308.657 45.667 C 308.560 45.667,308.522 45.600,308.573 45.517 C 308.623 45.435,308.553 45.325,308.416 45.273 C 308.279 45.220,308.167 45.259,308.167 45.359 C 308.167 45.482,308.089 45.477,307.927 45.342 C 307.795 45.232,307.729 45.032,307.780 44.898 C 307.837 44.750,307.788 44.672,307.655 44.702 C 307.535 44.728,307.408 44.619,307.373 44.458 C 307.278 44.025,307.430 44.096,308.167 44.833 M130.778 44.711 C 130.370 44.814,130.082 44.815,129.980 44.713 C 129.877 44.611,130.108 44.552,130.618 44.551 L 131.417 44.549 130.778 44.711 M325.167 44.665 C 324.610 44.846,324.333 44.860,324.334 44.708 C 324.334 44.640,324.615 44.571,324.959 44.557 C 325.492 44.534,325.522 44.550,325.167 44.665 M83.073 44.816 C 83.123 44.898,83.053 45.008,82.917 45.060 C 82.780 45.113,82.526 45.389,82.353 45.675 C 82.134 46.034,81.998 46.131,81.910 45.989 C 81.834 45.866,81.907 45.692,82.090 45.558 C 82.259 45.434,82.334 45.333,82.256 45.333 C 82.178 45.333,82.251 45.183,82.417 45.000 C 82.745 44.637,82.930 44.585,83.073 44.816 M364.715 44.971 C 364.862 45.093,364.935 45.309,364.878 45.456 C 364.811 45.631,364.843 45.681,364.970 45.602 C 365.099 45.522,365.128 45.575,365.057 45.760 C 364.962 46.006,364.934 46.008,364.806 45.778 C 364.726 45.636,364.435 45.343,364.159 45.127 C 363.671 44.745,363.668 44.735,364.053 44.742 C 364.271 44.746,364.568 44.849,364.715 44.971 M184.862 45.552 C 184.400 46.045,184.407 46.188,184.917 46.667 L 185.333 47.058 185.333 46.112 C 185.333 45.029,185.343 45.040,184.862 45.552 M143.182 47.219 C 143.681 48.019,143.064 49.667,142.265 49.667 C 142.170 49.667,142.260 49.550,142.464 49.407 C 143.455 48.712,143.518 47.631,142.615 46.782 C 142.219 46.410,142.182 46.334,142.467 46.485 C 142.678 46.597,143.000 46.927,143.182 47.219 M39.493 49.012 C 39.399 49.189,39.284 49.333,39.238 49.333 C 39.192 49.333,39.233 49.188,39.327 49.011 C 39.616 48.472,39.523 48.432,39.061 48.894 C 38.819 49.136,38.500 49.333,38.352 49.333 C 38.199 49.332,38.324 49.186,38.643 48.991 C 38.950 48.803,39.244 48.490,39.295 48.296 C 39.388 47.941,39.388 47.941,39.526 48.316 C 39.608 48.538,39.595 48.823,39.493 49.012 M115.241 50.787 C 115.324 51.004,115.383 51.022,115.482 50.862 C 115.584 50.697,115.660 50.708,115.830 50.913 C 116.017 51.138,116.003 51.158,115.732 51.056 C 115.454 50.952,115.444 50.971,115.644 51.217 C 115.769 51.371,115.950 51.447,116.047 51.387 C 116.159 51.319,116.182 51.386,116.112 51.570 C 116.050 51.730,116.000 52.003,116.000 52.178 C 116.000 52.352,115.772 52.740,115.493 53.039 L 114.987 53.583 115.410 52.935 C 116.006 52.022,115.679 50.833,114.831 50.833 C 114.730 50.833,114.693 50.758,114.750 50.667 C 114.906 50.414,115.118 50.466,115.241 50.787 M27.567 52.444 C 27.386 52.686,27.054 53.002,26.828 53.148 C 26.587 53.302,26.676 53.163,27.042 52.811 C 27.385 52.481,27.667 52.113,27.667 51.994 C 27.667 51.875,27.718 51.829,27.781 51.892 C 27.843 51.954,27.747 52.203,27.567 52.444 M42.926 52.015 C 42.987 52.114,42.964 52.269,42.874 52.359 C 42.768 52.465,42.680 52.402,42.621 52.178 C 42.527 51.816,42.734 51.705,42.926 52.015 M44.083 53.226 C 44.175 53.308,44.086 53.290,43.886 53.187 C 43.414 52.944,43.284 52.951,43.439 53.208 C 43.517 53.339,43.443 53.325,43.240 53.172 C 43.062 53.038,42.896 52.917,42.871 52.904 C 42.846 52.892,42.874 52.754,42.934 52.598 C 43.047 52.303,43.036 52.297,44.083 53.226 M84.667 53.987 C 84.667 54.275,83.805 55.167,83.527 55.166 C 83.355 55.166,83.449 55.044,83.777 54.844 C 84.067 54.668,84.353 54.368,84.413 54.178 C 84.526 53.822,84.667 53.716,84.667 53.987 M133.486 54.361 C 133.266 54.773,132.848 55.153,132.603 55.161 C 132.521 55.164,132.648 55.015,132.884 54.829 C 133.120 54.643,133.362 54.338,133.422 54.150 C 133.482 53.962,133.567 53.845,133.612 53.890 C 133.657 53.935,133.600 54.147,133.486 54.361 M82.917 54.990 L 83.250 55.192 82.917 55.072 C 82.733 55.007,82.421 54.945,82.222 54.935 C 82.024 54.925,81.801 54.856,81.727 54.783 C 81.654 54.709,81.732 54.702,81.901 54.767 C 82.199 54.881,82.199 54.870,81.905 54.401 L 81.603 53.917 82.093 54.353 C 82.363 54.593,82.733 54.879,82.917 54.990 M112.333 54.968 C 112.826 55.153,113.401 54.973,113.999 54.448 L 114.414 54.083 114.082 54.481 C 113.311 55.405,112.265 55.426,111.479 54.532 L 111.083 54.083 111.500 54.447 C 111.729 54.647,112.104 54.882,112.333 54.968 M200.417 54.287 C 199.670 54.469,199.089 55.507,199.515 55.899 C 199.662 56.034,199.687 56.032,199.609 55.892 C 199.550 55.787,199.613 55.487,199.750 55.226 C 199.886 54.964,199.998 54.821,199.999 54.907 C 200.000 54.993,200.107 54.918,200.239 54.740 C 200.442 54.465,200.510 54.451,200.697 54.650 C 200.882 54.846,200.865 54.864,200.588 54.766 C 200.408 54.702,200.315 54.704,200.382 54.770 C 200.448 54.837,200.340 55.066,200.140 55.279 C 199.712 55.734,199.771 55.830,200.536 55.925 C 201.181 56.005,201.352 55.215,200.829 54.573 C 200.608 54.302,200.612 54.282,200.870 54.378 C 201.027 54.437,201.200 54.414,201.254 54.326 C 201.356 54.161,200.999 54.145,200.417 54.287 M200.500 62.250 C 201.157 62.949,203.667 62.743,203.667 61.991 C 203.667 61.902,202.891 61.833,201.888 61.833 L 200.109 61.833 200.500 62.250 " stroke="none" fill="#fcfcfc" fill-rule="evenodd"></path><path id="path1" d="M189.833 12.818 L 187.417 12.917 187.366 13.792 C 187.339 14.273,187.264 14.667,187.200 14.668 C 183.875 14.703,183.537 14.807,183.400 15.840 L 183.290 16.667 182.484 16.667 C 181.547 16.667,181.333 16.912,181.333 17.989 L 181.333 18.667 180.436 18.667 C 179.661 18.667,179.526 18.715,179.446 19.022 C 179.384 19.258,179.267 19.343,179.095 19.278 C 178.752 19.146,177.979 19.919,178.111 20.262 C 178.177 20.433,178.091 20.551,177.855 20.613 C 177.660 20.664,177.500 20.777,177.500 20.864 C 177.500 20.951,177.341 20.972,177.146 20.910 C 176.951 20.848,176.832 20.863,176.881 20.942 C 176.985 21.110,176.543 21.770,176.368 21.708 C 176.233 21.661,176.204 21.978,176.337 22.042 C 176.385 22.065,176.631 21.921,176.882 21.723 C 177.134 21.525,177.262 21.325,177.166 21.278 C 177.070 21.230,177.087 21.211,177.204 21.234 C 177.325 21.258,177.439 21.575,177.468 21.971 C 177.523 22.714,177.178 22.925,176.676 22.458 C 176.552 22.344,176.496 22.331,176.552 22.431 C 176.607 22.530,176.550 22.611,176.425 22.611 C 176.300 22.611,176.237 22.511,176.284 22.389 C 176.331 22.267,176.286 22.167,176.184 22.167 C 176.083 22.167,176.000 22.279,176.000 22.417 C 176.000 22.554,175.887 22.667,175.750 22.667 C 175.558 22.667,175.500 22.880,175.500 23.583 L 175.500 24.500 174.792 24.503 C 173.816 24.506,173.633 24.670,173.541 25.629 L 173.461 26.461 172.716 26.545 C 171.697 26.660,171.696 26.662,171.637 28.883 L 171.584 30.849 171.167 30.753 C 170.932 30.699,170.837 30.715,170.950 30.791 C 171.081 30.880,171.096 31.009,170.994 31.171 C 170.908 31.306,170.837 31.351,170.836 31.271 C 170.834 31.191,170.722 31.219,170.585 31.332 C 170.449 31.445,170.385 31.616,170.444 31.711 C 170.509 31.815,170.470 31.835,170.348 31.759 C 170.223 31.682,170.157 31.720,170.178 31.858 C 170.237 32.257,169.964 33.164,169.813 33.071 C 169.730 33.020,169.667 34.836,169.667 37.240 C 169.667 39.969,169.727 41.500,169.833 41.500 C 169.925 41.500,170.000 41.646,170.000 41.823 C 170.000 42.001,170.081 42.197,170.180 42.258 C 170.279 42.320,170.317 42.540,170.265 42.749 C 170.180 43.090,170.506 43.583,170.817 43.583 C 170.872 43.583,170.903 43.624,170.887 43.673 C 170.871 43.722,170.999 43.762,171.172 43.762 C 171.476 43.762,171.476 43.752,171.162 43.459 C 170.612 42.947,170.266 42.167,170.589 42.167 C 170.735 42.167,170.803 42.087,170.742 41.987 C 170.670 41.871,170.799 41.827,171.107 41.862 L 171.583 41.917 171.616 44.722 C 171.652 47.887,171.691 48.000,172.745 48.000 L 173.450 48.000 173.552 49.684 C 173.670 51.619,173.745 51.757,174.755 51.909 C 175.489 52.019,175.500 52.030,175.500 52.663 C 175.500 53.728,175.598 53.833,176.593 53.833 L 177.483 53.833 177.533 54.792 L 177.583 55.750 178.542 55.800 L 179.500 55.850 179.500 56.755 C 179.500 57.746,179.529 57.771,180.833 57.872 C 181.390 57.915,181.419 57.948,181.467 58.612 C 181.538 59.582,181.769 59.706,183.673 59.798 L 185.333 59.878 185.333 60.693 C 185.333 61.877,184.918 61.833,196.140 61.833 C 207.407 61.833,206.833 61.900,206.833 60.593 L 206.833 59.872 208.481 59.806 C 210.382 59.730,210.605 59.609,210.761 58.570 C 210.869 57.847,210.883 57.833,211.505 57.833 C 212.563 57.833,212.667 57.735,212.667 56.732 L 212.667 55.833 213.566 55.833 C 214.584 55.833,214.667 55.739,214.667 54.570 L 214.667 53.833 215.375 53.831 C 216.511 53.827,216.566 53.737,216.639 51.779 L 216.703 50.041 217.559 49.895 C 218.562 49.725,218.615 49.604,218.647 47.394 L 218.667 46.038 219.425 45.924 C 220.612 45.746,220.583 45.959,220.583 37.250 C 220.582 28.564,220.607 28.753,219.447 28.579 L 218.710 28.469 218.592 26.859 C 218.455 24.984,218.269 24.667,217.308 24.667 L 216.667 24.667 216.667 23.746 C 216.667 22.721,216.416 22.500,215.259 22.500 L 214.706 22.500 214.638 20.934 C 214.546 18.825,214.250 18.595,211.696 18.647 L 210.808 18.666 210.860 18.124 C 210.889 17.827,211.025 17.492,211.164 17.380 C 211.385 17.202,211.379 17.177,211.115 17.172 C 210.949 17.169,210.855 17.100,210.906 17.017 C 211.042 16.798,210.579 16.667,209.669 16.667 L 208.865 16.667 208.750 15.834 C 208.608 14.803,208.739 14.870,206.611 14.732 L 204.833 14.618 204.833 14.007 C 204.833 12.824,205.096 12.873,198.333 12.792 C 194.987 12.752,191.162 12.763,189.833 12.818 M211.555 17.381 L 211.194 17.583 211.619 18.077 C 212.029 18.552,212.041 18.555,211.931 18.160 C 211.821 17.767,211.827 17.763,212.073 18.071 C 212.214 18.248,212.381 18.341,212.444 18.278 C 212.579 18.144,211.975 17.662,211.805 17.767 C 211.742 17.807,211.635 17.751,211.569 17.644 C 211.494 17.522,211.521 17.493,211.641 17.567 C 211.747 17.633,211.833 17.598,211.833 17.489 C 211.833 17.350,211.919 17.359,212.125 17.521 C 212.389 17.729,212.395 17.723,212.188 17.458 C 212.062 17.298,211.950 17.169,211.938 17.173 C 211.926 17.176,211.754 17.270,211.555 17.381 M178.082 19.334 C 177.656 19.805,177.838 19.849,178.286 19.383 C 178.489 19.173,178.594 19.000,178.520 19.000 C 178.446 19.000,178.249 19.150,178.082 19.334 M199.588 20.515 C 199.769 20.585,200.149 20.649,200.434 20.655 L 200.951 20.667 201.048 22.286 C 201.152 24.039,201.310 24.331,202.157 24.336 C 202.391 24.337,202.696 24.411,202.833 24.500 C 203.018 24.619,202.909 24.663,202.417 24.667 C 201.122 24.677,200.978 25.171,201.014 29.500 C 201.049 33.827,201.146 34.159,202.375 34.164 L 203.000 34.167 203.003 34.958 C 203.006 36.014,203.128 36.158,204.118 36.275 C 204.955 36.374,204.962 36.381,205.051 37.041 C 205.187 38.057,205.247 38.078,208.175 38.140 L 210.833 38.196 210.833 39.265 L 210.833 40.333 210.208 40.336 C 209.055 40.341,208.802 40.946,208.990 43.244 C 209.047 43.949,209.036 44.561,208.964 44.606 C 208.892 44.650,208.833 46.332,208.833 48.343 L 208.833 52.000 207.239 52.000 C 205.196 52.000,205.000 52.102,205.000 53.173 L 205.000 54.000 203.083 54.000 C 201.639 54.000,201.177 54.051,201.208 54.208 C 201.252 54.429,201.125 54.434,200.583 54.236 C 200.322 54.141,200.341 54.189,200.673 54.458 C 201.404 55.052,201.346 55.997,200.581 55.968 C 199.827 55.939,199.705 55.741,200.151 55.267 C 200.345 55.061,200.448 54.837,200.382 54.770 C 200.315 54.704,200.408 54.702,200.588 54.766 C 200.865 54.864,200.882 54.846,200.697 54.650 C 200.510 54.451,200.442 54.465,200.239 54.740 C 200.107 54.918,200.000 54.993,199.999 54.907 C 199.998 54.821,199.886 54.964,199.750 55.226 C 199.613 55.487,199.532 55.750,199.569 55.809 C 199.606 55.868,198.630 55.894,197.401 55.866 L 195.167 55.815 195.167 53.908 L 195.167 52.000 195.761 52.000 C 196.752 52.000,197.000 51.769,197.000 50.849 L 197.000 50.043 197.840 49.932 C 198.886 49.793,199.000 49.552,199.000 47.489 L 199.000 46.000 199.730 46.000 C 200.655 46.000,200.840 45.773,200.956 44.498 C 201.037 43.602,202.000 42.354,202.000 43.145 C 202.000 43.229,201.887 43.341,201.750 43.394 C 201.465 43.503,201.410 43.833,201.677 43.833 C 201.774 43.833,201.799 43.746,201.732 43.638 C 201.653 43.510,201.700 43.477,201.869 43.542 C 202.200 43.669,202.502 43.367,202.375 43.036 C 202.311 42.867,202.344 42.820,202.472 42.899 C 202.579 42.965,202.667 42.940,202.667 42.843 C 202.667 42.608,202.447 42.619,202.200 42.867 C 201.950 43.117,201.945 42.969,202.187 42.438 C 202.291 42.211,202.471 42.063,202.589 42.109 C 202.854 42.210,203.093 40.324,202.922 39.477 C 202.688 38.319,202.701 38.333,201.822 38.333 L 201.000 38.333 201.000 37.533 C 201.000 36.399,200.880 36.333,198.800 36.333 L 197.000 36.333 196.998 35.875 C 196.993 35.058,196.641 34.605,195.893 34.457 C 195.230 34.326,195.206 34.299,195.123 33.563 C 195.013 32.586,194.870 32.461,193.756 32.369 C 192.887 32.297,192.757 32.206,192.819 31.717 C 192.833 31.602,192.702 31.544,192.509 31.582 C 192.325 31.617,192.130 31.576,192.077 31.490 C 191.986 31.342,192.232 31.259,192.570 31.323 C 192.654 31.339,192.626 31.235,192.508 31.093 C 192.277 30.814,192.087 30.736,192.239 30.983 C 192.290 31.065,192.219 31.175,192.082 31.227 C 191.945 31.280,191.833 31.246,191.833 31.152 C 191.833 31.057,191.740 31.028,191.625 31.086 C 191.510 31.144,191.567 31.063,191.750 30.907 L 192.083 30.622 191.750 30.740 C 191.213 30.930,191.081 30.928,191.118 30.729 C 191.156 30.525,190.758 30.494,187.515 30.447 C 186.030 30.425,185.426 30.358,185.376 30.208 C 185.331 30.076,185.402 30.037,185.569 30.101 C 185.715 30.157,185.833 30.119,185.833 30.018 C 185.833 29.916,185.702 29.827,185.542 29.820 C 185.311 29.810,185.302 29.788,185.500 29.716 C 185.845 29.589,186.500 28.977,186.500 28.780 C 186.500 28.691,186.311 28.822,186.080 29.072 C 185.584 29.607,185.257 29.561,185.233 28.953 L 185.217 28.517 186.594 28.517 C 188.664 28.517,189.167 28.255,189.167 27.175 L 189.167 26.333 189.821 26.333 C 190.567 26.333,191.000 25.997,191.000 25.418 C 191.000 24.650,191.159 24.500,191.976 24.499 C 194.656 24.494,194.938 24.281,195.102 22.148 L 195.211 20.726 196.763 20.557 C 198.498 20.369,198.826 20.193,198.850 19.438 C 198.865 18.959,198.882 18.976,199.062 19.651 C 199.184 20.107,199.383 20.435,199.588 20.515 M179.500 20.036 C 179.500 20.655,179.488 20.667,178.869 20.667 C 178.354 20.667,178.238 20.607,178.238 20.341 C 178.238 20.162,178.272 20.050,178.314 20.092 C 178.421 20.199,179.006 19.645,178.925 19.513 C 178.888 19.454,179.002 19.405,179.179 19.405 C 179.439 19.405,179.500 19.524,179.500 20.036 M167.512 20.807 C 167.505 20.929,167.832 21.352,168.238 21.747 C 168.644 22.141,168.931 22.347,168.876 22.205 C 168.814 22.041,168.845 21.987,168.960 22.059 C 169.061 22.121,169.198 22.084,169.264 21.977 C 169.343 21.849,169.312 21.827,169.175 21.912 C 169.021 22.007,168.994 21.950,169.072 21.702 C 169.134 21.507,169.095 21.309,168.981 21.238 C 168.856 21.161,168.826 21.186,168.900 21.306 C 169.107 21.642,168.792 22.011,168.535 21.733 C 168.360 21.543,168.360 21.499,168.535 21.495 C 168.662 21.492,168.629 21.419,168.455 21.318 C 168.292 21.224,168.203 21.076,168.256 20.990 C 168.310 20.904,168.278 20.833,168.186 20.833 C 168.095 20.833,167.965 20.922,167.898 21.031 C 167.814 21.166,167.736 21.127,167.650 20.906 C 167.580 20.728,167.518 20.684,167.512 20.807 M101.217 21.042 C 101.107 21.188,101.264 21.448,101.747 21.917 C 102.126 22.283,102.375 22.512,102.301 22.425 C 102.117 22.207,102.132 21.959,102.322 22.076 C 102.407 22.129,102.531 22.084,102.598 21.977 C 102.677 21.849,102.646 21.827,102.508 21.912 C 102.355 22.007,102.327 21.950,102.406 21.702 C 102.467 21.507,102.429 21.309,102.314 21.238 C 102.189 21.161,102.159 21.186,102.233 21.306 C 102.441 21.642,102.125 22.011,101.868 21.733 C 101.693 21.543,101.693 21.499,101.868 21.495 C 101.995 21.492,101.962 21.419,101.788 21.318 C 101.626 21.224,101.536 21.076,101.590 20.990 C 101.735 20.755,101.398 20.802,101.217 21.042 M224.093 21.084 C 224.360 21.291,224.366 21.317,224.126 21.233 C 223.945 21.170,223.798 21.232,223.734 21.398 C 223.678 21.545,223.552 21.615,223.454 21.555 C 223.345 21.487,223.315 21.546,223.378 21.709 C 223.438 21.865,223.374 22.013,223.222 22.071 C 223.068 22.130,223.006 22.277,223.068 22.437 C 223.142 22.630,223.099 22.676,222.910 22.604 C 222.760 22.546,222.693 22.574,222.751 22.669 C 222.962 23.009,223.978 21.913,223.867 21.464 C 223.851 21.399,223.941 21.385,224.068 21.434 C 224.385 21.556,224.598 21.164,224.313 20.984 C 223.925 20.738,223.750 20.818,224.093 21.084 M232.547 21.042 C 232.434 21.189,232.568 21.427,233.006 21.854 C 233.593 22.427,233.625 22.438,233.625 22.069 C 233.625 21.856,233.551 21.696,233.460 21.715 C 233.369 21.734,233.272 21.619,233.245 21.458 C 233.187 21.115,233.341 21.085,233.667 21.375 C 233.866 21.553,233.868 21.540,233.677 21.288 C 233.531 21.096,233.337 21.029,233.122 21.097 C 232.903 21.167,232.830 21.140,232.906 21.018 C 233.063 20.763,232.745 20.784,232.547 21.042 M233.779 21.900 C 233.730 22.029,233.801 22.273,233.937 22.442 C 234.174 22.737,234.178 22.736,234.032 22.417 C 233.947 22.233,233.912 21.990,233.953 21.875 C 234.056 21.587,233.890 21.611,233.779 21.900 M92.482 23.375 C 92.282 23.581,92.181 23.637,92.257 23.500 C 92.378 23.285,92.358 23.282,92.117 23.477 C 91.963 23.602,91.883 23.779,91.940 23.871 C 91.996 23.962,91.942 24.100,91.818 24.176 C 91.694 24.253,91.636 24.359,91.689 24.412 C 91.775 24.497,93.167 23.226,93.167 23.064 C 93.167 22.880,92.802 23.045,92.482 23.375 M186.433 29.317 C 185.981 29.788,186.032 30.126,186.508 29.825 C 186.689 29.711,186.695 29.671,186.532 29.669 C 186.412 29.668,186.361 29.590,186.418 29.497 C 186.476 29.404,186.604 29.378,186.704 29.440 C 186.807 29.503,186.837 29.475,186.775 29.373 C 186.714 29.275,186.759 29.161,186.874 29.120 C 186.989 29.079,187.040 28.999,186.988 28.941 C 186.935 28.884,186.685 29.053,186.433 29.317 M171.602 31.819 C 171.584 32.564,171.042 32.973,170.734 32.475 C 170.684 32.394,170.574 32.371,170.488 32.424 C 170.258 32.566,170.310 32.294,170.583 31.934 C 170.715 31.760,170.782 31.552,170.732 31.471 C 170.683 31.391,170.704 31.336,170.779 31.349 C 171.095 31.404,171.347 31.324,171.267 31.194 C 171.220 31.118,171.280 31.056,171.401 31.056 C 171.555 31.056,171.616 31.288,171.602 31.819 M192.070 31.819 C 192.408 32.192,192.396 32.281,192.000 32.337 C 191.270 32.441,191.042 32.331,191.040 31.875 C 191.036 31.060,191.367 31.042,192.070 31.819 M386.073 32.708 C 386.124 32.869,386.210 33.131,386.264 33.292 C 386.354 33.564,386.345 33.564,386.117 33.287 C 385.892 33.013,385.864 33.012,385.766 33.269 C 385.707 33.422,385.698 33.587,385.746 33.635 C 385.794 33.683,385.833 33.626,385.833 33.507 C 385.833 33.335,385.883 33.334,386.083 33.500 C 386.221 33.614,386.333 33.659,386.333 33.600 C 386.333 33.541,386.540 33.615,386.792 33.766 C 387.245 34.037,387.246 34.036,386.894 33.728 C 386.698 33.557,386.412 33.192,386.258 32.917 C 386.105 32.642,386.021 32.548,386.073 32.708 M32.432 32.975 C 32.384 33.053,32.521 33.211,32.737 33.327 C 32.953 33.442,33.227 33.717,33.345 33.938 C 33.502 34.231,33.596 34.283,33.694 34.128 C 33.800 33.962,33.829 33.961,33.831 34.125 C 33.832 34.240,33.918 34.333,34.020 34.333 C 34.152 34.333,34.148 34.262,34.006 34.091 C 33.895 33.957,33.851 33.774,33.907 33.683 C 33.965 33.588,33.866 33.545,33.675 33.582 C 33.491 33.617,33.297 33.576,33.244 33.490 C 33.190 33.404,33.245 33.331,33.365 33.327 C 33.485 33.324,33.396 33.214,33.167 33.083 C 32.676 32.803,32.550 32.784,32.432 32.975 M178.096 34.171 C 178.318 34.256,178.725 34.280,179.000 34.225 L 179.500 34.125 179.500 34.959 C 179.500 36.024,179.661 36.147,181.275 36.318 C 181.994 36.394,182.417 36.466,182.214 36.478 C 181.629 36.513,181.500 37.005,181.500 39.202 C 181.500 41.659,181.643 42.000,182.676 42.000 L 183.333 42.000 183.333 42.718 C 183.333 43.698,183.609 44.016,184.552 44.122 L 185.333 44.210 185.333 45.699 C 185.333 47.576,185.430 47.759,186.494 47.900 L 187.333 48.011 187.319 50.631 C 187.309 52.401,187.258 53.092,187.159 52.764 C 186.951 52.068,186.769 52.005,184.958 52.003 L 183.333 52.000 183.333 51.264 C 183.333 50.095,183.251 50.000,182.232 50.000 L 181.333 50.000 181.332 48.792 C 181.331 46.635,181.062 46.175,179.797 46.169 L 179.344 46.167 179.297 44.292 C 179.266 43.035,179.189 42.428,179.066 42.450 C 178.964 42.469,178.796 42.200,178.692 41.852 C 178.588 41.505,178.333 41.077,178.126 40.902 C 177.753 40.586,177.752 40.586,178.030 40.917 C 178.475 41.447,178.691 42.154,178.506 42.472 C 178.408 42.640,178.341 42.667,178.338 42.538 C 178.335 42.405,178.181 42.354,177.924 42.401 L 177.515 42.475 177.529 37.863 C 177.537 35.326,177.577 33.423,177.618 33.634 C 177.659 33.845,177.874 34.087,178.096 34.171 M97.619 34.307 C 97.639 34.346,97.575 34.526,97.478 34.709 C 97.349 34.949,97.351 35.009,97.485 34.926 C 97.586 34.864,97.714 34.929,97.769 35.072 C 97.823 35.215,97.947 35.283,98.043 35.223 C 98.139 35.164,98.176 35.184,98.124 35.268 C 98.072 35.352,98.128 35.555,98.249 35.720 C 98.387 35.909,98.508 35.955,98.577 35.843 C 98.637 35.746,98.607 35.667,98.510 35.667 C 98.413 35.667,98.333 35.589,98.333 35.494 C 98.333 35.379,98.457 35.382,98.708 35.505 L 99.083 35.689 98.701 35.380 C 98.491 35.210,98.154 34.884,97.951 34.654 C 97.749 34.425,97.599 34.268,97.619 34.307 M109.232 37.235 C 109.462 37.427,109.786 37.735,109.951 37.920 C 110.115 38.105,110.194 38.184,110.125 38.095 C 109.949 37.867,109.969 37.628,110.155 37.743 C 110.240 37.796,110.365 37.751,110.431 37.644 C 110.510 37.516,110.479 37.493,110.341 37.578 C 110.188 37.673,110.160 37.616,110.239 37.368 C 110.301 37.173,110.262 36.976,110.148 36.905 C 110.028 36.831,109.992 36.853,110.058 36.959 C 110.261 37.287,109.992 37.701,109.723 37.477 C 109.530 37.318,109.526 37.253,109.700 37.142 C 109.819 37.067,109.842 36.998,109.750 36.989 C 109.658 36.980,109.410 36.953,109.198 36.930 L 108.812 36.888 109.232 37.235 M395.818 38.857 C 395.489 39.211,395.286 39.500,395.368 39.500 C 395.590 39.500,396.333 38.711,396.333 38.476 C 396.333 38.362,396.443 38.415,396.578 38.593 C 396.713 38.771,396.825 38.832,396.828 38.729 C 396.843 38.183,396.391 38.241,395.818 38.857 M396.189 39.224 C 396.086 39.347,396.043 39.487,396.092 39.536 C 396.141 39.585,395.983 39.625,395.742 39.625 C 395.501 39.625,395.179 39.751,395.027 39.905 C 394.727 40.208,395.176 40.132,395.599 39.809 C 395.699 39.732,395.830 39.718,395.889 39.778 C 396.011 39.899,396.667 39.361,396.667 39.141 C 396.667 38.926,396.397 38.973,396.189 39.224 M111.167 39.761 C 111.167 39.813,111.244 40.000,111.339 40.178 C 111.460 40.404,111.455 40.605,111.323 40.853 C 111.219 41.048,111.207 41.161,111.298 41.105 C 111.388 41.049,111.558 41.119,111.674 41.259 C 111.791 41.400,111.975 41.481,112.083 41.440 C 112.192 41.398,112.386 41.439,112.515 41.531 C 112.708 41.668,112.703 41.683,112.485 41.614 C 112.339 41.568,112.125 41.590,112.009 41.661 C 111.874 41.744,111.956 41.792,112.235 41.792 C 112.878 41.792,112.905 41.574,112.316 41.155 C 112.030 40.951,111.691 40.532,111.562 40.225 C 111.353 39.725,111.167 39.506,111.167 39.761 M178.759 40.985 C 178.639 41.180,178.823 41.667,179.018 41.667 C 179.100 41.667,179.167 41.592,179.167 41.500 C 179.167 41.408,179.084 41.333,178.982 41.333 C 178.881 41.333,178.841 41.221,178.894 41.083 C 178.999 40.809,178.909 40.743,178.759 40.985 M202.167 42.149 C 202.167 42.366,201.644 43.001,201.325 43.171 C 201.028 43.330,201.000 43.288,201.000 42.685 C 201.000 42.191,201.073 42.009,201.292 41.962 C 201.646 41.886,202.167 41.997,202.167 42.149 M27.306 42.646 C 27.483 42.758,27.472 42.808,27.250 42.893 C 26.868 43.040,26.797 43.027,26.917 42.833 C 26.973 42.742,26.953 42.667,26.871 42.667 C 26.495 42.667,26.570 42.905,27.091 43.362 L 27.657 43.860 27.714 45.971 L 27.772 48.083 27.761 45.813 C 27.752 44.061,27.798 43.560,27.958 43.622 C 28.073 43.666,28.167 43.615,28.167 43.508 C 28.167 43.401,28.097 43.357,28.012 43.410 C 27.926 43.462,27.809 43.428,27.750 43.333 C 27.691 43.239,27.579 43.201,27.500 43.250 C 27.421 43.299,27.302 43.251,27.236 43.144 C 27.160 43.022,27.187 42.993,27.308 43.067 C 27.413 43.133,27.500 43.098,27.500 42.989 C 27.500 42.849,27.584 42.857,27.792 43.018 C 28.029 43.202,28.024 43.175,27.766 42.872 C 27.591 42.667,27.366 42.501,27.266 42.503 C 27.164 42.504,27.181 42.567,27.306 42.646 M140.257 42.821 C 140.205 42.906,140.318 43.026,140.509 43.086 C 140.700 43.147,141.001 43.433,141.178 43.723 C 141.354 44.013,141.499 44.173,141.499 44.079 C 141.500 43.985,141.374 43.728,141.220 43.508 C 140.954 43.128,140.955 43.114,141.244 43.224 C 141.504 43.324,141.516 43.304,141.330 43.079 C 141.160 42.875,141.084 42.864,140.982 43.029 C 140.883 43.189,140.824 43.170,140.741 42.954 C 140.620 42.639,140.406 42.580,140.257 42.821 M141.647 43.375 C 141.610 43.760,141.693 44.082,141.872 44.250 C 141.996 44.366,142.010 44.316,141.919 44.083 C 141.847 43.900,141.794 43.619,141.801 43.458 C 141.814 43.128,141.677 43.054,141.647 43.375 M210.833 44.093 C 210.833 44.207,210.648 44.287,210.417 44.274 C 209.975 44.249,209.860 44.074,210.208 43.958 C 210.586 43.832,210.833 43.886,210.833 44.093 M307.333 44.320 C 307.333 44.404,307.289 44.610,307.234 44.778 C 307.177 44.954,307.195 45.013,307.276 44.917 C 307.505 44.646,307.885 44.626,307.783 44.890 C 307.734 45.020,307.777 45.210,307.880 45.313 C 308.090 45.523,307.830 45.576,307.574 45.375 C 307.486 45.306,307.513 45.362,307.634 45.500 C 307.829 45.721,307.878 45.718,308.061 45.470 C 308.191 45.296,308.352 45.242,308.488 45.326 C 308.658 45.431,308.637 45.501,308.395 45.642 C 308.224 45.742,308.158 45.824,308.250 45.826 C 308.866 45.835,308.845 45.511,308.186 44.853 C 307.480 44.147,307.333 44.055,307.333 44.320 M129.980 44.713 C 130.082 44.815,130.370 44.814,130.778 44.711 L 131.417 44.549 130.618 44.551 C 130.108 44.552,129.877 44.611,129.980 44.713 M272.124 44.681 C 271.963 44.775,271.738 44.803,271.624 44.745 C 271.510 44.686,271.604 44.790,271.833 44.976 C 272.062 45.161,272.400 45.502,272.584 45.733 C 272.832 46.044,272.983 46.112,273.168 45.993 C 273.456 45.808,273.071 45.437,272.778 45.618 C 272.693 45.670,272.661 45.609,272.707 45.482 C 272.752 45.354,272.675 45.119,272.536 44.958 C 272.389 44.790,272.359 44.667,272.465 44.667 C 272.565 44.667,272.765 44.833,272.907 45.037 C 273.050 45.241,273.167 45.327,273.167 45.230 C 273.167 45.060,272.635 44.494,272.487 44.505 C 272.448 44.508,272.285 44.587,272.124 44.681 M324.334 44.708 C 324.333 44.860,324.610 44.846,325.167 44.665 C 325.522 44.550,325.492 44.534,324.959 44.557 C 324.615 44.571,324.334 44.640,324.334 44.708 M364.290 44.681 C 364.129 44.775,363.904 44.795,363.790 44.726 C 363.676 44.657,363.883 44.897,364.250 45.259 C 364.617 45.621,364.943 45.856,364.975 45.783 C 365.007 45.709,365.136 45.784,365.262 45.949 C 365.475 46.231,365.490 46.232,365.495 45.958 C 365.500 45.692,365.310 45.587,364.943 45.652 C 364.865 45.666,364.837 45.581,364.879 45.464 C 364.922 45.346,364.842 45.119,364.702 44.958 C 364.412 44.625,364.647 44.560,365.000 44.875 C 365.199 45.052,365.201 45.040,365.013 44.792 C 364.760 44.457,364.692 44.447,364.290 44.681 M82.417 45.000 C 82.251 45.183,82.178 45.333,82.256 45.333 C 82.334 45.333,82.259 45.434,82.090 45.558 C 81.907 45.692,81.834 45.866,81.910 45.989 C 81.998 46.131,82.134 46.034,82.353 45.675 C 82.526 45.389,82.780 45.113,82.917 45.060 C 83.053 45.008,83.123 44.898,83.073 44.816 C 82.930 44.585,82.745 44.637,82.417 45.000 M142.615 46.782 C 143.518 47.631,143.455 48.712,142.464 49.407 C 142.260 49.550,142.170 49.667,142.265 49.667 C 143.551 49.667,143.711 47.143,142.467 46.485 C 142.182 46.334,142.219 46.410,142.615 46.782 M39.719 48.174 C 39.543 48.540,39.520 48.548,39.501 48.250 C 39.480 47.941,39.468 47.944,39.329 48.291 C 39.246 48.496,38.932 48.815,38.631 48.998 C 38.315 49.191,38.197 49.332,38.352 49.333 C 38.500 49.333,38.832 49.127,39.089 48.875 C 39.467 48.505,39.533 48.481,39.433 48.750 C 39.364 48.933,39.295 49.121,39.279 49.167 C 39.263 49.212,39.324 49.250,39.416 49.250 C 39.507 49.250,39.558 49.149,39.529 49.025 C 39.497 48.885,39.554 48.847,39.681 48.926 C 39.818 49.010,39.842 48.982,39.754 48.840 C 39.680 48.721,39.713 48.575,39.828 48.503 C 39.941 48.434,40.006 48.239,39.974 48.071 C 39.923 47.807,39.887 47.822,39.719 48.174 M27.940 48.449 C 27.758 48.631,27.822 48.778,28.083 48.778 C 28.221 48.778,28.333 48.720,28.333 48.649 C 28.333 48.461,28.064 48.324,27.940 48.449 M143.299 49.168 C 143.143 49.442,143.087 49.667,143.174 49.667 C 143.262 49.667,143.333 49.587,143.333 49.490 C 143.333 49.393,143.407 49.359,143.498 49.415 C 143.593 49.474,143.621 49.407,143.564 49.259 C 143.509 49.116,143.547 49.000,143.649 49.000 C 143.750 49.000,143.833 48.925,143.833 48.833 C 143.833 48.514,143.581 48.672,143.299 49.168 M38.407 49.578 C 38.229 49.713,38.173 49.825,38.282 49.828 C 38.391 49.831,38.525 49.762,38.579 49.674 C 38.633 49.586,38.800 49.562,38.949 49.619 C 39.131 49.689,39.181 49.659,39.101 49.528 C 38.942 49.272,38.798 49.282,38.407 49.578 M114.750 50.667 C 114.693 50.758,114.730 50.833,114.831 50.833 C 115.683 50.833,116.007 52.026,115.402 52.935 L 114.970 53.583 115.413 53.151 C 115.657 52.914,115.918 52.464,115.992 52.151 C 116.067 51.839,116.184 51.433,116.253 51.250 C 116.373 50.932,116.368 50.930,116.139 51.223 C 115.909 51.517,115.889 51.517,115.658 51.234 C 115.440 50.967,115.448 50.949,115.732 51.056 C 116.003 51.158,116.017 51.138,115.830 50.913 C 115.660 50.708,115.584 50.697,115.482 50.862 C 115.383 51.022,115.324 51.004,115.241 50.787 C 115.118 50.466,114.906 50.414,114.750 50.667 M27.838 51.250 C 27.838 51.639,28.117 51.869,28.231 51.573 C 28.291 51.415,28.302 51.246,28.254 51.198 C 28.206 51.150,28.166 51.217,28.164 51.347 C 28.162 51.542,28.133 51.539,28.000 51.333 C 27.911 51.196,27.838 51.158,27.838 51.250 M66.925 51.775 C 66.862 52.026,66.534 52.493,66.197 52.811 C 65.795 53.190,65.718 53.318,65.973 53.181 C 66.471 52.915,66.659 53.090,66.238 53.427 C 65.930 53.673,65.934 53.679,66.333 53.572 C 66.928 53.411,67.162 53.183,67.045 52.877 C 66.978 52.701,67.009 52.653,67.138 52.732 C 67.262 52.809,67.333 52.733,67.333 52.523 C 67.333 52.342,67.372 52.057,67.419 51.889 C 67.466 51.721,67.388 51.836,67.244 52.144 C 66.922 52.837,66.764 52.748,67.019 52.019 C 67.121 51.724,67.168 51.446,67.123 51.400 C 67.077 51.355,66.988 51.524,66.925 51.775 M116.110 52.288 C 116.050 52.652,116.084 52.979,116.190 53.079 C 116.318 53.200,116.339 53.145,116.262 52.889 C 116.202 52.690,116.231 52.480,116.327 52.421 C 116.536 52.291,116.560 51.667,116.355 51.667 C 116.275 51.667,116.165 51.946,116.110 52.288 M27.667 51.994 C 27.667 52.113,27.385 52.481,27.042 52.811 C 26.676 53.163,26.587 53.302,26.828 53.148 C 27.345 52.815,27.931 52.042,27.781 51.892 C 27.718 51.829,27.667 51.875,27.667 51.994 M42.444 51.944 C 42.383 52.006,42.334 52.137,42.336 52.236 C 42.337 52.335,42.411 52.304,42.500 52.167 C 42.635 51.958,42.662 51.971,42.664 52.242 C 42.666 52.480,42.716 52.517,42.852 52.381 C 42.954 52.279,42.987 52.114,42.926 52.015 C 42.799 51.809,42.608 51.781,42.444 51.944 M27.414 53.003 C 27.057 53.368,26.856 53.667,26.966 53.667 C 27.076 53.667,27.167 53.587,27.167 53.490 C 27.167 53.393,27.242 53.360,27.333 53.417 C 27.425 53.473,27.500 53.403,27.500 53.260 C 27.500 53.117,27.579 53.000,27.677 53.000 C 27.774 53.000,27.799 53.087,27.734 53.192 C 27.658 53.315,27.689 53.339,27.819 53.259 C 27.931 53.190,27.984 53.033,27.937 52.911 C 27.890 52.788,27.942 52.656,28.051 52.617 C 28.160 52.578,28.208 52.499,28.156 52.443 C 28.104 52.386,27.770 52.638,27.414 53.003 M42.871 52.735 C 42.719 53.067,42.737 53.182,42.968 53.362 C 43.222 53.561,43.227 53.554,43.021 53.292 C 42.859 53.085,42.850 53.000,42.989 53.000 C 43.098 53.000,43.133 52.913,43.067 52.808 C 42.993 52.687,43.022 52.660,43.144 52.736 C 43.251 52.802,43.307 52.908,43.267 52.972 C 43.162 53.142,43.644 53.745,43.778 53.611 C 43.841 53.548,43.748 53.387,43.571 53.254 C 43.188 52.964,43.375 52.924,43.886 53.187 C 44.086 53.290,44.175 53.308,44.083 53.226 C 43.992 53.145,43.723 52.909,43.486 52.703 L 43.056 52.328 42.871 52.735 M84.413 54.178 C 84.353 54.368,84.067 54.668,83.777 54.844 C 83.449 55.044,83.355 55.166,83.527 55.166 C 83.805 55.167,84.667 54.275,84.667 53.987 C 84.667 53.716,84.526 53.822,84.413 54.178 M133.422 54.150 C 133.362 54.338,133.120 54.643,132.884 54.829 C 132.648 55.015,132.521 55.164,132.603 55.161 C 132.983 55.148,133.818 54.096,133.612 53.890 C 133.567 53.845,133.482 53.962,133.422 54.150 M133.764 54.306 C 133.550 54.720,133.550 54.778,133.765 54.778 C 133.899 54.778,133.980 54.697,133.944 54.597 C 133.908 54.498,133.946 54.285,134.028 54.125 C 134.111 53.965,134.140 53.833,134.093 53.833 C 134.047 53.833,133.899 54.046,133.764 54.306 M391.745 54.008 C 391.672 54.126,391.734 54.275,391.893 54.364 C 392.044 54.448,392.167 54.592,392.167 54.685 C 392.167 54.777,392.073 54.798,391.958 54.731 C 391.844 54.664,391.881 54.760,392.042 54.943 C 392.203 55.127,392.278 55.339,392.209 55.415 C 392.140 55.491,392.181 55.497,392.300 55.429 C 392.467 55.332,392.471 55.250,392.321 55.068 C 392.077 54.775,392.320 54.770,392.703 55.061 C 392.920 55.226,392.942 55.325,392.794 55.472 C 392.541 55.726,392.750 55.721,393.161 55.465 C 393.467 55.274,393.458 55.252,392.995 55.058 C 392.726 54.945,392.363 54.617,392.188 54.329 C 391.972 53.973,391.830 53.870,391.745 54.008 M81.905 54.401 C 82.199 54.870,82.199 54.881,81.901 54.767 C 81.732 54.702,81.654 54.709,81.727 54.783 C 81.801 54.856,82.024 54.925,82.222 54.935 C 82.421 54.945,82.733 55.007,82.917 55.072 L 83.250 55.192 82.917 54.990 C 82.733 54.879,82.363 54.593,82.093 54.353 L 81.603 53.917 81.905 54.401 M84.729 54.375 C 84.659 54.581,84.619 54.843,84.641 54.956 C 84.663 55.073,84.577 55.122,84.440 55.069 C 84.158 54.961,83.917 55.262,84.164 55.415 C 84.257 55.473,84.333 55.440,84.333 55.343 C 84.333 55.246,84.427 55.185,84.542 55.208 C 84.656 55.231,84.740 55.119,84.727 54.958 C 84.714 54.798,84.754 54.667,84.816 54.667 C 84.878 54.667,84.940 54.517,84.954 54.333 C 84.987 53.892,84.886 53.911,84.729 54.375 M111.703 54.708 C 111.961 54.960,112.298 55.167,112.451 55.167 C 112.692 55.167,112.686 55.200,112.407 55.411 C 112.229 55.546,112.162 55.658,112.258 55.661 C 112.355 55.664,112.515 55.585,112.615 55.485 C 112.745 55.355,112.827 55.355,112.908 55.485 C 113.048 55.713,113.333 55.723,113.333 55.500 C 113.333 55.408,113.202 55.330,113.042 55.327 C 112.861 55.323,112.941 55.236,113.250 55.100 C 113.525 54.978,113.899 54.700,114.082 54.481 L 114.414 54.083 113.999 54.448 C 113.149 55.195,112.414 55.220,111.575 54.531 C 111.388 54.376,111.445 54.456,111.703 54.708 M111.306 54.887 C 111.506 55.100,111.613 55.337,111.543 55.414 C 111.474 55.491,111.516 55.496,111.638 55.426 C 111.840 55.309,111.305 54.500,111.025 54.500 C 110.979 54.500,111.106 54.674,111.306 54.887 M114.038 54.993 C 113.816 55.179,113.730 55.353,113.830 55.414 C 113.923 55.472,114.000 55.436,114.000 55.333 C 114.000 55.231,114.094 55.201,114.208 55.267 C 114.323 55.333,114.361 55.325,114.293 55.250 C 114.225 55.175,114.253 55.013,114.355 54.890 C 114.614 54.579,114.485 54.620,114.038 54.993 M133.180 55.302 C 133.188 55.477,133.225 55.504,133.277 55.374 C 133.324 55.259,133.425 55.204,133.503 55.252 C 133.580 55.300,133.681 55.278,133.727 55.204 C 133.773 55.130,133.665 55.058,133.488 55.045 C 133.284 55.030,133.171 55.123,133.180 55.302 M82.750 55.500 C 82.693 55.592,82.759 55.667,82.897 55.667 C 83.034 55.667,83.193 55.592,83.250 55.500 C 83.307 55.408,83.241 55.333,83.103 55.333 C 82.966 55.333,82.807 55.408,82.750 55.500 " stroke="none" fill="#44bcb4" fill-rule="evenodd"></path><path id="path2" d="" stroke="none" fill="#100dcd8" fill-rule="evenodd"></path><path id="path3" d="" stroke="none" fill="#100dcd8" fill-rule="evenodd"></path><path id="path4" d="" stroke="none" fill="#100dcd8" fill-rule="evenodd"></path><path id="path5" d="" stroke="none" fill="#100dcd8" fill-rule="evenodd"></path><path id="path6" d="" stroke="none" fill="#100dcd8" fill-rule="evenodd"></path><path id="path7" d="" stroke="none" fill="#100dcd8" fill-rule="evenodd"></path><path id="path8" d="" stroke="none" fill="#100dcd8" fill-rule="evenodd"></path></g></svg>