<?xml version="1.0" encoding="utf-8"?>
<!-- Generator: Adobe Illustrator 24.1.2, SVG Export Plug-In . SVG Version: 6.00 Build 0)  -->
<svg version="1.1" id="Layer_1" xmlns="http://www.w3.org/2000/svg" xmlns:xlink="http://www.w3.org/1999/xlink" x="0px" y="0px"
	 viewBox="0 0 395.34 108" style="enable-background:new 0 0 395.34 108;" xml:space="preserve">
<style type="text/css">
	.st0{fill:#1896A4;}
	.st1{fill:#FFFFFF;}
</style>
<g>
	<g>
		<circle class="st0" cx="54" cy="54" r="54"/>
		<g>
			<g>
				<path class="st1" d="M60.75,70.88c-2.06,0.82-4.29,1.29-6.64,1.29c-9.88,0-17.89-8.01-17.89-17.89c0-0.73,0.06-1.45,0.14-2.16
					l-18.02-2.93C18.12,50.76,18,52.37,18,54c0,19.88,16.12,36,36,36c6.97,0,13.47-1.99,18.98-5.42L60.75,70.88z"/>
			</g>
			<path class="st1" d="M70.94,48.18L47,53.46l42.05,8.74C89.66,59.56,90,56.82,90,54c0-19.88-16.12-36-36-36
				c-7.98,0-15.34,2.6-21.31,6.99l12.44,13.82c2.64-1.54,5.7-2.43,8.98-2.43C61.85,36.38,68.45,41.3,70.94,48.18"/>
		</g>
	</g>
	<g>
		<polygon class="st1" points="136.23,16.99 136.23,91.01 154.17,91.01 154.17,49.58 169.58,78.88 178.93,78.88 195.09,49.58 
			195.09,91.01 212.78,91.01 212.78,16.99 195.09,16.99 174.51,54.36 154.93,16.99 		"/>
		<polygon class="st1" points="224.75,16.99 277.71,16.99 277.71,32.15 242.08,32.15 242.08,45.6 272.78,45.6 272.78,60.09 
			242.18,60.09 242.18,74.87 278.56,74.87 278.56,91.01 224.75,91.01 		"/>
		<polygon class="st1" points="284.27,16.99 301.95,16.99 326.33,67.64 332.64,54 315.21,16.99 331.88,16.99 339.72,32.91 
			345.78,16.99 364.98,16.99 349.82,54.36 356.39,67.64 375.72,16.99 395.34,16.99 364.47,91.01 349.95,91.01 341.74,73.07 
			334.66,91.01 319.64,91.01 		"/>
	</g>
</g>
</svg>
