<?xml version="1.0" encoding="UTF-8"?>
<svg width="19px" height="18px" viewBox="0 0 19 18" version="1.1" xmlns="http://www.w3.org/2000/svg" xmlns:xlink="http://www.w3.org/1999/xlink">
    <!-- Generator: Sketch 51.2 (57519) - http://www.bohemiancoding.com/sketch -->
    <title>Shape</title>
    <desc>Created with Sketch.</desc>
    <defs></defs>
    <g id="Desktop" stroke="none" stroke-width="1" fill="none" fill-rule="evenodd">
        <g id="FAQs-2" transform="translate(-423.000000, -256.000000)" fill="#003945" fill-rule="nonzero">
            <g id="Group-9" transform="translate(404.000000, 154.000000)">
                <g id="Group" transform="translate(0.000000, 83.000000)">
                    <g id="Search" transform="translate(19.000000, 19.000000)">
                        <path d="M17.8896226,15.96 L13.2529245,11.364 C14.1351709,10.1501553 14.6077645,8.69338273 14.6037736,7.2 C14.6037736,3.228 11.3300943,0 7.30188679,0 C3.27367925,0 0,3.228 0,7.2 C0,11.172 3.27367925,14.4 7.30188679,14.4 C8.88396226,14.4 10.32,13.908 11.5248113,13.068 L16.1858491,17.64 C16.4170755,17.88 16.7334906,18 17.0377358,18 C17.3419811,18 17.670566,17.892 17.8896226,17.64 C18.1174757,17.4157865 18.2455215,17.1114114 18.2455215,16.794 C18.2455215,16.4765886 18.1174757,16.1722135 17.8896226,15.948 L17.8896226,15.96 Z M7.30188679,12.84 C4.14990566,12.84 1.58207547,10.308 1.58207547,7.2 C1.58207547,4.092 4.14990566,1.56 7.30188679,1.56 C10.4538679,1.56 13.0216981,4.092 13.0216981,7.2 C13.0216981,10.308 10.4538679,12.84 7.30188679,12.84 Z" id="Shape"></path>
                    </g>
                </g>
            </g>
        </g>
    </g>
</svg>