<?xml version="1.0" encoding="UTF-8"?>
<svg width="67px" height="67px" viewBox="0 0 67 67" version="1.1" xmlns="http://www.w3.org/2000/svg" xmlns:xlink="http://www.w3.org/1999/xlink">
    <!-- Generator: Sketch 49.2 (51160) - http://www.bohemiancoding.com/sketch -->
    <title>040-cloud-computing</title>
    <desc>Created with Sketch.</desc>
    <defs></defs>
    <g id="Desktop" stroke="none" stroke-width="1" fill="none" fill-rule="evenodd">
        <g id="create-wallet-(JSON)2" transform="translate(-834.000000, -428.000000)" fill="#05C0A5" fill-rule="nonzero" stroke="#FFFFFF" stroke-width="0.4">
            <g id="Group-8" transform="translate(470.000000, 254.000000)">
                <g id="Group-9" transform="translate(45.000000, 175.000000)">
                    <g id="Group-4" transform="translate(301.000000, 0.000000)">
                        <g id="040-cloud-computing" transform="translate(19.000000, 0.000000)">
                            <path d="M28.246061,39.18953 L24.8242788,42.964616 L33.9141505,51.7541023 L50.9166667,32.4265668 L47.2111233,28.9489627 L43.8852216,32.729608 C43.657036,32.6515206 43.4217157,32.5881715 43.1791356,32.5431808 L43.1790104,32.5431808 C40.1617788,31.9829942 37.2903707,30.1471647 36.1958811,29.3837441 C35.0542022,28.5874853 33.725644,28.1666667 32.3537768,28.1666667 C30.9819096,28.1666667 29.6533514,28.5874853 28.5115474,29.3837441 C27.4171829,30.1470354 24.5457748,31.9828649 21.528418,32.5431808 C19.0976096,32.994769 17.3333333,35.1725541 17.3333333,37.7215128 L17.3333333,45.7883028 C17.3333333,57.9350299 30.7616098,64.2659268 31.333388,64.5294071 L32.3537768,65 L33.3741656,64.5294071 C33.9458186,64.2659268 47.3742202,57.9350299 47.3742202,45.7883028 L47.3742202,44.0102631 L40.4887238,51.9516479 C38.1405278,55.6989379 34.205422,58.2255306 32.3540271,59.2684627 C29.6161758,57.7261074 22.3401478,52.9523042 22.3401478,45.7883028 L22.3401478,37.7215128 C22.3401478,37.6775563 22.3708146,37.6410983 22.414499,37.6329534 C26.2281896,36.924737 29.6269405,34.8457247 31.3133607,33.6696302 C31.6244091,33.4526921 31.9841487,33.3381467 32.353902,33.3381467 C32.7236552,33.3381467 33.0832697,33.4528214 33.394318,33.6696302 C34.7446559,34.6113332 37.1931133,36.1313225 40.0729079,37.0634584 L33.6262587,44.3916503 L28.246061,39.18953 Z" id="Shape"></path>
                            <path d="M52.9320898,20.2873949 C52.6393359,9.05007586 43.5293066,0 32.3730469,0 C27.2501074,0 22.3415918,1.92101152 18.5517871,5.40904551 C15.2861719,8.41441393 13.0794727,12.365426 12.2154297,16.6941036 C9.12818359,17.366953 6.31020508,18.9854461 4.13016602,21.3677628 C1.46681641,24.2782967 0,28.0685918 0,32.0404494 C0,39.5487234 5.22780273,45.8410044 12.1875,47.3781739 L12.1875,42.042474 C8.06114258,40.6404149 5.078125,36.6890168 5.078125,32.0404494 C5.078125,26.5783892 9.27976562,21.958774 14.6435352,21.5235901 L16.750957,21.352579 L16.9667773,19.2209241 C17.7790234,11.197558 24.4022949,5.14706015 32.3730469,5.14706015 C40.9133105,5.14706015 47.8613281,12.1893965 47.8613281,20.8455936 L47.8613281,25.3492712 L51.4160156,25.3492712 C56.1061719,25.3492712 59.921875,29.2167722 59.921875,33.970597 C59.921875,38.2422709 56.8403418,41.7963159 52.8125,42.4737977 L52.8125,47.6666667 C59.6491797,46.955729 65,41.0847348 65,33.970597 C65,26.8981503 59.7115137,21.0540495 52.9320898,20.2873949 Z" id="Shape"></path>
                        </g>
                    </g>
                </g>
            </g>
        </g>
    </g>
</svg>