<?xml version="1.0" encoding="UTF-8"?>
<svg width="96px" height="96px" viewBox="0 0 96 96" version="1.1" xmlns="http://www.w3.org/2000/svg" xmlns:xlink="http://www.w3.org/1999/xlink">
    <!-- Generator: Sketch 51.2 (57519) - http://www.bohemiancoding.com/sketch -->
    <title>Group 49</title>
    <desc>Created with Sketch.</desc>
    <defs></defs>
    <g id="Style-guideline" stroke="none" stroke-width="1" fill="none" fill-rule="evenodd">
        <g id="style-guideline" transform="translate(-1148.000000, -11082.000000)">
            <g id="Group-52" transform="translate(113.000000, 10893.000000)">
                <g id="Group-50" transform="translate(7.000000, 0.000000)">
                    <g id="Group-51" transform="translate(1028.000000, 5.000000)">
                        <g id="safe" transform="translate(9.000000, 195.000000)">
                            <g>
                                <g id="040-cloud-computing" fill="#003945" fill-rule="nonzero">
                                    <path d="M62.704168,24.0327601 C62.3573672,10.7208591 51.5654863,0 38.3496094,0 C32.2808965,0 26.4661934,2.2756598 21.9767324,6.40763853 C18.1082344,9.96784419 15.4941445,14.6482738 14.4705859,19.7760919 C10.8133867,20.5731597 7.47516602,22.4904515 4.8926582,25.3125806 C1.73761328,28.7604438 0,33.2504856 0,37.9556093 C0,46.8500262 6.19293555,54.3039591 14.4375,56.1249138 L14.4375,49.8041616 C9.54935352,48.1432607 6.015625,43.4623737 6.015625,37.9556093 C6.015625,31.4851687 10.9929531,26.0127015 17.346957,25.497176 L19.8434414,25.2945936 L20.0991055,22.7694023 C21.0613047,13.2647995 28.907334,6.09728664 38.3496094,6.09728664 C48.4665371,6.09728664 56.6972656,14.4397466 56.6972656,24.6940109 L56.6972656,30.0291367 L60.9082031,30.0291367 C66.4642344,30.0291367 70.984375,34.6106379 70.984375,40.2420918 C70.984375,45.3023824 67.3339434,49.5125588 62.5625,50.3151142 L62.5625,56.4666667 C70.6613359,55.624479 77,48.6696089 77,40.2420918 C77,31.8639627 70.7351777,24.940951 62.704168,24.0327601 Z" id="Shape"></path>
                                </g>
                                <g id="Group-2" transform="translate(21.323077, 31.800000)">
                                    <polygon id="Path-2" fill="#05C0A5" points="3.40067939 10.9333092 4.94415938 8.13317863 13.2770617 4.0743729 17.3372172 4.0743729 24.3662264 5.81424672 30.0252032 9.6314408 30.0252032 22.8944355 27.3006606 28.1457769 23.3113689 33.5293974 18.6303119 36.1182864 15.6655075 36.1182864 7.63428237 29.4233491 3.40067939 21.492683"></polygon>
                                    <path d="M28.5372859,4.76265122 C25.2057131,4.16922829 22.0352874,2.2244774 20.8266836,1.41576233 C19.5661146,0.572397826 18.0992054,0.126611618 16.5846154,0.126611618 C15.0700254,0.126611618 13.6031162,0.572397826 12.3422708,1.41589929 C11.1339433,2.2244774 7.96351769,4.16922829 4.63194487,4.76278818 C1.94800128,5.24116951 0,7.54816449 0,10.2483552 L0,18.793755 C0,31.6611582 14.8266462,38.3676727 15.4579672,38.6467855 L16.5846154,39.1452991 L17.7112636,38.6467855 C18.3424464,38.3676727 33.1692308,31.6611582 33.1692308,18.793755 L33.1692308,10.2483552 C33.1690926,7.54789058 31.2212295,5.24103255 28.5372859,4.76265122 Z M27.6410256,18.793618 C27.6408874,26.3841725 19.6035682,31.4418944 16.5847536,33.0735677 C13.5617928,31.4397031 5.52806692,26.382666 5.52806692,18.793618 L5.52806692,10.2482183 C5.52806692,10.2016538 5.56192718,10.1630327 5.61016077,10.1544046 C9.82099462,9.404169 13.5736785,7.20180709 15.4355779,5.95607089 C15.7791559,5.72612464 16.1764956,5.60478314 16.5844772,5.60478314 C16.9924587,5.60478314 17.3897985,5.72626159 17.7332382,5.95593393 C19.5954141,7.20194405 23.3480979,9.40430595 27.5589318,10.1544046 C27.6073036,10.1630327 27.6410256,10.2016538 27.6410256,10.2482183 L27.6410256,18.793618 Z" id="Shape" fill="#003945" fill-rule="nonzero"></path>
                                </g>
                            </g>
                        </g>
                    </g>
                </g>
            </g>
        </g>
    </g>
</svg>