<svg width="220" height="220" viewBox="0 0 220 220" fill="none" xmlns="http://www.w3.org/2000/svg">
<rect width="220" height="220" fill="white"/>
<path d="M109.632 189.632C153.814 189.632 189.632 153.814 189.632 109.632C189.632 65.4488 153.814 29.6316 109.632 29.6316C65.4488 29.6316 29.6316 65.4488 29.6316 109.632C29.6316 153.814 65.4488 189.632 109.632 189.632Z" fill="#1896A4"/>
<path d="M113.75 136.246C110.503 136.743 107.127 136.678 103.735 135.895C89.4732 132.603 80.5801 118.371 83.8727 104.109C84.116 103.055 84.4426 102.036 84.7947 101.037L59.7591 90.8026C58.9153 93.0318 58.2207 95.3146 57.6797 97.636C51.0545 126.333 68.9517 154.975 97.6487 161.6C107.71 163.923 117.756 163.216 126.853 160.101L113.75 136.246ZM136.024 106.874L99.7071 106.518L157.494 133.148C159.251 129.554 160.658 125.698 161.598 121.627C168.223 92.9304 150.326 64.2888 121.629 57.6636C110.11 55.0042 98.6191 56.3045 88.5384 60.652L101.89 84.7471C106.353 83.354 111.108 83.1762 115.663 84.232C126.835 86.8114 134.723 96.113 136.024 106.874Z" fill="white"/>
</svg>
