<?xml version="1.0" encoding="UTF-8"?>
<svg width="71px" height="71px" viewBox="0 0 71 71" version="1.1" xmlns="http://www.w3.org/2000/svg" xmlns:xlink="http://www.w3.org/1999/xlink">
    <!-- Generator: Sketch 51 (57462) - http://www.bohemiancoding.com/sketch -->
    <title>mew connect</title>
    <desc>Created with Sketch.</desc>
    <defs></defs>
    <g id="Desktop" stroke="none" stroke-width="1" fill="none" fill-rule="evenodd">
        <g id="Optionals" transform="translate(-361.000000, -299.000000)">
            <rect fill="#FFFFFF" x="0" y="0" width="1440" height="1880"></rect>
            <g id="Group-9" transform="translate(300.000000, 261.000000)">
                <g id="mewconnect-disable" transform="translate(62.000000, 38.000000)">
                    <g id="mew-connect">
                        <g id="Group-8" transform="translate(11.234568, 0.000000)" fill="#CECECE">
                            <circle id="Oval" cx="3.02469136" cy="3.02469136" r="3.02469136"></circle>
                            <circle id="Oval" cx="10.8024691" cy="7.34567901" r="3.02469136"></circle>
                            <circle id="Oval" cx="18.5802469" cy="11.6666667" r="3.02469136"></circle>
                        </g>
                        <g id="Group-7" transform="translate(0.000000, 0.864198)">
                            <g id="box" transform="translate(24.057197, 0.630069)">
                                <polygon id="Path-2" fill="#FFFFFF" points="3.40432036 13.5216097 16.3407377 21.0942592 16.3407377 36.5083461 3.40432036 29.2270643"></polygon>
                                <polygon id="Path-2" fill="#FFFFFF" transform="translate(26.213267, 25.353018) scale(-1, 1) translate(-26.213267, -25.353018) " points="19.7450581 13.5216097 32.6814755 21.2868894 32.6814755 37.1844266 19.7450581 29.5743617"></polygon>
                                <g id="package-(1)-copy-3" fill-rule="nonzero">
                                    <polygon id="Shape" fill="#00FFB0" points="17.7695207 20.3455154 26.0888218 15.5216135 33.8987779 10.99323 17.7695207 1.64963638 9.95956454 6.1780199 1.64026345 10.99323"></polygon>
                                    <path d="M36.0814999,10.9207925 C36.0789223,10.7790254 36.0617386,10.6389767 36.0256528,10.5058015 C36.0101875,10.4482355 35.9792568,10.397543 35.9577772,10.3425546 C35.9251281,10.2583535 35.8984934,10.172434 35.8538157,10.0942473 C35.822885,10.0401181 35.7782074,9.99629916 35.7412624,9.94646588 C35.6897113,9.87687112 35.6441744,9.80298039 35.5823131,9.74111838 C35.5384946,9.69729945 35.4826475,9.66550926 35.4345331,9.62598631 C35.3683758,9.57271624 35.3073737,9.51343182 35.2326245,9.4696129 C35.2291878,9.46789451 35.2248918,9.46703531 35.2214551,9.46531692 C35.2180183,9.46359853 35.2163,9.46102095 35.2128632,9.45930256 L18.8883366,0.22296099 C18.3633741,-0.0743203298 17.7207033,-0.0743203298 17.1957409,0.22296099 L9.29466998,4.69764628 C9.2938108,4.69764628 9.29295161,4.69850548 9.29209242,4.69850548 L0.872073399,9.45844337 C0.868636657,9.46016175 0.8660591,9.46359853 0.863481543,9.46531692 C0.8600448,9.46703531 0.855748872,9.46789451 0.853171315,9.4696129 C0.780140538,9.51171343 0.721715916,9.57013866 0.657276995,9.62169033 C0.606585044,9.66207248 0.549019608,9.69472187 0.504341956,9.74025918 C0.44076222,9.80383958 0.393507012,9.87858951 0.341096689,9.95076185 C0.305870079,9.99887675 0.262051613,10.0418365 0.232839302,10.0933881 C0.183865722,10.1775892 0.153794225,10.2712414 0.120285986,10.362316 C0.102243088,10.4104309 0.0747491485,10.4551091 0.0610021786,10.5049423 C0.0257755684,10.6338215 0.011169413,10.7678559 0.00773267053,10.9044678 C0.0060142993,10.9207925 0,10.936258 0,10.9534419 L0,30.2853196 C0,30.9047989 0.333364019,31.4761633 0.872073399,31.7811774 L17.1966001,41.0175189 C17.284237,41.066493 17.3778882,41.0957056 17.4706803,41.128355 C17.5153579,41.1446797 17.557458,41.1704556 17.6038541,41.1824843 C17.7473381,41.221148 17.895118,41.2409095 18.0428979,41.2409095 C18.1906778,41.2409095 18.3384578,41.221148 18.4819418,41.1833435 C18.5274786,41.1713147 18.5695787,41.1455389 18.6151155,41.1292142 C18.7079076,41.0965648 18.8015588,41.0673522 18.8891957,41.0183781 L35.2137224,31.7820365 C35.7524318,31.4770225 36.0857958,30.9056581 36.0857958,30.2861788 L36.0857958,10.9543011 C36.0857958,10.9422724 36.0814999,10.931962 36.0814999,10.9207925 Z M3.43674246,13.9021977 L16.3245267,21.2010555 L16.3245267,36.575483 L3.43674246,29.2834988 L3.43674246,13.9021977 Z M32.6490534,29.2834988 L19.7612691,36.575483 L19.7612691,21.2010555 L32.6490534,13.9021977 L32.6490534,29.2834988 Z" id="Shape" stroke="#999999" fill="#999999"></path>
                                    <polygon id="Shape" fill="#E0E0E0" points="18.3764575 16.9505667 30.7386157 10.1727577 18.330749 3.1914601 6.0142993 10.2425636"></polygon>
                                </g>
                            </g>
                            <g id="box" transform="translate(0.000000, 14.262481)">
                                <polygon id="Path-2" fill="#FFFFFF" points="3.40432036 13.5216097 16.3407377 21.0942592 16.3407377 36.5083461 3.40432036 29.2270643"></polygon>
                                <polygon id="Path-2" fill="#FFFFFF" transform="translate(26.213267, 25.353018) scale(-1, 1) translate(-26.213267, -25.353018) " points="19.7450581 13.5216097 32.6814755 21.2868894 32.6814755 37.1844266 19.7450581 29.5743617"></polygon>
                                <g id="package-(1)-copy-3" fill-rule="nonzero">
                                    <polygon id="Shape" fill="#00FFB0" points="17.7695207 20.3455154 26.0888218 15.5216135 33.8987779 10.99323 17.7695207 1.64963638 9.95956454 6.1780199 1.64026345 10.99323"></polygon>
                                    <path d="M36.0814999,10.9207925 C36.0789223,10.7790254 36.0617386,10.6389767 36.0256528,10.5058015 C36.0101875,10.4482355 35.9792568,10.397543 35.9577772,10.3425546 C35.9251281,10.2583535 35.8984934,10.172434 35.8538157,10.0942473 C35.822885,10.0401181 35.7782074,9.99629916 35.7412624,9.94646588 C35.6897113,9.87687112 35.6441744,9.80298039 35.5823131,9.74111838 C35.5384946,9.69729945 35.4826475,9.66550926 35.4345331,9.62598631 C35.3683758,9.57271624 35.3073737,9.51343182 35.2326245,9.4696129 C35.2291878,9.46789451 35.2248918,9.46703531 35.2214551,9.46531692 C35.2180183,9.46359853 35.2163,9.46102095 35.2128632,9.45930256 L18.8883366,0.22296099 C18.3633741,-0.0743203298 17.7207033,-0.0743203298 17.1957409,0.22296099 L9.29466998,4.69764628 C9.2938108,4.69764628 9.29295161,4.69850548 9.29209242,4.69850548 L0.872073399,9.45844337 C0.868636657,9.46016175 0.8660591,9.46359853 0.863481543,9.46531692 C0.8600448,9.46703531 0.855748872,9.46789451 0.853171315,9.4696129 C0.780140538,9.51171343 0.721715916,9.57013866 0.657276995,9.62169033 C0.606585044,9.66207248 0.549019608,9.69472187 0.504341956,9.74025918 C0.44076222,9.80383958 0.393507012,9.87858951 0.341096689,9.95076185 C0.305870079,9.99887675 0.262051613,10.0418365 0.232839302,10.0933881 C0.183865722,10.1775892 0.153794225,10.2712414 0.120285986,10.362316 C0.102243088,10.4104309 0.0747491485,10.4551091 0.0610021786,10.5049423 C0.0257755684,10.6338215 0.011169413,10.7678559 0.00773267053,10.9044678 C0.0060142993,10.9207925 0,10.936258 0,10.9534419 L0,30.2853196 C0,30.9047989 0.333364019,31.4761633 0.872073399,31.7811774 L17.1966001,41.0175189 C17.284237,41.066493 17.3778882,41.0957056 17.4706803,41.128355 C17.5153579,41.1446797 17.557458,41.1704556 17.6038541,41.1824843 C17.7473381,41.221148 17.895118,41.2409095 18.0428979,41.2409095 C18.1906778,41.2409095 18.3384578,41.221148 18.4819418,41.1833435 C18.5274786,41.1713147 18.5695787,41.1455389 18.6151155,41.1292142 C18.7079076,41.0965648 18.8015588,41.0673522 18.8891957,41.0183781 L35.2137224,31.7820365 C35.7524318,31.4770225 36.0857958,30.9056581 36.0857958,30.2861788 L36.0857958,10.9543011 C36.0857958,10.9422724 36.0814999,10.931962 36.0814999,10.9207925 Z M3.43674246,13.9021977 L16.3245267,21.2010555 L16.3245267,36.575483 L3.43674246,29.2834988 L3.43674246,13.9021977 Z M32.6490534,29.2834988 L19.7612691,36.575483 L19.7612691,21.2010555 L32.6490534,13.9021977 L32.6490534,29.2834988 Z" id="Shape" stroke="#999999" fill="#999999"></path>
                                    <polygon id="Shape" fill="#CECECE" points="18.3764575 16.9505667 30.7386157 10.1727577 18.330749 3.1914601 6.0142993 10.2425636"></polygon>
                                </g>
                            </g>
                            <g id="box" transform="translate(24.057197, 27.894893)">
                                <polygon id="Path-2" fill="#FFFFFF" points="3.40432036 13.5216097 16.3407377 21.0942592 16.3407377 36.5083461 3.40432036 29.2270643"></polygon>
                                <polygon id="Path-2" fill="#FFFFFF" transform="translate(26.213267, 25.353018) scale(-1, 1) translate(-26.213267, -25.353018) " points="19.7450581 13.5216097 32.6814755 21.2868894 32.6814755 37.1844266 19.7450581 29.5743617"></polygon>
                                <g id="package-(1)-copy-3" fill-rule="nonzero">
                                    <polygon id="Shape" fill="#00FFB0" points="17.7695207 20.3455154 26.0888218 15.5216135 33.8987779 10.99323 17.7695207 1.64963638 9.95956454 6.1780199 1.64026345 10.99323"></polygon>
                                    <path d="M36.0814999,10.9207925 C36.0789223,10.7790254 36.0617386,10.6389767 36.0256528,10.5058015 C36.0101875,10.4482355 35.9792568,10.397543 35.9577772,10.3425546 C35.9251281,10.2583535 35.8984934,10.172434 35.8538157,10.0942473 C35.822885,10.0401181 35.7782074,9.99629916 35.7412624,9.94646588 C35.6897113,9.87687112 35.6441744,9.80298039 35.5823131,9.74111838 C35.5384946,9.69729945 35.4826475,9.66550926 35.4345331,9.62598631 C35.3683758,9.57271624 35.3073737,9.51343182 35.2326245,9.4696129 C35.2291878,9.46789451 35.2248918,9.46703531 35.2214551,9.46531692 C35.2180183,9.46359853 35.2163,9.46102095 35.2128632,9.45930256 L18.8883366,0.22296099 C18.3633741,-0.0743203298 17.7207033,-0.0743203298 17.1957409,0.22296099 L9.29466998,4.69764628 C9.2938108,4.69764628 9.29295161,4.69850548 9.29209242,4.69850548 L0.872073399,9.45844337 C0.868636657,9.46016175 0.8660591,9.46359853 0.863481543,9.46531692 C0.8600448,9.46703531 0.855748872,9.46789451 0.853171315,9.4696129 C0.780140538,9.51171343 0.721715916,9.57013866 0.657276995,9.62169033 C0.606585044,9.66207248 0.549019608,9.69472187 0.504341956,9.74025918 C0.44076222,9.80383958 0.393507012,9.87858951 0.341096689,9.95076185 C0.305870079,9.99887675 0.262051613,10.0418365 0.232839302,10.0933881 C0.183865722,10.1775892 0.153794225,10.2712414 0.120285986,10.362316 C0.102243088,10.4104309 0.0747491485,10.4551091 0.0610021786,10.5049423 C0.0257755684,10.6338215 0.011169413,10.7678559 0.00773267053,10.9044678 C0.0060142993,10.9207925 0,10.936258 0,10.9534419 L0,30.2853196 C0,30.9047989 0.333364019,31.4761633 0.872073399,31.7811774 L17.1966001,41.0175189 C17.284237,41.066493 17.3778882,41.0957056 17.4706803,41.128355 C17.5153579,41.1446797 17.557458,41.1704556 17.6038541,41.1824843 C17.7473381,41.221148 17.895118,41.2409095 18.0428979,41.2409095 C18.1906778,41.2409095 18.3384578,41.221148 18.4819418,41.1833435 C18.5274786,41.1713147 18.5695787,41.1455389 18.6151155,41.1292142 C18.7079076,41.0965648 18.8015588,41.0673522 18.8891957,41.0183781 L35.2137224,31.7820365 C35.7524318,31.4770225 36.0857958,30.9056581 36.0857958,30.2861788 L36.0857958,10.9543011 C36.0857958,10.9422724 36.0814999,10.931962 36.0814999,10.9207925 Z M3.43674246,13.9021977 L16.3245267,21.2010555 L16.3245267,36.575483 L3.43674246,29.2834988 L3.43674246,13.9021977 Z M32.6490534,29.2834988 L19.7612691,36.575483 L19.7612691,21.2010555 L32.6490534,13.9021977 L32.6490534,29.2834988 Z" id="Shape" stroke="#999999" fill="#999999"></path>
                                    <polygon id="Shape" fill="#CECECE" points="18.3764575 16.9505667 30.7386157 10.1727577 18.330749 3.1914601 6.0142993 10.2425636"></polygon>
                                </g>
                            </g>
                        </g>
                        <g id="Group-9" transform="translate(48.395062, 51.851852)" fill="#CECECE">
                            <circle id="Oval" cx="3.02469136" cy="3.02469136" r="3.02469136"></circle>
                            <circle id="Oval" cx="10.8024691" cy="7.34567901" r="3.02469136"></circle>
                            <circle id="Oval" cx="18.5802469" cy="11.6666667" r="3.02469136"></circle>
                        </g>
                    </g>
                </g>
            </g>
        </g>
    </g>
</svg>