<?xml version="1.0" encoding="UTF-8"?>
<svg width="64px" height="64px" viewBox="0 0 64 64" version="1.1" xmlns="http://www.w3.org/2000/svg" xmlns:xlink="http://www.w3.org/1999/xlink">
    <!-- Generator: Sketch 55.2 (78181) - https://sketchapp.com -->
    <title>icon\</title>
    <desc>Created with Sketch.</desc>
    <g id="icon\" stroke="none" stroke-width="1" fill="none" fill-rule="evenodd">
        <g id="Group-3" transform="translate(5.000000, 4.000000)">
            <polygon id="Triangle" fill="#CDF4EE" transform="translate(27.377778, 23.644444) scale(1, -1) translate(-27.377778, -23.644444) " points="27.3777778 21.1555556 31.1111111 26.1333333 23.6444444 26.1333333"></polygon>
            <path d="M7.97777778,0 L45.5333333,0 C47.1901876,-7.48448398e-16 48.5333333,1.34314575 48.5333333,3 L48.5333333,19.4 C48.5333333,21.0568542 47.1901876,22.4 45.5333333,22.4 L7.97777778,22.4 C6.32092353,22.4 4.97777778,21.0568542 4.97777778,19.4 L4.97777778,3 C4.97777778,1.34314575 6.32092353,-1.47199765e-15 7.97777778,0 Z" id="Rectangle" fill="#CDF4EE"></path>
            <path d="M13.6888889,7.46666667 L40.4445918,7.45258924" id="Line-2" stroke="#5A78F0" stroke-width="4" stroke-linecap="round"></path>
            <path d="M16.1776304,14.9192559 L38.5776304,14.9192559" id="Line-2-Copy" stroke="#5A78F0" stroke-width="4" stroke-linecap="round"></path>
            <circle id="Oval" fill="#05C0A5" fill-rule="nonzero" cx="8.71111111" cy="37.3333333" r="4.97777778"></circle>
            <path d="M14.9333333,44.4266667 C12.672064,46.0817778 12.4388472,48.7386667 12.4388472,51.7222222 L12.4388472,52.2666667 L1.67916042,52.2666667 C0.76121939,52.2666667 0,51.5262222 0,50.6333333 L0,49.5444444 C0,46.2342222 2.75382309,43.5555556 6.15692154,43.5555556 L11.7541229,43.5555556 C12.9183408,43.5555556 14.0153923,43.8822222 14.9333333,44.4266667 Z" id="Path" fill="#05C0A5" fill-rule="nonzero"></path>
            <circle id="Oval" fill="#05C0A5" fill-rule="nonzero" cx="46.0444444" cy="37.3333333" r="4.97777778"></circle>
            <path d="M54.7555556,49.5444444 L54.7555556,50.6333333 C54.7555556,51.5262222 53.9943362,52.2666667 53.0763951,52.2666667 L42.3167083,52.2666667 L42.3167083,51.7222222 C42.3167083,48.7386667 42.0834916,46.0817778 39.8222222,44.4266667 C40.7401633,43.8822222 41.8372147,43.5555556 43.0014326,43.5555556 L48.598634,43.5555556 C52.0017325,43.5555556 54.7555556,46.2342222 54.7555556,49.5444444 Z" id="Path" fill="#05C0A5" fill-rule="nonzero"></path>
            <circle id="Oval" fill="#05C0A5" fill-rule="nonzero" cx="26.7555556" cy="35.4666667" r="6.84444444"></circle>
            <path d="M33.6,44.8 L21.1555556,44.8 C17.7231515,44.8 14.9333333,47.56192 14.9333333,50.96 L14.9333333,54.32 C14.9333333,55.24736 15.6935758,56 16.630303,56 L38.1252525,56 C39.0619798,56 39.8222222,55.24736 39.8222222,54.32 L39.8222222,50.96 C39.8222222,47.56192 37.032404,44.8 33.6,44.8 Z" id="Path" fill="#05C0A5" fill-rule="nonzero"></path>
        </g>
    </g>
</svg>