<?xml version="1.0" encoding="UTF-8"?>
<svg width="64px" height="64px" viewBox="0 0 64 64" version="1.1" xmlns="http://www.w3.org/2000/svg" xmlns:xlink="http://www.w3.org/1999/xlink">
    <!-- Generator: Sketch 55.2 (78181) - https://sketchapp.com -->
    <title>icon\</title>
    <desc>Created with Sketch.</desc>
    <g id="icon\" stroke="none" stroke-width="1" fill="none" fill-rule="evenodd">
        <g id="wifi-(1)" transform="translate(2.000000, 9.000000)" fill-rule="nonzero">
            <path d="M30.0900542,35.4799484 C27.2125316,35.4799484 24.8715768,37.8133058 24.8715768,40.6799071 C24.8715768,43.5474581 27.2125316,45.8817652 30.0900542,45.8817652 C32.9685265,45.8817652 35.3094813,43.5474581 35.3094813,40.6799071 C35.3094813,37.8133058 32.9680516,35.4799484 30.0900542,35.4799484 Z" id="Path" fill="#5A78F0"></path>
            <path d="M42.8223794,28.3949987 C39.4249084,24.9994271 34.9025445,23.1285626 30.0900542,23.1285626 C25.2960826,23.1285626 20.7860645,24.9870813 17.3895432,28.3612852 C16.0177342,29.7264465 16.01536,31.950591 17.3838452,33.3181265 C18.0486194,33.9838503 18.9337187,34.3494761 19.8757987,34.3494761 C20.8136052,34.3494761 21.6953806,33.9857497 22.3592052,33.3257239 C24.4261781,31.2715716 27.1716955,30.140031 30.0900542,30.140031 C33.0193342,30.140031 35.772449,31.2786942 37.8408465,33.3451923 C38.5056206,34.0090168 39.3902452,34.3755923 40.3313755,34.3755923 C41.2701316,34.3755923 42.1514323,34.0118658 42.8157316,33.35184 C44.18944,31.98656 44.1918142,29.7634839 42.8223794,28.3949987 Z" id="Path" fill="#00C0A5"></path>
            <path d="M59.1781987,12.0931923 C51.4107871,4.3448929 41.0797213,0.0789419355 30.0900542,0.0789419355 C19.1151071,0.0789419355 8.79448774,4.33492129 1.02945032,12.0648206 C-0.34235871,13.4299819 -0.343308387,15.6541265 1.02755097,17.0216619 C1.69185032,17.6840619 2.57552516,18.0482632 3.51570581,18.0482632 C4.45541161,18.0482632 5.33813677,17.6854865 6.00243613,17.0235613 C12.4388748,10.6170374 20.9930942,7.08803613 30.0900542,7.08803613 C39.2003097,7.08803613 47.7630761,10.62416 54.2009394,17.0477781 C54.8652387,17.7106529 55.7503381,18.0762787 56.6900439,18.0762787 C57.6292748,18.0762787 58.512,17.7116026 59.1758245,17.0506271 C60.5481084,15.6843974 60.5495329,13.4594219 59.1781987,12.0931923 Z" id="Path" fill="#CDF4EE"></path>
            <path d="M50.7930219,20.4484542 C45.264,14.9322529 37.9115974,11.8947097 30.0900542,11.8947097 C22.2827561,11.8947097 14.9412748,14.9227561 9.41700129,20.419489 C8.75175226,21.0809394 8.38565161,21.9608155 8.3842271,22.8976723 C8.3842271,23.8335794 8.74890323,24.7144052 9.41320258,25.3768052 C10.0775019,26.03968 10.9616516,26.4053058 11.9018323,26.4053058 C12.8405884,26.4053058 13.7233135,26.0406297 14.3885626,25.3806039 C18.5851871,21.2053471 24.1616929,18.9052284 30.0900542,18.9052284 C36.0307613,18.9052284 41.6148645,21.2134194 45.8143381,25.4029213 C46.4795871,26.0667458 47.3632619,26.4323716 48.3039174,26.4323716 C49.2431484,26.4323716 50.1263484,26.0676955 50.7896981,25.40672 C51.4539974,24.7452697 51.8210477,23.8653935 51.8215244,22.9285368 C51.8224723,21.99168 51.4568465,21.1118039 50.7930219,20.4484542 Z" id="Path" fill="#00C0A5"></path>
        </g>
    </g>
</svg>