<?xml version="1.0" encoding="UTF-8"?>
<svg width="67px" height="62px" viewBox="0 0 67 62" version="1.1" xmlns="http://www.w3.org/2000/svg" xmlns:xlink="http://www.w3.org/1999/xlink">
    <!-- Generator: Sketch 49.2 (51160) - http://www.bohemiancoding.com/sketch -->
    <title>network (1)</title>
    <desc>Created with Sketch.</desc>
    <defs></defs>
    <g id="Symbols" stroke="none" stroke-width="1" fill="none" fill-rule="evenodd">
        <g id="network-box" transform="translate(-30.000000, -38.000000)" fill="#FFFFFF" fill-rule="nonzero">
            <g id="network-(1)">
                <g transform="translate(30.000000, 38.000000)">
                    <path d="M66.1901811,16.8831298 C65.3318421,15.2713129 63.9005882,14.0924195 62.1600017,13.5630599 C60.4194152,13.0334035 58.5778823,13.2173738 56.9748426,14.0802537 C55.3718028,14.9434304 54.1988181,16.3822559 53.6722442,18.1320506 C53.3212933,19.2975913 53.2926624,20.5070475 53.5612623,21.6616093 L46.2101842,25.6187505 C43.9743113,22.4630669 40.489006,20.2646221 36.4845058,19.7581104 L36.4845058,13.4517876 C39.3824333,12.6660565 41.5214922,10.0020482 41.5214922,6.84399082 C41.5214922,3.07022645 38.4674226,0 34.7135173,0 C30.9596121,0 27.9052473,3.07022645 27.9052473,6.84428755 C27.9052473,10.002345 30.0446014,12.6663532 32.9422337,13.4520843 L32.9422337,19.7578137 C27.827619,20.4049736 23.5574706,23.8122811 21.6601516,28.447145 L13.6148461,26.2679875 C13.616617,25.0819727 13.3161393,23.9104975 12.7116419,22.8550422 C11.8046007,21.2705241 10.337927,20.1358429 8.58228712,19.6601908 C4.95648336,18.6780269 1.21408953,20.8444252 0.237389385,24.4882235 C-0.235759705,26.2534479 0.00332374062,28.098195 0.910365009,29.6824164 C1.81740628,31.2666378 3.28407991,32.4016157 5.03971982,32.8772678 C5.62916382,33.0369066 6.2271676,33.1158357 6.82192456,33.1158357 C7.99815608,33.1158357 9.15962936,32.8063503 10.2068739,32.200732 C11.2567749,31.5933334 12.1021267,30.7325306 12.6933417,29.7061545 L20.7389424,31.8856087 C20.652164,32.5208996 20.6034618,33.1680596 20.6034618,33.8270886 C20.6034618,37.0973085 21.7129861,40.1102668 23.5695723,42.5122657 L17.6707048,48.4423397 C15.0691228,46.939718 11.6865348,47.2972731 9.4657152,49.5292479 C6.81129863,52.1977071 6.81129863,56.5397022 9.4657152,59.208458 C10.7930711,60.5428359 12.5363141,61.2098765 14.2798522,61.2098765 C16.0230952,61.2098765 17.7666334,60.5428359 19.0939893,59.208458 C21.3145136,56.9758898 21.6701872,53.575407 20.1751777,50.9603586 L26.0740452,45.0302846 C28.4634038,46.8966927 31.4602115,48.0120867 34.7135173,48.0120867 C37.9668232,48.0120867 40.9636309,46.8966927 43.3529895,45.0302846 L49.251857,50.9603586 C47.7571427,53.5757037 48.112521,56.9761865 50.3330454,59.208458 C51.6604013,60.5428359 53.4036443,61.2098765 55.1471825,61.2098765 C56.8907206,61.2098765 58.6339636,60.5425392 59.9613195,59.208458 C62.6157361,56.5399989 62.6157361,52.1980038 59.9613195,49.5292479 C57.7407951,47.2969764 54.3579119,46.939718 51.756625,48.4423397 L45.8577575,42.5122657 C47.7143438,40.1102668 48.8238681,37.0976052 48.8238681,33.8270886 C48.8238681,32.0404998 48.4903319,30.3313567 47.8879007,28.7551469 L55.2336657,24.8009729 C56.0406462,25.6659299 57.0577839,26.3121997 58.2174862,26.6650072 C58.8692099,26.8632203 59.5353968,26.9614367 60.1977464,26.9614367 C61.3040239,26.9614367 62.3999706,26.6872617 63.4026453,26.1475166 C65.0059802,25.2846367 66.1786697,23.8458112 66.7052436,22.0960165 C67.2318175,20.3462218 67.0485202,18.4946501 66.1901811,16.8831298 Z M61.7299467,23.008153 C60.9610425,23.4223828 60.0776144,23.5105105 59.2425933,23.2562161 C58.4075723,23.0025152 57.7210191,22.4366582 57.3092642,21.6633896 C56.8972142,20.8904178 56.8098455,20.0020194 57.0625065,19.1625808 C57.3148724,18.3231423 57.8777515,17.6329571 58.6469509,17.2190239 C59.1280694,16.9599819 59.6537578,16.8285322 60.184464,16.8285322 C60.5020613,16.8285322 60.8217247,16.8757117 61.1343042,16.9706641 C61.9693253,17.224365 62.6558785,17.790222 63.0676333,18.5634906 C63.4796833,19.3364624 63.567052,20.2245641 63.314391,21.0640026 C63.0620252,21.9040346 62.499146,22.5942199 61.7299467,23.008153 Z M45.2813008,33.8267918 C45.2813008,39.6847613 40.5403646,44.4507783 34.7132222,44.4507783 C28.8860797,44.4507783 24.1451436,39.6847613 24.1451436,33.8267918 C24.1451436,27.9688223 28.8860797,23.2028054 34.7132222,23.2028054 C40.5403646,23.2028054 45.2813008,27.9688223 45.2813008,33.8267918 Z M31.4472243,6.84428755 C31.4472243,5.03366401 32.9124221,3.56101166 34.7132222,3.56101166 C36.5140223,3.56101166 37.9792201,5.03396073 37.9792201,6.84428755 C37.9792201,8.65461436 36.5140223,10.1275634 34.7132222,10.1275634 C32.9124221,10.1275634 31.4472243,8.65461436 31.4472243,6.84428755 Z M5.96122416,29.4391009 C5.11882397,29.2109184 4.41544638,28.6664257 3.98037354,27.9065098 C3.54500554,27.1462972 3.43048162,26.2614595 3.65746331,25.4146028 C4.12588976,23.6662918 5.92196725,22.6274532 7.66078278,23.0983577 C8.50318296,23.3265402 9.20656056,23.8707362 9.64192856,24.6309488 C10.0770014,25.3911614 10.1915253,26.2759991 9.96454363,27.1228558 C9.49611717,28.8711668 7.70063002,29.9100054 5.96122416,29.4391009 Z M16.5892212,56.6901424 C15.3161757,57.9702194 13.243824,57.9702194 11.9701881,56.6901424 C10.6968474,55.4100654 10.6968474,53.3270471 11.9701881,52.0466734 C12.6068584,51.4066349 13.4433553,51.086764 14.2798522,51.086764 C15.116054,51.086764 15.9525509,51.4069316 16.5892212,52.0466734 C17.8625619,53.3270471 17.8625619,55.4100654 16.5892212,56.6901424 Z M57.4562563,52.0466734 C58.729597,53.3267504 58.729597,55.4097686 57.4562563,56.6901424 C56.1832107,57.9702194 54.110859,57.9702194 52.8372231,56.6901424 C51.5638824,55.4100654 51.5638824,53.3270471 52.8372231,52.0466734 C53.4738935,51.4066349 54.3103904,51.086764 55.1468873,51.086764 C55.983089,51.086764 56.8195859,51.4066349 57.4562563,52.0466734 Z" id="Shape"></path>
                </g>
            </g>
        </g>
    </g>
</svg>