<?xml version="1.0" encoding="UTF-8"?>
<svg width="64px" height="64px" viewBox="0 0 64 64" version="1.1" xmlns="http://www.w3.org/2000/svg" xmlns:xlink="http://www.w3.org/1999/xlink">
    <!-- Generator: Sketch 55.2 (78181) - https://sketchapp.com -->
    <title>icon\</title>
    <desc>Created with Sketch.</desc>
    <g id="icon\" stroke="none" stroke-width="1" fill="none" fill-rule="evenodd">
        <g id="wallet" transform="translate(1.000000, 6.000000)" fill-rule="nonzero">
            <polygon id="Rectangle" fill="#5A78F0" transform="translate(8.081082, 5.229302) rotate(45.000000) translate(-8.081082, -5.229302) " points="4.38340734 1.53162717 7.91634574 2.65642252 11.7787562 1.53162717 10.3806039 5.12068069 11.7787562 8.92697601 7.97252334 7.52876128 4.38340734 8.92697601 5.50826517 5.06450311"></polygon>
            <polygon id="Rectangle" fill="#CDF4EE" transform="translate(58.615965, 9.287984) rotate(45.000000) translate(-58.615965, -9.287984) " points="55.53457 6.20658852 58.4786853 7.14391797 61.6973607 6.20658852 60.5322338 9.19746645 61.6973607 12.3693792 58.5255 11.2042003 55.53457 12.3693792 56.4719515 9.15065179"></polygon>
            <g id="Group-64" transform="translate(11.093023, 8.627907)">
                <path d="M35.4096345,15.5922716 C34.3918329,15.5922716 32.5056887,16.1652672 31.278715,17.3132912 C29.8750243,18.6266614 29.1905059,20.6013929 29.1905059,21.7648726 C29.1905059,22.914783 29.5271904,25.4431646 30.9085272,26.9152443 C32.1465097,28.2345523 34.3782529,28.5678072 35.4096345,28.5678072 L44.6435493,28.5678072 L44.6435493,15.5922716 L35.4096345,15.5922716 Z" id="Shape" fill="#5A78F0"></path>
                <path d="M35.6260545,15.5922716 L44.6435493,15.5922716 L44.6435493,7.8069504 C44.2584593,7.8069504 4.53716741,7.8069504 4.53716741,7.8069504 C3.71874217,7.8069504 2.47117836,7.37146297 1.78020294,6.66535361 C1.08922752,5.95924423 0.831695275,4.84111727 0.672526763,4.38131722 C0.672526763,4.97352065 0.672526763,28.9613119 0.672526763,29.8653607 C0.672526763,33.4483386 3.55623573,36.3531284 7.11359451,36.3531284 L44.6435493,36.3531284 L44.6435493,28.5678072 L35.6260545,28.5678072 C32.0746215,28.5678072 29.1849867,25.6572216 29.1849867,22.0800395 C29.1849867,18.5028574 32.0746215,15.5922716 35.6260545,15.5922716 Z" id="Path" fill="#CDF4EE"></path>
                <path d="M4.52485528,0 C2.39725705,0 0.672526763,1.77037984 0.672526763,3.95429062 C0.672526763,6.1382014 2.39725705,7.83239697 4.52485528,7.83239697 L39.3670266,7.83239697 L39.3670266,0 L4.52485528,0 Z" id="Path" fill="#00C0A5"></path>
                <circle id="Oval" fill="#FFFFFF" cx="34.9681222" cy="22.1402368" r="1.92587209"></circle>
            </g>
            <polygon id="Rectangle" fill="#00C0A5" transform="translate(6.848523, 46.775270) rotate(45.000000) translate(-6.848523, -46.775270) " points="2.53456943 42.4613167 6.6563309 43.7735779 11.1624764 42.4613167 9.53129877 46.6485458 11.1624764 51.0892236 6.72187143 49.4579731 2.53456943 51.0892236 3.84690355 46.5830053"></polygon>
        </g>
    </g>
</svg>