<?xml version="1.0" encoding="UTF-8"?>
<svg width="96px" height="96px" viewBox="0 0 96 96" version="1.1" xmlns="http://www.w3.org/2000/svg" xmlns:xlink="http://www.w3.org/1999/xlink">
    <!-- Generator: Sketch 51.2 (57519) - http://www.bohemiancoding.com/sketch -->
    <title>Group 49</title>
    <desc>Created with Sketch.</desc>
    <defs></defs>
    <g id="Style-guideline" stroke="none" stroke-width="1" fill="none" fill-rule="evenodd">
        <g id="style-guideline" transform="translate(-623.000000, -11082.000000)">
            <g id="Group-52" transform="translate(113.000000, 10893.000000)">
                <g id="Group-49" transform="translate(0.000000, 189.000000)">
                    <g id="do-not-lose" transform="translate(528.000000, 12.000000)">
                        <g>
                            <g id="021-file-1" fill-rule="nonzero">
                                <polygon id="Path-3" fill="#FFFFFF" points="2.97439489 5.72003478 2.97439489 59.2556787 6.48887783 63.805256 38.019444 63.805256 36.3221715 57.0645442 33.4295515 43.623436 38.019444 39.717895 46.1671584 36.2769874 48.94488 36.2769874 48.94488 18.6531707 33.4295515 3.7093111 6.48887783 3.7093111"></polygon>
                                <path d="M5.24863496,59.0370468 L5.24863496,7.83677613 C5.24863496,6.39637668 6.42590378,5.22451742 7.87295244,5.22451742 L30.8211654,5.22451742 L30.8211654,14.5125339 C30.8211654,18.8337322 34.3529719,22.34931 38.6941179,22.34931 L48.0104449,22.34931 L48.0104449,35.3389095 L53.2590799,35.3389095 L53.2590799,18.6589721 L34.6092365,0 L7.87295244,0 C3.53180647,0 0,3.51557777 0,7.83677613 L0,59.0370468 C0,63.3582452 3.53180647,66.873823 7.87295244,66.873823 L44.9841432,66.873823 L40.9841432,61.6493056 L7.87295244,61.6493056 C6.42564135,61.6493056 5.24863496,60.4774463 5.24863496,59.0370468 Z M36.0696692,8.86874893 L44.3217043,17.1249232 L38.6939867,17.1249232 C37.246938,17.1247926 36.0696692,15.9529333 36.0696692,14.5125339 L36.0696692,8.86874893 Z" id="Shape" fill="#003945"></path>
                            </g>
                            <g id="Group-2" transform="translate(31.000000, 32.000000)">
                                <polygon id="Path-2" fill="#05C0A5" points="3.29580308 10.6379312 4.79168244 7.93910809 12.8675996 4.02714808 16.8025407 4.02714808 23.6147766 5.70407407 29.0992316 9.38316383 29.0992316 22.1663095 26.4587134 27.2276599 22.5924507 32.4165034 18.0557566 34.9117276 15.1823862 34.9117276 7.39884254 28.4590101 3.29580308 20.8152718"></polygon>
                                <path d="M27.6572014,4.69052481 C24.4283736,4.11857164 21.3557233,2.24418094 20.1843926,1.46472481 C18.9626993,0.651872837 17.5410293,0.222214968 16.073149,0.222214968 C14.6052686,0.222214968 13.1835986,0.651872837 11.9616375,1.4648568 C10.7905746,2.24418094 7.71792431,4.11857164 4.48909657,4.69065681 C1.88792529,5.15173052 0,7.37525949 0,9.97775858 L0,18.2139897 C0,30.6158562 14.3693952,37.0797322 14.9812464,37.3487468 L16.073149,37.8292244 L17.1650516,37.3487468 C17.7767688,37.0797322 32.1462979,30.6158562 32.1462979,18.2139897 L32.1462979,9.97775858 C32.146164,7.37499549 30.2583727,5.15159852 27.6572014,4.69052481 Z M26.7885816,18.2138577 C26.7884477,25.5297894 18.9989979,30.4045253 16.0732829,31.9771655 C13.1435497,30.4024133 5.35758238,25.5283375 5.35758238,18.2138577 L5.35758238,9.97762658 C5.35758238,9.93274681 5.39039839,9.89552299 5.43714447,9.88720703 C9.51811699,9.16411462 13.1550688,7.04143315 14.9595476,5.8407671 C15.2925297,5.6191402 15.6776156,5.50218878 16.073015,5.50218878 C16.4684145,5.50218878 16.8535004,5.6192722 17.1863485,5.8406351 C18.9910952,7.04156515 22.628047,9.16424662 26.7090195,9.88720703 C26.7558996,9.89552299 26.7885816,9.93274681 26.7885816,9.97762658 L26.7885816,18.2138577 Z" id="Shape" fill="#003945" fill-rule="nonzero"></path>
                            </g>
                        </g>
                    </g>
                </g>
            </g>
        </g>
    </g>
</svg>