<?xml version="1.0" encoding="UTF-8"?>
<svg width="53px" height="59px" viewBox="0 0 53 59" version="1.1" xmlns="http://www.w3.org/2000/svg" xmlns:xlink="http://www.w3.org/1999/xlink">
    <!-- Generator: Sketch 49.2 (51160) - http://www.bohemiancoding.com/sketch -->
    <title>021-file-1</title>
    <desc>Created with Sketch.</desc>
    <defs></defs>
    <g id="Desktop" stroke="none" stroke-width="1" fill="none" fill-rule="evenodd">
        <g id="create-wallet-(JSON)2" transform="translate(-546.000000, -434.000000)" fill="#05C0A5" fill-rule="nonzero">
            <g id="Group-8" transform="translate(470.000000, 254.000000)">
                <g id="Group-9" transform="translate(45.000000, 175.000000)">
                    <g id="Group-6" transform="translate(0.000000, 5.000000)">
                        <g id="021-file-1" transform="translate(31.000000, 0.000000)">
                            <path d="M49.0899167,29.8645757 C46.27755,29.3636343 43.6012167,27.7219614 42.5809667,27.0392799 C41.51685,26.3273488 40.27855,25.9510358 39,25.9510358 C37.72145,25.9510358 36.48315,26.3273488 35.4188,27.0393955 C34.3987833,27.7219614 31.72245,29.3636343 28.9100833,29.8646913 C26.6444167,30.2685197 25,32.215983 25,34.4953648 L25,41.709014 C25,52.5711075 37.516,58.232451 38.0489333,58.4680657 L39,58.8888889 L39.9510667,58.4680657 C40.4838833,58.232451 53,52.5711075 53,41.709014 L53,34.4953648 C52.9998833,32.2157518 51.3555833,30.2684041 49.0899167,29.8645757 Z M48.3333333,41.7088983 C48.3332167,48.1165092 41.5484667,52.3860147 39.0001167,53.7634013 C36.4482667,52.3841649 29.66655,48.1152375 29.66655,41.7088983 L29.66655,34.4952492 C29.66655,34.4559415 29.6951333,34.4233393 29.73585,34.4160558 C33.29045,33.7827401 36.4583,31.9236034 38.0300333,30.8720079 C38.3200667,30.6778974 38.6554833,30.5754663 38.9998833,30.5754663 C39.3442833,30.5754663 39.6797,30.678013 39.9696167,30.8718923 C41.5415833,31.923719 44.7094333,33.7828557 48.2640333,34.4160558 C48.3048667,34.4233393 48.3333333,34.4559415 48.3333333,34.4952492 L48.3333333,41.7088983 Z" id="Shape"></path>
                            <path d="M4.6318082,51.9878472 L4.6318082,6.90104167 C4.6318082,5.63263021 5.67072278,4.60069444 6.94771231,4.60069444 L27.1990199,4.60069444 L27.1990199,12.779694 C27.1990199,16.5849284 30.3157637,19.6807357 34.1467322,19.6807357 L42.3681918,19.6807357 L42.3681918,22.3133681 L47,22.3133681 L47,16.4310352 L30.5419117,0 L6.94771231,0 C3.11674374,0 0,3.09580729 0,6.90104167 L0,51.9878472 C0,55.7930816 3.11674374,58.8888889 6.94771231,58.8888889 L25.5778871,58.8888889 L25.5778871,54.2881944 L6.94771231,54.2881944 C5.67049119,54.2881944 4.6318082,53.2562587 4.6318082,51.9878472 Z M31.8307123,7.80979384 L39.112957,15.0801562 L34.1466164,15.0801562 C32.8696269,15.0800412 31.8307123,14.0481055 31.8307123,12.779694 L31.8307123,7.80979384 Z" id="Shape"></path>
                        </g>
                    </g>
                </g>
            </g>
        </g>
    </g>
</svg>