<?xml version="1.0" encoding="UTF-8"?>
<svg width="96px" height="96px" viewBox="0 0 96 96" version="1.1" xmlns="http://www.w3.org/2000/svg" xmlns:xlink="http://www.w3.org/1999/xlink">
    <!-- Generator: Sketch 51.2 (57519) - http://www.bohemiancoding.com/sketch -->
    <title>Group 49</title>
    <desc>Created with Sketch.</desc>
    <defs></defs>
    <g id="Style-guideline" stroke="none" stroke-width="1" fill="none" fill-rule="evenodd">
        <g id="style-guideline" transform="translate(-882.000000, -11082.000000)">
            <g id="Group-52" transform="translate(113.000000, 10893.000000)">
                <g id="Group-49" transform="translate(0.000000, 189.000000)">
                    <g id="no-share" transform="translate(781.000000, 14.000000)">
                        <rect id="Rectangle" fill="#FFFFFF" fill-rule="nonzero" x="4" y="19" width="63" height="42"></rect>
                        <g stroke-width="1" fill-rule="evenodd">
                            <path d="M29.0530303,55 C31.857322,55 34.1806136,50.4130968 34.5937803,49.5483871 L36.6866629,49.5483871 C37.0998295,50.4130968 39.4231212,55 42.2274129,55 C45.2765492,55 47.7552689,52.5716559 47.8299697,49.5483871 L54,49.5483871 L54,43.9569892 L48.6942841,43.9569892 C48.488822,42.5102151 48.147553,40.4362258 47.6432879,38.3416882 C46.6775038,34.3315376 44.9057083,29 40.6856061,29 C38.740303,29 37.0226061,30.0163763 35.780303,30.9055484 C34.538,30.0163763 32.820303,29 30.875,29 C26.6548977,29 24.8831023,34.3315376 23.9173182,38.3416882 C23.4129129,40.4362258 23.0717841,42.5102151 22.866322,43.9569892 L17,43.9569892 L17,49.5483871 L23.4504735,49.5483871 C23.5250341,52.5716559 26.0038939,55 29.0530303,55 Z M29.1257689,40.7159355 C29.9809735,36.7250753 30.8401023,35.1956882 31.220053,34.6776452 C31.5355341,34.8069462 32.1136591,35.1336237 33.2043182,35.9652043 C34.0080871,36.5781613 34.7022576,37.1075269 35.780303,37.1075269 C36.8583485,37.1075269 37.5525189,36.5781613 38.3562879,35.9652043 C38.7211023,35.687172 39.7034242,34.9379247 40.3422348,34.6800215 C40.721625,35.1982043 41.574447,36.7192043 42.4250265,40.6707849 C42.6719735,41.8181398 42.8666439,42.9322258 43.0132424,43.8729785 C42.7563447,43.8370538 42.4942614,43.8172043 42.2272727,43.8172043 L28.7727273,43.8172043 L28.7727273,43.8243333 C28.6985871,43.8279677 28.6251477,43.8342581 28.5518485,43.8406882 C28.6956439,42.9211828 28.8855492,41.8371505 29.1257689,40.7159355 Z" id="Shape" stroke="#FFFFFF" stroke-width="0.4" fill="#003945" fill-rule="nonzero"></path>
                            <rect id="Rectangle-5" fill="#05C0A5" x="4" y="4" width="62" height="14"></rect>
                            <path d="M62.6796875,0 L8.3203125,0 C3.73249219,0 0,3.76367797 0,8.38983051 L0,57.6101695 C0,62.236322 3.73249219,66 8.3203125,66 L62.6796875,66 C67.2675078,66 71,62.236322 71,57.6101695 L71,8.38983051 C71,3.76367797 67.2675078,0 62.6796875,0 Z M65.453125,57.6101695 C65.453125,59.1522203 64.2089609,60.4067797 62.6796875,60.4067797 L8.3203125,60.4067797 C6.79103906,60.4067797 5.546875,59.1522203 5.546875,57.6101695 L5.546875,22.3728814 L65.453125,22.3728814 L65.453125,57.6101695 Z M65.453125,16.779661 L5.546875,16.779661 L5.546875,8.38983051 C5.546875,6.84777966 6.79103906,5.59322034 8.3203125,5.59322034 L62.6796875,5.59322034 C64.2089609,5.59322034 65.453125,6.84777966 65.453125,8.38983051 L65.453125,16.779661 Z" id="Shape" fill="#003945" fill-rule="nonzero"></path>
                            <circle id="Oval" fill="#003945" fill-rule="nonzero" cx="20.5" cy="11.5" r="2.5"></circle>
                            <circle id="Oval" fill="#003945" fill-rule="nonzero" cx="12.5" cy="11.5" r="2.5"></circle>
                        </g>
                    </g>
                </g>
            </g>
        </g>
    </g>
</svg>