<?xml version="1.0" encoding="UTF-8"?>
<svg width="65px" height="60px" viewBox="0 0 65 60" version="1.1" xmlns="http://www.w3.org/2000/svg" xmlns:xlink="http://www.w3.org/1999/xlink">
    <!-- Generator: Sketch 49.2 (51160) - http://www.bohemiancoding.com/sketch -->
    <title>no-share</title>
    <desc>Created with Sketch.</desc>
    <defs></defs>
    <g id="Desktop" stroke="none" stroke-width="1" fill="none" fill-rule="evenodd">
        <g id="create-wallet-(JSON)2" transform="translate(-691.000000, -431.000000)" fill="#05C0A5" fill-rule="nonzero" stroke="#FFFFFF" stroke-width="0.4">
            <g id="Group-8" transform="translate(470.000000, 254.000000)">
                <g id="Group-9" transform="translate(45.000000, 175.000000)">
                    <g id="Group-7" transform="translate(151.000000, 3.000000)">
                        <g id="no-share" transform="translate(26.000000, 0.000000)">
                            <path d="M25.75,48 C28.251125,48 30.32325,43.9423548 30.69175,43.1774194 L32.558375,43.1774194 C32.926875,43.9423548 34.999,48 37.500125,48 C40.219625,48 42.430375,45.8518495 42.497,43.1774194 L48,43.1774194 L48,38.2311828 L43.267875,38.2311828 C43.084625,36.9513441 42.78025,35.1166613 42.3305,33.2638011 C41.469125,29.7163602 39.888875,25 36.125,25 C34.39,25 32.858,25.8991022 31.75,26.6856774 C30.642,25.8991022 29.11,25 27.375,25 C23.611125,25 22.030875,29.7163602 21.1695,33.2638011 C20.719625,35.1166613 20.415375,36.9513441 20.232125,38.2311828 L15,38.2311828 L15,43.1774194 L20.753125,43.1774194 C20.819625,45.8518495 23.0305,48 25.75,48 Z M25.814875,35.3640968 C26.577625,31.8337204 27.343875,30.4808011 27.68275,30.0225323 C27.964125,30.136914 28.47975,30.4258978 29.4525,31.1615269 C30.169375,31.7037581 30.7885,32.172043 31.75,32.172043 C32.7115,32.172043 33.330625,31.7037581 34.0475,31.1615269 C34.372875,30.9155753 35.249,30.2527796 35.81875,30.0246344 C36.157125,30.4830269 36.91775,31.8285269 37.676375,35.3241559 C37.896625,36.3391237 38.07025,37.3246613 38.201,38.1568656 C37.971875,38.125086 37.738125,38.1075269 37.5,38.1075269 L25.5,38.1075269 L25.5,38.1138333 C25.433875,38.1170484 25.368375,38.1226129 25.303,38.1283011 C25.43125,37.3148925 25.600625,36.3559409 25.814875,35.3640968 Z" id="Shape"></path>
                            <path d="M55.6171875,0 L7.3828125,0 C3.31192969,0 0,3.30747458 0,7.37288136 L0,50.6271186 C0,54.6925254 3.31192969,58 7.3828125,58 L55.6171875,58 C59.6880703,58 63,54.6925254 63,50.6271186 L63,7.37288136 C63,3.30747458 59.6880703,0 55.6171875,0 Z M58.078125,50.6271186 C58.078125,51.9822542 56.9741484,53.0847458 55.6171875,53.0847458 L7.3828125,53.0847458 C6.02585156,53.0847458 4.921875,51.9822542 4.921875,50.6271186 L4.921875,19.6610169 L58.078125,19.6610169 L58.078125,50.6271186 Z M58.078125,14.7457627 L4.921875,14.7457627 L4.921875,7.37288136 C4.921875,6.01774576 6.02585156,4.91525424 7.3828125,4.91525424 L55.6171875,4.91525424 C56.9741484,4.91525424 58.078125,6.01774576 58.078125,7.37288136 L58.078125,14.7457627 Z" id="Shape"></path>
                            <circle id="Oval" cx="19.5" cy="9.5" r="2.5"></circle>
                            <circle id="Oval" cx="11.5" cy="9.5" r="2.5"></circle>
                        </g>
                    </g>
                </g>
            </g>
        </g>
    </g>
</svg>