<?xml version="1.0" encoding="UTF-8"?>
<svg width="64px" height="64px" viewBox="0 0 64 64" version="1.1" xmlns="http://www.w3.org/2000/svg" xmlns:xlink="http://www.w3.org/1999/xlink">
    <!-- Generator: Sketch 55.2 (78181) - https://sketchapp.com -->
    <title>icon\</title>
    <desc>Created with Sketch.</desc>
    <g id="icon\" stroke="none" stroke-width="1" fill="none" fill-rule="evenodd">
        <g id="notification" transform="translate(3.000000, 3.000000)" fill-rule="nonzero">
            <path d="M57.5754894,28.7877447 C57.5754894,44.6868355 44.6868355,57.5754894 28.7877447,57.5754894 C12.8886538,57.5754894 0,44.6868355 0,28.7877447 C0,12.8886538 12.8886538,0 28.7877447,0 C44.6868355,0 57.5754894,12.8886538 57.5754894,28.7877447 Z" id="Path" fill="#CDF4EE"></path>
            <g id="Group-4" transform="translate(12.733333, 10.000000)">
                <g id="Group" transform="translate(11.266667, 0.000000)">
                    <path d="M8.3835,31.1523333 C8.3835,29.2735922 9.135,25.1907516 4.5675,25.1907516 C-1.32671651e-13,25.1907516 0.729,29.2735922 0.729,31.1523333 C0.729,33.0310745 2.44239914,34.5543333 4.55625,34.5543333 C6.67010086,34.5543333 8.3835,33.0310745 8.3835,31.1523333 Z" id="Path" fill="#5A78F0"></path>
                    <path d="M4.55625,7.371 C2.74460672,7.371 1.27575,5.84774118 1.27575,3.969 C1.27575,2.09025882 2.74460672,0.567 4.55625,0.567 C6.36789328,0.567 7.83675,2.09025882 7.83675,3.969 C7.83675,5.84774118 6.36789328,7.371 4.55625,7.371 Z M4.55625,2.835 C3.95236886,2.835 3.46275,3.34275289 3.46275,3.969 C3.46275,4.59524711 3.95236886,5.103 4.55625,5.103 C5.16013114,5.103 5.64975,4.59524711 5.64975,3.969 C5.64975,3.34275289 5.16013114,2.835 4.55625,2.835 Z" id="Shape" fill="#00C0A5"></path>
                </g>
                <path d="M27.6952381,26.4545455 L26.552381,15.0909091 C26.552381,10.0704901 21.3157738,6 16.2666667,6 C11.2175595,6 5.98095238,10.0704901 5.98095238,15.0909091 L4.83809524,26.4545455 C2.03065413,28.0945444 0.266666667,28.4897905 0.266666667,31 L32.2666667,31 C32.2666667,28.4897905 30.6429916,28.4897905 27.6952381,26.4545455 Z" id="Path" fill="#00C0A5"></path>
            </g>
        </g>
    </g>
</svg>