<?xml version="1.0" encoding="UTF-8"?>
<svg width="32px" height="32px" viewBox="0 0 32 32" version="1.1" xmlns="http://www.w3.org/2000/svg" xmlns:xlink="http://www.w3.org/1999/xlink">
    <!-- Generator: Sketch 55.2 (78181) - https://sketchapp.com -->
    <title>Group 8</title>
    <desc>Created with Sketch.</desc>
    <defs>
        <filter x="-9.4%" y="-11.1%" width="118.8%" height="122.2%" filterUnits="objectBoundingBox" id="filter-1">
            <feOffset dx="0" dy="12" in="SourceAlpha" result="shadowOffsetOuter1"></feOffset>
            <feGaussianBlur stdDeviation="8.5" in="shadowOffsetOuter1" result="shadowBlurOuter1"></feGaussianBlur>
            <feColorMatrix values="0 0 0 0 0.0819970561   0 0 0 0 0.11507115   0 0 0 0 0.247367527  0 0 0 0.0332440997 0" type="matrix" in="shadowBlurOuter1" result="shadowMatrixOuter1"></feColorMatrix>
            <feMerge>
                <feMergeNode in="shadowMatrixOuter1"></feMergeNode>
                <feMergeNode in="SourceGraphic"></feMergeNode>
            </feMerge>
        </filter>
    </defs>
    <g id="Finalization" stroke="none" stroke-width="1" fill="none" fill-rule="evenodd">
        <g id="detail-1" transform="translate(-448.000000, -602.000000)">
            <g id="Group-28" filter="url(#filter-1)" transform="translate(420.000000, 143.000000)">
                <g id="Group-10" transform="translate(19.000000, 264.000000)">
                    <g id="Group-8" transform="translate(9.000000, 195.000000)">
                        <g id="printer-(1)" transform="translate(6.000000, 5.000000)">
                            <g>
                                <rect id="Rectangle" fill="#05C0A5" x="4.42105263" y="11" width="12.1578947" height="9.9"></rect>
                                <path d="M21,15.3506122 L21,7.31836735 C21,6.24979592 20.1405063,5.37877551 19.0860759,5.37877551 L17.0126582,5.37877551 L17.0126582,1.28857143 C17.0126582,0.579183673 16.4411392,0 15.7411392,0 L5.25,0 C4.55,0 3.97848101,0.579183673 3.97848101,1.28857143 L3.97848101,5.38326531 L1.91392405,5.38326531 C0.859493671,5.37877551 0,6.24979592 0,7.31836735 L0,15.3506122 C0,16.4191837 0.859493671,17.2902041 1.91392405,17.2902041 L3.98291139,17.2902041 L3.98291139,20.7114286 C3.98291139,21.4208163 4.55443038,22 5.25443038,22 L15.7455696,22 C16.4455696,22 17.0170886,21.4208163 17.0170886,20.7114286 L17.0170886,17.2902041 L19.0860759,17.2902041 C20.1405063,17.2902041 21,16.4236735 21,15.3506122 Z M5.06835443,1.28857143 C5.06835443,1.18530612 5.15253165,1.1 5.25443038,1.1 L15.7455696,1.1 C15.8474684,1.1 15.9316456,1.18530612 15.9316456,1.28857143 L15.9316456,5.38326531 L5.06835443,5.38326531 L5.06835443,1.28857143 Z M15.9316456,20.7114286 C15.9316456,20.8146939 15.8474684,20.9 15.7455696,20.9 L5.25443038,20.9 C5.15253165,20.9 5.06835443,20.8146939 5.06835443,20.7114286 L5.06835443,11.8844898 L15.9272152,11.8844898 L15.9272152,20.7114286 L15.9316456,20.7114286 Z M16.4721519,10.7844898 L4.5278481,10.7844898 C4.22658228,10.7844898 3.98291139,11.0314286 3.98291139,11.3367347 L3.98291139,16.1902041 L1.91392405,16.1902041 C1.45759494,16.1902041 1.08544304,15.8130612 1.08544304,15.3506122 L1.08544304,7.31836735 C1.08544304,6.85591837 1.45759494,6.47877551 1.91392405,6.47877551 L19.0816456,6.47877551 C19.5379747,6.47877551 19.9101266,6.85591837 19.9101266,7.31836735 L19.9101266,15.3506122 C19.9101266,15.8130612 19.5379747,16.1902041 19.0816456,16.1902041 L17.0126582,16.1902041 L17.0126582,11.3367347 C17.0170886,11.0314286 16.7734177,10.7844898 16.4721519,10.7844898 Z" id="Shape" stroke="#003945" stroke-width="0.2" fill="#003945" fill-rule="nonzero"></path>
                                <path d="M2.37227214,7.85521472 C2.26893453,7.95869121 2.21052632,8.09815951 2.21052632,8.24662577 C2.21052632,8.39059305 2.26893453,8.53456033 2.37227214,8.63803681 C2.47560976,8.74151329 2.61489089,8.8 2.76315789,8.8 C2.90693196,8.8 3.05070603,8.74151329 3.15404365,8.63803681 C3.25738126,8.53456033 3.31578947,8.39059305 3.31578947,8.24662577 C3.31578947,8.10265849 3.25738126,7.95869121 3.15404365,7.85521472 C2.94287548,7.64826176 2.57445443,7.64826176 2.37227214,7.85521472 Z" id="Shape" stroke="#003945" stroke-width="0.2" fill="#003945" fill-rule="nonzero"></path>
                                <path d="M13.7911154,15.4 L7.21361661,15.4 C6.89183969,15.4 6.63157895,15.645935 6.63157895,15.95 C6.63157895,16.254065 6.89183969,16.5 7.21361661,16.5 L13.7863834,16.5 C14.1081603,16.5 14.3684211,16.254065 14.3684211,15.95 C14.3684211,15.645935 14.1081603,15.4 13.7911154,15.4 Z" id="Shape" stroke="#003945" stroke-width="0.2" fill="#003945" fill-rule="nonzero"></path>
                                <path d="M13.7911154,17.6 L7.21361661,17.6 C6.89183969,17.6 6.63157895,17.845935 6.63157895,18.15 C6.63157895,18.454065 6.89183969,18.7 7.21361661,18.7 L13.7863834,18.7 C14.1081603,18.7 14.3684211,18.454065 14.3684211,18.15 C14.3684211,17.845935 14.1081603,17.6 13.7911154,17.6 Z" id="Shape" stroke="#003945" stroke-width="0.2" fill="#003945" fill-rule="nonzero"></path>
                                <path d="M13.7911154,13.2 L7.21361661,13.2 C6.89183969,13.2 6.63157895,13.445935 6.63157895,13.75 C6.63157895,14.054065 6.89183969,14.3 7.21361661,14.3 L13.7863834,14.3 C14.1081603,14.3 14.3684211,14.054065 14.3684211,13.75 C14.3684211,13.445935 14.1081603,13.2 13.7911154,13.2 Z" id="Shape" stroke="#003945" stroke-width="0.2" fill="#003945" fill-rule="nonzero"></path>
                            </g>
                        </g>
                    </g>
                </g>
            </g>
        </g>
    </g>
</svg>