<?xml version="1.0" encoding="UTF-8"?>
<svg width="21px" height="22px" viewBox="0 0 21 22" version="1.1" xmlns="http://www.w3.org/2000/svg" xmlns:xlink="http://www.w3.org/1999/xlink">
    <!-- Generator: Sketch 49.2 (51160) - http://www.bohemiancoding.com/sketch -->
    <title>printer (1)</title>
    <desc>Created with Sketch.</desc>
    <defs></defs>
    <g id="Desktop" stroke="none" stroke-width="1" fill="none" fill-rule="evenodd">
        <g id="create-wallet(Mnemonic-Phrase)2" transform="translate(-657.000000, -734.000000)" fill="#05C0A5" fill-rule="nonzero" stroke="#05C0A5" stroke-width="0.2">
            <g id="printer-(1)" transform="translate(658.000000, 735.000000)">
                <path d="M19,13.955102 L19,6.65306122 C19,5.68163265 18.2223629,4.88979592 17.2683544,4.88979592 L15.3924051,4.88979592 L15.3924051,1.17142857 C15.3924051,0.526530612 14.8753165,0 14.2419831,0 L4.75,0 C4.11666667,0 3.59957806,0.526530612 3.59957806,1.17142857 L3.59957806,4.89387755 L1.73164557,4.89387755 C0.777637131,4.88979592 0,5.68163265 0,6.65306122 L0,13.955102 C0,14.9265306 0.777637131,15.7183673 1.73164557,15.7183673 L3.6035865,15.7183673 L3.6035865,18.8285714 C3.6035865,19.4734694 4.12067511,20 4.75400844,20 L14.2459916,20 C14.8793249,20 15.3964135,19.4734694 15.3964135,18.8285714 L15.3964135,15.7183673 L17.2683544,15.7183673 C18.2223629,15.7183673 19,14.9306122 19,13.955102 Z M4.58565401,1.17142857 C4.58565401,1.07755102 4.66181435,1 4.75400844,1 L14.2459916,1 C14.3381857,1 14.414346,1.07755102 14.414346,1.17142857 L14.414346,4.89387755 L4.58565401,4.89387755 L4.58565401,1.17142857 Z M14.414346,18.8285714 C14.414346,18.922449 14.3381857,19 14.2459916,19 L4.75400844,19 C4.66181435,19 4.58565401,18.922449 4.58565401,18.8285714 L4.58565401,10.8040816 L14.4103376,10.8040816 L14.4103376,18.8285714 L14.414346,18.8285714 Z M14.9033755,9.80408163 L4.09662447,9.80408163 C3.82405063,9.80408163 3.6035865,10.0285714 3.6035865,10.3061224 L3.6035865,14.7183673 L1.73164557,14.7183673 C1.31877637,14.7183673 0.982067511,14.3755102 0.982067511,13.955102 L0.982067511,6.65306122 C0.982067511,6.23265306 1.31877637,5.88979592 1.73164557,5.88979592 L17.264346,5.88979592 C17.6772152,5.88979592 18.0139241,6.23265306 18.0139241,6.65306122 L18.0139241,13.955102 C18.0139241,14.3755102 17.6772152,14.7183673 17.264346,14.7183673 L15.3924051,14.7183673 L15.3924051,10.3061224 C15.3964135,10.0285714 15.1759494,9.80408163 14.9033755,9.80408163 Z" id="Shape"></path>
                <path d="M2.14634146,7.14110429 C2.05284553,7.23517382 2,7.36196319 2,7.49693252 C2,7.62781186 2.05284553,7.75869121 2.14634146,7.85276074 C2.2398374,7.94683027 2.36585366,8 2.5,8 C2.6300813,8 2.7601626,7.94683027 2.85365854,7.85276074 C2.94715447,7.75869121 3,7.62781186 3,7.49693252 C3,7.36605317 2.94715447,7.23517382 2.85365854,7.14110429 C2.66260163,6.95296524 2.32926829,6.95296524 2.14634146,7.14110429 Z" id="Shape"></path>
                <path d="M11.5522936,14 L6.45137615,14 C6.20183486,14 6,14.2235772 6,14.5 C6,14.7764228 6.20183486,15 6.45137615,15 L11.5486239,15 C11.7981651,15 12,14.7764228 12,14.5 C12,14.2235772 11.7981651,14 11.5522936,14 Z" id="Shape"></path>
                <path d="M11.5522936,16 L6.45137615,16 C6.20183486,16 6,16.2235772 6,16.5 C6,16.7764228 6.20183486,17 6.45137615,17 L11.5486239,17 C11.7981651,17 12,16.7764228 12,16.5 C12,16.2235772 11.7981651,16 11.5522936,16 Z" id="Shape"></path>
                <path d="M11.5522936,12 L6.45137615,12 C6.20183486,12 6,12.2235772 6,12.5 C6,12.7764228 6.20183486,13 6.45137615,13 L11.5486239,13 C11.7981651,13 12,12.7764228 12,12.5 C12,12.2235772 11.7981651,12 11.5522936,12 Z" id="Shape"></path>
            </g>
        </g>
    </g>
</svg>