<?xml version="1.0" encoding="UTF-8"?>
<svg width="19px" height="20px" viewBox="0 0 19 20" version="1.1" xmlns="http://www.w3.org/2000/svg" xmlns:xlink="http://www.w3.org/1999/xlink">
    <!-- Generator: Sketch 49.2 (51160) - http://www.bohemiancoding.com/sketch -->
    <title>printer (1)</title>
    <desc>Created with Sketch.</desc>
    <defs></defs>
    <g id="Symbols" stroke="none" stroke-width="1" fill="none" fill-rule="evenodd">
        <g id="address-box" transform="translate(-127.000000, -105.000000)" fill="#FFFFFF" fill-rule="nonzero">
            <g id="printer-(1)" transform="translate(128.000000, 106.000000)">
                <path d="M17,12.5595918 L17,5.9877551 C17,5.11346939 16.3042194,4.40081633 15.4506329,4.40081633 L13.7721519,4.40081633 L13.7721519,1.05428571 C13.7721519,0.473877551 13.3094937,0 12.742827,0 L4.25,0 C3.68333333,0 3.22067511,0.473877551 3.22067511,1.05428571 L3.22067511,4.4044898 L1.54936709,4.4044898 C0.695780591,4.40081633 0,5.11346939 0,5.9877551 L0,12.5595918 C0,13.4338776 0.695780591,14.1465306 1.54936709,14.1465306 L3.2242616,14.1465306 L3.2242616,16.9457143 C3.2242616,17.5261224 3.68691983,18 4.2535865,18 L12.7464135,18 C13.3130802,18 13.7757384,17.5261224 13.7757384,16.9457143 L13.7757384,14.1465306 L15.4506329,14.1465306 C16.3042194,14.1465306 17,13.437551 17,12.5595918 Z M4.10295359,1.05428571 C4.10295359,0.969795918 4.17109705,0.9 4.2535865,0.9 L12.7464135,0.9 C12.828903,0.9 12.8970464,0.969795918 12.8970464,1.05428571 L12.8970464,4.4044898 L4.10295359,4.4044898 L4.10295359,1.05428571 Z M12.8970464,16.9457143 C12.8970464,17.0302041 12.828903,17.1 12.7464135,17.1 L4.2535865,17.1 C4.17109705,17.1 4.10295359,17.0302041 4.10295359,16.9457143 L4.10295359,9.72367347 L12.8934599,9.72367347 L12.8934599,16.9457143 L12.8970464,16.9457143 Z M13.3345992,8.82367347 L3.66540084,8.82367347 C3.42151899,8.82367347 3.2242616,9.02571429 3.2242616,9.2755102 L3.2242616,13.2465306 L1.54936709,13.2465306 C1.17995781,13.2465306 0.878691983,12.9379592 0.878691983,12.5595918 L0.878691983,5.9877551 C0.878691983,5.60938776 1.17995781,5.30081633 1.54936709,5.30081633 L15.4470464,5.30081633 C15.8164557,5.30081633 16.1177215,5.60938776 16.1177215,5.9877551 L16.1177215,12.5595918 C16.1177215,12.9379592 15.8164557,13.2465306 15.4470464,13.2465306 L13.7721519,13.2465306 L13.7721519,9.2755102 C13.7757384,9.02571429 13.578481,8.82367347 13.3345992,8.82367347 Z" id="Shape" stroke="#FFFFFF" stroke-width="0.2"></path>
                <path d="M2.14634146,7.14110429 C2.05284553,7.23517382 2,7.36196319 2,7.49693252 C2,7.62781186 2.05284553,7.75869121 2.14634146,7.85276074 C2.2398374,7.94683027 2.36585366,8 2.5,8 C2.6300813,8 2.7601626,7.94683027 2.85365854,7.85276074 C2.94715447,7.75869121 3,7.62781186 3,7.49693252 C3,7.36605317 2.94715447,7.23517382 2.85365854,7.14110429 C2.66260163,6.95296524 2.32926829,6.95296524 2.14634146,7.14110429 Z" id="Shape" stroke="#FFFFFF" stroke-width="0.2"></path>
                <path d="M10.6269113,13 L6.37614679,13 C6.16819572,13 6,13.2235772 6,13.5 C6,13.7764228 6.16819572,14 6.37614679,14 L10.6238532,14 C10.8318043,14 11,13.7764228 11,13.5 C11,13.2235772 10.8318043,13 10.6269113,13 Z" id="Shape"></path>
                <path d="M10.6269113,15 L6.37614679,15 C6.16819572,15 6,15.2235772 6,15.5 C6,15.7764228 6.16819572,16 6.37614679,16 L10.6238532,16 C10.8318043,16 11,15.7764228 11,15.5 C11,15.2235772 10.8318043,15 10.6269113,15 Z" id="Shape"></path>
                <path d="M10.6269113,11 L6.37614679,11 C6.16819572,11 6,11.2235772 6,11.5 C6,11.7764228 6.16819572,12 6.37614679,12 L10.6238532,12 C10.8318043,12 11,11.7764228 11,11.5 C11,11.2235772 10.8318043,11 10.6269113,11 Z" id="Shape"></path>
            </g>
        </g>
    </g>
</svg>