<?xml version="1.0" encoding="UTF-8"?>
<svg width="32px" height="32px" viewBox="0 0 32 32" version="1.1" xmlns="http://www.w3.org/2000/svg" xmlns:xlink="http://www.w3.org/1999/xlink">
    <!-- Generator: Sketch 55.1 (78136) - https://sketchapp.com -->
    <title>Group 14</title>
    <desc>Created with Sketch.</desc>
    <g id="View-Wallet-Info" stroke="none" stroke-width="1" fill="none" fill-rule="evenodd">
        <g id="view-wallet-info-2" transform="translate(-414.000000, -636.000000)">
            <g id="Group-23" transform="translate(311.000000, 288.000000)">
                <g id="Group-12" transform="translate(102.000000, 348.000000)">
                    <g id="Group-19" transform="translate(1.000000, 0.000000)">
                        <g id="Group-18" transform="translate(5.000000, 5.000000)">
                            <g id="Group-17" stroke="#003945" stroke-width="1.8">
                                <rect id="Rectangle" fill="#05C0A5" x="0.9" y="0.9" width="8.2" height="8.2" rx="2"></rect>
                                <rect id="Rectangle-Copy-2" fill="#FFFFFF" x="0.9" y="12.9" width="8.2" height="8.2" rx="2"></rect>
                                <rect id="Rectangle-Copy" fill="#FFFFFF" x="12.9" y="0.9" width="8.2" height="8.2" rx="2"></rect>
                            </g>
                            <path d="M18,16 L21,16 C21.5522847,16 22,16.4477153 22,17 L22,21 C22,21.5522847 21.5522847,22 21,22 L17,22 C16.4477153,22 16,21.5522847 16,21 L16,18 L13,18 C12.4477153,18 12,17.5522847 12,17 L12,13 C12,12.4477153 12.4477153,12 13,12 L17,12 C17.5522847,12 18,12.4477153 18,13 L18,16 Z" id="Combined-Shape" fill="#003945"></path>
                        </g>
                    </g>
                </g>
            </g>
        </g>
    </g>
</svg>