<?xml version="1.0" encoding="UTF-8"?>
<svg width="40px" height="40px" viewBox="0 0 40 40" version="1.1" xmlns="http://www.w3.org/2000/svg" xmlns:xlink="http://www.w3.org/1999/xlink">
    <!-- Generator: Sketch 53 (72520) - https://sketchapp.com -->
    <title>qr-code</title>
    <desc>Created with Sketch.</desc>
    <g id="Mobile" stroke="none" stroke-width="1" fill="none" fill-rule="evenodd">
        <g id="Send-ETH-&amp;-tokens-Copy" transform="translate(-294.000000, -91.000000)" fill="#FFFFFF" fill-rule="nonzero">
            <g id="Group-3" transform="translate(10.000000, 83.000000)">
                <g id="qr-code" transform="translate(284.000000, 8.000000)">
                    <path d="M10.4118884,7.83119808 C10.0714492,7.49185636 9.601905,7.2972973 9.12162162,7.2972973 C8.64125985,7.2972973 8.17163724,7.49185636 7.83119808,7.83119808 C7.49185636,8.17171563 7.2972973,8.64118146 7.2972973,9.12162162 C7.2972973,9.60206178 7.49185636,10.0714492 7.83119808,10.4120452 C8.17053981,10.7513869 8.64118146,10.9459459 9.12162162,10.9459459 C9.601905,10.9459459 10.0714492,10.7513869 10.4118884,10.4120452 C10.7512301,10.0715276 10.9459459,9.60206178 10.9459459,9.12162162 C10.9459459,8.64118146 10.7512301,8.17171563 10.4118884,7.83119808 Z" id="Path"></path>
                    <path d="M16.2972817,0 L1.81082637,0 C0.810759713,0 0,0.810759713 0,1.81082637 L0,16.2972817 C0,17.2973484 0.810759713,18.1081081 1.81082637,18.1081081 L16.2972817,18.1081081 C17.2973484,18.1081081 18.1081081,17.2973484 18.1081081,16.2972817 L18.1081081,1.81082637 C18.1080303,0.810759713 17.2972706,0 16.2972817,0 Z M14.4864554,14.4864554 L3.62157494,14.4864554 L3.62157494,3.62157494 L14.4864554,3.62157494 L14.4864554,14.4864554 L14.4864554,14.4864554 Z" id="Shape"></path>
                    <path d="M32.0324126,7.83119808 C31.6930708,7.49185636 31.223605,7.2972973 30.7432432,7.2972973 C30.2628815,7.2972973 29.7921614,7.49185636 29.4528197,7.83119808 C29.113478,8.17171563 28.9189189,8.64118146 28.9189189,9.12162162 C28.9189189,9.60206178 29.113478,10.0714492 29.4528197,10.4120452 C29.7921614,10.7513869 30.2628031,10.9459459 30.7432432,10.9459459 C31.2235266,10.9459459 31.6929925,10.7513869 32.0324126,10.4120452 C32.3729301,10.0715276 32.5675676,9.60206178 32.5675676,9.12162162 C32.5675676,8.64118146 32.3728517,8.17171563 32.0324126,7.83119808 Z" id="Path"></path>
                    <path d="M38.0540385,0 L23.5675831,0 C22.5675165,0 21.7567568,0.810759713 21.7567568,1.81082637 L21.7567568,16.2972817 C21.7567568,17.2973484 22.5675165,18.1081081 23.5675831,18.1081081 L38.0540385,18.1081081 C39.0541052,18.1081081 39.8648649,17.2973484 39.8648649,16.2972817 L39.8648649,1.81082637 C39.8648649,0.810759713 39.0541052,0 38.0540385,0 Z M36.2432899,14.4864554 L25.3784095,14.4864554 L25.3784095,3.62157494 L36.2432899,3.62157494 L36.2432899,14.4864554 L36.2432899,14.4864554 Z" id="Shape"></path>
                    <path d="M10.4118884,29.5879548 C10.0713708,29.2486131 9.601905,29.0540541 9.12162162,29.0540541 C8.64125985,29.0540541 8.17163724,29.2486131 7.83119808,29.5879548 C7.49185636,29.9284724 7.2972973,30.3979382 7.2972973,30.8783784 C7.2972973,31.3588185 7.49185636,31.828206 7.83119808,32.1688019 C8.17053981,32.5081436 8.64118146,32.7027027 9.12162162,32.7027027 C9.601905,32.7027027 10.0714492,32.5081436 10.4118884,32.1688019 C10.7512301,31.8282844 10.9459459,31.3588185 10.9459459,30.8783784 C10.9459459,30.3979382 10.7512301,29.9284724 10.4118884,29.5879548 Z" id="Path"></path>
                    <path d="M16.2972817,21.7567568 L1.81082637,21.7567568 C0.810759713,21.7567568 0,22.56752 0,23.5675131 L0,38.0540307 C0,39.0541017 0.810759713,39.8648649 1.81082637,39.8648649 L16.2972817,39.8648649 C17.2973484,39.8648649 18.1081081,39.0541017 18.1081081,38.0540307 L18.1081081,23.5675131 C18.1080303,22.56752 17.2972706,21.7567568 16.2972817,21.7567568 Z M14.4864554,36.2432744 L3.62157494,36.2432744 L3.62157494,25.3783473 L14.4864554,25.3783473 L14.4864554,36.2432744 L14.4864554,36.2432744 Z" id="Shape"></path>
                    <path d="M31.9594497,29.0540541 L30.743253,29.0540541 C29.7357264,29.0540541 28.9189189,29.8708572 28.9189189,30.8783784 C28.9189189,31.8858996 29.7357264,32.7027027 30.743253,32.7027027 L31.9594497,32.7027027 C32.9669763,32.7027027 33.7837838,31.8858996 33.7837838,30.8783784 C33.7837838,29.8708572 32.9669763,29.0540541 31.9594497,29.0540541 Z" id="Path"></path>
                    <path d="M38.0405307,32.7027027 C37.0330041,32.7027027 36.2161966,33.5195058 36.2161966,34.527027 L36.2161966,36.3513514 L31.9594693,36.3513514 C30.9519427,36.3513514 30.1351351,37.1681545 30.1351351,38.1756757 C30.1351351,39.1831969 30.9519427,40 31.9594693,40 L38.0405307,40 C39.0480573,39.9999216 39.8648649,39.1831185 39.8648649,38.1755973 L39.8648649,34.527027 C39.8648649,33.5195058 39.0480573,32.7027027 38.0405307,32.7027027 Z" id="Path"></path>
                    <path d="M23.5810811,29.0540541 C22.5735599,29.0540541 21.7567568,29.8708642 21.7567568,30.8783941 L21.7567568,33.3107951 C21.7567568,34.318325 22.5735599,35.1351351 23.5810811,35.1351351 C24.5886023,35.1351351 25.4054054,34.318325 25.4054054,33.3107951 L25.4054054,30.8783941 C25.4054054,29.8708642 24.5886023,29.0540541 23.5810811,29.0540541 Z" id="Path"></path>
                    <path d="M31.9594399,21.7567568 L28.3108304,21.7567568 C27.3032984,21.7567568 26.4864865,22.5735599 26.4864865,23.5810811 C26.4864865,24.5886023 27.3032984,25.4054054 28.3108304,25.4054054 L31.9594399,25.4054054 C32.9669719,25.4054054 33.7837838,24.5886023 33.7837838,23.5810811 C33.7837838,22.5735599 32.9669719,21.7567568 31.9594399,21.7567568 Z" id="Path"></path>
                </g>
            </g>
        </g>
    </g>
</svg>