<?xml version="1.0" ?><!DOCTYPE svg  PUBLIC '-//W3C//DTD SVG 1.1//EN'  'http://www.w3.org/Graphics/SVG/1.1/DTD/svg11.dtd'><svg enable-background="new 0 0 24 24" height="24px" id="Layer_1" version="1.1" viewBox="0 0 24 24" width="24px" xml:space="preserve" xmlns="http://www.w3.org/2000/svg" xmlns:xlink="http://www.w3.org/1999/xlink"><g id="icon"><circle cx="12.0017" cy="12.0017" fill="#FC5E49" r="10.9983"/><path d="M18.9704,11.9968c-0.0312,-0.8415,-0.7376,-1.4986,-1.5817,-1.47c-0.374,0.013,-0.7298,0.1662,-0.9999,0.4233c-1.1895,-0.8103,-2.5868,-1.2544,-4.023,-1.2856l0.6779,-3.2594l2.2362,0.4701c0.0623,0.574,0.5766,0.9895,1.1505,0.9272c0.574,-0.0623,0.9895,-0.5766,0.9272,-1.1505s-0.5766,-0.9895,-1.1505,-0.9272c-0.3298,0.0338,-0.6259,0.226,-0.7895,0.5116l-2.5608,-0.5116c-0.174,-0.039,-0.348,0.0701,-0.387,0.2467c0,0.0026,0,0.0026,0,0.0052l-0.7714,3.6256c-1.4544,0.0234,-2.8699,0.4701,-4.0749,1.2856c-0.6129,-0.5766,-1.5791,-0.548,-2.1556,0.0675c-0.5766,0.6129,-0.548,1.5791,0.0675,2.1556c0.1195,0.1117,0.2571,0.2078,0.4104,0.2753c-0.0104,0.1532,-0.0104,0.3065,0,0.4597c0,2.34,2.727,4.2438,6.0903,4.2438s6.0903,-1.9011,6.0903,-4.2438c0.0104,-0.1532,0.0104,-0.3065,0,-0.4597C18.651,13.1239,18.9808,12.5837,18.9704,11.9968zM8.522,13.0434c0,-0.5766,0.4701,-1.0467,1.0467,-1.0467s1.0467,0.4701,1.0467,1.0467c0,0.5766,-0.4701,1.0467,-1.0467,1.0467C8.9895,14.0849,8.522,13.62,8.522,13.0434zM14.5916,15.9159c-0.7428,0.5584,-1.6518,0.8441,-2.5816,0.8051c-0.9298,0.039,-1.8388,-0.2467,-2.5816,-0.8051c-0.0987,-0.1195,-0.0805,-0.2987,0.039,-0.3974c0.1039,-0.0857,0.2519,-0.0857,0.3584,0c0.6285,0.4597,1.3947,0.6934,2.1738,0.6571c0.7791,0.0416,1.5479,-0.1818,2.1842,-0.6363c0.1143,-0.1117,0.3013,-0.1091,0.4129,0.0052s0.1091,0.3013,-0.0052,0.413l0,0V15.9159L14.5916,15.9159zM14.4046,14.1264c-0.5766,0,-1.0467,-0.4701,-1.0467,-1.0467c0,-0.5766,0.4701,-1.0467,1.0467,-1.0467s1.0467,0.4701,1.0467,1.0467c0.0234,0.5766,-0.4259,1.0622,-1.0025,1.0856c-0.0182,0,-0.0338,0,-0.0519,0L14.4046,14.1264z" fill="#FFFFFF"/><path d="M4.2218,19.7782C6.2124,21.7688,8.9624,23,12,23c6.0751,0,11,-4.9249,11,-11c0,-3.0376,-1.2312,-5.7876,-3.2218,-7.7782L4.2218,19.7782z" fill="#231F20" opacity="0.1"/></g></svg>