<?xml version="1.0" encoding="UTF-8"?>
<svg width="28px" height="23px" viewBox="0 0 28 23" version="1.1" xmlns="http://www.w3.org/2000/svg" xmlns:xlink="http://www.w3.org/1999/xlink">
    <!-- Generator: Sketch 55.2 (78181) - https://sketchapp.com -->
    <title>Icon</title>
    <desc>Created with Sketch.</desc>
    <g id="My-wallet-screens" stroke="none" stroke-width="1" fill="none" fill-rule="evenodd">
        <g id="MEW-wallet---Wallet---Full---No-internet-connection" transform="translate(-312.000000, -57.000000)" fill="#202124">
            <g id="Main-navbar" transform="translate(20.000000, 48.000000)">
                <g id="Elements/Navbar/Icons/Scan-Camera" transform="translate(292.000000, 9.000000)">
                    <path d="M3,4.5 L4.80862813,4.19856198 C5.307645,4.1153925 5.47665114,4.06957093 5.66035916,3.99533901 C5.84406718,3.92110709 6.00174102,3.82525418 6.15220469,3.69633677 C6.30266837,3.56741937 6.42114311,3.43847586 6.72468322,3.03375571 L7.759213,1.65438266 C8.21901178,1.04131763 8.44755341,0.80559221 8.72596764,0.592258876 C9.00438187,0.378925543 9.30051131,0.230860824 9.63822652,0.136129438 C9.97594172,0.0413980524 10.301647,1.15485495e-12 11.0679783,1.15399337e-12 L16.9320217,1.15473628e-12 C17.698353,1.15459551e-12 18.0240583,0.0413980524 18.3617735,0.136129438 C18.6994887,0.230860824 18.9956181,0.378925543 19.2740324,0.592258876 C19.5524466,0.80559221 19.7809882,1.04131763 20.240787,1.65438266 L21.2753168,3.03375571 C21.5788569,3.43847586 21.6973316,3.56741937 21.8477953,3.69633677 C21.998259,3.82525418 22.1559328,3.92110709 22.3396408,3.99533901 C22.5233489,4.06957093 22.692355,4.1153925 23.1913719,4.19856198 L25,4.5 C26.7311658,4.78852764 28,6.28633617 28,8.04138127 L28,17.8722296 C28,19.6552671 27.8143488,20.3018396 27.4657346,20.9536914 C27.1171204,21.6055433 26.6055433,22.1171204 25.9536914,22.4657346 C25.3018396,22.8143488 24.6552671,23 22.8722296,23 L5.1277704,23 C3.34473292,23 2.69816044,22.8143488 2.04630859,22.4657346 C1.39445674,22.1171204 0.882879593,21.6055433 0.534265408,20.9536914 C0.185651222,20.3018396 -1.38475586e-13,19.6552671 -1.38693946e-13,17.8722296 L-1.38555833e-13,8.04138127 C-1.38326675e-13,6.28633617 1.26883418,4.78852764 3,4.5 Z M14,6 C10.1340068,6 7,9.13400675 7,13 C7,16.8659932 10.1340068,20 14,20 C17.8659932,20 21,16.8659932 21,13 C21,9.13400675 17.8659932,6 14,6 Z M16,10 L15,10 L15,9 L16,9 L17,9 L17,10 L17,11 L16,11 L16,10 Z M10,16 L10,15 L10,14 L11,14 L11,15 L12,15 L12,16 L11,16 L11,17 L10,17 L10,16 Z M18,12 L18,13 L17,13 L17,12 L17,11 L18,11 L18,12 Z M13,16 L13,15 L14,15 L14,16 L14,17 L13,17 L13,16 Z M17,16 L16,16 L15,16 L15,15 L16,15 L16,14 L17,14 L18,14 L18,15 L18,16 L18,17 L17,17 L17,16 Z M10,9 L14,9 L14,13 L10,13 L10,9 Z M11,10 L11,12 L13,12 L13,10 L11,10 Z M12,14 L13,14 L13,15 L12,15 L12,14 Z M15,13 L16,13 L16,14 L15,14 L15,13 Z M15,11 L16,11 L16,12 L15,12 L15,11 Z" id="Icon"></path>
                </g>
            </g>
        </g>
    </g>
</svg>