<?xml version="1.0" encoding="UTF-8"?>
<svg width="52px" height="52px" viewBox="0 0 52 52" version="1.1" xmlns="http://www.w3.org/2000/svg" xmlns:xlink="http://www.w3.org/1999/xlink">
    <!-- Generator: Sketch 57.1 (83088) - https://sketch.com -->
    <title>Artboard Copy</title>
    <desc>Created with Sketch.</desc>
    <g id="Artboard-Copy" stroke="none" stroke-width="1" fill="none" fill-rule="evenodd">
        <path d="M26,20 L26,27 L26,20 Z" id="Rectangle" fill="#000000"></path>
        <g id="Group-10" transform="translate(12.000000, 3.000000)" fill="#002747">
            <g id="Secalot-Copy">
                <path d="M21.8159341,28.6697674 L6.27433281,28.6697674 C4.84376792,28.6697674 3.68406593,27.5442321 3.68406593,26.155814 L3.68406593,6.04418605 C3.68406593,4.65576787 4.84376792,3.53023256 6.27433281,3.53023256 L21.8159341,3.53023256 C23.246499,3.53023256 24.4062009,4.65576787 24.4062009,6.04418605 L24.4062009,26.155814 C24.4062009,27.5442321 23.246499,28.6697674 21.8159341,28.6697674 Z M16.9052198,42.4697674 L11.1850471,42.4697674 C9.60546503,42.4697674 8.32496075,41.3202846 8.32496075,39.9023256 L8.32496075,32.2 L19.7653061,32.2 L19.7653061,39.9023256 C19.7653061,41.3202846 18.4848019,42.4697674 16.9052198,42.4697674 Z M0.12244898,4.6 L0.12244898,27.6 C0.12244898,30.1405098 2.20024836,32.2 4.7633438,32.2 L4.7633438,41.4 C4.7633438,43.9405098 6.84114318,46 9.40423862,46 L18.6860283,46 C21.2491237,46 23.3269231,43.9405098 23.3269231,41.4 L23.3269231,32.2 C25.8900185,32.2 27.9678179,30.1405098 27.9678179,27.6 L27.9678179,4.6 C27.9678179,2.05949015 25.8900185,0 23.3269231,0 L4.7633438,0 C2.20024836,0 0.12244898,2.05949015 0.12244898,4.6 Z" id="usb-[#196]" fill-rule="nonzero"></path>
                <polygon id="Rectangle-5" transform="translate(10.733615, 10.624639) scale(-1, 1) rotate(45.000000) translate(-10.733615, -10.624639) " points="-2.15209709 8.747561 23.6364466 8.63343592 23.6193278 12.5017174 -2.16921585 12.6158425"></polygon>
                <polygon id="Rectangle-5-Copy" transform="translate(16.130005, 20.252546) scale(-1, 1) rotate(45.000000) translate(-16.130005, -20.252546) " points="2.16976958 18.3802232 30.1073586 18.2565877 30.0902398 22.1248691 2.15265082 22.2485046"></polygon>
            </g>
            <ellipse id="Oval" cx="14" cy="36.5" rx="3" ry="2.5"></ellipse>
        </g>
    </g>
</svg>