<?xml version="1.0" encoding="UTF-8"?>
<svg width="20px" height="20px" viewBox="0 0 20 20" version="1.1" xmlns="http://www.w3.org/2000/svg" xmlns:xlink="http://www.w3.org/1999/xlink">
    <!-- Generator: Sketch 55.2 (78181) - https://sketchapp.com -->
    <title>Artboard</title>
    <desc>Created with Sketch.</desc>
    <g id="Artboard" stroke="none" stroke-width="1" fill="none" fill-rule="evenodd">
        <g id="shield" transform="translate(2.000000, 1.000000)">
            <path d="M15.9813552,4.88369749 C16.0232133,6.99801637 16.0752494,9.62937928 15.1546564,12.0205536 C14.6499214,13.3316345 13.8861533,14.4716034 12.884711,15.4085998 C11.7446493,16.475235 10.2516603,17.3225556 8.4473153,17.9270782 C8.38796843,17.9468536 8.32661472,17.9629211 8.26454419,17.9747314 C8.1769574,17.9916229 8.08851053,18 8.00020701,18 C7.91190348,18 7.82359995,17.9916229 7.73586982,17.9747314 C7.67379933,17.9629211 7.61287564,17.946991 7.55410217,17.9273529 C5.74732022,17.3237915 4.25275435,16.4768829 3.11154589,15.4101105 C2.10967356,14.473526 1.34604875,13.3339691 0.84174384,12.0230255 C-0.075408738,9.6389923 -0.0232293434,7.01271056 0.0187721635,4.90237425 L0.0196322445,4.86982726 C0.0278031787,4.69569396 0.0333938334,4.5127716 0.0365475492,4.31048584 C0.0518859593,3.31787109 0.875431072,2.49691774 1.91156404,2.44157411 C4.07184678,2.32594298 5.74301975,1.6511078 7.17092793,0.317916879 L7.18325604,0.306655875 C7.64885647,-0.102172852 8.35141424,-0.102310172 8.81730135,0.306793195 L8.82948608,0.317916879 C10.2573943,1.6511078 11.9285672,2.32594298 14.08885,2.44157411 C15.124983,2.49691774 15.9485281,3.31787109 15.9638665,4.31034852 C15.9671635,4.51387023 15.9726108,4.69692991 15.9807818,4.86982726 L15.9813552,4.88369749 Z" id="Combined-Shape" fill="#05C0A5" fill-rule="nonzero"></path>
            <g id="Group-7" transform="translate(4.600000, 6.400000)" stroke="#FFFFFF" stroke-linecap="round" stroke-width="1.5">
                <path d="M0.45,2.6 L2.91185746,5.06185746" id="Line"></path>
                <path d="M2.91185746,5.06185746 L7.03087303,0.942841893" id="Line-2"></path>
            </g>
        </g>
    </g>
</svg>