<?xml version="1.0" ?><svg id="Lager_1" style="enable-background:new 0 0 128 128;" version="1.1" viewBox="0 0 128 128" xml:space="preserve" xmlns="http://www.w3.org/2000/svg" xmlns:xlink="http://www.w3.org/1999/xlink"><style type="text/css">
	.st0{fill:#FFFFFF;}
	.st1{fill:#DFA22F;}
	.st2{fill:#3CB187;}
	.st3{fill:#CE1E5B;}
	.st4{fill:#392538;}
	.st5{fill:#BB242A;}
	.st6{fill:#72C5CD;}
	.st7{fill:#248C73;}
	.st8{fill:#62803A;}
	.st9{fill:#443642;}
</style><g><polygon class="st0" points="80.4,31.9 80.4,31.9 31.9,47.6 47.7,96.1 96.1,80.4 80.4,31.9  "/><path class="st1" d="M96.1,80.4L96.1,80.4L96.1,80.4l16.7-5.4c0.8-3.5,1.2-7.2,1.2-10.9c0-14.9-6.6-28.4-17-37.5l-16.7,5.4   L96.1,80.4z"/><path class="st2" d="M47.7,96.1L47.7,96.1L31.9,47.6l0,0c0,0,0,0,0,0c-5.7,1.9-11.3,3.7-16.7,5.4C14.4,56.6,14,60.2,14,64   c0,15,6.6,28.4,17,37.5L47.7,96.1L47.7,96.1z"/><path class="st3" d="M47.7,96.1l5.4,16.7c3.5,0.8,7.2,1.2,10.9,1.2c15,0,28.4-6.6,37.5-17l-5.4-16.7L47.7,96.1z"/><polygon class="st3" points="96.1,80.4 101.5,97 101.5,97 96.1,80.4  "/><polygon class="st3" points="47.7,96.1 53.1,112.8 53.1,112.8 47.7,96.1  "/><polygon class="st4" points="47.7,96.1 47.6,96.1 31,101.5 31,101.5  "/><path class="st4" d="M31,101.5c6.2,5.5,13.7,9.4,22.1,11.3l-5.4-16.7L31,101.5z"/><polygon class="st5" points="96.1,80.4 112.8,74.9 112.8,74.9 96.1,80.4  "/><path class="st5" d="M96.1,80.4l5.4,16.7c5.5-6.2,9.4-13.7,11.3-22.1L96.1,80.4z"/><path class="st6" d="M80.4,31.9l-5.4-16.7C71.4,14.4,67.8,14,64,14c-14.9,0-28.4,6.6-37.5,17l5.4,16.7L80.4,31.9z"/><path class="st6" d="M31.9,47.6L26.5,31c0,0,0,0,0,0C28.2,36.3,30,41.9,31.9,47.6L31.9,47.6z"/><path class="st7" d="M31.9,47.6l-16.7,5.4c0,0,0,0,0,0C20.6,51.3,26.2,49.5,31.9,47.6C31.9,47.6,31.9,47.6,31.9,47.6z"/><path class="st7" d="M31.9,47.6C30,41.9,28.2,36.3,26.5,31c-5.5,6.2-9.4,13.8-11.3,22.1L31.9,47.6z"/><ellipse class="st8" cx="80.4" cy="31.9" rx="0" ry="0" transform="matrix(0.5039 -0.8638 0.8638 0.5039 12.3121 85.2418)"/><polygon class="st8" points="80.4,31.9 80.4,31.9 97,26.5 97,26.5  "/><polygon class="st8" points="80.4,31.9 74.9,15.2 74.9,15.2 80.4,31.9  "/><path class="st8" d="M74.9,15.2l5.4,16.7L97,26.5C90.8,21,83.3,17.1,74.9,15.2z"/></g><path class="st9" d="M47.4,55.6c0-8,5.8-13.6,16.4-13.6c6.5,0,11.8,2.1,14.6,4.1c0.4,0.3,1.1,1,0.7,2.3c-0.6,1.4-1.6,3.5-2.3,4.9  c-0.4,0.8-1.5,0.7-2.1,0.4c-2-1-5.4-2.8-8.5-3.1c-0.8-0.1-1.6-0.1-2.3-0.1c-2.7,0.1-5,1-5.8,3.1c-0.2,0.4-0.2,0.8-0.3,1.2  c-0.1,2.7,3.7,3.7,8.3,4.5c8.5,1.5,15,4,15,12.8c0,7.5-5.9,14.2-17.6,14c-7.7-0.2-13.1-2.7-16-5.3c-0.1-0.1-1.2-1.2-0.6-2.6  c0.7-1.7,1.8-3.8,2.7-4.8c0.5-0.7,1.8-0.8,2.5-0.4c2.4,1.5,6.4,3.9,10.9,4c0.4,0,0.7,0,1.1,0c4.1-0.1,6.6-1.7,6.5-4.3  c0-2.3-3.3-3.7-8.5-4.6C54,66.6,47.4,63.9,47.4,55.6"/></svg>