<?xml version="1.0" encoding="utf-8"?>
<!-- Generator: Adobe Illustrator 23.0.1, SVG Export Plug-In . SVG Version: 6.00 Build 0)  -->
<svg version="1.1" id="Layer_1" xmlns="http://www.w3.org/2000/svg" xmlns:xlink="http://www.w3.org/1999/xlink" x="0px" y="0px"
	 viewBox="0 0 60 60" style="enable-background:new 0 0 60 60;" xml:space="preserve">
<style type="text/css">
	.st0{fill:#FFFFFF;}
	.st1{fill:none;stroke:#C3F0E9;}
	.st2{fill:#21A3C1;}
	.st3{fill:#77CAD8;}
	.st4{fill:#2B56E0;}
	.st5{fill:#6C8FE5;}
	.st6{fill:#B1EFE3;}
	.st7{fill:#66EDD7;}
</style>
<path class="st0" d="M10,0.5h40c5.2,0,9.5,4.3,9.5,9.5v40c0,5.2-4.3,9.5-9.5,9.5H10c-5.2,0-9.5-4.3-9.5-9.5V10
	C0.5,4.8,4.8,0.5,10,0.5z"/>
<path class="st1" d="M10,0.5h40c5.2,0,9.5,4.3,9.5,9.5v40c0,5.2-4.3,9.5-9.5,9.5H10c-5.2,0-9.5-4.3-9.5-9.5V10
	C0.5,4.8,4.8,0.5,10,0.5z"/>
<path class="st2" d="M29.9,37.2l11.6-6.9l-11.6-5.3"/>
<path class="st3" d="M29.9,11.1v14l-11.6,5.3l11.6,6.9"/>
<polygon class="st4" points="41.5,32.5 29.9,39.4 29.9,48.9 "/>
<polygon class="st5" points="18.3,32.5 29.9,48.9 29.9,39.4 "/>
<polygon class="st6" points="29.9,11.1 18.3,30.3 29.9,25.1 "/>
<polygon class="st7" points="29.9,11.1 41.5,30.3 29.9,25.1 "/>
</svg>
