<?xml version="1.0" encoding="UTF-8"?>
<svg width="16px" height="18px" viewBox="0 0 16 18" version="1.1" xmlns="http://www.w3.org/2000/svg" xmlns:xlink="http://www.w3.org/1999/xlink">
    <title>Group 5</title>
    <g id="UI" stroke="none" stroke-width="1" fill="none" fill-rule="evenodd">
        <g id="staked-2" transform="translate(-443.000000, -662.000000)">
            <g id="Group-9" transform="translate(428.000000, 645.000000)">
                <g id="Group-5" transform="translate(15.000000, 17.000000)">
                    <polygon id="Path-8" fill="#FFFFFF" points="0.977928693 0.972972973 9.81444584 0.972972973 9.81444584 5.71076086 10.887521 6.24402708 14.6689304 6.00812063 14.6689304 16.9461926 14.6689304 17.5135135 0.977928693 17.5135135"></polygon>
                    <g id="File,-Code,-Coding,-Programming,-Data" fill="#003945" fill-rule="nonzero">
                        <path d="M14.4286314,3.77205882 C14.6121017,3.95735294 14.769362,4.20882353 14.9004122,4.52647059 C15.0314625,4.84411765 15.0969876,5.13529412 15.0969876,5.4 L15.0969876,16.8352941 C15.0969876,17.1 15.0052524,17.325 14.8217821,17.5102941 C14.6383117,17.6955882 14.4155263,17.7882353 14.1534259,17.7882353 L0.943561724,17.7882353 C0.681461245,17.7882353 0.458675838,17.6955882 0.275205503,17.5102941 C0.0917351676,17.325 0,17.1 0,16.8352941 L0,0.952941176 C0,0.688235294 0.0917351676,0.463235294 0.275205503,0.277941176 C0.458675838,0.0926470588 0.681461245,0 0.943561724,0 L9.75013781,0 C10.0122383,0 10.3005488,0.0661764706 10.6150694,0.198529412 C10.92959,0.330882353 11.1785854,0.489705882 11.3620558,0.675 L14.4286314,3.77205882 Z M10.0646584,1.35 L10.0646584,5.08235294 L13.7602751,5.08235294 C13.69475,4.89044118 13.6226724,4.75477941 13.5440422,4.67536765 L10.4676379,1.56838235 C10.3890077,1.48897059 10.2546812,1.41617647 10.0646584,1.35 Z M13.8389053,16.5176471 L13.8389053,6.35294118 L9.75013781,6.35294118 C9.48803733,6.35294118 9.26525193,6.26029412 9.08178159,6.075 C8.89831125,5.88970588 8.80657609,5.66470588 8.80657609,5.4 L8.80657609,1.27058824 L1.2580823,1.27058824 L1.2580823,16.5176471 L13.8389053,16.5176471 Z M4.71780862,7.62352941 C4.77022871,7.55073529 4.83903009,7.509375 4.92421275,7.49944853 C5.0093954,7.48952206 5.08802554,7.51102941 5.16010318,7.56397059 L5.66137034,7.94117647 C5.73344797,7.99411765 5.77440117,8.06360294 5.78422994,8.14963235 C5.79405871,8.23566176 5.77276305,8.31507353 5.72034295,8.38786765 L3.93150718,10.8 L5.72034295,13.2121324 C5.77276305,13.2849265 5.79405871,13.3643382 5.78422994,13.4503676 C5.77440117,13.5363971 5.73344797,13.6058824 5.66137034,13.6588235 L5.16010318,14.0360294 C5.08802554,14.0889706 5.0093954,14.1104779 4.92421275,14.1005515 C4.83903009,14.090625 4.77022871,14.0492647 4.71780862,13.9764706 L2.49650706,10.9886029 C2.40477189,10.8628676 2.40477189,10.7371324 2.49650706,10.6113971 L4.71780862,7.62352941 Z M12.6004805,10.6113971 C12.6922157,10.7371324 12.6922157,10.8628676 12.6004805,10.9886029 L10.379179,13.9764706 C10.3267589,14.0492647 10.2579575,14.090625 10.1727748,14.1005515 C10.0875922,14.1104779 10.008962,14.0889706 9.9368844,14.0360294 L9.43561724,13.6588235 C9.3635396,13.6058824 9.3225864,13.5363971 9.31275764,13.4503676 C9.30292887,13.3643382 9.32422453,13.2849265 9.37664463,13.2121324 L11.1654804,10.8 L9.37664463,8.38786765 C9.32422453,8.31507353 9.30292887,8.23566176 9.31275764,8.14963235 C9.3225864,8.06360294 9.3635396,7.99411765 9.43561724,7.94117647 L9.9368844,7.56397059 C10.008962,7.51102941 10.0875922,7.48952206 10.1727748,7.49944853 C10.2579575,7.509375 10.3267589,7.55073529 10.379179,7.62352941 L12.6004805,10.6113971 Z M6.50664439,15.1875 C6.42146173,15.1742647 6.35429848,15.13125 6.30515464,15.0584559 C6.2560108,14.9856618 6.2379914,14.90625 6.25109642,14.8202206 L7.6074664,6.57132353 C7.62057142,6.48529412 7.66316275,6.41746324 7.73524038,6.36783088 C7.80731801,6.31819853 7.88594816,6.3 7.97113081,6.31323529 L8.59034319,6.4125 C8.67552585,6.42573529 8.7426891,6.46875 8.79183294,6.54154412 C8.84097677,6.61433824 8.85899618,6.69375 8.84589116,6.77977941 L7.48952118,15.0286765 C7.47641616,15.1147059 7.43382483,15.1825368 7.3617472,15.2321691 C7.28966957,15.2818015 7.21103942,15.3 7.12585677,15.2867647 L6.50664439,15.1875 Z" id="Shape"></path>
                    </g>
                </g>
            </g>
        </g>
    </g>
</svg>