<?xml version="1.0" encoding="UTF-8"?>
<svg width="33px" height="36px" viewBox="0 0 33 36" version="1.1" xmlns="http://www.w3.org/2000/svg" xmlns:xlink="http://www.w3.org/1999/xlink">
    <!-- Generator: Sketch 51.2 (57519) - http://www.bohemiancoding.com/sketch -->
    <title>Group 13</title>
    <desc>Created with Sketch.</desc>
    <defs></defs>
    <g id="Desktop" stroke="none" stroke-width="1" fill="none" fill-rule="evenodd">
        <g id="swap-1" transform="translate(-655.000000, -449.000000)" fill="#CECECE" fill-rule="nonzero">
            <g id="Group-28" transform="translate(317.000000, 284.000000)">
                <g id="Group-6" transform="translate(54.000000, 99.000000)">
                    <g id="Group-13" transform="translate(284.000000, 66.000000)">
                        <g id="arrow">
                            <path d="M22.2837766,2.01694915 L24.3111702,0 L33,8.5 L24.3111702,17 L22.2837766,14.9830508 L27.3522606,9.94067797 L9.82978723,9.94067797 L9.82978723,7.05932203 L27.3522606,7.05932203 L22.2837766,2.01694915 Z M4.21276596,7.08333333 L8.42553191,7.08333333 L8.42553191,9.91666667 L4.21276596,9.91666667 L4.21276596,7.08333333 Z M0,7.08333333 L2.80851064,7.08333333 L2.80851064,9.91666667 L0,9.91666667 L0,7.08333333 Z" id="Combined-Shape"></path>
                        </g>
                        <g id="arrow" transform="translate(16.400000, 27.600000) scale(-1, 1) translate(-16.400000, -27.600000) translate(0.000000, 19.200000)">
                            <path d="M22.2837766,2.01694915 L24.3111702,0 L33,8.5 L24.3111702,17 L22.2837766,14.9830508 L27.3522606,9.94067797 L9.82978723,9.94067797 L9.82978723,7.05932203 L27.3522606,7.05932203 L22.2837766,2.01694915 Z M4.21276596,7.08333333 L8.42553191,7.08333333 L8.42553191,9.91666667 L4.21276596,9.91666667 L4.21276596,7.08333333 Z M0,7.08333333 L2.80851064,7.08333333 L2.80851064,9.91666667 L0,9.91666667 L0,7.08333333 Z" id="Combined-Shape"></path>
                        </g>
                    </g>
                </g>
            </g>
        </g>
    </g>
</svg>