<?xml version="1.0" encoding="UTF-8"?>
<svg width="64px" height="64px" viewBox="0 0 64 64" version="1.1" xmlns="http://www.w3.org/2000/svg" xmlns:xlink="http://www.w3.org/1999/xlink">
    <!-- Generator: Sketch 55.2 (78181) - https://sketchapp.com -->
    <title>icon\</title>
    <desc>Created with Sketch.</desc>
    <g id="icon\" stroke="none" stroke-width="1" fill="none" fill-rule="evenodd">
        <g id="meeting" transform="translate(3.000000, 4.000000)" fill-rule="nonzero">
            <circle id="Oval" fill="#CDF4EE" cx="28.3255986" cy="6.01088149" r="5.92682927"></circle>
            <path d="M36.629499,8.13153324 C35.8019836,11.7865479 32.5412165,14.5297763 28.6396195,14.5297763 C24.7380225,14.5297763 21.4772553,11.7865479 20.6497399,8.13153324 C17.7149074,8.78547919 15.5109685,11.4002793 15.5109685,14.5297763 L15.5109685,21.0941565 C15.5109685,22.9035199 16.9837952,24.3763465 18.7931586,24.3763465 C20.602522,24.3763465 22.0753487,22.9035199 22.0753487,21.0941565 L22.0753487,17.8119664 L35.2039996,17.8119664 L35.2039996,21.0941565 C35.2039996,22.9035199 36.6768263,24.3763465 38.4861896,24.3763465 C40.2955531,24.3763465 41.7683797,22.9035199 41.7683797,21.0941565 L41.7683797,14.5297763 C41.7683797,11.4002793 39.5642222,8.78547919 36.629499,8.13153324 Z" id="Path" fill="#05C0A5"></path>
            <path d="M54.1887556,40.3267787 C51.3778694,38.6902985 47.7839272,39.6612145 46.1610628,42.4956841 C44.5383289,45.3298906 45.5012971,48.9542491 48.3121834,50.5904662 C51.1228087,52.2269465 54.847608,51.2557673 56.4702115,48.4215608 C58.0930759,45.5872228 56.9993809,41.9631275 54.1887556,40.3267787 Z" id="Path" fill="#CDF4EE"></path>
            <path d="M51.0720534,30.3004433 L45.3873251,27.0182532 C43.8202813,26.1135715 41.8084931,26.6526425 40.9038113,28.2196863 C39.9991296,29.7867301 40.5382006,31.7985184 42.1052444,32.7032001 L44.9477179,34.3442405 L38.3833377,45.7140249 L35.5408643,44.0729845 C33.9738204,43.1683028 31.9620322,43.7073738 31.0573505,45.2744176 C30.1526687,46.8414614 30.6917397,48.8532497 32.2587835,49.7579314 L37.9435118,53.0401214 C40.65395,54.60487 44.0204109,54.0034976 46.05395,51.7888473 C43.3024148,49.2447647 42.5569841,45.0492581 44.5077826,41.6702277 C46.4585812,38.2911973 50.4646696,36.8391377 54.0438296,37.9498512 C54.9450137,35.0814735 53.7824917,31.8651918 51.0720534,30.3004433 Z" id="Path" fill="#05C0A5"></path>
            <path d="M11.1581165,42.4957558 C9.52166242,39.6613316 5.8976252,38.6902996 3.06320104,40.3268852 C0.229039985,41.9632076 -0.873945033,45.5872449 0.762640562,48.4216691 C2.39883149,51.2558301 6.15482174,52.2269937 8.98898277,50.5905397 C11.8234069,48.9540856 12.7944389,45.3299168 11.1581165,42.4957558 Z" id="Path" fill="#CDF4EE"></path>
            <path d="M26.2217792,45.2744176 C25.3170974,43.7073738 23.3051999,43.1684121 21.7382654,44.0729845 L18.8957919,45.7140249 L12.3314118,34.3442405 L15.1738852,32.7032001 C16.740929,31.7985184 17.2798907,29.7866208 16.3753183,28.2196863 C15.4706366,26.6526425 13.458739,26.1136808 11.8918045,27.0182532 L6.20707621,30.3004433 C3.49663799,31.8651918 2.33411598,35.0814735 3.23540937,37.9499605 C6.81446008,36.8391377 10.8206579,38.2913066 12.7714563,41.670337 C14.7222548,45.0493675 13.9768242,49.2447647 11.2252889,51.7889566 C13.2588281,54.0034976 16.6252889,54.6049793 19.3357271,53.0402308 L25.0204554,49.7579314 C26.5873899,48.8532497 27.1264609,46.8413521 26.2217792,45.2744176 Z" id="Path" fill="#05C0A5"></path>
        </g>
    </g>
</svg>