<?xml version="1.0" ?><svg height="60px" version="1.1" viewBox="0 0 60 60" width="60px" xmlns="http://www.w3.org/2000/svg" xmlns:xlink="http://www.w3.org/1999/xlink"><title/><desc/><defs><linearGradient id="linearGradient-1" x1="66.67%" x2="41.67%" y1="16.67%" y2="75%"><stop offset="0%" stop-color="#37AEE2"/><stop offset="100%" stop-color="#1E96C8"/></linearGradient><linearGradient id="linearGradient-2" x1="61.2346759%" x2="74.7064382%" y1="43.69%" y2="80.24%"><stop offset="0%" stop-color="#EFF7FC"/><stop offset="100%" stop-color="#FFFFFF"/></linearGradient></defs><g fill="none" fill-rule="evenodd" id="Page-1" stroke="none" stroke-width="1"><g id="Social_icons" transform="translate(-422.000000, -252.000000)"><g id="Telegram" transform="translate(422.000000, 252.000000)"><circle cx="30" cy="30" fill="url(#linearGradient-1)" id="Oval" r="30"/><path d="M24.5,43.75 C23.5281,43.75 23.69325,43.383025 23.35805,42.457625 L20.5,33.051475 L42.5,20" fill="#C8DAEA" id="Shape"/><path d="M24.5,43.75 C25.25,43.75 25.581375,43.407 26,43 L30,39.1105 L25.0105,36.10175" fill="#A9C9DD" id="Shape"/><path d="M25.01,36.1025 L37.1,45.03475 C38.479625,45.795975 39.47535,45.40185 39.819,43.753875 L44.74025,20.563125 C45.2441,18.543075 43.970225,17.626875 42.6504,18.226075 L13.7529,29.368825 C11.780375,30.16 11.791875,31.260475 13.39335,31.750825 L20.8091,34.0654 L37.97735,23.23415 C38.787825,22.742675 39.531675,23.0069025 38.92115,23.54875" fill="url(#linearGradient-2)" id="Shape"/></g></g></g></svg>