<?xml version="1.0" encoding="UTF-8"?>
<svg width="81px" height="80px" viewBox="0 0 81 80" version="1.1" xmlns="http://www.w3.org/2000/svg" xmlns:xlink="http://www.w3.org/1999/xlink">
    <!-- Generator: Sketch 51.2 (57519) - http://www.bohemiancoding.com/sketch -->
    <title>Telegram</title>
    <desc>Created with Sketch.</desc>
    <defs>
        <linearGradient x1="50%" y1="0%" x2="50%" y2="99.635%" id="linearGradient-1">
            <stop stop-color="#42BCE8" offset="0%"></stop>
            <stop stop-color="#23A7DC" offset="100%"></stop>
        </linearGradient>
    </defs>
    <g id="Symbols" stroke="none" stroke-width="1" fill="none" fill-rule="evenodd">
        <g id="03---elements" transform="translate(-943.000000, -6950.000000)" fill-rule="nonzero">
            <g id="others">
                <g transform="translate(64.000000, 5809.000000)">
                    <g id="Community-icons" transform="translate(876.000000, 1077.000000)">
                        <g id="Group-25" transform="translate(0.000000, 64.000000)">
                            <g id="telegram">
                                <g id="Telegram" transform="translate(3.000000, 0.000000)">
                                    <g id="Layer_1">
                                        <ellipse id="Oval" fill="url(#linearGradient-1)" cx="40.1126761" cy="40" rx="40.1126761" ry="40"></ellipse>
                                        <path d="M60.5220056,21.622 L52.8665014,60.606 C52.8665014,60.606 51.795493,63.31 48.8512225,62.012 L31.1835944,48.332 L24.7595493,45.196 L13.9451718,41.52 C13.9451718,41.52 12.284507,40.926 12.1240563,39.628 C11.9636056,38.33 13.9973183,37.628 13.9973183,37.628 L56.9900845,20.596 C56.9880789,20.594 60.5220056,19.026 60.5220056,21.622 Z" id="Shape" fill="#FFFFFF"></path>
                                        <path d="M29.8237746,60.166 C29.8237746,60.166 29.3083268,60.118 28.6645183,58.062 C28.0227155,56.008 24.755538,45.194 24.755538,45.194 L50.7224789,28.54 C50.7224789,28.54 52.2206873,27.62 52.1685408,28.54 C52.1685408,28.54 52.4352901,28.702 51.6330366,29.46 C50.8307831,30.218 31.2337352,48.006 31.2337352,48.006" id="Shape" fill="#D2E5F1"></path>
                                        <path d="M37.9566197,53.576 L30.9689915,60.01 C30.9689915,60.01 30.4234592,60.428 29.8257803,60.166 L31.163538,48.214" id="Shape" fill="#B5CFE4"></path>
                                    </g>
                                </g>
                            </g>
                        </g>
                    </g>
                </g>
            </g>
        </g>
    </g>
</svg>