<?xml version="1.0" encoding="UTF-8"?>
<svg width="64px" height="64px" viewBox="0 0 64 64" version="1.1" xmlns="http://www.w3.org/2000/svg" xmlns:xlink="http://www.w3.org/1999/xlink">
    <!-- Generator: Sketch 55.2 (78181) - https://sketchapp.com -->
    <title>icon\</title>
    <desc>Created with Sketch.</desc>
    <g id="icon\" stroke="none" stroke-width="1" fill="none" fill-rule="evenodd">
        <g id="thief" transform="translate(8.000000, 2.000000)">
            <path d="M24.5016196,9.84445798 C13.1522772,14.0988396 2.78596004,7.90777452 0.254597096,21.6032113 C-2.27676585,35.298648 14.7965791,35.7802799 19.2046844,28.7992853 C20.3841522,26.6855477 24.4905559,20.8320762 27.2161801,13.3772591 C27.5198484,12.5467 27.5746148,12.0594538 26.7130889,11.1990327 C25.8515629,10.3386116 25.3922286,9.51604375 24.5016196,9.84445798 Z" id="Path-6" fill="#05C0A5"></path>
            <text id="$" font-family="Menlo-Regular, Menlo" font-size="15" font-weight="normal" fill="#FFFFFF">
                <tspan x="7.68361582" y="26.1101695">$</tspan>
            </text>
            <path d="M25.9918833,37.3765554 C25.2441687,38.349525 24.161669,39.5025826 22.7443841,40.8357283 C19.9817734,43.4343327 16.8816954,44.0030376 13.4441501,42.5418428 C10.3096428,40.7442022 8.40607957,39.4819883 7.73346041,38.7552014 C6.72453168,37.6650209 7.3358515,34.5619407 10.4483368,35.6621464 C13.5608221,36.7623522 16.5076049,40.0684306 18.8187742,35.7735889 C19.7187093,34.1012411 20.503801,32.5345825 21.1740492,31.0736131 C21.1593596,31.0547946 21.1446577,31.0359633 21.1299435,31.0171192 L22.335102,28.3596163 C22.3675792,28.2771076 22.3996101,28.1950095 22.4311947,28.1133221 L22.440584,28.1270172 L27.5551122,16.8489378 C28.1801911,15.4705722 29.7340875,14.7736663 31.1791416,15.223593 C31.6862739,15.3814947 32.1593316,15.4604456 32.5983146,15.4604456 C34.0624107,15.4604456 35.42641,16.1466434 36.3004017,17.2881356 L38.9319731,17.2881356 C39.992859,17.2881356 40.852877,18.1481536 40.852877,19.2090395 C40.852877,20.2699255 39.992859,21.1299435 38.9319731,21.1299435 L38.4679338,21.1299435 L39.5225604,23.0535672 C39.9934173,23.9124033 41.0169699,24.3038872 41.940773,23.9784743 L43.6120353,23.3897665 C45.3849677,22.9557208 46.477976,23.3400354 46.8910603,24.5427104 C47.3041446,25.7453853 46.7563443,26.7756893 45.2476595,27.6336225 L39.3834265,29.5874339 C38.4777205,29.8891918 37.4850131,29.5087741 37.0129146,28.6790245 L34.8888516,24.9458194 C34.7948867,24.7806688 34.6558139,24.6457078 34.4879185,24.5567401 C33.9999226,24.2981515 33.3946962,24.4841228 33.1360926,24.9721108 C32.3393208,26.4757397 31.8080853,27.6482748 31.5423861,28.4897162 C31.0134288,30.1648678 30.3730651,31.1397157 31.0051428,32.885284 C31.6372205,34.6308522 34.0386557,37.3770229 36.0169492,40.8468281 C37.3358114,43.1600315 38.9438768,46.3824311 40.8411453,50.5140269 C41.9169844,53.3545336 41.6450174,55.1255883 40.0252445,55.8271909 C38.4054715,56.5287936 37.0693731,55.8106092 36.0169492,53.6726376 C35.3903377,51.8322408 34.0019003,49.1962764 31.8516372,45.7647443 C30.4787388,43.5737823 28.5254875,40.7777193 25.9918833,37.3765554 Z M35.0564972,14.4067797 C31.0781748,14.4067797 27.8531073,11.1817122 27.8531073,7.20338983 C27.8531073,3.22506748 31.0781748,4.79616347e-14 35.0564972,4.79616347e-14 C39.0348195,4.79616347e-14 42.259887,3.22506748 42.259887,7.20338983 C42.259887,11.1817122 39.0348195,14.4067797 35.0564972,14.4067797 Z" id="Combined-Shape" fill="#CDF4EE"></path>
            <ellipse id="Oval" fill="#5A78F0" cx="35" cy="58.3333333" rx="8.33333333" ry="1.66666667"></ellipse>
        </g>
    </g>
</svg>