<?xml version="1.0" encoding="UTF-8"?>
<svg width="32px" height="32px" viewBox="0 0 32 32" version="1.1" xmlns="http://www.w3.org/2000/svg" xmlns:xlink="http://www.w3.org/1999/xlink">
    <!-- Generator: Sketch 55.1 (78136) - https://sketchapp.com -->
    <title>Group 14</title>
    <desc>Created with Sketch.</desc>
    <g id="View-Wallet-Info" stroke="none" stroke-width="1" fill="none" fill-rule="evenodd">
        <g id="view-wallet-info-2" transform="translate(-598.000000, -638.000000)" fill="#1D1D1B" fill-rule="nonzero">
            <g id="Group-23" transform="translate(311.000000, 288.000000)">
                <g id="Group-12" transform="translate(102.000000, 348.000000)">
                    <g id="Group-21" transform="translate(185.000000, 2.000000)">
                        <g id="history" transform="translate(3.000000, 4.000000)">
                            <path d="M13.6564924,0 C7.40187447,0 2.31337844,5.15865468 2.31416583,11.4672694 C2.3094415,11.5674569 2.25235586,13.2375134 2.72124551,15.0360973 L1.19331878,14.133213 C0.813797679,13.9096873 0.330341345,14.039412 0.107510494,14.4233973 C-0.112170805,14.8065843 0.015386078,15.2995384 0.393726092,15.5230641 L3.97437378,17.6393739 C3.98185397,17.6433654 3.98933416,17.6445628 3.99642065,17.6481552 C4.03460898,17.6689112 4.07358469,17.684079 4.11492257,17.6984485 C4.14287485,17.7084273 4.17003974,17.7188053 4.19799202,17.7255909 C4.23224341,17.7331748 4.2661011,17.7355697 4.30113987,17.738763 C4.3255489,17.7411579 4.34995794,17.7487418 4.37436697,17.7487418 C4.38814626,17.7487418 4.40113817,17.743952 4.41531115,17.7431537 C4.42869675,17.7427545 4.44011388,17.7459477 4.45349948,17.7447503 C4.47318418,17.7427545 4.49090042,17.7343723 4.51019143,17.7311791 C4.54837975,17.7243935 4.58459961,17.7160112 4.62121316,17.7040367 C4.6519213,17.6936587 4.68223574,17.6812849 4.7117628,17.6669154 C4.7448331,17.6509493 4.77593493,17.6333866 4.80664307,17.6126306 C4.83459535,17.5942695 4.86136655,17.5743119 4.88656297,17.5527576 C4.91451525,17.5288084 4.93931798,17.5028635 4.96412071,17.4749228 C4.98734866,17.4489778 5.00742706,17.4218354 5.02671807,17.3930964 C5.03734781,17.3771303 5.05152079,17.3655548 5.06096945,17.3491895 C5.06805594,17.3368158 5.06805594,17.3224463 5.07396136,17.3100725 C5.0845911,17.2881191 5.10112625,17.2689598 5.11057491,17.2454097 L6.5349601,13.6697963 C6.69913053,13.2578703 6.50307088,12.7888654 6.09717228,12.6224185 C5.69048629,12.4571691 5.22828944,12.6551491 5.064119,13.0670751 L4.3326354,14.9031793 C3.84445473,13.2478914 3.8999656,11.5471001 3.90154038,11.5003992 C3.90154038,6.04637118 8.2782375,1.6093853 13.6568861,1.6093853 C19.0359283,1.6093853 23.4122318,6.04637118 23.4122318,11.5003992 C23.4122318,16.9536288 19.0359283,21.3906147 13.6568861,21.3906147 C13.2183109,21.3906147 12.8631988,21.7510499 12.8631988,22.1953073 C12.8631988,22.6395647 13.2179172,23 13.6568861,23 C19.9118977,23 25,17.8413453 25,11.5003992 C24.9992126,5.15865468 19.9111103,0 13.6564924,0 L13.6564924,0 Z" id="Path"></path>
                            <path d="M13.5694792,12.4865805 C13.651643,12.5182819 13.738259,12.5296038 13.8260892,12.5352648 C13.8443029,12.536397 13.8621118,12.5454545 13.8803254,12.5454545 C13.9758459,12.5454545 14.0685332,12.5250751 14.1571729,12.4948833 C14.1818625,12.4865805 14.2049332,12.4745038 14.2288133,12.4635592 C14.2964062,12.4333674 14.3587373,12.3948729 14.4162115,12.3476981 C14.4287587,12.3375084 14.4453533,12.3337344 14.4579005,12.3220351 L19.5524607,7.57173018 C19.871402,7.27434078 19.871402,6.79315871 19.5524607,6.49576932 C19.2339242,6.19837992 18.7178708,6.19837992 18.3985248,6.49576932 L13.6904987,10.885282 L9.46533674,9.23529927 C9.04723229,9.07264085 8.57124891,9.25530134 8.39680262,9.64326619 C8.22276108,10.0308536 8.41906374,10.4765603 8.83393021,10.6388413 L13.5646222,12.4858257 C13.5662412,12.4862031 13.5678602,12.4862031 13.5694792,12.4865805 Z" id="Path"></path>
                        </g>
                    </g>
                </g>
            </g>
        </g>
    </g>
</svg>