<?xml version="1.0" encoding="UTF-8"?>
<svg width="64px" height="64px" viewBox="0 0 64 64" version="1.1" xmlns="http://www.w3.org/2000/svg" xmlns:xlink="http://www.w3.org/1999/xlink">
    <!-- Generator: Sketch 55.2 (78181) - https://sketchapp.com -->
    <title>icon\</title>
    <desc>Created with Sketch.</desc>
    <g id="icon\" stroke="none" stroke-width="1" fill="none" fill-rule="evenodd">
        <g id="View-only-wallet" transform="translate(4.000000, 6.000000)" fill-rule="nonzero">
            <path d="M45.1511007,17.2542255 C44.0248133,17.2542255 41.9376282,17.8882956 40.5798735,19.1586856 C39.0265657,20.6120457 38.2690857,22.7972605 38.2690857,24.0847536 C38.2690857,25.3572309 38.6416568,28.1551085 40.1702279,29.7840946 C41.5401649,31.2440255 44.0097859,31.6128014 45.1511007,31.6128014 L55.3692428,31.6128014 L55.3692428,17.2542255 L45.1511007,17.2542255 Z" id="Shape" fill="#5A78F0"></path>
            <path d="M45.3905884,17.2542255 L55.3692428,17.2542255 L55.3692428,8.63908001 C54.9431067,8.63908001 10.9879895,8.63908001 10.9879895,8.63908001 C10.0823297,8.63908001 8.70179022,8.15717474 7.93716488,7.37580236 C7.17253955,6.59442999 6.88755738,5.35712377 6.71142336,4.8483144 C6.71142336,5.50363981 6.71142336,32.0482491 6.71142336,33.048659 C6.71142336,37.0135404 9.90250202,40.2279469 13.8390336,40.2279469 L55.3692428,40.2279469 L55.3692428,31.6128014 L45.3905884,31.6128014 C41.4606142,31.6128014 38.2629782,28.3919814 38.2629782,24.4335135 C38.2629782,20.4750455 41.4606142,17.2542255 45.3905884,17.2542255 Z" id="Path" fill="#CDF4EE"></path>
            <path d="M10.9743651,4.79616347e-14 C8.6199897,4.79616347e-14 6.71142336,1.95908164 6.71142336,4.37577177 C6.71142336,6.7924619 8.6199897,8.66723887 10.9743651,8.66723887 L49.5303044,8.66723887 L49.5303044,4.79616347e-14 L10.9743651,4.79616347e-14 Z" id="Path" fill="#00C0A5"></path>
            <circle id="Oval" fill="#FFFFFF" cx="44.6625283" cy="24.5001272" r="2.13114754"></circle>
            <g id="Group-60" transform="translate(0.000000, 21.771533)">
                <ellipse id="Oval" fill="#05C0A5" cx="11.8975233" cy="11.9285064" rx="11.8975233" ry="11.9285064"></ellipse>
                <path d="M11.8975233,19.8047264 C16.2976361,19.8047264 19.8646323,16.2377302 19.8646323,11.8376174 C19.8646323,7.43750457 16.2976361,3.87050836 11.8975233,3.87050836 C7.49741042,3.87050836 3.93041421,7.43750457 3.93041421,11.8376174 C3.93041421,16.2377302 7.49741042,19.8047264 11.8975233,19.8047264 Z" id="Oval" fill="#CDF4EE"></path>
                <path d="M18.0037079,20.104073 L27.844236,20.0510031 C29.117619,20.0441745 30.1554634,21.0708918 30.1623598,22.3442749 C30.1623598,22.3525591 30.1623598,22.3608434 30.1623598,22.3691276 C30.1553672,23.6603546 29.1103409,24.7053811 27.8191139,24.7123401 L17.9785858,24.76541 C16.7052028,24.7722387 15.6673584,23.7455213 15.660462,22.4721383 C15.660462,22.4638541 15.660462,22.4555697 15.660462,22.4472855 C15.6674546,21.1560585 16.7124809,20.1110321 18.0037079,20.104073 Z" id="Rectangle" fill="#05C0A5" transform="translate(22.911411, 22.408207) rotate(45.000000) translate(-22.911411, -22.408207) "></path>
            </g>
        </g>
    </g>
</svg>