<?xml version="1.0" encoding="UTF-8"?>
<svg width="44px" height="44px" viewBox="0 0 44 44" version="1.1" xmlns="http://www.w3.org/2000/svg" xmlns:xlink="http://www.w3.org/1999/xlink">
    <!-- Generator: Sketch 55.2 (78181) - https://sketchapp.com -->
    <title>Group 9</title>
    <desc>Created with Sketch.</desc>
    <g id="Access-wallet_new-flows" stroke="none" stroke-width="1" fill="none" fill-rule="evenodd">
        <g id="Optionals-Mobile-App-Copy-2" transform="translate(-533.000000, -692.000000)" fill="#3B99FC" fill-rule="nonzero">
            <g id="pop-out-2" transform="translate(476.000000, 207.000000)">
                <g id="Group-12" transform="translate(37.000000, 476.000000)">
                    <g id="Group-9" transform="translate(19.000000, 8.000000)">
                        <g id="2019-10-23-14.10.22">
                            <g id="download" transform="translate(0.170732, 0.024390)">
                                <path d="M12.1901921,17.2109052 C17.9178273,11.5963649 27.2041587,11.5963649 32.9317937,17.2109052 L33.6211239,17.8866242 C33.9075056,18.1673511 33.9075056,18.6224996 33.6211239,18.9032267 L31.263063,21.2147265 C31.1198721,21.3550901 30.8877138,21.3550901 30.7445229,21.2147265 L29.7959228,20.2848569 C25.8001814,16.3680133 19.3218045,16.3680133 15.326063,20.2848569 L14.3101907,21.2806705 C14.1669997,21.421034 13.9348414,21.421034 13.7916506,21.2806705 L11.4335898,18.9691707 C11.147208,18.6884436 11.147208,18.2332952 11.4335898,17.9525682 L12.1901921,17.2109052 Z M37.8084862,21.9913312 L39.9071649,24.0485777 C40.1935452,24.3293034 40.1935469,24.7844491 39.9071685,25.0651767 L30.4440813,34.3415561 C30.1577016,34.6222851 29.693385,34.6222883 29.4070013,34.3415633 C29.4070001,34.3415621 29.4069987,34.3415607 29.4069975,34.3415596 L22.690674,27.7578431 C22.6190786,27.6876614 22.5029994,27.6876614 22.431404,27.7578431 C22.4314035,27.7578436 22.4314031,27.757844 22.4314027,27.7578444 L15.7152222,34.3415561 C15.4288433,34.6222858 14.9645266,34.6222905 14.678142,34.3415663 C14.6781403,34.3415646 14.6781385,34.341563 14.6781367,34.3415611 L5.21478623,25.0650585 C4.92840459,24.7843315 4.92840459,24.329183 5.21478623,24.048456 L7.31346872,21.991213 C7.59985036,21.710486 8.064167,21.710486 8.35054877,21.991213 L15.0669701,28.5750216 C15.1385656,28.6452033 15.2546446,28.6452033 15.3262401,28.5750216 C15.3262411,28.5750205 15.3262421,28.5750196 15.3262432,28.5750187 L22.0423279,21.991213 C22.328703,21.7104796 22.7930197,21.7104691 23.079408,21.9911896 C23.079412,21.9911935 23.079416,21.9911975 23.0794198,21.9912014 L29.7958323,28.5750187 C29.8674277,28.6452004 29.9835069,28.6452004 30.0551023,28.5750187 L36.7714062,21.9913312 C37.0577879,21.7106041 37.5221045,21.7106041 37.8084862,21.9913312 Z" id="WalletConnect"></path>
                            </g>
                        </g>
                    </g>
                </g>
            </g>
        </g>
    </g>
</svg>