<?xml version="1.0" encoding="UTF-8"?>
<svg width="33px" height="33px" viewBox="0 0 33 33" version="1.1" xmlns="http://www.w3.org/2000/svg" xmlns:xlink="http://www.w3.org/1999/xlink">
    <!-- Generator: Sketch 55.2 (78181) - https://sketchapp.com -->
    <title>Group 8</title>
    <desc>Created with Sketch.</desc>
    <defs>
        <filter x="-7.2%" y="-13.0%" width="114.5%" height="126.1%" filterUnits="objectBoundingBox" id="filter-1">
            <feOffset dx="0" dy="12" in="SourceAlpha" result="shadowOffsetOuter1"></feOffset>
            <feGaussianBlur stdDeviation="8.5" in="shadowOffsetOuter1" result="shadowBlurOuter1"></feGaussianBlur>
            <feColorMatrix values="0 0 0 0 0.0819970561   0 0 0 0 0.11507115   0 0 0 0 0.247367527  0 0 0 0.0332440997 0" type="matrix" in="shadowBlurOuter1" result="shadowMatrixOuter1"></feColorMatrix>
            <feMerge>
                <feMergeNode in="shadowMatrixOuter1"></feMergeNode>
                <feMergeNode in="SourceGraphic"></feMergeNode>
            </feMerge>
        </filter>
    </defs>
    <g id="Finalization" stroke="none" stroke-width="1" fill="none" fill-rule="evenodd">
        <g id="my-wallet-02-copy-26" transform="translate(-478.000000, -423.000000)">
            <g id="Group-21-Copy-2" filter="url(#filter-1)" transform="translate(452.000000, 340.000000)">
                <g id="Group-35" transform="translate(0.000000, 9.000000)">
                    <g id="Group-5" transform="translate(26.000000, 73.000000)">
                        <g id="Group-15">
                            <g id="Group-25" transform="translate(0.000000, 1.000000)">
                                <g id="Group-5-Copy-2">
                                    <circle id="Oval" fill="#EF945D" cx="16.5" cy="16.5" r="16.5"></circle>
                                    <path d="M24.0625,15.580625 L24.0625,14.96875 C24.0625,14.2035938 23.6938437,13.523 23.1249375,13.0949688 C23.1249375,13.0945625 23.125,13.0941563 23.125,13.09375 L23.125,12.15625 C23.125,10.8639062 22.0735938,9.8125 20.78125,9.8125 L20.3125,9.8125 L20.3125,8.40625 C20.3125,7.63084375 19.6816563,7 18.90625,7 L13.21875,7 C12.4433437,7 11.8125,7.63084375 11.8125,8.40625 L11.8125,9.8125 L10.875,9.8125 C9.841125,9.8125 9,10.653625 9,11.6875 L9,20.65625 C9,21.9485938 10.0514063,23 11.34375,23 L21.71875,23 C23.0110938,23 24.0625,21.9485938 24.0625,20.65625 L24.0625,20.106875 C24.6080938,19.913375 25,19.3923437 25,18.78125 L25,16.90625 C25,16.2951563 24.6080938,15.774125 24.0625,15.580625 Z M20.2592593,10.8518519 L20.7037037,10.8518519 C21.4389037,10.8518519 22.037037,11.4499852 22.037037,12.1851852 L22.037037,12.6296296 C21.8424,12.6296296 20.4854519,12.6296296 20.2592593,12.6296296 L20.2592593,10.8518519 Z M16.4074074,7.88888889 L18.8872786,7.88888889 C19.1536554,7.88888889 19.3703704,8.10155852 19.3703704,8.36296296 L19.3703704,12.6296296 L16.4074074,12.6296296 L16.4074074,7.88888889 Z M14.6296296,7.88888889 L15.5185185,7.88888889 L15.5185185,12.6296296 L14.6296296,12.6296296 L14.6296296,7.88888889 Z M12.8518519,8.36296296 C12.8518519,8.10155852 13.0512296,7.88888889 13.2962963,7.88888889 L13.7407407,7.88888889 L13.7407407,12.6296296 L12.8518519,12.6296296 L12.8518519,8.36296296 Z M10.7777778,10.8518519 L11.6666667,10.8518519 L11.6666667,12.6296296 L10.7777778,12.6296296 C10.2876444,12.6296296 9.88888889,12.2308741 9.88888889,11.7407407 C9.88888889,11.2506074 10.2876444,10.8518519 10.7777778,10.8518519 Z M23.2222222,20.6829069 C23.2222222,21.4704187 22.5844023,22.1111111 21.8004213,22.1111111 L11.3106898,22.1111111 C10.5267088,22.1111111 9.88888889,21.4704187 9.88888889,20.6829069 L9.88888889,13.2222222 C10.1679726,13.3848153 10.4915745,13.4784103 10.8367562,13.4784103 C11.3885413,13.4784103 21.652396,13.4784103 21.8004213,13.4784103 C22.5844023,13.4784103 23.2222222,14.1191027 23.2222222,14.9066145 L23.2222222,15.4461583 L21.8004213,15.4461583 C20.4937862,15.4461583 19.430753,16.513979 19.430753,17.8264986 C19.430753,19.1390182 20.4937862,20.2068389 21.8004213,20.2068389 L23.2222222,20.2068389 L23.2222222,20.6829069 Z M24.1111111,18.7037037 C24.1111111,18.9487704 23.8951185,19.1481481 23.6296296,19.1481481 L21.7037037,19.1481481 C20.907237,19.1481481 20.2592593,18.5500148 20.2592593,17.8148148 C20.2592593,17.0796148 20.907237,16.4814815 21.7037037,16.4814815 L23.6296296,16.4814815 C23.8951185,16.4814815 24.1111111,16.6808593 24.1111111,16.9259259 L24.1111111,18.7037037 Z" id="Shape" stroke="#FFFFFF" stroke-width="0.2" fill="#FFFFFF" fill-rule="nonzero"></path>
                                </g>
                            </g>
                        </g>
                    </g>
                </g>
            </g>
        </g>
    </g>
</svg>