<?xml version="1.0" encoding="UTF-8"?>
<svg width="13px" height="13px" viewBox="0 0 13 13" version="1.1" xmlns="http://www.w3.org/2000/svg" xmlns:xlink="http://www.w3.org/1999/xlink">
    <!-- Generator: Sketch 52.5 (67469) - http://www.bohemiancoding.com/sketch -->
    <title>Web Solution</title>
    <desc>Created with Sketch.</desc>
    <g id="MEW-assets" stroke="none" stroke-width="1" fill="none" fill-rule="evenodd">
        <g id="paper-wallet" transform="translate(-28.000000, -753.000000)">
            <g id="Group-18" transform="translate(27.000000, 728.000000)">
                <g id="Group-14" transform="translate(1.000000, 22.000000)">
                    <g id="Group-23">
                        <g id="Web-Solution" transform="translate(0.000000, 3.000000)">
                            <g id="Layer_1">
                                <g id="XMLID_50_">
                                    <path d="M3.83398438,5.40820313 L1.12480469,5.40820313 C1.05625,5.75097656 1.02070313,6.10390625 1.02070313,6.46445313 C1.02070313,7.11953125 1.1375,7.74667969 1.35332031,8.328125 L3.81367187,8.328125 C3.73496094,7.40644531 3.74257813,6.42636719 3.83398438,5.40820313 Z" id="XMLID_53_"></path>
                                    <path d="M1.85605469,9.34375 C2.478125,10.3263672 3.40996094,11.1007813 4.51191406,11.5273438 C4.25546875,10.8494141 4.0625,10.1181641 3.93554687,9.34375 L1.85605469,9.34375 Z" id="XMLID_325_"></path>
                                    <path d="M7.10683594,1.06386719 C6.90878906,1.04101562 6.70566406,1.03085937 6.50253906,1.03085937 C6.25371094,1.03085937 6.00742187,1.04863281 5.76875,1.07910156 C5.68496094,1.32539062 5.24570312,2.63808594 4.98164062,4.39257813 L8.125,4.39257813 C7.81523438,2.81328125 7.32265625,1.56914063 7.10683594,1.06386719 Z" id="XMLID_326_"></path>
                                    <path d="M9.15585938,4.39257813 L11.5654297,4.39257812 C10.9712891,2.96816406 9.78300781,1.84589844 8.3078125,1.33300781 C8.57441406,2.04394531 8.9171875,3.1078125 9.15078125,4.36972656 C9.15332031,4.37734375 9.15585938,4.38496094 9.15585938,4.39257813 Z" id="XMLID_327_"></path>
                                    <path d="M1.43457031,4.39257813 L3.95332031,4.39257813 C4.13867188,3.0875 4.41796875,2.01347656 4.60839844,1.36347656 C3.17382812,1.8890625 2.01855469,2.99355469 1.43457031,4.39257813 Z" id="XMLID_329_"></path>
                                    <path d="M11.8777344,5.40820313 L9.31074219,5.40820313 C9.42753906,6.38828125 9.4453125,7.33789063 9.3640625,8.23671875 L9.35644531,8.328125 L11.6492187,8.328125 C11.8650391,7.74667969 11.9818359,7.11953125 11.9818359,6.46445313 C11.9818359,6.10390625 11.9462891,5.75097656 11.8777344,5.40820313 Z" id="XMLID_359_"></path>
                                    <path d="M5.75351562,11.8472656 C5.99726562,11.8802734 6.24863281,11.8980469 6.50253906,11.8980469 C6.74882812,11.8980469 6.99257812,11.8802734 7.23125,11.8498047 C7.69589844,11.0398438 7.99296875,10.1892578 8.17070312,9.34375 L4.96894531,9.34375 C5.11875,10.1943359 5.36757812,11.0449219 5.75351562,11.8472656 Z" id="XMLID_360_"></path>
                                    <path d="M4.8546875,5.40820313 C4.77089844,6.28671875 4.74042969,7.28964844 4.834375,8.328125 L8.33066406,8.328125 C8.44238281,7.2921875 8.39921875,6.28925781 8.2875,5.40820313 L4.8546875,5.40820313 Z" id="XMLID_362_"></path>
                                    <path d="M4,0.83681877 L5.08721707,0.83681877 L4.35840109,8.62865052 L5.71384993,12.0836997 L4,12.0836997 L0.761481801,8.15641673 C0.356096525,6.59882325 0.356096525,5.36190692 0.761481801,4.44566775 C1.16686708,3.52942857 2.24637314,2.32647891 4,0.83681877 Z" id="Rectangle-4" fill="#05C0A5" fill-rule="nonzero"></path>
                                    <path d="M8.53886719,11.5095703 C9.62050781,11.0779297 10.5320313,10.3136719 11.1464844,9.34375 L9.20917969,9.34375 C9.06445312,10.1054688 8.84101562,10.8291016 8.53886719,11.5095703 Z" id="XMLID_363_"></path>
                                    <path d="M11.0931641,1.90175781 C9.86679687,0.683007813 8.23417969,0.0126953125 6.5,0.0126953125 C4.76582031,0.0126953125 3.13574219,0.683007813 1.909375,1.90175781 C0.68046875,3.12050781 0.005078125,4.74042969 0.005078125,6.46445313 C0.005078125,8.18847656 0.68046875,9.80839844 1.909375,11.0271484 C3.13574219,12.2433594 4.76582031,12.9162109 6.5,12.9162109 C8.23417969,12.9162109 9.86425781,12.2458984 11.090625,11.0271484 C12.3195312,9.80839844 12.9949219,8.18847656 12.9949219,6.46445313 C12.9949219,4.74042969 12.3195312,3.12050781 11.0931641,1.90175781 Z M11.5679687,4.39257813 L9.15839844,4.39257813 C9.15585937,4.38496094 9.15585937,4.37734375 9.15332031,4.36972656 C8.91972656,3.1078125 8.57695312,2.04648438 8.31035156,1.33300781 C9.78554687,1.84589844 10.9738281,2.96816406 11.5679687,4.39257813 Z M5.76621094,1.07910156 C6.00742187,1.04609375 6.25117187,1.03085937 6.5,1.03085937 C6.70566406,1.03085937 6.90625,1.04355469 7.10429687,1.06386719 C7.32265625,1.56914063 7.81269531,2.81328125 8.12246094,4.39257813 L4.97910156,4.39257813 C5.24316406,2.63554688 5.68242187,1.32285156 5.76621094,1.07910156 Z M1.02070313,6.46445313 C1.02070313,6.10390625 1.05625,5.75097656 1.12480469,5.40820313 L3.83398437,5.40820313 C3.74003906,6.42636719 3.73242187,7.40644531 3.81113281,8.328125 L1.35332031,8.328125 C1.1375,7.74667969 1.02070313,7.11953125 1.02070313,6.46445313 Z M1.85605469,9.34375 L3.93808594,9.34375 C4.06503906,10.1181641 4.25546875,10.8494141 4.51445312,11.5273438 C3.40996094,11.1007813 2.478125,10.3263672 1.85605469,9.34375 Z M3.95332031,4.39257813 L1.43457031,4.39257813 C2.01855469,2.99355469 3.17382813,1.8890625 4.60839844,1.36347656 C4.41796875,2.01347656 4.13867188,3.0875 3.95332031,4.39257813 Z M7.23125,11.8498047 C6.99257812,11.8802734 6.74882812,11.8980469 6.50253906,11.8980469 C6.24863281,11.8980469 5.99980469,11.8802734 5.75351562,11.8472656 C5.36757812,11.0449219 5.11875,10.1943359 4.97148437,9.34375 L8.17324219,9.34375 C7.99296875,10.1892578 7.69335937,11.0398438 7.23125,11.8498047 Z M8.33066406,8.328125 L4.834375,8.328125 C4.74042969,7.28964844 4.77089844,6.28671875 4.8546875,5.40820313 L8.2875,5.40820313 C8.39921875,6.28925781 8.44238281,7.2921875 8.33066406,8.328125 Z M8.53886719,11.5095703 C8.83847656,10.8316406 9.06445312,10.1080078 9.20917969,9.34375 L11.1464844,9.34375 C10.5345703,10.3136719 9.62050781,11.0779297 8.53886719,11.5095703 Z M9.35644531,8.328125 L9.3640625,8.23671875 C9.4453125,7.33789063 9.42753906,6.38828125 9.31074219,5.40820313 L11.8777344,5.40820313 C11.9462891,5.75097656 11.9818359,6.10390625 11.9818359,6.46445313 C11.9818359,7.11953125 11.8650391,7.74667969 11.6492187,8.328125 L9.35644531,8.328125 Z" id="XMLID_378_" fill="#003945" fill-rule="nonzero"></path>
                                </g>
                            </g>
                        </g>
                    </g>
                </g>
            </g>
        </g>
    </g>
</svg>