<?xml version="1.0" encoding="utf-8"?>
<!-- Generator: Adobe Illustrator 16.0.0, SVG Export Plug-In . SVG Version: 6.00 Build 0)  -->
<!DOCTYPE svg PUBLIC "-//W3C//DTD SVG 1.1//EN" "http://www.w3.org/Graphics/SVG/1.1/DTD/svg11.dtd">
<svg version="1.1" id="Layer_1" xmlns="http://www.w3.org/2000/svg" xmlns:xlink="http://www.w3.org/1999/xlink" x="0px" y="0px"
	 width="1440px" height="773.214px" viewBox="0 81.786 1440 773.214" enable-background="new 0 81.786 1440 773.214"
	 xml:space="preserve">
<title>Rectangle</title>
<desc>Created with Sketch.</desc>
<g id="Landing-page">
	<g id="landing-page_x28_Desktop_x29_-3">
		<path id="Path-62" fill="#2163AF" d="M1120,524c-33.621-22.426-52.418-30.078-56.391-22.955c-5.96,10.685-3.815,7.626-23.413,0
			c-19.597-7.626-64.703-29.973-70.237-14.986s-0.15,29.594-26.042,26.184C926.656,509.969,911.351,513.888,898,524H1120z"/>
		
			<g id="planet-2" transform="translate(837.080803, 670.130800) rotate(-89.000000) translate(-837.080803, -670.130800) translate(786.580803, 632.723393)">
			<circle id="Oval-3-Copy-9" fill="#0C4180" cx="50.268" cy="37.218" r="29.319"/>
			<circle id="Oval-3-Copy-9_1_" fill="#0B386E" cx="45.126" cy="32.251" r="4.044"/>
			<circle id="Oval-3-Copy-9_2_" fill="#0B386E" cx="50.621" cy="57.435" r="2.022"/>
			<g id="Group-23" transform="translate(0.737580, 0.812284)">
				
					<linearGradient id="Oval-3-Copy-9_5_" gradientUnits="userSpaceOnUse" x1="-127.0875" y1="-380.4851" x2="-127.0875" y2="-382.1693" gradientTransform="matrix(-13.8282 18.8173 -85.0695 -53.6367 -34069.0977 -17989.4941)">
					<stop  offset="0" style="stop-color:#0C4180"/>
					<stop  offset="1" style="stop-color:#18286C"/>
				</linearGradient>
				
					<ellipse id="Oval-3-Copy-9_3_" transform="matrix(-0.5299 0.848 -0.848 -0.5299 107.4984 14.1514)" fill="none" stroke="url(#Oval-3-Copy-9_5_)" cx="49.827" cy="36.869" rx="11.645" ry="50.291"/>
				
					<ellipse id="Oval-3-Copy-9_4_" transform="matrix(2.957583e-005 1 -1 2.957583e-005 95.2721 -28.5314)" fill="#0B386E" cx="61.902" cy="33.372" rx="5.661" ry="5.605"/>
			</g>
		</g>
		<path id="Path-62-Copy-3" opacity="0.6" fill="#2163AF" enable-background="new    " d="M356,625
			c-31.35-25.034-48.876-33.575-52.581-25.624c-5.557,11.927-3.558,8.513-21.831,0c-18.273-8.513-60.332-33.458-65.492-16.729
			c-5.16,16.729-0.14,33.034-24.282,29.228C175.72,609.337,161.448,613.712,149,625H356z"/>
		<g id="Group-35" transform="translate(-911.000000, 542.000000)">
			<g id="Group-40-Copy" transform="translate(1848.000000, 104.000000)" opacity="0.56">
				<path id="Rectangle-Copy-2" fill="#1C3087" d="M154.129,8.434c-6.269-6.394-10.35-2.539-12.244,11.564s-1.895,40.635,0,79.592
					h12.244V8.434z"/>
				<path id="Rectangle-Copy-2_1_" fill="#18286C" d="M154.069,8.434c6.269-6.394,10.35-2.539,12.244,11.564s1.895,40.635,0,79.592
					h-12.244V8.434z"/>
				<g id="Group-56" transform="translate(0.000000, 12.000000)">
					<g id="Mask">
						<ellipse id="path-3_1_" fill="#000D4B" cx="86.5" cy="42" rx="86.5" ry="42"/>
					</g>
					<defs>
						<filter id="Adobe_OpacityMaskFilter" filterUnits="userSpaceOnUse" x="3" y="5" width="175" height="22">
							<feColorMatrix  type="matrix" values="1 0 0 0 0  0 1 0 0 0  0 0 1 0 0  0 0 0 1 0"/>
						</filter>
					</defs>
					<mask maskUnits="userSpaceOnUse" x="3" y="5" width="175" height="22" id="mask-4">
						<g filter="url(#Adobe_OpacityMaskFilter)">
							<ellipse id="path-3" fill="#FFFFFF" cx="86.5" cy="42" rx="86.5" ry="42"/>
						</g>
					</mask>
					<g mask="url(#mask-4)">
						<g transform="translate(3.000000, 5.000000)">
							<ellipse id="Oval" fill="#0C4180" cx="72" cy="2" rx="12" ry="2"/>
							<ellipse id="Oval_1_" fill="#0C4180" cx="102" cy="2" rx="12" ry="2"/>
							<ellipse id="Oval_2_" fill="#0C4180" cx="133" cy="2" rx="12" ry="2"/>
							<ellipse id="Oval_3_" fill="#0C4180" cx="42" cy="2" rx="12" ry="2"/>
							<g id="Group-55" transform="translate(0.000000, 18.000000)">
								<ellipse id="Oval_4_" fill="#0C4180" cx="72" cy="2" rx="12" ry="2"/>
								<ellipse id="Oval_5_" fill="#0C4180" cx="103" cy="2" rx="12" ry="2"/>
								<ellipse id="Oval_6_" fill="#0C4180" cx="132" cy="2" rx="12" ry="2"/>
								<ellipse id="Oval_7_" fill="#0C4180" cx="163" cy="2" rx="12" ry="2"/>
								<ellipse id="Oval_8_" fill="#0C4180" cx="12" cy="2" rx="12" ry="2"/>
								<ellipse id="Oval_9_" fill="#0C4180" cx="43" cy="2" rx="12" ry="2"/>
							</g>
							<ellipse id="Oval_10_" fill="#0C4180" cx="117" cy="11" rx="7" ry="2"/>
							<ellipse id="Oval_11_" fill="#0C4180" cx="144" cy="11" rx="7" ry="2"/>
							<ellipse id="Oval_12_" fill="#0C4180" cx="64" cy="11" rx="7" ry="2"/>
							<ellipse id="Oval_13_" fill="#0C4180" cx="91" cy="11" rx="7" ry="2"/>
							<ellipse id="Oval_14_" fill="#0C4180" cx="14" cy="11" rx="7" ry="2"/>
							<ellipse id="Oval_15_" fill="#0C4180" cx="41" cy="11" rx="7" ry="2"/>
						</g>
					</g>
				</g>
				<path id="Oval_16_" fill="#18286C" d="M177.938,9.41c0-5.048-10.507-9.14-23.469-9.14S131,4.362,131,9.41
					S177.938,14.458,177.938,9.41z"/>
			</g>
			<path id="Path-29" fill="#0C4180" d="M2728,97.771C2623.896,52,2534.671,40.557,2460.327,63.443
				c-111.517,34.328-210.406,60.705-295.835,47.517c-85.43-13.188-92.694,31.063-148.803,38.525
				c-56.107,7.463-90.043-7.463-140.838,0c-50.796,7.463-148.461,111.706-387.816,139.092
				c-239.356,27.386-513.022-19.826-627.857-22.883c-114.835-3.058-161.407,23.737-231.718,0
				c-70.311-23.738-70.311-40.181-107.797-45.638c-37.486-5.458-118.51,5.457-181.858,0
				c-63.349-5.458-151.039-36.909-151.039-36.909s-36.964-10.971-79.087,0c-42.123,10.972-47.567,12.257-71.625,12.257
				c-16.038,0-28.056-1.947-36.054-5.841V752h2728"/>
			<path id="Path-29_1_" fill="#18286C" d="M2734,108.579c-104.396-49.248-193.768-62.43-268.111-39.544
				c-48.204,14.84-93.914,26.729-137.265,39.544c-20.772,6.141-33.372,10.861-53.056,13.188c-18.474,2.185-44.643,3.345-62.177,0
				c-14.991-2.858-73.252-10.926-83.837-4.197c-6.715,4.269-26.974,16.068-32.658,17.407c-16.273,3.834-15.523,2.035-27.647,4.42
				c-14.979,2.946-22.667,17.955-44.775,20.896c-15.376,2.045-31.477-2.075-45.414,0c-11.389,1.695-34.451,5.693-44.237,4.858
				c-21.941-1.873-28.886-12.562-54.387-8.814c-12.742,1.872-21.641,21.163-41.778,32.475c-12.262,6.888-33.484,3.296-49.803,11.56
				c-17.078,8.648-46.924,31.203-68.219,41.453c-58.157,27.993-123.109,45.605-227.601,57.561
				c-239.356,27.386-513.022-19.826-627.857-22.883c-114.835-3.058-161.407,23.737-231.718,0s-70.311-40.181-107.797-45.638
				c-37.486-5.458-118.51,5.457-181.858,0c-63.349-5.458-151.039-36.909-151.039-36.909s-36.964-10.971-79.087,0
				c-42.123,10.972-47.567,12.257-71.625,12.257c-16.038,0-28.056-1.947-36.054-5.841v562.437h2728"/>
			<g id="Group-40" transform="translate(1154.000000, 58.602405)">
				<path id="Rectangle-Copy-2_2_" fill="#1C3087" d="M31,11.338c-8.257-8.421-13.633-3.344-16.128,15.231
					c-2.496,18.575-2.496,53.518,0,104.828H31V11.338z"/>
				<path id="Rectangle-Copy-2_3_" fill="#18286C" d="M30,11.338c8.257-8.421,13.633-3.344,16.128,15.231
					c2.496,18.575,2.496,53.518,0,104.828H30V11.338z"/>
				<path id="Oval_17_" fill="#18286C" d="M62,12.418C62,5.779,48.121,0.398,31,0.398S0,5.779,0,12.418
					C0,19.058,62,19.058,62,12.418z"/>
			</g>
			<path id="Path-29_2_" fill="#1C3087" d="M629,48.832C702.271,0,765.067-12.208,817.392,12.208
				c78.486,36.624,148.086,64.766,208.212,50.695c60.126-14.071,65.24,33.139,104.729,41.101s63.374-7.962,99.125,0
				c35.75,7.962,104.488,119.176,272.949,148.393c168.462,29.218,381.016-11.646,461.838-14.906
				c53.882-2.175,248.8,167.598,584.756,509.317H629"/>
			<path id="Path-29_3_" fill="#000D4B" d="M629,61.832C702.271,13,765.067,0.792,817.392,25.208
				c58.629,27.358,109.131,66.263,157.598,70.095c16.416,1.298,35.402-15.84,50.614-19.4c60.126-14.07,69.932,37.19,106.112,37.19
				c36.181,0,41.977,12.375,65.18,11.44c8.219-0.33,22.435-13.523,31.786-11.44c13.037,2.903,22.91,25.288,47.956,46.669
				c27.795,23.728,49.513,52.785,102.96,75.387c30.462,12.881,86.438,17.221,125.294,23.96
				c34.137,5.921,91.12,19.809,126.108,20.248c38.25,0.479,64.142-17.319,109.018-13.095c88.692,8.349,157.742-23.4,204.282-25.278
				c80.822-3.262,212.571-42.867,238.955-48.689c26.383-5.822,83.408,5.822,127.994,0c44.585-5.822,106.303-27.377,106.303-27.377
				s26.017-11.705,55.663,0s33.479,1.076,50.41,1.076c11.287,0,19.746-2.077,25.375-6.231v600.046H629"/>
		</g>
		<path id="Path-62-Copy-3_1_" fill="#2163AF" d="M702,665c26.806-19.818,41.793-26.58,44.96-20.285
			c4.752,9.441,3.042,6.739,18.667,0s51.588-26.488,56-13.244s0.12,26.152,20.764,23.139c13.762-2.009,25.965,1.454,36.609,10.391
			H702z"/>
		<path id="Path-2" fill="#2163AF" d="M0,0"/>
		<path id="Path-21" fill="#2163AF" d="M0,0"/>
		<g id="Group-39" transform="translate(767.000000, 182.000000)">
			<g id="sapceman">
				<g id="Group-9">
					<path id="Path-2_1_" fill="#E1E5EF" d="M73.313,106.398c-8.086,1.855-19.941,11.841-35.568,29.955
						c-8.622,9.995-31.837,13.513-19.396,67.814c0.295,1.284,1.456,2.397,3.484,3.341c9.566-2.251,15.329-3.377,17.288-3.377
						c6.963,0-0.239-20.271,7.1-27.922c7.34-7.651,25.353-21.026,33.892-9.064s90.488,10.618,94.29-6.341
						c3.802-16.959,30.291,4.106,47.071,0c21.634-5.294,39.924-17.924,41.644-19.281c6.554-5.17-5.685-19.946-5.685-19.946
						s-24.001,10.663-38.646,6.546c-17.495-4.917-28.357-24.696-44.384-31.761c-5.125-2.259-10.7-4.188-17.021-5.522
						C139.991,87.169,111.969,92.354,73.313,106.398z"/>
					
						<linearGradient id="Path-8_1_" gradientUnits="userSpaceOnUse" x1="-356.1504" y1="640.708" x2="-356.0683" y2="640.5469" gradientTransform="matrix(98.5338 17.3742 8.0658 -45.7437 30144.1328 35639.0195)">
						<stop  offset="0" style="stop-color:#DCE1F1;stop-opacity:0"/>
						<stop  offset="1" style="stop-color:#6075A8"/>
					</linearGradient>
					<path id="Path-8" fill="url(#Path-8_1_)" d="M171.524,133.4c19.939,9.62,36.256,14.426,48.95,14.418
						c19.042-0.011,45.58-12.94,45.986-15.261c0,0,1.353,2.025,6.81,0c-3.397,3.188-7.687,6.087-10.312,8.966
						c-1.494,1.639-19.244,11.4-23.396,13.08c-11.047,4.466-19.088,7.627-26.175,6.558c-0.922-0.139-1.898-0.212-2.847-0.406
						c-2.208-0.453-4.198-0.796-5.686-1.241c-11.603-3.472-20.901-6.77-25.824-4.77c-1.823,0.741-4.267,3.098-7.331,7.071
						L171.524,133.4z"/>
					
						<linearGradient id="Path-16_1_" gradientUnits="userSpaceOnUse" x1="-361.8496" y1="642.4824" x2="-361.3684" y2="641.8933" gradientTransform="matrix(43.2943 0 0 -49.6764 15707.1348 32078.1699)">
						<stop  offset="0" style="stop-color:#DCE1F1;stop-opacity:0"/>
						<stop  offset="1" style="stop-color:#6075A8"/>
					</linearGradient>
					<path id="Path-16" fill="url(#Path-16_1_)" d="M71.234,153.917c-23.83,2.08-36.621,7.974-38.374,17.684
						c-1.752,9.709-1.908,19.303-0.468,28.781c4.736-0.119,7.537,0.842,8.402,2.883c0.571,1.348,1.817-1.581,1.695-6.424
						c-0.06-2.347-0.022-4.216,0.03-6.104c0.153-5.421,0.701-9.439,1.645-11.331c0.562-1.174,1.169-2.331,2.334-3.508
						c5.942-6.006,16.76-13.371,21.417-12.605C75.739,163.19,76.846,160.065,71.234,153.917z"/>
					<path id="Combined-Shape" fill="#FFFFFF" d="M63.594,211.938l-1.975-0.066c3.057-10.627,4.578-22.791,4.563-36.488
						c-0.005-4.373-0.405-9.466-1.203-15.281c-3.702-26.992,14.057-52.266,40.706-57.93l8.323-1.769
						c28.107-5.975,55.737,11.968,61.711,40.076c0.767,3.606,1.148,7.284,1.138,10.971c-0.015,4.854-0.146,9.102-0.393,12.742
						c-0.974,14.354-3.795,30.515-8.465,48.482c8.602,39.828,13.695,65.242,12.932,96.249c-1.152,46.814-4.712,67.799-5.375,78.956
						c-0.664,11.156,4.537,10.449,3.251,17.731s-13.63,6.107-18.699,6.107s-11.009-1.024-12.689-6.107s3.687-4.929,2.165-14.2
						c-1.521-9.272-10.365-47.15-19.169-84.939c-5.116-21.959-10.961-34.723-14.373-39.377c-7.37-10.055-45.938-12.97-33.678,5.816
						c1.511,2.315,8.719,10.279,15.731,15.981c4.08,3.317,10.424,4.146,11.288,8.688c1.726,9.077-3.289,25.477-9.321,31.402
						c-6.033,5.925-13.706,5.576-15.707,0.177c-1.733-4.68,1.191-10.583-4.951-15.882c-6.626-5.718-26.231-22.031-35.276-28.459
						c-9.045-6.427-17.063-11.552-17.063-28.097s29.969-39.306,34.522-44.783L63.594,211.938z"/>
					<g id="head" transform="translate(28.029480, 0.404471)">
						
							<g id="Group-3" transform="translate(65.344257, 72.586060) rotate(-12.000000) translate(-65.344257, -72.586060) translate(8.844257, 26.586060)">
							<path id="Path-4" fill="#A8AEC0" d="M28.628,73.665c-1.739,1.741-2.119,3.41-1.138,5.007c0.652,1.061,3.114,3.024,4.604,3.91
								c3.128,1.86,7.972,4.103,13.919,5.785c14.815,4.191,36.362,5.404,54.454-7.76c1.666-1.371,2.087-3.632,1.261-6.782
								L67.25,82.948L28.628,73.665z"/>
							<path id="Rectangle-2" fill="#D1D5E3" d="M27.275,75.423c5.675,4.859,11.611,8.053,17.804,9.581
								c9.291,2.291,20.231,2.823,26.868,2.29c12.848-1.033,22.873-4.976,30.075-11.83c0.103,0.629,0.137,1.04,0.102,1.229
								c-0.052,0.285-10.197,10.233-30.166,11.893c-5.369,0.447-16.132,0.233-27.083-2.468c-9.894-2.44-18.131-9.458-17.912-10.029
								C27.11,75.708,27.213,75.486,27.275,75.423z"/>
							<path id="Path-9" fill="none" stroke="#1872A4" stroke-width="5" stroke-linecap="round" d="M23.77,70.841
								C10.535,64.883,2.997,57.049,1.156,47.337c-2.763-14.568,8.342-19.023,11.122-19.023"/>
							<path id="Oval_18_" fill="#FFFFFF" d="M63.91,85.022c26.554,0,48.526-9.715,48.527-36.409
								c0-26.695-21.779-48.226-48.332-48.226c-26.553,0-47.825,21.531-47.826,48.225C16.279,75.307,37.357,85.022,63.91,85.022z"/>
						</g>
						
							<g id="Group-14" transform="translate(25.553283, 50.362245) rotate(10.000000) translate(-25.553283, -50.362245) translate(17.553283, 22.862245)">
							<path id="Oval_19_" fill="#1896A4" d="M12.579,54.776c4.042,0.142,0.252-7.256,0.503-14.469
								c0.25-7.212,4.516-13.493,0.473-13.635C9.513,26.531,3.537,33.482,3.286,40.695C3.036,47.907,8.537,54.634,12.579,54.776z"/>
							<path id="Oval-Copy-2" fill="#00C0A5" d="M11.557,48.44c2.552-0.714,1.091-4.349,1.837-10.811
								c0.747-6.463,3.94-11.17,0.369-11.547C10.192,25.705,5.576,31.368,5,36.877C4.425,42.387,9.004,49.154,11.557,48.44z"/>
						</g>
						<g id="Group-21" transform="translate(25.484514, 24.335493)">
							
								<g id="Group-3_1_" transform="translate(46.904832, 46.137872) rotate(-12.000000) translate(-46.904832, -46.137872) translate(7.404832, 8.137872)">
								<path id="Oval_20_" fill="#D1D5E3" d="M39.507,75.839c20.8,0,39.213-10.8,39.212-35.373
									c0-24.574-18.949-40.189-39.749-40.188c-20.8,0-38.925,15.836-38.925,40.411C0.045,65.262,18.707,75.839,39.507,75.839z"/>
								<path id="Oval_21_" fill="#161440" d="M39.689,74.101c20.8,0,39.213-10.909,39.213-35.733
									c0-24.823-20.478-36.315-41.279-36.315c-20.8,0-37.397,11.716-37.397,36.539C0.227,63.416,18.889,74.101,39.689,74.101z"/>
								<path id="Oval_22_" fill="#323166" d="M75.541,42.067c-0.076-3.409-2.662-0.796-4.926,1.605
									c-3.253,3.449-6.854,8.499-19.394,14.424C36.694,64.96,23.377,60.021,17.299,59.8c-2.333-0.085-4.179,1.251-3.208,3.718
									c0.991,2.518,6.672,4.468,14.098,5.869c0,0,15.787,3.364,28.522-1.696C68.373,63.056,75.733,50.774,75.541,42.067z"/>
								
									<ellipse id="Oval_23_" transform="matrix(1.101613e-004 1 -1 1.101613e-004 38.589 12.941)" fill="#323166" cx="12.823" cy="25.767" rx="2.636" ry="2.622"/>
								
									<ellipse id="Oval_24_" transform="matrix(1.765490e-005 1 -1 1.765490e-005 41.5436 -3.8618)" fill="#323166" cx="22.703" cy="18.841" rx="6.15" ry="6.119"/>
							</g>
							<path id="Path-9_1_" fill="none" stroke="#1872A4" stroke-width="5" stroke-linecap="round" d="M90.443,17.889
								c14.643-1.539,20.06,5.607,16.249,21.439c-5.715,23.748-14.063,25.211-14.063,25.211"/>
						</g>
						
							<g id="Group-7" transform="translate(104.790055, 31.360229) rotate(-16.000000) translate(-104.790055, -31.360229) translate(91.790055, 2.860229)">
							<path id="Oval-Copy-2_1_" fill="#1896A4" d="M16.957,55.884c-3.467,0.934-1.869-7.013-3.727-13.984
								c-1.858-6.971-6.981-12.245-3.513-13.179c3.468-0.934,10.225,4.656,12.084,11.627C23.657,47.319,20.425,54.95,16.957,55.884z
								"/>
							<path id="Oval-Copy-2_2_" fill="#00C0A5" d="M17.273,50.506c-2.645-0.166-1.967-4.026-4.034-10.191
								c-2.067-6.166-6.164-10.103-2.75-11.218c3.415-1.115,9.101,3.46,10.805,8.729C22.997,43.094,19.916,50.671,17.273,50.506z"/>
						</g>
					</g>
					<path id="Path-39" opacity="0.3" fill="#FFFFFF" enable-background="new    " d="M131.399,32.669
						c2.313-0.822,5.047-0.194,8.201,1.883c4.742,3.122,6.505,7.978,5.289,14.565c-0.143-5.773-2.004-10.064-5.585-12.874
						C136.323,33.905,133.688,32.714,131.399,32.669z"/>
					<path id="Path-3" fill="#E1E5EF" d="M88.21,279.684c1.378,0.977,2.873,3.507,9.886,9.209c4.08,3.317,10.424,4.146,11.288,8.688
						c1.726,9.077-3.289,25.477-9.321,31.402c-6.033,5.925-13.706,5.576-15.707,0.177c-1.733-4.68,1.191-10.583-4.951-15.882
						c-6.626-5.718-10.989-9.307-16.387-13.664C79.637,302.379,87.791,296.138,88.21,279.684z"/>
					
						<linearGradient id="Path-37_1_" gradientUnits="userSpaceOnUse" x1="-367.5981" y1="642.373" x2="-367.5981" y2="641.5429" gradientTransform="matrix(26.5744 0 0 -59.0334 9865.2549 38205.8281)">
						<stop  offset="0" style="stop-color:#C6CFE4;stop-opacity:0"/>
						<stop  offset="1" style="stop-color:#94A1C5"/>
					</linearGradient>
					<path id="Path-37" fill="url(#Path-37_1_)" d="M83.28,274.368c7.141,15.866,11.261,26.608,12.359,32.227
						c2.265,11.584-1.446,19.176-2.818,20.708c-3.943,4.407-9.24,0.884-7.544,3.536c0.823,1.288,2.37,1.998,3.989,2.396
						c1.733,0.345,6.26,0.605,10.659-4.056c4.198-4.446,5.877-8.675,7.432-14.187c3.418-12.118,3.769-18.626-1.744-21.839
						c-0.645-0.375-1.78-0.974-3.407-1.796c-1.963-0.748-4.498-2.582-7.606-5.502S87.718,279.106,83.28,274.368z"/>
					
						<linearGradient id="Path-35_1_" gradientUnits="userSpaceOnUse" x1="-363.2144" y1="643.4453" x2="-364.0233" y2="643.5795" gradientTransform="matrix(36.2518 0 0 -16.4279 13273.499 10829.9336)">
						<stop  offset="0" style="stop-color:#D8DFF0;stop-opacity:0.0937"/>
						<stop  offset="1" style="stop-color:#AFBCDC"/>
					</linearGradient>
					<path id="Path-35" fill="url(#Path-35_1_)" d="M80.363,264.163c-0.481-4.248,0.669-7.697,3.449-10.347
						c3.109-2.963,17.936-5.111,26.109,3.888c3.911,4.306,6.106,7.631,6.587,9.974c-2.341-2.886-4.721-4.699-7.138-5.441
						c-5.395-1.654-10.084-2.813-14.335-2.968C87.356,258.991,82.465,260.623,80.363,264.163z"/>
					<g id="Group-11" transform="translate(140.207335, 343.667527)">
						<path id="Path-3_1_" fill="#E1E5EF" d="M38.625,8.798c-0.28,4.379-2.665,22.762-2.665,32.979c0,7.4,12.831,18.671,3.9,24.289
							c-8.931,5.619-16.244,5.124-21.556,5.124S7.769,66.789,6.794,61.009c-0.917-5.432,3.032-10.038,2.319-14.322
							c-0.484-2.91-7.022-31.783-8.578-39.165c-1.057-5.011,8.515-5.117,17.973-5.117C26.643,2.405,38.88,4.816,38.625,8.798z"/>
						<path id="Path-27" fill="#00C0A5" d="M0.02,5.13c6.754-3.653,13.584-5.248,20.488-4.783c6.905,0.465,13.028,2.181,18.37,5.146
							l-0.311,3.863c-6.291-3.298-12.311-5.179-18.06-5.643S8.189,4.788,0.796,8.328L0.02,5.13z"/>
					</g>
					<path id="Path-32" fill="#1896A4" d="M172.535,346.283c0.351,1.357,0.32,2.643-0.09,3.855c1.345,0.571,2.361,1.018,3.052,1.341
						s1.794,0.833,3.313,1.529l0.269-3.911c-1.368-0.661-2.424-1.174-3.166-1.537C174.801,347.017,172.948,346.5,172.535,346.283z"
						/>
					
						<g id="Group-15" transform="translate(277.043491, 128.664925) rotate(38.000000) translate(-277.043491, -128.664925) translate(252.043491, 106.664925)">
						<g id="Group-16" transform="translate(0.404428, 0.215284)">
							<path id="Path-2_2_" fill="#F9F9F9" d="M23.382,36.981c3.669-5.07,17.129-28.697,17.128-33.365
								c0-1.918-2.976-3.698-5.418-0.407c-1.476,1.989-3.411,3.998-5.105,5.843c-2.863,3.117-6.292,7.937-7.738,6.077
								c-1.446-1.861,6.17-7.181,5.059-8.598c-1.111-1.418-1.976-1.794-5.682,1.644S8.531,16.89,4.939,28.435
								c-0.327,1.051,2.437,6.114,7.9,7.902C16.195,37.434,19.713,42.052,23.382,36.981z"/>
							
								<linearGradient id="Path-2_6_" gradientUnits="userSpaceOnUse" x1="-167.5118" y1="817.7412" x2="-167.0199" y2="817.3497" gradientTransform="matrix(19.9158 -24.8117 -25.9918 -16.995 24604.7207 9755.3301)">
								<stop  offset="0" style="stop-color:#D8DFF0;stop-opacity:0.0937"/>
								<stop  offset="1" style="stop-color:#AFBCDC"/>
							</linearGradient>
							<path id="Path-2_3_" fill="url(#Path-2_6_)" d="M34.252,21.706c4.717-8.017,6.597-14.563,6.426-17.197
								c-0.128-1.983-1.042-2.745-1.514-2.902c-0.467-0.156-0.467-0.156-1.31,1.028C37.012,3.82,34.747,14.477,28.133,22.1
								C21.28,29.998,15.58,36.116,15.58,36.116c2.18,0.802,5.636,1.737,7.823,0.84C23.622,36.704,31.907,25.693,34.252,21.706z"/>
							<path id="Path-17" fill="#00C0A5" d="M4.993,28.047c2.38,2.258,4.757,3.933,7.13,5.023
								c6.466,2.969,11.438,3.661,11.438,3.661s-0.51,0.8-1.299,2.328c-0.186,0.36-0.428,0.9-0.728,1.619
								c-5.432-1.782-9.132-3.221-11.1-4.318s-4.437-2.734-7.408-4.912L4.993,28.047z"/>
						</g>
					</g>
					<path id="Path-33" fill="#1896A4" d="M259.208,135.639c1.276-0.255,2.462-0.769,3.558-1.543c0,0,1.428,1.904,4.281,5.712
						c-0.961,0.372-1.666,0.662-2.118,0.87c-0.451,0.208-1.076,0.532-1.877,0.971c-0.846-1.255-1.489-2.228-1.93-2.917
						C260.681,138.042,260.043,137.011,259.208,135.639z"/>
					
						<g id="Group-4" transform="translate(34.137380, 208.925433) scale(-1, 1) rotate(-55.000000) translate(-34.137380, -208.925433) translate(17.637380, 191.925433)">
						<path id="Path-2_4_" fill="#FFFFFF" d="M22.617,6.54c-1.628-0.771-2.902-1.039-4.433-0.691
							c-1.848,0.42-6.452-2.698-8.65-2.149c-5.116,1.28-5.683,3.203-6.656,6.565c-2.186,7.55,4.208,18.22,5.58,19.758
							c3.288,3.684,12.204-0.264,21.005-2.773C33.588,20.524,28.734,9.438,22.617,6.54z"/>
					</g>
					
						<g id="Group-4_1_" transform="translate(41.426630, 206.863091) scale(-1, 1) rotate(-55.000000) translate(-41.426630, -206.863091) translate(27.426630, 197.363091)">
						
							<linearGradient id="Path-2_7_" gradientUnits="userSpaceOnUse" x1="-97.8466" y1="559.0095" x2="-97.0056" y2="558.7094" gradientTransform="matrix(-11.603 13.5375 -21.3629 -3.2113 10813.3564 3129.3594)">
							<stop  offset="0" style="stop-color:#D8DFF0;stop-opacity:0.0937"/>
							<stop  offset="1" style="stop-color:#AFBCDC"/>
						</linearGradient>
						<path id="Path-2_5_" fill="url(#Path-2_7_)" d="M22.908,7.471C21.28,6.7,19.715,5.186,18.184,5.534
							c-1.848,0.42-4.808-2.702-8.664-2.139C4.323,4.153,3.85,6.589,2.877,9.95c-0.073,0.253-1.138,4.753,0.548,5.225
							c5.657,1.586,20.727-0.423,23.653-2.979C28.317,11.113,24.193,8.08,22.908,7.471z"/>
					</g>
					<g id="Group-25" transform="translate(17.093858, 194.238384)">
						<path id="Path-36" fill="#00C0A5" d="M0.464,6.325C2.646,3.227,6.312,1.362,11.461,0.73c5.147-0.632,9.804,0.135,13.966,2.3
							l-0.382,3.533C21.658,3.77,17.13,2.799,11.461,3.652c-5.67,0.852-9.07,2.945-10.2,6.278L0.464,6.325z"/>
						<path id="Path-23" fill="#1896A4" d="M14.636,0.532c0.331,0.968,0.331,1.916,0,2.841c0,0,3.886,0.089,5.807,0.799
							c1.28,0.474,2.836,1.271,4.666,2.392c0.124-0.724,0.204-1.282,0.239-1.676c0.036-0.394,0.063-1.009,0.079-1.847
							c-1.212-0.952-2.874-1.651-4.984-2.096C18.332,0.5,16.396,0.362,14.636,0.532z"/>
					</g>
					<path id="Path-10" fill="#1896A4" d="M109,137.109c-12.035,0-21.792,9.807-21.792,21.903s9.757,21.903,21.792,21.903
						s21.791-9.806,21.791-21.903S121.035,137.109,109,137.109 M108.301,173.707c-7.13,0-13.243-6.034-13.243-13.477
						c0-1.748,0.318-3.765,0.897-5.297l5.691,2.53c-0.019,0.083-0.042,0.191-0.067,0.314c-0.17,0.579-0.269,1.179-0.296,1.784
						c-0.012,0.12-0.017,0.24-0.013,0.361c0,0.028,0.004,0.055,0.005,0.083c0.026,2.211,1.012,4.292,2.68,5.655
						c1.669,1.363,3.84,1.863,5.902,1.359l3.234,5.732c-1.522,0.634-3.147,0.958-4.786,0.957 M121.439,166.006l-15.172-6.728
						l9.729-0.044c-0.348-3.694-3.975-6.693-7.396-6.693c-0.775-0.001-1.547,0.134-2.28,0.398l-3.367-5.987
						c1.771-0.85,3.697-1.288,5.646-1.285c7.49,0,13.891,6.472,13.891,14.312c0,2.113-0.261,4.226-1.053,6.027 M0,0 M0,0"/>
					<g id="Group" transform="translate(37.971765, 126.146453)">
						<path id="Path-11" fill="#323166" d="M0.91,8.726c-0.926,3.172-0.441,6.022,1.452,8.551c0,0,0.152,0.188,0.398,0
							c0.572-0.438,2.945-2.547,7.158-5.486c0.11-0.077,0.146-0.201,0.104-0.372C6.969,8.199,6.594,4.424,8.898,0.092
							c-0.423,0.29-1.711,1.625-3.863,4.003C4.278,4.931,2.903,6.474,0.91,8.726z"/>
						<g id="Group-12" transform="translate(1.899318, 3.818042)">
							<path id="Path-18-Copy-2" fill="none" stroke="#FFFFFF" stroke-width="0.6" stroke-linecap="round" d="M1.076,2.738
								c-0.527,0.616-0.791,1.13-0.791,1.544c0,0.413,0.039,0.811,0.116,1.194"/>
							<path id="Path-18-Copy-3" fill="none" stroke="#FFFFFF" stroke-width="0.6" stroke-linecap="round" d="M2.439,1.369
								c-0.527,0.616-0.791,1.13-0.791,1.544s0.038,0.812,0.116,1.194"/>
							<path id="Path-18-Copy-4" fill="none" stroke="#FFFFFF" stroke-width="0.6" stroke-linecap="round" d="M3.801,0
								C3.273,0.616,3.01,1.131,3.01,1.544c0,0.413,0.038,0.811,0.115,1.194"/>
						</g>
						<g id="Group-13" transform="translate(1.899318, 7.636085)">
							<path id="Path-18" fill="none" stroke="#FFFFFF" stroke-width="0.5" stroke-linecap="round" d="M3.89,0.362L1.076,3.114
								C0.731,3.407,0.595,3.55,0.669,3.543c1.46-0.133,3.277-0.652,3.945-0.816"/>
							<path id="Path-18_1_" fill="none" stroke="#FFFFFF" stroke-width="0.5" stroke-linecap="round" d="M4.307,1.643L1.75,4.48
								C1.404,4.772,1.269,4.916,1.344,4.909C2.803,4.776,4.508,4.552,5.312,4.48"/>
						</g>
					</g>
					<path id="Oval_25_" fill="#323166" d="M78.023,131.82c4.121,0,7.462-3.358,7.462-7.5s-3.341-7.5-7.462-7.5
						s-7.462,3.358-7.462,7.5S73.902,131.82,78.023,131.82z"/>
					<ellipse id="Oval-Copy-4" fill="#323166" cx="135.962" cy="116.708" rx="7.462" ry="7.5"/>
					<g id="Group-5" transform="translate(43.190976, 98.114567)">
						<path id="Path-12" fill="none" stroke="#B2C1DD" stroke-width="15" stroke-linecap="round" d="M33.909,24.149
							C20.317,6.923,10.999-1.01,5.954,0.352c-7.567,2.042,3.64,17.714,5.419,19.354"/>
						
							<linearGradient id="Path-14_2_" gradientUnits="userSpaceOnUse" x1="-417.9761" y1="545.0513" x2="-417.656" y2="545.2946" gradientTransform="matrix(18.3243 0 0 -19.396 7665.2798 10585.9238)">
							<stop  offset="0" style="stop-color:#5452D7;stop-opacity:0"/>
							<stop  offset="1" style="stop-color:#7E7DA8"/>
						</linearGradient>
						<path id="Path-14" fill="url(#Path-14_2_)" d="M9.274,6.884c-8.497-5.397-10.845,0.442-8.27,4.404
							C5.903,18.826,9.276,24.1,9.276,24.1c0.774-0.688,3.796-3.078,9.063-7.17c-0.229,0.354-0.865-0.259-1.909-1.841
							C14.864,12.716,9.674,7.681,9.274,6.884z"/>
					</g>
					
						<g id="Group-5-Copy" transform="translate(153.605986, 93.385555) scale(-1, 1) rotate(29.000000) translate(-153.605986, -93.385555) translate(127.605986, 77.385555)">
						<path id="Path-12_1_" fill="none" stroke="#B2C1DD" stroke-width="15" stroke-linecap="round" d="M51.138,26.08
							C28.514,6.573,13.803-1.81,7.007,0.93c-10.194,4.109,4.098,20.851,5.877,22.49"/>
						
							<linearGradient id="Path-14_3_" gradientUnits="userSpaceOnUse" x1="722.7228" y1="269.4954" x2="723.0573" y2="269.7836" gradientTransform="matrix(-15.6794 -9.6953 8.6913 -17.4908 8995.002 11739.208)">
							<stop  offset="0" style="stop-color:#5452D7;stop-opacity:0"/>
							<stop  offset="1" style="stop-color:#7E7D9D"/>
						</linearGradient>
						<path id="Path-14_1_" fill="url(#Path-14_3_)" d="M10.47,7.308C1.933,6.314-1.192,8.456,1.094,13.734
							c3.429,7.917,9.809,13.335,9.809,13.335c0.502-0.444,2.306-2.734,3.533-4.136c0.446-0.509,1.733-1.825,3.861-3.946
							c-0.983-0.976-1.687-1.72-2.113-2.23c-1.231-1.477-2.836-3.752-3.072-4.181C11.749,10.106,10.868,8.35,10.47,7.308z"/>
						<path id="Path-15" fill="#E1E5EF" d="M18.52,18.287c-2.71,2.588-4.532,4.404-5.467,5.445
							c-2.833,3.155-4.063,5.191-4.292,5.621c-0.718,1.35,1.139,1.976,5.571,1.88c2.139-0.795,3.674-1.648,4.606-2.561
							c0.932-0.913,2.109-2.714,3.529-5.404L18.52,18.287z"/>
					</g>
					<path id="Path-13" fill="#E1E5EF" d="M49.742,123.282c2.616-2.927,4.459-4.876,5.529-5.847c3.043-2.761,4.821-3.8,5.185-3.866
						c0,0,0.948,1.105,2.844,3.316c-3.521,6.542-5.45,9.908-5.788,10.095c-0.338,0.188-1.86-0.241-4.567-1.286L49.742,123.282z"/>
					<ellipse id="Oval-Copy-6" fill="#D1D5E3" cx="95.418" cy="124.176" rx="1.362" ry="1.369"/>
					<ellipse id="Oval-Copy-7" fill="#D1D5E3" cx="106.651" cy="126.086" rx="1.362" ry="1.369"/>
					<ellipse id="Oval-Copy-8" fill="#D1D5E3" cx="118.326" cy="122.268" rx="1.362" ry="1.369"/>
					<path id="Path-20" fill="#FFFFFF" d="M172.835,191.152c-3,19.546,0.221,46.158,1.78,55.556c1.04,6.265-8.17,2.852-27.63-10.238
						l7.02-35.172C166.558,194.534,172.835,191.152,172.835,191.152z"/>
					
						<ellipse id="Oval_26_" transform="matrix(-0.1737 -0.9848 0.9848 -0.1737 -115.0038 496.5013)" fill="#B3BED7" cx="150.803" cy="296.5" rx="15.003" ry="11.002"/>
					<path id="Oval-Copy" fill="#B3BED7" d="M45.208,281.033c3.995-1.462,1.825-7.611-2.108-13.046
						c-3.934-5.434-7.41-6.609-11.839-3.973c-2.504,1.491-2.504,2.39-1.949,4.477c0.614,2.308,2.274,5.237,5.132,7.992
						C39.886,281.727,41.213,282.494,45.208,281.033z"/>
					
						<linearGradient id="Path-30_1_" gradientUnits="userSpaceOnUse" x1="-366.1723" y1="642.1015" x2="-366.1574" y2="641.065" gradientTransform="matrix(29.2644 0 0 -240.328 10881.877 154431.4531)">
						<stop  offset="0" style="stop-color:#D8DFF0;stop-opacity:0.0937"/>
						<stop  offset="1" style="stop-color:#AFBCDC"/>
					</linearGradient>
					<path id="Path-30" fill="url(#Path-30_1_)" d="M155.653,108.832c4.729,16.146,6.452,35.598,5.17,58.357
						c-1.923,34.138-10.08,32.618-9.056,47.151c2.479,5.588,10.7,18.865,15.104,40.228c4.404,21.363,7.248,19.993,5.63,91.746
						c0,0-0.302-0.235,2.992,1.103c0.706,0.286,1.909,0.867,3.61,1.743c1.545-23.937,2.116-42.629,1.716-56.076
						c-0.601-20.172-3.664-33.394-6.7-50.613c-0.924-5.239-2.476-22.514-2.507-30.263c-0.028-7.188,0.091-13.059,0.889-19.099
						c0.676-5.122,1.8-10.376,2.681-16.661c0.67-4.78,1.14-10.152,1.514-16.537c0.364-4.701,0.533-11.29-0.501-17.103
						c-0.313-1.756-1.445-8.303-5.414-16.024C168.135,121.637,163.092,115.653,155.653,108.832z"/>
					<path id="Path-22" fill="#00C0A5" d="M63.367,204.58c15.358,4.75,29.559,7.213,42.603,7.391
						c13.043,0.177,34.953-3.436,65.73-10.839c-0.047,3.155-0.07,4.75-0.07,4.784c0,0.611,0,1.959,0,4.045
						c-30.396,7.091-52.282,10.437-65.66,10.037c-13.379-0.399-28.191-3.029-44.439-7.889c0.415-1.364,0.74-2.562,0.976-3.594
						C62.741,207.482,63.027,206.17,63.367,204.58z"/>
					<path id="Path-31" fill="#1896A4" d="M152.442,205.5c0.383,0.886,0.464,2.408,0.244,4.566
						c-0.221,2.157-0.553,3.568-0.997,4.233l20.088-4.233v-8.991L152.442,205.5z"/>
					
						<linearGradient id="Path-19_1_" gradientUnits="userSpaceOnUse" x1="-364.9555" y1="641.9911" x2="-364.8273" y2="641.9501" gradientTransform="matrix(32.165 0 0 -65.0027 11903.8135 42113.8828)">
						<stop  offset="0" style="stop-color:#C6CFE4;stop-opacity:0"/>
						<stop  offset="1" style="stop-color:#94A1C5"/>
					</linearGradient>
					<path id="Path-19" fill="url(#Path-19_1_)" d="M172.447,350.115c-0.684,20.447-1.185,31.882-1.502,34.303
						c-0.476,3.633,7.896,11.81,6.717,17.82c-1.396,7.117-4.947,9.14-14.948,10.55c-2.293,0.323-6.145,0.047-11.555-0.829
						c1.732,2.105,4.953,3.159,9.664,3.159c2.705,0,5.631-0.27,7.789-0.719c3.484-0.724,14.712-2.532,14.712-9.736
						c0-7.205-6.607-14.167-7.058-17.826c-0.232-1.891,0.494-8.99,1.616-21.523c0.217-2.426,0.525-6.532,0.924-12.32
						c-1.439-0.673-2.52-1.172-3.24-1.498S173.807,350.709,172.447,350.115z"/>
					<path id="Path-5" fill="#00C0A5" d="M61.381,298.254c7.164,1.519,13.139,0.609,17.924-2.729
						c4.785-3.337,7.348-9.042,7.688-17.114l1.265,1.323c0,8.367-2.461,14.285-7.384,17.754c-4.924,3.469-10.833,4.216-17.73,2.242
						L61.381,298.254z"/>
					<path id="Path-24" fill="#1896A4" d="M87.955,284.577c-0.103-0.639-0.244-1.138-0.425-1.497
						c-0.181-0.36-0.468-0.689-0.861-0.99c0.09-0.795,0.153-1.402,0.191-1.821s0.086-1.051,0.145-1.896l1.247,1.34
						c0.015,0.603-0.001,1.351-0.047,2.242C88.159,282.847,88.076,283.721,87.955,284.577z"/>
					<path id="Path-26" opacity="0.3" fill="#FFFFFF" enable-background="new    " d="M56.14,50.929
						c-2.376,1.928-4.115,4.694-5.219,8.298s-1.104,7.242,0,10.914c-2.339-3.887-2.924-7.593-1.754-11.118
						C50.336,55.497,52.66,52.799,56.14,50.929z"/>
				</g>
			</g>
		</g>
		
			<g id="Group-38" transform="translate(1116.000000, 561.500000) rotate(10.000000) translate(-1116.000000, -561.500000) translate(1018.000000, 493.000000)">
			<g id="Group-18" transform="translate(0.000000, 0.000000)">
				
					<g id="Group-8" transform="translate(93.000000, 83.000000) scale(-1, 1) translate(-93.000000, -83.000000) translate(23.000000, 29.000000)">
					<path id="Path-53" fill="#18286C" d="M93.124,48.293c24.657,4.211,39.968,7.682,45.931,10.416
						c0.629,0.111-2.664,2.436-3.877,2.969c-1.214,0.534-14.853-4.082-25.545,0.534C102.504,65.288,97.001,60.649,93.124,48.293z"/>
					<path id="Path-38" fill="#B7464C" d="M135.178,37.264L138,41.05c-1.334,0.594-3.308,0.159-5.921-1.301
						c-2.613-1.46-5.306-2.767-8.079-3.919l7-2.344L135.178,37.264z"/>
					<path id="Path-52" fill="#18286C" d="M62.263,68.86c-9.744,8.038-16.679,13.19-20.803,15.454
						C34.889,87.92,28.129,91.109,25,97.301c0,0-3.009,0-5.484,0c-1.65,0,5.178-7.342,20.484-22.029l11.338-6.753L62.263,68.86z"/>
					<path id="Path-54" fill="#22306B" d="M117,3c-6.016,3.599-9.459,6.615-10.331,9.051c-0.872,2.435,1.878,3.024,8.251,1.767
						c-0.241-2.248-0.242-4,0-5.256C115.162,7.306,115.855,5.452,117,3z"/>
					<path id="Path-51" fill="#5577FF" d="M0.751,95.076c3.09,0.394,4.966,0.592,5.627,0.592c0.531,0,21.02-4.922,34.987-13.167
						c13.968-8.245,27.281-10.28,36.756-11.971c7.693-1.373,19.621-3.045,35.214-2.309c5.147,0.243,12.856,1.013,23.124,2.308
						c1.693,0.009,2.873-0.548,3.54-1.669c-14.447-7.24-31.325-7.24-29.495-18.312c1.403-8.492,7.134-13.056,9.154-13.056
						c3.64,0,9.602,2.698,13.78-2.058c4.176-4.756,4.361-6.714,4.361-10.323c0-0.249-1.204-0.383-3.006-0.787
						c-2.927-0.656-7.254-1.785-9.241-3.494c-3.21-2.761-6.049-9.826-15.049-9.825c0,0-0.633-6.987,1.792-10.248
						c0,0-8.639,1.068-13.561,12.075C93.815,23.839,90.762,37.601,69,42.357c-21.763,4.756-39.446,2.92-44.844-15.769
						c0,0-2.101,15.114,13.965,25.029c0,0-4.487,3.495-10.722,21.239C25.013,79.643,16.131,87.049,0.751,95.076z"/>
					<path id="Path-55" fill="#22306B" d="M132.079,23.198c0.359,4.548,1.604,7.571,3.735,9.07c0.092,0.061,1.061-1.361,1.713-3.088
						c0.681-1.806,0.906-4.012,0.643-4.589c-0.515-1.129-1.234-0.359-2.745-0.618C134.416,23.801,133.302,23.542,132.079,23.198z"/>
					
						<ellipse id="Oval_27_" transform="matrix(0.9848 -0.1737 0.1737 0.9848 -3.255 22.5618)" fill="#1C295C" cx="127.312" cy="29.883" rx="1" ry="-1"/>
					
						<ellipse id="Oval-Copy-3" transform="matrix(0.9848 -0.1737 0.1737 0.9848 -3.6301 22.094)" fill="#1C295C" cx="124.451" cy="31.793" rx="1" ry="-1"/>
					
						<ellipse id="Oval-Copy-4_1_" transform="matrix(0.9848 -0.1737 0.1737 0.9848 -3.6623 22.6808)" fill="#1C295C" cx="127.788" cy="32.27" rx="1" ry="-1"/>
					<path id="Path-56" fill="#2841A6" d="M110.639,10.784c-1.933,1.227-2.439,4.097-1.518,8.608
						c1.383,6.77,7.671,8.942,12.672,5.752c5.001-3.191,1.859-1.98,5.041-3.397c-1.074-0.938-2.629-2.588-5.042-5.274
						c-0.515-0.573-1.418-1.509-2.71-2.81c-1.763-1.065-3.163-1.773-4.201-2.128C113.843,11.181,112.428,10.931,110.639,10.784z"/>
					
						<ellipse id="Oval_28_" transform="matrix(0.9848 -0.1737 0.1737 0.9848 -1.5202 20.7243)" fill="#0C1740" cx="117.678" cy="19.05" rx="2.626" ry="-2.626"/>
				</g>
				
					<g id="Group-9_1_" transform="translate(39.500000, 39.500000) scale(-1, 1) translate(-39.500000, -39.500000) translate(0.000000, 0.000000)">
					
						<ellipse id="Oval_29_" transform="matrix(0.342 -0.9397 0.9397 0.342 -10.8834 62.8104)" opacity="0.4511" fill="#22306B" enable-background="new    " cx="39.409" cy="39.177" rx="38.914" ry="-38.854"/>
					<path id="Path" opacity="0.45" fill="#02BAD3" enable-background="new    " d="M3.276,24.691
						c2.297-4.803,4.272-8.198,5.924-10.186c10.995-13.22,38.179-22.528,57.769-3.146c9.524,9.421,18.473,26.024,4.463,49.992
						c-1.61,2.789,1.099-10.329,0.238-22.173c-0.422-5.801-2.958-11.618-4.836-14.487c-2.624-4.008-9.407-13.004-18.428-15.564
						c-10.619-3.014-23.664,0.825-26.769,1.981C17.807,12.533,11.686,17.062,3.276,24.691z"/>
				</g>
			</g>
			<g id="Group-23_1_" transform="translate(69.000000, 47.105927)">
				<path id="Path-60" fill="#18286C" d="M4.725,19.395c1.872,1.205,7.506,1.807,16.9,1.808c14.091-0.001,18.214-6.308,28.482-6.308
					c6.845,0,22.365,4.698,46.557,14.091c5.657-10.198,14.057-14.096,25.202-11.694c11.145,2.401-0.055-0.103-33.6-7.515
					L46.949,6.482l-29.347,4.249l-12.878,6.56V19.395z"/>
				<path id="Path-59" fill="#1896A4" d="M3,15.964C24.13,3.094,40.22-1.705,51.27,1.57c16.575,4.912,30.431,3.119,39.979,0
					c9.549-3.118,7.893-1.647,13.726,4.913c5.833,6.558,29.411,10.015,12.33,11.411c-17.082,1.398-62.357-12.413-75.97-6.207
					c-9.074,4.139-21.278,6.207-36.609,6.207L3,15.964z"/>
				<circle id="Oval_30_" fill="#18286C" cx="3" cy="17.894" r="3"/>
				<path id="Path-61" opacity="0.5" fill="#0C4180" enable-background="new    " d="M5.452,15.911
					c7.401-3.566,11.52-5.417,12.356-5.552c0.837-0.137,1.101,0.353,0.794,1.467L5.452,15.911z"/>
				<path id="Path-61-Copy" opacity="0.5" fill="#0C4180" enable-background="new    " d="M5.617,16.274
					c6.567-1.327,10.274-1.984,11.122-1.973c0.848,0.011,0.432,0.443-1.246,1.295L5.617,16.274z"/>
			</g>
		</g>
		<polygon id="Rectangle" fill="#2266B6" points="732,233.272 736.145,241.289 744.728,246 736.145,249.771 732,258.728 
			727.856,249.771 719.273,246 727.856,241.288 		"/>
		<polygon id="Rectangle_1_" fill="#2266B6" points="1033,381.515 1035.763,386.859 1041.485,390 1035.763,392.514 1033,398.485 
			1030.237,392.514 1024.515,390 1030.237,386.859 		"/>
		<polygon id="Rectangle_2_" fill="#2266B6" points="993,168.444 998.066,178.241 1008.557,184 998.066,188.608 993,199.556 
			987.935,188.608 977.443,184 987.935,178.241 		"/>
		<g id="Group-27" transform="translate(1003.000000, 222.000000)">
			<g id="Group-Copy">
				<path id="Combined-Shape_1_" fill="#18BBD0" d="M45.667,60L27.333,30.667l18.334,7.168v-0.567L64,30L45.667,60z"/>
				<ellipse id="Oval_31_" fill="none" stroke="#27D6ED" stroke-width="0.5" cx="45.667" cy="34" rx="45.666" ry="9.333"/>
				<ellipse id="Oval_32_" fill="none" stroke="#27D6ED" stroke-width="0.5" cx="46" cy="33.333" rx="34" ry="6"/>
				<path id="Combined-Shape_2_" fill="#27D6ED" d="M46,0l18,30.063l-18.333,7.771l-18.334-7.168L46,0z"/>
				<circle id="Oval_33_" fill="#27D6ED" cx="8.333" cy="39.333" r="2.333"/>
				<circle id="Oval_34_" fill="#27D6ED" cx="72" cy="37.333" r="2"/>
			</g>
		</g>
	</g>
</g>
<path fill="#FFFFFF" d="M1718.5,700c-133.426,89.838-530.004,155-998.5,155c-468.497,0-865.076-65.162-998.501-155H-403v310h2246
	V700H1718.5z"/>
</svg>
