<?xml version="1.0" encoding="UTF-8"?>
<svg width="38px" height="38px" viewBox="0 0 38 38" version="1.1" xmlns="http://www.w3.org/2000/svg" xmlns:xlink="http://www.w3.org/1999/xlink">
    <!-- Generator: Sketch 55.2 (78181) - https://sketchapp.com -->
    <title>Group 76</title>
    <desc>Created with Sketch.</desc>
    <g id="Landing-page" stroke="none" stroke-width="1" fill="none" fill-rule="evenodd">
        <g id="how-it-works" transform="translate(-214.000000, -849.000000)">
            <g id="Group-74" transform="translate(214.000000, 507.000000)">
                <g id="Group-69" transform="translate(0.000000, 12.000000)">
                    <g id="Group-51" transform="translate(0.000000, 317.000000)">
                        <g id="Group-76" transform="translate(0.000000, 13.000000)">
                            <g id="NTF" transform="translate(0.000000, 1.000000)">
                                <circle id="Oval" stroke="#00C0A5" cx="18.855618" cy="18" r="18"></circle>
                                <g id="cat-(1)" transform="translate(9.000000, 9.000000)" fill="#00C0A5" fill-rule="nonzero">
                                    <path d="M20,0.62375 C20,0.45125 19.92875,0.28625 19.80375,0.16875 C19.67875,0.0525 19.50625,0 19.34125,0 C19.34,0 19.33875,0 19.33875,0 C19.1675,0.01 15.24625,0.28375 12.21625,3.37125 C11.4975,3.21625 10.7575,3.125 10,3.125 C9.2425,3.125 8.5025,3.21625 7.78375,3.37125 C4.7525,0.28375 0.83125,0.01 0.66125,0 L0.65875,0 C0.49375,0 0.32125,0.0525 0.19625,0.16875 C0.07125,0.28625 0,0.45125 0,0.62375 C0,0.67375 0.005,5.63625 0.405,9.53375 C0.1475,10.28625 0,11.07125 0,11.875 L0,13.0925 C0,14.1675 0.37875,15.19 1.0675,15.97125 C3.32875,18.53125 6.58375,20 10,20 C13.41625,20 16.67125,18.53125 18.9325,15.97 C19.62,15.19 20,14.1675 20,13.0925 L20,11.875 C20,11.07125 19.8525,10.28625 19.595,9.53375 C19.995,5.63625 20,0.67375 20,0.62375 Z M10.4813478,4 C10.9975933,4 11.5042118,4.05466667 12,4.14933333 L10.4813478,6 L9,4.14266667 C9.48495788,4.05333333 9.97833935,4 10.4813478,4 Z M1.22300756,7 C1.05971241,4.5992632 1.01340483,2.16291445 1,1 C2.04313917,1.18665575 4.15500853,1.76135898 6,3.39214081 C4.02949062,4.11174785 2.34291981,5.40114613 1.22300756,7 Z M5,10 C5,9.449 5.6735,9 6.5,9 C7.3265,9 8,9.449 8,10 C8,10.551 7.3265,11 6.5,11 C5.6735,11 5,10.551 5,10 Z M13.9840331,14.8133333 C13.5614443,16.6893333 11.9230794,18 9.99943374,18 C8.07712117,18 6.4387563,16.6906667 6.01616748,14.812 C5.97217558,14.616 6.01883365,14.408 6.14547699,14.2493333 C6.27345342,14.092 6.46408497,14 6.66671431,14 L13.3321532,14 C13.5347825,14 13.7267472,14.092 13.8533905,14.2506667 C13.9800338,14.4093333 14.028025,14.616 13.9840331,14.8133333 Z M13.5,11 C12.6735,11 12,10.551 12,10 C12,9.449 12.6735,9 13.5,9 C14.3265,9 15,9.449 15,10 C15,10.551 14.3265,11 13.5,11 Z M18.7769924,7 C17.6570802,5.39991813 15.971728,4.11174785 14,3.39091281 C15.8437728,1.76013099 17.9568608,1.18665575 19,1 C18.9865952,2.16291445 18.9402876,4.5992632 18.7769924,7 Z" id="Shape"></path>
                                </g>
                            </g>
                        </g>
                    </g>
                </g>
            </g>
        </g>
    </g>
</svg>