<?xml version="1.0" encoding="UTF-8"?>
<svg width="65px" height="62px" viewBox="0 0 65 62" version="1.1" xmlns="http://www.w3.org/2000/svg" xmlns:xlink="http://www.w3.org/1999/xlink">
    <!-- Generator: Sketch 55.2 (78181) - https://sketchapp.com -->
    <title>Group 73</title>
    <desc>Created with Sketch.</desc>
    <g id="Landing-page" stroke="none" stroke-width="1" fill="none" fill-rule="evenodd">
        <g id="how-it-works" transform="translate(-581.000000, -3589.000000)">
            <g id="Group-73" transform="translate(581.000000, 3589.000000)">
                <g id="Group-61">
                    <g id="credit-card" transform="translate(27.083333, 38.083333) scale(-1, -1) rotate(90.000000) translate(-27.083333, -38.083333) translate(9.083333, 11.083333)" fill="#05C0A5" fill-rule="nonzero">
                        <path d="M5.31158251,0.273891962 C4.91863735,-0.00584822695 4.41387967,-0.0761661939 3.95841418,0.0863309693 C1.5912747,0.936273286 0,3.20329669 0,5.72680662 L0,47.7431147 C0,50.2666246 1.59113546,52.533648 3.95827494,53.3835903 C4.41374043,53.5462267 4.91849811,53.4759087 5.31144326,53.1960293 C5.70605934,52.9146182 5.94096318,52.4573426 5.94096318,51.9694333 L5.94096318,1.50048794 C5.94110236,1.01271797 5.70619858,0.555442317 5.31158251,0.273891962 Z" id="Path"></path>
                        <path d="M30.4463021,53.4697705 C30.4459202,53.4697782 30.4455371,53.469782 30.4451529,53.469782 L13.3672366,53.469782 C12.5463962,53.469782 11.8820655,52.8055905 11.8820655,51.9844716 L11.8820655,1.4853104 C11.8820655,0.664330733 12.5463962,1.45661261e-13 13.3672366,1.45661261e-13 L29.7053726,1.45661261e-13 C32.9819113,1.45661261e-13 35.6463357,2.66456359 35.6463357,5.94110236 L35.6463357,14.8526863 L35.6463357,15.0529184 L35.6463357,24.0259095 L35.6463357,48.4697705 C35.6463357,51.2311943 33.4077594,53.4697705 30.6463357,53.4697705 L30.4463021,53.4697705 Z" id="Combined-Shape"></path>
                    </g>
                    <path d="M61.7276466,24.7022365 C61.6945689,24.6599303 58.4664371,20.448747 57.4171152,17.0824072 C57.1678736,16.2808316 56.857217,15.1521302 56.5005255,13.8585839 C54.7947058,7.67033043 53.2414228,2.40490914 51.5203284,0.660416498 C50.2144962,-0.663897959 46.3682115,-1.66664203 43.0776113,-2.31544501 C42.3878251,-2.45144471 41.7498677,-1.90691173 41.7498677,-1.19411518 L41.7498677,7.05817152 C41.7498677,7.4616836 41.8559482,7.87459707 42.0582068,8.22202129 C42.9576256,9.76652065 43.7578112,10.6749303 44.1681223,10.8483219 C44.7410831,11.0899804 45.0111826,11.7577999 44.7728967,12.3388701 C44.5348214,12.9200471 43.8761115,13.194931 43.3031507,12.952311 C41.4601744,12.174132 39.5084841,8.64305414 38.2955645,5.59849837 C38.0993104,5.10481838 37.5646945,4.22664277 37.1094019,3.54183673 C35.6921168,1.49895669 33.397925,-1.23203364 31.4841229,-0.197416116 C29.8973318,0.660416498 27.9324366,0.660416498 29.8973318,6.67527599 C30.8811565,9.6869215 32.5658517,15.6129053 32.7470417,17.5331399 C32.7766431,17.8526805 32.789811,18.1555549 32.8041377,18.4537286 C32.8798793,20.1001476 32.9577278,21.802334 35.2046946,24.9348142 C36.4121364,26.6179841 37.9862773,27.5853661 39.6525934,28.6105453 C41.9382211,30.0168015 44.30254,31.4703851 46.3672634,35.0717597 C46.5665724,35.4193976 46.9402242,35.6631929 47.3367353,35.6636288 C58.0454864,35.6741968 61.8540583,25.9111702 61.8913497,25.8120283 C62.0337735,25.4414211 61.971305,25.01729 61.7276466,24.7022365 Z" id="Path" fill="#CDF4EE" fill-rule="nonzero" transform="translate(45.520138, 16.663633) scale(-1, -1) rotate(90.000000) translate(-45.520138, -16.663633) "></path>
                    <g id="ETH" transform="translate(39.000000, 38.000000)">
                        <path d="M24,12 C24,18.62748 18.62748,24 12,24 C5.37264,24 0,18.62748 0,12 C0,5.37252 5.37264,0 12,0 C18.62748,0 24,5.37252 24,12" id="Fill-506" fill="#5577FF"></path>
                        <path d="M12.4844301,4.01503759 L17.0997477,12.7421252 L12.4844301,15.0983071 L7.71428571,12.7421252 L12.4844301,4.01503759 Z M7.71428571,13.5900553 L12.4796293,15.9598886 L17.0997477,13.5900553 L12.4796293,19.443609 L7.71428571,13.5900553 Z" id="Combined-Shape" fill="#FFFFFF"></path>
                    </g>
                </g>
            </g>
        </g>
    </g>
</svg>