<?xml version="1.0" encoding="UTF-8"?>
<svg width="145px" height="149px" viewBox="0 0 145 149" version="1.1" xmlns="http://www.w3.org/2000/svg" xmlns:xlink="http://www.w3.org/1999/xlink">
    <!-- Generator: Sketch 55.2 (78181) - https://sketchapp.com -->
    <title>img2</title>
    <desc>Created with Sketch.</desc>
    <defs>
        <filter x="-20.7%" y="-13.2%" width="141.4%" height="126.4%" filterUnits="objectBoundingBox" id="filter-1">
            <feOffset dx="0" dy="12" in="SourceAlpha" result="shadowOffsetOuter1"></feOffset>
            <feGaussianBlur stdDeviation="8.5" in="shadowOffsetOuter1" result="shadowBlurOuter1"></feGaussianBlur>
            <feColorMatrix values="0 0 0 0 0.0819970561   0 0 0 0 0.11507115   0 0 0 0 0.247367527  0 0 0 0.0332440997 0" type="matrix" in="shadowBlurOuter1" result="shadowMatrixOuter1"></feColorMatrix>
            <feMerge>
                <feMergeNode in="shadowMatrixOuter1"></feMergeNode>
                <feMergeNode in="SourceGraphic"></feMergeNode>
            </feMerge>
        </filter>
    </defs>
    <g id="Landing-page" stroke="none" stroke-width="1" fill="none" fill-rule="evenodd">
        <g id="landing-page(Desktop)-2" transform="translate(-278.000000, -1950.000000)" fill-rule="nonzero">
            <g id="why-MEW" transform="translate(215.000000, 1757.000000)">
                <g id="Group-14-Copy-4" filter="url(#filter-1)" transform="translate(0.000000, 135.000000)">
                    <g id="img2" transform="translate(77.000000, 60.000000)">
                        <g id="laugh" transform="translate(3.000000, 2.000000)">
                            <path d="M7.48426348,29.6327768 L8.78911515,40.3292959 L3.779927,40.9483386 C1.42058102,41.2398273 -0.257085421,43.401455 0.0325036621,45.7762781 L0.0325036621,45.7762781 C0.322092746,48.1511012 2.46963278,49.839773 4.82897876,49.5482842 L9.83816691,48.9292415 L10.3722173,53.3072795 C11.6432798,63.726462 21.0647896,71.1355722 31.4160686,69.8563999 L31.4160686,69.8563999 C41.7673476,68.5769993 49.1281715,59.0936852 47.8573357,48.6745027 L44.969382,25 L7.48426348,29.6327768 Z" id="Path" fill="#FFCCAA"></path>
                            <path d="M39.3135685,25.7316068 L42.1172336,49.4069046 C43.2309942,58.8127884 37.5149079,67.4541945 29,69.9879965 C29.9539286,70.0226936 30.9223874,69.9829746 31.9000926,69.8583389 L31.9000926,69.8583389 C41.9492558,68.578883 49.0952443,59.095159 47.8614996,48.6755261 L45.0578346,25 L39.3135685,25.7316068 Z" id="Path" fill="#F2A077"></path>
                            <g id="Group" transform="translate(16.000000, 39.000000)" fill="#475D6D">
                                <path d="M1.76384483,5.95819355 C1.38793966,5.95819355 1.00947414,5.85774194 0.690362069,5.65045161 C-0.069362069,5.15690323 -0.20412931,4.24470968 0.389405172,3.61296774 C1.24409483,2.70309677 2.47399138,2.12458065 3.85215517,1.98387097 C5.23055172,1.84374194 6.5919569,2.15729032 7.68592241,2.868 C8.44564655,3.36154839 8.58041379,4.27393548 7.98687931,4.90548387 C7.39311207,5.53722581 6.29612069,5.64929032 5.53662931,5.15574194 C5.17748276,4.92232258 4.72988793,4.81916129 4.27763793,4.86541935 C3.82515517,4.91167742 3.42131897,5.10154839 3.14061207,5.4003871 C2.79636207,5.7663871 2.28266379,5.95819355 1.76384483,5.95819355 Z" id="Path"></path>
                                <path d="M20.2255603,4.07303226 C19.8496552,4.07303226 19.4711897,3.9723871 19.1520776,3.76529032 C18.3923534,3.27174194 18.2575862,2.35935484 18.8513534,1.7276129 C20.6161293,-0.150580645 23.8894138,-0.484645161 26.1478707,0.982645161 C26.9075948,1.47619355 27.0423621,2.3883871 26.4488276,3.02012903 C25.8552931,3.65187097 24.758069,3.76393548 23.9985776,3.2703871 C23.2570086,2.78845161 22.1821293,2.89819355 21.6027931,3.51503226 C21.2580776,3.8816129 20.7443793,4.07303226 20.2255603,4.07303226 Z" id="Path"></path>
                            </g>
                            <path d="M33.801498,59.9554751 L33.801498,59.9554751 C30.5567136,60.3520493 27.6033957,58.0553639 27.2049607,54.825734 L27.0067544,53.2193068 C26.9465285,52.7303553 27.295749,52.2852439 27.7869949,52.2252992 L37.7584317,51.0067229 C38.2496775,50.9467782 38.6968775,51.2943677 38.7571035,51.7833193 L38.9553097,53.3897464 C39.35352,56.6193764 37.0462825,59.5591247 33.801498,59.9554751 Z" id="Path" fill="#CE3A4C"></path>
                            <path d="M45.0175938,27.0912501 L11.2799777,31.2350271 C9.42427977,31.4628922 8.10718083,33.1520123 8.3347389,35.0061381 L8.96063581,40.105377 L4.00328097,40.7142145 C3.61840711,40.7615835 3.25305746,40.858342 2.90902736,41 L0.0454760833,17.6693095 C-0.359595238,14.3685211 1.98645218,11.3645184 5.28604422,10.9593002 L30.650017,7.84394678 C36.4350189,7.13318732 41.7516642,4.44684882 44.0357727,0 C57.5492213,5.37559547 54.0288037,25.9842523 45.0175938,27.0912501 Z" id="Path" fill="#475D6D"></path>
                            <path d="M43.9118819,0 C43.3594687,1.06789814 42.6307292,2.03384412 41.7638863,2.89715974 C50.8905356,10.2811193 47.1753973,27.002632 39,28 L44.9072723,27.279327 C54.0430223,26.1648609 57.6120942,5.41295958 43.9118819,0 Z" id="Path" fill="#2C3F4F"></path>
                            <path d="M102.515737,75.6327768 L101.210885,86.3292959 L106.220073,86.9483386 C108.579419,87.2398273 110.257085,89.401455 109.967496,91.7762781 L109.967496,91.7762781 C109.677907,94.1511012 107.530367,95.839773 105.171021,95.5482842 L100.161833,94.9292415 L99.6277827,99.3072795 C98.3567202,109.726462 88.9352104,117.135572 78.5839314,115.8564 L78.5839314,115.8564 C68.2326524,114.576999 60.8718285,105.093685 62.1426643,94.6745027 L65.030618,71 L102.515737,75.6327768 Z" id="Path" fill="#FFCCAA"></path>
                            <path d="M107.217316,86.9483229 L102.204712,86.3292808 L103.510453,75.6327722 L66,71 L97.9527693,74.9463933 L96.6470279,85.6429019 L95.5972607,94.2428391 L95.0628462,98.6208728 C93.8530951,108.531253 86.3889921,115.851562 78.0698258,115.605498 C78.5606703,115.706161 79.056734,115.793813 79.5625557,115.856356 L79.5625557,115.856356 C89.9208934,117.135755 99.348828,109.726424 100.620757,99.3072517 L101.155172,94.929218 L106.167776,95.5482601 C108.528731,95.8399769 110.677508,94.1510785 110.967522,91.7762577 C111.257081,89.401437 109.578271,87.2398114 107.217316,86.9483229 Z" id="Path" fill="#F2A077"></path>
                            <g id="Group" transform="translate(67.000000, 84.000000)" fill="#475D6D">
                                <path d="M25.2366207,6.8145 C24.717569,6.8145 24.2041034,6.5979375 23.8596207,6.18384375 C23.2802845,5.48690625 22.2056379,5.362875 21.4638362,5.90734375 C20.7041121,6.4649375 19.6068879,6.3385 19.0135862,5.6245 C18.4200517,4.9105 18.554819,3.87953125 19.3145431,3.32171875 C21.5734655,1.663375 24.8465172,2.04115625 26.6110603,4.1636875 C27.2045948,4.8776875 27.0698276,5.908875 26.3103362,6.4666875 C25.9912241,6.70075 25.6125259,6.8145 25.2366207,6.8145 Z" id="Path"></path>
                                <path d="M6.77490517,4.68409375 C6.25585345,4.68409375 5.74215517,4.46753125 5.39790517,4.0534375 C5.11719828,3.71590625 4.71359483,3.50109375 4.26087931,3.4488125 C3.80839655,3.3963125 3.36126724,3.51290625 3.00188793,3.7769375 C2.24193103,4.33475 1.14493966,4.20809375 0.551637931,3.49409375 C-0.0418965517,2.78009375 0.0928706897,1.749125 0.852594828,1.1913125 C1.94656034,0.3880625 3.30796552,0.03325 4.68636207,0.1920625 C6.06452586,0.35109375 7.29442241,1.0049375 8.14911207,2.03328125 C8.74264655,2.74728125 8.60787931,3.77825 7.84815517,4.3360625 C7.52950862,4.5705625 7.15081034,4.68409375 6.77490517,4.68409375 Z" id="Path"></path>
                            </g>
                            <path d="M77.198502,105.955475 L77.198502,105.955475 C80.4432864,106.352049 83.3966043,104.055364 83.7950393,100.825734 L83.9932456,99.2193068 C84.0534715,98.7303553 83.704251,98.2852439 83.2130051,98.2252992 L73.2415683,97.0067229 C72.7503225,96.9467782 72.3031225,97.2943677 72.2428965,97.7833193 L72.0446903,99.3897464 C71.64648,102.619376 73.9537175,105.558901 77.198502,105.955475 Z" id="Path" fill="#CE3A4C"></path>
                            <path d="M105.691787,56.6340351 L81.7649952,53.6760681 C80.3828308,53.5051936 79.1379138,52.7574758 78.3238949,51.619901 C76.089625,48.4978672 72.5464343,46.3400377 68.3837148,46.0352775 C61.5006128,45.5312771 55.2821125,50.4830069 54.1766965,57.3422679 C52.9491326,64.9599123 58.2562562,72.0091095 65.7920157,72.9406365 L99.6722837,77.1294446 C101.534476,77.3597734 102.858721,79.0662492 102.629976,80.9413302 L102.001432,86.095704 L106.979748,86.7111245 C107.36625,86.7590057 107.733144,86.8568103 108.078629,87 L110.954288,63.4168225 C111.361297,60.0803446 109.005105,57.0438616 105.691787,56.6340351 Z" id="Path" fill="#BE6351"></path>
                            <path d="M105.042902,56.5197065 L101,56 C104.094156,56.3976559 106.294497,59.3458175 105.91462,62.5847855 L103.24622,85.3340089 L106.245671,85.7195479 C106.606607,85.7660329 106.949232,85.8609857 107.271865,86 L109.957312,63.1044921 C110.337399,59.865524 108.137059,56.9175828 105.042902,56.5197065 Z" id="Path" fill="#AA473A"></path>
                            <g id="Group" transform="translate(14.000000, 13.000000)" fill="#5577FF">
                                <path d="M72.4632622,7.73954774 C71.5341108,7.73954774 70.7808297,6.98020101 70.7808297,6.04356784 L70.7808297,1.76675879 C70.7808297,0.830125628 71.5341108,0.0707788945 72.4632622,0.0707788945 C73.3924135,0.0707788945 74.1456946,0.830125628 74.1456946,1.76675879 L74.1456946,6.04356784 C74.1456946,6.98020101 73.3924135,7.73954774 72.4632622,7.73954774 Z" id="Path"></path>
                                <path d="M72.4632622,20.8867839 C71.5341108,20.8867839 70.7808297,20.1274372 70.7808297,19.190804 L70.7808297,14.913995 C70.7808297,13.9773618 71.5341108,13.2180151 72.4632622,13.2180151 C73.3924135,13.2180151 74.1456946,13.9773618 74.1456946,14.913995 L74.1456946,19.190804 C74.1456946,20.1274372 73.3924135,20.8867839 72.4632622,20.8867839 Z" id="Path"></path>
                                <path d="M81.1058054,12.1746482 L76.8631595,12.1746482 C75.9340081,12.1746482 75.180727,11.4153015 75.180727,10.4786683 C75.180727,9.54203518 75.9340081,8.78268844 76.8631595,8.78268844 L81.1058054,8.78268844 C82.0349568,8.78268844 82.7882378,9.54203518 82.7882378,10.4786683 C82.7882378,11.4153015 82.0349568,12.1746482 81.1058054,12.1746482 Z" id="Path"></path>
                                <path d="M68.0635892,12.1746482 L63.8209432,12.1746482 C62.8917919,12.1746482 62.1385108,11.4153015 62.1385108,10.4786683 C62.1385108,9.54203518 62.8917919,8.78268844 63.8209432,8.78268844 L68.0635892,8.78268844 C68.9927405,8.78268844 69.7460216,9.54203518 69.7460216,10.4786683 C69.7460216,11.4153015 68.9927405,12.1746482 68.0635892,12.1746482 Z" id="Path"></path>
                                <path d="M10.5371865,76.7819849 C9.60803514,76.7819849 8.85475405,76.0226382 8.85475405,75.086005 L8.85475405,70.809196 C8.85475405,69.8725628 9.60803514,69.1132161 10.5371865,69.1132161 C11.4663378,69.1132161 12.2196189,69.8725628 12.2196189,70.809196 L12.2196189,75.086005 C12.2196189,76.0226382 11.4663378,76.7819849 10.5371865,76.7819849 Z" id="Path"></path>
                                <path d="M10.5371865,89.9294472 C9.60803514,89.9294472 8.85475405,89.1701005 8.85475405,88.2334673 L8.85475405,83.9566583 C8.85475405,83.0200251 9.60803514,82.2606784 10.5371865,82.2606784 C11.4663378,82.2606784 12.2196189,83.0200251 12.2196189,83.9566583 L12.2196189,88.2334673 C12.2196189,89.1701005 11.4663378,89.9294472 10.5371865,89.9294472 Z" id="Path"></path>
                                <path d="M19.1797297,81.2173116 L14.9370838,81.2173116 C14.0079324,81.2173116 13.2546514,80.4579648 13.2546514,79.5213317 C13.2546514,78.5846985 14.0079324,77.8253518 14.9370838,77.8253518 L19.1797297,77.8253518 C20.1088811,77.8253518 20.8621622,78.5846985 20.8621622,79.5213317 C20.8621622,80.4579648 20.1088811,81.2173116 19.1797297,81.2173116 Z" id="Path"></path>
                                <path d="M6.13728919,81.2173116 L1.89464324,81.2173116 C0.965491892,81.2173116 0.212210811,80.4579648 0.212210811,79.5213317 C0.212210811,78.5846985 0.965491892,77.8253518 1.89464324,77.8253518 L6.13728919,77.8253518 C7.06644054,77.8253518 7.81972162,78.5846985 7.81972162,79.5213317 C7.81972162,80.4579648 7.06644054,81.2173116 6.13728919,81.2173116 Z" id="Path"></path>
                            </g>
                        </g>
                    </g>
                </g>
            </g>
        </g>
    </g>
</svg>