<?xml version="1.0" encoding="UTF-8"?>
<svg width="38px" height="38px" viewBox="0 0 38 38" version="1.1" xmlns="http://www.w3.org/2000/svg" xmlns:xlink="http://www.w3.org/1999/xlink">
    <!-- Generator: Sketch 55.2 (78181) - https://sketchapp.com -->
    <title>Group 83</title>
    <desc>Created with Sketch.</desc>
    <g id="Landing-page" stroke="none" stroke-width="1" fill="none" fill-rule="evenodd">
        <g id="how-it-works" transform="translate(-214.000000, -2093.000000)">
            <g id="Group-71" transform="translate(214.000000, 1895.000000)">
                <g id="Group-55" transform="translate(0.000000, 74.000000)">
                    <g id="Group-83" transform="translate(0.000000, 124.000000)">
                        <g id="Ssend-tx" transform="translate(0.000000, 1.000000)">
                            <circle id="Oval" stroke="#00C0A5" cx="18.855618" cy="18" r="18"></circle>
                            <path d="M13.8667842,15.7435897 C13.1296111,15.7435897 12.351484,15.4153846 11.8190812,14.8820513 C11.2866784,14.3487179 11,13.6102564 11,12.8717949 C11,12.1333333 11.3276325,11.3948718 11.8190812,10.8205128 C12.351484,10.2871795 13.088657,10 13.8667842,10 C14.6039572,10 15.3411303,10.3282051 15.8735331,10.8205128 C16.4059358,11.3538462 16.7335683,12.0923077 16.7335683,12.8717949 C16.7335683,13.6102564 16.4059358,14.3487179 15.8735331,14.8820513 C15.3411303,15.4153846 14.6039572,15.7435897 13.8667842,15.7435897 Z M26.5215885,14.8820513 C27.0539913,14.3487179 27.3816238,13.6102564 27.3816238,12.8717949 C27.3816238,12.1333333 27.0539913,11.3948718 26.5215885,10.8205128 C25.9891858,10.2871795 25.2520127,10 24.5148396,10 C23.7776665,10 22.9995394,10.3282051 22.4671366,10.8205128 C21.9347339,11.3538462 21.6480555,12.0923077 21.6480555,12.8717949 C21.6480555,13.6102564 21.9756879,14.3487179 22.4671366,14.8820513 C22.9995394,15.4153846 23.7367125,15.7435897 24.5148396,15.7435897 C25.2520127,15.7435897 25.9891858,15.4153846 26.5215885,14.8820513 Z M15.8735331,25.1384615 C16.4059358,24.6051282 16.7335683,23.8666667 16.7335683,23.1282051 C16.7335683,22.3897436 16.4059358,21.6512821 15.8735331,21.0769231 C15.3411303,20.5435897 14.6039572,20.2564103 13.8667842,20.2564103 C13.1296111,20.2564103 12.351484,20.5846154 11.8190812,21.0769231 C11.2866784,21.6102564 11,22.3487179 11,23.1282051 C11,23.8666667 11.3276325,24.6051282 11.8190812,25.1384615 C12.351484,25.6717949 13.088657,26 13.8667842,26 C14.6039572,26 15.3411303,25.6717949 15.8735331,25.1384615 Z M26.5215885,25.1384615 C27.0539913,24.6051282 27.3816238,23.8666667 27.3816238,23.1282051 C27.3816238,22.3897436 27.0539913,21.6512821 26.5215885,21.0769231 C25.9891858,20.5435897 25.2520127,20.2564103 24.5148396,20.2564103 C23.7776665,20.2564103 22.9995394,20.5846154 22.4671366,21.0769231 C21.9347339,21.6102564 21.6480555,22.3487179 21.6480555,23.1282051 C21.6480555,23.8666667 21.9756879,24.6051282 22.4671366,25.1384615 C22.9995394,25.6717949 23.7367125,26 24.5148396,26 C25.2520127,26 25.9891858,25.6717949 26.5215885,25.1384615 Z" id="XMLID_29_" fill="#00C0A5" fill-rule="nonzero"></path>
                        </g>
                    </g>
                </g>
            </g>
        </g>
    </g>
</svg>