<?xml version="1.0" encoding="UTF-8"?>
<svg width="63px" height="57px" viewBox="0 0 63 57" version="1.1" xmlns="http://www.w3.org/2000/svg" xmlns:xlink="http://www.w3.org/1999/xlink">
    <!-- Generator: Sketch 55.2 (78181) - https://sketchapp.com -->
    <title>Group 90</title>
    <desc>Created with Sketch.</desc>
    <g id="Landing-page" stroke="none" stroke-width="1" fill="none" fill-rule="evenodd">
        <g id="how-it-works" transform="translate(-945.000000, -3589.000000)">
            <g id="Group-90" transform="translate(945.000000, 3586.000000)">
                <g id="Group-13-Copy-2" transform="translate(0.000000, 3.000000)">
                    <g id="browser">
                        <path d="M1.09090909,12.2727273 L62.4242424,12.2727273 L62.4242424,52.7171717 C62.4242424,54.9263107 60.6333814,56.7171717 58.4242424,56.7171717 L5.09090909,56.7171717 C2.88177009,56.7171717 1.09090909,54.9263107 1.09090909,52.7171717 L1.09090909,12.2727273 Z" id="Rectangle-4" fill="#CDF4EE"></path>
                        <g id="Group" transform="translate(0.969697, 0.848485)">
                            <path d="M0,0 L61.3333333,0 L61.3333333,8 C61.3333333,10.209139 59.5424723,12 57.3333333,12 L4,12 C1.790861,12 -3.28217218e-15,10.209139 0,8 L0,0 Z" id="Rectangle-4" fill="#5A78F0" transform="translate(30.666667, 6.000000) scale(1, -1) translate(-30.666667, -6.000000) "></path>
                            <path d="M53.8698092,3.89225589 C54.8925253,3.89225589 55.7216611,4.72139169 55.7216611,5.74410774 C55.7216611,6.76682379 54.8925253,7.5959596 53.8698092,7.5959596 L50.1661055,7.5959596 C49.1433895,7.5959596 48.3142536,6.76682379 48.3142536,5.74410774 C48.3142536,4.72139169 49.1433895,3.89225589 50.1661055,3.89225589 L53.8698092,3.89225589 Z M42.7586981,3.89225589 C43.7814141,3.89225589 44.6105499,4.72139169 44.6105499,5.74410774 C44.6105499,6.76682379 43.7814141,7.5959596 42.7586981,7.5959596 L39.0549944,7.5959596 C38.0322783,7.5959596 37.2031425,6.76682379 37.2031425,5.74410774 C37.2031425,4.72139169 38.0322783,3.89225589 39.0549944,3.89225589 L42.7586981,3.89225589 Z M31.647587,3.89225589 C32.670303,3.89225589 33.4994388,4.72139169 33.4994388,5.74410774 C33.4994388,6.76682379 32.670303,7.5959596 31.647587,7.5959596 L27.9438833,7.5959596 C26.9211672,7.5959596 26.0920314,6.76682379 26.0920314,5.74410774 C26.0920314,4.72139169 26.9211672,3.89225589 27.9438833,3.89225589 L31.647587,3.89225589 Z" id="Combined-Shape" fill="#FFFFFF" fill-rule="nonzero"></path>
                        </g>
                    </g>
                    <path d="M15.8904123,35.6491612 C15.3490828,35.3619036 14.9998745,34.7389887 15,34.0621059 L15,33.9368947 C15,33.2590125 15.3494595,32.635812 15.8902867,32.3496966 L23.8112008,28.1617609 C24.0117351,28.0558239 24.2357508,28 24.4591386,28 C24.7553567,28 25.0422827,28.0946579 25.2885241,28.2735515 C25.7339186,28.5960738 26,29.1478882 26,29.748959 L26,29.7945033 C26,30.472671 25.6502894,31.095586 25.10896,31.3817014 L20.1546216,33.9992861 L25.10896,36.6165854 C25.6502894,36.9024152 26,37.5254729 26,38.2039262 L26,38.2498989 C26,38.850113 25.7339186,39.4016419 25.2885241,39.7253064 C25.0397713,39.9051993 24.7535987,40 24.4600176,40 C24.2346206,40 24.0166323,39.9453183 23.8118287,39.8375253 L15.8904123,35.6491612 Z M29.2929214,40.3363967 C29.0072014,39.9212159 28.9244308,39.3808343 29.0714542,38.8899262 L31.986412,28.1235081 C32.1891129,27.4518571 32.7724838,27 33.4378796,27 L33.4770279,27 C33.9615961,27 34.4215569,27.2480267 34.7075254,27.6636033 C34.9936183,28.0798396 35.0757674,28.6210127 34.9276255,29.1112612 L32.0131648,39.87636 C31.810464,40.548011 31.2277144,41 30.5625672,41 L30.5232947,41 C30.0388507,41 29.57889,40.7518414 29.2929214,40.3363967 Z M38,29.7943605 L38,29.7942177 L38.0003767,29.7942177 L38.0003767,29.7488162 C38.0003767,29.1477454 38.2664521,28.5960738 38.7123387,28.2729804 C38.9585745,28.0943724 39.2458706,28 39.5415797,28 C39.7649624,28 39.9887219,28.0558239 40.1884981,28.1614753 L48.1092315,32.3494111 C48.6505485,32.6355265 49,33.2587269 49,33.9366092 L49,34.0618203 C49,34.7389887 48.6505485,35.3619036 48.1097337,35.6487329 L40.1890004,39.8369542 C39.9828203,39.9453183 39.7649624,40 39.5398217,40 C39.2458706,40 38.959579,39.9049137 38.7117108,39.7253064 C38.2658243,39.4014991 38,38.8499703 38,38.2496133 L38,38.2036407 C38,37.5254729 38.3497027,36.9024152 38.8908942,36.6162998 L43.8451195,33.9992861 L38.8908942,31.3824152 C38.3494515,31.0948721 38,30.4718144 38,29.7943605 Z" id="Combined-Shape" fill="#00C0A5" fill-rule="nonzero"></path>
                </g>
            </g>
        </g>
    </g>
</svg>