<?xml version="1.0" encoding="UTF-8"?>
<svg width="1440px" height="855px" viewBox="0 0 1440 855" version="1.1" xmlns="http://www.w3.org/2000/svg" xmlns:xlink="http://www.w3.org/1999/xlink">
    <!-- Generator: Sketch 55.2 (78181) - https://sketchapp.com -->
    <title>Rectangle</title>
    <desc>Created with Sketch.</desc>
    <defs>
        <linearGradient x1="50%" y1="36.0150726%" x2="50%" y2="168.410018%" id="linearGradient-1">
            <stop stop-color="#5A78F0" offset="0%"></stop>
            <stop stop-color="#2A4DDA" offset="100%"></stop>
        </linearGradient>
        <linearGradient x1="50%" y1="0%" x2="50%" y2="168.410018%" id="linearGradient-2">
            <stop stop-color="#0C4180" offset="0%"></stop>
            <stop stop-color="#18286C" offset="100%"></stop>
        </linearGradient>
        <ellipse id="path-3" cx="86.5" cy="42" rx="86.5" ry="42"></ellipse>
        <linearGradient x1="43.6909428%" y1="44.6620368%" x2="51.9034253%" y2="60.7761187%" id="linearGradient-5">
            <stop stop-color="#DCE1F1" stop-opacity="0" offset="0%"></stop>
            <stop stop-color="#6075A8" offset="100%"></stop>
        </linearGradient>
        <linearGradient x1="20.1174029%" y1="18.1000918%" x2="68.233%" y2="77.0120447%" id="linearGradient-6">
            <stop stop-color="#DCE1F1" stop-opacity="0" offset="0%"></stop>
            <stop stop-color="#6075A8" offset="100%"></stop>
        </linearGradient>
        <linearGradient x1="50%" y1="16.9069075%" x2="50%" y2="100%" id="linearGradient-7">
            <stop stop-color="#C6CFE4" stop-opacity="0" offset="0%"></stop>
            <stop stop-color="#94A1C5" offset="100%"></stop>
        </linearGradient>
        <linearGradient x1="71.5001567%" y1="53.1470885%" x2="-9.39019449%" y2="39.7324186%" id="linearGradient-8">
            <stop stop-color="#D8DFF0" stop-opacity="0.0937216938" offset="0%"></stop>
            <stop stop-color="#AFBCDC" offset="100%"></stop>
        </linearGradient>
        <linearGradient x1="35.3957427%" y1="-9.60383917%" x2="84.5925943%" y2="29.5517671%" id="linearGradient-9">
            <stop stop-color="#D8DFF0" stop-opacity="0.0937216938" offset="0%"></stop>
            <stop stop-color="#AFBCDC" offset="100%"></stop>
        </linearGradient>
        <linearGradient x1="0%" y1="28.4596081%" x2="100%" y2="76.1860168%" id="linearGradient-10">
            <stop stop-color="#D8DFF0" stop-opacity="0.0937216938" offset="0%"></stop>
            <stop stop-color="#AFBCDC" offset="100%"></stop>
        </linearGradient>
        <linearGradient x1="19.8840178%" y1="40.6198269%" x2="103.981164%" y2="70.6332239%" id="linearGradient-11">
            <stop stop-color="#D8DFF0" stop-opacity="0.0937216938" offset="0%"></stop>
            <stop stop-color="#AFBCDC" offset="100%"></stop>
        </linearGradient>
        <linearGradient x1="40.4372879%" y1="57.4762074%" x2="72.4402319%" y2="33.1541781%" id="linearGradient-12">
            <stop stop-color="#5452D7" stop-opacity="0" offset="0%"></stop>
            <stop stop-color="#7E7DA8" offset="100%"></stop>
        </linearGradient>
        <linearGradient x1="33.0325772%" y1="63.5012565%" x2="66.4752656%" y2="34.6747416%" id="linearGradient-13">
            <stop stop-color="#5452D7" stop-opacity="0" offset="0%"></stop>
            <stop stop-color="#7E7D9D" offset="100%"></stop>
        </linearGradient>
        <linearGradient x1="49.2586198%" y1="3.21975831%" x2="50.7413802%" y2="106.869355%" id="linearGradient-14">
            <stop stop-color="#D8DFF0" stop-opacity="0.0937216938" offset="0%"></stop>
            <stop stop-color="#AFBCDC" offset="100%"></stop>
        </linearGradient>
        <linearGradient x1="43.1851619%" y1="50%" x2="55.9986741%" y2="54.1052148%" id="linearGradient-15">
            <stop stop-color="#C6CFE4" stop-opacity="0" offset="0%"></stop>
            <stop stop-color="#94A1C5" offset="100%"></stop>
        </linearGradient>
    </defs>
    <g id="Landing-page" stroke="none" stroke-width="1" fill="none" fill-rule="evenodd">
        <g id="landing-page(Desktop)-3">
            <path d="M898,524 C931.620903,501.573906 950.417874,493.922347 954.390912,501.045325 C960.350469,511.729791 958.206254,508.671359 977.803457,501.045325 C997.400659,493.419291 1042.50722,471.07226 1048.04109,486.058793 C1053.57497,501.045325 1048.19176,515.652333 1074.08306,512.242129 C1091.34394,509.96866 1106.64958,513.887951 1120,524 L898,524 Z" id="Path-62" fill="#2163AF" transform="translate(1009.000000, 502.500000) scale(-1, 1) translate(-1009.000000, -502.500000) "></path>
            <g id="planet-2" transform="translate(837.080803, 670.130800) rotate(-89.000000) translate(-837.080803, -670.130800) translate(786.580803, 632.723393)" fill-rule="nonzero">
                <circle id="Oval-3-Copy-9" fill="#0C4180" cx="50.2683739" cy="37.2175795" r="29.3193193"></circle>
                <circle id="Oval-3-Copy-9" fill="#0B386E" cx="45.1258659" cy="32.2515172" r="4.04404404"></circle>
                <circle id="Oval-3-Copy-9" fill="#0B386E" cx="50.6212654" cy="57.4347201" r="2.02202202"></circle>
                <g id="Group-23" transform="translate(0.737580, 0.812284)">
                    <ellipse id="Oval-3-Copy-9" stroke="url(#linearGradient-2)" transform="translate(49.827162, 36.869578) scale(-1, 1) rotate(-32.000000) translate(-49.827162, -36.869578) " cx="49.8271616" cy="36.8695782" rx="50.2907504" ry="11.6446952"></ellipse>
                    <ellipse id="Oval-3-Copy-9" fill="#0B386E" cx="61.9022783" cy="33.3714733" rx="5.6052432" ry="5.66065312"></ellipse>
                </g>
            </g>
            <path d="M149,625 C180.349221,599.96622 197.876126,591.424946 201.580715,599.376177 C207.137599,611.303023 205.138264,607.888959 223.411331,599.376177 C241.684398,590.863394 283.743217,565.917872 288.90318,582.647024 C294.063144,599.376177 289.043664,615.681674 313.18556,611.874935 C329.280158,609.337109 343.551638,613.712131 356,625 L149,625 Z" id="Path-62-Copy-3" fill="#2163AF" opacity="0.600000024" transform="translate(252.500000, 601.000000) scale(-1, 1) translate(-252.500000, -601.000000) "></path>
            <g id="Group-35" transform="translate(-911.000000, 542.000000)">
                <g id="Group-40-Copy" opacity="0.560000002" transform="translate(1848.000000, 104.000000)">
                    <path d="M140.463488,8.43373784 C146.732267,2.04008511 150.813899,5.8949604 152.708386,19.9983637 C154.602873,34.101767 154.602873,60.6323792 152.708386,99.5902004 L140.463488,99.5902004 L140.463488,8.43373784 Z" id="Rectangle-Copy-2" fill="#1C3087" transform="translate(147.296370, 52.516189) scale(-1, 1) translate(-147.296370, -52.516189) "></path>
                    <path d="M154.068931,8.43373784 C160.337709,2.04008511 164.419342,5.8949604 166.313829,19.9983637 C168.208316,34.101767 168.208316,60.6323792 166.313829,99.5902004 L154.068931,99.5902004 L154.068931,8.43373784 Z" id="Rectangle-Copy-2" fill="#18286C"></path>
                    <g id="Group-56" transform="translate(0.000000, 12.000000)">
                        <mask id="mask-4" fill="white">
                            <use xlink:href="#path-3"></use>
                        </mask>
                        <use id="Mask" fill="#000D4B" xlink:href="#path-3"></use>
                        <g mask="url(#mask-4)">
                            <g transform="translate(3.000000, 5.000000)">
                                <ellipse id="Oval" fill="#0C4180" cx="72" cy="2" rx="12" ry="2"></ellipse>
                                <ellipse id="Oval" fill="#0C4180" cx="102" cy="2" rx="12" ry="2"></ellipse>
                                <ellipse id="Oval" fill="#0C4180" cx="133" cy="2" rx="12" ry="2"></ellipse>
                                <ellipse id="Oval" fill="#0C4180" cx="42" cy="2" rx="12" ry="2"></ellipse>
                                <g id="Group-55" stroke-width="1" fill="none" transform="translate(0.000000, 18.000000)">
                                    <ellipse id="Oval" fill="#0C4180" cx="72" cy="2" rx="12" ry="2"></ellipse>
                                    <ellipse id="Oval" fill="#0C4180" cx="103" cy="2" rx="12" ry="2"></ellipse>
                                    <ellipse id="Oval" fill="#0C4180" cx="132" cy="2" rx="12" ry="2"></ellipse>
                                    <ellipse id="Oval" fill="#0C4180" cx="163" cy="2" rx="12" ry="2"></ellipse>
                                    <ellipse id="Oval" fill="#0C4180" cx="12" cy="2" rx="12" ry="2"></ellipse>
                                    <ellipse id="Oval" fill="#0C4180" cx="43" cy="2" rx="12" ry="2"></ellipse>
                                </g>
                                <ellipse id="Oval" fill="#0C4180" cx="117" cy="11" rx="7" ry="2"></ellipse>
                                <ellipse id="Oval" fill="#0C4180" cx="144" cy="11" rx="7" ry="2"></ellipse>
                                <ellipse id="Oval" fill="#0C4180" cx="64" cy="11" rx="7" ry="2"></ellipse>
                                <ellipse id="Oval" fill="#0C4180" cx="91" cy="11" rx="7" ry="2"></ellipse>
                                <ellipse id="Oval" fill="#0C4180" cx="14" cy="11" rx="7" ry="2"></ellipse>
                                <ellipse id="Oval" fill="#0C4180" cx="41" cy="11" rx="7" ry="2"></ellipse>
                            </g>
                        </g>
                    </g>
                    <path d="M177.938776,9.40994794 C177.938776,4.36235505 167.431173,0.270472536 154.469388,0.270472536 C141.507603,0.270472536 131,4.36235505 131,9.40994794 C131,14.4575408 177.938776,14.4575408 177.938776,9.40994794 Z" id="Oval" fill="#18286C"></path>
                </g>
                <path d="M0,97.7718323 C104.104867,52 193.329275,40.5570419 267.673224,63.4429581 C379.189147,97.7718323 478.078706,124.148725 563.507846,110.960279 C648.936986,97.7718323 656.202068,142.022244 712.309969,149.485092 C768.417869,156.94794 802.35319,142.022244 853.148792,149.485092 C903.944394,156.94794 1001.60917,261.191011 1240.96529,288.577095 C1480.3214,315.96318 1753.987,268.75107 1868.82202,265.693999 C1983.65704,262.636928 2030.22949,289.43151 2100.5399,265.693999 C2170.85032,241.956488 2170.85032,225.513356 2208.33675,220.056149 C2245.82318,214.598941 2326.84676,225.513356 2390.19536,220.056149 C2453.54395,214.598941 2541.2342,183.147797 2541.2342,183.147797 C2541.2342,183.147797 2578.19877,172.176344 2620.32146,183.147797 C2662.44416,194.11925 2667.88852,195.404415 2691.94572,195.404415 C2707.98385,195.404415 2720.00195,193.457333 2728,189.563169 L2728,752 L0,752" id="Path-29" fill="#0C4180" transform="translate(1364.000000, 402.000000) scale(-1, 1) translate(-1364.000000, -402.000000) "></path>
                <path d="M6,108.579536 C110.396926,59.3309794 199.767364,46.1496589 274.111313,69.035575 C322.315417,83.8746454 368.025248,95.7646136 411.375962,108.579536 C432.148631,114.720154 444.748523,119.440719 464.431793,121.767983 C482.905246,123.952203 509.074526,125.112017 526.608323,121.767983 C541.599514,118.908873 599.860284,110.841314 610.444733,117.569929 C617.160668,121.839299 637.41873,133.638482 643.103647,134.977863 C659.376926,138.81189 658.627028,137.013126 670.751176,139.397556 C685.730275,142.343463 693.417519,157.352113 715.526444,160.292796 C730.902886,162.337999 747.003133,158.217873 760.940818,160.292796 C772.328985,161.988169 795.391608,165.986705 805.177959,165.151202 C827.11881,163.278016 834.063756,152.59014 859.564552,156.336696 C872.307105,158.208822 881.204574,177.499976 901.343047,188.811785 C913.604392,195.699 934.827386,192.10715 951.145359,200.370873 C968.223501,209.01956 998.068912,231.57441 1019.36421,241.824454 C1077.52157,269.817271 1142.47362,287.429318 1246.96529,299.3848 C1486.3214,326.770884 1759.987,279.558774 1874.82202,276.501703 C1989.65704,273.444632 2036.22949,300.239215 2106.5399,276.501703 C2176.85032,252.764192 2176.85032,236.321061 2214.33675,230.863853 C2251.82318,225.406645 2332.84676,236.321061 2396.19536,230.863853 C2459.54395,225.406645 2547.2342,193.955501 2547.2342,193.955501 C2547.2342,193.955501 2584.19877,182.984049 2626.32146,193.955501 C2668.44416,204.926954 2673.88852,206.212119 2697.94572,206.212119 C2713.98385,206.212119 2726.00195,204.265037 2734,200.370873 L2734,762.807704 L6,762.807704" id="Path-29" fill="#18286C" transform="translate(1370.000000, 410.475923) scale(-1, 1) translate(-1370.000000, -410.475923) "></path>
                <g id="Group-40" transform="translate(1154.000000, 58.602405)">
                    <path d="M13,11.3377045 C21.2569855,2.91678492 26.6331498,7.99394445 29.1284928,26.5691831 C31.6238357,45.1444218 31.6238357,80.0872256 29.1284928,131.397595 L13,131.397595 L13,11.3377045 Z" id="Rectangle-Copy-2" fill="#1C3087" transform="translate(22.000000, 69.397595) scale(-1, 1) translate(-22.000000, -69.397595) "></path>
                    <path d="M30,11.3377045 C38.2569855,2.91678492 43.6331498,7.99394445 46.1284928,26.5691831 C48.6238357,45.1444218 48.6238357,80.0872256 46.1284928,131.397595 L30,131.397595 L30,11.3377045 Z" id="Rectangle-Copy-2" fill="#18286C"></path>
                    <path d="M62,12.4184099 C62,5.77949695 48.1208272,0.397594628 31,0.397594628 C13.8791728,0.397594628 0,5.77949695 0,12.4184099 C0,19.0573229 62,19.0573229 62,12.4184099 Z" id="Oval" fill="#18286C"></path>
                </g>
                <path d="M629,48.83251 C702.270288,0 765.067525,-12.2081275 817.391712,12.2081275 C895.877992,48.83251 965.477682,76.9731764 1025.60376,62.9028432 C1085.72984,48.83251 1090.8431,96.0418646 1130.33253,104.00374 C1169.82196,111.965615 1193.70606,96.0418646 1229.45663,104.00374 C1265.2072,111.965615 1333.94487,223.179227 1502.40665,252.396568 C1670.86843,281.613909 1883.42178,240.751416 1964.24408,237.489924 C2018.12562,235.315597 2213.04426,405.08819 2549,746.807704 L629,746.807704" id="Path-29" fill="#1C3087"></path>
                <path d="M629,61.83251 C702.270288,13 765.067525,0.791872512 817.391712,25.2081275 C876.020597,52.5663703 926.522347,91.4707464 974.989078,95.3027557 C991.404587,96.6006436 1010.39158,79.4627032 1025.60376,75.9028432 C1085.72984,61.83251 1095.53496,113.092721 1131.71598,113.092721 C1167.89699,113.092721 1173.69264,125.467817 1196.89613,124.533679 C1205.11505,124.202798 1219.33107,111.010195 1228.68207,113.092721 C1241.71889,115.996102 1251.59158,138.381078 1276.63765,159.761764 C1304.43302,183.489397 1326.15049,212.547199 1379.59758,235.148057 C1410.05947,248.029296 1466.03587,252.369423 1504.89165,259.108415 C1539.02801,265.02889 1596.01163,278.917323 1631,279.356121 C1669.2505,279.83583 1695.14149,262.037214 1740.01722,266.261366 C1828.70996,274.610014 1897.75956,242.861406 1944.29995,240.983321 C2025.12226,237.721829 2156.87119,198.115873 2183.2546,192.293752 C2209.63802,186.471631 2266.66341,198.115873 2311.24893,192.293752 C2355.83445,186.471631 2417.55193,164.917407 2417.55193,164.917407 C2417.55193,164.917407 2443.56805,153.212314 2473.21452,164.917407 C2502.86099,176.622501 2506.6928,165.993602 2523.62455,165.993602 C2534.91239,165.993602 2543.37087,163.916323 2549,159.761764 L2549,759.807704 L629,759.807704" id="Path-29" fill="#000D4B"></path>
            </g>
            <path d="M702,665 C728.805855,645.181591 743.792629,638.419749 746.960322,644.714473 C751.71186,654.15656 750.002284,651.453759 765.62708,644.714473 C781.251877,637.975187 817.215214,618.226649 821.627357,631.470561 C826.0395,644.714473 821.747481,657.622992 842.390552,654.609324 C856.152599,652.600211 868.355748,656.06377 879,665 L702,665 Z" id="Path-62-Copy-3" fill="#2163AF"></path>
            <path d="" id="Path-2" stroke="#979797"></path>
            <path d="" id="Path-21" stroke="#979797" fill-rule="nonzero"></path>
            <g id="Group-39" transform="translate(767.000000, 182.000000)" fill-rule="nonzero">
                <g id="sapceman">
                    <g id="Group-9">
                        <path d="M80.9555917,94.3239538 C72.660645,94.4580973 58.9877229,101.760032 39.9368256,116.229757 C29.4250588,124.213758 5.98565108,122.828109 6.86566889,178.52994 C6.8864724,179.846724 7.79105596,181.177515 9.57941957,182.522314 C19.4047693,182.309172 25.2752802,182.406196 27.1909523,182.813385 C34.0021451,184.261148 31.1718745,162.936282 39.9415035,156.977736 C48.7111325,151.01919 69.1107876,141.682105 74.9762389,155.158084 C80.8416902,168.634063 161.28015,184.357685 168.524891,168.559605 C175.769632,152.761525 197.300193,178.874123 214.567107,178.34618 C236.828667,177.665524 257.345591,169.114124 259.309948,168.144503 C266.794825,164.449914 257.896483,147.452442 257.896483,147.452442 C257.896483,147.452442 232.203072,152.892467 218.732756,145.820765 C202.642338,137.373551 196.129831,115.768451 181.923124,105.525875 C177.379519,102.250084 172.326903,99.2047526 166.42147,96.5850751 C150.17465,89.3779093 121.686024,88.6242022 80.9555917,94.3239538 Z" id="Path-2" fill="#E1E5EF" transform="translate(134.573722, 136.716046) rotate(-12.000000) translate(-134.573722, -136.716046) "></path>
                        <path d="M169.943832,142.015619 C191.250286,148.02664 208.153782,149.926414 220.654318,147.714942 C239.405122,144.397733 263.293941,127.056096 263.291893,124.700335 C263.291893,124.700335 264.97536,126.459261 269.997657,123.517928 C267.205841,127.247216 263.484565,130.847315 261.399544,134.138069 C260.212799,136.011089 244.427886,148.706515 240.629496,151.081444 C230.526765,157.398137 223.156853,161.907527 215.991426,162.084886 C215.059308,162.107958 214.084688,162.205911 213.117844,162.179284 C210.864797,162.117237 208.844845,162.124571 207.302683,161.944547 C195.274055,160.540384 185.543743,158.90641 181.043039,161.731277 C179.375815,162.77771 177.378346,165.523052 175.050631,169.967303 L169.943832,142.015619 Z" id="Path-8" fill="url(#linearGradient-5)" transform="translate(219.970745, 146.742616) rotate(10.000000) translate(-219.970745, -146.742616) "></path>
                        <path d="M71.2339776,153.917639 C47.4042156,155.997015 34.613087,161.891518 32.8605918,171.601145 C31.1080967,181.310773 30.9519819,190.904487 32.3922474,200.382287 C37.1285164,200.263447 39.9293346,201.2245 40.7947021,203.265444 C41.366301,204.613544 42.6126283,201.684719 42.490036,196.841756 C42.4306279,194.494862 42.467577,192.625268 42.5207255,190.737139 C42.6733199,185.316142 43.2213628,181.298549 44.1650508,179.406494 C44.7262365,178.232413 45.3343728,177.075449 46.4988388,175.898573 C52.441295,169.892788 63.2591597,162.527606 67.9161622,163.293353 C75.739314,163.190535 76.8452525,160.065297 71.2339776,153.917639 Z" id="Path-16" fill="url(#linearGradient-6)"></path>
                        <path d="M63.593987,211.938211 L61.6193425,211.872639 C64.6757809,201.244936 66.1969186,189.08214 66.1827555,175.384249 C66.1782344,171.011626 65.7771759,165.917868 64.9795801,160.102975 C61.2772302,133.110888 79.0363492,107.837437 105.685803,102.17292 L114.008413,100.403895 C142.116336,94.4293715 169.745618,112.372037 175.720141,140.47996 C176.486702,144.086344 176.867767,147.763991 176.856913,151.450928 C176.842625,156.305689 176.712035,160.553144 176.465143,164.193292 C175.491576,178.547505 172.670013,194.708144 168.000455,212.675207 C176.601779,252.503037 181.694847,277.917113 180.93178,308.923867 C179.779704,355.737787 176.219532,376.72245 175.556173,387.879426 C174.892813,399.036401 180.093939,398.329194 178.807911,405.611394 C177.521882,412.893593 165.177467,411.71919 160.108119,411.71919 C155.038772,411.71919 149.099828,410.694449 147.418829,405.611394 C145.737829,400.528338 151.105952,400.682772 149.584244,391.410875 C148.062536,382.138977 139.219138,344.26072 130.415115,306.471693 C125.299239,284.513098 119.454368,271.748629 116.042345,267.094344 C108.671679,257.040138 70.1047157,254.125136 82.3640009,272.910939 C83.8751009,275.226508 91.0828485,283.190667 98.0958375,288.892511 C102.175926,292.209789 108.519926,293.038806 109.383378,297.580573 C111.108972,306.657215 106.0948,323.056517 100.062285,328.981958 C94.029771,334.907399 86.3564294,334.558308 84.3557945,329.159307 C82.6216627,324.479503 85.5469005,318.575946 79.4047645,313.276911 C72.7781864,307.559931 53.1731434,291.245838 44.1279239,284.818657 C35.0827044,278.391476 27.0655213,273.266819 27.0655213,256.721968 C27.0655213,240.177117 57.0340952,217.416337 61.588063,211.939082 L63.593987,211.938211 Z" id="Combined-Shape" fill="#FFFFFF"></path>
                        <g id="head" transform="translate(28.029480, 0.404471)">
                            <g id="Group-3" transform="translate(65.344257, 72.586060) rotate(-12.000000) translate(-65.344257, -72.586060) translate(8.844257, 26.586060)">
                                <path d="M28.6277993,73.6652847 C26.8883919,75.4065738 26.5090665,77.0755864 27.4898229,78.6723225 C28.1412047,79.732815 30.6033758,81.695828 32.0934968,82.5818917 C35.2218814,84.4421084 40.0655994,86.6854409 46.0119318,88.3675018 C60.8272056,92.5583527 82.374514,93.7719937 100.465953,80.6081246 C102.132452,79.2368548 102.552787,76.9760948 101.726957,73.8258446 L67.2503819,82.9481453 L28.6277993,73.6652847 Z" id="Path-4" fill="#A8AEC0"></path>
                                <path d="M27.2742065,75.4225427 C32.950184,80.2823919 38.8852019,83.4760491 45.0792599,85.0035143 C54.3703471,87.2947121 65.3098177,87.8265591 71.9468358,87.2929522 C84.7950058,86.2599774 94.8200433,82.3166754 102.021948,75.4630462 C102.124928,76.0926753 102.159024,76.5024261 102.124237,76.6922988 C102.072057,76.9771078 91.9265701,86.9252293 71.9572877,88.5856968 C66.5879506,89.032163 55.8252079,88.8179655 44.8751357,86.1176591 C34.980339,83.6775855 26.744028,76.6593349 26.9637408,76.0884862 C27.1102161,75.7079204 27.2137046,75.4859392 27.2742065,75.4225427 Z" id="Rectangle-2" fill="#D1D5E3"></path>
                                <path d="M0.717564471,28.3135888 C13.9518425,34.2710414 21.4898155,42.1058728 23.3314836,51.818083 C26.0939856,66.3863984 14.9899509,70.8412181 12.2092375,70.8412181" id="Path-9" stroke="#1872A4" stroke-width="5" stroke-linecap="round" transform="translate(12.243439, 49.577403) scale(-1, -1) translate(-12.243439, -49.577403) "></path>
                                <path d="M63.9104658,85.0225256 C90.4637417,85.0225256 112.437204,75.3075372 112.437204,48.6129072 C112.437204,21.9182772 90.6581952,0.387492571 64.1049193,0.387492571 C37.5516434,0.387492571 16.279286,21.9182772 16.279286,48.6129072 C16.279286,75.3075372 37.3571899,85.0225256 63.9104658,85.0225256 Z" id="Oval" fill="#FFFFFF"></path>
                            </g>
                            <g id="Group-14" transform="translate(25.553283, 50.362245) rotate(10.000000) translate(-25.553283, -50.362245) translate(17.553283, 22.862245)">
                                <path d="M13.0718574,54.64544 C17.1162865,54.6461607 13.0705702,47.3851812 13.0692907,40.1683825 C13.0680113,32.9515838 17.111301,26.52542 13.0668719,26.5246993 C9.02244273,26.5239786 3.29222448,33.6800456 3.29350372,40.8968443 C3.2947834,48.113643 9.02742824,54.6447193 13.0718574,54.64544 Z" id="Oval" fill="#1896A4" transform="translate(9.081252, 40.585070) rotate(2.000000) translate(-9.081252, -40.585070) "></path>
                                <path d="M12.7420416,48.1873096 C15.2055464,47.2100834 13.3725593,43.7479938 13.4391613,37.2430603 C13.5057633,30.7381269 16.1890621,25.7228723 12.5987819,25.7209651 C9.00850164,25.7190588 5.00995491,31.8335236 5.01288077,37.3732948 C5.01580983,42.913066 10.2785368,49.1645359 12.7420416,48.1873096 Z" id="Oval-Copy-2" fill="#00C0A5" transform="translate(9.738835, 37.004978) rotate(6.000000) translate(-9.738835, -37.004978) "></path>
                            </g>
                            <g id="Group-21" transform="translate(25.484514, 24.335493)">
                                <g id="Group-3" transform="translate(46.904832, 46.137872) rotate(-12.000000) translate(-46.904832, -46.137872) translate(7.404832, 8.137872)">
                                    <path d="M39.5075493,75.8388611 C60.3078709,75.8388611 78.719652,65.039299 78.719652,40.4653264 C78.719652,15.8913538 59.7704801,0.276764928 38.9701585,0.276764928 C18.169837,0.276764928 0.0449916619,16.1135921 0.0449916619,40.6875647 C0.0449916619,65.2615373 18.7072278,75.8388611 39.5075493,75.8388611 Z" id="Oval" fill="#D1D5E3"></path>
                                    <path d="M39.689298,74.1008032 C60.4896196,74.1008032 78.9014007,63.1916106 78.9014007,38.368178 C78.9014007,13.5447455 58.4234305,2.05322313 37.6231089,2.05322313 C16.8227873,2.05322313 0.226740347,13.7692398 0.226740347,38.5926723 C0.226740347,63.4161049 18.8889764,74.1008032 39.689298,74.1008032 Z" id="Oval" fill="#161440"></path>
                                    <path d="M75.5403835,42.0670908 C75.4649191,38.6586531 72.8780853,41.2712895 70.6146562,43.6716654 C67.3619072,47.1212192 63.7601443,52.1712858 51.2208819,58.0958888 C36.6938714,64.9596714 23.3766913,60.0213148 17.2986792,59.7994239 C14.9655125,59.7142466 13.1202465,61.0504478 14.0909652,63.5173982 C15.081742,66.0353236 20.7627711,67.9852572 28.1884317,69.38631 C28.1884317,69.38631 43.9760289,72.7500123 56.7104139,67.6899851 C68.3725778,63.0560066 75.7331645,50.7742806 75.5403835,42.0670908 Z" id="Oval" fill="#323166"></path>
                                    <ellipse id="Oval" fill="#323166" cx="12.823435" cy="25.7671031" rx="2.62248868" ry="2.63588708"></ellipse>
                                    <ellipse id="Oval" fill="#323166" cx="22.7026943" cy="18.8412704" rx="6.11914025" ry="6.15040318"></ellipse>
                                </g>
                                <path d="M90.4434003,17.8888069 C105.086121,16.3497443 110.502373,23.4962117 106.692157,39.3282093 C100.976832,63.0762056 92.6282786,64.5393105 92.6282786,64.5393105" id="Path-9" stroke="#1872A4" stroke-width="5" stroke-linecap="round"></path>
                            </g>
                            <g id="Group-7" transform="translate(104.790055, 31.360229) rotate(-16.000000) translate(-104.790055, -31.360229) translate(91.790055, 2.860229)">
                                <path d="M20.3027892,55.4433839 C23.8940977,55.4479672 20.2935631,48.1855501 20.2843921,40.9711641 C20.2752212,33.756778 23.8583626,27.3366276 20.2670541,27.33204 C16.6757456,27.3274567 11.5954849,34.4756541 11.6046435,41.6900401 C11.6138268,48.9044262 16.7114807,55.4387963 20.3027892,55.4433839 Z" id="Oval-Copy-2" fill="#1896A4" transform="translate(16.750422, 41.387712) scale(-1, 1) rotate(15.000000) translate(-16.750422, -41.387712) "></path>
                                <path d="M19.7091795,50.1195942 C22.172804,49.1451795 20.335684,45.6828009 20.3960356,39.1807318 C20.4563873,32.6786626 23.1360028,27.6681708 19.5441715,27.6627767 C15.9523401,27.6573897 11.9579702,33.7653421 11.9662336,39.3027319 C11.9745226,44.8401216 17.2455549,51.0940088 19.7091795,50.1195942 Z" id="Oval-Copy-2" fill="#00C0A5" transform="translate(16.689658, 38.941734) scale(-1, 1) rotate(18.000000) translate(-16.689658, -38.941734) "></path>
                            </g>
                        </g>
                        <path d="M131.399116,32.6695977 C133.712396,31.8476406 136.446344,32.4753238 139.600958,34.5526473 C144.342425,37.6749184 146.105323,42.5301663 144.889651,49.118391 C144.747368,43.3450414 142.885714,39.0536836 139.304691,36.2443175 C136.323224,33.9053116 133.688032,32.7137384 131.399116,32.6695977 Z" id="Path-39" fill="#FFFFFF" opacity="0.300000012"></path>
                        <path d="M88.2097674,279.683407 C89.5879011,280.659866 91.0828485,283.190667 98.0958375,288.892511 C102.175926,292.209789 108.519926,293.038806 109.383378,297.580573 C111.108972,306.657215 106.0948,323.056517 100.062285,328.981958 C94.029771,334.907399 86.3564294,334.558308 84.3557945,329.159307 C82.6216627,324.479503 85.5469005,318.575946 79.4047645,313.276911 C72.7781864,307.559931 68.4154479,303.970691 63.017217,299.613127 C79.6362591,302.378821 87.7907967,296.137916 88.2097674,279.683407 Z" id="Path-3" fill="#E1E5EF"></path>
                        <path d="M83.280254,274.368207 C90.42103,290.23414 94.5407258,300.976186 95.6393416,306.594345 C97.9047178,318.179145 94.1931609,325.770263 92.8216487,327.30285 C88.8776027,331.710098 83.5812481,328.186764 85.2770139,330.839227 C86.1003033,332.12699 87.6473927,332.837292 89.2670515,333.234738 C91.000475,333.5789 95.5261503,333.839505 99.9262449,329.179079 C104.124155,324.7328 105.802269,320.504022 107.357176,314.991791 C110.775311,302.874315 111.125524,296.366615 105.61288,293.153523 C104.968766,292.778095 103.833166,292.17927 102.206079,291.357047 C100.243145,290.609475 97.7075541,288.775643 94.599305,285.855552 C91.4910558,282.935461 87.7180388,279.106346 83.280254,274.368207 Z" id="Path-37" fill="url(#linearGradient-7)"></path>
                        <path d="M80.3627682,264.162995 C79.8819592,259.915193 81.031958,256.466162 83.8127647,253.815902 C86.9214255,250.85318 101.747582,248.705049 109.921897,257.704214 C113.833082,262.010068 116.028598,265.334648 116.508445,267.677954 C114.167647,264.791888 111.788408,262.978105 109.370727,262.236607 C103.976285,260.582141 99.2871256,259.422529 95.0365081,259.26891 C87.3565677,258.991354 82.4653211,260.622715 80.3627682,264.162995 Z" id="Path-35" fill="url(#linearGradient-8)"></path>
                        <g id="Group-11" transform="translate(140.207335, 343.667527)">
                            <path d="M38.6248296,8.7986429 C38.3444246,13.1768681 35.9594515,31.5595478 35.9594515,41.7774373 C35.9594515,49.1784745 48.7904296,60.4482863 39.8599448,66.067204 C30.9294599,71.6861216 23.6161056,71.1905733 18.3046501,71.1905733 C12.9931946,71.1905733 7.76893898,66.789223 6.79320865,61.0091642 C5.87628061,55.57744 9.82565079,50.9713257 9.11283873,46.6871957 C8.6285506,43.7765361 2.09079441,14.9037331 0.534619733,7.52208481 C-0.521786143,2.51106856 9.04987115,2.40472087 18.5077598,2.40472087 C26.6429896,2.40472087 38.8798944,4.81607706 38.6248296,8.7986429 Z" id="Path-3" fill="#E1E5EF"></path>
                            <path d="M0.0203770047,5.13027053 C6.77451687,1.47651619 13.603948,-0.117846672 20.5086705,0.347181952 C27.413393,0.812210576 33.5367892,2.52751566 38.8788591,5.49309722 L38.5684674,9.35606048 C32.277445,6.05798022 26.2575127,4.1770866 20.5086705,3.71337963 C14.7598283,3.24967266 8.188713,4.78777143 0.795324665,8.32767594 L0.0203770047,5.13027053 Z" id="Path-27" fill="#00C0A5"></path>
                        </g>
                        <path d="M172.535152,346.283357 C172.885841,347.640541 172.855976,348.925692 172.445555,350.13881 C173.789728,350.709635 174.806877,351.156559 175.497,351.479581 C176.187123,351.802603 177.291466,352.312489 178.81003,353.009237 L179.079446,349.097637 C177.710572,348.436369 176.655249,347.924145 175.913478,347.560964 C174.800822,347.016194 172.947969,346.499544 172.535152,346.283357 Z" id="Path-32" fill="#1896A4"></path>
                        <g id="Group-15" transform="translate(277.043491, 128.664925) rotate(38.000000) translate(-277.043491, -128.664925) translate(252.043491, 106.664925)">
                            <g id="Group-16" transform="translate(0.404428, 0.215284)">
                                <path d="M19.1985549,36.1329352 C24.1230247,32.2703386 43.5734721,13.268909 44.8602903,8.78124043 C45.3888502,6.93793309 43.019244,4.40601746 39.7648586,6.89619806 C37.7978281,8.4013244 35.3837946,9.79964372 33.2469015,11.1056022 C29.6354725,13.3127206 25.0104386,17.0010781 24.133108,14.8140665 C23.2557775,12.627055 32.043755,9.61198894 31.3665451,7.94324091 C30.6893352,6.27449288 29.9623955,5.67363501 25.4518526,7.95733277 C20.9413097,10.2410305 10.4611229,12.7262574 3.82462041,22.8341118 C3.22025868,23.7545967 4.48249847,29.3839141 9.24113663,32.6071467 C12.1649714,34.5875871 14.2740851,39.9955318 19.1985549,36.1329352 Z" id="Path-2" fill="#F9F9F9" transform="translate(24.309163, 21.673455) rotate(-16.000000) translate(-24.309163, -21.673455) "></path>
                                <path d="M33.5757361,23.3288139 C40.3189316,16.9227102 43.930971,11.1480788 44.4933365,8.5694427 C44.9168299,6.62758172 44.2482445,5.64385029 43.837062,5.36215849 C43.4307347,5.08379286 43.4307347,5.08379286 42.2949874,5.98963911 C41.15924,6.89548536 36.0433037,16.5153448 27.584397,22.0200605 C18.8201226,27.7234971 11.6553358,32.033456 11.6553358,32.033456 C13.5305261,33.4049641 16.5942762,35.2565642 18.9434846,34.9977362 C19.2232219,34.8148984 30.2228654,26.5140748 33.5757361,23.3288139 Z" id="Path-2" fill="url(#linearGradient-9)" transform="translate(28.142021, 20.110594) rotate(-16.000000) translate(-28.142021, -20.110594) "></path>
                                <path d="M4.99244833,28.0467256 C7.3730275,30.3052229 9.74993519,31.9792959 12.1231714,33.0689444 C18.5896452,36.0379636 23.5613608,36.7296563 23.5613608,36.7296563 C23.5613608,36.7296563 23.0511932,37.5294301 22.2625427,39.0578042 C22.0766793,39.4180001 21.8340501,39.9578707 21.534655,40.677416 C16.1025683,38.8953144 12.4024586,37.4560724 10.4343259,36.3596898 C8.46619329,35.2633073 5.99669382,33.6259178 3.02582753,31.4475214 L4.99244833,28.0467256 Z" id="Path-17" fill="#00C0A5"></path>
                            </g>
                        </g>
                        <path d="M259.207777,135.638597 C260.483828,135.383664 261.669847,134.869442 262.765836,134.095932 C262.765836,134.095932 264.192834,135.999945 267.046831,139.807972 C266.086255,140.179854 265.380333,140.469778 264.929063,140.677746 C264.477793,140.885713 263.852161,141.209434 263.052167,141.648909 C262.206367,140.393444 261.562929,139.420922 261.121853,138.731344 C260.680777,138.041767 260.042752,137.010851 259.207777,135.638597 Z" id="Path-33" fill="#1896A4"></path>
                        <g id="Group-4" transform="translate(34.137380, 208.925433) scale(-1, 1) rotate(-55.000000) translate(-34.137380, -208.925433) translate(17.637380, 191.925433)" fill="#FFFFFF">
                            <path d="M24.5815161,8.03367064 C23.1494842,6.94076732 21.9593723,6.41378306 20.3889227,6.43615072 C18.4937815,6.46314292 14.6387254,2.45526193 12.374714,2.53617127 C7.10439691,2.72451745 6.14980481,4.48780451 4.49875942,7.5733989 C0.790442292,14.5037732 4.82634101,26.2700009 5.84910118,28.0596554 C8.29913365,32.3467911 17.8415962,30.3392247 26.9718956,29.7141322 C32.4057825,23.9932995 29.9622255,12.14014 24.5815161,8.03367064 Z" id="Path-2" transform="translate(16.494972, 16.633139) rotate(-12.000000) translate(-16.494972, -16.633139) "></path>
                        </g>
                        <g id="Group-4" transform="translate(41.426630, 206.863091) scale(-1, 1) rotate(-55.000000) translate(-41.426630, -206.863091) translate(27.426630, 197.363091)" fill="url(#linearGradient-11)">
                            <path d="M23.062417,9.32622248 C21.6303851,8.23331916 20.4144269,6.42707945 18.8439773,6.44944711 C16.9488362,6.4764393 14.7030812,2.80690519 10.8148428,2.55584553 C5.57346723,2.21741515 4.60485944,4.50110089 2.95381405,7.58669529 C2.82944461,7.81912599 0.85313699,11.99919 2.40414639,12.811993 C7.60738584,15.538739 22.7659619,16.7073078 26.1591312,14.8146489 C27.5958812,14.0132513 24.1925735,10.1887394 23.062417,9.32622248 Z" id="Path-2" transform="translate(14.160013, 9.132625) rotate(-12.000000) translate(-14.160013, -9.132625) "></path>
                        </g>
                        <g id="Group-25" transform="translate(17.093858, 194.238384)">
                            <path d="M0.463792129,6.32508414 C2.64660361,3.22684292 6.31212985,1.36190891 11.4603708,0.730282132 C16.6086118,0.0986553487 21.2641107,0.865515638 25.4268675,3.030863 L25.0453091,6.56390764 C21.6581353,3.76997834 17.1298226,2.79919955 11.4603708,3.65157128 C5.79091908,4.50394301 2.3909436,6.59669246 1.26044441,9.92981962 L0.463792129,6.32508414 Z" id="Path-36" fill="#00C0A5"></path>
                            <path d="M14.6354737,0.531994859 C14.9670471,1.50052887 14.9670471,2.44744936 14.6354737,3.37275632 C14.6354737,3.37275632 18.5209612,3.46183839 20.4421836,4.17227759 C21.7229985,4.64590372 23.2784012,5.44311374 25.1083917,6.56390764 C25.2323651,5.8402688 25.3121528,5.28153584 25.347755,4.88770876 C25.3833571,4.49388169 25.409728,3.87829961 25.4268675,3.04096251 C24.2143779,2.0885543 22.5528166,1.3898798 20.4421836,0.944939023 C18.3315505,0.499998248 16.3959806,0.362350193 14.6354737,0.531994859 Z" id="Path-23" fill="#1896A4"></path>
                        </g>
                        <path d="M109.000045,137.109109 C96.9645967,137.109109 87.207797,146.915757 87.207797,159.012695 C87.207797,171.109632 96.9645967,180.915512 109.000045,180.915512 C121.035493,180.915512 130.791529,171.109632 130.791529,159.012695 C130.791529,146.915757 121.035493,137.109109 109.000045,137.109109 M108.300994,173.707499 C101.170656,173.707499 95.0573537,167.673433 95.0573537,160.230581 C95.0573537,158.483089 95.3759165,156.465565 95.9553905,154.933326 L101.646652,157.46314 C101.628174,157.545693 101.604522,157.653705 101.578653,157.777148 C101.409368,158.356572 101.31005,158.955791 101.283003,159.560902 C101.271027,159.680826 101.266829,159.801458 101.270438,159.921974 C101.270438,159.949748 101.274133,159.976751 101.275612,160.004526 C101.301604,162.216024 102.287279,164.295823 103.955557,165.659274 C105.623834,167.022725 107.794584,167.522612 109.857591,167.018413 L113.092001,172.750805 C111.569371,173.384861 109.94475,173.709572 108.305429,173.707499 M121.438393,166.006401 L106.266774,159.27885 L115.996332,159.234157 C115.648487,155.540057 112.020964,152.541547 108.599974,152.541547 C107.823967,152.540567 107.053245,152.675141 106.319572,152.939724 L102.952156,146.952455 C104.723733,146.103191 106.649843,145.664932 108.598421,145.667714 C116.088728,145.667714 122.489691,152.140121 122.489691,159.979315 C122.489691,162.092086 122.228808,164.204857 121.43684,166.006401" id="Shape" fill="#1896A4"></path>
                        <path d="" id="Path-7" stroke="#979797"></path>
                        <path d="" id="Path-10" stroke="#979797"></path>
                        <g id="Group" transform="translate(37.971765, 126.146453)">
                            <path d="M0.909844477,8.72593158 C-0.0152629377,11.8981511 0.468727556,14.7484113 2.36181596,17.2767122 C2.36181596,17.2767122 2.5146628,17.4644892 2.76023597,17.2767122 C3.33278349,16.8389152 5.7064464,14.7297038 9.91853577,11.7906338 C10.0291867,11.7134248 10.0641456,11.5893108 10.0234123,11.4182916 C6.96845516,8.19931143 6.59338334,4.42377905 8.89819683,0.0916945006 C8.4753697,0.381908001 7.18752626,1.71630808 5.03466651,4.09489474 C4.27822792,4.93064575 2.90328725,6.4743247 0.909844477,8.72593158 Z" id="Path-11" fill="#323166"></path>
                            <g id="Group-12" transform="translate(1.899318, 3.818042)" stroke="#FFFFFF" stroke-linecap="round" stroke-width="0.6">
                                <path d="M1.07656782,2.73790019 C0.549138475,3.35386213 0.285423801,3.86854309 0.285423801,4.28194306 C0.285423801,4.69534304 0.324024759,5.09329548 0.401226676,5.47580037" id="Path-18-Copy-2"></path>
                                <path d="M2.43855944,1.36895009 C1.9111301,1.98491203 1.64741542,2.49959299 1.64741542,2.91299297 C1.64741542,3.32639295 1.68601638,3.72434538 1.7632183,4.10685028" id="Path-18-Copy-3"></path>
                                <path d="M3.80055107,0 C3.27312172,0.615961942 3.00940705,1.1306429 3.00940705,1.54404288 C3.00940705,1.95744285 3.048008,2.35539529 3.12520992,2.73790019" id="Path-18-Copy-4"></path>
                            </g>
                            <g id="Group-13" transform="translate(1.899318, 7.636085)" stroke="#FFFFFF" stroke-linecap="round" stroke-width="0.5">
                                <path d="M3.8895554,0.361906346 L1.07656782,3.11454223 C0.730209003,3.40754735 0.594497229,3.5506313 0.6694325,3.54379407 C2.12878264,3.41064028 3.94619359,2.89116921 4.61469971,2.72711257" id="Path-18"></path>
                                <path d="M4.30645277,1.64274011 L1.75043387,4.47971399 C1.40407505,4.77271911 1.26836328,4.91580306 1.34329855,4.90896583 C2.80264869,4.77581204 4.50794452,4.552462 5.31165724,4.47971399" id="Path-18"></path>
                            </g>
                        </g>
                        <path d="M78.0235952,131.819753 C82.144676,131.819753 85.4854721,128.461889 85.4854721,124.319753 C85.4854721,120.177618 82.144676,116.819753 78.0235952,116.819753 C73.9025143,116.819753 70.5617182,120.177618 70.5617182,124.319753 C70.5617182,128.461889 73.9025143,131.819753 78.0235952,131.819753 Z" id="Oval" fill="#323166"></path>
                        <ellipse id="Oval-Copy-4" fill="#323166" cx="135.961676" cy="116.708123" rx="7.46187697" ry="7.5"></ellipse>
                        <g id="Group-5" transform="translate(43.190976, 98.114567)">
                            <path d="M33.9083328,24.1492658 C20.3167924,6.9229865 10.9985857,-1.00957203 5.95371272,0.351590222 C-1.61359674,2.39333361 9.59359942,18.0653944 11.3724674,19.7051861" id="Path-12" stroke="#B2C1DD" stroke-width="15" stroke-linecap="round"></path>
                            <path d="M9.27402767,6.884445 C0.776991745,1.4877015 -1.57063345,7.3261973 1.0044805,11.288922 C5.9026468,18.8264854 9.27534578,24.1001838 9.27534578,24.1001838 C10.0501557,23.4129107 13.071524,21.0227429 18.3394507,16.9296804 C18.1107748,17.2842155 17.4742603,16.6706461 16.429907,15.0889724 C14.8633771,12.7164619 9.67451439,7.68069635 9.27402767,6.884445 Z" id="Path-14" fill="url(#linearGradient-12)"></path>
                        </g>
                        <g id="Group-5-Copy" transform="translate(153.605986, 93.385555) scale(-1, 1) rotate(29.000000) translate(-153.605986, -93.385555) translate(127.605986, 77.385555)">
                            <path d="M51.1378468,26.0799895 C28.5139969,6.57321982 13.8038716,-1.81027376 7.00747111,0.929508704 C-3.1871297,5.0391824 11.1048833,21.7806518 12.8837513,23.4204434" id="Path-12" stroke="#B2C1DD" stroke-width="15" stroke-linecap="round"></path>
                            <path d="M10.4697568,7.30741157 C1.93296694,6.31404251 -1.19238424,8.45635706 1.09370327,13.7343552 C4.52283452,21.6513524 10.9033169,27.0695473 10.9033169,27.0695473 C11.4047153,26.6247962 13.2094253,24.3348353 14.4354276,22.933554 C14.8811188,22.4241433 16.1681538,21.1087942 18.2965328,18.9875069 C17.313342,18.0109775 16.6089732,17.2674696 16.1834265,16.7569834 C14.9527268,15.2806349 13.3482839,13.0049121 13.111488,12.57581 C11.7487161,10.1063069 10.8681391,8.35017412 10.4697568,7.30741157 Z" id="Path-14" fill="url(#linearGradient-13)"></path>
                            <path d="M18.5197653,18.2868205 C15.810283,20.875353 13.9878967,22.6903813 13.0526065,23.7319054 C10.2194997,26.8868075 8.98901431,28.9232952 8.76053995,29.3531239 C8.04325684,30.7025481 9.90030212,31.3291639 14.3316758,31.2329711 C16.4701528,30.4385286 18.0056099,29.584828 18.9380472,28.6718693 C19.8704845,27.7589106 21.0466057,25.9576778 22.4664107,23.2681708 L18.5197653,18.2868205 Z" id="Path-15" fill="#E1E5EF"></path>
                        </g>
                        <path d="M49.7417649,123.281532 C52.3580345,120.354531 54.2013242,118.405475 55.271634,117.434362 C58.3141744,114.673807 60.0931274,113.634495 60.456283,113.568748 C60.456283,113.568748 61.4040837,114.674151 63.2996851,116.884956 C59.7787312,123.427318 57.8493885,126.792396 57.5116568,126.980189 C57.1739252,127.167983 55.6514515,126.739142 52.9442359,125.693669 L49.7417649,123.281532 Z" id="Path-13" fill="#E1E5EF"></path>
                        <ellipse id="Oval-Copy-6" fill="#D1D5E3" cx="95.4183596" cy="124.176613" rx="1.36199162" ry="1.36895009"></ellipse>
                        <ellipse id="Oval-Copy-7" fill="#D1D5E3" cx="106.65181" cy="126.085634" rx="1.36199162" ry="1.36895009"></ellipse>
                        <ellipse id="Oval-Copy-8" fill="#D1D5E3" cx="118.326294" cy="122.267592" rx="1.36199162" ry="1.36895009"></ellipse>
                        <path d="M178.634065,193.869777 C171.959644,212.48422 170.043544,239.22238 169.781895,248.744349 C169.607462,255.092329 161.217645,249.984956 144.612443,233.42223 L158.214149,200.235797 C171.827427,195.991784 178.634065,193.869777 178.634065,193.869777 Z" id="Path-20" fill="#FFFFFF" transform="translate(161.623254, 222.626212) rotate(-11.000000) translate(-161.623254, -222.626212) "></path>
                        <ellipse id="Oval" fill="#B3BED7" transform="translate(150.802532, 296.500057) rotate(-10.000000) translate(-150.802532, -296.500057) " cx="150.802532" cy="296.500057" rx="11.0024042" ry="15.0035022"></ellipse>
                        <path d="M41.8344886,282.873399 C46.0882221,282.866387 46.1526601,276.344998 44.3149321,269.893477 C42.4772041,263.441956 39.6124347,261.148104 34.5491563,262.111287 C31.6856631,262.656006 31.3782347,263.500659 31.186266,265.651444 C30.9739769,268.029897 31.5320288,271.350762 33.2755652,274.916161 C36.5957454,281.705676 37.580755,282.880348 41.8344886,282.873399 Z" id="Oval-Copy" fill="#B3BED7" transform="translate(38.302437, 272.386942) rotate(-20.000000) translate(-38.302437, -272.386942) "></path>
                        <path d="M155.652938,108.832595 C160.3816,124.978305 162.105042,144.430507 160.823266,167.189202 C158.900601,201.327244 150.743359,199.807465 151.767548,214.340962 C154.246664,219.92881 162.467867,233.205655 166.871432,254.568754 C171.274996,275.931853 174.119125,274.561641 172.500692,346.314478 C172.500692,346.314478 172.199276,346.079524 175.49347,347.416996 C176.198872,347.703396 177.40223,348.284605 179.103545,349.160624 C180.6481,325.223197 181.220166,306.530836 180.819743,293.08354 C180.219108,272.912597 177.155368,259.690253 174.119125,242.470428 C173.19533,237.231195 171.643393,219.957161 171.61244,212.20797 C171.583726,205.019347 171.702865,199.149415 172.500692,193.109005 C173.177181,187.987252 174.30051,182.732325 175.181208,176.448454 C175.851189,171.668072 176.32117,166.296043 176.69502,159.911841 C177.059579,155.210925 177.22856,148.621537 176.194042,142.808435 C175.88157,141.052611 174.749187,134.505801 170.78044,126.784273 C168.134608,121.636587 163.092108,115.652695 155.652938,108.832595 Z" id="Path-30" fill="url(#linearGradient-14)"></path>
                        <path d="M63.3666915,204.580292 C78.7251638,209.33002 92.9260801,211.793635 105.96944,211.971136 C119.012801,212.148637 140.923035,208.535612 171.700144,201.13206 C171.653599,204.28727 171.630327,205.881951 171.630327,205.916101 C171.630327,206.526854 171.630327,207.875205 171.630327,209.961154 C141.234619,217.051636 119.347657,220.397227 105.96944,219.997927 C92.5912238,219.598627 77.7782191,216.968995 61.5304265,212.10903 C61.9456923,210.745147 62.2708279,209.54696 62.5058333,208.51447 C62.7408387,207.48198 63.0277914,206.170588 63.3666915,204.580292 Z" id="Path-22" fill="#00C0A5"></path>
                        <path d="M152.44224,205.499734 C152.824802,206.386284 152.906106,207.90829 152.686152,210.065753 C152.466198,212.223215 152.133915,213.634164 151.689302,214.298601 L171.776965,210.065753 L171.776965,201.07481 L152.44224,205.499734 Z" id="Path-31" fill="#1896A4"></path>
                        <path d="M172.44683,350.115157 C171.76334,370.562303 171.263004,381.996682 170.945822,384.418294 C170.47005,388.050713 178.841479,396.227751 177.662408,402.23873 C176.266504,409.35513 172.714927,411.378288 162.713959,412.788049 C160.421082,413.111258 156.569504,412.834903 151.159227,411.958982 C152.891383,414.06492 156.112729,415.117888 160.823266,415.117888 C163.52844,415.117888 166.454011,414.848692 168.612674,414.399842 C172.097026,413.675342 183.32422,411.8673 183.32422,404.662708 C183.32422,397.458115 176.716579,390.496372 176.266504,386.836994 C176.033953,384.946206 176.760804,377.846383 177.882805,365.313037 C178.099911,362.887854 178.407813,358.781327 178.806512,352.993458 C177.367243,352.320741 176.287314,351.821318 175.566723,351.495189 C174.846133,351.169061 173.806169,350.70905 172.44683,350.115157 Z" id="Path-19" fill="url(#linearGradient-15)"></path>
                        <path d="M61.3808958,298.253962 C68.5448786,299.772783 74.5195,298.8634 79.3047602,295.525812 C84.0900204,292.188224 86.6525736,286.483265 86.9924197,278.410933 L88.2569792,279.734679 C88.2569792,288.101995 85.7955084,294.019899 80.8725668,297.488392 C75.9496252,300.956885 70.0397145,301.704173 63.1428346,299.730256 L61.3808958,298.253962 Z" id="Path-5" fill="#00C0A5"></path>
                        <path d="M87.9548469,284.576999 C87.8525549,283.938205 87.71115,283.439073 87.5306323,283.079602 C87.3501146,282.720131 87.06278,282.390261 86.6686285,282.089992 C86.7584147,281.294496 86.8222585,280.687364 86.8601599,280.268594 C86.8980613,279.849824 86.946379,279.217693 87.0051131,278.372201 L88.2522529,279.712134 C88.2665133,280.314721 88.2508151,281.062064 88.2051583,281.954162 C88.1595015,282.846259 88.0760644,283.720538 87.9548469,284.576999 Z" id="Path-24" fill="#1896A4"></path>
                        <path d="M56.139741,50.9284828 C53.7640558,52.8565142 52.0245146,55.6226971 50.9211172,59.2270315 C49.8177199,62.831366 49.8177199,66.4694003 50.9211172,70.1411344 C48.581905,66.2545382 47.997102,62.5485134 49.1667081,59.0230599 C50.3363142,55.4976063 52.6606585,52.799414 56.139741,50.9284828 Z" id="Path-26" fill="#FFFFFF" opacity="0.300000012"></path>
                    </g>
                </g>
            </g>
            <g id="Group-38" transform="translate(1116.000000, 561.500000) rotate(10.000000) translate(-1116.000000, -561.500000) translate(1018.000000, 493.000000)">
                <g id="Group-18" transform="translate(0.000000, 0.000000)">
                    <g id="Group-8" transform="translate(93.000000, 83.000000) scale(-1, 1) translate(-93.000000, -83.000000) translate(23.000000, 29.000000)">
                        <path d="M121.522036,35.0018428 C121.657334,60.0154913 120.896698,75.6960778 119.240127,82.0436025 C119.240127,82.6819167 116.37865,79.8439146 115.642776,78.7410189 C114.906902,77.6381232 117.083529,63.4051994 110.681763,53.676174 C106.41392,47.1901571 110.027344,40.96538 121.522036,35.0018428 Z" id="Path-53" fill="#18286C" transform="translate(115.242895, 58.568934) rotate(-80.000000) translate(-115.242895, -58.568934) "></path>
                        <path d="M135.177959,37.263354 L138,41.0508779 C136.665594,41.6439878 134.691988,41.2102153 132.079184,39.7495605 C129.466379,38.2889057 126.773318,36.9823875 124,35.830006 L131,33.4868654 L135.177959,37.263354 Z" id="Path-38" fill="#B7464C"></path>
                        <path d="M56.1167041,62.350178 C49.7097698,73.2366908 44.9551529,80.4493163 41.8528534,83.9880545 C36.9125006,89.6234276 31.6505818,94.9316262 30.8274982,101.820972 C30.8274982,101.820972 28.0003312,102.849977 25.6742754,103.696592 C24.1235715,104.261002 28.0285142,95.0257876 37.3891033,75.9909495 L45.7333754,65.7673806 L56.1167041,62.350178 Z" id="Path-52" fill="#18286C" transform="translate(40.730201, 83.035575) rotate(20.000000) translate(-40.730201, -83.035575) "></path>
                        <path d="M117,3 C110.984473,6.59829298 107.540864,9.61504126 106.669173,12.0502448 C105.797483,14.4854484 108.547857,15.0746106 114.920296,13.8177313 C114.678938,11.5693868 114.678938,9.81749228 114.920296,8.56204781 C115.161655,7.30660333 115.854889,5.4525874 117,3 Z" id="Path-54" fill="#22306B"></path>
                        <path d="M0.751175671,95.0759016 C3.84080613,95.4708696 5.71655694,95.6683536 6.37842808,95.6683536 C6.91014114,95.6683536 27.3982625,90.7465044 41.3656858,82.5016394 C55.333109,74.2567743 68.6457186,72.2213708 78.1214884,70.5299572 C85.8148155,69.1567074 97.7428141,67.4846777 113.335644,68.2211013 C118.483418,68.4642222 126.191648,69.2338408 136.460333,70.5299572 C138.153444,70.5388827 139.333333,69.9822816 140,68.860154 C125.553404,61.6208459 108.675023,61.6208459 110.504808,50.5477712 C111.908019,42.0561446 117.639484,37.4924626 119.659679,37.4924626 C123.299968,37.4924626 129.261407,40.1899829 133.438686,35.4339829 C137.615964,30.6779829 137.8,28.720319 137.8,25.1108161 C137.8,24.8619199 136.595977,24.7277226 134.794106,24.3239182 C131.867291,23.6680103 127.540208,22.5393355 125.553404,20.8301777 C122.34344,18.0687905 119.504968,11.0046975 110.504808,11.0046975 C110.504808,11.0046975 109.87164,4.01876596 112.296589,0.756870229 C112.296589,0.756870229 103.657421,1.82488911 98.7364699,12.8320692 C93.815519,23.8392493 90.7626589,37.6010824 69,42.3570605 C47.2373411,47.1130386 29.554076,45.2769119 24.1558135,26.5880132 C24.1558135,26.5880132 22.055204,41.7017956 38.1204928,51.6169049 C38.1204928,51.6169049 33.6340544,55.1118546 27.3982625,72.8564885 C25.0135166,79.6425462 16.1311543,87.0490172 0.751175671,95.0759016 Z" id="Path-51" fill="#5577FF"></path>
                        <path d="M132.079184,23.1984733 C132.43836,27.7463658 133.68309,30.7697802 135.813374,32.2687164 C135.906781,32.3297446 136.874809,30.9080272 137.526816,29.1803993 C138.208204,27.374921 138.432928,25.1681154 138.169474,24.591161 C137.653927,23.46213 136.935858,24.2325756 135.424301,23.9734274 C134.416596,23.8006619 133.301557,23.5423439 132.079184,23.1984733 Z" id="Path-55" fill="#22306B"></path>
                        <ellipse id="Oval" fill="#1C295C" cx="127.311837" cy="29.8832061" rx="1" ry="1"></ellipse>
                        <ellipse id="Oval-Copy-3" fill="#1C295C" cx="124.451429" cy="31.7931298" rx="1" ry="1"></ellipse>
                        <ellipse id="Oval-Copy-4" fill="#1C295C" cx="127.788571" cy="32.2706107" rx="1" ry="1"></ellipse>
                        <path d="M110.639156,10.7839695 C108.70574,12.0106678 108.199708,14.8802349 109.121061,19.3926708 C110.503091,26.1613246 116.792483,28.3343034 121.793339,25.1435557 C126.794196,21.952808 123.652251,23.1638348 126.835102,21.7470165 C125.760994,20.8089478 124.205979,19.1597218 121.793339,16.4735101 C121.278562,15.9003617 120.375056,14.9635731 119.08282,13.6631445 C117.320028,12.5985723 115.919423,11.8892429 114.881004,11.5351563 C113.842586,11.1810696 112.428636,10.930674 110.639156,10.7839695 Z" id="Path-56" fill="#2841A6"></path>
                        <ellipse id="Oval" fill="#0C1740" cx="117.678367" cy="19.0498092" rx="2.62204082" ry="2.62614504"></ellipse>
                    </g>
                    <g id="Group-9" transform="translate(39.500000, 39.500000) scale(-1, 1) translate(-39.500000, -39.500000) translate(0.000000, 0.000000)">
                        <ellipse id="Oval" fill="#22306B" opacity="0.451148624" cx="39.4095644" cy="39.1768072" rx="38.8538776" ry="38.9146947"></ellipse>
                        <path d="M78.6875044,24.6904638 C76.3906946,19.8878902 74.4159045,16.4929832 72.763134,14.5057426 C61.767968,1.2854919 34.5848339,-8.02302866 14.9938617,11.3587029 C5.47041724,20.7804326 -3.47836569,37.383118 10.5318107,61.3506225 C12.1421905,64.1400437 9.4323968,51.0214156 10.2934433,39.1768072 C10.7151144,33.376275 13.2517419,27.5589049 15.1299102,24.6904638 C17.7539208,20.6829315 24.537264,11.6867513 33.5575495,9.12631637 C44.1774898,6.1118147 57.2214421,9.95095768 60.3273752,11.1076709 C64.1567267,12.5337999 70.2767698,17.0613975 78.6875044,24.6904638 Z" id="Path" fill="#02BAD3" opacity="0.449999988" transform="translate(40.981531, 31.004919) scale(-1, 1) translate(-40.981531, -31.004919) "></path>
                    </g>
                </g>
                <g id="Group-23" transform="translate(69.000000, 47.105927)">
                    <path d="M4.72444171,19.3940733 C6.59684999,20.599277 12.2301735,21.2018789 21.6244122,21.2018789 C35.7157702,21.2018789 39.8378234,14.8940733 50.1061524,14.8940733 C56.9517051,14.8940733 72.4707447,19.5912405 96.6632713,28.9855751 C102.319338,18.7876879 110.719861,14.8896324 121.864842,17.2914088 C133.009823,19.6931851 121.809892,17.1884753 88.265048,9.77727936 L46.9494387,6.48208644 L17.6020453,10.7322412 L4.72444171,17.2914088 L4.72444171,19.3940733 Z" id="Path-60" fill="#18286C"></path>
                    <path d="M3,15.9639651 C24.130274,3.09330069 40.220207,-1.70467854 51.2697988,1.57002745 C67.8441865,6.48208644 81.7002186,4.68836942 91.2488243,1.57002745 C100.79743,-1.54831452 99.1417838,-0.0770811252 104.974267,6.48208644 C110.806751,13.041254 134.38589,16.4969229 117.303769,17.8940733 C100.221648,19.2912236 54.9467635,5.48033279 41.3344234,11.687203 C32.2595301,15.8251165 20.0562028,17.8940733 4.72444171,17.8940733 L3,15.9639651 Z" id="Path-59" fill="#1896A4"></path>
                    <circle id="Oval" fill="#18286C" cx="3" cy="17.8940733" r="3"></circle>
                    <path d="M5.45197577,15.9102674 C12.8529152,12.3445149 16.9717435,10.4937077 17.8084608,10.357846 C18.645178,10.2219843 18.910033,10.711263 18.6030257,11.8256821 L5.45197577,15.9102674 Z" id="Path-61" fill="#0C4180" opacity="0.5"></path>
                    <path d="M5.87107563,17.2635476 C12.1083099,14.8167461 15.6452856,13.5254144 16.4820029,13.3895527 C17.3187201,13.2536909 16.98457,13.7509181 15.4795525,14.8812341 L5.87107563,17.2635476 Z" id="Path-61-Copy" fill="#0C4180" opacity="0.5" transform="translate(11.400763, 15.315617) rotate(10.000000) translate(-11.400763, -15.315617) "></path>
                </g>
            </g>
            <polygon id="Rectangle" fill="#2266B6" transform="translate(732.000000, 246.000000) rotate(45.000000) translate(-732.000000, -246.000000) " points="723 237 731.599039 239.737709 741 237 737.59695 245.735621 741 255 731.735773 251.596798 723 255 725.737861 245.598887"></polygon>
            <polygon id="Rectangle" fill="#2266B6" transform="translate(1033.000000, 390.000000) rotate(45.000000) translate(-1033.000000, -390.000000) " points="1027 384 1032.73269 385.82514 1039 384 1036.7313 389.823747 1039 396 1032.82385 393.731199 1027 396 1028.82524 389.732591"></polygon>
            <polygon id="Rectangle" fill="#2266B6" transform="translate(993.000000, 184.000000) rotate(45.000000) translate(-993.000000, -184.000000) " points="982 173 992.509936 176.346089 1004 173 999.840717 183.67687 1004 195 992.677056 190.840531 982 195 985.346275 183.50975"></polygon>
            <g id="Group-27" transform="translate(1003.000000, 222.000000)">
                <g id="Group-Copy">
                    <path d="M45.6666667,60 L27.3333333,30.6666667 L45.6666667,37.8347214 L45.6666667,37.2681495 L64,30 L45.6666667,60 Z" id="Combined-Shape" fill="#18BBD0"></path>
                    <ellipse id="Oval" stroke="#27D6ED" stroke-width="0.5" cx="45.6666667" cy="34" rx="45.6666667" ry="9.33333333"></ellipse>
                    <ellipse id="Oval" stroke="#27D6ED" stroke-width="0.5" cx="46" cy="33.3333333" rx="34" ry="6"></ellipse>
                    <path d="M46,-1.77635684e-14 L64,30.0632911 L45.6666667,37.8347214 L27.3333333,30.6666667 L46,-2.48689958e-14 Z" id="Combined-Shape" fill="#27D6ED"></path>
                    <circle id="Oval" fill="#27D6ED" cx="8.33333333" cy="39.3333333" r="2.33333333"></circle>
                    <circle id="Oval" fill="#27D6ED" cx="72" cy="37.3333333" r="2"></circle>
                </g>
            </g>
        </g>
    </g>
</svg>