<svg xmlns="http://www.w3.org/2000/svg" fill="none" aria-hidden="true" viewBox="0 0 28 20"><path fill="#fff" d="M0 0h28v20H0V0z"/><path fill="#083D7A" fill-rule="evenodd" d="M0 8h12V0H0v8zm16 12h12v-8H16v8z" clip-rule="evenodd"/><path fill="#DF1E35" fill-rule="evenodd" d="M0 20h12v-8H0v8zM16 8h12V0H16v8z" clip-rule="evenodd"/><mask id="a" width="4" height="5" x="12" y="8" maskUnits="userSpaceOnUse"><path fill="#fff" fill-rule="evenodd" d="M12.586 8.586a2 2 0 102.828 0" clip-rule="evenodd"/></mask><g mask="url(#a)"><path fill="#0F6D1A" d="M12.114 8.114a2.668 2.668 0 000 3.772l.943-.943a1.332 1.332 0 010-1.886l-.943-.943zm0 3.772a2.667 2.667 0 003.772 0l-.943-.943c-.52.52-1.365.52-1.886 0l-.943.943zm3.772 0a2.667 2.667 0 000-3.772l-.943.943c.52.52.52 1.365 0 1.886l.943.943z"/><path fill="#042F60" fill-rule="evenodd" d="M14 10.667a.667.667 0 100-1.333.667.667 0 000 1.333z" clip-rule="evenodd"/></g></svg>