<svg xmlns="http://www.w3.org/2000/svg" fill="none" aria-hidden="true" viewBox="0 0 28 20"><path fill="#fff" d="M0 0h28v20H0V0z"/><path fill="#F22A46" d="M0 0h28v20H0V0z"/><path fill="#FFF04D" fill-rule="evenodd" d="M14 13.333a3.333 3.333 0 100-6.667 3.333 3.333 0 000 6.667z" clip-rule="evenodd"/><path fill="#FFF04D" fill-rule="evenodd" d="M12.368 17.15L14 14.713l1.632 2.435.413-2.902 2.527 1.486-.887-2.794 2.922.243-2.012-2.133L21.333 10l-2.738-1.049 2.012-2.133-2.922.243.887-2.794-2.527 1.486-.413-2.902L14 5.286 12.368 2.85l-.413 2.902-2.527-1.486.887 2.794-2.922-.243L9.405 8.95 6.667 10l2.738 1.049-2.012 2.133 2.922-.243-.887 2.794 2.527-1.486.413 2.902v.001zM18.667 10a4.667 4.667 0 11-9.334 0 4.667 4.667 0 019.334 0z" clip-rule="evenodd"/></svg>