<svg xmlns="http://www.w3.org/2000/svg" fill="none" aria-hidden="true" viewBox="0 0 28 20"><g clip-path="url(#clip0)"><path fill="#fff" d="M0 0h28v20H0V0z"/><path fill="#E81B26" d="M0 0h28v20H0V0z"/><path fill="#FFE94F" fill-rule="evenodd" d="M14 13.333a3.333 3.333 0 100-6.666 3.333 3.333 0 000 6.666zM10.208 7.28c.201-.28.433-.538.69-.767L1.962-3.53-.715-.558l10.923 7.837v.001zm.69 6.206a4.697 4.697 0 01-.69-.765L-.715 20.558l2.677 2.973 8.936-10.044v-.001zm2.187 1.09L12 20h4l-1.085-5.423c-.604.12-1.226.12-1.83 0v-.001zm4.707-1.855c-.201.28-.433.537-.69.765l8.936 10.045 2.677-2.973-10.923-7.837zM9.38 10.66a4.706 4.706 0 010-1.32L0 8v4l9.38-1.34zm3.705-5.237L12 0h4l-1.085 5.423a4.69 4.69 0 00-1.83 0zM18.62 9.34c.062.438.062.882 0 1.32L28 12V8l-9.38 1.34zm-.828-2.06a4.693 4.693 0 00-.69-.767L26.038-3.53l2.677 2.973L17.792 7.28z" clip-rule="evenodd"/></g><defs><clipPath id="clip0"><path fill="#fff" d="M0 0h28v20H0z"/></clipPath></defs></svg>