<svg xmlns="http://www.w3.org/2000/svg" fill="none" aria-hidden="true" viewBox="0 0 28 20"><path fill="#fff" d="M0 0h28v20H0V0z"/><path fill="#079D7B" fill-rule="evenodd" d="M0 20h28V0H0v20z" clip-rule="evenodd"/><path fill="#fff" fill-rule="evenodd" d="M15.885 8.667c0 .292-.021.575-.061.844a8.53 8.53 0 01.312-.09c1.779-.476 3.366-.319 3.545.352.163.606-.88 1.423-2.395 1.927-.268-.794-1.637-1.033-3.286-1.033-1.65 0-3.021.24-3.287 1.036-1.494-.505-2.518-1.314-2.357-1.915.18-.67 1.767-.828 3.545-.351.092.025.184.051.276.079a5.771 5.771 0 01-.062-.85c0-1.84.844-3.333 1.885-3.333s1.885 1.493 1.885 3.334zM10.667 12h1.166a8.705 8.705 0 01-.564-.13c.215.006.48.024.782.045.548.038 1.221.085 1.949.085s1.4-.047 1.949-.085c.291-.02.547-.037.757-.044-.192.05-.387.093-.582.129h3.21a6.18 6.18 0 01-.631 1.333H9.297A6.128 6.128 0 018.667 12h2zM14 16c1.347 0 2.584-.5 3.555-1.333h-7.11A5.436 5.436 0 0014 16z" clip-rule="evenodd"/><path fill="#FCD117" fill-rule="evenodd" d="M14 4a.667.667 0 10.052-1.332A.667.667 0 0014 4zM8.667 7.333A.667.667 0 108.72 6a.667.667 0 00-.052 1.333zM20 6.667a.667.667 0 11-1.333.051A.667.667 0 0120 6.667zm-2.667-1.334a.667.667 0 10.052-1.332.667.667 0 00-.052 1.332zm-6-.666A.667.667 0 1110 4.718a.667.667 0 011.333-.051z" clip-rule="evenodd"/></svg>