<svg xmlns="http://www.w3.org/2000/svg" fill="none" aria-hidden="true" viewBox="0 0 28 20"><g clip-path="url(#clip0)"><path fill="#fff" d="M0 0h28v20H0V0z"/><path fill="#0C4799" fill-rule="evenodd" d="M0 13.333L28 0H0v13.333z" clip-rule="evenodd"/><path fill="#FFD243" fill-rule="evenodd" d="M4.667 6l-1.02 1.13.077-1.52-1.521.077 1.13-1.02-1.13-1.02 1.52.077-.077-1.521 1.02 1.13 1.021-1.13-.078 1.52 1.521-.077L6 4.666l1.13 1.021-1.52-.078.077 1.521L4.667 6z" clip-rule="evenodd"/><path fill="#1BAC55" fill-rule="evenodd" d="M0 20h28V6.667L0 20z" clip-rule="evenodd"/><path fill="#fff" fill-rule="evenodd" d="M3.082 22.667L30.171 5.74l-5.253-8.407L-2.171 14.26l5.253 8.407z" clip-rule="evenodd"/><path fill="#E52347" fill-rule="evenodd" d="M-.63 23.072l32.792-20.49-3.533-5.654-32.791 20.49 3.533 5.654H-.63z" clip-rule="evenodd"/></g><defs><clipPath id="clip0"><path fill="#fff" d="M0 0h28v20H0z"/></clipPath></defs></svg>