<svg xmlns="http://www.w3.org/2000/svg" fill="none" aria-hidden="true" viewBox="0 0 28 20"><g clip-path="url(#clip0)"><path fill="#fff" d="M0 0h28v20H0V0z"/><path fill="#0A17A7" d="M0 0h28v20H0V0z"/><path fill="#FF2E3B" stroke="#fff" stroke-width=".667" d="M0-.333h-.901l.684.586 4.55 3.9v1.009L-.194 8.395l-.14.1v1.44l.51-.319L5.43 6.333h1.13l4.523 3.23a.554.554 0 00.682-.87L7.667 5.18V4.172l4.387-3.134a.666.666 0 00.28-.543V-.6l-.51.318L6.57 3H5.44L.86-.271.772-.333H0z"/><path fill="#fff" fill-rule="evenodd" d="M0 3.333V6h4.667v3.333c0 .369.298.667.666.667h1.334a.667.667 0 00.666-.667V6H12a.667.667 0 00.667-.667V4A.667.667 0 0012 3.333H7.333V0H4.667v3.333H0z" clip-rule="evenodd"/><path fill="#FF2E3B" fill-rule="evenodd" d="M0 4h5.333V0h1.334v4H12v1.333H6.667v4H5.333v-4H0V4z" clip-rule="evenodd"/><path fill="#CA1931" fill-rule="evenodd" d="M20 17.333l-.943.277.276-.943-.276-.943L20 16l.943-.276-.276.943.276.942-.943-.276zm0-12.666l-.943.276.276-.943-.276-.943.943.276.943-.276-.276.943.276.943L20 4.667zm4 4l-.943.276.276-.943-.276-.943.943.276.943-.276-.276.943.276.943L24 8.667zM16 10l-.943.276.276-.943-.276-.942.943.276.943-.276-.276.942.276.943L16 10z" clip-rule="evenodd"/></g><defs><clipPath id="clip0"><path fill="#fff" d="M0 0h28v20H0z"/></clipPath></defs></svg>