<svg xmlns="http://www.w3.org/2000/svg" fill="none" aria-hidden="true" viewBox="0 0 28 20"><path fill="#fff" d="M0 0h28v20H0V0z"/><path fill="#E52448" fill-rule="evenodd" d="M28 9.333H13.333V0H28v9.333z" clip-rule="evenodd"/><path fill="#1367AE" fill-rule="evenodd" d="M13.333 20H0V9.333h13.333V20zM6.667 5.76L5.099 6.824l.528-1.82-1.497-1.16 1.893-.06L6.667 2l.642 1.782 1.894.06-1.497 1.163.528 1.819L6.667 5.76z" clip-rule="evenodd"/><path fill="#E52448" fill-rule="evenodd" d="M20.667 15.76l-1.568 1.064.528-1.82-1.496-1.161 1.893-.06.643-1.783.642 1.782 1.894.06-1.497 1.162.528 1.82-1.567-1.064z" clip-rule="evenodd"/></svg>