<svg xmlns="http://www.w3.org/2000/svg" fill="none" aria-hidden="true" viewBox="0 0 28 20"><path fill="#fff" d="M0 0h28v20H0V0z"/><path fill="#0A632F" fill-rule="evenodd" d="M28 0H8v20h20V0z" clip-rule="evenodd"/><path fill="#fff" fill-rule="evenodd" d="M23.67 10.75a5.576 5.576 0 01-1.604 3.395c-2.245 2.246-5.965 2.167-8.309-.176-2.343-2.343-2.422-6.063-.176-8.31a5.576 5.576 0 013.395-1.603 5.552 5.552 0 00-1.107.86c-2.042 2.041-2.143 5.25-.226 7.167 1.917 1.918 5.126 1.816 7.168-.225.34-.34.627-.713.86-1.107l-.001-.001zm-2.578-2.645l-.318 1.898-.89-1.707-1.903.284 1.349-1.373-.859-1.723 1.723.858 1.374-1.349-.284 1.904 1.707.89-1.899.318z" clip-rule="evenodd"/></svg>