<svg xmlns="http://www.w3.org/2000/svg" fill="none" aria-hidden="true" viewBox="0 0 28 20"><path fill="#fff" d="M0 0h28v20H0V0z"/><path fill="#0E4DC5" fill-rule="evenodd" d="M28 2.667H13.333v2.666H28V2.667zM13.333 8v2.667H28V8H13.333zm0 5.333H0V16h28v-2.667H13.333zM0 20v-1.333h28V20H0z" clip-rule="evenodd"/><path fill="#FED443" fill-rule="evenodd" d="M6.667 9.32l-.89 1.33-.226-1.583-1.378.81.484-1.524-1.594.133L4.16 7.322 2.667 6.75l1.493-.572-1.097-1.163 1.594.132-.484-1.524 1.378.81.226-1.582.89 1.328.89-1.328.225 1.583 1.379-.811-.484 1.524 1.594-.132-1.098 1.163 1.494.572-1.494.572 1.098 1.164-1.594-.133.484 1.525-1.379-.811-.225 1.583-.89-1.33zm0-.024a2.546 2.546 0 100-5.09 2.546 2.546 0 000 5.089zm2-2.63a2 2 0 11-4 0 2 2 0 014 0z" clip-rule="evenodd"/></svg>