<svg xmlns="http://www.w3.org/2000/svg" fill="none" aria-hidden="true" viewBox="0 0 28 20"><path fill="#fff" d="M0 0h28v20H0V0z"/><path fill="#04AAC8" fill-rule="evenodd" d="M0 6.667h28V0H0v6.667z" clip-rule="evenodd"/><path fill="#23C840" fill-rule="evenodd" d="M0 20h28v-6.667H0V20z" clip-rule="evenodd"/><path fill="#fff" fill-rule="evenodd" d="M4.667 5.333a1.99 1.99 0 001.111-.337 1.667 1.667 0 110-3.326 2 2 0 10-1.111 3.663zM8 4.667a.667.667 0 11-1.333.052A.667.667 0 018 4.667zm2-2a.667.667 0 100-1.334.667.667 0 000 1.334zM13.333 2a.665.665 0 01-.928.64.666.666 0 11.928-.64zm-.666 3.333A.667.667 0 1012.719 4a.667.667 0 00-.052 1.333zm-2-.666a.667.667 0 11-1.334 0 .667.667 0 011.334 0z" clip-rule="evenodd"/></svg>