<?xml version="1.0" encoding="utf-8"?>
<!-- Generator: Adobe Illustrator 23.0.1, SVG Export Plug-In . SVG Version: 6.00 Build 0)  -->
<svg version="1.1" id="Layer_1" xmlns="http://www.w3.org/2000/svg" xmlns:xlink="http://www.w3.org/1999/xlink" x="0px" y="0px"
	 viewBox="0 0 6363.7 3296.3" style="enable-background:new 0 0 6363.7 3296.3;" xml:space="preserve">
<style type="text/css">
	.st0{fill:#27D6ED;}
	.st1{fill:#4ADEE5;}
	.st2{fill:#1896A4;}
	.st3{fill:#35B3BA;}
	.st4{fill:#D9FCFC;}
	.st5{fill:#FFFFFF;}
	.st6{fill:#36CECE;}
	.st7{fill:#1CBEC6;}
</style>
<g>
	<path class="st0" d="M1965.2,3083.4c-1166,164.3-2289.2-856.2-1389-2021c357.6-462.8,674.8-680,1067.8-815.1
		c677.7-233.1,1158.4,260.7,1790.3,279c375.6,33.2,699.2-18.2,1064.3-78.9c1501.1-249.6,1932,1176.5,1430.8,1918.3
		c-441.6,653.6-1122.4,354.9-1675,619.1C3388.5,3398.7,2611.1,2991.7,1965.2,3083.4z"/>
</g>
<g>
	<path class="st0" d="M3374.3,458.2c178,70.8,429.2,32.2,487.1-145c62.4-389.5-1052-200.9-800.4-13.5
		C3166.2,378.1,3283.8,423.5,3374.3,458.2z"/>
</g>
<g>
	<g>
		<path class="st1" d="M3885.5,1640.1c0,407.3-330.2,737.4-737.4,737.4c-407.2,0-737.4-330.1-737.4-737.4
			c0-118.4,28-230.3,77.6-329.5c121-241.8,370.9-407.9,659.8-407.9c348.2,0,640,241.4,717.3,565.9
			C3878.6,1523.6,3885.5,1581.1,3885.5,1640.1z"/>
	</g>
	<g>
		<path class="st2" d="M3885.5,1640.1c0,407.3-330.2,737.4-737.4,737.4c-407.2,0-737.4-330.1-737.4-737.4
			c0-118.4,28-230.3,77.6-329.5c5.3,233.1,108.2,583.9,541.3,724.5c439.2,142.6,735.7-361.3,835.8-566.5
			C3878.6,1523.6,3885.5,1581.1,3885.5,1640.1z"/>
	</g>
	<g>
		<path class="st3" d="M2718,1640.1c-83.4-87.8-4.4-294.1,61.4-228.2C2845.3,1477.7,2801.4,1727.9,2718,1640.1z"/>
	</g>
	<g>
		<path class="st3" d="M3231.5,1640.1c-23.5-54.9,122.9-127.3,109.7-52.7C3328.1,1662.1,3271,1732.3,3231.5,1640.1z"/>
	</g>
	<g>
		<path class="st3" d="M3342.1,1249.5c-248.4-69.4-104.5-215.1,0-162.4C3446.6,1139.7,3483.4,1289,3342.1,1249.5z"/>
	</g>
	<g>
		<path class="st3" d="M2880.4,1811.3c-57.1-201.9,4.4-381.9,302.9-390.6c298.5-8.8,373.1-114.1,320.4-219.5
			c-52.7-105.3,105.3-87.8,105.3-87.8s-109.7,21.9-61.4,122.9c48.3,101-161.9,253.5-318.6,225.5
			C3072.3,1433.8,2858.5,1526,2880.4,1811.3z"/>
	</g>
	<g>
		<path class="st3" d="M2959.4,1368c83.4-92.2,406.5,8.8,475.4-79c0,0-45.1,86.1-181.3,61.4C3117.3,1325.8,2959.4,1368,2959.4,1368z
			"/>
	</g>
	<g>
		<path class="st3" d="M3550.4,1532.6l-5.7-7.4c22.9-17.5,86.2-106.4,124-159.5c12.3-17.3,22.5-31.6,28.7-39.9l7.5,5.6
			c-6.2,8.3-16.3,22.5-28.6,39.7C3635.8,1428,3574.4,1514.2,3550.4,1532.6z"/>
	</g>
	<g>
		<path class="st3" d="M2788.1,1257.4c-19.3-66,0.4-131.2,55.4-183.5c92.9-88.5,265.6-123.2,393.2-79l-3.1,8.8
			c-124.5-43.1-293-9.4-383.6,76.9c-37,35.2-76.2,94-52.8,174.1L2788.1,1257.4z"/>
	</g>
	<g>
		<path class="st3" d="M2696.9,1911c-170.9-192.8-76.6-540.7-75.6-544.2l9,2.5c-1,3.4-93.9,346.5,73.6,535.5L2696.9,1911z"/>
	</g>
	<g>
		<path class="st3" d="M3050.3,2140.6c-184.6-51.3-217.1-192.4-243.3-305.7c-7.8-33.9-15.2-65.9-25.9-92.1l8.7-3.5
			c11,26.9,18.5,59.2,26.4,93.5c25.6,110.9,57.4,249,236.7,298.8L3050.3,2140.6z"/>
	</g>
	<g>
		<path class="st2" d="M3654,1103.7c41.9-20.9,92.4-43.4,134.8-63.4c42.6-19.6,85.5-38.7,128.8-57c86.7-36.4,174.5-70.7,267.1-96.1
			c23.2-6.2,46.8-11.8,71.1-16c24.4-4.1,49.2-7.5,76.7-6.7c13.8,0.6,28.5,2.1,44.8,7.7c8.1,2.9,17,7.1,25.5,13.8
			c4.3,3.6,8.5,7.1,12,12.1c1.8,2.4,3.5,4.8,5.2,7.3c1.5,2.6,2.8,5.3,4,8c4.5,10.8,6.4,22.5,6,32c0.1,5.1-0.7,9.3-1.2,13.9
			c-0.8,4.1-1.6,8.4-2.7,12.3c-4.4,15.5-10.5,28.3-16.9,40.2c-13.2,23.6-28.3,43.6-43.9,62.8c-15.7,19.1-32,37-48.7,54.4
			c-33.5,34.7-68.4,67-103.9,98.4c-71.1,62.7-145.4,120.8-220.8,177.1c-75.5,56.2-152.2,110.4-230.1,162.8
			c-156,104.4-315.3,203.6-477.8,297.1c-162.6,93.3-327.5,182.9-496.2,265.1c-168.9,82-340.1,159.7-519.2,221.5
			c-44.8,15.3-90.2,29.6-136.7,41.7c-23.3,6-46.8,11.5-71,15.8c-24.1,4.3-48.8,7.6-75,8.4c-13.2,0.2-26.8-0.2-41.5-2.5
			c-7.3-1.1-15-2.9-23-5.7c-3.9-1.2-8.3-3.3-12.3-5.2c-4.3-2.5-8.5-4.5-12.8-8c-8.4-6.2-16.6-15.4-21.5-26.4
			c-1.2-2.8-2.4-5.6-3.4-8.5c-0.9-2.8-1.3-5.5-1.8-8.3c-0.4-2.7-1-5.7-1.1-8.3l0-7.5c1-19.8,7-34,12.9-47.1
			c12.6-25.2,27.8-45.3,43.5-64.5c15.7-19.1,32.4-36.7,49.4-53.7c68.2-67.4,141.6-126.5,216.1-183.8c37.4-28.5,75.1-56.4,113.3-83.5
			c38.3-27,88.3-66.4,127.1-92.5l12.3,46.3c-37.3,27.8-74.3,56-110.8,84.7c-36.6,28.5-73,57.3-108.8,86.8
			c-71.3,59-141.3,120.1-203.4,186.3c-15.3,16.6-30.2,33.5-43.7,50.8c-13.4,17.2-25.7,35.2-33.5,52c-3.6,8.1-5.7,16.2-5.5,19.8
			c0,0.4,0,0.8-0.1,1.2c0,0.4,0.3,0.2,0.2,0.4c0.1,0-0.1,0.2-0.1,0.2c0.1-0.2,0.1-0.3,0-0.4c-0.3-0.4-0.5-0.4,0.6,0.1
			c1.4,1.4,8.7,3.8,16.9,4.8c8.4,1.1,18.2,1.2,28.4,0.8c20.4-1.1,42.1-4.5,63.7-9c21.7-4.5,43.5-9.9,65.3-16
			c43.6-12.2,87.1-26.8,130.2-42.5c86.4-31.4,171.4-67.9,256-105.5c84.5-37.9,168.1-78,251-119.7
			c165.6-83.6,329.2-171.8,489.8-265.2c160.6-93.3,319.3-190,473.8-292.8c154.6-102.3,306.5-209.5,447.4-327.5
			c35-29.6,69.3-60,101.3-91.9c16-15.9,31.5-32.2,45.7-48.9c14.3-16.6,27.4-33.9,37.6-50.8c4.9-8.4,9-16.8,11.1-23.7
			c2.4-7.1,1.5-11.2,1.9-10.4c0,0.1,0.1,0.1,0.2,0.1c-0.1,0.1-0.1,0.2,0,0.2c0.5,0-0.1-0.1-0.2-0.3c-0.5-0.6-2.2-1.7-5-2.8
			c-5.7-2.2-14.3-3.9-23.8-4.5c-19.2-1.3-41,0.8-62.6,3.8c-21.8,3.1-43.8,7.6-65.8,12.8c-88.4,20.7-176.3,50.6-262.9,83
			c-43.4,16.3-86.5,33.4-129.4,51.1c-43.1,17.4-79.4,32.6-122.1,51.1L3654,1103.7z"/>
	</g>
</g>
<g>
	<g>
		<path class="st2" d="M1130.4,2104.2v-292.6L1800.5,853h405v937.3h173.9v313.9h-173.9v275.7h-362.6v-275.7H1130.4z M1868.3,1251.7
			l-356.3,538.6h356.3V1251.7z"/>
	</g>
</g>
<g>
	<g>
		<path class="st2" d="M3948.6,2104.2v-292.6L4618.7,853h405v937.3h173.9v313.9h-173.9v275.7h-362.6v-275.7H3948.6z M4686.6,1251.7
			l-356.3,538.6h356.3V1251.7z"/>
	</g>
</g>
<g>
	<g>
		<path class="st4" d="M2142.8,1790.4V853h-405l-98.5,140.9l-207.9,297.5l-363.7,520.2v292.7h712.5v275.7h362.6v-275.7h173.9v-313.8
			H2142.8z M1805.6,1790.4h-356.2l165.4-250.1l161.5-244.3l29.3-44.3V1790.4z"/>
	</g>
</g>
<g>
	<g>
		<path class="st4" d="M4961.1,1790.4V853h-405l-670.1,958.5v292.7h712.5v275.7h362.6v-275.7H5135v-313.8H4961.1z M4623.9,1790.4
			h-356.3l356.3-538.7V1790.4z"/>
	</g>
</g>
<path class="st5" d="M1258.7,1178c-5,2.2-9.1,6.4-11.1,11.5c-2-5.1-6-9.3-11.1-11.5c5-2.2,9-6.4,11.1-11.5
	C1249.7,1171.7,1253.7,1175.8,1258.7,1178z"/>
<path class="st5" d="M2176.9,2655.6c-5,2.2-9.1,6.4-11.1,11.5c-2-5.1-6-9.3-11.1-11.5c5-2.2,9-6.4,11.1-11.5
	C2167.9,2649.2,2171.9,2653.4,2176.9,2655.6z"/>
<path class="st5" d="M862.1,1940c-5,2.2-9.1,6.4-11.1,11.5c-2-5.1-6-9.3-11.1-11.5c5-2.2,9-6.4,11.1-11.5
	C853.1,1933.6,857.1,1937.7,862.1,1940z"/>
<path class="st5" d="M3858.2,1189.6c-5,2.2-9.1,6.4-11.1,11.5c-2-5.1-6-9.3-11.1-11.5c5-2.2,9-6.4,11.1-11.5
	C3849.1,1183.2,3853.2,1187.3,3858.2,1189.6z"/>
<path class="st5" d="M2703.2,2440.4c-10.3,4.5-18.5,13-22.6,23.5c-4.2-10.5-12.3-19-22.6-23.5c10.3-4.6,18.4-13,22.6-23.5
	C2684.7,2427.4,2692.9,2435.9,2703.2,2440.4z"/>
<path class="st5" d="M747.7,1995.7c-7.5,3.3-13.5,9.5-16.5,17.1c-3-7.6-9-13.8-16.5-17.1c7.5-3.3,13.5-9.5,16.5-17.2
	C734.3,1986.2,740.2,1992.3,747.7,1995.7z"/>
<path class="st5" d="M4027.1,1213.1c-10.3,4.5-18.5,13-22.6,23.5c-4.2-10.5-12.3-19-22.6-23.5c10.3-4.6,18.4-13,22.6-23.5
	C4008.6,1200.1,4016.8,1208.5,4027.1,1213.1z"/>
<path class="st5" d="M2338.9,693.6c-5,2.2-9.1,6.4-11.1,11.5c-2-5.1-6-9.3-11.1-11.5c5-2.2,9-6.4,11.1-11.5
	C2329.9,687.3,2333.9,691.4,2338.9,693.6z"/>
<path class="st5" d="M2316.7,1373.7c-10.3,4.5-18.5,13-22.6,23.5c-4.2-10.5-12.3-19-22.6-23.5c10.3-4.6,18.4-13,22.6-23.5
	C2298.2,1360.7,2306.4,1369.2,2316.7,1373.7z"/>
<path class="st5" d="M5300.1,1116.6c-10.3,4.5-18.5,13-22.6,23.5c-4.2-10.5-12.3-19-22.6-23.5c10.3-4.6,18.4-13,22.6-23.5
	C5281.6,1103.5,5289.8,1112,5300.1,1116.6z"/>
<path class="st5" d="M1280.9,2370c-5,2.2-9.1,6.4-11.1,11.5c-2-5.1-6-9.3-11.1-11.5c5-2.2,9-6.4,11.1-11.5
	C1271.9,2363.6,1275.9,2367.8,1280.9,2370z"/>
<path class="st5" d="M5299.7,1540.3c-5,2.2-9.1,6.4-11.1,11.5c-2-5.1-6-9.3-11.1-11.5c5-2.2,9-6.4,11.1-11.5
	C5290.6,1533.9,5294.6,1538.1,5299.7,1540.3z"/>
<path class="st5" d="M3292.8,365.3c-5,2.2-9.1,6.4-11.1,11.5c-2-5.1-6-9.3-11.1-11.5c5-2.2,9-6.4,11.1-11.5
	C3283.7,358.9,3287.7,363.1,3292.8,365.3z"/>
<g>
	<path class="st6" d="M3925.5,2468l-16.1-87.6c-1.5-8.1,1.8-16.3,8.4-21.2l139-101.6c10.5-7.7,25.4-1.2,27,11.7l10.6,85.7
		c0.9,7.2-1.9,14.4-7.5,19.1l-126.6,106.4C3947.8,2491.2,3928.5,2484.2,3925.5,2468z"/>
</g>
<g>
	<path class="st2" d="M3934.6,2459.5l-14.5-78.9c-1.3-7.3,1.6-14.7,7.6-19.1l125.3-91.5c9.5-6.9,22.8-1.1,24.3,10.5l9.6,77.3
		c0.8,6.5-1.7,13-6.7,17.2l-114.1,95.9C3954.7,2480.3,3937.3,2474.1,3934.6,2459.5z"/>
</g>
<g>
	<path class="st7" d="M3722.4,2502.6L3722.4,2502.6c-3.7-32.6,18.7-62.3,51.1-67.8l185.9-31.4c36-6.1,69.3,20.2,71.8,56.6l1,15.1
		c2.3,33.6-22.7,62.8-56.2,65.7l-187,16.2C3755.7,2560,3726.1,2535.8,3722.4,2502.6z"/>
</g>
<g>
	<path class="st6" d="M3651.5,2702.6l-16-100.8c-1.7-10.6,2.6-21.3,11.3-27.8l139-104.3c8.8-6.6,21.4-1.4,23,9.5l5.8,39.9l32.6-23.2
		l-2.1,24.6l-27.7,16.2l3,40.5c0.7,9.5-3.3,18.7-10.6,24.7l-134.7,109.7C3666.2,2718.6,3653.2,2713.7,3651.5,2702.6z"/>
</g>
<g>
	<path class="st2" d="M3661.6,2691.2l-16.8-91.4c-1.3-7.3,1.6-14.7,7.6-19.1l129.9-94.9c7.4-5.4,17.8-0.9,18.9,8.2l10.3,83
		c0.8,6.5-1.7,13-6.7,17.2l-123.8,104.1C3674,2704.1,3663.2,2700.2,3661.6,2691.2z"/>
</g>
<g>
	
		<ellipse transform="matrix(0.9936 -0.1126 0.1126 0.9936 -252.9537 463.3987)" class="st4" cx="3977" cy="2471.6" rx="48.9" ry="57"/>
</g>
<path class="st4" d="M2622,846.4c-219.9,51.3-361.1-257.4-301.2-401.6s349.5-228,473.2-151.2c123.7,76.9,131.7,424.9-70.6,516.9
	l58,161.4L2622,846.4z"/>
<g>
	<g>
		<path class="st2" d="M2387.6,454.7l40.5-30.1c11.6-8.6,28.2-4.6,34.6,8.4l71,145.4c4.9,10.1,1.9,22.3-7.2,28.9h0
			c-9.3,6.7-22.2,5.6-30.1-2.7l-111.6-115.3C2375.1,479.3,2376.4,463,2387.6,454.7z"/>
	</g>
	<g>
		<path class="st2" d="M2545.9,640.4l14-10.3c8.3-6.1,20.1-4.8,25.7,2.8l25.6,34.8c4.8,6.5,3.3,15.5-3.4,21.1l-12.7,10.6
			c-8.1,6.8-20.5,5.9-26.4-1.8l-26.9-35.1C2536.5,655.7,2538.3,646,2545.9,640.4z"/>
	</g>
</g>
<g>
	<path class="st2" d="M2638.1,332.4l58.3-10.5c16.7-3,32.1,9.9,31.9,26.9l-1.3,190c-0.1,13.2-9.7,24.4-22.7,26.6l0,0
		c-13.3,2.2-26.2-5.7-30.3-18.6L2617,367.4C2612.1,351.8,2622,335.3,2638.1,332.4z"/>
</g>
<g>
	<path class="st2" d="M2694,589.7l17-2.7c10.1-1.6,20.2,4.5,21.9,13.3l8,40.2c1.5,7.5-3.7,14.5-12.1,16.3l-15.9,3.5
		c-10.2,2.3-21-3.7-23-12.8l-9.1-41C2679.1,598.6,2684.9,591.2,2694,589.7z"/>
</g>
<polygon class="st4" points="4153.8,2338.8 4221.8,2308 4207.4,2337.4 4267.6,2332.1 4182.2,2359.5 4199.9,2329.1 "/>
<polygon class="st4" points="3906.6,2310.2 3903.7,2265.9 3917.1,2280.1 3926.7,2245.4 3924.1,2298.7 3910.9,2282.5 "/>
<polygon class="st4" points="4095.7,2425.7 4141.9,2428.8 4125.4,2440.7 4159.8,2455.5 4105.1,2445.3 4123.8,2433.9 "/>
<polygon class="st4" points="3369.2,2641.3 3502.7,2580.8 3474.4,2638.6 3592.5,2628.2 3425,2682 3459.7,2622.2 "/>
</svg>
