<?xml version="1.0" encoding="utf-8"?>
<!-- Generator: Adobe Illustrator 16.0.0, SVG Export Plug-In . SVG Version: 6.00 Build 0)  -->
<!DOCTYPE svg PUBLIC "-//W3C//DTD SVG 1.1//EN" "http://www.w3.org/Graphics/SVG/1.1/DTD/svg11.dtd">
<svg version="1.1" id="Layer_1" xmlns="http://www.w3.org/2000/svg" xmlns:xlink="http://www.w3.org/1999/xlink" x="0px" y="0px"
	 width="1212px" height="292.01px" viewBox="0 0 1212 292.01" enable-background="new 0 0 1212 292.01" xml:space="preserve">
<linearGradient id="SVGID_1_" gradientUnits="userSpaceOnUse" x1="605.9995" y1="-1.3745" x2="605.9995" y2="289.627">
	<stop  offset="0" style="stop-color:#0B3A55"/>
	<stop  offset="1" style="stop-color:#0A233F"/>
</linearGradient>
<rect fill="url(#SVGID_1_)" width="1212" height="292.01"/>
<path fill="#FFFFFF" d="M985.304,78.744c0.585-0.717,1.692,0.066,1.106,0.783C985.825,80.243,984.718,79.46,985.304,78.744
	L985.304,78.744z"/>
<path fill="#FFFFFF" d="M1114.942,70.902c0.585-0.717,1.692,0.066,1.106,0.783C1115.464,72.401,1114.356,71.618,1114.942,70.902
	L1114.942,70.902z"/>
<path fill="#FFFFFF" d="M691.942,70.227c0.585-0.717,1.692,0.066,1.106,0.783C692.464,71.726,691.356,70.943,691.942,70.227
	L691.942,70.227z"/>
<path fill="#FFFFFF" d="M304.942,63.227c0.585-0.717,1.692,0.066,1.106,0.783C305.464,64.726,304.356,63.943,304.942,63.227
	L304.942,63.227z"/>
<path fill="#FFFFFF" d="M730.049,91.01c0.585-0.717,1.692,0.066,1.106,0.783C730.57,92.509,729.463,91.727,730.049,91.01
	L730.049,91.01z"/>
<path fill="#FFFFFF" d="M1072.77,124.373c-1.589-0.16-1.147-2.523,0.441-2.364C1074.8,122.168,1074.357,124.532,1072.77,124.373
	L1072.77,124.373z"/>
<path fill="#FFFFFF" d="M985.304,78.744c0.585-0.717,1.692,0.066,1.106,0.783C985.825,80.243,984.718,79.46,985.304,78.744
	L985.304,78.744z"/>
<path fill="#FFFFFF" d="M641.304,201.744c0.585-0.717,1.692,0.065,1.106,0.783C641.825,203.243,640.718,202.459,641.304,201.744
	L641.304,201.744z"/>
<path fill="#FFFFFF" d="M148.488,69.533c0.891-1.092,2.578,0.101,1.686,1.193C149.282,71.816,147.596,70.624,148.488,69.533
	L148.488,69.533z"/>
<path fill="#FFFFFF" d="M829.942,106.227c0.585-0.717,1.692,0.066,1.106,0.783C830.464,107.726,829.356,106.943,829.942,106.227
	L829.942,106.227z"/>
<path fill="#FFFFFF" d="M442.942,99.227c0.585-0.717,1.692,0.066,1.106,0.783C443.464,100.726,442.356,99.943,442.942,99.227
	L442.942,99.227z"/>
<path fill="#FFFFFF" d="M868.049,29.01c0.585-0.717,1.692,0.066,1.106,0.783C868.57,30.509,867.463,29.727,868.049,29.01
	L868.049,29.01z"/>
<path fill="#FFFFFF" d="M779.304,237.744c0.585-0.717,1.692,0.065,1.106,0.783C779.825,239.243,778.718,238.459,779.304,237.744
	L779.304,237.744z"/>
<path fill="#FFFFFF" d="M286.488,105.533c0.891-1.092,2.578,0.101,1.686,1.193C287.282,107.816,285.596,106.624,286.488,105.533
	L286.488,105.533z"/>
<path fill="#FFFFFF" d="M659.304,50.744c0.585-0.717,1.692,0.065,1.106,0.783C659.825,52.243,658.718,51.459,659.304,50.744
	L659.304,50.744z"/>
<path fill="#FFFFFF" d="M788.942,42.902c0.585-0.717,1.692,0.065,1.106,0.783C789.464,44.401,788.356,43.618,788.942,42.902
	L788.942,42.902z"/>
<path fill="#FFFFFF" d="M365.942,42.227c0.585-0.717,1.692,0.066,1.106,0.783C366.464,43.726,365.356,42.944,365.942,42.227
	L365.942,42.227z"/>
<path fill="#FFFFFF" d="M404.049,63.01c0.585-0.717,1.692,0.066,1.106,0.783C404.57,64.509,403.463,63.727,404.049,63.01
	L404.049,63.01z"/>
<path fill="#FFFFFF" d="M619.607,155.375c-1.589-0.16-1.147-2.523,0.441-2.364C621.638,153.17,621.195,155.534,619.607,155.375
	L619.607,155.375z"/>
<path fill="#FFFFFF" d="M659.304,50.744c0.585-0.717,1.692,0.065,1.106,0.783C659.825,52.243,658.718,51.459,659.304,50.744
	L659.304,50.744z"/>
<path fill="#FFFFFF" d="M455.836,84.144c0.585-0.717,1.692,0.066,1.106,0.783C456.357,85.643,455.25,84.861,455.836,84.144
	L455.836,84.144z"/>
<path fill="#FFFFFF" d="M493.942,104.927c0.585-0.717,1.692,0.066,1.106,0.783C494.464,106.426,493.356,105.644,493.942,104.927
	L493.942,104.927z"/>
<path fill="#FFFFFF" d="M505.942,31.227c0.585-0.717,1.692,0.066,1.106,0.783C506.464,32.726,505.356,31.944,505.942,31.227
	L505.942,31.227z"/>
<path fill="#FFFFFF" d="M658.585,244.01c0.585-0.717,1.692,0.066,1.106,0.783C659.106,245.509,657.999,244.727,658.585,244.01
	L658.585,244.01z"/>
<path fill="#FFFFFF" d="M643.942,67.227c0.585-0.717,1.692,0.066,1.106,0.783C644.464,68.726,643.356,67.944,643.942,67.227
	L643.942,67.227z"/>
<path fill="#FFFFFF" d="M682.049,186.01c0.585-0.717,1.692,0.066,1.106,0.783C682.57,187.509,681.463,186.727,682.049,186.01
	L682.049,186.01z"/>
<path fill="#FFFFFF" d="M425.197,17.661c0.585-0.717,1.692,0.065,1.106,0.783C425.719,19.16,424.611,18.376,425.197,17.661
	L425.197,17.661z"/>
<path fill="#FFFFFF" d="M554.836,107.819c0.585-0.717,1.692,0.065,1.106,0.783C555.357,109.318,554.25,108.535,554.836,107.819
	L554.836,107.819z"/>
<path fill="#FFFFFF" d="M425.197,17.661c0.585-0.717,1.692,0.065,1.106,0.783C425.719,19.16,424.611,18.376,425.197,17.661
	L425.197,17.661z"/>
<path fill="#FFFFFF" d="M547.264,68.009c0.844,0.378,0.378,1.651-0.468,1.272C545.953,68.904,546.42,67.63,547.264,68.009
	L547.264,68.009z"/>
<path fill="#FFFFFF" d="M603.123,71.583c0.845,0.378,0.378,1.65-0.468,1.271C601.812,72.477,602.279,71.204,603.123,71.583
	L603.123,71.583z"/>
<path fill="#FFFFFF" d="M603.123,71.583c0.845,0.378,0.378,1.65-0.468,1.271C601.812,72.477,602.279,71.204,603.123,71.583
	L603.123,71.583z"/>
<path fill="#FFFFFF" d="M583.208,61.045c0.844,0.378,0.377,1.651-0.468,1.272C581.896,61.94,582.363,60.667,583.208,61.045
	L583.208,61.045z"/>
<path fill="#FFFFFF" d="M573.067,201.25c0.845,0.378,0.377,1.65-0.468,1.271C571.756,202.144,572.223,200.871,573.067,201.25
	L573.067,201.25z"/>
<path fill="#FFFFFF" d="M778.295,63.698c0.891-1.092,2.578,0.101,1.686,1.192C779.089,65.981,777.402,64.789,778.295,63.698
	L778.295,63.698z"/>
<path fill="#FFFFFF" d="M54.917,24.242c0.881,0.282,0.558,1.599-0.324,1.316C53.713,25.276,54.036,23.959,54.917,24.242
	L54.917,24.242z"/>
<path fill="#FFFFFF" d="M71.894,165.846c0.881,0.283,0.557,1.6-0.324,1.316C70.689,166.879,71.012,165.563,71.894,165.846
	L71.894,165.846z"/>
<path fill="#FFFFFF" d="M96.776,73.332c0.881,0.282,0.558,1.6-0.324,1.316C95.572,74.366,95.895,73.049,96.776,73.332L96.776,73.332
	z"/>
<path fill="#FFFFFF" d="M91.373,116.4c0.881,0.282,0.557,1.599-0.324,1.316C90.168,117.434,90.491,116.117,91.373,116.4
	L91.373,116.4z"/>
<path fill="#FFFFFF" d="M90.648,172.329c0.881,0.283,0.557,1.6-0.324,1.316C89.444,173.362,89.767,172.045,90.648,172.329
	L90.648,172.329z"/>
<path fill="#FFFFFF" d="M141.315,119.493c0.881,0.283,0.559,1.6-0.324,1.316C140.111,120.528,140.436,119.209,141.315,119.493
	L141.315,119.493z"/>
<path fill="#FFFFFF" d="M141.315,119.493c0.881,0.283,0.559,1.6-0.324,1.316C140.111,120.528,140.436,119.209,141.315,119.493
	L141.315,119.493z"/>
</svg>
