<?xml version="1.0" encoding="utf-8"?>
<!-- Generator: Adobe Illustrator 16.0.0, SVG Export Plug-In . SVG Version: 6.00 Build 0)  -->
<!DOCTYPE svg PUBLIC "-//W3C//DTD SVG 1.1//EN" "http://www.w3.org/Graphics/SVG/1.1/DTD/svg11.dtd">
<svg version="1.1" id="Layer_1" xmlns="http://www.w3.org/2000/svg" xmlns:xlink="http://www.w3.org/1999/xlink" x="0px" y="0px"
	 width="1440px" height="363.018px" viewBox="0 410.197 1440 363.018" enable-background="new 0 410.197 1440 363.018"
	 xml:space="preserve">
<rect x="-108.763" y="-187.131" fill="#184F90" stroke="#000000" stroke-miterlimit="10" width="1701.17" height="1683.168"/>
<title>Rectangle</title>
<desc>Created with Sketch.</desc>
<g id="planet-2" transform="translate(837.080803, 670.130800) rotate(-89.000000) translate(-837.080803, -670.130800) translate(786.580803, 632.723393)">
	<circle id="Oval-3-Copy-9" fill="#0C4180" cx="50.268" cy="37.218" r="29.319"/>
	<circle id="Oval-3-Copy-9_1_" fill="#0B386E" cx="45.126" cy="32.251" r="4.044"/>
	<circle id="Oval-3-Copy-9_2_" fill="#0B386E" cx="50.621" cy="57.435" r="2.022"/>
	<g id="Group-23" transform="translate(0.737580, 0.812284)">
		
			<linearGradient id="Oval-3-Copy-9_5_" gradientUnits="userSpaceOnUse" x1="-1067.5659" y1="-1170.9415" x2="-1067.5659" y2="-1169.2573" gradientTransform="matrix(90.3979 -44.0888 -10.2087 -20.9314 84602.5313 -71540.5938)">
			<stop  offset="0" style="stop-color:#0C4180"/>
			<stop  offset="1" style="stop-color:#18286C"/>
		</linearGradient>
		
			<ellipse id="Oval-3-Copy-9_3_" transform="matrix(-0.848 -0.5299 0.5299 -0.848 72.5511 94.5392)" fill="none" stroke="url(#Oval-3-Copy-9_5_)" cx="49.83" cy="36.868" rx="50.289" ry="11.644"/>
		
			<ellipse id="Oval-3-Copy-9_4_" transform="matrix(-1 2.941291e-005 -2.941291e-005 -1 123.8044 66.7409)" fill="#0B386E" cx="61.902" cy="33.371" rx="5.604" ry="5.661"/>
	</g>
</g>
<path id="Path-62-Copy-3" opacity="0.6" fill="#2163AF" enable-background="new    " d="M356,625
	c-31.35-25.033-48.876-33.574-52.581-25.623c-5.557,11.926-3.558,8.512-21.831,0c-18.273-8.514-60.332-33.459-65.492-16.73
	c-5.16,16.73-0.14,33.035-24.282,29.229C175.72,609.337,161.448,613.712,149,625H356z"/>
<g id="Group-35" transform="translate(-911.000000, 542.000000)">
	<g id="Group-40-Copy" transform="translate(1848.000000, 104.000000)" opacity="0.56">
		<path id="Rectangle-Copy-2" fill="#1C3087" d="M154.129,8.433c-6.269-6.393-10.35-2.539-12.244,11.564
			c-1.894,14.104-1.895,40.635,0,79.592h12.244V8.433z"/>
		<path id="Rectangle-Copy-2_1_" fill="#18286C" d="M154.069,8.433c6.269-6.393,10.35-2.539,12.243,11.564
			c1.895,14.104,1.896,40.635,0,79.592h-12.243V8.433z"/>
		<g id="Group-56" transform="translate(0.000000, 12.000000)">
			<g id="Mask">
				<ellipse id="path-3_1_" fill="#000D4B" cx="86.5" cy="42" rx="86.5" ry="42"/>
			</g>
			<defs>
				<filter id="Adobe_OpacityMaskFilter" filterUnits="userSpaceOnUse" x="3" y="5" width="175" height="22">
					<feColorMatrix  type="matrix" values="1 0 0 0 0  0 1 0 0 0  0 0 1 0 0  0 0 0 1 0"/>
				</filter>
			</defs>
			<mask maskUnits="userSpaceOnUse" x="3" y="5" width="175" height="22" id="mask-4">
				<g filter="url(#Adobe_OpacityMaskFilter)">
					<ellipse id="path-3" fill="#FFFFFF" cx="86.5" cy="42" rx="86.5" ry="42"/>
				</g>
			</mask>
			<g mask="url(#mask-4)">
				<g transform="translate(3.000000, 5.000000)">
					<ellipse id="Oval" fill="#0C4180" cx="72" cy="2" rx="12" ry="2"/>
					<ellipse id="Oval_1_" fill="#0C4180" cx="102" cy="2" rx="12" ry="2"/>
					<ellipse id="Oval_2_" fill="#0C4180" cx="133" cy="2" rx="12" ry="2"/>
					<ellipse id="Oval_3_" fill="#0C4180" cx="42" cy="2" rx="12" ry="2"/>
					<g id="Group-55" transform="translate(0.000000, 18.000000)">
						<ellipse id="Oval_4_" fill="#0C4180" cx="72" cy="2" rx="12" ry="2"/>
						<ellipse id="Oval_5_" fill="#0C4180" cx="103" cy="2" rx="12" ry="2"/>
						<ellipse id="Oval_6_" fill="#0C4180" cx="132" cy="2" rx="12" ry="2"/>
						<ellipse id="Oval_7_" fill="#0C4180" cx="163" cy="2" rx="12" ry="2"/>
						<ellipse id="Oval_8_" fill="#0C4180" cx="12" cy="2" rx="12" ry="2"/>
						<ellipse id="Oval_9_" fill="#0C4180" cx="43" cy="2" rx="12" ry="2"/>
					</g>
					<ellipse id="Oval_10_" fill="#0C4180" cx="117" cy="11" rx="7" ry="2"/>
					<ellipse id="Oval_11_" fill="#0C4180" cx="144" cy="11" rx="7" ry="2"/>
					<ellipse id="Oval_12_" fill="#0C4180" cx="64" cy="11" rx="7" ry="2"/>
					<ellipse id="Oval_13_" fill="#0C4180" cx="91" cy="11" rx="7" ry="2"/>
					<ellipse id="Oval_14_" fill="#0C4180" cx="14" cy="11" rx="7" ry="2"/>
					<ellipse id="Oval_15_" fill="#0C4180" cx="41" cy="11" rx="7" ry="2"/>
				</g>
			</g>
		</g>
		<path id="Oval_16_" fill="#18286C" d="M177.938,9.41c0-5.047-10.507-9.141-23.469-9.141S131,4.363,131,9.41
			C131,14.458,177.938,14.458,177.938,9.41z"/>
	</g>
	<path id="Path-29" fill="#0C4180" d="M2728,97.771C2623.896,52,2534.671,40.556,2460.327,63.443
		c-111.518,34.328-210.406,60.705-295.835,47.518c-85.43-13.189-92.694,31.063-148.803,38.525c-56.107,7.463-90.043-7.465-140.839,0
		c-50.796,7.463-148.461,111.705-387.815,139.092c-239.356,27.385-513.022-19.826-627.857-22.883
		c-114.835-3.059-161.407,23.736-231.718,0c-70.311-23.738-70.311-40.182-107.797-45.639c-37.486-5.459-118.51,5.457-181.858,0
		c-63.349-5.459-151.039-36.91-151.039-36.91s-36.964-10.971-79.087,0c-42.123,10.973-47.567,12.258-71.625,12.258
		c-16.038,0-28.056-1.947-36.054-5.842V752h2728"/>
	<path id="Path-29_1_" fill="#18286C" d="M2734,108.58c-104.396-49.248-193.768-62.43-268.111-39.545
		c-48.204,14.84-93.914,26.729-137.265,39.545c-20.772,6.141-33.372,10.861-53.056,13.188c-18.475,2.186-44.644,3.346-62.178,0
		c-14.99-2.857-73.252-10.926-83.836-4.197c-6.716,4.27-26.975,16.068-32.658,17.406c-16.273,3.834-15.523,2.035-27.647,4.42
		c-14.979,2.947-22.667,17.955-44.774,20.896c-15.376,2.045-31.478-2.074-45.414,0c-11.39,1.695-34.451,5.693-44.237,4.859
		c-21.941-1.873-28.886-12.563-54.387-8.814c-12.742,1.871-21.642,21.162-41.778,32.475c-12.262,6.889-33.484,3.297-49.803,11.561
		c-17.078,8.646-46.924,31.203-68.219,41.453c-58.157,27.992-123.109,45.604-227.602,57.561
		c-239.355,27.385-513.021-19.826-627.857-22.883c-114.835-3.059-161.407,23.736-231.718,0
		c-70.311-23.738-70.311-40.182-107.797-45.639c-37.486-5.457-118.51,5.457-181.858,0c-63.349-5.457-151.039-36.908-151.039-36.908
		s-36.964-10.971-79.087,0c-42.123,10.971-47.567,12.256-71.625,12.256c-16.038,0-28.056-1.947-36.054-5.84v562.436h2728"/>
	<g id="Group-40" transform="translate(1154.000000, 58.602405)">
		<path id="Rectangle-Copy-2_2_" fill="#1C3087" d="M31,11.339c-8.257-8.422-13.633-3.344-16.128,15.23
			c-2.496,18.574-2.496,53.518,0,104.828H31V11.339z"/>
		<path id="Rectangle-Copy-2_3_" fill="#18286C" d="M30,11.339c8.257-8.422,13.633-3.344,16.128,15.23
			c2.496,18.574,2.496,53.518,0,104.828H30V11.339z"/>
		<path id="Oval_17_" fill="#18286C" d="M62,12.419C62,5.78,48.121,0.397,31,0.397S0,5.78,0,12.419S62,19.057,62,12.419z"/>
	</g>
	<path id="Path-29_2_" fill="#1C3087" d="M629,48.832C702.271,0,765.067-12.208,817.392,12.208
		c78.486,36.623,148.086,64.766,208.212,50.695c60.126-14.072,65.24,33.139,104.729,41.1c39.489,7.963,63.374-7.961,99.125,0
		c35.75,7.963,104.488,119.176,272.949,148.393c168.462,29.219,381.016-11.645,461.838-14.904
		c53.882-2.176,248.8,167.598,584.756,509.316H629"/>
	<path id="Path-29_3_" fill="#000D4B" d="M629,61.832C702.271,13,765.067,0.792,817.392,25.208
		C876.021,52.566,926.523,91.47,974.99,95.302c16.416,1.299,35.402-15.84,50.614-19.398c60.126-14.07,69.932,37.189,106.112,37.189
		c36.181,0,41.978,12.375,65.18,11.439c8.219-0.33,22.435-13.523,31.786-11.439c13.037,2.902,22.91,25.287,47.957,46.668
		c27.795,23.729,49.513,52.785,102.959,75.389c30.463,12.881,86.438,17.221,125.295,23.959
		c34.137,5.922,91.119,19.809,126.107,20.248c38.25,0.479,64.143-17.318,109.018-13.096c88.692,8.35,157.742-23.398,204.282-25.277
		c80.822-3.262,212.571-42.867,238.955-48.689s83.408,5.822,127.994,0c44.585-5.822,106.303-27.377,106.303-27.377
		s26.018-11.705,55.663,0c29.646,11.705,33.479,1.076,50.41,1.076c11.287,0,19.746-2.076,25.375-6.23v600.045H629"/>
</g>
<path id="Path-62-Copy-3_1_" fill="#2163AF" d="M702,665c26.806-19.818,41.793-26.58,44.96-20.285c4.752,9.441,3.042,6.74,18.667,0
	c15.625-6.738,51.588-26.488,56-13.244s0.12,26.152,20.764,23.141c13.763-2.01,25.965,1.453,36.609,10.391H702V665z"/>
<path id="Path-2" fill="#2163AF" d="M0,0"/>
<path id="Path-21" fill="#2163AF" d="M0,0"/>
<path fill="#FFFFFF" d="M1718.5,700c-133.426,89.838-530.004,155-998.5,155c-468.497,0-865.076-65.162-998.501-155H-403v310h2246
	V700H1718.5z"/>
</svg>
