<?xml version="1.0" encoding="utf-8"?>
<!-- Generator: Adobe Illustrator 16.0.0, SVG Export Plug-In . SVG Version: 6.00 Build 0)  -->
<!DOCTYPE svg PUBLIC "-//W3C//DTD SVG 1.1//EN" "http://www.w3.org/Graphics/SVG/1.1/DTD/svg11.dtd">
<svg version="1.1" id="Layer_1" xmlns="http://www.w3.org/2000/svg" xmlns:xlink="http://www.w3.org/1999/xlink" x="0px" y="0px"
	 width="430.36px" height="419.658px" viewBox="0 0 430.36 419.658" enable-background="new 0 0 430.36 419.658"
	 xml:space="preserve">
<g id="Group-39" transform="translate(767.000000, 182.000000)">
	<g id="sapceman">
		<g id="Group-9">
			<path id="Path-2_1_" fill="#E1E5EF" d="M-708.447-101.333c-8.086,1.855-19.94,11.841-35.567,29.955
				c-8.622,9.995-31.837,13.513-19.396,67.814c0.296,1.284,1.456,2.397,3.484,3.34c9.566-2.25,15.329-3.376,17.288-3.376
				c6.963,0-0.239-20.271,7.1-27.922c7.34-7.651,25.354-21.026,33.893-9.064s90.487,10.618,94.29-6.341
				c3.802-16.959,30.291,4.106,47.07,0c21.635-5.294,39.925-17.924,41.645-19.281c6.554-5.17-5.686-19.946-5.686-19.946
				s-24.001,10.663-38.646,6.546c-17.495-4.917-28.357-24.696-44.384-31.761c-5.125-2.259-10.7-4.188-17.021-5.522
				C-641.769-120.562-669.791-115.376-708.447-101.333z"/>
			
				<linearGradient id="Path-8_1_" gradientUnits="userSpaceOnUse" x1="-1914.7456" y1="387.7197" x2="-1914.6636" y2="387.8809" gradientTransform="matrix(98.5338 17.3742 -8.0658 45.7437 191231.8125 15466.5352)">
				<stop  offset="0" style="stop-color:#DCE1F1;stop-opacity:0"/>
				<stop  offset="1" style="stop-color:#6075A8"/>
			</linearGradient>
			<path id="Path-8" fill="url(#Path-8_1_)" d="M-610.235-74.331c19.938,9.62,36.256,14.426,48.949,14.418
				c19.042-0.011,45.58-12.94,45.986-15.261c0,0,1.353,2.025,6.81,0c-3.396,3.188-7.687,6.087-10.312,8.966
				c-1.494,1.639-19.244,11.4-23.396,13.08c-11.048,4.466-19.089,7.627-26.176,6.558c-0.922-0.139-1.897-0.212-2.847-0.406
				c-2.208-0.453-4.198-0.796-5.687-1.241c-11.603-3.472-20.9-6.77-25.823-4.77c-1.823,0.741-4.268,3.098-7.331,7.071
				L-610.235-74.331z"/>
			
				<linearGradient id="Path-16_1_" gradientUnits="userSpaceOnUse" x1="-1929.5698" y1="383.3838" x2="-1929.0886" y2="383.9729" gradientTransform="matrix(43.2943 0 0 49.6764 82798.7344 -19090.9414)">
				<stop  offset="0" style="stop-color:#DCE1F1;stop-opacity:0"/>
				<stop  offset="1" style="stop-color:#6075A8"/>
			</linearGradient>
			<path id="Path-16" fill="url(#Path-16_1_)" d="M-710.525-53.813c-23.83,2.08-36.621,7.974-38.374,17.684
				c-1.752,9.709-1.908,19.303-0.469,28.781c4.736-0.119,7.537,0.842,8.402,2.883c0.571,1.348,1.817-1.581,1.695-6.424
				c-0.061-2.347-0.022-4.216,0.03-6.104c0.152-5.421,0.7-9.439,1.645-11.331c0.562-1.174,1.169-2.331,2.334-3.508
				c5.941-6.006,16.76-13.371,21.417-12.605C-706.021-44.541-704.914-47.666-710.525-53.813z"/>
			<path id="Combined-Shape" fill="#FFFFFF" d="M-718.166,4.208l-1.975-0.065c3.057-10.627,4.578-22.792,4.563-36.489
				c-0.005-4.373-0.404-9.466-1.203-15.281c-3.701-26.992,14.058-52.266,40.707-57.93l8.322-1.769
				c28.107-5.976,55.737,11.968,61.711,40.076c0.768,3.606,1.148,7.284,1.139,10.971c-0.016,4.854-0.146,9.102-0.394,12.742
				c-0.974,14.354-3.795,30.515-8.465,48.482c8.602,39.829,13.695,65.243,12.932,96.249c-1.151,46.814-4.712,67.799-5.375,78.957
				c-0.664,11.156,4.537,10.449,3.251,17.73c-1.285,7.281-13.63,6.107-18.698,6.107c-5.069,0-11.01-1.023-12.689-6.107
				c-1.68-5.082,3.687-4.93,2.165-14.199c-1.521-9.273-10.365-47.15-19.169-84.939c-5.116-21.959-10.961-34.723-14.373-39.377
				c-7.37-10.055-45.938-12.971-33.678,5.816c1.511,2.314,8.719,10.277,15.73,15.98c4.08,3.316,10.425,4.146,11.288,8.688
				c1.727,9.078-3.289,25.477-9.32,31.402c-6.033,5.926-13.707,5.576-15.707,0.178c-1.733-4.682,1.19-10.584-4.951-15.883
				c-6.626-5.719-26.231-22.031-35.276-28.459s-17.063-11.553-17.063-28.098s29.97-39.305,34.522-44.783H-718.166z"/>
			<g id="head" transform="translate(28.029480, 0.404471)">
				
					<g id="Group-3" transform="translate(65.344257, 72.586060) rotate(-12.000000) translate(-65.344257, -72.586060) translate(8.844257, 26.586060)">
					<path id="Path-4" fill="#A8AEC0" d="M-692.858-292.063c-1.74,1.741-2.12,3.41-1.138,5.007c0.652,1.061,3.113,3.024,4.604,3.91
						c3.128,1.86,7.972,4.103,13.919,5.785c14.815,4.191,36.361,5.404,54.454-7.76c1.666-1.371,2.087-3.632,1.261-6.782
						l-34.478,9.123L-692.858-292.063z"/>
					<path id="Rectangle-2" fill="#D1D5E3" d="M-694.211-290.305c5.674,4.859,11.611,8.053,17.803,9.581
						c9.291,2.292,20.231,2.823,26.868,2.29c12.848-1.033,22.873-4.976,30.076-11.83c0.103,0.629,0.136,1.04,0.102,1.229
						c-0.053,0.285-10.198,10.233-30.167,11.893c-5.369,0.447-16.131,0.233-27.083-2.468c-9.894-2.439-18.131-9.458-17.912-10.029
						C-694.376-290.02-694.273-290.242-694.211-290.305z"/>
					<path id="Path-9" fill="none" stroke="#1872A4" stroke-width="5" stroke-linecap="round" d="M-697.717-294.887
						c-13.235-5.958-20.773-13.792-22.613-23.504c-2.763-14.568,8.341-19.023,11.122-19.023"/>
					<path id="Oval_18_" fill="#FFFFFF" d="M-657.576-280.706c26.554,0,48.526-9.715,48.527-36.409
						c0-26.695-21.779-48.226-48.332-48.226s-47.825,21.531-47.826,48.225C-705.207-290.421-684.129-280.706-657.576-280.706z"/>
				</g>
				
					<g id="Group-14" transform="translate(25.553283, 50.362245) rotate(10.000000) translate(-25.553283, -50.362245) translate(17.553283, 22.862245)">
					<path id="Oval_19_" fill="#1896A4" d="M-793.376-14.048c4.042,0.142,0.253-7.256,0.503-14.469
						c0.25-7.212,4.517-13.493,0.474-13.635c-4.042-0.141-10.018,6.81-10.269,14.023C-802.919-20.916-797.417-14.19-793.376-14.048z
						"/>
					<path id="Oval-Copy-2" fill="#00C0A5" d="M-794.398-20.384c2.552-0.714,1.091-4.349,1.837-10.811
						c0.747-6.463,3.94-11.17,0.37-11.547c-3.572-0.377-8.187,5.286-8.763,10.795C-801.53-26.437-796.951-19.67-794.398-20.384z"/>
				</g>
				<g id="Group-21" transform="translate(25.484514, 24.335493)">
					
						<g id="Group-3_1_" transform="translate(46.904832, 46.137872) rotate(-12.000000) translate(-46.904832, -46.137872) translate(7.404832, 8.137872)">
						<path id="Oval_20_" fill="#D1D5E3" d="M-681.979-289.889c20.8,0,39.213-10.8,39.211-35.373
							c0.001-24.574-18.949-40.189-39.748-40.188c-20.8,0-38.925,15.836-38.925,40.411
							C-721.441-300.466-702.779-289.889-681.979-289.889z"/>
						<path id="Oval_21_" fill="#161440" d="M-681.797-291.627c20.8,0,39.213-10.909,39.213-35.733
							c0-24.823-20.478-36.315-41.279-36.315s-37.398,11.716-37.397,36.539C-721.259-302.312-702.598-291.627-681.797-291.627z"/>
						<path id="Oval_22_" fill="#323166" d="M-645.945-323.661c-0.076-3.409-2.662-0.796-4.926,1.605
							c-3.253,3.449-6.854,8.499-19.394,14.424c-14.527,6.864-27.844,1.925-33.922,1.704c-2.333-0.085-4.179,1.251-3.207,3.718
							c0.99,2.518,6.672,4.468,14.098,5.869c0,0,15.787,3.364,28.522-1.696C-653.113-302.672-645.753-314.954-645.945-323.661z"/>
						
							<ellipse id="Oval_23_" transform="matrix(-1 8.258025e-005 -8.258025e-005 -1 -1417.3538 -679.8638)" fill="#323166" cx="-708.663" cy="-339.961" rx="2.622" ry="2.636"/>
						
							<ellipse id="Oval_24_" transform="matrix(-1 1.041097e-006 -1.041097e-006 -1 -1397.5663 -693.7727)" fill="#323166" cx="-698.783" cy="-346.887" rx="6.119" ry="6.15"/>
					</g>
					<path id="Path-9_1_" fill="none" stroke="#1872A4" stroke-width="5" stroke-linecap="round" d="M-691.317-189.842
						c14.643-1.539,20.061,5.607,16.249,21.439c-5.715,23.748-14.063,25.211-14.063,25.211"/>
				</g>
				
					<g id="Group-7" transform="translate(104.790055, 31.360229) rotate(-16.000000) translate(-104.790055, -31.360229) translate(91.790055, 2.860229)">
					<path id="Oval-Copy-2_1_" fill="#1896A4" d="M-677.26-359.281c-3.468,0.934-1.87-7.013-3.727-13.984
						c-1.859-6.971-6.981-12.245-3.513-13.179c3.468-0.934,10.225,4.656,12.084,11.627
						C-670.56-367.847-673.792-360.215-677.26-359.281z"/>
					<path id="Oval-Copy-2_2_" fill="#00C0A5" d="M-676.944-364.659c-2.646-0.166-1.967-4.026-4.035-10.191
						c-2.067-6.166-6.164-10.103-2.75-11.218c3.415-1.115,9.101,3.46,10.805,8.729C-671.22-372.071-674.301-364.494-676.944-364.659
						z"/>
				</g>
			</g>
			<path id="Path-39" opacity="0.3" fill="#FFFFFF" enable-background="new    " d="M-650.36-175.062
				c2.313-0.822,5.047-0.194,8.2,1.883c4.742,3.122,6.506,7.979,5.289,14.565c-0.143-5.773-2.004-10.064-5.585-12.874
				C-645.436-173.825-648.072-175.017-650.36-175.062z"/>
			<path id="Path-3" fill="#E1E5EF" d="M-693.55,71.953c1.378,0.979,2.873,3.508,9.886,9.209c4.08,3.318,10.424,4.146,11.288,8.689
				c1.727,9.076-3.289,25.477-9.321,31.402c-6.032,5.924-13.705,5.574-15.707,0.176c-1.732-4.68,1.191-10.582-4.95-15.881
				c-6.626-5.719-10.989-9.309-16.388-13.664C-702.123,94.648-693.969,88.408-693.55,71.953z"/>
			
				<linearGradient id="Path-37_1_" gradientUnits="userSpaceOnUse" x1="-1945.3596" y1="383.5584" x2="-1945.3596" y2="384.3877" gradientTransform="matrix(26.5744 0 0 59.0334 51011.582 -22566.0664)">
				<stop  offset="0" style="stop-color:#C6CFE4;stop-opacity:0"/>
				<stop  offset="1" style="stop-color:#94A1C5"/>
			</linearGradient>
			<path id="Path-37" fill="url(#Path-37_1_)" d="M-698.479,66.638c7.141,15.865,11.261,26.607,12.358,32.227
				c2.266,11.584-1.445,19.176-2.817,20.707c-3.943,4.408-9.24,0.885-7.544,3.537c0.822,1.287,2.369,1.998,3.988,2.396
				c1.733,0.344,6.261,0.604,10.659-4.057c4.198-4.445,5.877-8.676,7.433-14.188c3.418-12.117,3.769-18.625-1.744-21.838
				c-0.646-0.375-1.78-0.975-3.407-1.797c-1.963-0.748-4.498-2.582-7.606-5.502C-690.267,75.205-694.042,71.375-698.479,66.638z"/>
			
				<linearGradient id="Path-35_1_" gradientUnits="userSpaceOnUse" x1="-1934.0349" y1="381.6092" x2="-1934.8439" y2="381.475" gradientTransform="matrix(36.2518 0 0 16.4279 69436.8203 -6217.249)">
				<stop  offset="0" style="stop-color:#D8DFF0;stop-opacity:0.0937"/>
				<stop  offset="1" style="stop-color:#AFBCDC"/>
			</linearGradient>
			<path id="Path-35" fill="url(#Path-35_1_)" d="M-701.396,56.433c-0.481-4.248,0.669-7.697,3.449-10.348
				c3.108-2.963,17.936-5.111,26.108,3.889c3.911,4.305,6.106,7.631,6.587,9.973c-2.341-2.885-4.721-4.699-7.138-5.439
				c-5.396-1.654-10.084-2.814-14.335-2.969C-694.404,51.262-699.295,52.892-701.396,56.433z"/>
			<g id="Group-11" transform="translate(140.207335, 343.667527)">
				<path id="Path-3_1_" fill="#E1E5EF" d="M-743.135-198.931c-0.279,4.379-2.665,22.762-2.665,32.979
					c0,7.4,12.831,18.67,3.9,24.289s-16.244,5.123-21.556,5.123c-5.313,0-10.535-4.4-11.511-10.18
					c-0.917-5.434,3.032-10.039,2.319-14.322c-0.484-2.91-7.022-31.783-8.578-39.166c-1.057-5.01,8.516-5.117,17.973-5.117
					C-755.116-205.326-742.88-202.914-743.135-198.931z"/>
				<path id="Path-27" fill="#00C0A5" d="M-781.739-202.599c6.754-3.654,13.584-5.248,20.487-4.783
					c6.905,0.465,13.028,2.18,18.37,5.145l-0.311,3.863c-6.291-3.297-12.312-5.178-18.061-5.643
					c-5.749-0.463-12.317,1.074-19.711,4.615L-781.739-202.599z"/>
			</g>
			<path id="Path-32" fill="#1896A4" d="M-609.224,138.553c0.351,1.357,0.32,2.643-0.09,3.855c1.345,0.57,2.36,1.018,3.052,1.34
				c0.69,0.324,1.794,0.834,3.313,1.529l0.269-3.91c-1.368-0.662-2.424-1.174-3.166-1.537
				C-606.959,139.287-608.811,138.769-609.224,138.553z"/>
			
				<g id="Group-15" transform="translate(277.043491, 128.664925) rotate(38.000000) translate(-277.043491, -128.664925) translate(252.043491, 106.664925)">
				<g id="Group-16" transform="translate(0.404428, 0.215284)">
					<path id="Path-2_2_" fill="#F9F9F9" d="M-720.544,354.586c3.669-5.07,17.129-28.697,17.128-33.365
						c0.001-1.918-2.976-3.698-5.418-0.407c-1.476,1.989-3.411,3.998-5.105,5.843c-2.863,3.117-6.292,7.937-7.738,6.077
						c-1.446-1.861,6.17-7.181,5.059-8.599c-1.111-1.418-1.976-1.793-5.682,1.644c-3.706,3.438-13.094,8.715-16.686,20.26
						c-0.327,1.051,2.437,6.114,7.9,7.902C-727.731,355.039-724.213,359.657-720.544,354.586z"/>
					
						<linearGradient id="Path-2_6_" gradientUnits="userSpaceOnUse" x1="-1519.0131" y1="1322.1501" x2="-1518.5206" y2="1322.5421" gradientTransform="matrix(31.696 -9.0887 8.2204 28.6679 36550.6602 -51368.1914)">
						<stop  offset="0" style="stop-color:#D8DFF0;stop-opacity:0.0937"/>
						<stop  offset="1" style="stop-color:#AFBCDC"/>
					</linearGradient>
					<path id="Path-2_3_" fill="url(#Path-2_6_)" d="M-709.675,339.311c4.718-8.017,6.597-14.563,6.426-17.197
						c-0.128-1.983-1.042-2.745-1.514-2.902c-0.468-0.156-0.468-0.156-1.31,1.028c-0.842,1.185-3.107,11.842-9.721,19.465
						c-6.853,7.898-12.553,14.015-12.553,14.015c2.18,0.803,5.636,1.737,7.823,0.84C-720.304,354.31-712.02,343.298-709.675,339.311
						z"/>
					<path id="Path-17" fill="#00C0A5" d="M-738.933,345.652c2.38,2.258,4.757,3.933,7.13,5.023
						c6.465,2.969,11.438,3.661,11.438,3.661s-0.51,0.8-1.299,2.328c-0.186,0.36-0.428,0.9-0.728,1.619
						c-5.432-1.782-9.132-3.221-11.1-4.318c-1.968-1.097-4.437-2.734-7.407-4.913L-738.933,345.652z"/>
				</g>
			</g>
			<path id="Path-33" fill="#1896A4" d="M-522.552-72.091c1.276-0.255,2.462-0.769,3.558-1.543c0,0,1.429,1.904,4.281,5.712
				c-0.961,0.372-1.666,0.662-2.118,0.87c-0.45,0.208-1.075,0.532-1.877,0.971c-0.846-1.255-1.489-2.228-1.93-2.917
				C-521.079-69.689-521.717-70.72-522.552-72.091z"/>
			
				<g id="Group-4" transform="translate(34.137380, 208.925433) scale(-1, 1) rotate(-55.000000) translate(-34.137380, -208.925433) translate(17.637380, 191.925433)">
				<path id="Path-2_4_" fill="#FFFFFF" d="M641.179,527.771c-1.628-0.771-2.902-1.039-4.433-0.691
					c-1.848,0.42-6.452-2.698-8.65-2.149c-5.116,1.279-5.683,3.202-6.656,6.564c-2.186,7.55,4.208,18.22,5.58,19.758
					c3.288,3.684,12.203-0.264,21.004-2.773C652.15,541.755,647.296,530.669,641.179,527.771z"/>
			</g>
			
				<g id="Group-4_1_" transform="translate(41.426630, 206.863091) scale(-1, 1) rotate(-55.000000) translate(-41.426630, -206.863091) translate(27.426630, 197.363091)">
				
					<linearGradient id="Path-2_7_" gradientUnits="userSpaceOnUse" x1="721.7628" y1="1539.0959" x2="722.6038" y2="1539.396" gradientTransform="matrix(-10.8443 -10.3953 21.7579 -9.2473 -25026.3398 22265.8027)">
					<stop  offset="0" style="stop-color:#D8DFF0;stop-opacity:0.0937"/>
					<stop  offset="1" style="stop-color:#AFBCDC"/>
				</linearGradient>
				<path id="Path-2_5_" fill="url(#Path-2_7_)" d="M641.47,528.702c-1.628-0.771-3.193-2.285-4.724-1.937
					c-1.848,0.42-4.808-2.703-8.663-2.139c-5.198,0.758-5.67,3.194-6.643,6.555c-0.073,0.253-1.138,4.753,0.547,5.225
					c5.657,1.586,20.727-0.423,23.653-2.979C646.879,532.344,642.755,529.311,641.47,528.702z"/>
			</g>
			<g id="Group-25" transform="translate(17.093858, 194.238384)">
				<path id="Path-36" fill="#00C0A5" d="M-781.296-201.405c2.183-3.098,5.849-4.963,10.997-5.595
					c5.147-0.632,9.805,0.135,13.966,2.3l-0.382,3.533c-3.387-2.793-7.915-3.764-13.584-2.911c-5.67,0.852-9.07,2.945-10.2,6.278
					L-781.296-201.405z"/>
				<path id="Path-23" fill="#1896A4" d="M-767.124-207.198c0.331,0.968,0.331,1.916,0,2.841c0,0,3.887,0.089,5.808,0.799
					c1.279,0.474,2.836,1.271,4.666,2.392c0.124-0.724,0.204-1.282,0.238-1.676c0.036-0.394,0.063-1.009,0.079-1.847
					c-1.212-0.952-2.874-1.651-4.983-2.096C-763.427-207.231-765.363-207.368-767.124-207.198z"/>
			</g>
			<path id="Path-10" fill="#1896A4" d="M-672.759-70.622c-12.035,0-21.792,9.807-21.792,21.903
				c0,12.096,9.757,21.903,21.792,21.903s21.791-9.806,21.791-21.903C-650.968-60.815-660.724-70.622-672.759-70.622
				 M-673.459-34.023c-7.13,0-13.243-6.034-13.243-13.477c0-1.748,0.318-3.765,0.897-5.297l5.691,2.53
				c-0.02,0.083-0.043,0.191-0.067,0.314c-0.17,0.579-0.269,1.179-0.296,1.784c-0.012,0.12-0.018,0.24-0.014,0.361
				c0,0.028,0.005,0.055,0.006,0.083c0.025,2.211,1.012,4.292,2.68,5.655c1.669,1.363,3.84,1.863,5.902,1.359l3.233,5.732
				c-1.521,0.634-3.146,0.958-4.786,0.957 M-660.32-41.725l-15.173-6.728l9.729-0.044c-0.348-3.694-3.975-6.693-7.396-6.693
				c-0.774-0.001-1.547,0.134-2.279,0.398l-3.367-5.987c1.771-0.85,3.697-1.288,5.646-1.285c7.49,0,13.892,6.472,13.892,14.312
				c0,2.113-0.262,4.226-1.053,6.027"/>
			<g id="Group" transform="translate(37.971765, 126.146453)">
				<path id="Path-11" fill="#323166" d="M-780.849-199.004c-0.926,3.172-0.441,6.022,1.452,8.551c0,0,0.152,0.188,0.397,0
					c0.572-0.438,2.945-2.547,7.158-5.486c0.11-0.077,0.146-0.201,0.104-0.372c-3.054-3.22-3.429-6.995-1.124-11.327
					c-0.423,0.29-1.711,1.625-3.863,4.003C-777.481-202.799-778.856-201.256-780.849-199.004z"/>
				<g id="Group-12" transform="translate(1.899318, 3.818042)">
					<path id="Path-18-Copy-2" fill="none" stroke="#FFFFFF" stroke-width="0.6" stroke-linecap="round" d="M-780.683-204.992
						c-0.527,0.616-0.791,1.13-0.791,1.544c0,0.413,0.039,0.811,0.116,1.194"/>
					<path id="Path-18-Copy-3" fill="none" stroke="#FFFFFF" stroke-width="0.6" stroke-linecap="round" d="M-779.32-206.361
						c-0.527,0.616-0.791,1.13-0.791,1.544s0.037,0.812,0.115,1.194"/>
					<path id="Path-18-Copy-4" fill="none" stroke="#FFFFFF" stroke-width="0.6" stroke-linecap="round" d="M-777.959-207.731
						c-0.527,0.616-0.791,1.131-0.791,1.544c0,0.413,0.038,0.811,0.115,1.194"/>
				</g>
				<g id="Group-13" transform="translate(1.899318, 7.636085)">
					<path id="Path-18" fill="none" stroke="#FFFFFF" stroke-width="0.5" stroke-linecap="round" d="M-777.87-207.369l-2.813,2.752
						c-0.346,0.293-0.481,0.436-0.407,0.429c1.46-0.133,3.277-0.652,3.945-0.816"/>
					<path id="Path-18_1_" fill="none" stroke="#FFFFFF" stroke-width="0.5" stroke-linecap="round" d="M-777.453-206.087
						l-2.557,2.837c-0.346,0.292-0.48,0.436-0.406,0.429c1.459-0.133,3.164-0.357,3.969-0.429"/>
				</g>
			</g>
			<path id="Oval_25_" fill="#323166" d="M-703.736-75.91c4.121,0,7.462-3.358,7.462-7.5c0-4.143-3.341-7.5-7.462-7.5
				s-7.463,3.357-7.463,7.5C-711.199-79.269-707.857-75.91-703.736-75.91z"/>
			<ellipse id="Oval-Copy-4" fill="#323166" cx="-645.797" cy="-91.022" rx="7.462" ry="7.5"/>
			<g id="Group-5" transform="translate(43.190976, 98.114567)">
				<path id="Path-12" fill="none" stroke="#B2C1DD" stroke-width="15" stroke-linecap="round" d="M-747.851-183.581
					c-13.592-17.226-22.91-25.159-27.955-23.797c-7.566,2.042,3.641,17.714,5.42,19.354"/>
				
					<linearGradient id="Path-14_2_" gradientUnits="userSpaceOnUse" x1="-2050.6367" y1="382.0719" x2="-2050.3167" y2="381.8286" gradientTransform="matrix(18.3243 0 0 19.396 36800.8633 -7604.3003)">
					<stop  offset="0" style="stop-color:#5452D7;stop-opacity:0"/>
					<stop  offset="1" style="stop-color:#7E7DA8"/>
				</linearGradient>
				<path id="Path-14" fill="url(#Path-14_2_)" d="M-772.485-200.847c-8.497-5.397-10.845,0.442-8.27,4.404
					c4.898,7.538,8.271,12.813,8.271,12.813c0.774-0.688,3.796-3.078,9.063-7.17c-0.229,0.354-0.865-0.259-1.909-1.841
					C-766.896-195.015-772.085-200.049-772.485-200.847z"/>
			</g>
			
				<g id="Group-5-Copy" transform="translate(153.605986, 93.385555) scale(-1, 1) rotate(29.000000) translate(-153.605986, -93.385555) translate(127.605986, 77.385555)">
				<path id="Path-12_1_" fill="none" stroke="#B2C1DD" stroke-width="15" stroke-linecap="round" d="M634.17-534.61
					c-22.624-19.507-37.335-27.89-44.13-25.15c-10.194,4.109,4.097,20.851,5.877,22.49"/>
				
					<linearGradient id="Path-14_3_" gradientUnits="userSpaceOnUse" x1="1209.738" y1="82.093" x2="1210.0726" y2="81.8048" gradientTransform="matrix(9.4999 16.9594 -15.2031 10.5974 -9651.4951 -21930.4043)">
					<stop  offset="0" style="stop-color:#5452D7;stop-opacity:0"/>
					<stop  offset="1" style="stop-color:#7E7D9D"/>
				</linearGradient>
				<path id="Path-14_1_" fill="url(#Path-14_3_)" d="M593.502-553.382c-8.538-0.994-11.662,1.148-9.377,6.426
					c3.429,7.917,9.809,13.335,9.809,13.335c0.502-0.444,2.307-2.734,3.533-4.136c0.446-0.509,1.733-1.825,3.861-3.946
					c-0.983-0.976-1.687-1.72-2.113-2.229c-1.231-1.477-2.836-3.752-3.072-4.182C594.781-550.584,593.9-552.34,593.502-553.382z"/>
				<path id="Path-15" fill="#E1E5EF" d="M601.552-542.402c-2.71,2.588-4.532,4.404-5.467,5.444
					c-2.833,3.156-4.063,5.191-4.292,5.622c-0.718,1.35,1.139,1.976,5.571,1.88c2.14-0.795,3.674-1.648,4.606-2.561
					c0.932-0.913,2.109-2.714,3.529-5.404L601.552-542.402z"/>
			</g>
			<path id="Path-13" fill="#E1E5EF" d="M-732.017-84.448c2.616-2.927,4.459-4.876,5.529-5.847c3.043-2.761,4.82-3.8,5.185-3.866
				c0,0,0.948,1.105,2.844,3.316c-3.521,6.542-5.45,9.908-5.788,10.095c-0.338,0.188-1.859-0.241-4.566-1.286L-732.017-84.448z"/>
			<ellipse id="Oval-Copy-6" fill="#D1D5E3" cx="-686.341" cy="-83.554" rx="1.362" ry="1.369"/>
			<ellipse id="Oval-Copy-7" fill="#D1D5E3" cx="-675.108" cy="-81.645" rx="1.361" ry="1.369"/>
			<ellipse id="Oval-Copy-8" fill="#D1D5E3" cx="-663.433" cy="-85.463" rx="1.361" ry="1.369"/>
			<path id="Path-20" fill="#FFFFFF" d="M-608.924-16.579c-3,19.547,0.221,46.159,1.78,55.557c1.04,6.264-8.17,2.852-27.63-10.238
				l7.02-35.173C-615.202-13.196-608.924-16.579-608.924-16.579z"/>
			
				<ellipse id="Oval_26_" transform="matrix(-0.9848 0.1737 -0.1737 -0.9848 -1236.9192 285.7696)" fill="#B3BED7" cx="-630.964" cy="88.759" rx="11.002" ry="15.002"/>
			<path id="Oval-Copy" fill="#B3BED7" d="M-736.551,73.303c3.995-1.461,1.825-7.611-2.108-13.045
				c-3.934-5.436-7.41-6.609-11.839-3.975c-2.504,1.492-2.504,2.391-1.948,4.479c0.613,2.307,2.273,5.236,5.132,7.992
				C-741.874,73.996-740.547,74.764-736.551,73.303z"/>
			
				<linearGradient id="Path-30_1_" gradientUnits="userSpaceOnUse" x1="-1941.5441" y1="384.0859" x2="-1941.5292" y2="385.1214" gradientTransform="matrix(29.2644 0 0 240.328 56202.4258 -92397.5781)">
				<stop  offset="0" style="stop-color:#D8DFF0;stop-opacity:0.0937"/>
				<stop  offset="1" style="stop-color:#AFBCDC"/>
			</linearGradient>
			<path id="Path-30" fill="url(#Path-30_1_)" d="M-626.106-98.898c4.729,16.146,6.452,35.598,5.17,58.357
				c-1.923,34.138-10.08,32.618-9.057,47.15c2.479,5.588,10.7,18.865,15.104,40.229c4.404,21.363,7.248,19.992,5.63,91.746
				c0,0-0.302-0.234,2.992,1.104c0.706,0.285,1.909,0.867,3.61,1.742c1.545-23.938,2.115-42.629,1.716-56.076
				c-0.602-20.172-3.664-33.393-6.7-50.613c-0.924-5.238-2.477-22.514-2.507-30.262c-0.028-7.188,0.091-13.06,0.889-19.1
				c0.676-5.122,1.8-10.376,2.681-16.661c0.67-4.78,1.141-10.152,1.515-16.537c0.364-4.701,0.532-11.29-0.501-17.103
				c-0.313-1.756-1.445-8.303-5.414-16.024C-613.625-86.094-618.668-92.078-626.106-98.898z"/>
			<path id="Path-22" fill="#00C0A5" d="M-718.392-3.15c15.357,4.75,29.559,7.212,42.603,7.391
				c13.043,0.177,34.953-3.437,65.73-10.839c-0.047,3.155-0.07,4.75-0.07,4.784c0,0.611,0,1.959,0,4.045
				c-30.396,7.092-52.282,10.438-65.66,10.037c-13.379-0.398-28.19-3.029-44.438-7.889c0.415-1.363,0.74-2.563,0.976-3.594
				C-719.018-0.249-718.732-1.561-718.392-3.15z"/>
			<path id="Path-31" fill="#1896A4" d="M-629.317-2.231c0.383,0.887,0.464,2.408,0.243,4.566c-0.221,2.157-0.553,3.568-0.996,4.232
				l20.088-4.232v-8.991L-629.317-2.231z"/>
			
				<linearGradient id="Path-19_1_" gradientUnits="userSpaceOnUse" x1="-1938.1989" y1="383.9697" x2="-1938.0707" y2="384.0107" gradientTransform="matrix(32.165 0 0 65.0027 61725.3906 -24784.1484)">
				<stop  offset="0" style="stop-color:#C6CFE4;stop-opacity:0"/>
				<stop  offset="1" style="stop-color:#94A1C5"/>
			</linearGradient>
			<path id="Path-19" fill="url(#Path-19_1_)" d="M-609.312,142.385c-0.685,20.447-1.186,31.883-1.502,34.303
				c-0.477,3.633,7.896,11.811,6.717,17.82c-1.396,7.117-4.947,9.141-14.948,10.551c-2.293,0.322-6.145,0.047-11.555-0.83
				c1.731,2.105,4.953,3.16,9.664,3.16c2.705,0,5.631-0.271,7.789-0.719c3.483-0.725,14.712-2.533,14.712-9.736
				c0-7.205-6.607-14.168-7.059-17.826c-0.231-1.891,0.494-8.99,1.616-21.523c0.217-2.426,0.525-6.531,0.924-12.32
				c-1.438-0.672-2.52-1.172-3.239-1.498C-606.914,143.439-607.953,142.979-609.312,142.385z"/>
			<path id="Path-5" fill="#00C0A5" d="M-720.379,90.523c7.164,1.52,13.139,0.609,17.924-2.729s7.349-9.041,7.688-17.113
				l1.265,1.322c0,8.367-2.461,14.285-7.384,17.754c-4.924,3.469-10.833,4.217-17.729,2.242L-720.379,90.523z"/>
			<path id="Path-24" fill="#1896A4" d="M-693.804,76.848c-0.104-0.641-0.244-1.139-0.425-1.498
				c-0.182-0.359-0.468-0.689-0.861-0.99c0.09-0.795,0.153-1.402,0.191-1.82c0.038-0.42,0.086-1.051,0.145-1.896l1.247,1.34
				c0.015,0.604-0.001,1.352-0.047,2.242C-693.6,75.117-693.683,75.99-693.804,76.848z"/>
			<path id="Path-26" opacity="0.3" fill="#FFFFFF" enable-background="new    " d="M-725.62-156.802
				c-2.376,1.928-4.114,4.694-5.219,8.298c-1.104,3.604-1.104,7.242,0,10.914c-2.339-3.887-2.924-7.593-1.754-11.118
				C-731.423-152.233-729.099-154.932-725.62-156.802z"/>
		</g>
	</g>
</g>
<g id="Group-38" transform="translate(1116.000000, 561.500000) rotate(10.000000) translate(-1116.000000, -561.500000) translate(1018.000000, 493.000000)">
	<g id="Group-18" transform="translate(0.000000, 0.000000)">
		
			<g id="Group-8" transform="translate(93.000000, 83.000000) scale(-1, 1) translate(-93.000000, -83.000000) translate(23.000000, 29.000000)">
			<path id="Path-53" fill="#18286C" d="M899.079-20.531c24.657,4.211,39.968,7.682,45.931,10.417
				c0.629,0.111-2.664,2.436-3.877,2.968c-1.214,0.536-14.853-4.081-25.546,0.535C908.458-3.535,902.956-8.174,899.079-20.531z"/>
			<path id="Path-38" fill="#B7464C" d="M941.133-31.56l2.822,3.786c-1.335,0.596-3.309,0.16-5.921-1.3
				c-2.613-1.46-5.306-2.768-8.079-3.919l7-2.344L941.133-31.56z"/>
			<path id="Path-52" fill="#18286C" d="M868.218,0.038c-9.744,8.037-16.679,13.189-20.803,15.452
				c-6.571,3.607-13.331,6.796-16.46,12.987c0,0-3.009,0.001-5.484,0.001c-1.65-0.001,5.178-7.343,20.484-22.03l11.338-6.753
				L868.218,0.038z"/>
			<path id="Path-54" fill="#22306B" d="M922.955-65.823c-6.016,3.598-9.459,6.614-10.331,9.051
				c-0.871,2.434,1.878,3.024,8.251,1.768c-0.241-2.25-0.241-4.001,0-5.258C921.116-61.516,921.809-63.371,922.955-65.823z"/>
			<path id="Path-51" fill="#5577FF" d="M806.706,26.253c3.09,0.394,4.966,0.592,5.627,0.592c0.53,0,21.02-4.921,34.987-13.166
				c13.968-8.247,27.281-10.28,36.755-11.971c7.693-1.374,19.622-3.045,35.214-2.309c5.147,0.243,12.857,1.012,23.125,2.306
				c1.693,0.009,2.873-0.547,3.54-1.669c-14.448-7.24-31.325-7.239-29.495-18.312c1.403-8.491,7.133-13.055,9.153-13.056
				c3.64,0.001,9.602,2.699,13.781-2.058c4.175-4.755,4.361-6.714,4.36-10.322c0-0.25-1.204-0.383-3.006-0.788
				c-2.927-0.657-7.254-1.785-9.241-3.494c-3.211-2.762-6.05-9.827-15.05-9.825c0,0-0.632-6.987,1.792-10.249
				c0,0-8.639,1.069-13.561,12.075c-4.919,11.008-7.972,24.769-29.734,29.526c-21.763,4.756-39.446,2.921-44.844-15.769
				c0,0-2.101,15.115,13.965,25.03c0,0-4.488,3.495-10.722,21.238C830.968,10.819,822.085,18.225,806.706,26.253z"/>
			<path id="Path-55" fill="#22306B" d="M938.034-45.624c0.358,4.547,1.604,7.569,3.735,9.07c0.093,0.06,1.061-1.362,1.713-3.089
				c0.681-1.806,0.906-4.011,0.644-4.589c-0.515-1.128-1.235-0.358-2.745-0.617C940.371-45.022,939.256-45.282,938.034-45.624z"/>
			
				<ellipse id="Oval_27_" transform="matrix(0.9848 -0.1737 0.1737 0.9848 20.9418 161.4707)" fill="#1C295C" cx="933.267" cy="-38.946" rx="0" ry="-1"/>
			
				<ellipse id="Oval-Copy-3" transform="matrix(0.9848 -0.1737 0.1737 0.9848 20.5668 161.0028)" fill="#1C295C" cx="930.406" cy="-37.037" rx="0" ry="-1"/>
			
				<ellipse id="Oval-Copy-4_1_" transform="matrix(0.9848 -0.1737 0.1737 0.9848 20.5347 161.5895)" fill="#1C295C" cx="933.743" cy="-36.56" rx="0" ry="-1"/>
			<path id="Path-56" fill="#2841A6" d="M916.593-58.04c-1.933,1.228-2.439,4.098-1.518,8.609c1.383,6.769,7.672,8.94,12.672,5.751
				c5.001-3.19,1.858-1.979,5.04-3.397c-1.073-0.937-2.629-2.588-5.042-5.274c-0.515-0.573-1.417-1.509-2.71-2.81
				c-1.763-1.064-3.162-1.771-4.2-2.127C919.798-57.641,918.382-57.893,916.593-58.04z"/>
			
				<ellipse id="Oval_28_" transform="matrix(0.9848 -0.1737 0.1737 0.9848 22.6767 159.6331)" fill="#0C1740" cx="923.633" cy="-49.78" rx="0" ry="-2.625"/>
		</g>
		
			<g id="Group-9_1_" transform="translate(39.500000, 39.500000) scale(-1, 1) translate(-39.500000, -39.500000) translate(0.000000, 0.000000)">
			
				<ellipse id="Oval_29_" transform="matrix(0.9848 0.1736 -0.1736 0.9848 7.6947 -147.244)" opacity="0.4511" fill="#22306B" enable-background="new    " cx="845.363" cy="-29.646" rx="0" ry="-38.915"/>
			<path id="Path" opacity="0.45" fill="#02BAD3" enable-background="new    " d="M809.23-44.133
				c2.298-4.803,4.272-8.197,5.924-10.185c10.995-13.221,38.179-22.529,57.769-3.147c9.524,9.422,18.473,26.025,4.463,49.992
				c-1.61,2.79,1.099-10.327,0.239-22.172c-0.422-5.8-2.958-11.618-4.836-14.488c-2.624-4.007-9.407-13.003-18.428-15.563
				c-10.62-3.013-23.664,0.825-26.769,1.981C823.762-56.29,817.641-51.761,809.23-44.133z"/>
		</g>
	</g>
	<g id="Group-23_1_" transform="translate(69.000000, 47.105927)">
		<path id="Path-60" fill="#18286C" d="M-801.23-49.428c1.872,1.205,7.507,1.806,16.901,1.807
			c14.091-0.002,18.214-6.307,28.482-6.307c6.845-0.001,22.365,4.698,46.556,14.091c5.657-10.198,14.057-14.096,25.202-11.695
			c11.146,2.402-0.055-0.101-33.599-7.514l-41.317-3.295l-29.347,4.249l-12.879,6.561L-801.23-49.428L-801.23-49.428z"/>
		<path id="Path-59" fill="#1896A4" d="M-802.954-52.859c21.13-12.871,37.22-17.669,48.27-14.396
			c16.575,4.913,30.431,3.121,39.98,0.001c9.549-3.118,7.892-1.648,13.726,4.914c5.833,6.557,29.41,10.014,12.33,11.409
			c-17.082,1.4-62.357-12.413-75.97-6.207c-9.074,4.14-21.278,6.207-36.609,6.207L-802.954-52.859z"/>
		<circle id="Oval_30_" fill="#18286C" cx="-802.955" cy="-50.93" r="3"/>
		<path id="Path-61" opacity="0.5" fill="#0C4180" enable-background="new    " d="M-800.503-52.912
			c7.401-3.566,11.52-5.417,12.356-5.552c0.836-0.138,1.101,0.353,0.794,1.466L-800.503-52.912z"/>
		<path id="Path-61-Copy" opacity="0.5" fill="#0C4180" enable-background="new    " d="M-800.337-52.549
			c6.566-1.328,10.273-1.984,11.122-1.973c0.848,0.011,0.432,0.441-1.246,1.295L-800.337-52.549z"/>
	</g>
</g>
<g id="Group-27" transform="translate(1003.000000, 222.000000)">
	<g id="Group-Copy">
		<path id="Combined-Shape_1_" fill="#18BBD0" d="M-731.989-150.636l-18.334-29.333l18.334,7.168v-0.567l18.333-7.268
			L-731.989-150.636z"/>
		<ellipse id="Oval_31_" fill="none" stroke="#27D6ED" stroke-width="0.5" cx="-731.989" cy="-176.636" rx="45.666" ry="9.333"/>
		<ellipse id="Oval_32_" fill="none" stroke="#27D6ED" stroke-width="0.5" cx="-731.656" cy="-177.303" rx="34" ry="6"/>
		<path id="Combined-Shape_2_" fill="#27D6ED" d="M-731.656-210.636l18,30.063l-18.333,7.771l-18.334-7.168L-731.656-210.636z"/>
		<circle id="Oval_33_" fill="#27D6ED" cx="-769.323" cy="-171.303" r="2.333"/>
		<circle id="Oval_34_" fill="#27D6ED" cx="-705.656" cy="-173.303" r="2"/>
	</g>
</g>
</svg>
