<?xml version="1.0" encoding="utf-8"?>
<!-- Generator: Adobe Illustrator 16.0.0, SVG Export Plug-In . SVG Version: 6.00 Build 0)  -->
<!DOCTYPE svg PUBLIC "-//W3C//DTD SVG 1.1//EN" "http://www.w3.org/Graphics/SVG/1.1/DTD/svg11.dtd">
<svg version="1.1" id="Layer_1" xmlns="http://www.w3.org/2000/svg" xmlns:xlink="http://www.w3.org/1999/xlink" x="0px" y="0px"
	 width="1920.001px" height="895.977px" viewBox="-282 0 1920.001 895.977" enable-background="new -282 0 1920.001 895.977"
	 xml:space="preserve">
<title>Rectangle</title>
<desc>Created with Sketch.</desc>
<path id="Path-62" fill="#2163AF" d="M1081,534.062c-33.621-22.426-52.418-30.078-56.391-22.955c-5.96,10.686-3.815,7.627-23.413,0
	c-19.597-7.625-64.703-29.973-70.237-14.986c-5.534,14.988-0.15,29.596-26.042,26.186c-17.261-2.275-32.565,1.645-45.917,11.756
	H1081z"/>
<g id="planet-2" transform="translate(837.080803, 670.130800) rotate(-89.000000) translate(-837.080803, -670.130800) translate(786.580803, 632.723393)">
	<circle id="Oval-3-Copy-9" fill="#0C4180" cx="144.757" cy="-327.397" r="29.319"/>
	<circle id="Oval-3-Copy-9_1_" fill="#0B386E" cx="139.614" cy="-332.364" r="4.044"/>
	<circle id="Oval-3-Copy-9_2_" fill="#0B386E" cx="145.109" cy="-307.18" r="2.022"/>
	<g id="Group-23" transform="translate(0.737580, 0.812284)">
		
			<linearGradient id="Oval-3-Copy-9_5_" gradientUnits="userSpaceOnUse" x1="-505.6176" y1="-618.3297" x2="-505.6176" y2="-616.6455" gradientTransform="matrix(90.3979 -44.0888 -10.2087 -20.9314 39539.5273 -35562.6602)">
			<stop  offset="0" style="stop-color:#0C4180"/>
			<stop  offset="1" style="stop-color:#18286C"/>
		</linearGradient>
		
			<ellipse id="Oval-3-Copy-9_3_" transform="matrix(-0.848 -0.5299 0.5299 -0.848 440.3873 -529.2146)" fill="none" stroke="url(#Oval-3-Copy-9_5_)" cx="144.318" cy="-327.747" rx="50.289" ry="11.644"/>
		
			<ellipse id="Oval-3-Copy-9_4_" transform="matrix(-1 2.941291e-005 -2.941291e-005 -1 312.7697 -662.4921)" fill="#0B386E" cx="156.39" cy="-331.244" rx="5.604" ry="5.661"/>
	</g>
</g>
<path id="Path-62-Copy-3" opacity="0.6" fill="#2163AF" enable-background="new    " d="M356,625
	c-31.35-25.033-48.876-33.574-52.581-25.623c-5.557,11.926-3.558,8.512-21.831,0c-18.273-8.514-60.332-33.459-65.492-16.73
	c-5.16,16.73-0.14,33.035-24.282,29.229C175.72,609.337,161.448,613.712,149,625H356z"/>
<g id="Group-35" transform="translate(-911.000000, 542.000000)">
	<g id="Group-40-Copy" transform="translate(1848.000000, 104.000000)" opacity="0.56">
		<path id="Rectangle-Copy-2" fill="#1C3087" d="M154.129,8.433c-6.269-6.393-10.35-2.539-12.244,11.564
			c-1.894,14.104-1.895,40.635,0,79.592h12.244V8.433z"/>
		<path id="Rectangle-Copy-2_1_" fill="#18286C" d="M154.069,8.433c6.269-6.393,10.35-2.539,12.243,11.564
			c1.895,14.104,1.896,40.635,0,79.592h-12.243V8.433z"/>
		<g id="Group-56" transform="translate(0.000000, 12.000000)">
			<g id="Mask">
				<ellipse id="path-3_1_" fill="#000D4B" cx="86.5" cy="42" rx="86.5" ry="42"/>
			</g>
			<defs>
				<filter id="Adobe_OpacityMaskFilter" filterUnits="userSpaceOnUse" x="3" y="5" width="175" height="22">
					<feColorMatrix  type="matrix" values="1 0 0 0 0  0 1 0 0 0  0 0 1 0 0  0 0 0 1 0"/>
				</filter>
			</defs>
			<mask maskUnits="userSpaceOnUse" x="3" y="5" width="175" height="22" id="mask-4">
				<g filter="url(#Adobe_OpacityMaskFilter)">
					<ellipse id="path-3" fill="#FFFFFF" cx="86.5" cy="42" rx="86.5" ry="42"/>
				</g>
			</mask>
			<g mask="url(#mask-4)">
				<g transform="translate(3.000000, 5.000000)">
					<ellipse id="Oval" fill="#0C4180" cx="72" cy="2" rx="12" ry="2"/>
					<ellipse id="Oval_1_" fill="#0C4180" cx="102" cy="2" rx="12" ry="2"/>
					<ellipse id="Oval_2_" fill="#0C4180" cx="133" cy="2" rx="12" ry="2"/>
					<ellipse id="Oval_3_" fill="#0C4180" cx="42" cy="2" rx="12" ry="2"/>
					<g id="Group-55" transform="translate(0.000000, 18.000000)">
						<ellipse id="Oval_4_" fill="#0C4180" cx="72" cy="2" rx="12" ry="2"/>
						<ellipse id="Oval_5_" fill="#0C4180" cx="103" cy="2" rx="12" ry="2"/>
						<ellipse id="Oval_6_" fill="#0C4180" cx="132" cy="2" rx="12" ry="2"/>
						<ellipse id="Oval_7_" fill="#0C4180" cx="163" cy="2" rx="12" ry="2"/>
						<ellipse id="Oval_8_" fill="#0C4180" cx="12" cy="2" rx="12" ry="2"/>
						<ellipse id="Oval_9_" fill="#0C4180" cx="43" cy="2" rx="12" ry="2"/>
					</g>
					<ellipse id="Oval_10_" fill="#0C4180" cx="117" cy="11" rx="7" ry="2"/>
					<ellipse id="Oval_11_" fill="#0C4180" cx="144" cy="11" rx="7" ry="2"/>
					<ellipse id="Oval_12_" fill="#0C4180" cx="64" cy="11" rx="7" ry="2"/>
					<ellipse id="Oval_13_" fill="#0C4180" cx="91" cy="11" rx="7" ry="2"/>
					<ellipse id="Oval_14_" fill="#0C4180" cx="14" cy="11" rx="7" ry="2"/>
					<ellipse id="Oval_15_" fill="#0C4180" cx="41" cy="11" rx="7" ry="2"/>
				</g>
			</g>
		</g>
		<path id="Oval_16_" fill="#18286C" d="M177.938,9.41c0-5.047-10.507-9.141-23.469-9.141S131,4.363,131,9.41
			C131,14.458,177.938,14.458,177.938,9.41z"/>
	</g>
	<path id="Path-29" fill="#0C4180" d="M2728,97.771C2623.896,52,2534.671,40.556,2460.327,63.443
		c-111.518,34.328-210.406,60.705-295.835,47.518c-85.43-13.188-92.694,31.063-148.803,38.525c-56.107,7.463-90.043-7.463-140.839,0
		s-148.461,111.705-387.815,139.092c-239.356,27.385-513.022-19.826-627.857-22.883c-114.835-3.059-161.407,23.736-231.718,0
		c-70.311-23.738-70.311-40.182-107.797-45.639c-37.486-5.459-118.51,5.457-181.858,0c-63.349-5.459-151.039-36.908-151.039-36.908
		s-36.964-10.973-79.087,0c-42.123,10.971-47.567,12.256-71.625,12.256c-16.038,0-28.056-1.947-36.054-5.84V752h2728"/>
	<path id="Path-29_1_" fill="#18286C" d="M2734,108.58c-104.396-49.248-193.768-62.43-268.111-39.545
		c-48.204,14.84-93.914,26.729-137.265,39.545c-20.772,6.141-33.372,10.861-53.056,13.188c-18.475,2.186-44.644,3.346-62.178,0
		c-14.99-2.857-73.252-10.926-83.836-4.197c-6.716,4.27-26.975,16.068-32.658,17.406c-16.273,3.834-15.523,2.035-27.647,4.422
		c-14.979,2.945-22.667,17.953-44.774,20.895c-15.376,2.045-31.478-2.074-45.414,0c-11.39,1.695-34.451,5.693-44.237,4.859
		c-21.941-1.873-28.886-12.563-54.387-8.814c-12.742,1.871-21.642,21.162-41.778,32.475c-12.262,6.889-33.484,3.297-49.803,11.561
		c-17.078,8.646-46.924,31.203-68.219,41.453c-58.157,27.992-123.109,45.604-227.602,57.561
		c-239.355,27.387-513.021-19.826-627.857-22.883c-114.835-3.059-161.407,23.736-231.718,0
		c-70.311-23.738-70.311-40.182-107.797-45.639c-37.486-5.457-118.51,5.457-181.858,0c-63.349-5.457-151.039-36.908-151.039-36.908
		s-36.964-10.971-79.087,0c-42.123,10.971-47.567,12.256-71.625,12.256c-16.038,0-28.056-1.947-36.054-5.84v562.436h2728"/>
	<g id="Group-40" transform="translate(1154.000000, 58.602405)">
		<path id="Rectangle-Copy-2_2_" fill="#1C3087" d="M31,11.339c-8.257-8.422-13.633-3.344-16.128,15.23
			c-2.496,18.574-2.496,53.518,0,104.828H31V11.339z"/>
		<path id="Rectangle-Copy-2_3_" fill="#18286C" d="M30,11.339c8.257-8.422,13.633-3.344,16.128,15.23
			c2.496,18.574,2.496,53.518,0,104.828H30V11.339z"/>
		<path id="Oval_17_" fill="#18286C" d="M62,12.419C62,5.78,48.121,0.397,31,0.397S0,5.78,0,12.419S62,19.057,62,12.419z"/>
	</g>
	<path id="Path-29_2_" fill="#1C3087" d="M629,48.832C702.271,0,765.067-12.208,817.392,12.208
		c78.486,36.623,148.086,64.766,208.212,50.695c60.126-14.072,65.24,33.139,104.729,41.1c39.489,7.963,63.374-7.961,99.125,0
		c35.75,7.963,104.488,119.176,272.949,148.395c168.462,29.217,381.016-11.646,461.838-14.906
		c53.882-2.176,248.8,167.598,584.756,509.316H629"/>
	<path id="Path-29_3_" fill="#000D4B" d="M629,61.832C702.271,13,765.067,0.792,817.392,25.208
		C876.021,52.566,926.523,91.47,974.99,95.302c16.416,1.299,35.402-15.84,50.614-19.398c60.126-14.07,69.932,37.189,106.112,37.189
		c36.181,0,41.978,12.375,65.18,11.439c8.219-0.33,22.435-13.523,31.786-11.439c13.037,2.902,22.91,25.287,47.957,46.668
		c27.795,23.729,49.513,52.785,102.959,75.389c30.463,12.881,86.438,17.221,125.295,23.959
		c34.137,5.922,91.119,19.809,126.107,20.248c38.25,0.479,64.143-17.318,109.018-13.096c88.692,8.35,157.742-23.398,204.282-25.277
		c80.822-3.262,212.571-42.867,238.955-48.689s83.408,5.822,127.994,0c44.585-5.822,106.303-27.377,106.303-27.377
		s26.018-11.705,55.663,0c29.646,11.705,33.479,1.076,50.41,1.076c11.287,0,19.746-2.076,25.375-6.23v600.045H629"/>
</g>
<path id="Path-62-Copy-3_1_" fill="#2163AF" d="M308.358,559.202c26.806-19.818,41.793-26.58,44.96-20.285
	c4.752,9.441,3.042,6.74,18.667,0c15.625-6.738,51.588-26.488,56-13.244s0.12,26.152,20.764,23.141
	c13.763-2.01,25.966,1.453,36.609,10.391h-177V559.202z"/>
<path id="Path-2" fill="#2163AF" d="M0,0"/>
<path id="Path-21" fill="#2163AF" d="M0,0"/>
<g id="Group-39" transform="translate(767.000000, 182.000000)">
	<g id="sapceman">
		<g id="Group-9">
			<path id="Path-2_1_" fill="#E1E5EF" d="M-160.603,218.24c-8.086,1.855-19.94,11.842-35.567,29.955
				c-8.622,9.995-31.837,13.514-19.396,67.814c0.295,1.283,1.456,2.396,3.484,3.34c9.566-2.25,15.329-3.377,17.288-3.377
				c6.963,0-0.239-20.271,7.1-27.922c7.34-7.65,25.354-21.025,33.893-9.063s90.487,10.618,94.29-6.341
				c3.802-16.959,30.291,4.105,47.07,0c21.635-5.295,39.925-17.924,41.645-19.281c6.554-5.17-5.686-19.945-5.686-19.945
				s-24.001,10.662-38.646,6.545c-17.495-4.916-28.357-24.695-44.384-31.761c-5.125-2.259-10.7-4.188-17.021-5.522
				C-93.924,199.011-121.946,204.196-160.603,218.24z"/>
			
				<linearGradient id="Path-8_1_" gradientUnits="userSpaceOnUse" x1="-858.8223" y1="19.3823" x2="-858.7402" y2="19.5435" gradientTransform="matrix(98.5338 17.3742 -8.0658 45.7437 84764.6172 14289.416)">
				<stop  offset="0" style="stop-color:#DCE1F1;stop-opacity:0"/>
				<stop  offset="1" style="stop-color:#6075A8"/>
			</linearGradient>
			<path id="Path-8" fill="url(#Path-8_1_)" d="M-62.391,245.242c19.938,9.62,36.256,14.426,48.949,14.418
				c19.042-0.011,45.58-12.939,45.986-15.261c0,0,1.353,2.024,6.81,0c-3.396,3.188-7.687,6.087-10.312,8.966
				c-1.494,1.639-19.244,11.4-23.396,13.08c-11.048,4.466-19.089,7.627-26.176,6.559c-0.922-0.14-1.897-0.213-2.847-0.406
				c-2.208-0.453-4.198-0.797-5.687-1.241c-11.603-3.472-20.9-6.771-25.823-4.771c-1.823,0.741-4.268,3.098-7.331,7.071
				L-62.391,245.242z"/>
			
				<linearGradient id="Path-16_1_" gradientUnits="userSpaceOnUse" x1="-873.3257" y1="15.0537" x2="-872.8445" y2="15.6428" gradientTransform="matrix(43.2943 0 0 49.6764 37617.2422 -474.0591)">
				<stop  offset="0" style="stop-color:#DCE1F1;stop-opacity:0"/>
				<stop  offset="1" style="stop-color:#6075A8"/>
			</linearGradient>
			<path id="Path-16" fill="url(#Path-16_1_)" d="M-162.681,265.759c-23.83,2.08-36.621,7.974-38.374,17.684
				c-1.752,9.709-1.908,19.303-0.469,28.781c4.736-0.119,7.537,0.842,8.402,2.883c0.571,1.348,1.817-1.581,1.695-6.424
				c-0.061-2.348-0.022-4.217,0.029-6.104c0.153-5.421,0.701-9.438,1.646-11.331c0.562-1.174,1.169-2.33,2.334-3.508
				c5.942-6.006,16.76-13.371,21.417-12.605C-158.176,275.032-157.069,271.907-162.681,265.759z"/>
			<path id="Combined-Shape" fill="#FFFFFF" d="M-170.321,323.78l-1.975-0.065c3.057-10.627,4.578-22.791,4.563-36.488
				c-0.005-4.373-0.404-9.467-1.203-15.281c-3.701-26.992,14.058-52.266,40.706-57.93l8.323-1.77
				c28.107-5.975,55.737,11.969,61.711,40.076c0.768,3.605,1.148,7.284,1.139,10.971c-0.016,4.854-0.146,9.102-0.394,12.742
				c-0.974,14.354-3.795,30.516-8.465,48.482c8.602,39.828,13.695,65.242,12.932,96.248c-1.151,46.814-4.712,67.799-5.375,78.957
				c-0.664,11.156,4.537,10.449,3.251,17.73c-1.285,7.281-13.63,6.107-18.698,6.107c-5.069,0-11.01-1.023-12.689-6.107
				c-1.68-5.082,3.687-4.93,2.165-14.199c-1.521-9.273-10.365-47.15-19.169-84.939c-5.116-21.959-10.961-34.723-14.373-39.377
				c-7.37-10.055-45.938-12.971-33.678,5.816c1.511,2.314,8.719,10.279,15.73,15.98c4.08,3.316,10.424,4.146,11.288,8.688
				c1.727,9.078-3.289,25.477-9.32,31.402c-6.033,5.926-13.706,5.576-15.707,0.178c-1.733-4.682,1.19-10.584-4.951-15.883
				c-6.626-5.719-26.231-22.031-35.276-28.459s-17.063-11.553-17.063-28.098s29.969-39.305,34.521-44.782H-170.321z"/>
			<g id="head" transform="translate(28.029480, 0.404471)">
				
					<g id="Group-3" transform="translate(65.344257, 72.586060) rotate(-12.000000) translate(-65.344257, -72.586060) translate(8.844257, 26.586060)">
					<path id="Path-4" fill="#A8AEC0" d="M-223.429,134.428c-1.739,1.741-2.119,3.411-1.137,5.008
						c0.651,1.061,3.113,3.024,4.603,3.91c3.128,1.861,7.973,4.103,13.92,5.786c14.815,4.19,36.362,5.403,54.454-7.76
						c1.666-1.371,2.087-3.633,1.261-6.783l-34.478,9.123L-223.429,134.428z"/>
					<path id="Rectangle-2" fill="#D1D5E3" d="M-224.782,136.187c5.675,4.858,11.612,8.053,17.804,9.581
						c9.291,2.29,20.231,2.823,26.868,2.29c12.848-1.033,22.873-4.975,30.076-11.83c0.103,0.629,0.136,1.04,0.101,1.229
						c-0.052,0.285-10.197,10.232-30.166,11.893c-5.369,0.447-16.131,0.232-27.083-2.468c-9.895-2.44-18.131-9.458-17.912-10.029
						C-224.946,136.472-224.843,136.25-224.782,136.187z"/>
					<path id="Path-9" fill="none" stroke="#1872A4" stroke-width="5" stroke-linecap="round" d="M-228.287,131.605
						c-13.235-5.958-20.773-13.792-22.613-23.503c-2.764-14.568,8.342-19.023,11.122-19.023"/>
					<path id="Oval_18_" fill="#FFFFFF" d="M-188.146,145.786c26.554,0,48.525-9.715,48.527-36.408
						c0-26.695-21.779-48.226-48.332-48.226c-26.553,0-47.825,21.531-47.827,48.225C-235.777,136.071-214.7,145.786-188.146,145.786
						z"/>
				</g>
				
					<g id="Group-14" transform="translate(25.553283, 50.362245) rotate(10.000000) translate(-25.553283, -50.362245) translate(17.553283, 22.862245)">
					<path id="Oval_19_" fill="#1896A4" d="M-198.362,205.537c4.042,0.142,0.253-7.256,0.503-14.469
						c0.25-7.212,4.517-13.493,0.473-13.635c-4.042-0.141-10.018,6.81-10.269,14.023
						C-207.904,198.669-202.404,205.396-198.362,205.537z"/>
					<path id="Oval-Copy-2" fill="#00C0A5" d="M-199.384,199.202c2.552-0.714,1.091-4.349,1.837-10.811
						c0.747-6.463,3.94-11.17,0.37-11.547c-3.572-0.377-8.188,5.286-8.763,10.795C-206.516,193.148-201.936,199.915-199.384,199.202
						z"/>
				</g>
				<g id="Group-21" transform="translate(25.484514, 24.335493)">
					
						<g id="Group-3_1_" transform="translate(46.904832, 46.137872) rotate(-12.000000) translate(-46.904832, -46.137872) translate(7.404832, 8.137872)">
						<path id="Oval_20_" fill="#D1D5E3" d="M-212.549,136.603c20.8,0,39.213-10.8,39.211-35.373
							c0.001-24.574-18.949-40.189-39.748-40.188c-20.8,0-38.925,15.836-38.925,40.411
							C-252.012,126.026-233.35,136.602-212.549,136.603z"/>
						<path id="Oval_21_" fill="#161440" d="M-212.368,134.865c20.8-0.001,39.213-10.909,39.213-35.733
							c0-24.823-20.478-36.315-41.278-36.315c-20.8,0-37.398,11.716-37.398,36.539C-251.83,124.18-233.168,134.865-212.368,134.865z
							"/>
						<path id="Oval_22_" fill="#323166" d="M-176.516,102.831c-0.076-3.409-2.662-0.796-4.926,1.605
							c-3.253,3.449-6.854,8.499-19.394,14.424c-14.527,6.864-27.844,1.925-33.922,1.705c-2.333-0.086-4.178,1.25-3.208,3.717
							c0.991,2.519,6.673,4.469,14.098,5.87c0,0,15.787,3.364,28.522-1.697C-183.684,123.82-176.324,111.538-176.516,102.831z"/>
						
							<ellipse id="Oval_23_" transform="matrix(-1 8.258025e-005 -8.258025e-005 -1 -478.4594 173.0815)" fill="#323166" cx="-239.233" cy="86.531" rx="2.622" ry="2.636"/>
						
							<ellipse id="Oval_24_" transform="matrix(-1 4.014175e-005 -4.014175e-005 -1 -458.7036 159.2203)" fill="#323166" cx="-229.353" cy="79.606" rx="6.119" ry="6.15"/>
					</g>
					<path id="Path-9_1_" fill="none" stroke="#1872A4" stroke-width="5" stroke-linecap="round" d="M-143.472,129.731
						c14.643-1.539,20.06,5.607,16.249,21.439c-5.715,23.748-14.063,25.211-14.063,25.211"/>
				</g>
				
					<g id="Group-7" transform="translate(104.790055, 31.360229) rotate(-16.000000) translate(-104.790055, -31.360229) translate(91.790055, 2.860229)">
					<path id="Oval-Copy-2_1_" fill="#1896A4" d="M-238.725,98.917c-3.467,0.934-1.869-7.013-3.726-13.984
						c-1.859-6.971-6.981-12.245-3.513-13.179c3.468-0.934,10.225,4.656,12.083,11.627
						C-232.024,90.352-235.256,97.984-238.725,98.917z"/>
					<path id="Oval-Copy-2_2_" fill="#00C0A5" d="M-238.409,93.539c-2.645-0.166-1.967-4.026-4.034-10.191
						c-2.067-6.166-6.164-10.103-2.75-11.218c3.415-1.115,9.101,3.46,10.805,8.729C-232.684,86.127-235.765,93.704-238.409,93.539z"
						/>
				</g>
			</g>
			<path id="Path-39" opacity="0.3" fill="#FFFFFF" enable-background="new    " d="M-102.516,144.511
				c2.313-0.822,5.047-0.194,8.2,1.883c4.742,3.122,6.506,7.979,5.289,14.565c-0.143-5.773-2.004-10.064-5.585-12.874
				C-97.592,145.747-100.228,144.556-102.516,144.511z"/>
			<path id="Path-3" fill="#E1E5EF" d="M-145.705,391.525c1.378,0.979,2.873,3.508,9.886,9.209
				c4.08,3.318,10.424,4.146,11.288,8.689c1.727,9.076-3.289,25.477-9.321,31.402c-6.032,5.924-13.705,5.574-15.706,0.176
				c-1.733-4.68,1.19-10.582-4.951-15.881c-6.626-5.719-10.989-9.309-16.388-13.664C-154.278,414.22-146.124,407.98-145.705,391.525
				z"/>
			
				<linearGradient id="Path-37_1_" gradientUnits="userSpaceOnUse" x1="-888.4976" y1="14.7792" x2="-888.4976" y2="15.6093" gradientTransform="matrix(26.5744 0 0 59.0334 23473.9414 -476.233)">
				<stop  offset="0" style="stop-color:#C6CFE4;stop-opacity:0"/>
				<stop  offset="1" style="stop-color:#94A1C5"/>
			</linearGradient>
			<path id="Path-37" fill="url(#Path-37_1_)" d="M-150.635,386.21c7.141,15.865,11.261,26.607,12.358,32.227
				c2.266,11.584-1.445,19.176-2.817,20.707c-3.943,4.408-9.24,0.885-7.544,3.537c0.822,1.287,2.369,1.998,3.988,2.396
				c1.733,0.344,6.261,0.604,10.659-4.057c4.198-4.445,5.877-8.676,7.433-14.188c3.418-12.117,3.769-18.625-1.744-21.838
				c-0.646-0.375-1.78-0.975-3.407-1.797c-1.963-0.748-4.498-2.582-7.606-5.502C-142.423,394.777-146.197,390.949-150.635,386.21z"
				/>
			
				<linearGradient id="Path-35_1_" gradientUnits="userSpaceOnUse" x1="-877.5997" y1="19.014" x2="-878.4086" y2="18.8798" gradientTransform="matrix(36.2518 0 0 16.4279 31687.0215 59.015)">
				<stop  offset="0" style="stop-color:#D8DFF0;stop-opacity:0.0937"/>
				<stop  offset="1" style="stop-color:#AFBCDC"/>
			</linearGradient>
			<path id="Path-35" fill="url(#Path-35_1_)" d="M-153.552,376.005c-0.481-4.248,0.669-7.697,3.449-10.348
				c3.108-2.963,17.936-5.111,26.108,3.889c3.911,4.305,6.106,7.631,6.587,9.973c-2.341-2.885-4.721-4.699-7.138-5.439
				c-5.396-1.654-10.084-2.814-14.335-2.969C-146.559,370.833-151.45,372.464-153.552,376.005z"/>
			<g id="Group-11" transform="translate(140.207335, 343.667527)">
				<path id="Path-3_1_" fill="#E1E5EF" d="M-195.29,120.64c-0.279,4.379-2.665,22.762-2.665,32.979c0,7.4,12.831,18.67,3.9,24.289
					s-16.244,5.123-21.556,5.123c-5.313,0-10.535-4.4-11.511-10.18c-0.917-5.434,3.032-10.039,2.319-14.322
					c-0.484-2.91-7.022-31.783-8.578-39.166c-1.057-5.01,8.516-5.117,17.973-5.117C-207.272,114.246-195.036,116.658-195.29,120.64z
					"/>
				<path id="Path-27" fill="#00C0A5" d="M-233.895,116.972c6.754-3.654,13.584-5.248,20.487-4.783
					c6.905,0.465,13.028,2.18,18.37,5.145l-0.311,3.863c-6.291-3.297-12.312-5.178-18.061-5.643
					c-5.749-0.463-12.317,1.074-19.711,4.615L-233.895,116.972z"/>
			</g>
			<path id="Path-32" fill="#1896A4" d="M-61.38,458.124c0.351,1.357,0.32,2.643-0.09,3.855c1.345,0.57,2.36,1.018,3.052,1.34
				c0.69,0.324,1.794,0.834,3.313,1.529l0.269-3.91c-1.368-0.662-2.424-1.174-3.166-1.537
				C-59.114,458.859-60.967,458.341-61.38,458.124z"/>
			
				<g id="Group-15" transform="translate(277.043491, 128.664925) rotate(38.000000) translate(-277.043491, -128.664925) translate(252.043491, 106.664925)">
				<g id="Group-16" transform="translate(0.404428, 0.215284)">
					<path id="Path-2_2_" fill="#F9F9F9" d="M-92.089,269.125c3.669-5.07,17.129-28.696,17.128-33.364
						c0-1.919-2.976-3.698-5.418-0.407c-1.476,1.989-3.411,3.998-5.105,5.843c-2.863,3.117-6.292,7.937-7.737,6.077
						c-1.446-1.862,6.169-7.182,5.059-8.599c-1.112-1.418-1.976-1.793-5.682,1.645c-3.707,3.438-13.095,8.714-16.686,20.259
						c-0.327,1.051,2.437,6.114,7.9,7.901C-99.276,269.579-95.757,274.197-92.089,269.125z"/>
					
						<linearGradient id="Path-2_6_" gradientUnits="userSpaceOnUse" x1="-913.1714" y1="383.8294" x2="-912.679" y2="384.2213" gradientTransform="matrix(31.696 -9.0887 8.2204 28.6679 25689.7656 -19047.6484)">
						<stop  offset="0" style="stop-color:#D8DFF0;stop-opacity:0.0937"/>
						<stop  offset="1" style="stop-color:#AFBCDC"/>
					</linearGradient>
					<path id="Path-2_3_" fill="url(#Path-2_6_)" d="M-81.219,253.851c4.717-8.018,6.597-14.563,6.426-17.198
						c-0.127-1.982-1.042-2.745-1.514-2.902c-0.467-0.155-0.467-0.155-1.31,1.028c-0.843,1.185-3.108,11.842-9.721,19.465
						c-6.853,7.897-12.553,14.016-12.553,14.016c2.18,0.803,5.636,1.736,7.823,0.84C-91.849,268.849-83.565,257.838-81.219,253.851z
						"/>
					<path id="Path-17" fill="#00C0A5" d="M-110.478,260.191c2.38,2.258,4.757,3.933,7.13,5.023
						c6.465,2.969,11.438,3.662,11.438,3.662s-0.51,0.8-1.299,2.328c-0.187,0.359-0.428,0.9-0.729,1.618
						c-5.432-1.781-9.132-3.221-11.1-4.318c-1.968-1.097-4.436-2.734-7.407-4.913L-110.478,260.191z"/>
				</g>
			</g>
			<path id="Path-33" fill="#1896A4" d="M25.293,247.481c1.276-0.255,2.462-0.769,3.558-1.543c0,0,1.429,1.903,4.281,5.712
				c-0.961,0.372-1.666,0.662-2.118,0.869c-0.45,0.209-1.075,0.533-1.877,0.972c-0.846-1.255-1.489-2.228-1.93-2.917
				C26.766,249.884,26.128,248.853,25.293,247.481z"/>
			
				<g id="Group-4" transform="translate(34.137380, 208.925433) scale(-1, 1) rotate(-55.000000) translate(-34.137380, -208.925433) translate(17.637380, 191.925433)">
				<path id="Path-2_4_" fill="#FFFFFF" d="M65.169,262.302c-1.627-0.771-2.902-1.039-4.432-0.691
					c-1.848,0.42-6.453-2.698-8.65-2.149c-5.116,1.28-5.683,3.203-6.655,6.564c-2.186,7.55,4.208,18.22,5.58,19.758
					c3.288,3.684,12.203-0.264,21.004-2.773C76.141,276.286,71.287,265.2,65.169,262.302z"/>
			</g>
			
				<g id="Group-4_1_" transform="translate(41.426630, 206.863091) scale(-1, 1) rotate(-55.000000) translate(-41.426630, -206.863091) translate(27.426630, 197.363091)">
				
					<linearGradient id="Path-2_7_" gradientUnits="userSpaceOnUse" x1="421.4333" y1="455.8174" x2="422.2743" y2="456.1175" gradientTransform="matrix(-10.8443 -10.3953 21.7579 -9.2473 -5289.3408 8860.8428)">
					<stop  offset="0" style="stop-color:#D8DFF0;stop-opacity:0.0937"/>
					<stop  offset="1" style="stop-color:#AFBCDC"/>
				</linearGradient>
				<path id="Path-2_5_" fill="url(#Path-2_7_)" d="M65.461,263.232c-1.628-0.771-3.193-2.285-4.725-1.936
					c-1.847,0.42-4.808-2.702-8.663-2.14c-5.198,0.758-5.67,3.194-6.643,6.555c-0.073,0.253-1.138,4.753,0.547,5.225
					c5.657,1.586,20.727-0.423,23.653-2.979C70.87,266.874,66.746,263.842,65.461,263.232z"/>
			</g>
			<g id="Group-25" transform="translate(17.093858, 194.238384)">
				<path id="Path-36" fill="#00C0A5" d="M-233.451,118.167c2.183-3.099,5.849-4.963,10.997-5.596
					c5.147-0.632,9.805,0.135,13.966,2.301l-0.382,3.532c-3.387-2.793-7.915-3.764-13.584-2.911c-5.67,0.852-9.07,2.945-10.2,6.278
					L-233.451,118.167z"/>
				<path id="Path-23" fill="#1896A4" d="M-219.279,112.374c0.331,0.967,0.331,1.916,0,2.84c0,0,3.887,0.09,5.808,0.799
					c1.279,0.475,2.836,1.271,4.666,2.393c0.124-0.724,0.204-1.281,0.238-1.676c0.036-0.395,0.063-1.01,0.079-1.848
					c-1.212-0.951-2.874-1.65-4.983-2.096C-215.583,112.341-217.519,112.204-219.279,112.374z"/>
			</g>
			<path id="Path-10" fill="#1896A4" d="M-124.915,248.951c-12.035,0-21.792,9.807-21.792,21.903
				c0,12.096,9.757,21.903,21.792,21.903s21.791-9.807,21.791-21.903S-112.88,248.951-124.915,248.951 M-125.614,285.548
				c-7.13,0-13.243-6.033-13.243-13.477c0-1.748,0.318-3.766,0.897-5.297l5.691,2.529c-0.02,0.084-0.043,0.191-0.067,0.314
				c-0.17,0.579-0.27,1.18-0.296,1.784c-0.012,0.12-0.018,0.239-0.014,0.36c0,0.029,0.005,0.056,0.006,0.084
				c0.025,2.211,1.012,4.291,2.68,5.654c1.669,1.363,3.84,1.863,5.902,1.359l3.233,5.732c-1.521,0.633-3.146,0.957-4.786,0.957
				 M-112.476,277.847l-15.173-6.728l9.729-0.044c-0.348-3.693-3.975-6.693-7.396-6.693c-0.774,0-1.547,0.135-2.279,0.398
				l-3.367-5.986c1.771-0.851,3.697-1.289,5.646-1.285c7.49,0,13.892,6.472,13.892,14.312c0,2.112-0.262,4.226-1.053,6.026"/>
			<g id="Group" transform="translate(37.971765, 126.146453)">
				<path id="Path-11" fill="#323166" d="M-233.005,120.568c-0.926,3.172-0.441,6.021,1.452,8.551c0,0,0.151,0.188,0.397,0
					c0.572-0.438,2.945-2.547,7.158-5.486c0.11-0.076,0.146-0.201,0.104-0.371c-3.054-3.221-3.429-6.996-1.124-11.328
					c-0.424,0.291-1.711,1.625-3.863,4.004C-229.637,116.773-231.012,118.316-233.005,120.568z"/>
				<g id="Group-12" transform="translate(1.899318, 3.818042)">
					<path id="Path-18-Copy-2" fill="none" stroke="#FFFFFF" stroke-width="0.6" stroke-linecap="round" d="M-232.839,114.58
						c-0.527,0.615-0.791,1.13-0.791,1.544c0,0.413,0.039,0.812,0.116,1.194"/>
					<path id="Path-18-Copy-3" fill="none" stroke="#FFFFFF" stroke-width="0.6" stroke-linecap="round" d="M-231.476,113.211
						c-0.527,0.616-0.791,1.13-0.791,1.544s0.037,0.812,0.115,1.194"/>
					<path id="Path-18-Copy-4" fill="none" stroke="#FFFFFF" stroke-width="0.6" stroke-linecap="round" d="M-230.114,111.841
						c-0.527,0.616-0.791,1.131-0.791,1.545c0,0.412,0.038,0.811,0.115,1.193"/>
				</g>
				<g id="Group-13" transform="translate(1.899318, 7.636085)">
					<path id="Path-18" fill="none" stroke="#FFFFFF" stroke-width="0.5" stroke-linecap="round" d="M-230.025,112.203l-2.813,2.752
						c-0.346,0.293-0.481,0.437-0.407,0.43c1.46-0.133,3.277-0.652,3.945-0.816"/>
					<path id="Path-18_1_" fill="none" stroke="#FFFFFF" stroke-width="0.5" stroke-linecap="round" d="M-229.608,113.484
						l-2.557,2.838c-0.346,0.291-0.481,0.436-0.406,0.428c1.459-0.133,3.164-0.356,3.968-0.428"/>
				</g>
			</g>
			<path id="Oval_25_" fill="#323166" d="M-155.892,243.661c4.12,0,7.462-3.357,7.462-7.5s-3.342-7.5-7.462-7.5
				c-4.121,0-7.463,3.357-7.463,7.5S-160.013,243.661-155.892,243.661z"/>
			<ellipse id="Oval-Copy-4" fill="#323166" cx="-97.953" cy="228.55" rx="7.462" ry="7.5"/>
			<g id="Group-5" transform="translate(43.190976, 98.114567)">
				<path id="Path-12" fill="none" stroke="#B2C1DD" stroke-width="15" stroke-linecap="round" d="M-200.006,135.99
					c-13.592-17.226-22.909-25.158-27.955-23.797c-7.566,2.043,3.641,17.715,5.42,19.354"/>
				
					<linearGradient id="Path-14_2_" gradientUnits="userSpaceOnUse" x1="-993.0532" y1="18.1641" x2="-992.7331" y2="17.9208" gradientTransform="matrix(18.3243 0 0 19.396 17969.2363 -226.3828)">
					<stop  offset="0" style="stop-color:#5452D7;stop-opacity:0"/>
					<stop  offset="1" style="stop-color:#7E7DA8"/>
				</linearGradient>
				<path id="Path-14" fill="url(#Path-14_2_)" d="M-224.641,118.726c-8.497-5.397-10.845,0.442-8.27,4.403
					c4.898,7.539,8.271,12.813,8.271,12.813c0.774-0.688,3.796-3.078,9.063-7.17c-0.229,0.354-0.865-0.259-1.909-1.841
					C-219.051,124.558-224.241,119.523-224.641,118.726z"/>
			</g>
			
				<g id="Group-5-Copy" transform="translate(153.605986, 93.385555) scale(-1, 1) rotate(29.000000) translate(-153.605986, -93.385555) translate(127.605986, 77.385555)">
				<path id="Path-12_1_" fill="none" stroke="#B2C1DD" stroke-width="15" stroke-linecap="round" d="M309.946,10.494
					c-22.623-19.506-37.335-27.889-44.13-25.15c-10.194,4.109,4.097,20.852,5.877,22.491"/>
				
					<linearGradient id="Path-14_3_" gradientUnits="userSpaceOnUse" x1="113.8565" y1="271.4073" x2="114.1911" y2="271.1191" gradientTransform="matrix(9.4999 16.9594 -15.2031 10.5974 3313.2344 -4806.0493)">
					<stop  offset="0" style="stop-color:#5452D7;stop-opacity:0"/>
					<stop  offset="1" style="stop-color:#7E7D9D"/>
				</linearGradient>
				<path id="Path-14_1_" fill="url(#Path-14_3_)" d="M269.279-8.277c-8.538-0.994-11.662,1.148-9.376,6.426
					c3.429,7.917,9.809,13.335,9.809,13.335c0.502-0.444,2.306-2.734,3.534-4.136c0.446-0.509,1.733-1.825,3.861-3.946
					c-0.983-0.976-1.687-1.72-2.114-2.23c-1.231-1.477-2.836-3.752-3.071-4.181C270.557-5.479,269.676-7.236,269.279-8.277z"/>
				<path id="Path-15" fill="#E1E5EF" d="M277.328,2.702c-2.71,2.588-4.532,4.404-5.467,5.444c-2.833,3.156-4.063,5.192-4.292,5.622
					c-0.718,1.35,1.139,1.977,5.571,1.881c2.14-0.795,3.674-1.648,4.606-2.562c0.932-0.912,2.109-2.713,3.529-5.404L277.328,2.702z"
					/>
			</g>
			<path id="Path-13" fill="#E1E5EF" d="M-184.173,235.124c2.616-2.928,4.459-4.877,5.529-5.848c3.043-2.762,4.82-3.801,5.185-3.866
				c0,0,0.948,1.104,2.844,3.315c-3.521,6.543-5.45,9.908-5.788,10.096s-1.859-0.24-4.566-1.286L-184.173,235.124z"/>
			<ellipse id="Oval-Copy-6" fill="#D1D5E3" cx="-138.497" cy="236.018" rx="1.362" ry="1.369"/>
			<ellipse id="Oval-Copy-7" fill="#D1D5E3" cx="-127.264" cy="237.927" rx="1.361" ry="1.369"/>
			<ellipse id="Oval-Copy-8" fill="#D1D5E3" cx="-115.589" cy="234.11" rx="1.361" ry="1.369"/>
			<path id="Path-20" fill="#FFFFFF" d="M-61.08,302.994c-3,19.547,0.221,46.158,1.78,55.557c1.04,6.264-8.17,2.852-27.63-10.238
				l7.02-35.172C-67.357,306.376-61.08,302.994-61.08,302.994z"/>
			
				<ellipse id="Oval_26_" transform="matrix(-0.9848 0.1737 -0.1737 -0.9848 -94.0476 824.8918)" fill="#B3BED7" cx="-83.12" cy="408.331" rx="11.002" ry="15.002"/>
			<path id="Oval-Copy" fill="#B3BED7" d="M-188.707,392.874c3.995-1.461,1.825-7.611-2.108-13.045
				c-3.934-5.436-7.409-6.609-11.839-3.975c-2.504,1.492-2.504,2.391-1.948,4.479c0.613,2.307,2.273,5.236,5.132,7.992
				C-194.029,393.568-192.702,394.335-188.707,392.874z"/>
			
				<linearGradient id="Path-30_1_" gradientUnits="userSpaceOnUse" x1="-884.8295" y1="13.5078" x2="-884.8146" y2="14.5443" gradientTransform="matrix(29.2644 0 0 240.328 25826.1484 -3017.9243)">
				<stop  offset="0" style="stop-color:#D8DFF0;stop-opacity:0.0937"/>
				<stop  offset="1" style="stop-color:#AFBCDC"/>
			</linearGradient>
			<path id="Path-30" fill="url(#Path-30_1_)" d="M-78.262,220.673c4.729,16.146,6.452,35.599,5.17,58.357
				c-1.923,34.139-10.08,32.618-9.057,47.15c2.479,5.588,10.7,18.865,15.104,40.229s7.248,19.992,5.63,91.746
				c0,0-0.302-0.234,2.992,1.104c0.706,0.285,1.909,0.867,3.61,1.742c1.545-23.938,2.115-42.629,1.716-56.076
				c-0.602-20.172-3.664-33.393-6.7-50.613c-0.924-5.238-2.477-22.514-2.507-30.262c-0.028-7.188,0.091-13.06,0.889-19.1
				c0.676-5.122,1.8-10.376,2.681-16.66c0.67-4.781,1.141-10.152,1.515-16.537c0.364-4.701,0.532-11.291-0.501-17.104
				c-0.313-1.756-1.445-8.303-5.414-16.023C-65.78,233.479-70.823,227.495-78.262,220.673z"/>
			<path id="Path-22" fill="#00C0A5" d="M-170.548,316.421c15.357,4.75,29.559,7.213,42.603,7.392
				c13.043,0.177,34.953-3.437,65.73-10.839c-0.047,3.154-0.07,4.75-0.07,4.783c0,0.611,0,1.959,0,4.045
				c-30.396,7.092-52.282,10.438-65.66,10.037c-13.379-0.398-28.19-3.029-44.438-7.889c0.415-1.363,0.74-2.563,0.976-3.594
				C-171.174,319.324-170.888,318.011-170.548,316.421z"/>
			<path id="Path-31" fill="#1896A4" d="M-81.473,317.341c0.383,0.887,0.464,2.408,0.243,4.566
				c-0.221,2.157-0.553,3.568-0.996,4.232l20.088-4.232v-8.99L-81.473,317.341z"/>
			
				<linearGradient id="Path-19_1_" gradientUnits="userSpaceOnUse" x1="-881.6151" y1="14.9721" x2="-881.4869" y2="15.0131" gradientTransform="matrix(32.165 0 0 65.0027 28288.2324 -478.733)">
				<stop  offset="0" style="stop-color:#C6CFE4;stop-opacity:0"/>
				<stop  offset="1" style="stop-color:#94A1C5"/>
			</linearGradient>
			<path id="Path-19" fill="url(#Path-19_1_)" d="M-61.468,461.956c-0.685,20.447-1.186,31.883-1.502,34.303
				c-0.477,3.633,7.896,11.811,6.717,17.82c-1.396,7.117-4.947,9.141-14.948,10.551c-2.293,0.322-6.145,0.047-11.555-0.83
				c1.731,2.105,4.953,3.16,9.664,3.16c2.705,0,5.631-0.271,7.789-0.719c3.483-0.725,14.712-2.533,14.712-9.736
				c0-7.205-6.607-14.168-7.059-17.826c-0.231-1.891,0.494-8.99,1.616-21.523c0.217-2.426,0.525-6.531,0.924-12.32
				c-1.438-0.672-2.52-1.172-3.239-1.498C-59.069,463.011-60.108,462.55-61.468,461.956z"/>
			<path id="Path-5" fill="#00C0A5" d="M-172.534,410.095c7.164,1.52,13.139,0.609,17.924-2.729s7.349-9.041,7.688-17.113
				l1.265,1.322c0,8.367-2.461,14.285-7.384,17.754c-4.924,3.469-10.833,4.217-17.73,2.242L-172.534,410.095z"/>
			<path id="Path-24" fill="#1896A4" d="M-145.96,396.419c-0.104-0.641-0.244-1.139-0.425-1.498
				c-0.182-0.359-0.468-0.689-0.861-0.99c0.09-0.795,0.153-1.402,0.191-1.82c0.038-0.42,0.086-1.051,0.145-1.896l1.247,1.34
				c0.015,0.604-0.001,1.352-0.047,2.242C-145.756,394.689-145.839,395.562-145.96,396.419z"/>
			<path id="Path-26" opacity="0.3" fill="#FFFFFF" enable-background="new    " d="M-177.775,162.771
				c-2.376,1.928-4.114,4.694-5.219,8.298c-1.104,3.604-1.104,7.242,0,10.914c-2.339-3.887-2.924-7.593-1.754-11.118
				C-183.579,167.339-181.255,164.641-177.775,162.771z"/>
		</g>
	</g>
</g>
<g id="Group-38" transform="translate(1116.000000, 561.500000) rotate(10.000000) translate(-1116.000000, -561.500000) translate(1018.000000, 493.000000)">
	<g id="Group-18" transform="translate(0.000000, 0.000000)">
		
			<g id="Group-8" transform="translate(93.000000, 83.000000) scale(-1, 1) translate(-93.000000, -83.000000) translate(23.000000, 29.000000)">
			<path id="Path-53" fill="#18286C" d="M304.064,199.054c24.657,4.211,39.968,7.682,45.931,10.417
				c0.629,0.111-2.664,2.436-3.877,2.968c-1.214,0.536-14.853-4.081-25.545,0.535C313.444,216.05,307.941,211.411,304.064,199.054z"
				/>
			<path id="Path-38" fill="#B7464C" d="M346.118,188.025l2.822,3.788c-1.334,0.594-3.308,0.158-5.921-1.302
				c-2.613-1.46-5.306-2.768-8.079-3.919l7-2.344L346.118,188.025z"/>
			<path id="Path-52" fill="#18286C" d="M273.203,219.622c-9.744,8.038-16.679,13.189-20.803,15.452
				c-6.571,3.607-13.331,6.796-16.46,12.987c0,0-3.009,0.001-5.484,0.001c-1.65-0.001,5.178-7.343,20.484-22.03l11.338-6.753
				L273.203,219.622z"/>
			<path id="Path-54" fill="#22306B" d="M327.94,153.762c-6.016,3.598-9.459,6.614-10.331,9.051
				c-0.872,2.434,1.878,3.024,8.251,1.768c-0.241-2.25-0.242-4.001,0-5.258C326.102,158.068,326.795,156.213,327.94,153.762z"/>
			<path id="Path-51" fill="#5577FF" d="M211.691,245.837c3.09,0.394,4.966,0.592,5.627,0.592c0.53,0,21.02-4.921,34.987-13.166
				c13.968-8.247,27.281-10.28,36.755-11.971c7.693-1.374,19.622-3.045,35.214-2.309c5.147,0.243,12.857,1.012,23.125,2.306
				c1.693,0.009,2.873-0.547,3.54-1.668c-14.448-7.24-31.325-7.239-29.495-18.312c1.403-8.491,7.133-13.055,9.153-13.056
				c3.64,0.001,9.602,2.699,13.781-2.058c4.175-4.755,4.361-6.714,4.36-10.321c0-0.25-1.204-0.383-3.006-0.788
				c-2.927-0.657-7.254-1.785-9.241-3.494c-3.211-2.762-6.05-9.827-15.05-9.825c0,0-0.632-6.987,1.792-10.249
				c0,0-8.639,1.069-13.561,12.075c-4.919,11.008-7.972,24.769-29.734,29.526c-21.763,4.756-39.446,2.921-44.844-15.769
				c0,0-2.101,15.115,13.965,25.03c0,0-4.487,3.495-10.722,21.238C235.954,230.404,227.071,237.81,211.691,245.837z"/>
			<path id="Path-55" fill="#22306B" d="M343.019,173.96c0.358,4.547,1.604,7.569,3.735,9.07c0.093,0.06,1.061-1.362,1.713-3.089
				c0.681-1.806,0.906-4.011,0.644-4.589c-0.515-1.128-1.235-0.359-2.745-0.617C345.356,174.563,344.242,174.303,343.019,173.96z"/>
			
				<ellipse id="Oval_27_" transform="matrix(0.9848 -0.1737 0.1737 0.9848 -26.229 61.4822)" fill="#1C295C" cx="338.253" cy="180.638" rx="0" ry="-1"/>
			
				<ellipse id="Oval-Copy-3" transform="matrix(0.9848 -0.1737 0.1737 0.9848 -26.604 61.0143)" fill="#1C295C" cx="335.392" cy="182.547" rx="0" ry="-1"/>
			
				<ellipse id="Oval-Copy-4_1_" transform="matrix(0.9848 -0.1737 0.1737 0.9848 -26.6362 61.601)" fill="#1C295C" cx="338.729" cy="183.025" rx="0" ry="-1"/>
			<path id="Path-56" fill="#2841A6" d="M321.579,161.545c-1.933,1.228-2.439,4.098-1.518,8.609
				c1.383,6.769,7.671,8.941,12.672,5.751c5.001-3.19,1.858-1.979,5.04-3.397c-1.073-0.937-2.629-2.588-5.042-5.274
				c-0.515-0.573-1.418-1.509-2.71-2.81c-1.763-1.064-3.162-1.771-4.2-2.127C324.783,161.943,323.368,161.692,321.579,161.545z"/>
			
				<ellipse id="Oval_28_" transform="matrix(0.9848 -0.1737 0.1737 0.9848 -24.4941 59.6446)" fill="#0C1740" cx="328.619" cy="169.805" rx="0" ry="-2.625"/>
		</g>
		
			<g id="Group-9_1_" transform="translate(39.500000, 39.500000) scale(-1, 1) translate(-39.500000, -39.500000) translate(0.000000, 0.000000)">
			
				<ellipse id="Oval_29_" transform="matrix(0.9848 0.1736 -0.1736 0.9848 36.7852 -40.5865)" opacity="0.4511" fill="#22306B" enable-background="new    " cx="250.349" cy="189.939" rx="0" ry="-38.915"/>
			<path id="Path" opacity="0.45" fill="#02BAD3" enable-background="new    " d="M214.216,175.452
				c2.298-4.803,4.273-8.197,5.924-10.185c10.995-13.221,38.179-22.529,57.769-3.147c9.524,9.422,18.473,26.025,4.463,49.992
				c-1.61,2.79,1.099-10.327,0.239-22.172c-0.422-5.8-2.958-11.618-4.836-14.488c-2.624-4.007-9.407-13.003-18.428-15.563
				c-10.62-3.013-23.664,0.825-26.769,1.981C228.747,163.294,222.626,167.824,214.216,175.452z"/>
		</g>
	</g>
	<g id="Group-23_1_" transform="translate(69.000000, 47.105927)">
		<path id="Path-60" fill="#18286C" d="M-206.216,170.156c1.872,1.205,7.507,1.806,16.901,1.808
			c14.091-0.002,18.214-6.307,28.482-6.307c6.845-0.001,22.364,4.698,46.556,14.091c5.657-10.198,14.057-14.096,25.202-11.695
			c11.146,2.402-0.055-0.101-33.599-7.514l-41.317-3.295l-29.347,4.248l-12.879,6.561L-206.216,170.156L-206.216,170.156z"/>
		<path id="Path-59" fill="#1896A4" d="M-207.94,166.726c21.13-12.871,37.22-17.669,48.27-14.396
			c16.575,4.913,30.431,3.121,39.98,0.001c9.549-3.118,7.892-1.647,13.726,4.914c5.833,6.557,29.41,10.014,12.33,11.409
			c-17.082,1.4-62.356-12.411-75.97-6.207c-9.074,4.141-21.278,6.207-36.609,6.207L-207.94,166.726z"/>
		<circle id="Oval_30_" fill="#18286C" cx="-207.94" cy="168.655" r="3"/>
		<path id="Path-61" opacity="0.5" fill="#0C4180" enable-background="new    " d="M-205.488,166.673
			c7.401-3.566,11.52-5.417,12.356-5.552c0.836-0.138,1.101,0.353,0.794,1.466L-205.488,166.673z"/>
		<path id="Path-61-Copy" opacity="0.5" fill="#0C4180" enable-background="new    " d="M-205.323,167.036
			c6.566-1.328,10.273-1.984,11.122-1.973c0.848,0.011,0.432,0.441-1.246,1.295L-205.323,167.036z"/>
	</g>
</g>
<polygon id="Rectangle" fill="#2266B6" points="498.085,345.114 502.23,353.131 510.814,357.842 502.23,361.613 498.085,370.57 
	493.942,361.613 485.359,357.842 493.942,353.13 "/>
<polygon id="Rectangle_1_" fill="#2266B6" points="799.085,493.357 801.848,498.701 807.57,501.841 801.848,504.356 
	799.085,510.328 796.322,504.356 790.6,501.841 796.322,498.701 "/>
<polygon id="Rectangle_2_" fill="#2266B6" points="759.085,280.286 764.151,290.083 774.642,295.842 764.151,300.45 
	759.085,311.398 754.021,300.45 743.528,295.842 754.021,290.083 "/>
<g id="Group-27" transform="translate(1003.000000, 222.000000)">
	<g id="Group-Copy">
		<path id="Combined-Shape_1_" fill="#18BBD0" d="M-188.248,171.841l-18.334-29.333l18.334,7.168v-0.567l18.333-7.268
			L-188.248,171.841z"/>
		<ellipse id="Oval_31_" fill="none" stroke="#27D6ED" stroke-width="0.5" cx="-188.248" cy="145.842" rx="45.666" ry="9.333"/>
		<ellipse id="Oval_32_" fill="none" stroke="#27D6ED" stroke-width="0.5" cx="-187.915" cy="145.175" rx="34" ry="6"/>
		<path id="Combined-Shape_2_" fill="#27D6ED" d="M-187.915,111.842l18,30.063l-18.333,7.771l-18.334-7.168L-187.915,111.842z"/>
		<circle id="Oval_33_" fill="#27D6ED" cx="-225.582" cy="151.175" r="2.333"/>
		<circle id="Oval_34_" fill="#27D6ED" cx="-161.915" cy="149.175" r="2"/>
	</g>
</g>
<polygon id="Rectangle_3_" fill="#2266B6" points="453,660.443 458.067,670.241 468.557,675.998 458.067,680.607 453,691.555 
	447.936,680.607 437.443,675.998 447.936,670.241 "/>
</svg>
