<?xml version="1.0" encoding="utf-8"?>
<!-- Generator: Adobe Illustrator 16.0.0, SVG Export Plug-In . SVG Version: 6.00 Build 0)  -->
<!DOCTYPE svg PUBLIC "-//W3C//DTD SVG 1.1//EN" "http://www.w3.org/Graphics/SVG/1.1/DTD/svg11.dtd">
<svg version="1.1" id="Layer_1" xmlns="http://www.w3.org/2000/svg" xmlns:xlink="http://www.w3.org/1999/xlink" x="0px" y="0px"
	 width="1440px" height="868.607px" viewBox="0 0 1440 868.607" enable-background="new 0 0 1440 868.607" xml:space="preserve">
<title>Rectangle</title>
<desc>Created with Sketch.</desc>
<path id="Path-62" fill="#2163AF" d="M1120,519c-33.621-22.426-52.418-30.078-56.391-22.955c-5.96,10.686-3.815,7.627-23.413,0
	c-19.597-7.625-64.703-29.973-70.237-14.986c-5.534,14.988-0.15,29.596-26.042,26.186C926.656,504.968,911.352,508.888,898,519H1120
	z"/>
<g id="planet-2" transform="translate(837.080803, 670.130800) rotate(-89.000000) translate(-837.080803, -670.130800) translate(786.580803, 632.723393)">
	<circle id="Oval-3-Copy-9" fill="#0C4180" cx="55.268" cy="37.131" r="29.319"/>
	<circle id="Oval-3-Copy-9_1_" fill="#0B386E" cx="50.126" cy="32.164" r="4.044"/>
	<circle id="Oval-3-Copy-9_2_" fill="#0B386E" cx="55.621" cy="57.348" r="2.022"/>
	<g id="Group-23" transform="translate(0.737580, 0.812284)">
		
			<linearGradient id="Oval-3-Copy-9_5_" gradientUnits="userSpaceOnUse" x1="-1067.5206" y1="-1171.0322" x2="-1067.5206" y2="-1169.347" gradientTransform="matrix(90.3979 -44.0888 -10.2087 -20.9314 84602.5313 -71540.5938)">
			<stop  offset="0" style="stop-color:#0C4180"/>
			<stop  offset="1" style="stop-color:#18286C"/>
		</linearGradient>
		
			<ellipse id="Oval-3-Copy-9_3_" transform="matrix(-0.848 -0.5299 0.5299 -0.848 81.8363 97.0272)" fill="none" stroke="url(#Oval-3-Copy-9_5_)" cx="54.829" cy="36.78" rx="50.289" ry="11.644"/>
		
			<ellipse id="Oval-3-Copy-9_4_" transform="matrix(-1 2.941291e-005 -2.941291e-005 -1 133.803 66.5661)" fill="#0B386E" cx="66.901" cy="33.284" rx="5.604" ry="5.661"/>
	</g>
</g>
<path id="Path-62-Copy-3" opacity="0.6" fill="#2163AF" enable-background="new    " d="M356,620
	c-31.35-25.033-48.876-33.574-52.581-25.623c-5.557,11.926-3.558,8.512-21.831,0c-18.273-8.514-60.332-33.459-65.492-16.73
	c-5.16,16.73-0.14,33.035-24.282,29.229C175.72,604.337,161.448,608.712,149,620H356z"/>
<g id="Group-40-Copy" transform="translate(1848.000000, 104.000000)" opacity="0.56">
	<path id="Rectangle-Copy-2" fill="#1C3087" d="M-756.871,545.433c-6.269-6.393-10.35-2.539-12.244,11.564
		c-1.894,14.104-1.895,40.635,0,79.592h12.244V545.433z"/>
	<path id="Rectangle-Copy-2_1_" fill="#18286C" d="M-756.931,545.433c6.269-6.393,10.35-2.539,12.243,11.564
		c1.895,14.104,1.896,40.635,0,79.592h-12.243V545.433z"/>
	<g id="Group-56" transform="translate(0.000000, 12.000000)">
		<g id="Mask">
			<ellipse id="path-3_1_" fill="#000D4B" cx="-824.5" cy="579" rx="86.5" ry="42"/>
		</g>
		<defs>
			<filter id="Adobe_OpacityMaskFilter" filterUnits="userSpaceOnUse" x="-908" y="542" width="175" height="22">
				<feColorMatrix  type="matrix" values="1 0 0 0 0  0 1 0 0 0  0 0 1 0 0  0 0 0 1 0"/>
			</filter>
		</defs>
		<mask maskUnits="userSpaceOnUse" x="-908" y="542" width="175" height="22" id="mask-4">
			<g filter="url(#Adobe_OpacityMaskFilter)">
				<ellipse id="path-3" fill="#FFFFFF" cx="-824.5" cy="579" rx="86.5" ry="42"/>
			</g>
		</mask>
		<g mask="url(#mask-4)">
			<g transform="translate(3.000000, 5.000000)">
				<ellipse id="Oval" fill="#0C4180" cx="-839" cy="539" rx="12" ry="2"/>
				<ellipse id="Oval_1_" fill="#0C4180" cx="-809" cy="539" rx="12" ry="2"/>
				<ellipse id="Oval_2_" fill="#0C4180" cx="-778" cy="539" rx="12" ry="2"/>
				<ellipse id="Oval_3_" fill="#0C4180" cx="-869" cy="539" rx="12" ry="2"/>
				<g id="Group-55" transform="translate(0.000000, 18.000000)">
					<ellipse id="Oval_4_" fill="#0C4180" cx="-839" cy="539" rx="12" ry="2"/>
					<ellipse id="Oval_5_" fill="#0C4180" cx="-808" cy="539" rx="12" ry="2"/>
					<ellipse id="Oval_6_" fill="#0C4180" cx="-779" cy="539" rx="12" ry="2"/>
					<ellipse id="Oval_7_" fill="#0C4180" cx="-748" cy="539" rx="12" ry="2"/>
					<ellipse id="Oval_8_" fill="#0C4180" cx="-899" cy="539" rx="12" ry="2"/>
					<ellipse id="Oval_9_" fill="#0C4180" cx="-868" cy="539" rx="12" ry="2"/>
				</g>
				<ellipse id="Oval_10_" fill="#0C4180" cx="-794" cy="548" rx="7" ry="2"/>
				<ellipse id="Oval_11_" fill="#0C4180" cx="-767" cy="548" rx="7" ry="2"/>
				<ellipse id="Oval_12_" fill="#0C4180" cx="-847" cy="548" rx="7" ry="2"/>
				<ellipse id="Oval_13_" fill="#0C4180" cx="-820" cy="548" rx="7" ry="2"/>
				<ellipse id="Oval_14_" fill="#0C4180" cx="-897" cy="548" rx="7" ry="2"/>
				<ellipse id="Oval_15_" fill="#0C4180" cx="-870" cy="548" rx="7" ry="2"/>
			</g>
		</g>
	</g>
	<path id="Oval_16_" fill="#18286C" d="M-733.063,546.41c0-5.047-10.507-9.141-23.469-9.141S-780,541.363-780,546.41
		C-780,551.458-733.063,551.458-733.063,546.41z"/>
</g>
<g id="Group-40" transform="translate(1154.000000, 58.602405)">
	<path id="Rectangle-Copy-2_2_" fill="#1C3087" d="M-880,548.339c-8.257-8.422-13.633-3.344-16.128,15.23
		c-2.496,18.574-2.496,53.518,0,104.828H-880V548.339z"/>
	<path id="Rectangle-Copy-2_3_" fill="#18286C" d="M-881,548.339c8.257-8.422,13.633-3.344,16.128,15.23
		c2.496,18.574,2.496,53.518,0,104.828H-881V548.339z"/>
	<path id="Oval_17_" fill="#18286C" d="M-849,549.419c0-6.639-13.879-12.021-31-12.021s-31,5.383-31,12.021
		S-849,556.057-849,549.419z"/>
</g>
<path id="Path-62-Copy-3_1_" fill="#2163AF" d="M702,660c26.806-19.818,41.793-26.58,44.96-20.285c4.752,9.441,3.042,6.74,18.667,0
	c15.625-6.738,51.588-26.488,56-13.244s0.12,26.152,20.764,23.141c13.763-2.01,25.965,1.453,36.609,10.391H702V660z"/>
<path id="Path-2" fill="#2163AF" d="M0,0"/>
<path id="Path-21" fill="#2163AF" d="M0,0"/>
<g>
	<path fill="none" d="M114.604,599.904c60.126-14.072,65.24,33.139,104.729,41.1c39.489,7.963,63.374-7.961,99.125,0
		c35.75,7.963,104.488,119.176,272.949,148.393c37.711,6.541,77.633,9.563,117.792,10.287
		c145.204-41.092,214.547-107.305,254.652-113.197c50.796-7.465,84.731,7.463,140.839,0c56.108-7.463,63.373-51.715,148.803-38.525
		c56.385,8.704,118.635,0.17,186.508-16.507V-5H0v593.184C41.338,601.969,79.579,608.1,114.604,599.904z"/>
	<path fill="#0C4180" d="M1253.492,647.96c-85.43-13.189-92.694,31.063-148.803,38.525c-56.107,7.463-90.043-7.465-140.839,0
		c-40.104,5.893-109.448,72.105-254.652,113.197c16.94,0.306,33.918,0.203,50.795-0.221c17.489-6.174,33.818-13.021,49.643-20.637
		c21.295-10.25,51.141-32.807,68.219-41.453c16.318-8.264,37.541-4.672,49.803-11.561c20.137-11.313,29.036-30.604,41.778-32.475
		c25.501-3.748,32.445,6.941,54.387,8.814c9.786,0.834,32.848-3.164,44.237-4.859c13.937-2.074,30.038,2.045,45.414,0
		c22.107-2.941,29.796-17.949,44.774-20.896c12.124-2.385,11.374-0.586,27.647-4.42c5.684-1.338,25.942-13.137,32.658-17.406
		c10.584-6.729,68.846,1.34,83.836,4.197c17.534,3.346,43.703,2.186,62.178,0c19.684-2.326,32.283-7.047,53.056-13.188
		c7.388-2.185,14.851-4.341,22.376-6.49v-7.636C1372.127,648.13,1309.877,656.665,1253.492,647.96z"/>
	<path fill="#18286C" d="M1364.568,658.767c-18.475,2.186-44.644,3.346-62.178,0c-14.99-2.857-73.252-10.926-83.836-4.197
		c-6.716,4.27-26.975,16.068-32.658,17.406c-16.273,3.834-15.523,2.035-27.647,4.42c-14.979,2.947-22.667,17.955-44.774,20.896
		c-15.376,2.045-31.478-2.074-45.414,0c-11.39,1.695-34.451,5.693-44.237,4.859c-21.941-1.873-28.886-12.563-54.387-8.814
		c-12.742,1.871-21.642,21.162-41.778,32.475c-12.262,6.889-33.484,3.297-49.803,11.561c-17.078,8.646-46.924,31.203-68.219,41.453
		c-15.824,7.616-32.153,14.463-49.643,20.637c121.834-3.057,238.153-22.748,293.251-24.971c2.79-0.112,5.965,0.243,9.511,1.053
		c80.09-9.433,186.129-41.093,209.499-46.25c26.384-5.822,83.408,5.822,127.994,0c12.484-1.63,26.312-4.494,39.751-7.773v-82.432
		c-7.525,2.149-14.988,4.306-22.376,6.49C1396.852,651.72,1384.252,656.441,1364.568,658.767z"/>
	<path fill="#1C3087" d="M114.604,612.904c60.126-14.07,69.932,37.189,106.112,37.189c36.181,0,41.978,12.375,65.18,11.439
		c8.219-0.33,22.435-13.523,31.786-11.439c13.037,2.902,22.91,25.287,47.957,46.668c27.795,23.729,49.513,52.785,102.959,75.389
		c30.463,12.881,86.438,17.221,125.295,23.959c34.137,5.922,91.119,19.809,126.107,20.248c38.25,0.479,64.143-17.318,109.018-13.096
		c88.692,8.35,157.742-23.398,204.282-25.277c9.23-0.372,19.13-1.224,29.456-2.439c-3.546-0.81-6.721-1.165-9.511-1.053
		c-55.098,2.223-171.417,21.914-293.251,24.971c-16.877,0.424-33.855,0.526-50.795,0.221c-40.158-0.725-80.08-3.746-117.792-10.287
		c-168.461-29.217-237.199-140.43-272.949-148.393c-35.751-7.961-59.636,7.963-99.125,0c-39.489-7.961-44.603-55.172-104.729-41.1
		C79.579,608.1,41.338,601.969,0,588.184v23.491c22.024,10.874,43.196,18.982,63.99,20.627
		C80.406,633.601,99.392,616.462,114.604,612.904z"/>
	<path fill="#000D4B" d="M1272.255,729.294c-23.37,5.157-129.409,36.817-209.499,46.25c-10.326,1.216-20.226,2.067-29.456,2.439
		c-46.54,1.879-115.59,33.627-204.282,25.277c-44.875-4.223-70.768,13.574-109.018,13.096
		c-34.988-0.439-91.971-14.326-126.107-20.248c-38.856-6.738-94.832-11.078-125.295-23.959
		c-53.446-22.604-75.164-51.66-102.959-75.389c-25.047-21.381-34.92-43.766-47.957-46.668c-9.351-2.084-23.566,11.109-31.786,11.439
		c-23.203,0.936-28.999-11.439-65.18-11.439c-36.18,0-45.986-51.26-106.112-37.189c-15.212,3.559-34.198,20.697-50.614,19.398
		c-20.794-1.645-41.966-9.753-63.99-20.627v252.432h1440V721.521c-13.439,3.279-27.267,6.144-39.751,7.773
		C1355.663,735.117,1298.639,723.472,1272.255,729.294z"/>
</g>
<path fill="#FFFFFF" d="M1440,801.304c-187.592,37.658-441.044,60.762-720,60.762S187.591,838.962,0,801.305v69.868h1440V801.304z"
	/>
</svg>
