<?xml version="1.0" encoding="utf-8"?>
<!-- Generator: Adobe Illustrator 23.0.1, SVG Export Plug-In . SVG Version: 6.00 Build 0)  -->
<svg version="1.1" id="Layer_1" xmlns="http://www.w3.org/2000/svg" xmlns:xlink="http://www.w3.org/1999/xlink" x="0px" y="0px"
	 viewBox="0 0 500 500" style="enable-background:new 0 0 500 500;" xml:space="preserve">
<style type="text/css">
	.st0{fill:url(#SVGID_1_);}
	.st1{opacity:0.35;fill:#FFFFFF;}
	.st2{fill:url(#SVGID_2_);}
	.st3{fill:url(#SVGID_3_);}
	.st4{fill:url(#SVGID_4_);}
	.st5{fill:url(#SVGID_5_);}
	.st6{fill:url(#SVGID_6_);}
	.st7{fill:url(#SVGID_7_);}
	.st8{fill:url(#SVGID_8_);}
	.st9{fill:url(#SVGID_9_);}
	.st10{fill:url(#SVGID_10_);}
	.st11{fill:url(#SVGID_11_);}
	.st12{fill:url(#SVGID_12_);}
	.st13{fill:url(#SVGID_13_);}
	.st14{fill:url(#SVGID_14_);}
	.st15{fill:url(#SVGID_15_);}
	.st16{fill:url(#SVGID_16_);}
	.st17{fill:url(#SVGID_17_);}
	.st18{fill:url(#SVGID_18_);}
	.st19{fill:url(#SVGID_19_);}
	.st20{fill:url(#SVGID_20_);}
	.st21{fill:url(#SVGID_21_);}
	.st22{fill:url(#SVGID_22_);}
	.st23{fill:url(#SVGID_23_);}
	.st24{fill:url(#SVGID_24_);}
	.st25{fill:url(#SVGID_25_);}
	.st26{fill:url(#SVGID_26_);}
	.st27{fill:#FFE800;}
	.st28{fill:url(#SVGID_27_);}
	.st29{fill:url(#SVGID_28_);}
	.st30{fill:url(#SVGID_29_);}
	.st31{fill:url(#SVGID_30_);}
	.st32{fill:url(#SVGID_31_);}
	.st33{fill:url(#SVGID_32_);}
	.st34{fill:url(#SVGID_33_);}
	.st35{fill:url(#SVGID_34_);}
	.st36{fill:url(#SVGID_35_);}
	.st37{fill:url(#SVGID_36_);}
	.st38{fill:url(#SVGID_37_);}
	.st39{fill:url(#SVGID_38_);}
	.st40{fill:url(#SVGID_39_);}
	.st41{fill:url(#SVGID_40_);}
	.st42{fill:url(#SVGID_41_);}
	.st43{fill:url(#SVGID_42_);}
	.st44{fill:url(#SVGID_43_);}
	.st45{fill:url(#SVGID_44_);}
	.st46{fill:url(#SVGID_45_);}
	.st47{fill:url(#SVGID_46_);}
	.st48{fill:url(#SVGID_47_);}
	.st49{fill:url(#SVGID_48_);}
	.st50{fill:url(#SVGID_49_);}
	.st51{fill:url(#SVGID_50_);}
	.st52{fill:url(#SVGID_51_);}
	.st53{fill:url(#SVGID_52_);}
	.st54{fill:url(#SVGID_53_);}
	.st55{fill:url(#SVGID_54_);}
	.st56{fill:url(#SVGID_55_);}
	.st57{opacity:0.47;fill:#FFFFFF;}
</style>
<g>
	
		<linearGradient id="SVGID_1_" gradientUnits="userSpaceOnUse" x1="632.9167" y1="2394.2732" x2="632.9167" y2="2456.6401" gradientTransform="matrix(0.6696 0.7427 -0.7427 0.6696 1573.5875 -1793.9337)">
		<stop  offset="0" style="stop-color:#ED1D32"/>
		<stop  offset="1" style="stop-color:#A72024"/>
	</linearGradient>
	<path class="st0" d="M216.6,280.4c-40.1-42.8-81.3-69.1-92-58.8c-0.4,0.4-0.7,0.8-1.1,1.3c-7.9,12.3,15.6,53.8,54.1,95.1
		c38.6,41.2,78.2,67.1,90.7,59.8c0.5-0.3,0.9-0.6,1.3-1C280.4,366.3,256.6,323.2,216.6,280.4z"/>
	
		<ellipse transform="matrix(0.7305 -0.6829 0.6829 0.7305 -139.9529 218.3551)" class="st1" cx="206.7" cy="286.5" rx="7.4" ry="56.7"/>
</g>
<g>
	
		<linearGradient id="SVGID_2_" gradientUnits="userSpaceOnUse" x1="554.0076" y1="2303.7629" x2="532.7977" y2="2339.3408" gradientTransform="matrix(0.6916 0.7222 -0.7222 0.6916 1555.9702 -1784.9694)">
		<stop  offset="0" style="stop-color:#24BECA"/>
		<stop  offset="0.4385" style="stop-color:#94D6DA"/>
		<stop  offset="0.9465" style="stop-color:#0099A8"/>
	</linearGradient>
	<path class="st2" d="M272.3,215.6l6.2-8.3c-20.9-2.5-36.1,0-41.4,9.1c-0.8,1.3-1.3,2.6-1.7,3.9
		C249.9,211.4,272.3,215.6,272.3,215.6z"/>
	
		<linearGradient id="SVGID_3_" gradientUnits="userSpaceOnUse" x1="529.8366" y1="2326.6709" x2="557.5445" y2="2366.5476" gradientTransform="matrix(0.6916 0.7222 -0.7222 0.6916 1555.9702 -1784.9694)">
		<stop  offset="0" style="stop-color:#0099A8"/>
		<stop  offset="0.1128" style="stop-color:#009AA9"/>
		<stop  offset="0.2253" style="stop-color:#009EAD"/>
		<stop  offset="0.3379" style="stop-color:#00A4B2"/>
		<stop  offset="0.4505" style="stop-color:#0BAEBB"/>
		<stop  offset="0.5632" style="stop-color:#5ABCC6"/>
		<stop  offset="0.6744" style="stop-color:#8BD0D6"/>
		<stop  offset="0.6952" style="stop-color:#94D6DA"/>
		<stop  offset="1" style="stop-color:#24BECA"/>
	</linearGradient>
	<path class="st3" d="M235.4,220.4c-1.3,0.8-2.6,1.8-3.7,2.8c-13.5,12.3,8.3,33.5,9.5,34.7c0.1-0.2,0.2-0.5,0.3-0.7
		C244.7,249.7,231.2,234.2,235.4,220.4z"/>
	
		<linearGradient id="SVGID_4_" gradientUnits="userSpaceOnUse" x1="525.0502" y1="2330.1057" x2="552.7087" y2="2369.9114" gradientTransform="matrix(0.6916 0.7222 -0.7222 0.6916 1555.9702 -1784.9694)">
		<stop  offset="0" style="stop-color:#24BECA"/>
		<stop  offset="0.3048" style="stop-color:#94D6DA"/>
		<stop  offset="0.3256" style="stop-color:#8BD0D6"/>
		<stop  offset="0.4368" style="stop-color:#5ABCC6"/>
		<stop  offset="0.5495" style="stop-color:#0BAEBB"/>
		<stop  offset="0.6621" style="stop-color:#00A4B2"/>
		<stop  offset="0.7747" style="stop-color:#009EAD"/>
		<stop  offset="0.8872" style="stop-color:#009AA9"/>
		<stop  offset="1" style="stop-color:#0099A8"/>
	</linearGradient>
	<path class="st4" d="M241.3,257.9C241.3,257.9,241.2,257.9,241.3,257.9c-6.5,12.9-27.3,0.4-27.3,0.4l-5.1,6
		C235.3,281.2,241.3,257.9,241.3,257.9z"/>
</g>
<g>
	
		<linearGradient id="SVGID_5_" gradientUnits="userSpaceOnUse" x1="4279.7627" y1="601.272" x2="4267.3584" y2="638.4854" gradientTransform="matrix(-0.8109 0.8364 -0.718 -0.696 4310.5479 -2882.4448)">
		<stop  offset="0" style="stop-color:#1A5FAC"/>
		<stop  offset="8.482016e-02" style="stop-color:#0069B4"/>
		<stop  offset="0.2891" style="stop-color:#0081C6"/>
		<stop  offset="0.4681" style="stop-color:#0092D5"/>
		<stop  offset="0.6131" style="stop-color:#009DDE"/>
		<stop  offset="0.7059" style="stop-color:#00A1E1"/>
	</linearGradient>
	<path class="st5" d="M405.5,279.8c16.6-18.6-12.1-39.8-13.2-40.6c-0.1,0.3-0.3,0.7-0.4,1c-3.2,10,13.7,25.7,9.1,43.7
		C402.5,282.7,404,281.3,405.5,279.8z"/>
	
		<linearGradient id="SVGID_6_" gradientUnits="userSpaceOnUse" x1="4219.8179" y1="628.1556" x2="4258.4346" y2="646.5082" gradientTransform="matrix(-0.8109 0.8364 -0.718 -0.696 4310.5479 -2882.4448)">
		<stop  offset="0.2941" style="stop-color:#00A1E1"/>
		<stop  offset="0.3869" style="stop-color:#009DDE"/>
		<stop  offset="0.5319" style="stop-color:#0092D5"/>
		<stop  offset="0.7109" style="stop-color:#0081C6"/>
		<stop  offset="0.9152" style="stop-color:#0069B4"/>
		<stop  offset="1" style="stop-color:#1A5FAC"/>
	</linearGradient>
	<path class="st6" d="M436.3,221.9l6.2-8.6c-34.5-19.8-54.3,17.2-50.3,25.8c0,0,0,0,0,0C399.5,219.1,428.4,214.5,436.3,221.9z"/>
	
		<linearGradient id="SVGID_7_" gradientUnits="userSpaceOnUse" x1="4295.0508" y1="600.0344" x2="4321.8369" y2="629.4989" gradientTransform="matrix(-0.8109 0.8364 -0.718 -0.696 4310.5479 -2882.4448)">
		<stop  offset="0.2941" style="stop-color:#00A1E1"/>
		<stop  offset="0.3869" style="stop-color:#009DDE"/>
		<stop  offset="0.5319" style="stop-color:#0092D5"/>
		<stop  offset="0.7109" style="stop-color:#0081C6"/>
		<stop  offset="0.9152" style="stop-color:#0069B4"/>
		<stop  offset="1" style="stop-color:#1A5FAC"/>
	</linearGradient>
	<path class="st7" d="M398.9,289.4c0.9-1.9,1.6-3.7,2.1-5.5c-17.3,13.2-42.9,4.6-42.9,4.6l-6.8,10.5
		C370.2,304.8,392.5,302,398.9,289.4z"/>
</g>
<g>
	
		<linearGradient id="SVGID_8_" gradientUnits="userSpaceOnUse" x1="550.2861" y1="2277.8333" x2="532.8596" y2="2330.113" gradientTransform="matrix(0.9401 -0.341 -0.341 -0.9401 541.7209 2681.6667)">
		<stop  offset="0" style="stop-color:#FFE200"/>
		<stop  offset="0.4459" style="stop-color:#FCCF10"/>
		<stop  offset="1" style="stop-color:#F7B41F"/>
	</linearGradient>
	<path class="st8" d="M284.6,349.8c-28.1,8.3-40.2-39.7-40.7-41.6c0.4,0.1,0.9,0.1,1.3,0.2c12.8,2.5,23.5,32.8,46,38.6
		C289.2,348.2,287,349.1,284.6,349.8z"/>
	
		<linearGradient id="SVGID_9_" gradientUnits="userSpaceOnUse" x1="467.9636" y1="2316.5515" x2="520.4073" y2="2341.4753" gradientTransform="matrix(0.9401 -0.341 -0.341 -0.9401 541.7209 2681.6667)">
		<stop  offset="0" style="stop-color:#FFE200"/>
		<stop  offset="0.3833" style="stop-color:#FBCC13"/>
		<stop  offset="0.7664" style="stop-color:#F8BA1D"/>
		<stop  offset="1" style="stop-color:#F7B41F"/>
	</linearGradient>
	<path class="st9" d="M205.9,350.4l-12.4,2c-8.1-54.2,42.3-54.6,50.4-44.3c0,0,0,0,0,0.1C218,304.2,200.7,336.1,205.9,350.4z"/>
	
		<linearGradient id="SVGID_10_" gradientUnits="userSpaceOnUse" x1="571.194" y1="2276.05" x2="607.6262" y2="2316.1255" gradientTransform="matrix(0.9401 -0.341 -0.341 -0.9401 541.7209 2681.6667)">
		<stop  offset="0" style="stop-color:#F7B41F"/>
		<stop  offset="0.2336" style="stop-color:#F8BA1D"/>
		<stop  offset="0.6167" style="stop-color:#FBCC13"/>
		<stop  offset="1" style="stop-color:#FFE200"/>
	</linearGradient>
	<path class="st10" d="M298.3,348c-2.5,0-4.9-0.4-7.1-1c22.2-12.6,23.2-48.8,23.2-48.8l14.8-1.5C327.8,323.2,315.3,348.2,298.3,348z
		"/>
</g>
<linearGradient id="SVGID_11_" gradientUnits="userSpaceOnUse" x1="544.1203" y1="2390.9482" x2="574.1035" y2="2447.1069" gradientTransform="matrix(-0.2556 0.9668 -0.9668 -0.2556 2814.5273 275.9377)">
	<stop  offset="0" style="stop-color:#1A5FAC"/>
	<stop  offset="8.482016e-02" style="stop-color:#0069B4"/>
	<stop  offset="0.2891" style="stop-color:#0081C6"/>
	<stop  offset="0.4681" style="stop-color:#0092D5"/>
	<stop  offset="0.6131" style="stop-color:#009DDE"/>
	<stop  offset="0.7059" style="stop-color:#00A1E1"/>
</linearGradient>
<path class="st11" d="M362.2,178c0,0-21.6,18.6-61.3,19.3l4.5,17.2c0,0,42.3,0.5,61.1-18.8L362.2,178z"/>
<linearGradient id="SVGID_12_" gradientUnits="userSpaceOnUse" x1="793.4519" y1="2482.9204" x2="823.4349" y2="2539.0791" gradientTransform="matrix(0.9428 0.3334 -0.3334 0.9428 454.8728 -2240.7793)">
	<stop  offset="0" style="stop-color:#1A5FAC"/>
	<stop  offset="8.482016e-02" style="stop-color:#0069B4"/>
	<stop  offset="0.2891" style="stop-color:#0081C6"/>
	<stop  offset="0.4681" style="stop-color:#0092D5"/>
	<stop  offset="0.6131" style="stop-color:#009DDE"/>
	<stop  offset="0.7059" style="stop-color:#00A1E1"/>
</linearGradient>
<path class="st12" d="M362,365.3c0,0,16.8,23,14.2,62.6l17.5-3.1c0,0,4-42.1-13.8-62.4L362,365.3z"/>
<linearGradient id="SVGID_13_" gradientUnits="userSpaceOnUse" x1="3803.8352" y1="2415.3613" x2="3823.8787" y2="2452.9028" gradientTransform="matrix(-0.5891 -0.8081 -0.8081 0.5891 4497.5195 2047.0637)">
	<stop  offset="0" style="stop-color:#56BB68"/>
	<stop  offset="6.944222e-02" style="stop-color:#64BE68"/>
	<stop  offset="0.1911" style="stop-color:#86C665"/>
	<stop  offset="0.3494" style="stop-color:#B5D560"/>
	<stop  offset="0.4492" style="stop-color:#D5E05B"/>
	<stop  offset="0.7025" style="stop-color:#BED85F"/>
	<stop  offset="1" style="stop-color:#A7D062"/>
</linearGradient>
<path class="st13" d="M307.1,404.5c0,0-18.1-6.3-42.9,2.6l-1.4-11.5c0,0,26.2-10.2,42.7-2.8L307.1,404.5z"/>
<linearGradient id="SVGID_14_" gradientUnits="userSpaceOnUse" x1="-135.3673" y1="1472.9164" x2="-147.0074" y2="1494.7185" gradientTransform="matrix(0.9187 0.395 -0.395 0.9187 970.0126 -1183.9708)">
	<stop  offset="0.2941" style="stop-color:#F68A3B"/>
	<stop  offset="0.4139" style="stop-color:#F5843A"/>
	<stop  offset="0.6004" style="stop-color:#F37439"/>
	<stop  offset="0.7861" style="stop-color:#F15D37"/>
</linearGradient>
<polygon class="st14" points="259.4,135.2 242.4,128 249.6,111.2 266.7,118.5 "/>
<linearGradient id="SVGID_15_" gradientUnits="userSpaceOnUse" x1="1468.3943" y1="2829.1658" x2="1460.5657" y2="2843.8289" gradientTransform="matrix(0.3834 0.9236 -0.9236 0.3834 2367.9226 -2185.7078)">
	<stop  offset="0" style="stop-color:#ED7B94"/>
	<stop  offset="0.2165" style="stop-color:#E26977"/>
	<stop  offset="0.5903" style="stop-color:#D34D51"/>
	<stop  offset="0.8615" style="stop-color:#CA3B3A"/>
	<stop  offset="1" style="stop-color:#C73432"/>
</linearGradient>
<polygon class="st15" points="306.8,262.4 302,251.1 313.4,246.5 318.2,257.8 "/>
<linearGradient id="SVGID_16_" gradientUnits="userSpaceOnUse" x1="1357.0331" y1="2780.9363" x2="1345.2848" y2="2802.9409" gradientTransform="matrix(0.3834 0.9236 -0.9236 0.3834 2367.9226 -2185.7078)">
	<stop  offset="0" style="stop-color:#ED7B94"/>
	<stop  offset="0.2165" style="stop-color:#E26977"/>
	<stop  offset="0.5903" style="stop-color:#D34D51"/>
	<stop  offset="0.8615" style="stop-color:#CA3B3A"/>
	<stop  offset="1" style="stop-color:#C73432"/>
</linearGradient>
<polygon class="st16" points="302.9,144.6 295.8,127.7 312.9,120.8 320,137.7 "/>
<linearGradient id="SVGID_17_" gradientUnits="userSpaceOnUse" x1="857.6902" y1="2732.8545" x2="845.9474" y2="2754.8491" gradientTransform="matrix(0.5055 0.8628 -0.8628 0.5055 2036.9784 -1971.8711)">
	<stop  offset="0" style="stop-color:#FFE200"/>
	<stop  offset="0.3833" style="stop-color:#FBCC13"/>
	<stop  offset="0.7664" style="stop-color:#F8BA1D"/>
	<stop  offset="1" style="stop-color:#F7B41F"/>
</linearGradient>
<polygon class="st17" points="97.3,162.6 87.9,146.8 103.9,137.6 113.3,153.4 "/>
<linearGradient id="SVGID_18_" gradientUnits="userSpaceOnUse" x1="149.7996" y1="1805.1826" x2="141.6429" y2="1820.4602" gradientTransform="matrix(0.8431 0.5377 -0.5377 0.8431 1150.9771 -1435.2083)">
	<stop  offset="0" style="stop-color:#1A5FAC"/>
	<stop  offset="8.482016e-02" style="stop-color:#0069B4"/>
	<stop  offset="0.2891" style="stop-color:#0081C6"/>
	<stop  offset="0.4681" style="stop-color:#0092D5"/>
	<stop  offset="0.6131" style="stop-color:#009DDE"/>
	<stop  offset="0.7059" style="stop-color:#00A1E1"/>
</linearGradient>
<polygon class="st18" points="301.3,180.2 290.3,173.3 297.2,162.6 308.2,169.5 "/>
<linearGradient id="SVGID_19_" gradientUnits="userSpaceOnUse" x1="992.2905" y1="2587.2622" x2="984.0889" y2="2602.624" gradientTransform="matrix(0.5487 0.836 -0.836 0.5487 1892.3137 -1971.1387)">
	<stop  offset="0.2941" style="stop-color:#F68A3B"/>
	<stop  offset="0.4139" style="stop-color:#F5843A"/>
	<stop  offset="0.6004" style="stop-color:#F37439"/>
	<stop  offset="0.7861" style="stop-color:#F15D37"/>
</linearGradient>
<polygon class="st19" points="263.6,287.7 256.5,277 267.3,270 274.4,280.7 "/>
<linearGradient id="SVGID_20_" gradientUnits="userSpaceOnUse" x1="887.6011" y1="2563.2366" x2="879.3994" y2="2578.5986" gradientTransform="matrix(0.5487 0.836 -0.836 0.5487 1892.3137 -1971.1387)">
	<stop  offset="0.2941" style="stop-color:#F68A3B"/>
	<stop  offset="0.4139" style="stop-color:#F5843A"/>
	<stop  offset="0.6004" style="stop-color:#F37439"/>
	<stop  offset="0.7861" style="stop-color:#F15D37"/>
</linearGradient>
<polygon class="st20" points="226.3,187 219.1,176.3 229.9,169.3 237.1,180 "/>
<linearGradient id="SVGID_21_" gradientUnits="userSpaceOnUse" x1="1103.4421" y1="2639.5344" x2="1095.2396" y2="2654.8977" gradientTransform="matrix(0.5366 0.8438 -0.8438 0.5366 1976.3291 -1978.1704)">
	<stop  offset="0.2941" style="stop-color:#00A1E1"/>
	<stop  offset="0.3869" style="stop-color:#009DDE"/>
	<stop  offset="0.5319" style="stop-color:#0092D5"/>
	<stop  offset="0.7109" style="stop-color:#0081C6"/>
	<stop  offset="0.9152" style="stop-color:#0069B4"/>
	<stop  offset="1" style="stop-color:#1A5FAC"/>
</linearGradient>
<polygon class="st21" points="330.8,378.8 323.8,368 334.7,361.2 341.7,372 "/>
<linearGradient id="SVGID_22_" gradientUnits="userSpaceOnUse" x1="406.5686" y1="2460.6897" x2="436.8261" y2="2460.6897" gradientTransform="matrix(0.6916 0.7222 -0.7222 0.6916 1555.9702 -1784.9694)">
	<stop  offset="0.2941" style="stop-color:#00A1E1"/>
	<stop  offset="0.3869" style="stop-color:#009DDE"/>
	<stop  offset="0.5319" style="stop-color:#0092D5"/>
	<stop  offset="0.7109" style="stop-color:#0081C6"/>
	<stop  offset="0.9152" style="stop-color:#0069B4"/>
	<stop  offset="1" style="stop-color:#1A5FAC"/>
</linearGradient>
<polygon class="st22" points="80.9,211.7 77.3,221.5 83.5,230 72.9,229.6 66.6,237.9 63.6,227.9 53.6,224.5 62.3,218.7 62.4,208.3 
	70.8,214.8 "/>
<linearGradient id="SVGID_23_" gradientUnits="userSpaceOnUse" x1="725.3746" y1="2229.1448" x2="755.6321" y2="2229.1448" gradientTransform="matrix(0.6916 0.7222 -0.7222 0.6916 1555.9702 -1784.9694)">
	<stop  offset="0.2941" style="stop-color:#00A1E1"/>
	<stop  offset="0.3869" style="stop-color:#009DDE"/>
	<stop  offset="0.5319" style="stop-color:#0092D5"/>
	<stop  offset="0.7109" style="stop-color:#0081C6"/>
	<stop  offset="0.9152" style="stop-color:#0069B4"/>
	<stop  offset="1" style="stop-color:#1A5FAC"/>
</linearGradient>
<polygon class="st23" points="468.6,281.8 465,291.6 471.2,300.1 460.6,299.7 454.3,308 451.4,298 441.3,294.6 450.1,288.8 
	450.1,278.4 458.5,284.9 "/>
<linearGradient id="SVGID_24_" gradientUnits="userSpaceOnUse" x1="570.7951" y1="2300.5745" x2="601.0526" y2="2300.5745" gradientTransform="matrix(0.6916 0.7222 -0.7222 0.6916 1555.9702 -1784.9694)">
	<stop  offset="0" style="stop-color:#A51E1F"/>
	<stop  offset="1" style="stop-color:#ED2224"/>
</linearGradient>
<polygon class="st24" points="310.1,219.5 306.5,229.3 312.7,237.9 302.1,237.4 295.8,245.8 292.9,235.8 282.8,232.4 291.6,226.6 
	291.6,216.2 300,222.6 "/>
<linearGradient id="SVGID_25_" gradientUnits="userSpaceOnUse" x1="1290.1342" y1="2762.9556" x2="1323.6969" y2="2762.9556" gradientTransform="matrix(0.3413 0.9399 -0.9399 0.3413 2469.439 -2100.3201)">
	<stop  offset="0" style="stop-color:#FFE200"/>
	<stop  offset="0.3833" style="stop-color:#FBCC13"/>
	<stop  offset="0.7664" style="stop-color:#F8BA1D"/>
	<stop  offset="1" style="stop-color:#F7B41F"/>
</linearGradient>
<polygon class="st25" points="333.7,65.7 325.5,74.1 328,85.5 317.3,80.4 307,86.1 308.6,74.5 299.8,66.7 311.4,64.6 316.2,54 
	321.9,64.3 "/>
<g>
	
		<linearGradient id="SVGID_26_" gradientUnits="userSpaceOnUse" x1="3980.3835" y1="1372.8339" x2="3998.1418" y2="1385.021" gradientTransform="matrix(-0.9515 -0.3077 -0.3077 0.9515 4432.7383 47.8586)">
		<stop  offset="0" style="stop-color:#FAA61A"/>
		<stop  offset="0.492" style="stop-color:#FBCA03"/>
		<stop  offset="0.6094" style="stop-color:#F9C506"/>
		<stop  offset="0.7419" style="stop-color:#F3B90F"/>
		<stop  offset="0.8813" style="stop-color:#E9A515"/>
		<stop  offset="1" style="stop-color:#E08F19"/>
	</linearGradient>
	<path class="st26" d="M197.4,130c-0.3-0.2-0.6-0.3-0.9-0.5c0,0,0,0-0.1,0c-0.3-0.1-0.5-0.3-0.8-0.4c0,0,0,0-0.1,0
		c-0.2-0.1-0.5-0.2-0.7-0.3c0,0,0,0-0.1,0c-0.2-0.1-0.4-0.2-0.5-0.2c0,0,0,0-0.1,0l0,0c11.8,2.1,22.3-2.6,26-4.7
		c1.4-0.7,0.7,1.4,1,2.9c0,0,0,0,0,0c0.1,0.2,0.1,0.5,0.2,0.7c0,0,0,0.1,0,0.1c0,0.2,0.1,0.4,0.1,0.6c0,0,0,0.1,0,0.1
		c0,0.2,0,0.5,0.1,0.7c0,0,0,0.1,0,0.1c0,0.2,0,0.4,0,0.6c0,0,0,0.1,0,0.1c0,0.2,0,0.4,0,0.7c0,0.1,0,0.1,0,0.2c0,0.2,0,0.4,0,0.6
		c0,0,0,0,0,0.1c0,0.2,0,0.4-0.1,0.6c0,0.1,0,0.1,0,0.2c0,0.2-0.1,0.4-0.1,0.6c0,0.3-0.1,0.6-0.2,0.8c0,0.1,0,0.2-0.1,0.2
		c-0.1,0.2-0.1,0.4-0.2,0.6c0,0.1-0.1,0.1-0.1,0.2c-0.1,0.3-0.2,0.5-0.4,0.8c0,0,0,0.1-0.1,0.1c-0.1,0.2-0.2,0.4-0.4,0.6
		c-0.1,0.1-0.1,0.2-0.2,0.2c-0.1,0.2-0.2,0.3-0.4,0.5c-0.1,0.1-0.1,0.1-0.2,0.2c-0.2,0.2-0.3,0.4-0.5,0.6c-0.1,0.1-0.1,0.1-0.2,0.2
		c-0.2,0.2-0.5,0.5-0.8,0.8c0,0,0,0,0,0c-0.2,0.2-0.4,0.4-0.6,0.6c-0.1,0.1-0.3,0.2-0.4,0.3c-0.1,0.1-0.2,0.2-0.3,0.3
		c-0.1,0.1-0.2,0.2-0.3,0.3c-0.2,0.2-0.4,0.3-0.6,0.4c-0.1,0-0.1,0.1-0.2,0.1c-0.1,0-0.1,0.1-0.2,0.1c-0.1,0.1-0.2,0.2-0.3,0.2
		c-0.2,0.1-0.4,0.3-0.6,0.4c0,0,0,0,0,0c-1,0.6-2.1,0.3-2.8-0.5C207.2,135.7,201.3,132,197.4,130C197.4,130,197.4,130,197.4,130z"/>
	<path class="st27" d="M211.4,168.8c0.1,0.2,0.2,0.4,0.2,0.6C211.5,169.2,211.5,169,211.4,168.8z"/>
	<path class="st27" d="M217.3,139.2c-0.1,0.1-0.3,0.2-0.4,0.3C217.1,139.4,217.2,139.3,217.3,139.2z"/>
	<path class="st27" d="M218,138.6c0.3-0.3,0.6-0.6,0.8-0.8C218.5,138.1,218.2,138.3,218,138.6C218,138.6,218,138.6,218,138.6z"/>
	<path class="st27" d="M216.6,139.8c-0.1,0.1-0.2,0.2-0.3,0.3C216.4,140,216.5,139.9,216.6,139.8z"/>
	<path class="st27" d="M182.4,234.6c0.2,0.1,0.4,0.3,0.6,0.4C182.9,234.9,182.7,234.7,182.4,234.6z"/>
	<path class="st27" d="M214.4,141.3C214.4,141.3,214.4,141.3,214.4,141.3c0.1-0.1,0.3-0.2,0.5-0.3
		C214.7,141.1,214.5,141.2,214.4,141.3z"/>
	
		<linearGradient id="SVGID_27_" gradientUnits="userSpaceOnUse" x1="3980.2773" y1="1335.7208" x2="4006.4189" y2="1335.7208" gradientTransform="matrix(-0.9515 -0.3077 -0.3077 0.9515 4432.7383 47.8586)">
		<stop  offset="0" style="stop-color:#FFDD00"/>
		<stop  offset="0.1013" style="stop-color:#FFDE00"/>
		<stop  offset="0.1921" style="stop-color:#FFDF1A"/>
		<stop  offset="0.2789" style="stop-color:#FFE238"/>
		<stop  offset="0.3632" style="stop-color:#FFE758"/>
		<stop  offset="0.4457" style="stop-color:#FFEC7A"/>
		<stop  offset="0.5258" style="stop-color:#FFF59C"/>
		<stop  offset="0.5455" style="stop-color:#FFF8A5"/>
		<stop  offset="0.6071" style="stop-color:#FFF089"/>
		<stop  offset="0.6901" style="stop-color:#FFE965"/>
		<stop  offset="0.7724" style="stop-color:#FFE341"/>
		<stop  offset="0.8525" style="stop-color:#FFE021"/>
		<stop  offset="0.9295" style="stop-color:#FFDE00"/>
		<stop  offset="1" style="stop-color:#FFDD00"/>
	</linearGradient>
	<path class="st28" d="M234.8,86.6c0,0.1,0,0.2,0,0.3c0,0.2,0,0.3,0,0.5c0,0.2,0,0.3,0,0.5c0,0.2,0,0.3,0,0.5c0,0.2,0,0.3-0.1,0.4
		c0,0.2,0,0.3-0.1,0.5c0,0.1,0,0.3-0.1,0.4c0,0.2-0.1,0.3-0.1,0.5c0,0.1,0,0.2-0.1,0.3c-0.1,0.3-0.1,0.6-0.2,0.8c0,0,0,0,0,0
		c-0.3,1-0.6,1.9-0.9,2.7c0,0,0,0,0,0c-0.2,0.5-0.5,1.1-0.7,1.5c0,0,0,0,0,0.1c-0.1,0.2-0.2,0.4-0.4,0.7c0,0,0,0,0,0
		c-0.2,0.4-0.5,0.8-0.7,1.2c0,0,0,0,0,0.1c-0.2,0.4-0.5,0.7-0.7,1c0,0,0,0,0,0c0,0,0,0,0,0c-0.6,0.8-1.1,1.3-1.2,1.4
		c3.5-3.4,5.9-8.9,7.2-12.8L234.8,86.6z"/>
	
		<linearGradient id="SVGID_28_" gradientUnits="userSpaceOnUse" x1="3980.1301" y1="1363.9636" x2="4010.6094" y2="1363.9636" gradientTransform="matrix(-0.9515 -0.3077 -0.3077 0.9515 4432.7383 47.8586)">
		<stop  offset="0" style="stop-color:#FFDD00"/>
		<stop  offset="0.1013" style="stop-color:#FFDE00"/>
		<stop  offset="0.1921" style="stop-color:#FFDF1A"/>
		<stop  offset="0.2789" style="stop-color:#FFE238"/>
		<stop  offset="0.3632" style="stop-color:#FFE758"/>
		<stop  offset="0.4457" style="stop-color:#FFEC7A"/>
		<stop  offset="0.5258" style="stop-color:#FFF59C"/>
		<stop  offset="0.5455" style="stop-color:#FFF8A5"/>
		<stop  offset="0.6071" style="stop-color:#FFF089"/>
		<stop  offset="0.6901" style="stop-color:#FFE965"/>
		<stop  offset="0.7724" style="stop-color:#FFE341"/>
		<stop  offset="0.8525" style="stop-color:#FFE021"/>
		<stop  offset="0.9295" style="stop-color:#FFDE00"/>
		<stop  offset="1" style="stop-color:#FFDD00"/>
	</linearGradient>
	<path class="st29" d="M215,140.9c0.1-0.1,0.2-0.1,0.3-0.2c0.1,0,0.1-0.1,0.2-0.1c0.1,0,0.1-0.1,0.2-0.1c0.2-0.1,0.4-0.3,0.6-0.4
		c0.1-0.1,0.2-0.2,0.3-0.3c0.1-0.1,0.2-0.2,0.3-0.3c0.1-0.1,0.3-0.2,0.4-0.3c0.2-0.2,0.4-0.4,0.6-0.6c0.3-0.3,0.5-0.5,0.8-0.8
		c0,0,0,0,0.1-0.1c0,0,0.1-0.1,0.1-0.1c0,0,0,0,0,0c0.2-0.2,0.3-0.4,0.5-0.6c0.1-0.1,0.1-0.1,0.2-0.2c0.1-0.2,0.2-0.3,0.4-0.5
		c0.1-0.1,0.1-0.2,0.2-0.2c0.1-0.2,0.3-0.4,0.4-0.6c0,0,0-0.1,0.1-0.1c0.1-0.2,0.3-0.5,0.4-0.8c0-0.1,0.1-0.1,0.1-0.2
		c0.1-0.2,0.2-0.4,0.2-0.6c0-0.1,0.1-0.2,0.1-0.2c0.1-0.3,0.1-0.6,0.2-0.8c0-0.2,0.1-0.4,0.1-0.6c0-0.1,0-0.1,0-0.2
		c0-0.2,0-0.4,0.1-0.6c0,0,0,0,0-0.1c0-0.2,0-0.4,0-0.6c0-0.1,0-0.1,0-0.2c0-0.2,0-0.4,0-0.7c0,0,0-0.1,0-0.1c0-0.2,0-0.4,0-0.6
		c0,0,0-0.1,0-0.1c0-0.2,0-0.5-0.1-0.7c0,0,0-0.1,0-0.1c0-0.2-0.1-0.4-0.1-0.6c0,0,0-0.1,0-0.1c0-0.2-0.1-0.5-0.2-0.7c0,0,0,0,0,0
		c0,0,0,0,0,0c-0.8-3.4-3.1-7.1-7.9-12c-2-2-3.9-3.5-5.7-4.7c0,0,0,0,0,0c-0.3-0.2-0.7-0.4-1-0.6c-0.1-0.1-0.3-0.1-0.4-0.2
		c-0.2-0.1-0.5-0.2-0.7-0.4c-0.1-0.1-0.3-0.1-0.4-0.2c-0.2-0.1-0.5-0.2-0.7-0.3c-0.1,0-0.2-0.1-0.3-0.1c-0.3-0.1-0.6-0.2-0.9-0.3
		c-0.1,0-0.2-0.1-0.3-0.1c-0.2-0.1-0.4-0.1-0.5-0.2c-0.1,0-0.2-0.1-0.3-0.1c-0.2-0.1-0.4-0.1-0.6-0.1c-0.1,0-0.1,0-0.2,0
		c-0.2,0-0.5-0.1-0.7-0.1c-0.1,0-0.1,0-0.2,0c-0.1,0-0.3,0-0.4,0c-0.1,0-0.1,0-0.2,0c-0.2,0-0.3,0-0.5,0c0,0,0,0,0,0
		c-0.2,0-0.3,0-0.4,0.1c0,0-0.1,0-0.1,0c-0.1,0-0.2,0.1-0.2,0.1c0,0-0.1,0-0.1,0c-0.1,0-0.1,0.1-0.2,0.1l4.9-15.5
		c0,0,0.4-1.4,1.8-1.4c1,0,4.7,0.9,8.8,3.4c0.7,0.4,1.4,0.9,2.1,1.4c0.1,0.1,0.3,0.2,0.4,0.3c0.2,0.1,0.3,0.3,0.5,0.4
		c0.3,0.2,0.5,0.4,0.8,0.6c0.1,0.1,0.2,0.2,0.4,0.3c0.3,0.2,0.5,0.5,0.8,0.7c0.1,0.1,0.2,0.2,0.3,0.3c0.3,0.3,0.7,0.6,1,1
		c0.3,0.3,0.6,0.7,0.9,1c0.1,0.1,0.1,0.2,0.2,0.2c0.3,0.3,0.5,0.6,0.8,1c0.1,0.1,0.1,0.2,0.2,0.3c0.2,0.3,0.4,0.5,0.5,0.8
		c0.1,0.1,0.2,0.2,0.2,0.4c0.2,0.3,0.3,0.5,0.5,0.8c0.1,0.1,0.2,0.3,0.3,0.4c0.2,0.3,0.3,0.5,0.4,0.8c0,0,0,0,0,0
		c2.2,4.3,2.4,8.4,2,10.6c0,0-2.4,10.7-3.4,15.1c-1,4.4-2.4,7.8-8.4,11.1C214.5,141.2,214.7,141.1,215,140.9
		C215,140.9,215,140.9,215,140.9z"/>
	<path class="st27" d="M214.4,141.3C214.4,141.3,214.4,141.3,214.4,141.3C214.4,141.3,214.4,141.3,214.4,141.3z"/>
	
		<linearGradient id="SVGID_29_" gradientUnits="userSpaceOnUse" x1="3981.4519" y1="1333.4006" x2="3993.8545" y2="1345.8032" gradientTransform="matrix(-0.9515 -0.3077 -0.3077 0.9515 4432.7383 47.8586)">
		<stop  offset="0" style="stop-color:#FAA61A"/>
		<stop  offset="0.227" style="stop-color:#FFC30D"/>
		<stop  offset="0.4172" style="stop-color:#FFD600"/>
		<stop  offset="0.5294" style="stop-color:#FFDD00"/>
		<stop  offset="0.6195" style="stop-color:#FED300"/>
		<stop  offset="0.771" style="stop-color:#F2BA0D"/>
		<stop  offset="0.9643" style="stop-color:#E39618"/>
		<stop  offset="1" style="stop-color:#E08F19"/>
	</linearGradient>
	<path class="st30" d="M234.2,91.3c0.1-0.3,0.1-0.5,0.2-0.8c0-0.1,0-0.2,0.1-0.3c0-0.2,0.1-0.3,0.1-0.5c0-0.1,0-0.3,0.1-0.4
		c0-0.2,0-0.3,0.1-0.5c0-0.1,0-0.3,0.1-0.4c0-0.2,0-0.3,0-0.5c0-0.2,0-0.3,0-0.5c0-0.2,0-0.3,0-0.5c0-0.1,0-0.2,0-0.3l-1.6-0.5
		c-2.9,2.7-9.8,8.1-19.4,7.8c0,0,0,0,0,0c0.7,0.4,1.4,0.9,2.1,1.4c0.1,0.1,0.3,0.2,0.4,0.3c0.2,0.1,0.3,0.3,0.5,0.4
		c0.3,0.2,0.5,0.4,0.8,0.6c0.1,0.1,0.2,0.2,0.4,0.3c0.3,0.2,0.5,0.5,0.8,0.7c0.1,0.1,0.2,0.2,0.3,0.3c0.3,0.3,0.7,0.6,1,1
		c0.3,0.3,0.6,0.7,0.9,1c0.1,0.1,0.1,0.2,0.2,0.2c0.3,0.3,0.5,0.6,0.8,1c0.1,0.1,0.1,0.2,0.2,0.3c0.2,0.3,0.4,0.5,0.5,0.8
		c0.1,0.1,0.2,0.2,0.2,0.4c0.2,0.3,0.3,0.5,0.5,0.8c0.1,0.1,0.2,0.3,0.3,0.4c0.2,0.3,0.3,0.5,0.4,0.8c0,0,0,0,0,0l0.3-0.1
		c0,0,3.3-2.2,6.2-5.8c0,0,0,0,0,0c0.2-0.3,0.4-0.6,0.7-1c0,0,0,0,0-0.1c0.2-0.4,0.5-0.8,0.7-1.2c0,0,0,0,0,0
		c0.1-0.2,0.2-0.4,0.4-0.7c0,0,0,0,0-0.1c0.2-0.5,0.5-1,0.7-1.5c0,0,0,0,0,0C233.6,93.2,233.9,92.3,234.2,91.3
		C234.2,91.3,234.2,91.3,234.2,91.3z"/>
	<path class="st27" d="M232.1,96.3c-0.2,0.4-0.5,0.8-0.7,1.2C231.6,97.2,231.9,96.8,232.1,96.3z"/>
	<path class="st27" d="M231.4,97.6c-0.2,0.4-0.5,0.7-0.7,1C230.9,98.3,231.1,98,231.4,97.6z"/>
	<path class="st27" d="M233.3,94c0.4-0.8,0.7-1.7,0.9-2.7C233.9,92.3,233.6,93.2,233.3,94z"/>
	<polygon class="st27" points="230.7,98.6 230.7,98.6 230.7,98.6 	"/>
	<path class="st27" d="M213.9,93.9c0.7,0.4,1.4,0.9,2.1,1.4C215.3,94.8,214.6,94.3,213.9,93.9z"/>
	<path class="st27" d="M198.7,107.3c0.1,0,0.1-0.1,0.2-0.1c0,0,0.1,0,0.1,0c0.1,0,0.3-0.1,0.4-0.1c0,0,0,0,0,0c0.1,0,0.3,0,0.5,0
		c0.1,0,0.1,0,0.2,0c0.1,0,0.3,0,0.4,0c0.1,0,0.1,0,0.2,0c0.2,0,0.4,0.1,0.7,0.1c0.1,0,0.1,0,0.2,0c0.2,0,0.4,0.1,0.6,0.1
		c0.1,0,0.2,0.1,0.3,0.1c0.2,0.1,0.4,0.1,0.5,0.2c0.1,0,0.2,0.1,0.3,0.1c0.3,0.1,0.6,0.2,0.9,0.3c0.1,0,0.2,0.1,0.3,0.1
		c0.2,0.1,0.4,0.2,0.7,0.3c0.1,0.1,0.3,0.1,0.4,0.2c0.2,0.1,0.5,0.2,0.7,0.4c0.1,0.1,0.3,0.1,0.4,0.2c0.3,0.2,0.7,0.4,1,0.6
		c0,0,0,0-0.1,0c-1.5,0.1-6-0.7-7.8-1.4c-1.8-0.7-1.5-1.1-1.5-1.1C198.5,107.5,198.5,107.4,198.7,107.3
		C198.6,107.4,198.6,107.3,198.7,107.3z"/>
	<path class="st27" d="M207.8,110C207.8,110,207.8,110,207.8,110c-0.4-0.2-0.7-0.4-1-0.6C207.1,109.6,207.4,109.8,207.8,110z"/>
	
		<linearGradient id="SVGID_30_" gradientUnits="userSpaceOnUse" x1="3973.3521" y1="1407.0665" x2="4012.1755" y2="1407.0665" gradientTransform="matrix(-0.9515 -0.3077 -0.3077 0.9515 4432.7383 47.8586)">
		<stop  offset="0" style="stop-color:#FFDD00"/>
		<stop  offset="0.1013" style="stop-color:#FFDE00"/>
		<stop  offset="0.1921" style="stop-color:#FFDF1A"/>
		<stop  offset="0.2789" style="stop-color:#FFE238"/>
		<stop  offset="0.3632" style="stop-color:#FFE758"/>
		<stop  offset="0.4457" style="stop-color:#FFEC7A"/>
		<stop  offset="0.5258" style="stop-color:#FFF59C"/>
		<stop  offset="0.5455" style="stop-color:#FFF8A5"/>
		<stop  offset="0.6071" style="stop-color:#FFF089"/>
		<stop  offset="0.6901" style="stop-color:#FFE965"/>
		<stop  offset="0.7724" style="stop-color:#FFE341"/>
		<stop  offset="0.8525" style="stop-color:#FFE021"/>
		<stop  offset="0.9295" style="stop-color:#FFDE00"/>
		<stop  offset="1" style="stop-color:#FFDD00"/>
	</linearGradient>
	<path class="st31" d="M213.2,177.2c0-0.4,0-0.9-0.1-1.3c0-0.2,0-0.3-0.1-0.5c0-0.3-0.1-0.5-0.1-0.8c0-0.2-0.1-0.4-0.1-0.6
		c0-0.2-0.1-0.4-0.1-0.6c0-0.2-0.1-0.5-0.1-0.7c0-0.2-0.1-0.3-0.1-0.5c-0.1-0.3-0.1-0.5-0.2-0.8c0-0.1,0-0.1-0.1-0.2
		c-0.2-0.6-0.4-1.2-0.6-1.8c-0.1-0.2-0.2-0.4-0.2-0.6c-0.1-0.3-0.2-0.6-0.3-0.8c0,0,0,0,0,0c-1.8-4.1-4.6-7.9-8.3-11.4
		c-6.4-6-15-10.5-18.4-11.1l5.7-17.5c0,0,0.1-0.8,3.1,0.1c0,0,0.4,0.2,1.1,0.5c0.2,0.1,0.3,0.2,0.5,0.2c0,0,0,0,0.1,0
		c0.2,0.1,0.4,0.2,0.7,0.3c0,0,0,0,0.1,0c0.2,0.1,0.5,0.2,0.8,0.4c0,0,0,0,0.1,0c0.3,0.1,0.6,0.3,0.9,0.5c0,0,0,0,0,0
		c3.9,2,9.8,5.7,14.1,10.8c0,0,0,0,0,0c3.6,4.3,6.2,9.6,5.7,15.9c-1.3,20.5-3.8,28.4-8.5,31.7C208.8,188.4,213.5,184.7,213.2,177.2z
		"/>
	<path class="st27" d="M216.3,140c-0.2,0.2-0.4,0.3-0.6,0.4C215.8,140.3,216.1,140.2,216.3,140z"/>
	<path class="st27" d="M216.9,139.5c-0.1,0.1-0.2,0.2-0.3,0.3C216.7,139.7,216.8,139.6,216.9,139.5z"/>
	<path class="st27" d="M218.8,137.8c0.1-0.1,0.1-0.1,0.2-0.2C218.9,137.6,218.9,137.7,218.8,137.8
		C218.8,137.7,218.8,137.8,218.8,137.8z"/>
	<path class="st27" d="M217.9,138.6c-0.2,0.2-0.4,0.4-0.6,0.6C217.5,139,217.7,138.8,217.9,138.6z"/>
	<path class="st27" d="M218.9,137.6c0.2-0.2,0.3-0.4,0.5-0.6C219.3,137.2,219.1,137.4,218.9,137.6
		C218.9,137.6,218.9,137.6,218.9,137.6z"/>
	<path class="st27" d="M215,140.9c0.1-0.1,0.2-0.1,0.3-0.2C215.2,140.8,215.1,140.9,215,140.9C215,140.9,215,140.9,215,140.9z"/>
	<path class="st27" d="M221.3,126.7C221.3,126.7,221.3,126.7,221.3,126.7C221.3,126.7,221.3,126.7,221.3,126.7
		C221.3,126.7,221.3,126.7,221.3,126.7z"/>
	<path class="st27" d="M197.4,130c3.9,2,9.8,5.7,14.1,10.8c0,0,0,0,0,0C207.2,135.7,201.3,132,197.4,130z"/>
	
		<linearGradient id="SVGID_31_" gradientUnits="userSpaceOnUse" x1="4019.281" y1="1451.7373" x2="3971.3621" y2="1466.3213" gradientTransform="matrix(-0.9515 -0.3077 -0.3077 0.9515 4432.7383 47.8586)">
		<stop  offset="0" style="stop-color:#FFDD00"/>
		<stop  offset="0.1013" style="stop-color:#FFDE00"/>
		<stop  offset="0.1921" style="stop-color:#FFDF1A"/>
		<stop  offset="0.2789" style="stop-color:#FFE238"/>
		<stop  offset="0.3632" style="stop-color:#FFE758"/>
		<stop  offset="0.4457" style="stop-color:#FFEC7A"/>
		<stop  offset="0.5258" style="stop-color:#FFF59C"/>
		<stop  offset="0.5455" style="stop-color:#FFF8A5"/>
		<stop  offset="0.6071" style="stop-color:#FFF089"/>
		<stop  offset="0.6901" style="stop-color:#FFE965"/>
		<stop  offset="0.7724" style="stop-color:#FFE341"/>
		<stop  offset="0.8525" style="stop-color:#FFE021"/>
		<stop  offset="0.9295" style="stop-color:#FFDE00"/>
		<stop  offset="1" style="stop-color:#FFDD00"/>
	</linearGradient>
	<path class="st32" d="M191.5,220.9c-0.4-0.4-0.8-0.7-1.2-1.1c0,0-0.1-0.1-0.1-0.1c-0.4-0.3-0.8-0.7-1.3-1c0,0-0.1-0.1-0.1-0.1
		c-0.4-0.3-0.9-0.7-1.4-1c0,0-0.1-0.1-0.1-0.1c-0.5-0.3-1-0.7-1.5-1c0,0,0,0,0,0l0,0c-5.4-3.5-11.7-6.6-13.9-7.8
		c-3.1-1.8-3.7-2.5-2.8-8.6c0.9-6.1,2.4-16.3,2.4-16.3c-0.2,3.2,12.3,8.3,15.6,10c0.2,0.1,0.4,0.2,0.6,0.3c0.1,0.1,0.2,0.1,0.3,0.2
		c0.1,0.1,0.2,0.1,0.3,0.2c0.2,0.1,0.4,0.2,0.6,0.3c0,0,0.1,0,0.1,0c1.1,0.7,2.4,1.4,3.6,2.3l0,0c2.1,1.5,4.3,3.3,6.2,5.4
		c3.7,4.1,3,6.3,3,6.3c-0.6,3.1-0.9,6-3,14.5c-1.9,7.6-4.4,8.8-4.4,8.8C198.3,228.7,197.1,226.1,191.5,220.9z"/>
	
		<linearGradient id="SVGID_32_" gradientUnits="userSpaceOnUse" x1="3973.626" y1="1420.9049" x2="4003.4692" y2="1445.7302" gradientTransform="matrix(-0.9515 -0.3077 -0.3077 0.9515 4432.7383 47.8586)">
		<stop  offset="0" style="stop-color:#FAA61A"/>
		<stop  offset="7.608987e-02" style="stop-color:#FBAD18"/>
		<stop  offset="0.5134" style="stop-color:#FFD700"/>
		<stop  offset="0.676" style="stop-color:#F2B80F"/>
		<stop  offset="0.8859" style="stop-color:#E59A17"/>
		<stop  offset="1" style="stop-color:#E08F19"/>
	</linearGradient>
	<path class="st33" d="M188.9,194.8c-0.2-0.1-0.4-0.2-0.6-0.3c-0.1-0.1-0.2-0.1-0.3-0.2c-0.1-0.1-0.2-0.1-0.3-0.2
		c-0.2-0.1-0.4-0.2-0.6-0.3c-3.3-1.7-15.8-6.8-15.6-10l0,0c0.9-2.2,13.6-4.7,24.3-7.8c10.8-3.1,15-7.8,15.3-8.1
		c0.1,0.3,0.2,0.5,0.3,0.8c0.1,0.2,0.2,0.4,0.2,0.6c0.2,0.6,0.4,1.2,0.6,1.8c0,0.1,0,0.1,0.1,0.2c0.1,0.3,0.1,0.5,0.2,0.8
		c0,0.2,0.1,0.3,0.1,0.5c0.1,0.2,0.1,0.5,0.1,0.7c0,0.2,0.1,0.4,0.1,0.6c0,0.2,0.1,0.4,0.1,0.6c0,0.3,0.1,0.5,0.1,0.8
		c0,0.2,0,0.3,0.1,0.5c0,0.4,0.1,0.9,0.1,1.3c0.3,7.6-4.4,11.2-4.4,11.2c-0.1,0-0.1,0.1-0.2,0.1c-8.2,5.8-14.1,8-15.9,8.6
		C191.4,196.3,190.2,195.5,188.9,194.8C189,194.9,189,194.8,188.9,194.8z"/>
	<path class="st27" d="M211.4,168.8c-0.1-0.3-0.2-0.6-0.3-0.8c0,0,0,0,0,0C211.2,168.2,211.3,168.5,211.4,168.8z"/>
	<path class="st27" d="M211.6,169.4c0.2,0.6,0.4,1.2,0.6,1.8C212,170.6,211.8,170,211.6,169.4z"/>
	<path class="st27" d="M189,194.9c1.1,0.6,2.4,1.4,3.6,2.3l0,0C191.4,196.3,190.2,195.5,189,194.9z"/>
	<path class="st27" d="M171.4,184c0,0.1,0,0.1,0,0.2l0,0.1C171.4,184.1,171.4,184,171.4,184z"/>
	
		<linearGradient id="SVGID_33_" gradientUnits="userSpaceOnUse" x1="3971.03" y1="1492.2885" x2="4012.6707" y2="1497.2793" gradientTransform="matrix(-0.9515 -0.3077 -0.3077 0.9515 4432.7383 47.8586)">
		<stop  offset="0" style="stop-color:#FFDD00"/>
		<stop  offset="0.1013" style="stop-color:#FFDE00"/>
		<stop  offset="0.1921" style="stop-color:#FFDF1A"/>
		<stop  offset="0.2789" style="stop-color:#FFE238"/>
		<stop  offset="0.3632" style="stop-color:#FFE758"/>
		<stop  offset="0.4457" style="stop-color:#FFEC7A"/>
		<stop  offset="0.5258" style="stop-color:#FFF59C"/>
		<stop  offset="0.5455" style="stop-color:#FFF8A5"/>
		<stop  offset="0.6071" style="stop-color:#FFF089"/>
		<stop  offset="0.6901" style="stop-color:#FFE965"/>
		<stop  offset="0.7724" style="stop-color:#FFE341"/>
		<stop  offset="0.8525" style="stop-color:#FFE021"/>
		<stop  offset="0.9295" style="stop-color:#FFDE00"/>
		<stop  offset="1" style="stop-color:#FFDD00"/>
	</linearGradient>
	<path class="st34" d="M176.1,252.4c-3.8-1.3-6.5-2.5-10.5-4.1c-0.2-0.1-0.4-0.2-0.6-0.3c-0.1,0-0.1-0.1-0.2-0.1
		c-0.1-0.1-0.2-0.1-0.3-0.2c-0.1,0-0.2-0.1-0.2-0.1c-0.1-0.1-0.2-0.1-0.2-0.2c-0.1-0.1-0.2-0.1-0.2-0.2c0,0-0.1-0.1-0.1-0.1
		c-0.2-0.2-0.3-0.3-0.5-0.5c0,0,0,0,0-0.1c-0.1-0.1-0.1-0.2-0.2-0.3c0,0,0,0,0-0.1c-0.1-0.1-0.1-0.2-0.2-0.3
		c-0.7-1.6-0.4-3.8-0.2-7.2c0.3-4.7,0.7-10.6,0.9-12.4l0,0c0-0.1,0-0.2,0-0.2c0,2.7,6.7,4.1,10.5,5.1c3.9,1,6.7,2.4,8.6,3.5
		c0.2,0.1,0.4,0.3,0.6,0.4c0,0,0,0,0,0c0,0,0.1,0.1,0.1,0.1c0,0,0.1,0.1,0.1,0.1c0,0,0,0,0,0c0.4,0.3,0.6,0.6,0.7,1
		c0.2,0.7,0.2,1.6,0.2,3.1c0.1,3.1-0.2,13.8-0.2,13.8c-0.3,4-1.1,4-1.1,4C184.5,255.1,179.9,253.7,176.1,252.4z"/>
	<path class="st27" d="M163.4,226C163.4,226,163.4,226,163.4,226L163.4,226C163.4,225.9,163.4,225.9,163.4,226L163.4,226
		C163.4,225.9,163.4,226,163.4,226z"/>
	
		<linearGradient id="SVGID_34_" gradientUnits="userSpaceOnUse" x1="3979.9011" y1="1470.7042" x2="4000.7673" y2="1487.3278" gradientTransform="matrix(-0.9515 -0.3077 -0.3077 0.9515 4432.7383 47.8586)">
		<stop  offset="0" style="stop-color:#FAA61A"/>
		<stop  offset="0.3533" style="stop-color:#FFC808"/>
		<stop  offset="0.5348" style="stop-color:#FFD600"/>
		<stop  offset="0.6834" style="stop-color:#F6C00A"/>
		<stop  offset="0.9889" style="stop-color:#E09118"/>
		<stop  offset="1" style="stop-color:#E08F19"/>
	</linearGradient>
	<path class="st35" d="M183.3,235.2C183.3,235.2,183.3,235.2,183.3,235.2c-0.1-0.1-0.1-0.1-0.2-0.1c0,0-0.1-0.1-0.1-0.1c0,0,0,0,0,0
		c-0.2-0.1-0.4-0.3-0.6-0.4c-1.8-1.1-4.7-2.5-8.6-3.5c-3.8-1-10.4-2.4-10.5-5.1c0,0,0,0,0,0l0,0c0-0.5,0.1-0.8,0.2-1.1
		c0,0,0-0.1,0-0.1c0,0,0-0.1,0-0.1c0-0.1,0.1-0.1,0.1-0.2c0.2-0.4,0.4-0.5,0.4-0.5l0,0c1.1-1.1,3.7-2.1,8.6-3.6
		c6.7-2,12.9-3.7,12.9-3.7c0,0,0,0,0,0c0.5,0.3,1,0.7,1.5,1c0,0,0.1,0.1,0.1,0.1c0.5,0.3,0.9,0.6,1.4,1c0,0,0.1,0.1,0.1,0.1
		c0.4,0.3,0.9,0.7,1.3,1c0,0,0.1,0.1,0.1,0.1c0.4,0.4,0.8,0.7,1.2,1.1c5.6,5.2,6.7,7.8,3,11.2c-2.3,1.6-10.1,4-10.5,4.1l0,0
		c0,0,0,0,0,0C183.9,235.8,183.7,235.5,183.3,235.2z"/>
	<path class="st27" d="M185.8,216.6C185.8,216.6,185.8,216.6,185.8,216.6L185.8,216.6C185.8,216.6,185.8,216.6,185.8,216.6z"/>
	<path class="st27" d="M183.3,235.2c0.4,0.3,0.6,0.6,0.7,1C183.9,235.8,183.7,235.5,183.3,235.2z"/>
	<path class="st27" d="M163.4,226.2l0-0.2l0,0c0,0,0,0,0,0C163.4,226,163.4,226.1,163.4,226.2z"/>
	<path class="st27" d="M163.4,226.2L163.4,226.2c0-0.1,0-0.2,0-0.2C163.4,226,163.4,226.1,163.4,226.2z"/>
	<path class="st27" d="M163.4,226C163.4,226,163.4,226,163.4,226L163.4,226C163.4,226,163.4,226,163.4,226z"/>
	
		<linearGradient id="SVGID_35_" gradientUnits="userSpaceOnUse" x1="3992.9038" y1="1506.6218" x2="4020.2405" y2="1528.403" gradientTransform="matrix(-0.9515 -0.3077 -0.3077 0.9515 4432.7383 47.8586)">
		<stop  offset="0" style="stop-color:#FAA61A"/>
		<stop  offset="0.3533" style="stop-color:#FFC808"/>
		<stop  offset="0.5348" style="stop-color:#FFD600"/>
		<stop  offset="0.6834" style="stop-color:#F6C00A"/>
		<stop  offset="0.9889" style="stop-color:#E09118"/>
		<stop  offset="1" style="stop-color:#E08F19"/>
	</linearGradient>
	<path class="st36" d="M138.2,261.8c-0.2-0.1-0.3-0.3-0.5-0.4c0,0-0.1-0.1-0.1-0.1c-0.1-0.1-0.2-0.2-0.3-0.3
		c-0.1-0.1-0.1-0.1-0.2-0.2c-0.1-0.1-0.2-0.2-0.2-0.2c-0.1-0.1-0.1-0.1-0.2-0.2c-0.1-0.1-0.1-0.1-0.2-0.2c0-0.1-0.1-0.1-0.1-0.2
		c-0.1-0.1-0.1-0.1-0.1-0.2c0-0.1-0.1-0.1-0.1-0.2c0,0,0,0,0-0.1c-0.1-0.2-0.2-0.3-0.3-0.5c0,0,0-0.1,0-0.1c0-0.1-0.1-0.2-0.1-0.2
		c0,0,0-0.1,0-0.1c0-0.1-0.1-0.2-0.1-0.2c0,0,0,0,0-0.1c0-0.1,0-0.2-0.1-0.3c0,0,0,0,0,0c-0.1-0.5,0-1,0.1-1.4c0,0,0,0,0,0
		c0.8-2,4-3.6,8.8-5.8c8.4-3.7,18.3-5,18.3-5s0,0,0,0c0,0,0,0,0,0c0.1,0.1,0.1,0.2,0.2,0.3c0,0,0,0,0,0.1c0.1,0.1,0.1,0.2,0.2,0.3
		c0,0,0,0,0,0.1c0.1,0.2,0.3,0.3,0.5,0.5c0,0,0.1,0.1,0.1,0.1c0.1,0.1,0.2,0.1,0.2,0.2c0.1,0.1,0.2,0.1,0.2,0.2
		c0.1,0,0.2,0.1,0.2,0.1c0.1,0.1,0.2,0.1,0.3,0.2c0.1,0,0.1,0.1,0.2,0.1c0.2,0.1,0.4,0.2,0.6,0.3c4,1.6,6.7,2.8,10.5,4.1
		c3.8,1.3,8.4,2.7,6.8,4.8c-5.3,3.8-18,6.4-30.4,9.2c-12.4,2.9-17.8,11.3-17.8,11.3C134.5,272.3,138.2,261.8,138.2,261.8z"/>
	<path class="st27" d="M135.5,258.1c-0.1-0.5,0-0.9,0.1-1.4c0,0,0,0,0,0C135.4,257.1,135.4,257.6,135.5,258.1z"/>
</g>
<g>
	
		<linearGradient id="SVGID_36_" gradientUnits="userSpaceOnUse" x1="732.0274" y1="3459.5295" x2="749.5557" y2="3459.5295" gradientTransform="matrix(0.1065 0.9943 -0.9943 0.1065 3766.5793 -782.696)">
		<stop  offset="0" style="stop-color:#17488B"/>
		<stop  offset="6.881777e-02" style="stop-color:#0C4D8F"/>
		<stop  offset="0.1796" style="stop-color:#005999"/>
		<stop  offset="0.3185" style="stop-color:#006AAA"/>
		<stop  offset="0.4786" style="stop-color:#0084C7"/>
		<stop  offset="0.5187" style="stop-color:#008CD1"/>
		<stop  offset="0.6206" style="stop-color:#0073B1"/>
		<stop  offset="0.7347" style="stop-color:#005E9A"/>
		<stop  offset="0.8398" style="stop-color:#00508B"/>
		<stop  offset="0.9316" style="stop-color:#124683"/>
		<stop  offset="1" style="stop-color:#184380"/>
	</linearGradient>
	<path class="st37" d="M411.1,329.4c0.2-0.1,0.3-0.3,0.5-0.4c-0.1-0.2-1.9-4.2-3.7-9.3c-1.8-4.8-2.6-5.8-3.8-5.8c0,0,0,0-0.1,0
		c0,0,0,0-0.1,0c0,0-0.1,0-0.1,0c0,0,0,0,0,0c0,0-0.1,0.1-0.1,0.1c0,0,0,0,0,0c-1.1,0.8-2.4,4-2.9,5.3c0,0,0,0.1,0,0.1
		c0,0.1-0.1,0.2-0.1,0.3c0,0.1,0,0.1-0.1,0.1c0,0,0,0.1,0,0.1c0,0,0,0,0,0c0,0,1.7,6.2,4.8,10.2c0.1,0.1,0.1,0.1,0.2,0.2
		C407.1,331.7,409.1,331,411.1,329.4z"/>
	
		<linearGradient id="SVGID_37_" gradientUnits="userSpaceOnUse" x1="731.6422" y1="3481.3076" x2="747.4255" y2="3481.3076" gradientTransform="matrix(0.1065 0.9943 -0.9943 0.1065 3766.5793 -782.696)">
		<stop  offset="0" style="stop-color:#17488B"/>
		<stop  offset="6.881777e-02" style="stop-color:#0C4D8F"/>
		<stop  offset="0.1796" style="stop-color:#005999"/>
		<stop  offset="0.3185" style="stop-color:#006AAA"/>
		<stop  offset="0.4786" style="stop-color:#0084C7"/>
		<stop  offset="0.5187" style="stop-color:#008CD1"/>
		<stop  offset="0.6206" style="stop-color:#0073B1"/>
		<stop  offset="0.7347" style="stop-color:#005E9A"/>
		<stop  offset="0.8398" style="stop-color:#00508B"/>
		<stop  offset="0.9316" style="stop-color:#124683"/>
		<stop  offset="1" style="stop-color:#184380"/>
	</linearGradient>
	<path class="st38" d="M384.4,331c0,0,0.1,0,0.1,0.1c1,0.4,2,0.1,2.8-0.7c0,0,0,0,0,0c0.1-0.1,0.2-0.1,0.2-0.2
		c0.1-0.1,0.1-0.1,0.2-0.2c0,0,0,0,0.1-0.1c0.5-0.5,0.9-1.2,1.3-2c-0.1-0.1-1.5-2.1-2.7-5.8c-1.2-3.8-3.1-6.6-4.7-6.3
		c-1.7,0.2-2.2,3.3-2.6,5.1c0,0,0,0,0,0c0,0.1,0,0.1,0,0.2c0,0,0,0.1,0,0.1c0.3,0.5,1.6,3.2,2.3,4.9c0.7,1.8,1.7,4.2,2.5,4.7
		c0.1,0.1,0.2,0.1,0.3,0.2C384.3,331,384.3,331,384.4,331z"/>
	
		<linearGradient id="SVGID_38_" gradientUnits="userSpaceOnUse" x1="743.1212" y1="3496.6772" x2="729.0255" y2="3515.0881" gradientTransform="matrix(0.1065 0.9943 -0.9943 0.1065 3766.5793 -782.696)">
		<stop  offset="0" style="stop-color:#17488B"/>
		<stop  offset="6.881777e-02" style="stop-color:#0C4D8F"/>
		<stop  offset="0.1796" style="stop-color:#005999"/>
		<stop  offset="0.3185" style="stop-color:#006AAA"/>
		<stop  offset="0.4786" style="stop-color:#0084C7"/>
		<stop  offset="0.5187" style="stop-color:#008CD1"/>
		<stop  offset="0.6206" style="stop-color:#0073B1"/>
		<stop  offset="0.7347" style="stop-color:#005E9A"/>
		<stop  offset="0.8398" style="stop-color:#00508B"/>
		<stop  offset="0.9316" style="stop-color:#124683"/>
		<stop  offset="1" style="stop-color:#184380"/>
	</linearGradient>
	<path class="st39" d="M367.1,331.1c0.1,0,0.2,0,0.2,0c0,0,0.1,0,0.1,0c0.1,0,0.1,0,0.2,0c0,0,0.1,0,0.1,0c0.1,0,0.1,0,0.2-0.1
		c0,0,0.1,0,0.1,0c0.1,0,0.1,0,0.2-0.1c0,0,0.1,0,0.1-0.1c0.1,0,0.1-0.1,0.2-0.1c0,0,0.1,0,0.1-0.1c0.1-0.1,0.2-0.1,0.3-0.2
		c0,0,0.1-0.1,0.1-0.1c0,0,0.1-0.1,0.1-0.1c0,0,0.1-0.1,0.1-0.1c0,0,0.1-0.1,0.1-0.1c0,0,0.1-0.1,0.1-0.2c0,0,0.1-0.1,0.1-0.1
		c0-0.1,0.1-0.1,0.1-0.2c0,0,0.1-0.1,0.1-0.1c0-0.1,0.1-0.1,0.1-0.2c0,0,0.1-0.1,0.1-0.1c0.1-0.1,0.1-0.2,0.2-0.3
		c0-0.1,0.1-0.2,0.1-0.2c0,0,0,0,0-0.1c0-0.1,0.1-0.2,0.1-0.3c-0.1,0-2.9-1.5-5.8-5.3c-2.9-3.8-9.3-7.7-15.6-6.4
		c-0.3,0.1-1.2,0.4-2.4,1.1c-0.4,0.2-0.8,0.5-1.2,0.9c1.2,0.2,4.5,0.8,9,4c5.8,4.2,8.8,7.9,12,8.5c0.1,0,0.2,0,0.4,0
		C367,331.1,367,331.1,367.1,331.1z"/>
	
		<linearGradient id="SVGID_39_" gradientUnits="userSpaceOnUse" x1="736.9393" y1="3436.7844" x2="749.7544" y2="3436.7844" gradientTransform="matrix(0.1065 0.9943 -0.9943 0.1065 3766.5793 -782.696)">
		<stop  offset="0" style="stop-color:#17488B"/>
		<stop  offset="6.881777e-02" style="stop-color:#0C4D8F"/>
		<stop  offset="0.1796" style="stop-color:#005999"/>
		<stop  offset="0.3185" style="stop-color:#006AAA"/>
		<stop  offset="0.4786" style="stop-color:#0084C7"/>
		<stop  offset="0.5187" style="stop-color:#008CD1"/>
		<stop  offset="0.6206" style="stop-color:#0073B1"/>
		<stop  offset="0.7347" style="stop-color:#005E9A"/>
		<stop  offset="0.8398" style="stop-color:#00508B"/>
		<stop  offset="0.9316" style="stop-color:#124683"/>
		<stop  offset="1" style="stop-color:#184380"/>
	</linearGradient>
	<path class="st40" d="M426.8,329.1C426.8,329.1,426.8,329.1,426.8,329.1c0.1,0,0.1,0.1,0.1,0.1c0,0,0,0,0,0c0,0,0,0,0,0
		c0,0,0,0,0.1,0c0,0,0,0,0,0c0,0,0,0,0.1,0c0,0,0,0,0,0c0.1,0,0.2,0,0.3-0.1c0,0,0,0,0.1,0c0,0,0,0,0.1,0c0,0,0.1,0,0.1,0
		c0,0,0,0,0.1,0c0,0,0.1-0.1,0.1-0.1c0,0,0,0,0.1,0c0.1,0,0.1-0.1,0.2-0.2c0,0,0,0,0,0c0.1-0.1,0.1-0.1,0.2-0.2c0,0,0,0,0-0.1
		c0.1-0.1,0.1-0.1,0.2-0.2c0,0,0,0,0.1-0.1c0.1-0.1,0.1-0.2,0.2-0.2c0,0,0,0,0.1-0.1c0.1-0.1,0.2-0.2,0.2-0.4
		c0.5-0.8,1.5-2.3,2.8-4.1c0.1-0.1,0.1-0.2,0.2-0.3c0-0.1-0.4-6.2-1.9-7c0,0-0.1,0-0.1,0c0,0,0,0-0.1,0c0,0-0.1,0-0.1,0
		c0,0,0,0-0.1,0c0,0,0,0-0.1,0c0,0,0,0-0.1,0c0,0,0,0-0.1,0c0,0,0,0-0.1,0c0,0,0,0-0.1,0c0,0,0,0-0.1,0c0,0,0,0-0.1,0
		c0,0,0,0-0.1,0.1c0,0,0,0-0.1,0c0,0,0,0-0.1,0.1c0,0,0,0-0.1,0.1c0,0-0.1,0-0.1,0.1c0,0,0,0-0.1,0.1c0,0-0.1,0.1-0.1,0.1
		c0,0,0,0-0.1,0.1c0,0-0.1,0.1-0.1,0.1c0,0,0,0-0.1,0.1c0,0-0.1,0.1-0.1,0.1c0,0,0,0-0.1,0.1c0,0-0.1,0.1-0.1,0.1c0,0,0,0-0.1,0.1
		c0,0-0.1,0.1-0.1,0.1c0,0,0,0,0,0.1c0,0-0.1,0.1-0.1,0.1c0,0,0,0,0,0c0,0.1-0.1,0.1-0.1,0.2c0,0,0,0,0,0c-0.3,0.4-0.5,0.9-0.8,1.4
		c0,0,0,0,0,0c0,0.1-0.1,0.2-0.1,0.2c0,0,0,0,0,0c0,0.1-0.1,0.2-0.1,0.2c0,0,0,0,0,0c0,0.1-0.1,0.2-0.1,0.2c0,0,0,0,0,0
		c0,0.1-0.1,0.2-0.1,0.2c0,0,0,0,0,0.1c0,0.1-0.1,0.2-0.1,0.2c-0.3,0.5-0.6,1-0.9,1.6C425.6,323,425.7,328.4,426.8,329.1z"/>
	
		<linearGradient id="SVGID_40_" gradientUnits="userSpaceOnUse" x1="731.3377" y1="3471.3" x2="748.5556" y2="3471.3" gradientTransform="matrix(0.1065 0.9943 -0.9943 0.1065 3766.5793 -782.696)">
		<stop  offset="0" style="stop-color:#0061AF"/>
		<stop  offset="0.5615" style="stop-color:#32C5F4"/>
		<stop  offset="0.624" style="stop-color:#34BDEE"/>
		<stop  offset="0.7271" style="stop-color:#31ADE3"/>
		<stop  offset="0.8578" style="stop-color:#3094D2"/>
		<stop  offset="1" style="stop-color:#2F77BC"/>
	</linearGradient>
	<path class="st41" d="M400.5,319.7c0,0,0-0.1,0.1-0.1c0-0.1,0.1-0.2,0.1-0.3c0,0,0,0,0-0.1c0.5-1.3,1.8-4.5,2.9-5.3c0,0,0,0,0,0
		c0,0,0.1-0.1,0.1-0.1c0,0,0,0,0,0c0,0,0.1,0,0.1,0c0,0,0,0,0.1,0c0,0,0,0,0.1,0c0,0,0,0,0,0c0,0,0,0,0,0c-2.2,0-4.4,0-6.6,0
		c0,0-1.7-0.2-4.5,5.8c-1.2,2.6-2.4,5.8-3.8,8.2c0,0,0,0,0,0c-0.4,0.7-0.9,1.4-1.3,1.9c0,0,0,0-0.1,0.1c-0.1,0.1-0.1,0.1-0.2,0.2
		c-0.1,0.1-0.1,0.2-0.2,0.2c0,0,0,0,0,0c-0.9,0.8-1.8,1.2-2.8,0.7c0,0-0.1,0-0.1-0.1c-0.1,0-0.1-0.1-0.2-0.1
		c-0.1-0.1-0.2-0.1-0.3-0.2c0,0,1.2,1.1,5,1.1c5.1-0.1,5.8-0.3,7.6-3.6C398.3,325,400.5,319.8,400.5,319.7
		C400.5,319.8,400.5,319.8,400.5,319.7C400.5,319.8,400.5,319.8,400.5,319.7z"/>
	
		<linearGradient id="SVGID_41_" gradientUnits="userSpaceOnUse" x1="734.7554" y1="3447.7839" x2="751.5275" y2="3447.7839" gradientTransform="matrix(0.1065 0.9943 -0.9943 0.1065 3766.5793 -782.696)">
		<stop  offset="0" style="stop-color:#0061AF"/>
		<stop  offset="0.5615" style="stop-color:#32C5F4"/>
		<stop  offset="0.624" style="stop-color:#34BDEE"/>
		<stop  offset="0.7271" style="stop-color:#31ADE3"/>
		<stop  offset="0.8578" style="stop-color:#3094D2"/>
		<stop  offset="1" style="stop-color:#2F77BC"/>
	</linearGradient>
	<path class="st42" d="M426.4,320.5c0-0.1,0.1-0.2,0.1-0.2c0,0,0,0,0-0.1c0-0.1,0.1-0.2,0.1-0.2c0,0,0,0,0,0c0-0.1,0.1-0.2,0.1-0.2
		c0,0,0,0,0,0c0-0.1,0.1-0.2,0.1-0.2c0,0,0,0,0,0c0-0.1,0.1-0.2,0.1-0.2c0,0,0,0,0,0c0.3-0.5,0.6-1,0.8-1.4c0,0,0,0,0,0
		c0-0.1,0.1-0.1,0.1-0.2c0,0,0,0,0,0c0,0,0.1-0.1,0.1-0.1c0,0,0,0,0-0.1c0,0,0.1-0.1,0.1-0.1c0,0,0,0,0.1-0.1c0,0,0.1-0.1,0.1-0.1
		c0,0,0,0,0.1-0.1c0,0,0.1-0.1,0.1-0.1c0,0,0,0,0.1-0.1c0,0,0.1-0.1,0.1-0.1c0,0,0,0,0.1-0.1c0,0,0.1-0.1,0.1-0.1c0,0,0,0,0.1-0.1
		c0,0,0.1,0,0.1-0.1c0,0,0,0,0.1-0.1c0,0,0,0,0.1-0.1c0,0,0,0,0.1,0c0,0,0,0,0.1-0.1c0,0,0,0,0.1,0c0,0,0,0,0.1,0c0,0,0,0,0.1,0
		c0,0,0,0,0.1,0c0,0,0,0,0.1,0c0,0,0,0,0.1,0c0,0,0,0,0.1,0c0,0,0,0,0.1,0c0,0,0.1,0,0.1,0c0,0,0,0,0.1,0c0,0,0.1,0,0.1,0
		c-2.2-0.5-4.4-0.9-6.5-1.4c0,0-2.3-0.7-4.2,2.8c-1.1,2.3-4.3,8.3-7.8,11.5c0,0,0,0,0,0l0,0c-0.2,0.1-0.3,0.3-0.5,0.4
		c-2.1,1.8-4.1,2.5-5.8,0.7c0,0,0.9,1.6,6.3,2.1c6.5,0.6,8-1.4,8.9-2.7c0,0,2.5-3.1,4.6-6.8c0.1-0.2,0.2-0.4,0.3-0.6v0
		C425.8,321.5,426.1,321,426.4,320.5z"/>
	
		<linearGradient id="SVGID_42_" gradientUnits="userSpaceOnUse" x1="728.9308" y1="3525.8511" x2="743.6972" y2="3525.8511" gradientTransform="matrix(0.1065 0.9943 -0.9943 0.1065 3766.5793 -782.696)">
		<stop  offset="0" style="stop-color:#0061AF"/>
		<stop  offset="0.4492" style="stop-color:#32C5F4"/>
		<stop  offset="0.5266" style="stop-color:#34BEEF"/>
		<stop  offset="0.6442" style="stop-color:#32B1E6"/>
		<stop  offset="0.7873" style="stop-color:#309CD7"/>
		<stop  offset="0.9491" style="stop-color:#3080C3"/>
		<stop  offset="1" style="stop-color:#2F77BC"/>
	</linearGradient>
	<path class="st43" d="M346.9,317.7c1.2-0.8,2.1-1.1,2.4-1.1c-0.9,0.1-9.1,1.3-13.6,5.3c-4.8,4.2-6.1,11.5-6.1,11.5
		c2.7-0.2,5.4-0.4,8.1-0.6c2-7.9,5.4-12,8-14.1c0,0,0,0,0,0C346,318.2,346.5,317.9,346.9,317.7z"/>
	
		<linearGradient id="SVGID_43_" gradientUnits="userSpaceOnUse" x1="731.6382" y1="3491.0854" x2="745.4839" y2="3491.0854" gradientTransform="matrix(0.1065 0.9943 -0.9943 0.1065 3766.5793 -782.696)">
		<stop  offset="0" style="stop-color:#0061AF"/>
		<stop  offset="0.5615" style="stop-color:#32C5F4"/>
		<stop  offset="0.624" style="stop-color:#34BDEE"/>
		<stop  offset="0.7271" style="stop-color:#31ADE3"/>
		<stop  offset="0.8578" style="stop-color:#3094D2"/>
		<stop  offset="1" style="stop-color:#2F77BC"/>
	</linearGradient>
	<path class="st44" d="M379.2,321c0-0.1,0-0.1,0-0.2c0,0,0,0,0,0c0.4-1.8,0.8-4.9,2.6-5.1c0,0-3.6,0.4-5.2,0.7
		c-1.6,0.3-3.1,0.6-3.8,3.9c-0.4,1.9-0.9,5.3-2.1,7.8c0,0,0,0,0,0c0,0.1-0.1,0.2-0.1,0.3c0,0,0,0,0,0.1c0,0.1-0.1,0.2-0.1,0.2
		c-0.1,0.1-0.1,0.2-0.2,0.3c0,0,0,0,0,0c0,0,0,0.1-0.1,0.1c0,0,0,0,0,0c-0.9,1.3-2,2.1-3.5,1.9c0,0,0.9,0.4,6.6-0.6
		c6.3-1.1,5.7-7.4,6-9.3c0,0,0,0,0,0C379.2,321.1,379.2,321.1,379.2,321z"/>
	
		<linearGradient id="SVGID_44_" gradientUnits="userSpaceOnUse" x1="729.3094" y1="3414.1924" x2="749.4459" y2="3434.0413" gradientTransform="matrix(0.1065 0.9943 -0.9943 0.1065 3766.5793 -782.696)">
		<stop  offset="0" style="stop-color:#0061AF"/>
		<stop  offset="0.7059" style="stop-color:#32C5F4"/>
		<stop  offset="0.7473" style="stop-color:#34BEEF"/>
		<stop  offset="0.8122" style="stop-color:#31B0E5"/>
		<stop  offset="0.8925" style="stop-color:#3099D5"/>
		<stop  offset="0.9843" style="stop-color:#2F7CC0"/>
		<stop  offset="1" style="stop-color:#2F77BC"/>
	</linearGradient>
	<path class="st45" d="M433.8,320.5c-0.6,0.9-1.2,1.7-1.7,2.5c0,0,0,0,0,0c-0.1,0.1-0.1,0.2-0.2,0.3c-1.3,1.9-2.3,3.4-2.8,4.1
		c-0.1,0.1-0.2,0.3-0.2,0.4c0,0,0,0-0.1,0.1c-0.1,0.1-0.1,0.2-0.2,0.2c0,0,0,0-0.1,0.1c-0.1,0.1-0.1,0.1-0.2,0.2c0,0,0,0,0,0.1
		c-0.1,0.1-0.1,0.1-0.2,0.2c0,0,0,0,0,0c-0.1,0.1-0.1,0.1-0.2,0.2c0,0,0,0-0.1,0c0,0-0.1,0.1-0.1,0.1c0,0,0,0-0.1,0c0,0-0.1,0-0.1,0
		c0,0,0,0-0.1,0c0,0,0,0-0.1,0c-0.1,0-0.2,0.1-0.3,0.1c0,0,0,0,0,0c0,0,0,0-0.1,0c0,0,0,0,0,0c0,0,0,0-0.1,0c0,0,0,0,0,0
		c0,0,0,0,0,0c0,0,0,0-0.1,0l0,0c-0.1,0-0.1,0-0.1,0c0.6,0.7,2.8,1.8,5.2,2.7c0.8,0.3,1.8-0.2,2.9-1.1L433.8,320.5z"/>
</g>
<g>
	
		<linearGradient id="SVGID_45_" gradientUnits="userSpaceOnUse" x1="3610.5295" y1="2548.7722" x2="3634.2612" y2="2548.7722" gradientTransform="matrix(-0.9672 0.2542 0.2542 0.9672 2975.1968 -3313.5635)">
		<stop  offset="0" style="stop-color:#00A856"/>
		<stop  offset="8.659820e-02" style="stop-color:#00AA57"/>
		<stop  offset="0.226" style="stop-color:#00AF5A"/>
		<stop  offset="0.3996" style="stop-color:#52BA61"/>
		<stop  offset="0.5134" style="stop-color:#76C267"/>
		<stop  offset="0.6461" style="stop-color:#45A957"/>
		<stop  offset="0.7859" style="stop-color:#00984D"/>
		<stop  offset="0.9086" style="stop-color:#008E48"/>
		<stop  offset="1" style="stop-color:#008B46"/>
	</linearGradient>
	<path class="st46" d="M108.3,68.9c0.1-0.3,0.2-0.5,0.3-0.8c0.2,0,6.3,0.3,13.6,0.2c7,0,8.5,0.5,9.2,2c0,0,0,0.1,0,0.1
		c0,0,0,0.1,0,0.1c0,0,0,0.1,0,0.1c0,0,0,0,0,0.1c0,0.1,0,0.1,0,0.2c0,0,0,0,0,0c-0.5,1.8-3.9,5-5.3,6.2c0,0-0.1,0.1-0.1,0.1
		c-0.1,0.1-0.2,0.2-0.3,0.2c-0.1,0.1-0.1,0.1-0.1,0.1c0,0-0.1,0.1-0.1,0.1c0,0,0,0,0,0c0,0-8.6,0.9-15.3-1.2
		c-0.1-0.1-0.2-0.1-0.4-0.2C107.2,75,107.1,72.2,108.3,68.9z"/>
	
		<linearGradient id="SVGID_46_" gradientUnits="userSpaceOnUse" x1="3610.0066" y1="2578.2573" x2="3631.3757" y2="2578.2573" gradientTransform="matrix(-0.9672 0.2542 0.2542 0.9672 2975.1968 -3313.5635)">
		<stop  offset="0" style="stop-color:#00A856"/>
		<stop  offset="8.659820e-02" style="stop-color:#00AA57"/>
		<stop  offset="0.226" style="stop-color:#00AF5A"/>
		<stop  offset="0.3996" style="stop-color:#52BA61"/>
		<stop  offset="0.5134" style="stop-color:#76C267"/>
		<stop  offset="0.6461" style="stop-color:#45A957"/>
		<stop  offset="0.7859" style="stop-color:#00984D"/>
		<stop  offset="0.9086" style="stop-color:#008E48"/>
		<stop  offset="1" style="stop-color:#008B46"/>
	</linearGradient>
	<path class="st47" d="M119,103.5c0,0-0.1-0.1-0.1-0.1c-1-1.1-1.1-2.4-0.4-3.9c0,0,0,0,0,0c0.1-0.1,0.1-0.3,0.2-0.4
		c0-0.1,0.1-0.2,0.1-0.3c0,0,0-0.1,0.1-0.1c0.5-0.8,1.1-1.7,1.8-2.6c0.1,0,3.3,0.9,8.6,0.6c5.4-0.3,9.8,0.7,10.3,2.9
		c0.6,2.3-3.1,4.3-5.2,5.7c0,0,0,0,0,0c-0.1,0-0.1,0.1-0.2,0.1c0,0-0.1,0.1-0.1,0.1c-0.8-0.1-4.9-0.5-7.3-0.5
		c-2.7,0-6.1-0.1-7.1-0.9c-0.1-0.1-0.2-0.2-0.4-0.3C119.1,103.6,119.1,103.5,119,103.5z"/>
	
		<linearGradient id="SVGID_47_" gradientUnits="userSpaceOnUse" x1="3625.5466" y1="2599.0662" x2="3606.4626" y2="2623.9924" gradientTransform="matrix(-0.9672 0.2542 0.2542 0.9672 2975.1968 -3313.5635)">
		<stop  offset="0" style="stop-color:#00A856"/>
		<stop  offset="8.659820e-02" style="stop-color:#00AA57"/>
		<stop  offset="0.226" style="stop-color:#00AF5A"/>
		<stop  offset="0.3996" style="stop-color:#52BA61"/>
		<stop  offset="0.5134" style="stop-color:#76C267"/>
		<stop  offset="0.6461" style="stop-color:#45A957"/>
		<stop  offset="0.7859" style="stop-color:#00984D"/>
		<stop  offset="0.9086" style="stop-color:#008E48"/>
		<stop  offset="1" style="stop-color:#008B46"/>
	</linearGradient>
	<path class="st48" d="M127.2,125.4c0-0.1-0.1-0.2-0.1-0.3c0-0.1,0-0.1,0-0.2c0-0.1,0-0.2-0.1-0.3c0-0.1,0-0.1,0-0.2
		c0-0.1,0-0.2,0-0.3c0-0.1,0-0.1,0-0.2c0-0.1,0-0.2,0-0.3c0-0.1,0-0.1,0-0.2c0-0.1,0-0.2,0-0.3c0,0,0-0.1,0-0.1
		c0-0.1,0.1-0.3,0.1-0.4c0-0.1,0-0.1,0.1-0.2c0-0.1,0.1-0.2,0.1-0.2c0-0.1,0.1-0.2,0.1-0.2c0-0.1,0.1-0.1,0.1-0.2
		c0-0.1,0.1-0.2,0.1-0.2c0-0.1,0.1-0.1,0.1-0.2c0-0.1,0.1-0.2,0.2-0.3c0-0.1,0.1-0.1,0.1-0.2c0.1-0.1,0.1-0.2,0.2-0.3
		c0-0.1,0.1-0.1,0.1-0.2c0.1-0.1,0.2-0.3,0.3-0.4c0.1-0.1,0.2-0.2,0.2-0.3c0,0,0,0,0.1-0.1c0.1-0.1,0.2-0.2,0.3-0.3
		c0.1,0.1,3.2,2.9,9.5,4.8c6.1,1.8,14.2,8.1,15.6,16.6c0.1,0.4,0.1,1.7-0.2,3.6c-0.1,0.6-0.3,1.3-0.5,2c-0.8-1.4-3.1-5.3-9.4-9.4
		c-8.1-5.3-14.2-7.4-16.6-11c-0.1-0.1-0.2-0.3-0.2-0.4C127.3,125.5,127.2,125.5,127.2,125.4z"/>
	
		<linearGradient id="SVGID_48_" gradientUnits="userSpaceOnUse" x1="3609.5955" y1="2564.708" x2="3632.9063" y2="2564.708" gradientTransform="matrix(-0.9672 0.2542 0.2542 0.9672 2975.1968 -3313.5635)">
		<stop  offset="0" style="stop-color:#76C267"/>
		<stop  offset="0.1035" style="stop-color:#82C566"/>
		<stop  offset="0.2828" style="stop-color:#9FCE63"/>
		<stop  offset="0.5153" style="stop-color:#CBDD5C"/>
		<stop  offset="0.5615" style="stop-color:#D5E05B"/>
		<stop  offset="1" style="stop-color:#A7D062"/>
	</linearGradient>
	<path class="st49" d="M125.5,77.6c0,0,0.1-0.1,0.1-0.1c0.1-0.1,0.2-0.2,0.3-0.2c0,0,0.1,0,0.1-0.1c1.4-1.3,4.8-4.5,5.3-6.2
		c0,0,0,0,0,0c0-0.1,0-0.1,0-0.2c0,0,0,0,0-0.1c0-0.1,0-0.1,0-0.1c0,0,0-0.1,0-0.1c0,0,0-0.1,0-0.1c0,0,0,0,0,0c0,0,0,0,0,0
		c1.1,2.8,2.1,5.6,3.1,8.4c0,0,1.1,2.1-5.2,8.5c-2.7,2.8-6.2,5.8-8.6,8.7c0,0,0,0,0,0c-0.7,0.9-1.4,1.8-1.8,2.6c0,0,0,0.1-0.1,0.1
		c-0.1,0.1-0.1,0.2-0.1,0.3c-0.1,0.1-0.1,0.3-0.2,0.4c0,0,0,0,0,0c-0.6,1.5-0.6,2.9,0.4,3.9c0,0,0.1,0.1,0.1,0.1
		c0.1,0.1,0.1,0.1,0.2,0.2c0.1,0.1,0.2,0.2,0.4,0.3c0,0-2-1-3.8-5.8c-2.3-6.5-2.5-7.5,0.9-11.3C120,83,125.4,77.7,125.5,77.6
		C125.4,77.7,125.4,77.7,125.5,77.6C125.5,77.7,125.5,77.6,125.5,77.6z"/>
	
		<linearGradient id="SVGID_49_" gradientUnits="userSpaceOnUse" x1="3606.3337" y1="2638.5642" x2="3626.3252" y2="2638.5642" gradientTransform="matrix(-0.9672 0.2542 0.2542 0.9672 2975.1968 -3313.5635)">
		<stop  offset="0" style="stop-color:#56BB68"/>
		<stop  offset="6.944222e-02" style="stop-color:#64BE68"/>
		<stop  offset="0.1911" style="stop-color:#86C665"/>
		<stop  offset="0.3494" style="stop-color:#B5D560"/>
		<stop  offset="0.4492" style="stop-color:#D5E05B"/>
		<stop  offset="0.7025" style="stop-color:#BED85F"/>
		<stop  offset="1" style="stop-color:#A7D062"/>
	</linearGradient>
	<path class="st50" d="M154,144.5c0.4-1.9,0.3-3.2,0.2-3.6c0.4,1.2,2.8,12.1-0.1,19.8c-3.1,8.1-11.6,13.2-11.6,13.3
		c-1-3.5-2.1-7-3.1-10.6c9-6.3,12.6-12.6,14-16.9c0,0,0,0,0,0C153.7,145.8,153.9,145.1,154,144.5z"/>
	
		<linearGradient id="SVGID_50_" gradientUnits="userSpaceOnUse" x1="3610.0015" y1="2591.4951" x2="3628.7461" y2="2591.4951" gradientTransform="matrix(-0.9672 0.2542 0.2542 0.9672 2975.1968 -3313.5635)">
		<stop  offset="0" style="stop-color:#76C267"/>
		<stop  offset="7.828128e-02" style="stop-color:#7EC466"/>
		<stop  offset="0.1934" style="stop-color:#93CA64"/>
		<stop  offset="0.3305" style="stop-color:#B3D460"/>
		<stop  offset="0.4545" style="stop-color:#D5E05B"/>
		<stop  offset="1" style="stop-color:#A7D062"/>
	</linearGradient>
	<path class="st51" d="M134.1,105.3c0.1,0,0.1-0.1,0.2-0.1c0,0,0,0,0,0c2.1-1.4,5.8-3.4,5.2-5.7c0,0,1.2,4.8,1.6,7
		c0.4,2.2,0.7,4.2-3.1,6.7c-2.2,1.4-6.3,3.7-8.9,6.4c0,0,0,0,0,0c-0.1,0.1-0.2,0.2-0.3,0.3c0,0,0,0-0.1,0.1
		c-0.1,0.1-0.2,0.2-0.2,0.3c-0.1,0.1-0.2,0.3-0.3,0.4c0,0,0,0,0,0c0,0-0.1,0.1-0.1,0.1c0,0,0,0,0,0c-1.3,1.7-1.7,3.6-0.7,5.3
		c0,0-0.9-0.9-2.4-8.6c-1.6-8.6,6.7-10.8,8.9-12.1c0,0,0,0,0,0C134.1,105.3,134.1,105.3,134.1,105.3z"/>
</g>
<g>
	
		<linearGradient id="SVGID_51_" gradientUnits="userSpaceOnUse" x1="479.2975" y1="2499.7617" x2="691.6917" y2="2499.7617" gradientTransform="matrix(0.6889 0.7248 -0.7248 0.6889 1525.3414 -1771.15)">
		<stop  offset="0" style="stop-color:#ED1D32"/>
		<stop  offset="0.1604" style="stop-color:#F48584"/>
		<stop  offset="0.4973" style="stop-color:#D2232A"/>
		<stop  offset="0.9037" style="stop-color:#F27697"/>
		<stop  offset="1" style="stop-color:#ED1D32"/>
	</linearGradient>
	<path class="st52" d="M268.3,377.7c-12.5,7.4-52.1-18.5-90.7-59.8c-38.6-41.2-62-82.8-54.1-95.1l-0.1-0.1l-90,212.5
		c-4.5,10.5,5.6,21.6,16.3,17.9l218.8-75.3L268.3,377.7z"/>
	
		<linearGradient id="SVGID_52_" gradientUnits="userSpaceOnUse" x1="479.2975" y1="2416.583" x2="691.6917" y2="2416.583" gradientTransform="matrix(0.6889 0.7248 -0.7248 0.6889 1525.3414 -1771.15)">
		<stop  offset="0" style="stop-color:#FCCD0D"/>
		<stop  offset="7.613923e-02" style="stop-color:#FCD318"/>
		<stop  offset="0.1604" style="stop-color:#FEDE2E"/>
		<stop  offset="0.2699" style="stop-color:#FBCD27"/>
		<stop  offset="0.4115" style="stop-color:#F8BA21"/>
		<stop  offset="0.4973" style="stop-color:#F7B41F"/>
		<stop  offset="0.5802" style="stop-color:#F8BA20"/>
		<stop  offset="0.716" style="stop-color:#FBCC23"/>
		<stop  offset="0.877" style="stop-color:#FFE729"/>
		<stop  offset="0.9438" style="stop-color:#FEDA1A"/>
		<stop  offset="1" style="stop-color:#FCCD0D"/>
	</linearGradient>
	<path class="st53" d="M268.3,377.7c-3.8,2.2-10.1,1.4-18.1-2c-18.4-7.8-45.7-29.1-72.6-57.8c-26.9-28.7-46.4-57.6-53.1-76.6
		c-2.9-8.3-3.4-14.7-1-18.5l-0.1-0.1l-6.8,16l-9.8,23.2l-0.6,1.3c7.6,19,26.5,46.3,51.9,73.5c24.7,26.4,49.9,46.5,68,55.7l2.5-0.9
		l23.6-8.1l16.1-5.6L268.3,377.7z"/>
	
		<linearGradient id="SVGID_53_" gradientUnits="userSpaceOnUse" x1="510.9512" y1="2480.9604" x2="658.3744" y2="2480.9604" gradientTransform="matrix(0.6889 0.7248 -0.7248 0.6889 1525.3414 -1771.15)">
		<stop  offset="0" style="stop-color:#FCCD0D"/>
		<stop  offset="7.613923e-02" style="stop-color:#FCD318"/>
		<stop  offset="0.1604" style="stop-color:#FEDE2E"/>
		<stop  offset="0.2699" style="stop-color:#FBCD27"/>
		<stop  offset="0.4115" style="stop-color:#F8BA21"/>
		<stop  offset="0.4973" style="stop-color:#F7B41F"/>
		<stop  offset="0.5802" style="stop-color:#F8BA20"/>
		<stop  offset="0.716" style="stop-color:#FBCC23"/>
		<stop  offset="0.877" style="stop-color:#FFE729"/>
		<stop  offset="0.9438" style="stop-color:#FEDA1A"/>
		<stop  offset="1" style="stop-color:#FCCD0D"/>
	</linearGradient>
	<path class="st54" d="M138,356.2c-20-21.4-36-42.9-45.6-60.4l-6.9,16.2l-6.3,14.9c9.6,14.9,22.9,31.9,38.6,48.7
		c14.6,15.6,29.4,29.1,42.8,39.3l16.6-5.7l15.4-5.3C176.5,393.3,157.1,376.6,138,356.2z"/>
	
		<linearGradient id="SVGID_54_" gradientUnits="userSpaceOnUse" x1="537.5135" y1="2539.4849" x2="630.7179" y2="2539.4849" gradientTransform="matrix(0.6889 0.7248 -0.7248 0.6889 1525.3414 -1771.15)">
		<stop  offset="0" style="stop-color:#FCCD0D"/>
		<stop  offset="7.613923e-02" style="stop-color:#FCD318"/>
		<stop  offset="0.1604" style="stop-color:#FEDE2E"/>
		<stop  offset="0.2699" style="stop-color:#FBCD27"/>
		<stop  offset="0.4115" style="stop-color:#F8BA21"/>
		<stop  offset="0.4973" style="stop-color:#F7B41F"/>
		<stop  offset="0.5802" style="stop-color:#F8BA20"/>
		<stop  offset="0.716" style="stop-color:#FBCC23"/>
		<stop  offset="0.877" style="stop-color:#FFE729"/>
		<stop  offset="0.9438" style="stop-color:#FEDA1A"/>
		<stop  offset="1" style="stop-color:#FCCD0D"/>
	</linearGradient>
	<path class="st55" d="M97.8,395.1c-12.1-12.9-22.7-25.9-31.3-37.9l-4,9.4l-8.6,20.3c7,9,15,18.4,23.7,27.8
		c7.3,7.8,14.6,15,21.7,21.5l21.9-7.5l8.5-2.9C119.4,416.9,108.5,406.6,97.8,395.1z"/>
	
		<linearGradient id="SVGID_55_" gradientUnits="userSpaceOnUse" x1="563.8011" y1="2596.9033" x2="603.438" y2="2596.9033" gradientTransform="matrix(0.6889 0.7248 -0.7248 0.6889 1525.3414 -1771.15)">
		<stop  offset="0" style="stop-color:#FCCD0D"/>
		<stop  offset="7.613923e-02" style="stop-color:#FCD318"/>
		<stop  offset="0.1604" style="stop-color:#FEDE2E"/>
		<stop  offset="0.2699" style="stop-color:#FBCD27"/>
		<stop  offset="0.4115" style="stop-color:#F8BA21"/>
		<stop  offset="0.4973" style="stop-color:#F7B41F"/>
		<stop  offset="0.5802" style="stop-color:#F8BA20"/>
		<stop  offset="0.716" style="stop-color:#FBCC23"/>
		<stop  offset="0.877" style="stop-color:#FFE729"/>
		<stop  offset="0.9438" style="stop-color:#FEDA1A"/>
		<stop  offset="1" style="stop-color:#FCCD0D"/>
	</linearGradient>
	<path class="st56" d="M56.2,435.3c-5.5-5.8-10.6-11.7-15.4-17.4l-7.4,17.4c-4.5,10.5,5.6,21.6,16.3,17.9l17.9-6.2
		C63.8,443.3,60,439.4,56.2,435.3z"/>
	<polygon class="st57" points="119.8,246.8 36.7,440.1 136.7,275.4 	"/>
	<polygon class="st57" points="244.4,382.6 47.2,448.8 218,362.9 	"/>
</g>
</svg>
