<?xml version="1.0" encoding="UTF-8"?>
<svg width="1440px" height="217px" viewBox="0 0 1440 217" version="1.1" xmlns="http://www.w3.org/2000/svg" xmlns:xlink="http://www.w3.org/1999/xlink">
    <!-- Generator: Sketch 55.2 (78181) - https://sketchapp.com -->
    <title>Slice</title>
    <desc>Created with Sketch.</desc>
    <defs>
        <linearGradient x1="100%" y1="58.6805556%" x2="0%" y2="41.3194444%" id="linearGradient-1">
            <stop stop-color="#1996A4" offset="0%"></stop>
            <stop stop-color="#5577FF" offset="100%"></stop>
        </linearGradient>
        <rect id="path-2" x="0" y="0" width="1440" height="600"></rect>
    </defs>
    <g id="Landing-page" stroke="none" stroke-width="1" fill="none" fill-rule="evenodd">
        <g id="Group-8-Copy" transform="translate(0.000000, -383.000000)">
            <mask id="mask-3" fill="white">
                <use xlink:href="#path-2"></use>
            </mask>
            <g id="Mask"></g>
            <g id="Group-53" mask="url(#mask-3)">
                <g transform="translate(-808.000000, 385.000000)">
                    <circle id="Oval" fill="#FFFFFF" opacity="0.100000001" cx="2182.5" cy="27.5" r="27.5"></circle>
                    <circle id="Oval-Copy-4" fill="#FFFFFF" opacity="0.100000001" cx="1643.5" cy="49.5" r="13.5"></circle>
                    <g id="wave" stroke-width="1" fill="none" transform="translate(0.000000, 19.000000)"></g>
                    <path d="M0,117.883585 L17.1319444,129.983301 C34.2638889,141.630693 68.5277778,166.508615 102.791667,202.35544 C137.055556,238.880754 171.319444,286.374969 205.583333,262.627862 C239.847222,238.880754 274.111111,141.630693 308.375,99.79055 C342.638889,57.9504074 376.902778,69.258554 411.166667,75.7041976 C445.430556,81.6975153 479.694444,81.6975153 513.958333,81.6975153 C548.222222,81.6975153 582.486111,81.6975153 616.75,63.6044807 C651.013889,45.5114461 685.277778,9.32537687 719.541667,21.4250938 C753.805556,33.0724848 848.498034,174.67348 902.533917,174.67348 C956.5698,174.67348 948.6573,68 1027.91667,52 C1107.17603,36 1214.5,185.913948 1251.5,185.913948 C1288.5,185.913948 1302.02778,141.630693 1336.29167,105.783868 C1370.55556,69.258554 1404.81944,57.9504074 1439.08333,69.5977984 C1473.34722,81.6975153 1507.61111,117.883585 1541.875,117.883585 C1576.13889,117.883585 1610.40278,81.6975153 1644.66667,81.6975153 C1678.93056,81.6975153 1707.43412,141.969937 1741.69801,135.976619 C1775.9619,129.530976 1809,63 1850.25,63.6044807 C1891.5,64.2089615 1953.04167,177 2029.31105,185.913948 C2105.58044,194.827896 2124.36111,105.444623 2158.625,87.6908331 C2192.88889,69.258554 2227.15278,94.1364766 2261.41667,135.976619 C2295.68056,177.816762 2329.94444,238.880754 2364.20833,232.43511 C2398.47222,226.441792 2432.73611,154.069654 2449.86806,117.883585 L2467,81.6975153 L2467,335 L2449.86806,335 C2432.73611,335 2398.47222,335 2364.20833,335 C2329.94444,335 2295.68056,335 2261.41667,335 C2227.15278,335 2192.88889,335 2158.625,335 C2124.36111,335 2090.09722,335 2055.83333,335 C2021.56944,335 1987.30556,335 1953.04167,335 C1918.77778,335 1884.51389,335 1850.25,335 C1815.98611,335 1781.72222,335 1747.45833,335 C1713.19444,335 1678.93056,335 1644.66667,335 C1610.40278,335 1576.13889,335 1541.875,335 C1507.61111,335 1473.34722,335 1439.08333,335 C1404.81944,335 1370.55556,335 1336.29167,335 C1302.02778,335 1267.76389,335 1233.5,335 C1199.23611,335 1164.97222,335 1130.70833,335 C1096.44444,335 1062.18056,335 1027.91667,335 C993.652778,335 959.388889,335 925.125,335 C890.861111,335 856.597222,335 822.333333,335 C788.069444,335 753.805556,335 719.541667,335 C685.277778,335 651.013889,335 616.75,335 C582.486111,335 548.222222,335 513.958333,335 C479.694444,335 445.430556,335 411.166667,335 C376.902778,335 342.638889,335 308.375,335 C274.111111,335 239.847222,335 205.583333,335 C171.319444,335 137.055556,335 102.791667,335 C68.5277778,335 34.2638889,335 17.1319444,335 L0,335 L0,117.883585 Z" id="Path" fill="#FFFFFF" opacity="0.100000001"></path>
                </g>
            </g>
        </g>
    </g>
</svg>