<?xml version="1.0" encoding="UTF-8"?>
<svg width="26px" height="26px" viewBox="0 0 26 26" version="1.1" xmlns="http://www.w3.org/2000/svg" xmlns:xlink="http://www.w3.org/1999/xlink">
  <!-- Generator: Sketch 50.2 (55047) - http://www.bohemiancoding.com/sketch -->
  <title>BTC</title>
  <desc>Created with Sketch.</desc>
  <defs></defs>
  <g id="Desktop" stroke="none" stroke-width="1" fill="none" fill-rule="evenodd">
    <g id="my-wallet-1.7" transform="translate(-514.000000, -381.000000)">
      <g id="pop-out" transform="translate(470.000000, 207.000000)">
        <g id="Group-7" transform="translate(26.000000, 160.000000)">
          <g id="Group-3">
            <g id="Group-2" transform="translate(18.000000, 14.000000)">
              <g id="BTC">
                <path d="M25.8895711,13.0642109 C25.8895711,20.2082607 20.0982975,25.9995343 12.9542478,25.9995343 C5.81019801,25.9995343 0.0189243781,20.2082607 0.0189243781,13.0642109 C0.0189243781,5.92016119 5.81019801,0.128887562 12.9542478,0.128887562 C20.0982975,0.128887562 25.8895711,5.92016119 25.8895711,13.0642109" id="Fill-504" fill="#F7931A"></path>
                <path d="M16.0949055,16.8446368 C15.9866368,17.2085075 15.7430647,17.5083483 15.4090746,17.6889254 C15.0750846,17.8697612 14.6909055,17.909602 14.3270348,17.801204 L10.6843184,16.7163184 L11.4958806,13.9917512 L15.1383383,15.0767662 L15.1384677,15.0767662 C15.8894925,15.3004179 16.3186866,16.0934826 16.0949055,16.8446368 M17.3235025,11.2611045 C17.5040796,11.5950945 17.5439204,11.9792736 17.4356517,12.3432736 C17.2118706,13.0941692 16.4184179,13.5231045 15.6677811,13.2998408 L15.6676517,13.2998408 L12.0250647,12.2149552 L12.8363682,9.49038806 L16.4790846,10.5752736 C16.8429552,10.6836716 17.142796,10.9271144 17.3235025,11.2611045 M18.9541294,10.3789154 C18.5377413,9.60939303 17.846607,9.048 17.0082687,8.79834826 L16.5262985,8.65489552 L17.201005,6.38940299 L15.4698706,5.873801 L14.7951642,8.13929353 L13.3171741,7.69910448 L13.99201,5.43361194 L13.5773035,5.3100796 L11.8972637,4.80974129 L11.2468756,6.99348259 L9.19947264,6.38371144 L8.62165174,8.32400995 L10.6690547,8.93391045 L8.56564179,15.9963383 L6.51823881,15.3865672 L5.94041791,17.326995 L7.98769154,17.9366368 L7.43884577,19.779791 L7.85342289,19.9033234 L9.53346269,20.4036617 L10.1067562,18.4787562 L11.5882388,18.9199801 L11.0149453,20.8450149 L12.7390945,21.3585473 L13.3123881,19.4335124 L13.7977214,19.578 C14.1071343,19.6700995 14.4231443,19.7157612 14.7372139,19.7157612 C15.2740299,19.7157612 15.805801,19.582398 16.2912637,19.3196816 C17.0607861,18.9032935 17.6220498,18.2122886 17.8718308,17.3736915 C18.1344179,16.4916318 18.004806,15.5855124 17.5871244,14.8396617 C18.345393,14.4439701 18.949602,13.7549055 19.2124478,12.8724577 C19.4622289,12.0338607 19.3703881,11.1483085 18.9541294,10.3789154" id="Fill-505" fill="#FFFFFF"></path>
              </g>
            </g>
          </g>
        </g>
      </g>
    </g>
  </g>
</svg>
