<?xml version="1.0" encoding="UTF-8"?>
<svg width="26px" height="27px" viewBox="0 0 26 27" version="1.1" xmlns="http://www.w3.org/2000/svg" xmlns:xlink="http://www.w3.org/1999/xlink">
    <!-- Generator: Sketch 51.2 (57519) - http://www.bohemiancoding.com/sketch -->
    <title>Swiss franc</title>
    <desc>Created with Sketch.</desc>
    <defs></defs>
    <g id="Desktop" stroke="none" stroke-width="1" fill="none" fill-rule="evenodd">
        <g id="my-wallet-1.7" transform="translate(-514.000000, -502.000000)">
            <g id="pop-out" transform="translate(470.000000, 207.000000)">
                <g id="Group-7" transform="translate(26.000000, 160.000000)">
                    <g id="Group-6" transform="translate(0.000000, 120.000000)">
                        <g id="Group-5">
                            <g id="Swiss-franc" transform="translate(18.000000, 15.320000)">
                                <circle id="Oval" fill="#FFFFFF" cx="13" cy="12" r="10"></circle>
                                <path d="M13,0 C5.83174468,0 0,5.83174468 0,13 C0,20.1682553 5.83174468,26 13,26 C20.1682553,26 26,20.1682553 26,13 C26,5.83174468 20.1682553,0 13,0 Z M17.5798723,8.75875988 C17.5798723,8.88970821 17.4737386,8.99584195 17.3427903,8.99584195 L12.0948997,8.99584195 L12.0948997,11.2625046 L16.0266687,11.2625046 C16.157617,11.2625046 16.2637508,11.3686383 16.2637508,11.4995866 L16.2637508,13.3172158 C16.2637508,13.4481641 16.157617,13.5542979 16.0266687,13.5542979 L12.0948997,13.5542979 L12.0948997,15.3719271 L13.2407964,15.3719271 C13.3717447,15.3719271 13.4778784,15.4780608 13.4778784,15.6090091 L13.4778784,17.0315015 C13.4778784,17.1624498 13.3717447,17.2685836 13.2407964,17.2685836 L12.0948997,17.2685836 L12.0948997,18.6637325 C12.0948997,18.7946809 11.988766,18.9008146 11.8578176,18.9008146 L10.0401884,18.9008146 C9.90924012,18.9008146 9.80310638,18.7946809 9.80310638,18.6637325 L9.80310638,17.2685836 L8.65720973,17.2685836 C8.5262614,17.2685836 8.42012766,17.1624498 8.42012766,17.0315015 L8.42012766,15.6090091 C8.42012766,15.4780608 8.5262614,15.3719271 8.65720973,15.3719271 L9.80310638,15.3719271 L9.80310638,6.9411307 C9.80310638,6.81018237 9.90924012,6.70404863 10.0401884,6.70404863 L17.3427903,6.70404863 C17.4737386,6.70404863 17.5798723,6.81018237 17.5798723,6.9411307 L17.5798723,8.75875988 Z" id="Shape" fill="#003945" fill-rule="nonzero"></path>
                            </g>
                        </g>
                    </g>
                </g>
            </g>
        </g>
    </g>
</svg>