<?xml version="1.0" encoding="UTF-8"?>
<svg width="26px" height="26px" viewBox="0 0 26 26" version="1.1" xmlns="http://www.w3.org/2000/svg" xmlns:xlink="http://www.w3.org/1999/xlink">
    <!-- Generator: Sketch 51.2 (57519) - http://www.bohemiancoding.com/sketch -->
    <title>REP</title>
    <desc>Created with Sketch.</desc>
    <defs></defs>
    <g id="Desktop" stroke="none" stroke-width="1" fill="none" fill-rule="evenodd">
        <g id="my-wallet-1.7" transform="translate(-514.000000, -441.000000)">
            <g id="pop-out" transform="translate(470.000000, 207.000000)">
                <g id="Group-7" transform="translate(26.000000, 160.000000)">
                    <g id="Group-4" transform="translate(0.000000, 60.000000)">
                        <g id="Group-2" transform="translate(18.000000, 14.320000)">
                            <g id="REP">
                                <path d="M25.6290285,12.8850596 C25.6290285,19.9527782 19.8995284,25.6824062 12.8316819,25.6824062 C5.7639633,25.6824062 0.0343352809,19.9527782 0.0343352809,12.8850596 C0.0343352809,5.81721306 5.7639633,0.0877130136 12.8316819,0.0877130136 C19.8995284,0.0877130136 25.6290285,5.81721306 25.6290285,12.8850596" id="Fill-89" fill="#602453"></path>
                                <path d="M12.4894424,5.09729833 C12.4857312,5.09563467 12.481892,5.09409899 12.4780528,5.09243534 C10.4373879,8.75874716 8.39672302,12.425059 6.35605814,16.0913708 C6.38408433,16.0880435 6.40289642,16.0778056 6.4218365,16.0674398 C6.63593611,15.950472 6.84811611,15.830049 7.06451924,15.7173044 C7.56719902,15.4553427 8.08011667,15.2165442 8.61978078,15.038917 C8.75632846,14.9938704 8.89671536,14.9776177 9.0387659,14.985936 C9.35537226,15.0046201 9.64638392,15.1125018 9.92779757,15.251225 C10.3562527,15.4623812 10.7252002,15.7537768 11.078535,16.0728147 C11.4153611,16.3768796 11.8146384,16.5748546 12.2612658,16.6686591 C12.3795132,16.693486 12.4998083,16.7082029 12.6249663,16.7286787 C12.616904,16.7399403 12.612169,16.7492824 12.6050025,16.756193 C12.4318544,16.9210228 12.2781582,17.1008255 12.1624702,17.3117258 C12.1547918,17.3258029 12.1172956,17.3357848 12.0993793,17.330026 C11.8841279,17.2605364 11.6642695,17.2014127 11.4570805,17.1127271 C11.1665807,16.9882089 10.8879825,16.837968 10.6507197,16.6223327 C10.3902937,16.3855818 10.1102877,16.1744256 9.80635075,15.9962865 C9.60312889,15.8772712 9.39555593,15.7655504 9.16481977,15.7083462 C9.05924166,15.6822396 8.95084813,15.6569009 8.84245461,15.6938852 C8.70040406,15.7422592 8.55822554,15.7911451 8.41847851,15.8460457 C7.83709506,16.0743503 7.28783294,16.3679215 6.74548139,16.6751858 C6.60560639,16.7545293 6.46829087,16.8386079 6.32329693,16.9242221 C8.37586335,18.1466247 10.4213912,19.3649321 12.4793325,20.590406 L12.4793325,20.4944259 C12.4793325,19.6959994 12.4792046,18.897573 12.4794605,18.0992745 C12.4794605,18.0556355 12.4793325,18.0118686 12.4841955,17.9687416 C12.5147812,17.7006372 12.641091,17.4769395 12.8139832,17.2775569 C13.1362203,16.905794 13.5456075,16.6563737 13.9850683,16.4494406 C14.6365813,16.1425602 15.1050921,15.66138 15.3716608,14.9886235 C15.3813868,14.9641805 15.3927765,14.9403775 15.4078773,14.9063365 C15.4251538,14.9370502 15.4351357,14.9559902 15.4462694,14.9741625 C15.5451929,15.135665 15.6434765,15.2976794 15.7440636,15.4581581 C15.7738814,15.5058922 15.8354367,15.5486353 15.8369724,15.5952177 C15.838508,15.6451273 15.7871907,15.6970846 15.7578848,15.7476341 C15.4269454,16.3177559 14.9630416,16.7456991 14.3779469,17.0465648 C14.1902098,17.1430568 14.0033685,17.2422362 13.822926,17.3513976 C13.6226475,17.4724605 13.4384937,17.6163026 13.2936277,17.8037838 C13.2275934,17.889398 13.176276,17.9823068 13.176276,18.0951793 C13.176404,18.9066591 13.176404,19.7182668 13.176532,20.5297466 L13.176532,20.6116496 C15.2289704,19.3834882 17.2693794,18.1623654 19.3170828,16.9371475 C19.2981427,16.9263977 19.2891846,16.9208948 19.2798425,16.9161598 C18.4513423,16.5030615 17.623226,16.0894512 16.7943419,15.6773767 C16.5995662,15.5805007 16.4360162,15.4454887 16.296909,15.2805309 C15.8793316,14.7855296 15.6575536,14.1990272 15.5322675,13.5754125 C15.4621381,13.2265568 15.3445305,12.9038077 15.1656236,12.5974392 C14.9553632,12.2374499 14.6695984,11.9488697 14.3331562,11.7146783 C14.0197491,11.4966115 13.6679501,11.3530253 13.2876129,11.2905742 C13.2076295,11.2773929 13.1268783,11.2679229 13.0449753,11.2565333 C13.0493264,11.2461674 13.0498382,11.2411765 13.0526537,11.238361 C13.2256738,11.0675165 13.3803937,10.8825948 13.4972335,10.6675994 C13.5041441,10.655058 13.5340898,10.64546 13.5500865,10.6487873 C13.6330133,10.6665756 13.7159401,10.6856436 13.7970753,10.7103425 C14.3495368,10.8786276 14.830717,11.166184 15.2418957,11.5722438 C15.6368219,11.9623069 15.9298811,12.4164848 16.0950948,12.9466788 C16.1438527,13.1031904 16.1516591,13.2719874 16.186212,13.4333619 C16.2752815,13.8492757 16.417332,14.2456095 16.6411576,14.609694 C16.7678514,14.8153474 16.9273063,14.9846563 17.1492123,15.0948414 C17.8535782,15.4445929 18.5550008,15.7999752 19.2577031,16.1529261 C19.2834258,16.1658514 19.3104282,16.1762172 19.3513797,16.1940055 C17.2830725,12.4811114 15.2237235,8.78382996 13.1642465,5.08667653 C13.1596395,5.08770032 13.1550324,5.0887241 13.1502974,5.08961992 L13.1502974,5.16486832 C13.1502974,6.71808227 13.1504254,8.27129623 13.1499135,9.82438221 C13.1499135,9.88977666 13.1490177,9.95568299 13.1399316,10.0201816 C13.099108,10.3129849 12.9475874,10.5501197 12.7514041,10.7607641 C12.4440119,11.0910636 12.0702014,11.3288383 11.6655493,11.5218223 C11.5456381,11.5788984 11.4220158,11.6309836 11.3104229,11.701625 C10.8890063,11.9690895 10.5823819,12.3432839 10.3562527,12.781977 C10.0808538,13.3160103 10.021986,13.8849803 10.1191179,14.4731463 C10.1365223,14.5792363 10.1639086,14.6837907 10.1870718,14.7906485 C10.1779857,14.7893688 10.1735066,14.7896247 10.1695394,14.788089 C9.93189272,14.6977398 9.69399005,14.6077744 9.45711116,14.5153776 C9.43996272,14.508595 9.41961494,14.4830003 9.4188471,14.4654679 C9.40963301,14.2394668 9.39030901,14.0128258 9.39977905,13.7873365 C9.4207667,13.2878561 9.58905181,12.8263838 9.8210677,12.3916579 C10.1421531,11.7903106 10.6077206,11.3246152 11.2100917,11.0000744 C11.4133136,10.8905292 11.6212704,10.7894301 11.8200132,10.6722064 C12.0371842,10.544105 12.231192,10.385034 12.3777216,10.1755414 C12.4490028,10.0735466 12.4912341,9.96489708 12.4911061,9.83525996 C12.4886746,8.2950993 12.4894424,6.75506661 12.4894424,5.21490594 C12.4894424,5.17574606 12.4894424,5.13658618 12.4894424,5.09729833 M20.3664652,16.7117862 C20.3623701,16.9857774 20.246938,17.1985972 20.010443,17.3402639 C18.8905472,18.0109728 17.7700116,18.680658 16.6497318,19.350727 C15.5181905,20.0274507 14.3861372,20.7034066 13.2553636,21.38141 C12.9780451,21.5476475 12.7071253,21.5475195 12.4292949,21.381282 C10.1761941,20.0324417 7.92245336,18.6846251 5.66794481,17.3380883 C5.45013397,17.2080673 5.31780941,17.0283925 5.29874136,16.7724456 C5.28773564,16.6266838 5.32753539,16.4932075 5.39843269,16.3662578 C5.753815,15.7311255 6.10766164,15.0952254 6.46189219,14.4595812 L11.9761409,4.56480073 C12.0599635,4.41443191 12.1414826,4.26278336 12.2278647,4.11395021 C12.4441398,3.74103553 12.8912791,3.63788892 13.2322004,3.89153233 C13.3197343,3.95667082 13.393575,4.05252295 13.4475798,4.14888697 C14.2074862,5.50387003 14.9627856,6.86128458 15.7192368,8.21818724 C17.2341867,10.9358318 18.7491366,13.6534763 20.2647263,16.3706089 C20.324362,16.4774668 20.3636498,16.5884198 20.3664652,16.7117862" id="Fill-91" fill="#FFFFFF"></path>
                            </g>
                        </g>
                    </g>
                </g>
            </g>
        </g>
    </g>
</svg>