<svg width="176" height="168" viewBox="0 0 176 168" fill="none" xmlns="http://www.w3.org/2000/svg">
<path d="M144.435 88.4795C145.109 91.9908 144.636 95.6295 142.904 98.7549" stroke="black" stroke-width="12.1094" stroke-linecap="round" stroke-linejoin="round"/>
<path d="M144.435 88.4795C145.109 91.9908 144.636 95.6295 142.904 98.7549" stroke="white" stroke-width="5.85938" stroke-linecap="round" stroke-linejoin="round"/>
<path d="M144.73 90.3047C144.737 91.8656 144.514 93.416 144.051 94.9004" stroke="white" stroke-width="1.95312" stroke-linecap="round" stroke-linejoin="round"/>
<path d="M1.29934 37.3186L1.39906 36.883C0.639431 33.3485 3.73872 30.3027 7.6457 29.8203C11.5494 29.3382 14.6649 31.4711 15.5029 34.8617L15.4397 35.5726L1.29934 37.3186Z" fill="white"/>
<path d="M1.29934 37.3186L1.39906 36.883C0.639431 33.3485 3.73872 30.3027 7.6457 29.8203C11.5494 29.3382 14.6649 31.4711 15.5029 34.8617L15.4397 35.5726L1.29934 37.3186Z" stroke="black" stroke-width="1.97656" stroke-linecap="round" stroke-linejoin="round"/>
<path d="M1.34255 37.1821C0.923472 33.7882 3.74924 30.6462 7.65393 30.164C11.5586 29.6819 15.0638 32.0422 15.4829 35.4361C15.902 38.8301 13.0762 41.9724 9.17153 42.4545C5.26684 42.9367 1.76162 40.5761 1.34255 37.1821Z" fill="white"/>
<path d="M1.34255 37.1821C0.923472 33.7882 3.74924 30.6462 7.65393 30.164C11.5586 29.6819 15.0638 32.0422 15.4829 35.4361C15.902 38.8301 13.0762 41.9724 9.17153 42.4545C5.26684 42.9367 1.76162 40.5761 1.34255 37.1821Z" stroke="black" stroke-width="1.97656" stroke-linecap="round" stroke-linejoin="round"/>
<path d="M85.8867 25.0854L77.3903 26.8648L75.3821 41.4738L83.8126 39.8436L85.8867 25.0854Z" fill="#E2E2E2"/>
<path d="M85.8867 25.0854L77.3903 26.8648L75.3821 41.4738L83.8126 39.8436L85.8867 25.0854Z" stroke="black" stroke-width="1.77917" stroke-linecap="round" stroke-linejoin="round"/>
<path d="M77.2707 26.8833L89.1879 31.1274L87.0593 46.2734L75.2317 41.3918L77.2707 26.8833Z" fill="white"/>
<path d="M77.2707 26.8833L89.1879 31.1274L87.0593 46.2734L75.2317 41.3918L77.2707 26.8833Z" stroke="black" stroke-width="1.77917" stroke-linecap="round" stroke-linejoin="round"/>
<path d="M96.478 28.5498L89.2102 31.1756L87.0815 46.3216L94.4947 42.6619L96.478 28.5498Z" fill="#E2E2E2"/>
<path d="M96.478 28.5498L89.2102 31.1756L87.0815 46.3216L94.4947 42.6619L96.478 28.5498Z" stroke="black" stroke-width="1.77917" stroke-linecap="round" stroke-linejoin="round"/>
<path d="M85.7401 24.9785L77.2707 26.8836L89.1879 31.1276L96.4998 28.5081L85.7401 24.9785Z" fill="white"/>
<path d="M85.7401 24.9785L77.2707 26.8836L89.1879 31.1276L96.4998 28.5081L85.7401 24.9785Z" stroke="black" stroke-width="1.77917" stroke-linecap="round" stroke-linejoin="round"/>
<path d="M67.2254 104.2C68.204 97.2361 74.3051 92.5503 81.0305 93.4956C87.756 94.4408 92.3328 100.597 91.3501 107.59C90.3739 114.536 84.2743 119.24 77.5453 118.295C70.8162 117.349 66.2492 111.145 67.2254 104.2Z" fill="white"/>
<path d="M67.2254 104.2C68.204 97.2361 74.3051 92.5503 81.0305 93.4956C87.756 94.4408 92.3328 100.597 91.3501 107.59C90.3739 114.536 84.2743 119.24 77.5453 118.295C70.8162 117.349 66.2492 111.145 67.2254 104.2Z" stroke="black" stroke-width="2.65156" stroke-linecap="round" stroke-linejoin="round"/>
<path d="M73.4985 105.076C73.9854 101.612 77.0661 99.2357 80.3764 99.7009C83.6867 100.166 85.9733 103.297 85.4864 106.761C84.9995 110.225 81.9372 112.58 78.6269 112.114C75.3166 111.649 73.0117 108.54 73.4985 105.076Z" fill="white"/>
<path d="M73.4985 105.076C73.9854 101.612 77.0661 99.2357 80.3764 99.7009C83.6867 100.166 85.9733 103.297 85.4864 106.761C84.9995 110.225 81.9372 112.58 78.6269 112.114C75.3166 111.649 73.0117 108.54 73.4985 105.076Z" stroke="black" stroke-width="2.65156" stroke-linecap="round" stroke-linejoin="round"/>
<path d="M158.027 108.568C158.027 111.191 155.9 113.319 153.276 113.319C150.653 113.319 148.525 111.191 148.525 108.568C148.525 105.944 150.653 103.817 153.276 103.817C155.9 103.817 158.027 105.944 158.027 108.568Z" fill="white"/>
<path d="M158.027 108.568C158.027 111.191 155.9 113.319 153.276 113.319C150.653 113.319 148.525 111.191 148.525 108.568C148.525 105.944 150.653 103.817 153.276 103.817C155.9 103.817 158.027 105.944 158.027 108.568Z" stroke="black" stroke-width="1.31562" stroke-linecap="round" stroke-linejoin="round"/>
<path d="M125.797 74.2134C127.75 79.031 128.928 91.9599 127.422 105.491C123.454 141.14 120.719 136.453 121.11 126.687" stroke="black" stroke-width="8.59375" stroke-linecap="round"/>
<path d="M125.797 74.2134C127.75 79.031 128.928 91.9599 127.422 105.491C123.454 141.14 120.719 136.453 121.11 126.687" stroke="white" stroke-width="1.5625" stroke-linecap="round"/>
<path d="M97.0215 88.2896C116.764 88.2825 111.924 92.3735 118.193 117.055C119.548 122.391 126.188 142.313 116.778 157.38C94.002 168.681 71.9453 168.811 50.4199 157.38C50.4199 157.38 56.3215 125.858 57.0477 121.149C60.9539 95.8286 73.3441 88.2982 97.0215 88.2896Z" fill="white"/>
<path d="M97.0215 88.2896C116.764 88.2825 111.924 92.3735 118.193 117.055C119.548 122.391 126.188 142.313 116.778 157.38C94.002 168.681 71.9453 168.811 50.4199 157.38C50.4199 157.38 56.3215 125.858 57.0477 121.149C60.9539 95.8286 73.3441 88.2982 97.0215 88.2896Z" stroke="black" stroke-width="3.51562" stroke-linecap="round" stroke-linejoin="round"/>
<path d="M109.388 26.8077C128.068 34.3686 131.626 52.2013 133.41 67.3217C135.471 84.7924 131.272 97.0192 120.352 106.22C109.94 114.991 86.8378 117.662 74.9699 114.175C60.9229 110.048 50.974 98.2455 47.8321 78.1576C45.4805 63.123 44.176 42.8522 63.076 30.9497C75.3408 23.2258 95.8325 21.321 109.388 26.8077Z" fill="white"/>
<path d="M109.388 26.8077C128.068 34.3686 131.626 52.2013 133.41 67.3217C135.471 84.7924 131.272 97.0192 120.352 106.22C109.94 114.991 86.8378 117.662 74.9699 114.175C60.9229 110.048 50.974 98.2455 47.8321 78.1576C45.4805 63.123 44.176 42.8522 63.076 30.9497C75.3408 23.2258 95.8325 21.321 109.388 26.8077Z" stroke="black" stroke-width="3.51562" stroke-linecap="round" stroke-linejoin="round"/>
<path d="M96.3491 113.272C61.3137 118.488 53.2166 95.9577 49.6885 78.2924C44.638 53.0023 50.7952 31.0142 81.9839 26.1051C51.0963 44.3837 69.0115 110.108 96.3491 113.272Z" fill="#D8D8D8"/>
<path d="M103.71 31.7383C106.836 32.6055 111.251 34.549 113.464 36.215" stroke="black" stroke-width="4.29688" stroke-linecap="round"/>
<path d="M109.528 43.2842C103.533 43.9406 95.3167 46.2554 91.4232 56.5912C88.4228 64.5563 91.4008 79.349 95.5329 85.8339C100.94 94.3191 110.119 95.8941 117.667 94.0775C124.347 92.4697 130.129 89.8819 132.885 80.7817C135.353 72.632 133.077 56.5298 129.478 51.243C123.548 42.5331 115.48 42.6327 109.528 43.2842Z" fill="white"/>
<path d="M109.528 43.2842C103.533 43.9406 95.3167 46.2554 91.4232 56.5912C88.4228 64.5563 91.4008 79.349 95.5329 85.8339C100.94 94.3191 110.119 95.8941 117.667 94.0775C124.347 92.4697 130.129 89.8819 132.885 80.7817C135.353 72.632 133.077 56.5298 129.478 51.243C123.548 42.5331 115.48 42.6327 109.528 43.2842Z" stroke="black" stroke-width="3.51562" stroke-linecap="round" stroke-linejoin="round"/>
<path d="M113.579 53.457C108.065 57.0702 108.977 63.0231 109.192 66.1071C109.529 70.9321 112.312 74.5034 116.412 75.7966C119.194 76.6742 122.595 76.4558 125.274 75.1839C129.148 73.3444 131.435 69.4365 131.095 64.5756C130.899 61.781 131.066 55.5227 124.99 52.6588C121.51 51.0261 116.833 51.3319 113.579 53.457Z" fill="white"/>
<path d="M113.579 53.457C108.065 57.0702 108.977 63.0231 109.192 66.1071C109.529 70.9321 112.312 74.5034 116.412 75.7966C119.194 76.6742 122.595 76.4558 125.274 75.1839C129.148 73.3444 131.435 69.4365 131.095 64.5756C130.899 61.781 131.066 55.5227 124.99 52.6588C121.51 51.0261 116.833 51.3319 113.579 53.457Z" stroke="black" stroke-width="3.51562" stroke-linecap="round" stroke-linejoin="round"/>
<path d="M121.236 58.8358L121.917 68.5807" stroke="#BABABA" stroke-width="4.6875" stroke-linecap="round" stroke-linejoin="round"/>
<path d="M57.8346 61.1112C52.7829 65.539 53.5655 70.6777 54.1478 73.4179C55.1609 78.1842 58.989 83.0302 63.3566 82.7028C66.3123 82.4811 72.0718 81.7194 74.5037 80.109C78.0884 77.7358 79.8605 74.1161 78.8547 69.385C78.2116 66.3611 77.7224 60.9405 71.426 58.9872C67.7124 57.8414 60.7296 58.5825 57.8346 61.1112Z" fill="#D8D8D8"/>
<path d="M57.8346 61.1112C52.7829 65.539 53.5655 70.6777 54.1478 73.4179C55.1609 78.1842 58.989 83.0302 63.3566 82.7028C66.3123 82.4811 72.0718 81.7194 74.5037 80.109C78.0884 77.7358 79.8605 74.1161 78.8547 69.385C78.2116 66.3611 77.7224 60.9405 71.426 58.9872C67.7124 57.8414 60.7296 58.5825 57.8346 61.1112Z" stroke="black" stroke-width="3.51562" stroke-linecap="round" stroke-linejoin="round"/>
<path d="M65.071 73.4146L64.3843 67.8123" stroke="white" stroke-width="4.6875" stroke-linecap="round" stroke-linejoin="round"/>
<path d="M132.829 152.152C129.754 157.039 124.625 158.328 116.653 157.441C116.696 157.422 116.735 157.398 116.778 157.379C119.157 134.109 119.938 123.172 114.965 109.66C125.407 118.875 130.614 136.109 132.829 152.152Z" fill="white"/>
<path d="M132.829 152.152C129.754 157.039 124.625 158.328 116.653 157.441C116.696 157.422 116.735 157.398 116.778 157.379C119.157 134.109 119.938 123.172 114.965 109.66C125.407 118.875 130.614 136.109 132.829 152.152Z" stroke="black" stroke-width="3.51562" stroke-linecap="round" stroke-linejoin="round"/>
<path d="M58.2305 160.113C58.2344 160.113 40.25 161.063 32.4375 153.715C34.668 137.57 44.3984 117.867 59.6133 108.562C62.9062 111.844 61.3438 130.203 58.2305 160.113Z" fill="white"/>
<path d="M58.2305 160.113C58.2344 160.113 40.25 161.063 32.4375 153.715C34.668 137.57 44.3984 117.867 59.6133 108.562C62.9062 111.844 61.3438 130.203 58.2305 160.113Z" stroke="black" stroke-width="3.51562" stroke-linecap="round" stroke-linejoin="round"/>
<path d="M133.444 77.3851L109.848 80.7014L107.211 61.9404L130.807 58.6242L133.444 77.3851Z" fill="#D8D8D8"/>
<path d="M133.444 77.3851L109.848 80.7014L107.211 61.9404L130.807 58.6242L133.444 77.3851Z" stroke="black" stroke-width="3.51562" stroke-linecap="round" stroke-linejoin="round"/>
<path d="M136.065 86.7477L133.117 87.1619C128.344 87.8328 123.279 79.8901 121.808 69.4226C120.338 58.9629 123.012 49.9246 127.79 49.2532L130.737 48.839C135.511 48.1681 140.575 56.1069 142.047 66.5783C143.517 77.038 140.842 86.0763 136.065 86.7477Z" fill="white"/>
<path d="M136.065 86.7477L133.117 87.1619C128.344 87.8328 123.279 79.8901 121.808 69.4226C120.338 58.9629 123.012 49.9246 127.79 49.2532L130.737 48.839C135.511 48.1681 140.575 56.1069 142.047 66.5783C143.517 77.038 140.842 86.0763 136.065 86.7477Z" stroke="black" stroke-width="3.51562" stroke-linecap="round" stroke-linejoin="round"/>
<path d="M140.386 81.9L139.233 82.062C137.357 82.3257 134.91 75.9125 133.762 67.7428C132.614 59.5769 133.198 52.7337 135.075 52.47L136.227 52.308C138.103 52.0443 140.55 58.4536 141.699 66.6272C142.847 74.7931 142.262 81.6363 140.386 81.9Z" fill="#0098A6"/>
<path d="M140.386 81.9L139.233 82.062C137.357 82.3257 134.91 75.9125 133.762 67.7428C132.614 59.5769 133.198 52.7337 135.075 52.47L136.227 52.308C138.103 52.0443 140.55 58.4536 141.699 66.6272C142.847 74.7931 142.262 81.6363 140.386 81.9Z" stroke="black" stroke-width="3.51562" stroke-linecap="round" stroke-linejoin="round"/>
<g opacity="0.2">
<path opacity="0.2" d="M136.101 50.3027L134.644 50.5074C132.535 50.8038 131.878 58.5781 133.179 67.8374C134.481 77.0967 137.255 84.3884 139.364 84.0921L140.821 83.8873C142.93 83.5909 143.587 75.817 142.285 66.5577C140.984 57.2983 138.21 50.0063 136.101 50.3027Z" fill="#22FFFF"/>
</g>
<g opacity="0.2">
<path opacity="0.2" d="M136.22 51.5396L134.87 51.7294C132.915 52.0041 132.306 59.2093 133.512 67.791C134.719 76.3726 137.29 83.1306 139.244 82.8559L140.595 82.6661C142.549 82.3914 143.158 75.1866 141.952 66.6049C140.746 58.0232 138.175 51.2649 136.22 51.5396Z" fill="#22FFFF"/>
</g>
<g opacity="0.2">
<path opacity="0.2" d="M136.337 52.7526L135.091 52.9277C133.288 53.1811 132.726 59.8281 133.839 67.7449C134.951 75.6618 137.323 81.8961 139.126 81.6427L140.372 81.4677C142.175 81.2143 142.737 74.5676 141.624 66.6507C140.512 58.7339 138.14 52.4992 136.337 52.7526Z" fill="#22FFFF"/>
</g>
<g opacity="0.2">
<path opacity="0.2" d="M136.438 53.8005L135.283 53.9629C133.611 54.198 133.09 60.3628 134.121 67.7056C135.153 75.0483 137.354 80.8307 139.026 80.5957L140.181 80.4333C141.853 80.1983 142.374 74.0335 141.343 66.6907C140.311 59.348 138.11 53.5655 136.438 53.8005Z" fill="#22FFFF"/>
</g>
<g opacity="0.2">
<path opacity="0.2" d="M136.528 54.7372L135.453 54.8883C133.898 55.1069 133.414 60.8404 134.373 67.6696C135.333 74.4988 137.379 79.8763 138.934 79.6578L140.009 79.5067C141.564 79.2881 142.049 73.5549 141.089 66.7257C140.129 59.8966 138.083 54.5187 136.528 54.7372Z" fill="#22FFFF"/>
</g>
<g opacity="0.2">
<path opacity="0.2" d="M136.635 55.8404L135.655 55.978C134.238 56.1773 133.796 61.4035 134.671 67.6284C135.546 73.8532 137.411 78.755 138.829 78.5557L139.808 78.4181C141.226 78.2188 141.667 72.9929 140.793 66.7681C139.918 60.5432 138.053 55.6411 136.635 55.8404Z" fill="#15FCF6"/>
</g>
<path d="M136.742 56.9527L135.858 57.0769C134.579 57.2566 134.181 61.9712 134.97 67.5861C135.759 73.201 137.442 77.6228 138.721 77.4431L139.604 77.3189C140.883 77.1392 141.281 72.425 140.492 66.81C139.703 61.1951 138.021 56.773 136.742 56.9527Z" fill="#B8FFFA"/>
<path d="M122.22 90.8201L116.603 91.6094C107.497 92.8892 95.1265 85.0857 93.4934 73.4655C91.8619 61.8569 101.576 50.8116 110.689 49.5308L116.306 48.7414C125.412 47.4617 134.116 55.8435 135.749 67.4637C137.381 79.0723 131.333 89.5392 122.22 90.8201Z" fill="white"/>
<path d="M122.22 90.8201L116.603 91.6094C107.497 92.8892 95.1265 85.0857 93.4934 73.4655C91.8619 61.8569 101.576 50.8116 110.689 49.5308L116.306 48.7414C125.412 47.4617 134.116 55.8435 135.749 67.4637C137.381 79.0723 131.333 89.5392 122.22 90.8201Z" stroke="black" stroke-width="3.51562" stroke-linecap="round" stroke-linejoin="round"/>
<path d="M127.543 86.3685L124.185 86.8404C118.735 87.6064 113.222 80.4327 111.871 70.8201C110.52 61.2114 113.838 52.7928 119.292 52.0262L122.65 51.5544C128.1 50.7884 133.613 57.9581 134.964 67.5746C136.314 77.1794 132.997 85.6019 127.543 86.3685Z" fill="#0098A6"/>
<path d="M127.543 86.3685L124.185 86.8404C118.735 87.6064 113.222 80.4327 111.871 70.8201C110.52 61.2114 113.838 52.7928 119.292 52.0262L122.65 51.5544C128.1 50.7884 133.613 57.9581 134.964 67.5746C136.314 77.1794 132.997 85.6019 127.543 86.3685Z" stroke="black" stroke-width="3.51562" stroke-linecap="round" stroke-linejoin="round"/>
<g opacity="0.2">
<path opacity="0.2" d="M122.762 49.1581L118.523 49.7538C112.389 50.616 108.643 60.1799 110.174 71.0732C111.705 81.9666 117.942 90.1273 124.076 89.2651L128.315 88.6694C134.45 87.8072 138.195 78.2437 136.664 67.3503C135.133 56.457 128.897 48.2959 122.762 49.1581Z" fill="#22FFFF"/>
</g>
<g opacity="0.2">
<path opacity="0.2" d="M122.81 50.6262L118.881 51.1783C113.196 51.9774 109.725 60.8413 111.144 70.9373C112.563 81.0334 118.342 88.5968 124.028 87.7977L127.957 87.2456C133.642 86.4465 137.113 77.5831 135.694 67.487C134.275 57.3909 128.496 49.8271 122.81 50.6262Z" fill="#22FFFF"/>
</g>
<g opacity="0.2">
<path opacity="0.2" d="M122.858 52.0659L119.233 52.5752C113.988 53.3124 110.786 61.4896 112.095 70.8035C113.404 80.1175 118.736 87.0949 123.981 86.3577L127.606 85.8483C132.851 85.1112 136.053 76.9344 134.744 67.6204C133.435 58.3065 128.103 51.3287 122.858 52.0659Z" fill="#22FFFF"/>
</g>
<g opacity="0.2">
<path opacity="0.2" d="M122.898 53.3091L119.537 53.7816C114.672 54.4652 111.702 62.0493 112.916 70.6878C114.13 79.3264 119.076 85.7979 123.94 85.1143L127.302 84.6418C132.167 83.9581 135.137 76.3741 133.923 67.7356C132.709 59.097 127.763 52.6254 122.898 53.3091Z" fill="#22FFFF"/>
</g>
<g opacity="0.2">
<path opacity="0.2" d="M122.934 54.4226L119.808 54.862C115.284 55.4979 112.522 62.5513 113.651 70.5856C114.78 78.6199 119.379 84.6384 123.904 84.0026L127.03 83.5632C131.554 82.9273 134.317 75.8742 133.188 67.8399C132.058 59.8056 127.459 53.7867 122.934 54.4226Z" fill="#22FFFF"/>
</g>
<g opacity="0.2">
<path opacity="0.2" d="M122.978 55.7305L120.128 56.131C116.004 56.7106 113.486 63.14 114.515 70.4633C115.545 77.7867 119.737 83.2726 123.861 82.693L126.711 82.2925C130.835 81.7129 133.353 75.2839 132.323 67.9606C131.294 60.6372 127.102 55.1509 122.978 55.7305Z" fill="#15FCF6"/>
</g>
<path d="M123.021 57.0509L120.45 57.4122C116.73 57.935 114.459 63.7349 115.387 70.3407C116.316 76.9464 120.098 81.8952 123.818 81.3724L126.388 81.0111C130.108 80.4883 132.379 74.6888 131.451 68.0831C130.523 61.4773 126.741 56.5281 123.021 57.0509Z" fill="#B8FFFA"/>
<path d="M106.145 5.90569C106.145 8.20647 104.855 10.0723 103.273 10.0723L82.1561 10.0763C82.1561 10.0763 82.1416 5.8911 82.1402 5.72174C82.1388 5.55248 82.1561 1.74159 82.1561 1.74159L103.273 1.74023C104.855 1.74023 106.145 3.60491 106.145 5.90569Z" fill="white"/>
<path d="M106.145 5.90569C106.145 8.20647 104.855 10.0723 103.273 10.0723L82.1561 10.0763C82.1561 10.0763 82.1416 5.8911 82.1402 5.72174C82.1388 5.55248 82.1561 1.74159 82.1561 1.74159L103.273 1.74023C104.855 1.74023 106.145 3.60491 106.145 5.90569Z" stroke="black" stroke-width="2.34375" stroke-linecap="round" stroke-linejoin="round"/>
<path d="M84.7809 5.90566C84.7809 8.20683 83.6096 10.0725 82.1652 10.0725C80.7207 10.0725 79.5498 8.20683 79.5498 5.90566C79.5498 3.60449 80.7207 1.73926 82.1652 1.73926C83.6096 1.73926 84.7809 3.60449 84.7809 5.90566Z" fill="white"/>
<path d="M84.7809 5.90566C84.7809 8.20683 83.6096 10.0725 82.1652 10.0725C80.7207 10.0725 79.5498 8.20683 79.5498 5.90566C79.5498 3.60449 80.7207 1.73926 82.1652 1.73926C83.6096 1.73926 84.7809 3.60449 84.7809 5.90566Z" stroke="black" stroke-width="2.34375" stroke-linecap="round" stroke-linejoin="round"/>
<path d="M88.5947 4.37207L101.986 4.38649" stroke="white" stroke-width="1.17188" stroke-linecap="round"/>
<path d="M174.197 83.4748L154.148 85.4878L165.406 98.4244L174.197 83.4748Z" fill="#C6C6C6"/>
<path d="M174.197 83.4748L154.148 85.4878L165.406 98.4244L174.197 83.4748Z" stroke="black" stroke-width="1.44792" stroke-linecap="round" stroke-linejoin="round"/>
<path d="M163.504 79.6372L154.208 85.4819L164.597 90.3659L174.137 83.481L163.504 79.6372Z" fill="#C6C6C6"/>
<path d="M163.504 79.6372L154.208 85.4819L164.597 90.3659L174.137 83.481L163.504 79.6372Z" stroke="black" stroke-width="1.44792" stroke-linecap="round" stroke-linejoin="round"/>
<path d="M162.143 65.7674L153.625 82.084L164.269 86.9424L173.788 79.999L162.143 65.7674Z" fill="#F9F9F9"/>
<path d="M162.173 65.7645L162.555 78.6867L172.814 79.8693L162.173 65.7645Z" fill="#E3E3E3"/>
<path d="M162.171 65.7646L172.641 79.6213L173.671 80.0051L162.171 65.7646Z" fill="#F0F0F0"/>
<path d="M164.268 86.9423L162.54 78.688L172.948 79.8556L164.268 86.9423Z" fill="#BDBCBC"/>
<path d="M164.268 86.9428L153.729 82.0132L162.578 78.743L164.268 86.9428Z" fill="#DEDEDE"/>
<path d="M162.148 65.8279L153.625 82.0845L164.268 86.9429L173.788 79.9995L162.148 65.8279Z" stroke="black" stroke-width="1.44792" stroke-linecap="round" stroke-linejoin="round"/>
<path d="M157.09 87.6172L164.647 91.1635L165.237 96.8947L157.09 87.6172Z" fill="#E6E6E6"/>
<path d="M161.675 69.5631C160.798 71.26 155.658 81.213 155.658 81.213C155.658 81.213 162.193 84.3017 163.323 84.8356" stroke="white" stroke-width="0.723958" stroke-linecap="round" stroke-linejoin="round"/>
<path d="M67.2254 104.2C68.204 97.2361 74.3051 92.5503 81.0305 93.4956C87.756 94.4408 92.3328 100.597 91.3501 107.59C90.3739 114.536 84.2743 119.24 77.5453 118.295C70.8162 117.349 66.2492 111.145 67.2254 104.2Z" fill="white"/>
<path d="M67.2254 104.2C68.204 97.2361 74.3051 92.5503 81.0305 93.4956C87.756 94.4408 92.3328 100.597 91.3501 107.59C90.3739 114.536 84.2743 119.24 77.5453 118.295C70.8162 117.349 66.2492 111.145 67.2254 104.2Z" stroke="black" stroke-width="2.65156" stroke-linecap="round" stroke-linejoin="round"/>
<path d="M70.3292 103.38C71.5612 98.7733 75.8656 95.8036 80.5745 96.4654C80.9902 96.5238 81.3979 96.6079 81.7931 96.717" stroke="white" stroke-width="0.883854" stroke-linecap="round" stroke-linejoin="round"/>
<path d="M73.4985 105.076C73.9854 101.612 77.0661 99.2357 80.3764 99.7009C83.6867 100.166 85.9733 103.297 85.4864 106.761C84.9995 110.225 81.9372 112.58 78.6269 112.114C75.3166 111.649 73.0117 108.54 73.4985 105.076Z" fill="white"/>
<path d="M73.4985 105.076C73.9854 101.612 77.0661 99.2357 80.3764 99.7009C83.6867 100.166 85.9733 103.297 85.4864 106.761C84.9995 110.225 81.9372 112.58 78.6269 112.114C75.3166 111.649 73.0117 108.54 73.4985 105.076Z" stroke="black" stroke-width="2.65156" stroke-linecap="round" stroke-linejoin="round"/>
<path d="M40.0066 36.1692C19.4012 33.8485 5.875 29.9423 5.875 25.5153C5.875 22.2563 13.2043 19.2802 25.2918 17.0103" stroke="black" stroke-width="7.82313" stroke-linecap="round" stroke-linejoin="round"/>
<path d="M40.0066 36.1692C19.4012 33.8485 5.875 29.9423 5.875 25.5153C5.875 22.2563 13.2043 19.2802 25.2918 17.0103" stroke="white" stroke-width="3.52273" stroke-linecap="round" stroke-linejoin="round"/>
<path d="M144.784 134.406C144.607 134.42 144.432 134.443 144.259 134.478C142.194 134.894 140.387 137.595 138.026 137.966C136.125 138.265 133.869 136.679 131.739 136.561" stroke="black" stroke-width="4.29688" stroke-linecap="round" stroke-linejoin="round"/>
<path d="M66.8187 153.454L65.6117 144.866L72.1065 143.953L71.1937 137.458L79.7817 136.251L80.6945 142.746L87.1893 141.833L88.3963 150.421L81.9015 151.334L82.8143 157.829L74.2263 159.036L73.3135 152.541L66.8187 153.454Z" fill="white"/>
<path d="M66.8187 153.454L65.6117 144.866L72.1065 143.953L71.1937 137.458L79.7817 136.251L80.6945 142.746L87.1893 141.833L88.3963 150.421L81.9015 151.334L82.8143 157.829L74.2263 159.036L73.3135 152.541L66.8187 153.454Z" stroke="black" stroke-width="2.28021" stroke-linecap="round" stroke-linejoin="round"/>
</svg>
