<?xml version="1.0"?>
<svg width="650" height="130" xmlns="http://www.w3.org/2000/svg" xmlns:svg="http://www.w3.org/2000/svg">
 <style type="text/css">.st0{fill:#EBFFFE;}
	.st1{clip-path:url(#SVGID_2_);}
	.st2{fill:none;stroke:#CCCCCC;stroke-miterlimit:10;}
	.st3{fill:#52CACB;}
	.st4{fill:#263238;}
	.st5{fill:#FFFFFF;}
	.st6{fill:#B3B3B3;}
	.st7{fill:url(#SVGID_3_);}
	.st8{fill:#2E3192;}
	.st9{fill:url(#SVGID_4_);}
	.st10{opacity:0.3;}
	.st11{clip-path:url(#SVGID_6_);}
	.st12{fill:none;stroke:#FFFFFF;stroke-width:0.25;stroke-miterlimit:10;}
	.st13{fill:#8CC63F;}
	.st14{fill:url(#SVGID_7_);}
	.st15{fill:url(#SVGID_8_);}
	.st16{clip-path:url(#SVGID_10_);}
	.st17{fill:#36CBFF;}</style>
 <g>
  <title>Layer 1</title>
  <g id="svg_2">
   <g id="svg_3">
    <g id="svg_4">
     <path id="svg_5" d="m38,121.800003l-27,0c-2.1,-0.5 -3.4,-1.900002 -3.7,-4.100006l6.8,-2.5l22.1,0l1.799999,6.600006zm-30.5,-5.800003l2.2,-21.300003l1.8,-1.599998l4.4,4.900002l-1.599999,15.5l-6.8,2.5zm11.299999,-45l-1.599998,15.5l-5.500001,4.900002l-1.4,-1.599998l2.2,-21.300003l6.299999,2.5zm22.200001,-1.599998l-22,0l-6.3,-2.5c0.8,-2.200005 2.3,-3.5 4.500001,-4.100002l26.899998,0l-3.099998,6.600002zm-2.799999,19.599998l2.899998,3.300003l-3.599998,3.299995l-21.4,0l-2.900001,-3.299995l3.7,-3.300003l21.300001,0z" class="st3"/>
     <path id="svg_6" d="m61.599998,69.400002l-6.299999,-2.5c0.799999,-2.200005 2.299999,-3.5 4.5,-4.100002l26.100002,0c2.099998,0.5 3.400002,1.899998 3.699997,4.100002l-6.799995,2.5l-21.200005,0zm8,23.699997l2.900002,3.300003l-2.199997,21.299995c-0.800003,2.200005 -2.300003,3.5 -4.5,4.100006l-1.800003,-6.5l2,-18.800003l3.599998,-3.400002zm-2.699997,-4.900002l1.799995,-17.199997l6.5,0l-1.799995,17.199997l-3.700005,3.300003l-2.799995,-3.300003z" class="st3"/>
     <path id="svg_7" d="m101,98l-1.800003,17.199997l-3.099998,6.5c-2.099998,-0.5 -3.400002,-1.899994 -3.699997,-4.099998l2.400002,-22.900002l1.799995,-1.599998l4.400002,4.900002zm-4.400002,-5.699997l-1.400002,-1.600006l2.400002,-22.899994c0.800003,-2.200005 2.300003,-3.5 4.5,-4.100002l1.800003,6.499996l-1.800003,17.200005l-5.5,4.900002zm26.599998,-3.300003l2.900002,3.300003l-3.599998,3.299995l-21.300003,0l-2.899994,-3.299995l3.699997,-3.300003l21.199997,0zm4.5,4.099998l1.5,1.599998l-2.399994,22.900002c-0.800003,2.200005 -2.300003,3.5 -4.5,4.099998l-1.800003,-6.5l1.800003,-17.199997l5.399994,-4.900002zm-4.199997,-6.5l1.800003,-17.199997l3.099991,-6.5c2.100006,0.5 3.400009,1.900002 3.700012,4.099998l-2.400009,22.900002l-1.899994,1.599998l-4.300003,-4.900002z" class="st3"/>
     <path id="svg_8" d="m156.300003,108.699997l-6.5,0l0.699997,-6.5l6.5,0l-0.699997,6.5zm2.800003,-26.199997l-6.5,0l0.699997,-6.5l6.5,0l-0.699997,6.5z" class="st3"/>
     <path id="svg_9" d="m186.100006,98l-1.800003,17.199997l-3.099991,6.5c-2.100006,-0.5 -3.400009,-1.899994 -3.699997,-4.099998l2.399994,-22.900002l1.800003,-1.599998l4.399994,4.900002zm2.799988,-27l-1.600006,15.5l-5.5,4.900002l-1.399994,-1.599998l2.199997,-21.300003l6.300003,2.5zm19.800003,-1.599998l-19.599991,0l-6.300003,-2.5c0.800003,-2.200005 2.300003,-3.5 4.5,-4.100002l24.5,0l-3.100006,6.600002zm-0.399994,19.599998l2.899994,3.300003l-3.599991,3.299995l-21.300003,0l-2.900009,-3.299995l3.700012,-3.300003l21.199997,0zm4.399994,4.099998l1.5,1.599998l-2.399994,22.900002c-0.800003,2.200005 -2.300003,3.5 -4.5,4.099998l-1.800003,-6.5l1.800003,-17.199997l5.399994,-4.900002zm-4.099991,-6.5l1.800003,-17.199997l3.100006,-6.5c2.099991,0.5 3.399994,1.900002 3.699997,4.099998l-2.400009,22.900002l-1.899994,1.599998l-4.300003,-4.900002z" class="st3"/>
     <path id="svg_10" d="m228.600006,98l-1.800003,17.199997l-3.099991,6.5c-2.100006,-0.5 -3.400009,-1.899994 -3.699997,-4.099998l2.399994,-22.900002l1.800003,-1.599998l4.399994,4.900002zm-4.200012,-6.5l-1.400009,-1.599998l2.400009,-22.900002c0.800003,-2.199997 2.300003,-3.5 4.5,-4.099998l1.800003,6.5l-1.800003,17.199997l-5.5,4.900002zm4.100006,23.699997l19.600006,0l6.299988,2.5c-0.799988,2.200005 -2.299988,3.5 -4.5,4.100006l-24.5,0l3.100006,-6.600006z" class="st3"/>
     <path id="svg_11" d="m271.200012,98l-1.799988,17.199997l-3.100006,6.5c-2.100006,-0.5 -3.399994,-1.899994 -3.700012,-4.099998l2.399994,-22.900002l1.800018,-1.599998l4.399994,4.900002zm2.799988,-27l-1.600006,15.5l-5.5,4.900002l-1.399994,-1.599998l2.200012,-21.300003l6.299988,2.5zm19.799988,-1.599998l-19.600006,0l-6.299988,-2.5c0.799988,-2.200005 2.299988,-3.5 4.5,-4.100002l24.5,0l-3.100006,6.600002zm-0.399994,19.599998l2.899994,3.300003l-3.600006,3.299995l-21.299988,0l-2.899994,-3.299995l3.699982,-3.300003l21.200012,0zm4.399994,4.099998l1.5,1.599998l-2.399994,22.900002c-0.800018,2.200005 -2.300018,3.5 -4.5,4.099998l-1.800018,-6.5l1.800018,-17.199997l5.399994,-4.900002zm-4.099976,-6.5l1.799988,-17.199997l3.100006,-6.5c2.100006,0.5 3.399994,1.900002 3.700012,4.099998l-2.399994,22.900002l-1.900024,1.599998l-4.299988,-4.900002z" class="st3"/>
     <path id="svg_12" d="m313.700012,98l-1.799988,17.199997l-3.100006,6.5c-2.100006,-0.5 -3.399994,-1.899994 -3.700012,-4.099998l2.399994,-22.900002l1.800018,-1.599998l4.399994,4.900002zm2.899994,-27l-1.600006,15.5l-5.5,4.900002l-1.399994,-1.599998l2.200012,-21.300003l6.299988,2.5zm19.799988,-1.599998l-19.600006,0l-6.299988,-2.5c0.799988,-2.200005 2.299988,-3.5 4.5,-4.100002l24.5,0l-3.100006,6.600002zm-0.399994,19.599998l2.899994,3.300003l-3.600006,3.299995l-21.299988,0l-2.899994,-3.299995l3.699982,-3.300003l21.200012,0zm-20.600006,8.199997l4.899994,0l19.100006,21.300003c-1.300018,2.199997 -3.600006,3.300003 -6.899994,3.300003l-17.600006,-19.600006l0.5,-5zm20.800018,-10.599998l1.799988,-17.199997l3.100006,-6.5c2.100006,0.5 3.399994,1.900002 3.700012,4.099998l-2.399994,22.900002l-1.900024,1.599998l-4.299988,-4.900002z" class="st3"/>
     <path id="svg_13" d="m356.299988,98l-1.799988,17.199997l-3.100006,6.5c-2.100006,-0.5 -3.399994,-1.899994 -3.700012,-4.099998l2.399994,-22.900002l1.800018,-1.599998l4.399994,4.900002zm2.800018,-27l-1.600006,15.5l-5.5,4.900002l-1.399994,-1.599998l2.200012,-21.300003l6.299988,2.5zm19.799988,-1.599998l-19.600006,0l-6.299988,-2.5c0.799988,-2.200005 2.299988,-3.5 4.5,-4.100002l24.5,0l-3.100006,6.600002zm-7.799988,20.5l-3.699982,3.299995l-2.900024,-3.299995l2,-18.800003l6.5,0l-1.899994,18.800003zm11.799988,3.199997l1.5,1.599998l-2.399994,22.900002c-0.800018,2.200005 -2.300018,3.5 -4.5,4.099998l-1.800018,-6.5l1.800018,-17.199997l5.399994,-4.900002zm-4.100006,-6.5l1.799988,-17.199997l3.100006,-6.5c2.100006,0.5 3.399994,1.900002 3.700012,4.099998l-2.399994,22.900002l-1.899994,1.599998l-4.300018,-4.900002z" class="st3"/>
     <path id="svg_14" d="m411.600006,108.699997l-6.600006,0l0.700012,-6.5l6.5,0l-0.600006,6.5zm2.699982,-26.199997l-6.5,0l0.700012,-6.5l6.5,0l-0.700012,6.5z" class="st3"/>
     <path id="svg_15" d="m463.399994,121.800003l-27,0c-2.100006,-0.5 -3.399994,-1.900002 -3.700012,-4.100006l6.800018,-2.5l22.099976,0l1.800018,6.600006zm-30.5,-5.800003l2.199982,-21.300003l1.800018,-1.599998l4.399994,4.900002l-1.600006,15.5l-6.799988,2.5zm11.300018,-45l-1.600006,15.5l-5.5,4.900002l-1.399994,-1.599998l2.200012,-21.300003l6.299988,2.5zm22.299988,-1.599998l-22,0l-6.299988,-2.5c0.799988,-2.200005 2.299988,-3.5 4.5,-4.100002l26.899994,0l-3.100006,6.600002z" class="st3"/>
     <path id="svg_16" d="m483.899994,98l-1.800018,17.199997l-3.099976,6.5c-2.100006,-0.5 -3.400024,-1.899994 -3.700012,-4.099998l2.399994,-22.900002l1.800018,-1.599998l4.399994,4.900002zm-4.299988,-6.5l-1.399994,-1.599998l2.399994,-22.900002c0.800018,-2.199997 2.300018,-3.5 4.5,-4.099998l1.800018,6.5l-1.800018,17.199997l-5.5,4.900002zm4.100006,23.699997l19.600006,0l6.299988,2.5c-0.799988,2.200005 -2.299988,3.5 -4.5,4.100006l-24.5,0l3.100006,-6.600006z" class="st3"/>
     <path id="svg_17" d="m526.400024,98l-1.799988,17.199997l-2.700012,2.5l-3.700012,-4.099998l2,-18.799995l1.799988,-1.600006l4.400024,4.800003zm-4.200012,-6.5l-1.400024,-1.599998l2,-18.800003l4.5,-4.099998l2.200012,2.5l-1.799988,17.199997l-5.5,4.800003zm25,27l-3.599976,3.300003l-18,0l-2.900024,-3.300003l3.599976,-3.300003l18,0l2.900024,3.300003zm1.899963,-49.099998l-18,0l-2.900024,-3.300003l3.600037,-3.299999l18,0l2.899963,3.299999l-3.599976,3.300003zm4,23.699997l1.5,1.599998l-2,18.800003l-4.5,4.099998l-2.200012,-2.5l1.799988,-17.199997l5.400024,-4.800003zm-4.199951,-6.5l1.799988,-17.199997l2.700012,-2.5l3.700012,4.099998l-2,18.800003l-1.900024,1.599998l-4.299988,-4.800003z" class="st3"/>
     <path id="svg_18" d="m591.099976,121.800003l-27,0c-2.099976,-0.5 -3.400024,-1.900002 -3.700012,-4.100006l6.799988,-2.5l22.100037,0l1.799988,6.600006zm-30.599976,-5.800003l2.200012,-21.300003l1.799988,-1.599998l4.5,4.900002l-1.599976,15.5l-6.900024,2.5zm11.299988,-45l-1.599976,15.5l-5.5,4.900002l-1.400024,-1.599998l2.200012,-21.300003l6.299988,2.5zm22.299988,-1.599998l-22,0l-6.299988,-2.5c0.799988,-2.200005 2.299988,-3.5 4.5,-4.100002l26.899963,0l-3.099976,6.600002z" class="st3"/>
     <path id="svg_19" d="m611.5,98l-1.799988,17.199997l-3.100037,6.5c-2.099976,-0.5 -3.399963,-1.899994 -3.699951,-4.099998l2.399963,-22.900002l1.799988,-1.599998l4.400024,4.900002zm-4.200012,-6.5l-1.400024,-1.599998l2.400024,-22.900002c0.799988,-2.199997 2.299988,-3.5 4.5,-4.099998l1.799988,6.5l-1.799988,17.199997l-5.5,4.900002zm26.5,-2.5l2.900024,3.300003l-3.600037,3.299995l-21.299988,0l-2.900024,-3.299995l3.700012,-3.300003l21.200012,0zm-19,-6.5l21.700012,-19.599998c3.299988,0 5.299988,1.099998 6.200012,3.299995l-23.5,21.300003l-4.900024,0l0.5,-5zm23.400024,10.599998l1.5,1.599998l-2.400024,22.900002c-0.799988,2.200005 -2.299988,3.5 -4.5,4.099998l-1.799988,-6.5l1.799988,-17.199997l5.400024,-4.900002z" class="st3"/>
    </g>
   </g>
  </g>
  <g id="svg_20">
   <g id="svg_21">
    <path id="svg_22" d="m220.5,34.099998l-10.399994,0l-1.800003,10.600002l-3.300003,0l4.899994,-28l13.700012,0c3.599991,0 5.5,2.4 4.899994,6l-1,5.5c-0.600006,3.5 -3.399994,5.899998 -7,5.899998zm4.699997,-11.299999c0.400009,-2 -0.699997,-3.199999 -2.599991,-3.199999l-9.800003,0l-2.100006,11.6l9.800003,0c2,0 3.5,-1.200001 3.800003,-3.200001l0.899994,-5.200001z" class="st4"/>
    <path id="svg_23" d="m238.899994,44.700001l-4.899994,0c-3.599991,0 -5.5,-2.400002 -4.899994,-6l1.599991,-8.900002c0.600006,-3.599998 3.400009,-6 7,-6l4.900009,0c3.599991,0 5.599991,2.400002 4.899994,6l-1.600006,8.900002c-0.599991,3.599998 -3.399994,6 -7,6zm5.500015,-14.900002c0.299988,-2 -0.600006,-3.199999 -2.600006,-3.199999l-4.199997,0c-2,0 -3.5,1.199999 -3.800003,3.199999l-1.600006,9c-0.399994,2 0.699997,3.200001 2.699997,3.200001l4.200012,0c2,0 3.399994,-1.299999 3.799988,-3.200001l1.500015,-9z" class="st4"/>
    <path id="svg_24" d="m254.199997,44.700001l-2.799988,-20.800001l3,0l2.199997,17.000002l8.100006,-17.000002l3.099976,0l2.100006,17.000002l8.200012,-17.000002l3.200012,0l-10.200012,20.800001l-3.5,0l-2.200012,-16.1l-7.799988,16.1l-3.400009,0z" class="st4"/>
    <path id="svg_25" d="m298.399994,38.099998l-0.099976,0.600002c-0.600006,3.599998 -3.400024,6 -7,6l-4.900024,0c-3.600006,0 -5.5,-2.400002 -4.899994,-6l1.600006,-8.900002c0.600006,-3.599998 3.399994,-6 7,-6l4.899994,0c3.600006,0 5.600006,2.400002 4.899994,6l-1,5.400002l-13.699982,0l-0.600006,3.5c-0.399994,2 0.700012,3.200001 2.700012,3.200001l4.199982,0c2,0 3.399994,-1.300003 3.800018,-3.200001l0.099976,-0.700001l3,0l0,0.099998zm-12.799988,-5.299999l10.600006,0l0.5,-3c0.299988,-2 -0.600006,-3.199999 -2.600006,-3.199999l-4.100006,0c-2,0 -3.5,1.199999 -3.799988,3.199999l-0.600006,3z" class="st4"/>
    <path id="svg_26" d="m316.799988,26.6c-2,0 -2.899994,0.299999 -3.899994,1.199999l-5.599976,4.700001l-2.100006,12.200001l-3.100006,0l3.600006,-20.800001l2.399994,0l0.100006,3.4l-0.300018,1.800001l3.700012,-3.1c1.600006,-1.4 3.299988,-2 5.600006,-2l-0.400024,2.6z" class="st4"/>
    <path id="svg_27" d="m333.600006,38.099998l-0.100006,0.600002c-0.599976,3.599998 -3.399994,6 -7,6l-4.899994,0c-3.599976,0 -5.5,-2.400002 -4.899994,-6l1.600006,-8.900002c0.600006,-3.599998 3.399994,-6 7,-6l4.899994,0c3.599976,0 5.599976,2.400002 4.899994,6l-1,5.400002l-13.699982,0l-0.600037,3.5c-0.399963,2 0.700012,3.200001 2.700012,3.200001l4.200012,0c2,0 3.399994,-1.300003 3.799988,-3.200001l0.100006,-0.700001l3,0l0,0.099998zm-12.800018,-5.299999l10.600006,0l0.5,-3c0.300018,-2 -0.599976,-3.199999 -2.599976,-3.199999l-4.200012,0c-2,0 -3.5,1.199999 -3.799988,3.199999l-0.500031,3z" class="st4"/>
    <path id="svg_28" d="m351.5,39.5l-3.700012,3.200001c-1.699982,1.5 -3.299988,2 -5,2c-3.599976,0 -5.499969,-2.400002 -4.799988,-5.900002l1.600006,-8.9c0.600006,-3.6 3.399994,-6 7,-6l3,0c2.100006,0 3.700012,0.9 4.299988,2.6l2,-11.4l3.100006,0l-5.200012,29.6l-2.399994,0l-0.099976,-3.400002l0.199982,-1.799999zm1.700012,-9.9c0.199982,-1.9 -0.700012,-3.1 -2.600006,-3.1l-4.200012,0c-2,0 -3.399994,1.200001 -3.799988,3.200001l-1.600006,9c-0.399994,2 0.700012,3.200001 2.600006,3.200001c1,0 1.799988,-0.300003 2.899994,-1.200001l5.600006,-4.700001l1.100006,-6.4z" class="st4"/>
    <path id="svg_29" d="m376.300018,29l3.699982,-3.200001c1.799988,-1.5 3.300018,-2 5,-2c3.600006,0 5.5,2.400002 4.899994,5.900002l-1.599976,8.899998c-0.600006,3.600002 -3.400024,6 -7,6l-3,0c-2.300018,0 -4,-1 -4.600006,-2.799999l-0.900024,2.799999l-2.399994,0l5.200012,-29.599998l3.100006,0l-2.399994,14zm-1.700012,9.799999c-0.299988,2 0.600006,3.200001 2.600006,3.200001l4.200012,0c2,0 3.5,-1.200001 3.799988,-3.200001l1.599976,-9c0.400024,-2 -0.699982,-3.199999 -2.599976,-3.199999c-1,0 -1.799988,0.299999 -2.899994,1.199999l-5.600006,4.799999l-1.100006,6.200001z" class="st4"/>
    <path id="svg_30" d="m393,52.700001l4.5,-8l-0.199982,0l-4.300018,-20.800001l3.200012,0l3.599976,17.4l9.600006,-17.4l3.300018,0l-16.100006,28.800001l-3.600006,0z" class="st4"/>
    <path id="svg_31" d="m444.700012,25.700001l0.5,-2.900002c0.399994,-2 -0.700012,-3.199999 -2.600006,-3.199999l-7.800018,0c-2,0 -3.499969,1.199999 -3.799988,3.199999l-2.799988,15.799999c-0.400024,2 0.699982,3.200001 2.599976,3.200001l7.800018,0c2,0 3.5,-1.299999 3.799988,-3.200001l0.5,-2.899998l3.300018,0l-0.600006,3c-0.600006,3.599998 -3.399994,6 -7,6l-9,0c-3.600006,0 -5.5,-2.400002 -4.899994,-6l2.799988,-16.1c0.600006,-3.6 3.399994,-6 7,-6l9,0c3.600006,0 5.5,2.4 4.899994,6l-0.5,3l-3.199982,0l0,0.1z" class="st4"/>
    <path id="svg_32" d="m463.600006,44.700001l2.600006,-14.900002c0.399994,-2 -0.700012,-3.199999 -2.600006,-3.199999c-1,0 -1.799988,0.299999 -2.899994,1.199999l-5.600006,4.700001l-2.100006,12.200001l-3.100006,0l5.200012,-29.6l3.100006,0l-2.5,13.9l3.700012,-3.1c1.799988,-1.5 3.299988,-2 5,-2c3.599976,0 5.5,2.4 4.899994,5.9l-2.600006,14.900002l-3.100006,0z" class="st4"/>
    <path id="svg_33" d="m486.600006,26.6c-2,0 -2.899994,0.299999 -3.899994,1.199999l-5.600006,4.700001l-2.100006,12.200001l-3.100006,0l3.600006,-20.800001l2.399994,0l0.100006,3.4l-0.299988,1.800001l3.699982,-3.1c1.600006,-1.4 3.300018,-2 5.600006,-2l-0.399994,2.6z" class="st4"/>
    <path id="svg_34" d="m496.299988,44.700001l-4.899994,0c-3.600006,0 -5.5,-2.400002 -4.899994,-6l1.599976,-8.900002c0.600006,-3.599998 3.400024,-6 7,-6l4.900024,0c3.599976,0 5.599976,2.400002 4.899994,6l-1.600006,8.900002c-0.599976,3.599998 -3.399994,6 -7,6zm5.5,-14.900002c0.299988,-2 -0.600006,-3.199999 -2.600006,-3.199999l-4.199982,0c-2,0 -3.5,1.199999 -3.799988,3.199999l-1.600006,9c-0.399994,2 0.699982,3.200001 2.699982,3.200001l4.200012,0c2,0 3.399994,-1.299999 3.799988,-3.200001l1.5,-9z" class="st4"/>
    <path id="svg_35" d="m520.799988,44.700001l2.600037,-14.900002c0.399963,-2 -0.700073,-3.199999 -2.600037,-3.199999c-1,0 -1.799988,0.299999 -2.900024,1.199999l-5.599976,4.700001l-2.100006,12.200001l-3.100006,0l3.600006,-20.800001l2.399994,0l0.099976,3.4l-0.299988,1.800001l3.700012,-3.1c1.700012,-1.5 3.299988,-2 5,-2c3.599976,0 5.5,2.4 4.900024,5.9l-2.600037,14.9l-3.099976,0l0,-0.099998z" class="st4"/>
    <path id="svg_36" d="m539.600037,44.700001l-4.900024,0c-3.600037,0 -5.5,-2.400002 -4.899963,-6l1.599976,-8.900002c0.599976,-3.599998 3.400024,-6 7,-6l4.900024,0c3.599976,0 5.599976,2.400002 4.899963,6l-1.599976,8.900002c-0.600037,3.599998 -3.400024,6 -7,6zm5.499939,-14.900002c0.300049,-2 -0.599976,-3.199999 -2.599976,-3.199999l-4.199951,0c-2,0 -3.5,1.199999 -3.800049,3.199999l-1.599976,9c-0.400024,2 0.700012,3.200001 2.700012,3.200001l4.200012,0c2,0 3.399963,-1.299999 3.799988,-3.200001l1.499939,-9z" class="st4"/>
    <path id="svg_37" d="m555.299988,16.700001l3.299988,0l-4.400024,25.099998l14.800049,0l-0.5,2.900002l-18.099976,0l4.899963,-28z" class="st4"/>
    <path id="svg_38" d="m582.099976,44.700001l-4.899963,0c-3.599976,0 -5.5,-2.400002 -4.899963,-6l1.599976,-8.900002c0.599976,-3.599998 3.400024,-6 7,-6l4.900024,0c3.599976,0 5.599976,2.400002 4.899963,6l-1.600037,8.900002c-0.599976,3.599998 -3.399963,6 -7,6zm5.500061,-14.900002c0.299988,-2 -0.600037,-3.199999 -2.600037,-3.199999l-4.199951,0c-2,0 -3.5,1.199999 -3.800049,3.199999l-1.599976,9c-0.400024,2 0.699951,3.200001 2.699951,3.200001l4.200073,0c2,0 3.399963,-1.299999 3.799927,-3.200001l1.500061,-9z" class="st4"/>
    <path id="svg_39" d="m607.099976,39.5l-3.699951,3.200001c-1.799988,1.5 -3.300049,2 -5,2c-3.599976,0 -5.5,-2.400002 -4.799988,-5.900002l1.599976,-8.9c0.600037,-3.6 3.400024,-6 7,-6l3,0c2.299988,0 4,1 4.5,2.800001l0.900024,-2.800001l2.399963,0l-4,22.800001c-0.599976,3.599998 -3.5,6 -7,6l-5,0c-3.599976,0 -5.599976,-2.400002 -4.900024,-6l0.100037,-0.600002l3.100037,0l-0.100037,0.700001c-0.399963,2 0.600037,3.200001 2.600037,3.200001l4.199951,0c2,0 3.5,-1.200001 3.800049,-3.200001l1.299927,-7.299999zm1.700012,-9.700001c0.299988,-2 -0.700012,-3.199999 -2.600037,-3.199999l-4.199951,0c-2,0 -3.399963,1.199999 -3.799988,3.199999l-1.599976,9c-0.400024,2 0.699951,3.200001 2.599976,3.200001c1,0 1.799988,-0.200001 2.899963,-1.200001l5.600037,-4.700001l1.099976,-6.299999z" class="st4"/>
    <path id="svg_40" d="m618.200012,23.9l3.100037,0l-3.600037,20.800001l-3.099976,0l3.599976,-20.800001zm1.299988,-7.5l3.100037,0l-0.800049,4.5l-3.099976,0l0.799988,-4.5z" class="st4"/>
    <path id="svg_41" d="m640.5,37.700001l-0.200012,1c-0.599976,3.599998 -3.400024,6 -7,6l-4.899963,0c-3.600037,0 -5.500061,-2.400002 -4.900024,-6l1.599976,-8.900002c0.600037,-3.599998 3.400024,-6 7,-6l4.900024,0c3.600037,0 5.600037,2.400002 4.899963,6l-0.199951,1l-3.099976,0l0.199951,-1.099998c0.299988,-2 -0.599976,-3.200001 -2.599976,-3.200001l-4.200012,0c-2,0 -3.5,1.200001 -3.799988,3.200001l-1.599976,9c-0.400024,2 0.699951,3.200001 2.699951,3.200001l4.200012,0c2,0 3.399963,-1.300003 3.799988,-3.200001l0.200012,-1.100002l3,0l0,0.100002z" class="st4"/>
   </g>
  </g>
  <g id="svg_42">
   <g id="svg_43">
    <g id="svg_44">
     <g id="svg_45">
      <path id="svg_46" d="m38,121.800003l-27,0c-2.1,-0.5 -3.4,-1.900002 -3.7,-4.100006l6.8,-2.5l22.1,0l1.799999,6.600006zm-30.5,-5.800003l2.2,-21.300003l1.8,-1.599998l4.4,4.900002l-1.599999,15.5l-6.8,2.5zm11.299999,-45l-1.599998,15.5l-5.500001,4.900002l-1.4,-1.599998l2.2,-21.300003l6.299999,2.5zm22.200001,-1.599998l-22,0l-6.3,-2.5c0.8,-2.200005 2.3,-3.5 4.500001,-4.100002l26.899998,0l-3.099998,6.600002zm-2.799999,19.599998l2.899998,3.300003l-3.599998,3.299995l-21.4,0l-2.900001,-3.299995l3.7,-3.300003l21.300001,0z" class="st3"/>
      <path id="svg_47" d="m61.599998,69.400002l-6.299999,-2.5c0.799999,-2.200005 2.299999,-3.5 4.5,-4.100002l26.100002,0c2.099998,0.5 3.400002,1.899998 3.699997,4.100002l-6.799995,2.5l-21.200005,0zm8,23.699997l2.900002,3.300003l-2.199997,21.299995c-0.800003,2.200005 -2.300003,3.5 -4.5,4.100006l-1.800003,-6.5l2,-18.800003l3.599998,-3.400002zm-2.699997,-4.900002l1.799995,-17.199997l6.5,0l-1.799995,17.199997l-3.700005,3.300003l-2.799995,-3.300003z" class="st3"/>
      <path id="svg_48" d="m101,98l-1.800003,17.199997l-3.099998,6.5c-2.099998,-0.5 -3.400002,-1.899994 -3.699997,-4.099998l2.400002,-22.900002l1.799995,-1.599998l4.400002,4.900002zm-4.400002,-5.699997l-1.400002,-1.600006l2.400002,-22.899994c0.800003,-2.200005 2.300003,-3.5 4.5,-4.100002l1.800003,6.499996l-1.800003,17.200005l-5.5,4.900002zm26.599998,-3.300003l2.900002,3.300003l-3.599998,3.299995l-21.300003,0l-2.899994,-3.299995l3.699997,-3.300003l21.199997,0zm4.5,4.099998l1.5,1.599998l-2.399994,22.900002c-0.800003,2.200005 -2.300003,3.5 -4.5,4.099998l-1.800003,-6.5l1.800003,-17.199997l5.399994,-4.900002zm-4.199997,-6.5l1.800003,-17.199997l3.099991,-6.5c2.100006,0.5 3.400009,1.900002 3.700012,4.099998l-2.400009,22.900002l-1.899994,1.599998l-4.300003,-4.900002z" class="st3"/>
      <path id="svg_49" d="m156.300003,108.699997l-6.5,0l0.699997,-6.5l6.5,0l-0.699997,6.5zm2.800003,-26.199997l-6.5,0l0.699997,-6.5l6.5,0l-0.699997,6.5z" class="st3"/>
      <path id="svg_50" d="m186.100006,98l-1.800003,17.199997l-3.099991,6.5c-2.100006,-0.5 -3.400009,-1.899994 -3.699997,-4.099998l2.399994,-22.900002l1.800003,-1.599998l4.399994,4.900002zm2.799988,-27l-1.600006,15.5l-5.5,4.900002l-1.399994,-1.599998l2.199997,-21.300003l6.300003,2.5zm19.800003,-1.599998l-19.599991,0l-6.300003,-2.5c0.800003,-2.200005 2.300003,-3.5 4.5,-4.100002l24.5,0l-3.100006,6.600002zm-0.399994,19.599998l2.899994,3.300003l-3.599991,3.299995l-21.300003,0l-2.900009,-3.299995l3.700012,-3.300003l21.199997,0zm4.399994,4.099998l1.5,1.599998l-2.399994,22.900002c-0.800003,2.200005 -2.300003,3.5 -4.5,4.099998l-1.800003,-6.5l1.800003,-17.199997l5.399994,-4.900002zm-4.099991,-6.5l1.800003,-17.199997l3.100006,-6.5c2.099991,0.5 3.399994,1.900002 3.699997,4.099998l-2.400009,22.900002l-1.899994,1.599998l-4.300003,-4.900002z" class="st3"/>
      <path id="svg_51" d="m228.600006,98l-1.800003,17.199997l-3.099991,6.5c-2.100006,-0.5 -3.400009,-1.899994 -3.699997,-4.099998l2.399994,-22.900002l1.800003,-1.599998l4.399994,4.900002zm-4.200012,-6.5l-1.400009,-1.599998l2.400009,-22.900002c0.800003,-2.199997 2.300003,-3.5 4.5,-4.099998l1.800003,6.5l-1.800003,17.199997l-5.5,4.900002zm4.100006,23.699997l19.600006,0l6.299988,2.5c-0.799988,2.200005 -2.299988,3.5 -4.5,4.100006l-24.5,0l3.100006,-6.600006z" class="st3"/>
      <path id="svg_52" d="m271.200012,98l-1.799988,17.199997l-3.100006,6.5c-2.100006,-0.5 -3.399994,-1.899994 -3.700012,-4.099998l2.399994,-22.900002l1.800018,-1.599998l4.399994,4.900002zm2.799988,-27l-1.600006,15.5l-5.5,4.900002l-1.399994,-1.599998l2.200012,-21.300003l6.299988,2.5zm19.799988,-1.599998l-19.600006,0l-6.299988,-2.5c0.799988,-2.200005 2.299988,-3.5 4.5,-4.100002l24.5,0l-3.100006,6.600002zm-0.399994,19.599998l2.899994,3.300003l-3.600006,3.299995l-21.299988,0l-2.899994,-3.299995l3.699982,-3.300003l21.200012,0zm4.399994,4.099998l1.5,1.599998l-2.399994,22.900002c-0.800018,2.200005 -2.300018,3.5 -4.5,4.099998l-1.800018,-6.5l1.800018,-17.199997l5.399994,-4.900002zm-4.099976,-6.5l1.799988,-17.199997l3.100006,-6.5c2.100006,0.5 3.399994,1.900002 3.700012,4.099998l-2.399994,22.900002l-1.900024,1.599998l-4.299988,-4.900002z" class="st3"/>
      <path id="svg_53" d="m313.700012,98l-1.799988,17.199997l-3.100006,6.5c-2.100006,-0.5 -3.399994,-1.899994 -3.700012,-4.099998l2.399994,-22.900002l1.800018,-1.599998l4.399994,4.900002zm2.899994,-27l-1.600006,15.5l-5.5,4.900002l-1.399994,-1.599998l2.200012,-21.300003l6.299988,2.5zm19.799988,-1.599998l-19.600006,0l-6.299988,-2.5c0.799988,-2.200005 2.299988,-3.5 4.5,-4.100002l24.5,0l-3.100006,6.600002zm-0.399994,19.599998l2.899994,3.300003l-3.600006,3.299995l-21.299988,0l-2.899994,-3.299995l3.699982,-3.300003l21.200012,0zm-20.600006,8.199997l4.899994,0l19.100006,21.300003c-1.300018,2.199997 -3.600006,3.300003 -6.899994,3.300003l-17.600006,-19.600006l0.5,-5zm20.800018,-10.599998l1.799988,-17.199997l3.100006,-6.5c2.100006,0.5 3.399994,1.900002 3.700012,4.099998l-2.399994,22.900002l-1.900024,1.599998l-4.299988,-4.900002z" class="st3"/>
      <path id="svg_54" d="m356.299988,98l-1.799988,17.199997l-3.100006,6.5c-2.100006,-0.5 -3.399994,-1.899994 -3.700012,-4.099998l2.399994,-22.900002l1.800018,-1.599998l4.399994,4.900002zm2.800018,-27l-1.600006,15.5l-5.5,4.900002l-1.399994,-1.599998l2.200012,-21.300003l6.299988,2.5zm19.799988,-1.599998l-19.600006,0l-6.299988,-2.5c0.799988,-2.200005 2.299988,-3.5 4.5,-4.100002l24.5,0l-3.100006,6.600002zm-7.799988,20.5l-3.699982,3.299995l-2.900024,-3.299995l2,-18.800003l6.5,0l-1.899994,18.800003zm11.799988,3.199997l1.5,1.599998l-2.399994,22.900002c-0.800018,2.200005 -2.300018,3.5 -4.5,4.099998l-1.800018,-6.5l1.800018,-17.199997l5.399994,-4.900002zm-4.100006,-6.5l1.799988,-17.199997l3.100006,-6.5c2.100006,0.5 3.399994,1.900002 3.700012,4.099998l-2.399994,22.900002l-1.899994,1.599998l-4.300018,-4.900002z" class="st3"/>
      <path id="svg_55" d="m411.600006,108.699997l-6.600006,0l0.700012,-6.5l6.5,0l-0.600006,6.5zm2.699982,-26.199997l-6.5,0l0.700012,-6.5l6.5,0l-0.700012,6.5z" class="st3"/>
      <path id="svg_56" d="m463.399994,121.800003l-27,0c-2.100006,-0.5 -3.399994,-1.900002 -3.700012,-4.100006l6.800018,-2.5l22.099976,0l1.800018,6.600006zm-30.5,-5.800003l2.199982,-21.300003l1.800018,-1.599998l4.399994,4.900002l-1.600006,15.5l-6.799988,2.5zm11.300018,-45l-1.600006,15.5l-5.5,4.900002l-1.399994,-1.599998l2.200012,-21.300003l6.299988,2.5zm22.299988,-1.599998l-22,0l-6.299988,-2.5c0.799988,-2.200005 2.299988,-3.5 4.5,-4.100002l26.899994,0l-3.100006,6.600002z" class="st3"/>
      <path id="svg_57" d="m483.899994,98l-1.800018,17.199997l-3.099976,6.5c-2.100006,-0.5 -3.400024,-1.899994 -3.700012,-4.099998l2.399994,-22.900002l1.800018,-1.599998l4.399994,4.900002zm-4.299988,-6.5l-1.399994,-1.599998l2.399994,-22.900002c0.800018,-2.199997 2.300018,-3.5 4.5,-4.099998l1.800018,6.5l-1.800018,17.199997l-5.5,4.900002zm4.100006,23.699997l19.600006,0l6.299988,2.5c-0.799988,2.200005 -2.299988,3.5 -4.5,4.100006l-24.5,0l3.100006,-6.600006z" class="st3"/>
      <path id="svg_58" d="m526.400024,98l-1.799988,17.199997l-2.700012,2.5l-3.700012,-4.099998l2,-18.799995l1.799988,-1.600006l4.400024,4.800003zm-4.200012,-6.5l-1.400024,-1.599998l2,-18.800003l4.5,-4.099998l2.200012,2.5l-1.799988,17.199997l-5.5,4.800003zm25,27l-3.599976,3.300003l-18,0l-2.900024,-3.300003l3.599976,-3.300003l18,0l2.900024,3.300003zm1.899963,-49.099998l-18,0l-2.900024,-3.300003l3.600037,-3.299999l18,0l2.899963,3.299999l-3.599976,3.300003zm4,23.699997l1.5,1.599998l-2,18.800003l-4.5,4.099998l-2.200012,-2.5l1.799988,-17.199997l5.400024,-4.800003zm-4.199951,-6.5l1.799988,-17.199997l2.700012,-2.5l3.700012,4.099998l-2,18.800003l-1.900024,1.599998l-4.299988,-4.800003z" class="st3"/>
      <path id="svg_59" d="m591.099976,121.800003l-27,0c-2.099976,-0.5 -3.400024,-1.900002 -3.700012,-4.100006l6.799988,-2.5l22.100037,0l1.799988,6.600006zm-30.599976,-5.800003l2.200012,-21.300003l1.799988,-1.599998l4.5,4.900002l-1.599976,15.5l-6.900024,2.5zm11.299988,-45l-1.599976,15.5l-5.5,4.900002l-1.400024,-1.599998l2.200012,-21.300003l6.299988,2.5zm22.299988,-1.599998l-22,0l-6.299988,-2.5c0.799988,-2.200005 2.299988,-3.5 4.5,-4.100002l26.899963,0l-3.099976,6.600002z" class="st3"/>
      <path id="svg_60" d="m611.5,98l-1.799988,17.199997l-3.100037,6.5c-2.099976,-0.5 -3.399963,-1.899994 -3.699951,-4.099998l2.399963,-22.900002l1.799988,-1.599998l4.400024,4.900002zm-4.200012,-6.5l-1.400024,-1.599998l2.400024,-22.900002c0.799988,-2.199997 2.299988,-3.5 4.5,-4.099998l1.799988,6.5l-1.799988,17.199997l-5.5,4.900002zm26.5,-2.5l2.900024,3.300003l-3.600037,3.299995l-21.299988,0l-2.900024,-3.299995l3.700012,-3.300003l21.200012,0zm-19,-6.5l21.700012,-19.599998c3.299988,0 5.299988,1.099998 6.200012,3.299995l-23.5,21.300003l-4.900024,0l0.5,-5zm23.400024,10.599998l1.5,1.599998l-2.400024,22.900002c-0.799988,2.200005 -2.299988,3.5 -4.5,4.099998l-1.799988,-6.5l1.799988,-17.199997l5.400024,-4.900002z" class="st3"/>
     </g>
    </g>
   </g>
  </g>
 </g>
</svg>