<svg width="250" height="162" viewBox="0 0 250 162" fill="none" xmlns="http://www.w3.org/2000/svg">
<path fill-rule="evenodd" clip-rule="evenodd" d="M187.327 135.071C194.523 135.071 200.357 129.237 200.357 122.041C200.357 114.845 194.523 109.011 187.327 109.011C180.131 109.011 174.297 114.845 174.297 122.041C174.297 129.237 180.131 135.071 187.327 135.071ZM187.327 137.242C195.723 137.242 202.529 130.436 202.529 122.041C202.529 113.645 195.723 106.839 187.327 106.839C178.932 106.839 172.126 113.645 172.126 122.041C172.126 130.436 178.932 137.242 187.327 137.242Z" fill="#C4C4C4"/>
<path fill-rule="evenodd" clip-rule="evenodd" d="M24.9977 94.8954C24.398 94.8954 23.9119 95.3815 23.9119 95.9812V148.101C23.9119 148.7 24.398 149.186 24.9977 149.186H205.787C206.386 149.186 206.873 148.7 206.873 148.101V95.9812C206.873 95.3815 206.386 94.8954 205.787 94.8954H24.9977ZM187.599 132.899C193.446 132.899 198.186 128.159 198.186 122.312C198.186 116.465 193.446 111.726 187.599 111.726C181.752 111.726 177.013 116.465 177.013 122.312C177.013 128.159 181.752 132.899 187.599 132.899Z" fill="#444444"/>
<path fill-rule="evenodd" clip-rule="evenodd" d="M26.0835 97.067V147.015H204.701V97.067H26.0835ZM200.358 122.312C200.358 129.359 194.646 135.071 187.599 135.071C180.553 135.071 174.841 129.359 174.841 122.312C174.841 115.266 180.553 109.554 187.599 109.554C194.646 109.554 200.358 115.266 200.358 122.312ZM23.9119 95.9812C23.9119 95.3815 24.398 94.8954 24.9977 94.8954H205.787C206.386 94.8954 206.873 95.3815 206.873 95.9812V148.101C206.873 148.7 206.386 149.186 205.787 149.186H24.9977C24.398 149.186 23.9119 148.7 23.9119 148.101V95.9812ZM198.186 122.312C198.186 128.159 193.446 132.899 187.599 132.899C181.752 132.899 177.013 128.159 177.013 122.312C177.013 116.465 181.752 111.726 187.599 111.726C193.446 111.726 198.186 116.465 198.186 122.312Z" fill="#444444"/>
<rect x="46.4147" y="103.713" width="105.484" height="37.5862" rx="2" fill="white" fill-opacity="0.12"/>
<path d="M75.4619 123.015H71.7877V125.807H76.0824V127.067H70.2333V117.99H76.0394V119.262H71.7877V121.768H75.4619V123.015Z" fill="#00F0FF"/>
<path d="M79.0746 118.682V120.322H80.2481V121.444H79.0746V125.209C79.0746 125.467 79.1237 125.654 79.222 125.77C79.3244 125.882 79.5047 125.938 79.7627 125.938C79.9348 125.938 80.1088 125.917 80.285 125.876V127.048C79.945 127.143 79.6173 127.191 79.3019 127.191C78.155 127.191 77.5816 126.549 77.5816 125.265V121.444H76.4879V120.322H77.5816V118.682H79.0746Z" fill="#00F0FF"/>
<path d="M82.8655 121.057C83.3529 120.484 83.9694 120.197 84.7148 120.197C86.1321 120.197 86.8509 121.018 86.8714 122.659V127.067H85.3784V122.715C85.3784 122.25 85.2781 121.922 85.0773 121.73C84.8807 121.535 84.5899 121.438 84.2049 121.438C83.6069 121.438 83.1604 121.708 82.8655 122.248V127.067H81.3725V117.492H82.8655V121.057Z" fill="#00F0FF"/>
<path d="M91.3136 127.191C90.3674 127.191 89.5994 126.89 89.0095 126.287C88.4238 125.681 88.1309 124.874 88.1309 123.869V123.682C88.1309 123.008 88.2579 122.408 88.5119 121.88C88.7699 121.348 89.1304 120.935 89.5932 120.64C90.0561 120.345 90.5722 120.197 91.1415 120.197C92.0468 120.197 92.7451 120.49 93.2367 121.076C93.7323 121.662 93.9801 122.491 93.9801 123.563V124.174H89.6362C89.6813 124.731 89.8636 125.172 90.1831 125.496C90.5067 125.82 90.9122 125.982 91.3996 125.982C92.0836 125.982 92.6407 125.701 93.0708 125.14L93.8757 125.92C93.6094 126.323 93.2531 126.636 92.8066 126.861C92.3642 127.081 91.8665 127.191 91.3136 127.191ZM91.1354 121.413C90.7258 121.413 90.394 121.558 90.1401 121.849C89.8902 122.14 89.7305 122.545 89.6608 123.065H92.5055V122.952C92.4728 122.445 92.3396 122.063 92.1062 121.805C91.8727 121.543 91.5491 121.413 91.1354 121.413Z" fill="#00F0FF"/>
<path d="M98.625 121.706C98.4284 121.672 98.2257 121.656 98.0168 121.656C97.3327 121.656 96.8719 121.922 96.6343 122.454V127.067H95.1413V120.322H96.5668L96.6036 121.076C96.9641 120.49 97.4638 120.197 98.1028 120.197C98.3158 120.197 98.4919 120.226 98.6312 120.284L98.625 121.706Z" fill="#00F0FF"/>
<path d="M102.373 127.191C101.427 127.191 100.659 126.89 100.069 126.287C99.4831 125.681 99.1903 124.874 99.1903 123.869V123.682C99.1903 123.008 99.3172 122.408 99.5712 121.88C99.8293 121.348 100.19 120.935 100.653 120.64C101.115 120.345 101.632 120.197 102.201 120.197C103.106 120.197 103.804 120.49 104.296 121.076C104.792 121.662 105.039 122.491 105.039 123.563V124.174H100.696C100.741 124.731 100.923 125.172 101.242 125.496C101.566 125.82 101.971 125.982 102.459 125.982C103.143 125.982 103.7 125.701 104.13 125.14L104.935 125.92C104.669 126.323 104.312 126.636 103.866 126.861C103.424 127.081 102.926 127.191 102.373 127.191ZM102.195 121.413C101.785 121.413 101.453 121.558 101.199 121.849C100.95 122.14 100.79 122.545 100.72 123.065H103.565V122.952C103.532 122.445 103.399 122.063 103.165 121.805C102.932 121.543 102.608 121.413 102.195 121.413Z" fill="#00F0FF"/>
<path d="M110.231 126.406C109.793 126.929 109.17 127.191 108.363 127.191C107.642 127.191 107.096 126.977 106.723 126.549C106.354 126.121 106.17 125.502 106.17 124.692V120.322H107.663V124.673C107.663 125.529 108.013 125.957 108.714 125.957C109.439 125.957 109.928 125.693 110.182 125.165V120.322H111.675V127.067H110.268L110.231 126.406Z" fill="#00F0FF"/>
<path d="M114.6 120.322L114.643 121.026C115.11 120.473 115.749 120.197 116.56 120.197C117.448 120.197 118.057 120.542 118.384 121.232C118.868 120.542 119.548 120.197 120.424 120.197C121.157 120.197 121.702 120.403 122.058 120.814C122.419 121.226 122.603 121.832 122.611 122.634V127.067H121.118V122.678C121.118 122.25 121.026 121.936 120.842 121.737C120.658 121.537 120.352 121.438 119.926 121.438C119.587 121.438 119.308 121.531 119.091 121.718C118.878 121.901 118.728 122.142 118.642 122.441L118.649 127.067H117.156V122.628C117.135 121.834 116.736 121.438 115.957 121.438C115.359 121.438 114.935 121.685 114.686 122.179V127.067H113.193V120.322H114.6Z" fill="#00F0FF"/>
<path fill-rule="evenodd" clip-rule="evenodd" d="M171.33 144.814C183.702 153.749 200.975 150.963 209.91 138.591C218.845 126.219 216.059 108.947 203.687 100.011L67.7339 2.30202C66.7442 1.58722 65.3624 1.8101 64.6476 2.79985L34.8793 44.0181C34.1645 45.0078 34.3874 46.3896 35.3772 47.1044L171.33 144.814ZM197.465 110.515C190.536 105.512 180.864 107.072 175.86 114C170.856 120.928 172.417 130.601 179.345 135.605C186.273 140.608 195.946 139.048 200.949 132.12C205.953 125.192 204.393 115.519 197.465 110.515Z" fill="#C4C4C4"/>
<path d="M197.464 110.514C190.536 105.511 180.863 107.071 175.86 113.999C170.856 120.927 172.416 130.6 179.344 135.604C186.273 140.607 195.945 139.047 200.949 132.119C205.953 125.191 204.392 115.518 197.464 110.514Z" fill="#C4C4C4"/>
<path fill-rule="evenodd" clip-rule="evenodd" d="M196.9 111.295C190.403 106.603 181.333 108.066 176.641 114.563C171.948 121.06 173.412 130.13 179.908 134.823C186.405 139.515 195.476 138.052 200.168 131.555C204.86 125.058 203.397 115.987 196.9 111.295ZM175.86 113.999C180.863 107.071 190.536 105.511 197.464 110.514C204.392 115.518 205.953 125.191 200.949 132.119C195.945 139.047 186.273 140.607 179.344 135.604C172.416 130.6 170.856 120.927 175.86 113.999Z" fill="#444444" fill-opacity="0.12"/>
<path d="M75.6649 30.0532L69.74 25.7742L63.9673 33.7673L71.9669 39.5447L76.2459 33.6198C77.0656 32.4849 76.8057 30.8771 75.6714 30.0579C75.6695 30.0565 75.6668 30.0546 75.6649 30.0532V30.0532Z" fill="white"/>
<path d="M67.8936 24.4423L66.8725 23.7048C65.7383 22.8856 64.1298 23.1451 63.3107 24.2793L62.5732 25.3004L65.6625 27.5315L67.8936 24.4423Z" fill="white"/>
<path d="M61.2389 27.1458L64.3282 29.3769L62.0971 32.4662L59.0078 30.2351L61.2389 27.1458Z" fill="white"/>
<path d="M65.3337 42.2747L66.3548 43.0121C67.4897 43.8318 69.0975 43.5719 69.9166 42.4376C69.9181 42.4357 69.9199 42.4331 69.9213 42.4311L70.6353 41.4426L67.546 39.2114L65.3337 42.2747Z" fill="white"/>
<path d="M62.6095 35.6475L65.6988 37.8786L63.4677 40.9678L60.3784 38.7367L62.6095 35.6475Z" fill="white"/>
<path d="M57.675 32.0839L56.9376 33.1049C56.1184 34.2392 56.3779 35.8476 57.5121 36.6668L58.5332 37.4042L60.7643 34.315L57.675 32.0839Z" fill="white"/>
<path d="M85.039 38.0808L83.8293 37.2071L75.6611 48.5171L82.0673 53.1438L82.847 52.0641L77.6505 48.3112L85.039 38.0808Z" fill="white"/>
<path d="M91.9595 47.6423C89.6051 45.9419 86.6831 46.4937 84.8654 49.0106L84.6587 49.2968C83.15 51.553 83.6967 54.6396 85.888 56.2409L86.044 56.3537C87.1472 57.1474 88.4971 57.5226 89.852 57.4116L89.8755 57.379L89.9726 56.0935L89.8906 56.0837C88.8025 56.2202 87.7019 55.9449 86.8068 55.3113C86.7842 55.2959 86.7621 55.28 86.74 55.264C85.0984 54.0785 84.7234 51.7532 85.9089 50.1116C85.9324 50.0791 85.9563 50.0459 85.9811 50.0144L92.0946 54.4296L92.1416 54.3646L92.555 53.7922C94.2716 51.5387 93.9951 49.1124 91.9595 47.6423V47.6423ZM86.7836 49.0402C87.9163 47.8118 89.8117 47.625 91.1617 48.6099C92.1828 49.3473 92.8599 50.7666 91.6874 52.5818L86.7836 49.0402Z" fill="white"/>
<path d="M101.676 56.1122L101.371 56.535C101.475 55.3005 100.928 54.0976 99.9285 53.3659L99.7789 53.2579C97.6132 51.6937 94.8773 52.3304 93.0595 54.8473C91.2417 57.3643 91.4043 60.1537 93.5376 61.6943C94.6052 62.5455 96.0623 62.7339 97.3112 62.1831L96.414 63.4253L97.5587 64.252L105.689 52.9941L104.532 52.158L101.676 56.1122ZM94.5225 60.7827C93.0267 59.7024 92.9775 57.6877 94.3397 55.8016C95.7018 53.9155 97.6648 53.4035 99.1347 54.465C100.351 55.3434 100.873 57.2244 99.3085 59.3901C97.6129 61.738 95.7062 61.6376 94.4965 60.7639L94.5225 60.7827Z" fill="white"/>
<path d="M109.723 62.1624L109.676 62.2275C109.726 61.6793 109.627 60.3508 107.949 59.1389C105.815 57.5983 103.236 58.2097 101.442 60.6941C99.6477 63.1785 99.901 65.9245 102.067 67.4886C103.027 68.2973 104.367 68.4978 105.523 68.0057L104.715 69.1243C103.588 70.6852 101.956 70.8623 100.2 69.5941C99.4395 69.0519 98.8197 68.337 98.3921 67.5067L98.3571 67.4319L97.1944 68.0964L97.2359 68.1759C97.7551 69.1822 98.4973 70.0577 99.4067 70.7333C101.286 72.0907 103.999 72.5955 105.911 69.9485L111.548 62.144L110.357 61.2844L109.723 62.1624ZM102.943 66.5774C101.382 65.4501 101.215 63.4889 102.572 61.6093C103.93 59.7297 105.629 59.2546 107.157 60.3584C108.841 61.5749 108.927 63.1412 107.476 65.1509C106.025 67.1605 104.471 67.6812 102.943 66.5774V66.5774Z" fill="white"/>
<path d="M116.517 65.3771C114.157 63.6721 111.267 64.2473 109.473 66.7317L109.266 67.0179C107.73 69.2918 108.286 72.4176 110.511 74.0227L110.674 74.1402C111.776 74.9265 113.123 75.2959 114.473 75.1822L114.606 73.8334L114.541 73.7864C113.456 73.9247 112.357 73.6508 111.464 73.0186C111.441 73.0033 111.419 72.9873 111.397 72.9714C109.752 71.7835 109.376 69.4526 110.564 67.8078C110.586 67.7772 110.609 67.7471 110.632 67.717L116.797 72.1698L116.844 72.1048L117.257 71.5325C118.869 69.3017 118.586 66.8708 116.517 65.3771V65.3771ZM111.368 66.7938C112.504 65.5659 114.401 65.3823 115.752 66.3682C116.767 67.1009 117.444 68.5202 116.271 70.3354L111.368 66.7938Z" fill="white"/>
<path d="M124.781 71.5823C124.618 71.4649 124.495 71.3757 124.379 71.1932C123.207 70.3969 121.651 70.4214 120.505 71.255L121.815 69.4405L120.638 68.5903L114.771 76.7135L115.981 77.5871L118.442 74.1792C118.824 73.6584 119.286 73.2001 119.809 72.821C121.09 71.8559 122.522 71.6824 123.543 72.4199C123.68 72.4989 123.808 72.5919 123.926 72.697L123.992 72.744L124.813 71.6058L124.781 71.5823Z" fill="white"/>
</svg>
