<?xml version="1.0" encoding="UTF-8"?>
<svg width="63px" height="76px" viewBox="0 0 63 76" version="1.1" xmlns="http://www.w3.org/2000/svg" xmlns:xlink="http://www.w3.org/1999/xlink">
    <!-- Generator: Sketch 55.2 (78181) - https://sketchapp.com -->
    <title>Group 13 Copy 2</title>
    <desc>Created with Sketch.</desc>
    <g id="Keystore-file_create-new-wallet" stroke="none" stroke-width="1" fill="none" fill-rule="evenodd">
        <g id="Group-18" transform="translate(2.000000, 6.000000)">
            <g id="paper-plane" transform="translate(3.000000, 0.000000)" fill-rule="nonzero">
                <path d="M18.2830189,34.2857143 L18.2830189,43.1864784 C18.2830189,43.9360673 18.7137743,44.6082793 19.3689761,44.8766805 C19.5684839,44.9588935 19.7770602,45 19.9833694,45 C20.4526661,45 20.9128943,44.7920495 21.2416288,44.4051649 L26.8867925,37.7773479 L18.2830189,34.2857143 Z" id="Path" fill="#5D7BEF"></path>
                <path d="M54.5721892,0.118773301 L1.13524747,20.5232652 C0.44887964,20.7844427 -0.00236564544,21.4350545 -9.25676024e-06,22.1602885 C0.00238430493,22.8855224 0.458379541,23.5314703 1.14712234,23.7879839 L15.8790934,29.289035 L47.8937589,9.13406082 L21.4840349,31.3807869 L43.3029319,39.528592 C43.5071798,39.6032141 43.7233025,39.6428571 43.9370503,39.6428571 C44.2054225,39.6428571 44.4737947,39.5845586 44.7207921,39.4656296 C45.1649125,39.2510909 45.497409,38.8686524 45.6422825,38.4069279 L56.9234146,2.26182794 C57.1205375,1.62054391 56.9305395,0.923293268 56.4294198,0.466232649 C55.930675,0.0115039716 55.2086825,-0.123748661 54.5721892,0.118773301 Z" id="Path" fill="#CDF4EE"></path>
            </g>
            <path d="M21,62 C20.3195201,55.5 11.8132835,52.1680694 11.4549704,56.6973109 C11.0966574,61.2265525 23.0926926,58.5336436 20.3195201,53.2765842 C17.5463476,48.0195249 4.83043903,47.1461173 0,53.2765842" id="Path-2" stroke="#05C0A5" stroke-width="2" stroke-linecap="round" transform="translate(10.500000, 55.500000) scale(1, -1) translate(-10.500000, -55.500000) "></path>
        </g>
    </g>
</svg>