<?xml version="1.0" encoding="UTF-8"?>
<svg width="17px" height="38px" viewBox="0 0 17 38" version="1.1" xmlns="http://www.w3.org/2000/svg" xmlns:xlink="http://www.w3.org/1999/xlink">
    <!-- Generator: Sketch 55.2 (78181) - https://sketchapp.com -->
    <title>Group 20</title>
    <desc>Created with Sketch.</desc>
    <g id="MEWconnect_create-new-wallet" stroke="none" stroke-width="1" fill="none" fill-rule="evenodd">
        <g id="MEWconnect-2" transform="translate(-601.000000, -366.000000)" fill="#FFFFFF">
            <g id="Group-20" transform="translate(601.000000, 366.000000)">
                <path d="M0.0114838962,0 L14.6391702,0 L11.2783403,0 C10.9600267,9.46651683e-16 10.6463105,0.0759776732 10.3632688,0.221617529 C9.38109532,0.726997545 8.99457782,1.93289795 9.49995783,2.91507147 L16.0647867,15.6733936 C16.9238172,17.342864 16.9518422,19.3181943 16.1405192,21.0113629 L9.37247593,35.1357484 C9.24320783,35.4055209 9.17610259,35.7008554 9.17610259,36 C9.17610259,37.1045695 10.0715331,38 11.1761026,38 L14.5880513,38 L1.42108547e-14,38 C2.21283145,37.9634015 4.2298631,36.7111422 5.24182367,34.7369964 L12.2010684,21.1608115 C13.1104531,19.3867721 13.0793206,17.2769084 12.117989,15.5304726 L5.27925634,3.10665753 C4.22444057,1.19039074 2.21036687,-3.95453237e-15 0.0229677924,0 L0.0114838962,0 Z" id="Combined-Shape"></path>
            </g>
        </g>
    </g>
</svg>