<svg width="37" height="37" xmlns="http://www.w3.org/2000/svg"><path fill="none" d="M-1-1h39v39H-1z"/><g stroke="null"><path stroke-opacity="null" stroke-width="null" fill="#fff" d="M10.674 10.288h15.402v17.471H10.674z"/><path d="M33.848 18.674a185.83 185.83 0 011.889-1.072l1.181-.642-.335-1.313c-1.307-5.104-3.683-9.07-7.069-11.785C26.494 1.438 22.802.158 18.842.158c-4.333 0-8.601 1.52-12.02 4.277C3.208 7.352.917 11.413.374 15.868l-.13 1.074.899.588c.643.421 1.198.782 1.67 1.09a68.61 68.61 0 01-1.521.818l-1.13.586.229 1.264c.917 5.057 3.227 9.197 6.68 11.977 3.1 2.494 6.95 3.813 11.135 3.813 4.375 0 8.612-1.457 11.935-4.103 3.61-2.878 5.823-6.991 6.231-11.58l.093-1.023-.845-.57c-.267-.176-.992-.638-1.772-1.128zm-15.31 10.773c-5.914 0-10.71-4.848-10.71-10.827 0-5.981 4.794-10.829 10.71-10.829S29.25 12.64 29.25 18.62s-4.797 10.827-10.711 10.827z" fill="#B8B6B2" clip-rule="evenodd" fill-rule="evenodd"/><path d="M34.926 16.081c-5.57-21.794-30.93-15.82-32.858 0 3.02 1.975 4.062 2.632 4.062 2.632s-2.134 1.264-4.062 2.263c3.801 20.954 31.088 17.216 32.597.264-.625-.421-4.165-2.632-4.165-2.632s3.75-2.16 4.426-2.527zM21.13 25.61l-2.916-5.159-2.97 5.159-2.238-.16 4.217-7.316-3.8-6.317 2.291-.211 2.707 4.685 2.709-4.474 2.135.052-3.542 6.213 3.905 7.475-2.498.053z" fill="#254A81"/></g></svg>