<svg version="1.0" xmlns="http://www.w3.org/2000/svg" width="682.667" height="682.667" viewBox="0 0 512 512"><path d="M117.9 64.1c-11.5 3.2-21.5 12.4-26.7 24.6-1.2 2.8-2.2 5.4-2.2 5.7 0 1 13.4-4.4 18.9-7.7 6.6-3.9 17.2-13.6 21.2-19.3 1.6-2.4 2.9-4.4 2.9-4.6 0-1-8.6-.2-14.1 1.3zm262.7-1.2c-1.2 1.9 8.4 13.1 16.8 19.5 7.7 5.9 24 13.5 25 11.7.3-.4-1-3.8-2.9-7.7-5.2-10.5-13.6-18.3-23.6-21.7-5.9-2-14.6-3.1-15.3-1.8zm-133.8 1.6c-.2.1-3.9.6-8.3.9-36.3 3.1-74.7 21.8-99.9 48.8-18.1 19.3-31.2 44.2-35.2 66.5-.2 1.3-.7 3.5-1 5-1.4 6.2-1.3 33.9.1 41.8 2.2 12.3 2.3 12.8 5.6 22.2 16.2 45.9 56.1 81.2 106.6 94.3 9.4 2.4 9.4 2.4 19.8 4 7.8 1.2 33.1 1.6 41 .6 56.3-6.9 101.8-37.3 124.5-83.1 10.4-21 14.6-40.4 13.6-63.5-.2-7.4-.7-14.6-1-16-.3-1.4-.9-4.1-1.2-6-2-11.2-10.6-32.4-17.9-44-17.1-27.3-46.8-50.6-78.5-61.8-9-3.1-22.9-6.7-29.5-7.7-2.3-.3-5.2-.8-6.5-1.1-2.6-.5-31.7-1.4-32.2-.9zm26.8 15.3c2.1 1.1 5.3 4.6 9.7 10.3l2.8 3.7-11.8-.2-11.7-.1-.1-6.3c-.1-3.4.1-6.6.4-7.1 1.4-2 7.2-2.2 10.7-.3zM252.1 81c.1.5.1 3.6.2 6.7l.1 5.8-11.9.2c-6.5.2-11.5 0-11.1-.4.4-.4 1.3-.8 1.9-.8 4.7-.3 12.9-4 15.6-7.1 1.7-1.9 3.1-3.9 3.1-4.4 0-1.3 2-1.3 2.1 0zm-32.6 9l-2.2 3.5-8.7.2-8.7.2 2.7-2.2c1.5-1.2 5.2-3.6 8.2-5.3 5.2-3 5.6-3.1 8.2-1.6l2.8 1.6-2.3 3.6zm81.5-1.2c0 .5 1.1 1.5 2.5 2.2 3.5 1.9 3.1 2.8-1.4 2.8-3.1.1-4.2-.5-6-2.9l-2.2-2.9h3.6c1.9 0 3.5.4 3.5.8zM212 104c0 .5-.4 1-1 1-.5 0-1-.5-1-1 0-.6.5-1 1-1 .6 0 1 .4 1 1zm40.4 19v19.5l-21.7.3-21.6.2 2.3-8.3c2.6-9.2 5.5-17.4 9.3-26l2.6-5.8 14.6.3 14.5.3V123zm28.7-18.4c.7.9 2.1 1.3 3.4 1 1.2-.3 3.1.2 4.3 1l2.3 1.6-2.5 1.9c-1.3 1-3.2 1.9-4.1 1.9-2 0-5.5 1.8-5.5 2.9 0 .4 1.8 1.6 4 2.6 4.4 2 6.1 5.5 4.1 8.6-2.3 3.8-1.4 4.9 3.5 4.5 3.2-.2 5.3-1.1 7.3-3l2.8-2.6 1 3.5c1.1 3.5 1 3.6-2.3 5-1.9.8-5.9 1.9-8.9 2.4-6.6 1.2-9.1 2.5-10.5 5.1-.9 1.7-2.1 2-9.3 2h-8.2l.1-19.3c.1-10.5.2-19.5.3-20 0-.4 3.9-.7 8.5-.7 6.4 0 8.7.4 9.7 1.6zm-80.5 13.8c1.4-.3 3.2-.6 3.8-.7 1.5-.3 1.2 1.2-1.7 11.3-1.4 4.7-2.8 9.7-3.1 11.2l-.6 2.8h-14.8l-14.7-.1 2.5-2c1.4-1.2 4.3-3.6 6.5-5.5s4.6-3.4 5.3-3.4c.8 0 2.6 1.3 4.2 3 3 3.2 3.6 3 6.8-2.7 2-3.7 1.4-4.8-3.3-6.1-4.5-1.2-5.6-2.9-3.7-5.9 1.2-1.9 5.5-3.1 7.9-2.2 1.2.4 3.4.6 4.9.3zm131.8 8.1c1.6 1.6 5.2 3.5 6.7 3.5.7 0 .9-1 .7-2.5-.3-1.4 0-3.3.7-4.2 1.1-1.5 1.8-.7 5.8 6.2 2.6 4.3 4.5 8.1 4.3 8.3-.3.2-1.6-.4-3.1-1.4l-2.8-1.8-3.6 4.2c-4.1 4.9-5.3 5.1-7.5 1.8-.8-1.3-2.8-2.7-4.3-3-1.5-.4-4.3-2.2-6.1-4.1-3.5-3.5-9.2-6.2-9.2-4.4 0 2.2-1.9-.3-2.5-3.4-.4-1.7-1.2-3.7-1.7-4.4-1.3-1.6.9-2.8 2.6-1.3 3.6 2.9 10.6 3.3 10.6.5 0-.6 1-1.7 2.3-2.2 2-1 2.4-.7 4.1 3 1 2.2 2.4 4.6 3 5.2zm-135.9 27c-.1 1-1.8 13.6-2 14.5-.3 1.2-1.7 19.2-2 25.8-.2 4.1-.6 7.6-.9 7.9-.4.4-23.3.6-39.9.4l-3.7-.1.5-5.3c1.7-16.7 2.1-19.3 5.2-30.8 2-7.7 3-9.9 4.9-11 1.3-.7 2.4-1.5 2.4-1.9 0-.4 8-.7 17.8-.6 11.1.1 17.7.5 17.7 1.1zm55.6-.6c.6 3.5.2 48.4-.4 48.8-1.2.7-47.3.7-48.5-.1-1.5-.9-.2-21.4 2.4-38.7l1.6-10.6h22.4c12.3 0 22.4.3 22.5.6zm20.9.3c0 .5-.5 1.6-1.1 2.7-.8 1.2-.9 3.1-.3 5.7 1.1 5.1.8 8.5-1.3 16.3-1.6 6.3-1.6 6.5.3 7.5 1 .6 4.6 3.9 7.9 7.3 3.4 3.4 7.6 6.9 9.5 7.7 3.5 1.5 3.4 1.5-5.2 1.6-10.3.2-15 .2-18.1.1l-2.2-.1.1-24.3c.1-13.3.2-24.5.3-24.8.2-.9 10.1-.6 10.1.3zm118.3.9c.7 2.6-.1 2.9-3.4 1.2-3.7-1.9-3.7-3.2 0-3.1 1.9.1 3.1.7 3.4 1.9zm-7 6.9c3 2.4 6 2.6 7.7.5.7-.8 1.6-1.5 2.1-1.5.9 0 6.4 16.5 7.3 22 .3 1.9.8 4.6 1 6 .2 1.4.7 5.1 1.1 8.2l.6 5.8h-5c-6.3 0-6.6-.1-6.4-2 1.7-13.5 1-17.9-3.5-21.8-1.5-1.3-4.9-4.2-7.5-6.5-2.7-2.2-5.5-5.4-6.4-7.1-1.4-2.7-1.4-3.1.3-4.3 2.6-1.9 5.7-1.6 8.7.7zm-263.8 6.2c-.5 1.8-1.1 6.4-1.4 10.3-.5 5.9-.3 7.8 1.6 12.2 1.2 2.9 3.4 6.9 4.9 8.8 1.4 1.9 2.2 3.5 1.8 3.6-.5 0-4.3.1-8.4.1l-7.5.1.1-3.4c.4-13 5.6-34.9 8.3-34.9 1 0 1.2.8.6 3.2zm19.1-1c1.1 1.2 1.3 8 .3 12.7-.6 3.1-1.3 8.1-1.4 11.1-.2 3-.3 6.8-.4 8.5l-.1 3-2-2.5c-1.1-1.4-2.3-3.4-2.6-4.5-.3-1.1-1.7-3.5-3.1-5.2-3.8-5.1-6.3-11.4-6.3-16.1 0-3.7.3-4.4 2.8-5.4 5.5-2.2 11.4-2.9 12.8-1.6zm165.1 35.5c-.8.7-7.7.6-8.5-.2-.3-.3 1.6-.5 4.3-.5 2.7 0 4.5.3 4.2.7zm-167.2 10.5c.3.3.8 3.2 1 6.5.4 6.2 1.4 14.5 2.1 17.8.3 1.1.7 4.7 1 8 .2 3.3 1.5 8.3 2.9 11.2 1.6 3.5 2 5.3 1.2 5.4-1.7.1-17.8.1-20.3 0-4.3-.2-12.9-27.5-13.9-44.1-.2-2.5-.2-4.7 0-5 .5-.8 25.2-.6 26 .2zm54.6.8c0 .8.3 5.7.5 10.8l.5 9.4-5.6-.7c-7.7-.8-8.3-1.2-10.5-5.6-2.6-5-3.3-5.3-10.7-5.1-5.8.1-6.4-.1-9-2.9-1.5-1.7-3.8-4-5-5.3l-2.1-2.2 20.9.1c17.9 0 20.9.2 21 1.5zm60.4 21.8c0 12.8-.3 24.1-.6 25-.6 1.5-2 1.7-10 1.5-12-.2-11.6-.2-10-1.2 2-1.3.6-7.8-2-8.6-1-.4-5.2-.8-9.3-1-7.2-.4-15.5-3-15.7-5 0-.5-.2-1.9-.4-3-1-4.8-2.5-29.4-1.9-30.5.1-.3 11.4-.5 25-.5h24.8l.1 23.3zm59.9-16.8c-.3 12.6-3.5 40.7-4.8 42.9-.3.4-38.4.6-44.1.2-.7-.1-1-8.4-.9-24.4.1-13.3.2-24.4.3-24.7.1-.3 11.2-.5 24.9-.5h24.7l-.1 6.5zm23.1-3c.7 2 3.1 6.4 5.4 9.9 2.2 3.5 4.1 6.8 4.1 7.2 0 .5-1.1 2.5-2.5 4.5-3 4.4-3.3 7-2.2 19.1.3 3.6.1 5.3-.7 5.4-1.6.1-15.6.1-19 0-2.5-.1-2.7-.4-2.2-2.6.4-1.4.9-4.5 1.2-6.9.2-2.4.7-5.3.9-6.5.4-2.4 1.7-18.2 2-25.6.2-2.8.3-5.7.4-6.6.1-1.2 1.3-1.5 5.8-1.4 5.5.1 5.7.2 6.8 3.5zm67.9-.5c-.1 4.6-1.3 15.5-1.8 16.3-.2.4-.7 2.3-1 4.2-.4 3-2.8 9.9-7.8 23.2-.7 2.1-1.7 2.8-3.6 2.9-13.2.4-18.5.3-19.3-.2-.5-.3 1.3-3 4.1-6 7.7-8.1 8.3-9.8 8.6-21.9.1-7.1.7-11.8 1.8-14.5 2.8-6.6 3.7-7.1 11.8-7h7.3l-.1 3zm-253.7 7.7c-.3.8-.6.5-.6-.6-.1-1.1.2-1.7.5-1.3.3.3.4 1.2.1 1.9zm.1 49.1c.7.5 3.1 4.5 5.4 9 4.4 8.9 12 20.6 16.9 26.2 1.7 1.9 2.9 3.5 2.8 3.6-.2.1-2.3.2-4.7.4-5.5.3-9.4-2.4-21.7-14.9-7.1-7.2-19.5-23-19.5-24.8 0-.7 19.6-.2 20.8.5zm102.3-.3c.7 3.4.2 38.4-.6 39-1.3.9-26.6.8-28.1-.2-1.1-.7-8.4-17.8-8.4-19.6 0-.4 2-1.8 4.4-3l4.4-2.4-.4-7.1-.4-7.2h14.5c8 0 14.5.2 14.6.5zm51.5-.1l2.2.1-2.5 8.7c-2.6 9.5-9.8 28.2-11.4 29.8-1.4 1.4-28.9 1.5-29 .1-.5-4.3-.3-38.2.2-38.6.6-.4 32.1-.5 40.5-.1zm39.8 7l2.5 7.4-4.9 7.1c-2.7 3.9-7.1 9.6-9.8 12.6l-4.9 5.5-11.7.1c-6.4.1-11.6.1-11.6 0s1.5-4 3.4-8.7c3.2-7.9 6.2-17.1 8.6-26.6 1.2-4.9 1-4.8 15.2-4.8h10.7l2.5 7.4zm41.4-7c2.2.2-8.7 14.9-17.8 24.1-12.6 12.8-16.4 15.4-22.2 15.6-5.3.1-5.8-.4-2.7-3.2 3.2-2.9 14.3-20.1 18.5-28.6 2.1-4.3 4.5-7.9 5.4-8 1.2-.3 14-.2 18.8.1zm-217.4 5.8c1.3 2.1 2.7 5.2 3.1 6.9.3 1.7 1.8 4.2 3.2 5.5 1.4 1.3 2.9 3.3 3.4 4.4.4 1.1 2.9 4.9 5.4 8.5l4.7 6.5-4.2-4.4c-6.4-7-20-27.6-20-30.4 0-1.9 2.2-.3 4.4 3zm44.6 33.4c0 .3-1.8.6-4 .5-4.6-.1-4.9-1.1-1.8-5.1l2.1-2.7 1.8 3.3c1 1.9 1.8 3.7 1.9 4zm8.2 14.7c1.7 2.6 4.3 6 5.7 7.6l2.6 2.8-2.5-.7c-7.6-2.2-26.1-13.2-24.2-14.4.5-.3 4.2-.5 8.1-.3l7.1.4 3.2 4.6zm32.2 4.5c0 5.8-.4 9.2-1.1 9.4-2.8 1-12.1-5.9-18.3-13.3l-4-4.9 5.2-.5c2.9-.3 8.2-.4 11.8-.2l6.5.3-.1 9.2zm28.9-9.4l4.8.1-2 2.7c-4 5.5-7.9 9.3-13.1 12.8-8.2 5.5-8.7 5.2-8.4-5.8.1-5 .3-9.4.3-9.7.1-.3 3.1-.4 6.8-.3 3.8.1 9 .2 11.6.2zm29.1 3.5c-7.1 4.7-20.7 11.6-22.9 11.6-.3 0 6.7-9.8 10.3-14.5.5-.6 4.3-.9 9.1-.7l8.3.4-4.8 3.2zM188 323l3.5 3-5-2.6c-6.1-3.1-6.4-3.4-3.9-3.4 1.1 0 3.5 1.3 5.4 3zm143.1-.9c-3.6 2.2-5.1 2-3-.5.8-.8 2.5-1.5 3.9-1.6 2.4 0 2.3.1-.9 2.1zM76 71.7c-4.5 3.5-5.5 4.8-8.4 10.3-2.1 4.1-4 9.7-5.2 15.5-.7 3.4-1.3 17.5-.7 17.5.2 0 2.6-2.2 5.2-4.8 4.8-5.1 9.2-13 11.6-21 1.7-5.6 3-20.2 1.9-20.2-.5 0-2.5 1.2-4.4 2.7zm355 2.1c0 12.8 5.3 27 13.6 36.1 4.6 5.1 4.8 5.3 5.4 3 1.8-6.6-1.7-24.1-6.3-31.9-2.2-3.8-10.2-12-11.8-12-.5 0-.9 2.2-.9 4.8zM47 105.3c-7.1 5.8-10.5 15.2-9.7 27.2.7 8.7 2.6 16.7 4.2 16.8 1.3 0 7.1-11.5 9.1-18.3 1.9-6.6 2.2-16.9.5-22.8-1.3-4.5-1.7-4.8-4.1-2.9zm414 1.1c-1.6 4.3-2.1 13.7-.9 20 1 5.9 8.6 23.6 10.1 23.6.7 0 1.6-2.9 3.6-11 1.6-6.3.7-18.1-1.7-23.5-2.1-4.8-7.6-11.5-9.3-11.5-.5 0-1.3 1.1-1.8 2.4zm-367 2c-9.6 2.7-25 13-25 16.7 0 3.1 26.3-1.1 35-5.6 5.6-2.9 14-8.6 14-9.6 0-2.7-15.9-3.7-24-1.5zm303-.2l-4.5 1 3.4 2.8c4.6 3.9 13.3 8.4 21.1 10.9 7.4 2.5 24.3 4 25.4 2.3 1.6-2.6-14.4-13.8-23.6-16.6-5.3-1.6-15.8-1.8-21.8-.4zM80.2 136.5c-11.3 2.6-25.9 11.4-29.3 17.7-.9 1.6-.3 1.7 6 1.3 8.3-.5 14-1.8 21.8-4.6 9.7-3.6 22.2-12.6 20.8-14.8-.9-1.5-12-1.2-19.3.4zm331.3-.5c-.8 1.3 8.2 8.5 14.8 11.8 9.6 4.8 17.1 6.8 29.1 7.7 6.6.6 6.9.5 5.5-1.2-6.3-8.1-17.6-15.1-28.8-17.7-6.4-1.5-19.8-1.9-20.6-.6zm-394.1 6.1c-2.8 5.3-2.9 19.6-.2 28.4 2.2 7.6 7.3 18.5 8.6 18.5 1.4 0 4.4-11.2 4.7-17.3.4-9.9-2.9-20.6-9.4-30.1l-1.9-2.9-1.8 3.4zm471.9 1.6c-5.8 9.7-8 16.8-8.1 26.3 0 6.4 3.1 19 4.7 19 1 0 6.3-10.8 8.6-17.5 3.2-9.4 2.7-25.1-1.1-30.8-1-1.6-1.4-1.3-4.1 3zM65.5 164.4c-7.3 2.3-12.1 5.4-17.5 11.3-4.5 4.9-11.6 17-10.7 18 .8.7 14.7-3.9 19-6.2 8.2-4.6 16.7-14.1 19.7-22 .9-2.4.8-2.5-2.8-2.4-2 0-5.5.6-7.7 1.3zm369.5-1c0 .4 1.2 3 2.6 5.9 3.4 6.7 12.7 15.7 19.6 19.1 6 2.9 16.2 5.7 16.6 4.6.2-.4-1-3.4-2.5-6.6-3.5-7.6-12.5-16.7-19.8-20-5.2-2.4-16.5-4.5-16.5-3zM.5 188.2c-.7 2.8 0 11.4 1.5 16.7 1.7 6.5 9.9 16.8 17.8 22.3l4.2 2.9-.5-6.2c-1.4-14.3-9-28.4-19.7-36l-2.7-2-.6 2.3zm506 .7c-10.3 7.6-18.5 24.7-18.5 38.4v2.9l3.8-2.8c9-6.7 16.3-16.2 18.3-23.8 1.3-4.8 1.8-13.5 1-15.9-.6-1.6-1-1.5-4.6 1.2zm-445.9 7.6c-6.9 3.5-10.9 6.7-15.2 12.6-3.7 5.1-8.4 16.2-8.4 19.9 0 1.9.1 1.9 5.3-.1 13.7-5.3 23-16.3 25.6-30.2 1-5.6.2-5.9-7.3-2.2zm382.9.7c3.1 14.7 10.2 24.4 22 29.9 6.2 3 9.5 3.6 9.5 1.9 0-2.4-4.3-13.5-6.6-17.2-3.9-6.1-10.2-11.7-16.9-14.9-7.9-3.8-8.8-3.8-8 .3zM65.6 230.7c-6.2 4.5-9 7.5-13.1 13.8-4.4 6.8-7.6 17.3-8.1 26.8l-.4 7.8 3.2-1.8c4.5-2.6 13.3-11.7 16.2-16.8 4-7.3 6.7-16.4 7.3-25.2.3-4.6.4-8.3.2-8.3s-2.6 1.7-5.3 3.7zm-63 2.5c1.1 11.9 7.5 24.6 17.2 34.6C25 273 30 277 31.5 277c.6 0 0-8.3-.9-12.5-1.7-8.5-9.7-21.6-17.2-28.5-5.2-4.7-9.5-8-10.5-8-.4 0-.5 2.3-.3 5.2zm438.3-4.5c-.7 4.4 1.3 18.6 3.1 22.2.4.9 1.5 3.4 2.5 5.6.9 2.2 3.3 6.2 5.3 8.9 4.4 5.9 14.3 14 15.3 12.4.9-1.4.2-10.8-1.2-17.3-2.5-11.3-10.2-23.1-19.3-29.7-4-2.8-5.5-3.4-5.7-2.1zm62.5 3.1c-10.1 8.1-17.2 17.6-20.9 28.2-1.7 4.9-3.1 17-1.9 17 .9 0 6.1-3.9 9.9-7.6 5.6-5.3 10.4-11.9 13.5-18.5 3.2-7 6.4-20.8 5.1-22.2-.4-.4-3 1-5.7 3.1zm-70.5 32.7c-.8 17.9.4 25.4 6 37 2.1 4.4 5.9 10.2 8.3 12.9 4.4 4.9 4.5 4.9 5 2.4.9-4.7.1-24.2-1.2-29.3-2.8-10.9-9.9-22.2-16.2-25.6-1.6-.8-1.8-.5-1.9 2.6zm-359.5.3c-4.5 4.1-8.8 10.9-11.4 18.2-1.7 5.1-2.3 9.3-2.6 19.5-.5 16 .2 17.6 5.2 12 9.1-10.3 14.4-25.1 14.6-41.1.1-12.3-.6-13.3-5.8-8.6zM1 284.6c0 6 11.2 19.2 21.3 25.2 5.7 3.4 18.2 8.9 22.1 9.6 1.1.2 2.9.7 3.9 1.1 1 .5 1.7.3 1.7-.5 0-1.2-7.5-12.7-10.7-16.5C36 299.7 26 292 21 289.5c-3.6-1.8-17.8-6.5-19.7-6.5-.2 0-.3.7-.3 1.6zm502.3.4c-16.1 4.2-29 13.9-38.4 29.1-2.1 3.5-3.7 6.4-3.5 6.6.8.8 17.7-5.2 23.6-8.4 8-4.4 12.4-7.6 17.3-12.8 3.8-4.1 9.2-13.7 8.5-15.4-.2-.5-3.4-.1-7.5.9zM90.1 306.2c-8.6 11.7-9.9 29.9-3.2 45.2l2.2 4.9 2.5-3.7c7.8-11.4 10.5-23.9 7.9-37-1.3-7-4-13.6-5.4-13.6-.5 0-2.3 1.9-4 4.2zm323.8 2.5c-4.9 15.6-2.6 31.2 6.3 43.6l2.7 3.9 1.5-3.7c1.5-3.5 3.4-9.8 4.2-14 1-5 .5-15.7-1-20.7-1.6-5.7-8.2-15.8-10.3-15.8-.7 0-2.2 3-3.4 6.7zm-297.3 17.2c-.3.5-1.3 3.9-2.1 7.6-2.2 9.4-2 20.6.4 28.6 2.1 6.7 8.7 17.1 12 18.9 1.6.8 2.1.2 3.5-5 3.4-11.9 2.4-24.9-2.5-35.5-3.6-7.9-10.2-16.4-11.3-14.6zm273.7 4.2c-7.7 10.3-10.4 17.4-10.9 28.9-.2 5.6.2 10.6 1.2 14.5 2.4 9.2 2.6 9.3 6.7 5 10.1-10.7 14.1-27.9 10.2-44.4-2.4-10-2.6-10.2-7.2-4zM25 331.6c5 13.2 23 24.8 43.2 27.9 11.3 1.7 11.7 1.4 6.6-5.6-9.8-13.7-25.4-22.3-44.6-24.4l-6.2-.7 1 2.8zm455.7-2c-.1.1-2.4.5-5 .8-14.8 2-31.2 11.9-38.7 23.4-1.6 2.6-3 5.1-3 5.7.1 2.9 21.7-1.9 32-7.1 7.1-3.7 14.7-10.4 18.6-16.6 3.3-5.2 3.1-6.9-.6-6.6-1.7.1-3.2.3-3.3.4zm-336 11.8c-1 2.4 0 25 1.2 29.6 3.5 12.7 7.8 21.8 13.6 28.5 4 4.7 4.6 4.3 6.5-4.7 1.8-8.3.8-22.8-2.1-29.8-3.1-7.6-7.7-14.6-13.2-20.3-5.1-5.2-5.3-5.3-6-3.3zm215.6 4c-13.4 14.2-18.8 34.7-13.8 52.4l1.8 6.4 2.9-3.4c10.5-12 16.5-30.3 16.2-48.8-.2-10.9-.3-12-1.2-12-.4 0-3 2.4-5.9 5.4zM322.9 360c-13.6 13.7-17.5 31.2-11.9 53.2.7 2.7 1.5 4.8 1.9 4.8 1.1 0 9.1-12.7 12.1-19.3 1.6-3.5 3.6-9.2 4.5-12.8 2-7.6 2.6-23 1-28.5l-1.1-3.9-6.5 6.5zm-141.5-3.9c-1.1 1.8-1.4 19-.3 24.4.5 2.7 1.6 7.2 2.5 10 3.1 9.9 13.6 28.1 15.5 27 1.5-1 3.9-14.5 3.9-22.2 0-14.2-4.2-25.1-13.5-35-5.1-5.3-6.8-6.2-8.1-4.2zM63.5 375.7c-5.2.7-10.5 2.3-10.5 3.2 0 1.5 8.6 8.9 12.7 10.9 4 2 9.3 3.9 13.4 4.8 8.3 1.7 11.5 2.1 21.4 2.2 6.1.1 13.4-.2 16.4-.6l5.4-.7-5.3-5.2c-6.3-6.3-16.2-11.6-25.3-13.7-6.3-1.5-20.6-1.9-28.2-.9zm356.7.7c-10.4 2.6-19.4 7.7-26.7 15l-4 4.1 3.5.6c1.9.4 10.5.5 19 .4 16.7-.3 23.2-1.6 33-6.3 5.5-2.7 14.8-10.7 13.7-11.8-2.9-2.9-29.3-4.2-38.5-2zM254 402.2c-1.8 5.7-3.6 10.5-4.1 10.8-.4.3-5.5.5-11.3.5-5.9 0-10.6 0-10.6.2 0 .1 4.1 3 9 6.4 5 3.4 9 6.5 9 6.9 0 .3-1.5 5.2-3.4 10.8-1.9 5.6-3.2 10.2-2.8 10.2.4 0 4.5-2.9 9.2-6.4l8.5-6.4 6.5 4.6c3.6 2.5 7.6 5.4 8.9 6.4 1.3 1 2.5 1.7 2.7 1.5.2-.2-1-4.5-2.6-9.7-1.6-5.2-3-10-3-10.7 0-.6 3.8-3.8 8.5-7 4.6-3.2 8.5-6 8.5-6.4 0-.3-4.8-.5-10.7-.5l-10.8.1-3.5-10.2c-1.9-5.6-3.8-10.4-4.1-10.8-.4-.3-2.1 4.1-3.9 9.7zm-133.5 5.6c-11.4 1-31.5 6.2-31.5 8.2 0 1.1 8.3 4.2 17.5 6.6 7.1 1.8 26.3 2.5 31.5 1.2 5.7-1.5 8.8-2.7 13-4.8 4.2-2.1 4.3-2.3 2.4-3.7-6.6-5.1-21.7-8.5-32.9-7.5zm262.2-.2c-.1.1-2.6.4-5.5.8-8.6 1-21 6.5-19.7 8.6 1 1.6 9.6 5 16.5 6.7 6.2 1.4 20 1.4 26.9-.1 9-2 22.1-6.5 22.1-7.6 0-.4-.8-1-1.7-1.3-11.7-3.7-19.7-5.8-24.3-6.3-5.7-.6-13.9-1.1-14.3-.8zm-219.2 20.1c-11.4 1.6-25.2 8.6-36.2 18.4-3.2 3-3.8 3.9-2.5 4.4 3 1.1 30.9.3 38.6-1.1 9.5-1.8 17-5 22-9.4 3.3-3 7.2-8.7 6.4-9.5-.2-.2-2.8-1-5.8-1.7-5.4-1.4-16.5-2-22.5-1.1zm166.1.1c-.3.2-1.3.6-2.3.7-3.7.3-7.3 1.8-7.3 2.9 0 3.3 6.4 9.6 13 13 9.1 4.7 16.2 5.9 37 6.3l19.4.3-3.4-3.5c-4.5-4.6-16.1-12.5-22.5-15.2-7.7-3.3-17-5.1-25.6-5.1-4.3.1-8.1.3-8.3.6z"/></svg>