<?xml version="1.0" encoding="UTF-8"?>
<svg width="2228px" height="571px" viewBox="0 0 2228 571" version="1.1" xmlns="http://www.w3.org/2000/svg" xmlns:xlink="http://www.w3.org/1999/xlink">
    <title>Asset 1</title>
    <defs>
        <filter id="filter-1">
            <feColorMatrix in="SourceGraphic" type="matrix" values="0 0 0 0 1.000000 0 0 0 0 1.000000 0 0 0 0 1.000000 0 0 0 1.000000 0"></feColorMatrix>
        </filter>
    </defs>
    <g id="assets" stroke="none" stroke-width="1" fill="none" fill-rule="evenodd">
        <g id="Asset-1">
            <g filter="url(#filter-1)" id="Group-2">
                <g transform="translate(691.640000, 63.850000)">
                    <polygon id="Shape" stroke="#00537E" stroke-width="20" fill="#00537E" fill-rule="nonzero" points="353.76 433.91 353.76 146.65 241.94 360.51 196.11 360.51 84.28 146.65 84.28 433.91 -1.98951966e-13 433.91 -1.98951966e-13 -2.84217094e-14 90.44 -2.84217094e-14 218.71 246.86 348.25 -2.84217094e-14 438.07 -2.84217094e-14 438.07 433.91"></polygon>
                    <polygon id="Shape" stroke="#00537E" stroke-width="20" fill="#00537E" fill-rule="nonzero" points="831.82 359.95 831.82 433.95 530.56 433.95 530.56 8.52651283e-14 826.37 8.52651283e-14 826.37 74 614.88 74 614.88 178.5 797.59 178.5 797.59 246.93 614.88 246.93 614.88 359.95"></polygon>
                    <polygon id="Shape" stroke="#00537E" stroke-width="20" fill="#00537E" fill-rule="nonzero" points="893.2 1.22 970.81 1.22 1127.81 337.31 1250.67 -2.84217094e-14 1342.33 -2.84217094e-14 1165.74 433.91 1094.87 433.91"></polygon>
                    <polygon id="Shape" stroke="#00537E" stroke-width="20" fill="#00537E" fill-rule="nonzero" points="1071.34 1.22 1149 1.22 1306 337.31 1428.81 -2.84217094e-14 1520.47 -2.84217094e-14 1343.88 433.91 1273 433.91"></polygon>
                </g>
            </g>
            <g id="Group" fill-rule="nonzero">
                <circle id="Oval" fill="#FFFFFF" cx="285.38" cy="285.38" r="204.92"></circle>
                <path d="M0,285.38 C0,442.99 127.77,570.75 285.38,570.75 C442.99,570.75 570.75,442.99 570.75,285.38 C570.75,127.77 442.99,0 285.38,0 C127.77,0 0,127.77 0,285.38 Z M285.38,464.710129 C188.91,464.710129 106.2,386.5 106.2,290.03 C106.2,267.38 110.51,241.23 118.35,221.37 L195.35,254.16 C195.1,255.23 194.78,256.63 194.43,258.23 C192.139657,265.740161 190.795931,273.506895 190.43,281.35 C190.267979,282.90439 190.211183,284.467952 190.26,286.03 C190.26,286.39 190.31,286.74 190.33,287.1 C190.681659,315.764175 204.017369,342.721343 226.588351,360.393619 C249.159334,378.065895 278.528525,384.545146 306.44,378.01 L350.2,452.31 C329.599557,460.528282 307.619218,464.736994 285.44,464.710129 M450.73,356.34 L255.33,273.55 L380.64,273 C376.16,227.54 329.44,190.64 285.38,190.64 C275.385567,190.62793 265.459201,192.284015 256.01,195.54 L212.64,121.86 C235.45669,111.408864 260.263658,106.015599 285.36,106.049836 C381.83,106.049836 464.27,185.7 464.27,282.17 C464.27,308.17 460.91,334.17 450.71,356.34" id="Shape-Copy" fill="#1896A4"></path>
            </g>
        </g>
    </g>
</svg>