<?xml version="1.0" encoding="UTF-8"?>
<svg width="38px" height="38px" viewBox="0 0 38 38" version="1.1" xmlns="http://www.w3.org/2000/svg" xmlns:xlink="http://www.w3.org/1999/xlink">
    <!-- Generator: Sketch 55.2 (78181) - https://sketchapp.com -->
    <title>Group 86</title>
    <desc>Created with Sketch.</desc>
    <g id="Landing-page" stroke="none" stroke-width="1" fill="none" fill-rule="evenodd">
        <g id="how-it-works" transform="translate(-803.000000, -2745.000000)">
            <g id="Group-72" transform="translate(0.000000, 2481.000000)">
                <g id="Group-42" transform="translate(803.000000, 113.000000)">
                    <g id="Group-34" transform="translate(0.000000, 139.000000)">
                        <g id="Group-86" transform="translate(0.000000, 12.000000)">
                            <g id="BTC" transform="translate(0.000000, 1.000000)">
                                <circle id="Oval" stroke="#FFFFFF" cx="18.855618" cy="18" r="18"></circle>
                                <g id="buy" transform="translate(8.000000, 8.000000)" fill="#FFFFFF" fill-rule="nonzero">
                                    <path d="M6.97350298,5.23387097 L6.20967742,5.23387097 L6.20967742,6.83064516 L6.97350298,6.83064516 C7.38581758,6.83064516 7.62903226,6.60243855 7.62903226,6.07712637 L7.62903226,5.96655204 C7.62903226,5.4274601 7.38581758,5.23387097 6.97350298,5.23387097 Z" id="Path"></path>
                                    <path d="M7.4516129,3.94081828 C7.4516129,3.58802226 7.24371014,3.37096774 6.8902417,3.37096774 L6.12096774,3.37096774 L6.12096774,4.52419355 L6.89714932,4.52419355 C7.27134066,4.52419355 7.4516129,4.28685201 7.4516129,3.94081828 Z" id="Path"></path>
                                    <path d="M19.6296692,0 L2.37049867,0 C1.06330873,0 0,1.06622214 0,2.37661858 L0,7.913704 C0,9.22426871 1.06330873,10.2903226 2.37049867,10.2903226 L6.12657164,10.2903226 C6.46243288,8.81231925 7.78305052,7.70554164 9.35745241,7.70554164 C10.2426758,7.70554164 11.0750275,8.05118876 11.7010956,8.6787049 C12.1497497,9.1285174 12.4528809,9.68485109 12.5893402,10.2903226 L19.6296692,10.2903226 C20.9366913,10.2903226 22,9.22426871 22,7.913704 L22,2.37661858 C22,1.06622214 20.9366913,0 19.6296692,0 L19.6296692,0 Z M8.50445557,6.18698284 C8.50445557,7.26666738 7.90373229,7.65438452 7.12358092,7.65438452 L5.65995788,7.65438452 C5.41825866,7.65438452 5.26652526,7.52278953 5.26652526,7.37756387 L5.26652526,2.87826128 C5.26652526,2.69130218 5.4597168,2.59437289 5.65995788,2.59437289 L6.99249268,2.59437289 C7.71037291,2.59437289 8.38008119,2.82979663 8.38008119,3.81272016 C8.38008119,4.38032866 8.15919496,4.75407855 7.7932892,4.91327142 C8.21458434,5.0793638 8.50445557,5.34928493 8.50445557,6.04158891 L8.50445557,6.18698284 Z M12.439621,6.11075196 C12.439621,7.26666738 11.7076416,7.69578138 10.7826385,7.69578138 C9.85058594,7.69578138 9.12565612,7.26666738 9.12565612,6.11075196 L9.12565612,2.87136181 C9.12565612,2.67750324 9.34654235,2.59437289 9.57431028,2.59437289 C9.79536439,2.59437289 10.0231323,2.67750324 10.0231323,2.87136181 L10.0231323,6.11075196 C10.0231323,6.65059423 10.3061218,6.9068847 10.7824707,6.9068847 C11.2588196,6.9068847 11.5419769,6.6507625 11.5419769,6.11075196 L11.5419769,2.87136181 C11.5419769,2.67750324 11.763031,2.59437289 11.9906311,2.59437289 C12.2116852,2.59437289 12.4394531,2.67750324 12.4394531,2.87136181 L12.4394531,6.11075196 L12.439621,6.11075196 Z M16.7128296,3.05832091 L15.2906647,5.53624403 C15.2769012,5.55711075 15.2631378,5.59160814 15.2631378,5.6262738 L15.2631378,7.3706644 C15.2631378,7.55745523 15.0419159,7.65438452 14.8143158,7.65438452 C14.5932617,7.65438452 14.3654938,7.55745523 14.3654938,7.3706644 L14.3654938,5.6262738 C14.3654938,5.59160814 14.358612,5.55711075 14.3448486,5.53624403 L12.9156341,3.05832091 C12.9018707,3.0236552 12.894989,2.9889895 12.894989,2.96829109 C12.894989,2.74666629 13.2471313,2.59437289 13.4886627,2.59437289 C13.6336823,2.59437289 13.7026673,2.649737 13.7649383,2.77443252 L14.8143158,4.77494527 L15.8705749,2.77443252 C15.9326782,2.65680478 15.9947815,2.59437289 16.139801,2.59437289 C16.3815003,2.59437289 16.7336426,2.74666629 16.7336426,2.96829109 C16.7336426,2.9889895 16.7336426,3.0236552 16.7128296,3.05832091 Z" id="Shape"></path>
                                    <path d="M14.3919593,12.9262867 L11.3834783,12.9262867 L11.3833102,10.9874289 C11.3834783,10.4456645 11.1724896,9.93650011 10.7891794,9.55353452 C10.4060373,9.17056892 9.89663813,8.95967742 9.35479217,8.95967742 C8.23629961,8.95967742 7.32627407,9.86928368 7.32627407,10.9872609 L7.32644217,14.2795214 C7.30441864,14.2788492 7.28239514,14.2785131 7.26037161,14.2785131 C6.71919807,14.2785131 6.21063956,14.4890686 5.8280018,14.871362 C5.44485968,15.2543276 5.23387097,15.763492 5.23387097,16.3050884 C5.23387097,16.8466847 5.44485968,17.3558491 5.8280018,17.7388147 L8.70854453,20.6180303 C9.60007706,21.5091521 10.7854808,22 12.0462016,22 C14.6488444,22 16.766129,19.8836909 16.766129,17.2822471 L16.766129,15.2995307 C16.766129,13.9909949 15.7010982,12.9262867 14.3919593,12.9262867 L14.3919593,12.9262867 Z" id="Path"></path>
                                </g>
                            </g>
                        </g>
                    </g>
                </g>
            </g>
        </g>
    </g>
</svg>