<?xml version="1.0" encoding="UTF-8"?>
<svg width="28px" height="28px" viewBox="0 0 28 28" version="1.1" xmlns="http://www.w3.org/2000/svg" xmlns:xlink="http://www.w3.org/1999/xlink">
    <!-- Generator: Sketch 55.2 (78181) - https://sketchapp.com -->
    <title>BTC</title>
    <desc>Created with Sketch.</desc>
    <g id="Symbols" stroke="none" stroke-width="1" fill="none" fill-rule="evenodd">
        <g id="footer" transform="translate(-981.000000, -218.000000)">
            <g id="Group-32">
                <g transform="translate(981.000000, 47.000000)">
                    <g id="welcome-donate-us3" transform="translate(0.000000, 124.000000)">
                        <g id="Group-6" transform="translate(0.000000, 47.000000)">
                            <g id="BTC">
                                <path d="M14,28 C6.26794,28 0,21.73206 0,14 C0,6.26794 6.26794,0 14,0 C21.73206,0 28,6.26794 28,14 C28,21.73206 21.73206,28 14,28 Z" id="Fill-504" fill="#F5A623"></path>
                                <path d="M17.0629077,16.8385364 C16.9498743,17.2174019 16.695583,17.5295989 16.3468946,17.7176174 C15.9982062,17.9059053 15.59712,17.9473879 15.2172361,17.8345229 L11.4142099,16.7049301 L12.2614876,13.8680857 L16.0642436,14.9978132 L16.0643787,14.9978132 C16.8484549,15.2306814 17.296537,16.0564277 17.0629077,16.8385364 M18.3455732,11.0249111 C18.5340972,11.3726646 18.5756913,11.7726754 18.4626579,12.1516756 C18.2290286,12.9335149 17.4006573,13.3801263 16.6169863,13.1476621 L16.6168512,13.1476621 L12.8139601,12.0180693 L13.6609677,9.18122484 L17.4639939,10.3108177 C17.8438778,10.4236827 18.1569141,10.6771576 18.3455732,11.0249111 M20.0479611,10.1063677 C19.6132485,9.30513392 18.8916986,8.72060632 18.0164664,8.46066662 L17.5132856,8.31130231 L18.2176847,5.95245061 L16.4103661,5.41560107 L15.705967,7.77445277 L14.1629331,7.31612387 L14.8674673,4.95727217 L14.4345103,4.82864916 L12.6805348,4.30769231 L12.0015243,6.58142386 L9.86401862,5.94652453 L9.26076881,7.96678121 L11.3982745,8.60181522 L9.20229396,15.9552802 L7.06478827,15.3203808 L6.46153846,17.3407722 L8.59890911,17.9755369 L8.02590957,19.894646 L8.45873152,20.023269 L10.212707,20.5442259 L10.8112302,18.5399966 L12.3579103,18.9994029 L11.7593871,21.0037669 L13.5594132,21.5384615 L14.1579364,19.5340975 L14.6646285,19.6845393 C14.9876581,19.7804342 15.3175751,19.8279775 15.6454665,19.8279775 C16.2059067,19.8279775 16.7610802,19.6891186 17.2679073,19.4155758 C18.071295,18.9820287 18.657259,18.262548 18.9180325,17.3893931 C19.1921756,16.4709844 19.0568596,15.5275245 18.6207966,14.7509378 C19.4124354,14.3389401 20.0432345,13.6214797 20.3176477,12.7026669 C20.5784212,11.829512 20.4825387,10.9074668 20.0479611,10.1063677" id="Fill-505" fill="#FFFFFF" transform="translate(13.461538, 12.923077) rotate(-16.000000) translate(-13.461538, -12.923077) "></path>
                            </g>
                        </g>
                    </g>
                </g>
            </g>
        </g>
    </g>
</svg>