<?xml version="1.0" encoding="utf-8"?>
<!-- Generator: Adobe Illustrator 23.0.1, SVG Export Plug-In . SVG Version: 6.00 Build 0)  -->
<svg version="1.1"
	 id="Layer_1" shape-rendering="geometricPrecision" image-rendering="optimizeQuality" text-rendering="geometricPrecision" xmlns:xodm="http://www.corel.com/coreldraw/odm/2003"
	 xmlns="http://www.w3.org/2000/svg" xmlns:xlink="http://www.w3.org/1999/xlink" x="0px" y="0px" viewBox="0 0 768 768"
	 style="enable-background:new 0 0 768 768;" xml:space="preserve">
<style type="text/css">
	.st0{fill:#F5AC37;}
	.st1{fill:#FEFEFD;}
</style>
<path class="st0" d="M384,0c212.1,0,384,171.9,384,384c0,212.1-171.9,384-384,384C171.9,768,0,596.1,0,384C0,171.9,171.9,0,384,0z"
	/>
<path class="st1" d="M397.3,407.3H523c2.7,0,3.9,0,4.1-3.5c1-12.8,1-25.7,0-38.5c0-2.5-1.2-3.5-3.9-3.5H273.1c-3.1,0-3.9,1-3.9,3.9
	v36.8c0,4.7,0,4.7,5,4.7H397.3L397.3,407.3z M513.1,318.9c0.4-0.9,0.4-2,0-2.9c-2.1-4.6-4.6-8.9-7.5-13c-4.3-7-9.5-13.4-15.3-19.2
	c-2.8-3.5-5.9-6.6-9.5-9.3c-17.9-15.2-39.2-26-62-31.4c-11.5-2.6-23.3-3.8-35.1-3.7h-111c-3.1,0-3.5,1.2-3.5,3.9v73.4
	c0,3.1,0,3.9,3.9,3.9h238.6c0,0,2.1-0.4,2.5-1.7H513.1L513.1,318.9z M513.1,450.4c-3.5-0.4-7.1-0.4-10.6,0H273.3
	c-3.1,0-4.1,0-4.1,4.1v71.8c0,3.3,0,4.1,4.1,4.1h105.9c5.1,0.4,10.1,0,15.1-1c15.4-1.1,30.5-4.4,44.9-9.9c5.2-1.8,10.3-4.2,15.1-7
	h1.4c24.8-12.9,45-33.2,57.7-58.1C513.3,454.3,514.8,451.2,513.1,450.4L513.1,450.4z M227.6,567.6v-1.2v-48.2v-16.3v-48.6
	c0-2.7,0-3.1-3.3-3.1h-44.9c-2.5,0-3.5,0-3.5-3.3v-39.3h48c2.7,0,3.7,0,3.7-3.5v-38.9c0-2.5,0-3.1-3.3-3.1h-44.9
	c-2.5,0-3.5,0-3.5-3.3v-36.4c0-2.3,0-2.9,3.3-2.9h44.5c3.1,0,3.9,0,3.9-3.9V204.1c0-3.3,0-4.1,4.1-4.1h155.1
	c11.3,0.4,22.4,1.7,33.5,3.7c22.8,4.2,44.7,12.4,64.7,24c13.3,7.8,25.5,17.3,36.4,28.1c8.2,8.5,15.6,17.7,22.1,27.5
	c6.5,9.9,11.9,20.5,16.2,31.6c0.5,2.9,3.3,4.8,6.2,4.3h37c4.7,0,4.7,0,5,4.6v33.9c0,3.3-1.2,4.1-4.6,4.1h-28.5c-2.9,0-3.7,0-3.5,3.7
	c1.1,12.6,1.1,25.2,0,37.8c0,3.5,0,3.9,3.9,3.9h32.6c1.4,1.9,0,3.7,0,5.6c0.2,2.4,0.2,4.8,0,7.2v25c0,3.5-1,4.6-4.1,4.6h-39.1
	c-2.7-0.5-5.4,1.2-6,3.9c-9.3,24.2-24.2,45.9-43.4,63.3c-7,6.3-14.4,12.3-22.1,17.8c-8.3,4.8-16.3,9.7-24.8,13.7
	c-15.6,7-32,12.2-48.8,15.5c-16,2.9-32.1,4.2-48.4,3.9H227.5L227.6,567.6L227.6,567.6z"/>
</svg>
