<?xml version="1.0" standalone="no"?>
<!DOCTYPE svg PUBLIC "-//W3C//DTD SVG 20010904//EN"
 "http://www.w3.org/TR/2001/REC-SVG-20010904/DTD/svg10.dtd">
<svg version="1.0" xmlns="http://www.w3.org/2000/svg"
 width="512.000000pt" height="512.000000pt" viewBox="0 0 512.000000 512.000000"
 preserveAspectRatio="xMidYMid meet">

<g transform="translate(0.000000,512.000000) scale(0.100000,-0.100000)"
fill="#000000" stroke="none">
<path d="M2420 5054 c-381 -33 -656 -106 -955 -253 -773 -380 -1278 -1093
-1386 -1956 -18 -146 -16 -454 5 -605 38 -279 113 -526 235 -775 379 -772
1093 -1278 1956 -1386 146 -18 454 -16 605 5 279 38 526 113 775 235 772 379
1278 1093 1386 1956 18 146 16 454 -5 605 -38 279 -113 526 -235 775 -377 768
-1101 1283 -1947 1384 -93 12 -368 21 -434 15z m1485 -2489 l0 -1340 -290 0
-290 0 -3 698 -2 697 -259 0 -259 0 -53 -28 c-39 -20 -62 -41 -84 -77 l-30
-48 -5 -223 c-6 -247 -7 -252 -80 -301 -32 -22 -41 -23 -270 -23 -230 0 -238
1 -271 23 -18 12 -44 38 -57 57 -23 34 -23 37 -20 280 3 240 3 246 27 279 45
63 80 71 314 71 232 0 260 7 311 73 39 51 45 104 46 369 l0 248 -697 2 -698 3
-3 280 c-1 154 0 285 3 292 3 11 269 13 1337 11 l1333 -3 0 -1340z m-2157
-685 c102 -54 166 -145 181 -255 31 -224 -127 -408 -349 -408 -93 -1 -165 29
-238 97 -74 69 -106 148 -106 256 -1 70 4 94 25 140 32 68 68 111 127 152 66
46 115 58 212 55 74 -3 93 -7 148 -37z"/>
</g>
</svg>
