<svg width="24" height="24" viewBox="0 0 24 24" fill="none" xmlns="http://www.w3.org/2000/svg">
<path fill-rule="evenodd" clip-rule="evenodd" d="M24 12C24 18.6275 18.6275 24 12 24C5.37264 24 0 18.6275 0 12C0 5.37252 5.37264 0 12 0C18.6275 0 24 5.37252 24 12" fill="#192133"/>
<path fill-rule="evenodd" clip-rule="evenodd" d="M11.9998 3.15837L6.94727 12.9867L11.9998 15.4982V15.4983L11.9999 15.4983L11.9999 15.4983V15.4982L17.0524 12.9874L11.9999 3.15837V3.1582L11.9999 3.15829L11.9998 3.1582V3.15837Z" fill="white"/>
<path fill-rule="evenodd" clip-rule="evenodd" d="M11.9999 20.7931L17.0525 13.8457L11.9646 16.5282V16.5396L6.94727 13.8943L11.9646 20.7931V20.8417L11.9822 20.8174L11.9999 20.8417V20.7931Z" fill="white"/>
</svg>
