<svg
    xmlns="http://www.w3.org/2000/svg"
    width="33"
    height="33"
    fill="none"
    viewBox="0 0 33 33"
>
    <path
        fill="#FF9931"
        d="M14.37 29.31a12.672 12.672 0 01-8.993-3.732 12.707 12.707 0 01-3.725-9.01c0-1.72.336-3.388 1-4.96a12.698 12.698 0 012.725-4.05 12.68 12.68 0 018.993-3.731 12.673 12.673 0 018.993 3.732 12.707 12.707 0 013.725 9.01c0 1.72-.337 3.388-1 4.96a12.699 12.699 0 01-2.726 4.05 12.682 12.682 0 01-8.992 3.732z"
    />
    <path
        fill="#fff"
        d="M14.37 4.016c6.92 0 12.53 5.62 12.53 12.553 0 6.933-5.61 12.553-12.53 12.553-6.92 0-12.53-5.62-12.53-12.553 0-6.933 5.61-12.553 12.53-12.553zm0-.378a12.86 12.86 0 00-9.126 3.787 12.89 12.89 0 00-3.78 9.144 12.888 12.888 0 003.78 9.143 12.864 12.864 0 009.126 3.787 12.86 12.86 0 009.126-3.787 12.893 12.893 0 003.78-9.144c0-1.746-.342-3.44-1.015-5.034a12.89 12.89 0 00-2.766-4.11 12.864 12.864 0 00-9.126-3.787z"
    />
    <path
        fill="#006E3C"
        d="M29.302 8.617c-.66-.284-1.623-.604-2.67-.642-.862-.032-1.638.135-2.307.495a3.908 3.908 0 00-.388.24c-1.071.753-1.619 1.94-1.893 2.849l-.117.389.356-.19 1.884-1.011a.753.753 0 011.016.294l.005.007.01.019a.705.705 0 01.033.07l4.342-2.409c-.004-.018-.228-.093-.27-.111z"
    />
    <path
        fill="#0B23C"
        d="M28.615 11.533c-2.152 3.562-5.985 1.788-5.985 1.788l1.383-.743c.115-.07.87-.467.87-.467.662-.421.285-1.078.315-1.014l4.375-2.369s-.086 1.36-.959 2.805z"
    />
    <path
        fill="#fff"
        d="M30.752 7.61c-.19-.111-1.94-1.108-4.063-1.185-1.13-.041-2.167.188-3.078.68-.304.164-.581.35-.834.553-1.917 1.537-2.413 4.025-2.54 5.12l-.01.086-.078.043-.562.3c-.538-.552-1.34-.957-1.954-1.126l-.11-.03.562-2.24-1.335-.347-.557 2.225a268.98 268.98 0 00-1.006-.27l.555-2.216-1.335-.346-.553 2.209c-1.62-.425-2.658-.683-2.658-.683s-.223 1.123-.32 1.393c0 0 .275.067.572.154.194.057 1.148.159.831 1.344-.179.665-1.22 5.126-1.302 5.43-.094.355-.191.554-.63.456l-1.065-.238-.669 1.597c.243.083 1.082.278 2.672.681l-.552 2.203 1.335.346.553-2.205c.314.081.651.17 1.007.264l-.555 2.202 1.335.346.562-2.238c1.552.29 2.447.198 2.659.158 1.296-.24 1.847-1.24 2.086-2.193.673-2.686-1.534-2.923-1.255-2.98 1.236-.25 1.827-1.433 1.76-2.484l.63-.337.079-.043.076.042c.826.43 2.12.955 3.59 1.01a5.734 5.734 0 002.609-.5c.113-.05.224-.106.332-.165 3.149-1.696 3.556-5.826 3.591-6.291l.031-.48-.408-.245zm-13.68 11.916c-.367 1.464-2.845.726-2.845.726l-1.177-.305.734-2.928 1.406.364s2.295.498 1.882 2.14zm.441-4.364c-.337 1.343-2.4.72-2.4.72l-.98-.254.673-2.687 1.172.304s1.914.408 1.535 1.917zm12.013-6.319-.002.017c-.217 1.217-.857 3.407-2.7 4.4a1.19 1.19 0 01-.05.024c-.632.33-1.349.483-2.131.454a6.13 6.13 0 01-1.63-.295l-.382-.122.354-.191 1.898-1.02a.77.77 0 00.401-.656.771.771 0 00-.086-.387l-.01-.02a.753.753 0 00-1.016-.294l-1.884 1.01-.356.191.117-.389c.274-.909.822-2.096 1.894-2.849a1.22 1.22 0 01.387-.24c.669-.336 1.446-.527 2.307-.495 1.047.037 2.011.358 2.67.642.124.054.117.058.017.115z"
    />
</svg>
