<?xml version="1.0" encoding="utf-8"?>
<!-- Generator: Adobe Illustrator 23.0.1, SVG Export Plug-In . SVG Version: 6.00 Build 0)  -->
<svg version="1.1" id="Layer_1" xmlns="http://www.w3.org/2000/svg" xmlns:xlink="http://www.w3.org/1999/xlink" x="0px" y="0px"
	 viewBox="0 0 400 400" style="enable-background:new 0 0 400 400;" xml:space="preserve">
<style type="text/css">
	.st0{fill:#31CB9D;}
	.st1{fill:#FFFFFF;}
</style>
<circle class="st0" cx="200" cy="200" r="200"/>
<path class="st1" d="M109.7,199.8c0-19.9,0.2-39.7-0.1-59.6c-0.1-6.5,2.4-11.1,7.4-14.9c19.9-15,39.8-30.2,59.7-45.3
	c0.6-0.4,1.1-0.9,1.7-1.3c1.9-1.5,4-2.4,6.3-1c2.3,1.4,2.6,3.6,2,6.1c-1.2,5.7-2.4,11.4-3.6,17.1c-6.8,31.5-13.6,63-20.2,94.5
	c-0.6,2.9-0.6,6,0,8.9c7.4,34.8,14.9,69.6,22.4,104.4c0.6,2.6,1,5.2,1.5,7.8c0.4,2.3,0,4.3-2,5.6c-2.1,1.4-4.1,0.8-5.9-0.5
	c-4.1-3-8.3-6.1-12.4-9.2c-16.2-12.4-32.3-24.9-48.6-37.1c-5.7-4.3-8.5-9.2-8.4-16.6C109.9,239.2,109.7,219.5,109.7,199.8z
	 M192.8,203.3c5.4,3.1,10.7,6.2,16.1,9.3c23.5,13.5,47.1,26.9,70.5,40.5c6.3,3.7,11.1,3.6,11-6.5c-0.3-31-0.1-62-0.1-93
	c0-1.4,0.1-2.8-0.1-4.2c-0.4-3.7-2.8-5.4-6.3-4.3c-2,0.6-3.9,1.7-5.7,2.8c-25.2,14.4-50.4,28.9-75.6,43.3c-4.7,2.7-9.4,5.5-15.3,8.9
	C189.9,201.5,191.3,202.5,192.8,203.3z M183.6,222.4c5.3,24.7,10.5,49.5,15.8,74.2c1.9,9,3.9,18,5.9,26.9c1.2,5.3,4.5,6.4,8.9,3.5
	c0.7-0.5,1.4-1,2.1-1.6c7-5.4,14.1-10.7,21.1-16.1c12.4-9.4,24.8-18.8,37.1-28.3c6-4.7,5.7-8.1-1-12c-4.6-2.7-9.2-5.3-13.8-8
	c-17.9-10.3-35.9-20.6-53.9-30.9c-7.3-4.2-14.7-8.4-23.2-13.1C183.2,219.6,183.3,221,183.6,222.4z M183.9,182.4
	c1.6-0.8,3.2-1.5,4.7-2.4c21.7-12.4,43.3-24.9,65-37.4c6.9-4,13.9-7.8,20.8-11.9c5.8-3.4,6.1-6.9,1-11.1c-2.7-2.2-5.6-4.3-8.5-6.4
	c-17.2-13.1-34.3-26.3-51.5-39.4c-5.5-4.1-8.6-2.9-10.1,3.7c-1.3,5.7-2.7,11.4-3.9,17.1c-4.9,22.8-9.7,45.7-14.6,68.6
	c-1.3,6.2-2.6,12.4-3.9,18.5C183.2,182,183.6,182.2,183.9,182.4z"/>
</svg>
