<?xml version="1.0" encoding="utf-8"?>
<!-- Generator: Adobe Illustrator 23.0.1, SVG Export Plug-In . SVG Version: 6.00 Build 0)  -->
<svg version="1.1" id="Layer_1" xmlns="http://www.w3.org/2000/svg" xmlns:xlink="http://www.w3.org/1999/xlink" x="0px" y="0px"
	 viewBox="0 0 2500 2500" style="enable-background:new 0 0 2500 2500;" xml:space="preserve">
<style type="text/css">
	.st0{fill:#53AE94;}
	.st1{fill:#FFFFFF;}
</style>
<path class="st0" d="M1250,0c690.3,0,1250,559.7,1250,1250s-559.7,1250-1250,1250S0,1940.5,0,1250S559.6,0,1250,0"/>
<path class="st1" d="M1399.3,1090.9v-180h411.5V636.7H690.3v274.2h411.6v179.8c-334.5,15.4-586,81.6-586,161s251.6,145.6,586,161.1
	v576.4h297.6v-576.5c333.9-15.4,584.9-81.6,584.9-160.9S1733.3,1106.3,1399.3,1090.9 M1399.4,1363.9v-0.1
	c-8.4,0.5-51.5,3.1-147.6,3.1c-76.8,0-130.8-2.2-149.9-3.2v0.2c-295.5-13.1-516.1-64.5-516.1-126.1s220.6-113,516.1-126.1v200.9
	c19.4,1.3,74.7,4.6,151.1,4.6c91.8,0,137.9-3.8,146.4-4.6v-200.9c294.9,13.1,515,64.6,515,126c0,61.4-220.2,112.9-515,126"/>
</svg>
