<?xml version="1.0" encoding="utf-8"?>
<!-- Generator: Adobe Illustrator 23.0.1, SVG Export Plug-In . SVG Version: 6.00 Build 0)  -->
<svg version="1.1" id="Layer_1" xmlns="http://www.w3.org/2000/svg" xmlns:xlink="http://www.w3.org/1999/xlink" x="0px" y="0px"
	 viewBox="0 0 30 30" style="enable-background:new 0 0 30 30;" xml:space="preserve">
<style type="text/css">
	.st0{fill-rule:evenodd;clip-rule:evenodd;fill:#05C0A5;}
	.st1{fill-rule:evenodd;clip-rule:evenodd;fill:#FFFFFF;}
</style>
<path class="st0" d="M19.1,8h-8.2C9.5,8,8.5,8,7.7,8C7,8.1,6.7,8.2,6.5,8.3C5.9,8.6,5.5,9,5.2,9.6C5,9.8,4.9,10.2,4.9,10.9
	c-0.1,0.7-0.1,1.7-0.1,3.1v2c0,1.4,0,2.4,0.1,3.1s0.2,1,0.3,1.2c0.3,0.6,0.8,1,1.3,1.3c0.2,0.1,0.5,0.2,1.3,0.3
	C8.5,22,9.5,22,10.9,22h8.2c1.5,0,2.4,0,3.2-0.1c0.7-0.1,1.1-0.2,1.3-0.3c0.6-0.3,1-0.7,1.3-1.3c0.1-0.2,0.2-0.5,0.3-1.2
	c0.1-0.7,0.1-1.7,0.1-3.1v-2c0-1.4,0-2.4-0.1-3.1c-0.1-0.7-0.2-1-0.3-1.2c-0.3-0.6-0.8-1-1.3-1.3c-0.2-0.1-0.5-0.2-1.3-0.3
	C21.5,8,20.5,8,19.1,8z M3.3,8.7C2.7,9.8,2.7,11.2,2.7,14v2c0,2.8,0,4.2,0.6,5.3c0.5,0.9,1.3,1.7,2.2,2.2C6.6,24,8,24,10.9,24h8.2
	c2.9,0,4.3,0,5.4-0.5c1-0.5,1.7-1.2,2.2-2.2c0.6-1.1,0.6-2.5,0.6-5.3v-2c0-2.8,0-4.2-0.6-5.3c-0.5-0.9-1.3-1.7-2.2-2.2
	C23.4,6,22,6,19.1,6h-8.2C8.1,6,6.6,6,5.5,6.5C4.6,7,3.8,7.8,3.3,8.7z"/>
<path class="st1" d="M6.6,11.3c0-0.5,0.5-1,1-1h14.7c0.6,0,1,0.4,1,1c0,0.5-0.5,1-1,1H7.7C7.1,12.3,6.6,11.9,6.6,11.3z"/>
</svg>
