<?xml version="1.0" encoding="utf-8"?>
<!-- Generator: Adobe Illustrator 23.0.1, SVG Export Plug-In . SVG Version: 6.00 Build 0)  -->
<svg version="1.1" id="Layer_1" xmlns="http://www.w3.org/2000/svg" xmlns:xlink="http://www.w3.org/1999/xlink" x="0px" y="0px"
	 viewBox="0 0 30 30" style="enable-background:new 0 0 30 30;" xml:space="preserve">
<style type="text/css">
	.st0{fill-rule:evenodd;clip-rule:evenodd;fill:#05C0A5;}
	.st1{fill-rule:evenodd;clip-rule:evenodd;fill:#FFFFFF;}
</style>
<path class="st0" d="M22.4,9.2c4.1,4.1,4.1,10.7,0,14.8s-10.7,4.1-14.8,0s-4.1-10.7,0-14.8c0.4-0.4,1.1-0.4,1.5,0
	c0.4,0.4,0.4,1,0,1.5c-3.3,3.3-3.3,8.6,0,11.9s8.6,3.3,11.9,0s3.3-8.6,0-11.9c-0.4-0.4-0.4-1.1,0-1.5C21.3,8.8,22,8.8,22.4,9.2z"/>
<path class="st1" d="M15,20c-0.5,0-1-0.4-1-0.9V19V6.7l-2.5,2.5c-0.3,0.3-0.9,0.4-1.3,0h-0.1c-0.4-0.4-0.4-1-0.1-1.4l0.1-0.1
	l4.2-4.2c0.4-0.4,1-0.4,1.4-0.1v0.1l4.2,4.2c0.4,0.4,0.4,1.1,0,1.5s-1,0.4-1.4,0.1V9.2l-2.4-2.4V19C16,19.5,15.6,20,15,20z"/>
</svg>
