<?xml version="1.0" encoding="UTF-8"?>
<svg width="32px" height="32px" viewBox="0 0 32 32" version="1.1" xmlns="http://www.w3.org/2000/svg" xmlns:xlink="http://www.w3.org/1999/xlink">
    <!-- Generator: Sketch 55.2 (78181) - https://sketchapp.com -->
    <title>Group 3</title>
    <desc>Created with Sketch.</desc>
    <g id="Landing-page" stroke="none" stroke-width="1" fill="none" fill-rule="evenodd">
        <g id="landing-page(Desktop)-quick--help-2" transform="translate(-1306.000000, -893.000000)">
            <g id="Group-3" transform="translate(1306.000000, 893.000000)">
                <circle id="Oval" stroke="#FFFFFF" cx="16" cy="16" r="15.5"></circle>
                <g id="home" transform="translate(8.783784, 8.648649)" fill="#FFFFFF" fill-rule="nonzero">
                    <path d="M0.694572567,7.19622355 C0.805913963,7.19622355 0.918882478,7.15629354 1.00860644,7.07527277 L2.46301796,5.75827889 L2.46301796,12.4354123 C2.46301796,13.208708 3.09271283,13.8378378 3.86722125,13.8378378 L11.3573127,13.8378378 C12.1315887,13.8378378 12.761516,13.208708 12.761516,12.4354123 L12.761516,5.8086557 L14.1445667,7.07387986 C14.2342907,7.15606139 14.3474917,7.19622355 14.4599953,7.19622355 C14.587143,7.19622355 14.7133609,7.14538244 14.8056418,7.04509311 C14.9802083,6.8542648 14.9667265,6.55850415 14.7763536,6.38415858 L7.92850909,0.119093576 C7.90991345,0.102842991 7.88713379,0.0958784543 7.86784081,0.0831101372 C7.84134202,0.0650023419 7.81600546,0.046198093 7.78741466,0.0348226832 C7.75905631,0.0229829709 7.73023307,0.0195007026 7.70071249,0.0132326196 C7.67142436,0.0076609903 7.64283356,0 7.61308054,0 C7.58286262,0 7.55473672,0.00742883908 7.52521614,0.0130004684 C7.49569556,0.0185720977 7.46687232,0.022054366 7.43851396,0.0338940783 C7.40969072,0.0448051857 7.38551639,0.0638415858 7.35948249,0.080788625 C7.33879484,0.0942533958 7.31578274,0.100521479 7.29741954,0.117700669 L0.379144019,6.38276567 C0.188073815,6.55618264 0.173197302,6.85194329 0.346601648,7.0432359 C0.439347404,7.14468598 0.566495095,7.19622355 0.694572567,7.19622355 Z M8.78181653,12.9025006 L6.44202009,12.9025006 L6.44202009,9.13840067 C6.44202009,8.88048066 6.65191838,8.67061596 6.91016533,8.67061596 L8.31367129,8.67061596 C8.57191824,8.67061596 8.78181653,8.88024851 8.78181653,9.13840067 L8.78181653,12.9025006 Z M11.8247606,5.02235952 L11.8247606,12.4354123 C11.8247606,12.692868 11.6146299,12.9027327 11.3568478,12.9027327 L9.71787457,12.9027327 L9.71787457,9.13840067 C9.71787457,8.3648728 9.08771481,7.73574299 8.31343884,7.73574299 L6.90993289,7.73574299 C6.13542447,7.73574299 5.50596205,8.3648728 5.50596205,9.13840067 L5.50596205,12.9025006 L3.86675636,12.9025006 C3.60897429,12.9025006 3.39837867,12.692868 3.39837867,12.4351802 L3.39837867,5.02235952 C3.39837867,4.98846544 3.3862915,4.95944654 3.37955058,4.92787397 L7.61005875,1.09691452 L11.8368478,4.96316096 C11.8340584,4.98312596 11.8247606,5.00123376 11.8247606,5.02235952 Z" id="Shape"></path>
                </g>
            </g>
        </g>
    </g>
</svg>