<?xml version="1.0" encoding="UTF-8"?>
<svg width="56px" height="56px" viewBox="0 0 56 56" version="1.1" xmlns="http://www.w3.org/2000/svg" xmlns:xlink="http://www.w3.org/1999/xlink">
    <!-- Generator: Sketch 55.2 (78181) - https://sketchapp.com -->
    <title>need help</title>
    <desc>Created with Sketch.</desc>
    <g id="Landing-page" stroke="none" stroke-width="1" fill="none" fill-rule="evenodd">
        <g id="landing-page(Desktop)-scroll-down" transform="translate(-1296.000000, -780.000000)">
            <g id="need-help" transform="translate(1296.000000, 780.000000)">
                <g id="Group-10">
                    <circle id="Oval-3" stroke="#05C0A5" stroke-width="1.3" fill="#FFFFFF" cx="28" cy="28" r="27.35"></circle>
                    <g id="Group" transform="translate(8.521739, 8.521739)" fill-rule="nonzero">
                        <path d="M36.8941087,35.4164239 C36.3262717,34.4762174 36.3262717,33.2997609 36.8941087,32.3595543 C40.9143152,25.8233804 38.8754891,17.2651196 32.3393913,13.244913 C30.8943478,12.3556087 29.2982717,11.7386957 27.6309022,11.4246848 C27.0936522,8.51230435 25.6393261,5.84728261 23.4809674,3.81956522 C20.6288478,1.09063043 16.7428587,-0.282206522 12.8096957,0.0494565217 C5.15922826,0.648793478 -0.556195652,7.33592391 0.0431413043,14.9863913 C0.216391304,17.2031087 0.919434783,19.3456413 2.09307609,21.2344239 C2.66091304,22.1746304 2.66091304,23.351087 2.09307609,24.2912935 L0.805456522,26.4403696 C0.54425,26.8803804 0.689652174,27.4491304 1.12966304,27.7094239 C1.27232609,27.7937283 1.43538043,27.8390761 1.60208696,27.8390761 L11.458163,27.8390761 C12.9124891,34.3427609 18.6890109,38.9632935 25.3530109,38.9549353 L37.358163,38.9549353 C37.8694674,38.9549353 38.2845217,38.5399457 38.2845217,38.0285652 C38.2845217,37.8627717 38.240087,37.6988043 38.1548696,37.5561413 L36.8941087,35.4164239 Z" id="Path" fill="#FFFFFF"></path>
                        <g id="Group-59" transform="translate(2.434783, 1.652174)">
                            <path d="M31.2223464,26.4389547 C34.2733313,21.4828573 32.7255993,14.9938379 27.7654213,11.9453629 C26.5099267,11.1740189 25.1068287,10.673594 23.645704,10.477961 C23.7195057,10.9942096 23.7541485,11.5141668 23.7511173,12.0356693 C23.5628085,17.8609582 18.7532651,22.4694285 12.9208911,22.4129948 L11.8212894,22.4129948 C12.6813604,27.6460689 17.223597,31.4763959 22.5310079,31.443265 L32.2616324,31.443265 L31.2373789,29.7049438 C30.6280975,28.7025489 30.6220968,27.4466036 31.2223464,26.4389547 Z" id="Path" fill="#C6F4ED"></path>
                            <g id="Group-60">
                                <path d="M1.99550893,20.4835521 C-1.89307829,14.164494 0.0747392891,5.88763004 6.39169378,1.99685044 C12.7086483,-1.89392916 20.9828602,0.0744403191 24.8724719,6.39349839 C26.2108558,8.56730545 26.9016803,11.0780428 26.8651926,13.6309555 C26.6253032,21.0603697 20.4983531,26.9378868 13.0684035,26.8659127 L0.671546759,26.8659127 L1.97635876,24.6489054 C2.75347727,23.3704783 2.76025469,21.7686012 1.99550893,20.4835521 Z" id="Path" fill="#05C0A5"></path>
                                <path d="M14.5442596,10.7212669 C14.5442596,9.86916944 13.8877004,9.37378096 12.7363573,9.37378096 C11.6263293,9.39355744 10.5759507,9.86819283 9.8375912,10.6816326 L8.05997001,8.76933702 C9.24474662,7.42779213 10.9779003,6.6757164 12.786881,6.71836197 C15.5745614,6.71836197 17.4632684,8.16497447 17.4632684,10.6816326 C17.4632684,13.1091745 15.7967329,14.0999515 13.7362952,14.4566605 L13.524162,15.6159037 L11.5041266,15.6159037 L11.0597006,12.5443649 L11.160665,12.4453198 C13.5948454,12.3461932 14.5442596,11.7121253 14.5442596,10.7212669 Z M10.8677271,17.1180206 L13.9987861,17.1180206 L13.9987861,20.149925 L10.8677271,20.149925 L10.8677271,17.1180206 Z" id="Combined-Shape" fill="#FFFFFF"></path>
                            </g>
                        </g>
                    </g>
                </g>
            </g>
        </g>
    </g>
</svg>