<?xml version="1.0" encoding="UTF-8"?>
<svg width="33px" height="31px" viewBox="0 0 33 31" version="1.1" xmlns="http://www.w3.org/2000/svg" xmlns:xlink="http://www.w3.org/1999/xlink">
    <!-- Generator: Sketch 55.2 (78181) - https://sketchapp.com -->
    <title>Group</title>
    <desc>Created with Sketch.</desc>
    <g id="Landing-page" stroke="none" stroke-width="1" fill="none" fill-rule="evenodd">
        <g id="landing-page(Desktop)-quick--help-1" transform="translate(-998.000000, -225.000000)" fill-rule="nonzero">
            <g id="Group" transform="translate(998.970423, 225.000000)">
                <g id="Group-59">
                    <path d="M30.3040421,25.6377742 C33.2652921,20.8318616 31.7630817,14.5394791 26.9487913,11.5833822 C25.730223,10.8354122 24.3683926,10.3501518 22.9502421,10.160447 C23.0218731,10.6610517 23.0554971,11.1652527 23.052555,11.6709521 C22.8697848,17.3197171 18.2016985,21.7885368 12.5408649,21.7338131 L11.4736044,21.7338131 C12.3083792,26.8083093 16.7170206,30.5225657 21.8683312,30.4904388 L31.3127608,30.4904388 L30.3186325,28.804794 C29.7272711,27.8327746 29.7214469,26.6148884 30.3040421,25.6377742 Z" id="Path" fill="#C6F4ED"></path>
                    <g id="Group-60">
                        <path d="M1.93681749,19.8628384 C-1.83739952,13.7352669 0.0725410748,5.70921701 6.20370279,1.93633982 C12.3348645,-1.83653737 20.3657172,0.0721845518 24.1409286,6.19975602 C25.4399483,8.30769014 26.1104544,10.7423445 26.0750398,13.2178962 C25.8422061,20.4221767 19.8954603,26.1215872 12.6840387,26.0517941 L0.651795384,26.0517941 L1.91823056,23.9019689 C2.67249264,22.6622819 2.67907073,21.1089466 1.93681749,19.8628384 Z" id="Path" fill="#05C0A5"></path>
                        <path d="M14.1164872,10.3963801 C14.1164872,9.5701037 13.4792386,9.08972699 12.3617586,9.08972699 C11.2843784,9.10890418 10.2648933,9.56915668 9.54825029,10.3579468 L7.82291207,8.50359954 C8.9728423,7.20270752 10.6550209,6.47342197 12.4107963,6.51477524 C15.1164861,6.51477524 16.9496428,7.917551 16.9496428,10.3579468 C16.9496428,12.7119268 15.3321232,13.6726802 13.3322865,14.0185799 L13.1263925,15.1426945 L11.16577,15.1426945 L10.7344153,12.1642326 L10.8324102,12.0681889 C13.194997,11.9720662 14.1164872,11.3572124 14.1164872,10.3963801 Z M10.5480881,16.5992927 L13.5870571,16.5992927 L13.5870571,19.5393212 L10.5480881,19.5393212 L10.5480881,16.5992927 Z" id="Combined-Shape" fill="#FFFFFF"></path>
                    </g>
                </g>
            </g>
        </g>
    </g>
</svg>