<?xml version="1.0" encoding="utf-8"?>
<!-- Generator: Adobe Illustrator 23.0.1, SVG Export Plug-In . SVG Version: 6.00 Build 0)  -->
<svg version="1.1" id="Livello_1" xmlns="http://www.w3.org/2000/svg" xmlns:xlink="http://www.w3.org/1999/xlink" x="0px" y="0px"
	 viewBox="0 0 117.9 38.3" style="enable-background:new 0 0 117.9 38.3;" xml:space="preserve">
<style type="text/css">
	.st0{fill:#FFFFFF;}
	.st1{fill-rule:evenodd;clip-rule:evenodd;fill:#FFFFFF;}
	.st2{fill-rule:evenodd;clip-rule:evenodd;fill:url(#SVGID_1_);}
	.st3{fill-rule:evenodd;clip-rule:evenodd;fill:url(#SVGID_2_);}
	.st4{fill-rule:evenodd;clip-rule:evenodd;fill:url(#SVGID_3_);}
	.st5{fill-rule:evenodd;clip-rule:evenodd;fill:url(#SVGID_4_);}
	.st6{opacity:0.2;fill-rule:evenodd;clip-rule:evenodd;enable-background:new    ;}
	.st7{opacity:0.12;fill-rule:evenodd;clip-rule:evenodd;enable-background:new    ;}
	.st8{opacity:0.25;fill-rule:evenodd;clip-rule:evenodd;fill:#FFFFFF;enable-background:new    ;}
</style>
<path d="M111.7,38.3H6.2C2.8,38.3,0,35.5,0,32V6.2C0,2.8,2.8,0,6.2,0h105.4c3.4,0,6.2,2.8,6.2,6.2V32
	C117.9,35.5,115.1,38.3,111.7,38.3z"/>
<path class="st0" d="M63.4,13.3c-0.7,0-1.4-0.3-1.8-0.8c-0.5-0.5-0.8-1.2-0.7-1.9c0-0.7,0.3-1.4,0.7-1.9c0.5-0.5,1.1-0.8,1.8-0.8
	c0.7,0,1.3,0.3,1.8,0.8c0.5,0.5,0.7,1.1,0.7,1.9c0,0.7-0.3,1.4-0.7,1.9C64.7,13,64.1,13.3,63.4,13.3z M41.5,13.3
	c-0.7,0-1.3-0.3-1.8-0.8c-0.5-0.5-0.8-1.1-0.8-1.9s0.3-1.4,0.8-1.9c0.5-0.5,1.1-0.8,1.8-0.8c0.4,0,0.7,0.1,1,0.2
	c0.3,0.1,0.6,0.3,0.8,0.6l0,0.1l-0.5,0.5l-0.1-0.1c-0.3-0.4-0.7-0.5-1.3-0.5c-0.5,0-0.9,0.2-1.3,0.5c-0.4,0.3-0.5,0.8-0.5,1.3
	s0.2,1,0.5,1.3c0.4,0.3,0.8,0.5,1.3,0.5c0.5,0,1-0.2,1.3-0.5c0.2-0.2,0.3-0.5,0.4-0.8h-1.8v-0.8H44l0,0.1c0,0.1,0,0.3,0,0.4
	c0,0.7-0.2,1.3-0.6,1.7C42.9,13.1,42.3,13.3,41.5,13.3z M70.6,13.2h-0.8l-2.4-3.8l0,0.7v3.1h-0.8v-5h0.9l0,0l2.2,3.6l0-0.7V8.2h0.8
	L70.6,13.2L70.6,13.2z M57.5,13.2h-0.8V8.9h-1.4V8.2h3.5v0.8h-1.4L57.5,13.2L57.5,13.2z M54.8,13.2H54v-5h0.8V13.2z M50.4,13.2h-0.8
	V8.9h-1.4V8.2h3.5v0.8h-1.4V13.2z M47.7,13.2h-3v-5h3v0.8h-2.2v1.4h2v0.7h-2v1.4h2.2V13.2z M62.1,12c0.3,0.3,0.8,0.5,1.3,0.5
	c0.5,0,0.9-0.2,1.3-0.5c0.3-0.3,0.5-0.8,0.5-1.3s-0.2-1-0.5-1.3c-0.3-0.3-0.8-0.5-1.3-0.5c-0.5,0-0.9,0.2-1.3,0.5
	c-0.3,0.3-0.5,0.8-0.5,1.3S61.8,11.7,62.1,12L62.1,12z"/>
<path class="st1" d="M60.7,20.2c-1.9,0-3.5,1.4-3.5,3.4c0,2,1.6,3.4,3.5,3.4c1.9,0,3.5-1.5,3.5-3.4C64.2,21.7,62.6,20.2,60.7,20.2z
	 M60.7,25.7c-1,0-1.9-0.9-1.9-2.1c0-1.2,0.9-2.1,1.9-2.1c1,0,1.9,0.8,1.9,2.1C62.7,24.9,61.8,25.7,60.7,25.7z M53.2,20.2
	c-1.9,0-3.5,1.4-3.5,3.4c0,2,1.6,3.4,3.5,3.4c1.9,0,3.5-1.5,3.5-3.4C56.6,21.7,55.1,20.2,53.2,20.2z M53.2,25.7
	c-1,0-1.9-0.9-1.9-2.1c0-1.2,0.9-2.1,1.9-2.1c1,0,1.9,0.8,1.9,2.1C55.1,24.9,54.2,25.7,53.2,25.7z M44.2,21.3v1.5h3.5
	c-0.1,0.8-0.4,1.4-0.8,1.8c-0.5,0.5-1.3,1.1-2.7,1.1c-2.2,0-3.8-1.7-3.8-3.9s1.7-3.9,3.8-3.9c1.2,0,2,0.5,2.6,1l1-1
	c-0.9-0.8-2-1.5-3.7-1.5c-3,0-5.4,2.4-5.4,5.3c0,3,2.5,5.3,5.4,5.3c1.6,0,2.8-0.5,3.7-1.5c1-1,1.3-2.3,1.3-3.4c0-0.3,0-0.6-0.1-0.9
	L44.2,21.3C44.2,21.2,44.2,21.3,44.2,21.3z M80.9,22.4c-0.3-0.8-1.2-2.2-3-2.2c-1.8,0-3.2,1.4-3.2,3.4c0,1.9,1.5,3.4,3.4,3.4
	c1.6,0,2.5-1,2.9-1.5l-1.2-0.8c-0.4,0.6-0.9,1-1.7,1c-0.8,0-1.3-0.4-1.7-1l4.6-1.9C81.1,22.8,80.9,22.4,80.9,22.4z M76.2,23.6
	c0-1.3,1-2,1.8-2c0.6,0,1.1,0.3,1.3,0.7L76.2,23.6z M72.5,26.9H74V16.8h-1.5V26.9z M70,21L70,21c-0.4-0.4-1-0.8-1.9-0.8
	c-1.7,0-3.3,1.5-3.3,3.5c0,1.9,1.6,3.4,3.3,3.4c0.8,0,1.5-0.4,1.8-0.8H70v0.5c0,1.3-0.7,2-1.8,2c-0.9,0-1.5-0.7-1.7-1.2l-1.3,0.5
	c0.4,0.9,1.4,2,3.1,2c1.8,0,3.3-1,3.3-3.6v-6.2H70L70,21C70,21,70,21,70,21z M68.2,25.7c-1,0-1.9-0.9-1.9-2.1c0-1.2,0.9-2.1,1.9-2.1
	c1,0,1.8,0.9,1.8,2.1C70.1,24.9,69.3,25.7,68.2,25.7z M88,16.8h-3.6v10.1h1.5v-3.8H88c1.7,0,3.3-1.2,3.3-3.1S89.7,16.8,88,16.8z
	 M88,21.6h-2.2v-3.5H88c1.1,0,1.8,0.9,1.8,1.7C89.8,20.7,89.2,21.6,88,21.6z M97.4,20.2c-1.1,0-2.2,0.5-2.7,1.5l1.3,0.6
	c0.3-0.6,0.8-0.7,1.4-0.7c0.8,0,1.6,0.5,1.6,1.3V23c-0.3-0.2-0.9-0.4-1.6-0.4c-1.4,0-2.9,0.8-2.9,2.3c0,1.4,1.2,2.2,2.5,2.2
	c1,0,1.6-0.5,1.9-1H99v0.8h1.5V23C100.5,21.2,99.1,20.2,97.4,20.2z M97.2,25.7c-0.5,0-1.2-0.2-1.2-0.9c0-0.8,0.9-1.1,1.6-1.1
	c0.7,0,1,0.1,1.4,0.3C98.9,25,98.1,25.7,97.2,25.7z M105.8,20.4l-1.7,4.4H104l-1.8-4.4h-1.6l2.7,6.1l-1.5,3.4h1.6l4.2-9.6H105.8z
	 M92.2,26.9h1.5V16.8h-1.5V26.9z"/>
<linearGradient id="SVGID_1_" gradientUnits="userSpaceOnUse" x1="-995.7978" y1="736.424" x2="-996.9663" y2="737.0272" gradientTransform="matrix(11.64 0 0 22.55 11614.2422 -16596.7246)">
	<stop  offset="0" style="stop-color:#00A0FF"/>
	<stop  offset="6.569999e-03" style="stop-color:#00A1FF"/>
	<stop  offset="0.2601" style="stop-color:#00BEFF"/>
	<stop  offset="0.5122" style="stop-color:#00D2FF"/>
	<stop  offset="0.7604" style="stop-color:#00DFFF"/>
	<stop  offset="1" style="stop-color:#00E3FF"/>
</linearGradient>
<path class="st2" d="M13.9,8.7c-0.2,0.3-0.4,0.6-0.4,1.1v17.9c0,0.5,0.1,0.9,0.4,1.1l0.1,0.1l10-10v-0.2L13.9,8.7L13.9,8.7z"/>
<linearGradient id="SVGID_2_" gradientUnits="userSpaceOnUse" x1="-970.1056" y1="596.0088" x2="-972.2501" y2="596.0088" gradientTransform="matrix(9.145 0 0 7.7 8904.5264 -4570.479)">
	<stop  offset="0" style="stop-color:#FFE000"/>
	<stop  offset="0.4087" style="stop-color:#FFBD00"/>
	<stop  offset="0.7754" style="stop-color:#FFA500"/>
	<stop  offset="1" style="stop-color:#FF9C00"/>
</linearGradient>
<path class="st3" d="M27.4,22.3L24,18.9v-0.2l3.3-3.3l0.1,0l4,2.3c1.1,0.6,1.1,1.7,0,2.3L27.4,22.3C27.5,22.2,27.4,22.3,27.4,22.3z"
	/>
<linearGradient id="SVGID_3_" gradientUnits="userSpaceOnUse" x1="-1017.0225" y1="667.2823" x2="-1018.2505" y2="668.8755" gradientTransform="matrix(15.02 0 0 11.5775 15301.2871 -7704.8115)">
	<stop  offset="0" style="stop-color:#FF3A44"/>
	<stop  offset="1" style="stop-color:#C31162"/>
</linearGradient>
<path class="st4" d="M27.5,22.2L24,18.8L13.9,28.9c0.4,0.4,1,0.4,1.7,0.1L27.5,22.2"/>
<linearGradient id="SVGID_4_" gradientUnits="userSpaceOnUse" x1="-1017.9684" y1="666.6617" x2="-1017.4201" y2="667.3735" gradientTransform="matrix(15.02 0 0 11.5715 15301.2871 -7711.5522)">
	<stop  offset="0" style="stop-color:#32A071"/>
	<stop  offset="6.850000e-02" style="stop-color:#2DA771"/>
	<stop  offset="0.4762" style="stop-color:#15CF74"/>
	<stop  offset="0.8009" style="stop-color:#06E775"/>
	<stop  offset="1" style="stop-color:#00F076"/>
</linearGradient>
<path class="st5" d="M27.5,15.4L15.6,8.6c-0.7-0.4-1.3-0.3-1.7,0.1L24,18.8L27.5,15.4z"/>
<path class="st6" d="M27.4,22.1l-11.8,6.7c-0.7,0.4-1.2,0.4-1.6,0L14,28.9l0.1,0.1c0.4,0.3,1,0.4,1.6,0L27.4,22.1L27.4,22.1z"/>
<path class="st7" d="M31.4,19.8l-4,2.3l0.1,0.1l4-2.3c0.6-0.3,0.8-0.7,0.8-1.2C32.2,19.2,31.9,19.5,31.4,19.8z"/>
<path class="st8" d="M15.6,8.8l15.8,9c0.5,0.3,0.8,0.7,0.8,1.1c0-0.4-0.3-0.8-0.8-1.2l-15.8-9c-1.1-0.6-2.1-0.1-2.1,1.2v0.1
	C13.6,8.6,14.5,8.1,15.6,8.8z"/>
</svg>
