<?xml version="1.0" encoding="utf-8"?>
<!-- Generator: Adobe Illustrator 23.0.1, SVG Export Plug-In . SVG Version: 6.00 Build 0)  -->
<svg version="1.1" id="livetype" xmlns="http://www.w3.org/2000/svg" xmlns:xlink="http://www.w3.org/1999/xlink" x="0px" y="0px"
	 viewBox="0 0 117.9 38.3" style="enable-background:new 0 0 117.9 38.3;" xml:space="preserve">
<style type="text/css">
	.st0{fill:#FFFFFF;}
</style>
<path d="M111.8,38.4H6.4c-3.4,0-6.2-2.8-6.2-6.2V6.4c0-3.4,2.8-6.2,6.2-6.2h105.4c3.4,0,6.2,2.8,6.2,6.2v25.8
	C118.1,35.6,115.3,38.4,111.8,38.4z"/>
<title>Download_on_the_App_Store_Badge_US-UK_RGB_blk_4SVG_092917</title>
<g id="_Group_2">
	<g id="_Group_3">
		<path id="_Path_" class="st0" d="M25.9,19.4c0-1.7,0.9-3.3,2.4-4.2c-0.9-1.3-2.4-2.1-4-2.2c-1.7-0.2-3.3,1-4.2,1
			c-0.9,0-2.2-1-3.6-1c-1.9,0.1-3.6,1.1-4.5,2.7c-1.9,3.3-0.5,8.3,1.4,11c0.9,1.3,2,2.8,3.4,2.8c1.4-0.1,1.9-0.9,3.6-0.9
			c1.7,0,2.1,0.9,3.6,0.9c1.5,0,2.4-1.3,3.3-2.7c0.7-0.9,1.2-2,1.5-3.1C27,23.1,25.9,21.3,25.9,19.4z"/>
		<path id="_Path_2" class="st0" d="M23.2,11.3c0.8-1,1.2-2.2,1.1-3.5C23,8,21.9,8.6,21.1,9.5c-0.8,0.9-1.2,2.1-1.1,3.4
			C21.2,12.9,22.4,12.3,23.2,11.3z"/>
	</g>
</g>
<g>
	<path class="st0" d="M43.8,25.2h-4.2l-1,3h-1.8l4-11h1.8l4,11h-1.8L43.8,25.2z M40,23.8h3.3L41.7,19h0L40,23.8z"/>
	<path class="st0" d="M55.2,24.2c0,2.5-1.3,4.1-3.3,4.1c-1,0.1-2-0.5-2.5-1.4h0v4h-1.6V20.2h1.6v1.3h0c0.5-0.9,1.5-1.5,2.6-1.4
		C53.9,20.1,55.2,21.7,55.2,24.2z M53.5,24.2c0-1.6-0.8-2.7-2.1-2.7c-1.3,0-2.1,1.1-2.1,2.7c0,1.6,0.8,2.7,2.1,2.7
		C52.7,26.9,53.5,25.8,53.5,24.2z"/>
	<path class="st0" d="M64,24.2c0,2.5-1.3,4.1-3.3,4.1c-1,0.1-2-0.5-2.5-1.4h0v4h-1.6V20.2h1.6v1.3h0c0.5-0.9,1.5-1.5,2.6-1.4
		C62.7,20.1,64,21.7,64,24.2z M62.3,24.2c0-1.6-0.8-2.7-2.1-2.7c-1.3,0-2.1,1.1-2.1,2.7c0,1.6,0.8,2.7,2.1,2.7
		C61.5,26.9,62.3,25.8,62.3,24.2L62.3,24.2z"/>
	<path class="st0" d="M69.9,25.1c0.1,1.1,1.2,1.8,2.6,1.8c1.4,0,2.4-0.7,2.4-1.7c0-0.9-0.6-1.4-2-1.7l-1.4-0.3c-2-0.5-3-1.4-3-3
		c0-1.9,1.7-3.2,4-3.2c2.3,0,3.9,1.3,4,3.2h-1.7c-0.1-1.1-1-1.8-2.3-1.8s-2.2,0.7-2.2,1.6c0,0.8,0.6,1.2,2,1.6l1.2,0.3
		c2.3,0.5,3.2,1.4,3.2,3.1c0,2.1-1.6,3.3-4.2,3.3c-2.4,0-4.1-1.3-4.2-3.3L69.9,25.1z"/>
	<path class="st0" d="M80.2,18.3v1.9h1.5v1.3h-1.5v4.4c0,0.7,0.3,1,1,1c0.2,0,0.4,0,0.5,0v1.3c-0.3,0.1-0.6,0.1-0.9,0.1
		c-1.6,0-2.3-0.6-2.3-2.2v-4.6h-1.2v-1.3h1.2v-1.9H80.2z"/>
	<path class="st0" d="M82.6,24.2c0-2.5,1.5-4.1,3.8-4.1c2.3,0,3.8,1.6,3.8,4.1c0,2.5-1.5,4.1-3.8,4.1C84.1,28.3,82.6,26.7,82.6,24.2
		z M88.5,24.2c0-1.7-0.8-2.8-2.1-2.8s-2.1,1-2.1,2.8c0,1.7,0.8,2.8,2.1,2.8S88.5,25.9,88.5,24.2L88.5,24.2z"/>
	<path class="st0" d="M91.6,20.2h1.6v1.4h0c0.2-0.9,1-1.5,1.9-1.4c0.2,0,0.4,0,0.6,0.1v1.5c-0.2-0.1-0.5-0.1-0.7-0.1
		c-0.9,0-1.7,0.7-1.7,1.6c0,0.1,0,0.2,0,0.3v4.8h-1.6L91.6,20.2z"/>
	<path class="st0" d="M103.3,25.8c-0.2,1.5-1.6,2.5-3.5,2.5c-2.3,0-3.8-1.6-3.8-4.1c0-2.5,1.5-4.1,3.7-4.1c2.2,0,3.6,1.5,3.6,4v0.6
		h-5.7v0.1c-0.1,1.1,0.7,2.2,1.9,2.3c0.1,0,0.2,0,0.3,0c0.8,0.1,1.6-0.4,1.9-1.1L103.3,25.8z M97.7,23.4h4c0.1-1.1-0.8-2-1.8-2
		c0,0-0.1,0-0.1,0C98.6,21.4,97.7,22.3,97.7,23.4C97.7,23.4,97.7,23.4,97.7,23.4z"/>
</g>
<g id="_Group_4">
	<g>
		<path class="st0" d="M39,7.9c1.5-0.1,2.7,1,2.8,2.4c0,0.2,0,0.3,0,0.5c0,1.9-1,3-2.8,3h-2.2v-6H39z M37.7,13h1.1
			c1,0.1,1.9-0.7,2-1.8c0-0.1,0-0.3,0-0.4c0.1-1-0.6-2-1.6-2.1c-0.1,0-0.2,0-0.4,0h-1.1V13z"/>
		<path class="st0" d="M42.8,11.6c-0.1-1.2,0.7-2.2,1.9-2.3c1.2-0.1,2.2,0.7,2.3,1.9c0,0.1,0,0.3,0,0.4c0.1,1.2-0.7,2.2-1.9,2.3
			C44,14,42.9,13.2,42.8,12C42.8,11.8,42.8,11.7,42.8,11.6z M46.1,11.6c0-1-0.4-1.5-1.2-1.5c-0.8,0-1.2,0.6-1.2,1.5
			c0,1,0.4,1.6,1.2,1.6C45.7,13.1,46.1,12.5,46.1,11.6L46.1,11.6z"/>
		<path class="st0" d="M52.7,13.8h-0.9l-0.9-3.3h-0.1l-0.9,3.3h-0.9l-1.2-4.5h0.9l0.8,3.4h0.1l0.9-3.4h0.9l0.9,3.4h0.1L53,9.3h0.9
			L52.7,13.8z"/>
		<path class="st0" d="M55,9.3h0.9V10h0.1c0.2-0.5,0.8-0.8,1.3-0.8c0.8-0.1,1.5,0.5,1.6,1.4c0,0.1,0,0.2,0,0.3v2.9h-0.9v-2.7
			c0-0.7-0.3-1.1-1-1.1c-0.6,0-1.1,0.4-1.1,1c0,0.1,0,0.1,0,0.2v2.6H55L55,9.3z"/>
		<path class="st0" d="M60.2,7.6h0.9v6.3h-0.9V7.6z"/>
		<path class="st0" d="M62.3,11.6c-0.1-1.2,0.7-2.2,1.9-2.3c1.2-0.1,2.2,0.7,2.3,1.9c0,0.1,0,0.3,0,0.4c0.1,1.2-0.7,2.2-1.9,2.3
			c-1.2,0.1-2.2-0.7-2.3-1.9C62.3,11.8,62.3,11.7,62.3,11.6z M65.7,11.6c0-1-0.4-1.5-1.2-1.5c-0.8,0-1.2,0.6-1.2,1.5
			c0,1,0.4,1.6,1.2,1.6C65.2,13.1,65.7,12.5,65.7,11.6z"/>
		<path class="st0" d="M67.5,12.5c0-0.8,0.6-1.3,1.7-1.3l1.2-0.1v-0.4c0-0.5-0.3-0.7-0.9-0.7c-0.5,0-0.8,0.2-0.9,0.5h-0.9
			c0.1-0.8,0.8-1.3,1.8-1.3c1.1,0,1.8,0.6,1.8,1.5v3.1h-0.9v-0.6h-0.1c-0.3,0.5-0.8,0.7-1.4,0.7c-0.7,0.1-1.4-0.5-1.5-1.2
			C67.5,12.6,67.5,12.6,67.5,12.5z M70.4,12.2v-0.4l-1.1,0.1c-0.6,0-0.9,0.3-0.9,0.6c0,0.4,0.4,0.6,0.8,0.6
			C69.8,13.2,70.4,12.8,70.4,12.2C70.4,12.2,70.4,12.2,70.4,12.2z"/>
		<path class="st0" d="M72.5,11.6c0-1.4,0.7-2.3,1.9-2.3c0.6,0,1.1,0.3,1.4,0.8h0.1V7.6h0.9v6.3h-0.9v-0.7h-0.1
			c-0.3,0.5-0.8,0.8-1.4,0.8C73.2,13.9,72.5,13,72.5,11.6z M73.4,11.6c0,1,0.5,1.5,1.2,1.5c0.7,0,1.2-0.6,1.2-1.5
			c0-0.9-0.5-1.5-1.2-1.5C73.8,10,73.4,10.6,73.4,11.6L73.4,11.6z"/>
		<path class="st0" d="M80.4,11.6c-0.1-1.2,0.7-2.2,1.9-2.3s2.2,0.7,2.3,1.9c0,0.1,0,0.3,0,0.4c0.1,1.2-0.7,2.2-1.9,2.3
			c-1.2,0.1-2.2-0.7-2.3-1.9C80.3,11.8,80.3,11.7,80.4,11.6z M83.7,11.6c0-1-0.4-1.5-1.2-1.5c-0.8,0-1.2,0.6-1.2,1.5
			c0,1,0.4,1.6,1.2,1.6C83.3,13.1,83.7,12.5,83.7,11.6z"/>
		<path class="st0" d="M85.8,9.3h0.9V10h0.1c0.2-0.5,0.8-0.8,1.3-0.8c0.8-0.1,1.5,0.5,1.6,1.4c0,0.1,0,0.2,0,0.3v2.9h-0.9v-2.7
			c0-0.7-0.3-1.1-1-1.1c-0.6,0-1.1,0.4-1.1,1c0,0.1,0,0.1,0,0.2v2.6h-0.9V9.3z"/>
		<path class="st0" d="M94.6,8.2v1.1h1v0.7h-1v2.3c0,0.5,0.2,0.7,0.6,0.7c0.1,0,0.2,0,0.3,0v0.7c-0.2,0-0.3,0-0.5,0
			c-1,0-1.4-0.3-1.4-1.2v-2.5H93V9.3h0.7V8.2H94.6z"/>
		<path class="st0" d="M96.8,7.6h0.9V10h0.1c0.2-0.5,0.8-0.9,1.4-0.8c0.8,0,1.5,0.6,1.6,1.4c0,0.1,0,0.2,0,0.3v2.9h-0.9v-2.7
			c0-0.7-0.3-1.1-1-1.1c-0.6,0-1.1,0.4-1.1,1c0,0.1,0,0.1,0,0.2v2.6h-0.9L96.8,7.6z"/>
		<path class="st0" d="M105.9,12.6c-0.2,0.8-1.1,1.4-2,1.3c-1.1,0-2.1-0.9-2.1-2c0-0.1,0-0.2,0-0.3c-0.2-1.1,0.6-2.2,1.8-2.3
			c0.1,0,0.2,0,0.3,0c1.3,0,2,0.9,2,2.3v0.3h-3.2v0c-0.1,0.7,0.4,1.2,1.1,1.3c0,0,0.1,0,0.1,0c0.4,0.1,0.9-0.2,1.1-0.5L105.9,12.6z
			 M102.8,11.2h2.3c0-0.6-0.4-1.1-1-1.2c0,0-0.1,0-0.1,0C103.3,10,102.8,10.5,102.8,11.2C102.8,11.1,102.8,11.1,102.8,11.2
			L102.8,11.2z"/>
	</g>
</g>
</svg>
