<?xml version="1.0" encoding="UTF-8"?>
<svg width="21px" height="20px" viewBox="0 0 21 20" version="1.1" xmlns="http://www.w3.org/2000/svg" xmlns:xlink="http://www.w3.org/1999/xlink">
    <!-- Generator: Sketch 55.2 (78181) - https://sketchapp.com -->
    <title>Group 8</title>
    <desc>Created with Sketch.</desc>
    <g id="Interact-with-contract" stroke="none" stroke-width="1" fill="none" fill-rule="evenodd">
        <g id="contract" transform="translate(-68.000000, -220.000000)" fill="#FFFFFF" fill-rule="nonzero">
            <g id="nav-bar-contract-01">
                <g id="Group-9">
                    <g transform="translate(17.000000, 94.000000)">
                        <g id="Group-51">
                            <g id="Group-54" transform="translate(17.000000, 123.000000)">
                                <g id="Group-8" transform="translate(35.000000, 3.000000)">
                                    <g id="printer-(1)" transform="translate(0.084034, 0.247059)">
                                        <path d="M18.8888889,13.676 L18.8888889,6.52 C18.8888889,5.568 18.1157993,4.792 17.1673699,4.792 L15.302391,4.792 L15.302391,1.148 C15.302391,0.516 14.7883263,0 14.1586967,0 L4.72222222,0 C4.09259259,0 3.57852789,0.516 3.57852789,1.148 L3.57852789,4.796 L1.72151899,4.796 C0.773089545,4.792 0,5.568 0,6.52 L0,13.676 C0,14.628 0.773089545,15.404 1.72151899,15.404 L3.58251289,15.404 L3.58251289,18.452 C3.58251289,19.084 4.09657759,19.6 4.72620722,19.6 L14.1626817,19.6 C14.7923113,19.6 15.306376,19.084 15.306376,18.452 L15.306376,15.404 L17.1673699,15.404 C18.1157993,15.404 18.8888889,14.632 18.8888889,13.676 Z M4.55883732,1.148 C4.55883732,1.056 4.63455227,0.98 4.72620722,0.98 L14.1626817,0.98 C14.2543366,0.98 14.3300516,1.056 14.3300516,1.148 L14.3300516,4.796 L4.55883732,4.796 L4.55883732,1.148 Z M14.3300516,18.452 C14.3300516,18.544 14.2543366,18.62 14.1626817,18.62 L4.72620722,18.62 C4.63455227,18.62 4.55883732,18.544 4.55883732,18.452 L4.55883732,10.588 L14.3260666,10.588 L14.3260666,18.452 L14.3300516,18.452 Z M14.8162213,9.608 L4.0726676,9.608 C3.80168776,9.608 3.58251289,9.828 3.58251289,10.1 L3.58251289,14.424 L1.72151899,14.424 C1.31106423,14.424 0.976324426,14.088 0.976324426,13.676 L0.976324426,6.52 C0.976324426,6.108 1.31106423,5.772 1.72151899,5.772 L17.1633849,5.772 C17.5738397,5.772 17.9085795,6.108 17.9085795,6.52 L17.9085795,13.676 C17.9085795,14.088 17.5738397,14.424 17.1633849,14.424 L15.302391,14.424 L15.302391,10.1 C15.306376,9.828 15.0872011,9.608 14.8162213,9.608 Z" id="Shape" stroke="#FFFFFF" stroke-width="0.2"></path>
                                        <path d="M2.38482385,7.77586912 C2.28093948,7.87830039 2.22222222,8.01635992 2.22222222,8.16332652 C2.22222222,8.30583958 2.28093948,8.44835265 2.38482385,8.55078391 C2.48870822,8.65321518 2.62872629,8.71111111 2.77777778,8.71111111 C2.92231256,8.71111111 3.06684734,8.65321518 3.17073171,8.55078391 C3.27461608,8.44835265 3.33333333,8.30583958 3.33333333,8.16332652 C3.33333333,8.02081345 3.27461608,7.87830039 3.17073171,7.77586912 C2.95844625,7.57100659 2.58807588,7.57100659 2.38482385,7.77586912 Z" id="Shape" stroke="#FFFFFF" stroke-width="0.2"></path>
                                        <path d="M11.8076792,14.1555556 L7.08460754,14.1555556 C6.8535508,14.1555556 6.66666667,14.3990063 6.66666667,14.7 C6.66666667,15.0009937 6.8535508,15.2444444 7.08460754,15.2444444 L11.8042813,15.2444444 C12.0353381,15.2444444 12.2222222,15.0009937 12.2222222,14.7 C12.2222222,14.3990063 12.0353381,14.1555556 11.8076792,14.1555556 Z" id="Shape"></path>
                                        <path d="M11.8076792,16.3333333 L7.08460754,16.3333333 C6.8535508,16.3333333 6.66666667,16.5767841 6.66666667,16.8777778 C6.66666667,17.1787715 6.8535508,17.4222222 7.08460754,17.4222222 L11.8042813,17.4222222 C12.0353381,17.4222222 12.2222222,17.1787715 12.2222222,16.8777778 C12.2222222,16.5767841 12.0353381,16.3333333 11.8076792,16.3333333 Z" id="Shape"></path>
                                        <path d="M11.8076792,11.9777778 L7.08460754,11.9777778 C6.8535508,11.9777778 6.66666667,12.2212285 6.66666667,12.5222222 C6.66666667,12.8232159 6.8535508,13.0666667 7.08460754,13.0666667 L11.8042813,13.0666667 C12.0353381,13.0666667 12.2222222,12.8232159 12.2222222,12.5222222 C12.2222222,12.2212285 12.0353381,11.9777778 11.8076792,11.9777778 Z" id="Shape"></path>
                                    </g>
                                </g>
                            </g>
                        </g>
                    </g>
                </g>
            </g>
        </g>
    </g>
</svg>