<?xml version="1.0" encoding="UTF-8"?>
<svg width="25px" height="25px" viewBox="0 0 25 25" version="1.1" xmlns="http://www.w3.org/2000/svg" xmlns:xlink="http://www.w3.org/1999/xlink">
    <!-- Generator: Sketch 55.2 (78181) - https://sketchapp.com -->
    <title>icon9</title>
    <desc>Created with Sketch.</desc>
    <g id="Landing-page" stroke="none" stroke-width="1" fill="none" fill-rule="evenodd">
        <g id="Group-13" transform="translate(2.000000, 3.000000)" fill="#8698A3" fill-rule="nonzero">
            <path d="M3.78243546,13.9237972 L2.09705517,13.8927202 C1.98093843,13.8927202 1.88679245,14.0109962 1.88679245,14.1568743 L1.99623914,16.0231905 L2.40108689,15.9804631 L2.50418035,14.8356848 C4.78277939,17.3990636 7.39491537,17.3672901 9.5120187,14.5940583 L9.20832868,14.2285247 C7.27982529,16.753596 4.96465113,16.8416189 2.84754783,14.5674167 L3.74957691,14.3825545 L3.78243546,13.9237972 Z" id="Path-Copy-2" stroke="#8698A3" transform="translate(5.699406, 15.305067) rotate(38.000000) translate(-5.699406, -15.305067) "></path>
            <path d="M12.0843222,2.60304252 L10.398942,2.57196544 C10.2828252,2.57196544 10.1886792,2.69024149 10.1886792,2.8361196 L10.2981259,4.70243579 L10.7029737,4.65970837 L10.8060671,3.51493006 C13.0846662,6.07830884 15.6968022,6.04653538 17.8139055,3.27330362 L17.473892,2.9332901 C15.5453886,5.45836138 13.2665379,5.5208642 11.1494346,3.24666198 L12.0514637,3.06179983 L12.0843222,2.60304252 Z" id="Path-Copy-3" stroke="#8698A3" transform="translate(14.001292, 3.984312) rotate(-135.000000) translate(-14.001292, -3.984312) "></path>
            <g id="Group-3-Copy">
                <g id="Group" transform="translate(0.000000, 5.660377)">
                    <path d="M2.30879577,1.30029552 L1.85496704,1.30029552 L1.85496704,2.18686065 L2.30879577,2.18686065 C2.54034103,2.18686065 2.7278927,1.98793606 2.7278927,1.74235016 C2.7278927,1.49676425 2.54034103,1.30029552 2.30879577,1.30029552 Z" id="Path"></path>
                    <path d="M2.30879577,2.71879973 L1.85496704,2.71879973 L1.85496704,3.60536486 L2.30879577,3.60536486 C2.54034103,3.60536486 2.7278927,3.40644027 2.7278927,3.16085436 C2.7278927,2.91526845 2.54034103,2.71879973 2.30879577,2.71879973 Z" id="Path"></path>
                    <path d="M0,0 L0,4.90566038 L4.52830189,4.90566038 L4.52830189,0 L0,0 Z M3.21001895,3.17006666 C3.21001895,3.72251657 2.79256269,4.17301221 2.28062948,4.17301221 L1.58413666,4.17301221 C1.4369284,4.17301221 1.31828294,4.04497661 1.31828294,3.88611762 L1.31828294,2.45638673 C1.31828294,2.45638673 1.31828294,2.45638673 1.31828294,2.4540157 C1.31828294,2.4540157 1.31828294,2.4540157 1.31828294,2.45164467 L1.31828294,1.02191379 C1.31828294,0.863054798 1.4369284,0.735019196 1.58413666,0.735019196 L2.28062948,0.735019196 C2.79256269,0.735019196 3.21001895,1.18551483 3.21001895,1.73796474 C3.21001895,2.01774625 3.10235918,2.27381745 2.92878526,2.4540157 C3.10235918,2.63421396 3.21001895,2.88791413 3.21001895,3.17006666 Z" id="Shape"></path>
                </g>
                <g id="Group" transform="translate(2.641509, 0.000000)">
                    <polygon id="Path" points="1.96408275 2.77790407 2.61877699 2.77790407 2.29030497 1.8322346"></polygon>
                    <path d="M0,0 L0,4.90566038 L4.52830189,4.90566038 L4.52830189,0 L0,0 Z M3.37700146,4.15167294 C3.23858175,4.20857766 3.08258493,4.13507574 3.02985362,3.98570087 L2.79036555,3.31232844 L1.73793634,3.31232844 L1.49844827,3.98570087 C1.45011123,4.1398178 1.30949438,4.20857766 1.15130043,4.15167294 C1.01068358,4.10188132 0.9425723,3.92642513 0.997500755,3.77705026 L2.01477575,0.91995951 C2.05432424,0.808521116 2.1553926,0.735019196 2.26524951,0.735019196 C2.37730356,0.735019196 2.47617478,0.808521116 2.51572327,0.92233054 L3.53299827,3.77942129 C3.58572959,3.92642513 3.5176183,4.09476823 3.37700146,4.15167294 Z" id="Shape"></path>
                </g>
                <path d="M5.28301887,5.66037736 L5.28301887,10.5660377 L9.81132075,10.5660377 L9.81132075,5.66037736 L5.28301887,5.66037736 Z M7.70755868,9.2846556 C7.93486146,9.2846556 8.15342183,9.17826779 8.32389892,8.98676972 C8.42443669,8.87328938 8.59054257,8.86856104 8.69763715,8.97731303 C8.80254613,9.08606501 8.80691734,9.26574221 8.70637957,9.38158672 C8.43755031,9.6889293 8.08129691,9.85678563 7.70755868,9.85678563 C6.91199893,9.85678563 6.26506024,9.08842919 6.26506024,8.14275972 C6.26506024,7.19709025 6.91199893,6.4287338 7.70755868,6.4287338 C8.10970976,6.4287338 8.49656161,6.62968857 8.76757647,6.97958627 C8.86155743,7.10015913 8.84625821,7.27983633 8.73479242,7.38149579 C8.62332663,7.48315526 8.45722075,7.46660605 8.36323979,7.34603319 C8.18839149,7.12143669 7.9567175,6.99849966 7.70755868,6.99849966 C7.20268423,6.99849966 6.79179073,7.51152535 6.79179073,8.14039554 C6.79179073,8.76926574 7.20268423,9.2846556 7.70755868,9.2846556 Z" id="Shape"></path>
            </g>
            <g id="004-binary-code-copy" transform="translate(9.811321, 8.609701)">
                <path d="M0.843580654,7.16277272 C0.843580654,7.37506242 0.992643015,7.54716981 1.17650731,7.54716981 C1.3603716,7.54716981 1.50943396,7.37506242 1.50943396,7.16277272 L1.50943396,4.15796624 C1.50943396,4.00246481 1.42833303,3.86233925 1.30390724,3.80283458 C1.17957023,3.74338116 1.03632299,3.7762343 0.941105968,3.88617187 L0.097514217,4.86018286 C-0.032504739,5.01030274 -0.032504739,5.25370298 0.097514217,5.40377161 C0.227533173,5.55389148 0.43834233,5.55389148 0.568316896,5.40377161 L0.843580654,5.08595209 L0.843580654,7.16277272 Z" id="Path"></path>
                <path d="M2.59718857,1.6301867 L2.94126827,1.31236718 L2.94126827,3.38918781 C2.94126827,3.60147751 3.12759622,3.77358491 3.35742659,3.77358491 C3.58725695,3.77358491 3.77358491,3.60147751 3.77358491,3.38918781 L3.77358491,0.384381339 C3.77358491,0.2288799 3.67220874,0.0887543457 3.5166765,0.0292496752 C3.36125524,-0.0302037422 3.18219619,0.00264939621 3.06317491,0.112586966 L2.00868522,1.08659795 C1.84616153,1.23671783 1.84616153,1.48011807 2.00868522,1.6301867 C2.17120892,1.78030658 2.43472037,1.78030658 2.59718857,1.6301867 Z" id="Path"></path>
                <path d="M6.9642846,3.80283458 C6.83994759,3.74338116 6.69670035,3.7762343 6.60148333,3.88617187 L5.75789158,4.86018286 C5.62787262,5.01030274 5.62787262,5.25370298 5.75789158,5.40377161 C5.88791053,5.55389148 6.09871969,5.55389148 6.22869425,5.40377161 L6.50395801,5.08595209 L6.50395801,7.16277272 C6.50395801,7.37506242 6.65302037,7.54716981 6.83688467,7.54716981 C7.02074896,7.54716981 7.16981132,7.37506242 7.16981132,7.16277272 L7.16981132,4.15796624 C7.16981132,4.00251606 7.08871039,3.86233925 6.9642846,3.80283458 Z" id="Path"></path>
                <path d="M6.20956762,7.57641949 C6.08523061,7.51696607 5.94198337,7.54981921 5.84676635,7.65975678 L5.00317459,8.63376776 C4.87315564,8.78388764 4.87315564,9.02728788 5.00317459,9.17735651 C5.13319355,9.32747639 5.34400271,9.32747639 5.47397727,9.17735651 L5.74924103,8.85953699 L5.74924103,10.9363576 C5.74924103,11.1486473 5.89830339,11.3207547 6.08216769,11.3207547 C6.26603198,11.3207547 6.41509434,11.1486473 6.41509434,10.9363576 L6.41509434,7.93155115 C6.41509434,7.77610096 6.33399341,7.63592416 6.20956762,7.57641949 Z" id="Path-Copy"></path>
                <path d="M5.28301887,6.22606145 L5.28301887,5.09469327 C5.28301887,4.3662283 4.61070574,3.77358491 3.78431238,3.77358491 L3.76285743,3.77358491 C2.93646407,3.77358491 2.26415094,4.3662283 2.26415094,5.09469327 L2.26415094,6.22606145 C2.26415094,6.95452642 2.93646407,7.54716981 3.76285743,7.54716981 L3.78431238,7.54716981 C4.61070574,7.54716981 5.28301887,6.95452642 5.28301887,6.22606145 Z M4.41086658,6.22606145 C4.41086658,6.53060932 4.12980097,6.77836839 3.78431238,6.77836839 L3.76285743,6.77836839 C3.41736884,6.77836839 3.13630323,6.53060932 3.13630323,6.22606145 L3.13630323,5.09469327 C3.13630323,4.7901454 3.41736884,4.54238633 3.76285743,4.54238633 L3.78431238,4.54238633 C4.12980097,4.54238633 4.41086658,4.7901454 4.41086658,5.09469327 L4.41086658,6.22606145 Z" id="Shape"></path>
                <path d="M9.44468974,3.77358491 L9.42323479,3.77358491 C8.59684143,3.77358491 7.9245283,4.3662283 7.9245283,5.09469327 L7.9245283,6.22606145 C7.9245283,6.95452642 8.59684143,7.54716981 9.42323479,7.54716981 L9.44468974,7.54716981 C10.2710831,7.54716981 10.9433962,6.95452642 10.9433962,6.22606145 L10.9433962,5.09469327 C10.9433962,4.36627955 10.2710831,3.77358491 9.44468974,3.77358491 Z M10.0712439,6.2261127 C10.0712439,6.53066057 9.79017833,6.77841964 9.44468974,6.77841964 L9.42323479,6.77841964 C9.0777462,6.77841964 8.79668059,6.53066057 8.79668059,6.2261127 L8.79668059,5.09474452 C8.79668059,4.79019665 9.0777462,4.54243758 9.42323479,4.54243758 L9.44468974,4.54243758 C9.79017833,4.54243758 10.0712439,4.79019665 10.0712439,5.09474452 L10.0712439,6.2261127 Z" id="Shape"></path>
                <path d="M6.04846332,0 L6.02700838,0 C5.20061501,0 4.52830189,0.59264339 4.52830189,1.32110837 L4.52830189,2.45247654 C4.52830189,3.18094152 5.20061501,3.77358491 6.02700838,3.77358491 L6.04846332,3.77358491 C6.28929364,3.77358491 6.48453947,3.60147589 6.48453947,3.38918419 C6.48453947,3.17689249 6.28929364,3.00478348 6.04846332,3.00478348 L6.02700838,3.00478348 C5.68151978,3.00478348 5.40045417,2.75702441 5.40045417,2.45247654 L5.40045417,1.32110837 C5.40045417,1.0165605 5.68151978,0.768801423 6.02700838,0.768801423 L6.04846332,0.768801423 C6.39395191,0.768801423 6.67501752,1.0165605 6.67501752,1.32110837 C6.67501752,1.53340007 6.87026335,1.70550908 7.11109367,1.70550908 C7.35192399,1.70550908 7.54716981,1.53340007 7.54716981,1.32110837 C7.54722795,0.59264339 6.87491483,0 6.04846332,0 Z" id="Path"></path>
                <path d="M9.44468974,0 L9.42323479,0 C8.59684143,0 7.9245283,0.59264339 7.9245283,1.32110837 L7.9245283,2.45247654 C7.9245283,3.18094152 8.59684143,3.77358491 9.42323479,3.77358491 L9.44468974,3.77358491 C10.2710831,3.77358491 10.9433962,3.18094152 10.9433962,2.45247654 L10.9433962,1.32110837 C10.9433962,0.59264339 10.2710831,0 9.44468974,0 Z M10.0712439,2.45252779 C10.0712439,2.75707566 9.79017833,3.00483474 9.44468974,3.00483474 L9.42323479,3.00483474 C9.0777462,3.00483474 8.79668059,2.75707566 8.79668059,2.45252779 L8.79668059,1.32110837 C8.79668059,1.0165605 9.0777462,0.768801423 9.42323479,0.768801423 L9.44468974,0.768801423 C9.79017833,0.768801423 10.0712439,1.0165605 10.0712439,1.32110837 L10.0712439,2.45252779 Z" id="Shape"></path>
                <path d="M3.0295954,7.54716981 L3.00814045,7.54716981 C2.18174709,7.54716981 1.50943396,8.1398132 1.50943396,8.86827818 L1.50943396,9.99964635 C1.50943396,10.7281113 2.18174709,11.3207547 3.00814045,11.3207547 L3.0295954,11.3207547 C3.85598876,11.3207547 4.52830189,10.7281113 4.52830189,9.99964635 L4.52830189,8.86827818 C4.52836003,8.13986446 3.8560469,7.54716981 3.0295954,7.54716981 Z M3.65620774,9.9996976 C3.65620774,10.3042455 3.37514213,10.5520045 3.02965354,10.5520045 L3.00819859,10.5520045 C2.66271,10.5520045 2.38164439,10.3042455 2.38164439,9.9996976 L2.38164439,8.86827818 C2.38164439,8.56373031 2.66271,8.31597123 3.00819859,8.31597123 L3.02965354,8.31597123 C3.37514213,8.31597123 3.65620774,8.56373031 3.65620774,8.86827818 L3.65620774,9.9996976 Z" id="Shape"></path>
            </g>
        </g>
    </g>
</svg>