<?xml version="1.0" encoding="utf-8"?>
<!-- Generator: Adobe Illustrator 23.0.1, SVG Export Plug-In . SVG Version: 6.00 Build 0)  -->
<svg version="1.1" id="Layer_1" xmlns="http://www.w3.org/2000/svg" xmlns:xlink="http://www.w3.org/1999/xlink" x="0px" y="0px"
	 viewBox="0 0 43 43" style="enable-background:new 0 0 43 43;" xml:space="preserve">
<style type="text/css">
	.st0{fill:#7E44F2;}
</style>
<path class="st0" d="M10,0.3C9,0.4,7.6,0.9,6.8,1.3c-2.1,1.1-4,3.2-4.9,5.4C1.2,8.5,1.2,7.7,1.2,21c0,13,0,13.1,0.5,14.6
	c0.9,2.6,2.8,4.8,5.2,6c1.4,0.7,2.5,1,3.9,1.1c1.5,0.1,26.9,0.1,27.7,0c1.3-0.2,2.3-0.9,2.9-2.1l0.3-0.6v-2.3c0-2,0-2.4-0.2-2.9
	c-0.7-2.1-2-3.4-4.1-4c-0.4-0.1-1.7-0.2-8.7-0.2l-8.2,0l-0.9-0.3c-3.5-1.1-5.9-3.7-6.6-7.1c-0.2-1.1-0.1-3.1,0.2-4.1
	c0.2-0.9,0.8-2.1,1.3-2.8c1-1.3,2.8-2.7,4.2-3.3c1.6-0.6,1.6-0.6,9.7-0.6c4.1,0,7.8,0,8.1-0.1c2.3-0.3,4.1-1.7,4.9-3.9
	c0.2-0.5,0.2-0.9,0.3-2.7c0-1.3,0-2.3-0.1-2.6c-0.3-1.5-1.5-2.6-3-2.9c-0.4-0.1-4.4-0.1-14.2-0.1C13.3,0.1,10.7,0.2,10,0.3z"/>
<path class="st0" d="M20.7,15.5c-1.9,0.5-3.5,2-4.1,3.8c-0.4,1.2-0.4,3.1,0,4.3c0.6,1.7,2,3,3.7,3.7l0.7,0.3h7.8
	c7.7,0,7.8,0,8.4-0.2c2-0.6,3.6-2.3,4.1-4.4c0.2-1.1,0.2-2.8-0.1-3.7c-0.6-1.8-2.3-3.3-4.2-3.8C36.1,15.2,21.5,15.3,20.7,15.5z"/>
</svg>
