<svg width="14" height="18" viewBox="0 0 14 18" fill="none" xmlns="http://www.w3.org/2000/svg">
<path d="M12.5917 15.25C11.9 16.2833 11.1667 17.2917 10.05 17.3083C8.93333 17.3333 8.575 16.65 7.30833 16.65C6.03333 16.65 5.64166 17.2917 4.58333 17.3333C3.49166 17.375 2.66666 16.2333 1.96666 15.225C0.541662 13.1667 -0.550005 9.37499 0.916662 6.82499C1.64166 5.55832 2.94166 4.75832 4.35 4.73332C5.41666 4.71666 6.43333 5.45832 7.09166 5.45832C7.74166 5.45832 8.975 4.56666 10.2667 4.69999C10.8083 4.72499 12.325 4.91666 13.3 6.34999C13.225 6.39999 11.4917 7.41666 11.5083 9.52499C11.5333 12.0417 13.7167 12.8833 13.7417 12.8917C13.7167 12.95 13.3917 14.0917 12.5917 15.25ZM7.83333 1.91666C8.44166 1.22499 9.45 0.69999 10.2833 0.666656C10.3917 1.64166 10 2.62499 9.41666 3.32499C8.84166 4.03332 7.89166 4.58332 6.95833 4.50832C6.83333 3.54999 7.3 2.54999 7.83333 1.91666Z" fill="#60666D"/>
</svg>
