<?xml version="1.0" encoding="utf-8"?>
<!-- Generator: Adobe Illustrator 23.0.1, SVG Export Plug-In . SVG Version: 6.00 Build 0)  -->
<svg version="1.1" id="Layer_1" xmlns="http://www.w3.org/2000/svg" xmlns:xlink="http://www.w3.org/1999/xlink" x="0px" y="0px"
	 viewBox="0 0 73 73" style="enable-background:new 0 0 73 73;" xml:space="preserve">
<style type="text/css">
	.st0{fill:url(#SVGID_1_);}
	.st1{fill:url(#SVGID_2_);}
	.st2{fill:url(#SVGID_3_);}
	.st3{fill:url(#SVGID_4_);}
	.st4{fill:url(#SVGID_5_);}
	.st5{fill:url(#SVGID_6_);}
	.st6{fill:url(#SVGID_7_);}
	.st7{fill:url(#SVGID_8_);}
	.st8{fill:url(#SVGID_9_);}
	.st9{fill:url(#SVGID_10_);}
	.st10{fill:url(#SVGID_11_);}
</style>
<linearGradient id="SVGID_1_" gradientUnits="userSpaceOnUse" x1="23.3477" y1="75.6575" x2="22.464" y2="-0.3413" gradientTransform="matrix(1 0 0 -1 0 74)">
	<stop  offset="0.1979" style="stop-color:#2CD7BE"/>
	<stop  offset="0.651" style="stop-color:#2878DB"/>
	<stop  offset="1" style="stop-color:#2400FF"/>
</linearGradient>
<path class="st0" d="M12.3,32.9c0,0.5,0.4,0.9,0.9,0.9h19.7c0.5,0,0.9-0.4,0.9-0.9V13.2c0-0.5-0.4-0.9-0.9-0.9H13.2
	c-0.5,0-0.9,0.4-0.9,0.9V32.9z M17.7,18.6c0-0.5,0.4-0.9,0.9-0.9h9c0.5,0,0.9,0.4,0.9,0.9v9c0,0.5-0.4,0.9-0.9,0.9h-9
	c-0.5,0-0.9-0.4-0.9-0.9V18.6z"/>
<linearGradient id="SVGID_2_" gradientUnits="userSpaceOnUse" x1="23.6602" y1="75.6538" x2="22.7765" y2="-0.345" gradientTransform="matrix(1 0 0 -1 0 74)">
	<stop  offset="0.1979" style="stop-color:#2CD7BE"/>
	<stop  offset="0.651" style="stop-color:#2878DB"/>
	<stop  offset="1" style="stop-color:#2400FF"/>
</linearGradient>
<path class="st1" d="M12.3,59.8c0,0.5,0.4,0.9,0.9,0.9h19.7c0.5,0,0.9-0.4,0.9-0.9V40.1c0-0.5-0.4-0.9-0.9-0.9H13.2
	c-0.5,0-0.9,0.4-0.9,0.9V59.8z M17.7,45.4c0-0.5,0.4-0.9,0.9-0.9h9c0.5,0,0.9,0.4,0.9,0.9v9c0,0.5-0.4,0.9-0.9,0.9h-9
	c-0.5,0-0.9-0.4-0.9-0.9V45.4z"/>
<linearGradient id="SVGID_3_" gradientUnits="userSpaceOnUse" x1="50.2235" y1="75.345" x2="49.3398" y2="-0.6538" gradientTransform="matrix(1 0 0 -1 0 74)">
	<stop  offset="0.1979" style="stop-color:#2CD7BE"/>
	<stop  offset="0.651" style="stop-color:#2878DB"/>
	<stop  offset="1" style="stop-color:#2400FF"/>
</linearGradient>
<path class="st2" d="M40.1,12.3c-0.5,0-0.9,0.4-0.9,0.9v19.7c0,0.5,0.4,0.9,0.9,0.9h19.7c0.5,0,0.9-0.4,0.9-0.9V13.2
	c0-0.5-0.4-0.9-0.9-0.9H40.1z M55.3,27.6c0,0.5-0.4,0.9-0.9,0.9h-9c-0.5,0-0.9-0.4-0.9-0.9v-9c0-0.5,0.4-0.9,0.9-0.9h9
	c0.5,0,0.9,0.4,0.9,0.9V27.6z"/>
<linearGradient id="SVGID_4_" gradientUnits="userSpaceOnUse" x1="58.6925" y1="75.2465" x2="57.8088" y2="-0.7523" gradientTransform="matrix(1 0 0 -1 0 74)">
	<stop  offset="0.1979" style="stop-color:#2CD7BE"/>
	<stop  offset="0.651" style="stop-color:#2878DB"/>
	<stop  offset="1" style="stop-color:#2400FF"/>
</linearGradient>
<path class="st3" d="M59.8,55.3h-3.6c-0.5,0-0.9,0.4-0.9,0.9v3.6c0,0.5,0.4,0.9,0.9,0.9h3.6c0.5,0,0.9-0.4,0.9-0.9v-3.6
	C60.7,55.7,60.3,55.3,59.8,55.3z"/>
<linearGradient id="SVGID_5_" gradientUnits="userSpaceOnUse" x1="42.3795" y1="75.4362" x2="41.4958" y2="-0.5626" gradientTransform="matrix(1 0 0 -1 0 74)">
	<stop  offset="0.1979" style="stop-color:#2CD7BE"/>
	<stop  offset="0.651" style="stop-color:#2878DB"/>
	<stop  offset="1" style="stop-color:#2400FF"/>
</linearGradient>
<path class="st4" d="M43.7,39.2h-3.6c-0.5,0-0.9,0.4-0.9,0.9v3.6c0,0.5,0.4,0.9,0.9,0.9h3.6c0.5,0,0.9-0.4,0.9-0.9v-3.6
	C44.6,39.6,44.2,39.2,43.7,39.2z"/>
<linearGradient id="SVGID_6_" gradientUnits="userSpaceOnUse" x1="47.8172" y1="75.3729" x2="46.9335" y2="-0.6259" gradientTransform="matrix(1 0 0 -1 0 74)">
	<stop  offset="0.1979" style="stop-color:#2CD7BE"/>
	<stop  offset="0.651" style="stop-color:#2878DB"/>
	<stop  offset="1" style="stop-color:#2400FF"/>
</linearGradient>
<path class="st5" d="M49.1,44.6h-3.6c-0.5,0-0.9,0.4-0.9,0.9v3.6c0,0.5,0.4,0.9,0.9,0.9h3.6c0.5,0,0.9-0.4,0.9-0.9v-3.6
	C49.9,45,49.5,44.6,49.1,44.6z"/>
<linearGradient id="SVGID_7_" gradientUnits="userSpaceOnUse" x1="42.5045" y1="75.4347" x2="41.6208" y2="-0.5641" gradientTransform="matrix(1 0 0 -1 0 74)">
	<stop  offset="0.1979" style="stop-color:#2CD7BE"/>
	<stop  offset="0.651" style="stop-color:#2878DB"/>
	<stop  offset="1" style="stop-color:#2400FF"/>
</linearGradient>
<path class="st6" d="M43.7,49.9h-3.6c-0.5,0-0.9,0.4-0.9,0.9v3.6c0,0.5,0.4,0.9,0.9,0.9h3.6c0.5,0,0.9-0.4,0.9-0.9v-3.6
	C44.6,50.3,44.2,49.9,43.7,49.9z"/>
<linearGradient id="SVGID_8_" gradientUnits="userSpaceOnUse" x1="47.9422" y1="75.3715" x2="47.0585" y2="-0.6273" gradientTransform="matrix(1 0 0 -1 0 74)">
	<stop  offset="0.1979" style="stop-color:#2CD7BE"/>
	<stop  offset="0.651" style="stop-color:#2878DB"/>
	<stop  offset="1" style="stop-color:#2400FF"/>
</linearGradient>
<path class="st7" d="M49.1,55.3h-3.6c-0.5,0-0.9,0.4-0.9,0.9v3.6c0,0.5,0.4,0.9,0.9,0.9h3.6c0.5,0,0.9-0.4,0.9-0.9v-3.6
	C49.9,55.7,49.5,55.3,49.1,55.3z"/>
<linearGradient id="SVGID_9_" gradientUnits="userSpaceOnUse" x1="53.2548" y1="75.3097" x2="52.3711" y2="-0.6891" gradientTransform="matrix(1 0 0 -1 0 74)">
	<stop  offset="0.1979" style="stop-color:#2CD7BE"/>
	<stop  offset="0.651" style="stop-color:#2878DB"/>
	<stop  offset="1" style="stop-color:#2400FF"/>
</linearGradient>
<path class="st8" d="M54.4,49.9h-3.6c-0.5,0-0.9,0.4-0.9,0.9v3.6c0,0.5,0.4,0.9,0.9,0.9h3.6c0.5,0,0.9-0.4,0.9-0.9v-3.6
	C55.3,50.3,54.9,49.9,54.4,49.9z"/>
<linearGradient id="SVGID_10_" gradientUnits="userSpaceOnUse" x1="53.1298" y1="75.3112" x2="52.2461" y2="-0.6876" gradientTransform="matrix(1 0 0 -1 0 74)">
	<stop  offset="0.1979" style="stop-color:#2CD7BE"/>
	<stop  offset="0.651" style="stop-color:#2878DB"/>
	<stop  offset="1" style="stop-color:#2400FF"/>
</linearGradient>
<path class="st9" d="M54.4,39.2h-3.6c-0.5,0-0.9,0.4-0.9,0.9v3.6c0,0.5,0.4,0.9,0.9,0.9h3.6c0.5,0,0.9-0.4,0.9-0.9v-3.6
	C55.3,39.6,54.9,39.2,54.4,39.2z"/>
<linearGradient id="SVGID_11_" gradientUnits="userSpaceOnUse" x1="58.5675" y1="75.2479" x2="57.6838" y2="-0.7509" gradientTransform="matrix(1 0 0 -1 0 74)">
	<stop  offset="0.1979" style="stop-color:#2CD7BE"/>
	<stop  offset="0.651" style="stop-color:#2878DB"/>
	<stop  offset="1" style="stop-color:#2400FF"/>
</linearGradient>
<path class="st10" d="M59.8,44.6h-3.6c-0.5,0-0.9,0.4-0.9,0.9v3.6c0,0.5,0.4,0.9,0.9,0.9h3.6c0.5,0,0.9-0.4,0.9-0.9v-3.6
	C60.7,45,60.3,44.6,59.8,44.6z"/>
</svg>
