<?xml version="1.0" encoding="utf-8"?>
<!-- Generator: Adobe Illustrator 16.0.0, SVG Export Plug-In . SVG Version: 6.00 Build 0)  -->
<!DOCTYPE svg PUBLIC "-//W3C//DTD SVG 1.1//EN" "http://www.w3.org/Graphics/SVG/1.1/DTD/svg11.dtd">
<svg version="1.1" id="Layer_1" xmlns="http://www.w3.org/2000/svg" xmlns:xlink="http://www.w3.org/1999/xlink" x="0px" y="0px"
	 width="500px" height="500px" viewBox="0 0 500 500" enable-background="new 0 0 500 500" xml:space="preserve">
<g>
	<circle fill="#D5F6F2" cx="250.012" cy="250.134" r="242.988"/>
	<g>
		<path fill="#08CDB7" d="M304.195,194.857l-25-25c0,0-6.5-5.5-14,2.5s-125.5,125.5-125.5,125.5s-5,5-4.5,12s-0.035,46-0.035,46
			s1.535,10.5,11.535,9.5s47,0.066,47,0.066s5.5,0.934,14.5-7.566s122.5-122,122.5-122s9-7,0-16.5S304.195,194.857,304.195,194.857z
			"/>
		<path fill="#7B8FEE" d="M321.695,128.857c0,0-5-5.5-12,0s-23,22.5-23,22.5s-3,6.5,0,12s53,51,53,51s5,5,11.5,0s23-23.5,23-23.5
			s3.287-4.589-2.5-11.5C362.195,168.014,321.695,128.857,321.695,128.857z"/>
	</g>
</g>
</svg>
