<svg width="156" height="156" viewBox="0 0 156 156" fill="none" xmlns="http://www.w3.org/2000/svg">
<g clip-path="url(#clip0_114_244)">
<g filter="url(#filter0_d_114_244)">
<path fill-rule="evenodd" clip-rule="evenodd" d="M78 114C97.8823 114 114 97.8823 114 78C114 58.1178 97.8823 42 78 42C58.1178 42 42 58.1178 42 78C42 97.8823 58.1178 114 78 114Z" fill="#07A6B3"/>
<path fill-rule="evenodd" clip-rule="evenodd" d="M78 114C97.8823 114 114 97.8823 114 78C114 58.1178 97.8823 42 78 42C58.1178 42 42 58.1178 42 78C42 97.8823 58.1178 114 78 114Z" fill="url(#paint0_linear_114_244)" fill-opacity="0.2" style="mix-blend-mode:overlay"/>
</g>
<path fill-rule="evenodd" clip-rule="evenodd" d="M99.0608 87.1951L73.3962 76.6846H90.4279C89.7705 70.4016 84.4573 65.504 78.0001 65.504C76.6829 65.504 75.4133 65.7078 74.2212 66.0856L68.5187 56.2978C71.4217 55.0278 74.6286 54.3231 78 54.3231C91.0764 54.3231 101.677 64.9236 101.677 78C101.677 81.3641 100.975 84.5643 99.7105 87.4623L99.0608 87.1951ZM86.6358 100.053C83.9602 101.101 81.0473 101.677 78 101.677C64.9236 101.677 54.3231 91.0764 54.3231 78C54.3231 74.9841 54.8869 72.1 55.915 69.4471L66.2623 73.7035C65.7717 75.0432 65.504 76.4904 65.504 78.0002C65.504 84.9016 71.0987 90.4963 78.0001 90.4963C78.9612 90.4963 79.897 90.3878 80.7958 90.1824L86.6358 100.053Z" fill="white"/>
</g>
<defs>
<filter id="filter0_d_114_244" x="0.461536" y="0.461536" width="155.077" height="155.077" filterUnits="userSpaceOnUse" color-interpolation-filters="sRGB">
<feFlood flood-opacity="0" result="BackgroundImageFix"/>
<feColorMatrix in="SourceAlpha" type="matrix" values="0 0 0 0 0 0 0 0 0 0 0 0 0 0 0 0 0 0 127 0" result="hardAlpha"/>
<feOffset/>
<feGaussianBlur stdDeviation="20.7692"/>
<feColorMatrix type="matrix" values="0 0 0 0 0.027451 0 0 0 0 0.65098 0 0 0 0 0.701961 0 0 0 0.5 0"/>
<feBlend mode="normal" in2="BackgroundImageFix" result="effect1_dropShadow_114_244"/>
<feBlend mode="normal" in="SourceGraphic" in2="effect1_dropShadow_114_244" result="shape"/>
</filter>
<linearGradient id="paint0_linear_114_244" x1="78" y1="42" x2="78" y2="114" gradientUnits="userSpaceOnUse">
<stop stop-color="white"/>
<stop offset="1" stop-color="white" stop-opacity="0"/>
</linearGradient>
<clipPath id="clip0_114_244">
<rect width="156" height="156" fill="white"/>
</clipPath>
</defs>
</svg>
