<?xml version="1.0" encoding="UTF-8"?>
<svg width="63px" height="76px" viewBox="0 0 63 76" version="1.1" xmlns="http://www.w3.org/2000/svg" xmlns:xlink="http://www.w3.org/1999/xlink">
    <!-- Generator: Sketch 55.2 (78181) - https://sketchapp.com -->
    <title>Group 13 Copy 4</title>
    <desc>Created with Sketch.</desc>
    <g id="Keystore-file_create-new-wallet" stroke="none" stroke-width="1" fill="none" fill-rule="evenodd">
        <g id="Group-19-Copy" transform="translate(4.000000, 8.000000)">
            <g id="Group-20">
                <g id="Group-18" transform="translate(9.789474, 0.000000)">
                    <g id="Group-16" fill="#B2EEE4">
                        <path d="M6,0 L34.8505832,0 L45.6842105,10.6596491 L45.6842105,47.2982456 C45.6842105,50.6119541 42.997919,53.2982456 39.6842105,53.2982456 L6,53.2982456 C2.6862915,53.2982456 4.05812251e-16,50.6119541 0,47.2982456 L0,6 C-4.05812251e-16,2.6862915 2.6862915,6.08718376e-16 6,0 Z" id="Rectangle"></path>
                    </g>
                    <path d="M34.8070175,0 L45.6842105,10.877193 L45.6842105,2.0733569 C45.3360738,0.691118967 44.4556824,0 43.0430363,0 C41.6303903,0 38.8850507,0 34.8070175,0 Z" id="Path-2" fill="#5A78F0" transform="translate(40.245614, 5.438596) scale(-1, -1) translate(-40.245614, -5.438596) "></path>
                </g>
                <g id="Group-19" transform="translate(0.000000, 8.701754)">
                    <g id="Group-18">
                        <g id="Group-16" fill="#CDF4EE">
                            <path d="M6,0 L34.8505832,0 L45.6842105,10.6596491 L45.6842105,47.2982456 C45.6842105,50.6119541 42.997919,53.2982456 39.6842105,53.2982456 L6,53.2982456 C2.6862915,53.2982456 4.05812251e-16,50.6119541 0,47.2982456 L0,6 C-4.05812251e-16,2.6862915 2.6862915,6.08718376e-16 6,0 Z" id="Rectangle"></path>
                        </g>
                        <path d="M34.8070175,0 L45.6842105,10.877193 L45.6842105,2.0733569 C45.3360738,0.691118967 44.4556824,0 43.0430363,0 C41.6303903,0 38.8850507,0 34.8070175,0 Z" id="Path-2" fill="#05C0A5" transform="translate(40.245614, 5.438596) scale(-1, -1) translate(-40.245614, -5.438596) "></path>
                    </g>
                    <path d="M12.4974418,19.1802756 C12.1736885,19.0128887 11.9648372,18.649912 11.9649123,18.2554878 L11.9649123,18.1825264 C11.9649123,17.7875198 12.1739138,17.4243767 12.4973667,17.2576553 L17.2346337,14.8173168 C17.3545673,14.7555866 17.4885446,14.7230576 17.6221463,14.7230576 C17.7993057,14.7230576 17.9709077,14.7782155 18.1181775,14.8824579 C18.3845549,15.0703939 18.5436904,15.3919398 18.5436904,15.7421879 L18.5436904,15.7687268 C18.5436904,16.1638998 18.3345387,16.5268765 18.0107854,16.6935979 L15.0477406,18.2188823 L18.0107854,19.7440002 C18.3345387,19.9105552 18.5436904,20.2736152 18.5436904,20.6689545 L18.5436904,20.6957431 C18.5436904,21.0454919 18.3845549,21.3668715 18.1181775,21.555473 C17.9694057,21.6602978 17.7982543,21.7155388 17.622672,21.7155388 C17.4878687,21.7155388 17.3574962,21.6836754 17.2350092,21.6208637 L12.4974418,19.1802756 Z M20.5130904,21.9115595 C20.3422096,21.6696308 20.2927069,21.3547468 20.3806373,21.0686913 L22.1239883,14.7950266 C22.2452178,14.4036511 22.5941148,14.1403509 22.9920686,14.1403509 L23.015482,14.1403509 C23.3052881,14.1403509 23.5803771,14.2848777 23.7514066,14.527037 C23.9225103,14.7695807 23.9716414,15.0849259 23.883042,15.370597 L22.1399883,21.643493 C22.0187589,22.0348685 21.6702334,22.2982456 21.2724283,22.2982456 L21.2489406,22.2982456 C20.9592089,22.2982456 20.6841198,22.1536419 20.5130904,21.9115595 Z M26.0528008,15.7686436 L26.0528008,15.7685605 L26.0530261,15.7685605 L26.0530261,15.7421047 C26.0530261,15.3918566 26.212158,15.0703939 26.4788297,14.8821252 C26.6260962,14.7780491 26.7979196,14.7230576 26.9747745,14.7230576 C27.1083732,14.7230576 27.2421972,14.7555866 27.3616775,14.8171504 L32.0988363,17.2574889 C32.4225822,17.4242103 32.6315789,17.7873534 32.6315789,18.18236 L32.6315789,18.2553214 C32.6315789,18.649912 32.4225822,19.0128887 32.0991367,19.1800261 L27.3619779,21.620531 C27.2386676,21.6836754 27.1083732,21.7155388 26.9737231,21.7155388 C26.7979196,21.7155388 26.6266969,21.6601314 26.4784542,21.555473 C26.2117825,21.3667883 26.0528008,21.0454087 26.0528008,20.6955767 L26.0528008,20.6687881 C26.0528008,20.2736152 26.2619477,19.9105552 26.5856185,19.7438339 L29.5485957,18.2188823 L26.5856185,16.6940139 C26.2617975,16.5264606 26.0528008,16.1634006 26.0528008,15.7686436 Z" id="Combined-Shape" fill="#00C0A5" fill-rule="nonzero"></path>
                    <g id="Group-8" transform="translate(8.701754, 28.824561)" fill-rule="nonzero">
                        <path d="M27.2941656,4.50236751 L0.986536108,4.50236751 C0.4417051,4.50236751 0,4.90553951 0,5.40284101 C0,5.90014251 0.4417051,6.30331451 0.986536108,6.30331451 L27.2941656,6.30331451 C27.8389967,6.30331451 28.2807018,5.90014251 28.2807018,5.40284101 C28.2807018,4.90553951 27.8389967,4.50236751 27.2941656,4.50236751 Z" id="Path" fill="#05C0A5"></path>
                        <path d="M27.3684211,0 L23.7192982,0 C23.215476,0 22.8070175,0.403172003 22.8070175,0.900473502 C22.8070175,1.397775 23.215476,1.800947 23.7192982,1.800947 L27.3684211,1.800947 C27.8722433,1.800947 28.2807018,1.397775 28.2807018,0.900473502 C28.2807018,0.403172003 27.8722433,0 27.3684211,0 Z" id="Path" fill="#5A78F0"></path>
                        <path d="M0.971137521,1.800947 L19.0990379,1.800947 C19.6353648,1.800947 20.0701754,1.397775 20.0701754,0.900473502 C20.0701754,0.403172003 19.6353648,0 19.0990379,0 L0.971137521,0 C0.43481064,0 0,0.403172003 0,0.900473502 C0,1.397775 0.43481064,1.800947 0.971137521,1.800947 Z" id="Path" fill="#05C0A5"></path>
                        <g id="Group-10" transform="translate(14.140351, 10.092454) scale(-1, 1) translate(-14.140351, -10.092454) translate(0.000000, 9.004735)">
                            <path d="M27.3684211,0 L23.7192982,0 C23.215476,0 22.8070175,0.403172003 22.8070175,0.900473502 C22.8070175,1.397775 23.215476,1.800947 23.7192982,1.800947 L27.3684211,1.800947 C27.8722433,1.800947 28.2807018,1.397775 28.2807018,0.900473502 C28.2807018,0.403172003 27.8722433,0 27.3684211,0 Z" id="Path" fill="#5A78F0"></path>
                            <path d="M0.971137521,1.800947 L19.0990379,1.800947 C19.6353648,1.800947 20.0701754,1.397775 20.0701754,0.900473502 C20.0701754,0.403172003 19.6353648,0 19.0990379,0 L0.971137521,0 C0.43481064,0 0,0.403172003 0,0.900473502 C0,1.397775 0.43481064,1.800947 0.971137521,1.800947 Z" id="Path" fill="#05C0A5"></path>
                        </g>
                    </g>
                </g>
            </g>
        </g>
    </g>
</svg>