<svg width="20" height="20" viewBox="0 0 20 20" fill="none" xmlns="http://www.w3.org/2000/svg">
<g clip-path="url(#clip0_274_42749)">
<path d="M4.16667 9.16667H7.5C8.41667 9.16667 9.16667 8.41667 9.16667 7.5V4.16667C9.16667 3.25 8.41667 2.5 7.5 2.5H4.16667C3.25 2.5 2.5 3.25 2.5 4.16667V7.5C2.5 8.41667 3.25 9.16667 4.16667 9.16667ZM4.16667 4.16667H7.5V7.5H4.16667V4.16667Z" fill="white"/>
<path d="M4.16667 17.5002H7.5C8.41667 17.5002 9.16667 16.7502 9.16667 15.8335V12.5002C9.16667 11.5835 8.41667 10.8335 7.5 10.8335H4.16667C3.25 10.8335 2.5 11.5835 2.5 12.5002V15.8335C2.5 16.7502 3.25 17.5002 4.16667 17.5002ZM4.16667 12.5002H7.5V15.8335H4.16667V12.5002Z" fill="white"/>
<path d="M10.833 4.16667V7.5C10.833 8.41667 11.583 9.16667 12.4997 9.16667H15.833C16.7497 9.16667 17.4997 8.41667 17.4997 7.5V4.16667C17.4997 3.25 16.7497 2.5 15.833 2.5H12.4997C11.583 2.5 10.833 3.25 10.833 4.16667ZM15.833 7.5H12.4997V4.16667H15.833V7.5Z" fill="white"/>
<path d="M17.4997 17.0835V16.2502C17.4997 16.0168 17.3163 15.8335 17.083 15.8335H16.2497C16.0163 15.8335 15.833 16.0168 15.833 16.2502V17.0835C15.833 17.3168 16.0163 17.5002 16.2497 17.5002H17.083C17.3163 17.5002 17.4997 17.3168 17.4997 17.0835Z" fill="white"/>
<path d="M10.833 11.2502V12.0835C10.833 12.3168 11.0163 12.5002 11.2497 12.5002H12.083C12.3163 12.5002 12.4997 12.3168 12.4997 12.0835V11.2502C12.4997 11.0168 12.3163 10.8335 12.083 10.8335H11.2497C11.0163 10.8335 10.833 11.0168 10.833 11.2502Z" fill="white"/>
<path d="M13.75 12.5H12.9167C12.6833 12.5 12.5 12.6833 12.5 12.9167V13.75C12.5 13.9833 12.6833 14.1667 12.9167 14.1667H13.75C13.9833 14.1667 14.1667 13.9833 14.1667 13.75V12.9167C14.1667 12.6833 13.9833 12.5 13.75 12.5Z" fill="white"/>
<path d="M10.833 14.5832V15.4165C10.833 15.6498 11.0163 15.8332 11.2497 15.8332H12.083C12.3163 15.8332 12.4997 15.6498 12.4997 15.4165V14.5832C12.4997 14.3498 12.3163 14.1665 12.083 14.1665H11.2497C11.0163 14.1665 10.833 14.3498 10.833 14.5832Z" fill="white"/>
<path d="M12.9167 17.5002H13.75C13.9833 17.5002 14.1667 17.3168 14.1667 17.0835V16.2502C14.1667 16.0168 13.9833 15.8335 13.75 15.8335H12.9167C12.6833 15.8335 12.5 16.0168 12.5 16.2502V17.0835C12.5 17.3168 12.6833 17.5002 12.9167 17.5002Z" fill="white"/>
<path d="M14.5837 15.8332H15.417C15.6503 15.8332 15.8337 15.6498 15.8337 15.4165V14.5832C15.8337 14.3498 15.6503 14.1665 15.417 14.1665H14.5837C14.3503 14.1665 14.167 14.3498 14.167 14.5832V15.4165C14.167 15.6498 14.3503 15.8332 14.5837 15.8332Z" fill="white"/>
<path d="M15.417 10.8335H14.5837C14.3503 10.8335 14.167 11.0168 14.167 11.2502V12.0835C14.167 12.3168 14.3503 12.5002 14.5837 12.5002H15.417C15.6503 12.5002 15.8337 12.3168 15.8337 12.0835V11.2502C15.8337 11.0168 15.6503 10.8335 15.417 10.8335Z" fill="white"/>
<path d="M16.2497 14.1667H17.083C17.3163 14.1667 17.4997 13.9833 17.4997 13.75V12.9167C17.4997 12.6833 17.3163 12.5 17.083 12.5H16.2497C16.0163 12.5 15.833 12.6833 15.833 12.9167V13.75C15.833 13.9833 16.0163 14.1667 16.2497 14.1667Z" fill="white"/>
</g>
<defs>
<clipPath id="clip0_274_42749">
<rect width="20" height="20" fill="white"/>
</clipPath>
</defs>
</svg>
