<?xml version="1.0" encoding="utf-8"?>
<!-- Generator: Adobe Illustrator 24.1.2, SVG Export Plug-In . SVG Version: 6.00 Build 0)  -->
<svg version="1.1" id="Layer_1" xmlns="http://www.w3.org/2000/svg" xmlns:xlink="http://www.w3.org/1999/xlink" x="0px" y="0px"
	 viewBox="0 0 173.6 248.4" style="enable-background:new 0 0 173.6 248.4;" xml:space="preserve">
<style type="text/css">
	.st0{fill:#202124;}
</style>
<g>
	<path class="st0" d="M67.6,60.7c0,1,0,1.7,0,2.4c0,55.8,0,111.7,0,167.6c0,11.8,11.8,20.1,24.1,17.2c8.7-2.1,14.3-9,14.3-17.6
		c0-55.7,0-111.4,0-167c0-0.7,0-1.4,0-2.6c0.9,0.8,1.4,1.2,1.9,1.7c10.9,10.1,21.8,20.2,32.8,30.2c7.7,7,19.6,6.9,27.1-0.1
		c7.4-6.8,7.6-17.9,0.1-24.9c-22.5-20.8-45.1-41.6-67.7-62.3C92.8-1.6,80.9-1.7,73.6,5C50.8,25.8,28.1,46.7,5.5,67.7
		C0,72.8-1.3,79.2,1.3,86c4.8,12.3,21.6,15.6,31.7,6.4c11-10,21.9-20.1,32.8-30.2C66.3,61.8,66.8,61.4,67.6,60.7z"/>
	<path class="st0" d="M67.6,60.7c-0.8,0.7-1.3,1.1-1.8,1.5C54.9,72.3,44,82.4,33,92.4C22.9,101.6,6.1,98.2,1.3,86
		C-1.3,79.2,0,72.8,5.5,67.7c22.6-21,45.3-41.9,68.1-62.7c7.3-6.7,19.3-6.6,26.7,0.3C123,25.9,145.5,46.7,168,67.5
		c7.5,7,7.3,18-0.1,24.9c-7.6,6.9-19.5,7.1-27.1,0.1c-11-10-21.9-20.1-32.8-30.2c-0.5-0.5-1-0.9-1.9-1.7c0,1.2,0,1.9,0,2.6
		c0,55.7,0,111.4,0,167c0,8.6-5.7,15.6-14.3,17.6c-12.4,2.9-24.1-5.4-24.1-17.2c0-55.9,0-111.7,0-167.6
		C67.6,62.4,67.6,61.7,67.6,60.7z"/>
</g>
</svg>
