<?xml version="1.0" encoding="utf-8"?>
<!-- Generator: Adobe Illustrator 23.0.1, SVG Export Plug-In . SVG Version: 6.00 Build 0)  -->
<svg version="1.1" id="Layer_1" xmlns="http://www.w3.org/2000/svg" xmlns:xlink="http://www.w3.org/1999/xlink" x="0px" y="0px"
	 viewBox="0 0 24 24" style="enable-background:new 0 0 24 24;" xml:space="preserve">
<style type="text/css">
	.st0{fill:#FFFFFF;}
</style>
<g>
	<g>
		<path class="st0" d="M4.5,6l4,4V7h7c1.1,0,2,0.9,2,2s-0.9,2-2,2h-7c-2.2,0-4,1.8-4,4s1.8,4,4,4h7v3l4-4l-4-4v3h-7
			c-1.1,0-2-0.9-2-2s0.9-2,2-2h7c2.2,0,4-1.8,4-4s-1.8-4-4-4h-7V2L4.5,6z"/>
	</g>
</g>
</svg>
