<svg width="24" height="24" viewBox="0 0 24 24" fill="none" xmlns="http://www.w3.org/2000/svg">
<g opacity="0.7">
<path fill-rule="evenodd" clip-rule="evenodd" d="M21.9782 15.7826H22.3414C22.7051 15.7826 23 16.0762 23 16.4383V17.4244C23 18.8447 21.8393 20 20.4128 20H3.58719C2.16066 20 1 18.8447 1 17.4244V16.4383C1 16.0762 1.29491 15.7826 1.65863 15.7826H2.02185V5.71675C2.02185 4.77015 2.79546 4 3.74631 4H20.2537C21.2045 4 21.9782 4.77015 21.9782 5.71675V15.7826ZM21.6825 17.4243V17.094H2.31738V17.4243C2.31738 18.1215 2.88689 18.6886 3.58714 18.6886H20.4128C21.113 18.6886 21.6825 18.1215 21.6825 17.4243ZM3.33911 5.71673C3.33911 5.49316 3.52173 5.31152 3.74614 5.31152H20.2535C20.4779 5.31152 20.6606 5.49316 20.6606 5.71673V15.7826H3.33911V5.71673ZM15.2446 7.73334H17.5158C17.8775 7.73334 18.1708 8.03224 18.1708 8.40105V10.7153C18.1708 11.084 17.8775 11.3829 17.5156 11.3829C17.1538 11.3829 16.8605 11.084 16.8605 10.7153V10.0127L13.0089 13.9377C12.8862 14.0629 12.7194 14.1333 12.5456 14.1333C12.372 14.1333 12.2054 14.0629 12.0825 13.9377L9.31961 11.1221L6.94764 13.5391C6.6919 13.7999 6.27706 13.7999 6.02115 13.5391C5.76541 13.2785 5.76541 12.8558 6.02115 12.5951L8.8562 9.70586C9.11211 9.44524 9.52694 9.44524 9.78269 9.70586L12.5456 12.5216L15.9342 9.0686H15.2446C14.8829 9.0686 14.5896 8.7697 14.5896 8.40105C14.5896 8.03224 14.8829 7.73334 15.2446 7.73334Z" fill="white"/>
</g>
</svg>
