<?xml version="1.0" encoding="UTF-8"?>
<svg width="38px" height="38px" viewBox="0 0 38 38" version="1.1" xmlns="http://www.w3.org/2000/svg" xmlns:xlink="http://www.w3.org/1999/xlink">
    <!-- Generator: Sketch 55.2 (78181) - https://sketchapp.com -->
    <title>Group 11</title>
    <desc>Created with Sketch.</desc>
    <g id="Landing-page" stroke="none" stroke-width="1" fill="none" fill-rule="evenodd">
        <g id="how-it-works" transform="translate(-214.000000, -641.000000)">
            <g id="Group-74" transform="translate(214.000000, 507.000000)">
                <g id="Group-69" transform="translate(0.000000, 12.000000)">
                    <g id="Group-50" transform="translate(0.000000, 110.000000)">
                        <g id="Group-11" transform="translate(0.000000, 12.000000)">
                            <g id="Ssend-tx" transform="translate(0.000000, 1.000000)">
                                <circle id="Oval" stroke="#00C0A5" cx="18.855618" cy="18" r="18"></circle>
                                <g id="paper-plane" transform="translate(8.000000, 8.000000)" fill="#00C0A5" fill-rule="nonzero">
                                    <path d="M6.54545455,13.9090909 L6.54545455,17.4305527 C6.54545455,17.676554 6.71283278,17.8944624 6.96068132,17.9719073 C7.02264345,17.9908888 7.08621499,18 7.14898183,18 C7.33728234,18 7.51914523,17.9164811 7.63502246,17.7676655 L9.81818182,14.9644665 L6.54545455,13.9090909 Z" id="Path"></path>
                                    <path d="M18.5711681,0.108109305 C18.3908278,-0.0185855885 18.1540331,-0.0356855128 17.958011,0.0661367634 L0.316022491,9.19905085 C0.107454982,9.30709128 -0.015646893,9.52783575 0.00160305136,9.76023927 C0.0196370841,9.99342005 0.175670671,10.192401 0.397567683,10.2677961 L5.30204049,11.9295978 L15.7468818,3.0765007 L7.66449878,12.7294079 L15.8840973,15.5143638 C15.9452561,15.5345728 16.0095514,15.5454545 16.0738466,15.5454545 C16.1804827,15.5454545 16.2863346,15.5166956 16.3796411,15.4607322 C16.5286179,15.370569 16.6297653,15.2190014 16.6556402,15.0487795 L18.8118833,0.669297727 C18.8440309,0.451662328 18.7515085,0.235581467 18.5711681,0.108109305 Z" id="Path"></path>
                                </g>
                            </g>
                        </g>
                    </g>
                </g>
            </g>
        </g>
    </g>
</svg>