<?xml version="1.0" encoding="utf-8"?>
<!-- Generator: Adobe Illustrator 23.0.1, SVG Export Plug-In . SVG Version: 6.00 Build 0)  -->
<svg version="1.1" id="Layer_1" xmlns="http://www.w3.org/2000/svg" xmlns:xlink="http://www.w3.org/1999/xlink" x="0px" y="0px"
	 viewBox="0 0 48 46" style="enable-background:new 0 0 48 46;" xml:space="preserve">
<style type="text/css">
	.st0{fill:#FFFFFF;stroke:#FFFFFF;stroke-width:2;stroke-miterlimit:10;}
</style>
<g>
	<path class="st0" d="M25.7,39.4l-6-5.7l-6.2,5.6c-0.1,0.2-0.3,0.2-0.6,0.2c-0.4,0-0.7-0.3-0.7-0.7V26.6l-7.5-7.2
		c-0.3-0.3-0.3-0.8,0-1.1c0.1-0.1,0.2-0.2,0.3-0.2l0,0L41.1,8c0.4-0.1,0.8,0.1,0.9,0.5c0.1,0.2,0,0.4-0.1,0.6L26.9,39.2
		c-0.2,0.4-0.6,0.5-1,0.3C25.8,39.5,25.8,39.5,25.7,39.4L25.7,39.4L25.7,39.4z M18.6,32.7L13.7,28v9.1L18.6,32.7L18.6,32.7z
		 M13.1,25.3l23.4-14.5L6.6,19.2L13.1,25.3L13.1,25.3z M39.5,10.7L14.2,26.4L26,37.6L39.5,10.7L39.5,10.7z"/>
</g>
</svg>
