<?xml version="1.0" encoding="utf-8"?>
<!-- Generator: Adobe Illustrator 24.1.2, SVG Export Plug-In . SVG Version: 6.00 Build 0)  -->
<svg version="1.1" id="Layer_1" xmlns="http://www.w3.org/2000/svg" xmlns:xlink="http://www.w3.org/1999/xlink" x="0px" y="0px"
	 viewBox="0 0 112 112" style="enable-background:new 0 0 112 112;" xml:space="preserve">
<style type="text/css">
	.st0{fill:#1896A4;}
	.st1{fill:#FFFFFF;}
</style>
<g>
	<circle class="st0" cx="56" cy="56" r="54"/>
	<g>
		<g>
			<path class="st1" d="M62.75,72.88c-2.06,0.82-4.29,1.29-6.64,1.29c-9.88,0-17.89-8.01-17.89-17.89c0-0.73,0.06-1.45,0.14-2.16
				l-18.02-2.93C20.12,52.76,20,54.37,20,56c0,19.88,16.12,36,36,36c6.97,0,13.47-1.99,18.98-5.42L62.75,72.88z"/>
		</g>
		<path class="st1" d="M72.94,50.18L49,55.46l42.05,8.74C91.66,61.56,92,58.82,92,56c0-19.88-16.12-36-36-36
			c-7.98,0-15.34,2.6-21.31,6.99l12.44,13.82c2.64-1.54,5.7-2.43,8.98-2.43C63.85,38.38,70.45,43.3,72.94,50.18"/>
	</g>
</g>
</svg>
