<?xml version="1.0" encoding="UTF-8"?>
<svg width="22px" height="22px" viewBox="0 0 22 22" version="1.1" xmlns="http://www.w3.org/2000/svg" xmlns:xlink="http://www.w3.org/1999/xlink">
    <!-- Generator: Sketch 55.2 (78181) - https://sketchapp.com -->
    <title>Shape Copy 4</title>
    <desc>Created with Sketch.</desc>
    <g id="Interact-with-contract" stroke="none" stroke-width="1" fill="none" fill-rule="evenodd" opacity="0.600000024">
        <g id="Layer_1" transform="translate(3.000000, 4.000000)" fill="#FFFFFF" fill-rule="nonzero">
            <path d="M2.39225589,4.78451178 C1.77710438,4.78451178 1.12777778,4.51111111 0.683501684,4.06683502 C0.239225589,3.62255892 0,3.00740741 0,2.39225589 C0,1.77710438 0.273400673,1.16195286 0.683501684,0.683501684 C1.12777778,0.239225589 1.74292929,0 2.39225589,0 C3.00740741,0 3.62255892,0.273400673 4.06683502,0.683501684 C4.51111111,1.12777778 4.78451178,1.74292929 4.78451178,2.39225589 C4.78451178,3.00740741 4.51111111,3.62255892 4.06683502,4.06683502 C3.62255892,4.51111111 3.00740741,4.78451178 2.39225589,4.78451178 Z M12.9523569,4.06683502 C13.396633,3.62255892 13.6700337,3.00740741 13.6700337,2.39225589 C13.6700337,1.77710438 13.396633,1.16195286 12.9523569,0.683501684 C12.5080808,0.239225589 11.8929293,0 11.2777778,0 C10.6626263,0 10.0132997,0.273400673 9.56902357,0.683501684 C9.12474747,1.12777778 8.88552189,1.74292929 8.88552189,2.39225589 C8.88552189,3.00740741 9.15892256,3.62255892 9.56902357,4.06683502 C10.0132997,4.51111111 10.6284512,4.78451178 11.2777778,4.78451178 C11.8929293,4.78451178 12.5080808,4.51111111 12.9523569,4.06683502 Z M4.06683502,12.6106061 C4.51111111,12.16633 4.78451178,11.5511785 4.78451178,10.9360269 C4.78451178,10.3208754 4.51111111,9.70572391 4.06683502,9.22727273 C3.62255892,8.78299663 3.00740741,8.54377104 2.39225589,8.54377104 C1.77710438,8.54377104 1.12777778,8.81717172 0.683501684,9.22727273 C0.239225589,9.67154882 7.10542736e-15,10.2867003 7.10542736e-15,10.9360269 C7.10542736e-15,11.5511785 0.273400673,12.16633 0.683501684,12.6106061 C1.12777778,13.0548822 1.74292929,13.3282828 2.39225589,13.3282828 C3.00740741,13.3282828 3.62255892,13.0548822 4.06683502,12.6106061 Z M12.9523569,12.6106061 C13.396633,12.16633 13.6700337,11.5511785 13.6700337,10.9360269 C13.6700337,10.3208754 13.396633,9.70572391 12.9523569,9.22727273 C12.5080808,8.78299663 11.8929293,8.54377104 11.2777778,8.54377104 C10.6626263,8.54377104 10.0132997,8.81717172 9.56902357,9.22727273 C9.12474747,9.67154882 8.88552189,10.2867003 8.88552189,10.9360269 C8.88552189,11.5511785 9.15892256,12.16633 9.56902357,12.6106061 C10.0132997,13.0548822 10.6284512,13.3282828 11.2777778,13.3282828 C11.8929293,13.3282828 12.5080808,13.0548822 12.9523569,12.6106061 Z" id="XMLID_29_"></path>
        </g>
    </g>
</svg>