<svg width="220" height="220" viewBox="0 0 220 220" fill="none" xmlns="http://www.w3.org/2000/svg">
<g clip-path="url(#clip0_462_5119)">
<rect width="220" height="220" fill="white"/>
<g clip-path="url(#clip1_462_5119)">
<path d="M147.199 198.973C187.345 200.872 191.393 165.771 179.633 145.331C168.24 125.529 151.151 118.747 123.512 121.348C95.874 123.95 123.631 168.977 142.593 165.675C151.195 164.177 143.73 198.809 147.199 198.973Z" fill="white" stroke="black" stroke-width="4.58333"/>
<path d="M72.7992 198.973C32.653 200.872 28.605 165.771 40.3651 145.331C51.7579 125.529 68.8472 118.747 96.4856 121.348C124.124 123.95 96.3667 168.977 77.405 165.675C68.8025 164.177 76.2675 198.809 72.7992 198.973Z" fill="white" stroke="black" stroke-width="4.58333"/>
<path d="M115.025 21.0272C128.748 21.0272 137.66 23.2327 145.395 27.3741C153.13 31.5156 159.2 37.5931 163.337 45.337C167.429 52.9976 169.629 61.8109 169.677 75.2999V83.4966C169.677 97.2354 167.474 106.157 163.337 113.901C159.2 121.645 153.13 127.722 145.395 131.864C137.66 136.005 128.748 138.211 115.025 138.211H104.975C91.2517 138.211 82.3402 136.005 74.6051 131.864C66.8701 127.722 60.7996 121.645 56.6628 113.901C52.5261 106.157 50.3231 97.2354 50.3231 83.4966V75.7414C50.3231 62.0026 52.5261 53.0809 56.6628 45.337C60.7996 37.5931 66.8701 31.5156 74.6051 27.3741C82.257 23.2772 91.0602 21.0748 104.534 21.0272H115.025Z" fill="white" stroke="black" stroke-width="4.58333"/>
<path d="M102.734 54.6633H117.266C124.628 54.6633 130.331 56.0208 135.119 58.57C139.906 61.1191 143.663 64.8599 146.223 69.6263C148.783 74.3928 150.146 80.0719 150.146 87.4022V89.1966C150.146 96.5269 148.783 102.206 146.223 106.972C143.663 111.739 139.906 115.48 135.119 118.029C130.331 120.578 124.628 121.935 117.266 121.935H102.734C95.3723 121.935 89.6686 120.578 84.8815 118.029C80.0944 115.48 76.3375 111.739 73.7773 106.972C71.2171 102.206 69.8537 96.5269 69.8537 89.1966V87.4022C69.8537 80.0719 71.2171 74.3928 73.7773 69.6263C76.3375 64.8599 80.0944 61.1191 84.8815 58.57C89.6686 56.0208 95.3723 54.6633 102.734 54.6633Z" fill="white" stroke="black" stroke-width="4.58333"/>
<path d="M84.5017 97.5221C89.2957 97.5221 93.182 93.6358 93.182 88.8418C93.182 84.0478 89.2957 80.1616 84.5017 80.1616C79.7077 80.1616 75.8214 84.0478 75.8214 88.8418C75.8214 93.6358 79.7077 97.5221 84.5017 97.5221Z" fill="black"/>
<path d="M135.498 97.5221C140.292 97.5221 144.179 93.6358 144.179 88.8418C144.179 84.0478 140.292 80.1616 135.498 80.1616C130.704 80.1616 126.818 84.0478 126.818 88.8418C126.818 93.6358 130.704 97.5221 135.498 97.5221Z" fill="black"/>
<path d="M100.777 87.2142C100.777 92.0082 104.906 95.8945 110 95.8945C115.094 95.8945 119.223 92.0082 119.223 87.2142" stroke="black" stroke-width="4.58333" stroke-linecap="round"/>
<path d="M50.1797 54.8216C52.7742 55.188 55.0248 56.127 56.8321 57.5058C58.6394 58.8846 60.0033 60.7032 60.8242 62.8288C61.6451 64.9545 61.9231 67.3871 61.5584 69.994L61.2264 72.3678C60.8618 74.9746 59.9273 77.2361 58.555 79.052C57.1828 80.8679 55.3729 82.2383 53.2573 83.0632C51.1418 83.8881 48.7208 84.1673 46.1264 83.801C43.5319 83.4346 41.2813 82.4956 39.474 81.1168C37.6667 79.738 36.3028 77.9194 35.4819 75.7937C34.661 73.6681 34.383 71.2355 34.7476 68.6286L35.0797 66.2548C35.4443 63.648 36.3788 61.3865 37.751 59.5706C39.1233 57.7547 40.9332 56.3842 43.0487 55.5594C45.1642 54.7345 47.5853 54.4552 50.1797 54.8216Z" fill="white" stroke="black" stroke-width="4.58333"/>
<path d="M46.8364 63.9264L45.625 71.7525" stroke="#D8D8D8" stroke-width="5.96769" stroke-linecap="round" stroke-linejoin="round"/>
<path d="M169.764 54.8175C167.177 55.1731 164.936 56.0811 163.137 57.4148C161.339 58.7485 159.983 60.508 159.168 62.5665C158.353 64.625 158.078 66.9825 158.442 69.5124L158.904 72.7317C159.268 75.2615 160.196 77.4537 161.56 79.2127C162.924 80.9717 164.723 82.2976 166.828 83.0948C168.932 83.892 171.343 84.1606 173.93 83.8051C176.516 83.4495 178.758 82.5415 180.557 81.2078C182.355 79.874 183.711 78.1146 184.526 76.0561C185.341 73.9976 185.616 71.64 185.252 69.1102L184.79 65.8909C184.426 63.3611 183.498 61.1689 182.134 59.4099C180.77 57.6509 178.971 56.325 176.866 55.5278C174.761 54.7306 172.351 54.462 169.764 54.8175Z" fill="white" stroke="black" stroke-width="4.58333"/>
<path d="M173.151 63.9264L174.362 71.7525" stroke="#D8D8D8" stroke-width="5.96769" stroke-linecap="round" stroke-linejoin="round"/>
<path d="M110 111.085C83.9315 111.085 62.801 132.218 62.801 158.284C62.801 184.35 83.9336 205.483 110 205.483C136.066 205.483 157.199 184.35 157.199 158.284C157.199 132.218 136.069 111.085 110 111.085Z" fill="#07A6B3"/>
<path d="M110 111.085C83.9315 111.085 62.801 132.218 62.801 158.284C62.801 184.35 83.9336 205.483 110 205.483C136.066 205.483 157.199 184.35 157.199 158.284C157.199 132.218 136.069 111.085 110 111.085Z" stroke="black" stroke-width="4.58333"/>
<path d="M82.188 147.629L95.015 153.085C94.9736 153.264 94.9207 153.499 94.8617 153.762C94.4779 155.012 94.252 156.304 94.1893 157.61C94.1616 157.868 94.1519 158.128 94.1603 158.388L94.1717 158.567C94.2293 163.338 96.4513 167.824 100.213 170.765C103.975 173.707 108.87 174.785 113.521 173.697L120.813 186.06C117.38 187.427 113.717 188.127 110.021 188.122C93.9448 188.122 80.1616 175.11 80.1616 159.055C80.1616 155.285 80.8795 150.934 82.188 147.629ZM110.024 128.446C126.1 128.446 139.838 141.699 139.838 157.75C139.836 161.81 139.344 165.86 137.881 169.393L137.574 170.09L105.015 156.315L125.9 156.224C125.15 148.661 117.364 142.512 110.022 142.512C108.357 142.51 106.703 142.786 105.129 143.327L97.9024 131.077C101.706 129.337 105.841 128.44 110.024 128.446Z" fill="white"/>
<path d="M59.5277 189.056L56.0077 179.183C53.328 171.666 57.3393 163.429 64.9673 160.784L65.1388 160.726C72.9229 158.133 81.3721 162.19 84.095 169.828L87.615 179.702C90.2947 187.218 86.2834 195.455 78.6554 198.1L78.4839 198.158C70.6998 200.751 62.2506 196.694 59.5277 189.056Z" fill="white" stroke="black" stroke-width="4.58333"/>
<path d="M82.2773 169.296L71.4813 172.932" stroke="black" stroke-width="4.58333" stroke-linecap="round"/>
<path d="M86.3712 178.447L75.6228 182.225" stroke="black" stroke-width="4.58333" stroke-linecap="round"/>
<path d="M160.59 189.056L164.11 179.183C166.79 171.666 162.778 163.429 155.15 160.784L154.979 160.726C147.195 158.133 138.746 162.19 136.023 169.828L132.503 179.702C129.823 187.218 133.834 195.455 141.462 198.1L141.634 198.158C149.418 200.751 157.867 196.694 160.59 189.056Z" fill="white" stroke="black" stroke-width="4.58333"/>
<path d="M137.84 169.296L148.636 172.932" stroke="black" stroke-width="4.58333" stroke-linecap="round"/>
<path d="M133.746 178.447L144.495 182.225" stroke="black" stroke-width="4.58333" stroke-linecap="round"/>
</g>
</g>
<defs>
<clipPath id="clip0_462_5119">
<rect width="220" height="220" fill="white"/>
</clipPath>
<clipPath id="clip1_462_5119">
<rect width="220" height="220" fill="white"/>
</clipPath>
</defs>
</svg>
