<?xml version="1.0" encoding="utf-8" ?>	<!-- Generator: Assembly 2.4 - http://assemblyapp.co -->	<svg version="1.1" xmlns="http://www.w3.org/2000/svg" xmlns:xlink="http://www.w3.org/1999/xlink" width="4096.00" height="4096.00" viewBox="0 0 4096.0 4096.0">		<g id="document" transform="scale(13.653333333333334 13.653333333333334) translate(150.0 150.0)">			<g>				<g>					<g>						<path d="M-53.0924,-10.7287 L-72.7522,-22.3837 L-73.5972,-22.8847 L-74.4448,-22.3863 L-111.178,-0.786823 L-112.65,0.0788295 L-111.174,0.940611 L-74.441,22.3885 L-73.5972,22.8812 L-72.7559,22.386 L-53,10.7561 C-54.607,10.202 -56.0669,9.4378 -57.3216,8.50859 L-76.1089,19.5683 L-109.577,-0.1031 L-76.1089,-19.5725 L-57.4621,-8.40796 C-56.2001,-9.36678 -54.7232,-10.1562 -53.0924,-10.7287 Z " fill="#ffffff" fill-opacity="1.00" />						<path d="M-48.8394,10.7244 L-28.8625,22.3885 L-28.0187,22.8812 L-27.1775,22.386 L9.2567,0.93804 L10.7163,0.0788198 L9.26046,-0.784237 L-27.1737,-22.3837 L-28.0187,-22.8847 L-28.8663,-22.3863 L-48.7496,-10.6948 C-47.1606,-10.127 -45.7198,-9.35262 -44.4844,-8.41611 L-25.8497,-19.5734 L7.61816,-0.103994 L-25.8497,19.5674 L-44.6217,8.5167 C-45.8497,9.42454 -47.2736,10.1745 -48.8394,10.7244 Z " fill="#ffffff" fill-opacity="1.00" />						<path d="M-60.5412,-4.36524 L-66.0359,-0.134243 L-60.5455,4.34657 C-60.9406,2.96709 -61.1525,1.5079 -61.1525,-0.00174872 C-61.1525,-1.51694 -60.9391,-2.98129 -60.5412,-4.36524 Z " fill="#ffffff" fill-opacity="1.00" stroke-width="0.81" stroke="#ffffff" stroke-linecap="square" stroke-linejoin="miter" />						<path d="M-41.2331,4.31676 L-35.7757,-0.137084 L-41.24,-4.34464 C-40.8459,-2.96676 -40.6346,-1.50942 -40.6346,-0.00174889 C-40.6346,1.49703 -40.8434,2.94608 -41.2331,4.31676 Z " fill="#ffffff" fill-opacity="1.00" stroke-width="0.81" stroke="#ffffff" stroke-linecap="square" stroke-linejoin="miter" />						<path d="M-47.4434,-4.54304 C-49.9515,-6.37675 -53.4712,-5.83005 -55.3049,-3.32197 C-57.1386,-0.813883 -56.592,2.70583 -54.0839,4.53954 C-51.5758,6.37325 -48.0561,5.82656 -46.2224,3.31847 C-44.3887,0.810385 -44.9353,-2.70933 -47.4434,-4.54304 Z " fill="#ffffff" fill-opacity="1.00" />						<path d="M-27.8807,-0.00174878 C-27.8807,-12.6397 -38.1257,-22.8847 -50.7636,-22.8847 C-63.4016,-22.8847 -73.6466,-12.6397 -73.6466,-0.00174876 C-73.6466,12.6362 -63.4016,22.8812 -50.7636,22.8812 C-38.1257,22.8812 -27.8807,12.6362 -27.8807,-0.00174878 Z " fill="none" stroke-width="2.28" stroke="#ffffff" stroke-linecap="square" stroke-linejoin="miter" />					</g>					<path d="M37.534,23.3644 L29.9361,10.9203 C33.6735,9.77033 35.9734,6.9776 35.9734,3.07599 C35.9734,-3.57729 30.429,-5.71291 24.8435,-5.71291 L13.7547,-5.71291 L13.7547,23.3644 L20.6544,23.3644 L20.6544,11.8238 L23.0364,11.8238 L29.3201,23.3644 L37.534,23.3644 Z M29.0326,3.19919 C29.0326,6.15621 26.1988,6.73118 23.94,6.73118 L20.6133,6.73118 L20.6133,-0.0453059 L24.3507,-0.045306 C26.4452,-0.0453061 29.0326,0.488599 29.0326,3.19919 Z M47.9246,-3.61836 C47.9246,-5.67185 46.1997,-7.31463 44.0641,-7.31463 C41.8874,-7.31463 40.2036,-5.58971 40.2036,-3.61836 C40.2036,-1.60595 41.8874,0.0779025 44.0641,0.0779024 C46.1997,0.0779024 47.9246,-1.52381 47.9246,-3.61836 Z M47.4318,23.3644 L47.4318,2.91171 L40.6964,2.91171 L40.6964,23.3644 L47.4318,23.3644 Z M73.4699,2.91171 L66.2828,2.91171 L61.9705,16.1772 L61.8472,16.1772 L57.5349,2.91171 L50.1013,2.91171 L58.151,23.3644 L65.4203,23.3644 L73.4699,2.91171 Z M81.4785,10.7971 C81.6428,8.70252 83.532,6.89546 86.1194,6.89546 C88.7889,6.89546 90.1442,8.66145 90.1442,10.7971 L81.4785,10.7971 Z M96.3457,13.3845 C96.3457,6.40262 92.1156,2.25459 86.0783,2.25459 C79.8768,2.25459 75.0306,6.52583 75.0306,13.2202 C75.0306,20.1199 80.1232,24.0215 86.2837,24.0215 C90.4317,24.0215 93.6351,22.4608 95.5654,19.6681 L90.8835,16.7111 C89.9799,17.9432 88.5014,18.8467 86.3658,18.8467 C83.9427,18.8467 81.6839,17.245 81.4785,14.9862 L96.3047,14.9862 C96.3457,14.4933 96.3457,13.9184 96.3457,13.3845 Z M112.65,7.96327 L112.65,2.91171 L107.845,2.91171 L107.845,-2.46842 L101.233,-2.46842 L101.233,2.91171 L97.9885,2.91171 L97.9885,7.96327 L101.274,7.96327 L101.274,16.5879 C101.274,20.9413 103.081,23.8572 108.543,23.8572 C109.981,23.8572 111.541,23.5697 112.445,23.2412 L112.363,18.3128 C111.87,18.5182 111.049,18.6414 110.392,18.6414 C108.461,18.6414 107.845,17.6557 107.845,15.7665 L107.845,7.96327 L112.65,7.96327 Z " fill="#ffffff" fill-opacity="1.00" />				</g>				<path d="M26.0945,-13.3521 C26.0945,-15.4616 24.6428,-16.7771 22.8055,-17.0947 L22.8055,-17.1401 C24.3706,-17.6617 25.4367,-18.8412 25.4367,-20.6105 C25.4367,-23.854 22.4653,-24.7386 19.9702,-24.7386 L13.5738,-24.7386 L13.5738,-8.67953 L19.9702,-8.67953 C23.0324,-8.67953 26.0945,-9.85901 26.0945,-13.3521 Z M21.6941,-20.0888 C21.6941,-18.9546 20.8548,-18.3422 19.4032,-18.3422 L17.3164,-18.3422 L17.3164,-21.6538 L19.2217,-21.6538 C20.8548,-21.6538 21.6941,-21.1775 21.6941,-20.0888 Z M22.2158,-13.715 C22.2158,-12.1499 20.7187,-11.8097 19.4939,-11.8097 L17.3164,-11.8097 L17.3164,-15.4842 L19.4712,-15.4842 C21.127,-15.4842 22.2158,-15.0533 22.2158,-13.715 Z M39.099,-8.67953 L39.099,-19.9753 L35.3791,-19.9753 L35.3791,-13.8738 C35.3791,-12.5809 34.676,-11.4468 33.3831,-11.4468 C32.0221,-11.4468 31.7046,-12.5809 31.7046,-13.8511 L31.7046,-19.9753 L27.962,-19.9753 L27.962,-12.9892 C27.962,-10.7209 29.0281,-8.36198 32.0675,-8.36198 C33.6553,-8.36198 34.9482,-9.24659 35.4698,-10.2446 L35.5152,-10.2446 L35.5152,-8.67953 L39.099,-8.67953 Z M45.6618,-23.5818 C45.6618,-24.716 44.7091,-25.6233 43.5296,-25.6233 C42.3275,-25.6233 41.3975,-24.6706 41.3975,-23.5818 C41.3975,-22.4704 42.3275,-21.5404 43.5296,-21.5404 C44.7091,-21.5404 45.6618,-22.425 45.6618,-23.5818 Z M45.3896,-8.67953 L45.3896,-19.9753 L41.6697,-19.9753 L41.6697,-8.67953 L45.3896,-8.67953 Z M54.6516,-17.1854 L54.6516,-19.9753 L51.9977,-19.9753 L51.9977,-22.9467 L48.3459,-22.9467 L48.3459,-19.9753 L46.554,-19.9753 L46.554,-17.1854 L48.3686,-17.1854 L48.3686,-12.4221 C48.3686,-10.0178 49.3666,-8.40734 52.3833,-8.40734 C53.1772,-8.40734 54.0391,-8.56612 54.5382,-8.74758 L54.4928,-11.4695 C54.2206,-11.356 53.767,-11.288 53.404,-11.288 C52.338,-11.288 51.9977,-11.8324 51.9977,-12.8758 L51.9977,-17.1854 L54.6516,-17.1854 Z M59.8307,-8.67953 L59.8307,-25.8274 L56.0654,-25.8274 L56.0654,-8.67953 L59.8307,-8.67953 Z M85.9986,-19.9753 L82.1426,-19.9753 L80.1692,-12.8304 L80.1239,-12.8304 L78.0371,-19.9753 L74.2945,-19.9753 L72.2758,-12.8304 L72.2077,-12.8304 L70.257,-19.9753 L66.2423,-19.9753 L70.1436,-8.67953 L73.8862,-8.67953 L76.0637,-15.7111 L76.1091,-15.7111 L78.332,-8.67953 L82.0745,-8.67953 L85.9986,-19.9753 Z M91.1097,-23.5818 C91.1097,-24.716 90.157,-25.6233 88.9775,-25.6233 C87.7754,-25.6233 86.8454,-24.6706 86.8454,-23.5818 C86.8454,-22.4704 87.7754,-21.5404 88.9775,-21.5404 C90.157,-21.5404 91.1097,-22.425 91.1097,-23.5818 Z M90.8375,-8.67953 L90.8375,-19.9753 L87.1176,-19.9753 L87.1176,-8.67953 L90.8375,-8.67953 Z M100.099,-17.1854 L100.099,-19.9753 L97.4456,-19.9753 L97.4456,-22.9467 L93.7938,-22.9467 L93.7938,-19.9753 L92.0019,-19.9753 L92.0019,-17.1854 L93.8164,-17.1854 L93.8164,-12.4221 C93.8164,-10.0178 94.8145,-8.40734 97.8312,-8.40734 C98.6251,-8.40734 99.487,-8.56612 99.986,-8.74758 L99.9407,-11.4695 C99.6685,-11.356 99.2148,-11.288 98.8519,-11.288 C97.7859,-11.288 97.4456,-11.8324 97.4456,-12.8758 L97.4456,-17.1854 L100.099,-17.1854 Z M112.65,-8.67953 L112.65,-15.6657 C112.65,-17.9339 111.584,-20.2929 108.522,-20.2929 C106.957,-20.2929 105.778,-19.4537 105.279,-18.5464 L105.233,-18.5464 L105.233,-25.8274 L101.513,-25.8274 L101.513,-8.67953 L105.233,-8.67953 L105.233,-14.7811 C105.233,-16.1193 105.959,-17.1854 107.252,-17.1854 C108.59,-17.1854 108.908,-16.074 108.908,-14.8038 L108.908,-8.67953 L112.65,-8.67953 Z " fill="#ffffff" fill-opacity="1.00" />			</g>		</g>	</svg>