<svg width="3300" height="1700" viewBox="0 0 3300 1700" fill="none" xmlns="http://www.w3.org/2000/svg">
<path d="M923.112 701.518L654.69 542.388L643.153 535.548L631.581 542.352L130.05 837.257L109.952 849.076L130.104 860.843L631.632 1153.68L643.153 1160.4L654.64 1153.64L924.374 994.857C902.433 987.291 882.5 976.858 865.369 964.171L608.86 1115.17L151.909 846.592L608.86 580.77L863.451 733.203C880.681 720.112 900.846 709.334 923.112 701.518Z" fill="#999999"/>
<path d="M981.18 994.424L1253.93 1153.68L1265.45 1160.4L1276.94 1153.64L1774.39 860.807L1794.31 849.076L1774.44 837.293L1276.99 542.388L1265.45 535.548L1253.88 542.352L982.406 701.98C1004.1 709.733 1023.77 720.306 1040.64 733.092L1295.07 580.758L1752.01 846.58L1295.07 1115.16L1038.77 964.281C1022 976.676 1002.56 986.916 981.18 994.424Z" fill="#999999"/>
<path d="M821.412 788.4L746.391 846.167L821.353 907.345C815.958 888.511 813.065 868.588 813.065 847.976C813.065 827.289 815.979 807.295 821.412 788.4Z" fill="#999999" stroke="black" stroke-width="11.0592" stroke-linecap="square"/>
<path d="M1085.03 906.938L1159.54 846.128L1084.94 788.681C1090.32 807.494 1093.2 827.391 1093.2 847.976C1093.2 868.439 1090.35 888.224 1085.03 906.938Z" fill="#999999" stroke="black" stroke-width="11.0592" stroke-linecap="square"/>
<path d="M1000.24 785.973C965.995 760.936 917.94 768.401 892.904 802.644C867.867 836.888 875.33 884.944 909.574 909.98C943.818 935.016 991.874 927.552 1016.91 893.308C1041.95 859.065 1034.48 811.009 1000.24 785.973Z" fill="#999999"/>
<path d="M1267.34 847.976C1267.34 675.426 1127.46 535.548 954.908 535.548C782.357 535.548 642.479 675.426 642.479 847.976C642.479 1020.53 782.357 1160.4 954.908 1160.4C1127.46 1160.4 1267.34 1020.53 1267.34 847.976Z" stroke="black" stroke-width="31.1296" stroke-linecap="square"/>
<path d="M2160.46 1167L2056.73 997.099C2107.76 981.398 2139.16 943.268 2139.16 889.998C2139.16 799.158 2063.46 770 1987.2 770H1835.8V1167H1930V1009.43H1962.52L2048.32 1167H2160.46ZM2044.39 891.68C2044.39 932.053 2005.7 939.903 1974.86 939.903H1929.44V847.382L1980.47 847.382C2009.07 847.382 2044.39 854.671 2044.39 891.68ZM2302.33 798.598C2302.33 770.561 2278.78 748.131 2249.62 748.131C2219.9 748.131 2196.91 771.682 2196.91 798.598C2196.91 826.074 2219.9 849.064 2249.62 849.064C2278.78 849.064 2302.33 827.195 2302.33 798.598ZM2295.6 1167V887.755H2203.64V1167H2295.6ZM2651.11 887.755H2552.98L2494.1 1068.87H2492.42L2433.54 887.755H2332.05L2441.96 1167H2541.21L2651.11 887.755ZM2760.45 995.417C2762.7 966.819 2788.49 942.146 2823.82 942.146C2860.26 942.146 2878.77 966.258 2878.77 995.417H2760.45ZM2963.44 1030.74C2963.44 935.417 2905.69 878.783 2823.26 878.783C2738.59 878.783 2672.42 937.1 2672.42 1028.5C2672.42 1122.7 2741.95 1175.97 2826.06 1175.97C2882.69 1175.97 2926.43 1154.67 2952.79 1116.54L2888.86 1076.16C2876.53 1092.98 2856.34 1105.32 2827.18 1105.32C2794.1 1105.32 2763.26 1083.45 2760.45 1052.61H2962.88C2963.44 1045.88 2963.44 1038.03 2963.44 1030.74ZM3186.05 956.725V887.755H3120.44V814.298H3030.17V887.755H2985.87V956.725H3030.73V1074.48C3030.73 1133.92 3055.4 1173.73 3129.97 1173.73C3149.61 1173.73 3170.91 1169.81 3183.25 1165.32L3182.13 1098.03C3175.4 1100.84 3164.19 1102.52 3155.22 1102.52C3128.85 1102.52 3120.44 1089.06 3120.44 1063.27V956.725H3186.05Z" fill="#999999"/>
<path d="M1921.09 631.091H1863.23L1862.92 595.603H1909.83C1918.26 595.603 1925 594.677 1930.04 592.825C1935.08 590.871 1938.73 588.042 1941 584.339C1943.36 580.636 1944.55 576.007 1944.55 570.452C1944.55 564.075 1943.36 558.931 1941 555.022C1938.63 551.114 1934.88 548.285 1929.73 546.536C1924.69 544.685 1918.16 543.759 1910.14 543.759H1883.6V726.601H1829.44V501.944H1910.14C1924.02 501.944 1936.42 503.23 1947.32 505.802C1958.23 508.271 1967.48 512.076 1975.1 517.22C1982.81 522.363 1988.67 528.843 1992.69 536.661C1996.7 544.376 1998.7 553.479 1998.7 563.972C1998.7 573.127 1996.75 581.716 1992.84 589.739C1988.93 597.763 1982.4 604.295 1973.25 609.335C1964.19 614.272 1951.8 616.844 1936.06 617.05L1921.09 631.091ZM1918.93 726.601H1850.12L1868.63 684.94H1918.93C1926.34 684.94 1932.25 683.809 1936.68 681.546C1941.2 679.18 1944.44 676.094 1946.4 672.288C1948.45 668.379 1949.48 664.059 1949.48 659.327C1949.48 653.567 1948.51 648.578 1946.55 644.36C1944.7 640.143 1941.72 636.903 1937.6 634.64C1933.49 632.274 1927.98 631.091 1921.09 631.091H1875.58L1875.88 595.603H1930.35L1943 609.798C1958.02 609.181 1969.9 611.289 1978.65 616.124C1987.49 620.959 1993.82 627.336 1997.62 635.257C2001.43 643.177 2003.33 651.458 2003.33 660.099C2003.33 674.808 2000.14 687.101 1993.77 696.976C1987.49 706.851 1978.08 714.257 1965.53 719.194C1952.98 724.132 1937.45 726.601 1918.93 726.601Z" fill="#999999"/>
<path d="M2133.47 686.021V559.651H2185.62V726.601H2136.86L2133.47 686.021ZM2138.41 652.075L2151.98 651.767C2151.98 662.979 2150.65 673.368 2147.97 682.935C2145.3 692.398 2141.34 700.627 2136.09 707.622C2130.95 714.617 2124.57 720.069 2116.96 723.978C2109.45 727.784 2100.76 729.687 2090.88 729.687C2082.65 729.687 2075.09 728.555 2068.2 726.292C2061.41 723.926 2055.55 720.274 2050.61 715.337C2045.67 710.297 2041.82 703.868 2039.04 696.05C2036.36 688.129 2035.03 678.666 2035.03 667.659V559.651H2087.02V667.968C2087.02 671.671 2087.49 674.86 2088.41 677.534C2089.34 680.209 2090.68 682.472 2092.42 684.323C2094.17 686.072 2096.33 687.409 2098.91 688.335C2101.58 689.158 2104.61 689.569 2108.01 689.569C2115.83 689.569 2121.95 687.924 2126.37 684.632C2130.79 681.34 2133.88 676.866 2135.63 671.208C2137.48 665.55 2138.41 659.173 2138.41 652.075Z" fill="#999999"/>
<path d="M2274.25 559.651V726.601H2222.1V559.651H2274.25ZM2219.01 516.603C2219.01 509.196 2221.69 503.127 2227.03 498.396C2232.38 493.664 2239.33 491.298 2247.86 491.298C2256.4 491.298 2263.35 493.664 2268.69 498.396C2274.04 503.127 2276.72 509.196 2276.72 516.603C2276.72 524.009 2274.04 530.078 2268.69 534.81C2263.35 539.541 2256.4 541.907 2247.86 541.907C2239.33 541.907 2232.38 539.541 2227.03 534.81C2221.69 530.078 2219.01 524.009 2219.01 516.603Z" fill="#999999"/>
<path d="M2366.27 489.601V726.601H2314.12V489.601H2366.27Z" fill="#999999"/>
<path d="M2491.32 559.651V595.757H2390.71V559.651H2491.32ZM2411.85 518.146H2463.85V672.134C2463.85 676.557 2464.36 680.003 2465.39 682.472C2466.42 684.838 2468.17 686.535 2470.64 687.563C2473.21 688.489 2476.61 688.952 2480.82 688.952C2483.81 688.952 2486.28 688.901 2488.23 688.798C2490.18 688.592 2492.04 688.335 2493.78 688.026V725.212C2489.36 726.652 2484.73 727.732 2479.9 728.452C2475.06 729.275 2469.92 729.687 2464.47 729.687C2453.36 729.687 2443.84 727.938 2435.92 724.44C2428.11 720.943 2422.14 715.44 2418.02 707.931C2413.91 700.422 2411.85 690.649 2411.85 678.614V518.146Z" fill="#999999"/>
<path d="M2651.45 676.917L2682.31 559.651H2714.86L2703.29 618.438L2672.74 726.601H2646.66L2651.45 676.917ZM2639.26 559.651L2658.39 675.991L2660.55 726.601H2628.92L2589.42 559.651H2639.26ZM2742.33 673.522L2761.61 559.651H2811.45L2772.26 726.601H2740.63L2742.33 673.522ZM2718.57 559.651L2749.73 676.608L2754.52 726.601H2728.13L2698.2 618.747L2687.09 559.651H2718.57Z" fill="#999999"/>
<path d="M2890.21 559.651V726.601H2838.05V559.651H2890.21ZM2834.97 516.603C2834.97 509.196 2837.64 503.127 2842.99 498.396C2848.34 493.664 2855.28 491.298 2863.82 491.298C2872.36 491.298 2879.3 493.664 2884.65 498.396C2890 503.127 2892.67 509.196 2892.67 516.603C2892.67 524.009 2890 530.078 2884.65 534.81C2879.3 539.541 2872.36 541.907 2863.82 541.907C2855.28 541.907 2848.34 539.541 2842.99 534.81C2837.64 530.078 2834.97 524.009 2834.97 516.603Z" fill="#999999"/>
<path d="M3015.25 559.651V595.757H2914.65V559.651H3015.25ZM2935.79 518.146H2987.78V672.134C2987.78 676.557 2988.3 680.003 2989.33 682.472C2990.36 684.838 2992.1 686.535 2994.57 687.563C2997.14 688.489 3000.54 688.952 3004.76 688.952C3007.74 688.952 3010.21 688.901 3012.16 688.798C3014.12 688.592 3015.97 688.335 3017.72 688.026V725.212C3013.29 726.652 3008.67 727.732 3003.83 728.452C2999 729.275 2993.85 729.687 2988.4 729.687C2977.29 729.687 2967.78 727.938 2959.86 724.44C2952.04 720.943 2946.07 715.44 2941.96 707.931C2937.84 700.422 2935.79 690.649 2935.79 678.614V518.146Z" fill="#999999"/>
<path d="M3091.84 489.601V726.601H3039.84V489.601H3091.84ZM3085.67 637.417L3073.48 637.726C3073.48 625.999 3074.92 615.198 3077.8 605.323C3080.68 595.448 3084.8 586.859 3090.15 579.556C3095.49 572.252 3101.92 566.595 3109.43 562.583C3116.94 558.571 3125.27 556.565 3134.43 556.565C3142.66 556.565 3150.17 557.748 3156.96 560.114C3163.85 562.48 3169.76 566.286 3174.7 571.532C3179.74 576.778 3183.6 583.619 3186.27 592.054C3189.05 600.489 3190.44 610.775 3190.44 622.913V726.601H3138.13V622.604C3138.13 615.815 3137.15 610.569 3135.2 606.866C3133.35 603.06 3130.67 600.437 3127.18 598.997C3123.68 597.454 3119.41 596.683 3114.37 596.683C3108.3 596.683 3103.36 597.711 3099.56 599.769C3095.75 601.826 3092.82 604.706 3090.76 608.409C3088.81 612.009 3087.47 616.278 3086.75 621.216C3086.03 626.153 3085.67 631.554 3085.67 637.417Z" fill="#999999"/>
</svg>
