<?xml version="1.0" encoding="UTF-8"?>
<svg width="170px" height="53px" viewBox="0 0 170 53" version="1.1" xmlns="http://www.w3.org/2000/svg" xmlns:xlink="http://www.w3.org/1999/xlink">
    <!-- Generator: Sketch 53 (72520) - https://sketchapp.com -->
    <title>Group</title>
    <desc>Created with Sketch.</desc>
    <g id="newsite" stroke="none" stroke-width="1" fill="none" fill-rule="evenodd">
        <g id="Desktop" transform="translate(-112.000000, -40.000000)" fill="#FCA060">
            <g id="Group" transform="translate(112.000000, 40.000000)">
                <path d="M23.9074378,27.2669797 L34.1423213,45.8616536 L36.4861878,45.8616536 L25.079371,25.1574999 L35.4705123,6.25031054 L33.1266458,6.25031054 L23.9074378,23.0480201 L14.6882298,6.25031054 L12.3443633,6.25031054 L22.7355046,25.1574999 L11.3286878,45.8616536 L13.6725543,45.8616536 L23.9074378,27.2669797 Z M14.8444875,25.1574999 L1.01567546,0 L19.2197049,0 L23.9074378,8.51604811 L28.5951707,0 L46.877329,0 L33.048517,25.1574999 L47.8930045,52.1119641 L29.688975,52.1119641 L23.9074378,41.7208228 L18.2040294,52.1119641 L0,52.1119641 L14.8444875,25.1574999 Z" id="X"></path>
                <path d="M57.8930045,37.6217446 L57.8930045,14.4554874 L64.3184281,14.4554874 C66.4949789,14.4554874 68.434164,14.6986092 70.1360414,15.1848599 C71.8379189,15.6711106 73.2734947,16.4004757 74.4428119,17.3729771 C75.6121291,18.3454785 76.5035753,19.5552984 77.1171774,21.0024732 C77.7307795,22.4496479 78.0375759,24.1225568 78.0375759,26.02125 C78.0375759,27.9199433 77.7307795,29.5928522 77.1171774,31.0400269 C76.5035753,32.4872016 75.6121291,33.6970215 74.4428119,34.6695229 C73.2734947,35.6420244 71.8379189,36.3771781 70.1360414,36.8750062 C68.434164,37.3728343 66.4949789,37.6217446 64.3184281,37.6217446 L57.8930045,37.6217446 Z M65.2909247,31.0226609 C67.0275344,31.0226609 68.3704924,30.6116694 69.319839,29.7896742 C70.2691856,28.9676789 70.7438518,27.7115501 70.7438518,26.02125 C70.7438518,24.3309499 70.2691856,23.0806097 69.319839,22.2701919 C68.3704924,21.459774 67.0275344,21.0545712 65.2909247,21.0545712 L65.2909247,31.0226609 Z M79.947837,14.4554874 L93.5975208,14.4554874 L93.5975208,20.5335909 L87.3457572,20.5335909 L87.3457572,23.1037604 L93.4933247,23.1037604 L93.4933247,28.8692756 L87.3457572,28.8692756 L87.3457572,31.5436412 L93.8406449,31.5436412 L93.8406449,37.6217446 L79.947837,37.6217446 L79.947837,14.4554874 Z M100.613389,25.6391978 L94.4658213,14.4554874 L102.558382,14.4554874 L104.642303,18.2412776 L106.726224,14.4554874 L114.853517,14.4554874 L108.705949,25.6391978 L115.305033,37.6217446 L107.212473,37.6217446 L104.642303,33.002386 L102.106866,37.6217446 L94.014305,37.6217446 L100.613389,25.6391978 Z M115.652353,31.8214973 L123.085006,31.8214973 L123.085006,37.6217446 L115.652353,37.6217446 L115.652353,31.8214973 Z M132.219527,14.4554874 L137.77665,14.4554874 L146.563851,37.6217446 L139.270127,37.6217446 L138.506022,35.5378234 L131.490154,35.5378234 L130.72605,37.6217446 L123.432326,37.6217446 L132.219527,14.4554874 Z M136.561029,30.4322165 L134.998088,26.3685702 L133.435147,30.4322165 L136.561029,30.4322165 Z M161.84594,22.3396559 C161.429153,21.9691792 160.908178,21.6855372 160.282999,21.4887214 C159.657819,21.2919057 159.044226,21.1934993 158.442202,21.1934993 C157.770713,21.1934993 157.15712,21.3150601 156.601405,21.5581855 C156.04569,21.8013108 155.565235,22.1370503 155.160026,22.5654141 C154.754817,22.9937778 154.436443,23.5089643 154.204895,24.1109889 C153.973347,24.7130136 153.857575,25.3613382 153.857575,26.055982 C153.857575,26.7506259 153.984925,27.3989505 154.239627,28.0009752 C154.49433,28.6029998 154.841647,29.1181863 155.281588,29.54655 C155.721529,29.9749138 156.236715,30.3106533 156.827163,30.5537786 C157.41761,30.796904 158.048569,30.9184648 158.720058,30.9184648 C159.507321,30.9184648 160.225109,30.7505951 160.873443,30.4148505 C161.521777,30.079106 162.077484,29.6218056 162.54058,29.0429357 L160.456659,29.0429357 L160.456659,24.180453 L169.382788,24.180453 L169.382788,31.8909614 C168.850228,32.840308 168.21348,33.7028112 167.472527,34.4784968 C166.731573,35.2541825 165.903802,35.9198729 164.989187,36.475588 C164.074573,37.0313031 163.08472,37.4596604 162.0196,37.7606727 C160.954479,38.061685 159.854643,38.212189 158.720058,38.212189 C157.052913,38.212189 155.47841,37.8996039 153.996503,37.2744244 C152.514596,36.6492449 151.223736,35.7925304 150.123883,34.704255 C149.02403,33.6159796 148.155738,32.3309077 147.518981,30.8490008 C146.882225,29.3670939 146.563851,27.7694369 146.563851,26.055982 C146.563851,24.3888368 146.864859,22.8143343 147.466883,21.3324274 C148.068908,19.8505204 148.89668,18.5596599 149.950223,17.4598072 C151.003766,16.3599544 152.254106,15.4916626 153.701281,14.8549057 C155.148456,14.2181488 156.705592,13.8997751 158.372738,13.8997751 C159.669406,13.8997751 160.792397,14.0271246 161.741744,14.2818274 C162.69109,14.5365301 163.489919,14.8259607 164.138253,15.1501278 C164.902361,15.5206046 165.539108,15.9258074 166.048514,16.3657485 L161.84594,22.3396559 Z" id="Dex.Ag"></path>
            </g>
        </g>
    </g>
</svg>