<svg xmlns="http://www.w3.org/2000/svg" width="31" height="31" viewBox="0 0 31 31">
    <g fill="none" fill-rule="evenodd">
        <g>
            <g transform="translate(-373 -499) translate(373 499)">
                <rect width="31" height="31" fill="#5C7CED" rx="6"/>
                <g fill="#FFF">
                    <path d="M7.349 25L0 13.889 7.349 18.651 14.697 13.889z" opacity=".765" transform="translate(8 3)"/>
                    <path d="M7.349 25L7.349 18.651 14.697 13.889z" opacity=".767" transform="translate(8 3)"/>
                    <path d="M7.349 0L14.697 12.698 7.349 17.46 0 12.698z" opacity=".765" transform="translate(8 3)"/>
                    <path d="M7.349 0L14.697 12.698 7.349 17.46 7.349 9.127z" opacity=".765" transform="translate(8 3)"/>
                    <path d="M7.349 0L14.697 12.698 7.349 9.127z" opacity=".074" transform="translate(8 3)"/>
                    <path d="M14.697 12.698L7.349 17.46 0 12.698 7.349 9.127z" opacity=".765" transform="translate(8 3)"/>
                </g>
            </g>
        </g>
    </g>
</svg>