<svg xmlns="http://www.w3.org/2000/svg" xmlns:xlink="http://www.w3.org/1999/xlink" width="34" height="35" viewBox="0 0 34 35">
    <defs>
        <rect id="muq8178eha" width="13" height="13" x="0" y=".5" rx="6.5"/>
    </defs>
    <g fill="none" fill-rule="evenodd">
        <g>
            <g>
                <g>
                    <g transform="translate(-373 -548) translate(373 499) translate(0 49)">
                        <rect width="31" height="31" fill="#1DA1F2" rx="6"/>
                        <path fill="#FFF" fill-rule="nonzero" d="M13.346 23c6.415 0 9.924-5.387 9.924-10.058 0-.153 0-.305-.01-.457.682-.5 1.272-1.12 1.74-1.83-.637.286-1.312.474-2.003.557.728-.442 1.273-1.137 1.533-1.956-.685.412-1.434.702-2.215.858-1.08-1.165-2.799-1.45-4.19-.695-1.392.754-2.11 2.361-1.754 3.92-2.804-.143-5.417-1.486-7.188-3.694-.926 1.615-.453 3.682 1.08 4.719-.555-.017-1.098-.169-1.583-.443v.045c0 1.683 1.17 3.132 2.798 3.465-.513.142-1.052.163-1.575.061.457 1.44 1.767 2.427 3.259 2.455-1.235.984-2.76 1.518-4.332 1.516-.277 0-.554-.017-.83-.05 1.595 1.037 3.45 1.587 5.346 1.584"/>
                    </g>
                    <g>
                        <g transform="translate(-373 -548) translate(373 499) translate(0 49) translate(20 20.5)">
                            <use fill="#0D2A8A" xlink:href="#muq8178eha"/>
                            <use fill="#3D46C3" stroke="#FFF" xlink:href="#muq8178eha"/>
                        </g>
                        <path fill="#FFF" fill-rule="nonzero" d="M6.5 3l-.74.422-2.02 1.156L3 5v4l.74.422 2.038 1.156.74.422.741-.422 2-1.156L10 9V5l-.74-.422-2.02-1.156L6.5 3zM4.481 8.156V5.844L6.5 4.688l2.019 1.156v2.312L6.5 9.312 4.481 8.156z" transform="translate(-373 -548) translate(373 499) translate(0 49) translate(20 20.5)"/>
                    </g>
                </g>
            </g>
        </g>
    </g>
</svg>