<?xml version="1.0" encoding="UTF-8" standalone="no"?>
<!-- Generator: Adobe Illustrator 19.2.1, SVG Export Plug-In . SVG Version: 6.00 Build 0)  -->

<svg
   xmlns:dc="http://purl.org/dc/elements/1.1/"
   xmlns:cc="http://creativecommons.org/ns#"
   xmlns:rdf="http://www.w3.org/1999/02/22-rdf-syntax-ns#"
   xmlns:svg="http://www.w3.org/2000/svg"
   xmlns="http://www.w3.org/2000/svg"
   xmlns:sodipodi="http://sodipodi.sourceforge.net/DTD/sodipodi-0.dtd"
   xmlns:inkscape="http://www.inkscape.org/namespaces/inkscape"
   version="1.1"
   id="layer"
   x="0px"
   y="0px"
   viewBox="0 0 652 300"
   style="enable-background:new 0 0 652 300;"
   xml:space="preserve"
   sodipodi:docname="uniswap.svg"
   inkscape:version="0.92.4 (fd57863, 2020-04-02)"><metadata
   id="metadata16"><rdf:RDF><cc:Work
       rdf:about=""><dc:format>image/svg+xml</dc:format><dc:type
         rdf:resource="http://purl.org/dc/dcmitype/StillImage" /></cc:Work></rdf:RDF></metadata><defs
   id="defs14" /><sodipodi:namedview
   pagecolor="#ffffff"
   bordercolor="#666666"
   borderopacity="1"
   objecttolerance="10"
   gridtolerance="10"
   guidetolerance="10"
   inkscape:pageopacity="0"
   inkscape:pageshadow="2"
   inkscape:window-width="1855"
   inkscape:window-height="1056"
   id="namedview12"
   showgrid="false"
   inkscape:zoom="0.4493865"
   inkscape:cx="-65.645051"
   inkscape:cy="150"
   inkscape:window-x="2113"
   inkscape:window-y="24"
   inkscape:window-maximized="1"
   inkscape:current-layer="layer" />
<style
   type="text/css"
   id="style2">
	.st0{fill:#DC6BE5;}
	.st1{fill:#262223;}
</style>
<g
   id="New"
   transform="translate(6.6757679,-178.02048)">
	<g
   id="Home---Full"
   transform="translate(-863,-5670)">
		<g
   id="uniswap"
   transform="translate(863,5670)">
			<g
   id="uniswap-logo">
				<path
   id="Path"
   class="st0"
   d="m 127.3,290.8 c -2.3,2.2 -6,2.1 -8.2,-0.2 l -6,-6.2 c -8.8,-9.2 -23.4,-9.5 -32.7,-0.8 l -40.1,37.9 38,0.9 c 3.2,0.1 5.7,2.7 5.6,5.9 -0.1,3.2 -2.7,5.7 -5.9,5.6 l -52,-1.3 c -3.2,-0.1 -5.7,-2.7 -5.6,-5.9 l 1.3,-51.5 c 0.1,-3.2 2.7,-5.7 5.9,-5.6 3.2,0.1 5.7,2.7 5.6,5.9 l -0.9,37.7 40.1,-37.9 c 13.9,-13.1 35.8,-12.5 49,1.2 l 6,6.2 c 2.3,2.3 2.2,5.9 -0.1,8.1 z"
   inkscape:connector-curvature="0"
   style="fill:#dc6be5" />
				<path
   id="Path_1_"
   class="st0"
   d="m 38.5,344 c 2.3,-2.2 6,-2.1 8.2,0.2 l 6,6.2 c 8.8,9.2 23.4,9.5 32.7,0.8 l 40.1,-37.9 -38,-0.9 c -3.2,-0.1 -5.7,-2.7 -5.6,-5.9 0.1,-3.2 2.7,-5.7 5.9,-5.6 l 52,1.3 c 3.2,0.1 5.7,2.7 5.6,5.9 l -1.3,51.5 c -0.1,3.2 -2.7,5.7 -5.9,5.6 -3.2,-0.1 -5.7,-2.7 -5.6,-5.9 l 0.9,-37.7 -40.1,37.9 c -13.9,13.1 -35.8,12.5 -49,-1.2 l -6,-6.2 c -2.3,-2.3 -2.2,-5.9 0.1,-8.1 z"
   inkscape:connector-curvature="0"
   style="fill:#dc6be5" />
			</g>
			<path
   id="Uniswap"
   class="st1"
   d="m 259.4,284.9 h 11.2 v 48.8 c 0,5.5 -1.3,10.3 -4,14.2 -2.6,3.9 -6.2,6.9 -10.6,8.9 -4.5,2.1 -9.4,3.1 -14.9,3.1 -5.5,0 -10.4,-1 -14.9,-3.1 -4.5,-2.1 -8,-5 -10.6,-8.9 -2.6,-3.9 -4,-8.6 -4,-14.2 v -48.8 h 11.2 v 48.6 c 0,3.5 0.8,6.4 2.5,8.8 1.7,2.4 3.9,4.2 6.7,5.5 2.8,1.3 5.8,1.9 9.1,1.9 3.3,0 6.4,-0.6 9.2,-1.9 2.8,-1.2 5,-3.1 6.7,-5.5 1.7,-2.4 2.5,-5.3 2.5,-8.8 v -48.6 z m 37.5,40.9 v 32.8 h -10.8 v -55.3 h 10.4 v 9 h 0.7 c 1.3,-2.9 3.3,-5.3 6,-7.1 2.7,-1.8 6.2,-2.7 10.4,-2.7 5.7,0 10.3,1.8 13.8,5.3 3.5,3.5 5.2,8.7 5.2,15.6 v 35.2 h -10.8 v -33.9 c 0,-4 -1.1,-7.1 -3.2,-9.4 -2.1,-2.3 -5,-3.4 -8.7,-3.4 -3.8,0 -6.9,1.2 -9.3,3.6 -2.5,2.5 -3.7,5.9 -3.7,10.3 z m 50.2,32.8 v -55.3 h 10.8 v 55.3 z m 5.5,-63.5 c -1.9,0 -3.5,-0.6 -4.8,-1.9 -1.4,-1.2 -2,-2.8 -2,-4.5 0,-1.8 0.7,-3.3 2,-4.6 1.4,-1.3 3,-1.9 4.8,-1.9 1.8,0 3.5,0.6 4.8,1.9 1.4,1.3 2,2.8 2,4.6 0,1.8 -0.7,3.3 -2,4.5 -1.4,1.3 -3,1.9 -4.8,1.9 z m 61.6,21.7 -9.8,1.7 c -0.6,-1.8 -1.8,-3.5 -3.5,-5.1 -1.7,-1.5 -4.2,-2.3 -7.6,-2.3 -3.1,0 -5.6,0.7 -7.7,2 -2.1,1.4 -3.1,3.1 -3.1,5.2 0,1.9 0.7,3.4 2,4.5 1.4,1.1 3.6,2 6.7,2.8 l 8.8,2 c 10.2,2.3 15.2,7.3 15.2,15 0,3.3 -1,6.3 -2.9,8.9 -1.9,2.6 -4.6,4.6 -8,6 -3.4,1.4 -7.4,2.2 -11.9,2.2 -6.3,0 -11.4,-1.3 -15.3,-4 -3.9,-2.7 -6.3,-6.4 -7.3,-11.3 l 10.5,-1.6 c 1.3,5.5 5.3,8.2 12,8.2 3.6,0 6.4,-0.7 8.5,-2.2 2.1,-1.5 3.2,-3.3 3.2,-5.4 0,-3.5 -2.6,-5.9 -7.9,-7 l -9.4,-2.1 c -5.2,-1.2 -9.1,-3 -11.5,-5.6 -2.5,-2.6 -3.7,-5.8 -3.7,-9.8 0,-3.3 0.9,-6.1 2.8,-8.6 1.8,-2.5 4.4,-4.4 7.6,-5.7 3.2,-1.4 6.9,-2.1 11.2,-2.1 6,0 10.8,1.3 14.2,3.9 3.6,2.7 5.8,6.1 6.9,10.4 z m 25.1,41.8 -16.4,-55.3 h 11.2 L 445,344 h 0.5 l 11,-40.6 h 11.2 l 10.9,40.4 h 0.5 l 10.8,-40.4 h 11.2 l -16.4,55.3 h -11.1 l -11.3,-39.9 h -0.8 l -11.3,39.9 h -10.9 z m 88.4,1.3 c -3.5,0 -6.7,-0.6 -9.6,-1.9 -2.8,-1.3 -5.1,-3.2 -6.8,-5.7 -1.7,-2.5 -2.5,-5.6 -2.5,-9.2 0,-3.1 0.6,-5.7 1.8,-7.7 1.2,-2 2.9,-3.6 4.9,-4.8 2,-1.2 4.3,-2.1 6.9,-2.6 2.5,-0.6 5.1,-1 7.8,-1.4 0.5,0 0.9,-0.1 1.4,-0.1 0.4,0 0.9,-0.1 1.3,-0.1 4,-0.5 6.9,-0.9 8.7,-1.4 1.8,-0.5 2.7,-1.6 2.6,-3.4 0,-3.2 -0.9,-5.6 -2.6,-7.4 -1.7,-1.8 -4.4,-2.6 -7.9,-2.6 -3.7,0 -6.5,0.8 -8.6,2.4 -2.1,1.6 -3.5,3.4 -4.3,5.3 L 510.6,317 c 1.8,-5 4.8,-8.7 9.1,-10.8 4.2,-2.2 8.9,-3.3 14,-3.3 2.2,0 4.5,0.3 7,0.8 2.5,0.5 4.8,1.5 7.1,2.8 2.2,1.4 4,3.3 5.4,5.9 1.4,2.5 2.1,5.8 2.1,9.8 v 36.7 h -10.6 v -7.6 h -0.4 c -1,2.1 -2.9,4 -5.5,5.9 -2.8,1.7 -6.5,2.7 -11.1,2.7 z m 2.4,-8.7 c 3,0 5.6,-0.6 7.7,-1.8 2.1,-1.2 3.8,-2.7 4.9,-4.6 1.1,-1.9 1.7,-4 1.7,-6.1 v -7.1 c -0.5,0.5 -1.7,0.9 -3.4,1.3 -1.7,0.4 -3.5,0.7 -5.4,1 -1.9,0.3 -3.5,0.5 -4.6,0.6 -3.1,0.4 -5.8,1.2 -8.1,2.5 -2.2,1.2 -3.4,3.3 -3.4,6.2 0,2.7 1,4.7 3,6 2,1.3 4.5,2 7.6,2 z m 67.1,8.5 c -3.4,0 -6.2,-0.6 -8.3,-1.7 -2.1,-1.1 -3.8,-2.4 -5,-4 -1.2,-1.5 -2.1,-2.9 -2.8,-4 h -0.7 v 29.3 h -10.8 v -76 h 10.6 v 9 h 0.9 c 0.7,-1.1 1.6,-2.5 2.7,-4 1.1,-1.5 2.8,-2.9 4.9,-4 2.1,-1.1 4.9,-1.7 8.3,-1.7 4.5,0 8.5,1.1 12,3.4 3.5,2.3 6.3,5.5 8.3,9.8 2,4.2 3,9.4 3,15.3 0,5.9 -1,11.1 -3,15.4 -2,4.3 -4.8,7.5 -8.3,9.8 -3.5,2.3 -7.3,3.4 -11.8,3.4 z m -2.4,-9.2 c 3.2,0 6,-0.9 8.1,-2.6 2.1,-1.7 3.8,-4.1 5,-7 1.1,-3 1.7,-6.3 1.7,-10 0,-3.7 -0.6,-7 -1.7,-9.8 -1.1,-2.9 -2.7,-5.2 -4.9,-6.9 -2.2,-1.7 -4.9,-2.5 -8.2,-2.5 -4.7,0 -8.3,1.8 -10.8,5.3 -2.5,3.5 -3.7,8.2 -3.7,13.9 0,5.8 1.3,10.5 3.8,14.1 2.4,3.7 6,5.5 10.7,5.5 z"
   inkscape:connector-curvature="0"
   style="fill:#262223" />
		</g>
	</g>
</g>
</svg>