<?xml version="1.0" encoding="utf-8"?>
<!-- Generator: Adobe Illustrator 19.2.1, SVG Export Plug-In . SVG Version: 6.00 Build 0)  -->
<svg version="1.1" id="layer" xmlns="http://www.w3.org/2000/svg" xmlns:xlink="http://www.w3.org/1999/xlink" x="0px" y="0px"
	 viewBox="0 0 652 652" style="enable-background:new 0 0 652 652;" xml:space="preserve">
<style type="text/css">
	.st0{fill:#DC6BE5;}
	.st1{fill:#262223;}
</style>
<g id="New">
	<g id="Home---Full" transform="translate(-863.000000, -5670.000000)">
		<g id="uniswap" transform="translate(863.000000, 5670.000000)">
			<g id="uniswap-logo">
				<path id="Path" class="st0" d="M127.3,290.8c-2.3,2.2-6,2.1-8.2-0.2l-6-6.2c-8.8-9.2-23.4-9.5-32.7-0.8l-40.1,37.9l38,0.9
					c3.2,0.1,5.7,2.7,5.6,5.9c-0.1,3.2-2.7,5.7-5.9,5.6l-52-1.3c-3.2-0.1-5.7-2.7-5.6-5.9l1.3-51.5c0.1-3.2,2.7-5.7,5.9-5.6
					c3.2,0.1,5.7,2.7,5.6,5.9l-0.9,37.7l40.1-37.9c13.9-13.1,35.8-12.5,49,1.2l6,6.2C129.7,285,129.6,288.6,127.3,290.8z"/>
				<path id="Path_1_" class="st0" d="M38.5,344c2.3-2.2,6-2.1,8.2,0.2l6,6.2c8.8,9.2,23.4,9.5,32.7,0.8l40.1-37.9l-38-0.9
					c-3.2-0.1-5.7-2.7-5.6-5.9c0.1-3.2,2.7-5.7,5.9-5.6l52,1.3c3.2,0.1,5.7,2.7,5.6,5.9l-1.3,51.5c-0.1,3.2-2.7,5.7-5.9,5.6
					c-3.2-0.1-5.7-2.7-5.6-5.9l0.9-37.7l-40.1,37.9c-13.9,13.1-35.8,12.5-49-1.2l-6-6.2C36.1,349.8,36.2,346.2,38.5,344z"/>
			</g>
			<path id="Uniswap" class="st1" d="M259.4,284.9h11.2v48.8c0,5.5-1.3,10.3-4,14.2c-2.6,3.9-6.2,6.9-10.6,8.9
				c-4.5,2.1-9.4,3.1-14.9,3.1c-5.5,0-10.4-1-14.9-3.1c-4.5-2.1-8-5-10.6-8.9c-2.6-3.9-4-8.6-4-14.2v-48.8h11.2v48.6
				c0,3.5,0.8,6.4,2.5,8.8s3.9,4.2,6.7,5.5s5.8,1.9,9.1,1.9c3.3,0,6.4-0.6,9.2-1.9c2.8-1.2,5-3.1,6.7-5.5c1.7-2.4,2.5-5.3,2.5-8.8
				V284.9z M296.9,325.8v32.8h-10.8v-55.3h10.4v9h0.7c1.3-2.9,3.3-5.3,6-7.1s6.2-2.7,10.4-2.7c5.7,0,10.3,1.8,13.8,5.3
				c3.5,3.5,5.2,8.7,5.2,15.6v35.2h-10.8v-33.9c0-4-1.1-7.1-3.2-9.4c-2.1-2.3-5-3.4-8.7-3.4c-3.8,0-6.9,1.2-9.3,3.6
				C298.1,318,296.9,321.4,296.9,325.8z M347.1,358.6v-55.3h10.8v55.3H347.1z M352.6,295.1c-1.9,0-3.5-0.6-4.8-1.9
				c-1.4-1.2-2-2.8-2-4.5c0-1.8,0.7-3.3,2-4.6c1.4-1.3,3-1.9,4.8-1.9s3.5,0.6,4.8,1.9c1.4,1.3,2,2.8,2,4.6c0,1.8-0.7,3.3-2,4.5
				C356,294.5,354.4,295.1,352.6,295.1z M414.2,316.8l-9.8,1.7c-0.6-1.8-1.8-3.5-3.5-5.1c-1.7-1.5-4.2-2.3-7.6-2.3
				c-3.1,0-5.6,0.7-7.7,2c-2.1,1.4-3.1,3.1-3.1,5.2c0,1.9,0.7,3.4,2,4.5c1.4,1.1,3.6,2,6.7,2.8l8.8,2c10.2,2.3,15.2,7.3,15.2,15
				c0,3.3-1,6.3-2.9,8.9c-1.9,2.6-4.6,4.6-8,6s-7.4,2.2-11.9,2.2c-6.3,0-11.4-1.3-15.3-4c-3.9-2.7-6.3-6.4-7.3-11.3l10.5-1.6
				c1.3,5.5,5.3,8.2,12,8.2c3.6,0,6.4-0.7,8.5-2.2s3.2-3.3,3.2-5.4c0-3.5-2.6-5.9-7.9-7l-9.4-2.1c-5.2-1.2-9.1-3-11.5-5.6
				c-2.5-2.6-3.7-5.8-3.7-9.8c0-3.3,0.9-6.1,2.8-8.6c1.8-2.5,4.4-4.4,7.6-5.7c3.2-1.4,6.9-2.1,11.2-2.1c6,0,10.8,1.3,14.2,3.9
				C410.9,309.1,413.1,312.5,414.2,316.8z M439.3,358.6l-16.4-55.3h11.2L445,344h0.5l11-40.6h11.2l10.9,40.4h0.5l10.8-40.4h11.2
				l-16.4,55.3h-11.1l-11.3-39.9h-0.8l-11.3,39.9H439.3z M527.7,359.9c-3.5,0-6.7-0.6-9.6-1.9c-2.8-1.3-5.1-3.2-6.8-5.7
				c-1.7-2.5-2.5-5.6-2.5-9.2c0-3.1,0.6-5.7,1.8-7.7c1.2-2,2.9-3.6,4.9-4.8s4.3-2.1,6.9-2.6c2.5-0.6,5.1-1,7.8-1.4
				c0.5,0,0.9-0.1,1.4-0.1c0.4,0,0.9-0.1,1.3-0.1c4-0.5,6.9-0.9,8.7-1.4c1.8-0.5,2.7-1.6,2.6-3.4c0-3.2-0.9-5.6-2.6-7.4
				s-4.4-2.6-7.9-2.6c-3.7,0-6.5,0.8-8.6,2.4c-2.1,1.6-3.5,3.4-4.3,5.3l-10.2-2.3c1.8-5,4.8-8.7,9.1-10.8c4.2-2.2,8.9-3.3,14-3.3
				c2.2,0,4.5,0.3,7,0.8c2.5,0.5,4.8,1.5,7.1,2.8c2.2,1.4,4,3.3,5.4,5.9c1.4,2.5,2.1,5.8,2.1,9.8v36.7h-10.6v-7.6h-0.4
				c-1,2.1-2.9,4-5.5,5.9C536,358.9,532.3,359.9,527.7,359.9z M530.1,351.2c3,0,5.6-0.6,7.7-1.8c2.1-1.2,3.8-2.7,4.9-4.6
				c1.1-1.9,1.7-4,1.7-6.1v-7.1c-0.5,0.5-1.7,0.9-3.4,1.3c-1.7,0.4-3.5,0.7-5.4,1c-1.9,0.3-3.5,0.5-4.6,0.6
				c-3.1,0.4-5.8,1.2-8.1,2.5c-2.2,1.2-3.4,3.3-3.4,6.2c0,2.7,1,4.7,3,6C524.5,350.5,527,351.2,530.1,351.2z M597.2,359.7
				c-3.4,0-6.2-0.6-8.3-1.7c-2.1-1.1-3.8-2.4-5-4c-1.2-1.5-2.1-2.9-2.8-4h-0.7v29.3h-10.8v-76h10.6v9h0.9c0.7-1.1,1.6-2.5,2.7-4
				s2.8-2.9,4.9-4s4.9-1.7,8.3-1.7c4.5,0,8.5,1.1,12,3.4c3.5,2.3,6.3,5.5,8.3,9.8c2,4.2,3,9.4,3,15.3s-1,11.1-3,15.4
				c-2,4.3-4.8,7.5-8.3,9.8S601.7,359.7,597.2,359.7z M594.8,350.5c3.2,0,6-0.9,8.1-2.6s3.8-4.1,5-7c1.1-3,1.7-6.3,1.7-10
				c0-3.7-0.6-7-1.7-9.8c-1.1-2.9-2.7-5.2-4.9-6.9c-2.2-1.7-4.9-2.5-8.2-2.5c-4.7,0-8.3,1.8-10.8,5.3c-2.5,3.5-3.7,8.2-3.7,13.9
				c0,5.8,1.3,10.5,3.8,14.1C586.5,348.7,590.1,350.5,594.8,350.5z"/>
		</g>
	</g>
</g>
</svg>
