<?xml version="1.0" encoding="utf-8"?>
<!-- Generator: Adobe Illustrator 23.0.1, SVG Export Plug-In . SVG Version: 6.00 Build 0)  -->
<svg version="1.1" id="Layer_1" xmlns="http://www.w3.org/2000/svg" xmlns:xlink="http://www.w3.org/1999/xlink" x="0px" y="0px"
	 viewBox="0 0 30 30" style="enable-background:new 0 0 30 30;" xml:space="preserve">
<style type="text/css">
	.st0{fill-rule:evenodd;clip-rule:evenodd;fill:#FFFFFF;}
	.st1{fill-rule:evenodd;clip-rule:evenodd;fill:#05C0A5;}
</style>
<path class="st0" d="M1.2,14.9c0-4.4,3.6-8,8-8c1,0,2,0.2,2.9,0.6l-0.7,1.9C10.7,9.1,10,8.9,9.2,8.9c-3.3,0-6,2.7-6,6s2.7,6,6,6
	c0.8,0,1.5-0.1,2.2-0.4l0.7,1.9c-0.9,0.3-1.9,0.5-2.9,0.5C4.8,22.9,1.2,19.3,1.2,14.9z"/>
<path class="st1" d="M8.7,10.6c1.7-3.6,5.3-6.1,9.5-6.1c5.8,0,10.5,4.7,10.5,10.5c0,5.8-4.7,10.5-10.5,10.5c-4.2,0-7.8-2.5-9.5-6.1
	c-0.2-0.5,0-1.1,0.5-1.3c0.5-0.2,1.1,0,1.3,0.5c1.4,2.9,4.3,4.9,7.7,4.9c4.7,0,8.5-3.8,8.5-8.5c0-4.7-3.8-8.5-8.5-8.5
	c-3.4,0-6.4,2-7.7,4.9c-0.2,0.5-0.8,0.7-1.3,0.5C8.7,11.7,8.5,11.1,8.7,10.6z"/>
<path class="st0" d="M17,10.2c0.4-0.4,1-0.4,1.4,0l4,4c0.4,0.4,0.4,1,0,1.4l-4,4c-0.4,0.4-1,0.4-1.4,0c-0.4-0.4-0.4-1,0-1.4l2.3-2.3
	H7.7c-0.6,0-1-0.4-1-1c0-0.6,0.4-1,1-1h11.6L17,11.6C16.6,11.2,16.6,10.6,17,10.2z"/>
</svg>
