<svg width="37" height="37" xmlns="http://www.w3.org/2000/svg">

 <g>
  <title>background</title>
  <rect fill="none" id="canvas_background" height="39" width="39" y="-1" x="-1"/>
 </g>
 <g>
  <title>Layer 1</title>
  <g id="svg_1">
   <g stroke="null" id="svg_5">
    <rect id="svg_6" height="17.47117" width="15.40222" y="10.28765" x="10.67447" stroke-opacity="null" stroke-width="null" stroke="null" fill="#ffffff"/>
    <g id="svg_7">
     <path stroke="null" id="svg_2" d="m33.8484,18.67386c0.83478,-0.4785 1.62094,-0.92422 1.8884,-1.0717l1.18167,-0.64236l-0.33553,-1.31258c-1.30648,-5.10449 -3.68278,-9.07011 -7.06892,-11.7854c-3.01981,-2.42361 -6.71232,-3.70342 -10.67228,-3.70342c-4.33278,0 -8.60071,1.51906 -12.01928,4.27696c-3.6147,2.91685 -5.90509,6.97751 -6.4481,11.43309l-0.1313,1.07334l0.89962,0.58829c0.64351,0.42114 1.19788,0.78165 1.67119,1.08972c-0.49439,0.27366 -1.01633,0.55551 -1.52206,0.8177l-1.1298,0.58665l0.22855,1.26342c0.91745,5.05697 3.22729,9.19792 6.6799,11.97713c3.10086,2.49407 6.9506,3.81321 11.13586,3.81321c4.37492,0 8.61206,-1.45679 11.93499,-4.10326c3.60984,-2.87753 5.82242,-6.99062 6.2309,-11.58057l0.09239,-1.02254l-0.84451,-0.57026c-0.26746,-0.17534 -0.99202,-0.63745 -1.77169,-1.12741zm-15.30979,10.7727c-5.91481,0 -10.71118,-4.84722 -10.71118,-10.82677c0,-5.98119 4.79474,-10.82841 10.71118,-10.82841s10.71118,4.84722 10.71118,10.82841c0,5.97955 -4.79636,10.82677 -10.71118,10.82677z" fill="#B8B6B2" clip-rule="evenodd" fill-rule="evenodd"/>
     <g stroke="null" id="Shape_1">
      <g stroke="null" id="svg_3">
       <path stroke="null" id="svg_4" d="m34.92632,16.08146c-5.57117,-21.79447 -30.9308,-15.81984 -32.8581,0c3.01981,1.97461 4.06208,2.63172 4.06208,2.63172s-2.13478,1.26342 -4.06208,2.26302c3.80111,20.95383 31.08803,17.21599 32.59712,0.26383c-0.62568,-0.42114 -4.16582,-2.63172 -4.16582,-2.63172s3.75086,-2.15978 4.42679,-2.52685zm-13.79745,9.5273l-2.91607,-5.15857l-2.96956,5.15857l-2.23852,-0.15895l4.21769,-7.31672l-3.80111,-6.31712l2.29201,-0.21139l2.70697,4.68499l2.70859,-4.4736l2.13478,0.05244l-3.54176,6.21224l3.90485,7.47567l-2.49787,0.05244z" fill="#254A81"/>
      </g>
     </g>
    </g>
   </g>
  </g>
 </g>
</svg>