<svg width="136" height="26" viewBox="0 0 136 26" fill="none" xmlns="http://www.w3.org/2000/svg">
<g clip-path="url(#clip0_287_1750)">
<path d="M102.936 7.14688L99.999 15.5815L97.0622 7.14688C96.9878 6.93335 96.8485 6.74831 96.6645 6.61733C96.48 6.48636 96.2594 6.41595 96.0336 6.41591H92.2969L97.8097 20.6327L95.5672 26H98.9484C99.1848 26 99.4152 25.9291 99.6106 25.7964C99.806 25.6638 99.9571 25.4755 100.044 25.256L107.516 6.41571H103.965C103.739 6.41571 103.518 6.48611 103.333 6.61713C103.149 6.74814 103.01 6.93327 102.936 7.14688Z" fill="white"/>
<path d="M59.2205 6.04668C58.4678 6.03953 57.7227 6.19882 57.0386 6.51322C56.3549 6.82757 55.7487 7.28923 55.2641 7.86517V6.41612H52.1331C51.8443 6.4162 51.5672 6.53093 51.3628 6.73519C51.1585 6.93945 51.0439 7.21643 51.0439 7.50528V19.9394C51.0439 20.2283 51.1585 20.5053 51.3628 20.7095C51.5672 20.9138 51.8443 21.0286 52.1331 21.0286H55.2641V12.3772C55.2641 10.9265 56.2927 9.8714 57.7962 9.8714C59.3262 9.8714 60.1171 10.6892 60.1171 12.4826V21.0286H63.2481C63.3911 21.0286 63.5329 21.0005 63.6649 20.9457C63.7973 20.891 63.9172 20.8108 64.0184 20.7096C64.1195 20.6085 64.1999 20.4884 64.2544 20.3562C64.3092 20.2241 64.3373 20.0825 64.3373 19.9394V11.2701C64.3373 7.99863 62.3856 6.04668 59.2205 6.04668Z" fill="white"/>
<path d="M76.8281 6.41608C76.5564 6.41612 76.2878 6.47889 76.0441 6.59955C75.8003 6.7202 75.5879 6.89546 75.4229 7.1117L71.4047 12.3792V1.51178H68.2737C67.9849 1.51184 67.7078 1.62661 67.5035 1.83086C67.2991 2.03511 67.1846 2.31211 67.1846 2.60096V19.9396C67.1846 20.2284 67.2991 20.5055 67.5035 20.7097C67.7078 20.914 67.9849 21.0287 68.2737 21.0287H71.4047V15.0646L75.3977 20.3281C75.5627 20.5455 75.7755 20.7218 76.0201 20.8431C76.2643 20.9645 76.5336 21.0276 76.8062 21.0275H80.9365L74.9561 13.7201L80.9365 6.41503L76.8281 6.41608Z" fill="white"/>
<path d="M132.941 17.5467C131.477 17.5467 130.805 16.8752 130.805 15.4106V9.89778H134.211C134.5 9.89778 134.777 9.78305 134.981 9.57879C135.186 9.37453 135.3 9.09751 135.3 8.80862V6.41618H130.806V2.1106H127.833C127.544 2.1106 127.267 2.22537 127.063 2.42962C126.859 2.63388 126.744 2.9109 126.744 3.19977V6.41593H125.75C125.46 6.41593 125.184 6.5307 124.979 6.73496C124.775 6.93922 124.66 7.21624 124.66 7.50509V9.89778H126.719V15.6744C126.719 19.1719 128.693 21.0284 131.927 21.0284H134.348C134.491 21.0284 134.633 21.0003 134.766 20.9455C134.898 20.8908 135.017 20.8106 135.119 20.7094C135.22 20.6083 135.3 20.4882 135.355 20.3561C135.41 20.2239 135.438 20.0823 135.438 19.9392V17.5467H132.941Z" fill="white"/>
<path d="M41.6599 6.04669C37.5174 6.04669 34.1819 9.13273 34.1819 13.7751C34.1819 18.2062 36.9885 21.0284 42.2336 21.0284H46.5053C46.6483 21.0284 46.7901 21.0002 46.9221 20.9455C47.0541 20.8907 47.1744 20.8105 47.2755 20.7094C47.3767 20.6082 47.4567 20.4881 47.5116 20.356C47.5664 20.2238 47.5944 20.0822 47.5944 19.9392V17.5467H42.771C40.5117 17.5467 38.8627 16.9929 38.297 15.1228H47.4977C47.759 15.1252 48.0112 15.0274 48.203 14.8496C48.3943 14.6717 48.5105 14.4273 48.5276 14.1665C48.5402 13.9378 48.5455 13.7158 48.5455 13.4842C48.5455 8.60509 45.4523 6.04669 41.6599 6.04669ZM38.2168 12.1634C38.6203 10.5308 40.019 9.37014 41.6327 9.37014C43.2199 9.37014 44.4306 10.478 44.4574 12.1634H38.2168Z" fill="white"/>
<path d="M117.518 6.04607C116.644 6.04059 115.781 6.2394 114.999 6.62668C114.215 7.014 113.534 7.57897 113.008 8.27659V6.41612H109.877C109.588 6.41612 109.311 6.53081 109.107 6.73503C108.903 6.93925 108.788 7.21623 108.788 7.50508V24.91C108.788 25.1988 108.903 25.4758 109.107 25.68C109.311 25.8842 109.588 25.999 109.877 25.999H113.008V18.8899C113.905 20.3932 115.698 21.3955 117.597 21.3955C121.026 21.3955 124.059 18.4153 124.059 13.7206C124.059 9.05269 120.921 6.04607 117.518 6.04607ZM116.331 17.5978C114.379 17.5978 112.955 15.9891 112.955 13.721C112.955 11.4528 114.379 9.8439 116.357 9.8439C118.336 9.8439 119.786 11.4529 119.786 13.6946C119.786 15.9363 118.336 17.5978 116.331 17.5978Z" fill="white"/>
<path d="M90.0111 6.20966C88.2025 6.20966 87.4176 6.95809 86.4946 7.99882V6.41611H83.3641C83.0752 6.41619 82.7982 6.53092 82.5938 6.73518C82.3895 6.9394 82.2749 7.21642 82.2749 7.50527V19.9394C82.2749 20.2282 82.3895 20.5053 82.5938 20.7095C82.7982 20.9138 83.0752 21.0286 83.3641 21.0286H86.495V13.1144C86.495 10.3714 88.4064 9.37325 91.5971 9.86846V7.50527C91.5967 6.90361 91.5082 6.20966 90.0111 6.20966Z" fill="white"/>
<path fill-rule="evenodd" clip-rule="evenodd" d="M1.74022 1.38105C2.62436 0.496913 3.8235 0.000203024 5.07387 0.000203024L24.8592 0V3.61741C24.8592 4.51616 24.5022 5.3781 23.8667 6.0136C23.2312 6.64909 22.3692 7.00611 21.4705 7.00611H12.1681C10.9178 7.00611 9.71864 7.50283 8.83448 8.38695C7.95036 9.27111 7.45364 10.4702 7.45364 11.7206V12.9204C7.45364 14.1707 7.95036 15.3699 8.83448 16.254C9.71864 17.1381 10.9178 17.6348 12.1681 17.6348H21.4705C22.3692 17.6348 23.2312 17.9919 23.8667 18.6274C24.5022 19.2629 24.8592 20.1248 24.8592 21.0236V24.5H5.07387C3.8235 24.5 2.62436 24.0033 1.74022 23.1192C0.856085 22.235 0.359375 21.0359 0.359375 19.7856V4.71469C0.359375 3.46433 0.856085 2.26518 1.74022 1.38105ZM12.3719 8.9778H21.9127C23.54 8.9778 24.8592 10.297 24.8592 11.9243V12.717C24.8592 14.3444 23.54 15.6636 21.9127 15.6636H12.3719C10.7445 15.6636 9.42533 14.3444 9.42533 12.717V11.9243C9.42533 10.297 10.7445 8.9778 12.3719 8.9778Z" fill="white"/>
</g>
<defs>
<clipPath id="clip0_287_1750">
<rect width="135.281" height="26" fill="white" transform="translate(0.359375)"/>
</clipPath>
</defs>
</svg>
