<svg width="333" height="64" viewBox="0 0 333 64" fill="none" xmlns="http://www.w3.org/2000/svg">
<path d="M252.497 17.5923L245.267 38.3544L238.038 17.5923C237.855 17.0667 237.512 16.6112 237.059 16.2888C236.605 15.9664 236.062 15.7931 235.506 15.793H226.308L239.878 50.7882L234.358 64H242.681C243.263 64 243.83 63.8255 244.311 63.4989C244.792 63.1723 245.164 62.7088 245.378 62.1685L263.771 15.7925H255.029C254.472 15.7925 253.929 15.9658 253.475 16.2883C253.022 16.6108 252.68 17.0665 252.497 17.5923Z" fill="#684CFF"/>
<path d="M144.889 14.8841C143.036 14.8665 141.202 15.2586 139.518 16.0325C137.835 16.8063 136.343 17.9427 135.15 19.3604V15.7935H127.443C126.732 15.7937 126.05 16.0761 125.547 16.5789C125.044 17.0817 124.762 17.7635 124.762 18.4745V49.0816C124.762 49.7926 125.044 50.4745 125.547 50.9773C126.05 51.4801 126.732 51.7626 127.443 51.7626H135.15V30.4668C135.15 26.8959 137.682 24.2988 141.383 24.2988C145.149 24.2988 147.096 26.3119 147.096 30.7263V51.7626H154.803C155.155 51.7627 155.504 51.6934 155.829 51.5587C156.155 51.424 156.45 51.2265 156.699 50.9775C156.948 50.7285 157.146 50.4329 157.28 50.1076C157.415 49.7823 157.484 49.4337 157.484 49.0816V27.7417C157.484 19.6889 152.68 14.8841 144.889 14.8841Z" fill="#684CFF"/>
<path d="M188.231 15.7935C187.562 15.7936 186.901 15.9481 186.301 16.2451C185.701 16.5421 185.178 16.9735 184.772 17.5058L174.881 30.4719V3.72137H167.174C166.463 3.72151 165.781 4.00403 165.278 4.5068C164.775 5.00956 164.493 5.69141 164.493 6.40242V49.0821C164.493 49.7931 164.775 50.4751 165.278 50.9779C165.781 51.4807 166.463 51.7631 167.174 51.7631H174.881V37.0821L184.71 50.0385C185.116 50.5736 185.64 51.0075 186.242 51.3062C186.843 51.6049 187.506 51.7602 188.177 51.76H198.344L183.623 33.7727L198.344 15.7909L188.231 15.7935Z" fill="#684CFF"/>
<path d="M326.354 43.1919C322.75 43.1919 321.097 41.5389 321.097 37.9337V24.3637H329.481C330.192 24.3637 330.874 24.0813 331.377 23.5785C331.88 23.0757 332.162 22.3938 332.162 21.6827V15.7936H321.099V5.19525H313.781C313.07 5.19525 312.388 5.47776 311.886 5.98055C311.383 6.48334 311.1 7.16524 311.1 7.8763V15.793H308.653C307.941 15.793 307.26 16.0755 306.757 16.5783C306.254 17.0811 305.971 17.763 305.971 18.474V24.3637H311.038V38.5831C311.038 47.1922 315.897 51.7621 323.858 51.7621H329.819C330.171 51.7622 330.52 51.6929 330.846 51.5582C331.171 51.4235 331.466 51.226 331.715 50.977C331.964 50.7281 332.162 50.4325 332.297 50.1072C332.431 49.7818 332.5 49.4332 332.5 49.0811V43.1919H326.354Z" fill="#684CFF"/>
<path d="M101.663 14.8841C91.466 14.8841 83.2555 22.4805 83.2555 33.9078C83.2555 44.8151 90.1641 51.7621 103.075 51.7621H113.59C113.942 51.7621 114.291 51.6927 114.616 51.558C114.941 51.4232 115.237 51.2258 115.486 50.9768C115.735 50.7278 115.932 50.4323 116.067 50.107C116.202 49.7817 116.271 49.4331 116.271 49.0811V43.1919H104.398C98.8366 43.1919 94.7775 41.8286 93.385 37.2254H116.033C116.676 37.2313 117.297 36.9905 117.769 36.5528C118.24 36.115 118.526 35.5134 118.568 34.8714C118.599 34.3084 118.612 33.7619 118.612 33.1918C118.612 21.1817 110.998 14.8841 101.663 14.8841ZM93.1875 29.9407C94.1808 25.9219 97.6238 23.0649 101.596 23.0649C105.503 23.0649 108.483 25.792 108.549 29.9407H93.1875Z" fill="#684CFF"/>
<path d="M288.39 14.8827C286.24 14.8692 284.116 15.3586 282.189 16.3119C280.261 17.2653 278.583 18.656 277.289 20.3732V15.7936H269.582C268.871 15.7936 268.189 16.0759 267.687 16.5786C267.184 17.0813 266.901 17.7631 266.901 18.4741V61.3169C266.901 62.0279 267.184 62.7097 267.686 63.2124C268.189 63.7151 268.871 63.9975 269.582 63.9975H277.289V46.4983C279.496 50.1988 283.911 52.6659 288.585 52.6659C297.025 52.6659 304.491 45.33 304.491 33.7738C304.491 22.2836 296.766 14.8827 288.39 14.8827ZM285.469 43.3178C280.665 43.3178 277.159 39.3579 277.159 33.7748C277.159 28.1916 280.665 24.2312 285.534 24.2312C290.403 24.2312 293.974 28.1917 293.974 33.7098C293.974 39.228 290.403 43.3178 285.469 43.3178Z" fill="#684CFF"/>
<path d="M220.681 15.2853C216.229 15.2853 214.297 17.1276 212.025 19.6894V15.7935H204.319C203.608 15.7937 202.926 16.0761 202.423 16.5789C201.92 17.0816 201.638 17.7635 201.638 18.4745V49.0816C201.638 49.7926 201.92 50.4745 202.423 50.9773C202.926 51.4801 203.608 51.7626 204.319 51.7626H212.026V32.2815C212.026 25.5295 216.731 23.0726 224.585 24.2916V18.4745C224.584 16.9935 224.366 15.2853 220.681 15.2853Z" fill="#684CFF"/>
<path fill-rule="evenodd" clip-rule="evenodd" d="M3.399 3.3995C5.57534 1.22317 8.52707 0.000499752 11.6049 0.000499752L60.3073 0V8.9044C60.3073 11.1167 59.4284 13.2384 57.8641 14.8027C56.2998 16.367 54.1781 17.2458 51.9658 17.2458H29.0677C25.9899 17.2458 23.0382 18.4685 20.8618 20.6448C18.6855 22.8212 17.4628 25.7729 17.4628 28.8507V31.804C17.4628 34.8818 18.6855 37.8336 20.8618 40.0099C23.0382 42.1862 25.9899 43.4088 29.0677 43.4088H51.9658C54.1781 43.4088 56.2998 44.2877 57.8641 45.852C59.4284 47.4163 60.3073 49.538 60.3073 51.7503V60.3078H11.6049C8.52707 60.3078 5.57534 59.0851 3.399 56.9088C1.22267 54.7324 0 51.7807 0 48.7029V11.6054C0 8.52757 1.22267 5.57584 3.399 3.3995ZM29.5692 22.0992H53.0543C57.06 22.0992 60.3072 25.3465 60.3072 29.3522V31.3035C60.3072 35.3092 57.06 38.5565 53.0543 38.5565H29.5692C25.5635 38.5565 22.3162 35.3092 22.3162 31.3035V29.3522C22.3162 25.3465 25.5635 22.0992 29.5692 22.0992Z" fill="url(#paint0_linear_189_6503)"/>
<defs>
<linearGradient id="paint0_linear_189_6503" x1="6.0615" y1="4.43837e-07" x2="48.3656" y2="63.1016" gradientUnits="userSpaceOnUse">
<stop stop-color="#C549FF"/>
<stop offset="1" stop-color="#654BFF"/>
</linearGradient>
</defs>
</svg>
