<?xml version="1.0" encoding="UTF-8"?>
<svg width="63px" height="76px" viewBox="0 0 63 76" version="1.1" xmlns="http://www.w3.org/2000/svg" xmlns:xlink="http://www.w3.org/1999/xlink">
    <!-- Generator: Sketch 55.2 (78181) - https://sketchapp.com -->
    <title>Group 13 Copy 3</title>
    <desc>Created with Sketch.</desc>
    <g id="Keystore-file_create-new-wallet" stroke="none" stroke-width="1" fill="none" fill-rule="evenodd">
        <g id="Group-13" transform="translate(3.000000, 2.000000)">
            <path d="M29.4019435,11.8133496 C15.7827327,16.9186075 3.34315205,9.48932942 0.305516515,25.9238535 C-2.73211902,42.3583776 17.755895,42.9363359 23.0456213,34.5591424 C24.4609827,32.0226573 29.3886671,24.9984915 32.6594161,16.0527109 C33.0238181,15.05604 33.0895378,14.4713446 32.0557066,13.4388393 C31.0218754,12.4063339 30.4706743,11.4192525 29.4019435,11.8133496 Z" id="Path-6" fill="#05C0A5"></path>
            <text id="$" font-family="Menlo-Regular, Menlo" font-size="15" font-weight="normal" fill="#FFFFFF">
                <tspan x="9.31512762" y="30.4322034">$</tspan>
            </text>
            <path d="M31.19026,44.8518665 C30.2930025,46.01943 28.9940028,47.4030991 27.293261,49.002874 C23.9781281,52.1211993 20.2580345,52.8036451 16.1329801,51.0502114 C12.3715714,48.8930426 10.0872955,47.378386 9.28015249,46.5062416 C8.06943801,45.1980251 8.80302181,41.4743288 12.5380042,42.7945757 C16.2729865,44.1148226 19.8091259,48.0821168 22.582529,42.9283067 C23.6624512,40.9214893 24.6045612,39.041499 25.408859,37.2883357 C25.3912316,37.2657536 25.3735893,37.243156 25.3559322,37.220543 L26.8021224,34.0315396 C26.841095,33.9325291 26.8795321,33.8340114 26.9174337,33.7359865 L26.9287008,33.7524207 L33.2902202,19.7245928 C33.937506,18.2972587 35.5744025,17.6086908 37.0473462,18.144133 C37.7963111,18.4164008 38.4865216,18.5525347 39.1179775,18.5525347 C40.8748929,18.5525347 42.511692,19.375972 43.5604821,20.7457627 L46.7183677,20.7457627 C47.9914309,20.7457627 49.0234525,21.7777843 49.0234525,23.0508475 C49.0234525,24.3239106 47.9914309,25.3559322 46.7183677,25.3559322 L46.1615205,25.3559322 L47.590357,27.9621093 C48.0612139,28.8209454 49.0847665,29.2124292 50.0085696,28.8870164 L52.3344423,28.0677198 C54.4619612,27.546865 55.7735713,28.0080425 56.2692724,29.4512524 C56.7649735,30.8944623 56.1076132,32.1308272 54.2971914,33.160347 L46.9484585,35.6087555 C46.0427525,35.9105134 45.050045,35.5300957 44.5779466,34.7003462 L41.6871506,29.6195485 C41.59409,29.4559872 41.456767,29.3220031 41.2909651,29.2329957 C40.8043556,28.9717694 40.198115,29.1544786 39.9369024,29.6410955 C38.8839704,31.6024858 38.188624,33.1180071 37.8508633,34.1876594 C37.2161146,36.1978413 36.4476781,37.3676588 37.2061714,39.4623408 C37.9646646,41.5570227 40.8463869,44.8524275 43.220339,49.0161937 C44.8029737,51.7920378 46.7326522,55.6589174 49.0093744,60.6168323 C50.3003813,64.0254403 49.9740209,66.1507059 48.0302934,66.9926291 C46.0865658,67.8345523 44.4832477,66.972731 43.220339,64.4071652 C42.4684052,62.198689 40.8022804,59.0355317 38.2219646,54.9176932 C36.5744866,52.2885388 34.230585,48.9332632 31.19026,44.8518665 Z M42.0677966,17.2881356 C37.2938098,17.2881356 33.4237288,13.4180546 33.4237288,8.6440678 C33.4237288,3.87008098 37.2938098,4.79616347e-14 42.0677966,4.79616347e-14 C46.8417834,4.79616347e-14 50.7118644,3.87008098 50.7118644,8.6440678 C50.7118644,13.4180546 46.8417834,17.2881356 42.0677966,17.2881356 Z" id="Combined-Shape" fill="#CDF4EE"></path>
            <ellipse id="Oval" fill="#5A78F0" cx="42" cy="70" rx="10" ry="2"></ellipse>
        </g>
    </g>
</svg>