<?xml version="1.0" encoding="UTF-8" ?>
<!DOCTYPE svg PUBLIC "-//W3C//DTD SVG 1.1//EN" "http://www.w3.org/Graphics/SVG/1.1/DTD/svg11.dtd">
<svg width="1061pt" height="1060pt" viewBox="0 0 1061 1060" version="1.1" xmlns="http://www.w3.org/2000/svg">
<g id="#000000ff">
<path fill="#000000" opacity="1.00" d=" M 130.00 0.00 L 930.57 0.00 C 962.77 1.66 994.20 15.06 1017.52 37.36 C 1040.71 59.20 1055.92 89.38 1059.37 121.08 C 1060.09 127.10 1060.18 133.18 1061.00 139.20 L 1061.00 917.14 C 1060.16 928.17 1059.87 939.33 1057.55 950.20 C 1051.36 981.37 1033.71 1010.04 1008.86 1029.82 C 993.41 1042.21 975.23 1051.19 955.99 1055.86 C 946.14 1058.41 935.98 1059.21 925.89 1060.00 L 136.17 1060.00 C 120.10 1059.31 104.00 1056.82 88.95 1050.99 C 59.82 1040.07 34.75 1018.83 19.09 991.96 C 8.76 974.36 2.46 954.40 0.89 934.05 C 0.67 930.33 0.48 926.59 0.00 922.92 L 0.00 139.65 C 0.75 132.50 0.57 125.28 1.68 118.17 C 6.08 84.44 23.85 52.80 50.10 31.22 C 72.47 12.56 100.94 1.59 130.00 0.00 M 135.21 24.19 C 105.11 25.50 75.92 39.33 55.57 61.50 C 35.92 82.57 24.52 111.15 24.59 139.99 C 24.59 399.98 24.59 659.97 24.59 919.96 C 24.59 949.01 36.25 977.76 56.22 998.83 C 77.61 1021.78 108.59 1035.53 140.01 1035.55 C 400.01 1035.57 660.01 1035.56 920.01 1035.56 C 933.21 1035.56 946.41 1033.27 958.84 1028.80 C 985.49 1019.32 1008.33 999.71 1021.87 974.89 C 1031.08 958.15 1036.03 939.09 1036.09 919.98 C 1036.09 665.99 1036.09 411.99 1036.09 158.00 C 1035.96 145.64 1036.71 133.17 1034.47 120.94 C 1031.09 100.79 1022.17 81.63 1009.05 65.97 C 987.64 40.07 954.63 24.15 920.97 24.07 C 748.96 24.05 576.95 24.07 404.93 24.06 C 315.03 24.15 225.12 23.89 135.21 24.19 Z" />
<path fill="#000000" opacity="1.00" d=" M 612.49 311.71 C 646.80 307.57 681.91 312.64 714.11 324.96 C 740.12 334.85 764.45 349.21 785.56 367.36 C 790.26 362.81 794.86 358.15 799.64 353.68 C 804.09 349.57 811.66 349.85 815.89 354.16 C 819.81 357.85 820.67 364.26 817.89 368.87 C 816.36 371.29 814.10 373.10 812.11 375.11 C 768.72 417.44 725.31 459.76 681.93 502.11 C 688.55 512.66 691.51 525.56 689.49 537.91 C 688.46 544.74 685.87 551.25 682.40 557.19 C 726.49 600.21 770.58 643.23 814.70 686.22 C 818.07 689.06 820.19 693.50 819.38 697.94 C 818.53 704.19 812.18 708.97 805.94 708.00 C 802.64 707.68 799.88 705.65 797.67 703.33 C 793.54 699.25 789.37 695.23 785.23 691.17 C 760.13 713.89 729.92 730.99 697.41 740.55 C 664.02 750.50 628.22 751.93 594.08 745.11 C 564.42 739.28 536.11 727.00 511.37 709.65 C 483.92 733.59 446.84 743.40 411.02 743.77 C 359.00 743.86 306.98 743.80 254.96 743.80 C 247.57 744.09 240.88 737.42 241.19 730.02 C 241.18 596.65 241.19 463.29 241.19 329.92 C 240.88 322.99 247.05 316.68 253.99 316.87 C 304.36 316.81 354.73 316.86 405.10 316.84 C 425.43 316.60 446.03 318.81 465.25 325.76 C 481.18 331.42 495.91 340.52 507.86 352.49 C 538.46 330.19 574.87 315.97 612.49 311.71 M 539.58 360.59 C 526.99 367.67 515.64 376.66 504.57 385.88 C 499.83 380.16 495.46 374.10 490.11 368.92 C 481.78 360.73 471.74 354.38 460.93 350.00 C 443.91 343.07 425.34 340.82 407.07 340.97 C 359.80 340.98 312.53 340.95 265.26 340.98 C 265.25 467.22 265.25 593.47 265.26 719.71 C 304.84 719.72 344.43 719.71 384.02 719.72 C 401.87 719.61 419.86 720.46 437.52 717.28 C 457.44 713.96 476.96 706.47 492.79 693.73 C 498.82 689.00 503.97 683.31 509.35 677.89 C 518.35 684.93 527.42 691.94 537.30 697.74 C 580.85 724.04 635.04 732.09 684.29 719.19 C 715.26 711.22 744.24 695.74 768.19 674.55 C 755.77 662.45 743.37 650.32 730.94 638.23 C 711.57 654.61 688.03 666.11 663.09 670.89 C 640.57 675.25 617.01 673.71 595.13 666.93 C 565.36 657.76 538.89 638.49 520.85 613.12 C 501.04 585.58 491.68 550.82 494.88 517.05 C 497.81 483.16 513.53 450.65 538.04 427.10 C 562.28 403.51 595.11 388.95 628.90 387.07 C 646.75 385.84 664.71 388.80 681.61 394.51 C 699.30 400.46 716.01 409.34 730.78 420.75 C 743.37 408.51 755.93 396.23 768.50 383.97 C 736.60 358.19 697.64 340.77 656.86 335.60 C 616.43 330.96 574.76 340.34 539.58 360.59 M 552.09 447.12 C 528.08 471.59 515.43 506.83 518.95 540.99 C 519.93 549.58 522.96 557.74 526.19 565.70 C 534.17 585.22 545.52 603.61 560.87 618.19 C 575.82 632.51 594.72 642.78 615.05 646.92 C 649.57 654.18 686.67 643.76 713.61 621.32 C 697.59 605.68 681.58 590.04 665.54 574.43 C 648.53 585.55 625.18 585.22 608.40 573.82 C 599.83 582.14 591.33 590.52 582.74 598.82 C 579.06 602.42 573.00 603.12 568.57 600.53 C 563.91 597.98 561.43 592.14 562.85 587.02 C 563.50 584.05 565.62 581.77 567.77 579.76 C 575.89 571.87 584.01 563.96 592.10 556.03 C 588.51 549.58 585.96 542.48 585.26 535.10 C 584.06 524.03 586.92 512.77 592.56 503.25 C 583.69 494.53 574.73 485.90 565.88 477.16 C 562.19 473.54 561.41 467.45 563.96 462.98 C 566.39 458.42 571.95 455.85 576.99 457.01 C 580.01 457.53 582.43 459.55 584.51 461.68 C 592.75 469.76 601.03 477.81 609.29 485.87 C 625.68 475.09 648.03 474.82 664.67 485.23 C 680.78 469.54 696.87 453.84 712.96 438.13 C 694.42 424.49 672.69 414.78 649.79 411.70 C 614.05 407.37 576.96 421.24 552.09 447.12 M 632.49 501.75 C 617.75 504.58 605.87 520.42 609.39 535.44 C 610.45 540.71 613.50 545.25 616.52 549.58 C 622.20 555.18 629.91 559.14 638.04 558.88 C 653.44 558.83 667.01 544.32 666.35 529.03 C 665.85 512.55 648.79 498.47 632.49 501.75 Z" />
<path fill="#000000" opacity="1.00" d=" M 339.25 404.21 C 340.77 403.69 342.39 403.67 343.98 403.64 C 358.63 403.67 373.29 403.65 387.95 403.65 C 396.60 403.78 405.36 402.97 413.90 404.81 C 425.42 406.90 436.78 412.58 443.62 422.35 C 450.71 432.34 452.34 445.38 450.14 457.23 C 448.31 467.19 442.58 476.42 434.22 482.18 C 423.43 489.70 409.84 492.11 396.90 491.55 C 378.59 491.43 360.26 491.67 341.95 491.51 C 336.16 491.29 331.41 485.76 331.81 480.02 C 331.81 458.35 331.80 436.67 331.82 415.00 C 331.56 410.27 334.72 405.63 339.25 404.21 M 355.91 427.76 C 355.90 440.99 355.90 454.23 355.91 467.46 C 369.61 467.49 383.30 467.39 397.00 467.44 C 405.24 467.80 414.19 466.98 421.04 461.94 C 426.26 458.05 427.42 450.96 426.83 444.87 C 426.53 439.87 424.08 434.89 419.69 432.29 C 412.95 428.16 404.74 427.39 397.01 427.72 C 383.31 427.80 369.61 427.71 355.91 427.76 Z" />
<path fill="#000000" opacity="1.00" d=" M 340.45 565.71 C 360.61 565.15 380.82 565.77 401.00 565.38 C 413.71 565.47 426.93 568.85 436.74 577.26 C 445.11 584.37 449.91 595.05 450.79 605.89 C 452.01 618.45 449.13 631.94 440.56 641.53 C 431.21 652.15 416.74 656.72 402.94 657.16 C 382.61 656.93 362.28 657.21 341.96 657.10 C 336.19 657.19 331.35 651.71 331.81 646.02 C 331.84 622.67 331.76 599.32 331.85 575.97 C 331.83 571.07 335.66 566.57 340.45 565.71 M 355.91 589.60 C 355.90 604.07 355.90 618.55 355.91 633.02 C 369.61 633.06 383.31 632.91 397.02 633.00 C 404.88 633.39 413.34 632.50 419.97 627.88 C 424.40 624.78 426.53 619.35 426.84 614.11 C 427.31 607.85 426.50 600.75 421.72 596.19 C 416.44 591.31 408.95 589.84 402.00 589.50 C 386.64 589.69 371.28 589.54 355.91 589.60 Z" />
</g>
</svg>
