<?xml version="1.0" encoding="utf-8"?>
<!-- Generator: Adobe Illustrator 23.0.3, SVG Export Plug-In . SVG Version: 6.00 Build 0)  -->
<svg version="1.1" id="圖層_1" xmlns="http://www.w3.org/2000/svg" xmlns:xlink="http://www.w3.org/1999/xlink" x="0px" y="0px"
	 viewBox="0 0 500 500" style="enable-background:new 0 0 500 500;" xml:space="preserve">
<style type="text/css">
	.st0{fill:#042642;}
</style>
<g>
	<path class="st0" d="M69.5,81.4v13.8v190.3h0c-0.7,17.9,2.6,34.8,8.9,50.6C106.9,407.3,197,457.7,267.3,485l0-35.8
		c-88.2-34.5-130.9-79.5-148.3-111.9c-15.4-28.7-13.5-50.6-13.5-50.6V101.9l161.8-46.7V28.7v-3.4L83.8,77.6L69.5,81.4z"/>
	<g>
		<path class="st0" d="M272.5,438.8c11.3-5.5,21.7-11.1,31.4-16.7l1.1-95.5V81.3l-32.5-9.9V438.8z"/>
		<path class="st0" d="M335.1,397.1c12.5-6.3,32.5-25.2,32.5-25.2v-31.5V95.1l-32.5-9.9V397.1z"/>
		<path class="st0" d="M397.2,106.3l0.9,143.1c0,0,0,68.6,0,91.5l0.9-1c2-2.7,4-5.3,5.7-7.8c22.9-33.1,24-56.4,24-56.4v-24.5
			l0.9-134.9L397.2,106.3z"/>
	</g>
</g>
</svg>
