<?xml version="1.0" encoding="UTF-8" standalone="no"?>
<!DOCTYPE svg PUBLIC "-//W3C//DTD SVG 1.1//EN" "http://www.w3.org/Graphics/SVG/1.1/DTD/svg11.dtd">
<svg version="1.1" xmlns="http://www.w3.org/2000/svg" xmlns:xlink="http://www.w3.org/1999/xlink" preserveAspectRatio="xMidYMid meet" viewBox="0 0 250 250" width="250" height="250">
<title>satochip</title>
<desc>Satochip hardware wallet: satochip.io</desc>
<defs><path d="M25 187C19 176 16 163 16 151 15 149 15 147 15 145 15 143 14 141 11 141 9 141 4 145 1 145 4 173 16 198 36 218 45 228 56 236 70 239 81 242 93 241 103 236 108 233 113 230 117 225 121 221 124 216 127 211 130 205 132 199 135 194 137 188 139 181 142 175 153 152 167 131 187 116 197 108 208 102 219 96 225 94 231 92 237 90 240 89 243 88 246 88 248 87 250 84 249 81 242 63 230 46 215 33 215 33 215 33 215 33 202 22 196 19 194 18 194 18 194 18 194 18 182 10 168 5 154 3 144 0 134 0 123 0 123 0 123 0 123 0 123 0 123 0 123 0 120 0 118 2 118 5 117 39 124 97 124 97 124 97 112 40 100 8 100 6 98 4 96 4 95 4 95 4 95 5 95 5 95 5 95 5 94 5 93 5 92 5 73 11 55 21 40 35 37 38 35 40 32 43 32 43 32 43 32 43 21 57 18 62 17 64 17 64 17 64 17 64 13 71 10 78 7 86 3 96 1 106 0 116 0 119 0 122 2 123 4 124 5 124 6 124 8 123 9 123 11 123 18 121 25 121 32 121 46 121 60 124 72 128 84 133 95 140 104 150 119 168 128 200 110 220 101 229 89 233 77 232 71 232 65 229 60 227 55 224 50 221 46 217 37 209 30 198 25 187" id="cyl7oqAcw"></path></defs><g><g><g><use xlink:href="#cyl7oqAcw" opacity="1" fill="#002747" fill-opacity="1"></use><g><use xlink:href="#cyl7oqAcw" opacity="1" fill-opacity="0" stroke="#000000" stroke-width="1" stroke-opacity="0"></use></g></g></g></g></svg>