<?xml version="1.0" encoding="UTF-8"?>
<svg width="45px" height="45px" viewBox="0 0 45 45" version="1.1" xmlns="http://www.w3.org/2000/svg" xmlns:xlink="http://www.w3.org/1999/xlink">
    <!-- Generator: Sketch 54.1 (76490) - https://sketchapp.com -->
    <title>ledger</title>
    <desc>Created with Sketch.</desc>
    <g id="Landing-pages" stroke="none" stroke-width="1" fill="none" fill-rule="evenodd">
        <g id="Hardware(pop-out)1-Copy-2" transform="translate(-538.000000, -540.000000)" fill="#002747" fill-rule="nonzero">
            <g id="pop-out" transform="translate(477.000000, 207.000000)">
                <g id="trezor" transform="translate(61.000000, 333.000000)">
                    <path d="M22.6284363,6 C18.0004121,6 14.2550282,9.77464009 14.2550282,14.4388151 L14.2550282,17.6016058 C12.6298491,17.8981174 11,18.2934662 11,18.8064784 L11,35.3122924 C11,35.3122924 11,35.7688261 11.509036,35.9853267 C13.3537076,36.7383721 20.6109727,39.3269657 22.2781822,39.9199889 C22.4930047,40 22.5537154,40 22.6097561,40 C22.689147,40 22.7265075,40 22.94133,39.9199889 C24.6085395,39.3269657 31.8844848,36.7383721 33.7291564,35.9853267 C34.200832,35.7876523 34.2195122,35.3311185 34.2195122,35.3311185 L34.2195122,18.8064784 C34.2195122,18.2934662 32.6130134,17.8792913 30.9831643,17.6016058 L30.9831643,14.4388151 C31.0065145,9.77464009 27.2377804,6 22.6284363,6 Z M22.630174,9.3202954 C25.6111894,9.3202954 27.4130703,11.1516706 27.4130703,14.1814812 L27.4130703,17.2112918 C24.0696369,16.9726424 21.2162335,16.9726424 17.8523822,17.2112918 L17.8523822,14.1814812 C17.8523822,11.1464826 19.6542631,9.3202954 22.630174,9.3202954 Z M22.6068917,19.9363749 C27.3557781,19.9363749 31.3413466,20.2955133 31.3413466,20.9396822 L31.3413466,33.4126164 C31.3413466,33.6064372 31.3180392,33.6292396 31.1432335,33.6976469 C30.9742548,33.7717549 23.0439058,36.5707543 23.0439058,36.5707543 C23.0439058,36.5707543 22.7234288,36.6676646 22.6301991,36.6676646 C22.5311426,36.6676646 22.2164924,36.5479518 22.2164924,36.5479518 C22.2164924,36.5479518 14.2861434,33.7489524 14.1171647,33.6748445 C13.9481859,33.6007366 13.9190516,33.5779341 13.9190516,33.389814 L13.9190516,20.9168798 C13.8724368,20.2727109 17.8580053,19.9363749 22.6068917,19.9363749 L22.6068917,19.9363749 Z" id="path7"></path>
                </g>
            </g>
        </g>
    </g>
</svg>