<svg xmlns="http://www.w3.org/2000/svg" xmlns:xlink="http://www.w3.org/1999/xlink" width="612" height="612" viewBox="0 0 612 612"><path fill="#B46D29" d="M356.004 605.324c-36.191 21.266-106.965-32.015-158.071-118.995-51.107-86.984-63.197-174.741-27.003-196.006 36.197-21.265 106.967 32.013 158.073 118.997 51.109 86.985 63.197 174.739 27.001 196.004"/><defs><path id="a" d="M39.68 265.486c-13.299 24.198 7.741 61.302 36.182 76.926 28.434 15.626 62.268 8.671 75.566-15.529 7.336-13.355.533-12.783-11.816-12.214-10.033.462-23.724.925-36.471-6.078-23.188-12.741-41.91-49.457-55.245-49.454-3.019 0-5.761 1.882-8.216 6.349"/></defs><clipPath id="b"><use xlink:href="#a" overflow="visible"/></clipPath><linearGradient id="c" gradientUnits="userSpaceOnUse" x1="187.435" y1="138.299" x2="190.624" y2="138.299" gradientTransform="scale(19.5298) rotate(67.785 188.082 -60.15)"><stop offset="0" stop-color="#efb730"/><stop offset="1" stop-color="#ffd65a"/></linearGradient><path clip-path="url(#b)" fill="url(#c)" d="M139.84 212.798L193.381 343.9 45.305 404.374-8.237 273.271z"/><defs><path id="d" d="M259.492 511.927c1.588.249 3.728.495 3.977.289-3.614-.484-5.197-.653-5.601-.653-.423-.001.45.183 1.624.364"/></defs><clipPath id="e"><use xlink:href="#d" overflow="visible"/></clipPath><linearGradient id="f" gradientUnits="userSpaceOnUse" x1="-2004.986" y1="453.883" x2="-2001.795" y2="453.883" gradientTransform="matrix(.0262 -.1146 .1146 .0262 260.96 270.378)"><stop offset="0" stop-color="#efb730"/><stop offset="1" stop-color="#ffd65a"/></linearGradient><path clip-path="url(#e)" fill="url(#f)" d="M257.257 512.378l.487-2.123 5.91 1.35-.485 2.124z"/><g><defs><path id="g" d="M220.38 502.165c6.135 1.61 13.822 3.354.28-.553-.082.18-.194.37-.28.553"/></defs><clipPath id="h"><use xlink:href="#g" overflow="visible"/></clipPath><linearGradient id="i" gradientUnits="userSpaceOnUse" x1="-1882.491" y1="255.477" x2="-1879.303" y2="255.477" gradientTransform="matrix(.0277 -.1211 .1211 .0277 248.491 268.55)"><stop offset="0" stop-color="#efb730"/><stop offset="1" stop-color="#ffd65a"/></linearGradient><path clip-path="url(#h)" fill="url(#i)" d="M219.53 505.327l1.537-6.721 13.985 3.199-1.537 6.72z"/></g><g><defs><path id="j" d="M168.575 1.399c-5.762 2.976-20.851 16.88-18.253 33.206 1.392 8.736 5.6 16.092 11.145 20.756-36.911 34.646-51.973 76.921-54.587 88.357-27.722 121.178 34.362 388.234 67.513 395.818 16.36 3.739 37.574-19.777 45.987-37.371-6.777-1.781-11.66-3.399 16.141 2.96 22.369 5.114 69.948 10.121 114.049 13.282-.7 19.951 52.188 78.3 96.68 58.218 33.139-14.952-46.015-81.877-4.147-164.338 15.917 19.803 43.981 28.818 71.195 20.506 35.064-10.707 78.096-55.785 56.124-82.221-25.285-30.418-39.207 31.841-75.792 34.293-14.214.957-22.884-.467-28.415-1.891-4.965-1.276-7.402-2.56-9.054-2.117 17.789-41.647 45.311-110.184 53.237-144.83 3.039-13.279 9.062-63.012-12.515-113.046a38.019 38.019 0 0 0 10.324-11.494c9.377-16.056 3.04-41.283-8.048-43.69-7.782-1.691-23.457-1.679-34.376 6.174-24.552-26.076-61.173-48.393-115.367-60.46-67.251-14.969-117.267-4.371-153.9 16.128a41.54 41.54 0 0 0-.28-2.344c-2.272-14.271-15.3-26.7-24.146-26.7-1.272.001-2.459.256-3.515.804"/></defs><clipPath id="k"><use xlink:href="#j" overflow="visible"/></clipPath><linearGradient id="l" gradientUnits="userSpaceOnUse" x1="183.583" y1="130.091" x2="186.773" y2="130.091" gradientTransform="scale(96.115) rotate(-77.115 14.494 180.34)"><stop offset="0" stop-color="#efb730"/><stop offset="1" stop-color="#ffd65a"/></linearGradient><path clip-path="url(#k)" fill="url(#l)" d="M-50.875 566.961l155.557-679.988L722.426 28.289 566.871 708.276z"/></g><path fill="#751113" d="M328.606 279.876c-7.088 30.981-27.465 54.627-62.364 46.644-34.901-7.98-32.214-21.57-32.962-54.744-.718-31.785-.472-29.853 50.505-24.04 49.095 5.587 51.907 1.167 44.821 32.14"/><path fill="#FFF" d="M260.089 242.57c.073-.497 1.333 9.683 4.145 13.178 3.603 5.658 18.379 10.935 28.549 9.892 11.328-1.389 11.206-8.068 13.047-12.916.3-2.002 2.842-4.188 1.828-4.848M405.361 184.205c.488-2.139.983-4.29.983-4.29l-.495 2.151.495-2.151c-4.227 3.547-7.325 9.604-8.795 16.03.488-2.137 2.12-1.768 2.12-1.768 3.731-1.397 5.062-14.631 8.294-13.892"/><g><g opacity=".65"><defs><path id="m" opacity=".65" d="M392.776 168.227h33.354v42.825h-33.354z"/></defs><clipPath id="n"><use xlink:href="#m" overflow="visible"/></clipPath><g clip-path="url(#n)"><defs><path id="o" d="M393.495 185.988c-2.667 11.651 2.316 22.729 11.134 24.746 8.814 2.015 18.124-5.799 20.786-17.445 2.663-11.646-2.318-22.73-11.132-24.745-8.819-2.019-18.127 5.799-20.788 17.444"/></defs><clipPath id="p"><use xlink:href="#o" overflow="visible"/></clipPath><linearGradient id="q" gradientUnits="userSpaceOnUse" x1="186.841" y1="134.615" x2="189.284" y2="134.615" gradientTransform="scale(-17.3 17.3) rotate(77.115 159.081 -59.172)"><stop offset="0" stop-color="#fff"/><stop offset="1"/></linearGradient><path clip-path="url(#p)" fill="url(#q)" d="M392.679 158.429l-11.901 52.022 45.449 10.396 11.9-52.022z"/></g></g><path fill="#231F20" d="M423.271 193.627c-2.265 9.906-10.169 16.548-17.664 14.833-7.494-1.711-11.731-11.136-9.466-21.038 2.262-9.896 10.179-16.536 17.668-14.823 7.495 1.714 11.727 11.132 9.462 21.028"/><path fill="#080809" d="M413.493 191.008c-1.65 7.218-6.534 12.254-10.91 11.255-4.372-1.001-6.581-7.665-4.93-14.877 1.649-7.218 6.532-12.257 10.909-11.254 4.374 1.001 6.584 7.66 4.931 14.876"/><defs><path id="r" d="M399.099 183.694c-1.01 4.418.935 8.633 4.345 9.412 3.414.782 6.998-2.166 8.007-6.585 1.01-4.421-.935-8.633-4.344-9.415a4.9 4.9 0 0 0-1.112-.125c-3.048 0-5.994 2.771-6.896 6.713"/></defs><clipPath id="s"><use xlink:href="#r" overflow="visible"/></clipPath><linearGradient id="t" gradientUnits="userSpaceOnUse" x1="182.338" y1="146.438" x2="185.528" y2="146.438" gradientTransform="rotate(-77.115 314.856 780.841) scale(5.0275)"><stop offset="0" stop-color="#fff"/><stop offset="1" stop-color="#bcbdc0"/></linearGradient><path clip-path="url(#s)" fill="url(#t)" d="M394.414 193.047l4.389-19.19 17.331 3.965-4.389 19.189z"/><g opacity=".65"><defs><path id="u" d="M184.243 138.921c-2.672 11.668 2.323 22.765 11.15 24.784 8.83 2.019 18.152-5.808 20.82-17.472 2.668-11.664-2.322-22.765-11.146-24.784-8.835-2.022-18.158 5.808-20.824 17.472"/></defs><clipPath id="v"><use xlink:href="#u" overflow="visible"/></clipPath><linearGradient id="w" gradientUnits="userSpaceOnUse" x1="186.875" y1="126.089" x2="189.322" y2="126.089" gradientTransform="scale(-17.3 17.3) rotate(77.115 161.503 -57.23)"><stop offset="0" stop-color="#fff"/><stop offset="1"/></linearGradient><path clip-path="url(#v)" fill="url(#w)" d="M183.425 111.316l-11.919 52.107 45.52 10.412 11.919-52.105z"/></g><path fill="#231F20" d="M213.644 145.672c-2.264 9.905-10.17 16.549-17.665 14.833-7.495-1.711-11.732-11.136-9.465-21.038 2.261-9.896 10.177-16.536 17.668-14.823 7.493 1.716 11.726 11.132 9.462 21.028"/><path fill="#FFF" d="M195.734 136.25c.487-2.14.982-4.289.982-4.289l-.495 2.149.495-2.149c-4.226 3.546-7.327 9.602-8.796 16.028.489-2.139 2.118-1.767 2.118-1.767 3.734-1.396 5.064-14.631 8.298-13.892"/><g><path fill="#080809" d="M204.295 142.715c-1.652 7.218-6.534 12.255-10.909 11.254-4.373-1.001-6.583-7.663-4.93-14.878 1.647-7.215 6.534-12.255 10.91-11.253 4.372 1.001 6.582 7.659 4.929 14.877"/><defs><path id="x" d="M190.845 136.667c-1.007 4.421.936 8.633 4.348 9.415 3.409.782 6.99-2.172 8.004-6.589 1.012-4.42-.934-8.633-4.343-9.415a5.065 5.065 0 0 0-1.11-.125c-3.047.001-5.996 2.776-6.899 6.714"/></defs><clipPath id="y"><use xlink:href="#x" overflow="visible"/></clipPath><linearGradient id="z" gradientUnits="userSpaceOnUse" x1="182.257" y1="117.288" x2="185.446" y2="117.288" gradientTransform="rotate(-77.115 272.953 814.429) scale(5.0275)"><stop offset="0" stop-color="#fff"/><stop offset="1" stop-color="#bcbdc0"/></linearGradient><path clip-path="url(#y)" fill="url(#z)" d="M186.162 146.022l4.39-19.192 17.332 3.964-4.39 19.193z"/><g><defs><path id="A" d="M260.63 196.712c-1.515 6.615 5.036 13.757 14.625 15.952 9.586 2.194 18.589-1.394 20.105-8.007 1.51-6.618-5.464-17.279-15.054-19.478a16.188 16.188 0 0 0-3.575-.405c-8.067.001-14.78 6.157-16.101 11.938"/></defs><clipPath id="B"><use xlink:href="#A" overflow="visible"/></clipPath><linearGradient id="C" gradientUnits="userSpaceOnUse" x1="175.302" y1="129.934" x2="178.491" y2="129.934" gradientTransform="rotate(-77.115 296.892 779.192) scale(4.8607)"><stop offset="0" stop-color="#efb730"/><stop offset="1" stop-color="#fbad26"/></linearGradient><path clip-path="url(#B)" fill="url(#C)" d="M252.575 213.362l8.419-36.794 42.417 9.703-8.418 36.795z"/></g></g></g></svg>
