<?xml version="1.0" encoding="UTF-8"?>
<svg width="90px" height="90px" viewBox="0 0 90 90" version="1.1" xmlns="http://www.w3.org/2000/svg" xmlns:xlink="http://www.w3.org/1999/xlink">
    <!-- Generator: Sketch 51.1 (57501) - http://www.bohemiancoding.com/sketch -->
    <title>features2</title>
    <desc>Created with Sketch.</desc>
    <defs></defs>
    <g id="Symbols" stroke="none" stroke-width="1" fill="none" fill-rule="evenodd">
        <g id="features2" transform="translate(-232.000000, -70.000000)">
            <g id="wallet" transform="translate(243.000000, 80.000000)">
                <g id="Group" transform="translate(3.000000, 2.000000)" fill="#05C0A5" fill-rule="nonzero">
                    <polygon id="Shape" points="57.0293182 0.0458210117 0 12.8757043 0 14.4364825 57.0293182 14.4364825"></polygon>
                    <path d="M40.9986818,38.747393 C40.9986818,42.6837043 44.1930682,45.8739922 48.132,45.8739922 L63,45.8739922 L63,31.6207938 L48.132,31.6207938 C44.1916364,31.6207938 40.9986818,34.8125136 40.9986818,38.747393 Z" id="Shape"></path>
                </g>
                <g id="Group">
                    <rect id="Rectangle" fill="#FFFFFF" x="3" y="18" width="63" height="47"></rect>
                    <path d="M2.875,69 L66.125,69 C67.712,69 69,67.712 69,66.125 L69,17.321875 C69,15.7334375 67.712,14.446875 66.125,14.446875 L63.005625,14.446875 L63.005625,2.875 C63.005625,2.0024375 62.608875,1.175875 61.9260625,0.6310625 C61.24325,0.0848125 60.349125,-0.1221875 59.4995625,0.0704375 L2.2439375,12.9504375 C0.9315,13.245125 0,14.4095 0,15.755 L0,17.321875 L0,66.125 C0,67.712 1.2865625,69 2.875,69 Z M63.25,46.00575 L51.198,46.00575 C48.8333125,46.00575 46.911375,44.0866875 46.911375,41.7263125 C46.911375,39.367375 48.83475,37.446875 51.198,37.446875 L63.25,37.446875 L63.25,46.00575 Z M63.25,31.6983125 L51.198,31.6983125 C45.663625,31.6983125 41.161375,36.1976875 41.161375,41.72775 C41.161375,47.2578125 45.663625,51.7571875 51.198,51.7571875 L63.25,51.7571875 L63.25,63.25 L5.75,63.25 L5.75,20.196875 L60.130625,20.196875 L63.25,20.196875 L63.25,31.6983125 Z M57.255625,6.46875 L57.255625,14.446875 L21.7910625,14.446875 L57.255625,6.46875 Z" id="Shape" fill="#003945" fill-rule="nonzero"></path>
                    <path d="M21.9031875,26.8711875 L12.4070625,26.8711875 C10.8200625,26.8711875 9.5320625,28.1591875 9.5320625,29.7461875 L9.5320625,53.4620625 C9.5320625,55.0490625 10.818625,56.3370625 12.4070625,56.3370625 L21.9031875,56.3370625 C23.4901875,56.3370625 24.7781875,55.0490625 24.7781875,53.4620625 L24.7781875,29.7461875 C24.7781875,28.15775 23.491625,26.8711875 21.9031875,26.8711875 Z M19.0281875,50.5870625 L15.2820625,50.5870625 L15.2820625,32.6211875 L19.0281875,32.6211875 L19.0281875,50.5870625 Z" id="Shape" fill="#003945" fill-rule="nonzero"></path>
                </g>
            </g>
        </g>
    </g>
</svg>