<?xml version="1.0" encoding="UTF-8"?>
<svg width="90px" height="90px" viewBox="0 0 90 90" version="1.1" xmlns="http://www.w3.org/2000/svg" xmlns:xlink="http://www.w3.org/1999/xlink">
    <!-- Generator: Sketch 51.1 (57501) - http://www.bohemiancoding.com/sketch -->
    <title>features2</title>
    <desc>Created with Sketch.</desc>
    <defs></defs>
    <g id="Symbols" stroke="none" stroke-width="1" fill="none" fill-rule="evenodd">
        <g id="features2" transform="translate(-778.000000, -241.000000)">
            <g id="mewconnect-enable" transform="translate(784.000000, 247.000000)">
                <g id="mew-connect">
                    <g id="Group-8" transform="translate(12.679012, 0.000000)" fill="#05C0A5">
                        <circle id="Oval" cx="3.41358025" cy="3.41358025" r="3.41358025"></circle>
                        <circle id="Oval" cx="12.191358" cy="8.29012346" r="3.41358025"></circle>
                        <circle id="Oval" cx="20.9691358" cy="13.1666667" r="3.41358025"></circle>
                    </g>
                    <g id="Group-7" transform="translate(0.000000, 0.975309)">
                        <g id="box" transform="translate(27.150265, 0.711078)">
                            <g>
                                <polygon id="Path-2" fill="#FFFFFF" points="3.86792453 15.4098361 18.5660377 24.0399689 18.5660377 41.6065574 3.86792453 33.3084803"></polygon>
                                <polygon id="Path-2" fill="#FFFFFF" transform="translate(29.783019, 28.893443) scale(-1, 1) translate(-29.783019, -28.893443) " points="22.4339623 15.4098361 37.1320755 24.259499 37.1320755 42.3770492 22.4339623 33.7042761"></polygon>
                                <g id="package-(1)-copy-3" fill-rule="nonzero">
                                    <polygon id="Shape" fill="#00FFB0" points="20.1893939 23.1866667 29.6416268 17.6891306 38.5151515 12.5283806 20.1893939 1.88 11.3158692 7.04075004 1.86363636 12.5283806"></polygon>
                                    <path d="M40.995119,12.4458276 C40.9921905,12.2842634 40.9726667,12.1246575 40.9316667,11.9728851 C40.9140952,11.9072803 40.8789524,11.8495088 40.8545476,11.7868415 C40.8174524,11.6908822 40.7871905,11.5929645 40.7364286,11.5038594 C40.7012857,11.4421713 40.6505238,11.3922333 40.6085476,11.335441 C40.5499762,11.2561277 40.4982381,11.1719185 40.4279524,11.1014177 C40.3781667,11.0514797 40.3147143,11.0152502 40.2600476,10.970208 C40.184881,10.9094991 40.1155714,10.8419359 40.0306429,10.7919978 C40.0267381,10.7900395 40.0218571,10.7890603 40.0179524,10.7871019 C40.0140476,10.7851436 40.0120952,10.7822061 40.0081905,10.7802477 L21.4605714,0.254096397 C20.864119,-0.0846987989 20.1339286,-0.0846987989 19.5374762,0.254096397 L10.5604286,5.35364952 C10.5594524,5.35364952 10.5584762,5.35462869 10.5575,5.35462869 L0.990833333,10.7792685 C0.986928571,10.7812269 0.984,10.7851436 0.981071429,10.7871019 C0.977166667,10.7890603 0.972285714,10.7900395 0.969357143,10.7919978 C0.886380952,10.8399775 0.82,10.9065615 0.746785714,10.9653121 C0.689190476,11.0113335 0.623785714,11.0485422 0.57302381,11.1004385 C0.500785714,11.1728976 0.447095238,11.258086 0.387547619,11.3403369 C0.34752381,11.3951708 0.297738095,11.4441296 0.264547619,11.5028802 C0.208904762,11.5988396 0.174738095,11.7055698 0.136666667,11.8093626 C0.116166667,11.8641965 0.0849285714,11.9151137 0.0693095238,11.971906 C0.0292857143,12.1187825 0.0126904762,12.2715341 0.00878571429,12.4272232 C0.00683333333,12.4458276 0,12.4634527 0,12.4830363 L0,34.5145158 C0,35.2205023 0.378761905,35.8716549 0.990833333,36.2192627 L19.5384524,46.745414 C19.6380238,46.8012271 19.7444286,46.8345191 19.8498571,46.8717278 C19.900619,46.8903322 19.9484524,46.9197075 20.0011667,46.933416 C20.1641905,46.9774789 20.3320952,47 20.5,47 C20.6679048,47 20.8358095,46.9774789 20.9988333,46.9343951 C21.0505714,46.9206867 21.0984048,46.8913114 21.1501429,46.872707 C21.2555714,46.8354983 21.3619762,46.8022063 21.4615476,46.7463932 L40.0091667,36.2202419 C40.6212381,35.8726341 41,35.2214815 41,34.515495 L41,12.4840155 C41,12.470307 40.995119,12.4585569 40.995119,12.4458276 Z M3.9047619,15.8435713 L18.547619,24.1616788 L18.547619,41.6830696 L3.9047619,33.3727955 L3.9047619,15.8435713 Z M37.0952381,33.3727955 L22.452381,41.6830696 L22.452381,24.1616788 L37.0952381,15.8435713 L37.0952381,33.3727955 Z" id="Shape" stroke="#003945" fill="#003945"></path>
                                    <polygon id="Shape" fill="#05C0A5" points="20.8789841 19.3176301 34.9246349 11.5933333 20.8270509 3.63713183 6.83333333 11.6728873"></polygon>
                                </g>
                            </g>
                        </g>
                        <g id="box" transform="translate(0.000000, 16.096229)">
                            <g>
                                <polygon id="Path-2" fill="#FFFFFF" points="3.86792453 15.4098361 18.5660377 24.0399689 18.5660377 41.6065574 3.86792453 33.3084803"></polygon>
                                <polygon id="Path-2" fill="#FFFFFF" transform="translate(29.783019, 28.893443) scale(-1, 1) translate(-29.783019, -28.893443) " points="22.4339623 15.4098361 37.1320755 24.259499 37.1320755 42.3770492 22.4339623 33.7042761"></polygon>
                                <g id="package-(1)-copy-3" fill-rule="nonzero">
                                    <polygon id="Shape" fill="#00FFB0" points="20.1893939 23.1866667 29.6416268 17.6891306 38.5151515 12.5283806 20.1893939 1.88 11.3158692 7.04075004 1.86363636 12.5283806"></polygon>
                                    <path d="M40.995119,12.4458276 C40.9921905,12.2842634 40.9726667,12.1246575 40.9316667,11.9728851 C40.9140952,11.9072803 40.8789524,11.8495088 40.8545476,11.7868415 C40.8174524,11.6908822 40.7871905,11.5929645 40.7364286,11.5038594 C40.7012857,11.4421713 40.6505238,11.3922333 40.6085476,11.335441 C40.5499762,11.2561277 40.4982381,11.1719185 40.4279524,11.1014177 C40.3781667,11.0514797 40.3147143,11.0152502 40.2600476,10.970208 C40.184881,10.9094991 40.1155714,10.8419359 40.0306429,10.7919978 C40.0267381,10.7900395 40.0218571,10.7890603 40.0179524,10.7871019 C40.0140476,10.7851436 40.0120952,10.7822061 40.0081905,10.7802477 L21.4605714,0.254096397 C20.864119,-0.0846987989 20.1339286,-0.0846987989 19.5374762,0.254096397 L10.5604286,5.35364952 C10.5594524,5.35364952 10.5584762,5.35462869 10.5575,5.35462869 L0.990833333,10.7792685 C0.986928571,10.7812269 0.984,10.7851436 0.981071429,10.7871019 C0.977166667,10.7890603 0.972285714,10.7900395 0.969357143,10.7919978 C0.886380952,10.8399775 0.82,10.9065615 0.746785714,10.9653121 C0.689190476,11.0113335 0.623785714,11.0485422 0.57302381,11.1004385 C0.500785714,11.1728976 0.447095238,11.258086 0.387547619,11.3403369 C0.34752381,11.3951708 0.297738095,11.4441296 0.264547619,11.5028802 C0.208904762,11.5988396 0.174738095,11.7055698 0.136666667,11.8093626 C0.116166667,11.8641965 0.0849285714,11.9151137 0.0693095238,11.971906 C0.0292857143,12.1187825 0.0126904762,12.2715341 0.00878571429,12.4272232 C0.00683333333,12.4458276 0,12.4634527 0,12.4830363 L0,34.5145158 C0,35.2205023 0.378761905,35.8716549 0.990833333,36.2192627 L19.5384524,46.745414 C19.6380238,46.8012271 19.7444286,46.8345191 19.8498571,46.8717278 C19.900619,46.8903322 19.9484524,46.9197075 20.0011667,46.933416 C20.1641905,46.9774789 20.3320952,47 20.5,47 C20.6679048,47 20.8358095,46.9774789 20.9988333,46.9343951 C21.0505714,46.9206867 21.0984048,46.8913114 21.1501429,46.872707 C21.2555714,46.8354983 21.3619762,46.8022063 21.4615476,46.7463932 L40.0091667,36.2202419 C40.6212381,35.8726341 41,35.2214815 41,34.515495 L41,12.4840155 C41,12.470307 40.995119,12.4585569 40.995119,12.4458276 Z M3.9047619,15.8435713 L18.547619,24.1616788 L18.547619,41.6830696 L3.9047619,33.3727955 L3.9047619,15.8435713 Z M37.0952381,33.3727955 L22.452381,41.6830696 L22.452381,24.1616788 L37.0952381,15.8435713 L37.0952381,33.3727955 Z" id="Shape" stroke="#003945" fill="#003945"></path>
                                    <polygon id="Shape" fill="#05C0A5" points="20.8789841 19.3176301 34.9246349 11.5933333 20.8270509 3.63713183 6.83333333 11.6728873"></polygon>
                                </g>
                            </g>
                        </g>
                        <g id="box" transform="translate(27.150265, 31.481379)">
                            <g>
                                <polygon id="Path-2" fill="#FFFFFF" points="3.86792453 15.4098361 18.5660377 24.0399689 18.5660377 41.6065574 3.86792453 33.3084803"></polygon>
                                <polygon id="Path-2" fill="#FFFFFF" transform="translate(29.783019, 28.893443) scale(-1, 1) translate(-29.783019, -28.893443) " points="22.4339623 15.4098361 37.1320755 24.259499 37.1320755 42.3770492 22.4339623 33.7042761"></polygon>
                                <g id="package-(1)-copy-3" fill-rule="nonzero">
                                    <polygon id="Shape" fill="#00FFB0" points="20.1893939 23.1866667 29.6416268 17.6891306 38.5151515 12.5283806 20.1893939 1.88 11.3158692 7.04075004 1.86363636 12.5283806"></polygon>
                                    <path d="M40.995119,12.4458276 C40.9921905,12.2842634 40.9726667,12.1246575 40.9316667,11.9728851 C40.9140952,11.9072803 40.8789524,11.8495088 40.8545476,11.7868415 C40.8174524,11.6908822 40.7871905,11.5929645 40.7364286,11.5038594 C40.7012857,11.4421713 40.6505238,11.3922333 40.6085476,11.335441 C40.5499762,11.2561277 40.4982381,11.1719185 40.4279524,11.1014177 C40.3781667,11.0514797 40.3147143,11.0152502 40.2600476,10.970208 C40.184881,10.9094991 40.1155714,10.8419359 40.0306429,10.7919978 C40.0267381,10.7900395 40.0218571,10.7890603 40.0179524,10.7871019 C40.0140476,10.7851436 40.0120952,10.7822061 40.0081905,10.7802477 L21.4605714,0.254096397 C20.864119,-0.0846987989 20.1339286,-0.0846987989 19.5374762,0.254096397 L10.5604286,5.35364952 C10.5594524,5.35364952 10.5584762,5.35462869 10.5575,5.35462869 L0.990833333,10.7792685 C0.986928571,10.7812269 0.984,10.7851436 0.981071429,10.7871019 C0.977166667,10.7890603 0.972285714,10.7900395 0.969357143,10.7919978 C0.886380952,10.8399775 0.82,10.9065615 0.746785714,10.9653121 C0.689190476,11.0113335 0.623785714,11.0485422 0.57302381,11.1004385 C0.500785714,11.1728976 0.447095238,11.258086 0.387547619,11.3403369 C0.34752381,11.3951708 0.297738095,11.4441296 0.264547619,11.5028802 C0.208904762,11.5988396 0.174738095,11.7055698 0.136666667,11.8093626 C0.116166667,11.8641965 0.0849285714,11.9151137 0.0693095238,11.971906 C0.0292857143,12.1187825 0.0126904762,12.2715341 0.00878571429,12.4272232 C0.00683333333,12.4458276 0,12.4634527 0,12.4830363 L0,34.5145158 C0,35.2205023 0.378761905,35.8716549 0.990833333,36.2192627 L19.5384524,46.745414 C19.6380238,46.8012271 19.7444286,46.8345191 19.8498571,46.8717278 C19.900619,46.8903322 19.9484524,46.9197075 20.0011667,46.933416 C20.1641905,46.9774789 20.3320952,47 20.5,47 C20.6679048,47 20.8358095,46.9774789 20.9988333,46.9343951 C21.0505714,46.9206867 21.0984048,46.8913114 21.1501429,46.872707 C21.2555714,46.8354983 21.3619762,46.8022063 21.4615476,46.7463932 L40.0091667,36.2202419 C40.6212381,35.8726341 41,35.2214815 41,34.515495 L41,12.4840155 C41,12.470307 40.995119,12.4585569 40.995119,12.4458276 Z M3.9047619,15.8435713 L18.547619,24.1616788 L18.547619,41.6830696 L3.9047619,33.3727955 L3.9047619,15.8435713 Z M37.0952381,33.3727955 L22.452381,41.6830696 L22.452381,24.1616788 L37.0952381,15.8435713 L37.0952381,33.3727955 Z" id="Shape" stroke="#003945" fill="#003945"></path>
                                    <polygon id="Shape" fill="#05C0A5" points="20.8789841 19.3176301 34.9246349 11.5933333 20.8270509 3.63713183 6.83333333 11.6728873"></polygon>
                                </g>
                            </g>
                        </g>
                    </g>
                    <g id="Group-9" transform="translate(54.617284, 58.518519)" fill="#05C0A5">
                        <circle id="Oval" cx="3.41358025" cy="3.41358025" r="3.41358025"></circle>
                        <circle id="Oval" cx="12.191358" cy="8.29012346" r="3.41358025"></circle>
                        <circle id="Oval" cx="20.9691358" cy="13.1666667" r="3.41358025"></circle>
                    </g>
                </g>
            </g>
        </g>
    </g>
</svg>