<?xml version="1.0" encoding="UTF-8"?>
<svg width="90px" height="90px" viewBox="0 0 90 90" version="1.1" xmlns="http://www.w3.org/2000/svg" xmlns:xlink="http://www.w3.org/1999/xlink">
    <!-- Generator: Sketch 51.1 (57501) - http://www.bohemiancoding.com/sketch -->
    <title>features2</title>
    <desc>Created with Sketch.</desc>
    <defs></defs>
    <g id="Symbols" stroke="none" stroke-width="1" fill="none" fill-rule="evenodd">
        <g id="features2" transform="translate(-232.000000, -241.000000)">
            <g id="swap-icon" transform="translate(243.000000, 251.000000)">
                <g>
                    <path d="M59.9203617,11.4212437 C64.3755125,11.4212437 68,15.0607234 68,19.5347801 C68,24.0088368 64.3755125,27.6484546 59.9203617,27.6484546 L15.1021001,27.6484546 L21.5095436,34.08289 C22.6456181,35.2237503 22.6456181,37.0731929 21.5095436,38.2140532 C20.9416439,38.7846214 20.1969635,39.0697674 19.4526958,39.0697674 C18.708428,39.0697674 17.9638852,38.7844833 17.3958479,38.2140532 L0.85205585,21.6004307 C-0.284018617,20.4595705 -0.284018617,18.6101279 0.85205585,17.4692676 L6.00758875,12.2922929 C6.01708126,12.2824841 6.02671134,12.2729516 6.03634142,12.2634191 L17.3959855,0.855645211 C18.5319224,-0.28521507 20.3740194,-0.28521507 21.5098187,0.855645211 C22.6458932,1.99650549 22.6458932,3.84594804 21.5098187,4.98680832 L15.1023753,11.4212437 L59.9203617,11.4212437 Z" id="Shape" fill="#003945" fill-rule="nonzero"></path>
                    <path d="M59.9207744,21.8060011 L9.2845679,21.8060011 L7.02287448,19.5347801 L9.28429275,17.2638354 L59.9206368,17.2638354 C61.1678699,17.2638354 62.1823302,18.2825692 62.1823302,19.5347801 C62.1823302,20.7871292 61.1678699,21.8060011 59.9207744,21.8060011 Z" id="Path" fill="#05C0A5"></path>
                    <path d="M67.1478779,48.3995002 L50.6039985,31.7858778 C49.4682026,30.6450175 47.6262488,30.6450175 46.4901777,31.7858778 C45.3541067,32.926738 45.3541067,34.7761806 46.4901777,35.9170409 L52.8976018,42.3514763 L8.07933868,42.3514763 C3.62433895,42.3514763 0,45.9910941 0,50.4651508 C0,54.9390694 3.62433895,58.578549 8.07933868,58.578549 L52.8976018,58.578549 L46.4901777,65.0131226 C45.3541067,66.1539829 45.3541067,68.0034254 46.4901777,69.1442857 C47.0582133,69.7147159 47.8027539,70 48.5470193,70 C49.2912848,70 50.035963,69.714854 50.6038609,69.1442857 L61.9636081,57.73665 C61.9700281,57.730295 63.6980264,55.99492 67.1476028,52.5305251 C68.2840865,51.389803 68.2840865,49.5403605 67.1478779,48.3995002 Z M58.7158042,52.7359574 L8.07933868,52.7359574 C6.83238449,52.7359574 5.81792727,51.7172236 5.81792727,50.4650127 C5.81792727,49.2128018 6.83238449,48.1937917 8.07933868,48.1937917 L58.7155291,48.1937917 L60.9772156,50.4650127 L58.7158042,52.7359574 Z" id="Shape" fill="#003945" fill-rule="nonzero"></path>
                </g>
            </g>
        </g>
    </g>
</svg>