<?xml version="1.0" encoding="utf-8"?>
<!-- Generator: Adobe Illustrator 23.0.1, SVG Export Plug-In . SVG Version: 6.00 Build 0)  -->
<svg version="1.1" id="Layer_1" xmlns="http://www.w3.org/2000/svg" xmlns:xlink="http://www.w3.org/1999/xlink" x="0px" y="0px"
	 viewBox="0 0 60 60" style="enable-background:new 0 0 60 60;" xml:space="preserve">
<style type="text/css">
	.st0{fill:url(#SVGID_1_);}
	.st1{fill:#FFFFFF;}
</style>
<linearGradient id="SVGID_1_" gradientUnits="userSpaceOnUse" x1="11.3532" y1="63.3972" x2="47.5332" y2="-1.4028">
	<stop  offset="0" style="stop-color:#003A7F"/>
	<stop  offset="1.461405e-02" style="stop-color:#003676"/>
	<stop  offset="7.421499e-02" style="stop-color:#002857"/>
	<stop  offset="0.1417" style="stop-color:#001B3B"/>
	<stop  offset="0.2179" style="stop-color:#001125"/>
	<stop  offset="0.3068" style="stop-color:#000914"/>
	<stop  offset="0.4169" style="stop-color:#000409"/>
	<stop  offset="0.5713" style="stop-color:#000102"/>
	<stop  offset="1" style="stop-color:#000000"/>
</linearGradient>
<path class="st0" d="M47.5,60h-35C5.6,60,0,54.4,0,47.5v-35C0,5.6,5.6,0,12.5,0h35C54.4,0,60,5.6,60,12.5v35
	C60,54.4,54.4,60,47.5,60z"/>
<title>icon</title>
<desc>Created with Sketch.</desc>
<g>
	<path class="st1" d="M49.4,37.8c-0.4,0-0.8,0-1.1,0c-0.4,0-0.7,0-1.1,0c-0.4,0-0.5-0.2-0.4-0.7c0-0.2,0-0.4,0-0.6c0,0-0.1,0-0.1,0
		c-0.7,2.2-3,1.7-3.8-0.3c-0.8-2.1-0.7-5.7,0.4-7.5c0.7-1.1,1.5-1.5,2.3-1.2c0.4,0.1,0.8,0.7,1.1,1c0-1.7,0-3.6,0-5.5
		c0-0.2-0.2-0.4-0.3-0.5c-0.2-0.1-0.3-0.1-0.5-0.3c0.9,0,1.7,0,2.6,0c0,0.2,0,0.5,0,0.7c0,4.6,0,9.2,0,13.8c0,0.5,0.1,0.8,0.5,0.9
		c0.1,0,0.3,0.1,0.4,0.1C49.4,37.6,49.4,37.7,49.4,37.8z M44.2,32.9c0.1,1.1,0.2,2.4,0.4,3.8c0.1,0.8,0.5,1,1,0.8
		c0.5-0.3,0.8-0.9,0.9-1.7c0.1-0.9,0.2-1.8,0.2-2.6c0-1.4,0.1-2.7-0.3-4c-0.2-0.9-0.7-1.3-1.1-1.3c-0.5,0.1-0.8,0.6-0.9,1.6
		C44.3,30.4,44.3,31.5,44.2,32.9z"/>
	<path class="st1" d="M32.6,27.5c0.8,0,1.5,0,2.3,0c-1.1,0.5-1.5,2.2-2.3,3.2c0.8,2.1,1.6,4.1,2.4,6.1c0.2,0.4,0.5,0.5,0.8,0.8
		c-1.2,0-2.3,0-3.5,0c0,0,0-0.1,0-0.1c0.1-0.1,0.3-0.1,0.4-0.2c0.2-0.1,0.3-0.3,0.2-0.6c-0.5-1.4-1-2.8-1.5-4.2
		c-0.1-0.2-0.3-0.3-0.5-0.5c0,1.5,0,2.9,0,4.3c0,0.6,0.1,1,0.5,1c0.1,0,0.2,0.1,0.3,0.2c-1.2,0-2.3,0-3.5,0c0,0,0-0.1,0-0.1
		c0.1,0,0.2-0.1,0.2-0.1c0.6-0.2,0.6-0.2,0.6-1.2c0-4.3,0-8.5,0-12.8c0-1.1,0-1.1-0.6-1.3c-0.1,0-0.1-0.1-0.2-0.2c0.9,0,1.7,0,2.6,0
		c0,3.3,0,6.6,0,9.9c0.4,0.1,0.7,0,1-0.5c0.4-0.7,0.8-1.5,1.2-2.3c0.4-0.9,0.3-1.2-0.3-1.4c-0.1,0-0.1-0.1-0.2-0.1
		C32.5,27.6,32.5,27.6,32.6,27.5z"/>
	<path class="st1" d="M16.1,27.3c-0.1-0.2-0.2-0.3-0.2-0.4c0-0.2-0.1-0.5-0.1-0.7c-0.4-3.4-2.4-3.6-3.6-2.5c-0.9,0.9-1,3.1,0,3.9
		c0.5,0.5,1.1,0.7,1.6,1.1c0.5,0.4,1.1,0.7,1.6,1.1c1,0.8,1.4,2.3,1.3,4.1C16.6,35.7,16,37,15,37.6c-1.1,0.6-2.2,0.5-3.2-0.3
		c-0.1-0.1-0.2-0.1-0.3-0.2c-0.3-0.2-0.5-0.2-0.5,0.4c0,0.1-0.1,0.2-0.2,0.3c0-1.5,0-3,0-4.5c0,0,0.1,0,0.1-0.1
		c0,0.2,0.1,0.4,0.1,0.6c0.3,2.9,2,4.5,3.7,3.5c0.8-0.5,1.2-1.6,1.1-2.8c-0.1-0.8-0.4-1.4-0.8-1.7c-0.7-0.5-1.4-0.9-2-1.3
		c-0.3-0.2-0.6-0.4-0.9-0.7c-1.1-0.9-1.5-2.3-1.4-4.4c0.1-1.7,0.9-3.1,1.9-3.5c0.9-0.3,1.8-0.3,2.7,0.4c0.3,0.3,0.6,0.3,0.6-0.4
		c0-0.1,0.1-0.1,0.2-0.3C16.1,24.2,16.1,25.7,16.1,27.3z"/>
	<path class="st1" d="M28,37.1c-0.2,0.6-0.6,0.7-1,0.8c-0.7,0.1-1.4,0.2-1.7-1.3c-0.6,1.6-1.5,1.6-2.4,1.2c-0.8-0.3-1.2-1.4-1.2-2.9
		c0-1.3,0.4-2.1,1.3-2.3c0.7-0.2,1.5-0.3,2.3-0.4c0-1.2,0-2.4,0-3.6c0-0.3-0.3-0.7-0.5-0.8c-0.9-0.3-1.5,0.1-1.5,1.8
		c0,0.2,0,0.4,0,0.6c0,0.6-0.3,0.8-0.6,0.8c-0.3,0-0.5-0.3-0.5-0.8c0-1,0.2-1.7,0.7-2.1c1.2-0.9,2.4-0.9,3.5-0.1
		c0.5,0.4,0.7,1.2,0.7,2c0,2,0,3.9,0,5.9c0,0.2,0,0.4,0,0.6c0,0.9,0.2,1.1,0.7,0.6c0.1-0.1,0.2-0.1,0.2-0.2C28,37,28,37,28,37.1z
		 M25.3,32.5c-0.5,0.1-0.9,0.1-1.3,0.2c-0.2,0.1-0.4,0.4-0.5,0.7c-0.3,1-0.3,2.1,0,3.2c0.1,0.6,0.4,0.8,0.8,0.6
		c0.5-0.2,0.8-0.8,0.8-1.5C25.3,34.7,25.3,33.7,25.3,32.5z"/>
	<path class="st1" d="M37.6,32.3c0,1.4,0,2.6,0.3,3.9c0.3,1.2,1.2,1.7,2,1.1c0.5-0.4,0.9-1,1.1-2c0-0.2,0-0.5,0.1-0.6
		c0.1-0.2,0.2-0.3,0.3-0.3c0.1,0,0.2,0.3,0.2,0.5c-0.1,0.4-0.1,0.8-0.3,1.2c-0.4,1-1,1.7-1.7,1.9c-1.6,0.4-3-0.3-3.6-2.7
		c-0.5-1.9-0.4-3.8,0.3-5.6c0.9-2.5,3.2-2.6,4.3-1.4c0.7,0.8,1,2,1,3.4c0,0.6-0.2,0.9-0.5,0.9c-1,0-2,0-3,0
		C37.9,32.3,37.8,32.3,37.6,32.3z M37.6,32c0.7,0,1.3,0,1.9,0c0.2,0,0.5-0.2,0.4-0.7c0-0.9,0-1.7-0.1-2.6c-0.1-0.9-0.5-1.2-1.1-1.1
		c-0.4,0.2-0.7,0.6-0.8,1.3C37.7,30,37.7,30.9,37.6,32z"/>
	<path class="st1" d="M19.8,27.5c0.5,0,0.9,0,1.2,0c0,0.1,0,0.1,0,0.2c-0.4,0-0.8,0-1.2,0c0,0.3,0,0.6,0,0.8c0,2.4,0,4.9,0,7.3
		c0,0.2,0,0.3,0,0.5c0.1,0.4,0.2,0.9,0.3,1c0.2,0.1,0.5-0.1,0.7-0.2c0.1-0.1,0.3-0.3,0.4-0.5c0,0.1,0.1,0.1,0.1,0.2
		c-0.1,0.2-0.2,0.4-0.3,0.6c-0.6,0.8-1.8,1-2.5,0.3c-0.4-0.4-0.6-1.1-0.6-1.9c0-2.4,0-4.7,0-7.1c0-0.3,0-0.5,0-0.8
		c-0.3,0-0.6-0.1-0.9-0.1c0-0.1,0-0.1,0-0.2c0.2,0,0.3-0.1,0.5-0.1c0.8-0.1,1.3-0.9,1.6-2.1c0.1-0.3,0.2-0.6,0.4-0.8
		c0,0.3,0.1,0.6,0.1,1C19.8,26,19.8,26.7,19.8,27.5z"/>
</g>
</svg>
