<?xml version="1.0" standalone="no"?>
<!DOCTYPE svg PUBLIC "-//W3C//DTD SVG 20010904//EN"
 "http://www.w3.org/TR/2001/REC-SVG-20010904/DTD/svg10.dtd">
<svg version="1.0" xmlns="http://www.w3.org/2000/svg"
 width="1119.000000pt" height="313.000000pt" viewBox="0 0 1119.000000 313.000000"
 preserveAspectRatio="xMidYMid meet">

<g transform="translate(0.000000,313.000000) scale(0.100000,-0.100000)"
fill="#000000" stroke="none">
<path d="M2 2793 l3 -338 808 -3 808 -2 -3 -334 -3 -334 -30 -43 c-19 -27 -50
-54 -84 -71 l-53 -28 -242 0 c-212 0 -246 -3 -281 -19 -50 -22 -91 -69 -105
-119 -14 -52 -13 -510 2 -553 17 -52 46 -88 88 -109 36 -18 60 -20 310 -20
309 0 326 4 377 82 l28 41 5 256 c5 238 7 259 27 296 26 50 65 86 120 114 40
20 57 21 348 21 l305 0 0 -810 0 -810 340 0 340 0 0 1560 0 1560 -1555 0
-1555 0 2 -337z"/>
<path d="M4110 1887 c0 -684 -3 -1386 -7 -1560 l-6 -317 341 0 342 0 0 575 0
575 490 0 c403 0 496 -3 518 -14 36 -19 78 -65 91 -99 7 -19 11 -201 11 -533
l0 -504 335 0 336 0 -3 537 c-4 607 -2 592 -82 700 -71 98 -190 163 -338 188
-35 5 -38 8 -38 40 0 32 4 36 73 72 92 48 220 173 264 258 60 114 85 222 90
393 6 174 -5 266 -46 384 -39 110 -85 181 -176 274 -94 95 -183 151 -320 200
-191 68 -173 67 -1067 71 l-808 4 0 -1244z m1415 562 c106 -19 187 -75 230
-158 8 -16 19 -61 26 -100 21 -138 -22 -270 -110 -338 -77 -60 -104 -63 -518
-63 l-373 0 0 335 0 335 343 0 c205 0 367 -4 402 -11z"/>
<path d="M6997 3123 c-4 -3 -7 -136 -7 -295 l0 -288 205 0 205 0 0 -980 0
-980 -205 0 -205 0 0 -290 0 -290 745 0 745 0 0 290 0 290 -200 0 -200 0 0
980 0 980 200 0 200 0 0 295 0 295 -738 0 c-406 0 -742 -3 -745 -7z"/>
<path d="M8990 1570 l0 -1560 335 0 335 0 0 540 c0 511 1 543 19 578 23 46 46
67 94 87 31 13 117 15 612 15 l575 0 0 310 0 310 -650 0 -650 0 0 300 0 300
760 0 760 0 0 340 0 340 -1095 0 -1095 0 0 -1560z"/>
<path d="M288 801 c-77 -25 -117 -52 -181 -121 -75 -81 -100 -147 -101 -265
-2 -151 56 -265 175 -344 83 -56 152 -75 248 -69 108 7 179 38 255 109 168
157 177 411 21 578 -109 117 -268 159 -417 112z"/>
</g>
</svg>
