<svg version="1.1" id="Layer_1" xmlns="http://www.w3.org/2000/svg" xmlns:xlink="http://www.w3.org/1999/xlink" x="0" y="0" viewBox="0 0 397 387" xml:space="preserve"><style/><defs><path id="SVGID_1_" d="M25.28 193.59c0 95.05 77.33 172.38 172.38 172.38s172.38-77.33 172.38-172.38S292.71 21.22 197.66 21.22 25.28 98.54 25.28 193.59"/></defs><clipPath id="SVGID_00000059286493294856411500000011588046309768363164_"><use xlink:href="#SVGID_1_" overflow="visible"/></clipPath><linearGradient id="SVGID_00000176001327021345708610000001868965450748901803_" gradientUnits="userSpaceOnUse" x1="-761.904" y1="737.106" x2="-760.904" y2="737.106" gradientTransform="scale(357.2363 -357.2363) rotate(-45 -1270.846 -551.486)"><stop offset="0" stop-color="#1dc0cc"/><stop offset=".5" stop-color="#8e15f8"/><stop offset="1" stop-color="#e20000"/></linearGradient><path clip-path="url(#SVGID_00000059286493294856411500000011588046309768363164_)" fill="url(#SVGID_00000176001327021345708610000001868965450748901803_)" d="M197.66-151.16l344.75 344.75-344.75 344.75-344.75-344.75z"/><defs><path id="SVGID_00000122709530154060510220000016775563932512718014_" d="M-206.84-346.41h1920v1080h-1920z"/></defs><clipPath id="SVGID_00000129195594574759787450000009704644775612706699_"><use xlink:href="#SVGID_00000122709530154060510220000016775563932512718014_" overflow="visible"/></clipPath><path d="M287.25 161.32V261.6h-33.8V161.32c0-14.97-12.18-27.16-27.16-27.16v-33.8c33.61 0 60.96 27.34 60.96 60.96m-118.22 7.63v33.8c-14.98 0-27.16 12.18-27.16 27.16v31.69h-33.8v-31.69c0-33.62 27.35-60.96 60.96-60.96m11.73-34.91h33.8V261.6h-33.8z" clip-path="url(#SVGID_00000129195594574759787450000009704644775612706699_)" fill="#fff"/></svg>