<svg width="64" height="64" xmlns="http://www.w3.org/2000/svg"><g transform="translate(4.497 4.754)" fill="none"><rect fill="#CDF4EE" x=".503" y=".246" width="54" height="54" rx="14"/><g stroke-width=".5"><path d="M44.128 28.278v4.083h.116c1.822 0 3.645.002 5.467-.002.344 0 .65.267.714.642.085.5-.205.956-.627.956-2.148.003-4.296 0-6.443.003-.344 0-.654-.33-.672-.723-.008-.173-.018-.345-.018-.517-.001-3.602-.002-7.204 0-10.805 0-.439.184-.757.51-.88a.554.554 0 01.193-.034L49.773 21c.356 0 .654.344.665.778.01.416-.22.696-.474.781a.673.673 0 01-.21.037c-1.835.002-3.67.002-5.505.002h-.119v4.082h.112c1.658 0 3.316.003 4.975-.001.346-.001.646.364.65.769.003.308-.09.55-.322.71a.638.638 0 01-.37.12h-5.047zm-38.235-.011h-.768a.806.806 0 01-.805-.816.823.823 0 01.568-.813.69.69 0 01.219-.03c.487-.002.974 0 1.461 0 .206-.507.412-1.009.615-1.512.188-.463.372-.928.56-1.391.177-.438.356-.874.537-1.31.097-.236.188-.477.304-.704.156-.303.376-.545.72-.634a.895.895 0 01.227-.037c.252.001.507-.004.757.024.222.025.398.163.55.327.315.338.418.786.597 1.193.177.402.333.814.497 1.222.224.556.445 1.113.67 1.669.199.49.402.977.601 1.467.174.427.343.856.517 1.283.213.526.43 1.05.644 1.577.173.427.343.856.516 1.283.199.486.398.972.6 1.456.095.226.173.45.153.705-.03.385-.297.685-.687.722-.307.03-.561-.054-.747-.297a1.937 1.937 0 01-.24-.448c-.216-.532-.42-1.07-.63-1.604a705.26 705.26 0 00-.795-2.02c-.212-.538-.43-1.074-.642-1.611-.282-.716-.56-1.434-.842-2.15-.24-.61-.486-1.22-.728-1.83-.153-.385-.302-.772-.453-1.158-.012-.03-.03-.056-.05-.095l-1.532 3.872c.244 0 .469.01.692-.002.494-.027.87.394.855.857-.011.327-.247.687-.559.765a.977.977 0 01-.227.038c-.44.004-.88.002-1.321.001-.062 0-.096.008-.124.08a593.08 593.08 0 01-1.264 3.208c-.248.627-.489 1.257-.751 1.877-.126.298-.353.492-.694.515-.336.023-.62-.066-.787-.389a.949.949 0 01-.028-.817c.262-.652.524-1.303.789-1.954.262-.647.528-1.294.792-1.94l.233-.58" stroke="#00C0A5" fill="#05C0A5"/><path d="M22.793 22.717l-1.538 3.887c.252 0 .492.002.731 0 .52-.007.896.481.804.987a.84.84 0 01-.809.675c-.46-.008-.919-.002-1.384-.002-.22.562-.438 1.124-.66 1.684-.227.575-.46 1.147-.687 1.721-.225.568-.439 1.14-.673 1.704-.13.312-.347.533-.706.573-.251.029-.48-.024-.666-.191-.157-.142-.221-.34-.241-.554-.026-.274.091-.508.189-.75l.637-1.58.838-2.05.228-.557H18.1a.792.792 0 01-.699-.375c-.203-.306-.16-.772.092-1.028a.82.82 0 01.618-.258c.441.003.883-.001 1.325.003.078 0 .11-.028.138-.1.175-.442.357-.881.536-1.322l.56-1.382.496-1.213c.12-.292.235-.587.368-.873.136-.29.347-.514.647-.639a.394.394 0 01.109-.034c.42-.035.843-.112 1.242.1.238.125.407.329.518.567.172.37.32.751.475 1.129.166.404.328.81.491 1.214.227.563.452 1.127.681 1.689.251.615.507 1.227.758 1.842.223.55.44 1.101.663 1.65.226.556.458 1.11.684 1.666.212.522.422 1.046.63 1.57.065.162.145.322.174.49.076.431-.102.872-.581.975-.438.095-.819-.08-1.016-.56-.236-.574-.459-1.154-.686-1.732-.283-.72-.564-1.441-.849-2.16-.257-.651-.518-1.3-.776-1.95-.28-.71-.558-1.42-.84-2.13-.212-.538-.43-1.074-.643-1.612l-.423-1.074" stroke="#5A78F0" fill="#5A78F0"/><path d="M34.029 32.24l.896-2.276 1.034-2.615c.245-.617.494-1.233.739-1.85.28-.706.556-1.414.835-2.121.222-.565.447-1.129.668-1.695.09-.227.21-.428.42-.559.393-.244 1.119-.12 1.222.53.045.28-.034.521-.135.767l-.537 1.311-.496 1.213-.517 1.273c-.166.408-.331.817-.498 1.224l-.512 1.253-.5 1.234c-.224.556-.445 1.114-.673 1.67-.225.552-.443 1.109-.69 1.65-.16.35-.423.622-.817.686a3.379 3.379 0 01-.711.013 1.288 1.288 0 01-.419-.094 1.04 1.04 0 01-.532-.532c-.144-.3-.274-.608-.402-.915-.17-.407-.333-.816-.498-1.224-.212-.523-.42-1.048-.633-1.571-.265-.651-.535-1.3-.8-1.952-.224-.55-.442-1.1-.664-1.65-.225-.553-.454-1.104-.679-1.657-.25-.615-.5-1.23-.747-1.847-.06-.15-.137-.3-.168-.458-.09-.461.079-.91.594-1.03.354-.081.778.11.934.448.142.31.265.629.39.945.213.535.42 1.071.63 1.607.194.492.387.985.582 1.477.226.57.457 1.14.683 1.712.284.72.564 1.441.849 2.16.2.506.404 1.01.605 1.514.166.42.329.84.494 1.26.013.032.033.062.053.098" stroke="#00C0A5" fill="#05C0A5"/></g></g></svg>