<svg width="64" height="64" xmlns="http://www.w3.org/2000/svg"><g fill="none"><path d="M59 18v35.309a3.492 3.492 0 01-3.492 3.492H8.492A3.492 3.492 0 015 53.309V18h54z" fill="#CDF4EE"/><path d="M59 18.476v-6.984A3.492 3.492 0 0055.508 8H8.492A3.492 3.492 0 005 11.492v6.984h54z" fill="#5A78F0"/><path d="M50.017 12h3.233a1.617 1.617 0 01.127 3.229l-.127.004h-3.233a1.617 1.617 0 01-.126-3.228l.126-.005h3.233-3.233zm-9.7 0h3.233a1.617 1.617 0 01.127 3.229l-.127.004h-3.233a1.617 1.617 0 01-.126-3.228l.126-.005h3.233-3.233zm-6.467 0a1.617 1.617 0 010 3.233h-3.233a1.617 1.617 0 010-3.233h3.233z" fill="#FFF"/><path d="M33.097 31h.034c.423 0 .824.217 1.074.58.222.322.303.732.228 1.12l-.036.143-2.544 9.398c-.165.545-.615.924-1.143.975l-.124.006h-.034a1.31 1.31 0 01-1.074-.58 1.488 1.488 0 01-.229-1.118l.036-.144 2.544-9.4c.165-.544.616-.923 1.144-.974l.124-.006h.034-.034zm-7.839.873c.259 0 .51.083.724.239.354.256.578.677.615 1.146l.006.142v.04c0 .546-.26 1.052-.672 1.323l-.106.062L21.5 37.11l4.325 2.285c.437.23.73.712.773 1.25l.005.136v.04c0 .524-.232 1.006-.621 1.288a1.23 1.23 0 01-.723.24c-.158 0-.311-.03-.458-.09l-.108-.052-6.916-3.656c-.436-.232-.73-.713-.772-1.25L17 37.165v-.109c0-.546.26-1.052.671-1.323l.106-.063 6.915-3.656c.175-.092.371-.141.566-.141zm13.167 0c.195 0 .39.049.565.141l6.915 3.656c.472.25.778.794.778 1.386v.11c0 .59-.306 1.134-.778 1.384l-6.915 3.657a1.206 1.206 0 01-1.29-.098c-.389-.282-.62-.764-.62-1.288v-.04c0-.592.305-1.136.777-1.386l4.325-2.285-4.325-2.284c-.473-.251-.778-.795-.778-1.386v-.04c0-.525.233-1.007.622-1.289.215-.156.466-.238.724-.238z" fill="#00C0A5"/></g></svg>