<svg xmlns="http://www.w3.org/2000/svg" fill="none" aria-hidden="true" viewBox="0 0 28 20"><path fill="#fff" d="M0 0h28v20H0V0z"/><path fill="#D6182D" d="M10.667 0h6.667v20h-6.667V0z"/><path fill="#1425A2" d="M0 6.667h28v6.667H0V6.667z"/><path fill="#fff" fill-rule="evenodd" d="M11.333 11.667l-.471.138.138-.472-.138-.471.47.138.473-.138-.138.47.138.473-.472-.138zm5.334 0l-.472.138.138-.472-.138-.471.472.138.47-.138-.137.47.138.473-.471-.138zm-8-1.334l-.472.138.138-.471-.138-.471.472.138.471-.138L9 10l.138.47-.471-.137zm10.666 0l-.471.138L19 10l-.138-.471.47.138.473-.138-.138.471.138.47-.472-.137zM14 9l-.471.138.138-.471-.138-.472.47.138.472-.138-.138.472.138.471L14 9z" clip-rule="evenodd"/></svg>