<svg width="140" height="47" fill="none" xmlns="http://www.w3.org/2000/svg"><path d="M128.851 0H11.155c-.429 0-.853 0-1.28.003-.359.002-.714.009-1.076.014-.785.01-1.57.08-2.344.208A7.533 7.533 0 00.959 4.251a7.78 7.78 0 00-.732 2.237c-.13.777-.2 1.564-.21 2.352-.01.36-.011.722-.017 1.082v27.16c.006.364.007.718.018 1.083.009.788.08 1.574.21 2.352.128.779.375 1.533.73 2.237.355.703.82 1.344 1.379 1.897a7.34 7.34 0 001.894 1.385c.7.358 1.45.608 2.224.741a15.61 15.61 0 002.344.208c.362.008.717.013 1.075.013.428.002.852.002 1.281.002h117.696c.421 0 .848 0 1.268-.002.357 0 .723-.005 1.079-.013.784-.01 1.566-.08 2.34-.208a7.923 7.923 0 002.232-.74 7.318 7.318 0 001.892-1.386 7.518 7.518 0 001.383-1.897 7.794 7.794 0 00.724-2.237 15.85 15.85 0 00.217-2.352c.005-.365.005-.719.005-1.084.009-.427.009-.851.009-1.285v-24.59c0-.431 0-.858-.009-1.284 0-.36 0-.722-.005-1.082a15.853 15.853 0 00-.217-2.352 7.792 7.792 0 00-.724-2.237 7.577 7.577 0 00-3.275-3.29 7.89 7.89 0 00-2.232-.736 15.205 15.205 0 00-2.34-.208c-.356-.005-.722-.012-1.079-.015-.42-.002-.847-.002-1.268-.002z" fill="#313131"/><path d="M28.978 23.853a5.84 5.84 0 01.754-2.795 5.804 5.804 0 012.003-2.083 5.936 5.936 0 00-2.036-1.822 5.907 5.907 0 00-2.633-.713c-1.965-.208-3.87 1.18-4.87 1.18-1.021 0-2.563-1.16-4.222-1.126a6.2 6.2 0 00-3.037.91A6.234 6.234 0 0012.74 19.7c-2.263 3.934-.575 9.716 1.592 12.896 1.085 1.558 2.352 3.297 4.01 3.236 1.623-.068 2.23-1.04 4.188-1.04 1.94 0 2.51 1.04 4.201 1 1.742-.028 2.839-1.564 3.885-3.136a12.903 12.903 0 001.777-3.634 5.6 5.6 0 01-2.483-2.068 5.636 5.636 0 01-.933-3.1zm-3.196-9.505a5.742 5.742 0 001.304-4.102c-1.45.153-2.79.85-3.752 1.95a5.455 5.455 0 00-1.338 3.95 4.778 4.778 0 003.786-1.798zM49.491 32.89h-5.538l-1.33 3.943h-2.345l5.245-14.591h2.437l5.245 14.591H50.82l-1.329-3.944zm-4.964-1.82h4.39l-2.165-6.401h-.06l-2.165 6.4zm20.007.445c0 3.305-1.762 5.43-4.42 5.43a3.578 3.578 0 01-1.933-.45 3.599 3.599 0 01-1.4-1.412h-.05v5.27h-2.175V26.194h2.105v1.77h.04a3.744 3.744 0 013.373-1.88c2.688-.001 4.46 2.133 4.46 5.43zm-2.235 0c0-2.154-1.108-3.57-2.8-3.57-1.66 0-2.778 1.446-2.778 3.57 0 2.143 1.117 3.578 2.779 3.578 1.69 0 2.799-1.405 2.799-3.578zm13.893 0c0 3.305-1.762 5.43-4.42 5.43a3.578 3.578 0 01-1.933-.45 3.6 3.6 0 01-1.4-1.412h-.05v5.27h-2.175V26.194h2.105v1.77h.04a3.744 3.744 0 013.373-1.88c2.688-.001 4.46 2.133 4.46 5.43zm-2.235 0c0-2.154-1.108-3.57-2.8-3.57-1.66 0-2.778 1.446-2.778 3.57 0 2.143 1.118 3.578 2.779 3.578 1.69 0 2.799-1.405 2.799-3.579zm9.94 1.253c.161 1.447 1.56 2.397 3.473 2.397 1.833 0 3.151-.95 3.151-2.255 0-1.133-.795-1.81-2.678-2.276l-1.883-.455c-2.667-.647-3.906-1.9-3.906-3.934 0-2.517 2.185-4.246 5.287-4.246 3.07 0 5.174 1.729 5.245 4.246H90.39c-.131-1.456-1.33-2.335-3.081-2.335-1.752 0-2.95.89-2.95 2.184 0 1.031.765 1.639 2.638 2.103l1.6.395c2.981.708 4.22 1.91 4.22 4.045 0 2.73-2.165 4.44-5.609 4.44-3.222 0-5.397-1.67-5.538-4.31h2.226zm13.613-9.091v2.518h2.014v1.73H97.51v5.864c0 .91.403 1.335 1.289 1.335.239-.004.478-.02.715-.05v1.719a5.943 5.943 0 01-1.207.1c-2.145 0-2.981-.808-2.981-2.871v-6.098h-1.54v-1.73h1.54v-2.517h2.184zm3.181 7.837c0-3.347 1.963-5.45 5.024-5.45 3.071 0 5.024 2.103 5.024 5.45 0 3.357-1.943 5.45-5.024 5.45s-5.024-2.093-5.024-5.45zm7.833 0c0-2.296-1.048-3.65-2.809-3.65-1.762 0-2.809 1.365-2.809 3.65 0 2.306 1.047 3.65 2.809 3.65 1.761 0 2.809-1.344 2.809-3.65zm4.008-5.319h2.074v1.81h.05c.14-.565.47-1.065.934-1.415a2.52 2.52 0 011.614-.506c.25-.001.5.026.745.081v2.043a3.032 3.032 0 00-.977-.132 2.18 2.18 0 00-1.694.7 2.207 2.207 0 00-.572 1.747v6.31h-2.174V26.195zm15.441 7.513c-.292 1.931-2.165 3.257-4.561 3.257-3.081 0-4.994-2.074-4.994-5.4 0-3.337 1.923-5.501 4.903-5.501 2.93 0 4.773 2.022 4.773 5.247v.748h-7.481v.132a2.789 2.789 0 00.748 2.153 2.755 2.755 0 002.102.86 2.39 2.39 0 002.446-1.496h2.064zm-7.35-3.175h5.296a2.568 2.568 0 00-.712-1.92 2.544 2.544 0 00-1.886-.78 2.674 2.674 0 00-1.909.786 2.685 2.685 0 00-.789 1.914zM41.87 8.954V16h2.64c2.11 0 3.316-1.294 3.316-3.555 0-2.212-1.22-3.49-3.315-3.49h-2.642zm1.259 1.089h1.216c1.382 0 2.197.884 2.197 2.422 0 1.572-.796 2.446-2.197 2.446h-1.216v-4.868zm8.621 6.064c1.596 0 2.568-1.044 2.568-2.778 0-1.728-.977-2.778-2.569-2.778-1.587 0-2.568 1.054-2.568 2.778 0 1.733.967 2.778 2.568 2.778zm0-1.015c-.846 0-1.329-.645-1.329-1.763 0-1.113.483-1.763 1.328-1.763.84 0 1.323.65 1.323 1.763 0 1.118-.478 1.763-1.323 1.763zm11.027-4.434H61.57l-.884 3.99h-.083l-1.035-3.99H58.41l-1.025 3.99h-.083l-.889-3.99h-1.22L56.639 16h1.26l1.035-3.848h.083L60.057 16h1.274l1.446-5.342zM64.136 16h1.211v-3.11c0-.787.454-1.285 1.177-1.285.737 0 1.08.41 1.08 1.226V16h1.21v-3.457c0-1.274-.65-1.992-1.84-1.992-.797 0-1.334.366-1.588.962h-.083v-.855h-1.167V16zm6.462 0h1.211V8.593H70.6V16zm5.349.107c1.597 0 2.569-1.044 2.569-2.778 0-1.728-.977-2.778-2.569-2.778-1.587 0-2.568 1.054-2.568 2.778 0 1.733.967 2.778 2.568 2.778zm0-1.015c-.844 0-1.328-.645-1.328-1.763 0-1.113.484-1.763 1.328-1.763.84 0 1.323.65 1.323 1.763 0 1.118-.478 1.763-1.323 1.763zm5.915.044c-.537 0-.922-.269-.922-.718 0-.435.317-.679.996-.723l1.206-.078v.425c0 .62-.547 1.094-1.28 1.094zm-.356.952c.698 0 1.284-.303 1.582-.82h.083V16h1.167v-3.648c0-1.132-.771-1.801-2.143-1.801-1.27 0-2.154.6-2.251 1.543h1.142c.112-.362.493-.557 1.05-.557.654 0 1.006.293 1.006.815v.45l-1.377.083c-1.299.078-2.026.635-2.026 1.601 0 .977.737 1.602 1.767 1.602zm6.526 0c.742 0 1.357-.347 1.66-.933h.083V16h1.172V8.593h-1.211v2.915h-.083c-.284-.586-.889-.938-1.621-.938-1.348 0-2.198 1.065-2.198 2.754 0 1.7.845 2.764 2.198 2.764zm.376-4.487c.83 0 1.342.664 1.342 1.728 0 1.074-.507 1.729-1.342 1.729-.83 0-1.333-.65-1.333-1.729 0-1.074.507-1.728 1.333-1.728zm9.638 4.506c1.596 0 2.568-1.044 2.568-2.778 0-1.728-.977-2.778-2.568-2.778-1.587 0-2.569 1.054-2.569 2.778 0 1.733.967 2.778 2.569 2.778zm0-1.015c-.845 0-1.328-.645-1.328-1.763 0-1.113.483-1.763 1.328-1.763.84 0 1.323.65 1.323 1.763 0 1.118-.479 1.763-1.323 1.763zm4.089.908h1.211v-3.11c0-.787.454-1.285 1.176-1.285.738 0 1.08.41 1.08 1.226V16h1.21v-3.457c0-1.274-.649-1.992-1.84-1.992-.796 0-1.333.366-1.587.962h-.083v-.855h-1.167V16zm9.765-6.65v1.342h-.845v.967h.845v2.915c0 1.035.488 1.45 1.714 1.45.234 0 .459-.024.634-.058v-.947c-.146.014-.239.024-.41.024-.508 0-.732-.234-.732-.762V11.66h1.142v-.967h-1.142V9.35H111.9zm3.908 6.65h1.211v-3.1c0-.767.444-1.285 1.24-1.285.704 0 1.075.415 1.075 1.226V16h1.211v-3.447c0-1.27-.694-1.993-1.836-1.993-.796 0-1.368.362-1.621.963H117v-2.93h-1.192V16zm8.713-4.487c.728 0 1.206.508 1.231 1.299h-2.515c.054-.782.562-1.3 1.284-1.3zm1.241 3.017c-.176.396-.591.616-1.192.616-.796 0-1.308-.557-1.338-1.446v-.063h3.731v-.39c0-1.685-.913-2.696-2.437-2.696-1.548 0-2.51 1.079-2.51 2.798 0 1.718.948 2.758 2.52 2.758 1.26 0 2.153-.605 2.373-1.577h-1.147z" fill="#fff"/></svg>