<svg xmlns="http://www.w3.org/2000/svg" version="1.0" viewBox="10.1 5.3 22.6 22.6"><path d="M21.4 27.9c6.3 0 11.3-5.1 11.3-11.3 0-6.3-5.1-11.3-11.3-11.3-6.3 0-11.3 5.1-11.3 11.3 0 6.2 5.1 11.3 11.3 11.3z" fill="#2c374b"/><path d="M27.6 12.5c-.1-.1-5-3-5.6-3.2-.2-.1-.7-.2-1-.1-.3.1-5.5 3.1-5.7 3.3-.1.1-.2.3-.3.4-.1.2-.1.3-.1 3.8v3.6l.7.4c.4.2.7.4.7.4.1 0 4.8-7.5 4.8-7.6 0-.1-1.1-.1-1.4 0-.4.1-.7.3-.9.5-.1.1-.7 1.1-1.5 2.2-.7 1.1-1.3 2.1-1.3 2.1v-4.9l.1-.1c.2-.2 5.3-3.1 5.5-3.1.1 0 .2 0 1.4.7.4.2 1.5.8 2.4 1.4.9.5 1.7 1 1.8 1.1l.1.1v5.2l-2.5-3.9c-.1-.2-.2-.4-.3-.5 0 0-.1.2-.7 1.2-.1.1-.2.3-.2.4l-.1.2.1.1.1.1s0 .1.1.1l.2.3s0 .1.1.1c.1.1.2.3.2.4v.1l2.1 3.4-.2.1c-.1.1-.2.1-.3.1l-2.6-4-.1-.1-.2.4-1 1.6 2 3.2c-.3.2-2 1.4-2.1 1.4-.1 0-2.4-1.5-2.3-1.6 0 0 .7-1.2 1.5-2.6.7-1.2 1.6-2.7 2.2-3.7.7-1.2 1-1.8 1-1.8h-2.1l-2.3 3.8c-.8 1.4-1.6 2.7-2 3.4-.7.1-.9.3-.9.3l-.1.2 1.8 1c1 .6 1.9 1.1 2.1 1.2.3.2.8.2 1 .2.2-.1 5.4-3.1 5.7-3.3.1-.1.2-.2.3-.4l.1-.3v-6.6l-.1-.2c0-.2-.2-.4-.2-.5zm-.6 6.1z" fill-rule="evenodd" clip-rule="evenodd" fill="#fff"/><path d="M27.1 18.6l-3-4.6-1.1 1.8 2.9 4.7 1.3-.6-.1-1.3zm-1.4 2.5l-3-4.6-1.3 2 2.4 3.8 1.5-.6.4-.6z" fill="#24a2ee"/><path d="M15.9 13.4l5.5-3.2 5.5 3.2v6.4L21.4 23l-4.1-2.3-.5.9 4.5 2.6c.1.1.2.1.3 0l6.3-3.6c.1-.1.2-.2.2-.3v-7.2c0-.1-.1-.2-.2-.3l-6.3-3.6c-.1-.1-.2-.1-.3 0L15 12.7c-.1.1-.2.2-.2.3v7.2c0 .1.1.2.2.3l1.3.7.6-.9-.9-.5v-6.4z" fill-rule="evenodd" clip-rule="evenodd" fill="#98bcdc"/><path d="M23.8 13.4h-2.1l-4.9 8 1.7 1 5.3-9zm-5.3.8c.5-.8 1.9-.8 2.5-.7l-4.8 7.7c-.2-.1-.6-.3-.9-.5-.4-.2-.5-.2-.5-.5v-.4c1.1-1.6 3.2-4.8 3.7-5.6z" fill="#fff"/></svg>