<svg xmlns="http://www.w3.org/2000/svg" width="247.869" height="247.869" fill="none"><path d="M123.934 247.869c68.447 0 123.935-55.488 123.935-123.935S192.38 0 123.934 0 0 55.487 0 123.934 55.487 247.87 123.934 247.87z" fill="#ccc"/><path d="M87.45 179.041H61.27c-5.5 0-8.218 0-9.875-1.06-1.79-1.16-2.883-3.082-3.016-5.203-.099-1.955 1.26-4.34 3.977-9.113l62.299-109.254c2.75-4.838 4.142-7.257 5.898-8.152a6.668 6.668 0 016.03 0c1.757.895 3.15 3.314 5.9 8.152l13.288 23.196c3.015 5.27 4.54 7.92 5.202 10.704a19.67 19.67 0 010 9.212c-.662 2.783-2.154 5.434-5.17 10.703l-31.613 55.34c-3.048 5.335-4.572 8.02-6.693 10.04a19.748 19.748 0 01-8.053 4.673c-2.75.762-5.832.762-11.995.762zm103.62.001h-37.51c-5.535 0-8.318 0-9.942-1.06-1.79-1.16-2.883-3.115-3.016-5.236-.1-1.955 1.293-4.34 4.076-9.146l18.723-32.143c2.75-4.739 4.142-7.091 5.865-7.986a6.599 6.599 0 015.998 0c1.757.895 3.115 3.247 5.899 7.953l18.789 32.143c2.783 4.805 4.208 7.191 4.109 9.146a6.624 6.624 0 01-3.016 5.236c-1.657 1.093-4.44 1.093-9.974 1.093z" fill="#fff"/></svg>