<svg xmlns="http://www.w3.org/2000/svg" fill="none" aria-hidden="true" viewBox="0 0 28 20"><path fill="#fff" d="M0 0h28v20H0V0z"/><path fill="#24AAD5" fill-rule="evenodd" d="M0 6.667h28V0H0v6.667z" clip-rule="evenodd"/><path fill="#21BF75" fill-rule="evenodd" d="M0 20h28v-6.667H0V20z" clip-rule="evenodd"/><path fill="#ED1845" fill-rule="evenodd" d="M0 13.333h28V6.667H0v6.666z" clip-rule="evenodd"/><g filter="url(#filter0_d)"><path fill="#fff" fill-rule="evenodd" d="M14 12a1.99 1.99 0 001.111-.337 1.667 1.667 0 110-3.326A2 2 0 1014 12zm2-2a.665.665 0 01-1.147.488.664.664 0 01.018-.943A.667.667 0 0116 10z" clip-rule="evenodd"/></g><defs><filter id="filter0_d" width="12.001" height="12" x="8" y="5" color-interpolation-filters="sRGB" filterUnits="userSpaceOnUse"><feFlood flood-opacity="0" result="BackgroundImageFix"/><feColorMatrix in="SourceAlpha" values="0 0 0 0 0 0 0 0 0 0 0 0 0 0 0 0 0 0 127 0"/><feOffset dy="1"/><feGaussianBlur stdDeviation="2"/><feColorMatrix values="0 0 0 0 0 0 0 0 0 0 0 0 0 0 0 0 0 0 0.06 0"/><feBlend in2="BackgroundImageFix" result="effect1_dropShadow"/><feBlend in="SourceGraphic" in2="effect1_dropShadow" result="shape"/></filter></defs></svg>