<svg width="52" height="52" xmlns="http://www.w3.org/2000/svg"><g fill="#002747" stroke="#002747"><path d="M31.964 10.767c2.491-.292 5.04.066 7.379.935a17.64 17.64 0 015.189 2.994c.34-.321.675-.65 1.022-.966.323-.29.873-.27 1.18.034.285.26.347.713.145 1.039-.11.17-.275.299-.42.44-3.15 2.99-6.303 5.978-9.453 8.968.48.745.696 1.656.55 2.528a3.792 3.792 0 01-.516 1.361 19246.6 19246.6 0 009.608 9.111c.244.2.398.514.34.828-.062.441-.523.779-.977.71-.24-.023-.44-.166-.6-.33-.3-.288-.603-.572-.903-.858a16.605 16.605 0 01-6.378 3.486 16.084 16.084 0 01-7.503.322 16.056 16.056 0 01-6.006-2.503c-1.994 1.69-4.686 2.383-7.288 2.409-3.777.006-7.555.002-11.332.002-.537.02-1.023-.45-1-.973V12.053c-.023-.49.425-.935.93-.922 3.657-.004 7.315 0 10.973-.002 1.476-.017 2.972.14 4.367.63a8.348 8.348 0 013.095 1.887 16.3 16.3 0 017.598-2.88h0zm-5.295 3.451c-.914.5-1.738 1.135-2.542 1.786-.344-.404-.662-.832-1.05-1.198a6.524 6.524 0 00-2.12-1.335c-1.235-.49-2.584-.649-3.91-.638H6.749v26.743h8.624c1.296-.007 2.602.053 3.885-.172 1.446-.234 2.864-.763 4.013-1.663.438-.334.812-.735 1.203-1.118.653.497 1.312.992 2.03 1.402 3.162 1.857 7.097 2.425 10.674 1.514a14.95 14.95 0 006.092-3.152c-.902-.854-1.802-1.71-2.705-2.564a10.972 10.972 0 01-4.927 2.306 10.479 10.479 0 01-4.935-.28 10.445 10.445 0 01-5.394-3.8 9.888 9.888 0 01-1.886-6.783c.213-2.393 1.354-4.689 3.134-6.351a10.525 10.525 0 016.598-2.827c1.297-.087 2.6.122 3.828.525a12.345 12.345 0 013.57 1.853c.915-.864 1.827-1.731 2.74-2.597-2.317-1.82-5.146-3.05-8.107-3.415-2.936-.328-5.962.334-8.517 1.764h0zm.909 6.11c-1.744 1.728-2.663 4.216-2.407 6.628.071.607.291 1.183.526 1.745.58 1.379 1.403 2.677 2.518 3.707a8.139 8.139 0 003.935 2.028c2.506.513 5.2-.223 7.157-1.807-1.164-1.105-2.326-2.21-3.491-3.311-1.235.785-2.93.762-4.15-.043-.622.587-1.239 1.179-1.863 1.765a.895.895 0 01-1.029.12.846.846 0 01-.415-.953c.047-.21.201-.371.357-.513.59-.557 1.18-1.116 1.767-1.676a3.727 3.727 0 01-.497-1.477c-.087-.782.12-1.577.53-2.25-.644-.615-1.294-1.225-1.937-1.842a.831.831 0 01-.14-1 .885.885 0 01.947-.422c.219.036.395.179.546.33.598.57 1.2 1.138 1.8 1.707 1.19-.76 2.812-.78 4.02-.045a3846.7 3846.7 0 003.508-3.326c-1.347-.963-2.925-1.648-4.588-1.866-2.595-.306-5.288.674-7.094 2.501h0zm5.838 3.858c-1.07.2-1.933 1.318-1.677 2.379.077.372.298.692.517.998.413.395.973.675 1.563.657 1.118-.004 2.104-1.028 2.056-2.108-.036-1.164-1.275-2.158-2.459-1.926z"/><path d="M12 17.71c.114-.036.236-.037.356-.04 1.106.003 2.212.001 3.318.001.653.01 1.314-.046 1.959.08.869.142 1.726.529 2.242 1.195.535.68.658 1.57.492 2.377a2.65 2.65 0 01-1.201 1.7c-.814.512-1.84.677-2.816.638-1.382-.008-2.765.009-4.147-.002-.437-.015-.795-.392-.765-.783v-4.431c-.019-.323.22-.639.561-.736h0zm1.257 1.604v2.706c1.033.002 2.066-.005 3.1-.002.622.025 1.297-.031 1.814-.374.394-.266.482-.749.437-1.164a1.046 1.046 0 00-.538-.857c-.51-.281-1.129-.334-1.712-.311-1.034.005-2.068-.001-3.101.002zM12.09 29.692c1.522-.043 3.046.004 4.57-.025.958.007 1.956.264 2.696.906.631.542.994 1.357 1.06 2.183.092.958-.125 1.987-.772 2.719-.705.81-1.797 1.158-2.838 1.192-1.534-.018-3.068.003-4.602-.005-.435.007-.8-.411-.766-.845.003-1.78-.003-3.562.003-5.343a.813.813 0 01.65-.782h0zm1.167 1.822v3.312c1.034.003 2.067-.009 3.102-.002.593.03 1.231-.038 1.732-.39.334-.237.494-.651.518-1.05.035-.478-.026-1.02-.386-1.367-.399-.373-.964-.485-1.488-.51-1.16.014-2.318.002-3.478.007z"/></g></svg>