<svg version="1.1" id="Layer_1" xmlns="http://www.w3.org/2000/svg" x="0" y="0" viewBox="0 0 6363.7 3296.3" xml:space="preserve"><style>.st0{fill:#27d6ed}.st2{fill:#1896a4}.st3{fill:#35b3ba}.st4{fill:#d9fcfc}.st6{fill:#36cece}</style><path class="st0" d="M1965.2 3083.4c-1166 164.3-2289.2-856.2-1389-2021C933.8 599.6 1251 382.4 1644 247.3c677.7-233.1 1158.4 260.7 1790.3 279 375.6 33.2 699.2-18.2 1064.3-78.9 1501.1-249.6 1932 1176.5 1430.8 1918.3-441.6 653.6-1122.4 354.9-1675 619.1-865.9 413.9-1643.3 6.9-2289.2 98.6z"/><path class="st0" d="M3374.3 458.2c178 70.8 429.2 32.2 487.1-145 62.4-389.5-1052-200.9-800.4-13.5 105.2 78.4 222.8 123.8 313.3 158.5z"/><path d="M3885.5 1640.1c0 407.3-330.2 737.4-737.4 737.4s-737.4-330.1-737.4-737.4c0-118.4 28-230.3 77.6-329.5 121-241.8 370.9-407.9 659.8-407.9 348.2 0 640 241.4 717.3 565.9 13.2 55 20.1 112.5 20.1 171.5z" fill="#4adee5"/><path class="st2" d="M3885.5 1640.1c0 407.3-330.2 737.4-737.4 737.4s-737.4-330.1-737.4-737.4c0-118.4 28-230.3 77.6-329.5 5.3 233.1 108.2 583.9 541.3 724.5 439.2 142.6 735.7-361.3 835.8-566.5 13.2 55 20.1 112.5 20.1 171.5z"/><path class="st3" d="M2718 1640.1c-83.4-87.8-4.4-294.1 61.4-228.2 65.9 65.8 22 316-61.4 228.2zm513.5 0c-23.5-54.9 122.9-127.3 109.7-52.7-13.1 74.7-70.2 144.9-109.7 52.7zm110.6-390.6c-248.4-69.4-104.5-215.1 0-162.4 104.5 52.6 141.3 201.9 0 162.4z"/><path class="st3" d="M2880.4 1811.3c-57.1-201.9 4.4-381.9 302.9-390.6 298.5-8.8 373.1-114.1 320.4-219.5-52.7-105.3 105.3-87.8 105.3-87.8s-109.7 21.9-61.4 122.9c48.3 101-161.9 253.5-318.6 225.5-156.7-28-370.5 64.2-348.6 349.5z"/><path class="st3" d="M2959.4 1368c83.4-92.2 406.5 8.8 475.4-79 0 0-45.1 86.1-181.3 61.4-136.2-24.6-294.1 17.6-294.1 17.6zm591 164.6l-5.7-7.4c22.9-17.5 86.2-106.4 124-159.5 12.3-17.3 22.5-31.6 28.7-39.9l7.5 5.6c-6.2 8.3-16.3 22.5-28.6 39.7-40.5 56.9-101.9 143.1-125.9 161.5zm-762.3-275.2c-19.3-66 .4-131.2 55.4-183.5 92.9-88.5 265.6-123.2 393.2-79l-3.1 8.8c-124.5-43.1-293-9.4-383.6 76.9-37 35.2-76.2 94-52.8 174.1l-9.1 2.7zm-91.2 653.6c-170.9-192.8-76.6-540.7-75.6-544.2l9 2.5c-1 3.4-93.9 346.5 73.6 535.5l-7 6.2zm353.4 229.6c-184.6-51.3-217.1-192.4-243.3-305.7-7.8-33.9-15.2-65.9-25.9-92.1l8.7-3.5c11 26.9 18.5 59.2 26.4 93.5 25.6 110.9 57.4 249 236.7 298.8l-2.6 9z"/><path class="st2" d="M3654 1103.7c41.9-20.9 92.4-43.4 134.8-63.4 42.6-19.6 85.5-38.7 128.8-57 86.7-36.4 174.5-70.7 267.1-96.1 23.2-6.2 46.8-11.8 71.1-16 24.4-4.1 49.2-7.5 76.7-6.7 13.8.6 28.5 2.1 44.8 7.7 8.1 2.9 17 7.1 25.5 13.8 4.3 3.6 8.5 7.1 12 12.1 1.8 2.4 3.5 4.8 5.2 7.3 1.5 2.6 2.8 5.3 4 8 4.5 10.8 6.4 22.5 6 32 .1 5.1-.7 9.3-1.2 13.9-.8 4.1-1.6 8.4-2.7 12.3-4.4 15.5-10.5 28.3-16.9 40.2-13.2 23.6-28.3 43.6-43.9 62.8-15.7 19.1-32 37-48.7 54.4-33.5 34.7-68.4 67-103.9 98.4-71.1 62.7-145.4 120.8-220.8 177.1-75.5 56.2-152.2 110.4-230.1 162.8-156 104.4-315.3 203.6-477.8 297.1-162.6 93.3-327.5 182.9-496.2 265.1-168.9 82-340.1 159.7-519.2 221.5-44.8 15.3-90.2 29.6-136.7 41.7-23.3 6-46.8 11.5-71 15.8-24.1 4.3-48.8 7.6-75 8.4-13.2.2-26.8-.2-41.5-2.5-7.3-1.1-15-2.9-23-5.7-3.9-1.2-8.3-3.3-12.3-5.2-4.3-2.5-8.5-4.5-12.8-8-8.4-6.2-16.6-15.4-21.5-26.4-1.2-2.8-2.4-5.6-3.4-8.5-.9-2.8-1.3-5.5-1.8-8.3-.4-2.7-1-5.7-1.1-8.3v-7.5c1-19.8 7-34 12.9-47.1 12.6-25.2 27.8-45.3 43.5-64.5 15.7-19.1 32.4-36.7 49.4-53.7 68.2-67.4 141.6-126.5 216.1-183.8 37.4-28.5 75.1-56.4 113.3-83.5 38.3-27 88.3-66.4 127.1-92.5l12.3 46.3c-37.3 27.8-74.3 56-110.8 84.7-36.6 28.5-73 57.3-108.8 86.8-71.3 59-141.3 120.1-203.4 186.3-15.3 16.6-30.2 33.5-43.7 50.8-13.4 17.2-25.7 35.2-33.5 52-3.6 8.1-5.7 16.2-5.5 19.8 0 .4 0 .8-.1 1.2 0 .4.3.2.2.4.1 0-.1.2-.1.2.1-.2.1-.3 0-.4-.3-.4-.5-.4.6.1 1.4 1.4 8.7 3.8 16.9 4.8 8.4 1.1 18.2 1.2 28.4.8 20.4-1.1 42.1-4.5 63.7-9 21.7-4.5 43.5-9.9 65.3-16 43.6-12.2 87.1-26.8 130.2-42.5 86.4-31.4 171.4-67.9 256-105.5 84.5-37.9 168.1-78 251-119.7 165.6-83.6 329.2-171.8 489.8-265.2 160.6-93.3 319.3-190 473.8-292.8 154.6-102.3 306.5-209.5 447.4-327.5 35-29.6 69.3-60 101.3-91.9 16-15.9 31.5-32.2 45.7-48.9 14.3-16.6 27.4-33.9 37.6-50.8 4.9-8.4 9-16.8 11.1-23.7 2.4-7.1 1.5-11.2 1.9-10.4 0 .1.1.1.2.1-.1.1-.1.2 0 .2.5 0-.1-.1-.2-.3-.5-.6-2.2-1.7-5-2.8-5.7-2.2-14.3-3.9-23.8-4.5-19.2-1.3-41 .8-62.6 3.8-21.8 3.1-43.8 7.6-65.8 12.8-88.4 20.7-176.3 50.6-262.9 83-43.4 16.3-86.5 33.4-129.4 51.1-43.1 17.4-79.4 32.6-122.1 51.1l-32.5-32.1z"/><path class="st2" d="M1130.4 2104.2v-292.6L1800.5 853h405v937.3h173.9v313.9h-173.9v275.7h-362.6v-275.7h-712.5zm737.9-852.5L1512 1790.3h356.3v-538.6zm2080.3 852.5v-292.6L4618.7 853h405v937.3h173.9v313.9h-173.9v275.7h-362.6v-275.7h-712.5zm738-852.5l-356.3 538.6h356.3v-538.6z"/><path class="st4" d="M2142.8 1790.4V853h-405l-98.5 140.9-207.9 297.5-363.7 520.2v292.7h712.5V2380h362.6v-275.7h173.9v-313.8h-173.9zm-337.2 0h-356.2l165.4-250.1 161.5-244.3 29.3-44.3v538.7zm3155.5 0V853h-405L3886 1811.5v292.7h712.5v275.7h362.6v-275.7H5135v-313.8h-173.9zm-337.2 0h-356.3l356.3-538.7v538.7z"/><path d="M1258.7 1178c-5 2.2-9.1 6.4-11.1 11.5-2-5.1-6-9.3-11.1-11.5 5-2.2 9-6.4 11.1-11.5 2.1 5.2 6.1 9.3 11.1 11.5zm918.2 1477.6c-5 2.2-9.1 6.4-11.1 11.5-2-5.1-6-9.3-11.1-11.5 5-2.2 9-6.4 11.1-11.5 2.1 5.1 6.1 9.3 11.1 11.5zM862.1 1940c-5 2.2-9.1 6.4-11.1 11.5-2-5.1-6-9.3-11.1-11.5 5-2.2 9-6.4 11.1-11.5 2.1 5.1 6.1 9.2 11.1 11.5zm2996.1-750.4c-5 2.2-9.1 6.4-11.1 11.5-2-5.1-6-9.3-11.1-11.5 5-2.2 9-6.4 11.1-11.5 2 5.1 6.1 9.2 11.1 11.5zm-1155 1250.8c-10.3 4.5-18.5 13-22.6 23.5-4.2-10.5-12.3-19-22.6-23.5 10.3-4.6 18.4-13 22.6-23.5 4.1 10.5 12.3 19 22.6 23.5zM747.7 1995.7c-7.5 3.3-13.5 9.5-16.5 17.1-3-7.6-9-13.8-16.5-17.1 7.5-3.3 13.5-9.5 16.5-17.2 3.1 7.7 9 13.8 16.5 17.2zm3279.4-782.6c-10.3 4.5-18.5 13-22.6 23.5-4.2-10.5-12.3-19-22.6-23.5 10.3-4.6 18.4-13 22.6-23.5 4.1 10.5 12.3 18.9 22.6 23.5zM2338.9 693.6c-5 2.2-9.1 6.4-11.1 11.5-2-5.1-6-9.3-11.1-11.5 5-2.2 9-6.4 11.1-11.5 2.1 5.2 6.1 9.3 11.1 11.5zm-22.2 680.1c-10.3 4.5-18.5 13-22.6 23.5-4.2-10.5-12.3-19-22.6-23.5 10.3-4.6 18.4-13 22.6-23.5 4.1 10.5 12.3 19 22.6 23.5zm2983.4-257.1c-10.3 4.5-18.5 13-22.6 23.5-4.2-10.5-12.3-19-22.6-23.5 10.3-4.6 18.4-13 22.6-23.5 4.1 10.4 12.3 18.9 22.6 23.5zM1280.9 2370c-5 2.2-9.1 6.4-11.1 11.5-2-5.1-6-9.3-11.1-11.5 5-2.2 9-6.4 11.1-11.5 2.1 5.1 6.1 9.3 11.1 11.5zm4018.8-829.7c-5 2.2-9.1 6.4-11.1 11.5-2-5.1-6-9.3-11.1-11.5 5-2.2 9-6.4 11.1-11.5 2 5.1 6 9.3 11.1 11.5zm-2006.9-1175c-5 2.2-9.1 6.4-11.1 11.5-2-5.1-6-9.3-11.1-11.5 5-2.2 9-6.4 11.1-11.5 2 5.1 6 9.3 11.1 11.5z" fill="#fff"/><path class="st6" d="M3925.5 2468l-16.1-87.6c-1.5-8.1 1.8-16.3 8.4-21.2l139-101.6c10.5-7.7 25.4-1.2 27 11.7l10.6 85.7c.9 7.2-1.9 14.4-7.5 19.1l-126.6 106.4c-12.5 10.7-31.8 3.7-34.8-12.5z"/><path class="st2" d="M3934.6 2459.5l-14.5-78.9c-1.3-7.3 1.6-14.7 7.6-19.1L4053 2270c9.5-6.9 22.8-1.1 24.3 10.5l9.6 77.3c.8 6.5-1.7 13-6.7 17.2l-114.1 95.9c-11.4 9.4-28.8 3.2-31.5-11.4z"/><path d="M3722.4 2502.6c-3.7-32.6 18.7-62.3 51.1-67.8l185.9-31.4c36-6.1 69.3 20.2 71.8 56.6l1 15.1c2.3 33.6-22.7 62.8-56.2 65.7l-187 16.2c-33.3 3-62.9-21.2-66.6-54.4z" fill="#1cbec6"/><path class="st6" d="M3651.5 2702.6l-16-100.8c-1.7-10.6 2.6-21.3 11.3-27.8l139-104.3c8.8-6.6 21.4-1.4 23 9.5l5.8 39.9 32.6-23.2-2.1 24.6-27.7 16.2 3 40.5c.7 9.5-3.3 18.7-10.6 24.7l-134.7 109.7c-8.9 7-21.9 2.1-23.6-9z"/><path class="st2" d="M3661.6 2691.2l-16.8-91.4c-1.3-7.3 1.6-14.7 7.6-19.1l129.9-94.9c7.4-5.4 17.8-.9 18.9 8.2l10.3 83c.8 6.5-1.7 13-6.7 17.2L3681 2698.3c-7 5.8-17.8 1.9-19.4-7.1z"/><ellipse transform="rotate(-6.465 3975.872 2471.045)" class="st4" cx="3977" cy="2471.6" rx="48.9" ry="57"/><path class="st4" d="M2622 846.4c-219.9 51.3-361.1-257.4-301.2-401.6s349.5-228 473.2-151.2c123.7 76.9 131.7 424.9-70.6 516.9l58 161.4L2622 846.4z"/><path class="st2" d="M2387.6 454.7l40.5-30.1c11.6-8.6 28.2-4.6 34.6 8.4l71 145.4c4.9 10.1 1.9 22.3-7.2 28.9-9.3 6.7-22.2 5.6-30.1-2.7l-111.6-115.3c-9.7-10-8.4-26.3 2.8-34.6zm158.3 185.7l14-10.3c8.3-6.1 20.1-4.8 25.7 2.8l25.6 34.8c4.8 6.5 3.3 15.5-3.4 21.1l-12.7 10.6c-8.1 6.8-20.5 5.9-26.4-1.8l-26.9-35.1c-5.3-6.8-3.5-16.5 4.1-22.1zm92.2-308l58.3-10.5c16.7-3 32.1 9.9 31.9 26.9l-1.3 190c-.1 13.2-9.7 24.4-22.7 26.6-13.3 2.2-26.2-5.7-30.3-18.6l-57-179.4c-4.9-15.6 5-32.1 21.1-35zm55.9 257.3l17-2.7c10.1-1.6 20.2 4.5 21.9 13.3l8 40.2c1.5 7.5-3.7 14.5-12.1 16.3l-15.9 3.5c-10.2 2.3-21-3.7-23-12.8l-9.1-41c-1.7-7.9 4.1-15.3 13.2-16.8z"/><path class="st4" d="M4153.8 2338.8l68-30.8-14.4 29.4 60.2-5.3-85.4 27.4 17.7-30.4zm-247.2-28.6l-2.9-44.3 13.4 14.2 9.6-34.7-2.6 53.3-13.2-16.2zm189.1 115.5l46.2 3.1-16.5 11.9 34.4 14.8-54.7-10.2 18.7-11.4zm-726.5 215.6l133.5-60.5-28.3 57.8 118.1-10.4L3425 2682l34.7-59.8z"/></svg>