<svg xmlns="http://www.w3.org/2000/svg" width="1212" height="292.01"><linearGradient id="a" gradientUnits="userSpaceOnUse" x1="606" y1="-1.375" x2="606" y2="289.627"><stop offset="0" stop-color="#0b3a55"/><stop offset="1" stop-color="#0a233f"/></linearGradient><path fill="url(#a)" d="M0 0h1212v292.01H0z"/><path fill="#FFF" d="M985.304 78.744c.585-.717 1.692.066 1.106.783-.585.716-1.692-.067-1.106-.783zm129.638-7.842c.585-.717 1.692.066 1.106.783-.584.716-1.692-.067-1.106-.783zm-423-.675c.585-.717 1.692.066 1.106.783-.584.716-1.692-.067-1.106-.783zm-387-7c.585-.717 1.692.066 1.106.783-.584.716-1.692-.067-1.106-.783zM730.049 91.01c.585-.717 1.692.066 1.106.783-.585.716-1.692-.066-1.106-.783zm342.721 33.363c-1.589-.16-1.147-2.523.441-2.364 1.589.159 1.146 2.523-.441 2.364z"/><path fill="#FFF" d="M985.304 78.744c.585-.717 1.692.066 1.106.783-.585.716-1.692-.067-1.106-.783zm-344 123c.585-.717 1.692.065 1.106.783-.585.716-1.692-.068-1.106-.783zM148.488 69.533c.891-1.092 2.578.101 1.686 1.193-.892 1.09-2.578-.102-1.686-1.193zm681.454 36.694c.585-.717 1.692.066 1.106.783-.584.716-1.692-.067-1.106-.783zm-387-7c.585-.717 1.692.066 1.106.783-.584.716-1.692-.067-1.106-.783zM868.049 29.01c.585-.717 1.692.066 1.106.783-.585.716-1.692-.066-1.106-.783zm-88.745 208.734c.585-.717 1.692.065 1.106.783-.585.716-1.692-.068-1.106-.783zM286.488 105.533c.891-1.092 2.578.101 1.686 1.193-.892 1.09-2.578-.102-1.686-1.193zm372.816-54.789c.585-.717 1.692.065 1.106.783-.585.716-1.692-.068-1.106-.783zm129.638-7.842c.585-.717 1.692.065 1.106.783-.584.716-1.692-.067-1.106-.783zm-423-.675c.585-.717 1.692.066 1.106.783-.584.716-1.692-.066-1.106-.783zm38.107 20.783c.585-.717 1.692.066 1.106.783-.585.716-1.692-.066-1.106-.783zm215.558 92.365c-1.589-.16-1.147-2.523.441-2.364 1.59.159 1.147 2.523-.441 2.364z"/><path fill="#FFF" d="M659.304 50.744c.585-.717 1.692.065 1.106.783-.585.716-1.692-.068-1.106-.783zm-203.468 33.4c.585-.717 1.692.066 1.106.783-.585.716-1.692-.066-1.106-.783zm38.106 20.783c.585-.717 1.692.066 1.106.783-.584.716-1.692-.066-1.106-.783zm12-73.7c.585-.717 1.692.066 1.106.783-.584.716-1.692-.066-1.106-.783zM658.585 244.01c.585-.717 1.692.066 1.106.783-.585.716-1.692-.066-1.106-.783zM643.942 67.227c.585-.717 1.692.066 1.106.783-.584.716-1.692-.066-1.106-.783zm38.107 118.783c.585-.717 1.692.066 1.106.783-.585.716-1.692-.066-1.106-.783zM425.197 17.661c.585-.717 1.692.065 1.106.783-.584.716-1.692-.068-1.106-.783zm129.639 90.158c.585-.717 1.692.065 1.106.783-.585.716-1.692-.067-1.106-.783z"/><path fill="#FFF" d="M425.197 17.661c.585-.717 1.692.065 1.106.783-.584.716-1.692-.068-1.106-.783zm122.067 50.348c.844.378.378 1.651-.468 1.272-.843-.377-.376-1.651.468-1.272zm55.859 3.574c.845.378.378 1.65-.468 1.271-.843-.377-.376-1.65.468-1.271z"/><path fill="#FFF" d="M603.123 71.583c.845.378.378 1.65-.468 1.271-.843-.377-.376-1.65.468-1.271zm-19.915-10.538c.844.378.377 1.651-.468 1.272-.844-.377-.377-1.65.468-1.272zM573.067 201.25c.845.378.377 1.65-.468 1.271-.843-.377-.376-1.65.468-1.271zM778.295 63.698c.891-1.092 2.578.101 1.686 1.192-.892 1.091-2.579-.101-1.686-1.192zM54.917 24.242c.881.282.558 1.599-.324 1.316-.88-.282-.557-1.599.324-1.316zm16.977 141.604c.881.283.557 1.6-.324 1.316-.881-.283-.558-1.599.324-1.316zm24.882-92.514c.881.282.558 1.6-.324 1.316-.88-.282-.557-1.599.324-1.316zM91.373 116.4c.881.282.557 1.599-.324 1.316-.881-.282-.558-1.599.324-1.316zm-.725 55.929c.881.283.557 1.6-.324 1.316-.88-.283-.557-1.6.324-1.316zm50.667-52.836c.881.283.559 1.6-.324 1.316-.88-.281-.555-1.6.324-1.316z"/><path fill="#FFF" d="M141.315 119.493c.881.283.559 1.6-.324 1.316-.88-.281-.555-1.6.324-1.316z"/></svg>