<svg xmlns="http://www.w3.org/2000/svg" width="1440" height="363.018" viewBox="0 410.197 1440 363.018" enable-background="new 0 410.197 1440 363.018"><path fill="#184F90" stroke="#000" stroke-miterlimit="10" d="M-108.763-187.131h1701.17v1683.168h-1701.17z"/><g transform="rotate(-89 765.722 -46.446)"><circle fill="#0C4180" cx="50.268" cy="37.218" r="29.319"/><circle fill="#0B386E" cx="45.126" cy="32.251" r="4.044"/><circle fill="#0B386E" cx="50.621" cy="57.435" r="2.022"/><g transform="translate(.738 .812)"><linearGradient id="a" gradientUnits="userSpaceOnUse" x1="-1067.566" y1="-1170.941" x2="-1067.566" y2="-1169.257" gradientTransform="matrix(90.3979 -44.0888 -10.2087 -20.9314 84602.531 -71540.594)"><stop offset="0" stop-color="#0c4180"/><stop offset="1" stop-color="#18286c"/></linearGradient><ellipse transform="rotate(-147.999 49.833 36.87)" fill="none" stroke="url(#a)" cx="49.83" cy="36.868" rx="50.289" ry="11.644"/><ellipse transform="rotate(180 61.902 33.371)" fill="#0B386E" cx="61.902" cy="33.371" rx="5.604" ry="5.661"/></g></g><path opacity=".6" fill="#2163AF" enable-background="new" d="M356 625c-31.35-25.033-48.876-33.574-52.581-25.623-5.557 11.926-3.558 8.512-21.831 0-18.273-8.514-60.332-33.459-65.492-16.73-5.16 16.73-.14 33.035-24.282 29.229C175.72 609.337 161.448 613.712 149 625h207z"/><g opacity=".56"><path fill="#1C3087" d="M1091.129 654.433c-6.269-6.393-10.35-2.539-12.244 11.564-1.894 14.104-1.895 40.635 0 79.592h12.244v-91.156z"/><path fill="#18286C" d="M1091.069 654.433c6.269-6.393 10.35-2.539 12.243 11.564 1.895 14.104 1.896 40.635 0 79.592h-12.243v-91.156z"/><g transform="translate(937 658)"><ellipse fill="#000D4B" cx="86.5" cy="42" rx="86.5" ry="42"/><defs><filter id="b" filterUnits="userSpaceOnUse" x="3" y="5" width="175" height="22"><feColorMatrix values="1 0 0 0 0 0 1 0 0 0 0 0 1 0 0 0 0 0 1 0"/></filter></defs><mask maskUnits="userSpaceOnUse" x="3" y="5" width="175" height="22" id="c"><g filter="url(#b)"><ellipse fill="#FFF" cx="86.5" cy="42" rx="86.5" ry="42"/></g></mask><g mask="url(#c)"><g transform="translate(3 5)" fill="#0C4180"><ellipse cx="72" cy="2" rx="12" ry="2"/><ellipse cx="102" cy="2" rx="12" ry="2"/><ellipse cx="133" cy="2" rx="12" ry="2"/><ellipse cx="42" cy="2" rx="12" ry="2"/><g transform="translate(0 18)"><ellipse cx="72" cy="2" rx="12" ry="2"/><ellipse cx="103" cy="2" rx="12" ry="2"/><ellipse cx="132" cy="2" rx="12" ry="2"/><ellipse cx="163" cy="2" rx="12" ry="2"/><ellipse cx="12" cy="2" rx="12" ry="2"/><ellipse cx="43" cy="2" rx="12" ry="2"/></g><ellipse cx="117" cy="11" rx="7" ry="2"/><ellipse cx="144" cy="11" rx="7" ry="2"/><ellipse cx="64" cy="11" rx="7" ry="2"/><ellipse cx="91" cy="11" rx="7" ry="2"/><ellipse cx="14" cy="11" rx="7" ry="2"/><ellipse cx="41" cy="11" rx="7" ry="2"/></g></g></g><path fill="#18286C" d="M1114.938 655.41c0-5.047-10.507-9.141-23.469-9.141S1068 650.363 1068 655.41c0 5.048 46.938 5.048 46.938 0z"/></g><path fill="#0C4180" d="M1817 639.771c-104.104-45.771-193.329-57.215-267.673-34.328-111.518 34.328-210.406 60.705-295.835 47.518-85.43-13.189-92.694 31.063-148.803 38.525-56.107 7.463-90.043-7.465-140.839 0-50.796 7.463-148.461 111.705-387.815 139.092-239.356 27.385-513.022-19.826-627.857-22.883-114.835-3.059-161.407 23.736-231.718 0-70.311-23.738-70.311-40.182-107.797-45.639-37.486-5.459-118.51 5.457-181.858 0-63.349-5.459-151.039-36.91-151.039-36.91s-36.964-10.971-79.087 0c-42.123 10.973-47.567 12.258-71.625 12.258-16.038 0-28.056-1.947-36.054-5.842V1294h2728"/><path fill="#18286C" d="M1823 650.58c-104.396-49.248-193.768-62.43-268.111-39.545-48.204 14.84-93.914 26.729-137.265 39.545-20.772 6.141-33.372 10.861-53.056 13.188-18.475 2.186-44.644 3.346-62.178 0-14.99-2.857-73.252-10.926-83.836-4.197-6.716 4.27-26.975 16.068-32.658 17.406-16.273 3.834-15.523 2.035-27.647 4.42-14.979 2.947-22.667 17.955-44.774 20.896-15.376 2.045-31.478-2.074-45.414 0-11.39 1.695-34.451 5.693-44.237 4.859-21.941-1.873-28.886-12.563-54.387-8.814-12.742 1.871-21.642 21.162-41.778 32.475-12.262 6.889-33.484 3.297-49.803 11.561-17.078 8.646-46.924 31.203-68.219 41.453-58.157 27.992-123.109 45.604-227.602 57.561-239.355 27.385-513.021-19.826-627.857-22.883-114.835-3.059-161.407 23.736-231.718 0-70.311-23.738-70.311-40.182-107.797-45.639-37.486-5.457-118.51 5.457-181.858 0-63.349-5.457-151.039-36.908-151.039-36.908s-36.964-10.971-79.087 0c-42.123 10.971-47.567 12.256-71.625 12.256-16.038 0-28.056-1.947-36.054-5.84v562.436h2728"/><path fill="#1C3087" d="M274 611.941c-8.257-8.422-13.633-3.344-16.128 15.23-2.496 18.574-2.496 53.518 0 104.828H274V611.941z"/><path fill="#18286C" d="M273 611.941c8.257-8.422 13.633-3.344 16.128 15.23 2.496 18.574 2.496 53.518 0 104.828H273V611.941z"/><path fill="#18286C" d="M305 613.021c0-6.639-13.879-12.022-31-12.022s-31 5.383-31 12.022 62 6.638 62 0z"/><path fill="#1C3087" d="M-282 590.832c73.271-48.832 136.067-61.04 188.392-36.624 78.486 36.623 148.086 64.766 208.212 50.695 60.126-14.072 65.24 33.139 104.729 41.1 39.489 7.963 63.374-7.961 99.125 0 35.75 7.963 104.488 119.176 272.949 148.393 168.462 29.219 381.016-11.645 461.838-14.904 53.882-2.176 248.8 167.598 584.756 509.316H-282"/><path fill="#000D4B" d="M-282 603.832c73.271-48.832 136.067-61.04 188.392-36.624 58.629 27.358 109.131 66.262 157.598 70.094 16.416 1.299 35.402-15.84 50.614-19.398 60.126-14.07 69.932 37.189 106.112 37.189 36.181 0 41.978 12.375 65.18 11.439 8.219-.33 22.435-13.523 31.786-11.439 13.037 2.902 22.91 25.287 47.957 46.668 27.795 23.729 49.513 52.785 102.959 75.389 30.463 12.881 86.438 17.221 125.295 23.959 34.137 5.922 91.119 19.809 126.107 20.248 38.25.479 64.143-17.318 109.018-13.096 88.692 8.35 157.742-23.398 204.282-25.277 80.822-3.262 212.571-42.867 238.955-48.689s83.408 5.822 127.994 0c44.585-5.822 106.303-27.377 106.303-27.377s26.018-11.705 55.663 0c29.646 11.705 33.479 1.076 50.41 1.076 11.287 0 19.746-2.076 25.375-6.23v600.045H-282"/><path fill="#2163AF" d="M702 665c26.806-19.818 41.793-26.58 44.96-20.285 4.752 9.441 3.042 6.74 18.667 0 15.625-6.738 51.588-26.488 56-13.244s.12 26.152 20.764 23.141c13.763-2.01 25.965 1.453 36.609 10.391H702V665z"/><path fill="#FFF" d="M1718.5 700c-133.426 89.838-530.004 155-998.5 155-468.497 0-865.076-65.162-998.501-155H-403v310h2246V700h-124.5z"/></svg>