<svg xmlns="http://www.w3.org/2000/svg" width="1920.001" height="895.977" viewBox="-282 0 1920.001 895.977" enable-background="new -282 0 1920.001 895.977"><path fill="#2163AF" d="M1081 534.062c-33.621-22.426-52.418-30.078-56.391-22.955-5.96 10.686-3.815 7.627-23.413 0-19.597-7.625-64.703-29.973-70.237-14.986-5.534 14.988-.15 29.596-26.042 26.186-17.261-2.275-32.565 1.645-45.917 11.756h222z"/><g transform="rotate(-89 765.722 -46.446)"><circle fill="#0C4180" cx="144.757" cy="-327.397" r="29.319"/><circle fill="#0B386E" cx="139.614" cy="-332.364" r="4.044"/><circle fill="#0B386E" cx="145.109" cy="-307.18" r="2.022"/><g transform="translate(.738 .812)"><linearGradient id="a" gradientUnits="userSpaceOnUse" x1="-505.618" y1="-618.33" x2="-505.618" y2="-616.645" gradientTransform="matrix(90.3979 -44.0888 -10.2087 -20.9314 39539.527 -35562.66)"><stop offset="0" stop-color="#0c4180"/><stop offset="1" stop-color="#18286c"/></linearGradient><ellipse transform="rotate(-147.999 144.327 -327.77)" fill="none" stroke="url(#a)" cx="144.318" cy="-327.747" rx="50.289" ry="11.644"/><ellipse transform="rotate(180 156.39 -331.244)" fill="#0B386E" cx="156.39" cy="-331.244" rx="5.604" ry="5.661"/></g></g><path opacity=".6" fill="#2163AF" enable-background="new" d="M356 625c-31.35-25.033-48.876-33.574-52.581-25.623-5.557 11.926-3.558 8.512-21.831 0-18.273-8.514-60.332-33.459-65.492-16.73-5.16 16.73-.14 33.035-24.282 29.229C175.72 609.337 161.448 613.712 149 625h207z"/><g opacity=".56"><path fill="#1C3087" d="M1091.129 654.433c-6.269-6.393-10.35-2.539-12.244 11.564-1.894 14.104-1.895 40.635 0 79.592h12.244v-91.156z"/><path fill="#18286C" d="M1091.069 654.433c6.269-6.393 10.35-2.539 12.243 11.564 1.895 14.104 1.896 40.635 0 79.592h-12.243v-91.156z"/><g transform="translate(937 658)"><ellipse fill="#000D4B" cx="86.5" cy="42" rx="86.5" ry="42"/><defs><filter id="b" filterUnits="userSpaceOnUse" x="3" y="5" width="175" height="22"><feColorMatrix values="1 0 0 0 0 0 1 0 0 0 0 0 1 0 0 0 0 0 1 0"/></filter></defs><mask maskUnits="userSpaceOnUse" x="3" y="5" width="175" height="22" id="c"><g filter="url(#b)"><ellipse fill="#FFF" cx="86.5" cy="42" rx="86.5" ry="42"/></g></mask><g mask="url(#c)"><g transform="translate(3 5)" fill="#0C4180"><ellipse cx="72" cy="2" rx="12" ry="2"/><ellipse cx="102" cy="2" rx="12" ry="2"/><ellipse cx="133" cy="2" rx="12" ry="2"/><ellipse cx="42" cy="2" rx="12" ry="2"/><g transform="translate(0 18)"><ellipse cx="72" cy="2" rx="12" ry="2"/><ellipse cx="103" cy="2" rx="12" ry="2"/><ellipse cx="132" cy="2" rx="12" ry="2"/><ellipse cx="163" cy="2" rx="12" ry="2"/><ellipse cx="12" cy="2" rx="12" ry="2"/><ellipse cx="43" cy="2" rx="12" ry="2"/></g><ellipse cx="117" cy="11" rx="7" ry="2"/><ellipse cx="144" cy="11" rx="7" ry="2"/><ellipse cx="64" cy="11" rx="7" ry="2"/><ellipse cx="91" cy="11" rx="7" ry="2"/><ellipse cx="14" cy="11" rx="7" ry="2"/><ellipse cx="41" cy="11" rx="7" ry="2"/></g></g></g><path fill="#18286C" d="M1114.938 655.41c0-5.047-10.507-9.141-23.469-9.141S1068 650.363 1068 655.41c0 5.048 46.938 5.048 46.938 0z"/></g><path fill="#0C4180" d="M1817 639.771c-104.104-45.771-193.329-57.215-267.673-34.328-111.518 34.328-210.406 60.705-295.835 47.518-85.43-13.188-92.694 31.063-148.803 38.525-56.107 7.463-90.043-7.463-140.839 0S815.389 803.191 576.035 830.578c-239.356 27.385-513.022-19.826-627.857-22.883-114.835-3.059-161.407 23.736-231.718 0-70.311-23.738-70.311-40.182-107.797-45.639-37.486-5.459-118.51 5.457-181.858 0-63.349-5.459-151.039-36.908-151.039-36.908s-36.964-10.973-79.087 0c-42.123 10.971-47.567 12.256-71.625 12.256-16.038 0-28.056-1.947-36.054-5.84V1294h2728"/><path fill="#18286C" d="M1823 650.58c-104.396-49.248-193.768-62.43-268.111-39.545-48.204 14.84-93.914 26.729-137.265 39.545-20.772 6.141-33.372 10.861-53.056 13.188-18.475 2.186-44.644 3.346-62.178 0-14.99-2.857-73.252-10.926-83.836-4.197-6.716 4.27-26.975 16.068-32.658 17.406-16.273 3.834-15.523 2.035-27.647 4.422-14.979 2.945-22.667 17.953-44.774 20.895-15.376 2.045-31.478-2.074-45.414 0-11.39 1.695-34.451 5.693-44.237 4.859-21.941-1.873-28.886-12.563-54.387-8.814-12.742 1.871-21.642 21.162-41.778 32.475-12.262 6.889-33.484 3.297-49.803 11.561-17.078 8.646-46.924 31.203-68.219 41.453-58.157 27.992-123.109 45.604-227.602 57.561-239.355 27.387-513.021-19.826-627.857-22.883-114.835-3.059-161.407 23.736-231.718 0-70.311-23.738-70.311-40.182-107.797-45.639-37.486-5.457-118.51 5.457-181.858 0-63.349-5.457-151.039-36.908-151.039-36.908s-36.964-10.971-79.087 0c-42.123 10.971-47.567 12.256-71.625 12.256-16.038 0-28.056-1.947-36.054-5.84v562.436h2728"/><path fill="#1C3087" d="M274 611.941c-8.257-8.422-13.633-3.344-16.128 15.23-2.496 18.574-2.496 53.518 0 104.828H274V611.941z"/><path fill="#18286C" d="M273 611.941c8.257-8.422 13.633-3.344 16.128 15.23 2.496 18.574 2.496 53.518 0 104.828H273V611.941z"/><path fill="#18286C" d="M305 613.021c0-6.639-13.879-12.022-31-12.022s-31 5.383-31 12.022 62 6.638 62 0z"/><path fill="#1C3087" d="M-282 590.832c73.271-48.832 136.067-61.04 188.392-36.624 78.486 36.623 148.086 64.766 208.212 50.695 60.126-14.072 65.24 33.139 104.729 41.1 39.489 7.963 63.374-7.961 99.125 0 35.75 7.963 104.488 119.176 272.949 148.395 168.462 29.217 381.016-11.646 461.838-14.906 53.882-2.176 248.8 167.598 584.756 509.316H-282"/><path fill="#000D4B" d="M-282 603.832c73.271-48.832 136.067-61.04 188.392-36.624 58.629 27.358 109.131 66.262 157.598 70.094 16.416 1.299 35.402-15.84 50.614-19.398 60.126-14.07 69.932 37.189 106.112 37.189 36.181 0 41.978 12.375 65.18 11.439 8.219-.33 22.435-13.523 31.786-11.439 13.037 2.902 22.91 25.287 47.957 46.668 27.795 23.729 49.513 52.785 102.959 75.389 30.463 12.881 86.438 17.221 125.295 23.959 34.137 5.922 91.119 19.809 126.107 20.248 38.25.479 64.143-17.318 109.018-13.096 88.692 8.35 157.742-23.398 204.282-25.277 80.822-3.262 212.571-42.867 238.955-48.689s83.408 5.822 127.994 0c44.585-5.822 106.303-27.377 106.303-27.377s26.018-11.705 55.663 0c29.646 11.705 33.479 1.076 50.41 1.076 11.287 0 19.746-2.076 25.375-6.23v600.045H-282"/><path fill="#2163AF" d="M308.358 559.202c26.806-19.818 41.793-26.58 44.96-20.285 4.752 9.441 3.042 6.74 18.667 0 15.625-6.738 51.588-26.488 56-13.244s.12 26.152 20.764 23.141c13.763-2.01 25.966 1.453 36.609 10.391h-177v-.003z"/><g transform="translate(767 182)"><path fill="#E1E5EF" d="M-160.603 218.24c-8.086 1.855-19.94 11.842-35.567 29.955-8.622 9.995-31.837 13.514-19.396 67.814.295 1.283 1.456 2.396 3.484 3.34 9.566-2.25 15.329-3.377 17.288-3.377 6.963 0-.239-20.271 7.1-27.922 7.34-7.65 25.354-21.025 33.893-9.063s90.487 10.618 94.29-6.341c3.802-16.959 30.291 4.105 47.07 0 21.635-5.295 39.925-17.924 41.645-19.281 6.554-5.17-5.686-19.945-5.686-19.945s-24.001 10.662-38.646 6.545c-17.495-4.916-28.357-24.695-44.384-31.761-5.125-2.259-10.7-4.188-17.021-5.522-17.391-3.671-45.413 1.514-84.07 15.558z"/><linearGradient id="d" gradientUnits="userSpaceOnUse" x1="-858.822" y1="19.382" x2="-858.74" y2="19.544" gradientTransform="matrix(98.5338 17.3742 -8.0658 45.7437 84764.617 14289.416)"><stop offset="0" stop-color="#dce1f1" stop-opacity="0"/><stop offset="1" stop-color="#6075a8"/></linearGradient><path fill="url(#d)" d="M-62.391 245.242c19.938 9.62 36.256 14.426 48.949 14.418 19.042-.011 45.58-12.939 45.986-15.261 0 0 1.353 2.024 6.81 0-3.396 3.188-7.687 6.087-10.312 8.966-1.494 1.639-19.244 11.4-23.396 13.08-11.048 4.466-19.089 7.627-26.176 6.559-.922-.14-1.897-.213-2.847-.406-2.208-.453-4.198-.797-5.687-1.241-11.603-3.472-20.9-6.771-25.823-4.771-1.823.741-4.268 3.098-7.331 7.071l-.173-28.415z"/><linearGradient id="e" gradientUnits="userSpaceOnUse" x1="-873.326" y1="15.054" x2="-872.845" y2="15.643" gradientTransform="matrix(43.2943 0 0 49.6764 37617.242 -474.06)"><stop offset="0" stop-color="#dce1f1" stop-opacity="0"/><stop offset="1" stop-color="#6075a8"/></linearGradient><path fill="url(#e)" d="M-162.681 265.759c-23.83 2.08-36.621 7.974-38.374 17.684-1.752 9.709-1.908 19.303-.469 28.781 4.736-.119 7.537.842 8.402 2.883.571 1.348 1.817-1.581 1.695-6.424-.061-2.348-.022-4.217.029-6.104.153-5.421.701-9.438 1.646-11.331.562-1.174 1.169-2.33 2.334-3.508 5.942-6.006 16.76-13.371 21.417-12.605 7.825-.103 8.932-3.228 3.32-9.376z"/><path fill="#FFF" d="M-170.321 323.78l-1.975-.065c3.057-10.627 4.578-22.791 4.563-36.488-.005-4.373-.404-9.467-1.203-15.281-3.701-26.992 14.058-52.266 40.706-57.93l8.323-1.77c28.107-5.975 55.737 11.969 61.711 40.076a52.05 52.05 0 011.139 10.971c-.016 4.854-.146 9.102-.394 12.742-.974 14.354-3.795 30.516-8.465 48.482 8.602 39.828 13.695 65.242 12.932 96.248-1.151 46.814-4.712 67.799-5.375 78.957-.664 11.156 4.537 10.449 3.251 17.73-1.285 7.281-13.63 6.107-18.698 6.107-5.069 0-11.01-1.023-12.689-6.107-1.68-5.082 3.687-4.93 2.165-14.199-1.521-9.273-10.365-47.15-19.169-84.939-5.116-21.959-10.961-34.723-14.373-39.377-7.37-10.055-45.938-12.971-33.678 5.816 1.511 2.314 8.719 10.279 15.73 15.98 4.08 3.316 10.424 4.146 11.288 8.688 1.727 9.078-3.289 25.477-9.32 31.402-6.033 5.926-13.706 5.576-15.707.178-1.733-4.682 1.19-10.584-4.951-15.883-6.626-5.719-26.231-22.031-35.276-28.459s-17.063-11.553-17.063-28.098 29.969-39.305 34.521-44.782h2.007z"/><path fill="#A8AEC0" d="M-162.053 217.687c-1.339 2.064-1.363 3.777-.07 5.135.857.902 3.673 2.31 5.314 2.867 3.447 1.17 8.652 2.356 14.82 2.766 15.362 1.018 36.69-2.276 51.65-18.912 1.344-1.688 1.286-3.988-.177-6.897l-31.828 16.092-39.709-1.051z"/><path fill="#D1D5E3" d="M-163.01 219.689c6.56 3.571 13.032 5.462 19.406 5.67 9.564.308 20.376-1.445 26.757-3.347 12.353-3.681 21.34-9.622 26.96-17.824.231.594.349.989.354 1.18.008.29-7.847 12.13-27.034 17.906-5.16 1.553-15.73 3.58-27.005 3.217-10.186-.33-19.7-5.482-19.605-6.086.065-.404.12-.642.166-.716z"/><path fill="none" stroke="#1872A4" stroke-width="5" stroke-linecap="round" d="M-167.392 215.935c-14.184-3.076-23.186-9.171-27.005-18.287-5.733-13.675 4.204-20.342 6.924-20.92"/><path fill="#FFF" d="M-125.18 221.46c25.974-5.52 45.445-19.59 39.897-45.701-5.55-26.112-31.33-42.644-57.302-37.123-25.973 5.52-42.304 31.004-36.755 57.115 5.55 26.11 28.187 31.23 54.16 25.71z"/><path fill="#1896A4" d="M-180.56 190.265c3.956.841 1.51-7.102 3.008-14.162 1.498-7.06 6.791-12.504 2.833-13.346-3.956-.84-11.048 4.967-12.548 12.027-1.497 7.06 2.751 14.64 6.707 15.48z"/><path fill="#00C0A5" d="M-180.466 183.848c2.637-.26 1.83-4.093 3.686-10.327 1.858-6.236 5.82-10.317 2.37-11.308-3.453-.991-8.982 3.784-10.505 9.11-1.524 5.325 1.812 12.784 4.449 12.525z"/><g transform="rotate(-12 226.365 -235.363)"><path fill="#D1D5E3" d="M-212.549 136.603c20.8 0 39.213-10.8 39.211-35.373.001-24.574-18.949-40.189-39.748-40.188-20.8 0-38.925 15.836-38.925 40.411-.001 24.573 18.661 35.149 39.462 35.15z"/><path fill="#161440" d="M-212.368 134.865c20.8-.001 39.213-10.909 39.213-35.733 0-24.823-20.478-36.315-41.278-36.315-20.8 0-37.398 11.716-37.398 36.539.001 24.824 18.663 35.509 39.463 35.509z"/><path fill="#323166" d="M-176.516 102.831c-.076-3.409-2.662-.796-4.926 1.605-3.253 3.449-6.854 8.499-19.394 14.424-14.527 6.864-27.844 1.925-33.922 1.705-2.333-.086-4.178 1.25-3.208 3.717.991 2.519 6.673 4.469 14.098 5.87 0 0 15.787 3.364 28.522-1.697 11.662-4.635 19.022-16.917 18.83-25.624z"/><ellipse transform="rotate(180 -239.233 86.53)" fill="#323166" cx="-239.233" cy="86.531" rx="2.622" ry="2.636"/><ellipse transform="rotate(180 -229.353 79.606)" fill="#323166" cx="-229.353" cy="79.606" rx="6.119" ry="6.15"/></g><path fill="none" stroke="#1872A4" stroke-width="5" stroke-linecap="round" d="M-89.958 154.471c14.643-1.539 20.06 5.607 16.249 21.439-5.715 23.748-14.063 25.211-14.063 25.211"/><path fill="#1896A4" d="M-89.745 168.839c-3.075 1.853-3.73-6.226-7.436-12.416-3.708-6.188-10.085-9.846-7.01-11.7 3.077-1.853 11.113 1.658 14.82 7.846 3.707 6.19 2.704 14.417-.374 16.27z"/><path fill="#00C0A5" d="M-90.923 163.582c-2.588.57-3-3.328-6.687-8.684-3.686-5.358-8.71-8.013-5.735-10.026 2.975-2.013 9.702.818 12.792 5.413 3.09 4.594 2.217 12.727-.37 13.297z"/><path opacity=".3" fill="#FFF" enable-background="new" d="M-102.516 144.511c2.313-.822 5.047-.194 8.2 1.883 4.742 3.122 6.506 7.979 5.289 14.565-.143-5.773-2.004-10.064-5.585-12.874-2.98-2.338-5.616-3.529-7.904-3.574z"/><path fill="#E1E5EF" d="M-145.705 391.525c1.378.979 2.873 3.508 9.886 9.209 4.08 3.318 10.424 4.146 11.288 8.689 1.727 9.076-3.289 25.477-9.321 31.402-6.032 5.924-13.705 5.574-15.706.176-1.733-4.68 1.19-10.582-4.951-15.881-6.626-5.719-10.989-9.309-16.388-13.664 16.619 2.764 24.773-3.476 25.192-19.931z"/><linearGradient id="f" gradientUnits="userSpaceOnUse" x1="-888.498" y1="14.779" x2="-888.498" y2="15.609" gradientTransform="matrix(26.5744 0 0 59.0334 23473.941 -476.233)"><stop offset="0" stop-color="#c6cfe4" stop-opacity="0"/><stop offset="1" stop-color="#94a1c5"/></linearGradient><path fill="url(#f)" d="M-150.635 386.21c7.141 15.865 11.261 26.607 12.358 32.227 2.266 11.584-1.445 19.176-2.817 20.707-3.943 4.408-9.24.885-7.544 3.537.822 1.287 2.369 1.998 3.988 2.396 1.733.344 6.261.604 10.659-4.057 4.198-4.445 5.877-8.676 7.433-14.188 3.418-12.117 3.769-18.625-1.744-21.838-.646-.375-1.78-.975-3.407-1.797-1.963-.748-4.498-2.582-7.606-5.502-3.108-2.918-6.882-6.746-11.32-11.485z"/><linearGradient id="g" gradientUnits="userSpaceOnUse" x1="-877.6" y1="19.014" x2="-878.409" y2="18.88" gradientTransform="matrix(36.2518 0 0 16.4279 31687.021 59.015)"><stop offset="0" stop-color="#d8dff0" stop-opacity=".094"/><stop offset="1" stop-color="#afbcdc"/></linearGradient><path fill="url(#g)" d="M-153.552 376.005c-.481-4.248.669-7.697 3.449-10.348 3.108-2.963 17.936-5.111 26.108 3.889 3.911 4.305 6.106 7.631 6.587 9.973-2.341-2.885-4.721-4.699-7.138-5.439-5.396-1.654-10.084-2.814-14.335-2.969-7.678-.278-12.569 1.353-14.671 4.894z"/><path fill="#E1E5EF" d="M-55.083 464.308c-.279 4.379-2.665 22.762-2.665 32.979 0 7.4 12.831 18.67 3.9 24.289s-16.244 5.123-21.556 5.123c-5.313 0-10.535-4.4-11.51-10.18-.918-5.434 3.031-10.04 2.318-14.322-.484-2.91-7.022-31.783-8.578-39.166-1.057-5.01 8.516-5.117 17.973-5.117 8.136 0 20.372 2.412 20.118 6.394z"/><path fill="#00C0A5" d="M-93.688 460.64c6.754-3.654 13.584-5.248 20.487-4.783 6.905.465 13.028 2.18 18.37 5.145l-.31 3.863c-6.292-3.297-12.313-5.178-18.062-5.643-5.749-.463-12.317 1.074-19.71 4.615l-.775-3.197z"/><path fill="#1896A4" d="M-61.38 458.124c.351 1.357.32 2.643-.09 3.855 1.345.57 2.36 1.018 3.052 1.34.69.324 1.794.834 3.313 1.529l.269-3.91a915.29 915.29 0 01-3.166-1.537c-1.112-.542-2.965-1.06-3.378-1.277z"/><g transform="rotate(38 -4.382 441.806)"><path fill="#F9F9F9" d="M-92.089 269.125c3.669-5.07 17.129-28.696 17.128-33.364 0-1.919-2.976-3.698-5.418-.407-1.476 1.989-3.411 3.998-5.105 5.843-2.863 3.117-6.292 7.937-7.737 6.077-1.446-1.862 6.169-7.182 5.059-8.599-1.112-1.418-1.976-1.793-5.682 1.645-3.707 3.438-13.095 8.714-16.686 20.259-.327 1.051 2.437 6.114 7.9 7.901 3.354 1.099 6.873 5.717 10.541.645z"/><linearGradient id="h" gradientUnits="userSpaceOnUse" x1="-913.171" y1="383.829" x2="-912.679" y2="384.221" gradientTransform="matrix(31.696 -9.0887 8.2204 28.6679 25689.766 -19047.648)"><stop offset="0" stop-color="#d8dff0" stop-opacity=".094"/><stop offset="1" stop-color="#afbcdc"/></linearGradient><path fill="url(#h)" d="M-81.219 253.851c4.717-8.018 6.597-14.563 6.426-17.198-.127-1.982-1.042-2.745-1.514-2.902-.467-.155-.467-.155-1.31 1.028-.843 1.185-3.108 11.842-9.721 19.465-6.853 7.897-12.553 14.016-12.553 14.016 2.18.803 5.636 1.736 7.823.84.219-.251 8.503-11.262 10.849-15.249z"/><path fill="#00C0A5" d="M-110.478 260.191c2.38 2.258 4.757 3.933 7.13 5.023 6.465 2.969 11.438 3.662 11.438 3.662s-.51.8-1.299 2.328c-.187.359-.428.9-.729 1.618-5.432-1.781-9.132-3.221-11.1-4.318-1.968-1.097-4.436-2.734-7.407-4.913l1.967-3.4z"/></g><path fill="#1896A4" d="M25.293 247.481a9.255 9.255 0 003.558-1.543s1.429 1.903 4.281 5.712c-.961.372-1.666.662-2.118.869-.45.209-1.075.533-1.877.972a156.694 156.694 0 01-1.93-2.917 180.13 180.13 0 01-1.914-3.093z"/><path fill="#FFF" d="M-194.718 309.758c1.565.89 2.516 1.78 3.108 3.234.716 1.754 5.912 3.738 6.722 5.853 1.886 4.925.636 6.492-1.56 9.216-4.93 6.121-17.338 7.004-19.385 6.762-4.904-.58-6.783-10.148-9.776-18.796 3.143-7.236 15.008-9.619 20.891-6.27z"/><g transform="scale(-1 1) rotate(-55 175.852 161.418)"><linearGradient id="i" gradientUnits="userSpaceOnUse" x1="421.433" y1="455.817" x2="422.274" y2="456.118" gradientTransform="matrix(-10.8443 -10.3953 21.7579 -9.2473 -5289.34 8860.843)"><stop offset="0" stop-color="#d8dff0" stop-opacity=".094"/><stop offset="1" stop-color="#afbcdc"/></linearGradient><path fill="url(#i)" d="M65.461 263.232c-1.628-.771-3.193-2.285-4.725-1.936-1.847.42-4.808-2.702-8.663-2.14-5.198.758-5.67 3.194-6.643 6.555-.073.253-1.138 4.753.547 5.225 5.657 1.586 20.727-.423 23.653-2.979 1.24-1.083-2.884-4.115-4.169-4.725z"/></g><path fill="#00C0A5" d="M-216.357 312.405c2.183-3.099 5.849-4.963 10.997-5.596 5.147-.632 9.805.135 13.966 2.301l-.382 3.532c-3.387-2.793-7.915-3.764-13.584-2.91-5.67.851-9.07 2.944-10.2 6.277l-.797-3.604z"/><path fill="#1896A4" d="M-202.185 306.612c.33.967.33 1.916 0 2.84 0 0 3.887.09 5.808.8 1.279.474 2.836 1.27 4.666 2.392.124-.724.204-1.28.238-1.676.036-.395.063-1.01.079-1.848-1.212-.95-2.874-1.65-4.983-2.096-2.112-.445-4.048-.582-5.808-.412zm77.27-57.661c-12.035 0-21.792 9.807-21.792 21.903 0 12.096 9.757 21.903 21.792 21.903s21.791-9.807 21.791-21.903-9.756-21.903-21.791-21.903m-.699 36.597c-7.13 0-13.243-6.033-13.243-13.477 0-1.748.318-3.766.897-5.297l5.691 2.529c-.02.084-.043.191-.067.314-.17.579-.27 1.18-.296 1.784-.012.12-.018.239-.014.36 0 .029.005.056.006.084.025 2.211 1.012 4.291 2.68 5.654 1.669 1.363 3.84 1.863 5.902 1.359l3.233 5.732a12.45 12.45 0 01-4.786.957m13.135-7.7l-15.173-6.728 9.729-.044c-.348-3.693-3.975-6.693-7.396-6.693a6.75 6.75 0 00-2.279.398l-3.367-5.986a12.963 12.963 0 015.646-1.285c7.49 0 13.892 6.472 13.892 14.312 0 2.112-.262 4.226-1.053 6.026"/><path fill="#323166" d="M-195.033 246.714c-.926 3.172-.441 6.021 1.452 8.551 0 0 .15.188.397 0 .572-.438 2.945-2.547 7.158-5.486.11-.076.146-.2.104-.37-3.054-3.222-3.43-6.997-1.124-11.329-.424.291-1.711 1.625-3.863 4.004-.756.835-2.131 2.378-4.124 4.63z"/><path d="M-192.968 244.544c-.527.615-.79 1.13-.79 1.544 0 .413.038.812.115 1.194m2.038-4.107c-.527.616-.79 1.13-.79 1.544s.036.812.114 1.194m2.038-4.108c-.527.616-.79 1.131-.79 1.545 0 .412.037.811.114 1.193" fill="none" stroke="#FFF" stroke-width=".6" stroke-linecap="round"/><g fill="none" stroke="#FFF" stroke-width=".5" stroke-linecap="round"><path d="M-190.154 245.986l-2.813 2.752c-.346.293-.48.437-.407.43 1.46-.133 3.277-.652 3.945-.816"/><path d="M-189.737 247.267l-2.557 2.838c-.346.29-.48.436-.406.428 1.46-.133 3.164-.356 3.968-.428"/></g><path fill="#323166" d="M-155.892 243.661c4.12 0 7.462-3.357 7.462-7.5s-3.342-7.5-7.462-7.5c-4.121 0-7.463 3.357-7.463 7.5s3.342 7.5 7.463 7.5z"/><ellipse fill="#323166" cx="-97.953" cy="228.55" rx="7.462" ry="7.5"/><g transform="translate(43.191 98.115)"><path fill="none" stroke="#B2C1DD" stroke-width="15" stroke-linecap="round" d="M-200.006 135.99c-13.592-17.226-22.909-25.158-27.955-23.797-7.566 2.043 3.641 17.715 5.42 19.354"/><linearGradient id="j" gradientUnits="userSpaceOnUse" x1="-993.053" y1="18.164" x2="-992.733" y2="17.921" gradientTransform="matrix(18.3243 0 0 19.396 17969.236 -226.383)"><stop offset="0" stop-color="#5452d7" stop-opacity="0"/><stop offset="1" stop-color="#7e7da8"/></linearGradient><path fill="url(#j)" d="M-224.641 118.726c-8.497-5.397-10.845.442-8.27 4.403a2360.33 2360.33 0 018.271 12.813c.774-.688 3.796-3.078 9.063-7.17-.229.354-.865-.259-1.909-1.841-1.565-2.373-6.755-7.408-7.155-8.205z"/></g><g transform="scale(-1 1) rotate(29 -213.417 -292.55)"><path fill="none" stroke="#B2C1DD" stroke-width="15" stroke-linecap="round" d="M309.946 10.494c-22.623-19.506-37.335-27.889-44.13-25.15-10.194 4.109 4.097 20.852 5.877 22.491"/><linearGradient id="k" gradientUnits="userSpaceOnUse" x1="113.856" y1="271.407" x2="114.191" y2="271.119" gradientTransform="matrix(9.4999 16.9594 -15.2031 10.5974 3313.234 -4806.05)"><stop offset="0" stop-color="#5452d7" stop-opacity="0"/><stop offset="1" stop-color="#7e7d9d"/></linearGradient><path fill="url(#k)" d="M269.279-8.277c-8.538-.994-11.662 1.148-9.376 6.426 3.429 7.917 9.809 13.335 9.809 13.335.502-.444 2.306-2.734 3.534-4.136.446-.509 1.733-1.825 3.861-3.946-.983-.976-1.687-1.72-2.114-2.23-1.231-1.477-2.836-3.752-3.071-4.181-1.365-2.47-2.246-4.227-2.643-5.268z"/><path fill="#E1E5EF" d="M277.328 2.702c-2.71 2.588-4.532 4.404-5.467 5.444-2.833 3.156-4.063 5.192-4.292 5.622-.718 1.35 1.139 1.977 5.571 1.881 2.14-.795 3.674-1.648 4.606-2.562.932-.912 2.109-2.713 3.529-5.404l-3.947-4.981z"/></g><path fill="#E1E5EF" d="M-184.173 235.124c2.616-2.928 4.459-4.877 5.529-5.848 3.043-2.762 4.82-3.801 5.185-3.866l2.844 3.315c-3.521 6.543-5.45 9.908-5.788 10.096s-1.859-.24-4.566-1.286l-3.204-2.411z"/><ellipse fill="#D1D5E3" cx="-138.497" cy="236.018" rx="1.362" ry="1.369"/><ellipse fill="#D1D5E3" cx="-127.264" cy="237.927" rx="1.361" ry="1.369"/><ellipse fill="#D1D5E3" cx="-115.589" cy="234.11" rx="1.361" ry="1.369"/><path fill="#FFF" d="M-61.08 302.994c-3 19.547.221 46.158 1.78 55.557 1.04 6.264-8.17 2.852-27.63-10.238l7.02-35.172 18.83-10.147z"/><ellipse transform="rotate(169.997 -83.119 408.33)" fill="#B3BED7" cx="-83.12" cy="408.331" rx="11.002" ry="15.002"/><path fill="#B3BED7" d="M-188.707 392.874c3.995-1.461 1.825-7.611-2.108-13.045-3.934-5.436-7.409-6.609-11.839-3.975-2.504 1.492-2.504 2.391-1.948 4.479.613 2.307 2.273 5.236 5.132 7.992 5.441 5.243 6.768 6.01 10.763 4.549z"/><linearGradient id="l" gradientUnits="userSpaceOnUse" x1="-884.83" y1="13.508" x2="-884.815" y2="14.544" gradientTransform="matrix(29.2644 0 0 240.328 25826.148 -3017.924)"><stop offset="0" stop-color="#d8dff0" stop-opacity=".094"/><stop offset="1" stop-color="#afbcdc"/></linearGradient><path fill="url(#l)" d="M-78.262 220.673c4.729 16.146 6.452 35.599 5.17 58.357-1.923 34.139-10.08 32.618-9.057 47.15 2.479 5.588 10.7 18.865 15.104 40.229s7.248 19.992 5.63 91.746c0 0-.302-.234 2.992 1.104.706.285 1.909.867 3.61 1.742 1.545-23.938 2.115-42.629 1.716-56.076-.602-20.172-3.664-33.393-6.7-50.613-.924-5.238-2.477-22.514-2.507-30.262-.028-7.188.091-13.06.889-19.1.676-5.122 1.8-10.376 2.681-16.66.67-4.781 1.141-10.152 1.515-16.537.364-4.701.532-11.291-.501-17.104-.313-1.756-1.445-8.303-5.414-16.023-2.646-5.147-7.689-11.131-15.128-17.953z"/><path fill="#00C0A5" d="M-170.548 316.421c15.357 4.75 29.559 7.213 42.603 7.392 13.043.177 34.953-3.437 65.73-10.839l-.07 4.783v4.045c-30.396 7.092-52.282 10.438-65.66 10.037-13.379-.398-28.19-3.029-44.438-7.889.415-1.363.74-2.563.976-3.594.233-1.032.519-2.345.859-3.935z"/><path fill="#1896A4" d="M-81.473 317.341c.383.887.464 2.408.243 4.566-.221 2.157-.553 3.568-.996 4.232l20.088-4.232v-8.99l-19.335 4.424z"/><linearGradient id="m" gradientUnits="userSpaceOnUse" x1="-881.615" y1="14.972" x2="-881.487" y2="15.013" gradientTransform="matrix(32.165 0 0 65.0027 28288.232 -478.733)"><stop offset="0" stop-color="#c6cfe4" stop-opacity="0"/><stop offset="1" stop-color="#94a1c5"/></linearGradient><path fill="url(#m)" d="M-61.468 461.956c-.685 20.447-1.186 31.883-1.502 34.303-.477 3.633 7.896 11.811 6.717 17.82-1.396 7.117-4.947 9.141-14.948 10.551-2.293.322-6.145.047-11.555-.83 1.731 2.105 4.953 3.16 9.664 3.16 2.705 0 5.631-.271 7.789-.719 3.483-.725 14.712-2.533 14.712-9.736 0-7.205-6.607-14.168-7.059-17.826-.231-1.891.494-8.99 1.616-21.523.217-2.426.525-6.531.924-12.32a337.44 337.44 0 00-3.239-1.498c-.72-.327-1.759-.788-3.119-1.382z"/><path fill="#00C0A5" d="M-172.534 410.095c7.164 1.52 13.139.609 17.924-2.729s7.349-9.041 7.688-17.113l1.265 1.322c0 8.367-2.461 14.285-7.384 17.754-4.924 3.469-10.833 4.217-17.73 2.242l-1.763-1.476z"/><path fill="#1896A4" d="M-145.96 396.419c-.104-.641-.244-1.139-.425-1.498-.182-.359-.468-.689-.861-.99.09-.795.153-1.402.191-1.82.038-.42.086-1.051.145-1.896l1.247 1.34a30.21 30.21 0 01-.047 2.242 29.666 29.666 0 01-.25 2.622z"/><path opacity=".3" fill="#FFF" enable-background="new" d="M-177.775 162.771c-2.376 1.928-4.114 4.694-5.219 8.298-1.104 3.604-1.104 7.242 0 10.914-2.339-3.887-2.924-7.593-1.754-11.118 1.169-3.526 3.493-6.224 6.973-8.094z"/></g><path fill="#18286C" d="M852.862 677.117c-25.014-.135-40.695.625-47.042 2.283-.64 0 2.2 2.861 3.302 3.596 1.103.739 15.336-1.44 25.064 4.963 6.487 4.267 12.712.654 18.676-10.842z"/><path fill="#B7464C" d="M813.362 658.953l-3.437 3.24c1.21.817 3.23.73 6.057-.254a77.33 77.33 0 018.637-2.456l-6.487-3.524-4.77 2.994z"/><path fill="#18286C" d="M879.682 702.731c8.2 9.608 14.136 15.885 17.804 18.83 5.845 4.693 11.948 9.008 13.955 15.648 0 0 2.963.524 5.4.953 1.625.286-3.824-8.13-16.347-25.252l-9.993-8.62-10.819-1.559z"/><path fill="#22306B" d="M837.213 628.367c5.3 4.588 8.167 8.156 8.603 10.708.436 2.548-2.375 2.651-8.433.308.628-2.174.933-3.898.913-5.178-.02-1.278-.38-3.225-1.083-5.838z"/><path fill="#57F" d="M935.708 739.23c-3.112-.149-4.994-.28-5.645-.394-.522-.092-19.846-8.497-32.169-19.042-12.324-10.547-25.081-14.861-34.118-18.171-7.337-2.69-18.795-6.407-34.278-8.39-5.11-.654-12.837-1.235-23.174-1.744-1.669-.285-2.734-1.037-3.197-2.257 15.486-4.621 32.107-1.69 32.227-12.912.093-8.606-4.758-14.096-6.747-14.447-3.585-.631-9.924.99-13.214-4.42-3.286-5.408-3.129-7.37-2.501-10.921.043-.247 1.252-.169 3.097-.254 2.996-.14 7.453-.499 9.707-1.837 3.642-2.162 7.665-8.627 16.527-7.062 0 0 1.836-6.771.015-10.404 0 0 8.323 2.552 11.259 14.246 2.932 11.695 3.55 25.777 24.155 34.24 20.606 8.463 38.34 9.727 46.9-7.742 0 0-.555 15.25-18.099 22.225 0 0 3.812 4.221 6.872 22.777 1.168 7.097 8.63 15.933 22.383 26.509z"/><path fill="#22306B" d="M818.856 645.64c-1.142 4.416-2.894 7.175-5.253 8.283-.102.043-.809-1.525-1.15-3.34-.358-1.896-.197-4.107.162-4.63.703-1.022 1.278-.14 2.81-.131a33.116 33.116 0 003.431-.182z"/><path fill="#2841A6" d="M842.126 637.136c1.69 1.545 1.69 4.46 0 8.742-2.537 6.426-9.107 7.473-13.478 3.463s-1.486-2.271-4.374-4.22c1.22-.737 3.039-2.092 5.882-4.319.606-.474 1.658-1.24 3.156-2.296 1.921-.742 3.422-1.195 4.506-1.366 1.084-.168 2.52-.17 4.308-.004z"/><path opacity=".45" fill="#02BAD3" enable-background="new" d="M867.755 626.33c-1.429-5.13-2.785-8.815-4.065-11.06-8.532-14.929-33.687-28.816-56.345-13.13-11.016 7.625-22.712 22.422-13.076 48.458 1.1 3.027.71-10.361 3.614-21.877 1.423-5.639 4.93-10.928 7.279-13.428 3.28-3.49 11.522-11.172 20.85-12.127 10.982-1.123 23.161 4.922 26.019 6.6 3.525 2.067 8.766 7.591 15.724 16.564z"/><g transform="rotate(10 -2514.22 6503.68)"><path fill="#18286C" d="M-206.216 170.156c1.872 1.205 7.507 1.806 16.901 1.808 14.091-.002 18.214-6.307 28.482-6.307 6.845-.001 22.364 4.698 46.556 14.091 5.657-10.198 14.057-14.096 25.202-11.695 11.146 2.402-.055-.101-33.599-7.514l-41.317-3.295-29.347 4.248-12.879 6.561.001 2.103z"/><path fill="#1896A4" d="M-207.94 166.726c21.13-12.871 37.22-17.669 48.27-14.396 16.575 4.913 30.431 3.121 39.98.001 9.549-3.118 7.892-1.647 13.726 4.914 5.833 6.557 29.41 10.014 12.33 11.409-17.082 1.4-62.356-12.411-75.97-6.207-9.074 4.141-21.278 6.207-36.609 6.207l-1.727-1.928z"/><circle fill="#18286C" cx="-207.94" cy="168.655" r="3"/><path opacity=".5" fill="#0C4180" enable-background="new" d="M-205.488 166.673c7.401-3.566 11.52-5.417 12.356-5.552.836-.138 1.101.353.794 1.466l-13.15 4.086zm.165.363c6.566-1.328 10.273-1.984 11.122-1.973.848.011.432.441-1.246 1.295l-9.876.678z"/></g><path fill="#2266B6" d="M498.085 345.114l4.145 8.017 8.584 4.711-8.584 3.771-4.145 8.957-4.143-8.957-8.583-3.771 8.583-4.712zm301 148.243l2.763 5.344 5.722 3.14-5.722 2.515-2.763 5.972-2.763-5.972-5.722-2.515 5.722-3.14zm-40-213.071l5.066 9.797 10.491 5.759-10.491 4.608-5.066 10.948-5.064-10.948-10.493-4.608 10.493-5.759z"/><g transform="translate(1003 222)"><path fill="#18BBD0" d="M-188.248 171.841l-18.334-29.333 18.334 7.168v-.567l18.333-7.268-18.333 30z"/><ellipse fill="none" stroke="#27D6ED" stroke-width=".5" cx="-188.248" cy="145.842" rx="45.666" ry="9.333"/><ellipse fill="none" stroke="#27D6ED" stroke-width=".5" cx="-187.915" cy="145.175" rx="34" ry="6"/><path fill="#27D6ED" d="M-187.915 111.842l18 30.063-18.333 7.771-18.334-7.168 18.667-30.666z"/><circle fill="#27D6ED" cx="-225.582" cy="151.175" r="2.333"/><circle fill="#27D6ED" cx="-161.915" cy="149.175" r="2"/></g><path fill="#2266B6" d="M453 660.443l5.067 9.798 10.49 5.757-10.49 4.609L453 691.555l-5.064-10.948-10.493-4.609 10.493-5.757z"/></svg>