<svg xmlns="http://www.w3.org/2000/svg" width="1440" height="773.214" viewBox="0 81.786 1440 773.214" enable-background="new 0 81.786 1440 773.214"><path fill="#2163AF" d="M1120 524c-33.621-22.426-52.418-30.078-56.391-22.955-5.96 10.685-3.815 7.626-23.413 0-19.597-7.626-64.703-29.973-70.237-14.986s-.15 29.594-26.042 26.184C926.656 509.969 911.351 513.888 898 524h222z"/><g transform="rotate(-89 765.722 -46.446)"><circle fill="#0C4180" cx="50.268" cy="37.218" r="29.319"/><circle fill="#0B386E" cx="45.126" cy="32.251" r="4.044"/><circle fill="#0B386E" cx="50.621" cy="57.435" r="2.022"/><g transform="translate(.738 .812)"><linearGradient id="a" gradientUnits="userSpaceOnUse" x1="-127.088" y1="-380.485" x2="-127.088" y2="-382.169" gradientTransform="matrix(-13.8282 18.8173 -85.0695 -53.6367 -34069.098 -17989.494)"><stop offset="0" stop-color="#0c4180"/><stop offset="1" stop-color="#18286c"/></linearGradient><ellipse transform="rotate(122.001 49.83 36.87)" fill="none" stroke="url(#a)" cx="49.827" cy="36.869" rx="11.645" ry="50.291"/><ellipse transform="rotate(89.998 61.902 33.372)" fill="#0B386E" cx="61.902" cy="33.372" rx="5.661" ry="5.605"/></g></g><path opacity=".6" fill="#2163AF" enable-background="new" d="M356 625c-31.35-25.034-48.876-33.575-52.581-25.624-5.557 11.927-3.558 8.513-21.831 0s-60.332-33.458-65.492-16.729c-5.16 16.729-.14 33.034-24.282 29.228C175.72 609.337 161.448 613.712 149 625h207z"/><g opacity=".56"><path fill="#1C3087" d="M1091.129 654.434c-6.269-6.394-10.35-2.539-12.244 11.564s-1.895 40.635 0 79.592h12.244v-91.156z"/><path fill="#18286C" d="M1091.069 654.434c6.269-6.394 10.35-2.539 12.244 11.564s1.895 40.635 0 79.592h-12.244v-91.156z"/><g transform="translate(937 658)"><ellipse fill="#000D4B" cx="86.5" cy="42" rx="86.5" ry="42"/><defs><filter id="b" filterUnits="userSpaceOnUse" x="3" y="5" width="175" height="22"><feColorMatrix values="1 0 0 0 0 0 1 0 0 0 0 0 1 0 0 0 0 0 1 0"/></filter></defs><mask maskUnits="userSpaceOnUse" x="3" y="5" width="175" height="22" id="c"><g filter="url(#b)"><ellipse fill="#FFF" cx="86.5" cy="42" rx="86.5" ry="42"/></g></mask><g mask="url(#c)"><g transform="translate(3 5)" fill="#0C4180"><ellipse cx="72" cy="2" rx="12" ry="2"/><ellipse cx="102" cy="2" rx="12" ry="2"/><ellipse cx="133" cy="2" rx="12" ry="2"/><ellipse cx="42" cy="2" rx="12" ry="2"/><g transform="translate(0 18)"><ellipse cx="72" cy="2" rx="12" ry="2"/><ellipse cx="103" cy="2" rx="12" ry="2"/><ellipse cx="132" cy="2" rx="12" ry="2"/><ellipse cx="163" cy="2" rx="12" ry="2"/><ellipse cx="12" cy="2" rx="12" ry="2"/><ellipse cx="43" cy="2" rx="12" ry="2"/></g><ellipse cx="117" cy="11" rx="7" ry="2"/><ellipse cx="144" cy="11" rx="7" ry="2"/><ellipse cx="64" cy="11" rx="7" ry="2"/><ellipse cx="91" cy="11" rx="7" ry="2"/><ellipse cx="14" cy="11" rx="7" ry="2"/><ellipse cx="41" cy="11" rx="7" ry="2"/></g></g></g><path fill="#18286C" d="M1114.938 655.41c0-5.048-10.507-9.14-23.469-9.14S1068 650.362 1068 655.41s46.938 5.048 46.938 0z"/></g><path fill="#0C4180" d="M1817 639.771c-104.104-45.771-193.329-57.214-267.673-34.328-111.517 34.328-210.406 60.705-295.835 47.517-85.43-13.188-92.694 31.063-148.803 38.525-56.107 7.463-90.043-7.463-140.838 0-50.796 7.463-148.461 111.706-387.816 139.092-239.356 27.386-513.022-19.826-627.857-22.883-114.835-3.058-161.407 23.737-231.718 0-70.311-23.738-70.311-40.181-107.797-45.638-37.486-5.458-118.51 5.457-181.858 0-63.349-5.458-151.039-36.909-151.039-36.909s-36.964-10.971-79.087 0c-42.123 10.972-47.567 12.257-71.625 12.257-16.038 0-28.056-1.947-36.054-5.841V1294h2728"/><path fill="#18286C" d="M1823 650.579c-104.396-49.248-193.768-62.43-268.111-39.544-48.204 14.84-93.914 26.729-137.265 39.544-20.772 6.141-33.372 10.861-53.056 13.188-18.474 2.185-44.643 3.345-62.177 0-14.991-2.858-73.252-10.926-83.837-4.197-6.715 4.269-26.974 16.068-32.658 17.407-16.273 3.834-15.523 2.035-27.647 4.42-14.979 2.946-22.667 17.955-44.775 20.896-15.376 2.045-31.477-2.075-45.414 0-11.389 1.695-34.451 5.693-44.237 4.858-21.941-1.873-28.886-12.562-54.387-8.814-12.742 1.872-21.641 21.163-41.778 32.475-12.262 6.888-33.484 3.296-49.803 11.56-17.078 8.648-46.924 31.203-68.219 41.453-58.157 27.993-123.109 45.605-227.601 57.561-239.356 27.386-513.022-19.826-627.857-22.883-114.835-3.058-161.407 23.737-231.718 0s-70.311-40.181-107.797-45.638c-37.486-5.458-118.51 5.457-181.858 0-63.349-5.458-151.039-36.909-151.039-36.909s-36.964-10.971-79.087 0c-42.123 10.972-47.567 12.257-71.625 12.257-16.038 0-28.056-1.947-36.054-5.841v562.437h2728"/><path fill="#1C3087" d="M274 611.94c-8.257-8.42-13.633-3.344-16.128 15.231-2.496 18.575-2.496 53.518 0 104.828H274V611.94z"/><path fill="#18286C" d="M273 611.94c8.257-8.42 13.633-3.344 16.128 15.231 2.496 18.575 2.496 53.518 0 104.828H273V611.94z"/><path fill="#18286C" d="M305 613.02c0-6.639-13.879-12.02-31-12.02s-31 5.381-31 12.02c0 6.64 62 6.64 62 0z"/><path fill="#1C3087" d="M-282 590.832c73.271-48.832 136.067-61.04 188.392-36.624 78.486 36.624 148.086 64.766 208.212 50.695 60.126-14.071 65.24 33.139 104.729 41.101s63.374-7.962 99.125 0c35.75 7.962 104.488 119.176 272.949 148.393 168.462 29.218 381.016-11.646 461.838-14.906 53.882-2.175 248.8 167.598 584.756 509.317H-282"/><path fill="#000D4B" d="M-282 603.832c73.271-48.832 136.067-61.04 188.392-36.624 58.629 27.358 109.131 66.263 157.598 70.095 16.416 1.298 35.402-15.84 50.614-19.4 60.126-14.07 69.932 37.19 106.112 37.19 36.181 0 41.977 12.375 65.18 11.44 8.219-.33 22.435-13.523 31.786-11.44 13.037 2.903 22.91 25.288 47.956 46.669 27.795 23.728 49.513 52.785 102.96 75.387 30.462 12.881 86.438 17.221 125.294 23.96 34.137 5.921 91.12 19.809 126.108 20.248 38.25.479 64.142-17.319 109.018-13.095 88.692 8.349 157.742-23.4 204.282-25.278 80.822-3.262 212.571-42.867 238.955-48.689 26.383-5.822 83.408 5.822 127.994 0 44.585-5.822 106.303-27.377 106.303-27.377s26.017-11.705 55.663 0 33.479 1.076 50.41 1.076c11.287 0 19.746-2.077 25.375-6.231v600.046H-282"/><path fill="#2163AF" d="M702 665c26.806-19.818 41.793-26.58 44.96-20.285 4.752 9.441 3.042 6.739 18.667 0s51.588-26.488 56-13.244.12 26.152 20.764 23.139c13.762-2.009 25.965 1.454 36.609 10.391H702z"/><g transform="translate(767 182)"><path fill="#E1E5EF" d="M73.313 106.398c-8.086 1.855-19.941 11.841-35.568 29.955-8.622 9.995-31.837 13.513-19.396 67.814.295 1.284 1.456 2.397 3.484 3.341 9.566-2.251 15.329-3.377 17.288-3.377 6.963 0-.239-20.271 7.1-27.922 7.34-7.651 25.353-21.026 33.892-9.064s90.488 10.618 94.29-6.341c3.802-16.959 30.291 4.106 47.071 0 21.634-5.294 39.924-17.924 41.644-19.281 6.554-5.17-5.685-19.946-5.685-19.946s-24.001 10.663-38.646 6.546c-17.495-4.917-28.357-24.696-44.384-31.761-5.125-2.259-10.7-4.188-17.021-5.522-17.391-3.671-45.413 1.514-84.069 15.558z"/><linearGradient id="d" gradientUnits="userSpaceOnUse" x1="-356.15" y1="640.708" x2="-356.068" y2="640.547" gradientTransform="matrix(98.5338 17.3742 8.0658 -45.7437 30144.133 35639.02)"><stop offset="0" stop-color="#dce1f1" stop-opacity="0"/><stop offset="1" stop-color="#6075a8"/></linearGradient><path fill="url(#d)" d="M171.524 133.4c19.939 9.62 36.256 14.426 48.95 14.418 19.042-.011 45.58-12.94 45.986-15.261 0 0 1.353 2.025 6.81 0-3.397 3.188-7.687 6.087-10.312 8.966-1.494 1.639-19.244 11.4-23.396 13.08-11.047 4.466-19.088 7.627-26.175 6.558-.922-.139-1.898-.212-2.847-.406-2.208-.453-4.198-.796-5.686-1.241-11.603-3.472-20.901-6.77-25.824-4.77-1.823.741-4.267 3.098-7.331 7.071l-.175-28.415z"/><linearGradient id="e" gradientUnits="userSpaceOnUse" x1="-361.85" y1="642.482" x2="-361.368" y2="641.893" gradientTransform="matrix(43.2943 0 0 -49.6764 15707.135 32078.17)"><stop offset="0" stop-color="#dce1f1" stop-opacity="0"/><stop offset="1" stop-color="#6075a8"/></linearGradient><path fill="url(#e)" d="M71.234 153.917c-23.83 2.08-36.621 7.974-38.374 17.684-1.752 9.709-1.908 19.303-.468 28.781 4.736-.119 7.537.842 8.402 2.883.571 1.348 1.817-1.581 1.695-6.424-.06-2.347-.022-4.216.03-6.104.153-5.421.701-9.439 1.645-11.331.562-1.174 1.169-2.331 2.334-3.508 5.942-6.006 16.76-13.371 21.417-12.605 7.824-.103 8.931-3.228 3.319-9.376z"/><path fill="#FFF" d="M63.594 211.938l-1.975-.066c3.057-10.627 4.578-22.791 4.563-36.488-.005-4.373-.405-9.466-1.203-15.281-3.702-26.992 14.057-52.266 40.706-57.93l8.323-1.769c28.107-5.975 55.737 11.968 61.711 40.076a52.056 52.056 0 011.138 10.971c-.015 4.854-.146 9.102-.393 12.742-.974 14.354-3.795 30.515-8.465 48.482 8.602 39.828 13.695 65.242 12.932 96.249-1.152 46.814-4.712 67.799-5.375 78.956-.664 11.156 4.537 10.449 3.251 17.731s-13.63 6.107-18.699 6.107-11.009-1.024-12.689-6.107 3.687-4.929 2.165-14.2c-1.521-9.272-10.365-47.15-19.169-84.939-5.116-21.959-10.961-34.723-14.373-39.377-7.37-10.055-45.938-12.97-33.678 5.816 1.511 2.315 8.719 10.279 15.731 15.981 4.08 3.317 10.424 4.146 11.288 8.688 1.726 9.077-3.289 25.477-9.321 31.402-6.033 5.925-13.706 5.576-15.707.177-1.733-4.68 1.191-10.583-4.951-15.882-6.626-5.718-26.231-22.031-35.276-28.459-9.045-6.427-17.063-11.552-17.063-28.097s29.969-39.306 34.522-44.783h2.007z"/><path fill="#A8AEC0" d="M71.863 105.846c-1.34 2.064-1.364 3.776-.072 5.134.858.902 3.674 2.31 5.316 2.867 3.446 1.17 8.65 2.356 14.817 2.765 15.363 1.02 36.691-2.274 51.651-18.912 1.345-1.687 1.286-3.987-.176-6.896l-31.828 16.092-39.708-1.05z"/><path fill="#D1D5E3" d="M70.905 107.847c6.561 3.573 13.031 5.463 19.407 5.67 9.564.309 20.376-1.445 26.757-3.346 12.352-3.682 21.338-9.623 26.958-17.825.231.594.35.989.355 1.181.009.29-7.846 12.13-27.034 17.905-5.159 1.554-15.731 3.582-27.004 3.217-10.185-.33-19.701-5.482-19.606-6.086.065-.403.12-.642.167-.716z"/><path fill="none" stroke="#1872A4" stroke-width="5" stroke-linecap="round" d="M66.524 104.094c-14.185-3.076-23.187-9.172-27.007-18.289-5.731-13.675 4.205-20.342 6.924-20.92"/><path fill="#FFF" d="M108.735 109.62c25.974-5.522 45.446-19.593 39.897-45.704-5.55-26.111-31.33-42.644-57.303-37.123-25.973 5.52-42.303 31.004-36.754 57.115 5.55 26.112 28.187 31.232 54.16 25.711z"/><path fill="#1896A4" d="M53.356 78.423c3.956.842 1.508-7.102 3.008-14.161 1.498-7.06 6.79-12.504 2.833-13.346-3.956-.84-11.048 4.967-12.548 12.027-1.498 7.059 2.75 14.639 6.707 15.48z"/><path fill="#00C0A5" d="M53.45 72.006c2.637-.26 1.83-4.093 3.686-10.328 1.858-6.235 5.82-10.316 2.368-11.307-3.45-.991-8.98 3.784-10.504 9.11-1.523 5.326 1.811 12.785 4.45 12.525z"/><g transform="rotate(-12 226.365 -235.363)"><path fill="#D1D5E3" d="M39.507 75.839c20.8 0 39.213-10.8 39.212-35.373C78.719 15.892 59.77.277 38.97.278 18.17.278.045 16.114.045 40.689c0 24.573 18.662 35.15 39.462 35.15z"/><path fill="#161440" d="M39.689 74.101c20.8 0 39.213-10.909 39.213-35.733 0-24.823-20.478-36.315-41.279-36.315-20.8 0-37.397 11.716-37.397 36.539.001 24.824 18.663 35.509 39.463 35.509z"/><path fill="#323166" d="M75.541 42.067c-.076-3.409-2.662-.796-4.926 1.605-3.253 3.449-6.854 8.499-19.394 14.424-14.527 6.864-27.844 1.925-33.922 1.704-2.333-.085-4.179 1.251-3.208 3.718.991 2.518 6.672 4.468 14.098 5.869 0 0 15.787 3.364 28.522-1.696 11.662-4.635 19.022-16.917 18.83-25.624z"/><ellipse transform="rotate(89.994 12.823 25.767)" fill="#323166" cx="12.823" cy="25.767" rx="2.636" ry="2.622"/><ellipse transform="rotate(89.999 22.703 18.841)" fill="#323166" cx="22.703" cy="18.841" rx="6.15" ry="6.119"/></g><path fill="none" stroke="#1872A4" stroke-width="5" stroke-linecap="round" d="M143.957 42.629c14.643-1.539 20.06 5.607 16.249 21.439-5.715 23.748-14.063 25.211-14.063 25.211"/><path fill="#1896A4" d="M144.171 56.997c-3.075 1.854-3.73-6.226-7.437-12.415-3.707-6.189-10.086-9.846-7.01-11.7 3.077-1.854 11.113 1.657 14.821 7.846 3.706 6.19 2.703 14.415-.374 16.27z"/><path fill="#00C0A5" d="M142.993 51.74c-2.589.57-3-3.327-6.687-8.684-3.687-5.357-8.71-8.012-5.736-10.025 2.976-2.013 9.703.817 12.793 5.412 3.089 4.595 2.216 12.728-.37 13.297z"/><path opacity=".3" fill="#FFF" enable-background="new" d="M131.399 32.669c2.313-.822 5.047-.194 8.201 1.883 4.742 3.122 6.505 7.978 5.289 14.565-.143-5.773-2.004-10.064-5.585-12.874-2.981-2.338-5.616-3.529-7.905-3.574z"/><path fill="#E1E5EF" d="M88.21 279.684c1.378.977 2.873 3.507 9.886 9.209 4.08 3.317 10.424 4.146 11.288 8.688 1.726 9.077-3.289 25.477-9.321 31.402-6.033 5.925-13.706 5.576-15.707.177-1.733-4.68 1.191-10.583-4.951-15.882-6.626-5.718-10.989-9.307-16.387-13.664 16.619 2.765 24.773-3.476 25.192-19.93z"/><linearGradient id="f" gradientUnits="userSpaceOnUse" x1="-367.598" y1="642.373" x2="-367.598" y2="641.543" gradientTransform="matrix(26.5744 0 0 -59.0334 9865.255 38205.828)"><stop offset="0" stop-color="#c6cfe4" stop-opacity="0"/><stop offset="1" stop-color="#94a1c5"/></linearGradient><path fill="url(#f)" d="M83.28 274.368c7.141 15.866 11.261 26.608 12.359 32.227 2.265 11.584-1.446 19.176-2.818 20.708-3.943 4.407-9.24.884-7.544 3.536.823 1.288 2.37 1.998 3.989 2.396 1.733.345 6.26.605 10.659-4.056 4.198-4.446 5.877-8.675 7.432-14.187 3.418-12.118 3.769-18.626-1.744-21.839-.645-.375-1.78-.974-3.407-1.796-1.963-.748-4.498-2.582-7.606-5.502s-6.882-6.749-11.32-11.487z"/><linearGradient id="g" gradientUnits="userSpaceOnUse" x1="-363.214" y1="643.445" x2="-364.023" y2="643.58" gradientTransform="matrix(36.2518 0 0 -16.4279 13273.499 10829.934)"><stop offset="0" stop-color="#d8dff0" stop-opacity=".094"/><stop offset="1" stop-color="#afbcdc"/></linearGradient><path fill="url(#g)" d="M80.363 264.163c-.481-4.248.669-7.697 3.449-10.347 3.109-2.963 17.936-5.111 26.109 3.888 3.911 4.306 6.106 7.631 6.587 9.974-2.341-2.886-4.721-4.699-7.138-5.441-5.395-1.654-10.084-2.813-14.335-2.968-7.679-.278-12.57 1.354-14.672 4.894z"/><path fill="#E1E5EF" d="M178.832 352.466c-.28 4.379-2.665 22.762-2.665 32.979 0 7.4 12.831 18.67 3.9 24.289-8.93 5.619-16.244 5.124-21.556 5.124s-10.535-4.401-11.51-10.181c-.917-5.432 3.032-10.038 2.32-14.322-.485-2.91-7.023-31.783-8.579-39.165-1.057-5.011 8.515-5.117 17.973-5.117 8.135 0 20.372 2.41 20.117 6.393z"/><path fill="#00C0A5" d="M140.227 348.798c6.754-3.653 13.584-5.248 20.488-4.783 6.905.465 13.028 2.18 18.37 5.146l-.31 3.863c-6.292-3.298-12.312-5.18-18.06-5.643s-12.319 1.075-19.712 4.615l-.776-3.198z"/><path fill="#1896A4" d="M172.535 346.283c.351 1.357.32 2.643-.09 3.855 1.345.571 2.361 1.018 3.052 1.341s1.794.833 3.313 1.529l.269-3.911a760.3 760.3 0 01-3.166-1.537c-1.112-.543-2.965-1.06-3.378-1.277z"/><g transform="rotate(38 -4.382 441.806)"><path fill="#F9F9F9" d="M23.382 36.981c3.669-5.07 17.129-28.697 17.128-33.365 0-1.918-2.976-3.698-5.418-.407-1.476 1.989-3.411 3.998-5.105 5.843-2.863 3.117-6.292 7.937-7.738 6.077-1.446-1.861 6.17-7.181 5.059-8.598-1.111-1.418-1.976-1.794-5.682 1.644S8.531 16.89 4.939 28.435c-.327 1.051 2.437 6.114 7.9 7.902 3.356 1.097 6.874 5.715 10.543.644z"/><linearGradient id="h" gradientUnits="userSpaceOnUse" x1="-167.512" y1="817.741" x2="-167.02" y2="817.35" gradientTransform="matrix(19.9158 -24.8117 -25.9918 -16.995 24604.72 9755.33)"><stop offset="0" stop-color="#d8dff0" stop-opacity=".094"/><stop offset="1" stop-color="#afbcdc"/></linearGradient><path fill="url(#h)" d="M34.252 21.706c4.717-8.017 6.597-14.563 6.426-17.197-.128-1.983-1.042-2.745-1.514-2.902-.467-.156-.467-.156-1.31 1.028-.842 1.185-3.107 11.842-9.721 19.465C21.28 29.998 15.58 36.116 15.58 36.116c2.18.802 5.636 1.737 7.823.84.219-.252 8.504-11.263 10.849-15.25z"/><path fill="#00C0A5" d="M4.993 28.047c2.38 2.258 4.757 3.933 7.13 5.023 6.466 2.969 11.438 3.661 11.438 3.661s-.51.8-1.299 2.328c-.186.36-.428.9-.728 1.619-5.432-1.782-9.132-3.221-11.1-4.318s-4.437-2.734-7.408-4.912l1.967-3.401z"/></g><path fill="#1896A4" d="M259.208 135.639a9.255 9.255 0 003.558-1.543l4.281 5.712a40.64 40.64 0 00-2.118.87c-.451.208-1.076.532-1.877.971a156.694 156.694 0 01-1.93-2.917 180.13 180.13 0 01-1.914-3.093z"/><path fill="#FFF" d="M39.197 197.915c1.565.891 2.516 1.781 3.109 3.235.716 1.755 5.91 3.738 6.722 5.853 1.886 4.925.636 6.492-1.56 9.218-4.931 6.121-17.339 7.003-19.386 6.762-4.903-.58-6.783-10.149-9.776-18.797 3.143-7.237 15.009-9.62 20.891-6.27z"/><g transform="scale(-1 1) rotate(-55 175.852 161.418)"><linearGradient id="i" gradientUnits="userSpaceOnUse" x1="-97.847" y1="559.01" x2="-97.006" y2="558.709" gradientTransform="matrix(-11.603 13.5375 -21.3629 -3.2113 10813.356 3129.36)"><stop offset="0" stop-color="#d8dff0" stop-opacity=".094"/><stop offset="1" stop-color="#afbcdc"/></linearGradient><path fill="url(#i)" d="M22.908 7.471c-1.628-.771-3.193-2.285-4.724-1.937-1.848.42-4.808-2.702-8.664-2.139-5.197.758-5.67 3.194-6.643 6.555-.073.253-1.138 4.753.548 5.225 5.657 1.586 20.727-.423 23.653-2.979 1.239-1.083-2.885-4.116-4.17-4.725z"/></g><path fill="#00C0A5" d="M17.558 200.563c2.182-3.098 5.848-4.963 10.997-5.595 5.147-.632 9.804.135 13.966 2.3l-.382 3.533c-3.387-2.793-7.915-3.764-13.584-2.91-5.67.851-9.07 2.944-10.2 6.277l-.797-3.605z"/><path fill="#1896A4" d="M31.73 194.77c.33.968.33 1.916 0 2.841 0 0 3.886.09 5.807.8 1.28.473 2.836 1.27 4.666 2.391.124-.724.204-1.282.239-1.676.036-.394.063-1.009.079-1.847-1.212-.952-2.874-1.65-4.984-2.096-2.111-.445-4.047-.583-5.807-.413zM109 137.109c-12.035 0-21.792 9.807-21.792 21.903s9.757 21.903 21.792 21.903 21.791-9.806 21.791-21.903-9.756-21.903-21.791-21.903m-.699 36.598c-7.13 0-13.243-6.034-13.243-13.477 0-1.748.318-3.765.897-5.297l5.691 2.53c-.019.083-.042.191-.067.314a7.528 7.528 0 00-.296 1.784c-.012.12-.017.24-.013.361 0 .028.004.055.005.083.026 2.211 1.012 4.292 2.68 5.655 1.669 1.363 3.84 1.863 5.902 1.359l3.234 5.732a12.42 12.42 0 01-4.786.957m13.134-7.702l-15.172-6.728 9.729-.044c-.348-3.694-3.975-6.693-7.396-6.693a6.706 6.706 0 00-2.28.398l-3.367-5.987a12.991 12.991 0 015.646-1.285c7.49 0 13.891 6.472 13.891 14.312 0 2.113-.261 4.226-1.053 6.027M0 0"/><path fill="#323166" d="M38.882 134.872c-.926 3.172-.441 6.022 1.452 8.551 0 0 .152.188.398 0 .572-.438 2.945-2.547 7.158-5.486.11-.077.146-.2.104-.372-3.053-3.22-3.428-6.995-1.124-11.327-.423.29-1.711 1.625-3.863 4.003-.757.836-2.132 2.38-4.125 4.631z"/><path d="M40.947 132.702c-.527.616-.79 1.13-.79 1.544 0 .413.038.811.115 1.194m2.038-4.107c-.527.616-.79 1.13-.79 1.544s.037.812.115 1.194m2.037-4.107c-.528.616-.79 1.131-.79 1.544 0 .413.037.811.114 1.194" fill="none" stroke="#FFF" stroke-width=".6" stroke-linecap="round"/><g fill="none" stroke="#FFF" stroke-width=".5" stroke-linecap="round"><path d="M43.761 134.145l-2.814 2.752c-.345.293-.48.436-.407.429 1.46-.133 3.277-.652 3.945-.816"/><path d="M44.178 135.426l-2.557 2.837c-.346.292-.48.436-.406.429 1.46-.133 3.164-.357 3.968-.43"/></g><path fill="#323166" d="M78.023 131.82c4.121 0 7.462-3.358 7.462-7.5s-3.341-7.5-7.462-7.5-7.462 3.358-7.462 7.5 3.341 7.5 7.462 7.5z"/><ellipse fill="#323166" cx="135.962" cy="116.708" rx="7.462" ry="7.5"/><g transform="translate(43.191 98.115)"><path fill="none" stroke="#B2C1DD" stroke-width="15" stroke-linecap="round" d="M33.909 24.149C20.317 6.923 10.999-1.01 5.954.352c-7.567 2.042 3.64 17.714 5.419 19.354"/><linearGradient id="j" gradientUnits="userSpaceOnUse" x1="-417.976" y1="545.051" x2="-417.656" y2="545.295" gradientTransform="matrix(18.3243 0 0 -19.396 7665.28 10585.924)"><stop offset="0" stop-color="#5452d7" stop-opacity="0"/><stop offset="1" stop-color="#7e7da8"/></linearGradient><path fill="url(#j)" d="M9.274 6.884c-8.497-5.397-10.845.442-8.27 4.404A2310.63 2310.63 0 019.276 24.1c.774-.688 3.796-3.078 9.063-7.17-.229.354-.865-.259-1.909-1.841-1.566-2.373-6.756-7.408-7.156-8.205z"/></g><g transform="scale(-1 1) rotate(29 -213.417 -292.55)"><path fill="none" stroke="#B2C1DD" stroke-width="15" stroke-linecap="round" d="M51.138 26.08C28.514 6.573 13.803-1.81 7.007.93c-10.194 4.109 4.098 20.851 5.877 22.49"/><linearGradient id="k" gradientUnits="userSpaceOnUse" x1="722.723" y1="269.495" x2="723.057" y2="269.784" gradientTransform="matrix(-15.6794 -9.6953 8.6913 -17.4908 8995.002 11739.208)"><stop offset="0" stop-color="#5452d7" stop-opacity="0"/><stop offset="1" stop-color="#7e7d9d"/></linearGradient><path fill="url(#k)" d="M10.47 7.308c-8.537-.994-11.662 1.148-9.376 6.426 3.429 7.917 9.809 13.335 9.809 13.335.502-.444 2.306-2.734 3.533-4.136.446-.509 1.733-1.825 3.861-3.946-.983-.976-1.687-1.72-2.113-2.23-1.231-1.477-2.836-3.752-3.072-4.181-1.363-2.47-2.244-4.226-2.642-5.268z"/><path fill="#E1E5EF" d="M18.52 18.287c-2.71 2.588-4.532 4.404-5.467 5.445-2.833 3.155-4.063 5.191-4.292 5.621-.718 1.35 1.139 1.976 5.571 1.88 2.139-.795 3.674-1.648 4.606-2.561.932-.913 2.109-2.714 3.529-5.404l-3.947-4.981z"/></g><path fill="#E1E5EF" d="M49.742 123.282c2.616-2.927 4.459-4.876 5.529-5.847 3.043-2.761 4.821-3.8 5.185-3.866l2.844 3.316c-3.521 6.542-5.45 9.908-5.788 10.095-.338.188-1.86-.241-4.567-1.286l-3.203-2.412z"/><ellipse fill="#D1D5E3" cx="95.418" cy="124.176" rx="1.362" ry="1.369"/><ellipse fill="#D1D5E3" cx="106.651" cy="126.086" rx="1.362" ry="1.369"/><ellipse fill="#D1D5E3" cx="118.326" cy="122.268" rx="1.362" ry="1.369"/><path fill="#FFF" d="M172.835 191.152c-3 19.546.221 46.158 1.78 55.556 1.04 6.265-8.17 2.852-27.63-10.238l7.02-35.172 18.83-10.146z"/><ellipse transform="rotate(-100.003 150.794 296.498)" fill="#B3BED7" cx="150.803" cy="296.5" rx="15.003" ry="11.002"/><path fill="#B3BED7" d="M45.208 281.033c3.995-1.462 1.825-7.611-2.108-13.046-3.934-5.434-7.41-6.609-11.839-3.973-2.504 1.491-2.504 2.39-1.949 4.477.614 2.308 2.274 5.237 5.132 7.992 5.442 5.244 6.769 6.011 10.764 4.55z"/><linearGradient id="l" gradientUnits="userSpaceOnUse" x1="-366.172" y1="642.101" x2="-366.157" y2="641.065" gradientTransform="matrix(29.2644 0 0 -240.328 10881.877 154431.453)"><stop offset="0" stop-color="#d8dff0" stop-opacity=".094"/><stop offset="1" stop-color="#afbcdc"/></linearGradient><path fill="url(#l)" d="M155.653 108.832c4.729 16.146 6.452 35.598 5.17 58.357-1.923 34.138-10.08 32.618-9.056 47.151 2.479 5.588 10.7 18.865 15.104 40.228 4.404 21.363 7.248 19.993 5.63 91.746 0 0-.302-.235 2.992 1.103.706.286 1.909.867 3.61 1.743 1.545-23.937 2.116-42.629 1.716-56.076-.601-20.172-3.664-33.394-6.7-50.613-.924-5.239-2.476-22.514-2.507-30.263-.028-7.188.091-13.059.889-19.099.676-5.122 1.8-10.376 2.681-16.661.67-4.78 1.14-10.152 1.514-16.537.364-4.701.533-11.29-.501-17.103-.313-1.756-1.445-8.303-5.414-16.024-2.646-5.147-7.689-11.131-15.128-17.952z"/><path fill="#00C0A5" d="M63.367 204.58c15.358 4.75 29.559 7.213 42.603 7.391 13.043.177 34.953-3.436 65.73-10.839l-.07 4.784v4.045c-30.396 7.091-52.282 10.437-65.66 10.037-13.379-.399-28.191-3.029-44.439-7.889.415-1.364.74-2.562.976-3.594.234-1.033.52-2.345.86-3.935z"/><path fill="#1896A4" d="M152.442 205.5c.383.886.464 2.408.244 4.566-.221 2.157-.553 3.568-.997 4.233l20.088-4.233v-8.991l-19.335 4.425z"/><linearGradient id="m" gradientUnits="userSpaceOnUse" x1="-364.955" y1="641.991" x2="-364.827" y2="641.95" gradientTransform="matrix(32.165 0 0 -65.0027 11903.814 42113.883)"><stop offset="0" stop-color="#c6cfe4" stop-opacity="0"/><stop offset="1" stop-color="#94a1c5"/></linearGradient><path fill="url(#m)" d="M172.447 350.115c-.684 20.447-1.185 31.882-1.502 34.303-.476 3.633 7.896 11.81 6.717 17.82-1.396 7.117-4.947 9.14-14.948 10.55-2.293.323-6.145.047-11.555-.829 1.732 2.105 4.953 3.159 9.664 3.159 2.705 0 5.631-.27 7.789-.719 3.484-.724 14.712-2.532 14.712-9.736 0-7.205-6.607-14.167-7.058-17.826-.232-1.891.494-8.99 1.616-21.523.217-2.426.525-6.532.924-12.32-1.439-.673-2.52-1.172-3.24-1.498s-1.759-.787-3.119-1.381z"/><path fill="#00C0A5" d="M61.381 298.254c7.164 1.519 13.139.609 17.924-2.729 4.785-3.337 7.348-9.042 7.688-17.114l1.265 1.323c0 8.367-2.461 14.285-7.384 17.754-4.924 3.469-10.833 4.216-17.73 2.242l-1.763-1.476z"/><path fill="#1896A4" d="M87.955 284.577c-.103-.639-.244-1.138-.425-1.497-.181-.36-.468-.689-.861-.99.09-.795.153-1.402.191-1.821s.086-1.051.145-1.896l1.247 1.34a30.23 30.23 0 01-.047 2.242 29.63 29.63 0 01-.25 2.622z"/><path opacity=".3" fill="#FFF" enable-background="new" d="M56.14 50.929c-2.376 1.928-4.115 4.694-5.219 8.298s-1.104 7.242 0 10.914c-2.339-3.887-2.924-7.593-1.754-11.118 1.169-3.526 3.493-6.224 6.973-8.094z"/></g><g transform="scale(-1 1) rotate(-10 2457.744 7049.946)"><path fill="#18286C" d="M93.124 48.293c24.657 4.211 39.968 7.682 45.931 10.416.629.111-2.664 2.436-3.877 2.969-1.214.534-14.853-4.082-25.545.534-7.129 3.076-12.632-1.563-16.509-13.919z"/><path fill="#B7464C" d="M135.178 37.264L138 41.05c-1.334.594-3.308.159-5.921-1.301A77.53 77.53 0 00124 35.83l7-2.344 4.178 3.778z"/><path fill="#18286C" d="M62.263 68.86c-9.744 8.038-16.679 13.19-20.803 15.454C34.889 87.92 28.129 91.109 25 97.301h-5.484c-1.65 0 5.178-7.342 20.484-22.029l11.338-6.753 10.925.341z"/><path fill="#22306B" d="M117 3c-6.016 3.599-9.459 6.615-10.331 9.051-.872 2.435 1.878 3.024 8.251 1.767-.241-2.248-.242-4 0-5.256.242-1.256.935-3.11 2.08-5.562z"/><path fill="#57F" d="M.751 95.076c3.09.394 4.966.592 5.627.592.531 0 21.02-4.922 34.987-13.167 13.968-8.245 27.281-10.28 36.756-11.971 7.693-1.373 19.621-3.045 35.214-2.309 5.147.243 12.856 1.013 23.124 2.308 1.693.009 2.873-.548 3.54-1.669-14.447-7.24-31.325-7.24-29.495-18.312 1.403-8.492 7.134-13.056 9.154-13.056 3.64 0 9.602 2.698 13.78-2.058 4.176-4.756 4.361-6.714 4.361-10.323 0-.249-1.204-.383-3.006-.787-2.927-.656-7.254-1.785-9.241-3.494-3.21-2.761-6.049-9.826-15.049-9.825 0 0-.633-6.987 1.792-10.248 0 0-8.639 1.068-13.561 12.075C93.815 23.839 90.762 37.601 69 42.357c-21.763 4.756-39.446 2.92-44.844-15.769 0 0-2.101 15.114 13.965 25.029 0 0-4.487 3.495-10.722 21.239-2.386 6.787-11.268 14.193-26.648 22.22z"/><path fill="#22306B" d="M132.079 23.198c.359 4.548 1.604 7.571 3.735 9.07.092.061 1.061-1.361 1.713-3.088.681-1.806.906-4.012.643-4.589-.515-1.129-1.234-.359-2.745-.618a32.893 32.893 0 01-3.346-.775z"/><ellipse transform="rotate(-10.003 127.275 29.877)" fill="#1C295C" cx="127.312" cy="29.883" rx="1" ry="-1"/><ellipse transform="rotate(-10.003 124.415 31.786)" fill="#1C295C" cx="124.451" cy="31.793" rx="1" ry="-1"/><ellipse transform="rotate(-10.003 127.751 32.263)" fill="#1C295C" cx="127.788" cy="32.27" rx="1" ry="-1"/><path fill="#2841A6" d="M110.639 10.784c-1.933 1.227-2.439 4.097-1.518 8.608 1.383 6.77 7.671 8.942 12.672 5.752 5.001-3.191 1.859-1.98 5.041-3.397-1.074-.938-2.629-2.588-5.042-5.274-.515-.573-1.418-1.509-2.71-2.81-1.763-1.065-3.163-1.773-4.201-2.128-1.038-.354-2.453-.604-4.242-.751z"/><ellipse transform="rotate(-10.003 117.644 19.047)" fill="#0C1740" cx="117.678" cy="19.05" rx="2.626" ry="-2.626"/></g><g transform="scale(-1 1) rotate(-10 2250.008 6584.384)"><ellipse transform="rotate(-70.001 39.409 39.177)" opacity=".451" fill="#22306B" enable-background="new" cx="39.409" cy="39.177" rx="38.914" ry="-38.854"/><path opacity=".45" fill="#02BAD3" enable-background="new" d="M3.276 24.691c2.297-4.803 4.272-8.198 5.924-10.186 10.995-13.22 38.179-22.528 57.769-3.146 9.524 9.421 18.473 26.024 4.463 49.992-1.61 2.789 1.099-10.329.238-22.173-.422-5.801-2.958-11.618-4.836-14.487-2.624-4.008-9.407-13.004-18.428-15.564-10.619-3.014-23.664.825-26.769 1.981-3.83 1.425-9.951 5.954-18.361 13.583z"/></g><g transform="rotate(10 -2514.22 6503.68)"><path fill="#18286C" d="M4.725 19.395c1.872 1.205 7.506 1.807 16.9 1.808 14.091-.001 18.214-6.308 28.482-6.308 6.845 0 22.365 4.698 46.557 14.091 5.657-10.198 14.057-14.096 25.202-11.694 11.145 2.401-.055-.103-33.6-7.515L46.949 6.482l-29.347 4.249-12.878 6.56v2.104z"/><path fill="#1896A4" d="M3 15.964C24.13 3.094 40.22-1.705 51.27 1.57c16.575 4.912 30.431 3.119 39.979 0 9.549-3.118 7.893-1.647 13.726 4.913 5.833 6.558 29.411 10.015 12.33 11.411-17.082 1.398-62.357-12.413-75.97-6.207-9.074 4.139-21.278 6.207-36.609 6.207L3 15.964z"/><circle fill="#18286C" cx="3" cy="17.894" r="3"/><path opacity=".5" fill="#0C4180" enable-background="new" d="M5.452 15.911c7.401-3.566 11.52-5.417 12.356-5.552.837-.137 1.101.353.794 1.467l-13.15 4.085zm.165.363c6.567-1.327 10.274-1.984 11.122-1.973.848.011.432.443-1.246 1.295l-9.876.678z"/></g><path fill="#2266B6" d="M732 233.272l4.145 8.017 8.583 4.711-8.583 3.771-4.145 8.957-4.144-8.957-8.583-3.771 8.583-4.712zm301 148.243l2.763 5.344 5.722 3.141-5.722 2.514-2.763 5.971-2.763-5.971-5.722-2.514 5.722-3.141zm-40-213.071l5.066 9.797 10.491 5.759-10.491 4.608L993 199.556l-5.065-10.948L977.443 184l10.492-5.759z"/><g transform="translate(1003 222)"><path fill="#18BBD0" d="M45.667 60L27.333 30.667l18.334 7.168v-.567L64 30 45.667 60z"/><ellipse fill="none" stroke="#27D6ED" stroke-width=".5" cx="45.667" cy="34" rx="45.666" ry="9.333"/><ellipse fill="none" stroke="#27D6ED" stroke-width=".5" cx="46" cy="33.333" rx="34" ry="6"/><path fill="#27D6ED" d="M46 0l18 30.063-18.333 7.771-18.334-7.168L46 0z"/><circle fill="#27D6ED" cx="8.333" cy="39.333" r="2.333"/><circle fill="#27D6ED" cx="72" cy="37.333" r="2"/></g><path fill="#FFF" d="M1718.5 700c-133.426 89.838-530.004 155-998.5 155-468.497 0-865.076-65.162-998.501-155H-403v310h2246V700h-124.5z"/></svg>