<svg width="1440" height="217" xmlns="http://www.w3.org/2000/svg" xmlns:xlink="http://www.w3.org/1999/xlink"><defs><path id="a" d="M0 0h1440v600H0z"/></defs><g transform="translate(0 -383)" fill="none" fill-rule="evenodd"><mask id="b" fill="#fff"><use xlink:href="#a"/></mask><g mask="url(#b)"><g transform="translate(-808 385)" fill="#FFF"><circle opacity=".1" cx="2182.5" cy="27.5" r="27.5"/><circle opacity=".1" cx="1643.5" cy="49.5" r="13.5"/><path d="M0 117.884l17.132 12.1c17.132 11.647 51.396 36.525 85.66 72.371 34.264 36.526 68.527 84.02 102.791 60.273C239.847 238.88 274.111 141.63 308.375 99.79c34.264-41.84 68.528-30.532 102.792-24.087 34.264 5.994 68.527 5.994 102.791 5.994 34.264 0 68.528 0 102.792-18.094 34.264-18.093 68.528-54.279 102.792-42.179 34.264 11.647 128.956 153.248 182.992 153.248S948.657 68 1027.917 52c79.259-16 186.583 133.914 223.583 133.914s50.528-44.283 84.792-80.13c34.264-36.525 68.527-47.834 102.791-36.186 34.264 12.1 68.528 48.286 102.792 48.286 34.264 0 68.528-36.186 102.792-36.186 34.264 0 62.767 60.272 97.031 54.279C1775.962 129.53 1809 63 1850.25 63.604c41.25.605 102.792 113.396 179.061 122.31 76.27 8.914 95.05-80.47 129.314-98.223 34.264-18.432 68.528 6.445 102.792 48.286 34.264 41.84 68.527 102.904 102.791 96.458 34.264-5.993 68.528-78.365 85.66-114.551L2467 81.698V335H0V117.884z" opacity=".1"/></g></g></g></svg>