<svg width="52" height="53" fill="none" xmlns="http://www.w3.org/2000/svg"><rect x="9" y="2" width="34.909" height="48" rx="17.454" fill="#4B83E8"/><path fill-rule="evenodd" clip-rule="evenodd" d="M25.725 12.086c.522-.175 1.123-.078 1.523.244l7.863 6.337c.545.44.545 1.152 0 1.592L28.236 25.8l6.875 5.54c.545.44.545 1.153 0 1.593l-7.863 6.337c-.4.322-1 .418-1.523.244-.522-.174-.862-.585-.862-1.04v-9.956l-5.478 4.415c-.546.44-1.43.44-1.976 0-.545-.44-.545-1.152 0-1.592l6.875-5.541-6.875-5.54c-.545-.44-.545-1.154 0-1.593.546-.44 1.43-.44 1.976 0l5.478 4.415v-9.956c0-.455.34-.866.862-1.04zm1.932 16.432l4.49 3.619-4.49 3.619v-7.238zm0-5.436v-7.238l4.49 3.619-4.49 3.619z" fill="#fff"/></svg>