<svg xmlns="http://www.w3.org/2000/svg" width="4096" height="4096"><path d="M1323.112 1901.517l-268.422-159.13-11.537-6.84-11.573 6.805-501.53 294.905-20.098 11.82 20.152 11.765 501.528 292.836 11.52 6.727 11.487-6.761 269.734-158.787c-21.94-7.566-41.873-18-59.004-30.686l-256.51 151.002-456.95-268.58 456.95-265.823 254.592 152.433c17.23-13.09 37.395-23.869 59.66-31.686zm58.068 292.907l272.75 159.254 11.521 6.727 11.486-6.761 497.448-292.837 19.928-11.73-19.877-11.784-497.448-294.905-11.537-6.84-11.572 6.804-271.474 159.628c21.696 7.753 41.367 18.326 58.235 31.112l254.425-152.334 456.948 265.822-456.948 268.58-256.3-150.879c-16.766 12.395-36.207 22.635-57.586 30.143z" fill="#999"/><path d="M1221.41 1988.4l-75.02 57.767 74.962 61.178c-5.394-18.834-8.287-38.757-8.287-59.369 0-20.687 2.913-40.68 8.346-59.576zm263.62 118.538l74.512-60.81-74.605-57.447c5.38 18.813 8.265 38.71 8.265 59.295 0 20.463-2.85 40.248-8.171 58.962z" fill="#999" stroke-width="11.059" stroke="#000" stroke-linecap="square"/><path d="M1400.24 1985.972c-34.244-25.036-82.3-17.572-107.336 16.672s-17.573 82.3 16.67 107.336c34.244 25.036 82.3 17.572 107.336-16.672s17.573-82.3-16.67-107.336z" fill="#999"/><path d="M1667.336 2047.976c0-172.55-139.879-312.428-312.428-312.428-172.551 0-312.43 139.878-312.43 312.428s139.879 312.429 312.43 312.429c172.55 0 312.428-139.879 312.428-312.429z" fill="none" stroke-width="31.13" stroke="#000" stroke-linecap="square"/><path d="M2560.464 2367.002l-103.736-169.904c51.028-15.7 82.429-53.83 82.429-107.1 0-90.84-75.7-119.998-151.96-119.998h-151.4v397.002h94.204v-157.568h32.523l85.793 157.568h112.147zm-116.072-275.322c0 40.373-38.691 48.223-69.531 48.223h-45.42v-92.522h51.027c28.597 0 63.924 7.29 63.924 44.299zm257.939-93.083c0-28.037-23.551-50.466-52.71-50.466-29.718 0-52.708 23.55-52.708 50.466 0 27.476 22.99 50.467 52.709 50.467 29.158 0 52.709-21.87 52.709-50.467zm-6.729 368.405v-279.247h-91.96v279.247h91.96zm355.507-279.247h-98.128l-58.877 181.118h-1.684l-58.877-181.118H2732.05l109.905 279.247h99.25l109.904-279.247zm109.344 107.661c2.243-28.598 28.037-53.27 63.364-53.27 36.447 0 54.952 24.112 54.952 53.27h-118.316zm202.987 35.327c0-95.326-57.755-151.96-140.184-151.96-84.671 0-150.838 58.316-150.838 149.717 0 94.204 69.53 147.474 153.642 147.474 56.634 0 100.371-21.31 126.726-59.439l-63.923-40.373c-12.337 16.822-32.524 29.158-61.682 29.158-33.083 0-63.923-21.868-66.728-52.708h202.427c.56-6.73.56-14.58.56-21.869zm222.608-74.018v-68.97h-65.604v-73.457h-90.276v73.457h-44.298v68.97h44.858v117.755c0 59.439 24.671 99.25 99.246 99.25 19.633 0 40.932-3.925 53.275-8.41l-1.12-67.29c-6.73 2.805-17.94 4.487-26.91 4.487-26.365 0-34.775-13.458-34.775-39.252v-106.54h65.604zM2404.277 1865.7c0-28.802-19.82-46.763-44.906-51.1v-.62c21.369-7.121 35.925-23.225 35.925-47.382 0-44.285-40.57-56.362-74.636-56.362h-87.332v219.26h87.332c41.809 0 83.617-16.104 83.617-63.797zm-60.08-91.98c0 15.487-11.46 23.848-31.279 23.848h-28.491v-45.215h26.013c22.298 0 33.757 6.504 33.757 21.368zm7.123 87.025c0 21.368-20.44 26.013-37.163 26.013h-29.73v-50.169h29.42c22.607 0 37.473 5.883 37.473 24.156zm230.512 68.75v-154.224h-50.79v83.305c0 17.653-9.599 33.137-27.251 33.137-18.583 0-22.918-15.484-22.918-32.827v-83.615h-51.098v95.383c0 30.97 14.555 63.177 56.053 63.177 21.679 0 39.331-12.078 46.453-25.704h.62v21.368h48.93zm89.604-203.465c0-15.486-13.008-27.873-29.112-27.873-16.413 0-29.11 13.007-29.11 27.873 0 15.174 12.697 27.872 29.11 27.872 16.104 0 29.112-12.078 29.112-27.872zm-3.717 203.465v-154.224h-50.789v154.224h50.79zm126.458-116.133v-38.091h-36.235v-40.57h-49.86v40.57h-24.465v38.091h24.776v65.035c0 32.827 13.626 54.815 54.814 54.815 10.839 0 22.607-2.168 29.421-4.646l-.62-37.163c-3.716 1.55-9.91 2.478-14.865 2.478-14.555 0-19.201-7.433-19.201-21.679v-58.84h36.235zm70.711 116.133V1695.37h-51.408v234.125h51.408zm357.28-154.224h-52.648l-26.943 97.551h-.619l-28.491-97.551h-51.1l-27.561 97.551h-.93l-26.634-97.551h-54.814l53.266 154.224h51.099l29.73-96.004h.62l30.35 96.004h51.098l53.577-154.224zm69.783-49.241c0-15.486-13.007-27.873-29.112-27.873-16.412 0-29.11 13.007-29.11 27.873 0 15.174 12.698 27.872 29.11 27.872 16.105 0 29.112-12.078 29.112-27.872zm-3.716 203.465v-154.224h-50.79v154.224h50.79zm126.45-116.133v-38.091h-36.228v-40.57h-49.859v40.57h-24.465v38.091h24.774v65.035c0 32.827 13.627 54.815 54.815 54.815 10.84 0 22.607-2.168 29.42-4.646l-.618-37.163c-3.717 1.55-9.911 2.478-14.866 2.478-14.555 0-19.2-7.433-19.2-21.679v-58.84h36.227zm171.363 116.133v-95.384c0-30.969-14.554-63.177-56.361-63.177-21.367 0-37.465 11.458-44.278 23.846h-.628v-99.41h-50.79v234.125h50.79v-83.306c0-18.271 9.913-32.827 27.566-32.827 18.268 0 22.61 15.174 22.61 32.517v83.616h51.091z" fill="#999"/></svg>