<svg width="3300" height="1700" fill="none" xmlns="http://www.w3.org/2000/svg"><path d="M923.112 701.518L654.69 542.388l-11.537-6.84-11.572 6.804L130.05 837.257l-20.098 11.819 20.152 11.767 501.528 292.837 11.521 6.72 11.487-6.76 269.734-158.783c-21.941-7.566-41.874-17.999-59.005-30.686L608.86 1115.17 151.909 846.592 608.86 580.77l254.591 152.433c17.23-13.091 37.395-23.869 59.661-31.685zm58.068 292.906l272.75 159.256 11.52 6.72 11.49-6.76 497.45-292.833 19.92-11.731-19.87-11.783-497.45-294.905-11.54-6.84-11.57 6.804L982.406 701.98c21.694 7.753 41.364 18.326 58.234 31.112l254.43-152.334 456.94 265.822-456.94 268.58-256.3-150.879c-16.77 12.395-36.21 22.635-57.59 30.143z" fill="#999"/><path d="M821.412 788.4l-75.021 57.767 74.962 61.178c-5.395-18.834-8.288-38.757-8.288-59.369 0-20.687 2.914-40.681 8.347-59.576zm263.618 118.538l74.51-60.81-74.6-57.447c5.38 18.813 8.26 38.71 8.26 59.295 0 20.463-2.85 40.248-8.17 58.962z" fill="#999" stroke="#000" stroke-width="11.059" stroke-linecap="square"/><path d="M1000.24 785.973c-34.245-25.037-82.3-17.572-107.336 16.671-25.037 34.244-17.574 82.3 16.67 107.336s82.3 17.572 107.336-16.672c25.04-34.243 17.57-82.299-16.67-107.335z" fill="#999"/><path d="M1267.34 847.976c0-172.55-139.88-312.428-312.432-312.428-172.551 0-312.429 139.878-312.429 312.428 0 172.554 139.878 312.424 312.429 312.424 172.552 0 312.432-139.87 312.432-312.424z" stroke="#000" stroke-width="31.13" stroke-linecap="square"/><path d="M2160.46 1167l-103.73-169.901c51.03-15.701 82.43-53.831 82.43-107.101 0-90.84-75.7-119.998-151.96-119.998h-151.4v397h94.2v-157.57h32.52l85.8 157.57h112.14zm-116.07-275.32c0 40.373-38.69 48.223-69.53 48.223h-45.42v-92.521h51.03c28.6 0 63.92 7.289 63.92 44.298zm257.94-93.082c0-28.037-23.55-50.467-52.71-50.467-29.72 0-52.71 23.551-52.71 50.467 0 27.476 22.99 50.466 52.71 50.466 29.16 0 52.71-21.869 52.71-50.466zM2295.6 1167V887.755h-91.96V1167h91.96zm355.51-279.245h-98.13l-58.88 181.115h-1.68l-58.88-181.115h-101.49L2441.96 1167h99.25l109.9-279.245zm109.34 107.662c2.25-28.598 28.04-53.271 63.37-53.271 36.44 0 54.95 24.112 54.95 53.271h-118.32zm202.99 35.323c0-95.323-57.75-151.957-140.18-151.957-84.67 0-150.84 58.317-150.84 149.717 0 94.2 69.53 147.47 153.64 147.47 56.63 0 100.37-21.3 126.73-59.43l-63.93-40.38c-12.33 16.82-32.52 29.16-61.68 29.16-33.08 0-63.92-21.87-66.73-52.71h202.43c.56-6.73.56-14.58.56-21.87zm222.61-74.015v-68.97h-65.61v-73.457h-90.27v73.457h-44.3v68.97h44.86v117.755c0 59.44 24.67 99.25 99.24 99.25 19.64 0 40.94-3.92 53.28-8.41l-1.12-67.29c-6.73 2.81-17.94 4.49-26.91 4.49-26.37 0-34.78-13.46-34.78-39.25V956.725h65.61zM1921.09 631.091h-57.86l-.31-35.488h46.91c8.43 0 15.17-.926 20.21-2.778 5.04-1.954 8.69-4.783 10.96-8.486 2.36-3.703 3.55-8.332 3.55-13.887 0-6.377-1.19-11.521-3.55-15.43-2.37-3.908-6.12-6.737-11.27-8.486-5.04-1.851-11.57-2.777-19.59-2.777h-26.54v182.842h-54.16V501.944h80.7c13.88 0 26.28 1.286 37.18 3.858 10.91 2.469 20.16 6.274 27.78 11.418 7.71 5.143 13.57 11.623 17.59 19.441 4.01 7.715 6.01 16.818 6.01 27.311 0 9.155-1.95 17.744-5.86 25.767-3.91 8.024-10.44 14.556-19.59 19.596-9.06 4.937-21.45 7.509-37.19 7.715l-14.97 14.041zm-2.16 95.51h-68.81l18.51-41.661h50.3c7.41 0 13.32-1.131 17.75-3.394 4.52-2.366 7.76-5.452 9.72-9.258 2.05-3.909 3.08-8.229 3.08-12.961 0-5.76-.97-10.749-2.93-14.967-1.85-4.217-4.83-7.457-8.95-9.72-4.11-2.366-9.62-3.549-16.51-3.549h-45.51l.3-35.488h54.47l12.65 14.195c15.02-.617 26.9 1.491 35.65 6.326 8.84 4.835 15.17 11.212 18.97 19.133 3.81 7.92 5.71 16.201 5.71 24.842 0 14.709-3.19 27.002-9.56 36.877-6.28 9.875-15.69 17.281-28.24 22.218-12.55 4.938-28.08 7.407-46.6 7.407zm214.54-40.58v-126.37h52.15v166.95h-48.76l-3.39-40.58zm4.94-33.946l13.57-.308c0 11.212-1.33 21.601-4.01 31.168-2.67 9.463-6.63 17.692-11.88 24.687-5.14 6.995-11.52 12.447-19.13 16.356-7.51 3.806-16.2 5.709-26.08 5.709-8.23 0-15.79-1.132-22.68-3.395-6.79-2.366-12.65-6.018-17.59-10.955-4.94-5.04-8.79-11.469-11.57-19.287-2.68-7.921-4.01-17.384-4.01-28.391V559.651h51.99v108.317c0 3.703.47 6.892 1.39 9.566.93 2.675 2.27 4.938 4.01 6.789 1.75 1.749 3.91 3.086 6.49 4.012 2.67.823 5.7 1.234 9.1 1.234 7.82 0 13.94-1.645 18.36-4.937 4.42-3.292 7.51-7.766 9.26-13.424 1.85-5.658 2.78-12.035 2.78-19.133zm135.84-92.424v166.95h-52.15v-166.95h52.15zm-55.24-43.048c0-7.407 2.68-13.476 8.02-18.207 5.35-4.732 12.3-7.098 20.83-7.098 8.54 0 15.49 2.366 20.83 7.098 5.35 4.731 8.03 10.8 8.03 18.207 0 7.406-2.68 13.475-8.03 18.207-5.34 4.731-12.29 7.097-20.83 7.097-8.53 0-15.48-2.366-20.83-7.097-5.34-4.732-8.02-10.801-8.02-18.207zm147.26-27.002v237h-52.15v-237h52.15zm125.05 70.05v36.106h-100.61v-36.106h100.61zm-79.47-41.505h52v153.988c0 4.423.51 7.869 1.54 10.338 1.03 2.366 2.78 4.063 5.25 5.091 2.57.926 5.97 1.389 10.18 1.389 2.99 0 5.46-.051 7.41-.154 1.95-.206 3.81-.463 5.55-.772v37.186c-4.42 1.44-9.05 2.52-13.88 3.24-4.84.823-9.98 1.235-15.43 1.235-11.11 0-20.63-1.749-28.55-5.247-7.81-3.497-13.78-9-17.9-16.509-4.11-7.509-6.17-17.282-6.17-29.317V518.146zm239.6 158.771l30.86-117.266h32.55l-11.57 58.787-30.55 108.163h-26.08l4.79-49.684zm-12.19-117.266l19.13 116.34 2.16 50.61h-31.63l-39.5-166.95h49.84zm103.07 113.871l19.28-113.871h49.84l-39.19 166.95h-31.63l1.7-53.079zm-23.76-113.871l31.16 116.957 4.79 49.993h-26.39l-29.93-107.854-11.11-59.096h31.48zm171.64 0v166.95h-52.16v-166.95h52.16zm-55.24-43.048c0-7.407 2.67-13.476 8.02-18.207 5.35-4.732 12.29-7.098 20.83-7.098s15.48 2.366 20.83 7.098c5.35 4.731 8.02 10.8 8.02 18.207 0 7.406-2.67 13.475-8.02 18.207-5.35 4.731-12.29 7.097-20.83 7.097s-15.48-2.366-20.83-7.097c-5.35-4.732-8.02-10.801-8.02-18.207zm180.28 43.048v36.106h-100.6v-36.106h100.6zm-79.46-41.505h51.99v153.988c0 4.423.52 7.869 1.55 10.338 1.03 2.366 2.77 4.063 5.24 5.091 2.57.926 5.97 1.389 10.19 1.389 2.98 0 5.45-.051 7.4-.154 1.96-.206 3.81-.463 5.56-.772v37.186c-4.43 1.44-9.05 2.52-13.89 3.24-4.83.823-9.98 1.235-15.43 1.235-11.11 0-20.62-1.749-28.54-5.247-7.82-3.497-13.79-9-17.9-16.509-4.12-7.509-6.17-17.282-6.17-29.317V518.146zm156.05-28.545v237h-52v-237h52zm-6.17 147.816l-12.19.309c0-11.727 1.44-22.528 4.32-32.403 2.88-9.875 7-18.464 12.35-25.767 5.34-7.304 11.77-12.961 19.28-16.973 7.51-4.012 15.84-6.018 25-6.018 8.23 0 15.74 1.183 22.53 3.549 6.89 2.366 12.8 6.172 17.74 11.418 5.04 5.246 8.9 12.087 11.57 20.522 2.78 8.435 4.17 18.721 4.17 30.859v103.688h-52.31V622.604c0-6.789-.98-12.035-2.93-15.738-1.85-3.806-4.53-6.429-8.02-7.869-3.5-1.543-7.77-2.314-12.81-2.314-6.07 0-11.01 1.028-14.81 3.086-3.81 2.057-6.74 4.937-8.8 8.64-1.95 3.6-3.29 7.869-4.01 12.807-.72 4.937-1.08 10.338-1.08 16.201z" fill="#999"/></svg>