<svg width="81" height="81" xmlns="http://www.w3.org/2000/svg"><g fill="none" fill-rule="evenodd"><g transform="translate(13)" fill="#CECECE"><circle cx="3.5" cy="3.5" r="3.5"/><circle cx="12.5" cy="8.5" r="3.5"/><circle cx="21.5" cy="13.5" r="3.5"/></g><path fill="#FFF" d="M31.777 17.376l14.97 8.762v17.836l-14.97-8.425zm33.878 0l-14.97 8.985v18.396l14.97-8.806z"/><g fill-rule="nonzero"><path fill="#00FFB0" d="M48.4 25.272l9.626-5.582 9.037-5.24L48.4 3.638l-9.037 5.24-9.626 5.572z"/><path d="M69.59 14.366a1.976 1.976 0 00-.066-.48c-.017-.067-.053-.125-.078-.19-.038-.097-.069-.196-.12-.286-.036-.063-.088-.114-.13-.171-.06-.081-.113-.166-.185-.238-.05-.05-.115-.088-.17-.133-.077-.062-.148-.13-.234-.181l-.013-.005-.01-.007-18.89-10.688a1.988 1.988 0 00-1.958 0l-9.143 5.178h-.003l-9.743 5.509-.01.008c-.004.002-.01.003-.012.005-.085.048-.152.116-.227.176-.058.046-.125.084-.177.137-.073.074-.128.16-.189.244-.04.055-.091.105-.125.165-.057.097-.091.205-.13.31-.021.056-.053.108-.069.166a1.97 1.97 0 00-.061.462c-.002.019-.01.037-.01.057h0v22.37a1.99 1.99 0 001.01 1.73l18.89 10.688c.1.057.21.09.317.128.051.02.1.05.154.063a1.954 1.954 0 001.016.001c.053-.014.101-.044.154-.063.107-.037.216-.071.317-.128l18.89-10.688a1.99 1.99 0 001.009-1.73v-22.37h0c0-.014-.005-.026-.005-.039zm-37.776 3.45l14.913 8.446v17.79l-14.913-8.438V17.816zm33.803 17.798l-14.913 8.438v-17.79l14.913-8.446v17.798z" stroke="#999" fill="#999"/><path fill="#E0E0E0" d="M49.102 21.343L63.407 13.5 49.049 5.422l-14.252 8.16z"/></g><path fill="#FFF" d="M3.94 33.15l14.969 8.763v17.836l-14.97-8.425zm33.877 0l-14.97 8.986V60.53l14.97-8.806z"/><g fill-rule="nonzero"><path fill="#00FFB0" d="M20.562 41.046l9.626-5.582 9.038-5.24-18.664-10.811-9.037 5.24-9.627 5.571z"/><path d="M41.751 30.14a1.976 1.976 0 00-.064-.48c-.018-.066-.054-.125-.079-.188-.037-.098-.068-.197-.12-.288-.036-.062-.088-.113-.13-.17-.06-.081-.113-.167-.184-.238-.05-.051-.116-.088-.171-.134-.077-.061-.147-.13-.234-.18-.004-.003-.009-.004-.013-.006l-.01-.007-18.89-10.687a1.988 1.988 0 00-1.958 0l-9.143 5.178h-.003L1.01 28.449l-.01.008-.012.005c-.084.05-.152.117-.226.176-.06.047-.126.085-.177.138-.074.073-.129.16-.19.243-.04.056-.09.106-.125.165-.056.098-.091.206-.13.311-.02.056-.053.108-.068.165-.041.15-.058.305-.062.463-.002.019-.009.037-.009.056h0v22.37a1.99 1.99 0 001.01 1.731L19.9 64.968c.101.057.21.09.317.128.052.019.1.049.154.063a1.954 1.954 0 001.016 0c.053-.013.102-.043.154-.062.108-.038.216-.071.317-.128l18.89-10.688a1.99 1.99 0 001.01-1.73V30.18h0c0-.014-.006-.026-.006-.04zM3.977 33.59l14.913 8.446v17.79L3.977 51.39v-17.8zm33.803 17.8l-14.913 8.438v-17.79L37.78 33.59v17.798z" stroke="#999" fill="#999"/><path fill="#CECECE" d="M21.264 37.118l14.305-7.843-14.358-8.078L6.96 29.356z"/></g><path fill="#FFF" d="M31.777 48.925l14.97 8.762v17.837l-14.97-8.426zm33.878 0l-14.97 8.985v18.396l14.97-8.806z"/><g fill-rule="nonzero"><path fill="#00FFB0" d="M48.4 56.821l9.626-5.582L67.063 46 48.4 35.187l-9.037 5.24L29.736 46z"/><path d="M69.59 45.915a1.976 1.976 0 00-.066-.48c-.017-.067-.053-.125-.078-.189-.038-.097-.069-.197-.12-.287-.036-.063-.088-.113-.13-.171-.06-.08-.113-.166-.185-.238-.05-.05-.115-.087-.17-.133-.077-.062-.148-.13-.234-.18-.004-.003-.01-.004-.013-.006l-.01-.007-18.89-10.688a1.988 1.988 0 00-1.958 0l-9.143 5.178-.003.001-9.743 5.508-.01.008c-.004.002-.01.003-.012.005-.085.049-.152.116-.227.176-.058.047-.125.085-.177.137-.073.074-.128.16-.189.244-.04.056-.091.105-.125.165-.057.097-.091.206-.13.311-.021.056-.053.107-.069.165-.04.15-.057.304-.061.462-.002.02-.01.037-.01.057h0v22.37a1.99 1.99 0 001.01 1.73l18.89 10.689c.1.056.21.09.317.128.051.019.1.048.154.062a1.954 1.954 0 001.016.001c.053-.014.101-.043.154-.062.107-.038.216-.072.317-.129l18.89-10.687a1.99 1.99 0 001.009-1.731v-22.37h0c0-.014-.005-.026-.005-.039zm-37.776 3.45l14.913 8.446v17.79l-14.913-8.437V49.365zm33.803 17.799L50.704 75.6V57.81l14.913-8.446v17.799z" stroke="#999" fill="#999"/><path fill="#CECECE" d="M49.102 52.893l14.305-7.843-14.358-8.079-14.252 8.16z"/></g><g transform="translate(56 60)" fill="#CECECE"><circle cx="3.5" cy="3.5" r="3.5"/><circle cx="12.5" cy="8.5" r="3.5"/><circle cx="21.5" cy="13.5" r="3.5"/></g></g></svg>