<svg width="103" height="100" xmlns="http://www.w3.org/2000/svg"><defs><filter x="-15.1%" y="-9.7%" width="130.1%" height="123.4%" filterUnits="objectBoundingBox" id="a"><feOffset dy="5" in="SourceAlpha" result="shadowOffsetOuter1"/><feGaussianBlur stdDeviation="9" in="shadowOffsetOuter1" result="shadowBlurOuter1"/><feColorMatrix values="0 0 0 0 0.118312129 0 0 0 0 0.461199204 0 0 0 0 0.461840986 0 0 0 0.136379076 0" in="shadowBlurOuter1" result="shadowMatrixOuter1"/><feMerge><feMergeNode in="shadowMatrixOuter1"/><feMergeNode in="SourceGraphic"/></feMerge></filter></defs><g filter="url(#a)" transform="translate(-46.363 -29)" fill="none" fill-rule="evenodd"><path fill="#FFF" d="M65.6 83.566l21.799-5.42 9.671 10.72 9.748-10.72 20.932 5.42v-5.42l-6.218-17.1-1.3-16.729-3.197 2.245-7.097 6.3-3.12 4.429-5.244 1.247H88.312l-4.572-6.553-6.033-6.31h-2.034l-1.828 5.078-2.351 13.991-2.908 11.025z"/><path d="M71.154 68.536a5.5 5.5 0 01-.352 1.267L65.427 82.85a.5.5 0 00.187.609l31.732 20.865a.5.5 0 00.55 0l31.62-20.874a.5.5 0 00.188-.603l-5.263-13.1a5.5 5.5 0 01-.32-1.133l-4.195-24.828a.5.5 0 00-.861-.255l-11.642 12.646a5.5 5.5 0 01-4.047 1.775H91.811a5.5 5.5 0 01-3.995-1.72L75.784 43.514a.5.5 0 00-.858.268l-3.772 24.754z" stroke="#003945" stroke-width="5"/><path fill="#05C0A5" d="M71.202 84.346l26.47 17.4 25.64-17.035-15.494-6.911-8.559 10.33-10.691-9.63z"/><path d="M65.162 83.228l22.403-5.363a1 1 0 011.001.333l8.538 10.247a1 1 0 001.586-.065l7.093-10.096a1 1 0 011.064-.394l21.107 5.338" stroke="#003945" stroke-width="5"/></g></svg>