<svg version="1.1" id="livetype" xmlns="http://www.w3.org/2000/svg" x="0" y="0" viewBox="0 0 117.9 38.3" xml:space="preserve"><style>.st0{fill:#fff}</style><path d="M111.8 38.4H6.4C3 38.4.2 35.6.2 32.2V6.4C.2 3 3 .2 6.4.2h105.4c3.4 0 6.2 2.8 6.2 6.2v25.8c.1 3.4-2.7 6.2-6.2 6.2z"/><g id="_Group_2"><g id="_Group_3"><path id="_Path_" class="st0" d="M25.9 19.4c0-1.7.9-3.3 2.4-4.2-.9-1.3-2.4-2.1-4-2.2-1.7-.2-3.3 1-4.2 1-.9 0-2.2-1-3.6-1-1.9.1-3.6 1.1-4.5 2.7-1.9 3.3-.5 8.3 1.4 11 .9 1.3 2 2.8 3.4 2.8 1.4-.1 1.9-.9 3.6-.9 1.7 0 2.1.9 3.6.9s2.4-1.3 3.3-2.7c.7-.9 1.2-2 1.5-3.1-1.8-.6-2.9-2.4-2.9-4.3z"/><path id="_Path_2" class="st0" d="M23.2 11.3c.8-1 1.2-2.2 1.1-3.5-1.3.2-2.4.8-3.2 1.7-.8.9-1.2 2.1-1.1 3.4 1.2 0 2.4-.6 3.2-1.6z"/></g></g><path class="st0" d="M43.8 25.2h-4.2l-1 3h-1.8l4-11h1.8l4 11h-1.8l-1-3zM40 23.8h3.3L41.7 19 40 23.8zm15.2.4c0 2.5-1.3 4.1-3.3 4.1-1 .1-2-.5-2.5-1.4v4h-1.6V20.2h1.6v1.3c.5-.9 1.5-1.5 2.6-1.4 1.9 0 3.2 1.6 3.2 4.1zm-1.7 0c0-1.6-.8-2.7-2.1-2.7s-2.1 1.1-2.1 2.7.8 2.7 2.1 2.7 2.1-1.1 2.1-2.7zm10.5 0c0 2.5-1.3 4.1-3.3 4.1-1 .1-2-.5-2.5-1.4v4h-1.6V20.2h1.6v1.3c.5-.9 1.5-1.5 2.6-1.4 1.9 0 3.2 1.6 3.2 4.1zm-1.7 0c0-1.6-.8-2.7-2.1-2.7s-2.1 1.1-2.1 2.7.8 2.7 2.1 2.7 2.1-1.1 2.1-2.7zm7.6.9c.1 1.1 1.2 1.8 2.6 1.8 1.4 0 2.4-.7 2.4-1.7 0-.9-.6-1.4-2-1.7l-1.4-.3c-2-.5-3-1.4-3-3 0-1.9 1.7-3.2 4-3.2s3.9 1.3 4 3.2h-1.7c-.1-1.1-1-1.8-2.3-1.8s-2.2.7-2.2 1.6c0 .8.6 1.2 2 1.6l1.2.3c2.3.5 3.2 1.4 3.2 3.1 0 2.1-1.6 3.3-4.2 3.3-2.4 0-4.1-1.3-4.2-3.3l1.6.1zm10.3-6.8v1.9h1.5v1.3h-1.5v4.4c0 .7.3 1 1 1h.5v1.3c-.3.1-.6.1-.9.1-1.6 0-2.3-.6-2.3-2.2v-4.6h-1.2v-1.3h1.2v-1.9h1.7zm2.4 5.9c0-2.5 1.5-4.1 3.8-4.1s3.8 1.6 3.8 4.1c0 2.5-1.5 4.1-3.8 4.1s-3.8-1.6-3.8-4.1zm5.9 0c0-1.7-.8-2.8-2.1-2.8s-2.1 1-2.1 2.8c0 1.7.8 2.8 2.1 2.8s2.1-1.1 2.1-2.8zm3.1-4h1.6v1.4c.2-.9 1-1.5 1.9-1.4.2 0 .4 0 .6.1v1.5c-.2-.1-.5-.1-.7-.1-.9 0-1.7.7-1.7 1.6v5.1h-1.6l-.1-8.2zm11.7 5.6c-.2 1.5-1.6 2.5-3.5 2.5-2.3 0-3.8-1.6-3.8-4.1 0-2.5 1.5-4.1 3.7-4.1s3.6 1.5 3.6 4v.6h-5.7v.1c-.1 1.1.7 2.2 1.9 2.3h.3c.8.1 1.6-.4 1.9-1.1l1.6-.2zm-5.6-2.4h4c.1-1.1-.8-2-1.8-2h-.1c-1.2 0-2.1.9-2.1 2z"/><path class="st0" d="M39 7.9c1.5-.1 2.7 1 2.8 2.4v.5c0 1.9-1 3-2.8 3h-2.2v-6H39zM37.7 13h1.1c1 .1 1.9-.7 2-1.8v-.4c.1-1-.6-2-1.6-2.1h-1.5V13zm5.1-1.4c-.1-1.2.7-2.2 1.9-2.3 1.2-.1 2.2.7 2.3 1.9v.4c.1 1.2-.7 2.2-1.9 2.3-1.1.1-2.2-.7-2.3-1.9v-.4zm3.3 0c0-1-.4-1.5-1.2-1.5-.8 0-1.2.6-1.2 1.5 0 1 .4 1.6 1.2 1.6.8-.1 1.2-.7 1.2-1.6zm6.6 2.2h-.9l-.9-3.3h-.1l-.9 3.3H49l-1.2-4.5h.9l.8 3.4h.1l.9-3.4h.9l.9 3.4h.1l.6-3.4h.9l-1.2 4.5zM55 9.3h.9v.7h.1c.2-.5.8-.8 1.3-.8.8-.1 1.5.5 1.6 1.4v3.2H58v-2.7c0-.7-.3-1.1-1-1.1-.6 0-1.1.4-1.1 1v2.8H55V9.3zm5.2-1.7h.9v6.3h-.9V7.6zm2.1 4c-.1-1.2.7-2.2 1.9-2.3 1.2-.1 2.2.7 2.3 1.9v.4c.1 1.2-.7 2.2-1.9 2.3-1.2.1-2.2-.7-2.3-1.9v-.4zm3.4 0c0-1-.4-1.5-1.2-1.5-.8 0-1.2.6-1.2 1.5 0 1 .4 1.6 1.2 1.6.7-.1 1.2-.7 1.2-1.6zm1.8.9c0-.8.6-1.3 1.7-1.3l1.2-.1v-.4c0-.5-.3-.7-.9-.7-.5 0-.8.2-.9.5h-.9c.1-.8.8-1.3 1.8-1.3 1.1 0 1.8.6 1.8 1.5v3.1h-.9v-.6h-.1c-.3.5-.8.7-1.4.7-.7.1-1.4-.5-1.5-1.2.1-.1.1-.1.1-.2zm2.9-.3v-.4l-1.1.1c-.6 0-.9.3-.9.6 0 .4.4.6.8.6.6.1 1.2-.3 1.2-.9zm2.1-.6c0-1.4.7-2.3 1.9-2.3.6 0 1.1.3 1.4.8h.1V7.6h.9v6.3h-.9v-.7h-.1c-.3.5-.8.8-1.4.8-1.2-.1-1.9-1-1.9-2.4zm.9 0c0 1 .5 1.5 1.2 1.5s1.2-.6 1.2-1.5-.5-1.5-1.2-1.5c-.8-.1-1.2.5-1.2 1.5zm7 0c-.1-1.2.7-2.2 1.9-2.3s2.2.7 2.3 1.9v.4c.1 1.2-.7 2.2-1.9 2.3-1.2.1-2.2-.7-2.3-1.9-.1-.2-.1-.3 0-.4zm3.3 0c0-1-.4-1.5-1.2-1.5-.8 0-1.2.6-1.2 1.5 0 1 .4 1.6 1.2 1.6.8-.1 1.2-.7 1.2-1.6zm2.1-2.3h.9v.7h.1c.2-.5.8-.8 1.3-.8.8-.1 1.5.5 1.6 1.4v3.2h-.9v-2.7c0-.7-.3-1.1-1-1.1-.6 0-1.1.4-1.1 1v2.8h-.9V9.3zm8.8-1.1v1.1h1v.7h-1v2.3c0 .5.2.7.6.7h.3v.7H95c-1 0-1.4-.3-1.4-1.2V10H93v-.7h.7V8.2h.9zm2.2-.6h.9V10h.1c.2-.5.8-.9 1.4-.8.8 0 1.5.6 1.6 1.4v3.2h-.9v-2.7c0-.7-.3-1.1-1-1.1-.6 0-1.1.4-1.1 1v2.8h-.9l-.1-6.2zm9.1 5c-.2.8-1.1 1.4-2 1.3-1.1 0-2.1-.9-2.1-2v-.3c-.2-1.1.6-2.2 1.8-2.3h.3c1.3 0 2 .9 2 2.3v.3h-3.2c-.1.7.4 1.2 1.1 1.3h.1c.4.1.9-.2 1.1-.5l.9-.1zm-3.1-1.4h2.3c0-.6-.4-1.1-1-1.2h-.1c-.7 0-1.2.5-1.2 1.2 0-.1 0-.1 0 0z" id="_Group_4"/></svg>