<svg xmlns="http://www.w3.org/2000/svg" viewBox="0 0 117.9 38.3"><path d="M111.7 38.3H6.2C2.8 38.3 0 35.5 0 32V6.2C0 2.8 2.8 0 6.2 0h105.4c3.4 0 6.2 2.8 6.2 6.2V32c.1 3.5-2.7 6.3-6.1 6.3z"/><path d="M63.4 13.3c-.7 0-1.4-.3-1.8-.8-.5-.5-.8-1.2-.7-1.9 0-.7.3-1.4.7-1.9.5-.5 1.1-.8 1.8-.8s1.3.3 1.8.8.7 1.1.7 1.9c0 .7-.3 1.4-.7 1.9-.5.5-1.1.8-1.8.8zm-21.9 0c-.7 0-1.3-.3-1.8-.8s-.8-1.1-.8-1.9.3-1.4.8-1.9 1.1-.8 1.8-.8c.4 0 .7.1 1 .2.3.1.6.3.8.6v.1l-.5.5-.1-.1c-.3-.4-.7-.5-1.3-.5-.5 0-.9.2-1.3.5s-.5.8-.5 1.3.2 1 .5 1.3c.4.3.8.5 1.3.5s1-.2 1.3-.5c.2-.2.3-.5.4-.8h-1.8v-.8H44v.5c0 .7-.2 1.3-.6 1.7-.5.7-1.1.9-1.9.9zm29.1-.1h-.8l-2.4-3.8v3.8h-.8v-5h.9l2.2 3.6V8.2h.8l.1 5zm-13.1 0h-.8V8.9h-1.4v-.7h3.5V9h-1.4l.1 4.2zm-2.7 0H54v-5h.8v5zm-4.4 0h-.8V8.9h-1.4v-.7h3.5V9h-1.4v4.2zm-2.7 0h-3v-5h3V9h-2.2v1.4h2v.7h-2v1.4h2.2v.7zM62.1 12c.3.3.8.5 1.3.5s.9-.2 1.3-.5c.3-.3.5-.8.5-1.3s-.2-1-.5-1.3c-.3-.3-.8-.5-1.3-.5s-.9.2-1.3.5c-.3.3-.5.8-.5 1.3s.2 1 .5 1.3z" fill="#fff"/><path d="M60.7 20.2c-1.9 0-3.5 1.4-3.5 3.4s1.6 3.4 3.5 3.4 3.5-1.5 3.5-3.4-1.6-3.4-3.5-3.4zm0 5.5c-1 0-1.9-.9-1.9-2.1 0-1.2.9-2.1 1.9-2.1 1 0 1.9.8 1.9 2.1.1 1.3-.8 2.1-1.9 2.1zm-7.5-5.5c-1.9 0-3.5 1.4-3.5 3.4s1.6 3.4 3.5 3.4 3.5-1.5 3.5-3.4c-.1-1.9-1.6-3.4-3.5-3.4zm0 5.5c-1 0-1.9-.9-1.9-2.1 0-1.2.9-2.1 1.9-2.1 1 0 1.9.8 1.9 2.1s-.9 2.1-1.9 2.1zm-9-4.4v1.5h3.5c-.1.8-.4 1.4-.8 1.8-.5.5-1.3 1.1-2.7 1.1-2.2 0-3.8-1.7-3.8-3.9s1.7-3.9 3.8-3.9c1.2 0 2 .5 2.6 1l1-1c-.9-.8-2-1.5-3.7-1.5-3 0-5.4 2.4-5.4 5.3 0 3 2.5 5.3 5.4 5.3 1.6 0 2.8-.5 3.7-1.5 1-1 1.3-2.3 1.3-3.4 0-.3 0-.6-.1-.9l-4.8.1c0-.1 0 0 0 0zm36.7 1.1c-.3-.8-1.2-2.2-3-2.2s-3.2 1.4-3.2 3.4c0 1.9 1.5 3.4 3.4 3.4 1.6 0 2.5-1 2.9-1.5l-1.2-.8c-.4.6-.9 1-1.7 1-.8 0-1.3-.4-1.7-1l4.6-1.9c.1 0-.1-.4-.1-.4zm-4.7 1.2c0-1.3 1-2 1.8-2 .6 0 1.1.3 1.3.7l-3.1 1.3zm-3.7 3.3H74V16.8h-1.5v10.1zM70 21c-.4-.4-1-.8-1.9-.8-1.7 0-3.3 1.5-3.3 3.5 0 1.9 1.6 3.4 3.3 3.4.8 0 1.5-.4 1.8-.8h.1v.5c0 1.3-.7 2-1.8 2-.9 0-1.5-.7-1.7-1.2l-1.3.5c.4.9 1.4 2 3.1 2 1.8 0 3.3-1 3.3-3.6v-6.2H70v.7zm-1.8 4.7c-1 0-1.9-.9-1.9-2.1 0-1.2.9-2.1 1.9-2.1 1 0 1.8.9 1.8 2.1.1 1.3-.7 2.1-1.8 2.1zM88 16.8h-3.6v10.1h1.5v-3.8H88c1.7 0 3.3-1.2 3.3-3.1s-1.6-3.2-3.3-3.2zm0 4.8h-2.2v-3.5H88c1.1 0 1.8.9 1.8 1.7 0 .9-.6 1.8-1.8 1.8zm9.4-1.4c-1.1 0-2.2.5-2.7 1.5l1.3.6c.3-.6.8-.7 1.4-.7.8 0 1.6.5 1.6 1.3v.1c-.3-.2-.9-.4-1.6-.4-1.4 0-2.9.8-2.9 2.3 0 1.4 1.2 2.2 2.5 2.2 1 0 1.6-.5 1.9-1h.1v.8h1.5V23c0-1.8-1.4-2.8-3.1-2.8zm-.2 5.5c-.5 0-1.2-.2-1.2-.9 0-.8.9-1.1 1.6-1.1.7 0 1 .1 1.4.3-.1 1-.9 1.7-1.8 1.7zm8.6-5.3l-1.7 4.4h-.1l-1.8-4.4h-1.6l2.7 6.1-1.5 3.4h1.6l4.2-9.6h-1.8zm-13.6 6.5h1.5V16.8h-1.5v10.1z" fill-rule="evenodd" clip-rule="evenodd" fill="#fff"/><linearGradient id="a" gradientUnits="userSpaceOnUse" x1="-995.798" y1="736.424" x2="-996.966" y2="737.027" gradientTransform="matrix(11.64 0 0 22.55 11614.242 -16596.725)"><stop offset="0" stop-color="#00a0ff"/><stop offset=".007" stop-color="#00a1ff"/><stop offset=".26" stop-color="#00beff"/><stop offset=".512" stop-color="#00d2ff"/><stop offset=".76" stop-color="#00dfff"/><stop offset="1" stop-color="#00e3ff"/></linearGradient><path d="M13.9 8.7c-.2.3-.4.6-.4 1.1v17.9c0 .5.1.9.4 1.1l.1.1 10-10v-.2l-10.1-10z" fill-rule="evenodd" clip-rule="evenodd" fill="url(#a)"/><linearGradient id="b" gradientUnits="userSpaceOnUse" x1="-970.106" y1="596.009" x2="-972.25" y2="596.009" gradientTransform="matrix(9.145 0 0 7.7 8904.526 -4570.479)"><stop offset="0" stop-color="#ffe000"/><stop offset=".409" stop-color="#ffbd00"/><stop offset=".775" stop-color="orange"/><stop offset="1" stop-color="#ff9c00"/></linearGradient><path d="M27.4 22.3L24 18.9v-.2l3.3-3.3h.1l4 2.3c1.1.6 1.1 1.7 0 2.3l-4 2.3c.1-.1 0 0 0 0z" fill-rule="evenodd" clip-rule="evenodd" fill="url(#b)"/><linearGradient id="c" gradientUnits="userSpaceOnUse" x1="-1017.023" y1="667.282" x2="-1018.25" y2="668.875" gradientTransform="matrix(15.02 0 0 11.5775 15301.287 -7704.811)"><stop offset="0" stop-color="#ff3a44"/><stop offset="1" stop-color="#c31162"/></linearGradient><path d="M27.5 22.2L24 18.8 13.9 28.9c.4.4 1 .4 1.7.1l11.9-6.8" fill-rule="evenodd" clip-rule="evenodd" fill="url(#c)"/><linearGradient id="d" gradientUnits="userSpaceOnUse" x1="-1017.968" y1="666.662" x2="-1017.42" y2="667.374" gradientTransform="matrix(15.02 0 0 11.5715 15301.287 -7711.552)"><stop offset="0" stop-color="#32a071"/><stop offset=".069" stop-color="#2da771"/><stop offset=".476" stop-color="#15cf74"/><stop offset=".801" stop-color="#06e775"/><stop offset="1" stop-color="#00f076"/></linearGradient><path d="M27.5 15.4L15.6 8.6c-.7-.4-1.3-.3-1.7.1L24 18.8l3.5-3.4z" fill-rule="evenodd" clip-rule="evenodd" fill="url(#d)"/><path d="M27.4 22.1l-11.8 6.7c-.7.4-1.2.4-1.6 0v.1l.1.1c.4.3 1 .4 1.6 0l11.7-6.9z" opacity=".2" fill-rule="evenodd" clip-rule="evenodd"/><path d="M31.4 19.8l-4 2.3.1.1 4-2.3c.6-.3.8-.7.8-1.2-.1.5-.4.8-.9 1.1z" opacity=".12" fill-rule="evenodd" clip-rule="evenodd"/><path d="M15.6 8.8l15.8 9c.5.3.8.7.8 1.1 0-.4-.3-.8-.8-1.2l-15.8-9c-1.1-.6-2.1-.1-2.1 1.2v.1c.1-1.4 1-1.9 2.1-1.2z" opacity=".25" fill-rule="evenodd" clip-rule="evenodd" fill="#fff"/></svg>