<svg width="92" height="92" xmlns="http://www.w3.org/2000/svg"><g fill="none" fill-rule="evenodd"><path fill="#FFF" d="M43.68 19.283l28.417 28.395-40.803 41.916-6.449-1.64-18.122-17.66-2.373-9.382 2.373-5.44zm6.053 2.551l20.828 22.23L87.913 24.96 65.573 3.793z"/><path d="M91.194 23.235L68.322.772A2.695 2.695 0 0064.548.77L47.393 17.555l-1.926-1.926a2.695 2.695 0 00-3.822.01L3.95 53.746c-5.257 5.256-5.274 13.77-.014 19.044l14.82 15.234.027.027c5.267 5.266 13.792 5.267 19.06 0l38.119-38.117a2.695 2.695 0 000-3.811l-1.906-1.906L91.21 27.064a2.695 2.695 0 00-.017-3.829zM34.03 84.238a8.082 8.082 0 01-11.424.012L7.79 69.018l-.026-.026a8.08 8.08 0 01.01-11.446l35.799-36.19 26.673 26.672-36.214 36.21zm36.214-43.833l-19.04-19.038L66.43 6.47l19.046 18.705-15.231 15.23z" stroke="#999" fill="#999" fill-rule="nonzero"/><path d="M19.828 58.284l22.521-22.52a1 1 0 011.414 0l12.03 12.029a1 1 0 010 1.414l-22.52 22.52a4 4 0 01-5.658 0l-7.787-7.786a4 4 0 010-5.657z" stroke="#999" stroke-width="3.8" fill="#CECECE"/><path d="M30 61.358l1.364-1.462M37 54.358l5.458-5.849" stroke="#999" stroke-linecap="round" stroke-width="3.8"/><path d="M69.142 15.858a2.929 2.929 0 00-4.142 0L60.858 20A2.928 2.928 0 1065 24.142L69.142 20a2.929 2.929 0 000-4.142zm7 7a2.929 2.929 0 00-4.142 0L67.858 27A2.928 2.928 0 1072 31.142L76.142 27a2.929 2.929 0 000-4.142z" fill="#999" fill-rule="nonzero"/></g></svg>