<svg width="81" height="81" xmlns="http://www.w3.org/2000/svg"><g fill="none" fill-rule="evenodd"><g transform="translate(13)" fill="#05C0A5"><circle cx="3.5" cy="3.5" r="3.5"/><circle cx="12.5" cy="8.5" r="3.5"/><circle cx="21.5" cy="13.5" r="3.5"/></g><path fill="#FFF" d="M31.8 17.467l15.056 8.814v17.94L31.8 35.746zm34.075 0L50.82 26.505v18.503l15.056-8.858z"/><g fill-rule="nonzero"><path fill="#00FFB0" d="M48.52 25.41l9.682-5.615 9.09-5.271L48.52 3.649l-9.09 5.27-9.682 5.605z"/><path d="M69.833 14.44a1.987 1.987 0 00-.065-.483c-.018-.067-.054-.126-.08-.19-.037-.098-.068-.198-.12-.29-.036-.062-.088-.113-.131-.171-.06-.081-.113-.167-.185-.24-.051-.05-.116-.087-.172-.133-.077-.062-.148-.131-.235-.182l-.013-.005-.01-.007-19-10.75a2 2 0 00-1.97 0l-9.196 5.208h-.003l-9.8 5.54-.01.009c-.004.002-.01.003-.012.005-.085.049-.153.117-.228.177-.06.047-.126.085-.178.138-.074.074-.13.16-.19.245-.041.056-.092.106-.126.166-.057.098-.092.207-.131.313-.021.056-.053.108-.07.166-.04.15-.057.306-.061.465-.002.019-.01.037-.01.057v22.5a2 2 0 001.016 1.741l19 10.75c.102.057.21.091.319.13.052.018.1.048.155.062a1.965 1.965 0 001.022.001c.053-.014.102-.044.155-.063.108-.038.217-.072.319-.129l19-10.75a2 2 0 001.015-1.741v-22.5c0-.014-.005-.026-.005-.04zm-37.995 3.47l15 8.495v17.894l-15-8.487V17.91zm34 17.902l-15 8.487V26.405l15-8.495v17.902z" stroke="#003945" fill="#003945"/><path fill="#05C0A5" d="M49.226 21.458l14.388-7.889-14.441-8.125-14.335 8.206z"/></g><path fill="#FFF" d="M3.962 33.241l15.057 8.814v17.94L3.962 51.522zm34.076 0L22.98 42.28v18.503l15.057-8.857z"/><g fill-rule="nonzero"><path fill="#00FFB0" d="M20.682 41.184l9.683-5.615 9.09-5.27-18.773-10.875-9.09 5.27L1.909 30.3z"/><path d="M41.995 30.214a1.987 1.987 0 00-.065-.483c-.018-.067-.054-.126-.079-.19-.038-.098-.069-.198-.121-.289-.036-.063-.088-.114-.131-.172-.06-.08-.113-.167-.185-.239-.051-.05-.116-.088-.172-.134-.077-.062-.148-.13-.235-.182l-.013-.005-.01-.007-19-10.75a2 2 0 00-1.97 0l-9.196 5.208-.003.001-9.8 5.54-.01.008-.012.005c-.085.05-.153.117-.228.177-.059.047-.126.085-.178.138-.074.074-.129.161-.19.245-.041.056-.092.106-.126.166-.057.098-.092.207-.131.313-.021.056-.053.108-.069.166-.041.15-.058.306-.062.465-.002.02-.009.037-.009.057v22.5a2 2 0 001.015 1.742l19 10.75c.102.057.211.09.319.129.052.019.101.049.155.063a1.965 1.965 0 001.022 0c.053-.013.102-.043.155-.062.108-.038.217-.072.319-.13l19-10.75A2 2 0 0042 52.755v-22.5c0-.015-.005-.027-.005-.04zM4 33.684l15 8.495v17.895L4 51.587V33.684zm34 17.903l-15 8.487V42.179l15-8.495v17.903z" stroke="#003945" fill="#003945"/><path fill="#05C0A5" d="M21.388 37.232l14.388-7.888-14.441-8.126L7 29.425z"/></g><path fill="#FFF" d="M31.8 49.016l15.056 8.814v17.94L31.8 67.296zm34.075 0L50.82 58.054v18.503L65.875 67.7z"/><g fill-rule="nonzero"><path fill="#00FFB0" d="M48.52 56.958l9.682-5.614 9.09-5.27L48.52 35.197l-9.09 5.27-9.682 5.605z"/><path d="M69.833 45.989a1.987 1.987 0 00-.065-.483c-.018-.067-.054-.126-.08-.19-.037-.098-.068-.198-.12-.289-.036-.063-.088-.114-.131-.172-.06-.081-.113-.167-.185-.239-.051-.051-.116-.088-.172-.134-.077-.062-.148-.131-.235-.182l-.013-.005-.01-.007-19-10.75a2 2 0 00-1.97 0l-9.196 5.208h-.003l-9.8 5.541-.01.008c-.004.002-.01.003-.012.005-.085.049-.153.117-.228.177-.06.047-.126.085-.178.138-.074.074-.13.161-.19.245-.041.056-.092.106-.126.166-.057.098-.092.207-.131.313-.021.056-.053.108-.07.166-.04.15-.057.306-.061.465-.002.019-.01.037-.01.057v22.5a2 2 0 001.016 1.741l19 10.75c.102.057.21.091.319.13.052.018.1.048.155.062a1.965 1.965 0 001.022.001c.053-.014.102-.044.155-.063.108-.038.217-.072.319-.129l19-10.75a2 2 0 001.015-1.74V46.027c0-.014-.005-.026-.005-.039zm-37.995 3.47l15 8.495v17.894l-15-8.487V49.46zm34 17.902l-15 8.487V57.954l15-8.495v17.902z" stroke="#003945" fill="#003945"/><path fill="#05C0A5" d="M49.226 53.007l14.388-7.889-14.441-8.125L34.838 45.2z"/></g><g transform="translate(56 60)" fill="#05C0A5"><circle cx="3.5" cy="3.5" r="3.5"/><circle cx="12.5" cy="8.5" r="3.5"/><circle cx="21.5" cy="13.5" r="3.5"/></g></g></svg>