<svg width="73" height="69" xmlns="http://www.w3.org/2000/svg"><g fill="none" fill-rule="evenodd"><path d="M62.644 14.55c.69.7 1.282 1.65 1.774 2.85.493 1.2.74 2.3.74 3.3v43.2c0 1-.345 1.85-1.035 2.55-.69.7-1.528 1.05-2.513 1.05H11.935c-.986 0-1.823-.35-2.513-1.05-.69-.7-1.035-1.55-1.035-2.55v-60c0-1 .345-1.85 1.035-2.55.69-.7 1.527-1.05 2.513-1.05H45.05c.986 0 2.07.25 3.253.75 1.183.5 2.119 1.1 2.809 1.8l11.531 11.7zM46.234 5.4v14.1h13.897c-.246-.725-.517-1.238-.813-1.537L47.749 6.225c-.295-.3-.8-.575-1.515-.825zm14.193 57.3V24.3H45.05c-.985 0-1.823-.35-2.513-1.05-.69-.7-1.035-1.55-1.035-2.55V5.1H13.118v57.6h47.309zm-34.3-33.6c.198-.275.457-.431.777-.469.32-.037.616.044.887.244l1.885 1.425c.27.2.425.462.462.787.037.325-.043.625-.24.9L23.17 41.1l6.727 9.112c.197.275.277.575.24.9a1.098 1.098 0 01-.462.788l-1.885 1.425a1.21 1.21 0 01-.887.244 1.076 1.076 0 01-.776-.469l-8.353-11.288c-.345-.474-.345-.95 0-1.425L26.128 29.1zM55.77 40.387c.345.475.345.95 0 1.425L47.417 53.1a1.076 1.076 0 01-.776.469 1.21 1.21 0 01-.887-.244L43.869 51.9a1.098 1.098 0 01-.462-.788 1.255 1.255 0 01.24-.9l6.727-9.112-6.727-9.113a1.255 1.255 0 01-.24-.9c.037-.325.19-.587.462-.787l1.885-1.425c.27-.2.566-.281.887-.244.32.038.579.194.776.469l8.353 11.287zM32.854 57.675a1.08 1.08 0 01-.757-.487 1.23 1.23 0 01-.204-.9l5.101-31.163c.05-.325.21-.581.48-.769a1.19 1.19 0 01.888-.206l2.328.375c.32.05.573.212.758.487.184.275.252.575.203.9l-5.1 31.163c-.05.325-.21.581-.481.769a1.186 1.186 0 01-.887.206l-2.329-.375z" fill="#999" fill-rule="nonzero"/><path d="M46.184 5.374v14.135h13.948c0-.436-.19-.932-.57-1.49-5.704-6.164-11.391-11.509-11.91-11.997-.346-.325-.835-.541-1.468-.648z" fill="#CECECE"/></g></svg>