<svg width="100" height="100" xmlns="http://www.w3.org/2000/svg"><g fill="none" fill-rule="evenodd"><path d="M75.852 30.34c.68.689 1.263 1.625 1.749 2.808.485 1.182.728 2.266.728 3.252v42.574c0 .985-.34 1.823-1.02 2.513a3.348 3.348 0 01-2.476 1.035H25.878a3.348 3.348 0 01-2.477-1.035c-.68-.69-1.02-1.528-1.02-2.513v-59.13c0-.986.34-1.824 1.02-2.514a3.348 3.348 0 012.477-1.034h32.636c.972 0 2.04.246 3.206.739 1.165.493 2.088 1.084 2.768 1.774l11.364 11.53zM59.68 21.321v13.895h13.696c-.243-.714-.51-1.22-.802-1.515l-11.4-11.567c-.292-.296-.79-.567-1.494-.813zm13.987 56.47V39.947H58.514a3.348 3.348 0 01-2.477-1.035c-.68-.69-1.02-1.527-1.02-2.513V21.026H27.044v56.765h46.624zM39.865 44.677a1.06 1.06 0 01.765-.462c.316-.037.607.043.874.24l1.858 1.405c.267.197.419.456.455.776.036.32-.042.616-.237.887l-6.629 8.98 6.63 8.98c.194.272.272.567.236.888a1.08 1.08 0 01-.455.776l-1.858 1.404a1.193 1.193 0 01-.874.24 1.06 1.06 0 01-.765-.462l-8.232-11.123c-.34-.469-.34-.937 0-1.405l8.232-11.124zm29.212 11.124c.34.468.34.936 0 1.405L60.846 68.33a1.06 1.06 0 01-.765.462 1.193 1.193 0 01-.875-.24l-1.857-1.404a1.082 1.082 0 01-.456-.776 1.24 1.24 0 01.237-.887l6.63-8.98-6.63-8.981a1.236 1.236 0 01-.237-.887c.037-.32.189-.579.456-.776l1.857-1.404c.268-.198.559-.278.875-.24.315.036.57.19.765.461l8.231 11.124zM46.494 72.84a1.064 1.064 0 01-.746-.48 1.213 1.213 0 01-.2-.887l5.026-30.711c.048-.32.206-.573.473-.758.267-.185.559-.252.874-.203l2.295.37c.316.049.565.209.747.48.182.271.249.567.2.887l-5.026 30.71a1.083 1.083 0 01-.474.758 1.168 1.168 0 01-.874.204l-2.295-.37z" fill="#003945" fill-rule="nonzero"/><path d="M59.63 21.296v13.93h13.747c0-.43-.187-.919-.562-1.468-5.621-6.074-11.226-11.342-11.738-11.823-.34-.32-.823-.534-1.447-.64z" fill="#05C0A5"/></g></svg>