<svg width="64" height="64" xmlns="http://www.w3.org/2000/svg"><g fill="none" fill-rule="evenodd"><path fill="#FFF" d="M4.073 43H50v7H4.073z"/><g fill-rule="nonzero"><path d="M4.311 49.22a1.286 1.286 0 00-.163 1.18 5.229 5.229 0 004.912 3.447h36.595a5.229 5.229 0 004.913-3.448c.142-.396.08-.836-.163-1.178a1.312 1.312 0 00-1.069-.549H5.38c-.424 0-.823.205-1.068.549zm46.332-7.016c0 .715-.578 1.294-1.294 1.294H5.366a1.293 1.293 0 01-1.293-1.294v-14.23A5.18 5.18 0 019.247 22.8h37.041a4.355 4.355 0 014.355 4.355v15.049z" fill="#05C0A5"/><path d="M50.648 5.397c-.037.03-3.705 2.84-6.637 3.755-.698.217-1.68.487-2.808.798-5.39 1.486-9.975 2.838-11.495 4.338-1.153 1.137-2.027 4.487-2.592 7.353-.118.6.356 1.156.977 1.156h7.188a2.04 2.04 0 001.013-.268c1.345-.784 2.137-1.48 2.288-1.838a.998.998 0 011.298-.527.973.973 0 01.534 1.28c-.678 1.606-3.753 3.305-6.405 4.362-.43.17-1.195.636-1.791 1.033-1.78 1.234-4.158 3.233-3.257 4.9.747 1.381.747 3.093 5.986 1.381 2.623-.856 7.784-2.324 9.457-2.482.278-.025.542-.037.802-.05 1.434-.065 2.916-.133 5.645-2.09 1.465-1.052 2.308-2.423 3.2-3.874 1.226-1.99 2.492-4.05 5.628-5.848.303-.174.516-.5.516-.845.01-9.327-8.494-12.644-8.58-12.676a1 1 0 00-.967.142z" fill="#CDF4EE"/><path d="M58.871 48.548c0 5.773-4.68 10.452-10.452 10.452s-10.451-4.68-10.451-10.452 4.68-10.451 10.451-10.451c5.773 0 10.452 4.68 10.452 10.451" fill="#57F"/><path d="M52.861 49.933l-4.024 5.099-4.15-5.099 4.15 2.064 4.024-2.064zm-4.02-8.34l4.02 7.602-4.02 2.052-4.154-2.052 4.154-7.601z" fill="#FFF"/></g></g></svg>