<svg xmlns="http://www.w3.org/2000/svg" fill="none" aria-hidden="true" viewBox="0 0 28 20"><path fill="#fff" d="M0 0h28v20H0V0z"/><path fill="#FF3131" d="M20 0h8v20h-8V0z"/><path fill="#FF3131" fill-rule="evenodd" d="M0 20h8V0H0v20zM16.112 9.222a.333.333 0 01-.563-.302L16 6.667l-1.333.666-.667-2-.667 2L12 6.667l.45 2.253a.333.333 0 01-.562.302l-.319-.32a.333.333 0 00-.471 0l-.431.431-1.334-.666L10 10l-.43.431a.333.333 0 000 .471l1.763 1.765h2l.334 2h.666l.334-2h2l1.764-1.765a.332.332 0 000-.471L18 10l.667-1.333-1.334.666-.43-.43a.333.333 0 00-.472 0l-.32.319h.001z" clip-rule="evenodd"/></svg>