<svg width="64" height="64" xmlns="http://www.w3.org/2000/svg"><g fill="none"><path d="M18.044 32.9A13.029 13.029 0 006.09 40.717a13.044 13.044 0 002.387 14.088c.222.248.458.484.705.707a13.035 13.035 0 0015.675 1.573A13.053 13.053 0 0018.044 32.9zm.93 13.05a.932.932 0 01-.93.932h-5.59a.932.932 0 010-1.864h4.658v-8.39a.932.932 0 111.863 0v9.322z" fill="#5A78F0"/><path d="M57.2 19.4H8.6v15.235c.138-.108.28-.205.424-.309.144-.105.28-.208.42-.306.29-.197.588-.381.89-.554.102-.06.2-.126.304-.184.407-.227.825-.432 1.25-.62.117-.05.236-.092.353-.139.32-.13.642-.254.97-.363.16-.052.32-.098.48-.145a14.672 14.672 0 012.375-.496c.151-.019.3-.042.45-.057.474-.045.95-.074 1.43-.074 8.254.01 14.942 6.619 14.954 14.775 0 .474-.03.945-.075 1.413-.015.15-.039.296-.058.443-.041.322-.093.642-.152.958a16.19 16.19 0 01-.35 1.395c-.047.157-.094.314-.146.469-.112.33-.239.655-.374.976-.046.109-.085.22-.134.329-.19.425-.4.84-.63 1.246-.053.092-.113.177-.167.268-.187.311-.38.617-.588.913-.093.135-.195.265-.295.396-.099.13-.207.292-.32.431h24.785c1.549 0 2.804-1.24 2.804-2.77V19.4z" fill="#CDF4EE"/><path d="M57.2 13.1c0-1.491-1.255-2.7-2.804-2.7h-1.869v2.7c0 .497-.418.9-.935.9-.516 0-.934-.403-.934-.9v-2.7H43.18v2.7c0 .497-.419.9-.935.9s-.934-.403-.934-.9v-2.7h-7.477v2.7c0 .497-.419.9-.935.9s-.935-.403-.935-.9v-2.7h-7.477v2.7c0 .497-.418.9-.934.9s-.935-.403-.935-.9v-2.7h-7.476v2.7c0 .497-.419.9-.935.9-.517 0-.935-.403-.935-.9v-2.7h-1.869c-1.55 0-2.804 1.209-2.804 2.7v6.3h48.6v-6.3z" fill="#05C0A5"/><path d="M32.9 5a.9.9 0 00-.9.9v4.5h1.8V5.9a.9.9 0 00-.9-.9zm9.343.03a.9.9 0 00-.9.899v4.5h1.8v-4.5a.9.9 0 00-.9-.9zm10.215.87a.9.9 0 00-1.8 0v4.5h1.8V5.9zM23.52 5a.9.9 0 00-.9.9v4.5h1.8V5.9a.9.9 0 00-.9-.9zm-9.347 0a.9.9 0 00-.9.9v4.5h1.8V5.9a.9.9 0 00-.9-.9z" fill="#05C0A5"/><g fill="#05C0A5"><path d="M42.972 26.24l-4.977 8.403a1.014 1.014 0 00.494 1.458l4.977 2.068c.258.107.549.107.807 0L49.25 36.1a1.017 1.017 0 00.493-1.458l-4.977-8.402a1.047 1.047 0 00-1.794 0z"/><path d="M38.547 38.144l4.909 2.095c.264.113.563.113.827 0l4.96-2.124a.418.418 0 01.547.212.404.404 0 01-.03.382l-4.825 7.503a1.048 1.048 0 01-1.737.026l-5.16-7.49a.405.405 0 01.11-.567.42.42 0 01.4-.037z"/></g></g></svg>