<svg width="64" height="64" xmlns="http://www.w3.org/2000/svg"><g fill="none" fill-rule="evenodd"><g fill-rule="nonzero"><path d="M60.401 32.21l-1.206-.822-.916-2.57a1.183 1.183 0 00-1.032-.79l-12.714-.846-3.761-2.683a8.034 8.034 0 00-6.55-1.276l-2.776.67a31.624 31.624 0 00-8.48 3.41 1.154 1.154 0 00-.111-.006h-3.17l-1.07-1.089a1.167 1.167 0 00-1.67 0 1.213 1.213 0 000 1.696l1.417 1.44c.22.225.521.351.834.351h.226a31.79 31.79 0 00-2.002 1.694c-.248.227-.389.55-.389.889v.99l-.762 1.564a1.22 1.22 0 00-.123.532c0 1.488 1.191 2.698 2.656 2.698h4.279c.52 1.953 2.279 3.394 4.363 3.394 2.084 0 3.843-1.441 4.363-3.394h14.58c.52 1.953 2.278 3.394 4.363 3.394 2.084 0 3.843-1.441 4.363-3.394h2.93c1.185 0 2.236-.809 2.557-1.967l.523-1.891a1.82 1.82 0 00-.722-1.994z" fill="#B4ECE4"/><path d="M58.359 35.41a.297.297 0 01-.284.218h-2.933c-.52-1.94-2.28-3.372-4.366-3.372-2.085 0-3.845 1.432-4.365 3.372H31.823c-.521-1.94-2.28-3.372-4.366-3.372-2.085 0-3.845 1.432-4.366 3.372H18.81c-.1 0-.189-.05-.242-.127l.71-1.445a1.2 1.2 0 00.122-.53V32.8a29.519 29.519 0 0112.606-6.548l2.779-.665a5.738 5.738 0 014.651.9l4.035 2.857c.177.125.385.2.6.213l12.281.813.786 2.189c.085.238.244.443.452.584l1.179.798-.41 1.47z" fill="#B4ECE4"/><path d="M32.115 36.875a4.619 4.619 0 01-4.613 4.614 4.619 4.619 0 01-4.613-4.614 4.619 4.619 0 014.613-4.615 4.619 4.619 0 014.613 4.615z" fill="#05C0A5"/><path d="M32.115 36.875a4.619 4.619 0 01-4.613 4.614 4.619 4.619 0 01-4.613-4.614 4.619 4.619 0 014.613-4.615 4.619 4.619 0 014.613 4.615zm23.372 0a4.619 4.619 0 01-4.613 4.614 4.619 4.619 0 01-4.613-4.614 4.619 4.619 0 014.613-4.615 4.619 4.619 0 014.613 4.615z" fill="#05C0A5"/></g><path d="M2.923 36.658a.923.923 0 010-1.846h7.995a.923.923 0 010 1.846H2.923zm2.46-3.753a.923.923 0 010-1.846h5.535a.923.923 0 010 1.846H5.383zm3.69-3.753a.923.923 0 110-1.846h1.845a.923.923 0 010 1.846H9.073z" fill="#5A78F0"/></g></svg>