<svg width="64" height="64" xmlns="http://www.w3.org/2000/svg"><g fill="none"><path d="M21.536 32.002c0 5.77 4.694 10.464 10.464 10.464 5.77 0 10.464-4.694 10.464-10.464 0-5.77-4.694-10.464-10.464-10.464-5.77 0-10.464 4.694-10.464 10.464z" fill="#05C0A5"/><path d="M56.095 18.19a.46.46 0 00-.004-.462A28.173 28.173 0 0046.06 7.784 27.98 27.98 0 0032 4.002c-8.56 0-16.539 3.842-21.889 10.54a.458.458 0 00-.039.516l7.883 13.653a.459.459 0 00.842-.115A13.634 13.634 0 0133.224 18.42h22.472a.459.459 0 00.4-.232z" fill="#CDF4EE"/><path d="M36.138 45.3a.458.458 0 00-.486-.161 13.62 13.62 0 01-3.652.497c-5.259 0-10.105-3.084-12.348-7.857a.514.514 0 00-.018-.035L8.39 18.27a.458.458 0 00-.397-.23H7.99a.459.459 0 00-.397.234 28.014 28.014 0 003.262 32.083 27.995 27.995 0 0016.968 9.335.46.46 0 00.465-.225l7.884-13.656a.46.46 0 00-.034-.511z" fill="#CDF4EE"/><path d="M57.645 21.484H41.86a.459.459 0 00-.321.787 13.529 13.529 0 014.095 9.731 13.537 13.537 0 01-2.455 7.799L31.915 59.309a.46.46 0 00.397.689h.006c7.412-.083 14.367-3.032 19.585-8.303C57.124 46.419 60 39.425 60 32.002a27.84 27.84 0 00-1.928-10.226.459.459 0 00-.427-.292z" fill="#CDF4EE"/></g></svg>