<svg width="64" height="64" xmlns="http://www.w3.org/2000/svg"><g transform="translate(9 4)" fill="none" fill-rule="evenodd"><circle fill="#F2FAFA" cx="23.183" cy="32.817" r="19.57"/><path d="M27.646 9.368V7.273l5.147.002v-.441A6.828 6.828 0 0025.968 0h-4.967c-3.768 0-6.826 3.06-6.826 6.834v.438l5.262.002V9.35C8.4 11.274 0 20.886 0 32.487 0 45.476 10.514 56 23.484 56c12.97 0 23.484-10.524 23.484-23.513 0-11.56-8.34-21.15-19.322-23.119zm-4.162 41.25c-9.986 0-18.11-8.133-18.11-18.131 0-9.996 8.124-18.127 18.11-18.127 9.984 0 18.11 8.13 18.11 18.127 0 9.998-8.125 18.131-18.11 18.131z" fill="#05C0A5" fill-rule="nonzero"/><path d="M23.414 18.065c-7.95.036-14.382 6.492-14.382 14.448 0-.016 4.794-.016 14.382.001v-14.45z" fill="#5A78F0" fill-rule="nonzero"/></g></svg>