<svg xmlns="http://www.w3.org/2000/svg" viewBox="0 0 1953.69 494.71"><defs><style>.cls-1,.cls-2{fill:#c69c6d}.cls-1{fill-rule:evenodd}</style></defs><g id="Layer_2" data-name="Layer 2"><g id="t"><path class="cls-1" d="M628.62 295.79a77.6 77.6 0 0010.68-24.08h-24.25q-4.41 14.85-14.35 23c-7.73 6.37-17.72 9.54-29.89 9.53a41.84 41.84 0 01-22.37-6c-6.43-3.93-11.73-9.77-16-17.45a74.35 74.35 0 01-7.44-19.51 103.31 103.31 0 01-2.41-22.94 99.4 99.4 0 013.18-26 65.24 65.24 0 019.82-21.16 44.4 44.4 0 0116.2-14.33 46 46 0 0121.29-4.85 42.42 42.42 0 0114.11 2.35 45.68 45.68 0 0112.81 6.87 41.59 41.59 0 0110.26 11.27 48.66 48.66 0 014.74 10.17h25a57.34 57.34 0 00-9.13-22.51c-5.59-8-13.51-14.62-23.73-19.6-10-5-21.56-7.56-34.47-7.57a87.88 87.88 0 00-15.91 1.4 76.08 76.08 0 00-14.6 4.16 62.24 62.24 0 00-22.72 15.77 76.49 76.49 0 00-15 25.78 100.58 100.58 0 00-4.74 18.74 136.76 136.76 0 00-1.7 21.44 126.66 126.66 0 002.49 26 79.32 79.32 0 007.3 20.86 69.11 69.11 0 0011.39 16.13A59.66 59.66 0 00534 314.57a72.72 72.72 0 0017.84 6.88 86 86 0 0020.16 2.31 80.24 80.24 0 0018.26-2 66.75 66.75 0 0015.83-5.93 61.63 61.63 0 0022.52-20zm255.87 23.33l21.95.01.1-161.35-21.94-.01-.11 161.35z"/><path class="cls-1" d="M708.87 189.77a61.49 61.49 0 0145.48 20l-1.25 1.66-.09-.11v.22a62 62 0 00-10.13 22.37 38.36 38.36 0 104.29 19.33v-1.61a61.83 61.83 0 0111.7-36.18v-.22.07a61.89 61.89 0 114.36 78 61.22 61.22 0 0011.34-24.63 38.39 38.39 0 10-3.9-19.15h-.06v2.07a61.86 61.86 0 11-61.81-61.89z"/><path class="cls-2" d="M1238.75 300.92v15.95a23.11 23.11 0 01-9.62 1.63c-12.67 0-21.35-5.4-21.34-18.31v-5.63c-2.59 5.4-14.33 24.86-43 24.84-23.22 0-41.75-11.52-41.73-35.92 0-24.16 19-34 42.48-37 14.78-1.87 31.91-3.27 40.12-7.95v-2.11c0-19.71-10.31-23.94-26.49-23.95-15.48 0-24.4 4.45-26.29 15h-22.51c2.35-22 19.95-33.53 48.81-33.51 34.72 0 50.19 13.17 50.17 48.12v49.26c.01 6.76 2.59 9.81 9.4 9.58zm-33-46c-7.51 3.74-19.71 5.15-38.71 8-14.31 2.1-20 8.43-20 19.22 0 11 7.26 19 21.34 19a41.55 41.55 0 0037.31-22zm76.14-100l-.11 164.2h-23.69l.1-164.21zm49.73.08l-.1 164.2h-23.7l.1-164.21zm132.12 109.7l-89.14-.06c2.56 24.64 17.57 35.44 35.87 35.45 11.49 0 21.11-3.28 27.45-12.42h22.75c-9.86 22.75-26.76 31.89-52.09 31.88-27.21 0-57.7-18.34-57.67-62.67 0-44.11 29.83-62.85 57.51-62.83 29.32 0 55.35 19.26 55.32 64.77zm-89.13-16.48h65.92c-2.1-23.69-14.53-34.73-32.12-34.74-16.89.03-31.21 11.28-33.8 34.74zM1038 194l-40.89 125.28h-22.82L927.82 157.7h25.59L987 282.82l27.53-88.73m24.06 0l27.41 88.78 33.73-125.06h25.59l-46.67 161.5h-22.82L1015.11 194m468.62-12.06h13.09l4.49 19.19h30.39v18.42h-25.4v66.54c0 11.06 4.79 13.56 14.33 13.57h11.06v19.95h-18.17q-29.82 0-29.78-31.94z"/><path class="cls-2" d="M1496.82 181.95l9.53.01-.01 19.18h-5.03l-4.49-19.19zm108.92-29.38h70.39q18.18 0 29.68 5.28t17.71 13.18a44.92 44.92 0 018.49 17.25 73.43 73.43 0 012.26 17.23 72.1 72.1 0 01-2.29 17.12 44.82 44.82 0 01-8.51 17.11q-6.23 7.91-17.72 13t-29.69 5.26h-48v65.59h-22.38zm22.34 83.43h51.35a38.89 38.89 0 0010.29-1.43 29.5 29.5 0 009.7-4.66 24 24 0 007.19-8.61c1.83-3.59 3.29-13 3.29-18.44 0-5.58-1.32-12.84-2.91-16.52a22.3 22.3 0 00-6.46-8.74 23.11 23.11 0 00-9.33-4.43A51.25 51.25 0 001680 172h-51.83zm126.3-24.26h23.15v21.64h.43a24.86 24.86 0 014.23-8.87 41.09 41.09 0 017.57-7.89 38.2 38.2 0 019.85-5.73 29.3 29.3 0 0111-2.15 52.07 52.07 0 016 .22l3.35.43v23.8c-1.73-.29-3.49-.54-5.3-.76a43.71 43.71 0 00-5.3-.33 28.49 28.49 0 00-11.79 2.48 27.12 27.12 0 00-9.63 7.35 36.14 36.14 0 00-6.5 12 51.91 51.91 0 00-2.39 16.45v53.22h-24.67zm137.76-6.21a61.59 61.59 0 1061.55 61.63 61.59 61.59 0 00-61.55-61.63zm-.06 100.55a39 39 0 1139-38.94 39 39 0 01-39 38.94zM.07 60.39v219.66a132.17 132.17 0 009.63 54.49c30.63 76.6 127.56 130.77 203.22 160.17v-38.49C118 419.06 72 370.64 53.38 335.77c-16.52-30.86-14.55-54.44-14.55-54.44V82.47l174.11-50.28V0L15.53 56.28zM218.6 445q18.17-8.91 33.82-18l1.16-102.72v-264l-35-10.64zm67.32-44.84c13.47-6.79 35-27.13 35-27.13V75.1l-35-10.63zm66.84-313.04l1 154v98.47l1-1.1q3.3-4.32 6.16-8.45c24.67-35.59 25.88-60.72 25.88-60.72V243l1-145.19z"/></g></g></svg>