<svg width="52" height="52" xmlns="http://www.w3.org/2000/svg"><g fill="none" fill-rule="evenodd"><path d="M26 20v7-7z" fill="#000"/><path d="M8.108 8.589v20.385a13.205 13.205 0 00.846 5.049c2.691 7.101 11.227 12.123 17.892 14.85v-3.564C18.49 41.853 14.44 37.371 12.8 34.131c-1.461-2.862-1.282-5.049-1.282-5.049V10.641L26.872 5.97V3L9.492 8.211l-1.384.378zm19.277 35.694a41.953 41.953 0 003.132-1.674l.108-9.531V8.589l-3.24-.999v36.693zm6.237-4.158c1.242-.621 3.24-2.511 3.24-2.511V9.966l-3.24-.999v31.158zm6.21-29.052l.081 14.283v9.126l.081-.108c.216-.27.405-.54.567-.783 2.295-3.294 2.403-5.643 2.403-5.643v-2.457l.081-13.473-3.213-.945z" fill="#002747" fill-rule="nonzero"/></g></svg>