<svg width="180" height="51" fill="none" xmlns="http://www.w3.org/2000/svg"><path d="M.006 6.21v22.649c-.06 1.98.3 3.87.99 5.61 3.15 7.89 13.14 13.47 20.94 16.5v-3.96c-9.78-3.84-14.52-8.82-16.44-12.42-1.71-3.18-1.5-5.61-1.5-5.61V8.489l17.97-5.19V0L1.626 5.79l-1.62.42zm22.53 39.658c1.26-.6 2.4-1.23 3.48-1.86l.12-10.59V6.21l-3.6-1.11v40.768zm6.929-4.619c1.38-.69 3.6-2.79 3.6-2.79V7.739l-3.6-1.11v34.62zm6.9-32.279l.09 15.87v10.14l.09-.12c.24-.3.45-.6.63-.87 2.55-3.66 2.67-6.27 2.67-6.27v-2.73l.09-14.97-3.57-1.05zM180 28.229c0 3.18-2.34 4.92-6.27 4.92-4.08 0-6.299-1.98-6.629-5.25h2.459c.3 1.74 1.5 2.97 4.17 2.97 2.7 0 3.9-.96 3.9-2.55 0-1.77-1.14-2.49-2.97-2.88l-2.4-.51c-2.85-.63-4.769-1.89-4.769-4.71 0-2.73 2.219-4.56 6.089-4.56 3.66 0 5.88 1.65 6.21 4.62h-2.46c-.24-1.53-1.5-2.31-3.75-2.31-2.46 0-3.72 1.11-3.72 2.37 0 1.17 1.02 2.04 2.85 2.43l2.4.54c3.12.66 4.89 1.98 4.89 4.92z" fill="#FFBE00"/><path fill-rule="evenodd" clip-rule="evenodd" d="M65.164 30.629c.51-.72.87-1.59 1.14-2.58h-2.58c-.3 1.05-.81 1.86-1.53 2.46-.81.69-1.89 1.02-3.18 1.02-.9 0-1.68-.21-2.4-.63-.69-.42-1.26-1.05-1.71-1.86a7.83 7.83 0 01-.81-2.07c-.18-.75-.27-1.56-.27-2.46 0-1.02.12-1.95.33-2.76.24-.84.57-1.59 1.05-2.25.48-.69 1.05-1.2 1.74-1.53.69-.36 1.44-.51 2.28-.51.54 0 1.02.09 1.5.24s.93.42 1.35.72c.45.33.81.72 1.08 1.2.21.33.36.69.51 1.08h2.67c-.18-.9-.51-1.71-.99-2.4-.6-.87-1.44-1.56-2.52-2.1s-2.31-.81-3.69-.81c-.6 0-1.17.06-1.71.15s-1.05.24-1.56.45c-.96.39-1.77.96-2.43 1.68-.66.75-1.2 1.65-1.59 2.76-.21.63-.39 1.29-.51 2.01-.12.72-.18 1.47-.18 2.28 0 1.02.09 1.95.27 2.76.18.81.42 1.56.78 2.22.33.66.75 1.23 1.23 1.71s.99.87 1.59 1.2c.6.33 1.23.57 1.89.72.66.15 1.38.24 2.16.24.69 0 1.35-.06 1.95-.21.6-.15 1.17-.36 1.68-.63 1.05-.48 1.83-1.2 2.46-2.1zm27.3 2.49h2.34v-17.22h-2.34v17.22zm-18.75-13.8c1.92 0 3.66.81 4.86 2.13l-.12.18v.03c-.51.69-.87 1.5-1.08 2.4a4.054 4.054 0 00-3.63-2.19c-2.25 0-4.08 1.83-4.08 4.08s1.83 4.08 4.08 4.08c2.19 0 3.99-1.74 4.08-3.93v-.18c0-1.44.45-2.76 1.26-3.87v-.03a6.603 6.603 0 015.34-2.73 6.6 6.6 0 016.6 6.6c0 3.66-2.94 6.6-6.6 6.6a6.57 6.57 0 01-4.86-2.16c.57-.75 1.02-1.65 1.2-2.64a4.091 4.091 0 003.66 2.28c2.25 0 4.08-1.83 4.08-4.08s-1.83-4.08-4.08-4.08c-2.19 0-3.96 1.71-4.08 3.87v.21c0 3.66-2.94 6.6-6.6 6.6a6.6 6.6 0 01-6.6-6.6c-.03-3.63 2.91-6.57 6.57-6.57z" fill="#FFBE00"/><path d="M130.232 31.14v1.709c-.36.15-.66.18-1.02.18-1.35 0-2.28-.57-2.28-1.95v-.6c-.27.57-1.53 2.64-4.59 2.64-2.49 0-4.44-1.23-4.44-3.84 0-2.58 2.04-3.63 4.53-3.96 1.59-.21 3.39-.36 4.29-.84v-.24c0-2.1-1.11-2.55-2.82-2.55-1.65 0-2.61.48-2.79 1.59h-2.4c.24-2.34 2.13-3.57 5.19-3.57 3.69 0 5.34 1.41 5.34 5.13v5.25c0 .75.27 1.08.99 1.05zm-3.54-4.89c-.81.39-2.1.54-4.14.84-1.53.24-2.13.9-2.13 2.04 0 1.17.78 2.04 2.28 2.04 2.49 0 3.66-1.74 3.99-2.34v-2.58zm8.13-10.68h-2.52v17.519h2.52v-17.52zm5.309 0h-2.52v17.519h2.52v-17.52zm14.1 11.7h-9.51c.27 2.64 1.89 3.78 3.84 3.78 1.23 0 2.25-.36 2.94-1.32h2.43c-1.05 2.429-2.85 3.389-5.55 3.389-2.91 0-6.15-1.95-6.15-6.69 0-4.71 3.18-6.72 6.12-6.72 3.12 0 5.91 2.04 5.91 6.9v.66h-.03zm-9.51-1.77h7.02c-.24-2.52-1.56-3.69-3.42-3.69-1.8 0-3.33 1.2-3.6 3.69zm-35.908-5.76l-4.35 13.379h-2.43l-4.98-17.22h2.73l3.6 13.35 2.94-9.48 2.49-.03zm.06.03l2.94 9.48 3.599-13.35h2.73l-4.98 17.219h-2.429l-4.35-13.38m49.978-1.319h1.41l.48 2.04h3.24v1.95h-2.7v7.11c0 1.17.51 1.44 1.53 1.44h1.17v2.13h-1.95c-2.13 0-3.18-1.14-3.18-3.42V18.42z" fill="#FFBE00"/><path d="M157.741 18.42h1.02v2.07h-.54l-.48-2.07z" fill="#FFBE00"/></svg>