<svg xmlns="http://www.w3.org/2000/svg" viewBox="0 0 500 500"><path d="M69.5 81.4v204.1c-.7 17.9 2.6 34.8 8.9 50.6C106.9 407.3 197 457.7 267.3 485v-35.8c-88.2-34.5-130.9-79.5-148.3-111.9-15.4-28.7-13.5-50.6-13.5-50.6V101.9l161.8-46.7V25.3L83.8 77.6l-14.3 3.8zm203 357.4c11.3-5.5 21.7-11.1 31.4-16.7l1.1-95.5V81.3l-32.5-9.9v367.4zm62.6-41.7c12.5-6.3 32.5-25.2 32.5-25.2V95.1l-32.5-9.9v311.9zm62.1-290.8l.9 143.1v91.5l.9-1c2-2.7 4-5.3 5.7-7.8 22.9-33.1 24-56.4 24-56.4v-24.5l.9-134.9-32.4-10z" fill="#042642"/></svg>