<svg width="64" height="64" xmlns="http://www.w3.org/2000/svg"><g fill="none" fill-rule="evenodd"><path d="M21.842 4H47.32l9.785 9.628V46.14a6 6 0 01-6 6H21.842a6 6 0 01-6-6V10a6 6 0 016-6z" fill="#B2EEE4"/><path d="M57.105 13.825L47.281 4v7.952c.314 1.248 1.11 1.873 2.385 1.873h7.44z" fill="#5A78F0"/><path d="M13 11.86h25.478l9.785 9.628V54a6 6 0 01-6 6H13a6 6 0 01-6-6V17.86a6 6 0 016-6z" fill="#CDF4EE"/><path d="M48.263 21.684L38.44 11.86v7.952c.314 1.248 1.11 1.872 2.385 1.872h7.44z" fill="#05C0A5"/><path d="M18.288 29.184c-.292-.151-.481-.48-.481-.836v-.065c0-.357.189-.685.48-.836l4.28-2.204a.768.768 0 01.798.059c.24.17.384.46.384.776v.024c0 .357-.189.685-.481.836l-2.676 1.377 2.676 1.378c.292.15.481.478.481.835v.025a.945.945 0 01-.384.776.76.76 0 01-.798.06l-4.279-2.205zm7.24 2.467a.88.88 0 01-.12-.762l1.575-5.666a.824.824 0 01.784-.591h.021c.262 0 .51.13.665.349a.88.88 0 01.119.762l-1.575 5.666a.824.824 0 01-.783.591h-.021a.818.818 0 01-.665-.35zm5.004-5.549v-.024c0-.316.143-.606.384-.776a.774.774 0 01.798-.06l4.278 2.205c.293.15.482.479.482.835v.066c0 .357-.19.685-.481.836l-4.279 2.204a.762.762 0 01-.798-.059.945.945 0 01-.384-.777v-.024c0-.357.188-.685.48-.835l2.677-1.378-2.676-1.377c-.293-.151-.481-.48-.481-.836z" fill="#00C0A5" fill-rule="nonzero"/><g fill-rule="nonzero"><path d="M39.512 41.961H15.751c-.492 0-.891.365-.891.814 0 .449.399.813.89.813h23.762c.493 0 .892-.364.892-.813 0-.45-.4-.814-.892-.814z" fill="#05C0A5"/><path d="M39.58 37.895h-3.296a.819.819 0 00-.824.813c0 .45.368.813.824.813h3.296a.819.819 0 00.824-.813.819.819 0 00-.824-.813z" fill="#5A78F0"/><path d="M15.737 39.521H32.11c.485 0 .878-.364.878-.813 0-.45-.393-.813-.878-.813H15.737c-.485 0-.877.364-.877.813 0 .45.392.813.877.813z" fill="#05C0A5"/><path d="M15.684 46.028h3.296c.455 0 .824.364.824.813a.82.82 0 01-.824.814h-3.296a.819.819 0 01-.824-.814c0-.449.369-.813.824-.813z" fill="#5A78F0"/><path d="M39.526 47.655H23.153c-.485 0-.877-.364-.877-.814 0-.449.392-.813.877-.813h16.373c.485 0 .878.364.878.813 0 .45-.393.814-.878.814z" fill="#05C0A5"/></g></g></svg>