<svg xmlns="http://www.w3.org/2000/svg"><defs><font id="cryptocoins" horiz-adv-x="1086.957"><font-face font-family="cryptocoins" ascent="1000" descent="0"/><glyph glyph-name="$PAC" unicode="" horiz-adv-x="1000" d="M500 0C223.844 0 0 223.844 0 500s223.844 500 500 500 500-223.844 500-500S776.156 0 500 0zm-2.031 875C291.938 874.969 125 707.906 125 501.875c.031-206 167.094-373 373.125-372.969 206 .063 373 167.094 372.969 373.125A373.031 373.031 0 01497.969 875zM346.5 711.562a3.844 3.844 0 003.906 3.75h155.406a218.125 218.125 0 0094.594-19.625 188.714 188.714 0 0016.5-9.125L515.75 628.657h-52.781a3.844 3.844 0 01-3.75-3.937v-29.125L346.5 530.406v181.157zm-41.844-327.437l-67.562 68.25 222.5 128.375v-83.187a3.844 3.844 0 013.906-3.75h31.781L304.875 384.125h-.219zm333.188 63.438c-32.625-27.25-77.407-40.875-134.344-40.875h-40.531a3.844 3.844 0 01-3.844-3.844v-84l-56.562-32.563-52.813-30.531-3.344-1.875v139.219L521.5 493.844a64.25 64.25 0 0140.531 16.031 54.375 54.375 0 019.938 13.5l111.812 64.719a169.623 169.623 0 002.782-31.063c.125-45.718-16.125-82.187-48.75-109.468zm-60 94.343a97.896 97.896 0 011.156 14.5 75.531 75.531 0 01-17.594 52.313A56.969 56.969 0 01535.938 625l155.406 89.719L759.53 646.5 577.844 541.906z"/><glyph glyph-name="1ST" unicode="" horiz-adv-x="1000" d="M406.49 721.22c-124.79-125.5-177.27-184.86-174.8-197.77 3.04-15.95 16.37-19.13 98.41-23.45l94.9-5 5-122.46 5-122.47 76.52-76.48c53.24-53.2 81.43-74.6 92.62-70.3 14.47 5.55 15.83 45.67 13.48 398.81-2.27 340.77-4.61 393.01-17.72 395.54-8.58 1.65-91.98-74.42-193.41-176.42"/><glyph glyph-name="ABT" unicode="" horiz-adv-x="1000" d="M500 0C223.844 0 0 223.844 0 500s223.844 500 500 500 500-223.844 500-500S776.156 0 500 0zM203.125 672.281V327.72L500 156.25l296.875 171.469V672.28L500 843.75 203.125 672.281zm28.5-311.562V639.25l179.469-103.844-60.406-105.781-119.063-68.906zM245.906 336l114.5 66.25 126.188-72.281v-133L245.906 336zm522.469 302.281V361.72l-117.5 67.969L590.5 535.375l177.875 102.906zm-13.438 25.25L576.345 560.188l-61.25 107.218v134.657L754.937 663.53zM565.97 521.188L602 457.967 529.344 500l36.625 21.188zM551.812 546l-36.718-21.25v85.625L551.812 546zm-152-87.969l35.97 63.125L472.343 500l-72.5-41.969zM389 418.781l97.594 56.469V362.906L389 418.75zM245.875 664l240.719 139.031V667.594L425.28 560.219 245.906 664zm509.063-327.531L515.093 197.938v131.125l126.25 73.125 113.593-65.72zm-142.125 82.25l-97.72-56.656V475.25l97.72-56.562zM449.938 545.938l36.656 64.28V524.75l-36.656 21.188z"/><glyph glyph-name="ABYSS" unicode="" horiz-adv-x="1000" d="M442.75 837.5C416.3 808.81 100 260.05 100 242.86c0-10.21 64.19-12.86 311.07-12.86 279.55 0 310.45 1.6 305 15.82-3.34 8.7-6.07 17.7-6.07 20 0 2.3-123.75 4.18-275 4.18s-275 1.76-275 3.92 72.52 129.28 161.15 282.5c88.63 153.22 163.36 284.2 166.07 291.08 8.21 20.86-22.37 13.98-44.47-10m84.01-8.8C504.4 794 230 317.61 230 313.5c0-1.93 10.12-3.44 22.5-3.36 18.83.12 44.54 38.55 157.43 235.28C524.05 744.29 546.7 778.04 556.78 764.26c6.55-8.96 82.81-139.32 169.47-289.69C812.9 324.2 887.44 203.42 891.9 206.17c4.45 2.76 8.1 14.97 8.1 27.14 0 22.93-308.31 567.31-340.03 600.39-17.48 18.24-18.31 18.11-33.21-5m8.49-149.92c-5.61-21.7 15.74-65.12 123.99-252.08C731.16 302.47 790 198.39 790 195.42c0-2.98-150.75-5.42-335-5.42s-335-3.78-335-8.39C120 155 181.67 150 509.88 150c186.42 0 340.95 3.38 343.4 7.5 3.8 6.39-251.09 458.45-295.85 524.7l-15.4 22.8-6.78-26.22m-123.6-211.49C366.74 388.8 330 321.3 330 317.29c0-4.01 76.83-7.29 170.73-7.29 131.65 0 170 2.86 167.5 12.5C662.37 345.15 507.86 610 500.5 610c-3.96 0-43.94-64.22-88.85-142.71m35.85-20.34c-26.12-45.64-47.5-86.12-47.5-89.97 0-3.84 45-6.98 100-6.98s100 2.99 100 6.64c0 10.87-93.08 173.36-99.29 173.33-3.14-.02-27.09-37.38-53.21-83.02"/><glyph glyph-name="ACT" unicode="" horiz-adv-x="1000" d="M500 0C223.844 0 0 223.844 0 500s223.844 500 500 500 500-223.844 500-500S776.156 0 500 0zm-69.688 796.875A27.188 27.188 0 01406.594 783L190.78 398.031a27.188 27.188 0 010-26.562l69.063-123.188a27.188 27.188 0 0123.687-13.906h432.94a27.188 27.188 0 0123.718 13.906L809.22 371.47a27.188 27.188 0 010 26.562L593.406 783a27.188 27.188 0 01-23.718 13.875H430.313zM500 643.719L645.406 384.75H354.594L500 643.719z"/><glyph glyph-name="ACTN" unicode="" horiz-adv-x="1000" d="M500 0C223.844 0 0 223.844 0 500s223.844 500 500 500 500-223.844 500-500S776.156 0 500 0zM137.687 321.531A172.656 172.656 0 01125 297.375c0-1.125 4.5-1.125 9.219-1.125a124.362 124.362 0 0131.062 6.813l13.781 3.437a240 240 0 0141.407 23.063l25.281 20.687a227.68 227.68 0 0133.375 33.375l27.594 39.156c19.594 26.406 41.406 39.063 66.75 37.938a93.75 93.75 0 0141.406 11.469l71.313 46a170 170 0 0120.718 15 97.5 97.5 0 01-12.687 23l-13.782 22.968c-14.937 24.157-14.937 25.344-1.125 50.625l1.125 3.438A194.375 194.375 0 01492 656.25a137.938 137.938 0 01-4.688 33.688 66.75 66.75 0 01-9.125-15C465.5 648.53 457.47 633.53 456.281 633.53c-3.437 0-1.125 32.25 5.781 51.75l31.032 97.5c8.031 28.782 9.218 28.782 17.25 0L556.25 639c5.844-19.563 10.5-23.031 30-23.031h32.188c25.25 1.218 41.312-10.344 54.062-37.938a158.903 158.903 0 0125.344-33.375L857.75 378.75A105.308 105.308 0 01875 361.812v1.125a325.973 325.973 0 01-12.594 20.688l-118.5 170.25a316.713 316.713 0 01-30 36.813l-36.75 39.062A57.906 57.906 0 01638 647.031h-9.156c-28.781 0-56.406 20.688-67.875 49.5l-50.625 125.407a61.938 61.938 0 01-11.469 21.812 89.493 89.493 0 01-15-20.688l-117.156-179.5a21.969 21.969 0 00-31.031-9.125h-1.22c-11.624 6.875-23.093 3.438-30-9.25l-166.78-303.625z"/><glyph glyph-name="ADA-alt" unicode="" horiz-adv-x="1000" d="M0 500a500 500 0 011000 0A500 500 0 010 500m452.24 40.088a40.22 40.22 0 00-36.116 22.288c-10.004 19.96-1.988 44.364 17.904 54.428a40.616 40.616 0 0018.144 4.332c15.364 0 29.2-8.544 36.128-22.272 10.036-19.96 1.992-44.38-17.9-54.412a40.3 40.3 0 00-18.16-4.36m-47.416-82.828c-.792 0-1.556.028-2.344.056-22.208 1.296-39.292 20.48-38.024 42.78 1.252 22.216 20.244 39.468 42.632 38.16 22.236-1.248 39.292-20.456 38.036-42.756-1.228-21.464-18.952-38.24-40.3-38.24m47.72-82.58a40.167 40.167 0 00-22.132 6.632 40.26 40.26 0 00-17.396 25.62 40.4 40.4 0 005.756 30.48 40.376 40.376 0 0033.824 18.304c7.864 0 15.54-2.312 22.128-6.644a40.172 40.172 0 0017.408-25.636c2.224-10.584.16-21.4-5.768-30.46a40.26 40.26 0 00-33.824-18.296m95.284.192a40.228 40.228 0 00-36.088 22.288 40.296 40.296 0 00-2.288 30.924 40.24 40.24 0 0020.188 23.488 40.2 40.2 0 0018.16 4.348c15.368 0 29.204-8.544 36.104-22.3 10.004-19.944 1.988-44.352-17.904-54.412a40.516 40.516 0 00-18.172-4.336m47.472 82.8c-.804 0-1.568.052-2.332.08-22.264 1.26-39.32 20.468-38.052 42.74 1.256 22.228 20.26 39.48 42.648 38.172A40.048 40.048 0 00625.4 525.2a40.256 40.256 0 0010.168-29.284c-1.2-21.452-18.908-38.24-40.272-38.24m-47.88 82.604c-7.84 0-15.5 2.28-22.112 6.644-18.652 12.264-23.848 37.42-11.632 56.112a40.336 40.336 0 0055.924 11.66c18.64-12.236 23.86-37.404 11.644-56.096a40.368 40.368 0 00-33.824-18.32M411.792 690.7c5.028-9.98 1.008-22.176-8.932-27.18a20.148 20.148 0 00-27.104 8.94 20.28 20.28 0 008.932 27.208 20.18 20.18 0 0027.104-8.968M289.5 517.748c11.136-.628 19.644-10.2 19.016-21.356a20.24 20.24 0 00-21.308-19.084c-11.124.656-19.62 10.212-19.004 21.384a20.216 20.216 0 0021.296 19.056m88.208-192.692a20.124 20.124 0 0027.932 5.824c9.328-6.112 11.932-18.66 5.808-28.028a20.168 20.168 0 00-27.948-5.84 20.296 20.296 0 00-5.792 28.044m210.524-19.74a20.256 20.256 0 008.92 27.164 20.168 20.168 0 0027.116-8.94c5.028-9.98 1.008-22.176-8.944-27.18a20.116 20.116 0 00-27.092 8.956m122.28 172.948c-11.152.628-19.632 10.2-19.004 21.356.628 11.184 10.156 19.716 21.296 19.072 11.12-.616 19.656-10.184 19.032-21.368a20.216 20.216 0 00-21.324-19.06m-88.18 192.696a20.152 20.152 0 00-27.948-5.84 20.264 20.264 0 00-5.808 28.032 20.128 20.128 0 0027.932 5.84 20.296 20.296 0 005.824-28.032M367.64 752.8a13.12 13.12 0 00-5.78-17.596 13.04 13.04 0 00-17.544 5.812 13.112 13.112 0 005.78 17.584 13.064 13.064 0 0017.544-5.8M213.788 510.452a13.068 13.068 0 0012.296-13.808c-.42-7.22-6.584-12.768-13.768-12.32a13.04 13.04 0 00-12.296 13.8 13.08 13.08 0 0013.768 12.328M346.156 255.66a13.028 13.028 0 0018.104 3.76 13.112 13.112 0 003.74-18.14 13.048 13.048 0 00-18.08-3.776 13.144 13.144 0 00-3.76 18.16m286.22-12.472a13.12 13.12 0 005.792 17.612 13.004 13.004 0 0017.52-5.8 13.088 13.088 0 00-5.768-17.58 13.048 13.048 0 00-17.544 5.768m153.84 242.352a13.104 13.104 0 00-12.312 13.836 13.06 13.06 0 0013.808 12.332 13.024 13.024 0 0012.26-13.824 13.084 13.084 0 00-13.76-12.344M653.88 740.356a13.04 13.04 0 00-18.092-3.772 13.136 13.136 0 00-3.76 18.14 13.008 13.008 0 0018.076 3.748 13.12 13.12 0 003.776-18.116M371.6 599.372c10.96-7.192 14.028-21.96 6.828-32.952a23.668 23.668 0 00-32.88-6.848c-10.976 7.192-14.032 21.944-6.832 32.96 7.2 10.98 21.92 14.072 32.88 6.84m-23.352-162.204c11.712 5.932 26 1.188 31.904-10.544 5.888-11.744 1.184-26.072-10.524-31.992-11.7-5.92-26-1.176-31.892 10.544-5.9 11.744-1.2 26.072 10.512 31.992m126.696-101.38c.752 13.128 11.984 23.16 25.06 22.44 13.112-.74 23.12-12.02 22.372-25.132-.736-13.14-11.96-23.188-25.072-22.436-13.088.752-23.096 12.004-22.36 25.128m153.5 60.812a23.908 23.908 0 00-6.86 32.992 23.72 23.72 0 0032.872 6.84c10.976-7.196 14.028-21.96 6.84-32.952a23.684 23.684 0 00-32.852-6.88m23.34 162.232c-11.712-5.92-26-1.2-31.888 10.544-5.904 11.728-1.216 26.056 10.512 31.96 11.72 5.936 26 1.208 31.928-10.536 5.876-11.732 1.16-26.06-10.552-31.968m-128.388 101.38c-.748-13.112-11.984-23.176-25.096-22.424a23.788 23.788 0 00-22.36 25.132c.748 13.136 11.956 23.172 25.044 22.432a23.832 23.832 0 0022.412-25.14m-240.232-18.12c7.688-5.028 9.816-15.376 4.784-23.076a16.564 16.564 0 00-23.012-4.784 16.688 16.688 0 00-4.784 23.08 16.584 16.584 0 0023.012 4.784m-16.02-260.368a16.584 16.584 0 0022.332-7.384 16.7 16.7 0 00-7.376-22.396 16.604 16.604 0 00-22.32 7.372c-4.116 8.216-.828 18.264 7.364 22.408m215.148-144.104a16.612 16.612 0 0017.532 15.696 16.64 16.64 0 0015.652-17.584 16.612 16.612 0 00-17.532-15.708 16.628 16.628 0 00-15.652 17.6m234.548 116.28a16.712 16.712 0 00-4.784 23.076 16.612 16.612 0 0023.028 4.8 16.728 16.728 0 004.784-23.08 16.6 16.6 0 00-23.028-4.8m16.048 260.356a16.64 16.64 0 00-22.344 7.408 16.668 16.668 0 007.376 22.368 16.592 16.592 0 0022.32-7.368 16.72 16.72 0 00-7.352-22.408m-216.84 144.116a16.644 16.644 0 00-17.56-15.696 16.66 16.66 0 00-15.648 17.584 16.632 16.632 0 0017.544 15.708 16.656 16.656 0 0015.664-17.6"/><glyph glyph-name="ADA" unicode="" horiz-adv-x="1000" d="M500 0C223.844 0 0 223.844 0 500s223.844 500 500 500 500-223.844 500-500S776.156 0 500 0zm-8.594 810.625c-12.187-4.75-15.312-22.094-5.812-30.875 8.969-9.156 26.469-5.938 31.094 6.031 7.968 14.719-10.313 32.563-25.313 24.875zm-161.094-17.063c-12.656-3.312-14.062-22.937-1.78-27.625 9.28-5 22.437 2.782 21.468 13.344.938 9.782-10.594 17.969-19.688 14.282zm329.938-27.906c9.688-2.437 16.875 5.313 19.125 13.75-1.563 9.907-11.313 19.438-21.906 14.375-13.688-4.437-11.438-26.437 2.781-28.125zm-293.281-39.531c-14.25-7.188-16.219-28.563-3.281-37.875 13.375-11.875 37.062-1.688 37.843 15.844 2.344 17.406-19.375 31.5-34.562 22.031zm232.187-10.063c-8.468-16.75 8.625-35.937 26.657-32.625 13.593 4.438 23 20.594 15.343 33.625-7.718 16.75-35.218 16.22-42-1zM472 684.407c-.812-12.062 7.969-21.937 18.375-26.968 6.813-.407 14.219-1.688 20.469 1.75C524.53 665.125 531.28 683 523.688 696c-4.063 9.375-14.375 13.375-23.844 15.25-14.313-1.031-28-12.031-27.844-26.844zm-239.562-21.562c-12.125-5.469-13.813-23.938-3.125-31.625 10.062-8.188 27.625-2.969 30.5 9.875 5.28 14.843-13.47 30.187-27.375 21.781zm514.437.062c-12.125-7.312-10.781-26.812 2.094-32.5 11.687-6.875 28.531 3.188 27.719 16.532 1.406 14.625-18.032 24.968-29.813 15.937zm-207.5-26.593c-24.25-7.25-38.625-36.188-28.75-59.313 8.688-25.844 43.031-37.844 66.563-23.687 22.656 11.968 30.437 43.75 15.812 64.593-11.063 17.063-34.188 25.313-53.625 18.407zm-114.156-2.282c-22.969-10.093-33.531-39.875-21.625-61.812 10.625-22.657 41.562-31.969 63.5-19.688 21.906 10.907 31.375 40.313 19.125 61.438-10.406 21.687-39.438 30.093-61 20.062zm-114.281-38.406c-3.157-16.063 11.406-32.375 28.062-30.938 15.125-.093 26.156 13.625 27.094 27.657a30.562 30.562 0 01-27.188 26.781c-13.219-.938-26.312-9.844-27.968-23.5zm337.562 20.5c-18.344-8.5-19.688-36.625-2.031-46.625 17-12 43.25 2.406 42.093 22.875.75 19.313-22.968 33.531-40.062 23.75zm-269.688-72.094c-27.125-6.437-43-39.25-29.937-63.718 11.406-26.688 50.813-34.563 72.188-15 16.687 13.343 21.062 38.625 10.343 56.812-9.812 18.063-32.656 27.313-52.625 21.906zm216.47.094c-27.313-7.344-41.75-41.406-27.407-65.5 11.875-23.312 45.219-31.125 66.75-16.25 20.531 12.844 27.125 42.563 13.313 62.469-10.438 17.406-33.25 24.75-52.657 19.281zm-345-22.688c-16.563-4.625-21.47-28.25-8.188-38.843 11.344-11.313 33.312-5.625 37.594 9.687 6.968 16.844-12.157 35.563-29.407 29.156zM718.061 497c2.875-6.563 6.344-13.438 13.126-16.813 14.5-7.843 34.968 3.5 33.875 20.22.937 12.687-10.563 22.062-22.375 23.906A26.125 26.125 0 01718.063 497zm-552.625 16.125c-8.593-3.844-12.312-15.313-6.062-22.781 7.063-10.719 26.344-5.781 26.875 7.062 2.406 11.344-10.438 20.188-20.813 15.719zm654.657.281c-12.188-6.406-7.406-28.5 7.343-27.187 10.5-1.563 19.5 11.031 14.594 20.219-2.906 8.406-14.625 12.062-21.937 6.968zM435.188 451.75c-20.438-4.375-36.188-23.469-36.125-44.031-.72-21.469 16.25-41.969 37.875-45.406 27.968-6.438 56.875 18.343 55.093 46.312-.156 27.688-29.531 50.094-56.875 43.125zm108.187.031c-16.437-4-30.375-17.344-34-33.75-7.188-24.593 11.813-52.437 37.594-55.719 27.375-5.437 55.406 18.532 53.937 45.97.438 28.312-29.812 51.124-57.5 43.5zM334.75 434.75c-20.719-2.063-31.656-29.469-17.031-44.438 12.5-15.625 40.75-10.437 46.437 8.688 7.782 17.906-10.218 38.969-29.375 35.75zm317.313-.844c-20.657-6.469-24.125-37.5-5.157-48 16.719-11.75 42.657 2.125 41.969 22.219 1.313 18.281-19.688 32.812-36.813 25.781zm88.687-87.5c4.531-12.437 23.438-15.406 31.781-5 6.157 5.594 4.625 14.281 3.719 21.563-4.406 4.5-9.25 9.844-16.156 9.719-13.875 2.28-26.031-14-19.344-26.282zm-508.375 22.875c-12.344-6.187-12.781-25.531-.844-32.312 11.125-7.5 28 .031 29.531 13.218 2.938 14.907-15.718 27.563-28.687 19.063zm256.031-27.594c-20.437-6.468-23.5-37.28-5.094-47.75 16.594-12.187 43.344 1.875 42.063 22.188 1.625 18.375-20 32.906-36.969 25.563zM369.844 314.47c-10.188-3.75-14.344-14.813-14.531-24.719 3.5-9.094 10.562-18.688 21.406-18.906 13.125-1.938 26.062 9.187 25.625 22.25 1.312 15.937-18.063 28.844-32.5 21.375zm240.187-.25c-14.5-7.281-16.125-29.281-2.75-38.438 13.844-11.687 37.719-.312 37.344 17.5 1.406 17-19.719 30-34.594 20.938zm41.782-101.563c6.78-11.437 26.562-7.375 27.843 5.938 1.813 9.875-7.312 16.25-15.937 17.969-10.75-2.25-18.532-14.094-11.907-23.938zm-331.594 8.531c.937-11.218 13.375-20.937 24.062-13.843 11.906 6.25 7.875 26.406-5.719 27.343-9.343 2.032-15.718-5.718-18.343-13.5zm160-8.968c-4.781-11.656 6.656-25.75 19.312-24.281 6.813-.157 12.094 4.625 16.188 9.375.781 3.218 1.593 6.468 2.5 9.687-1.688 6.188-3.625 13.438-10.25 16.25-10 6.125-25.156.5-27.781-11.031z"/><glyph glyph-name="ADC-alt" unicode="" horiz-adv-x="1000" d="M600.088 511.023l-141.093 81.57c-12.346 7.054-27.337-1.764-27.337-15.873V413.58c0-14.11 15.432-22.927 27.337-15.873l141.093 81.57c12.346 7.055 12.346 24.691 0 31.746zM500 737.213c-130.511 0-237.213-106.26-237.213-237.213 0-130.511 106.26-237.213 237.213-237.213 130.511 0 237.213 106.26 237.213 237.213 0 130.952-106.702 237.213-237.213 237.213zm0-446.649c-115.52 0-209.877 93.916-209.877 209.877 0 115.52 93.916 209.876 209.877 209.876 115.52 0 209.877-93.915 209.877-209.876C709.436 384.48 615.52 290.564 500 290.564zM500 1000C223.986 1000 0 776.014 0 500S223.986 0 500 0s500 223.986 500 500-223.986 500-500 500zm0-817.02c-175.044 0-317.02 141.976-317.02 317.02S324.957 817.02 500 817.02 817.02 675.043 817.02 500 675.043 182.98 500 182.98z"/><glyph glyph-name="ADC" unicode="" horiz-adv-x="1000" d="M500 830.688c-182.54 0-330.688-148.148-330.688-330.688S317.46 169.312 500 169.312 830.688 317.46 830.688 500 682.098 830.688 500 830.688zm158.29-363.316L436.066 339.065c-19.4-11.023-43.21 2.646-43.21 25.133V620.81c0 22.046 23.81 36.155 43.21 25.133l222.222-128.307c18.96-11.464 18.96-39.242 0-50.265zM500 1000C223.986 1000 0 776.014 0 500S223.986 0 500 0s500 223.986 500 500-223.986 500-500 500zm0-873.898c-206.35 0-373.898 167.549-373.898 373.898S293.651 873.898 500 873.898 873.898 706.349 873.898 500c0-205.908-167.99-373.898-373.898-373.898z"/><glyph glyph-name="ADX" unicode="" horiz-adv-x="1000" d="M500 0C223.844 0 0 223.844 0 500s223.844 500 500 500 500-223.844 500-500S776.156 0 500 0zM362.094 731.188L281.25 645 417.5 500.812 281.25 353.75l80.844-84.906L500 412.75l134.531-143.875 84.219 87.281-137.375 143.875L718.75 645l-84.219 86.156L500 587.25 362.094 731.188zm11.094 11.75l66.437-70.782 59.813 66.063 59.812-66.063 66.438 70.782L499.438 875l-126.25-132.063zm0-485.875L499.438 125l126.25 132.063-66.438 70.78-59.813-66.062-59.812 66.063-66.438-70.781z"/><glyph glyph-name="AE" unicode="" horiz-adv-x="1000" d="M500 0C223.844 0 0 223.844 0 500s223.844 500 500 500 500-223.844 500-500S776.156 0 500 0zM304.75 656.25c-77.281-5.438-143.469-69.625-148.5-144.406v-24.531c5.313-74.938 72.406-138.375 149.594-143.563h25.094c61.25 5.375 112.75 44.219 149.875 89.438-9.063 13.28-18.22 26.53-27.625 39.562-23.875-35.25-55-68.5-96.938-83.125-37.75-13.688-81.562-4.906-112.969 18.625-41.937 29.688-57.187 87.281-38.437 133.719 21.312 56.375 92.812 89.562 151.344 68.343 47.343-17.218 76.562-59.843 105.187-97.75 33.25-42.875 60.75-91.03 103.594-126.125 29.5-25.062 67.375-39.562 106.343-42.687h23.313c63.312 5.625 121.219 47.938 141.094 106.781a1887.094 1887.094 0 01-43.407-.187c-28.375-57.938-109.156-85.969-166.906-51.688C545.5 446.062 511 535.97 448.22 599.656c-30.25 30.938-71.063 52.407-115.219 56.594h-28.25zm365 0c-61.687-5.719-112.812-45.406-149.469-91.281 8.594-12.719 17.469-25.282 26.407-37.719 23.218 33.594 53.343 65.031 93.343 79.375 50.188 19.063 112.969 1.094 142.657-42.813 12.187-16.812 16.875-37.156 20.437-57.03-50.75-.313-101.469 0-152.281-.126.062-11.25.062-22.406 0-33.656 64.281.062 128.625-.313 192.906.281v38.438c-6.406 74.906-72.656 139.625-150.562 144.531H669.75z"/><glyph glyph-name="AEON-alt" unicode="" horiz-adv-x="1000" d="M647.486 614.092c-44.188 8.383-93.704-9.648-120.62-39.113-10.923 24.888-44.948 42.407-90.658 38.853S354.696 601.9 354.696 601.9l-9.396-54.093s34.28 18.542 67.546 18.802c33.262.252 65.774-1.785 60.438-36.061 0 0-42.147 1.525-79.479-3.555 0 0-73.389-6.098-85.582-62.215-12.183-56.117 19.301-82.266 63.234-82.023 43.929.26 76.825 11.941 102.405 40.63 25.58-39.36 67.48-37.839 98.965-38.342 31.485-.507 73.896 10.919 73.896 10.919l10.663 54.855s-42.915-19.808-77.446-19.3c-34.536.498-54.089 5.07-50.534 36.564 0 0 50.79-.507 78.469 3.298 0 0 69.068 8.383 83.284 53.075 14.226 44.691.512 81.256-43.673 89.638zM443.568 442.43c-12.942-12.95-40.754-19.045-57.32-5.904-16.572 13.14-6.478 39.426 13.33 46.283 19.803 6.853 64.76 4.37 64.76 4.37s-7.815-31.802-20.77-44.749zm147.982 70.087c-31.233-3.431-54.657-1.328-54.657-1.328s2.095 31.613 23.614 46.848c21.523 15.24 52.567 14.468 60.182-1.137 7.624-15.628 2.095-40.953-29.139-44.383zM500.002 1000C223.86 1000 0 776.141 0 500.002 0 223.86 223.859 0 500.002 0 776.142 0 1000 223.859 1000 500.002 1000 776.142 776.141 1000 500.002 1000zm308.973-266.442c16.413-21.524 22.41-49.282 19.262-80.86-81.486 42.703-210.322 61.775-351.645 45.239a936.127 936.127 0 01-16.228-2.068c148.388 88.99 295.083 107.88 348.611 37.689zM627.978 864.832c28.557-9.961 50.565-33.584 65.62-67.101-78.289-6.637-175.64-44.043-271.104-107.842a837.501 837.501 0 01-44.255-9.234c73.716 132.518 173.651 210.718 249.74 184.177zM191.03 262.382c-16.408 21.531-22.414 49.281-19.261 80.867 81.485-42.707 210.317-61.783 351.645-45.238a797.893 797.893 0 0116.218 2.077c-148.383-89.004-295.078-107.9-348.602-37.707zm181.002-131.27c-28.561 9.965-50.57 33.587-65.624 67.1 78.288 6.641 175.635 44.044 271.099 107.838a834.406 834.406 0 0144.246 9.229C548.045 182.769 448.11 104.569 372.03 131.11zm149.622 181.874c-213.125-24.95-395.6 37.645-407.559 139.811-11.958 102.158 151.127 205.215 364.253 230.16C691.48 707.902 873.95 645.3 885.9 543.137c11.963-102.162-151.117-205.206-364.248-230.151z"/><glyph glyph-name="AEON" unicode="" horiz-adv-x="1000" d="M500 0C223.844 0 0 223.844 0 500s223.844 500 500 500 500-223.844 500-500S776.156 0 500 0zm342.656 540.313C832.406 632.938 670.47 690.25 481.094 668.28c-189.375-21.937-334.563-114.843-324.313-207.5 10.281-92.625 172.094-149.906 361.563-127.969 189.531 21.97 334.593 114.875 324.312 207.5zm-198.125-46.376c-19.187-13.687-47.156-20.437-83.875-20.593L525 473.219l-1.094-5.094a13.563 13.563 0 01-.531-3.438c-.156-.718-.156-1.406-.156-1.968 0-7.875 3.656-13.657 10.812-17.5 7.188-4.031 17.813-5.938 31.75-5.938 13.219 0 25.938 1.5 37.938 4.25 11.875 2.781 23.375 6.906 34.312 12.438l-9.062-48.594c-13.625-3.313-26.719-5.938-39.688-7.594A275.219 275.219 0 00551.594 397c-17.282 0-31.594 2.094-43.094 6.5-11.875 4.563-25.125 14.5-31.719 28.719a145.031 145.031 0 00-41.875-27.875 115.125 115.125 0 00-45.406-9.25c-19.688-.156-35.25 4.687-46.313 14.219-11.218 9.5-16.75 22.78-16.875 39.468-.156 25.688 9.438 45.156 28.5 58.688 19.157 13.656 47.125 20.406 83.875 20.562l35.625.125 1.094 5.125a13.563 13.563 0 01.563 3.438c.125.687.125 1.375.125 1.937 0 7.875-3.657 13.656-10.813 17.531-7.156 4-17.812 5.938-31.75 5.938a169.815 169.815 0 01-37.937-4.281c-11.875-2.75-23.375-6.875-34.313-12.438L370.344 594c13.625 3.312 26.718 5.937 39.687 7.594a275.219 275.219 0 0037.688 2.781c17.312 0 31.625-2.094 43.125-6.5 11.875-4.563 25.093-14.5 31.718-28.719a145.031 145.031 0 0041.875 27.906 115.125 115.125 0 0045.375 9.25c19.72.125 35.25-4.687 46.313-14.218 11.25-9.532 16.75-22.813 16.875-39.5.156-25.532-9.281-45.125-28.469-58.657zm-207.062-4c-15.531 0-27.281-2.625-35.406-7.593-7.813-4.844-11.75-12.188-11.75-21.813 0-7.187 2.437-13 7.03-17.125 4.72-4.156 11.344-6.219 19.594-6.219 12.813 0 23.5 4 32 11.875 8.532 8 14.313 19.188 17.188 33.532l1.313 7.343h-30zm164.5 67.782c-4.719 4.125-11.344 6.187-19.563 6.187-12.844 0-23.531-4-32.031-11.875-8.5-8-14.313-19.187-17.156-33.531l-1.344-7.313 30 .125c15.531 0 27.281 2.625 35.375 7.594 7.813 4.844 11.75 12.156 11.75 21.813 0 7.187-2.281 12.843-7.031 17zM516.344 321.78a702.02 702.02 0 00-80.907-4.687c-62.687 0-121.28 8.812-170.062 26.094a275.313 275.313 0 00-57.5 27.593c-6.656-34.937-2.188-65.719 14.969-88.625 49.281-65.844 187.187-44.875 323.625 43.75-10-1.5-20-2.875-30.125-4.125zm-32 356.156c92.5 10.782 181.656 3.188 250.937-21.375a275.313 275.313 0 0057.563-27.625c6.593 34.938 2.156 65.72-15 88.625-49.313 65.844-187.188 44.875-323.625-43.75 10 1.657 20.125 3.032 30.125 4.125zm-100.625-436.25a284.188 284.188 0 00-55-7.562c13.937-36.875 35.687-62.688 64.437-72.344 69.438-23.344 159.25 53.125 222.875 179.75a686.856 686.856 0 00-46.187-11.062c-62.157-43.907-126.969-74.969-186.125-88.75zM621.156 759a282.625 282.625 0 0055 7.312c-13.812 36.875-35.406 62.813-64.187 72.594-69.282 23.625-159.5-52.437-223.532-178.625 15 4.125 30.532 7.719 46.313 10.75 62.156 43.75 127.125 74.438 186.406 87.969z"/><glyph glyph-name="AGI" unicode="" horiz-adv-x="1000" d="M500 0C223.844 0 0 223.844 0 500s223.844 500 500 500 500-223.844 500-500S776.156 0 500 0zm35.75 799.25c15.687-15.094 29.875-31.563 42.375-49.25a157.719 157.719 0 00-3.906-164.781 19.594 19.594 0 011.968-22.719c6.688-9.063 19.5-11.563 29.282-5.688 37.125 30.313 39.062 94.688 41.031 107.97a140.531 140.531 0 01-5.875 39.75 201.969 201.969 0 01-15.625 36 115.906 115.906 0 01-23.438 30.312 175.938 175.938 0 01-58.593 39.75 9.031 9.031 0 01-9.782 0 8.75 8.75 0 012.563-11.344zm-57.625-580.688c-15.937 15.032-30.313 31.563-42.969 49.25a157.719 157.719 0 003.906 164.75 16.844 16.844 0 010 22.75A22.312 22.312 0 01409.75 461c-37.094-30.313-39.063-94.688-41-107.969 0-13.437 2-26.875 5.875-39.781 4-12.438 9.219-24.5 15.625-35.969a115.321 115.321 0 0123.438-30.312 175.938 175.938 0 0158.593-39.781c1.938-1.875 5.844 0 7.813 1.874s1.937 5.72-1.969 9.5zm168.563 156.25a171.031 171.031 0 01-41.032 98.47 338 338 0 01-82.031 60.624 452.063 452.063 0 00-74.219 51.313 126 126 0 00-37.093 66.281 132.594 132.594 0 009.562 77.5 209.125 209.125 0 0054.875 70.063 8.125 8.125 0 011.969 9.468A7.563 7.563 0 01467 810.406a174.281 174.281 0 01-76.187-64.375A156.562 156.562 0 01363.28 643.75a164.063 164.063 0 0113.688-53.031 187.5 187.5 0 0131.25-45.469 336.875 336.875 0 0183.969-58.688c26.5-13.75 51.406-30.28 74.218-49.25a112.594 112.594 0 0037.125-68.187c5.5-27.469 2.063-55.937-9.781-81.437a191.563 191.563 0 00-56.656-68.188 6.469 6.469 0 01-1.969-9.469c1.094-2 3.125-3.437 5.406-3.781s4.657.313 6.344 1.875a243.781 243.781 0 0174.219 66.313c19.375 29.937 28.312 65.125 25.594 100.375zM535.75 799.25a8.75 8.75 0 00-2.531 11.344 9.031 9.031 0 009.75 0 175.938 175.938 0 0058.593-39.75c9.47-8.782 17.407-19.032 23.438-30.313a202.938 202.938 0 0015.625-36c3.844-12.906 5.844-26.312 5.875-39.75-1.969-13.281-3.906-77.656-41.031-107.968a22.312 22.312 0 00-29.313 5.687 19.594 19.594 0 00-1.937 22.719A157.719 157.719 0 01578.125 750c-12.5 17.688-26.688 34.156-42.375 49.25zm-57.625-580.688c3.906-3.78 3.906-7.562 1.969-9.468s-5.875-3.781-7.813-1.875a175.938 175.938 0 00-58.593 39.75 115.906 115.906 0 00-23.438 30.312 201.969 201.969 0 00-15.625 35.969 140.063 140.063 0 00-5.875 39.781c1.969 13.25 3.906 77.656 41.031 107.969a22.312 22.312 0 0029.281-5.688 16.844 16.844 0 000-22.75 157.719 157.719 0 01-3.906-164.75c12.656-17.718 27.063-34.218 42.969-49.25z"/><glyph glyph-name="AGRS" unicode="" horiz-adv-x="1000" d="M500 0C223.844 0 0 223.844 0 500s223.844 500 500 500 500-223.844 500-500S776.156 0 500 0zm117.344 458.313C687.53 568.28 742.187 750 742.187 750l-117.03-26.531-42.845-151.563c-4.03 113.625-81.937 155.219-81.937 155.219-62.406 30.406-118.031 17.031-158.125-3.875-49.625-25.813-85.719-70.813-103-122.625-24.562-73.719-21.562-156.438-18.312-193.875a179.478 179.478 0 0111.562-51.344c43.063-111.656 162.344-105.312 162.344-105.312 109.281 3.875 175.687 132.562 175.687 132.562l31.313-94.625c28.062-47.468 90.218-29.687 103-27.031 2.25.5 4.25.75 6.531 1.25l69.875 10.656v30.406c-152.125-4.125-163.906 154.97-163.906 154.97zM469.25 343.969a74.031 74.031 0 00-34.313-19.938c-28.343-7.062-50.125 4.844-65.156 19.438a123.031 123.031 0 00-33.094 61.812C309.125 561.22 347.22 629.562 372.531 660.97a70.563 70.563 0 0058.375 27c98.25-5.125 120.313-210.688 120.313-210.688-27.813-72.968-63.657-115.312-81.969-133.312z"/><glyph glyph-name="AION" unicode="" horiz-adv-x="1000" d="M500 0C223.844 0 0 223.844 0 500s223.844 500 500 500 500-223.844 500-500S776.156 0 500 0zm-.906 276.563c123.656 0 224.25 99.968 224.25 222.812 0 122.875-100.594 222.813-224.25 222.813s-224.25-99.938-224.25-222.813c0-122.844 100.625-222.813 224.25-222.813zm0 402c99.437 0 180.312-80.375 180.312-179.188 0-98.781-80.875-179.156-180.312-179.156-99.406 0-180.313 80.375-180.313 179.156 0 98.813 80.907 179.188 180.313 179.188zm157.031 75.468l23 37.188a345.406 345.406 0 01-180 50.437c-58.562 0-116.375-14.875-167.187-42.968l21.343-38.157a302.188 302.188 0 00145.813 37.438c55.625 0 109.906-15.188 157.031-43.938zm65.469-515.937A340.969 340.969 0 01843.53 499.375h-43.937a297.469 297.469 0 00-106.406-227.938l28.406-33.343zm-222.5-80.938c55.062 0 109.875 13.219 158.437 38.25l-20.25 38.75a298.688 298.688 0 00-138.187-33.375 302.094 302.094 0 00-191.25 68.281l-28-33.625a346.344 346.344 0 01219.25-78.312zM792.219 580.47l35.25 9.687a334.688 334.688 0 01-66.407 125.813l-28.125-23.282A298.688 298.688 0 00792.22 580.47zM214.375 313.25l30.563 20a299.594 299.594 0 00-50.032 166.125 298.875 298.875 0 0092.688 217.25l-25.438 26.156a334.906 334.906 0 01-103.844-243.406c0-66.469 19.375-130.844 56.032-186.125zm577.813 267.219a298.688 298.688 0 01-59.25 112.187l28.125 23.313a334.688 334.688 0 0066.406-125.782l-35.25-9.718zM214.375 313.25a335.688 335.688 0 00-56.031 186.125c0 92.563 36.875 179 103.844 243.406l25.437-26.156a298.875 298.875 0 01-92.688-217.25c0-59.344 17.313-116.781 50-166.125l-30.562-20z"/><glyph glyph-name="AMB" unicode="" horiz-adv-x="1000" d="M500 0C223.844 0 0 223.844 0 500s223.844 500 500 500 500-223.844 500-500S776.156 0 500 0zm343.75 499.531l-.031.438v.718c0 .22 0 .47-.063.688v.031a16.25 16.25 0 01-1.625 5.875l-.093.156-.188.375c-4.344 7.97-109.063 195.313-341.75 195.313S162.594 515.812 158.219 507.812a20.688 20.688 0 01-.188-.375l-.062-.125a16.25 16.25 0 01-1.688-5.906l-.031-.719v-1.406a16.25 16.25 0 012-7.125c4.344-7.969 109.125-195.281 341.781-195.281s337.406 187.313 341.75 195.281a16.313 16.313 0 011.969 7.125v.25zm-34.688.469c-17.437-27.125-82.656-117.094-200.718-154.375l2.75 2.031a8.688 8.688 0 01-1.657 14.938 8.438 8.438 0 01-8.5-1.094c-20.75-15.625-44.75-26.25-70.156-31a376 376 0 00-61.5 0c-68.25 12.594-121.937 66.25-135.375 135.313a18.781 18.781 0 016.625 21.968c-3.062 8-11.094 12.875-19.5 11.781s-14.937-7.875-15.906-16.406 3.969-16.594 11.906-19.562A188.656 188.656 0 01391.22 345.78C273.438 383.125 208.344 472.906 190.938 500c17.593 27.313 83.593 118.344 203.28 155.125a156.875 156.875 0 01-2.28-1.625 8.688 8.688 0 01-3.125-9.656 8.5 8.5 0 0113-4.375 167.875 167.875 0 0075.937 30.343 8.375 8.375 0 011.563.344 362.438 362.438 0 0041.406 0 8.344 8.344 0 011.562-.343c70.375-9.375 127.5-63 142.938-132.47a18.781 18.781 0 01-3.719-22.624 18.25 18.25 0 0134.438 9.25 18.531 18.531 0 01-14.282 17.812A189.688 189.688 0 01605.5 655.22c119.875-36.69 186-127.908 203.594-155.22zm-158.437-.531c0 84.312-67.563 152.844-150.625 152.844S349.375 583.75 349.375 499.469 416.969 346.563 500 346.563s150.625 68.593 150.625 152.875zm-17 0c0-74.781-59.938-135.625-133.625-135.625s-133.656 60.844-133.656 135.625 60 135.594 133.656 135.594 133.625-60.844 133.625-135.625zm-84.375 41.969c0 23.28-16.219 43.312-38.75 47.812-22.5 4.531-45-7.719-53.75-29.25s-1.25-46.344 17.906-59.188l-13.375-82.093a9.844 9.844 0 019.938-11.844h60c6.531 0 10.937 5.313 9.875 11.844l-13.406 82.062c13.468 9.031 21.562 24.281 21.562 40.625zm135.844-63.844a8.594 8.594 0 01-8.438 9.625 8.563 8.563 0 01-8.437-7.625 171.563 171.563 0 00-42.907-95.625 8.625 8.625 0 114.47-14.313 8.438 8.438 0 018.124 2.688 188.781 188.781 0 0147.188 105.25zM376.656 629.719a8.438 8.438 0 01-12.031-.344 188.75 188.75 0 01-48.969-102.094 8.625 8.625 0 018.438-9.906c4.219 0 7.781 3.125 8.406 7.375a171.563 171.563 0 0044.469 92.75 8.688 8.688 0 01-.313 12.188z"/><glyph glyph-name="AMP-alt" unicode="" horiz-adv-x="1000" d="M309.82 500.708a82.883 82.883 0 01165.766 0 82.883 82.883 0 01-165.766 0m338.367 82.883c-.304 0-.6-.04-.9-.049l.05.049c-64.654 0-117.063 52.408-117.063 117.062 0 45.776-37.111 82.888-82.887 82.888s-82.88-37.112-82.88-82.888 37.108-82.879 82.88-82.879c.3 0 .6.044.904.049l-.049-.049c64.65 0 117.067-52.412 117.067-117.062s-52.417-117.058-117.067-117.058c-45.772 0-82.879-37.11-82.879-82.883 0-45.776 37.112-82.883 82.88-82.883 45.775 0 82.882 37.107 82.882 82.883 0 64.654 52.413 117.062 117.062 117.062 45.772 0 82.884 37.112 82.884 82.88 0 45.771-37.112 82.878-82.884 82.878zM500.002 1000C223.86 1000 0 776.141 0 500.002 0 223.86 223.859 0 500.002 0 776.142 0 1000 223.859 1000 500.002 1000 776.142 776.141 1000 500.002 1000zm-.004-879.38c-209.523 0-379.382 169.85-379.382 379.378 0 209.536 169.859 379.381 379.382 379.381 209.532 0 379.377-169.85 379.377-379.381.004-209.528-169.845-379.377-379.377-379.377z"/><glyph glyph-name="AMP" unicode="" horiz-adv-x="1000" d="M500 0C223.844 0 0 223.844 0 500s223.844 500 500 500 500-223.844 500-500S776.156 0 500 0zM259.469 626.344c-28.969 0-47.188-13.938-54.563-41.782-1.125-8.53-.719-17.187 1.281-26 2-8.812 5.407-16.78 10.22-23.875 4.843-7.093 11.093-12.656 18.75-16.625 7.687-3.968 16.937-5.687 27.718-5.125A111.562 111.562 0 00341.313 478a106.875 106.875 0 0032.406-78.438c0-15.937 5.531-29.437 16.625-40.53 11.094-11.063 24.594-16.626 40.5-16.626 15.312 0 28.562 5.563 39.625 16.625 11.094 11.094 16.625 24.594 16.625 40.5a54.688 54.688 0 01-15.75 38.813 53.438 53.438 0 01-37.938 17.5c-30.125-.594-57.406 9.937-81.875 31.531-22.156 21.563-33.812 48.594-34.937 81-1.125 31.25 9.937 58.531 33.25 81.875 23.312 23.281 51.156 34.375 83.562 33.219a53.438 53.438 0 0137.938 17.5 55.625 55.625 0 0115.75 39.625c0 15.343-5.532 28.562-16.625 39.656a54.125 54.125 0 01-39.625 16.625c-15.938 0-29.407-5.531-40.5-16.625a54.125 54.125 0 01-16.625-39.656c0-30.125-10.813-56.844-32.407-80.157-22.187-22.156-48.312-33.53-78.437-34.093h-3.406zm.781-170.532c-15.937 0-29.406-5.562-40.5-16.625a54.125 54.125 0 01-16.625-39.656c0-16.5 5.813-30.281 17.5-41.344a55.938 55.938 0 0142.188-15.78 111.562 111.562 0 0078.437-34.97c21.563-21.593 32.375-48.03 32.375-79.28 0-15.344 5.406-28.563 16.219-39.657 10.781-11.094 23.875-16.625 39.219-16.625h1.687c15.344 0 28.563 5.531 39.656 16.625 11.094 11.094 16.625 24.313 16.625 39.656 0 31.25 10.782 57.688 32.406 79.281 21 22.188 47.438 33.844 79.282 34.97h2.562c28.407 0 46.563 14.218 54.563 42.624 3.968 17.063.562 33.25-10.25 48.594-10.782 15.938-26.438 23.313-46.875 22.188-30.688.562-57.125 11.937-79.282 34.093-20.968 22.625-31.78 48.469-32.375 77.5l.032 2.657c0 30.718 10.812 56.875 32.406 78.437a111.562 111.562 0 0078.438 35c32.406.531 59.968-10.531 82.687-33.281 23.313-23.875 34.688-51.438 34.125-82.688.563-15.375 6.375-28.281 17.469-38.812a55.625 55.625 0 0139.625-15.781c15.375 0 28.562 5.562 39.687 16.625 11.063 11.093 16.594 24.593 16.594 40.5 0 15.937-5.938 29.437-17.906 40.5-11.938 11.093-25.563 16.343-40.938 15.78-30.656.563-57.093 11.938-79.281 34.095-21.563 23.312-32.375 50.03-32.375 80.156v6.812c0 .594-.313 1.157-.875 1.719v2.563c0 .562-.281 1.125-.844 1.687v2.563l-.843.875v1.687l-.438.438c-.281.28-.406.687-.406 1.25v.875c-.594 0-.875.562-.875 1.718l-.844.844-.438.438c-.28.28-.406.687-.406 1.25v.875c-.562 0-.875.28-.875.843l-.406.438c-.313.281-.438.687-.438 1.25h-.843v.875l-.844.843v1.75l-.875.844-.844.844-.437.438c-.282.28-.407.718-.407 1.25l-.843.875c-.594 0-.875.312-.875.843l-.407.438c-.312.312-.437.718-.437 1.281h-.844v.844c-.594 0-.875.312-.875.843l-.844.875c-.562 0-1.125.282-1.687.844l-.875.844h-.844v.875c-.562 0-.844.281-.844.844-1.156 0-1.718.312-1.718.843h-.844v.875l-.875.844c-1.125 0-1.688.282-1.688.844h-.843l-.875.844c-.563 0-.969.156-1.25.437a144.219 144.219 0 01-.438.438l-.844.843h-.875v.844h-1.687l-.875.875c-.563 0-1.125.282-1.687.844h-1.72l-.843.844h-1.719l-.843.843H615c-.594 0-1 .157-1.281.438l-.438.438h-1.687c-.594 0-1 .125-1.281.406l-.438.437h-17.906c0-.562-.281-.843-.844-.843h-2.562l-.844-.875h-2.563l-.843-.844h-1.72l-.843-.844h-1.719v-.844h-1.687l-.875-.875h-.844v-.843h-1.719l-.843-.844h-.844c0-.594-.313-.875-.844-.875-.594 0-.875-.282-.875-.844h-.844l-.843-.844-.875-.843c-.563 0-.844-.313-.844-.875h-1.688v-.844l-.875-.844c-.562 0-.843-.312-.843-.875h-1.72l-.843-.844c0-.562-.281-.843-.844-.843v-.875h-.844v-.844l-.875-.844c-.562 0-.843-.312-.843-.844l-.844-.875-.875-.843a52.063 52.063 0 01-12.781-34.094c.562-31.844-10.782-59.406-34.094-82.719-21.875-21.844-47.438-32.938-76.781-33.313a64.219 64.219 0 01-4.469 0l-1.438.063a50.9 50.9 0 01-3.75-.406 54.563 54.563 0 01-33.437-16.25 54.125 54.125 0 01-16.625-39.625c0-15.344 5.281-28.563 15.781-39.657a53.438 53.438 0 0140.688-17.468h.75c29.812-.25 55.937-11.063 78.343-32.406a108.063 108.063 0 0034.97-79.313c.562-31.812-10.532-59.094-33.25-81.844-22.188-22.718-48.595-34.093-79.282-34.093h-2.563c-31.25 0-58 11.375-80.156 34.093-22.187 23.313-32.969 50.594-32.375 81.875a54.906 54.906 0 01-17.5 38.344 53.844 53.844 0 01-38.781 16.219z"/><glyph glyph-name="ANC-alt" unicode="" horiz-adv-x="1000" d="M500.002 1000C223.86 1000 0 776.141 0 500.002 0 223.86 223.859 0 500.002 0 776.142 0 1000 223.859 1000 500.002 1000 776.142 776.141 1000 500.002 1000zm-.004-870.393c-101.735 0-193.873 41.023-260.811 107.414l39.907 72.455h442.5l39.594-72.084c-66.973-66.612-159.266-107.785-261.19-107.785zm145.874 318.326l35.714-65.297H318.987l35.595 65.297h291.29zm-251.4 73.165l105.526 193.551L605.86 521.098H394.47zm416.686-222.082l-311.16 571.385L188.485 299.56c-37.253 57.783-58.886 126.587-58.886 200.443 0 204.567 165.832 370.404 370.399 370.404 204.566 0 370.395-165.833 370.395-370.404 0-74.095-21.762-143.096-59.235-200.986z"/><glyph glyph-name="ANC" unicode="" horiz-adv-x="1000" d="M799.129 242.802H201.797l-53.876-97.8C238.287 55.375 362.669-.005 499.998-.005c137.584 0 262.178 55.578 352.584 145.5l-53.453 97.306zM499.998 1000C223.854 1000 0 776.137 0 499.998c0-99.702 29.196-192.586 79.488-270.583L499.998 1000zM1000 499.998C1000 776.137 776.141 1000 499.998 1000l420.034-771.313C970.614 306.834 1000 399.98 1000 499.997zM357.545 528.47H642.9L499.998 789.749zM255.643 341.565h489.472l-48.197 88.143H303.695z"/><glyph glyph-name="ANT" unicode="" horiz-adv-x="1000" d="M248.906 450.063a672.75 672.75 0 00-45.812 111.062 579.563 579.563 0 00-14.375 54.563c56.625 46.5 123.437 86.312 195.25 119.625 26.906 12.5 53.031 23.375 77.687 32.656 15.313 5.75 28.125 10.187 38.188 13.437 10.375-3.375 22.812-7.687 38.125-13.437a1138.26 1138.26 0 0077.687-32.657c71.875-33.343 138.688-73.125 195.313-119.593a680.938 680.938 0 00-57.907-160.782 576.875 576.875 0 00-58.125-91.75c-97.218 6.938-91.312 65.625-91.312 65.625 0 2.344 0 4.688.438 7 0 0 4.687 46.157 45.374 46.157a28.438 28.438 0 0015.157-3.375c21.281-11.438 7.437-32.813 7.437-32.813 26.656 4.219 59.688 33.875 54.375 85.75-5.344 51.875-67.594 78.563-67.594 78.563 1.938 11.875 0 15.875 0 15.875-132.125 79.406-235.03 62.25-235.03 62.25l25.562-25.407c-2.563.22-5.313.22-7.875.22-107.188-3.813-192.875-93.157-192.875-203.063 0-3.438.125-6.719.312-9.907zM500 0C223.844 0 0 223.844 0 500s223.844 500 500 500 500-223.844 500-500S776.156 0 500 0zm343.75 628.063l-7.063 5c-57.562 48.437-125.625 90-199.125 124.875a1067.563 1067.563 0 01-127.624 51.437l-3.375 1.094-6.782 2.031-9.937-3.125C456 798.531 411.156 781.25 362.125 757.937c-73.594-34.968-141.75-76.562-199.375-125.062l-2.75-2.344-3.75-3.125 1.625-9c-.313 1.25 1.406-7.5 2.969-14.5a709.562 709.562 0 0159.062-162.593c28.156-54.907 62.5-102.907 102.125-142.938A447.312 447.312 0 01489.72 191.094l3.687-1.25 6.563-2.344 6.687 2.563 3.5 1.25c62.75 22.437 119.063 58.437 167.719 107.25C717.313 338.188 751.688 386.313 780 441.5a708.5 708.5 0 0149.031 123.438c6.813 23.28 12.344 47.593 13.157 54.375l1.562 8.75zm-237.563-22.625l-.437-.438c-37.281 7.844-50.719 26.875-50.719 26.875 35.188.25 66.938-8.031 90.157-22 0 0-12.563 4.031-25.344 5.719-6.406-6.563-11.938-9.313-13.657-10.157z"/><glyph glyph-name="APEX" unicode="" horiz-adv-x="1000" d="M500 0C223.844 0 0 223.844 0 500s223.844 500 500 500 500-223.844 500-500S776.156 0 500 0zM187.5 398.438V265.625L500 664.063l312.5-398.438v132.813L500 796.875 187.5 398.437zm328.125-39.063a78.125 78.125 0 110 156.25 78.125 78.125 0 010-156.25z"/><glyph glyph-name="APPC" unicode="" horiz-adv-x="1000" d="M500 0C223.844 0 0 223.844 0 500s223.844 500 500 500 500-223.844 500-500S776.156 0 500 0zm242.875 316.156l-61.656 165.907h36.812a26.531 26.531 0 0126.563 26.125c0 6.562-2.688 12.906-7.406 17.53S726 533 719.28 533h-57.5l-9.218 25.813h65.468a26.219 26.219 0 0126.438 25.218c.031 6.938-2.75 13.563-7.75 18.438s-11.75 7.625-18.813 7.594h-85l-46.031 124a111.75 111.75 0 01-33.031 45.656 78.094 78.094 0 01-51.969 17.125 80.312 80.312 0 01-52.219-17.125 112.781 112.781 0 01-33.125-45.625l-48.218-125.125h-84.5a25.313 25.313 0 01-25.532-24.907c0-14.312 11.844-25.906 26.469-25.906h64.156l-9.875-25.125h-57.5a25.281 25.281 0 01-25.562-25c0-14.187 11.687-25.656 26.125-25.719H319l-62.688-166.125A85.062 85.062 0 01250 286.781c.625-14.156 6.938-27.5 17.5-37.187a63.75 63.75 0 0141.875-15.094 56.25 56.25 0 0157.5 40.781l24.25 70.906h223.25l24.281-72.593a56.656 56.656 0 0157.5-38.75 54.218 54.218 0 0127.625 6.875c7.282 5.312 13.75 11.562 19.188 18.687A50 50 0 01750 286.781a170.187 170.187 0 01-7.125 28.969zm-316 140.531l74.531 222.25 75.938-222.25z"/><glyph glyph-name="ARCH-alt" unicode="" horiz-adv-x="1000" d="M518.302 933.534L0 66.466h518.302l-19.455 39.832H72.723l255.679 442.805L592.406 66.466h408.524z"/><glyph glyph-name="ARCH" unicode="" horiz-adv-x="1000" d="M499.985 1000C223.845 1000 0 776.155 0 500.015S223.85.031 499.985.031s499.984 223.85 499.984 499.984S776.12 1000 499.985 1000zm49.634-700.34L407.087 560.233 269.044 321.17h230.067l10.504-21.51H229.781l279.83 468.13 260.573-468.13H549.619z"/><glyph glyph-name="ARDR-alt" unicode="" horiz-adv-x="999.998" d="M500 998.686C224.582 998.686 1.314 775.418 1.314 500 1.314 224.578 224.582 1.31 500 1.31S998.685 224.578 998.685 500c0 275.418-223.267 498.686-498.685 498.686zM207.736 310.288l289.944 506.5 74.807-128.866-220.165-377.634H207.736zm154.875 0l118.573 203.747 74.017-91.622-192.59-112.125zm296.11.114L484.815 522.5l138.843 75.667 168.603-287.765H658.72z"/><glyph glyph-name="ARDR" unicode="" horiz-adv-x="1000" d="M500 0C223.844 0 0 223.844 0 500s223.844 500 500 500 500-223.844 500-500S776.156 0 500 0zm-3.656 462.813L390.625 281.25l161 109.313-55.281 72.25zM500 812.5L187.5 281.25h170.469l227.25 391.438L500 812.5zm0-307.563L670.469 281.25H812.5L613.625 588.813 500 504.938z"/><glyph glyph-name="ARG" unicode="" horiz-adv-x="1000" d="M500 0C223.844 0 0 223.844 0 500s223.844 500 500 500 500-223.844 500-500S776.156 0 500 0zM336.094 836.063l.312.343A373.344 373.344 0 01144.625 392.72 344.469 344.469 0 01222.594 255c25.219 55.406 44.812 113.125 68.031 168.906L360 599.781c10.938 26.875 19.563 55.438 38.813 77.657 20.25 23.562 51.437 33.843 81.312 37.187a189.813 189.813 0 00109.188-16.938c24.218-13.28 39.812-37.812 49.093-63.375l96.25-252.218c15.938-41.813 30.188-84.281 48.782-124.781a373 373 0 01-447.344 578.75zm138.719-254.188c-48.125-120.469-94.907-241.25-142.688-361.719-5.625-13.937-13.281-27.562-14.938-42.812 16.25-11.625 35.5-18.25 54.063-25.906a374 374 0 01307.313 20.593c3.437 1.938 6.562 4.406 9.312 7.281-3.344 16.938-11.625 32.532-17.281 48.782-42.813 113.187-85.282 226.687-128.438 339.5-4.281 10.625-7.625 22.562-16.875 29.531-17.281 11.281-43.844 4.656-50.469-15.25z"/><glyph glyph-name="ARK-alt" unicode="" horiz-adv-x="1000" d="M0 500a500 500 0 011000 0A500 500 0 010 500m498.548 68.168L200 262.884 499.888 736 800 260 498.548 568.168zm43.32-121.272h-93.34l48 51.216 45.34-51.644v.428zm-179.98-84.012l-.008.656 52.92 52.544v.22l161.456.676 54.484-54.096H361.888z"/><glyph glyph-name="ARK" unicode="" horiz-adv-x="1000" d="M500 0C223.844 0 0 223.844 0 500s223.844 500 500 500 500-223.844 500-500S776.156 0 500 0zm-1.656 582.906L843.75 218.75l-343.875 562.5L156.25 222.156l342.094 360.75zm49.625-143.281v-.531l-51.938 61.031-55-60.5H547.97zm-206.25-99.281h308.094l-62.438 63.906-185-.781v-.281l-60.625-62.094v-.75z"/><glyph glyph-name="ARN" unicode="" horiz-adv-x="1000" d="M367.5 559.313a30.312 30.312 0 00-1.094-39.938L487.47 303.75a31.5 31.5 0 0026.875-.156l117.562 212.125a30.5 30.5 0 00-.781 47.875l-127.313 231.25c-1.75.75-2.25.468-2.5.031zm-12.813-47.938a31.563 31.563 0 00-15.5-1.875l-77.875-137.094a293.191 293.191 0 0126.375-44.937c23.844-5.625 84.782-20.125 182.844-43.625a30.437 30.437 0 005.656 11.125zm-16.843 58.844a31.875 31.875 0 0018.312-2.282L486.22 796.875c-97.5-1.563-179.094-19.844-244.844-54.813zm-13.125-5.5l-95.5 170.187a27.781 27.781 0 01-10.375-23.375l14.437-230.687a295.75 295.75 0 0120.969-92.281L325.813 514.5a30.531 30.531 0 00-1.032 50.219zm206.25-281.188L715 331.25a303.914 303.914 0 0122.625 38.906l-77.313 140.438a31.656 31.656 0 00-15.5-.75L525.5 294.625c2.5-3.25 4.406-7 5.469-11.094zm-23.157-37.5V172.25a28.563 28.563 0 017.625 3.438l113.22 72.28a301.906 301.906 0 0173 65.376l-170.5-44.219A31.031 31.031 0 00507.811 246zm-14.187 0a31 31 0 00-23.438 23.531 79069.375 79069.375 0 01-169.03 40.313 302 302 0 0170.187-61.906l113.219-72.313c2.812-1.812 5.906-3.062 9.062-3.781zM661.438 568.97l96.25 173.593c-64.438 34.063-144.032 52.125-238.782 54.22l124.907-226.938a31.75 31.75 0 0017.625-.875zm11.968-7.532a30.406 30.406 0 00-.843-43.812l72.28-131.344a295.781 295.781 0 0121.876 94.531l14.468 230.72a27.813 27.813 0 01-11.25 24.03zM500 0C223.844 0 0 223.844 0 500s223.844 500 500 500 500-223.844 500-500S776.156 0 500 0zm0 648.906a17.188 17.188 0 0016.906-16.656v-61.063l90.188-55.562-11.032-22.219-79.156 27.813v-61.094l22.563-16.656v-16.656L500 437.906l-39.469-11.094v16.657l22.563 16.656v61.063l-80.531-26.375-9.688 20.843 90.219 55.532v61.062A17.188 17.188 0 00500 648.906z"/><glyph glyph-name="ARY" unicode="" horiz-adv-x="1000" d="M500 0C223.844 0 0 223.844 0 500s223.844 500 500 500 500-223.844 500-500S776.156 0 500 0zm247.406 340.313L510.25 254.906a25.188 25.188 0 00-18.594 0L253.75 340.312a28.5 28.5 0 00-18.594 26.875v-34.375a28.125 28.125 0 0118.594-26.875l237.125-85.406c6.219-2.375 12.812-2.375 18.625 0l237.125 85.375a28.5 28.5 0 0118.594 26.875v34.375a26.5 26.5 0 00-17.813-26.875zm0 60.875L510.25 315.78a25.188 25.188 0 00-18.594 0L253.75 401.187a29.031 29.031 0 00-18.594 27.25v-34.78a28.125 28.125 0 0118.594-26.876l237.125-85.375c6.219-2.375 12.812-2.375 18.625 0l237.125 85.375a28.5 28.5 0 0118.594 26.875v34.375a27.125 27.125 0 00-17.813-26.875zm0 61.25L510.25 377.063a25.188 25.188 0 00-18.594 0L253.75 462.438a28.5 28.5 0 00-18.594 26.874v-34.375a28.125 28.125 0 0118.594-26.875l237.5-85.78c6.25-2.376 12.812-2.376 18.625 0L747 427.655a28.5 28.5 0 0118.625 26.875v34.375a27.5 27.5 0 00-18.219-26.469zM234.375 666.813v-151a28.125 28.125 0 0118.594-26.875l237.156-85.375a25.156 25.156 0 0118.594 0l237.906 85.375a28.5 28.5 0 0118.594 26.875v151a28.125 28.125 0 01-18.594 26.875l-237.5 85.78a25.188 25.188 0 01-18.625 0L253 693.689a28.125 28.125 0 01-18.625-26.875z"/><glyph glyph-name="AST" unicode="" horiz-adv-x="1000" d="M500 0C223.844 0 0 223.844 0 500s223.844 500 500 500 500-223.844 500-500S776.156 0 500 0zm.313 812.5L221.719 530.344 187.5 495.625 199.531 485a550.75 550.75 0 0138.531-30.969 445.938 445.938 0 01126.032-62.875c44.062-14.062 90-20.969 136.218-20.969a453.125 453.125 0 01108.47 13.125 446.094 446.094 0 01143.624 63.813c10.781 7.188 21.563 15.313 31.75 23.469 5.844 4.687 11.406 9.375 16.625 14.375l11.719 10.625zm273.062-327.188a350.808 350.808 0 00-30.531-22.53 432.063 432.063 0 00-138.063-61.313 436.313 436.313 0 00-104.468-12.813 429.594 429.594 0 00-252.094 80.688c-9.875 6.875-19.406 14.687-28.969 22.5l-5.844 5.031L500 787.188l286.625-290.313c-4.031-4.062-8.625-7.812-13.25-11.563zm-469.687 15l-13.875-5.937h16.968c92.563 0 183.313-25.969 262.25-75.063l.938-.625 1.25.313c51.562 9.375 100.843 28.813 145.125 57.219l4.343 2.812-4.343 2.5a435.406 435.406 0 01-220.938 60.063c-66.031-.313-131.25-14.375-191.718-41.25zm269.968-62.562a505.625 505.625 0 01-196 69.75 437.563 437.563 0 00117.406 15.938c65.938 0 130.688-15.313 189.532-45.344a366.719 366.719 0 00-110.938-40.344zm103.25-61.625s-45.625-28.75-62.875-37.219a429.906 429.906 0 00-187.062-56l-19.719-1.25 93.063-94.156L632.5 321.375a746.25 746.25 0 0144.375 54.75zm-229.594-109.5A444.969 444.969 0 01594 307.938l-93.687-95.125z"/><glyph glyph-name="ATL" unicode="" horiz-adv-x="1000" d="M370 894.24c0-3.16 18.6-37.59 41.33-76.51l41.33-70.77-28.83-53.44c-15.86-29.39-36.01-63-44.78-74.68-15.87-21.14-16.04-21.08-38.31 14.96-19.55 31.63-27.31 36.2-61.56 36.2-21.55 0-39.18-2.59-39.18-5.76 0-3.16 18.6-37.59 41.33-76.51l41.33-70.77-28.83-53.44c-15.86-29.39-36.01-63-44.78-74.68-15.87-21.14-16.04-21.08-38.31 14.96-20.35 32.92-26.45 36.2-67.37 36.2h-45l19.5-32.5c10.72-17.88 31.52-53.46 46.22-79.08l26.73-46.58-44.81-73.42-44.8-73.42 81.06-2.93c44.58-1.61 86.52-.84 93.2 1.73 6.68 2.56 30.39 37.54 52.68 77.74l40.53 73.08-21.4 38.08c-21.12 37.57-21.15 38.55-2.77 72.69 10.25 19.04 21.31 34.56 24.56 34.5 3.26-.06 24.66-32.69 47.56-72.5L458.27 285l-25.99-45c-14.29-24.75-34.59-59.62-45.12-77.5L368.02 130h180.19l44.5 77.05 44.51 77.04-18.57 30.46c-26.08 42.76-23.94 47 21.95 43.52 34.8-2.63 43.56-8.25 61.23-39.27l20.61-36.19-41.22-69.39c-22.67-38.16-41.22-72.5-41.22-76.3 0-12.95 166.94-7.7 177.34 5.58 5.39 6.87 25.97 41.8 45.75 77.6l35.95 65.1-44.86 77.4c-44.04 75.98-45.59 77.4-84.52 77.4-21.81 0-39.66 2.1-39.66 4.66s7.34 20.06 16.32 38.88c16.23 34.05 16.1 34.61-25.7 110.34L678.6 670h-89.88l21.17 37.67 21.17 37.67-43.03 77.11L545 899.57l-87.5.21c-48.12.12-87.5-2.37-87.5-5.54m102.99-269.23c-15.99-33.54-15.8-36.57 4.68-73 21.26-37.83 21.27-38.14 1.91-67.51-27.05-41.03-25.26-44.51 22.92-44.42 38.6.07 44.46 3.51 63.82 37.5L587.64 515l-41.32 72.39c-22.72 39.81-44.77 72.44-48.98 72.5-4.22.06-15.17-15.64-24.35-34.88"/><glyph glyph-name="ATM" unicode="" horiz-adv-x="1000" d="M630.219 415.563A136.531 136.531 0 01679.78 596.28L579.063 785.72a136.531 136.531 0 01-184.657 56.437l-3.875-2.062a136.531 136.531 0 01-56.437-184.625l29.875-56.188a134.963 134.963 0 006.875 3.938l3.875 2.062a136.531 136.531 0 00184.656-56.437zM500 0C223.844 0 0 223.844 0 500s223.844 500 500 500 500-223.844 500-500S776.156 0 500 0zm130.219 415.563a138.688 138.688 0 00-6.875-3.938l-3.875-2.031a136.531 136.531 0 00-184.656 56.437l-70.844 133.25a136.531 136.531 0 01-49.563-180.687l100.688-189.375a136.531 136.531 0 01184.625-56.438l3.875 2.063a136.531 136.531 0 0156.469 184.625z"/><glyph glyph-name="AUR-alt" unicode="" horiz-adv-x="999.998" d="M499.92 1000C223.818 1000 0 776.367 0 500.47 0 224.6 223.819.958 499.918.958c276.093 0 499.917 223.64 499.917 499.512C999.837 776.367 776.013 1000 499.92 1000zm127.533-398.194l34.525-66.167L430.7 414.988V222.01h-74.622v540.992H430.7v-84.56l196.754 102.636 34.525-66.157-231.277-120.658v-95.096l196.75 102.639z"/><glyph glyph-name="AUR" unicode="" horiz-adv-x="999.998" d="M711.374 677.85l-351.17-183.184v169.727l412.775 215.338-61.605 118.087-351.17-183.186v150.937H227.02V0h133.183v344.421L772.979 559.77z"/><glyph glyph-name="AUTO" unicode="" horiz-adv-x="1000" d="M500 0C223.844 0 0 223.844 0 500s223.844 500 500 500 500-223.844 500-500S776.156 0 500 0zm265.625 397.906v256.25L500 812.5 234.375 654.156V343.063L500 187.5l219.219 128.375-235.563 139.688 42.656 23.593v246.875l179.375-106.937V505.562l-55.843 32.97-15-62.157 130.781-78.469zM294.312 619.062L466.75 721.875v-205.25l-172.438-100v202.438zm128.032-198.25l176.875-104.78L500 257.968 324.281 360.875l98.063 59.969z"/><glyph glyph-name="BANX-alt" unicode="" horiz-adv-x="1000" d="M818.518 363.758l52.157 85 47.857-85h80.736L909.25 497.714l82.517 121.083h-75.74l-45.352-79.293-42.866 79.293h-78.227l83.232-121.083-90.733-133.956zm-429.413 255.04h-67.516l-95.362-255.04h68.22l16.078 45.72h88.942l15.716-45.72h69.306l-95.384 255.04zM325.88 458.776l28.936 89.294h.723l28.204-89.294H325.88zm-147.26 44.647c19.998 10.005 33.57 28.57 33.57 51.434 0 53.224-48.214 64.654-92.151 63.94H.732v-255.04h122.517c54.661 0 99.3 18.578 99.3 79.298 0 28.932-16.783 52.506-43.929 60.368zM67.172 567.36h51.438c13.939 0 27.154-6.068 27.154-24.65 0-18.207-15.72-24.288-27.154-24.288H67.172v48.938zm53.22-150.381h-53.22v58.573h53.22c20.01 0 35.726-7.488 35.726-29.994 0-21.078-14.649-28.58-35.727-28.58zm539.441 44.652l-88.589 157.167h-68.23v-255.04h62.52v158.954h.705l88.59-158.954h68.216v255.04H660.54V461.63zM125.458 329.632a3.819 3.819 0 01-3.819-3.814v-91.79a3.822 3.822 0 013.819-3.815h55.438a3.823 3.823 0 013.818 3.814v91.79a3.819 3.819 0 01-3.818 3.815h-55.438zM180.9 648.964a3.823 3.823 0 013.819 3.81v91.79a3.819 3.819 0 01-3.819 3.819h-55.442a3.814 3.814 0 01-3.819-3.819v-91.786a3.821 3.821 0 013.819-3.81H180.9zm-120.907 0a3.823 3.823 0 013.819 3.81v91.79a3.814 3.814 0 01-3.82 3.819H4.552a3.81 3.81 0 01-3.819-3.819v-91.786a3.816 3.816 0 013.819-3.81h55.442zM4.55 329.632a3.814 3.814 0 01-3.819-3.814v-91.79a3.817 3.817 0 013.819-3.815h55.437a3.823 3.823 0 013.82 3.814v91.79a3.814 3.814 0 01-3.82 3.815H4.551z"/><glyph glyph-name="BANX" unicode="" horiz-adv-x="1000" d="M232.788 484.3h-41.16v-45.305h41.16c16.298 0 27.626 5.794 27.626 22.106-.004 17.404-12.157 23.199-27.626 23.199zm181.302 56.08l-22.38-69.059h44.754l-21.819 69.06zm-161.683-4.145c0 14.371-10.226 19.067-21 19.067H191.63v-37.848h39.779c8.841 0 20.999 4.697 20.999 18.781zm247.772 463.39C224.145 999.625.37 775.85.37 499.812S224.145 0 500.18 0C776.229 0 1000 223.77 1000 499.813S776.23 999.625 500.179 999.625zM233.754 692.353a2.947 2.947 0 002.95 2.95h42.879a2.95 2.95 0 002.95-2.95v-70.99a2.954 2.954 0 00-2.95-2.95h-42.88a2.95 2.95 0 00-2.95 2.95v70.99zm-93.52 0a2.948 2.948 0 002.955 2.95h42.875a2.948 2.948 0 002.954-2.95v-70.99a2.954 2.954 0 00-2.954-2.95h-42.875a2.954 2.954 0 00-2.954 2.95v70.99zm48.79-394.853a2.954 2.954 0 00-2.955-2.954h-42.874a2.954 2.954 0 00-2.955 2.954v70.99a2.954 2.954 0 002.955 2.955h42.874a2.954 2.954 0 002.955-2.954V297.5zm93.51 0a2.957 2.957 0 00-2.95-2.954h-42.88a2.954 2.954 0 00-2.95 2.954v70.99a2.954 2.954 0 002.95 2.955h42.88a2.954 2.954 0 002.95-2.954V297.5zm-47.536 100.332h-94.762v197.256h92.27c33.986.551 71.278-8.286 71.278-49.454 0-17.678-10.495-32.045-25.964-39.78 20.999-6.08 33.976-24.318 33.976-46.693 0-46.967-34.527-61.329-76.798-61.329zm225.782 0l-12.158 35.365h-68.79l-12.43-35.365h-52.766l73.76 197.256h52.214l73.769-197.256h-53.6zm238.101 0h-52.756l-68.517 122.94h-.547v-122.94h-48.356v197.256h52.775l68.51-121.558h.551v121.556h48.338V397.83zm151.193 0l-37.006 65.752-40.339-65.752h-59.12l70.18 103.604-64.385 93.652h60.509l33.16-61.33 35.074 61.33h58.569l-63.812-93.652 69.619-103.604h-62.449z"/><glyph glyph-name="BAT-alt" unicode="" horiz-adv-x="1000" d="M500 1000C223.986 1000 0 776.014 0 500S223.986 0 500 0s500 223.986 500 500-223.986 500-500 500zm-19.4-159.312V622.394L366.155 422.632 176.662 313.488l303.938 527.2zM194.903 281.305l189.052 110.23h232.086l189.043-110.23H194.903zm437.174 141.327L515.873 622.385v218.298l304.82-527.2-188.616 109.15z"/><glyph glyph-name="BAT" unicode="" horiz-adv-x="1000" d="M500 0C223.844 0 0 223.844 0 500s223.844 500 500 500 500-223.844 500-500S776.156 0 500 0zM187.5 265.625l625 .719-310.906 530.531L187.5 265.625zm313.344 316.25l128.969-212.063H372.5l128.375 212.063z"/><glyph glyph-name="BAY-alt" unicode="" horiz-adv-x="1000" d="M642.076 497.114l12.995 16.889c3.942 5.331 25.496 43.783 25.496 84.62 0 15.893-9.445 44.163-30.162 68.685-12.536 14.833-39.29 39.721-77.688 39.721H423.094v-49.687h140.588c28.72 0 54.811-19.724 63.472-47.96a68.94 68.94 0 00-16.638-69.168c-5.768-5.773-28.565-25.73-46.83-41.6 19.332-18.354 45.472-43.215 51.914-49.653 21.272-21.272 17.193-59.226 5.05-76-9.834-13.577-27.314-31.626-65.492-31.626H365.69v236.956h54.203V395.547h135.26c13.798 0 17.476 3.647 20.792 8.114.63 2.16.736 6.019.238 8.043-10.094 9.94-50.671 48.426-71.498 68.142l-21.797 20.624 22.728 19.592c22.625 19.503 60.725 52.628 66.576 58.484.238.243 5.87 6.01 3.13 14.958-1.944 6.332-7.328 9.635-11.64 9.635H319.199V292.023h233.19c56.077 0 95.93 21.836 118.468 64.892 31.287 59.759-14.865 123.015-15.354 123.628l-13.427 16.57zM500.466 1000C224.065 1000 0 775.934 0 499.535S224.066-.93 500.47-.93c276.394 0 500.465 224.066 500.465 500.465S776.865 1000 500.465 1000zm218.42-668.216c-19.525-37.292-48.553-63.988-86.3-79.351-23.812-9.692-50.799-14.61-80.198-14.61H264.992v419.523h103.89v103.895h203.84c44.69 0 86.983-20.937 119.099-58.943 26.493-31.37 42.958-71.1 42.958-103.67 0-41.592-14.98-78.972-26.255-100.416a211.675 211.675 0 0019.561-45.049c12.991-43.077 9.816-85.052-9.198-121.379z"/><glyph glyph-name="BAY" unicode="" horiz-adv-x="1000" d="M500 0C223.844 0 0 223.844 0 500s223.844 500 500 500 500-223.844 500-500S776.156 0 500 0zm212 500.813c1.813 2.03 3.844 4.062 5.875 6.125 6.563 7.062 13.75 14.593 20.531 21.875a152.344 152.344 0 0142.406 105.28c0 2.72.438 13.907.438 15.5-3.156 89.75-78.719 162.907-168.031 162.907h-281.25V699.031H218.75V187.5h398.969c88.656 0 163.531 78.844 163.531 172.25.219 66.781-41.063 113.938-69.25 141.063zm-94.281-256.125H275.125V642.28H332V301.188h278.75c23 0 43.531 13.906 52.313 35.312a57.25 57.25 0 01-12.188 62.219l-99.438 100.719L652.47 601.75c16.25 16.406 20.968 40.781 12.187 62.188a56.5 56.5 0 01-52.343 35.312h-223.75v56.5h224.875c59.562 0 109.625-48.531 111.656-107.531 0-2.5-.469-12.313-.469-12.532v-1.125a95.438 95.438 0 00-26.812-66.312c-7-7.313-14.22-15.031-20.75-21.875C666 534.75 656.53 524.719 652 520.156l-20.312-20.031 20.093-20.312c2.719-2.72 6.094-5.907 10.157-9.782 23.437-21.875 62.937-58.312 62.937-109.812.219-61.531-49.844-115.531-107.156-115.531zM388.344 642.063l223.969-.22-140.72-142.656 139.157-141.25H388.344z"/><glyph glyph-name="BBO" unicode="" horiz-adv-x="1000" d="M563.516 115c45.39 14.61 137.5 57.031 164.765 165.156a23.438 23.438 0 01-45.234 10.625c-22.422-87.656-97.11-120.86-133.516-131.875A23.047 23.047 0 11563.516 115zm-39.688 328.594v393.828a23.438 23.438 0 11-47.422 0V443.594a23.438 23.438 0 0147.422 0zm-246.953 0v393.828a23.438 23.438 0 11-47.344 0V443.594a23.438 23.438 0 0147.344 0zm164.922 0v459.844a23.438 23.438 0 01-47.422 0V443.594a23.438 23.438 0 0147.422 0zm-82.422 0v548.593a23.438 23.438 0 01-47.422 0V443.75a23.438 23.438 0 0147.422 0zm197.266 241.719v-48.438A305.234 305.234 0 00500.469 31.25a308.281 308.281 0 00-306.016 307.969v342.578a23.438 23.438 0 01-47.344 0v-350a353.047 353.047 0 11409.532 353.515z"/><glyph glyph-name="BC-alt" unicode="" horiz-adv-x="1000" d="M39.744 983.971s119.395-30.748 119.395-208.046V240.893c0-209.377-119.395-221.407-119.395-221.407V1.666l195.125 9.358v979.632L39.744 1000v-16.029zm745.534-222.527c2.668-142.259-54.807-197.793-54.807-197.793s141.01 45.44 138.325 207.155c-2.668 161.71-193.119 203.142-193.119 203.142s106.92-70.24 109.601-212.504zM772.261 510.86s84.382-75.118 88.452-235.02c4.088-159.91-88.452-238.763-88.452-238.763s178.07 50.12 176.063 240.567C946.317 468.09 772.26 510.859 772.26 510.859zm-56.483-34.744c-32.076 26.727-122.962 57.466-122.962 57.466s60.147 30.07 87.544 73.504c27.397 43.44 48.784 122.958 28.742 206.485-20.046 83.532-93.555 167.063-179.088 179.088-85.538 12.034-121.842-2.002-225.649-3.343v-977.4S461.85.335 546.718 1c84.863.666 215.167 58.807 239.221 217.178 24.055 158.367-38.094 231.205-70.16 257.936zM393.02 907.79c15.368 14.698 94.891 40.763 170.401-11.363s95.107-204.703 32.742-285.783-217.84-59.697-217.84-59.697-.674 342.142 14.697 356.843zm310.945-694.073C667.885 74.276 558.297 70.254 500.822 72.49c-57.466 2.235-112.718 1.345-118.95 163.054-6.225 161.714-3.562 248.143-3.562 248.143s171.067 6.685 229.432-18.715c58.362-25.395 132.315-111.814 96.223-251.255z"/><glyph glyph-name="BC" unicode="" horiz-adv-x="1000" d="M562.636 557.186c32.164 41.817 22.057 120.51-16.884 147.396-38.946 26.885-79.96 13.436-87.888 5.86-7.929-7.584-7.58-184.04-7.58-184.04s80.184-11.032 112.352 30.784zm5.967-75.135c-30.1 13.096-118.324 9.648-118.324 9.648s-1.371-44.573 1.835-127.98c3.223-83.4 31.714-82.941 61.35-84.096 29.651-1.151 86.17.921 104.778 72.842 18.608 71.917-19.53 116.493-49.64 129.586zM500.27 999.462C224.278 999.462.538 775.722.538 499.729S224.278 0 500.271 0 1000 223.735 1000 499.729 776.265 999.462 500.271 999.462zm202.984-359.675c1.376-83.403-71.348-106.84-71.348-106.84s29.642 28.644 28.261 102.012c-1.38 73.376-56.518 109.6-56.518 109.6s98.229-21.368 99.605-104.772zm-326.956-391.86l-100.64-4.83v9.19s61.58 6.21 61.58 114.192v275.954c0 91.442-61.58 107.304-61.58 107.304V758l100.64-4.82V247.926zm160.832-5.169c-43.77-.348-125 5.627-125 5.627v504.099c53.542.692 72.266 7.928 116.38 1.728 44.118-6.195 82.032-49.286 92.368-92.368 10.34-43.078-.684-84.096-14.825-106.492-14.124-22.406-45.146-37.919-45.146-37.919s46.874-15.852 63.423-29.632c16.54-13.79 48.594-51.355 36.186-133.038-12.409-81.68-79.616-111.665-123.386-112.005zm116.326 18.604s47.725 40.675 45.626 123.14c-2.108 82.472-45.626 121.22-45.626 121.22s89.77-22.062 90.803-120.286c1.036-98.224-90.803-124.074-90.803-124.074z"/><glyph glyph-name="BCBC" unicode="" horiz-adv-x="1000" d="M500 0c276.156 0 500 223.844 500 500s-223.844 500-500 500S0 776.156 0 500 223.844 0 500 0zM390.094 756.469A273.594 273.594 0 11726.03 368.125L486.594 500.469 583.75 756.25a273.594 273.594 0 01-193.625.219zm17.062-49.157a221.531 221.531 0 00156.813-.187l-78.656-207.094 193.875-107.187a221.531 221.531 0 10-272.032 314.469zm91.75 137.063a344.614 344.614 0 00108.75-22.188L485.313 500.031l301.593-166.719a344.625 344.625 0 10-288 511.063zM734.187 725.25c8.25 0 15.938-.969 23-2.969 20.813-5.718 34.875-18.656 42.188-38.781 4.469-12.219 5.438-24.219 2.938-36-2.25-11.688-7.657-22.188-16.22-31.563 16.063.72 30.095-2.875 42.188-10.687 11.969-7.563 20.813-19.156 26.469-34.719 8.031-22.062 5.625-42.218-7.281-60.468-12.75-17.938-35.531-32.907-68.375-44.844l-130.125-47.375L557.375 669.5l122.938 44.75c20.125 7.313 38.093 11 53.875 11zm-19.062-52.063c-7.5 0-16.156-1.812-26.031-5.406l-57.875-21.062 21.562-59.344 57.907 21.094c14.375 5.218 24.375 11.687 29.937 19.437 5.625 7.75 6.625 16.532 3.031 26.344-3.562 9.813-9.937 15.781-19.125 17.875a38.156 38.156 0 01-9.406 1.063zm48.813-97.562c-7.875-.094-17.125-2.063-27.75-5.938L668.25 544.97l22.625-62.188 67.938 24.719c15.312 5.594 25.937 12.281 31.75 20.125 6.093 7.906 7.187 17.125 3.375 27.688-5 13.656-15 20.437-30 20.312z"/><glyph glyph-name="BCC" unicode="" horiz-adv-x="1000" d="M500 0C223.844 0 0 223.844 0 500s223.844 500 500 500 500-223.844 500-500S776.156 0 500 0zM229.719 396.25c.219-80.688 49.687-154.094 125.187-180.875 75.938-27 144.75-12.688 204.063 42.625 5.843 5.469 9 5.375 14.093-.125 8.72-9.375 17.813-18.469 27.094-27.313 5.063-4.78 6.813-9.093 5.157-16.656-5.688-26.344 7.562-52 31.562-64 21.969-10.969 50.25-5.625 67.563 12.75a58.312 58.312 0 018.156 69.156 57.875 57.875 0 01-64.188 26.938c-6.5-1.625-10.593-.438-14.968 4.094a1085.938 1085.938 0 01-33.594 33.593c-4.781 4.563-5.438 8.125-2.469 14.375 39.25 82.438 20.5 172.938-48.375 233-6.344 5.5-5.625 8.438-.531 14a24603.656 24603.656 0 01125.75 137.938c5 5.563 9.531 7.437 17.312 5.813 38.375-7.97 76.188 21.312 78.625 60.187 1.813 29.062-12.812 53.812-39.437 66.719-22.625 10.937-53.938 5.937-72.875-11.719-20.75-19.375-27.188-48.656-16.188-75.75 2.125-5.25 3.469-8.75-1.187-13.781A39050.281 39050.281 0 01505.53 579.312c-3.219-3.562-5.812-4.812-10.625-2.75a151.906 151.906 0 01-40.187 11.063c-7.281.937-8.188 4.219-8.125 10.344.312 21.156.562 42.281-.094 63.437-.25 8.438 2.094 13.25 9.594 18 21.187 13.438 30.312 39.438 23.75 63.344-6.5 23.75-28.5 41.656-52.594 42.812-26.875 1.25-50.219-14.687-59-40.343-8.344-24.282.969-51.25 23.75-66.125 6.531-4.25 8.938-8.75 8.781-16.375a1301.031 1301.031 0 010-63.438c.219-7.906-2.094-10.625-10.218-12.125-94.813-17.781-161.094-96.781-160.844-190.937z"/><glyph glyph-name="BCD" unicode="" horiz-adv-x="1000" d="M705.781 697.063l2.094-.97 91.563-122.062-.625-.687-1.844 3.75-141.282-71.375-42.937 142.187 95.438 43.813zm-5.156 2.406l-92.969-42.688H393.594l-96.313 40.5 92.563 42.5h224.062zm-411.062-10l97.5-41.032-43.125-142.718-141.032 71.219zm107.5-42.907h205.5l44.562-147.5-147.313-260.375-147.28 260.375zm391-85.406l-263.25-298.875 131.406 232.281zm-313.97-297.625l-261.812 297.25 131.125-66.25zM200.97 573.656l-.313.313L202 575.75zM500 0C223.844 0 0 223.844 0 500s223.844 500 500 500 500-223.844 500-500S776.156 0 500 0zM288.187 704.313L187.5 573.563 500 218.75 812.5 573.5l-98.094 130.813L616.156 750h-228.5zM575.72 536.438c-2.469 25.937-24.563 34.625-52.5 37.125v35.968h-21.625V574.5c-5.688 0-11.5-.125-17.281-.25v35.281H462.72v-35.968c-4.688-.094-9.281-.188-13.75-.188l-.031.094h-29.844v-23.375s16 .312 15.719 0c8.75 0 11.625-5.125 12.437-9.594v-40.969c.625 0 1.406-.031 2.313-.156h-2.313v-57.438c-.375-2.812-2-7.25-8.125-7.25.313-.25-15.719 0-15.719 0l-4.281-26.156h28.125c5.25 0 10.406-.094 15.469-.125v-36.375h21.594v36a820.854 820.854 0 0117.28-.187V372h21.626v36.344c36.375 2.125 61.812 11.375 65 45.937 2.5 27.875-10.406 40.313-31.063 45.313 12.563 6.468 20.407 17.875 18.563 36.844zm-30.25-77.813c0-27.188-45.969-24.094-60.625-24.125v48.219c14.656 0 60.625 4.281 60.625-24.094zm-10.063 68.031c0-24.75-38.375-21.875-50.562-21.875v43.75c12.187 0 50.562 3.938 50.562-21.875z"/><glyph glyph-name="BCH-alt" unicode="" horiz-adv-x="1000" d="M891.088 189.427h-176.15c96.917 67.934 160.278 180.41 160.278 307.666 0 127.25-63.361 239.726-160.278 307.665h180.696C804.216 923.485 660.648 1000 499.216 1000c-161.445 0-305.005-76.511-396.423-195.242h180.7c-96.925-67.943-160.277-180.419-160.277-307.665 0-127.256 63.352-239.732 160.277-307.666H107.34C198.93 74.017 340.432 0 499.216 0c158.78 0 300.282 74.018 391.872 189.427zM200.802 422.264C158.687 586.89 258.159 754.45 422.969 796.511c164.81 42.07 332.546-57.29 374.657-221.92 42.11-164.626-57.357-332.186-222.168-374.252-164.806-42.061-332.55 57.3-374.656 221.925zm460.361 64.392c-5.714 24.547-19.282 38.846-34.26 45.097s-33.85 5.463-33.85 5.463 12.907 12.634 16.854 22.982c3.956 10.344 3.582 24.714 2.291 31.895s-7.639 37.057-35.061 48.189c-21.203 8.612-42.978 8.621-70.873 3.313l-15.26 59.67-36.832-9.402 15.08-58.96-28.05-7.163-15.083 58.965-36.828-9.397 15.088-58.964-72.454-18.494 9.771-38.194 21.29 5.432c5.816 1.485 16.3 3.471 21.944-.313 5.638-3.78 7.079-6.158 9.515-15.696l38.938-152.22c.925-3.617 1.38-8.26-.969-11.978-2.352-3.71-5.269-5.185-12.674-7.075l-22.026-5.617 3.735-46.123 72.45 18.493 15.04-58.797 36.823 9.401-15.04 58.793 28.049 7.159 15.04-58.793 36.832 9.4-15.282 59.763c9.37 2.986 18.062 5.964 23.066 7.973l.793.313c10.516 4.185 32.86 13.08 50.652 33.692 18.243 21.14 17.031 46.652 11.291 71.193zM470.009 515.15l-18.163 70.991s11.44 4.018 23.017 6.793c11.578 2.77 21.811 5.022 38.146 4.242 16.33-.784 28.172-9.837 31.956-23.163 3.766-13.321.207-23.753-8.674-32.057-8.872-8.313-22.353-15.044-35.652-18.991-13.291-3.943-30.63-7.815-30.63-7.815zm109.25-83.824c-7.246-6.797-23.056-15.23-39.087-20.604-16.049-5.383-40.613-11.096-40.613-11.096l-20.185 78.903s23.097 7.176 41.648 10.63c18.55 3.445 35.053 2.722 42.815 1.035 7.762-1.683 21.744-6.168 26.361-24.22 4.617-18.04-3.691-27.855-10.938-34.648z"/><glyph glyph-name="BCH" unicode="" horiz-adv-x="1000" d="M500.731 808.37c-25.405.044-51.229-3.084-76.982-9.652v.013c-164.802-42.075-264.273-209.634-222.163-374.26C243.7 259.846 411.44 160.485 576.25 202.555c164.81 42.062 264.273 209.621 222.168 374.247C762.88 715.7 637.916 808.14 500.73 808.37zM0 806.96V191.63h284.278C187.36 259.564 124 372.04 124 499.295c0 127.251 63.357 239.727 160.278 307.665H0zm715.722 0C812.64 739.022 876 626.546 876 499.295c0-127.255-63.357-239.731-160.278-307.665H1000v615.33H715.722zM491.793 705.476l15.264-59.67c27.886 5.309 49.661 5.295 70.868-3.321 27.419-11.128 33.771-41.005 35.066-48.185 1.282-7.181 1.661-21.56-2.295-31.895-3.947-10.352-16.846-22.99-16.846-22.99s18.85.788 33.846-5.463c14.965-6.256 28.542-20.547 34.264-45.093 5.74-24.533 6.934-50.048-11.295-71.185-17.793-20.612-40.145-29.511-50.652-33.696l-.788-.308c-5.005-2.005-13.692-4.992-23.07-7.974l15.281-59.758-36.824-9.405-15.044 58.793-28.048-7.159 15.04-58.793-36.824-9.405-15.04 58.802-72.454-18.49-3.727 46.12 22.027 5.617c7.4 1.898 10.317 3.365 12.665 7.07 2.348 3.718 1.894 8.366.97 11.987l-38.93 152.216c-2.44 9.537-3.877 11.916-9.516 15.696-5.647 3.784-16.136 1.802-21.951.304l-21.287-5.423-9.775 38.202 72.458 18.49-15.097 58.955 36.828 9.397 15.08-58.965 28.048 7.159-15.083 58.964 36.841 9.406zm16.15-105.934c-13.062.053-22.159-1.97-32.291-4.397-11.573-2.775-23.018-6.797-23.018-6.797l18.155-70.996s17.348 3.881 30.638 7.824c13.295 3.947 26.793 10.67 35.657 18.978 8.876 8.313 12.44 18.75 8.674 32.07-3.789 13.322-15.626 22.38-31.956 23.164a137.057 137.057 0 01-5.86.154zm39.321-105.736a145.066 145.066 0 01-25.449-2.445c-18.56-3.454-41.656-10.625-41.656-10.625l20.185-78.899s24.577 5.71 40.612 11.093c16.04 5.374 31.846 13.801 39.097 20.599 7.238 6.793 15.546 16.612 10.93 34.656-4.617 18.053-18.595 22.537-26.357 24.22-3.882.842-9.948 1.445-17.362 1.401z"/><glyph glyph-name="BCN-alt" unicode="" horiz-adv-x="1000" d="M838.705 571.808s93.193 57.29 93.193 158.517c0 101.223-98.008 230.27-252.261 230.27H246.379V677.86H0V557.354h246.379V397.487H0V276.986h246.379V39.4h401.125c189.596 0 351.874 103.419 351.874 291.418-.004 187.956-160.673 240.99-160.673 240.99zM610.551 833.7c80.344 0 162.283-38.54 162.283-126.124 0-87.566-86.76-131.742-167.107-131.742H411.32V833.7h199.231zm27.142-642.68H411.32v279.561h224.944c149.42 0 211.26-61.836 211.26-152.63 0-90.78-108.6-126.93-209.831-126.93z"/><glyph glyph-name="BCN" unicode="" horiz-adv-x="1000" d="M499.969.094C223.844.094 0 223.938 0 500.03 0 776.156 223.844 1000 499.969 1000c276.094 0 499.937-223.844 499.937-499.969C999.906 223.937 776.063.094 499.97.094zm232.437 476.344c-19.687 21.75-48 35.25-85 40.5v.78c32.407 5.25 57.875 18.532 75.188 39.782a116.156 116.156 0 0126.937 75.125c0 45.656-14.687 76.688-45.125 101.094-30.437 24.375-76.125 32.406-138.031 32.406H332.594V548.531h-134.25v-83.343h366.469c28.843 0 50.5-2.032 64.812-13.563 14.313-11.531 21.625-26.438 21.625-48.469s-7.219-40.843-21.625-52.656c-14.375-11.781-36.062-19.562-64.812-19.562h-125.75v64.812h-106.47V247.594h241.47c61.406 0 108.343 16.031 140.906 40.937 32.531 24.906 47.812 61.688 47.812 106.844a119.063 119.063 0 01-30.375 81.063zM551.375 548.75H439.062V683h112.313c57.75 0 86.563-22.531 86.563-67.125s-28.813-67.125-86.563-67.125z"/><glyph glyph-name="BCO" unicode="" horiz-adv-x="1000" d="M500 0C223.844 0 0 223.844 0 500s223.844 500 500 500 500-223.844 500-500S776.156 0 500 0zm-58.688 349.188a63.062 63.062 0 01-8.062-30.938c0-34.844 28.219-63.219 63.563-64.531v-11.563a27.656 27.656 0 01-25.5-27.281c0-15.125 12.562-27.375 28.062-27.375a27.719 27.719 0 0128.063 27.375 27.594 27.594 0 01-22.97 26.969v12.031c34.126 2.531 61.032 30.375 61.032 64.375a62.968 62.968 0 01-8.188 31.094l47.938 26.968c11.625-16.312 31-27 52.906-27 22.125 0 41.657 10.875 53.25 27.47l16.032-9.063a26.75 26.75 0 01-2.313-10.906c0-15.126 12.563-27.376 28.063-27.376s28.062 12.25 28.062 27.375-12.563 27.407-28.063 27.407a28.281 28.281 0 01-21.78-10.125l-16.063 9.062a61.46 61.46 0 017.281 29.063c0 34.531-28.531 62.593-63.813 62.906v50.562c34.844.313 62.97 28 62.97 62.094 0 10-2.438 19.469-6.75 27.844l15.624 9.937a28.25 28.25 0 0122.532-11.03c15.5 0 28.062 12.28 28.062 27.405s-12.563 27.375-28.063 27.375a27.719 27.719 0 01-28.062-27.375c0-3.437.656-6.75 1.875-9.812l-15.813-10.031a63.969 63.969 0 01-53.03 27.781c-22.407 0-42.095-11.313-53.438-28.375l-47.813 26.906a61.699 61.699 0 016.906 28.375c0 33.5-26.812 60.875-60.625 62.813v18.375a27.625 27.625 0 0124.25 27.156 27.719 27.719 0 01-28.062 27.375 27.719 27.719 0 01-28.063-27.375c0-13.875 10.532-25.313 24.22-27.156v-18.375c-33.813-1.938-60.626-29.313-60.626-62.813 0-10.156 2.5-19.781 6.875-28.281l-47.906-26.563a64 64 0 01-52.687 27.313c-21.47 0-40.47-10.406-51.97-26.313L272.969 632a26.75 26.75 0 011.876 9.938 27.719 27.719 0 01-28.031 27.375c-15.5 0-28.063-12.25-28.063-27.375s12.563-27.407 28.063-27.407a28.25 28.25 0 0122.437 10.938l15.938-8.875a60.625 60.625 0 01-7.594-29.438c0-33.437 27.094-60.75 61.062-62.062V476.53c-34.875-1.312-62.75-29.312-62.75-63.687a61.952 61.952 0 018.125-30.75l-15.031-8.5a28.25 28.25 0 01-22.187 10.625c-15.5 0-28.063-12.282-28.063-27.406s12.563-27.376 28.063-27.376a27.719 27.719 0 0128.062 27.375 26.75 26.75 0 01-2.062 10.313l15.28 8.656c11.845-16.156 31.22-26.656 53.126-26.656 21.844 0 41.187 10.469 53.031 26.563zm4.063 6.343L398.344 382a62.393 62.393 0 018.125 30.844c0 33.531-26.5 61-60.156 63.531v48.875c32.75 2.531 58.5 29.281 58.5 61.875a60.625 60.625 0 01-7.032 28.438l47.844 26.468c11.562-16.968 31.313-28.125 53.75-28.125 22.375 0 42.125 11.125 53.656 28.063L600.97 615a60.625 60.625 0 01-6.407-27.219c0-32 24.75-58.312 56.563-61.718V474.78c-32.281-3.437-57.406-30.125-57.406-62.562a61.668 61.668 0 017.5-29.531l-47.969-27.032a66.562 66.562 0 01-53.875 27.125 66.562 66.562 0 01-54-27.25zM341.188 379.47A33.813 33.813 0 00307 412.844c0 18.437 15.313 33.375 34.188 33.375 18.906 0 34.218-14.938 34.218-33.375 0-18.438-15.312-33.375-34.218-33.375zm0 175.156c-18.407 0-33.313 14.563-33.313 32.5s14.906 32.563 33.313 32.563c18.437 0 33.343-14.563 33.343-32.532s-14.937-32.531-33.343-32.531zm158.187 89.219c-18.656 0-33.75 14.75-33.75 32.937 0 18.219 15.094 32.969 33.75 32.969 18.625 0 33.75-14.75 33.75-32.969 0-18.187-15.125-32.937-33.75-32.937zm158.781-88.594a32.938 32.938 0 00-33.312 32.5c0 18 14.906 32.563 33.312 32.563S691.5 605.75 691.5 587.78s-14.938-32.531-33.344-32.531zm0-175.969c-18.625 0-33.75 14.75-33.75 32.938 0 18.218 15.125 32.969 33.75 32.969 18.657 0 33.75-14.75 33.75-32.97 0-18.187-15.094-32.937-33.75-32.937zm-158.781-94.906c-19.156 0-34.656 15.156-34.656 33.813S480.219 352 499.375 352C518.5 352 534 336.875 534 318.188s-15.5-33.813-34.625-33.813zm0 124.375c51.625 0 93.438 40.844 93.438 91.219S551 591.22 499.375 591.22s-93.469-40.875-93.469-91.25 41.844-91.25 93.438-91.25zm0 55.469c-20.25 0-36.656 16-36.656 35.75s16.406 35.75 36.656 35.75c20.219 0 36.625-16 36.625-35.75s-16.406-35.75-36.625-35.75z"/><glyph glyph-name="BCPT" unicode="" horiz-adv-x="1000" d="M500 0C223.844 0 0 223.844 0 500s223.844 500 500 500 500-223.844 500-500S776.156 0 500 0zm0 156.25c189.844 0 343.75 153.906 343.75 343.75S689.844 843.75 500 843.75 156.25 689.844 156.25 500 310.156 156.25 500 156.25zm0 34.438c-170.813 0-309.313 138.5-309.313 309.312S329.188 809.313 500 809.313 809.313 670.813 809.313 500 670.813 190.687 500 190.687zM688.844 621.25s0 103.938-159.375 110.875H338.906V267.812H550.25s150.687 5.282 150.687 140.344c0 0 5.188 83.125-91.812 97 0 0 84.875 24.25 79.687 116.063zM448.03 648.969h81.406c51.97-3.438 51.97-39.813 51.97-39.813v-27.718c-3.438-43.313-57.157-45.032-57.157-45.032H448.03zm143.75-254.688c-3.437-43.312-57.125-45-57.125-45H448v112.594h91.844C591.812 458.406 591.812 422 591.812 422z"/><glyph glyph-name="BCY" unicode="" horiz-adv-x="1086.957" d="M903.522 874.599l154.58-261.082a241.546 241.546 0 001.338-243.836L915.913 121.082A241.546 241.546 0 00704.077.32l-303.4 3.333a241.546 241.546 0 00-205.194 118.469L40.9 383.203a241.546 241.546 0 00-1.339 243.836l143.532 248.599a241.546 241.546 0 00211.836 120.768l303.396-3.334a241.546 241.546 0 00205.198-118.468zM578.72 166.725c65.681 32.744 70.816 35.99 86.763 52.497 10.812 11.367 20 24.358 25.41 35.99 16.218 34.638 12.706 80.373-8.651 112.575-17.57 26.522-28.648 33.556-129.74 81.996-52.169 25.169-95.415 46.546-95.956 47.357-.541.812 40.546 21.377 91.357 45.73 50.822 24.357 98.392 48.44 105.686 53.855 43.788 31.932 60.005 93.898 37.3 142.338-18.377 39.237-32.705 50.333-121.899 93.903-55.68 27.058-64.874 30.58-77.033 30.58-24.6 0-46.764-14.073-59.47-37.618-5.405-10.28-5.675-14.88-6.482-90.112l-.812-79.294 24.324 12.449 24.599 12.174v63.333c0 69.546.541 71.98 16.217 71.98 9.46 0 124.88-56.28 138.392-67.646 24.594-20.57 32.164-59.807 17.294-90.116-4.053-8.387-11.352-18.672-16.483-22.73-4.87-4.328-47.034-25.71-93.251-47.898-87.85-42.213-95.686-47.358-104.338-68.194-8.918-21.647 0-55.748 18.116-69.545 5.13-3.517 46.217-24.629 91.352-46.276 45.411-21.647 85.957-42.753 90.28-47.087 14.059-13.256 21.624-31.932 21.624-53.309.27-22.464-5.942-38.155-20.812-53.58-11.893-11.908-129.468-72.25-141.362-72.25-3.788 0-9.464 1.893-12.164 4.598-4.324 4.058-4.865 9.744-4.865 68.193v64.136l-22.976 11.362c-12.705 6.227-23.787 11.367-24.599 11.367-.807 0-1.077-35.72-.536-79.29.807-75.227 1.077-79.555 6.753-90.11 6.764-12.45 22.165-27.064 34.329-32.474 4.594-1.894 15.947-3.517 25.14-3.788 16.217 0 19.188 1.353 86.493 34.908zM323.56 367.517c3.517 1.623 10.812 10.555 16.488 20.024l9.73 17.053-4.053 26.517c-5.406 33.015-5.677 104.454-.541 135.846l3.787 22.463-7.57 14.068c-9.188 17.86-16.758 26.251-23.517 26.251-6.488 0-169.744-92.821-179.744-102.295-8.923-8.657-14.058-23.811-11.623-36.26 3.783-20.29 8.106-23.541 92.71-71.981 72.98-41.942 95.686-54.662 97.304-54.662.27 0 3.517 1.353 7.03 2.976zm546.807 44.652c45.952 26.246 87.304 51.416 92.174 55.744 16.213 15.425 17.024 43.565 1.348 58.72-8.918 8.662-173.802 103.106-180.015 103.106-6.488 0-16.217-10.826-24.328-26.522l-7.03-13.802 4.325-30.58c4.87-34.366 4.058-99.854-1.619-134.763l-3.517-20.29 10.276-17.053c8.376-14.613 15.405-21.11 23.241-21.917 1.082-.27 39.193 21.106 85.145 47.357zm-637.473 41.213c-41.401 23.265-75.218 43.285-75.218 44.101 0 2.705 148.812 87.12 150.706 85.498.811-.812 0-11.633-1.624-23.812-3.787-28.14-3.787-88.744 0-119.59 1.624-12.985 2.435-24.893 1.894-26.246-.54-1.352-34.638 16.508-75.758 40.049zm558.99-35.45c8.657 41.942 8.657 122.03.27 159.904-1.082 4.604-.54 6.227 2.435 5.41 2.165-.536 37.068-19.748 77.111-42.744 54.657-31.386 72.242-42.753 69.807-44.913-4.058-3.792-146.647-84.961-149.352-84.961-.812 0-1.083 3.246-.27 7.304z"/><glyph glyph-name="BDL" unicode="" horiz-adv-x="1000" d="M500 0C223.844 0 0 223.844 0 500s223.844 500 500 500 500-223.844 500-500S776.156 0 500 0zM291.5 730.719c-.125-97.407 0-194.782-.125-292.219 20.125 64.969 71.5 119.531 135.938 141.781 56.062 19.656 120.625 16.031 173.187-12.187 0 5.468 0 10.906.063 16.375-65.813 31.625-146.47 30.062-210.5-5.25.625 84.875-.094 169.75.343 254.625a13646.562 13646.562 0 00-92.75-92.657c-2.5-3.125-6.75-5.875-6.156-10.468zM709.938 366.28c.312 122.656-.375 245.344.312 368-33.75 33.906-67.5 67.875-101.563 101.438.938-15.907.657-31.844.625-47.75-.062-126.719.438-253.438.25-380.125-.218-24.563 2.282-50.219-7.718-73.438-15.719-40.937-58.125-69.687-102.063-68.594-45.687-.5-88.906 31.407-102.562 74.875-15.313 44.063 2.094 96.532 40.5 122.97 34.906 25.312 85.156 26.405 121.312 3.062 18.282-11.438 32.094-28.688 41.407-47.969a9082.656 9082.656 0 000 140.062c-57.032 31.407-128.75 33.75-187.657 6a210.906 210.906 0 01-102.125-101.656C292.125 423.343 286.094 377.53 295 334.436 305.25 280 338.719 230.625 384.938 200.22a209.281 209.281 0 01265.718 28.437 207.875 207.875 0 0159.281 137.625z"/><glyph glyph-name="BELA" unicode="" horiz-adv-x="1000" d="M259.281 638.5a279.25 279.25 0 01-37.156-139.625c0-154.688 125.156-280.125 279.563-280.125S781.25 344.156 781.25 498.875C781.25 653.563 656.094 779 501.688 779a277.844 277.844 0 01-140.657-38 75.5 75.5 0 01-142.281-35.438 75.625 75.625 0 0140.531-67.062zM500 0C223.844 0 0 223.844 0 500s223.844 500 500 500 500-223.844 500-500S776.156 0 500 0zm1.687 361.063c-75.937 0-137.5 61.687-137.5 137.812s61.563 137.813 137.5 137.813 137.5-61.72 137.5-137.813-61.562-137.812-137.5-137.812z"/><glyph glyph-name="BETR" unicode="" horiz-adv-x="1000" d="M384.994 885.283c-63.28-15.9-153.34-69.2-197.06-116.63-22.45-24.36-55.07-74.36-72.47-111.09-28.66-60.49-31.65-75.82-31.65-162.32 0-90.32 2.05-99.67 37.72-171.85 44.55-90.14 102.05-145.96 197.28-191.53 58.64-28.06 74.29-31.1 160-31.1s101.36 3.04 160 31.1c95.23 45.57 152.73 101.39 197.28 191.53 35.67 72.18 37.72 81.53 37.72 171.85 0 86.29-3.01 101.8-31.1 160.52-69.07 144.33-190.34 228.31-340.05 235.49-43.37 2.08-96.32-.61-117.67-5.97m33.82-209.52v-30h65.45c56.17 0 68.94-3.48 90-24.55 13.5-13.5 24.55-29.45 24.55-35.45 0-6-11.05-21.95-24.55-35.45-23.95-23.96-28.28-24.55-180-24.55h-155.45v-60h155.45c151.72 0 156.05-.59 180-24.55 30.67-30.67 30.67-40.23 0-70.9-21.06-21.07-33.83-24.55-90-24.55h-65.45v-60h86c84.47 0 86.6.6 120 34 29.37 29.37 34 40.64 34 82.77 0 27.73-6.64 58.26-15.39 70.76-13.56 19.35-13.66 24.69-.82 44.72 14.42 22.49 19.47 50.57 17.32 96.25-.61 12.93-16.41 38.8-35.11 57.5-33.4 33.4-35.53 34-120 34h-86v-30"/><glyph glyph-name="BFT-alt" unicode="" horiz-adv-x="999.998" d="M531.612 465.453c-11.32 8.58-26.346 12.877-45.01 12.877h-93.827V370.6h92.178c8.43 0 16.48.84 24.155 2.465 7.703 1.67 14.47 4.42 20.322 8.256 5.814 3.847 10.5 9.058 13.973 15.662 3.47 6.615 5.255 15.015 5.255 25.287.001 20.16-5.682 34.535-17.046 43.183zM500.87 998.732c-275.663 0-499.128-223.28-499.128-498.742C1.742 224.56 225.207 1.265 500.87 1.265c275.659 0 499.128 223.295 499.128 498.725.002 275.464-223.47 498.742-499.128 498.742zm122.41-632.78c-7.669-14.544-17.993-26.344-31.018-35.487-12.953-9.174-27.785-15.904-44.448-20.303-16.624-4.392-33.752-6.607-51.295-6.607H306.572v392.449h184.434c18.642 0 35.686-1.628 51.053-4.93 15.366-3.314 28.535-8.706 39.521-16.227 10.978-7.499 19.478-17.5 25.52-29.972 6.042-12.433 9.054-27.806 9.054-46.142 0-19.787-4.467-36.262-13.426-49.469-9.01-13.205-22.263-24.002-39.813-32.41 24.155-7.01 42.2-19.166 54.04-36.574 11.919-17.419 17.866-38.41 17.866-62.97 0-19.79-3.834-36.906-11.541-51.358zm126.77-62.397h-86.208v84.619h86.208v-84.62zM517.9 548.162c9.875 7.303 14.827 19.238 14.827 35.746 0 9.115-1.67 16.638-4.952 22.504-3.284 5.828-7.69 10.457-13.148 13.765-5.512 3.24-11.833 5.574-18.944 6.854a127.881 127.881 0 01-22.259 1.923h-80.647v-91.782h87.258c15.386-.003 27.985 3.65 37.864 10.99z"/><glyph glyph-name="BFT" unicode="" horiz-adv-x="999.998" d="M528.53 574.01c12.86 9.507 19.31 25.048 19.31 46.55 0 11.865-2.172 21.674-6.45 29.31-4.273 7.594-10.018 13.618-17.13 17.923-7.172 4.22-15.405 7.254-24.66 8.932a167.649 167.649 0 01-28.995 2.503H365.578v-119.53H479.21c20.047.002 36.448 4.752 49.32 14.313zm17.857-107.719c-14.746 11.172-34.307 16.786-58.623 16.786H365.578V342.778h120.047c10.972 0 21.47 1.082 31.46 3.197 10.025 2.177 18.838 5.755 26.46 10.765 7.569 5.004 13.675 11.784 18.2 20.392 4.508 8.618 6.843 19.557 6.843 32.929 0 26.251-7.402 44.977-22.201 56.23zM.51 1000V0h1000v1000H.51zm665.26-663.278c-9.985-18.937-23.431-34.316-40.398-46.22-16.871-11.942-36.191-20.708-57.89-26.44-21.647-5.723-43.948-8.602-66.8-8.602H253.315v511.077h240.192c24.277 0 46.47-2.11 66.488-6.416 20.015-4.305 37.159-11.33 51.47-21.12 14.292-9.78 25.372-22.799 33.23-39.033 7.866-16.21 11.789-36.22 11.789-60.096 0-25.77-5.818-47.24-17.483-64.43-11.73-17.192-28.99-31.258-51.846-42.21 31.456-9.13 54.952-24.957 70.379-47.632 15.517-22.675 23.26-50.018 23.26-81.997-.004-25.77-4.99-48.058-15.022-66.88zm165.083-81.262h-112.27v110.208h112.271V255.46z"/><glyph glyph-name="BIX" unicode="" horiz-adv-x="1000" d="M500 0C223.844 0 0 223.844 0 500s223.844 500 500 500 500-223.844 500-500S776.156 0 500 0zm29.406 231.969l194.938 110.719c5.968-6.532 14.625-10.625 24.25-10.625 18.031 0 32.656 14.375 32.656 32.125 0 15.218-10.75 27.968-25.156 31.28l.562 219.407c14.125 3.531 24.594 16.156 24.594 31.156 0 17.75-14.625 32.125-32.656 32.125a32.813 32.813 0 01-26.688-13.593L531.031 772.968A32.406 32.406 0 01499.25 812.5a32.406 32.406 0 01-31.719-39.75L277.781 665a32.781 32.781 0 01-26.375 13.188 32.5 32.5 0 01-32.656-32.157c0-15 10.406-27.562 24.5-31.125V395.313a32.25 32.25 0 01-24.5-31.125c0-17.75 14.625-32.125 32.656-32.125 9.219 0 17.531 3.75 23.469 9.812l194.094-110.219a31.563 31.563 0 01-2.375-12.031c0-17.75 14.625-32.125 32.656-32.125s32.656 14.375 32.656 32.125a31.34 31.34 0 01-2.5 12.344zm-8.718 11.875a32.813 32.813 0 01-21.438 7.906c-8.313 0-15.938-3.062-21.688-8.125L282.5 354.406a31.625 31.625 0 01.125 19.25L469.406 499.5a38.938 38.938 0 0158.844-2.75l189.563-121.875a31.625 31.625 0 01-.625-19.406zm3.718 516.031l191.906-109a32.281 32.281 0 0125.5-36.25L741.25 395.5a32.658 32.658 0 01-15.438-8.313l-189.718 121.97a37.224 37.224 0 012.5 13.468A38.125 38.125 0 01506.812 560l.5 189.219c6.782 1.718 12.75 5.5 17.094 10.625zm-50.156-.156c4.594-5.375 10.937-9.281 18.219-10.781l-.5-189.157a38.125 38.125 0 01-29.219-47.093L275.094 386.313a32.75 32.75 0 01-17 9.343v218.907a32.281 32.281 0 0125.5 36.875z"/><glyph glyph-name="BKX" unicode="" horiz-adv-x="1000" d="M406.188 889.531c21.343 5.375 73.687 8.094 116.312 6.063 147.531-7.032 267.594-87.25 335.156-223.969C892.938 600.219 895 590.781 895 500.031s-2.063-100.187-37.344-171.594c-44.968-91.03-102.875-147.718-195.843-191.75-60.407-28.624-75.875-31.656-161.813-31.656s-101.375 3.032-161.813 31.657c-92.968 44.03-150.875 100.718-195.843 191.75C107.094 399.75 105 409.375 105 499.53c0 86.5 3 101.844 31.656 162.313 17.406 36.718 50.031 86.718 72.469 111.093 43.719 47.438 133.781 100.72 197.063 116.625zM405 826c-96.562-30.531-171.812-95.563-213.5-184.469C169.344 594.25 165 571.063 165 499.97s4.344-94.281 26.5-141.563c44.719-95.375 142.094-171.906 246-193.344l32.5-6.718v45.812c0 44.219 1.031 45.781 30 45.781s30-1.593 30-45.78v-45.813l32.5 6.718c103.906 21.438 201.281 97.97 246 193.344 38.094 81.25 38.094 201.875 0 283.094-44.719 95.375-142.094 171.906-246 193.344l-32.5 6.718V795.75c0-44.219-1.031-45.781-30-45.781-28.875 0-30 1.656-30 45 0 49.656-2.406 50.812-65 31zm-73.156-203.5l-3.156 27.5h342.656l-3.157-27.5-3.156-27.5h-330l-3.156 27.5zm4.812-99.156c-3.656-3.657-6.656-17.157-6.656-30V470h340v60H506.656c-89.843 0-166.344-3-170-6.656zm.25-119.782c-3.812-3.812-6.906-17.406-6.906-30.25V349.97h341.344l-3.157 27.5-3.156 27.5-160.593 2.75c-88.344 1.5-163.72-.375-167.5-4.156z"/><glyph glyph-name="BLCN" unicode="" horiz-adv-x="1000" d="M500 0C223.844 0 0 223.844 0 500s223.844 500 500 500 500-223.844 500-500S776.156 0 500 0zM246.875 781.25a28.125 28.125 0 01-28.125-28.125v-193.75a28.125 28.125 0 0128.125-28.125h193.75a28.125 28.125 0 0128.125 28.125v193.75a28.125 28.125 0 01-28.125 28.125zm312.5 0a28.125 28.125 0 01-28.125-28.125v-193.75a28.125 28.125 0 0128.125-28.125h193.75a28.125 28.125 0 0128.125 28.125v193.75a28.125 28.125 0 01-28.125 28.125zm0-312.5a28.125 28.125 0 01-28.125-28.125v-193.75a28.125 28.125 0 0128.125-28.125h193.75a28.125 28.125 0 0128.125 28.125v193.75a28.125 28.125 0 01-28.125 28.125zm-312.5 0a28.125 28.125 0 01-28.125-28.125v-193.75a28.125 28.125 0 0128.125-28.125h193.75a28.125 28.125 0 0128.125 28.125v193.75a28.125 28.125 0 01-28.125 28.125z"/><glyph glyph-name="BLK" unicode="" horiz-adv-x="1000" d="M500 0C223.844 0 0 223.844 0 500s223.844 500 500 500 500-223.844 500-500S776.156 0 500 0zm221.875 652.188c-1.469 91.062-106.281 114.375-106.281 114.375S674.406 727 675.906 646.905c1.469-80.093-30.156-111.343-30.156-111.343s77.594 25.593 76.125 116.625zM373 224.406V775.97l-107.375 5.281v-9.031s65.719-17.313 65.719-117.125v-301.25c0-117.906-65.719-124.688-65.719-124.688v-10zm171.625-5.625c46.688.344 118.406 33.063 131.656 122.25 13.219 89.188-20.937 130.188-38.625 145.25C620 501.312 570 518.625 570 518.625s33.063 16.938 48.156 41.406 26.875 69.219 15.813 116.25c-11.032 47.032-51.469 94.063-98.563 100.844-47.062 6.75-67.031-1.125-124.156-1.875V224.937s86.656-6.562 133.375-6.156zm124.094 20.313s98 28.219 96.875 135.437c-1.063 107.219-96.875 131.313-96.875 131.313s46.469-42.313 48.687-132.344-48.656-134.438-48.656-134.438zM571.844 562.03c-34.344-45.656-119.875-33.625-119.875-33.625s-.406 192.688 8.062 200.969c8.438 8.281 52.219 22.969 93.75-6.406 41.563-29.375 52.375-115.282 18.032-160.938zm6.343-82.03c32.125-14.281 72.813-62.938 52.97-141.438-19.845-78.53-80.157-80.78-111.782-79.53s-62.063.75-65.469 91.812-1.969 139.687-1.969 139.687 94.125 3.781 126.25-10.531z"/><glyph glyph-name="BLOCK" unicode="" horiz-adv-x="1000" d="M500 0C223.844 0 0 223.844 0 500s223.844 500 500 500 500-223.844 500-500S776.156 0 500 0zM344.437 781.25L502.845 500l-161.25-281.25h322.469L828.125 500 664.062 781.25H344.438zm169.688-98.938H607.5L712.156 500 607.47 317.687h-93.313L618.813 500 514.125 682.313zM378.5 655.438l-56.938 101.125L171.875 500 320.25 245.625l57.5 100.313L287.812 500 378.5 655.438z"/><glyph glyph-name="BLZ" unicode="" horiz-adv-x="1000" d="M500 0C223.844 0 0 223.844 0 500s223.844 500 500 500 500-223.844 500-500S776.156 0 500 0zM363.531 364.5a52.375 52.375 0 01-75 .094c-10-10.125-15.625-23.906-15.625-38.281s5.625-28.125 15.625-38.282c20.75-21.062 54.313-21.031 75 .094s20.688 55.313 0 76.375zM709.25 727.313a52.344 52.344 0 01-57.813-11.75 54.531 54.531 0 01-15.562-38.22c0-14.343 5.594-28.093 15.562-38.218 15.157-15.438 38-20.063 57.813-11.719S742 655.5 742 677.344c0 21.875-12.938 41.562-32.75 49.937zM356.562 406.156l56-57.031 51.25 52.25a101.969 101.969 0 00-56.093 57.156zm303.032 191.781l-55.969 57.032-51.281-52.25C565 597.562 576.469 589.812 586.125 580c9.625-9.75 17.187-21.438 22.187-34.313zM638.125 349.75a54.781 54.781 0 0111.5-58.906c9.969-10.156 23.437-15.875 37.531-15.875 14.063 0 27.563 5.719 37.5 15.875a54.812 54.812 0 0111.531 58.906 53.062 53.062 0 01-49.03 33.344c-21.47 0-40.813-13.156-49.032-33.344zM282.344 702.813a54.781 54.781 0 0111.5-58.907c9.969-10.125 23.437-15.843 37.531-15.843 14.063 0 27.563 5.718 37.5 15.843a54.844 54.844 0 0111.531 58.907 53.062 53.062 0 01-49.031 33.375c-21.469 0-40.813-13.157-49.031-33.375zm317.031-351.375l56 57.03-51.281 52.25a101.969 101.969 0 00-56.125-57.187zM416.844 658l-56-57.063 51.281-52.25c5.094 12.907 12.688 24.625 22.313 34.438 9.593 9.813 21.062 17.5 33.687 22.594zm91.937 46.281c29.313 0 53.125 24.219 53.125 54.125 0 14.344-5.625 28.125-15.562 38.25A52.594 52.594 0 01508.75 812.5c-29.344 0-53.125-24.219-53.125-54.094s23.781-54.125 53.125-54.125zm53.125-462.687c0 14.375-5.625 28.125-15.562 38.281a52.594 52.594 0 01-37.563 15.844c-29.344 0-53.125-24.219-53.125-54.125s23.781-54.094 53.125-54.094 53.125 24.219 53.125 54.094zm-33.843 434.375h-33.438v-67a96.094 96.094 0 0033.438 0zm0-287.875a96.094 96.094 0 00-33.438 0v-67.031h33.438zm166.625 106a52.594 52.594 0 0186.625-17.563c10 10.156 15.562 23.938 15.562 38.281 0 21.875-12.938 41.625-32.813 50a52.406 52.406 0 01-57.843-11.75 54.844 54.844 0 01-11.532-58.968zm-491.563 11.531c0-29.875 23.781-54.094 53.125-54.094 14.063 0 27.594 5.688 37.563 15.844 9.968 10.125 15.53 23.906 15.53 38.25 0 29.906-23.78 54.125-53.124 54.094-29.313 0-53.125-24.219-53.094-54.094zm471.344-17.031v34.094H608.75a101.972 101.972 0 000-34.032zm-270.094 0a101.563 101.563 0 000 34.062h-65.781v-34.062zm102.812-63.656c41.563 0 75.313 34.343 75.313 76.687-.031 42.375-33.75 76.688-75.313 76.719-41.593 0-75.312-34.344-75.312-76.719s33.719-76.688 75.312-76.688z"/><glyph glyph-name="BNB" unicode="" horiz-adv-x="1000" d="M500 0C223.844 0 0 223.844 0 500s223.844 500 500 500 500-223.844 500-500S776.156 0 500 0zM378.625 549.875L500 671.25l121.438-121.438 70.625 70.625L500 812.5l-192-192 70.625-70.625zM187.5 500l70.625-70.625L328.75 500l-70.625 70.625L187.5 500zm191.125-49.875l-70.719-70.531.094-.094 192-192 192.063 192.063v.03l-70.625 70.626L500 328.75 378.625 450.125zM671.25 500l70.625-70.625L812.5 500l-70.625 70.625L671.25 500zm-99.625.063h.031L500 571.688l-52.969-52.938-6.094-6.094-12.53-12.562-.126-.094.125-.094 71.563-71.594 71.687 71.657.032.031-.063.031z"/><glyph glyph-name="BNT" unicode="" horiz-adv-x="1000" d="M500 0C223.844 0 0 223.844 0 500s223.844 500 500 500 500-223.844 500-500S776.156 0 500 0zm-2.5 816.25l-141.187-82.719 141.187-82.75 143.844 82.75L497.5 816.25zm23.219-441.688V209.095L712.5 318.5V484L520.719 374.563zM664.562 681.5l-143.875-82.75v-165.5L664.563 516v165.5zM318.25 516l143.875-82.75v165.5L318.25 681.5V516zm0-224.188l143.875-82.718v165.469L318.25 457.28V291.844z"/><glyph glyph-name="BNTY" unicode="" horiz-adv-x="1000" d="M500 0C223.844 0 0 223.844 0 500s223.844 500 500 500 500-223.844 500-500S776.156 0 500 0zm287.344 393.75c-14.688 9.156-33.407 7.844-48.125 1.281a9.875 9.875 0 01-2.657 5.25L677.75 500l58.813 99.688c1.343 1.343 1.343 3.968 2.687 5.28 14.687-7.874 32.063-7.874 48.125 1.313a48.688 48.688 0 0118.687 66.907c-13.375 23.625-44.093 31.5-68.156 18.375-14.687-9.188-24.062-23.625-25.406-40.688H589.531l-58.781 99.75c-1.344 1.313-2.687 2.625-2.687 3.938 13.375 9.187 22.718 23.625 22.718 40.687 0 27.531-22.718 48.531-49.437 48.531-26.75 0-49.469-22.312-49.469-48.531 0-17.063 9.375-32.813 22.719-40.688-1.313-1.312-2.656-2.625-2.656-3.937l-58.813-99.688H288.844a51 51 0 01-25.406 40.625c-24.063 13.125-54.813 5.282-68.157-18.343A48.688 48.688 0 01214 606.312c14.688-9.187 33.406-7.875 48.125-1.312 0-1.313 1.313-3.938 2.656-5.25L323.594 500l-60.156-99.688c-1.344-1.343-1.344-3.968-2.688-5.28-14.688 7.874-32.063 7.874-48.125-1.313-24.031-13.125-32.063-43.282-18.688-66.906s44.094-31.5 68.157-18.376c14.687 9.188 24.062 23.625 25.406 40.688h122.969l58.781-99.719c1.344-1.312 2.688-2.625 2.688-3.937-13.375-9.188-22.72-23.625-22.72-40.688 0-27.531 22.72-48.531 49.438-48.531 26.75 0 49.469 22.312 49.469 48.531 0 17.063-9.375 32.813-22.719 40.688 1.313 1.312 2.657 2.625 2.657 3.937l58.812 99.688h122.969c1.312-15.719 9.344-31.469 25.375-40.625 24.062-13.125 54.812-5.281 68.156 18.344a45.844 45.844 0 01-16.031 66.906zM564.156 532.813c0-13.125-5.343-23.625-12.031-34.125 8.031-7.875 12.031-19.688 12.031-31.5 0-27.532-22.718-49.844-50.781-49.844h-64.156a11.875 11.875 0 00-12.031 11.812v141.688a11.875 11.875 0 0012.03 11.812h64.157c28.063 0 50.781-22.312 50.781-49.843z"/><glyph glyph-name="BOS" unicode="" horiz-adv-x="1000" d="M500 0C223.844 0 0 223.844 0 500s223.844 500 500 500 500-223.844 500-500S776.156 0 500 0zm-49 407.813h83.094c123.125 0 184.656 33.78 184.656 101.406v170.625c0 67.562-61.563 101.406-184.688 101.406H312.5V624.5h83.125v96.813h147.688c61.562 0 92.343-15.375 92.343-46.094V513.844c0-30.75-30.781-46.125-92.343-46.125H451V407.78zm184.656-36.907v-46.125c0-30.719-30.781-46.094-92.343-46.094H395.625v239.75h147.719c10.062 0 19.312-.406 27.718-1.25v60.063a571.906 571.906 0 01-36.937 1.125H312.5V218.75h221.563c123.125 0 184.687 33.813 184.687 101.438v50.718h-83.125z"/><glyph glyph-name="BPT" unicode="" horiz-adv-x="1000" d="M500 0C223.844 0 0 223.844 0 500s223.844 500 500 500 500-223.844 500-500S776.156 0 500 0zm308.875 351.969c.625 1.25 1.344 2.375 1.969 3.687a340.469 340.469 0 01-171 457.906v.5c-3.438 1.532-6.938 2.625-10.375 4.063a289.125 289.125 0 01-13.75 5.313 242 242 0 01-18.875 6.156 323.125 323.125 0 01-45.907 10.312 329.969 329.969 0 01-54.125 3.844c-3.875 0-7.75 0-11.562-.313a337.938 337.938 0 01-67.125-9.562 329.875 329.875 0 01-46.687-15.063 331.344 331.344 0 01-29.25-13.312c-6.157-3.219-12.282-6.656-18.438-10.219a237.187 237.187 0 01-9.844-6.125 1274.688 1274.688 0 01-17.937-12.281A389.063 389.063 0 01270 756.031a349.375 349.375 0 01-23.594-23.281 331.094 331.094 0 01-21.5-26 188.125 188.125 0 01-8.531-12.281c-2.094-3.063-4.437-6.125-6.469-9.063-2.031-2.968-3.062-5.5-4.687-8.187-2.188-3.688-4.344-7.438-6.125-11.25-3.75-6.813-7.313-13.688-10.563-20.625a10.625 10.625 0 01-2.468-4.125 59.562 59.562 0 00-2-5.219 326.594 326.594 0 01-18.25-55.188A345.219 345.219 0 01156.656 516c0-4.688-.375-9.375-.375-14.125 0-6.125 0-12.281.5-18.438 0-4.843.532-9.687.969-14.53.563-6.157 1.406-12.313 2.281-18.438.438-4.438 1.469-9.375 2.094-14.063 1.156-6.156 2.625-12.281 4.156-18.437 1.375-4.563 2.188-8.781 3.407-13.219a508.796 508.796 0 016.125-18.906c1.406-4 2.812-8 4.375-11.938 2.5-6.125 5.312-12.656 8.218-18.844a295.75 295.75 0 0115.25-29c2.157-3.687 4.282-7.312 6.563-10.875 3.5-5.468 7.25-10.812 11.062-16.093a301.627 301.627 0 018.532-11.438c2.968-3.75 7.625-9.156 11.562-13.625a295.219 295.219 0 0122.281-23.094 292.063 292.063 0 0125-21.375c5.625-4.375 11.25-8.562 17.157-12.312 1.562-1.031 2.875-2.188 4.437-3.25a340.531 340.531 0 01477.875 101.437h.375c1.156 1.844 2.094 3.813 3.25 5.72 2.5 4.093 4.844 8.405 7.25 12.718 3.563 5.812 6.875 11.906 9.906 18.125zm-439.25-140.625a316.563 316.563 0 00-88 59.156 273.25 273.25 0 00-10.188 9.938c-3.312 3.437-7 7.562-10.312 11.375s-7.125 8.218-10.5 12.28c-3.406 4.063-5.313 7-7.875 10.563-3.5 4.938-7 9.844-10.188 14.875-2.093 3.313-4.062 6.625-6.156 10-3.187 5.469-6.156 11-9.219 16.594-1.718 3.313-3.25 6.719-4.843 10.094-2.406 6.062-5 11.781-7.313 17.687-1.406 3.563-2.656 7.188-3.937 10.75a295.375 295.375 0 00-5.781 17.625c-1.157 4-2.125 7.938-3.125 11.875-1.407 5.75-2.75 11.563-3.875 17.313-.782 4.531-1.47 8.531-2.282 12.781a320.688 320.688 0 00-2.125 17.188c-.437 4.375-.687 8.75-.937 13.093 0 5.844-.5 11.656-.5 17.5 0 4.25 0 8.469.375 12.656 0 6.157.687 12.282 1.312 18.438.344 3.813.906 7.688 1.406 11.5a311.094 311.094 0 005.594 29.719 245.795 245.795 0 006.125 21.125c.906 2.875 1.875 5.75 2.813 8.593a318.688 318.688 0 0012.125 30.063c3.062 6.625 6.156 13.031 9.875 19.375 1.906 3.344 3.75 6.719 5.781 10.094a346.594 346.594 0 0018.188 27.031 331.719 331.719 0 0019.843 23.906 637.135 637.135 0 0013.531 14.063 328.031 328.031 0 0023.657 20.593c2.719 2.188 5.5 4.22 8.344 6.125 5.437 4.125 11 7.907 16.656 11.438a347.25 347.25 0 0026.125 15 364.094 364.094 0 0026.906 12.281 307.563 307.563 0 0056.25 16.782 278.438 278.438 0 0017.688 3 453.84 453.84 0 0011.625 1.468 335.589 335.589 0 0019.468 1.407h10.563c6.719 0 13.437-.157 20.218-.47l10.5-.75a294.594 294.594 0 0031.032-4.312 309.25 309.25 0 0031.062-7.531A286.688 286.688 0 00619.47 793a315.219 315.219 0 00165.25-430.063c-2.813-6.125-6.157-11.562-9.063-17.187-2.187-3.813-4.281-7.688-6.562-11.438a317.063 317.063 0 00-399.469-122.906zm129.75 25.781A263.375 263.375 0 01762.25 500.312a263.062 263.062 0 11-262.875-263.187zm0 439.937v.125a177.063 177.063 0 00176.656-176.875 176.875 176.875 0 10-176.656 176.75z"/><glyph glyph-name="BQ" unicode="" horiz-adv-x="1000" d="M500 0C223.844 0 0 223.844 0 500s223.844 500 500 500 500-223.844 500-500S776.156 0 500 0zM311.437 340.813c74.594-65.72 176.938-57.125 238.532-1.5 63.156 57.03 77.281 148.625 33.687 220.343-28.844 47.469-71.25 75.25-126.375 83.657-55.656 8.5-103.437-9.157-146.344-45 0 31-.093 60.625.063 90.187a59.094 59.094 0 01-16.938 42.594A60.156 60.156 0 01250 750V301.031h61.438v39.781zm-.125 129.375c0 65.937 53.938 119.312 120.563 119.375a119.813 119.813 0 00120.563-120.875c-.032-65.125-53.907-118.344-120.22-118.75a120.281 120.281 0 00-120.937 120.25zm198.844-168.344C577.22 281.219 635.906 294.53 688.97 339v-89.688c0-16.593 5.625-31.093 17.25-43 11.842-12.125 26.405-18.342 43.78-18.812v449.031h-61.563v-39.875c-24.375 20.25-50.437 35.063-80.624 41.907-30.407 6.875-60.375 4.906-91.125-3.532l4.937-3c16.156-9.281 31.313-20.062 43.813-33.875 6.75-7.437 13.968-11.218 24.062-13.125 67.813-12.937 108.844-72.5 97.219-140-8.844-51.344-55.844-93.375-108.031-96.375a16.5 16.5 0 01-11.875-5.625 178.531 178.531 0 00-51.594-38.156c-1.344-.688-2.625-1.563-5.063-3.031z"/><glyph glyph-name="BQX" unicode="" horiz-adv-x="1027.397" d="M500 585.616c-60.274 0-109.589 49.316-109.589 109.59 0 47.26-38.356 85.616-85.616 85.616-22.603 0-44.521-8.904-60.274-25.343-42.466-42.465-112.33-42.465-154.795 0-43.15 43.151-43.15 112.33-.685 155.48C146.575 968.493 223.288 1000 304.795 1000c167.808 0 304.11-136.986 304.11-304.795 0-60.273-48.631-109.589-108.905-109.589M164.384 60.274c-28.768 0-57.535 10.959-78.768 33.562C30.137 150.685 0 225.342 0 304.795c0 167.808 136.301 304.794 304.795 304.794 60.273 0 109.589-49.315 109.589-109.589s-49.316-109.589-109.59-109.589c-47.26 0-85.616-38.356-85.616-85.616 0-22.603 8.22-43.151 23.973-59.59 41.78-43.835 40.41-113.013-2.74-154.794-21.233-20.548-48.63-30.137-76.027-30.137M695.205 0c-167.808 0-304.11 136.986-304.11 304.795 0 60.273 49.316 109.589 109.59 109.589s109.589-49.316 109.589-109.59c0-47.26 38.356-85.616 85.616-85.616 23.288 0 45.206 8.904 61.644 26.027C800 288.356 869.178 289.726 912.33 247.26c43.15-42.465 44.52-111.644 2.055-154.794C856.164 32.876 778.767 0 695.205 0m-390.41 0C221.233 0 143.15 32.877 85.616 93.15c-41.78 43.836-40.41 113.014 2.74 154.795 43.836 41.781 113.014 40.411 154.795-2.74 16.438-17.123 38.356-26.027 61.644-26.027 47.26 0 85.616 38.356 85.616 85.617 0 60.273 49.315 109.589 109.589 109.589s109.589-49.316 109.589-109.59C608.904 136.987 472.603 0 304.795 0M500 585.616c-60.274 0-109.589 49.316-109.589 109.59C391.096 863.013 527.397 1000 695.205 1000c65.754 0 128.768-20.548 181.507-60.274 48.63-36.301 58.904-104.794 22.603-153.425-36.301-48.63-104.794-58.904-153.425-22.602-10.274 7.534-27.397 17.123-50.685 17.123-47.26 0-85.616-38.356-85.616-85.617 0-60.273-48.63-109.589-109.589-109.589m195.205-194.52c-60.273 0-109.589 49.315-109.589 109.589s49.316 109.589 109.59 109.589c47.26 0 85.616 38.356 85.616 85.616 0 27.398-12.329 52.055-34.932 68.494-48.63 36.3-58.904 104.794-22.602 153.424 36.986 47.945 105.48 58.22 154.11 21.918C954.11 882.192 1000 791.096 1000 695.206c0-167.809-136.301-304.11-304.795-304.11M835.616 59.589c-27.397 0-54.794 10.274-76.027 30.822-43.15 42.466-44.52 111.644-2.055 154.794 15.754 15.754 23.973 36.987 23.973 59.59 0 47.26-38.356 85.616-85.617 85.616-60.274 0-109.589 49.315-109.589 109.589s49.315 109.589 109.59 109.589c167.808 0 304.794-136.986 304.794-304.794 0-79.453-30.822-154.795-86.301-212.33-21.918-21.917-50.685-32.876-78.768-32.876M304.795 391.096C136.3 391.096 0 527.397 0 695.206c0 81.506 31.507 157.534 89.041 215.068 42.466 42.466 112.329 42.466 154.795 0 42.465-42.466 42.465-112.329 0-154.795-15.754-15.753-24.658-36.986-24.658-60.274 0-47.26 38.356-85.616 85.617-85.616 60.273 0 109.589-49.315 109.589-109.589s-49.316-108.904-109.59-108.904"/></font>
</defs>
</svg>
