<svg width="170" height="53" xmlns="http://www.w3.org/2000/svg"><path d="M23.907 27.267l10.235 18.595h2.344L25.08 25.157 35.471 6.25h-2.344l-9.22 16.798L14.688 6.25h-2.344l10.392 18.907-11.407 20.705h2.344l10.234-18.595zm-9.063-2.11L1.016 0H19.22l4.687 8.516L28.595 0h18.282L33.05 25.157l14.844 26.955H29.689l-5.782-10.391-5.703 10.391H0l14.844-26.955zm43.049 12.465V14.455h6.425c2.177 0 4.116.244 5.818.73s3.137 1.215 4.307 2.188c1.17.972 2.06 2.182 2.674 3.63.614 1.447.92 3.12.92 5.018 0 1.899-.306 3.572-.92 5.019a9.433 9.433 0 01-2.674 3.63c-1.17.972-2.605 1.707-4.307 2.205-1.702.498-3.641.747-5.818.747h-6.425zm7.398-6.6c1.737 0 3.08-.41 4.029-1.232.95-.822 1.424-2.078 1.424-3.769 0-1.69-.475-2.94-1.424-3.75-.95-.811-2.292-1.216-4.03-1.216v9.968zm14.657-16.567h13.65v6.079h-6.252v2.57h6.147v5.765h-6.147v2.675h6.495v6.078H79.948V14.455zm20.665 11.184l-6.147-11.184h8.092l2.084 3.786 2.084-3.786h8.128l-6.148 11.184 6.599 11.983h-8.093l-2.57-4.62-2.535 4.62h-8.093l6.6-11.983zm15.04 6.182h7.432v5.8h-7.433v-5.8zm16.567-17.366h5.557l8.787 23.167h-7.294l-.764-2.084h-7.016l-.764 2.084h-7.294l8.788-23.167zm4.341 15.977l-1.563-4.063-1.563 4.063h3.126zm25.285-8.092c-.417-.37-.938-.654-1.563-.851a6.11 6.11 0 00-1.84-.296 4.55 4.55 0 00-1.842.365 4.374 4.374 0 00-1.441 1.007 4.646 4.646 0 00-.955 1.546 5.372 5.372 0 00-.347 1.945c0 .695.127 1.343.382 1.945a4.666 4.666 0 001.042 1.546c.44.428.955.764 1.545 1.007.59.243 1.222.364 1.893.364.787 0 1.505-.167 2.153-.503a5.144 5.144 0 001.668-1.372h-2.084V24.18h8.926v7.711c-.533.95-1.17 1.812-1.91 2.587a12.132 12.132 0 01-2.484 1.998 12.074 12.074 0 01-6.27 1.737 12.01 12.01 0 01-4.722-.939 12.17 12.17 0 01-3.873-2.57 12.057 12.057 0 01-2.605-3.855c-.637-1.482-.955-3.08-.955-4.793 0-1.667.3-3.242.903-4.724a12.14 12.14 0 012.483-3.872 11.605 11.605 0 013.751-2.605c1.447-.637 3.005-.955 4.672-.955 1.296 0 2.42.127 3.369.382.95.255 1.748.544 2.396.868.764.37 1.401.776 1.91 1.216l-4.202 5.974z" fill="#FCA060" fill-rule="evenodd"/></svg>