<svg width="64" height="64" xmlns="http://www.w3.org/2000/svg"><g fill="none"><path d="M55 14.528a.953.953 0 00.952-.954V8.7c0-2.592-2.143-4.7-4.778-4.7h-38.43C10.084 4 8 6.064 8 8.7v42.62c0 2.661 2.128 4.827 4.744 4.827h9.337l12.052-.002 17.04-.03c2.636 0 4.78-2.151 4.78-4.795v-4.874a.953.953 0 00-.952-.954h-6.66V14.528H55z" fill="#CDF4EE"/><path d="M28.676 13.048h.023c.282 0 .55.144.716.386a.99.99 0 01.157.718l-.03.124-1.694 6.26a.898.898 0 01-.74.648l-.104.006h-.023a.874.874 0 01-.715-.385.99.99 0 01-.158-.718l.029-.124 1.695-6.262a.898.898 0 01.74-.647l.104-.006h.023-.023zm-5.222.581c.172 0 .34.055.483.16.226.163.373.43.406.728l.007.13v.026c0 .35-.16.676-.417.86l-.1.063-2.883 1.523 2.882 1.522c.28.148.472.45.51.793l.008.13v.027c0 .349-.154.67-.413.858a.82.82 0 01-.482.16.793.793 0 01-.287-.053l-.09-.042-4.608-2.436c-.28-.148-.471-.451-.51-.793l-.008-.13v-.073c0-.35.161-.675.418-.86l.1-.063 4.607-2.436a.81.81 0 01.377-.094zm9.096 0c.13 0 .26.033.376.094l4.607 2.436c.315.166.518.529.518.923v.073c0 .394-.203.756-.518.923l-4.607 2.436a.804.804 0 01-.859-.065 1.054 1.054 0 01-.414-.858v-.027c0-.394.203-.757.518-.923l2.882-1.522-2.882-1.522c-.315-.168-.518-.53-.518-.924v-.027c0-.35.155-.67.414-.858a.818.818 0 01.483-.159z" fill="#00C0A5"/><path d="M54.05 51.32c0 1.564-1.316 2.885-2.875 2.887-1.563-.007-2.834-1.302-2.834-2.887v-5.73h5.709v5.73z" fill="#05C0A5"/><path d="M22.476 61V50.143c1.666.967 2.225 1.88 4.524 1.88 2.3 0 3.791-.889 5.429-1.814V61l-4.869-2.53a1.21 1.21 0 00-1.12 0L22.476 61z" fill="#5A78F0"/><path d="M31.909 50.8a.957.957 0 00-.333.298 6.632 6.632 0 01-8.712-.182 6.704 6.704 0 01-2.197-4.953c0-3.682 2.987-6.677 6.66-6.677 3.672 0 6.66 2.995 6.66 6.677 0 1.83-.756 3.577-2.078 4.837zM54.05 14.43h-5.71V8.762a2.856 2.856 0 012.836-2.855c1.585 0 2.874 1.253 2.874 2.792v5.73zM40.498 30.238H14.407c-.54 0-.978.405-.978.905s.438.905.978.905h26.09c.541 0 .98-.405.98-.905s-.439-.905-.98-.905zm.073-4.524h-3.619a.905.905 0 000 1.81h3.62a.905.905 0 000-1.81zm-26.179 1.81H32.37c.532 0 .963-.405.963-.905s-.43-.905-.963-.905H14.392c-.532 0-.963.405-.963.905s.43.905.963.905z" fill="#05C0A5"/></g></svg>