<svg width="650" height="130" xmlns="http://www.w3.org/2000/svg"><style>.st3{fill:#52cacb}.st4{fill:#263238}</style><g id="svg_2"><g id="svg_3"><g id="svg_4"><path id="svg_5" d="M38 121.8H11c-2.1-.5-3.4-1.9-3.7-4.1l6.8-2.5h22.1l1.8 6.6zM7.5 116l2.2-21.3 1.8-1.6 4.4 4.9-1.6 15.5-6.8 2.5zm11.3-45l-1.6 15.5-5.5 4.9-1.4-1.6 2.2-21.3 6.3 2.5zM41 69.4H19l-6.3-2.5c.8-2.2 2.3-3.5 4.5-4.1h26.9L41 69.4zM38.2 89l2.9 3.3-3.6 3.3H16.1l-2.9-3.3 3.7-3.3h21.3z" class="st3"/><path id="svg_6" d="M61.6 69.4l-6.3-2.5c.8-2.2 2.3-3.5 4.5-4.1h26.1c2.1.5 3.4 1.9 3.7 4.1l-6.8 2.5H61.6zm8 23.7l2.9 3.3-2.2 21.3c-.8 2.2-2.3 3.5-4.5 4.1l-1.8-6.5 2-18.8 3.6-3.4zm-2.7-4.9L68.7 71h6.5l-1.8 17.2-3.7 3.3-2.8-3.3z" class="st3"/><path id="svg_7" d="M101 98l-1.8 17.2-3.1 6.5c-2.1-.5-3.4-1.9-3.7-4.1l2.4-22.9 1.8-1.6L101 98zm-4.4-5.7l-1.4-1.6 2.4-22.9c.8-2.2 2.3-3.5 4.5-4.1l1.8 6.5-1.8 17.2-5.5 4.9zm26.6-3.3l2.9 3.3-3.6 3.3h-21.3l-2.9-3.3L102 89h21.2zm4.5 4.1l1.5 1.6-2.4 22.9c-.8 2.2-2.3 3.5-4.5 4.1l-1.8-6.5 1.8-17.2 5.4-4.9zm-4.2-6.5l1.8-17.2 3.1-6.5c2.1.5 3.4 1.9 3.7 4.1l-2.4 22.9-1.9 1.6-4.3-4.9z" class="st3"/><path id="svg_8" d="M156.3 108.7h-6.5l.7-6.5h6.5l-.7 6.5zm2.8-26.2h-6.5l.7-6.5h6.5l-.7 6.5z" class="st3"/><path id="svg_9" d="M186.1 98l-1.8 17.2-3.1 6.5c-2.1-.5-3.4-1.9-3.7-4.1l2.4-22.9 1.8-1.6 4.4 4.9zm2.8-27l-1.6 15.5-5.5 4.9-1.4-1.6 2.2-21.3 6.3 2.5zm19.8-1.6h-19.6l-6.3-2.5c.8-2.2 2.3-3.5 4.5-4.1h24.5l-3.1 6.6zm-.4 19.6l2.9 3.3-3.6 3.3h-21.3l-2.9-3.3 3.7-3.3h21.2zm4.4 4.1l1.5 1.6-2.4 22.9c-.8 2.2-2.3 3.5-4.5 4.1l-1.8-6.5 1.8-17.2 5.4-4.9zm-4.1-6.5l1.8-17.2 3.1-6.5c2.1.5 3.4 1.9 3.7 4.1l-2.4 22.9-1.9 1.6-4.3-4.9z" class="st3"/><path id="svg_10" d="M228.6 98l-1.8 17.2-3.1 6.5c-2.1-.5-3.4-1.9-3.7-4.1l2.4-22.9 1.8-1.6 4.4 4.9zm-4.2-6.5l-1.4-1.6 2.4-22.9c.8-2.2 2.3-3.5 4.5-4.1l1.8 6.5-1.8 17.2-5.5 4.9zm4.1 23.7h19.6l6.3 2.5c-.8 2.2-2.3 3.5-4.5 4.1h-24.5l3.1-6.6z" class="st3"/><path id="svg_11" d="M271.2 98l-1.8 17.2-3.1 6.5c-2.1-.5-3.4-1.9-3.7-4.1l2.4-22.9 1.8-1.6 4.4 4.9zm2.8-27l-1.6 15.5-5.5 4.9-1.4-1.6 2.2-21.3L274 71zm19.8-1.6h-19.6l-6.3-2.5c.8-2.2 2.3-3.5 4.5-4.1h24.5l-3.1 6.6zm-.4 19.6l2.9 3.3-3.6 3.3h-21.3l-2.9-3.3 3.7-3.3h21.2zm4.4 4.1l1.5 1.6-2.4 22.9c-.8 2.2-2.3 3.5-4.5 4.1l-1.8-6.5 1.8-17.2 5.4-4.9zm-4.1-6.5l1.8-17.2 3.1-6.5c2.1.5 3.4 1.9 3.7 4.1l-2.4 22.9-1.9 1.6-4.3-4.9z" class="st3"/><path id="svg_12" d="M313.7 98l-1.8 17.2-3.1 6.5c-2.1-.5-3.4-1.9-3.7-4.1l2.4-22.9 1.8-1.6 4.4 4.9zm2.9-27L315 86.5l-5.5 4.9-1.4-1.6 2.2-21.3 6.3 2.5zm19.8-1.6h-19.6l-6.3-2.5c.8-2.2 2.3-3.5 4.5-4.1h24.5l-3.1 6.6zM336 89l2.9 3.3-3.6 3.3H314l-2.9-3.3 3.7-3.3H336zm-20.6 8.2h4.9l19.1 21.3c-1.3 2.2-3.6 3.3-6.9 3.3l-17.6-19.6.5-5zm20.8-10.6l1.8-17.2 3.1-6.5c2.1.5 3.4 1.9 3.7 4.1l-2.4 22.9-1.9 1.6-4.3-4.9z" class="st3"/><path id="svg_13" d="M356.3 98l-1.8 17.2-3.1 6.5c-2.1-.5-3.4-1.9-3.7-4.1l2.4-22.9 1.8-1.6 4.4 4.9zm2.8-27l-1.6 15.5-5.5 4.9-1.4-1.6 2.2-21.3 6.3 2.5zm19.8-1.6h-19.6l-6.3-2.5c.8-2.2 2.3-3.5 4.5-4.1H382l-3.1 6.6zm-7.8 20.5l-3.7 3.3-2.9-3.3 2-18.8h6.5l-1.9 18.8zm11.8 3.2l1.5 1.6-2.4 22.9c-.8 2.2-2.3 3.5-4.5 4.1l-1.8-6.5 1.8-17.2 5.4-4.9zm-4.1-6.5l1.8-17.2 3.1-6.5c2.1.5 3.4 1.9 3.7 4.1L385 89.9l-1.9 1.6-4.3-4.9z" class="st3"/><path id="svg_14" d="M411.6 108.7H405l.7-6.5h6.5l-.6 6.5zm2.7-26.2h-6.5l.7-6.5h6.5l-.7 6.5z" class="st3"/><path id="svg_15" d="M463.4 121.8h-27c-2.1-.5-3.4-1.9-3.7-4.1l6.8-2.5h22.1l1.8 6.6zm-30.5-5.8l2.2-21.3 1.8-1.6 4.4 4.9-1.6 15.5-6.8 2.5zm11.3-45l-1.6 15.5-5.5 4.9-1.4-1.6 2.2-21.3 6.3 2.5zm22.3-1.6h-22l-6.3-2.5c.8-2.2 2.3-3.5 4.5-4.1h26.9l-3.1 6.6z" class="st3"/><path id="svg_16" d="M483.9 98l-1.8 17.2-3.1 6.5c-2.1-.5-3.4-1.9-3.7-4.1l2.4-22.9 1.8-1.6 4.4 4.9zm-4.3-6.5l-1.4-1.6 2.4-22.9c.8-2.2 2.3-3.5 4.5-4.1l1.8 6.5-1.8 17.2-5.5 4.9zm4.1 23.7h19.6l6.3 2.5c-.8 2.2-2.3 3.5-4.5 4.1h-24.5l3.1-6.6z" class="st3"/><path id="svg_17" d="M526.4 98l-1.8 17.2-2.7 2.5-3.7-4.1 2-18.8 1.8-1.6 4.4 4.8zm-4.2-6.5l-1.4-1.6 2-18.8 4.5-4.1 2.2 2.5-1.8 17.2-5.5 4.8zm25 27l-3.6 3.3h-18l-2.9-3.3 3.6-3.3h18l2.9 3.3zm1.9-49.1h-18l-2.9-3.3 3.6-3.3h18l2.9 3.3-3.6 3.3zm4 23.7l1.5 1.6-2 18.8-4.5 4.1-2.2-2.5 1.8-17.2 5.4-4.8zm-4.2-6.5l1.8-17.2 2.7-2.5 3.7 4.1-2 18.8-1.9 1.6-4.3-4.8z" class="st3"/><path id="svg_18" d="M591.1 121.8h-27c-2.1-.5-3.4-1.9-3.7-4.1l6.8-2.5h22.1l1.8 6.6zm-30.6-5.8l2.2-21.3 1.8-1.6L569 98l-1.6 15.5-6.9 2.5zm11.3-45l-1.6 15.5-5.5 4.9-1.4-1.6 2.2-21.3 6.3 2.5zm22.3-1.6h-22l-6.3-2.5c.8-2.2 2.3-3.5 4.5-4.1h26.9l-3.1 6.6z" class="st3"/><path id="svg_19" d="M611.5 98l-1.8 17.2-3.1 6.5c-2.1-.5-3.4-1.9-3.7-4.1l2.4-22.9 1.8-1.6 4.4 4.9zm-4.2-6.5l-1.4-1.6 2.4-22.9c.8-2.2 2.3-3.5 4.5-4.1l1.8 6.5-1.8 17.2-5.5 4.9zm26.5-2.5l2.9 3.3-3.6 3.3h-21.3l-2.9-3.3 3.7-3.3h21.2zm-19-6.5l21.7-19.6c3.3 0 5.3 1.1 6.2 3.3l-23.5 21.3h-4.9l.5-5zm23.4 10.6l1.5 1.6-2.4 22.9c-.8 2.2-2.3 3.5-4.5 4.1l-1.8-6.5 1.8-17.2 5.4-4.9z" class="st3"/></g></g></g><g id="svg_20"><g id="svg_21"><path id="svg_22" d="M220.5 34.1h-10.4l-1.8 10.6H205l4.9-28h13.7c3.6 0 5.5 2.4 4.9 6l-1 5.5c-.6 3.5-3.4 5.9-7 5.9zm4.7-11.3c.4-2-.7-3.2-2.6-3.2h-9.8l-2.1 11.6h9.8c2 0 3.5-1.2 3.8-3.2l.9-5.2z" class="st4"/><path id="svg_23" d="M238.9 44.7H234c-3.6 0-5.5-2.4-4.9-6l1.6-8.9c.6-3.6 3.4-6 7-6h4.9c3.6 0 5.6 2.4 4.9 6l-1.6 8.9c-.6 3.6-3.4 6-7 6zm5.5-14.9c.3-2-.6-3.2-2.6-3.2h-4.2c-2 0-3.5 1.2-3.8 3.2l-1.6 9c-.4 2 .7 3.2 2.7 3.2h4.2c2 0 3.4-1.3 3.8-3.2l1.5-9z" class="st4"/><path id="svg_24" d="M254.2 44.7l-2.8-20.8h3l2.2 17 8.1-17h3.1l2.1 17 8.2-17h3.2l-10.2 20.8h-3.5l-2.2-16.1-7.8 16.1h-3.4z" class="st4"/><path id="svg_25" d="M298.4 38.1l-.1.6c-.6 3.6-3.4 6-7 6h-4.9c-3.6 0-5.5-2.4-4.9-6l1.6-8.9c.6-3.6 3.4-6 7-6h4.9c3.6 0 5.6 2.4 4.9 6l-1 5.4h-13.7l-.6 3.5c-.4 2 .7 3.2 2.7 3.2h4.2c2 0 3.4-1.3 3.8-3.2l.1-.7h3v.1zm-12.8-5.3h10.6l.5-3c.3-2-.6-3.2-2.6-3.2H290c-2 0-3.5 1.2-3.8 3.2l-.6 3z" class="st4"/><path id="svg_26" d="M316.8 26.6c-2 0-2.9.3-3.9 1.2l-5.6 4.7-2.1 12.2h-3.1l3.6-20.8h2.4l.1 3.4-.3 1.8 3.7-3.1c1.6-1.4 3.3-2 5.6-2l-.4 2.6z" class="st4"/><path id="svg_27" d="M333.6 38.1l-.1.6c-.6 3.6-3.4 6-7 6h-4.9c-3.6 0-5.5-2.4-4.9-6l1.6-8.9c.6-3.6 3.4-6 7-6h4.9c3.6 0 5.6 2.4 4.9 6l-1 5.4h-13.7l-.6 3.5c-.4 2 .7 3.2 2.7 3.2h4.2c2 0 3.4-1.3 3.8-3.2l.1-.7h3v.1zm-12.8-5.3h10.6l.5-3c.3-2-.6-3.2-2.6-3.2h-4.2c-2 0-3.5 1.2-3.8 3.2l-.5 3z" class="st4"/><path id="svg_28" d="M351.5 39.5l-3.7 3.2c-1.7 1.5-3.3 2-5 2-3.6 0-5.5-2.4-4.8-5.9l1.6-8.9c.6-3.6 3.4-6 7-6h3c2.1 0 3.7.9 4.3 2.6l2-11.4h3.1l-5.2 29.6h-2.4l-.1-3.4.2-1.8zm1.7-9.9c.2-1.9-.7-3.1-2.6-3.1h-4.2c-2 0-3.4 1.2-3.8 3.2l-1.6 9c-.4 2 .7 3.2 2.6 3.2 1 0 1.8-.3 2.9-1.2l5.6-4.7 1.1-6.4z" class="st4"/><path id="svg_29" d="M376.3 29l3.7-3.2c1.8-1.5 3.3-2 5-2 3.6 0 5.5 2.4 4.9 5.9l-1.6 8.9c-.6 3.6-3.4 6-7 6h-3c-2.3 0-4-1-4.6-2.8l-.9 2.8h-2.4l5.2-29.6h3.1l-2.4 14zm-1.7 9.8c-.3 2 .6 3.2 2.6 3.2h4.2c2 0 3.5-1.2 3.8-3.2l1.6-9c.4-2-.7-3.2-2.6-3.2-1 0-1.8.3-2.9 1.2l-5.6 4.8-1.1 6.2z" class="st4"/><path id="svg_30" d="M393 52.7l4.5-8h-.2L393 23.9h3.2l3.6 17.4 9.6-17.4h3.3l-16.1 28.8H393z" class="st4"/><path id="svg_31" d="M444.7 25.7l.5-2.9c.4-2-.7-3.2-2.6-3.2h-7.8c-2 0-3.5 1.2-3.8 3.2l-2.8 15.8c-.4 2 .7 3.2 2.6 3.2h7.8c2 0 3.5-1.3 3.8-3.2l.5-2.9h3.3l-.6 3c-.6 3.6-3.4 6-7 6h-9c-3.6 0-5.5-2.4-4.9-6l2.8-16.1c.6-3.6 3.4-6 7-6h9c3.6 0 5.5 2.4 4.9 6l-.5 3h-3.2v.1z" class="st4"/><path id="svg_32" d="M463.6 44.7l2.6-14.9c.4-2-.7-3.2-2.6-3.2-1 0-1.8.3-2.9 1.2l-5.6 4.7-2.1 12.2h-3.1l5.2-29.6h3.1L455.7 29l3.7-3.1c1.8-1.5 3.3-2 5-2 3.6 0 5.5 2.4 4.9 5.9l-2.6 14.9h-3.1z" class="st4"/><path id="svg_33" d="M486.6 26.6c-2 0-2.9.3-3.9 1.2l-5.6 4.7-2.1 12.2h-3.1l3.6-20.8h2.4l.1 3.4-.3 1.8 3.7-3.1c1.6-1.4 3.3-2 5.6-2l-.4 2.6z" class="st4"/><path id="svg_34" d="M496.3 44.7h-4.9c-3.6 0-5.5-2.4-4.9-6l1.6-8.9c.6-3.6 3.4-6 7-6h4.9c3.6 0 5.6 2.4 4.9 6l-1.6 8.9c-.6 3.6-3.4 6-7 6zm5.5-14.9c.3-2-.6-3.2-2.6-3.2H495c-2 0-3.5 1.2-3.8 3.2l-1.6 9c-.4 2 .7 3.2 2.7 3.2h4.2c2 0 3.4-1.3 3.8-3.2l1.5-9z" class="st4"/><path id="svg_35" d="M520.8 44.7l2.6-14.9c.4-2-.7-3.2-2.6-3.2-1 0-1.8.3-2.9 1.2l-5.6 4.7-2.1 12.2h-3.1l3.6-20.8h2.4l.1 3.4-.3 1.8 3.7-3.1c1.7-1.5 3.3-2 5-2 3.6 0 5.5 2.4 4.9 5.9l-2.6 14.9h-3.1v-.1z" class="st4"/><path id="svg_36" d="M539.6 44.7h-4.9c-3.6 0-5.5-2.4-4.9-6l1.6-8.9c.6-3.6 3.4-6 7-6h4.9c3.6 0 5.6 2.4 4.9 6l-1.6 8.9c-.6 3.6-3.4 6-7 6zm5.5-14.9c.3-2-.6-3.2-2.6-3.2h-4.2c-2 0-3.5 1.2-3.8 3.2l-1.6 9c-.4 2 .7 3.2 2.7 3.2h4.2c2 0 3.4-1.3 3.8-3.2l1.5-9z" class="st4"/><path id="svg_37" d="M555.3 16.7h3.3l-4.4 25.1H569l-.5 2.9h-18.1l4.9-28z" class="st4"/><path id="svg_38" d="M582.1 44.7h-4.9c-3.6 0-5.5-2.4-4.9-6l1.6-8.9c.6-3.6 3.4-6 7-6h4.9c3.6 0 5.6 2.4 4.9 6l-1.6 8.9c-.6 3.6-3.4 6-7 6zm5.5-14.9c.3-2-.6-3.2-2.6-3.2h-4.2c-2 0-3.5 1.2-3.8 3.2l-1.6 9c-.4 2 .7 3.2 2.7 3.2h4.2c2 0 3.4-1.3 3.8-3.2l1.5-9z" class="st4"/><path id="svg_39" d="M607.1 39.5l-3.7 3.2c-1.8 1.5-3.3 2-5 2-3.6 0-5.5-2.4-4.8-5.9l1.6-8.9c.6-3.6 3.4-6 7-6h3c2.3 0 4 1 4.5 2.8l.9-2.8h2.4l-4 22.8c-.6 3.6-3.5 6-7 6h-5c-3.6 0-5.6-2.4-4.9-6l.1-.6h3.1l-.1.7c-.4 2 .6 3.2 2.6 3.2h4.2c2 0 3.5-1.2 3.8-3.2l1.3-7.3zm1.7-9.7c.3-2-.7-3.2-2.6-3.2H602c-2 0-3.4 1.2-3.8 3.2l-1.6 9c-.4 2 .7 3.2 2.6 3.2 1 0 1.8-.2 2.9-1.2l5.6-4.7 1.1-6.3z" class="st4"/><path id="svg_40" d="M618.2 23.9h3.1l-3.6 20.8h-3.1l3.6-20.8zm1.3-7.5h3.1l-.8 4.5h-3.1l.8-4.5z" class="st4"/><path id="svg_41" d="M640.5 37.7l-.2 1c-.6 3.6-3.4 6-7 6h-4.9c-3.6 0-5.5-2.4-4.9-6l1.6-8.9c.6-3.6 3.4-6 7-6h4.9c3.6 0 5.6 2.4 4.9 6l-.2 1h-3.1l.2-1.1c.3-2-.6-3.2-2.6-3.2H632c-2 0-3.5 1.2-3.8 3.2l-1.6 9c-.4 2 .7 3.2 2.7 3.2h4.2c2 0 3.4-1.3 3.8-3.2l.2-1.1h3v.1z" class="st4"/></g></g><g id="svg_42"><g id="svg_43"><g id="svg_44"><g id="svg_45"><path id="svg_46" d="M38 121.8H11c-2.1-.5-3.4-1.9-3.7-4.1l6.8-2.5h22.1l1.8 6.6zM7.5 116l2.2-21.3 1.8-1.6 4.4 4.9-1.6 15.5-6.8 2.5zm11.3-45l-1.6 15.5-5.5 4.9-1.4-1.6 2.2-21.3 6.3 2.5zM41 69.4H19l-6.3-2.5c.8-2.2 2.3-3.5 4.5-4.1h26.9L41 69.4zM38.2 89l2.9 3.3-3.6 3.3H16.1l-2.9-3.3 3.7-3.3h21.3z" class="st3"/><path id="svg_47" d="M61.6 69.4l-6.3-2.5c.8-2.2 2.3-3.5 4.5-4.1h26.1c2.1.5 3.4 1.9 3.7 4.1l-6.8 2.5H61.6zm8 23.7l2.9 3.3-2.2 21.3c-.8 2.2-2.3 3.5-4.5 4.1l-1.8-6.5 2-18.8 3.6-3.4zm-2.7-4.9L68.7 71h6.5l-1.8 17.2-3.7 3.3-2.8-3.3z" class="st3"/><path id="svg_48" d="M101 98l-1.8 17.2-3.1 6.5c-2.1-.5-3.4-1.9-3.7-4.1l2.4-22.9 1.8-1.6L101 98zm-4.4-5.7l-1.4-1.6 2.4-22.9c.8-2.2 2.3-3.5 4.5-4.1l1.8 6.5-1.8 17.2-5.5 4.9zm26.6-3.3l2.9 3.3-3.6 3.3h-21.3l-2.9-3.3L102 89h21.2zm4.5 4.1l1.5 1.6-2.4 22.9c-.8 2.2-2.3 3.5-4.5 4.1l-1.8-6.5 1.8-17.2 5.4-4.9zm-4.2-6.5l1.8-17.2 3.1-6.5c2.1.5 3.4 1.9 3.7 4.1l-2.4 22.9-1.9 1.6-4.3-4.9z" class="st3"/><path id="svg_49" d="M156.3 108.7h-6.5l.7-6.5h6.5l-.7 6.5zm2.8-26.2h-6.5l.7-6.5h6.5l-.7 6.5z" class="st3"/><path id="svg_50" d="M186.1 98l-1.8 17.2-3.1 6.5c-2.1-.5-3.4-1.9-3.7-4.1l2.4-22.9 1.8-1.6 4.4 4.9zm2.8-27l-1.6 15.5-5.5 4.9-1.4-1.6 2.2-21.3 6.3 2.5zm19.8-1.6h-19.6l-6.3-2.5c.8-2.2 2.3-3.5 4.5-4.1h24.5l-3.1 6.6zm-.4 19.6l2.9 3.3-3.6 3.3h-21.3l-2.9-3.3 3.7-3.3h21.2zm4.4 4.1l1.5 1.6-2.4 22.9c-.8 2.2-2.3 3.5-4.5 4.1l-1.8-6.5 1.8-17.2 5.4-4.9zm-4.1-6.5l1.8-17.2 3.1-6.5c2.1.5 3.4 1.9 3.7 4.1l-2.4 22.9-1.9 1.6-4.3-4.9z" class="st3"/><path id="svg_51" d="M228.6 98l-1.8 17.2-3.1 6.5c-2.1-.5-3.4-1.9-3.7-4.1l2.4-22.9 1.8-1.6 4.4 4.9zm-4.2-6.5l-1.4-1.6 2.4-22.9c.8-2.2 2.3-3.5 4.5-4.1l1.8 6.5-1.8 17.2-5.5 4.9zm4.1 23.7h19.6l6.3 2.5c-.8 2.2-2.3 3.5-4.5 4.1h-24.5l3.1-6.6z" class="st3"/><path id="svg_52" d="M271.2 98l-1.8 17.2-3.1 6.5c-2.1-.5-3.4-1.9-3.7-4.1l2.4-22.9 1.8-1.6 4.4 4.9zm2.8-27l-1.6 15.5-5.5 4.9-1.4-1.6 2.2-21.3L274 71zm19.8-1.6h-19.6l-6.3-2.5c.8-2.2 2.3-3.5 4.5-4.1h24.5l-3.1 6.6zm-.4 19.6l2.9 3.3-3.6 3.3h-21.3l-2.9-3.3 3.7-3.3h21.2zm4.4 4.1l1.5 1.6-2.4 22.9c-.8 2.2-2.3 3.5-4.5 4.1l-1.8-6.5 1.8-17.2 5.4-4.9zm-4.1-6.5l1.8-17.2 3.1-6.5c2.1.5 3.4 1.9 3.7 4.1l-2.4 22.9-1.9 1.6-4.3-4.9z" class="st3"/><path id="svg_53" d="M313.7 98l-1.8 17.2-3.1 6.5c-2.1-.5-3.4-1.9-3.7-4.1l2.4-22.9 1.8-1.6 4.4 4.9zm2.9-27L315 86.5l-5.5 4.9-1.4-1.6 2.2-21.3 6.3 2.5zm19.8-1.6h-19.6l-6.3-2.5c.8-2.2 2.3-3.5 4.5-4.1h24.5l-3.1 6.6zM336 89l2.9 3.3-3.6 3.3H314l-2.9-3.3 3.7-3.3H336zm-20.6 8.2h4.9l19.1 21.3c-1.3 2.2-3.6 3.3-6.9 3.3l-17.6-19.6.5-5zm20.8-10.6l1.8-17.2 3.1-6.5c2.1.5 3.4 1.9 3.7 4.1l-2.4 22.9-1.9 1.6-4.3-4.9z" class="st3"/><path id="svg_54" d="M356.3 98l-1.8 17.2-3.1 6.5c-2.1-.5-3.4-1.9-3.7-4.1l2.4-22.9 1.8-1.6 4.4 4.9zm2.8-27l-1.6 15.5-5.5 4.9-1.4-1.6 2.2-21.3 6.3 2.5zm19.8-1.6h-19.6l-6.3-2.5c.8-2.2 2.3-3.5 4.5-4.1H382l-3.1 6.6zm-7.8 20.5l-3.7 3.3-2.9-3.3 2-18.8h6.5l-1.9 18.8zm11.8 3.2l1.5 1.6-2.4 22.9c-.8 2.2-2.3 3.5-4.5 4.1l-1.8-6.5 1.8-17.2 5.4-4.9zm-4.1-6.5l1.8-17.2 3.1-6.5c2.1.5 3.4 1.9 3.7 4.1L385 89.9l-1.9 1.6-4.3-4.9z" class="st3"/><path id="svg_55" d="M411.6 108.7H405l.7-6.5h6.5l-.6 6.5zm2.7-26.2h-6.5l.7-6.5h6.5l-.7 6.5z" class="st3"/><path id="svg_56" d="M463.4 121.8h-27c-2.1-.5-3.4-1.9-3.7-4.1l6.8-2.5h22.1l1.8 6.6zm-30.5-5.8l2.2-21.3 1.8-1.6 4.4 4.9-1.6 15.5-6.8 2.5zm11.3-45l-1.6 15.5-5.5 4.9-1.4-1.6 2.2-21.3 6.3 2.5zm22.3-1.6h-22l-6.3-2.5c.8-2.2 2.3-3.5 4.5-4.1h26.9l-3.1 6.6z" class="st3"/><path id="svg_57" d="M483.9 98l-1.8 17.2-3.1 6.5c-2.1-.5-3.4-1.9-3.7-4.1l2.4-22.9 1.8-1.6 4.4 4.9zm-4.3-6.5l-1.4-1.6 2.4-22.9c.8-2.2 2.3-3.5 4.5-4.1l1.8 6.5-1.8 17.2-5.5 4.9zm4.1 23.7h19.6l6.3 2.5c-.8 2.2-2.3 3.5-4.5 4.1h-24.5l3.1-6.6z" class="st3"/><path id="svg_58" d="M526.4 98l-1.8 17.2-2.7 2.5-3.7-4.1 2-18.8 1.8-1.6 4.4 4.8zm-4.2-6.5l-1.4-1.6 2-18.8 4.5-4.1 2.2 2.5-1.8 17.2-5.5 4.8zm25 27l-3.6 3.3h-18l-2.9-3.3 3.6-3.3h18l2.9 3.3zm1.9-49.1h-18l-2.9-3.3 3.6-3.3h18l2.9 3.3-3.6 3.3zm4 23.7l1.5 1.6-2 18.8-4.5 4.1-2.2-2.5 1.8-17.2 5.4-4.8zm-4.2-6.5l1.8-17.2 2.7-2.5 3.7 4.1-2 18.8-1.9 1.6-4.3-4.8z" class="st3"/><path id="svg_59" d="M591.1 121.8h-27c-2.1-.5-3.4-1.9-3.7-4.1l6.8-2.5h22.1l1.8 6.6zm-30.6-5.8l2.2-21.3 1.8-1.6L569 98l-1.6 15.5-6.9 2.5zm11.3-45l-1.6 15.5-5.5 4.9-1.4-1.6 2.2-21.3 6.3 2.5zm22.3-1.6h-22l-6.3-2.5c.8-2.2 2.3-3.5 4.5-4.1h26.9l-3.1 6.6z" class="st3"/><path id="svg_60" d="M611.5 98l-1.8 17.2-3.1 6.5c-2.1-.5-3.4-1.9-3.7-4.1l2.4-22.9 1.8-1.6 4.4 4.9zm-4.2-6.5l-1.4-1.6 2.4-22.9c.8-2.2 2.3-3.5 4.5-4.1l1.8 6.5-1.8 17.2-5.5 4.9zm26.5-2.5l2.9 3.3-3.6 3.3h-21.3l-2.9-3.3 3.7-3.3h21.2zm-19-6.5l21.7-19.6c3.3 0 5.3 1.1 6.2 3.3l-23.5 21.3h-4.9l.5-5zm23.4 10.6l1.5 1.6-2.4 22.9c-.8 2.2-2.3 3.5-4.5 4.1l-1.8-6.5 1.8-17.2 5.4-4.9z" class="st3"/></g></g></g></g></svg>