<svg width="32" height="32" xmlns="http://www.w3.org/2000/svg"><g transform="translate(1 1)" fill="none" fill-rule="evenodd"><circle fill="#CDF4EF" cx="15" cy="15" r="15"/><path d="M16.112 9.966l-7.769 7.733a1 1 0 00-.294.708v2.944a.6.6 0 00.6.6h2.946a1 1 0 00.704-.29l7.771-7.703a.6.6 0 00.004-.849L16.96 9.97a.6.6 0 00-.85-.003z" fill="#05C0A5"/><path d="M17.414 9.578l3.124 3.057a.6.6 0 00.846-.007l1.247-1.26a.6.6 0 000-.845l-3.114-3.14a.6.6 0 00-.864.012l-1.257 1.344a.6.6 0 00.018.839z" fill="#5977EF"/></g></svg>