<svg xmlns="http://www.w3.org/2000/svg" fill="none" aria-hidden="true" viewBox="0 0 28 20"><path fill="#fff" d="M0 0h28v20H0V0z"/><path fill="#E41D33" fill-rule="evenodd" d="M0 6.667h28V0H0v6.667z" clip-rule="evenodd"/><path fill="#262626" fill-rule="evenodd" d="M0 20h28v-6.667H0V20z" clip-rule="evenodd"/><path fill="#F4B32E" fill-opacity=".25" stroke="#C6A846" stroke-width=".667" d="M12.368 9.482l.285.569.306-.557.001-.002.005-.01.023-.038c.115-.2.243-.39.383-.573.11-.148.238-.284.378-.404.134-.11.217-.134.251-.134.057 0 .151.031.281.136.126.1.252.242.369.398.142.191.27.393.38.604l.004.01.001.001.298.597.299-.597.574-1.149h.46c.185 0 .334.15.334.334v2.087a.333.333 0 01-.518.278l-.964-.643-.084-.056h-1.101v1a.333.333 0 01-.666 0v-1h-1.101l-.084.056-.964.643a.332.332 0 01-.518-.278V8.667c0-.184.15-.334.333-.334h.461l.574 1.15v-.001z"/></svg>