<svg width="28" height="28" xmlns="http://www.w3.org/2000/svg"><defs><linearGradient x1="3.164%" y1="100%" x2="53.095%" y2="25.033%" id="a"><stop stop-color="#F89923" offset="0%"/><stop stop-color="#F49822" offset="51%"/><stop stop-color="#EE9022" offset="69%"/><stop stop-color="#E38725" offset="82%"/><stop stop-color="#D57B28" offset="93%"/><stop stop-color="#C86F29" offset="100%"/></linearGradient><linearGradient x1="102.121%" y1="3.659%" x2="34.242%" y2="98.78%" id="b"><stop stop-color="#FBD702" offset="0%"/><stop stop-color="#FBD503" offset="53%"/><stop stop-color="#FBD10D" offset="73%"/><stop stop-color="#FAC917" offset="86%"/><stop stop-color="#F6BC17" offset="97%"/><stop stop-color="#F6B918" offset="100%"/></linearGradient></defs><g fill="none" fill-rule="evenodd"><circle fill="#6F2C91" fill-rule="nonzero" cx="14" cy="14" r="14"/><g stroke="#FFF" stroke-width=".08"><path d="M15.71 14.03l2.31.2-1.7-2.32zm-3.83.2l3.83-.2-1.26-1.09z"/><path d="M18.02 14.23l2.67-1.87-4.37-.45z"/><path d="M14.45 12.94l1.26 1.09.61-2.12z"/><path d="M16.32 11.91l-4.15-2.12 2.28 3.15z"/><path d="M14.45 12.94l-2.28-3.15-.29 2.57zm6.24-.58l-2.76-2.22-1.61 1.77z"/><path d="M17.93 10.14l-5.76-.35 4.15 2.12zM14.45 7.6l-2.28 2.19 5.76.35z"/><path d="M16.8 8.14l-2.35-.54 3.48 2.54zm2.77 2.35l-1.64-.35 2.76 2.22zm2.93 2.93l-1.81-1.06 1.87 4.06zm-7.41 2.32l.62-1.71-3.83.2zm7.47.68l-1.87-4.06-2.67 1.87z"/><path d="M11.88 12.36v1.87l2.57-1.29zm-.68-2.7l-1.99.87 2.96-.74zm.68 4.57l3.79 3.6-.58-2.09zm.35 4.44l3.44-.84-7.43-1.32z"/><path d="M12.84 15.16l-.96-.93-3.64 2.28 7.43 1.32-2.83-2.67m2.83 2.67l4.32-.13-4.9-1.96zm2.35-3.6l1.97 3.47 2.57-1.28z"/><path d="M15.71 14.03l4.28 3.67-1.97-3.47z"/><path d="M15.09 15.74l4.9 1.96-4.28-3.67zm-9.81 1.09l2.93 1.36.03-1.68zm5.69-2.02l.91-.58-3.25-1.06-.39 3.34 2.73-1.7m.91-2.45l-3.25.81 3.25 1.06z"/><path d="M9.21 10.53l-.58 2.64 3.25-.81zm-3.61 3.5l-.32 2.8 2.96-.32z"/><path d="M12.17 9.79l-2.96.74 2.67 1.83zm-3.54 3.38l-3.03.86 2.64 2.48zm-.42 5.02l4.02.48-3.99-2.16z"/></g><g fill-rule="nonzero"><path fill="url(#a)" d="M2.43 13.96L9.7 6.33H5.29z" transform="translate(9 6)"/><path fill="#F4EB21" d="M9.85 14.61h4.41l4.44-2.28h-4.41z"/><path fill="url(#b)" d="M7.45.41l-6.6 8.2h4.41z" transform="translate(9 6)"/></g></g></svg>