<svg width="64" height="64" xmlns="http://www.w3.org/2000/svg"><g fill="none"><path d="M59.371 17.493v34.712c0 1.969-1.627 3.564-3.634 3.564H8.092c-2.007 0-3.634-1.595-3.634-3.564V17.493H59.37z" fill="#CDF4EE"/><path d="M31.978 25C25.373 25 20 30.373 20 36.978c0 6.604 5.373 11.978 11.978 11.978 6.604 0 11.978-5.374 11.978-11.978C43.956 30.373 38.582 25 31.978 25zm9.22 10.647h-3.927c-.112-2.501-.536-4.83-1.224-6.665-.062-.165-.125-.32-.188-.472a9.342 9.342 0 015.34 7.137zm-18.44 2.662h3.927c.112 2.5.535 4.83 1.223 6.665.062.164.125.32.189.472a9.343 9.343 0 01-5.34-7.137zm5.15-9.327c-.688 1.835-1.111 4.164-1.223 6.665h-3.928a9.342 9.342 0 015.34-7.137 12.88 12.88 0 00-.189.472zm5.647 15.057c-.69 1.84-1.387 2.255-1.577 2.255-.19 0-.887-.414-1.577-2.255-.583-1.553-.946-3.553-1.052-5.73h5.258c-.106 2.177-.47 4.177-1.052 5.73zm-4.206-8.392c.106-2.178.47-4.177 1.052-5.73.69-1.841 1.387-2.255 1.577-2.255.19 0 .887.414 1.577 2.255.582 1.553.946 3.552 1.052 5.73h-5.258zm6.51 9.799c.063-.152.126-.308.188-.472.688-1.835 1.112-4.164 1.224-6.665h3.927a9.342 9.342 0 01-5.34 7.137z" fill="#05C0A5"/><path d="M59.371 17.493v-6.236c0-1.969-1.626-3.564-3.633-3.564H8.09c-2.007 0-3.633 1.595-3.633 3.564v6.236H59.37z" fill="#5A78F0"/><path d="M49.568 10.872h3.084c.852 0 1.542.677 1.542 1.512 0 .791-.62 1.44-1.409 1.507l-.133.005h-3.084c-.852 0-1.542-.677-1.542-1.512 0-.791.62-1.44 1.409-1.507l.133-.005h3.084-3.084zm-9.253 0h3.084c.852 0 1.542.677 1.542 1.512 0 .791-.62 1.44-1.409 1.507l-.133.005h-3.084c-.852 0-1.542-.677-1.542-1.512 0-.791.62-1.44 1.409-1.507l.133-.005h3.084-3.084zm-6.169 0c.852 0 1.543.677 1.543 1.512s-.69 1.512-1.543 1.512h-3.084c-.852 0-1.542-.677-1.542-1.512s.69-1.512 1.542-1.512h3.084z" fill="#FFF"/></g></svg>