<svg xmlns="http://www.w3.org/2000/svg" viewBox="0 0 60 60"><path d="M10 .5h40c5.2 0 9.5 4.3 9.5 9.5v40c0 5.2-4.3 9.5-9.5 9.5H10C4.8 59.5.5 55.2.5 50V10C.5 4.8 4.8.5 10 .5z" fill="#fff"/><path d="M10 .5h40c5.2 0 9.5 4.3 9.5 9.5v40c0 5.2-4.3 9.5-9.5 9.5H10C4.8 59.5.5 55.2.5 50V10C.5 4.8 4.8.5 10 .5z" fill="none" stroke="#c3f0e9"/><linearGradient id="a" gradientUnits="userSpaceOnUse" x1="30" y1="51.23" x2="30" y2="12.961" gradientTransform="matrix(1 0 0 -1 0 62)"><stop offset="0" stop-color="#2cd2bf"/><stop offset=".157" stop-color="#2ccec0"/><stop offset=".298" stop-color="#2cc3c4"/><stop offset=".434" stop-color="#2db1c9"/><stop offset=".566" stop-color="#2d97d1"/><stop offset=".695" stop-color="#2e76dc"/><stop offset=".823" stop-color="#2f4de9"/><stop offset=".946" stop-color="#301df8"/><stop offset="1" stop-color="#3006ff"/></linearGradient><path d="M30 10.9c-10.6 0-19.1 8.5-19.1 19.1S19.4 49.1 30 49.1 49.1 40.6 49.1 30 40.6 10.9 30 10.9zm14.7 17h-6.3c-.2-4-.9-7.7-1.9-10.7-.1-.3-.2-.5-.3-.8 4.5 2.1 7.8 6.4 8.5 11.5zm-29.4 4.2h6.3c.2 4 .9 7.7 1.9 10.7.1.3.2.5.3.8-4.5-2.1-7.8-6.4-8.5-11.5zm8.2-14.9c-1 2.9-1.8 6.6-1.9 10.7h-6.3c.7-5.1 4.1-9.3 8.5-11.4-.1.2-.2.4-.3.7zm9 24.1C31.4 44.2 30.3 45 30 45c-.3 0-1.4-.7-2.5-3.7-1-2.5-1.5-5.7-1.7-9.2h8.4c-.1 3.6-.8 6.7-1.7 9.2zm-6.8-13.4c.2-3.4.7-6.7 1.7-9.2 1.1-2.9 2.2-3.7 2.5-3.7s1.4.7 2.5 3.7c1 2.5 1.5 5.7 1.7 9.2h-8.4zm10.5 15.6c.1-.3.2-.5.3-.8 1-2.9 1.8-6.6 1.9-10.7h6.3c-.7 5.2-4 9.5-8.5 11.5z" fill="url(#a)"/></svg>