<svg xmlns="http://www.w3.org/2000/svg" viewBox="0 0 60 60"><path d="M10 .5h40c5.2 0 9.5 4.3 9.5 9.5v40c0 5.2-4.3 9.5-9.5 9.5H10C4.8 59.5.5 55.2.5 50V10C.5 4.8 4.8.5 10 .5z" fill="#fff"/><linearGradient id="a" gradientUnits="userSpaceOnUse" x1="19.512" y1="61.099" x2="18.83" y2="2.463" gradientTransform="matrix(1 0 0 -1 0 62)"><stop offset=".198" stop-color="#2cd7be"/><stop offset=".651" stop-color="#2878db"/><stop offset="1" stop-color="#2400ff"/></linearGradient><path d="M11 27.6c0 .4.3.7.7.7h15.2c.4 0 .7-.3.7-.7V12.4c0-.4-.3-.7-.7-.7H11.7c-.4 0-.7.3-.7.7v15.2zm4.1-11.1c0-.4.3-.7.7-.7h6.9c.4 0 .7.3.7.7v6.9c0 .4-.3.7-.7.7h-6.9c-.4 0-.7-.3-.7-.7v-6.9z" fill="url(#a)"/><linearGradient id="b" gradientUnits="userSpaceOnUse" x1="19.753" y1="61.096" x2="19.071" y2="2.46" gradientTransform="matrix(1 0 0 -1 0 62)"><stop offset=".198" stop-color="#2cd7be"/><stop offset=".651" stop-color="#2878db"/><stop offset="1" stop-color="#2400ff"/></linearGradient><path d="M11 48.3c0 .4.3.7.7.7h15.2c.4 0 .7-.3.7-.7V33.1c0-.4-.3-.7-.7-.7H11.7c-.4 0-.7.3-.7.7v15.2zm4.1-11.1c0-.4.3-.7.7-.7h6.9c.4 0 .7.3.7.7v6.9c0 .4-.3.7-.7.7h-6.9c-.4 0-.7-.3-.7-.7v-6.9z" fill="url(#b)"/><linearGradient id="c" gradientUnits="userSpaceOnUse" x1="40.248" y1="60.858" x2="39.566" y2="2.222" gradientTransform="matrix(1 0 0 -1 0 62)"><stop offset=".198" stop-color="#2cd7be"/><stop offset=".651" stop-color="#2878db"/><stop offset="1" stop-color="#2400ff"/></linearGradient><path d="M32.4 11.7c-.4 0-.7.3-.7.7v15.2c0 .4.3.7.7.7h15.2c.4 0 .7-.3.7-.7V12.4c0-.4-.3-.7-.7-.7H32.4zm11.8 11.7c0 .4-.3.7-.7.7h-6.9c-.4 0-.7-.3-.7-.7v-6.9c0-.4.3-.7.7-.7h6.9c.4 0 .7.3.7.7v6.9z" fill="url(#c)"/><linearGradient id="d" gradientUnits="userSpaceOnUse" x1="46.782" y1="60.782" x2="46.1" y2="2.146" gradientTransform="matrix(1 0 0 -1 0 62)"><stop offset=".198" stop-color="#2cd7be"/><stop offset=".651" stop-color="#2878db"/><stop offset="1" stop-color="#2400ff"/></linearGradient><path d="M47.6 44.9h-2.8c-.4 0-.7.3-.7.7v2.8c0 .4.3.7.7.7h2.8c.4 0 .7-.3.7-.7v-2.8c0-.4-.3-.7-.7-.7z" fill="url(#d)"/><linearGradient id="e" gradientUnits="userSpaceOnUse" x1="34.196" y1="60.928" x2="33.514" y2="2.292" gradientTransform="matrix(1 0 0 -1 0 62)"><stop offset=".198" stop-color="#2cd7be"/><stop offset=".651" stop-color="#2878db"/><stop offset="1" stop-color="#2400ff"/></linearGradient><path d="M35.2 32.4h-2.8c-.4 0-.7.3-.7.7v2.8c0 .4.3.7.7.7h2.8c.4 0 .7-.3.7-.7v-2.8c0-.4-.3-.7-.7-.7z" fill="url(#e)"/><linearGradient id="f" gradientUnits="userSpaceOnUse" x1="38.391" y1="60.88" x2="37.709" y2="2.243" gradientTransform="matrix(1 0 0 -1 0 62)"><stop offset=".198" stop-color="#2cd7be"/><stop offset=".651" stop-color="#2878db"/><stop offset="1" stop-color="#2400ff"/></linearGradient><path d="M39.3 36.6h-2.8c-.4 0-.7.3-.7.7V40c0 .4.3.7.7.7h2.8c.4 0 .7-.3.7-.7v-2.8c0-.3-.3-.6-.7-.6z" fill="url(#f)"/><linearGradient id="g" gradientUnits="userSpaceOnUse" x1="34.292" y1="60.927" x2="33.61" y2="2.291" gradientTransform="matrix(1 0 0 -1 0 62)"><stop offset=".198" stop-color="#2cd7be"/><stop offset=".651" stop-color="#2878db"/><stop offset="1" stop-color="#2400ff"/></linearGradient><path d="M35.2 40.7h-2.8c-.4 0-.7.3-.7.7v2.8c0 .4.3.7.7.7h2.8c.4 0 .7-.3.7-.7v-2.8c0-.4-.3-.7-.7-.7z" fill="url(#g)"/><linearGradient id="h" gradientUnits="userSpaceOnUse" x1="38.487" y1="60.879" x2="37.806" y2="2.242" gradientTransform="matrix(1 0 0 -1 0 62)"><stop offset=".198" stop-color="#2cd7be"/><stop offset=".651" stop-color="#2878db"/><stop offset="1" stop-color="#2400ff"/></linearGradient><path d="M39.3 44.9h-2.8c-.4 0-.7.3-.7.7v2.8c0 .4.3.7.7.7h2.8c.4 0 .7-.3.7-.7v-2.8c0-.4-.3-.7-.7-.7z" fill="url(#h)"/><linearGradient id="i" gradientUnits="userSpaceOnUse" x1="42.586" y1="60.831" x2="41.905" y2="2.195" gradientTransform="matrix(1 0 0 -1 0 62)"><stop offset=".198" stop-color="#2cd7be"/><stop offset=".651" stop-color="#2878db"/><stop offset="1" stop-color="#2400ff"/></linearGradient><path d="M43.5 40.7h-2.8c-.4 0-.7.3-.7.7v2.8c0 .4.3.7.7.7h2.8c.4 0 .7-.3.7-.7v-2.8c0-.4-.3-.7-.7-.7z" fill="url(#i)"/><linearGradient id="j" gradientUnits="userSpaceOnUse" x1="42.49" y1="60.832" x2="41.808" y2="2.196" gradientTransform="matrix(1 0 0 -1 0 62)"><stop offset=".198" stop-color="#2cd7be"/><stop offset=".651" stop-color="#2878db"/><stop offset="1" stop-color="#2400ff"/></linearGradient><path d="M43.5 32.4h-2.8c-.4 0-.7.3-.7.7v2.8c0 .4.3.7.7.7h2.8c.4 0 .7-.3.7-.7v-2.8c0-.4-.3-.7-.7-.7z" fill="url(#j)"/><linearGradient id="k" gradientUnits="userSpaceOnUse" x1="46.685" y1="60.783" x2="46.004" y2="2.147" gradientTransform="matrix(1 0 0 -1 0 62)"><stop offset=".198" stop-color="#2cd7be"/><stop offset=".651" stop-color="#2878db"/><stop offset="1" stop-color="#2400ff"/></linearGradient><path d="M47.6 36.6h-2.8c-.4 0-.7.3-.7.7V40c0 .4.3.7.7.7h2.8c.4 0 .7-.3.7-.7v-2.8c0-.3-.3-.6-.7-.6z" fill="url(#k)"/><path d="M10 .5h40c5.2 0 9.5 4.3 9.5 9.5v40c0 5.2-4.3 9.5-9.5 9.5H10C4.8 59.5.5 55.2.5 50V10C.5 4.8 4.8.5 10 .5z" fill="none" stroke="#c3f0e9"/></svg>