<svg width="64" height="64" xmlns="http://www.w3.org/2000/svg"><g fill="none" fill-rule="evenodd"><g fill-rule="nonzero"><path d="M8.37 33.78h4.02a2 2 0 012 2v11.6a2 2 0 01-2 2H8.37a2 2 0 01-2-2v-11.6a2 2 0 012-2zm14-14h4.02a2 2 0 012 2v25.3a2 2 0 01-2 2h-4.02a2 2 0 01-2-2v-25.3a2 2 0 012-2z" fill="#1CC5AD"/><path d="M36.37 23.78h4.02a2 2 0 012 2v21a2 2 0 01-2 2h-4.02a2 2 0 01-2-2v-21a2 2 0 012-2zm14-12.6h4.02a2 2 0 012 2v34a2 2 0 01-2 2h-4.02a2 2 0 01-2-2v-34a2 2 0 012-2z" fill="#05C0A5"/></g><path d="M50.26 53.6C56.19 53.6 61 48.765 61 42.8 61 36.835 56.191 32 50.26 32c-5.933 0-10.742 4.835-10.742 10.8 0 5.965 4.809 10.8 10.741 10.8z" fill="#5A78F0"/><path d="M50.26 34.842l-4.523 8.608 4.522 2.429 4.523-2.43-4.523-8.607z" fill="#FFF"/><path d="M50.26 46.903l-4.523-2.398 4.522 6.253 4.523-6.253-4.523 2.398z" fill="#FFF"/></g></svg>