<svg xmlns="http://www.w3.org/2000/svg" viewBox="0 0 512 512"><circle cx="256" cy="256" r="256" fill="#0052b4"/><path d="M256.001 100.174l8.289 25.509h26.82l-21.699 15.765 8.289 25.509-21.699-15.766-21.7 15.766 8.289-25.509-21.699-15.765h26.821zm-110.187 45.64l23.9 12.176 18.965-18.964-4.197 26.49 23.899 12.177-26.491 4.196-4.196 26.492-12.177-23.899-26.49 4.197 18.965-18.965zM100.175 256l25.509-8.289V220.89l15.764 21.7 25.51-8.289L151.191 256l15.767 21.699-25.51-8.288-15.764 21.699v-26.821zm45.639 110.186l12.177-23.9-18.964-18.965 26.491 4.198 12.175-23.899 4.197 26.491 26.49 4.196-23.896 12.177 4.195 26.49-18.965-18.965zm110.187 45.64l-8.29-25.509h-26.82l21.7-15.765-8.29-25.507 21.7 15.764 21.699-15.764-8.289 25.507 21.699 15.765h-26.821zm110.186-45.64l-23.899-12.176-18.966 18.965 4.197-26.492-23.897-12.176 26.49-4.196 4.196-26.491 12.176 23.899 26.49-4.198-18.965 18.967zM411.826 256l-25.509 8.289v26.821l-15.765-21.7-25.507 8.289L360.81 256l-15.765-21.699 25.508 8.289 15.764-21.7v26.822zm-45.639-110.186l-12.177 23.9 18.965 18.965-26.492-4.198-12.175 23.899-4.196-26.491-26.49-4.197 23.897-12.176-4.197-26.489 18.967 18.964z" fill="#ffda44"/></svg>