<svg width="180" height="40" fill="none" xmlns="http://www.w3.org/2000/svg"><g clip-path="url(#clip0)" fill="#2A2C2D"><path d="M-.01 2.266v36.476h5.223V23.139h16.993v-5.27H5.223V7.536H24.22v-5.27H-.01zm41.317 36.532h5.223V13.27l17.459 25.517h4.131V2.267h-5.167V27.98L45.336 2.257l-4.03-.056v36.597zm-11.211 0h5.289V2.313h-5.289v36.485zM175.784 6.603a28.784 28.784 0 00-.624-1.436 39.62 39.62 0 00-.812-1.772 22.262 22.262 0 00-.615-1.222 79.67 79.67 0 00-.187 2.584c-.047.932-.084 1.865-.112 2.816h-.951c.056-1.222.124-2.444.205-3.665.083-1.12.182-2.24.299-3.358h.858a41.041 41.041 0 011.8 3.656l.531 1.213c.378-.848.754-1.697 1.129-2.546A40.64 40.64 0 01178.517.55h.839c.234 2.267.401 4.608.513 7.023h-.951c-.033-.939-.074-1.878-.121-2.816a61.149 61.149 0 00-.177-2.584 10.94 10.94 0 00-.625 1.231 283.35 283.35 0 01-.812 1.772c-.203.477-.409.952-.615 1.427h-.784zM171.643.55v.85h-2.182v6.174h-.979V1.4h-2.183V.55h5.344zm-15.705 1.716l-8.627 15.883-8.618-15.883h-5.763l11.257 20.752h.018l.504.932v14.83h5.213V24.024l.513-1.007 11.267-20.752h-5.764zM74.052 38.798h5.223V13.27l17.459 25.517h4.131V2.267h-5.167V27.98L78.081 2.257 74.05 2.2v36.597zm32.4-36.532v36.532h25.041v-5.26h-19.837V22.216h16.508v-5.26h-16.508v-9.43h18.643v-5.26h-23.847z"/></g><defs><clipPath id="clip0"><path fill="#fff" d="M0 0h180v39.171H0z"/></clipPath></defs></svg>