<svg xmlns="http://www.w3.org/2000/svg" viewBox="0 0 300 300"><path d="M139.5 32.7c5.8-3.1 14.6-3.1 20.4 0 35.5 18.8 55.2 29.2 59.2 31.3 3.5 1.8 5.4 4.6 5.8 7.4h.1v157.1c-.1 3.1-2 6.2-5.8 8.2-35.5 18.8-55.2 29.2-59.2 31.3-5.8 3.1-14.6 3.1-20.4 0-35.5-18.8-55.2-29.2-59.2-31.3-3.8-2-5.6-5.1-5.7-8.2V71.3c.3-2.9 2.1-5.5 5.7-7.4 31.5-16.6 51.3-27 59.1-31.2zM160 188.5c-5.8 3.1-14.6 3.1-20.4 0L84 159.1v69.1c33.3 17.5 51.8 27.2 55.5 29.2 3.3 1.8 6.7 3.5 10 3.5h.2c3.3 0 6.5-1.7 9.8-3.3l56.1-29.7V159c-33.4 17.7-51.9 27.5-55.6 29.5zm-92.8 49.4c1.1 2.3 2.9 4.1 6 6.2l.2.1c.7.5 1.5 1 2.4 1.5.1 0 .4.3 1.1.7l3.4 2-4.8 8-3.8-2.3c-.4-.2-.6-.4-.6-.4-1.1-.7-2-1.2-2.8-1.8-9-6.1-12.3-12.7-12.4-26.4v-.4h9.3c.3 6.6 1 10.9 2 12.8zm77.9-121c-.4.1-.8.3-1.2.5-35.5 18.8-55.2 29.2-59.2 31.3-.1 0-.1.1-.2.1l.1.1.1.1c35.5 18.8 55.2 29.2 59.2 31.3.4.2.8.4 1.2.5v-63.9zm9.3 63.8c.4-.1.8-.3 1.2-.5 35.5-18.8 55.2-29.2 59.2-31.3.1 0 .1-.1.2-.1l-.1-.1-.1-.1c-35.5-18.8-55.2-29.2-59.2-31.3-.4-.2-.8-.4-1.2-.5v63.9zm8.1-70.1l53.1 28V82.5l-53.1 28.1zm-78.5 28l53-28-53-28v56zM155.6 41c-3.1-1.6-8.6-1.6-11.7 0-35.5 18.8-55.2 29.2-59.2 31.3-.1 0-.1.1-.2.1l.1.1.1.1c35.5 18.8 55.2 29.2 59.2 31.3 3.1 1.6 8.6 1.6 11.7 0 35.5-18.8 55.2-29.2 59.2-31.3.1 0 .1-.1.2-.1l-.1-.1-.1-.1c-31.6-16.8-51.3-27.2-59.2-31.3zm72.5 5.7c.4.2.6.4.6.4 1.1.7 2 1.2 2.8 1.8 9 6.1 12.3 12.7 12.4 26.4v.4h-9.3c0-6-.7-10-2.1-12.8-1.1-2.3-2.9-4.1-6-6.2l-.2-.1c-.7-.5-1.5-1-2.4-1.5-.1 0-.4-.3-1.1-.7l-3.4-2 4.8-8 3.9 2.3z" fill="#fbfbfb"/><path d="M139.5 32.7c5.8-3.1 14.6-3.1 20.4 0 35.5 18.8 55.2 29.2 59.2 31.3 3.5 1.8 5.4 4.6 5.8 7.4h.1v157.1c-.1 3.1-2 6.2-5.8 8.2-35.5 18.8-55.2 29.2-59.2 31.3-5.8 3.1-14.6 3.1-20.4 0-35.5-18.8-55.2-29.2-59.2-31.3-3.8-2-5.6-5.1-5.7-8.2V71.3c.3-2.9 2.1-5.5 5.7-7.4 31.5-16.6 51.3-27 59.1-31.2zM160 188.5c-5.8 3.1-14.6 3.1-20.4 0L84 159.1v69.1c33.3 17.5 51.8 27.2 55.5 29.2 3.3 1.8 6.7 3.5 10 3.5h.2c3.3 0 6.5-1.7 9.8-3.3l56.1-29.7V159c-33.4 17.7-51.9 27.5-55.6 29.5zm-92.8 49.4c1.1 2.3 2.9 4.1 6 6.2l.2.1c.7.5 1.5 1 2.4 1.5.1 0 .4.3 1.1.7l3.4 2-4.8 8-3.8-2.3c-.4-.2-.6-.4-.6-.4-1.1-.7-2-1.2-2.8-1.8-9-6.1-12.3-12.7-12.4-26.4v-.4h9.3c.3 6.6 1 10.9 2 12.8zm77.9-121c-.4.1-.8.3-1.2.5-35.5 18.8-55.2 29.2-59.2 31.3-.1 0-.1.1-.2.1l.1.1.1.1c35.5 18.8 55.2 29.2 59.2 31.3.4.2.8.4 1.2.5v-63.9zm9.3 63.8c.4-.1.8-.3 1.2-.5 35.5-18.8 55.2-29.2 59.2-31.3.1 0 .1-.1.2-.1l-.1-.1-.1-.1c-35.5-18.8-55.2-29.2-59.2-31.3-.4-.2-.8-.4-1.2-.5v63.9zm8.1-70.1l53.1 28V82.5l-53.1 28.1zm-78.5 28l53-28-53-28v56zM155.6 41c-3.1-1.6-8.6-1.6-11.7 0-35.5 18.8-55.2 29.2-59.2 31.3-.1 0-.1.1-.2.1l.1.1.1.1c35.5 18.8 55.2 29.2 59.2 31.3 3.1 1.6 8.6 1.6 11.7 0 35.5-18.8 55.2-29.2 59.2-31.3.1 0 .1-.1.2-.1l-.1-.1-.1-.1c-31.6-16.8-51.3-27.2-59.2-31.3zm72.5 5.7c.4.2.6.4.6.4 1.1.7 2 1.2 2.8 1.8 9 6.1 12.3 12.7 12.4 26.4v.4h-9.3c0-6-.7-10-2.1-12.8-1.1-2.3-2.9-4.1-6-6.2l-.2-.1c-.7-.5-1.5-1-2.4-1.5-.1 0-.4-.3-1.1-.7l-3.4-2 4.8-8 3.9 2.3z" fill="none"/></svg>