<svg width="58" height="58" xmlns="http://www.w3.org/2000/svg" xmlns:xlink="http://www.w3.org/1999/xlink"><defs><linearGradient x1="18.75%" y1="-11.25%" x2="86.25%" y2="100%" id="c"><stop stop-color="#85FFBC" offset="0%"/><stop stop-color="#FFEA14" offset="100%"/></linearGradient><filter x="-7.7%" y="-7.7%" width="119.2%" height="119.2%" filterUnits="objectBoundingBox" id="a"><feOffset dx="1" dy="1" in="SourceAlpha" result="shadowOffsetOuter1"/><feGaussianBlur stdDeviation="1.5" in="shadowOffsetOuter1" result="shadowBlurOuter1"/><feColorMatrix values="0 0 0 0 0 0 0 0 0 0 0 0 0 0 0 0 0 0 0.144927536 0" in="shadowBlurOuter1"/></filter><rect id="b" x="0" y="0" width="52" height="52" rx="26"/></defs><g fill="none" fill-rule="evenodd"><g transform="translate(2 2)"><use fill="#000" filter="url(#a)" xlink:href="#b"/><use fill="url(#c)" xlink:href="#b"/></g><path d="M39.414 28.655c0-.756-.413-1.42-1.078-1.732l-2.741-1.288 2.74-1.288c.666-.312 1.079-.976 1.079-1.732s-.413-1.42-1.078-1.733l-6.56-3.082a8.365 8.365 0 00-7.138 0l-6.56 3.082A1.887 1.887 0 0017 22.615c0 .756.413 1.42 1.078 1.732l2.74 1.288-2.74 1.288c-.665.312-1.078.976-1.078 1.732s.413 1.42 1.078 1.732l2.74 1.288-2.74 1.288A1.887 1.887 0 0017 34.696c0 .756.413 1.42 1.078 1.732l6.56 3.083c1.134.533 2.352.8 3.569.8a8.383 8.383 0 003.569-.8l6.56-3.083c.665-.312 1.078-.976 1.078-1.732s-.413-1.42-1.078-1.733l-2.741-1.288 2.74-1.288c.666-.312 1.079-.976 1.079-1.732m-1.75.2l-5.996 2.818 5.995 2.823a.208.208 0 01.125.2.208.208 0 01-.125.2l-6.56 3.082a6.792 6.792 0 01-5.793 0l-6.56-3.083a.208.208 0 01-.124-.2c0-.064.022-.15.124-.199l4.036-1.896 1.85.87c1.135.533 2.353.8 3.57.8a8.388 8.388 0 003.571-.8l.531-.25-2.039-.957a6.792 6.792 0 01-4.96-.326l-6.559-3.083a.207.207 0 01-.124-.199.21.21 0 01.124-.2l4.036-1.896 1.853.871c1.134.533 2.35.8 3.568.8a8.388 8.388 0 003.568-.8l.531-.25-2.04-.957a6.787 6.787 0 01-4.955-.325l-6.56-3.084a.208.208 0 01-.125-.2c0-.064.022-.15.124-.2l6.56-3.082a6.79 6.79 0 015.793 0l6.56 3.083a.208.208 0 01.125.2.208.208 0 01-.125.2l-5.998 2.818 5.998 2.822a.208.208 0 01.125.2.207.207 0 01-.125.2" fill="#25435A"/></g></svg>