<svg width="28" height="28" xmlns="http://www.w3.org/2000/svg"><g fill="none" fill-rule="evenodd"><path d="M13.075 26.97C5.447 26.444-.051 19.684 1.22 12.403c.908-5.213 5.198-9.35 10.603-10.226 4.17-.676 8.343.605 11.333 3.49 6.12 5.902 4.662 15.718-2.947 19.803-2.072 1.118-4.705 1.668-7.134 1.5z" fill="#FFF"/><g fill-rule="nonzero"><path d="M12.581.037C4.61.626-1.136 8.196.191 16.35c.95 5.838 5.433 10.47 11.083 11.452 4.357.756 8.719-.678 11.844-3.908 6.396-6.61 4.872-17.602-3.08-22.178C17.872.464 15.121-.15 12.581.036zM11.32 6.772c.404.224.899.71 1.217 1.194.232.36.798 1.519.798 1.639 0 .047.085.067.237.067.156 0 .242-.02.242-.067 0-.12.566-1.279.798-1.639.313-.48.808-.97 1.217-1.194l.343-.193h1.11l.333.161c.616.293.914.793.914 1.54 0 .542-.106.87-.424 1.272l-.263.34 1.257.005c1.373 0 1.545.026 1.878.287.778.615.56 1.914-.378 2.259l-.228.078h-6.24v-2.243h-1.116v2.242h-6.24l-.232-.078c-.939-.345-1.156-1.644-.374-2.26.334-.26.5-.286 1.879-.286l1.257-.005-.268-.34c-.313-.401-.419-.73-.419-1.273 0-1.106.707-1.747 1.878-1.71l.48.015.343.188zm1.696 10.6v4.138l-2.16-.016-2.166-.015-.394-.199a2.434 2.434 0 01-1.293-1.612l-.08-.318v-6.114h6.093v4.137zm7.21-1.08v3.058l-.08.318a2.448 2.448 0 01-1.293 1.612l-.4.199-2.16.015-2.16.016v-8.274h6.093v3.057z" fill="#7E27FF"/><path d="M10.012 8.066l-.137.14.025.235c.066.58.702 1.007 1.742 1.169l.298.047-.055-.141c-.54-1.263-1.409-1.936-1.873-1.45zm6.336-.032c-.339.183-.803.82-1.086 1.482l-.06.14.297-.046c1.04-.162 1.682-.59 1.742-1.169l.03-.235-.136-.14c-.171-.178-.5-.188-.787-.032z" fill="#000"/></g></g></svg>