<svg viewBox="0 0 256 256" fill="none" xmlns="http://www.w3.org/2000/svg"><path d="M188.124 118.141a6.643 6.643 0 00-4.434-1.648l-58.355.012c-7.712 0-13.686 7.3-11.118 15.242 1.549 4.792 6.49 7.753 11.611 7.753h33.7c.6.002 1.19.152 1.717.434.526.282.973.689 1.299 1.183.326.494.522 1.06.569 1.647a3.474 3.474 0 01-.298 1.714c-3.236 7.099-8.497 13.127-15.148 17.357a41.637 41.637 0 01-22.332 6.482c-25.336 0-45.314-22.507-40.313-48.253 3.118-16.051 16.466-28.855 32.863-31.728a41.565 41.565 0 0117.512.586 41.108 41.108 0 0115.647 7.739c.087.026.172.06.253.1 4.926 4.073 13.899 3.939 18.047-.896 3.637-4.245 3.582-10.593.199-14.78-11.575-10.51-26.984-17.013-43.943-17.08-5.314-.023-10.289-3.437-11.598-8.49C112.019 47.864 117.86 41 125.335 41 174.224 41 214 80.027 214 127.999 214 175.971 174.221 215 125.335 215c-7.559 0-13.446-7.018-11.262-14.774 1.37-4.868 6.099-8.23 11.248-8.23 35.968.006 65.234-28.705 65.234-63.997 0-1.928-.098-3.831-.283-5.711a6.405 6.405 0 00-2.148-4.147z" fill="url(#paint0_linear)"/><path d="M102.271 59.125c0 6.006-4.84 10.875-10.813 10.875-5.971 0-10.812-4.869-10.812-10.875s4.84-10.875 10.813-10.875c5.971 0 10.812 4.869 10.812 10.875z" fill="url(#paint1_linear)"/><path d="M77.042 91.75c0 6.006-4.841 10.875-10.813 10.875-5.971 0-10.812-4.869-10.812-10.875s4.84-10.875 10.812-10.875c5.972 0 10.813 4.869 10.813 10.875z" fill="url(#paint2_linear)"/><path d="M51.813 135.25c5.971 0 10.812-4.869 10.812-10.875S57.785 113.5 51.812 113.5C45.841 113.5 41 118.369 41 124.375s4.84 10.875 10.813 10.875z" fill="url(#paint3_linear)"/><path d="M77.042 164.25c0 6.006-4.841 10.875-10.813 10.875-5.971 0-10.812-4.869-10.812-10.875s4.84-10.875 10.812-10.875c5.972 0 10.813 4.869 10.813 10.875z" fill="url(#paint4_linear)"/><path d="M91.459 207.75c5.971 0 10.812-4.869 10.812-10.875S97.431 186 91.458 186c-5.971 0-10.812 4.869-10.812 10.875s4.84 10.875 10.813 10.875z" fill="url(#paint5_linear)"/><path fill-rule="evenodd" clip-rule="evenodd" d="M256 128c0 70.692-57.308 128-128 128C57.308 256 0 198.692 0 128 0 57.308 57.308 0 128 0c70.692 0 128 57.308 128 128zm-16 0c0 61.856-50.144 112-112 112S16 189.856 16 128 66.144 16 128 16s112 50.144 112 112z" fill="url(#paint6_linear)"/><defs><linearGradient id="paint0_linear" x1="128" y1="256" x2="128" y2="0" gradientUnits="userSpaceOnUse"><stop stop-color="#9F2FFF"/><stop offset="1" stop-color="#0BB1D3"/></linearGradient><linearGradient id="paint1_linear" x1="128" y1="256" x2="128" y2="0" gradientUnits="userSpaceOnUse"><stop stop-color="#9F2FFF"/><stop offset="1" stop-color="#0BB1D3"/></linearGradient><linearGradient id="paint2_linear" x1="128" y1="256" x2="128" y2="0" gradientUnits="userSpaceOnUse"><stop stop-color="#9F2FFF"/><stop offset="1" stop-color="#0BB1D3"/></linearGradient><linearGradient id="paint3_linear" x1="128" y1="256" x2="128" y2="0" gradientUnits="userSpaceOnUse"><stop stop-color="#9F2FFF"/><stop offset="1" stop-color="#0BB1D3"/></linearGradient><linearGradient id="paint4_linear" x1="128" y1="256" x2="128" y2="0" gradientUnits="userSpaceOnUse"><stop stop-color="#9F2FFF"/><stop offset="1" stop-color="#0BB1D3"/></linearGradient><linearGradient id="paint5_linear" x1="128" y1="256" x2="128" y2="0" gradientUnits="userSpaceOnUse"><stop stop-color="#9F2FFF"/><stop offset="1" stop-color="#0BB1D3"/></linearGradient><linearGradient id="paint6_linear" x1="128" y1="256" x2="128" y2="0" gradientUnits="userSpaceOnUse"><stop stop-color="#9F2FFF"/><stop offset="1" stop-color="#0BB1D3"/></linearGradient></defs></svg>