<svg width="32" height="32" xmlns="http://www.w3.org/2000/svg"><g fill="none" fill-rule="evenodd"><circle stroke="#FFF" cx="16" cy="16" r="15.5"/><path d="M9.478 15.845c.112 0 .225-.04.314-.121l1.455-1.317v6.677c0 .773.63 1.402 1.404 1.402h7.49c.774 0 1.404-.629 1.404-1.402v-6.627l1.383 1.266a.468.468 0 10.632-.69l-6.848-6.265c-.018-.017-.041-.023-.06-.036-.027-.018-.052-.037-.08-.049-.03-.011-.058-.015-.088-.021-.029-.006-.057-.013-.087-.013-.03 0-.058.007-.088.013-.03.005-.058.009-.087.02-.029.011-.053.03-.079.047-.02.014-.043.02-.062.037l-6.918 6.265a.468.468 0 00.315.814zm8.088 5.706h-2.34v-3.764c0-.258.21-.468.468-.468h1.403c.259 0 .469.21.469.468v3.764zm3.043-7.88v7.413c0 .258-.21.467-.468.467H18.5v-3.764c0-.773-.63-1.403-1.404-1.403h-1.403c-.775 0-1.404.63-1.404 1.403v3.764h-1.64a.469.469 0 01-.468-.467V13.67c0-.034-.012-.063-.019-.094l4.23-3.831 4.228 3.866c-.003.02-.012.038-.012.059z" fill="#FFF" fill-rule="nonzero"/></g></svg>