<svg xmlns="http://www.w3.org/2000/svg" width="2429" height="2689"><path d="M1216 8.688l3.242.005c26.45.076 51.855 2.78 77.758 8.307l2.991.635C1326.688 23.46 1352.567 32.824 1377 45l3.144 1.555C1422.33 67.56 1462.334 96.952 1493 133l2.352 2.688c45.153 51.94 74.555 116.975 84.898 184.937l.458 2.988c2.98 21.01 3.616 42.069 3.824 63.256.201 18.818.577 37.804 4.655 56.256l.654 3.007c6.655 29.302 20.67 55.15 40.159 77.868l1.832 2.203c21.116 24.977 52.77 40.588 84.168 47.797l2.082.496c23.905 5.456 51.21 4.102 74.918-1.496l3.103-.731c14.963-3.646 28.99-8.677 42.897-15.269l2.51-1.184c9.53-4.537 18.785-9.478 27.928-14.754C1953.466 492.69 2051.93 479.505 2146 504c53.77 14.711 106.899 39.679 148 78a589.897 589.897 0 003.688 3.188c17.663 15.428 17.663 15.428 24.601 23.792 2.184 2.579 4.516 5.001 6.836 7.457 6.282 6.764 11.807 14.07 17.313 21.47a613.097 613.097 0 004.374 5.777c39.602 52.224 62.74 116.382 69.188 181.316l.29 2.893c.887 9.984.953 19.966.96 29.982l.002 2.79c-.03 26.199-2.713 51.697-8.252 77.335l-.651 3.03c-5.154 23.394-12.957 46.17-23.305 67.77a297.45 297.45 0 00-2.927 6.391c-5.57 12.377-12.254 24.11-19.117 35.809l-1.336 2.279c-9.18 15.5-20.031 29.983-31.664 43.721l-2.441 3c-6.506 7.903-13.576 15.206-20.809 22.438l-1.429 1.431c-5.597 5.596-11.274 11.025-17.321 16.131l-1.796 1.53c-17.37 14.674-36.262 26.971-55.558 38.929-17.364 10.78-34.375 21.903-49.646 35.541l-2.918 2.516c-6.441 5.65-11.912 11.657-17.082 18.484l-1.198 1.577c-28.52 37.839-42.279 84.575-35.776 131.88 3.112 19.148 9.416 37.66 18.974 54.543l1.098 1.963c6.431 11.402 14.042 21.125 22.879 30.79a109.725 109.725 0 014.585 5.435c3.182 3.67 6.727 6.69 10.438 9.812l2.586 2.246c16.4 14.042 34.74 25.24 53.266 36.23 11.304 6.734 21.99 13.77 32.253 22.01a365.434 365.434 0 005.524 4.315A541.127 541.127 0 012290 1546l1.658 1.337c9.261 7.55 17.755 15.869 26.217 24.288l1.619 1.603c6.973 6.92 13.423 14.04 19.506 21.772l1.83 2.273c8.443 10.485 16.139 21.25 23.17 32.727l1.231 1.992c51.486 83.69 67.516 185.251 45.206 280.848-5.648 23.185-13.62 45.431-23.437 67.16l-.962 2.178c-8.202 18.556-18.394 36.221-30.038 52.822l-2.383 3.46c-5.884 8.467-12.28 16.479-18.865 24.407a319.301 319.301 0 00-3.723 4.625c-5.535 6.943-11.49 13.28-17.785 19.525a940.295 940.295 0 00-4.83 4.842c-6.495 6.504-13.212 12.42-20.414 18.141-1.815 1.56-3.628 3.121-5.438 4.688-49.418 41.128-113.42 66.827-176.562 76.312l-3.237.496c-17.79 2.583-35.57 2.812-53.513 2.879l-3.351.024c-70.334.388-134.309-24.4-194.149-59.649-29.842-17.166-64.074-26.23-98.438-26.063l-2.405.007c-11.86.052-23.344.438-34.907 3.306l-2.545.618c-12.008 2.996-23.352 6.92-34.455 12.382l-1.912.93c-14.623 7.188-27.02 16.413-38.703 27.732a263.073 263.073 0 01-3.623 3.42c-31.486 29.971-49.194 78.887-50.867 121.59a702.546 702.546 0 00-.106 8.555 8974.32 8974.32 0 01-.079 6.517l-.04 3.405c-1.248 96.778-28.81 188.615-96.284 260.364a374.665 374.665 0 00-4.316 4.73c-6.656 7.368-13.623 14.187-21.07 20.757l-1.73 1.546c-21.119 18.87-44.456 34.828-69.27 48.454l-2.678 1.476c-52.807 28.886-111.671 43.056-171.76 42.836l-3.165-.005c-51.953-.152-102.036-10.86-149.397-32.307l-2.716-1.213c-28.336-12.73-54.379-29.159-78.201-49.07a275.985 275.985 0 00-4.544-3.661c-7.115-5.665-13.586-11.794-19.983-18.24-1.68-1.69-3.369-3.368-5.06-5.046-6.624-6.616-12.674-13.43-18.496-20.77a309.61 309.61 0 00-2.863-3.355c-15.376-17.78-28.38-36.954-39.888-57.426a517.258 517.258 0 00-2.334-4.106C866.38 2441.163 853.592 2391.894 850 2345l-.235-3.033c-.623-8.94-.954-17.88-1.23-26.838l-.118-3.804c-.16-5.238-.318-10.476-.467-15.714-.657-26.676-.657-26.676-5.138-52.923l-.647-2.636c-3.943-15.507-9.533-30.005-17.165-44.052l-.972-1.834c-6.972-13.127-15.812-24.398-26.028-35.166l-1.417-1.515c-22.106-23.522-50.467-37.793-81.583-45.485l-2.068-.543c-34.679-8.9-77.69-1.523-109.932 12.543l-2.327 1.014c-10.469 4.636-20.453 9.895-30.298 15.736-86.879 51.508-186.566 66.005-284.375 41.25-74.7-19.593-144.058-61.86-192-123a7090.119 7090.119 0 00-3.2-3.973c-16.493-20.636-30.424-43.248-41.853-67.063a527.98 527.98 0 00-2.9-5.894c-41.773-84.988-44.086-186.659-14.255-275.585C43.83 1671.74 60.782 1638.37 83 1609l1.384-1.835c14.322-18.856 30.163-37.594 48.159-53.044a406.827 406.827 0 005.633-4.96c18.329-16.317 38.551-29.484 59.472-42.212 11.834-7.204 23.438-14.403 34.352-22.949l2.816-2.145c14.145-11.097 25.797-24.251 36.184-38.855l1.37-1.921c25.677-36.39 39.47-79.114 32.106-123.813-7.911-42.944-31.473-81.993-65.85-108.987a459.189 459.189 0 01-3.357-2.668c-16.498-13.22-34.397-24.44-52.394-35.486-13.803-8.48-26.722-17.4-38.875-28.125l-2.23-1.93A662.39 662.39 0 01136 1135l-2.206-1.951c-6.133-5.468-12.05-11.112-17.857-16.924l-2.661-2.664c-5.845-5.9-11.193-11.894-16.276-18.461a1906.16 1906.16 0 00-4.75-5.563c-60.792-73.1-86.043-171.083-78.425-264.936 9.074-95.388 55.6-185.606 129.55-247.063A704.39 704.39 0 01149 573l1.833-1.447c21.781-17.16 45.1-31.677 70.167-43.553l2.177-1.048C255.96 511.247 291.09 501.28 327 496l3.267-.496c33.502-4.88 69.28-4.601 102.733.496l3.492.52C471.95 501.952 505.524 512.891 538 528l2.943 1.37c10.287 4.815 20.476 9.82 30.616 14.935C606.662 562.994 606.662 562.994 644 576l1.93.474c40.135 9.497 85.332-1.48 119.957-22.822 41.262-26.325 66.426-67.857 76.925-115.152 4.407-20.938 6.064-42.167 6.478-63.521C850.405 317.862 862.57 262.336 888 211l1.198-2.434c11.912-23.965 27.105-46.233 44.265-66.72a356.432 356.432 0 004.111-5.045c6.963-8.541 14.723-16.31 22.488-24.113l1.682-1.698C968.829 103.853 976.1 97.245 984 91a586.197 586.197 0 003.512-2.941C1004.846 73.646 1024.168 61.649 1044 51l2.597-1.4c34.95-18.645 73.202-30.45 112.215-36.85l2.776-.458c18.1-2.79 36.12-3.67 54.412-3.604zM803 701l-1.523 1.445C789.997 713.342 780.896 725.238 773 739l-1.073 1.824c-18.453 31.596-25.224 67.904-25.465 104.071-.041 5.622-.135 11.242-.228 16.863l-.052 3.289c-1.534 88.63-37.107 183.798-100.994 246.828l-1.625 1.563c-1.734 1.733-3.295 3.564-4.875 5.437-3.401 3.939-7.137 7.357-11.043 10.79a228.985 228.985 0 00-5.133 4.67c-8.028 7.529-16.666 14.134-25.512 20.665l-2.103 1.556c-12.708 9.342-26.072 17.459-39.792 25.221-28.26 16.018-54.077 36.621-73.105 63.223l-1.267 1.754c-25.823 36.14-37.701 79.6-30.776 123.644 4.714 26.934 16.1 53.129 33.043 74.602l1.284 1.63c11.01 13.805 23.476 25.939 37.716 36.37l2.028 1.492c11.026 8.063 22.397 15.24 34.288 21.946 18.043 10.219 35.566 21.488 51.684 34.562l2.762 2.184c15.522 12.422 30.775 26.465 43.082 42.101 1.95 2.454 3.97 4.826 6.03 7.189 55.324 63.841 82.885 148.22 84.356 231.85l.056 3.078c.09 5.079.16 10.157.197 15.237.195 17.891 1.85 35.664 6.267 53.049l.776 3.122c4.069 15.904 9.599 30.787 17.474 45.19l1.746 3.234c6.36 11.34 14.313 21.36 23.254 30.766l1.519 1.618c22.184 23.497 50.041 39.03 81.481 46.382l3.863.969c21.787 4.863 48.431 3.98 70.137-.969l2.332-.52c25.71-5.894 49.595-16.088 72.057-29.858 56.448-34.58 120.426-52.196 186.611-51.935l2.944.006c50.75.16 101.35 10.109 147.649 31.213a549.388 549.388 0 006.977 3.098c11.616 5.193 22.43 11.62 33.323 18.156 30.186 18.107 65.315 32.814 101.095 33.043l2.232.022c22.564.271 22.564.271 44.78-3.225l2.545-.618c12.008-2.996 23.352-6.92 34.455-12.382l1.912-.93c14.784-7.267 27.271-16.656 39.088-28.07l2.77-2.578c32.87-31.413 51.35-80.541 52.404-125.643.028-1.853.052-3.707.072-5.56l.095-6.2.046-3.228c1.502-98.508 29.628-191.088 110.614-275.923a2243.17 2243.17 0 005.284-5.29c5.73-5.735 11.463-11.404 17.715-16.578l1.925-1.597c14.527-11.869 30.212-21.847 46.078-31.805 23.359-14.664 45.987-29.5 65.997-48.598l2.016-1.855c28.457-26.929 45.108-71.814 46.187-110.536.546-40.534-11.863-76.286-36.203-108.609l-1.934-2.621c-11.517-14.855-25.718-28.528-41.066-39.379l-1.628-1.173c-8.264-5.907-16.984-10.937-25.81-15.952-21.455-12.204-41.62-26.056-60.562-41.875l-2.992-2.426c-8.034-6.604-15.455-13.806-22.82-21.137l-1.479-1.462c-6.7-6.645-12.826-13.596-18.709-20.975a293.506 293.506 0 00-2.645-3.102c-40.21-46.803-64.548-106.216-74.605-166.648l-.459-2.753c-3.209-20.77-3.928-41.854-4.893-62.818-.602-12.946-1.38-25.824-2.855-38.702l-.358-3.126c-4.577-37.672-19.091-74.08-44.185-102.851l-1.294-1.493c-27.347-31.31-67.434-52.564-109.295-55.394-16.88-.79-33.92-1.237-50.411 2.887l-3.762.926c-27.673 7.821-54.047 22.974-79.363 36.386-42.65 22.584-86.775 37.75-134.875 43.688l-2.827.355c-80.395 9.588-160.382-10.407-229.923-50.48C955.582 648.629 866.612 639.408 803 701z" fill="#25211E"/><path d="M1216.063 975.688l3.092.005c16.782.05 33.226.796 49.845 3.307l3.432.504c37.154 5.614 72.872 16.918 106.568 33.496l2.917 1.43c27.288 13.495 52.31 30.385 75.083 50.57l3.938 3.375c10.95 9.66 21.403 19.668 31.062 30.625l1.34 1.508c51.946 58.729 82.722 133.644 89.66 211.492l.214 2.317c5.411 61.373-6.59 123.517-31.214 179.683l-1.237 2.826c-11.833 26.654-27.585 51.413-45.763 74.174l-2.23 2.816c-5.198 6.467-10.718 12.595-16.367 18.663-1.39 1.507-2.76 3.03-4.126 4.56-6.365 7.11-13.124 13.643-20.277 19.961l-1.734 1.55c-66.4 59.327-154.365 92.113-243.266 91.763l-2.943-.006c-84.467-.265-165.703-29.873-231.057-83.307l-1.625-1.31c-9.66-7.827-18.448-16.554-27.25-25.315l-1.764-1.748c-7.27-7.22-14.008-14.577-20.361-22.627a572.605 572.605 0 00-2.941-3.512C903.853 1542.171 884.338 1506.002 871 1469l-1.046-2.872c-31.854-88.383-27.788-190.695 11.815-275.975 17.459-37.014 40.015-72.923 69.606-101.528 1.849-1.794 1.849-1.794 4.125-4.688 2.613-3.07 5.41-5.553 8.473-8.16 1.877-1.646 3.608-3.354 5.34-5.152 4.562-4.613 9.609-8.6 14.687-12.625l2.015-1.608c10.014-7.978 20.133-15.59 30.985-22.392l2.224-1.396c43.022-26.82 89.703-44.661 139.776-52.916l2.704-.447c18.047-2.75 36.126-3.622 54.359-3.554z" fill="#25211E"/></svg>