<svg width="65" height="62" xmlns="http://www.w3.org/2000/svg"><g fill="none" fill-rule="evenodd"><path d="M.357 50.772c-.28.393-.35.897-.187 1.353a6.003 6.003 0 005.64 3.958h42.016a6.003 6.003 0 005.64-3.958c.164-.455.093-.96-.187-1.353a1.506 1.506 0 00-1.226-.63H1.583c-.487 0-.944.235-1.226.63zm53.196-25.135v17.079c0 .82-.664 1.485-1.485 1.485h-50.5a1.484 1.484 0 01-1.485-1.485V26.378a5.947 5.947 0 015.941-5.941h42.529a5 5 0 015 5v.2z" fill="#05C0A5" fill-rule="nonzero"/><path d="M53.559.456c-.043.033-4.254 3.261-7.62 4.31-.802.25-1.93.56-3.224.917-6.188 1.706-11.454 3.26-13.198 4.98-1.324 1.306-2.327 5.153-2.976 8.443-.136.69.409 1.328 1.121 1.328h8.253c.403 0 .816-.106 1.164-.308 1.544-.9 2.452-1.7 2.626-2.11.241-.573.91-.843 1.49-.605.582.238.856.897.614 1.47-.778 1.843-4.31 3.794-7.354 5.007-.494.196-1.372.731-2.057 1.186-2.043 1.418-4.774 3.712-3.739 5.626.858 1.586.858 3.551 6.873 1.586 3.011-.983 8.937-2.668 10.858-2.85.32-.029.622-.042.92-.056 1.647-.076 3.349-.154 6.481-2.4 1.683-1.208 2.65-2.783 3.676-4.449 1.406-2.285 2.86-4.65 6.461-6.714.348-.2.592-.573.592-.97C64.53 4.138 54.768.33 54.67.292a1.149 1.149 0 00-1.11.164z" fill="#CDF4EE" fill-rule="nonzero"/><path d="M63 50c0 6.627-5.373 12-12 12s-12-5.373-12-12 5.373-12 12-12 12 5.373 12 12" fill="#57F"/><path d="M51.484 42.015l4.616 8.727-4.616 2.356-4.77-2.356 4.77-8.727zm-4.77 9.575l4.766 2.37 4.62-2.37-4.62 5.854-4.766-5.854z" fill="#FFF"/></g></svg>