<svg width="63" height="76" xmlns="http://www.w3.org/2000/svg"><g fill="none" fill-rule="evenodd"><path d="M19.79 8h28.85l10.834 10.66v36.638a6 6 0 01-6 6H19.789a6 6 0 01-6-6V14a6 6 0 016-6z" fill="#B2EEE4"/><path d="M59.474 18.877L48.596 8v8.804c.349 1.382 1.229 2.073 2.642 2.073h8.236z" fill="#5A78F0"/><path d="M10 16.702h28.85l10.834 10.66V64a6 6 0 01-6 6H10a6 6 0 01-6-6V22.702a6 6 0 016-6z" fill="#CDF4EE"/><path d="M49.684 27.579L38.807 16.702v8.804c.348 1.382 1.229 2.073 2.641 2.073h8.236z" fill="#05C0A5"/><path d="M16.497 35.882c-.323-.167-.532-.53-.532-.925v-.073c0-.395.209-.758.532-.925l4.738-2.44a.85.85 0 01.883.065c.267.188.426.51.426.86v.026c0 .396-.21.759-.533.925l-2.963 1.526 2.963 1.525c.324.166.533.53.533.925v.026c0 .35-.16.672-.426.86a.842.842 0 01-.883.065l-4.738-2.44zm8.016 2.731a.974.974 0 01-.132-.843l1.743-6.273a.912.912 0 01.868-.655h.023c.29 0 .565.145.736.387a.97.97 0 01.132.843l-1.743 6.273a.912.912 0 01-.868.655h-.023a.905.905 0 01-.736-.387zm5.54-6.143v-.026c0-.35.16-.672.426-.86a.856.856 0 01.883-.065l4.737 2.44c.324.167.533.53.533.925v.073c0 .395-.21.758-.533.925l-4.737 2.44a.844.844 0 01-.884-.065 1.046 1.046 0 01-.425-.86v-.026c0-.396.209-.759.533-.925l2.963-1.525-2.963-1.525c-.324-.168-.533-.53-.533-.926z" fill="#00C0A5" fill-rule="nonzero"/><g fill-rule="nonzero"><path d="M39.996 50.029H13.688c-.545 0-.986.403-.986.9s.441.9.986.9h26.308c.545 0 .986-.403.986-.9s-.441-.9-.986-.9z" fill="#05C0A5"/><path d="M40.07 45.526h-3.649a.906.906 0 00-.912.9c0 .498.408.901.912.901h3.65a.906.906 0 00.911-.9c0-.498-.408-.9-.912-.9z" fill="#5A78F0"/><path d="M13.673 47.327H31.8c.536 0 .97-.403.97-.9 0-.498-.434-.9-.97-.9H13.673c-.536 0-.971.402-.971.9 0 .497.435.9.97.9z" fill="#05C0A5"/><path d="M13.614 54.531h3.65c.503 0 .911.403.911.9a.906.906 0 01-.912.901h-3.649a.906.906 0 01-.912-.9c0-.498.408-.901.912-.901z" fill="#5A78F0"/><path d="M40.011 56.332H21.883c-.536 0-.97-.403-.97-.9 0-.498.434-.901.97-.901h18.128c.537 0 .971.403.971.9 0 .498-.434.901-.97.901z" fill="#05C0A5"/></g></g></svg>