<svg width="65" height="55" xmlns="http://www.w3.org/2000/svg"><g fill="none"><path d="M6.838 17h25.324C35.932 17 39 20.115 39 23.944v15.863c0 3.83-3.067 6.944-6.838 6.944h-16.13L8.31 54.593a1.356 1.356 0 01-1.49.301 1.389 1.389 0 01-.844-1.283v-6.915C2.61 46.265 0 43.34 0 39.807V23.944C0 20.115 3.067 17 6.838 17z" fill="#5A78F0"/><path d="M55.357 0H19.643C14.326 0 10 4.263 10 9.502V31.21c0 5.24 4.326 9.502 9.643 9.502H42.39l10.89 10.731a1.942 1.942 0 002.101.412 1.9 1.9 0 001.19-1.755v-9.463C61.319 40.047 65 36.044 65 31.21V9.502C65 4.262 60.674 0 55.357 0z" fill="#CDF4EE"/><path d="M21.89 23.65c-.54-.288-.89-.911-.89-1.588v-.125c0-.678.35-1.301.89-1.587l7.921-4.188a1.393 1.393 0 011.478.112c.445.322.711.874.711 1.475v.046c0 .678-.35 1.3-.891 1.587l-4.954 2.617 4.954 2.618c.541.285.891.908.891 1.587v.046c0 .6-.266 1.152-.711 1.475a1.379 1.379 0 01-1.477.112L21.89 23.65zm13.403 4.686a1.707 1.707 0 01-.222-1.446l2.915-10.766c.203-.672.786-1.124 1.452-1.124h.039c.485 0 .945.248 1.23.664.287.416.369.957.22 1.447l-2.914 10.765c-.203.672-.785 1.124-1.45 1.124h-.04c-.484 0-.944-.248-1.23-.664zM44 17.794v-.045c0-.601.266-1.153.712-1.476a1.39 1.39 0 011.476-.112l7.921 4.188c.542.287.891.91.891 1.588v.125c0 .677-.35 1.3-.89 1.587l-7.921 4.188a1.382 1.382 0 01-1.477-.112c-.446-.324-.712-.875-.712-1.475v-.046c0-.679.35-1.302.89-1.588L49.846 22l-4.954-2.617c-.542-.287-.891-.91-.891-1.588z" fill="#00C0A5"/></g></svg>