<svg xmlns="http://www.w3.org/2000/svg" viewBox="0 0 36 24"><path d="M0 6.4C0 4.2 0 3 .4 2.2.8 1.4 1.4.8 2.1.5 3 0 4.2 0 6.4 0h23.2c2.2 0 3.4 0 4.2.4.8.4 1.4 1 1.7 1.7.5.9.5 2.1.5 4.3v11.2c0 2.2 0 3.4-.4 4.2-.4.8-1 1.4-1.7 1.7-.9.5-2.1.5-4.3.5H6.4c-2.2 0-3.4 0-4.2-.4-.8-.4-1.4-1-1.7-1.7C0 21 0 19.8 0 17.6V6.4z" fill="#353a48"/><path fill="#ff5f00" d="M14.592 6.009h6.867v12.017h-6.867z"/><path d="M15.45 12.017c0-2.575.86-4.291 2.576-6.008-.858-.859-2.575-1.717-4.292-1.717a7.693 7.693 0 00-7.725 7.725 7.693 7.693 0 007.725 7.726c1.717 0 3.434-.859 4.292-1.717-1.717-1.717-2.575-3.433-2.575-6.009z" fill="#eb001b"/><path d="M30.043 12.017a7.693 7.693 0 01-7.725 7.726c-1.717 0-3.434-.859-4.292-1.717 1.717-1.717 2.575-3.433 2.575-6.009 0-2.575-.858-4.291-2.575-6.008.858-.859 2.575-1.717 4.292-1.717a7.693 7.693 0 017.725 7.725z" fill="#f79e1b"/></svg>