<svg width="21" height="20" xmlns="http://www.w3.org/2000/svg"><g fill="#FFF"><path d="M19.973 13.923V6.767c0-.952-.773-1.728-1.722-1.728h-1.865V1.395c0-.632-.514-1.148-1.143-1.148H5.806c-.63 0-1.143.516-1.143 1.148v3.648H2.806a1.722 1.722 0 00-1.722 1.724v7.156c0 .952.773 1.728 1.722 1.728h1.86V18.7a1.15 1.15 0 001.144 1.148h9.437c.63 0 1.143-.516 1.143-1.148v-3.048h1.861c.949 0 1.722-.772 1.722-1.728zM5.643 1.395c0-.092.076-.168.167-.168h9.437c.091 0 .167.076.167.168v3.648H5.643V1.395zM15.414 18.7a.169.169 0 01-.167.168H5.81a.169.169 0 01-.167-.168v-7.864h9.767V18.7h.004zm.486-8.844H5.157a.49.49 0 00-.49.492v4.324H2.806a.748.748 0 01-.746-.748V6.767c0-.412.335-.748.746-.748h15.441c.41 0 .746.336.746.748v7.156a.748.748 0 01-.746.748h-1.86v-4.324a.485.485 0 00-.487-.492z" stroke="#FFF" stroke-width=".2"/><path d="M3.469 8.023a.542.542 0 000 .775.557.557 0 00.948-.388.55.55 0 00-.162-.387.58.58 0 00-.786 0z" stroke="#FFF" stroke-width=".2"/><path d="M12.892 14.403H8.169c-.231 0-.418.243-.418.544 0 .301.187.545.418.545h4.72c.23 0 .417-.244.417-.545 0-.3-.187-.544-.414-.544zm0 2.177H8.169c-.231 0-.418.244-.418.545 0 .3.187.544.418.544h4.72c.23 0 .417-.243.417-.544 0-.301-.187-.545-.414-.545zm0-4.355H8.169c-.231 0-.418.243-.418.544 0 .301.187.545.418.545h4.72c.23 0 .417-.244.417-.545 0-.3-.187-.544-.414-.544z"/></g></svg>