<svg width="74" height="24" fill="none" xmlns="http://www.w3.org/2000/svg"><path d="M13.565.038c-.515.204-.817.585-.912 1.152l-.037.246-3.051.729-3.047.728-.06-.096c-.12-.197-.382-.463-.554-.559-.688-.39-1.57-.092-1.9.644-.089.188-.1.27-.1.635 0 .378.011.436.103.625.059.115.169.277.246.362l.143.158-1.36 2.952L1.68 10.57l-.33-.004c-.288 0-.357.011-.582.123a1.433 1.433 0 00-.661.655c-.1.193-.107.247-.107.648 0 .377.011.462.088.624.14.293.364.532.644.675.227.119.283.13.599.13h.345l1.309 2.856c.72 1.572 1.327 2.902 1.353 2.956.036.092.025.12-.096.254-.077.085-.18.243-.239.359-.095.18-.103.242-.103.64 0 .377.011.458.088.624.475.99 1.787 1.106 2.379.208.095-.143.162-.212.202-.197.033.012 1.382.332 2.992.717 1.614.385 2.96.705 2.993.717.044.011.073.085.088.227.055.459.364.91.76 1.102.207.104.27.116.61.116.35 0 .402-.012.615-.123.287-.15.54-.44.654-.744.103-.278.114-.775.022-1.025l-.055-.166 2.198-1.838a766.94 766.94 0 012.452-2.046l.254-.209.257.14c.335.173.621.211.96.119.64-.17 1.029-.702 1.029-1.4 0-.35-.092-.635-.294-.913a1.466 1.466 0 00-.603-.435l-.17-.058v-3.31c0-3.164.005-3.31.07-3.31.14 0 .468-.213.648-.42.349-.401.456-.983.268-1.492a1.543 1.543 0 00-.673-.775c-.194-.1-.257-.111-.595-.111-.353 0-.397.007-.629.127-.14.073-.26.13-.272.13-.014 0-1.125-.92-2.463-2.042l-2.44-2.042.05-.131c.2-.501.027-1.249-.367-1.6-.26-.227-.478-.308-.864-.32-.239-.015-.404-.003-.5.032zm-.886 2.046c.01.015-.581.532-1.313 1.148l-1.334 1.11L8.8 4.05c-2.07-.493-2.077-.497-2.077-.547 0-.03.798-.243 2.379-.617 1.305-.312 2.61-.628 2.904-.697.573-.147.643-.154.672-.104zm.408.605c-.008.03-.228.524-.49 1.094-.334.725-.496 1.045-.536 1.04-.154-.003-1.257-.296-1.25-.33.015-.062 2.206-1.881 2.25-1.87.022.004.033.035.026.066zm4.264 1.9c2.058 1.722 2.448 2.065 2.323 2.062-.107-.004-3.279-.79-3.305-.817-.066-.07-1.466-3.172-1.448-3.203.01-.015.033-.027.048-.02.022.009 1.092.899 2.382 1.978zm-3.628-.517c0 .632-.008 1.153-.015 1.153-.048 0-.982-.235-.993-.25-.033-.036.908-2.051.956-2.051.04-.004.052.235.052 1.148zm1.297.228c.35.759.629 1.376.621 1.38-.003.003-.308-.062-.676-.15l-.673-.163V4.146c0-.964.011-1.222.048-1.222.026-.004.33.617.68 1.376zm-6.999.17a55.05 55.05 0 011.386.338c.03.012-.158.197-.493.474l-.544.455-.15-.13c-.085-.074-.49-.41-.897-.756-.412-.343-.75-.64-.75-.663 0-.02.025-.035.055-.035.033 0 .658.143 1.393.316zm-.937.955c.672.563.805.69.764.732-.025.027-.213.185-.408.35-.25.213-.367.286-.386.251-.106-.204-.9-1.973-.9-2.011 0-.089.11-.008.93.678zm-.967.67l.5 1.091-.133.12-.55.466-.42.347V6.577c0-1.198.011-1.549.048-1.564.022-.008.048-.016.051-.012.004 0 .232.497.504 1.095zm4.955-.893c.427.104.776.184.78.188.01.016-1.063 2.328-1.081 2.328-.055 0-1.93-1.603-1.904-1.626.213-.22 1.33-1.106 1.374-1.095.03.016.405.108.831.205zM4.981 6.797l-.004 1.777L3.67 9.668c-.72.597-1.327 1.095-1.36 1.102-.03.008-.052-.008-.052-.03 0-.04 2.055-4.548 2.463-5.407.261-.548.261-.548.261 1.464zm8.11-1.11l.632.147-.008 1.449-.01 1.452-.68.162-.681.162-.54-.455c-.298-.25-.54-.474-.54-.497 0-.05 1.146-2.562 1.172-2.566.011 0 .301.061.654.146zm2.05.49c.456.111.831.204.839.211.058.081.724 1.604.702 1.619-.015.015-.53.146-1.143.29-.614.146-1.147.273-1.18.284-.067.02-.07-.058-.07-1.29 0-.721.003-1.315.01-1.315.008 0 .39.093.843.2zM9.515 7.456c.543.455.992.84.992.86 0 .015-.136.32-.298.678l-.301.647-.618.15c-.342.081-.65.147-.694.15-.067 0-.118-.084-.28-.446a183.19 183.19 0 01-.592-1.288l-.39-.84.519-.431c.496-.42.518-.432.595-.37.04.038.522.44 1.067.89zm9.318-.397c.5.12.699.181.699.224 0 .042-.302.13-1.118.323a46.69 46.69 0 01-1.125.262 84.6 84.6 0 01-.305-.666l-.298-.656.725.17 1.422.343zM7.426 8.943c.283.62.5 1.137.485 1.16-.019.016-.544.15-1.17.297a61.55 61.55 0 00-1.18.285c-.036.016-.047-.177-.047-.89v-.91l.673-.558c.367-.308.68-.547.694-.532.015.015.261.536.545 1.148zm12.27-.967c-.007.031-.386.37-.845.752l-.831.693-.217-.447a6.883 6.883 0 01-.228-.5c-.007-.035.305-.128.992-.297 1.122-.278 1.147-.282 1.129-.2zm.434.57c-.019.09-1.239 2.706-1.261 2.706-.015 0-.044-.039-.066-.093a40.53 40.53 0 01-.29-.636l-.247-.547.897-.751c.816-.678.989-.802.967-.678zm-2.867.629c.154.347.283.628.283.636 0 .003-.456.389-1.011.851-.56.463-1.04.863-1.074.898-.051.046-.128-.008-.614-.412l-.555-.463V9.198l.294-.07c.159-.038.754-.18 1.313-.316.562-.138 1.033-.25 1.047-.254.015-.004.155.274.316.617zm-5.82-.104c.11.092.147.142.114.162-.025.015-.22.069-.426.115-.21.046-.408.096-.441.104-.048.016-.022-.073.114-.377l.176-.397.15.13c.082.074.225.19.313.263zm9.32 2.913c0 2.567-.012 3.195-.049 3.21-.033.012-.28-.485-.764-1.541-.397-.86-.728-1.596-.732-1.627-.018-.092 1.43-3.229 1.496-3.229.04-.004.048.551.048 3.187zM4.965 10.81c-.03.03-2.275.559-2.294.54-.036-.043.11-.178 1.173-1.068l1.118-.929.01.717c.004.393 0 .728-.007.74zm8.756-1.04c0 .319-.01.408-.044.388a15.547 15.547 0 01-.408-.327l-.356-.297.338-.089c.515-.13.47-.161.47.324zm-.76.573l.76.636v2.043l-.753.624c-.415.347-.78.628-.805.628-.107 0-1.867-.435-1.878-.462-.004-.016-.195-.432-.42-.925l-.408-.89.412-.898c.228-.494.423-.906.438-.921.022-.023 1.735-.455 1.845-.463.026-.007.39.278.809.628zm-3.4.027c0 .05-.39.887-.416.887-.011 0-.1-.166-.199-.37l-.172-.37.349-.085c.393-.092.437-.104.437-.062zm8.638.848l.357.775-.364.801c-.203.44-.383.798-.401.79-.074-.015-1.908-1.556-1.9-1.587.018-.062 1.9-1.611 1.926-1.584.01.015.183.377.382.805zm-9.69.089c.158.354.29.659.29.682 0 .089-.584 1.33-.625 1.33-.044 0-2.477-.579-2.599-.621-.058-.02-.07-.089-.07-.71v-.685l.372-.089c.202-.05.794-.192 1.312-.32.522-.123.967-.23.985-.23.026 0 .173.288.335.643zm-3.536 1.24c-.011.008-1.28-.284-2.063-.481-.047-.012-.088-.042-.088-.073 0-.035.346-.135 1.07-.309l1.066-.254.011.551c.007.305.007.559.004.567zm9.932-.577c.022.023-.21.239-.566.528-.037.027-.048-.077-.048-.505v-.544l.294.247c.159.135.306.258.32.274zm1.551 1.29c.567.475 1.044.872 1.06.89.032.032-.52 1.269-.567 1.269-.037 0-2.492-.586-2.591-.62-.06-.02-.07-.093-.07-.764l.003-.744.537-.443c.294-.246.551-.447.566-.447.015 0 .496.39 1.063.86zm-12.682-.38l1.081.257c.085.02.085.027.085.756v.732l-1.136-.952c-.625-.524-1.136-.971-1.136-.99.003-.062.059-.05 1.106.196zm5.599.315l.213.466-.305-.073c-.17-.038-.324-.077-.346-.077a.215.215 0 01-.088-.034c-.04-.028-.018-.108.107-.398.092-.196.173-.362.184-.362.01 0 .117.216.235.478zm10.13.863c.34.736.615 1.365.615 1.388 0 .027-.015.05-.033.05-.044 0-1.802-1.465-1.802-1.503 0-.043.567-1.272.589-1.272.007 0 .29.605.632 1.337zm-15.854.255l1.29 1.083v1.8c0 1.298-.01 1.795-.04 1.784-.051-.02-2.683-5.735-2.654-5.766.011-.011.044-.011.07-.003.026.015.628.512 1.334 1.102zm3.206-.694l1.103.266-.533 1.164c-.339.736-.548 1.16-.581 1.148-.026-.008-.338-.262-.691-.559l-.644-.54v-1.791l.125.027c.063.011.618.143 1.22.285zm6.867.605v.432l-.387-.097a4.315 4.315 0 01-.396-.111 13.2 13.2 0 01.775-.66c.004.004.008.201.008.436zm-4.548-.054c.327.081.625.15.666.166.044.011.172.243.367.67.166.363.298.663.298.671 0 .02-2.022 1.723-2.103 1.777-.025.015-.264-.159-.555-.405l-.514-.428.595-1.295c.327-.713.607-1.298.625-1.298.011.003.29.069.621.142zm2.132.86l-.327.273-.132-.27a6.987 6.987 0 01-.177-.393l-.047-.123.507.12.504.123-.328.27zm7.577.265c.466.39.838.725.82.748-.015.023-.409-.05-1.045-.208a91.792 91.792 0 01-1.066-.262c-.04-.015.372-.987.42-.987.014 0 .407.32.87.71zm-5.911-.212c.316.078.617.147.665.159l.085.019v2.89l-.519.127c-.287.07-.58.143-.647.158l-.128.035-.276-.601c-.15-.332-.42-.918-.6-1.307l-.323-.697.548-.459c.301-.254.562-.458.584-.458a7.3 7.3 0 01.61.134zm2.562.613c.632.15 1.158.281 1.165.29.007.007-.154.38-.36.824l-.375.81-.809.188c-.445.104-.82.185-.838.185-.018 0-.03-.578-.03-1.291 0-1.025.012-1.291.048-1.291.03.008.566.131 1.199.285zm-9.503.601c.265.224.504.428.533.451.04.043-.033.24-.455 1.149-.276.6-.519 1.09-.54 1.083-.041-.016-.085-3.083-.041-3.083.01 0 .239.18.503.4zm12.407.097a92.35 92.35 0 001.099.258c.007 0 .015.027.015.058 0 .03-.008.058-.015.058-.026 0-2.683.635-2.753.659-.037.011-.07.003-.07-.016 0-.073.573-1.28.61-1.28.015.005.518.12 1.114.263zm-7.117 1.04c.283.62.5 1.137.485 1.16-.018.016-.393.116-.83.22l-.795.189-.665-.551c-.367-.301-.665-.563-.662-.578.015-.054 1.901-1.611 1.927-1.588.01.015.257.535.54 1.148zm-3.455.409c.044.034-1.655 1.464-1.702 1.433-.022-.015.154-.45.433-1.067l.478-1.037.379.32c.213.177.397.335.412.35zm11.792-.374c-.21.216-4.712 3.935-4.738 3.908-.022-.024 1.371-3.141 1.445-3.226.044-.05 3.315-.813 3.33-.775.011.02-.007.058-.037.093zM8.922 18.716c.29.243.525.448.518.451-.007.008-.625.158-1.375.34-.75.18-1.393.331-1.43.346-.198.054.026-.17.824-.84.481-.4.886-.728.9-.732.015-.004.269.193.563.436zm6.451.2c-.856 1.874-1.01 2.186-1.044 2.151-.026-.027-.033-.481-.03-1.244l.012-1.203.606-.15c.335-.081.636-.146.67-.15.047-.004 0 .13-.214.597zm-1.69 2.151c-.03.031-.049.031-.056 0-.011-.023-.22-.485-.47-1.025-.25-.543-.456-.994-.456-1.013 0-.02.227-.085.503-.147l.5-.115.011 1.125c.008.813-.004 1.148-.033 1.175zm-1.078-.844c.58 1.264.53 1.149.463 1.149-.066 0-2.312-1.865-2.283-1.892a24.97 24.97 0 011.29-.324c.023-.004.262.478.53 1.067zm-1.231.548c.727.608 1.308 1.121 1.293 1.144-.014.027-1.066-.208-2.9-.647-1.58-.378-2.915-.698-2.959-.71-.25-.061-.037-.134 1.496-.504a50.087 50.087 0 011.662-.386c.055-.003.514.359 1.408 1.103z" fill="#41AC48"/><path d="M57.643 5.756l-.095.097v9.244l.088.109c.121.146.386.146.511-.004l.085-.104V5.853l-.096-.097a.344.344 0 00-.493 0z" fill="#fff"/><path d="M34.224 5.853a1.47 1.47 0 00-.886.952c-.092.327-.052.793.084 1.086.136.29.445.594.702.69l.184.073.004 3.153c0 2.331.01 3.19.044 3.295.051.165.235.25.419.192.246-.077.232.166.242-3.406.008-3.056.012-3.253.078-3.253.117 0 .444-.231.625-.435.257-.301.342-.563.323-1.033-.018-.44-.117-.686-.386-.968a1.4 1.4 0 00-1.433-.346z" fill="#41AC48"/><path d="M28.856 8.635c-.934.124-1.617.544-1.915 1.183l-.143.3v.517c0 .463.01.54.088.702.254.535.809.805 1.864.905.238.023.591.043.775.043.732 0 1.441.158 1.75.393.357.27.379.982.044 1.426-.334.443-1.228.69-2.202.597-.753-.07-1.334-.293-1.75-.682-.198-.181-.242-.208-.39-.208-.209 0-.308.112-.308.35 0 .147.022.186.22.386.236.239.666.497 1.067.632.433.15.915.216 1.628.212 1.022-.004 1.467-.116 1.94-.49.585-.458.824-1.082.71-1.842-.08-.543-.342-.905-.812-1.136-.386-.185-.842-.266-1.93-.328-1.037-.058-1.294-.108-1.647-.29-.29-.15-.39-.354-.367-.743.022-.44.172-.678.573-.913.467-.27.684-.316 1.4-.316.567 0 .677.011.927.092.364.124.621.258.83.44.225.192.31.242.457.242.268 0 .4-.373.22-.616-.217-.29-.937-.667-1.525-.794-.36-.077-1.147-.108-1.504-.062zm10.808-.015a2.899 2.899 0 00-.775.254c-.24.127-.6.45-.765.69l-.107.154v-.355c0-.443-.07-.616-.264-.662a.386.386 0 00-.24.007c-.22.089-.216.039-.216 3.3 0 3.286-.004 3.229.224 3.275.14.03.133.03.272 0 .22-.043.224-.097.224-2.108 0-1.954.015-2.143.214-2.655.11-.286.356-.644.562-.821.085-.07.261-.178.393-.247.206-.1.298-.123.618-.139.805-.038 1.32.243 1.617.879.243.52.243.52.265 2.832.026 2.313.011 2.197.25 2.266.14.043.35-.011.393-.104.019-.034.04-.925.052-1.973.018-2.046.03-2.15.235-2.682.114-.297.357-.651.566-.832.085-.07.261-.178.393-.247.217-.108.298-.123.651-.139.338-.015.452-.004.666.062.463.146.82.509.992.983.173.481.195.778.195 2.817v1.915l.088.104c.143.177.53.131.573-.073.015-.05.019-1.072.012-2.27-.015-2.116-.015-2.189-.1-2.501-.297-1.114-.937-1.669-2.022-1.75-1.029-.073-1.918.355-2.356 1.13a.831.831 0 01-.132.204c-.011 0-.07-.1-.129-.224-.349-.693-.985-1.079-1.838-1.106-.217.004-.445.008-.51.016zm12.154.02c-.699.1-1.482.574-1.868 1.136l-.117.166-.015-.536c-.011-.493-.019-.54-.1-.624-.12-.127-.385-.127-.507 0l-.088.092v8.776l.107.096c.14.127.33.127.47 0l.107-.097.01-1.792.012-1.788.143.19c.195.253.412.454.724.67.533.362.912.458 1.761.458.654.004.967-.061 1.426-.308.831-.436 1.29-1.014 1.57-1.98.096-.332.103-.405.103-1.091 0-.821-.037-1.064-.265-1.58-.378-.864-1.077-1.48-1.963-1.72-.353-.092-1.113-.13-1.51-.069zm1.242.747c.809.22 1.434.832 1.684 1.665.257.851.132 1.873-.305 2.563-.29.458-.691.774-1.22.955-.273.097-.369.108-.839.108-.456.004-.57-.008-.812-.089-.787-.258-1.35-.824-1.61-1.637-.151-.478-.177-1.183-.06-1.661.232-.971.864-1.657 1.754-1.904.386-.1 1.018-.104 1.408 0zm9.642-.752c-.97.182-1.83.837-2.22 1.688-.287.62-.342.883-.342 1.688.003.806.047 1.068.283 1.569.507 1.083 1.378 1.684 2.635 1.803.423.043.967.004 1.357-.104.676-.18 1.606-.855 1.694-1.237.034-.127-.036-.358-.12-.405a.58.58 0 00-.214-.038c-.121 0-.177.035-.445.308-.35.355-.595.513-1.025.667-.276.104-.353.112-.853.116-.629 0-.868-.05-1.324-.286a2.398 2.398 0 01-1.014-1.082c-.133-.293-.272-.79-.272-.968 0-.054.312-.061 2.716-.073 2.173-.008 2.732-.023 2.801-.062.151-.092.21-.3.177-.659-.118-1.43-.967-2.493-2.272-2.84-.345-.1-1.235-.146-1.562-.085zm1.371.752c.794.212 1.408.813 1.662 1.626.051.162.103.358.117.424l.022.131h-5.029l.056-.27c.224-1.044.915-1.738 1.959-1.969.239-.042.94-.015 1.213.058zm3.731-.659a.376.376 0 00-.143.162c-.114.239-.081.289 1.183 1.73l1.188 1.36-.618.698c-1.94 2.197-1.838 2.07-1.838 2.258a.76.76 0 00.037.247c.055.108.283.166.415.108.055-.027.636-.67 1.287-1.43.65-.759 1.195-1.372 1.21-1.368.01.008.543.62 1.18 1.36a75.02 75.02 0 001.212 1.403c.034.027.133.05.22.05.222-.003.34-.127.34-.35 0-.208.106-.074-1.357-1.738l-1.114-1.26.15-.166c.081-.089.622-.702 1.195-1.364 1.022-1.18 1.044-1.207 1.044-1.369-.003-.262-.165-.412-.397-.37-.106.024-.301.236-1.286 1.392-.636.755-1.173 1.368-1.188 1.368-.014 0-.536-.598-1.158-1.33-.62-.732-1.161-1.356-1.205-1.387-.089-.07-.232-.073-.357-.004z" fill="#fff"/></svg>