<svg width="30" height="24" xmlns="http://www.w3.org/2000/svg"><path d="M17.735 0A3.518 3.518 0 0014.2 3.51v3.24c-2.667.139-5.085.84-7.04 1.95-.75-.717-1.746-1.02-2.72-1.02-1.055 0-2.127.34-2.87 1.17v.03l-.032.03c-.713.885-1.004 2.067-.815 3.24a4.264 4.264 0 001.903 2.88c-.008.11-.03.218-.03.33 0 2.5 1.522 4.692 3.808 6.21C8.688 23.088 11.771 24 15.167 24s6.478-.912 8.763-2.43c2.284-1.518 3.807-3.71 3.807-6.21 0-.112-.022-.22-.03-.33a4.264 4.264 0 001.903-2.88c.19-1.173-.101-2.355-.815-3.24l-.03-.03c-.745-.828-1.817-1.2-2.87-1.2-.976 0-1.973.303-2.72 1.02-1.957-1.11-4.374-1.811-7.041-1.95V3.51c0-.941.54-1.59 1.6-1.59.504 0 1.126.236 2.087.57.815.285 1.873.6 3.232.69A2.409 2.409 0 0025.32 4.8c1.33 0 2.417-1.08 2.417-2.4 0-1.32-1.088-2.4-2.417-2.4a2.42 2.42 0 00-2.116 1.26c-1.16-.067-1.998-.307-2.749-.57-.873-.304-1.678-.69-2.72-.69zm-2.568 9c3.008 0 5.694.805 7.577 2.032 1.882 1.225 2.923 2.8 2.923 4.468 0 1.669-1.04 3.243-2.924 4.47C20.86 21.194 18.175 22 15.167 22c-3.01 0-5.694-.805-7.578-2.032-1.882-1.225-2.922-2.8-2.922-4.468 0-1.669 1.04-3.243 2.923-4.47C9.472 9.806 12.158 9 15.167 9zM4.58 10c.388 0 .77.082 1.086.218-1.11.794-1.971 1.738-2.49 2.782a1.916 1.916 0 01-.48-.955c-.11-.586.089-1.192.416-1.555.004-.006-.004-.02 0-.026.31-.28.862-.464 1.468-.464zm21.171 0c.606 0 1.158.183 1.468.463.004.004-.004.025 0 .028.327.362.527.968.416 1.555-.065.34-.22.675-.48.954-.518-1.043-1.38-1.987-2.49-2.782A2.795 2.795 0 0125.753 10zm-15.085 2a2 2 0 100 4 2 2 0 000-4zm9 0a2 2 0 100 4 2 2 0 000-4zm0 5c-1.094.923-2.932 1.513-5 1.513-2.069 0-3.907-.597-5-1.405.61 1.5 2.566 2.892 5 2.892 2.433 0 4.39-1.385 5-3z" fill="#003945"/></svg>