<svg width="20" height="20" fill="none" xmlns="http://www.w3.org/2000/svg"><g clip-path="url(#clip0_274_42749)" fill="#fff"><path d="M4.167 9.167H7.5c.917 0 1.667-.75 1.667-1.667V4.167c0-.917-.75-1.667-1.667-1.667H4.167C3.25 2.5 2.5 3.25 2.5 4.167V7.5c0 .917.75 1.667 1.667 1.667zm0-5H7.5V7.5H4.167V4.167zm0 13.333H7.5c.917 0 1.667-.75 1.667-1.666V12.5c0-.916-.75-1.666-1.667-1.666H4.167c-.917 0-1.667.75-1.667 1.666v3.334c0 .916.75 1.666 1.667 1.666zm0-5H7.5v3.334H4.167V12.5zm6.666-8.333V7.5c0 .917.75 1.667 1.667 1.667h3.333c.917 0 1.667-.75 1.667-1.667V4.167c0-.917-.75-1.667-1.667-1.667H12.5c-.917 0-1.667.75-1.667 1.667zm5 3.333H12.5V4.167h3.333V7.5zm1.667 9.584v-.834a.413.413 0 00-.417-.416h-.833a.413.413 0 00-.417.416v.834c0 .233.183.416.417.416h.833a.413.413 0 00.417-.416zm-6.667-5.834v.834c0 .233.183.416.417.416h.833a.413.413 0 00.417-.416v-.834a.413.413 0 00-.417-.416h-.833a.413.413 0 00-.417.416zm2.917 1.25h-.833a.413.413 0 00-.417.417v.833c0 .233.183.417.417.417h.833a.413.413 0 00.417-.417v-.833a.413.413 0 00-.417-.417zm-2.917 2.083v.833c0 .234.183.417.417.417h.833a.413.413 0 00.417-.417v-.833a.413.413 0 00-.417-.417h-.833a.413.413 0 00-.417.417zm2.084 2.917h.833a.413.413 0 00.417-.416v-.834a.413.413 0 00-.417-.416h-.833a.413.413 0 00-.417.416v.834c0 .233.183.416.417.416zm1.667-1.667h.833a.413.413 0 00.417-.417v-.833a.413.413 0 00-.417-.417h-.833a.413.413 0 00-.417.417v.833c0 .234.183.417.417.417zm.833-4.999h-.833a.413.413 0 00-.417.416v.834c0 .233.183.416.417.416h.833a.413.413 0 00.417-.416v-.834a.413.413 0 00-.417-.416zm.833 3.333h.833a.413.413 0 00.417-.417v-.833a.413.413 0 00-.417-.417h-.833a.413.413 0 00-.417.417v.833c0 .233.183.417.417.417z"/></g><defs><clipPath id="clip0_274_42749"><path fill="#fff" d="M0 0h20v20H0z"/></clipPath></defs></svg>