<svg xmlns="http://www.w3.org/2000/svg" viewBox="0 0 30 30"><path d="M19.1 8H7.7c-.7.1-1 .2-1.2.3-.6.3-1 .7-1.3 1.3-.2.2-.3.6-.3 1.3-.1.7-.1 1.7-.1 3.1v2c0 1.4 0 2.4.1 3.1s.2 1 .3 1.2c.3.6.8 1 1.3 1.3.2.1.5.2 1.3.3.7.1 1.7.1 3.1.1h8.2c1.5 0 2.4 0 3.2-.1.7-.1 1.1-.2 1.3-.3.6-.3 1-.7 1.3-1.3.1-.2.2-.5.3-1.2.1-.7.1-1.7.1-3.1v-2c0-1.4 0-2.4-.1-3.1-.1-.7-.2-1-.3-1.2-.3-.6-.8-1-1.3-1.3-.2-.1-.5-.2-1.3-.3-.8-.1-1.8-.1-3.2-.1zm-15.8.7c-.6 1.1-.6 2.5-.6 5.3v2c0 2.8 0 4.2.6 5.3.5.9 1.3 1.7 2.2 2.2 1.1.5 2.5.5 5.4.5h8.2c2.9 0 4.3 0 5.4-.5 1-.5 1.7-1.2 2.2-2.2.6-1.1.6-2.5.6-5.3v-2c0-2.8 0-4.2-.6-5.3-.5-.9-1.3-1.7-2.2-2.2C23.4 6 22 6 19.1 6h-8.2c-2.8 0-4.3 0-5.4.5-.9.5-1.7 1.3-2.2 2.2z" fill-rule="evenodd" clip-rule="evenodd" fill="#05c0a5"/><path d="M6.6 11.3c0-.5.5-1 1-1h14.7c.6 0 1 .4 1 1 0 .5-.5 1-1 1H7.7c-.6 0-1.1-.4-1.1-1z" fill-rule="evenodd" clip-rule="evenodd" fill="#fff"/></svg>