<svg xmlns="http://www.w3.org/2000/svg" viewBox="0 0 60 60"><linearGradient id="a" gradientUnits="userSpaceOnUse" x1="5.513" y1="65.069" x2="53.273" y2="-3.331"><stop offset="0" stop-color="#ff15d8"/><stop offset="1" stop-color="#6c4f89"/></linearGradient><path d="M47.5 60h-35C5.6 60 0 54.4 0 47.5v-35C0 5.6 5.6 0 12.5 0h35C54.4 0 60 5.6 60 12.5v35C60 54.4 54.4 60 47.5 60z" fill="url(#a)"/><path d="M40 46.5c-.4 0-.6-.2-.9-.4-.2-.2-.4-.5-.4-.9v-3.7c0-.4-.2-.6-.4-.9-.2-.2-.5-.4-.9-.4s-.6.2-.9.4c-.2.2-.4.5-.4.9v1.8c0 .4-.2.6-.4.9-.2.2-.5.4-.9.4s-.6-.2-.9-.4c-.3-.2-.4-.5-.4-.9v-1.8c0-.4-.2-.6-.4-.9-.2-.2-.5-.4-.9-.4s-.6.2-.9.4c-.2.2-.4.5-.4.9v.4c0 .4-.2.6-.4.9-.2.2-.4.4-.8.4s-.6-.2-.9-.4c-.2-.2-.4-.5-.4-.9v-.4c0-.4-.2-.6-.4-.9-.2-.2-.5-.4-.9-.4s-.6.2-.9.4c-.2.2-.4.5-.4.9v1.8c0 .4-.2.6-.4.9-.2.2-.5.4-.9.4s-.6-.2-.9-.4c-.3-.2-.4-.5-.4-.9v-1.8c0-.4-.2-.6-.4-.9-.2-.2-.5-.4-.9-.4s-.6.2-.9.4c-.2.2-.4.5-.4.9v3.6c0 .4-.2.6-.4.9-.2.2-.5.4-.9.4s-.6-.2-.9-.4c-.2-.2-.4-.5-.4-.9V24.5c.1-2.6 1-5.1 2.6-7.1s3.9-3.3 6.4-3.8c2.5-.4 5.1-.2 7.3 1.1s4.1 3.1 5.1 5.5c.6 1.3.9 2.8 1 4.3v20.7c0 .4-.2.6-.4.9.7.3.3.4 0 .4zM28.7 27.8c-.4 0-.4.2-.4.4 0 .8.8 1.3 1.8 1.3s1.8-.6 1.8-1.3c0-.3-.2-.4-.4-.4s-.4 0-.4.1c-.4.1-.7.1-.9.1-.3 0-.5 0-.8-.1-.3-.1-.5-.1-.7-.1zm5.5-6.2c-1.2 0-2 1.1-2 2.3 0 1.3.9 2.3 2 2.3 1.2 0 2-1.1 2-2.3s-.9-2.3-2-2.3zm-8.3 0c-1.2 0-2 1.1-2 2.3 0 1.3.9 2.3 2 2.3 1.2 0 2-1.1 2-2.3s-.9-2.3-2-2.3z" fill="#fff"/></svg>