<svg width="145" height="149" xmlns="http://www.w3.org/2000/svg"><defs><filter x="-20.7%" y="-13.2%" width="141.4%" height="126.4%" filterUnits="objectBoundingBox" id="a"><feOffset dy="12" in="SourceAlpha" result="shadowOffsetOuter1"/><feGaussianBlur stdDeviation="8.5" in="shadowOffsetOuter1" result="shadowBlurOuter1"/><feColorMatrix values="0 0 0 0 0.0819970561 0 0 0 0 0.11507115 0 0 0 0 0.247367527 0 0 0 0.0332440997 0" in="shadowBlurOuter1" result="shadowMatrixOuter1"/><feMerge><feMergeNode in="shadowMatrixOuter1"/><feMergeNode in="SourceGraphic"/></feMerge></filter></defs><g filter="url(#a)" transform="translate(-63 -58)" fill="none"><path d="M87.484 91.633l1.305 10.696-5.01.62c-2.358.29-4.036 2.452-3.746 4.827.29 2.375 2.437 4.064 4.796 3.772l5.01-.619.533 4.378c1.271 10.42 10.693 17.829 21.044 16.55 10.351-1.28 17.712-10.763 16.441-21.182L124.97 87l-37.485 4.633z" fill="#FCA"/><path d="M119.314 87.732l2.803 23.675c1.114 9.406-4.602 18.047-13.117 20.581.954.035 1.922-.005 2.9-.13 10.05-1.28 17.195-10.763 15.961-21.182L125.058 87l-5.744.732z" fill="#F2A077"/><path d="M97.764 106.958c-.376 0-.755-.1-1.074-.308-.76-.493-.894-1.405-.3-2.037.854-.91 2.084-1.488 3.462-1.63 1.379-.14 2.74.174 3.834.885.76.494.894 1.406.3 2.037-.593.632-1.69.744-2.45.25a1.95 1.95 0 00-1.258-.29 1.8 1.8 0 00-1.137.535c-.345.366-.858.558-1.377.558zm18.462-1.885c-.376 0-.755-.1-1.074-.308-.76-.493-.894-1.406-.3-2.037 1.764-1.879 5.037-2.213 7.296-.745.76.493.894 1.405.3 2.037-.593.632-1.69.744-2.45.25-.741-.482-1.816-.372-2.395.245-.345.367-.859.558-1.377.558z" fill="#475D6D"/><path d="M113.801 121.955c-3.244.397-6.198-1.9-6.596-5.13l-.198-1.606a.893.893 0 01.78-.994l9.971-1.218a.895.895 0 011 .776l.197 1.607c.399 3.23-1.909 6.17-5.154 6.565z" fill="#CE3A4C"/><path d="M125.018 89.091L91.28 93.235a3.383 3.383 0 00-2.945 3.771l.626 5.1-4.958.608c-.385.048-.75.144-1.094.286l-2.864-23.33a6.02 6.02 0 015.241-6.71l25.364-3.116c5.785-.71 11.102-3.397 13.386-7.844 13.513 5.376 9.993 25.984.982 27.091z" fill="#475D6D"/><path d="M123.912 62a11.65 11.65 0 01-2.148 2.897C130.89 72.281 127.175 89.003 119 90l5.907-.72c9.136-1.115 12.705-21.867-.995-27.28z" fill="#2C3F4F"/><path d="M182.516 137.633l-1.305 10.696 5.01.62c2.358.29 4.036 2.452 3.746 4.827-.29 2.375-2.437 4.064-4.796 3.772l-5.01-.619-.533 4.378c-1.271 10.42-10.693 17.829-21.044 16.55-10.351-1.28-17.712-10.763-16.441-21.182L145.03 133l37.485 4.633z" fill="#FCA"/><path d="M187.217 148.948l-5.012-.619 1.305-10.696L146 133l31.953 3.946-1.306 10.697-1.05 8.6-.534 4.378c-1.21 9.91-8.674 17.23-16.993 16.984.49.101.987.189 1.493.251 10.358 1.28 19.786-6.13 21.058-16.549l.534-4.378 5.013.62c2.36.291 4.51-1.398 4.8-3.773.29-2.375-1.39-4.536-3.75-4.828z" fill="#F2A077"/><path d="M172.237 152.815c-.52 0-1.033-.217-1.377-.631-.58-.697-1.654-.821-2.396-.277-.76.558-1.857.432-2.45-.282-.594-.714-.46-1.745.3-2.303 2.26-1.659 5.533-1.28 7.297.842.594.714.459 1.745-.3 2.303-.32.234-.698.347-1.074.347zm-18.462-2.131c-.52 0-1.033-.216-1.377-.63a1.724 1.724 0 00-1.137-.605c-.453-.053-.9.064-1.26.328-.76.558-1.856.431-2.45-.283-.593-.714-.458-1.745.302-2.303a5.406 5.406 0 013.833-.999c1.379.16 2.608.813 3.463 1.841.594.714.459 1.745-.3 2.303a1.808 1.808 0 01-1.074.348z" fill="#475D6D"/><path d="M157.199 167.955c3.244.397 6.198-1.9 6.596-5.13l.198-1.606a.893.893 0 00-.78-.994l-9.971-1.218a.895.895 0 00-1 .776l-.197 1.607c-.399 3.23 1.909 6.169 5.154 6.565z" fill="#CE3A4C"/><path d="M185.692 118.634l-23.927-2.958a4.987 4.987 0 01-3.441-2.056c-2.234-3.122-5.778-5.28-9.94-5.585-6.883-.504-13.102 4.448-14.207 11.307-1.228 7.618 4.08 14.667 11.615 15.599l33.88 4.188c1.862.23 3.187 1.937 2.958 3.812l-.629 5.155 4.979.615c.386.048.753.146 1.099.289l2.875-23.583c.407-3.337-1.949-6.373-5.262-6.783z" fill="#BE6351"/><path d="M185.043 118.52L181 118c3.094.398 5.294 3.346 4.915 6.585l-2.669 22.749 3 .386c.36.046.703.141 1.026.28l2.685-22.896c.38-3.238-1.82-6.186-4.914-6.584z" fill="#AA473A"/><path d="M166.463 82.74a1.69 1.69 0 01-1.682-1.696v-4.277a1.69 1.69 0 011.682-1.696c.93 0 1.683.76 1.683 1.696v4.277a1.69 1.69 0 01-1.683 1.696zm0 13.147a1.69 1.69 0 01-1.682-1.696v-4.277a1.69 1.69 0 011.682-1.696c.93 0 1.683.76 1.683 1.696v4.277a1.69 1.69 0 01-1.683 1.696zm8.643-8.712h-4.243a1.69 1.69 0 01-1.682-1.696 1.69 1.69 0 011.682-1.696h4.243c.929 0 1.682.759 1.682 1.696a1.69 1.69 0 01-1.682 1.696zm-13.042 0h-4.243a1.69 1.69 0 01-1.682-1.696 1.69 1.69 0 011.682-1.696h4.243c.929 0 1.682.759 1.682 1.696a1.69 1.69 0 01-1.682 1.696zm-57.527 64.607a1.69 1.69 0 01-1.682-1.696v-4.277a1.69 1.69 0 011.682-1.696c.93 0 1.683.76 1.683 1.696v4.277a1.69 1.69 0 01-1.683 1.696zm0 13.148a1.69 1.69 0 01-1.682-1.697v-4.276a1.69 1.69 0 011.682-1.696c.93 0 1.683.759 1.683 1.696v4.276a1.69 1.69 0 01-1.683 1.696zm8.643-8.713h-4.243a1.69 1.69 0 01-1.682-1.696 1.69 1.69 0 011.682-1.696h4.243c.929 0 1.682.76 1.682 1.696a1.69 1.69 0 01-1.682 1.696zm-13.043 0h-4.242a1.69 1.69 0 01-1.683-1.696 1.69 1.69 0 011.683-1.696h4.242c.93 0 1.683.76 1.683 1.696a1.69 1.69 0 01-1.683 1.696z" fill="#57F"/></g></svg>