<svg width="140" height="35" fill="none" xmlns="http://www.w3.org/2000/svg"><path d="M130.562 24.871l-5.244-12.06h3.496l3.496 8.565 4.194-8.565H140l-8.215 16.605h-3.495l2.272-4.545zm-12.759-2.447c.349 0 .524-.174.874-.35.349-.174.524-.349.699-.524.175-.174.349-.524.524-.699.175-.35.35-.524.35-.873.174-.35.174-.7.174-1.05 0-.349 0-.698-.174-1.048-.175-.35-.175-.524-.35-.874a2.414 2.414 0 00-.524-.699c-.175-.175-.525-.35-.699-.524-.35-.175-.525-.175-.874-.35-.35 0-.699-.175-1.049-.175-.349 0-.699 0-1.049.175-.349 0-.524.175-.874.35-.349.175-.524.35-.699.524-.174.175-.349.524-.524.7-.175.349-.35.524-.35.873-.174.35-.174.7-.174 1.049 0 .35 0 .699.174 1.049 0 .35.175.524.35.873.175.35.35.525.524.7.175.174.525.35.699.524.35.175.525.175.874.35.35 0 .7.174 1.049.174.35-.175.699-.175 1.049-.175zm-3.671 2.622c-.524-.175-1.048-.35-1.573-.699a7.05 7.05 0 01-2.272-2.272c-.349-.524-.524-1.049-.699-1.573-.35-1.224-.35-2.447 0-3.496.175-.524.35-1.049.699-1.573.524-.874 1.224-1.748 2.272-2.272.525-.35 1.049-.524 1.573-.7.525-.174 1.224-.174 1.748-.174h.874c.35 0 .524.175.874.175s.524.175.699.35c.175.174.524.174.699.349l.525.524.524.525v-1.4h3.321v12.06h-3.321v-1.398c-.175.35-.524.524-.699.7l-1.049.524c-.349.174-.874.35-1.223.35-.525.174-.874.174-1.399.174-.349 0-.874 0-1.573-.175zm-12.06-9.263c.525 0 .874 0 1.399-.175.349-.175.699-.175 1.048-.524.175-.175.525-.525.525-.874.174-.35.174-.7.174-1.049 0-.35 0-.7-.174-1.049-.175-.35-.35-.524-.525-.874-.349-.174-.699-.35-1.048-.35-.525-.174-.874-.174-1.399-.174h-3.32v5.243h3.32v-.174zm-6.641-8.04h6.991c1.049 0 2.097.175 2.796.35.7.174 1.399.698 2.098 1.048.524.524.874 1.049 1.223 1.748.35.699.35 1.398.35 2.272 0 .7-.175 1.398-.35 2.097-.174.7-.699 1.224-1.223 1.748-.524.525-1.224.874-2.098 1.049-.873.35-1.747.35-2.796.35h-3.67v6.466h-3.496V7.743h.175zm-14.857 5.069h3.321v1.398c.175-.35.525-.525.7-.7.349-.174.524-.349.873-.524.35-.175.7-.35 1.224-.35s.874-.174 1.398-.174c.699 0 1.398.175 2.097.35.525.174 1.049.524 1.573 1.048.525.524.7 1.049 1.049 1.573.175.7.35 1.398.35 2.098v7.34h-3.321v-6.466c0-.525 0-.874-.175-1.399l-.524-1.049a.961.961 0 00-.874-.524c-.35-.175-.874-.175-1.224-.175s-.874 0-1.223.175c-.35.175-.7.35-.874.524-.175.35-.525.7-.525 1.05-.174.524-.174.873-.174 1.397v6.467h-3.321v-12.06h-.35zM72.36 22.25c.35 0 .7-.175.874-.35.35-.175.525-.35.7-.524.174-.175.35-.525.524-.7.175-.349.35-.524.35-.873 0-.35.174-.7.174-1.049 0-.35 0-.7-.174-1.049-.175-.524-.525-1.223-.874-1.573-.175-.175-.525-.35-.7-.524-.35-.175-.524-.35-.874-.35-.349 0-.699-.174-1.048-.174-.35 0-.7 0-1.049.174-.35 0-.699.175-.874.35-.35.175-.524.35-.699.524-.175.175-.35.525-.524.7-.175.349-.35.524-.35.873-.175.35-.175.7-.175 1.049 0 .35 0 .7.175 1.049 0 .35.175.524.35.874s.35.524.524.699c.175.174.525.35.7.524.349.175.524.175.873.35.35 0 .7.174 1.049.174.35 0 .699 0 1.048-.174zm-2.97 2.796c-.525-.175-1.224-.35-1.749-.699a2.718 2.718 0 01-1.398-1.049c-.35-.35-.699-.873-1.049-1.223-.35-.524-.524-1.049-.699-1.573-.35-1.224-.35-2.447 0-3.496.175-.524.35-1.049.7-1.573s.699-.874 1.048-1.223c.35-.35.874-.7 1.398-1.049.525-.35 1.05-.524 1.748-.7a7.18 7.18 0 013.845 0c.525.176 1.224.35 1.748.7a2.719 2.719 0 011.398 1.049c.35.35.7.874 1.05 1.223.349.524.523 1.049.698 1.573.35 1.224.35 2.447 0 3.496-.174.524-.35 1.049-.699 1.573-.35.524-.699.874-1.049 1.223-.35.35-.873.7-1.398 1.05-.524.349-1.048.523-1.748.698a7.182 7.182 0 01-3.845 0zM56.453 22.25c.35 0 .7-.175.874-.35.35-.175.525-.35.7-.524.174-.175.349-.525.524-.7.175-.349.35-.524.35-.873 0-.35.174-.7.174-1.049 0-.35 0-.7-.175-1.049-.174-.524-.524-1.223-.874-1.573-.174-.175-.524-.35-.699-.524-.35-.175-.524-.35-.874-.35s-.699-.174-1.048-.174c-.35 0-.7 0-1.049.174-.35 0-.7.175-.874.35-.35.175-.524.35-.699.524-.175.175-.35.525-.524.7-.175.349-.35.524-.35.873-.175.35-.175.7-.175 1.049 0 .35 0 .7.175 1.049 0 .35.175.524.35.874.174.35.35.524.524.699.175.174.524.35.7.524.349.175.523.175.873.35.35 0 .7.174 1.049.174.35 0 .699 0 1.048-.174zm-2.97 2.796c-.525-.175-1.224-.35-1.749-.699a2.719 2.719 0 01-1.398-1.049c-.35-.35-.7-.873-1.049-1.223-.35-.524-.524-1.049-.699-1.573-.35-1.224-.35-2.447 0-3.496.175-.524.35-1.049.7-1.573.349-.524.698-.874 1.048-1.223.35-.35.874-.7 1.398-1.049.525-.35 1.049-.524 1.748-.7a7.18 7.18 0 013.845 0c.525.176 1.224.35 1.748.7a2.718 2.718 0 011.398 1.049c.35.35.7.874 1.05 1.223.349.524.523 1.049.698 1.573.35 1.224.35 2.447 0 3.496-.175.524-.35 1.049-.699 1.573-.35.524-.7.874-1.049 1.223-.35.35-.873.7-1.398 1.05-.524.349-1.049.523-1.748.698a7.182 7.182 0 01-3.845 0zM27.265 7.743h3.496l5.942 9.088 5.943-9.088h3.495V24.87h-3.495V13.16l-4.894 7.516h-2.098l-4.893-7.516v11.71h-3.496V7.743z" fill="#fff"/><path d="M19.4 10.889c.7 0 1.399-.175 1.923-.524.525-.35 1.05-.874 1.224-1.574.35-.699.35-1.398.175-2.097-.175-.699-.525-1.223-.874-1.748-.525-.524-1.049-.874-1.748-.874-.7-.174-1.398 0-2.098.175-.699.35-1.223.7-1.572 1.224-.35.524-.525 1.223-.525 1.922 0 .525.175.874.35 1.398 0 .35.35.7.524 1.05.35.349.7.524 1.049.698.524.175 1.048.35 1.573.35zM8.565 26.619c-1.748 0-3.32-.524-4.719-1.398-1.398-.874-2.447-2.272-3.146-3.845-.7-1.573-.875-3.321-.525-4.894s1.223-3.146 2.272-4.37C3.67 10.89 5.069 10.19 6.817 9.84c1.573-.35 3.32-.175 4.893.524 1.573.7 2.797 1.748 3.846 3.147.874 1.398 1.398 2.97 1.398 4.719 0 1.048-.175 2.272-.7 3.32-.349 1.05-1.048 1.923-1.922 2.797-.874.874-1.748 1.398-2.796 1.923-.7.174-1.748.35-2.972.35z" fill="#7D00FF"/></svg>