<svg xmlns="http://www.w3.org/2000/svg" viewBox="0 0 36 24"><path d="M0 6.4C0 4.2 0 3 .4 2.2.8 1.4 1.4.8 2.1.5 3 0 4.2 0 6.4 0h23.2c2.2 0 3.4 0 4.2.4.8.4 1.4 1 1.7 1.7.5.9.5 2.1.5 4.3v11.2c0 2.2 0 3.4-.4 4.2-.4.8-1 1.4-1.7 1.7-.9.5-2.1.5-4.3.5H6.4c-2.2 0-3.4 0-4.2-.4-.8-.4-1.4-1-1.7-1.7C0 21 0 19.8 0 17.6V6.4z" fill="gray"/><path d="M10.5 10h15c.3 0 .6-.2.7-.4.1-.2 0-.5-.2-.7l-7.5-4.8c-.1-.1-.3-.1-.5-.1s-.4.1-.5.1L10 8.9c-.3.2-.3.5-.2.7.1.2.4.4.7.4zm15 7.7h-15c-.4 0-.8.3-.8.6v.9c0 .3.4.6.8.6h15c.4 0 .8-.3.8-.6v-.9c0-.3-.4-.6-.8-.6zm-13.1-6.9c-.1 0-.1.1-.1.2v5.8c0 .1.1.2.1.2H14c.1 0 .1-.1.1-.2V11c0-.1-.1-.2-.1-.2h-1.6zm4.8 0c-.1 0-.1.1-.1.2v5.8c0 .1.1.2.1.2h1.6c.1 0 .1-.1.1-.2V11c0-.1-.1-.2-.1-.2h-1.6zm4.8 0c-.1 0-.1.1-.1.2v5.8c0 .1.1.2.1.2h1.6c.1 0 .1-.1.1-.2V11c0-.1-.1-.2-.1-.2H22z" fill="#fff"/></svg>