<svg version="1.0" xmlns="http://www.w3.org/2000/svg" width="348" height="350.667" viewBox="0 0 261 263"><path d="M11.7 10.4c-1.4 1.3-2.9 3.5-3.2 4.8-.3 1.2-.4 26-.3 55l.3 52.8 2.8 2.7 2.7 2.8 52.8.3c29 .1 53.8 0 55-.3 1.3-.3 3.5-1.8 4.8-3.2 2.4-2.6 2.4-2.7 2.4-24.9V78H74.5l17 17 17 17-6.3 6.2-6.2 6.3L68.5 97 41 69.5 68.5 42 96 14.5l6.2 6.3 6.3 6.2-17 17-17 17H129V13.8l-2.9-2.9-2.9-2.9H14.3l-2.6 2.4zM137 69v9h19V60h-19v9zm37 0v9h19V60h-19v9zm-38.7 64.8c-3.8 2.9-4.3 6.4-4.3 27.8V182h55.5l-17-17-17-17 6-6 6-6 27.5 27.5 27.5 27.5-27.5 27.5-27.5 27.5-5.7-5.7c-3.2-3.2-5.8-6.2-5.8-6.8 0-.5 7.3-8.3 16.2-17.2l16.3-16.3H131v22.2c0 20.5.2 22.6 2 25.6 1.1 1.8 3.2 3.7 4.6 4.2 1.5.6 23.2 1 54.5 1 55.6 0 56.3-.1 58.9-4.9.6-1.3 1-21 1-56.4v-54.5l-3.1-2.6-3.1-2.6h-54.1c-49.8 0-54.4.2-56.4 1.8zM67 191v9h20v-18H67v9zm37 0v9h20v-18h-20v9z"/></svg>