<svg xmlns="http://www.w3.org/2000/svg" viewBox="0 0 30 30"><path d="M22.4 9.2c4.1 4.1 4.1 10.7 0 14.8s-10.7 4.1-14.8 0-4.1-10.7 0-14.8c.4-.4 1.1-.4 1.5 0 .4.4.4 1 0 1.5-3.3 3.3-3.3 8.6 0 11.9s8.6 3.3 11.9 0 3.3-8.6 0-11.9c-.4-.4-.4-1.1 0-1.5.3-.4 1-.4 1.4 0z" fill-rule="evenodd" clip-rule="evenodd" fill="#05c0a5"/><path d="M15 20c-.5 0-1-.4-1-.9V6.7l-2.5 2.5c-.3.3-.9.4-1.3 0h-.1c-.4-.4-.4-1-.1-1.4l.1-.1 4.2-4.2c.4-.4 1-.4 1.4-.1v.1l4.2 4.2c.4.4.4 1.1 0 1.5s-1 .4-1.4.1v-.1l-2.4-2.4V19c-.1.5-.5 1-1.1 1z" fill-rule="evenodd" clip-rule="evenodd" fill="#fff"/></svg>