<svg width="38" height="38" xmlns="http://www.w3.org/2000/svg" xmlns:xlink="http://www.w3.org/1999/xlink"><defs><path id="a" d="M.04.033h7.923v5.95H.041z"/></defs><g transform="translate(0 1)" fill="none" fill-rule="evenodd"><circle stroke="#00C0A5" cx="18.856" cy="18" r="18"/><path d="M20 25.5a1.5 1.5 0 11-3 0 1.5 1.5 0 013 0" fill="#00C0A5"/><g transform="translate(21 13)"><mask id="b" fill="#fff"><use xlink:href="#a"/></mask><path d="M5.904 5.983l2.06-1.99A14.897 14.897 0 00.113.033L.04 2.886a11.945 11.945 0 015.863 3.097" fill="#00C0A5" mask="url(#b)"/></g><path d="M8 16.994L10.08 19A12.075 12.075 0 0116 15.878L15.932 13A15.06 15.06 0 008 16.994m4 3.746c.493.6 1.369 1.661 1.862 2.26.655-.794 1.38-1.385 2.138-1.775L15.94 18c-1.452.469-2.82 1.382-3.94 2.74M23.186 23c.503-.598 1.311-1.717 1.814-2.316-1.12-1.332-2.484-2.224-3.933-2.684L21 21.223c.776.39 1.517.981 2.186 1.777m-3.959-13h-1.454c-.425 0-.773.366-.773.813l.034 1.553.062 2.896.052 2.412.058 2.697.019.836c0 .448.206.793.632.793h1.314c.425 0 .586-.39.586-.837l.018-.793.064-2.696.056-2.412.069-2.896.036-1.553c0-.447-.348-.813-.773-.813" fill="#00C0A5"/></g></svg>