<svg width="44" height="46" fill="none" xmlns="http://www.w3.org/2000/svg"><g clip-path="url(#clip0_298_332)"><mask id="a" style="mask-type:luminance" maskUnits="userSpaceOnUse" x="0" y="0" width="44" height="46"><path d="M44 0H0v46h44V0z" fill="#fff"/></mask><g mask="url(#a)"><path d="M44 0H0v46h44V0z" fill="#0052FF"/><path d="M22 32.61c-5.078 0-9.192-4.3-9.192-9.61s4.114-9.61 9.192-9.61c4.55 0 8.326 3.468 9.054 8.008h9.26C39.535 11.533 31.637 3.781 22 3.781 11.85 3.78 3.616 12.389 3.616 23c0 10.61 8.235 19.218 18.384 19.218 9.636 0 17.533-7.751 18.315-17.617h-9.261c-.728 4.54-4.504 8.008-9.054 8.008z" fill="#fff"/></g></g><defs><clipPath id="clip0_298_332"><rect width="44" height="46" rx="5" fill="#fff"/></clipPath></defs></svg>