<svg width="90" height="90" xmlns="http://www.w3.org/2000/svg"><g fill="none" fill-rule="evenodd"><path fill="#FFF" d="M44.185 25.09l22.239 22.223L34.49 80.117l-5.047-1.283L15.26 65.013l-1.857-7.343 1.857-4.257zm4.737 1.998l16.3 17.397 13.58-14.952-17.484-16.565z"/><path d="M81.369 28.184l-17.9-17.58a2.11 2.11 0 00-2.953-.002L47.09 23.739l-1.508-1.507a2.11 2.11 0 00-2.991.008l-29.5 29.821a10.54 10.54 0 00-.011 14.905l11.6 11.922a10.542 10.542 0 0014.937.02l29.832-29.83a2.109 2.109 0 000-2.983l-1.492-1.491L81.382 31.18a2.11 2.11 0 00-.013-2.996zM36.633 75.926a6.325 6.325 0 01-8.94.009l-11.597-11.92-.02-.021a6.324 6.324 0 01.007-8.958L44.1 26.714l20.875 20.873-28.34 28.339zM64.974 41.62l-14.9-14.899 11.914-11.659 14.906 14.64-11.92 11.918z" stroke="#003945" fill="#003945" fill-rule="nonzero"/><path d="M26.133 54.999l16.856-16.856a1 1 0 011.414 0l9.107 9.106a1 1 0 010 1.415L36.654 65.52a4 4 0 01-5.657 0l-4.864-4.864a4 4 0 010-5.657z" stroke="#003945" stroke-width="3.8" fill="#05C0A5"/><path d="M33.478 58.02l1.068-1.145m4.411-4.334l4.27-4.577" stroke="#003945" stroke-linecap="round" stroke-width="3.8"/><path d="M64.111 22.41a2.292 2.292 0 00-3.241 0l-3.242 3.242a2.292 2.292 0 103.242 3.242l3.241-3.242a2.292 2.292 0 000-3.241zm5.479 5.479a2.292 2.292 0 00-3.242 0l-3.242 3.241a2.292 2.292 0 103.242 3.242l3.241-3.242a2.292 2.292 0 000-3.241z" fill="#003945" fill-rule="nonzero"/></g></svg>