<svg xmlns="http://www.w3.org/2000/svg" width="500" height="500"><circle fill="#D5F6F2" cx="250.012" cy="250.134" r="242.988"/><path fill="#08CDB7" d="M304.195 194.857l-25-25s-6.5-5.5-14 2.5-125.5 125.5-125.5 125.5-5 5-4.5 12-.035 46-.035 46 1.535 10.5 11.535 9.5 47 .066 47 .066 5.5.934 14.5-7.566 122.5-122 122.5-122 9-7 0-16.5-26.5-24.5-26.5-24.5z"/><path fill="#7B8FEE" d="M321.695 128.857s-5-5.5-12 0-23 22.5-23 22.5-3 6.5 0 12 53 51 53 51 5 5 11.5 0 23-23.5 23-23.5 3.287-4.589-2.5-11.5c-9.5-11.343-50-50.5-50-50.5z"/></svg>