<svg width="15" height="17" xmlns="http://www.w3.org/2000/svg"><path d="M9.466 3.4a.5.5 0 01-.507-.493.5.5 0 01.507-.493.5.5 0 01.507.493.5.5 0 01-.507.493zm-4.057 0a.5.5 0 01-.507-.493.5.5 0 01.507-.493.5.5 0 01.507.493.5.5 0 01-.507.493zm4.356-1.977l.19-.278.189-.273.42-.616a.16.16 0 00-.047-.228.17.17 0 00-.233.046l-.643.936-.193.282a5.691 5.691 0 00-2.01-.36 5.695 5.695 0 00-2.011.36l-.192-.282-.19-.277-.452-.659a.173.173 0 00-.235-.046.163.163 0 00-.048.228l.422.616.188.273.19.278c-1.434.651-2.405 1.883-2.405 3.294h9.465c0-1.41-.97-2.643-2.404-3.294zM2.778 5.374h-.073v7.239c0 .575.48 1.043 1.071 1.043h.773a.927.927 0 00-.042.273v2.084c0 .545.456.987 1.015.987.56 0 1.015-.442 1.015-.987V13.93a.968.968 0 00-.041-.273h1.883a.96.96 0 00-.04.273v2.084A1 1 0 009.353 17c.56 0 1.016-.442 1.016-.987V13.93a.932.932 0 00-.043-.273h.774c.591 0 1.07-.468 1.07-1.043v-7.24H2.778zm-1.763 0C.454 5.374 0 5.816 0 6.361v4.223c0 .545.454.987 1.015.987a1 1 0 001.013-.987V6.36a1 1 0 00-1.013-.987zm12.846 0a1 1 0 00-1.014.987v4.223a1 1 0 001.014.987 1 1 0 001.014-.987V6.36a1 1 0 00-1.014-.987z" fill="#0B2840" opacity=".5"/></svg>