<svg width="38" height="38" xmlns="http://www.w3.org/2000/svg"><g transform="translate(0 1)" fill="none" fill-rule="evenodd"><circle stroke="#FFF" cx="18.856" cy="18" r="18"/><g fill="#FFF" fill-rule="nonzero"><path d="M14.974 13.234h-.764v1.597h.764c.412 0 .655-.229.655-.754v-.11c0-.54-.243-.733-.655-.733zm.478-1.294c0-.352-.208-.569-.562-.569h-.769v1.153h.776c.374 0 .555-.237.555-.583z"/><path d="M27.63 8H10.37A2.376 2.376 0 008 10.377v5.537a2.376 2.376 0 002.37 2.376h3.757a3.321 3.321 0 013.23-2.584c.886 0 1.718.345 2.344.973.449.45.752 1.006.888 1.611h7.04A2.376 2.376 0 0030 15.914v-5.537A2.376 2.376 0 0027.63 8zm-11.126 6.187c0 1.08-.6 1.467-1.38 1.467H13.66c-.242 0-.393-.131-.393-.276v-4.5c0-.187.193-.284.393-.284h1.332c.718 0 1.388.236 1.388 1.219 0 .567-.22.941-.587 1.1.422.166.711.436.711 1.129v.145zm3.936-.076c0 1.156-.732 1.585-1.657 1.585-.932 0-1.657-.43-1.657-1.585v-3.24c0-.193.22-.277.448-.277.221 0 .45.084.45.277v3.24c0 .54.282.796.758.796.477 0 .76-.256.76-.796v-3.24c0-.193.221-.277.449-.277.22 0 .448.084.448.277v3.24zm4.273-3.053l-1.422 2.478a.174.174 0 00-.028.09v1.745c0 .186-.221.283-.449.283-.22 0-.449-.097-.449-.283v-1.745a.174.174 0 00-.02-.09l-1.43-2.478a.273.273 0 01-.02-.09c0-.221.352-.374.594-.374.145 0 .214.056.276.18l1.05 2 1.056-2c.062-.117.124-.18.269-.18.242 0 .594.153.594.374 0 .021 0 .056-.021.09z"/><path d="M22.392 20.926h-3.009v-1.939c0-.541-.21-1.05-.594-1.433a2.03 2.03 0 00-3.463 1.434v3.292l-.066-.001c-.54 0-1.05.21-1.432.592a2.014 2.014 0 00-.594 1.434c0 .542.21 1.05.594 1.434l2.88 2.879A4.69 4.69 0 0020.047 30a4.724 4.724 0 004.72-4.718V23.3a2.376 2.376 0 00-2.374-2.374z"/></g></g></svg>