<svg width="24" height="24" xmlns="http://www.w3.org/2000/svg"><path d="M9.602 10.15a.639.639 0 00-.57-.341.639.639 0 00-.57.34L5.62 15.476a.91.91 0 00.075.975l2.822 3.757a.642.642 0 00.516.258.642.642 0 00.517-.257l2.827-3.758a.909.909 0 00.075-.976l-2.85-5.325zm-.569 7.884L7.378 15.83l1.655-3.1 1.659 3.1-1.659 2.204zm11.483-16.5C19.252 1.189 17.586 1 15.824 1c-1.761 0-3.427.19-4.692.534-1.648.448-2.484 1.136-2.484 2.044V6.94C4.397 7.142 1 10.664 1 14.965 1 19.395 4.605 23 9.035 23c.895 0 1.756-.147 2.56-.418 1.21.273 2.671.418 4.23.418 1.76 0 3.427-.19 4.691-.534C22.164 22.018 23 21.33 23 20.422V3.578c0-.908-.836-1.596-2.484-2.044zM2.72 14.964a6.324 6.324 0 017.793-6.14c.192.068.399.133.62.193.034.01.069.018.103.027a6.327 6.327 0 014.117 5.92 6.324 6.324 0 01-6.317 6.317 6.324 6.324 0 01-6.316-6.316zm16.933 5.946c-1.066.24-2.426.371-3.828.371-.595 0-1.181-.024-1.741-.07a8.102 8.102 0 001.51-1.607l.231.001c1.054 0 2.063-.066 2.998-.196a.86.86 0 00-.238-1.703c-.638.09-1.34.147-2.06.17.2-.512.349-1.05.44-1.606.645-.03 1.268-.087 1.858-.17a.86.86 0 00-.238-1.702 18.98 18.98 0 01-1.525.146 8.011 8.011 0 00-.24-1.577 20.674 20.674 0 002.003-.175.86.86 0 10-.238-1.703 20.01 20.01 0 01-2.417.178 8.074 8.074 0 00-1.215-1.732c.287.01.578.016.872.016 1.054 0 2.063-.066 2.998-.197a.86.86 0 00-.238-1.702c-.844.118-1.799.18-2.76.18-1.401 0-2.761-.132-3.828-.371-.086-.02-.167-.039-.245-.059a7.951 7.951 0 00-.745-.228c-.355-.133-.552-.254-.639-.327V5.375c.232.09.487.172.765.248 1.265.344 2.931.533 4.692.533 1.054 0 2.063-.066 2.998-.196a.86.86 0 00-.238-1.703c-.844.118-1.799.18-2.76.18-1.401 0-2.761-.131-3.828-.37-.746-.168-1.194-.353-1.439-.489.245-.136.693-.32 1.439-.488 1.067-.24 2.427-.371 3.828-.371 1.402 0 2.762.132 3.828.371 1.019.229 1.482.49 1.63.614v16.592c-.148.125-.612.386-1.63.614z" fill="#8698A3"/></svg>