<svg width="127" height="67" xmlns="http://www.w3.org/2000/svg"><g fill="none"><path d="M67.772 31.454c-.32.181-.717.272-1.175.272-.153 0-.504-.016-1.085-.076v1.642c.504.136 1.008.18 1.527.18.794 0 1.45-.21 1.985-.617.535-.406 1.008-1.04 1.405-1.913l4.49-10.122-2.123.03-2.718 6.628-2.642-6.628h-2.122l3.68 8.676-.382.859c-.244.527-.534.889-.84 1.07zm10.49-2.756c.336.467.794.828 1.344 1.084a4.43 4.43 0 001.862.392c1.298 0 2.367-.437 3.207-1.356.84-.903 1.282-2.033 1.282-3.389 0-1.355-.427-2.485-1.297-3.389-.87-.904-1.955-1.355-3.253-1.355l.077-.016c-1.329 0-2.367.437-3.1 1.31v-5.904h-1.97v13.873h1.833v-1.25h.015zm.84-5.453a2.803 2.803 0 011.97-.783c.809 0 1.48.271 2.03.828.55.558.81 1.266.81 2.124 0 .874-.26 1.597-.81 2.154-.55.558-1.176.859-1.985.859h-.03c-.764 0-1.42-.241-1.97-.738s-.825-1.235-.825-2.215c0-.979.26-1.717.81-2.229zM60.718 42.48h-.015c-1.145 0-2.061.377-2.764 1.115v-.904h-1.832v9.128h1.97v-5.452c0-.618.183-1.115.58-1.507.397-.391.9-.587 1.527-.587.595 0 1.084.21 1.465.587.382.392.565.904.565 1.537v5.422h1.97v-5.693c0-1.085-.305-1.959-.916-2.621-.61-.663-1.481-1.025-2.55-1.025zm10.016-.015c-1.328 0-2.458.467-3.374 1.386-.916.919-1.39 2.049-1.39 3.39 0 1.355.474 2.485 1.405 3.388.932.904 2.123 1.371 3.543 1.371 1.404 0 2.626-.482 3.68-1.461l-.932-1.326c-.824.723-1.725 1.07-2.687 1.07-.81 0-1.481-.211-2.031-.633-.55-.422-.886-1.024-1.008-1.777h6.871c.168-.452.183-1.22.183-1.22 0-1.205-.412-2.2-1.221-2.998-.794-.798-1.817-1.19-3.039-1.19zm-2.748 3.902c.153-.678.473-1.22.962-1.627.489-.407 1.038-.603 1.695-.618.656 0 1.206.211 1.664.618.443.406.672.949.687 1.627h-5.008zm24.72-16.177c1.405 0 2.626-.483 3.68-1.462l-.931-1.325c-.825.723-1.726 1.069-2.688 1.069-.809 0-1.48-.21-2.03-.633-.55-.421-.886-1.024-1.008-1.777h6.87c.184-.482.184-1.22.184-1.22 0-1.205-.412-2.2-1.221-2.998-.81-.798-1.817-1.19-3.039-1.19-1.328 0-2.458.467-3.374 1.386-.917.919-1.39 2.049-1.39 3.39 0 1.355.473 2.485 1.405 3.388.931.92 2.122 1.371 3.542 1.371zm-1.985-7.246c.489-.407 1.039-.603 1.695-.618.657 0 1.206.211 1.664.618.443.407.672.949.688 1.627h-5.009c.153-.693.474-1.22.962-1.627zm-9.146 27.279c-.595 0-1.053-.106-1.343-.347-.306-.24-.443-.648-.443-1.22v-4.278h2.733v-1.687h-2.733v-2.38h-1.985v2.38h-1.496v1.687h1.496v4.444c0 1.054.305 1.852.9 2.365.596.512 1.42.783 2.49.783.473 0 1.007-.075 1.633-.211v-1.642c-.55.06-.931.106-1.221.106h-.03zm13.299-1.673l-2.84-6.07h-.671l-2.795 6.146-2.427-5.935h-2.092l4.092 9.279h.672l2.885-6.04 2.886 6.04h.687l4.077-9.279h-2.092zm9.895-6.07c-1.375 0-2.52.467-3.451 1.371-.932.904-1.405 2.034-1.405 3.374 0 1.34.473 2.455 1.405 3.374.931.904 2.076 1.37 3.45 1.386 1.344 0 2.49-.467 3.451-1.386.962-.919 1.42-2.048 1.42-3.389 0-1.325-.488-2.455-1.45-3.374-.932-.904-2.077-1.34-3.42-1.356zm2 6.839c-.55.557-1.222.828-2.03.828-.825 0-1.497-.27-2.047-.828-.55-.557-.81-1.265-.81-2.094 0-.858.26-1.551.81-2.109.55-.557 1.222-.828 2.046-.858h.015c.81.015 1.481.301 2.031.843.55.558.81 1.266.81 2.109 0 .844-.29 1.552-.825 2.109zm9.191-6.719h.073-.071zm-2.671 1.266v-1.19h-1.833v9.128h1.97v-4.88c0-.798.26-1.401.763-1.853.504-.437 1.146-.663 1.91-.663h.595v-1.717a2.707 2.707 0 00-.733-.09c-1.115 0-2.016.422-2.672 1.265zM100.57 25.128c0-.798.26-1.4.763-1.853.504-.437 1.145-.662 1.909-.662h.595v-1.718a2.707 2.707 0 00-.733-.09c-1.13 0-2.03.437-2.687 1.28v-1.19h-1.832v9.113h1.97v-4.88h.015zm2.534-4.338h.072-.072zm15.422 17.096h1.97v13.918h-1.97zm4.351 8.797l3.71-3.992h-2.427l-3.603 3.977 4.015 5.136h2.367zM64.169 20.88h-2.443l-3.588 3.992 4.015 5.136h2.367l-4.062-5.121zm-8.062-4.79h1.97v13.918h-1.97z" fill="#141927"/><path d="M20 33.509l25.03 14.317c.878.499 1.97-.136 1.97-1.134V20.31c0-1.013-1.092-1.633-1.97-1.134L20 33.509zm24.473-20.674L27.377.27c-.794-.585-1.93-.165-2.133.765L19 29l25.318-14.006c.84-.464.918-1.59.155-2.159M27.36 66.738l17.112-12.57a1.28 1.28 0 00-.14-2.16L19 38l6.243 27.973c.187.93 1.34 1.334 2.118.765" fill="#31CB9E"/><path d="M13.497 33.008L19.97 2.592c.254-1.196-1.094-2.058-2.053-1.317L1.348 14.047A3.467 3.467 0 000 16.801v32.398c0 1.074.494 2.103 1.348 2.754l16.568 12.772c.959.741 2.307-.121 2.053-1.317l-6.472-30.4z" fill="#31CB9E"/></g></svg>