<svg width="38" height="38" xmlns="http://www.w3.org/2000/svg"><g transform="translate(0 1)" fill="none" fill-rule="evenodd"><circle stroke="#00C0A5" cx="18.856" cy="18" r="18"/><path d="M14.545 21.91v3.52c0 .247.168.464.416.542a.643.643 0 00.188.028c.188 0 .37-.084.486-.232l2.183-2.804-3.273-1.055zM26.571 8.108a.593.593 0 00-.613-.042L8.316 17.2a.583.583 0 00-.314.561.584.584 0 00.396.508l4.904 1.662 10.445-8.853-8.083 9.652 8.22 2.785a.595.595 0 00.496-.054.586.586 0 00.276-.411l2.156-14.38a.582.582 0 00-.24-.56z" fill="#00C0A5" fill-rule="nonzero"/></g></svg>