<svg width="58" height="58" xmlns="http://www.w3.org/2000/svg"><defs><filter x="-14.1%" y="-47.1%" width="128.2%" height="194.2%" filterUnits="objectBoundingBox" id="a"><feOffset dy="12" in="SourceAlpha" result="shadowOffsetOuter1"/><feGaussianBlur stdDeviation="8.5" in="shadowOffsetOuter1" result="shadowBlurOuter1"/><feColorMatrix values="0 0 0 0 0.0819970561 0 0 0 0 0.11507115 0 0 0 0 0.247367527 0 0 0 0.0332440997 0" in="shadowBlurOuter1" result="shadowMatrixOuter1"/><feMerge><feMergeNode in="shadowMatrixOuter1"/><feMergeNode in="SourceGraphic"/></feMerge></filter></defs><g filter="url(#a)" transform="translate(-300 -29)" fill="#3B99FC"><path d="M312.342 47.508c9.035-8.677 23.684-8.677 32.72 0l1.087 1.044a1.08 1.08 0 010 1.571l-3.72 3.572a.595.595 0 01-.818 0l-1.496-1.437c-6.303-6.053-16.523-6.053-22.826 0l-1.603 1.54a.595.595 0 01-.817 0l-3.72-3.573a1.08 1.08 0 010-1.571l1.193-1.146zm40.412 7.388l3.31 3.18a1.08 1.08 0 010 1.57l-14.927 14.336a1.19 1.19 0 01-1.636 0l-10.595-10.174a.298.298 0 00-.409 0l-10.594 10.174a1.19 1.19 0 01-1.636 0l-14.928-14.336a1.08 1.08 0 010-1.571l3.31-3.18a1.19 1.19 0 011.636 0L316.88 65.07a.298.298 0 00.41 0l10.594-10.174a1.19 1.19 0 011.636 0l10.595 10.174a.298.298 0 00.409 0l10.594-10.174a1.19 1.19 0 011.636 0z"/></g></svg>