<svg width="156" height="156" fill="none" xmlns="http://www.w3.org/2000/svg"><g clip-path="url(#clip0_114_244)" fill-rule="evenodd" clip-rule="evenodd"><g filter="url(#filter0_d_114_244)"><path d="M78 114c19.882 0 36-16.118 36-36S97.882 42 78 42 42 58.118 42 78s16.118 36 36 36z" fill="#07A6B3"/><path d="M78 114c19.882 0 36-16.118 36-36S97.882 42 78 42 42 58.118 42 78s16.118 36 36 36z" fill="url(#paint0_linear_114_244)" fill-opacity=".2" style="mix-blend-mode:overlay"/></g><path d="M99.06 87.195l-25.664-10.51h17.032C89.77 70.402 84.458 65.504 78 65.504c-1.317 0-2.587.204-3.779.582l-5.702-9.788A23.598 23.598 0 0178 54.323c13.076 0 23.677 10.6 23.677 23.677 0 3.364-.702 6.564-1.967 9.462l-.65-.267zm-12.424 12.858A23.628 23.628 0 0178 101.677c-13.076 0-23.677-10.6-23.677-23.677 0-3.016.564-5.9 1.592-8.553l10.347 4.257A12.47 12.47 0 0065.504 78c0 6.902 5.595 12.496 12.496 12.496.961 0 1.897-.108 2.796-.314l5.84 9.871z" fill="#fff"/></g><defs><linearGradient id="paint0_linear_114_244" x1="78" y1="42" x2="78" y2="114" gradientUnits="userSpaceOnUse"><stop stop-color="#fff"/><stop offset="1" stop-color="#fff" stop-opacity="0"/></linearGradient><clipPath id="clip0_114_244"><path fill="#fff" d="M0 0h156v156H0z"/></clipPath><filter id="filter0_d_114_244" x=".462" y=".462" width="155.077" height="155.077" filterUnits="userSpaceOnUse" color-interpolation-filters="sRGB"><feFlood flood-opacity="0" result="BackgroundImageFix"/><feColorMatrix in="SourceAlpha" values="0 0 0 0 0 0 0 0 0 0 0 0 0 0 0 0 0 0 127 0" result="hardAlpha"/><feOffset/><feGaussianBlur stdDeviation="20.769"/><feColorMatrix values="0 0 0 0 0.027451 0 0 0 0 0.65098 0 0 0 0 0.701961 0 0 0 0.5 0"/><feBlend in2="BackgroundImageFix" result="effect1_dropShadow_114_244"/><feBlend in="SourceGraphic" in2="effect1_dropShadow_114_244" result="shape"/></filter></defs></svg>