<svg width="21" height="21" xmlns="http://www.w3.org/2000/svg"><g fill="none"><path d="M11.453 1c.159 0 .316.06.438.172l.767.703c.12.111.277.172.438.172h.024l1.033-.04h.023c.24 0 .465.136.577.352l.482.929a.66.66 0 00.376.32l.983.322c.238.08.412.289.446.54l.144 1.04a.665.665 0 00.245.43l.816.643c.199.156.29.413.238.661l-.22 1.026a.672.672 0 00.087.49l.55.888a.67.67 0 010 .704l-.555.888a.657.657 0 00-.086.49l.219 1.026a.666.666 0 01-.238.661l-.816.643a.665.665 0 00-.245.43l-.144 1.04a.66.66 0 01-.446.54l-.746.243-.24.08a.646.646 0 00-.376.32l-.482.928a.651.651 0 01-.577.351h-.023l-1.033-.04h-.024a.645.645 0 00-.438.173l-.767.703a.642.642 0 01-.683.122l-.957-.397a.609.609 0 00-.246-.05.656.656 0 00-.245.05l-.957.397a.608.608 0 01-.245.05.654.654 0 01-.439-.172l-.766-.703a.645.645 0 00-.439-.172h-.023l-1.033.04h-.024a.651.651 0 01-.576-.352l-.483-.929a.655.655 0 00-.375-.32l-.24-.08-.746-.242a.663.663 0 01-.446-.54l-.144-1.04a.665.665 0 00-.245-.43l-.816-.643a.666.666 0 01-.238-.661l.22-1.026a.672.672 0 00-.087-.49l-.55-.888a.67.67 0 010-.704l.55-.888a.657.657 0 00.086-.49l-.219-1.026a.666.666 0 01.238-.661l.826-.643a.665.665 0 00.246-.43l.143-1.04a.66.66 0 01.446-.54l.984-.322a.646.646 0 00.375-.32l.483-.929a.651.651 0 01.576-.351h.024l1.033.04h.023a.645.645 0 00.438-.173l.767-.703a.642.642 0 01.684-.122l.957.397c.078.034.162.05.245.05a.656.656 0 00.245-.05l.958-.397a.608.608 0 01.245-.05zm-1.45 2.06c-.924 0-1.821.183-2.666.545a6.897 6.897 0 00-3.641 3.692A6.986 6.986 0 003.157 10a6.986 6.986 0 00.996 3.613c.282.468.619.902 1.007 1.296a6.791 6.791 0 004.842 2.03 6.73 6.73 0 002.665-.544 6.82 6.82 0 002.176-1.486 6.853 6.853 0 001.466-2.206A6.986 6.986 0 0016.847 10c0-.936-.18-1.846-.537-2.703a6.926 6.926 0 00-1.466-2.206 6.792 6.792 0 00-4.841-2.03zM10 4a6 6 0 110 12 6 6 0 010-12z" fill="#05C0A5"/><path d="M13.752 9.695s.31-.47-.092-.828c-.502-.447-1.867-.149-1.867-.149a5.823 5.823 0 00-.303.06s-.473.213 0-1.174S11.175 6 10.843 6s-.22.688-.22.688-.71 1.893-1.386 2.396a1.47 1.47 0 00-.328.535.619.619 0 00-.394-.141h-.91a.597.597 0 00-.605.587v2.348c0 .326.274.587.606.587h.909a.6.6 0 00.336-.1c.02-.02.14-.137.14-.463v-1.46c0 .057.01 1.81 1.05 1.918.374.025.835.045 1.295.037.42.032.868.036 1.22-.037 1.204-.249.905-1.061.905-1.061.652-.474.282-1.065.282-1.065.573-.583.009-1.074.009-1.074z" fill="#FFF"/></g></svg>