<svg width="24" height="24" fill="none" xmlns="http://www.w3.org/2000/svg"><path fill-rule="evenodd" clip-rule="evenodd" d="M20.6 2.592c-2.883-.159-5.274.603-7.054 2.383-1.184 1.185-1.918 2.64-2.23 4.331a6.59 6.59 0 00-.432-.476C9.42 7.365 7.454 6.745 5.111 6.874a.857.857 0 00-.809.808c-.129 2.343.491 4.308 1.957 5.774 1.276 1.276 2.93 1.91 4.884 1.968v2.602c-1.403.095-2.774.42-4.059.95a.857.857 0 00.656 1.585 11.16 11.16 0 014.19-.85.873.873 0 00.142 0c1.399.009 2.82.283 4.192.852a.857.857 0 00.656-1.584 12.842 12.842 0 00-4.063-.954v-5.169c2.489-.03 4.574-.808 6.168-2.402 1.78-1.78 2.542-4.171 2.383-7.053a.857.857 0 00-.809-.809zm-5.841 3.595c1.214-1.215 2.837-1.87 4.954-1.9-.03 2.117-.685 3.74-1.9 4.954-1.215 1.215-2.838 1.871-4.955 1.9.03-2.116.686-3.74 1.9-4.954zm-8.754 2.39c.056 1.569.565 2.766 1.466 3.666.9.9 2.097 1.41 3.667 1.466-.056-1.57-.565-2.766-1.466-3.667-.9-.9-2.097-1.41-3.667-1.465z" fill="#fff"/></svg>