<svg version="1.1" id="Layer_1" xmlns="http://www.w3.org/2000/svg" x="0" y="0" viewBox="0 0 700 500" xml:space="preserve"><style>.st0{fill:#008cff}.st1{fill:#0cbfe8}</style><g class="leaf"><path class="st0" d="M132.4 200.5V43.8s-50.7 25.3-50.7 79 50.7 77.7 50.7 77.7"/><path class="st1" d="M132.4 43.8s50.7 25.3 50.7 79-50.7 77.7-50.7 77.7V43.8z"/><path class="st0" d="M250.7 274.2l69.7-39.6s-24.1-16.2-47.9-2.6c-23.9 13.6-21.8 42.2-21.8 42.2"/><path class="st1" d="M320.4 234.6s1.6 28.9-22.3 42.5c-23.9 13.6-47.4-2.9-47.4-2.9l69.7-39.6z"/></g><path class="outline" d="M323.8 228.3c-1.2-.7-30.6-16.2-55.4-1.8-19.9 11.5-23.9 34.6-24.7 44.1l-9.2 5.3c-4.6-4.5-10.8-7.3-17.7-7.3-6.8 0-13 2.7-17.6 7.1l-42.1-24.3c.5-2 .7-4 .7-6.1 0-11.6-7.8-21.4-18.4-24.4v-15c12.3-7.9 51.2-36.5 51.2-82.1 0-52.7-52.3-85.7-54.5-87.1l-3.7-2.3-3.7 2.3c-2.3 1.4-54.6 34.3-54.6 87.1 0 45.6 38.9 74.2 51.2 82.1v15c-10.6 3-18.4 12.8-18.4 24.4 0 2.1.3 4.1.7 6.1l-42.1 24.3c-4.5-4.4-10.8-7.1-17.6-7.1-14 0-25.4 11.4-25.4 25.4 0 11.6 7.8 21.4 18.4 24.4v50.5c-10.6 3.1-18.4 12.9-18.4 24.4 0 14 11.4 25.4 25.4 25.4 7.4 0 14.1-3.2 18.8-8.3l40.9 23.6c-.5 1.9-.7 4-.7 6.1 0 14 11.4 25.4 25.4 25.4 14 0 25.4-11.4 25.4-25.4 0-2.1-.3-4.1-.7-6.1l40.9-23.6c4.6 5.1 11.3 8.3 18.8 8.3 14 0 25.4-11.4 25.4-25.4 0-11.6-7.8-21.4-18.4-24.4v-50.5c10.6-3.1 18.4-12.9 18.4-24.4 0-2-.3-4-.7-5.9l9.2-5.3c5.4 2.5 15.9 6.7 28 6.7 7.3 0 15.2-1.5 22.7-5.9 24.8-14.3 26.1-47.5 26.1-48.9l.1-4.3-3.7-2.1zm-100 74.6c-1.9 1.5-4.4 2.5-7.1 2.5-1.4 0-2.7-.3-4-.7-1.1-.4-2.1-1-3-1.7-2.2-1.7-3.8-4.3-4.2-7.3-.1-.5-.1-1.1-.1-1.6s0-1 .1-1.4c.5-4.2 3.3-7.6 7.1-9.1 1.3-.5 2.7-.8 4.2-.8 1.6 0 3.1.3 4.4.9 4.1 1.7 6.9 5.8 6.9 10.5 0 .6-.1 1.3-.2 1.9-.4 2.6-1.9 5.1-4.1 6.8m4.3 90.4c0 6.3-5.1 11.4-11.4 11.4-2.2 0-4.2-.6-5.9-1.7-3.2-2-5.4-5.6-5.4-9.7v-.3c0-1.2.3-2.4.7-3.5.7-2 2-3.8 3.7-5.1 1.4-1.2 3.2-1.9 5.1-2.3.6-.1 1.3-.2 1.9-.2 2.7 0 5.1.9 7.1 2.5 2.5 2.1 4.2 5.3 4.2 8.9m-18.4-24.4c-3.5 1-6.6 2.7-9.3 5L157.3 349c.3-1.6.5-3.3.5-5 0-2.5-.4-4.8-1-7.1l42.5-24.5c2.9 2.8 6.5 4.9 10.5 6v50.5zm-77.3 82.5c-5.7 0-10.4-4.2-11.2-9.6-.1-.6-.1-1.1-.1-1.7 0-4.8 2.9-8.8 7.1-10.5 1.3-.5 2.8-.8 4.3-.8s2.9.3 4.3.8c4.1 1.7 7.1 5.8 7.1 10.5 0 .6-.1 1.2-.1 1.7-1 5.5-5.7 9.6-11.4 9.6m-24.9-102.3l-43.1 24.8c-2.7-2.3-5.9-4-9.3-5v-50.5c4-1.1 7.6-3.3 10.6-6.1l42.4 24.5c-.7 2.3-1.1 4.7-1.1 7.2 0 1.7.2 3.4.5 5.1zm-48.1 44.2c0 4.1-2.2 7.7-5.4 9.7-1.7 1.1-3.8 1.7-5.9 1.7-6.3 0-11.4-5.1-11.4-11.4 0-3.6 1.7-6.8 4.3-8.9 1.9-1.5 4.4-2.5 7.1-2.5.7 0 1.3.1 2 .2 1.9.3 3.6 1.1 5 2.3 1.7 1.3 2.9 3.1 3.7 5.1.4 1.1.6 2.3.7 3.5-.1.1-.1.2-.1.3M36.7 294c0-6.3 5.1-11.4 11.4-11.4 1.5 0 2.9.3 4.2.8 3.7 1.5 6.5 4.8 7.1 8.9.1.5.1 1.1.1 1.6s-.1 1.1-.1 1.6c-.4 3-2 5.5-4.2 7.3-.8.7-1.8 1.2-2.8 1.6-1.3.5-2.7.8-4.2.8-2.7 0-5.1-.9-7.1-2.5-2.7-1.9-4.4-5.1-4.4-8.7m88.7-57.6c1.9-1.5 4.4-2.4 7-2.4 2.6 0 5.1.9 7 2.4 2.2 1.8 3.8 4.3 4.2 7.3.1.5.1 1.1.1 1.7 0 3.6-1.7 6.8-4.3 8.9-.8.7-1.8 1.2-2.8 1.6-1.3.5-2.7.8-4.2.8s-2.9-.3-4.2-.8c-1-.4-2-.9-2.8-1.6-2.6-2.1-4.3-5.3-4.3-8.9 0-.6.1-1.1.1-1.7.4-3 1.9-5.5 4.2-7.3m18.3 108c-.1 3.5-1.8 6.5-4.3 8.5-.5.4-1.1.8-1.6 1.1-1.6.9-3.5 1.4-5.4 1.4-1.9 0-3.7-.5-5.3-1.3-.6-.3-1.2-.7-1.7-1.1-2.6-2-4.2-5.1-4.3-8.6v-.3c0-1 .1-2 .4-2.9.6-2.4 2-4.5 3.9-6 1.2-.9 2.7-1.7 4.2-2.1.9-.2 1.8-.4 2.8-.4 1 0 2 .1 2.9.4 1.5.4 2.9 1.1 4.1 2 1.8 1.5 3.3 3.5 3.9 5.9.3 1 .4 2 .4 3.1.1 0 .1.2 0 .3zm48.4-56.5c-.5 2-.7 4-.7 6.1 0 2.2.3 4.3.8 6.3L149.3 325c-2.8-2.5-6.1-4.4-9.8-5.4v-49.8c4-1.2 7.6-3.3 10.6-6.1l42 24.2zm-103.9-164c0-37.4 32.9-64.4 44.2-72.6 11.3 8.1 44.2 35.1 44.2 72.6 0 31.3-23.1 53.9-37.1 64.8v-59.1c0-3.9-3.1-7-7-7s-7 3.1-7 7v59.1c-14.2-10.9-37.3-33.5-37.3-64.8m26.6 139.7c2.9 2.8 6.5 5 10.6 6.1v49.8c-3.7 1.1-7 2.9-9.7 5.4l-42.9-24.8c.5-2 .7-4 .7-6.1 0-2.1-.3-4.2-.7-6.1l42-24.3zM73.1 397.8c.3-1.4.4-2.9.4-4.4 0-2.7-.4-5.3-1.2-7.7l41.8-24.1c3 3.2 7 5.6 11.3 6.9v47.3c-4 1.2-7.7 3.3-10.6 6.2l-41.7-24.2zm76.9 24.1c-2.9-2.9-6.6-5-10.6-6.2v-47.3c4.4-1.3 8.3-3.7 11.4-6.9l41.8 24.1c-.8 2.5-1.2 5.1-1.2 7.8 0 1.5.1 3 .4 4.4L150 421.9zm144.3-150.5c-9.3 5.4-19.9 4.4-27.8 2.3l14.1-8.1c3.4-1.9 4.5-6.2 2.6-9.6-1.9-3.4-6.2-4.5-9.6-2.6l-14 8.1c2.1-7.9 6.6-17.5 15.9-22.8 13.4-7.7 30-2.8 37.6.2-1.3 8-5.3 24.7-18.8 32.5"/><path d="M361.9 393.5V228.9l33.8-4.2 5.2 25.8c11.1-17.7 27.1-26.6 48.1-26.6 4.4 0 8 .2 10.8.6l-.6 33.6c-4.1-.6-8.3-.9-12.7-.9-14.8 0-25.9 3.9-33.3 11.8-7.3 7.9-11 18.8-11 32.9v91.5h-40.3zm126.9-206.7c0-13.7 7.7-20.6 23-20.6s23 6.9 23 20.6c0 6.6-1.9 11.6-5.7 15.3-3.8 3.6-9.6 5.5-17.2 5.5-15.4 0-23.1-7-23.1-20.8zm44 206.7h-42.2V226.8h42.2v166.7zm129.8-135H626v135h-42.2v-135h-23.2v-20.3l23.2-11.3v-11.3c0-17.6 4.3-30.5 13-38.6 8.7-8.1 22.5-12.2 41.6-12.2 14.6 0 27.5 2.2 38.9 6.5l-10.8 31c-8.5-2.7-16.3-4-23.5-4-6 0-10.3 1.8-13 5.3-2.7 3.6-4 8.1-4 13.6v9.7h36.5v31.6z"/></svg>