<svg xmlns="http://www.w3.org/2000/svg" viewBox="0 0 64 64"><linearGradient id="a" gradientUnits="userSpaceOnUse" x1="32" y1="7.837" x2="32" y2="55.924"><stop offset="0" stop-color="#2cd2bf"/><stop offset=".157" stop-color="#2ccec0"/><stop offset=".298" stop-color="#2cc3c4"/><stop offset=".434" stop-color="#2db1c9"/><stop offset=".566" stop-color="#2d97d1"/><stop offset=".695" stop-color="#2e76dc"/><stop offset=".823" stop-color="#2f4de9"/><stop offset=".946" stop-color="#301df8"/><stop offset="1" stop-color="#3006ff"/></linearGradient><path d="M32 8C18.7 8 8 18.7 8 32s10.7 24 24 24 24-10.7 24-24S45.3 8 32 8zm18.5 21.3h-7.9c-.2-5-1.1-9.7-2.4-13.4-.1-.4-.2-.6-.4-1 5.6 2.7 9.8 8 10.7 14.4zm-37 5.4h7.9c.2 5 1.1 9.7 2.4 13.4.1.4.2.6.4 1-5.6-2.7-9.8-8-10.7-14.4zm10.3-18.8c-1.3 3.7-2.2 8.3-2.4 13.4h-7.9c.9-6.4 5.1-11.7 10.7-14.3-.1.3-.3.6-.4.9zm11.4 30.3c-1.4 3.7-2.8 4.6-3.2 4.6-.4 0-1.8-.9-3.2-4.6-1.3-3.1-1.9-7.2-2.1-11.5h10.5c-.1 4.4-.9 8.4-2 11.5zm-8.6-16.9c.2-4.3.9-8.4 2.1-11.5 1.4-3.7 2.8-4.6 3.2-4.6.4 0 1.8.9 3.2 4.6 1.3 3.1 1.9 7.2 2.1 11.5H26.6zM39.8 49c.1-.4.2-.6.4-1 1.3-3.7 2.2-8.3 2.4-13.4h7.9c-.9 6.5-5.1 11.8-10.7 14.4z" fill="url(#a)"/></svg>