<svg width="25" height="24" xmlns="http://www.w3.org/2000/svg"><path d="M23.144.958a2.86 2.86 0 00-.897.214h-.004c-.274.109-1.577.657-3.557 1.488l-7.098 2.989c-5.094 2.144-10.1 4.256-10.1 4.256l.06-.023s-.346.113-.707.36a1.952 1.952 0 00-.563.545c-.177.26-.32.657-.266 1.068.086.694.536 1.11.86 1.34.326.233.638.342.638.342h.007l4.696 1.581c.21.676 1.43 4.688 1.724 5.612.173.552.34.897.551 1.16.102.135.222.247.365.338.074.043.154.077.236.102l-.048-.012c.015.004.026.016.037.02.038.01.064.014.113.022.744.225 1.34-.237 1.34-.237l.034-.027 2.773-2.524 4.646 3.565.105.045c.969.425 1.95.188 2.468-.23.522-.42.725-.957.725-.957l.033-.086 3.59-18.394c.103-.453.129-.878.016-1.291a1.737 1.737 0 00-.75-1.007 1.8 1.8 0 00-1.027-.26zm-.097 1.97c-.004.061.008.055-.02.171v.01l-3.556 18.203c-.015.025-.041.082-.112.139-.075.06-.135.097-.447-.027l-5.683-4.357-3.433 3.13.721-4.607 9.285-8.653c.383-.356.255-.431.255-.431.027-.437-.578-.128-.578-.128L7.77 13.63l-.004-.02-5.611-1.889v-.004l-.015-.003a.26.26 0 00.03-.011l.03-.016.03-.01s5.01-2.112 10.104-4.256c2.55-1.074 5.119-2.156 7.095-2.99a776.26 776.26 0 013.519-1.471c.079-.031.041-.031.098-.031v-.001z" fill="#003945"/></svg>