<svg width="38" height="38" xmlns="http://www.w3.org/2000/svg"><g fill="none" fill-rule="evenodd"><circle cx="69" cy="18" r="18" transform="translate(-50 1)" stroke="#FFF"/><path d="M17.46 13.885c-.649.345-1.037.759-1.047 1.43-.01.697.503.98 1.046 1.315v-2.745zm2.855 10.853c1.01-.262 1.75-1.258 1.647-2.178-.079-.705-.902-1.47-1.647-1.51v3.688zm-.02 3.945h-2.799c0-.29-.023-.557.006-.819.04-.362-.1-.49-.445-.612-.664-.234-1.335-.5-1.926-.878-1.446-.923-1.998-2.374-2.128-4.025-.032-.399.227-.68.638-.696.517-.02 1.035-.01 1.553-.01.413 0 .617.213.651.628.078.954.507 1.7 1.32 2.21.05.03.101.062.155.086.024.01.057.002.176.002 0-.87.003-1.743-.001-2.615-.003-.507-.03-1.015-.016-1.521.007-.266-.083-.4-.33-.495a6.388 6.388 0 01-2.48-1.686c-2.121-2.359-1.045-5.987 2.034-6.878.777-.225.777-.225.794-1.067.002-.09.013-.178.022-.307h2.761v1.127c.65.297 1.276.503 1.818.847 1.316.834 1.987 2.09 2.108 3.642.045.584-.129.748-.714.757-.443.007-.888-.01-1.33.005-.45.015-.694-.17-.729-.638-.045-.61-.317-1.11-.78-1.506a1.29 1.29 0 00-.177-.132c-.034-.02-.08-.02-.183-.04v2.64c0 .82.005.808.75 1.106 1.423.566 2.705 1.328 3.332 2.83 1.114 2.672.052 5.885-3.328 6.64-.728.163-.727.17-.752.926-.005.147 0 .295 0 .48z" fill="#FEFEFE"/></g></svg>