<svg width="25" height="25" xmlns="http://www.w3.org/2000/svg"><g fill="#8698A3"><path d="M20.178 17.963a3.52 3.52 0 00-.051-.573c.271-.22.816-.657.816-.657l.03-.918-1.255-1.572-.915-.03-.667.54a4.36 4.36 0 00-.733-.304l-.039-.78L16.74 13l-2 .098-.666.628.048 1.025a4.118 4.118 0 00-.564.36l-.83-.414-.891.204-.894 1.805-.033.123.237.773.964.48c.007.217.033.429.08.634-.256.203-.767.613-.767.613l-.03.917 1.245 1.579s.75.114.79.093l.124-.063.73-.582c.195.097.4.18.615.244l.048.813.625.67 1.997-.118.667-.627-.06-1.048c.164-.088.325-.187.476-.295l.764.477.891-.205 1.059-1.71-.205-.896c.002-.001-.653-.41-.981-.615zm-4.108 1.854a2.044 2.044 0 11.131-4.089 2.046 2.046 0 01-.13 4.09z"/><path d="M24.324 13.59l-1.069-.665a3.647 3.647 0 00-.055-.62l.888-.714.032-.994-1.364-1.703-.994-.033-.725.585a4.57 4.57 0 00-.798-.33l-.04-.844-.679-.727-2.175.107-.724.68.053 1.11c-.216.115-.42.245-.612.392l-.904-.45-.967.223-.973 1.954-.036.134.258.837.815.405.403-.38.165-.153.224-.01 1.622-.08a2.183 2.183 0 012.153-1.548 2.192 2.192 0 011.888 3.17l1.14 1.422.14.177-.007.227-.018.586.462.288.969-.222 1.15-1.851-.222-.974zM8.775 18.455c-.965 0-1.75-.813-1.75-1.812v-.845c0-.998.785-1.81 1.75-1.81.964 0 1.749.812 1.749 1.81v.845a.594.594 0 01-.583.604.594.594 0 01-.583-.604v-.845a.594.594 0 00-.583-.603.594.594 0 00-.583.603v.845c0 .333.261.604.583.604.322 0 .583.27.583.604a.594.594 0 01-.583.604zm-4.373 0c-.965 0-1.75-.813-1.75-1.812v-.845c0-.998.785-1.81 1.75-1.81.964 0 1.749.812 1.749 1.81v.845a.594.594 0 01-.583.604.594.594 0 01-.583-.604v-.845a.594.594 0 00-.583-.603.594.594 0 00-.583.603v.845c0 .333.261.604.583.604.322 0 .583.27.583.604a.594.594 0 01-.583.604zm-3.236-.091a.594.594 0 01-.583-.604v-3.079c0-.333.261-.603.583-.603.322 0 .583.27.583.603v3.08a.594.594 0 01-.583.603zm7.026-5.373c-.965 0-1.75-.812-1.75-1.811v-.845c0-.999.785-1.811 1.75-1.811.964 0 1.749.812 1.749 1.81v.846a.594.594 0 01-.583.604.594.594 0 01-.583-.604v-.845a.594.594 0 00-.583-.604.594.594 0 00-.583.604v.845c0 .333.261.604.583.604.322 0 .583.27.583.603a.594.594 0 01-.583.604zm-6.443 0C.785 12.991 0 12.18 0 11.18v-.845c0-.999.785-1.811 1.75-1.811.964 0 1.748.812 1.748 1.81v.846a.594.594 0 01-.583.604.594.594 0 01-.583-.604v-.845a.594.594 0 00-.583-.604.594.594 0 00-.583.604v.845c0 .333.262.604.583.604.322 0 .583.27.583.603a.594.594 0 01-.583.604zm9.65-.06a.594.594 0 01-.584-.604V9.218c0-.333.261-.604.583-.604.322 0 .583.27.583.604v3.11a.594.594 0 01-.583.603zm-6.414 0a.594.594 0 01-.583-.604V9.218c0-.333.26-.604.583-.604.322 0 .583.27.583.604v3.11a.594.594 0 01-.583.603zm5.539-5.464c-.965 0-1.75-.812-1.75-1.81V4.81c0-.999.785-1.811 1.75-1.811.964 0 1.749.812 1.749 1.811v.845a.594.594 0 01-.583.604.594.594 0 01-.583-.604V4.81a.594.594 0 00-.583-.604.594.594 0 00-.583.604v.845c0 .333.261.604.583.604.322 0 .583.27.583.604a.594.594 0 01-.583.603zm-4.373 0c-.965 0-1.75-.812-1.75-1.81V4.81c0-.999.785-1.811 1.75-1.811.964 0 1.749.812 1.749 1.811v.845a.594.594 0 01-.583.604.594.594 0 01-.583-.604V4.81a.594.594 0 00-.583-.604.594.594 0 00-.583.604v.845c0 .333.261.604.583.604.322 0 .583.27.583.604a.594.594 0 01-.583.603zm-3.236-.06a.594.594 0 01-.583-.604V3.694c0-.333.261-.603.583-.603.322 0 .583.27.583.603v3.11a.594.594 0 01-.583.603zm-2.332 0A.594.594 0 010 6.803V3.694c0-.333.261-.603.583-.603.322 0 .583.27.583.603v3.11a.594.594 0 01-.583.603z"/></g></svg>