<svg version="1.1" id="Layer_1" xmlns="http://www.w3.org/2000/svg" x="0" y="0" viewBox="0 0 173.6 248.4" xml:space="preserve"><style>.st0{fill:#202124}</style><path class="st0" d="M67.6 60.7v170c0 11.8 11.8 20.1 24.1 17.2 8.7-2.1 14.3-9 14.3-17.6V60.7c.9.8 1.4 1.2 1.9 1.7 10.9 10.1 21.8 20.2 32.8 30.2 7.7 7 19.6 6.9 27.1-.1 7.4-6.8 7.6-17.9.1-24.9-22.5-20.8-45.1-41.6-67.7-62.3-7.4-6.9-19.3-7-26.6-.3C50.8 25.8 28.1 46.7 5.5 67.7 0 72.8-1.3 79.2 1.3 86c4.8 12.3 21.6 15.6 31.7 6.4 11-10 21.9-20.1 32.8-30.2.5-.4 1-.8 1.8-1.5z"/><path class="st0" d="M67.6 60.7c-.8.7-1.3 1.1-1.8 1.5C54.9 72.3 44 82.4 33 92.4 22.9 101.6 6.1 98.2 1.3 86-1.3 79.2 0 72.8 5.5 67.7 28.1 46.7 50.8 25.8 73.6 5c7.3-6.7 19.3-6.6 26.7.3C123 25.9 145.5 46.7 168 67.5c7.5 7 7.3 18-.1 24.9-7.6 6.9-19.5 7.1-27.1.1-11-10-21.9-20.1-32.8-30.2-.5-.5-1-.9-1.9-1.7v169.6c0 8.6-5.7 15.6-14.3 17.6-12.4 2.9-24.1-5.4-24.1-17.2V63c-.1-.6-.1-1.3-.1-2.3z"/></svg>