<svg width="24" height="24" xmlns="http://www.w3.org/2000/svg"><g fill="none" fill-rule="evenodd"><circle fill="#FFF" cx="12" cy="12" r="12"/><g transform="translate(5 5)"><path d="M3.632 2.732a.642.642 0 00-.45-.187.642.642 0 00-.45.187.642.642 0 00-.187.45.641.641 0 001.086.45.642.642 0 00.187-.45.642.642 0 00-.186-.45zm7.636 0a.64.64 0 00-.9 0 .642.642 0 00-.186.45c0 .167.068.331.186.45a.64.64 0 001.086-.45.64.64 0 00-.186-.45z" fill="#5A78F0"/><rect stroke="#5A78F0" stroke-width="1.3" x="8.286" y=".65" width="5.064" height="5.064" rx="2"/><rect stroke="#5A78F0" stroke-width="1.3" x=".65" y=".65" width="5.064" height="5.064" rx="2"/><rect stroke="#5A78F0" stroke-width="1.3" x=".65" y="8.286" width="5.064" height="5.064" rx="2"/><path d="M3.632 10.368a.642.642 0 00-.45-.186.642.642 0 00-.45.186.642.642 0 00-.187.45.641.641 0 001.086.45.642.642 0 00.187-.45.642.642 0 00-.186-.45zm8.618-.186h-.318c-.264 0-.477.285-.477.636 0 .352.213.637.477.637h.318c.264 0 .477-.285.477-.637 0-.351-.213-.636-.477-.636zm1.034 1.273c-.395 0-.716.284-.716.636v.636h-1.67c-.396 0-.716.285-.716.637 0 .351.32.636.716.636h2.386c.395 0 .716-.285.716-.636V12.09c0-.352-.32-.636-.716-.636zm-5.011-1.273c-.352 0-.637.342-.637.763v1.019c0 .421.285.763.637.763.351 0 .636-.342.636-.763v-1.019c0-.421-.285-.763-.636-.763zm2.545-2.546H9.545a.636.636 0 000 1.273h1.273a.636.636 0 000-1.273z" fill="#5A78F0"/></g></g></svg>