<svg width="25" height="25" xmlns="http://www.w3.org/2000/svg"><g fill="#8698A3" stroke="#8698A3" stroke-width=".4"><path d="M18.962 19.616a.633.633 0 01-.2-.033L2.42 13.975a.626.626 0 01-.087-1.143L20.95 3.07a.622.622 0 01.902.645l-2.276 15.37a.623.623 0 01-.614.531h0zM4.19 13.264l14.268 4.897 1.987-13.42L4.19 13.265z"/><path d="M9.913 22.048a.622.622 0 01-.618-.621v-5.59c0-.157.06-.31.165-.424L20.788 3.198a.616.616 0 01.874-.031c.25.234.263.627.03.879L10.531 16.08v3.452l2.062-2.822a.617.617 0 01.864-.132.624.624 0 01.132.868l-3.178 4.348a.62.62 0 01-.498.253z"/></g></svg>