<svg xmlns="http://www.w3.org/2000/svg" viewBox="0 0 36 24"><path d="M.5 6.4c0-1.1 0-1.9.1-2.6.1-.6.2-1.1.3-1.4.3-.7.9-1.2 1.5-1.5.3-.2.8-.3 1.4-.3C4.4.5 5.3.5 6.4.5h23.2c1.1 0 1.9 0 2.6.1.6.1 1.1.2 1.4.3.7.3 1.2.9 1.5 1.5.2.3.3.8.3 1.4.1.6.1 1.5.1 2.6v11.2c0 1.1 0 1.9-.1 2.6-.1.6-.2 1.1-.3 1.4-.3.7-.9 1.2-1.5 1.5-.3.2-.8.3-1.4.3-.6.1-1.5.1-2.6.1H6.4c-1.1 0-1.9 0-2.6-.1-.6-.1-1.1-.2-1.4-.3-.7-.3-1.2-.9-1.5-1.5-.2-.3-.3-.8-.3-1.4-.1-.6-.1-1.5-.1-2.6V6.4z" fill="#fff" stroke="#000"/><path d="M9.8 8.1c-.3.3-.8.6-1.2.6-.1-.5.1-1 .4-1.3.3-.4.8-.7 1.3-.7 0 .5-.2 1-.5 1.4m.5.7c-.7-.1-1.3.4-1.7.4-.3 0-.8-.4-1.4-.4-.7 0-1.4.4-1.8 1.1-.8 1.3-.2 3.2.5 4.3.4.5.8 1.1 1.3 1.1s.7-.3 1.4-.3c.6 0 .8.3 1.4.3.6 0 1-.5 1.3-1 .6-.7.7-1.3.7-1.3s-1.1-.4-1.1-1.7c0-1.1.9-1.6.9-1.6-.5-.8-1.3-.9-1.5-.9m4-1.5v7.9h1.2v-2.7h1.7c1.5 0 2.6-1.1 2.6-2.6s-1.1-2.6-2.6-2.6h-2.9zm1.2 1h1.4c1.1 0 1.7.6 1.7 1.6s-.6 1.6-1.7 1.6h-1.4V8.3zm6.6 6.9c.8 0 1.5-.4 1.8-1v.9H25v-3.9c0-1.1-.9-1.9-2.3-1.9-1.3 0-2.3.7-2.3 1.8h1.1c.1-.5.5-.8 1.2-.8s1.2.3 1.2 1v.4l-1.5.1c-1.4.1-2.2.7-2.2 1.7-.1 1 .7 1.7 1.9 1.7zm.3-.9c-.6 0-1.1-.3-1.1-.8s.4-.8 1.2-.8l1.4-.1v.4c-.1.8-.7 1.3-1.5 1.3zm4.1 3c1.2 0 1.7-.5 2.2-1.8l2.1-6h-1.2l-1.4 4.6-1.4-4.6h-1.3l2.1 5.7-.1.3c-.2.6-.5.8-1 .8h-.4v.9c0 .1.3.1.4.1z"/></svg>