<svg version="1.1" id="Layer_1" xmlns="http://www.w3.org/2000/svg" x="0" y="0" viewBox="0 0 60 60" xml:space="preserve"><style>.st1{fill:#fff}</style><linearGradient id="SVGID_1_" gradientUnits="userSpaceOnUse" x1="8.934" y1="63.68" x2="50.215" y2="-2.32"><stop offset="0" stop-color="#005baa"/><stop offset=".225" stop-color="#083c7e"/><stop offset=".452" stop-color="#0e225a"/><stop offset=".664" stop-color="#120f40"/><stop offset=".853" stop-color="#150430"/><stop offset="1" stop-color="#16002a"/></linearGradient><path d="M47.5 60h-35C5.6 60 0 54.4 0 47.5v-35C0 5.6 5.6 0 12.5 0h35C54.4 0 60 5.6 60 12.5v35C60 54.4 54.4 60 47.5 60z" fill="url(#SVGID_1_)"/><path class="st1" d="M-771.3-956.9c-.3-.1-.8-.3-1.4-.4-.4-.1-.8-.2-1-.3-.3-.1-.5-.2-.6-.4-.2-.2-.3-.4-.3-.6 0-.3.2-.6.5-.9.3-.2.8-.3 1.4-.3.3 0 .7.1 1.1.2.3.1.7.2 1 .4l.4-.9c-.3-.2-.7-.4-1.1-.5-.4-.1-.9-.2-1.3-.2-.6 0-1.2.1-1.6.3-.4.2-.8.5-1 .8s-.3.7-.3 1.1c0 .5.1.9.4 1.2.2.3.6.5.9.6.3.1.8.3 1.4.4.5.1.8.2 1.1.3.2.1.5.2.6.4.2.2.2.4.2.6 0 .3-.2.6-.5.8s-.8.3-1.4.3c-.5 0-.9-.1-1.4-.2-.4-.2-.8-.4-1.1-.6l-.4.9c.3.3.7.5 1.2.7s1.1.3 1.6.3c.6 0 1.2-.1 1.6-.3.4-.2.8-.5 1-.8s.3-.7.3-1.1c0-.5-.1-.9-.4-1.1-.3-.3-.6-.5-.9-.7" transform="translate(787.08 980.69)"/><path class="st1" d="M-795.5-989.9h2.6v6.6h1.1v-6.6h2.6v-1h-6.3v1z" transform="translate(813.66 1011)"/><path class="st1" d="M-917.4-944.1h-3.2l1.6-3.7 1.6 3.7zm-1-4.8h-1.1l-3.4 7.6h1.1l.8-1.9h4l.8 1.9h1.2l-3.4-7.6z" transform="translate(947.84 969.03)"/><path class="st1" d="M-1023.8-1001.4h-1.3l-4.1 4.2v-4.2h-1.1v7.6h1.1v-2l1.4-1.4 2.9 3.3h1.3l-3.4-4.2 3.2-3.3z" transform="translate(1065 1021.5)"/><path class="st1" d="M-1055.8-951.3h3.8v-.9h-3.8v-2.3h4.2v-1h-5.3v7.6h5.5v-1h-4.4v-2.4z" transform="translate(1100.2 975.62)"/><path class="st1" d="M-1234.8-915.9l-2.1-6.1h-1l-2.1 6.1-2-6.1h-1.1l2.5 7.6h1.2l2.1-6 2.1 6h1.1l2.5-7.5v-.1h-1l-2.2 6.1z" transform="translate(1257.5 954.33)"/><path class="st1" d="M27.9 39.9H29v-7.6h-1.1v7.6z"/><path class="st1" d="M-1366.3-944.6c-.3-.1-.8-.3-1.4-.4-.4-.1-.8-.2-1-.3-.3-.1-.5-.2-.6-.4-.2-.2-.3-.4-.3-.6 0-.3.2-.6.5-.9.3-.2.8-.3 1.4-.3.3 0 .7.1 1.1.2.3.1.7.2 1 .4l.4-.9c-.3-.2-.7-.4-1.1-.5s-.9-.2-1.3-.2c-.6 0-1.2.1-1.6.3s-.8.5-1 .8-.3.7-.3 1.1c0 .5.1.9.4 1.2.2.3.6.5.9.6s.8.3 1.4.4c.5.1.8.2 1.1.3.2.1.5.2.6.4.2.2.2.4.2.6 0 .3-.2.6-.5.8s-.8.3-1.4.3c-.5 0-.9-.1-1.4-.2-.4-.2-.8-.4-1.1-.6l-.4.9c.3.3.7.5 1.2.7s1.1.3 1.6.3c.6 0 1.2-.1 1.6-.3s.8-.5 1-.8.3-.7.3-1.1c0-.5-.1-.9-.4-1.1-.3-.4-.6-.6-.9-.7" transform="translate(1402.3 980.69)"/><path class="st1" d="M-1413.3-910.3v-2.4h3.8v-.9h-3.8v-2.3h4.2v-1h-5.3v7.6h5.5v-1h-4.4z" transform="translate(1454 949.23)"/></svg>