<svg width="32" height="32" xmlns="http://www.w3.org/2000/svg"><g transform="translate(1 1)" fill="none" fill-rule="evenodd"><path d="M10.367 6l7.811 8.047 2.142-2.222-9.469-5.673A1.01 1.01 0 0010.367 6zm-.654.374a.95.95 0 00-.113.457v15.638a.86.86 0 00.068.34l7.992-8.235-7.947-8.2zm11.261 5.837l-2.288 2.363 2.288 2.351 2.795-1.661c.398-.238.454-.54.451-.702-.004-.266-.166-.515-.44-.666a372.687 372.687 0 01-2.806-1.685zM18.178 15.1l-7.88 8.107a.863.863 0 00.406-.118l6.55-3.93 3.077-1.836-2.153-2.223z" fill="#0B1A40" fill-rule="nonzero"/><circle stroke="#0B1A40" cx="15" cy="15" r="15"/></g></svg>