<svg version="1.1" id="Layer_1" xmlns="http://www.w3.org/2000/svg" x="0" y="0" viewBox="0 0 60 60" xml:space="preserve"><style>.st2{fill:#a0a8d4}</style><linearGradient id="SVGID_1_" gradientUnits="userSpaceOnUse" x1="3.623" y1="64.421" x2="54.383" y2="-1.819"><stop offset="0" stop-color="#005baa"/><stop offset="1" stop-color="#0f002a"/></linearGradient><path d="M47.5 60h-35C5.6 60 0 54.4 0 47.5v-35C0 5.6 5.6 0 12.5 0h35C54.4 0 60 5.6 60 12.5v35C60 54.4 54.4 60 47.5 60z" fill="url(#SVGID_1_)"/><linearGradient id="SVGID_2_" gradientUnits="userSpaceOnUse" x1="35.881" y1="744.9" x2="22.729" y2="759.158" gradientTransform="translate(-6 -732.59)"><stop offset=".58" stop-color="#a0a8d4"/><stop offset=".73" stop-color="#8791c7"/><stop offset=".91" stop-color="#6470b4"/></linearGradient><path d="M17.9 26.6c.4.7 1.3 2.3 1.3 2.3L29.4 12l-10 7c-.6.4-1.1.9-1.4 1.5-1 1.9-1 4.1-.1 6.1z" fill="url(#SVGID_2_)"/><path class="st2" d="M13.9 32.1c.3 3.3 1.9 6.3 4.4 8.2l11.1 7.8s-6.9-10-12.8-19.9c-.6-1.1-1-2.2-1.2-3.4-.1-.5-.1-1.1 0-1.6-.2.3-.4.8-.4.8-.6 1.2-1 2.5-1.2 3.8-.1 1.5-.1 2.9.1 4.3z"/><linearGradient id="SVGID_3_" gradientUnits="userSpaceOnUse" x1="36.169" y1="780.32" x2="49.323" y2="766.064" gradientTransform="translate(-6 -732.59)"><stop offset=".58" stop-color="#a0a8d4"/><stop offset=".73" stop-color="#8791c7"/><stop offset=".91" stop-color="#6470b4"/></linearGradient><path d="M42.1 33.4c-.4-.7-1.2-2.3-1.2-2.3l-10.3 17 10-7c.6-.4 1.1-.9 1.4-1.5 1-2 1-4.2.1-6.2z" fill="url(#SVGID_3_)"/><path class="st2" d="M46.1 27.9c-.3-3.3-1.9-6.3-4.4-8.2l-11.1-7.8s6.9 10 12.8 19.9c.6 1.1 1 2.2 1.2 3.4.1.5.1 1.1 0 1.6.2-.3.4-.8.4-.8.6-1.2 1-2.5 1.2-3.8.1-1.5.1-2.9-.1-4.3z"/><linearGradient id="SVGID_4_" gradientUnits="userSpaceOnUse" x1="36" y1="744.29" x2="36" y2="780.822" gradientTransform="translate(-6 -732.59)"><stop offset="0" stop-color="#513eff"/><stop offset=".18" stop-color="#5157ff"/><stop offset=".57" stop-color="#5298ff"/><stop offset="1" stop-color="#52e5ff"/></linearGradient><path d="M17.9 20.4c.4-.6.8-1.2 1.4-1.5l10-7-10.2 16.9s-.9-1.5-1.3-2.3c-.8-1.9-.8-4.1.1-6.1zm-4 11.7c.3 3.3 1.9 6.3 4.4 8.2l11.1 7.8s-6.9-10-12.8-19.9c-.6-1.1-1-2.2-1.2-3.4-.1-.5-.1-1.1 0-1.6-.2.3-.4.8-.4.8-.6 1.2-1 2.5-1.2 3.8-.1 1.5-.1 2.9.1 4.3zm28.2 1.3c-.4-.7-1.3-2.3-1.3-2.3l-10.2 17 10-7c.6-.4 1.1-.9 1.4-1.5 1-2 1-4.2.1-6.2zm4-5.5c-.3-3.3-1.9-6.3-4.4-8.2l-11.1-7.8s6.9 10 12.8 19.9c.6 1.1 1 2.2 1.2 3.4.1.5.1 1.1 0 1.6.2-.3.4-.8.4-.8.6-1.2 1-2.5 1.2-3.8.1-1.5.1-2.9-.1-4.3z" fill="url(#SVGID_4_)"/></svg>