<svg width="25" height="25" xmlns="http://www.w3.org/2000/svg"><g fill="#8698A3"><path d="M19.05 5.815a6.787 6.787 0 00-2.203-3.29A6.797 6.797 0 0012.56 1a6.8 6.8 0 00-4.287 1.525 6.787 6.787 0 00-2.202 3.29C3.245 5.994 1 8.345 1 11.208c0 2.98 2.43 5.404 5.419 5.404h.768v.405c0 3.02 2.272 5.59 5.286 5.977a.675.675 0 00.174 0c3.014-.388 5.287-2.957 5.287-5.977v-.406l.033.001h.735c2.987 0 5.418-2.424 5.418-5.404 0-2.864-2.244-5.214-5.07-5.393zm-2.47 11.202c0 2.313-1.722 4.286-4.02 4.625-2.297-.339-4.019-2.312-4.019-4.625v-3.955l4.02-1.415 4.018 1.415v3.955zm2.122-1.756h-.735l-.033.002v-2.678a.676.676 0 00-.452-.637l-4.696-1.655a.679.679 0 00-.451 0l-4.697 1.655a.676.676 0 00-.451.637v2.676h-.768a4.063 4.063 0 01-4.064-4.053 4.063 4.063 0 014.064-4.053h.18c.32 0 .596-.223.662-.535.53-2.473 2.759-4.269 5.3-4.269 2.54 0 4.768 1.796 5.298 4.27a.677.677 0 00.662.534h.18a4.063 4.063 0 014.065 4.053 4.063 4.063 0 01-4.064 4.053z" stroke="#8698A3" stroke-width=".4"/><path d="M11.525 16.136a.675.675 0 00-.958.002.68.68 0 00.003.96l1.02 1.02a.674.674 0 00.955 0l1.904-1.902a.68.68 0 00.002-.96.675.675 0 00-.957-.003l-1.427 1.425-.542-.542z"/></g></svg>