<svg xmlns="http://www.w3.org/2000/svg" viewBox="0 0 112 112"><circle cx="56" cy="56" r="54" fill="#1896a4"/><path d="M62.75 72.88c-2.06.82-4.29 1.29-6.64 1.29-9.88 0-17.89-8.01-17.89-17.89 0-.73.06-1.45.14-2.16l-18.02-2.93A34.69 34.69 0 0020 56c0 19.88 16.12 36 36 36 6.97 0 13.47-1.99 18.98-5.42l-12.23-13.7zm10.19-22.7L49 55.46l42.05 8.74c.61-2.64.95-5.38.95-8.2 0-19.88-16.12-36-36-36-7.98 0-15.34 2.6-21.31 6.99l12.44 13.82a17.75 17.75 0 018.98-2.43c7.74 0 14.34 4.92 16.83 11.8" fill="#fff"/></svg>