<svg width="90" height="90" xmlns="http://www.w3.org/2000/svg"><g fill="none" fill-rule="evenodd"><path d="M71.03 12.046L14 24.876v1.56h57.03zM54.999 50.747a7.13 7.13 0 007.133 7.127H77V43.621H62.132a7.13 7.13 0 00-7.133 7.126z" fill="#05C0A5" fill-rule="nonzero"/><path fill="#FFF" d="M14 28h63v47H14z"/><path d="M13.875 79h63.25A2.876 2.876 0 0080 76.125V27.322a2.875 2.875 0 00-2.875-2.875h-3.12V12.875c0-.873-.396-1.7-1.079-2.244a2.871 2.871 0 00-2.426-.56L13.244 22.95A2.873 2.873 0 0011 25.754v50.37A2.875 2.875 0 0013.875 79zM74.25 56.006H62.198a4.287 4.287 0 01-4.287-4.28 4.289 4.289 0 014.287-4.28H74.25v8.56zm0-14.308H62.198c-5.534 0-10.037 4.5-10.037 10.03 0 5.53 4.503 10.03 10.037 10.03H74.25V73.25h-57.5V30.197h57.5v11.501zm-5.994-25.23v7.979H32.79l35.465-7.978z" fill="#003945" fill-rule="nonzero"/><path d="M32.903 36.871h-9.496a2.876 2.876 0 00-2.875 2.875v23.716a2.875 2.875 0 002.875 2.875h9.496a2.876 2.876 0 002.875-2.875V39.746a2.874 2.874 0 00-2.875-2.875zm-2.875 23.716h-3.746V42.621h3.746v17.966z" fill="#003945" fill-rule="nonzero"/></g></svg>