<svg width="38" height="38" xmlns="http://www.w3.org/2000/svg"><g fill="none" fill-rule="evenodd"><circle stroke="#FFF" cx="18.856" cy="19" r="18"/><path d="M19.77 7.864c-.07.022-.099.109-.433 1.26-.186.636-.34 1.16-.344 1.164-.003.005-.64-.192-1.416-.433l-1.41-.439c-.016.02-.67 2.318-.66 2.327.006.008.168.06.36.12.659.204.78.265.854.434.051.114.028.307-.08.695-.163.583-2.308 7.954-2.378 8.172-.112.346-.177.473-.277.537-.137.087-.28.066-.942-.14a5.409 5.409 0 00-.372-.107c-.003.003-.153.519-.336 1.147L12 23.76c-.003.01.593.204 1.405.458.875.272 1.41.447 1.41.46 0 .01-.148.522-.326 1.138-.234.804-.325 1.141-.325 1.197 0 .137.009.142.84.4.784.247.798.25.884.168.05-.048.03.008.429-1.362l.285-.982c.004-.013.148.026.422.111l.419.13c.001.002-.15.527-.335 1.169-.32 1.101-.338 1.165-.316 1.205.064.113.04.103.82.346.407.127.757.232.775.232a.314.314 0 00.101-.031l.067-.03.34-1.177.341-1.177.047.01c.024.005.165.033.31.064a6.23 6.23 0 001.448.162 3.73 3.73 0 00.573-.029c1.08-.173 1.947-.676 2.595-1.51a4.43 4.43 0 00.9-2.769 3.58 3.58 0 00-.113-.84c-.19-.772-.57-1.35-1.251-1.9l-.105-.087.144-.03c.221-.048.588-.178.796-.285a3.37 3.37 0 00.938-.706 3.83 3.83 0 001.029-3.03 3.48 3.48 0 00-.326-1.16c-.456-.965-1.242-1.618-2.549-2.121a7.12 7.12 0 01-.242-.095c-.001-.002.152-.539.343-1.191l.345-1.19-.036-.075a.338.338 0 00-.05-.084 28.715 28.715 0 00-.78-.25l-.763-.239-.076.044-.076.043-.342 1.18c-.19.648-.35 1.182-.361 1.185-.014.005-.838-.245-.85-.257-.004-.002.147-.526.332-1.163.292-1.003.337-1.167.329-1.231-.016-.13-.025-.135-.827-.384-.652-.203-.778-.235-.847-.212zm.993 5.878c1.431.447 1.833.635 2.099.98.2.26.285.605.24.967-.094.741-.474 1.241-1.062 1.402-.13.035-.19.042-.38.043-.432.003-.751-.069-1.905-.43-.369-.116-.534-.174-.533-.189.002-.013.195-.69.432-1.504.265-.912.437-1.48.448-1.476l.661.207zm-1.437 5.501c.83.26 1.069.346 1.37.497.276.138.447.257.599.415.339.353.464.784.387 1.326a2.66 2.66 0 01-.363.993 2.122 2.122 0 01-.466.484c-.44.312-.8.362-1.516.214-.246-.051-.375-.088-1.094-.315-.577-.182-.687-.225-.715-.285-.039-.083.008-.263.56-2.173l.405-1.389c.009-.027-.053-.045.833.233z" fill="#FFF" fill-rule="nonzero"/></g></svg>