<svg version="1.1" id="Layer_1" xmlns="http://www.w3.org/2000/svg" x="0" y="0" viewBox="0 0 30 30" xml:space="preserve"><style>.st0{fill-rule:evenodd;clip-rule:evenodd;fill:#fff}</style><path class="st0" d="M1.2 14.9c0-4.4 3.6-8 8-8 1 0 2 .2 2.9.6l-.7 1.9c-.7-.3-1.4-.5-2.2-.5-3.3 0-6 2.7-6 6s2.7 6 6 6c.8 0 1.5-.1 2.2-.4l.7 1.9c-.9.3-1.9.5-2.9.5-4.4 0-8-3.6-8-8z"/><path d="M8.7 10.6C10.4 7 14 4.5 18.2 4.5 24 4.5 28.7 9.2 28.7 15S24 25.5 18.2 25.5c-4.2 0-7.8-2.5-9.5-6.1-.2-.5 0-1.1.5-1.3.5-.2 1.1 0 1.3.5 1.4 2.9 4.3 4.9 7.7 4.9 4.7 0 8.5-3.8 8.5-8.5s-3.8-8.5-8.5-8.5c-3.4 0-6.4 2-7.7 4.9-.2.5-.8.7-1.3.5-.5-.2-.7-.8-.5-1.3z" fill-rule="evenodd" clip-rule="evenodd" fill="#05c0a5"/><path class="st0" d="M17 10.2c.4-.4 1-.4 1.4 0l4 4c.4.4.4 1 0 1.4l-4 4c-.4.4-1 .4-1.4 0-.4-.4-.4-1 0-1.4l2.3-2.3H7.7c-.6 0-1-.4-1-1s.4-1 1-1h11.6L17 11.6c-.4-.4-.4-1 0-1.4z"/></svg>