<svg width="136" height="26" fill="none" xmlns="http://www.w3.org/2000/svg"><g clip-path="url(#clip0_287_1750)" fill="#fff"><path d="M102.936 7.147l-2.937 8.434-2.937-8.434a1.091 1.091 0 00-1.028-.731h-3.737l5.513 14.217L95.567 26h3.381a1.178 1.178 0 001.096-.744l7.472-18.84h-3.551a1.094 1.094 0 00-1.029.73zm-43.716-1.1a5.109 5.109 0 00-3.956 1.818V6.416h-3.13a1.09 1.09 0 00-1.09 1.09v12.433a1.089 1.089 0 001.09 1.09h3.13v-8.652c0-1.45 1.029-2.506 2.532-2.506 1.53 0 2.321.818 2.321 2.612v8.546h3.131a1.088 1.088 0 001.09-1.09V11.27c0-3.271-1.952-5.223-5.117-5.223zm17.608.369a1.768 1.768 0 00-1.405.696l-4.018 5.267V1.512h-3.131a1.09 1.09 0 00-1.09 1.089V19.94a1.088 1.088 0 001.09 1.089h3.13v-5.964l3.994 5.263a1.767 1.767 0 001.408.7h4.13l-5.98-7.308 5.98-7.305-4.108.001zm56.113 11.131c-1.464 0-2.136-.672-2.136-2.136V9.898h3.406a1.088 1.088 0 001.089-1.09V6.417h-4.494V2.111h-2.973a1.088 1.088 0 00-1.089 1.089v3.216h-.994a1.09 1.09 0 00-1.09 1.09v2.392h2.059v5.776c0 3.498 1.974 5.354 5.208 5.354h2.421a1.097 1.097 0 00.771-.319 1.095 1.095 0 00.319-.77v-2.392h-2.497zM41.66 6.047c-4.143 0-7.478 3.086-7.478 7.728 0 4.431 2.806 7.253 8.052 7.253h4.271a1.09 1.09 0 001.09-1.089v-2.392H42.77c-2.26 0-3.908-.554-4.474-2.424h9.2a1.024 1.024 0 001.03-.957c.013-.228.018-.45.018-.682 0-4.879-3.093-7.437-6.885-7.437zm-3.443 6.116c.403-1.632 1.802-2.793 3.416-2.793 1.587 0 2.798 1.108 2.824 2.793h-6.24zm79.301-6.117a5.598 5.598 0 00-4.51 2.23v-1.86h-3.131a1.088 1.088 0 00-1.089 1.09V24.91a1.09 1.09 0 001.089 1.089h3.131v-7.11c.897 1.504 2.69 2.506 4.589 2.506 3.429 0 6.462-2.98 6.462-7.674 0-4.668-3.138-7.675-6.541-7.675zm-1.187 11.552c-1.952 0-3.376-1.609-3.376-3.877s1.424-3.877 3.402-3.877c1.979 0 3.429 1.609 3.429 3.85 0 2.242-1.45 3.904-3.455 3.904zM90.011 6.21c-1.808 0-2.593.748-3.516 1.789V6.416h-3.13a1.09 1.09 0 00-1.09 1.09v12.433a1.089 1.089 0 001.09 1.09h3.13v-7.915c0-2.743 1.911-3.74 5.102-3.246V7.505c0-.601-.089-1.295-1.586-1.295z"/><path fill-rule="evenodd" clip-rule="evenodd" d="M1.74 1.381A4.714 4.714 0 015.074.001L24.859 0v3.617a3.389 3.389 0 01-3.389 3.39h-9.302a4.715 4.715 0 00-4.714 4.714v1.2a4.714 4.714 0 004.714 4.714h9.303a3.389 3.389 0 013.388 3.389V24.5H5.074a4.715 4.715 0 01-4.715-4.714V4.715c0-1.25.497-2.45 1.381-3.334zm10.632 7.597h9.54a2.947 2.947 0 012.947 2.946v.793a2.947 2.947 0 01-2.946 2.947h-9.541a2.947 2.947 0 01-2.947-2.947v-.793a2.947 2.947 0 012.947-2.946z"/></g><defs><clipPath id="clip0_287_1750"><path fill="#fff" transform="translate(.36)" d="M0 0h135.281v26H0z"/></clipPath></defs></svg>