<svg width="53" height="63" xmlns="http://www.w3.org/2000/svg"><g fill="none"><path d="M51.948 11.636c.581 0 1.052-.472 1.052-1.055V5.194C53 2.33 50.63 0 47.718 0H5.244C2.304 0 0 2.282 0 5.194v47.107c0 2.942 2.352 5.335 5.244 5.335h10.32l13.32-.002 18.834-.033c2.913 0 5.282-2.378 5.282-5.3v-5.387c0-.583-.47-1.055-1.052-1.055h-7.36V11.636h7.36z" fill="#CDF4EE"/><path d="M11.572 15.56c-.348-.184-.572-.585-.572-1.02v-.08c0-.436.225-.837.572-1.02l5.092-2.693a.895.895 0 01.95.072c.286.207.457.562.457.948v.03c0 .435-.224.836-.572 1.02L14.314 14.5l3.185 1.682c.348.184.572.584.572 1.02v.03c0 .386-.17.74-.457.949a.887.887 0 01-.95.072l-5.092-2.693zm8.616 3.013a1.098 1.098 0 01-.142-.93l1.874-6.92c.13-.433.505-.723.933-.723h.025c.312 0 .607.16.791.427.184.267.237.615.142.93l-1.874 6.92c-.13.432-.505.723-.932.723h-.026a.966.966 0 01-.79-.427zm5.955-6.777v-.029c0-.386.171-.741.458-.949a.893.893 0 01.949-.072l5.092 2.693c.348.184.572.584.572 1.02v.08c0 .436-.224.837-.572 1.02l-5.092 2.693a.888.888 0 01-.95-.071 1.165 1.165 0 01-.457-.95v-.029c0-.436.225-.836.573-1.02L29.9 14.5l-3.184-1.683c-.348-.185-.573-.585-.573-1.02z" fill="#00C0A5"/><path d="M50.897 52.3c0 1.73-1.454 3.19-3.178 3.192-1.727-.008-3.132-1.439-3.132-3.191v-6.333h6.31v6.333z" fill="#05C0A5"/><path d="M16 63V51c1.84 1.07 2.459 2.079 5 2.079s4.19-.984 6-2.005V63l-5.38-2.797a1.337 1.337 0 00-1.24 0L16 63z" fill="#5A78F0"/><path d="M26.425 51.727a1.058 1.058 0 00-.368.329 7.33 7.33 0 01-9.628-.202A7.41 7.41 0 0114 46.38c0-4.07 3.302-7.38 7.361-7.38 4.06 0 7.361 3.31 7.361 7.38a7.39 7.39 0 01-2.297 5.347zm24.472-40.2h-6.31V5.265a3.157 3.157 0 013.133-3.156c1.752 0 3.177 1.384 3.177 3.085v6.333zM35.919 29H7.08C6.484 29 6 29.448 6 30s.484 1 1.081 1H35.92c.597 0 1.081-.448 1.081-1s-.484-1-1.081-1zM36 24h-4a1 1 0 000 2h4a1 1 0 000-2zM7.065 26h19.87c.588 0 1.065-.448 1.065-1s-.477-1-1.065-1H7.065C6.477 24 6 24.448 6 25s.477 1 1.065 1z" fill="#05C0A5"/></g></svg>