<svg width="25" height="25" xmlns="http://www.w3.org/2000/svg"><g fill="#8698A3" stroke="#8698A3"><path d="M23.064 9.458a.312.312 0 00-.02-.107.54.54 0 00-.212-.3l-3.018-2.103V4.695a.54.54 0 00-.54-.54h-3.47l-2.955-2.058a.539.539 0 00-.615-.001L9.262 4.155H5.805a.54.54 0 00-.54.54v2.227l-3.032 2.1a.54.54 0 00-.232.437L2 9.47l.016 11.725a.542.542 0 00.54.54s0 0 0 0l19.985-.027a.54.54 0 00.539-.542l-.016-11.707zm-3.25-1.192l1.725 1.201-1.725 1.202V8.266zM12.54 3.2l1.372.955h-2.75L12.54 3.2zM6.345 5.236h12.39v6.185l-4.16 2.898L12.879 13l-.007-.006a.539.539 0 00-.655.006l-1.708 1.327-4.164-2.883V5.236zm-1.08 3.001v2.46L3.49 9.467l1.776-1.23zM3.081 10.5l6.533 4.524-6.52 5.067-.013-9.59zm1.055 10.15l8.412-6.538 8.382 6.515-16.794.023zm11.333-5.636l6.516-4.54L22 20.09l-6.53-5.075z" stroke-width=".5"/><path d="M16.156 7.573l-3.97 4.268a.588.588 0 01-.43.192.588.588 0 01-.433-.192L9.34 9.707a.691.691 0 010-.929.58.58 0 01.863 0l1.553 1.67 3.538-3.804a.58.58 0 01.863 0 .691.691 0 010 .929z" stroke-width=".6"/></g></svg>