<svg width="70" height="66" xmlns="http://www.w3.org/2000/svg"><g fill="none"><circle fill="#CDF4EE" cx="34.62" cy="7.347" r="7.244"/><path d="M44.77 9.939c-1.012 4.467-4.997 7.82-9.766 7.82s-8.754-3.353-9.765-7.82c-3.587.799-6.281 3.995-6.281 7.82v8.023c0 2.211 1.8 4.011 4.011 4.011 2.212 0 4.012-1.8 4.012-4.011V21.77h16.046v4.012c0 2.211 1.8 4.011 4.012 4.011 2.211 0 4.011-1.8 4.011-4.011v-8.023c0-3.825-2.694-7.021-6.28-7.82z" fill="#05C0A5"/><path d="M66.23 49.288c-3.435-2-7.827-.813-9.81 2.651-1.984 3.464-.807 7.894 2.628 9.894s7.988.813 9.971-2.651c1.984-3.464.647-7.894-2.788-9.894z" fill="#CDF4EE"/><path d="M62.421 37.034l-6.948-4.012a4.017 4.017 0 00-5.48 1.469 4.017 4.017 0 001.469 5.48l3.474 2.005-8.023 13.897-3.474-2.006a4.017 4.017 0 00-5.48 1.468 4.017 4.017 0 001.468 5.48l6.948 4.012c3.313 1.912 7.428 1.177 9.913-1.53-3.363-3.109-4.274-8.237-1.89-12.367 2.385-4.13 7.281-5.904 11.656-4.547 1.101-3.506-.32-7.437-3.633-9.35z" fill="#05C0A5"/><path d="M13.638 51.94a7.242 7.242 0 00-9.894-2.652c-3.464 2-4.812 6.43-2.812 9.894 2 3.464 6.59 4.651 10.055 2.65a7.243 7.243 0 002.65-9.893z" fill="#CDF4EE"/><path d="M32.049 55.335a4.017 4.017 0 00-5.48-1.468l-3.474 2.006-8.023-13.897 3.474-2.005a4.017 4.017 0 001.468-5.48 4.017 4.017 0 00-5.48-1.469l-6.948 4.012c-3.312 1.912-4.733 5.843-3.632 9.35 4.375-1.358 9.271.416 11.656 4.546 2.384 4.13 1.473 9.258-1.89 12.368 2.485 2.706 6.6 3.441 9.913 1.529l6.948-4.012a4.017 4.017 0 001.468-5.48z" fill="#05C0A5"/></g></svg>