<svg width="140" height="32" fill="none" xmlns="http://www.w3.org/2000/svg"><g clip-path="url(#clip0_63_196)"><path fill-rule="evenodd" clip-rule="evenodd" d="M35.503 16.47a5.93 5.93 0 01-2.171 8.1l-7.112 4.107a5.93 5.93 0 11-5.93-10.273L27.4 14.3a5.93 5.93 0 018.102 2.17zM27.732 3.009a5.93 5.93 0 01-2.17 8.101L8.964 20.692a5.93 5.93 0 11-5.93-10.272L19.63.838a5.93 5.93 0 018.102 2.17z" fill="#84FB7F"/><path d="M56.1 25.478h-3.57V7.238h-6.744V4.036H62.9V7.24h-6.8v18.24zm11.868.31c-1.536 0-2.904-.347-4.103-1.04a7.33 7.33 0 01-2.81-2.895c-.656-1.255-.984-2.689-.984-4.3 0-1.555.328-2.942.983-4.16a7.137 7.137 0 012.81-2.866c1.2-.693 2.568-1.04 4.104-1.04 1.537 0 2.904.347 4.103 1.04a7.137 7.137 0 012.81 2.867c.675 1.217 1.013 2.604 1.013 4.159 0 1.593-.338 3.017-1.012 4.272a7.328 7.328 0 01-2.782 2.923c-1.2.693-2.577 1.04-4.132 1.04zm0-2.895c.862 0 1.64-.225 2.333-.675.693-.468 1.227-1.105 1.602-1.91.393-.806.59-1.724.59-2.755 0-.974-.197-1.855-.59-2.642-.375-.806-.909-1.433-1.602-1.883a4.193 4.193 0 00-2.333-.674c-.862 0-1.64.224-2.333.674-.693.431-1.236 1.05-1.63 1.855-.374.787-.562 1.677-.562 2.67 0 1.05.197 1.977.59 2.782.394.806.928 1.434 1.602 1.883.694.45 1.471.675 2.333.675zM86.643 9.459c1.367 0 2.567.346 3.597 1.04 1.049.674 1.864 1.63 2.445 2.866.58 1.237.871 2.652.871 4.244 0 1.593-.29 3.007-.871 4.244-.58 1.237-1.396 2.201-2.445 2.895-1.03.674-2.23 1.011-3.597 1.011-.994 0-1.856-.178-2.586-.533-.73-.357-1.433-.984-2.108-1.883v7.869h-3.316V9.768h3.316v2.136c.675-.9 1.367-1.527 2.08-1.883.73-.375 1.602-.562 2.614-.562zm-.675 2.867c-.843 0-1.593.224-2.249.674-.655.45-1.17 1.077-1.545 1.883s-.562 1.714-.562 2.726.187 1.92.562 2.726c.375.806.89 1.434 1.545 1.883.657.45 1.406.675 2.25.675 1.291 0 2.322-.497 3.09-1.49.768-.993 1.153-2.257 1.153-3.794 0-1.536-.385-2.8-1.152-3.794-.769-.993-1.8-1.49-3.092-1.49zm18.371-2.867c1.367 0 2.567.346 3.597 1.04 1.049.674 1.864 1.63 2.445 2.866.58 1.237.871 2.652.871 4.244 0 1.593-.291 3.007-.871 4.244-.581 1.237-1.396 2.201-2.445 2.895-1.03.674-2.23 1.011-3.597 1.011-.994 0-1.856-.178-2.586-.533-.731-.357-1.434-.984-2.109-1.883v7.869h-3.316V9.768h3.316v2.136c.675-.9 1.368-1.527 2.081-1.883.73-.375 1.601-.562 2.614-.562zm-.675 2.867c-.843 0-1.593.224-2.249.674-.655.45-1.171 1.077-1.546 1.883-.374.806-.561 1.714-.561 2.726s.187 1.92.561 2.726c.375.806.891 1.434 1.546 1.883.656.45 1.406.675 2.249.675 1.292 0 2.323-.497 3.092-1.49.767-.993 1.152-2.257 1.152-3.794 0-1.536-.385-2.8-1.152-3.794-.769-.993-1.8-1.49-3.092-1.49zm17.555 13.462c-1.536 0-2.904-.347-4.103-1.04a7.435 7.435 0 01-2.754-2.895c-.656-1.237-.983-2.623-.983-4.16 0-1.424.29-2.763.87-4.018a7.405 7.405 0 012.642-3.036c1.181-.768 2.595-1.152 4.244-1.152 1.386 0 2.67.3 3.85.9 1.2.58 2.155 1.47 2.867 2.67.731 1.198 1.096 2.67 1.096 4.412v.843h-12.197c.112.73.29 1.311.534 1.742.374.88.909 1.574 1.601 2.08a4.074 4.074 0 002.417.759c.957 0 1.771-.244 2.446-.73.693-.507 1.19-1.134 1.489-1.884h3.429c-.506 1.63-1.386 2.96-2.641 3.99-1.256 1.013-2.858 1.519-4.807 1.519zm4.272-10.09c-.075-.58-.244-1.077-.506-1.49a3.698 3.698 0 00-1.545-1.489c-.656-.356-1.387-.534-2.193-.534-.824 0-1.554.178-2.192.534a3.941 3.941 0 00-1.546 1.49c-.243.374-.43.87-.561 1.49h8.543zm6.147 9.781V9.768h3.316v1.967c.619-.824 1.293-1.405 2.025-1.742.749-.337 1.629-.506 2.641-.506h.365v3.232h-.843c-1.255 0-2.22.337-2.895 1.012-.861.806-1.293 2.192-1.293 4.16v7.588h-3.316z" fill="#fff"/></g><defs><clipPath id="clip0_63_196"><path fill="#fff" d="M0 0h140v31.212H0z"/></clipPath></defs></svg>