<svg width="27" height="27" xmlns="http://www.w3.org/2000/svg"><g fill="none" fill-rule="evenodd"><g transform="translate(-16 -11)"><rect stroke="#FFF" x=".5" y=".5" width="123" height="47" rx="6"/><text font-family="SFProDisplay-Medium, SF Pro Display" font-size="14" font-weight="400" fill="#FFF"><tspan x="46.4" y="28.038">Buy ETH</tspan></text></g><path d="M7.53 12.867c.196-.154 1.93-2.05 2.91-2.935.005-.004.005-.004.005-.008V5.839c0-1.013.831-1.839 1.85-1.839h6.061c.948 0 1.72.772 1.72 1.71v9.581a1.848 1.848 0 01-1.85 1.839h-2.209a.13.13 0 01-.13-.141l.097-.814a.127.127 0 01.13-.112h.262a.13.13 0 00.13-.129V5.05a.13.13 0 00-.13-.128h-4.093a.752.752 0 00-.752.747v9.767c0 .283.196.523.46.598h.008c.447-.24.973-1.27 1.052-1.432a.08.08 0 00.013-.042c.03-.261.326-2.793 1.683-2.793.038 0 .075 0 .113.004 0 0 1.086.091.188 3.167 0 .008-.004.013-.004.02l-.397 3.409c0 .004 0 .008-.004.017-.034.128-.485 1.868-1.65 3.1a.133.133 0 00-.033.088v.294c0 .009.004.013.012.013h.105c.254 0 .463.207.463.46v1.2a.464.464 0 01-.463.461H8.16a.464.464 0 01-.463-.46v-1.192c0-.253.209-.46.463-.46.009 0 .013-.005.013-.013-.163-1.503-.748-6.642-1.061-7.045-.008-.012-.017-.025-.02-.041-.055-.187-.327-1.329.438-1.922zm10.613 3.076c0 .066.054.116.117.116.41 0 .743-.332.743-.739V5.66a.743.743 0 00-.743-.738.116.116 0 00-.117.116v10.905z" fill="#FFF" fill-rule="nonzero"/></g></svg>