<svg version="1.0" xmlns="http://www.w3.org/2000/svg" width="1492" height="417.333" viewBox="0 0 1119 313"><path d="M.2 33.7l.3 33.8 80.8.3 80.8.2-.3 33.4-.3 33.4-3 4.3c-1.9 2.7-5 5.4-8.4 7.1l-5.3 2.8h-24.2c-21.2 0-24.6.3-28.1 1.9-5 2.2-9.1 6.9-10.5 11.9-1.4 5.2-1.3 51 .2 55.3 1.7 5.2 4.6 8.8 8.8 10.9 3.6 1.8 6 2 31 2 30.9 0 32.6-.4 37.7-8.2l2.8-4.1.5-25.6c.5-23.8.7-25.9 2.7-29.6 2.6-5 6.5-8.6 12-11.4 4-2 5.7-2.1 34.8-2.1H243v162h68V0H0l.2 33.7zM411 124.3c0 68.4-.3 138.6-.7 156l-.6 31.7H478V197h49c40.3 0 49.6.3 51.8 1.4 3.6 1.9 7.8 6.5 9.1 9.9.7 1.9 1.1 20.1 1.1 53.3V312h67.1l-.3-53.7c-.4-60.7-.2-59.2-8.2-70-7.1-9.8-19-16.3-33.8-18.8-3.5-.5-3.8-.8-3.8-4s.4-3.6 7.3-7.2c9.2-4.8 22-17.3 26.4-25.8 6-11.4 8.5-22.2 9-39.3.6-17.4-.5-26.6-4.6-38.4-3.9-11-8.5-18.1-17.6-27.4-9.4-9.5-18.3-15.1-32-20C579.4.6 581.2.7 491.8.3L411-.1v124.4zm141.5-56.2c10.6 1.9 18.7 7.5 23 15.8.8 1.6 1.9 6.1 2.6 10 2.1 13.8-2.2 27-11 33.8-7.7 6-10.4 6.3-51.8 6.3H478V67h34.3c20.5 0 36.7.4 40.2 1.1zM699.7.7c-.4.3-.7 13.6-.7 29.5V59h41v196h-41v58h149v-58h-40V59h40V0h-73.8c-40.6 0-74.2.3-74.5.7zM899 156v156h67v-54c0-51.1.1-54.3 1.9-57.8 2.3-4.6 4.6-6.7 9.4-8.7 3.1-1.3 11.7-1.5 61.2-1.5h57.5v-62H966V68h152V0H899v156zM28.8 232.9c-7.7 2.5-11.7 5.2-18.1 12.1-7.5 8.1-10 14.7-10.1 26.5-.2 15.1 5.6 26.5 17.5 34.4 8.3 5.6 15.2 7.5 24.8 6.9 10.8-.7 17.9-3.8 25.5-10.9 16.8-15.7 17.7-41.1 2.1-57.8-10.9-11.7-26.8-15.9-41.7-11.2z"/></svg>