<svg width="16" height="20" xmlns="http://www.w3.org/2000/svg"><g fill="#FFF" fill-rule="evenodd"><path d="M15.21 2.5h-1.825V.625A.617.617 0 0012.777 0H1.825C.82 0 0 .841 0 1.875V17.5C0 18.879 1.092 20 2.434 20H15.21c.335 0 .608-.28.608-.625V3.125a.617.617 0 00-.608-.625zM1.826 1.25h10.343V2.5H1.825a.619.619 0 01-.608-.625c0-.344.274-.625.608-.625zm12.777 17.5H2.434c-.672 0-1.217-.56-1.217-1.25V3.635c.19.07.394.115.608.115h12.777v15z" fill-rule="nonzero"/><g transform="translate(4.06 3.652)"><rect y="8.386" width="8.12" height="1.333" rx=".667"/><rect x=".812" y="11.447" width="6.496" height="1.333" rx=".667"/><text font-family="ArialRoundedMTBold, Arial Rounded MT Bold" font-size="6"><tspan x="1.624" y="6.284">A</tspan></text></g></g></svg>