<svg width="64" height="64" fill="none" xmlns="http://www.w3.org/2000/svg"><g clip-path="url(#clip0_114_274)"><path d="M56.127 21.493c-.032 1.345-1.237 2.408-2.693 2.374-1.456-.034-2.61-1.152-2.579-2.496.031-1.345 1.237-2.408 2.692-2.374 1.456.034 2.611 1.151 2.58 2.496zm.39-6.981c-.306 1.418-.083 3.368-2.73 3.413l-.063-.002c-1.92.117-3.516-1.748-2.4-4.822 1.104-3.04 4.925-3.236 4.994-5.462.045-1.44-1.38-2.266-2.69-2.137-2.038.2-2.09 1.988-3.543 2.843-2.513 1.479-6.65-1.863-1.836-5.518C53.553-1.2 61.37 1.342 61.5 7.331c.107 5.003-4.508 4.973-4.982 7.18z" fill="#0098A6"/><path d="M43.75 59.855L42.238 45.01c-.221-2.869-.736-4.43-1.583-5.79l-.058-.09A8.06 8.06 0 0037 36.04c-1.467-.646-3.057-.938-5.87-.744l-.19.013-4.09.312c-.002-.003-.003-.003-.005-.003l-.146.012a8.864 8.864 0 00-8.018 9.505l1.573 14.72H43.75z" fill="#fff"/><path d="M43.75 59.855L42.238 45.01c-.221-2.869-.736-4.43-1.583-5.79l-.058-.09A8.06 8.06 0 0037 36.04c-1.467-.646-3.057-.938-5.87-.744l-.19.013-4.09.312c-.002-.003-.003-.003-.005-.003l-.146.012a8.864 8.864 0 00-8.018 9.505l1.573 14.72H43.75z" stroke="#000" stroke-width="1.125" stroke-linecap="round" stroke-linejoin="round"/><path d="M1.837 59.826h60.256" stroke="#000" stroke-width="1.375" stroke-linecap="round" stroke-linejoin="round"/><path d="M19.25 45.625l-5.625 9.75h11.25" stroke="#000" stroke-width="9.25" stroke-linecap="round" stroke-linejoin="round"/><path d="M19.25 45.625l-5.625 9.75h11.25" stroke="#fff" stroke-width="7" stroke-linecap="round" stroke-linejoin="round"/><path d="M43.411 43.375l7.25 12h-5.875" stroke="#000" stroke-width="9.25" stroke-linecap="round" stroke-linejoin="round"/><path d="M43.411 43.375l7.25 12h-5.875" stroke="#fff" stroke-width="7" stroke-linecap="round" stroke-linejoin="round"/><path d="M24.792 59.792h14.333l2.962-9.148-19.879-1.852 2.584 11z" fill="#fff"/><path d="M24.792 59.792h14.333l2.962-9.148-19.879-1.852 2.584 11z" stroke="#000" stroke-width="1.125" stroke-linecap="round" stroke-linejoin="round"/><path d="M27.948 49.22l7.72.732" stroke="#000" stroke-width="2.375" stroke-linecap="round" stroke-linejoin="round"/><path d="M48.607 51.974l2.054 3.401h-5.875" stroke="#000" stroke-width="9.25" stroke-linecap="round" stroke-linejoin="round"/><path d="M48.607 51.974l2.054 3.401h-5.875" stroke="#fff" stroke-width="7" stroke-linecap="round" stroke-linejoin="round"/><path d="M45.786 54.854l-4.541-.02m4.51 3.27l-3.688-.02" stroke="#000" stroke-width="1.125" stroke-linecap="round" stroke-linejoin="round"/><path d="M49.406 46.453c.11.125 3.797 6.375 3.844 6.469-.922.781-8.18 1.937-8.89-.203.609-.407-.485-1.844-1.055-2.711-.274-2.164 4.758-2.696 6.101-3.555z" fill="#fff" fill-opacity=".99"/><path d="M50.344 51.219l-7.844.062" stroke="#000" stroke-width="1.125" stroke-linecap="round"/><path d="M47.474 51.354c2.4 1.834 2.276 7.271.437 8.146" stroke="#000" stroke-width="1.125" stroke-linecap="round" stroke-linejoin="round"/><path d="M39.344 41.125c-.594 1 .843 1.094 1.025.507 1.818 1.524 2.646 4.942 1.13 5.368-.327-.75-1.374-.281-1.093.406-2.562-.25-2.937-5.968-1.062-6.281zm-14.594.906c-4.75-1.687-4.375 4.72-2.375 5.282.328-.75 1.297-.266 1.031.343 2.563-.25 3.135-4.988 1.344-5.625z" fill="#fff"/><path d="M13.922 55.375H23" stroke="#000" stroke-width="9.25" stroke-linecap="round" stroke-linejoin="round"/><path d="M13.922 55.375H23" stroke="#fff" stroke-width="7" stroke-linecap="round" stroke-linejoin="round"/><path d="M14.219 49.469c-.938.218-2.156 2.812-2.594 3.25-.438.437 2.375 2.718 4.875 1.5.525-.256.781-1 .969-2.375-.594-.032-.688-1.063 0-1.125-.657-1.25-2.313-1.469-3.25-1.25z" fill="#fff"/><path d="M20.501 42.417c-.61.23-1.581.88-1.984 1.414L13.33 53.27c-1.738 2.305-.09 5.606 2.795 5.606h-2.5c-2.888 0-4.531-3.3-2.795-5.606l5.625-9.813c.991-1.315 2.677-1.567 4.046-1.039z" fill="#D8D8D8"/><path d="M20 51.375v8.083m4-4.666h2.667m-2.636 3.25h1.813" stroke="#000" stroke-width="1.125" stroke-linecap="round" stroke-linejoin="round"/><path d="M36.949 14.338c6.393 2.736 7.238 9.08 7.762 14.066.579 5.51-.506 10.43-4.864 13.505-3.838 2.709-13.038 3.854-17.696 1.86-4.888-2.092-6.984-6.664-7.566-12.198-.344-3.274-1.586-10.96 4.668-15.373 3.854-2.719 13.057-3.845 17.696-1.86z" fill="#fff"/><path d="M36.949 14.338c6.393 2.736 7.238 9.08 7.762 14.066.579 5.51-.506 10.43-4.864 13.505-3.838 2.709-13.038 3.854-17.696 1.86-4.888-2.092-6.984-6.664-7.566-12.198-.344-3.274-1.586-10.96 4.668-15.373 3.854-2.719 13.057-3.845 17.696-1.86z" stroke="#000" stroke-width="1.181" stroke-linecap="round" stroke-linejoin="round"/><path d="M24.416 43.838c-1.372-.276-2.68-.76-4.056-1.72l-.009-.006c-2.966-2.076-4.674-5.568-5.203-10.6-.318-3.025-1.293-9.117 2.745-13.376l.014-.016c1.869-1.965 4.068-2.854 6.808-3.492-6.837 4.992-3.484 24.227-.299 29.21z" fill="#D8D8D8"/><path d="M35.59 17.033c1.453.242 3.003.977 4.2 1.78" stroke="#000" stroke-width="1.444" stroke-linecap="round"/><path d="M31.291 20.85c-2.461.338-7 .57-8.586 5.096-.937 2.674-.306 7.239 1.351 9.577 2.76 3.894 7.188 2.92 9.395 2.614 2.356-.325 6.89-.568 8.472-5.08.935-2.668.309-7.233-1.35-9.578-2.762-3.896-7.223-2.914-9.282-2.63z" fill="#fff"/><path d="M31.291 20.85c-2.461.338-7 .57-8.586 5.096-.937 2.674-.306 7.239 1.351 9.577 2.76 3.894 7.188 2.92 9.395 2.614 2.356-.325 6.89-.568 8.472-5.08.935-2.668.309-7.233-1.35-9.578-2.762-3.896-7.223-2.914-9.282-2.63z" stroke="#000" stroke-width="1.181" stroke-linecap="round" stroke-linejoin="round"/><path d="M28.822 48.737c.678-1.675 5.615-1.55 6.068.681" stroke="#000" stroke-width=".75" stroke-linecap="round" stroke-linejoin="round"/><path d="M44.078 23.528c.35 1.134.499 2.78.61 3.737.2 1.729.265 3.763.276 3.798.12.063.822.36 1.736-.036 1.322-.573 2.136-1.858 2.08-3.494-.034-.941.096-3.04-1.911-4.074-1.15-.588-2.244-.175-2.791.07z" fill="#fff"/><path d="M44.078 23.528c.35 1.134.499 2.78.61 3.737.2 1.729.265 3.763.276 3.798.12.063.822.36 1.736-.036 1.322-.573 2.136-1.858 2.08-3.494-.034-.941.096-3.04-1.911-4.074-1.15-.588-2.244-.175-2.791.07z" stroke="#000" stroke-width="1.181" stroke-linecap="round" stroke-linejoin="round"/><path d="M46.57 25.457l.294 2.706" stroke="#BABABA" stroke-width="1.575" stroke-linecap="round" stroke-linejoin="round"/><path d="M12.168 27.157c-1.768 1.402-1.234 3.437-1.084 4.366.261 1.616 1.309 2.72 2.717 3.024a4.242 4.242 0 002.946-.478c1.242-.737 1.88-2.119 1.62-3.723-.166-1.025-.323-3.046-2.404-3.802-1.228-.446-2.783-.19-3.794.613z" fill="#D8D8D8"/><path d="M12.168 27.157c-1.768 1.402-1.234 3.437-1.084 4.366.261 1.616 1.309 2.72 2.717 3.024a4.242 4.242 0 002.946-.478c1.242-.737 1.88-2.119 1.62-3.723-.166-1.025-.323-3.046-2.404-3.802-1.228-.446-2.783-.19-3.794.613z" stroke="#000" stroke-width="1.181" stroke-linecap="round" stroke-linejoin="round"/><path d="M14.393 32.13l-.523-3.24" stroke="#fff" stroke-width="1.575" stroke-linecap="round" stroke-linejoin="round"/><path d="M34.023 30.121c.666.324 1.527.147 2.022-.422m2.728-5.723l1.764.362M26.98 26.335l1.84-1.156" stroke="#000" stroke-width="1.313" stroke-linecap="round"/><path d="M40.54 29.902c.872-.122 1.467-1.026 1.327-2.018-.14-.992-.96-1.697-1.832-1.574-.872.122-1.466 1.026-1.327 2.018.14.992.96 1.697 1.832 1.574zm-11.56 1.68a1.815 1.815 0 10-.506-3.594 1.815 1.815 0 00.506 3.594z" fill="#000"/></g><defs><clipPath id="clip0_114_274"><path fill="#fff" d="M0 0h64v64H0z"/></clipPath></defs></svg>