<svg width="25" height="25" xmlns="http://www.w3.org/2000/svg"><path d="M3.625 14.989h2.439c.019.28.05.56.095.835a.62.62 0 00.715.502.607.607 0 00.518-.693 7.662 7.662 0 01-.101-1.247c0-3.465 2.316-6.307 5.231-6.518.02-.002.041-.005.062-.006.048-.003.097-.003.146-.004.047-.002.093-.004.14-.004.4 0 .8.05 1.187.148h.003l.03.007.039.007a.545.545 0 00.071.005h.025a.626.626 0 00.065-.004h.01a.635.635 0 00.074-.015l.016-.005a.634.634 0 00.056-.019l.019-.007a.645.645 0 00.066-.032l.008-.005a.618.618 0 00.053-.035l.019-.015a.597.597 0 00.044-.038l.012-.011a.593.593 0 00.05-.057l.008-.012a.599.599 0 00.036-.056l.005-.008 2.1-3.813a.595.595 0 00-.257-.818.635.635 0 00-.845.25L13.886 6.73a6.107 6.107 0 00-1.015-.086h0s0 0 0 0h0c-.1 0-.198.003-.296.008l-.055.002a5.959 5.959 0 00-.76.093l-.01-.023L9.964 3.33a.635.635 0 00-.84-.264.596.596 0 00-.273.813l1.696 3.227c-1.412.58-2.608 1.673-3.412 3.08-1.283-.165-2.277-1.231-2.277-2.518a.615.615 0 00-.624-.605.615.615 0 00-.625.605c0 1.774 1.279 3.263 2.99 3.65a8.523 8.523 0 00-.538 2.461H3.625a.615.615 0 00-.625.605c0 .334.28.605.625.605zm18.748-.722h-2.427a9.346 9.346 0 00-.54-2.578 3.921 3.921 0 002.982-3.814.63.63 0 00-.626-.633.63.63 0 00-.627.633c0 1.443-1.144 2.62-2.565 2.656a.63.63 0 00-.68.503l-.001.01a.622.622 0 00-.011.1l-.001.021.001.027v.004a.633.633 0 00.085.287 8.004 8.004 0 01.752 3.419c0 3.768-2.51 6.833-5.596 6.833-1.311 0-2.587-.567-3.592-1.597a.622.622 0 00-.886-.006.637.637 0 00-.006.894C9.877 22.3 11.47 23 13.119 23c2.381 0 4.482-1.444 5.71-3.631l1.639 1.655a.621.621 0 00.886 0 .637.637 0 000-.894l-1.962-1.98a9.243 9.243 0 00.555-2.618h2.427a.63.63 0 00.626-.633.63.63 0 00-.627-.632zM22.83 3.17a.579.579 0 00-.817 0L3.169 22.011a.579.579 0 00.818.819L22.831 3.988a.579.579 0 000-.819z" fill="#8698A3" stroke="#8698A3" stroke-width=".8"/></svg>