<svg xmlns="http://www.w3.org/2000/svg" viewBox="0 0 36 24"><path d="M0 6.4C0 4.2 0 3 .4 2.2S1.4.8 2.1.5C3 0 4.2 0 6.4 0h23.2c2.2 0 3.4 0 4.2.4s1.4 1 1.7 1.7c.5.9.5 2.1.5 4.3v11.2c0 2.2 0 3.4-.4 4.2s-1 1.4-1.7 1.7c-.9.5-2.1.5-4.3.5H6.4c-2.2 0-3.4 0-4.2-.4s-1.4-1-1.7-1.7C0 21 0 19.8 0 17.6V6.4z" fill="#224dba"/><path d="M11.1 16.4H8.7l-1.8-7c-.2-.4-.3-.6-.6-.7-.7-.3-1.3-.7-2.2-.8v-.2H8c.6 0 1 .4 1 .9l.9 5.1 2.5-6h2.4l-3.7 8.7zm4.9 0h-2.3l1.8-8.9h2.3L16 16.4zm4.9-6.3c.1-.5.5-.8.9-.8.6-.1 1.6.1 2.1.5l.5-1.9c-.6-.2-1.4-.4-2-.4-2.1 0-3.9 1.3-3.9 3 0 1.3 1.1 1.9 1.9 2.4.9.5 1.3.6 1.1 1.1 0 .6-.6.9-1.4.9-.8 0-1.6-.2-2.4-.6l-.5 1.9c.8.4 1.7.5 2.5.5 2.5.1 4-1.1 4-3 .2-2.5-2.8-2.6-2.8-3.6zm11 6.3l-1.8-8.9h-1.9c-.5 0-.8.2-.9.6L24 16.2h2.4l.5-1.3h2.9l.2 1.3 1.9.2zm-3.4-6.3l.6 3.3h-1.8l1.2-3.3z" fill-rule="evenodd" clip-rule="evenodd" fill="#fff"/></svg>