<svg xmlns="http://www.w3.org/2000/svg" viewBox="0 0 24 24"><g fill="#fff"><path d="M18.4 18.1h-.2l-8.1-2.8-.4.4v3.1l1.9-2.5c.2-.2.5-.3.8-.1.2.2.3.5.1.8l-2.9 3.9c-.1 0-.3.1-.5.1H9c-.2-.1-.4-.3-.4-.5v-5c0-.1.1-.3.1-.4l.3-.2L3.5 13c-.2-.1-.4-.3-.4-.5s.1-.4.3-.5l16.8-8.8c.2-.1.4-.1.6 0 .1 0 .2.2.2.4l-2.1 13.9c0 .2-.1.3-.3.4 0 .1-.1.2-.2.2zM11 14.4l8.6-9.2-1.7 11.6-6.9-2.4zM9.8 14L5 12.3l12.6-6.6L9.8 14z" fill-rule="evenodd" clip-rule="evenodd"/><path d="M18.2 18l-.1.2.1-.2zm-8.1-2.7l.1-.2H10l.1.2zm-.4.4l-.1-.1v.2h.1zm0 3.1h-.2v.5l.3-.4-.1-.1zm1.9-2.5l-.1-.1.1.1zm.7-.2l-.1.1.1-.1zm.2.8l.1.1-.1-.1zm-2.9 3.9l.1.1-.1-.1zM9 21l-.1.2.1-.2zm-.3-5.9l-.1-.1.1.1zm.3-.2l.1.1.2-.2-.3-.1v.2zm-5.6-2l-.1.2.1-.2zm-.4-.4h-.2.2zm.3-.6l-.1-.2.1.2zm16.8-8.8l-.1-.2.1.2zm.6 0l-.1.1.1-.1zm.3.5h.2-.2zm-2.1 14h.2-.2zm-.3.4l-.1-.2.1.2zm1-12.8h.2l.1-.6-.4.4.1.2zM11 14.4l-.1-.1-.2.2.3.1v-.2zm6.9 2.3l-.1.2.2.1v-.2l-.1-.1zM9.8 14l-.1.2h.1l.1-.1-.1-.1zM5 12.3l-.1-.2-.4.2.5.2v-.2zm12.6-6.6l.1.1-.2-.3.1.2zm.5 12.5h.2v-.4h-.1l-.1.4zm-8-2.8l8.1 2.8.1-.3-8.1-2.8-.1.3zm-.1-.3l-.4.4.3.2.4-.4-.3-.2zm-.5.6v3.1h.4v-3.1h-.4zm.3 3.2l1.9-2.5-.3-.2-1.9 2.5.3.2zm1.9-2.5c.1-.2.4-.2.5-.1l.2-.3c-.3-.2-.8-.2-1 .2l.3.2zm.5-.1c.2.1.2.4.1.5l.3.2c.2-.3.2-.8-.2-1l-.2.3zm.1.5l-2.9 3.9.3.2 2.9-3.9-.3-.2zm-2.9 3.9c-.1.1-.2.2-.3.2v.4c.2 0 .5-.1.6-.3l-.3-.3zm-.3.1H9l-.1.3h.2v-.3zm-.1 0c-.2-.1-.3-.2-.3-.4h-.3c0 .3.2.6.5.7l.1-.3zm-.2-.4v-5h-.4v5h.4zm0-4.9c0-.1 0-.2.1-.3l-.3-.2c-.1.1-.2.3-.2.5h.4zm.1-.3l.2-.2-.3-.2-.2.2.3.2zm-5.5-2.1L8.9 15l.1-.3-5.5-1.9-.1.3zm-.5-.6c0 .3.2.5.5.6l.1-.3-.3-.3h-.3zm.3-.7c-.3.1-.4.4-.4.7h.4c0-.2.1-.3.2-.4l-.2-.3zm16.9-8.9L3.2 11.8l.2.3 16.8-8.8-.1-.4zm.7.1c-.2-.2-.5-.2-.8-.1l.2.3c.1-.1.3-.1.4 0l.2-.2zm.3.7c0-.3-.1-.6-.3-.7l-.2.3c.1.1.2.2.2.4h.3zm-2 13.9l2.1-13.9-.4-.1-2.1 13.9.4.1zm-.4.5c.2-.1.3-.3.3-.5l-.4-.1c0 .1-.1.2-.2.3l.3.3zm-.3.1c.1 0 .3 0 .4-.1l-.2-.3c-.1 0-.1.1-.2.1v.3zM19.5 5l-8.6 9.2.3.2 8.6-9.2-.3-.2zm-.1.1l-1.7 11.6.4.1 1.7-11.6-.4-.1zM18 16.6l-7-2.4-.1.3 6.9 2.4.2-.3zm-8.1-2.8l-4.8-1.7-.1.4 4.8 1.7.1-.4zm-4.8-1.3l12.6-6.6-.2-.3-12.6 6.5.2.4zm4.8 1.6l7.8-8.3-.3-.2-7.8 8.3.3.2z"/></g></svg>