<svg width="14" height="18" fill="none" xmlns="http://www.w3.org/2000/svg"><path d="M12.592 15.25c-.692 1.033-1.425 2.042-2.542 2.058-1.117.025-1.475-.658-2.742-.658-1.275 0-1.666.642-2.725.683-1.091.042-1.916-1.1-2.616-2.108-1.425-2.058-2.517-5.85-1.05-8.4.725-1.267 2.025-2.067 3.433-2.092 1.067-.016 2.083.725 2.742.725.65 0 1.883-.891 3.175-.758.541.025 2.058.217 3.033 1.65-.075.05-1.808 1.067-1.792 3.175.025 2.517 2.209 3.358 2.234 3.367-.025.058-.35 1.2-1.15 2.358zM7.833 1.917C8.442 1.225 9.45.7 10.283.667c.109.975-.283 1.958-.866 2.658-.575.708-1.525 1.258-2.459 1.183-.125-.958.342-1.958.875-2.591z" fill="#60666D"/></svg>