<svg width="52" height="52" xmlns="http://www.w3.org/2000/svg"><g fill="none" fill-rule="evenodd"><path d="M26 20v7-7z" fill="#000"/><path d="M8.948 18.778c1.093.158 2.303-2.14 3.044-3.528l.04-.08c-.352-.594-.157-1.466.078-2.14.039-.079.117-.356.039-.396h-.117a11.75 11.75 0 00-1.445 1.348 8.893 8.893 0 01-1.678 1.546c-.312.872-.664 2.417-.312 3.052.039.079.195.158.35.198zm34.896-2.616c0-.04.039-.12.078-.12s.078 0 .117.04c.741 1.269 1.756 2.894 2.342 3.41.234 1.267.195 2.258-.117 2.655-.078.119-.196.158-.313.198-.507.08-1.249-.436-2.225-3.25a4.72 4.72 0 00.118-2.933zm-36.418 0c0-.04-.04-.12-.078-.12-.04 0-.079 0-.118.04-.741 1.269-1.756 2.894-2.342 3.41-.234 1.267-.195 2.258.118 2.655.078.119.195.158.312.198.507.08 1.249-.436 2.225-3.25-.352-.912-.39-1.942-.117-2.933zm-.742 13v-.753c-.04-.04-.078-.08-.078-.119-.04-.04-.078-.08-.078-.158-.04-.04-.078-.12-.117-.159-.04-.08-.078-.119-.117-.198-.04-.08-.078-.119-.117-.198l-.118-.238c-.039-.08-.078-.159-.078-.238a.743.743 0 01-.078-.277.756.756 0 01-.078-.317c-.039-.12-.039-.199-.078-.317-.039-.12-.039-.238-.078-.357-.039-.12-.039-.238-.078-.357s-.039-.277-.039-.396c0-.159-.039-.278-.039-.436 0-.159-.039-.317-.039-.476v-.476c0-.079-.078-.158-.156-.158s-.117.04-.156.119v.158c0 .08-.04.12-.04.199-.038.158-.038.317-.077.475-.04.159-.04.278-.078.436-.04.12-.04.278-.079.397-.039.118-.039.237-.078.356-.039.12-.039.198-.078.317 0 .08-.039.199-.039.278 0 .08-.039.198-.039.277 0 .08-.039.159-.039.238 0 .08-.039.159-.039.238 0 .08-.039.119-.039.198 0 .04-.039.119-.039.159 0 .04-.039.119-.039.158 0 .04-.039.08-.039.159 0 .04-.039.079-.039.119 0 .04-.039.079-.039.118 0 .04-.039.08-.039.08 0 .04-.04.04-.04.079 0 .04-.038.04-.038.08 0 .039-.04.039-.04.079s-.038.04-.038.079c0 .04-.04.04-.04.08v.079c.82 2.814 1.445 3.21 1.718 3.25h.117c.625-.08.742-1.07.742-2.577zm37.901 0v-.753c.04-.04.078-.08.078-.119.04-.04.078-.08.078-.158.04-.04.078-.12.117-.159.04-.08.079-.119.118-.198.039-.08.078-.119.117-.198l.117-.238c.039-.08.078-.159.078-.238a.743.743 0 00.078-.277.756.756 0 00.078-.317c.039-.12.039-.199.078-.317.039-.12.039-.238.078-.357.04-.12.04-.238.078-.357.04-.119.04-.277.04-.396 0-.159.038-.278.038-.436 0-.159.04-.317.04-.476v-.476c0-.079.077-.158.155-.158s.117.04.157.119v.158c0 .08.039.12.039.199.039.158.039.317.078.475.039.159.039.278.078.436.039.12.039.278.078.397.039.118.039.237.078.356.039.12.039.198.078.317 0 .08.039.199.039.278 0 .08.039.198.039.277 0 .08.039.159.039.238 0 .08.039.159.039.238 0 .08.039.119.039.198 0 .04.04.119.04.159 0 .04.038.119.038.158 0 .04.04.08.04.159 0 .04.038.079.038.119 0 .04.04.079.04.118 0 .04.038.08.038.08 0 .04.04.04.04.079 0 .04.038.04.038.08 0 .039.04.039.04.079s.038.04.038.079c0 .04.04.04.04.08v.079c-.82 2.814-1.445 3.21-1.718 3.25h-.117c-.625-.08-.742-1.07-.742-2.577zM9.065 37.09l-.117-.12-.117-.119-.156-.158c-.04-.08-.117-.119-.156-.198-.079-.08-.118-.159-.196-.198-.078-.08-.117-.159-.195-.238-.078-.08-.156-.159-.195-.278a1.204 1.204 0 01-.195-.277c-.078-.119-.156-.198-.234-.317a2.196 2.196 0 00-.235-.317c-.078-.12-.156-.238-.195-.357a1.247 1.247 0 01-.195-.396c-.117-.238-.234-.436-.312-.674-.04-.08-.078-.159-.156-.159-.04 0-.078 0-.117.04-.04.08 0 .119 0 .198 0 .08.039.159.039.198.039.159.078.278.078.436.078.357.156.714.234 1.11.039.198.078.396.117.634.04.198.04.397.04.595v.158c0 .04-.04.08 0 .12.858 1.624 1.717 2.298 2.849 2.298h.078v-.357c0-.04 0-.079-.04-.119 0-.04-.038-.079-.038-.118 0-.04-.04-.08-.04-.12 0-.039-.039-.079-.039-.158 0-.04-.039-.119-.039-.158-.039-.04-.039-.12-.078-.159-.039-.08-.039-.119-.078-.198-.039-.08-.039-.12-.078-.198-.039-.08-.078-.12-.117-.199 0-.04-.039-.04-.039-.079l-.039-.04-.039-.079c.039 0 0 0 0 0zm33.1 0l.117-.12.117-.119.156-.158c.04-.08.118-.119.157-.198.078-.08.117-.159.195-.198.078-.08.117-.159.195-.238.078-.08.156-.159.195-.278.078-.079.156-.198.195-.277.078-.119.156-.198.234-.317.079-.12.157-.238.235-.317.078-.12.156-.238.195-.357.078-.119.156-.238.195-.396.117-.238.234-.436.312-.674.04-.08.078-.159.156-.159.04 0 .078 0 .118.04.039.08 0 .119 0 .198 0 .08-.04.159-.04.198-.039.159-.078.278-.078.436-.078.357-.156.714-.234 1.11-.039.198-.078.396-.117.634-.039.198-.039.397-.039.595v.158c0 .04.04.08 0 .12-.859 1.624-1.717 2.298-2.85 2.298h-.077v-.357c0-.04 0-.079.039-.119 0-.04.039-.079.039-.118 0-.04.039-.08.039-.12 0-.039.039-.079.039-.158 0-.04.039-.119.039-.158.039-.04.039-.12.078-.159.039-.08.039-.119.078-.198.039-.08.039-.12.078-.198.039-.08.078-.12.117-.199 0-.04.04-.04.04-.079l.038-.04.04-.079zM3.835 18.817c.078 0 1.014-.396 2.888-3.805l.078-.158c-.078-.436.078-.793.508-1.427.078-.119.156-.278.117-.396a13.625 13.625 0 00-2.42 2.338c-1.367 1.903-1.328 3.29-1.171 3.448zm43.483.04c-.079 0-1.015-.396-2.889-3.805l-.078-.159c.078-.436-.078-.792-.507-1.426-.078-.12-.157-.278-.118-.397a13.625 13.625 0 012.42 2.339c1.367 1.863 1.328 3.25 1.172 3.448zM3.99 22.94c0-.04-.038-.04 0 0l-.038-.08c0-.04-.04-.04-.04-.08-.077-.118-.116-.277-.156-.395a6.583 6.583 0 01-.117-.436c-.039-.159-.039-.278-.078-.436 0-.159-.039-.278-.039-.436v-.794c0-.039 0-.158-.078-.158-.117 0-.195.08-.234.198-.039.08-.078.199-.117.278a5.343 5.343 0 00-.273.713 23.83 23.83 0 00-.508 1.546 8.073 8.073 0 00-.195 1.665c0 .594.04 1.229.156 1.823.04.515.195 1.03.469 1.467l.078.079c.351-.396.858-2.814 1.17-4.955zm.86 9.71c-.04-.04-.04-.08-.079-.119l-.117-.119c-.039-.04-.078-.119-.117-.158-.039-.08-.078-.12-.117-.198l-.117-.238a.83.83 0 00-.156-.238c-.04-.08-.117-.198-.156-.277-.04-.12-.117-.199-.156-.318-.04-.118-.118-.237-.157-.356-.039-.159-.078-.238-.117-.397-.039-.198-.078-.237-.117-.436-.039-.079-.039-.237-.156-.198-.117 0-.117.198-.117.278v.476c0 .158 0 .356-.039.515v1.03a5.39 5.39 0 00.585 1.903c.196.396.39.753.625 1.11a3.05 3.05 0 001.015 1.11c.039.039.117 0 .156-.04v-.04a15.45 15.45 0 00-.586-3.21l-.078-.08zm41.57 0c.039-.04.039-.08.078-.119l.117-.119c.039-.04.078-.119.117-.158.04-.08.078-.12.117-.198l.117-.238a.83.83 0 01.156-.238c.04-.08.117-.198.157-.277.039-.12.117-.199.156-.318.039-.118.117-.237.156-.356.039-.159.078-.238.117-.397.039-.198.078-.237.117-.436.039-.079.039-.237.156-.198.117 0 .117.198.117.278v.476c0 .158 0 .356.04.515v1.03a5.39 5.39 0 01-.586 1.903c-.195.396-.39.753-.625 1.11a3.05 3.05 0 01-1.015 1.11c-.039.039-.117 0-.156-.04v-.04c.078-1.07.273-2.14.586-3.21l.078-.08zM16.403 18.659c1.523.158 2.42-1.705 3.045-3.449-.586-.554-.703-1.585-.742-2.298v-.04c0-.317-.078-.515-.507-.555-.273 0-.859.753-1.288 1.308a6.436 6.436 0 01-1.679 1.744c-.195 1.15-.078 2.26.352 2.854.195.238.507.396.82.436zm.781 1.466c-.508.12-1.015.08-1.483-.04-.39 1.19-1.288 2.577-1.952 3.053.156 1.942 1.093 4.677 2.342 4.716 1.64.04 2.264-2.259 2.654-4.796-.858-.753-1.405-1.823-1.561-2.933zm-.351 9.235a2.56 2.56 0 01-1.445-.04c-.234 1.586-.624 2.617-1.21 3.25.352.833 1.6 3.132 2.928 3.41.351.118.702.04.976-.159.702-.555.78-2.14.82-3.131-.898-.674-1.601-1.744-2.07-3.33zm-6.09-9.909c.04 1.031.39 2.775 1.328 2.775h.039c.82 0 1.6-.99 2.38-3.052-.429-.594-.858-1.665-.663-3.409-.195 0-.351 0-.546-.04-.703 1.309-1.523 2.855-2.538 3.726zm3.318 9.037c-.663-.713-1.483-2.1-1.717-4.796a2.09 2.09 0 01-.703 0c-.43 2.418-.859 3.964-1.6 4.876.273.832 1.17 3.13 2.42 3.17.702.08 1.327-1.189 1.6-3.25zm-1.131 4.757c-.235.04-.43.04-.664.04.117 1.704.117 2.813-.274 3.527.664 1.07 1.913 2.576 3.24 2.1.234-.079.352-.871.195-1.902-1.053-.713-1.912-1.982-2.498-3.765zM6.684 23.138c.117 2.616.82 4.716 1.64 4.716 1.131 0 1.756-3.488 1.99-4.835a4.397 4.397 0 01-1.015-2.854c-.312.04-.624.04-.937-.04-.195.714-.82 2.418-1.678 3.013zM8.83 29.36c-.311.08-.585.08-.897 0-.078 1.388-.234 2.418-.624 3.092.585 1.506 2.185 3.765 3.161 3.765.04 0 .04.04.117-.079.117-.158.508-.832.195-3.448-.975-.872-1.678-2.022-1.951-3.33zm9.72-9.909c.234 1.308.859 2.656 2.069 2.775 1.873.159 2.459-1.665 2.81-2.973-.585-.594-1.249-1.625-1.444-3.488-.39.04-.78.04-1.171 0-.468 1.269-1.132 2.775-2.264 3.686zm2.381 12.327c1.6 0 2.225-2.14 2.46-3.488-1.055-1.07-1.68-2.536-1.992-4.598-.429.08-.897.08-1.327 0-.429 2.537-1.014 4.043-1.951 4.955.234.713 1.093 3.092 2.81 3.131zm.781 1.467c-.39.079-.78.079-1.171 0-.078 1.387-.312 2.853-1.132 3.725.702 2.061 2.147 2.18 2.966 2.061.742-.118 1.093-.673 1.366-2.1-1.21-.912-1.717-2.497-2.03-3.686zm3.864-14.547c1.678 0 2.186-1.981 2.342-3.29-.585-.316-.859-1.03-1.171-1.704-.312-.713-.585-1.387-1.132-1.387-.546-.04-.742.396-1.015 1.19-.195.792-.624 1.466-1.288 1.902.156 1.11.547 3.29 2.264 3.29zm0 8.839c1.327 0 2.303-1.665 2.693-4.439-.858-.793-1.522-1.823-1.834-2.973a2.885 2.885 0 01-1.64 0c-.312 1.15-.936 2.18-1.795 2.933.117 1.15 1.015 4.48 2.576 4.48zm.859 1.546a3.44 3.44 0 01-1.679-.04c-.35 1.625-.897 2.775-1.717 3.488.195.872.976 3.567 2.537 3.567 1.015 0 2.225-1.308 2.654-3.488-.78-.634-1.366-1.743-1.795-3.527zm4.215-6.857c1.171-.08 1.835-1.467 2.07-2.775-1.133-.911-1.796-2.417-2.265-3.725-.39.04-.78.079-1.17 0-.235 1.863-.899 2.893-1.445 3.488.351 1.347.937 3.13 2.81 3.012zm-.39 9.552c1.757-.04 2.615-2.418 2.81-3.131-.936-.872-1.522-2.378-1.951-4.955-.43.08-.898.08-1.327 0-.352 2.062-.976 3.488-1.991 4.598.273 1.348.898 3.488 2.459 3.488zm-.742 1.467c-.312 1.189-.82 2.774-1.99 3.725.234 1.427.624 1.982 1.366 2.101.82.119 2.225 0 2.966-2.061-.82-.872-1.014-2.338-1.132-3.726-.39.04-.82.04-1.21-.04zm5.348-14.586c.312-.04.624-.198.78-.476.43-.555.547-1.665.352-2.854-.664-.475-1.21-1.07-1.679-1.744-.429-.554-.975-1.308-1.288-1.308-.39.04-.468.238-.507.555v.04c-.04.713-.156 1.704-.742 2.299.664 1.783 1.562 3.686 3.084 3.488zm.312 9.195c1.21-.04 2.186-2.774 2.342-4.716-.702-.476-1.6-1.863-1.951-3.052-.469.158-.976.158-1.484.04a4.862 4.862 0 01-1.522 2.932c.351 2.537.976 4.836 2.615 4.796zm.664 1.466c-.469.12-.976.16-1.444.04-.508 1.586-1.171 2.696-2.07 3.33.04.99.118 2.576.82 3.131.274.198.664.277.976.159 1.327-.278 2.577-2.577 2.928-3.41-.586-.633-.937-1.664-1.21-3.25zm3.318-7.094c1.132-.04 1.327-2.22 1.327-2.775-1.015-.871-1.835-2.417-2.537-3.725-.196.04-.352.04-.547.04.195 1.743-.234 2.774-.663 3.408.82 2.061 1.6 3.052 2.42 3.052zm.429 1.466a2.09 2.09 0 01-.703 0c-.234 2.696-1.014 4.083-1.717 4.796.273 2.022.859 3.25 1.561 3.25h.04c1.248-.079 2.146-2.338 2.42-3.17-.742-.912-1.133-2.458-1.601-4.876zm-.586 9.592c-.234.04-.468 0-.663-.04-.625 1.784-1.444 3.053-2.498 3.766-.156 1.03-.04 1.823.195 1.903 1.327.475 2.576-1.031 3.24-2.101-.39-.714-.39-1.823-.274-3.528zm.274-18.153l.039.08c.741 1.387 1.951 3.725 3.044 3.527.156 0 .274-.119.352-.238.35-.634 0-2.14-.313-3.052a8.893 8.893 0 01-1.678-1.545c-.43-.516-.937-.952-1.444-1.348h-.117c-.078.04.039.317.039.396.234.753.429 1.586.078 2.18zm2.615 5.034a4.55 4.55 0 01-1.015 2.854c.234 1.347.898 4.835 1.99 4.835.82 0 1.523-2.1 1.64-4.716-.859-.595-1.483-2.3-1.717-3.013-.274.08-.586.08-.898.04zm2.068 12.287c-.39-.674-.546-1.704-.624-3.092a1.71 1.71 0 01-.898 0 6.634 6.634 0 01-1.99 3.33c-.313 2.616.078 3.29.195 3.448.078.119.117.08.156.08.937 0 2.576-2.26 3.162-3.766zm4.919-9.592c-.117-.515-.312-1.03-.508-1.546-.078-.237-.195-.475-.273-.713-.039-.08-.078-.198-.117-.278-.039-.118-.156-.198-.234-.198-.078 0-.078.12-.078.159v.793c0 .158 0 .277-.04.436 0 .158-.038.277-.077.436-.04.158-.078.277-.117.436-.04.158-.117.277-.156.396 0 .04-.04.04-.04.08v.039s-.039.04 0 .04c.313 2.14.82 4.597 1.171 4.954.04 0 .04-.04.079-.08.273-.435.429-.95.468-1.466.078-.594.156-1.189.156-1.823a12.2 12.2 0 00-.234-1.665z" fill="#002747" fill-rule="nonzero"/></g></svg>