<svg width="63" height="76" xmlns="http://www.w3.org/2000/svg"><g fill="none" fill-rule="evenodd"><g fill-rule="nonzero"><path d="M23.283 40.286v8.9c0 .75.43 1.422 1.086 1.69.2.083.408.124.614.124.47 0 .93-.208 1.259-.595l5.645-6.628-8.604-3.491z" fill="#5D7BEF"/><path d="M59.572 6.119L6.135 26.523A1.749 1.749 0 005 28.16a1.746 1.746 0 001.147 1.628l14.732 5.501 32.015-20.155-26.41 22.247 21.819 8.148a1.805 1.805 0 001.418-.063c.444-.215.776-.597.921-1.06L61.923 8.263a1.736 1.736 0 00-.494-1.796 1.808 1.808 0 00-1.857-.347z" fill="#CDF4EE"/></g><path d="M23 55c-.68 6.5-9.187 9.832-9.545 5.303-.358-4.53 11.638-1.837 8.865 3.42-2.774 5.257-15.49 6.13-20.32 0" stroke="#05C0A5" stroke-width="2" stroke-linecap="round"/></g></svg>