<svg width="28" height="28" xmlns="http://www.w3.org/2000/svg"><g fill="none" fill-rule="evenodd"><path d="M14 28C6.268 28 0 21.732 0 14S6.268 0 14 0s14 6.268 14 14-6.268 14-14 14z" fill="#F5A623"/><path d="M18.003 15.694a1.47 1.47 0 01-.446 1.043 1.477 1.477 0 01-1.054.423l-3.967-.037.032-2.96 3.967.037a1.48 1.48 0 011.468 1.494m-.37-5.942c.277.283.427.656.423 1.051a1.487 1.487 0 01-1.5 1.466l-3.966-.037.032-2.96 3.967.037c.396.004.767.16 1.044.443M19.016 8.4a3.396 3.396 0 00-2.406-1.022l-.525-.005.027-2.461-1.885-.018-.027 2.461-1.61-.015.027-2.462-.451-.004-1.83-.017-.026 2.373-2.23-.022-.023 2.109 2.23.02-.084 7.675-2.23-.021-.023 2.108 2.23.021-.022 2.003.452.004 1.83.017.022-2.091 1.614.015-.023 2.092 1.877.018.023-2.092.529.005a3.408 3.408 0 002.428-.976 3.39 3.39 0 001.028-2.403 3.39 3.39 0 00-1.013-2.454 3.402 3.402 0 00.091-4.858" fill="#FFF"/></g></svg>