<svg width="45" height="20" fill="none" xmlns="http://www.w3.org/2000/svg"><path d="M7.667 2.667L1.333 6v1.333H14V6L7.667 2.667zm3 6v4.666h2V8.667h-2zm-9.334 8H14v-2H1.333v2zm5.334-8v4.666h2V8.667h-2zm-4 0v4.666h2V8.667h-2z" fill="#5A678A"/><path d="M22.031 10.01H19.87l-.012-.908h1.963c.325 0 .608-.055.85-.165.242-.109.43-.265.562-.468a1.31 1.31 0 00.206-.739c0-.312-.061-.566-.182-.761a1.005 1.005 0 00-.545-.434c-.242-.094-.55-.14-.926-.14h-1.664V14h-1.13V5.469h2.794c.438 0 .828.045 1.172.135.344.085.635.222.873.41.242.183.426.418.55.703.126.285.188.627.188 1.025 0 .352-.09.67-.27.955a2.058 2.058 0 01-.75.692c-.316.18-.687.295-1.112.345l-.405.276zM21.98 14h-2.555l.639-.92h1.916c.359 0 .664-.062.914-.187.253-.125.447-.301.58-.528a1.6 1.6 0 00.199-.814c0-.317-.057-.59-.17-.82a1.175 1.175 0 00-.533-.534c-.242-.125-.555-.187-.938-.187H20.42l.012-.908h2.203l.24.328c.41.035.758.152 1.043.351.285.196.502.446.65.75.153.305.229.64.229 1.008 0 .531-.117.98-.352 1.348-.23.363-.556.64-.978.832-.422.187-.918.281-1.488.281zm8.062-1.084V9.652c0-.25-.05-.466-.152-.65a.997.997 0 00-.446-.434 1.615 1.615 0 00-.738-.152c-.273 0-.514.047-.72.14a1.255 1.255 0 00-.481.37.809.809 0 00-.17.492H26.25c0-.227.059-.451.176-.674a1.97 1.97 0 01.504-.603c.222-.184.488-.329.797-.434a3.14 3.14 0 011.043-.164c.46 0 .867.078 1.218.234.356.157.633.393.832.71.203.312.305.704.305 1.177v2.953c0 .211.018.436.053.674.039.238.095.443.17.615V14h-1.131a2.022 2.022 0 01-.13-.498 4.011 4.011 0 01-.046-.586zm.188-2.76l.011.762h-1.095c-.31 0-.584.025-.827.076-.242.047-.445.12-.609.217a1.03 1.03 0 00-.375.37.978.978 0 00-.129.509c0 .2.045.38.135.545.09.164.224.295.404.392.184.094.408.141.674.141a1.817 1.817 0 001.482-.727c.153-.203.235-.4.247-.591l.462.521a1.575 1.575 0 01-.222.545 2.607 2.607 0 01-1.201 1.025 2.328 2.328 0 01-.926.176c-.43 0-.807-.084-1.131-.252a1.933 1.933 0 01-.75-.674 1.784 1.784 0 01-.264-.955c0-.34.067-.638.2-.896a1.73 1.73 0 01.574-.65c.25-.176.55-.31.902-.399.352-.09.744-.135 1.178-.135h1.26zm3.685-1.142V14H32.83V7.66h1.026l.058 1.354zm-.258 1.576l-.45-.018c.003-.433.067-.834.192-1.2.125-.372.301-.694.528-.968a2.349 2.349 0 011.857-.861c.313 0 .594.043.844.129.25.082.463.215.639.398.18.184.316.422.41.715.093.29.14.643.14 1.06V14h-1.09V9.834c0-.332-.048-.598-.146-.797a.901.901 0 00-.428-.44 1.535 1.535 0 00-.691-.14c-.27 0-.516.057-.738.17-.22.113-.408.27-.569.469a2.36 2.36 0 00-.369.685 2.504 2.504 0 00-.129.809zM40.553 5v9h-1.09V5h1.09zm3.873 2.66l-2.766 2.96-1.547 1.605-.088-1.155 1.108-1.324 1.969-2.086h1.324zm-.99 6.34l-2.262-3.023.562-.967L44.713 14h-1.278z" fill="#4E546C"/></svg>