<svg width="22" height="22" xmlns="http://www.w3.org/2000/svg"><path d="M5.392 8.785a2.496 2.496 0 01-1.708-.718A2.38 2.38 0 013 6.392c0-.615.273-1.23.684-1.708A2.402 2.402 0 015.392 4c.615 0 1.23.273 1.675.684.444.444.718 1.059.718 1.708 0 .615-.274 1.23-.718 1.675-.444.444-1.06.718-1.675.718zm10.56-.718c.445-.444.718-1.06.718-1.675s-.273-1.23-.718-1.708A2.38 2.38 0 0014.278 4c-.615 0-1.265.273-1.709.684a2.402 2.402 0 00-.683 1.708c0 .615.273 1.23.683 1.675.444.444 1.06.718 1.709.718.615 0 1.23-.274 1.674-.718zM7.067 16.61c.444-.445.718-1.06.718-1.675s-.274-1.23-.718-1.709a2.38 2.38 0 00-1.675-.683c-.615 0-1.264.273-1.708.683A2.402 2.402 0 003 14.936c0 .615.273 1.23.684 1.675a2.432 2.432 0 001.708.717c.615 0 1.23-.273 1.675-.717zm8.885 0c.445-.445.718-1.06.718-1.675s-.273-1.23-.718-1.709a2.38 2.38 0 00-1.674-.683c-.615 0-1.265.273-1.709.683a2.402 2.402 0 00-.683 1.709c0 .615.273 1.23.683 1.675.444.444 1.06.717 1.709.717.615 0 1.23-.273 1.674-.717z" fill="#FFF" opacity=".6"/></svg>