<svg xmlns="http://www.w3.org/2000/svg" width="612" height="612" viewBox="0 90.188 612 612"><path fill="#DAE4EA" d="M232.205 619.688c-18.019 0-14.954-6.802-21.17-23.96l-52.98-174.359L565.883 179.42"/><path fill="#4C6884" d="M232.205 619.688c13.903 0 20.043-6.359 27.807-13.903l74.15-72.103-92.494-55.773"/><path fill="#5F7793" d="M241.659 477.922l224.119 165.583c25.577 14.11 44.032 6.803 50.406-23.742l91.228-429.902c9.338-37.446-14.275-54.436-38.745-43.327l-535.69 206.56c-36.565 14.668-36.348 35.069-6.664 44.156l137.471 42.91 318.258-200.785c15.023-9.111 28.815-4.218 17.5 5.83"/></svg>