<svg width="61" height="61" xmlns="http://www.w3.org/2000/svg"><g transform="translate(1 1)" fill="none" fill-rule="evenodd"><path d="M6.897 33.734C1.252 24.561 4.108 12.547 13.278 6.9s21.181-2.79 26.827 6.382a19.507 19.507 0 012.893 10.506C42.65 34.573 33.756 43.105 22.97 43H4.975l1.894-3.218a5.865 5.865 0 00.028-6.047z" stroke="#003945" fill="#CDF4EE" fill-rule="nonzero"/><path d="M54.164 47.93c5.53-8.984 2.725-20.745-6.265-26.27A19.109 19.109 0 0040.432 19c.134.936.196 1.878.19 2.823-.34 10.559-9.058 18.912-19.629 18.81H19C20.559 50.116 28.792 57.06 38.411 57h17.637l-1.856-3.151a5.74 5.74 0 01-.028-5.92z" fill="#05C0A5" fill-rule="nonzero"/><g fill-rule="nonzero"><path d="M55.939 53.746a4.387 4.387 0 010-4.537c5.967-9.701 2.94-22.404-6.76-28.37a20.613 20.613 0 00-6.989-2.702 20.622 20.622 0 00-6.16-11.288 20.427 20.427 0 00-15.838-5.596C8.837 2.143.354 12.068 1.244 23.423c.257 3.29 1.3 6.47 3.043 9.274a4.387 4.387 0 010 4.537l-1.912 3.19a1.374 1.374 0 001.183 2.075h14.628A21.105 21.105 0 0038.81 58.998h17.819a1.375 1.375 0 001.182-2.076l-1.871-3.176zm-17.076 2.502A18.357 18.357 0 0120.99 42.5h.33c11.398.095 20.788-8.927 21.145-20.32v-1.196c9.61 2.256 15.572 11.874 13.316 21.485a17.885 17.885 0 01-2.18 5.283 7.136 7.136 0 000 7.383l.66 1.114H38.864h0z" stroke="#05C0A5" fill="#05C0A5"/><path d="M1.402 41.995c.852-1.383 3.515-5.943 1.84-8.715C-3.079 23.01.124 9.562 10.39 3.242S34.104.123 40.422 10.393a21.828 21.828 0 013.236 11.752C43.256 34.23 33.28 43.785 21.19 43.659H2.435c-1.28-.148-1.625-.703-1.033-1.664z" stroke="#CDF4EE" fill="#CDF4EE"/></g><circle fill="#5A78F0" cx="12.5" cy="22.5" r="2.5"/><circle fill="#5A78F0" cx="22.5" cy="22.5" r="2.5"/><circle fill="#5A78F0" cx="31.5" cy="22.5" r="2.5"/></g></svg>