<svg width="64" height="64" xmlns="http://www.w3.org/2000/svg"><g fill="none"><path d="M13.762 4.472h31.014l10.81 10.905V54.74a4.732 4.732 0 01-4.732 4.732H13.762A4.732 4.732 0 019.03 54.74V9.205a4.732 4.732 0 014.732-4.733z" fill="#CDF4EE"/><path d="M55.587 15.377L44.777 4.472v8.784c.347 1.414 1.225 2.12 2.635 2.12h8.175z" fill="#05C0A5"/><path d="M45.671 38.369h-6.666a.91.91 0 00-.916.902c0 .498.41.902.916.902h6.666a.91.91 0 00.916-.902.91.91 0 00-.916-.902z" stroke="#5A78F0" fill="#5A78F0"/><path d="M19.154 40.173h15.21c.539 0 .976-.404.976-.902s-.437-.902-.976-.902h-15.21c-.539 0-.976.404-.976.902s.437.902.976.902z" stroke="#05C0A5" fill="#05C0A5"/><path d="M18.891 33.369h3.666a.91.91 0 00.917-.903.91.91 0 00-.917-.902h-3.666a.91.91 0 00-.916.902c0 .499.41.903.916.903z" stroke="#5A78F0" fill="#5A78F0"/><path d="M45.409 31.564h-18.21c-.54 0-.976.404-.976.902 0 .499.437.903.975.903h18.21c.54 0 .976-.404.976-.903 0-.498-.437-.902-.975-.902z" stroke="#05C0A5" fill="#05C0A5"/><path d="M45.468 26.809h-3.666a.91.91 0 01-.916-.902.91.91 0 01.916-.902h3.666a.91.91 0 01.916.902.91.91 0 01-.916.902z" stroke="#5A78F0" fill="#5A78F0"/><path d="M18.95 25.005h18.21c.54 0 .976.403.976.902 0 .498-.436.902-.975.902H18.95c-.54 0-.976-.404-.976-.902 0-.499.437-.902.976-.902z" stroke="#05C0A5" fill="#05C0A5"/></g></svg>