<svg width="25" height="25" xmlns="http://www.w3.org/2000/svg"><g transform="translate(1 1)" fill="none" fill-rule="evenodd"><path fill="#FFF" d="M0 5h17v12H0zm1.718-.728L15.799.892v3.38z"/><path d="M.764 18.333A.764.764 0 010 17.57V4.186c0-.357.247-.667.596-.745L15.81.019a.763.763 0 01.932.745v3.075h.828c.422 0 .764.341.764.763V17.57a.764.764 0 01-.764.764H.764zm16.042-6.11V9.95h-3.203a1.14 1.14 0 00-1.139 1.137 1.14 1.14 0 001.14 1.137h3.202zm0-3.8V5.365H1.528v11.44h15.278v-3.054h-3.203a2.669 2.669 0 01-2.666-2.665 2.669 2.669 0 012.666-2.665h3.203zm-1.593-6.704L5.79 3.839h9.423v-2.12zM5.82 7.139c.422 0 .764.343.764.765v6.3a.764.764 0 01-.764.765H3.297a.764.764 0 01-.764-.764V7.904c0-.422.342-.764.764-.764H5.82zm-.764 6.302V8.667H4.06v4.774h.996z" fill="#7F93A3" fill-rule="nonzero"/><circle stroke="#7F93A3" stroke-width="1.6" fill="#FFF" cx="14.667" cy="13.75" r="5.5"/><path d="M18.639 17.722l4.019 4.02" stroke="#7F93A3" stroke-width="1.6" stroke-linecap="round"/></g></svg>