<svg width="17" height="19" xmlns="http://www.w3.org/2000/svg"><path d="M12.558 0H4.472a.698.698 0 00-.706.685v2.967H.706A.698.698 0 000 4.337V18.26c0 .376.318.684.706.684h11.887a.698.698 0 00.706-.684v-3.082h2.942a.698.698 0 00.706-.684V4.28a.662.662 0 00-.2-.48L13.064.205A.695.695 0 0012.558 0zm-.671 17.575H1.412V5.02h2.354v9.473c0 .376.318.684.706.684h7.415v2.397zm-6.709-3.766V1.369h6.12v3.88c0 .377.318.685.706.685h3.531v7.875H5.178zm10.357-9.244h-2.824V1.803l2.824 2.762z" fill="#FFF"/></svg>