<svg version="1.1" id="katman_1" xmlns="http://www.w3.org/2000/svg" x="0" y="0" viewBox="0 0 2000.1 652.9" xml:space="preserve"><style>.st0{fill:#41ac48}.st1{fill:#1d1d1b}</style><path d="M1056.2 626.8v-7c-4.8 5.6-12.3 8.6-20.8 8.6-10.4 0-22.2-7.2-22.2-21.2 0-14.9 11.7-21 22.2-21 8.8 0 16.1 2.8 20.8 8.2v-9.6c0-7.4-6.2-11.9-15-11.9-7.2 0-13.5 2.7-19 8.2l-5.8-9.7c7.4-7.2 16.7-10.4 27-10.4 14.3 0 26.8 6 26.8 23.1v42.6h-14v.1zm0-14.6v-9.8c-3.3-4.4-9.3-6.6-15.3-6.6-7.8 0-13.8 4.6-13.8 11.5 0 7 6 11.6 13.8 11.6 6-.1 11.9-2.3 15.3-6.7zm396.8-17.5c0-19.4 13.7-33.6 33.1-33.6 12.6 0 20 5.3 24.6 11.4l-9.2 8.4c-3.6-5-8.5-7.4-14.7-7.4-11.6 0-19.4 8.8-19.4 21.2 0 12.5 7.8 21.4 19.4 21.4 6.2 0 11.2-2.7 14.7-7.7l9.2 8.6c-4.5 6-11.9 11.4-24.6 11.4-19.4 0-33.1-14.4-33.1-33.7zm68.1 0c0-18.5 12.5-33.6 32.9-33.6s32.9 15.1 32.9 33.6c0 18.3-12.5 33.7-32.9 33.7s-32.9-15.4-32.9-33.7zm51.4 0c0-11.3-6.5-21.2-18.5-21.2-11.8 0-18.5 10-18.5 21.2 0 11.4 6.6 21.4 18.5 21.4 12-.1 18.5-10 18.5-21.4zm108.7 32.1V585c0-6.9-3.1-11.6-10.6-11.6-6.2 0-12.1 4.2-14.9 8.5v44.9h-13.9V585c0-6.9-2.9-11.6-10.5-11.6-6.2 0-11.9 4.4-14.9 8.5v44.9h-13.9v-64.1h13.9v8.6c2.8-3.9 11.2-10.2 21-10.2 9.6 0 15.4 4.8 17.5 11.7 3.6-5.7 12.1-11.7 21.8-11.7 11.7 0 18.5 6.4 18.5 19.4v46.3h-14zm47.3-8.9v33.3h-13.9v-88.5h13.9v8.8c4.8-6.4 12.2-10.4 20.6-10.4 16.6 0 28.4 12.5 28.4 33.6s-11.8 33.7-28.4 33.7c-8.2 0-15.3-3.7-20.6-10.5zm34.6-23.2c0-12.5-7.2-21.2-18.2-21.2-6.5 0-13.3 3.7-16.5 8.5v25.4c3.1 4.8 10 8.8 16.5 8.8 11-.2 18.2-9.1 18.2-21.5zm68.9 32.1v-7c-4.8 5.6-12.3 8.6-20.8 8.6-10.4 0-22.2-7.2-22.2-21.2 0-14.9 11.7-21 22.2-21 8.8 0 16.1 2.8 20.8 8.2v-9.6c0-7.4-6.2-11.9-15-11.9-7.2 0-13.5 2.7-19 8.2l-5.8-9.7c7.4-7.2 16.7-10.4 27-10.4 14.3 0 26.8 6 26.8 23.1v42.6h-14v.1zm0-14.6v-9.8c-3.3-4.4-9.3-6.6-15.3-6.6-7.8 0-13.8 4.6-13.8 11.5 0 7 6 11.6 13.8 11.6 6-.1 12-2.3 15.3-6.7zm76.8 14.6v-40.1c0-10.1-5.2-13.3-13-13.3-7 0-13.1 4.2-16.5 8.5v44.9h-13.9v-64.1h13.9v8.6c4.2-5 12.6-10.2 22.7-10.2 13.8 0 20.7 7.4 20.7 20.6v45.1h-13.9zm32.6 12.6c1.5.7 3.7 1.1 5.3 1.1 4.5 0 7.4-1.3 9.3-5.6l3.2-7.3-26.4-64.9h15l18.7 48.1 18.7-48.1h14.9l-30.9 75.7c-4.4 10.9-11.9 14.3-21.9 14.5-2 0-6-.4-7.8-.9l1.9-12.6zm-781.9-49.6c0-7.8-4.1-10.6-10.5-10.6-6.1 0-10.1 3.3-12.5 6.2v41.5H1116v-64.2h20.5v5.6l-2.5 4.7c3.9-4.5 13.9-11.9 24.7-11.9 14.6 0 21.3 8.5 21.3 20.3v45.5h-20.5v-37.1zm70.1 27.6c-4 4.5-13.5 11.1-24.2 11.1-14.6 0-21.1-8.2-21.1-20.1v-45.7h20.5V600c0 7.7 4 10.4 10.6 10.4 5.8 0 9.8-3.2 12.2-6.2v-41.5h20.5v64.2h-20.5v-4.8l2-4.7zm119.6-56.3c19 0 32.8 14 32.8 35.8v4.4h-44.2l-1.8-2.4c0 .8.1 1.9.4 2.9 1.5 5.8 6.9 10.9 16.2 10.9 5.7 0 12.1-2.3 15.7-5.4l8.6 12.8c-6.4 5.7-17 8.5-26.8 8.5-19.8 0-35.1-12.9-35.1-33.8 0-18.7 14.1-33.7 34.2-33.7zm-13.2 26.8h26.4c-.5-4.5-3.9-11-13.3-11-8.8 0-12.3 6.4-13.1 11zm50.2-25.2h20.5v64.2h-20.5v-64.2zm-87.6 0l-13.8 38.2.5 6-15.8-44.2h-17.4v10.4l21.1 53.8h21.8l25.3-64.2z"/><path class="st0" d="M1384.7 542.9c0-6.5 5.2-11.7 11.7-11.7s11.7 5.2 11.7 11.7-5.2 11.7-11.7 11.7c-6.5 0-11.7-5.2-11.7-11.7zM369 1c-14 5.3-22.2 15.2-24.8 29.9l-1 6.4-83 18.9-82.9 18.9-1.6-2.5c-3.3-5.1-10.4-12-15.1-14.5-18.7-10.1-42.7-2.4-51.7 16.7-2.4 4.9-2.7 7-2.7 16.5 0 9.8.3 11.3 2.8 16.2 1.6 3 4.6 7.2 6.7 9.4l3.9 4.1-37 76.6-36.9 76.7-9-.1c-7.8 0-9.7.3-15.8 3.2-8 3.8-14.1 9.5-18 17-2.7 5-2.9 6.4-2.9 16.8 0 9.8.3 12 2.4 16.2 3.8 7.6 9.9 13.8 17.5 17.5 6.2 3.1 7.7 3.4 16.3 3.4h9.4l35.6 74.1c19.6 40.8 36.1 75.3 36.8 76.7 1 2.4.7 3.1-2.6 6.6-2.1 2.2-4.9 6.3-6.5 9.3-2.6 4.7-2.8 6.3-2.8 16.6 0 9.8.3 11.9 2.4 16.2 12.9 25.7 48.6 28.7 64.7 5.4 2.6-3.7 4.4-5.5 5.5-5.1.9.3 37.6 8.6 81.4 18.6 43.9 10 80.5 18.3 81.4 18.6 1.2.3 2 2.2 2.4 5.9 1.5 11.9 9.9 23.6 20.7 28.6 5.6 2.7 7.3 3 16.6 3 9.5 0 10.9-.3 16.7-3.2 7.8-3.9 14.7-11.4 17.8-19.3 2.8-7.2 3.1-20.1.6-26.6l-1.5-4.3 59.8-47.7c32.9-26.3 62.9-50.1 66.7-53.1l6.9-5.4 7 3.6c9.1 4.5 16.9 5.5 26.1 3.1 17.4-4.4 28-18.2 28-36.3 0-9.1-2.5-16.5-8-23.7-3.3-4.3-10.5-9.3-16.4-11.3l-4.6-1.5v-85.9c0-82.1.1-85.9 1.9-85.9 3.8 0 12.7-5.5 17.6-10.9 9.5-10.4 12.4-25.5 7.3-38.7-2.9-7.8-10.7-16.4-18.3-20.1-5.3-2.6-7-2.9-16.2-2.9-9.6 0-10.8.2-17.1 3.3-3.8 1.9-7.1 3.4-7.4 3.4-.4 0-30.6-23.9-67-53l-66.4-53 1.4-3.4c5.4-13 .7-32.4-10-41.5-7.1-5.9-13-8-23.5-8.3-6.5-.4-11-.1-13.6.8zm-24.1 53.1c.3.4-15.8 13.8-35.7 29.8l-36.3 28.8-33.5-7.6c-56.3-12.8-56.5-12.9-56.5-14.2 0-.8 21.7-6.3 64.7-16 35.5-8.1 71-16.3 79-18.1 15.6-3.8 17.5-4 18.3-2.7zM356 69.8c-.2.8-6.2 13.6-13.3 28.4-9.1 18.8-13.5 27.1-14.6 27-4.2-.1-34.2-7.7-34-8.6.4-1.6 60-48.8 61.2-48.5.6.1.9.9.7 1.7zm116 49.3c56 44.7 66.6 53.6 63.2 53.5-2.9-.1-89.2-20.5-89.9-21.2-1.8-1.8-39.9-82.3-39.4-83.1.3-.4.9-.7 1.3-.5.6.2 29.7 23.3 64.8 51.3zm-98.7-13.4c0 16.4-.2 29.9-.4 29.9-1.3 0-26.7-6.1-27-6.5-.9-.9 24.7-53.2 26-53.2 1.1-.1 1.4 6.1 1.4 29.8zm35.3 5.9c9.5 19.7 17.1 35.7 16.9 35.8-.1.1-8.4-1.6-18.4-3.9l-18.3-4.2v-31.7c0-25 .3-31.7 1.3-31.7.7-.1 9 16 18.5 35.7zM218.2 116c20 4.5 36.9 8.5 37.7 8.8.8.3-4.3 5.1-13.4 12.3l-14.8 11.8-4.1-3.4c-2.3-1.9-13.3-10.6-24.4-19.6-11.2-8.9-20.4-16.6-20.4-17.2 0-.5.7-.9 1.5-.9.9 0 17.9 3.7 37.9 8.2zm-25.5 24.8c18.3 14.6 21.9 17.9 20.8 19-.7.7-5.8 4.8-11.1 9.1-6.8 5.5-10 7.4-10.5 6.5-2.9-5.3-24.5-51.2-24.5-52.2 0-2.3 3-.2 25.3 17.6zm-26.3 17.4l13.6 28.3-3.6 3.1c-2 1.6-8.8 7.1-15 12.1l-11.4 9v-40c0-31.1.3-40.2 1.3-40.6.6-.2 1.3-.4 1.4-.3.1 0 6.3 12.9 13.7 28.4zM301.2 135c11.6 2.7 21.1 4.8 21.2 4.9.3.4-28.9 60.4-29.4 60.4-1.5 0-52.5-41.6-51.8-42.2 5.8-5.7 36.2-28.7 37.4-28.4.8.4 11 2.8 22.6 5.3zm-165.7 41.4l-.1 46.1-35.6 28.4c-19.6 15.5-36.1 28.4-37 28.6-.8.2-1.4-.2-1.4-.8 0-1 55.9-118 67-140.3 7.1-14.2 7.1-14.2 7.1 38zm220.6-28.8l17.2 3.8-.2 37.6-.3 37.7-18.5 4.2-18.5 4.2-14.7-11.8c-8.1-6.5-14.7-12.3-14.7-12.9 0-1.3 31.2-66.5 31.9-66.6.3 0 8.2 1.6 17.8 3.8zm55.8 12.7c12.4 2.9 22.6 5.3 22.8 5.5 1.6 2.1 19.7 41.6 19.1 42-.4.4-14.4 3.8-31.1 7.5-16.7 3.8-31.2 7.1-32.1 7.4-1.8.5-1.9-1.5-1.9-33.5 0-18.7.1-34.1.3-34.1s10.6 2.4 22.9 5.2zm-153.1 33.2c14.8 11.8 27 21.8 27 22.3 0 .4-3.7 8.3-8.1 17.6l-8.2 16.8-16.8 3.9c-9.3 2.1-17.7 3.8-18.9 3.9-1.8 0-3.2-2.2-7.6-11.6-3.1-6.3-10.3-21.3-16.1-33.4l-10.6-21.8 14.1-11.2c13.5-10.9 14.1-11.2 16.2-9.6 1.1 1 14.2 11.4 29 23.1zm253.5-10.3c13.6 3.1 19 4.7 19 5.8s-8.2 3.4-30.4 8.4c-16.7 3.8-30.5 6.9-30.6 6.8-.1-.1-3.8-7.9-8.3-17.3l-8.1-17 19.7 4.4c10.8 2.5 28.2 6.5 38.7 8.9zM202 232.1c7.7 16.1 13.6 29.5 13.2 30.1-.5.4-14.8 3.9-31.8 7.7s-31.5 7.2-32.1 7.4c-1 .4-1.3-4.6-1.3-23.1v-23.6l18.3-14.5c10-8 18.5-14.2 18.9-13.8.4.4 7.1 13.9 14.8 29.8zM535.8 207c-.2.8-10.5 9.6-23 19.5l-22.6 18-5.9-11.6c-3.3-6.5-6.1-12.4-6.2-13-.2-.9 8.3-3.3 27-7.7 30.5-7.2 31.2-7.3 30.7-5.2zm11.8 14.8c-.5 2.3-33.7 70.2-34.3 70.2-.4 0-1.2-1-1.8-2.4-.6-1.2-4.2-8.6-7.9-16.5l-6.7-14.2 24.4-19.5c22.2-17.6 26.9-20.8 26.3-17.6zm-78 16.3c4.2 9 7.7 16.3 7.7 16.5 0 .1-12.4 10.1-27.5 22.1-15.2 12-28.3 22.4-29.2 23.3-1.4 1.2-3.5-.2-16.7-10.7l-15.1-12v-38.6l8-1.8c4.3-1 20.5-4.7 35.7-8.2 15.3-3.6 28.1-6.5 28.5-6.6s4.2 7.1 8.6 16zm-158.3-2.7c3 2.4 4 3.7 3.1 4.2-.7.4-6 1.8-11.6 3-5.7 1.2-11.1 2.5-12 2.7-1.3.4-.6-1.9 3.1-9.8l4.8-10.3 4.1 3.4c2.2 1.9 6.1 4.9 8.5 6.8zM564.8 311c0 66.6-.3 82.9-1.3 83.3-.9.3-7.6-12.6-20.8-40-10.8-22.3-19.8-41.4-19.9-42.2-.5-2.4 38.9-83.8 40.7-83.8 1.1-.1 1.3 14.3 1.3 82.7zm-429.7-30.5c-.8.8-61.9 14.5-62.4 14-1-1.1 3-4.6 31.9-27.7l30.4-24.1.3 18.6c.1 10.2 0 18.9-.2 19.2zm238.2-27c0 8.3-.3 10.6-1.2 10.1-.7-.5-5.8-4.3-11.1-8.5l-9.7-7.7 9.2-2.3c14-3.4 12.8-4.2 12.8 8.4zm-20.7 14.9l20.7 16.5v53l-20.5 16.2c-11.3 9-21.2 16.3-21.9 16.3-2.9 0-50.8-11.3-51.1-12-.1-.4-5.3-11.2-11.4-24l-11.1-23.1 11.2-23.3c6.2-12.8 11.5-23.5 11.9-23.9.6-.6 47.2-11.8 50.2-12 .7-.2 10.6 7.2 22 16.3zm-92.5.7c0 1.3-10.6 23-11.3 23-.3 0-2.7-4.3-5.4-9.6l-4.7-9.6 9.5-2.2c10.7-2.4 11.9-2.7 11.9-1.6zm235 22l9.7 20.1-9.9 20.8c-5.5 11.4-10.4 20.7-10.9 20.5-2-.4-51.9-40.4-51.7-41.2.5-1.6 51.7-41.8 52.4-41.1.3.4 5 9.8 10.4 20.9zm-263.6 2.3c4.3 9.2 7.9 17.1 7.9 17.7 0 2.3-15.9 34.5-17 34.5-1.2 0-67.4-15-70.7-16.1-1.6-.5-1.9-2.3-1.9-18.4v-17.8l10.1-2.3c5.5-1.3 21.6-5 35.7-8.3 14.2-3.2 26.3-6 26.8-6 .7 0 4.7 7.5 9.1 16.7zm-96.2 32.2c-.3.2-34.8-7.4-56.1-12.5-1.3-.3-2.4-1.1-2.4-1.9 0-.9 9.4-3.5 29.1-8l29-6.6.3 14.3c.2 7.9.2 14.5.1 14.7zm270.2-15c.6.6-5.7 6.2-15.4 13.7-1 .7-1.3-2-1.3-13.1v-14.1l8 6.4c4.3 3.5 8.3 6.7 8.7 7.1zm42.2 33.5c15.4 12.3 28.4 22.6 28.8 23.1.9.8-14.1 32.9-15.4 32.9-1 0-67.8-15.2-70.5-16.1-1.6-.5-1.9-2.4-1.9-19.8l.1-19.3 14.6-11.5c8-6.4 15-11.6 15.4-11.6s13.5 10.1 28.9 22.3zm-345-9.9c14.9 3.4 28.1 6.4 29.4 6.7 2.3.5 2.3.7 2.3 19.6v19l-30.9-24.7c-17-13.6-30.9-25.2-30.9-25.7.1-1.6 1.6-1.3 30.1 5.1zm152.3 8.2l5.8 12.1-8.3-1.9c-4.6-1-8.8-2-9.4-2-.5 0-1.6-.4-2.4-.9-1.1-.7-.5-2.8 2.9-10.3 2.5-5.1 4.7-9.4 5-9.4.3 0 3.2 5.6 6.4 12.4zm275.6 22.4c9.2 19.1 16.7 35.4 16.7 36 0 .7-.4 1.3-.9 1.3-1.2 0-49-38-49-39 0-1.1 15.4-33 16-33 .2 0 7.9 15.7 17.2 34.7zm-431.3 6.6l35.1 28.1v46.7c0 33.7-.3 46.6-1.1 46.3-1.4-.5-73-148.8-72.2-149.6.3-.3 1.2-.3 1.9-.1.7.4 17.1 13.3 36.3 28.6zm87.2-18l30 6.9-14.5 30.2c-9.2 19.1-14.9 30.1-15.8 29.8-.7-.2-9.2-6.8-18.8-14.5l-17.5-14v-46.5l3.4.7c1.7.3 16.8 3.7 33.2 7.4zm186.8 15.7v11.2l-10.5-2.5c-5.8-1.4-10.6-2.7-10.8-2.9-.3-.2 20.3-16.9 21.1-17.1.1.1.2 5.2.2 11.3zm-123.7-1.4c8.9 2.1 17 3.9 18.1 4.3 1.2.3 4.7 6.3 10 17.4 4.5 9.4 8.1 17.2 8.1 17.4 0 .5-55 44.7-57.2 46.1-.7.4-7.2-4.1-15.1-10.5l-14-11.1 16.2-33.6c8.9-18.5 16.5-33.7 17-33.7.3.1 7.9 1.8 16.9 3.7zm58 22.3l-8.9 7.1-3.6-7c-1.9-3.8-4.1-8.4-4.8-10.2l-1.3-3.2 13.8 3.1 13.7 3.2-8.9 7zm206.1 6.9c12.7 10.1 22.8 18.8 22.3 19.4-.4.6-11.1-1.3-28.4-5.4-15.2-3.5-28.3-6.6-29-6.8-1.1-.4 10.1-25.6 11.4-25.6.4 0 11.1 8.3 23.7 18.4zm-160.8-5.5c8.6 2 16.8 3.8 18.1 4.1l2.3.5v75l-14.1 3.3c-7.8 1.8-15.8 3.7-17.6 4.1l-3.5.9-7.5-15.6c-4.1-8.6-11.4-23.8-16.3-33.9l-8.8-18.1 14.9-11.9c8.2-6.6 15.3-11.9 15.9-11.9.5-.1 8 1.5 16.6 3.5zm69.7 15.9c17.2 3.9 31.5 7.3 31.7 7.5s-4.2 9.9-9.8 21.4l-10.2 21-22 4.9c-12.1 2.7-22.3 4.8-22.8 4.8s-.8-15-.8-33.5c0-26.6.3-33.5 1.3-33.5.8.2 15.4 3.4 32.6 7.4zm-258.5 15.6c7.2 5.8 13.7 11.1 14.5 11.7 1.1 1.1-.9 6.2-12.4 29.8-7.5 15.6-14.1 28.3-14.7 28.1-1.1-.4-2.3-80-1.1-80 .3 0 6.5 4.7 13.7 10.4zm337.5 2.5c16.2 3.7 29.7 6.7 29.9 6.7s.4.7.4 1.5-.2 1.5-.4 1.5c-.7 0-73 16.5-74.9 17.1-1 .3-1.9.1-1.9-.4 0-1.9 15.6-33.2 16.6-33.2.4.1 14.1 3.1 30.3 6.8zm-193.6 27c7.7 16.1 13.6 29.5 13.2 30.1-.5.4-10.7 3-22.6 5.7l-21.6 4.9-18.1-14.3c-10-7.8-18.1-14.6-18-15 .4-1.4 51.7-41.8 52.4-41.2.3.4 7 13.9 14.7 29.8zM214 463c1.2.9-45 38-46.3 37.2-.6-.4 4.2-11.7 11.8-27.7l13-26.9 10.3 8.3c5.8 4.6 10.8 8.7 11.2 9.1zm320.8-9.7c-5.7 5.6-128.2 102.1-128.9 101.4-.6-.6 37.3-81.5 39.3-83.7 1.2-1.3 90.2-21.1 90.6-20.1.3.5-.2 1.5-1 2.4zm-292.1 32.4c7.9 6.3 14.3 11.6 14.1 11.7-.2.2-17 4.1-37.4 8.8s-37.9 8.6-38.9 9c-5.4 1.4.7-4.4 22.4-21.8 13.1-10.4 24.1-18.9 24.5-19 .4-.1 7.3 5 15.3 11.3zm175.5 5.2c-23.3 48.6-27.5 56.7-28.4 55.8-.7-.7-.9-12.5-.8-32.3l.3-31.2 16.5-3.9c9.1-2.1 17.3-3.8 18.2-3.9 1.3-.1 0 3.4-5.8 15.5zm-46 55.8c-.8.8-1.3.8-1.5 0-.3-.6-6-12.6-12.8-26.6-6.8-14.1-12.4-25.8-12.4-26.3s6.2-2.2 13.7-3.8l13.6-3 .3 29.2c.2 21.1-.1 29.8-.9 30.5zm-29.3-21.9c15.8 32.8 14.4 29.8 12.6 29.8s-62.9-48.4-62.1-49.1c.4-.4 32.9-8.2 35.1-8.4.6-.1 7.1 12.4 14.4 27.7zM309.4 539c19.8 15.8 35.6 29.1 35.2 29.7-.4.7-29-5.4-78.9-16.8-43-9.8-79.3-18.1-80.5-18.4-6.8-1.6-1-3.5 40.7-13.1 23.6-5.5 44-9.9 45.2-10 1.5-.1 14 9.3 38.3 28.6z"/><path class="st1" d="M1568.1 149.4l-2.6 2.5v239.9l2.4 2.8c3.3 3.8 10.5 3.8 13.9-.1l2.3-2.7V151.9l-2.6-2.5c-3.5-3.6-9.9-3.6-13.4 0z"/><path class="st0" d="M931 151.9c-11.1 3.7-20.8 13.6-24.1 24.7-2.5 8.5-1.4 20.6 2.3 28.2 3.7 7.5 12.1 15.4 19.1 17.9l5 1.9.1 81.8c0 60.5.3 82.8 1.2 85.5 1.4 4.3 6.4 6.5 11.4 5 6.7-2 6.3 4.3 6.6-88.4.2-79.3.3-84.4 2.1-84.4 3.2 0 12.1-6 17-11.3 7-7.8 9.3-14.6 8.8-26.8-.5-11.4-3.2-17.8-10.5-25.1-9.6-9.7-25.7-13.4-39-9z"/><path class="st1" d="M785 224.1c-25.4 3.2-44 14.1-52.1 30.7l-3.9 7.8V276c0 12 .3 14 2.4 18.2 6.9 13.9 22 20.9 50.7 23.5 6.5.6 16.1 1.1 21.1 1.1 19.9 0 39.2 4.1 47.6 10.2 9.7 7 10.3 25.5 1.2 37s-33.4 17.9-59.9 15.5c-20.5-1.8-36.3-7.6-47.6-17.7-5.4-4.7-6.6-5.4-10.6-5.4-5.7 0-8.4 2.9-8.4 9.1 0 3.8.6 4.8 6 10 6.4 6.2 18.1 12.9 29 16.4 11.8 3.9 24.9 5.6 44.3 5.5 27.8-.1 39.9-3 52.8-12.7 15.9-11.9 22.4-28.1 19.3-47.8-2.2-14.1-9.3-23.5-22.1-29.5-10.5-4.8-22.9-6.9-52.5-8.5-28.2-1.5-35.2-2.8-44.8-7.5-7.9-3.9-10.6-9.2-10-19.3.6-11.4 4.7-17.6 15.6-23.7 12.7-7 18.6-8.2 38.1-8.2 15.4 0 18.4.3 25.2 2.4 9.9 3.2 16.9 6.7 22.6 11.4 6.1 5 8.4 6.3 12.4 6.3 7.3 0 10.9-9.7 6-16-5.9-7.5-25.5-17.3-41.5-20.6-9.8-2-31.2-2.8-40.9-1.6zm294-.4c-7.1 1.2-15.6 3.8-21.1 6.6-6.5 3.3-16.3 11.7-20.8 17.9l-2.9 4V243c0-11.5-1.9-16-7.2-17.2-2.3-.6-4.6-.5-6.5.2-6 2.3-5.9 1-5.9 85.6 0 85.3-.1 83.8 6.1 85 3.8.8 3.6.8 7.4 0 6-1.1 6.1-2.5 6.1-54.7 0-50.7.4-55.6 5.8-68.9 3-7.4 9.7-16.7 15.3-21.3 2.3-1.8 7.1-4.6 10.7-6.4 5.6-2.6 8.1-3.2 16.8-3.6 21.9-1 35.9 6.3 44 22.8 6.6 13.5 6.6 13.5 7.2 73.5.7 60 .3 57 6.8 58.8 3.8 1.1 9.5-.3 10.7-2.7.5-.9 1.1-24 1.4-51.2.5-53.1.8-55.8 6.4-69.6 3.1-7.7 9.7-16.9 15.4-21.6 2.3-1.8 7.1-4.6 10.7-6.4 5.9-2.8 8.1-3.2 17.7-3.6 9.2-.4 12.3-.1 18.1 1.6 12.6 3.8 22.3 13.2 27 25.5 4.7 12.5 5.3 20.2 5.3 73.1v49.7l2.4 2.7c3.9 4.6 14.4 3.4 15.6-1.9.4-1.3.5-27.8.3-58.9-.4-54.9-.4-56.8-2.7-64.9-8.1-28.9-25.5-43.3-55-45.4-28-1.9-52.2 9.2-64.1 29.3-1.6 2.9-3.3 5.3-3.6 5.3s-1.9-2.6-3.5-5.8c-9.5-18-26.8-28-50-28.7-5.9.1-12.1.2-13.9.4zm330.6.5c-19 2.6-40.3 14.9-50.8 29.5l-3.2 4.3-.4-13.9c-.3-12.8-.5-14-2.7-16.2-3.3-3.3-10.5-3.3-13.8 0l-2.4 2.4V458l2.9 2.5c3.8 3.3 9 3.3 12.8 0l2.9-2.5.3-46.5.3-46.4 3.9 4.9c5.3 6.6 11.2 11.8 19.7 17.4 14.5 9.4 24.8 11.9 47.9 11.9 17.8.1 26.3-1.6 38.8-8 22.6-11.3 35.1-26.3 42.7-51.4 2.6-8.6 2.8-10.5 2.8-28.3 0-21.3-1-27.6-7.2-41-10.3-22.4-29.3-38.4-53.4-44.6-9.6-2.4-30.3-3.4-41.1-1.8zm33.8 19.4c22 5.7 39 21.6 45.8 43.2 7 22.1 3.6 48.6-8.3 66.5-7.9 11.9-18.8 20.1-33.2 24.8-7.4 2.5-10 2.8-22.8 2.8-12.4.1-15.5-.2-22.1-2.3-21.4-6.7-36.7-21.4-43.8-42.5-4.1-12.4-4.8-30.7-1.6-43.1 6.3-25.2 23.5-43 47.7-49.4 10.5-2.6 27.7-2.7 38.3 0zm262.3-19.5c-26.4 4.7-49.8 21.7-60.4 43.8-7.8 16.1-9.3 22.9-9.3 43.8.1 20.9 1.3 27.7 7.7 40.7 13.8 28.1 37.5 43.7 71.7 46.8 11.5 1.1 26.3.1 36.9-2.7 18.4-4.7 43.7-22.2 46.1-32.1.9-3.3-1-9.3-3.3-10.5-1-.5-3.6-1-5.8-1-3.3 0-4.8.9-12.1 8-9.5 9.2-16.2 13.3-27.9 17.3-7.5 2.7-9.6 2.9-23.2 3-17.1 0-23.6-1.3-36-7.4-11.2-5.5-22-16.4-27.6-28.1-3.6-7.6-7.4-20.5-7.4-25.1 0-1.4 8.5-1.6 73.9-1.9 59.1-.2 74.3-.6 76.2-1.6 4.1-2.4 5.7-7.8 4.8-17.1-3.2-37.1-26.3-64.7-61.8-73.7-9.4-2.6-33.6-3.8-42.5-2.2zm37.3 19.5c21.6 5.5 38.3 21.1 45.2 42.2 1.4 4.2 2.8 9.3 3.2 11l.6 3.4h-136.8l1.5-7c6.1-27.1 24.9-45.1 53.3-51.1 6.5-1.1 25.6-.4 33 1.5zm101.5-17.1c-1.4.7-3.2 2.6-3.9 4.2-3.1 6.2-2.2 7.5 32.2 44.9l32.3 35.3-16.8 18.1c-52.8 57-50 53.7-50 58.6 0 2.5.5 5.4 1 6.4 1.5 2.8 7.7 4.3 11.3 2.8 1.5-.7 17.3-17.4 35-37.1s32.5-35.6 32.9-35.5c.3.2 14.8 16.1 32.1 35.3 17.2 19.3 32.1 35.6 33 36.4.9.7 3.6 1.3 6 1.3 6-.1 9.2-3.3 9.2-9.1 0-5.4 2.9-1.9-36.9-45.1l-30.3-32.7 4.1-4.3c2.2-2.3 16.9-18.2 32.5-35.4 27.8-30.6 28.4-31.3 28.4-35.5-.1-6.8-4.5-10.7-10.8-9.6-2.9.6-8.2 6.1-35 36.1-17.3 19.6-31.9 35.5-32.3 35.5s-14.6-15.5-31.5-34.5-31.6-35.2-32.8-36c-2.4-1.8-6.3-1.9-9.7-.1z"/></svg>