<svg width="63" height="76" xmlns="http://www.w3.org/2000/svg"><g transform="translate(3 2)" fill="none" fill-rule="evenodd"><path d="M29.402 11.813C15.782 16.92 3.343 9.49.306 25.923c-3.038 16.435 17.45 17.013 22.74 8.636 1.415-2.536 6.343-9.56 9.613-18.506.365-.997.43-1.582-.603-2.614-1.034-1.033-1.585-2.02-2.654-1.626z" fill="#05C0A5"/><text font-family="Menlo-Regular, Menlo" font-size="15" fill="#FFF"><tspan x="9.315" y="30.432">$</tspan></text><path d="M31.19 44.852c-.897 1.167-2.196 2.551-3.897 4.15-3.315 3.12-7.035 3.802-11.16 2.048-3.761-2.157-6.046-3.672-6.853-4.544-1.21-1.308-.477-5.032 3.258-3.711 3.735 1.32 7.271 5.287 10.045.133a99.765 99.765 0 002.826-5.64l-.053-.067 1.446-3.19c.04-.098.078-.197.115-.295l.012.016 6.361-14.027a3 3 0 013.757-1.58c.75.271 1.44.408 2.071.408 1.757 0 3.394.823 4.442 2.193h3.158a2.305 2.305 0 110 4.61h-.556l1.428 2.606a2 2 0 002.419.925l2.325-.82c2.128-.52 3.44-.059 3.935 1.384.496 1.443-.161 2.68-1.972 3.71l-7.349 2.448a2 2 0 01-2.37-.909l-2.89-5.08a1 1 0 00-1.751.021c-1.053 1.961-1.748 3.477-2.086 4.547-.635 2.01-1.403 3.18-.645 5.274.759 2.095 3.64 5.39 6.014 9.554 1.583 2.776 3.513 6.643 5.79 11.6 1.29 3.41.964 5.535-.98 6.377-1.943.842-3.547-.02-4.81-2.586-.752-2.208-2.418-5.371-4.998-9.49-1.648-2.628-3.991-5.984-7.032-10.065zm10.878-27.564a8.644 8.644 0 110-17.288 8.644 8.644 0 010 17.288z" fill="#CDF4EE"/><ellipse fill="#5A78F0" cx="42" cy="70" rx="10" ry="2"/></g></svg>