<svg version="1.1" id="Layer_1" xmlns="http://www.w3.org/2000/svg" x="0" y="0" viewBox="0 0 48 46" xml:space="preserve"><style>.st0{fill:#fff;stroke:#fff;stroke-width:1.2;stroke-miterlimit:10}</style><path class="st0" d="M40.2 19.4H38c-.3-1.3-.9-2.6-1.5-3.7l1.6-1.6c.7-.7.7-1.8 0-2.6L35.5 9c-.3-.3-.8-.5-1.3-.5s-.9.2-1.3.5l-1.6 1.6c-1.2-.7-2.4-1.2-3.7-1.5V6.8c0-1-.8-1.8-1.8-1.8h-3.6c-1 0-1.8.8-1.8 1.8V9c-1.3.3-2.6.9-3.7 1.5L15.1 9c-.3-.3-.8-.5-1.3-.5s-.9.2-1.3.5L10 11.5c-.7.7-.7 1.8 0 2.6l1.6 1.6c-.7 1.2-1.2 2.4-1.5 3.7H7.8c-1 0-1.8.8-1.8 1.8v3.6c0 1 .8 1.8 1.8 1.8H10c.3 1.3.9 2.6 1.5 3.7L10 31.9c-.7.7-.7 1.8 0 2.6l2.6 2.6c.4.4.8.5 1.3.5s.9-.2 1.3-.5l1.6-1.6c1.2.7 2.4 1.2 3.7 1.5v2.3c0 1 .8 1.8 1.8 1.8h3.6c1 0 1.8-.8 1.8-1.8V37c1.3-.3 2.6-.9 3.7-1.5l1.6 1.6c.4.4.8.5 1.3.5s.9-.2 1.3-.5l2.6-2.6c.7-.7.7-1.8 0-2.6l-1.6-1.6c.7-1.2 1.2-2.4 1.5-3.7h2.3c1 0 1.8-.8 1.8-1.8v-3.6c-.2-1-1-1.8-2-1.8zm0 5.4h-3.8c-.3 2.1-1.1 4.1-2.4 5.7l2.7 2.7-2.6 2.6-2.7-2.7c-1.7 1.2-3.6 2.1-5.7 2.4v3.8h-3.6v-3.8c-2.1-.3-4.1-1.1-5.7-2.4l-2.7 2.7-2.6-2.6 2.7-2.7c-1.2-1.7-2.1-3.6-2.4-5.7H7.8v-3.6h3.8c.3-2.1 1.1-4.1 2.4-5.7l-2.7-2.7 2.6-2.6 2.7 2.7c1.7-1.2 3.6-2.1 5.7-2.4V6.8h3.6v3.8c2.1.3 4.1 1.1 5.7 2.4l2.7-2.7 2.6 2.6-2.7 2.7c1.2 1.7 2.1 3.6 2.4 5.7h3.8v3.5z"/><path class="st0" d="M24 15.1c-4.4 0-7.9 3.5-7.9 7.9s3.5 7.9 7.9 7.9 7.9-3.5 7.9-7.9-3.5-7.9-7.9-7.9zm0 14.2c-3.5 0-6.3-2.8-6.3-6.3s2.8-6.3 6.3-6.3 6.3 2.8 6.3 6.3-2.8 6.3-6.3 6.3z"/></svg>