<svg width="140" height="31" fill="none" xmlns="http://www.w3.org/2000/svg"><path d="M128.225 23.298l-5.054-11.6h3.389l3.447 8.308 3.989-8.309h3.331l-7.862 15.978h-3.37l2.13-4.377zm-12.278-2.402c.29-.077.581-.174.852-.329.252-.135.504-.31.717-.503a3.17 3.17 0 00.561-.678c.155-.271.291-.562.368-.852.097-.33.136-.659.136-1.007 0-.349-.039-.678-.136-1.007a3.638 3.638 0 00-.368-.853 3.175 3.175 0 00-.561-.677 3.67 3.67 0 00-.717-.504 4.496 4.496 0 00-.852-.31 3.168 3.168 0 00-.949-.097c-.31 0-.639.04-.949.097a3.49 3.49 0 00-.852.31c-.271.136-.504.31-.717.504a3.175 3.175 0 00-.561.677 3.638 3.638 0 00-.368.853 3.593 3.593 0 00-.136 1.007c0 .329.039.677.136 1.007.077.29.213.58.368.852.155.252.348.484.561.678.213.193.465.368.717.503.271.136.542.252.852.33.31.077.62.116.949.096.31.02.62-.02.949-.097zm-3.428 2.595a5.868 5.868 0 01-1.491-.6 5.559 5.559 0 01-2.169-2.169 5.892 5.892 0 01-.601-1.491 7.247 7.247 0 010-3.409 5.89 5.89 0 01.601-1.49c.503-.911 1.259-1.647 2.169-2.17a6.672 6.672 0 011.491-.6 7.206 7.206 0 012.634-.155 5.8 5.8 0 01.833.174c.251.078.503.155.736.271.232.097.445.213.658.349.194.116.387.271.542.426.155.155.31.31.426.484v-1.394h3.215v11.658h-3.215v-1.394a4.34 4.34 0 01-1.626 1.259c-.368.174-.756.29-1.162.348-.446.078-.911.136-1.356.116a6.285 6.285 0 01-1.685-.213zm-11.659-8.83c.465 0 .93-.04 1.375-.156a2.45 2.45 0 00.949-.484 1.92 1.92 0 00.562-.794c.116-.348.194-.716.174-1.084 0-.368-.058-.736-.174-1.085a1.86 1.86 0 00-.562-.774 2.413 2.413 0 00-.949-.465 4.686 4.686 0 00-1.375-.155h-3.156v4.996h3.156zm-6.487-7.747h6.817a8.867 8.867 0 012.769.387c.717.213 1.375.6 1.937 1.085a4.494 4.494 0 011.142 1.665c.252.678.388 1.395.368 2.111a5.87 5.87 0 01-.368 2.092 4.495 4.495 0 01-1.142 1.665 5.052 5.052 0 01-1.937 1.085 8.95 8.95 0 01-2.769.387h-3.467v5.984h-3.33l-.02-16.461zM80.1 11.697h3.195v1.395c.194-.271.426-.523.697-.717.271-.213.581-.407.91-.542a5.414 5.414 0 011.124-.349 7.182 7.182 0 011.297-.116 5.231 5.231 0 011.976.33 4.298 4.298 0 011.51.968c.426.445.736.987.93 1.568a6.4 6.4 0 01.33 2.092v7.05h-3.196v-6.217c0-.446-.059-.91-.194-1.337a2.826 2.826 0 00-.542-.968 2.227 2.227 0 00-.872-.58 3.79 3.79 0 00-2.362 0c-.33.115-.64.328-.872.58-.252.29-.426.62-.542.968a4.452 4.452 0 00-.194 1.337v6.216H80.12l-.02-11.678zm-7.863 9.16c.31-.077.6-.174.871-.329.271-.135.504-.31.717-.522a3.75 3.75 0 00.542-.698c.155-.27.271-.542.33-.832a4.094 4.094 0 000-1.937 3.115 3.115 0 00-.872-1.53 3.086 3.086 0 00-.717-.523c-.27-.155-.58-.252-.871-.33a4.465 4.465 0 00-2.014 0c-.31.078-.6.175-.872.33-.27.136-.503.31-.716.523a3.75 3.75 0 00-.543.697 3.772 3.772 0 00-.329 2.789c.078.29.194.58.33.833.135.252.329.484.542.697.213.213.445.387.716.523.271.135.562.252.872.329.329.078.658.116 1.007.116a3.51 3.51 0 001.007-.135zm-2.886 2.634a7.12 7.12 0 01-1.665-.6 6.597 6.597 0 01-1.375-.93 5.223 5.223 0 01-1.027-1.239 6.036 6.036 0 01-.658-1.491 6.366 6.366 0 010-3.409 6.034 6.034 0 01.658-1.49 5.9 5.9 0 012.402-2.17 7.12 7.12 0 011.665-.6 8.29 8.29 0 013.777 0c.58.135 1.123.329 1.646.6a6.01 6.01 0 011.375.95 5.8 5.8 0 011.046 1.239c.29.464.523.968.658 1.49a6.364 6.364 0 010 3.41 5.616 5.616 0 01-1.704 2.73 6.13 6.13 0 01-1.375.93 7.303 7.303 0 01-1.646.6 8.569 8.569 0 01-3.777-.02zm-12.433-2.633c.31-.078.6-.175.871-.33.272-.135.504-.31.717-.522.213-.213.387-.446.542-.698.155-.27.271-.542.33-.832a4.091 4.091 0 000-1.937 3.114 3.114 0 00-.872-1.53 3.087 3.087 0 00-.717-.523c-.27-.155-.58-.252-.871-.33a4.463 4.463 0 00-2.014 0 3.406 3.406 0 00-1.588.853c-.213.194-.388.445-.542.697a4.374 4.374 0 00-.33.833c-.077.31-.135.639-.116.968 0 .33.039.659.116.969.078.29.194.58.33.832.135.252.329.485.542.698.213.213.445.387.716.522.272.136.562.252.872.33a4.463 4.463 0 002.014 0zm-2.905 2.633a7.122 7.122 0 01-1.666-.6 6.6 6.6 0 01-1.375-.93 5.223 5.223 0 01-1.026-1.239 6.036 6.036 0 01-.658-1.491 6.366 6.366 0 010-3.409 6.034 6.034 0 01.658-1.49 6.36 6.36 0 011.026-1.24 6.205 6.205 0 011.375-.95 7.126 7.126 0 011.666-.6 8.87 8.87 0 013.776 0c.581.136 1.124.33 1.647.6.503.253.949.562 1.375.95a5.8 5.8 0 011.045 1.24c.29.464.523.967.659 1.49a6.364 6.364 0 010 3.409 5.615 5.615 0 01-1.704 2.73 6.125 6.125 0 01-1.375.93 7.3 7.3 0 01-1.647.6 8.29 8.29 0 01-3.776 0zM28.837 6.914h3.37l5.732 8.773 5.771-8.773h3.35v16.461h-3.33v-11.29l-4.765 7.281h-2.033l-4.764-7.281v11.29h-3.331V6.914z" fill="#000"/><path d="M21.168 9.858a3.351 3.351 0 000-6.701 3.351 3.351 0 000 6.7zM10.865 24.983a8.182 8.182 0 01-8.192-8.192 8.183 8.183 0 018.192-8.192 8.182 8.182 0 018.192 8.192 8.182 8.182 0 01-8.192 8.192z" fill="#7D00FF"/></svg>