<svg width="81" height="81" fill="none" xmlns="http://www.w3.org/2000/svg"><path fill-rule="evenodd" clip-rule="evenodd" d="M17.006 17.006A10.262 10.262 0 0124.262 14H67.33v7.874a7.377 7.377 0 01-7.377 7.376H39.705a10.263 10.263 0 00-10.263 10.263v2.611a10.262 10.262 0 0010.263 10.262h20.248a7.376 7.376 0 017.377 7.377v7.567H24.262A10.263 10.263 0 0114 57.068V24.263c0-2.722 1.081-5.332 3.006-7.257zm23.142 16.536h20.768a6.414 6.414 0 016.413 6.414v1.726a6.414 6.414 0 01-6.413 6.413H40.148a6.414 6.414 0 01-6.414-6.413v-1.726a6.414 6.414 0 016.414-6.414z" fill="url(#paint0_linear_287_2359)"/><defs><linearGradient id="paint0_linear_287_2359" x1="19.36" y1="14" x2="56.77" y2="69.8" gradientUnits="userSpaceOnUse"><stop stop-color="#C549FF"/><stop offset="1" stop-color="#654BFF"/></linearGradient></defs></svg>