<svg width="140" height="45" fill="none" xmlns="http://www.w3.org/2000/svg"><path d="M73.363 39.638v-.482c-.33.386-.847.592-1.432.592-.716 0-1.528-.495-1.528-1.46 0-1.025.805-1.445 1.528-1.445.606 0 1.108.193 1.432.565v-.661c0-.51-.427-.82-1.033-.82-.495 0-.929.187-1.308.565l-.399-.668c.51-.495 1.15-.716 1.859-.716.984 0 1.845.413 1.845 1.59v2.933h-.964v.007zm0-1.005v-.675c-.227-.302-.64-.454-1.053-.454-.537 0-.95.317-.95.792 0 .482.413.798.95.798.413-.007.819-.158 1.053-.461zm27.316-1.205c0-1.335.943-2.313 2.278-2.313.868 0 1.377.365 1.694.785l-.634.578c-.247-.344-.585-.51-1.011-.51-.799 0-1.336.607-1.336 1.46 0 .86.537 1.474 1.336 1.474.426 0 .771-.186 1.011-.53l.634.592c-.31.413-.819.784-1.694.784-1.335 0-2.278-.991-2.278-2.32zm4.688 0c0-1.273.86-2.313 2.265-2.313 1.404 0 2.264 1.04 2.264 2.313 0 1.26-.86 2.32-2.264 2.32-1.405 0-2.265-1.06-2.265-2.32zm3.538 0c0-.778-.447-1.46-1.273-1.46-.813 0-1.274.69-1.274 1.46 0 .785.454 1.474 1.274 1.474.826-.007 1.273-.689 1.273-1.474zm7.483 2.21v-2.877c0-.475-.213-.799-.73-.799-.427 0-.833.29-1.025.585v3.091h-.957v-2.877c0-.475-.2-.799-.723-.799-.427 0-.819.303-1.026.585v3.091h-.957v-4.413h.957v.593c.193-.269.771-.703 1.446-.703.661 0 1.06.33 1.204.806.248-.393.833-.806 1.501-.806.806 0 1.274.44 1.274 1.336v3.187h-.964zm3.256-.613v2.293h-.957v-6.093h.957v.606c.331-.44.84-.716 1.418-.716 1.143 0 1.955.86 1.955 2.313 0 1.453-.812 2.32-1.955 2.32-.564 0-1.053-.255-1.418-.723zm2.382-1.597c0-.86-.496-1.46-1.253-1.46-.447 0-.915.256-1.136.586v1.749c.214.33.689.605 1.136.605.757-.013 1.253-.626 1.253-1.48zm4.743 2.21v-.482c-.33.386-.847.592-1.432.592-.716 0-1.528-.495-1.528-1.46 0-1.025.805-1.445 1.528-1.445.606 0 1.108.193 1.432.565v-.661c0-.51-.427-.82-1.033-.82-.495 0-.929.187-1.308.565l-.399-.668c.51-.495 1.15-.716 1.859-.716.984 0 1.845.413 1.845 1.59v2.933h-.964v.007zm0-1.005v-.675c-.227-.302-.64-.454-1.053-.454-.537 0-.95.317-.95.792 0 .482.413.798.95.798.413-.007.826-.158 1.053-.461zm5.287 1.005v-2.76c0-.696-.358-.916-.895-.916-.482 0-.902.29-1.136.585v3.091h-.957v-4.413h.957v.593c.289-.345.868-.703 1.563-.703.95 0 1.425.51 1.425 1.418v3.105h-.957zm2.244.867a.966.966 0 00.365.076c.31 0 .51-.09.64-.385l.221-.503-1.818-4.468h1.033l1.287 3.312 1.287-3.312h1.026l-2.127 5.212c-.303.75-.819.984-1.508.998-.137 0-.413-.028-.537-.062l.131-.868zm-53.826-3.414c0-.537-.282-.73-.723-.73-.42 0-.695.228-.86.427v2.857h-1.412v-4.42h1.412v.386l-.172.324c.268-.31.957-.82 1.7-.82 1.005 0 1.466.585 1.466 1.398v3.132h-1.411v-2.554zm4.826 1.9c-.276.31-.93.764-1.666.764-1.005 0-1.453-.564-1.453-1.384v-3.146h1.411v2.568c0 .53.276.716.73.716.4 0 .675-.22.84-.427v-2.857h1.411v4.42h-1.411v-.33l.138-.324zm8.233-3.876c1.308 0 2.258.964 2.258 2.465v.303h-3.043l-.124-.166c0 .056.007.131.028.2.103.4.475.75 1.115.75.392 0 .833-.158 1.08-.371l.593.88c-.44.393-1.17.586-1.845.586-1.363 0-2.416-.888-2.416-2.327 0-1.287.97-2.32 2.354-2.32zm-.909 1.845h1.818c-.035-.31-.269-.757-.916-.757-.606 0-.847.44-.902.757zm3.456-1.735h1.411v4.42h-1.41v-4.42zm-6.03 0l-.95 2.63.034.413-1.088-3.043H86.85v.716l1.452 3.704h1.5l1.742-4.42H90.05z" fill="#000"/><path d="M95.977 36.891c0-.447.358-.805.805-.805.448 0 .806.358.806.805a.802.802 0 01-.806.806.802.802 0 01-.805-.806zM26.056 1.033c-.964.364-1.528 1.046-1.707 2.058l-.069.44-5.714 1.302-5.707 1.3-.11-.171c-.227-.352-.716-.827-1.04-.999-1.287-.695-2.939-.165-3.558 1.15-.165.337-.186.482-.186 1.136 0 .675.02.778.193 1.115.11.207.316.496.46.647l.27.282-2.548 5.274-2.54 5.28-.62-.007c-.536 0-.667.02-1.087.22a2.64 2.64 0 00-1.24 1.17c-.185.345-.199.44-.199 1.157 0 .674.02.826.165 1.115.262.523.682.95 1.205 1.205.427.213.53.234 1.122.234h.647l2.45 5.1c1.35 2.81 2.486 5.184 2.534 5.28.069.166.048.214-.179.455a3.412 3.412 0 00-.447.64c-.18.324-.193.434-.193 1.143 0 .675.02.82.165 1.115.888 1.77 3.346 1.976 4.454.372.18-.255.303-.379.379-.351.062.02 2.588.592 5.603 1.28 3.022.689 5.542 1.26 5.604 1.28.082.021.138.152.165.407.103.82.682 1.625 1.425 1.969.386.186.503.206 1.143.206.654 0 .75-.02 1.15-.22a2.645 2.645 0 001.225-1.328c.193-.496.213-1.384.041-1.832l-.103-.296 4.116-3.283c2.265-1.81 4.33-3.45 4.592-3.656l.475-.372.482.248c.627.31 1.163.379 1.797.214 1.198-.303 1.927-1.253 1.927-2.5a2.54 2.54 0 00-.55-1.63c-.228-.297-.723-.64-1.13-.779l-.316-.103v-5.913c0-5.652.007-5.914.13-5.914.262 0 .875-.378 1.212-.75a2.586 2.586 0 00.503-2.664c-.2-.537-.737-1.129-1.26-1.384-.365-.179-.482-.2-1.115-.2-.661 0-.744.014-1.177.228-.262.13-.49.234-.51.234-.027 0-2.106-1.645-4.612-3.649L29.202 4.64l.096-.234c.372-.895.049-2.23-.688-2.857-.489-.406-.895-.55-1.618-.571-.447-.028-.757-.007-.936.055zm-1.659 3.655c.02.028-1.088.95-2.458 2.051l-2.498 1.983-2.307-.523c-3.875-.881-3.89-.888-3.89-.978 0-.055 1.495-.433 4.455-1.101 2.444-.558 4.887-1.122 5.438-1.246 1.074-.262 1.205-.275 1.26-.186zm.764 1.08c-.014.056-.427.937-.916 1.956-.626 1.294-.929 1.865-1.005 1.859-.289-.007-2.354-.53-2.34-.592.027-.11 4.13-3.36 4.213-3.34.041.008.062.063.048.118zm7.986 3.395c3.855 3.077 4.584 3.69 4.35 3.683-.2-.007-6.14-1.412-6.189-1.46-.123-.124-2.746-5.665-2.712-5.72.02-.028.062-.049.09-.035.041.014 2.044 1.604 4.46 3.532zm-6.795-.923c0 1.13-.014 2.059-.027 2.059-.09 0-1.838-.42-1.86-.448-.061-.062 1.701-3.662 1.79-3.662.076-.007.097.42.097 2.051zm2.43.406c.654 1.356 1.177 2.458 1.163 2.465a22.6 22.6 0 01-1.266-.269l-1.26-.289V8.371c0-1.721.02-2.182.09-2.182.048-.007.62 1.101 1.273 2.457zm-13.107.303c1.377.31 2.54.585 2.595.606.055.02-.296.351-.922.847l-1.02.812-.281-.234c-.159-.13-.916-.73-1.68-1.35-.771-.612-1.404-1.142-1.404-1.183 0-.035.048-.062.103-.062.062 0 1.232.254 2.609.564zm-1.756 1.707c1.26 1.005 1.508 1.233 1.432 1.308-.048.049-.399.33-.764.627-.468.379-.688.51-.723.447-.2-.364-1.686-3.524-1.686-3.593 0-.158.206-.014 1.741 1.211zm-1.81 1.198l.936 1.948-.248.214-1.032.833-.785.62v-2.754c0-2.141.02-2.768.09-2.795.04-.014.089-.028.096-.02.007 0 .434.887.943 1.954zm9.28-1.597c.798.186 1.452.33 1.46.338.02.027-1.99 4.157-2.025 4.157-.103 0-3.614-2.863-3.566-2.905.4-.392 2.492-1.975 2.575-1.955.055.028.757.193 1.556.365zm-11.407 2.85l-.007 3.174-2.45 1.955c-1.35 1.067-2.486 1.955-2.548 1.969-.055.013-.096-.014-.096-.055 0-.07 3.848-8.124 4.612-9.659.489-.977.489-.977.489 2.616zm15.186-1.982l1.184.261-.014 2.589-.02 2.595-1.274.289-1.274.29-1.011-.813c-.558-.448-1.012-.847-1.012-.888 0-.09 2.148-4.578 2.196-4.585.02 0 .564.11 1.225.262zm3.841.874c.854.2 1.556.365 1.57.378.11.145 1.356 2.864 1.315 2.892-.028.027-.992.261-2.141.516-1.15.262-2.148.489-2.21.51-.124.034-.13-.104-.13-2.307 0-1.287.006-2.347.02-2.347s.73.165 1.576.358zm-10.54 2.285c1.02.813 1.86 1.501 1.86 1.535 0 .028-.255.572-.558 1.212l-.565 1.157-1.156.268c-.64.145-1.219.262-1.301.268-.124 0-.22-.15-.523-.798-.214-.434-.71-1.466-1.109-2.3l-.73-1.5.971-.771c.93-.75.97-.771 1.116-.66.075.068.977.784 1.996 1.59zm17.452-.709c.936.214 1.308.324 1.308.4 0 .075-.565.234-2.093.578-1.15.261-2.1.475-2.107.468-.006-.007-.261-.544-.57-1.191l-.558-1.17 1.356.303c.743.172 1.941.447 2.664.612zM14.56 16.942c.53 1.108.936 2.03.908 2.072-.034.027-1.018.268-2.189.53-1.17.261-2.168.495-2.21.51-.068.027-.089-.317-.089-1.591v-1.625l1.26-.998c.688-.55 1.273-.977 1.3-.95.028.028.49.957 1.02 2.052zm22.979-1.728c-.014.055-.723.66-1.584 1.342l-1.556 1.24-.406-.8c-.227-.447-.42-.853-.427-.894-.013-.062.572-.228 1.86-.53 2.099-.496 2.147-.503 2.113-.358zm.812 1.019c-.035.158-2.32 4.832-2.361 4.832-.028 0-.083-.069-.124-.165a60.82 60.82 0 01-.544-1.136l-.461-.977 1.68-1.343c1.528-1.211 1.851-1.432 1.81-1.211zm-5.37 1.122c.29.62.53 1.122.53 1.136 0 .006-.853.695-1.893 1.52-1.046.827-1.948 1.543-2.01 1.605-.096.082-.24-.014-1.15-.737l-1.039-.826v-2.657l.55-.124 2.458-.564c1.054-.248 1.935-.448 1.962-.455.028-.007.29.489.592 1.102zm-10.897-.186c.207.165.275.254.213.289-.048.027-.413.124-.798.206-.393.083-.764.172-.826.186-.09.028-.042-.13.213-.674l.33-.71.283.235c.151.13.42.337.585.468zm17.45 5.204c0 4.585-.02 5.707-.089 5.734-.062.021-.523-.867-1.431-2.753-.744-1.535-1.364-2.85-1.37-2.905-.035-.166 2.678-5.769 2.801-5.769.076-.007.09.984.09 5.693zm-29.58-2.1c-.055.055-4.26.999-4.295.964-.07-.076.206-.316 2.196-1.907l2.092-1.659.021 1.28c.007.703 0 1.302-.014 1.322zm16.398-1.858c0 .571-.02.73-.083.695a28.7 28.7 0 01-.764-.585l-.667-.53.633-.159c.964-.234.881-.289.881.579zm-1.425 1.025l1.425 1.136v3.649l-1.411 1.115c-.778.62-1.46 1.122-1.508 1.122-.2 0-3.497-.778-3.517-.826-.007-.027-.365-.771-.785-1.652l-.764-1.59.77-1.604c.427-.881.792-1.618.82-1.646.041-.04 3.25-.812 3.456-.826.048-.013.73.496 1.514 1.122zm-6.368.049c0 .09-.73 1.583-.777 1.583-.021 0-.186-.296-.372-.66l-.324-.662.654-.151c.737-.165.82-.186.82-.11zm16.178 1.514l.667 1.384-.681 1.432c-.379.784-.716 1.425-.75 1.41-.138-.027-3.573-2.78-3.56-2.835.035-.11 3.56-2.878 3.608-2.83.02.028.344.675.716 1.44zm-18.147.158c.297.634.544 1.178.544 1.219 0 .158-1.094 2.375-1.17 2.375-.082 0-4.64-1.033-4.867-1.108-.11-.035-.13-.159-.13-1.267v-1.225l.695-.159c.378-.09 1.486-.344 2.457-.571.978-.22 1.81-.413 1.845-.413.048 0 .324.516.626 1.15zm-6.622 2.217c-.02.014-2.396-.51-3.862-.86-.09-.021-.165-.076-.165-.131 0-.062.647-.241 2.003-.55l1.997-.455.02.984c.014.544.014.998.007 1.012zm18.6-1.032c.042.04-.392.426-1.06.943-.068.048-.089-.138-.089-.902v-.97l.55.44c.297.24.572.461.6.489zm2.906 2.306c1.06.846 1.955 1.555 1.982 1.59.062.055-.97 2.265-1.06 2.265-.069 0-4.667-1.047-4.853-1.109-.11-.034-.13-.165-.13-1.363l.006-1.328 1.005-.792c.55-.44 1.033-.799 1.06-.799.028 0 .93.696 1.99 1.536zm-23.75-.682l2.024.461c.158.035.158.049.158 1.35v1.308l-2.127-1.7c-1.17-.937-2.127-1.735-2.127-1.77.007-.11.11-.09 2.072.351zm10.484.565l.4.833-.572-.131c-.317-.07-.606-.138-.647-.138a.411.411 0 01-.165-.062c-.076-.048-.035-.193.2-.709.172-.351.323-.647.344-.647.02 0 .22.386.44.854zm18.973 1.542c.633 1.314 1.15 2.437 1.15 2.478 0 .048-.028.09-.063.09-.082 0-3.373-2.617-3.373-2.685 0-.076 1.06-2.272 1.101-2.272.014 0 .544 1.08 1.185 2.389zM7.49 26.53l2.416 1.934v3.215c0 2.32-.02 3.208-.076 3.188-.096-.035-5.025-10.244-4.97-10.299.02-.02.083-.02.131-.007A164.3 164.3 0 017.49 26.53zm6.003-1.24l2.065.476-.998 2.079c-.634 1.315-1.026 2.072-1.088 2.051-.048-.013-.633-.468-1.294-.998l-1.205-.964v-3.201l.234.048c.117.021 1.157.255 2.286.51zm12.859 1.082v.77l-.723-.172c-.4-.096-.73-.185-.743-.2-.02-.013 1.397-1.163 1.452-1.176.007.007.014.358.014.778zm-8.515-.097c.612.145 1.17.269 1.245.296.083.02.324.434.689 1.198.31.647.557 1.184.557 1.198 0 .034-3.786 3.077-3.937 3.173-.048.028-.496-.282-1.04-.722l-.963-.765 1.115-2.313c.613-1.273 1.136-2.32 1.17-2.32.02.007.544.124 1.164.255zm3.992 1.535l-.612.49-.248-.483a12.18 12.18 0 01-.33-.702l-.09-.22.95.213.943.22-.613.482zm14.188.475c.874.696 1.57 1.295 1.535 1.336-.027.041-.764-.09-1.955-.372a179.394 179.394 0 01-1.996-.468c-.076-.027.695-1.762.785-1.762.027 0 .764.571 1.631 1.266zm-11.07-.378c.593.137 1.157.261 1.247.282l.158.034v5.163l-.97.228c-.538.123-1.088.254-1.212.282l-.241.062-.516-1.074c-.283-.592-.785-1.638-1.122-2.334l-.606-1.246 1.025-.819c.565-.454 1.054-.82 1.095-.82.034-.006.55.104 1.143.242zm4.799 1.094c1.184.269 2.168.503 2.182.517.014.013-.289.681-.675 1.473l-.702 1.445-1.514.338c-.833.186-1.535.33-1.57.33-.034 0-.055-1.032-.055-2.306 0-1.831.02-2.306.09-2.306.055.014 1.06.234 2.244.51zM11.95 30.076c.495.4.943.764.998.806.076.075-.062.426-.854 2.051-.516 1.074-.97 1.948-1.012 1.934-.075-.027-.158-5.507-.075-5.507.02 0 .447.324.943.716zm23.233.172c1.115.255 2.045.462 2.059.462.013 0 .027.048.027.103 0 .055-.014.103-.028.103-.048 0-5.025 1.136-5.156 1.177-.068.02-.13.007-.13-.027 0-.131 1.073-2.286 1.142-2.286.028.007.971.214 2.086.468zm-13.327 1.859c.53 1.108.936 2.03.909 2.072-.035.028-.737.207-1.556.392l-1.487.338-1.246-.985c-.689-.537-1.246-1.005-1.24-1.032.028-.097 3.56-2.878 3.608-2.836.02.027.482.956 1.012 2.051zm-6.471.73c.082.062-3.098 2.616-3.188 2.56-.04-.027.29-.805.813-1.906l.895-1.852.709.571c.4.317.743.6.77.627zm22.084-.668c-.393.386-8.826 7.029-8.874 6.98-.041-.041 2.568-5.61 2.706-5.762.082-.09 6.209-1.452 6.237-1.383.02.034-.014.103-.07.165zm-20.108 2.23c.543.434.984.799.97.806-.014.014-1.17.282-2.574.606-1.405.323-2.61.592-2.678.62-.372.096.048-.304 1.542-1.502.902-.715 1.659-1.3 1.686-1.308.028-.006.503.345 1.053.778zm12.081.358c-1.604 3.346-1.893 3.904-1.955 3.842-.048-.049-.062-.86-.055-2.224l.02-2.148 1.136-.268a29.636 29.636 0 011.253-.269c.09-.006 0 .234-.399 1.067zM26.276 38.6c-.055.055-.09.055-.103 0-.02-.042-.413-.868-.881-1.831-.468-.971-.854-1.777-.854-1.811 0-.034.427-.151.943-.262l.937-.206.02 2.01c.014 1.453-.007 2.051-.062 2.1zm-2.016-1.51c1.088 2.258.992 2.051.868 2.051s-4.33-3.331-4.275-3.38c.027-.027 2.265-.564 2.416-.578.041-.007.489.854.991 1.907zm-2.306.978c1.363 1.087 2.45 2.003 2.423 2.044-.027.048-1.996-.372-5.431-1.156-2.96-.675-5.46-1.246-5.542-1.267-.468-.11-.069-.241 2.802-.902 1.625-.378 3.029-.681 3.112-.688.103-.007.963.64 2.636 1.969z" fill="#41AC48"/><path d="M108.602 11.248l-.179.173v16.514l.165.193c.227.262.723.262.957-.007l.159-.186V11.421l-.179-.172a.666.666 0 00-.923 0z" fill="#1D1D1B"/><path d="M64.744 11.42c-.764.255-1.432.937-1.659 1.7-.172.586-.096 1.419.158 1.942.255.517.833 1.06 1.315 1.232l.345.131.006 5.631c0 4.165.021 5.7.083 5.886.096.296.44.448.785.344.461-.137.433.296.454-6.085.014-5.46.02-5.81.145-5.81.22 0 .833-.413 1.17-.778.482-.537.64-1.005.606-1.845-.035-.785-.22-1.225-.723-1.728-.66-.668-1.77-.922-2.685-.62z" fill="#41AC48"/><path d="M54.693 16.39c-1.748.221-3.029.971-3.586 2.114l-.269.537v.923c0 .826.021.963.166 1.253.475.956 1.514 1.438 3.49 1.617a19.61 19.61 0 001.452.076c1.37 0 2.699.282 3.277.702.668.482.71 1.756.083 2.547-.627.792-2.3 1.232-4.124 1.067-1.411-.124-2.499-.523-3.277-1.218-.371-.324-.454-.372-.73-.372-.392 0-.578.2-.578.627 0 .261.042.33.413.688.441.427 1.247.888 1.997 1.129.812.268 1.714.385 3.05.379 1.913-.007 2.746-.207 3.634-.875 1.095-.819 1.542-1.934 1.329-3.29-.152-.971-.64-1.618-1.522-2.031-.722-.33-1.576-.475-3.614-.585-1.941-.104-2.423-.193-3.084-.517-.543-.268-.73-.633-.688-1.328.041-.785.323-1.212 1.074-1.632.874-.482 1.28-.564 2.623-.564 1.06 0 1.266.02 1.734.165.682.22 1.164.461 1.556.785.42.344.578.433.854.433.502 0 .75-.667.413-1.1-.406-.517-1.756-1.192-2.857-1.42-.675-.137-2.148-.192-2.816-.11zm20.24-.027c-.49.083-1.074.262-1.453.455-.447.227-1.122.805-1.432 1.232l-.2.275v-.633c0-.792-.13-1.102-.495-1.184a.756.756 0 00-.448.014c-.413.158-.406.069-.406 5.892 0 5.872-.007 5.77.42 5.852.262.055.248.055.51 0 .413-.076.42-.172.42-3.766 0-3.49.027-3.827.399-4.743.206-.51.668-1.15 1.053-1.466.158-.124.489-.317.737-.44.385-.18.557-.221 1.156-.249 1.508-.068 2.471.434 3.03 1.57.453.93.453.93.495 5.06.048 4.13.02 3.924.468 4.047.261.076.654-.02.737-.185.034-.062.075-1.652.096-3.525.034-3.655.055-3.841.44-4.791.214-.53.668-1.164 1.06-1.487.159-.124.49-.317.737-.44.406-.194.558-.221 1.219-.249.633-.027.846-.006 1.246.11a2.88 2.88 0 011.858 1.756c.324.86.365 1.39.365 5.032v3.422l.165.185c.269.317.992.235 1.074-.13.028-.09.035-1.914.02-4.055-.027-3.78-.027-3.91-.185-4.468-.558-1.99-1.755-2.98-3.786-3.125-1.928-.13-3.594.633-4.413 2.017-.11.2-.227.365-.248.365-.02 0-.13-.18-.24-.4-.654-1.239-1.845-1.927-3.442-1.975-.407.007-.834.014-.957.027zm22.758.035c-1.308.179-2.774 1.025-3.497 2.03l-.22.296-.028-.956c-.02-.881-.034-.964-.186-1.116-.227-.227-.723-.227-.95 0l-.165.166v15.674l.2.173c.261.227.62.227.88 0l.2-.172.021-3.202.02-3.194.27.338c.364.454.77.812 1.355 1.197.999.647 1.708.82 3.298.82 1.225.006 1.81-.11 2.671-.551 1.556-.778 2.416-1.81 2.939-3.538.179-.593.193-.723.193-1.949 0-1.466-.069-1.9-.496-2.822a5.494 5.494 0 00-3.676-3.07c-.66-.166-2.085-.234-2.829-.124zm2.327 1.335c1.514.393 2.685 1.487 3.153 2.974.482 1.521.247 3.346-.572 4.578-.544.82-1.294 1.384-2.285 1.707-.51.172-.689.193-1.57.193-.853.007-1.067-.014-1.521-.158-1.473-.462-2.527-1.474-3.015-2.926-.283-.854-.33-2.113-.11-2.967.433-1.735 1.617-2.96 3.283-3.4.723-.18 1.907-.187 2.637 0zm18.057-1.343c-1.818.324-3.429 1.495-4.158 3.016-.537 1.108-.641 1.576-.641 3.015.007 1.439.09 1.907.53 2.802.95 1.934 2.582 3.008 4.936 3.222.792.075 1.811.007 2.54-.186 1.267-.324 3.009-1.528 3.174-2.21.062-.227-.069-.64-.227-.723a1.13 1.13 0 00-.399-.069c-.228 0-.331.062-.833.551-.654.633-1.116.916-1.921 1.191-.516.186-.661.2-1.597.207-1.177 0-1.625-.09-2.478-.51-.771-.379-1.515-1.129-1.9-1.934-.248-.523-.51-1.412-.51-1.728 0-.096.585-.11 5.087-.13 4.069-.015 5.115-.042 5.246-.111.282-.165.392-.537.331-1.177-.221-2.554-1.811-4.454-4.255-5.074-.647-.179-2.313-.261-2.925-.151zm2.567 1.343a4.37 4.37 0 013.112 2.905c.096.29.193.64.22.757l.041.235h-9.417l.103-.482c.42-1.866 1.714-3.105 3.67-3.518.447-.076 1.762-.028 2.271.103zm6.988-1.177a.68.68 0 00-.269.29c-.213.426-.151.515 2.217 3.09l2.223 2.43-1.156 1.246c-3.635 3.924-3.442 3.697-3.442 4.034 0 .172.034.372.069.44.103.194.53.297.777.194.104-.049 1.191-1.198 2.41-2.554 1.218-1.357 2.237-2.451 2.265-2.444.02.014 1.018 1.108 2.209 2.43 1.184 1.328 2.21 2.45 2.272 2.506.062.048.248.09.413.09.413-.008.634-.228.634-.627 0-.372.199-.131-2.541-3.105l-2.086-2.251.283-.296a249.85 249.85 0 002.237-2.437c1.914-2.107 1.955-2.155 1.955-2.444-.007-.468-.31-.736-.743-.66-.2.04-.565.42-2.41 2.484-1.191 1.35-2.196 2.444-2.223 2.444-.028 0-1.005-1.067-2.169-2.375-1.163-1.308-2.175-2.423-2.258-2.478-.165-.124-.433-.13-.667-.007z" fill="#1D1D1B"/></svg>