<svg xmlns="http://www.w3.org/2000/svg" viewBox="0 0 60 60"><linearGradient id="a" gradientUnits="userSpaceOnUse" x1="11.353" y1="63.397" x2="47.533" y2="-1.403"><stop offset="0" stop-color="#003a7f"/><stop offset=".015" stop-color="#003676"/><stop offset=".074" stop-color="#002857"/><stop offset=".142" stop-color="#001b3b"/><stop offset=".218" stop-color="#001125"/><stop offset=".307" stop-color="#000914"/><stop offset=".417" stop-color="#000409"/><stop offset=".571" stop-color="#000102"/><stop offset="1"/></linearGradient><path d="M47.5 60h-35C5.6 60 0 54.4 0 47.5v-35C0 5.6 5.6 0 12.5 0h35C54.4 0 60 5.6 60 12.5v35C60 54.4 54.4 60 47.5 60z" fill="url(#a)"/><path d="M49.4 37.8h-2.2c-.4 0-.5-.2-.4-.7v-.6h-.1c-.7 2.2-3 1.7-3.8-.3-.8-2.1-.7-5.7.4-7.5.7-1.1 1.5-1.5 2.3-1.2.4.1.8.7 1.1 1V23c0-.2-.2-.4-.3-.5-.2-.1-.3-.1-.5-.3h2.6v14.5c0 .5.1.8.5.9.1 0 .3.1.4.1v.1zm-5.2-4.9c.1 1.1.2 2.4.4 3.8.1.8.5 1 1 .8.5-.3.8-.9.9-1.7.1-.9.2-1.8.2-2.6 0-1.4.1-2.7-.3-4-.2-.9-.7-1.3-1.1-1.3-.5.1-.8.6-.9 1.6-.1.9-.1 2-.2 3.4zm-11.6-5.4h2.3c-1.1.5-1.5 2.2-2.3 3.2.8 2.1 1.6 4.1 2.4 6.1.2.4.5.5.8.8h-3.5v-.1c.1-.1.3-.1.4-.2.2-.1.3-.3.2-.6l-1.5-4.2c-.1-.2-.3-.3-.5-.5v4.3c0 .6.1 1 .5 1 .1 0 .2.1.3.2h-3.5v-.1c.1 0 .2-.1.2-.1.6-.2.6-.2.6-1.2V23.3c0-1.1 0-1.1-.6-1.3-.1 0-.1-.1-.2-.2h2.6v9.9c.4.1.7 0 1-.5.4-.7.8-1.5 1.2-2.3.4-.9.3-1.2-.3-1.4-.1 0-.1-.1-.2-.1 0 .2 0 .2.1.1zm-16.5-.2c-.1-.2-.2-.3-.2-.4 0-.2-.1-.5-.1-.7-.4-3.4-2.4-3.6-3.6-2.5-.9.9-1 3.1 0 3.9.5.5 1.1.7 1.6 1.1.5.4 1.1.7 1.6 1.1 1 .8 1.4 2.3 1.3 4.1-.1 1.8-.7 3.1-1.7 3.7-1.1.6-2.2.5-3.2-.3-.1-.1-.2-.1-.3-.2-.3-.2-.5-.2-.5.4 0 .1-.1.2-.2.3v-4.5s.1 0 .1-.1c0 .2.1.4.1.6.3 2.9 2 4.5 3.7 3.5.8-.5 1.2-1.6 1.1-2.8-.1-.8-.4-1.4-.8-1.7-.7-.5-1.4-.9-2-1.3-.3-.2-.6-.4-.9-.7-1.1-.9-1.5-2.3-1.4-4.4.1-1.7.9-3.1 1.9-3.5.9-.3 1.8-.3 2.7.4.3.3.6.3.6-.4 0-.1.1-.1.2-.3v4.7zM28 37.1c-.2.6-.6.7-1 .8-.7.1-1.4.2-1.7-1.3-.6 1.6-1.5 1.6-2.4 1.2-.8-.3-1.2-1.4-1.2-2.9 0-1.3.4-2.1 1.3-2.3.7-.2 1.5-.3 2.3-.4v-3.6c0-.3-.3-.7-.5-.8-.9-.3-1.5.1-1.5 1.8v.6c0 .6-.3.8-.6.8s-.5-.3-.5-.8c0-1 .2-1.7.7-2.1 1.2-.9 2.4-.9 3.5-.1.5.4.7 1.2.7 2v6.5c0 .9.2 1.1.7.6.1-.1.2-.1.2-.2v.2zm-2.7-4.6c-.5.1-.9.1-1.3.2-.2.1-.4.4-.5.7-.3 1-.3 2.1 0 3.2.1.6.4.8.8.6.5-.2.8-.8.8-1.5.2-1 .2-2 .2-3.2zm12.3-.2c0 1.4 0 2.6.3 3.9.3 1.2 1.2 1.7 2 1.1.5-.4.9-1 1.1-2 0-.2 0-.5.1-.6.1-.2.2-.3.3-.3.1 0 .2.3.2.5-.1.4-.1.8-.3 1.2-.4 1-1 1.7-1.7 1.9-1.6.4-3-.3-3.6-2.7-.5-1.9-.4-3.8.3-5.6.9-2.5 3.2-2.6 4.3-1.4.7.8 1 2 1 3.4 0 .6-.2.9-.5.9h-3c-.2-.3-.3-.3-.5-.3zm0-.3h1.9c.2 0 .5-.2.4-.7 0-.9 0-1.7-.1-2.6-.1-.9-.5-1.2-1.1-1.1-.4.2-.7.6-.8 1.3-.2 1.1-.2 2-.3 3.1zm-17.8-4.5H21v.2h-1.2v8.6c.1.4.2.9.3 1 .2.1.5-.1.7-.2.1-.1.3-.3.4-.5 0 .1.1.1.1.2l-.3.6c-.6.8-1.8 1-2.5.3-.4-.4-.6-1.1-.6-1.9v-7.9c-.3 0-.6-.1-.9-.1v-.2c.2 0 .3-.1.5-.1.8-.1 1.3-.9 1.6-2.1.1-.3.2-.6.4-.8 0 .3.1.6.1 1 .2.4.2 1.1.2 1.9z" fill="#fff"/></svg>