<svg width="73" height="73" fill="none" xmlns="http://www.w3.org/2000/svg"><path d="M9.125 32.458a1 1 0 001 1h22.333a1 1 0 001-1V10.125a1 1 0 00-1-1H10.125a1 1 0 00-1 1v22.333zm6.083-16.25a1 1 0 011-1h10.167a1 1 0 011 1v10.167a1 1 0 01-1 1H16.208a1 1 0 01-1-1V16.208z" fill="url(#paint0_linear)"/><path d="M9.125 62.875a1 1 0 001 1h22.333a1 1 0 001-1V40.542a1 1 0 00-1-1H10.125a1 1 0 00-1 1v22.333zm6.083-16.25a1 1 0 011-1h10.167a1 1 0 011 1v10.167a1 1 0 01-1 1H16.208a1 1 0 01-1-1V46.625z" fill="url(#paint1_linear)"/><path d="M40.542 9.125a1 1 0 00-1 1v22.333a1 1 0 001 1h22.333a1 1 0 001-1V10.125a1 1 0 00-1-1H40.542zm17.25 17.25a1 1 0 01-1 1H46.625a1 1 0 01-1-1V16.208a1 1 0 011-1h10.167a1 1 0 011 1v10.167z" fill="url(#paint2_linear)"/><path d="M62.875 57.792h-4.083a1 1 0 00-1 1v4.083a1 1 0 001 1h4.083a1 1 0 001-1v-4.083a1 1 0 00-1-1z" fill="url(#paint3_linear)"/><path d="M44.625 39.542h-4.083a1 1 0 00-1 1v4.083a1 1 0 001 1h4.083a1 1 0 001-1v-4.083a1 1 0 00-1-1z" fill="url(#paint4_linear)"/><path d="M50.708 45.625h-4.083a1 1 0 00-1 1v4.083a1 1 0 001 1h4.083a1 1 0 001-1v-4.083a1 1 0 00-1-1z" fill="url(#paint5_linear)"/><path d="M44.625 51.708h-4.083a1 1 0 00-1 1v4.084a1 1 0 001 1h4.083a1 1 0 001-1v-4.084a1 1 0 00-1-1z" fill="url(#paint6_linear)"/><path d="M50.708 57.792h-4.083a1 1 0 00-1 1v4.083a1 1 0 001 1h4.083a1 1 0 001-1v-4.083a1 1 0 00-1-1z" fill="url(#paint7_linear)"/><path d="M56.792 51.708h-4.084a1 1 0 00-1 1v4.084a1 1 0 001 1h4.084a1 1 0 001-1v-4.084a1 1 0 00-1-1z" fill="url(#paint8_linear)"/><path d="M56.792 39.542h-4.084a1 1 0 00-1 1v4.083a1 1 0 001 1h4.084a1 1 0 001-1v-4.083a1 1 0 00-1-1z" fill="url(#paint9_linear)"/><path d="M62.875 45.625h-4.083a1 1 0 00-1 1v4.083a1 1 0 001 1h4.083a1 1 0 001-1v-4.083a1 1 0 00-1-1z" fill="url(#paint10_linear)"/><defs><linearGradient id="paint0_linear" x1="37" y1="-6.5" x2="36" y2="79.5" gradientUnits="userSpaceOnUse"><stop offset=".198" stop-color="#2CD7BE"/><stop offset=".651" stop-color="#2878DB"/><stop offset="1" stop-color="#2400FF"/></linearGradient><linearGradient id="paint1_linear" x1="37" y1="-6.5" x2="36" y2="79.5" gradientUnits="userSpaceOnUse"><stop offset=".198" stop-color="#2CD7BE"/><stop offset=".651" stop-color="#2878DB"/><stop offset="1" stop-color="#2400FF"/></linearGradient><linearGradient id="paint2_linear" x1="37" y1="-6.5" x2="36" y2="79.5" gradientUnits="userSpaceOnUse"><stop offset=".198" stop-color="#2CD7BE"/><stop offset=".651" stop-color="#2878DB"/><stop offset="1" stop-color="#2400FF"/></linearGradient><linearGradient id="paint3_linear" x1="37" y1="-6.5" x2="36" y2="79.5" gradientUnits="userSpaceOnUse"><stop offset=".198" stop-color="#2CD7BE"/><stop offset=".651" stop-color="#2878DB"/><stop offset="1" stop-color="#2400FF"/></linearGradient><linearGradient id="paint4_linear" x1="37" y1="-6.5" x2="36" y2="79.5" gradientUnits="userSpaceOnUse"><stop offset=".198" stop-color="#2CD7BE"/><stop offset=".651" stop-color="#2878DB"/><stop offset="1" stop-color="#2400FF"/></linearGradient><linearGradient id="paint5_linear" x1="37" y1="-6.5" x2="36" y2="79.5" gradientUnits="userSpaceOnUse"><stop offset=".198" stop-color="#2CD7BE"/><stop offset=".651" stop-color="#2878DB"/><stop offset="1" stop-color="#2400FF"/></linearGradient><linearGradient id="paint6_linear" x1="37" y1="-6.5" x2="36" y2="79.5" gradientUnits="userSpaceOnUse"><stop offset=".198" stop-color="#2CD7BE"/><stop offset=".651" stop-color="#2878DB"/><stop offset="1" stop-color="#2400FF"/></linearGradient><linearGradient id="paint7_linear" x1="37" y1="-6.5" x2="36" y2="79.5" gradientUnits="userSpaceOnUse"><stop offset=".198" stop-color="#2CD7BE"/><stop offset=".651" stop-color="#2878DB"/><stop offset="1" stop-color="#2400FF"/></linearGradient><linearGradient id="paint8_linear" x1="37" y1="-6.5" x2="36" y2="79.5" gradientUnits="userSpaceOnUse"><stop offset=".198" stop-color="#2CD7BE"/><stop offset=".651" stop-color="#2878DB"/><stop offset="1" stop-color="#2400FF"/></linearGradient><linearGradient id="paint9_linear" x1="37" y1="-6.5" x2="36" y2="79.5" gradientUnits="userSpaceOnUse"><stop offset=".198" stop-color="#2CD7BE"/><stop offset=".651" stop-color="#2878DB"/><stop offset="1" stop-color="#2400FF"/></linearGradient><linearGradient id="paint10_linear" x1="37" y1="-6.5" x2="36" y2="79.5" gradientUnits="userSpaceOnUse"><stop offset=".198" stop-color="#2CD7BE"/><stop offset=".651" stop-color="#2878DB"/><stop offset="1" stop-color="#2400FF"/></linearGradient></defs></svg>