<svg width="25" height="26" xmlns="http://www.w3.org/2000/svg"><path d="M8.99 21.682C3.283 23.394 3.283 18.828 1 18.258m15.98 6.848v-4.417a3.847 3.847 0 00-1.073-2.98c3.584-.399 7.35-1.757 7.35-7.99a6.21 6.21 0 00-1.712-4.28 5.787 5.787 0 00-.103-4.303s-1.346-.399-4.462 1.69a15.272 15.272 0 00-7.99 0C5.874.737 4.527 1.136 4.527 1.136a5.787 5.787 0 00-.103 4.304 6.21 6.21 0 00-1.712 4.314c0 6.186 3.767 7.545 7.35 7.99a3.847 3.847 0 00-1.072 2.945v4.417" stroke="#003945" stroke-width="2" fill="none"/></svg>