<svg width="38" height="38" xmlns="http://www.w3.org/2000/svg"><g transform="translate(0 1)" fill="none" fill-rule="evenodd"><circle stroke="#00C0A5" cx="18.856" cy="18" r="18"/><path d="M13.867 15.744a2.988 2.988 0 01-2.048-.862 2.86 2.86 0 01-.819-2.01c0-.739.328-1.477.82-2.051.531-.534 1.269-.821 2.047-.821.737 0 1.474.328 2.007.82.532.534.86 1.272.86 2.052 0 .738-.328 1.477-.86 2.01-.533.533-1.27.862-2.007.862zm12.655-.862c.532-.533.86-1.272.86-2.01 0-.739-.328-1.477-.86-2.051A2.85 2.85 0 0024.515 10c-.737 0-1.515.328-2.048.82-.532.534-.819 1.272-.819 2.052 0 .738.328 1.477.82 2.01a2.913 2.913 0 002.047.862c.737 0 1.474-.329 2.007-.862zM15.874 25.138c.532-.533.86-1.271.86-2.01 0-.738-.328-1.477-.86-2.051a2.85 2.85 0 00-2.007-.82c-.737 0-1.516.328-2.048.82-.532.533-.819 1.272-.819 2.051 0 .739.328 1.477.82 2.01a2.907 2.907 0 002.047.862c.737 0 1.474-.328 2.007-.862zm10.648 0c.532-.533.86-1.271.86-2.01 0-.738-.328-1.477-.86-2.051a2.85 2.85 0 00-2.007-.82c-.737 0-1.515.328-2.048.82-.532.533-.819 1.272-.819 2.051 0 .739.328 1.477.82 2.01a2.909 2.909 0 002.047.862c.737 0 1.474-.328 2.007-.862z" fill="#00C0A5" fill-rule="nonzero"/></g></svg>