<svg xmlns="http://www.w3.org/2000/svg" viewBox="0 0 1024 1024"><defs><radialGradient id="a" cx="-14480.522" cy="-8329.079" fx="-14509.281" r="450.875" gradientTransform="matrix(.762 .034 -.05 1.12 11560.893 10069.103)" gradientUnits="userSpaceOnUse"><stop offset=".045" stop-color="#ffea00"/><stop offset=".12" stop-color="#ffde00"/><stop offset=".254" stop-color="#ffbf00"/><stop offset=".429" stop-color="#ff8e00"/><stop offset=".769" stop-color="#ff272d"/><stop offset=".872" stop-color="#e0255a"/><stop offset=".953" stop-color="#cc2477"/><stop offset="1" stop-color="#c42482"/></radialGradient><radialGradient id="b" cx="-7529.669" cy="-7921.608" r="791.229" gradientTransform="translate(9921.963 9899.103) scale(1.225)" gradientUnits="userSpaceOnUse"><stop offset="0" stop-color="#00ccda"/><stop offset=".22" stop-color="#0083ff"/><stop offset=".261" stop-color="#007af9"/><stop offset=".33" stop-color="#0060e8"/><stop offset=".333" stop-color="#005fe7"/><stop offset=".438" stop-color="#2639ad"/><stop offset=".522" stop-color="#401e84"/><stop offset=".566" stop-color="#4a1475"/></radialGradient><radialGradient id="d" cx="-8260.94" cy="-6516.556" r="266.886" gradientTransform="rotate(5.67 -90364.99 106952.151) scale(1.225)" gradientUnits="userSpaceOnUse"><stop offset=".003" stop-color="#ffea00"/><stop offset=".497" stop-color="#ff272d"/><stop offset="1" stop-color="#c42482"/></radialGradient><radialGradient id="e" cx="-8285.087" cy="-6772.468" r="445.678" gradientTransform="rotate(5.67 -90364.99 106952.151) scale(1.225)" gradientUnits="userSpaceOnUse"><stop offset=".003" stop-color="#ffe900"/><stop offset=".157" stop-color="#ffaf0e"/><stop offset=".316" stop-color="#ff7a1b"/><stop offset=".472" stop-color="#ff4e26"/><stop offset=".621" stop-color="#ff2c2e"/><stop offset=".762" stop-color="#ff1434"/><stop offset=".892" stop-color="#ff0538"/><stop offset="1" stop-color="#ff0039"/></radialGradient><radialGradient id="f" cx="-8222.051" cy="-6359.332" r="408.958" gradientTransform="rotate(5.67 -90364.99 106952.151) scale(1.225)" gradientUnits="userSpaceOnUse"><stop offset=".003" stop-color="#ff272d"/><stop offset=".497" stop-color="#c42482"/><stop offset=".986" stop-color="#620700"/></radialGradient><radialGradient id="g" cx="750.189" cy="396.041" fx="778.167" fy="382.212" r="782.18" gradientUnits="userSpaceOnUse"><stop offset=".156" stop-color="#ffea00"/><stop offset=".231" stop-color="#ffde00"/><stop offset=".365" stop-color="#ffbf00"/><stop offset=".541" stop-color="#ff8e00"/><stop offset=".763" stop-color="#ff272d"/><stop offset=".796" stop-color="#f92433"/><stop offset=".841" stop-color="#e91c45"/><stop offset=".893" stop-color="#cf0e62"/><stop offset=".935" stop-color="#b5007f"/></radialGradient><radialGradient id="h" cx="691.339" cy="3.289" r="923.615" gradientUnits="userSpaceOnUse"><stop offset=".279" stop-color="#ffea00"/><stop offset=".402" stop-color="#fd0"/><stop offset=".63" stop-color="#ffba00"/><stop offset=".856" stop-color="#ff9100"/><stop offset=".933" stop-color="#ff6711"/><stop offset=".994" stop-color="#ff4a1d"/></radialGradient><linearGradient id="c" x1="575.669" y1="731.188" x2="384.231" y2="104.96" gradientUnits="userSpaceOnUse"><stop offset="0" stop-color="#000f43" stop-opacity=".4"/><stop offset=".485" stop-color="#001962" stop-opacity=".173"/><stop offset="1" stop-color="#002079" stop-opacity="0"/></linearGradient><linearGradient id="i" x1="-8944.65" y1="-6677.742" x2="-8660.289" y2="-6750.226" gradientTransform="rotate(5.67 -90364.99 106952.151) scale(1.225)" gradientUnits="userSpaceOnUse"><stop offset="0" stop-color="#c42482" stop-opacity=".5"/><stop offset=".474" stop-color="#ff272d" stop-opacity=".5"/><stop offset=".486" stop-color="#ff2c2c" stop-opacity=".513"/><stop offset=".675" stop-color="#ff7a1a" stop-opacity=".72"/><stop offset=".829" stop-color="#ffb20d" stop-opacity=".871"/><stop offset=".942" stop-color="#ffd605" stop-opacity=".964"/><stop offset="1" stop-color="#ffe302"/></linearGradient><linearGradient id="j" x1="245.347" y1="-1082.012" x2="190.775" y2="-1221.859" gradientTransform="rotate(5.73 -13193.275 -1077.296)" gradientUnits="userSpaceOnUse"><stop offset="0" stop-color="#891551" stop-opacity=".6"/><stop offset="1" stop-color="#c42482" stop-opacity="0"/></linearGradient><linearGradient id="k" x1="22.04" y1="718.827" x2="116.148" y2="825.714" gradientTransform="rotate(5.73 2610.902 2923.845)" gradientUnits="userSpaceOnUse"><stop offset=".005" stop-color="#891551" stop-opacity=".5"/><stop offset=".484" stop-color="#ff272d" stop-opacity=".5"/><stop offset="1" stop-color="#ff272d" stop-opacity="0"/></linearGradient><linearGradient id="l" x1="200.104" y1="904.616" x2="200.171" y2="829.835" gradientTransform="rotate(5.73 2610.902 2923.845)" gradientUnits="userSpaceOnUse"><stop offset="0" stop-color="#c42482"/><stop offset=".083" stop-color="#c42482" stop-opacity=".81"/><stop offset=".206" stop-color="#c42482" stop-opacity=".565"/><stop offset=".328" stop-color="#c42482" stop-opacity=".362"/><stop offset=".447" stop-color="#c42482" stop-opacity=".204"/><stop offset=".562" stop-color="#c42482" stop-opacity=".091"/><stop offset=".673" stop-color="#c42482" stop-opacity=".023"/><stop offset=".773" stop-color="#c42482" stop-opacity="0"/></linearGradient><linearGradient id="m" x1="655.531" y1="38.12" x2="961.187" y2="721.615" gradientUnits="userSpaceOnUse"><stop offset="0" stop-color="#fff14f"/><stop offset=".268" stop-color="#ffee4c"/><stop offset=".452" stop-color="#ffe643"/><stop offset=".612" stop-color="#ffd834"/><stop offset=".757" stop-color="#ffc41e"/><stop offset=".892" stop-color="#ffab02"/><stop offset=".902" stop-color="#ffa900"/><stop offset=".949" stop-color="#ffa000"/><stop offset="1" stop-color="#ff9100"/></linearGradient><linearGradient id="n" x1="715.885" y1="431.21" x2="571.098" y2="819.96" gradientUnits="userSpaceOnUse"><stop offset="0" stop-color="#ff8e00"/><stop offset=".04" stop-color="#ff8e00" stop-opacity=".858"/><stop offset=".084" stop-color="#ff8e00" stop-opacity=".729"/><stop offset=".13" stop-color="#ff8e00" stop-opacity=".628"/><stop offset=".178" stop-color="#ff8e00" stop-opacity=".557"/><stop offset=".227" stop-color="#ff8e00" stop-opacity=".514"/><stop offset=".282" stop-color="#ff8e00" stop-opacity=".5"/><stop offset=".389" stop-color="#ff8e00" stop-opacity=".478"/><stop offset=".524" stop-color="#ff8e00" stop-opacity=".416"/><stop offset=".676" stop-color="#ff8e00" stop-opacity=".314"/><stop offset=".838" stop-color="#ff8e00" stop-opacity=".172"/><stop offset="1" stop-color="#ff8e00" stop-opacity="0"/></linearGradient></defs><path d="M805.285 93.558c-23.947 27.884-35.1 90.639-10.818 154.256s61.5 49.8 84.7 114.673c30.623 85.6 16.369 200.589 16.369 200.589s36.814 106.609 62.468-6.633c56.783-212.703-152.719-410.506-152.719-462.885z" fill="url(#a)"/><path d="M513.072 976.638c245.236 0 443.9-199.739 443.9-446.028S758.308 84.583 513.31 84.583 69.65 284.322 69.65 530.61c-.475 246.527 198.423 446.028 443.422 446.028z" fill="url(#b)"/><path d="M845.675 805.636a246.888 246.888 0 01-30.123 18.183 704 704 0 0038.3-62.961c9.46-10.47 18.126-20.648 25.188-31.653 3.437-5.407 7.313-12.079 11.416-19.819 24.921-44.9 52.4-117.563 53.179-192.2v-.18c.018-1.837.029-3.675.014-5.515a257.6 257.6 0 00-5.712-55.748c.2 1.431.376 2.861.556 4.291-.221-1.1-.407-2.212-.644-3.314.366 2.034.66 4 .976 5.983 5.094 43.217 1.466 85.372-16.682 116.45-.286.454-.58.879-.869 1.323 9.41-47.234 12.558-99.387 2.088-151.6 0 0-4.187-25.383-35.376-102.441-17.952-44.353-49.833-80.716-78-107.207-24.69-30.546-47.114-51.045-59.475-64.06-25.821-27.189-36.643-47.569-41.087-60.867-3.853-1.932-53.135-49.807-57.05-51.631-21.511 33.352-89.162 137.675-56.981 235.146 14.584 44.172 51.467 90.017 90.067 115.736 1.695 1.936 22.969 25.042 33.086 77.157 10.446 53.842 4.954 95.855-16.546 157.983-25.286 54.505-90.067 108.388-150.724 113.9-129.676 11.781-177.149-65.108-177.149-65.108 46.336 18.525 97.568 14.65 128.724-4.556 31.4-19.425 50.394-33.827 65.81-28.148 15.2 5.653 27.3-10.756 16.442-27.767a78.5 78.5 0 00-79.4-34.573c-31.433 5.109-60.226 30.009-101.412 5.894a85.528 85.528 0 01-7.729-5.062c-2.715-1.785 8.826 2.717 6.133.688-8.015-4.354-22.2-13.842-25.88-17.217-.613-.562 6.219 2.179 5.606 1.616-38.51-31.712-33.7-53.134-32.49-66.57.969-10.749 7.964-24.523 19.751-30.11 5.693 3.107 9.24 5.479 9.24 5.479s-2.428-4.961-3.741-7.576c.46-.2.9-.147 1.358-.342 4.664 2.251 14.977 8.1 20.407 11.667 7.072 4.988 9.326 9.436 9.326 9.436s1.862-1.025.485-5.375c-.5-1.784-2.647-7.453-9.652-13.174l.438.049a81.2 81.2 0 0111.867 8.241c1.975-7.181 5.527-14.679 4.746-28.092-.477-9.431-.257-11.873-1.919-15.515-1.488-3.128.834-4.348 3.418-1.1a32.826 32.826 0 00-2.208-7.4l.022-.244c3.225-11.236 68.248-40.461 72.981-43.877a67.355 67.355 0 0019.132-20.8c3.617-5.763 6.337-13.848 7-26.112.355-8.844-3.759-14.734-69.507-21.618-17.981-1.771-28.531-14.8-34.526-26.823-1.094-2.59-2.209-4.937-3.325-7.282a58 58 0 01-2.558-8.431c10.749-30.873 28.81-56.977 55.367-76.7 1.447-1.318-5.782.338-4.336-.98 1.687-1.538 12.706-5.977 14.787-6.977 2.542-1.2-10.882-6.9-22.732-5.512-12.069 1.36-14.632 2.8-21.073 5.531 2.673-2.661 11.173-6.149 9.18-6.126-13.011 1.995-29.179 9.558-43 18.124a10.731 10.731 0 01.835-4.348c-6.441 2.732-22.26 13.788-26.865 23.142a44.329 44.329 0 00.266-5.4 84.483 84.483 0 00-13.195 13.818l-.241.219c-37.358-15.05-70.233-16.024-98.053-9.276-6.086-6.112-9.059-1.644-22.907-32.069-.941-1.832.722 1.809 0 0-2.278-5.9 1.389 7.872 0 0-23.284 18.372-53.92 39.193-68.626 53.89-.182.586 17.156-4.9 0 0-6.008 1.716-5.6 5.281-6.513 37.5-.22 2.443-.025 5.179-.223 7.378-11.748 14.968-19.749 27.643-22.775 34.211-15.193 26.18-31.926 66.992-48.146 131.551a334.364 334.364 0 0125.784-50.401c-13.488 34.267-26.527 88.078-29.134 170.945a483.614 483.614 0 0112.533-50.66 473.038 473.038 0 0034.74 201.061c9.329 22.821 24.76 57.455 51.029 95.4 82.533 86.839 198.945 140.9 327.852 140.9 134.572.001 255.415-58.878 338.455-152.375z" fill="url(#c)"/><path d="M746.1 868.708c162.87-18.86 234.969-186.7 142.381-190-83.633-2.673-219.527 198.9-142.381 190z" fill="url(#d)"/><path d="M900.207 644.424c112.056-65.214 82.839-206.08 82.839-206.08s-43.246 50.238-72.625 130.32c-29.021 79.299-77.584 115.148-10.214 75.76z" fill="url(#e)"/><path d="M544.474 952.062c156.227 49.851 290.5-73.22 207.733-114.32-75.251-37.066-281.883 90.748-207.733 114.32z" fill="url(#f)"/><path d="M911.849 704.234c3.8-5.363 8.94-22.535 13.48-30.211 27.582-44.523 27.777-80.023 27.777-80.836 16.659-83.219 15.148-117.2 4.9-180.043-8.251-50.6-44.322-123.092-75.57-158-32.2-35.965-9.514-24.247-40.692-50.518-27.327-30.293-53.823-60.291-68.253-72.355C669.215 45.094 671.571 26.577 673.579 23.42c-.339.371-.837.922-1.472 1.643C670.872 20.14 670 16 670 16s-57 57-69 152c-7.834 62.021 15.383 126.676 49 168a381.367 381.367 0 0059 58v-.026c25.4 36.477 39.38 81.489 39.38 129.909 0 121.244-98.341 219.531-219.652 219.531a220.455 220.455 0 01-49.134-5.519c-57.236-10.908-90.288-39.781-106.772-59.382-9.447-11.234-13.464-19.423-13.464-19.423 51.283 18.371 107.986 14.528 142.468-4.518 34.749-19.265 55.774-33.546 72.837-27.915 16.82 5.606 30.211-10.667 18.2-27.536-11.771-16.845-42.4-40.97-87.878-34.286-34.789 5.067-66.657 29.76-112.24 5.845a96.313 96.313 0 01-8.554-5.02c-3.005-1.771 9.768 2.695 6.787.682-8.87-4.318-24.573-13.728-28.643-17.074-.679-.557 6.883 2.161 6.2 1.6-42.621-31.449-37.3-52.693-35.959-66.018 1.073-10.66 8.814-24.32 21.859-29.86 6.3 3.081 10.226 5.433 10.226 5.433s-2.688-4.92-4.141-7.513c.509-.194.994-.145 1.5-.339 5.162 2.232 16.576 8.029 22.586 11.57 7.827 4.947 10.322 9.358 10.322 9.358s2.061-1.016.536-5.33c-.557-1.769-2.929-7.391-10.682-13.065l.485.049a90.851 90.851 0 0113.134 8.173c2.186-7.121 6.118-14.557 5.253-27.859-.528-9.352-.284-11.775-2.124-15.386-1.647-3.1.924-4.312 3.782-1.088a30.038 30.038 0 00-2.444-7.343l.025-.242c3.57-11.143 75.535-40.125 80.773-43.513a70.31 70.31 0 0021.175-20.63c4-5.715 7.014-13.733 7.748-25.895.246-5.48-1.441-9.817-20.5-13.965-11.439-2.49-29.136-4.913-56.433-7.474-19.9-1.756-31.577-14.676-38.212-26.6-1.211-2.569-2.445-4.9-3.68-7.222a53.108 53.108 0 01-2.831-8.36 158.47 158.47 0 0161.279-76.063c1.6-1.308-6.4.335-4.8-.972 1.868-1.525 14.063-5.927 16.367-6.919 2.813-1.186-12.044-6.84-25.159-5.466-13.357 1.349-16.194 2.776-23.323 5.486 2.959-2.639 12.366-6.1 10.161-6.075-14.4 1.978-32.3 9.479-47.6 17.973a9.676 9.676 0 01.924-4.312c-7.129 2.709-24.637 13.674-29.734 22.95a39.488 39.488 0 00.294-5.354 88.678 88.678 0 00-14.6 13.7l-.267.218c-41.347-14.925-77.732-15.891-108.522-9.2-6.736-6.061-17.566-15.226-32.892-45.4-1.041-1.817-1.6 3.755-2.4 1.961-5.955-13.813-9.553-36.444-8.962-52.046 0 0-12.318 5.614-22.513 29.06-1.893 4.215-3.107 6.54-4.32 8.865-.558.678 1.265-7.7.974-7.244-1.772 3-6.356 7.192-8.371 12.618-1.384 4.021-3.325 6.273-4.564 11.288l-.291.46c-.1-1.478.367-6.081.027-5.137a236.1 236.1 0 00-12.308 29.841c-5.489 18.046-11.879 42.61-12.892 74.565-.244 2.423-.027 5.136-.247 7.317-13 14.844-21.858 27.413-25.207 33.928-16.807 25.971-35.327 66.445-53.28 130.468a319.143 319.143 0 0128.538-49.989C52.316 418.253 37.885 471.618 35 553.8a438.522 438.522 0 0113.872-50.24c-2.578 54.8 3.805 122.74 38.449 199.393 20.57 45.087 67.921 136.649 183.62 208.1l-.01.007s39.36 29.3 107.017 51.259c5 1.814 10.065 3.6 15.234 5.333a100.503 100.503 0 01-4.715-2.052 484.883 484.883 0 00138.8 20.4c175.18.149 226.846-70.2 226.846-70.2s-.182.137-.513.377q3.708-3.491 7.143-7.257c-27.639 26.1-90.715 27.832-114.3 25.949 40.223-11.813 66.691-21.806 118.175-41.519q9.037-3.35 18.482-7.64c.681-.3 1.368-.625 2.052-.936 1.249-.582 2.486-1.132 3.747-1.744a349.205 349.205 0 0070.262-43.987c51.7-41.3 62.949-81.557 68.829-108.1-.82 2.544-3.375 8.475-5.17 12.316-13.315 28.482-42.841 45.959-74.908 60.948a688.993 688.993 0 0042.388-62.434c10.467-10.383 13.733-26.625 21.549-37.539z" fill="url(#g)"/><path d="M848.921 802.982c21.08-23.241 40.01-49.824 54.349-79.968 36.9-77.582 93.952-206.58 49.018-341.306C916.775 275.225 868.016 217 806.107 160.122 705.563 67.756 677.482 26.521 677.482 2c0 0-116.089 129.409-65.742 264.381S765.2 396.405 833.419 537.255C913.694 703 768.47 883.869 648.375 934.493c7.353-1.633 266.97-60.383 280.614-208.882-.309 2.731-6.159 43.803-80.068 77.371z" fill="url(#h)"/><path d="M512.592 321.373c.393-8.77-4.156-14.66-76.682-21.463-29.839-2.755-41.265-30.334-44.748-41.941-10.61 27.565-14.991 56.49-12.636 91.477 1.61 22.92 17.009 47.521 24.37 61.965 0 0 1.636-2.126 2.391-2.912 13.861-14.431 71.936-36.419 77.392-39.541 6.014-3.799 28.903-20.523 29.913-47.585z" fill="url(#i)"/><path d="M193.314 158.471c-1.041-1.818-1.6 3.754-2.4 1.961-5.955-13.813-9.578-36.2-8.72-52.022 0 0-12.318 5.614-22.513 29.06-1.893 4.215-3.107 6.54-4.32 8.865-.558.678 1.265-7.7.974-7.244-1.771 3-6.355 7.192-8.346 12.375-1.651 4.239-3.349 6.515-4.613 11.772-.389 1.429.392-6.323.052-5.379-23.711 45.825-28.237 115.114-25.738 112.184 50.478-53.9 108.325-66.683 108.325-66.683-6.155-4.534-19.528-17.625-32.7-44.889z" fill="url(#j)"/><path d="M384.844 722.1c-69.724-29.769-148.992-71.755-146-167.138 4.075-125.619 117.145-100.791 117.145-100.791-4.267 1.039-15.675 9.162-19.718 17.82-4.273 10.827-12.069 35.276 11.551 60.9 37.089 40.192-76.2 95.356 98.663 199.567 4.41 2.4-40.991-1.43-61.639-10.358z" fill="url(#k)"/><path d="M360.074 659.5c49.442 17.207 107.04 14.189 141.523-4.858 23.085-12.851 52.7-33.434 70.922-28.353-15.777-6.236-27.726-9.15-42.1-9.862-2.448 0-5.382-.052-8.048-.32a136.228 136.228 0 00-15.757.863c-8.9.818-18.766 6.433-27.735 5.532-.485-.049 8.7-3.774 7.953-3.605-4.752.991-9.915 1.205-15.37 1.881-3.467.386-6.449.82-9.891.963-102.982 8.733-190.017-55.813-190.017-55.813-7.408 24.95 33.166 74.3 88.521 93.572z" fill="url(#l)"/><path d="M848.738 803.646C952.9 701.376 1005.6 577.061 983.321 437.627c0 0 8.9 71.5-24.848 144.628 16.213-71.393 18.1-160.114-24.975-251.988-57.493-122.631-152.048-187.158-188.147-214.078C690.656 75.4 667.983 33.87 667.574 25.3c-16.339 33.477-65.766 148.2-5.31 247 56.64 92.564 145.865 120.039 208.328 204.947 115.075 156.42-21.854 326.399-21.854 326.399z" fill="url(#m)"/><path d="M833.814 537.551C797.412 462.35 751.978 429.55 709 394c5 7 6.232 9.473 9 14 37.827 40.316 93.607 138.656 53.11 262.107-76.229 232.375-381.143 122.95-413.11 92.212 12.932 134.489 238.036 198.845 384.6 111.63C826 795 893.468 660.788 833.814 537.551z" fill="url(#n)"/></svg>