<svg width="25" height="25" xmlns="http://www.w3.org/2000/svg"><g fill="#8698A3"><path d="M7.04 16.036l-1.31-1.062c-.091-.071-.238-.036-.328.079l-1.063 1.538.345.216.787-.839c.217 3.423 2.295 5.006 5.67 4.124l-.014-.475c-3.074.803-4.953-.553-5.22-3.649l.824.41.308-.342zm9.34-6.719l1.17 1.213c.082.082.232.065.335-.038l1.243-1.397-.317-.256-.882.737c.201-3.424-1.668-5.249-5.126-4.785v.481c3.149-.422 4.804 1.145 4.693 4.25l-.768-.507-.348.302z" stroke="#8698A3"/><path d="M4.309 9.96h-.454v.887h.454c.231 0 .419-.199.419-.444a.43.43 0 00-.42-.442zm0 1.42h-.454v.886h.454c.231 0 .419-.2.419-.445a.43.43 0 00-.42-.442z"/><path d="M2 8.66v4.906h4.528V8.66H2zm3.21 3.17c0 .553-.417 1.003-.93 1.003h-.696c-.147 0-.266-.128-.266-.287V9.682c0-.159.119-.287.266-.287h.697c.512 0 .929.45.929 1.003 0 .28-.108.536-.281.716.173.18.281.434.281.716zm1.396-6.052h.654l-.328-.946z"/><path d="M4.642 3v4.906H9.17V3H4.642zm3.377 4.152a.263.263 0 01-.348-.166l-.24-.674H6.38l-.239.674c-.048.154-.189.223-.347.166-.14-.05-.209-.226-.154-.375L6.656 3.92a.27.27 0 01.25-.185c.113 0 .212.074.251.187L8.175 6.78a.295.295 0 01-.156.373zM7.283 8.66v4.906h4.528V8.66H7.283zm2.425 3.625a.828.828 0 00.616-.298.251.251 0 01.374-.01c.105.11.109.289.008.405a1.324 1.324 0 01-.998.475c-.796 0-1.443-.769-1.443-1.714 0-.946.647-1.714 1.443-1.714.402 0 .789.2 1.06.55.094.121.078.3-.033.402a.25.25 0 01-.372-.035c-.175-.225-.406-.348-.655-.348-.505 0-.916.514-.916 1.142 0 .63.41 1.145.916 1.145zm2.947 6.487c0 .213.149.385.333.385.184 0 .333-.172.333-.385v-3.004a.389.389 0 00-.206-.355.301.301 0 00-.363.083l-.843.974a.428.428 0 000 .543c.13.15.34.15.47 0l.276-.317v2.076zm1.754-5.532l.344-.318V15c0 .212.186.384.416.384.23 0 .416-.172.416-.384v-3.005a.385.385 0 00-.257-.355.442.442 0 00-.454.083l-1.054.974a.364.364 0 000 .544.44.44 0 00.589 0zm4.367 2.173a.301.301 0 00-.363.083l-.844.974a.428.428 0 000 .543c.13.15.341.15.471 0l.275-.317v2.076c0 .213.15.385.333.385.184 0 .333-.172.333-.385v-3.004a.39.39 0 00-.205-.355zm-.756 3.773a.301.301 0 00-.362.083l-.844.974a.428.428 0 000 .544c.13.15.341.15.471 0l.276-.318v2.077c0 .212.149.384.332.384.184 0 .333-.172.333-.384v-3.005a.39.39 0 00-.205-.355z"/><path d="M17.094 17.836v-1.132c0-.728-.672-1.32-1.498-1.32h-.022c-.826 0-1.499.592-1.499 1.32v1.132c0 .728.673 1.32 1.5 1.32h.02c.827 0 1.5-.592 1.5-1.32zm-.872 0c0 .304-.28.552-.626.552h-.022c-.345 0-.626-.248-.626-.552v-1.132c0-.304.28-.552.626-.552h.022c.345 0 .626.248.626.552v1.132zm5.034-2.453h-.021c-.827 0-1.5.593-1.5 1.321v1.132c0 .728.673 1.32 1.5 1.32h.021c.826 0 1.499-.592 1.499-1.32v-1.132c0-.728-.673-1.32-1.499-1.32zm.627 2.453c0 .304-.282.552-.627.552h-.021c-.346 0-.627-.248-.627-.552v-1.132c0-.304.281-.552.627-.552h.021c.345 0 .627.248.627.552v1.132zM17.86 11.61h-.022c-.826 0-1.498.592-1.498 1.32v1.132c0 .729.672 1.321 1.498 1.321h.022c.24 0 .436-.172.436-.384 0-.212-.195-.385-.436-.385h-.022c-.345 0-.626-.247-.626-.552v-1.131c0-.305.28-.552.626-.552h.022c.345 0 .626.247.626.552 0 .212.196.384.436.384.241 0 .436-.172.436-.384 0-.729-.672-1.321-1.498-1.321zm3.396 0h-.021c-.827 0-1.5.592-1.5 1.32v1.132c0 .729.673 1.321 1.5 1.321h.021c.826 0 1.499-.592 1.499-1.32V12.93c0-.729-.673-1.321-1.499-1.321zm.627 2.452c0 .305-.282.553-.627.553h-.021c-.346 0-.627-.248-.627-.553v-1.131c0-.305.281-.552.627-.552h.021c.345 0 .627.247.627.552v1.131zm-7.043 5.095h-.02c-.827 0-1.5.593-1.5 1.321v1.131c0 .729.673 1.321 1.5 1.321h.02c.827 0 1.5-.592 1.5-1.32v-1.132c0-.728-.673-1.321-1.5-1.321zm.628 2.452c0 .305-.282.553-.627.553h-.021c-.346 0-.627-.248-.627-.553v-1.131c0-.305.281-.552.627-.552h.021c.345 0 .627.247.627.552v1.131z"/></g></svg>