<svg width="140" height="32" fill="none" xmlns="http://www.w3.org/2000/svg"><g clip-path="url(#clip0_60_57)"><path fill-rule="evenodd" clip-rule="evenodd" d="M35.454 16.427a5.93 5.93 0 01-2.17 8.101l-7.112 4.106a5.93 5.93 0 01-5.93-10.272l7.111-4.106a5.93 5.93 0 018.101 2.17zm-7.77-13.461a5.93 5.93 0 01-2.171 8.102L8.916 20.65a5.93 5.93 0 01-5.93-10.272L19.582.795a5.93 5.93 0 018.102 2.17z" fill="#49CC68"/><path d="M56.052 25.436h-3.57V7.196h-6.744V3.992h17.115v3.204h-6.8v18.24zm11.868.309c-1.536 0-2.904-.346-4.103-1.04a7.33 7.33 0 01-2.81-2.894c-.656-1.256-.984-2.69-.984-4.3 0-1.555.328-2.942.983-4.16a7.138 7.138 0 012.81-2.867c1.2-.693 2.568-1.04 4.104-1.04s2.904.347 4.103 1.04a7.137 7.137 0 012.81 2.867c.675 1.218 1.013 2.604 1.013 4.16 0 1.592-.338 3.016-1.012 4.271a7.328 7.328 0 01-2.783 2.923c-1.199.694-2.576 1.04-4.131 1.04zm0-2.895c.862 0 1.64-.224 2.333-.674.693-.468 1.227-1.106 1.602-1.911.393-.806.59-1.724.59-2.754 0-.975-.197-1.855-.59-2.642-.375-.806-.909-1.434-1.602-1.883a4.194 4.194 0 00-2.333-.675c-.862 0-1.64.225-2.333.675-.693.43-1.236 1.049-1.63 1.855-.374.787-.562 1.676-.562 2.67 0 1.049.197 1.976.59 2.782.394.806.928 1.433 1.602 1.883.694.45 1.471.674 2.333.674zM86.594 9.416c1.368 0 2.567.347 3.598 1.04 1.05.675 1.864 1.63 2.445 2.867.58 1.237.871 2.651.871 4.244 0 1.592-.29 3.007-.87 4.244-.582 1.236-1.397 2.201-2.446 2.894-1.03.675-2.23 1.012-3.598 1.012-.992 0-1.854-.178-2.585-.534-.731-.356-1.434-.984-2.108-1.883v7.87h-3.316V9.725H81.9v2.135c.674-.899 1.368-1.527 2.08-1.882.73-.375 1.602-.563 2.613-.563zm-.674 2.867c-.844 0-1.593.225-2.249.675-.655.45-1.17 1.077-1.545 1.883-.375.805-.562 1.714-.562 2.726 0 1.011.187 1.92.562 2.726.374.806.89 1.433 1.545 1.883.656.45 1.405.674 2.249.674 1.293 0 2.323-.496 3.091-1.49.769-.992 1.152-2.257 1.152-3.793 0-1.537-.383-2.801-1.152-3.794-.768-.993-1.798-1.49-3.091-1.49zm18.37-2.867c1.368 0 2.567.347 3.598 1.04 1.049.675 1.864 1.63 2.445 2.867.581 1.237.872 2.651.872 4.244 0 1.592-.291 3.007-.872 4.244-.581 1.236-1.396 2.201-2.445 2.894-1.031.675-2.23 1.012-3.598 1.012-.993 0-1.854-.178-2.585-.534-.731-.356-1.434-.984-2.108-1.883v7.87H96.28V9.725h3.316v2.135c.674-.899 1.368-1.527 2.08-1.882.731-.375 1.602-.563 2.613-.563zm-.674 2.867c-.844 0-1.593.225-2.249.675-.655.45-1.171 1.077-1.545 1.883-.375.805-.562 1.714-.562 2.726 0 1.011.187 1.92.562 2.726.374.806.89 1.433 1.545 1.883.656.45 1.405.674 2.249.674 1.293 0 2.323-.496 3.091-1.49.769-.992 1.152-2.257 1.152-3.793 0-1.537-.383-2.801-1.152-3.794-.768-.993-1.798-1.49-3.091-1.49zm17.556 13.462c-1.537 0-2.905-.346-4.104-1.04a7.441 7.441 0 01-2.754-2.894c-.656-1.237-.984-2.624-.984-4.16 0-1.424.291-2.764.871-4.019a7.397 7.397 0 012.642-3.035c1.18-.768 2.595-1.152 4.244-1.152 1.387 0 2.67.3 3.851.899 1.199.58 2.154 1.47 2.866 2.67.731 1.199 1.097 2.67 1.097 4.412v.843h-12.199c.113.731.291 1.312.535 1.743.375.88.908 1.574 1.602 2.08a4.07 4.07 0 002.417.758c.955 0 1.77-.243 2.445-.73.693-.506 1.19-1.134 1.49-1.883h3.428c-.506 1.63-1.386 2.96-2.642 3.99-1.255 1.012-2.857 1.518-4.805 1.518zm4.271-10.09c-.075-.58-.243-1.077-.505-1.489a3.705 3.705 0 00-1.546-1.49c-.656-.355-1.387-.533-2.192-.533-.825 0-1.556.178-2.193.534a3.924 3.924 0 00-1.545 1.49c-.244.374-.431.87-.563 1.489h8.544zm6.147 9.781V9.726h3.316v1.967c.619-.825 1.293-1.405 2.024-1.743.749-.337 1.63-.505 2.642-.505h.365v3.232h-.843c-1.255 0-2.22.337-2.895 1.011-.862.806-1.293 2.192-1.293 4.16v7.588h-3.316z" fill="#000"/></g><defs><clipPath id="clip0_60_57"><path fill="#fff" d="M0 0h140v31.212H0z"/></clipPath></defs></svg>