<svg width="25" height="25" xmlns="http://www.w3.org/2000/svg"><path d="M17.307 17.845H7.41V10.69c0-3.179 2.474-4.77 4.947-4.77h.002c2.473 0 4.947 1.591 4.947 4.77v7.155zm-3.712 3.578c0 .658-.553 1.192-1.236 1.192-.684 0-1.238-.534-1.238-1.192V20.23h2.475v1.193zm6.186-3.578V10.69c0-4.237-2.93-6.588-6.186-7.06V1.15c0-1.549-2.473-1.518-2.473 0v2.48c-3.256.472-6.185 2.823-6.185 7.06v7.155H3.699c-.682 0-1.236.534-1.236 1.193 0 .658.554 1.192 1.238 1.192h4.947v1.193c0 1.976 1.66 3.577 3.71 3.577s3.712-1.601 3.712-3.577V20.23h4.948c.682 0 1.237-.534 1.237-1.192 0-.659-.555-1.193-1.238-1.193h-1.236z" fill="#334758"/></svg>