<svg width="60" height="60" xmlns="http://www.w3.org/2000/svg"><g fill="none"><path d="M18.788 30.002c0 6.182 5.03 11.212 11.212 11.212 6.182 0 11.211-5.03 11.211-11.212 0-6.182-5.029-11.212-11.211-11.212s-11.212 5.03-11.212 11.212z" fill="#05C0A5"/><path d="M55.816 15.203a.492.492 0 00-.004-.495A30.185 30.185 0 0045.064 4.054 29.978 29.978 0 0030 .002c-9.172 0-17.72 4.117-23.452 11.294a.491.491 0 00-.042.552l8.445 14.628a.492.492 0 00.903-.123A14.608 14.608 0 0131.312 15.45h24.077a.49.49 0 00.427-.248z" fill="#CDF4EE"/><path d="M34.433 44.25a.49.49 0 00-.52-.173c-1.27.354-2.587.533-3.913.533-5.634 0-10.827-3.304-13.23-8.418a.55.55 0 00-.019-.037L4.704 15.289a.491.491 0 00-.426-.246h-.003a.492.492 0 00-.426.25 30.015 30.015 0 003.496 34.375 29.995 29.995 0 0018.18 10.002.492.492 0 00.499-.24l8.446-14.633a.492.492 0 00-.037-.547z" fill="#CDF4EE"/><path d="M57.477 18.733H40.564a.492.492 0 00-.344.843 14.494 14.494 0 014.388 10.426 14.504 14.504 0 01-2.631 8.356L29.909 59.26a.492.492 0 00.426.738h.005c7.942-.089 15.394-3.248 20.984-8.896C56.92 45.449 60 37.956 60 30.002c0-3.78-.695-7.467-2.065-10.957a.492.492 0 00-.458-.312z" fill="#CDF4EE"/></g></svg>