<svg xmlns="http://www.w3.org/2000/svg" viewBox="0 0 200 200"><linearGradient id="a" gradientUnits="userSpaceOnUse" x1="-1026.734" y1="6.149" x2="-1018.602" y2="6.149" gradientTransform="rotate(26.735 -5261.71 21883.64) scale(10.0445)"><stop offset="0" stop-color="#8277a6"/><stop offset="1" stop-color="#655880"/></linearGradient><path d="M28.6 149.8l71.4 36.4v-71.4l-71.4 35z" fill="url(#a)"/><linearGradient id="b" gradientUnits="userSpaceOnUse" x1="-1155.457" y1="125.474" x2="-1147.325" y2="125.474" gradientTransform="rotate(-55.713 -7828.15 -11914.977) scale(11.5701)"><stop offset="0" stop-color="#665a82"/><stop offset=".237" stop-color="#73638d"/><stop offset="1" stop-color="#b4a6d1"/></linearGradient><path d="M100.1 186.2l71.3-36.3-71.3-35.1v71.4z" fill="url(#b)"/><linearGradient id="c" gradientUnits="userSpaceOnUse" x1="-1128.907" y1="138.673" x2="-1120.774" y2="138.673" gradientTransform="rotate(-47.809 -7136.956 -12370.46) scale(10.2033)"><stop offset="0" stop-color="#b0a0ce"/><stop offset="1" stop-color="#cec6e2"/></linearGradient><path d="M100.1 114.8l71.3 35.1-29.1-55.7-42.2 20.6z" fill="url(#c)"/><linearGradient id="d" gradientUnits="userSpaceOnUse" x1="-1247.407" y1="450.767" x2="-1239.275" y2="450.767" gradientTransform="matrix(.9665 -2.8993 2.8993 .9665 -35.906 -3923.227)"><stop offset="0" stop-color="#887cae"/><stop offset="1" stop-color="#7a6e9b"/></linearGradient><path d="M28.6 149.8l71.4-35-42.1-20.7-29.3 55.7z" fill="url(#d)"/><linearGradient id="e" gradientUnits="userSpaceOnUse" x1="-1441.633" y1="-135.75" x2="-1433.501" y2="-135.75" gradientTransform="rotate(180 -3226.156 -276.803) scale(4.5518)"><stop offset="0" stop-color="#b0a0ce"/><stop offset="1" stop-color="#887cae"/></linearGradient><path d="M57.9 94.1l42.1 20.7v-101L57.9 94.1z" fill="url(#e)"/><linearGradient id="f" gradientUnits="userSpaceOnUse" x1="-858.478" y1="-93.084" x2="-850.346" y2="-93.084" gradientTransform="rotate(43.505 -2456.012 4735.99) scale(4.4274)"><stop offset="0" stop-color="#b0a0ce"/><stop offset="1" stop-color="#cec6e2"/></linearGradient><path d="M100.1 114.8l42.2-20.6-42.2-80.4v101z" fill="url(#f)"/></svg>