<svg xmlns="http://www.w3.org/2000/svg" viewBox="0 0 73 73"><linearGradient id="a" gradientUnits="userSpaceOnUse" x1="23.348" y1="75.657" x2="22.464" y2="-.341" gradientTransform="matrix(1 0 0 -1 0 74)"><stop offset=".198" stop-color="#2cd7be"/><stop offset=".651" stop-color="#2878db"/><stop offset="1" stop-color="#2400ff"/></linearGradient><path d="M12.3 32.9c0 .5.4.9.9.9h19.7c.5 0 .9-.4.9-.9V13.2c0-.5-.4-.9-.9-.9H13.2c-.5 0-.9.4-.9.9v19.7zm5.4-14.3c0-.5.4-.9.9-.9h9c.5 0 .9.4.9.9v9c0 .5-.4.9-.9.9h-9c-.5 0-.9-.4-.9-.9v-9z" fill="url(#a)"/><linearGradient id="b" gradientUnits="userSpaceOnUse" x1="23.66" y1="75.654" x2="22.776" y2="-.345" gradientTransform="matrix(1 0 0 -1 0 74)"><stop offset=".198" stop-color="#2cd7be"/><stop offset=".651" stop-color="#2878db"/><stop offset="1" stop-color="#2400ff"/></linearGradient><path d="M12.3 59.8c0 .5.4.9.9.9h19.7c.5 0 .9-.4.9-.9V40.1c0-.5-.4-.9-.9-.9H13.2c-.5 0-.9.4-.9.9v19.7zm5.4-14.4c0-.5.4-.9.9-.9h9c.5 0 .9.4.9.9v9c0 .5-.4.9-.9.9h-9c-.5 0-.9-.4-.9-.9v-9z" fill="url(#b)"/><linearGradient id="c" gradientUnits="userSpaceOnUse" x1="50.224" y1="75.345" x2="49.34" y2="-.654" gradientTransform="matrix(1 0 0 -1 0 74)"><stop offset=".198" stop-color="#2cd7be"/><stop offset=".651" stop-color="#2878db"/><stop offset="1" stop-color="#2400ff"/></linearGradient><path d="M40.1 12.3c-.5 0-.9.4-.9.9v19.7c0 .5.4.9.9.9h19.7c.5 0 .9-.4.9-.9V13.2c0-.5-.4-.9-.9-.9H40.1zm15.2 15.3c0 .5-.4.9-.9.9h-9c-.5 0-.9-.4-.9-.9v-9c0-.5.4-.9.9-.9h9c.5 0 .9.4.9.9v9z" fill="url(#c)"/><linearGradient id="d" gradientUnits="userSpaceOnUse" x1="58.693" y1="75.246" x2="57.809" y2="-.752" gradientTransform="matrix(1 0 0 -1 0 74)"><stop offset=".198" stop-color="#2cd7be"/><stop offset=".651" stop-color="#2878db"/><stop offset="1" stop-color="#2400ff"/></linearGradient><path d="M59.8 55.3h-3.6c-.5 0-.9.4-.9.9v3.6c0 .5.4.9.9.9h3.6c.5 0 .9-.4.9-.9v-3.6c0-.5-.4-.9-.9-.9z" fill="url(#d)"/><linearGradient id="e" gradientUnits="userSpaceOnUse" x1="42.38" y1="75.436" x2="41.496" y2="-.563" gradientTransform="matrix(1 0 0 -1 0 74)"><stop offset=".198" stop-color="#2cd7be"/><stop offset=".651" stop-color="#2878db"/><stop offset="1" stop-color="#2400ff"/></linearGradient><path d="M43.7 39.2h-3.6c-.5 0-.9.4-.9.9v3.6c0 .5.4.9.9.9h3.6c.5 0 .9-.4.9-.9v-3.6c0-.5-.4-.9-.9-.9z" fill="url(#e)"/><linearGradient id="f" gradientUnits="userSpaceOnUse" x1="47.817" y1="75.373" x2="46.934" y2="-.626" gradientTransform="matrix(1 0 0 -1 0 74)"><stop offset=".198" stop-color="#2cd7be"/><stop offset=".651" stop-color="#2878db"/><stop offset="1" stop-color="#2400ff"/></linearGradient><path d="M49.1 44.6h-3.6c-.5 0-.9.4-.9.9v3.6c0 .5.4.9.9.9h3.6c.5 0 .9-.4.9-.9v-3.6c-.1-.5-.5-.9-.9-.9z" fill="url(#f)"/><linearGradient id="g" gradientUnits="userSpaceOnUse" x1="42.505" y1="75.435" x2="41.621" y2="-.564" gradientTransform="matrix(1 0 0 -1 0 74)"><stop offset=".198" stop-color="#2cd7be"/><stop offset=".651" stop-color="#2878db"/><stop offset="1" stop-color="#2400ff"/></linearGradient><path d="M43.7 49.9h-3.6c-.5 0-.9.4-.9.9v3.6c0 .5.4.9.9.9h3.6c.5 0 .9-.4.9-.9v-3.6c0-.5-.4-.9-.9-.9z" fill="url(#g)"/><linearGradient id="h" gradientUnits="userSpaceOnUse" x1="47.942" y1="75.371" x2="47.059" y2="-.627" gradientTransform="matrix(1 0 0 -1 0 74)"><stop offset=".198" stop-color="#2cd7be"/><stop offset=".651" stop-color="#2878db"/><stop offset="1" stop-color="#2400ff"/></linearGradient><path d="M49.1 55.3h-3.6c-.5 0-.9.4-.9.9v3.6c0 .5.4.9.9.9h3.6c.5 0 .9-.4.9-.9v-3.6c-.1-.5-.5-.9-.9-.9z" fill="url(#h)"/><linearGradient id="i" gradientUnits="userSpaceOnUse" x1="53.255" y1="75.31" x2="52.371" y2="-.689" gradientTransform="matrix(1 0 0 -1 0 74)"><stop offset=".198" stop-color="#2cd7be"/><stop offset=".651" stop-color="#2878db"/><stop offset="1" stop-color="#2400ff"/></linearGradient><path d="M54.4 49.9h-3.6c-.5 0-.9.4-.9.9v3.6c0 .5.4.9.9.9h3.6c.5 0 .9-.4.9-.9v-3.6c0-.5-.4-.9-.9-.9z" fill="url(#i)"/><linearGradient id="j" gradientUnits="userSpaceOnUse" x1="53.13" y1="75.311" x2="52.246" y2="-.688" gradientTransform="matrix(1 0 0 -1 0 74)"><stop offset=".198" stop-color="#2cd7be"/><stop offset=".651" stop-color="#2878db"/><stop offset="1" stop-color="#2400ff"/></linearGradient><path d="M54.4 39.2h-3.6c-.5 0-.9.4-.9.9v3.6c0 .5.4.9.9.9h3.6c.5 0 .9-.4.9-.9v-3.6c0-.5-.4-.9-.9-.9z" fill="url(#j)"/><linearGradient id="k" gradientUnits="userSpaceOnUse" x1="58.568" y1="75.248" x2="57.684" y2="-.751" gradientTransform="matrix(1 0 0 -1 0 74)"><stop offset=".198" stop-color="#2cd7be"/><stop offset=".651" stop-color="#2878db"/><stop offset="1" stop-color="#2400ff"/></linearGradient><path d="M59.8 44.6h-3.6c-.5 0-.9.4-.9.9v3.6c0 .5.4.9.9.9h3.6c.5 0 .9-.4.9-.9v-3.6c0-.5-.4-.9-.9-.9z" fill="url(#k)"/></svg>