<svg width="28" height="28" fill="none" xmlns="http://www.w3.org/2000/svg"><g filter="url(#filter0_d_1035_11489)"><path d="M2.5 10.3c0-3.08 0-4.62.6-5.797a5.5 5.5 0 012.403-2.404C6.68 1.5 8.22 1.5 11.3 1.5h5.4c3.08 0 4.62 0 5.797.6A5.5 5.5 0 0124.9 4.502c.6 1.178.6 2.718.6 5.798v5.4c0 3.08 0 4.62-.6 5.797a5.5 5.5 0 01-2.403 2.404c-1.177.599-2.717.599-5.797.599h-5.4c-3.08 0-4.62 0-5.797-.6a5.5 5.5 0 01-2.404-2.403C2.5 20.32 2.5 18.78 2.5 15.7v-5.4z" fill="url(#paint0_linear_1035_11489)"/><path d="M2.877 4.39c-.321.629-.475 1.345-.551 2.277-.076.928-.076 2.091-.076 3.621v5.424c0 1.53 0 2.693.076 3.62.076.933.23 1.65.55 2.278a5.75 5.75 0 002.514 2.513c.629.321 1.345.475 2.277.551.928.076 2.091.076 3.621.076h5.424c1.53 0 2.693 0 3.62-.076.933-.076 1.65-.23 2.278-.55a5.75 5.75 0 002.513-2.514c.321-.629.475-1.345.551-2.277.076-.928.076-2.091.076-3.621v-5.424c0-1.53 0-2.693-.076-3.62-.076-.933-.23-1.65-.55-2.278a5.75 5.75 0 00-2.514-2.513c-.629-.321-1.345-.475-2.277-.551-.928-.076-2.091-.076-3.621-.076h-5.424c-1.53 0-2.693 0-3.62.076-.933.076-1.65.23-2.278.55A5.75 5.75 0 002.877 4.39z" stroke="#000" stroke-opacity=".05" stroke-width=".5"/><g filter="url(#filter1_ii_1035_11489)"><circle cx="14" cy="13" r="9.5" fill="url(#paint1_linear_1035_11489)"/></g><g filter="url(#filter2_d_1035_11489)"><path fill-rule="evenodd" clip-rule="evenodd" d="M14 4a.25.25 0 00-.25.25v1a.25.25 0 10.5 0v-1A.25.25 0 0014 4zm0 16.5a.25.25 0 00-.25.25v1a.25.25 0 10.5 0v-1a.25.25 0 00-.25-.25zm-8.863-9.063a.25.25 0 00.203.29l.984.173a.25.25 0 10.087-.492l-.985-.174a.25.25 0 00-.29.203zm16.25 2.865a.25.25 0 00.202.29l.985.174a.25.25 0 00.086-.493l-.984-.173a.25.25 0 00-.29.202zm-15.695-4.06a.25.25 0 11.171-.47l.94.342a.25.25 0 01-.171.47l-.94-.342zm15.505 5.644a.25.25 0 01.171-.47l.94.342a.25.25 0 11-.171.47l-.94-.342zM6.206 8.5a.25.25 0 00.091.341l.866.5a.25.25 0 00.25-.433l-.866-.5a.25.25 0 00-.341.092zm14.29 8.25a.25.25 0 00.09.341l.867.5a.25.25 0 10.25-.433l-.866-.5a.25.25 0 00-.342.092zM7.135 7.567a.25.25 0 11.322-.383l.766.643a.25.25 0 11-.322.383l-.766-.643zm12.64 10.606a.25.25 0 11.322-.383l.766.643a.25.25 0 11-.322.383l-.766-.643zM8.215 6.106a.25.25 0 00-.03.352l.642.766a.25.25 0 10.383-.322l-.643-.766a.25.25 0 00-.352-.03zm10.606 12.64a.25.25 0 00-.03.352l.642.766a.25.25 0 00.383-.322l-.643-.766a.25.25 0 00-.352-.03zm-9.413-13.2a.25.25 0 11.434-.25l.5.866a.25.25 0 01-.434.25l-.5-.866zm8.25 14.29a.25.25 0 11.433-.25l.5.866a.25.25 0 11-.433.25l-.5-.866zM10.922 4.543a.25.25 0 00-.15.32l.342.94a.25.25 0 00.47-.171l-.342-.94a.25.25 0 00-.32-.15zm5.643 15.505a.25.25 0 00-.15.32l.343.94a.25.25 0 10.47-.171l-.342-.94a.25.25 0 00-.32-.15zm-4.33-15.622a.25.25 0 11.492-.086l.173.984a.25.25 0 11-.492.087l-.174-.985zm2.865 16.25a.25.25 0 11.492-.087l.174.985a.25.25 0 01-.493.086l-.173-.984zM23 13a.25.25 0 00-.25-.25h-1a.25.25 0 100 .5h1A.25.25 0 0023 13zM6.5 13a.25.25 0 00-.25-.25h-1a.25.25 0 100 .5h1A.25.25 0 006.5 13zm16.074-1.766a.25.25 0 01.086.493l-.984.173a.25.25 0 11-.087-.492l.985-.174zM6.324 14.1a.25.25 0 11.087.492l-.985.174a.25.25 0 11-.086-.493l.984-.173zm16.133-4.178a.25.25 0 00-.32-.15l-.94.342a.25.25 0 00.171.47l.94-.342a.25.25 0 00.15-.32zM6.952 15.565a.25.25 0 00-.32-.15l-.94.343a.25.25 0 10.171.47l.94-.342a.25.25 0 00.15-.32zm14.5-7.156a.25.25 0 11.25.433l-.865.5a.25.25 0 11-.25-.434l.866-.5zm-14.289 8.25a.25.25 0 01.25.433l-.866.5a.25.25 0 01-.25-.433l.866-.5zM19.785 6.105a.25.25 0 00-.352.03l-.643.766a.25.25 0 10.383.322l.643-.766a.25.25 0 00-.03-.352zM9.18 18.746a.25.25 0 00-.352.03l-.643.766a.25.25 0 10.383.322l.643-.767a.25.25 0 00-.03-.352zm8.98-13.449a.25.25 0 11.433.25l-.5.866a.25.25 0 11-.433-.25l.5-.866zm-8.25 14.29a.25.25 0 11.432.25l-.5.866a.25.25 0 11-.432-.25l.5-.866zm7.17-15.044a.25.25 0 00-.321.15l-.342.939a.25.25 0 00.47.17l.342-.939a.25.25 0 00-.15-.32zm-5.644 15.505a.25.25 0 00-.32.15l-.343.939a.25.25 0 10.47.17l.342-.939a.25.25 0 00-.15-.32zM15.273 4.34a.25.25 0 01.493.086l-.174.985a.25.25 0 01-.492-.087l.173-.984zm-2.865 16.249a.25.25 0 01.492.087l-.173.985a.25.25 0 01-.493-.087l.174-.985z" fill="#fff"/></g><g filter="url(#filter3_dd_1035_11489)"><path d="M20.894 7.215l-6.09 6.743-7.698 4.827 6.09-6.743 7.698-4.827z" fill="#fff"/><path d="M20.894 7.215l-6.09 6.743-1.607-1.916 7.697-4.827z" fill="#ED6C60"/><path opacity=".3" d="M20.894 7.215l-6.09 6.742-7.698 4.828 13.788-11.57z" fill="#000"/></g></g><defs><filter id="filter0_d_1035_11489" x="0" y="0" width="28" height="28" filterUnits="userSpaceOnUse" color-interpolation-filters="sRGB"><feFlood flood-opacity="0" result="BackgroundImageFix"/><feColorMatrix in="SourceAlpha" values="0 0 0 0 0 0 0 0 0 0 0 0 0 0 0 0 0 0 127 0" result="hardAlpha"/><feOffset dy="1"/><feGaussianBlur stdDeviation="1"/><feColorMatrix values="0 0 0 0 0 0 0 0 0 0 0 0 0 0 0 0 0 0 0.25 0"/><feBlend in2="BackgroundImageFix" result="effect1_dropShadow_1035_11489"/><feBlend in="SourceGraphic" in2="effect1_dropShadow_1035_11489" result="shape"/></filter><filter id="filter1_ii_1035_11489" x="4.5" y="2.5" width="19" height="21" filterUnits="userSpaceOnUse" color-interpolation-filters="sRGB"><feFlood flood-opacity="0" result="BackgroundImageFix"/><feBlend in="SourceGraphic" in2="BackgroundImageFix" result="shape"/><feColorMatrix in="SourceAlpha" values="0 0 0 0 0 0 0 0 0 0 0 0 0 0 0 0 0 0 127 0" result="hardAlpha"/><feOffset dy="1"/><feGaussianBlur stdDeviation=".75"/><feComposite in2="hardAlpha" operator="arithmetic" k2="-1" k3="1"/><feColorMatrix values="0 0 0 0 0 0 0 0 0 0 0 0 0 0 0 0 0 0 0.4 0"/><feBlend in2="shape" result="effect1_innerShadow_1035_11489"/><feColorMatrix in="SourceAlpha" values="0 0 0 0 0 0 0 0 0 0 0 0 0 0 0 0 0 0 127 0" result="hardAlpha"/><feOffset dy="-1"/><feGaussianBlur stdDeviation=".5"/><feComposite in2="hardAlpha" operator="arithmetic" k2="-1" k3="1"/><feColorMatrix values="0 0 0 0 1 0 0 0 0 1 0 0 0 0 1 0 0 0 0.3 0"/><feBlend mode="overlay" in2="effect1_innerShadow_1035_11489" result="effect2_innerShadow_1035_11489"/></filter><filter id="filter2_d_1035_11489" x="4.3" y="3.8" width="19.4" height="19.4" filterUnits="userSpaceOnUse" color-interpolation-filters="sRGB"><feFlood flood-opacity="0" result="BackgroundImageFix"/><feColorMatrix in="SourceAlpha" values="0 0 0 0 0 0 0 0 0 0 0 0 0 0 0 0 0 0 127 0" result="hardAlpha"/><feOffset dy=".5"/><feGaussianBlur stdDeviation=".35"/><feComposite in2="hardAlpha" operator="out"/><feColorMatrix values="0 0 0 0 0 0 0 0 0 0 0 0 0 0 0 0 0 0 0.4 0"/><feBlend in2="BackgroundImageFix" result="effect1_dropShadow_1035_11489"/><feBlend in="SourceGraphic" in2="effect1_dropShadow_1035_11489" result="shape"/></filter><filter id="filter3_dd_1035_11489" x="4.106" y="6.215" width="19.789" height="17.57" filterUnits="userSpaceOnUse" color-interpolation-filters="sRGB"><feFlood flood-opacity="0" result="BackgroundImageFix"/><feColorMatrix in="SourceAlpha" values="0 0 0 0 0 0 0 0 0 0 0 0 0 0 0 0 0 0 127 0" result="hardAlpha"/><feOffset dy="2"/><feGaussianBlur stdDeviation="1.5"/><feColorMatrix values="0 0 0 0 0 0 0 0 0 0 0 0 0 0 0 0 0 0 0.55 0"/><feBlend in2="BackgroundImageFix" result="effect1_dropShadow_1035_11489"/><feColorMatrix in="SourceAlpha" values="0 0 0 0 0 0 0 0 0 0 0 0 0 0 0 0 0 0 127 0" result="hardAlpha"/><feOffset dy=".5"/><feGaussianBlur stdDeviation=".5"/><feColorMatrix values="0 0 0 0 0 0 0 0 0 0 0 0 0 0 0 0 0 0 0.25 0"/><feBlend in2="effect1_dropShadow_1035_11489" result="effect2_dropShadow_1035_11489"/><feBlend in="SourceGraphic" in2="effect2_dropShadow_1035_11489" result="shape"/></filter><linearGradient id="paint0_linear_1035_11489" x1="14" y1="1.5" x2="14" y2="24.5" gradientUnits="userSpaceOnUse"><stop stop-color="#FDFDFD"/><stop offset="1" stop-color="#D1D1D1"/></linearGradient><linearGradient id="paint1_linear_1035_11489" x1="14" y1="3.5" x2="14" y2="22.5" gradientUnits="userSpaceOnUse"><stop stop-color="#4DA0E8"/><stop offset=".516" stop-color="#4993E9"/><stop offset="1" stop-color="#356BDB"/></linearGradient></defs></svg>