<svg xmlns="http://www.w3.org/2000/svg" viewBox="0 0 60 60"><linearGradient id="a" gradientUnits="userSpaceOnUse" x1="55.455" y1="-2.489" x2="5.955" y2="60.691"><stop offset="0" stop-color="#0fb"/><stop offset=".102" stop-color="#02f7be"/><stop offset=".263" stop-color="#07e0c6"/><stop offset=".463" stop-color="#0ebbd2"/><stop offset=".694" stop-color="#1987e4"/><stop offset=".949" stop-color="#2746fa"/><stop offset="1" stop-color="#2a38ff"/></linearGradient><path d="M47.5 60h-35C5.6 60 0 54.4 0 47.5v-35C0 5.6 5.6 0 12.5 0h35C54.4 0 60 5.6 60 12.5v35C60 54.4 54.4 60 47.5 60z" fill="url(#a)"/><path d="M31.9 15.3c-.3 0-.6.2-.6.6v12.2c0 .3.2.6.6.6h12.2c.3 0 .6-.2.6-.6V15.9c0-.3-.2-.6-.6-.6H31.9zm9.5 9.5c0 .3-.2.6-.6.6h-5.6c-.3 0-.6-.2-.6-.6v-5.6c0-.3.2-.6.6-.6h5.6c.3 0 .6.2.6.6v5.6zm-26.8 3.3c0 .3.2.6.6.6h12.2c.3 0 .6-.2.6-.6V15.9c0-.3-.2-.6-.6-.6H15.2c-.3 0-.6.2-.6.6v12.2zm3.3-8.9c0-.3.2-.6.6-.6h5.6c.3 0 .6.2.6.6v5.6c0 .3-.2.6-.6.6h-5.6c-.3 0-.6-.2-.6-.6v-5.6zm-3.3 25.6c0 .3.2.6.6.6h12.2c.3 0 .6-.2.6-.6V32.6c0-.3-.2-.6-.6-.6H15.2c-.3 0-.6.2-.6.6v12.2zm3.3-8.9c0-.3.2-.6.6-.6h5.6c.3 0 .6.2.6.6v5.6c0 .3-.2.6-.6.6h-5.6c-.3 0-.6-.2-.6-.6v-5.6zm26.2 6.2h-2.3c-.3 0-.6.2-.6.6V45c0 .3.2.6.6.6h2.3c.3 0 .6-.2.6-.6v-2.3c0-.4-.3-.6-.6-.6zM34.1 32h-2.3c-.3 0-.6.2-.6.6v2.3c0 .3.2.6.6.6h2.3c.3 0 .6-.2.6-.6v-2.3c0-.3-.3-.6-.6-.6zm3.3 3.4h-2.3c-.3 0-.6.2-.6.6v2.2c0 .3.2.6.6.6h2.3c.3 0 .6-.2.6-.6v-2.3c0-.3-.3-.5-.6-.5zm-3.3 3.3h-2.3c-.3 0-.6.2-.6.6v2.3c0 .3.2.6.6.6h2.3c.3 0 .6-.2.6-.6v-2.3c0-.4-.3-.6-.6-.6zm3.3 3.4h-2.3c-.3 0-.6.2-.6.6V45c0 .3.2.6.6.6h2.3c.3 0 .6-.2.6-.6v-2.3c0-.4-.3-.6-.6-.6zm3.4-3.4h-2.3c-.3 0-.6.2-.6.6v2.3c0 .3.2.6.6.6h2.3c.3 0 .6-.2.6-.6v-2.3c0-.4-.3-.6-.6-.6zm0-6.7h-2.3c-.3 0-.6.2-.6.6v2.3c0 .3.2.6.6.6h2.3c.3 0 .6-.2.6-.6v-2.3c0-.3-.3-.6-.6-.6zm3.3 3.4h-2.3c-.3 0-.6.2-.6.6v2.2c0 .3.2.6.6.6h2.3c.3 0 .6-.2.6-.6v-2.3c0-.3-.3-.5-.6-.5z" fill="#fff"/></svg>