<svg width="63" height="57" xmlns="http://www.w3.org/2000/svg"><g fill="none" fill-rule="evenodd"><path d="M1.09 12.273h61.334v40.444a4 4 0 01-4 4H5.091a4 4 0 01-4-4V12.273z" fill="#CDF4EE"/><path d="M.97 12.848h61.333v-8a4 4 0 00-4-4H4.97a4 4 0 00-4 4v8z" fill="#5A78F0"/><path d="M54.84 4.74a1.852 1.852 0 010 3.704h-3.704a1.852 1.852 0 010-3.703h3.704zm-11.112 0a1.852 1.852 0 010 3.704h-3.703a1.852 1.852 0 010-3.703h3.703zm-11.11 0a1.852 1.852 0 010 3.704h-3.704a1.852 1.852 0 010-3.703h3.703z" fill="#FFF" fill-rule="nonzero"/><path d="M15.89 35.65c-.54-.288-.89-.911-.89-1.588v-.125c0-.678.35-1.301.89-1.587l7.921-4.188a1.393 1.393 0 011.478.112c.445.322.711.874.711 1.475v.046c0 .678-.35 1.3-.891 1.587l-4.954 2.617 4.954 2.618c.541.285.891.908.891 1.587v.046c0 .6-.266 1.152-.711 1.475a1.379 1.379 0 01-1.477.112L15.89 35.65zm13.403 4.686a1.707 1.707 0 01-.222-1.446l2.915-10.766c.203-.672.786-1.124 1.452-1.124h.039c.485 0 .945.248 1.23.664.287.416.369.957.22 1.447l-2.914 10.765c-.203.672-.785 1.124-1.45 1.124h-.04c-.484 0-.944-.248-1.23-.664zM38 29.794v-.045c0-.601.266-1.153.712-1.476a1.39 1.39 0 011.476-.112l7.921 4.188c.542.287.891.91.891 1.588v.125c0 .677-.35 1.3-.89 1.587l-7.921 4.188a1.382 1.382 0 01-1.477-.112c-.446-.324-.712-.875-.712-1.475v-.046c0-.679.35-1.302.89-1.588L43.846 34l-4.954-2.617c-.542-.287-.891-.91-.891-1.588z" fill="#00C0A5" fill-rule="nonzero"/></g></svg>