<svg width="32" height="32" xmlns="http://www.w3.org/2000/svg"><g transform="translate(1 1)" fill="none" fill-rule="evenodd"><path d="M21.458 17.433c-.389.896-.576 1.297-1.076 2.088-.7 1.105-1.689 2.485-2.909 2.494-1.086.01-1.367-.736-2.842-.723-1.473.008-1.78.738-2.869.726-1.221-.012-2.155-1.255-2.856-2.358-1.958-3.096-2.165-6.725-.955-8.655.857-1.368 2.21-2.173 3.483-2.173 1.296 0 2.11.739 3.182.739 1.04 0 1.672-.74 3.172-.74 1.132 0 2.33.64 3.187 1.746-2.801 1.593-2.346 5.744.483 6.856zm-4.81-9.837c.546-.727.96-1.752.81-2.796-.89.063-1.93.652-2.536 1.415-.551.696-1.008 1.728-.83 2.727.97.032 1.975-.569 2.557-1.346z" fill="#0B1A40" fill-rule="nonzero"/><circle stroke="#0B1A40" cx="15" cy="15" r="15"/></g></svg>