<svg width="65" height="59" xmlns="http://www.w3.org/2000/svg"><g fill="none" fill-rule="evenodd"><path d="M52.966 20.24c-1.322 0-3.77.744-5.363 2.235-1.822 1.705-2.71 4.268-2.71 5.778 0 1.493.437 4.775 2.23 6.686 1.607 1.713 4.504 2.145 5.843 2.145h11.986V20.241H52.966z" fill="#5A78F0" fill-rule="nonzero"/><path d="M53.247 20.24h11.705V10.135H12.89c-1.063 0-2.682-.565-3.58-1.482-.896-.916-1.23-2.368-1.437-2.965V38.77c0 4.65 3.743 8.421 8.361 8.421h48.718V37.084H53.247c-4.61 0-8.362-3.778-8.362-8.422 0-4.643 3.751-8.421 8.362-8.421z" fill="#CDF4EE" fill-rule="nonzero"/><path d="M12.874 0c-2.762 0-5.001 2.298-5.001 5.133s2.239 5.034 5 5.034h45.23V0h-45.23z" fill="#00C0A5" fill-rule="nonzero"/><circle fill="#FFF" fill-rule="nonzero" cx="52.393" cy="28.741" r="2.5"/><g transform="translate(0 25.54)"><ellipse fill="#05C0A5" cx="13.957" cy="13.993" rx="13.957" ry="13.993"/><path d="M13.957 23.232a9.346 9.346 0 100-18.692 9.346 9.346 0 000 18.692z" fill="#CDF4EE"/><path d="M24.717 20.304l8.207 8.119a2.705 2.705 0 010 3.846 2.764 2.764 0 01-3.888 0L20.83 24.15a2.705 2.705 0 010-3.846 2.764 2.764 0 013.887 0z" fill="#05C0A5"/></g></g></svg>