<svg width="38" height="38" xmlns="http://www.w3.org/2000/svg"><g transform="translate(0 1)" fill="none" fill-rule="evenodd"><circle stroke="#00C0A5" cx="18.856" cy="18" r="18"/><path d="M29 9.624a.625.625 0 00-.196-.455A.68.68 0 0028.34 9h-.002c-.171.01-4.093.284-7.123 3.371A10.498 10.498 0 0019 12.125c-.758 0-1.498.091-2.216.246C13.753 9.284 9.83 9.01 9.66 9a.68.68 0 00-.463.169.625.625 0 00-.196.455c0 .05.005 5.012.405 8.91A7.219 7.219 0 009 20.875v1.217c0 1.076.379 2.098 1.067 2.88A11.923 11.923 0 0019 29a11.92 11.92 0 008.933-4.03A4.342 4.342 0 0029 22.092v-1.217c0-.804-.148-1.589-.405-2.341.4-3.898.405-8.86.405-8.91zM19.481 13c.517 0 1.023.055 1.519.15L19.481 15 18 13.143A8.16 8.16 0 0119.481 13zm-9.258 3c-.163-2.4-.21-4.837-.223-6 1.043.187 3.155.761 5 2.392-1.97.72-3.657 2.01-4.777 3.608zM14 19c0-.551.674-1 1.5-1 .827 0 1.5.449 1.5 1 0 .551-.673 1-1.5 1s-1.5-.449-1.5-1zm8.984 4.813A4.062 4.062 0 0118.999 27a4.06 4.06 0 01-3.983-3.188.669.669 0 01.13-.563.672.672 0 01.52-.249h6.666a.667.667 0 01.652.813zM22.5 20c-.826 0-1.5-.449-1.5-1 0-.551.674-1 1.5-1s1.5.449 1.5 1c0 .551-.674 1-1.5 1zm5.277-4c-1.12-1.6-2.805-2.888-4.777-3.61 1.844-1.63 3.957-2.203 5-2.39-.013 1.163-.06 3.6-.223 6z" fill="#00C0A5" fill-rule="nonzero"/></g></svg>