<svg width="13" height="17" xmlns="http://www.w3.org/2000/svg"><path d="M7.29 1.249C7.858.553 8.814.035 9.603 0c.101.967-.27 1.935-.817 2.633-.549.696-1.446 1.238-2.327 1.166-.12-.946.324-1.932.833-2.55m4.49 13.188c-.655 1.005-1.332 2.004-2.402 2.025-1.052.02-1.39-.654-2.59-.654-1.203 0-1.58.633-2.573.675-1.032.04-1.817-1.086-2.477-2.086C.39 12.352-.64 8.614.745 6.091 1.43 4.84 2.659 4.046 3.99 4.025c1.014-.02 1.972.718 2.591.718.62 0 1.783-.885 3.005-.755.512.022 1.948.216 2.87 1.632-.073.05-1.714 1.052-1.694 3.14.02 2.493 2.082 3.32 2.106 3.332-.019.059-.33 1.183-1.087 2.345" fill="#FFF"/></svg>