<svg version="1.1" id="Layer_1" xmlns="http://www.w3.org/2000/svg" x="0" y="0" viewBox="0 0 48 46" xml:space="preserve"><style>.st0,.st1{fill:none;stroke:#fff;stroke-width:3;stroke-miterlimit:10}.st1{stroke-width:2}</style><path class="st0" d="M40.6 31.6h-33c-.6 0-1.2-.5-1.2-1.2V12.9c0-1.9 1.5-3.5 3.5-3.5h28.5c1.9 0 3.5 1.5 3.5 3.5v17.5c-.1.7-.6 1.2-1.3 1.2z"/><path class="st0" d="M39.3 37.4H8.7c-2.5 0-4.5-2-4.5-4.5 0-.7.6-1.3 1.3-1.3h37c.7 0 1.3.6 1.3 1.3 0 2.5-2 4.5-4.5 4.5z"/><path class="st1" d="M13.8 25.8l5.9-6 5.9 6.3 8.6-8.8"/><path class="st1" d="M29.5 16.5h5.8v5.2"/></svg>