<svg xmlns="http://www.w3.org/2000/svg" fill="none" aria-hidden="true" viewBox="0 0 28 20"><path fill="#fff" d="M0 0h28v20H0V0z"/><path fill="#DF1E35" fill-rule="evenodd" d="M0 6.667h28V0H0v6.667z" clip-rule="evenodd"/><path fill="#262626" fill-rule="evenodd" d="M0 20h28v-6.667H0V20z" clip-rule="evenodd"/><path fill="#0F7A40" fill-rule="evenodd" d="M18.667 8.54c0-.248.26-.41.482-.299l.667.334a.333.333 0 01.184.298v2.794c0 .184-.15.333-.333.333H19a.334.334 0 01-.333-.333V8.54v.001zm-8 0c0-.248.26-.41.482-.299l.667.334a.333.333 0 01.184.298v2.794c0 .184-.15.333-.333.333H11a.334.334 0 01-.333-.333V8.54v.001zM16 8.873c0-.127.071-.242.184-.298l.667-.334c.222-.11.482.05.482.298v3.128A.332.332 0 0117 12h-.667a.334.334 0 01-.333-.333V8.873z" clip-rule="evenodd"/><path fill="#0F7A40" fill-rule="evenodd" d="M13.333 10.206c0-.126.072-.242.185-.298l.666-.333a.334.334 0 01.483.298v.853h2V12h-3a.333.333 0 01-.334-.333v-1.461zm-5.333 0c0-.126.071-.242.184-.298l.667-.333a.333.333 0 01.482.298v.853h2V12h-3A.332.332 0 018 11.667v-1.461z" clip-rule="evenodd"/></svg>