<svg xmlns="http://www.w3.org/2000/svg" viewBox="0 0 238 243.8"><radialGradient id="a" cx="118.415" cy="36.932" r="71.686" gradientTransform="matrix(1 0 0 1.1815 0 -6.702)" gradientUnits="userSpaceOnUse"><stop offset=".2" stop-color="#e6e7e8"/><stop offset=".341" stop-color="#e2e3e4"/><stop offset=".488" stop-color="#d5d6d8"/><stop offset=".637" stop-color="#c1c2c3"/><stop offset=".787" stop-color="#a4a5a6"/><stop offset=".938" stop-color="#7f8081"/><stop offset="1" stop-color="#6d6e70"/></radialGradient><path d="M183.9 68.8c2.6-7.3 3.9-13.6 4.2-19.2-19-15.2-43.1-24.3-69.3-24.3-26.1 0-50 9-69 24.1.3 5.6 1.5 12 4.1 19.3 18.9-11.4 41.1-18 64.9-18 23.8-.1 46.1 6.6 65.1 18.1z" fill="url(#a)"/><linearGradient id="b" gradientUnits="userSpaceOnUse" x1="212.219" y1="74.615" x2="133.818" y2="210.409"><stop offset=".2" stop-color="#e6e7e8"/><stop offset=".341" stop-color="#e2e3e4"/><stop offset=".488" stop-color="#d5d6d8"/><stop offset=".637" stop-color="#c1c2c3"/><stop offset=".787" stop-color="#a4a5a6"/><stop offset=".938" stop-color="#7f8081"/><stop offset="1" stop-color="#6d6e70"/></linearGradient><path d="M200.4 104.2l-61.3 106.2c-.3.6-.7 1.1-1 1.7 7.3 6.9 14.9 10.9 22.3 12.9 6.9-6.2 13.8-14.5 20.2-25.5 14.7-25.5 28.1-48.6 31.3-54.1 23-39.9 7.9-68 7.1-69.5v-.1c-8.7-15.1-10.8-23.7-24.4-40.8 15.1 20.3 18.4 47.4 5.8 69.2z" fill="url(#b)"/><radialGradient id="c" cx="60.895" cy="158.153" r="219.678" gradientTransform="matrix(.8717 -.4901 .3047 .542 -40.378 102.284)" gradientUnits="userSpaceOnUse"><stop offset=".2" stop-color="#e6e7e8"/><stop offset=".341" stop-color="#e2e3e4"/><stop offset=".488" stop-color="#d5d6d8"/><stop offset=".637" stop-color="#c1c2c3"/><stop offset=".787" stop-color="#a4a5a6"/><stop offset=".938" stop-color="#7f8081"/><stop offset="1" stop-color="#6d6e70"/></radialGradient><path d="M98.8 210.5L37.5 104.2C26.2 84.7 27.7 60.9 39 41.6c-13.6 20-7.1 11.3-20 34.3L18 78c-3.2 7.3-11.8 33 8.1 67.4 3.2 5.5 16.6 28.7 31.3 54.1 19.1 33.2 43.7 41.4 54.8 43.4 3.5.5 5.8.7 5.8.7s6.7 1.4 39.9-5.1c-20 3.5-43.2-.4-59.1-28z" fill="url(#c)"/><radialGradient id="d" cx="85.229" cy="152.226" r="209.139" gradientTransform="matrix(.8534 -.5212 .3285 .5378 -37.51 114.775)" gradientUnits="userSpaceOnUse"><stop offset=".2" stop-color="#3c479c"/><stop offset=".367" stop-color="#3a4598"/><stop offset=".541" stop-color="#353e8b"/><stop offset=".718" stop-color="#2d3377"/><stop offset=".895" stop-color="#21235a"/><stop offset="1" stop-color="#181845"/></radialGradient><path d="M57.4 199.6c-14.7-25.5-28.1-48.6-31.3-54.1-23.6-41-7.1-69.6-7.1-69.6s-34.1 58.9-11 98.9c0 0 11 18.9 18.7 32.3 21.1 36.5 91.2 36.5 91.2 36.5s-35 .1-60.5-44zm67.7-4.3c-14.8-25.7-55.8-96.5-62.7-108.6-29.2-51 1.1-69.4 2.1-70.1-31.9 18.2-44.2 57.9-27.1 87.6l61.3 106.2c33.5 58 98.9 11.7 98.9 11.7s-44.5 21.6-72.5-26.8z" fill="url(#d)"/><linearGradient id="e" gradientUnits="userSpaceOnUse" x1="213.822" y1="74.648" x2="140.193" y2="202.177"><stop offset=".2" stop-color="#3c479c"/><stop offset=".367" stop-color="#3a4598"/><stop offset=".541" stop-color="#353e8b"/><stop offset=".718" stop-color="#2d3377"/><stop offset=".895" stop-color="#21235a"/><stop offset="1" stop-color="#181845"/></linearGradient><path d="M173.4 16.6c1.1.6 31.3 19 2.1 70.1-6.1 10.7-38.8 67.1-56.5 97.9 2.3 4.1 4.4 7.7 6.2 10.7 4 7 8.4 12.5 13 16.9.3-.6.7-1.1 1-1.7l61.3-106.2c17.1-29.8 4.7-69.5-27.1-87.7zm45.5 59.3s16.5 28.6-7.1 69.5c-3.2 5.5-16.6 28.7-31.3 54.1-6.4 11-13.3 19.3-20.2 25.5 19.6 5.4 36.8-2.7 37.3-2.9 5.5-4.1 10.1-9.1 13.5-15 7.7-13.4 18.7-32.3 18.7-32.3 23.3-40-10.9-98.9-10.9-98.9z" fill="url(#e)"/><radialGradient id="f" cx="119.224" cy="19.54" r="71.146" gradientTransform="matrix(1 0 0 1.5516 0 -10.778)" gradientUnits="userSpaceOnUse"><stop offset=".2" stop-color="#3c479c"/><stop offset=".367" stop-color="#3a4598"/><stop offset=".541" stop-color="#353e8b"/><stop offset=".718" stop-color="#2d3377"/><stop offset=".895" stop-color="#21235a"/><stop offset="1" stop-color="#181845"/></radialGradient><path d="M54 68.7c2 5.5 4.7 11.5 8.5 18 .1.3.3.5.5.8 17.1-7.5 36-11.6 55.9-11.6 20 0 38.9 4.2 56.1 11.7.2-.3.4-.7.5-.9 3.7-6.5 6.5-12.4 8.4-17.9-19-11.5-41.3-18.2-65.1-18.2-23.7 0-45.9 6.6-64.8 18.1zm122.8-49.4C160.6 7.2 140.6 0 118.8 0c-20.9 0-40.2 6.6-56 17.8-4.1 3.2-13.9 12.8-13 31.5 18.9-15.1 42.9-24.1 69-24.1 26.2 0 50.3 9.1 69.3 24.3.9-16.5-6.7-26-11.3-30.2z" fill="url(#f)"/></svg>