<svg xmlns="http://www.w3.org/2000/svg" fill="none" aria-hidden="true" viewBox="0 0 28 20"><path fill="#fff" d="M0 0h28v20H0V0z"/><path fill="#262626" fill-rule="evenodd" d="M0 5.333h28V0H0v5.333z" clip-rule="evenodd"/><path fill="#018301" fill-rule="evenodd" d="M0 20h28v-5.333H0V20z" clip-rule="evenodd"/><path fill="#fff" fill-rule="evenodd" d="M0 14.667h28V5.333H0v9.334z" clip-rule="evenodd"/><path fill="#DC0808" fill-rule="evenodd" d="M0 13.333h28V6.667H0v6.666z" clip-rule="evenodd"/><path fill="#BC0000" fill-rule="evenodd" d="M14 16.667c1.333 0 3.333-2.617 3.333-6.667s-2-6.667-3.333-6.667c-1.333 0-3.333 2.617-3.333 6.667s2 6.667 3.333 6.667z" clip-rule="evenodd"/><mask id="a" width="8" height="14" x="10" y="3" maskUnits="userSpaceOnUse"><path fill="#fff" fill-rule="evenodd" d="M14 16.667c1.333 0 3.333-2.617 3.333-6.667s-2-6.667-3.333-6.667c-1.333 0-3.333 2.617-3.333 6.667s2 6.667 3.333 6.667z" clip-rule="evenodd"/></mask><g mask="url(#a)"><path fill="#262626" fill-rule="evenodd" d="M8.667 17.333C10.507 17.333 12 14.05 12 10c0-4.05-1.492-7.333-3.333-7.333-1.841 0-3.334 3.283-3.334 7.333 0 4.05 1.493 7.333 3.334 7.333zm10.666 0c1.841 0 3.334-3.283 3.334-7.333 0-4.05-1.493-7.333-3.334-7.333C17.493 2.667 16 5.95 16 10c0 4.05 1.492 7.333 3.333 7.333z" clip-rule="evenodd"/><g filter="url(#filter0_d)"><path fill="url(#paint0_linear)" fill-rule="evenodd" d="M14 8c.368 0 .667-1.194.667-2.667 0-1.472-.299-2.666-.667-2.666-.368 0-.667 1.194-.667 2.666C13.333 6.806 13.632 8 14 8zm0 4c.368 0 .667-.895.667-2S14.368 8 14 8c-.368 0-.667.895-.667 2s.299 2 .667 2zm0 0c-.368 0-.667 1.194-.667 2.667 0 1.472.299 2.666.667 2.666.368 0 .667-1.194.667-2.666 0-1.473-.299-2.667-.667-2.667z" clip-rule="evenodd"/></g></g><defs><linearGradient id="paint0_linear" x1="13.333" x2="13.333" y1="2.667" y2="17.333" gradientUnits="userSpaceOnUse"><stop stop-color="#fff"/><stop offset="1" stop-color="#F0F0F0"/></linearGradient><filter id="filter0_d" width="9.334" height="22.666" x="9.333" y="-.333" color-interpolation-filters="sRGB" filterUnits="userSpaceOnUse"><feFlood flood-opacity="0" result="BackgroundImageFix"/><feColorMatrix in="SourceAlpha" values="0 0 0 0 0 0 0 0 0 0 0 0 0 0 0 0 0 0 127 0"/><feOffset dy="1"/><feGaussianBlur stdDeviation="2"/><feColorMatrix values="0 0 0 0 0 0 0 0 0 0 0 0 0 0 0 0 0 0 0.06 0"/><feBlend in2="BackgroundImageFix" result="effect1_dropShadow"/><feBlend in="SourceGraphic" in2="effect1_dropShadow" result="shape"/></filter></defs></svg>