<svg xmlns="http://www.w3.org/2000/svg" fill="none" aria-hidden="true" viewBox="0 0 28 20"><path fill="#fff" d="M0 0h28v20H0V0z"/><path fill="#07319C" d="M0 0h28v20H0V0z"/><path fill="#FAD051" fill-rule="evenodd" d="M20.667 6.667c1.104 0 2-.597 2-1.334 0-.736-.896-1.333-2-1.333-1.105 0-2 .597-2 1.333 0 .737.895 1.334 2 1.334z" clip-rule="evenodd"/><path fill="url(#paint0_linear)" fill-rule="evenodd" d="M17.333 10V5.333H24V10c0 3.333-3.333 4.667-3.333 4.667S17.333 13.333 17.333 10z" clip-rule="evenodd"/><mask id="a" width="7" height="10" x="17" y="5" maskUnits="userSpaceOnUse"><path fill="#fff" fill-rule="evenodd" d="M17.333 10V5.333H24V10c0 3.333-3.333 4.667-3.333 4.667S17.333 13.333 17.333 10z" clip-rule="evenodd"/></mask><g fill-rule="evenodd" clip-rule="evenodd" mask="url(#a)"><path fill="#CF142C" d="M17.333 5.333H24v1.334h-6.667V5.333z"/><path fill="#125FBA" d="M24 8h-6.667v1.333H24V8zm-6.667 2.667H24V12h-6.667v-1.333zm0 2.666H24v1.334h-6.667v-1.334z"/></g><defs><linearGradient id="paint0_linear" x1="17.333" x2="17.333" y1="5.333" y2="14.667" gradientUnits="userSpaceOnUse"><stop stop-color="#fff"/><stop offset="1" stop-color="#F0F0F0"/></linearGradient></defs></svg>