<svg width="223" height="179" fill="none" xmlns="http://www.w3.org/2000/svg"><path fill-rule="evenodd" clip-rule="evenodd" d="M163.415 152.376c7.197 0 13.03-5.833 13.03-13.029 0-7.197-5.833-13.03-13.03-13.03-7.196 0-13.029 5.833-13.029 13.03 0 7.196 5.833 13.029 13.029 13.029zm0 2.172c8.396 0 15.202-6.806 15.202-15.201 0-8.396-6.806-15.202-15.202-15.202-8.395 0-15.201 6.806-15.201 15.202 0 8.395 6.806 15.201 15.201 15.201z" fill="#C4C4C4"/><path fill-rule="evenodd" clip-rule="evenodd" d="M1.086 112.201c-.6 0-1.086.486-1.086 1.086v52.119c0 .6.486 1.086 1.086 1.086h180.789c.6 0 1.086-.486 1.086-1.086v-52.119c0-.6-.486-1.086-1.086-1.086H1.085zm162.601 38.004c5.847 0 10.587-4.74 10.587-10.587 0-5.847-4.74-10.587-10.587-10.587-5.846 0-10.586 4.74-10.586 10.587 0 5.847 4.74 10.587 10.586 10.587z" fill="#444"/><path fill-rule="evenodd" clip-rule="evenodd" d="M2.172 114.373v49.948h178.617v-49.948H2.172zm174.274 25.245c0 7.046-5.712 12.759-12.759 12.759-7.046 0-12.758-5.713-12.758-12.759s5.712-12.758 12.758-12.758c7.047 0 12.759 5.712 12.759 12.758zM0 113.287c0-.6.486-1.086 1.086-1.086h180.789c.6 0 1.086.486 1.086 1.086v52.119c0 .6-.486 1.086-1.086 1.086H1.085A1.086 1.086 0 010 165.406v-52.119zm174.274 26.331c0 5.847-4.74 10.587-10.587 10.587-5.846 0-10.586-4.74-10.586-10.587 0-5.847 4.74-10.587 10.586-10.587 5.847 0 10.587 4.74 10.587 10.587z" fill="#444"/><path d="M22.503 123.018a2 2 0 012-2h101.484a2 2 0 012 2v33.587a2 2 0 01-2 2H24.503a2 2 0 01-2-2v-33.587z" fill="#fff" fill-opacity=".12"/><path d="M51.55 140.32h-3.674v2.793h4.295v1.259h-5.85v-9.076h5.807v1.272h-4.252v2.506h3.674v1.246zm3.613-4.332v1.64h1.173v1.122h-1.173v3.765c0 .257.049.444.147.561.103.112.283.168.54.168.173 0 .347-.021.523-.062v1.172a3.65 3.65 0 01-.983.143c-1.147 0-1.72-.642-1.72-1.926v-3.821h-1.094v-1.122h1.094v-1.64h1.493zm3.791 2.375c.487-.573 1.103-.86 1.849-.86 1.417 0 2.136.821 2.157 2.462v4.407h-1.493v-4.351c0-.465-.1-.794-.301-.985-.197-.195-.488-.293-.873-.293-.598 0-1.044.27-1.34.811v4.818h-1.492v-9.575h1.493v3.566zm8.448 6.134c-.947 0-1.715-.301-2.304-.904-.586-.607-.879-1.413-.879-2.419v-.187c0-.673.127-1.273.381-1.801a2.97 2.97 0 011.081-1.241 2.82 2.82 0 011.549-.442c.905 0 1.603.293 2.095.879.495.586.743 1.415.743 2.487v.611h-4.344c.045.557.228.997.547 1.321.324.325.73.487 1.217.487.684 0 1.24-.281 1.67-.842l.806.779a2.726 2.726 0 01-1.07.942c-.442.22-.94.33-1.492.33zm-.178-5.779c-.41 0-.742.146-.996.437-.25.291-.41.696-.479 1.215h2.845v-.112c-.033-.507-.166-.889-.4-1.147-.233-.262-.557-.393-.97-.393zm7.489.293a3.67 3.67 0 00-.608-.049c-.684 0-1.145.265-1.383.797v4.613H71.23v-6.744h1.425l.037.754c.36-.586.86-.879 1.499-.879.213 0 .389.029.528.087l-.006 1.421zm3.748 5.486c-.946 0-1.714-.301-2.304-.904-.586-.607-.879-1.413-.879-2.419v-.187c0-.673.127-1.273.381-1.801a2.97 2.97 0 011.082-1.241 2.82 2.82 0 011.548-.442c.905 0 1.604.293 2.095.879.496.586.744 1.415.744 2.487v.611h-4.344c.045.557.227.997.546 1.321.324.325.73.487 1.217.487.684 0 1.241-.281 1.671-.842l.805.779a2.725 2.725 0 01-1.069.942c-.442.22-.94.33-1.493.33zm-.178-5.779c-.41 0-.742.146-.996.437-.25.291-.41.696-.479 1.215h2.845v-.112c-.033-.507-.166-.889-.4-1.147-.233-.262-.556-.393-.97-.393zm8.037 4.994c-.439.523-1.062.785-1.868.785-.721 0-1.268-.214-1.641-.642-.369-.428-.553-1.047-.553-1.858v-4.369h1.493v4.351c0 .856.35 1.284 1.05 1.284.726 0 1.215-.264 1.47-.792v-4.843h1.492v6.744h-1.407l-.037-.66zm4.368-6.084l.043.704c.467-.553 1.106-.829 1.917-.829.889 0 1.497.345 1.825 1.035.483-.69 1.163-1.035 2.04-1.035.733 0 1.277.206 1.634.617.36.411.544 1.018.553 1.82v4.432h-1.493v-4.388c0-.428-.093-.742-.277-.941-.184-.2-.49-.3-.915-.3-.34 0-.619.094-.836.281a1.458 1.458 0 00-.448.723l.006 4.625h-1.493v-4.438c-.02-.794-.42-1.191-1.198-1.191-.599 0-1.022.248-1.272.742v4.887H89.28v-6.744h1.407z" fill="#00F0FF"/><path fill-rule="evenodd" clip-rule="evenodd" d="M147.418 162.12c12.372 8.935 29.645 6.149 38.58-6.223 8.935-12.372 6.149-29.645-6.223-38.58L43.822 19.607a2.21 2.21 0 00-3.086.499L10.968 61.324a2.21 2.21 0 00.497 3.086l135.953 97.71zm26.135-34.299c-6.929-5.004-16.601-3.443-21.605 3.485-5.004 6.928-3.443 16.601 3.485 21.604 6.928 5.004 16.601 3.444 21.604-3.484 5.004-6.929 3.444-16.601-3.484-21.605z" fill="#C4C4C4"/><path d="M74.273 90.314l-.86 1.193 8.32 6.01 3.885-5.38-1.212-.875-3.024 4.186-7.109-5.134zm12.823-17.752l-.862 1.193 7.109 5.134-3.024 4.187 1.212.876 3.885-5.38-8.32-6.01zM76.14 78.69l2.002-2.772 1.902 1.374c.927.67 1.04 1.214.44 2.044l-.354.492c-.617.853-1.149.914-2.088.235L76.14 78.69zm2.665 2.671c1.028.405 2.208.047 2.892-.9.431-.596.582-1.306.443-2.065-.182-.95-.749-1.768-1.735-2.48l-2.675-1.933-5.912 8.186 1.189.859 2.356-3.263 1.783 1.288c.915.661 1.014 1.302.338 2.237l-1.41 1.953 1.212.876 1.275-1.766c.93-1.286.975-2 .125-2.828l.118-.164zm-10.203-6.96l3.66 2.645.778-1.076-3.661-2.645 1.774-2.456 4.017 2.903.778-1.076-5.231-3.778-5.913 8.186 5.41 3.906.776-1.075-4.196-3.031 1.808-2.503zm-4.295-2.443l-.406.56c-.853 1.182-1.572 1.25-2.677.452l-.261-.189c-1.106-.799-1.387-1.536-.213-3.161l1.588-2.199c1.182-1.637 1.986-1.573 3.092-.774l.237.171c1.082.782 1.14 1.428.357 2.536l1.308.945c1.047-1.7.688-3.507-.953-4.692-.796-.575-1.64-.81-2.476-.704-1.247.15-2.508 1.019-3.69 2.656-1.141 1.579-1.629 3.006-1.416 4.263.153.84.657 1.595 1.335 2.084.713.516 1.57.707 2.341.34l.166.12-.557.771 1.093.79 3.05-4.221-3.222-2.327-.777 1.076 2.08 1.503zm-7.62-11.537l1.295.936c1.224.884 1.67 1.669.488 3.306l-1.554 2.152c-1.182 1.637-2.068 1.46-3.292.576l-1.296-.936 4.358-6.034zm-3.734 8.123c2.27 1.64 4.34.554 6.07-1.843 1.758-2.433 2.054-4.746-.181-6.36l-2.568-1.855-5.913 8.186 2.592 1.872zm-5.748-9.597l3.662 2.644.777-1.075-3.662-2.645 1.774-2.456 4.018 2.902.777-1.076-5.23-3.778-5.913 8.186 5.409 3.907.777-1.076-4.196-3.03 1.807-2.503zm-3.685-9.673l-1.213-.876-5.912 8.186 5.468 3.95.777-1.076-4.256-3.074 5.136-7.11zm-15.458 1.292l-3.886 5.379 8.321 6.01.862-1.193-7.109-5.134 3.024-4.187-1.212-.875zM37.86 37l-3.886 5.38 1.213.875 3.024-4.187 7.108 5.135.862-1.193L37.86 37z" fill="#fff"/><path d="M173.552 127.82c-6.928-5.003-16.601-3.443-21.604 3.485-5.004 6.928-3.444 16.601 3.485 21.604 6.928 5.004 16.6 3.444 21.604-3.484 5.004-6.929 3.444-16.601-3.485-21.605z" fill="#C4C4C4"/><path fill-rule="evenodd" clip-rule="evenodd" d="M172.988 128.601c-6.497-4.692-15.567-3.229-20.259 3.268s-3.229 15.567 3.268 20.26c6.496 4.692 15.567 3.229 20.259-3.268s3.229-15.568-3.268-20.26zm-21.04 2.704c5.003-6.928 14.676-8.488 21.604-3.485 6.929 5.004 8.489 14.676 3.485 21.605-5.004 6.928-14.676 8.488-21.604 3.484-6.929-5.003-8.489-14.676-3.485-21.604z" fill="#444" fill-opacity=".12"/><path d="M202.176 42c0 12.15-9.849 22-22 22-12.15 0-22-9.85-22-22s9.85-22 22-22c12.151 0 22 9.85 22 22z" fill="#00D6B6"/><path fill-rule="evenodd" clip-rule="evenodd" d="M222.176 42c0 23.196-18.804 42-42 42s-42-18.804-42-42 18.804-42 42-42 42 18.804 42 42zm-42 22c12.151 0 22-9.85 22-22s-9.849-22-22-22c-12.15 0-22 9.85-22 22s9.85 22 22 22z" fill="#00D6B6" fill-opacity=".32"/><path fill-rule="evenodd" clip-rule="evenodd" d="M179.794 30.332a.999.999 0 011.089.217l5.628 5.627a1 1 0 010 1.415l-4.921 4.92 4.921 4.921a1 1 0 010 1.414l-5.628 5.628a1 1 0 01-1.707-.707v-8.841l-3.921 3.92a1 1 0 11-1.414-1.414l4.921-4.92-4.921-4.921a1 1 0 011.414-1.415l3.921 3.921v-8.841a1 1 0 01.618-.924zm1.382 14.594l3.214 3.213-3.214 3.214v-6.427zm0-4.829V33.67l3.214 3.214-3.214 3.213z" fill="#fff"/></svg>