<svg width="250" height="162" fill="none" xmlns="http://www.w3.org/2000/svg"><path fill-rule="evenodd" clip-rule="evenodd" d="M187.327 135.071c7.196 0 13.03-5.834 13.03-13.03s-5.834-13.03-13.03-13.03-13.03 5.834-13.03 13.03 5.834 13.03 13.03 13.03zm0 2.171c8.396 0 15.202-6.806 15.202-15.201 0-8.396-6.806-15.202-15.202-15.202-8.395 0-15.201 6.806-15.201 15.202 0 8.395 6.806 15.201 15.201 15.201z" fill="#C4C4C4"/><path fill-rule="evenodd" clip-rule="evenodd" d="M24.998 94.895c-.6 0-1.086.487-1.086 1.086v52.12c0 .599.486 1.085 1.086 1.085h180.789c.599 0 1.086-.486 1.086-1.085v-52.12c0-.6-.487-1.086-1.086-1.086H24.997zM187.599 132.9c5.847 0 10.587-4.74 10.587-10.587 0-5.847-4.74-10.586-10.587-10.586-5.847 0-10.586 4.739-10.586 10.586s4.739 10.587 10.586 10.587z" fill="#444"/><path fill-rule="evenodd" clip-rule="evenodd" d="M26.084 97.067v49.948H204.7V97.067H26.084zm174.274 25.245c0 7.047-5.712 12.759-12.759 12.759-7.046 0-12.758-5.712-12.758-12.759 0-7.046 5.712-12.758 12.758-12.758 7.047 0 12.759 5.712 12.759 12.758zM23.912 95.982c0-.6.486-1.087 1.086-1.087h180.789c.599 0 1.086.487 1.086 1.086v52.12c0 .599-.487 1.085-1.086 1.085H24.997a1.085 1.085 0 01-1.085-1.085v-52.12zm174.274 26.33c0 5.847-4.74 10.587-10.587 10.587-5.847 0-10.586-4.74-10.586-10.587 0-5.847 4.739-10.586 10.586-10.586s10.587 4.739 10.587 10.586z" fill="#444"/><rect x="46.415" y="103.713" width="105.484" height="37.586" rx="2" fill="#fff" fill-opacity=".12"/><path d="M75.462 123.015h-3.674v2.792h4.294v1.26h-5.849v-9.077h5.806v1.272h-4.251v2.506h3.674v1.247zm3.613-4.333v1.64h1.173v1.122h-1.173v3.765c0 .258.049.445.147.561.102.112.283.168.54.168a2.3 2.3 0 00.523-.062v1.172a3.65 3.65 0 01-.983.143c-1.147 0-1.72-.642-1.72-1.926v-3.821h-1.094v-1.122h1.094v-1.64h1.493zm3.79 2.375c.488-.573 1.104-.86 1.85-.86 1.417 0 2.136.821 2.156 2.462v4.408h-1.493v-4.352c0-.465-.1-.793-.3-.985-.197-.195-.488-.292-.873-.292-.598 0-1.045.27-1.34.81v4.819h-1.492v-9.575h1.492v3.565zm8.449 6.134c-.947 0-1.715-.301-2.304-.904-.586-.606-.88-1.413-.88-2.418v-.187c0-.674.128-1.274.382-1.802a2.966 2.966 0 011.081-1.24 2.821 2.821 0 011.548-.443c.906 0 1.604.293 2.096.879.495.586.743 1.415.743 2.487v.611h-4.344c.045.557.228.998.547 1.322.324.324.73.486 1.217.486.684 0 1.24-.281 1.67-.842l.806.78a2.723 2.723 0 01-1.07.941c-.442.22-.94.33-1.492.33zm-.179-5.778c-.41 0-.741.145-.995.436-.25.291-.41.696-.48 1.216h2.846v-.113c-.033-.507-.166-.889-.4-1.147-.233-.262-.557-.392-.97-.392zm7.49.293c-.197-.034-.4-.05-.608-.05-.684 0-1.145.266-1.383.798v4.613h-1.493v-6.745h1.426l.037.754c.36-.586.86-.879 1.499-.879.213 0 .389.029.528.087l-.006 1.422zm3.748 5.485c-.946 0-1.714-.301-2.304-.904-.586-.606-.879-1.413-.879-2.418v-.187c0-.674.127-1.274.381-1.802a2.967 2.967 0 011.082-1.24 2.819 2.819 0 011.548-.443c.905 0 1.603.293 2.095.879.496.586.743 1.415.743 2.487v.611h-4.343c.045.557.227.998.546 1.322.324.324.729.486 1.217.486.684 0 1.241-.281 1.671-.842l.805.78a2.724 2.724 0 01-1.069.941c-.442.22-.94.33-1.493.33zm-.178-5.778c-.41 0-.742.145-.996.436-.249.291-.409.696-.479 1.216h2.845v-.113c-.033-.507-.166-.889-.4-1.147-.233-.262-.557-.392-.97-.392zm8.036 4.993c-.438.523-1.061.785-1.868.785-.721 0-1.267-.214-1.64-.642-.369-.428-.553-1.047-.553-1.857v-4.37h1.493v4.351c0 .856.35 1.284 1.051 1.284.725 0 1.214-.264 1.468-.792v-4.843h1.493v6.745h-1.407l-.037-.661zm4.369-6.084l.043.704c.467-.553 1.106-.829 1.917-.829.888 0 1.497.345 1.824 1.035.484-.69 1.164-1.035 2.04-1.035.733 0 1.278.206 1.634.617.361.412.545 1.018.553 1.82v4.433h-1.493v-4.389c0-.428-.092-.742-.276-.941-.184-.2-.49-.299-.916-.299-.339 0-.618.093-.835.28a1.459 1.459 0 00-.449.723l.007 4.626h-1.493v-4.439c-.021-.794-.42-1.19-1.199-1.19-.598 0-1.022.247-1.271.741v4.888h-1.493v-6.745h1.407z" fill="#00F0FF"/><path fill-rule="evenodd" clip-rule="evenodd" d="M171.33 144.814c12.372 8.935 29.645 6.149 38.58-6.223 8.935-12.372 6.149-29.644-6.223-38.58L67.734 2.302a2.21 2.21 0 00-3.086.498L34.879 44.018a2.21 2.21 0 00.498 3.086l135.953 97.71zm26.135-34.299c-6.929-5.003-16.601-3.443-21.605 3.485-5.004 6.928-3.443 16.601 3.485 21.605 6.928 5.003 16.601 3.443 21.604-3.485 5.004-6.928 3.444-16.601-3.484-21.605z" fill="#C4C4C4"/><path d="M197.464 110.514c-6.928-5.003-16.601-3.443-21.604 3.485-5.004 6.928-3.444 16.601 3.484 21.605 6.929 5.003 16.601 3.443 21.605-3.485 5.004-6.928 3.443-16.601-3.485-21.605z" fill="#C4C4C4"/><path fill-rule="evenodd" clip-rule="evenodd" d="M196.9 111.295c-6.497-4.692-15.567-3.229-20.259 3.268-4.693 6.497-3.229 15.567 3.267 20.26 6.497 4.692 15.568 3.229 20.26-3.268 4.692-6.497 3.229-15.568-3.268-20.26zm-21.04 2.704c5.003-6.928 14.676-8.488 21.604-3.485 6.928 5.004 8.489 14.677 3.485 21.605-5.004 6.928-14.676 8.488-21.605 3.485-6.928-5.004-8.488-14.677-3.484-21.605z" fill="#444" fill-opacity=".12"/><path d="M75.665 30.053l-5.925-4.279-5.773 7.993 8 5.778 4.279-5.925a2.563 2.563 0 00-.575-3.562l-.006-.005zm-7.771-5.611l-1.022-.737a2.564 2.564 0 00-3.561.574l-.738 1.021 3.09 2.232 2.23-3.09zm-6.655 2.704l3.09 2.23-2.232 3.09-3.09-2.23 2.232-3.09zm4.095 15.129l1.02.737c1.136.82 2.743.56 3.563-.574l.004-.007.714-.988-3.089-2.232-2.212 3.064zm-2.724-6.627l3.089 2.23-2.231 3.09-3.09-2.231 2.231-3.09zm-4.935-3.564l-.737 1.02a2.564 2.564 0 00.574 3.563l1.021.737 2.231-3.089-3.089-2.231zm27.364 5.996l-1.21-.873-8.168 11.31 6.406 4.627.78-1.08-5.197-3.753 7.389-10.23zm6.921 9.562c-2.355-1.7-5.277-1.148-7.095 1.369l-.206.286c-1.509 2.256-.962 5.343 1.229 6.944l.156.113a5.72 5.72 0 003.808 1.058l.023-.033.098-1.285-.082-.01a4.392 4.392 0 01-3.151-.82 3.707 3.707 0 01-.831-5.152c.023-.033.047-.066.072-.098l6.114 4.416.047-.065.413-.573c1.717-2.253 1.44-4.68-.596-6.15zm-5.176 1.398a3.318 3.318 0 014.378-.43c1.02.737 1.698 2.157.525 3.972l-4.903-3.542zm14.892 7.072l-.305.423a3.56 3.56 0 00-1.442-3.17l-.15-.107c-2.166-1.564-4.902-.928-6.72 1.59-1.817 2.516-1.655 5.306.479 6.846a3.68 3.68 0 003.773.49l-.897 1.241 1.145.827 8.13-11.258-1.157-.836-2.856 3.954zm-7.154 4.67c-1.495-1.08-1.544-3.094-.182-4.98 1.362-1.886 3.325-2.398 4.795-1.337 1.216.878 1.738 2.76.173 4.925-1.695 2.348-3.602 2.248-4.812 1.374l.026.019zm15.201 1.38l-.047.066c.05-.549-.049-1.877-1.727-3.09-2.134-1.54-4.713-.928-6.507 1.556-1.794 2.484-1.541 5.23.625 6.795a3.34 3.34 0 003.456.517l-.808 1.118c-1.127 1.561-2.759 1.738-4.515.47a5.856 5.856 0 01-1.808-2.087l-.035-.075-1.163.664.042.08a7.43 7.43 0 002.17 2.557c1.88 1.358 4.593 1.862 6.505-.785l5.637-7.804-1.191-.86-.634.878zm-6.78 4.415c-1.561-1.127-1.728-3.088-.371-4.968 1.358-1.88 3.057-2.354 4.585-1.25 1.684 1.216 1.77 2.782.319 4.792s-3.005 2.53-4.533 1.426zm13.574-1.2c-2.36-1.705-5.25-1.13-7.044 1.355l-.207.286c-1.536 2.274-.98 5.4 1.245 7.005l.163.117a5.716 5.716 0 003.799 1.042l.133-1.349-.065-.047a4.37 4.37 0 01-3.077-.767l-.067-.048a3.716 3.716 0 01-.765-5.254l6.165 4.453.047-.065.413-.573c1.612-2.23 1.329-4.661-.74-6.155zm-5.149 1.417a3.325 3.325 0 014.384-.426c1.015.733 1.692 2.152.519 3.967l-4.903-3.541zm13.413 4.788c-.163-.117-.286-.206-.402-.389a3.375 3.375 0 00-3.874.062l1.31-1.814-1.177-.85-5.867 8.123 1.21.873 2.461-3.408a6.23 6.23 0 011.367-1.358c1.281-.965 2.713-1.139 3.734-.401.137.079.265.172.383.277l.066.047.821-1.138-.032-.024z" fill="#fff"/></svg>