<svg width="180" height="45" fill="none" xmlns="http://www.w3.org/2000/svg"><path d="M31.089 0h-16.96v22.88h22.899V5.92c0-3.249-2.674-5.92-5.92-5.92h-.019zM8.843 0H5.92C2.673 0 0 2.673 0 5.92v2.923h8.843V0zM0 14.13h8.843v8.843H0V14.13zm28.26 22.898h2.922c3.249 0 5.92-2.674 5.92-5.92v-2.849H28.26v8.769zM14.13 28.26h8.842v8.842H14.13v-8.843zM0 28.26v2.922c0 3.247 2.673 5.92 5.92 5.92h2.923v-8.843H0zM59.628 2.364h-3.463v32.374h18.337v-3.09H59.628V2.363zm26.007 8.582c-6.74 0-11.487 5.008-11.487 12.213v.819c.227 6.294 5.45 11.357 11.747 11.393h.447a13.273 13.273 0 008.6-3.184v-.093l-1.563-2.55-.168.093a10.193 10.193 0 01-6.85 2.736c-.064.002-.127.002-.19.002-4.7 0-8.564-3.864-8.564-8.563 0-.093 0-.188.004-.281h17.5v-1.825c.167-6.571-3.65-10.76-9.477-10.76zm-7.838 9.662c.462-3.85 3.773-6.776 7.651-6.758 2.923 0 6.125 1.75 6.386 6.758H77.797zm37.623-6.925v1.21a8.256 8.256 0 00-7.018-4.003h-.428c-6.199 0-10.481 4.915-10.481 12.12 0 7.204 4.096 12.23 10.202 12.23a8.538 8.538 0 007.763-4.207v3.556h3.276V2.364h-3.314v11.319zm-7.111 18.504c-4.282 0-7.111-3.723-7.111-9.122s2.997-9.029 7.204-9.029c3.481 0 7.018 2.83 7.018 9.03 0 6.72-3.723 9.121-7.185 9.121h.074zm30.475-18.057v.186c-.652-1.099-2.644-3.463-7.447-3.463-6.106 0-10.127 4.654-10.127 11.766 0 7.111 4.207 11.933 10.407 11.933a7.754 7.754 0 007.204-3.724v3.202c0 4.468-2.83 7.019-7.856 7.019a13.587 13.587 0 01-6.236-1.47l-.168-.094-1.285 2.83.187.093a17.234 17.234 0 007.558 1.861c5.38 0 11.17-2.736 11.17-10.313v-22.34h-3.407v2.514zm-6.758 17.518c-4.468 0-7.446-3.463-7.446-8.843s2.55-8.582 6.925-8.582c4.821 0 7.111 2.83 7.111 8.582 0 5.752-2.215 8.843-6.59 8.843zm23.903-20.702c-6.758 0-11.412 5.008-11.412 12.12v.819c.2 6.364 5.492 11.49 11.859 11.486h.465a13.27 13.27 0 008.564-3.202l-1.583-2.718h-.186a10.143 10.143 0 01-6.832 2.736c-.063.002-.126.002-.19.002-4.708 0-8.582-3.874-8.582-8.582 0-.087.002-.175.004-.262h17.648V21.52c0-6.385-3.835-10.574-9.755-10.574zm-7.763 9.662c.469-3.854 3.789-6.776 7.67-6.758 2.904 0 6.106 1.75 6.367 6.758h-14.037zm31.741-9.215c-.465 0-.819 0-1.285-.186a7.834 7.834 0 00-7.204 5.38v-5.194h-3.37v23.252h3.463V24.89a14.45 14.45 0 01.726-4.412c1.098-3.556 3.556-5.827 6.478-5.827a5.425 5.425 0 011.099 0H180v-3.258h-.093z" fill="#142533"/></svg>