<svg width="340" height="161" fill="none" xmlns="http://www.w3.org/2000/svg"><path d="M78.81 121.15c0-1.031-.558-1.866-1.246-1.866H1.246c-.688 0-1.246.835-1.246 1.866v2.331c0 1.03.558 1.866 1.246 1.866h76.318c.688 0 1.246-.836 1.246-1.866v-2.331z" fill="#444"/><path d="M94.255 116.111a2.171 2.171 0 00-2.172-2.171H78.51a2.171 2.171 0 00-2.171 2.171v12.487c0 1.199.972 2.172 2.171 2.172h13.573c1.2 0 2.172-.973 2.172-2.172v-12.487z" fill="#C4C4C4"/><path d="M94.255 116.111a2.171 2.171 0 00-2.172-2.171H78.51a2.171 2.171 0 00-2.171 2.171v12.487c0 1.199.972 2.172 2.171 2.172h13.573c1.2 0 2.172-.973 2.172-2.172v-12.487z" stroke="#444"/><path d="M56.251 119.369a2.172 2.172 0 00-2.172-2.172h-7.057c-1.2 0-2.172.973-2.172 2.172v5.972c0 1.199.972 2.172 2.172 2.172h7.057c1.2 0 2.172-.973 2.172-2.172v-5.972z" fill="#444"/><path fill-rule="evenodd" clip-rule="evenodd" d="M47.022 119.369h7.057v5.972h-7.057v-5.972zm7.057-2.172c1.2 0 2.172.973 2.172 2.172v5.972a2.172 2.172 0 01-2.172 2.172h-7.057c-1.2 0-2.172-.973-2.172-2.172v-5.972c0-1.199.972-2.172 2.172-2.172h7.057z" fill="#444"/><path d="M51.908 113.94a4.344 4.344 0 014.343-4.344h23.345c.6 0 1.086.487 1.086 1.086v23.345c0 .6-.486 1.086-1.086 1.086H56.251a4.343 4.343 0 01-4.343-4.343v-16.83z" fill="#444"/><path fill-rule="evenodd" clip-rule="evenodd" d="M78.51 111.768H56.251c-1.2 0-2.172.972-2.172 2.172v16.83c0 1.199.973 2.172 2.172 2.172h22.26v-21.174zm-22.259-2.172a4.344 4.344 0 00-4.343 4.344v16.83a4.343 4.343 0 004.343 4.343h23.345c.6 0 1.086-.486 1.086-1.086v-23.345c0-.599-.486-1.086-1.086-1.086H56.251z" fill="#444"/><path fill-rule="evenodd" clip-rule="evenodd" d="M122.186 114.155l6.364 6.364c.39.391.39 1.024 0 1.415l-6.364 6.364a1 1 0 01-1.414-1.415l4.657-4.657h-23.155v-2h23.155l-4.657-4.656a1 1 0 111.414-1.415z" fill="#05C0A5"/><path fill-rule="evenodd" clip-rule="evenodd" d="M301.239 134.571c7.196 0 13.03-5.834 13.03-13.03s-5.834-13.03-13.03-13.03-13.03 5.834-13.03 13.03 5.834 13.03 13.03 13.03zm0 2.171c8.396 0 15.201-6.806 15.201-15.201 0-8.396-6.805-15.202-15.201-15.202s-15.202 6.806-15.202 15.202c0 8.395 6.806 15.201 15.202 15.201z" fill="#C4C4C4"/><path fill-rule="evenodd" clip-rule="evenodd" d="M138.909 94.395c-.599 0-1.085.487-1.085 1.086v52.12c0 .599.486 1.085 1.085 1.085h180.79c.599 0 1.085-.486 1.085-1.085v-52.12c0-.6-.486-1.086-1.085-1.086h-180.79zM301.511 132.4c5.847 0 10.587-4.74 10.587-10.587 0-5.847-4.74-10.586-10.587-10.586-5.847 0-10.587 4.739-10.587 10.586s4.74 10.587 10.587 10.587z" fill="#444"/><path fill-rule="evenodd" clip-rule="evenodd" d="M139.995 96.567v49.948h178.618V96.567H139.995zm174.274 25.245c0 7.047-5.712 12.759-12.758 12.759-7.046 0-12.758-5.712-12.758-12.759 0-7.046 5.712-12.758 12.758-12.758 7.046 0 12.758 5.712 12.758 12.758zm-176.445-26.33c0-.6.486-1.087 1.085-1.087h180.79c.599 0 1.085.487 1.085 1.086v52.12c0 .599-.486 1.085-1.085 1.085h-180.79a1.085 1.085 0 01-1.085-1.085v-52.12zm174.274 26.33c0 5.847-4.74 10.587-10.587 10.587-5.847 0-10.587-4.74-10.587-10.587 0-5.847 4.74-10.586 10.587-10.586 5.847 0 10.587 4.739 10.587 10.586z" fill="#444"/><rect x="160.326" y="103.213" width="105.484" height="37.586" rx="2" fill="#fff" fill-opacity=".12"/><path d="M189.374 122.515h-3.675v2.792h4.295v1.26h-5.849v-9.077h5.806v1.272h-4.252v2.506h3.675v1.247zm3.612-4.333v1.64h1.174v1.122h-1.174v3.765c0 .258.049.445.148.561.102.112.282.168.54.168.173 0 .347-.021.523-.062v1.172c-.34.095-.668.143-.983.143-1.147 0-1.721-.642-1.721-1.926v-3.821H190.4v-1.122h1.093v-1.64h1.493zm3.791 2.375c.488-.573 1.104-.86 1.85-.86 1.417 0 2.136.821 2.156 2.462v4.408h-1.493v-4.352c0-.465-.1-.793-.301-.985-.197-.195-.487-.293-.872-.293-.598 0-1.045.271-1.34.811v4.819h-1.493v-9.575h1.493v3.565zm8.448 6.134c-.946 0-1.714-.301-2.304-.904-.585-.606-.878-1.413-.878-2.418v-.187c0-.674.127-1.274.381-1.802a2.964 2.964 0 011.081-1.24 2.821 2.821 0 011.548-.443c.906 0 1.604.293 2.095.879.496.586.744 1.415.744 2.487v.611h-4.344c.045.557.227.997.547 1.322.323.324.729.486 1.216.486.684 0 1.241-.281 1.672-.842l.804.78a2.717 2.717 0 01-1.069.941c-.442.22-.94.33-1.493.33zm-.178-5.778c-.409 0-.741.145-.995.436-.25.291-.41.696-.479 1.215h2.844v-.112c-.033-.507-.166-.889-.399-1.147-.234-.262-.557-.392-.971-.392zm7.49.293c-.197-.034-.4-.05-.609-.05-.684 0-1.144.266-1.382.798v4.613h-1.493v-6.745h1.425l.037.754c.361-.586.861-.879 1.5-.879.213 0 .389.029.528.087l-.006 1.422zm3.748 5.485c-.947 0-1.715-.301-2.304-.904-.586-.606-.879-1.413-.879-2.418v-.187c0-.674.127-1.274.381-1.802a2.964 2.964 0 011.081-1.24 2.822 2.822 0 011.549-.443c.905 0 1.603.293 2.095.879.495.586.743 1.415.743 2.487v.611h-4.344c.045.557.228.997.547 1.322.324.324.729.486 1.217.486.684 0 1.241-.281 1.671-.842l.805.78a2.731 2.731 0 01-1.069.941c-.443.22-.94.33-1.493.33zm-.179-5.778c-.409 0-.741.145-.995.436-.25.291-.409.696-.479 1.215h2.845v-.112c-.033-.507-.166-.889-.4-1.147-.233-.262-.557-.392-.971-.392zm8.037 4.993c-.438.523-1.061.785-1.868.785-.721 0-1.268-.214-1.64-.642-.369-.428-.553-1.047-.553-1.858v-4.369h1.493v4.351c0 .856.35 1.284 1.05 1.284.725 0 1.215-.264 1.469-.792v-4.843h1.493v6.745h-1.407l-.037-.661zm4.368-6.084l.043.704c.467-.553 1.106-.829 1.917-.829.889 0 1.497.345 1.825 1.035.483-.69 1.163-1.035 2.04-1.035.733 0 1.278.206 1.634.617.361.412.545 1.018.553 1.82v4.433h-1.493v-4.389c0-.428-.092-.742-.276-.941-.185-.2-.49-.3-.916-.3-.34 0-.618.094-.835.281a1.459 1.459 0 00-.449.723l.006 4.626h-1.493v-4.439c-.02-.794-.42-1.191-1.198-1.191-.598 0-1.022.248-1.272.742v4.888h-1.493v-6.745h1.407z" fill="#00F0FF"/><path fill-rule="evenodd" clip-rule="evenodd" d="M285.242 144.314c12.372 8.935 29.644 6.149 38.58-6.223 8.935-12.372 6.149-29.644-6.223-38.58L181.646 1.802a2.211 2.211 0 00-3.087.498l-29.768 41.218a2.21 2.21 0 00.498 3.086l135.953 97.71zm26.134-34.299c-6.928-5.003-16.601-3.443-21.604 3.485-5.004 6.928-3.444 16.601 3.484 21.604 6.929 5.004 16.601 3.444 21.605-3.484 5.004-6.929 3.444-16.601-3.485-21.605z" fill="#C4C4C4"/><path d="M311.376 110.014c-6.928-5.003-16.601-3.443-21.605 3.485-5.003 6.928-3.443 16.601 3.485 21.605 6.928 5.003 16.601 3.443 21.605-3.485 5.003-6.928 3.443-16.601-3.485-21.605z" fill="#C4C4C4"/><path fill-rule="evenodd" clip-rule="evenodd" d="M310.812 110.795c-6.497-4.692-15.567-3.229-20.26 3.268-4.692 6.497-3.229 15.567 3.268 20.26 6.497 4.692 15.568 3.229 20.26-3.268 4.692-6.497 3.229-15.568-3.268-20.26zm-21.041 2.704c5.004-6.928 14.677-8.488 21.605-3.485 6.928 5.004 8.488 14.677 3.485 21.605-5.004 6.928-14.677 8.488-21.605 3.485-6.928-5.004-8.488-14.677-3.485-21.605z" fill="#444" fill-opacity=".12"/><path d="M189.577 29.553l-5.925-4.279-5.773 7.993 8 5.778 4.279-5.925a2.564 2.564 0 00-.575-3.562l-.006-.005zm-7.772-5.611l-1.021-.737a2.564 2.564 0 00-3.562.574l-.737 1.021 3.089 2.232 2.231-3.09zm-6.654 2.704l3.089 2.23-2.231 3.09-3.089-2.231 2.231-3.09zm4.094 15.129l1.022.737a2.562 2.562 0 003.566-.58l.714-.99-3.089-2.23-2.213 3.063zm-2.724-6.627l3.09 2.23-2.232 3.09-3.089-2.231 2.231-3.09zm-4.934-3.564l-.738 1.02a2.564 2.564 0 00.575 3.563l1.021.737 2.231-3.09-3.089-2.23zm27.364 5.996l-1.21-.873-8.168 11.31 6.406 4.627.78-1.08-5.197-3.753 7.389-10.23zm6.92 9.562c-2.354-1.7-5.276-1.148-7.094 1.369l-.207.286c-1.508 2.256-.962 5.343 1.23 6.944l.156.113a5.72 5.72 0 003.808 1.057l.023-.032.097-1.285-.082-.01a4.39 4.39 0 01-3.083-.773l-.067-.047a3.707 3.707 0 01-.759-5.25l6.113 4.416.047-.066.414-.572c1.716-2.253 1.44-4.68-.596-6.15zm-5.176 1.398a3.317 3.317 0 014.378-.43c1.022.737 1.699 2.157.526 3.972l-4.904-3.542zm14.893 7.072l-.306.423a3.556 3.556 0 00-1.442-3.17l-.149-.107c-2.166-1.564-4.902-.928-6.72 1.59-1.818 2.516-1.655 5.306.478 6.846a3.68 3.68 0 003.774.49l-.897 1.241 1.144.827 8.131-11.258-1.158-.836-2.855 3.954zm-7.154 4.67c-1.496-1.08-1.545-3.094-.183-4.98 1.363-1.887 3.326-2.399 4.795-1.337 1.217.878 1.738 2.76.174 4.925-1.695 2.348-3.602 2.248-4.812 1.374l.026.019zm15.201 1.38l-.047.065c.05-.548-.05-1.876-1.728-3.088-2.133-1.54-4.712-.93-6.506 1.555-1.795 2.484-1.541 5.23.624 6.795a3.343 3.343 0 003.457.517l-.808 1.118c-1.127 1.561-2.759 1.738-4.515.47a5.846 5.846 0 01-1.808-2.087l-.035-.075-1.163.664.042.08a7.43 7.43 0 002.17 2.557c1.88 1.358 4.593 1.862 6.505-.785l5.636-7.804-1.19-.86-.634.878zm-6.781 4.415c-1.561-1.127-1.728-3.088-.37-4.968 1.357-1.88 3.056-2.355 4.585-1.25 1.684 1.216 1.77 2.782.319 4.792-1.452 2.01-3.005 2.53-4.534 1.426zm13.575-1.2c-2.361-1.705-5.25-1.13-7.044 1.355l-.207.286c-1.536 2.274-.981 5.4 1.245 7.005l.162.117a5.72 5.72 0 003.8 1.042l.133-1.349-.065-.047a4.373 4.373 0 01-3.144-.815 3.716 3.716 0 01-.833-5.163l.067-.091 6.166 4.453.047-.065.413-.573c1.611-2.23 1.328-4.661-.74-6.155zm-5.15 1.417a3.326 3.326 0 014.385-.426c1.014.733 1.692 2.152.519 3.967l-4.904-3.541zm13.414 4.788c-.163-.117-.286-.206-.402-.389a3.375 3.375 0 00-3.874.062l1.31-1.815-1.177-.85-5.867 8.123 1.21.874 2.461-3.408c.382-.52.844-.979 1.367-1.358 1.281-.965 2.712-1.139 3.733-.401.137.079.266.172.384.277l.065.047.822-1.138-.032-.024z" fill="#fff"/></svg>