<svg width="22" height="22" xmlns="http://www.w3.org/2000/svg"><g fill="none" fill-rule="evenodd"><rect fill="#0277B4" width="22" height="22" rx="11"/><path d="M8.542 15.265V8.506H6.42v6.759h2.122zm-1.06-7.682c.74 0 1.2-.519 1.2-1.167-.014-.663-.46-1.168-1.187-1.168-.725 0-1.2.505-1.2 1.168 0 .648.46 1.167 1.172 1.167h.014zm2.234 7.682h2.121V11.49c0-.202.014-.404.07-.549.154-.403.503-.821 1.089-.821.767 0 1.075.62 1.075 1.528v3.616h2.12V11.39c0-2.076-1.046-3.042-2.442-3.042-1.144 0-1.646.677-1.926 1.139h.015v-.98H9.716c.028.634 0 6.757 0 6.757z" fill="#FFF" fill-rule="nonzero"/></g></svg>