<svg width="349" height="348" fill="none" xmlns="http://www.w3.org/2000/svg"><g clip-path="url(#clip0_268:281)"><path d="M348.674 0h-348v348h348V0z" fill="#F9F9F9"/><path d="M32.674 153.364a5.184 5.184 0 005.184 5.184h115.779a5.184 5.184 0 005.185-5.184V37.584a5.184 5.184 0 00-5.185-5.184H37.858a5.184 5.184 0 00-5.184 5.184v115.78zM64.21 69.121a5.184 5.184 0 015.184-5.184H122.1a5.184 5.184 0 015.184 5.184v52.706a5.184 5.184 0 01-5.184 5.184H69.395a5.184 5.184 0 01-5.184-5.184V69.121zM32.674 311.049a5.184 5.184 0 005.184 5.184h115.779a5.184 5.184 0 005.185-5.184v-115.78a5.184 5.184 0 00-5.185-5.184H37.858a5.184 5.184 0 00-5.184 5.184v115.78zm31.537-84.243a5.184 5.184 0 015.184-5.184H122.1a5.184 5.184 0 015.184 5.184v52.706a5.184 5.184 0 01-5.184 5.184H69.395a5.184 5.184 0 01-5.184-5.184v-52.706zM195.543 32.4a5.184 5.184 0 00-5.185 5.184v115.78a5.184 5.184 0 005.185 5.184h115.779a5.184 5.184 0 005.184-5.184V37.584a5.184 5.184 0 00-5.184-5.184H195.543zm89.426 89.427a5.184 5.184 0 01-5.184 5.184h-52.706a5.184 5.184 0 01-5.184-5.184V69.121a5.184 5.184 0 015.184-5.184h52.706a5.184 5.184 0 015.184 5.184v52.706zm26.353 162.869h-21.169a5.184 5.184 0 00-5.184 5.184v21.168a5.184 5.184 0 005.184 5.185h21.169a5.184 5.184 0 005.184-5.185V289.88a5.184 5.184 0 00-5.184-5.184zm-94.611-94.611h-21.168a5.184 5.184 0 00-5.185 5.184v21.169a5.184 5.184 0 005.185 5.184h21.168a5.184 5.184 0 005.184-5.184v-21.169a5.184 5.184 0 00-5.184-5.184zm31.537 31.537H227.08a5.183 5.183 0 00-5.184 5.184v21.169a5.183 5.183 0 005.184 5.184h21.168a5.184 5.184 0 005.184-5.184v-21.169a5.184 5.184 0 00-5.184-5.184zm-31.537 31.537h-21.168a5.184 5.184 0 00-5.185 5.184v21.169a5.184 5.184 0 005.185 5.184h21.168a5.184 5.184 0 005.184-5.184v-21.169a5.184 5.184 0 00-5.184-5.184zm31.537 31.537H227.08a5.183 5.183 0 00-5.184 5.184v21.168a5.184 5.184 0 005.184 5.185h21.168a5.184 5.184 0 005.184-5.185V289.88a5.184 5.184 0 00-5.184-5.184zm31.538-31.537h-21.169a5.185 5.185 0 00-5.184 5.184v21.169a5.185 5.185 0 005.184 5.184h21.169a5.183 5.183 0 005.184-5.184v-21.169a5.183 5.183 0 00-5.184-5.184zm0-63.074h-21.169a5.185 5.185 0 00-5.184 5.184v21.169a5.185 5.185 0 005.184 5.184h21.169a5.183 5.183 0 005.184-5.184v-21.169a5.183 5.183 0 00-5.184-5.184zm31.536 31.537h-21.169a5.184 5.184 0 00-5.184 5.184v21.169a5.184 5.184 0 005.184 5.184h21.169a5.184 5.184 0 005.184-5.184v-21.169a5.184 5.184 0 00-5.184-5.184z" fill="#ECECEC"/><path fill="#C4C4C4" d="M.674 0h348v348h-348z"/></g><defs><clipPath id="clip0_268:281"><path fill="#fff" transform="translate(.674)" d="M0 0h348v348H0z"/></clipPath></defs></svg>