<svg width="64" height="64" xmlns="http://www.w3.org/2000/svg"><g fill="none"><path d="M56.35 18.736l-.002-.044a60.467 60.467 0 01-.052-1.803c-.048-3.198-2.59-5.843-5.79-6.022-6.671-.372-11.832-2.547-16.24-6.843l-.039-.035a3.714 3.714 0 00-5.045 0l-.038.035c-4.41 4.296-9.57 6.47-16.241 6.843-3.2.179-5.743 2.824-5.79 6.022-.01.652-.027 1.242-.052 1.803l-.003.105c-.13 6.8-.29 15.262 2.541 22.944 1.558 4.224 3.916 7.896 7.01 10.914 3.523 3.437 8.139 6.166 13.718 8.11a4.18 4.18 0 002.758 0c5.572-1.948 10.182-4.678 13.703-8.115 3.092-3.02 5.45-6.693 7.009-10.917 2.843-7.705 2.682-16.184 2.553-22.997z" fill="#CDF4EE"/><path d="M36.245 33.875l-.04 5.545a4.53 4.53 0 01-4.525 4.517 4.529 4.529 0 01-4.524-4.523v-.012l.039-5.502a7.684 7.684 0 01-3.198-6.25c0-4.247 3.457-7.703 7.706-7.703 4.25 0 7.707 3.456 7.707 7.704a7.692 7.692 0 01-3.165 6.224z" fill="#5A78F0"/><path d="M33.726 31.504a4.303 4.303 0 00-2.022-8.096 4.303 4.303 0 00-1.999 8.108c.616.326.95.976.903 1.63l-.046 6.332a1.12 1.12 0 001.118 1.115 1.12 1.12 0 001.12-1.12v-.012l.044-6.23a1.701 1.701 0 01.882-1.727z" fill="#FFF"/></g></svg>