<svg width="140" height="37" xmlns="http://www.w3.org/2000/svg"><path d="M34.623 11.72h15.473v4.506H44.86v14.697h-4.973V16.226h-5.264v-4.507zm33.295 6.387c0 3.184-1.839 4.987-3.658 5.692l4.186 7.123h-5.703l-3.535-6.48h-1.922v6.48H52.34V11.718h8.979c3.95 0 6.6 2.568 6.6 6.39zm-10.632-1.963v3.872h3.466c1.281 0 2.143-.778 2.143-1.937 0-1.157-.862-1.935-2.143-1.935h-3.466zM70.21 30.923V11.719h13.854v4.425h-8.909v2.814h8.72v4.425h-8.72v3.086h8.909v4.454H70.21zm30.937-15.372l-7.96 10.865h7.96v4.507H86.512v-3.86l7.957-10.839h-7.957V11.72h14.635v3.832zm10.746-4.132c5.781 0 9.976 4.171 9.976 9.914 0 5.746-4.195 9.915-9.976 9.915-5.765 0-9.95-4.169-9.95-9.915 0-5.743 4.185-9.914 9.95-9.914zm0 15.294c2.9 0 4.924-2.212 4.924-5.38 0-3.166-2.025-5.38-4.924-5.38-2.929 0-4.897 2.163-4.897 5.38 0 3.168 2.014 5.38 4.897 5.38zm23.92-2.914L140 30.922h-5.702l-3.536-6.48h-1.923v6.48h-4.945V11.718h8.979c3.95 0 6.603 2.568 6.603 6.39 0 3.183-1.842 4.986-3.663 5.691zm-6.974-7.655v3.872h3.467c1.282 0 2.144-.778 2.144-1.937 0-1.157-.862-1.935-2.144-1.935h-3.467zm-107.792-4.39h3.607v19.165h-.025l-12.302 5.775L.025 30.92H0V11.753h3.608v-2.69c0-4.614 3.913-8.369 8.721-8.369 4.806 0 8.718 3.755 8.718 8.369v2.69zm-1.355 15.978V16.25H4.962v11.48l7.365 3.45 7.365-3.45zM8.082 9.062v2.691h8.492v-2.69c0-2.136-1.905-3.873-4.245-3.873-2.342 0-4.248 1.737-4.248 3.873z"/></svg>