<svg width="120" height="120" xmlns="http://www.w3.org/2000/svg" xmlns:xlink="http://www.w3.org/1999/xlink"><defs><path d="M37.083 120c-13.61 0-21.434 0-29.259-7.824C0 104.35 0 96.526 0 82.917V37.083c0-13.61 0-21.434 7.824-29.259C15.65 0 23.474 0 37.083 0h45.834c13.61 0 21.434 0 29.259 7.824C120 15.65 120 23.474 120 37.083v45.834c0 13.61 0 21.434-7.824 29.259C104.35 120 96.526 120 82.917 120H37.083z" id="a"/></defs><g fill="none" fill-rule="evenodd"><mask id="b" fill="#fff"><use xlink:href="#a"/></mask><path stroke="#DADCE0" d="M84.566.5c12.426.013 19.849.271 27.256 7.678 7.73 7.73 7.678 15.479 7.678 28.905h0v45.834c0 13.426.052 21.175-7.678 28.905-7.73 7.73-15.479 7.678-28.905 7.678h-46.39c-13.085 0-20.726-.055-28.349-7.678C.771 104.415.513 96.992.501 84.566h0V35.434C.513 23.008.77 15.585 8.178 8.178S23.008.513 35.434.501h0z"/><g mask="url(#b)"><g transform="translate(2 2)"><path d="M78.29 106.53c21.898 1.036 24.106-18.11 17.692-29.259-6.215-10.8-15.536-14.5-30.612-13.081-15.075 1.419.065 25.98 10.408 24.178 4.692-.817.62 18.073 2.512 18.163z" stroke="#000" stroke-width="2.5" fill="#FFF" fill-rule="nonzero"/><path d="M37.709 106.53c-21.898 1.036-24.106-18.11-17.692-29.259 6.215-10.8 15.536-14.5 30.612-13.081 15.075 1.419-.065 25.98-10.408 24.178-4.692-.817-.62 18.073-2.512 18.163z" stroke="#000" stroke-width="2.5" fill="#FFF" fill-rule="nonzero"/><path d="M60.741 9.47c7.485 0 12.346 1.202 16.565 3.461 4.22 2.26 7.53 5.574 9.787 9.798 2.232 4.179 3.432 8.986 3.458 16.344v4.47c0 7.494-1.202 12.36-3.458 16.585-2.256 4.224-5.568 7.539-9.787 9.798-4.219 2.259-9.08 3.462-16.565 3.462h-5.482c-7.485 0-12.346-1.203-16.565-3.462-4.22-2.26-7.53-5.574-9.787-9.798-2.256-4.224-3.458-9.09-3.458-16.584v-4.23c0-7.494 1.202-12.36 3.458-16.585 2.256-4.224 5.568-7.539 9.787-9.798 4.173-2.234 8.975-3.436 16.324-3.462h5.723z" stroke="#000" stroke-width="2.5" fill="#FFF" fill-rule="nonzero"/><path d="M54.037 27.816h7.926c4.016 0 7.127.74 9.738 2.131a14.528 14.528 0 016.057 6.031c1.396 2.6 2.14 5.698 2.14 9.696v.979c0 3.998-.744 7.096-2.14 9.696a14.528 14.528 0 01-6.057 6.03c-2.611 1.39-5.722 2.131-9.738 2.131h-7.926c-4.016 0-7.127-.74-9.738-2.13a14.528 14.528 0 01-6.057-6.031c-1.396-2.6-2.14-5.698-2.14-9.696v-.98c0-3.997.744-7.095 2.14-9.695a14.528 14.528 0 016.057-6.03c2.611-1.391 5.722-2.132 9.738-2.132z" stroke="#000" stroke-width="2.5" fill="#FFF" fill-rule="nonzero"/><circle fill="#000" fill-rule="nonzero" cx="44.092" cy="46.459" r="4.735"/><circle fill="#000" fill-rule="nonzero" cx="71.908" cy="46.459" r="4.735"/><path d="M52.97 45.571c0 2.615 2.252 4.735 5.03 4.735 2.778 0 5.03-2.12 5.03-4.735" stroke="#000" stroke-width="2.5" stroke-linecap="round"/><path d="M25.37 27.903c1.416.2 2.644.712 3.63 1.464a6.633 6.633 0 012.177 2.903c.448 1.16.6 2.487.4 3.908l-.18 1.295c-.2 1.422-.71 2.656-1.458 3.646a6.607 6.607 0 01-2.89 2.188c-1.153.45-2.474.602-3.89.403-1.414-.2-2.642-.712-3.628-1.465a6.633 6.633 0 01-2.177-2.903c-.448-1.16-.6-2.486-.4-3.908l.18-1.295c.2-1.422.709-2.655 1.457-3.646a6.607 6.607 0 012.89-2.188c1.154-.45 2.475-.602 3.89-.402z" stroke="#000" stroke-width="2.5" fill="#FFF" fill-rule="nonzero"/><path stroke="#D8D8D8" stroke-width="3.255" stroke-linecap="round" stroke-linejoin="round" d="M23.548 32.869l-.662 4.27"/><path d="M90.599 27.9c-1.411.194-2.634.69-3.615 1.417a6.421 6.421 0 00-2.165 2.81c-.445 1.123-.595 2.409-.396 3.789l.252 1.756c.198 1.38.705 2.575 1.449 3.535a6.537 6.537 0 002.873 2.117c1.148.435 2.463.582 3.874.388 1.41-.194 2.633-.69 3.614-1.417a6.421 6.421 0 002.166-2.81c.444-1.123.594-2.409.396-3.789l-.253-1.756c-.198-1.38-.704-2.575-1.448-3.535a6.537 6.537 0 00-2.873-2.117c-1.149-.435-2.463-.582-3.874-.388z" stroke="#000" stroke-width="2.5" fill="#FFF" fill-rule="nonzero"/><path stroke="#D8D8D8" stroke-width="3.255" stroke-linecap="round" stroke-linejoin="round" d="M92.445 32.869l.662 4.27"/><g fill-rule="nonzero"><path d="M58 58.592c-14.22 0-25.745 11.527-25.745 25.745 0 14.218 11.527 25.745 25.745 25.745 14.218 0 25.745-11.527 25.745-25.745 0-14.218-11.525-25.745-25.745-25.745z" fill="#07A6B3"/><path d="M58 58.592c-14.22 0-25.745 11.527-25.745 25.745 0 14.218 11.527 25.745 25.745 25.745 14.218 0 25.745-11.527 25.745-25.745 0-14.218-11.525-25.745-25.745-25.745z" stroke="#000" stroke-width="2.5"/><path d="M42.83 78.525l6.996 2.976-.083.37a8.542 8.542 0 00-.367 2.098c-.015.14-.02.283-.016.425l.006.097a8.578 8.578 0 003.296 6.654 8.605 8.605 0 007.259 1.599l3.977 6.743a15.856 15.856 0 01-5.887 1.125c-8.768 0-16.287-7.097-16.287-15.855 0-2.056.392-4.43 1.106-6.232zm15.183-10.464c8.769 0 16.263 7.23 16.263 15.985-.002 2.214-.27 4.423-1.068 6.35l-.168.38-17.76-7.513 11.393-.05c-.41-4.125-4.656-7.48-8.661-7.48-.908 0-1.81.15-2.67.445l-3.94-6.681a15.84 15.84 0 016.611-1.436z" fill="#FFF"/></g><g fill="#FFF" fill-rule="nonzero" stroke="#000" stroke-width="2.5"><path d="M30.47 101.122l-1.92-5.386c-1.462-4.1.726-8.593 4.887-10.035l.093-.032h0c4.246-1.414 8.855.798 10.34 4.964l1.92 5.386c1.462 4.1-.726 8.593-4.887 10.036l-.094.031h0c-4.245 1.415-8.854-.798-10.34-4.964z"/><path stroke-linecap="round" d="M42.878 90.344l-5.888 1.983m8.121 3.008l-5.862 2.06"/></g><g fill="#FFF" fill-rule="nonzero" stroke="#000" stroke-width="2.5"><path d="M85.595 101.122l1.92-5.386c1.461-4.1-.727-8.593-4.888-10.035l-.093-.032h0c-4.246-1.414-8.855.798-10.34 4.964l-1.92 5.386c-1.461 4.1.727 8.593 4.887 10.036l.094.031h0c4.246 1.415 8.854-.798 10.34-4.964z"/><path stroke-linecap="round" d="M73.186 90.344l5.888 1.983m-8.121 3.008l5.862 2.06"/></g></g></g></g></svg>