<svg xmlns="http://www.w3.org/2000/svg" viewBox="0 0 96.69 23.76"><g data-name="Calque 2"><path d="M16.7 0H7.59v12.29h12.3V3.18A3.18 3.18 0 0016.7 0zM4.75 0H3.18A3.18 3.18 0 000 3.18v1.57h4.75zM0 7.59h4.75v4.75H0V7.59zm15.18 12.3h1.57a3.18 3.18 0 003.18-3.19v-1.52h-4.75zm-7.59-4.71h4.75v4.75H7.59v-4.75zm-7.59 0v1.57a3.18 3.18 0 003.18 3.18h1.57v-4.75zM32.03 1.27h-1.86v17.39h9.85V17h-7.99V1.27zM46 5.88c-3.62 0-6.17 2.69-6.17 6.56v.44A6.35 6.35 0 0046.14 19h.24A7.13 7.13 0 0051 17.29v-.05l-.84-1.37-.09.05a5.47 5.47 0 01-3.68 1.47 4.6 4.6 0 01-4.7-4.75h9.4v-.98c.09-3.53-1.96-5.78-5.09-5.78zm-4.21 5.19a4.12 4.12 0 014.11-3.63c1.57 0 3.29.94 3.43 3.63zM62 7.35V8a4.43 4.43 0 00-3.77-2.15H58c-3.33 0-5.63 2.64-5.63 6.51s2.2 6.57 5.48 6.57a4.58 4.58 0 004.17-2.26v1.91h1.76V1.27H62v6.08zm-3.82 9.94c-2.3 0-3.82-2-3.82-4.9s1.61-4.85 3.87-4.85c1.87 0 3.77 1.52 3.77 4.85 0 3.61-2 4.9-3.86 4.9zm16.37-9.7v.1c-.35-.59-1.42-1.86-4-1.86-3.28 0-5.44 2.5-5.44 6.32s2.26 6.41 5.59 6.41a4.16 4.16 0 003.87-2v1.72c0 2.4-1.52 3.77-4.22 3.77a7.3 7.3 0 01-3.35-.79l-.09-.05-.69 1.52.1.05a9.26 9.26 0 004.06 1c2.89 0 6-1.47 6-5.54v-12h-1.83v1.35zM70.92 17c-2.4 0-4-1.86-4-4.75s1.37-4.61 3.72-4.61c2.59 0 3.82 1.52 3.82 4.61S73.27 17 70.92 17zM83.76 5.88c-3.63 0-6.13 2.69-6.13 6.51v.44A6.37 6.37 0 0084 19h.25a7.12 7.12 0 004.6-1.72L88 15.82h-.1a5.45 5.45 0 01-3.67 1.47 4.61 4.61 0 01-4.71-4.75H89v-.98c0-3.43-2.06-5.68-5.24-5.68zm-4.17 5.19a4.13 4.13 0 014.12-3.63c1.56 0 3.28.94 3.42 3.63zm17.05-4.95c-.25 0-.44 0-.69-.1a4.2 4.2 0 00-3.87 2.89V6.12h-1.81v12.49h1.86v-5.24a7.77 7.77 0 01.39-2.37c.59-1.91 1.91-3.13 3.48-3.13a2.93 2.93 0 01.59 0h.1V6.12z" fill="#142533" data-name="Calque 1"/></g></svg>