<svg width="96" height="96" xmlns="http://www.w3.org/2000/svg"><g fill="none" fill-rule="evenodd"><path d="M71.704 35.033C71.357 21.72 60.565 11 47.35 11c-6.07 0-11.884 2.276-16.373 6.408a24.731 24.731 0 00-7.506 13.368 18.236 18.236 0 00-9.578 5.537A18.675 18.675 0 009 48.956c0 8.894 6.193 16.348 14.438 18.169v-6.32c-4.889-1.662-8.422-6.343-8.422-11.85 0-6.47 4.977-11.942 11.331-12.458l2.496-.202.256-2.526c.962-9.504 8.808-16.672 18.25-16.672 10.118 0 18.348 8.343 18.348 18.597v5.335h4.211c5.556 0 10.076 4.582 10.076 10.213 0 5.06-3.65 9.27-8.421 10.073v6.152C79.66 66.624 86 59.67 86 51.242c0-8.378-6.265-15.301-14.296-16.21z" fill="#003945" fill-rule="nonzero"/><path fill="#05C0A5" d="M33.724 53.733l1.543-2.8 8.333-4.059h4.06l7.03 1.74 5.658 3.817v13.263l-2.724 5.252-3.99 5.383-4.68 2.59h-2.965l-8.032-6.696-4.233-7.93z"/><path d="M58.86 47.563c-3.331-.594-6.502-2.539-7.71-3.347a7.604 7.604 0 00-4.242-1.29 7.605 7.605 0 00-4.243 1.29c-1.208.808-4.378 2.753-7.71 3.347-2.684.478-4.632 2.785-4.632 5.485v8.546c0 12.867 14.827 19.574 15.458 19.853l1.127.498 1.126-.498c.632-.28 15.458-6.986 15.458-19.853v-8.546c0-2.7-1.948-5.007-4.632-5.485zm-.896 14.03c0 7.591-8.037 12.649-11.056 14.28-3.023-1.633-11.057-6.69-11.057-14.28v-8.545c0-.046.034-.085.082-.094 4.211-.75 7.964-2.952 9.826-4.198a2.06 2.06 0 012.297 0c1.862 1.246 5.615 3.448 9.826 4.198a.096.096 0 01.082.094v8.546z" fill="#003945" fill-rule="nonzero"/></g></svg>