<svg width="28" height="28" xmlns="http://www.w3.org/2000/svg"><g fill="none" fill-rule="evenodd"><circle fill="#FDD349" fill-rule="nonzero" cx="14" cy="14" r="14"/><g fill="#000"><path d="M4.588 12.698l9.208 4.906 9.616-5.08v-.514l-9.617 5.08-9.207-4.905v.513zm0 .67v8.802c0 .153.132.277.294.277h18.236c.162 0 .294-.124.294-.277v-8.978l-9.617 5.08-9.207-4.905zm0-1.852l9.208 4.907 9.616-5.08v-.422L14 15.632l-9.412-4.71v.594zM4 10l10 5.006L24 10v12.17c0 .458-.395.83-.882.83H4.882C4.395 23 4 22.628 4 22.17V10z" fill-rule="nonzero"/><path d="M7 11.897c.007-.196.013-.404.02-.505a6.618 6.618 0 01.676-2.498A6.82 6.82 0 019.798 6.38a6.91 6.91 0 013.307-1.322c1.485-.18 2.899.052 4.205.77 2.162 1.19 3.38 3.02 3.658 5.447.03.269.026.542.032.814 0 .033-.018.083-.044.098-.143.081-.292.152-.46.24.068-1.824-.492-3.391-1.74-4.72v.969c0 .383.002.767 0 1.15-.002.08.01.14.089.192.182.124.223.455.092.632a.335.335 0 01-.32.143.34.34 0 01-.294-.234.514.514 0 01.16-.562.199.199 0 00.062-.132c.004-.776.002-1.553 0-2.33 0-.036-.007-.085-.03-.107-.152-.141-.31-.275-.466-.413l-.039.017v.735l-.001 4.137c0 .096.014.166.104.233.161.117.19.436.078.6a.35.35 0 01-.592-.016c-.112-.187-.048-.486.124-.62a.227.227 0 00.077-.149c.004-1.67.004-3.34-.003-5.01a.224.224 0 00-.087-.164 6.336 6.336 0 00-2.914-1.1 7.565 7.565 0 01-.256-.03v6.479h1.722V7.03h-.688c-.003.043-.007.085-.007.127a330.9 330.9 0 00.001 2.636c0 .055.041.123.085.161.168.139.214.479.078.65a.35.35 0 01-.54.012c-.154-.174-.123-.524.067-.656.077-.053.096-.105.096-.19-.004-.941-.003-1.883-.004-2.824 0-.252.001-.252.259-.25h.855v5.75c-.054.003-.11.01-.168.01-.596 0-1.192-.007-1.787.003-.159.004-.188-.052-.188-.19.003-1 0-1.999 0-3 0-1.164-.004-2.33-.002-3.495 0-.108-.034-.15-.14-.15-.171.003-.342 0-.533 0v.2l-.002 3.219c0 .094.009.165.104.23.169.12.161.312.132.493-.023.139-.122.227-.265.264-.146.036-.262-.015-.352-.124-.145-.17-.094-.515.085-.659a.222.222 0 00.079-.15c.004-1.111.001-2.224 0-3.336 0-.031-.006-.066-.01-.11-.177.023-.348.038-.516.072-.037.008-.088.077-.088.119-.008.64-.008 1.28-.005 1.921 0 .043.036.098.072.128a.526.526 0 01.133.608.356.356 0 01-.382.185.346.346 0 01-.287-.296c-.022-.192-.008-.38.182-.505.03-.02.055-.07.055-.107.001-.64-.001-1.28-.004-1.921 0-.013-.006-.028-.018-.062a6.301 6.301 0 00-1.89.742l.65.677c.148.156.291.316.448.463.1.093.122.203.122.327l-.007 3.392v1.321c-.056.003-.1.01-.14.01l-.8.002c-.15 0-.284-.017-.397.155-.136.203-.49.127-.556-.113a.747.747 0 01.027-.446c.1-.24.437-.243.575-.018.053.085.108.106.199.105.284-.004.57-.001.887-.001v-.454c-.003-1.267-.005-2.534-.01-3.801 0-.07-.007-.158-.049-.202-.394-.421-.797-.832-1.205-1.254-.08.054-.154.105-.245.17l.542.565c.181.188.366.37.538.562.047.053.09.134.09.202.004 1.092.002 2.184 0 3.278 0 .007-.005.017-.016.051h-.223c-.487 0-.976.003-1.462 0-.08 0-.132.012-.174.093a.33.33 0 01-.377.16.344.344 0 01-.27-.325.986.986 0 01.03-.287c.04-.131.141-.208.282-.222.147-.015.254.044.338.166.026.04.078.093.12.094.486.007.974.004 1.462.003.019 0 .037-.006.071-.011.004-.047.01-.093.01-.14 0-.884 0-1.768-.005-2.65a.323.323 0 00-.083-.201c-.364-.388-.736-.769-1.134-1.18-.315.318-.639.61-.917.938a6.102 6.102 0 00-1.38 2.95c-.046.265-.006.844.004 1.278l-.586-.253L7 11.897z"/></g></g></svg>