<svg width="64" height="64" xmlns="http://www.w3.org/2000/svg"><g fill="none"><path d="M9.89 22.646h21.82c3.247 0 5.89 2.684 5.89 5.983v13.667c0 3.298-2.643 5.982-5.89 5.982H17.811l-6.652 6.756a1.168 1.168 0 01-1.284.26 1.196 1.196 0 01-.728-1.106v-5.957C6.25 47.859 4 45.339 4 42.296V28.629c0-3.3 2.643-5.983 5.89-5.983z" fill="#5A78F0"/><path d="M51.692 8H20.923c-4.58 0-8.308 3.673-8.308 8.187v18.702c0 4.514 3.727 8.186 8.308 8.186h19.598l9.382 9.245a1.673 1.673 0 001.81.355 1.637 1.637 0 001.027-1.512V43.01c4.088-.51 7.26-3.958 7.26-8.122V16.187C60 11.673 56.273 8 51.692 8z" fill="#CDF4EE"/><path d="M37.977 20.923h.034c.417 0 .814.214 1.06.572.22.319.3.722.225 1.105l-.035.142-2.511 9.275c-.162.537-.607.911-1.128.962l-.122.006h-.034c-.417 0-.813-.214-1.06-.572a1.469 1.469 0 01-.226-1.104l.035-.142 2.512-9.276c.162-.537.607-.911 1.129-.962l.121-.006h.034-.034zm-7.735.862c.255 0 .502.081.714.235.35.253.57.669.608 1.131l.005.14v.04c0 .539-.256 1.038-.663 1.305l-.104.062-4.269 2.255 4.269 2.255c.43.227.72.702.762 1.234l.005.134v.04c0 .516-.229.992-.613 1.27-.214.155-.46.237-.714.237-.155 0-.306-.03-.45-.09l-.108-.05-6.825-3.608c-.43-.229-.72-.704-.761-1.234l-.006-.134V26.9c0-.539.257-1.038.663-1.305l.104-.062 6.824-3.608a1.2 1.2 0 01.559-.14zm12.994 0c.192 0 .385.048.557.139l6.824 3.608c.467.246.768.783.768 1.367v.108c0 .584-.301 1.12-.767 1.367l-6.824 3.609a1.19 1.19 0 01-1.273-.097c-.384-.279-.613-.754-.613-1.27v-.04c0-.585.301-1.122.767-1.368l4.268-2.255-4.268-2.254c-.466-.248-.767-.785-.767-1.368v-.04c0-.518.23-.993.613-1.271.213-.154.46-.235.715-.235z" fill="#00C0A5"/></g></svg>