<svg width="88" height="82" fill="none" xmlns="http://www.w3.org/2000/svg"><path d="M82.997 1L49.325 26.009l6.227-14.755L82.997 1z" fill="#E2761B" stroke="#E2761B" stroke-linecap="round" stroke-linejoin="round"/><path d="M5.264 1l33.401 25.245-5.922-14.991L5.264 1zm65.618 57.97l-8.968 13.739 19.188 5.28 5.516-18.715-15.736-.305zm-69.172.304l5.483 18.714 19.188-5.28-8.968-13.739-15.702.305z" fill="#E4761B" stroke="#E4761B" stroke-linecap="round" stroke-linejoin="round"/><path d="M25.298 35.755l-5.347 8.088 19.052.846-.676-20.474-13.03 11.54zm37.665 0L49.765 23.978l-.44 20.71 19.019-.845-5.381-8.088zM26.38 72.709l11.439-5.584-9.882-7.716-1.556 13.3zm24.062-5.584l11.472 5.584-1.59-13.3-9.882 7.716z" fill="#E4761B" stroke="#E4761B" stroke-linecap="round" stroke-linejoin="round"/><path d="M61.914 72.709l-11.472-5.584.913 7.48-.101 3.146 10.66-5.042zm-35.534 0l10.66 5.042-.067-3.147.846-7.479-11.438 5.584z" fill="#D7C1B3" stroke="#D7C1B3" stroke-linecap="round" stroke-linejoin="round"/><path d="M37.21 54.469l-9.543-2.81L34.4 48.58l2.809 5.889zm13.84 0l2.81-5.889 6.768 3.08-9.577 2.809z" fill="#233447" stroke="#233447" stroke-linecap="round" stroke-linejoin="round"/><path d="M26.38 72.709l1.625-13.74-10.592.305 8.968 13.435zM60.29 58.97l1.624 13.739 8.968-13.435-10.593-.305zm8.054-15.127l-19.02.846 1.76 9.78 2.81-5.889 6.768 3.08 7.682-7.817zM27.667 51.66l6.768-3.08 2.775 5.889 1.793-9.78-19.052-.846 7.716 7.817z" fill="#CD6116" stroke="#CD6116" stroke-linecap="round" stroke-linejoin="round"/><path d="M19.95 43.843l7.987 15.567-.27-7.75-7.716-7.817zm40.712 7.817l-.339 7.75 8.02-15.567-7.681 7.817zm-21.659-6.971l-1.793 9.78 2.233 11.54.508-15.195-.948-6.125zm10.322 0l-.914 6.091.406 15.228 2.268-11.54-1.76-9.78z" fill="#E4751F" stroke="#E4751F" stroke-linecap="round" stroke-linejoin="round"/><path d="M51.085 54.469l-2.268 11.54 1.625 1.116 9.881-7.715.339-7.75-9.577 2.809zM27.667 51.66l.27 7.75 9.882 7.715 1.624-1.117-2.233-11.54-9.543-2.808z" fill="#F6851B" stroke="#F6851B" stroke-linecap="round" stroke-linejoin="round"/><path d="M51.254 77.751l.101-3.147-.846-.744H37.751l-.778.744.068 3.147-10.66-5.042 3.722 3.046L37.65 81h12.96l7.581-5.245 3.723-3.046-10.66 5.042z" fill="#C0AD9E" stroke="#C0AD9E" stroke-linecap="round" stroke-linejoin="round"/><path d="M50.442 67.125l-1.625-1.117h-9.374l-1.624 1.117-.846 7.48.778-.745H50.51l.846.744-.913-7.479z" fill="#161616" stroke="#161616" stroke-linecap="round" stroke-linejoin="round"/><path d="M84.418 27.633l2.876-13.807L82.998 1 50.442 25.162l12.52 10.593 17.7 5.177 3.925-4.568-1.692-1.218 2.707-2.47-2.098-1.625 2.708-2.064-1.794-1.354zM1 13.826l2.876 13.807-1.827 1.354 2.707 2.064-2.064 1.624 2.707 2.47-1.692 1.219L7.6 40.932l17.699-5.177L37.82 25.162 5.264 1 1 13.826z" fill="#763D16" stroke="#763D16" stroke-linecap="round" stroke-linejoin="round"/><path d="M80.662 40.932l-17.7-5.177 5.382 8.088-8.02 15.566 10.558-.135h15.736l-5.956-18.342zm-55.364-5.177L7.599 40.932 1.711 59.274h15.702l10.524.136-7.986-15.567 5.347-8.088zm24.027 8.934l1.117-19.526 5.144-13.91H32.743l5.076 13.91 1.184 19.526.407 6.159.033 15.16h9.374l.068-15.16.44-6.16z" fill="#F6851B" stroke="#F6851B" stroke-linecap="round" stroke-linejoin="round"/></svg>