<svg xmlns="http://www.w3.org/2000/svg" width="64" height="64" viewBox="0 0 64 31.45"><path d="M62.55 11.12h-5.44a3.88 3.88 0 01-3.88-3.88V1.45A1.45 1.45 0 0051.78 0h-7.23a1.45 1.45 0 00-1.45 1.45V8.7a1.45 1.45 0 001.45 1.45H50a3.88 3.88 0 013.89 3.86v16a1.45 1.45 0 001.45 1.45h7.22A1.44 1.44 0 0064 29.99V12.57a1.45 1.45 0 00-1.45-1.45m-20.9 0H36.2a3.88 3.88 0 01-3.87-3.88V1.45A1.45 1.45 0 0030.93 0h-7.27a1.45 1.45 0 00-1.45 1.45V8.7a1.45 1.45 0 001.45 1.45h5.44a3.87 3.87 0 013.9 3.83v16a1.45 1.45 0 001.45 1.45h7.22a1.45 1.45 0 001.45-1.45V12.57a1.45 1.45 0 00-1.45-1.45m-21.5 0h-7.24a1.45 1.45 0 00-1.45 1.45v17.38a1.45 1.45 0 001.45 1.45h7.22a1.45 1.45 0 001.45-1.45V12.57a1.45 1.45 0 00-1.45-1.45m-10-9.67V8.7a1.45 1.45 0 01-1.45 1.45H1.45A1.45 1.45 0 010 8.7V1.45A1.45 1.45 0 011.45 0h7.22a1.45 1.45 0 011.45 1.45" fill="#fff"/></svg>