<svg width="220" height="220" fill="none" xmlns="http://www.w3.org/2000/svg"><path fill="#fff" d="M0 0h220v220H0z"/><path d="M109.632 189.632c44.182 0 80-35.818 80-80 0-44.183-35.818-80-80-80-44.183 0-80 35.817-80 80 0 44.182 35.817 80 80 80z" fill="#1896A4"/><path d="M113.75 136.246c-3.247.497-6.623.432-10.015-.351-14.262-3.292-23.155-17.524-19.862-31.786.243-1.054.57-2.073.922-3.072L59.759 90.803a53.788 53.788 0 00-2.08 6.833c-6.625 28.697 11.273 57.339 39.97 63.964a53.025 53.025 0 0029.204-1.499l-13.103-23.855zm22.274-29.372l-36.317-.356 57.787 26.63a53.797 53.797 0 004.104-11.521c6.625-28.697-11.272-57.338-39.969-63.963-11.519-2.66-23.01-1.36-33.09 2.988l13.351 24.095a26.298 26.298 0 0113.773-.515c11.172 2.58 19.06 11.881 20.361 22.642z" fill="#fff"/></svg>