<svg width="64" height="64" xmlns="http://www.w3.org/2000/svg"><g transform="translate(5 4)" fill="none" fill-rule="evenodd"><path fill="#CDF4EE" d="M27.378 26.133l3.733-4.977h-7.467z"/><path d="M7.978 0h37.555a3 3 0 013 3v16.4a3 3 0 01-3 3H7.978a3 3 0 01-3-3V3a3 3 0 013-3z" fill="#CDF4EE"/><path d="M13.689 7.467l26.756-.014M16.178 14.92h22.4" stroke="#5A78F0" stroke-width="4" stroke-linecap="round"/><circle fill="#05C0A5" fill-rule="nonzero" cx="8.711" cy="37.333" r="4.978"/><path d="M14.933 44.427c-2.26 1.655-2.494 4.312-2.494 7.295v.545H1.679c-.918 0-1.679-.74-1.679-1.634v-1.089c0-3.31 2.754-5.988 6.157-5.988h5.597c1.164 0 2.261.326 3.18.87z" fill="#05C0A5" fill-rule="nonzero"/><circle fill="#05C0A5" fill-rule="nonzero" cx="46.044" cy="37.333" r="4.978"/><path d="M54.756 49.544v1.09c0 .892-.762 1.633-1.68 1.633h-10.76v-.545c0-2.983-.233-5.64-2.494-7.295a6.245 6.245 0 013.18-.871h5.597c3.403 0 6.157 2.678 6.157 5.988z" fill="#05C0A5" fill-rule="nonzero"/><circle fill="#05C0A5" fill-rule="nonzero" cx="26.756" cy="35.467" r="6.844"/><path d="M33.6 44.8H21.156c-3.433 0-6.223 2.762-6.223 6.16v3.36c0 .927.76 1.68 1.697 1.68h21.495a1.69 1.69 0 001.697-1.68v-3.36c0-3.398-2.79-6.16-6.222-6.16z" fill="#05C0A5" fill-rule="nonzero"/></g></svg>