<svg width="69" height="84" fill="none" xmlns="http://www.w3.org/2000/svg"><path d="M50.84 79.176c17.411.824 19.167-14.4 14.066-23.265-4.94-8.588-12.353-11.53-24.34-10.4-11.987 1.127.052 20.656 8.276 19.224 3.73-.65.493 14.37 1.997 14.441z" fill="#fff" stroke="#000" stroke-width="2.5"/><path d="M18.572 79.176C1.16 80-.596 64.776 4.505 55.911c4.94-8.588 12.353-11.53 24.34-10.4 11.987 1.127-.052 20.656-8.276 19.224-3.73-.65-.493 14.37-1.997 14.441z" fill="#fff" stroke="#000" stroke-width="2.5"/><path d="M36.885 2c5.952 0 9.817.957 13.172 2.753a18.716 18.716 0 017.782 7.79c1.774 3.323 2.729 7.145 2.75 12.995v3.555c0 5.96-.956 9.829-2.75 13.187a18.717 18.717 0 01-7.782 7.79c-3.355 1.797-7.22 2.754-13.172 2.754h-4.359c-5.951 0-9.817-.957-13.171-2.753a18.716 18.716 0 01-7.782-7.79c-1.794-3.36-2.75-7.229-2.75-13.188V25.73c0-5.959.956-9.828 2.75-13.187a18.715 18.715 0 017.782-7.79C22.674 2.976 26.49 2.02 32.335 2h4.55z" fill="#fff" stroke="#000" stroke-width="2.5"/><path d="M31.555 16.588h6.302c3.193 0 5.667.59 7.743 1.695a11.551 11.551 0 014.816 4.795c1.11 2.067 1.702 4.53 1.702 7.71v.778c0 3.179-.592 5.642-1.702 7.71A11.551 11.551 0 0145.6 44.07c-2.076 1.106-4.55 1.695-7.743 1.695h-6.302c-3.193 0-5.667-.589-7.743-1.694a11.551 11.551 0 01-4.816-4.796c-1.11-2.067-1.702-4.53-1.702-7.71v-.777c0-3.18.591-5.643 1.702-7.71a11.551 11.551 0 014.816-4.795c2.076-1.106 4.55-1.695 7.743-1.695z" fill="#fff" stroke="#000" stroke-width="2.5"/><path d="M23.647 35.176a3.765 3.765 0 100-7.53 3.765 3.765 0 000 7.53zm22.118 0a3.765 3.765 0 100-7.529 3.765 3.765 0 000 7.53z" fill="#000"/><path d="M30.706 30.706c0 2.079 1.79 3.765 4 3.765 2.209 0 4-1.686 4-3.765" stroke="#000" stroke-width="2.5" stroke-linecap="round"/><path d="M8.761 16.657c1.126.159 2.102.566 2.886 1.164a5.273 5.273 0 011.73 2.309c.357.922.477 1.977.32 3.107l-.145 1.03c-.158 1.13-.563 2.111-1.158 2.899a5.254 5.254 0 01-2.298 1.74c-.917.357-1.967.479-3.093.32-1.125-.16-2.101-.566-2.885-1.165a5.274 5.274 0 01-1.731-2.308c-.356-.922-.477-1.977-.319-3.108l.144-1.03c.158-1.13.564-2.11 1.159-2.898a5.253 5.253 0 012.298-1.74c.917-.358 1.967-.479 3.092-.32z" fill="#fff" stroke="#000" stroke-width="2.5"/><path d="M7.311 20.606L6.786 24" stroke="#D8D8D8" stroke-width="3.255" stroke-linecap="round" stroke-linejoin="round"/><path d="M60.626 16.655c-1.122.154-2.094.548-2.874 1.127a5.106 5.106 0 00-1.722 2.234c-.353.893-.472 1.915-.315 3.013l.201 1.396c.158 1.097.56 2.048 1.152 2.81a5.198 5.198 0 002.285 1.684c.912.346 1.958.463 3.08.308 1.122-.154 2.094-.548 2.874-1.126a5.105 5.105 0 001.721-2.234c.354-.893.473-1.916.315-3.013l-.2-1.396c-.158-1.097-.56-2.048-1.152-2.811a5.199 5.199 0 00-2.285-1.684c-.913-.346-1.958-.462-3.08-.308z" fill="#fff" stroke="#000" stroke-width="2.5"/><path d="M62.095 20.606L62.62 24" stroke="#D8D8D8" stroke-width="3.255" stroke-linecap="round" stroke-linejoin="round"/><path d="M34.706 41.059c-11.306 0-20.47 9.165-20.47 20.47C14.235 72.835 23.4 82 34.705 82s20.47-9.165 20.47-20.47c0-11.306-9.164-20.471-20.47-20.471z" fill="#07A6B3"/><path d="M34.706 41.059c-11.306 0-20.47 9.165-20.47 20.47C14.235 72.835 23.4 82 34.705 82s20.47-9.165 20.47-20.47c0-11.306-9.164-20.471-20.47-20.471z" stroke="#000" stroke-width="2.5"/><path d="M22.644 56.908l5.563 2.367-.067.294a6.795 6.795 0 00-.291 1.668 2.429 2.429 0 00-.013.338l.005.078a6.82 6.82 0 002.62 5.29 6.843 6.843 0 005.772 1.271l3.163 5.362a12.608 12.608 0 01-4.681.895c-6.972 0-12.95-5.644-12.95-12.607 0-1.635.311-3.522.879-4.956zm12.072-8.32c6.972 0 12.931 5.748 12.931 12.71-.001 1.76-.215 3.517-.849 5.05l-.133.302-14.121-5.974 9.058-.04c-.326-3.28-3.702-5.947-6.887-5.947-.722 0-1.44.119-2.122.354L29.46 49.73a12.594 12.594 0 015.257-1.142z" fill="#fff"/><path d="M12.816 74.876l-1.527-4.283c-1.162-3.26.578-6.832 3.886-7.98l.074-.024c3.376-1.125 7.04.635 8.222 3.947l1.526 4.282c1.163 3.26-.577 6.833-3.886 7.98l-.074.025c-3.376 1.125-7.04-.635-8.221-3.947z" fill="#fff" stroke="#000" stroke-width="2.5"/><path d="M22.682 66.306L18 67.882m6.458 2.392l-4.662 1.639" stroke="#000" stroke-width="2.5" stroke-linecap="round"/><path d="M56.647 74.876l1.527-4.283c1.162-3.26-.578-6.832-3.886-7.98l-.074-.024c-3.377-1.125-7.04.635-8.222 3.947l-1.526 4.282c-1.163 3.26.577 6.833 3.885 7.98l.075.025c3.376 1.125 7.04-.635 8.221-3.947z" fill="#fff" stroke="#000" stroke-width="2.5"/><path d="M46.78 66.306l4.683 1.576m-6.458 2.392l4.662 1.639" stroke="#000" stroke-width="2.5" stroke-linecap="round"/></svg>