<svg width="220" height="220" fill="none" xmlns="http://www.w3.org/2000/svg"><g clip-path="url(#clip0_462_5119)"><path fill="#fff" d="M0 0h220v220H0z"/><g clip-path="url(#clip1_462_5119)"><path d="M147.199 198.973c40.146 1.899 44.194-33.202 32.434-53.642-11.393-19.802-28.482-26.584-56.121-23.983-27.638 2.602.119 47.629 19.081 44.327 8.602-1.498 1.137 33.134 4.606 33.298z" fill="#fff" stroke="#000" stroke-width="4.583"/><path d="M72.8 198.973c-40.147 1.899-44.195-33.202-32.435-53.642 11.393-19.802 28.482-26.584 56.12-23.983 27.639 2.602-.118 47.629-19.08 44.327-8.603-1.498-1.138 33.134-4.606 33.298z" fill="#fff" stroke="#000" stroke-width="4.583"/><path d="M115.025 21.027c13.723 0 22.635 2.206 30.37 6.347 7.735 4.142 13.805 10.22 17.942 17.963 4.092 7.66 6.292 16.474 6.34 29.963v8.197c0 13.738-2.203 22.66-6.34 30.404-4.137 7.744-10.207 13.821-17.942 17.963-7.735 4.141-16.647 6.347-30.37 6.347h-10.05c-13.723 0-22.635-2.206-30.37-6.347-7.735-4.142-13.805-10.219-17.942-17.963-4.137-7.744-6.34-16.666-6.34-30.404V75.74c0-13.738 2.203-22.66 6.34-30.404 4.137-7.743 10.207-13.82 17.942-17.962 7.652-4.097 16.455-6.3 29.929-6.347h10.491z" fill="#fff" stroke="#000" stroke-width="4.583"/><path d="M102.734 54.663h14.532c7.362 0 13.065 1.358 17.853 3.907 4.787 2.55 8.544 6.29 11.104 11.056 2.56 4.767 3.923 10.446 3.923 17.776v1.795c0 7.33-1.363 13.009-3.923 17.775-2.56 4.767-6.317 8.508-11.104 11.057-4.788 2.549-10.491 3.906-17.853 3.906h-14.532c-7.362 0-13.065-1.357-17.852-3.906-4.788-2.549-8.544-6.29-11.105-11.057-2.56-4.766-3.923-10.445-3.923-17.775v-1.795c0-7.33 1.363-13.01 3.923-17.776s6.317-8.507 11.105-11.056c4.787-2.55 10.49-3.907 17.852-3.907z" fill="#fff" stroke="#000" stroke-width="4.583"/><path d="M84.502 97.522a8.68 8.68 0 100-17.36 8.68 8.68 0 000 17.36zm50.996 0a8.68 8.68 0 100-17.362 8.68 8.68 0 000 17.362z" fill="#000"/><path d="M100.777 87.214c0 4.794 4.129 8.68 9.223 8.68 5.094 0 9.223-3.886 9.223-8.68" stroke="#000" stroke-width="4.583" stroke-linecap="round"/><path d="M50.18 54.822c2.594.366 4.845 1.305 6.652 2.684a12.16 12.16 0 013.992 5.323c.821 2.125 1.1 4.558.734 7.165l-.332 2.374c-.364 2.607-1.299 4.868-2.671 6.684a12.113 12.113 0 01-5.298 4.011c-2.115.825-4.536 1.104-7.13.738-2.595-.366-4.846-1.305-6.653-2.684a12.16 12.16 0 01-3.992-5.323c-.821-2.126-1.099-4.558-.734-7.165l.332-2.374c.364-2.607 1.299-4.868 2.671-6.684a12.114 12.114 0 015.298-4.012c2.115-.825 4.536-1.104 7.13-.737z" fill="#fff" stroke="#000" stroke-width="4.583"/><path d="M46.836 63.926l-1.211 7.826" stroke="#D8D8D8" stroke-width="5.968" stroke-linecap="round" stroke-linejoin="round"/><path d="M169.764 54.818c-2.587.355-4.828 1.263-6.627 2.597a11.774 11.774 0 00-3.969 5.151c-.815 2.059-1.09 4.416-.726 6.946l.462 3.22c.364 2.53 1.292 4.722 2.656 6.48a11.987 11.987 0 005.268 3.883c2.104.797 4.515 1.066 7.102.71 2.586-.356 4.828-1.264 6.627-2.597a11.775 11.775 0 003.969-5.152c.815-2.058 1.09-4.416.726-6.946l-.462-3.22c-.364-2.529-1.292-4.721-2.656-6.48a11.987 11.987 0 00-5.268-3.882c-2.105-.797-4.515-1.066-7.102-.71z" fill="#fff" stroke="#000" stroke-width="4.583"/><path d="M173.151 63.926l1.211 7.826" stroke="#D8D8D8" stroke-width="5.968" stroke-linecap="round" stroke-linejoin="round"/><path d="M110 111.085c-26.069 0-47.199 21.133-47.199 47.199S83.934 205.483 110 205.483s47.199-21.133 47.199-47.199-21.13-47.199-47.199-47.199z" fill="#07A6B3"/><path d="M110 111.085c-26.069 0-47.199 21.133-47.199 47.199S83.934 205.483 110 205.483s47.199-21.133 47.199-47.199-21.13-47.199-47.199-47.199z" stroke="#000" stroke-width="4.583"/><path d="M82.188 147.629l12.827 5.456-.153.677a15.666 15.666 0 00-.673 3.848 5.596 5.596 0 00-.029.778l.012.179a15.724 15.724 0 006.041 12.198 15.773 15.773 0 0013.308 2.932l7.292 12.363a29.067 29.067 0 01-10.792 2.062c-16.076 0-29.86-13.012-29.86-29.067 0-3.77.718-8.121 2.027-11.426zm27.836-19.183c16.076 0 29.814 13.253 29.814 29.304-.002 4.06-.494 8.11-1.957 11.643l-.307.697-32.559-13.775 20.885-.091c-.75-7.563-8.536-13.712-15.878-13.712a15 15 0 00-4.893.815l-7.227-12.25a29.038 29.038 0 0112.122-2.631z" fill="#fff"/><path d="M59.528 189.056l-3.52-9.873c-2.68-7.517 1.331-15.754 8.96-18.399l.17-.058c7.785-2.593 16.234 1.464 18.957 9.102l3.52 9.874c2.68 7.516-1.332 15.753-8.96 18.398l-.171.058c-7.784 2.593-16.233-1.464-18.956-9.102z" fill="#fff" stroke="#000" stroke-width="4.583"/><path d="M82.277 169.296l-10.796 3.636m14.89 5.515l-10.748 3.778" stroke="#000" stroke-width="4.583" stroke-linecap="round"/><path d="M160.59 189.056l3.52-9.873c2.68-7.517-1.332-15.754-8.96-18.399l-.171-.058c-7.784-2.593-16.233 1.464-18.956 9.102l-3.52 9.874c-2.68 7.516 1.331 15.753 8.959 18.398l.172.058c7.784 2.593 16.233-1.464 18.956-9.102z" fill="#fff" stroke="#000" stroke-width="4.583"/><path d="M137.84 169.296l10.796 3.636m-14.89 5.515l10.749 3.778" stroke="#000" stroke-width="4.583" stroke-linecap="round"/></g></g><defs><clipPath id="clip0_462_5119"><path fill="#fff" d="M0 0h220v220H0z"/></clipPath><clipPath id="clip1_462_5119"><path fill="#fff" d="M0 0h220v220H0z"/></clipPath></defs></svg>