<svg version="1.1" id="Capa_1" xmlns="http://www.w3.org/2000/svg" x="0" y="0" viewBox="0 0 400 400" xml:space="preserve"><style>.st0{fill:#ceb185}</style><g id="XMLID_250_" transform="translate(-50.612 244)"><g id="XMLID_251_" transform="matrix(3.53817 0 0 3.52551 -465.346 -316.642)"><path id="XMLID_261_" class="st0" d="M241.3 38.6c-21.5-21.5-56.4-21.5-77.9 0s-21.5 56.4 0 77.9 56.4 21.5 77.9 0c21.5-21.5 21.5-56.4 0-77.9zm-.8 77.2c-21 21-55.1 21-76.1 0s-21-55.1 0-76.1 55.1-21 76.1 0 21 55.1 0 76.1z"/><path id="XMLID_258_" class="st0" d="M238.7 41.3c-20.1-20.1-52.7-20.1-72.8 0s-20.1 52.7 0 72.8 52.7 20.1 72.8 0 20.2-52.7 0-72.8zm-.4 72.3c-19.8 19.8-52 19.8-71.8 0-19.8-19.8-19.8-52 0-71.8s52-19.8 71.8 0c19.9 19.8 19.9 52 0 71.8z"/><g id="XMLID_252_"><path id="XMLID_257_" class="st0" d="M235.6 73.7c-.3-.5-.7-.9-1.3-1.2-.6-.3-1.4-.4-2.3-.4-1.9 0-3.5.5-4.6 1.5-1.2 1-2.1 2.4-2.8 4.1H236c.1-.8.2-1.5.2-2.2-.1-.7-.3-1.3-.6-1.8z"/><path id="XMLID_253_" class="st0" d="M237.7 42.5c-19.5-19.5-51-19.5-70.5 0s-19.5 51 0 70.5 51 19.5 70.5 0c19.4-19.5 19.4-51.1 0-70.5zM197.6 95l6.2-29.3h-.1L188.4 95h-8.1l.4-29.3h-.1L171.1 95h-10l12.4-38.6h14.8c-.1 3.2-.2 6.1-.3 8.8 0 1.1-.1 2.2-.1 3.4 0 1.1-.1 2.1-.1 3.1 0 .9 0 1.8-.1 2.4v1.4c0 .7 0 1.6-.1 2.5-.1 1-.1 1.9-.2 2.7-.1 1-.1 2-.2 3.1h.1c.5-1 .9-2.1 1.4-3.1.4-.9.8-1.8 1.3-2.7.5-1 .9-1.8 1.3-2.5.1-.3.4-.7.7-1.4.3-.7.7-1.5 1.2-2.4.5-.9 1-2 1.5-3.1s1.1-2.2 1.7-3.4l4.4-8.8h14.8l-8 38.6h-10zm46.6-14.5c-.2.9-.5 1.8-.9 2.8H223c-.2.8-.2 1.5-.2 2.3.1.8.3 1.5.8 2.1.4.6 1.1 1.2 1.9 1.6.8.4 1.9.6 3.3.6.9 0 1.9-.1 3-.3 1.1-.2 2.2-.4 3.3-.7 1.1-.3 2.2-.6 3.2-.9 1-.3 2-.7 2.8-1l-3.2 7.3c0 .1-.4.2-1.1.4-.7.2-1.6.4-2.8.6-1.1.2-2.4.4-3.7.5-1.4.1-2.7.2-4 .2-2.5 0-4.6-.3-6.3-1-1.8-.7-3.1-1.7-4.2-2.9-1-1.3-1.7-2.8-1.9-4.7-.2-1.9 0-4 .6-6.3.6-2.4 1.6-4.5 2.9-6.4 1.3-1.8 2.8-3.4 4.5-4.6 1.7-1.2 3.6-2.2 5.6-2.8 2-.6 4.1-.9 6.1-.9s3.7.3 5.2.9c1.5.6 2.7 1.5 3.6 2.5.9 1.1 1.6 2.3 1.9 3.8.4 1.4.5 2.9.3 4.6-.1.6-.3 1.4-.4 2.3z"/></g></g></g></svg>