<svg xmlns="http://www.w3.org/2000/svg" width="400" height="400"><g fill="#fff"><path d="M337.688 63.493c-76.085-75.813-199.44-75.813-275.524 0-76.085 75.812-76.085 198.726 0 274.539 76.085 75.812 199.44 75.812 275.524 0 76.081-75.813 76.081-198.73 0-274.54zm-2.781 272.074c-74.394 74.128-195.013 74.128-269.407 0-74.393-74.127-74.393-194.316 0-268.443 74.394-74.128 195.013-74.128 269.407 0 74.393 74.127 74.397 194.316 0 268.443z"/><path d="M328.772 72.959c-71.16-70.905-186.532-70.905-257.695 0-71.164 70.905-71.16 185.865 0 256.773 71.16 70.91 186.532 70.906 257.695 0 71.163-70.905 71.16-185.868 0-256.773zm-1.48 255.021c-70.19 69.94-183.99 69.94-254.177 0-70.19-69.939-70.19-183.334 0-253.27 70.19-69.935 183.991-69.938 254.178 0 70.19 69.94 70.19 183.331 0 253.27z"/><path d="M317.733 187.09c-1.023-1.78-2.583-3.176-4.692-4.199-2.105-1.015-4.819-1.526-8.138-1.526-6.768 0-12.224 1.784-16.37 5.34-4.151 3.562-7.502 8.395-10.053 14.501h40.4c.509-2.795.7-5.404.572-7.823-.124-2.411-.7-4.509-1.72-6.293z"/><path d="M324.95 77.045c-68.895-68.65-180.598-68.65-249.493 0-68.895 68.649-68.895 179.953 0 248.601 68.895 68.65 180.598 68.65 249.494 0 68.898-68.648 68.898-179.952 0-248.601zM183.138 262.448l22.018-103.4h-.382l-54.183 103.4h-28.72l1.341-103.4h-.382l-33.506 103.4h-35.23L98.13 126.233h52.46a4010.27 4010.27 0 01-1.15 30.904c-.127 3.945-.257 7.887-.381 11.828-.128 3.946-.223 7.57-.287 10.873-.067 3.31-.127 6.17-.19 8.585a205.707 205.707 0 00-.096 4.96c0 2.546-.096 5.504-.287 8.87-.191 3.37-.414 6.583-.669 9.636-.258 3.56-.513 7.188-.764 10.872h.382a902.106 902.106 0 014.978-10.872 929.225 929.225 0 014.5-9.636c1.597-3.37 3.093-6.324 4.501-8.87.51-.888 1.37-2.542 2.587-4.96 1.21-2.415 2.646-5.274 4.306-8.585 1.656-3.307 3.478-6.931 5.456-10.873a981.294 981.294 0 016.032-11.828c4.72-9.282 9.89-19.584 15.508-30.904h52.46l-28.91 136.215zm164.751-51.13c-.704 3.18-1.754 6.423-3.16 9.73h-71.604a24.617 24.617 0 00-.574 8.109c.255 2.735 1.15 5.217 2.682 7.442 1.532 2.228 3.765 4.072 6.702 5.531 2.936 1.464 6.828 2.193 11.679 2.193 3.188 0 6.73-.349 10.625-1.05a150.971 150.971 0 0011.68-2.577 196.762 196.762 0 0011.393-3.34c3.7-1.205 7.02-2.382 9.956-3.528l-11.489 25.563c-.127.258-1.468.702-4.019 1.337-2.554.638-5.81 1.304-9.765 2.002-3.96.698-8.36 1.304-13.212 1.812-4.85.508-9.574.762-14.167.762-8.682 0-16.116-1.21-22.304-3.625-6.192-2.415-11.106-5.88-14.744-10.396-3.637-4.513-5.873-10.044-6.7-16.598-.832-6.55-.164-13.958 2.009-22.225 2.296-8.521 5.742-16.027 10.338-22.51 4.596-6.488 9.89-11.924 15.89-16.313 5.997-4.39 12.571-7.693 19.722-9.921 7.147-2.225 14.358-3.339 21.636-3.339 7.02 0 13.144 1.083 18.38 3.244 5.233 2.164 9.476 5.15 12.73 8.965 3.256 3.815 5.552 8.236 6.893 13.26 1.341 5.027 1.691 10.396 1.055 16.122-.386 3.053-.93 6.173-1.632 9.35z"/></g></svg>