<svg xmlns="http://www.w3.org/2000/svg" fill="none" aria-hidden="true" viewBox="0 0 28 20"><path fill="#fff" d="M0 0h28v20H0V0z"/><path fill="#146BBC" fill-rule="evenodd" d="M9.333 20h9.334V0H9.333v20z" clip-rule="evenodd"/><path fill="#E43642" fill-rule="evenodd" d="M0 20h9.333V0H0v20zm18.667 0H28V0h-9.333v20z" clip-rule="evenodd"/><path fill="url(#paint0_linear)" fill-rule="evenodd" d="M4.667 10l.666.667H4L4.667 10zm0 2a.667.667 0 11-.052-1.333A.667.667 0 014.667 12zm.666 0H2.667v4H4v-1.333L4.667 16l.666-1.333V16h1.334v-4H5.333zm-.666 1.333L5.333 12v2a.667.667 0 00-.666-.667zM4 14c0-.368.298-.667.667-.667L4 12v2zm.667.667H4V14c0 .368.298.667.667.667zm0 0h.666V14a.667.667 0 01-.666.667z" clip-rule="evenodd"/><defs><linearGradient id="paint0_linear" x1="2.667" x2="2.667" y1="10" y2="16" gradientUnits="userSpaceOnUse"><stop stop-color="#F8D246"/><stop offset="1" stop-color="#F9CE2F"/></linearGradient></defs></svg>