<svg width="431" height="562" xmlns="http://www.w3.org/2000/svg" xmlns:xlink="http://www.w3.org/1999/xlink"><defs><path id="b" d="M0 .018h10.774v11.976H0z"/><path id="d" d="M0 .018h10.774v11.976H0z"/><path id="f" d="M.103.24H52.38V38H.103z"/><path id="h" d="M0 .037h52.277v11H0z"/><path id="j" d="M0 0h26v26H0z"/><path id="l" d="M0 0h2v5H0z"/><path id="n" d="M.73 0h2v5h-2z"/><path id="p" d="M.577 0h2v5h-2z"/><path id="r" d="M.192 0h2v5h-2z"/><linearGradient x1="50%" y1="15.254%" x2="50%" y2="68.353%" id="t"><stop stop-color="#FFF" stop-opacity="0" offset="0%"/><stop stop-color="#FFF" offset="100%"/></linearGradient><filter x="-8.1%" y="-6%" width="116.1%" height="112%" filterUnits="objectBoundingBox" id="a"><feOffset dy="6" in="SourceAlpha" result="shadowOffsetOuter1"/><feGaussianBlur stdDeviation="5" in="shadowOffsetOuter1" result="shadowBlurOuter1"/><feColorMatrix values="0 0 0 0 0.0748762814 0 0 0 0 0.395440093 0 0 0 0 0.463768116 0 0 0 0.0854731206 0" in="shadowBlurOuter1" result="shadowMatrixOuter1"/><feMerge><feMergeNode in="shadowMatrixOuter1"/><feMergeNode in="SourceGraphic"/></feMerge></filter></defs><g filter="url(#a)" transform="translate(23 23)" fill="none" fill-rule="evenodd"><rect fill="#FFF" width="385" height="516" rx="12"/><g fill-rule="nonzero"><path d="M245.296 227.593a7.68 7.68 0 015.448 2.26A7.687 7.687 0 01253 235.3a7.703 7.703 0 01-2.729 5.886h0l-.03 4.266a4.962 4.962 0 01-1.437 3.482 4.943 4.943 0 01-3.528 1.473 4.95 4.95 0 01-3.503-1.448 4.952 4.952 0 01-1.461-3.527h0l.03-4.228a7.698 7.698 0 01-2.75-5.904c0-2.125.863-4.052 2.257-5.447a7.68 7.68 0 015.447-2.26z" stroke="#5A78F0" stroke-width="8" fill="#F9F9F9"/><path d="M266.543 227.566l-.002-.039a55.53 55.53 0 01-.045-1.554c-.04-2.757-2.233-5.037-4.991-5.19-5.75-.322-10.2-2.197-14-5.9l-.033-.03a3.202 3.202 0 00-4.35-.001l-.033.031c-3.8 3.703-8.25 5.578-14 5.9-2.759.153-4.95 2.433-4.992 5.19-.008.562-.023 1.07-.045 1.554l-.002.09c-.112 5.863-.25 13.158 2.19 19.78 1.343 3.642 3.376 6.807 6.043 9.409 3.038 2.963 7.017 5.316 11.826 6.992a3.604 3.604 0 002.378 0c4.803-1.68 8.778-4.033 11.813-6.996 2.665-2.603 4.699-5.77 6.042-9.412 2.45-6.642 2.312-13.951 2.201-19.824zm-17.332 13.05l-.034 4.78a3.905 3.905 0 01-3.901 3.895c-2.15 0-3.9-1.75-3.9-3.9v-.01l.033-4.743a6.624 6.624 0 01-2.756-5.387c0-3.662 2.98-6.641 6.643-6.641s6.643 2.979 6.643 6.64a6.631 6.631 0 01-2.728 5.367z" fill="#CDF4EE"/></g><text font-family="SFProText-Regular, SF Pro Text" font-size="14" fill="#334758" transform="translate(224 214)"><tspan x="62" y="22">SafeSend </tspan> <tspan x="62" y="38">transaction</tspan></text><rect x=".836" y=".783" width="52.247" height="50" rx="14" fill="#CDF4EE" transform="translate(218 128)"/><path d="M259.156 154.739v3.78h.107c1.687 0 3.375.002 5.062-.001.319 0 .602.247.661.594.08.464-.19.885-.58.886-1.99.002-3.978 0-5.967.002-.318 0-.605-.306-.621-.67-.007-.16-.017-.319-.017-.478-.001-3.335-.002-6.67 0-10.005 0-.406.17-.7.473-.814a.513.513 0 01.178-.032l5.93-.001c.33 0 .606.318.616.72.01.385-.203.645-.438.724a.623.623 0 01-.195.034c-1.7.002-3.398.001-5.098.001h-.11v3.78h.104c1.535 0 3.07.003 4.606-.001.321 0 .6.337.603.712.002.285-.083.509-.299.658a.591.591 0 01-.343.11h-4.672z" stroke="#00C0A5" stroke-width=".5" fill="#05C0A5"/><g transform="translate(222 148)"><mask id="c" fill="#fff"><use xlink:href="#b"/></mask><path d="M1.753 6.729h-.711a.746.746 0 01-.745-.755.762.762 0 01.525-.753.639.639 0 01.203-.028c.45-.002.902-.001 1.353-.001l.57-1.399c.173-.43.344-.86.518-1.289.164-.405.33-.809.497-1.213.09-.218.174-.44.282-.65.143-.282.348-.506.665-.588a.828.828 0 01.21-.035c.235.002.47-.003.703.023.205.023.368.15.509.302.291.313.387.728.552 1.105.164.373.309.754.46 1.131.208.515.413 1.031.62 1.546.185.453.373.905.558 1.359.16.395.317.792.478 1.187l.596 1.46c.16.396.317.793.479 1.188.183.45.368.9.555 1.349.087.209.16.417.141.652-.027.357-.275.634-.636.669-.284.027-.52-.05-.691-.275a1.793 1.793 0 01-.223-.415c-.2-.493-.39-.99-.583-1.485-.245-.624-.49-1.248-.736-1.87-.197-.498-.398-.995-.594-1.493-.261-.663-.518-1.327-.78-1.99-.223-.565-.45-1.129-.674-1.694-.142-.357-.28-.715-.42-1.073-.01-.027-.027-.051-.047-.087L3.97 5.192c.225 0 .433.01.64-.002.457-.026.806.364.792.794-.01.302-.23.635-.517.708a.905.905 0 01-.21.035c-.409.003-.817.002-1.225 0-.056 0-.088.008-.114.076-.387.99-.778 1.98-1.17 2.97-.23.58-.453 1.163-.696 1.737-.116.276-.326.455-.642.477-.311.021-.575-.06-.73-.36a.879.879 0 01-.025-.757l.73-1.809.734-1.797c.072-.175.142-.351.216-.535" stroke="#00C0A5" stroke-width=".5" fill="#05C0A5" mask="url(#c)"/></g><path d="M239.4 149.59l-1.423 3.599c.233 0 .455.002.677 0 .482-.007.83.446.744.914a.778.778 0 01-.749.625c-.425-.008-.85-.002-1.282-.002-.204.52-.405 1.04-.61 1.56-.21.531-.426 1.061-.636 1.593-.209.525-.407 1.055-.623 1.577-.12.29-.322.494-.655.531-.232.026-.444-.022-.616-.177-.146-.131-.205-.315-.224-.513-.024-.254.085-.47.175-.694.198-.487.393-.975.591-1.463l.776-1.899.21-.515h-.698a.733.733 0 01-.647-.348c-.19-.283-.15-.714.085-.95a.759.759 0 01.571-.24c.41.003.818-.001 1.227.002.073.001.102-.026.128-.091.163-.41.33-.817.497-1.225l.518-1.28c.153-.374.305-.749.46-1.122.11-.271.217-.544.34-.81.126-.268.322-.475.599-.59.032-.014.067-.03.101-.032.388-.033.78-.104 1.15.092.22.116.377.305.48.525.159.343.296.696.44 1.046.153.374.303.749.455 1.124.21.521.418 1.043.63 1.564.232.57.47 1.136.701 1.706.207.508.408 1.019.615 1.527.209.515.423 1.028.632 1.542.197.484.392.97.585 1.455.06.149.133.297.16.453.07.4-.095.807-.538.903-.406.088-.758-.074-.94-.519-.219-.531-.425-1.068-.636-1.603-.262-.667-.522-1.335-.786-2.001-.238-.602-.48-1.203-.718-1.805-.26-.657-.517-1.315-.777-1.972l-.596-1.493c-.13-.326-.258-.654-.392-.995" stroke="#5A78F0" stroke-width=".5" fill="#5A78F0"/><path d="M249.804 158.407l.83-2.107.958-2.421c.227-.572.457-1.142.684-1.713.259-.654.515-1.31.773-1.964.206-.523.414-1.046.619-1.57.082-.21.194-.396.389-.517.364-.226 1.035-.112 1.131.491.041.259-.032.482-.125.71l-.497 1.214-.46 1.123-.478 1.179-.461 1.133c-.158.387-.317.773-.474 1.16-.155.38-.31.761-.463 1.142-.208.516-.413 1.032-.623 1.547-.21.511-.41 1.026-.64 1.528-.148.323-.391.575-.756.635-.215.035-.44.023-.658.012a1.192 1.192 0 01-.388-.087.962.962 0 01-.493-.492 17.489 17.489 0 01-.372-.848c-.158-.376-.309-.755-.461-1.133-.196-.485-.389-.97-.586-1.455-.246-.603-.496-1.204-.741-1.807-.207-.509-.409-1.02-.615-1.528-.208-.512-.42-1.023-.628-1.534-.232-.57-.463-1.14-.692-1.71-.057-.14-.127-.279-.156-.425-.083-.427.073-.842.55-.952.328-.076.721.1.865.414.132.286.246.581.362.875.197.495.389.992.583 1.487l.538 1.368c.21.528.423 1.056.632 1.585.264.666.523 1.334.787 2.001.184.468.374.934.56 1.401.154.388.304.778.457 1.166.012.03.031.058.05.092" stroke="#00C0A5" stroke-width=".5" fill="#05C0A5"/><text font-family="SFProText-Regular, SF Pro Text" font-size="14" fill="#334758" transform="translate(38 125)"><tspan x="248" y="32">Aave</tspan></text><path d="M64.124 128.53l-20.456 20.036a5 5 0 00.021 7.164l20.59 19.932a5 5 0 006.924.03l20.011-19.04a5 5 0 00.156-7.09l-20.145-20.928a5 5 0 00-7.101-.105z" fill="#CDF4EE"/><path stroke="#5A78F0" stroke-width="4.5" stroke-linecap="round" d="M53.714 149.857l13.701-13.709m13.727 14.566l-13.728-14.566"/><text font-family="SFProText-Regular, SF Pro Text" font-size="14" fill="#334758" transform="translate(40 125)"><tspan x="69" y="31">MakerDAO</tspan></text><rect x=".836" y=".783" width="52.247" height="50" rx="14" fill="#CDF4EE" transform="translate(216 388)"/><path d="M259.156 414.739v3.78h.107c1.687 0 3.375.002 5.062-.001.319 0 .602.247.661.594.08.464-.19.885-.58.886-1.99.002-3.978 0-5.967.002-.318 0-.605-.306-.621-.67-.007-.16-.017-.319-.017-.478-.001-3.335-.002-6.67 0-10.005 0-.406.17-.7.473-.814a.513.513 0 01.178-.032l5.93-.001c.33 0 .606.318.616.72.01.385-.203.645-.438.724a.623.623 0 01-.195.034c-1.7.002-3.398.001-5.098.001h-.11v3.78h.104c1.535 0 3.07.003 4.606-.001.321 0 .6.337.603.712.002.285-.083.509-.299.658a.591.591 0 01-.343.11h-4.672z" stroke="#00C0A5" stroke-width=".5" fill="#05C0A5"/><g transform="translate(222 408)"><mask id="e" fill="#fff"><use xlink:href="#d"/></mask><path d="M1.753 6.729h-.711a.746.746 0 01-.745-.755.762.762 0 01.525-.753.639.639 0 01.203-.028c.45-.002.902-.001 1.353-.001l.57-1.399c.173-.43.344-.86.518-1.289.164-.405.33-.809.497-1.213.09-.218.174-.44.282-.65.143-.282.348-.506.665-.588a.828.828 0 01.21-.035c.235.002.47-.003.703.023.205.023.368.15.509.302.291.313.387.728.552 1.105.164.373.309.754.46 1.131.208.515.413 1.031.62 1.546.185.453.373.905.558 1.359.16.395.317.792.478 1.187l.596 1.46c.16.396.317.793.479 1.188.183.45.368.9.555 1.349.087.209.16.417.141.652-.027.357-.275.634-.636.669-.284.027-.52-.05-.691-.275a1.793 1.793 0 01-.223-.415c-.2-.493-.39-.99-.583-1.485-.245-.624-.49-1.248-.736-1.87-.197-.498-.398-.995-.594-1.493-.261-.663-.518-1.327-.78-1.99-.223-.565-.45-1.129-.674-1.694-.142-.357-.28-.715-.42-1.073-.01-.027-.027-.051-.047-.087L3.97 5.192c.225 0 .433.01.64-.002.457-.026.806.364.792.794-.01.302-.23.635-.517.708a.905.905 0 01-.21.035c-.409.003-.817.002-1.225 0-.056 0-.088.008-.114.076-.387.99-.778 1.98-1.17 2.97-.23.58-.453 1.163-.696 1.737-.116.276-.326.455-.642.477-.311.021-.575-.06-.73-.36a.879.879 0 01-.025-.757l.73-1.809.734-1.797c.072-.175.142-.351.216-.535" stroke="#00C0A5" stroke-width=".5" fill="#05C0A5" mask="url(#e)"/></g><path d="M239.4 409.59l-1.423 3.599c.233 0 .455.002.677 0 .482-.007.83.446.744.914a.778.778 0 01-.749.625c-.425-.008-.85-.002-1.282-.002-.204.52-.405 1.04-.61 1.56-.21.531-.426 1.061-.636 1.593-.209.525-.407 1.055-.623 1.577-.12.29-.322.494-.655.531-.232.026-.444-.022-.616-.177-.146-.131-.205-.315-.224-.513-.024-.254.085-.47.175-.694.198-.487.393-.975.591-1.463l.776-1.899.21-.515h-.698a.733.733 0 01-.647-.348c-.19-.283-.15-.714.085-.95a.759.759 0 01.571-.24c.41.003.818-.001 1.227.002.073.001.102-.026.128-.091.163-.41.33-.817.497-1.225l.518-1.28c.153-.374.305-.749.46-1.122.11-.271.217-.544.34-.81.126-.268.322-.475.599-.59.032-.014.067-.03.101-.032.388-.033.78-.104 1.15.092.22.116.377.305.48.525.159.343.296.696.44 1.046.153.374.303.749.455 1.124.21.521.418 1.043.63 1.564.232.57.47 1.136.701 1.706.207.508.408 1.019.615 1.527.209.515.423 1.028.632 1.542.197.484.392.97.585 1.455.06.149.133.297.16.453.07.4-.095.807-.538.903-.406.088-.758-.074-.94-.519-.219-.531-.425-1.068-.636-1.603-.262-.667-.522-1.335-.786-2.001-.238-.602-.48-1.203-.718-1.805-.26-.657-.517-1.315-.777-1.972l-.596-1.493c-.13-.326-.258-.654-.392-.995" stroke="#5A78F0" stroke-width=".5" fill="#5A78F0"/><path d="M249.804 418.407l.83-2.107.958-2.421c.227-.572.457-1.142.684-1.713.259-.654.515-1.31.773-1.964.206-.523.414-1.046.619-1.57.082-.21.194-.396.389-.517.364-.226 1.035-.112 1.131.491.041.259-.032.482-.125.71l-.497 1.214-.46 1.123-.478 1.179-.461 1.133c-.158.387-.317.773-.474 1.16-.155.38-.31.761-.463 1.142-.208.516-.413 1.032-.623 1.547-.21.511-.41 1.026-.64 1.528-.148.323-.391.575-.756.635-.215.035-.44.023-.658.012a1.192 1.192 0 01-.388-.087.962.962 0 01-.493-.492 17.489 17.489 0 01-.372-.848c-.158-.376-.309-.755-.461-1.133-.196-.485-.389-.97-.586-1.455-.246-.603-.496-1.204-.741-1.807-.207-.509-.409-1.02-.615-1.528-.208-.512-.42-1.023-.628-1.534-.232-.57-.463-1.14-.692-1.71-.057-.14-.127-.279-.156-.425-.083-.427.073-.842.55-.952.328-.076.721.1.865.414.132.286.246.581.362.875.197.495.389.992.583 1.487l.538 1.368c.21.528.423 1.056.632 1.585.264.666.523 1.334.787 2.001.184.468.374.934.56 1.401.154.388.304.778.457 1.166.012.03.031.058.05.092" stroke="#00C0A5" stroke-width=".5" fill="#05C0A5"/><text font-family="SFProText-Regular, SF Pro Text" font-size="14" fill="#334758" transform="translate(38 125)"><tspan x="249" y="292">Aave</tspan></text><path d="M64.124 388.53l-20.456 20.036a5 5 0 00.021 7.164l20.59 19.932a5 5 0 006.924.03l20.011-19.04a5 5 0 00.156-7.09l-20.145-20.928a5 5 0 00-7.101-.105z" fill="#CDF4EE"/><path stroke="#5A78F0" stroke-width="4.5" stroke-linecap="round" d="M53.714 409.857l13.701-13.709m13.727 14.566l-13.728-14.566"/><text font-family="SFProText-Regular, SF Pro Text" font-size="14" fill="#334758" transform="translate(40 385)"><tspan x="69" y="31">MakerDAO</tspan></text><g transform="translate(39 226)"><mask id="g" fill="#fff"><use xlink:href="#f"/></mask><path d="M.103.24h52.278v34.053A3.713 3.713 0 0148.66 38H3.824a3.713 3.713 0 01-3.72-3.707V.24z" fill="#CDF4EE" mask="url(#g)"/></g><g transform="translate(39 214)"><mask id="i" fill="#fff"><use xlink:href="#h"/></mask><path d="M0 11.037h52.277v-7c0-2.209-1.665-4-3.719-4H3.719C1.665.037 0 1.828 0 4.037v7z" fill="#5A78F0" mask="url(#i)"/></g><path d="M65.688 218c.862 0 1.562.672 1.562 1.5s-.7 1.5-1.562 1.5h-3.126c-.862 0-1.562-.672-1.562-1.5s.7-1.5 1.562-1.5h3.126zm9.375 0c.862 0 1.563.672 1.563 1.5s-.7 1.5-1.563 1.5h-3.125c-.863 0-1.562-.672-1.562-1.5s.7-1.5 1.562-1.5h3.125zm9.375 0c.863 0 1.562.672 1.562 1.5s-.699 1.5-1.562 1.5h-3.125c-.863 0-1.563-.672-1.563-1.5s.7-1.5 1.563-1.5h3.125z" fill="#FFF"/><path d="M69.55 253.338c.066-.158.132-.322.197-.493.717-1.915 1.16-4.346 1.277-6.956h4.098a9.749 9.749 0 01-5.572 7.449zm-6.793-10.227c.11-2.272.49-4.36 1.098-5.98.72-1.92 1.447-2.353 1.645-2.353.198 0 .926.432 1.646 2.353.607 1.62.988 3.708 1.098 5.98h-5.487zm4.39 8.759c-.721 1.92-1.45 2.352-1.647 2.352-.198 0-.926-.432-1.645-2.352-.608-1.62-.988-3.708-1.098-5.981h5.487c-.11 2.273-.49 4.36-1.098 5.98zm-5.894-15.714c-.717 1.914-1.16 4.346-1.276 6.955h-4.1c.477-3.314 2.632-6.094 5.573-7.448a15.34 15.34 0 00-.197.493zm-5.375 9.733h4.099c.116 2.61.559 5.04 1.276 6.956.065.171.13.335.197.493a9.75 9.75 0 01-5.572-7.45zm19.244-2.778h-4.098c-.117-2.61-.56-5.04-1.277-6.955a13.32 13.32 0 00-.197-.493 9.749 9.749 0 015.572 7.448zM65.5 232c-6.893 0-12.5 5.608-12.5 12.5 0 6.893 5.607 12.5 12.5 12.5S78 251.393 78 244.5c0-6.892-5.607-12.5-12.5-12.5z" fill="#05C0A5"/><text transform="translate(107 224)" fill="#334758" font-family="SFProText-Regular, SF Pro Text" font-size="14"><tspan x="0" y="13">ENS </tspan> <tspan x="0" y="29">Manager</tspan></text><text transform="translate(287 310)" fill="#334758" font-family="SFProText-Regular, SF Pro Text" font-size="14"><tspan x="0" y="13">Schedule a</tspan> <tspan x="0" y="29">transaction</tspan></text><g transform="translate(220 327)"><mask id="k" fill="#fff"><use xlink:href="#j"/></mask><path d="M13.921 13a.928.928 0 01-.927.928H7.426a.928.928 0 010-1.856h4.64V3.715a.929.929 0 011.855 0V13zm-.927-13A12.977 12.977 0 001.086 7.788a12.993 12.993 0 002.378 14.034c.222.246.456.482.703.703a12.984 12.984 0 0015.615 1.567 13.003 13.003 0 005.73-14.62A12.992 12.992 0 0012.993 0z" fill="#5A78F0" mask="url(#k)"/></g><path d="M272 314h-48v14.294c.136-.108.277-.203.419-.308.142-.104.277-.207.415-.305.287-.196.58-.38.879-.552.101-.06.197-.126.3-.184.401-.227.815-.43 1.235-.618.115-.05.232-.091.348-.139.316-.13.634-.253.959-.362.156-.052.315-.097.473-.144a14.375 14.375 0 012.346-.495c.149-.018.295-.043.444-.057.468-.045.94-.074 1.413-.074 8.151.01 14.757 6.6 14.769 14.734 0 .472-.028.942-.074 1.409-.015.148-.039.294-.057.441-.04.321-.092.64-.15.955-.034.167-.071.331-.108.496-.07.3-.15.599-.239.895-.046.156-.092.313-.144.468-.11.329-.235.653-.37.973-.044.109-.083.22-.132.328-.187.424-.394.838-.622 1.243-.05.092-.111.177-.164.267-.184.31-.375.615-.58.911-.093.135-.194.263-.292.394-.098.131-.204.29-.317.43h24.48a2.766 2.766 0 002.769-2.763V314z" fill="#CDF4EE"/><path d="M272 306.625c0-1.45-1.24-2.625-2.769-2.625h-1.846v2.625c0 .483-.413.875-.923.875s-.924-.392-.924-.875V304h-7.384v2.625c0 .483-.414.875-.923.875-.51 0-.923-.392-.923-.875V304h-7.385v2.625c0 .483-.414.875-.923.875-.51 0-.924-.392-.924-.875V304h-7.384v2.625c0 .483-.413.875-.922.875-.51 0-.924-.392-.924-.875V304h-7.384v2.625c0 .483-.414.875-.923.875-.51 0-.924-.392-.924-.875V304h-1.845c-1.53 0-2.77 1.175-2.77 2.625V311h48v-4.375z" fill="#05C0A5"/><g transform="translate(247 299)"><mask id="m" fill="#fff"><use xlink:href="#l"/></mask><path d="M1 0C.448 0 0 .373 0 .833V5h2V.833C2 .373 1.552 0 1 0" fill="#05C0A5" mask="url(#m)"/></g><path d="M257 299c-.553 0-1 .373-1 .833V304h2v-4.167c0-.46-.448-.833-1-.833" fill="#05C0A5"/><g transform="translate(265 299)"><mask id="o" fill="#fff"><use xlink:href="#n"/></mask><path d="M2.73.833c0-.46-.446-.833-1-.833-.551 0-1 .373-1 .833V5h2V.833z" fill="#05C0A5" mask="url(#o)"/></g><g transform="translate(237 299)"><mask id="q" fill="#fff"><use xlink:href="#p"/></mask><path d="M1.577 0c-.552 0-1 .373-1 .833V5h2V.833c0-.46-.448-.833-1-.833" fill="#05C0A5" mask="url(#q)"/></g><g transform="translate(228 299)"><mask id="s" fill="#fff"><use xlink:href="#r"/></mask><path d="M1.192 0c-.552 0-1 .373-1 .833V5h2V.833c0-.46-.448-.833-1-.833" fill="#05C0A5" mask="url(#s)"/></g><path d="M257.255 321.446l-4.137 7.385a.919.919 0 00.41 1.28l4.137 1.818a.83.83 0 00.67 0l4.137-1.817c.44-.193.645-.72.46-1.178a.75.75 0 00-.05-.103l-4.136-7.385a.846.846 0 00-1.491 0" fill="#05C0A5"/><path d="M253.49 332.058l4.139 1.948a.814.814 0 00.697 0l4.184-1.974c.177-.084.384.004.46.197a.407.407 0 01-.024.355l-4.07 6.975c-.26.443-.8.574-1.208.293a.91.91 0 01-.256-.269l-4.352-6.962a.402.402 0 01.093-.529.326.326 0 01.336-.034" fill="#05C0A5"/><path d="M62.124 302.53l-20.456 20.036a5 5 0 00.021 7.164l20.59 19.932a5 5 0 006.924.03l20.011-19.04a5 5 0 00.156-7.09l-20.145-20.928a5 5 0 00-7.101-.105z" fill="#CDF4EE"/><path stroke="#5A78F0" stroke-width="4.5" stroke-linecap="round" d="M51.714 323.857l13.701-13.709m13.727 14.566l-13.728-14.566"/><text font-family="SFProText-Regular, SF Pro Text" font-size="14" fill="#334758" transform="translate(38 125)"><tspan x="69" y="203">MakerDAO</tspan></text><path fill="url(#t)" d="M2 299h363v190H2z"/><text font-family="SFProText-Regular, SF Pro Text" font-size="14" fill="#334758"><tspan x="39" y="73">Explore the most popular Ethereum </tspan> <tspan x="39" y="93">Dapps right from your wallet.</tspan></text><text font-family="SFProDisplay-Bold, SF Pro Display" font-size="22" font-weight="bold" fill="#0B1A40"><tspan x="39" y="49">Dapps center</tspan></text><path d="M29 429h328a6 6 0 016 6v50a6 6 0 01-6 6H29a6 6 0 01-6-6v-50a6 6 0 016-6z" fill="#05C0A5"/><text font-family="SFProText-Medium, SF Pro Text" font-size="14" font-weight="400" fill="#FFF" transform="translate(23 429)"><tspan x="121.116" y="36.12">Explore Dapps</tspan></text></g></svg>