<svg xmlns="http://www.w3.org/2000/svg" width="200" height="200"><path data-name="Rectangle 38" fill="none" d="M0 0h200v200H0z"/><path data-name="Path 207" d="M98.202 4a71.868 71.868 0 00-71.868 71.87 72.791 72.791 0 001.274 13.532l9.284-6.359c16.322-11.194 42.8-11.194 59.118 0l9.742 6.672 5.28 3.629c14.712 10.08 38.545 10.08 53.243 0l4.332-2.966A71.914 71.914 0 0098.228 4.031z" fill="#f2b705"/><path data-name="Path 208" d="M138.589 119.04c-10.828 0-21.182-2.938-28.978-8.281l-15.01-10.287c-7.186-4.94-16.836-7.66-27.147-7.66s-19.964 2.7-27.15 7.66l-9.705 6.645a4.216 4.216 0 11-4.764-6.957l9.7-6.645c8.581-5.887 19.909-9.123 31.915-9.123s23.332 3.236 31.913 9.123l15.01 10.287a46.384 46.384 0 0048.425 0l5.7-3.9a4.215 4.215 0 114.762 6.955l-5.7 3.9c-7.831 5.361-18.142 8.283-28.971 8.283z" fill="#53cbc8"/><path data-name="Path 209" d="M67.14 149.222v-40.607a16.161 16.161 0 01.108-2.558 4.572 4.572 0 014.547-4.059 4.426 4.426 0 014.291 4.059 24.513 24.513 0 01.148 4.25v80.961c-.243 3-2.123 4.981-4.655 4.927s-4.36-2.111-4.371-5.156v-26.985z" fill="#53cbc8"/><path data-name="Path 210" d="M58.601 128.785v20.179c0 3.453-1.842 5.739-4.452 5.657s-4.588-2.408-4.6-5.7V108.58c0-3.534 2.058-5.918 4.737-5.781s4.278 2.274 4.291 5.805c.037 6.728.024 13.454.024 20.181z" fill="#53cbc8"/><path data-name="Path 211" d="M84.818 128.758v-14.184c0-3.289 1.745-5.413 4.344-5.413s4.6 2.192 4.63 5.29q.147 14.483 0 28.952c0 3.288-1.937 5.263-4.6 5.238s-4.369-2.047-4.4-5.414v-14.483z" fill="#53cbc8"/><path data-name="Path 212" d="M31.952 131.708v-14.187c0-3.287 1.746-5.412 4.344-5.412s4.6 2.192 4.631 5.29q.133 14.483 0 28.952c0 3.288-1.951 5.263-4.6 5.237s-4.371-2.047-4.4-5.414v-14.479z" fill="#53cbc8"/><path data-name="Path 213" d="M106.851 119.635h.013a4.455 4.455 0 014.453 4.455v7.714a4.454 4.454 0 01-4.453 4.453h-.013a4.455 4.455 0 01-4.455-4.453v-7.714a4.456 4.456 0 014.455-4.455z" fill="#53cbc8"/><path data-name="Path 214" d="M124.501 126.39h.013a4.455 4.455 0 014.453 4.455v43.267a4.452 4.452 0 01-4.453 4.452h-.013a4.451 4.451 0 01-4.452-4.452v-43.267a4.454 4.454 0 014.452-4.455z" fill="#53cbc8"/><path data-name="Path 215" d="M142.027 128.067h.013a4.455 4.455 0 014.455 4.453v36.773a4.453 4.453 0 01-4.455 4.451h-.013a4.45 4.45 0 01-4.452-4.451v-36.772a4.452 4.452 0 014.452-4.454z" fill="#53cbc8"/><path data-name="Path 216" d="M159.798 123.872h.013a4.453 4.453 0 014.453 4.453v15.861a4.454 4.454 0 01-4.453 4.453h-.013a4.452 4.452 0 01-4.452-4.453v-15.86a4.452 4.452 0 014.452-4.454z" fill="#53cbc8"/></svg>