<svg data-name="Layer 1" xmlns="http://www.w3.org/2000/svg" viewBox="0 0 722.86 159.05"><path d="M662.11 120.27l-26.07-59.89h17.46l17.8 42.95 20.58-42.95h17.17l-40.62 82.49h-17.42zm-63.48-12.4a18 18 0 004.42-1.65 18.34 18.34 0 003.73-2.63 16.3 16.3 0 002.89-3.52 17.86 17.86 0 001.9-4.4 18.42 18.42 0 00.7-5.17 18.84 18.84 0 00-.7-5.23 17.7 17.7 0 00-1.9-4.4 16.76 16.76 0 00-2.89-3.55 16 16 0 00-3.73-2.6 19.46 19.46 0 00-4.42-1.59 21.45 21.45 0 00-4.92-.55 21.11 21.11 0 00-4.88.55 18.9 18.9 0 00-4.4 1.59 17.1 17.1 0 00-3.73 2.6 16.55 16.55 0 00-2.91 3.55 17.13 17.13 0 00-1.88 4.4 19.6 19.6 0 00-.67 5.23 19.21 19.21 0 00.67 5.17 17.28 17.28 0 001.88 4.4 15.38 15.38 0 002.91 3.52 19.78 19.78 0 003.73 2.63 17.63 17.63 0 004.37 1.65 21.67 21.67 0 004.88.55 22 22 0 004.92-.55m-17.61 13.41a31.69 31.69 0 01-7.66-3.06A29.18 29.18 0 01562.15 107a32 32 0 01-3.06-7.72 36.76 36.76 0 010-17.63 30.89 30.89 0 013.06-7.68 29.45 29.45 0 0111.18-11.19 31.69 31.69 0 017.66-3.06 34.56 34.56 0 018.76-1.07 36.15 36.15 0 014.77.29 29.89 29.89 0 014.31.86 32.41 32.41 0 013.84 1.36 25.2 25.2 0 013.38 1.76 18.42 18.42 0 012.84 2.2 22.18 22.18 0 012.25 2.49v-7.23h16.59v60.24h-16.56v-7.23a22.19 22.19 0 01-8.44 6.47 26.73 26.73 0 01-6 1.85 36.23 36.23 0 01-7 .64 34.56 34.56 0 01-8.76-1.07m-60.23-45.64a26.68 26.68 0 007.06-.81 12.83 12.83 0 004.91-2.45 9.76 9.76 0 002.89-4.08 15.78 15.78 0 00.93-5.61 15.61 15.61 0 00-.93-5.58 9.63 9.63 0 00-2.89-4 13 13 0 00-4.91-2.43 27.1 27.1 0 00-7.06-.81h-16.3v25.78zm-33.47-40h35.16a45.48 45.48 0 0114.34 2 27.6 27.6 0 0110 5.61 22.35 22.35 0 015.87 8.61 29.89 29.89 0 011.93 10.87 29.52 29.52 0 01-1.93 10.84 22.78 22.78 0 01-5.87 8.56 27.48 27.48 0 01-10 5.63 45.19 45.19 0 01-14.34 2h-17.94v30.86h-17.17zm-73.72 24.74h16.48v7.23a18.35 18.35 0 013.58-3.73 22.53 22.53 0 014.68-2.83 25.26 25.26 0 015.75-1.8 35.62 35.62 0 016.68-.6 28.51 28.51 0 0110.23 1.73 21.12 21.12 0 017.75 5 21.51 21.51 0 014.85 8.07 32.41 32.41 0 011.68 10.75v36.42h-16.42v-32.1a22.31 22.31 0 00-1-6.93 13.71 13.71 0 00-2.8-5 11.38 11.38 0 00-4.48-3 18.84 18.84 0 00-12.17 0 11.49 11.49 0 00-4.51 3 13.85 13.85 0 00-2.8 5 22.3 22.3 0 00-1 6.93v32.1H413.6zm-40.54 47.32a21 21 0 004.54-1.68 15.21 15.21 0 003.73-2.69 17.37 17.37 0 002.8-3.58 16 16 0 001.73-4.34 22 22 0 000-10 16.37 16.37 0 00-4.53-7.92 17.11 17.11 0 00-3.73-2.71 18.44 18.44 0 00-4.54-1.71 23 23 0 00-5.23-.58 22.61 22.61 0 00-5.18.58 17.63 17.63 0 00-4.5 1.71 17 17 0 00-3.7 2.71 15 15 0 00-2.75 3.59 19.73 19.73 0 00-1.73 14.36 18.47 18.47 0 001.73 4.34 15.66 15.66 0 002.75 3.58 15.31 15.31 0 003.7 2.69 20.17 20.17 0 004.5 1.68 21.57 21.57 0 005.18.6 21.92 21.92 0 005.23-.6m-14.94 13.55a39 39 0 01-8.59-3.09 31.67 31.67 0 01-7.08-4.83 29.94 29.94 0 01-5.32-6.39 30.33 30.33 0 01-3.38-7.74 33.38 33.38 0 010-17.63 30.2 30.2 0 013.38-7.72 30.72 30.72 0 0112.4-11.24 39 39 0 018.59-3.1 44.13 44.13 0 0119.54 0 38.13 38.13 0 018.52 3.1 32.92 32.92 0 017.08 4.85 30.36 30.36 0 015.41 6.39 29.31 29.31 0 013.41 7.72 33.38 33.38 0 010 17.63 29.37 29.37 0 01-8.82 14.13 33.2 33.2 0 01-7.08 4.83 38.26 38.26 0 01-8.5 3.09 43.93 43.93 0 01-19.56 0m-64.24-13.58a21.19 21.19 0 004.54-1.68 15.21 15.21 0 003.73-2.69 17.37 17.37 0 002.8-3.58 15.82 15.82 0 001.73-4.34 22 22 0 000-10 16.37 16.37 0 00-4.53-7.92 17.11 17.11 0 00-3.73-2.71 18.05 18.05 0 00-4.54-1.71 23 23 0 00-5.23-.58 22.61 22.61 0 00-5.18.58 17.85 17.85 0 00-4.51 1.71 17.2 17.2 0 00-3.69 2.71 14.78 14.78 0 00-2.75 3.59 19.07 19.07 0 00-1.73 4.3 18.61 18.61 0 00-.64 5 19 19 0 00.64 5 18.47 18.47 0 001.73 4.34 15.66 15.66 0 002.75 3.58 15.26 15.26 0 003.69 2.69 20.43 20.43 0 004.51 1.68 21.51 21.51 0 005.18.6 21.92 21.92 0 005.23-.6m-14.94 13.55a39 39 0 01-8.59-3.09 31.67 31.67 0 01-7.08-4.83 29.94 29.94 0 01-5.32-6.39 30.33 30.33 0 01-3.38-7.74 33.38 33.38 0 010-17.63 30.2 30.2 0 013.38-7.72 31.07 31.07 0 015.32-6.39 31.42 31.42 0 017.08-4.85 39 39 0 018.59-3.1 44.09 44.09 0 0119.54.04 38 38 0 018.53 3.1 32.92 32.92 0 017.08 4.85 30.36 30.36 0 015.41 6.39 29.31 29.31 0 013.41 7.72 33.38 33.38 0 010 17.63 29.37 29.37 0 01-8.82 14.13 33.2 33.2 0 01-7.08 4.83 38.26 38.26 0 01-8.5 3.09 43.93 43.93 0 01-19.56 0m-130-85.61h17.35l29.65 45.32 29.77-45.32h17.34v85H225.8v-58.3l-24.63 37.57h-10.52l-24.63-37.57v58.27h-17.17z" data-name="MP LOGO"/><path data-name="MP EM LOGO" d="M109.26 50.85a17.34 17.34 0 10-17.34-17.33 17.33 17.33 0 0017.33 17.34m-53.17 78.1a42.28 42.28 0 1142.27-42.27 42.27 42.27 0 01-42.27 42.27" fill="#7d00ff"/><path fill="none" d="M0 0h722.86v159.05H0z"/></svg>