<svg version="1.1" id="Layer_1" xmlns="http://www.w3.org/2000/svg" x="0" y="0" viewBox="0 0 200 200" xml:space="preserve"><style>.st2{fill:#53cbc8}</style><g id="logo-symbol" transform="translate(-442 -265)"><path id="Rectangle_38" fill="none" d="M455.7 278.7h172.7v172.7H455.7z"/><g id="symbol" transform="translate(231.196 -160.618)"><path id="Path_207" d="M309.3 442.7c-34.3 0-62.1 27.8-62.1 62.1 0 3.9.4 7.8 1.1 11.7l8-5.5c14.1-9.7 37-9.7 51 0l8.4 5.8 4.6 3.1c12.7 8.7 33.3 8.7 46 0l3.7-2.6c6.9-33.6-14.8-66.4-48.4-73.3-4-.8-8.2-1.2-12.3-1.3z" fill="#f2b705"/><path id="Path_208" class="st2" d="M344.1 542.1c-9.3 0-18.3-2.5-25-7.2l-13-8.9c-6.2-4.3-14.5-6.6-23.4-6.6-8.9 0-17.2 2.3-23.4 6.6l-8.4 5.7c-1.7 1.1-3.9.7-5.1-.9-1.1-1.7-.7-3.9.9-5.1l8.4-5.7c7.4-5.1 17.2-7.9 27.6-7.9 10.4 0 20.1 2.8 27.6 7.9l13 8.9c12.8 7.9 29 7.9 41.8 0l4.9-3.4c1.6-1.2 3.9-.8 5.1.9 1.2 1.6.8 3.9-.9 5.1 0 0-.1 0-.1.1l-4.9 3.4c-6.8 4.5-15.7 7.1-25.1 7.1z"/><path id="Path_209" class="st2" d="M282.4 568.1V533c0-.7 0-1.5.1-2.2.2-2 1.9-3.5 3.9-3.5 1.9.1 3.5 1.6 3.7 3.5.1 1.2.2 2.4.1 3.7v69.9c-.2 2.6-1.8 4.3-4 4.3s-3.8-1.8-3.8-4.5v-36.1z"/><path id="Path_210" class="st2" d="M275.1 550.5v17.4c0 3-1.6 5-3.8 4.9-2.3-.1-4-2.1-4-4.9V533c0-3.1 1.8-5.1 4.1-5 2.3.1 3.7 2 3.7 5v17.5z"/><path id="Path_211" class="st2" d="M297.7 550.4v-12.2c0-2.8 1.5-4.7 3.8-4.7s4 1.9 4 4.6c.1 8.3.1 16.7 0 25 0 2.8-1.7 4.5-4 4.5s-3.8-1.8-3.8-4.7v-12.5z"/><path id="Path_212" class="st2" d="M252 553v-12.3c0-2.8 1.5-4.7 3.8-4.7s4 1.9 4 4.6c.1 8.3.1 16.7 0 25 0 2.8-1.7 4.5-4 4.5s-3.8-1.8-3.8-4.7V553z"/><path id="Path_213" class="st2" d="M316.7 542.6c2.1 0 3.9 1.7 3.9 3.8v6.7c0 2.1-1.7 3.8-3.8 3.8-2.1 0-3.8-1.7-3.8-3.8v-6.7c-.1-2.1 1.6-3.8 3.7-3.8z"/><path id="Path_214" class="st2" d="M332 548.4c2.1 0 3.9 1.7 3.9 3.8v37.4c0 2.1-1.7 3.8-3.8 3.8-2.1 0-3.8-1.7-3.8-3.8v-37.4c-.2-2.1 1.5-3.8 3.7-3.8z"/><path id="Path_215" class="st2" d="M347.1 549.9c2.1 0 3.9 1.7 3.9 3.8v31.8c0 2.1-1.7 3.8-3.8 3.8-2.1 0-3.8-1.7-3.8-3.8v-31.8c-.2-2.1 1.6-3.8 3.7-3.8z"/><path id="Path_216" class="st2" d="M362.4 546.2c2.1 0 3.9 1.7 3.9 3.8v13.7c0 2.1-1.7 3.8-3.8 3.8-2.1 0-3.8-1.7-3.8-3.8V550c-.1-2 1.6-3.8 3.7-3.8z"/></g></g></svg>