<svg version="1.1" id="Layer_1" xmlns="http://www.w3.org/2000/svg" x="0" y="0" viewBox="0 0 200 200" xml:space="preserve"><style>.st2{fill:#e1147b}</style><g id="logo-symbol" transform="translate(-83 -294)"><path id="Rectangle_37" fill="none" d="M99.7 310.7h166.7v166.7H99.7z"/><g id="symbol" transform="translate(-224.332 64.165)"><path id="Path_185" d="M422.9 259.8c-28.2 0-51.1 22.9-51.1 51.1v.2c.1 1.3 1.2 2.4 2.5 2.4h97.1c1.3 0 2.4-1 2.5-2.4v-.2c.1-28.2-22.8-51.1-51-51.1z" fill="#53cbc8"/><path id="Path_186" class="st2" d="M338 368c0 1.7-1.4 3.1-3.1 3.1s-3.1-1.4-3.1-3.1c0-1.7 1.4-3.1 3.1-3.1 1.7 0 3.1 1.4 3.1 3.1z"/><path id="Path_187" class="st2" d="M468.1 350.8H363.9c-1.7 0-3.1 1.4-3.1 3.1 0 .5.1 1 .4 1.5 0 0 0 .1.1.1.5 1 1.6 1.6 2.7 1.6h104c1.1 0 2.2-.6 2.7-1.6l.1-.1c.8-1.5.2-3.3-1.2-4.2-.5-.3-1-.4-1.5-.4z"/><path id="Path_188" class="st2" d="M481.9 322.6h-118c-1.7 0-3.1 1.4-3.1 3.1v.3c.1 1.6 1.4 2.9 3.1 2.9h118c1.6 0 3-1.3 3.1-2.9v-.1c.1-1.7-1.2-3.1-2.9-3.2-.1-.1-.1-.1-.2-.1z"/><path id="Path_189" class="st2" d="M437.5 393.1h-53.2c-1.7 0-3.1 1.4-3.1 3.1 0 1.2.7 2.2 1.7 2.7l.2.1c.4.2.9.3 1.4.3h52.8c.5 0 .9-.1 1.4-.3l.2-.1c1.5-.8 2.1-2.6 1.4-4.1-.6-1.1-1.7-1.7-2.8-1.7z"/><path id="Path_190" class="st2" d="M470 379h-53.2c-1.7 0-3.1 1.4-3.1 3.1 0 1.2.7 2.2 1.7 2.7l.2.1c.4.2.9.3 1.4.3h52.8c.5 0 .9-.1 1.4-.3l.2-.1c1.5-.8 2.1-2.6 1.4-4.1-.6-1.1-1.7-1.7-2.8-1.7z"/><path id="Path_191" class="st2" d="M397.4 370.1c-1.2-1.3-1.2-3.3.1-4.4.6-.5 1.3-.8 2.1-.8h86.3c1.7 0 3.1 1.4 3.1 3.1 0 .8-.3 1.5-.8 2.1l-.1.1c-.6.6-1.4 1-2.2 1h-86.1c-1-.1-1.8-.5-2.4-1.1z"/><path id="Path_192" class="st2" d="M346 364.9h41.2c1.7 0 3.1 1.4 3.1 3.1 0 1.2-.7 2.2-1.7 2.7l-.2.1c-.4.2-.9.3-1.4.3h-40.8c-.5 0-.9-.1-1.4-.3l-.2-.1c-1.5-.8-2.1-2.6-1.4-4.1.6-1.1 1.7-1.7 2.8-1.7z"/><path id="Path_193" class="st2" d="M355.9 325.7c0 1.7-1.4 3.1-3.1 3.1-1.7 0-3.1-1.4-3.1-3.1 0-1.7 1.4-3.1 3.1-3.1 1.7 0 3.1 1.4 3.1 3.1z"/><path id="Path_194" class="st2" d="M429.1 340.6c.1 0 .1 0 0 0 .5-1.7-.5-3.4-2.1-3.8-.3-.1-.5-.1-.8-.1h-86.3c-1.7 0-3.1 1.4-3.1 3.1 0 .3 0 .5.1.8v.1c.4 1.3 1.6 2.3 3 2.3h86.3c1.4-.1 2.6-1 2.9-2.4"/><path id="Path_195" class="st2" d="M331.9 339.8c0 1.7-1.4 3.1-3.1 3.1-1.7 0-3.1-1.4-3.1-3.1 0-1.7 1.4-3.1 3.1-3.1 1.7 0 3.1 1.4 3.1 3.1z"/><path id="Path_196" class="st2" d="M355.9 353.9c0 1.7-1.4 3.1-3.1 3.1-1.7 0-3.1-1.4-3.1-3.1 0-1.7 1.4-3.1 3.1-3.1 1.7 0 3.1 1.4 3.1 3.1z"/><path id="Path_197" class="st2" d="M408.8 382.1c0 1.7-1.4 3.1-3.1 3.1-1.7 0-3.1-1.4-3.1-3.1 0-1.7 1.4-3.1 3.1-3.1 1.7 0 3.1 1.3 3.1 3.1z"/><path id="Path_198" class="st2" d="M376.3 396.2c0 1.7-1.4 3.1-3.1 3.1-1.7 0-3.1-1.4-3.1-3.1 0-1.7 1.4-3.1 3.1-3.1 1.7 0 3.1 1.3 3.1 3.1z"/></g></g></svg>