<svg width="64" height="64" xmlns="http://www.w3.org/2000/svg"><g fill="none"><path d="M32.09 44.48c-2.877 0-5.218 2.333-5.218 5.2s2.34 5.202 5.218 5.202c2.879 0 5.22-2.335 5.22-5.202s-2.342-5.2-5.22-5.2z" fill="#5A78F0"/><path d="M44.822 37.395a17.893 17.893 0 00-12.732-5.266 17.906 17.906 0 00-12.7 5.232 3.503 3.503 0 00-.006 4.957 3.497 3.497 0 002.492 1.031 3.5 3.5 0 002.483-1.023 10.898 10.898 0 017.731-3.186c2.93 0 5.682 1.139 7.75 3.205a3.502 3.502 0 002.491 1.03 3.5 3.5 0 002.485-1.023 3.5 3.5 0 00.006-4.957z" fill="#00C0A5"/><path d="M61.178 21.093C53.411 13.345 43.08 9.08 32.09 9.08c-10.975 0-21.296 4.256-29.06 11.986a3.5 3.5 0 00-.002 4.957 3.5 3.5 0 002.488 1.026c.94 0 1.822-.363 2.486-1.024 6.437-6.407 14.991-9.936 24.088-9.936 9.11 0 17.673 3.536 24.11 9.96a3.503 3.503 0 002.49 1.028 3.5 3.5 0 002.486-1.025 3.5 3.5 0 00.002-4.958z" fill="#CDF4EE"/><path d="M52.793 29.448c-5.529-5.516-12.881-8.553-20.703-8.553-7.807 0-15.149 3.028-20.673 8.524a3.478 3.478 0 00-1.033 2.479c0 .936.365 1.816 1.03 2.479a3.501 3.501 0 002.488 1.028 3.51 3.51 0 002.487-1.024c4.196-4.176 9.773-6.476 15.701-6.476 5.94 0 11.525 2.308 15.724 6.498a3.501 3.501 0 002.49 1.03 3.5 3.5 0 002.486-1.026 3.477 3.477 0 001.032-2.478 3.48 3.48 0 00-1.029-2.48z" fill="#00C0A5"/></g></svg>