<svg width="64" height="64" xmlns="http://www.w3.org/2000/svg"><g fill="none"><path fill="#5A78F0" d="M9.081 6l1.703 3.294 3.526 1.935-3.526 1.55-1.703 3.68-1.703-3.68-3.526-1.55 3.526-1.935z"/><path fill="#CDF4EE" d="M59.616 10.93l1.419 2.745 2.939 1.613-2.939 1.291-1.419 3.067-1.419-3.067-2.939-1.291 2.939-1.613z"/><g transform="translate(12.093 14.628)"><path d="M35.41 15.592c-1.018 0-2.904.573-4.131 1.721-1.404 1.314-2.088 3.288-2.088 4.452 0 1.15.336 3.678 1.718 5.15 1.238 1.32 3.47 1.653 4.5 1.653h9.235V15.592H35.41z" fill="#5A78F0"/><path d="M35.626 15.592h9.018V7.807H4.537c-.818 0-2.066-.436-2.757-1.142C1.09 5.96.832 4.841.673 4.381v25.484c0 3.583 2.883 6.488 6.44 6.488h37.53v-7.785h-9.017c-3.551 0-6.441-2.91-6.441-6.488 0-3.577 2.89-6.488 6.441-6.488z" fill="#CDF4EE"/><path d="M4.525 0C2.397 0 .673 1.77.673 3.954s1.724 3.878 3.852 3.878h34.842V0H4.525z" fill="#00C0A5"/><circle fill="#FFF" cx="34.968" cy="22.14" r="1.926"/></g><path fill="#00C0A5" d="M7.849 46.674l1.986 3.843 4.114 2.258-4.114 1.808-1.986 4.293-1.987-4.293-4.114-1.808 4.114-2.258z"/></g></svg>