<svg width="64" height="64" xmlns="http://www.w3.org/2000/svg"><g fill="none"><path d="M60.575 31.788c0 15.899-12.888 28.787-28.787 28.787C15.888 60.575 3 47.687 3 31.788 3 15.888 15.889 3 31.788 3c15.899 0 28.787 12.889 28.787 28.788z" fill="#CDF4EE"/><path d="M35.383 44.152c0-1.878.752-5.961-3.816-5.961-4.567 0-3.838 4.083-3.838 5.961 0 1.88 1.713 3.402 3.827 3.402s3.827-1.523 3.827-3.402z" fill="#5A78F0"/><path d="M31.556 20.371c-1.811 0-3.28-1.523-3.28-3.402 0-1.879 1.469-3.402 3.28-3.402 1.812 0 3.28 1.523 3.28 3.402 0 1.879-1.468 3.402-3.28 3.402zm0-4.536c-.604 0-1.093.508-1.093 1.134 0 .626.49 1.134 1.093 1.134.604 0 1.094-.508 1.094-1.134 0-.626-.49-1.134-1.094-1.134z" fill="#00C0A5"/><path d="M43.429 39.455L42.286 28.09C42.286 23.07 37.049 19 32 19c-5.05 0-10.286 4.07-10.286 9.09l-1.143 11.365C17.764 41.095 16 41.49 16 44h32c0-2.51-1.624-2.51-4.571-4.545z" fill="#00C0A5"/></g></svg>