<svg xmlns="http://www.w3.org/2000/svg" fill="none" aria-hidden="true" viewBox="0 0 28 20"><path fill="#fff" d="M0 0h28v20H0V0z"/><path fill="#fff" fill-rule="evenodd" d="M0 2a2 2 0 012-2h.465c.132 0 .26.04.37.112l12.168 8.112c1.097.732.58 2.443-.74 2.443H8l7.996 6.996c.927.811.353 2.337-.878 2.337H2a2 2 0 01-2-2V2z" clip-rule="evenodd"/><mask id="a" width="17" height="20" x="0" y="0" maskUnits="userSpaceOnUse"><path fill="#fff" fill-rule="evenodd" d="M0 2a2 2 0 012-2h.465c.132 0 .26.04.37.112l12.168 8.112c1.097.732.58 2.443-.74 2.443H8l7.996 6.996c.927.811.353 2.337-.878 2.337H2a2 2 0 01-2-2V2z" clip-rule="evenodd"/></mask><g mask="url(#a)"><path fill="#EE1B44" stroke="#0543A8" stroke-linejoin="round" stroke-width="1.333" d="M15.118 19.333H.667V.667h1.798l12.168 8.112c.549.366.29 1.221-.37 1.221H8a.668.668 0 00-.439 1.168l7.996 6.997a.667.667 0 01-.439 1.168z"/><path fill="#fff" fill-rule="evenodd" d="M6.851 7.8a4.6 4.6 0 001.051-.424 2.668 2.668 0 01-5.142 0c.314.176.67.32 1.055.426l.518-.469-.847-.765 1.14.058-.058-1.14.765.847.766-.847-.059 1.14 1.141-.058-.848.765.518.468V7.8zm-2.538 9.33L5.333 16l1.02 1.13-.077-1.52 1.521.077-1.13-1.02 1.13-1.02-1.52.077.077-1.521-1.02 1.13-1.021-1.13.078 1.52-1.521-.077L4 14.666l-1.13 1.021 1.52-.077-.077 1.52z" clip-rule="evenodd"/></g></svg>