<svg width="122" height="122" fill="none" xmlns="http://www.w3.org/2000/svg"><path d="M61 122c33.69 0 61-27.31 61-61S94.69 0 61 0 0 27.31 0 61s27.31 61 61 61z" fill="#FF0420"/><path d="M43.201 77.177a14.656 14.656 0 01-8.924-2.563 8.763 8.763 0 01-3.432-7.413c.014-.828.09-1.654.229-2.471.397-2.2.961-4.839 1.693-7.917 2.075-8.39 7.429-12.585 16.062-12.585 2.164-.035 4.313.37 6.315 1.19a9.6 9.6 0 014.393 3.478 9.333 9.333 0 011.6 5.492 16.295 16.295 0 01-.229 2.425 104.188 104.188 0 01-1.647 7.917c-1.067 4.18-2.912 7.306-5.537 9.381-2.622 2.044-6.13 3.066-10.523 3.066zm.641-6.59a6.5 6.5 0 004.348-1.51 8.424 8.424 0 002.608-4.622c.702-2.867 1.235-5.368 1.6-7.505.123-.649.184-1.308.183-1.968 0-2.777-1.449-4.165-4.347-4.164a6.681 6.681 0 00-4.393 1.51 8.573 8.573 0 00-2.563 4.622c-.55 2.044-1.098 4.546-1.647 7.505a9.8 9.8 0 00-.183 1.922c0 2.807 1.465 4.21 4.394 4.21zm19.403 6.133a.97.97 0 01-.778-.32 1.1 1.1 0 01-.137-.824l6.315-29.746a1.31 1.31 0 01.5-.824 1.4 1.4 0 01.87-.32h12.173c2.866-.14 5.707.593 8.146 2.105a6.9 6.9 0 013.112 6.087 10.95 10.95 0 01-.275 2.38 12.39 12.39 0 01-4.622 7.78c-2.288 1.678-5.43 2.517-9.427 2.517h-6.177L70.84 75.577a1.31 1.31 0 01-.5.824 1.4 1.4 0 01-.869.32l-6.226-.001zm16.2-17.482a5.452 5.452 0 003.341-1.052 4.942 4.942 0 001.922-3.02c.085-.453.13-.912.137-1.373a2.544 2.544 0 00-.778-2.014 3.836 3.836 0 00-2.654-.732h-5.491l-1.739 8.191h5.262z" fill="#fff"/></svg>