<svg width="64" height="64" xmlns="http://www.w3.org/2000/svg"><g fill="none" fill-rule="evenodd"><g fill-rule="nonzero"><path d="M23.91 35.074V43.4c0 .701.403 1.33 1.016 1.581.186.077.382.116.575.116.439 0 .87-.195 1.177-.557l5.28-6.2-8.048-3.266z" fill="#5D7BEF"/><path d="M57.858 3.111L7.868 22.2a1.636 1.636 0 00-1.062 1.532 1.634 1.634 0 001.074 1.522L21.66 30.4l29.95-18.854-24.707 20.811 20.412 7.622a1.689 1.689 0 001.326-.059c.415-.2.727-.558.862-.99L60.057 5.116c.185-.6.007-1.252-.462-1.68a1.691 1.691 0 00-1.737-.325z" fill="#CDF4EE"/></g><path d="M23.645 48.839c-.636 6.08-8.594 9.197-8.93 4.96-.334-4.237 10.888-1.718 8.294 3.2C20.414 61.917 8.519 62.734 4 57" stroke="#05C0A5" stroke-width="2" stroke-linecap="round"/></g></svg>