<svg width="32" height="32" xmlns="http://www.w3.org/2000/svg"><g fill="none" fill-rule="evenodd"><g stroke="#003945" stroke-width="1.8" transform="translate(5 5)"><rect fill="#05C0A5" x=".9" y=".9" width="8.2" height="8.2" rx="2"/><rect fill="#FFF" x=".9" y="12.9" width="8.2" height="8.2" rx="2"/><rect fill="#FFF" x="12.9" y=".9" width="8.2" height="8.2" rx="2"/></g><path d="M23 21h3a1 1 0 011 1v4a1 1 0 01-1 1h-4a1 1 0 01-1-1v-3h-3a1 1 0 01-1-1v-4a1 1 0 011-1h4a1 1 0 011 1v3z" fill="#003945"/></g></svg>