<svg width="40" height="40" xmlns="http://www.w3.org/2000/svg"><g fill="#FFF"><path d="M10.412 7.831a1.84 1.84 0 00-1.29-.534c-.48 0-.95.195-1.29.534-.34.34-.535.81-.535 1.29 0 .481.195.95.534 1.291.34.34.81.534 1.29.534s.95-.195 1.29-.534c.34-.34.535-.81.535-1.29s-.195-.95-.534-1.29z"/><path d="M16.297 0H1.811A1.81 1.81 0 000 1.81v14.487c0 1 .81 1.811 1.81 1.811h14.487c1 0 1.811-.81 1.811-1.81V1.81c0-1-.81-1.811-1.81-1.811zm-1.81 14.486H3.621V3.622h10.864v10.864zm17.545-6.655a1.835 1.835 0 00-1.289-.534c-.48 0-.95.195-1.29.534-.34.34-.534.81-.534 1.29 0 .481.194.95.534 1.291.34.34.81.534 1.29.534s.95-.195 1.29-.534c.34-.34.535-.81.535-1.29s-.195-.95-.536-1.29z"/><path d="M38.054 0H23.568c-1 0-1.811.81-1.811 1.81v14.487c0 1 .81 1.811 1.81 1.811h14.487c1 0 1.81-.81 1.81-1.81V1.81c0-1-.81-1.811-1.81-1.811zm-1.81 14.486H25.377V3.622h10.865v10.864zM10.412 29.588a1.84 1.84 0 00-1.29-.534c-.48 0-.95.195-1.29.534-.34.34-.535.81-.535 1.29s.195.95.534 1.29c.34.34.81.535 1.29.535s.95-.195 1.29-.534c.34-.34.535-.81.535-1.29 0-.481-.195-.95-.534-1.291z"/><path d="M16.297 21.757H1.811c-1 0-1.811.81-1.811 1.81v14.487c0 1 .81 1.81 1.81 1.81h14.487c1 0 1.811-.81 1.811-1.81V23.568c0-1-.81-1.811-1.81-1.811zm-1.81 14.486H3.621V25.378h10.864v10.865zm17.473-7.189h-1.217a1.824 1.824 0 000 3.649h1.216a1.824 1.824 0 000-3.649zm6.08 3.649a1.824 1.824 0 00-1.824 1.824v1.824H31.96a1.824 1.824 0 000 3.649h6.082a1.824 1.824 0 001.824-1.824v-3.649a1.824 1.824 0 00-1.824-1.824zm-14.459-3.649a1.824 1.824 0 00-1.824 1.824v2.433a1.824 1.824 0 003.648 0v-2.433a1.824 1.824 0 00-1.824-1.824zm8.379-7.297h-3.65a1.824 1.824 0 000 3.648h3.65a1.824 1.824 0 000-3.648z"/></g></svg>