<svg width="33" height="31" xmlns="http://www.w3.org/2000/svg"><g fill="none"><path d="M31.274 25.638c2.962-4.806 1.46-11.099-3.355-14.055a10.239 10.239 0 00-3.998-1.423c.071.501.105 1.005.102 1.511-.183 5.649-4.85 10.118-10.512 10.063h-1.067a10.462 10.462 0 0010.395 8.756h9.444l-.994-1.685a3.068 3.068 0 01-.015-3.167z" fill="#C6F4ED"/><path d="M2.907 19.863C-.867 13.735 1.043 5.709 7.174 1.936 13.305-1.837 21.336.072 25.111 6.2a13.022 13.022 0 011.934 7.018c-.232 7.204-6.18 12.904-13.39 12.834H1.621l1.267-2.15c.754-1.24.76-2.793.018-4.04z" fill="#05C0A5"/><path d="M15.087 10.396c0-.826-.637-1.306-1.755-1.306a3.895 3.895 0 00-2.813 1.268L8.793 8.504a5.936 5.936 0 014.588-1.99c2.706 0 4.54 1.404 4.54 3.844 0 2.354-1.618 3.315-3.618 3.66l-.206 1.125h-1.96l-.432-2.979.098-.096c2.362-.096 3.284-.71 3.284-1.672zM11.519 16.6h3.038v2.94H11.52V16.6z" fill="#FFF"/></g></svg>