<svg width="64" height="64" xmlns="http://www.w3.org/2000/svg"><g transform="translate(4 4)" fill="none"><path d="M6.546 32.019C1.188 23.313 3.9 11.909 12.603 6.548c8.704-5.36 20.104-2.649 25.463 6.058a18.515 18.515 0 012.746 9.971c-.33 10.237-8.773 18.335-19.01 18.236H4.722l1.798-3.055a5.566 5.566 0 00.026-5.739z" stroke="#003945" fill="#CDF4EE"/><path d="M51.41 45.492c5.249-8.526 2.586-19.69-5.947-24.934a18.137 18.137 0 00-7.087-2.524c.127.888.186 1.783.181 2.68-.324 10.021-8.598 17.95-18.631 17.852h-1.892c1.48 9.003 9.294 15.592 18.424 15.535h16.74l-1.762-2.99a5.447 5.447 0 01-.026-5.619z" fill="#05C0A5"/><path d="M53.095 51.013a4.164 4.164 0 010-4.306c5.663-9.208 2.79-21.265-6.417-26.928a19.565 19.565 0 00-6.633-2.564A19.573 19.573 0 0034.199 6.5a19.388 19.388 0 00-15.033-5.31C8.388 2.034.336 11.454 1.18 22.232a19.565 19.565 0 002.888 8.802c.8 1.325.8 2.982 0 4.306l-1.814 3.028a1.304 1.304 0 001.122 1.97h13.885a20.032 20.032 0 0019.574 15.66h16.912a1.306 1.306 0 001.123-1.97l-1.776-3.015zm-16.208 2.376a17.424 17.424 0 01-16.964-13.05h.313c10.818.09 19.73-8.474 20.07-19.288v-1.135c9.122 2.141 14.78 11.27 12.639 20.392a16.975 16.975 0 01-2.069 5.015 6.773 6.773 0 000 7.008l.627 1.057H36.887h0z" stroke="#05C0A5" fill="#05C0A5"/><path d="M1.33 39.86c.81-1.313 3.337-5.64 1.746-8.273C-2.92 21.84.118 9.076 9.863 3.077 19.607-2.92 32.369.117 38.367 9.865a20.718 20.718 0 013.07 11.154c-.38 11.47-9.849 20.54-21.323 20.42H2.31c-1.215-.14-1.542-.667-.98-1.579z" stroke="#CDF4EE" fill="#CDF4EE"/><circle fill="#5A78F0" cx="11.864" cy="21.356" r="2.373"/><circle fill="#5A78F0" cx="21.356" cy="21.356" r="2.373"/><circle fill="#5A78F0" cx="29.898" cy="21.356" r="2.373"/></g></svg>