<svg width="64" height="64" xmlns="http://www.w3.org/2000/svg"><g fill="none"><path d="M22.872 40.177c-1.13-1.13-4.307-.117-5.8 1.374-4.993 4.988-7.248 8.524-8.26 10.613a1.56 1.56 0 00.3 1.784c.472.472 1.19.591 1.79.301 2.043-.99 5.54-3.233 10.593-8.28 1.641-1.64 2.45-4.72 1.379-5.791l-.002-.001zm9.304 15.222l4.527-4.436c3.504-3.435 3.936-8.437 3.141-9.842-3.419 2.525-6.96 5.506-10.192 7.291.223 1.234.338 2.152-.19 5.648a1.557 1.557 0 00.863 1.63 1.621 1.621 0 001.851-.291zM6.687 33.696l4.434-4.529c3.433-3.506 8.433-3.939 9.837-3.143-2.524 3.42-5.503 6.964-7.288 10.197-1.233-.223-2.15-.337-5.644.19a1.556 1.556 0 01-1.63-.863 1.624 1.624 0 01.291-1.852zm27.3-10.931a4.459 4.459 0 000 6.295 4.453 4.453 0 006.293 0 4.458 4.458 0 000-6.295 4.453 4.453 0 00-6.293 0z" fill="#05C0A5"/><path d="M54.487 7.084c-3.876-.292-7.737.185-11.521 1.345.284 2.604 1.63 5.423 3.925 7.723 2.323 2.327 5.214 3.674 7.86 3.926 1.02-3.579 1.503-7.411 1.192-11.536a1.577 1.577 0 00-1.456-1.458z" fill="#5A78F0"/><path d="M42.966 8.429c-1.549.333-2.483.584-2.803.75-.48.251 3.077 12.695 13.674 13.582 0 0 .704-1.594.914-2.683-3.053-4.026-6.982-7.909-11.785-11.65z" fill="#B4ECE4"/><path d="M40.163 9.18c-9.403 3.868-18.404 12.314-25.517 24.18l3.534 3.545c2.414-.983 5.345-1.243 7.204.621 1.862 1.868 1.598 4.807.618 7.225l3.65 3.661c9.102-5.502 19.7-14.171 24.206-25.705-3.117-.472-6.34-2.071-8.988-4.727-2.606-2.614-4.197-5.748-4.707-8.8zm2.492 22.127a7.822 7.822 0 01-11.072 0c-3.052-3.062-3.052-8.045 0-11.106a7.822 7.822 0 0111.072 0c3.053 3.062 3.053 8.044 0 11.106z" fill="#B4ECE4"/><path d="M11.208 41.12c-.283 1.252.179 2.652.634 3.133.226.163.388.163.484 0 .823-1.399 1.575-2.898 2.352-3.94.924-1.24 3.258-3.237 3.734-3.517l-3.766-3.449c-1.367 2.612-3.181 6.641-3.438 7.774zm10.634 10.554c-1.25.284-2.65-.178-3.13-.634-.164-.226-.164-.387 0-.484 1.398-.824 2.896-1.576 3.938-2.353 1.238-.925 3.235-3.26 3.515-3.736l3.446 3.768c-2.61 1.368-6.637 3.183-7.769 3.44z" fill="#B4ECE4"/></g></svg>