<svg xmlns="http://www.w3.org/2000/svg" width="32" height="32"><path opacity=".986" d="M15.976.5c-1.736 0-3.151 1.39-3.151 3.078 0 .35.062.686.173 1L7.253 7.767a3.178 3.178 0 00-2.345-1.029c-1.736 0-3.151 1.39-3.151 3.078 0 1.453 1.05 2.685 2.45 2.999l-.024 6.406c-1.381.328-2.413 1.55-2.413 2.991 0 1.688 1.416 3.077 3.151 3.077a3.18 3.18 0 002.291-.971l5.773 3.259c-.08.269-.123.553-.123.846 0 1.688 1.416 3.077 3.151 3.077s3.152-1.39 3.152-3.077c0-.284-.041-.559-.116-.821l5.802-3.22a3.178 3.178 0 002.241.921c1.736 0 3.151-1.39 3.151-3.077 0-1.452-1.049-2.683-2.447-2.998l.024-6.414c1.366-.338 2.383-1.554 2.383-2.984 0-1.688-1.416-3.077-3.151-3.077-.903 0-1.72.377-2.296.976L18.99 4.475a2.99 2.99 0 00.137-.895c0-1.688-1.417-3.078-3.152-3.078zm0 1.426c.934 0 1.682.728 1.682 1.652S16.91 5.23 15.976 5.23c-.934 0-1.681-.727-1.681-1.652s.747-1.652 1.681-1.652zm2.272 3.777l5.78 3.262a2.974 2.974 0 00.037 1.84l-5.24 2.958c-.602-1.105-1.495-1.925-2.06-2.372l-.042-4.825a3.177 3.177 0 001.524-.863zm-4.462.08c.402.381.905.659 1.467.789l.065 4.801c-.564.442-1.475 1.269-2.087 2.394l-5.34-2.965a2.97 2.97 0 00.061-1.78zM4.907 8.164c.934 0 1.681.728 1.681 1.652s-.748 1.652-1.681 1.652c-.934 0-1.681-.728-1.681-1.652s.747-1.652 1.681-1.652zm22.145.013c.934 0 1.681.727 1.681 1.652s-.747 1.653-1.681 1.653-1.682-.728-1.682-1.653.748-1.652 1.682-1.652zM7.108 12.012l5.604 3.11a4.54 4.54 0 00-.029 1.916L7.225 20.12a3.176 3.176 0 00-1.572-.9l.024-6.42a3.179 3.179 0 001.431-.788zm17.735.005c.41.395.929.681 1.507.811l-.024 6.413a3.177 3.177 0 00-1.483.835l-5.47-3.036a4.555 4.555 0 00-.029-1.919zm-8.814.696c.792.721 2.039 2.105 1.949 3.611-.06 1.014-.608 1.878-1.185 2.517v-2.278a.729.729 0 00-.74-.717h-.012.001a.729.729 0 00-.729.717v.011-.001 2.321c-.594-.645-1.172-1.528-1.234-2.571-.09-1.506 1.157-2.89 1.949-3.611zm2.868 5.704l5.192 2.881a2.97 2.97 0 00.003 1.862l-5.752 3.193a3.177 3.177 0 00-1.569-.917l-.016-4.416a.702.702 0 00.037-.178v-.002c.613-.459 1.52-1.274 2.106-2.423zm-5.736.001c.591 1.158 1.509 1.979 2.122 2.436l.017 4.572a3.177 3.177 0 00-1.595.908l-5.763-3.253a2.977 2.977 0 00.005-1.72zm-8.24 2.141c.934 0 1.682.728 1.682 1.653s-.748 1.652-1.682 1.652c-.934 0-1.681-.727-1.681-1.652s.747-1.653 1.681-1.653zm22.172.014c.934 0 1.681.728 1.681 1.652s-.748 1.652-1.681 1.652c-.934 0-1.681-.727-1.681-1.652s.747-1.652 1.681-1.652zm-11.08 6.198c.934 0 1.682.728 1.682 1.652s-.748 1.652-1.682 1.652c-.934 0-1.681-.727-1.681-1.652 0-.267.064-.516.175-.737l.13-.217a1.68 1.68 0 011.376-.698z"/></svg>