<svg width="45" height="45" xmlns="http://www.w3.org/2000/svg"><g fill="#002747" fill-rule="evenodd"><path d="M23.533 33.2a1.7 1.7 0 11-3.4 0v-1.7h3.4v1.7zm3.993-6.01H16.14c-1.049 0-1.898-.831-1.898-1.857V10.467c0-1.026.85-1.858 1.898-1.858h11.386c1.048 0 1.897.832 1.897 1.858v14.866c0 1.026-.85 1.858-1.897 1.858zm-3.598 10.2h-4.19c-1.158 0-2.096-.849-2.096-1.897V29.8h8.381v5.693c0 1.048-.938 1.898-2.095 1.898zM11.633 9.4v17a3.4 3.4 0 003.4 3.4v6.8a3.4 3.4 0 003.4 3.4h6.8a3.4 3.4 0 003.4-3.4v-6.8a3.4 3.4 0 003.4-3.4v-17a3.4 3.4 0 00-3.4-3.4h-13.6a3.4 3.4 0 00-3.4 3.4z" fill-rule="nonzero"/><path d="M25.11 6.137L11.69 19.556l2.014 2.013L27.122 8.15zm4.512 6.557L15.085 27.231l2.013 2.013 14.537-14.537z"/></g></svg>