<svg width="20" height="20" xmlns="http://www.w3.org/2000/svg"><g fill="none" fill-rule="evenodd"><path d="M17.981 5.884c.042 2.114.094 4.745-.826 7.137a9.045 9.045 0 01-2.27 3.388c-1.14 1.066-2.633 1.914-4.438 2.518a1.418 1.418 0 01-.893 0c-1.807-.603-3.301-1.45-4.442-2.517a9.029 9.029 0 01-2.27-3.387c-.917-2.384-.865-5.01-.823-7.12V5.87c.009-.174.014-.357.018-.56.015-.992.838-1.813 1.875-1.868 2.16-.116 3.831-.79 5.259-2.124l.012-.011a1.242 1.242 0 011.634 0l.012.01c1.428 1.334 3.1 2.009 5.26 2.125 1.036.055 1.86.876 1.875 1.868.003.204.009.387.017.56v.014z" fill="#05C0A5" fill-rule="nonzero"/><path d="M7.05 10l2.462 2.462m0 0l4.119-4.12" stroke="#FFF" stroke-linecap="round" stroke-width="1.5"/></g></svg>