<svg xmlns="http://www.w3.org/2000/svg" viewBox="0 0 627 175.7"><path d="M12.3 87.9v76.4h142.9v-17.6H29.6V28.8h125.6V11.5H12.3v76.4z"/><path d="M147.9 40.7c-12.6 1.6-21.6 8.2-25 18.3-.8 2.5-.9 3.3-1.1 6.9-.3 8.5 1.5 13.7 6.4 18.6 4.8 4.8 11.1 7.5 23.8 10 8.2 1.6 11.9 2.9 14.8 5.1 3.5 2.7 4.7 8.1 2.7 12.3-1 2.1-3.4 4.4-5.6 5.4-5.2 2.3-14.2 1.9-19.5-.8-2.3-1.2-4.8-3.7-6.1-6.1-1.1-2.2-2.1-5.8-2.1-7.9v-1.6h-17.6v1.2c0 6.4 2.1 13.8 5.4 18.7 1.7 2.6 5.2 6.2 7.6 7.8 7.2 4.9 17.1 7.2 27.4 6.3 10-.8 17.1-3.8 22.3-9.2 3.4-3.6 5.5-7.7 6.4-12.7.7-3.8.5-12.3-.4-15.4-2.3-7.8-8.2-12.9-18.7-16.4-1.9-.6-5.1-1.5-7.1-1.9-7-1.4-12.5-2.8-14.6-3.7-5.1-2.1-7.2-4.8-7.2-9 0-4.7 2.8-7.7 8.4-9.1 3.2-.8 9.1-.7 11.8.3 5.1 1.8 8.5 5.8 9.3 10.7l.3 2h17.3l-.2-2.9c-.4-6-1.7-9.8-4.7-14.3-4.1-6-10.6-10.1-19.1-11.9-2-.4-4-.6-8.2-.7-3.2-.1-6.2 0-6.7 0zm80.7 47.1v45.5h17.3v-91h-17.3v45.5zm51.8-43.1c-.9 1.3-6.2 9.7-12 18.7l-10.5 16.2v16.5l12.4 18.5 12.4 18.6h21.1l-.6-.8c-.3-.5-7.1-10.5-15.1-22.3-11.3-16.5-14.6-21.7-14.6-22.3 0-.6 3.5-6.3 14.2-22.8 7.8-12.1 14.3-22.2 14.4-22.4.2-.3-1.9-.4-9.9-.4H282l-1.6 2.5zm75.2-2.2c0 .2-21 88.4-21.4 89.8l-.2.9h18.3l2.2-9.6c1.2-5.3 2.2-9.8 2.3-10 .1-.3 3.3-.4 15.3-.3l15.1.1 2.2 9.8 2.2 9.8 9.2.1c8.7.1 9.2 0 9-.4-.1-.3-4.9-20.5-10.7-44.8-5.8-24.4-10.6-44.6-10.7-45l-.1-.6H372c-9.1 0-16.4.1-16.4.2zm17.3 8.7c0 .1 2.3 10.1 5.1 22.4l5 22.3-11.1.1h-11.2c-.1-.1 5.6-25.2 9.4-41.5l.8-3.3h1c.6-.1 1-.1 1 0zm81.9 36.6v45.5h58.7v-16.4h-41.4V42.4h-17.3v45.4zm98.3 0v45.5h59.3v-16.4h-42V59.1h42V42.4h-59.3v45.4z"/><path d="M582.4 87.9v8.4h16.7V79.6h-16.7v8.3z"/></svg>