<svg width="21" height="28" xmlns="http://www.w3.org/2000/svg" xmlns:xlink="http://www.w3.org/1999/xlink"><defs><path d="M9.341.001a9.812 9.812 0 00-9.232 6.52 1.865 1.865 0 003.515 1.246A6.076 6.076 0 019.34 3.73h7.055v13.992a1.865 1.865 0 003.729 0V.002H9.34z" id="a"/><path d="M8.802.135a1.864 1.864 0 000 3.729h1.982a6.07 6.07 0 016.063 6.064 6.07 6.07 0 01-6.063 6.064H3.729V2A1.864 1.864 0 000 2v17.72h10.784c5.4 0 9.792-4.393 9.792-9.792 0-5.4-4.393-9.793-9.792-9.793H8.802z" id="d"/><path id="g" d="M0 .01h13.64v14.308H0z"/><linearGradient x1="106.579%" y1="89.247%" x2="31.638%" y2="-2.518%" id="b"><stop stop-color="#8E8AC2" offset="0%"/><stop stop-color="#615FAA" offset="47.686%"/><stop stop-color="#615FAA" offset="100%"/></linearGradient><linearGradient x1="89.876%" y1="83.549%" x2="7.163%" y2="14.526%" id="e"><stop stop-color="#615FAA" offset="0%"/><stop stop-color="#615FAA" offset="69.261%"/><stop stop-color="#9995C8" offset="100%"/></linearGradient></defs><g fill="none" fill-rule="evenodd"><g transform="translate(.452 .15)"><mask id="c" fill="#fff"><use xlink:href="#a"/></mask><path d="M9.341.001a9.812 9.812 0 00-9.232 6.52 1.865 1.865 0 003.515 1.246A6.076 6.076 0 019.34 3.73h7.055v13.992a1.865 1.865 0 003.729 0V.002H9.34z" fill="url(#b)" mask="url(#c)"/></g><g transform="translate(0 8.278)"><mask id="f" fill="#fff"><use xlink:href="#d"/></mask><path d="M8.802.135a1.864 1.864 0 000 3.729h1.982a6.07 6.07 0 016.063 6.064 6.07 6.07 0 01-6.063 6.064H3.729V2A1.864 1.864 0 000 2v17.72h10.784c5.4 0 9.792-4.393 9.792-9.792 0-5.4-4.393-9.793-9.792-9.793H8.802z" fill="url(#e)" mask="url(#f)"/></g><g transform="translate(0 5.418)"><mask id="h" fill="#fff"><use xlink:href="#g"/></mask><path d="M11.775 14.318H9.793C4.393 14.318 0 9.925 0 4.525c0-1.122.189-2.223.56-3.273a1.864 1.864 0 013.515 1.246 6.07 6.07 0 005.717 8.091h1.983a1.864 1.864 0 010 3.729" fill="#615EA9" mask="url(#h)"/></g></g></svg>