<svg width="60" height="60" fill="none" xmlns="http://www.w3.org/2000/svg"><rect width="60" height="60" rx="12" fill="#CDF4EE"/><path d="M35.068 20.5v-1.008c.488-.456.932-.88 1.332-1.272.408-.4.756-.772 1.044-1.116a5.94 5.94 0 00.684-.972c.168-.304.252-.592.252-.864 0-.376-.096-.66-.288-.852-.192-.2-.456-.3-.792-.3-.28 0-.528.08-.744.24-.216.152-.42.332-.612.54l-.96-.948c.376-.4.76-.7 1.152-.9.392-.208.86-.312 1.404-.312.376 0 .716.06 1.02.18a2.224 2.224 0 011.32 1.248c.12.296.18.628.18.996 0 .32-.068.648-.204.984-.136.328-.32.66-.552.996-.224.328-.484.66-.78.996-.288.328-.588.652-.9.972.192-.024.404-.044.636-.06.24-.024.452-.036.636-.036h1.536V20.5h-5.364zm7.296.144c-.304 0-.56-.104-.768-.312-.2-.216-.3-.48-.3-.792 0-.32.1-.584.3-.792.208-.216.464-.324.768-.324s.556.108.756.324c.208.208.312.472.312.792 0 .312-.104.576-.312.792-.2.208-.452.312-.756.312zm4.565 0a2.46 2.46 0 01-1.116-.252 2.462 2.462 0 01-.864-.768c-.232-.336-.416-.752-.552-1.248a6.9 6.9 0 01-.192-1.716c0-.648.064-1.216.192-1.704.136-.488.32-.896.552-1.224.24-.336.528-.584.864-.744a2.46 2.46 0 011.116-.252c.408 0 .78.084 1.116.252.336.16.62.408.852.744.24.328.424.736.552 1.224.136.488.204 1.056.204 1.704 0 .648-.068 1.22-.204 1.716-.128.496-.312.912-.552 1.248a2.361 2.361 0 01-.852.768 2.46 2.46 0 01-1.116.252zm0-1.368a.842.842 0 00.42-.108c.128-.08.24-.22.336-.42.096-.2.168-.468.216-.804.056-.336.084-.764.084-1.284s-.028-.944-.084-1.272c-.048-.336-.12-.596-.216-.78-.096-.192-.208-.324-.336-.396a.842.842 0 00-.828 0c-.128.072-.24.204-.336.396-.096.184-.172.444-.228.78a7.82 7.82 0 00-.084 1.272c0 .52.028.948.084 1.284.056.336.132.604.228.804.096.2.208.34.336.42a.82.82 0 00.408.108z" fill="#5A78F0"/><path d="M25.653 10.5l-.268.912V37.86l.268.268 12.278-7.257L25.653 10.5z" fill="#fff"/><path d="M25.653 10.5L13.376 30.871l12.277 7.257V10.5z" fill="#fff"/><path d="M25.653 39.453l-.15.184v9.422l.15.441 12.285-17.3-12.285 7.253z" fill="#5A78F0"/><path d="M25.653 49.5V39.453l-12.277-7.254 12.277 17.3z" fill="#5A78F0"/></svg>