<svg xmlns="http://www.w3.org/2000/svg" viewBox="0 0 60 60"><path d="M10 .5h40c5.2 0 9.5 4.3 9.5 9.5v40c0 5.2-4.3 9.5-9.5 9.5H10C4.8 59.5.5 55.2.5 50V10C.5 4.8 4.8.5 10 .5z" fill="#fff"/><path d="M10 .5h40c5.2 0 9.5 4.3 9.5 9.5v40c0 5.2-4.3 9.5-9.5 9.5H10C4.8 59.5.5 55.2.5 50V10C.5 4.8 4.8.5 10 .5z" fill="none" stroke="#c3f0e9"/><path fill="#efefef" d="M30 10.2L13.7 41.3 30 49.8l16.3-8.4z"/><path fill="#5a78f0" d="M30 33.4l-16.3 7.9L30 49.8l16.3-8.4z"/><path fill="#07efc8" d="M30 33.4l-9.6-4.8-6.7 12.7z"/><path fill="#05c0a5" d="M39.7 28.7L30 33.4l16.3 8z"/><path fill="#7ba1ff" d="M30 49.8V33.4l-16.3 7.9z"/><path fill="#ddd" d="M30 10.2v23.2l9.7-4.7z"/></svg>