<svg xmlns="http://www.w3.org/2000/svg" viewBox="0 0 60 60"><path d="M10 .5h40c5.2 0 9.5 4.3 9.5 9.5v40c0 5.2-4.3 9.5-9.5 9.5H10C4.8 59.5.5 55.2.5 50V10C.5 4.8 4.8.5 10 .5z" fill="#fff"/><path d="M10 .5h40c5.2 0 9.5 4.3 9.5 9.5v40c0 5.2-4.3 9.5-9.5 9.5H10C4.8 59.5.5 55.2.5 50V10C.5 4.8 4.8.5 10 .5z" fill="none" stroke="#c3f0e9"/><path d="M29.9 37.2l11.6-6.9L29.9 25" fill="#21a3c1"/><path d="M29.9 11.1v14l-11.6 5.3 11.6 6.9" fill="#77cad8"/><path fill="#2b56e0" d="M41.5 32.5l-11.6 6.9v9.5z"/><path fill="#6c8fe5" d="M18.3 32.5l11.6 16.4v-9.5z"/><path fill="#b1efe3" d="M29.9 11.1L18.3 30.3l11.6-5.2z"/><path fill="#66edd7" d="M29.9 11.1l11.6 19.2-11.6-5.2z"/></svg>