<svg width="16" height="18" xmlns="http://www.w3.org/2000/svg"><g fill="none" fill-rule="evenodd"><path fill="#FFF" d="M.978.973h8.836v4.738l1.074.533 3.78-.236v11.506H.979z"/><path d="M14.429 3.772c.183.185.34.437.471.754.131.318.197.61.197.874v11.435c0 .265-.092.49-.275.675a.905.905 0 01-.669.278H.943a.905.905 0 01-.668-.278.924.924 0 01-.275-.675V.953C0 .688.092.463.275.278A.905.905 0 01.944 0H9.75c.262 0 .55.066.865.199.315.132.564.29.747.476l3.067 3.097zM10.065 1.35v3.732h3.695c-.065-.192-.137-.327-.216-.407l-3.076-3.107c-.079-.079-.213-.152-.403-.218zm3.774 15.168V6.353H9.75a.905.905 0 01-.668-.278.924.924 0 01-.275-.675V1.27H1.258v15.248h12.58zM4.718 7.624a.286.286 0 01.206-.125.323.323 0 01.236.065l.501.377a.29.29 0 01.123.209.331.331 0 01-.064.238L3.932 10.8l1.788 2.412a.331.331 0 01.064.238.29.29 0 01-.123.209l-.5.377a.323.323 0 01-.237.065.286.286 0 01-.206-.125L2.497 10.99c-.092-.126-.092-.252 0-.378l2.22-2.987zM12.6 10.61c.092.126.092.252 0 .378l-2.22 2.987a.286.286 0 01-.207.125.323.323 0 01-.236-.065l-.501-.377a.29.29 0 01-.123-.209.331.331 0 01.064-.238l1.788-2.412-1.788-2.412a.331.331 0 01-.064-.238.29.29 0 01.123-.209l.5-.377a.323.323 0 01.237-.065c.085.01.154.052.206.125L12.6 10.61zm-6.093 4.576a.287.287 0 01-.202-.129.325.325 0 01-.054-.238L7.607 6.57a.29.29 0 01.128-.203.316.316 0 01.236-.055l.62.1a.287.287 0 01.2.129.32.32 0 01.055.238l-1.356 8.25a.29.29 0 01-.128.203.316.316 0 01-.236.055l-.62-.1z" fill="#003945" fill-rule="nonzero"/></g></svg>