<svg xmlns="http://www.w3.org/2000/svg" baseProfile="full" viewBox="5 5 480 480" fill="none"><path d="M65 245A180 180 0 01245 65h0a180 180 0 01180 180h0a180 180 0 01-180 180h0A180 180 0 0165 245" stroke-width="20" stroke-linecap="round" stroke-linejoin="round" stroke="#fff" fill="#transparent"/><path d="M140 245l15-15 105 105-15 15-105-105m30-30l15-15 105 105-15 15-105-105m30-30l15-15 105 105-15 15-105-105m30-30l15-15 105 105-15 15-105-105m-75 105l105-105 15 15-105 105-15-15m30 30l105-105 15 15-105 105-15-15m30 30l105-105 15 15-105 105-15-15" fill="#fff"/></svg>