<svg width="28" height="28" xmlns="http://www.w3.org/2000/svg"><g fill="none" fill-rule="evenodd"><path fill="#FFF" d="M-23-267h266V744H-23z"/><g opacity=".8"><g opacity=".3"><path d="M1 2h26v26H1z"/><path d="M20.5 6.333l-4.333 4.334h3.25v7.583a2.166 2.166 0 11-4.334 0v-7.583a4.34 4.34 0 00-4.333-4.334 4.34 4.34 0 00-4.333 4.334v7.583h-3.25L7.5 22.583l4.333-4.333h-3.25v-7.583a2.166 2.166 0 114.334 0v7.583a4.34 4.34 0 004.333 4.333 4.34 4.34 0 004.333-4.333v-7.583h3.25L20.5 6.333z" fill="#000" fill-rule="nonzero"/></g></g></g></svg>