<svg width="64" height="64" xmlns="http://www.w3.org/2000/svg"><g fill="none" fill-rule="evenodd"><path d="M54.436 49.76l-9.86-7.577a1 1 0 00-1.61.793v4.27a1 1 0 01-1 1H21.034c-3.462 0-6.266-2.774-6.266-6.2 0-3.425 2.804-6.2 6.266-6.2h21.934c6.909 0 12.533-5.565 12.533-12.4 0-6.836-5.624-12.4-12.533-12.4H22.033a1 1 0 01-1-1v-4.27a1 1 0 00-1.609-.793l-9.86 7.577a2 2 0 000 3.172l9.86 7.577a1 1 0 001.61-.793v-4.27a1 1 0 011-1h20.933c3.462 0 6.266 2.774 6.266 6.2s-2.804 6.2-6.266 6.2H21.033c-6.909 0-12.533 5.564-12.533 12.4 0 6.835 5.624 12.4 12.533 12.4h20.934a1 1 0 011 1v4.27a1 1 0 001.609.793l9.86-7.577a2 2 0 000-3.172z" fill="#05C0A5" fill-rule="nonzero"/><path d="M8.74 15.857l10.657 7.73a1 1 0 001.587-.81V5.7a1 1 0 00-1.587-.81L8.74 12.62a2 2 0 000 3.238z" fill="#05C0A5"/><path d="M55.232 53.103l-10.657 7.73a1 1 0 01-1.587-.81V42.945a1 1 0 011.587-.81l10.657 7.73a2 2 0 010 3.238z" fill="#5A78F0"/></g></svg>