<svg width="64" height="64" xmlns="http://www.w3.org/2000/svg"><g transform="translate(5 7)" fill="none" fill-rule="evenodd"><path d="M17.781 42.079l16.043 7.475a5.732 5.732 0 007.607-2.756l11.133-23.662a9.171 9.171 0 00.32-7.041L49.1 5.7a5.732 5.732 0 00-7.347-3.426L31.11 6.149a9.171 9.171 0 00-5.184 4.76L15.002 34.472a5.732 5.732 0 002.78 7.607z" fill="#A0DCD3" fill-rule="nonzero"/><path d="M1.754 31.825l14.665 14.656a5.732 5.732 0 008.09.013l21.193-21.047a9.171 9.171 0 002.708-6.507V5.732A5.732 5.732 0 0042.678 0H29.177c-2.44 0-4.778.972-6.5 2.7L1.745 23.727a5.732 5.732 0 00.01 8.098z" fill="#CDF4EE" fill-rule="nonzero"/><text fill="#05C0A5" transform="rotate(-46 32.106 25.269)" font-family="ArialRoundedMTBold, Arial Rounded MT Bold" font-size="12"><tspan x="12.777" y="22.269">https</tspan></text><circle fill="#5A78F0" fill-rule="nonzero" cx="40.012" cy="7.692" r="2.884"/></g></svg>