<svg width="64" height="64" xmlns="http://www.w3.org/2000/svg"><g transform="translate(3 4)" fill="none"><circle fill="#CDF4EE" cx="28.326" cy="6.011" r="5.927"/><path d="M36.63 8.132c-.828 3.655-4.089 6.398-7.99 6.398-3.902 0-7.163-2.743-7.99-6.398-2.935.653-5.139 3.268-5.139 6.398v6.564a3.286 3.286 0 003.282 3.282 3.286 3.286 0 003.282-3.282v-3.282h13.129v3.282a3.286 3.286 0 003.282 3.282 3.286 3.286 0 003.282-3.282V14.53c0-3.13-2.204-5.745-5.139-6.398z" fill="#05C0A5"/><path d="M54.189 40.327c-2.811-1.637-6.405-.666-8.028 2.169-1.623 2.834-.66 6.458 2.151 8.094 2.81 1.637 6.536.666 8.158-2.168 1.623-2.835.53-6.459-2.281-8.095z" fill="#CDF4EE"/><path d="M51.072 30.3l-5.685-3.282a3.286 3.286 0 00-4.483 1.202 3.286 3.286 0 001.201 4.483l2.843 1.641-6.565 11.37-2.842-1.641a3.286 3.286 0 00-4.484 1.201 3.286 3.286 0 001.202 4.484l5.685 3.282c2.71 1.565 6.076.963 8.11-1.251-2.752-2.544-3.497-6.74-1.546-10.119 1.95-3.379 5.957-4.83 9.536-3.72.901-2.869-.262-6.085-2.972-7.65z" fill="#05C0A5"/><path d="M11.158 42.496a5.926 5.926 0 00-8.095-2.17C.23 41.964-.874 45.588.763 48.423c1.636 2.834 5.392 3.805 8.226 2.169a5.926 5.926 0 002.17-8.095z" fill="#CDF4EE"/><path d="M26.222 45.274a3.286 3.286 0 00-4.484-1.201l-2.842 1.641-6.565-11.37 2.843-1.64a3.286 3.286 0 001.201-4.484 3.286 3.286 0 00-4.483-1.202L6.207 30.3c-2.71 1.565-3.873 4.781-2.972 7.65 3.58-1.11 7.586.341 9.536 3.72 1.951 3.38 1.206 7.575-1.546 10.119 2.034 2.214 5.4 2.816 8.11 1.251l5.685-3.282a3.286 3.286 0 001.202-4.484z" fill="#05C0A5"/></g></svg>