<svg width="64" height="64" xmlns="http://www.w3.org/2000/svg"><g transform="translate(8 2)" fill="none" fill-rule="evenodd"><path d="M24.502 9.844C13.152 14.1 2.786 7.908.255 21.604c-2.532 13.695 14.542 14.176 18.95 7.195 1.18-2.113 5.286-7.967 8.011-15.422.304-.83.359-1.318-.503-2.178-.861-.86-1.32-1.683-2.211-1.355z" fill="#05C0A5"/><text font-family="Menlo-Regular, Menlo" font-size="15" fill="#FFF"><tspan x="7.684" y="26.11">$</tspan></text><path d="M25.992 37.377c-.748.973-1.83 2.126-3.248 3.459-2.762 2.598-5.862 3.167-9.3 1.706-3.134-1.798-5.038-3.06-5.71-3.787-1.01-1.09-.398-4.193 2.714-3.093 3.113 1.1 6.06 4.406 8.37.112a83.137 83.137 0 002.356-4.7l-.044-.057 1.205-2.657.096-.247.01.014 5.114-11.278a3 3 0 013.624-1.625c.507.157.98.236 1.42.236 1.463 0 2.827.687 3.701 1.828h2.632a1.92 1.92 0 010 3.842h-.464l1.055 1.924a2 2 0 002.418.924l1.671-.588c1.773-.434 2.866-.05 3.28 1.153.412 1.202-.136 2.233-1.644 3.09l-5.865 1.954a2 2 0 01-2.37-.908l-2.124-3.733a1 1 0 00-1.753.026c-.797 1.504-1.328 2.676-1.594 3.518-.529 1.675-1.169 2.65-.537 4.395.632 1.746 3.034 4.492 5.012 7.962 1.319 2.313 2.927 5.535 4.824 9.667 1.076 2.84.804 4.612-.816 5.313-1.62.702-2.956-.016-4.008-2.154-.627-1.84-2.015-4.477-4.165-7.908-1.373-2.191-3.327-4.987-5.86-8.388zm9.064-22.97a7.203 7.203 0 110-14.407 7.203 7.203 0 010 14.407z" fill="#CDF4EE"/><ellipse fill="#5A78F0" cx="35" cy="58.333" rx="8.333" ry="1.667"/></g></svg>