<svg width="400" height="400" xmlns="http://www.w3.org/2000/svg"><path d="M187.869.22C66.745 6.982-19.975 118.695 3.867 237.252c24.178 120.223 150.457 189.461 265.698 145.681 61.601-23.402 109.025-79.245 122.463-144.204C415.823 123.707 335.975 14 219.057 1.074 211.292.216 195.632-.213 187.869.22m16.64 15.459c116.621 4.667 199.273 114.947 170.486 227.477-25.825 100.949-131.477 160.199-230.712 129.383-83.404-25.9-137.021-107.296-127.727-193.902 9.635-89.79 84.252-159.495 174.426-162.947 6.39-.244 7.662-.245 13.527-.011m26.194 78.577l-20.397 13.077-53.931.01c-51.171.01-53.936.03-54.043.386-.062.207-5.237 17.164-11.501 37.683-6.264 20.519-11.389 37.451-11.389 37.627 0 .282 4.703.326 39.79.374l39.79.055-5.789 19.323-5.79 19.324-25.003 36.355c-13.752 19.995-24.953 36.404-24.892 36.465.06.061 8.113-5.969 17.894-13.399 9.781-7.431 17.815-13.487 17.854-13.458.214.161-2.06 7.195-9.386 29.024l-8.16 24.316 44.251-.054 44.251-.054 15.71-65.057c8.641-35.781 15.772-65.3 15.848-65.599.098-.387 1.427-1.515 4.613-3.919l4.475-3.375h29.335c27.752 0 29.34-.02 29.445-.376.062-.206 5.285-17.192 11.609-37.746 6.324-20.555 11.498-37.487 11.498-37.627 0-.197-10.567-.269-45.959-.31l-45.958-.055 7.8-12.238c9.201-14.436 8.837-13.851 8.611-13.839-.098.006-9.357 5.895-20.576 13.087m-7.757 15.513c-.088.148-6.103 9.592-13.365 20.988-14.437 22.652-16.776 26.359-16.77 26.582.002.082 10.396 4.509 23.097 9.839l23.093 9.69-51.814 39.287c-28.498 21.608-51.847 39.259-51.888 39.225-.041-.035 11.295-16.597 25.192-36.806 13.897-20.209 25.218-36.858 25.159-36.999-.06-.14-9.373-5.085-20.696-10.989l-20.588-10.734 4.198-2.685c2.309-1.477 19.996-12.803 39.304-25.169 37.298-23.888 35.321-22.635 35.078-22.229m-46.14 11.614c-.233.159-14.337 9.161-31.342 20.006a25083.004 25083.004 0 00-31.019 19.798c-.187.151.492.453 12.298 5.468 9.259 3.933 11.626 5.015 11.064 5.057-.394.03-10.295-.018-22.003-.107l-21.287-.161 7.76-25.173 7.761-25.173 33.595-.002c28.182-.001 33.528.045 33.173.287m134.735-.116c0 .129-12.976 40.215-15.917 49.17l-.445 1.354-15.478-.154-15.478-.154-22.972-8.664c-12.634-4.766-23.014-8.708-23.066-8.76-.052-.052 4.434-7.49 9.969-16.528l10.064-16.433 36.661-.002c20.164 0 36.662.076 36.662.171M204.756 261.959l-11.666 44.536-28.698.054c-15.783.03-28.69-.018-28.682-.107.008-.089 2.544-8.021 5.636-17.626l5.621-17.464 34.676-27.008c19.071-14.855 34.698-26.989 34.727-26.964.029.024-5.198 20.085-11.614 44.579" fill-rule="evenodd"/></svg>