<svg width="64" height="64" xmlns="http://www.w3.org/2000/svg"><g fill="none" fill-rule="evenodd"><g fill-rule="nonzero"><path d="M48.546 15.383v37.981c0 1.18-.957 2.137-2.137 2.137H12.217a2.137 2.137 0 01-2.137-2.137V6.137c0-1.18.957-2.137 2.137-2.137h25.077c.567 0 1.11.225 1.511.626l9.115 9.246c.4.401.626.945.626 1.511z" fill="#CDF4EE"/><path d="M40.262 14.496h8.086a1.698 1.698 0 00-.34-.493l-9.342-9.47a1.695 1.695 0 00-.535-.361v8.082c0 1.092 1.042 2.242 2.131 2.242z" fill="#00C0A5"/></g><path d="M18.215 21.882H40.79m-22.743 7.042h22.577" stroke="#05C0A5" stroke-width="3" stroke-linecap="round"/><path d="M45.69 59.592c5.967 0 10.804-4.864 10.804-10.864 0-6-4.837-10.863-10.804-10.863-5.967 0-10.804 4.863-10.804 10.863 0 6 4.837 10.864 10.804 10.864z" fill="#5A78F0"/><path d="M45.69 40.724l-4.55 8.658 4.55 2.443 4.55-2.444-4.55-8.657z" fill="#FFF"/><path d="M45.69 52.855l-4.55-2.411 4.55 6.289 4.55-6.29-4.55 2.412z" fill="#FFF"/><path d="M18.047 35.965H32.8" stroke="#05C0A5" stroke-width="3" stroke-linecap="round"/></g></svg>