<svg width="52" height="52" xmlns="http://www.w3.org/2000/svg"><g fill="none" fill-rule="evenodd"><path d="M26 20v7-7z" fill="#000"/><path d="M26.026 3c-6.378 0-11.54 5.107-11.54 11.417v4.28c-2.24.4-4.486.935-4.486 1.63v22.33s0 .618.702.911c2.542 1.02 12.543 4.521 14.841 5.324.296.108.38.108.457.108.11 0 .16 0 .457-.108 2.298-.803 12.325-4.305 14.867-5.324.65-.267.676-.885.676-.885V20.326c0-.694-2.214-1.254-4.46-1.63v-4.279C37.572 8.107 32.378 3 26.026 3zm.002 4.492c4.108 0 6.592 2.478 6.592 6.577v4.1c-4.608-.324-8.54-.324-13.176 0v-4.1c0-4.106 2.483-6.577 6.584-6.577zm-.032 14.363c6.545 0 12.037.486 12.037 1.358v16.875c0 .262-.032.293-.273.385-.232.1-11.162 3.887-11.162 3.887s-.441.132-.57.132c-.136 0-.57-.162-.57-.162s-10.93-3.787-11.162-3.888c-.233-.1-.273-.13-.273-.385V23.182c-.064-.872 5.428-1.327 11.973-1.327z" fill="#002747" fill-rule="nonzero"/></g></svg>