<svg width="45" height="45" xmlns="http://www.w3.org/2000/svg"><path d="M22.628 6C18 6 14.255 9.775 14.255 14.439v3.163c-1.625.296-3.255.691-3.255 1.204v16.506s0 .457.509.673c1.845.753 9.102 3.342 10.77 3.935.214.08.275.08.33.08.08 0 .118 0 .332-.08 1.668-.593 8.943-3.182 10.788-3.935a.786.786 0 00.49-.654V18.806c0-.513-1.606-.927-3.236-1.204v-3.163C31.007 9.775 27.238 6 22.628 6zm.002 3.32c2.981 0 4.783 1.832 4.783 4.861v3.03a63.925 63.925 0 00-9.56 0v-3.03c0-3.035 1.801-4.86 4.777-4.86zm-.023 10.616c4.749 0 8.734.36 8.734 1.004v12.473c0 .193-.023.216-.198.285-.169.074-8.1 2.873-8.1 2.873s-.32.097-.413.097c-.099 0-.414-.12-.414-.12s-7.93-2.799-8.099-2.873c-.169-.074-.198-.097-.198-.285V20.917c-.047-.644 3.939-.98 8.688-.98z" fill="#002747"/></svg>