<svg width="180" height="51" fill="none" xmlns="http://www.w3.org/2000/svg"><g clip-path="url(#clip0)" fill="#000"><path d="M17.457 0c-6.948 0-12.57 5.623-12.57 12.57v4.711C2.446 17.723 0 18.312 0 19.076v24.587s0 .68.764 1.002c2.77 1.122 13.664 4.978 16.167 5.861.322.12.413.12.498.12.119 0 .175 0 .497-.12 2.503-.883 13.426-4.739 16.195-5.86.708-.295.736-.975.736-.975V19.076c0-.764-2.411-1.381-4.858-1.795v-4.71C30.034 5.622 24.376 0 17.457 0zm0 6.008c4.094 0 6.569 2.475 6.569 6.57v4.094c-4.592-.323-8.511-.323-13.131 0v-4.095c0-4.101 2.474-6.569 6.562-6.569zm-.028 16.693c5.713 0 10.509.441 10.509 1.234v15.339c0 .238-.028.266-.239.35-.203.092-9.745 3.534-9.745 3.534s-.385.12-.497.12c-.12 0-.498-.148-.498-.148s-9.542-3.442-9.745-3.534c-.203-.09-.238-.119-.238-.35v-15.34c-.056-.792 4.739-1.205 10.453-1.205zM51.07 39.483V22.685h-6.137V16.66H64.07v6.024h-6.078v16.798h-6.921zm28.505 0l-3.15-7.176H73.92v7.176h-6.921V16.661H79.18c5.347 0 8.215 3.545 8.215 7.82 0 3.94-2.278 6.023-4.108 6.921l4.135 8.074h-7.847v.007zm.817-15.002c0-1.24-1.099-1.776-2.251-1.776h-4.222v3.605h4.222c1.152-.027 2.25-.563 2.25-1.83zm10.634 15.002V16.661h17.307v6.024H97.921v2.251h10.157v6.024H97.921v2.506h10.412v6.017H91.026zm20.905.027v-5.488l8.697-11.31h-8.697v-6.024h17.81v5.434l-8.724 11.371h8.979v6.024l-18.065-.007zm19.753-11.398c0-7.008 5.434-11.82 12.497-11.82 7.035 0 12.496 4.785 12.496 11.82 0 7.01-5.434 11.793-12.496 11.793-7.063 0-12.497-4.784-12.497-11.793zm17.957 0c0-3.182-2.164-5.715-5.487-5.715-3.324 0-5.488 2.533-5.488 5.715 0 3.183 2.164 5.716 5.488 5.716 3.35 0 5.487-2.533 5.487-5.716zm22.507 11.398l-3.149-7.176h-2.506v7.176h-6.921V16.688h12.181c5.347 0 8.215 3.545 8.215 7.82 0 3.94-2.278 6.024-4.107 6.921l4.134 8.074h-7.847v.007zm.845-15.03c0-1.239-1.099-1.775-2.252-1.775h-4.221v3.605h4.221c1.16-.027 2.252-.563 2.252-1.83z"/></g><defs><clipPath id="clip0"><path fill="#fff" d="M0 0h180v50.638H0z"/></clipPath></defs></svg>