<svg width="52" height="53" fill="none" xmlns="http://www.w3.org/2000/svg"><path d="M24.73 28.304c-.847 0-1.534.167-1.534.374v22.947c0 .207.687.375 1.534.375h1.92c.847 0 1.534-.168 1.534-.375V28.678c0-.207-.687-.374-1.535-.374H24.73z" fill="#444"/><path d="M18.208 0c-.751 0-.751.938-.751 2.096v13.098c0 1.157.955 2.096 2.134 2.096h12.27c1.178 0 2.134-.939 2.134-2.096V2.096c0-1.158 0-2.096-.752-2.096H18.208z" fill="#C4C4C4"/><path d="M18.208 0c-.751 0-.751.938-.751 2.096v13.098c0 1.157.955 2.096 2.134 2.096h12.27c1.178 0 2.134-.939 2.134-2.096V2.096c0-1.158 0-2.096-.752-2.096H18.208z" stroke="#444"/><path d="M20.197 5.262c-.268 0-.485.163-.485.365v2.277c0 .202.217.365.485.365h2.789c.267 0 .485-.163.485-.365V5.627c0-.202-.218-.365-.485-.365h-2.79z" fill="#444"/><path d="M20.197 5.262c-.268 0-.485.163-.485.365v2.277c0 .202.217.365.485.365h2.789c.267 0 .485-.163.485-.365V5.627c0-.202-.218-.365-.485-.365h-2.79z" stroke="#444"/><path d="M28.466 5.262c-.268 0-.485.163-.485.365v2.277c0 .202.217.365.485.365h2.788c.268 0 .485-.163.485-.365V5.627c0-.202-.217-.365-.485-.365h-2.788z" fill="#444"/><path d="M28.466 5.262c-.268 0-.485.163-.485.365v2.277c0 .202.217.365.485.365h2.788c.268 0 .485-.163.485-.365V5.627c0-.202-.217-.365-.485-.365h-2.788z" stroke="#444"/><path d="M23.445 30.632c-.901 0-1.632.73-1.632 1.632v5.306c0 .902.73 1.633 1.633 1.633h4.489c.901 0 1.632-.731 1.632-1.633v-5.306c0-.901-.73-1.632-1.632-1.632h-4.49z" fill="#444"/><path fill-rule="evenodd" clip-rule="evenodd" d="M23.445 37.57v-5.306h4.49v5.306h-4.49zm-1.632-5.306c0-.901.73-1.632 1.633-1.632h4.489c.901 0 1.632.73 1.632 1.632v5.306c0 .902-.73 1.633-1.632 1.633h-4.49a1.633 1.633 0 01-1.632-1.633v-5.306z" fill="#444"/><path d="M19.364 33.897a3.265 3.265 0 01-3.265-3.265V13.083c0-.45.366-.816.816-.816h17.55c.45 0 .816.365.816.816v17.55a3.265 3.265 0 01-3.265 3.264H19.364z" fill="#444"/><path fill-rule="evenodd" clip-rule="evenodd" d="M17.732 13.9v16.732c0 .902.73 1.632 1.632 1.632h12.652c.901 0 1.632-.73 1.632-1.632V13.9H17.732zm-1.633 16.732a3.265 3.265 0 003.265 3.265h12.652a3.265 3.265 0 003.265-3.265v-17.55a.816.816 0 00-.816-.815h-17.55a.816.816 0 00-.816.816v17.55z" fill="#444"/></svg>