<svg xmlns="http://www.w3.org/2000/svg" fill="none" aria-hidden="true" viewBox="0 0 28 20"><path fill="#fff" d="M0 0h28v20H0V0z"/><path fill="#D02F44" fill-rule="evenodd" d="M28 0H12v1.333h16V0zm0 2.667H12V4h16V2.667zM12 5.333h16v1.334H12V5.333zM28 8H12v1.333h16V8zM0 10.667h28V12H0v-1.333zm28 2.666H0v1.334h28v-1.334zM0 16h28v1.333H0V16zm28 2.667H0V20h28v-1.333z" clip-rule="evenodd"/><path fill="#46467F" fill-rule="evenodd" d="M12 0H0v9.333h12V0zM2 2.667a.667.667 0 100-1.334.667.667 0 000 1.334zm2.667 0a.667.667 0 100-1.334.667.667 0 000 1.334zm2.666 0a.667.667 0 100-1.334.667.667 0 000 1.334zm2.667 0a.667.667 0 100-1.333.667.667 0 000 1.333zM3.333 4a.667.667 0 10.052-1.333A.667.667 0 003.333 4zM6 4a.667.667 0 10.052-1.333A.667.667 0 006 4zm2.667 0a.667.667 0 10.052-1.333A.667.667 0 008.667 4zM10 5.333A.667.667 0 1010.052 4 .667.667 0 0010 5.333zm-2.667 0A.667.667 0 107.385 4a.667.667 0 00-.052 1.333zm-2.666 0A.667.667 0 104.719 4a.667.667 0 00-.052 1.333zM2 5.333A.667.667 0 102.052 4 .667.667 0 002 5.333zm1.333 1.334a.667.667 0 100-1.334.667.667 0 000 1.334zm2.667 0a.667.667 0 100-1.334.667.667 0 000 1.334zm2.667 0a.667.667 0 100-1.334.667.667 0 000 1.334zM10 8a.667.667 0 10.052-1.333A.667.667 0 0010 8zM7.333 8a.667.667 0 10.052-1.333A.667.667 0 007.333 8zM4.667 8a.667.667 0 10.052-1.333A.667.667 0 004.667 8zM2 8a.667.667 0 10.052-1.333A.667.667 0 002 8z" clip-rule="evenodd"/></svg>