<svg width="64" height="64" xmlns="http://www.w3.org/2000/svg"><g transform="translate(4 6)" fill="none"><path d="M45.151 17.254c-1.126 0-3.213.634-4.571 1.905-1.553 1.453-2.31 3.638-2.31 4.926 0 1.272.372 4.07 1.9 5.7 1.37 1.459 3.84 1.828 4.981 1.828H55.37V17.254H45.151z" fill="#5A78F0"/><path d="M45.39 17.254h9.98V8.64H10.987c-.906 0-2.286-.482-3.05-1.263-.765-.782-1.05-2.019-1.227-2.528v28.2c0 3.966 3.192 7.18 7.128 7.18h41.53v-8.615H45.39c-3.93 0-7.128-3.221-7.128-7.18 0-3.958 3.198-7.179 7.128-7.179z" fill="#CDF4EE"/><path d="M10.974 0C8.62 0 6.711 1.96 6.711 4.376c0 2.416 1.909 4.291 4.263 4.291H49.53V0H10.974z" fill="#00C0A5"/><circle fill="#FFF" cx="44.663" cy="24.5" r="2.131"/><g transform="translate(0 21.772)"><ellipse fill="#05C0A5" cx="11.898" cy="11.929" rx="11.898" ry="11.929"/><path d="M11.898 19.805a7.967 7.967 0 100-15.934 7.967 7.967 0 000 15.934z" fill="#CDF4EE"/><path d="M21.07 17.309l6.996 6.92c.905.896.913 2.356.018 3.261l-.018.018a2.356 2.356 0 01-3.314 0l-6.995-6.921a2.306 2.306 0 01-.018-3.26l.018-.018a2.356 2.356 0 013.313 0z" fill="#05C0A5"/></g></g></svg>