<svg width="44" height="44" xmlns="http://www.w3.org/2000/svg"><path d="M11.36 16.235c5.729-5.614 15.015-5.614 20.743 0l.689.676a.709.709 0 010 1.017l-2.358 2.311a.372.372 0 01-.519 0l-.948-.93c-3.996-3.917-10.474-3.917-14.47 0l-1.016.996a.372.372 0 01-.519 0l-2.358-2.311a.709.709 0 010-1.017l.757-.742zm25.62 4.78l2.098 2.058a.709.709 0 010 1.017l-9.463 9.276a.744.744 0 01-1.037 0l-6.717-6.584a.186.186 0 00-.259 0l-6.716 6.584a.744.744 0 01-1.037 0l-9.463-9.277a.709.709 0 010-1.016l2.098-2.057a.744.744 0 011.037 0l6.717 6.583a.186.186 0 00.259 0l6.716-6.583a.744.744 0 011.037 0l6.717 6.583c.071.07.187.07.259 0l6.716-6.583a.744.744 0 011.037 0z" fill="#3B99FC"/></svg>