<svg width="80" height="80" fill="none" xmlns="http://www.w3.org/2000/svg"><path d="M40 80c22.091 0 40-17.909 40-40S62.091 0 40 0 0 17.909 0 40s17.909 40 40 40z" fill="#181818"/><path d="M41.824 35.2l15.904-15.936 3.232 3.264-15.904 15.904-3.232-3.232zM19.008 57.984l15.936-15.936 3.232 3.264-15.904 15.904-3.264-3.232zm22.816-12.672l3.232-3.264 15.936 15.936-3.264 3.232-15.904-15.904zM19.008 22.528l3.264-3.264 15.904 15.904-3.232 3.264-15.936-15.904zm17.728 17.696L40 36.96l3.264 3.264L40 43.488l-3.264-3.264z" fill="#F6D30C"/></svg>