<svg xmlns="http://www.w3.org/2000/svg" width="1000" height="500" viewBox="0 0 264.583 132.292"><g transform="translate(0 -164.708)"><path d="M264.583 164.708H0V297h264.583z" fill="#d00c27" paint-order="markers stroke fill"/><path d="M89.77 192.206c.472-1.96-1.607-2.976-3.213-2.575-1.89-.59-3.355-.236-3.757.307-1.275-.07-2.527.52-2.693 1.512-1.37 0-2.527 1.087-1.417 4.63-.425 1.465.567 2.457 3 4.442 2.433 1.984 8.717-5.481 8.08-8.316z" fill="#fff" stroke="#000" stroke-width=".265" stroke-linejoin="round"/><path d="M108.26 206.346c-1.285.668-.884 1.737-.083 2.171.802.434 2.924-1.386 2.99-1.67.067-.284-2.906-.501-2.906-.501z" fill="#fff" stroke="#000" stroke-width=".265"/><path d="M73.776 236.973c-2.953 2.504-3.945 3.992-4.772 7.347-.827 3.354-.299 4.855-.466 6.275-.167 1.42-.739 2.938-1.258 3.835-.52.898-.78 1.229-1.252 1.56-.473.33-1.394 1.795-1.465 2.55-.07.757-.425 2.647-.402 3.237.024.59-.212 2.292-.047 3.19.166.897.355 2.952-.425 3.85-.78.898-1.087 2.103-.52 3.118.567 1.016 1.56 2.046 2.078 2.28.518.234 2.138.802 2.456 1.22.317.417 1.286 1.57 1.887 1.904.602.334.952.585 1.454.785.5.2 1.486.284 1.77-.117.284-.4.435-.668.986-.45.551.216 1.152.317 1.136-.235-.017-.551.15-.785-.468-1.32-.618-.534-1.42-.65-1.587-.751-.167-.1-.785-.969-.902-1.487-.117-.518-1.22-1.37-1.971-2.105-.752-.734-1.17-1.954-.869-3.54.301-1.588.952-2.586 1.306-3.27.355-.686.733-1.843.993-2.292.26-.449.52-1.347.803-2.173.283-.827 1.7-2.008 1.984-2.646.284-.638.874-2.292.969-3.237.094-.945 1.771-2.81 2.268-3.496.496-.685 2.619-3.55 2.903-4.268.284-.719 2.489-6.064 2.823-7.735.334-1.67-7.097-2.372-9.412-2.03zm-2.506 39.765c.559.325 1.307.598 1.459 1.36m-.549-1.678c.4.184.792.542 1.018 1.136m-.058-1.219c.418.225.991.476 1.026 1.34" fill="#fff" stroke="#000" stroke-width=".265" stroke-linecap="round"/><path d="M72.713 217.483c.898 3.355.703 4.197 1.003 4.682.301.484.51 4.437-.672 5.382-1.181.945-3.153 3.003-3.02 4.807.134 1.804 1.404 5.312 2.774 6.448 1.37 1.136 2.207 1.832 2.797 2.163.59.33 4.441.874 5.528 2.22 1.087 1.347 1.772 2.552 2.859 3.473 1.086.922 3.354 2.292 3.756 2.552.401.26 1.346.85 1.583 1.346.236.496.401 2.764.236 3.355-.166.59-.803 1.44-.685 2.764.118 1.323.047 2.079.307 2.41.26.33.638 1.818.732 2.48.095.661.921 2.575 1.229 3.07.307.497 1.275 1.962 1.417 2.103a3.694 3.694 0 011.054 2.45c.05 1.436-.501 2.488.05 3.474.552.985.668 1.87 2.673 1.47 2.004-.401 2.64-.435 3.24-.217.602.217 1.955.735 3.024.902 1.07.167 3.625.367 4.16.267.534-.1.15-4.06-4.828-4.11-1.086-.768-1.152-.621-1.353-1-.2-.377-1.3-1.169-1.854-1.488-.555-.319-1.704-1.838-1.938-2.64-.234-.801-.735-1.42-.785-3.424-.05-2.005-.05-3.892-.167-4.677-.117-.785-.351-1.888-.084-3.425.268-1.536.451-3.357.518-4.075.067-.719.25-2.205-.3-3.14-.552-.936-1.337-1.404-1.47-1.922-.134-.518-.635-2.522-1.12-3.257-.484-.735-3.023-4.31-3.959-5.162-.935-.852-2.104-2.021-2.322-2.322-.217-.3-.517-.5-.467-.885.05-.384-.067-.819-.234-1.203-.167-.384-.184-.802.25-1.42.435-.618 1.504-2.439 1.704-3.057.2-.618.05-2.188 0-2.873s-.284-2.372-.016-3.107c.267-.735.835-2.372 1.102-2.74.267-.367 1.804-1.67 2.005-2.705.2-1.036.2-6.08.568-7.083.367-1.002-14.3-.368-14.3-.368z" fill="#fff" stroke="#000" stroke-width=".265" stroke-linejoin="round"/><path d="M90.915 200.32c-.035.71.06 1.643-1.358 1.217 1.355.529-.908.72.079 2.102.735-.016 3.641-.317 4.176-.3.534.016 2.071.417 3.274.735 1.202.317 3.006-.1 3.558-.117.55-.017 3.04-.067 4.042-.2 1.002-.134 2.92.19 3.888.095.968-.094 2.48-1.063 3.496-1.11 1.016-.047 5.22 2.977 5.15 4.276-.071 1.3-1.82 1.984-3.19 2.15-1.37.165-2.645-1.3-3.236-1.536-.59-.236-4.12-.034-4.655-.034-.534 0-2.154.652-3.29.769-1.136.117-1.821.735-4.56 1.202-2.74.468-4.51-.467-7.284 1.537l-11.087 1.464c-1.37-.237-2.456 1.653-2.905 2.41-.45.755-2.194 3.008-2.695 3.994-.501.986-1.754 2.305-2.122 3.14-.367.836-.534 3.659-.551 5.53-.017 1.87.501 2.856 1.52 4.075 1.019 1.22.635 2.272.585 3.024-.05.752-.769 1.186-1.203.885-.434-.3-.4-1.136-.25-1.787.15-.652-.318-1.203-.585-1.036-.184.535-.25 2.021.083 2.773.334.752 1.307.913 1.229 1.662-.061.582-.759.534-1.563.075-.083.685-.915.618-1.37-.05-.384 1.036-1.096.452-1.37-.2-.6 1.486-1.414-.094-1.603-.652-.334-.985-.547-3.15-.618-4.803-.07-1.654.78-3.213 1.087-3.732.307-.52.354-2.292.354-3.048 0-.756-.305-3.05-.355-3.751-.05-.702-.1-2.64-.1-3.425 0-.785.785-1.202 1.186-1.436.4-.234.5-1.52.584-1.871.084-.35.811-1.199 1.248-1.707.437-.507 1.993-2.118 2.377-2.436.384-.317.652-.969.752-1.37.1-.4.214-.871.568-1.509.355-.638 1.158-1.04 1.678-1.394.52-.354 1.771-.826 2.15-.921.377-.094 1.63-.543 2.858-1.205 1.228-.661 1.228-2.433.472-3.78.258-1.046.91-.996 1.094-1.53.183-.535 1.103-2.793.702-3.572.897-1.016 2.93-.402 3.59-2.268 1.3.402 2.6.685 3.024-.449.585 1.06.852 1.845.835 2.413-.016.568-.5 1.403-.384 1.82.117.418 1.047 2.203 1.187 2.534.125.292.987 1.562-.492 1.348" fill="#fff"/><path d="M68.722 237.065c-.268-.64-.58-2.148-.51-3.305m1.879 3.505c-.371-.546-.613-1.863-.542-3.02m1.912 3.07c-.466-.265-.908-1.57-.943-3.118m20.397-33.877c-.018-.422-.712-.63-.712-.28 0 .443-.918.71-.985.075" fill="none" stroke="#000" stroke-width=".265" stroke-linecap="round"/><path d="M86.946 196.754c.142-1.796 1.607-2.245 2.504-1.772-.708.484-1.641.921-2.504 1.772z"/><path d="M87.655 197.19c.484-.637 1.264-1.23 1.749-.793.427.386-.067.846-.295.89-.454.09-.858-.401-.268-1.02" fill="none" stroke="#000" stroke-width=".265" stroke-linecap="round"/><circle cx="89.028" cy="196.789" r=".437" paint-order="markers stroke fill"/><path d="M84.75 196.848c-.308-.768-.78-1.205-1.406-.319-.626.886-.166 1.56-.06 1.996.107.437.71 1.052 1.17 1.122.46.071.484-.437.413-.626" fill="#fff" stroke="#000" stroke-width=".265" stroke-linecap="round"/><path d="M84.048 197.083c-.376.434-.167 1.295.142 1.495.223.145.494-.036.4-.284-.103-.274-.417-.075-.408.167m19.856 73.522c.307.047 1.429.002 1.618.173m-1.193.512c.46.07 1.547-.23 1.766.086m-1.411.634c.65.071 1.84-.172 1.973.405" fill="none" stroke="#000" stroke-width=".265" stroke-linecap="round"/><path d="M112.933 205.707c.869-.868 2.527-.514 3.764-.03 1.236.485 2.388 1.604.851 1.821-1.536.217-3.684.325-4.252.058" fill="#fff" stroke="#000" stroke-width=".265" stroke-linecap="round"/><path d="M113.133 204.715c-.449.862-.106 3.07.65 3.39" fill="none" stroke="#000" stroke-width=".265" stroke-linecap="round"/><path d="M152.773 191.12c-2.244-1.11-2.693-1.489-3.756-.851-1.063.638-1.465.732-1.535 1.276-.071.543-.473 1.559-1.276 1.724-.803.166-2.098.448-2.415.866-.317.417-.434.935.535 1.503-1.02 1.921.334.735 1.002 2.54-1.002-.502-1.888-.803-1.838.016.05.818.234.868.017 1.353-.217.484.134 1.119.484 1.453.351.334.836 1.303.518 2.122 1.303.467 3.208 1.085 5.713.851.034-1.002.852-1.002 1.52-2.722s3.608-6.381 3.608-6.381z" fill="#fff" stroke="#000" stroke-width=".265" stroke-linejoin="round"/><path d="M150.64 196.807c.417-.801.969-.417 1.152-.083.184.334.251.852.184 1.086-.067.233-.417.183-.651.584-.234.401-.401.785-.785 1.002-.385.218-1.237.268-1.287-.317m.417-.735c.252-.284.318-.384.368-.601" fill="none" stroke="#000" stroke-width=".265" stroke-linecap="round"/><path d="M152.75 190.01c-1.37-1.206-4.701.472-.969 2.527-.33 1.913.78 3 1.488 3.283-.59.591-.826 1.63-.614 2.15-1.465 1.158-1.782 3.279-1.073 3.657-.052 1.126 1.994-.16 2.561-.704 2.245-.307 3.26-.496 3.568-3.024.425-.637.378-2.22-.142-3.07.189-1.394-.071-2.481-1.181-3.332-.804-.874-2.67-2.197-3.638-1.488z" fill="#fff" stroke="#000" stroke-width=".265" stroke-linejoin="round"/><path d="M145.804 195.838c-.05.844-1.078.644-1.044.059.02-.355.021-.497-.171-.664-.192-.167-.976-.09.126.57" fill="none" stroke="#000" stroke-width=".265" stroke-linecap="round"/><path d="M144.248 195.256l.443.355" fill="none" stroke="#000" stroke-width=".265"/><path d="M147.783 193.625c-.117.777.385 1.22.334 2.255" fill="none" stroke="#000" stroke-width=".265" stroke-linecap="round"/><path d="M148.577 192.815c-.084.568.342 2.238.476 2.756.635-1.294-.084-2.08-.476-2.756z"/><path d="M90.915 200.32c-.035.71.06 1.643-1.358 1.217 1.355.529-.908.72.079 2.102.735-.016 3.641-.317 4.176-.3.534.016 2.071.417 3.274.735 1.202.317 3.006-.1 3.558-.117.55-.017 3.04-.067 4.042-.2 1.002-.134 2.92.19 3.888.095.968-.094 2.48-1.063 3.496-1.11 1.016-.047 5.22 2.977 5.15 4.276-.071 1.3-1.82 1.984-3.19 2.15-1.37.165-2.645-1.3-3.236-1.536-.59-.236-4.12-.034-4.655-.034-.534 0-2.154.652-3.29.769-1.136.117-1.821.735-4.56 1.202-2.74.468-4.51-.467-7.284 1.537m-11.087 1.464c-1.37-.237-2.456 1.653-2.905 2.41-.45.755-2.194 3.008-2.695 3.994-.501.986-1.754 2.305-2.122 3.14-.367.836-.534 3.659-.551 5.53-.017 1.87.501 2.856 1.52 4.075 1.019 1.22.635 2.272.585 3.024-.05.752-.769 1.186-1.203.885-.434-.3-.4-1.136-.25-1.787.15-.652-.318-1.203-.585-1.036-.184.535-.25 2.021.083 2.773.334.752 1.307.913 1.229 1.662-.061.582-.759.534-1.563.075-.083.685-.915.618-1.37-.05-.384 1.036-1.096.452-1.37-.2-.6 1.486-1.414-.094-1.603-.652-.334-.985-.547-3.15-.618-4.803-.07-1.654.78-3.213 1.087-3.732.307-.52.354-2.292.354-3.048 0-.756-.305-3.05-.355-3.751-.05-.702-.1-2.64-.1-3.425 0-.785.785-1.202 1.186-1.436.4-.234.5-1.52.584-1.871.084-.35.811-1.199 1.248-1.707.437-.507 1.993-2.118 2.377-2.436.384-.317.652-.969.752-1.37.1-.4.214-.871.568-1.509.355-.638 1.158-1.04 1.678-1.394.52-.354 1.771-.826 2.15-.921.377-.094 1.63-.543 2.858-1.205 1.228-.661 1.228-2.433.472-3.78.258-1.046.91-.996 1.094-1.53.183-.535 1.103-2.793.702-3.572.897-1.016 2.93-.402 3.59-2.268 1.3.402 2.6.685 3.024-.449.585 1.06.852 1.845.835 2.413-.016.568-.5 1.403-.384 1.82.117.418 1.047 2.203 1.187 2.534.125.292.987 1.562-.492 1.348" fill="none" stroke="#000" stroke-width=".265" stroke-linecap="round" stroke-linejoin="round"/><path d="M117.774 205.26c9.73.503 30.577.467 37.627-.785 1.035.367 4.66 2.221 5.261 2.205-1.486.417-5.562 1.787-6.08 1.804-2.472.117-35.168-.717-36.653-.734" fill="#fff" stroke="#000" stroke-width=".265" stroke-linecap="round"/><path d="M116.33 202.955l2.338.016.534 7.751-2.205-.033z" fill="#fff" stroke="#000" stroke-width=".265" stroke-linejoin="round"/><path d="M90.415 201.613c.158.385-.516.409-.516.669s1.04 1.429-.059 1.618c-1.098.189-2.598-.036-3.319-.933" fill="#fff" stroke="#000" stroke-width=".265" stroke-linecap="round"/><path d="M136.19 246.233c-.095 4.937.212 7.938.685 8.977.472 1.04 1.937 4.229 2.15 4.866.212.638.708 1.701.92 2.363.213.661.639.868 1.274.969.634.1 1.67.751 2.271 1.503s3.475 2.706 4.06 3.274c.584.568 2.622 1.386 3.157 1.921.534.535 1.57 1.186 1.42 2.439a3.934 3.934 0 01-1.721 2.773c-.802.518-1.67.4-1.804 1.353-.785.317-.835.735-.718 1.069-.401.568-.034 1.603.968 1.286 1.003-.317 2.139-.768 2.623-1.136.484-.367 2.405-1.47 2.873-1.937.468-.468 2.222-1.404 2.673-1.905.45-.5 1.086-.818 1.203-1.97.116-1.153-.134-1.989-1.42-2.69-1.287-.702-3.842-2.389-4.761-3.642-.919-1.253-2.59-4.443-3.29-5.479a5.726 5.726 0 00-2.039-1.837c-.45-.234-1.136-1.47-1.119-2.372.017-.902.501-2.656.668-3.057.167-.401.117-1.003.167-1.203.05-.2 1.69-2.4.461-5.825-1.228-3.425-10.701.26-10.701.26z" fill="#fff" stroke="#000" stroke-width=".265" stroke-linejoin="round"/><path d="M156.246 222.657c-.52 3.685-.945 5.339-1.654 6.26-.708.921-.968 1.441-1.299 2.079-.33.638-.898 2.055-1.417 2.339-.52.283-.686 2.008-1.134 2.456-.45.45-1.394 1.158-1.37 2.197.023 1.04-.142 3.355-.237 4.253-.094.897-.466 3.41-1.602 4.078-1.136.668-4.043 2.572-6.882 2.071-2.84 2.005-5.68 4.01-5.914 4.143-.234.134-1.32.935-1.937 1.17-.619.233-1.972.65-2.34.918-.367.267-.8.885-.8 1.604 0 .718.364 2.15.08 2.86-.283.708-1.134 2.669-1.393 3.165-.26.496-1.654 2.93-2.74 3.756-1.087.827-2.009 1.89-2.741 2.339-.732.449-.874 1.157-.85 2.173.023 1.016.236 2.386-.662 2.93-.898.543-1.276.873-2.811.472-1.536-.402-2.364-.19-2.732.045-.367.234-1.62 1.052-2.155 1.353-.534.3-2.578.822-3.145.728-.567-.095-1.56-.354-1.654-.638-.094-.283-.236-.59-.094-.78-.101-.28-.018-.814.283-.964-.017-.284.217-1.253.935-1.002.552-.551 1.287-.852 2.055-1.07.768-.216 1.971-.885 2.238-1.586.268-.702.502-1.437 1.17-1.921.668-.485 1.002-.936 1.503-1.02.501-.083 1.604-1.42 2.155-2.204.551-.785 2.04-4.1 2.606-5.068.567-.969.827-1.914.827-2.362 0-.45.425-1.512.78-2.127.354-.614.661-1.063.638-2.008-.024-.944-.213-2.622.07-3.26.284-.637.742-1.429 1.143-1.796.4-.367 1.085-.986 1.353-1.253.267-.267 1.503-2.105 1.82-2.69.318-.584 2.356-2.605 2.907-2.872.551-.268 1.57-.719 1.82-1.921.251-1.203.034-3.91.335-4.744.3-.836.001-1.33.52-2.063.52-.733.78-1.843.993-2.599.212-.756 2.315-4.417 3-4.984.685-.567 10.253-8.576 10.253-8.576l9.59.426z" fill="#fff" stroke="#000" stroke-width=".265" stroke-linejoin="round"/><path d="M137.985 228.515c-1.323-1.228-2.22-3.661-1.228-6.047-2.221 1.488-2.953 1.7-3.993 1.724-1.04.024-5.677.562-6.279.378-.601-.184-3.274-1.67-3.658-1.854-.384-.184-2.79-1.47-3.257-1.487-.468-.017-1.871.15-2.623-.25-.752-.401-3.507-.826-3.838-1.039-.33-.213-2.493-1.317-2.576-1.935-.084-.618.5-.651 2.973.167-1.804-1.052-4.325-1.413-3.976-2.589.296-.992 1.855.501 3.86 1.32-1.922-1.52-3.81-2.74-3.208-3.492.601-.751 2.439 1.62 4.26 2.473-1.287-1.47-2.99-3.358-2.139-3.842.852-.485 2.289 1.386 2.74 2.088.45.701 1.42 1.67 1.787 1.37.368-.301.2-.585-.568-1.805-.768-1.219-.3-2.238 1.07-.718s1.97 2.088 2.037 2.54c.067.45-.067 1.052.919 1.52.986.467 4.11 2.02 4.861 2.07.752.05 1.737.452 2.355.218.618-.234 1.804-.602 2.422-1.303.618-.702 4.828-2.556 5.93-3.057 1.103-.501 3.926-1.67 4.51-2.138.585-.468 1.454-1.103 1.52-3.458 1.532-.343 5.643-.343 6.8.342.922 1.701 1.772 2.74 3.095 3.355 1.323.614 4.465 1.606 5.22 1.771.757.166 1.844.284 2.245.945.402.662 3.237 5.08 3.898 5.953.661.875 2.268 2.788 2.717 3.473.449.685 1.18 1.323 1.204 2.197.024.874-.307 1.607 0 2.575.308.969.733 2.551.355 4.134-.378 1.583-.071 3.52-.024 4.252.047.733.095 2.646.284 3.355.189.709.85 2.764 1.063 3.284.212.52.422 2.517.238 3.018-.184.501-.935.534-1.136-.084-.2-.618.1-1.854-.835-3.44.284 1.319.216 3.14-.117 3.657-.472.734-1.586.466-1.503-.768 0 0-.348.84-1.22.785-.631-.04-.935-.735-.735-1.152-.701.751-1.587.718-1.704.167-.116-.552.284-1.003.652-1.52s.818-1.136.735-2.34c-.084-1.202-.735-1.352-1.07-.316-.333 1.035-.868 2.171-1.553 1.987-.685-.183-.467-1.787-.234-2.338.234-.551.92-1.637 1.404-2.172.484-.534 1.754-.902 1.704-2.255-.05-1.353-.225-2.419-.225-2.962 0-.544.33-2.103.165-2.74-.165-.638-.59-2.694-1.96-3.26-1.37-.568-3.331-1.985-3.898-3-.567-1.017-2.174-3.072-2.386-4.159" fill="#fff" stroke="#000" stroke-width=".265" stroke-linecap="round" stroke-linejoin="round"/><path d="M164.287 243.48c.184 1.219.2 2.254-.852 3.54m2.101-2.839c.184 1.22.238 2.238-.146 3.207" fill="none" stroke="#000" stroke-width=".265" stroke-linecap="round"/><path d="M141.887 209.369c1.472.448 5.134.91 6.8.342" fill="none" stroke="#000" stroke-width=".265"/><path d="M108.763 274.629c.543-.249 1.358-.402 1.736-.284m-1.453-.681c.933-.394 1.5-.37 1.76-.311m37.078 4.387c.448-.288 1.145-.194 1.145-.194m-.427-.876c.628-.093.864-.01.935.05" fill="none" stroke="#000" stroke-width=".265" stroke-linecap="round"/></g></svg>